<svg width="958" height="848" viewBox="0 0 958 848" fill="none" xmlns="http://www.w3.org/2000/svg">
<path fill-rule="evenodd" clip-rule="evenodd" d="M500.006 0.000244141C485.661 0.51073 471.342 0.51073 457.049 0.000244141H500.006ZM439.896 845.109C360.745 840.311 293.437 824.665 229.04 795.848C199.61 782.805 161.324 760.752 154.254 752.993C151.752 750.287 148.766 747.99 147.566 747.99C142.972 747.99 126.84 734.845 127.938 732.037C128.525 730.25 127.019 729.05 124.033 729.05C121.047 729.05 110.581 720.576 96.8239 707.023C84.5467 694.95 74.5921 686.374 74.5921 688.084C74.5921 693.164 70.7893 691.453 57.0317 680.299C31.7116 659.65 15.2737 631.446 5.39578 591.449C0.49511 571.413 -0.0919119 563.551 0.0101854 520.262C0.112283 489.556 1.20988 467.733 3.09868 460.943C4.68119 455.073 6.59555 446.598 7.28471 442.004C13.1553 404.126 43.7846 350.168 81.5605 310.784C114.972 275.892 174.698 233.42 195.935 229.336C200.325 228.442 206.885 225.252 210.586 222.164C217.656 216.268 227.942 212.694 230.52 215.17C231.312 215.987 234.221 214.685 236.901 212.183C248.362 201.616 333.715 180.176 391.247 173.412C430.835 168.818 545.184 169.507 556.465 174.408C561.928 176.884 565.935 177.394 567.416 175.99C572.699 170.604 659.941 189.263 705.604 205.496C755.556 223.261 813.904 254.171 813.189 262.543C812.985 265.326 814.083 266.218 816.788 265.427C821.459 263.921 825.16 266.218 827.253 271.706C828.249 274.412 830.137 275.306 832.843 274.31C835.421 273.315 836.314 273.697 835.242 275.408C834.221 276.99 836.927 279.695 841.904 281.967C853.671 287.557 893.055 329.544 908.906 353.256C919.983 369.924 922.28 375.003 922.178 383.375C922.076 388.863 922.459 391.543 923.071 389.271C924.96 382.176 927.768 384.575 934.047 398.741C949.387 433.326 962.149 504.412 955.079 515.897C952.782 519.471 952.68 521.461 954.773 523.963C956.381 525.851 956.662 528.455 955.462 530.242C954.364 531.926 953.368 539.226 953.19 546.398C952.679 571.412 943.312 603.14 930.346 623.278C920.978 637.929 897.956 664.04 895.046 663.249C893.948 662.84 892.953 664.653 892.953 667.027C892.953 672.718 857.372 710.698 834.63 729.254C793.944 762.564 742.793 791.457 691.157 810.601C662.749 821.091 606.212 835.947 590.566 836.942C583.981 837.325 575.992 838.32 572.699 839.035C560.039 841.817 480.888 848.3 471.904 847.202C470.602 847.1 456.257 846.105 439.896 845.109ZM539.517 828.57C684.368 815.4 814.593 749.495 887.082 652.58C893.565 643.901 900.227 636.729 901.835 636.627C906.327 636.525 924.169 603.828 930.346 584.379C933.434 574.603 936.727 566.027 937.62 565.44C941.602 562.351 941.015 491.471 936.727 465.946C915.006 336.028 793.561 231.837 626.045 199.115C609.607 195.925 595.441 192.632 594.752 191.943C594.037 191.254 595.952 189.646 599.142 188.37C602.23 187.068 603.405 185.971 601.72 185.971C600.036 185.868 596.335 187.272 593.45 189.161C589.264 191.739 585.181 192.045 573.899 190.156C489.95 176.5 367.407 185.255 280.982 211.086C265.922 215.578 251.654 219.866 249.178 220.555C245.784 221.551 244.993 220.964 246.167 218.08C247.086 215.681 246.371 214.276 244.38 214.276C242.185 214.276 241.496 215.987 242.389 219.356C243.487 223.465 242.874 224.256 239.99 223.057C237.897 222.265 235.906 222.546 235.421 223.848C235.012 224.946 219.264 233.829 200.325 243.4C114.257 286.868 58.2312 344.987 30.818 418.982C18.3622 452.776 14.559 481.592 15.9629 532.131C17.3667 579.402 21.2462 598.647 35.4122 627.362C45.5709 648.088 67.2158 671.621 75.2815 670.829C78.9825 670.421 86.155 675.807 99.5042 688.569C109.893 698.651 123.829 711.413 130.312 716.978C136.795 722.567 142.181 728.26 142.181 729.663C142.181 731.144 144.988 733.033 148.46 733.951C151.855 734.845 160.941 739.822 168.599 744.901C237.412 790.972 328.431 821.092 424.454 829.464C446.686 831.352 514.274 830.842 539.517 828.57ZM417.358 820.096C372.308 815.502 311.177 801.846 274.396 787.987C227.023 770.222 181.361 745.693 181.361 738.138C181.361 732.139 182.764 732.548 199.023 742.324C253.543 775.224 325.343 798.936 400.512 808.712C438.595 813.791 544.188 812.311 576.298 806.236C665.225 789.671 731.333 763.049 790.958 719.99C814.593 702.94 865.539 651.278 878.506 631.139C884.274 622.282 890.068 615.391 891.472 615.902C894.663 616.897 905.511 594.052 912.606 571.719C919.881 548.594 920.366 482.078 913.5 452.98C900.431 397.133 864.34 343.2 812.398 301.518C792.157 285.259 790.574 283.065 798.946 283.065C806.604 283.065 835.319 306.011 856.376 328.83C887.184 362.547 909.697 402.825 920.774 444.404C929.759 477.892 931.239 532.743 923.965 564.036C918.094 589.764 899.742 630.042 894.842 628.153C893.055 627.464 889.865 630.144 887.363 634.228C884.989 638.235 877.715 648.19 871.129 656.281C802.035 740.92 700.219 795.465 573.108 815.986C551.08 819.483 440.509 822.47 417.358 820.096ZM437.216 788.573C431.524 774.918 428.028 774.816 428.028 788.471C428.028 796.358 427.236 797.839 423.152 797.839C418.354 797.839 418.277 797.047 419.86 775.913C421.748 750.695 421.85 750.491 427.644 751.997C430.222 752.686 433.719 757.969 436.425 765.448C440.406 776.602 440.994 777.215 442.5 771.727C443.393 768.536 444.286 762.845 444.388 759.272C444.593 755.264 445.996 752.788 448.089 752.788C453.373 752.788 453.654 754.779 452.071 777.7C450.769 795.465 449.876 799.141 446.379 799.753C443.291 800.34 440.891 797.456 437.216 788.573ZM454.164 799.651C454.164 799.243 457.253 789.364 460.928 777.7C466.927 758.761 468.33 756.285 473.205 756.285C478.183 756.285 479.484 758.658 485.278 777.215C490.357 794.061 491.047 798.349 488.469 799.344C484.181 801.029 480.174 798.451 480.174 794.163C480.174 788.573 466.825 789.671 465.319 795.465C464.527 798.247 462.026 800.238 459.142 800.238C456.359 800.238 454.164 799.932 454.164 799.651ZM476.192 776.5C475.503 773.922 473.997 771.727 472.797 771.727C471.7 771.727 470.704 773.922 470.704 776.5C470.704 779.104 472.21 781.197 474.099 781.197C476.294 781.197 476.983 779.614 476.192 776.5ZM500.517 795.056C499.827 791.968 498.934 783.698 498.628 776.5C498.041 764.938 497.428 763.355 492.655 762.666C489.745 762.258 487.371 760.471 487.371 758.659C487.371 755.187 503.707 751.691 513.687 753.171C520.961 754.166 521.063 760.854 513.789 761.849C508.403 762.666 508.301 763.253 509.093 780.788C509.807 796.46 509.297 799.039 505.8 799.753C503.12 800.238 501.308 798.655 500.517 795.056ZM524.458 785.383C521.548 761.16 522.365 752.788 527.649 752.788C531.222 752.788 532.422 754.371 532.422 759.272C532.422 762.845 533.136 773.029 533.928 781.81C535.408 796.741 535.127 797.839 530.737 797.839C526.755 797.839 525.76 795.745 524.458 785.383ZM401.916 787.169C398.623 777.011 395.739 776.603 393.646 785.996C392.548 791.075 390.66 793.065 387.265 793.065C382.977 793.065 382.466 792.07 383.768 784.183C384.559 779.308 385.861 769.048 386.755 761.365C388.465 747.505 388.465 747.505 398.725 748.705C404.417 749.292 410.696 751.18 412.585 752.788C417.179 756.565 417.179 766.852 412.687 773.31C409.982 777.113 409.803 780.099 411.488 786.276C412.789 790.666 413.785 794.571 413.785 794.852C413.785 795.261 411.794 795.465 409.19 795.465C406.102 795.465 403.805 792.759 401.916 787.169ZM406.204 764.044C406.689 761.747 405.311 759.17 403.218 758.378C398.725 756.668 398.317 756.974 396.122 764.248C394.642 769.047 395.126 769.635 399.925 768.945C403.013 768.537 405.796 766.341 406.204 764.044ZM544.393 789.569C540.615 785.689 538.522 779.895 537.705 772.034C536.71 761.748 537.424 759.476 542.708 754.09C553.071 743.804 565.322 747.99 570.427 763.662C578.085 786.787 559.248 805.419 544.393 789.569ZM561.851 782.09C563.944 776.602 561.035 762.947 557.053 759.654C549.268 753.171 543.882 766.648 548.987 779.895C551.565 786.786 559.554 788.19 561.851 782.09ZM360.847 788.982C357.248 788.472 353.65 786.583 352.96 784.796C351.659 781.299 358.754 745.616 361.332 742.808C362.124 741.915 367.918 742.221 374.095 743.599C382.671 745.412 385.376 747.096 385.376 750.491C385.376 754.166 383.768 754.881 376.698 754.473C365.722 753.784 362.94 759.374 373.303 761.365C378.485 762.462 380.578 764.146 380.578 767.541C380.578 771.625 379.48 772.033 372.614 770.731C365.926 769.532 364.319 770.042 363.323 773.922C362.124 778.797 365.519 781.197 373.686 781.197C376.596 781.197 378.179 782.882 378.179 785.996C378.179 790.871 375.881 791.279 360.847 788.982ZM578.978 786.582C577.09 779.997 572.699 754.677 572.699 749.981C572.699 742.604 579.999 745.105 589.468 755.774L598.53 765.857L596.335 756.362C593.348 742.808 593.553 740.919 598.428 740.919C601.925 740.919 603.507 744.519 606.698 759.374C608.893 769.532 610.705 779.614 610.705 781.886C610.705 789.773 601.721 786.276 593.834 775.326C589.648 769.43 585.767 764.657 585.18 764.657C584.261 764.657 585.462 771.727 588.652 785.383C589.648 789.569 588.856 790.768 585.078 790.768C582.373 790.768 579.693 788.879 578.978 786.582ZM615.478 761.747C615.478 740.23 617.367 733.747 623.646 733.747C625.05 733.747 630.333 740.409 635.413 748.603C640.517 756.77 646.184 765.856 648.073 768.741C651.187 773.514 651.084 774.229 647.689 775.505C645.494 776.424 641.793 775.327 639.317 773.029C633.625 767.848 625.56 770.119 624.564 777.215C624.054 779.997 621.859 782.703 619.562 783.187C615.886 783.902 615.478 781.605 615.478 761.747ZM629.644 759.272C629.644 757.664 628.546 754.779 627.347 752.788C625.56 749.98 625.05 750.695 624.948 755.774C624.948 759.373 626.045 762.257 627.347 762.257C628.648 762.257 629.644 760.956 629.644 759.272ZM328.432 777.113C328.432 774.815 330.039 767.031 331.928 759.858C336.42 743.319 336.421 743.319 330.831 743.319C325.547 743.319 324.144 736.734 329.019 734.947C334.609 732.931 355.64 739.822 356.457 744.008C357.044 746.892 355.564 747.99 351.174 747.99C344.971 747.99 343.185 751.793 338.795 773.616C337.212 781.988 328.329 784.897 328.432 777.113ZM305.408 774.611C303.902 773.616 301.912 767.133 300.916 760.267C299.13 746.714 297.318 746.714 293.029 760.267C290.834 767.031 289.252 768.638 285.551 767.643C279.885 766.137 279.578 768.026 288.154 743.804C296.526 720.168 295.735 721.368 300.61 723.282C303.112 724.176 304.898 729.153 305.996 737.524C307.885 752.584 310.08 753.886 313.168 741.506C314.776 734.947 316.767 732.445 320.647 731.833C327.13 730.939 327.13 730.149 319.37 754.984C312.989 774.816 310.794 778.006 305.408 774.611ZM646.796 750.593C642.789 738.724 640.518 728.846 641.692 728.642C642.891 728.464 645.188 728.259 646.694 728.157C648.174 727.953 651.774 734.845 654.658 743.319C659.839 758.557 659.942 758.659 668.313 758.174C679.187 757.562 682.275 763.661 672.908 767.235C654.556 774.228 654.658 774.331 646.796 750.696V750.593ZM266.714 759.374C266.714 755.086 281.365 717.182 283.075 717.182C290.145 717.386 290.043 721.878 282.973 741.608C277.281 757.459 274.499 762.257 271.104 762.257C268.705 762.257 266.714 760.956 266.714 759.374ZM692.561 756.872C692.051 755.264 690.468 744.417 689.166 732.752C686.767 712.103 687.559 707.916 694.042 707.712C695.752 707.712 726.943 742.119 726.943 744.008C726.943 746.79 718.367 746.995 715.074 744.315C709.714 739.924 700.831 744.314 700.831 751.282C700.831 757.357 694.246 761.849 692.561 756.872ZM704.226 734.028C705.017 732.93 703.919 730.658 702.031 729.05C699.044 726.549 698.432 726.957 698.432 731.143C698.432 736.223 701.826 737.933 704.226 734.028ZM242.389 750.083C240.092 748.806 238.305 745.795 238.305 743.319C238.305 740.818 235.906 737.142 233.022 735.125C228.427 731.935 227.432 731.935 223.935 735.023C220.055 738.52 212.169 737.627 212.169 733.747C212.169 729.255 247.264 700.54 251.067 701.944C253.16 702.837 254.845 703.935 254.845 704.42C254.845 706.513 247.366 751.487 246.983 751.997C246.677 752.278 244.686 751.384 242.389 750.083ZM242.695 720.576C243.384 716.799 243.079 716.595 239.684 719.275C235.217 723.078 234.604 727.468 238.79 726.064C240.5 725.553 242.185 723.078 242.695 720.576ZM719.974 722.465C709.714 702.837 708.412 698.243 713.593 698.243C718.086 698.243 720.383 701.331 730.031 720.678C737.918 736.325 738.224 740.715 731.231 740.817C730.337 740.919 725.258 732.649 719.974 722.465ZM444.695 721.981C444.695 706.921 444.184 705.313 439.896 705.313C436.706 705.313 435.123 703.73 435.123 700.642C435.123 695.358 438.696 694.746 457.355 697.349C468.917 698.932 473.205 705.313 462.74 705.313C456.563 705.313 454.164 712 454.164 729.357C454.164 736.937 453.373 738.52 449.366 738.52C445.078 738.52 444.695 736.938 444.695 721.981ZM470.704 718.585C470.704 698.345 470.806 698.243 476.804 698.243C482.777 698.243 482.777 698.243 482.088 717.795C481.475 736.045 481.093 737.423 476.09 738.138C470.908 738.827 470.704 738.214 470.704 718.585ZM484.972 737.524C484.972 736.937 487.754 728.642 491.251 719.071C497.53 701.842 502.61 694.746 506.898 697.451C509.399 698.932 525.351 732.649 525.351 736.325C525.351 740.817 515.372 738.52 514.07 733.849C513.279 730.455 510.879 729.05 505.8 729.05C500.721 729.05 498.423 730.353 497.53 733.849C496.739 736.836 494.237 738.52 490.664 738.52C487.55 738.52 484.972 738.035 484.972 737.524ZM507 717.182C506.413 714.604 504.805 713.098 503.707 713.787C500.312 715.88 501.231 721.981 504.907 721.981C507.102 721.981 507.791 720.27 507 717.182ZM734.14 715.702C727.555 705.415 722.169 696.252 722.169 695.256C722.169 691.861 737.51 683.975 744.095 683.975C751.191 683.975 758.95 694.848 756.474 701.331C755.555 703.526 758.261 706.717 763.646 710.009C770.512 714.297 771.61 715.982 769.415 718.585C765.74 723.078 763.544 722.874 755.376 716.799C746.698 710.418 744.401 712.102 749.277 721.47C752.467 727.647 752.467 728.948 749.481 731.45C746.596 733.747 743.993 731.042 734.14 715.702ZM745.295 702.633C748.791 699.136 746.392 693.47 741.313 693.47C735.417 693.47 733.936 695.844 736.616 700.949C739.322 706.028 741.517 706.41 745.295 702.633ZM150.17 720.168C130.312 705.415 89.6517 666.031 88.0437 660.16C85.8486 651.584 94.9349 655.081 105.604 666.848C119.464 681.984 146.469 706.232 162.319 717.897C180.671 731.246 180.875 731.45 172.503 731.45C167.501 731.45 160.532 727.953 150.17 720.168ZM200.504 726.855C198.028 725.273 197.619 721.47 198.717 710.903C200.223 697.553 200.121 697.248 196.114 701.944C193.842 704.624 190.447 709.218 188.456 712.102C185.368 716.697 184.27 716.977 180.773 714.399C176.894 711.515 177.481 709.908 188.456 693.47C194.939 683.694 201.321 675.807 202.699 675.909C204.001 676.113 206.195 676.318 207.599 676.522C209.284 676.701 209.897 682.393 209.386 692.27C208.978 700.744 208.876 707.712 209.182 707.712C209.488 707.712 212.577 703.424 216.073 698.243C222.148 688.977 227.023 686.374 229.933 691.07C231.618 693.75 209.692 729.05 206.298 729.05C204.894 728.948 202.418 728.055 200.504 726.855ZM373.507 724.278C260.945 702.633 168.114 639.23 144.172 567.737C134.217 538.026 140.292 475.415 153.462 472.021C159.843 470.31 161.426 471.714 158.031 475.9C152.059 482.971 147.566 511.686 148.664 535.219C149.659 557.17 150.349 559.748 161.018 581.086C170.309 599.847 175.796 607.325 193.944 625.652C238.101 670.217 296.322 698.754 375.881 714.706C400.615 719.683 408.093 721.98 408.603 725.068C409.599 730.148 403.422 730.046 373.507 724.278ZM550.084 726.473C547.277 721.981 551.973 720.091 574.205 716.288C687.176 696.941 784.985 630.144 804.332 558.956C806.119 552.575 807.012 551.886 810.101 554.26C813.087 556.455 813.393 558.752 811.709 565.236C810.101 571.412 809.105 572.51 807.42 569.932C805.812 567.533 805.328 568.63 805.711 573.812C806.323 582.796 794.658 604.314 779.599 622.079C738.913 669.937 657.567 711.414 576.604 725.375C551.463 729.74 552.075 729.74 550.084 726.473ZM763.953 696.737C748.893 675.909 748.893 675.807 759.358 668.736C770.819 660.951 777.506 661.054 783.683 668.941C790.064 677.007 789.86 679.789 782.586 688.467C776.792 695.358 776.715 695.945 780.391 701.637C784.372 707.712 783.479 712.511 778.195 712.511C776.613 712.511 770.232 705.415 763.953 696.839V696.737ZM773.014 684.894C777.098 683.286 778.093 675.603 774.418 673.331C773.116 672.515 769.926 673.025 767.322 674.403C763.34 676.598 763.034 677.696 765.535 681.703C767.143 684.281 768.624 686.374 768.828 686.374C769.032 686.374 770.921 685.685 773.014 684.894ZM732.047 628.562C730.541 626.852 725.054 623.457 719.872 621.185C709.611 616.489 709.305 611.69 719.566 613.885C725.258 615.187 725.947 614.701 725.845 609.01C725.667 597.83 731.23 599.745 732.941 611.409C733.834 617.28 736.029 623.354 737.816 624.86C741.109 627.566 740.317 631.854 736.616 631.854C735.519 631.854 733.425 630.348 732.047 628.664V628.562ZM83.1683 618.785C82.2749 616.386 85.8485 612.711 94.5268 607.121C109.586 597.448 111.169 595.456 107.978 589.356C106.192 586.089 106.395 584.073 108.795 582.082C111.475 579.887 114.079 581.801 121.838 592.163C127.121 599.132 131.512 606.126 131.512 607.504C131.512 612.787 126.024 613.4 122.246 608.601C118.443 603.726 118.367 603.828 104.686 612.992C89.7285 623.074 85.3634 624.273 83.1683 618.785ZM855.381 608.116C840.602 598.545 840.424 598.545 836.519 603.216C833.634 606.713 831.541 607.402 828.938 605.717C825.85 603.726 825.951 602.629 829.652 596.835C832.052 593.261 835.727 586.778 837.82 582.592C841.7 574.909 846.397 572.714 849.077 577.206C849.893 578.508 849.382 581.699 848.004 584.277C845.707 588.565 846.907 590.071 859.159 597.932C875.902 608.806 875.52 608.321 872.61 613.503C870.415 617.28 868.934 616.896 855.381 608.116ZM807.114 524.55C805.43 485.676 793.944 459.743 765.229 429.344C751.574 414.897 722.552 392.054 711.704 387.076C708.31 385.57 705.604 382.788 705.604 380.976C705.604 379.189 704.711 378.296 703.511 378.883C702.414 379.7 689.652 374.901 675.103 368.52C660.554 362.037 639.011 353.971 627.347 350.372C605.523 343.889 604.605 343.302 607.897 338.223C611.292 333.016 683.577 358.157 694.935 368.52C697.539 370.919 704.124 374.416 709.713 376.304C721.965 380.49 761.452 410.099 774.699 425.056C804.332 458.365 817.681 490.552 816.584 525.647C815.997 543.693 815.18 547.7 811.99 548.287C808.697 548.9 808.008 545.607 807.114 524.55ZM152.85 466.84C152.85 462.654 168.42 439.503 180.263 426.051C211.786 390.368 266.714 358.642 328.125 340.698C342.189 336.614 348.775 335.619 350.561 337.406C354.645 341.515 349.974 344.297 328.227 350.576C260.333 370.306 200.504 409.588 169.798 454.46C165.51 460.739 161.017 465.129 159.843 464.44C158.644 463.649 157.648 464.134 157.648 465.537C157.648 466.941 156.551 468.039 155.249 468.039C153.947 468.039 152.85 467.529 152.85 466.84ZM254.845 401.523C287.542 379.087 369.424 352.669 420.549 347.973C436.808 346.492 437.905 346.697 437.114 350.883C436.425 354.661 433.235 355.656 417.358 357.264C371.593 361.731 302.116 380.389 268.603 397.235C255.049 404.024 248.081 406.219 254.845 401.523ZM688.273 397.848C657.746 381.971 596.232 364.64 550.186 358.846C520.553 355.171 518.179 354.558 518.179 350.576C518.179 345.088 533.621 346.186 573.516 354.354C621.067 364.13 675.894 384.37 700.831 401.523C707.519 406.117 699.733 403.82 688.273 397.848ZM291.651 398.843C312.172 383.886 421.059 356.37 436.323 362.139C445.179 365.533 435.327 370.128 415.572 371.71C382.364 374.492 325.828 387.561 291.651 400.425C286.852 402.212 286.852 402.212 291.651 398.843ZM639.215 392.155C612.389 383.273 565.833 373.599 540.794 371.608C520.451 370.128 510.394 365.636 519.379 362.139C531.834 357.366 616.984 376.509 647.179 390.853C667.726 400.629 665.735 400.935 639.215 392.155ZM798.946 381.18L789.86 370.128L806.425 355.171L822.965 340.111L833.124 349.99C838.612 355.452 843.206 361.246 843.206 362.828C843.206 369.209 837.616 368.622 830.342 361.45C823.961 355.273 822.072 354.558 819.877 357.264C817.784 359.842 818.473 361.73 823.067 366.019C827.661 370.307 828.249 372.323 826.156 374.799C823.96 377.606 822.378 377.096 817.094 372.016C811.402 366.529 810.407 366.223 807.6 369.617C805.022 372.706 805.43 374.212 809.897 379.087C815.078 384.575 815.282 392.155 810.203 392.155C809.003 392.155 803.924 387.178 798.946 381.18ZM139.092 367.728C131.027 359.561 124.441 351.674 124.441 350.27C124.441 346.186 142.895 330.437 147.77 330.437C152.952 330.437 158.746 336.41 162.038 345.088C163.621 349.274 166.812 351.878 171.687 352.976C179.778 354.763 180.671 356.856 175.286 361.45C172.504 363.747 169.696 363.849 163.034 361.73C151.369 358.157 148.868 360.556 156.245 368.214C162.217 374.416 162.319 374.799 158.133 378.602C154.05 382.278 152.952 381.69 139.092 367.728ZM150.451 346.799C150.451 341.694 143.585 340.698 139.092 345.19C136.999 347.283 137.203 348.968 140.19 352.261C144.784 357.264 150.451 354.176 150.451 346.799ZM461.235 376.994C461.235 375.105 462.332 370.511 463.736 366.836C466.033 360.837 465.522 359.637 458.452 353.767L450.565 347.181H460.545C470.117 347.079 470.704 346.697 473.409 337.61C474.992 332.428 476.983 328.14 477.902 328.14C478.795 328.14 480.786 332.326 482.267 337.61C485.074 346.697 485.559 347.079 495.131 347.181H505.111L497.045 353.869C489.464 360.25 489.158 361.041 491.736 368.418C495.948 380.491 495.131 381.384 486.07 374.416C477.698 368.035 477.698 368.035 469.403 374.314C463.43 378.883 461.235 379.597 461.235 376.994ZM772.81 355.451C763.545 346.186 762.549 336.41 770.819 336.41C774.214 336.41 775.898 338.402 776.792 343.506C777.506 347.973 779.701 350.882 782.483 351.47C787.384 352.363 787.078 347.896 781.284 333.526C778.604 326.839 778.706 325.461 782.586 321.071C788.073 314.97 792.463 314.97 802.239 320.968C808.62 324.847 809.999 327.145 809.999 334.215C809.999 341.005 809.105 342.511 805.813 341.898C803.516 341.515 801.32 338.81 800.937 335.926C800.529 333.118 798.64 329.544 796.853 328.038C791.468 323.546 789.962 331.025 794.352 339.601C799.534 349.581 799.049 355.655 792.847 360.046C785.189 365.329 781.999 364.64 772.81 355.451ZM839.607 354.176C837.616 350.985 840.321 347.079 844.507 347.079C846.396 347.079 847.902 349.173 847.902 351.878C847.902 356.754 842.211 358.362 839.607 354.176ZM169.696 337.916C163.034 328.931 157.648 320.458 157.648 319.182C157.648 315.991 176.485 302.029 180.569 302.029C186.057 302.029 183.964 307.696 176.383 313.974C170.104 319.181 169.491 320.457 172.503 322.857C175.183 325.154 177.175 324.746 182.356 320.662C191.826 313.183 195.424 319.564 186.848 328.446C177.175 338.605 184.372 344.604 194.735 334.93C199.814 330.132 207.395 330.132 207.395 334.93C207.395 337.023 185.648 354.176 182.968 354.176C182.356 354.176 176.281 346.875 169.696 337.916ZM830.546 345.599C827.253 342.205 829.142 337.61 833.838 337.61C837.233 337.61 838.509 338.912 838.024 341.515C837.233 345.88 833.124 348.075 830.546 345.599ZM750.782 338.911C748.383 336.129 749.991 332.53 759.154 319.666C770.921 303.126 775.413 299.732 779.599 303.918C781.488 305.704 778.502 311.601 769.415 324.363C762.345 334.216 755.964 342.307 755.07 342.307C754.279 342.307 752.365 340.8 750.782 338.911ZM199.023 314.587C187.946 296.235 187.946 296.235 194.633 290.849C207.395 280.691 221.255 280.972 225.926 291.462C229.321 298.737 225.926 307.313 217.86 311.601C212.475 314.587 212.373 314.791 216.355 321.453C219.953 327.451 219.953 328.651 216.865 330.539C211.173 334.215 210.688 333.73 199.023 314.587ZM216.865 298.532C216.865 293.836 212.985 291.947 207.395 293.734C202.112 295.342 201.32 299.63 205.404 303.816C208.799 307.21 216.865 303.407 216.865 298.532ZM738.224 330.233C734.932 328.344 734.319 325.945 735.519 318.467C736.719 310.886 736.336 309.099 733.222 309.099C731.231 309.099 728.347 311.294 726.943 313.872C724.059 319.36 717.881 320.177 716.094 315.276C714.793 312.086 734.829 278.291 738.02 278.291C742.512 278.291 760.048 290.849 761.349 295.035C763.238 300.931 757.47 310.504 750.782 312.699C746.979 313.873 745.907 316.17 745.907 323.546C745.907 333.322 744.886 334.215 738.224 330.233ZM749.991 300.523C750.884 298.022 749.684 295.341 746.902 293.248C742.997 290.364 742.002 290.543 739.322 294.142C736.718 297.741 736.922 298.838 740.419 301.416C745.805 305.398 748.179 305.117 749.991 300.523ZM367.407 315.889C368.326 307.594 369.704 297.92 370.419 294.449C371.593 288.068 376.8 284.264 380.782 286.663C383.181 288.169 401.916 319.181 401.916 321.759C401.916 324.643 393.136 323.444 390.353 320.177C386.372 315.379 376.29 318.084 375.396 324.158C374.988 326.94 372.614 329.646 370.215 330.131C366.029 330.922 365.825 329.825 367.407 315.889ZM382.977 306.904C382.977 305.602 381.879 304.02 380.578 303.229C379.276 302.412 378.179 303.407 378.179 305.398C378.179 307.491 379.276 309.099 380.578 309.099C381.879 309.099 382.977 308.104 382.977 306.904ZM582.271 325.741C582.271 318.977 571.602 316.782 565.527 322.27C561.928 325.461 560.039 325.843 558.048 323.852C555.547 321.351 562.643 307.006 573.899 291.743C580.382 282.988 585.462 287.761 588.55 305.602C592.557 328.83 592.455 330.437 586.967 330.437C583.879 330.437 582.271 328.83 582.271 325.741ZM579.897 307.9C579.897 306.011 578.799 304.403 577.498 304.403C576.196 304.403 575.098 306.011 575.098 307.9C575.098 309.89 576.196 311.499 577.498 311.499C578.799 311.499 579.897 309.89 579.897 307.9ZM405.515 321.071C404.902 320.075 403.907 314.689 403.116 308.895C402.324 303.127 401.227 295.137 400.614 291.053C399.721 285.566 400.512 283.167 403.499 282.069C408.706 280.078 411.385 284.366 411.488 294.831C411.59 310.401 413.172 312.979 422.259 311.881C428.538 311.192 430.427 311.882 430.427 314.792C430.427 316.782 428.027 318.977 425.041 319.564C412.483 322.168 406.51 322.653 405.515 321.071ZM543.882 322.27C543.295 321.556 543.882 312.8 545.286 302.616C547.583 285.872 548.375 284.162 553.556 283.371C558.738 282.682 559.043 283.167 557.665 290.365C556.746 294.653 555.368 303.816 554.552 310.784C553.454 320.458 552.177 323.368 549.089 323.368C546.894 323.368 544.597 322.857 543.882 322.27ZM522.85 308.895C519.66 302.208 516.98 297.741 516.673 298.839C516.367 299.936 515.576 304.709 514.784 309.61C513.381 317.982 512.896 318.263 503.809 318.161C497.045 318.084 493.651 316.783 491.94 313.592C489.056 308.206 478.285 307.594 476.294 312.699C475.605 314.69 472.516 316.272 469.505 316.272C464.042 316.272 464.042 316.272 471.904 296.644C482.369 270.711 485.865 270.609 495.437 296.031C503.324 316.986 505.596 315.787 506.106 290.747C506.31 279.389 506.795 278.291 511.9 278.291C516.188 278.291 518.562 280.972 523.054 290.365C526.143 297.027 528.951 301.62 529.129 300.523C529.436 299.323 530.329 294.448 531.12 289.548C532.32 282.784 533.723 280.691 537.424 280.691C541.891 280.691 542.096 281.687 540.692 297.843C538.803 319.565 538.318 320.968 532.932 320.968C529.946 320.968 526.653 317.063 522.85 308.895ZM487.269 300.217C487.269 297.92 482.675 290.747 482.675 292.942C482.573 293.734 481.986 296.235 481.169 298.226C480.174 300.727 480.99 302.029 483.568 302.029C485.661 302.029 487.371 301.212 487.269 300.217ZM432.214 300.217C431.524 290.16 431.422 281.074 432.034 280.078C432.622 279.083 438.212 278.291 444.491 278.291C457.559 278.291 462.434 282.172 460.647 291.36C460.035 294.653 460.443 297.919 461.643 298.634C465.625 301.11 463.634 311.295 458.35 314.894C455.466 316.987 448.677 318.569 443.291 318.569C433.413 318.569 433.413 318.569 432.214 300.217ZM454.164 305.602C454.164 303.305 451.867 302.029 448.166 302.029C444.491 302.029 442.295 303.305 442.295 305.602C442.295 307.798 444.491 309.099 448.166 309.099C451.867 309.099 454.164 307.798 454.164 305.602ZM451.178 289.548C449.672 285.081 442.295 284.468 442.295 288.756C442.295 290.951 444.287 292.56 447.171 292.56C450.081 292.56 451.765 291.258 451.178 289.548ZM696.747 307.211C689.856 303.816 684.266 299.936 684.266 298.532C684.266 292.942 700.831 261.65 703.716 261.752C705.426 261.829 709.407 263.334 712.7 265.223C720.459 269.613 723.063 269.613 721.276 265.121C719.464 260.552 726.254 257.745 730.031 261.548C732.226 263.743 731.843 265.121 728.244 267.826C725.743 269.613 724.952 271.222 726.457 271.222C729.852 271.222 730.235 277.398 726.943 279.491C725.743 280.18 721.455 279.185 717.473 277.092C710.403 273.493 705.604 274.003 705.604 278.393C705.604 279.593 708.693 282.171 712.598 284.162C719.77 287.965 720.459 296.541 713.389 293.836C703.409 290.058 699.044 289.956 697.641 293.657C696.645 296.337 698.534 298.532 704.43 301.314C712.087 305.015 714.997 309.89 710.888 312.29C709.893 312.877 703.511 310.606 696.645 307.211H696.747ZM241.598 304.811C239.607 302.412 235.115 294.244 231.72 286.765C226.538 275.305 226.028 272.803 228.938 271.017C234.502 267.52 235.114 268.133 242.695 284.366C248.183 296.133 251.067 299.834 254.258 299.221C260.537 298.022 260.435 290.058 253.85 275.892C247.979 263.232 248.566 259.455 256.249 259.353C259.235 259.353 271.512 286.663 271.512 293.248C271.41 305.602 249.561 314.076 241.598 304.811ZM279.782 291.947C279.17 290.262 276.081 281.482 272.789 272.319C265.821 253.074 266.816 251.159 284.862 248.479C297.215 246.59 302.32 249.781 302.32 259.633C302.32 263.334 303.418 266.423 304.796 266.423C308.804 266.423 311.381 276.607 308.803 282.273C304.898 290.747 282.079 298.43 279.782 291.947ZM299.513 277.398C300.125 274.692 298.619 273.493 294.331 273.493C287.542 273.493 285.066 276.198 287.057 281.482C288.843 286.178 298.415 282.988 299.513 277.398ZM290.145 264.227C294.433 261.65 291.447 256.953 285.551 256.953C282.565 256.953 280.982 258.562 280.982 261.65C280.982 266.729 284.657 267.724 290.145 264.33V264.227ZM649.17 288.17C646.796 286.562 647.69 281.788 653.56 265.529C661.754 242.991 660.554 243.681 678.701 251.083C692.561 256.749 694.552 269.715 682.887 277.398C678.293 280.384 675.792 280.691 669.717 278.496C665.531 277.092 661.932 275.892 661.549 275.892C661.243 275.892 659.839 279.083 658.563 283.065C655.959 290.467 654.275 291.36 649.17 288.17ZM679.493 265.019C679.493 259.94 669.921 255.652 667.318 259.633C664.127 264.738 664.944 268.414 669.411 269.409C675.205 270.711 679.493 268.822 679.493 265.019ZM612.977 281.687C611.292 279.696 606.417 276.505 602.129 274.693C583.777 267.112 591.842 230.842 611.904 230.842C614.993 230.842 620.557 233.42 624.156 236.508C632.63 243.783 633.039 258.459 625.05 269.129C621.17 274.412 620.455 276.99 622.471 279.287C624.462 281.686 624.054 282.886 621.272 283.984C616.167 285.873 616.474 285.975 612.977 281.687ZM617.877 259.148C621.553 250.266 619.179 240.312 613.283 240.312C603.916 240.312 597.126 259.939 604.605 265.427C610.195 269.511 614.38 267.52 617.877 259.148ZM633.626 282.375C629.95 279.695 630.129 278.087 635.719 259.939C640.313 244.88 642.713 240.312 645.98 240.312C653.075 240.312 653.075 242.098 646.388 263.028C638.807 286.255 638.807 286.255 633.626 282.375ZM318.171 281.278C317.456 280.282 314.776 270.915 312.071 260.552C308.395 246.182 307.987 241.205 310.08 239.801C315.261 236.61 317.277 239.214 321.565 254.35C323.939 262.645 326.339 269.817 326.926 270.404C327.436 271.017 331.724 270.507 336.318 269.205C343.976 267.112 347.371 268.72 347.371 274.514C347.371 275.101 343.389 276.301 323.25 282.069C321.055 282.784 318.758 282.375 318.171 281.278ZM346.579 255.064C341.602 231.939 341.704 230.842 347.269 230.842C352.374 230.842 352.961 232.322 357.734 255.064C361.231 271.808 360.924 273.493 354.543 273.493C351.557 273.493 349.668 269.128 346.681 255.064H346.579ZM367.714 268.414C366.233 263.845 361.639 234.721 361.639 230.025C361.639 222.649 370.802 225.456 372.895 233.42C374.784 240.694 374.784 240.694 380.17 231.021C383.666 224.946 387.367 221.347 390.251 221.347C396.122 221.347 396.02 224.742 389.843 234.926C384.764 243.094 384.763 243.094 392.65 251.159C402.401 261.241 403.422 261.241 405.311 251.159C409.497 229.234 413.887 218.973 419.374 218.973C423.662 218.973 426.547 222.853 434.613 239.214C440.203 250.266 444.695 259.94 444.695 260.552C444.695 263.437 433.132 261.241 431.932 258.153C429.839 252.665 416.082 253.456 414.576 259.25C413.683 262.543 410.492 264.227 403.013 265.427C393.442 266.831 392.14 266.423 386.371 259.557C379.071 250.879 375.702 251.874 376.494 262.339C376.877 267.826 375.983 270.021 372.895 270.711C370.598 271.221 368.326 270.124 367.714 268.414ZM423.944 240.312C422.055 233.037 418.558 232.118 418.558 239.009C418.558 242.608 419.86 245.084 421.851 245.084C424.046 245.084 424.735 243.4 423.944 240.312ZM576.706 269.307C573.107 268.516 572.597 266.934 573.899 259.353C575.405 250.777 575.099 250.368 568.309 249.372C561.852 248.377 560.932 249.066 559.146 256.545C557.155 265.325 554.475 267.52 549.676 264.534C547.379 263.028 547.481 258.459 550.264 242.609C552.178 231.531 553.76 222.265 553.76 221.959C553.76 221.653 555.853 221.347 558.558 221.347C562.438 221.347 563.23 222.955 563.23 230.842C563.23 239.801 563.74 240.312 570.427 240.312C576.706 240.312 577.498 239.597 577.498 233.216C577.498 227.243 578.391 226.145 583.368 226.145C586.661 226.145 589.366 226.937 589.264 227.83C589.162 232.526 582.781 269.026 581.99 269.613C581.479 270.021 579.08 269.817 576.706 269.307ZM519.379 261.445C514.07 258.459 508.709 252.359 508.709 249.372C508.709 245.875 520.068 247.382 521.472 250.981C523.156 255.652 532.422 255.652 532.422 251.083C532.422 249.169 528.236 245.493 523.258 242.889C511.39 236.814 509.501 229.923 517.261 222.061C522.059 217.263 524.739 216.369 530.533 217.569C539.798 219.356 544.291 223.057 544.291 228.749C544.291 234.313 537.501 234.619 533.621 229.234C531.937 226.936 529.129 225.941 526.832 226.834C521.549 228.825 521.855 232.629 527.444 234.313C541.1 238.703 548.783 252.563 541.1 259.046C536.123 263.13 524.662 264.431 519.379 261.445ZM708.004 256.953C708.004 253.354 709.203 252.078 712.088 252.665C714.385 253.073 716.274 255.064 716.274 256.953C716.274 258.842 714.385 260.731 712.088 261.241C709.203 261.828 708.004 260.552 708.004 256.953ZM461.235 259.353V216.574H476.702C488.545 216.574 492.042 217.365 492.042 220.071C492.042 222.368 488.852 223.644 482.088 224.154C474.788 224.639 471.699 226.043 471.214 228.927C470.602 232.016 472.516 233.113 479.484 233.624C485.559 234.109 488.546 235.512 488.546 238.014C488.546 240.413 485.661 241.791 479.484 242.302C472.516 242.889 470.602 243.885 471.214 246.973C471.699 249.883 474.89 251.261 482.088 251.771C488.852 252.256 492.042 253.558 492.042 255.855C492.042 258.561 488.545 259.353 476.702 259.353H461.235ZM167.322 705.517C165.229 704.215 164.617 701.332 165.51 697.554C167.501 689.973 158.644 683.082 151.854 686.885C148.766 688.672 146.673 688.263 143.891 685.48C139.296 680.886 138.199 682.086 160.635 668.839C180.467 657.072 180.876 656.97 185.751 660.058C188.558 661.743 187.639 666.134 181.079 684.894C172.605 708.81 172.605 708.912 167.322 705.517ZM173.78 675.909C174.495 672.31 173.882 672.131 169.594 674.403C166.812 675.909 165.229 678.207 166.02 679.508C168.215 682.903 172.887 680.707 173.78 675.909ZM637.506 679.789C636.714 677.517 634.621 672.029 632.834 667.639C631.048 663.147 629.95 659.165 630.333 658.757C632.732 656.459 648.685 650.997 648.685 652.478C648.685 653.473 649.68 652.784 650.88 650.895C652.769 647.986 653.968 647.884 659.762 650.895C663.438 652.682 667.215 654.571 668.236 655.082C669.232 655.566 669.028 653.269 667.828 649.976C665.633 644.412 666.628 643.417 686.18 631.931C708.795 618.479 715.89 617.484 716.988 627.566C717.473 631.446 719.566 634.534 722.476 635.427C725.053 636.219 726.764 638.235 726.253 639.715C725.156 642.702 721.174 642.804 714.181 640.021C710.301 638.413 710.096 638.822 712.496 643.11C716.886 651.482 710.403 652.58 704.022 644.616C701.035 640.813 698.534 636.934 698.534 635.938C698.432 633.641 695.752 633.743 691.745 636.219C689.167 637.827 689.549 640.124 693.557 647.985C699.427 659.548 699.53 660.262 694.935 660.262C693.047 660.262 689.269 655.975 686.665 650.793C683.373 644.412 680.795 641.808 678.293 642.804C673.903 644.514 673.903 647.807 678.293 655.464C682.377 662.662 682.888 669.732 679.289 669.732C677.885 669.732 673.418 667.435 669.334 664.551C662.544 659.65 662.136 659.548 663.948 663.938C669.513 677.696 663.03 680.886 656.955 667.435C652.769 657.965 650.191 656.562 642.891 659.37C636.919 661.641 638.603 665.648 644.984 664.04C648.175 663.249 651.467 663.759 652.284 665.138C653.177 666.541 651.671 668.226 648.889 669.043C640.696 671.136 642.712 677.007 651.084 675.322C659.762 673.612 660.452 677.415 652.08 681.192C643.708 685.072 639.318 684.689 637.506 679.789ZM710.301 629.25C710.301 628.051 708.693 627.055 706.804 627.055C703.129 627.055 702.031 629.837 704.711 632.543C706.6 634.432 710.301 632.237 710.301 629.25ZM798.946 679.405C788.966 673.331 783.887 665.546 783.887 656.179C783.887 635.632 809.309 632.926 821.97 652.069C829.754 663.836 827.763 674.914 816.89 680.504C808.416 684.894 807.905 684.893 798.946 679.405ZM816.686 666.541C817.784 660.569 805.507 647.985 799.33 648.879C792.259 649.9 792.361 658.068 799.432 665.751C806.425 673.229 815.282 673.612 816.686 666.541ZM304.694 675.501C305.996 672.234 306.404 665.24 305.613 660.058C304.311 652.477 304.796 650.793 307.885 650.793C310.488 650.793 311.79 652.784 311.79 656.664C311.79 662.662 315.082 664.652 317.762 660.262C318.554 658.961 321.463 657.863 324.246 657.863C328.84 657.863 328.432 658.859 320.545 666.95C315.772 671.825 311.79 677.211 311.79 678.691C311.79 680.299 309.697 681.601 307.093 681.601C303.111 681.601 302.703 680.784 304.694 675.501ZM467.82 668.839C458.937 656.077 458.938 656.077 464.221 646.505C469.811 636.219 468.33 629.838 462.23 638.414C457.559 645.203 450.667 648.802 445.996 646.99C440.304 644.693 441.708 640.609 450.08 635.325C454.266 632.747 458.044 628.561 458.452 626.162C459.243 622.282 458.656 622.282 452.377 627.055C447.987 630.246 442.806 631.854 438.518 631.445C429.227 630.348 429.635 624.273 439.003 621.874C446.277 619.985 453.551 613.783 451.178 611.512C450.565 610.797 447.273 611.511 443.878 612.992C436.706 616.284 425.653 614.089 425.653 609.521C425.653 605.922 430.631 603.318 437.497 603.318C447.681 603.318 463.634 583.792 463.634 571.413C463.634 559.952 455.262 564.036 444.388 580.882C436.706 592.751 433.413 596.044 430.529 594.64C425.654 592.266 409.088 592.368 403.116 594.742C398.827 596.452 399.21 596.937 406.408 599.438C411.079 601.02 415.265 604.415 416.465 607.504C418.277 612.507 417.868 612.787 411.896 611.307C408.399 610.413 402.325 607.708 398.317 605.309C388.644 599.438 385.274 599.846 375.702 608.014C371.21 611.894 365.723 615.085 363.527 615.085C361.332 615.187 359.035 616.591 358.448 618.173C357.733 619.781 357.146 618.377 357.044 614.982C356.84 607.606 363.323 601.021 371.312 600.842C376.979 600.74 376.978 600.74 371.516 598.442C368.402 597.243 364.931 596.835 363.63 597.652C362.328 598.443 357.351 598.34 352.552 597.447C344.384 595.941 344.18 595.661 348.468 592.47C351.659 590.173 356.84 589.459 365.033 590.275C375.881 591.373 376.494 591.27 371.108 588.565C361.128 583.588 354.058 577.794 356.253 576.518C359.928 574.22 371.21 576.517 374.197 580.193C381.982 589.764 387.469 591.27 400.41 587.467C415.087 583.179 415.265 583.077 411.59 578.611C409.088 575.599 410.594 574.118 421.467 569.319C429.839 565.644 436.016 560.947 439.309 555.766C445.384 546.092 443.393 540.809 436.91 549.692C426.853 563.551 415.163 563.551 424.556 549.589C429.839 541.906 430.427 536.93 426.139 536.93C425.143 536.93 422.054 542.11 419.272 548.389C412.993 562.045 403.805 568.222 398.215 562.658C394.948 559.467 395.433 558.369 403.013 552.575C408.603 548.287 411.386 544.204 411.386 540.401C411.386 537.21 410.696 534.53 409.701 534.53C408.705 534.53 401.023 542.111 392.548 551.172C374.988 570.136 366.412 573.608 356.942 565.925C348.775 559.263 351.863 553.571 363.732 553.571C373.686 553.571 387.75 544.407 387.75 537.924C387.75 533.636 387.954 533.534 374.886 540.503C364.421 546.092 363.324 546.194 356.738 542.8C348.673 538.614 347.575 532.335 354.466 530.549C357.146 529.757 359.239 527.46 359.239 525.367C359.239 523.172 357.146 519.573 354.466 517.275C351.863 515.08 349.77 512.196 349.77 510.996C349.77 509.695 351.863 507.5 354.466 506.122C360.643 502.829 360.541 499.434 354.058 492.543C349.464 487.667 349.259 486.57 352.373 483.583C355.155 480.801 357.453 480.597 364.421 482.793C371.797 485.09 374.503 484.681 383.972 480.086C395.229 474.701 399.134 468.728 389.562 471.51C370.112 477.304 354.262 473.91 350.867 463.138C348.162 454.766 352.96 453.184 364.038 458.952C373.405 463.827 374.784 463.93 383.768 460.841C397.73 455.966 397.118 452.469 382.467 452.571C366.82 452.775 355.946 448.284 352.373 440.32C347.983 430.851 352.654 428.247 363.425 434.219C374.299 440.218 391.349 443.408 393.544 439.911C394.437 438.405 392.14 436.21 388.464 434.73C358.55 422.963 348.57 414.897 350.178 403.616C351.454 394.733 358.244 395.831 367.816 406.398C379.174 419.084 383.666 421.278 398.521 421.865C406.995 422.07 414.168 424.265 421.851 428.655C431.32 434.22 432.826 436.21 432.826 442.898C432.826 453.26 437.497 459.361 444.797 458.264C449.57 457.651 450.769 455.966 451.28 449.075C452.454 434.934 440.304 423.371 420.472 419.772C415.571 418.879 410.186 416.888 408.603 415.28C406.893 413.698 402.605 411.095 399.032 409.512C395.433 407.904 392.446 404.918 392.446 402.927C392.446 398.333 395.841 398.333 399.619 402.927C401.227 404.816 405.311 406.322 408.782 406.118C414.372 405.811 414.474 405.709 409.701 404.815C401.125 403.131 403.422 400.221 416.567 395.933C428.027 392.155 429.738 392.155 444.388 396.035C462.74 400.834 463.43 401.217 458.835 404.229C455.951 406.117 456.257 407.215 461.031 410.89C464.119 413.289 466.033 416.378 465.217 417.781C464.323 419.083 465.216 420.87 467.232 421.559C469.223 422.351 470.806 424.954 470.806 427.456C470.806 429.932 472.516 433.428 474.609 435.113C477.8 437.818 478.897 437.614 481.781 433.734C483.568 431.233 484.564 427.838 483.977 426.256C483.364 424.647 484.972 422.657 487.55 421.865C490.052 421.074 491.455 419.263 490.664 417.884C489.745 416.48 491.659 413.289 494.748 410.89C499.521 407.215 499.827 406.117 496.943 404.229C492.348 401.217 493.038 400.834 511.492 395.933C525.147 392.36 528.645 392.257 536.404 394.835C550.187 399.634 553.275 402.518 546.384 404.407C540.794 406.015 540.793 406.015 546.996 406.22C550.365 406.398 554.551 404.918 556.159 402.927C559.937 398.333 563.23 398.333 563.23 403.029C563.23 404.918 560.346 407.904 556.747 409.512C553.173 411.095 548.885 413.596 547.277 415.178C545.695 416.684 540.896 418.675 536.608 419.466C514.683 423.754 502.609 435.317 504.319 450.376C505.111 456.451 506.106 457.447 512.283 457.447C518.971 457.447 519.456 456.86 520.553 446.88C521.651 437.308 522.748 435.623 533.213 429.242C541.1 424.367 548.094 422.07 555.751 421.763C570.811 421.278 577.396 418.165 587.657 406.704C597.33 396.035 602.512 394.554 604.707 401.625C608.408 413.085 590.566 428.936 568.513 433.734C564.047 434.627 561.034 436.619 561.647 438.125C563.127 442.311 582.169 440.218 591.255 434.832C601.72 428.656 604.119 428.936 603.226 436.516C601.924 446.803 591.358 452.775 574.894 452.469C558.457 452.163 557.257 455.66 572.01 460.841C580.892 463.93 582.373 463.827 591.255 459.156C602.027 453.567 606.902 455.864 603.507 464.849C599.832 474.497 585.36 477.1 566.216 471.51C556.645 468.728 560.55 474.701 571.806 480.086C581.173 484.681 583.981 485.09 591.153 482.793C600.725 479.883 603.609 480.801 603.609 486.774C603.609 497.341 593.654 499.128 574.613 491.853C558.941 485.983 558.942 485.983 565.527 492.951C572.903 500.838 584.772 506.122 595.033 506.122C601.72 506.122 603.609 507.015 603.609 510.41C603.609 522.559 589.647 523.452 573.005 512.196C557.461 501.731 555.062 505.611 568.717 519.266C578.493 529.042 580.178 529.833 591.459 529.833C602.716 529.833 603.609 530.242 603.609 535.627C603.609 548.185 584.466 545.991 568.921 531.646C557.742 521.36 555.547 523.172 563.434 535.934C569.228 545.302 581.684 553.571 590.056 553.571C603.813 553.571 607.795 559.748 598.326 566.435C588.065 573.709 582.168 571.234 563.944 552.371C554.475 542.596 546.179 534.53 545.592 534.53C544.903 534.53 544.291 537.21 544.291 540.401C544.291 544.204 547.073 548.287 552.765 552.575C560.243 558.369 560.754 559.467 557.563 562.658C551.769 568.426 542.095 561.841 536.327 548.185C533.621 542.008 530.125 536.93 528.44 536.93C523.565 536.93 524.739 543.106 531.324 550.789C534.821 554.975 536.327 558.549 534.923 559.467C531.426 561.56 524.841 557.45 517.465 548.491C509.501 538.818 508.99 544.612 516.979 556.277C520.655 561.739 526.755 566.435 533.621 569.319C542.708 573.021 544.291 574.501 543.295 578.789C542.198 583.077 543.703 584.277 554.475 587.365C567.926 591.27 574.69 589.279 581.786 579.197C584.772 575.113 596.437 573.225 599.627 576.416C601.618 578.407 590.745 586.778 586.176 586.778C584.185 586.778 581.786 587.978 580.892 589.458C579.59 591.449 582.168 591.857 590.464 590.658C603.507 588.871 615.682 593.159 607.106 596.452C604.502 597.447 597.126 598.545 590.566 598.749C583.776 599.03 581.173 599.744 584.67 600.331C592.838 601.837 598.938 607.81 598.938 614.293C598.938 619.168 598.325 619.373 593.552 616.897C590.566 615.289 584.364 611.103 579.693 607.504C569.611 599.847 566.828 599.54 557.359 605.309C548.272 610.899 537.22 613.707 537.22 610.516C537.22 606.228 546.588 598.647 551.871 598.647C559.452 598.647 554.373 594.946 542.887 592.163C535.51 590.377 532.217 590.556 528.848 593.057C522.569 597.651 521.548 597.243 515.678 587.365C508.71 575.701 499.138 565.44 495.233 565.44C493.242 565.44 492.145 568.426 492.145 573.812C492.145 585.783 507.995 602.833 520.17 603.828C526.143 604.313 529.129 605.819 529.64 608.601C530.635 613.987 519.864 616.692 511.798 613.094C508.505 611.511 505.213 610.899 504.498 611.512C502.227 613.885 509.399 619.985 516.775 621.874C526.143 624.375 526.449 630.348 517.261 631.445C512.998 631.93 507.791 630.348 503.605 627.157C499.93 624.452 496.841 623.354 496.841 624.758C496.841 628.051 507.689 638.924 510.982 638.924C514.887 638.924 513.891 645.407 509.705 646.99C505.008 648.802 497.632 644.897 494.442 638.924C493.038 636.321 490.843 634.228 489.643 634.228C485.764 634.228 487.065 641.426 492.247 648.7C497.122 655.464 497.122 655.464 488.061 668.532C483.083 675.705 478.489 681.601 477.902 681.601C477.187 681.601 472.695 675.807 467.82 668.839ZM381.471 524.856C386.653 520.772 390.354 510.792 386.551 510.792C381.369 510.792 366.31 521.564 366.31 525.265C366.31 531.34 373.508 531.135 381.471 524.856ZM380.374 499.945C383.36 497.137 383.257 496.55 379.99 495.248C375.09 493.359 368.122 497.239 367.305 502.318C366.718 506.913 374.707 505.407 380.476 499.945H380.374ZM393.646 489.454C395.535 486.468 392.345 486.468 387.75 489.454C384.662 491.47 384.662 491.751 388.158 491.751C390.353 491.853 392.829 490.756 393.646 489.454ZM416.771 411.988C415.163 411.299 412.483 411.299 410.798 411.988C409.19 412.6 410.594 413.187 413.785 413.187C417.077 413.187 418.354 412.702 416.771 411.988ZM133.401 675.909C129.929 673.331 129.725 671.621 132.022 664.244C135.314 653.269 133.12 650.793 125.922 657.557C120.562 662.56 120.358 662.662 116.35 658.272C112.471 653.984 112.981 653.167 128.219 639.231C136.897 631.242 144.784 624.656 145.575 624.656C148.255 624.656 161.936 639.92 162.626 643.697C164.029 651.176 159.639 658.068 152.467 659.548C146.979 660.646 144.274 663.147 141.389 669.937C137.893 677.798 136.897 678.614 133.401 675.909ZM151.65 648.496C152.467 647.194 151.855 643.901 150.349 641.119C147.873 636.32 147.464 636.321 143.176 640.226C139.705 643.417 139.296 645.102 141.287 647.603C144.376 651.278 149.557 651.788 151.65 648.496ZM289.66 675.322C288.741 674.403 288.052 671.213 288.052 668.124C288.052 661.564 286.163 661.156 281.977 666.746C279.68 669.937 278.174 670.217 276.183 668.226C274.09 666.235 274.703 663.147 278.276 656.077C282.564 647.705 282.769 646.301 279.476 645.101C274.295 643.11 274.779 642.804 269.113 651.993C266.305 656.562 262.426 660.262 260.639 660.262C256.147 660.262 256.351 658.757 262.222 649.185C266.918 641.604 267.02 634.126 262.324 634.126C261.124 634.126 257.346 638.516 253.85 643.799C248.464 651.891 246.881 652.988 243.895 650.589C241.495 648.598 240.883 645.306 241.802 640.328C243.18 632.926 243.18 632.926 238.305 638.72C234.502 643.008 232.613 643.697 230.52 641.706C228.529 639.613 229.525 636.423 235.012 628.74C242.185 618.479 242.185 618.48 236.212 615.698C229.218 612.405 226.921 613.604 231.031 618.581C235.421 623.865 231.516 628.255 226.538 623.661C220.464 618.173 218.371 622.282 224.139 628.357C231.133 635.835 225.849 638.031 216.967 631.445C212.985 628.561 209.794 625.549 209.794 624.86C209.794 624.069 213.878 618.683 218.958 612.889L228.121 602.22L239.199 610.516C249.459 618.173 250.174 619.372 249.459 628.051C248.668 637.316 248.668 637.316 253.262 631.241C257.831 625.064 257.831 625.065 268.807 631.037C274.779 634.33 280.982 638.516 282.36 640.328C283.764 642.115 285.551 642.906 286.265 642.217C287.056 641.503 290.936 642.6 294.943 644.693C303.009 648.802 305.307 659.267 298.721 661.743C296.73 662.56 295.123 666.031 295.123 669.937C295.123 676.522 293.029 678.615 289.66 675.22V675.322ZM295.225 654.366C295.225 652.376 293.642 650.793 291.651 650.793C289.66 650.793 288.052 652.376 288.052 654.366C288.052 656.281 289.66 657.863 291.651 657.863C293.54 657.863 295.225 656.281 295.225 654.366ZM61.7279 647.296C51.3651 634.738 38.1946 607.504 32.9111 587.875C27.7296 568.63 25.6369 500.021 29.3124 471.612C30.9204 459.948 35.4124 440.703 39.3942 428.936C89.7281 280.078 267.811 187.961 494.442 193.73C607.693 196.639 700.627 220.275 776.792 265.529C787.18 271.808 795.756 277.602 795.756 278.393C795.756 283.064 778.808 276.888 748 261.037C695.445 234.032 648.277 220.071 564.429 206.696C533.928 201.821 416.975 202.612 382.977 207.997C261.226 227.038 182.177 261.752 117.652 324.363C74.2861 366.427 46.5668 417.884 38.884 470.311C35.1064 496.243 37.1993 568.936 42.2786 586.676C48.0726 607.223 64.3059 638.031 72.295 643.697C80.4628 649.593 81.0752 652.069 74.7962 655.362C70.9931 657.378 68.9003 656.076 61.7279 647.296ZM823.756 644.999C815.078 637.827 807.318 630.833 806.425 629.455C804.409 626.163 822.378 608.116 827.559 608.116C832.434 608.116 843.206 618.48 843.206 623.176C843.206 625.167 846.601 627.157 851.68 628.051C857.857 629.25 859.848 630.757 859.261 633.743C858.571 636.832 856.274 637.623 849 637.138C834.042 636.117 831.541 638.235 839.709 644.795C846.09 649.9 846.396 650.793 843.104 654.188C839.709 657.557 838.025 656.766 823.756 644.999ZM830.648 629.148C833.838 625.958 832.052 619.986 827.84 619.986C826.156 619.986 823.374 621.568 821.663 623.661C819.086 626.749 819.187 627.745 821.97 629.557C826.462 632.339 827.457 632.339 830.648 629.148ZM102.312 642.702C100.014 636.831 134.013 609.214 138.301 613.4C142.691 617.79 141.798 619.092 124.543 632.85C107.085 646.786 104.302 647.985 102.312 642.702Z" fill="#8550DC"/>
</svg>
