<svg width="955" height="956" viewBox="0 0 955 956" fill="none" xmlns="http://www.w3.org/2000/svg">
<path fill-rule="evenodd" clip-rule="evenodd" d="M202.435 418.502C194.883 409.56 194.883 409.56 193.492 415.064C192.159 419.968 186.955 423.049 186.955 418.803C186.955 413.881 191.426 401.331 193.192 401.331C194.3 401.331 198.471 404.863 202.435 409.184C206.399 413.505 210.006 417.037 210.363 417.037C210.739 417.037 211.622 414.689 212.279 411.833C213.369 406.535 218.366 404.337 218.366 409.184C218.366 414.914 214.027 427.539 212.054 427.539C210.87 427.539 206.55 423.5 202.435 418.502ZM739.048 408.752C739.405 406.761 743.087 404.563 749.757 402.44C758.85 399.565 759.883 398.757 759.225 395.094C758.493 391.28 762.006 387.616 763.772 390.472C764.505 391.637 770.084 410.067 770.084 411.232C770.084 413.655 764.354 411.025 763.622 408.301C763.19 406.403 762.532 404.788 762.307 404.788C762.081 404.788 757.384 406.403 751.805 408.301C739.405 412.565 738.24 412.641 738.973 408.752H739.048ZM194.225 393.121C194.732 390.472 196.423 390.021 205.309 390.472L215.718 390.979L206.982 383.126C200.312 377.115 198.772 374.841 200.312 373.225C201.853 371.685 205.009 373.376 213.745 380.572C229.075 393.178 228.493 395.018 209.048 395.676C195.033 396.202 193.699 395.902 194.225 393.046V393.121ZM732.961 392.163C732.585 390.98 733.694 388.124 735.441 385.775C739.631 380.421 739.781 376.081 735.591 377.772C730.538 379.839 727.306 379.613 727.306 377.114C727.306 374.916 751.88 363.325 753.42 364.866C753.871 365.298 755.186 369.262 756.37 373.733C759 383.652 756.802 387.316 748.291 387.316C744.91 387.316 741.472 388.706 739.555 390.829C735.892 394.868 734.051 395.244 732.961 392.163ZM751.598 380.628C752.105 379.895 752.105 377.622 751.523 375.649C750.339 371.178 743.952 372.267 743.952 376.964C743.952 380.928 749.682 383.728 751.598 380.628ZM217.634 369.994C203.825 356.054 204.708 353.631 223.138 355.171C230.54 355.829 237.379 357.013 238.187 357.745C240.46 359.793 237.811 362.874 233.922 362.874C230.033 362.874 226.52 369.769 229 372.418C230.916 374.465 231.067 380.346 229.225 380.346C228.493 380.346 223.289 375.724 217.634 369.994ZM224.904 363.25C225.336 361.991 223.796 361.183 220.94 361.183C216.826 361.183 216.525 361.559 218.366 363.832C220.865 366.763 223.871 366.481 224.904 363.25ZM720.768 362.874C717.18 360.093 715.997 357.595 715.997 353.124C715.997 336.159 741.021 332.796 744.835 349.16C745.718 352.748 744.835 355.021 741.021 359.21C734.427 366.481 727.006 367.796 720.768 362.949V362.874ZM735.516 356.486C742.486 350.174 736.324 341.663 727.513 345.703C722.535 347.976 720.693 351.508 722.159 356.205C723.493 360.3 731.12 360.45 735.516 356.562V356.486ZM229.225 346.962C223.289 342.998 218.366 339.165 218.366 338.507C218.366 334.994 226.802 325.3 230.334 324.793C234.655 324.135 241.042 328.832 241.042 332.646C241.042 334.111 243.165 334.994 247.129 334.994C250.511 334.994 253.292 335.651 253.292 336.534C253.292 339.615 248.238 342.039 244.048 341.006C238.112 339.54 236.421 343.054 241.193 346.962C243.391 348.709 244.556 350.982 243.823 352.165C242.001 355.096 241.193 354.796 229.225 346.962ZM233.997 337.624C236.346 334.769 235.031 331.462 231.574 331.462C227.685 331.462 225.111 335.802 227.46 338.151C230.184 340.856 231.423 340.705 233.997 337.699V337.624ZM711.375 331.312C708.219 328.175 707.261 327.949 704.029 329.922C700.948 331.838 700.009 331.838 698.168 329.922C696.627 328.306 696.477 327.367 697.792 326.841C698.825 326.484 704.555 322.67 710.417 318.33L721.144 310.552L725.54 317.09C730.613 324.568 731.045 328.381 727.231 332.195C723.342 336.084 715.715 335.652 711.375 331.312ZM722.685 325.45C723.624 320.453 719.961 318.029 716.579 321.411C714.174 323.835 714.024 324.793 715.922 327.066C718.721 330.448 721.877 329.715 722.685 325.45ZM244.556 323.759C231.574 313.483 231.874 311.285 246.247 311.792C257.631 312.243 257.632 312.243 252.409 307.978C249.478 305.63 246.547 303.657 245.889 303.582C244.048 303.507 244.198 298.735 246.04 297.571C246.847 297.12 252.709 300.727 259.097 305.555C273.187 316.357 272.68 319.514 257.105 318.105L247.129 317.222L252.859 322.144C258.646 327.216 260.262 331.537 256.298 331.387C255.133 331.387 249.778 327.949 244.499 323.759H244.556ZM691.555 319.364C691.555 317.523 692.287 314.084 693.17 311.661C695.387 306.006 693.697 304.691 688.399 308.054C685.318 310.12 683.645 310.327 682.236 308.861C680.771 307.471 682.969 304.466 690.69 297.496C696.477 292.273 701.624 287.951 702.207 287.876C702.789 287.876 705.438 290.957 708.069 294.771C714.306 303.733 713.216 310.12 705.213 311.736C701.324 312.469 699.201 314.215 697.867 317.747C695.744 323.402 691.555 324.493 691.555 319.364ZM705.138 304.822C706.453 303.282 706.246 301.666 704.48 299.243C702.132 296.086 701.756 296.03 699.126 298.735C696.702 301.084 696.627 302.042 698.468 304.315C701.173 307.621 702.789 307.697 705.138 304.822ZM263.136 300.652C254.325 291.916 259.529 277.299 271.421 277.299C277.959 277.299 286.469 285.96 286.469 292.648C286.469 304.24 271.721 309.313 263.136 300.652ZM279.499 296.537C281.697 292.423 279.424 287.144 274.277 284.344C266.292 280.099 260.938 288.985 267.382 295.804C272.229 300.933 276.926 301.234 279.499 296.537ZM673.068 299.844C672.411 298.736 676.149 293.607 681.654 288.102C689.432 280.399 691.93 278.784 693.621 280.456C695.312 282.146 693.772 284.645 686.276 292.197C676.375 302.267 675.06 303 673.068 299.844ZM666.531 293.682C665.873 293.005 665.366 290.732 665.366 288.684C665.366 283.555 660.011 278.99 655.465 280.173C651.125 281.263 648.702 278.483 651.858 276.059C653.041 275.101 658.828 271.739 664.783 268.582C673.5 263.811 675.999 263.153 678.141 264.825C680.339 266.666 679.963 268.789 675.191 280.906C669.837 294.546 668.804 295.955 666.531 293.682ZM671.095 275.628C671.603 273.711 671.377 272.095 670.645 272.095C668.522 272.095 665.291 276.642 666.531 277.976C668.597 279.949 670.212 279.141 671.095 275.628ZM292.556 276.36C288.01 270.78 285.23 268.714 283.163 269.521C273.995 273.129 274.352 268.658 283.896 260.805C290.133 255.732 292.406 254.699 294.022 256.314C295.562 257.855 295.28 258.963 292.782 260.805C289.626 263.153 289.851 263.66 296.821 272.02C303.34 279.798 304.749 284.344 300.484 284.344C299.752 284.344 296.164 280.756 292.556 276.36ZM310.31 270.931C307.962 268.582 309.296 266.891 315.232 264.392C324.194 260.654 323.161 257.648 313.466 259.114C304.524 260.429 300.409 258.23 300.409 251.918C300.409 247.371 307.905 240.683 313.034 240.683C317.956 240.683 316.19 246.414 310.911 247.653C306.872 248.612 304.373 254.116 308.262 253.458C309.22 253.308 312.884 252.651 316.341 251.993C328.289 249.795 331.521 262.195 320.662 268.789C314.951 272.321 312.227 272.828 310.31 270.931ZM630.44 265.783C627.059 263.434 624.56 260.654 624.786 259.621C625.744 256.107 639.308 237.171 640.849 237.171C644.888 237.171 644.005 241.341 638.275 249.795C632.038 259.039 632.037 259.038 636.527 262.552C645.771 270.048 640.416 272.978 630.44 265.783ZM617.59 256.972C617.008 256.314 616.482 254.341 616.482 252.576C616.482 248.386 608.779 244.647 605.548 247.296C604.083 248.536 602.317 248.612 600.701 247.578C598.653 246.263 600.194 243.99 608.629 236.362C621.705 224.47 624.41 224.545 624.053 236.794C623.677 253.459 621.329 260.654 617.665 256.972H617.59ZM619.788 235.479C619.939 233.638 618.755 234.089 616.05 236.87C612.668 240.251 612.442 241.059 614.734 242.449C617.365 244.065 619.563 241.134 619.788 235.479ZM336.217 240.758C330.713 229.824 330.356 224.47 335.278 227.551C337.683 229.017 348.993 250.885 347.884 251.993C345.029 254.849 341.722 251.617 336.217 240.758ZM347.959 234.446C341.365 218.59 342.981 216.618 356.263 224.771L364.999 230.125L362.125 223.08C360.077 217.858 359.852 215.509 361.242 214.043C363.816 211.488 363.966 211.695 370.053 225.86C372.984 232.755 374.599 238.711 373.716 239.594C372.852 240.477 368.155 238.861 362.575 235.705L352.957 230.276L356.263 237.903C358.029 242.149 359.044 246.038 358.461 246.639C355.605 249.495 352.957 246.489 347.959 234.446ZM589.41 240.251C588.902 238.053 587.869 233.206 587.136 229.468L585.821 222.629L582.515 229.9C579.509 236.588 576.635 238.711 574.136 236.212C573.403 235.479 581.407 214.344 584.262 209.647C584.413 209.347 585.746 209.647 587.212 210.155C588.827 210.812 590.368 214.57 591.1 219.398C592.866 230.933 593.731 231.515 597.338 223.362C599.611 218.383 601.377 216.542 603.2 217.275C605.848 218.308 604.458 223.437 597.112 239.368C594.463 245.173 590.65 245.605 589.41 240.251ZM724.808 239.068C718.871 234.164 718.871 234.164 721.802 226.443C723.417 222.197 724.732 217.933 724.732 216.993C724.732 216.035 720.036 211.113 714.306 206.059C703.898 196.872 703.898 196.872 695.312 201.212C686.801 205.533 686.802 205.533 680.113 199.521C676.3 195.914 674.177 192.758 675.116 191.969C678.272 188.944 748.874 151.595 751.297 151.595C752.612 151.595 756.294 154.32 759.526 157.607L765.237 163.563L749.982 203.842C741.547 226.011 733.825 244.14 732.736 244.14C731.702 244.065 728.114 241.867 724.808 239.068ZM743.895 173.313C743.895 173.031 738.466 176.037 731.703 179.926C724.958 183.815 719.453 187.629 719.453 188.362C719.453 189.094 722.384 192.025 725.973 194.9L732.435 200.103L738.165 186.896C741.321 179.701 743.895 173.539 743.895 173.313ZM220.339 238.485C202.586 188.869 198.697 175.587 201.477 174.046C205.892 171.566 205.009 168.541 200.162 169.8C196.499 170.683 195.766 170.082 194.733 165.329C193.493 159.599 194.376 158.34 205.441 150.562C208.973 148.139 211.321 149.247 245.232 169.424C264.958 181.241 281.115 191.668 281.115 192.702C281.04 193.641 278.184 196.722 274.803 199.521C268.64 204.65 268.641 204.65 260.487 200.103L252.409 195.557L241.55 205.101C230.766 214.645 230.766 214.644 233.34 220.581C237.078 229.599 236.421 232.83 229.808 237.828C222.556 243.407 222.105 243.407 220.339 238.485ZM232.307 191.819C239.276 186.014 239.577 186.464 222.913 175.962C216.093 171.622 214.628 171.191 215.567 173.765C221.147 188.869 224.604 197.022 225.337 196.947C225.769 196.947 228.925 194.599 232.307 191.819ZM383.335 223.08C380.48 213.612 379.672 212.578 376.215 213.461C373.791 214.118 372.044 213.536 371.443 211.996C370.278 209.065 390.455 201.418 392.146 204.143C393.536 206.416 391.489 209.272 388.483 209.272C385.251 209.272 385.326 210.23 389.29 221.896C391.188 227.251 392.221 232.098 391.639 232.68C388.764 235.555 386.21 232.68 383.335 223.08ZM550.878 227.626C545.955 222.779 545.448 216.542 549.262 209.197C557.265 193.641 578.908 205.984 572.088 222.197C567.823 232.473 558.223 234.972 550.878 227.626ZM566.959 218.534C568.199 213.386 566.001 208.614 561.887 207.806C557.923 207.073 553.602 212.353 553.602 218.008C553.602 227.702 564.536 228.134 566.959 218.534ZM404.32 226.237C403.231 223.156 398.158 202.828 398.158 201.644C398.158 200.479 410.125 197.022 414.39 197.022C420.101 197.022 417.527 202.095 411.234 203.26C403.738 204.65 404.189 208.408 411.891 208.333C419.218 208.333 420.684 212.503 413.864 213.893C410.351 214.57 408.66 215.96 408.66 218.233C408.66 221.088 409.618 221.389 415.63 220.356C425.982 218.74 425.324 223.888 414.897 226.518C405.278 228.942 405.203 228.942 404.32 226.312V226.237ZM533.274 221.013C533.856 218.891 535.322 212.578 536.505 207.073C538.177 199.07 539.286 197.022 541.935 197.022C544.565 197.022 545.016 197.905 544.208 200.911C543.607 203.109 542.292 209.422 541.202 214.926C539.586 223.08 538.553 224.978 535.698 224.978C532.973 224.978 532.466 224.095 533.274 221.013ZM427.297 219.267C426.789 217.125 425.831 210.887 425.174 205.383C424.065 195.783 424.14 195.407 428.33 194.317C440.222 191.368 448.733 197.755 445.201 206.923C444.036 209.948 444.393 212.297 446.309 215.302C450.405 221.54 445.858 223.287 440.804 217.35C435.582 211.338 433.102 211.488 433.102 217.932C433.102 224.17 428.762 225.203 427.297 219.267ZM439.846 204.725C441.688 203.109 438.005 198.788 434.924 198.788C432.294 198.788 431.411 199.878 431.411 203.26C431.411 207.073 431.918 207.524 435.3 206.491C437.498 205.833 439.546 205.026 439.846 204.725ZM515.877 209.948C516.967 199.371 516.76 198.413 513.529 197.53C511.538 197.022 509.922 195.407 509.922 194.016C509.922 191.893 511.538 191.593 518.226 192.552C522.772 193.209 527.976 194.167 529.667 194.674C533.932 195.914 532.391 199.747 527.845 199.07C523.805 198.563 523.148 200.104 521.307 213.161C520.499 219.116 519.391 221.464 517.418 221.464C515.07 221.464 514.844 219.774 515.877 209.948ZM453.429 210.53C450.705 187.403 453.204 184.623 464.213 198.563L470.958 207.073L470.15 198.413C469.417 190.56 469.643 189.752 472.573 190.353C475.448 190.861 475.955 192.833 476.387 204.444C477.045 220.882 474.772 221.972 465.528 209.873L459.291 201.719V210.756C459.291 223.287 454.97 223.155 453.429 210.53ZM500.322 216.242C498.988 211.996 489.895 211.338 488.354 215.378C487.847 216.768 485.78 217.932 483.958 217.932C480.727 217.932 480.933 217.05 486.382 204.444C493.633 187.855 496.865 186.821 501.28 199.803C506.409 214.927 507.066 219.698 504.06 219.698C502.67 219.698 500.979 218.158 500.322 216.242ZM496.358 202.959C495.775 199.672 495.099 199.07 494.009 200.761C491.811 204.293 492.168 207.525 494.892 207.525C496.508 207.525 496.94 206.059 496.358 202.959ZM649.284 181.166C645.771 179.344 642.464 177.202 641.957 176.394C641.506 175.587 643.779 170.683 647.086 165.46C650.392 160.256 653.624 154.827 654.206 153.361C656.63 147.932 681.504 104.478 682.236 104.478C684.66 104.478 696.777 111.823 696.777 113.289C696.777 115.336 658.752 182.631 656.93 183.74C656.273 184.116 652.816 182.932 649.284 181.166ZM667.131 149.097C667.131 147.274 663.75 146.467 662.717 148.083C662.134 149.097 662.867 149.83 664.407 149.83C665.873 149.83 667.131 149.473 667.131 149.097ZM278.842 147.275C269.58 127.53 262.028 110.64 262.028 109.626C262.028 108.668 264.094 106.977 266.574 105.812C270.388 104.046 271.421 104.196 273.337 106.751C274.502 108.367 276.343 109.701 277.433 109.701C279.932 109.701 279.931 108.667 277.809 104.553C276.343 101.848 277.583 100.739 286.827 96.5497C306.647 87.7574 317.073 89.4297 327.35 103.313C331.52 108.968 332.479 127.304 328.74 130.967C325.358 134.424 325.941 135.082 340.632 144.776C348.26 149.754 354.572 154.601 354.572 155.334C354.572 157.175 341.59 163.845 337.983 163.845C336.518 163.845 329.905 159.881 323.311 155.128C310.611 145.866 309.145 145.358 303.866 148.139C300.785 149.83 300.86 150.487 306.572 162.379C309.878 169.218 312.151 175.53 311.644 176.319C310.686 177.879 299.376 183.082 296.971 183.082C296.22 183.082 288.085 166.926 278.842 147.275ZM304.806 130.16C311.062 126.571 311.794 125.538 311.794 119.301C311.794 113.796 310.911 111.974 307.304 109.982C303.209 107.634 301.95 107.859 293.74 111.598L284.703 115.787L288.968 124.955C293.815 135.307 294.98 135.664 304.806 130.16ZM609.437 161.365C602.467 158.866 601.227 155.785 592.923 122.307C590.218 111.523 587.569 103.088 586.986 103.67C586.404 104.271 582.665 113.946 578.701 125.106C570.98 146.974 569.589 148.364 559.839 144.701C555.424 143.01 555.067 142.202 556.025 137.149C556.683 134.049 558.806 130.235 560.854 128.694C563.578 126.722 563.934 125.688 562.262 125.106C560.496 124.523 562.469 117.103 570.115 95.1594C575.676 79.0965 580.974 65.5138 581.782 65.0817C582.59 64.4805 586.611 65.5889 590.65 67.4301C598.146 70.7178 598.146 70.7179 604.965 99.4244L611.71 128.037L619.206 104.778C623.32 91.9278 627.059 81.069 627.566 80.5617C628.6 79.5284 641.074 83.2675 643.272 85.3341C645.188 87.0249 619.788 163.845 617.365 163.713C616.407 163.638 612.818 162.605 609.437 161.365ZM639.158 95.7418C639.158 94.8025 638.425 93.9949 637.542 93.9949C636.603 93.9949 635.419 94.8025 634.762 95.7418C634.179 96.7 634.987 97.5077 636.452 97.5077C637.918 97.5077 639.158 96.7 639.158 95.7418ZM369.32 145.79C368.663 143.311 368.08 134.575 367.93 126.346C367.704 118.211 367.197 111.448 366.615 111.448C364.773 111.448 360.885 69.4774 362.575 67.8618C363.458 67.0539 367.704 65.8143 372.119 65.1568C380.104 64.0484 380.104 64.0481 392.954 84.2253C399.999 95.3848 406.237 104.478 406.894 104.478C407.476 104.478 410.125 94.0695 412.699 81.3695C415.329 68.6695 418.054 57.7355 418.711 57.0779C419.444 56.4204 423.708 55.312 428.18 54.6545C437.573 53.2642 434.718 47.0274 449.822 101.773C457.525 129.803 457.75 131.418 454.82 133.616C453.054 134.856 450.273 135.89 448.657 135.89C446.967 135.89 444.393 136.397 443.003 136.923C441.011 137.655 439.846 136.19 438.606 131.268C437.648 127.604 434.718 116.37 432.069 106.319L427.222 88.1142L423.032 108.085C420.759 119.019 418.054 128.995 417.02 130.235C416.062 131.418 412.775 132.452 409.75 132.452C404.696 132.452 403.437 131.043 393.386 114.529C381.212 94.6522 381.212 94.7276 385.251 124.599C386.867 135.89 387.45 145.659 386.567 146.467C385.759 147.275 381.795 148.439 377.756 149.097C370.936 150.205 370.353 149.98 369.32 145.79ZM504.211 136.772C491.003 135.608 479.769 134.199 479.261 133.691C478.228 132.733 483.15 63.0148 484.691 56.0448C485.705 51.4983 484.315 51.5735 516.028 54.4291L538.779 56.496V64.3489C538.779 73.3667 539.587 73.1411 514.619 70.7175L501.054 69.4023L501.562 77.7627C502.013 84.6763 502.745 86.2167 505.601 86.4985C507.517 86.724 514.412 87.3064 520.931 87.964C532.823 89.0724 532.823 89.0727 532.316 96.3433C531.809 103.595 531.809 103.595 515.577 103.087C503.177 102.655 499.439 103.012 499.439 104.778C499.439 106.093 498.988 109.982 498.406 113.439C497.316 119.826 497.316 119.827 516.028 121.067C536.505 122.532 537.295 123.058 535.397 133.316C534.589 137.58 533.349 139.346 531.283 139.196C529.592 139.046 517.418 138.012 504.211 136.848V136.772ZM433.177 954.664C327.932 944.181 232.889 901.91 154.303 830.501C136.474 814.344 115.338 791.969 115.338 789.245C115.338 788.305 114.155 787.047 112.765 786.539C108.65 784.999 80.6956 746.392 66.8871 723.284C31.004 663.241 8.40323 595.664 1.86536 528.726C-0.91512 500.62 -0.539394 446.532 2.67318 419.968C26.3072 221.896 172.056 58.7691 367.197 11.9331C402.047 3.57289 422.224 1.14936 465.453 0.191223C520.8 -1.04872 560.196 3.64825 607.539 17.3064C661.477 32.7869 719.453 61.6996 763.847 95.3096C785.79 111.898 787.556 113.946 787.838 122.757C788.214 131.568 791.37 132.659 792.835 124.524C793.718 119.602 793.793 119.601 809.274 134.274C871.215 192.908 919.723 276.435 940.351 359.868C961.486 445.724 959.269 535.846 933.963 619.956C931.032 629.706 929.774 631.772 926.693 631.848C923.311 631.848 923.236 632.054 925.81 634.046C928.384 636.018 927.933 637.859 921.263 654.523C904.825 695.179 877.02 744.494 871.29 742.954C867.476 741.996 865.052 746.917 868.284 749.04C870.031 750.205 869.824 750.938 867.476 752.347C865.785 753.362 864.395 755.278 864.395 756.668C864.395 758.058 862.855 759.242 860.938 759.242C859.022 759.242 857.425 758.509 857.425 757.701C857.425 756.818 855.809 755.71 853.893 755.203C851.92 754.695 850.436 753.662 850.587 752.854C851.244 749.266 850.305 746.918 848.689 747.857C845.608 749.773 846.848 746.241 851.244 740.887C854.701 736.716 855.584 736.265 855.659 738.839C855.809 748.007 866.067 733.109 867.326 721.819C867.758 718.005 870.181 711.317 872.68 706.92C879.725 694.653 880.233 694.145 882.731 697.452C886.263 702.355 888.968 698.767 886.038 693.037C883.389 687.607 885.531 678.871 889.551 678.871C890.659 678.871 891.542 677.124 891.692 674.982C891.768 672.784 895.863 661.569 900.71 649.902C920.23 603.066 934.245 535.696 934.245 488.522C934.245 480.594 934.978 476.404 936.462 475.896C938.134 475.314 938.209 474.281 936.519 470.974C935.429 468.626 933.963 459.308 933.381 450.14C927.801 366.688 903.059 293.08 857.482 224.47C799.956 137.881 710.06 70.4357 611.935 40.2638C605.623 38.3663 601.659 36.093 601.152 34.1767C600.269 30.7199 596.154 29.9874 595.14 33.0685C594.689 34.4775 589.635 33.876 578.1 31.1707C521.814 17.9635 449.672 16.9304 388.915 28.4468C320.38 41.4474 247.28 75.6395 190.411 121.292C171.098 136.772 136.606 171.19 121.632 189.977C56.1786 271.945 21.4599 368.153 20.4454 470.091C20.2951 487.488 19.4124 500.545 18.3791 501.353C17.2894 502.311 17.4395 503.119 18.8297 503.701C20.0697 504.227 21.0279 507.665 21.0279 511.855C21.103 536.578 34.0095 597.204 47.1604 634.402C84.4338 739.647 168.9 835.423 268.791 885.678C275.685 889.21 280.965 892.648 280.457 893.456C280.006 894.189 281.697 894.865 284.346 894.865C286.901 894.865 294.172 897.27 300.409 900.22C325.659 912.037 366.314 923.553 407.777 930.598C438.606 935.877 510.448 936.328 541.334 931.481C586.986 924.285 639.383 908.88 667.489 894.264C672.11 891.916 675.792 890.826 675.792 891.784C675.792 892.799 676.6 893.682 677.54 893.682C678.498 893.682 679.306 892.573 679.306 891.183C679.306 889.868 686.125 885.021 694.579 880.474C729.279 861.687 764.298 835.856 796.067 805.477C807.358 794.693 813.538 789.921 815.887 790.353C818.592 790.804 819.099 790.203 818.235 787.573C817.503 785.225 819.4 781.467 824.604 775.023C829.752 768.711 832.251 766.719 832.683 768.635C833.058 770.833 833.941 771.059 836.572 769.594C838.92 768.41 839.953 768.41 839.953 769.594C839.953 770.608 841.118 771.416 842.584 771.416C846.04 771.416 845.89 773.182 842.226 775.831C839.652 777.729 839.577 778.461 841.569 780.884C842.884 782.425 843.616 783.89 843.26 784.116C842.884 784.341 840.986 785.356 839.07 786.464C837.154 787.497 835.614 789.846 835.614 791.668C835.614 793.509 833.791 795.782 831.649 796.741C829.527 797.699 827.761 799.596 827.761 800.987C827.761 803.636 814.121 818.609 811.773 818.609C811.115 818.609 810.232 816.768 809.932 814.645C809.199 809.215 802.229 808.333 800.613 813.405C799.956 815.453 800.313 818.026 801.346 819.116C805.968 823.738 803.469 827.044 794.076 828.51C784.983 830.05 784.982 830.05 785.208 836.964C785.49 843.483 784.907 844.366 774.706 852.144C766.346 858.456 762.964 860.072 759.733 859.264C756.295 858.381 756.069 857.873 758.192 856.258C760.691 854.417 764.88 847.823 764.88 845.756C764.88 842.9 759.15 845.474 754.604 850.378C747.051 858.381 744.835 869.766 751.88 863.885C755.036 861.255 762.081 859.696 760.691 861.913C758.418 865.577 738.823 877.825 737.79 876.21C737.207 875.195 735.892 874.895 734.859 875.477C733.694 876.285 733.769 877.018 735.159 877.901C737.057 879.084 720.186 890.676 706.021 897.796C700.892 900.426 700.366 900.426 698.9 897.871C697.792 895.805 696.12 895.372 693.321 896.255C690.465 897.213 689.939 897.946 691.555 898.886C692.814 899.694 693.321 901.61 692.738 903.15C691.78 905.499 690.089 905.799 682.894 904.841C672.636 903.526 668.071 906.006 669.612 912.112C670.419 915.55 669.104 916.583 657.062 921.43C649.228 924.662 643.347 926.202 642.972 925.168C642.69 924.135 641.581 923.327 640.567 923.327C639.608 923.327 639.233 924.436 639.759 925.751C641.506 930.297 587.362 945.196 546.031 951.508C519.391 955.622 459.441 957.238 433.177 954.664ZM463.762 947.919C462.447 945.797 457.6 945.346 457.6 947.469C457.6 948.202 458.483 949.817 459.667 951.001C462.09 953.424 465.604 950.851 463.762 947.995V947.919ZM494.235 946.078C494.235 945.045 493.051 944.313 491.511 944.313C490.045 944.313 489.313 945.045 489.895 946.078C490.477 947.037 491.736 947.769 492.619 947.769C493.483 947.769 494.235 947.037 494.235 946.078ZM302.401 907.114C300.109 904.841 297.836 906.607 299.526 909.312C300.109 910.346 301.443 910.703 302.457 910.12C303.641 909.312 303.641 908.354 302.325 907.114H302.401ZM122.308 167.076C122.308 166.193 121.576 165.46 120.543 165.46C119.584 165.46 118.852 166.644 118.852 168.184C118.852 169.65 119.584 170.382 120.543 169.8C121.576 169.218 122.308 167.959 122.308 167.076ZM773.616 112.18C773.616 110.715 772.433 109.55 770.967 109.55C768.243 109.55 767.51 111.673 769.577 113.665C771.55 115.637 773.616 114.905 773.616 112.18ZM566.659 15.3897C567.166 14.5067 566.809 13.2672 565.851 12.6848C564.893 12.0836 564.085 12.8161 564.085 14.2815C564.085 17.3813 565.118 17.8132 566.659 15.3897ZM419.143 13.5488C419.143 12.6094 418.335 11.8018 417.396 11.8018C416.438 11.8018 415.63 12.6094 415.63 13.5488C415.63 14.5069 416.438 15.3146 417.396 15.3146C418.335 15.3146 419.143 14.5069 419.143 13.5488ZM515.22 7.31146C515.22 5.84608 514.412 5.1134 513.454 5.6958C512.421 6.29698 512.139 7.53675 512.646 8.41974C514.111 10.8433 515.22 10.3925 515.22 7.31146ZM711.675 886.712C712.258 885.753 711.45 884.946 709.985 884.946C708.519 884.946 707.261 885.753 707.261 886.712C707.261 887.67 707.993 888.402 708.876 888.402C709.835 888.402 711.018 887.67 711.675 886.712ZM200.895 851.787C200.895 850.829 199.73 850.02 198.264 850.02C196.855 850.02 195.691 850.829 195.691 851.787C195.691 852.726 196.855 853.534 198.264 853.534C199.73 853.534 200.895 852.726 200.895 851.787ZM148.498 802.095C148.498 800.254 145.191 799.446 144.177 801.062C143.575 802.095 144.252 802.828 145.792 802.828C147.333 802.828 148.498 802.471 148.498 802.095ZM135.065 796.44C133.525 795.858 133.449 794.618 134.933 791.387C136.981 786.84 135.29 783.083 132.867 786.972C131.026 789.996 127.005 787.648 128.245 784.342C129.485 781.185 127.513 781.26 122.741 784.623C119.077 787.197 119.002 787.573 121.708 791.593C123.248 794.017 126.329 796.365 128.678 796.966C130.97 797.549 132.792 798.864 132.792 799.897C132.792 801.062 133.675 800.93 134.99 799.521C136.681 797.699 136.681 797.041 135.065 796.44ZM834.749 778.386C834.749 777.447 833.941 776.714 832.983 776.714C832.025 776.714 831.217 777.447 831.217 778.386C831.217 779.344 832.025 780.152 832.983 780.152C833.941 780.152 834.749 779.344 834.749 778.386ZM116.203 773.182C116.804 772.224 115.996 771.416 114.455 771.416C112.915 771.416 112.107 772.224 112.69 773.182C113.347 774.14 114.08 774.948 114.455 774.948C114.812 774.948 115.621 774.14 116.203 773.182ZM873.056 730.986C870.914 728.713 869.749 728.13 870.557 729.521C872.905 733.917 875.329 736.641 876.212 735.834C876.644 735.383 875.254 733.184 873.056 730.986ZM876.644 722.551C876.644 721.593 875.836 720.785 874.878 720.785C873.92 720.785 873.112 721.593 873.112 722.551C873.112 723.491 873.92 724.298 874.878 724.298C875.836 724.298 876.644 723.491 876.644 722.551ZM73.6502 711.542C71.377 709.344 69.104 711.016 70.7761 713.74C71.4524 714.773 72.7671 715.13 73.7253 714.548C74.8901 713.74 74.8902 712.782 73.5751 711.542H73.6502ZM68.2207 703.313C68.2207 702.355 67.413 701.566 66.4548 701.566C65.4967 701.566 64.689 702.355 64.689 703.313C64.689 704.271 65.4967 705.079 66.4548 705.079C67.413 705.079 68.2207 704.271 68.2207 703.313ZM898.945 688.415C899.32 683.868 898.212 683.136 894.473 685.484C891.899 687.175 893.458 692.755 896.539 692.755C897.629 692.755 898.738 690.838 898.945 688.415ZM7.08785 498.929C7.08785 497.99 6.28012 497.182 5.32198 497.182C4.36385 497.182 3.55612 497.99 3.55612 498.929C3.55612 499.888 4.36385 500.695 5.32198 500.695C6.28012 500.695 7.08785 499.888 7.08785 498.929ZM949.951 481.477C949.951 480.518 949.143 479.785 948.204 479.785C947.245 479.785 946.513 480.518 946.513 481.477C946.513 482.416 947.245 483.224 948.204 483.224C949.143 483.224 949.951 482.416 949.951 481.477ZM949.951 442.211C949.951 440.746 949.218 439.562 948.336 439.562C946.137 439.562 944.522 442.286 945.912 443.677C947.903 445.649 949.951 444.917 949.951 442.211ZM939.468 368.961C939.468 367.139 936.161 366.331 935.128 367.947C934.546 368.961 935.278 369.769 936.744 369.769C938.284 369.769 939.468 369.412 939.468 368.961ZM42.013 319.138C42.013 318.104 41.2053 317.372 40.2472 317.372C39.3078 317.372 38.4997 318.104 38.4997 319.138C38.4997 320.096 39.3078 320.829 40.2472 320.829C41.2053 320.829 42.013 320.096 42.013 319.138ZM906.29 297.42C906.29 295.504 902.983 294.771 901.969 296.387C901.368 297.345 902.1 298.153 903.585 298.153C905.125 298.153 906.29 297.852 906.29 297.42ZM896.164 257.648C894.924 256.39 894.116 256.239 894.116 257.347C894.116 259.696 896.164 261.743 897.347 260.579C897.779 260.128 897.347 258.738 896.164 257.648ZM567.542 706.845C555.067 703.839 540.451 693.262 543.908 689.749C544.415 689.298 550.521 691.571 557.49 694.802C568.274 699.8 572.088 700.758 582.44 700.608C594.614 700.533 598.296 699.499 619.939 690.031C635.419 683.286 661.326 682.779 674.834 689.016C682.311 692.454 683.119 693.337 680.996 695.46C678.798 697.602 677.032 697.452 668.014 694.371C652.891 689.148 636.809 690.613 618.755 698.766C597.77 708.235 583.172 710.509 567.542 706.845ZM296.971 700.457C289.926 696.925 281.265 693.563 277.884 692.961C273.112 692.229 271.646 691.139 271.646 688.49C271.646 683.211 281.266 684.827 297.911 692.961C308.262 698.034 314.199 699.875 320.23 699.875C327.199 699.875 328.365 700.382 328.365 703.388C328.365 709.701 312.527 708.235 296.971 700.457ZM565.851 727.097C562.469 725.782 555.142 722.626 549.562 719.977C543.832 717.328 534.946 714.848 529.16 714.322C520.349 713.514 518.958 712.932 519.184 709.926C519.616 704.196 537.971 706.544 554.409 714.397C575.977 724.599 591.457 724.524 613.776 714.041C627.491 707.503 643.573 704.346 656.047 705.661C676.074 707.728 671.603 712.857 649.66 713.007C637.41 713.157 632.789 714.041 623.452 718.005C597.92 728.995 578.908 732.019 565.851 727.097ZM195.183 473.323C186.598 464.662 185.189 462.314 185.189 456.734C185.189 452.112 185.921 450.215 187.763 450.215C189.604 450.215 190.411 452.037 190.411 456.076C190.411 460.848 192.027 463.422 199.204 470.016C207.79 477.944 208.315 478.17 219.325 478.17H230.541V455.494H218.366C208.672 455.494 206.117 454.911 206.117 452.845C206.117 450.722 208.973 450.215 221.015 450.215H235.838V483.374H220.49C205.159 483.374 205.159 483.374 195.183 473.323ZM721.219 483.374V450.215H736.117C748.066 450.215 750.94 450.722 750.94 452.845C750.94 454.911 748.367 455.494 738.597 455.494H726.273L726.856 466.353C727.382 477.287 727.381 477.287 738.315 477.794C749.249 478.32 749.249 478.32 758.793 469.283C766.045 462.389 768.394 459.007 768.394 455.193C768.394 451.962 769.276 450.215 771.042 450.215C772.808 450.215 773.616 452.037 773.616 455.926C773.616 460.623 771.7 463.629 762.682 472.515C751.748 483.374 751.748 483.374 736.474 483.374H721.219ZM211.829 473.398C206.474 472.74 206.117 472.29 206.117 465.846C206.117 458.932 206.117 458.932 215.868 458.932C225.562 458.932 225.562 458.932 224.961 466.353C224.454 474.431 223.42 474.938 211.829 473.398ZM220.132 465.921C220.132 464.963 218.141 464.154 215.718 464.154C213.294 464.154 211.396 464.963 211.396 465.921C211.396 466.86 213.294 467.668 215.718 467.668C218.141 467.668 220.132 466.86 220.132 465.921ZM732.961 473.548C732.285 472.89 731.703 469.283 731.703 465.62C731.703 458.932 731.702 458.932 741.396 458.932C751.072 458.932 751.072 458.932 750.565 466.353C750.057 473.773 750.057 473.773 742.129 474.281C737.789 474.562 733.619 474.281 732.961 473.548ZM745.643 465.921C745.643 464.963 743.745 464.154 741.321 464.154C738.898 464.154 736.907 464.963 736.907 465.921C736.907 466.86 738.898 467.668 741.321 467.668C743.745 467.668 745.643 466.86 745.643 465.921ZM337.758 750.13C337.101 749.116 337.683 747.726 339.017 746.918C343.262 744.269 364.849 741.413 371.819 742.578C377.831 743.611 379.897 742.878 388.483 737.223C402.855 727.68 411.29 727.323 426.996 735.683C442.345 743.761 456.868 745.433 472.573 740.962C478.228 739.346 484.541 736.923 486.589 735.608C494.817 730.329 510.223 727.398 525.628 728.131C538.629 728.713 542.668 729.746 554.541 735.382C576.484 745.809 591.833 745.584 615.467 734.575C625.8 729.746 645.771 725.049 647.668 726.947C649.66 728.938 642.182 733.842 633.803 735.984C628.881 737.224 619.281 740.812 612.386 743.893C601.227 748.89 598.146 749.473 583.323 749.548C568.124 749.623 565.7 749.116 555.292 744.043C530.775 732.151 513.304 731.794 489.012 742.578C476.105 748.308 471.991 749.323 457.6 749.999C441.087 750.882 440.955 750.806 428.762 744.269C412.399 735.533 405.504 735.383 391.996 743.687C381.945 749.849 380.987 750.074 360.227 750.938C346.569 751.539 338.434 751.314 337.758 750.13ZM319.854 737.656C318.032 735.458 318.971 734.443 326.091 731.287C342.38 723.941 348.635 722.325 364.999 721.292C379.089 720.409 382.602 719.545 389.29 715.355C403.23 706.469 416.213 706.92 431.768 716.746C445.501 725.331 463.988 724.242 490.195 713.158C496.132 710.659 504.492 708.085 508.832 707.502C515.802 706.544 516.61 706.77 516.235 709.625C515.878 711.974 512.796 713.515 504.361 715.581C498.124 717.122 491.078 719.601 488.655 721.142C481.384 725.914 466.261 729.596 453.561 729.596C443.003 729.596 439.696 728.713 426.789 722.325C409.468 713.89 404.621 713.965 390.831 722.833C382.602 728.131 380.837 728.563 366.089 728.789C353.032 728.939 348.11 729.803 338.866 733.767C322.935 740.455 322.277 740.605 319.854 737.656ZM296.088 717.122C288.818 710.734 289.118 708.893 296.671 712.857C305.557 717.403 314.8 715.938 333.136 706.92C342.53 702.355 355.305 699.875 369.771 699.875C379.521 699.875 382.02 699.142 389.14 694.295C402.047 685.409 412.774 685.484 430.378 694.521C440.654 699.8 446.309 701.622 452.321 701.622C462.598 701.622 477.928 697.602 488.862 692.097C504.361 684.245 537.013 682.403 537.013 689.373C537.013 691.496 533.406 692.229 519.541 692.961C504.06 693.844 500.397 694.727 487.246 700.814C473.306 707.202 471.408 707.653 455.853 707.653C439.997 707.728 438.607 707.427 425.681 700.965C409.393 692.83 403.512 692.961 390.098 702.073C382.02 707.502 380.179 708.01 372.176 707.277C360.885 706.187 343.939 709.476 333.587 714.698C326.166 718.437 325.359 718.587 323.668 715.863C322.653 714.247 321.188 713.514 320.455 714.247C319.703 714.905 320.004 716.596 321.188 717.93C322.803 719.902 322.127 720.559 317.731 721.442C307.022 723.565 302.401 722.702 296.088 717.122ZM441.819 770.683C437.498 769.518 430.077 766.437 425.324 763.863C412.699 757.044 403.587 757.476 390.681 765.479C381.87 770.908 379.672 771.567 375.05 770.251C367.629 768.11 366.746 764.371 373.66 764.371C376.947 764.371 382.828 761.872 388.84 757.852C402.648 748.74 413.507 748.74 429.795 757.927C440.429 763.864 442.42 764.371 455.102 764.371C465.904 764.296 471.183 763.356 479.393 759.899C498.631 751.746 503.76 750.206 515.295 749.266C529.085 748.008 541.052 750.431 555.725 757.175C561.736 760.05 569.232 762.83 572.389 763.488C578.175 764.747 580.016 768.485 575.545 770.251C572.389 771.416 561.661 768.485 552.719 763.938C531.865 753.286 510.805 753.437 488.354 764.221C480.727 767.978 459.798 773.107 453.204 772.956C451.288 772.881 446.159 771.867 441.819 770.683ZM852.202 766.212C852.202 764.089 859.097 760.275 860.431 761.59C861.896 763.055 857.35 767.903 854.626 767.903C853.311 767.903 852.202 767.095 852.202 766.212ZM848.689 760.05C848.689 758.584 849.497 757.401 850.436 757.401C851.395 757.401 852.202 758.584 852.202 760.05C852.202 761.44 851.395 762.624 850.436 762.624C849.497 762.624 848.689 761.44 848.689 760.05ZM840.385 757.119C841.268 754.545 845.232 753.08 845.232 755.353C845.232 756.311 843.992 757.551 842.452 758.133C840.761 758.791 839.953 758.434 840.385 757.119ZM454.97 811.338C421.21 809.441 378.488 799.747 351.716 787.93C344.296 784.623 342.323 782.951 342.248 779.795C342.248 775.963 342.098 775.906 339.824 778.912C337.476 781.993 336.593 781.767 321.695 774.065C236.195 729.878 172.864 648.718 151.147 555.741C144.458 526.903 141.096 484.989 145.417 484.989C147.032 484.914 146.957 484.482 145.266 483.449C143.294 482.209 143.068 478.019 143.951 462.464C151.504 334.618 234.956 222.272 358.086 174.271C403.005 156.743 456.36 149.022 503.835 153.211C552.794 157.476 599.029 170.307 588.677 176.77C587.794 177.277 578.551 175.305 568.124 172.374C430.754 133.391 282.28 188.587 203.901 307.772C197.814 317.015 192.534 323.252 191.144 322.952C189.81 322.726 188.721 323.327 188.721 324.267C188.721 325.3 189.453 326.108 190.336 326.108C191.219 326.108 187.762 334.919 182.558 345.778C153.345 406.61 144.834 467.461 155.768 536.146C158.624 554.2 158.925 558.972 157.159 561.095C155.317 563.293 155.468 563.876 158.267 564.684C160.765 565.36 163.114 570.264 167.36 583.34C199.805 684.019 288.442 766.137 394.795 794.017C446.084 807.449 507.367 807.825 556.965 794.975C563.127 793.359 569.589 792.401 571.355 792.927C573.121 793.359 575.169 792.777 575.902 791.593C576.635 790.428 583.473 787.272 591.176 784.548C633.446 769.725 684.228 736.265 715.771 702.43C746.375 669.553 765.838 639.324 781.394 600.36C795.841 564.101 796.499 568.216 771.7 543.342C759.808 531.45 749.531 521.68 748.799 521.68C748.066 521.68 747.408 522.939 747.408 524.404C747.408 525.945 746.45 526.903 745.285 526.452C741.829 525.363 741.246 500.695 744.628 500.695C746.018 500.695 747.484 501.729 747.991 502.893C748.442 504.152 757.91 496.074 770.742 483.299C791.295 462.971 798.265 458.275 792.91 468.269C791.671 470.618 781.319 481.758 769.859 493.068L749.024 513.621L771.343 535.921C783.592 548.245 794.075 557.714 794.676 556.981C796.142 555.29 799.223 540.035 801.721 521.981C804.803 499.737 802.811 443.17 798.115 421.302C775.814 317.165 707.561 232.098 611.203 188.437C598.296 182.631 594.539 180.077 594.539 177.428C594.539 173.031 598.503 173.914 617.665 182.857C749.174 244.366 827.253 382.394 809.499 521.68C795.184 634.252 728.396 726.872 623.978 778.987C591.176 795.426 541.935 808.783 507.517 810.756C498.781 811.188 488.505 811.864 484.616 812.146C480.802 812.372 467.444 812.071 454.97 811.338ZM473.607 872.246C470.45 869.09 471.108 862.495 474.922 860.448C479.468 858.024 483.582 859.922 484.841 864.994C486.663 872.321 478.811 877.469 473.607 872.246ZM461.94 855.375C453.636 851.636 443.66 840.909 443.36 835.48C442.777 823.606 447.117 817.801 456.585 817.801C467.52 817.801 474.997 828.228 475.579 844.065C476.03 857.066 472.348 860.072 461.94 855.375ZM466.411 843.126C463.255 837.02 459.291 833.582 459.291 836.964C459.291 840.252 467.952 852.369 469.342 850.979C469.718 850.603 468.403 847.015 466.411 843.126ZM483.225 855.525C474.696 846.132 485.348 819.999 498.631 817.5C511.988 814.945 518.808 832.774 508.982 844.441C500.096 855.074 487.622 860.372 483.225 855.525ZM497.748 838.561C497.748 833.808 494.366 835.855 490.778 842.9C488.862 846.639 487.246 850.378 487.321 851.185C487.396 853.684 497.748 841.21 497.748 838.561ZM206.117 575.111C206.117 573.194 209.048 572.461 217.916 572.105L229.733 571.523L230.259 560.664L230.766 549.711H218.799C206.925 549.711 206.925 549.71 198.697 558.089C192.891 563.876 190.486 567.84 190.486 571.146C190.486 574.228 189.528 575.918 187.838 575.918C185.921 575.918 185.189 574.002 185.189 569.306C185.189 563.594 186.523 561.396 195.39 552.585C205.591 542.534 205.591 542.534 220.715 543.699L235.838 544.958V577.685H221.015C209.198 577.685 206.174 577.102 206.174 575.111H206.117ZM722.384 576.501C721.727 575.843 721.219 568.498 721.219 560.137V545.014L736.399 543.849C751.598 542.665 751.598 542.666 762.607 553.619C771.7 562.561 773.616 565.492 773.616 570.188C773.616 573.946 772.808 575.918 771.193 575.918C768.544 575.918 766.646 572.255 766.646 567.258C766.646 565.567 763.114 560.87 758.793 556.906C751.222 549.936 750.715 549.711 738.673 549.711H726.273L726.856 560.664L727.381 571.598L739.198 572.105C748.066 572.461 750.94 573.194 750.94 575.186C750.94 577.158 748.066 577.685 737.282 577.685C729.73 577.685 723.042 577.158 722.459 576.501H722.384ZM174.705 568.441C174.705 561.453 175.589 560.137 188.27 547.513C201.703 534.155 201.928 534.024 210.946 534.024H220.132V492.26L211.829 493.143C203.544 494.026 203.544 494.026 189.078 479.936C175.288 466.428 174.705 465.47 174.705 457.993C174.705 452.263 175.363 450.215 177.336 450.215C179.177 450.215 179.91 452.112 179.91 456.809C179.91 462.614 181.3 464.737 191.727 475.088C203.393 486.53 203.619 486.68 213.97 487.188L224.454 487.789L224.961 513.546L225.412 539.302H214.402C203.393 539.302 203.393 539.303 191.651 551.12C181.375 561.453 179.91 563.744 179.91 569.456C179.91 574.077 179.177 575.918 177.336 575.918C175.438 575.918 174.705 573.946 174.705 568.498V568.441ZM777.129 569.306C777.129 563.519 775.739 561.396 765.237 550.969C753.42 539.227 753.42 539.227 742.561 539.227H731.627L732.078 513.47L732.585 487.789L743.087 487.188C753.42 486.68 753.646 486.53 765.312 475.013C775.739 464.737 777.129 462.614 777.129 456.809C777.129 452.112 777.862 450.215 779.703 450.215C781.676 450.215 782.334 452.338 782.334 458.801C782.334 467.311 782.202 467.518 769.126 479.335C757.103 490.137 755.036 491.302 746.826 492.11L737.79 492.993L737.357 513.47L736.85 534.024H746.093C755.186 534.08 755.487 534.306 768.844 547.156C781.751 559.63 782.334 560.588 782.334 568.065C782.334 573.871 781.676 575.918 779.778 575.918C777.862 575.918 777.129 574.002 777.129 569.306ZM206.117 560.212C206.117 553.242 206.118 553.242 215.718 553.242C225.337 553.242 225.337 553.242 225.337 560.212C225.337 567.182 225.337 567.182 215.718 567.182C206.118 567.182 206.117 567.182 206.117 560.212ZM220.132 560.212C220.132 559.254 218.141 558.447 215.718 558.447C213.294 558.447 211.396 559.254 211.396 560.212C211.396 561.171 213.294 561.978 215.718 561.978C218.141 561.978 220.132 561.171 220.132 560.212ZM731.703 560.212C731.703 553.242 731.702 553.242 741.321 553.242C750.94 553.242 750.94 553.242 750.94 560.212C750.94 567.182 750.94 567.182 741.321 567.182C731.702 567.182 731.703 567.182 731.703 560.212ZM745.643 560.212C745.643 559.254 743.745 558.447 741.321 558.447C738.898 558.447 736.907 559.254 736.907 560.212C736.907 561.171 738.898 561.978 741.321 561.978C743.745 561.978 745.643 561.171 745.643 560.212ZM164.204 561.095C164.204 558.972 173.015 548.846 186.447 535.338L208.673 513.02L185.564 489.911C165.011 469.283 159.582 462.389 163.771 462.389C164.504 462.389 175.062 472.44 187.33 484.708C201.12 498.422 209.631 505.768 209.631 503.851C209.631 502.236 210.814 500.845 212.355 500.845C214.553 500.845 214.91 503.044 214.478 513.395C214.177 521.474 213.219 526.17 211.829 526.602C210.589 527.035 209.631 526.096 209.631 524.555C209.631 523.015 209.048 521.831 208.315 521.831C207.658 521.831 197.456 531.449 185.639 543.191C170.366 558.371 164.204 563.519 164.204 561.095ZM282.938 561.528C282.938 560.288 283.745 556.549 284.703 553.242C286.394 547.437 286.094 546.855 279.932 541.576L273.337 536.071L282.28 534.832C290.791 533.648 291.392 533.272 293.514 526.753C296.671 517.284 297.76 517.209 301.142 525.945C303.941 533.272 304.373 533.648 313.109 534.756L322.127 535.996L315.383 541.651C308.563 547.362 308.563 547.363 310.536 555.084C311.569 559.255 312.151 563.012 311.794 563.369C311.418 563.744 308.262 561.978 304.599 559.555C301.067 557.131 297.253 555.591 296.22 556.173C295.13 556.756 292.199 558.747 289.701 560.513C284.196 564.252 282.938 564.477 282.938 561.528ZM644.963 560.664C648.476 547.738 648.42 547.362 641.656 541.651L635.137 536.146L643.855 534.963C652.234 533.798 652.741 533.422 655.972 525.569L659.41 517.435L662.792 525.644C666.023 533.497 666.53 533.873 674.834 534.963L683.495 536.222L677.258 541.933C671.302 547.362 671.02 548.17 672.486 554.407C674.759 564.327 674.684 564.402 666.681 559.706C659.279 555.366 659.279 555.365 653.173 559.555C645.996 564.477 643.854 564.759 645.038 560.664H644.963ZM162.438 513.02C162.438 470.242 160.691 471.35 186.804 498.122L201.477 513.245L186.804 528.143C160.54 554.633 162.438 555.816 162.438 513.02ZM187.387 519.632C190.036 517.209 192.159 514.56 192.159 513.696C192.159 512.813 186.654 506.651 179.91 499.963L167.735 487.864V496.45C167.735 502.819 168.675 505.975 171.549 508.999C175.288 513.02 175.288 513.02 171.549 517.134C168.675 520.14 167.735 523.296 167.735 529.684V538.194L175.138 531.074C179.252 527.11 184.757 521.981 187.387 519.632ZM171.174 525.795C171.174 524.179 173.297 520.666 175.87 517.942C180.567 513.02 180.567 513.02 175.87 508.192C171.474 503.551 169.558 497.314 172.564 497.314C175.063 497.314 186.955 510.464 186.955 513.245C186.955 515.819 174.856 528.801 172.432 528.801C171.756 528.801 171.174 527.41 171.174 525.795ZM775.814 532.99C765.97 523.822 757.91 515.293 757.91 514.203C757.91 513.019 766.12 503.926 776.247 493.875L794.601 475.596V512.662C794.601 533.065 794.376 549.711 794.151 549.711C793.944 549.711 785.64 542.158 775.814 532.99ZM785.49 517.059C781.469 512.738 781.469 512.738 785.433 509.582C788.57 507.008 789.322 504.66 789.322 497.107V487.789L764.072 513.02L776.247 525.363L788.439 537.612L789.022 529.458C789.454 522.939 788.721 520.516 785.49 517.059ZM779.046 524.329C768.994 515.894 768.844 513.696 777.28 505.035C782.277 499.963 785.433 497.915 786.523 499.08C787.707 500.263 786.298 502.893 782.334 506.933L776.397 513.02L782.334 519.182C790.13 527.185 787.406 531.374 779.046 524.329ZM230.541 513.02C230.541 490.945 230.991 486.906 233.189 486.906C235.388 486.906 235.838 490.945 235.838 513.02C235.838 535.188 235.388 539.227 233.189 539.227C230.991 539.227 230.541 535.188 230.541 513.02ZM721.651 513.621C722.027 495.041 722.685 487.864 724.3 487.263C725.972 486.755 726.498 492.617 726.498 512.888C726.498 535.339 726.123 539.227 723.774 539.227C721.501 539.227 721.219 535.621 721.651 513.621ZM61.8332 506.651C62.4156 503.927 63.3739 498.196 63.8811 493.875C64.8393 486.173 64.6889 485.872 56.9111 480.142C52.5901 476.911 48.9831 473.624 48.9831 472.816C48.9831 472.008 53.9053 471.125 59.9171 470.824C71.7341 470.242 72.6922 469.283 78.7792 452.92C80.7706 447.566 80.7705 447.566 86.0497 459.383C91.404 471.124 91.404 471.124 102.488 471.124C108.726 471.124 113.573 471.933 113.573 472.891C113.573 473.83 112.99 474.638 112.239 474.713C111.581 474.788 107.693 477.794 103.653 481.401C96.3264 488.071 96.3261 488.07 98.7496 498.347C100.14 504.077 101.249 509.281 101.305 510.014C101.305 510.671 97.0587 508.548 91.8547 505.167C86.6319 501.804 81.8602 499.08 81.2778 499.08C80.6954 499.08 75.8483 501.879 70.494 505.317C60.7247 511.554 60.7248 511.554 61.8332 506.651ZM852.785 508.398C858.515 489.329 858.439 488.728 850.229 481.552C846.04 477.794 842.001 474.788 841.268 474.713C840.536 474.638 839.953 473.905 839.953 472.966C839.953 472.083 845.232 471.049 851.77 470.824C863.512 470.242 863.512 470.241 867.908 459.383C870.332 453.371 872.68 448.524 873.263 448.449C873.789 448.449 875.611 452.413 877.377 457.26C881.848 469.735 883.764 471.124 896.389 471.2L907.173 471.275L897.704 479.635C888.311 488.07 888.311 488.07 891.11 499.23C892.65 505.317 893.741 510.54 893.515 510.671C893.308 510.897 888.686 508.248 883.107 504.885C872.981 498.723 872.981 498.723 866.518 502.969C862.986 505.317 858.233 508.248 855.941 509.431C852.278 511.404 851.977 511.272 852.785 508.398ZM332.704 505.975C294.322 504.81 248.088 501.503 246.472 499.812C245.082 498.422 248.67 496.299 257.631 493.068C262.478 491.377 281.547 483.167 300.052 474.863C329.473 461.731 335.334 458.425 346.287 448.806C356.113 440.145 361.035 437.139 369.095 434.941C378.282 432.367 380.554 430.751 390.098 419.893C409.242 398.024 433.459 372.719 443.303 364.058C452.828 355.604 452.979 355.603 462.222 356.712C472.874 358.102 472.498 358.628 474.114 342.265C475.222 331.181 475.222 331.18 469.492 331.763C464.063 332.27 463.631 331.989 463.105 326.409C462.598 320.679 462.673 320.528 467.952 321.561C473.099 322.595 473.306 322.444 473.306 316.564C473.306 310.984 473.757 310.477 478.529 310.477C483.357 310.477 483.808 310.984 483.808 316.564C483.808 322.444 483.958 322.595 489.162 321.561C494.366 320.528 494.517 320.679 493.934 326.409C493.427 331.763 492.901 332.27 488.58 331.763C483.883 331.255 483.808 331.312 483.808 340.781C483.808 353.33 484.766 355.604 489.82 354.589C492.243 354.138 497.015 355.603 501.637 358.327C505.902 360.826 510.955 362.874 512.946 362.874C515.426 362.874 519.842 367.871 528.127 380.271C544.415 404.487 554.334 412.415 573.929 417.187C585.878 420.118 590.218 422.617 604.665 434.715C621.554 448.956 623.095 449.839 671.903 474.713C695.237 486.53 714.231 496.731 714.231 497.389C714.231 498.046 700.084 499.08 682.762 499.737C665.441 500.395 643.272 501.654 633.446 502.612C580.242 507.59 436.54 509.281 332.704 505.975ZM377.098 498.272C381.795 495.923 387.882 491.227 390.606 487.92C393.837 484.031 399.191 480.593 405.654 478.17C411.159 476.122 419.669 471.275 424.516 467.386C429.419 463.573 433.685 460.622 433.966 460.998C439.189 466.202 445.351 476.047 445.351 479.053C445.351 481.176 443.886 484.764 442.045 487.056C440.279 489.405 438.231 493.8 437.573 496.881C436.314 502.611 436.314 502.612 467.444 502.537C498.631 502.537 498.631 502.537 490.778 497.99C486.438 495.492 479.769 492.035 475.88 490.344C472.066 488.597 464.871 483.599 459.874 479.128C452.471 472.515 450.705 469.866 450.273 464.587C449.747 458.575 448.939 457.692 439.846 453.296C430.378 448.674 429.269 448.524 414.822 449.989C399.548 451.53 393.837 454.386 389.347 462.614C387.957 465.169 388.483 465.244 394.344 463.196C397.876 461.881 403.005 460.848 405.579 460.773C408.209 460.698 414.315 459.233 419.143 457.391C423.915 455.569 427.879 454.761 427.879 455.644C427.879 456.527 427.672 457.185 427.447 457.185C427.146 457.185 422.675 458.8 417.396 460.698C412.098 462.614 406.161 464.23 404.189 464.23C400.657 464.23 378.789 471.632 367.629 476.554C360.509 479.71 349.575 486.68 343.131 492.034C340.256 494.533 335.935 497.84 333.512 499.456C329.322 502.311 329.849 502.462 348.917 502.537C366.54 502.612 369.546 502.161 377.098 498.272ZM434.999 496.299C435.582 493.294 437.348 489.028 438.964 486.755C442.571 481.608 442.627 476.554 439.264 471.632C436.615 467.968 436.54 467.969 426.564 477.513C421.059 482.867 413.432 488.728 409.543 490.719C405.729 492.692 401.089 495.567 399.266 497.107C396.11 499.813 396.11 499.812 398.384 496.074C399.623 493.951 402.705 491.377 405.128 490.344C409.618 488.521 429.645 470.824 429.645 468.776C429.645 468.119 425.531 470.317 420.477 473.624C415.404 476.911 408.002 480.593 404.038 481.758C398.609 483.299 396.11 485.215 394.645 488.803C393.461 491.602 389.948 495.491 386.642 497.464C383.41 499.455 380.762 501.503 380.762 501.879C380.762 502.311 392.728 502.461 407.345 502.161C433.91 501.653 433.91 501.653 434.999 496.224V496.299ZM525.703 493.425C525.196 488.371 523.355 482.284 521.664 479.936C519.767 477.137 518.658 472.289 518.658 466.052C518.658 460.773 518 457.26 517.193 458.124C515.07 460.623 511.688 473.473 511.688 479.41C511.688 482.359 510.523 487.488 509.058 490.945C504.643 501.654 505.225 502.612 516.61 502.612C526.736 502.612 526.736 502.612 525.703 493.425ZM582.214 501.578C585.07 500.47 573.553 488.803 555.217 474.206C547.064 467.668 546.331 467.461 547.496 471.275C550.295 480.218 551.535 482.641 555.292 485.947C557.415 487.864 559.914 491.001 560.854 492.993C561.812 494.909 559.106 492.918 554.842 488.597C545.899 479.335 539.718 464.813 538.328 449.332C537.595 441.103 536.28 437.59 532.391 433.1C529.667 429.944 527.469 426.055 527.469 424.383C527.544 421.809 527.845 421.884 529.517 424.89C530.55 426.806 533.706 430.902 536.43 434.058C539.718 437.872 541.409 441.761 541.409 445.593C541.409 456.001 544.715 461.882 555.067 469.66C560.496 473.774 570.247 482.416 576.785 488.953C588.602 500.846 588.602 500.845 598.953 500.845C604.608 500.845 609.662 500.188 610.17 499.38C610.62 498.572 606.807 493.725 601.509 488.653C596.305 483.599 592.058 478.395 592.058 477.136C592.058 475.821 588.903 472.289 585.145 469.283C581.332 466.202 577.818 462.614 577.292 461.149C576.71 459.74 578.701 460.623 581.707 463.121C584.638 465.62 587.719 467.668 588.602 467.668C589.41 467.668 592.115 471.05 594.614 475.239C597.037 479.485 603.801 486.605 609.587 491.152L620.164 499.456L646.278 497.258L672.336 495.04L665.798 489.179C662.209 485.947 657.005 482.058 654.281 480.593C651.576 479.128 649.735 477.437 650.242 476.911C650.768 476.404 654.582 478.019 658.678 480.443C679.963 493.068 686.501 495.773 694.204 495.266C701.681 494.683 701.023 494.308 660.819 473.774C636.076 461.149 616.125 449.764 610.695 445.142C592.716 429.887 584.055 424.232 575.47 422.11C570.623 420.926 565.193 419.235 563.277 418.202C561.38 417.262 564.31 421.508 569.74 427.595C580.599 439.788 581.482 442.493 572.313 435.523C564.686 429.737 563.277 429.812 566.959 435.749C573.121 445.724 578.776 450.139 589.917 453.878C599.235 456.959 603.65 459.89 614.584 470.242C621.836 477.211 630.215 484.106 633.221 485.647C638.068 488.146 645.846 495.341 641.807 493.65C631.981 489.536 621.404 482.415 617.44 477.287C610.62 468.269 600.494 461.431 587.719 457.185C574.437 452.77 569.815 448.449 560.647 432.01C554.485 421.001 523.279 385.625 521.382 387.542C521.006 387.899 521.608 392.012 522.622 396.634C524.087 402.947 526.079 406.253 530.475 409.616C533.706 412.04 537.52 416.811 538.91 420.193C540.319 423.575 543.025 427.464 544.941 428.779C548.905 431.503 556.232 444.917 553.884 444.917C553.001 444.917 551.329 442.493 550.07 439.562C548.83 436.632 545.956 432.968 543.607 431.503C541.334 429.944 538.178 426.28 536.712 423.274C535.172 420.343 530.926 415.064 527.169 411.607C523.28 408.019 520.424 403.679 520.424 401.481C520.424 399.415 519.259 394.793 517.775 391.355C515.727 386.433 514.619 385.475 513.078 387.015C510.072 389.965 506.766 389.589 501.712 385.55C498.33 382.92 496.639 382.544 494.967 384.009C493.051 385.55 493.558 387.748 497.673 395.977C500.472 401.481 504.943 408.601 507.517 411.682C510.147 414.839 512.871 420.625 513.529 424.589C514.187 428.553 515.295 433.401 515.952 435.317C517.192 438.755 517.192 438.755 514.487 435.448C513.022 433.626 511.256 429.286 510.673 425.848C510.072 422.391 507.292 416.661 504.418 413.073C501.637 409.484 498.18 403.98 496.865 400.824C494.366 395.169 494.366 395.169 494.291 400.598C494.291 403.604 495.4 408.883 496.865 412.34C500.604 421.226 500.096 427.464 495.174 434.64C492.826 438.172 490.402 443.245 489.745 446.025C488.355 451.755 481.084 462.163 477.42 463.572C474.49 464.737 464.57 473.774 464.57 475.371C464.57 477.061 473.888 484.989 476.03 484.989C479.393 485.14 492.619 474.281 495.174 469.208C496.64 466.428 500.979 462.539 504.868 460.548C509.49 458.199 512.796 454.986 514.187 451.379C519.466 438.172 519.259 438.322 520.574 447.566C521.307 452.337 521.964 460.548 522.04 465.846C522.115 472.29 523.355 477.212 525.703 480.744C527.695 483.75 529.16 488.878 529.16 493.068C529.16 497.032 529.667 500.77 530.325 501.353C531.809 502.818 578.476 502.893 582.214 501.503V501.578ZM637.41 468.551C636.227 467.085 631.305 464.737 626.476 463.347C620.014 461.43 614.509 457.767 605.999 449.764C599.536 443.752 591.683 437.29 588.452 435.392C585.295 433.401 582.289 430.695 581.857 429.211C581.331 427.464 582.44 427.82 585.22 430.319C587.494 432.367 592.416 435.448 596.079 437.139C599.686 438.83 605.923 444.034 609.812 448.674C614.284 453.954 619.206 457.767 623.245 459.007C632.789 461.881 637.486 464.587 639.383 468.043C641.375 471.857 640.416 472.083 637.41 468.551ZM319.572 496.506C324.269 494.101 328.59 491.377 329.172 490.419C329.774 489.536 335.485 485.948 341.947 482.491C355.887 475.089 361.11 470.749 366.539 462.032C371.161 454.461 368.587 452.995 361.035 458.932C358.611 460.848 355.455 462.032 354.065 461.431C352.656 460.923 348.993 462.689 345.836 465.319C340.707 469.584 340.256 469.734 342.098 466.277C343.262 464.23 346.719 461.224 349.8 459.608C352.881 458.068 359.344 453.803 364.191 450.14C372.551 443.827 386.209 438.548 389.29 440.52C392.146 442.286 406.086 436.2 415.405 429.155C420.552 425.247 425.099 422.316 425.456 422.767C426.489 423.782 415.555 439.713 413.714 439.713C412.906 439.713 412.173 440.445 412.173 441.253C412.173 442.211 414.897 442.211 418.711 441.403C424.065 440.145 425.907 440.521 428.837 443.301C432.501 446.758 432.501 446.683 435.957 442.794C440.88 437.214 449.898 418.953 451.288 411.758C452.471 405.671 452.471 405.671 445.276 413.505C438.888 420.494 438.381 420.776 440.729 415.928C442.27 412.923 447.775 406.028 453.129 400.598C464.439 389.007 465.603 385.193 457.168 386.809C448.056 388.556 432.425 401.838 423.558 415.271C418.786 422.617 407.27 433.776 410.05 428.403C411.084 426.43 414.315 422.617 417.246 419.761C420.252 416.962 422.675 413.656 422.675 412.566C422.675 411.382 428.255 404.713 435.15 397.818C441.969 390.904 446.008 386.076 444.111 387.09C442.119 388.124 440.072 388.424 439.414 387.748C438.08 386.433 406.086 418.878 396.993 430.695C393.762 434.941 391.188 437.064 391.188 435.523C391.188 433.983 392.729 431.202 394.645 429.361C396.467 427.464 399.266 423.575 400.732 420.7C402.272 417.77 404.922 414.613 406.669 413.73C408.36 412.772 415.78 404.994 423.107 396.409C436.916 380.346 438.231 379.538 456.868 376.006C463.988 374.616 466.843 378.28 466.712 388.274C466.561 398.4 468.684 399.415 473.682 391.787C477.495 385.926 482.418 382.77 486.589 383.578C487.622 383.784 489.538 382.695 490.703 381.304C493.784 377.547 499.439 377.998 503.985 382.243C507.874 385.926 507.874 385.926 509.058 382.243C510.448 377.922 514.694 377.547 520.067 381.379C525.271 384.968 524.895 383.352 518.583 374.108C514.919 368.754 512.064 366.406 509.265 366.406C506.991 366.406 503.253 364.94 500.979 363.099C493.277 357.012 488.862 357.595 475.73 366.18C467.877 371.384 463.03 373.225 455.177 374.108C444.975 375.198 444.975 375.198 448.582 369.036C450.555 365.673 451.588 362.874 450.78 362.874C449.973 362.874 437.723 375.273 423.483 390.397C409.318 405.52 393.837 422.034 389.065 427.013C382.377 433.983 378.357 436.707 371.011 438.83C364.323 440.746 357.879 444.71 348.917 452.262C336.217 462.896 315.965 473.548 278.034 489.611C264.526 495.266 262.403 496.656 265.766 497.614C278.184 501.071 293.514 498.197 313.109 488.597C316.698 486.906 319.647 486.098 319.647 486.981C319.647 487.789 314.5 490.87 308.262 493.875C302.025 496.806 296.971 499.662 296.971 500.038C296.971 502.611 312.226 500.263 319.572 496.506ZM322.202 479.936C323.893 478.095 330.506 474.863 336.893 472.74C343.187 470.674 349.8 467.743 351.491 466.277C353.182 464.812 354.572 464.436 354.572 465.395C354.572 468.269 351.115 470.317 337.551 475.446C330.581 478.019 324.476 480.875 323.893 481.758C323.386 482.641 322.052 483.374 321.037 483.374C319.929 483.374 320.455 481.833 322.202 479.936ZM506.183 491.678C509.415 481.326 510.373 472.891 508.175 472.891C507.216 472.891 505.601 474.863 504.718 477.287C502.877 482.134 501.205 483.017 501.205 479.053C501.205 477.663 503.684 473.698 506.709 470.317C509.715 466.86 511.688 463.629 511.181 463.046C508.757 460.698 500.172 465.695 497.673 470.974C496.132 474.055 491.661 478.527 487.622 480.95C479.618 485.722 478.661 487.563 483.282 489.405C484.973 490.062 489.895 492.486 494.235 494.759C498.556 497.032 502.52 499.004 502.952 499.004C503.478 499.08 504.943 495.773 506.183 491.678ZM374.242 469.66C384.519 464.888 400.225 449.839 397.576 447.265C397.068 446.758 392.879 446.833 388.332 447.49C382.02 448.449 378.638 450.215 374.674 454.536C369.32 460.341 360.584 474.638 362.425 474.638C362.932 474.638 368.211 472.365 374.242 469.66ZM486.307 446.326C487.697 441.686 490.477 435.824 492.394 433.325C496.057 428.628 497.372 417.037 494.235 417.037C493.276 417.037 492.469 418.653 492.469 420.7C492.469 424.965 481.892 436.256 477.853 436.256C476.387 436.256 473.964 438.473 472.498 441.253C471.108 444.034 467.952 446.833 465.528 447.415C463.105 447.998 459.949 450.797 458.483 453.653C454.82 460.698 455.101 461.149 460.982 458.124C468.252 454.31 468.609 454.611 467.369 462.539L466.186 469.735L474.997 462.313C481.741 456.583 484.39 452.92 486.307 446.382V446.326ZM463.33 446.176C465.754 444.917 469.793 441.479 472.291 438.473C474.846 435.392 478.454 432.442 480.276 431.86C486.664 429.887 490.778 420.269 490.703 407.212C490.703 385.475 486.739 381.811 476.763 394.361C473.757 398.175 470.3 401.331 469.135 401.331C467.876 401.331 465.247 404.337 463.18 407.944C461.132 411.608 457.901 416.003 455.91 417.769C454.012 419.535 452.828 421.733 453.429 422.616C453.937 423.499 452.321 426.862 449.898 430.094C443.51 438.473 444.243 439.713 451.513 432.743C454.895 429.436 457.243 425.773 456.792 424.589C456.36 423.349 456.586 422.034 457.318 421.583C459.873 419.968 460.832 436.124 458.633 443.677C457.018 449.181 457.318 449.332 463.33 446.176ZM460.249 408.677C459.066 407.493 454.087 411.833 454.087 414.031C454.087 415.064 455.628 414.388 457.6 412.641C459.517 410.95 460.681 409.109 460.249 408.677ZM463.18 369.919C465.754 369.919 470.075 367.947 472.724 365.598C477.646 361.259 477.646 361.258 468.459 361.183C463.481 361.183 458.784 361.108 458.201 361.052C457.6 360.902 455.477 363.4 453.504 366.538C449.897 372.268 449.897 372.268 454.162 371.103C456.51 370.445 460.55 369.919 463.18 369.919ZM480.276 341.006C480.276 328.024 480.276 328.024 485.931 327.723L491.586 327.423L485.931 326.765C480.727 326.108 480.276 325.525 480.276 319.72C480.276 316.282 479.769 313.934 479.261 314.516C477.646 316.057 477.27 355.829 478.886 354.871C479.619 354.364 480.276 348.126 480.276 341.006ZM473.306 327.292C473.306 326.916 472.141 326.183 470.676 325.6C469.192 325.074 468.027 325.375 468.027 326.333C468.027 327.216 469.192 328.024 470.676 328.024C472.141 328.024 473.306 327.649 473.306 327.292ZM438.381 924.868C350.308 917.165 264.601 882.391 194.808 826.03C171.624 807.299 168.318 803.711 171.174 800.254C173.09 797.906 174.912 798.863 184.982 807.75C289.325 899.487 429.42 937.343 563.803 910.12C576.71 907.471 584.713 906.607 585.821 907.622C588.226 910.045 590.293 909.688 590.293 906.814C590.293 905.123 595.572 902.643 605.548 899.618C698.018 871.438 782.859 809.29 839.07 728.713C845.608 719.319 852.784 710.884 855.076 709.851C859.473 707.803 860.281 705.887 857.35 704.121C856.241 703.388 856.824 700.965 858.965 697.452C866.443 685.259 881.848 652.382 888.536 634.252C901.443 599.477 907.831 574.378 913.561 536.503C917.149 512.738 916.642 438.905 912.678 413.881C893.083 288.834 826.089 182.857 722.084 112.256C712.484 105.736 704.405 99.274 704.029 97.9589C703.748 96.625 702.564 95.7417 701.474 95.9672C700.29 96.2678 687.008 90.3122 671.903 82.835C551.46 23.2426 412.042 21.5518 290.791 78.2133C164.504 137.204 70.6443 257.855 44.5867 394.793C17.9468 534.606 61.6831 682.986 158.624 782.2C168.6 792.345 169.783 794.242 167.735 796.665C165.669 799.164 164.128 798.282 154.153 788.456C98.5242 733.767 54.788 649.958 37.7669 565.36C25.6493 504.885 27.1901 430.47 41.9379 371.384C49.5842 340.649 54.2055 327.949 57.3618 328.964C59.635 329.715 59.7854 329.565 57.9443 328.231C55.0135 326.108 56.4788 321.186 67.5631 295.88C118.776 178.668 226.952 83.1923 348.41 47.9103C396.26 34.0268 423.558 30.2879 477.646 30.2127C522.998 30.2127 538.985 31.8288 574.587 39.9072C687.384 65.7393 785.358 133.259 850.662 230.407C872.906 263.51 899.02 320.322 907.023 353.199C908.639 359.868 911.137 368.886 912.527 373.225C923.236 407.267 927.501 486.906 921.188 535.696C905.407 657.153 843.11 763.206 743.952 837.546C656.404 903.15 547.364 934.337 438.381 924.868ZM448.432 912.845C437.066 903.883 443.961 885.904 461.79 877.75C467.952 874.97 468.985 874.894 472.724 877.393C480.069 882.165 476.913 900.802 467.144 910.571C460.55 917.166 454.82 917.898 448.432 912.845ZM464.288 894.715C467.219 891.258 471.766 879.591 470.225 879.591C468.76 879.591 461.865 889.436 460.099 893.983C458.709 897.571 461.489 898.078 464.288 894.715ZM491.661 912.469C480.802 903.958 476.387 882.241 484.466 876.886C488.43 874.388 489.237 874.388 495.4 877.619C509.264 884.739 516.76 896.763 513.454 906.664C510.298 916.132 499.871 918.931 491.661 912.469ZM497.748 896.105C497.748 893.681 492.469 885.397 489.012 882.241C485.198 878.784 485.198 878.784 487.472 883.988C490.778 891.634 494.441 897.064 496.207 897.064C497.015 897.064 497.748 896.612 497.748 896.105ZM676.732 909.312C677.333 908.354 678.498 907.546 679.456 907.546C680.339 907.546 681.071 908.354 681.071 909.312C681.071 910.27 679.813 911.003 678.348 911.003C676.882 911.003 676.074 910.27 676.732 909.312ZM411.083 891.991C408.077 890.168 405.053 887.82 404.395 886.787C401.239 881.639 427.954 882.165 435.882 887.369C440.504 890.375 440.579 890.676 437.423 892.949C432.576 896.481 417.527 895.955 411.083 891.991ZM519.917 893.381C515.22 890.676 519.034 887.087 529.817 883.988C539.136 881.357 550.145 882.39 551.385 885.979C553.527 892.366 528.277 898.228 519.917 893.381ZM430.228 879.742C425.324 877.619 420.909 871.081 420.909 866.008C420.909 859.696 429.946 851.637 436.916 851.712C451.156 851.712 466.993 860.654 465.979 868C464.795 875.853 440.072 883.931 430.228 879.742ZM459.009 867.624C460.606 866.61 459.216 865.802 454.669 865.069C446.516 863.735 438.607 865.351 442.12 867.624C445.126 869.54 455.984 869.54 459.009 867.624ZM506.033 878.934C488.129 872.321 485.781 865.201 499.063 857.423C511.031 850.378 525.853 850.378 531.94 857.423C544.058 871.588 526.229 886.411 506.033 878.934ZM515.952 867.549C517.568 864.994 511.538 863.66 503.403 864.919C498.124 865.726 496.358 866.534 497.973 867.549C501.13 869.54 514.694 869.54 515.952 867.549ZM395.227 876.811C392.146 875.271 388.332 872.039 386.792 869.615C383.861 865.2 383.861 865.201 396.035 865.952C406.011 866.46 409.318 867.493 414.597 871.438C418.129 874.162 420.552 877.093 419.951 877.976C418.335 880.625 401.314 879.817 395.227 876.811ZM536.13 877.825C536.13 876.886 539.793 873.73 544.34 870.855C550.803 866.741 554.485 865.651 561.962 865.651C569.89 865.651 571.28 866.084 570.397 868.432C569.815 869.897 569.307 871.438 569.307 871.889C569.307 872.246 566.227 874.162 562.394 876.078C555.067 879.817 536.13 881.132 536.13 877.825Z" fill="#C83E3D"/>
</svg>
