<svg width="961" height="568" viewBox="0 0 961 568" fill="none" xmlns="http://www.w3.org/2000/svg">
<path fill-rule="evenodd" clip-rule="evenodd" d="M301.195 565.963C262.934 562.475 181.603 541.231 185.091 535.64C185.807 534.522 185.449 534.075 184.219 534.857C179.165 538.01 138.198 515.47 108.747 493.286C61.5854 457.731 23.6818 404.978 9.77251 355.357C1.05128 324.34 0.0894485 316.737 0 282.68C0 254.906 0.872188 244.686 4.53958 229.055C16.5033 177.153 49.0851 124.736 91.8862 88.0621C116.171 67.2654 125.518 61.25 128.068 64.649C129.633 66.93 129.812 66.751 128.94 63.8663C125.876 54.5189 193.298 23.3236 242.92 11.2704C283.798 1.3193 303.118 0 410.389 0C510.057 0 510.057 2.86102e-06 510.057 6.21667C510.057 12.5004 510.058 12.5005 415.712 12.5005C296.656 12.5005 271.409 14.8485 220.133 31.1953C167.984 47.788 127.799 71.38 89.8061 107.629C67.0862 129.387 50.5833 152.174 36.0703 181.871C17.0401 220.736 9.16831 259.624 12.4108 299.272C13.2829 310.118 14.155 321.366 14.3339 324.251C14.4905 327.046 15.2956 330.803 15.9888 332.547C16.6821 334.224 19.2089 342.7 21.7582 351.242C39.223 411.709 88.9343 470.656 153.561 507.687C206.335 537.832 263.895 552.345 339.099 554.335C374.387 555.296 381.207 556.012 381.207 558.539C381.207 561.603 383.824 561.513 391.762 558.181C394.312 557.13 395.452 558.181 396.234 562.117C397.196 567.439 397.196 567.439 353.344 567.104C329.237 566.835 305.735 566.388 301.195 565.963ZM102.642 84.9089C102.642 83.7684 101.77 83.4333 100.54 84.1265C99.3997 84.8197 98.5277 86.4073 98.5277 87.5254C98.5277 88.6659 99.3997 89.0235 100.54 88.3303C101.77 87.6147 102.642 86.0494 102.642 84.9089ZM399.455 561.245C398.493 555.051 398.493 555.05 517.124 554.961C584.479 554.961 645.617 553.91 658.632 552.68C745.464 544.294 817.783 511.802 872.727 456.344C916.847 411.866 941.132 362.088 946.544 305.221C953.275 233.416 927.671 166.061 872.637 111.207C818.499 57.0459 750.182 25.6941 664.826 15.564C646.31 13.3725 618.894 12.4111 577.054 12.4111C516.252 12.5006 516.252 12.5004 516.252 6.21667C516.252 1.49827 517.213 0 520.277 0C522.446 0 524.727 1.14044 525.242 2.54926C526.114 4.62893 526.382 4.62893 526.471 2.54926C526.65 0.626112 536.087 0 566.209 0C605.79 0 605.79 -4.95911e-05 610.933 5.67993C616.099 11.4494 616.099 11.4494 614.78 5.67993C613.483 -4.95911e-05 613.482 0 628.331 0C649.195 0 679.607 3.60028 706.845 9.34735C871.43 44.2099 978.857 176.102 958.083 317.967C949.786 374.409 925.144 422.353 882.074 465.691C860.338 487.696 833.951 507.866 831.759 504.378C830.283 502.097 829.322 503.774 829.836 507.531C830.552 512.406 774.02 539.061 741.103 549.46C691.571 565.091 664.312 567.35 530.922 567.35C425.305 567.35 418.597 567.104 418.507 563.772C418.507 560.283 418.328 560.283 416.316 563.772C415.019 566.053 411.687 567.35 407.326 567.35C401.199 567.35 400.237 566.656 399.455 561.245ZM841.554 494.673C842.247 493.465 841.375 492.593 839.541 492.593C837.797 492.593 836.299 493.465 836.299 494.673C836.299 495.813 837.171 496.685 838.311 496.685C839.362 496.685 840.861 495.813 841.554 494.673ZM886.189 114.449C886.189 111.989 882.163 109.373 880.687 110.849C879.189 112.347 881.828 116.35 884.265 116.35C885.317 116.35 886.189 115.478 886.189 114.449ZM603.509 4.11475C603.509 2.97428 602.637 2.10187 601.497 2.10187C600.379 2.10187 599.417 2.97428 599.417 4.11475C599.417 5.25521 600.379 6.21667 601.497 6.21667C602.637 6.21667 603.509 5.25521 603.509 4.11475ZM312.555 544.294C104.655 520.546 -19.6561 362.87 42.4435 201.796C73.7282 120.733 160.56 53.6467 262.934 31.4634C309.223 21.4005 322.328 20.7969 478.416 20.7969C654.182 20.7969 675.582 22.5411 733.5 41.8396C863.044 85.088 942.183 189.832 931.606 304.259C928.028 343.125 917.026 373.962 894.038 408.735C844.528 483.67 754.901 532.42 644.655 544.384C620.46 547 335.789 546.91 312.555 544.294ZM107.271 151.906C113.286 149.893 118.184 147.366 118.184 146.315C118.184 145.264 117.401 136.633 116.529 127.196C115.031 112.169 114.427 110.245 111.721 112.437C109.284 114.516 108.926 118.027 109.977 129.902C111.542 146.584 114.606 143.878 83.9474 152.621C77.6636 154.366 71.3575 157.675 69.971 159.867C67.6007 163.713 67.8691 163.713 81.8455 159.688C89.8064 157.497 101.144 153.919 107.271 151.906ZM887.24 158.212C884.959 156.11 875.276 152.264 865.66 149.558L848.285 144.75L849.671 129.812C850.722 118.117 850.364 114.36 848.016 112.437C845.489 110.335 844.774 111.989 843.656 124.043C842.94 131.825 841.889 140.21 841.375 142.737C840.928 145.264 841.643 147.993 842.94 148.775C846.608 151.034 882.432 161.7 887.24 161.879C891.242 162.036 891.242 162.036 887.24 158.212ZM95.9112 143.431C104.744 141.172 104.744 141.172 104.744 130.416C104.744 119.772 104.744 119.771 98.3489 125.876C94.7709 129.208 89.0014 135.582 85.4235 140.032C80.1907 146.584 79.7433 147.814 83.0752 146.941C85.2443 146.226 91.0139 144.661 95.9112 143.431ZM874.135 139.763C870.714 135.492 864.967 129.208 861.456 125.876C854.994 119.771 854.994 119.772 854.994 127.285C854.994 131.378 854.568 136.096 853.875 137.684C853.07 139.853 855.866 141.508 863.737 143.878C880.151 148.596 880.933 148.328 874.135 139.763ZM132.518 144.236C135.224 143.185 135.559 139.674 134.53 121.874C133.815 110.245 132.518 99.8469 131.467 98.7958C130.326 97.4988 127.621 98.7065 124.378 102.038C119.056 107.271 119.056 107.271 121.516 126.413C124.042 145.533 125.004 147.098 132.518 144.236ZM837.886 126.234C839.966 107.025 839.966 107.025 833.504 101.256L826.952 95.397L825.565 118.899C824.156 143.006 824.782 145.354 832.385 145.443C835.091 145.443 836.142 141.687 837.886 126.234ZM587.967 31.1953C591.724 27.0806 591.635 26.9911 581.236 26.9911C569.004 26.9911 561.58 32.3358 571.71 33.8117C582.891 35.556 584.21 35.2875 587.967 31.1953ZM402.943 29.093C402.25 27.9525 400.327 26.9911 398.583 26.9911C396.838 26.9911 396.056 27.9525 396.749 29.093C397.442 30.2335 399.455 31.1953 401.11 31.1953C402.876 31.1953 403.748 30.2335 402.943 29.093ZM417.546 29.093C418.239 27.9525 417.367 26.9911 415.622 26.9911C413.789 26.9911 412.38 27.9525 412.38 29.093C412.38 30.2335 413.252 31.1953 414.303 31.1953C415.354 31.1953 416.852 30.2335 417.546 29.093ZM547.425 29.2722C547.425 26.8347 543.422 24.1064 541.924 25.6941C540.448 27.17 543.064 31.1953 545.502 31.1953C546.553 31.1953 547.425 30.3232 547.425 29.2722ZM560.976 29.093C561.669 27.9525 561.334 26.9911 560.193 26.9911C559.053 26.9911 557.488 27.9525 556.772 29.093C556.079 30.2335 556.437 31.1953 557.577 31.1953C558.695 31.1953 560.283 30.2335 560.976 29.093ZM443.039 27.6172C439.908 27.17 434.317 27.0806 430.56 27.6172C426.803 28.0421 429.42 28.4894 436.24 28.4894C443.128 28.4894 446.192 28.0421 443.039 27.6172ZM458.066 27.0805C458.066 25.9624 457.104 25.0007 455.986 25.0007C454.845 25.0007 453.884 25.9624 453.884 27.0805C453.884 28.221 454.845 29.093 455.986 29.093C457.104 29.093 458.066 28.221 458.066 27.0805ZM505.854 27.0805C505.854 25.9624 504.892 25.0007 503.752 25.0007C502.634 25.0007 501.739 25.9624 501.739 27.0805C501.739 28.221 502.634 29.093 503.752 29.093C504.892 29.093 505.854 28.221 505.854 27.0805ZM534.321 27.796C531.973 25.5151 514.508 24.9114 513.099 27.0805C512.316 28.3104 516.431 29.093 523.766 29.093C530.318 29.093 535.036 28.4892 534.321 27.796ZM279.08 42.1078C283.552 33.2971 283.552 33.2972 278.744 33.2972C272.617 33.2972 266.512 47.0946 271.23 50.0687C272.706 50.9408 274.115 51.5447 274.294 51.2763C274.54 51.1198 276.642 46.9156 279.08 42.1078ZM690.856 48.5704C690.856 43.3377 684.147 33.2972 680.636 33.2972C676.186 33.2972 676.723 36.9647 682.559 47.8774C684.326 51.12 690.856 51.7235 690.856 48.5704ZM318.928 37.9261C322.417 32.4251 324.251 27.7962 322.932 27.349C319.712 26.298 316.223 29.7865 310.789 39.4022C303.723 51.9921 310.789 50.762 318.928 37.9261ZM650.604 42.6445C648.68 39.7598 645.706 35.0415 643.873 32.2462C640.898 27.7067 634.704 24.9116 634.704 28.2212C634.704 31.6202 647.898 47.788 650.693 47.788C653.578 47.788 653.578 47.2735 650.514 42.6445H650.604ZM264.767 43.8521C264.767 42.8011 265.282 40.5425 265.975 38.7983C267.026 36.1819 265.908 36.0029 258.215 38.0155C249.203 40.2741 249.203 40.2741 255.42 42.8905C263.023 46.133 264.767 46.3119 264.767 43.8521ZM337.78 41.5936C338.496 41.5936 341.626 38.2615 344.69 34.3481C350.191 26.9909 350.191 26.9911 341.022 26.9911C332.637 26.9911 331.407 27.7067 326.353 35.2875C323.379 39.8493 320.941 43.9416 320.941 44.3888C320.941 44.9031 324.43 44.4782 328.701 43.5167C332.994 42.4656 337.087 41.683 337.78 41.5936ZM634.078 36.8752C629.293 28.6683 628.241 28.0422 618.983 27.4384C609.01 26.7452 609.01 26.745 614.354 33.6326C618.983 39.6703 624.216 42.2867 638.55 45.5292C638.975 45.6857 636.963 41.7725 634.078 36.8752ZM806.691 109.977C804.589 79.7657 804.589 79.7658 796.382 75.0474C791.843 72.431 787.751 70.7538 787.125 71.2905C786.61 71.8943 787.661 82.807 789.584 95.5758C792.625 116.194 793.766 119.861 800.139 128.157C803.986 133.301 807.228 138.466 807.228 139.763C807.228 140.993 807.653 141.597 808.011 141.172C808.435 140.725 807.921 126.659 806.691 109.977ZM159.33 128.582C165.972 119.95 166.933 116.708 169.907 95.397C171.651 82.4717 172.792 71.4692 172.345 71.022C171.987 70.5971 167.895 72.431 163.355 75.0474C155.126 79.8552 155.126 79.8551 153.74 100.719C153.046 112.168 151.816 125.787 151.213 130.953C150.497 136.007 150.43 139.763 151.034 139.249C151.638 138.645 155.394 133.837 159.42 128.582H159.33ZM193.298 96.1794C195.758 94.0773 198.195 89.8063 198.821 86.6532C199.694 81.5994 198.822 80.2799 191.554 76.6125C187.015 74.3539 183.079 72.7664 182.743 73.1242C182.385 73.482 181.178 79.7657 179.859 87.19C176.705 105.169 180.038 107.36 193.298 96.1794ZM754.454 83.7014C752.351 81.5993 750.607 84.7301 752.352 87.5254C753.671 89.6274 754.118 89.6274 754.811 87.5254C755.325 86.1389 755.147 84.3946 754.454 83.7014ZM225.097 77.6638C226.596 76.2774 224.672 75.3826 205.888 68.7635C192.963 64.2016 186.5 62.9047 184.041 64.2911C180.91 66.0354 180.999 66.3931 184.756 67.7125C187.014 68.5846 194.975 71.8943 202.399 75.0474C214.095 80.0118 221.519 80.9063 225.097 77.6638ZM755.862 75.5616C762.928 72.5874 771.136 69.2778 773.931 68.1373C778.649 66.3931 778.828 65.9682 775.518 64.1345C772.812 62.6362 767.133 63.8662 753.671 68.7635C732.717 76.3442 732.539 76.4336 736.631 79.0724C740.924 81.7782 741.438 81.6888 755.862 75.5616ZM243.367 69.3674C248.331 67.4443 252.267 65.3423 252.267 64.649C252.267 63.4191 225.544 51.9025 222.749 51.9025C221.698 51.9025 216.98 63.3295 216.98 65.8788C216.98 66.9298 229.816 72.5204 232.522 72.5875C233.573 72.6769 238.47 71.2012 243.367 69.278V69.3674ZM779.7 102.217C781.713 100.898 781.713 97.7448 779.7 86.7426C777.084 72.8558 777.084 72.8559 768.251 76.8811C757.003 81.9349 756.645 87.2794 767.133 96.8727C775.429 104.476 775.854 104.655 779.7 102.217ZM208.683 85.0881C208.683 83.9476 207.722 83.0752 206.581 83.0752C205.441 83.0752 204.48 84.5736 204.48 86.3178C204.48 88.1515 205.441 89.0235 206.581 88.3303C207.722 87.6147 208.683 86.1391 208.683 85.0881ZM587.878 536.534C582.735 531.637 564.286 532.509 568.4 537.496C569.876 539.24 574.863 540.359 581.415 540.359C591.814 540.359 591.903 540.291 587.878 536.534ZM607.713 534.164C610.15 530.765 611.202 527.88 609.972 527.88C607.534 527.88 599.417 536.177 599.417 538.704C599.417 542.282 603.509 540.113 607.713 534.164ZM632.692 533.024C638.193 524.124 637.678 523.251 627.459 525.353C622.204 526.382 617.843 529.177 614.444 533.65C609.278 540.358 609.278 540.359 618.715 540.359C627.28 540.359 628.577 539.665 632.692 533.024ZM647.025 529.982C654.002 518.712 650.939 514.687 643.426 525.353C635.912 536.087 634.257 540.359 637.589 540.359C639.244 540.359 643.515 535.729 647.025 529.982ZM656.015 536.96C654.606 536.356 652.259 536.356 650.85 536.96C649.374 537.496 650.603 538.011 653.399 538.011C656.283 538.011 657.491 537.563 656.015 536.96ZM677.148 513.725C671.222 512.339 660.286 517.661 657.849 523.073C656.44 526.047 655.658 528.663 655.926 528.931C656.284 529.177 659.325 530.944 662.836 532.688C669.03 535.908 669.03 535.908 674.531 525.175C678.892 516.699 679.429 514.24 677.148 513.725ZM279.348 525.868C275.412 518.265 268.949 514.418 268.949 519.673C268.949 524.996 275.591 534.164 279.437 534.164C283.552 534.164 283.552 534.075 279.258 525.868H279.348ZM298.646 531.816C301.196 530.497 303.454 529.177 303.812 528.931C306.07 527.098 298.4 517.303 293.235 515.559C279.952 510.93 278.654 512.16 284.513 523.766C290.104 534.768 291.491 535.573 298.646 531.816ZM542.281 531.973C693.651 518.958 802.666 466.116 812.461 400.953C813.512 393.529 815.167 390.644 819.617 388.028C830.105 381.833 846.876 365.308 855.262 353.008C872.033 328.276 879.726 296.745 875.88 268.256C871.854 238.403 848.352 201.885 822.859 185.718C814.563 180.485 813.78 179.076 812.55 169.304C800.676 74.354 583.249 10.7561 372.821 40.8108C281.629 53.8256 201.528 86.7426 168.32 124.915C158.19 136.543 148.753 156.11 147.098 169.035C145.958 177.421 144.571 179.769 138.355 184.063C126.056 192.359 108.747 210.271 100.183 223.375C82.7177 250.277 77.9099 288.449 88.1293 320.069C96.2692 345.495 119.235 375.281 140.367 388.028C144.482 390.555 146.137 393.618 147.098 400.349C152.331 438.611 197.055 476.783 264.946 501.068C339.01 527.523 450.038 539.934 542.281 531.973ZM590.159 505.943C585.597 501.404 586.134 500.263 592.149 501.762C595.817 502.723 597.315 502.186 597.315 500.196C597.315 498.519 595.481 496.775 593.2 496.171C587.699 494.673 585.865 489.351 588.661 483.156C591.188 477.655 596.957 476.515 601.071 480.54C602.458 481.926 603.509 487.964 603.509 493.979C603.509 502.723 602.726 505.339 599.506 507.084C594.34 509.879 594.072 509.789 590.159 505.943ZM597.829 489.976C599.149 486.376 597.315 481.926 595.034 483.335C592.596 484.9 592.596 492.593 595.034 492.593C595.996 492.593 597.315 491.452 597.829 489.976ZM619.14 127.621C612.253 125.966 605.611 124.311 604.292 123.797C602.548 123.17 603.688 115.657 607.959 98.371C618.716 55.5699 617.754 58.1863 623.255 58.1863C625.961 58.1863 628.756 59.0584 629.449 60.1989C630.165 61.2499 627.884 73.3926 624.395 87.1006C617.239 115.322 617.15 116.35 620.728 116.44C622.114 116.44 626.654 117.401 630.768 118.542C637.321 120.286 638.193 121.247 637.321 125.787C636.18 131.646 636.091 131.646 619.14 127.621ZM375.08 118.542C368.886 117.066 361.462 107.45 363.116 103.089C364.95 98.371 373.425 98.9748 376.578 104.051C380.514 110.335 388.274 108.68 389.056 101.435C389.683 96.4478 388.363 95.1284 377.271 89.5379C363.206 82.382 358.309 76.7916 358.309 67.5337C358.309 49.2638 383.309 41.8396 394.401 56.7775C398.851 62.7258 397.979 65.0963 390.286 67.3549C386.977 68.4059 385.568 67.7124 384.696 64.4699C383.376 59.4161 373.962 58.7005 372.039 63.5083C370.026 68.8305 374.208 74.0858 383.309 77.7532C396.48 82.9859 401.914 89.6274 401.914 100.384C401.914 113.734 389.593 122.119 375.08 118.542ZM571.553 115.232C570.838 113.398 570.324 109.641 570.324 106.846C570.324 102.463 569.362 101.86 562.899 101.86C556.616 101.86 555.207 102.732 553.373 108.054C551.629 113.041 549.974 114.36 545.166 114.36C541.678 114.36 539.129 113.219 539.129 111.721C539.218 110.335 544.63 95.5757 551.182 78.983C563.168 48.8388 563.168 48.8388 570.413 49.532C574.349 49.9793 577.837 50.4937 578.105 50.8515C578.62 51.2764 584.814 112.526 584.814 116.887C584.814 120.04 572.85 118.452 571.553 115.232ZM570.324 88.5764C570.301 86.8992 569.608 81.2417 568.915 75.9195L567.618 66.0354L563.771 78.178C561.669 84.909 559.925 90.6784 559.925 90.9468C559.925 91.1928 562.274 91.461 565.069 91.461C568.088 91.461 570.256 90.2982 570.324 88.6657V88.5764ZM433.087 100.115C433.087 93.3844 432.483 80.8169 431.79 72.0733C430.471 56.0844 430.471 56.0841 423.472 56.0841C417.546 56.0841 416.495 55.391 416.495 51.187C416.495 46.9158 417.724 46.1333 426.11 44.9928C431.432 44.2101 440.78 43.6733 446.885 43.6733C457.462 43.6733 458.066 43.9417 458.066 48.839C458.066 53.3785 457.194 54.0716 450.821 54.0716C442.793 54.0716 443.128 50.0689 446.639 99.2432C447.511 112.258 447.511 112.258 440.333 112.258C433.087 112.258 433.087 112.258 433.087 100.115ZM482.015 110.692C480.696 109.731 480.182 96.6268 480.607 76.3443L481.3 43.6733H494.762C508.828 43.6733 518.958 47.2735 521.239 53.11C524.19 60.9815 522.536 72.9453 517.728 77.7532C512.92 82.4716 512.92 82.6505 516.341 92.6911C523.676 114.181 523.676 112.616 516.073 111.9C509.611 111.207 508.917 110.424 505.071 98.1922C502.007 88.7554 499.905 85.2668 497.289 85.2668C494.248 85.2668 493.443 87.4584 493.018 98.1922C492.481 109.373 491.788 111.296 488.21 111.721C485.929 112.079 483.134 111.565 482.015 110.692ZM507.509 70.2396C513.546 64.2912 508.917 54.0716 500.263 54.0716C496.327 54.0716 495.455 55.2122 495.455 60.1095C495.455 63.4191 494.941 67.6231 494.247 69.4568C492.66 73.5491 503.573 74.1753 507.509 70.2396ZM482.977 457.216C482.977 456.076 483.939 455.204 485.057 455.204C486.198 455.204 487.159 456.076 487.159 457.216C487.159 458.334 486.198 459.296 485.057 459.296C483.939 459.296 482.977 458.334 482.977 457.216ZM503.752 447.869C503.752 441.563 502.88 436.419 501.739 436.419C500.621 436.419 499.659 435.547 499.659 434.407C499.659 433.266 502.879 432.305 506.905 432.305C514.508 432.305 516.61 435.1 510.751 437.292C508.045 438.343 507.598 440.534 508.649 448.987C509.61 457.216 509.253 459.296 506.815 459.296C504.534 459.296 503.752 456.5 503.752 447.869ZM354.216 504.557C354.305 503.148 355.513 496.775 357.011 490.491C360.679 474.86 365.308 474.144 368.617 488.836C370.026 494.941 371.591 501.493 372.128 503.506C372.821 505.854 371.949 507.173 369.847 507.173C368.103 507.173 366.605 505.787 366.605 504.02C366.605 502.276 365.307 500.889 363.742 500.889C362.154 500.889 360.321 502.276 359.628 504.02C358.152 507.777 354.127 508.224 354.216 504.557ZM364.525 492.593C364.525 490.312 364.167 488.478 363.742 488.478C363.295 488.478 362.423 490.312 361.908 492.593C361.193 494.852 361.64 496.775 362.691 496.775C363.742 496.775 364.525 494.852 364.525 492.593ZM437.291 496.954C437.291 490.759 436.241 486.287 434.653 485.594C432.819 484.9 433.177 483.67 436.061 481.412C442.01 476.515 443.486 479.042 443.486 493.711C443.486 504.288 442.882 507.173 440.422 507.173C438.074 507.173 437.291 504.646 437.291 496.954ZM447.668 505.943C447.668 505.339 450.127 500.621 453.012 495.634C458.423 486.466 458.245 478.348 452.833 485.683C449.434 490.401 445.923 487.517 448.987 482.619C450.217 480.696 453.437 479.131 456.232 479.131C463.053 479.131 464.014 488.389 458.066 496.775C453.705 502.902 453.705 502.991 457.82 502.991C460.078 502.991 462.538 503.953 463.231 505.071C464.014 506.301 461.219 507.173 456.143 507.173C451.424 507.173 447.668 506.659 447.668 505.943ZM497.557 505.071C497.557 503.953 495.187 502.991 492.324 502.991C485.862 502.991 485.773 499.749 491.699 487.427C497.647 475.195 501.672 475.106 501.672 487.248C501.672 492.325 502.634 497.043 503.752 497.736C504.982 498.519 504.803 500.532 503.237 503.058C500.531 507.441 497.557 508.492 497.557 505.071ZM497.557 492.056C497.468 488.299 497.11 488.054 495.455 490.491C492.839 494.606 492.839 496.775 495.455 496.775C496.596 496.775 497.557 494.673 497.557 492.056ZM509.163 503.863C507.419 499.234 507.598 498.877 511.087 498.877C512.764 498.877 514.15 499.749 514.15 500.889C514.15 502.03 515.111 502.991 516.252 502.991C517.392 502.991 518.354 500.621 518.354 497.736C518.354 493.197 517.639 492.682 513.188 493.801C507.598 495.209 506.637 492.593 509.253 482.709C510.751 477.118 522.536 475.822 522.536 481.144C522.536 482.888 520.612 484.297 518.354 484.297C516.073 484.297 514.15 485.258 514.15 486.376C514.15 487.517 515.984 488.478 518.175 488.478C522.893 488.478 525.51 494.941 523.676 502.097C522.2 508.135 511.355 509.454 509.163 503.863ZM530.139 505.787C529.356 504.981 528.73 499.48 528.73 493.555C528.73 482.016 531.883 477.118 538.525 478.438C543.601 479.399 544.898 486.555 539.844 485.862C537.742 485.504 535.819 486.287 535.64 487.427C535.461 488.568 536.602 489.172 538.256 488.836C542.461 488.053 545.949 498.005 543.243 503.148C541.141 506.994 533.024 508.649 530.139 505.787ZM539.129 498.966C539.129 496.775 538.256 494.427 537.295 493.801C535.036 492.414 532.42 498.429 534.075 501.158C536.087 504.378 539.129 503.148 539.129 498.966ZM551.629 504.467C551.629 502.813 552.948 497.647 554.603 493.018C557.488 484.9 557.398 484.543 553.194 483.939C544.563 482.62 546.642 478.08 555.811 478.08C563.951 478.08 564.465 478.348 563.168 482.709C562.363 485.325 560.529 491.542 559.143 496.596C556.683 505.429 551.629 510.751 551.629 504.467ZM418.596 496.775C418.596 495.634 420.945 494.673 423.74 494.673C426.625 494.673 428.995 495.634 428.995 496.775C428.995 497.915 426.625 498.877 423.74 498.877C420.945 498.877 418.596 497.915 418.596 496.775ZM374.051 458.178C370.54 454.667 369.758 450.999 372.464 450.999C373.336 450.999 375.169 452.14 376.578 453.549C381.9 458.871 381.543 452.676 376.221 447.086C371.323 442.01 370.809 440.444 372.732 436.688C375.527 431.522 379.642 431.097 383.309 435.547C386.708 439.662 384.338 442.01 380.245 438.611C375.169 434.407 376.131 441.227 381.207 445.856C386.44 450.664 386.529 456.501 381.296 459.296C378.322 460.883 376.488 460.615 374.051 458.178ZM346.702 453.638C346.009 450.485 344.69 444.895 343.728 441.138C342.073 434.765 344.869 428.906 346.702 434.765C347.127 436.33 348.447 440.355 349.498 443.754C351.421 449.948 351.421 449.948 352.807 441.138C353.59 436.33 355.267 432.305 356.475 432.305C358.063 432.305 358.309 434.675 357.436 439.036C356.654 442.792 355.424 448.92 354.82 452.587C353.344 460.794 348.447 461.487 346.702 453.638ZM362.423 445.856C362.423 438.253 363.384 432.305 364.525 432.305C365.732 432.305 366.605 438.253 366.605 445.856C366.605 453.459 365.732 459.296 364.525 459.296C363.384 459.296 362.423 453.459 362.423 445.856ZM390.98 446.37C392.657 439.215 394.312 433.02 394.736 432.663C396.838 430.471 399.454 435.458 401.825 445.856C404.441 457.73 403.301 463.321 399.634 456.679C397.107 452.229 393.618 451.961 393.618 456.165C393.618 457.909 392.388 459.296 390.823 459.296C388.452 459.296 388.453 457.216 390.89 446.37H390.98ZM418.596 447.869C418.596 441.563 417.635 436.419 416.495 436.419C415.354 436.419 414.393 435.547 414.393 434.407C414.393 433.266 417.725 432.305 421.727 432.305C429.152 432.305 431.432 435.01 425.842 437.202C423.65 438.074 422.689 441.495 422.689 448.83C422.689 454.577 421.817 459.296 420.677 459.296C419.558 459.296 418.596 454.152 418.596 447.869ZM448.115 446.281C448.629 434.943 449.255 433.266 453.101 432.752C458.423 431.969 464.797 437.739 463.835 442.457C463.5 444.291 461.129 446.728 458.602 447.869C455.718 449.076 453.884 451.715 453.884 454.577C453.884 457.462 452.654 459.296 450.731 459.296C448.115 459.296 447.6 456.948 448.115 446.281ZM458.066 441.741C458.066 440.087 457.104 438.164 455.986 437.47C454.845 436.777 453.884 438.163 453.884 440.534C453.884 442.882 454.845 444.805 455.986 444.805C457.104 444.805 458.066 443.396 458.066 441.741ZM466.809 446.281C467.324 433.892 467.682 433.266 473.093 432.663C476.246 432.305 478.863 433.02 478.863 434.228C478.863 435.458 477.476 436.419 475.71 436.419C473.965 436.419 472.668 438.342 472.668 440.601C472.668 442.882 473.965 444.805 475.71 444.805C477.476 444.805 478.863 445.677 478.863 446.818C478.863 448.048 477.476 448.92 475.71 448.92C474.055 448.92 472.668 450.306 472.668 452.05C472.668 453.795 473.965 455.204 475.62 455.204C477.297 455.204 479.22 456.076 479.914 457.216C480.696 458.513 478.169 459.296 473.719 459.296C466.205 459.296 466.206 459.296 466.809 446.37V446.281ZM576.518 445.767C576.518 438.164 577.479 432.305 578.62 432.305C579.76 432.305 580.722 438.164 580.722 445.767C580.722 453.459 579.76 459.296 578.62 459.296C577.479 459.296 576.518 453.459 576.518 445.767ZM585.597 456.255C583.942 451.961 586.648 449.166 588.839 452.833C589.801 454.421 591.903 455.293 593.379 454.756C595.392 454.063 594.609 452.229 590.494 448.562C587.431 445.588 584.814 441.831 584.814 440.087C584.814 435.816 590.405 431.611 594.162 433.02C597.673 434.407 598.545 440.601 595.213 440.601C594.072 440.601 593.111 439.662 593.111 438.432C593.111 437.202 592.149 436.867 590.941 437.649C589.443 438.521 590.763 441.138 594.251 444.805C597.315 447.958 599.417 452.319 599.059 454.421C598.097 459.475 587.431 460.973 585.597 456.255ZM605.611 447.869C605.611 441.563 604.739 436.419 603.509 436.419C602.369 436.419 601.497 435.547 601.497 434.407C601.497 433.266 604.739 432.305 608.764 432.305C612.767 432.305 616.009 433.266 616.009 434.407C616.009 435.547 615.137 436.419 613.907 436.419C612.767 436.419 611.895 441.563 611.895 447.869C611.895 456.679 611.112 459.296 608.764 459.296C606.394 459.296 605.611 456.679 605.611 447.869ZM434.585 451.536C433.959 447.243 432.819 441.138 432.036 437.985C430.292 431.097 434.049 430.136 436.151 436.934C437.537 441.652 437.537 441.652 439.818 436.934C441.048 434.407 442.972 432.305 444.09 432.305C445.23 432.305 445.409 434.317 444.626 436.934C443.754 439.572 442.01 445.588 440.78 450.485C437.895 461.398 435.972 461.666 434.585 451.536ZM380.671 506.994C377.786 505.339 377.003 502.03 377.003 491.453C377.003 474.949 380.76 473.63 381.543 489.798C382.437 506.033 386.976 507.084 387.849 491.363C388.721 474.413 393.618 473.451 393.618 490.223C393.618 506.211 389.146 511.981 380.671 506.994ZM401.042 505.943C399.276 504.199 397.8 501.851 397.8 500.8C397.8 497.826 403.569 498.429 404.62 501.404C405.313 503.237 406.275 503.416 407.93 501.851C409.674 500.196 408.623 498.094 403.905 493.89C397.107 487.785 396.57 482.977 402.429 479.31C405.045 477.655 407.147 477.655 409.585 479.221C414.393 482.284 415.533 486.376 411.508 486.376C409.674 486.376 408.198 485.258 408.198 483.85C408.198 482.016 407.505 482.016 405.582 484.028C403.48 486.13 404.084 487.427 408.713 490.849C415.444 495.724 416.315 503.953 410.389 507.084C405.224 509.879 404.956 509.789 401.042 505.943ZM472.042 506.815C470.03 505.787 468.464 503.506 468.464 501.851C468.464 498.184 471.886 497.826 473.183 501.404C473.965 503.416 474.748 503.416 477.029 501.225C479.466 498.966 479.221 498.005 475.71 495.299C472.825 493.107 472.4 491.81 474.144 491.095C475.62 490.67 476.761 488.21 476.761 485.951C476.761 482.374 476.246 482.105 473.63 484.297C469.873 487.427 467.413 485.773 469.158 481.233C470.656 477.387 477.543 477.029 480.339 480.629C481.479 482.016 482.53 488.12 482.619 494.069C482.798 506.032 478.952 510.662 472.042 506.815ZM571.978 506.994C566.656 503.953 567.171 480.696 572.672 478.952C579.313 476.872 582.287 481.412 582.466 493.711C582.645 505.943 578.799 510.751 571.978 506.994ZM578.173 499.391C577.39 494.941 573.723 495.299 572.761 499.749C572.336 501.583 573.455 502.991 575.467 502.991C577.659 502.991 578.62 501.583 578.173 499.302V499.391ZM577.569 484.297C576.607 482.619 575.377 482.53 573.991 483.939C572.851 485.079 572.582 487.092 573.387 488.389C574.416 490.044 575.646 490.133 576.965 488.836C578.173 487.696 578.441 485.594 577.569 484.297ZM517.549 455.986C513.457 445.32 518.354 431.186 525.778 432.573C531.19 433.624 534.499 446.818 531.19 454.063C528.484 460.101 519.562 461.308 517.549 456.076V455.986ZM526.65 445.588C526.65 438.946 525.868 436.33 524.034 436.934C521.239 437.895 519.405 447.511 521.239 452.229C523.587 458.424 526.65 454.756 526.65 445.588ZM538.435 457.909C536.244 455.718 536.87 432.305 539.129 432.305C540.269 432.305 541.231 437.56 541.231 443.933C541.231 459.139 546.128 458.424 547 443.061C547.358 437.113 548.565 432.305 549.616 432.305C551.808 432.305 552.322 450.843 550.31 456.076C549.102 459.296 541.052 460.615 538.435 457.909ZM555.743 445.767C555.743 433.02 555.99 432.305 560.708 432.305C567.797 432.305 569.876 436.061 569.72 448.383C569.541 459.922 567.081 462.807 564.912 454.153C564.196 451.268 562.81 448.92 561.759 448.92C560.708 448.92 559.925 451.268 559.925 454.153C559.925 456.948 558.964 459.296 557.823 459.296C556.683 459.296 555.743 453.459 555.743 445.856V445.767ZM565.784 441.138C564.912 436.777 561.244 437.023 560.283 441.495C559.925 443.396 561.066 444.716 563.078 444.716C565.158 444.716 566.209 443.396 565.784 441.138ZM484.185 445.073C483.313 443.575 483.134 441.831 483.849 441.138C485.683 439.304 487.695 442.01 486.734 445.073C486.018 447.153 485.504 447.153 484.185 445.073ZM284.424 363.049C283.708 361.394 283.552 356.408 283.887 352.047C284.513 343.997 284.603 343.997 294.375 343.393C303.722 342.767 304.237 342.431 304.237 336.841C304.237 333.509 305.646 330.378 307.39 329.752C309.224 329.059 310.543 325.928 310.543 322.261C310.543 318.056 311.594 315.954 313.674 315.954C317.609 315.954 317.699 308.888 313.763 305.646C311.236 303.476 312.377 301.464 321.009 292.385C333.42 279.437 333.777 276.038 324.072 258.395C320.047 251.06 316.827 244.597 316.827 243.904C316.827 241.265 355.513 244.865 363.385 248.175C367.835 250.009 371.77 251.238 372.128 250.881C372.463 250.523 371.771 243.993 370.451 236.301C369.154 228.608 368.707 221.788 369.4 221.095C371.592 218.903 398.247 226.506 410.636 232.812L422.353 238.738L419.558 226.953C413.006 199.269 411.776 193.231 412.738 192.27C414.661 190.347 437.381 197.413 450.395 203.965C474.681 216.197 492.392 232.365 507.33 255.957C513.368 265.55 513.367 265.55 520.97 261.637C531.615 256.203 550.757 251.485 562.363 251.485C574.774 251.485 593.2 255.331 593.2 257.969C593.2 258.998 590.494 265.908 587.095 273.332L581.058 286.794L590.069 290.797C599.148 294.822 599.148 294.822 612.253 289.5C622.562 285.296 629.293 284.066 643.426 283.91C653.31 283.82 662.12 284.424 663.082 285.296C663.954 286.168 660.734 290.887 655.926 295.784C651.207 300.681 647.272 305.556 647.272 306.697C647.272 307.837 651.901 312.287 657.67 316.581C663.35 320.852 668.068 325.749 668.068 327.404C668.068 329.238 669.991 330.468 673.055 330.468C675.85 330.468 682.403 333.777 687.635 337.713C692.868 341.738 698.123 345.048 699.331 345.048C700.65 345.048 701.254 348.983 700.918 354.842L700.203 364.615L492.928 365.308C311.929 366.023 285.475 365.755 284.424 363.049ZM401.11 291.848C398.404 283.999 393.618 271.588 390.465 264.343C385.657 253.408 384.181 251.753 381.9 254.034C379.552 256.382 381.207 260.921 392.12 282.076C399.209 295.963 405.313 307.054 405.582 306.786C405.917 306.518 403.838 299.809 401.11 291.848ZM397.8 303.566C397.8 300.502 391.606 297.796 380.671 296.142C366.448 294.04 368.528 297.707 383.734 301.643C390.89 303.387 397.017 305.042 397.285 305.221C397.531 305.4 397.8 304.684 397.8 303.566ZM437.716 278.476C432.484 264.768 427.586 254.213 426.803 255.085C426.021 255.957 424.366 264.678 422.957 274.383C421.638 284.066 420.072 294.04 419.379 296.567C418.239 300.681 419.022 301.196 427.229 301.889C449.68 303.901 448.473 306.697 437.716 278.476ZM346.792 296.835C353.679 293.771 352.718 290.886 343.214 286.168C335.611 282.411 335.611 282.411 329.327 289.321C325.905 293.078 323.021 296.924 323.021 297.707C322.932 300.234 340.933 299.541 346.881 296.835H346.792ZM371.77 262.598C372.911 256.382 372.553 255.957 363.116 252.714C352.025 248.957 325.034 245.894 325.034 248.354C325.034 249.226 331.496 256.74 339.367 265.036C347.217 273.332 356.385 284.692 359.628 290.193L365.486 300.234L368.014 284.692C369.4 276.128 371.167 266.266 371.77 262.598ZM393.618 294.04C393.618 293.503 389.682 285.296 384.874 275.859L376.131 258.752L373.962 274.383C371.77 289.925 371.77 289.925 381.118 292.385C392.657 295.247 393.618 295.426 393.618 294.04ZM348.268 281.114C346.009 277.961 341.805 273.243 339.01 270.537C333.867 265.729 333.867 265.729 335.164 272.102C336.304 277.603 342.498 283.037 351.689 286.615C352.024 286.705 350.549 284.245 348.268 281.114ZM379.373 241.981C376.131 234.802 374.476 236.48 376.221 245.022C377.182 249.651 378.233 251.06 379.709 249.584C381.207 248.085 381.118 245.737 379.373 241.981ZM697.072 354.395C697.072 349.162 697.072 349.162 507.956 348.715C403.905 348.447 312.019 348.201 303.722 348.201C288.874 348.201 288.695 348.201 288.002 353.881C287.398 359.628 287.398 359.628 492.235 359.628C697.072 359.628 697.072 359.628 697.072 354.395ZM346.434 340.866C346.971 338.585 348.536 336.751 349.766 336.751C351.063 336.751 352.025 338.585 352.025 340.866C352.025 344.69 353.433 345.048 367.141 344.869L382.169 344.779L358.309 333.173C339.882 324.251 332.033 321.545 324.251 321.366C316.044 321.21 313.942 321.903 313.495 324.788C313.07 327.672 314.456 328.455 320.047 328.455C323.893 328.455 327.135 329.327 327.135 330.557C327.135 331.675 323.11 332.547 318.146 332.547C307.747 332.547 306.428 333.442 307.837 338.853C309.044 343.393 312.891 344.354 331.586 344.779C343.728 345.048 345.473 344.623 346.434 340.866ZM441.473 339.815C441.473 337.02 442.345 334.649 443.486 334.649C444.626 334.649 445.588 337.02 445.588 339.815C445.588 345.048 445.588 345.048 507.956 345.048C568.915 345.048 570.324 344.869 570.324 340.866C570.324 338.585 571.196 336.751 572.425 336.751C573.544 336.751 574.416 338.585 574.416 340.866C574.416 344.779 575.825 345.048 596.264 345.048C618.112 345.048 618.111 345.048 618.111 338.227C618.111 331.943 617.306 331.161 606.058 326.889C594.43 322.328 591.724 322.171 522.446 322.171C455.807 322.171 450.038 321.814 439.818 318.057C433.87 315.709 424.433 313.875 418.932 313.875C413.431 313.875 402.004 311.504 393.528 308.53C366.18 299.093 356.228 301.643 356.228 317.788C356.228 327.762 356.229 327.762 374.387 336.304C392.478 344.779 392.813 344.869 417.009 344.958C441.473 345.048 441.473 345.048 441.473 339.815ZM451.871 330.557C432.998 329.931 418.507 328.79 419.715 328.008C420.945 327.225 426.021 326.957 431.164 327.404C436.24 327.851 461.308 328.276 486.734 328.276C512.227 328.366 532.666 329.238 532.062 330.199C530.832 332.212 503.506 332.301 451.871 330.557ZM535.64 329.931C535.215 329.059 548.834 328.366 566.03 328.366C583.249 328.366 597.315 329.059 597.315 329.931C597.315 330.803 583.696 331.518 566.992 331.518C550.31 331.518 536.244 330.803 535.64 329.931ZM395.698 328.366C395.698 327.225 399.365 326.353 403.905 326.353C408.377 326.353 412.648 327.225 413.342 328.366C414.124 329.685 410.994 330.468 405.224 330.468C399.991 330.468 395.698 329.506 395.698 328.366ZM418.596 321.299C418.596 319.018 420.52 317.967 424.97 317.967C432.908 317.967 432.215 322.864 424.098 323.826C420.162 324.251 418.596 323.558 418.596 321.299ZM591.903 307.569C593.737 302.94 595.213 298.848 595.213 298.49C595.213 297.439 585.351 293.503 576.876 291.066C570.055 289.142 570.056 289.142 574.416 295.784C576.876 299.451 580.364 305.489 582.198 309.156C586.559 317.878 587.878 317.699 591.903 307.569ZM607.713 314.814C607.713 312.913 601.407 301.375 600.468 301.375C599.417 301.375 593.111 312.913 593.111 314.814C593.111 315.44 596.442 315.954 600.468 315.954C604.47 315.954 607.713 315.44 607.713 314.814ZM513.01 299.809C512.406 293.257 511.355 284.603 510.751 280.578C509.61 273.332 509.61 273.332 501.493 282.68C483.066 303.723 483.223 302.761 497.982 307.323C505.161 309.581 511.802 311.505 512.674 311.594C513.546 311.683 513.725 306.361 513.01 299.809ZM417.546 282.411C424.433 247.571 424.366 246.52 414.929 240.057C407.594 235.071 384.181 226.595 377.718 226.595C375.438 226.595 376.041 228.787 380.156 235.428C388.363 248.689 399.276 272.975 405.582 292.117C408.712 301.464 411.597 308.978 411.866 308.709C412.223 308.441 414.75 296.566 417.546 282.411ZM353.344 304.259C357.19 302.425 360.41 300.055 360.41 299.093C360.41 296.477 357.884 296.746 349.229 300.324C345.137 302.068 336.572 303.476 330.199 303.476C322.931 303.476 319.085 304.259 319.89 305.556C321.88 308.888 345.472 308.016 353.344 304.259ZM432.394 235.853C433.534 232.812 423.136 208.773 421.481 210.517C420.676 211.322 423.919 230.173 425.931 236.479C427.072 240.057 430.896 239.7 432.394 235.853ZM683.521 339.725C677.684 334.918 675.94 334.649 649.821 334.649C622.293 334.649 622.293 334.649 622.293 339.815C622.293 345.048 622.293 345.048 656.015 344.958C689.827 344.869 689.827 344.869 683.521 339.725ZM653.913 328.969C647.987 328.544 638.103 328.544 632.155 328.969C626.14 329.416 631.037 329.685 643 329.685C655.054 329.685 659.951 329.416 653.913 328.969ZM351.689 310.901C349.833 309.492 320.941 312.466 320.941 314.031C320.941 315.082 323.468 315.954 326.599 316.044C329.752 316.044 336.573 318.325 341.626 321.031C351.063 325.928 351.063 325.928 351.689 318.66C352.024 314.658 352.024 311.147 351.689 310.901ZM612.946 322.328C612.253 321.12 609.547 320.159 607.087 320.159C602.637 320.248 602.726 320.337 607.713 323.133C613.303 326.174 615.227 325.928 613.035 322.328H612.946ZM655.479 288.091C655.479 285.028 627.526 288.538 614.958 293.257C608.585 295.605 603.598 298.221 603.956 299.004C604.292 299.72 607.892 306.182 611.895 313.249L619.14 326.174L637.321 308.105C647.361 298.132 655.479 289.142 655.479 288.091ZM659.683 323.557C659.683 323.2 655.568 319.98 650.604 316.402L641.592 309.85L634.615 317.095L627.705 324.251H643.694C652.437 324.251 659.683 323.915 659.683 323.557ZM447.846 312.198C445.677 308.105 422.353 302.157 418.328 304.684C414.124 307.233 417.009 309.671 424.276 309.76C428.548 309.76 435.793 311.504 440.422 313.607C449.948 317.967 450.91 317.788 447.846 312.198ZM487.159 293.078C498.608 279.974 507.956 268.256 507.956 267.049C507.956 263.023 492.57 242.07 482.105 231.918C465.579 215.772 444.179 203.54 424.008 198.643C418.06 197.256 418.06 197.256 422.51 204.144C437.202 226.416 451.961 266.355 458.066 300.324C460.951 316.491 461.733 318.504 464.439 317.609C465.49 317.274 475.71 306.182 487.159 293.078ZM514.15 317.005C514.15 315.775 486.644 307.569 482.798 307.658C481.21 307.658 478.169 310.028 476.157 312.913C472.4 317.967 472.4 317.967 493.286 317.967C504.802 317.967 514.15 317.542 514.15 317.005ZM551.025 315.44C550.399 313.607 545.859 312.98 535.819 313.428C514.687 314.3 513.815 317.967 534.678 317.967C547.604 317.967 551.718 317.363 551.025 315.44ZM567.618 308.978C571.978 299.966 571.979 299.809 568.043 293.861C562.721 285.743 563.078 284.156 570.055 285.117C575.556 285.989 576.518 285.028 581.505 274.987C589.354 258.909 589.108 258.305 573.029 256.561C547.961 253.855 515.022 263.895 515.38 274.115C515.469 276.575 515.715 284.871 515.984 292.541C516.52 311.683 516.677 311.862 532.666 308.978L546.038 306.518L540.18 299.272C536.959 295.247 530.049 287.577 524.906 282.165C519.74 276.821 516.252 271.678 517.124 270.805C518.779 269.061 531.1 282.232 547.961 303.991C553.977 311.683 559.836 317.967 561.066 317.967C562.273 317.967 565.247 313.942 567.707 308.978H567.618ZM576.518 306.786C576.518 303.566 572.761 306.093 570.659 310.811C567.081 318.504 567.707 319.286 572.425 313.249C574.684 310.364 576.518 307.479 576.518 306.786ZM581.415 314.814C580.454 312.377 579.582 312.198 577.301 314.031C573.455 317.274 573.723 317.967 578.531 317.967C581.326 317.967 582.287 317.006 581.415 314.814ZM450.731 287.309C445.23 263.627 438.074 241.108 435.972 241.108C435.368 241.108 433.266 241.981 431.254 243.099C427.765 244.932 427.854 245.827 433.356 257.075C436.486 263.627 442.703 279.616 447.064 292.541C451.357 305.4 455.27 314.993 455.628 313.785C456.053 312.645 453.795 300.681 450.731 287.309ZM369.847 166.754C369.065 161.343 367.924 154.791 367.32 152.264C366.448 148.865 367.052 147.545 369.49 147.545C371.323 147.545 372.821 148.328 372.821 149.2C372.821 150.162 374.297 152.689 376.131 154.97C379.195 158.816 379.284 158.637 378.233 152.264C377.629 148.507 377.965 145.443 379.016 145.443C381.99 145.443 382.862 147.903 384.338 161.701C386.015 175.587 383.824 178.561 378.926 168.856C376.131 163.176 376.131 163.177 375.348 169.908C374.297 179.769 371.413 178.114 369.847 166.754ZM578.709 173.06C578.799 171.048 579.582 165.458 580.543 160.56C581.84 153.65 581.594 151.749 579.403 151.749C577.837 151.749 576.518 150.788 576.518 149.647C576.518 147.188 586.827 146.941 590.494 149.289C592.418 150.43 591.992 151.816 588.929 154.366C586.648 156.378 584.814 160.046 584.814 162.662C584.725 169.55 582.556 176.638 580.454 176.638C579.403 176.638 578.62 175.051 578.709 173.06ZM565.426 173.06C564.733 171.92 565.069 165.547 566.209 158.816C567.26 151.995 568.222 146.315 568.222 145.98C568.222 145.712 569.183 145.533 570.413 145.533C571.978 145.533 572.157 149.468 571.196 157.407C569.72 170.422 567.439 176.37 565.426 173.06ZM391.516 167.202C388.721 159.867 388.967 148.954 391.941 145.891C395.452 142.402 401.825 142.827 403.301 146.584C404.866 150.855 402.16 153.494 399.991 149.826C396.749 144.571 393.439 149.558 394.826 157.586C396.481 167.112 399.209 170.355 401.199 165.189C402.071 162.841 401.736 161.007 400.238 160.47C396.324 159.173 397.353 155.842 401.735 155.842C407.751 155.842 408.892 169.728 403.033 171.316C395.519 173.306 393.529 172.613 391.516 167.202ZM554.245 164.764C555.386 156.893 555.386 156.893 552.412 163.713C548.386 172.971 545.435 172.188 544.987 161.611C544.719 153.225 544.63 153.136 543.847 160.046C542.796 168.946 539.129 173.575 539.129 165.972C539.129 154.276 541.834 141.351 544.383 141.351C545.77 141.351 547.604 145.264 548.387 150.162C549.974 158.995 549.974 158.995 552.501 151.749C553.887 147.724 556.683 144.146 558.696 143.789C561.67 143.185 562.027 144.236 561.066 150.52C560.439 154.612 559.411 161.253 558.785 165.279C558.181 169.214 556.616 172.524 555.386 172.524C553.977 172.524 553.552 169.639 554.245 164.764ZM413.252 166.844C408.981 162.662 412.916 160.292 417.635 164.227C420.072 166.329 420.677 166.061 420.677 162.483C420.677 160.046 418.843 157.675 416.495 156.893C412.134 155.573 408.891 147.277 411.262 143.52C413.341 140.121 422.175 140.904 423.561 144.66C424.612 147.366 423.919 147.814 419.647 146.763C412.738 145.018 413.096 147.545 420.677 154.187C427.765 160.381 428.19 162.573 423.651 167.202C419.469 171.316 417.635 171.316 413.252 166.933V166.844ZM430.985 161.611C430.985 157.854 430.381 151.302 429.688 147.031C428.458 139.249 428.458 139.249 435.972 139.249C440.087 139.249 443.486 140.211 443.486 141.351C443.486 142.469 441.652 143.431 439.371 143.431C436.576 143.431 435.189 144.84 435.189 147.545C435.189 150.341 436.576 151.749 439.371 151.749C441.652 151.749 443.486 152.689 443.486 153.829C443.486 154.969 441.652 155.931 439.371 155.931C436.151 155.931 435.189 157.25 435.189 162.125C435.189 165.547 434.228 168.342 433.087 168.342C431.947 168.342 430.985 165.368 430.985 161.611ZM450.999 165.636C448.204 163.624 447.6 160.471 448.025 151.66C448.718 140.568 448.897 140.3 454.935 140.3C460.615 140.3 461.308 141.172 462.963 149.021C465.155 159.084 464.103 163.087 458.513 166.061C455.628 167.626 453.437 167.47 450.999 165.636ZM458.066 152.778C458.066 145.891 457.283 143.431 454.935 143.431C452.654 143.431 451.871 145.801 451.871 152.778C451.871 159.688 452.654 162.125 454.935 162.125C457.283 162.125 458.066 159.688 458.066 152.778ZM520.434 164.227C518.6 160.918 518.869 160.046 521.396 160.046C523.14 160.046 524.548 161.007 524.548 162.125C524.548 163.266 525.51 164.227 526.65 164.227C530.139 164.227 528.998 158.816 524.548 154.88C516.766 147.814 522.536 136.633 531.369 141.597C536.87 144.661 535.64 147.814 529.535 146.315C524.548 145.018 524.28 145.265 526.471 149.379C527.791 151.817 529.692 153.829 530.743 153.829C533.985 153.829 535.461 162.126 532.845 165.368C529.267 169.639 523.073 169.035 520.434 164.227ZM468.464 152.778C468.464 139.249 468.464 139.249 474.591 139.249C482.172 139.249 486.376 145.443 483.066 151.57C481.658 154.276 481.568 157.407 482.977 160.918C484.542 165.189 484.363 166.24 481.926 166.24C480.271 166.24 478.348 163.959 477.633 161.074C476.94 158.212 475.463 155.842 474.502 155.842C473.451 155.842 472.579 158.212 472.579 161.074C472.579 163.959 471.707 166.24 470.566 166.24C469.336 166.24 468.464 160.381 468.464 152.778ZM478.863 146.405C478.863 144.75 477.476 143.431 475.71 143.431C472.579 143.431 471.438 147.814 473.965 150.251C475.889 152.264 478.863 149.893 478.863 146.405ZM489.261 152.778C489.261 139.338 489.261 139.249 495.03 139.249C502.7 139.249 505.854 142.738 505.854 151.213C505.854 161.611 502.634 166.24 495.366 166.24C489.261 166.24 489.261 166.24 489.261 152.778ZM499.659 152.778C499.659 147.635 498.698 143.431 497.557 143.431C496.417 143.431 495.455 145.533 495.455 148.06C495.455 150.698 494.851 154.88 494.158 157.407C493.286 160.918 493.801 162.125 496.238 162.125C498.877 162.125 499.659 160.046 499.659 152.778ZM718.115 160.202C716.013 158.905 715.499 156.11 716.371 150.855C717.511 143.878 717.153 143.095 710.959 140.635C704.317 137.93 702.752 138.802 695.932 149.2C694.881 150.788 684.572 146.942 684.572 145.018C684.572 142.737 723.795 89.3591 725.45 89.3591C729.922 89.3591 738.912 96.5373 738.129 99.422C737.592 101.345 734.976 116.193 732.27 132.518C727.194 162.93 725.986 165.279 718.115 160.202ZM723.527 111.654C723.191 110.692 720.038 114.092 716.46 119.145C709.997 128.426 709.998 128.426 714.448 130.416C718.473 132.25 719.166 131.646 721.447 122.835C722.833 117.58 723.795 112.526 723.527 111.654ZM241.869 155.327C241.869 153.583 235.496 101.77 234.445 95.3076C233.327 88.0622 233.662 87.6149 240.818 85.2668C245.022 83.858 248.689 83.0753 249.047 83.4331C252.356 87.6149 283.708 135.313 284.603 137.594C285.296 139.428 283.798 141.441 280.667 142.917C276.038 145.019 274.987 144.571 270.537 138.802C266.064 133.055 265.036 132.608 259.445 134.441C253.922 136.364 253.408 137.326 254.101 144.392C254.794 152.622 252.446 155.842 245.536 155.842C243.546 155.842 241.869 155.573 241.869 155.327ZM259.266 123.081C259.87 122.209 256.985 116.35 252.893 110.066C248.868 103.872 246.073 100.294 246.677 102.128C247.303 103.962 248.421 109.82 249.293 115.143C250.344 122.477 251.574 124.736 254.548 124.736C256.561 124.736 258.73 123.953 259.266 123.081ZM657.066 137.84C652.348 136.633 651.901 138.891 663.618 102.911C673.055 73.8175 674.017 71.7154 678.646 72.3415C681.262 72.5875 684.147 73.549 684.929 74.354C687.121 76.702 666.145 139.338 663.261 138.981C661.874 138.891 659.079 138.377 657.066 137.84ZM310.453 130.774C302.94 127.979 301.016 123.797 293.86 95.397C287.129 69.0097 287.398 65.6104 296.119 66.8404C300.413 67.5336 301.442 70.0606 306.339 90.8574C312.287 115.925 314.993 121.069 321.724 120.107C328.276 119.235 328.276 110.424 321.724 84.9089C318.481 72.5874 316.29 62.2113 316.827 61.6746C317.341 61.2497 320.226 60.2883 323.11 59.5727C328.433 58.2757 328.522 58.544 335.253 85.7811C340.754 107.808 341.626 114.449 339.882 118.899C336.036 128.761 321.187 134.799 310.543 130.774H310.453ZM258.305 202.131C249.919 180.731 249.919 181.267 256.56 179.769C264.499 178.025 265.819 179.076 270.179 190.525C273.847 200.141 273.847 200.141 269.128 203.965C262.666 209.22 260.921 208.862 258.305 202.131ZM266.869 197.592C266.869 191.487 262.397 182.922 259.266 182.922C255.755 182.922 255.756 183.191 259.781 193.231C263.359 202.131 266.869 204.323 266.869 197.592ZM670.081 199.694C670.081 195.579 679.071 174.626 680.904 174.626C685.265 174.626 690.856 179.165 690.856 182.833C690.856 188.334 684.929 193.679 680.479 192.27C677.773 191.398 676.454 192.538 675.493 196.384C674.173 201.259 670.081 203.898 670.081 199.694ZM686.674 183.973C686.674 182.229 685.265 180.82 683.521 180.82C681.866 180.82 680.479 182.229 680.479 183.973C680.479 185.628 681.866 187.037 683.521 187.037C685.265 187.037 686.674 185.628 686.674 183.973ZM278.654 197.95C275.859 192.963 270.783 174.112 272.013 172.882C272.796 172.099 276.373 174.715 279.884 178.74C283.641 182.922 285.632 184.241 284.67 181.871C281.45 173.933 280.913 170.422 282.926 170.422C285.721 170.422 294.196 193.142 292.452 195.937C291.669 197.346 288.695 195.423 285.028 191.04C278.833 183.884 278.476 185.024 282.926 196.988C283.977 199.694 280.13 200.655 278.654 197.95ZM659.414 189.653C659.168 181.871 659.168 181.871 656.977 187.551C655.747 190.704 653.578 193.321 652.08 193.321C650.246 193.321 650.849 189.564 654.36 180.306C658.207 170.176 660.108 167.47 663.082 167.984C670.26 169.304 673.145 173.843 670.417 179.702C669.12 182.654 667.286 185.024 666.324 185.024C665.363 185.024 664.915 187.819 665.452 191.218C666.145 195.937 665.631 197.502 662.993 197.502C660.555 197.502 659.593 195.423 659.414 189.653ZM665.877 176.549C665.877 171.473 661.069 172.189 660.04 177.332C659.682 179.434 660.734 180.82 662.657 180.82C664.58 180.82 665.877 179.076 665.877 176.549ZM296.209 183.526C294.643 178.025 292.989 172.01 292.452 170.176C291.759 167.895 293.414 166.151 297.864 164.585C304.326 162.304 307.479 165.189 301.106 167.627C296.566 169.393 297.349 174.626 302.157 174.626C307.032 174.626 307.748 177.779 303.275 179.523C298.4 181.357 301.978 187.037 307.994 187.037C314.389 187.037 312.019 190.257 304.237 192.27C299.362 193.41 298.736 192.717 296.209 183.526ZM640.988 188.781C640.988 184.063 647.987 164.227 649.642 164.227C652.079 164.227 651.811 167.291 648.055 179.948C645.192 189.989 640.988 195.244 640.988 188.781ZM632.692 185.024C632.692 180.395 628.577 179.523 624.82 183.28C619.409 188.692 620.035 182.497 625.782 172.188C634.704 156.445 636.806 156.893 636.806 174.447C636.806 182.833 635.912 189.117 634.704 189.117C633.564 189.117 632.602 187.283 632.602 185.024H632.692ZM317.878 181.536C317.184 178.562 314.121 172.971 311.147 169.125C306.786 163.355 306.518 162.125 309.313 162.125C311.147 162.125 313.338 163.713 314.121 165.726C315.351 168.856 315.686 168.588 316.737 164.317C319.264 153.494 322.328 157.854 322.328 172.434C322.328 187.283 320.404 191.397 317.878 181.536ZM339.882 173.06C335.343 154.701 335.253 153.829 338.495 153.829C340.329 153.829 341.805 155.752 341.895 158.458C342.073 162.752 342.253 162.662 344.332 157.407C347.575 149.29 352.561 149.647 349.676 157.854C347.932 163.087 348.268 165.1 352.114 170.422C357.615 178.204 355.513 181.871 349.923 174.537C345.92 169.393 345.92 169.393 345.92 175.051C345.83 183.369 342.163 182.139 339.882 173.06ZM603.084 174.805C604.292 166.508 599.663 164.227 598.097 172.345C597.315 176.012 595.481 178.74 593.737 178.74C591.992 178.74 591.12 177.511 591.635 176.102C592.238 174.626 593.826 168.074 595.123 161.522C596.622 154.455 598.455 150.072 599.752 150.855C600.893 151.66 601.407 154.366 600.893 157.072C599.663 163.803 605.164 165.547 606.841 158.905C608.227 153.404 611.806 151.816 611.806 156.714C611.806 158.368 610.754 164.496 609.457 170.265C606.841 181.446 601.496 185.293 603.084 174.805ZM358.487 165.547C355.782 149.737 355.781 149.647 358.062 149.647C360.679 149.647 361.819 153.404 363.563 166.933C365.576 183.436 361.372 182.229 358.487 165.547ZM741.439 329.327C740.746 327.404 743.027 322.261 746.85 316.827C756.734 303.029 758.032 296.745 752.441 288.449C746.694 279.884 738.308 278.744 724.935 284.603C712.882 289.925 710.266 290.014 707.47 284.782C705.637 281.271 706.419 279.974 713.15 275.524C723.101 268.972 737.257 263.985 745.889 263.985C751.233 263.985 754.454 265.908 760.737 272.818C773.059 286.168 775.34 293.078 771.046 304.349C764.069 322.686 745.017 338.675 741.439 329.327ZM751.233 325.302C751.144 322.171 746.425 322.775 745.374 325.995C744.771 327.762 745.732 328.544 747.901 328.097C749.735 327.672 751.323 326.442 751.233 325.302ZM758.747 318.504C771.761 302.068 772.187 290.618 760.312 276.731C753.939 269.397 751.658 268.1 744.77 268.1C734.461 268.1 719.949 273.847 719.949 277.961C719.949 280.332 721.358 280.757 725.629 279.795C744.502 275.435 745.822 275.613 752.799 283.552C760.491 292.385 761.095 298.311 755.147 309.85C749.735 320.405 752.284 326.621 758.747 318.504ZM764.158 295.091C763.98 292.81 764.762 291.423 765.813 292.117C768.184 293.592 768.43 299.272 766.082 299.272C765.209 299.272 764.337 297.439 764.158 295.091ZM749.042 274.205C749.042 273.064 748.08 272.639 746.94 273.332C745.822 274.026 744.86 273.69 744.86 272.371C744.86 271.23 746.247 270.179 747.991 270.179C749.735 270.179 751.144 271.588 751.144 273.332C751.144 275.077 750.697 276.485 750.093 276.485C749.489 276.485 749.042 275.435 749.042 274.205ZM717.332 282.165C716.907 280.756 715.23 279.527 713.665 279.527C712.189 279.527 710.512 280.756 710.087 282.165C709.55 283.731 711.049 284.782 713.665 284.782C716.371 284.782 717.869 283.731 717.332 282.165ZM205.195 310.99C209.466 299.898 209.13 297.707 202.399 292.72C195.758 287.823 195.758 287.823 204.658 286.861C212.53 285.922 213.76 285.028 216.018 278.476C218.545 271.23 218.545 271.23 220.915 277.089C222.145 280.332 223.174 283.82 223.174 284.871C223.174 285.989 227.199 286.861 232.007 286.861C240.907 286.951 240.907 286.951 234.355 292.631C229.033 297.26 228.25 299.183 229.569 303.476C232.521 313.159 231.828 314.389 226.059 309.85C219.171 304.438 218.031 304.527 210.159 310.118C204.569 314.031 203.965 314.21 205.195 310.99ZM729.743 225.298C729.05 224.583 730.705 219.529 733.411 214.117C737.167 206.85 737.771 203.719 736.116 201.975C732.002 197.86 736.541 196.474 742.311 199.962C748.684 203.808 751.569 209.31 746.246 207.208C743.809 206.246 741.707 208.08 738.733 213.67C732.874 224.672 731.219 226.774 729.743 225.298ZM224.672 218.992C221.519 215.862 223.442 213.67 228.429 214.989C236.278 216.913 234.623 212.887 225.813 208.527C217.337 204.412 215.504 198.464 221.609 194.618C224.404 192.784 225.969 193.142 228.854 196.205C232.432 199.962 232.365 200.052 227.893 199.001C220.737 197.256 222.302 202.221 229.995 205.799C238.738 209.824 239.699 218.903 231.492 219.864C228.518 220.222 225.544 219.864 224.672 218.992ZM716.818 218.21C716.102 217.069 716.102 214.274 716.818 212.015C717.511 209.734 717.243 207.811 716.013 207.811C714.895 207.811 713.397 209.734 712.703 212.015C711.384 216.108 707.47 217.874 707.47 214.363C707.47 213.312 709.819 207.297 712.614 200.834C717.511 189.743 718.026 189.295 722.923 191.576C725.718 192.784 728.514 195.244 729.117 196.809C730.526 200.297 726.948 207.811 724.063 207.811C722.923 207.811 722.051 210.696 722.051 214.117C722.051 220.222 719.345 222.324 716.818 218.21ZM724.063 199.515C724.063 197.256 723.191 195.423 722.051 195.423C720.91 195.423 719.949 195.758 719.949 196.295C719.949 196.72 719.345 198.553 718.651 200.387C717.869 202.578 718.562 203.719 720.732 203.719C722.744 203.719 724.063 201.975 724.063 199.515ZM246.073 208.862C246.073 207.207 242.674 202.064 238.559 197.502C234.02 192.448 232.186 189.117 234.02 189.117C235.585 189.117 238.022 190.257 239.431 191.666C241.354 193.589 241.869 193.142 241.869 189.564C241.869 187.037 243.188 185.024 244.843 185.024C246.766 185.024 247.996 188.155 248.6 194.886C249.047 200.297 250.255 206.335 251.127 208.348C252.267 210.964 251.842 212.015 249.383 212.015C247.549 212.015 246.073 210.606 246.073 208.862ZM690.788 206.693C688.507 204.054 688.776 201.796 692.085 193.746C695.663 185.203 696.983 183.973 702.305 183.973C708.074 183.973 708.521 184.488 708.253 191.666C707.806 205.978 697.497 214.9 690.788 206.693ZM703.088 196.72C704.676 192.538 705.368 188.423 704.586 187.641C702.215 185.293 697.251 191.912 695.753 199.336C693.83 209.041 699.085 207.118 703.088 196.72ZM773.506 204.591C769.212 201.796 756.824 194.796 745.978 188.96C735.066 183.19 726.165 177.421 726.165 176.281C726.165 175.14 725.025 174.715 723.527 175.14C722.14 175.677 717.69 174.447 713.665 172.524C709.729 170.511 693.919 164.496 678.646 159.241C518.175 103.604 331.071 118.027 195.222 196.474C175.409 207.901 166.396 210.092 178.293 200.566C187.886 192.873 239.074 167.381 261.615 158.995C328.88 134.083 387.401 123.081 462.18 121.247C554.692 118.989 634.078 133.569 712.703 167.291C746.515 181.782 787.303 204.77 785.201 208.08C783.636 210.696 782.16 210.271 773.506 204.591ZM707.202 41.5936C709.215 40.5425 708.253 39.6705 704.049 38.6195C700.829 37.8368 696.446 36.6962 694.456 36.0924C691.213 35.1308 691.034 35.6453 693.226 40.4532C695.663 45.7754 698.906 46.0436 707.202 41.5936ZM357.19 34.0799C359.113 31.1952 360.232 28.221 359.538 27.6172C358.062 26.119 352.472 30.7478 349.833 35.6451C346.524 41.8394 353.075 40.4531 357.19 34.0799ZM65.1633 314.389C65.3422 309.403 61.4066 311.773 51.7909 322.507C44.635 330.467 42.8905 333.598 44.903 334.918C47.7878 336.751 64.9844 319.287 65.1633 314.389ZM915.282 332.726C915.282 328.723 897.369 311.08 894.843 312.556C893.076 313.696 894.91 317.184 900.858 324.34C908.73 333.688 915.282 337.534 915.282 332.726ZM54.765 308.284C54.8544 306.093 35.6451 290.976 32.7604 290.976C31.3516 290.976 33.1854 313.07 35.4663 324.43C36.6962 330.713 36.6962 330.713 45.6858 320.673C50.6726 315.261 54.6755 309.671 54.765 308.284ZM926.798 303.991C927.425 296.835 927.335 290.976 926.62 290.976C925.926 290.976 920.336 294.554 914.141 299.004L902.781 307.144L912.733 318.839C922.617 330.646 922.617 330.646 924.093 323.826C924.965 319.98 926.195 311.079 926.798 303.991ZM75.204 305.131C76.6128 303.723 77.6635 300.234 77.6635 297.26C77.574 292.027 77.5743 292.027 72.5875 298.132C66.3932 305.735 68.6519 311.683 75.204 305.131ZM891.175 305.914C891.689 304.953 889.945 301.464 887.24 298.132C882.163 292.027 882.164 292.027 882.164 297.26C881.985 304.595 888.29 310.543 891.175 305.914ZM75.4722 283.731C75.4722 282.501 72.4088 278.14 68.5625 273.847L61.764 266.087L49.9572 274.473C43.4945 279.102 38.6863 283.82 39.4019 284.961C40.0951 285.989 45.4174 290.193 51.3657 294.129L62.0998 301.375L68.8307 293.592C72.4981 289.321 75.4722 284.871 75.4722 283.731ZM911.682 291.423C917.116 287.487 921.565 283.999 921.565 283.552C921.565 283.127 916.154 279.102 909.512 274.652L897.459 266.422L890.818 274.383C887.15 278.744 884.176 283.038 884.176 283.731C884.176 287.398 897.191 301.195 899.382 299.898C900.679 299.093 906.27 295.247 911.682 291.423ZM546.91 537.049C544.898 535.126 540.962 538.279 542.46 540.716C543.332 542.125 544.473 542.125 545.949 540.537C547.179 539.33 547.604 537.742 546.91 537.049ZM321.813 534.522C315.596 524.034 311.146 519.047 308.709 519.83C305.198 520.971 317.788 540.359 321.97 540.359C324.944 540.359 324.944 539.755 321.813 534.522ZM344.869 533.382C340.843 528.149 337.355 525.957 330.982 524.996C326.263 524.213 322.149 523.855 321.881 524.213C321.545 524.459 323.647 528.305 326.353 532.599C330.892 539.665 332.122 540.359 340.754 540.359C350.191 540.359 350.191 540.359 344.869 533.382ZM360.321 538.793C360.232 535.483 352.561 527.433 350.102 528.216C348.357 528.753 348.961 530.854 352.114 534.701C356.318 540.112 360.411 542.125 360.321 538.793ZM391.337 537.496C395.519 532.509 377.092 531.637 371.86 536.534C367.835 540.291 367.924 540.359 378.412 540.359C384.874 540.359 389.928 539.24 391.337 537.496ZM402.943 538.279C403.748 537.138 402.876 536.266 401.11 536.266C399.455 536.266 397.442 537.138 396.749 538.279C396.056 539.397 396.928 540.359 398.583 540.359C400.327 540.359 402.25 539.397 402.943 538.279ZM417.546 538.279C416.852 537.138 414.84 536.266 413.185 536.266C411.418 536.266 410.636 537.138 411.329 538.279C412.045 539.397 413.968 540.359 415.712 540.359C417.456 540.359 418.239 539.397 417.546 538.279ZM443.039 538.883C439.908 538.435 434.317 538.368 430.56 538.883C426.803 539.33 429.42 539.665 436.24 539.665C443.128 539.755 446.192 539.33 443.039 538.883ZM530.318 538.883C527.165 538.435 521.574 538.368 517.818 538.883C514.15 539.33 516.677 539.665 523.497 539.665C530.407 539.755 533.448 539.33 530.318 538.883ZM560.976 538.279C560.283 537.138 558.695 536.266 557.577 536.266C556.437 536.266 556.079 537.138 556.772 538.279C557.488 539.397 559.053 540.359 560.193 540.359C561.334 540.359 561.669 539.397 560.976 538.279ZM124.221 165.099C134.262 161.343 142.827 157.944 143.162 157.586C143.945 156.714 148.417 100.473 148.417 91.6401C148.417 84.9091 148.238 84.73 143.699 87.7936C139.249 90.7677 139.07 92.1544 139.07 119.682V148.507L108.926 157.34C92.3333 162.215 75.2038 167.202 70.9326 168.431C64.5594 170.176 62.1889 172.434 58.0072 180.82C55.1225 186.411 52.7524 191.487 52.7524 191.912C52.7524 192.448 64.7159 188.155 79.3184 182.408C93.809 176.728 114.091 168.946 124.221 165.099ZM901.909 181.089C896.922 171.227 895.804 170.265 884.623 167.112C878.071 165.279 861.031 160.292 846.697 156.11L820.757 148.418V119.772C820.757 91.1257 820.757 91.1256 814.898 86.832C809.062 82.5609 809.062 82.5609 810.18 89.6273C810.806 93.4736 812.282 110.156 813.601 126.749C814.809 143.364 816.486 157.407 817.268 158.123C818.051 158.726 828.002 162.751 839.452 166.933C850.901 171.048 870.558 178.651 883.125 183.615C895.715 188.602 906.27 192.448 906.628 192.18C906.985 191.822 904.883 186.858 901.909 181.089ZM607.713 33.2972C605.253 29.7863 601.854 26.9911 600.199 26.9911C597.672 26.9911 597.919 28.3104 601.497 33.2972C603.956 36.6962 607.355 39.4916 609.01 39.4916C611.56 39.4916 611.201 38.1721 607.713 33.2972ZM80.8839 253.944C79.2291 252.29 75.6513 256.046 76.8589 258.037C77.7534 259.445 78.8713 259.267 79.9223 257.433C80.8839 255.957 81.3311 254.28 80.8839 253.855V253.944ZM391.248 32.0674C394.043 29.697 387.491 26.9911 378.68 26.9911C368.192 26.9911 368.103 27.0806 371.86 31.1953C374.834 34.5048 377.182 35.1309 383.041 34.0799C387.133 33.2972 390.823 32.4252 391.248 32.0674ZM864.877 208.527C861.635 205.195 861.367 205.195 860.07 208.527C859.376 210.45 859.376 213.581 860.07 215.504C861.367 218.747 861.635 218.747 864.877 215.504C868.187 212.194 868.187 211.747 864.877 208.527ZM860.674 181.603C860.428 181.357 855.351 179.165 849.314 176.817C843.298 174.447 833.772 170.601 828.003 168.342C817.604 164.227 817.604 164.228 817.604 170.086C817.604 174.805 820.153 177.69 831.245 185.896C838.758 191.398 846.966 198.643 849.403 201.975C853.876 207.99 853.875 207.99 857.543 195.065C859.533 187.909 860.942 181.871 860.674 181.603ZM134.598 179.769C140.278 175.319 142.38 172.256 141.865 169.035C141.15 164.675 140.635 164.764 120.375 172.882C108.926 177.421 99.2207 181.536 98.7958 181.871C98.4381 182.229 99.668 187.909 101.591 194.372L104.99 206.156L115.836 196.027C121.762 190.525 130.237 183.191 134.598 179.769ZM92.2438 345.048C92.2438 343.214 91.0138 339.904 89.4485 337.802C86.9216 334.224 86.2955 334.47 80.8839 341.649C77.6638 345.83 75.4724 349.587 75.8973 349.945C80.9735 354.216 85.2443 354.842 88.6657 351.779C90.6783 350.034 92.2438 346.971 92.2438 345.048ZM880.509 350.728C883.662 348.357 883.483 347.485 878.071 340.933C872.212 333.867 872.213 333.867 868.881 340.15C865.929 345.92 865.929 346.703 869.059 349.856C873.263 353.948 875.969 354.216 880.509 350.728ZM83.9474 328.008C83.9474 327.225 81.1519 324.609 77.7529 322.171C71.4468 317.699 71.4472 317.699 65.7672 324.43C58.0076 333.509 54.3398 338.943 55.212 339.636C55.5474 339.972 58.7008 341.827 62.0998 343.661C68.4059 346.971 68.4059 346.971 76.1655 338.227C80.4591 333.352 83.9474 328.79 83.9474 328.008ZM899.629 342.61C902.603 341.201 904.794 339.368 904.436 338.406C903.564 335.79 889.498 318.146 888.201 318.057C887.575 318.057 884.087 320.159 880.419 322.864L873.778 327.762L881.202 336.393C889.163 345.651 891.332 346.367 899.629 342.61ZM752.105 62.368C753.939 59.5056 749.489 51.9919 745.978 51.9919C743.63 51.9919 743.451 53.1996 745.196 58.1863C747.387 64.5595 749.914 66.0354 752.105 62.368ZM268.077 60.1989C275.077 57.5825 275.323 57.8284 255.241 49.1966C240.661 42.9799 237.866 42.3762 232.611 44.4782C226.774 46.9157 226.841 47.0052 244.15 54.5189C253.765 58.6112 261.793 62.1219 262.062 62.2114C262.241 62.3008 264.947 61.4064 268.077 60.1989ZM716.55 53.915C731.13 47.7878 732.359 46.8264 727.999 45.1716C721.536 42.8012 715.498 44.1206 699.174 51.5449C686.226 57.4932 685.891 57.8286 690.856 59.9307C696.894 62.4576 695.507 62.7257 716.55 53.915ZM293.235 51.9025C298.4 50.0688 306.07 40.2741 303.812 38.4404C301.71 36.7856 293.771 33.2972 292.027 33.2972C289.746 33.2972 281.45 47.9667 281.45 51.9025C281.45 54.6083 285.386 54.6083 293.235 51.9025ZM678.377 51.9025C678.377 48.2351 670.081 33.2972 668.068 33.2972C664.133 33.2972 655.479 38.1723 655.568 40.3638C655.658 44.1207 662.568 51.5448 666.928 52.5958C674.352 54.3401 678.377 54.0716 678.377 51.9025ZM50.136 264.768C55.7265 260.317 55.7263 260.318 49.532 252.446C35.3768 234.467 37.0318 234.467 34.3259 252.289C30.6586 277.179 30.6584 277.358 38.2616 272.885C41.6606 270.895 47.0053 267.227 50.136 264.768ZM926.62 263.471C925.837 256.292 924.629 247.303 923.914 243.546C922.527 236.547 922.527 236.547 912.822 248.533L903.139 260.496L913.873 268.256C919.821 272.55 925.412 276.128 926.373 276.217C927.245 276.396 927.335 270.537 926.552 263.471H926.62ZM74.9576 262.42C69.2776 256.65 66.9073 261.637 71.9835 268.793C76.6125 275.256 76.7021 275.255 77.3953 270.447C77.7531 267.742 76.7019 264.074 74.9576 262.42ZM890.371 261.011C887.419 258.037 882.074 263.717 882.164 269.933C882.164 275.345 882.163 275.345 887.24 269.15C890.37 265.394 891.6 262.241 890.371 261.1V261.011ZM882.253 254.995C879.637 252.379 876.931 254.369 878.854 257.612C879.636 258.842 881.202 259.267 882.342 258.573C883.818 257.701 883.729 256.471 882.253 254.995ZM906.806 246.341C915.796 235.339 916.937 232.812 912.643 232.812C908.283 232.812 893.971 251.238 895.447 254.995C896.14 256.829 897.012 257.97 897.459 257.522C897.884 257.075 902.088 252.021 906.806 246.341ZM65.946 254.034C67.5114 251.485 48.5708 232.454 45.1494 233.147C43.0697 233.595 44.9032 236.994 51.0975 244.597C59.6622 254.906 63.844 257.522 65.946 254.034ZM78.8714 244.865L85.6023 240.303L78.0886 231.314C69.5239 221.094 70.3067 221.363 60.2661 225.544L52.663 228.698L61.5852 239.096C66.4825 244.776 70.8434 249.405 71.3578 249.405C71.8944 249.405 75.2935 247.303 78.8714 244.865ZM895.715 241.533C905.576 229.48 905.666 229.122 898.599 225.455C890.46 221.273 888.447 222.056 880.33 232.365L873.688 240.661L880.509 245.022C889.073 250.456 888.201 250.702 895.715 241.533ZM91.7292 228.004C93.4735 224.158 93.116 222.145 90.2313 218.21C86.8322 213.759 86.0496 213.581 79.9223 216.108L73.2809 218.836L80.1011 225.813C88.1291 234.109 88.8445 234.199 91.7292 228.004ZM879.033 226.417C885.137 220.043 885.137 220.043 879.994 216.108C874.828 212.194 874.739 212.194 870.021 216.913C865.75 221.094 865.481 222.324 867.762 227.221C870.893 234.198 871.608 234.199 879.033 226.417ZM68.2267 214.9C96.6937 201.259 96.6937 201.259 95.3072 194.618C94.5245 191.04 93.6301 187.82 93.3841 187.551C92.758 186.769 47.8771 205.732 46.0434 207.476C44.5451 209.041 38.1721 228.608 39.2231 228.608C39.4915 228.608 52.5956 222.414 68.2267 214.9ZM918.86 222.928C915.885 208.079 914.566 206.939 890.371 196.63C877.535 191.219 866.711 187.126 866.264 187.551C865.839 187.999 865.302 191.308 864.967 195.065C864.43 201.796 864.609 201.975 890.371 214.9C904.615 221.966 917.205 228.004 918.166 228.25C919.195 228.429 919.463 226.081 918.86 222.928ZM99.064 209.645C98.013 208.594 95.5531 208.348 93.5629 209.041C90.231 210.361 90.2314 210.696 93.6305 214.363C96.873 218.031 97.3868 218.031 99.1534 214.989C100.272 212.887 100.272 210.785 99.064 209.645ZM817 479.041C821.294 476.067 821.361 474.86 820.243 448.115L819.102 420.251L837.618 414.572C847.748 411.441 864.967 406.364 875.79 403.323C895.536 397.733 895.536 397.733 901.395 386.887C904.615 381.028 906.27 376.153 905.062 376.153C903.743 376.153 894.91 379.374 885.227 383.22C869.931 389.414 867.583 389.861 866.801 386.887C866.018 384.092 865.571 384.271 864.43 387.849C863.29 391.248 857.274 394.401 839.273 401.132C823.821 406.812 815.524 410.904 815.524 412.917C815.524 416.405 811.768 462.717 810.538 474.412C809.576 482.977 810.448 483.581 817 479.041ZM134.173 448.383C134.866 424.97 134.173 421.996 127.442 421.929C124.825 421.929 123.596 426.021 121.673 441.741C119.235 461.577 119.235 461.577 125.004 466.563C128.135 469.359 131.378 471.707 132.071 471.707C132.854 471.707 133.815 461.219 134.173 448.383ZM836.388 464.193C841.017 458.602 837.618 421.929 832.475 421.929C824.693 421.996 824.089 424.366 825.297 448.383C826.616 473.026 827.757 474.681 836.388 464.193ZM117.491 430.382L118.273 419.133L95.3966 412.224C68.5621 404.106 68.6519 404.195 71.3578 409.16C72.7666 411.776 79.4973 414.661 92.4226 417.993L111.453 422.957L110.156 437.202C109.194 447.332 109.53 452.408 111.453 454.667C113.645 457.373 114.248 456.59 115.389 449.702C116.171 445.319 117.133 436.598 117.491 430.382ZM849.85 437.895V423.047L867.494 417.904C882.7 413.453 893.345 407.326 888.626 405.85C887.844 405.582 876.931 408.556 864.341 412.313C838.58 420.095 840.771 416.852 843.566 443.396C845.556 462.538 849.85 458.692 849.85 437.895ZM688.061 526.382C690.163 521.239 690.52 518.444 689.022 517.996C685.198 516.699 683.7 518.086 680.032 526.226C676.633 533.985 676.633 534.164 680.636 534.164C683.521 534.164 685.891 531.727 688.061 526.382ZM735.512 69.7922C742.489 66.8404 742.579 66.5722 740.388 59.9307C739.091 56.0844 737.771 52.6851 737.436 52.2379C737.078 51.9024 732.539 53.11 727.284 55.1226C722.051 57.1352 717.243 58.2757 716.728 57.739C716.013 57.1352 713.307 58.6112 710.601 61.071C705.637 65.4316 705.637 65.4316 714.358 69.0095C725.204 73.3925 726.679 73.482 735.512 69.7922ZM213.759 58.9691C214.453 55.995 214.542 53.0205 213.916 52.3273C211.747 50.2252 205.978 57.8285 207.275 61.1604C209.198 66.1248 212.172 65.0963 213.759 58.9691ZM136.7 391.785C133.48 389.504 125.004 382.169 118.005 375.527L105.169 363.474L101.591 374.141C99.668 380 98.5273 385.232 99.1534 385.836C99.6678 386.373 109.373 390.465 120.622 394.937C138.534 402.004 141.239 402.518 141.865 399.477C142.29 397.375 140.188 394.222 136.7 391.785ZM841.554 393.976C844.953 392.478 850.812 390.13 854.658 388.631C858.75 387.066 861.12 384.875 860.427 383.309C859.891 381.833 858.415 376.668 857.096 371.949L854.747 363.295L842.694 375.281C835.963 381.744 827.667 388.989 824.089 391.181C820.488 393.439 817.604 397.017 817.604 399.209C817.604 403.391 819.617 402.965 841.554 393.976ZM95.3966 373.962C96.1793 370.474 96.5149 367.231 96.09 366.895C94.2563 365.218 39.8268 338.585 39.3125 339.189C39.0442 339.547 40.0954 344.533 41.7502 350.213C44.7243 360.589 44.7243 360.589 67.9585 370.384C80.7944 375.796 91.8858 380.246 92.6014 380.246C93.384 380.246 94.5916 377.451 95.3966 373.962ZM890.728 370.719C914.566 360.679 915.796 359.471 918.86 344.354C920.067 338.406 920.067 338.406 892.204 352.382C876.931 359.985 864.095 366.538 863.648 366.895C862.597 367.857 865.571 380.335 866.89 380.335C867.494 380.335 878.228 375.975 890.728 370.719ZM265.729 527.433C263.806 521.149 264.32 521.328 256.382 524.124L249.293 526.561L256.56 529.177C266.601 532.778 267.294 532.688 265.729 527.433ZM703.535 524.302C697.676 521.932 696.111 521.932 694.702 524.124C690.789 530.318 692.622 531.727 701.701 529.446C710.512 527.187 710.512 527.187 703.535 524.302ZM257.433 517.124C273.668 510.572 273.847 510.415 268.077 508.045C263.023 506.032 259.96 506.659 244.575 513.032C231.046 518.712 227.803 520.792 230.777 521.932C237.329 524.548 240.303 523.945 257.433 517.124ZM729.05 521.932C732.002 520.792 728.782 518.712 715.499 513.211C700.74 506.994 697.072 506.211 691.124 507.956C684.236 509.879 684.236 509.879 700.561 516.789C717.153 523.766 722.14 524.638 729.05 521.932ZM214.363 510.237C212.082 502.902 210.003 501.225 207.632 505.071C205.53 508.403 208.504 515.045 212.351 516.073C214.363 516.61 216.108 517.124 216.286 517.303C216.465 517.392 215.593 514.24 214.363 510.237ZM751.837 510.751C753.76 503.416 748.438 499.391 746.425 506.659C745.822 508.649 744.681 511.802 743.898 513.725C742.758 516.521 743.362 517.035 746.604 516.163C748.863 515.559 751.233 513.121 751.837 510.751ZM238.738 509.879C246.252 506.815 252.267 503.774 252.267 503.148C252.267 502.455 248.086 500.263 243.009 498.183C235.227 494.941 232.521 494.673 226.417 496.685C217.516 499.659 217.159 500.263 219.417 508.738C221.609 516.878 221.787 516.878 238.738 509.879ZM740.231 508.135C742.4 500.979 742.311 500.8 735.065 497.736C731.04 496.081 727.194 494.673 726.501 494.673C724.063 494.673 707.47 501.94 707.56 502.991C707.627 504.557 730.883 515.134 734.64 515.291C736.631 515.38 738.822 512.674 740.231 508.135ZM205.888 498.608C227.468 491.005 226.774 491.453 221.43 488.657C218.12 486.824 213.76 487.874 199.247 493.979C186.925 499.145 182.117 502.03 184.041 503.237C185.628 504.199 187.014 504.982 187.193 505.071C187.372 505.071 195.848 502.186 205.888 498.608ZM774.11 501.94C774.11 500.8 767.043 496.864 758.389 493.197C745.017 487.517 741.975 486.823 737.436 488.926C732.449 491.184 733.142 491.631 750.518 498.094C768.967 504.892 774.289 505.787 774.11 501.94ZM172.524 491.005C171.83 487.875 170.869 480.182 170.243 473.898C168.499 455.293 166.061 448.294 157.765 437.47L149.804 427.161L151.123 437.56C151.816 443.24 152.957 456.769 153.74 467.682C155.126 487.696 157.407 495.724 160.985 493.555C162.036 492.928 164.563 493.376 166.576 494.516C172.434 497.915 173.731 497.132 172.524 491.005ZM797.165 491.631C804.679 486.466 804.679 486.466 806.087 465.065C806.781 453.37 807.921 439.997 808.614 435.458C809.844 427.072 809.844 427.072 801.548 438.074C793.945 448.115 792.894 451.089 789.83 471.349C785.291 501.225 784.777 500.017 797.165 491.631ZM194.796 490.044C199.425 488.299 200.476 486.913 199.515 483.492C198.822 481.054 198.285 477.99 198.285 476.783C198.285 473.272 182.654 463.589 179.948 465.334C178.204 466.385 178.114 470.231 179.59 479.131C180.731 485.951 181.692 492.325 181.692 493.286C181.692 494.248 183.347 494.427 185.27 493.644C187.283 492.839 191.554 491.184 194.886 490.044H194.796ZM779.186 484.811C779.879 479.31 780.841 472.758 781.355 470.231C782.675 464.193 777.956 464.014 768.698 469.783C764.337 472.489 761.274 476.336 760.402 480.361C758.836 487.696 758.389 487.092 767.736 491.184C777.956 495.567 777.777 495.724 779.186 484.811ZM208.683 482.195C208.683 481.054 207.722 480.092 206.581 480.092C205.441 480.092 204.48 481.054 204.48 482.195C204.48 483.335 205.441 484.297 206.581 484.297C207.722 484.297 208.683 483.335 208.683 482.195ZM755.236 482.195C755.236 481.054 754.364 480.092 753.313 480.092C752.284 480.092 750.786 481.054 750.093 482.195C749.4 483.335 750.272 484.297 752.016 484.297C753.85 484.297 755.236 483.335 755.236 482.195ZM146.315 444.022C144.907 425.596 143.61 410.3 143.341 410.032C143.162 409.786 128.068 403.838 109.798 396.928C91.6401 389.951 70.7537 381.9 63.5084 379.105L50.4042 374.051L56.0841 384.45C63.24 397.643 62.8823 397.375 82.8964 402.966C92.0649 405.582 108.837 410.569 120.107 414.147L140.635 420.52L139.249 448.048C137.84 475.106 137.84 475.643 142.559 478.863C145.779 481.144 147.545 481.501 148.149 479.914C148.574 478.617 147.702 462.449 146.315 444.022ZM104.744 436.777C104.744 426.714 104.744 426.714 92.8477 423.405C86.2956 421.571 80.6154 420.43 80.2799 420.788C79.4973 421.481 102.553 446.818 103.939 446.818C104.387 446.818 104.744 442.368 104.744 436.777ZM879.368 420.609C878.228 419.469 854.837 427.072 854.904 428.637C854.994 429.509 855.083 434.138 855.083 439.036L855.262 447.869L867.673 434.586C874.471 427.251 879.815 420.967 879.458 420.609H879.368ZM99.1534 354.037C98.5273 352.472 97.3198 351.242 96.3582 351.242C93.0262 351.242 91.8857 355.625 94.5245 358.666C97.4763 362.334 100.987 358.845 99.1534 354.037ZM866.353 357.705C866.957 356.676 866.085 354.753 864.341 353.254C862.686 351.868 861.299 351.242 861.299 351.868C861.299 352.472 860.673 354.485 859.98 356.229C858.661 359.807 864.251 361.037 866.353 357.705Z" fill="#DBA651"/>
</svg>
