<svg width="963" height="971" viewBox="0 0 963 971" fill="none" xmlns="http://www.w3.org/2000/svg">
<path fill-rule="evenodd" clip-rule="evenodd" d="M203.308 171.773V171.678C203.379 169.888 205.286 168.452 207.547 168.452C209.925 168.452 213.528 165.249 216.19 160.822C219.416 155.311 222.265 153.098 226.127 153.098C229.895 153.098 232.462 151.261 234.417 147.116C236.159 143.631 240.21 140.122 244.237 138.85C248.123 137.649 253.35 133.881 255.941 130.655C259.049 126.605 262.653 124.674 266.868 124.674C271.201 124.674 274.051 123.119 275.793 119.705C279.302 113.276 281.963 111.603 289.499 111.603C293.55 111.509 297.223 109.578 300.096 106.093C303.11 102.137 306.431 100.582 311.777 100.582C316.84 100.582 320.137 99.0986 322.445 95.8723C324.917 92.1986 327.767 91.1861 334.313 91.4687C340.295 91.7513 343.968 90.5503 346.724 87.4182C349.22 84.7571 353.436 83.085 358.051 83.085C362.267 83.085 368.343 80.989 372.016 78.2102C377.645 74.089 379.482 73.8064 385.181 75.9259C390.88 78.0454 392.269 77.7628 395.943 73.9007C399.428 70.1328 401.83 69.5677 409.931 70.6746C417.184 71.6872 420.316 71.1452 422.436 68.649C424.555 66.0821 427.593 65.6114 435.505 66.7183C442.029 67.5425 446.362 67.1889 447.28 65.7053C449.117 62.7616 458.396 62.6675 463.93 65.6111C467.039 67.2832 469.981 66.9064 475.139 64.2453C481.756 60.8306 482.605 60.8306 489.505 64.5985C495.016 67.5422 497.393 67.9192 499.348 65.9881C502.739 62.4792 512.112 62.7618 517.01 66.4355C520.024 68.8375 522.333 68.9317 527.396 67.0007C532.719 64.9754 535.213 65.258 541.007 68.3665C545.881 71.0512 550.309 71.7813 555.278 70.7687C560.506 69.756 563.544 70.3917 566.676 73.1705C569.808 76.02 572.847 76.6561 578.546 75.5493C584.716 74.4425 587.187 75.1016 591.049 78.9637C594.535 82.5433 598.139 83.7442 603.932 83.3674C609.537 83.0848 613.046 84.192 615.895 87.3241C618.556 90.362 622.606 91.8219 628.21 91.8219C634.757 91.8219 637.419 93.0229 640.268 97.356C644.955 104.539 642.388 107.105 636.689 101.03C633.369 97.5442 630.707 96.6259 626.092 97.5443C621.405 98.4627 618.462 97.4503 613.87 93.2114C609.184 88.8783 606.405 87.8891 601.365 88.8782C596.561 89.8908 593.617 88.9725 589.849 85.393C585.704 81.6251 583.137 80.8948 577.249 82.0016C571.644 82.9907 568.419 82.2608 564.109 78.7755C559.305 75.1017 557.209 74.6305 552.334 76.4674C547.624 78.3043 545.151 77.9513 539.9 74.6309C534.483 71.2162 532.27 70.8628 527.018 72.8881C521.955 74.8191 519.483 74.5364 514.325 71.4985C509.097 68.3665 506.884 68.1074 502.292 70.2268C497.864 72.2285 494.732 72.1581 487.832 69.9444C481.12 67.6365 478.366 67.6364 476.435 69.5674C473.115 72.8879 463.27 72.8879 459.973 69.5674C457.948 67.6364 455.546 68.0133 449.752 71.0511C443.418 74.5365 441.299 74.7248 436.424 72.5111C431.455 70.2268 429.524 70.486 423.354 74.3481C417.278 78.0454 415.16 78.3986 410.568 76.2791C405.881 74.1597 404.138 74.4425 399.074 78.493C394.459 82.0725 391.351 82.8259 385.628 81.7191C379.741 80.6123 377.079 81.3422 373.028 85.2043C368.978 88.9723 366.411 89.726 361.065 88.6191C355.743 87.4181 352.988 88.2422 347.737 92.6696C342.768 96.7907 339.447 97.8975 334.949 97.0732C330.074 96.0606 328.144 96.8849 325.106 101.501C322.256 105.999 319.69 107.106 312.955 107.106C306.337 107.106 303.77 108.306 300.92 112.616C298.518 116.313 295.292 118.15 291.336 118.15C287.403 118.15 283.353 120.34 279.561 124.674C275.699 129.101 271.743 131.197 267.527 131.197C263.006 131.197 260.345 132.963 257.684 137.649C255.282 141.865 251.985 144.266 247.84 144.737C243.884 145.185 240.846 147.305 239.457 150.437C238.091 153.569 234.134 156.23 229.071 157.596C224.291 158.891 220.876 161.199 220.876 163.036C220.876 167.722 212.798 174.999 207.735 174.999C205.286 174.999 203.379 173.562 203.308 171.773ZM445.609 969.417C328.05 960.586 216.825 908.165 134.331 822.516C66.4382 752.056 23.4608 667.419 6.08127 569.453C0.288105 536.978 -1.83167 470.097 1.77139 435.409C19.3393 267.996 124.017 119.257 275.888 45.9238C405.881 -16.9063 567.311 -15.1401 694.997 50.4453C706.771 56.4975 724.81 67.0949 734.913 73.9007C745.134 80.7065 755.072 87.3239 756.909 88.525C781.377 104.068 846.868 164.684 846.868 171.773C846.868 173.327 845.596 175.093 844.113 175.729C842.464 176.365 842.912 176.93 845.219 177.024C847.339 177.118 848.987 178.131 848.987 179.308C848.987 180.509 850.635 181.522 852.59 181.522C856.523 181.522 858.195 183.264 871.171 201.939C877.694 211.241 879.437 215.386 877.695 217.411C874.939 220.802 878.706 225.3 884.311 225.3C891.022 225.3 922.767 285.116 920.554 293.57C919.918 295.949 920.648 297.527 922.39 297.527C923.968 297.527 927.737 304.238 930.869 312.339C979.24 439.836 971.703 585.184 910.357 705.781C901.243 723.796 888.997 745.697 883.204 754.34C873.737 768.422 872.184 769.812 867.662 768.14C864.624 766.939 861.869 767.127 860.48 768.517C857.63 771.366 853.415 768.964 853.415 764.843C853.415 763.077 859.396 752.597 866.744 741.388C937.109 634.473 959.741 497.603 927.926 371.661C916.881 327.788 899.689 285.94 877.412 248.12C870.253 236.062 864.365 224.029 864.365 221.344C864.365 218.589 862.976 216.564 861.139 216.564C859.397 216.564 852.661 209.946 846.138 201.845C790.679 132.586 727.754 84.3801 652.867 53.7422C472.478 -20.0383 263.1 30.6638 134.967 179.214C77.2005 246.095 41.9708 320.511 25.4862 410.305C18.6804 447.749 18.6803 522.448 25.5803 562.459C51.2492 711.951 142.315 834.738 278.007 902.914C320.608 924.25 373.123 940.357 417.843 945.585C430.537 947.163 441.464 948.906 442.406 949.636C443.23 950.389 464.848 950.295 490.517 949.448C538.605 948.082 555.819 945.774 597.667 935.294C620.957 929.407 620.958 929.407 626.28 935.106C629.86 938.968 632.356 940.169 633.816 938.685C636.218 936.307 643.307 938.144 643.307 941.182C643.307 943.843 606.592 955.17 580.923 960.398C538.534 969.041 487.009 972.549 445.609 969.417ZM17.3141 588.669C17.3141 587.468 16.3016 586.456 15.1006 586.456C13.8996 586.456 12.8871 587.468 12.8871 588.669C12.8871 589.87 13.8996 590.883 15.1006 590.883C16.3016 590.883 17.3141 589.87 17.3141 588.669ZM934.353 347.923C934.353 346.651 933.436 345.733 932.235 345.733C930.963 345.733 930.044 346.651 930.044 347.923C930.044 349.124 930.963 350.042 932.235 350.042C933.436 350.042 934.353 349.124 934.353 347.923ZM927.831 319.333C927.831 318.132 926.442 316.555 924.699 315.919C922.862 315.189 922.132 313.258 922.862 311.233C923.78 308.925 923.309 308.289 921.66 309.396C918.34 311.421 918.34 315.636 921.66 318.957C924.887 322.183 927.831 322.371 927.831 319.428V319.333ZM448.457 939.604C380.753 933.081 333.56 919.94 279.49 892.505C140.949 822.139 50.6134 692.334 32.3861 537.52C30.3609 519.598 30.3606 515.548 32.951 513.782C35.2353 512.228 35.2352 511.498 33.1393 510.579C29.2772 509.001 29.6306 453.731 33.7753 424.459C48.3995 320.252 94.2034 230.646 170.833 156.324C240.94 88.3365 324.188 47.5016 420.505 33.7958C464.566 27.5317 555.725 30.8521 555.725 38.7647C555.725 41.1432 554.077 41.6142 548.637 40.6958C503.116 32.4064 432.821 35.4443 377.904 47.8549C238.185 79.5996 110.217 195.864 62.1996 334.782C43.2422 389.511 36.5307 429.074 36.5307 485.829C36.5307 561.635 51.5319 625.006 85.3724 691.51C140.125 799.319 241.67 883.509 356.944 916.902C401.194 929.689 426.934 932.986 480.203 933.081C531.799 933.175 552.782 930.702 592.604 920.199C616.719 913.77 615.07 913.958 613.492 918.009C608.711 930.419 500.431 944.573 448.457 939.604ZM664.006 931.715C663.252 929.784 663.183 927.193 663.913 925.992C664.643 924.815 664.36 923.237 663.182 922.507C662.076 921.871 660.497 922.319 659.767 923.52C657.365 927.288 654.256 925.898 654.256 921.117C654.256 918.009 655.27 916.902 657.365 917.726C659.037 918.362 661.062 917.35 661.792 915.513C662.617 913.205 664.924 912.475 668.503 913.111C672.012 913.77 673.944 913.205 673.944 911.368C673.944 907.153 678.725 906.399 682.94 910.002C686.449 913.04 686.449 913.676 683.317 918.457C681.386 921.4 678.536 923.237 676.888 922.601C675.027 921.871 672.084 924.25 669.612 928.394C666.197 933.999 665.113 934.658 664.006 931.715ZM644.507 923.802C643.848 922.695 644.955 921.212 646.886 920.388C651.125 918.833 653.056 920.105 651.031 923.426C649.288 926.181 646.155 926.369 644.507 923.802ZM429.877 920.953C389.23 916.337 336.598 901.265 301.18 883.956C260.439 864.081 254.551 860.501 257.684 857.369C259.238 855.815 263.925 857.557 272.756 862.997C297.883 878.163 340.46 895.449 375.148 904.468C413.982 914.594 444.242 917.538 494.45 916.243C559.587 914.594 599.975 905.386 659.672 878.446C687.272 865.941 689.299 865.282 689.299 868.79C689.299 869.968 688.098 870.981 686.732 870.981C685.248 870.981 682.587 872.37 680.656 874.113C675.499 878.728 638.69 894.53 613.492 902.82C558.857 921.023 490.046 927.758 429.877 920.953ZM630.142 910.096C634.664 907.883 676.512 889.208 686.544 884.875C688.38 884.051 688.827 884.875 687.909 887.277C685.79 892.788 646.886 910.826 634.923 911.839C625.644 912.569 625.173 912.381 630.142 910.002V910.096ZM691.418 910.638C691.418 909.531 692.972 908.071 694.903 907.318C699.778 905.481 700.155 905.669 700.155 909.343C700.155 911.109 698.224 912.569 695.822 912.569C693.443 912.569 691.418 911.745 691.418 910.638ZM452.32 904.562C449.117 901.336 447.634 901.265 440.098 903.738C432.279 906.305 430.984 906.14 425.191 901.901C419.68 897.757 418.103 897.568 411.863 899.876C405.598 902.278 404.303 902.089 399.805 897.756C395.754 893.988 393.094 893.258 386.476 894.365C379.835 895.448 377.268 894.718 373.123 890.856C368.979 886.994 366.506 886.358 360.242 887.465C353.719 888.737 351.787 888.101 347.549 883.226C343.498 878.54 341.378 877.786 335.491 878.893C329.603 880 327.414 879.176 322.986 874.49C319.219 870.439 315.544 868.79 309.94 868.79C303.77 868.79 301.18 867.401 297.506 862.338C293.738 857.016 291.807 856.097 286.65 857.11C281.516 858.123 279.561 857.181 275.44 851.482C272.214 847.172 268.446 844.77 265.031 844.77C261.829 844.77 257.024 841.826 252.715 837.046C248.758 832.713 243.601 829.416 240.846 829.416C237.62 829.416 234.488 826.825 231.544 821.786C228.53 816.628 225.397 814.132 222.077 814.132C217.108 814.132 211.597 809.257 209.384 802.923C208.654 800.992 205.145 798.778 201.565 798.142C196.879 797.129 194.477 795.01 192.828 790.229C191.251 785.896 187.954 782.599 182.985 780.48C177.639 778.266 175.166 775.605 174.248 771.084C173.424 766.68 171.022 764.089 166.335 762.252C161.272 760.416 159.153 757.943 158.14 752.786C157.222 748.358 155.008 745.25 151.711 743.955C146.271 741.929 142.056 735.665 142.056 729.425C142.056 727.211 139.112 723.796 135.509 721.7C130.446 718.827 128.892 716.449 128.892 711.386C128.892 706.794 127.432 704.038 124.017 702.178C117.588 698.881 115.822 696.126 115.822 689.037C115.822 685.364 113.796 682.043 110.311 679.641C106.355 677.074 104.894 674.13 104.894 668.879C104.894 663.91 103.129 660.142 99.3607 656.939C95.5928 653.619 93.944 649.945 93.944 644.788C93.944 640.196 92.1782 635.957 89.3287 633.39C86.0318 630.352 85.1131 627.408 85.8432 622.627C86.5732 617.918 85.4662 614.527 82.2635 611.018C79.1314 607.532 77.8362 603.67 78.213 598.136C78.5663 593.261 77.3889 588.763 75.081 586.291C72.5141 583.418 71.855 580.215 72.7734 575.434C73.6918 571.007 72.9619 566.862 70.654 563.377C68.1813 559.703 67.6157 555.747 68.5576 550.401C69.5703 545.15 68.911 541.217 66.4383 537.425C63.683 533.116 63.4946 531.091 65.5198 527.323C67.3567 523.72 67.3568 521.059 65.3315 516.278C63.8479 512.699 63.3064 506.717 64.1306 502.478C64.9549 498.145 64.4134 492.54 62.8356 489.149C60.7397 484.533 60.7397 482.343 62.8356 479.023C64.6018 476.173 65.0491 470.922 64.1306 464.116C63.2122 457.028 63.5889 452.977 65.2374 451.964C66.8858 450.881 67.2626 447.09 66.3441 440.849C65.3315 433.949 65.8731 429.993 68.3694 426.484C70.842 422.998 71.1245 420.526 69.5703 417.582C66.4382 411.695 69.6409 407.456 73.4324 412.519C77.3887 418.03 77.1065 426.578 72.6792 431.453C69.5707 434.962 69.4763 436.233 72.0432 441.037C74.6101 445.912 74.5159 447.561 71.1247 453.895C67.8043 460.065 67.6159 461.808 70.018 465.67C72.3258 469.367 72.4199 471.746 70.2063 477.822C68.0868 483.615 68.0869 486.559 70.018 491.08C72.0432 495.39 72.0432 498.051 70.1121 502.29C68.0869 506.811 68.2753 509.19 71.0306 514.63C73.7859 519.952 74.0684 522.542 72.1374 526.663C69.5705 532.386 71.0303 542.677 74.445 542.677C75.6225 542.677 75.9052 545.998 75.1752 550.119C74.1626 555.37 74.8929 559.232 77.554 563.377C80.5919 567.969 80.8742 570.183 78.9432 574.422C77.0121 578.637 77.3888 580.662 81.0626 585.372C84.2888 589.399 85.2076 592.908 84.3598 597.312C83.4414 601.833 84.2891 604.589 87.3977 607.438C90.5297 610.194 91.6365 613.702 91.3539 619.307C91.0007 625.006 92.178 628.586 95.5927 632C98.6306 634.944 100.373 639.536 100.373 643.963C100.373 648.744 101.857 651.97 104.8 653.807C107.744 655.644 109.204 658.964 109.204 663.745C109.204 668.879 110.947 672.388 115.728 676.626C119.778 680.112 122.274 684.516 122.274 687.836C122.274 691.157 125.124 696.22 129.08 700.176C132.848 703.944 135.321 708.254 134.779 709.831C133.39 713.505 135.062 715.884 142.597 720.593C146.554 723.16 148.579 726.387 148.579 729.966C148.579 733.828 150.604 736.584 155.291 739.268C159.247 741.458 162.473 745.321 163.203 748.924C163.933 752.597 167.254 756.554 171.846 759.215C176.462 761.993 179.217 765.29 179.217 768.14C179.217 771.272 181.595 773.768 186.659 775.864C191.345 777.795 194.854 781.21 196.22 785.26C197.892 789.853 200.364 791.972 205.333 792.985C210.585 793.997 213.057 796.211 215.459 802.004C217.838 807.703 220.052 809.728 223.726 809.728C228.883 809.728 236.159 815.71 236.159 820.019C236.159 822.798 241.223 825.083 247.369 825.083C249.865 825.083 253.256 827.838 255.376 831.629C258.32 836.669 260.628 838.153 266.044 838.153C271.295 838.153 274.239 839.801 277.724 844.77C281.045 849.456 284.177 851.293 288.769 851.293C293.102 851.293 297.058 853.413 300.732 857.463C304.971 862.338 307.632 863.445 312.601 862.715C317.476 862.079 320.325 863.162 324.376 867.495C328.144 871.64 331.817 873.194 337.516 873.194C342.767 873.194 346.818 874.772 349.762 877.881C353.083 881.484 355.65 882.214 360.713 881.201C365.776 880.189 368.813 881.201 373.947 885.534C379.74 890.409 381.507 890.856 387.018 888.925C392.364 886.994 394.459 887.371 399.169 891.045C403.573 894.53 406.516 895.19 413.605 893.989C420.505 892.788 423.354 893.353 426.745 896.39C430.536 899.782 431.997 899.97 438.803 897.474C445.42 895.095 447.281 895.284 452.156 898.392C457.125 901.713 458.867 901.807 466.403 899.334C473.774 896.932 475.798 897.026 480.838 899.97C485.995 903.008 487.29 903.102 490.964 900.418C496.216 896.555 501.82 896.461 507.519 899.97C511.028 902.184 512.677 902.184 515.715 899.97C522.803 894.907 525.652 894.365 532.176 896.838C537.686 898.863 539.547 898.581 544.869 894.624C550.309 890.668 552.053 890.315 556.833 892.505C563.827 895.731 562.815 895.919 568.985 890.503C572.847 887.183 576.332 886.264 581.936 886.9C587.659 887.63 591.144 886.547 595.736 882.755C600.352 878.987 603.46 878.069 608.335 878.987C613.398 880 616.248 879.176 620.393 875.219C624.255 871.64 628.022 870.251 633.179 870.627C638.878 870.981 641.281 869.897 644.13 865.564C646.791 861.42 649.547 860.054 655.529 860.054C661.322 860.054 664.548 858.57 667.68 854.614C670.812 850.657 674.11 849.103 679.549 849.103C683.6 849.103 686.991 848.091 686.991 846.89C686.991 842.745 695.727 835.939 701.167 835.939C704.464 835.939 707.503 834.102 709.175 831.064C712.377 824.8 715.321 822.869 721.396 822.869C724.623 822.869 727.472 820.585 729.685 816.157C731.97 811.848 735.384 809.093 739.623 808.245C743.58 807.421 747.159 804.854 748.808 801.439C750.386 798.401 753.329 795.104 755.449 794.092C757.544 792.985 760.96 791.336 763.079 790.324C765.199 789.311 767.223 786.532 767.67 784.342C768.777 778.266 772.263 774.687 776.973 774.687C779.54 774.687 782.2 771.908 784.226 767.033C786.063 762.724 789.831 758.485 792.775 757.284C796.19 756.012 798.497 752.974 799.415 748.547C800.24 744.237 802.712 740.917 806.41 739.268C809.895 737.596 812.463 734.299 813.31 730.343C814.04 726.575 816.702 722.972 819.74 721.606C823.06 720.122 824.897 717.461 824.897 713.953C824.897 710.75 827.557 706.323 831.419 702.837C835.187 699.611 838.037 694.925 838.037 692.075C838.037 689.39 840.534 684.987 843.477 682.326C846.868 679.476 848.987 675.237 848.987 671.563C848.987 667.795 850.824 664.192 853.862 662.073C857.277 659.694 858.549 656.845 858.196 652.323C857.631 645.612 862.41 638.995 867.755 638.995C871.9 638.995 871.806 642.574 867.567 644.152C865.542 644.976 864.365 648.273 864.365 653.148C864.365 658.682 862.787 662.261 858.831 665.676C855.534 668.526 853.415 672.741 853.415 676.344C853.415 680.206 851.483 683.503 847.88 685.811C844.112 688.307 842.464 691.416 842.464 695.937C842.464 700.341 840.722 703.473 836.93 705.969C833.727 708.065 831.514 711.574 831.514 714.612C831.514 717.556 828.946 721.606 825.437 724.361C822.14 726.928 818.915 731.709 818.35 734.935C817.62 738.35 814.864 741.835 811.449 743.484C807.964 745.156 805.303 748.641 804.479 752.503C803.631 756.648 801.158 759.591 797.014 761.334C792.963 762.982 790.02 766.397 788.654 770.895C787.265 775.699 784.885 778.172 781.094 779.091C777.703 779.821 774.476 782.952 772.451 787.474C770.237 792.514 767.388 795.104 762.985 795.928C758.463 796.847 755.991 799.06 754.437 803.464C752.129 810.176 746.783 814.038 740.165 814.038C737.693 814.038 735.197 816.628 733.643 820.679C731.617 826.001 729.873 827.202 724.433 827.202C719.276 827.202 716.992 828.686 714.496 833.56C711.293 839.801 707.148 842.556 700.884 842.556C699.047 842.556 694.62 845.594 691.134 849.362C686.731 854.166 683.41 855.815 680.278 854.991C677.146 854.166 674.109 855.721 670.082 860.219C665.749 865.093 662.617 866.577 657.554 866.2C652.773 865.941 649.1 867.495 644.861 871.734C640.363 876.326 637.702 877.339 633.369 876.232C629.036 875.126 626.563 876.232 622.23 880.824C617.732 885.699 615.518 886.547 609.913 885.44C604.661 884.427 601.907 885.157 598.045 888.737C594.088 892.599 591.427 893.164 584.527 892.152C577.627 890.951 575.225 891.586 571.928 895.284C568.608 898.957 566.206 899.593 558.858 898.392C552.147 897.474 549.108 897.945 546.989 900.418C543.951 904.209 534.484 904.845 529.515 901.713C527.301 900.347 524.075 901.077 519.201 904.021C512.489 908.165 511.759 908.236 505.235 904.845C498.971 901.619 498.053 901.619 494.544 904.751C489.858 908.99 483.428 909.178 477.894 905.127C474.315 902.443 472.856 902.443 467.793 905.127C459.974 909.084 456.747 908.989 452.32 904.468V904.562ZM721.208 898.227C722.221 894.271 721.679 892.882 719.018 892.882C717.086 892.882 715.509 891.422 715.509 889.655C715.509 885.793 722.879 881.578 728.107 882.402C730.227 882.755 731.899 881.672 731.899 879.812C731.899 878.069 738.329 871.899 746.147 866.106C753.966 860.313 768.589 849.009 778.621 840.908C788.559 832.807 797.932 825.813 799.415 825.459C800.781 825.083 800.24 826.189 798.12 827.838C796.001 829.604 794.353 831.7 794.353 832.548C794.353 833.372 796.001 833.914 798.12 833.631C806.41 832.807 806.857 833.82 802.547 842.556C795.907 856.003 743.203 896.838 726.177 901.713C720.29 903.361 720.031 903.196 721.208 898.227ZM773.464 857.746C775.207 860.69 783.402 860.784 783.402 857.934C783.402 856.733 784.886 855.721 786.629 855.721C788.466 855.721 789.925 854.614 789.925 853.248C789.925 850.94 787.263 851.222 772.451 854.614C770.614 854.99 767.86 855.438 766.282 855.532C764.728 855.626 764.091 856.733 764.821 858.028C765.834 859.583 767.13 859.583 769.155 857.84C771.157 856.192 772.452 856.192 773.464 857.746ZM698.507 899.052C699.684 895.378 706.23 891.681 708.161 893.518C708.985 894.46 707.784 896.555 705.476 898.322C700.343 902.184 697.4 902.537 698.507 899.052ZM470.358 885.346C470.358 882.214 485.36 875.408 492.26 875.408C498.054 875.408 499.159 874.772 496.663 873.194C494.002 871.451 494.191 871.075 498.053 871.075C502.363 871.075 518.659 855.721 518.47 851.859C518.47 850.94 516.351 852.965 513.878 856.356C507.52 864.834 494.379 870.98 481.945 871.263C476.151 871.451 473.209 871.993 475.329 872.558C477.448 873.1 479.096 874.113 479.096 874.772C479.096 877.527 471.089 881.837 465.956 881.931C457.384 882.025 450.954 876.138 445.067 862.903C439.627 850.563 437.884 838.977 441.935 841.473C443.23 842.297 444.148 839.259 444.148 833.914C444.148 815.71 455.264 801.251 473.208 796.376C482.134 793.997 490.046 794.916 501.915 799.979C505.141 801.251 505.683 801.086 504.294 798.872C503.116 796.847 503.375 796.47 505.235 797.577C506.695 798.495 507.332 799.79 506.696 800.426C506.06 801.086 508.439 804.948 511.948 808.998C519.86 817.924 521.602 824.164 520.213 838.341C519.388 847.172 519.578 848.444 521.886 845.406C526.76 838.694 523.817 857.11 518.565 865.47C510.464 878.634 502.739 883.509 489.857 883.862C483.617 883.956 476.624 884.686 474.41 885.346C472.196 886.076 470.358 886.076 470.358 885.346ZM459.409 864.269C456.371 861.796 452.155 857.652 450.036 854.991C445.985 850.21 445.985 850.21 448.364 854.991C450.578 859.583 460.893 868.885 463.554 868.79C464.284 868.696 462.446 866.671 459.409 864.269ZM491.789 862.244C494.379 862.244 497.04 861.325 497.77 860.124C498.5 858.853 500.714 857.934 502.834 857.934C505.236 857.934 507.52 854.708 509.451 848.632C511.029 843.475 513.784 837.682 515.527 835.751C518.094 832.807 518.188 831.983 515.81 831.064C514.138 830.428 511.476 824.894 509.828 818.748C508.179 812.578 505.683 807.797 504.387 808.08C500.266 808.904 483.524 801.086 483.429 798.307C483.335 796.305 482.605 796.47 480.674 798.778C476.718 803.559 464.189 809.729 460.987 808.528C459.315 807.892 457.195 811.094 455.358 816.817C453.804 821.951 451.048 827.744 449.305 829.698C446.527 832.713 446.62 833.56 449.564 835.939C451.401 837.517 452.886 840.531 452.886 842.745C452.886 844.958 453.898 847.36 455.099 848.091C456.277 848.821 457.288 851.293 457.288 853.695C457.288 856.357 458.772 857.934 461.527 857.934C463.835 857.934 466.403 858.853 467.133 860.124C467.886 861.325 470.265 862.244 472.478 862.244C474.598 862.244 477.73 863.822 479.284 865.753C481.945 868.955 482.416 868.955 484.7 865.753C486.184 863.822 489.316 862.244 491.789 862.244ZM480.203 857.275C478.46 850.469 480.203 847.078 483.618 850.563C484.984 851.953 485.077 854.708 483.782 858.122C481.756 863.35 481.757 863.351 480.203 857.275ZM492.26 820.773C492.26 819.666 494.285 817.641 496.663 816.346C501.444 813.779 502.551 816.158 498.407 820.302C495.204 823.434 492.26 823.717 492.26 820.867V820.773ZM479.096 812.107C479.096 809.728 480.108 807.232 481.309 806.502C482.51 805.772 483.523 806.055 483.523 807.232C483.523 808.433 484.065 811.024 484.795 812.86C485.713 815.145 484.983 816.346 482.675 816.346C480.673 816.346 479.096 814.509 479.096 812.107ZM469.251 811.942C468.521 810.741 468.428 809.728 468.97 809.728C469.535 809.728 471.561 809.163 473.492 808.433C476.059 807.42 476.623 808.08 475.61 810.647C474.032 814.603 471.277 815.239 469.251 811.942ZM488.845 811.66C486.914 808.527 488.304 807.892 493.179 809.634C496.947 811.024 496.946 811.283 493.814 812.578C491.789 813.308 489.575 812.955 488.845 811.66ZM471.843 858.664C469.724 856.545 469.982 853.507 472.29 853.507C473.397 853.507 474.857 854.991 475.517 856.827C476.789 860.124 474.504 861.325 471.843 858.664ZM487.927 856.733C487.927 854.991 489.411 853.507 491.154 853.507C492.991 853.507 494.45 854.425 494.45 855.438C494.45 856.545 492.991 858.029 491.154 858.664C489.128 859.489 487.927 858.664 487.927 856.733ZM463.742 849.291C466.78 843.663 469.723 841.921 471.56 844.864C472.384 846.16 471.183 848.632 468.97 850.304C463.177 854.708 461.081 854.237 463.742 849.291ZM495.556 850.469C492.354 848.185 491.788 846.607 493.531 844.864C495.297 843.028 496.663 843.31 498.688 845.688C502.927 850.752 500.619 854.237 495.556 850.469ZM504.387 846.348C503.469 844.134 503.282 841.732 504.035 841.002C506.225 838.789 508.085 841.92 507.072 846.254C506.154 850.116 505.965 850.116 504.387 846.348ZM457.195 843.852C457.195 841.921 458.207 840.366 459.409 840.366C460.61 840.366 461.622 841.379 461.622 842.462C461.622 843.569 460.61 845.147 459.409 845.877C458.207 846.607 457.195 845.689 457.195 843.852ZM477.447 842.203C473.585 838.341 474.127 830.687 478.649 825.083C482.605 820.302 482.605 820.302 486.82 828.215C490.141 834.291 490.587 836.951 488.75 839.895C485.713 844.676 480.933 845.688 477.447 842.203ZM498.783 833.725C498.783 829.227 502.292 828.215 507.238 831.441C510.275 833.372 509.451 834.291 502.645 836.669C499.89 837.682 498.783 836.952 498.783 833.725ZM456.182 833.819C455.357 832.642 456.37 831.629 458.207 831.629C460.067 831.629 462.352 831.629 463.176 831.535C464.094 831.441 465.108 832.454 465.579 833.725C466.592 836.669 457.948 836.763 456.111 833.819H456.182ZM457.195 822.798C457.195 820.302 458.207 818.842 459.409 819.572C460.61 820.302 461.622 822.327 461.622 824.07C461.622 825.813 460.61 827.296 459.409 827.296C458.207 827.296 457.195 825.271 457.195 822.798ZM503.375 822.328C506.979 815.522 506.885 815.522 508.086 821.691C508.91 826.095 508.344 827.296 505.047 827.296C501.444 827.296 501.185 826.566 503.469 822.328H503.375ZM464.942 818.56C462.729 816.063 461.339 813.685 461.999 813.12C463.364 811.659 472.573 818.371 472.573 820.867C472.573 824.258 469.158 823.152 464.942 818.56ZM693.796 884.05C693.702 882.214 696.48 878.987 699.966 876.962C708.255 872.087 709.621 872.276 706.771 877.622C705.476 880 702.534 881.931 700.344 881.931C698.036 881.931 695.633 883.226 695.091 884.686C694.361 886.547 693.891 886.358 693.796 884.05ZM718.453 868.131C722.221 864.175 732.064 856.192 740.165 850.469C783.025 820.396 826.733 774.498 856.264 728.506C918.529 631.459 940.807 504.221 915.491 388.404C906.849 348.488 883.394 289.049 863.165 255.75C857.536 246.566 855.793 241.785 857.371 240.207C860.314 237.263 869.311 251.346 885.136 283.35C904.729 323.101 917.987 364.76 926.912 414.638C933.718 452.718 931.599 559.327 923.78 572.208C923.05 573.409 922.226 577.907 921.943 582.24C921.025 595.287 906.495 642.032 894.885 668.879C881.651 699.893 862.692 732.18 840.156 762.158C822.211 785.99 782.766 827.202 777.891 827.202C776.219 827.202 774.571 828.686 774.194 830.334C773.37 834.102 740.165 860.054 736.208 860.054C734.654 860.054 733.077 860.784 732.629 861.702C731.805 863.633 714.779 875.408 712.942 875.408C712.212 875.408 714.685 872.087 718.453 868.131ZM692.783 863.445C694.361 859.394 700.978 858.758 699.589 862.809C699.141 864.269 697.117 865.847 695.091 866.2C692.525 866.671 691.865 865.847 692.783 863.445ZM705.476 857.652C704.746 856.357 704.465 855.179 704.936 854.896C756.368 819.29 779.352 799.32 807.493 765.667C819.456 751.49 829.772 740.823 830.596 742.118C834.835 748.924 784.321 803.37 746.147 832.995C725.071 849.362 707.149 860.313 705.571 857.652H705.476ZM231.473 844.134C146.012 782.764 86.4791 697.138 61.1869 599.078C31.2085 482.696 49.4121 356.589 110.405 258.246C166.712 167.369 248.758 101.501 346.088 69.0259C452.979 33.4191 566.771 41.0491 667.963 90.5502C707.974 110.143 763.62 148.6 763.62 156.583C763.62 158.443 764.727 159.268 766.117 158.443C771.627 155.029 817.902 207.002 843.194 244.988C864.53 277.204 898.394 349.595 894.155 353.81C892.507 355.576 886.243 350.136 886.243 347.098C886.243 342.035 870.605 305.063 860.761 286.859C831.701 232.766 797.014 189.434 754.248 153.828C623.243 44.558 448.199 22.0211 298.424 94.9539C212.139 136.99 142.056 206.084 99.4548 291.003C54.3811 380.68 41.9704 476.903 62.482 577.365C83.6294 681.407 147.19 778.078 234.488 838.883C245.085 846.159 253.727 853.413 253.727 854.991C253.727 859.583 251.419 858.476 231.473 844.134ZM805.209 818.748C805.209 817.735 809.707 812.766 815.052 807.797C820.469 802.828 824.991 797.954 825.085 797.129C825.085 796.211 828.476 791.784 832.526 787.192C839.52 779.279 839.968 779.09 841.357 783.518C842.652 787.474 844.207 788.11 850.377 787.38C854.427 786.909 857.724 787.38 857.724 788.392C857.724 790.418 844.678 798.589 841.546 798.495C840.439 798.401 838.697 799.979 837.59 801.91C835.188 806.314 831.514 806.408 831.514 802.098C831.514 800.261 830.5 798.778 829.299 798.778C828.098 798.778 827.086 800.261 827.086 802.098C827.086 803.841 825.343 805.395 823.153 805.395C820.751 805.395 817.337 808.527 814.959 813.025C811.191 819.925 805.209 823.528 805.209 818.748ZM480.744 790.771C482.228 790.135 484.7 790.135 486.278 790.771C487.738 791.43 486.561 791.878 483.523 791.878C480.485 791.878 479.284 791.43 480.744 790.771ZM853.415 775.699C853.415 773.839 854.427 772.826 855.604 773.58C856.805 774.404 857.724 775.864 857.724 777.065C857.724 778.172 856.805 779.091 855.604 779.091C854.427 779.091 853.415 777.536 853.415 775.699ZM355.366 756.648C359.134 744.049 361.161 740.634 364.764 740.093C368.814 739.527 369.991 741.458 373.947 754.528C376.443 762.912 378.469 770.354 378.469 771.084C378.469 774.404 371.828 772.19 369.733 768.14C368.437 765.761 365.775 763.736 363.939 763.736C362.078 763.736 359.983 765.761 359.323 768.14C358.782 770.542 356.474 772.567 354.354 772.567C350.775 772.567 350.774 771.461 355.366 756.648ZM367.424 757.755C367.424 756.836 366.505 754.623 365.304 752.786C363.561 750.219 363.185 750.478 363.185 754.434C363.091 757.189 364.103 759.403 365.304 759.403C366.505 759.403 367.518 758.673 367.424 757.755ZM380.659 770.73C380.659 769.718 384.074 764.089 388.313 758.108C396.037 747.346 396.037 747.346 389.42 746.71C385.464 746.263 382.778 744.685 382.778 742.848C382.778 740.54 385.722 739.716 393.729 739.716C406.987 739.716 407.717 742.212 398.156 756.106L391.516 765.667L398.51 766.397C402.278 766.774 405.88 768.234 406.327 769.812C406.987 771.814 403.573 772.567 393.917 772.567C386.641 772.567 380.659 771.743 380.659 770.73ZM411.296 756.106C411.296 738.35 412.215 737.337 425.921 741.105C436.142 743.766 434.752 758.767 424.273 760.887C419.304 761.805 417.843 763.36 417.843 767.316C417.843 770.448 416.548 772.567 414.523 772.567C411.956 772.567 411.296 769.247 411.296 756.106ZM425.474 750.666C425.474 748.83 423.801 747.087 421.706 746.71C418.927 746.168 417.843 747.346 417.843 750.666C417.843 753.987 418.927 755.094 421.706 754.623C423.801 754.152 425.474 752.409 425.474 750.666ZM459.409 760.321C459.409 753.421 458.584 748.735 457.383 749.465C456.276 750.125 454.722 749.748 454.086 748.547C452.602 746.262 459.502 741.835 464.754 741.835C467.509 741.835 468.145 744.779 468.145 757.189C468.145 771.084 467.792 772.567 463.836 772.567C459.973 772.567 459.409 771.084 459.409 760.321ZM476.882 771.178C476.882 770.448 479.92 766.491 483.523 762.347C493.178 751.396 492.26 747.181 480.486 748.358C477.99 748.641 476.788 747.723 477.447 745.886C477.895 744.332 481.945 742.659 486.278 742.306C497.394 741.388 500.902 747.817 494.826 758.202C490.517 765.385 490.517 765.573 494.638 766.68C503.021 768.799 498.783 772.567 487.927 772.567C481.851 772.567 476.976 771.908 476.976 771.178H476.882ZM503.21 768.964C503.21 766.586 504.576 765.762 507.331 766.492C509.639 767.127 512.677 766.868 514.137 765.926C517.457 763.925 515.056 759.403 510.746 759.403C505.871 759.403 506.979 753.516 512.207 752.15C518 750.572 515.433 745.792 509.263 746.71C506.696 746.993 504.294 746.074 503.752 744.496C503.022 742.306 505.141 741.741 512.3 742.306C521.602 742.942 521.791 743.131 521.886 750.666C521.956 754.811 522.709 759.497 523.628 760.981C524.546 762.441 524.263 765.667 522.898 768.046C519.86 773.839 503.21 774.593 503.21 768.964ZM540.371 769.247C540.371 767.221 538.346 765.926 535.026 765.926C526.831 765.926 526.382 762.347 533.094 751.679C542.114 737.502 548.283 738.067 549.649 753.162C550.309 759.403 550.309 766.209 549.744 768.517C548.449 773.297 540.371 773.933 540.371 769.247ZM540.371 756.012C540.371 754.081 539.454 753.162 538.253 753.893C537.052 754.717 536.038 756.177 536.038 757.378C536.038 758.485 537.052 759.403 538.253 759.403C539.454 759.403 540.371 757.849 540.371 756.012ZM555.725 769.435C555.725 767.316 557.751 766.397 561.707 766.68C570.821 767.222 571.269 759.78 562.249 757.943C556.55 756.836 555.537 755.824 556.55 751.961C557.28 749.465 557.845 746.168 557.845 744.59C557.845 742.942 561.166 741.929 566.676 741.929C577.721 741.929 578.993 747.723 568.325 749.018L561.165 749.842L568.042 752.597C576.143 755.824 578.356 761.711 573.929 768.046C570.161 773.486 555.725 774.593 555.725 769.435ZM582.948 767.127C576.143 756.742 584.244 741.929 596.655 741.929C603.555 741.929 603.012 745.509 595.83 747.275C590.037 748.735 590.037 748.735 596.937 752.974C608.264 759.874 605.392 772.567 592.534 772.567C588.483 772.567 585.256 770.73 582.948 767.127ZM596.208 762.535C596.208 760.227 594.464 758.037 592.439 757.661C588.577 756.93 586.811 763.548 590.037 766.774C592.604 769.341 596.208 766.868 596.208 762.535ZM436.424 759.403C437.154 758.202 440.193 757.189 443.136 757.189C446.08 757.189 448.457 758.202 448.457 759.403C448.457 760.604 445.42 761.617 441.746 761.617C437.884 761.617 435.67 760.698 436.424 759.403ZM831.514 738.515C831.514 732.91 845.691 713.599 848.446 715.248C850.189 716.354 848.445 720.782 842.911 729.33C834.645 742.024 831.514 744.59 831.514 738.515ZM562.814 720.688C555.82 713.693 555.726 713.411 560.789 713.411C563.638 713.411 568.042 711.103 570.727 708.348C575.507 703.19 575.507 703.19 567.783 699.069C563.544 696.761 560.412 693.912 560.789 692.711C561.613 690.332 577.627 689.485 577.627 691.887C577.627 695.466 584.432 695.278 589.307 691.416C598.962 683.786 604.215 688.755 595.101 696.95C591.427 700.341 590.956 702.649 592.157 712.304C593.9 727.117 589.943 730.154 584.974 717.838C581.394 708.819 581.394 708.819 576.331 713.599C573.576 716.166 570.986 720.499 570.633 723.066C569.997 727.658 569.62 727.588 562.814 720.688ZM426.581 707.994C426.581 695.937 426.58 695.937 434.21 695.937C438.449 695.937 441.935 696.95 441.935 698.151C441.935 699.328 439.909 700.341 437.531 700.341C435.129 700.341 433.199 701.259 433.199 702.46C433.199 703.661 435.129 704.674 437.531 704.674C439.909 704.674 441.935 705.687 441.935 706.888C441.935 708.065 439.909 709.078 437.531 709.078C435.129 709.078 433.199 710.561 433.199 712.304C433.199 714.141 435.129 715.625 437.531 715.625C439.909 715.625 441.935 716.637 441.935 717.838C441.935 719.016 438.449 720.028 434.21 720.028C426.58 720.028 426.581 720.028 426.581 707.994ZM446.268 707.994C446.268 694.194 450.389 691.698 456.018 701.919C459.221 707.995 459.219 707.995 459.314 701.919C459.408 698.151 460.609 695.937 462.729 695.937C465.201 695.937 465.956 698.692 465.956 707.994C465.956 722.242 461.81 724.173 455.64 712.869L451.779 705.781L451.049 712.869C449.942 724.644 446.268 720.852 446.268 707.994ZM474.787 710.185C474.787 702.837 473.845 700.341 471.466 700.341C469.63 700.341 468.145 699.328 468.145 698.151C468.145 696.95 472.102 695.937 476.882 695.937C481.757 695.937 485.713 696.95 485.713 698.151C485.713 699.328 484.253 700.341 482.416 700.341C479.92 700.341 479.096 702.837 479.096 710.185C479.096 715.625 478.083 720.028 476.882 720.028C475.705 720.028 474.787 715.625 474.787 710.185ZM490.047 707.806C490.047 695.655 490.047 695.655 497.229 696.29C503.941 697.044 504.294 697.491 504.482 705.969C504.671 710.938 505.4 716.072 506.224 717.462C507.166 718.922 506.507 720.028 504.671 720.028C502.928 720.028 500.996 718.003 500.337 715.625C499.795 713.223 498.147 711.197 496.851 711.197C495.556 711.197 494.45 713.223 494.45 715.625C494.45 718.003 493.461 720.028 492.26 720.028C491.059 720.028 490.047 714.518 490.047 707.806ZM500.525 702.931C500.996 701.448 499.796 700.341 497.96 700.341C496.029 700.341 494.45 701.919 494.45 703.756C494.45 707.618 499.159 706.982 500.525 702.931ZM514.137 714.424C514.137 711.386 512.678 705.969 510.841 702.366C507.073 695.113 510.557 693.182 515.432 699.799C518.093 703.379 518.283 703.379 519.672 699.799C520.496 697.68 522.615 695.937 524.263 695.937C526.924 695.937 526.831 696.95 523.981 702.366C522.144 705.969 520.684 711.386 520.684 714.424C520.684 717.909 519.483 720.028 517.364 720.028C515.338 720.028 514.137 717.909 514.137 714.424ZM848.987 711.857C848.987 710.75 854.78 698.598 861.963 684.893C884.311 641.373 897.734 598.89 904.917 548.188C909.061 519.128 909.062 453.637 904.823 425.942C903.081 414.073 902.067 403.5 902.703 402.581C903.363 401.568 902.798 400.085 901.432 399.26C900.137 398.436 899.596 396.411 900.326 394.669C900.962 392.926 900.514 389.888 899.407 387.768C897.57 384.354 890.67 360.993 890.67 357.955C890.67 357.225 891.941 356.683 893.613 356.683C896.557 356.683 904.728 387.297 910.804 421.256C915.137 445.159 914.313 534.223 909.509 560.245C900.136 611.677 885.324 654.82 863.612 694.736C855.063 710.279 849.082 717.367 849.082 711.857H848.987ZM868.769 629.527C868.769 627.95 869.404 625.924 870.323 625.006C871.17 624.182 871.618 620.32 871.241 616.363C870.888 611.489 872.089 608.074 875.033 605.319C878.33 602.375 879.154 599.62 878.235 595.028C877.411 590.977 878.236 586.738 880.732 583.065C883.016 579.391 883.958 575.34 883.016 571.831C882.192 568.346 883.016 564.296 885.229 560.881C887.726 557.113 888.363 553.062 887.444 548.023C886.526 543.054 887.161 539.003 889.375 535.494C892.13 531.373 892.318 529.16 890.198 523.626C888.079 518.021 888.268 515.901 891.495 510.932C894.344 506.717 894.72 504.409 893.048 502.666C889.916 499.629 889.916 491.174 892.954 485.546C894.72 482.343 894.626 480.318 892.695 478.01C890.929 475.891 890.576 471.204 891.495 464.022C892.413 456.933 892.131 452.812 890.388 451.799C888.834 450.787 888.361 446.737 889.28 440.567C890.198 433.478 889.563 429.357 886.973 425.4C884.312 421.256 884.029 419.325 885.889 417.394C889.469 413.885 888.998 409.104 884.782 404.418C879.813 398.907 882.945 396.599 888.644 401.757C892.224 404.96 892.954 407.55 891.942 413.696C891.117 418.948 891.776 422.998 893.872 425.754C897.664 430.817 898.111 438.094 894.791 441.391C892.954 443.133 893.331 445.63 896.18 450.41C899.595 456.109 899.689 457.852 897.192 463.833C895.073 468.991 894.98 471.393 896.911 473.23C899.949 476.267 900.137 484.722 897.287 490.067C895.898 492.634 895.992 496.214 897.734 500.735C899.76 506.058 899.689 508.648 897.287 513.052C894.885 517.479 894.791 519.763 896.911 524.379C899.124 529.16 898.936 531.091 895.992 535.589C893.519 539.356 892.859 543.313 893.872 548.565C894.885 553.816 894.249 557.867 892.035 561.258C889.845 564.484 889.092 568.982 889.917 573.762C890.764 579.014 890.105 582.052 887.633 584.171C885.419 585.914 884.123 590.506 884.123 596.299C884.123 601.928 882.852 606.708 880.827 608.357C878.99 609.911 877.505 614.715 877.505 619.119C877.505 626.654 874.467 632.471 870.511 632.471C869.592 632.471 868.769 631.176 868.769 629.527ZM198.998 617.188C198.998 615.728 294.28 614.974 473.68 614.974C655.435 614.974 748.361 615.727 748.361 617.093C748.361 618.577 655.364 619.307 473.68 619.307C294.209 619.307 198.998 618.577 198.998 617.188ZM353.436 599.902C350.963 595.852 347.925 533.752 349.032 509.378C349.668 495.861 352.164 466.777 354.448 444.805C356.85 422.904 358.781 398.907 358.781 391.631V378.301L367.801 383.341C380.494 390.524 395.024 407.456 398.886 419.678C400.911 426.131 402.559 443.416 403.384 466.141C404.396 497.886 405.88 511.121 412.403 550.684C413.887 559.609 414.052 559.703 420.787 557.937C424.649 557.019 432.374 555.559 438.073 554.829C447.539 553.533 448.457 553.816 448.457 557.866C448.457 562.553 445.797 563 421.706 563.377C417.09 563.471 415.631 564.578 415.725 567.875C415.725 570.56 416.359 571.29 417.372 569.712C418.196 568.346 425.38 566.862 433.199 566.509C449.306 565.591 447.634 563 446.715 588.481C446.362 599.149 446.362 599.149 436.236 599.996C428.959 600.538 425.756 599.808 424.273 597.406C422.624 594.651 422.342 594.745 422.247 597.971C422.247 601.268 419.94 601.833 405.787 601.833C392.905 601.833 389.42 601.174 389.42 598.607C389.42 596.299 392.622 595.287 401.453 594.839C408.094 594.462 413.511 593.191 413.511 591.99C413.511 590.6 402.843 589.776 386.1 589.776C369.45 589.776 358.687 590.6 358.593 591.99C358.593 593.191 360.618 594.651 363.091 595.287C365.681 595.852 367.966 597.312 368.154 598.513C368.72 601.362 355.179 602.752 353.436 599.996V599.902ZM412.969 583.794C412.216 581.769 404.679 581.039 384.991 581.039C365.398 581.039 357.769 581.769 357.11 583.794C356.38 585.82 362.926 586.456 384.991 586.456C407.081 586.456 413.605 585.82 412.969 583.794ZM419.304 574.963C418.668 573.503 418.197 574.681 418.197 577.719C418.197 580.757 418.668 581.958 419.304 580.474C419.94 578.92 419.94 576.541 419.304 574.963ZM411.296 575.529C411.296 574.233 400.723 573.315 383.885 573.315C367.141 573.315 356.568 574.233 356.568 575.529C356.568 576.894 367.141 577.719 383.885 577.719C400.723 577.719 411.296 576.894 411.296 575.529ZM410.189 566.768C409.365 565.497 397.402 564.578 381.601 564.578C364.928 564.578 354.354 565.402 354.354 566.768C354.354 568.158 365.398 568.982 382.966 568.982C401.453 568.982 411.037 568.158 410.189 566.768ZM408.541 558.597C409.271 556.477 403.031 555.841 381.954 555.841C356.662 555.841 351.694 556.854 355.933 560.975C358.688 563.824 407.528 561.54 408.541 558.597ZM406.894 550.401C406.894 547.646 402.56 547.104 380.659 547.104C358.782 547.104 354.354 547.646 354.354 550.401C354.354 553.062 358.782 553.628 380.659 553.628C402.56 553.628 406.894 553.062 406.894 550.401ZM404.68 541.57C404.68 538.721 401.1 538.273 380.306 538.815C363.091 539.262 355.555 540.204 354.919 542.135C354.26 544.231 360.053 544.891 379.387 544.891C400.723 544.891 404.68 544.325 404.68 541.57ZM404.209 533.375C403.479 531.444 395.943 530.431 378.822 530.078C358.052 529.513 354.354 529.89 354.354 532.739C354.354 535.589 358.405 536.154 379.741 536.154C399.075 536.154 404.868 535.494 404.209 533.375ZM402.56 525.203C402.56 523.814 393.093 522.99 378.469 522.99C363.845 522.99 354.354 523.814 354.354 525.203C354.354 526.499 363.845 527.417 378.469 527.417C393.093 527.417 402.56 526.499 402.56 525.203ZM401.453 517.573C401.453 516.278 391.704 515.077 377.904 514.724C356.38 514.158 351.694 515.171 355.933 519.41C358.311 521.789 401.453 520.046 401.453 517.573ZM400.347 508.742C400.347 506.057 396.319 505.516 377.362 505.516C358.405 505.516 354.354 506.057 354.354 508.742C354.354 511.497 358.405 512.039 377.362 512.039C396.319 512.039 400.347 511.497 400.347 508.742ZM399.805 500.547C399.169 498.616 392.622 497.792 377.362 497.792C362.078 497.792 355.555 498.616 354.919 500.547C354.26 502.667 359.7 503.302 377.362 503.302C395.118 503.302 400.535 502.667 399.805 500.547ZM398.156 492.352C398.156 491.08 389.867 490.162 377.55 490.162C366.129 490.162 356.191 491.174 355.461 492.352C354.637 493.741 361.984 494.566 376.16 494.566C389.419 494.566 398.156 493.647 398.156 492.352ZM398.156 483.615C398.156 482.343 389.773 481.401 377.362 481.401C364.928 481.401 356.568 482.343 356.568 483.615C356.568 484.91 364.928 485.829 377.362 485.829C389.773 485.829 398.156 484.91 398.156 483.615ZM396.484 475.985C395.66 472.5 358.217 473.135 357.11 476.527C356.38 478.74 360.712 479.211 376.632 478.74C388.854 478.387 396.861 477.28 396.484 475.891V475.985ZM397.049 468.261C397.968 466.871 391.609 466.047 379.646 466.047C369.355 466.047 360.242 466.047 359.323 465.953C358.499 465.858 357.393 466.871 357.039 468.167C355.933 471.204 395.212 471.393 397.049 468.261ZM397.049 459.524C397.968 458.134 391.257 457.31 378.564 457.31C366.883 457.31 358.781 458.229 358.781 459.524C358.781 460.795 366.412 461.737 377.269 461.737C387.395 461.737 396.319 460.725 397.049 459.524ZM395.943 450.787C395.943 449.492 388.312 448.573 377.362 448.573C366.411 448.573 358.781 449.492 358.781 450.787C358.781 452.059 366.411 452.977 377.362 452.977C388.312 452.977 395.943 452.059 395.943 450.787ZM397.049 444.24C397.874 442.874 394.647 441.956 388.948 441.768C371.663 441.391 367.048 438.094 383.533 437.905C400.441 437.623 402.112 433.384 385.463 433.125C368.06 432.842 364.292 429.263 381.224 429.074C399.263 428.792 401.101 424.647 383.344 424.105L370.815 423.728L382.426 422.904C399.428 421.703 396.131 417.017 377.716 416.193C366.129 415.628 363.091 416.193 363.091 418.76C363.091 420.526 364.387 422.457 365.87 423.093C367.707 423.729 367.424 424.199 365.116 424.388C362.831 424.458 361.725 426.578 361.725 431.099C361.725 435.503 362.831 437.717 365.116 437.811C367.329 437.811 366.694 438.635 363.562 439.931C360.807 441.037 359.135 442.968 359.888 444.146C361.631 447.09 395.307 447.09 397.049 444.24ZM389.42 411.412C389.42 410.117 383.532 409.199 376.255 409.199C368.978 409.199 363.091 410.117 363.091 411.412C363.091 412.613 368.978 413.531 376.255 413.531C383.532 413.531 389.42 412.613 389.42 411.412ZM383.885 402.581C383.155 401.38 378.728 400.462 374.042 400.462C369.45 400.462 364.927 401.38 364.197 402.581C363.373 403.947 367.142 404.795 374.042 404.795C380.942 404.795 384.709 403.947 383.885 402.581ZM372.488 394.574C371.004 394.033 368.06 393.939 365.941 394.574C363.751 395.116 365.023 395.587 368.626 395.681C372.205 395.681 373.948 395.21 372.488 394.669V394.574ZM376.797 600.35C373.029 598.795 373.406 595.192 377.362 595.192C379.199 595.192 380.659 596.676 380.659 598.513C380.659 600.35 380.4 601.739 380.117 601.645C379.741 601.457 378.375 601.009 376.797 600.35ZM524.829 600.161C505.966 599.431 505.965 599.431 504.576 591.26C503.846 586.832 503.281 578.825 503.21 573.597C503.21 564.013 503.21 564.013 511.382 565.308C515.903 566.132 525.182 566.697 532.082 566.697C542.02 566.768 544.681 567.522 545.505 570.56C546.165 573.221 546.517 572.655 546.706 568.888C546.894 564.201 546.07 563.471 539.9 563.377C504.222 562.906 500.997 562.459 500.997 557.937C500.997 555.276 502.457 553.628 504.859 553.722C511.194 553.816 541.008 557.866 545.247 559.232C547.719 559.962 549.202 559.327 549.202 557.396C549.202 555.276 547.271 554.64 542.844 555.276C539.358 555.841 532.906 554.546 528.597 552.427C523.628 550.119 518.187 549.2 514.137 550.048C510.557 550.684 507.614 550.872 507.614 550.307C507.614 549.671 509.004 539.639 510.746 527.864C512.489 516.184 514.514 493.741 515.339 478.104C516.54 455.567 517.834 448.008 521.319 441.579C525.841 433.29 543.126 419.136 545.599 421.609C546.353 422.363 546.989 428.062 546.989 434.137C547.083 440.284 548.002 451.705 549.109 459.524C550.31 467.342 551.957 485.098 552.781 498.898C554.901 532.197 557.374 520.776 559.14 469.367C560.6 427.332 562.908 417.653 575.036 404.324C582.501 396.034 600.893 383.624 602.824 385.555C603.366 386.026 606.498 404.607 609.725 426.861C614.976 462.821 615.613 473.677 615.707 528.429C615.801 562.176 615.141 592.437 614.222 595.758C612.574 601.739 612.573 601.739 578.168 601.268C559.21 601.08 535.215 600.538 524.829 600.161ZM544.328 579.838C544.328 574.963 544.14 575.058 542.562 580.945C540.278 590.247 540.278 598.136 542.562 590.789C543.574 587.845 544.328 582.876 544.328 579.838ZM593.452 593.544C584.621 593.191 570.822 593.191 562.721 593.544C554.714 594.015 561.896 594.368 578.734 594.368C595.548 594.368 602.189 594.015 593.452 593.544ZM607.699 587.021C608.429 584.901 601.717 584.265 578.898 584.265C553.7 584.265 549.202 584.807 549.202 587.562C549.202 590.412 553.323 590.883 577.979 590.318C598.679 589.87 607.064 588.952 607.699 587.021ZM592.439 579.933C603.013 579.838 610.455 579.014 610.455 577.719C610.455 576.353 599.15 575.529 580.923 575.529C554.995 575.529 551.393 575.976 551.393 579.108C551.393 582.146 553.159 582.499 562.909 581.322C569.149 580.568 582.501 579.933 592.439 579.933ZM610.455 568.888C610.455 567.616 599.598 566.768 582.125 566.768C565.664 566.768 553.253 567.71 552.5 568.888C551.581 570.371 561.519 571.101 580.759 571.101C599.151 571.101 610.455 570.277 610.455 568.888ZM610.455 560.151C610.455 558.879 599.504 557.937 582.03 557.937C564.462 557.937 553.512 558.879 553.512 560.151C553.512 561.54 564.462 562.365 582.03 562.365C599.504 562.365 610.455 561.54 610.455 560.151ZM610.455 551.414C610.455 550.119 599.88 549.2 583.137 549.2C566.299 549.2 555.725 550.119 555.725 551.414C555.725 552.803 566.299 553.628 583.137 553.628C599.88 553.628 610.455 552.803 610.455 551.414ZM550.663 542.135C550.027 540.652 549.556 541.853 549.556 544.891C549.556 547.834 550.027 549.106 550.663 547.646C551.228 546.092 551.228 543.595 550.663 542.135ZM522.144 544.42C517.741 542.865 515.244 542.866 513.502 544.608C511.759 546.445 513.407 547.01 519.766 546.916C528.314 546.822 528.314 546.727 522.144 544.42ZM611.562 542.677C612.386 541.288 603.201 540.463 585.445 540.463C568.513 540.463 557.94 541.288 557.94 542.677C557.94 543.972 568.136 544.891 584.055 544.891C599.15 544.891 610.737 543.972 611.562 542.677ZM526.76 539.003C524.64 538.438 520.778 538.438 517.999 538.909C515.244 539.451 517.01 539.922 521.791 539.922C526.666 539.922 528.856 539.545 526.76 539.003ZM528.408 533.94C529.232 532.551 526.477 531.821 521.414 531.915C514.797 532.009 513.972 532.386 517.457 533.94C523.439 536.507 526.76 536.507 528.408 533.94ZM552.876 527.959C552.335 525.839 551.864 527.04 551.769 530.62C551.769 534.223 552.24 535.965 552.781 534.482C553.417 533.022 553.418 530.078 552.876 527.959ZM612.126 533.375C611.467 531.373 604.12 530.62 585.257 530.62C566.488 530.62 559.14 531.373 558.48 533.375C557.75 535.494 564.109 536.154 585.257 536.154C606.498 536.154 612.762 535.4 612.126 533.375ZM530.622 527.323C531.352 526.028 528.785 525.203 524.17 525.203C519.86 525.203 516.35 526.122 516.35 527.323C516.35 528.5 519.201 529.513 522.804 529.513C526.289 529.513 529.868 528.5 530.622 527.323ZM612.126 524.638C611.467 522.613 604.308 521.883 586.363 521.883C568.513 521.883 561.331 522.613 560.695 524.638C559.965 526.663 566.04 527.323 586.363 527.323C606.687 527.323 612.762 526.663 612.126 524.638ZM530.622 520.776C531.352 519.504 528.785 518.586 524.17 518.586C519.86 518.586 516.35 519.598 516.35 520.776C516.35 521.977 519.201 522.99 522.804 522.99C526.289 522.99 529.868 521.977 530.622 520.776ZM612.126 515.807C611.467 513.97 603.932 512.958 586.717 512.51C566.041 511.945 562.343 512.416 562.343 515.266C562.343 518.021 566.299 518.586 587.659 518.586C606.969 518.586 612.762 517.927 612.126 515.807ZM531.635 514.253C531.635 513.052 528.691 512.039 525.088 512.039C521.508 512.039 518.565 513.052 518.565 514.253C518.565 515.454 521.508 516.372 525.088 516.372C528.691 516.372 531.635 515.454 531.635 514.253ZM531.635 507.635C531.635 506.434 528.691 505.422 525.088 505.422C521.508 505.422 518.565 506.434 518.565 507.635C518.565 508.836 521.508 509.826 525.088 509.826C528.691 509.826 531.635 508.836 531.635 507.635ZM612.126 507.07C611.467 505.139 604.473 504.409 587.47 504.409C570.444 504.409 563.545 505.139 562.909 507.07C562.155 509.19 568.042 509.826 587.47 509.826C606.969 509.826 612.762 509.19 612.126 507.07ZM531.635 501.089C531.635 499.911 528.691 498.898 525.088 498.898C521.508 498.898 518.565 499.911 518.565 501.089C518.565 502.29 521.508 503.302 525.088 503.302C528.691 503.302 531.635 502.29 531.635 501.089ZM610.455 497.792C610.455 495.295 607.157 494.471 595.642 494.118L580.923 493.741L595.642 492.917C606.78 492.352 610.455 491.339 610.455 488.961C610.455 486.37 606.145 485.829 587.47 485.829C568.513 485.829 564.463 486.37 564.463 489.055C564.463 491.245 566.959 492.446 571.645 492.729L578.734 493.011L571.645 493.93C567.312 494.471 564.463 496.049 564.463 497.98C564.463 500.453 568.984 501.089 587.47 501.089C606.404 501.089 610.455 500.453 610.455 497.792ZM531.635 494.566C531.635 493.27 529.232 492.352 526.288 492.352C523.439 492.352 520.402 493.27 519.672 494.566C518.848 495.767 521.037 496.685 524.993 496.685C528.69 496.685 531.635 495.767 531.635 494.566ZM531.635 485.735C531.635 482.343 530.339 481.401 525.653 481.684C520.496 481.966 520.307 482.061 524.546 482.979C527.301 483.427 529.515 484.722 529.515 485.735C529.515 486.841 527.301 488.042 524.546 488.584C520.307 489.408 520.496 489.597 525.653 489.879C530.339 490.162 531.635 489.149 531.635 485.735ZM610.455 480.318C610.455 477.539 606.404 476.998 587.47 476.998C568.513 476.998 564.463 477.633 564.463 480.318C564.463 482.979 568.513 483.615 587.47 483.615C606.404 483.615 610.455 482.979 610.455 480.318ZM531.635 476.998C531.635 475.797 529.233 474.784 526.195 474.784C523.157 474.784 520.684 475.797 520.684 476.998C520.684 478.199 523.157 479.211 526.195 479.211C529.233 479.211 531.635 478.199 531.635 476.998ZM608.335 471.558C608.335 469.179 572.563 467.248 567.311 469.273C565.569 469.909 564.84 471.487 565.664 472.664C567.501 475.608 608.335 474.501 608.335 471.558ZM531.635 470.474C531.635 469.273 530.434 468.261 528.95 468.261C527.113 468.166 527.301 467.53 529.515 466.047C531.988 464.398 531.446 463.927 526.76 463.927C522.144 463.833 520.684 464.94 520.684 468.261C520.684 471.487 522.144 472.664 526.195 472.664C529.233 472.664 531.635 471.652 531.635 470.474ZM608.264 462.727C608.264 460.065 604.473 459.524 587.47 459.524C570.444 459.524 566.676 460.065 566.676 462.727C566.676 465.505 570.444 466.047 587.47 466.047C604.473 466.047 608.264 465.505 608.264 462.727ZM531.635 459.524C531.635 458.323 529.233 457.31 526.195 457.31C523.157 457.31 520.684 458.323 520.684 459.524C520.684 460.725 523.157 461.737 526.195 461.737C529.233 461.737 531.635 460.725 531.635 459.524ZM607.699 454.555C607.158 452.718 600.423 451.611 586.717 451.234C569.903 450.693 566.676 451.046 566.676 453.895C566.676 456.768 570.255 457.31 587.659 457.31C603.46 457.31 608.429 456.674 607.699 454.555ZM530.057 451.517C528.597 450.881 525.654 450.881 523.534 451.423C521.415 451.964 522.615 452.435 526.195 452.53C529.774 452.53 531.541 452.153 530.057 451.517ZM531.729 446.359C531.729 445.158 530.246 444.146 528.503 444.146C526.761 444.146 524.735 445.158 523.981 446.359C523.251 447.56 524.734 448.573 527.207 448.573C529.703 448.573 531.729 447.56 531.729 446.359ZM606.051 446.642C606.051 443.981 598.044 442.05 586.363 442.05C574.777 442.05 566.676 443.981 566.676 446.642C566.676 447.655 575.601 448.573 586.363 448.573C597.22 448.573 606.051 447.655 606.051 446.642ZM606.051 437.623C606.051 436.328 599.692 435.409 591.332 435.409C583.231 435.409 574.306 434.773 571.645 434.043C567.971 433.125 566.676 433.666 566.676 436.233C566.676 439.271 569.714 439.836 586.363 439.836C598.044 439.836 606.051 438.918 606.051 437.623ZM605.039 428.886C604.215 427.685 595.288 426.672 585.162 426.672C574.306 426.672 566.676 427.591 566.676 428.886C566.676 430.181 574.777 431.099 586.552 431.099C599.151 431.099 605.863 430.275 605.039 428.886ZM448.457 594.109C448.457 591.165 451.401 555.935 455.004 515.901C458.49 475.796 462.069 433.031 462.917 420.691C463.741 408.28 465.295 398.248 466.308 398.248C467.32 398.248 468.145 398.978 468.145 399.991C468.145 401.003 471.184 401.38 474.787 400.909C481.216 399.92 481.31 400.085 481.404 409.481C481.404 414.709 482.863 452.529 484.63 493.458C486.372 534.388 487.832 574.963 487.832 583.7L487.927 599.62H461.08L462.54 570.56C465.202 517.667 468.051 436.704 467.886 421.162C467.698 412.778 465.955 436.893 463.836 474.784C456.465 608.262 457.195 599.62 452.603 599.62C449.659 599.62 448.457 597.971 448.457 594.109ZM493.531 592.437C492.448 584.995 483.429 417.841 483.523 404.96C483.523 388.404 485.454 401.568 488.845 442.05C493.908 502.29 500.715 579.297 502.01 590.318C503.023 598.419 502.552 599.62 498.878 599.62C495.84 599.62 494.379 597.689 493.531 592.437ZM259.238 492.093C260.627 483.897 260.156 482.508 254.457 477.916C248.193 472.759 248.193 472.759 256.577 472.664C264.301 472.664 265.313 471.934 268.634 463.927C272.849 453.825 274.616 453.071 276.452 460.442C278.478 468.355 283.8 472.664 291.619 472.664L298.519 472.759L291.336 478.74C284.625 484.345 284.365 485.099 286.744 491.904C290.064 501.371 287.945 502.949 279.844 496.967C273.321 492.093 273.32 492.093 267.621 496.591C259.144 503.208 257.495 502.29 259.238 492.093ZM677.429 492.446C678.725 484.816 678.16 483.167 672.555 478.293C666.291 472.759 666.29 472.759 674.674 472.664C682.304 472.664 683.317 471.934 686.732 463.927C688.734 459.053 690.852 455.191 691.418 455.191C692.053 455.191 694.173 459.147 696.198 463.927C699.589 471.934 700.603 472.664 708.256 472.759C716.616 472.853 716.615 472.853 709.715 478.293C703.286 483.426 703.004 484.274 705.218 491.339C708.255 501.277 706.041 502.949 697.94 496.967C691.323 492.093 691.323 492.093 685.059 496.591C676.416 502.667 675.875 502.384 677.429 492.446ZM74.2567 392.078C74.2567 390.806 75.2698 389.134 76.4472 388.404C77.8367 387.58 78.1188 383.812 77.2945 379.385C76.1877 373.333 76.8239 370.742 80.5918 366.692C84.0065 363.112 85.0188 360.074 84.1004 356.306C83.182 352.727 84.1945 349.124 87.2324 345.261C89.7051 342.129 91.7305 336.713 91.7305 333.204C91.7305 329.177 93.756 324.844 97.1472 321.712C101.009 318.038 102.21 315.189 101.292 311.609C100.373 307.912 101.668 305.063 105.719 301.295C109.016 298.163 111.418 293.57 111.418 290.25C111.418 286.482 113.632 282.997 118.035 279.771C122.557 276.356 124.559 273.059 124.559 268.726C124.559 264.769 126.325 261.473 129.81 259.259C132.66 257.328 135.603 252.901 136.334 249.321C137.087 245.365 139.654 241.879 142.88 240.396C146.106 238.936 148.673 235.427 149.497 231.565C150.227 227.608 153.171 223.746 157.222 221.532C161.084 219.248 164.122 215.386 164.852 211.524C165.7 207.191 168.078 204.53 172.505 202.858C176.626 201.303 179.311 198.454 180.041 194.851C181.148 189.152 195.395 180.415 199.446 183.005C202.39 184.748 196.879 190.353 192.192 190.353C189.602 190.353 186.941 193.108 184.822 198.171C182.985 202.504 179.476 206.555 177.003 207.191C174.601 207.921 171.116 211.689 169.467 215.833C167.701 219.978 163.933 224.123 160.824 225.3C156.868 226.784 155.197 229.092 155.197 232.86C155.197 236.439 152.912 240.019 148.673 243.245C144.999 245.906 142.056 249.957 142.056 252.265C142.056 254.478 139.112 258.976 135.509 262.108C131.93 265.335 128.892 270.115 128.892 272.776C128.892 275.343 126.489 279.488 123.475 281.89C120.06 284.551 117.941 288.413 117.941 291.993C117.941 295.407 115.727 299.905 112.525 302.849C108.922 306.169 106.991 310.314 106.991 314.812C106.991 319.239 105.53 322.536 102.681 324.373C99.6431 326.234 98.2539 329.436 98.2539 334.97C98.2539 340.104 96.6993 344.249 93.944 346.839C91.0004 349.406 89.517 353.551 89.517 358.967C89.517 363.583 88.0566 368.269 86.2197 369.824C84.1003 371.566 83.0881 375.428 83.4414 380.232C83.9123 386.026 82.8994 388.498 79.1315 391.089C76.282 393.02 74.1626 393.467 74.1626 392.078H74.2567ZM877.128 378.372C875.386 373.427 876.588 362.099 878.802 362.57C881.651 363.3 882.381 370.295 880.167 376.276C878.801 379.856 877.882 380.492 877.128 378.372ZM198.998 347.923C198.998 346.463 290.983 345.733 479.096 345.733C657.012 345.827 759.311 346.557 759.311 347.923C759.311 349.218 657.012 350.042 479.096 350.042C290.888 350.136 198.998 349.406 198.998 347.923ZM863.353 339.28C862.599 338.102 862.599 334.876 863.353 332.121C864.271 328.329 863.07 325.668 859.019 322.183C855.887 319.498 853.415 315.825 853.415 313.988C853.415 309.49 854.145 309.749 861.963 317.026C867.379 322.183 868.769 325.221 868.769 332.38C868.769 340.858 866.202 343.99 863.353 339.28ZM241.034 316.932C241.953 297.527 247.11 296.703 247.11 316.013C247.11 327.505 246.451 330.449 243.789 330.449C241.034 330.449 240.469 327.882 241.034 316.932ZM252.432 327.411C251.702 325.763 251.513 319.593 251.984 313.705C252.809 300.753 256.765 299.74 264.019 310.502L268.988 317.944V309.749C268.988 304.238 269.906 301.836 271.743 302.496C273.509 303.132 274.521 307.912 274.521 316.296C274.521 332.38 269.906 334.876 263.477 322.277L259.238 313.988L258.508 322.183C257.872 330.355 254.646 333.134 252.432 327.411ZM284.365 319.498C284.365 311.233 283.517 308.571 281.045 308.571C279.302 308.571 277.724 307.088 277.724 305.251C277.724 302.849 280.315 301.93 287.474 301.93C297.883 301.93 303.111 305.793 295.481 307.818C291.619 308.83 290.888 310.667 290.888 319.687C290.888 327.788 290.064 330.355 287.568 330.355C285.095 330.355 284.365 327.694 284.365 319.498ZM302.287 316.743C302.946 303.037 302.946 303.037 311.118 302.402C317.382 301.836 319.407 302.496 319.407 305.062C319.407 307.276 317.381 308.571 313.896 308.571C310.858 308.571 308.456 309.49 308.456 310.667C308.456 311.868 310.953 312.881 314.061 312.881C320.961 312.881 320.137 318.038 313.143 319.051C306.62 320.064 307.161 323.832 313.896 323.832C317.287 323.832 319.407 325.127 319.407 327.152C319.407 329.53 316.911 330.449 310.482 330.449C301.651 330.449 301.651 330.449 302.287 316.743ZM324.658 327.411C323.999 325.763 323.811 319.593 324.187 313.705C324.729 303.862 325.294 303.037 330.993 302.307C340.201 301.295 342.863 304.78 342.863 318.415C342.863 331.202 340.295 333.958 336.881 324.938C335.774 321.901 333.749 319.428 332.548 319.428C331.37 319.428 330.357 321.901 330.357 324.938C330.357 330.732 326.589 332.38 324.658 327.411ZM336.881 310.597C336.881 309.49 335.421 308.571 333.56 308.571C330.169 308.571 329.251 311.138 331.723 313.54C333.49 315.283 336.881 313.258 336.881 310.597ZM348.279 316.932C349.032 301.295 352.518 298.257 358.217 308.289C362.997 316.837 365.304 316.931 365.304 308.571C365.304 304.874 366.318 301.93 367.519 301.93C368.72 301.93 369.733 308.195 369.733 316.202C369.733 333.039 365.776 335.229 358.876 322.183L354.543 313.988L354.448 322.183C354.354 328.165 353.436 330.449 350.964 330.449C348.208 330.449 347.737 327.882 348.208 316.932H348.279ZM374.23 327.693C374.418 326.139 376.161 319.97 378.28 313.988C383.697 298.445 388.666 299.175 394.012 316.202C396.226 323.384 398.156 329.531 398.156 329.907C398.25 332.121 391.798 329.719 390.785 327.152C390.15 325.315 387.559 323.832 385.086 323.832C382.59 323.832 380.659 325.315 380.659 327.152C380.659 328.895 379.199 330.449 377.362 330.449C375.525 330.449 374.136 329.177 374.23 327.693ZM387.206 313.988C387.206 312.151 386.829 310.667 386.381 310.667C385.91 310.667 384.899 312.151 384.263 313.988C383.533 315.825 383.885 317.308 385.086 317.308C386.287 317.308 387.206 315.825 387.206 313.988ZM402.56 319.498C402.56 311.233 401.735 308.571 399.263 308.571C397.402 308.571 395.943 307.088 395.943 305.251C395.943 302.849 398.509 301.93 405.692 301.93C416.077 301.93 421.33 305.793 413.699 307.818C409.837 308.83 409.083 310.667 409.083 319.687C409.083 327.788 408.26 330.355 405.787 330.355C403.291 330.355 402.56 327.694 402.56 319.498ZM420.034 316.202C420.034 304.968 420.787 301.93 423.354 301.93C425.921 301.93 426.581 304.968 426.581 316.202C426.581 327.317 425.921 330.355 423.354 330.355C420.787 330.355 420.034 327.317 420.034 316.202ZM434.399 326.964C429.689 322.277 430.066 310.031 434.941 305.628C443.96 297.432 455.923 303.414 455.923 316.202C455.923 328.801 442.759 335.324 434.399 326.964ZM448.457 316.39C448.457 308.571 444.243 304.874 440.004 309.113C437.343 311.774 436.683 320.063 438.991 322.371C439.815 323.196 442.312 323.832 444.502 323.832C447.634 323.832 448.457 322.183 448.457 316.39ZM460.327 327.411C459.691 325.763 459.503 319.593 459.88 313.705C460.704 300.094 465.484 298.728 472.102 310.126L476.882 318.415V309.937C476.977 304.238 477.8 301.836 479.731 302.496C483.428 303.767 483.428 328.612 479.731 329.813C478.271 330.261 474.786 326.963 472.102 322.371L467.133 313.988L466.403 322.183C465.767 330.355 462.541 333.134 460.327 327.411ZM486.278 327.693C486.82 326.139 488.939 319.781 491.059 313.446C495.392 300.094 499.89 298.633 504.224 309.019C509.546 322.183 510.558 330.355 506.696 330.355C504.765 330.355 503.21 328.895 503.21 327.152C503.21 325.315 501.351 323.832 499.066 323.832C496.758 323.832 494.38 325.315 493.626 327.152C492.99 328.895 490.776 330.355 488.845 330.355C486.82 330.355 485.713 329.177 486.278 327.693ZM499.607 313.988C498.971 312.151 497.959 310.667 497.488 310.667C497.041 310.667 496.663 312.151 496.663 313.988C496.663 315.825 497.582 317.308 498.783 317.308C499.984 317.308 500.337 315.825 499.607 313.988ZM514.137 316.013C514.137 298.987 519.201 296.891 520.307 313.446C520.873 321.806 521.792 323.643 525.559 324.208C534.579 325.574 532.553 330.355 523.063 330.355C514.138 330.355 514.137 330.355 514.137 316.013ZM541.385 326.328C542.115 324.114 543.951 317.944 545.505 312.598C549.462 298.987 555.184 299.552 560.317 313.988C562.437 319.97 564.179 326.139 564.368 327.693C564.556 331.556 558.669 331.108 557.115 327.152C556.456 325.315 554.336 323.832 552.405 323.832C550.568 323.832 548.448 325.315 547.812 327.152C545.881 332.121 539.807 331.273 541.385 326.328ZM568.89 316.013C568.89 296.703 574.023 297.433 575.036 316.932C575.507 327.882 575.036 330.355 572.28 330.355C569.525 330.355 568.89 327.505 568.89 316.013ZM579.816 316.202C579.816 301.931 579.818 301.93 587.189 301.93C596.75 301.93 598.869 304.969 598.963 318.957C598.963 331.203 596.396 333.864 592.981 324.938C591.78 321.901 589.848 319.498 588.647 319.498C587.376 319.498 586.363 321.901 586.363 324.938C586.363 328.33 585.162 330.449 583.137 330.449C580.57 330.449 579.816 327.411 579.816 316.202ZM591.874 310.667C591.874 309.113 590.603 307.37 589.119 306.899C587.47 306.358 586.363 307.912 586.363 310.667C586.363 313.54 587.47 315.095 589.119 314.553C590.603 314.082 591.874 312.339 591.874 310.667ZM603.932 317.214C603.932 302.496 606.498 299.74 616.719 303.32C624.82 306.169 624.631 315.095 616.436 319.051C612.95 320.7 610.455 323.643 610.455 326.139C610.455 328.518 608.994 330.449 607.158 330.449C604.567 330.449 603.837 327.505 603.837 317.214H603.932ZM616.625 311.233C615.707 306.64 611.844 306.899 610.831 311.68C610.455 313.611 611.656 315.095 613.775 315.095C615.989 315.095 617.096 313.611 616.625 311.233ZM630.142 326.045C621.594 317.497 627.764 301.93 639.703 301.93C646.533 301.93 652.043 308.477 652.043 316.555C652.043 328.989 638.785 334.688 630.142 326.045ZM643.212 322.913C647.262 317.944 645.143 309.749 639.538 308.925C633.651 308.1 630.236 317.568 634.569 322.819C637.96 326.87 639.891 326.87 643.212 322.819V322.913ZM656.447 316.202C656.447 301.931 656.447 301.93 664.006 301.93C673.284 301.93 674.862 304.427 675.121 318.957C675.309 331.203 671.166 335.065 668.693 324.938C667.963 321.901 666.29 319.498 665.113 319.498C664.006 319.498 662.994 321.901 662.994 324.938C662.994 328.33 661.792 330.449 659.672 330.449C657.106 330.449 656.447 327.411 656.447 316.202ZM668.975 311.421C669.328 310.126 668.222 308.477 666.385 307.724C664.006 306.899 662.994 307.818 662.994 310.95C662.994 315.471 667.491 315.825 668.975 311.421ZM684.871 319.498C684.871 311.233 684.047 308.571 681.575 308.571C679.832 308.571 678.348 307.088 678.348 305.251C678.348 302.849 680.843 301.93 688.003 301.93C698.411 301.93 703.64 305.793 696.01 307.818C692.148 308.83 691.418 310.667 691.418 319.687C691.418 327.788 690.593 330.449 688.191 330.449C685.718 330.449 684.871 327.694 684.871 319.498ZM849.553 302.59C845.856 300.094 844.677 297.056 844.677 290.721C844.677 283.821 843.925 282.243 840.345 282.243C835.659 282.243 831.514 276.285 831.514 269.55C831.514 267.171 829.041 263.663 826.097 261.637C822.588 259.447 820.563 256.032 820.563 252.641C820.563 248.85 818.821 246.377 814.959 244.635C811.45 242.963 808.882 239.666 808.058 235.615C807.234 231.565 804.385 227.797 800.429 225.583C796.567 223.463 793.623 219.601 792.775 215.833C791.857 211.594 789.572 208.933 785.427 207.473C781.659 206.178 778.433 202.858 777.043 198.807C775.583 194.592 772.451 191.554 768.142 190.07C763.903 188.516 760.959 185.761 760.041 182.252C759.217 178.767 755.99 175.635 751.398 173.704C747.348 171.961 742.567 167.722 740.73 164.237C738.516 159.903 735.48 157.596 731.429 157.148C727.379 156.583 724.434 154.393 722.503 150.437C720.666 146.574 717.912 144.361 714.874 144.361C708.892 144.267 706.584 142.712 701.897 135.247C699.236 131.102 696.834 129.737 693.702 130.561C690.687 131.385 687.367 129.642 682.94 124.956C678.442 120.175 674.58 118.15 669.8 118.15C665.114 118.15 662.075 116.478 659.484 112.616C657.553 109.578 653.974 107.2 651.572 107.2C649.193 107.2 647.71 105.999 648.181 104.444C649.829 99.4754 656.282 100.205 661.604 105.904C664.642 109.225 669.141 111.509 672.555 111.509C678.254 111.509 687.084 118.244 687.084 122.46C687.084 123.661 689.487 124.674 692.336 124.674C700.508 124.674 704.747 126.981 706.866 132.68C708.161 135.977 710.634 137.837 713.86 137.837C719.936 137.932 722.22 139.486 726.93 146.833C728.955 149.966 733.359 153.098 737.033 153.828C741.649 154.746 744.122 156.96 745.676 161.481C747.254 166.073 749.726 168.193 754.601 169.205C759.664 170.218 762.16 172.408 764.538 178.036C766.658 183.076 769.32 185.855 772.829 186.302C776.055 186.773 778.999 189.529 781 194.027C782.861 198.36 786.535 201.939 790.303 203.235C794.636 204.789 796.919 207.379 797.837 211.595C798.591 215.386 801.605 219.248 805.491 221.438C809.801 224.029 811.826 226.878 811.826 230.646C811.826 234.603 813.758 237.169 818.35 239.572C822.965 241.95 824.99 244.634 824.99 248.214C824.99 253.183 826.168 254.926 834.74 262.108C836.577 263.663 838.13 267.36 838.13 270.303C838.13 273.506 840.156 277.015 843.571 279.229C847.244 281.607 849.082 284.739 849.082 288.978C849.082 292.84 850.824 296.42 853.862 298.539C856.9 300.659 857.913 302.684 856.618 303.956C855.346 305.157 852.591 304.615 849.553 302.59ZM298.071 289.52C293.926 287.872 294.374 264.958 298.519 263.403C305.065 260.907 313.143 264.581 312.601 269.738C312.318 272.399 312.954 276.356 313.896 278.569C316.557 284.928 305.512 292.558 297.977 289.52H298.071ZM307.914 281.89C306.525 277.839 301.839 277.109 301.839 280.971C301.839 282.902 303.393 284.457 305.324 284.457C307.255 284.457 308.362 283.256 307.914 281.89ZM306.525 270.209C306.525 269.102 305.513 267.807 304.218 267.36C302.946 266.983 301.839 268.184 301.839 270.209C301.839 272.235 302.946 273.506 304.218 273.059C305.513 272.682 306.525 271.387 306.525 270.209ZM317.193 287.4C317.193 286.576 318.842 280.689 320.867 274.26C325.836 258.34 330.993 258.34 335.586 274.331C339.824 288.884 339.824 288.79 335.774 288.79C333.937 288.79 332.477 287.306 332.477 285.564C332.477 283.727 330.546 282.243 328.05 282.243C325.671 282.243 323.717 283.727 323.717 285.564C323.717 287.306 322.256 288.79 320.419 288.79C318.677 288.79 317.099 288.13 317.099 287.4H317.193ZM330.263 275.72C330.263 274.519 329.345 273.506 328.144 273.506C326.943 273.506 325.93 274.519 325.93 275.72C325.93 276.921 326.943 277.934 328.144 277.934C329.345 277.934 330.263 276.921 330.263 275.72ZM343.403 275.72C343.403 268.373 344.416 262.556 345.617 262.556C346.818 262.556 347.832 264.51 347.832 266.983C347.832 269.385 348.56 271.316 349.479 271.316C350.397 271.316 352.33 269.385 353.907 266.983C355.367 264.51 358.122 262.556 360.053 262.556C362.997 262.556 362.831 263.404 359.228 268.443C355.013 274.26 355.013 274.33 359.228 281.513C362.926 287.683 362.996 288.79 360.147 288.79C358.31 288.79 355.368 286.859 353.719 284.362C350.587 279.865 350.586 279.865 349.385 284.362C346.913 293.759 343.403 288.696 343.403 275.72ZM367.966 286.199C364.292 282.526 364.386 261.92 368.059 263.121C369.637 263.663 371.098 268.537 371.475 274.331C372.016 282.714 372.841 284.551 375.879 284.009C378.657 283.444 379.741 280.595 380.212 272.776C381.036 261.096 385.721 259.447 386.828 270.468C387.935 281.513 383.885 288.79 376.797 288.79C373.406 288.79 369.45 287.683 367.966 286.199ZM399.074 285.846C397.049 280.5 399.169 264.039 402.018 263.121C403.761 262.556 404.68 264.322 404.68 267.996C404.68 272.776 405.599 273.695 409.649 273.153C412.781 272.682 414.806 270.657 415.253 267.525C416.737 257.328 420.034 263.027 420.034 275.72C420.034 288.319 416.737 294.018 415.253 283.915C414.806 280.783 412.781 278.758 409.649 278.287C405.599 277.651 404.68 278.569 404.68 283.162C404.68 289.143 401.006 290.909 399.074 285.846ZM426.581 275.72C426.581 262.556 426.581 262.556 434.305 262.556C439.627 262.556 441.935 263.568 441.935 265.876C441.935 267.901 439.816 269.103 436.331 269.103C433.198 269.103 431.36 270.115 432.09 271.316C432.82 272.494 435.317 273.506 437.696 273.506C443.583 273.506 443.042 277.463 436.966 278.287C434.305 278.664 432.09 279.959 432.09 281.16C432.09 282.337 434.305 283.727 436.966 284.103C444.784 285.187 442.76 288.884 434.305 288.884C426.581 288.884 426.581 288.884 426.581 275.72ZM452.156 287.4C451.308 286.576 450.672 283.35 450.577 280.218C450.577 277.204 449.117 272.682 447.351 270.398C443.324 264.958 443.23 262.556 447.28 262.556C449.023 262.556 451.049 264.51 451.779 266.983C452.509 269.385 453.992 271.316 455.004 271.316C455.923 271.316 457.289 269.385 457.948 266.983C458.49 264.51 460.609 262.556 462.54 262.556C465.673 262.556 465.579 263.568 461.717 271.222C459.221 276.002 457.288 281.89 457.288 284.362C457.288 288.79 455.005 290.156 452.156 287.4ZM468.616 276.285C469.252 264.958 469.817 263.568 474.315 262.932C482.769 261.731 490.047 268.184 490.047 276.733C490.047 285.375 485.619 288.884 474.787 288.884C467.957 288.884 467.957 288.884 468.616 276.285ZM483.429 280.218C486.373 274.707 484.159 269.103 478.908 269.103C475.611 269.103 474.787 270.751 474.787 276.827C474.787 285.375 479.662 287.306 483.429 280.218ZM492.449 287.212C492.614 286.294 494.286 280.595 496.311 274.613C501.539 258.976 506.414 258.976 511.029 274.613C514.703 287.4 513.691 292.746 508.816 286.105C505.401 281.419 498.878 281.066 498.878 285.564C498.878 287.401 497.393 288.884 495.556 288.884C493.719 288.884 492.355 288.13 492.449 287.212ZM505.401 274.425C505.401 272.588 504.388 271.669 503.21 272.399C502.009 273.153 500.997 274.707 500.997 275.814C500.997 276.921 502.009 277.934 503.21 277.934C504.388 277.934 505.401 276.356 505.401 274.425ZM518.565 275.72C518.565 262.65 518.565 262.556 524.9 262.556C532.082 262.556 539.076 268.184 536.768 271.952C535.849 273.342 535.402 277.651 535.661 281.607C536.226 289.52 531.988 291.639 530.057 284.457C529.515 282.078 528.125 280.053 527.018 280.053C525.912 280.053 525.088 282.078 525.088 284.457C525.088 286.859 523.628 288.79 521.791 288.79C519.2 288.79 518.565 285.941 518.565 275.72ZM529.774 270.209C529.774 269.102 528.785 267.807 527.49 267.36C526.195 266.983 525.088 268.184 525.088 270.209C525.088 272.235 526.195 273.506 527.49 273.059C528.785 272.682 529.774 271.387 529.774 270.209ZM548.284 283.915C556.267 258.34 560.319 256.221 565.664 274.613C569.432 287.589 568.419 292.746 563.356 285.846C560.318 281.701 553.512 282.243 553.512 286.576C553.512 287.777 552.052 288.79 550.121 288.79C547.53 288.79 547.083 287.589 548.284 283.915ZM560.154 274.425C560.154 272.588 559.141 271.669 557.94 272.399C556.739 273.153 555.725 274.707 555.725 275.814C555.725 276.921 556.739 277.839 557.94 277.839C559.141 277.839 560.154 276.356 560.154 274.425ZM573.294 275.72C573.294 265.5 573.93 262.556 576.521 262.556C578.993 262.556 579.816 265.24 579.816 273.506C579.816 282.902 580.381 284.457 584.055 284.457C586.363 284.457 588.931 285.47 589.661 286.671C590.509 287.966 587.47 288.79 582.125 288.79C573.294 288.79 573.294 288.79 573.294 275.72ZM593.358 276.45C594.37 258.623 599.504 257.775 599.504 275.531C599.504 286.105 598.774 288.79 596.113 288.79C593.358 288.79 592.887 286.482 593.358 276.45ZM610.455 284.739C610.455 282.243 608.806 276.733 606.781 272.494C602.542 263.663 604.945 258.976 609.82 266.347C613.14 271.222 613.139 271.222 617.095 266.347C621.97 260.271 624.914 262.556 621.216 269.456C619.662 272.329 617.919 277.463 617.166 280.971C615.612 288.507 610.455 291.357 610.455 284.739ZM625.833 275.531C625.833 262.297 625.832 262.297 633.462 262.932C642.199 263.757 644.767 267.619 637.231 268.726C631.155 269.55 630.707 273.506 636.76 273.506C639.162 273.506 641.092 274.33 641.092 275.437C641.092 276.45 639.162 277.839 636.76 278.475C630.519 280.147 631.343 284.457 637.866 284.457C640.81 284.457 643.307 285.47 643.307 286.671C643.307 287.872 639.35 288.79 634.569 288.79C625.832 288.79 625.833 288.79 625.833 275.531ZM648.464 276.827C646.439 270.209 645.332 264.228 646.062 263.498C648.464 261.096 651.666 264.675 653.15 271.316C653.974 274.99 655.434 277.934 656.447 277.934C657.46 277.934 658.942 274.99 659.672 271.316C661.156 264.675 664.36 261.096 666.856 263.498C667.586 264.228 666.479 270.209 664.36 276.827C661.51 285.846 659.485 288.79 656.447 288.79C653.338 288.79 651.313 285.846 648.464 276.827ZM224.573 269.644C224.102 268.726 219.51 255.397 214.353 240.019C205.522 213.267 205.239 211.783 208.913 207.732C216.567 199.278 219.699 200.291 244.331 218.777C257.307 228.527 268.163 237.264 268.54 238.182C268.799 239.1 266.609 241.22 263.665 242.798C258.885 245.365 257.118 245.27 250.784 241.785C243.601 237.923 243.248 237.923 237.526 241.95C231.732 246.095 231.473 248.12 235.053 259.447C236.159 262.838 235.147 264.958 231.002 267.619C227.964 269.644 225.02 270.562 224.573 269.644ZM233.027 233.213C235.335 231.47 236.795 229.728 236.159 229.186C235.594 228.715 231.473 225.583 226.952 222.192L218.757 216.21L222.265 226.242C226.033 237.263 226.763 237.735 233.027 233.213ZM727.001 267.454C722.055 263.568 722.056 263.568 725.258 240.772C727.001 228.173 728.202 217.576 727.849 217.223C727.472 216.94 722.503 223.464 716.804 231.941C711.011 240.301 705.03 247.201 703.546 247.201C699.331 247.201 695.186 241.22 697.117 238.017C702.91 228.527 729.026 194.686 730.604 194.686C731.711 194.686 734.843 196.617 737.598 198.807C742.661 202.952 742.732 203.235 740.165 223.369C738.705 234.602 737.857 243.975 738.14 244.352C738.517 244.635 743.58 238.088 749.561 229.822C760.394 214.727 760.489 214.727 765.552 218.495C770.615 222.357 770.615 222.357 752.858 246.283C743.109 259.447 734.372 270.468 733.548 270.751C732.629 270.939 729.685 269.456 727.001 267.454ZM364.104 239.854C363.374 237.004 363.092 231.376 363.469 227.326C364.104 220.991 365.117 219.79 370.463 219.154C379.105 218.141 381.671 221.438 381.859 234.226C382.142 246 379.575 248.308 376.16 239.477C373.852 233.213 369.733 234.131 369.733 240.772C369.733 246.754 365.682 246.095 364.104 239.854ZM376.255 226.407C376.255 224.665 374.772 223.204 372.935 223.204C371.192 223.204 369.733 224.665 369.733 226.407C369.733 228.244 371.192 229.728 372.935 229.728C374.772 229.728 376.255 228.244 376.255 226.407ZM387.206 231.941C387.206 218.777 387.206 218.777 394.836 218.777C399.075 218.777 402.56 219.79 402.56 220.991C402.56 222.192 400.629 223.204 398.321 223.204C395.943 223.204 393.446 224.123 392.716 225.3C391.891 226.596 393.824 227.514 397.144 227.514C404.044 227.514 403.478 232.672 396.319 233.684C389.772 234.697 390.338 238.465 397.049 238.465C400.44 238.465 402.56 239.76 402.56 241.785C402.56 244.069 400.253 245.082 394.931 245.082C387.206 245.082 387.206 245.082 387.206 231.941ZM406.894 231.941C406.894 218.966 407.082 218.777 413.04 218.777C424.461 218.777 428.865 230.01 419.115 234.414C416.266 235.709 413.323 238.653 412.781 240.961C410.379 250.051 406.894 244.635 406.894 231.941ZM417.843 226.407C417.843 224.665 416.831 223.204 415.63 223.204C414.429 223.204 413.511 224.665 413.511 226.407C413.511 228.244 414.429 229.728 415.63 229.728C416.831 229.728 417.843 228.244 417.843 226.407ZM431.455 242.421C427.758 238.841 427.853 218.141 431.55 219.342C433.104 219.79 434.753 224.57 435.412 229.916C435.954 235.238 437.436 239.572 438.708 239.572C439.909 239.572 441.393 235.238 441.935 229.916C443.583 215.834 448.552 215.457 448.552 229.539C448.552 238.182 447.633 241.031 444.337 242.798C438.708 245.835 434.658 245.647 431.455 242.515V242.421ZM454.345 243.622C453.521 242.798 452.886 236.816 452.886 230.364C452.886 218.495 452.885 218.495 461.08 219.248C468.333 219.79 469.252 220.52 469.346 225.772C469.441 229.092 470.171 232.483 470.995 233.307C473.397 235.615 472.926 237.829 469.158 241.597C465.673 245.082 457.029 246.283 454.345 243.622ZM466.026 236.157C466.026 235.073 464.566 234.132 462.729 234.132C459.314 234.132 458.396 236.722 460.798 239.1C462.635 240.867 466.026 238.936 466.026 236.157ZM463.836 225.3C463.836 224.123 462.823 223.204 461.622 223.204C460.421 223.204 459.409 224.123 459.409 225.3C459.409 226.501 460.421 227.514 461.622 227.514C462.823 227.514 463.836 226.501 463.836 225.3ZM475.61 242.044C473.585 236.722 475.799 220.261 478.554 219.342C480.485 218.683 481.309 221.344 481.309 228.244C481.309 236.816 482.039 238.276 486.09 238.841C488.657 239.289 491.247 240.772 491.694 242.327C492.989 246.283 477.165 245.906 475.61 242.044ZM495.934 243.622C495.11 242.798 494.45 236.91 494.45 230.458C494.45 221.532 495.203 218.777 497.77 218.777C500.266 218.777 500.997 221.721 500.997 231.941C500.997 244.069 499.608 247.296 495.934 243.622ZM508.721 242.044C504.223 238.747 503.564 226.973 507.709 221.909C510.653 218.33 521.956 217.67 523.981 220.991C524.829 222.192 522.969 223.204 519.86 223.204C509.098 223.204 507.238 237.263 517.647 239.854C520.591 240.584 522.898 242.044 522.898 243.057C522.898 246.095 513.313 245.459 508.721 242.044ZM538.253 240.678C530.152 232.577 535.496 218.777 546.706 218.777C554.524 218.777 557.94 222.451 557.94 230.929C557.94 243.339 546.519 249.038 538.253 240.678ZM550.946 231.117C550.122 222.286 543.41 220.426 541.385 228.527C539.713 235.073 543.575 241.031 548.379 239.195C550.475 238.37 551.393 235.615 550.946 231.117ZM562.343 232.13C562.343 218.777 562.343 218.777 569.996 218.777C574.212 218.777 577.627 219.79 577.627 220.991C577.627 222.192 575.696 223.204 573.294 223.204C570.821 223.204 568.89 224.665 568.89 226.407C568.89 228.244 570.821 229.728 573.294 229.728C575.696 229.728 577.627 230.74 577.627 231.941C577.627 233.119 575.695 234.132 573.387 234.132C570.726 234.132 568.89 235.898 568.513 238.841C568.042 241.502 566.582 244.069 565.028 244.54C563.096 245.176 562.249 241.785 562.249 232.13H562.343ZM837.495 217.67C779.351 139.015 692.619 78.587 600.07 52.3764C589.214 49.3385 582.03 46.1123 582.03 44.3696C582.03 40.7901 581.301 40.6959 599.599 45.7355C674.297 66.4355 749.726 112.074 806.668 170.948C822.494 187.315 855.604 229.539 855.604 233.401C855.604 240.113 851.201 236.345 837.495 217.67ZM274.687 230.269C273.957 228.173 275.157 215.386 277.371 201.751C279.561 188.234 281.045 177.189 280.574 177.189C280.127 177.189 275.887 179.144 271.201 181.616C259.332 187.692 253.727 186.585 253.727 178.131C253.727 177.66 262.558 172.785 273.415 167.369C297.506 155.217 297.506 155.217 292.183 188.705C290.158 201.845 288.863 213.078 289.405 213.62C290.064 214.279 295.575 212.16 301.839 208.933C313.896 202.858 319.313 202.952 319.313 209.499C319.313 212.254 313.331 216.399 298.519 223.746C287.121 229.445 277.277 234.132 276.806 234.132C276.359 234.132 275.346 232.389 274.687 230.269ZM676.416 231.376C672.012 229.186 671.448 227.797 672.649 220.52C673.944 212.607 673.567 211.971 666.29 208.486C658.66 204.883 658.567 204.883 652.326 210.959C646.886 216.022 645.237 216.658 641.375 214.538C638.785 213.172 636.76 211.053 636.76 209.758C636.76 205.99 676.605 166.262 680.373 166.356C682.21 166.356 686.166 168.193 689.109 170.383C694.361 174.528 694.362 174.528 690.594 198.266C684.236 238.559 685.53 235.709 676.416 231.376ZM676.794 199.655C677.336 198.736 678.442 194.027 679.266 189.246C680.844 180.509 680.844 180.509 674.109 186.962C670.341 190.447 667.303 194.592 667.303 196.052C667.303 199.914 674.957 202.763 676.794 199.655ZM333.49 202.952C329.439 192.001 315.074 147.94 315.545 147.587C315.827 147.399 323.905 144.549 333.49 141.417C346.819 136.99 351.221 136.26 352.611 138.379C356.096 143.725 353.083 147.493 342.768 150.696C333.113 153.734 332.382 154.487 333.654 159.527C335.585 167.275 335.326 167.18 347.007 163.224C355.178 160.469 357.769 160.28 359.135 162.4C362.644 167.91 360.712 170.383 350.139 173.892C339.541 177.377 339.376 177.566 341.566 183.924C344.157 191.271 345.9 191.554 358.781 187.033C363.939 185.196 368.437 184.018 368.719 184.277C368.884 184.654 369.826 186.962 370.556 189.623C371.922 193.862 370.463 194.851 355.014 200.008C335.327 206.555 334.856 206.555 333.49 202.952ZM602.284 200.291C594.818 196.97 593.994 195.51 597.031 190.73C598.232 188.893 600.893 188.422 604.661 189.34C613.209 191.554 615.989 187.975 623.713 164.873C630.424 144.549 630.801 144.078 636.406 145.468C639.632 146.292 642.387 147.116 642.74 147.493C644.224 148.953 627.198 194.78 623.972 197.63C618.367 202.763 610.102 203.682 602.284 200.291ZM572.658 190.989C567.784 189.717 567.594 191.46 575.884 159.173C582.313 134.046 583.608 131.197 587.917 131.197C590.508 131.197 593.358 132.304 594.088 133.599C596.301 136.99 581.936 192.566 578.993 192.284C577.627 192.095 574.777 191.554 572.752 190.989H572.658ZM386.193 187.598C385.722 186.114 383.79 175.352 381.859 163.765C380.023 152.179 377.81 139.769 377.174 136.165C375.878 130.019 376.255 129.548 385.722 127.146C401.099 123.284 412.78 124.037 417.843 129.101C423.071 134.329 423.731 147.022 418.857 150.978C415.984 153.38 415.984 154.204 418.668 157.242C423.732 163.13 431.267 179.403 429.783 181.71C429.148 182.817 426.109 183.83 423.259 183.83C419.209 183.83 416.831 181.522 413.228 174.433C407.152 162.47 404.138 160.28 398.698 163.671C396.673 164.967 396.391 168.099 397.874 175.823C399.711 185.667 399.522 186.397 394.459 188.328C387.559 190.918 387.206 190.918 386.193 187.598ZM405.597 150.248C407.999 148.506 409.178 145.373 408.731 142.053C408.165 137.649 406.61 136.637 399.805 136.071C391.068 135.341 390.786 135.718 392.905 146.292C394.46 153.734 398.98 155.123 405.597 150.248ZM544.587 184.56C542.656 184.018 540.278 179.968 539.171 175.446C537.334 168.193 536.322 167.274 529.422 166.709C522.427 166.073 521.226 166.804 517.929 173.892C514.608 180.792 513.501 181.522 508.179 180.227C504.859 179.402 501.915 178.672 501.727 178.484C501.538 178.39 506.978 165.414 513.878 149.777C526.006 122.46 526.665 121.447 532.717 121.824C543.503 122.648 544.14 123.661 549.109 150.248C551.676 164.496 554.43 178.295 555.09 181.074C556.197 186.02 553.606 186.962 544.587 184.56ZM536.038 153.38C536.038 151.167 535.402 146.198 534.672 142.336C533.283 135.341 533.283 135.341 529.138 144.549C524.264 155.5 524.263 154.746 528.855 156.042C535.59 157.784 536.038 157.596 536.038 153.38ZM447.539 179.685C446.903 178.578 445.703 164.873 444.878 149.141C443.418 120.529 443.418 120.529 449.376 119.069C459.125 116.572 478.648 119.257 483.523 123.566C488.657 128.253 489.223 138.285 484.536 142.241C481.593 144.737 481.686 145.562 485.618 149.777C490.87 155.405 491.436 165.602 486.82 172.149C482.04 179.049 450.859 184.937 447.539 179.685ZM473.773 166.168C479.096 160.186 475.798 154.487 466.308 153.569C459.596 152.909 459.409 153.098 459.409 161.74C459.409 169.653 460.068 170.665 464.566 170.665C467.415 170.665 471.56 168.64 473.773 166.168ZM472.573 138.921C476.247 134.517 471.843 129.101 464.661 129.101C460.327 129.101 459.409 130.184 459.409 135.624C459.409 141.04 460.327 142.147 464.661 142.147C467.51 142.147 471.09 140.687 472.573 138.921ZM381.319 108.118C379.2 98.8161 379.388 97.8977 383.533 96.3434C391.163 93.5882 395.943 96.0606 395.943 102.866C395.943 106.281 396.955 109.672 398.156 110.426C401.359 112.428 400.817 115.937 397.308 115.937C395.565 115.937 393.635 114.453 392.999 112.616C391.068 107.647 386.641 108.66 388.313 113.723C389.232 116.666 388.665 118.15 386.64 118.15C384.803 118.15 382.685 114.1 381.319 108.118ZM390.502 102.772C391.256 101.595 390.338 100.582 388.407 100.582C386.546 100.582 384.991 101.595 384.991 102.772C384.991 103.973 385.91 104.986 387.111 104.986C388.218 104.986 389.772 103.973 390.502 102.772ZM557.115 114.288C555.726 111.98 556.361 106.917 559.211 96.0606C559.964 93.5879 562.084 92.9286 566.676 93.588C574.024 94.6948 575.695 98.4628 568.89 98.4628C563.45 98.4628 563.262 100.3 568.325 104.162C571.928 106.823 571.834 107.011 567.595 107.106C565.028 107.106 562.085 109.319 560.884 111.98C559.494 115.112 558.222 115.842 557.21 114.288H557.115ZM401.265 103.785C399.617 92.4812 399.333 92.9286 407.434 90.9976C414.334 89.3491 415.818 93.0227 409.083 95.1422C406.61 95.8722 405.221 97.4501 405.88 98.4628C406.516 99.5696 408.448 99.8288 410.284 99.193C412.027 98.463 413.511 98.9104 413.511 100.111C413.511 101.312 412.026 102.867 410.189 103.597C404.867 105.622 406.422 109.413 412.498 109.413C415.724 109.413 417.561 110.332 416.737 111.509C415.983 112.71 412.592 113.723 409.083 113.723C403.29 113.723 402.654 112.899 401.265 103.785ZM419.021 101.666C418.196 96.2492 418.197 90.9034 418.927 89.6317C421.141 86.0286 430.631 87.2298 432.915 91.3745C435.412 96.0609 432.185 102.772 427.593 102.772C425.827 102.772 424.367 104.798 424.367 107.2C424.367 115.466 420.504 111.509 419.021 101.666ZM428.77 96.3434C428.77 95.2366 427.758 93.6822 426.581 92.9286C425.38 92.1986 424.461 93.117 424.461 95.048C424.461 96.8849 425.38 98.4628 426.581 98.4628C427.758 98.4628 428.77 97.5445 428.77 96.3434ZM536.133 108.401C532.718 104.256 534.014 93.9411 538.441 91.1859C547.814 85.2985 557.657 95.2365 553.418 106.281C551.134 112.357 540.56 113.629 536.133 108.401ZM548.096 100.582C548.096 93.7763 541.385 91.9161 539.359 98.2745C537.617 103.973 539.806 107.647 544.422 106.729C546.612 106.281 548.096 103.879 548.096 100.582ZM441.016 105.904C437.343 102.325 436.142 87.5124 439.533 87.5124C440.546 87.5124 442.312 90.9978 443.325 95.2367C445.892 106.093 449.47 105.716 450.224 94.6006C451.048 84.286 454.816 81.8135 455.358 91.2804C456.371 108.024 449.753 114.735 441.016 105.904ZM509.734 104.986C507.332 102.608 505.401 99.0987 505.401 97.356C505.401 92.6697 513.312 85.2985 518.376 85.2985C525.181 85.2985 525.747 89.2549 519.106 90.0791C510.463 90.9975 509.003 101.948 517.269 104.068C520.401 104.798 522.333 106.281 521.697 107.388C519.672 110.685 514.421 109.578 509.734 104.986ZM461.622 104.444C461.528 102.961 460.892 97.8978 460.139 93.3056C458.773 85.0162 458.772 85.016 467.226 85.6754C475.233 86.3113 475.799 86.7822 476.152 94.0354C476.623 103.243 473.845 107.2 466.874 107.2C463.93 107.2 461.622 105.904 461.622 104.444ZM470.358 100.582C470.358 99.3811 469.346 98.4628 468.145 98.4628C466.967 98.4628 466.026 99.3811 466.026 100.582C466.026 101.76 466.967 102.772 468.145 102.772C469.346 102.772 470.358 101.76 470.358 100.582ZM481.309 95.1422C481.309 88.5247 482.322 83.085 483.523 83.085C484.7 83.085 485.713 87.5123 485.713 92.9286C485.713 101.312 486.373 102.772 490.047 102.772C492.449 102.772 494.45 103.785 494.45 104.986C494.45 106.187 491.506 107.2 487.927 107.2C481.404 107.2 481.309 107.011 481.309 95.1422ZM496.663 104.444C496.757 97.1675 499.608 85.2985 501.28 85.2985C502.363 85.2985 503.21 90.1735 503.21 96.2493C503.21 104.539 502.363 107.2 499.89 107.2C498.147 107.2 496.663 105.904 496.663 104.444ZM559.047 41.5201C557.281 38.7648 563.356 36.2686 567.783 37.9171C569.62 38.6706 571.08 40.2249 571.08 41.5201C571.08 44.3696 560.789 44.4638 559.047 41.5201Z" fill="#8550DC"/>
</svg>
