<svg width="964" height="725" viewBox="0 0 964 725" fill="none" xmlns="http://www.w3.org/2000/svg">
<path fill-rule="evenodd" clip-rule="evenodd" d="M323.714 157.56C323.714 139.22 323.943 138.114 327.302 138.114C330.66 138.114 330.871 139.22 330.871 157.56C330.871 175.9 330.66 177.103 327.302 177.103C323.943 177.103 323.714 175.9 323.714 157.56ZM338.332 158.152C338.771 138.934 338.772 138.934 343.543 138.4C347.951 137.961 348.466 138.629 351.157 148.171C356.291 166.358 355.47 166.664 361.215 144.583C362.779 138.629 363.524 137.884 367.779 138.4C372.55 138.934 372.551 138.934 372.99 158.152C373.524 177.103 373.447 177.312 369.573 176.797C365.909 176.282 365.68 175.385 365.986 164.641C366.367 151.74 364.497 152.942 361.062 167.77C359.421 174.851 358.085 177.103 355.623 177.103C353.161 177.103 351.825 174.717 350.031 166.873L347.722 156.663L346.825 166.434C346.004 174.927 345.413 176.282 341.825 176.797C337.817 177.312 337.817 177.236 338.332 158.152ZM379.478 174.717C379.039 173.439 378.81 164.87 379.115 155.69C379.631 138.934 379.631 138.934 384.554 138.4C387.455 138.113 389.688 138.781 390.146 140.194C390.585 141.453 392.303 147.274 393.944 153.171L396.998 163.82L400.585 150.919C403.925 138.781 404.383 138.114 409.154 138.114C414.211 138.114 414.212 138.113 414.212 157.56C414.212 175.9 414.002 177.103 410.643 177.103C407.437 177.103 407.131 175.824 406.921 164.202C406.845 157.198 406.311 152.942 405.872 154.946C400.051 179.851 396.33 182.751 391.101 166.434L387.971 156.663L387.761 166.873C387.608 175.9 387.15 177.103 383.944 177.103C382.017 177.103 379.936 176.053 379.478 174.717ZM421.311 157.56C421.311 139.22 421.521 138.114 424.88 138.114C428.162 138.114 428.391 139.22 428.391 157.56C428.391 175.9 428.162 177.103 424.88 177.103C421.521 177.103 421.311 175.9 421.311 157.56ZM439.498 173.076C428.467 161.282 435.395 138.114 449.861 138.114C455.223 138.114 463.869 144.22 463.869 147.942C463.869 151.301 457.838 151.224 454.995 147.866C449.25 140.938 442.628 146.301 442.628 157.866C442.628 167.618 447.552 173.076 453.506 169.87C457.895 167.561 457.686 162.923 453.201 162.923C450.892 162.923 449.708 161.74 449.708 159.354C449.708 156.434 450.891 155.843 456.789 155.843C463.869 155.843 463.869 155.843 463.869 166.129C463.869 176.492 463.869 176.492 453.506 176.797C444.861 176.95 442.552 176.34 439.498 173.076ZM470.949 157.56V138.114H479.079C488.907 138.114 493.621 140.423 495.93 146.377C497.19 149.812 496.961 151.969 495.11 154.946C493.621 157.121 493.163 159.583 493.984 160.461C494.805 161.282 495.778 165.461 496.141 169.641C496.751 176.415 496.446 177.16 493.163 176.721C490.549 176.339 489.365 174.488 488.697 170.003C487.953 164.793 487.056 163.667 482.953 163.228C478.335 162.713 478.029 163.076 478.029 169.87C478.029 175.901 477.514 177.103 474.537 177.103C471.178 177.103 470.949 175.9 470.949 157.56ZM487.8 150.48C487.8 146.968 486.827 145.938 482.953 145.48C478.564 145.041 478.029 145.48 478.029 150.48C478.029 155.48 478.564 155.996 482.953 155.48C486.827 155.022 487.8 153.991 487.8 150.48ZM501.217 174.851C501.293 173.667 503.908 165.099 506.961 155.766C511.427 142.579 513.45 138.858 516.274 138.476C519.328 138.037 520.607 140.346 525.511 155.404C532.229 175.747 532.382 177.103 527.897 177.103C525.817 177.103 524.175 175.461 523.431 172.618C522.534 169.049 521.274 168.229 516.351 168.229C511.427 168.229 510.167 169.049 509.27 172.618C508.068 177.236 500.988 179.183 501.217 174.851ZM518.736 157.122C517.839 153.992 517.019 150.995 516.942 150.48C516.732 148.61 513.813 156.816 513.66 159.793C513.526 161.74 514.862 162.923 516.942 162.923C519.996 162.923 520.225 162.255 518.736 157.122ZM540.13 161.148C540.13 145.194 540.13 145.194 534.691 145.194C530.435 145.194 529.404 144.45 529.843 142.064C530.282 139.45 532.458 138.934 543.717 138.934C554.901 138.934 557.057 139.45 557.573 142.064C558.031 144.45 556.905 145.194 552.649 145.194C547.21 145.194 547.21 145.194 547.21 161.148C547.21 175.901 546.981 177.103 543.717 177.103C540.435 177.103 540.13 175.901 540.13 161.148ZM562.191 174.717C561.676 173.439 561.523 164.87 561.828 155.69C562.267 140.346 562.649 138.934 565.855 138.934C569.214 138.934 569.424 140.347 569.958 158.019C570.397 176.282 570.244 177.103 566.752 177.103C564.729 177.103 562.726 176.053 562.191 174.774V174.717ZM612.898 157.56C612.898 139.22 613.108 138.114 616.467 138.114C619.081 138.114 621.543 141.167 625.704 149.812L631.524 161.434L632.345 150.251C633.089 141.377 633.91 138.858 636.372 138.4C639.196 137.884 639.501 139.678 639.501 157.484C639.501 175.9 639.272 177.103 635.932 177.103C633.394 177.103 630.78 173.82 626.314 165.099L620.112 153.171L620.054 165.099C619.902 175.901 619.597 177.103 616.39 177.103C613.032 177.103 612.821 175.9 612.821 157.56H612.898ZM765.859 164.412C764.752 163.305 764.217 160.251 764.751 157.713C766.087 151.224 758.339 146.606 753.415 150.919C750.572 153.457 749.236 153.094 736.717 145.785L723.148 137.961L732.69 121.854C744.026 102.617 743.358 103.285 746.622 106.052C748.874 107.846 748.053 110.079 741.183 121.472C733.434 134.163 733.205 134.831 736.411 137.217C738.205 138.629 741.106 140.27 742.824 140.862C745.209 141.606 745.743 142.942 744.846 145.709C743.491 149.812 742.232 150.633 767.729 130.137C775.477 123.934 776.45 123.572 778.988 126.11C781.526 128.572 781.45 129.907 778.168 140.117C776.221 146.301 773.683 154.736 772.576 158.896C770.477 166.797 769.217 167.771 765.859 164.412ZM771.374 136.396C771.011 135.938 768.836 137.35 766.679 139.602C763.32 142.942 763.11 143.763 765.419 145.194C767.423 146.454 768.549 145.709 770.114 142.064C771.221 139.373 771.832 136.835 771.374 136.396ZM179.475 149.354C170.219 135.862 169.322 133.857 171.708 131.548C174.017 129.163 175.372 130.346 183.712 142.274C193.101 155.69 193.101 155.69 198.998 152.121C204.437 148.686 208.464 148.762 208.464 152.197C208.464 154.125 194.151 164.717 191.689 164.564C190.658 164.564 185.143 157.713 179.475 149.354ZM836.985 153.61C835.039 151.377 833.627 148.61 833.779 147.35C834.008 146.148 834.218 144.583 834.371 143.915C834.447 143.247 836.909 144.965 839.734 147.713C842.654 150.404 844.505 153.763 843.989 155.098C842.73 158.534 841.089 158.228 836.985 153.61ZM201.613 134.297C196.383 125.499 192.433 118.056 192.738 117.751C193.101 117.522 197.357 114.774 202.204 111.797C208.693 107.846 211.594 106.873 213.311 108.208C216.67 111.052 216.155 112.083 209.361 115.823C202.872 119.239 202.433 119.984 204.227 124.621C205.105 127.007 206.079 126.93 212.186 123.801C218.674 120.518 219.285 120.441 220.315 123.266C221.06 125.213 220.391 127.006 218.388 128.19C209.952 133.342 209.666 133.705 212.128 137.655C214.437 141.377 214.437 141.377 221.441 137.808C227.109 134.907 228.751 134.678 229.934 136.606C230.754 137.961 231.499 139.373 231.499 139.888C231.499 141.091 214.571 150.556 212.643 150.404C211.823 150.404 206.823 143.171 201.613 134.373V134.297ZM709.197 130.805C695.571 126.854 694.14 109.697 706.449 96.7962C712.556 90.403 721.277 90.2501 727.327 96.2808C731.793 100.689 732.537 103.667 730.667 108.514C729.331 112.007 724.636 110.232 724.636 106.129C724.636 102.102 720.304 98.59 716.354 99.3343C712.404 100.079 705.113 110.747 705.113 115.823C705.113 120.365 708.243 123.858 712.346 123.858C716.296 123.858 718.224 118.724 714.789 117.388C711.812 116.262 711.583 115.136 713.758 111.72C715.018 109.774 716.22 109.85 720.839 112.235C723.892 113.8 726.354 115.88 726.354 116.93C726.354 119.621 720.838 129.907 718.606 131.396C716.296 132.884 716.583 132.885 709.197 130.805ZM243.655 125.423C240.067 121.854 240.067 121.549 243.064 119.85C245.296 118.648 247.3 118.724 249.476 120.06C253.121 122.293 257.377 121.186 258.789 117.674C260.278 113.647 255.354 111.185 248.579 112.464C243.35 113.437 241.633 112.827 237.835 109.105C232.472 103.743 232.09 99.1816 236.422 93.8189C240.22 89.1242 249.991 88.3798 254.171 92.5592C258.484 96.8722 254.324 100.823 248.942 97.5598C245.812 95.5368 244.839 95.6128 242.606 97.8457C238.503 101.949 241.575 104.411 250.659 104.411C260.049 104.411 261.995 105.308 265.049 111.109C267.74 116.262 266.251 121.033 260.43 125.651C254.533 130.27 248.426 130.194 243.732 125.423H243.655ZM681.258 116.491C680.876 115.136 679.979 108.59 679.311 101.872L678.185 89.6396L673.872 100.079C671.563 105.899 669.617 110.747 669.617 111.052C669.617 112.236 664.406 111.262 663.586 109.926C662.994 109.029 665.742 100.823 669.54 91.7386C679.388 68.1695 684.674 69.143 685.418 94.6395L685.724 103.514L690.495 92.4066C695.037 81.9675 698.167 79.0667 700.628 83.0171C702.422 85.9179 688.338 117.598 685.055 118.266C683.338 118.571 681.697 117.751 681.258 116.491ZM223.522 113.285C222.93 112.312 223.006 111.491 223.75 111.491C224.418 111.491 223.522 109.926 221.804 107.98C218.674 104.563 219.132 99.0483 222.548 99.0483C224.877 99.0483 228.006 105.003 228.006 109.487C228.006 113.571 225.239 115.957 223.598 113.285H223.522ZM285.774 105.67C284.286 101.567 281.442 93.7426 279.438 88.3799C277.492 83.0172 275.851 78.1702 275.851 77.5023C275.851 75.9374 289.42 70.6317 293.523 70.6317C298.828 70.6317 304.553 79.2194 303.294 85.1737C302.702 88.0173 302.912 90.1736 303.885 90.1736C305.985 90.1736 313.065 103.895 311.634 105.231C309.115 107.769 304.42 105.594 302.473 100.823C300.984 97.1778 299.038 95.4601 296.366 95.4601C290.622 95.4601 290.03 96.8727 293.007 103.896C295.164 109.106 295.24 110.442 293.236 111.72C289.419 114.182 288.675 113.571 285.774 105.67ZM296.29 84.8115C298.217 81.6816 293.446 77.5781 289.343 78.8377C284.286 80.4026 284.362 80.174 286.442 85.5558C287.931 89.5826 288.752 90.0211 291.729 88.4562C293.599 87.4065 295.679 85.7657 296.29 84.8115ZM654.272 106.567C653.146 105.823 651.944 103.285 651.658 100.899C650.761 95.0976 643.528 93.0745 638.605 97.3303C636.601 99.0478 633.757 99.8687 632.116 99.258C629.73 98.3801 631.238 95.3073 640.704 82.1965C646.963 73.3986 652.841 66.3189 653.815 66.3953C654.712 66.4716 656.2 66.6811 657.25 66.8338C659.254 67.1391 659.712 107.923 657.613 107.846C656.945 107.846 655.379 107.235 654.272 106.491V106.567ZM652.25 83.9908C653.07 76.5289 652.841 76.3762 648.967 82.3496C646.429 86.2237 646.353 87.1966 648.452 88.5325C649.864 89.3531 651.124 90.0974 651.277 90.0974C651.353 90.1737 651.811 87.3306 652.25 83.9908ZM311.786 83.9908L306.424 65.3452L315.45 62.6544C326.634 59.391 328.409 59.3912 329.687 62.5974C330.431 64.4485 328.638 65.8608 323.638 67.3684C317.97 69.0669 316.634 70.2691 316.634 73.7615C316.634 77.502 317.302 78.0172 320.66 77.0439C332.741 73.7042 332.588 73.7041 332.588 77.2728C332.588 79.6584 330.794 81.2998 326.844 82.483C322.225 83.838 321.176 84.9447 321.557 88.3799C322.225 94.2006 322.607 94.3537 330.05 91.8918C335.355 90.1742 336.844 90.174 338.027 92.0251C338.848 93.3038 339.153 94.9447 338.695 95.689C338.027 96.7387 320.584 102.54 317.97 102.54C317.531 102.54 314.763 94.201 311.786 83.9146V83.9908ZM344.44 94.1241C343.466 92.4829 338.485 71.7578 336.996 63.3417C335.87 56.853 335.871 56.8527 344.44 54.9824C351.31 53.4939 353.829 53.6466 356.959 55.7267C365.68 61.3948 364.058 75.632 354.363 78.3992C348.924 79.9641 348.695 80.4028 349.668 86.5861C350.489 91.6625 350.031 93.4567 347.951 94.2773C346.386 94.8689 344.821 94.7921 344.44 94.1241ZM355.107 69.5245C356.672 65.4977 353.237 60.803 349.211 61.5473C344.669 62.3679 344.439 62.8074 345.718 67.9601C347.054 73.0938 353.313 74.2192 355.107 69.5245ZM608.871 93.3798C601.333 91.3569 601.333 91.3569 604.768 78.914C606.18 73.9139 608.261 66.3185 609.31 62.0627C611.333 54.3909 611.333 54.3909 617.879 55.5742C627.65 57.3681 632.345 61.013 632.345 66.9864C632.345 69.7536 631.238 73.0169 629.73 74.2192C627.879 75.7841 627.574 77.2728 628.852 79.582C632.192 85.8417 625.112 95.9183 617.879 95.3076C616.543 95.2312 612.516 94.3531 608.871 93.3798ZM621.467 84.2005C622.058 80.8608 619.157 77.8646 615.207 77.7883C612.001 77.7119 610.283 85.021 613.108 86.8912C616.772 89.2004 620.722 87.9411 621.467 84.1242V84.2005ZM624.959 68.3987C625.341 66.4712 624.005 64.7535 621.39 63.7802C618.108 62.5207 617.058 62.9598 615.951 65.8606C615.054 68.2461 615.341 70.0398 616.772 71.0131C620.188 73.1696 624.291 71.9102 624.959 68.3987ZM375.451 83.3036C373.524 81.3761 371.215 74.9636 369.936 67.807C368.753 61.0894 367.398 54.0856 366.883 52.2917C366.215 49.7726 366.806 49.2385 370.089 49.6965C373.734 50.2118 374.478 51.7764 376.425 63.3987C378.81 77.7119 380.146 80.174 385.222 79.2198C388.868 78.4755 389.688 67.6544 387.15 53.3412C385.891 46.5663 386.119 45.8224 389.326 45.8224C393.047 45.8224 393.352 46.5667 396.406 64.0097C398.333 75.4793 396.769 81.8153 391.33 84.7352C385.967 87.636 379.116 86.9678 375.451 83.3036ZM560.931 83.6088C559.958 81.9676 565.779 47.9789 567.267 46.4904C567.783 45.956 572.477 46.1846 577.706 47.0052C585.607 48.2839 587.249 49.1618 587.688 52.5206C588.069 55.1352 587.478 56.242 585.913 55.7267C584.634 55.3641 580.989 54.5436 577.859 54.0092C572.706 53.1123 572.039 53.494 572.039 57.2154C572.039 61.4712 575.015 63.5513 581.065 63.5513C583.374 63.5513 584.482 64.8303 584.482 67.2158C584.482 70.4983 583.584 70.861 576.962 70.3457C569.424 69.8113 569.424 69.8113 568.527 76.8343C567.707 83.5329 563.164 87.4829 560.931 83.6088ZM403.849 66.3953C401.025 43.2079 400.643 44.6196 409.898 43.2073C421.521 41.4898 427.342 45.5171 426.139 54.4676C425.624 58.628 426.139 61.7769 427.704 63.1891C429.059 64.4486 430.166 67.8071 430.166 70.7079C430.166 77.0439 425.395 80.479 414.078 82.0439L405.948 83.2465L403.849 66.3953ZM422.189 69.754C422.189 67.0631 420.777 66.0899 416.158 65.6509C411.234 65.1929 410.337 65.5746 411.311 68.0364C411.902 69.6777 412.437 71.7579 412.437 72.7312C412.437 73.7045 414.593 74.2194 417.284 73.9141C420.853 73.4751 422.189 72.3494 422.189 69.754ZM419.212 54.2381C419.88 50.8029 415.643 48.4176 411.692 49.9825C410.127 50.5932 409.517 52.3681 410.127 54.6772C411.311 59.2384 418.315 58.9328 419.212 54.2381ZM531.332 77.7883C524.557 71.0134 524.404 56.4711 530.969 47.6732C535.95 40.8983 547.286 40.4404 552.362 46.8527C559.061 55.3642 556.237 77.044 548.031 80.1738C542.439 82.3494 534.767 81.2234 531.332 77.7883ZM544.309 73.7615C547.801 71.166 549.977 60.4979 548.336 53.9329C547.057 48.9519 540.282 47.5206 537 51.5474C533.278 56.1086 532.534 66.9102 535.587 71.5286C538.87 76.605 539.977 76.9104 544.309 73.7615ZM436.426 77.3491C436.063 76.0896 435.395 67.2921 434.861 57.8263C434.04 41.7955 434.269 40.5167 437.323 40.5167C440.758 40.5167 442.017 45.7457 443.067 63.5513C443.449 71.5285 443.449 71.5289 451.044 71.2426C457.896 70.8609 458.582 71.2426 458.582 75.1931C458.582 79.2962 457.972 79.5057 447.838 79.5057C440.834 79.5057 436.96 78.7614 436.426 77.3491ZM482.438 75.479C477.361 71.166 474.747 59.1617 476.98 50.4402C479.9 38.8752 494.137 34.7153 500.988 43.4368C503.011 45.9559 504.652 49.1622 504.652 50.5172C504.652 54.3149 497.934 53.3412 496.675 49.3907C494.957 44.0281 487.285 44.6959 485.11 50.364C482.572 57.0053 483.029 64.0093 486.159 68.475C489.594 73.3224 491.446 73.4754 495.32 68.8571C497.934 65.7845 504.652 63.8566 504.652 66.0895C504.652 69.4483 499.957 75.9373 496.369 77.5786C490.186 80.403 487.724 80.0401 482.438 75.479ZM462.075 58.2649C462.075 39.9249 462.304 38.7421 465.663 38.7421C468.869 38.7421 469.155 39.9251 469.232 51.5474C469.232 58.6277 469.766 67.4252 470.357 71.0894C471.407 77.349 471.178 77.712 466.77 77.712C462.075 77.712 462.075 77.7117 462.075 58.2649ZM431.063 724.057C375.986 719.42 295.393 702.511 295.393 695.641C295.393 690.583 289.954 682.683 286.442 682.683C284.515 682.683 282.95 681.48 282.95 680.068C282.95 677.988 283.904 677.759 287.568 679.171C313.733 689.171 373.447 702.205 412.437 706.461C473.563 713.16 543.336 710.565 600.436 699.381C605.589 698.408 606.257 698.561 604.463 700.488C603.203 701.843 602.23 704.668 602.23 706.824C602.23 709 603.203 711.08 604.463 711.519C605.665 711.977 606.18 712.797 605.665 713.389C604.176 715.03 563.088 721.29 540.13 723.389C521.561 725.088 448.296 725.47 431.063 724.057ZM607.516 710.183C607.516 708.255 608.871 707.874 612.898 708.694C619.081 709.877 619.52 708.847 614.597 703.923C610.436 699.744 609.901 696.022 613.718 697.511C615.207 698.026 616.39 697.816 616.39 696.919C616.39 696.098 619.005 694.82 622.135 694.152C636.009 691.328 671.849 680.583 687.06 674.782C696.163 671.347 703.834 668.522 704.14 668.522C704.426 668.522 705.113 670.087 705.628 672.014C706.525 675.526 713.968 677.244 713.968 673.961C713.968 673.064 714.426 671.041 715.018 669.476C715.762 667.549 715.094 666.728 712.861 666.728C710.991 666.728 723.148 660.011 739.694 651.747C822.825 610.582 885.059 551.688 920.632 480.504C928.38 464.988 939.64 431.457 942.77 414.377C943.953 407.812 945.441 402.449 946.128 402.449C946.796 402.449 947.236 386.266 947.159 366.514C946.93 336.551 946.262 327.448 942.98 311.952C935.003 274.68 921.3 241.874 900.651 210.863C884.238 186.187 880.441 181.568 857.329 158.076C842.654 143.171 838.551 138.114 841.299 138.114C845.936 138.114 847.272 134.373 843.608 131.319C841.089 129.239 841.165 129.087 844.066 129.984C845.86 130.576 848.532 131.014 850.02 131.014C853.837 131.014 878.513 155.48 894.238 174.774C907.425 190.958 907.426 190.958 904.448 197.141C901.605 203.114 901.681 203.477 905.269 207.065C907.349 209.145 909.067 212.065 909.067 213.554C909.067 214.966 909.887 216.149 910.861 216.149C911.834 216.149 912.654 217.275 912.654 218.611C912.654 222.351 917.044 223.305 920.995 220.557C924.353 218.248 924.945 218.993 931.815 232.771C949.258 267.963 957.369 295.692 961.778 334.986C970.194 409.911 946.491 485.199 893.647 551.555C881.566 566.689 858.302 590.468 855.478 590.468C854.428 590.468 854.581 589.341 855.917 587.7C859.123 583.902 857.101 582.853 851.509 585.391C847.711 587.108 846.814 588.597 847.424 592.242C848.016 596.193 847.501 596.803 844.218 596.193C842.043 595.754 839.81 596.269 839.142 597.395C838.398 598.521 839.371 599.342 841.604 599.342C843.608 599.342 845.249 599.933 845.249 600.754C845.249 602.758 810.592 628.636 790.248 641.823C755.877 664.037 702.346 687.969 657.479 701.099C619.902 712.053 607.516 714.362 607.516 710.183ZM621.696 702.282C621.696 701.385 620.932 700.126 619.978 699.534C619.005 698.923 618.184 699.668 618.184 701.156C618.184 702.721 619.005 703.923 619.978 703.923C620.932 703.923 621.696 703.179 621.696 702.282ZM820.363 617.071C820.363 616.097 819.161 615.277 817.749 615.277C816.26 615.277 815.058 616.097 815.058 617.071C815.058 618.044 816.26 618.788 817.749 618.788C819.161 618.788 820.363 618.044 820.363 617.071ZM951.644 393.575C951.644 392.602 950.823 391.801 949.85 391.801C948.877 391.801 948.056 392.602 948.056 393.575C948.056 394.548 948.877 395.293 949.85 395.293C950.823 395.293 951.644 394.548 951.644 393.575ZM432.933 703.77C348.313 697.282 264.82 672.015 197.51 632.587C186.402 626.022 182.452 622.815 183.196 620.869C183.941 618.941 183.425 618.483 181.116 619.38C174.78 621.842 131.688 588.292 103.806 559.15C64.2249 517.928 38.6521 471.935 26.3428 420.198C19.7205 392.086 18.5946 347.353 23.8809 318.135C50.5035 170.538 200.945 53.1886 399.078 25.3829C427.265 21.4324 506.961 19.9441 538.641 22.7114C635.551 31.2802 726.125 63.5517 799.924 115.747C820.726 130.423 831.012 139.373 831.012 142.809C831.012 147.045 827.73 145.48 814.619 134.908C746.106 79.735 653.967 43.131 551.694 30.5354C517.171 26.2796 445.681 26.2802 411.54 30.6123C320.66 42.0819 244.781 68.7803 179.17 112.388C102.451 163.305 54.4539 225.996 34.2437 301.36C27.0871 328.193 25.236 375.025 30.1406 404.53C43.576 485.199 94.7026 556.994 178.273 612.682C262.663 668.885 366.959 698.561 480.339 698.637C617.669 698.714 739.77 656.651 830.039 578.311C836.833 572.414 842.864 567.948 843.608 568.387C844.295 568.845 845.326 567.795 845.993 566.23C846.814 563.921 847.558 563.768 849.2 565.333C853.017 569.208 823.493 594.57 786.297 619.456C691.544 682.682 561.905 713.618 432.933 703.77ZM282.492 693.866C280.774 693.408 279.362 692.301 279.362 691.327C279.362 690.354 280.774 690.431 282.95 691.557C284.877 692.587 286.519 693.866 286.519 694.305C286.519 694.763 286.289 695.049 286.079 694.896C285.774 694.82 284.209 694.305 282.492 693.866ZM259.018 685.221C219.056 669.705 165.372 639.438 133.921 614.609C76.9732 569.666 36.9345 516.726 15.98 458.653C11.1326 445.236 11.1326 444.797 14.4151 442.183C17.6212 439.568 17.6212 439.511 13.7471 440.618C9.35767 441.82 8.97582 440.999 11.6667 435.999C13.6706 432.202 18.5943 431.381 18.747 434.797C18.747 436.229 19.5677 435.923 20.98 434.053C22.9266 431.591 24.11 433.69 29.32 449.11C48.7096 506.592 91.6493 563.253 147.776 605.372C156.803 612.071 164.112 618.636 164.112 619.991C164.112 621.327 165.6 622.376 167.547 622.376C169.398 622.376 177.452 626.384 185.429 631.384C203.693 642.72 244.629 662.987 264.305 670.449C276.08 674.915 278.923 676.633 277.416 678.427C276.385 679.762 276.08 683.121 276.748 686.175C278.179 692.74 278.541 692.816 259.018 685.221ZM457.972 688.56C457.304 687.969 456.789 685.965 456.789 684.171C456.789 679.247 445.013 679.553 443.449 684.4C442.838 686.404 440.758 687.969 438.754 687.969C435.987 687.969 435.395 687.224 436.292 684.839C436.96 683.121 439.937 674.705 442.914 666.137C447.686 652.625 448.888 650.621 452.17 651.06C455.224 651.518 456.56 654.209 459.766 666.651C461.865 674.991 464.098 683.579 464.689 685.736C465.434 688.866 464.918 689.762 462.38 689.762C460.586 689.762 458.583 689.228 457.972 688.56ZM453.659 669.4C452.838 665.24 449.708 662.987 449.708 666.575C449.708 667.472 449.174 669.476 448.582 670.965C447.838 672.988 448.582 673.808 450.968 673.808C453.812 673.808 454.327 672.911 453.659 669.4ZM470.949 671.117C470.949 653.674 471.178 652.568 474.537 652.568C477.743 652.568 478.029 653.674 478.029 667.472C478.029 682.453 478.029 682.453 485.568 683.045C491.083 683.427 493.24 684.4 493.679 686.71C494.213 689.381 492.801 689.762 482.572 689.762H470.949V671.117ZM496.217 686.71C496.751 684.992 498.984 676.633 501.217 668.064C507.4 644.724 511.656 645.258 519.786 670.22C522.457 678.579 525.072 686.328 525.511 687.53C527.076 691.843 519.404 689.763 517.4 685.354C515.969 682.301 513.965 680.888 510.835 680.888C507.782 680.888 505.683 682.301 504.347 685.354C501.961 690.507 494.805 691.691 496.217 686.71ZM512.705 670.678C510.682 662.701 509.499 662.701 507.553 670.678C506.503 674.858 506.885 675.602 510.167 675.602C513.373 675.602 513.736 674.858 512.705 670.678ZM412.437 684.457C407.799 679.839 407.742 673.808 412.208 673.808C414.078 673.808 415.929 675.373 416.463 677.377C416.979 679.324 418.315 680.888 419.364 680.888C422.189 680.888 424.135 674.705 425.624 660.984C426.521 652.625 427.647 648.98 429.269 648.98C430.624 648.98 432.189 649.648 432.704 650.545C434.575 653.522 429.956 681.709 427.113 684.915C423.315 689.018 416.826 688.866 412.437 684.457ZM530.664 676.041C528.66 654.8 529.023 650.773 533.049 650.773C535.95 650.773 536.561 651.957 536.561 657.625C536.561 661.365 537.153 668.217 537.744 672.759C538.87 681.117 538.87 681.118 546.16 680.583C552.516 680.144 553.469 680.583 554.004 684.018C554.519 687.74 554.004 687.969 543.183 687.969H531.79L530.664 676.041ZM395.433 676.041C395.585 668.216 395.204 667.549 390.814 667.014C385.967 666.499 385.738 666.881 383.352 677.606C382.532 681.251 381.501 682.148 378.734 681.404C376.196 680.736 375.452 679.4 376.043 676.709C376.501 674.629 377.684 667.759 378.81 661.366C381.348 645.621 382.093 643.694 385.222 643.694C387.379 643.694 387.837 645.334 387.303 651.518C386.711 659.19 386.864 659.342 392.379 660.01C398.486 660.678 399.975 659.037 399.975 651.594C399.975 646.67 401.921 645.106 405.28 647.186C407.284 648.388 407.284 651.213 405.49 663.961C402.971 682.453 402.227 684.457 398.334 684.457C395.872 684.457 395.356 682.835 395.433 676.041ZM573.832 684.018C573.832 683.789 572.63 676.786 571.142 668.522C567.63 648.465 567.706 645.029 571.599 645.773C574.042 646.231 575.321 650.029 577.63 664.037C579.195 673.808 580.169 682.377 579.711 683.121C579.043 684.324 573.832 685.068 573.832 684.018ZM585.607 668.961C580.016 643.903 580.016 643.694 584.863 643.694C587.993 643.694 590.818 645.926 594.844 651.594C604.463 664.934 605.665 663.522 601.028 644.056C600.283 641.002 600.818 640.105 603.566 640.105C606.486 640.105 607.516 642.415 610.131 654.724C611.772 662.777 613.566 671.194 614.081 673.35C614.825 676.633 614.234 677.377 610.722 677.377C607.593 677.377 604.386 674.629 598.795 667.167L591.199 656.957L592.383 665.831C592.993 670.678 593.947 676.117 594.482 677.835C595.073 679.991 594.329 680.888 591.867 680.888C588.966 680.888 587.84 678.808 585.607 668.961ZM362.417 674.247C361.959 670.144 360.909 669.266 356.081 668.808C352.13 668.446 349.955 669.114 349.287 671.041C348.695 672.53 346.233 673.808 343.771 673.808C341.386 673.808 339.668 673.217 339.974 672.473C342.512 666.499 359.955 638.312 361.062 638.312C364.573 638.312 368.066 644.438 368.066 650.621C368.066 654.266 368.6 662.243 369.192 668.216C370.318 678.426 370.089 679.095 366.654 679.095C363.982 679.095 362.856 677.835 362.417 674.247ZM360.909 656.518C360.852 649.877 360.852 649.877 358.085 654.953C355.775 659.19 355.699 660.316 357.703 661.575C358.982 662.396 360.317 663.14 360.547 663.14C360.776 663.14 360.986 660.163 360.909 656.518ZM330.279 670.678C328.409 670.22 327.454 668.885 327.97 667.549C328.409 666.27 329.382 662.396 329.974 659.037C331.1 653.236 330.87 652.778 325.508 651.671C319.019 650.24 319.477 649.876 317.302 657.854C315.527 664.342 309.553 667.702 309.553 662.11C309.553 660.469 311.634 652.033 314.248 643.388C318.122 630.563 319.611 627.662 322.454 627.662C325.947 627.662 326.1 631.919 322.817 640.488C321.92 642.797 322.97 643.846 327.588 645.029C333.333 646.518 333.561 646.365 335.871 639.82C338.027 633.617 341.825 631.021 343.848 634.361C344.592 635.564 335.355 670.144 334.077 671.041C333.714 671.194 332.073 671.041 330.279 670.602V670.678ZM626.467 662.701C625.035 657.625 623.394 651.213 622.803 648.541C621.829 644.591 620.646 643.694 616.39 643.694C612.44 643.694 611.104 642.797 611.104 640.488C611.104 636.079 633.91 630.354 635.475 634.361C636.372 636.689 634.139 639.132 629.807 640.64C628.776 641.003 629.654 647.186 631.829 655.316C633.91 662.987 635.246 669.934 634.73 670.678C632.345 674.552 628.852 671.117 626.467 662.701ZM657.097 645.468C652.25 631.46 651.505 627.357 653.223 625.64C654.559 624.304 655.971 624.075 656.868 625.124C658.147 626.46 663.051 639.667 667.021 652.033C667.536 653.674 669.254 653.522 674.235 651.441C680.571 648.827 683.644 649.876 683.777 654.648C683.777 655.545 665.895 663.216 663.662 663.216C663.433 663.216 660.456 655.239 657.097 645.545V645.468ZM288.236 657.339C282.797 654.572 278.236 645.85 280.851 643.235C283.542 640.564 288.236 642.949 288.236 646.976C288.236 651.518 293.523 653.388 296.958 649.953C299.343 647.491 298.961 646.518 293.083 640.488C289.419 636.747 286.519 631.976 286.519 629.819C286.519 624.533 292.549 618.788 298.065 618.788C303.523 618.788 311.347 626.098 311.347 631.155C311.347 636.155 307.015 635.716 303.523 630.354C301.881 627.892 299.496 625.945 298.141 625.945C293.236 625.945 294.057 631.022 299.935 636.69C307.473 644.056 307.989 650.697 301.347 655.907C295.908 660.239 294.267 660.392 288.236 657.339ZM697.956 629.38C696.086 612.605 696.086 609.399 698.167 608.063C702.117 605.525 702.575 605.811 711.888 617.529C716.736 623.56 722.404 630.125 724.408 631.976C729.045 636.155 729.102 637.643 724.713 638.846C722.69 639.361 720.018 638.388 718.3 636.46C713.968 631.689 707.193 635.182 706.525 642.567C706.144 645.926 704.884 648.312 703.09 648.617C700.705 649.056 699.884 645.85 697.956 629.38ZM710.399 627.968C710.247 625.277 703.395 618.044 703.395 620.582C703.319 626.46 705.476 630.945 707.938 630.048C709.274 629.533 710.399 628.56 710.399 627.968ZM643.013 638.464C643.013 636.46 642.192 634.819 641.219 634.819C638.528 634.819 639.139 628.178 641.963 627.148C643.299 626.537 644.94 626.613 645.475 627.205C647.249 628.999 646.658 639.819 644.788 641.002C643.834 641.594 643.013 640.487 643.013 638.464ZM243.426 637.205C242.835 636.613 245.526 629.819 249.323 622.147C256.404 608.12 256.403 608.12 251.938 606.116C247.09 603.883 246.785 603.139 248.942 599.704C251.117 596.269 274.362 607.166 272.873 610.887C272.129 612.834 270.488 613.35 267.129 612.682C262.816 611.708 261.995 612.529 255.888 624.972C249.915 637.052 246.556 640.334 243.426 637.205ZM442.552 636.308C332.435 628.254 239.399 588.826 176.345 523.52C65.3316 408.632 91.1337 248.592 235.086 159.278C308.217 113.953 401.692 90.9945 498.984 94.4869C659.406 100.231 791.736 173.515 837.959 282.123C872.387 363.021 854.123 452.031 788.97 521.211C741.335 571.822 668.204 610.506 589.558 626.613C563.012 632.052 563.241 632.052 563.012 628.102C562.935 625.64 562.725 625.582 561.905 627.662C561.294 629.151 560.035 630.869 558.985 631.537C555.932 633.54 554.137 631.308 556.008 627.816C557.21 625.583 561.523 623.865 569.806 622.376C656.944 606.708 728.281 571.46 780.248 518.291C787.786 510.695 797.615 499.073 802.233 492.508C807.081 485.637 811.642 480.943 812.901 481.401C814.237 481.84 814.772 481.477 814.237 480.58C813.646 479.683 817.519 470.294 822.825 459.778C905.116 295.024 765.782 126.472 528.87 104.334C484.289 100.155 418.773 103.743 376.94 112.617C282.339 132.808 206.155 176.415 161.135 236.359C153.749 246.283 146.974 254.623 146.154 254.928C145.257 255.215 144.589 256.569 144.589 257.753C144.589 259.012 140.619 268.344 135.791 278.478C121.096 309.337 117.375 326.57 117.222 363.384C117.069 395.674 117.89 401.4 126.249 427.946C155.982 522.928 261.404 599.628 392.895 622.147C436.216 629.533 496.14 631.308 540.587 626.537C550.053 625.582 550.798 625.716 550.798 629.151C550.798 633.617 548.412 634.152 514.404 636.537C486.465 638.541 472.075 638.464 442.552 636.308ZM147.184 249.699C146.593 248.802 145.333 248.516 144.436 249.031C143.539 249.623 143.234 250.902 143.768 251.799C144.36 252.676 145.543 252.982 146.516 252.467C147.413 251.856 147.719 250.672 147.184 249.699ZM724.197 616.326C719.636 607.166 716.43 599.189 717.041 598.578C720.17 595.448 723.587 599.112 730.82 613.426C739.694 631.231 740.152 632.949 735.667 632.949C733.434 632.949 729.999 627.968 724.197 616.326ZM225.086 626.995C224.571 625.583 224.418 623.044 224.724 621.326C225.086 619.38 223.445 617.071 220.544 615.43C216.212 612.968 215.468 612.968 212.567 615.658C210.258 617.739 208.464 618.044 206.307 616.842C203.693 615.43 205.258 613.273 216.957 601.937C229.858 589.494 235.239 586.441 237.682 590.391C239.629 593.445 231.136 629.457 228.521 629.457C227.186 629.457 225.621 628.331 225.086 626.995ZM229.571 602.09C229.705 598.96 229.342 599.036 225.163 602.91C220.926 606.937 220.85 607.3 223.827 609.476C226.499 611.479 227.186 611.326 228.216 608.654C228.884 606.937 229.571 603.96 229.571 602.09ZM737.232 610.143C732.232 601.498 728.148 594.036 728.148 593.598C728.148 591.365 744.77 584.876 748.339 585.773C752.213 586.727 756.545 593.368 756.545 598.445C756.545 599.781 757.595 601.498 758.854 602.319C760.114 603.063 762.881 606.269 765.114 609.399C768.988 614.99 768.988 615.143 765.496 616.918C762.576 618.559 761.545 617.968 758.854 613.502C755.725 608.121 752.289 606.937 747.976 609.685C746.03 610.888 746.335 612.376 749.16 617.071C751.183 620.353 752.366 623.636 751.85 624.456C749.465 628.33 745.515 624.533 737.232 610.143ZM749.465 598.578C749.465 594.571 745.362 592.471 740.896 594.189C736.869 595.677 736.946 597.014 740.972 602.395C743.052 605.067 749.389 602.166 749.389 598.578H749.465ZM194.743 610.506C193.178 609.914 193.407 608.063 195.563 603.502C197.739 598.96 198.025 596.498 196.689 594.418C193.712 589.647 191.765 590.086 187.452 596.88C183.788 602.472 182.967 602.91 180.658 600.677C178.425 598.368 179.322 596.059 188.273 581.822C198.406 565.563 198.407 565.562 202.949 568.463C211.308 573.692 215.544 578.54 215.544 582.7C215.544 586.88 209.953 593.96 206.67 593.96C205.716 593.96 204.895 595.601 204.895 597.624C204.895 601.422 199.59 611.784 197.872 611.555C197.281 611.403 195.945 610.964 194.743 610.506ZM206.67 585.906C208.54 583.673 208.311 582.566 205.716 579.723C201.765 575.257 200.945 575.333 198.025 580.028C195.868 583.387 196.021 584.208 198.769 586.211C202.872 589.265 203.922 589.189 206.67 585.906ZM764.599 594.78C759.16 586.441 754.751 579.055 754.751 578.387C754.828 576.001 767.061 569.131 771.221 569.131C776.756 569.131 783.149 576.078 783.149 582.185C783.149 585.086 781.298 588.674 778.454 591.365C773.912 595.525 773.912 595.754 776.813 600.219C779.809 604.857 779.504 609.914 776.221 609.914C775.248 609.914 770.038 603.063 764.599 594.78ZM775.706 582.032C774.733 577.261 769.446 574.952 766.316 578.082C763.931 580.467 763.931 581.135 766.393 584.723C768.625 587.929 769.732 588.292 772.652 586.727C774.656 585.696 775.992 583.597 775.706 582.032ZM620.875 601.498C624.749 592.185 625.341 583.597 622.726 576.078C619.826 567.567 620.265 565.715 624.291 568.998C631.906 575.334 629.444 604.551 621.314 604.551C620.341 604.551 620.112 603.215 620.875 601.498ZM479.003 595.372C475.72 587.261 476.464 578.235 480.873 571.307C484.9 565.124 486.751 566.612 484.137 573.979C482.801 577.643 481.751 582.643 481.751 585.086C481.751 587.471 482.801 592.471 484.137 596.136C487.572 605.888 482.877 605.143 479.003 595.372ZM336.996 595.315C336.386 593.884 336.233 587.185 336.462 580.467C337.054 568.253 337.054 568.253 344.668 568.387C349.134 568.463 353.466 569.742 355.184 571.383C358.905 575.181 358.982 589.57 355.318 593.292C351.367 597.242 338.256 598.655 336.996 595.315ZM350.26 589.647C351.367 588.216 352.13 584.418 351.825 581.212C351.367 576.669 350.336 575.181 347.207 574.723C343.542 574.208 343.256 574.875 343.256 583.158C343.256 592.547 345.852 594.933 350.26 589.647ZM362.111 592.624C366.444 575.181 371.882 565.124 375.165 568.387C378.657 571.822 385.661 595.601 383.581 596.88C382.532 597.548 380.451 596.345 379.039 594.265C375.833 589.341 368.829 589.112 367.551 593.883C367.112 595.83 365.318 597.471 363.753 597.471C361.52 597.471 361.214 596.422 362.111 592.547V592.624ZM375.165 582.49C375.165 581.059 374.344 579.437 373.371 578.826C372.398 578.234 371.654 579.437 371.654 581.44C371.654 583.444 372.398 585.086 373.371 585.086C374.344 585.086 375.165 583.903 375.165 582.49ZM391.253 592.777C380.814 579.571 395.509 559.303 407.055 570.849C413.391 577.185 409.899 581.059 403.334 575.104C396.998 569.36 390.967 578.005 394.612 587.624C396.559 592.7 400.204 593.521 403.562 589.494C406.024 586.517 410.643 585.906 410.643 588.597C410.643 591.956 403.563 597.471 399.23 597.471C396.692 597.471 393.429 595.525 391.253 592.777ZM417.723 593.96C409.746 585.906 415.032 567.204 425.261 567.357C429.956 567.433 434.345 570.486 435.987 574.876C437.475 578.979 432.265 579.055 429.269 575.028C424.212 568.101 417.055 579.208 421.005 587.853C423.238 592.7 427.933 593.597 429.498 589.494C430.987 585.543 437.399 585.983 436.063 589.933C433.296 597.758 423.696 599.857 417.723 593.96ZM439.04 596.136C439.04 595.449 441.14 588.597 443.659 581.002C449.632 563.101 452.38 563.253 458.869 581.88C462.304 591.574 463.124 595.983 461.712 596.88C460.586 597.548 458.506 596.345 457.094 594.265C453.888 589.341 446.865 589.112 445.605 593.883C444.785 597.166 439.04 599.113 439.04 596.136ZM453.201 582.49C453.201 581.059 452.38 579.437 451.426 578.826C450.452 578.234 449.632 579.437 449.632 581.44C449.632 583.444 450.452 585.086 451.426 585.086C452.38 585.086 453.201 583.903 453.201 582.49ZM490.854 582.853C491.293 568.998 491.598 568.177 495.473 567.566C507.248 565.944 515.454 576.441 511.58 588.158C509.499 594.571 504.499 597.471 495.625 597.471C490.339 597.471 490.339 597.471 490.854 582.853ZM504.27 590.009C507.858 586.517 506.885 576.593 502.858 574.36C497.495 571.517 496.007 573.54 496.369 583.311C496.675 592.472 499.499 594.78 504.27 590.009ZM517.095 582.414C517.095 570.181 517.534 567.28 519.709 567.28C521.561 567.28 522.381 569.207 522.381 573.54C522.381 579.208 522.839 579.723 527.687 579.723C532.61 579.723 533.049 579.284 533.049 573.54C533.049 569.207 533.87 567.28 535.74 567.28C537.82 567.28 538.336 570.181 538.336 582.414C538.336 594.628 537.897 597.471 535.74 597.471C533.87 597.471 533.049 595.601 533.049 591.288C533.049 585.544 532.61 585.029 527.687 585.029C522.839 585.029 522.381 585.544 522.381 591.288C522.381 595.601 521.561 597.471 519.709 597.471C517.534 597.471 517.095 594.628 517.095 582.414ZM543.717 594.341C543.927 587.929 552.057 568.177 554.748 567.643C556.752 567.28 558.699 570.773 562.115 581.002C564.653 588.597 566.752 595.372 566.752 596.136C566.752 599.113 561.008 597.166 560.187 593.883C559.519 591.422 557.725 590.391 554.29 590.391C550.931 590.391 549.156 591.422 548.488 593.883C547.362 598.292 543.641 598.654 543.775 594.341H543.717ZM556.599 581.517C556.084 579.57 554.958 578.463 554.138 578.979C551.619 580.544 552.286 585.029 555.035 585.029C556.676 585.029 557.21 583.826 556.599 581.517ZM570.245 582.414C570.245 570.181 570.779 567.28 572.935 567.28C574.729 567.28 575.607 569.131 575.607 573.101L575.684 578.826L580.607 572.871C583.737 569.131 586.791 567.127 588.814 567.566C591.791 568.101 591.562 568.769 587.172 573.979C582.325 579.799 582.325 579.799 586.943 586.803C592.173 594.704 592.688 597.471 589.042 597.471C587.611 597.471 584.787 594.57 582.63 591.135C578.451 584.341 575.684 585.314 575.607 593.444C575.607 595.83 574.5 597.471 572.935 597.471C570.779 597.471 570.245 594.628 570.245 582.414ZM594.692 596.498C592.841 594.57 603.05 568.177 605.665 568.177C608.05 568.177 614.539 582.032 617.058 592.624C617.955 596.345 617.593 597.471 615.341 597.471C613.776 597.471 612.077 595.906 611.619 593.883C611.028 591.651 609.157 590.391 606.485 590.391C604.176 590.391 601.486 591.956 600.436 593.883C598.509 597.471 596.562 598.368 594.692 596.498ZM607.516 581.364C607.516 579.36 606.695 578.234 605.741 578.826C604.768 579.437 603.947 581.059 603.947 582.49C603.947 583.903 604.768 585.029 605.741 585.029C606.695 585.029 607.516 583.387 607.516 581.364ZM161.211 586.364C156.135 582.337 152.413 578.082 152.852 576.899C153.31 575.697 160.009 572.128 167.757 569.074C175.525 565.944 181.86 563.025 181.86 562.586C181.86 562.128 179.608 559.894 176.937 557.585C173.139 554.303 172.528 552.89 174.17 551.173C176.479 548.864 179.017 550.2 189.761 558.997C196.689 564.665 194.895 566.746 177.299 573.54L163.673 578.673L169.399 583.521C173.139 586.651 174.838 589.341 174.093 591.135C172.605 595.009 171.498 594.628 161.135 586.364H161.211ZM795.458 583.902C779.065 573.769 779.274 549.608 795.763 549.608C799.924 549.608 803.206 551.478 809.027 557.28C815.726 563.998 816.775 566.078 816.775 572.414C816.775 585.086 806.336 590.677 795.382 583.902H795.458ZM809.39 573.387C809.772 569.284 808.569 566.459 804.561 562.127C793.149 549.913 784.58 560.791 795.687 573.463C802.844 581.517 808.569 581.517 809.39 573.387ZM143.692 572.643C143.157 571.669 143.539 569.207 144.646 567.204C148.081 560.791 138.177 553.253 132.947 558.329C131.898 559.379 130.047 559.074 128.024 557.585C124.97 555.276 125.199 554.894 131.535 550.868C164.933 530.009 168.215 530.676 157.108 556.612C150.104 572.948 146.516 577.261 143.692 572.643ZM153.005 546.784C152.623 546.402 150.543 547.375 148.387 548.864C145.104 551.173 144.799 552.146 146.593 554.303C148.463 556.536 149.131 556.25 151.287 552.223C152.623 549.608 153.444 547.146 153.005 546.784ZM819.39 557.967C802.309 540.066 802.92 541.554 809.771 534.474C818.875 525.085 830.649 527.394 831.47 538.73C831.68 540.81 833.035 542.451 834.524 542.528C836.012 542.528 839.524 544.608 842.348 547.07C847.119 551.249 847.272 551.841 844.581 554.455C841.909 557.146 841.299 556.994 836.68 552.585C832.215 548.272 831.317 548.043 828.264 550.276C824.905 552.814 824.905 552.967 829.676 557.967C833.474 561.918 834.066 563.559 832.425 565.181C829.295 568.33 829.008 568.101 819.39 557.967ZM823.493 537.68C820.649 534.932 820.287 534.933 816.852 537.986C813.416 541.039 813.416 541.478 816.26 544.608C819.161 547.814 819.39 547.814 822.882 544.322C826.241 540.963 826.317 540.505 823.493 537.68ZM851.509 562.509C850.917 560.867 851.585 558.406 853.15 556.841C855.536 554.379 855.841 554.608 855.841 558.845C855.841 564.437 853.15 566.745 851.509 562.509ZM857.101 556.612C856.223 553.329 857.559 550.734 863.513 544.322C894.754 510.696 917.559 467.527 929.716 419.224C935.308 397.01 937.254 356.38 933.972 330.292C927.178 276.608 900.345 221.531 858.608 175.671C851.222 167.618 845.173 159.869 845.173 158.381C845.173 153.018 850.325 156.224 861.432 168.667C902.731 214.66 926.968 260.367 937.464 311.875C943.877 343.403 944.258 389.93 938.209 396.037C936.358 397.831 936.281 398.728 937.846 399.243C942.77 400.884 930.613 447.106 918.017 474.168C906.166 499.893 888.571 525.906 864.257 553.864C858.379 560.715 858.226 560.715 857.101 556.612ZM283.904 547.375C286.442 538.882 291.137 538.272 289.057 546.708C288.389 549.246 286.671 551.325 285.259 551.325C283.389 551.325 283.007 550.199 283.904 547.299V547.375ZM674.177 546.708C672.002 538.272 676.697 538.882 679.311 547.375C680.132 550.199 679.75 551.325 677.899 551.325C676.487 551.325 674.769 549.246 674.177 546.708ZM117.451 547.375C116.993 546.096 119.092 542.528 122.069 539.398C127.508 533.653 127.509 533.654 123.253 529.188C119.092 524.703 119.092 524.703 113.577 530.009C107.527 535.887 104.703 536.631 103.214 532.985C102.68 531.573 107.756 525.161 115.352 517.546C126.688 506.306 128.768 504.951 131.23 506.974C133.768 509.054 133.615 509.799 129.455 514.207C124.894 518.902 124.817 519.188 127.814 523.673C131.535 529.341 131.764 529.341 137.719 523.673C142.413 519.035 146.364 519.112 146.364 523.749C146.364 526.268 122.432 549.608 119.836 549.608C119.016 549.608 117.89 548.558 117.451 547.375ZM274.076 546.917C274.076 544.99 278.312 537.165 279.362 537.165C282.053 537.165 282.568 539.475 280.774 543.501C279.133 547.07 274.076 549.684 274.076 546.917ZM682.441 543.501C680.571 539.475 681.105 537.165 683.777 537.165C684.903 537.165 689.159 544.99 689.159 546.993C689.159 549.684 684.006 547.07 682.441 543.501ZM265.946 542.013C266.537 540.81 267.434 538.348 268.026 536.707C269.228 533.501 270.87 532.756 272.721 534.627C274.515 536.421 270.125 544.245 267.434 544.245C266.022 544.245 265.354 543.196 265.946 542.013ZM691.163 539.704C688.548 533.959 688.624 533.577 691.544 533.577C693.624 533.577 696.086 538.501 696.163 542.89C696.239 545.887 693.109 543.94 691.163 539.704ZM258.121 538.348C258.121 534.932 262.892 528.959 264.457 530.447C266.175 532.165 262.358 540.658 259.896 540.658C258.942 540.658 258.121 539.627 258.121 538.348ZM698.835 535.371C696.449 530.676 696.449 530.009 698.777 530.009C701.372 530.009 705.113 535.142 705.113 538.807C705.113 542.528 701.602 540.581 698.835 535.371ZM845.631 530.524C835.115 521.211 834.371 520.829 831.241 523.597C828.34 526.268 827.73 526.268 825.726 523.882C823.493 521.211 824.237 520.161 838.321 504.512C839.142 503.539 840.86 503.844 842.501 505.18C845.039 507.26 845.039 507.871 842.119 511.001C839.066 514.341 839.295 514.722 850.325 525.085C859.791 534.035 861.203 536.039 859.2 538.062C857.1 539.99 854.944 538.806 845.631 530.524ZM250.583 536.115C248.865 534.398 253.045 526.497 255.736 526.497C256.995 526.497 258.121 527.089 258.045 527.833C258.045 530.295 251.785 537.318 250.583 536.115ZM706.812 531.783C703.835 526.134 706.812 523.52 710.628 528.444C714.579 533.578 714.789 535.371 711.373 535.371C709.96 535.371 707.862 533.73 706.812 531.783ZM242.167 529.55C242.243 528.367 243.427 525.829 244.839 523.882C248.656 518.901 251.862 522.699 248.197 527.909C245.22 532.165 242.09 533.062 242.167 529.55ZM715.094 527.47C713.148 524.569 712.861 522.699 714.121 521.955C716.144 520.676 720.915 525.982 720.991 529.55C721.125 533.215 718.148 532.165 715.094 527.47ZM236.041 520.982C237.988 517.26 239.476 515.982 240.678 517.261C243.064 519.57 239.399 526.497 235.831 526.497C233.521 526.497 233.598 525.753 236.041 520.982ZM722.766 522.928C719.789 517.26 722.766 514.645 726.583 519.569C730.533 524.703 730.743 526.497 727.327 526.497C725.896 526.497 723.892 524.856 722.766 522.928ZM227.262 521.497C225.754 519.035 229.781 512.336 232.853 512.336C235.983 512.336 235.602 514.798 231.804 519.493C229.647 522.184 228.082 522.852 227.262 521.497ZM729.923 517.546C726.869 511.955 729.846 509.359 733.663 514.264C737.614 519.417 737.823 521.134 734.407 521.134C732.995 521.134 730.973 519.569 729.923 517.546ZM220.163 516.21C218.674 513.749 222.701 506.974 225.697 506.974C228.827 506.974 228.521 509.436 224.724 514.207C222.548 516.802 220.983 517.546 220.163 516.21ZM738.129 513.31C734.617 507.928 734.56 506.974 737.461 506.974C740.667 506.974 744.77 514.13 742.747 516.134C741.717 517.184 739.999 516.058 738.129 513.31ZM213.082 510.848C211.518 508.386 215.621 501.668 218.598 501.668C221.67 501.668 221.365 503.539 217.491 508.539C215.468 511.211 213.827 512.107 213.082 510.848ZM745.133 507.795C741.183 501.745 743.053 499.894 748.053 504.875C750.801 507.565 751.393 509.283 750.057 510.619C748.721 511.955 747.309 511.077 745.133 507.795ZM81.1338 499.435C82.1834 496.306 90.9047 491.764 92.6223 493.405C94.3399 495.18 86.7253 501.668 83.0802 501.668C81.5916 501.668 80.7711 500.638 81.1338 499.435ZM874.028 498.691C870.459 496.153 868.15 489.817 871.356 491.382C880.288 495.714 882.463 497.279 882.463 499.283C882.463 502.413 879.028 502.126 874.028 498.691ZM74.5875 491.096C73.0226 488.558 84.2632 483.195 86.5152 485.428C87.6221 486.611 86.4392 488.099 82.775 489.97C76.439 493.252 75.9997 493.329 74.5875 491.096ZM880.212 489.607C876.051 487.069 873.513 482.145 876.337 482.145C878.723 482.145 887.826 487.737 887.826 489.225C887.826 492.355 884.983 492.508 880.212 489.607ZM172.986 482.145C172.986 478.634 174.17 478.634 253.56 478.634C316.348 478.634 334.306 479.092 334.974 480.867C335.718 482.584 335.947 482.584 336.023 480.867C336.099 479.092 371.806 478.634 508.221 478.634C679.082 478.634 680.284 478.634 680.284 482.145C680.284 484.893 679.082 485.714 674.922 485.714C672.002 485.714 669.617 484.76 669.617 483.557C669.617 481.916 669.101 481.916 667.46 483.557C664.33 486.763 229.647 486.687 226.289 483.481C224.418 481.687 223.827 481.687 223.159 483.481C222.548 485.122 215.773 485.714 197.662 485.714C174.169 485.714 172.986 485.58 172.986 482.145ZM687.365 482.145C687.365 478.71 688.548 478.634 738.797 478.634C789.046 478.634 790.248 478.71 790.248 482.145C790.248 485.637 789.046 485.714 738.797 485.714C688.548 485.714 687.365 485.637 687.365 482.145ZM69.5113 481.478C68.3853 478.481 80.1029 472.527 81.7441 475.294C83.08 477.451 83.0801 477.45 76.0761 481.019C71.515 483.328 70.2555 483.405 69.5113 481.478ZM884.028 478.786C881.719 476.916 880.364 474.836 881.109 474.092C882.979 472.145 893.112 476.916 893.112 479.759C893.112 483.195 888.875 482.737 884.028 478.786ZM64.8165 470.962C64.8165 468.137 74.7976 463.214 76.6679 465.141C78.3091 466.706 73.6907 470.885 68.7669 472.298C65.9234 473.195 64.8165 472.832 64.8165 470.962ZM888.57 469.015C886.7 467.603 885.727 465.885 886.414 465.217C887.979 463.652 898.418 467.832 898.418 469.988C898.418 472.374 892.368 471.782 888.57 469.015ZM60.4846 463.137C58.4044 461.038 59.511 459.473 64.8928 457.316C72.87 453.958 75.3321 457.698 67.6412 461.343C64.2823 462.908 61.0952 463.729 60.4846 463.137ZM293.599 460.905C293.599 457.832 294.801 457.316 302.473 457.316C310.145 457.316 311.347 456.878 311.347 453.824C311.347 450.618 312.531 450.236 322.97 450.236C344.001 450.236 380.681 431.667 396.921 412.812C419.803 386.342 428.239 359.586 431.884 302.104C433.525 276.398 434.937 271.093 440.395 271.093C442.78 271.093 442.991 276.093 442.018 312.315C441.063 349.071 441.197 352.868 443.449 346.914C445.09 342.506 446.655 325.063 447.991 295.482C449.937 254.032 450.376 250.443 453.735 247.542C455.891 245.596 457.972 245.004 458.945 245.977C459.918 246.951 460.357 280.787 459.995 328.65C459.537 397.907 459.766 407.812 461.636 396.705C466.77 366.361 470.434 326.781 474.537 256.493C475.949 232.104 475.873 224.279 474.232 221.607C472.361 218.687 472.59 217.504 475.357 214.451C479.594 209.68 481.903 209.813 486.904 215.195C490.262 218.764 490.625 220.042 488.85 222.198C483.621 228.458 495.472 381.495 502.934 405.141C504.118 408.938 504.194 407.965 503.297 401.476C501.885 391.495 502.343 246.283 503.755 244.775C504.27 244.26 506.732 245.749 509.118 248.058C513.297 251.932 513.584 253.363 513.584 269.451C513.584 294.872 517.019 340.12 519.48 346.017C521.122 350.197 521.427 343.193 521.045 311.131C520.606 278.402 520.893 271.093 522.839 271.093C527.381 271.093 529.538 275.349 529.538 284.299C529.614 301.589 534.691 345.197 538.26 359.968C547.802 398.805 571.142 425.713 610.646 443.309C623.7 449.053 628.089 450.16 638.165 450.236C648.967 450.236 650.169 450.618 650.169 453.824C650.169 456.954 651.353 457.316 659.998 457.316C668.51 457.316 669.845 457.775 669.33 460.446C668.719 463.366 658.147 463.577 481.159 464.035C294.496 464.397 293.599 464.397 293.599 460.905ZM391.043 434.74C405.49 419.969 421.673 397.087 429.651 380.083C433.983 370.922 434.651 367.124 434.937 350.941L435.319 332.296L432.704 346.476C427.857 372.258 423.086 384.93 411.234 402.755C401.024 418.175 385.299 432.278 368.371 441.21L354.802 448.366L366.138 448.442C377.474 448.442 377.474 448.443 391.043 434.74ZM418.162 438.691C427.647 421.458 436.139 396.19 441.807 368.69C442.246 366.228 438.372 373.003 433.162 383.747C422.57 405.35 411.902 420.637 395.814 437.488L385.07 448.595L399.23 448.08C413.334 447.546 413.334 447.546 418.162 438.691ZM449.479 436.515C455.071 401.113 457.018 359.147 455.147 316.341C454.403 299.719 453.659 291.379 453.506 297.715C452.533 333.345 446.044 379.93 438.888 403.346C436.808 410.121 431.807 422.431 427.781 430.713C423.754 439.053 420.185 446.438 419.803 447.106C419.517 447.851 425.624 448.442 433.372 448.442H447.609L449.479 436.515ZM473.792 431.591C477.438 422.354 480.873 414.759 481.464 414.759C482.056 414.759 485.262 422.354 488.697 431.591C494.881 448.442 494.881 448.442 501.732 448.442C507.992 448.442 508.526 448.156 507.476 444.492C493.984 396.781 489.289 363.689 484.137 279.07C482.648 253.726 481.007 232.714 480.568 232.256C480.186 231.817 479.823 238.516 479.823 247.085C479.823 255.749 478.621 279.604 477.133 300.177C472.361 366.743 466.693 406.114 457.838 434.74L453.582 448.442H460.358C467.075 448.442 467.075 448.442 473.792 431.591ZM536.847 434.74C521.045 403.041 513.583 369.357 510.243 313.593L508.965 293.23L507.476 320.292C505.835 350.865 507.19 387.468 511.064 420.121C514.786 451.057 513.068 448.442 529.614 448.442H543.717L536.847 434.74ZM564.214 434.206C548.927 418.251 537.82 401.858 527.534 380.541C521.561 368.155 520.74 367.048 521.713 373.079C524.099 387.831 533.564 416.247 541.332 432.049L549.309 448.442H577.859L564.214 434.206ZM600.894 445.027C576.371 433.843 552.133 409.53 540.587 384.491C535.664 373.747 531.714 358.327 528.794 338.04C525.969 318.727 525.301 327.525 527.534 354.434C528.584 367.125 530.149 373.823 533.717 381.438C542 398.881 556.084 418.709 570.836 433.843C585.092 448.443 585.092 448.442 596.791 448.442C608.413 448.366 608.413 448.366 600.894 445.027ZM436.731 317.697C436.292 315.979 435.91 317.314 435.91 320.75C435.91 324.185 436.292 325.597 436.731 323.879C437.189 322.162 437.189 319.414 436.731 317.697ZM483.392 217.867C483.392 216.893 482.571 216.149 481.617 216.149C480.644 216.149 479.823 216.893 479.823 217.867C479.823 218.84 480.644 219.66 481.617 219.66C482.571 219.66 483.392 218.84 483.392 217.867ZM894.448 460.37C889.983 458.595 887.521 453.824 891.108 453.824C895.135 453.824 903.857 457.984 903.246 459.626C902.368 462.393 900.04 462.546 894.448 460.37ZM55.9424 451.286C55.9424 449.931 58.4043 447.927 61.4578 446.877C68.4617 444.416 68.3092 444.416 68.3092 447.412C68.3092 448.824 65.7901 450.751 62.7175 451.877C55.7899 454.263 55.9424 454.34 55.9424 451.286ZM897.96 449.931C893.265 448.233 892.063 446.591 894.086 444.568C895.727 442.927 907.426 447.183 906.758 449.11C905.937 451.725 903.475 451.954 897.96 449.931ZM52.3547 440.77C52.3547 439.511 55.1216 437.564 58.5568 436.515C66.7439 433.977 67.3547 438.385 59.2248 441.21C52.2209 443.595 52.3547 443.671 52.3547 440.77ZM902.883 440.103C897.654 438.901 895.574 436.362 898.704 435.179C901.987 433.919 910.861 437.126 910.861 439.568C910.861 441.439 908.914 441.592 902.883 440.103ZM8.15538 435.77C8.07904 435.179 6.28515 426.82 4.12862 417.221C-1.00505 393.728 -1.4631 337.735 3.38431 311.952C21.877 212.733 93.2904 125.365 205.334 64.6771C219.8 56.8526 221.136 56.4714 223.827 59.2386C226.289 61.7005 226.365 62.368 224.266 63.7039C221.594 65.4215 222.262 65.7272 228.006 65.7272C233.96 65.7272 234.419 65.498 236.422 61.1658C237.911 57.8833 237.758 56.3183 235.602 54.2381C233.14 51.7762 233.292 51.3373 236.651 49.467C239.705 47.8258 240.373 47.9786 240.373 50.1351C240.373 51.7763 241.422 52.4443 243.064 51.7763C244.552 51.261 245.736 49.6962 245.736 48.3412C245.736 45.0778 251.556 42.3105 279.209 32.692C339 11.9665 395.28 2.06174 462.972 0.267822C546.027 -1.8887 617.593 8.91312 688.262 34.1807C735.304 51.1084 797.176 85.1739 832.138 113.571C843.608 122.827 843.608 122.827 839.066 125.213C835.344 127.14 834.753 128.419 835.707 132.216C836.833 136.548 836.68 136.682 833.474 134.373C831.623 132.961 822.004 125.728 812.081 118.266C768.778 85.7655 720.381 61.1657 662.46 42.3105C651.2 38.5891 637.345 34.5624 631.601 33.2838C624.291 31.6425 621.009 30.0012 620.417 27.7684C619.368 23.8179 616.39 23.5315 616.39 27.3293C616.39 29.1995 615.341 29.7916 613.337 29.1237C607.898 27.4061 582.325 22.8445 562.267 20.0201C535.359 16.2223 458.582 14.6576 428.315 17.3293C299.782 28.6654 185.2 77.8646 108.195 154.87C46.4767 216.531 15.1594 286.684 15.1594 363.308C15.1594 382.258 18.671 415.198 21.4191 422.354C22.3161 424.74 21.3424 425.942 17.3347 427.278C14.4148 428.327 11.2086 430.923 10.1781 433.023C9.12844 435.179 8.23172 436.438 8.15538 435.77ZM9.20487 325.674C8.67051 324.395 8.30797 325.444 8.30797 327.83C8.30797 330.292 8.67051 331.341 9.20487 330.063C9.64381 328.88 9.64381 326.857 9.20487 325.674ZM63.0227 198.42C63.0227 197.37 62.2022 196.626 61.2289 196.626C60.2747 196.626 59.4537 197.37 59.4537 198.42C59.4537 199.374 60.2747 200.138 61.2289 200.138C62.2022 200.138 63.0227 199.374 63.0227 198.42ZM78.9771 175.977C78.9771 173.667 78.462 173.515 76.2864 175.309C74.8742 176.492 73.6143 177.847 73.6143 178.209C73.6143 178.591 74.8742 178.877 76.2864 178.877C77.7941 178.877 78.9771 177.541 78.9771 175.977ZM621.753 19.1995C621.753 18.2262 620.932 17.4819 620.054 17.4819C619.157 17.4819 617.879 18.2262 617.287 19.1995C616.696 20.1728 617.44 20.9933 619.005 20.9933C620.493 20.9933 621.753 20.1728 621.753 19.1995ZM48.7858 429.969C48.7858 426.897 59.0722 424.377 61.534 426.763C62.66 427.946 61.2287 429.205 57.5836 430.484C50.1216 433.098 48.7858 433.023 48.7858 429.969ZM904.22 429.511C899.83 428.69 898.628 423.614 902.731 423.614C907.502 423.614 914.582 427.202 913.533 428.996C912.426 430.771 911.223 430.847 904.22 429.511ZM46.2476 420.198C44.9117 418.098 50.7897 414.759 55.7898 414.759C59.3776 414.759 60.7899 417.354 58.099 418.843C54.5303 420.866 47.1446 421.686 46.1713 420.198H46.2476ZM905.861 418.843C901.834 418.041 901.242 413.709 905.269 414.072C906.376 414.148 909.296 414.377 911.758 414.53C914.353 414.682 916.147 415.866 916.147 417.431C916.147 420.045 913.914 420.35 905.861 418.843ZM44.1673 409.167C42.6787 406.705 44.0145 405.885 51.4765 404.682C56.6865 403.862 57.9463 404.167 57.3547 406.038C56.3814 409.015 45.6559 411.477 44.1673 409.167ZM907.426 407.526C901.605 405.217 904.887 402.526 912.197 403.652C915.479 404.167 917.941 405.579 917.941 406.991C917.941 409.835 913.685 409.988 907.426 407.526ZM190.2 381.953C182.376 374.567 178.578 374.281 171.498 380.235C168.062 383.06 165.753 384.033 165.009 382.85C162.165 378.289 175.887 369.434 182.967 371.209C185.353 371.819 189.761 374.72 192.815 377.544C198.998 383.442 202.586 384.109 207.643 380.235C209.59 378.823 213.082 377.621 215.544 377.621C218.006 377.621 221.518 378.823 223.445 380.235C228.598 384.186 233.063 383.442 239.857 377.411C244.018 373.747 247.53 372.182 250.583 372.564C257.148 373.308 257.892 377.544 251.48 377.544C248.121 377.544 244.629 379.339 241.27 382.85C235.373 389.034 229.113 389.701 220.983 385.083C215.773 382.105 215.258 382.105 210.105 385.083C202.052 389.625 197.586 388.88 190.2 381.953ZM712.193 381.953C703.319 374.567 701.678 374.415 694.75 380.159C688.777 385.235 687.365 385.598 687.365 382.258C687.365 378.594 694.96 372.411 701.01 371.132C705.628 370.254 707.632 371.132 713.911 376.8C720.991 383.213 721.583 383.441 726.946 381.208C736.64 377.334 740.438 377.029 744.923 380.006C751.182 384.033 754.389 383.594 761.24 377.544C768.912 370.846 775.706 370.617 783.149 376.953C786.298 379.567 790.534 381.8 792.633 381.953C794.714 382.182 796.431 383.365 796.431 384.777C796.431 388.88 786.736 387.086 781.45 382.029C775.171 375.979 768.988 376.285 762.729 382.85C757.061 388.805 747.9 390.083 744.102 385.522C741.335 382.182 735.381 382.182 730.896 385.522C725.457 389.701 720.247 388.651 712.193 381.953ZM57.1258 376.361C60.0457 368.002 60.0453 368.003 53.1177 362.201L46.1713 356.304H55.1218C64.1486 356.227 64.1485 356.227 66.534 347.43C69.3585 337.219 70.5608 337.296 73.6143 348.098C75.8472 356.075 75.8471 356.075 84.874 356.609L93.8057 357.124L87.1832 361.59C80.2365 366.228 80.1795 366.59 83.5956 380.388C84.8742 385.388 84.8741 385.388 77.4122 379.491C70.0266 373.67 70.0268 373.67 64.2824 377.926C54.3777 385.388 54.0723 385.388 57.1258 376.361ZM878.952 384.033C878.952 383.594 880.135 379.796 881.643 375.54C884.391 367.792 884.391 367.792 878.57 362.945C875.364 360.33 871.948 357.945 870.975 357.792C869.925 357.582 873.513 356.972 878.799 356.38C888.418 355.33 888.418 355.33 891.319 346.609C894.448 337.143 894.83 337.296 898.418 348.632C900.727 356.017 900.861 356.075 909.735 356.609L918.838 357.124L911.968 361.38C905.575 365.407 905.193 366.075 906.242 372.334C906.834 375.979 907.884 380.465 908.551 382.258C909.448 384.644 907.807 384.033 902.063 379.797L894.391 374.205L886.624 379.491C882.387 382.392 878.952 384.491 878.952 384.033ZM624.596 372.182C627.135 363.537 627.135 362.869 624.081 360.712C622.287 359.434 618.852 356.762 616.39 354.739C612.001 351.017 612.001 351.017 621.982 351.017C631.906 350.941 631.906 350.941 634.215 342.811C636.677 334.013 637.937 334.242 641.143 344.3C643.223 350.788 643.528 350.941 652.021 350.941C662.384 350.941 662.842 352.201 654.559 357.583C647.994 361.819 647.116 365.178 650.169 373.231C652.708 379.93 651.429 380.312 643.757 375.102C636.753 370.331 636.601 370.388 627.574 377.105C621.829 381.438 621.829 381.438 624.596 372.182ZM308.733 371.361C311.118 363.46 311.118 363.46 303.733 357.64L296.366 351.838L305.908 350.941C315.45 350.044 315.527 349.968 318.122 342.067C320.966 333.651 320.966 333.651 325.432 346.017C327.073 350.483 327.97 350.941 336.539 351.017C345.928 351.017 345.928 351.017 341.462 354.739C339.077 356.762 335.565 359.51 333.714 360.789C330.584 362.945 330.584 363.537 333.18 371.209C336.386 380.617 335.947 380.903 327.073 374.72C320.431 370.101 320.431 370.101 314.401 374.72C306.347 380.827 305.985 380.617 308.733 371.361ZM190.716 369.567C182.147 362.411 178.788 361.895 172.452 366.895C164.341 373.308 160.906 370.54 168.291 363.613C170.601 361.456 175.295 359.204 178.73 358.613C184.093 357.792 185.944 358.46 192.07 364.052C199.819 371.075 202.281 371.666 207.491 367.716C209.361 366.304 213.006 365.101 215.544 365.101C218.083 365.101 221.728 366.304 223.674 367.716C228.96 371.743 233.961 370.922 239.552 365.025C243.426 360.998 246.041 359.739 249.991 360.178C256.766 360.846 258.407 365.101 251.861 365.101C249.018 365.101 244.552 367.334 240.965 370.464C234.342 376.285 228.751 377.182 223.445 373.155C221.518 371.743 218.006 370.54 215.544 370.54C213.082 370.54 209.59 371.743 207.643 373.155C202.433 377.105 198.846 376.361 190.716 369.567ZM718.377 374.129C716.43 373.308 712.938 370.541 710.552 368.002C705.399 362.411 699.731 362.048 695.342 366.895C692.059 370.54 687.365 371.667 687.365 368.823C687.365 366.075 698.09 358.021 701.754 358.021C706.296 358.021 715.762 362.869 715.762 365.178C715.762 366.151 717.709 367.869 720.094 368.976C723.587 370.54 725.381 370.331 728.892 368.002C734.484 364.357 742.977 364.281 745.877 367.793C749.389 371.953 755.42 370.922 760.935 365.101C767.653 358.174 777.042 357.716 783.091 364.128C785.324 366.514 789.198 368.689 791.66 368.976C798.741 369.873 798.741 373.976 791.584 373.976C787.405 373.976 784.275 372.564 781.374 369.51C775.858 363.69 769.885 363.918 762.5 370.388C755.572 376.514 751.316 377.029 743.95 372.716C739.465 370.025 738.053 369.949 733.053 371.953C724.408 375.464 722.327 375.769 718.453 374.052L718.377 374.129ZM196.918 361.666C194.971 360.846 191.479 358.098 189.093 355.559C183.788 349.891 177.299 349.605 171.708 354.815C168.883 357.506 167.013 358.098 165.753 356.819C164.475 355.559 165.601 353.556 169.475 350.273C176.86 344.09 185.067 344.09 190.868 350.197C197.662 357.506 201.021 358.613 205.85 355.483C211.441 351.838 219.285 351.914 225.983 355.712C231.27 358.765 231.422 358.765 236.27 354.071C244.4 346.322 256.327 344.013 256.327 350.12C256.327 351.761 254.381 352.659 250.812 352.659C247.224 352.659 243.198 354.51 239.247 357.945C232.09 364.281 229.495 364.51 221.67 359.662C215.773 356.075 215.773 356.075 209.056 359.662C201.537 363.689 201.842 363.613 196.918 361.59V361.666ZM743.95 359.892C738.282 356.819 737.079 356.762 732.69 358.995C724.865 363.098 718.739 362.201 713.09 356.227C707.117 350.044 701.296 349.453 694.961 354.434C686.468 361.151 684.082 357.201 692.212 350.044C699.216 343.861 707.041 344.3 714.789 351.17C719.865 355.56 722.022 356.456 725.972 355.407C737.824 352.43 742.232 352.43 746.182 355.197C751.927 359.147 753.492 358.842 762.061 351.685C770.858 344.3 777.118 344.376 784.943 351.915C787.481 354.3 791.278 356.304 793.454 356.304C795.763 356.304 797.328 357.353 797.328 358.918C797.328 363.384 789.427 361.972 782.271 356.304C773.988 349.662 772.347 349.662 764.962 356.151C756.984 363.098 751.698 364.052 743.95 359.892ZM189.685 342.964C182.376 335.578 179.608 335.292 172.013 341.094C166.727 345.12 164.112 345.349 164.112 341.762C164.112 341.017 167.318 338.269 171.192 335.654C179.551 330.139 184.685 330.807 192.815 338.555C199.151 344.605 202.51 345.044 210.029 340.731C215.182 337.735 215.697 337.735 222.109 341.094C225.831 343.04 229.342 344.834 230.01 345.12C230.678 345.349 234.552 342.811 238.732 339.319C243.884 335.063 247.682 333.193 250.736 333.575C257.224 334.319 257.892 338.555 251.48 338.555C248.121 338.555 244.629 340.349 241.27 343.861C235.373 350.044 228.521 350.788 220.697 346.17C215.849 343.269 215.258 343.269 210.41 346.17C202.433 350.864 196.689 349.968 189.685 342.964ZM713.09 343.861C707.04 337.525 700.475 336.933 694.006 342.067C688.624 346.246 687.365 346.476 687.365 343.117C687.365 338.708 696.239 333.193 703.243 333.193C708.167 333.193 710.991 334.472 714.865 338.498C720.457 344.3 725.381 345.12 730.744 341.094C735.381 337.601 739.999 337.811 746.851 342.067C752.595 345.655 752.595 345.655 760.057 339.452C769.446 331.551 775.629 331.342 783.759 338.498C787.099 341.475 791.584 343.861 793.741 343.861C798.664 343.861 797.615 348.04 792.481 348.861C790.305 349.147 786.298 347.144 782.634 343.937C774.885 337.143 770.706 337.143 763.034 343.861C756.163 349.815 750.362 350.483 742.671 346.17C737.767 343.326 737.155 343.326 732.919 346.17C725.838 350.788 718.968 349.967 713.09 343.861ZM48.4043 324.853C45.5035 324.395 43.4993 322.982 43.4993 321.341C43.4993 319.108 44.7591 318.879 50.1218 319.853C53.786 320.521 57.0684 321.342 57.431 321.723C58.4043 322.62 55.866 326.112 54.4537 325.807C53.7858 325.674 51.0184 325.216 48.3466 324.853H48.4043ZM905.574 322.62C905.574 320.006 916.815 317.391 918.246 319.624C918.914 320.673 919.124 322.162 918.609 322.906C917.349 324.929 905.498 324.624 905.498 322.62H905.574ZM50.7322 313.879C45.5031 312.467 43.6329 308.364 48.2703 308.364C54.072 308.44 59.5875 310.54 58.9959 312.467C58.1753 314.929 55.9422 315.311 50.7322 313.879ZM903.112 312.849C902.502 311.284 904.677 309.872 909.219 308.746C914.811 307.333 916.147 307.486 916.147 309.414C916.147 310.826 915.918 311.875 915.784 311.875C915.479 311.875 912.731 312.62 909.659 313.517C905.498 314.7 903.78 314.566 903.189 312.849H903.112ZM51.4765 302.257C46.9917 300.33 46.6294 299.719 49.2249 298.612C53.6334 296.818 61.2289 299.051 61.2289 302.181C61.2289 305.387 58.4804 305.387 51.4765 302.333V302.257ZM900.937 302.772C899.525 300.463 900.421 299.643 907.063 297.792C912.044 296.379 916.376 298.078 913.914 300.539C911.758 302.715 901.91 304.414 900.937 302.772ZM55.1218 291.742C51.553 290.253 50.5796 289.07 52.0682 288.173C55.0454 286.302 65.103 288.688 64.2824 291.074C63.3282 294.051 60.8661 294.204 55.1218 291.742ZM897.597 292.486C896.318 290.406 902.216 287.047 907.197 287.047C912.731 287.047 911.605 290.024 905.269 292.2C898.551 294.586 898.857 294.509 897.597 292.486ZM58.9959 281.455C53.8623 279.528 52.3545 276.398 56.6867 276.398C60.9425 276.398 68.3092 279.738 68.3092 281.684C68.3092 283.917 65.4846 283.841 58.9959 281.455ZM894.009 281.684C892.883 279.89 900.04 276.398 904.754 276.398C908.761 276.398 907.731 279.146 902.807 281.455C897.215 283.917 895.422 283.993 894.009 281.684ZM64.3587 272.295C59.7403 270.501 57.4311 265.73 61.1526 265.73C64.8168 265.73 71.8968 270.062 71.8968 272.295C71.8968 274.966 71.0764 274.966 64.3587 272.295ZM890.727 273.402C888.494 271.245 889.62 269.68 894.983 267.524C898.933 265.882 900.937 265.806 902.368 267.218C903.78 268.631 903.036 269.68 899.372 271.093C896.624 272.142 893.78 273.325 893.112 273.783C892.445 274.146 891.319 274.012 890.727 273.402ZM66.9731 261.856C62.9464 259.833 61.8968 257.752 64.3587 256.264C66.6107 254.852 77.4887 260.291 76.3627 262.161C74.9504 264.394 72.2022 264.318 66.9731 261.779V261.856ZM886.032 262.218C886.032 260.73 894.983 255.138 897.444 255.138C900.422 255.138 897.807 260.138 893.933 261.932C888.418 264.47 886.032 264.547 886.032 262.218ZM73.2328 252.237C68.4618 249.775 66.6106 246.283 70.0267 246.283C72.8702 246.283 80.7709 250.291 80.7709 251.722C80.7709 254.547 77.9276 254.699 73.2328 252.237ZM881.643 253.497C880.44 251.493 890.364 244.107 892.005 245.672C894.162 247.905 893.036 249.699 887.902 252.39C884.906 253.955 882.234 254.394 881.643 253.497ZM851.07 248.669C850.325 246.646 851.89 244.184 855.993 240.825C861.661 236.207 861.814 235.691 859.486 231.359C856.433 225.615 855.325 225.615 848.016 231.207C842.787 235.157 841.909 235.31 839.886 232.924C838.627 231.435 838.016 229.718 838.55 229.279C843.245 224.508 867.769 207.351 869.181 207.809C872.921 209.069 871.642 213.554 866.585 216.97C860.249 221.149 860.249 221.073 864.867 226.512C868.436 230.844 868.437 230.844 873.799 226.893C878.952 223.095 884.238 222.943 884.238 226.588C884.238 228.306 855.478 251.569 853.303 251.569C852.711 251.569 851.661 250.291 851.07 248.669ZM92.2408 238.077C85.4659 232.714 79.1297 227.561 78.2328 226.741C75.8473 224.355 84.4161 212.657 89.4161 211.378C95.5231 209.813 102.393 212.733 105.523 218.325C107.985 222.714 107.909 223.611 104.779 229.432C101.344 235.844 101.344 235.844 106.42 239.871C111.248 243.745 111.478 248.134 106.783 247.905C105.657 247.905 99.1112 243.439 92.2408 238.077ZM98.1377 224.508C98.882 218.611 92.4695 216.015 88.0801 220.405C85.3892 223.172 85.5419 223.611 89.645 226.817C95.1604 231.073 97.4697 230.386 98.1377 224.508ZM111.63 214.145C103.882 207.141 97.6222 200.882 97.6222 200.271C97.6222 199.603 100.6 195.576 104.168 191.34C109.837 184.775 111.191 183.954 113.577 185.958C116.019 188.057 115.886 188.802 111.859 192.981C103.5 201.702 109.092 207.733 117.814 199.374C122.222 195.214 123.043 194.984 125.123 197.446C127.069 199.832 126.688 201.015 122.661 205.195C117.966 210.118 117.966 210.195 121.401 213.324C124.741 216.302 125.046 216.226 130.199 210.5C134.894 205.271 135.791 204.909 138.176 207.218C140.486 209.603 139.875 210.863 133.176 218.401L125.638 226.893L111.63 214.145ZM828.856 220.405C823.779 217.657 821.47 212.198 822.443 205.195C823.417 198.63 828.264 200.061 829.237 207.218C829.981 212.122 831.012 213.553 834.371 213.992C838.913 214.66 838.913 214.069 835.344 198.114C834.524 194.679 835.268 192.37 837.959 189.699C847.348 180.29 862.329 190.442 857.558 202.962C856.07 206.836 855.402 207.217 853.092 205.347C851.585 204.145 850.554 201.836 850.707 200.271C851.222 194.546 850.478 193.038 846.814 193.038C843.474 193.038 843.169 193.725 844.218 198.782C847.348 214.069 847.348 215.271 844.066 218.172C839.066 222.561 834.142 223.229 828.856 220.405ZM805.897 196.931C797.176 188.725 797.328 188.267 814.027 171.797L825.726 160.328L833.703 168.229C840.783 175.156 841.375 176.34 839.066 178.668C836.68 181.053 835.783 180.748 831.012 176.206C825.879 171.282 825.497 171.206 822.596 174.183C819.695 177.16 819.753 177.541 824.676 181.492C829.161 185.137 829.6 186.11 827.52 188.572C825.42 191.11 824.676 190.958 820.134 186.569C815.21 181.874 815.058 181.874 811.489 185.061C807.901 188.343 807.901 188.343 813.417 194.088C818.569 199.317 819.237 203.706 814.924 203.706C813.951 203.706 809.924 200.653 805.897 196.931ZM135.715 197.885C123.119 189.317 118.711 177.618 125.047 169.488C132.585 159.946 149.131 165.309 155.906 179.488C159.933 187.981 159.57 190.729 153.597 196.702C147.413 202.962 143.463 203.191 135.715 197.885ZM150.696 189.984C152.184 186.263 146.287 176.797 140.562 173.515C130.638 167.999 126.096 178.362 134.436 187.389C141.23 194.679 148.463 195.882 150.696 189.984ZM218.54 197.217C217.853 196.549 217.338 194.909 217.338 193.649C217.338 190.061 388.581 190.137 389.994 193.725C390.509 195.138 390.433 196.702 389.841 197.294C388.352 198.782 219.952 198.63 218.54 197.217ZM396.253 194.756C401.177 190.652 423.086 189.545 423.086 193.419C423.086 195.061 423.544 195.061 425.185 193.419C426.826 191.778 464.918 191.263 585.76 191.263C742.9 191.263 744.102 191.339 744.102 194.832C744.102 198.343 742.976 198.419 568.088 198.343C392.742 198.267 392.074 198.267 396.253 194.756ZM156.44 169.183C149.951 160.843 144.646 153.457 144.646 152.713C144.723 150.556 158.215 141.606 161.421 141.606C165.677 141.606 174.78 151.301 174.78 155.766C174.78 157.789 172.681 161.587 170.143 164.125C165.601 168.667 165.601 168.667 169.475 173.954C172.834 178.515 173.062 179.546 170.83 181.798C168.654 183.954 166.726 182.313 156.44 169.183ZM165.906 155.919C165.906 151.224 162.318 148.61 158.52 150.633C154.494 152.789 154.341 155.48 158.215 159.641C161.498 163.305 165.906 161.205 165.906 155.919ZM585.016 176.206C572.859 171.053 572.039 145.404 583.89 140.041C596.944 134.087 605.799 141.759 605.799 159.049C605.799 173.591 596.714 181.053 585.016 176.206ZM598.356 159.641C599.024 150.328 596.256 145.194 590.607 145.194C582.63 145.194 579.634 161.664 586.428 168.362C591.791 173.82 597.611 169.564 598.356 159.641ZM779.141 174.106C771.603 168.744 770.935 170.9 786.431 151.606C791.66 145.118 796.87 139.812 798.073 139.812C799.179 139.812 802.767 142.503 805.821 145.709C814.103 154.201 813.722 162.179 804.695 171.721C796.279 180.519 789.122 181.263 779.141 174.106ZM799.637 166.797C802.309 164.049 804.409 159.793 804.409 157.255C804.409 152.198 799.79 147.197 797.538 149.736C786.145 162.923 782.634 168.591 785.019 170.08C789.637 173 794.79 171.874 799.637 166.797Z" fill="#22924A"/>
</svg>
