<svg width="965" height="739" viewBox="0 0 965 739" fill="none" xmlns="http://www.w3.org/2000/svg">
<path fill-rule="evenodd" clip-rule="evenodd" d="M463.381 736.516C455.305 734.692 446.669 732.892 444.188 732.43C441.731 731.943 439.152 731.384 438.592 731.092C437.911 730.8 436.695 730.8 435.746 730.897C432.973 731.286 366.271 719.78 351.553 716.35C344.037 714.647 312.486 710.95 281.421 708.103C224.887 703.068 224.887 703.068 214.816 693.946C209.294 688.91 188.763 670.082 169.278 652.032C136.705 621.819 131.183 617.732 98.3918 599.196C78.8336 588.079 62.2914 577.716 61.6346 576.013C61.0508 574.31 59.6399 573.434 58.4966 574.212C57.4506 574.869 51.9285 572.68 46.4308 569.445C38.5248 564.896 35.9707 561.855 35.022 556.333C34.3652 552.441 31.227 532.858 28.0889 513.008C24.8536 493.061 19.1615 464.648 15.4396 449.711C11.0853 432.148 9.45501 422.344 11.0849 421.882C14.4905 420.739 14.1258 416.944 10.6959 416.944C8.99303 416.944 5.85524 409.33 3.08206 398.407C-1.66153 379.968 -1.66162 379.968 8.31209 335.695C13.8341 311.368 21.8128 269.649 26.0942 243.037C30.3513 216.351 34.1709 194.385 34.4385 194.117C34.7304 193.825 49.277 184.508 66.6701 173.488C130.429 132.815 135.27 128.922 179.933 84.4542C216.714 47.8677 224.109 41.4943 229.631 41.6889C244.737 42.0782 337.566 27.5313 392.689 16.0251C439.833 6.24596 452.069 4.34859 453.017 6.80552C454.453 10.5274 461.191 8.43511 461.191 4.25102C461.191 -4.48206 502.157 -0.030176 605.835 20.1119C621.404 23.1526 652.297 27.6287 674.532 30.0857C715.57 34.659 726.322 37.0431 706.277 37.1404C700.195 37.1404 693.627 38.1861 691.827 39.4997C688.397 41.8836 699.052 41.4946 729.071 38.2592C740.382 37.0429 740.383 37.0429 783.343 77.7892C826.278 118.56 826.278 118.56 876.365 148.116L926.355 177.672L931.294 205.89C935.283 228.879 935.648 234.79 933.386 237.637C931.002 240.385 931.196 241.529 934.334 243.913C936.499 245.421 939.273 252.159 940.514 258.922C941.827 265.563 947.908 291.227 954.184 315.845C966.444 364.205 967.199 376.173 957.882 376.173C953.723 376.173 953.625 376.465 956.836 379.02C960.266 381.598 960.169 383.593 955.62 402.397C952.287 416.36 949.709 422.637 947.811 422.077C946.303 421.493 945.062 422.539 945.062 424.437C945.062 426.358 946.108 428.256 947.446 428.621C949.149 429.204 948.857 433.656 946.497 442.973C944.673 450.392 940.975 471.191 938.324 489.241C933.459 521.838 929.664 537.237 929.396 525.828C929.299 522.884 928.156 521.279 926.915 522.033C925.674 522.884 925.309 524.709 926.161 526.12C927.012 527.652 926.818 528.115 925.772 527.166C923.582 525.171 917.891 529.452 917.891 533.053C917.891 534.488 918.839 534.196 919.983 532.396C923.218 527.263 929.202 531.35 929.202 538.866C929.202 544.072 927.304 546.846 921.028 551.2C916.455 554.241 911.42 556.138 909.717 555.481C907.82 554.824 906.578 555.773 906.578 557.963C906.578 559.957 905.143 561.563 903.343 561.563C901.64 561.563 899.839 562.511 899.45 563.557C898.988 564.701 882.349 576.304 862.499 589.416C842.625 602.528 821.339 617.999 815.257 623.813C804.14 634.444 800.443 634.638 800.346 624.373C800.346 622.183 799.397 620.383 798.254 620.383C795.968 620.383 797.598 629.214 800.711 633.203C803.387 636.536 780.399 661.714 776.118 660.108C774.488 659.451 773.174 660.302 773.174 661.908C773.174 663.538 765.657 672.174 756.438 681.004C740.674 696.305 739.142 697.254 729.363 697.254C720.703 697.254 719.291 696.597 720.532 693.459C721.481 690.978 721.092 690.224 719.292 691.367C717.857 692.219 716.615 694.505 716.615 696.208C716.615 698.032 715.302 699.541 713.672 699.541C704.647 699.541 621.89 711.509 603.645 715.401C591.774 717.98 566.865 723.113 548.255 726.713C529.524 730.435 509.77 734.424 504.151 735.543C485.347 739.63 478.22 739.825 463.381 736.516ZM886.436 553.292C913.511 535.728 919.592 529.914 916.552 524.976C915.797 523.833 915.895 521.084 916.844 518.992C918.644 514.711 919.13 511.305 920.736 494.764C921.392 488.585 922.633 479.365 923.582 474.427C924.822 467.396 922.341 470.924 912.367 490.482C905.337 504.275 897.554 517.752 895.17 520.33C892.713 522.982 890.718 525.73 890.718 526.606C890.718 528.601 879.114 543.513 863.715 561.368C856.782 569.444 852.696 575.064 854.496 573.921C856.418 572.777 870.746 563.558 886.436 553.292ZM934.7 457.325C933.945 456.182 934.699 453.044 936.232 450.198C938.591 445.649 938.518 445.357 935.478 447.911C930.807 451.803 928.714 462.069 932.899 460.463C934.504 459.806 935.381 458.371 934.7 457.325ZM934.796 441.635C935.55 440.419 934.504 439.373 932.51 439.373C930.515 439.373 929.566 440.419 930.345 441.635C931.099 442.876 932.047 443.922 932.51 443.922C932.996 443.922 934.042 442.876 934.796 441.635ZM20.0127 378.655C19.7207 368.195 19.7212 368.195 17.2399 376.466C15.829 381.015 13.8338 385.49 12.9824 386.439C9.8443 389.577 11.1581 391.474 15.7314 390.331C19.5263 389.382 20.2073 387.388 20.0127 378.655ZM945.258 353.842C943.458 348.806 943.068 350.048 943.068 361.359C943.165 373.79 943.359 374.374 945.354 367.441C946.668 362.502 946.669 357.734 945.258 353.842ZM77.4954 207.229C85.1825 197.061 96.1294 183.364 101.627 176.723C112.744 163.611 112.938 163.612 87.0067 180.908C80.8279 185.092 74.4545 188.4 72.8489 188.4C71.3164 188.4 69.9789 189.179 69.9789 190.127C69.9789 191.076 65.6243 194.579 60.1996 198.009C50.5178 204.187 50.5176 204.188 45.3848 234.206C42.5143 250.65 39.7655 266.243 39.206 268.7C38.6222 271.182 43.8526 262.522 50.7856 249.507C57.7185 236.395 69.7111 217.397 77.4954 207.229ZM916.844 224.038C913.706 206.182 911.055 190.784 911.055 190.03C911.055 189.252 903.733 184.411 894.708 179.18C885.683 173.975 872.181 165.971 864.762 161.422C857.27 156.849 849.655 152.203 847.757 151.157C845.957 150.013 850.896 156.193 858.875 164.755C880.063 187.549 900.497 216.059 911.517 238.39C916.844 249.118 921.588 257.681 921.977 257.292C922.342 257.024 920.079 241.99 916.844 224.038ZM861.356 145.465C861.356 144.224 860.31 143.178 859.069 143.178C857.829 143.178 856.783 144.224 856.783 145.465C856.783 146.681 857.829 147.727 859.069 147.727C860.31 147.727 861.356 146.681 861.356 145.465ZM222.309 84.5522C232.015 79.2247 253.374 69.348 269.721 62.6826C293.682 52.9035 297.477 50.8113 289.303 51.76C225.544 59.5444 231.431 57.6469 213.77 75.2347C204.915 83.9677 196.377 91.1927 194.845 91.1927C193.337 91.1927 192.096 92.4335 192.096 93.9417C192.096 95.377 189.347 99.6583 185.917 103.259C179.641 109.924 179.641 109.924 192.096 102.115C198.931 97.8582 212.53 89.9526 222.309 84.5522ZM760.135 79.7112C747.412 67.2562 736.952 56.1385 736.952 55.0925C736.952 53.2924 732.501 52.6115 695.161 49.668C685.163 48.9139 674.044 47.6737 670.249 47.1142C666.552 46.4331 672.634 49.5706 683.848 53.9493C717.102 66.9637 743.716 79.5163 763.006 91.0955C772.98 97.177 781.616 102.212 782.2 102.31C782.856 102.31 772.882 92.1418 760.135 79.7112ZM373.009 32.4694C373.009 31.2288 371.963 30.1829 370.747 30.1829C369.506 30.1829 368.46 31.2288 368.46 32.4694C368.46 33.71 369.506 34.6587 370.747 34.6587C371.963 34.6587 373.009 33.71 373.009 32.4694ZM489.434 18.8959C494.932 17.4606 493.886 17.1683 483.718 17.1683C476.882 17.1683 468.222 17.9228 464.524 18.8959C459.026 20.3068 460.072 20.5981 470.24 20.5981C477.076 20.5981 485.712 19.8446 489.434 18.8959ZM510.232 726.713C510.038 724.159 509.089 722.164 508.14 722.164C506.048 722.164 505.951 722.918 507.751 727.564C509.673 732.503 510.719 732.138 510.232 726.713ZM493.983 719.877C498.629 718.734 494.737 718.174 481.528 718.174C468.221 718.174 464.427 718.734 469.097 719.877C472.795 720.826 478.389 721.58 481.528 721.58C484.568 721.58 490.188 720.826 493.983 719.877ZM534.267 707.325C547.111 705.622 559.541 704.381 561.925 704.479C568.664 704.771 619.043 693.362 643.637 686.04C789.691 642.617 897.846 544.948 928.424 428.815C936.986 396.413 938.227 348.15 931.464 315.163C920.445 261.378 894.61 213.772 852.793 170.155C816.012 131.866 781.153 107.151 726.784 80.9272C647.627 42.6378 567.156 26.1932 471.749 28.6744C383.859 30.9611 317.327 47.1142 240.456 84.6495C151.909 128.072 86.5204 190.03 52.2206 263.276C28.2837 314.312 20.8643 378.46 32.7355 432.707C52.0261 520.89 121.769 601.385 222.601 651.642C288.257 684.337 355.056 702.289 437.449 709.417C459.391 711.314 512.982 710.195 534.267 707.325ZM254.711 252.548C251.476 249.312 253.3 244.959 257.849 244.959C260.987 244.959 262.228 246.174 261.742 248.656C260.988 252.84 257.095 254.932 254.711 252.548ZM725.665 249.313C725.665 246.077 726.882 244.861 729.558 245.323C735.542 246.466 736.102 253.984 730.312 253.984C727.077 253.984 725.665 252.548 725.665 249.313ZM265.463 244.764C264.587 243.329 265.366 240.774 267.166 238.95C270.11 236.104 270.864 236.104 273.345 239.047C274.853 240.944 275.535 243.523 274.659 244.861C272.762 247.902 267.361 247.902 265.463 244.764ZM713.211 244.959C711.411 241.918 713.867 238.098 717.662 238.098C720.995 238.098 723.937 243.718 721.748 245.81C719.656 247.902 714.719 247.415 713.211 244.959ZM747.121 242.672C746.367 241.431 747.315 238.78 749.309 236.785C751.304 234.79 754.442 230.217 756.34 226.617C759.672 220.049 759.867 220.048 765.267 223.94C774.487 230.703 771.349 241.918 760.816 239.826C756.827 239.047 754.248 239.826 753.493 241.821C752.058 245.421 749.116 245.907 747.121 242.672ZM764.149 232.308C764.149 230.411 763.104 229.462 761.863 230.216C760.622 230.971 759.575 232.601 759.575 233.744C759.575 234.863 760.622 235.909 761.863 235.909C763.104 235.909 764.149 234.303 764.149 232.308ZM279.135 238.098C278.186 236.687 278.575 234.401 279.889 233.16C282.93 230.119 289.96 232.698 288.743 236.492C287.503 240.19 281.13 241.334 279.037 238.098H279.135ZM699.612 238.098C698.76 236.687 699.052 234.401 700.366 233.16C703.407 230.119 710.534 232.698 709.318 236.492C707.98 240.19 701.607 241.334 699.612 238.098ZM739.823 238.78C737.999 238.099 737.438 235.544 738.29 231.749C739.53 225.936 739.433 225.838 736.003 230.119C733.352 233.355 731.746 233.817 729.922 232.017C728.121 230.119 728.974 227.468 733.353 221.751C736.588 217.494 739.238 212.824 739.238 211.413C739.238 207.886 740.576 208.08 747.217 212.459C753.299 216.448 754.54 223.284 749.796 226.13C748.069 227.176 745.807 230.606 744.664 233.817C743.52 237.052 741.332 239.339 739.823 238.78ZM745.978 220.048C745.978 218.808 745.028 217.762 743.715 217.762C742.474 217.762 741.526 218.808 741.526 220.048C741.526 221.289 742.474 222.335 743.715 222.335C745.028 222.335 745.978 221.289 745.978 220.048ZM231.917 232.601C225.447 222.7 229.728 210.731 238.364 214.064C244.348 216.351 250.917 229.365 248.435 234.011C245.224 239.996 236.272 239.242 231.917 232.601ZM244.081 231.652C244.081 228.222 235.518 218.808 233.912 220.438C232.088 222.238 239.215 233.647 242.086 233.647C243.205 233.647 244.081 232.698 244.081 231.652ZM292.344 232.308C290.446 227.468 295.19 222.797 298.62 226.227C301.563 229.17 299.763 235.909 296.042 235.909C294.728 235.909 293.098 234.303 292.344 232.308ZM687.449 232.868C685.551 230.509 685.746 229.073 688.398 226.787C692.776 223.284 697.519 227.078 695.524 232.406C693.822 236.784 690.879 236.955 687.449 232.868ZM249.213 219.586C246.343 214.259 244.081 209.126 244.081 208.275C244.081 205.502 251.962 206.28 255.198 209.418C257.655 211.68 257.752 211.316 255.66 207.326C253.763 203.604 253.86 202.193 256.146 201.342C258.993 200.296 268.966 216.716 268.966 222.433C268.966 225.838 264.028 224.987 259.187 220.632C254.808 216.813 254.808 216.813 257.29 221.654C260.598 227.93 260.501 229.17 256.998 229.17C255.465 229.17 251.865 224.792 249.116 219.586H249.213ZM305.553 225.181C306.696 219.294 314.189 218.613 314.189 224.427C314.189 227.663 312.778 229.17 309.445 229.17C306.21 229.17 305.066 227.93 305.553 225.181ZM672.537 226.787C671.589 225.376 671.952 223.186 673.29 221.848C676.331 218.808 683.362 221.483 682.122 225.181C680.905 228.976 674.532 230.022 672.439 226.787H672.537ZM715.497 223.283C713.016 221.386 711.313 218.346 711.58 216.618C712.359 212.824 709.489 212.264 706.375 215.5C705.134 216.716 703.041 216.91 701.606 216.059C699.903 215.013 701.996 210.926 707.785 204.285C718.805 191.441 723.185 193.63 719.098 210.074C717.565 215.864 717.005 221.192 717.662 221.848C719.389 223.576 725.276 215.67 726.979 209.321C728.317 204.553 732.403 202.655 735.249 205.599C736.003 206.28 734.106 210.537 731.163 214.915C728.122 219.391 725.665 223.843 725.665 224.889C725.665 227.93 720.533 227.078 715.497 223.283ZM318.665 220.145C318.665 217.105 320.197 215.572 323.238 215.572C326.278 215.572 327.787 217.105 327.787 220.145C327.787 223.089 326.278 224.622 323.238 224.622C320.197 224.622 318.665 223.089 318.665 220.145ZM658.939 222.335C657.041 219.294 659.62 215.572 663.61 215.572C665.41 215.572 666.845 217.591 666.845 220.145C666.845 224.792 661.42 226.324 658.939 222.335ZM269.623 209.321C264.977 199.42 264.879 198.374 268.309 195.819C272.664 192.487 277.991 192.024 277.991 194.968C277.991 196.111 276.386 197.62 274.488 198.374C272.493 199.152 271.545 200.66 272.299 201.901C273.053 203.141 275.145 203.506 276.945 202.752C278.746 202.095 280.278 202.558 280.278 203.798C280.278 205.136 279.037 206.645 277.432 207.229C275.34 207.983 275.243 208.931 277.14 210.926C278.94 212.921 280.181 213.018 281.227 211.218C283.416 207.788 287.017 208.177 287.017 211.777C287.017 214.064 278.381 220.048 275.048 220.048C274.756 220.048 272.299 215.208 269.55 209.321H269.623ZM332.263 215.572C332.263 212.532 333.771 211.023 336.812 211.023C339.755 211.023 341.288 212.532 341.288 215.572C341.288 218.613 339.755 220.145 336.812 220.145C333.771 220.145 332.263 218.613 332.263 215.572ZM645.827 218.613C642.591 215.402 644.415 211.023 648.964 211.023C652.102 211.023 653.44 212.264 652.954 214.818C652.102 219.002 648.211 221.094 645.827 218.613ZM346.226 211.68C347.369 205.696 354.862 205.136 354.862 210.926C354.862 214.161 353.451 215.572 350.216 215.572C346.98 215.572 345.74 214.356 346.226 211.68ZM629.48 213.212C628.628 211.777 629.017 209.588 630.258 208.275C633.299 205.234 640.426 207.885 639.186 211.583C637.945 215.402 631.475 216.448 629.48 213.212ZM360.189 209.783C358.292 204.844 363.035 200.295 366.465 203.701C369.409 206.547 367.609 213.31 363.887 213.31C362.574 213.31 360.944 211.68 360.189 209.783ZM615.321 207.131C616.465 201.244 623.885 200.563 623.885 206.377C623.885 209.588 622.449 211.023 619.238 211.023C616.003 211.023 614.762 209.782 615.321 207.131ZM374.444 207.131C373.788 206.085 374.055 203.798 375.101 202.095C377.388 198.373 385.002 200.855 383.664 204.844C382.521 208.274 376.147 209.782 374.444 207.131ZM601.261 204.285C601.261 200.855 602.501 199.615 605.25 200.199C607.439 200.563 609.24 202.461 609.24 204.285C609.24 206.085 607.439 207.886 605.25 208.372C602.501 208.932 601.261 207.691 601.261 204.285ZM683.946 206.742C683.168 205.501 683.654 203.993 684.797 203.239C685.94 202.461 687.546 202.947 688.203 204.09C688.982 205.233 688.592 206.839 687.449 207.496C686.208 208.275 684.7 207.885 683.946 206.742ZM390.305 205.039C387.167 201.901 388.992 197.425 393.443 197.425C396.581 197.425 397.919 198.666 397.433 201.245C396.581 205.429 392.787 207.496 390.305 205.039ZM586.251 202.947C584.354 198.106 589.099 193.435 592.529 196.865C595.472 199.809 593.672 206.547 589.95 206.547C588.733 206.547 587.005 204.942 586.251 202.947ZM222.892 200.66C222.114 198.666 221.457 195.333 221.457 193.266C221.457 186.406 200.926 150.5 196.377 149.259C193.993 148.675 192.096 146.778 192.096 145.075C192.096 141.086 221.36 125.128 228.682 125.128C236.856 125.128 245.029 134.907 244.738 144.223C244.543 150.5 245.492 152.105 249.968 153.249C255.854 154.684 262.228 164.925 262.228 173.099C262.228 181.37 256.414 187.646 240.943 196.306C224.595 205.429 224.693 205.428 222.892 200.66ZM241.989 181.564C249.87 177.38 246.246 163.612 237.318 163.612C230.191 163.612 228.391 168.063 232.283 176.237C236.37 184.897 236.102 184.702 241.989 181.564ZM226.979 155.438C231.431 153.735 231.626 144.686 227.247 141.085C224.888 139.091 222.893 138.994 219.365 140.891C214.987 143.178 214.89 143.737 218.125 150.013C221.92 157.433 221.846 157.335 226.979 155.438ZM403.344 201.804C402.468 200.368 403.247 197.912 404.949 196.209C408.842 192.293 414.826 195.625 412.928 200.66C411.323 204.747 405.606 205.428 403.344 201.804ZM570.489 200.952C568.957 196.865 571.244 192.973 575.233 192.973C579.32 192.973 581.216 198.568 578.078 201.706C574.648 205.136 571.997 204.942 570.489 200.952ZM671.783 202.193C669.302 200.661 669.399 198.957 672.634 192.779C675.286 187.646 675.675 184.994 673.972 184.41C671.004 183.364 670.444 177.088 673.29 177.088C674.434 177.088 678.521 178.231 682.511 179.667C689.638 182.124 691.171 187.84 684.408 186.697C682.048 186.21 679.86 189.082 677.865 195.066C675.578 201.707 673.973 203.604 671.783 202.193ZM296.042 199.712C296.042 196.963 302.415 194.019 304.312 195.917C304.993 196.573 303.363 198.203 300.809 199.614C297.574 201.414 296.042 201.414 296.042 199.809V199.712ZM418.158 197.425C418.158 194.482 419.667 192.973 422.708 192.973C425.748 192.973 427.183 194.482 427.183 197.425C427.183 200.466 425.748 201.998 422.708 201.998C419.667 201.998 418.158 200.466 418.158 197.425ZM556.501 197.158C556.891 194.214 558.787 191.83 560.587 191.83C565.526 191.83 564.869 200.66 559.833 201.609C556.598 202.29 555.845 201.245 556.501 197.158ZM318.956 197.717C315.064 195.163 317.716 190.492 322.192 192.22C323.992 192.876 325.5 192.293 325.5 190.979C325.5 189.544 323.603 188.4 321.243 188.4C318.859 188.4 315.819 187.086 314.383 185.359C309.445 179.375 316.767 171.104 324.454 174.048C329.125 175.872 327.227 180.713 322.192 179.862C319.808 179.375 318.859 180.129 319.711 181.467C320.562 182.805 323.238 183.949 325.695 183.949C331.12 183.949 333.869 190.03 330.633 194.968C327.884 199.347 323.238 200.466 318.956 197.717ZM434.019 195.26C434.019 191.83 435.163 190.59 437.912 191.173C440.101 191.538 441.901 193.436 441.901 195.26C441.901 197.06 440.101 198.958 437.912 199.347C435.163 199.907 434.019 198.666 434.019 195.26ZM449.904 196.476C446.863 192.779 448.566 188.4 453.115 188.4C456.643 188.4 458.734 192.778 457.201 196.963C455.79 200.66 453.212 200.466 449.904 196.476ZM526.97 197.62C523.54 195.527 525.047 188.4 528.964 188.4C532.272 188.4 534.559 195.065 532.077 197.522C530.958 198.666 528.673 198.666 526.97 197.62ZM540.251 195.43C540.251 192.219 541.686 190.686 544.922 190.686C550.711 190.686 550.054 198.204 544.168 199.347C541.492 199.907 540.251 198.666 540.251 195.43ZM464.524 195.26C462.627 192.22 465.181 188.497 469.195 188.497C470.995 188.497 472.405 190.492 472.405 192.973C472.405 197.717 467.005 199.25 464.524 195.26ZM479.266 193.168C479.266 189.933 480.677 188.497 483.912 188.497C489.702 188.497 489.045 195.917 483.158 197.061C480.385 197.62 479.266 196.379 479.266 193.168ZM495.028 193.168C495.028 189.933 496.464 188.497 499.772 188.497C505.586 188.497 504.905 195.917 499.018 197.061C496.269 197.62 495.028 196.379 495.028 193.168ZM509.674 195.163C508.798 193.728 509.188 191.538 510.428 190.225C513.469 187.184 520.595 189.835 519.354 193.533C518.114 197.328 511.669 198.374 509.674 195.163ZM655.436 190.225C655.144 182.805 655.143 182.805 652.954 188.886C651.64 192.584 649.549 194.579 647.724 193.824C645.267 192.876 645.267 191.635 647.821 186.6C649.645 183.267 651.056 178.232 651.056 175.483C651.056 171.882 652.395 170.35 655.631 170.35C659.134 170.35 660.179 171.98 660.471 177.769C660.763 184.605 660.836 184.703 661.712 178.913C662.661 172.832 665.507 170.739 667.794 174.534C669.594 177.477 661.518 197.522 658.477 197.522C656.75 197.522 655.533 194.482 655.436 190.225ZM333.869 182.416C329.684 171.299 331.582 164.366 337.201 169.961C338.709 171.396 339.293 172.636 338.442 172.636C337.663 172.636 338.442 176.821 340.242 181.954C344.231 193.266 344.232 192.973 340.704 192.973C339.099 192.973 336.058 188.205 333.869 182.416ZM344.329 178.913C342.893 172.345 342.042 166.75 342.334 166.458C342.528 166.166 345.837 165.314 349.632 164.56C356.103 163.222 356.589 163.709 359.995 174.048C364.276 186.795 362.768 191.343 356.76 183.656C352.6 178.329 352.6 178.329 353.159 183.851C353.548 187.354 352.502 189.641 350.216 190.127C347.637 190.687 346.129 187.744 344.231 178.913H344.329ZM352.599 171.396C352.599 169.498 351.553 168.55 350.313 169.304C349.072 170.058 348.61 171.688 349.364 172.832C351.262 175.97 352.599 175.385 352.599 171.396ZM635.95 187.548C636.607 185.846 638.432 180.226 639.94 175.094C642.591 166.166 644.976 163.807 647.457 167.699C649.355 170.837 641.083 190.784 637.848 190.784C636.145 190.784 635.293 189.349 635.95 187.548ZM616.855 185.262C616.758 184.508 616.27 182.902 616.003 181.661C615.711 180.421 615.322 178.718 615.054 177.769C614.859 176.82 613.814 177.672 612.573 179.764C610.967 182.415 608.876 182.999 604.205 181.759C591.385 178.329 587.954 176.626 587.006 173.002C586.154 169.693 585.96 169.79 585.79 173.196C585.595 175.385 583.868 177.186 581.873 177.186C579.513 177.186 578.736 175.969 579.612 173.585C580.366 171.59 581.606 165.971 582.458 161.033C584.161 150.305 590.436 149.648 592.236 160.084C593.38 166.75 593.38 166.75 596.226 160.473C600.896 150.402 604.788 154.392 604.034 168.355L603.451 180.518L609.143 171.493C612.281 166.555 615.224 161.519 615.614 160.376C616.003 159.135 618.094 158.941 620.259 159.72C623.398 160.936 624.079 163.515 623.495 172.929C623.13 179.765 621.598 185.092 619.992 185.554C618.46 186.138 617.05 185.943 616.855 185.165V185.262ZM376.439 179.569C373.958 175.483 377.485 172.053 381.086 175.094C382.813 176.529 384.224 176.723 384.224 175.58C384.224 174.339 381.669 172.151 378.434 170.74C370.358 167.018 371.598 158.284 380.331 157.238C384.807 156.679 386.51 157.53 386.51 160.279C386.51 163.028 385.27 163.514 381.475 162.371C375.491 160.571 377.485 163.223 384.807 166.847C392.397 170.642 391.837 180.324 383.956 181.272C380.623 181.662 377.193 180.907 376.439 179.569ZM395.341 179.083C394.295 173.877 393.443 167.893 392.884 161.325C392.202 153.905 392.592 153.346 399.525 152.69C403.612 152.3 406.847 153.054 406.847 154.392C406.847 155.73 404.852 156.776 402.371 156.776C399.817 156.776 397.822 157.798 397.822 159.038C397.822 160.279 399.33 161.325 401.252 161.325C405.046 161.325 405.801 164.852 402.371 166.92C397.919 169.693 400.206 172.344 406.287 171.688C412.734 170.934 413.22 169.109 410.082 154.952C409.036 150.111 409.595 149.818 417.501 150.402C425.091 151.059 426.137 151.813 426.235 157.238C426.235 160.668 426.989 164.171 427.84 165.023C430.419 167.504 429.738 174.924 426.989 174.924C425.651 174.924 424.045 172.831 423.388 170.35C422.707 167.893 421.199 165.899 420.056 165.899C418.815 165.899 418.45 167.796 419.204 170.058C420.348 173.585 419.01 174.534 411.591 175.677C406.75 176.529 401.154 177.769 399.16 178.523C397.165 179.278 395.438 179.57 395.341 179.083ZM420.445 157.895C420.445 156.095 419.496 154.587 418.256 154.587C417.015 154.587 416.626 156.095 417.404 157.895C418.061 159.817 419.108 161.325 419.57 161.325C420.056 161.325 420.445 159.817 420.445 157.895ZM695.719 173.099C686.889 169.596 684.042 162.371 690.586 159.89C696.108 157.798 694.478 153.054 687.351 150.111C680.223 147.07 674.921 148.675 676.722 153.249C679.081 159.525 674.628 161.982 666.065 159.136C661.614 157.725 657.43 155.633 656.749 154.587C655.727 152.957 665.021 141.28 680.711 124.836C684.044 121.406 686.403 118.268 686.038 117.903C685.649 117.513 689.078 112.964 693.627 107.734C701.8 98.3201 701.996 98.223 709.318 101.361C717.856 105.156 718.052 106.688 713.211 134.152C711.411 144.783 709.877 157.628 709.877 162.761C709.877 174.924 706.544 177.38 695.719 173.099ZM699.417 128.533L700.95 119.508L694.212 127.39C688.033 134.615 687.741 135.563 691.171 138.142C695.915 141.742 697.617 139.748 699.417 128.533ZM553.29 173.293C547.865 172.442 547.209 171.59 548.522 166.555C549.568 162.176 549.203 160.936 546.819 161.812C545.117 162.371 543.681 164.755 543.681 167.115C543.681 169.499 542.173 171.493 540.251 171.493C538.353 171.493 536.943 170.252 537.137 168.647C537.21 167.114 537.405 161.228 537.697 155.536C537.892 146.973 538.646 145.27 541.979 145.926C544.533 146.51 545.677 148.408 545.214 151.716C544.825 154.489 545.579 156.776 546.917 156.776C548.255 156.776 549.3 154.757 549.3 152.3C549.3 149.162 550.809 147.727 554.044 147.727C557.28 147.727 558.422 148.773 557.547 150.962C556.89 152.762 555.65 157.798 554.798 162.274C552.706 173.78 557.183 172.539 562.583 160.182C568.105 147.921 574.186 146.413 574.186 157.335C574.186 161.422 574.844 167.018 575.622 169.791C577.227 176.043 570.95 177.016 568.566 170.934C567.156 167.115 566.961 167.115 564.115 170.934C562.583 173.099 560.88 174.729 560.418 174.534C559.834 174.339 556.696 173.78 553.29 173.293ZM431.367 160.182C430.613 147.727 430.614 147.727 437.912 147.727C441.998 147.727 445.331 148.773 445.331 150.013C445.331 151.254 443.823 152.3 441.901 152.3C440.004 152.3 438.495 153.249 438.495 154.587C438.495 155.803 440.004 156.776 441.901 156.776C443.823 156.776 445.331 157.798 445.331 159.038C445.331 160.279 443.725 161.325 441.73 161.325C439.736 161.325 438.593 162.566 439.152 164.171C439.736 165.704 441.828 166.652 443.822 166.263C445.987 165.971 447.617 167.115 447.617 169.109C447.617 171.591 445.331 172.636 439.833 172.636C432.121 172.636 432.122 172.637 431.367 160.182ZM454.355 160.279C454.355 152.203 453.699 150.403 450.951 151.449C448.859 152.3 447.617 151.448 447.617 149.162C447.617 146.413 449.807 145.465 456.643 145.465C463.284 145.465 465.667 146.413 465.667 148.967C465.667 150.962 464.622 151.911 463.381 151.157C462.067 150.305 461.118 153.735 461.118 160.084C461.118 167.698 460.243 170.35 457.786 170.35C455.208 170.35 454.355 167.698 454.355 160.279ZM471.749 168.939C468.051 165.217 470.241 161.033 475.277 162.371C480.385 163.709 480.385 163.709 475.277 159.987C469.463 155.73 468.513 146.608 473.548 144.686C478.219 142.886 483.718 145.27 483.718 149.065C483.718 152.957 481.066 153.152 477.441 149.552C475.933 148.019 474.692 147.727 474.692 148.87C474.692 149.916 477.441 153.151 480.871 155.9C486.004 160.084 486.661 161.714 484.666 165.023C482.015 169.401 474.498 171.591 471.749 168.842V168.939ZM488.291 156.776C488.291 142.983 488.291 142.983 495.419 143.64C503.495 144.418 507.289 150.013 499.772 150.013C497.121 150.013 495.028 151.059 495.028 152.3C495.028 153.54 496.562 154.49 498.46 154.49C500.26 154.49 501.864 155.536 501.864 156.776C501.864 157.993 500.357 159.038 498.46 159.038C496.562 159.038 495.028 160.084 495.028 161.325C495.028 162.565 497.121 163.612 499.772 163.612C507.289 163.612 503.495 169.109 495.419 169.961C488.291 170.642 488.291 170.642 488.291 156.776ZM516.119 158.09C516.411 147.727 517.264 145.562 520.499 145.465C522.689 145.465 524.489 147.168 524.489 149.454C524.586 153.249 524.682 153.249 526.872 149.454C529.231 145.367 535.8 143.932 535.8 147.46C535.8 148.603 534.169 150.767 532.272 152.397C530.277 153.905 529.134 156.387 529.718 157.725C533.513 168.064 533.61 170.35 530.18 170.35C528.282 170.35 526.677 168.939 526.677 167.115C526.677 165.315 525.631 163.125 524.293 162.371C522.882 161.422 522.105 162.468 522.591 164.925C522.956 167.407 521.74 169.402 519.55 169.791C516.315 170.545 515.852 168.647 516.119 158.09ZM278.672 163.125C272.201 156.289 259.941 126.538 259.941 117.903C259.941 103.55 282.833 90.9981 295.944 98.223C303.072 102.115 316.67 129.02 318.202 142.229C319.71 155.997 310.491 165.971 294.825 167.504C285.216 168.355 282.929 167.796 278.672 163.125ZM301.466 144.321C301.174 131.574 290.836 109.34 285.216 109.34C276.653 109.34 274.391 115.325 278.672 127.22C287.697 152.69 289.011 154.854 295.579 154.1C301.174 153.443 301.758 152.592 301.466 144.321ZM631.474 147.727C627.119 146.024 626.342 143.372 624.834 124.738C623.228 103.648 623.228 103.648 619.798 111.529C617.9 115.908 616.197 124.35 616.003 130.261C615.711 136.245 615.054 141.572 614.567 142.034C614.007 142.594 609.337 141.937 604.034 140.599C593.769 137.948 592.14 134.347 598.61 127.876C603.257 123.23 613.619 86.2545 612.013 80.0757C609.824 71.6345 613.716 69.445 624.347 73.1426C634.053 76.5726 634.053 76.5729 636.145 98.0285L638.237 119.508L642.324 106.032C644.514 98.5153 645.729 90.1465 645.073 87.3977C643.467 81.1215 647.359 79.2244 656.676 81.7787C664.266 83.8707 666.844 90.1467 661.614 94.2335C659.717 95.6687 654.851 108.878 650.862 123.401C643.175 151.157 642.421 152.105 631.474 147.727ZM346.591 140.988C348.416 131.963 338.807 91.1927 334.915 91.1927C334.063 91.1927 332.36 93.4793 331.119 96.3255C327.325 104.888 321.511 103.94 318.859 94.2335C317.619 89.5872 317.229 85.0139 318.202 84.1625C320.465 82.0704 364.179 70.3943 365.322 71.5376C365.882 72.0971 367.22 75.6245 368.363 79.5166C370.917 88.4443 366.66 92.9204 359.727 88.639C357.148 87.0091 354.4 86.449 353.548 87.3005C350.97 89.879 361.989 128.169 366.563 132.523C373.958 139.748 371.112 142.594 352.867 146.608C345.18 148.214 345.18 148.213 346.591 140.988ZM575.329 134.615C563.531 133.666 561.27 131.209 565.162 123.887C568.957 116.954 565.526 113.427 556.136 114.376C551.466 114.862 550.42 116.2 550.42 121.698C550.42 129.409 550.152 129.677 539.035 129.677C529.718 129.677 526.58 124.738 532.077 118.56C534.169 116.37 540.835 102.894 547.014 88.7362C558.131 62.9748 558.132 62.9749 566.305 63.2668C570.66 63.3641 574.746 63.9236 575.233 64.4101C575.695 64.8723 577.883 78.5679 579.975 94.7205C581.97 110.776 584.743 125.225 585.862 126.733C589.852 131.574 584.817 135.393 575.329 134.615ZM566.5 99.0017C565.721 96.9827 565.063 91.6792 564.966 87.1059C564.771 78.7377 564.772 78.7382 561.829 85.5982C555.285 100.802 555.285 102.504 561.829 102.504C566.402 102.504 567.546 101.653 566.5 99.0017ZM396.022 130.261C393.443 128.072 390.791 122.938 389.94 118.949C388.505 111.724 388.603 111.529 396.29 111.529C402.201 111.529 404.365 112.673 405.241 116.103C406.944 122.55 413.682 124.447 417.307 119.508C421.661 113.524 417.769 108.391 405.338 103.745C391.837 98.8066 386.51 92.9928 386.51 83.2137C386.51 67.7179 404.56 57.5495 420.445 64.1176C431.732 68.7639 432.779 84.4542 421.759 84.4542C418.256 84.4542 415.677 82.8246 414.826 79.8811C412.637 73.0455 402.371 73.7026 402.371 80.7572C402.371 85.2089 404.56 87.1059 414.826 91.29C421.759 94.0388 428.886 98.4177 430.711 101.069C434.505 106.494 435.065 118.949 431.83 125.03C427.086 133.763 404.098 137.194 396.022 130.261ZM460.073 124.544C459.586 123.036 456.934 110.581 454.161 96.9098C451.412 83.2142 448.372 71.0507 447.228 69.8101C446.182 68.6668 445.331 65.3587 445.331 62.5126C445.331 57.7446 446.28 57.2826 456.838 57.2826C468.32 57.2826 468.319 57.2819 466.811 68.3016C465.57 77.7888 469.852 112.284 471.554 105.838C471.944 104.694 473.841 93.6745 475.933 81.5114C479.825 59.3746 479.825 59.374 486.758 60.0308C493.521 60.6876 493.692 60.9801 497.511 80.5627C499.603 91.5824 501.767 100.996 502.351 101.556C504.346 103.453 506.34 75.1373 504.905 66.1123C503.494 57.282 503.494 57.2826 514.222 57.2826C526.482 57.2826 525.923 53.8525 518.893 86.7414C516.801 96.034 514.125 108.975 512.884 115.519C510.524 127.39 510.524 127.39 501.864 127.39C493.228 127.39 493.229 127.39 490.383 111.432C488.753 102.699 486.757 95.0847 485.906 94.5252C485.055 94.0387 483.158 101.166 481.626 110.483C478.877 127.39 478.877 127.39 469.949 127.39C464.817 127.39 460.632 126.174 460.073 124.544ZM393.443 549.302C390.305 545.508 392.032 541.226 396.581 541.226C400.96 541.226 402.663 547.21 399.16 550.154C396.97 551.978 395.438 551.686 393.443 549.302ZM406.847 547.892C406.847 542.078 414.363 542.759 415.507 548.646C416.066 551.297 414.826 552.538 411.591 552.538C408.38 552.538 406.847 551.103 406.847 547.892ZM524.489 547.989C524.489 544.559 525.631 543.318 528.38 543.902C530.57 544.267 532.37 546.164 532.37 547.989C532.37 549.789 530.57 551.686 528.38 552.076C525.631 552.635 524.489 551.394 524.489 547.989ZM538.744 548.938C536.846 544.072 541.686 539.426 545.116 542.856C547.963 545.799 546.162 552.538 542.537 552.538C541.199 552.538 539.498 550.932 538.744 548.938ZM378.239 546.748C376.342 541.81 381.085 537.14 384.613 540.57C387.459 543.513 385.659 550.251 382.058 550.251C380.72 550.251 379.018 548.646 378.239 546.748ZM554.604 546.748C552.706 541.81 557.45 537.14 560.88 540.57C563.823 543.513 562.024 550.251 558.326 550.251C557.086 550.251 555.382 548.646 554.604 546.748ZM629.48 547.794C628.628 546.359 629.309 543.902 631.012 542.175C634.904 538.283 640.986 541.616 638.991 546.651C637.483 550.738 631.669 551.395 629.48 547.794ZM296.042 543.416C296.042 540.472 297.574 538.94 300.615 538.94C303.655 538.94 305.164 540.472 305.164 543.416C305.164 546.457 303.655 547.989 300.615 547.989C297.574 547.989 296.042 546.457 296.042 543.416ZM364.082 545.8C360.287 543.513 362.476 536.677 367.025 536.677C368.752 536.677 370.747 538.088 371.501 539.913C373.106 544.17 367.974 548.256 364.082 545.8ZM568.397 543.221C567.546 541.907 567.91 539.718 569.248 538.477C572.094 535.631 576.473 538.088 576.473 542.467C576.473 546.262 570.66 546.845 568.397 543.221ZM644.975 542.078C643.272 537.626 648.771 533.831 652.59 536.945C655.996 539.815 654 545.702 649.646 545.702C647.821 545.702 645.729 544.072 644.975 542.078ZM281.032 539.815C279.037 534.853 285.119 531.447 289.011 535.437C290.738 537.14 291.395 539.621 290.544 540.934C288.257 544.656 282.565 543.975 281.032 539.815ZM348.124 538.94C348.124 535.899 349.632 534.391 352.599 534.391C355.64 534.391 357.149 535.899 357.149 538.94C357.149 541.98 355.64 543.416 352.599 543.416C349.632 543.416 348.124 541.98 348.124 538.94ZM583.211 538.94C583.211 535.534 584.451 534.293 587.2 534.853C589.389 535.242 591.093 537.139 591.093 538.94C591.093 540.764 589.389 542.661 587.2 543.026C584.451 543.61 583.211 542.37 583.211 538.94ZM334.817 538.38C333.114 536.677 333.114 535.047 334.72 533.053C337.469 529.647 343.551 531.35 343.551 535.534C343.551 539.621 337.858 541.421 334.817 538.38ZM597.564 537.723C595.666 532.785 600.41 528.114 603.84 531.544C606.783 534.488 604.983 541.226 601.359 541.226C600.021 541.226 598.318 539.621 597.564 537.723ZM268.018 537.334C267.264 536.58 266.68 534.001 266.68 531.642C266.68 526.412 274.196 527.068 275.242 532.493C275.997 536.191 270.572 539.815 268.018 537.334ZM660.569 535.047C661.615 529.16 669.106 528.504 669.106 534.293C669.106 537.529 667.696 539.037 664.46 539.037C661.225 539.037 659.985 537.821 660.569 535.047ZM320.197 535.242C317.229 532.201 318.762 527.652 322.849 527.652C328.176 527.652 329.977 529.55 328.444 533.539C327.228 536.872 322.751 537.82 320.197 535.242ZM502.546 569.274C500.916 565.09 506.439 560.712 509.479 563.752C511.936 566.234 509.673 572.875 506.341 572.875C505.003 572.875 503.3 571.269 502.546 569.274ZM405.606 568.131C403.514 564.701 408.087 560.711 412.369 562.317C414.363 563.095 415.313 565.09 414.534 567.182C412.929 571.172 407.796 571.731 405.606 568.131ZM517.653 567.182C517.653 562.512 524.391 560.152 526.775 563.947C529.329 568.034 527.431 570.588 522.006 570.588C519.647 570.588 517.653 569.08 517.653 567.182ZM535.898 568.399C532.176 566.136 534.364 559.276 538.84 559.276C540.64 559.276 542.635 560.711 543.292 562.511C544.921 566.793 539.887 570.88 535.898 568.399ZM389.843 566.039C388.991 564.604 389.356 562.317 390.597 561.101C393.638 558.06 400.765 560.614 399.525 564.409C398.284 568.228 391.838 569.274 389.843 566.039ZM552.05 565.552C548.717 561.465 552.415 555.968 557.183 557.865C561.27 559.374 561.075 566.306 556.988 567.644C555.65 568.131 553.461 567.182 552.05 565.552ZM374.055 563.85C372.158 560.809 374.834 557.014 378.726 557.014C380.526 557.014 382.058 559.106 382.058 561.563C382.058 566.233 376.537 567.839 374.055 563.85ZM568.955 564.603C565.623 561.271 567.351 554.435 571.34 555.189C573.529 555.676 575.329 557.963 575.329 560.225C575.329 564.798 571.607 567.279 568.955 564.603ZM358.292 561.563C356.394 558.522 358.949 554.825 362.938 554.825C364.763 554.825 366.174 556.819 366.174 559.276C366.174 563.947 360.773 565.552 358.292 561.563ZM342.139 558.23C340.607 554.143 342.894 550.251 346.883 550.251C350.97 550.251 352.867 555.968 349.729 559.009C346.324 562.512 343.648 562.22 342.139 558.23ZM583.211 557.014C583.211 554.07 584.744 552.538 587.785 552.538C590.729 552.538 592.236 554.07 592.236 557.014C592.236 560.055 590.826 561.563 587.785 561.563C584.744 561.563 583.211 560.055 583.211 557.014ZM599.85 555.773C598.123 551.492 602.211 546.943 605.641 549.035C609.241 551.2 608.681 556.333 604.594 557.865C602.599 558.717 600.604 557.768 599.85 555.773ZM326.546 554.727C325.695 553.292 325.987 551.03 327.324 549.789C330.365 546.748 337.469 549.4 336.252 553.097C334.914 556.917 328.541 557.963 326.546 554.727ZM450.658 553.779C449.126 549.692 451.412 545.702 455.402 545.702C458.832 545.702 460.923 550.057 459.488 554.241C458.15 558.06 452.264 557.768 450.658 553.779ZM466.422 553.486C464.524 548.548 469.268 543.975 472.698 547.405C475.641 550.251 473.842 557.014 470.144 557.014C468.903 557.014 467.2 555.481 466.422 553.486ZM480.773 553.876C478.973 549.4 484.399 545.118 487.707 548.354C490.748 551.394 488.85 557.111 484.861 557.111C483.255 557.111 481.43 555.579 480.773 553.876ZM496.368 555.384C495.686 554.63 495.028 552.076 495.028 549.692C495.028 544.462 502.546 545.119 503.592 550.543C504.346 554.241 498.922 557.865 496.368 555.384ZM421.491 552.343C419.302 548.938 423.948 544.851 428.132 546.457C430.224 547.308 431.076 549.302 430.322 551.297C428.789 555.287 423.656 555.968 421.491 552.343ZM436.695 550.835C437.06 548.646 438.957 546.943 440.782 546.943C442.582 546.943 444.48 548.646 444.869 550.835C445.429 553.584 444.187 554.825 440.782 554.825C437.352 554.825 436.111 553.584 436.695 550.835ZM510.136 553.292C506.998 550.154 508.798 545.8 513.176 545.8C516.12 545.8 517.653 547.308 517.653 550.251C517.653 554.63 513.274 556.43 510.136 553.292ZM614.105 551.589C612.378 547.113 618.752 541.98 622.084 545.216C625.222 548.354 622.838 554.825 618.556 554.825C616.854 554.825 614.762 553.389 614.105 551.589ZM311.926 547.989C311.926 544.656 313.07 543.415 315.916 543.902C318.105 544.364 319.808 546.164 319.808 547.989C319.808 549.886 318.105 551.686 315.916 552.076C313.07 552.635 311.926 551.394 311.926 547.989ZM432.876 595.595C432.876 582.289 432.973 581.997 439.055 581.997C442.485 581.997 446.084 581.899 446.936 581.802C447.909 581.802 448.955 582.751 449.417 584.089C449.903 585.427 448.08 586.546 445.525 586.546C442.874 586.546 440.782 587.519 440.782 588.832C440.782 590.073 442.29 591.022 444.188 591.022C445.988 591.022 447.617 592.554 447.617 594.452C447.617 596.349 446.085 597.857 444.188 597.857C442.29 597.857 440.782 599.487 440.782 601.482C440.782 604.036 442.193 604.79 445.331 603.939C448.274 603.185 449.807 603.842 449.807 605.934C449.807 608.123 447.131 609.169 441.341 609.169C432.876 609.169 432.876 609.169 432.876 595.595ZM453.212 595.595C453.212 580.197 456.934 576.305 462.14 585.986C465.472 592.165 465.472 592.165 465.569 585.986C465.667 581.997 466.908 579.71 469.097 579.71C471.749 579.71 472.405 582.848 472.405 594.452C472.405 611.261 469 613.84 462.627 601.75L458.735 594.452L459.878 601.75C460.827 607.661 460.243 609.072 457.105 609.072C453.894 609.072 453.212 606.882 453.212 595.595ZM481.431 597.76C481.431 589.222 480.677 586.473 478.123 586.473C476.226 586.473 474.692 584.94 474.692 583.14C474.692 580.562 477.344 579.71 484.861 579.71C492.742 579.71 495.028 580.562 495.028 583.335C495.028 585.792 493.789 586.473 491.429 585.597C488.194 584.381 487.804 585.792 488.752 596.641C489.604 607.563 489.337 609.072 485.615 609.072C482.209 609.072 481.431 607.272 481.431 597.76ZM497.316 594.452C497.316 579.443 497.316 579.443 505.757 580.099C513.833 580.854 514.32 581.243 514.514 589.124C514.611 593.6 515.366 599.098 516.217 601.19C516.971 603.282 517.166 605.836 516.51 606.98C514.418 610.215 508.627 606.615 508.627 602.041C508.627 599.755 507.679 597.76 506.439 597.76C505.198 597.76 504.443 600.047 504.71 602.796C505.002 606.031 503.86 608.026 501.306 608.61C497.779 609.364 497.316 607.564 497.316 594.452ZM508.627 587.592C508.627 585.792 507.581 584.283 506.341 584.283C505.1 584.283 504.054 585.792 504.054 587.592C504.054 589.514 505.1 591.022 506.341 591.022C507.581 591.022 508.627 589.514 508.627 587.592ZM523.831 601.482C524.39 598.539 523.247 593.017 521.252 589.124C516.703 580.294 516.703 579.71 522.006 579.71C524.39 579.71 526.872 581.51 527.431 583.7C528.38 587.421 528.478 587.421 528.673 583.7C528.867 581.34 530.764 579.71 533.513 579.71C538.938 579.71 539.035 580.294 534.462 589.124C532.467 593.017 531.226 598.539 531.81 601.482C532.661 605.836 531.907 606.809 527.821 606.809C523.831 606.809 523.053 605.836 523.831 601.482ZM421.296 569.639C419.764 565.552 422.051 561.66 425.943 561.66C430.127 561.66 431.927 567.28 428.886 570.393C425.384 573.823 422.805 573.531 421.296 569.639ZM437.352 570.588C436.5 569.177 436.792 566.987 438.106 565.65C441.147 562.609 448.274 565.26 447.034 568.982C445.72 572.777 439.347 573.823 437.352 570.588ZM453.602 571.269C452.946 570.126 453.213 567.936 454.259 566.233C456.545 562.511 464.159 564.896 462.821 568.982C461.678 572.315 455.208 573.92 453.602 571.269ZM470.144 568.228C470.144 564.993 471.36 563.752 474.133 564.312C480.02 565.358 480.677 572.875 474.888 572.875C471.652 572.875 470.144 571.439 470.144 568.228ZM486.004 568.301C486.004 565.358 487.513 563.85 490.553 563.85C493.521 563.85 495.028 565.358 495.028 568.301C495.028 571.342 493.521 572.875 490.553 572.875C487.513 572.875 486.004 571.342 486.004 568.301ZM413.683 700.684C227.345 679.958 77.3983 576.475 41.7605 444.019C36.0682 422.831 30.3512 370.943 33.2217 366.297C34.0731 365.056 34.4381 359.826 34.1705 354.791C33.4893 343.017 41.1035 306.528 48.1338 287.894C78.8334 206.377 149.987 134.712 246.83 87.9574C293.487 65.4558 329.32 54.2413 394.489 41.5917C439.249 32.9559 531.712 32.8588 582.067 41.3C624.176 48.4275 668.912 61.2717 705.499 76.7431C721.092 83.4085 758.068 102.602 762.057 106.202C764.052 107.929 766.8 109.437 768.235 109.437C769.744 109.437 770.887 110.97 770.887 112.965C770.887 114.96 772.225 116.103 773.734 115.519C780.399 113.232 832.943 155.536 857.366 182.903C893.272 222.992 918.839 275.172 926.915 324.967C930.15 345.304 929.664 391.28 925.966 410.862C915.409 465.596 890.037 513.397 847.855 557.768C827.713 579.053 792.271 609.072 787.332 609.072C785.8 609.072 784.461 610.215 784.461 611.553C784.461 612.964 782.855 613.45 780.86 612.696C776.311 610.872 771.641 613.548 775.339 615.834C778.671 617.829 748.07 636.439 716.057 651.837C674.994 671.614 613.717 689.567 557.183 698.3C527.529 702.873 523.929 702.776 524.878 697.741C525.729 693.459 546.065 689.567 560.126 690.978C564.115 691.464 567.448 691.075 567.448 690.224C567.448 689.47 573.797 687.572 581.606 686.04C589.293 684.629 605.835 680.809 618.265 677.696C630.72 674.46 641.934 671.687 643.175 671.517C644.416 671.225 646.776 670.276 648.406 669.23C650.011 668.184 652.005 667.99 652.686 668.744C653.441 669.522 655.241 669.133 656.579 667.99C657.99 666.749 666.747 663.149 676.04 659.719C716.908 645.001 760.816 621.527 791.224 598.052C818.396 577.253 860.674 534.099 873.786 514.151C879.868 504.737 885.779 496.564 886.898 495.81C887.944 495.055 888.894 493.425 888.894 492.379C888.894 491.26 890.815 486.784 892.98 482.406C916.357 436.697 926.624 380.649 920.177 334.357C904.487 221.581 816.693 127.123 679.372 75.4299C539.205 22.6909 375.393 32.0071 240.262 100.509C221.36 110.118 205.305 117.319 204.648 116.662C203.967 116.005 203.407 116.565 203.407 118.001C203.407 119.412 197.034 124.836 189.25 130.066C151.982 155.243 108.755 197.522 87.5665 229.462C16.4856 337.032 27.0429 461.023 115.225 555.481C143.541 585.792 179.738 613.451 216.982 633.203C226.299 638.166 236.005 643.299 238.462 644.709C256.049 654.586 314.189 673.512 358.292 683.777C394.781 692.218 395.535 692.219 465.108 694.019C508.432 695.162 522.201 696.208 522.201 698.3C522.201 699.93 518.406 701.827 513.76 702.582C499.87 704.868 441.633 703.725 413.683 700.587V700.684ZM379.772 670.276C379.772 656.678 379.869 656.483 386.219 656.483C394.976 656.483 397.432 660.205 397.068 672.368C396.678 682.439 396.679 682.537 388.213 683.193C379.772 683.947 379.772 683.948 379.772 670.276ZM391.449 675.774C391.449 674.558 390.305 673.22 388.991 672.733C387.653 672.271 386.51 673.706 386.51 675.774C386.51 677.769 387.653 679.107 388.991 678.742C390.305 678.255 391.449 676.917 391.449 675.774ZM391.083 665.606C391.083 664.292 390.037 663.343 388.797 663.343C387.556 663.343 386.51 664.292 386.51 665.606C386.51 666.846 387.556 667.795 388.797 667.795C390.037 667.795 391.083 666.846 391.083 665.606ZM403.612 675.215C402.76 670.568 401.519 664.389 400.863 661.616C399.914 657.919 400.668 656.483 403.246 656.483C405.338 656.483 406.847 658.405 406.847 660.96C406.847 667.138 410.934 668.841 411.785 662.954C412.831 655.632 416.918 655.535 419.764 662.662C422.245 668.938 422.245 668.938 422.44 662.954C422.707 657.627 423.656 656.97 430.613 656.97C440.198 656.97 440.198 657.067 441.05 671.225C441.731 681.102 441.244 682.537 437.352 682.537C433.654 682.537 433.07 681.199 433.654 673.123C434.019 667.99 433.265 663.149 432.025 662.395C429.738 660.959 428.692 663.441 426.04 676.261C424.337 684.824 419.01 686.04 415.969 678.547C413.974 673.512 413.975 673.512 413.78 678.547C413.488 687.767 405.339 684.993 403.612 675.117V675.215ZM445.525 680.445C443.531 678.061 443.434 676.917 445.429 675.701C446.937 674.728 448.859 675.312 449.807 676.82C451.121 678.912 451.996 678.912 453.115 677.015C454.064 675.604 453.505 672.83 451.899 670.933C449.515 668.184 449.612 667.138 452.263 665.435C455.596 663.343 453.797 662.492 447.034 663.246C444.285 663.538 443.531 662.492 444.382 660.108C445.233 658.016 448.469 656.581 451.996 656.581C457.785 656.581 458.345 657.359 459.488 667.333C460.145 673.22 459.683 679.301 458.345 680.81C455.304 684.629 448.761 684.434 445.429 680.542L445.525 680.445ZM472.405 680.25C472.405 678.353 470.411 676.82 467.954 676.82C462.335 676.82 462.14 672.66 467.37 663.538C472.698 654.221 476.98 654.489 476.98 664.292C476.98 668.476 478.123 672.368 479.534 672.831C481.528 673.512 481.431 674.923 479.534 678.644C476.395 684.337 472.503 685.286 472.503 680.25H472.405ZM472.405 668.938C472.405 667.138 472.041 665.533 471.554 665.533C471.092 665.533 470.143 667.138 469.364 668.938C468.61 670.836 469 672.368 470.24 672.368C471.457 672.368 472.405 670.836 472.405 668.938ZM486.564 682.147C481.626 680.153 483.255 674.169 488.291 675.774C491.526 676.747 492.84 676.163 492.84 673.609C492.84 671.614 490.845 670.082 488.291 670.082C484.569 670.082 483.718 668.574 483.718 662.2C483.718 654.878 484.302 654.318 490.553 654.318C495.029 654.318 497.316 655.364 497.316 657.627C497.316 659.621 495.224 661.057 492.28 661.057C487.245 661.154 487.244 661.154 492.742 664C499.602 667.43 501.209 674.923 496.173 679.958C492.281 683.85 491.234 684.045 486.564 682.147ZM503.398 679.861C502.546 679.107 501.864 674.071 501.864 668.841C501.864 658.575 505.758 653.37 512.52 654.683C517.75 655.729 517.847 662.395 512.617 661.543C510.427 661.154 508.627 662.005 508.627 663.343C508.627 664.754 509.576 665.241 510.792 664.487C511.935 663.806 514.222 664.657 515.852 666.384C518.309 669.036 519.16 668.379 521.057 662.492C522.785 657.164 524.683 655.364 528.867 655.364C531.811 655.364 534.753 656.775 535.313 658.575C536.091 660.668 535.216 661.349 532.953 660.4C527.237 658.211 526.288 661.543 531.81 664.292C539.302 667.99 539.034 679.958 531.323 681.004C527.917 681.491 524.683 680.25 522.786 677.696C519.842 673.706 519.551 673.706 517.458 677.404C515.172 681.296 506.341 682.829 503.3 679.861H503.398ZM513.176 674.728C513.176 673.609 512.131 671.979 510.89 671.225C509.674 670.471 508.627 671.42 508.627 673.317C508.627 675.312 509.674 676.917 510.89 676.917C512.131 676.917 513.176 675.871 513.176 674.728ZM530.374 670.739C528.015 668.379 526.191 671.882 528.015 674.923C529.426 677.209 530.011 677.209 530.765 674.923C531.324 673.317 531.128 671.42 530.374 670.665V670.739ZM542.537 679.399C542.537 678.353 544.071 673.779 545.969 669.23C549.204 661.446 549.204 661.057 544.825 661.057C542.247 661.057 540.251 659.524 540.251 657.627C540.251 655.267 542.635 654.318 548.157 654.318C552.512 654.318 556.136 654.975 556.136 655.729C556.136 661.616 547.963 681.393 545.482 681.393C543.876 681.393 542.537 680.542 542.537 679.399ZM561.367 679.69C556.988 676.917 558.034 656.873 562.777 654.416C568.567 651.278 573.432 656.021 574.941 666.19C576.668 677.769 569.54 684.896 561.367 679.69ZM569.151 671.03C566.962 668.938 562.583 672.466 564.213 675.02C565.162 676.552 566.499 676.552 568.105 674.825C569.443 673.512 569.906 671.784 569.151 671.03ZM569.613 661.057C569.613 659.816 568.665 658.867 567.448 658.867C566.208 658.867 565.162 659.816 565.162 661.057C565.162 662.298 566.208 663.343 567.448 663.343C568.665 663.343 569.613 662.298 569.613 661.057ZM580.17 679.958C576.74 676.455 578.735 672.076 583.211 673.512C585.789 674.363 587.785 673.974 587.785 672.563C587.785 671.225 585.79 670.082 583.503 670.082C579.611 670.082 576.473 666.092 576.473 661.057C576.473 658.576 583.017 652.032 585.499 652.032C593.088 652.032 597.953 672.563 591.871 678.742C588.83 681.685 582.651 682.342 580.17 679.958ZM587.785 662.2C587.785 660.4 586.739 658.867 585.499 658.867C584.258 658.867 583.211 660.4 583.211 662.2C583.211 664.098 584.258 665.606 585.499 665.606C586.739 665.606 587.785 664.098 587.785 662.2ZM795.87 455.33C792.172 452.946 794.362 446.111 798.814 446.111C800.638 446.111 802.634 447.643 803.29 449.346C804.896 453.628 799.859 457.714 795.87 455.33ZM168.329 446.111C167.381 444.676 167.769 442.413 169.107 441.173C172.148 438.132 179.179 440.687 177.938 444.506C176.697 448.203 170.324 449.346 168.329 446.111ZM773.174 283.345C773.174 279.915 774.318 278.772 777.067 279.258C779.256 279.721 781.056 281.521 781.056 283.345C781.056 285.243 779.256 287.043 777.067 287.432C774.318 287.992 773.174 286.751 773.174 283.345ZM204.453 283.345C203.602 281.91 203.967 279.623 205.208 278.407C208.248 275.366 215.376 277.92 214.135 281.715C212.895 285.437 206.448 286.556 204.453 283.345ZM796.818 283.345C796.064 282.105 798.546 278.48 802.438 275.269C806.233 272.034 808.787 268.506 808.033 267.363C804.797 262.157 810.125 260.722 815.161 265.465C821.729 271.644 822.483 277.434 816.499 275.536C813.847 274.782 810.514 276.314 807.084 279.915C801.294 286.094 799.008 286.848 796.818 283.345ZM180.492 269.09C172.319 259.579 172.319 259.578 177.549 255.686C184.482 250.456 185.358 250.651 192.85 258.435C199.88 265.952 199.977 271.182 193.239 275.633C189.152 278.212 187.912 277.629 180.59 269.09H180.492ZM192.096 267.557C192.096 266.317 191.05 265.271 189.809 265.271C188.569 265.271 187.523 266.317 187.523 267.557C187.523 268.798 188.569 269.844 189.809 269.844C191.05 269.844 192.096 268.798 192.096 267.557ZM761.863 274.223C761.863 270.89 763.103 269.747 765.754 270.233C771.641 271.352 772.298 278.869 766.509 278.869C763.273 278.869 761.863 277.434 761.863 274.223ZM215.765 274.223C214.889 272.788 215.181 270.598 216.519 269.285C219.56 266.244 226.688 268.895 225.447 272.593C224.206 276.388 217.76 277.434 215.765 274.223ZM787.794 274.223C786.943 272.885 787.599 270.306 789.132 268.506C790.64 266.706 791.224 264.516 790.373 263.665C789.595 262.911 787.502 264.152 785.702 266.511C783.245 269.941 781.906 270.306 779.717 268.239C777.528 266.049 778.478 263.86 784.097 258.143C787.989 254.154 791.224 249.994 791.224 249.021C791.224 245.712 797.208 247.123 801.1 251.307C806.039 256.829 805.746 259.019 799.105 266.147C796.064 269.552 793.51 273.274 793.51 274.393C793.51 277.361 789.594 277.166 787.794 274.223ZM798.06 258.435C798.06 257.194 797.014 256.246 795.773 256.246C794.557 256.246 793.51 257.194 793.51 258.435C793.51 259.773 794.557 260.721 795.773 260.721C797.014 260.721 798.06 259.773 798.06 258.435ZM228.974 266.244C227.344 261.962 231.431 257.389 234.861 259.481C238.461 261.67 237.804 266.803 233.815 268.409C231.82 269.187 229.825 268.239 228.974 266.244ZM750.551 265.101C750.551 259.287 758.067 259.967 759.186 265.854C759.672 268.603 758.432 269.746 755.196 269.746C751.985 269.746 750.551 268.312 750.551 265.101ZM196.645 256.343C191.147 248.559 191.342 243.231 197.131 239.533C202.07 236.492 206.716 239.047 211.946 247.805C219.755 260.625 205.402 268.603 196.645 256.343ZM208.054 251.989C204.916 246.078 199.515 242.088 197.983 244.569C196.28 247.318 205.402 258.922 208.054 257.194C209.392 256.44 209.392 254.348 208.054 251.989ZM737.999 260.624C735.542 256.635 741.526 251.21 745.223 254.251C747.607 256.148 747.704 257.584 745.807 259.968C742.669 263.568 739.993 263.859 737.999 260.624ZM241.04 259.189C238.096 256.246 239.702 251.696 243.692 251.696C249.019 251.696 250.819 253.594 249.287 257.583C248.071 260.916 243.594 261.768 241.04 259.189ZM766.898 258.143C762.908 254.154 763.371 249.994 768.795 242.477C778.769 228.416 793.315 237.831 783.707 251.989C778.306 260.162 771.447 262.619 766.898 258.143ZM780.764 242.088C779.815 240.58 777.261 242.088 774.026 246.077C767.263 254.543 770.036 258.824 776.969 250.748C779.815 247.415 781.518 243.523 780.764 242.088ZM219.171 251.04C219.171 249.41 216.227 244.666 212.724 240.288C206.156 232.503 206.157 232.504 211.946 228.709C218.222 224.525 226.007 226.519 226.007 232.308C226.007 233.914 228.293 236.858 231.042 238.78C235.129 241.529 235.615 242.866 233.426 245.129C231.139 247.415 229.729 247.221 226.007 243.815C221.36 239.631 219.463 241.99 224.012 246.564C226.688 249.215 224.96 253.984 221.36 253.984C220.217 253.984 219.268 252.646 219.268 251.04H219.171ZM220.314 233.647C219.56 232.406 217.93 231.36 216.714 231.36C215.473 231.36 215.084 232.406 215.838 233.647C216.617 234.863 218.222 235.909 219.463 235.909C220.703 235.909 221.068 234.863 220.314 233.647ZM705.328 493.717C705.328 490.677 706.837 489.168 709.877 489.168C712.821 489.168 714.354 490.677 714.354 493.717C714.354 496.661 712.821 498.193 709.877 498.193C706.837 498.193 705.328 496.661 705.328 493.717ZM224.498 492.379C222.601 487.441 227.441 482.892 230.871 486.298C233.718 489.168 231.918 495.907 228.293 495.907C226.98 495.907 225.252 494.374 224.498 492.379ZM745.978 491.431C745.978 488.39 747.51 486.882 750.551 486.882C753.591 486.882 755.027 488.39 755.027 491.431C755.027 494.471 753.591 495.907 750.551 495.907C747.51 495.907 745.978 494.471 745.978 491.431ZM183.728 487.83C182.317 484.133 187.06 479.56 190.296 481.554C191.244 482.138 192.096 484.595 192.096 487.076C192.096 492.282 185.722 492.866 183.728 487.83ZM717.662 489.071C716.811 487.636 717.199 485.446 718.44 484.133C721.481 481.092 728.608 483.744 727.368 487.441C726.127 491.26 719.657 492.282 717.662 489.071ZM212.432 482.211C212.432 476.421 219.925 477.078 221.068 482.989C221.652 485.738 220.314 486.882 217.079 486.882C213.844 486.882 212.432 485.446 212.432 482.211ZM759.575 482.308C759.575 479 760.718 477.759 763.564 478.222C765.754 478.708 767.457 480.508 767.457 482.308C767.457 484.206 765.754 486.03 763.564 486.395C760.718 486.979 759.575 485.738 759.575 482.308ZM730.968 481.092C729.071 476.129 733.814 471.58 737.244 475.01C740.188 477.857 738.388 484.595 734.691 484.595C733.353 484.595 731.747 482.989 730.968 481.092ZM172.513 478.805C170.616 473.867 175.359 469.294 178.789 472.724C181.733 475.57 179.933 482.308 176.235 482.308C174.897 482.308 173.268 480.8 172.513 478.805ZM200.367 476.13C199.685 475.084 199.978 472.821 201.024 471.191C203.31 467.494 210.9 469.878 209.586 473.867C208.443 477.273 202.069 478.903 200.367 476.13ZM771.641 474.232C769.647 469.197 775.728 465.889 779.621 469.781C781.348 471.484 782.004 473.964 781.153 475.375C778.963 479.097 773.174 478.319 771.641 474.232ZM742.67 473.283C740.772 470.243 743.326 466.545 747.315 466.545C749.018 466.545 750.551 468.54 750.551 470.997C750.551 475.765 745.029 477.273 742.67 473.283ZM161.202 467.493C159.304 462.555 164.072 457.982 167.478 461.412C170.421 464.258 168.621 470.997 164.923 470.997C163.683 470.997 161.98 469.488 161.202 467.493ZM190.004 467.883C186.768 463.967 188.471 459.71 193.239 459.71C198.08 459.71 199.686 464.356 196.085 467.956C193.239 470.826 192.485 470.827 190.004 467.883ZM784.85 465.888C781.614 461.972 785.24 456.377 789.886 458.177C794.265 459.88 794.459 462.847 790.47 466.253C788.086 468.15 786.747 468.054 784.85 465.888ZM753.98 464.258C752.059 461.217 754.638 457.422 758.628 457.422C760.331 457.422 761.863 459.515 761.863 461.972C761.863 466.642 756.341 468.248 753.884 464.258H753.98ZM149.988 456.474C148.382 452.387 150.668 448.397 154.658 448.397C158.161 448.397 160.253 452.752 158.745 456.839C157.407 460.755 151.52 460.463 149.988 456.376V456.474ZM178.498 455.33C178.498 452.095 179.933 450.685 183.265 450.685C186.476 450.685 187.62 451.901 187.158 454.577C186.014 460.464 178.498 461.12 178.498 455.33ZM764.513 453.531C765.657 447.644 773.174 446.963 773.174 452.752C773.174 455.988 771.739 457.422 768.406 457.422C765.195 457.422 764.051 456.28 764.513 453.531ZM725.836 377.876C727.563 371.624 727.076 369.8 722.235 364.764C714.816 356.98 715.108 355.739 724.425 355.739C731.163 355.739 732.5 354.791 735.054 347.858C736.587 343.479 738.484 339.879 739.238 339.879C739.992 339.879 742.376 343.479 744.371 347.858C747.704 354.791 749.212 355.739 756.534 355.739C764.902 355.739 764.904 355.74 758.628 362.405C753.106 368.097 752.448 370.189 753.786 377.317C754.637 381.866 754.539 385.199 753.493 384.737C752.447 384.25 748.946 382.45 745.516 380.747C740.188 378.071 738.68 378.168 733.742 381.403C725.276 386.998 723.476 386.147 725.836 377.876ZM144.587 376.27C144.587 373.035 146.095 371.527 149.331 371.527C152.566 371.527 153.807 372.744 153.223 375.517C152.08 381.404 144.587 382.06 144.587 376.27ZM837.784 378.922C837.03 378.168 836.446 375.711 836.446 373.327C836.446 368 843.963 368.754 845.009 374.178C845.763 377.779 840.241 381.404 837.784 378.922ZM812.704 371.527C811.755 370.092 812.12 367.806 813.458 366.589C816.499 363.548 823.528 366.102 822.288 369.897C821.047 373.619 814.698 374.739 812.704 371.527ZM120.455 367.902C118.533 362.964 124.542 359.632 128.531 363.548C130.234 365.251 130.891 367.708 130.04 369.046C127.753 372.743 122.061 372.087 120.455 367.902ZM147.141 363.913C145.147 361.626 145.341 360.215 148.09 357.929C152.371 354.328 157.212 358.124 155.12 363.548C153.515 367.903 150.474 368 147.141 364.01V363.913ZM838.927 361.626C835.692 357.734 837.395 353.453 842.066 353.453C847.004 353.453 848.609 358.123 845.009 361.724C842.163 364.57 841.384 364.57 838.927 361.529V361.626ZM813.069 357.077C811.172 352.042 817.156 348.15 820.488 352.237C821.996 354.037 822.58 356.591 821.826 357.929C819.734 361.359 814.504 360.775 813.069 357.077ZM151.228 349.95C148.771 347.006 148.868 346.058 151.423 344.428C155.509 341.874 160.545 345.863 158.939 350.242C157.309 354.426 154.95 354.328 151.228 349.95ZM839.293 347.371C835.206 345.863 835.789 337.689 839.876 337.689C843.963 337.689 846.906 343.966 844.06 346.52C843.014 347.566 840.825 347.955 839.293 347.371ZM811.464 343.115C808.983 340.171 808.983 339.222 811.658 337.592C815.648 335.135 820.78 339.125 819.15 343.479C817.545 347.663 815.064 347.566 811.464 343.115ZM156.653 336.254C155.217 332.557 159.985 328.008 163.123 330.003C164.145 330.66 164.923 333.14 164.923 335.5C164.923 340.827 158.647 341.387 156.653 336.254ZM805.844 330.756C804.993 329.418 805.382 327.132 806.622 325.819C809.663 322.778 816.791 325.429 815.55 329.127C814.309 332.946 807.839 334.089 805.844 330.756ZM164.145 324.675C163.489 323.629 163.877 321.343 164.923 319.737C167.186 316.015 174.8 318.399 173.462 322.388C172.319 325.818 165.873 327.326 164.145 324.675ZM799.495 317.937C798.814 316.794 799.203 314.604 800.152 312.877C802.536 309.179 810.125 311.564 808.787 315.65C807.668 318.959 801.198 320.588 799.495 317.937ZM173.194 313.363C172.513 312.317 172.902 310.03 173.948 308.425C176.235 304.727 183.825 307.087 182.487 311.077C181.368 314.507 174.897 316.015 173.194 313.363ZM791.686 304.338C792.829 298.451 800.25 297.771 800.25 303.585C800.25 306.796 798.813 308.23 795.602 308.23C792.367 308.23 791.126 306.99 791.686 304.338ZM150.474 300.349C143.638 293.975 143.346 286.483 149.622 282.566C152.468 280.766 154.269 280.863 156.264 282.858C158.356 284.95 157.796 285.9 154.001 287.335C149.428 289.038 149.33 289.524 152.663 294.17C156.166 299.303 162.734 301.103 162.734 296.919C162.734 295.678 161.105 294.73 159.11 294.73C154.561 294.73 156.166 289.329 161.031 288.381C166.821 287.237 169.862 295.411 165.872 301.103C161.396 307.476 157.991 307.282 150.474 300.349ZM183.436 299.765C183.923 297.6 185.723 295.776 187.523 295.776C189.445 295.776 191.245 297.6 191.61 299.765C192.193 302.538 190.953 303.755 187.523 303.755C184.117 303.755 182.974 302.538 183.436 299.765ZM782.954 295.678C781.056 290.74 785.8 286.094 789.23 289.524C792.173 292.467 790.372 299.205 786.747 299.205C785.434 299.205 783.708 297.6 782.954 295.678ZM165.483 282.858C158.842 267.849 161.396 265.271 174.994 273.274C185.625 279.429 187.62 284.95 178.887 284.001C175.189 283.515 174.241 284.489 174.605 288.284C175.651 297.406 170.616 294.462 165.483 282.858ZM193.531 291.226C192.752 289.232 193.604 287.14 195.696 286.386C199.88 284.756 204.551 288.745 202.361 292.175C200.172 295.775 195.039 295.216 193.531 291.226ZM611.917 535.242C608.389 531.739 610.481 527.36 615.419 528.017C618.265 528.504 620.552 530.304 620.552 532.104C620.552 535.728 614.568 537.893 611.917 535.242ZM676.722 530.863C674.824 526.022 679.568 521.376 682.998 524.782C685.941 527.75 684.116 534.488 680.419 534.488C679.081 534.488 677.476 532.858 676.722 530.863ZM251.671 528.698C249.773 523.736 254.517 519.089 257.947 522.519C260.89 525.463 259.09 532.201 255.368 532.201C254.055 532.201 252.327 530.596 251.671 528.698ZM306.599 530.693C303.558 527.555 305.261 523.176 309.64 523.176C312.68 523.176 314.189 524.709 314.189 527.652C314.189 532.007 309.737 533.831 306.599 530.693ZM625.028 529.817C624.177 528.406 624.443 526.217 625.781 524.879C628.822 521.838 635.853 524.514 634.613 528.212C633.396 532.007 627.023 533.053 625.028 529.817ZM291.59 523.274C291.59 520.038 293.001 518.627 296.236 518.627C302.026 518.627 301.369 526.12 295.482 527.263C292.83 527.823 291.59 526.509 291.59 523.274ZM278.38 520.136C276.288 517.654 276.483 516.341 279.232 514.054C284.462 509.675 289.303 515.003 284.462 519.844C281.519 522.884 280.667 522.884 278.38 520.136ZM652.59 519.844C650.96 515.586 655.995 511.5 659.887 513.956C663.707 516.243 661.517 523.079 657.041 523.079C655.241 523.079 653.247 521.668 652.59 519.844ZM705.595 517.752C703.601 515.392 703.699 514.054 705.888 512.254C709.78 509.018 715.399 512.546 713.574 517.192C711.872 521.668 708.929 521.838 705.499 517.752H705.595ZM223.744 511.67C223.744 508.459 224.96 507.218 227.636 507.68C233.523 508.824 234.18 516.341 228.39 516.341C225.155 516.341 223.744 514.905 223.744 511.67ZM263.274 513.956C262.422 512.546 262.69 510.357 264.028 509.019C267.069 505.978 274.197 508.629 272.956 512.351C271.618 516.146 265.269 517.192 263.274 513.956ZM666.845 511.67C666.845 508.459 668.061 507.218 670.834 507.68C676.721 508.824 677.378 516.341 671.589 516.341C668.353 516.341 666.845 514.905 666.845 511.67ZM719.656 510.527C717.759 505.589 722.526 501.04 725.932 504.445C728.875 507.316 727.076 514.054 723.378 514.054C722.04 514.054 720.434 512.448 719.656 510.527ZM147.993 407.627C147.044 406.192 147.433 404.027 148.771 402.689C151.812 399.648 158.842 402.3 157.601 406.022C156.361 409.817 149.987 410.862 147.919 407.627H147.993ZM826.57 405.925C824.575 402.689 829.124 397.945 832.846 399.356C837.979 401.351 837.395 407.724 832.092 407.724C829.61 407.724 827.129 406.873 826.57 405.925ZM122.718 399.551C121.307 395.853 126.05 391.28 129.286 393.275C130.234 393.956 131.086 396.413 131.086 398.797C131.086 404.1 124.713 404.683 122.718 399.551ZM201.972 399.259C202.556 397.07 203.675 392.983 204.453 390.331C205.499 386.536 204.454 384.445 200.075 381.599C192.388 376.466 192.85 374.568 202.459 372.743C208.735 371.624 210.998 369.8 212.798 364.57C215.765 356.226 218.125 356.226 220.971 364.4C222.893 369.703 224.961 371.138 233.134 372.476C242.938 374.082 242.938 374.081 236.37 379.409C230.483 384.152 230.02 385.49 231.431 394.126C232.964 403.735 232.964 403.735 225.155 399.162C217.565 394.613 217.371 394.613 210.34 398.894C201.607 404.197 200.561 404.197 201.875 399.162L201.972 399.259ZM805.844 398.602C804.993 397.167 805.382 394.977 806.622 393.664C809.663 390.623 816.791 393.275 815.55 396.997C814.309 400.792 807.839 401.837 805.844 398.602ZM145.341 392.91C143.444 387.948 148.284 383.301 151.714 386.829C154.56 389.675 152.761 396.413 149.136 396.413C147.822 396.413 146.095 394.808 145.341 392.91ZM833.406 392.716C830.365 389.578 832.092 385.101 836.446 385.101C839.487 385.101 841.019 386.634 841.019 389.675C841.019 394.029 836.544 395.756 833.406 392.716ZM121.307 385.953C118.071 382.742 119.871 378.363 124.445 378.363C127.583 378.363 128.896 379.603 128.434 382.158C127.583 386.244 123.666 388.337 121.307 385.953ZM810.417 385.004C809.566 383.69 809.834 381.403 811.171 380.066C814.212 377.025 821.242 379.7 820.001 383.398C818.785 387.193 812.412 388.336 810.417 385.004ZM776.215 444.87C774.39 440.224 777.918 436.794 782.005 439.275C785.435 441.367 783.805 448.397 779.913 448.397C778.575 448.397 776.872 446.768 776.118 444.87H776.215ZM141.157 443.824C140.306 442.413 140.598 440.224 141.911 438.886C144.952 435.845 152.079 438.521 150.863 442.219C149.525 446.013 143.152 447.06 141.157 443.824ZM804.628 442.511C802.633 440.127 802.536 438.521 804.239 436.697C807.377 433.559 813.847 435.942 813.847 440.224C813.847 444.87 807.839 446.403 804.628 442.511ZM161.202 433.559C159.304 428.621 164.072 424.072 167.478 427.477C170.421 430.348 168.621 437.086 164.923 437.086C163.683 437.086 161.98 435.554 161.202 433.559ZM784.461 432.707C784.461 429.472 785.896 428.061 789.132 428.061C792.367 428.061 793.583 429.302 793.023 431.953C791.977 437.84 784.461 438.521 784.461 432.707ZM133.275 428.256C133.275 425.021 134.784 423.488 138.019 423.488C143.833 423.488 143.152 431.004 137.265 432.148C134.516 432.707 133.275 431.467 133.275 428.256ZM812.704 430.251C811.755 428.816 812.12 426.626 813.458 425.313C816.499 422.272 823.528 424.923 822.288 428.621C821.047 432.44 814.698 433.486 812.704 430.251ZM792.367 423.488C791.418 422.077 791.783 419.79 793.121 418.549C796.162 415.509 803.192 418.087 801.951 421.882C800.711 425.58 794.362 426.723 792.367 423.488ZM153.612 419.036C153.612 415.607 154.853 414.365 157.601 414.949C159.791 415.314 161.591 417.236 161.591 419.036C161.591 420.837 159.791 422.734 157.601 423.123C154.853 423.683 153.612 422.442 153.612 419.036ZM820.586 416.749C820.586 413.319 821.827 412.103 824.576 412.662C826.765 413.052 828.565 414.949 828.565 416.749C828.565 418.549 826.765 420.447 824.576 420.836C821.827 421.395 820.586 420.179 820.586 416.749ZM127.291 415.509C125.394 410.571 130.137 405.924 133.567 409.33C136.51 412.273 134.711 419.036 131.086 419.036C129.748 419.036 128.045 417.406 127.291 415.509ZM801.855 413.052C798.644 409.817 800.443 405.438 804.992 405.438C808.13 405.438 809.371 406.678 808.885 409.233C808.131 413.417 804.239 415.412 801.855 413.052ZM682.049 510.356C678.813 507.121 680.613 502.742 685.162 502.742C688.3 502.742 689.541 503.983 689.079 506.537C688.301 510.624 684.408 512.716 682.049 510.356ZM209.392 506.27C207.762 501.988 212.894 497.901 216.811 500.383C220.508 502.645 218.32 509.505 213.844 509.505C212.141 509.505 210.146 508.07 209.392 506.27ZM249.676 507.218C248.824 505.783 249.116 503.496 250.43 502.28C253.471 499.239 260.598 501.794 259.382 505.588C258.044 509.31 251.671 510.454 249.676 507.218ZM469.195 505.881C466.057 502.742 464.913 502.548 463.381 504.932C460.924 509.019 454.355 506.075 454.355 500.845C454.355 498.461 456.545 493.815 459.099 490.482C463.964 484.4 463.964 484.4 454.355 437.548C449.125 411.909 443.992 389.285 442.946 387.388C440.587 383.009 442.583 400.11 446.572 418.355C449.418 431.102 449.32 433.388 445.331 445.162C438.398 465.207 437.352 478.416 441.828 489.533C445.429 498.655 445.429 499.337 441.634 502.086C435.358 506.635 400.376 506.075 398.576 501.331C397.725 499.239 398.284 495.907 399.719 493.912C407.504 483.257 408.939 475.181 411.42 428.159C413.974 380.65 413.974 379.312 409.328 370.579C406.749 365.616 404.658 359.364 404.658 356.688C404.658 352.139 403.904 351.847 396.484 353.55C391.935 354.596 385.367 358.221 381.767 361.626C375.198 367.903 375.199 367.903 375.199 362.502C375.199 356.98 375.198 356.98 371.793 362.015C369.895 364.667 366.855 371.04 365.03 376.173C363.23 381.209 358.754 389.675 355.057 394.905C348.878 403.541 348.124 406.581 346.689 428.256C345.472 448.106 345.837 453.238 348.975 459.32C353.256 467.494 358.097 468.637 361.624 462.166C363.716 458.177 364.373 458.079 370.747 461.217C378.823 465.304 379.018 466.837 372.352 474.621C368.655 478.903 364.276 480.898 356.857 481.749C338.053 483.841 325.598 467.007 321.9 434.508L320.368 421.687L304.896 422.928C289.789 424.266 268.966 419.401 268.966 414.657C268.966 413.708 276.386 412.37 285.411 411.811C302.22 410.668 318.762 404.586 318.762 399.551C318.762 394.71 315.527 394.418 304.312 398.116C296.139 400.791 290.836 401.156 283.027 399.648C270.11 397.069 267.458 391.937 279.037 391.937C288.646 391.937 300.979 387.194 310.88 379.604C317.059 374.933 318.276 372.281 319.419 360.969C320.197 353.745 322.849 341.873 325.403 334.454C327.982 327.132 331.022 315.066 332.263 307.671C333.479 299.692 336.52 291.421 339.756 287.14C342.796 283.247 347.929 274.685 351.164 268.239C359.241 252.354 365.225 249.507 391.546 249.41C403.052 249.41 419.204 247.902 427.281 246.077C435.357 244.374 447.033 242.867 453.212 242.867C464.329 242.769 465.667 243.328 485.712 256.732C494.834 262.911 512.033 263.86 532.37 259.481C576.741 249.994 596.616 255.491 626.172 285.899C657.625 318.107 666.917 339.587 668.45 382.912C669.009 398.894 670.834 414.755 672.634 419.401C675.772 427.769 674.823 443.922 671.198 443.922C665.311 443.922 662.758 432.902 662.563 406.678C662.563 391.766 661.225 373.984 659.789 367.148C657.041 354.596 657.041 354.596 654.389 382.912C652.857 398.408 650.498 415.242 649.16 420.18C645.268 433.754 646.021 452.484 651.056 472.237C653.537 481.943 655.631 491.333 655.631 493.061C655.631 500.456 629.212 505.491 616.197 500.553C609.143 497.901 608.973 495.152 614.859 483.549C623.69 466.35 618.654 446.768 600.993 428.912C589.001 416.847 589 416.846 568.566 416.846C547.208 416.749 532.564 413.904 514.976 406.119C504.54 401.449 504.54 401.449 506.535 392.716C507.581 387.948 508.433 378.46 508.336 371.625C508.239 360.678 507.752 361.724 505.197 380.65C503.592 392.424 500.162 408.479 497.511 416.19C490.845 435.943 490.748 474.038 497.316 486.882C505.393 502.645 502.448 507.778 486.004 506.829C482.963 506.732 478.682 507.218 476.687 508.167C474.498 509.116 471.555 508.265 469.195 505.881ZM376.828 343.965C376.244 341.119 375.782 342.919 375.782 347.858C375.782 352.796 376.244 355.18 376.828 352.99C377.29 350.801 377.388 346.714 376.828 343.965ZM424.8 280.766C430.127 276.023 433.363 272.131 431.733 272.131C430.225 272.131 424.994 276.023 420.153 280.863C411.98 289.037 411.42 290.57 411.688 301.76L412.077 313.923L413.488 301.76C414.826 290.935 416.164 288.478 424.8 280.766ZM372.936 304.898C372.936 303 371.014 301.493 368.655 301.493C366.368 301.493 363.814 303 363.133 304.898C362.184 307.379 363.425 308.328 367.414 308.328C370.844 308.328 372.936 306.99 372.936 304.898ZM319.322 415.509C337.007 409.524 357.246 388.142 362.67 369.897C363.984 365.446 363.424 364.764 357.635 364.764C352.016 364.764 350.41 366.394 345.74 376.368C336.618 395.853 314.018 414.098 298.231 414.754C295.19 414.949 290.155 415.8 287.017 416.846C282.832 418.184 284.827 418.647 295.093 418.841C302.707 418.939 313.532 417.406 319.322 415.509ZM644.318 400.986C644.318 399.746 643.273 398.699 642.13 398.699C640.987 398.699 639.381 399.746 638.602 400.986C637.848 402.203 638.797 403.248 640.694 403.248C642.689 403.248 644.222 402.203 644.222 400.986H644.318ZM430.224 369.533C433.265 368.292 444.673 359.632 455.498 350.242C466.324 340.731 478.876 331.121 483.425 328.761C503.299 318.593 508.044 304.898 498.921 284.853C492.645 271.352 476.03 253.034 466.616 249.41C463.478 248.266 455.597 247.415 449.126 247.512C437.352 247.902 437.352 247.902 451.705 249.507C465.011 251.04 466.811 251.891 477.928 262.911C491.697 276.485 499.603 290.643 499.603 301.857C499.603 310.323 488.851 322.777 475.836 329.321C472.139 331.121 460.923 339.879 451.12 348.709C433.556 364.399 420.713 370.578 415.872 365.616C414.729 364.57 412.928 357.077 411.785 349.001C409.888 335.403 409.693 335.135 409.425 344.428C409.328 350.047 410.18 358.415 411.493 363.159C414.072 372.281 418.718 373.79 430.224 369.533ZM638.893 524.222C638.139 522.13 638.991 520.136 641.083 519.381C645.267 517.752 649.913 521.741 647.821 525.171C645.559 528.771 640.426 528.212 638.893 524.222ZM690.977 526.12C688.033 523.176 689.54 518.627 693.627 518.627C698.954 518.627 700.755 520.525 699.247 524.514C698.006 527.823 693.531 528.698 690.977 526.12ZM238.096 521.838C236.175 516.9 240.943 512.351 244.349 515.757C247.292 518.627 245.492 525.366 241.794 525.366C240.456 525.366 238.85 523.833 238.096 521.838ZM692.874 502.645C691.925 501.234 692.289 499.045 693.627 497.707C696.668 494.666 703.699 497.342 702.458 501.04C701.242 504.834 694.869 505.88 692.874 502.645ZM734.009 503.496C730.774 500.383 732.597 495.907 737.146 495.907C740.284 495.907 741.623 497.147 741.039 499.701C740.285 503.886 736.393 505.978 734.009 503.496ZM237.318 498.193C237.318 494.763 238.462 493.62 241.211 494.107C243.4 494.569 245.224 496.369 245.224 498.193C245.224 500.091 243.4 501.891 241.211 502.28C238.462 502.84 237.318 501.599 237.318 498.193ZM196.645 495.907C196.645 492.963 198.08 491.431 201.121 491.431C204.162 491.431 205.694 492.963 205.694 495.907C205.694 498.948 204.162 500.456 201.121 500.456C198.08 500.456 196.645 498.948 196.645 495.907ZM550.42 498.558C541.2 496.466 540.738 489.825 549.106 479.268C559.371 466.35 563.532 439.276 557.377 425.313C555.748 421.688 557.182 421.323 572.289 421.396C583.017 421.493 590.339 422.636 593.185 424.728C597.272 427.866 597.272 428.256 592.236 441.732C588.344 452.095 587.104 460.366 587.104 474.621C587.104 487.344 586.154 494.471 584.159 496.101C580.559 499.142 559.445 500.65 550.42 498.655V498.558ZM285.873 686.04C248.07 672.831 222.114 661.154 189.809 642.812C177.354 635.782 177.354 635.782 196.085 653.078C211.946 667.795 214.525 671.225 213.284 675.871C212.432 679.399 212.894 681.296 214.719 681.296C216.227 681.296 216.884 679.788 216.13 677.866C214.33 673.025 216.519 673.706 225.447 680.445C232.38 685.772 236.759 686.818 262.982 689.275C305.066 693.264 306.04 693.07 285.873 686.04ZM697.253 684.337C728.122 681.783 734.787 679.958 743.326 671.979C747.413 668.184 751.693 665.898 753.104 666.846C754.832 667.892 755.099 667.43 753.98 665.606C752.837 663.708 757.971 656.873 768.893 645.658C778.113 636.244 782.758 630.26 779.255 632.449C742.766 654.975 705.595 672.831 670.249 684.896C661.224 687.937 661.224 687.937 672.342 686.721C678.52 686.04 689.639 684.897 697.253 684.337ZM101.335 571.074C79.2958 548.451 65.6245 529.817 50.7856 502.548C45.0932 492.112 41.0065 486.03 41.6633 489.168C42.2471 492.282 44.8982 507.486 47.4768 522.982C50.1283 538.477 52.6827 551.784 53.3638 552.343C55.5532 554.727 116.368 590.462 118.46 590.633C119.579 590.73 111.893 581.997 101.335 571.074Z" fill="#25549A"/>
</svg>
