<svg width="961" height="963" viewBox="0 0 961 963" fill="none" xmlns="http://www.w3.org/2000/svg">
<path fill-rule="evenodd" clip-rule="evenodd" d="M436.693 959.972C217.927 937.735 44.8638 778.109 5.5029 562.076C0.313276 533.871 -1.74272 460.315 1.69196 428.801C25.5843 210.687 190.7 39.2283 410.745 4.25483C448.752 -1.81226 516.994 -1.33522 555.001 5.33357C655.685 22.8579 741.552 65.5526 813.354 133.519C833.41 152.422 833.411 152.422 834.113 165.835C834.689 176.816 835.667 179.449 839.302 180.151C843.213 180.929 843.614 179.95 842.336 172.303C841.157 164.581 841.358 163.88 844.692 166.713C846.748 168.393 854.169 177.494 861.139 186.895C872.596 202.364 873.774 205.322 873.774 216.077C873.774 224.701 874.652 227.836 876.808 227.159C878.362 226.557 879.541 223.047 879.24 219.211C878.764 212.467 878.763 212.466 884.354 219.31C901.101 239.969 928.228 297.557 941.039 339.776C953.875 382.171 958.964 414.486 960.443 462.095C961.898 512.612 955.254 584.59 949.363 580.98C948.385 580.378 948.009 581.757 948.686 584.114C949.262 586.57 948.008 595.269 945.852 603.593C928.804 669.704 894.733 735.314 849.681 788.99C820.599 823.663 775.548 864.002 772.113 858.511C769.28 853.823 763.589 857.634 762.034 865.18C760.455 873.002 751.831 876.236 739.12 873.604C733.429 872.526 732.05 873.002 732.05 876.337C732.05 879.17 733.429 880.072 736.463 879.27C738.92 878.693 742.254 878.994 743.909 879.972C747.82 882.303 709.035 905.318 678.098 918.932C654.106 929.512 647.938 931.367 650.395 927.456C651.849 925.099 646.359 922.466 640.292 922.466C638.035 922.466 637.358 923.244 638.737 924.222C640.016 925.199 641.37 927.756 641.771 929.912C643.049 937.935 574.682 955.56 528.853 958.994C517.796 959.872 506.239 961.05 503.105 961.727C497.915 962.805 497.614 962.329 498.993 955.46C500.748 946.359 496.135 946.86 491.547 956.261C488.589 962.228 487.511 962.629 472.644 962.329C463.919 962.128 447.774 961.05 436.693 959.972ZM558.235 932.169C572.526 929.611 584.961 927.957 585.838 928.534C586.816 929.135 588.195 928.634 588.872 927.456C589.674 926.277 594.161 924.522 599.075 923.544C611.109 920.987 609.931 921.388 634.525 912.087C646.459 907.574 665.362 899.552 676.543 894.362L696.801 884.861L695.346 892.783C692.99 905.243 697.578 904.34 702.692 891.329C706.804 880.649 709.336 878.092 729.718 864.679C742.053 856.556 759.578 843.92 768.578 836.675C780.036 827.374 785.626 824.24 786.905 826.296C788.083 828.151 788.66 827.674 788.66 824.641C788.76 822.284 798.663 809.949 810.697 797.414C872.496 732.958 910.879 660.003 929.782 570.977C935.749 542.973 936.15 536.706 936.351 481.776C936.451 433.691 935.573 418.799 932.139 401.475C922.637 354.267 907.545 309.816 887.965 270.33C883.176 260.552 879.641 251.251 880.242 249.572C880.819 247.917 880.619 244.682 879.741 242.426C878.187 238.615 877.986 238.616 876.507 242.527C875.329 245.761 871.994 242.226 862.217 227.434C836.845 189.051 797.585 146.932 762.135 120.307C750.176 111.207 746.842 107.371 747.82 104.037C748.522 101.605 748.12 100.226 746.942 100.903C745.664 101.705 744.786 100.025 744.886 97.1923C745.087 90.4483 737.44 88.6682 736.362 95.2367C735.686 99.6491 734.206 99.1483 717.86 89.2705C626.879 33.6389 514.562 11.4 409.567 28.1472C207.623 60.3629 51.5325 220.891 25.4841 423.211C22.3503 447.705 22.2501 509.879 25.3839 534.95C38.5961 640.021 82.9715 731.504 155.325 803.08C165.805 813.46 174.429 823.262 174.429 824.917C174.429 826.597 176.109 827.951 178.064 827.951C180.12 827.951 188.92 833.642 197.544 840.586C206.269 847.556 220.358 857.734 228.782 863.425C237.206 868.991 244.451 873.805 244.752 873.98C245.153 874.281 243.774 877.515 241.919 881.226C239.938 884.961 238.961 888.571 239.663 889.273C241.217 890.827 247.685 882.404 247.685 878.793C247.685 877.414 260.822 882.805 276.868 890.727C322.596 913.266 369.428 927.756 422.503 935.503C453.44 940.091 523.563 938.336 558.336 932.169H558.235ZM876.207 596.347C876.207 594.994 879.065 580.377 882.474 563.831C891.299 521.737 891.876 449.158 883.753 406.664C873.073 350.355 851.035 296.88 819.221 249.873C797.384 217.557 752.131 171.727 719.339 148.712C706.503 139.687 697.202 131.864 698.756 131.363C700.236 130.887 704.046 132.166 707.28 134.221C715.905 139.887 717.659 138.609 709.837 132.241C703.068 126.676 703.069 126.675 708.258 118.151C713.448 109.728 713.648 109.628 719.816 113.363C723.351 115.419 729.318 119.631 733.128 122.765C740.198 128.331 740.198 128.33 735.385 134.999C732.752 138.609 729.819 142.721 728.917 144.301C727.939 145.855 732.251 151.145 739.296 157.036C751.355 167.115 751.354 167.114 756.945 160.27C762.511 153.4 762.511 153.401 755.566 146.356C749.198 139.888 748.321 139.586 744.786 143.121C740.098 147.909 742.63 152.925 748.798 150.969C753.987 149.29 754.589 151.846 750.276 157.713C747.544 161.524 746.742 161.247 740.374 154.678C733.53 147.433 733.529 147.434 740.298 140.489C747.619 132.742 748.321 132.944 761.433 144.501L770.157 152.222L763.012 160.946L755.767 169.772L763.288 177.493C767.425 181.705 771.236 184.639 771.913 184.063C772.514 183.386 770.559 180.251 767.5 176.917C761.935 171.025 761.934 171.025 768.779 163.98C775.548 156.835 775.548 156.836 783.27 164.282C787.482 168.393 790.34 172.805 789.638 173.983C788.86 175.136 785.325 173.381 781.815 169.947C776.224 164.582 774.946 164.181 772.414 167.315C768.578 171.928 771.436 176.315 777.202 174.56C782.593 172.805 783.169 176.314 778.18 180.526C774.37 183.66 773.291 189.928 776.626 189.928C777.704 189.928 780.537 187.772 782.994 185.14C785.826 181.906 788.083 181.129 789.638 182.783C791.317 184.363 790.339 186.995 786.905 190.63C781.715 196.096 781.715 196.095 788.359 202.463C796.708 210.511 800.894 210.888 793.473 202.866C787.782 196.899 787.782 196.898 794.05 191.007C802.373 183.385 803.25 183.56 813.354 194.742L821.954 204.319L813.43 212.267C805.031 220.29 805.03 220.29 809.242 226.958C814.607 235.382 824.21 245.962 824.21 243.605C824.21 242.527 822.756 239.393 820.876 236.56C817.742 231.646 818.042 230.969 825.589 226.08C830.001 223.222 834.113 221.869 834.89 223.047C835.567 224.2 833.511 226.958 830.177 229.114C824.009 233.126 824.21 237.813 830.678 236.66C836.745 235.582 836.445 240.57 830.177 244.381C826.767 246.437 825.087 248.994 826.165 250.649C827.344 252.705 830.001 252.129 835.567 248.594C842.913 243.906 843.113 243.504 839.679 238.214C835.768 232.248 834.99 227.734 837.823 227.734C839.678 227.834 851.035 244.381 849.782 245.158C849.381 245.459 845.068 248.593 840.28 252.128C831.455 258.597 831.455 258.597 836.369 266.82C839.001 271.307 842.235 275.043 843.414 275.043C844.592 275.043 843.714 272.21 841.558 268.775C837.622 262.884 837.623 262.508 842.135 259.173C853.492 250.649 854.169 250.75 861.816 263.285C865.827 269.753 869.162 276.121 869.162 277.4C869.162 278.553 864.849 281.787 859.66 284.444C854.47 287.077 850.258 289.735 850.258 290.311C850.258 293.345 858.481 308.035 860.161 308.035C861.239 308.035 860.537 305.003 858.582 301.192C855.072 294.323 855.172 294.147 862.417 290.512C866.529 288.456 870.741 286.801 871.819 286.801C873.875 286.801 885.608 308.638 885.608 312.448C885.608 313.527 880.92 316.36 875.229 318.516C864.849 322.427 864.749 322.627 867.206 330.073C870.841 340.653 874.752 344.288 872.796 335.062C871.518 328.894 872.195 327.441 877.385 325.085C885.708 321.274 889.644 321.549 891.299 325.962C893.455 331.653 893.254 331.929 886.987 330.375C883.853 329.597 880.142 329.597 878.864 330.375C875.529 332.43 878.187 338.296 882.875 339.475C885.909 340.152 885.232 341.155 880.318 343.11C874.05 345.642 871.994 349.278 875.63 351.334C876.607 351.91 880.919 350.832 885.131 349.077C891.875 346.244 892.678 345.065 891.299 339.374C889.444 331.552 893.756 334.686 896.188 343.009C897.667 347.597 896.388 348.976 887.287 352.988C876.708 357.701 876.708 357.702 879.441 367.003C881.02 372.092 882.875 376.98 883.753 377.858C886.31 380.415 902.079 374.248 901.101 371.114C898.444 362.49 897.667 355.344 899.221 355.344C901.001 355.344 906.968 371.69 906.968 376.504C906.968 377.857 902.18 380.114 896.288 381.593C885.132 384.426 883.377 388.162 888.065 399.017C889.719 403.029 890.12 402.552 890.221 396.084C890.421 390.393 891.499 388.437 894.533 388.337C896.789 388.337 901.001 387.761 903.734 386.984C908.247 385.806 909.124 386.983 911.48 397.738C915.291 415.964 915.191 416.367 903.433 418.122C892.778 419.676 892.778 419.675 892.778 430.054C892.778 435.745 893.655 440.433 894.733 440.433C895.811 440.433 896.187 437.299 895.711 433.589C894.733 427.121 895.21 426.645 904.511 425.066C909.901 424.088 914.715 423.786 915.091 424.187C915.492 424.689 916.67 431.734 917.548 439.857C919.202 454.548 919.202 454.549 907.168 454.549C895.109 454.549 895.109 454.549 895.511 465.805C895.811 474.43 896.087 475.207 896.889 469.34C897.767 461.994 898.243 461.694 908.246 461.694C918.726 461.694 918.726 461.693 918.726 477.062C918.726 492.355 918.726 492.356 906.968 492.356C895.11 492.356 895.11 492.355 895.41 503.612C895.711 514.192 895.912 514.392 897.166 506.545C898.043 502.032 900.023 498.422 901.578 498.522C903.258 498.723 907.745 498.899 911.656 499.099C918.526 499.5 918.726 499.801 918.726 511.058C918.726 529.259 917.749 530.538 904.311 528.682C893.255 527.304 892.778 527.504 892.778 532.794C892.677 535.928 891.976 541.017 891.199 544.151C890.12 548.062 890.522 549.341 892.377 548.062C893.931 547.185 895.11 543.85 895.11 540.641C895.11 534.549 899.723 533.371 911.18 536.43C916.946 537.984 916.846 536.805 912.558 558.842C911.18 566.088 910.979 566.188 899.923 564.809C888.566 563.555 888.566 563.555 885.608 574.611C883.953 580.678 881.997 586.746 881.22 588.025C880.518 589.303 880.243 592.237 880.619 594.594C880.92 596.85 880.142 598.705 878.763 598.705C877.41 598.705 876.257 597.676 876.207 596.347ZM907.846 557.188C910.503 550.319 909.325 542.597 905.389 541.017C900.024 538.961 898.344 541.419 901.578 546.609C905.013 552.174 903.057 554.154 895.912 552.374C891.875 551.397 890.421 551.997 890.421 554.63C890.421 557.764 894.032 559.444 903.734 560.598C905.213 560.798 907.068 559.244 907.846 557.188ZM912.558 519.382C915.968 510.457 914.213 504.189 908.146 504.189C904.411 504.189 902.179 505.568 902.179 507.824C902.179 509.68 903.258 511.359 904.511 511.359C905.89 511.359 906.868 512.436 906.868 513.69C906.868 514.968 904.235 516.046 901.001 516.046C897.366 516.046 895.11 517.426 895.11 519.582C895.11 524.571 910.578 524.471 912.558 519.382ZM914.013 475.608C914.013 467.961 913.235 466.407 909.324 466.407C906.667 466.407 904.511 467.962 904.511 469.917C904.511 471.873 905.589 473.553 906.868 473.553C908.247 473.553 909.224 475.207 909.224 477.363C909.224 480.397 907.745 480.899 902.179 479.82C896.488 478.642 895.11 479.118 895.11 482.452C895.11 485.887 896.789 486.464 904.511 485.787C913.812 484.909 914.013 484.608 914.013 475.608ZM912.158 448.08C912.659 447.102 912.459 442.591 911.757 437.902C910.578 430.456 909.801 429.678 904.812 430.957C899.522 432.21 899.422 432.512 903.057 436.222C908.347 441.512 907.946 442.79 901.001 442.79C897.366 442.79 895.11 444.17 895.11 446.326C895.11 450.037 910.578 451.615 912.258 448.08H912.158ZM908.347 411.251C908.522 411.076 908.046 406.964 907.445 402.05C906.567 394.604 905.489 393.151 900.7 393.151C897.266 393.151 895.11 394.504 895.11 396.76C895.11 398.616 896.689 400.297 898.644 400.297C900.6 400.297 902.179 401.851 902.179 403.831C902.179 405.962 899.923 407.34 896.288 407.34C892.477 407.34 890.421 408.72 890.421 411.152C890.421 414.286 891.976 414.687 899.221 413.308C904.135 412.43 908.246 411.452 908.347 411.251ZM872.295 314.003C880.719 310.493 880.719 310.494 875.73 301.192C871.418 293.145 870.239 292.267 866.429 294.724C860.738 298.259 860.838 301.192 866.705 302.646C873.173 304.426 872.696 306.758 865.451 310.092C862.116 311.671 860.061 313.928 860.838 315.181C862.693 318.14 862.217 318.215 872.295 314.003ZM855.072 280.91C863.295 276.598 863.395 276.121 857.127 265.842C852.715 258.597 851.838 258.195 848.603 261.53C844.392 265.641 846.648 271.308 851.637 269.352C853.492 268.675 854.971 269.452 854.971 271.407C854.971 273.262 852.816 275.419 850.158 276.221C847.626 276.998 845.47 279.255 845.47 281.11C845.47 285.322 846.447 285.322 855.072 280.91ZM810.12 210.01C815.686 204.043 815.686 204.043 809.519 197.876C805.608 193.864 801.972 192.185 799.44 193.163C794.827 194.918 795.805 200.409 800.819 200.91C802.674 201.111 805.106 201.385 806.284 201.485C807.463 201.586 806.184 204.244 803.351 207.277C800.518 210.311 798.838 213.445 799.741 214.322C802.373 216.954 804.228 216.177 810.12 210.01ZM728.34 136.377C732.953 130.11 732.953 130.11 725.005 123.441C716.983 116.772 710.815 117.475 710.815 124.996C710.815 128.832 717.283 131.463 719.139 128.43C719.916 127.151 721.571 126.775 722.749 127.452C724.128 128.229 723.551 130.988 721.495 133.921C714.225 144.301 720.894 146.556 728.34 136.377ZM448.551 930.389C375.094 923.645 312.719 904.065 252.875 868.791C128.6 795.634 48.6997 672.939 32.4289 530.237C28.9942 499.4 30.8742 432.813 36.0639 403.831C63.09 252.706 161.593 128.831 304.395 66.5304C456.774 0.0431668 638.436 26.6932 767.324 134.497C790.439 153.801 796.983 160.647 794.25 162.326C793.172 163.003 784.849 157.136 775.748 149.289C733.93 113.363 691.31 87.0142 644.604 68.3115C541.689 26.8698 425.135 26.0928 321.92 65.955C122.633 142.922 6.58085 346.143 42.2313 555.608C62.9898 677.727 128.499 778.01 234.673 850.489C247.685 859.389 259.043 867.712 260.02 869.091C260.998 870.57 261.8 870.946 261.8 870.069C261.8 869.192 273.834 874.08 288.525 881.15C494.08 978.875 738.518 907.198 858.682 714.079C959.942 551.196 942.418 333.984 816.287 189.928C798.562 169.771 793.95 159.091 809.318 173.783C843.314 206.475 882.098 269.076 903.057 325.184C938.106 418.898 939.585 527.604 907.068 624.653C862.593 757.753 756.043 863.325 621.012 908.176C567.236 926.001 498.091 934.902 448.551 930.389ZM462.641 917.778C462.641 916.399 466.477 911.41 471.065 906.797C480.567 897.296 480.567 892.883 471.265 892.984C463.443 893.184 463.619 886.239 471.466 885.061C485.079 883.105 490.57 895.139 481.344 906.797C476.455 912.965 476.455 912.965 482.823 912.965C486.734 912.965 488.689 914.043 488.113 915.898C486.834 919.734 462.641 921.388 462.641 917.778ZM498.693 918.555C493.403 916.299 495.659 911.586 502.027 911.686C510.45 911.887 511.804 906.497 504.083 903.563C497.715 901.106 497.916 896.418 504.359 896.418C506.314 896.418 507.492 895.139 506.916 893.485C506.314 891.905 503.581 890.827 500.849 891.128C497.614 891.429 495.759 890.351 495.759 888.195C495.759 885.738 498.291 884.66 503.782 884.66C513.384 884.66 519.05 890.251 515.44 896.117C513.584 898.975 513.76 900.83 516.117 903.087C520.128 906.797 520.228 908.652 516.417 913.566C513.284 917.778 503.481 920.511 498.693 918.555ZM442.284 904.441C443.637 892.883 443.362 891.329 440.127 892.607C437.37 893.685 436.592 892.883 437.094 889.95C437.57 887.493 440.504 885.537 444.44 885.061C450.306 884.359 450.908 885.061 450.807 892.206C450.807 906.898 448.05 917.778 444.339 917.778C441.406 917.778 441.005 915.422 442.284 904.441ZM540.711 911.787C540.711 909.355 538.154 908.276 532.387 908.276C522.484 908.276 522.284 906.897 530.131 891.529C537.376 877.314 543.745 876.336 544.998 889.373C545.399 893.861 546.778 898.173 547.956 898.975C551.19 901.031 547.656 915.321 543.92 915.321C542.065 915.321 540.711 913.742 540.711 911.787ZM538.254 895.841C538.254 891.529 537.753 891.229 535.898 894.062C532.964 898.675 532.964 901.207 535.898 901.207C537.276 901.207 538.254 898.774 538.254 895.841ZM403.6 909.63C403.6 907.675 404.577 905.619 405.756 904.942C408.288 903.262 413.578 909.354 411.422 911.41C408.689 914.243 403.6 913.065 403.6 909.63ZM557.157 908.552C557.157 907.374 560.391 905.819 564.302 905.042C568.214 904.34 571.347 902.184 571.347 900.329C571.347 896.318 565.682 893.76 560.768 895.641C557.935 896.719 557.157 894.939 557.157 887.493C557.157 877.816 560.291 875.359 571.949 875.259C578.994 875.158 576.537 881.626 568.991 883.105C559.89 884.961 559.79 889.373 568.915 889.373C578.492 889.373 582.604 896.894 577.415 904.842C574.582 909.154 571.548 910.608 565.38 910.608C560.868 910.608 557.257 909.731 557.257 908.552H557.157ZM371.083 906.597C365.016 905.419 364.715 903.087 368.727 883.983C371.559 869.969 371.559 869.969 379.607 871.347C393.22 873.504 398.887 878.793 398.887 889.273C398.887 903.764 388.908 910.032 371.083 906.597ZM387.429 897.296C392.819 892.507 393.02 886.24 388.131 881.226C382.34 875.459 378.429 876.838 376.95 885.261C376.273 889.473 374.994 894.764 374.016 896.995C371.86 902.586 381.462 902.786 387.529 897.296H387.429ZM589.473 899.251C581.25 890.151 588.195 868.113 599.276 868.113C603.763 868.113 602.485 872.902 596.819 877.515C591.429 881.827 591.429 881.827 597.997 880.649C605.819 879.094 611.51 883.306 611.51 890.627C611.51 902.285 597.195 907.775 589.473 899.251ZM603.287 891.705C603.287 889.85 601.407 887.894 599.175 887.417C596.217 886.916 594.964 888.195 594.964 891.705C594.964 895.34 596.217 896.619 599.175 896.017C601.407 895.641 603.287 893.686 603.287 891.705ZM348.745 899.853C347.968 899.05 349.347 891.429 351.879 882.705C354.336 873.98 356.392 866.634 356.392 866.358C356.392 865.957 357.971 865.757 359.926 865.757C364.514 865.757 364.238 873.203 358.949 888.095C355.012 899.251 351.779 902.986 348.745 899.953V899.853ZM406.834 895.34C404.778 889.85 409.165 885.838 412.7 890.15C414.856 892.708 414.656 894.162 411.923 896.418C409.09 898.875 408.112 898.674 406.834 895.34ZM657.64 868.113C654.406 861.745 651.749 855.979 651.749 855.378C651.749 854.801 663.507 847.756 677.797 839.809C723.15 814.538 776.425 769.486 803.652 733.459C830.277 698.11 840.957 680.084 855.247 646.389C869.563 612.519 873.774 605.373 873.874 614.674C873.975 617.984 875.128 617.508 879.741 612.318C884.254 607.128 886.786 606.05 891.499 607.229C899.823 609.284 900.199 610.738 895.912 623.875C890.797 639.143 890.221 639.645 880.242 635.433C868.384 630.444 867.883 630.62 863.771 641.3C861.716 646.489 861.038 650.701 862.217 650.701C863.395 650.701 864.373 649.824 864.373 648.847C864.373 647.769 865.727 645.035 867.406 642.678C870.34 638.767 871.217 638.768 879.24 642.077C887.965 645.712 887.964 645.711 883.076 657.068C876.306 672.838 875.429 673.415 864.473 668.526C859.183 666.069 854.47 664.615 853.994 665.092C850.86 668.727 840.757 686.552 840.757 688.407C840.757 689.786 844.091 692.519 848.102 694.575C856.05 698.686 856.049 698.686 862.417 687.53C864.473 683.895 864.072 682.34 860.638 679.883C855.649 676.173 851.236 680.485 855.172 685.273C858.581 689.485 853.994 691.24 849.08 687.73C845.069 684.797 845.069 684.296 848.98 678.329C853.793 670.983 855.072 670.783 864.473 675.571C872.972 679.984 872.972 679.307 864.95 693.497C858.005 705.831 856.25 706.91 850.359 701.82C841.258 693.798 837.046 694.875 829.023 707.411C822.354 717.69 821.778 719.846 824.511 723.28C827.444 726.79 827.243 726.891 823.232 724.635C819.421 722.478 817.466 723.857 809.519 733.76C804.529 740.128 800.994 746.396 801.796 747.649C802.574 748.928 801.797 750.006 800.017 750.006C798.262 750.006 793.649 753.14 789.938 757.051C786.128 761.087 784.548 764.12 786.303 764.12C788.083 764.12 790.815 762.24 792.495 760.009C795.428 756.173 796.206 756.474 803.351 763.519L811.098 771.165L800.518 782.021L789.938 792.801L782.292 784.077C774.771 775.277 774.77 775.277 766.246 781.745C761.533 785.355 758.299 788.89 759.101 789.567C759.778 790.269 762.611 788.991 765.269 786.534C769.957 782.222 770.258 782.322 777.704 789.768L785.225 797.414L773.392 807.894L761.634 818.373L753.711 809.072L745.864 799.846L734.407 808.571C721.496 818.373 720.994 819.727 727.061 827.674C730.596 832.162 732.15 832.764 736.086 830.708C744.309 826.296 747.243 821.306 743.909 817.295C740.474 813.183 736.362 814.939 737.34 820.228C738.318 825.719 733.63 826.296 730.395 821.006C727.838 817.095 728.54 815.916 735.685 811.705C743.708 806.916 743.708 806.916 748.521 813.66C755.065 822.861 754.789 823.764 742.931 832.263C732.752 839.608 727.362 841.564 727.362 837.953C727.362 836.976 724.805 833.165 721.771 829.329C716.281 822.385 716.281 822.385 707.18 827.951C702.191 831.084 699.458 834.043 701.113 834.519C702.692 835.121 705.901 833.742 708.358 831.585C712.37 827.95 712.971 828.151 717.66 835.797C720.417 840.21 722.649 844.622 722.649 845.399C722.649 847.154 701.414 861.068 698.756 861.068C697.779 861.068 694.645 857.057 691.712 852.144C688.778 847.255 686.121 842.942 685.745 842.466C685.243 841.864 674.488 847.154 659.095 855.578C657.916 856.255 660.774 866.258 663.206 870.069C664.786 872.526 666.842 872.325 673.786 868.991C682.812 864.679 683.388 863.801 681.032 857.834C679.176 852.745 673.009 855.779 672.909 861.846C672.909 866.835 672.808 866.835 669.374 862.347C664.786 856.255 664.986 855.578 672.332 852.144C681.131 848.132 681.808 848.333 685.945 856.155C691.135 866.158 690.934 866.459 676.543 873.503L663.607 879.871L657.64 868.214V868.113ZM709.136 849.31C716.281 845.7 716.883 839.132 710.114 837.853C707.281 837.277 706.002 838.53 706.002 841.965C706.002 848.634 702.692 848.132 699.358 840.787C696.6 834.92 691.912 834.72 691.912 840.486C691.912 844.322 698.957 854.4 700.912 853.322C701.79 852.946 705.526 851.065 709.136 849.31ZM771.035 803.08C777.503 797.79 777.804 797.013 774.169 793.478C769.857 789.191 764.09 791.147 766.046 796.236C768.202 801.827 763.213 802.203 759.377 796.713C756.544 792.701 755.065 792.124 752.909 794.381C750.678 796.537 751.354 798.492 755.667 803.08C762.411 810.226 762.235 810.226 771.035 803.08ZM802.975 770.564C802.975 769.486 801.496 767.054 799.741 765.274C795.529 761.087 789.838 765.775 793.649 770.288C795.329 772.243 795.228 773.698 793.273 774.876C791.493 775.954 788.559 774.5 785.927 771.265C782.592 767.054 780.837 766.352 778.782 768.408C776.726 770.564 777.704 772.92 782.893 778.31C789.637 785.456 789.637 785.456 796.306 779.088C799.916 775.578 802.975 771.742 802.975 770.564ZM877.008 657.27C878.763 652.958 879.842 648.746 879.24 647.768C877.385 644.534 869.061 646.013 869.061 649.523C869.061 651.478 870.339 653.058 871.919 653.058C873.975 653.058 874.05 653.834 872.195 655.69C870.34 657.57 868.284 657.57 864.749 655.69C858.482 652.28 857.303 652.381 857.303 656.191C857.303 659.426 865.351 664.415 870.917 664.715C872.496 664.816 875.329 661.381 877.109 657.169L877.008 657.27ZM890.421 623.274C893.154 615.051 891.399 610.738 885.332 610.563C882.574 610.563 881.02 617.408 883.376 618.887C887.087 621.118 885.908 625.33 882.098 623.776C880.142 622.999 877.008 621.719 875.053 620.942C872.897 620.065 871.418 620.843 871.418 622.798C871.418 625.631 879.741 630.519 886.009 631.597C886.886 631.697 888.842 627.987 890.421 623.274ZM280.202 871.548C267.265 864.779 267.165 864.303 274.035 852.544C279.024 844.121 279.124 843.72 274.812 840.586C265.109 833.541 274.336 835.296 290.08 843.544C311.541 854.801 315.652 860.191 298.027 853.923C291.358 851.567 291.358 851.566 298.127 857.157C304.696 862.623 304.771 862.924 300.961 870.169C296.448 878.994 294.793 879.094 280.202 871.448V871.548ZM295.971 866.559C296.749 864.302 296.072 861.746 294.392 860.667C292.737 859.69 290.982 859.79 290.581 861.068C289.704 863.801 283.035 864.202 283.135 861.645C283.236 860.668 284.815 857.835 286.67 855.378C290.08 850.89 289.403 846.854 285.392 846.854C283.436 846.854 275.99 858.912 275.99 862.046C275.99 863.701 288.325 870.269 291.759 870.37C293.214 870.47 295.094 868.69 295.971 866.559ZM248.287 853.322C241.417 849.11 235.827 844.898 235.827 844.021C235.827 843.043 238.484 838.43 241.819 833.541C245.053 828.753 247.284 824.441 246.808 823.939C246.306 823.463 240.841 819.451 234.573 814.939C222.614 806.515 219.681 806.716 214.392 816.493C212.536 819.928 213.614 822.184 219.882 827.875C230.061 837.176 223.292 837.452 212.235 828.251C204.113 821.507 204.112 821.507 210.48 813.083C214.091 808.47 216.949 803.782 216.848 802.704C216.748 801.626 211.659 796.812 205.391 792.024C194.009 783.199 194.009 783.199 188.544 789.091C183.053 794.857 183.054 794.857 189.798 802.002C195.689 808.17 197.068 808.671 200.001 805.738C204.313 801.425 201.355 796.612 195.488 798.492C190.098 800.247 189.521 796.612 194.611 792.425C197.544 789.968 199.199 790.344 204.012 794.957C211.057 801.526 211.057 801.425 204.112 809.949C198.522 816.794 198.522 816.794 186.488 806.515C174.529 796.136 174.529 796.136 181.574 788.89C185.41 784.879 188.544 780.867 188.544 779.89C188.544 776.931 171.295 757.051 168.763 757.051C167.484 757.051 164.05 759.307 161.116 762.14C155.726 767.154 155.726 767.154 161.894 775.177C167.685 782.723 168.262 783.024 172.273 779.288C177.463 774.6 175.808 770.488 169.44 772.544C163.949 774.299 163.673 771.842 168.863 766.176C172.573 762.064 172.975 762.14 178.34 769.41C183.931 777.032 183.931 777.032 176.685 784.177L169.34 791.347L158.96 779.489L148.581 767.731L156.604 759.608L164.651 751.585L153.57 737.27C147.503 729.448 141.336 721.501 139.957 719.645C137.701 716.712 136.246 717.013 129.979 721.601C122.733 726.991 122.733 726.991 128.8 735.114C134.19 742.184 135.469 742.76 138.402 739.727C142.514 735.615 140.358 730.726 135.369 732.582C130.756 734.437 130.957 730.125 135.645 726.214C138.779 723.481 140.057 723.857 143.868 728.846C149.559 736.292 149.559 739.727 143.692 742.861C138.502 745.694 138.001 747.273 141.235 752.162C144.269 757.151 151.414 750.883 149.459 744.916C147.603 738.849 152.392 739.426 155.626 745.594C157.983 749.906 157.406 751.385 151.615 756.073C147.904 759.107 144.269 761.663 143.592 761.764C142.012 761.864 117.719 729.348 117.719 726.991C117.719 726.013 121.454 722.002 125.967 718.091C134.291 711.021 134.291 711.021 129.201 703.199C123.811 694.875 120.276 694.374 124.689 702.598C127.923 708.589 126.544 711.121 117.719 715.734C110.975 719.269 110.975 719.269 103.229 705.832C99.0167 698.411 96.5844 692.042 97.7627 691.641C99.0162 691.24 103.429 688.809 107.741 686.151C115.488 681.463 115.488 681.463 110.474 671.76C107.741 666.471 105.009 662.66 104.307 663.337C103.73 663.938 104.306 666.671 105.685 669.304C109.396 676.273 108.919 677.627 101.373 682.14C92.1722 687.63 92.5733 687.831 85.8042 674.493C78.1577 659.326 78.1575 658.924 89.339 654.035C100.094 649.247 99.9943 649.522 95.1055 637.789C90.8936 627.786 87.8602 627.686 91.671 637.789C93.0499 641.4 93.9269 644.534 93.5508 644.735C90.1162 646.59 79.1354 650.801 77.4808 650.801C75.2244 650.801 69.0573 637.866 66.6003 628.088C65.5223 623.676 66.8006 622.396 75.5252 619.462C86.3056 615.852 86.7818 614.374 81.9933 601.738C80.815 598.404 79.2357 596.248 78.5588 596.95C77.9822 597.627 78.4584 600.861 79.737 604.196C81.7928 609.661 81.2913 610.462 74.6476 612.794C63.0901 616.83 61.8115 616.028 57.9005 601.939C53.3877 586.37 53.689 585.592 64.4443 583.612C74.6481 581.656 75.826 579.802 73.5696 568.746C71.7896 559.821 71.7895 559.82 70.536 567.942C69.458 575.012 68.1794 576.367 61.0343 577.846C56.4213 578.723 52.5106 579.225 52.1094 578.925C50.5551 577.245 46.3429 551.196 47.4209 550.042C48.1981 549.34 53.0872 548.162 58.3771 547.485C67.7786 546.207 68.0793 545.907 68.0793 537.207C68.0793 532.218 67.0014 527.504 65.7228 526.727C64.2687 525.849 63.9678 527.906 64.745 532.118C66.1239 538.761 65.7224 539.061 55.9449 540.44C50.3541 541.117 45.5657 541.519 45.3651 541.319C45.2648 541.018 44.3872 534.273 43.5098 526.225C41.83 511.534 41.8301 511.535 53.7888 509.98C65.7225 508.401 65.7228 508.4 65.7228 499.399C65.7228 488.143 61.5109 484.909 60.5331 495.389C59.8562 502.433 59.0792 503.11 50.9312 503.812C42.0311 504.489 42.0308 504.49 42.0308 488.445C42.0308 472.374 42.031 472.375 53.2877 472.375C64.5444 472.375 64.5442 472.374 65.2461 462.095C65.7225 455.225 65.1463 452.292 63.4665 453.37C62.1127 454.247 61.0343 457.583 61.0343 460.817C61.0343 466.207 60.1571 466.683 52.1094 466.006C43.3096 465.329 43.3093 465.328 43.3093 450.035C43.3093 434.767 43.3094 434.768 55.6442 435.445C68.0792 436.047 68.0795 436.047 67.6784 425.843C67.4026 418.598 67.1013 417.52 66.3242 422.233C65.4467 428.501 64.7449 428.901 55.4437 428.2C45.6411 427.422 45.641 427.422 46.2427 416.842C47.5213 396.56 47.9975 395.784 58.0007 398.141C71.5138 401.274 71.7896 401.073 74.5474 389.039C76.0015 382.872 77.8818 376.102 78.659 374.046C79.8373 371.013 78.2578 369.834 71.5138 368.556C61.31 366.6 61.1347 366.701 58.6778 377.682C56.9228 385.504 57.1237 386.081 62.3885 386.081C65.8232 386.081 68.0793 384.727 68.0793 382.571C68.0793 380.615 66.9012 379.036 65.5223 379.036C64.1685 379.036 63.6671 377.958 64.5445 376.68C66.3245 373.847 68.2799 373.747 72.1909 376.204C74.5475 377.683 74.6476 379.813 72.5918 385.705C70.1349 392.85 69.4584 393.251 61.3105 391.772C56.6223 390.894 52.3096 389.817 51.8332 389.415C51.3318 389.039 52.4103 382.471 54.1653 374.924C57.2991 361.712 57.7002 361.311 64.5445 362.088C68.4806 362.489 73.6702 363.09 76.1021 363.266C79.2359 363.567 81.3918 361.111 83.6482 354.743C85.4031 349.754 85.8044 345.943 84.5258 345.943C83.2472 345.943 82.2695 347.221 82.2695 348.876C82.1943 356.422 78.358 358.379 69.5582 355.445C59.7556 352.211 59.5552 351.709 65.1459 336.14C69.5583 323.605 71.2132 322.928 83.6482 328.118C91.9717 331.653 91.9715 331.653 95.5064 322.828C97.3616 317.939 99.9943 312.148 101.273 309.892C104.507 304.125 104.306 303.924 96.5844 299.913C87.3835 295.125 87.5593 295.024 83.4477 305.003C80.5145 311.947 80.414 314.003 82.7706 315.582C88.938 319.493 94.0277 314.905 89.5149 309.515C86.1053 305.303 89.0383 303.046 94.3282 305.879C98.4398 308.035 98.44 308.638 94.905 316.159C91.0943 324.107 91.0942 324.106 82.5702 320.571C77.882 318.615 73.7703 316.86 73.3691 316.459C72.3914 315.582 84.4253 289.232 85.9045 289.232C86.5814 289.232 91.2947 291.289 96.2837 293.846C106.462 299.036 108.318 298.058 112.83 285.623C115.388 278.553 115.387 278.552 110.398 285.121C105.484 291.589 105.485 291.59 98.0389 287.479C93.9273 285.122 90.0158 282.966 89.4392 282.59C87.7595 281.512 101.774 256.141 104.03 256.141C105.008 256.141 109.32 258.295 113.532 260.828C117.719 263.485 121.931 265.542 122.833 265.542C123.611 265.542 127.722 260.252 131.934 253.683C139.957 241.248 139.481 237.814 129.377 232.449C123.41 229.215 113.908 243.905 118.722 248.693C123.009 253.005 127.722 249.872 125.967 244.081C124.287 238.992 127.723 238.014 131.433 242.627C133.388 244.884 132.611 247.416 128.6 252.505C123.109 259.374 123.11 259.375 115.664 253.985C111.552 251.152 108.318 248.017 108.318 247.14C108.318 246.237 112.154 240.37 116.742 234.103C125.065 222.746 125.065 222.746 133.012 228.813C143.291 236.56 144.269 236.459 151.815 226.556C155.25 222.068 157.005 218.333 155.726 218.333C154.347 218.333 151.514 220.991 149.459 224.124C145.648 229.991 145.648 229.99 137.6 223.623C133.113 219.987 129.578 216.678 129.578 215.976C129.678 215.299 134.291 209.609 139.857 203.266L149.96 191.784L158.76 199.53C167.585 207.176 167.585 207.176 174.529 200.508C178.34 196.797 181.474 192.787 181.474 191.509C181.474 190.23 178.841 191.708 175.507 194.742C169.54 200.408 169.54 200.409 162.595 193.464C155.626 186.419 155.626 186.418 165.228 175.236C170.418 169.069 175.808 163.98 177.086 163.98C178.265 163.98 182.552 167.715 186.588 172.303L193.934 180.627L204.79 170.649C210.857 165.158 215.946 160.07 216.247 159.393C216.548 158.691 214.291 155.08 211.358 151.445C205.867 144.776 205.868 144.777 198.522 150.969C192.254 156.259 191.477 157.913 193.833 161.523C197.243 167.114 203.411 165.059 201.455 158.992C199.801 153.702 203.335 153.125 207.447 158.014C209.778 160.847 209.102 162.601 203.611 167.315C196.867 173.181 196.867 173.181 189.798 166.035C182.652 158.991 182.652 158.991 194.511 148.512C200.979 142.821 206.845 138.133 207.547 138.133C208.124 138.133 211.358 141.842 214.592 146.255C217.826 150.767 221.336 154.478 222.314 154.478C223.292 154.478 229.384 150.668 235.651 145.955C247.108 137.456 247.109 137.455 242.396 129.407C238.384 122.563 237.106 121.787 233.771 124.219C222.414 132.843 221.738 133.821 224.27 138.434C226.15 142.044 227.403 142.445 229.96 140.39C231.715 138.91 232.618 136.178 231.916 134.322C230.161 129.81 234.473 130.01 238.284 134.598C240.741 137.531 240.541 138.809 236.805 141.742C225.949 150.166 224.671 150.267 219.481 141.843C216.849 137.456 214.592 133.419 214.592 132.843C214.592 130.987 235.251 116.773 237.883 116.773C240.24 116.773 256.009 137.832 254.354 138.91C241.217 147.233 210.581 172.404 193.633 188.65C131.934 248.193 93.7268 319.493 76.0018 408.518C72.6925 425.165 71.7148 441.137 71.79 481.776C71.79 529.26 72.2913 536.43 78.1579 563.731C101.574 673.14 159.261 756.875 259.343 826.296C269.722 833.541 272.555 839.332 263.655 835.02C259.042 832.764 259.243 833.24 264.833 838.354C271.277 844.221 271.277 844.221 266.288 852.645C263.555 857.233 261.199 860.968 260.998 860.968C260.823 860.868 255.031 857.433 248.287 853.322ZM263.054 844.622C262.176 843.143 259.444 842.566 256.886 843.343C251.797 844.998 250.619 840.11 255.031 835.697C257.588 833.165 256.109 827.951 252.775 827.951C250.243 827.951 242.195 842.266 243.874 843.82C244.652 844.622 248.187 847.054 251.797 849.31C257.087 852.645 258.842 852.845 261.499 850.288C263.254 848.634 264.032 846.076 263.054 844.622ZM119.599 705.355C119.098 703.299 117.544 701.544 115.864 701.544C111.176 701.544 111.953 697.032 117.243 694.274C120.076 692.82 121.354 690.664 120.377 689.084C119.198 687.129 116.566 687.63 111.075 690.964C103.128 695.753 103.128 698.987 111.075 709.066C114.109 712.901 120.477 710.143 119.599 705.355ZM102.251 671.861C101.474 670.682 99.3172 669.604 97.462 669.604C92.5732 669.604 93.3502 665.493 98.8407 662.559C105.886 658.724 104.708 654.612 97.0611 656.592C86.8824 659.024 85.7039 661.582 90.1163 670.883C93.6513 678.229 94.7296 678.906 98.9164 676.649C101.474 675.296 103.053 673.139 102.251 671.861ZM86.3811 638.166C85.8045 636.612 84.2497 635.333 82.8709 635.333C77.1798 635.333 77.2799 631.798 83.1715 629.165C94.7291 623.875 89.0382 619.965 76.6032 624.653C70.7116 626.909 70.7115 626.909 74.7478 636.21C78.0572 644.133 79.3359 645.211 82.9711 643.255C85.3277 642.002 86.8825 639.745 86.3811 638.166ZM74.6476 603.793C74.2465 601.637 72.6923 599.983 71.2131 599.983C64.7449 599.983 65.6222 596.147 72.5918 593.715C82.2691 590.381 78.7592 585.768 68.38 588.025C60.3323 589.78 59.6558 591.935 63.4665 602.815C65.4471 608.406 67.1018 609.761 70.712 608.783C73.4697 608.106 75.124 605.949 74.6476 603.793ZM65.2461 567.667C65.6222 565.411 64.1683 563.254 61.7114 562.653C58.2767 561.875 58.6777 561.199 63.9677 559.043C71.2131 556.009 72.6921 551.496 66.3242 551.496C58.5773 551.596 51.9085 554.33 52.7108 557.087C53.0869 558.541 54.1648 562.754 54.9671 566.389C56.6217 573.735 63.8672 574.612 65.2461 567.568V567.667ZM58.6778 531.616C58.6778 529.761 57.399 527.805 55.8446 527.304C51.7331 525.95 55.8446 520.761 61.1345 520.761C63.7669 520.761 65.7228 519.18 65.7228 517.024C65.7228 514.492 64.4439 513.69 62.0121 514.568C59.9563 515.37 55.9453 516.046 53.0872 516.046C48.399 516.046 47.998 517.125 48.7752 525.549C49.4771 532.894 50.6554 534.95 54.1653 534.95C56.6222 534.95 58.6778 533.471 58.6778 531.616ZM56.2211 493.633C56.2211 491.653 55.2429 490.099 53.8891 490.099C52.6105 490.099 51.5326 489.021 51.5326 487.742C51.5326 486.363 54.7668 485.311 58.6778 485.311C63.3911 485.311 65.7228 484.133 65.7228 481.776C65.7228 479.219 63.0904 478.24 56.3213 478.24C46.8195 478.24 46.8196 478.24 46.8196 487.742C46.8196 495.589 47.6215 497.144 51.5326 497.144C54.165 497.144 56.3213 495.589 56.3213 493.633H56.2211ZM55.2433 453.169C53.7892 447.503 54.165 447.002 59.856 448.08C64.5442 449.058 65.8228 448.381 65.2461 445.448C64.7447 442.79 61.9121 441.612 56.2211 441.612C48.399 441.612 47.9976 442.014 47.3207 450.438C46.6438 458.16 47.2204 459.337 51.6328 459.337C56.0452 459.337 56.5219 458.359 55.2433 453.169ZM61.0343 420.853C61.0343 419.098 59.7561 416.542 58.1767 414.988C54.0651 410.776 57.1232 409.296 64.2683 411.954C69.5582 414.009 70.4358 413.709 70.4358 409.898C70.4358 404.809 56.2209 401.474 53.3879 405.886C51.1316 409.196 51.0314 420.277 53.1875 422.333C55.8449 425.066 61.0343 424.087 61.0343 420.853ZM76.6032 344.765C75.0238 338.597 80.3139 336.04 83.548 341.43C84.7263 343.21 85.9045 343.21 87.86 341.23C89.8156 339.174 89.4394 337.72 86.0047 335.163C78.9598 329.973 72.9679 331.051 70.4358 337.82C66.9008 347.122 67.578 350.631 73.0685 350.631C77.18 350.631 77.7815 349.653 76.6032 344.765ZM106.663 281.211C107.34 279.456 106.663 276.799 105.184 275.344C103.229 273.364 103.93 272.687 107.641 272.687C110.399 272.687 113.432 273.764 114.209 275.043C115.764 277.575 120.076 276.121 120.076 273.087C120.076 271.132 105.886 262.308 105.008 263.586C97.2613 275.144 96.284 277.876 98.9164 281.11C102.451 285.422 105.008 285.423 106.663 281.211ZM146.726 213.921C146.024 207.954 151.138 207.177 155.626 212.567C157.782 215.199 159.361 215.5 161.217 213.545C163.072 211.589 161.894 209.334 156.804 205.222C149.759 199.631 149.759 199.631 143.391 207.178C138.778 212.743 137.7 215.6 139.58 217.857C143.09 222.144 147.302 219.913 146.726 213.921ZM173.151 185.04C171.396 179.55 177.187 178.873 181.474 184.063C184.608 187.773 188.644 188.85 188.644 185.816C188.543 184.838 185.987 180.929 182.853 177.018C177.187 169.847 177.187 169.848 169.34 177.795C161.894 185.341 161.793 185.916 166.005 188.95C171.496 192.961 175.131 191.007 173.151 185.04ZM228.882 834.92C228.782 832.864 229.96 830.106 231.439 828.652C235.15 824.917 231.54 820.429 226.25 822.084C220.96 823.764 219.782 818.073 224.671 814.538C226.626 812.983 229.66 814.262 233.972 818.373C240.44 824.44 240.44 824.44 234.749 831.485C230.938 836.199 228.983 837.352 228.882 834.92ZM470.488 794.556C471.265 791.423 472.644 784.578 473.421 779.188C474.976 769.41 474.976 769.411 464.597 771.842C456.775 773.622 453.039 776.054 449.729 781.545C445.217 788.99 445.217 788.991 443.838 778.01C443.061 771.943 441.005 765.274 439.25 763.218C434.537 757.552 438.373 755.396 445.794 759.608C451.485 762.942 453.34 762.942 462.365 759.908L472.544 756.574L462.641 746.395C454.217 737.771 453.34 736.092 457.075 735.314C459.507 734.838 463.82 735.816 466.653 737.671C469.511 739.426 473.622 741.206 475.778 741.482C477.834 741.783 480.265 743.162 481.168 744.415C485.179 750.507 491.823 751.761 503.381 748.627C524.641 743.061 529.154 752.663 508.771 760.084C495.459 764.898 486.533 773.221 491.447 776.255C493.703 777.634 493.403 778.511 490.269 779.689C488.012 780.567 484.578 784.277 482.622 788.013C480.767 791.723 476.957 795.935 474.099 797.414C469.611 799.846 469.209 799.571 470.488 794.556ZM382.34 777.333C259.444 734.036 179.142 621.118 179.142 491.854C179.242 347.698 284.99 223.323 428.971 198.252C455.019 193.664 505.938 193.764 532.663 198.351C632.67 215.5 722.749 288.255 760.355 382.069C775.147 419.098 780.236 446.802 780.336 491.277C780.637 558.842 766.347 606.627 729.518 661.858C716.682 681.162 669.975 729.147 656.939 736.493C649.493 740.705 649.317 740.705 649.317 736.192C649.317 733.459 654.306 727.868 661.752 722.202C679.853 708.388 713.147 674.117 713.147 669.404C713.147 668.827 651.749 668.626 576.637 668.927C501.626 669.203 396.831 669.604 343.756 669.604H247.284L252.675 677.351C260.221 688.206 287.648 714.355 304.295 726.615C328.388 744.239 355.89 758.83 382.641 768.232C406.533 776.555 413.102 781.244 402.221 782.322C399.764 782.623 390.764 780.366 382.34 777.333ZM424.835 654.337C424.835 649.724 425.913 646.013 427.191 646.013C428.57 646.013 429.648 643.856 429.648 641.199C429.648 638.566 431.202 635.809 433.183 635.032C435.815 634.054 436.693 629.642 436.693 616.83C436.593 604.095 436.016 600.861 434.06 603.493C432.005 606.351 431.804 606.151 433.183 602.315C435.239 596.248 438.548 572.756 437.37 572.756C436.894 572.756 426.815 592.537 414.957 616.63C403.198 640.723 393.12 660.003 392.619 659.426C392.143 658.925 401.92 637.489 414.28 611.642C445.994 545.831 442.584 543.474 404.978 605.273C388.231 632.876 374.016 655.014 373.54 654.537C373.038 654.036 386.953 630.243 404.477 601.637C428.069 563.354 436.693 547.185 437.571 540.039C438.273 534.649 438.448 530.237 438.072 530.237C436.317 530.237 340.221 633.578 326.031 650.701C323.298 654.036 321.042 655.791 321.042 654.813C320.942 652.958 369.503 598.504 415.257 549.441C428.67 534.95 438.272 523.091 436.693 523.091C434.336 523.091 434.437 522.415 436.693 519.582C442.66 512.337 435.314 516.549 408.589 535.452C375.496 558.943 307.529 606.626 291.96 617.306C285.793 621.518 280.779 624.452 280.779 623.875C280.779 623.274 296.448 611.717 315.652 598.128C334.756 584.59 368.726 560.522 391.064 544.752C413.377 528.983 433.258 515.471 435.314 514.568C444.139 511.259 436.016 483.23 426.113 482.754C422.202 482.553 422.403 482.176 427.291 480.596C430.526 479.619 431.604 478.641 429.648 478.44C426.514 478.24 426.514 477.865 429.548 475.984C434.161 473.051 442.86 475.808 303.794 436.824C291.083 433.188 281.079 429.879 281.681 429.378C282.558 428.4 344.734 445.146 402.522 461.793C415.734 465.704 428.068 468.738 429.949 468.638C433.659 468.563 389.008 450.337 334.555 429.679C314.097 421.932 298.228 415.364 299.306 414.988C301.161 414.286 356.392 434.868 405.455 454.347C418.767 459.738 430.049 464.05 430.325 464.05C430.726 464.05 431.202 461.016 431.503 457.281C431.904 451.715 430.927 450.136 425.913 448.857C422.503 447.98 405.756 438.578 388.708 427.823C323.574 386.883 280.979 359.154 281.757 358.377C282.258 357.876 311.841 376.103 347.567 398.817C416.511 442.49 427.291 448.858 427.291 445.624C427.291 444.571 422.403 440.159 416.511 435.947C405.455 427.899 334.254 371.415 328.087 365.724C326.232 363.969 325.254 362.489 326.031 362.489C326.808 362.489 348.068 378.936 373.239 399.017C398.41 419.199 419.745 435.645 420.723 435.645C425.537 435.846 419.57 428.977 382.34 392.073C360.303 370.137 342.201 351.609 342.201 351.032C342.201 350.355 345.034 352.411 348.369 355.545C354.536 361.311 354.537 361.31 347.868 348.775C342.478 338.998 340.046 336.642 336.41 337.519C326.808 339.876 304.972 335.94 298.228 330.575C292.436 325.962 292.06 324.682 294.693 321.348C296.448 319.292 300.484 317.538 303.517 317.538C306.651 317.538 309.184 316.46 309.184 315.181C309.184 313.928 310.763 312.849 312.819 312.849C314.874 312.849 315.852 311.772 315.075 310.493C314.273 309.214 314.674 308.136 316.053 308.136C317.507 308.136 318.585 309.214 318.585 310.493C318.585 311.772 321.518 312.95 325.053 312.95C328.689 312.95 333.477 314.403 335.834 316.259C339.745 319.217 349.347 318.817 349.347 315.683C349.347 314.906 346.99 311.871 344.157 308.813C341.299 305.879 340.221 303.348 341.801 303.348C343.355 303.348 344.533 304.225 344.533 305.203C344.533 306.181 347.291 309.891 350.625 313.426C355.414 318.616 358.648 319.894 367.272 319.894C375.094 319.894 377.551 319.117 376.273 316.961C374.894 314.604 375.194 314.604 377.752 316.961C380.785 319.794 398.887 321.273 398.887 318.716C398.887 318.039 393.12 305.78 385.875 291.489C378.729 277.3 373.716 265.642 374.693 265.642C375.696 265.742 382.039 277.576 388.908 291.991C402.622 320.772 399.764 318.716 420.146 314.003C422.102 313.627 426.514 313.126 430.049 313.025C435.239 312.85 436.116 311.947 435.239 307.559C434.236 302.27 434.236 302.27 436.693 307.661C440.328 316.084 451.585 314.003 453.54 304.527C455.02 297.958 455.12 297.858 455.596 303.348C456.098 309.014 456.273 308.914 457.953 302.17C459.031 298.259 459.908 290.712 460.109 285.422C460.685 262.407 471.667 252.404 489.667 258.396C499.37 261.63 502.904 269.653 502.904 288.757C502.904 304.601 504.459 303.825 507.317 286.702C509.548 273.865 509.548 273.966 509.172 292.769C508.771 310.97 509.072 311.671 514.462 312.448C517.495 312.85 521.006 311.772 522.084 310.092C523.362 308.036 524.064 307.936 524.14 309.616C524.14 311.17 527.373 313.526 531.209 314.805C539.533 317.738 539.733 317.437 547.756 293.144C550.589 284.344 553.422 277.576 554.023 278.077C554.6 278.654 551.868 287.879 548.132 298.534C543.544 311.371 542.165 318.215 543.92 318.716C556.656 322.427 556.18 322.929 569.191 294.724C576.061 279.832 582.529 267.197 583.607 266.52C584.66 265.843 579.671 277.776 572.526 292.969C565.481 308.137 559.589 320.872 559.589 321.348C559.589 324.582 579.57 321.649 582.428 318.139C585.462 314.203 585.562 314.203 584.183 318.139C582.905 321.649 584.184 322.251 592.206 322.251C600.53 322.251 602.886 320.972 610.232 312.448C614.845 306.958 618.656 303.623 618.656 304.902C618.656 306.28 616.5 309.314 613.943 311.671C604.466 320.27 609.154 321.448 631.668 316.259C635.604 315.281 640.893 312.85 643.426 310.794C647.337 307.56 647.638 307.56 645.281 310.594C642.949 313.728 644.127 314.705 652.927 317.337C678.299 324.783 668.12 338.196 635.98 339.475C621.89 340.076 619.934 340.754 618.756 345.266C616.8 353.289 602.686 371.791 596.819 374.147C589.373 377.08 535.22 432.211 536.298 435.645C536.775 437.125 554.124 425.066 574.982 408.419C628.934 365.623 631.968 363.367 628.834 367.278C627.38 369.158 605.92 386.682 581.35 406.162C543.343 436.221 536.599 442.589 536.599 447.879C536.674 454.047 536.675 454.048 549.912 447.705C571.648 437.225 611.887 416.742 625.4 409.296C632.269 405.385 638.437 402.754 639.113 403.43C640.192 404.508 553.422 450.237 541.965 454.549C538.655 455.828 535.998 457.983 535.998 459.236C535.998 460.716 537.953 460.816 541.288 459.637C544.221 458.459 571.949 447.78 602.986 435.947C634.024 423.988 659.797 414.586 660.273 415.087C661.15 415.965 636.581 425.843 573.203 449.936C539.332 462.872 527.474 468.738 541.865 465.504C545.801 464.627 578.016 455.927 613.566 446.124C649.016 436.221 678.6 428.7 679.076 429.277C679.678 429.778 670.276 433.013 658.217 436.222C576.161 458.761 539.232 469.641 537.176 471.772C535.521 473.451 536.674 473.753 540.711 472.85C560.09 468.563 643.225 454.549 645.281 455.226C646.66 455.727 625.024 460.139 597.195 464.927C545.299 474.028 530.231 477.865 544.622 478.14C552.444 478.241 630.514 472.474 655.284 469.816C663.106 468.939 668.897 468.939 668.12 469.717C666.641 471.296 564.102 480.697 548.433 480.697C542.867 480.697 538.354 481.775 538.354 483.054C538.354 484.508 552.269 485.587 574.381 485.888L610.432 486.364L573.804 487.641C533.165 489.12 534.619 489.899 587.994 496.467C606.797 498.724 620.411 500.979 618.255 501.355C616.099 501.856 597.02 499.976 575.96 497.243C517.696 489.697 522.685 492.831 595.541 509.378C619.934 514.868 639.314 519.858 638.837 520.36C637.759 521.438 616.299 516.924 571.748 506.244C555.678 502.433 540.787 499.701 538.731 500.077C536.6 500.478 560.091 509.303 591.128 519.682C622.09 529.961 646.459 538.761 645.381 539.062C644.303 539.463 619.633 531.816 590.451 522.014C561.369 512.337 536.975 504.79 536.499 505.367C535.321 506.545 553.923 515.371 619.232 544.453C643.626 555.233 663.206 564.533 662.73 565.009C662.228 565.511 634.325 553.553 600.73 538.586C567.035 523.594 538.555 511.735 537.276 512.137C535.321 512.713 616.098 560.797 636.882 571.277C640.993 573.433 645.205 576.367 646.083 577.947C647.06 579.501 644.202 578.624 639.815 575.991C635.302 573.334 621.589 565.511 609.254 558.541C596.919 551.596 576.161 539.738 563.325 532.217C540.009 518.604 535.897 516.824 536.098 520.259C536.198 521.738 582.604 554.932 667.919 614.775C673.986 618.987 678.098 622.396 677.02 622.396C675.265 622.396 624.422 587.448 569.091 548.062C536.976 525.248 535.998 524.571 535.998 527.504C535.998 528.783 557.157 548.162 583.005 570.801C608.853 593.314 629.611 612.218 629.235 612.619C628.734 613.096 608.076 595.772 583.105 574.111C541.288 537.683 530.407 529.761 538.731 541.72C540.611 544.352 564.202 570.5 591.228 599.983C618.255 629.366 640.016 653.835 639.615 654.236C639.113 654.712 615.422 629.742 587.017 598.805C553.422 562.277 534.042 542.972 531.886 543.775C529.329 544.752 529.83 546.507 534.343 551.296C537.477 554.63 551.566 572.857 565.581 591.76C579.57 610.563 594.262 629.943 598.198 634.832C602.109 639.745 604.842 644.133 604.265 644.634C603.763 645.135 586.816 623.775 566.659 597.125C521.908 537.883 517.295 539.061 554.4 600.184C580.849 643.656 587.894 656.092 583.883 651.98C582.604 650.702 571.347 632.6 558.912 611.816C546.377 590.957 534.519 571.879 532.563 569.222C529.154 564.634 529.053 564.71 528.953 570.501C528.852 573.735 538.154 595.771 549.411 619.462L570.069 662.559H719.816L726.961 651.404C771.537 581.757 784.548 494.887 762.411 414.585C733.429 309.515 642.347 227.435 531.209 206.2C507.593 201.687 448.928 202.364 424.935 207.378C306.351 232.348 217.726 319.392 193.032 435.544C186.087 468.061 186.187 517.901 193.132 551.496C199.399 581.455 214.868 620.742 229.86 644.834L240.941 662.559H424.935V654.337H424.835ZM413.302 657.846C413.201 655.89 414.18 652.657 415.433 650.701C418.191 646.389 418.191 650.224 415.433 656.667C414.079 659.726 413.377 660.202 413.302 657.846ZM355.514 643.656C365.016 629.742 430.726 544.05 433.76 541.619C438.373 537.883 364.715 635.809 357.871 642.478C355.213 645.135 354.135 645.612 355.514 643.656ZM418.291 643.656C418.868 641.701 421.801 632.876 424.759 623.976C427.692 615.152 430.525 608.306 431.027 608.883C432.18 609.961 420.823 643.857 418.567 645.812C417.69 646.589 417.589 645.612 418.291 643.656ZM330.343 612.117C330.343 610.262 432.18 522.616 433.258 523.694C433.76 524.271 413.302 542.697 387.73 564.634C337.188 608.207 330.343 613.872 330.343 612.117ZM313.797 576.969C314.875 575.891 416.912 517.902 429.047 511.635C431.905 510.08 434.337 509.304 434.337 509.98C434.337 511.359 323.975 574.11 317.407 576.567C314.775 577.444 313.195 577.645 313.797 577.068V576.969ZM283.913 570.4C294.894 563.355 435.414 501.957 430.826 506.169C428.67 508.124 291.559 569.221 283.135 571.979C281.18 572.656 281.481 571.879 283.913 570.4ZM670.652 569.222C667.318 567.366 665.763 565.887 667.042 565.887C668.396 565.887 672.131 567.366 675.365 569.222C678.599 571.077 680.154 572.657 678.876 572.657C677.622 572.657 673.886 571.077 670.652 569.222ZM338.266 529.861C388.808 513.013 430.626 499.8 431.203 500.377C432.381 501.555 252.198 561.098 248.663 560.697C247.485 560.597 287.849 546.708 338.266 529.861ZM698.957 558.065C694.444 556.686 691.812 555.232 693.19 554.731C694.544 554.254 699.835 555.308 705.024 557.188C715.704 561.099 711.392 561.776 698.957 558.065ZM676.543 550.419C672.607 548.664 671.053 547.084 673.009 547.084C674.964 546.984 679.677 548.463 683.588 550.218C687.499 551.998 689.079 553.553 687.099 553.553C685.243 553.653 680.454 552.174 676.543 550.419ZM655.284 543.273C648.139 539.838 648.139 539.84 655.284 541.319C659.195 542.096 663.908 543.575 665.863 544.653C672.231 548.163 663.206 546.984 655.284 543.173V543.273ZM269.146 531.715C270.123 530.838 350.425 511.935 402.221 500.478C416.436 497.344 428.469 495.188 428.971 495.765C430.224 497.044 425.637 498.322 398.887 504.013C386.552 506.645 353.058 514.091 324.552 520.66C274.712 532.117 266.989 533.671 269.146 531.715ZM662.329 526.627C650.671 523.494 645.281 521.537 650.471 522.214C662.329 523.693 694.745 532.218 688.377 532.118C685.745 532.118 674.087 529.661 662.329 526.627ZM220.258 509.578C224.57 494.786 224.37 493.809 215.369 487.742L206.545 481.776L218.102 480.596C228.406 479.518 229.76 478.741 232.116 471.972C236.027 460.515 237.607 460.315 240.841 470.895C243.674 480.397 243.874 480.597 254.554 480.697L265.41 480.798L257.187 487.542C249.164 494.211 248.964 494.611 251.496 504.013C254.555 515.169 254.254 515.369 245.053 508.801C237.882 503.711 231.339 504.188 226.35 510.28C222.414 514.969 218.704 514.567 220.258 509.578ZM706.98 509.879C711.693 497.745 711.191 495.088 703.369 487.943L695.422 480.798L705.525 480.697C715.228 480.597 715.905 480.096 719.916 470.694L724.128 460.817L728.039 470.694C731.875 480.096 732.451 480.597 742.053 480.697H752.132L744.009 487.441C736.086 494.11 735.886 494.511 738.619 503.211C742.053 514.493 741.076 515.571 733.028 509.203C725.306 503.111 723.05 503.111 715.504 509.003C708.358 514.568 705.024 514.969 706.98 509.879ZM299.682 505.166C307.228 503.311 382.54 494.786 388.708 495.087C397.131 495.388 312.819 506.344 303.217 506.169C299.306 506.169 297.727 505.668 299.682 505.166ZM632.846 504.189C622.191 502.534 622.19 502.534 631.592 502.434C636.882 502.233 645.883 503.036 651.749 504.114C662.329 505.969 662.329 505.968 652.927 505.968C647.738 505.968 638.637 505.166 632.846 504.189ZM396.731 493.909C397.332 493.433 405.154 492.456 414.28 491.653C424.659 490.876 428.169 491.077 423.681 492.356C416.511 494.311 394.875 495.589 396.731 493.909ZM286.069 488.344C296.172 487.842 312.618 487.842 322.697 488.344C332.8 488.72 324.552 489.121 304.395 489.121C284.213 489.121 275.99 488.72 286.069 488.344ZM642.748 488.344C651.473 487.842 666.34 487.842 675.842 488.344C685.344 488.72 678.199 489.121 659.972 489.121C641.771 489.121 634.024 488.72 642.748 488.344ZM365.216 485.888C377.25 485.487 396.931 485.487 408.889 485.888C420.923 486.364 411.146 486.663 387.053 486.663C363.06 486.663 353.157 486.364 365.216 485.888ZM377.651 478.24L362.258 476.687L377.651 476.586C386.075 476.485 399.388 477.163 407.11 478.14L421.325 479.92L407.11 479.82C399.388 479.82 386.075 479.117 377.651 478.24ZM341.6 474.128C345.912 473.652 352.28 473.653 355.815 474.229C359.325 474.731 355.89 475.106 348.068 475.106C340.321 475.106 337.388 474.73 341.6 474.128ZM401.243 472.375C392.819 470.695 377.927 468.061 368.15 466.407C358.447 464.727 351.703 462.872 353.258 462.37C356.191 461.392 422.779 472.95 424.659 474.831C426.313 476.585 417.589 475.609 401.243 472.375ZM297.25 471.195C293.915 470.117 300.183 469.816 311.44 470.518C322.496 471.195 331.998 472.173 332.499 472.674C334.455 474.329 303.116 472.95 297.25 471.195ZM311.44 456.103C296.548 453.37 286.369 450.838 289.027 450.537C291.659 450.136 306.551 452.392 322.12 455.526C337.689 458.659 347.768 461.218 344.533 461.218C341.299 461.218 326.432 458.961 311.44 456.103ZM370.105 430.356C339.344 414.486 314.473 401.174 314.875 400.772C315.752 399.895 411.046 447.304 422.879 454.549C442.484 466.508 421.525 456.905 370.105 430.356ZM655.284 452.292C659.195 451.214 664.986 450.438 668.22 450.438C673.485 450.438 673.41 450.638 667.042 452.292C663.206 453.27 657.34 454.047 654.106 454.047C648.816 454.047 648.916 453.872 655.284 452.292ZM275.413 448.282C277.068 447.705 279.7 447.705 281.38 448.282C282.935 448.959 281.581 449.559 278.347 449.559C275.112 449.559 273.834 448.959 275.413 448.282ZM681.232 447.504C685.143 446.527 691.034 445.723 694.268 445.723C699.558 445.723 699.358 445.925 693.09 447.504C689.154 448.482 683.288 449.359 680.054 449.359C674.764 449.359 674.964 449.159 681.232 447.504ZM263.655 445.924C265.21 445.347 267.867 445.347 269.522 445.924C271.202 446.626 269.823 447.203 266.589 447.203C263.354 447.203 261.975 446.626 263.655 445.924ZM541.388 444.47C558.812 432.912 661.853 367.102 669.374 362.59C691.21 349.653 671.153 363.869 629.235 390.895C559.89 435.646 540.987 447.504 538.931 447.403C537.953 447.303 539.031 446.024 541.388 444.47ZM259.443 423.987C252.298 421.63 247.585 419.576 248.864 419.5C250.142 419.3 257.588 421.255 265.41 423.687C273.157 426.144 277.946 428.199 275.99 428.299C274.035 428.299 266.588 426.344 259.443 423.987ZM685.945 426.244C688.577 425.166 692.288 424.187 694.268 424.187C696.5 424.187 696.023 424.965 693.09 426.244C690.433 427.422 686.722 428.299 684.767 428.299C682.51 428.299 682.987 427.523 685.945 426.244ZM702.492 421.555C705.124 420.477 708.86 419.5 710.815 419.5C712.971 419.5 712.57 420.277 709.637 421.555C706.979 422.634 703.269 423.612 701.313 423.612C699.057 423.612 699.558 422.809 702.492 421.555ZM642.247 401.475C642.247 400.096 669.774 386.08 672.332 386.181C673.986 386.181 644.704 402.653 642.949 402.653C642.648 402.653 642.247 402.152 642.247 401.475ZM414.556 306.857C412.224 300.89 412.901 299.413 415.734 304.126C417.113 306.583 417.689 309.014 417.113 309.616C416.511 310.193 415.358 308.913 414.556 306.857ZM451.384 289.232C451.384 284.645 451.886 282.764 452.462 285.121C453.039 287.377 453.039 291.088 452.462 293.344C451.986 295.6 451.384 293.745 451.384 289.232ZM407.411 287.955C405.154 281.988 405.856 280.534 408.589 285.222C409.968 287.679 410.644 290.11 410.068 290.712C409.366 291.289 408.288 290.011 407.411 287.955ZM401.544 272.385C400.065 268.273 399.288 264.464 399.764 263.862C400.266 263.386 401.92 266.418 403.399 270.63C404.778 274.742 405.555 278.554 405.054 279.055C404.578 279.531 402.998 276.597 401.544 272.385ZM447.373 263.184C446.395 255.262 446.195 248.293 446.772 247.616C447.373 247.039 448.652 253.106 449.529 261.028C450.406 268.975 450.708 276.021 450.106 276.598C449.529 277.199 448.25 271.207 447.373 263.184ZM555.001 273.865C555.302 269.352 559.213 261.806 559.414 265.642C559.414 267.497 558.436 270.731 557.157 272.687C555.979 274.642 555.001 275.143 555.001 273.865ZM509.949 261.805C509.949 256.716 510.927 251.15 512.105 249.27C513.384 247.315 513.66 250.549 512.883 257.594C511.429 272.01 509.949 274.065 509.949 261.805ZM564.503 657.27C563.325 654.337 554.901 636.512 545.8 617.709C529.153 583.437 529.153 583.436 528.953 594.392C528.953 601.537 532.187 614.674 538.254 631.597C543.343 646.012 547.054 657.846 546.377 657.846C545.8 657.846 544.221 655.415 543.043 652.456C541.188 647.668 540.887 647.868 540.787 654.813C540.711 662.56 540.711 662.559 553.623 662.559C566.058 662.559 566.458 662.36 564.503 657.27ZM535.12 630.143C530.031 614.374 530.031 614.373 529.253 623.574C528.852 628.764 529.63 633.276 531.009 633.753C532.387 634.254 533.541 637.188 533.541 640.322C533.541 643.656 534.92 646.013 536.875 646.013C539.633 646.013 539.232 642.979 535.12 630.143ZM443.161 561.675C442.76 547.585 442.384 558.441 442.384 585.768C442.384 612.994 442.76 624.553 443.161 611.241C443.637 598.028 443.637 575.689 443.161 561.675ZM450.407 566.288C449.905 498.422 449.028 506.169 447.95 589.879C447.574 614.273 448.15 634.154 449.128 634.154C450.106 634.154 450.607 603.593 450.407 566.288ZM460.209 576.868C460.109 545.43 459.131 515.371 458.153 510.181C456.774 503.813 456.097 515.37 455.897 545.831C455.696 570.601 454.919 600.661 454.042 612.619C452.763 631.698 452.964 634.154 456.374 634.154C459.908 634.154 460.309 628.564 460.209 576.868ZM467.454 571.779C467.454 532.593 466.577 508.702 465.098 507.824C463.518 506.847 462.641 528.18 462.641 570.299C462.641 611.34 463.518 634.154 465.098 634.154C466.577 634.154 467.454 611.816 467.454 571.779ZM479.188 574.21C479.188 513.113 479.012 511.359 470.789 511.359C470.187 511.359 469.786 538.961 469.786 572.756C469.786 632.6 469.886 634.154 474.499 634.154C479.112 634.154 479.188 632.6 479.188 574.21ZM488.113 575.89C487.611 531.816 486.734 517.426 484.578 516.649C482.246 515.847 481.544 528.582 481.544 574.912C481.544 626.332 482.046 634.154 485.179 634.154C488.313 634.154 488.689 626.708 488.113 575.89ZM497.815 604.095C497.715 587.548 496.737 561.676 495.859 546.809C494.48 523.594 494.18 528.106 493.779 576.868C493.503 613.797 494.28 634.154 495.759 634.154C497.213 634.154 497.99 622.797 497.815 604.095ZM507.016 579.5C506.515 538.184 505.637 524.47 503.481 523.793C501.125 522.991 500.448 534.95 500.448 578.423C500.448 626.709 500.949 634.154 504.083 634.154C507.216 634.154 507.593 627.109 507.016 579.5ZM516.994 584.891C516.994 541.619 516.518 535.151 513.083 532.318C509.548 529.36 509.273 529.66 510.727 534.95C511.529 538.184 512.306 561.876 512.306 587.549C512.306 617.007 513.183 634.154 514.662 634.154C516.217 634.154 516.994 616.129 516.994 584.891ZM521.507 538.661C519.451 536.806 519.15 541.72 520.228 558.367C521.106 570.601 521.983 592.913 522.284 608.006C522.685 624.176 523.162 616.129 523.563 588.326C524.064 555.032 523.362 540.441 521.507 538.661ZM530.507 520.259C530.031 515.947 529.63 518.88 529.53 526.727C529.53 534.449 530.031 537.983 530.507 534.373C531.109 530.838 531.109 524.471 530.507 520.259ZM524.14 526.727C524.14 518.779 523.964 518.604 518.173 521.237C512.206 523.969 512.206 523.969 517.395 529.46C524.064 536.505 524.14 536.504 524.14 526.727ZM503.882 497.921C500.548 495.489 500.147 492.731 501.626 481.475C502.503 474.029 502.503 451.891 501.626 432.311C499.971 396.761 499.971 396.761 492.625 391.972C488.589 389.415 485.455 386.181 485.656 384.927C486.258 380.615 480.366 379.337 465.575 380.716L450.908 381.969V419.5C450.908 456.805 450.908 456.905 444.916 460.716C439.927 464.05 439.049 466.407 439.049 476.786C439.15 488.92 439.15 488.921 460.385 500.278C472.043 506.545 487.235 513.514 493.979 515.846C506.415 520.058 506.414 520.058 507.116 510.456C507.693 503.512 506.815 500.077 503.882 497.921ZM488.213 490.676C478.511 479.619 455.797 432.311 458.73 429.378C459.407 428.801 464.596 438.378 470.488 450.738C476.355 463.072 484.478 478.04 488.589 484.032C495.76 494.411 495.458 498.999 488.113 490.676H488.213ZM488.79 456.404C478.611 446.125 469.611 433.012 460.485 414.786C449.73 393.351 452.964 394.429 465.775 416.541C471.842 426.92 481.645 441.337 487.612 448.758C499.871 463.75 500.548 468.262 488.79 456.404ZM478.411 395.683C464.521 387.46 460.309 383.749 465.198 383.749C468.633 383.749 493.403 399.418 493.403 401.574C493.403 403.73 489.667 402.252 478.411 395.683ZM524.741 511.534C533.641 503.511 533.265 502.634 519.928 500.478C509.95 498.899 509.949 498.899 509.949 508.701C509.949 520.56 513.66 521.336 524.741 511.534ZM532.764 469.441C529.329 404.809 528.451 342.207 530.808 336.44C533.064 331.05 533.265 331.452 533.465 340.653C533.54 346.143 534.343 350.631 535.321 350.631C536.198 350.631 541.087 346.62 546.177 341.831C552.545 335.764 554.6 334.585 552.745 338.195C551.266 341.053 546.276 346.419 541.789 350.054C535.997 354.667 533.541 358.479 533.541 363.092C533.541 369.535 533.741 369.635 540.109 366.225C548.232 361.913 579.871 330.073 577.916 328.118C577.139 327.24 569.693 326.161 561.369 325.66C552.945 325.184 541.588 323.129 535.998 321.174C521.006 315.884 516.016 316.46 512.983 324.107C510.451 330.575 510.451 330.575 510.25 322.929C510.049 318.416 508.671 315.181 507.016 315.181C504.659 315.181 504.258 333.985 505.261 404.408C506.414 493.634 506.414 493.634 514.261 494.311L522.084 495.087L521.607 421.63C521.306 381.292 521.607 347.597 522.384 346.921C523.061 346.244 524.44 379.739 525.318 421.456C526.897 486.765 527.574 497.144 530.708 497.144C533.741 497.144 534.042 493.233 532.764 469.441ZM443.362 451.991C439.35 449.459 436.693 451.615 436.693 457.481C436.693 462.295 436.893 462.296 441.506 458.159C445.016 454.95 445.518 453.37 443.362 451.991ZM446.772 410.976C445.217 382.17 444.44 377.757 440.805 377.081C437.094 376.404 436.693 379.237 436.693 410.374C436.693 443.392 436.894 444.571 441.983 446.802C448.927 449.936 448.928 450.437 446.772 410.976ZM433.183 403.53C434.236 384.426 433.96 371.992 432.581 371.114C431.303 370.337 429.748 379.813 428.871 394.805C426.715 429.177 426.915 439.456 429.347 436.824C430.526 435.545 432.28 420.553 433.183 403.53ZM564.302 401.475C591.429 374.248 591.429 374.248 582.805 374.248C574.782 374.248 572.927 375.802 556.957 395.483C547.555 407.14 539.332 416.265 538.831 415.764C538.254 415.287 544.998 406.162 553.723 395.582C562.447 385.103 569.191 376.003 568.715 375.627C568.213 375.025 564.979 375.225 561.469 375.902C551.366 377.858 536.298 402.828 536.298 417.419C536.298 423.612 536.499 428.6 536.775 428.6C536.976 428.6 549.411 416.367 564.302 401.475ZM420.924 418.221C419.846 416.266 410.745 405.185 400.666 393.527C384.019 374.248 381.563 372.392 372.738 371.489C363.061 370.612 363.06 370.613 392.242 398.141C418.291 422.81 426.815 428.801 420.924 418.221ZM413.001 390.693C402.12 374.147 399.864 371.89 393.597 371.89C385.474 371.89 384.02 369.358 408.388 398.716C427.693 422.232 430.525 417.343 413.001 390.693ZM543.043 391.972C549.712 382.27 549.912 381.393 545.7 381.393C538.931 381.393 533.541 387.761 533.541 395.683C533.541 404.884 534.444 404.508 543.043 391.972ZM422.403 385.705C419.745 379.437 409.366 372.493 406.733 375.125C406.132 375.702 409.767 381.795 414.656 388.739C424.158 401.951 428.369 400.296 422.403 385.705ZM500.548 391.195C500.548 389.315 490.269 383.749 486.834 383.749C485.38 383.749 498.392 393.151 499.971 393.151C500.247 393.151 500.448 392.273 500.448 391.195H500.548ZM500.548 378.761C500.548 374.724 499.47 374.047 495.158 375.125C492.224 375.902 488.313 376.604 486.358 376.68C484.202 376.78 485.18 378.159 488.69 380.214C497.013 384.928 500.548 384.527 500.548 378.761ZM488.113 363.466C500.548 354.165 500.548 354.165 500.548 334.284C500.548 313.225 498.091 309.516 496.913 328.619C496.136 340.954 493.703 342.808 477.733 343.285C471.065 343.485 469.886 342.407 465.399 331.928C462.541 325.485 460.309 319.017 460.309 317.538C460.309 315.582 456.775 315.182 449.128 316.084C442.961 316.761 431.804 318.04 424.258 318.817C416.812 319.594 410.745 321.073 410.745 322.151C410.745 323.129 407.812 324.106 404.176 324.206C383.318 324.883 359.024 324.483 353.458 323.33C349.823 322.527 346.89 322.828 346.89 324.006C346.89 325.084 352.18 334.385 358.648 344.664C365.116 354.842 370.682 364.144 371.083 365.323C371.484 366.501 377.827 367.203 385.273 366.701L398.711 366.025L383.418 353.087C368.05 340.076 362.083 331.552 375.395 341.631C392.243 354.367 419.068 371.89 421.901 371.89C427.793 371.89 424.559 365.923 414.656 358.377C404.076 350.455 387.329 329.397 391.641 329.397C393.02 329.397 395.477 331.552 397.131 334.185C399.864 338.698 419.168 354.944 436.016 367.203C451.986 378.761 469.209 377.481 488.113 363.466ZM446.094 355.545C441.582 353.088 433.083 346.719 427.191 341.329L416.612 331.553L431.102 341.831C452.162 356.899 458.73 359.155 471.265 355.82C484.879 352.11 489.291 352.612 480.466 356.623C470.488 361.211 455.997 360.734 446.094 355.545ZM449.329 347.698C443.061 340.753 439.827 335.163 443.362 337.319C446.195 339.074 456.574 352.988 455.019 352.988C454.518 352.988 451.886 350.631 449.329 347.698ZM455.696 342.133C451.685 338.698 446.696 332.63 444.64 328.518C441.306 322.151 442.284 322.628 451.284 332.33C457.176 338.498 463.619 343.586 465.675 343.586C467.831 343.586 470.187 344.664 470.965 345.943C473.998 350.832 462.741 347.999 455.696 342.133ZM565.857 363.167C590.853 344.965 592.106 344.363 579.771 357.3L568.013 369.534H581.15C594.362 369.534 594.362 369.534 604.365 348.099C609.831 336.24 613.867 326.162 613.266 325.561C611.41 323.705 580.849 327.541 580.849 329.597C580.849 333.308 558.912 356.522 546.778 365.622C531.009 377.681 531.009 377.582 541.388 375.902C546.778 375.125 556.456 370.036 565.857 363.167ZM499.67 368.456C502.303 361.512 499.169 360.635 492.224 366.225C485.18 371.891 485.18 371.89 491.723 371.89C495.358 371.89 498.893 370.337 499.67 368.456ZM363.16 359.557C356.592 347.022 348.846 336.139 347.567 337.418C346.79 338.195 350.124 344.664 355.113 351.809C364.314 365.222 368.15 368.858 363.16 359.557ZM610.332 352.21C616.7 341.33 617.778 337.619 613.943 340.076C611.887 341.229 602.109 359.356 602.109 361.713C602.109 364.546 605.142 361.01 610.332 352.21ZM493.202 326.939C494.681 320.371 495.759 314.605 495.759 314.204C495.759 313.828 491.147 313.928 485.456 314.604C479.288 315.281 474.499 314.704 473.522 313.125C472.343 311.27 470.789 311.27 467.655 313.226C464.02 315.482 463.719 317.062 465.775 323.806C468.031 331.151 468.909 331.753 478.411 331.753C491.046 331.753 492.024 335.764 479.789 337.017C470.964 338.02 470.964 338.02 480.867 338.396C490.645 338.797 490.645 338.797 493.202 326.838V326.939ZM645.782 334.084C650.871 332.805 651.548 332.129 648.239 331.828C643.927 331.553 644.127 331.252 649.217 329.196C653.428 327.441 654.206 326.162 652.25 324.206C650.295 322.251 648.715 322.251 646.283 324.407C644.403 325.861 641.269 326.538 639.314 325.761C637.258 324.984 635.002 325.485 634.124 326.838C633.247 328.318 631.392 329.397 630.013 329.397C624.823 329.397 633.046 322.828 640.592 321.073C648.239 319.217 648.239 319.217 641.57 318.214C633.748 317.061 617.778 324.683 616.7 330.073C615.622 335.564 631.392 337.82 645.782 334.185V334.084ZM339.344 332.63C348.369 330.85 347.091 326.062 336.11 320.872C325.831 315.983 319.763 317.839 329.165 323.028C335.032 326.162 335.433 326.839 331.421 326.939C328.764 326.939 325.63 326.062 324.376 324.984C323.098 323.805 318.384 322.251 313.897 321.348C306.35 319.994 306.05 320.096 310.362 323.33C313.897 326.062 314.173 326.939 311.44 326.939C305.573 327.14 319.187 333.608 325.931 333.883C329.366 333.984 335.433 333.508 339.344 332.731V332.63ZM465.098 301.768C465.098 291.689 464.02 292.066 461.964 302.847C461.087 307.259 461.463 310.493 462.741 310.493C464.02 310.493 465.098 306.582 465.098 301.869V301.768ZM498.392 297.958C496.537 296.102 495.759 297.081 495.759 301.393C495.759 309.115 499.069 312.448 500.147 305.679C500.548 302.846 499.771 299.336 498.392 297.958ZM487.235 304.602C488.213 301.869 486.734 300.992 481.544 300.992C474.8 300.992 472.745 303.147 476.054 306.582C478.912 309.415 485.756 308.137 487.235 304.602ZM493.403 288.657C493.403 286.1 491.648 284.545 488.69 284.545C483.325 284.545 482.723 287.278 486.534 294.423C488.69 298.334 489.592 298.634 491.247 296.002C492.425 294.222 493.403 290.913 493.403 288.657ZM481.168 286.876C483.7 281.009 486.734 277.475 489.291 277.4C493.879 277.4 494.857 273.864 490.846 271.407C489.492 270.53 487.436 267.598 486.358 264.765C484.878 261.13 484.202 260.828 484.101 263.486C484.101 265.642 480.767 268.675 476.856 270.33C468.808 273.664 467.555 277.4 474.499 277.4C477.132 277.4 479.288 278.954 479.288 280.91C479.288 282.865 477.132 284.545 474.499 284.545C471.065 284.545 469.786 286.099 469.786 290.411C469.786 299.712 476.655 297.556 481.168 286.876ZM495.859 268.174C494.48 265.441 492.225 263.184 490.846 263.184C489.592 263.184 490.369 265.742 492.726 268.876C497.715 275.62 499.67 275.144 495.859 268.174ZM478.034 264.664C480.967 262.407 481.544 260.929 479.689 260.929C474.901 260.828 468.131 265.04 466.577 269.152C464.997 273.188 469.109 271.608 478.034 264.664ZM554.023 779.589C553.046 776.931 556.455 774.876 567.537 771.542C587.718 765.274 607.399 756.775 625.5 746.571C636.581 740.304 641.37 738.649 643.225 740.604C646.66 744.139 641.771 747.649 613.943 761.664C594.964 771.266 563.726 783.023 557.257 783.023C556.179 783.023 554.801 781.444 554.023 779.589ZM810.12 759.508C803.953 753.34 803.752 747.85 809.919 753.44C814.332 757.452 814.708 757.352 820.499 750.783C823.733 747.073 826.466 742.56 826.466 740.604C826.566 738.072 827.244 737.871 829.299 739.927C831.355 741.983 830.477 745.017 825.388 752.362C816.764 764.797 815.886 765.199 810.12 759.508ZM810.02 744.039C808.34 741.983 807.362 740.128 807.964 739.827C808.44 739.426 810.897 737.571 813.354 735.715C817.641 732.481 817.741 732.582 815.109 737.571C813.254 741.005 813.154 742.861 814.708 742.861C816.087 742.861 817.165 743.938 817.165 745.217C817.165 748.727 813.429 748.15 810.02 744.039ZM834.689 733.259C834.689 730.727 835.467 728.67 836.444 728.67C839.303 728.67 845.846 714.656 844.291 712.099C841.458 707.612 835.366 709.567 836.745 714.556C838.325 720.623 835.868 722.002 830.478 717.99C826.266 714.957 826.265 714.656 831.079 709.567C833.812 706.633 836.068 703.299 836.068 702.221C836.068 701.143 839.779 702.697 844.291 705.656C848.804 708.589 852.515 711.823 852.515 712.901C852.615 715.132 839.202 735.013 836.545 736.693C835.467 737.27 834.689 735.816 834.689 733.259ZM404.076 699.764C404.878 682.641 404.878 682.641 414.856 682.641C425.637 682.641 428.971 686.853 419.068 688.107C411.246 689.084 411.146 695.653 418.968 695.653C422.704 695.653 424.835 696.931 424.835 699.187C424.835 701.344 422.704 702.698 418.968 702.698C410.945 702.698 411.246 709.266 419.469 710.244C431.603 711.723 428.57 716.912 415.534 716.912H403.399L404.176 699.764H404.076ZM434.337 698.987C434.337 683.318 434.838 681.162 438.448 681.839C440.704 682.34 445.217 687.43 448.451 693.296L454.418 703.876L455.12 692.519C456.273 674.493 461.387 679.883 462.265 699.965C462.841 715.634 462.541 716.912 458.153 716.912C454.819 716.912 451.585 713.478 447.473 705.656L441.682 694.475L441.506 705.656C441.406 713.979 440.504 716.912 437.871 716.912C435.038 716.912 434.337 713.277 434.337 698.987ZM476.856 702.698C476.856 690.062 476.355 688.508 472.143 688.508C469.51 688.508 467.454 686.928 467.454 684.873C467.454 681.939 469.987 681.363 480.466 681.939C493.102 682.641 498.492 686.552 488.79 688.107C484.578 688.708 484.001 690.563 484.001 702.898C484.001 713.779 483.224 716.912 480.366 716.912C477.633 716.912 476.856 713.779 476.856 702.698ZM498.592 699.764C499.269 683.794 499.67 682.541 504.86 681.839C518.172 679.984 528.351 688.809 521.908 696.631C520.027 698.787 520.028 701.62 521.707 706.132C524.941 714.656 524.741 716.912 520.83 716.912C518.949 716.912 516.418 713.678 515.039 709.767C513.66 705.931 511.428 702.698 510.05 702.698C508.671 702.698 507.593 705.931 507.593 709.767C507.593 715.333 506.515 716.912 502.704 716.912C498.291 716.912 497.991 715.634 498.592 699.764ZM514.362 694.775C517.295 691.341 515.641 688.508 510.727 688.508C508.972 688.508 507.593 690.664 507.593 693.296C507.593 698.686 510.526 699.388 514.362 694.775ZM538.254 709.166C538.254 704.954 536.199 698.31 533.541 694.475C531.009 690.564 528.853 686.051 528.853 684.396C528.853 678.605 535.12 681.563 538.655 688.908L542.165 696.33L545.199 688.908C547.154 684.195 550.012 681.463 552.845 681.463C557.157 681.463 557.057 682.039 551.366 691.742C548.132 697.332 545.399 705.355 545.399 709.467C545.399 714.456 544.221 716.912 541.865 716.912C539.433 716.912 538.354 714.456 538.254 709.166ZM890.998 600.459C880.719 597.225 881.02 593.013 891.299 594.693C898.143 595.872 899.522 595.169 900.7 590.857C903.834 579.4 902.656 576.767 895.11 578.322C887.864 579.701 886.586 578.622 889.92 573.433C892.176 569.823 909.324 572.155 909.224 575.991C909.124 582.359 902.957 602.038 900.901 602.415C899.622 602.715 895.21 601.839 890.898 600.56L890.998 600.459ZM887.965 586.946C885.232 585.191 885.909 584.589 891.098 584.589C894.909 584.589 897.065 585.592 896.288 586.946C894.433 589.879 892.578 589.879 887.965 586.946ZM150.837 429.88C138.778 426.646 136.923 422.909 142.414 412.229C146.525 404.407 150.938 403.129 156.027 408.218C157.982 410.174 162.295 410.975 167.083 410.273C173.752 409.296 174.73 409.798 174.053 413.508C173.551 415.965 171.596 418.121 169.64 418.221C161.793 418.698 160.239 419.299 160.239 421.355C160.239 422.634 162.395 424.289 165.028 425.066C170.819 426.921 171.295 433.49 165.529 433.014C163.272 432.913 156.604 431.434 150.837 429.88ZM155.526 417.82C155.526 415.564 153.971 414.385 151.615 414.887C145.648 415.965 144.871 421.555 150.637 421.555C153.47 421.555 155.526 419.976 155.526 417.82ZM813.053 421.355C812.276 418.321 810.496 417.043 808.34 417.82C806.485 418.597 800.718 419.875 795.629 420.653C788.283 421.831 786.403 421.355 786.403 418.497C786.403 416.165 790.44 413.91 798.262 412.055C807.262 409.898 810.02 408.219 810.02 404.809C810.02 399.118 814.031 398.817 815.686 404.408C819.221 416.442 819.898 426.244 817.165 426.244C815.585 426.244 813.73 424.088 813.053 421.355ZM159.637 399.894C147.002 395.482 143.592 392.549 147.904 390.017C151.138 388.061 179.518 398.039 178.541 400.872C177.187 405.084 174.128 404.883 159.637 399.894ZM781.715 400.872C781.715 398.616 783.771 395.307 786.403 393.727C793.649 389.215 792.295 385.504 784.072 387.259C778.782 388.438 777.002 387.96 777.002 385.403C777.002 381.969 804.529 370.336 806.886 372.667C807.563 373.369 808.641 378.359 809.418 383.749C810.897 394.805 807.764 398.616 799.139 396.485C796.306 395.683 793.272 396.285 792.495 397.639C791.593 399.118 788.76 401.374 786.303 402.752C782.493 404.708 781.715 404.407 781.715 400.872ZM804.93 385.304C805.306 383.047 804.128 381.393 802.073 381.393C797.685 381.393 795.028 385.203 797.083 388.537C799.24 392.072 803.952 390.017 804.93 385.304ZM163.473 385.705C156.403 382.27 152.793 373.27 155.426 366.124C160.039 354.266 174.228 352.612 183.831 362.891C189.898 369.435 189.898 374.348 183.63 382.17C178.541 388.738 172.072 389.817 163.473 385.605V385.705ZM180.02 376.103C183.73 370.236 177.563 364.344 168.763 365.222C159.537 366.124 158.659 373.846 167.384 378.259C174.228 381.794 176.685 381.292 180.02 376.103ZM769.857 367.203C760.079 357.401 768.403 341.155 783.27 341.155C797.761 341.155 803.451 357.977 791.994 367.003C784.172 373.17 775.924 373.27 769.857 367.102V367.203ZM788.76 360.132C795.228 353.589 792.496 347.798 783.37 348.676C775.448 349.478 770.734 355.044 772.991 360.936C774.946 366.225 783.094 365.823 788.76 360.132ZM884.354 367.203C884.354 364.546 885.608 362.389 887.187 362.389C891.7 362.389 893.756 367.478 890.121 369.734C885.232 372.768 884.354 372.393 884.354 367.203ZM184.532 340.754C171.094 333.107 170.016 330.85 175.708 322.828C181.574 314.404 188.042 311.947 195.589 315.08C205.466 319.217 208.325 327.341 203.712 338.798C201.656 343.988 199.199 348.199 198.422 348.099C197.544 347.999 191.276 344.765 184.532 340.754ZM200.001 333.207C201.756 324.006 187.842 318.215 181.775 325.561C179.518 328.118 180.597 329.772 186.764 333.608C195.589 339.073 198.923 338.998 200.001 333.207ZM764.191 331.352C761.157 327.04 760.079 326.739 756.845 329.296C754.087 331.652 752.432 331.752 750.477 329.772C748.998 328.318 748.221 326.639 748.697 326.063C751.054 323.906 775.247 310.292 775.648 310.969C785.225 324.407 785.827 327.241 780.336 332.731C775.147 337.921 768.402 337.319 764.191 331.352ZM776.525 323.806C777.403 319.493 775.146 318.917 770.157 322.05C766.422 324.407 768.879 330.073 772.991 328.694C774.57 328.218 776.124 325.962 776.525 323.806ZM743.432 319.694C742.73 317.839 743.808 313.927 745.764 310.969C750.076 304.225 747.619 301.292 741.176 305.403C737.942 307.359 735.384 307.66 733.93 306.181C731.674 303.924 753.411 284.444 758.199 284.444C760.856 284.444 767.5 297.18 767.5 302.069C767.5 304.125 764.567 307.158 761.057 308.738C757.421 310.292 752.232 314.204 749.499 317.337C745.764 321.75 744.309 322.351 743.432 319.694ZM758.5 295.802C756.344 293.545 755.065 293.646 752.733 295.903C750.377 298.259 750.577 299.337 753.31 300.992C758.099 303.925 762.31 299.713 758.5 295.802ZM202.834 311.37C190.299 301.567 189.521 299.337 195.689 291.991C201.179 285.423 206.544 287.078 202.257 293.947C198.221 300.215 201.856 302.545 207.547 297.456C213.413 292.166 216.748 294.724 212.536 301.393C208.023 308.638 212.912 312.348 217.826 305.403C220.358 301.768 222.414 300.791 223.993 302.371C226.15 304.527 217.826 319.995 214.592 319.694C213.99 319.694 208.6 315.883 202.734 311.27L202.834 311.37ZM725.005 293.445C725.005 289.835 744.41 272.585 748.421 272.585C753.887 272.585 750.276 278.954 740.198 286.801C727.763 296.578 725.005 297.757 725.005 293.445ZM235.05 289.734C234.172 288.355 234.172 285.422 235.05 283.165C236.128 280.332 233.972 276.899 227.403 271.308C220.86 265.842 218.904 262.809 220.659 260.929C223.893 257.694 242.997 273.464 242.997 279.456C242.997 285.122 237.005 292.968 235.05 289.734ZM717.559 285.021C717.359 284.044 717.183 280.609 716.983 277.4C716.782 272.686 715.503 271.407 710.815 271.407C700.436 271.407 702.191 267.798 716.281 260.252C728.24 253.784 730.395 253.407 733.429 256.441C736.463 259.474 735.986 261.53 729.618 273.363C722.949 285.522 718.437 289.935 717.559 285.021ZM726.184 265.542C726.961 264.263 726.585 263.184 725.306 263.184C723.927 263.184 722.272 264.263 721.395 265.542C720.593 266.821 720.994 267.899 722.373 267.899C723.626 267.899 725.406 266.821 726.184 265.542ZM241.217 259.85C234.849 247.039 234.273 244.182 237.106 241.925C239.663 239.694 243.373 240.771 254.73 247.039C269.823 255.362 271.778 259.675 260.521 259.675C254.454 259.675 253.552 260.553 253.552 266.52C253.552 278.178 249.064 275.719 241.217 259.85ZM250.042 253.985C250.042 252.806 248.287 251.251 246.131 250.349C242.897 249.196 242.797 249.471 245.229 252.505C248.663 256.616 250.042 257.018 250.042 253.985ZM683.889 252.604C676.343 246.537 676.444 246.236 689.255 230.668C694.545 224.4 698.481 221.467 699.834 222.946C701.213 224.3 700.611 227.158 698.18 230.568C685.544 248.017 686.121 246.538 691.034 250.173C693.968 252.329 694.645 254.184 693.09 255.738C691.511 257.318 688.377 256.24 683.889 252.604ZM263.355 239.192C251.998 224.2 254.153 219.989 270.123 225.981C280.678 229.892 280.679 229.892 275.589 222.847C271.979 218.033 271.202 215.1 272.856 213.445C274.511 211.766 278.347 214.899 284.991 223.825C296.849 239.494 294.994 243.805 279.124 236.935C265.31 231.069 265.109 231.17 272.279 239.694C279.023 247.717 280.002 251.427 275.489 251.252C273.834 251.151 268.444 245.761 263.455 239.192H263.355ZM291.759 219.512C286.946 212.367 283.135 206.3 283.135 205.898C283.135 205.497 286.871 203.166 291.359 200.71C301.161 195.52 305.674 197.876 297.526 203.943C291.083 208.832 294.492 212.842 301.838 208.931C308.507 205.321 310.262 210.11 303.894 214.522C296.949 219.512 301.262 224.902 308.883 220.79C317.908 215.977 319.287 220.89 310.562 226.756C306.05 229.89 301.838 232.449 301.261 232.449C300.76 232.449 296.448 226.658 291.759 219.512ZM652.927 230.192C652.15 228.813 654.407 222.947 657.816 216.855C663.106 208.055 663.708 205.597 660.95 203.943C658.719 202.564 658.418 201.184 660.073 199.53C661.652 197.975 665.764 199.129 672.508 203.165C682.21 208.932 684.165 215.199 675.365 212.366C672.131 211.389 669.198 213.72 663.607 221.768C655.685 233.225 655.083 233.702 652.927 230.092V230.192ZM813.63 225.479C812.753 224.025 815.009 220.489 818.644 217.656C826.165 211.664 829.299 211.088 830.678 215.3C831.255 217.055 829.7 218.333 826.967 218.333C824.31 218.333 820.6 220.489 818.72 223.222C816.488 226.355 814.708 227.158 813.63 225.479ZM679.076 223.323C677.321 220.389 686.321 212.742 689.455 214.723C690.834 215.6 691.31 217.255 690.633 218.434C688.277 222.144 680.455 225.479 679.076 223.323ZM633.648 217.055C632.845 214.999 632.845 208.931 633.748 203.441L635.102 193.464L628.935 203.641C619.934 218.533 616.8 212.668 624.923 196.096C633.146 179.349 638.236 179.173 639.915 195.72L641.069 207.277L645.381 198.252C648.339 191.884 650.395 190.029 652.15 191.784C653.905 193.564 652.726 198.152 648.139 207.453C641.771 220.49 636.38 224.125 633.648 217.055ZM314.373 204.319C308.206 193.263 307.429 190.229 310.162 189.15C313.997 187.671 329.165 212.166 326.808 216.077C324.176 220.289 322.02 218.334 314.373 204.319ZM327.41 196.898C321.242 182.582 321.243 182.582 327.109 180.326C338.466 176.039 349.046 180.151 346.413 187.873C345.912 189.452 347.968 193.364 351.002 196.598C358.046 204.244 353.158 208.731 345.611 201.686C338.767 195.218 336.912 195.92 338.667 204.143C341.5 216.954 333.953 212.166 327.41 196.898ZM338.767 189.727C340.823 186.418 336.31 181.805 333.076 183.861C330.343 185.515 332.098 192.284 335.232 192.284C336.31 192.284 337.889 191.106 338.767 189.727ZM606.898 203.542C606.898 198.352 618.355 175.738 620.912 175.738C624.522 175.738 624.046 178.873 618.079 193.464C613.265 205.222 606.797 210.988 606.898 203.542ZM356.392 190.63C348.745 180.928 352.856 168.97 365.216 165.26C372.361 163.104 382.34 173.081 382.34 182.382C382.34 196.798 365.492 202.188 356.392 190.63ZM374.217 186.594C377.25 174.66 366.37 165.835 361.004 175.939C358.949 179.75 359.225 182.106 362.158 186.594C366.972 193.864 372.462 193.939 374.217 186.594ZM570.57 190.33C562.447 181.33 570.069 161.624 581.727 161.624C588.797 161.624 597.396 169.847 597.396 176.716C597.396 190.906 579.395 200.133 570.57 190.33ZM587.994 181.405C590.752 174.36 588.596 168.693 583.406 168.693C578.016 168.693 573.804 173.281 573.804 179.348C573.804 190.429 584.083 191.884 587.994 181.405ZM397.432 183.46C398.009 179.85 399.288 171.928 400.065 165.736C400.842 159.568 402.622 154.478 403.9 154.478C405.354 154.478 405.756 158.791 404.778 165.736C402.221 184.94 400.942 189.928 398.51 189.928C397.232 189.928 396.73 186.995 397.432 183.46ZM555.879 188.073C554.5 187.196 552.645 184.539 551.767 182.307C549.912 177.193 544.02 176.816 542.165 181.705C540.887 184.939 533.541 186.895 533.541 183.962C533.541 183.285 536.775 176.315 540.787 168.493C549.311 151.646 554.701 150.568 557.834 165.159C560.392 177.393 559.213 190.431 555.879 188.174V188.073ZM552.444 168.594C552.444 165.836 551.466 164.381 550.112 165.159C548.834 165.936 547.756 168.092 547.756 170.048C547.756 171.928 548.834 173.382 550.112 173.382C551.466 173.382 552.444 171.226 552.444 168.594ZM425.236 176.917C422.503 173.281 420.146 168.393 420.146 165.936C420.146 158.791 430.726 149.791 439.15 149.791C448.551 149.791 447.473 155.181 437.671 156.935C431.604 157.913 430.826 159.091 430.826 166.337C430.826 173.081 431.804 174.761 436.116 175.337C439.726 175.839 441.406 174.961 441.406 172.404C441.406 170.348 440.428 168.693 439.049 168.693C437.771 168.693 436.693 167.615 436.693 166.337C436.693 165.058 439.25 163.98 442.384 163.98C446.871 163.98 448.251 165.459 449.128 171.627C450.607 181.028 450.983 180.628 439.626 182.107C431.604 183.185 429.748 182.482 425.236 176.917ZM512.983 181.028C510.827 179.549 510.526 175.236 511.805 165.058C513.66 150.065 516.117 147.836 527.875 150.769C535.998 152.825 534.92 156.836 526.296 156.836C517.972 156.836 517.796 162.326 526.12 163.505C533.064 164.583 532.663 168.693 525.618 168.693C517.295 168.693 515.64 175.237 523.663 176.214C527.198 176.615 530.031 177.994 530.031 179.348C530.031 182.306 516.894 183.56 512.983 181.028ZM453.34 179.951C453.44 179.55 455.295 172.404 457.552 163.98C463.042 143.222 468.433 142.82 476.154 162.701C479.113 170.448 481.645 177.594 481.645 178.672C481.645 182.683 473.998 180.251 472.845 175.738C472.143 173.181 469.711 171.025 467.454 171.025C465.098 171.025 462.641 173.181 462.064 175.738C461.287 178.371 459.131 180.526 457.075 180.526C454.919 180.526 453.24 180.252 453.34 179.951ZM469.786 164.582C469.711 163.579 468.708 161.148 467.454 159.192C465.574 156.334 465.098 156.735 465.098 161.047C465.098 163.88 466.176 166.337 467.454 166.337C468.708 166.337 469.786 165.56 469.786 164.582ZM486.834 164.758C487.712 144.4 493.403 140.489 493.403 160.27C493.403 172.705 493.704 173.382 499.37 173.382C503.005 173.382 505.261 174.761 505.261 177.018C505.261 179.55 502.603 180.526 495.659 180.526C486.157 180.526 486.157 180.527 486.834 164.758ZM296.172 171.125C290.882 162.601 267.09 106.017 268.068 104.438C270.123 101.003 291.258 91.2257 299.782 89.546C317.507 86.3119 330.042 99.047 322.421 112.56C318.886 118.828 318.986 119.129 324.376 119.129C341.023 119.129 346.99 140.865 333.954 154.478C327.611 161.147 305.573 173.382 299.983 173.382C298.604 173.382 296.949 172.403 296.172 171.125ZM318.008 150.868C329.065 143.121 321.418 128.932 308.005 132.241C299.682 134.397 299.005 136.452 303.618 146.054C308.105 155.456 310.362 156.258 318.008 150.868ZM302.916 118.929C310.061 113.263 310.863 108.448 305.172 105.315C299.206 101.905 287.147 106.794 289.102 111.683C290.005 113.839 291.258 117.374 291.96 119.706C293.514 124.996 295.295 124.921 302.916 118.929ZM639.314 163.78C629.236 158.691 621.012 153.702 621.012 152.724C621.012 151.747 628.057 135.976 636.681 117.574C652.451 84.0801 652.451 84.0804 660.173 87.7909C669.098 92.0027 669.574 89.4455 653.228 124.419L642.448 147.435L656.462 154.579C669.875 161.348 670.351 161.924 667.819 167.515C664.284 175.337 660.95 174.961 639.314 163.879V163.78ZM550.188 152.423C546.076 151.245 545.199 150.166 547.255 148.988C550.689 146.756 559.589 149.188 559.589 152.322C559.589 154.779 558.611 154.78 550.112 152.423H550.188ZM591.128 144.2C583.682 141.567 583.682 141.567 595.44 105.315C607.098 69.0875 607.198 69.0879 613.466 70.567C617.001 71.4445 620.611 72.8984 621.489 73.7758C623.068 75.255 602.485 143.322 599.752 145.779C599.075 146.355 595.24 145.579 591.128 144.2ZM356.893 109.051C352.681 90.5241 349.246 74.077 349.246 72.5226C349.347 68.5865 371.183 62.3194 384.797 62.3194C393.12 62.3194 396.931 63.5978 400.842 67.8096C407.11 74.4784 407.711 87.3149 402.02 93.5826C398.31 97.6942 398.31 98.1707 403.199 101.605C409.567 106.018 421.325 128.43 418.567 130.887C417.514 131.865 413.779 133.32 410.244 134.122C404.477 135.476 403.299 134.497 397.332 123.241C391.541 112.561 389.485 110.706 382.841 110.029C375.771 109.327 375.195 109.828 376.373 114.817C382.039 139.687 382.039 139.887 376.774 141.266C365.016 144.5 364.815 144.2 356.893 109.051ZM386.451 92.5038C388.131 91.2252 389.485 87.5904 389.485 84.4566C389.485 77.9883 382.54 74.3782 373.64 76.0329C368.626 77.0106 368.25 77.9875 369.604 85.7343C370.507 90.4475 371.66 95.1358 372.261 96.1135C373.44 98.2696 382.039 96.0137 386.552 92.5038H386.451ZM526.596 130.687C516.418 126.575 514.662 124.118 517.596 117.649C519.451 113.638 521.406 112.285 523.964 113.438C535.997 118.553 545.199 119.805 548.734 116.872C555.001 111.682 553.046 107.572 540.611 99.9253C527.097 91.6018 524.14 87.315 524.14 75.7575C524.14 59.1858 544.923 50.386 566.358 57.9323C573.804 60.4644 575.66 65.1774 571.548 71.7208C569.793 74.4785 568.213 74.5794 563.224 72.2227C554.801 68.412 546.578 68.6863 543.043 72.9985C539.332 77.4109 541.789 80.6459 555.779 89.546C570.169 98.5714 574.205 107.973 568.815 119.706C563.525 131.464 542.366 136.853 526.596 130.586V130.687ZM432.105 126.876C432.105 125.899 436.693 108.55 442.284 88.3678L452.462 51.7641H463.719C475.076 51.7641 475.076 51.7643 486.358 83.6792C503.005 131.088 502.403 126.174 491.347 126.174C482.246 126.174 481.644 125.797 479.012 116.672C476.154 107.471 475.979 107.27 464.998 107.27C453.942 107.27 453.941 107.271 451.785 117.274C449.83 126.776 449.228 127.353 440.805 128.055C436.016 128.531 432.004 127.954 432.105 126.876ZM471.366 89.7464C470.689 87.9915 468.808 81.9243 467.154 76.4338L464.12 66.356L461.087 77.9135C457.075 93.4823 456.975 93.0807 465.298 93.0807C470.689 93.0807 472.343 92.2033 471.366 89.7464ZM659.696 918.932C658.117 914.92 655.083 914.243 653.027 917.477C652.351 918.756 653.028 920.21 654.682 920.912C659.872 922.968 661.05 922.467 659.696 918.831V918.932ZM754.288 868.414C754.965 867.336 754.965 865.757 754.188 865.08C752.433 863.225 746.265 865.757 746.265 868.314C746.265 871.047 752.733 871.147 754.288 868.414ZM803.952 822.761C805.908 819.928 807.162 817.195 806.786 816.794C805.708 815.716 791.116 829.329 791.116 831.285C791.116 834.143 800.317 827.951 803.952 822.761ZM826.566 795.935C826.566 793.879 825.488 792.902 824.21 793.679C822.831 794.481 822.355 796.136 823.132 797.414C825.188 800.648 826.566 800.047 826.566 795.935ZM951.819 532.594C951.819 531.24 950.741 530.237 949.463 530.237C948.184 530.237 947.131 531.315 947.131 532.594C947.131 533.872 948.184 534.95 949.463 534.95C950.741 534.95 951.819 533.872 951.819 532.594ZM869.061 221.869C869.061 219.913 867.507 218.333 865.551 218.333C861.916 218.333 860.838 221.067 863.571 223.825C866.329 226.557 869.061 225.579 869.061 221.869ZM806.485 144.702C804.931 140.665 798.262 139.787 798.939 143.623C799.741 147.91 804.028 151.847 806.008 149.991C806.986 148.989 807.162 146.657 806.485 144.702ZM384.696 26.9689C384.696 25.6151 383.618 24.5374 382.34 24.5374C381.061 24.5374 379.983 25.6151 379.983 26.9689C379.983 28.2475 381.061 29.3254 382.34 29.3254C383.719 29.3254 384.696 28.2475 384.696 26.9689Z" fill="#383B40"/>
</svg>
