<svg width="965" height="962" viewBox="0 0 965 962" fill="none" xmlns="http://www.w3.org/2000/svg">
<path fill-rule="evenodd" clip-rule="evenodd" d="M441.826 960.39C407.5 957.252 373.41 950.74 373.41 947.366C373.41 946.366 371.488 945.973 369.114 946.601C365.446 947.503 357.012 945.523 328.59 936.931C326.825 936.323 325.374 935.108 325.374 934.107C325.374 933.107 324.138 932.734 322.765 933.263C316.174 935.794 255.801 907.294 224.614 886.914C193.583 866.672 172.125 849.588 147.234 825.462C58.7327 739.569 9.53935 632.453 0.889311 507.017C-0.189492 491.247 0.0462713 489.012 2.6354 489.012C4.2438 489.012 5.55772 488.109 5.55772 486.951C5.55772 485.794 4.32217 485.344 2.79223 485.952C-0.65994 487.266 -0.875687 473.085 1.94882 439.975C7.77435 374.168 25.3293 314.029 55.3592 256.715C91.607 187.672 150.451 123.238 217.18 79.3409C242.914 62.4724 276.553 44.6223 280.084 46.015C281.692 46.623 282.849 46.0153 282.849 44.6227C282.849 42.0139 314.861 28.9114 341.066 20.7125C414.012 -2.04044 508.495 -6.47349 581.344 9.53204C647.249 24.0076 703.857 48.388 757.954 85.6166C792.123 109.056 828.371 141.087 827.076 146.599C825.84 151.659 829.136 155.563 832.431 152.817C834.647 150.973 836.884 152.582 845.083 162.095C865.384 185.534 883.546 210.581 881.232 212.033C879.702 213.033 880.015 213.504 882.153 213.504C887.822 213.583 915.185 261.776 930.347 298.553C941.92 326.661 953.806 366.969 954.257 379.464C954.336 383.288 955.18 386.819 956.023 387.427C963.751 392.488 967.282 512.765 960.927 551.014C959.161 561.272 956.395 575.611 954.786 582.888C951.726 596.127 951.727 596.126 947.294 593.145C944.843 591.537 943.293 589.536 943.842 588.634C944.371 587.712 943.92 586.947 942.92 586.947C941.841 586.947 940.919 587.791 940.919 588.772C940.919 589.851 940.076 590.615 939.017 590.615C937.938 590.615 937.487 589.928 938.016 589.006C939.625 586.476 946.137 551.092 948.432 532.38C951.276 509.548 951.354 453.548 948.51 428.873C938.251 340.156 903.161 256.872 845.926 185.828C829.606 165.448 794.575 131.436 774.058 115.804C764.25 108.291 756.581 101.407 757.11 100.563C757.738 99.6415 756.895 98.9556 755.287 98.9556C753.679 98.9556 752.364 97.5626 752.364 95.9542C752.364 93.9731 751.364 93.3647 749.383 94.1297C745.617 95.5812 737.575 90.5995 737.575 86.9119C737.575 85.4604 736.515 84.6172 735.201 85.1664C733.985 85.6176 723.334 80.6345 711.683 73.9656C632.695 29.1461 534.995 7.7669 445.513 15.8089C430.802 17.1231 416.621 18.339 414.091 18.5744C411.56 18.8098 408.187 19.4179 406.657 19.9475C405.205 20.4967 398.536 21.9484 391.867 23.1057C343.517 31.7558 286.203 54.1355 237.873 83.4006C180.402 118.177 122.01 175.884 85.7029 233.57C73.4438 253.106 56.281 286.746 48.1606 307.361C44.7869 315.776 41.4133 322.601 40.4914 322.601C39.648 322.601 39.3537 323.679 39.8049 324.974C40.3345 326.288 38.9613 332.33 36.8233 338.391C30.6054 355.71 23.4072 388.193 19.1116 417.85C14.8945 446.644 14.8945 533.379 19.1116 546.247C19.5823 547.796 21.3473 556.526 23.0342 565.725C24.7014 574.826 27.624 588.399 29.5462 595.755C31.3704 603.11 32.1358 609.151 31.2139 609.151C30.3116 609.151 29.5462 609.995 29.5462 610.995C29.5462 611.995 30.4487 612.603 31.5275 612.387C32.5279 612.074 35.7449 618.959 38.5694 627.629C73.7383 734.509 150.98 828.208 251.427 885.992C313.723 921.848 388.494 943.521 461.205 946.817C474.465 947.444 486.194 948.661 487.41 949.661C488.724 950.661 489.941 950.662 490.549 949.583C491.176 948.661 500.218 947.366 510.634 946.601C634.99 938.167 744.773 885.756 827.233 795.353C841.022 780.249 847.22 775.189 843.317 782.251C842.16 784.153 842.552 787.076 844.318 790.587C846.907 795.804 846.769 796.275 838.413 806.004C811.129 837.956 733.829 898.329 729.69 890.974C727.238 886.6 724.1 887.836 725.316 892.74C726.394 896.859 724.786 898.016 701.955 909.353C677.358 921.612 673.533 923.064 675.671 919.71C676.966 917.552 674.141 917.179 672.14 919.238C671.375 920.003 669.767 920.611 668.551 920.611C667.394 920.611 666.393 921.847 666.393 923.377C666.393 929.81 597.899 950.269 554.374 956.781C525.952 960.998 468.953 962.842 441.826 960.39ZM475.995 956.624C475.995 952.721 470.639 953.251 469.875 957.311C469.404 959.763 470.169 960.547 472.621 960.077C474.465 959.704 475.995 958.154 475.995 956.624ZM301.307 922.377C301.307 920.769 300.463 920.003 299.463 920.611C298.404 921.318 298.09 922.613 298.62 923.535C300.228 926.065 301.307 925.594 301.307 922.377ZM790.514 845.762C792.593 845.762 792.75 844.998 791.22 842.075C788.69 837.407 785.689 837.249 785.689 841.937C785.689 843.84 785.081 845.763 784.316 846.214C783.551 846.684 784.002 846.763 785.395 846.371C786.689 846.076 789.063 845.762 790.514 845.762ZM36.0583 631.296C36.6663 630.315 36.3529 629.472 35.3525 629.472C34.3718 629.472 32.979 630.315 32.371 631.296C31.7629 632.374 31.9984 633.139 33.0575 633.139C34.0579 633.139 35.4306 632.374 36.0583 631.296ZM11.0695 500.055C11.0695 499.054 10.2262 498.211 9.22588 498.211C8.24515 498.211 7.40137 499.054 7.40137 500.055C7.40137 501.133 8.24515 501.898 9.22588 501.898C10.3047 501.898 11.0695 501.055 11.0695 500.055ZM957.945 479.361C956.63 477.988 955.708 477.91 955.708 479.067C955.708 481.519 957.945 483.735 959.161 482.499C959.632 481.97 959.161 480.519 957.945 479.361ZM114.576 185.828C114.576 184.847 113.811 184.005 112.751 184.005C111.751 184.005 110.908 184.847 110.908 185.828C110.908 186.828 111.751 187.672 112.751 187.672C113.811 187.672 114.576 186.828 114.576 185.828ZM598.429 18.202C598.821 17.1232 597.448 15.8087 595.369 15.2007C592.996 14.6711 591.544 15.1219 591.544 16.593C591.544 21.3398 596.977 22.6349 598.429 18.202ZM421.525 11.827C421.525 10.8463 420.681 10.5318 419.603 11.1399C418.602 11.7479 417.778 13.1409 417.778 14.1412C417.778 15.122 418.602 15.4364 419.603 14.8284C420.681 14.2007 421.525 12.8274 421.525 11.827ZM429.802 926.221C276.337 907.215 147.763 816.026 78.5827 677.115C46.3167 612.23 31.8415 544.796 33.8225 468.632C34.9013 427.265 37.6668 405.885 46.3953 370.716C86.2326 210.209 217.258 81.8706 379.765 44.1713C443.748 29.3819 512.007 28.5384 575.754 41.8763C652.447 57.8819 729.768 97.7976 789.377 152.209C797.262 159.407 799.027 161.937 797.34 163.703C795.654 165.527 791.985 163.154 780.707 153.053C765.466 139.401 738.339 118.864 720.49 107.605C714.664 103.859 709.84 99.5637 709.84 98.0338C709.84 96.5038 709.075 95.267 707.996 95.267C707.015 95.267 706.172 95.9536 706.172 96.7971C706.172 97.6405 695.129 92.8161 681.732 86.0883C566.712 28.5389 439.531 23.1051 318.313 70.3764C236.186 102.466 159.787 164.92 110.456 240.397C62.5576 313.716 39.9616 390.723 40.1185 480.676C40.2558 545.561 49.6906 593.988 73.3654 650.302C130.209 785.545 252.584 886.287 393.79 913.884C430.096 921.005 442.748 922.22 482.507 922.298C556.826 922.377 616.513 908.51 681.104 876.106C801.93 815.419 889.137 703.027 917.559 571.237C924.385 539.441 926.6 511.863 925.678 470.712C924.678 428.03 921.461 403.826 911.968 367.892C909.281 357.771 907.064 347.355 906.908 344.824C906.829 342.294 905.829 339.392 904.769 338.313C903.691 337.313 899.63 328.191 895.727 318.011C878.329 272.642 849.985 226.666 815.954 188.359C808.442 179.944 802.323 172.196 802.323 171.117C802.323 157.955 849.359 215.035 874.348 258.54C899.866 302.908 916.636 349.257 926.286 401.825C928.738 415.319 929.288 421.91 927.895 423.519C926.601 425.127 926.678 425.97 928.13 426.5C929.366 426.892 930.975 437.307 932.27 452.548C937.252 513.393 925.443 586.868 900.925 647.085C862.01 742.785 792.358 821.852 702.955 871.732C658.351 896.642 617.592 911.569 566.633 921.769C531.935 928.732 467.03 930.811 429.88 926.221H429.802ZM427.036 885.678C305.132 866.828 206.372 804.239 139.722 703.635C73.4438 603.718 55.6729 479.596 90.685 362.144C126.07 243.377 215.807 146.991 334.632 100.171C409.874 70.4546 497.982 64.7079 579.657 84.1656C694.52 111.43 797.184 192.811 850.359 298.553C894.256 385.897 904.848 493.856 878.721 587.928C845.769 706.4 758.503 806.925 646.249 855.334C634.99 860.238 625.478 863.377 625.183 862.396C624.183 859.552 621.123 860.238 621.123 863.318C621.123 867.143 587.405 877.244 552.766 883.756C531.249 887.836 449.024 889.051 427.036 885.678ZM542.351 877.95C677.731 856.727 789.672 773.208 848.143 649.852C875.642 591.852 886.98 535.538 884.92 467.102C883.841 431.011 881.468 413.162 873.583 381.915C870.974 371.559 868.836 362.674 868.836 362.066C868.836 361.458 864.305 361.379 858.715 361.83C852.517 362.36 848.299 361.988 847.75 360.693C847.377 359.614 846.906 360.065 846.847 361.674C846.534 366.891 826.684 374.403 813.287 374.403C803.617 374.403 799.341 373.247 788.141 367.735C775.882 361.674 773.431 361.144 762.643 361.83C756.052 362.223 750.148 363.144 749.462 363.831C748.775 364.517 750.226 369.872 752.835 375.776L757.425 386.426L811.972 386.878L866.521 387.427L869.444 402.667C881.782 466.18 878.78 535.067 861.402 591.537L857.635 603.64H760.642L751.442 622.567C715.665 696.436 649.858 753.437 572.086 777.955C529.64 791.372 478.368 794.804 432.548 787.37C399.831 782.094 337.77 758.713 341.301 752.986C342.223 751.593 341.536 751.357 339.32 752.2C331.65 755.123 281.378 716.424 259.626 690.984C236.951 664.406 213.649 628.001 221.24 630.766C224.221 631.924 224.3 631.688 222.005 628.923C220.632 627.158 220.083 625.177 220.926 624.412C221.691 623.647 222.691 624.098 223.162 625.334C223.613 626.471 228.066 634.454 233.107 642.869C268.217 701.183 326.217 747.69 390.73 769.07C515.694 810.594 651.839 763.931 725.021 654.599C735.201 639.358 746.539 618.743 750.599 608.092C751.992 604.483 751.678 603.64 749.069 603.64C746.931 603.718 742.793 609.779 736.124 622.646C696.051 700.261 625.791 753.594 538.977 772.287C513.929 777.641 457.145 778.111 431.018 773.129C344.282 756.653 264.843 696.593 228.595 619.958C223.241 608.7 219.946 603.718 217.709 603.64C213.728 603.64 213.727 603.718 217.258 612.525C219.318 617.507 219.632 620.959 218.396 624.097C216.788 628.314 216.258 627.786 211.041 616.135L205.372 603.64H107.691L103.552 587.476C86.468 520.277 84.3299 466.337 96.3537 403.432C100.1 383.818 94.3529 385.505 155.354 385.505H208.981L213.963 375.247C220.004 362.988 218.945 361.517 203.234 361.517C195.192 361.517 190.131 362.909 179.873 367.969C161.16 377.149 146.685 377.15 127.835 367.892C117.263 362.596 112.83 361.379 105.847 361.83C97.1188 362.36 97.1187 362.359 92.9016 379.071C83.7023 415.535 80.7993 439.524 80.7993 479.832C80.7993 546.561 91.5285 595.147 119.185 652.912C181.697 783.467 307.976 869.83 453.85 881.618C471.483 883.069 523.736 880.932 542.351 878.029V877.95ZM455.615 857.865C450.711 852.961 450.024 847.213 452.79 833.111C454.614 823.46 458.223 819.4 465.128 819.4C474.013 819.4 477.446 825.912 476.622 841.388C475.621 861.316 466.344 868.594 455.615 857.865ZM468.717 850.745C469.267 848.45 469.482 842.016 469.188 836.406C468.717 827.835 468.109 826.384 464.971 826.384C461.911 826.384 460.989 828.148 459.675 836.269C458.832 841.624 458.616 848.057 459.302 850.587C460.754 856.491 467.266 856.649 468.717 850.745ZM502.277 861.159C501.826 860.316 500.827 850.745 500.14 839.78C498.748 819.95 498.747 819.95 503.435 819.95C507.495 819.95 508.496 821.401 512.164 833.267C516.832 848.135 516.46 848.449 520.363 824.99C521.285 819.243 522.206 818.027 525.874 818.027C529.856 818.027 530.405 819.106 531.386 827.756C533.779 848.743 533.465 859.629 530.562 859.629C528.561 859.629 527.404 856.785 526.561 849.822C524.953 836.347 523.894 836.268 522.364 849.508C520.677 864.925 516.381 864.141 510.791 847.606L506.809 835.641L507.103 848.371C507.339 856.648 506.73 861.395 505.337 861.847C504.121 862.239 502.748 862.003 502.277 861.159ZM436.765 858.257C435.765 857.022 434.313 852.805 433.627 849.058C432.018 839.937 429.253 840.172 427.723 849.508C426.428 857.707 425.271 859.178 421.76 857.021C419.916 855.883 419.838 852.118 421.446 839.172C424.663 813.202 423.977 814.654 432.548 816.184C436.608 816.949 441.218 818.557 442.748 819.871C446.494 823.009 446.416 835.425 442.591 838.564C439.766 840.937 439.903 849.587 442.983 857.629C444.356 861.159 439.531 861.69 436.844 858.257H436.765ZM439.06 829.129C439.06 825.755 437.922 824.383 434.941 823.932C431.332 823.461 430.724 824.225 430.724 829.129C430.724 834.111 431.332 834.877 434.941 834.347C437.922 833.896 439.06 832.502 439.06 829.129ZM544.567 854.805C542.036 846.841 537.918 817.34 539.213 816.105C540.056 815.34 544.724 814.046 549.706 813.359C557.827 812.124 558.591 812.358 557.983 815.496C557.591 817.634 555.218 819.322 551.786 819.95C548.785 820.401 546.49 821.48 546.725 822.245C547.019 823.01 547.175 825.304 547.175 827.442C547.175 830.659 548.177 831.208 553.159 830.659C557.67 830.208 559.278 830.816 559.749 833.346C560.122 835.426 559.199 836.563 556.983 836.563C551 836.642 548.411 839.486 549.706 844.684C550.863 849.136 551.471 849.43 558.297 848.371C564.26 847.371 565.653 847.763 565.653 850.058C565.653 853.883 564.574 854.413 554.158 855.962C547.489 856.943 545.194 856.727 544.567 854.805ZM390.808 848.607C387.964 844.233 388.043 842.86 391.946 826.384C394.162 816.733 396.535 808.828 397.242 808.828C402.361 808.985 402.675 812.202 399.145 826.227C395.241 841.31 395.477 845.762 400.066 845.762C403.754 845.762 404.362 844.526 408.422 828.207C412.404 812.437 413.247 810.908 416.307 813.968C418.838 816.498 413.698 842.389 409.344 849.058C405.362 855.041 394.927 854.805 390.808 848.607ZM574.381 850.058C571.459 845.154 563.573 812.123 564.946 810.829C565.868 809.985 569.713 808.671 573.538 808.063C579.442 806.984 581.207 807.534 585.326 811.673C589.464 815.811 590.015 817.498 589.014 823.853C588.014 829.973 588.563 832.209 592.76 837.721C596.899 843.076 597.291 844.527 595.133 845.919C591.308 848.371 591.152 848.215 585.405 840.173C579.363 831.582 576.146 830.659 577.97 837.956C579.971 845.605 579.815 849.98 577.441 850.745C576.225 851.196 574.832 850.901 574.381 850.058ZM581.128 823.303C583.659 819.243 581.344 814.34 576.833 814.34C574.381 814.34 573.067 815.576 573.067 817.87C573.067 826.756 577.206 829.521 581.128 823.303ZM367.114 844.232C366.506 843.232 368.271 835.269 370.958 826.54C375.783 810.908 375.862 810.593 372.331 807.984C369.879 806.14 369.428 804.768 370.723 803.473C373.645 800.472 392.181 806.846 391.495 810.593C391.102 812.28 389.337 813.202 387.042 812.888C383.669 812.437 382.452 814.497 377.843 828.443C372.802 843.624 369.644 848.293 367.114 844.232ZM604.725 837.878C592.917 806.769 591.917 802.394 595.977 800.864C597.899 800.1 600.35 805.003 605.254 818.635C612.923 840.251 612.767 839.486 609.079 840.938C607.255 841.624 605.725 840.624 604.725 837.878ZM349.892 838.858C348.421 838.407 347.499 834.426 347.499 828.07C347.499 816.184 344.988 815.184 340.85 825.462C338.162 832.268 334.259 834.877 332.102 831.444C331.18 829.973 344.91 796.196 347.499 793.43C348.284 792.587 352.265 793.588 356.326 795.647C367.663 801.394 369.036 807.906 360.602 816.34C356.934 820.008 354.717 824.618 353.717 830.738C352.717 836.563 351.343 839.407 349.892 838.858ZM357.169 809.593C358.934 805.768 358.856 804.533 356.698 803.159C352.56 800.551 351.265 801.022 349.343 806.219C346.048 814.889 353.324 818.106 357.169 809.593ZM613.983 817.341C609.785 807.75 606.334 799.021 606.334 797.883C606.334 793.353 613.218 796.412 621.731 804.689C631.146 813.81 632.146 812.28 625.556 799.178C622.104 792.509 622.26 788.076 625.87 788.841C628.635 789.371 643.346 819.557 643.346 824.618C643.346 830.6 638.58 828.913 629.243 819.714C623.79 814.281 619.279 810.279 619.279 810.829C619.279 811.358 621.417 816.184 623.947 821.48C626.556 826.835 628.164 831.974 627.556 832.974C624.712 837.485 621.044 833.268 613.983 817.341ZM320.529 824.697C319.921 823.088 319.921 820.558 320.47 819.028C321.157 817.341 320 815.419 317.548 814.124C314.252 812.359 313.115 812.653 310.427 815.948C307.662 819.321 301.385 819.95 301.385 816.792C301.385 815.654 327.434 783.937 328.885 783.388C329.513 783.231 331.18 783.781 332.651 784.703C334.946 786.154 334.632 789.213 330.65 806.297C326.217 825.225 322.981 831.052 320.529 824.697ZM323.53 808.377C323.53 808.063 324.295 804.924 325.295 801.394C327.061 794.96 327.061 794.961 322.608 800.394C318.391 805.611 318.077 808.828 321.765 808.828C322.765 808.828 323.53 808.593 323.53 808.299V808.377ZM649.309 811.829C646.249 808.299 642.267 801.551 640.424 796.726C635.991 785.153 639.05 778.641 649.23 777.719C654.977 777.268 656.586 778.112 660.646 783.388C666.178 790.665 671.081 801.629 671.081 806.847C671.081 811.672 664.098 818.027 658.881 818.027C656.586 818.027 652.447 815.34 649.309 811.829ZM663.019 807.749C664.49 804.082 656.508 786.919 652.369 784.703C646.563 781.564 644.033 787.527 647.779 795.49C654.762 810.28 660.352 814.811 663.019 807.749ZM270.59 796.726C263.843 789.978 266.824 781.015 280.692 765.853C288.597 757.262 301.307 761.105 301.307 771.972C301.307 778.798 289.891 796.412 283.614 799.334C277.102 802.237 275.866 802.022 270.59 796.726ZM287.439 785.232C294.638 775.424 295.952 768.148 290.499 768.148C284.831 768.148 272.65 785.761 274.729 791.057C276.71 796.196 280.77 794.352 287.439 785.232ZM685.321 778.798C671.984 760.4 671.925 759.713 683.262 754.28C689.225 751.514 690.147 751.436 694.207 754.123C696.737 755.731 699.268 759.184 699.876 761.714C700.503 764.245 701.798 766.303 702.72 766.303C703.563 766.303 706.015 767.912 707.996 769.992C712.978 774.974 712.762 783.173 707.545 787.763C697.502 796.648 698.502 797.04 685.321 778.798ZM703.406 779.249C703.406 776.268 702.189 774.425 699.953 773.973C694.756 772.973 692.52 776.267 695.442 780.857C698.659 786.075 703.406 785.075 703.406 779.249ZM692.991 765.381C693.677 761.635 690.147 758.792 686.479 760.184C683.4 761.322 683.262 764.852 686.243 767.755C689.146 770.678 692.147 769.598 692.991 765.381ZM245.523 778.719C243.836 777.503 242.071 774.738 241.384 772.6C239.403 765.774 258.017 742.256 265.53 742.256C269.354 742.256 277.318 750.67 277.24 754.652C277.24 759.791 274.258 763.243 270.963 761.949C268.825 761.164 268.276 759.497 269.119 756.123C270.12 752.142 269.669 751.514 265.981 751.514C262.843 751.514 259.547 754.28 254.565 761.106C248.367 769.521 247.896 770.972 250.348 773.365C254.271 777.347 259.175 773.051 257.625 766.99C256.252 761.4 260.548 761.027 265.216 766.225C268.06 769.364 268.217 770.364 266.059 773.208C261.764 778.877 258.253 781.093 253.27 781.093C250.583 781.093 247.131 780.014 245.445 778.719H245.523ZM709.761 758.654L696.13 743.551L704.171 736.431C708.545 732.528 712.899 729.84 713.743 730.37C716.744 732.213 715.509 736.352 710.997 739.941C706.623 743.315 706.622 743.473 709.918 747.925C713.291 752.358 713.291 752.357 717.724 748.218C721.098 745.002 722.628 744.629 724.315 746.316C726.002 748.003 725.63 749.376 722.707 752.436C715.587 760.027 723.864 767.539 731.455 760.4C734.829 757.261 736.281 756.811 737.967 758.497C739.654 760.184 738.732 762.165 733.907 767.147C730.454 770.756 726.708 773.659 725.472 773.659C724.315 773.659 717.195 766.853 709.761 758.575V758.654ZM229.282 766.382C226.987 764.931 226.987 764.008 229.282 759.713C231.655 755.28 231.577 754.593 228.36 752.2C225.987 750.533 224.221 750.22 222.927 751.514C220.71 753.75 215.042 753.887 213.728 751.749C212.59 749.984 245.072 727.466 248.74 727.466C253.957 727.466 253.192 731.684 245.15 746.395C234.107 766.539 232.656 768.461 229.36 766.303L229.282 766.382ZM240.541 741.55C242.463 738.196 242.384 738.196 236.794 741.491C230.655 745.159 229.753 747.003 233.421 748.297C235.716 749.062 236.951 748.003 240.541 741.55ZM730.612 739.726C712.978 722.484 714.665 716.973 734.966 725.623C739.732 727.682 744.008 729.074 744.322 728.761C744.695 728.309 741.183 724.544 736.515 720.326C729.297 713.756 728.375 712.128 730.376 709.754C732.377 707.302 734.593 708.774 746.617 720.405C763.937 737.117 763.859 737.117 760.956 740.02C759.033 741.942 756.188 741.334 745.773 736.646L732.985 730.919L741.949 740.098C750.148 748.454 751.835 753.358 746.46 753.358C745.401 753.358 738.262 747.238 730.612 739.726ZM204.234 742.177C203.547 741.099 208.667 735.037 215.493 728.761C232.656 712.971 234.578 711.756 237.246 714.521C238.932 716.208 236.029 719.876 224.614 730.37C209.981 743.943 206.529 745.924 204.234 742.177ZM191.21 725.387C190.445 724.092 193.191 720.484 197.938 716.58C216.788 701.105 217.337 700.419 214.493 697.045C212.276 694.358 212.276 693.671 214.571 692.141C216.572 690.905 219.024 692.455 224.143 698.339C227.988 702.635 231.047 707.225 231.047 708.539C231.047 711.305 226.222 711.599 224.614 708.911C222.77 706.008 221.554 706.616 208.216 717.266C194.721 727.996 193.269 728.683 191.21 725.309V725.387ZM754.815 714.971C741.105 703.713 736.575 696.966 742.714 696.966C746.166 696.966 774.901 722.014 774.116 724.329C772.665 728.526 769.448 726.995 754.815 714.971ZM176.872 708.303C176.342 706.852 178.794 701.497 182.246 696.358C185.679 691.14 188.601 686.472 188.601 685.864C188.601 685.237 184.776 687.394 180.167 690.532C172.439 695.887 166.378 696.809 166.378 692.67C166.378 691.062 199.566 668.309 201.861 668.309C205.921 668.309 204.469 675.35 198.722 683.098C190.288 694.67 190.582 695.515 200.703 688.532C208.373 683.255 215.65 682.255 214.12 686.707C213.433 688.767 181.56 710.833 179.324 710.833C178.559 710.833 177.421 709.676 176.872 708.303ZM771.371 700.496C758.269 690.611 754.208 688.688 754.208 692.376C754.208 694.514 749.304 694.828 747.99 692.67C746.696 690.611 758.346 673.977 761.092 673.899C764.544 673.742 765.859 677.429 763.329 680.489C760.72 683.627 760.249 683.02 775.96 694.907C786.689 702.949 789.672 707.382 786.082 709.618C785.317 710.147 778.648 706.008 771.371 700.496ZM734.122 693.828C732.376 689.297 734.829 684.177 737.811 686.001C740.027 687.394 739.87 695.514 737.575 696.966C736.574 697.574 734.966 696.201 734.122 693.828ZM781.02 680.961C772.9 675.9 765.545 670.996 764.623 670.153C762.406 667.995 772.135 651.675 775.588 651.675C779.177 651.675 779.02 655.363 775.195 660.797C772.292 665.014 772.292 665.327 776.353 668.623C780.57 672.075 780.707 671.996 783.472 667.858C785.002 665.543 786.533 663.406 786.847 663.033C787.082 662.641 788.769 662.797 790.378 663.483C793.202 664.562 793.202 665.014 790.221 669.623C787.082 674.37 787.161 674.585 791.143 677.88C796.654 682.333 797.262 682.254 801.086 675.742C804.46 669.995 806.833 668.838 808.756 671.996C810.207 674.37 800.793 690.532 797.949 690.375C796.811 690.375 789.219 686.08 781.02 681.039V680.961ZM159.866 682.941C159.179 681.882 160.101 679.352 161.945 677.351C166.378 672.448 163.396 667.387 156.041 667.387C152.746 667.387 150.529 666.328 150.215 664.484C149.745 662.267 154.197 660.189 169.438 655.677C187.523 650.382 189.601 650.067 192.21 652.754C194.721 655.363 193.505 657.051 179.324 670.232C162.926 685.472 161.788 686.158 159.866 682.941ZM180.638 659.816C179.559 658.659 168.222 662.954 168.222 664.484C168.222 667.936 171.046 667.858 175.95 664.406C178.951 662.268 181.089 660.189 180.638 659.816ZM810.129 666.936C808.756 666.465 803.48 659.816 798.262 652.147C788.298 637.358 788.769 637.514 782.629 647.321C781.021 649.93 779.942 650.224 778.334 648.615C775.117 645.634 784.552 627.314 788.455 628.844C790.063 629.393 795.497 636.062 800.714 643.555C805.932 651.067 810.521 657.207 810.894 657.207C811.286 657.207 812.444 655.128 813.425 652.519C815.19 647.851 819.936 644.712 822.015 646.772C824.781 649.459 813.738 668.152 810.129 666.936ZM142.389 649.93C138.113 641.868 142.939 627.55 148.215 632.767C150.137 634.67 150.137 635.826 148.136 638.965C145.39 643.476 147.528 646.772 152.667 645.87C155.041 645.399 156.649 642.417 157.944 635.984C159.552 628.55 161.023 626.255 165.378 624.176C173.282 620.351 180.01 624.411 180.775 633.375C181.481 641.496 177.343 646.086 172.655 642.261C169.987 640.044 169.987 639.652 172.733 637.671C175.95 635.297 174.812 629.472 171.125 629.472C167.3 629.472 164.534 633.747 164.534 639.573C164.534 648.694 160.023 653.519 151.51 653.519C146.312 653.519 143.782 652.519 142.389 649.93ZM508.418 769.913C546.725 766.009 576.52 757.339 608.629 741.02C662.255 713.677 705.701 669.996 730.769 618.135L740.419 598.364L796.496 597.735L852.654 597.127L855.871 586.555C857.714 580.729 859.715 573.001 860.402 569.471C861.245 565.018 862.618 562.959 864.775 562.88C867.286 562.88 867.443 562.507 865.383 561.271C863.304 559.898 863.383 556.761 866.071 541.422C872.661 503.958 871.895 451.626 864.069 409.101L861.088 392.86H799.792L738.497 392.782L727.845 372.03C689.224 296.946 617.984 243.908 533.229 227.216C509.868 222.547 456.458 222.468 433.47 226.98C366.741 240.239 305.367 277.173 267.06 327.269C261.234 334.781 255.644 340.45 254.565 339.842C253.506 339.155 253.271 339.528 253.957 340.686C254.644 341.843 252.957 346.355 250.21 350.729C247.445 355.083 241.247 366.126 236.481 375.247L227.909 391.938L167.3 392.331C133.975 392.566 106.24 393.175 105.769 393.704C103.396 396.077 97.8051 433.404 96.3537 456.608C93.6665 499.603 97.8838 541.206 109.143 583.103L113.203 598.049H225.143L234.499 616.977C285.144 719.876 395.771 781.622 508.418 769.913ZM471.405 693.553C471.444 692.925 472.267 690.238 473.327 687.551C474.778 683.707 474.543 680.725 472.405 675.351C469.188 667.387 469.404 667.171 477.23 671.231C482.349 673.82 483.507 673.821 490.176 671.153C494.236 669.545 497.217 668.839 496.845 669.623C496.452 670.447 495.079 673.291 493.706 676.057C491.627 680.196 491.627 682.098 493.628 686.786C496.452 693.593 495.315 695.201 489.862 692.298C485.88 690.14 481.212 690.454 474.621 693.22C472.895 693.965 471.463 694.141 471.405 693.553ZM456.615 734.822C455.458 732.743 454.85 726.702 455.164 721.484C455.615 713.128 456.38 711.52 460.911 709.068C465.814 706.401 466.266 706.459 469.639 710.519C471.64 712.971 473.248 715.659 473.248 716.58C473.248 719.346 469.188 718.425 466.815 715.13C463.205 710.226 460.283 714.05 460.283 723.857C460.283 730.604 461.068 732.978 462.97 732.978C466.423 732.978 469.031 728.839 466.187 727.839C462.049 726.544 463.814 721.641 468.188 722.249C476.465 723.406 471.562 738.568 462.892 738.568C460.44 738.568 457.772 736.96 456.615 734.822ZM478.838 729.526C478.838 724.544 478.289 717.954 477.603 714.737C476.544 708.99 476.544 708.989 484.115 708.989C493.471 708.989 497.766 715.051 493.785 722.485C492.157 725.545 492.098 728.074 493.549 731.821C496.001 738.333 496.001 738.568 493 738.568C491.706 738.568 489.254 735.822 487.567 732.527L484.585 726.545L484.507 732.527C484.35 736.587 483.429 738.568 481.585 738.568C479.525 738.568 478.838 736.352 478.838 729.526ZM489.332 718.953C490.627 715.58 486.115 711.99 483.664 714.442C481.663 716.502 483.507 721.935 486.194 721.935C487.253 721.935 488.646 720.562 489.332 718.953ZM500.061 730.683C502.592 714.207 503.965 709.912 506.946 709.304C509.261 708.912 510.948 711.756 513.851 721.112C515.91 727.84 517.596 734.586 517.596 735.959C517.596 739.941 513.694 739.04 512.615 734.901C512.085 732.822 510.398 731.135 508.947 731.135C507.417 731.135 505.73 732.822 505.201 734.901C504.652 736.882 503.043 738.568 501.591 738.568C499.512 738.568 499.14 736.882 500.061 730.683ZM510.105 726.074C510.026 725.309 509.261 723.014 508.418 721.033C506.947 717.738 506.809 717.875 506.652 722.406C506.573 725.172 507.339 727.466 508.418 727.466C509.398 727.466 510.163 726.839 510.105 726.074ZM431.489 728.84C432.548 721.033 432.548 721.033 430.096 727.466C426.742 736.273 422.682 735.822 421.446 726.545L420.446 719.111L419.151 726.996C418.386 731.292 416.935 734.901 415.934 734.901C413.855 734.901 413.561 722.778 415.326 712.206C416.091 707.224 417.386 705.322 419.681 705.322C422.29 705.322 423.29 707.459 424.349 714.971L425.742 724.701L429.41 715.895C432.019 709.618 434.098 707.166 436.687 707.166C439.609 707.166 440.139 708.068 439.374 711.305C438.844 713.599 437.844 720.268 437.157 726.074C436.235 733.665 435.078 736.724 433.097 736.724C431.018 736.724 430.645 735.038 431.489 728.84ZM443.669 727.682C443.669 714.658 445.513 707.166 448.73 707.166C450.711 707.166 451.182 708.303 450.417 711.305C449.789 713.599 449.26 720.268 449.26 726.074C449.26 734.273 448.573 736.724 446.416 736.724C444.356 736.724 443.669 734.429 443.669 727.682ZM523.129 728.84C523.129 718.346 521.441 712.678 518.303 712.678C516.91 712.678 515.773 711.441 515.773 709.911C515.773 707.851 517.911 707.166 524.109 707.166C528.64 707.166 532.386 707.93 532.386 708.989C532.386 709.99 531.092 710.833 529.562 710.833C527.11 710.833 526.796 712.756 527.953 723.779C529.012 734.979 528.797 736.724 526.189 736.724C523.894 736.724 523.207 734.901 523.129 728.84ZM538.977 730.683C536.152 716.973 535.918 705.243 538.448 705.243C540.37 705.243 541.585 709.304 542.821 720.033C544.194 731.684 544.038 734.822 542.194 734.822C540.899 734.822 539.448 732.978 538.977 730.683ZM401.675 725.387L402.753 717.266L399.145 724.25C394.319 733.508 391.946 732.978 391.711 722.406L391.495 713.6L389.572 721.484C388.494 725.937 386.591 729.291 385.199 729.291C382.217 729.291 382.217 728.311 385.199 712.678C387.042 702.792 388.121 700.653 391.102 700.653C394.084 700.653 394.868 702.32 395.633 710.833L396.536 721.033L399.772 713.05C402.753 705.773 407.343 701.556 409.638 703.949C411.561 705.852 405.735 731.743 403.205 732.665C401.145 733.371 400.831 731.821 401.675 725.387ZM552.158 730.291C548.49 726.623 546.49 711.912 549.02 707.225C551.707 702.184 561.122 702.105 563.809 707.009C567.634 714.208 568.164 726.545 564.81 729.918C561.044 733.665 555.767 733.9 552.158 730.291ZM561.279 718.719C559.985 709.382 557.983 706.009 554.767 707.931C550.177 710.834 554.158 727.466 559.434 727.466C562.043 727.466 562.28 726.074 561.279 718.719ZM574.068 726.996C572.086 720.405 569.4 706.852 569.4 703.556C569.4 697.652 572.538 698.967 578.599 707.381L584.188 715.13L583.031 706.46C581.736 696.966 585.11 693.984 587.013 702.948C587.64 705.773 588.857 711.52 589.857 715.815C592.152 726.074 591.996 727.466 589.014 727.466C587.563 727.466 584.189 723.936 581.58 719.561L576.676 711.756L577.912 720.562C578.677 726.545 578.363 729.291 576.912 729.291C575.755 729.291 574.538 728.31 574.145 726.996H574.068ZM371.566 724.387C371.566 722.485 372.331 718.111 373.253 714.521C374.175 710.991 375.391 705.773 376.097 702.948C376.999 698.653 382.825 695.279 382.609 699.261C381.609 712.069 371.566 735.117 371.566 724.387ZM305.053 682.098C305.053 679.803 315.488 679.431 380.844 679.431C447.2 679.431 456.615 679.724 456.615 682.176C456.615 684.628 447.259 684.942 380.844 684.864C315.488 684.864 305.053 684.471 305.053 682.098ZM510.241 682.176C510.241 679.803 520.519 679.431 586.032 679.431C651.761 679.49 661.804 679.803 661.804 682.176C661.804 684.549 651.761 684.943 586.032 684.943C520.598 684.864 510.241 684.549 510.241 682.176ZM174.89 557.741C180.088 552.994 199.252 535.302 217.415 518.512C260.861 478.439 275.494 465.807 277.632 466.415C278.632 466.65 278.927 466.122 278.318 465.2C277.102 463.121 285.223 457.608 289.499 457.608C291.264 457.608 304.288 445.506 318.47 430.795C346.205 401.903 349.421 400.059 358.856 407.414C361.229 409.336 369.722 414.692 377.627 419.38L391.946 427.873L402.518 411.789C412.404 396.842 413.777 395.548 421.898 393.253C431.332 390.644 436.471 384.898 445.964 366.048C450.554 357.006 472.778 335.546 477.525 335.546C480.447 335.546 502.199 358.378 509.633 369.264C514.085 375.776 517.303 378.385 522.815 379.836C528.17 381.287 531.387 383.74 535.074 389.409C541.351 398.843 554.08 412.789 558.748 415.319C561.514 416.771 564.653 415.241 575.597 406.885C582.953 401.217 590.014 396.549 591.23 396.549C593.604 396.549 617.749 421.282 639.502 445.958C651.839 459.904 653.604 461.217 661.489 462.276C666.236 462.884 672.298 464.042 674.985 464.65C680.889 466.121 763.485 541.579 763.485 545.404C763.485 546.953 764.937 548.169 766.761 548.169C768.605 548.169 774.195 552.308 779.177 557.368L788.298 566.647H736.281C696.502 566.647 684.027 566.097 683.183 564.331C682.34 562.507 681.869 562.507 681.026 564.331C680.183 566.097 663.334 566.647 605.941 566.647C540.978 566.647 532.092 566.333 533.072 563.881C533.7 562.194 533.073 561.114 531.327 561.114C529.777 561.114 528.111 562.351 527.483 563.881C526.796 565.725 523.893 566.647 518.518 566.647C513.164 566.647 510.242 565.725 509.555 563.881C508.947 562.351 507.182 561.114 505.652 561.114C504.044 561.114 502.808 562.351 502.808 563.881C502.808 566.333 486.194 566.647 364.368 566.647C234.794 566.647 225.908 566.411 226.144 563.488C226.3 561.743 224.849 559.977 222.927 559.584C220.161 559.055 219.631 559.664 220.475 562.723C221.475 566.568 221.005 566.646 193.426 566.568L165.456 566.411L174.89 557.741ZM759.798 554.917C759.798 554.603 748.617 544.109 734.887 531.693C716.959 515.373 710.369 508.254 711.075 505.959C711.762 503.723 711.605 503.507 710.369 505.272C709.074 507.018 704.25 503.506 691.54 491.541C676.887 477.752 673.297 475.222 666.236 474.163C654.761 472.476 655.213 476.83 668.551 494.307C676.593 504.879 676.358 506.567 667.394 501.977C649.995 493.092 650.309 499.211 668.236 518.904C675.827 527.26 681.791 534.302 681.496 534.616C680.81 535.303 644.033 515.923 640.424 512.922C638.894 511.627 637.971 509.47 638.501 508.175C639.05 506.802 638.443 506.175 637.05 506.724C635.834 507.175 633.225 505.958 631.381 503.801C629.459 501.741 626.026 500.055 623.574 500.055C619.279 500.055 617.513 498.604 609.079 487.874C605.862 483.736 602.429 481.735 597.134 480.891C592.308 480.126 588.778 478.223 586.954 475.457C585.404 473.084 580.815 469.338 576.755 467.023C569.321 462.884 569.321 462.884 574.303 456.451L579.207 450.017L584.561 455.922C588.248 459.903 589.328 462.198 587.857 463.12C586.641 463.807 588.013 464.434 590.936 464.356C593.839 464.356 597.526 464.885 599.213 465.65C601.959 466.945 602.116 466.259 600.35 459.217C598.977 453.922 595.683 448.88 590.308 443.663C578.755 432.561 584.11 428.716 596.291 439.445L602.96 445.27L600.037 438.366C598.507 434.541 595.604 429.186 593.603 426.421C591.622 423.655 589.7 419.066 589.406 416.241C588.778 411.102 588.779 411.102 576.755 420.361C567.948 427.186 563.26 432.56 559.2 440.367C554.159 450.096 548.254 455.922 534.544 464.964C530.405 467.651 530.483 467.73 538.29 468.26C550.627 469.025 551.315 469.554 559.2 484.735C563.26 492.464 569.928 503.115 573.988 508.254C582.658 519.278 590.23 529.555 592.466 533.145C593.525 535.067 593.309 535.381 591.387 534.223C585.562 530.85 558.826 509.332 553.766 503.957C550.784 500.819 547.333 498.211 546.176 498.211C544.959 498.211 534.544 502.742 522.972 508.175C491.255 523.121 490.862 523.043 505.122 507.253C511.928 499.741 516.754 493.013 515.989 492.17C511.242 487.482 482.055 500.447 448.73 522.121C439.138 528.241 430.645 533.379 429.802 533.379C428.958 533.379 433.627 527.711 440.217 520.886C459.302 500.977 463.578 493.012 458.302 487.716C456.772 486.265 459.596 483.814 468.345 478.91C477.387 473.849 481.584 470.182 484.742 464.435C488.038 458.531 492.019 455.078 501.905 449.645C509.025 445.722 515.615 441.74 516.675 440.759C517.832 439.602 513.85 434.542 504.965 426.048C497.531 418.987 491.255 413.162 490.862 413.162C490.548 413.162 489.333 415.614 488.097 418.615C486.802 421.597 484.35 425.342 482.507 427.029C479.447 429.795 479.132 429.717 478.23 426.186C477.151 421.832 473.248 421.067 473.248 425.206C473.248 428.344 468.482 428.951 466.736 426.107C466.03 424.969 464.579 425.264 462.97 426.892C459.224 430.639 459.597 433.542 463.892 433.542C465.814 433.542 467.874 434.248 468.423 435.013C469.404 436.621 443.67 465.65 442.434 464.356C441.983 463.885 445.278 455.765 449.789 446.271C454.242 436.699 459.459 424.734 461.284 419.673C463.127 414.632 467.952 405.591 472.013 399.765C479.368 389.036 479.368 389.036 475.073 383.289C471.012 377.698 470.934 377.012 473.17 365.655C474.464 359.143 474.994 353.337 474.308 352.709C472.091 350.493 461.754 362.438 453.398 376.855C441.453 397.47 437.315 401.903 428.566 403.276C420.446 404.59 420.446 404.59 405.44 428.952C399.536 438.523 390.808 449.567 384.747 455C375.313 463.513 373.783 465.964 369.114 480.44C362.602 500.447 363.603 499.741 310.114 523.337C300.15 527.711 292.029 530.85 292.029 530.321C292.029 527.869 324.374 503.428 334.71 498.211C338.692 496.151 341.988 493.307 341.988 491.934C341.988 488.188 328.591 491.62 316.469 498.525C311.036 501.663 306.21 503.722 305.681 503.192C303.523 501.054 320.392 485.501 330.964 479.911C341.909 474.007 348.735 466.258 353.187 454.548C354.933 449.861 354.933 449.86 347.735 455.529C339.536 462.041 338.241 462.434 338.241 458.53C338.241 453.862 335.102 455.393 331.121 461.826C326.668 469.025 320.235 475.222 318.705 473.77C316.253 471.319 329.434 449.861 335.632 446.193C339.614 443.82 342.38 440.524 342.909 437.523C343.439 434.777 344.596 429.481 345.44 425.735L346.97 418.752L339.771 425.342C335.711 428.951 325.825 439.151 317.783 447.958C302.915 464.12 297.403 468.495 291.656 468.573C289.283 468.632 240.325 511.862 196.035 552.994C193.74 555.152 237.481 555.525 476.543 555.525C632.303 555.525 759.719 555.289 759.719 554.917H759.798ZM281.241 490.561C299.541 473.477 316.253 458.981 316.861 459.668C317.253 460.06 315.488 464.886 313.036 470.476C308.819 480.126 307.74 481.127 292.735 489.012C271.963 499.898 271.041 499.976 281.241 490.561ZM398.536 466.337C399.301 465.121 403.361 458.981 407.735 452.862C412.031 446.722 416.542 438.23 417.7 433.934C419.445 427.187 421.897 424.578 436.765 413.555C446.2 406.65 454.928 400.294 456.301 399.451C460.832 396.763 452.927 409.651 444.591 418.615C440.217 423.283 434.549 431.717 432.018 437.386C427.35 448.115 416.464 457.374 411.953 454.628C410.481 453.706 410.109 454.235 410.952 456.314C411.717 458.374 410.187 460.825 405.97 463.963C399.301 469.102 396.477 469.946 398.536 466.337ZM480.604 500.055C480.604 499.054 479.839 498.211 478.76 498.211C477.76 498.211 476.916 499.054 476.916 500.055C476.916 501.133 477.76 501.977 478.76 501.977C479.839 501.977 480.604 501.133 480.604 500.055ZM524.187 461.904C528.326 460.296 527.268 457.216 522.815 457.922C518.676 458.53 516.753 463.728 518.911 468.632C519.833 470.711 520.284 470.318 520.813 467.18C521.206 464.807 522.736 462.434 524.187 461.904ZM541.665 421.282C541.665 418.693 540.821 417.144 539.742 417.85C538.742 418.458 537.917 421.066 537.917 423.597C537.917 426.186 538.742 427.715 539.742 427.029C540.821 426.421 541.665 423.813 541.665 421.282ZM482.507 344.903C482.507 343.981 481.663 342.687 480.604 342.059C479.603 341.372 478.76 342.216 478.76 343.746C478.76 345.354 479.603 346.668 480.604 346.668C481.663 346.668 482.507 345.904 482.507 344.903ZM813.425 519.061C813.425 518.296 815.032 511.862 816.876 504.722C818.798 497.602 820.25 491.621 820.093 491.464C820.014 491.405 815.346 491.699 809.913 492.248C801.087 493.091 799.635 493.856 796.34 499.446C791.142 508.253 788.22 507.41 789.063 497.289C789.534 491.777 788.769 487.403 786.768 484.422C785.16 481.891 783.787 479.44 783.787 478.91C783.787 476.537 790.377 478.224 793.81 481.441C797.262 484.579 798.714 484.736 807.384 482.892C812.66 481.813 817.034 480.204 817.034 479.439C817.034 478.596 814.13 473.398 810.521 467.729C806.912 462.12 804.461 456.686 805.089 455.686C806.913 452.626 810.678 453.627 815.032 458.374C817.425 460.825 821.329 463.355 823.781 463.963C826.312 464.571 827.92 465.73 827.37 466.573C826.841 467.416 828.37 469.946 830.822 472.24C834.804 475.987 836.256 476.223 848.3 475.007C859.794 473.928 861.559 474.163 862.618 476.987C864.383 481.597 859.107 485.03 848.143 486.501C838.414 487.717 830.744 494.994 832.96 500.82C833.666 502.663 833.117 503.801 831.587 503.801C830.214 503.801 826.762 507.567 823.997 512.078C819.721 519.218 813.287 523.415 813.425 519.061ZM127.541 507.803C127.541 506.959 128.678 502.428 130.071 497.76C132.66 489.325 132.66 489.326 124.089 483.128L115.498 476.987L126.384 476.065C137.348 475.144 137.348 475.144 141.095 465.121C144.155 457.079 145.155 455.843 146.312 458.687C147.077 460.59 148.98 465.337 150.451 469.103C153.197 475.987 153.275 476.066 163.926 476.144C174.655 476.144 174.655 476.144 169.752 479.832C156.414 489.796 156.806 488.953 159.866 498.976C161.396 504.036 162.318 508.488 161.866 508.861C161.396 509.332 157.493 507.175 153.04 504.193C145.077 498.682 145.077 498.682 137.643 503.88C129.993 509.411 127.541 510.313 127.541 507.803ZM466.579 288.884C470.561 274.173 470.09 272.113 461.754 266.209L453.85 260.697L464.363 260.168C474.857 259.54 474.857 259.54 478.073 250.89C482.663 238.317 483.585 238.102 486.959 248.36C490.411 258.697 492.019 259.776 504.357 259.854C513.007 259.854 513.007 259.854 508.025 263.6C494.393 273.722 495.001 272.642 498.375 282.528C499.983 287.353 500.905 291.885 500.356 292.414C499.826 292.944 495.687 290.806 491.098 287.746C482.899 282.078 482.899 282.078 475.308 287.59C466.187 294.18 465.049 294.337 466.579 288.884ZM748.697 385.427C748.697 381.602 733.829 354.239 723.1 338.234C662.039 247.516 553.923 198.323 446.965 212.582C396.849 219.251 349.127 238.396 310.584 267.367C301.228 274.33 291.813 280.156 289.577 280.234C287.361 280.391 286.674 280.841 287.969 281.391C289.44 281.92 284.595 288.275 275.023 298.396C257.488 316.854 239.619 341.372 228.282 362.673C217.945 382.052 216.866 385.505 221.24 385.427C223.613 385.427 226.83 380.916 231.969 370.344C250.976 331.644 286.753 290.727 323.53 265.973C348.127 249.36 357.699 244.456 362.681 245.986C365.133 246.83 366.054 246.516 365.289 245.221C363.603 242.534 374.469 237.317 396.32 230.353C465.579 208.209 544.645 214.035 608.471 246.065C661.273 272.486 709.683 320.679 735.888 372.873C740.105 381.209 744.323 387.349 745.931 387.349C747.461 387.349 748.697 386.506 748.697 385.427ZM177.185 361.751C190.818 354.631 202.018 352.788 213.728 355.789C220.71 357.535 222.691 357.456 223.927 355.554C226.536 351.493 225.751 350.258 219.102 347.512C207.608 342.687 194.8 343.981 179.402 351.651C161.396 360.536 148.077 360.987 132.444 353.338C126.697 350.493 122.01 347.041 122.01 345.589C122.01 341.98 123.775 342.215 135.191 347.59C149.823 354.318 160.336 353.788 177.342 345.354C193.956 337.155 208.529 336.018 221.554 341.902C228.36 344.982 229.753 345.138 231.204 342.824C233.813 338.685 233.578 338.469 222.692 333.173C207.686 325.818 196.192 326.289 179.951 334.86C160.474 345.197 149.529 345.353 129.757 335.703C112.752 327.347 109.986 326.819 108.299 331.114C106.083 336.94 107.22 338.999 113.046 339.607C116.655 339.921 119.028 341.293 119.342 343.059C119.636 345.275 117.871 345.904 111.143 345.825C103.866 345.747 102.473 346.275 102.022 349.649C101.552 352.944 102.709 353.71 110.064 354.711C114.811 355.319 122.931 358.084 128.149 360.752C147.999 370.794 159.336 371.029 177.185 361.751ZM837.491 361.83C844.082 358.692 852.967 355.475 857.263 354.789C865.148 353.553 866.521 351.709 863.461 346.884C861.244 343.373 852.359 345.198 837.412 352.416C819.72 360.83 807.226 360.614 788.984 351.572C773.744 344.059 761.033 342.687 749.755 347.355C742.321 350.494 740.262 353.337 743.087 356.77C744.852 358.928 746.244 358.849 751.991 356.475C761.563 352.494 775.118 354.102 789.456 360.909C806.148 368.872 805.932 368.813 816.269 368.185C822.016 367.891 830.057 365.439 837.491 361.83ZM837.178 345.746C844.612 342.137 852.654 339.235 855.106 339.235C859.931 339.235 860.636 337.234 857.792 331.879C855.576 327.741 850.908 328.74 835.648 336.704C820.564 344.667 807.618 344.217 789.22 335.096C771.292 326.211 761.799 325.896 745.48 333.644C733.593 339.234 732.376 340.686 735.966 344.295C737.496 345.825 740.026 345.276 745.616 342.452C757.11 336.391 774.902 336.939 787.769 343.667C808.227 354.474 818.112 354.867 837.178 345.746ZM177.499 328.819C196.721 319.385 210.824 319.149 226.3 327.897C232.204 331.193 237.167 333.723 237.324 333.33C250.054 312.186 291.578 268.818 297.698 270.348C298.698 270.662 299.247 270.034 299.012 269.054C297.698 264.228 340.771 237.63 369.723 225.45C487.803 175.648 628.086 210.346 710.605 309.734C717.803 318.384 725.021 327.426 726.551 329.8C729.376 334.174 729.376 334.174 741.341 328.113C751.443 322.993 755.345 322.072 766.153 322.072C774.195 322.072 779.256 322.836 779.726 324.209C780.099 325.366 781.473 326.288 782.865 326.288C784.16 326.288 789.749 328.348 795.202 330.878C809.521 337.626 820.329 337.155 836.883 329.035C844.239 325.524 851.045 322.601 852.123 322.601C853.124 322.601 851.046 316.246 847.535 308.498C844.004 300.849 841.63 293.709 842.159 292.807C842.708 291.963 842.082 291.12 840.787 291.12C839.414 291.042 834.196 283.843 829.135 275.095C809.756 241.691 776.432 202.383 745.48 176.57C637.129 86.1466 500.67 57.2745 367.114 96.5037C354.855 100.093 343.517 103.25 341.988 103.388C340.458 103.544 337.162 105.075 334.632 106.683C332.023 108.37 324.981 111.744 318.862 114.353C303.366 120.865 275.416 136.341 257.86 148.149C200.939 186.378 152.589 241.005 122.167 301.535C111.83 322.072 111.673 322.601 115.203 322.601C116.498 322.601 123.402 325.524 130.444 329.035C148.215 337.999 158.708 337.999 177.499 328.819ZM187.228 286.981C187.836 285.373 188.837 281.313 189.445 277.939C190.445 272.349 189.896 271.348 183.698 267.131L176.715 262.541L185.914 261.619C194.721 260.697 195.113 260.384 197.722 252.813C199.252 248.517 201.017 244.985 201.704 244.985C202.312 244.985 203.92 248.733 205.234 253.264C207.529 261.62 207.529 261.619 216.944 261.619H226.457L219.475 266.523C211.962 271.877 211.747 272.486 214.414 281.842C215.415 285.294 215.944 288.433 215.728 288.668C215.414 288.962 212.041 287.138 208.294 284.607C201.468 279.919 201.39 279.92 196.408 283.372C187.228 289.727 185.992 290.198 187.228 286.981ZM753.051 285.451C756.738 272.643 756.581 271.956 749.383 267.131L742.399 262.541L751.442 261.619C760.111 260.697 760.485 260.384 763.094 252.656C765.997 243.829 767.467 244.22 770.841 254.636C772.9 261.383 773.292 261.62 781.629 261.698H790.299L783.472 267.288C776.646 272.878 776.647 272.878 779.099 281.077C780.492 285.588 781.178 289.354 780.707 289.354C780.256 289.354 776.961 287.138 773.43 284.451C766.997 279.547 766.996 279.547 762.014 283.136C752.442 290.119 751.678 290.355 753.051 285.451ZM623.947 229.432C611.845 222.998 601.587 216.8 601.273 215.799C600.665 214.034 611.394 192.733 635.52 147.913C641.581 136.733 647.779 127.298 649.23 126.984C653.29 126.219 696.895 150.521 696.895 153.503C696.895 157.955 692.755 165.448 690.303 165.448C689.008 165.448 681.791 162.153 674.377 158.093C666.943 154.033 659.882 150.738 658.744 150.659C657.508 150.659 654.056 155.269 650.996 160.937C644.641 172.588 644.248 171.823 662.254 180.473C671.846 185.063 673.376 189.124 668.159 196.479C665.334 200.539 665.334 200.539 652.526 194.105C645.484 190.594 638.972 187.672 637.972 187.672C637.05 187.672 633.676 192.576 630.537 198.637L624.869 209.66L632.696 214.269C636.972 216.721 644.484 220.703 649.309 222.998C654.134 225.293 658.115 228.294 658.115 229.667C658.115 233.806 652.31 241.239 649.073 241.239C647.465 241.239 636.128 235.865 623.947 229.432ZM622.947 194.949C622.947 193.968 622.103 193.183 621.123 193.183C620.122 193.183 619.279 194.498 619.279 196.107C619.279 197.637 620.122 198.48 621.123 197.794C622.182 197.186 622.947 195.871 622.947 194.949ZM305.818 232.276C302.758 230.354 298.012 226.214 295.246 222.919C288.283 214.642 276.788 193.654 277.789 190.888C278.161 189.594 277.397 187.672 275.867 186.613C274.415 185.534 272.493 180.631 271.571 175.727C269.276 163.311 272.277 153.189 280.849 145.069C289.97 136.34 308.348 130.829 311.506 135.89C312.114 136.871 314.174 137.713 316.096 137.713C320.313 137.713 330.885 146.384 330.885 149.836C330.885 151.209 327.963 154.582 324.452 157.25C318.018 162.154 318.018 162.153 312.35 157.328C301.542 148.285 290.205 153.347 290.205 167.214C290.205 176.021 304.367 204.913 312.487 212.739C323.373 223.076 337.241 217.016 336.162 202.305C335.632 194.341 338.241 190.359 345.204 188.672C351.795 186.986 354.933 191.438 354.933 202.226C354.933 221.389 340.771 235.708 321.765 235.708C315.017 235.708 309.584 234.571 305.818 232.276ZM554.923 202.539C543.429 199.695 533.23 196.557 532.23 195.577C531.014 194.419 533.995 179.944 540.9 153.268C546.647 130.986 552.237 109.135 553.159 104.702C555.003 96.66 555.002 96.6603 562.436 97.6411C566.496 98.1903 570.773 99.563 571.852 100.72C573.381 102.25 571.242 113.431 563.573 143.304L553.159 183.926L559.906 185.691C563.574 186.672 570.929 188.437 576.304 189.594C584.875 191.438 586.032 192.203 586.032 196.264C586.032 202.697 582.737 207.973 578.971 207.836C577.284 207.679 566.418 205.383 554.923 202.539ZM582.345 195.027C582.345 194.027 581.501 193.183 580.422 193.183C579.441 193.183 578.599 194.027 578.599 195.027C578.599 196.027 579.441 196.872 580.422 196.872C581.501 196.872 582.345 196.027 582.345 195.027ZM385.434 203.835C382.295 194.42 370.193 125.611 371.566 125.082C372.567 124.768 372.174 123.238 370.644 121.708C366.976 118.099 366.976 106.526 370.644 105.153C372.096 104.545 376.019 103.937 379.314 103.78C385.198 103.545 385.198 103.545 389.043 122.316C391.102 132.673 393.397 141.696 394.025 142.323C395.319 143.618 417.837 139.793 419.995 137.949C420.76 137.341 419.681 129.378 417.7 120.257C413.012 98.7986 413.09 95.8947 418.229 94.502C423.055 93.2859 432.548 92.9724 432.548 94.1297C432.548 95.0516 441.296 136.105 448.416 168.822C451.182 181.552 452.633 192.34 451.711 193.183C450.868 193.968 446.651 195.262 442.356 195.949C433.627 197.322 433.784 197.558 428.88 171.961C425.349 153.347 427.037 154.74 411.325 157.799C402.989 159.408 397.458 161.388 397.458 162.781C397.458 163.997 399.144 173.275 401.223 183.317C404.734 200.48 404.735 201.618 401.753 203.835C397.693 206.836 386.513 206.836 385.434 203.835ZM483.272 144.696C483.978 117.962 484.958 94.659 485.507 92.8152C486.351 90.1476 488.097 89.5993 495.158 90.0701L503.73 90.5992L503.278 124.768C502.964 143.618 502.278 166.685 501.67 176.1L500.591 193.183H481.977L483.272 144.696ZM851.516 785.389C850.83 783.231 850.751 780.249 851.36 778.719C851.968 777.111 851.123 775.503 849.515 774.816C847.22 773.973 849.064 770.521 858.4 758.418C888.587 719.189 911.281 675.35 927.973 623.94C936.564 597.519 939.468 592.38 941.841 599.736C943.077 603.639 946.45 605.032 946.45 601.737C946.45 600.658 947.373 599.815 948.432 599.815C954.493 599.815 932.426 661.483 912.733 699.654C901.003 722.563 871.817 767.461 859.93 780.936C853.359 788.527 852.576 788.919 851.516 785.389Z" fill="#25549A"/>
</svg>
