<svg width="964" height="760" viewBox="0 0 964 760" fill="none" xmlns="http://www.w3.org/2000/svg">
<path fill-rule="evenodd" clip-rule="evenodd" d="M522.713 657.792C522.713 657.393 525.209 651.464 528.323 644.597L533.872 632.2H526.387C521.077 632.2 518.981 631.423 518.981 629.407C518.981 627.211 521.476 626.591 530.279 626.591C537.226 626.591 541.577 627.37 541.577 628.628C541.577 629.786 538.783 636.972 535.429 644.597C531.217 654.199 528.323 658.49 525.987 658.49C524.19 658.57 522.713 658.251 522.713 657.792ZM549.303 656.854C544.852 654.04 548.764 651.244 555.691 652.322C560.921 653.18 562.258 652.802 562.258 650.307C562.258 648.59 560.142 646.393 557.567 645.395C551.719 643.12 551.499 640.166 557.108 639.387C564.115 638.449 562.318 633.139 555.072 633.459C546.349 633.838 547.427 627.77 556.25 626.911C564.594 626.133 568.027 629.327 567.708 637.671C567.628 641.404 568.027 646.254 568.806 648.43C571.301 656.076 557.567 662.064 549.303 656.854ZM599.287 645.316C597.89 628.069 598.589 626.591 607.712 626.591C618.551 626.591 622.443 629.247 622.443 636.733C622.443 644.059 619.949 646.713 612.084 647.571C607.552 648.11 606.314 649.209 605.835 653.421C605.535 656.235 604.199 658.571 602.881 658.571C601.164 658.571 600.065 654.279 599.287 645.316ZM615.736 639.926C617.772 636.652 614.498 632.2 610.046 632.2C606.453 632.2 605.536 633.219 605.536 636.892C605.536 640.625 606.454 641.643 610.127 641.643C612.622 641.643 615.197 640.864 615.736 639.926ZM730.917 649.588C730.358 648.809 737.783 643.359 747.205 637.51C826.594 588.863 882.886 518.059 901.91 443.043C907.599 420.585 911.033 388.845 909.795 370.201C909.017 359.062 909.315 355.629 911.191 355.629C916.96 355.629 916.881 390.642 911.032 425.874C897.617 506.66 837.652 587.765 752.515 640.465C735.288 651.084 732.554 652.243 730.917 649.588ZM441.848 646.314C441.848 644.378 443.805 643.519 448.396 643.519C453.007 643.519 455.023 644.378 455.023 646.314C455.023 648.27 453.007 649.128 448.396 649.128C443.805 649.128 441.848 648.27 441.848 646.314ZM577.289 646.254C577.289 644.058 578.867 643.439 583.298 643.819C591.882 644.677 592.5 649.128 583.996 649.128C579.166 649.128 577.289 648.35 577.289 646.254ZM761.019 596.888C760.3 595.71 758.603 595.171 757.186 595.71C753.134 597.267 754.69 588.225 758.822 586.049C761.877 584.492 762.955 584.792 764.591 587.926C765.689 590.022 766.089 592.197 765.37 592.676C764.671 593.215 763.733 594.852 763.274 596.35C762.655 598.286 761.937 598.446 761.019 596.969V596.888ZM107.567 528.738C102.416 526.622 100.699 521.253 103.135 514.785C106.628 505.583 105.63 500.672 99.9213 499.414C89.4812 497.079 88.0039 496.38 85.1893 492.088C82.5344 488.036 82.6142 487.018 86.1274 480.071C91.4373 469.631 91.1975 468.932 81.536 464.8C69.4391 459.57 67.3433 453.882 73.7311 444.2C79.6598 435.317 79.1007 433.062 69.7586 428.071C65.0675 425.576 62.5724 422.761 62.1132 419.647C61.6342 415.835 61.9535 415.355 63.9097 417.231C67.423 420.665 71.2358 420.106 71.2358 416.293C71.2358 413.718 71.6151 413.559 72.9525 415.595C73.8907 417.152 75.5277 417.611 76.9251 416.752C78.4022 415.834 78.8811 416.054 78.1026 417.312C77.4039 418.39 77.9432 419.726 79.1809 420.265C81.0573 421.044 81.0573 421.284 79.1809 421.364C75.987 421.604 76.2262 426.194 79.6597 429.089C83.6321 432.362 83.173 439.768 78.7215 445.457C72.713 453.103 73.8907 456.676 83.8716 461.447C94.2318 466.438 96.0287 471.507 90.8785 481.089C86.5268 489.193 88.0839 492.089 98.2844 494.664C109.204 497.379 112.018 502.07 108.824 511.971C105.77 521.173 107.107 524.127 114.753 525.684C119.663 526.702 120.442 527.401 118.246 528.819C114.833 530.915 112.956 530.914 107.567 528.738ZM314.212 508.457C312.874 507.998 312.954 498.955 314.512 477.736C314.831 474.003 314.511 465.658 313.893 459.251C313.274 452.863 313.433 447.175 314.292 446.636C315.15 446.156 315.769 444.14 315.769 442.184C315.769 438.291 326.289 434.379 336.05 434.619C427.515 437.114 430.55 437.033 430.55 432.901C430.55 430.725 431.787 429.009 433.364 429.009C435.001 429.009 436.239 427.371 436.239 425.256C436.239 422.521 437.496 421.524 440.69 421.524C444.503 421.524 445.282 420.345 446.3 412.779C448.016 400.004 447.777 389.784 445.521 385.652C444.204 383.077 444.204 381.979 445.521 381.979C446.619 381.979 447.477 380.741 447.477 379.264C447.477 377.767 448.875 375.751 450.591 374.812C453.087 373.415 453.466 371.219 452.608 363.653C451.989 358.503 452.148 353.513 453.007 352.595C453.785 351.657 455.582 346.746 456.979 341.676C458.616 335.508 462.129 329.658 467.28 324.289C477.181 313.909 480.215 308.22 478.578 303.069C477.8 300.574 478.418 297.301 480.295 294.486C481.932 291.991 483.269 288.178 483.269 286.082C483.269 283.966 484.128 282.249 485.126 282.249C486.144 282.249 487.002 284.285 487.002 286.701C487.002 289.196 488.18 292.151 489.577 293.329C491.054 294.486 492.611 299.795 493.09 305.105C493.869 313.21 495.106 315.705 500.736 320.615C511.255 329.898 519.36 350.399 517.563 363.574C516.705 369.982 517.264 371.699 520.758 374.333C524.67 377.308 524.969 379.105 525.049 397.19C525.209 419.567 525.609 421.524 530.519 421.524C532.456 421.524 534.032 422.76 534.032 424.317C534.032 425.954 535.35 427.751 536.827 428.31C538.384 428.929 539.722 431.026 539.722 433.062C539.722 436.655 540.959 436.714 585.334 435.855C610.446 435.316 633.043 434.858 635.618 434.778C644.601 434.379 656.358 438.67 656.358 442.343C656.358 444.2 657.217 446.235 658.315 446.934C659.632 447.792 659.573 449.05 657.996 450.827C655.74 453.641 656.838 494.105 659.413 503.866C660.57 508.158 660.271 508.217 646.696 508.217C639.051 508.217 561.48 508.377 474.286 508.617C387.113 508.776 315.15 508.696 314.292 508.377L314.212 508.457ZM556.41 507.14C555.931 506.741 536.667 506.201 513.751 506.041C483.968 505.802 471.951 505.103 471.871 503.626C471.871 502.149 471.412 502.149 470.394 503.786C469.376 505.343 460.573 506.201 441.769 506.66C426.797 506.979 446.699 507.359 485.904 507.598C525.129 507.838 556.869 507.678 556.41 507.219V507.14ZM455.502 502.848C449.034 502.449 438.415 502.449 431.947 502.848C425.48 503.227 430.789 503.546 443.725 503.546C456.68 503.546 461.97 503.227 455.502 502.848ZM543.934 502.848C538.464 502.449 529.58 502.449 524.111 502.848C518.741 503.307 523.193 503.546 534.032 503.546C544.851 503.546 549.303 503.307 543.934 502.848ZM357.17 495.821C357.17 488.336 357.789 488.575 331.279 488.336C317.725 488.256 317.725 488.256 317.725 495.362C317.645 502.369 317.645 502.369 337.447 502.369C357.17 502.369 357.17 502.369 357.17 495.821ZM326.369 497.319C324.193 495.043 325.211 491.07 328.006 491.07C329.563 491.07 330.82 492.328 330.82 493.805C330.82 496.919 328.165 499.095 326.369 497.319ZM334.633 494.883C334.633 492.787 335.411 491.07 336.509 491.07C337.527 491.07 338.386 492.787 338.386 494.883C338.386 496.919 337.527 498.636 336.509 498.636C335.411 498.636 334.633 496.919 334.633 494.883ZM342.738 495.681C342.119 494.044 342.598 491.769 343.756 490.612C345.313 489.055 345.871 489.752 345.871 493.565C345.871 499.174 344.454 500.193 342.738 495.681ZM380.964 499.095C381.024 497.778 381.264 495.442 381.424 493.965C381.503 492.388 383.3 491.07 385.396 491.07C388.291 491.07 389.149 492.328 389.149 496.76C389.149 502.369 389.149 502.369 404.2 502.369C416.357 502.369 419.251 501.83 419.251 499.574C419.251 497.698 421.108 496.76 424.861 496.76C429.232 496.76 430.55 495.901 430.55 493.186C430.55 488.894 420.249 487.797 382.601 488.116C359.984 488.256 359.985 488.256 359.426 495.442C358.807 502.609 358.807 502.609 369.726 501.99C376.753 501.671 380.805 500.592 380.964 499.095ZM362.16 497.378C359.905 495.043 360.923 491.07 363.797 491.07C365.354 491.07 366.612 492.787 366.612 494.883C366.612 498.636 364.576 499.734 362.16 497.378ZM371.602 497.378C369.347 495.043 370.265 491.07 373.159 491.07C374.716 491.07 375.974 492.787 375.974 494.883C375.974 498.636 374.018 499.734 371.602 497.378ZM392.962 494.883C392.962 492.787 393.74 491.07 394.838 491.07C395.856 491.07 396.714 492.787 396.714 494.883C396.714 496.919 395.856 498.636 394.838 498.636C393.74 498.636 392.962 496.919 392.962 494.883ZM402.324 495.043C402.324 492.707 403.561 491.15 405.278 491.15C407.075 491.15 408.013 492.388 407.614 494.264C406.775 498.955 402.324 499.654 402.324 495.043ZM411.765 494.883C411.765 492.787 413.003 491.07 414.56 491.07C416.117 491.07 417.375 492.787 417.375 494.883C417.375 496.919 416.117 498.636 414.56 498.636C413.003 498.636 411.765 496.919 411.765 494.883ZM582.919 496.76C582.919 492.328 583.777 491.07 586.732 491.07C589.626 491.07 590.484 492.328 590.484 496.76C590.484 502.369 590.484 502.369 601.863 502.369C613.241 502.369 613.242 502.369 612.703 495.362C612.084 488.256 612.083 488.255 584.775 488.196C547.666 487.956 541.577 488.735 541.577 493.186C541.577 495.681 542.915 496.76 546.029 496.76C548.445 496.76 551.559 498.017 552.817 499.574C554.534 501.59 559.044 502.369 569.025 502.369C582.918 502.369 582.919 502.369 582.919 496.76ZM554.693 494.883C554.693 492.787 555.551 491.07 556.629 491.07C557.647 491.07 558.505 492.787 558.505 494.883C558.505 496.919 557.647 498.636 556.629 498.636C555.551 498.636 554.693 496.919 554.693 494.883ZM564.115 494.883C564.115 492.787 564.973 491.07 565.991 491.07C567.009 491.07 567.867 492.787 567.867 494.883C567.867 496.919 567.009 498.636 565.991 498.636C564.973 498.636 564.115 496.919 564.115 494.883ZM573.557 494.883C573.557 492.787 574.416 491.07 575.434 491.07C576.452 491.07 577.289 492.787 577.289 494.883C577.289 496.919 576.452 498.636 575.434 498.636C574.416 498.636 573.557 496.919 573.557 494.883ZM596.094 494.883C596.094 492.787 596.952 491.07 597.97 491.07C599.048 491.07 599.827 492.787 599.827 494.883C599.827 496.919 599.048 498.636 597.97 498.636C596.952 498.636 596.094 496.919 596.094 494.883ZM605.536 494.883C605.536 492.787 606.394 491.07 607.392 491.07C608.41 491.07 609.268 492.787 609.268 494.883C609.268 496.919 608.41 498.636 607.392 498.636C606.394 498.636 605.536 496.919 605.536 494.883ZM464.864 499.255C463.607 498.716 461.511 498.716 460.173 499.255C458.856 499.814 459.954 500.193 462.509 500.193C465.084 500.193 466.182 499.734 464.864 499.255ZM441.469 492.467C441.07 489.832 439.353 488.036 436.638 487.636C433.205 487.177 432.426 487.956 432.426 491.929C432.426 495.821 433.364 496.76 437.257 496.76C441.229 496.76 442.008 495.981 441.469 492.467ZM539.641 492.947C539.641 490.212 538.384 489.193 534.951 489.193C531.537 489.193 530.279 490.212 530.279 492.947C530.279 495.742 531.537 496.76 534.951 496.76C538.384 496.76 539.641 495.742 539.641 492.947ZM495.885 486C494.109 485.541 491.134 485.541 489.338 486C487.541 486.479 489.038 486.858 492.611 486.858C496.284 486.858 497.762 486.479 495.885 486ZM413.163 484.064C403.022 483.665 386.574 483.665 376.433 484.064C366.372 484.364 374.636 484.683 394.838 484.683C414.959 484.683 423.224 484.364 413.163 484.064ZM594.756 484.064C585.254 483.665 569.185 483.665 559.044 484.064C548.923 484.364 556.709 484.683 576.372 484.683C596.014 484.683 604.278 484.364 594.756 484.064ZM654.422 469.472C654.422 456.456 653.943 453.482 651.608 453.482C649.352 453.482 648.813 456.377 648.813 468.533V483.584H622.443V468.533C622.443 454.74 622.144 453.482 618.71 453.482C615.197 453.482 614.877 454.74 614.877 469.472V485.462H654.422V469.472ZM494.028 463.303C493.629 459.41 493.25 462.605 493.25 470.41C493.25 478.135 493.629 481.329 494.028 477.417C494.408 473.524 494.408 467.215 494.028 463.303ZM536.667 482.407C539.163 481.489 539.641 477.576 539.641 459.171C539.641 437.034 539.641 437.033 532.694 435.855C525.368 434.698 522.255 435.796 526.067 438.131C527.864 439.209 527.944 442.025 526.546 449.59C521.695 474.862 525.369 486.779 536.667 482.407ZM336.509 468.533C339.164 468.533 340.182 470.17 340.721 475.56C341.18 479.452 341.659 476.099 341.819 468.074C342.118 453.482 342.119 453.482 336.509 453.482C330.82 453.482 330.82 453.482 331.12 468.074C331.28 476.019 331.838 479.452 332.218 475.56C332.757 470.17 333.775 468.533 336.509 468.533ZM334.014 463.463C333.315 462.764 332.757 460.669 332.757 458.793C332.757 454.581 337.527 454.18 339.084 458.312C340.961 463.083 337.288 466.816 334.014 463.463ZM363.718 470.41C365.135 470.41 366.912 473.144 367.69 476.498L369.107 482.646L370.744 476.498C372.84 468.613 377.91 468.294 377.91 476.019C377.91 479.133 378.689 481.708 379.787 481.708C380.805 481.708 381.663 479.133 381.663 476.019C381.663 472.286 382.601 470.41 384.458 470.41C386.334 470.41 387.272 472.286 387.272 476.019C387.272 479.133 388.131 481.708 389.149 481.708C390.227 481.708 391.006 479.073 391.006 475.939C391.006 471.427 391.804 470.25 394.359 470.789C396.715 471.268 397.493 472.985 397.094 476.578C396.794 479.373 397.413 481.708 398.491 481.708C399.589 481.708 400.447 479.133 400.447 476.019C400.447 471.647 401.305 470.41 404.2 470.41C407.154 470.41 407.933 471.647 407.933 476.019C407.933 479.133 408.791 481.708 409.889 481.708C410.907 481.708 411.765 479.133 411.765 476.019C411.765 472.286 412.684 470.41 414.56 470.41C416.437 470.41 417.375 472.286 417.375 476.019C417.375 479.133 418.233 481.708 419.251 481.708C420.249 481.708 421.108 479.133 421.108 476.019C421.108 472.286 422.046 470.41 423.922 470.41C425.879 470.41 426.797 472.286 426.797 476.019C426.797 479.133 427.655 481.708 428.673 481.708C429.771 481.708 430.55 475.72 430.55 467.595V453.482H359.046L359.365 468.074C359.505 476.099 359.985 479.852 360.364 476.498C360.843 472.985 362.24 470.41 363.718 470.41ZM361.302 460.669C362.16 454.66 366.612 453.962 366.612 459.89C366.612 463.084 365.594 464.721 363.638 464.721C361.701 464.721 360.923 463.384 361.302 460.669ZM372.221 459.89C372.221 453.962 376.673 454.66 377.531 460.669C377.91 463.384 377.132 464.721 375.176 464.721C373.239 464.721 372.221 463.084 372.221 459.89ZM381.663 459.89C381.663 453.962 386.015 454.66 386.953 460.669C387.352 463.384 386.574 464.721 384.618 464.721C382.661 464.721 381.663 463.084 381.663 459.89ZM391.405 460.669C392.263 454.66 396.714 453.962 396.714 459.89C396.714 463.084 395.696 464.721 393.74 464.721C391.804 464.721 391.005 463.384 391.405 460.669ZM402.324 459.95C402.324 457.235 403.182 455.599 404.2 456.297C405.278 456.916 406.057 459.111 406.057 461.127C406.057 463.083 405.198 464.721 404.2 464.721C403.182 464.721 402.324 462.605 402.324 459.95ZM411.765 460.967C411.765 458.871 413.003 457.235 414.56 457.235C416.117 457.235 417.375 458.871 417.375 460.967C417.375 463.083 416.117 464.721 414.56 464.721C413.003 464.721 411.765 463.083 411.765 460.967ZM421.108 461.207C421.108 459.251 422.445 457.155 424.002 456.536C426.018 455.758 426.797 456.756 426.797 460.11C426.797 463.004 425.719 464.8 424.002 464.8C422.445 464.8 421.108 463.164 421.108 461.207ZM450.751 461.527C450.352 457.614 450.033 460.808 450.033 468.533C450.033 476.339 450.352 479.453 450.751 475.64C451.13 471.728 451.13 465.339 450.751 461.527ZM463.926 466.198C463.527 462.844 463.147 465.18 463.147 471.348C463.068 477.576 463.447 480.31 463.926 477.496C464.305 474.701 464.305 469.631 463.926 466.198ZM467.499 475.64C467.04 474.303 466.581 475.401 466.581 477.976C466.581 480.551 467.04 481.568 467.499 480.31C468.058 478.993 468.058 476.878 467.499 475.64ZM478.977 460.588C478.578 456.137 478.278 459.331 478.278 467.595C478.278 475.859 478.578 479.533 478.977 475.64C479.356 471.808 479.356 465.02 478.977 460.588ZM507.203 461.527C506.804 457.614 506.425 460.808 506.425 468.533C506.425 476.339 506.804 479.453 507.203 475.64C507.583 471.728 507.583 465.339 507.203 461.527ZM522.255 461.527C521.856 457.614 521.477 460.808 521.477 468.533C521.477 476.339 521.856 479.453 522.255 475.64C522.634 471.728 522.634 465.339 522.255 461.527ZM547.666 470.789C550.241 470.25 550.939 471.427 550.939 475.939C550.939 479.133 551.799 481.708 552.817 481.708C553.915 481.708 554.693 479.133 554.693 476.098C554.693 472.286 555.631 470.41 557.567 470.41C559.444 470.41 560.382 472.286 560.382 476.098C560.382 479.133 561.24 481.708 562.258 481.708C563.256 481.708 564.115 479.133 564.115 476.098C564.115 472.286 565.053 470.41 566.929 470.41C568.806 470.41 569.744 472.286 569.744 476.098C569.744 479.133 570.602 481.708 571.68 481.708C572.698 481.708 573.557 479.133 573.557 476.098C573.557 471.647 574.335 470.41 577.289 470.41C580.184 470.41 581.043 471.647 581.043 476.098C581.043 479.133 581.901 481.708 582.919 481.708C583.937 481.708 584.775 479.133 584.775 476.098C584.775 472.286 585.714 470.41 587.67 470.41C589.546 470.41 590.484 472.286 590.484 476.098C590.484 479.133 591.343 481.708 592.341 481.708C593.359 481.708 594.217 479.133 594.217 476.098C594.217 472.286 595.155 470.41 597.032 470.41C598.908 470.41 599.827 472.286 599.827 476.098C599.827 479.133 600.685 481.708 601.703 481.708C602.801 481.708 603.66 479.133 603.66 476.098C603.66 467.674 610.586 468.074 611.684 476.498C612.083 479.852 612.543 476.099 612.703 468.074L613.022 453.482H541.518L541.737 468.074C541.817 477.416 542.357 480.631 543.155 477.038C543.854 473.844 545.789 471.108 547.666 470.789ZM545.331 459.95C545.331 454.041 549.782 454.66 550.641 460.669C551.02 463.384 550.241 464.8 548.285 464.8C546.348 464.8 545.331 463.084 545.331 459.95ZM554.693 460.11C554.693 457.155 555.771 455.358 557.567 455.358C559.284 455.358 560.382 457.155 560.382 460.11C560.382 463.004 559.284 464.8 557.567 464.8C555.771 464.8 554.693 463.004 554.693 460.11ZM564.434 460.748C565.372 454.66 569.744 454.041 569.744 459.95C569.744 463.084 568.725 464.8 566.849 464.8C564.813 464.8 564.035 463.383 564.434 460.748ZM575.434 459.95C575.434 457.235 576.371 455.358 577.449 455.758C578.547 456.137 579.405 457.075 579.325 457.774C579.245 458.552 579.165 460.429 579.165 461.986C579.165 463.543 578.387 464.8 577.289 464.8C576.291 464.8 575.434 462.605 575.434 459.95ZM584.855 459.95C584.855 454.041 589.227 454.66 590.165 460.748C590.564 463.383 589.706 464.8 587.75 464.8C585.874 464.8 584.775 463.084 584.775 459.95H584.855ZM594.617 460.748C595.475 454.66 599.906 454.041 599.906 459.95C599.906 463.084 598.829 464.8 596.953 464.8C594.916 464.8 594.137 463.383 594.537 460.748H594.617ZM605.536 460.11C605.536 457.535 606.234 455.358 607.172 455.358C608.091 455.358 608.81 457.535 608.81 460.11C608.81 462.685 608.091 464.8 607.172 464.8C606.234 464.8 605.536 462.685 605.536 460.11ZM635.618 468.533C638.353 468.533 639.371 470.251 639.91 475.64C640.309 479.533 640.769 476.099 640.929 468.074C641.328 453.482 641.327 453.482 635.618 453.482C630.627 453.482 629.929 454.121 629.929 459.171C629.929 462.305 628.911 464.881 627.594 464.94C625.717 465.02 625.717 465.26 627.594 466.038C628.911 466.597 630.089 470.49 630.329 474.862C630.628 482.647 630.627 482.647 631.346 475.64C631.885 470.251 632.903 468.533 635.618 468.533ZM633.282 460.189C632.583 456.376 633.123 455.358 636.017 455.358C638.672 455.358 639.53 456.456 639.051 459.491C638.193 465.339 634.38 465.798 633.282 460.189ZM460.652 460.029C460.652 454.739 459.954 453.482 456.9 453.482C453.865 453.482 453.166 454.739 453.166 460.029C453.166 465.419 453.865 466.657 456.9 466.657C459.954 466.657 460.652 465.419 460.652 460.029ZM475.384 459.571C475.843 454.421 475.304 453.482 472.031 453.482C468.837 453.482 468.218 454.659 468.218 460.189C468.218 469.232 474.446 468.694 475.384 459.571ZM502.752 462.386C504.628 455.279 504.089 453.402 500.177 453.402C497.143 453.402 496.444 454.739 496.444 460.029C496.444 467.595 500.876 469.232 502.752 462.386ZM517.105 460.029C517.105 454.739 516.405 453.402 513.351 453.402C510.317 453.402 509.539 454.739 509.539 460.029C509.539 465.339 510.317 466.597 513.351 466.597C516.405 466.597 517.105 465.339 517.105 460.029ZM488.878 458.952C488.878 451.307 482.551 451.846 481.692 459.571C481.233 463.703 481.852 464.721 484.966 464.721C488.1 464.721 488.878 463.543 488.878 458.952ZM402.783 450.129C387.033 449.829 361.222 449.829 345.393 450.129C329.643 450.528 342.598 450.767 374.097 450.767C405.677 450.767 418.613 450.448 402.783 450.129ZM467.28 449.75C467.898 448.652 467.579 447.793 466.501 447.793C465.483 447.793 464.166 448.652 463.447 449.75C462.828 450.768 463.148 451.626 464.226 451.626C465.244 451.626 466.581 450.768 467.28 449.75ZM483.269 448.572C483.269 448.192 480.055 447.873 476.163 448.033C469.995 448.193 469.775 448.333 473.827 449.59C478.199 450.828 483.269 450.288 483.269 448.572ZM493.55 449.75C494.248 448.652 493.31 447.793 491.673 447.793C490.036 447.793 489.178 448.652 489.816 449.75C490.435 450.768 491.294 451.626 491.673 451.626C492.072 451.626 492.931 450.768 493.55 449.75ZM506.724 449.75C504.708 448.812 501.734 448.032 500.177 447.953C497.682 447.873 497.682 448.113 500.177 449.75C501.734 450.688 504.708 451.466 506.724 451.466C510.557 451.307 510.557 451.307 506.724 449.75ZM615.896 449.75C596.253 449.131 587.51 448.412 596.553 448.272C609.808 447.873 613.022 447.254 613.022 444.979C613.022 442.723 609.887 442.184 596.094 442.184C583.937 442.184 579.166 441.565 579.006 439.848C578.946 437.972 578.707 437.972 577.929 439.848C577.29 441.485 571.68 442.184 559.284 442.184C544.792 442.184 541.577 442.723 541.577 444.979C541.577 447.334 545.091 447.873 560.841 448.193L580.104 448.572L560.382 449.75C548.604 450.448 562.957 450.827 596.094 450.827C646.158 450.827 648.094 450.768 615.896 449.75ZM356.711 444.519C357.329 442.723 352.658 442.184 337.607 442.184C319.741 442.184 313.353 443.821 320.061 446.636C324.971 448.652 355.932 446.935 356.711 444.519ZM430.55 444.979C430.55 442.563 425.32 442.184 394.838 442.184C364.276 442.184 359.046 442.563 359.046 444.979C359.046 447.414 364.276 447.793 394.838 447.793C425.32 447.793 430.55 447.414 430.55 444.979ZM648.334 446.396C661.05 444.439 653.723 442.184 634.68 442.184C616.434 442.184 612.702 443.122 616.295 446.636C617.693 448.113 638.273 447.873 648.334 446.396ZM524.591 444.14C524.591 443.122 512.114 442.103 494.947 441.784C459.874 441.085 447.477 441.705 447.477 444.14C447.477 445.218 463.068 445.917 486.064 445.917C509.22 445.917 524.591 445.218 524.591 444.14ZM343.596 437.114C341.74 436.655 338.386 436.574 336.05 437.034C333.694 437.493 335.192 437.891 339.324 437.891C343.456 437.971 345.393 437.573 343.596 437.114ZM520.837 434C520.837 429.788 520.058 429.468 504.149 428.37C494.946 427.751 479.357 427.671 469.535 428.37C452.608 429.468 451.53 429.788 450.751 434C449.893 438.431 449.893 438.431 485.365 438.431C520.837 438.431 520.837 438.431 520.837 434ZM637.036 437.114C635.239 436.655 632.265 436.655 630.488 437.114C628.612 437.573 630.089 437.972 633.762 437.972C637.335 437.972 638.832 437.573 637.036 437.114ZM445.122 431.505C443.346 431.025 439.992 430.945 437.636 431.424C435.301 431.883 436.778 432.283 440.91 432.283C445.042 432.283 446.919 431.963 445.122 431.424V431.505ZM534.491 431.424C532.156 430.945 528.323 430.945 526.067 431.424C523.732 431.883 525.608 432.203 530.279 432.203C534.95 432.203 536.827 431.883 534.491 431.424ZM472.889 425.336C482.011 423.859 481.931 423.858 468.218 423.698C460.413 423.619 450.671 424.238 446.539 425.096C439.592 426.593 439.912 426.674 451.29 426.733C457.997 426.733 467.739 426.114 472.889 425.336ZM532.156 425.176C532.156 424.019 524.051 423.38 511.016 423.619C494.567 423.859 491.913 424.178 499.239 425.176C514.29 427.292 532.156 427.292 532.156 425.176ZM478.977 420.265C485.684 418.468 484.587 412.001 477.64 412.001C473.668 412.001 472.35 412.78 473.049 414.657C473.667 416.134 473.208 417.85 472.11 418.548C470.853 419.247 470.074 418.169 470.074 415.894C470.074 412.62 468.916 412.001 462.449 412.001C453.546 412.001 447.477 414.736 447.477 418.629C447.477 420.825 450.432 421.444 461.111 421.364C468.597 421.364 476.702 420.884 478.977 420.265ZM522.713 417.85C522.713 413.479 519.2 412.001 508.52 412.001C502.212 412.001 500.496 412.621 501.275 414.657C501.893 416.054 501.434 417.85 500.257 418.548C499.099 419.247 498.301 418.169 498.301 415.894C498.301 412.859 497.063 412.001 492.611 412.001C488.32 412.001 487.002 412.86 487.002 415.674C487.002 419.966 490.355 420.824 509.08 421.203C521.316 421.363 522.713 421.044 522.713 417.85ZM509.539 416.693C509.539 415.196 510.398 413.878 511.496 413.878C512.494 413.878 513.351 415.196 513.351 416.693C513.351 418.25 512.494 419.567 511.496 419.567C510.398 419.567 509.539 418.25 509.539 416.693ZM514.449 397.888C514.609 386.59 514.609 386.59 513.91 397.35C513.272 405.374 512.353 408.268 509.918 408.967C507.582 409.666 507.743 409.825 510.557 409.506C513.831 409.206 514.289 407.71 514.449 397.888ZM463.926 390.881C463.527 387.528 463.147 389.784 463.147 396.012C463.147 402.26 463.447 404.995 463.926 402.181C464.305 399.366 464.305 394.295 463.926 390.881ZM471.951 395.633C471.951 389.704 471.252 385.732 470.394 386.75C468.917 388.447 469.615 406.393 471.172 406.393C471.571 406.393 471.951 401.562 471.951 395.633ZM481.932 394.615C482.551 387.588 482.171 385.652 479.976 385.652C478.199 385.652 477.56 386.75 478.339 388.686C478.977 390.323 479.516 395.154 479.596 399.445C479.756 408.808 480.694 406.851 481.932 394.615ZM491.673 385.951C489.338 383.615 488.1 388.606 488.719 397.269L489.577 407.331L490.975 396.95C491.753 391.261 492.072 386.35 491.673 385.951ZM499.319 386.11C497.382 384.174 497.142 386.59 498.16 396.95L499.159 407.331L499.797 397.19C500.097 391.661 499.878 386.669 499.319 386.11ZM507.124 391.8C506.725 388.926 506.346 391.261 506.346 396.95C506.346 402.639 506.725 404.995 507.124 402.1C507.583 399.286 507.583 394.615 507.124 391.8ZM486.064 382.837C495.346 382.837 507.662 383.456 513.351 384.255C522.015 385.492 523.113 385.333 519.899 383.317C514.449 379.883 454.245 380.042 450.891 383.455C448.875 385.492 450.272 385.651 458.776 384.394C464.465 383.535 476.702 382.837 486.064 382.837ZM486.064 377.228C497.442 377.228 509.919 377.766 513.831 378.465C517.724 379.184 520.837 379.104 520.837 378.246C520.837 371.219 454.484 371.379 450.113 378.405C449.494 379.403 452.468 379.563 457.219 378.625C461.73 377.846 474.686 377.228 486.064 377.228ZM460.652 361.158C461.59 361.158 462.668 363.494 463.068 366.388C463.766 371.219 463.846 371.139 464.165 365.45C464.465 357.725 468.218 357.346 468.218 364.991C468.218 368.724 469.156 370.6 471.013 370.6C472.969 370.6 473.827 368.644 473.827 364.053C473.827 360.38 474.685 357.426 475.703 357.426C476.701 357.426 477.56 360.46 477.56 364.212C477.56 368.724 478.338 370.68 479.915 370.122C481.233 369.662 482.331 366.927 482.331 364.053C482.331 356.328 486.623 355.868 487.321 363.434C487.7 366.847 488.798 369.662 489.816 369.662C490.815 369.662 491.992 366.847 492.312 363.434C493.01 356.327 497.142 356.169 497.302 363.195C497.382 369.343 500.955 370.062 501.734 364.133C502.513 357.426 505.786 358.124 505.786 364.991C505.786 368.105 506.645 370.6 507.663 370.6C508.761 370.6 509.539 368.484 509.539 365.929C509.539 359.062 512.973 360.14 513.831 367.327C514.61 373.415 514.609 373.415 514.908 366.548C515.228 359.681 515.149 359.602 505.727 357.586C500.497 356.488 491.613 355.549 486.064 355.549C480.455 355.549 471.651 356.488 466.421 357.586C456.979 359.602 456.899 359.681 457.219 366.548C457.458 373.415 457.458 373.415 458.237 367.327C458.616 363.973 459.714 361.238 460.652 361.238V361.158ZM490.755 354.771C506.584 354.851 509 354.531 502.991 353.134C494.108 351.177 465.483 352.594 458.776 355.389C455.023 356.866 455.822 357.026 462.509 355.948C467.2 355.23 479.915 354.691 490.755 354.771ZM513.053 350.879C510.857 348.683 485.904 346.586 476.163 347.664C466.182 348.842 466.88 349.081 486.064 350.02C497.442 350.559 508.362 351.178 510.398 351.417C512.354 351.657 513.592 351.417 513.053 350.958V350.879ZM463.147 337.224C464.625 332.773 465.483 329.2 465.004 329.2C463.926 329.2 458.776 341.756 458.776 344.55C458.776 348.143 460.173 345.808 463.147 337.224ZM472.031 338.86C472.11 336.126 473.288 330.756 474.685 326.784C478.119 317.182 473.747 320.616 468.297 331.855C463.307 342.135 463.227 346.108 468.138 344.79C470.713 344.171 471.951 342.214 472.031 338.86ZM510.557 338.781C509.859 335.587 508.601 332.633 507.822 332.074C507.044 331.615 507.283 334.569 508.361 338.622C510.636 347.205 512.414 347.285 510.557 338.781ZM477.56 339.8C477.56 337.305 477.959 332.473 478.498 328.96C479.357 322.792 479.277 322.872 476.782 330.138C473.588 339.261 473.208 344.251 475.703 344.251C476.701 344.251 477.56 342.215 477.56 339.8ZM490.755 340.577C490.755 333.551 486.683 317.881 485.046 318.899C482.87 320.216 478.977 339.959 480.375 342.374C482.63 345.967 490.755 344.55 490.755 340.577ZM495.745 337.224C495.026 333.332 494.108 328.021 493.55 325.446C492.691 321.314 492.931 321.394 495.346 326.384C496.903 329.498 498.16 334.809 498.24 338.162C498.24 342.993 499.099 344.251 502.053 344.251C506.585 344.251 507.044 338.941 503.151 331.455C500.256 325.846 492.691 318.201 492.611 320.936C492.611 321.874 491.673 321.394 490.595 319.758C488.958 317.502 488.798 317.722 489.896 320.776C490.675 322.792 491.673 328.96 492.152 334.35C492.691 339.8 493.949 344.251 494.947 344.251C496.125 344.251 496.444 341.436 495.745 337.224ZM486.463 303.389C485.984 301.512 485.525 302.61 485.445 305.724C485.445 308.759 485.824 310.316 486.383 308.998C486.842 307.74 486.922 305.185 486.383 303.389H486.463ZM487.401 294.965C485.604 293.248 484.587 293.248 482.87 294.965C481.073 296.761 481.632 297.22 485.126 297.22C488.639 297.22 489.118 296.682 487.401 294.965ZM654.422 494.824C654.422 487.338 654.403 487.338 643.743 487.338C635.399 487.338 633.522 487.876 635.239 489.593C637.894 492.248 638.273 498.636 635.777 498.636C634.759 498.636 633.762 496.3 633.363 493.486C632.983 489.893 631.806 488.336 629.55 488.495C627.674 488.655 623.701 488.894 620.567 488.974C615.437 489.194 614.958 489.752 614.958 495.741C614.958 502.368 614.957 502.369 634.68 502.369C654.362 502.369 654.422 502.369 654.422 494.883V494.824ZM625.558 497.319C623.302 495.043 624.32 491.07 627.134 491.07C628.691 491.07 630.008 492.328 630.008 493.805C630.008 496.919 627.274 499.095 625.558 497.319ZM641.248 494.962C641.248 492.946 642.105 490.75 643.103 490.132C644.201 489.513 644.98 491.07 644.98 493.805C644.98 496.46 644.201 498.636 643.103 498.636C642.105 498.636 641.248 496.999 641.248 494.962ZM357.17 469.391C357.17 454.739 356.87 453.482 353.437 453.482C350.003 453.482 349.684 454.739 349.684 468.613V483.745L336.969 483.205L324.273 482.567L323.714 467.995C323.335 457.156 322.476 453.402 320.52 453.402C318.584 453.402 317.785 457.394 317.326 469.391L316.707 485.462H357.17V469.391ZM445.282 459.731C444.902 446.516 445.361 438.131 446.539 437.572C447.537 437.193 444.823 436.715 440.451 436.655L432.426 436.495V458.952C432.426 480.77 432.566 481.409 436.638 482.107C445.681 483.505 446.06 482.487 445.282 459.731ZM163.4 490.132C163.4 488.575 175.417 482.885 181.266 481.708C186.396 480.63 186.955 479.772 187.414 472.126C188.831 448.332 195.139 418.948 202.226 402.719C204.721 397.19 206.358 392.279 205.979 391.879C205.579 391.5 202.865 393.217 199.89 395.712C196.856 398.208 193.962 400.144 193.343 400.005C192.724 399.925 189.829 402.499 187.035 405.853C184.22 409.266 181.346 411.621 180.627 411.222C179.929 410.763 177.673 413.957 175.637 418.169L171.904 425.955L171.285 417.231C170.346 402.34 182.204 386.191 194.68 385.412C196.616 385.332 195.678 384.634 192.564 383.936C189.29 383.157 184.38 383.616 180.787 385.093C175.956 387.049 174.718 387.129 174.638 385.253C174.638 383.396 174.239 383.396 173.221 385.093C171.744 387.369 161.523 391.96 160.366 390.802C159.028 389.465 167.292 378.166 171.744 375.272C181.805 368.644 193.183 368.484 205.739 374.653C208.793 376.13 208.713 375.75 205.12 372.696C202.705 370.6 201.307 368.025 201.926 366.927C202.625 365.849 201.846 364.991 200.289 364.991C195.838 364.991 187.893 360.859 188.971 359.062C189.53 358.204 188.033 357.506 185.618 357.426C177.054 357.426 175.497 354.231 183.043 352.115C190.928 349.939 199.81 351.018 205.979 355.01C208.933 356.867 216.199 368.025 217.137 371.998C217.197 372.237 221.329 370.281 226.4 367.786C236.461 362.636 241.531 361.797 239.435 365.45C238.417 367.247 238.656 367.327 240.513 365.61C243.407 362.955 247 364.133 255.105 370.122C263.05 375.97 262.89 378.165 254.706 376.289C250.653 375.431 248.078 375.511 248.078 376.689C248.078 377.607 245.363 378.326 242.01 378.166C233.186 377.687 231.17 378.006 231.17 379.803C231.17 380.741 233.506 381.979 236.381 382.538C247.539 384.794 257.52 397.35 257.52 409.267C257.52 414.118 257.44 414.117 248.078 406.232C242.928 401.86 238.656 396.95 238.576 395.313C238.417 393.217 238.097 393.057 237.399 394.774C236.62 396.651 235.383 396.491 231.47 393.996C226.48 390.802 226.48 390.801 230.612 395.313C235.602 400.862 240.593 412.241 240.513 418.09C240.513 420.426 238.876 425.815 237.019 429.947L233.586 437.433L232.169 428.529C231.39 423.619 230.152 419.966 229.374 420.425C227.497 421.602 223.445 408.189 224.922 405.774C225.621 404.756 225.162 404.515 223.905 405.294C222.507 406.152 220.471 403.737 218.215 398.507L214.702 390.403L211.907 397.19C203.324 417.471 198.173 448.572 200.21 467.755C201.447 479.453 201.447 479.452 209.492 481.488C213.843 482.566 219.473 485.142 221.968 487.178C226.479 490.911 226.48 490.911 194.9 490.991C177.593 490.991 163.4 490.691 163.4 490.132ZM750.958 437.972C749.94 436.654 748.623 434.218 747.984 432.582C746.267 427.671 717.182 426.513 712.431 431.184C707.681 436.015 704.407 435.557 697.7 429.009C694.566 425.875 690.753 423.379 689.355 423.379C686.241 423.379 684.046 418.25 686.541 416.752C687.479 416.134 688.338 412.779 688.338 409.346C688.338 405.853 688.876 401.562 689.515 399.845C690.753 396.731 712.511 385.731 717.582 385.731C719.059 385.731 721.555 382.997 723.271 379.643C728.661 369.043 733.412 365.37 744.55 363.034C756.488 360.539 787.368 361.797 796.87 365.131C802.719 367.167 810.605 376.908 810.605 382.058C810.605 383.455 813.179 386.749 816.293 389.384C823.699 395.712 827.132 411.143 821.822 414.038C819.966 415.036 817.85 418.329 817.231 421.443C815.355 429.787 804.675 431.344 802.18 423.539C801.241 420.584 800.084 420.505 785.572 423.16C770.221 425.955 769.901 426.114 766.927 433.141C764.372 439.149 762.955 440.307 758.284 440.307C755.25 440.307 751.896 439.289 750.958 437.972ZM763.195 423.46C763.654 419.028 763.114 417.531 761.318 418.169C760 418.629 758.603 421.742 758.284 425.096C757.805 429.627 758.364 431.105 760.16 430.486C761.478 430.007 762.876 426.893 763.195 423.46ZM728.581 422.462C727.403 417.691 730.217 416.453 739.02 417.691C741.356 418.01 741.356 417.61 739.02 414.896C737.463 412.939 736.147 412.48 735.748 413.798C735.288 414.896 732.932 415.834 730.437 415.834C726.704 415.834 725.926 416.753 725.926 421.524C725.926 424.638 726.784 427.133 727.862 427.133C728.96 427.133 729.28 425.177 728.581 422.462ZM751.177 426.034C756.806 423.858 751.956 421.524 741.836 421.524C732.314 421.524 728.421 423.699 733.95 425.874C737.304 427.292 747.684 427.371 751.177 426.034ZM700.893 416.293C700.414 414.497 700.036 415.974 700.036 419.647C700.036 423.24 700.414 424.716 700.893 422.92C701.353 421.123 701.353 418.17 700.893 416.293ZM724.049 422.462C724.049 420.266 721.634 419.647 713.689 419.647C697.38 419.647 701.053 424.318 717.96 425.017C722.252 425.176 724.049 424.398 724.049 422.462ZM697.7 420.585C697.7 418.789 695.903 417.77 693.008 417.77C687.159 417.77 686.781 420.964 692.55 422.062C694.886 422.521 697 423 697.22 423.16C697.539 423.24 697.7 422.142 697.7 420.585ZM814.336 416.693C814.336 415.196 813.499 413.958 812.481 413.958C811.463 413.958 810.605 415.754 810.605 417.85C810.605 419.966 811.463 421.204 812.481 420.585C813.499 419.967 814.336 418.17 814.336 416.693ZM729.2 412.7C727.403 412.241 724.449 412.241 722.652 412.7C720.856 413.179 722.333 413.558 725.926 413.558C729.579 413.558 731.076 413.179 729.2 412.7ZM745.329 409.426C746.507 406.472 742.375 401.94 740.338 403.977C739.64 404.675 739.101 406.771 739.101 408.648C739.101 412.7 743.852 413.259 745.329 409.426ZM697.7 404.596C697.7 402.5 696.441 400.783 694.884 400.783C693.327 400.783 692.07 402.5 692.07 404.596C692.07 406.632 693.327 408.348 694.884 408.348C696.441 408.348 697.7 406.711 697.7 404.596ZM760.939 399.445C758.982 397.509 757.425 400.383 758.982 402.958C760.24 404.834 760.62 404.834 761.238 402.958C761.718 401.641 761.558 400.064 760.939 399.445ZM789.245 382.917C789.784 381.36 789.784 378.006 789.086 375.431C786.67 365.77 774.812 371.139 774.812 381.898C774.812 385.092 775.99 385.731 781.439 385.731C785.651 385.731 788.547 384.714 789.245 382.917ZM768.884 376.829C769.423 370.68 769.422 370.681 750.558 370.681C731.694 370.681 731.695 370.68 728.8 376.289C725.926 381.818 725.926 381.819 740.498 382.538C767.946 383.776 768.185 383.775 768.884 376.829ZM802.879 378.405C801.082 373.415 795.233 369.742 792.818 372.157C791.34 373.635 791.501 381.121 793.058 382.598C793.756 383.316 796.65 383.855 799.525 383.855C804.515 383.855 804.675 383.615 802.879 378.405ZM69.4393 389.784C69.3595 385.173 68.3412 383.317 65.6264 382.538C63.5105 381.979 61.794 380.901 61.794 380.043C61.794 379.184 63.5105 377.926 65.6264 377.308C68.2614 376.449 69.3595 374.413 69.3595 370.281C69.3595 364.432 69.3594 364.432 73.8109 368.564C77.1645 371.778 79.5002 372.477 83.3928 371.459C88.543 370.202 88.5428 370.202 85.4287 375.052C82.4544 379.564 82.4544 380.183 85.4287 384.714C88.7025 389.705 87.9242 390.323 81.5963 387.748C78.7218 386.59 76.8452 387.368 73.6513 391.181C69.4393 396.092 69.4393 396.092 69.4393 389.784ZM889.593 391.181C887.258 387.987 886 387.668 881.648 389.305C875.719 391.581 875.081 390.402 879.612 385.332C882.567 382.058 882.566 381.519 879.532 376.289C876.258 370.76 876.259 370.76 881.489 372.696C886.16 374.493 887.178 374.193 890.991 369.422C895.203 364.132 895.203 364.132 895.203 370.979C895.203 376.828 895.982 378.006 900.433 379.184C905.583 380.581 905.583 380.582 900.433 382.378C896.381 383.776 895.203 385.413 895.203 389.705C895.203 396.092 893.566 396.571 889.593 391.181ZM903.946 327.782C887.258 250.669 838.371 183.777 760.241 131.058C722.812 105.786 665.342 80.4545 617.293 68.0581C606.694 65.3234 598.05 62.5084 598.05 61.7299C598.05 55.0227 656.519 72.2702 701.134 92.0724C763.275 119.6 825.415 169.105 861.906 220.267C888.036 256.917 912.21 316.484 912.21 344.391C912.21 356.947 908.776 350.099 903.946 327.782ZM889.055 344.95C888.276 343.692 886.479 343.073 885.141 343.612C883.365 344.331 882.646 342.913 882.806 339.101C882.965 335.667 883.904 333.871 885.222 334.41C886.479 334.889 888.894 332.473 890.691 329.12C894.184 322.253 893.406 321.015 880.391 313.908C873.444 310.095 872.905 305.185 878.514 296.122C883.425 288.098 882.187 284.744 873.684 283.108C869.951 282.409 865.419 279.833 863.403 277.258C859.97 272.887 859.89 272.268 862.765 264.543C866.438 254.562 865.1 250.291 858.174 250.291C855.279 250.291 850.607 249.113 847.872 247.636C844.139 245.68 842.503 245.519 841.724 247.156C840.946 248.793 840.387 248.714 839.608 247.017C838.989 245.679 836.654 244.581 834.458 244.581C830.885 244.521 830.726 244.282 833.221 242.246C834.858 241.008 835.795 238.273 835.396 236.237C834.697 233.043 835.018 232.883 837.653 235.079C839.928 236.956 841.326 237.036 843.202 235.539C845.139 233.902 845.698 234.301 845.538 237.415C845.298 243.344 849.43 243.722 850.927 237.953C852.564 231.186 849.211 227.753 840.867 227.753C829.708 227.753 826.754 224.399 828.071 213.161C829.389 201.543 827.671 199.527 816.053 199.527C806.392 199.527 801.801 196.093 803.977 190.544C805.154 187.59 805.534 187.749 806.931 191.482C808.349 195.155 809.985 195.694 818.788 195.694C831.664 195.694 834.08 198.27 832.602 210.586C831.345 221.425 833.221 223.92 842.583 223.92C853.103 223.92 856.536 227.434 855.279 236.956C854.261 244.441 854.42 244.821 859.57 245.919C862.544 246.458 866.437 248.573 868.234 250.589C871.348 254.023 871.349 254.642 867.995 263.765C864.641 273.127 864.641 273.526 867.995 275.941C869.951 277.338 872.825 278.517 874.462 278.517C879.612 278.517 885.86 284.126 885.86 288.877C885.86 291.292 884.064 296.283 881.948 299.876C877.656 307.122 877.736 307.122 889.593 314.848C896.54 319.299 899.175 327.323 895.362 331.994C894.184 333.331 893.805 335.827 894.424 337.543C895.123 339.18 894.743 340.577 893.646 340.577C892.627 340.577 891.469 342.054 891.07 343.851C890.611 346.186 889.992 346.507 888.974 344.95H889.055ZM71.2358 340.039C71.2358 338.482 69.7586 336.765 67.9621 336.286C64.7682 335.428 64.7682 335.348 67.9621 335.188C71.5552 334.969 72.6333 326.704 69.3595 324.588C66.6248 322.952 67.0237 313.21 69.8384 310.874C71.1558 309.776 74.5094 308.38 77.3241 307.681C86.2071 305.405 87.3852 302.131 82.4546 292.849C78.2427 284.984 78.2425 284.365 81.2168 279.753C83.173 276.799 86.906 274.464 90.9583 273.746C100.64 271.889 102.656 268.536 98.843 260.491C97.1263 256.918 95.7094 252.845 95.7094 251.448C95.7094 248.334 101.798 242.805 105.231 242.805C110.301 242.725 122.079 238.812 122.079 237.175C122.079 236.237 119.743 235.159 116.849 234.76C112.258 234.141 112.098 233.902 115.451 232.664C124.334 229.311 124.873 228.372 124.414 218.85C123.795 207.153 127.069 203.739 139.925 202.941C149.367 202.322 149.367 202.322 149.906 192.041C150.684 178.148 152.401 176.511 165.196 177.21C175.636 177.849 175.637 177.849 176.655 167.788C177.832 156.55 182.124 151.559 189.29 153.355C191.626 153.894 195.678 154.833 198.253 155.472C202.086 156.39 203.244 155.691 204.801 151.639C205.819 148.844 206.677 144.632 206.677 142.277C206.677 139.941 208.394 136.428 210.49 134.572C214.003 131.438 215.261 131.377 223.605 133.473C234.524 136.287 236.78 135.35 236.78 128.024C236.78 124.97 238.796 120.219 241.371 117.324C245.663 112.274 246.222 112.115 252.131 114.61C263.689 119.361 267.102 118.502 269.996 110.318C274.667 97.0629 279.518 95.0262 292.134 101.035C299.859 104.708 303.612 102.831 305.469 94.168C307.744 83.8876 314.671 81.6923 325.909 87.7008C335.571 92.8509 333.555 93.9491 343.137 78.1792C346.65 72.4102 354.295 71.9507 361.002 77.2605C367.849 82.5504 371.842 81.9322 374.796 74.8457C377.451 68.5977 382.901 62.7485 384.618 64.4652C385.157 65.0042 383.679 68.757 381.424 72.7294C372.62 88.2398 369.406 89.5772 359.126 81.9318C350.303 75.4642 348.527 75.9232 343.596 86.1437C338.546 96.7435 333.934 98.2205 324.193 92.232C315.929 87.1617 312.874 88.2402 309.062 97.9217C304.69 108.761 300.718 110.397 290.497 105.327C280.297 100.177 277.083 101.275 274.527 110.777C271.952 120.458 268.519 123.093 260.794 121.536C245.503 118.342 243.786 118.901 241.611 127.465C238.736 139.003 234.904 142.217 227.258 139.562C214.562 135.111 210.49 137.286 210.43 148.365C210.43 151.18 209.791 154.453 209.013 155.611C206.757 159.204 198.253 161.779 195.299 159.903C187.653 154.992 179.389 160.602 181.645 169.105C182.264 171.441 181.345 175.274 179.549 177.989C176.575 182.52 175.557 182.759 167.372 181.661C156.234 180.104 153.958 182.44 154.517 194.677C154.976 206.155 151.163 209.588 139.705 207.872C130.183 206.454 127.149 209.887 129.804 219.089C130.722 222.283 131.042 227.194 130.423 229.929C129.644 233.442 130.263 235.459 132.519 236.717C135.334 238.274 135.334 238.593 132.599 239.591C130.962 240.31 129.564 242.325 129.564 244.122C129.485 247.316 129.325 247.316 127.528 244.202C126.051 241.547 124.873 241.308 121.839 242.865C119.823 243.963 114.593 245.52 110.221 246.298C101.638 247.795 101.099 249.432 104.293 264.943C105.93 272.808 103.434 275.702 92.8346 278.357C83.2329 280.773 82.6143 282.728 88.3035 293.787C91.8168 300.733 91.9763 301.832 89.3214 305.805C87.7644 308.22 83.9518 310.714 80.8178 311.413C71.3159 313.529 70.0579 317.023 75.6872 325.527C79.5797 331.296 80.1986 333.871 78.8812 337.224C77.9429 339.64 77.0847 340.818 77.0049 339.959C77.0049 339.021 75.6073 339.34 74.0503 340.658C71.7746 342.534 71.2358 342.454 71.2358 340.039ZM213.624 258.474C212.925 257.776 212.287 251.448 212.287 244.362C212.287 234.142 212.925 231.486 215.181 231.486C217.836 231.486 218.295 232.504 218.774 239.051C218.834 240.528 220.012 241.786 221.269 241.627C222.587 241.547 224.843 241.307 226.4 241.167C227.957 241.008 229.673 238.812 230.392 236.237C231.011 233.602 232.727 231.486 234.205 231.486C236.161 231.486 236.78 234.839 236.78 245.599C236.78 256.598 236.161 259.712 234.045 259.712C232.408 259.712 231.171 257.376 230.771 253.644C230.312 248.493 229.374 247.396 225.002 246.936C220.95 246.457 219.852 247.076 219.852 250.051C219.852 257.536 216.738 261.668 213.624 258.474ZM242.389 258.075C242.389 257.137 244.425 250.989 246.92 244.441C253.148 227.833 257.52 227.194 262.75 242.165C264.766 248.174 267.102 254.642 267.82 256.439C269.757 261.189 263.828 260.73 261.253 255.979C260.095 253.783 257.281 252.227 254.706 252.227C251.831 252.227 249.795 253.564 249.016 255.979C247.859 259.632 242.389 261.349 242.389 258.075ZM257.44 246.079C257.44 243.025 253.768 237.335 253.768 240.31C253.708 241.467 253.148 243.802 252.609 245.439C251.831 247.395 252.45 248.414 254.486 248.414C256.123 248.414 257.44 247.396 257.44 246.079ZM273.43 255.341C272.811 252.925 272.572 246.857 272.871 241.707C273.51 232.425 273.51 232.425 281.694 231.886C292.214 231.107 294.01 233.043 294.489 245.679C294.948 257.297 292.693 259.712 281.155 259.712C275.765 259.712 274.288 258.854 273.35 255.341H273.43ZM288.561 250.291C288.561 248.714 286.605 247.237 284.269 246.857C281.075 246.458 280.057 247.236 280.057 250.291C280.057 253.405 281.075 254.182 284.269 253.703C286.605 253.404 288.561 251.848 288.561 250.291ZM286.605 239.051C286.605 237.494 285.127 235.937 283.331 235.618C281.075 235.159 280.057 236.177 280.057 239.051C280.057 241.866 281.075 242.864 283.331 242.405C285.127 242.086 286.605 240.528 286.605 239.051ZM300.718 254.562C309.301 226.815 312.735 224.858 320.281 243.722C323.015 250.509 325.211 256.838 325.211 257.836C325.211 261.269 319.821 259.712 318.644 255.979C317.785 253.404 315.769 252.146 312.096 252.146C308.443 252.146 306.566 253.324 305.868 255.979C305.309 257.995 303.612 259.712 302.035 259.712C299.78 259.712 299.48 258.634 300.718 254.562ZM315.769 247.636C315.769 247.157 315.29 245.519 314.671 243.882C313.034 239.67 310.159 240.149 310.159 244.661C310.159 246.776 311.397 248.414 312.954 248.414C314.511 248.414 315.769 248.095 315.769 247.636ZM330.82 245.599C330.82 228.531 334.333 226.736 342.598 239.531L347.728 247.476V239.531C347.728 233.682 348.526 231.486 350.622 231.486C352.878 231.486 353.437 234.3 353.437 245.599C353.437 262.826 351.081 263.764 342.598 249.811L336.509 239.99V249.811C336.509 257.376 335.811 259.712 333.695 259.712C331.439 259.712 330.82 256.917 330.82 245.599ZM360.923 257.377C360.923 256.059 362.779 249.731 365.055 243.263C370.265 228.292 374.397 227.513 379.946 240.449C384.937 252.007 386.494 259.712 383.839 259.712C382.661 259.712 380.885 257.995 379.787 255.979C378.609 253.783 375.814 252.146 373.159 252.146C370.504 252.146 367.77 253.783 366.612 255.979C364.356 260.111 361.002 260.97 360.923 257.377ZM375.974 246.079C375.974 244.741 375.255 242.565 374.337 241.227C373.079 239.211 372.54 239.372 371.602 241.867C369.726 246.698 370.125 248.414 373.159 248.414C374.716 248.414 375.974 247.396 375.974 246.079ZM431.788 258.474C429.292 255.899 430.71 254.103 435.301 254.103C439.752 254.103 439.992 253.564 439.992 242.805C439.992 233.982 440.611 231.486 442.787 231.486C446.38 231.486 446.838 253.944 443.345 257.457C440.91 259.873 433.904 260.491 431.788 258.474ZM456.9 255.979C454.404 253.484 453.166 249.651 453.166 244.82C453.166 232.264 465.803 225.956 475.225 233.741C476.562 234.839 477.56 239.83 477.56 244.82C477.56 252.006 476.782 254.422 473.428 256.758C467.739 260.81 461.431 260.491 456.9 255.979ZM471.013 245.839C471.013 237.175 466.581 232.964 461.73 237.036C455.343 242.326 459.474 254.801 467.2 253.644C470.314 253.244 471.013 251.688 471.013 245.839ZM487.461 258.474C486.144 257.916 485.126 256.359 485.126 254.962C485.126 253.085 486.922 252.706 491.992 253.564C500.337 254.882 500.097 251.209 491.533 246.458C483.728 242.166 482.95 234.061 490.116 231.406C493.869 229.929 496.663 230.008 499.877 231.406C505.167 233.821 503.69 236.177 496.903 236.177C489.817 236.177 489.737 239.751 496.823 242.865C510.936 249.113 501.814 264.243 487.461 258.474ZM511.496 245.599C511.496 231.486 511.495 231.486 520.837 231.486C526.067 231.486 530.279 232.344 530.279 233.363C530.279 234.381 527.325 235.239 523.732 235.239C518.342 235.239 517.105 235.938 517.105 238.972C517.105 241.946 518.342 242.805 522.713 242.805C525.827 242.805 528.403 243.662 528.403 244.661C528.403 245.679 525.827 246.537 522.713 246.537C518.342 246.537 517.105 247.396 517.105 250.291C517.105 253.325 518.342 254.023 523.732 254.023C528.323 254.023 530.279 254.881 530.279 256.917C530.279 259.013 528.023 259.712 520.837 259.712C511.495 259.712 511.496 259.712 511.496 245.599ZM549.143 252.626C549.143 231.107 555.63 223.921 560.92 239.531C562.717 244.661 564.114 246.537 564.813 244.661C565.452 243.103 566.77 239.531 567.788 236.636C570.523 229.31 577.289 229.47 577.289 236.876C577.289 239.831 577.849 246.218 578.467 250.989C579.485 258.075 579.165 259.712 576.83 259.712C574.874 259.712 573.557 256.918 572.539 250.829L571.141 241.867L568.406 249.891C564.893 260.271 561.699 259.951 558.046 248.872L555.072 239.99L554.913 249.891C554.833 257.297 554.053 259.712 551.878 259.712C549.921 259.712 549.064 257.696 549.143 252.705V252.626ZM584.855 257.296C584.855 251.447 593.758 232.424 596.713 231.805C599.986 231.187 606.534 243.503 608.729 254.562C609.967 260.651 606.614 261.509 603.66 255.979C602.482 253.783 599.687 252.146 597.032 252.146C594.457 252.146 591.642 253.783 590.484 255.979C588.209 260.191 584.855 260.969 584.855 257.296ZM599.827 246.079C599.827 244.741 599.128 242.565 598.27 241.227C596.952 239.211 596.413 239.372 595.475 241.867C593.598 246.698 593.978 248.414 597.032 248.414C598.589 248.414 599.827 247.396 599.827 246.079ZM616.215 258.474C615.516 257.776 614.958 251.448 614.958 244.362C614.958 231.487 614.958 231.486 624.4 231.486C632.505 231.486 634.141 232.105 635.479 235.698C636.637 238.593 636.337 241.308 634.46 244.202C632.125 247.855 632.124 249.192 634.68 254.103C637.335 259.173 637.335 259.712 634.62 259.712C632.983 259.712 630.249 257.137 628.452 254.103C624.779 247.635 621.584 247.635 621.584 254.023C621.505 258.474 618.63 260.89 616.215 258.555V258.474ZM629.07 239.99C629.07 237.875 627.674 236.017 625.957 235.618C622.763 234.999 619.788 240.07 621.665 243.024C623.621 246.158 629.07 243.883 629.07 239.99ZM648.813 247.476C648.813 236.477 648.414 235.239 645.06 235.239C642.964 235.239 641.248 234.381 641.248 233.363C641.248 232.344 645.919 231.486 651.608 231.486C657.297 231.486 661.988 232.344 661.988 233.363C661.988 234.381 660.271 235.239 658.234 235.239C654.801 235.239 654.422 236.477 654.422 247.476C654.422 257.058 653.863 259.712 651.608 259.712C649.432 259.712 648.813 257.058 648.813 247.476ZM669.474 245.599C669.474 234.3 670.092 231.486 672.348 231.486C674.604 231.486 675.163 234.3 675.163 245.599C675.163 256.917 674.604 259.712 672.348 259.712C670.092 259.712 669.474 256.917 669.474 245.599ZM695.824 245.599C695.824 234.3 696.363 231.486 698.638 231.486C700.894 231.486 701.512 234.3 701.512 245.599C701.512 256.917 700.894 259.712 698.638 259.712C696.363 259.712 695.824 256.917 695.824 245.599ZM710.874 245.599C710.874 228.531 714.388 226.736 722.652 239.531L727.803 247.476V239.372C727.803 232.664 728.421 231.327 731.076 231.886C736.845 232.884 736.765 259.712 730.996 259.712C729.658 259.712 725.926 255.28 722.572 249.811L716.484 239.99V249.811C716.484 257.376 715.785 259.712 713.689 259.712C711.413 259.712 710.874 256.917 710.874 245.599ZM748.543 247.476C748.543 236.477 748.143 235.239 744.71 235.239C742.694 235.239 740.977 234.381 740.977 233.363C740.977 232.344 745.648 231.486 751.337 231.486C757.026 231.486 761.717 232.344 761.717 233.363C761.717 234.381 760 235.239 757.884 235.239C754.531 235.239 754.152 236.477 754.152 247.476C754.152 257.058 753.532 259.712 751.337 259.712C749.081 259.712 748.543 257.058 748.543 247.476ZM766.308 257.696C764.372 254.562 768.723 250.909 771.299 253.564C773.494 255.74 772.077 259.712 769.203 259.712C768.265 259.712 767.007 258.774 766.308 257.696ZM402.324 248.414C402.324 247.396 404.899 246.537 408.013 246.537C411.047 246.537 413.622 247.396 413.622 248.414C413.622 249.432 411.047 250.291 408.013 250.291C404.899 250.291 402.324 249.432 402.324 248.414ZM662.926 205.675C657.297 204.437 654.422 199.667 654.422 191.562C654.422 183.378 653.643 182.839 633.901 178.787C621.984 176.291 621.744 176.351 618.87 180.723C611.225 192.181 610.666 192.501 602.182 190.165C597.81 188.987 594.217 187.191 594.217 186.193C594.217 184.856 636.097 125.987 645.998 113.351C646.238 113.052 650.37 113.831 655.201 114.989C665.102 117.484 664.563 116.087 667.757 144.932C668.915 155.771 671.031 173.557 672.348 184.476C673.686 195.316 674.384 204.817 673.905 205.596C672.967 207.093 669.075 207.152 662.926 205.675ZM653.863 168.008C653.404 167.229 652.466 159.823 651.767 151.639C651.069 143.375 650.29 136.428 649.97 136.129C649.112 135.27 633.442 158.824 633.522 160.92C633.522 161.938 637.415 163.735 642.246 164.973C647.096 166.23 651.448 167.708 652.087 168.327C653.644 169.884 654.801 169.665 653.803 167.948L653.863 168.008ZM328.944 194.617C313.034 187.75 302.674 169.665 302.674 148.765C302.674 134.332 305.01 128.024 310.619 128.024C313.972 127.944 314.292 127.545 312.096 126.227C307.964 123.652 315.609 116.166 327.706 111.016C337.906 106.644 352.579 106.564 360.763 111.016C364.356 112.892 364.496 113.592 362.24 119.041C359.825 124.97 359.665 125.049 346.091 125.129C332.996 125.209 332.217 125.449 326.768 131.517C321.458 137.526 321.079 138.703 321.777 149.922C322.316 157.887 321.857 161.86 320.44 161.86C319.362 161.86 316.787 163.097 314.751 164.594C311.317 167.089 311.477 167.229 317.326 167.089C321.777 167.009 325.211 168.566 329.483 172.698C332.837 175.812 337.448 178.927 339.703 179.646C346.73 181.742 357.01 178.628 363.099 172.619C368.628 167.09 369.027 167.009 373.858 169.884C381.104 174.256 380.964 178.148 373.239 185.415C361.861 196.254 342.119 200.306 328.944 194.617ZM342.119 113.911C340.881 112.334 338.925 111.096 337.907 111.096C336.909 111.096 337.048 112.334 338.386 113.911C339.623 115.468 341.58 116.705 342.598 116.705C343.596 116.705 343.456 115.468 342.119 113.911ZM773.336 183.917C771.859 182.2 769.502 181.422 767.646 182.141C764.911 183.139 764.831 182.84 767.087 180.105C768.504 178.388 769.203 175.813 768.644 174.495C768.025 172.859 769.124 172 771.779 172.079C775.272 172.219 775.91 171.062 776.369 163.576C777.068 152.118 774.193 149.622 763.594 152.496C752.814 155.391 747.604 151.879 746.127 141.119C744.63 130.28 742.693 128.722 733.87 131.596C721.713 135.649 717.881 134.012 714.527 123.413C711.034 112.414 709.397 111.555 698.777 115.608C694.346 117.324 689.435 118.182 687.798 117.563C684.365 116.246 679.913 106.485 681.63 103.77C682.249 102.672 680.772 100.497 678.277 98.8599C673.606 95.8057 668.774 96.5838 664.163 101.115C658.075 107.124 648.494 102.213 645.919 91.6727C644.043 84.2669 640.23 83.4085 631.107 88.399C620.807 94.0083 616.834 93.0108 611.524 83.3293C606.534 74.2865 602.242 73.1887 594.756 79.1174C587.27 84.9662 581.821 83.9678 576.291 75.5439C573.636 71.4916 569.584 67.6589 567.308 67.12C564.274 66.3415 563.815 65.4836 565.372 63.9266C568.965 60.3335 575.273 63.9257 579.246 71.7109C583.697 80.4542 585.174 80.6744 594.537 74.1269C603.959 67.6592 609.807 69.0562 614.877 78.9772C619.868 88.7985 621.425 89.4177 628.851 84.8863C632.264 82.7105 637.334 80.9936 639.989 80.9936C645.06 80.9936 650.67 87.0017 650.67 92.4513C650.67 99.4779 656.059 100.795 664.782 96.0442C675.621 90.1156 681.55 92.3713 684.584 103.53C687.079 112.892 690.374 114.45 698.858 110.398C702.451 108.681 706.582 107.343 708.139 107.343C712.75 107.343 718.441 114.53 718.441 120.219C718.441 128.024 722.493 130.818 729.979 128.163C742.535 123.811 750.399 127.784 750.399 138.544C750.478 147.746 752.514 149.143 763.813 147.906C776.848 146.349 779.184 148.045 780.422 160.382C781.44 170.363 781.44 170.362 791.5 169.804C797.19 169.504 802.72 170.203 804.217 171.441C807.251 173.936 807.79 180.643 804.995 180.643C803.897 180.643 803.119 179.405 803.119 177.848C803.119 176.291 802.42 174.954 801.641 174.954C792.119 174.175 778.625 174.335 778.625 175.194C778.625 175.733 779.643 177.21 780.901 178.467C782.617 180.184 782.458 180.723 780.122 180.723C778.405 180.723 776.768 182.14 776.449 183.837C775.83 186.651 775.591 186.652 773.336 183.917ZM419.092 177.07C406.835 170.363 403.342 161.16 401.066 129.88C398.571 94.8666 398.112 97.0633 408.472 96.3647C415.738 95.9654 417.375 96.4445 417.375 98.8599C417.375 104.789 421.267 147.826 422.206 152.038C423.843 159.524 429.771 163.736 438.575 163.736C455.582 163.576 457.838 157.887 454.803 122.096C452.148 90.436 452.308 89.9566 464.465 90.815C471.951 91.3739 470.933 86.9218 473.049 129.88C474.526 159.363 472.889 165.591 461.67 174.175C452.308 181.281 429.691 182.839 419.092 177.07ZM520.538 179.086C514.69 178.388 509.299 177.29 508.601 176.591C506.884 174.874 514.909 95.5858 517.025 93.4698C519.759 90.7351 560.223 95.8854 568.108 99.8578C580.584 106.266 582.839 124.271 572.299 133.394C567.787 137.366 567.548 138.005 570.363 139.641C580.803 145.41 581.441 164.734 571.46 174.255C566.071 179.485 564.813 179.785 548.525 180.024C539.023 180.184 526.387 179.705 520.538 179.086ZM557.408 162.717C560.622 159.524 561.24 153.036 558.825 149.143C556.789 145.95 546.189 143.055 536.448 143.055C528.403 143.055 528.403 143.055 528.403 150.401C528.403 154.453 527.864 159.044 527.325 160.601C526.067 163.815 530.36 164.893 545.65 165.372C551.499 165.512 555.471 164.674 557.408 162.717ZM558.825 125.589C561.16 122.015 560.622 115.547 557.807 113.192C556.41 112.034 550.081 110.557 543.694 109.839C530.898 108.521 532.156 107.124 531.377 123.812C531.058 129.581 555.311 131.218 558.825 125.589ZM201.068 176.351C201.068 174.574 199.112 172.299 196.776 171.361C193.582 170.043 193.343 169.585 195.838 169.505C197.794 169.505 199.192 167.947 199.192 165.911C199.192 163.416 200.589 162.477 204.661 162.477C208.394 162.477 209.791 163.256 209.093 165.053C208.634 166.45 209.173 168.806 210.49 170.363C212.367 172.698 212.207 173.158 209.492 173.158C207.695 173.158 205.04 174.655 203.643 176.431C201.307 179.565 201.148 179.565 201.148 176.351H201.068ZM403.482 82.0914C404.28 79.9755 403.561 79.037 401.146 79.037C397.872 78.9771 397.872 78.8975 400.926 77.1009C402.703 76.003 404.2 73.7474 404.28 71.9508C404.28 68.9166 404.42 68.9166 406.216 71.9508C407.394 73.987 409.27 74.7653 411.287 73.9868C414.101 72.8889 414.181 73.1886 412.065 75.8435C410.668 77.5603 410.049 79.8353 410.747 80.9132C411.366 81.9313 411.127 82.87 410.109 82.87C409.111 82.87 406.915 83.3287 405.278 84.0274C403.102 84.8259 402.563 84.3471 403.421 82.0914H403.482ZM487.321 81.3933C483.808 78.9779 482.171 78.898 479.357 80.6147C474.067 83.8885 473.288 83.4096 474.685 77.8003C475.703 73.8279 475.065 72.0302 471.651 69.3752C467.279 66.0216 467.279 66.0217 473.208 65.9418C477.959 65.9418 479.516 64.9245 480.914 60.7126C482.71 55.5824 482.71 55.5824 485.206 60.7126C486.842 64.3855 489.038 65.9418 492.312 65.9418C497.063 65.9418 497.063 65.9418 493.17 70.1538C490.116 73.4275 489.657 75.3848 490.975 78.8981C493.25 84.667 492.691 84.9665 487.321 81.3933ZM552.198 83.3293C551.499 82.0916 549.842 81.5331 548.525 82.0122C547.127 82.5512 546.188 80.9935 545.949 78.0391C545.789 75.3842 546.188 73.6677 546.727 74.2865C547.346 74.8454 548.764 74.5253 549.842 73.5871C551.179 72.4892 553.355 72.889 555.691 74.6057C558.126 76.4023 558.745 77.8002 557.327 78.7384C556.249 79.4371 554.912 81.3136 554.453 82.7908C553.834 84.747 553.136 84.8863 552.198 83.3293ZM438.115 75.6839C438.115 73.5879 437.337 71.632 436.319 71.2527C435.381 70.9333 435.86 68.9161 437.337 66.88C439.433 64.0055 440.451 63.6865 441.628 65.5629C442.487 67.0401 444.503 67.4191 446.699 66.5608C449.813 65.403 449.973 65.6434 447.937 68.1386C446.619 69.7755 446.14 72.5697 446.839 74.4461C447.777 76.8615 447.477 77.4009 445.84 76.4028C444.583 75.6243 442.327 76.0029 440.85 77.2605C438.574 79.117 438.115 78.8978 438.115 75.6839ZM518.203 77.4798C517.404 76.1624 515.627 75.4642 514.289 76.0032C512.732 76.622 511.955 75.4636 512.115 72.649C512.414 67.8182 520.837 62.4296 520.837 67.0408C520.837 68.518 522.334 69.6957 524.051 69.6957C526.926 69.6957 526.925 69.9153 524.27 72.0313C522.633 73.3488 520.918 75.6238 520.538 77.1009C519.84 79.2768 519.361 79.3563 518.203 77.4798ZM587.75 45.3622C587.131 44.424 587.43 43.1055 588.368 42.5466C589.306 41.9278 590.565 42.7861 591.184 44.2633C592.341 47.3174 589.547 48.2367 587.75 45.3622ZM578.227 43.3251C578.866 42.327 580.185 41.4695 581.203 41.4695C582.141 41.4695 582.919 42.327 582.919 43.3251C582.919 44.423 581.661 45.2014 580.024 45.2014C578.388 45.2014 577.609 44.3432 578.227 43.3251ZM441.848 758.06C343.456 751.592 244.106 718.676 167.153 666.995C79.6596 608.187 24.6051 531.772 5.10235 441.944C0.431274 420.345 -1.60512 367.326 1.44905 346.187C2.60684 338.481 3.62503 330.836 3.70488 329.279C4.02427 325.207 9.39398 300.415 10.412 298.698C10.8712 297.919 12.5278 298.558 14.0848 300.115C16.1808 302.211 17.8179 302.45 20.4728 301.053C24.2057 299.017 23.5868 293.168 19.774 294.565C18.5963 295.044 16.4203 294.646 15.023 293.707C12.7473 292.31 13.0671 289.974 16.8 279.374C19.2952 272.428 22.3493 266.34 23.587 265.881C24.8446 265.402 25.3833 263.844 24.8443 262.527C23.6666 259.333 38.259 230.089 50.9547 210.286C59.3787 197.112 60.7758 195.695 62.1132 199.208C65.3071 207.931 72.2538 200.925 70.6169 190.624C69.5988 184.316 70.3776 182.599 80.119 170.742C95.0106 152.576 124.873 124.75 149.287 106.346C266.403 18.1541 428.593 -18.0377 586.492 8.55149C679.374 24.2216 771.698 66.721 837.732 124.032C847.014 132.156 847.015 132.156 847.255 146.029C847.334 153.675 847.174 159.982 846.855 159.982C846.476 159.982 838.291 152.976 828.689 144.472C644.601 -19.1352 328.005 -20.3734 139.705 141.737C118.485 159.982 103.195 176.131 83.712 200.844C77.7833 208.41 72.0943 214.498 71.0762 214.498C69.9783 214.498 69.5991 215.357 70.2179 216.275C70.8367 217.293 67.962 223.622 63.8299 230.329C53.9288 246.538 48.0003 258.315 41.0536 276.022C37.8597 284.126 34.4263 291.531 33.5679 292.47C31.6316 294.426 27.1801 284.825 27.7989 279.914C28.3379 275.543 26.7011 275.701 24.2059 280.372C22.7287 283.187 22.9682 285.224 25.2238 288.717C26.9406 291.292 27.7988 294.187 27.1799 295.205C26.5611 296.203 27.4194 297.839 29.0562 298.777C31.6912 300.254 31.771 301.433 29.1361 311.574C12.1285 377.228 20.0136 447.255 51.3538 509.635C112.876 632.121 259.936 720.093 429.612 735.763C442.627 736.921 452.767 738.797 453.546 740.055C454.644 741.691 454.963 741.691 455.023 740.055C455.023 738.498 464.385 737.859 488.719 737.779C521.237 737.719 549.063 735.763 572.618 731.871C588.128 729.376 588.608 729.435 588.608 734.585C588.608 737.16 589.466 739.735 590.484 740.354C591.562 740.993 592.341 740.594 592.341 739.416C592.341 738.258 593.199 737.859 594.217 738.498C597.192 740.274 596.473 737.64 593.199 734.366C591.023 732.17 590.784 730.852 592.341 729.295C593.838 727.798 594.836 727.877 595.934 729.674C597.192 731.71 597.97 731.71 600.066 729.514C601.543 728.117 610.666 725.003 620.427 722.748C667.058 711.669 718.041 690.928 759.222 666.355C911.192 575.588 975.748 428.31 926.003 285.363C912.21 245.758 891.389 210.985 860.189 175.732C848.811 162.877 848.431 162.099 850.208 156.01C851.226 152.497 851.546 146.19 850.927 142.057C849.749 134.572 849.749 134.571 860.429 144.932C988.544 268.835 998.206 455.678 883.505 590.8C873.444 602.577 870.65 604.912 865.819 604.912C862.685 604.912 858.712 606.091 856.995 607.488C854.66 609.444 853.881 609.445 853.881 607.728C853.881 606.171 852.484 605.771 849.669 606.629C847.334 607.328 844.28 608.027 842.962 608.107C841.645 608.267 841.006 609.525 841.565 611.002C842.104 612.399 842.583 613.956 842.583 614.435C842.583 616.072 849.989 615.133 851.067 613.336C851.706 612.318 854.899 611.46 858.253 611.54C864.241 611.54 864.182 611.62 849.35 625.733C813.499 659.968 763.275 692.166 710.396 714.703C680.533 727.498 642.165 739.655 636.337 738.178C633.203 737.4 630.947 738.019 629.47 740.135C626.815 743.708 611.684 746.902 613.879 743.409C614.578 742.231 614.259 741.292 613.161 741.292C612.083 741.292 611.225 742.55 611.225 744.107C611.225 747.54 602.481 747.92 601.244 744.566C600.605 742.929 599.447 743.328 597.332 745.983C595.695 748.079 594.376 748.698 594.297 747.381C594.217 744.107 588.608 744.347 588.608 747.621C588.608 750.735 585.334 751.672 565.132 754.247C523.192 759.697 485.365 760.875 441.848 757.981V758.06ZM643.184 727.659C643.184 726.561 641.946 726.8 640.389 728.038C638.892 729.295 636.876 729.835 635.858 729.216C634.84 728.597 633.522 728.895 632.903 729.834C631.406 732.249 637.893 733.507 640.768 731.312C642.105 730.373 643.184 728.737 643.184 727.659ZM859.251 600.402C861.047 599.304 861.128 598.365 859.731 597.507C857.315 596.03 853.881 597.667 853.881 600.321C853.881 602.497 855.837 602.498 859.191 600.402H859.251ZM35.4442 261.429C35.4442 260.491 34.6658 259.712 33.5679 259.712C32.5498 259.712 31.6916 260.97 31.6916 262.607C31.6916 264.244 32.5498 265.022 33.5679 264.403C34.6658 263.764 35.4442 262.447 35.4442 261.429ZM925.385 248.414C925.385 247.316 924.526 246.537 923.508 246.537C922.43 246.537 921.572 247.396 921.572 248.414C921.572 249.432 922.43 250.291 923.508 250.291C924.526 250.291 925.385 249.432 925.385 248.414ZM854.74 163.875C855.279 162.877 854.979 161.539 853.881 160.92C852.863 160.302 852.005 161.081 852.005 162.717C852.005 165.991 853.103 166.45 854.74 163.875ZM812.86 106.884C811.063 105.167 810.605 105.626 810.605 109.139C810.605 112.653 811.063 113.192 812.86 111.415C814.577 109.699 814.577 108.681 812.86 106.884ZM442.787 726.021C301.416 715.402 172.922 654.039 98.6036 561.636C3.32555 443.202 11.2703 290.434 118.645 177.769C191.087 101.814 286.205 55.343 408.013 36.479C454.105 29.2928 582.359 33.3441 574.015 41.768C572.858 42.8659 562.558 42.467 545.65 40.6106C515.708 37.3368 455.742 36.7786 428.673 39.5932C308.523 52.1493 197.634 102.991 124.813 179.006C107.566 196.952 90.3393 219.25 79.7395 237.096C75.7471 243.803 71.615 250.43 70.6169 251.848C65.307 258.635 49.4772 301.272 44.9658 320.615C13.446 456.296 89.3214 590.181 240.672 666.136C315.07 703.484 394.06 721.25 485.126 721.25C572.619 721.25 645.599 705.5 715.546 671.345C723.81 667.293 732.074 663.78 733.95 663.481C735.747 663.241 738.322 661.685 739.56 660.128C740.897 658.571 746.127 654.897 751.337 651.943C798.127 625.733 848.431 578.883 877.815 534.028C933.329 449.19 940.356 349.162 896.919 260.272C854.5 173.477 772.158 105.786 661.05 66.5011C645.061 60.8718 610.527 50.8118 602.722 49.5742C599.608 49.0352 596.253 47.8569 595.315 46.9985C590.624 42.4672 598.509 43.0261 621.206 48.7152C765.61 85.2854 879.453 179.865 916.881 294.346C927.421 326.465 929.917 343.073 929.917 381.041C929.917 408.887 929.118 418.329 925.705 434.079C911.113 501.45 873.843 562.255 817.151 611.002C787.827 636.274 736.366 670.188 732.793 666.595C732.074 665.976 731.534 666.356 731.534 667.614C731.534 674.48 658.315 702.845 616.834 712.048C609.029 713.765 599.747 715.961 596.094 716.899C563.576 725.623 492.931 729.834 442.787 726.021ZM424.94 710.112C231.25 689.052 77.404 571.696 51.3538 425.256C47.2217 401.94 47.1419 362.176 51.1942 339.26C84.9497 148.365 322.397 15.4988 564.514 51.8294C574.875 53.3864 584.316 55.2628 585.494 56.0413C586.652 56.74 589.067 57.1393 590.863 56.8199C592.899 56.4406 594.217 57.4387 594.217 59.3151C594.217 61.3512 593.119 62.0503 590.863 61.4314C589.067 60.8725 574.494 58.5364 558.425 56.2009C518.042 50.4319 447.937 50.3515 408.871 56.1205C322.157 68.9161 245.982 99.6375 182.204 147.506C160.365 163.875 124.494 199.208 110.301 218.232C5.34168 359.362 48.2997 532.87 213.384 634.476C315.849 697.476 452.607 721.889 579.165 699.731C624.858 691.786 670.551 677.275 709.477 658.411C722.811 651.944 722.093 652.083 722.093 655.676C722.093 659.109 697.7 670.727 665.801 682.345C594.457 708.315 504.149 718.675 424.861 710.112H424.94ZM481.692 701.369C480.455 698.335 477.56 695.759 474.526 694.981C469.535 693.723 469.535 693.723 473.747 690.529C477.34 687.874 477.64 686.717 475.923 683.364C472.729 677.435 473.348 676.576 478.658 680.09C483.189 683.044 483.808 683.044 488.32 680.09C493.17 676.896 493.17 676.896 491.833 682.026C490.815 686.018 491.533 688.274 494.727 691.707C498.939 696.158 498.939 696.159 493.31 696.159C488.958 696.159 487.321 697.236 485.764 701.288C483.808 706.518 483.808 706.519 481.692 701.369ZM440.61 693.344C439.433 690.769 439.213 688.673 440.132 688.673C441.07 688.673 441.848 687.575 441.848 686.238C441.848 685 443.964 683.902 446.539 683.902C449.813 683.902 450.971 684.76 450.272 686.477C449.733 687.954 450.272 690.23 451.45 691.707C453.166 693.723 452.767 694.283 449.573 694.283C447.398 694.283 445.601 695.141 445.601 696.159C445.601 699.652 442.786 698.016 440.61 693.344ZM515.228 694.362C511.954 693.503 511.256 692.725 512.972 691.707C514.29 690.849 514.909 688.813 514.37 687.016C513.591 684.681 514.53 683.902 518.043 683.902C520.618 683.902 522.713 685 522.713 686.238C522.713 687.575 523.573 688.673 524.591 688.673C527.545 688.673 526.766 691.308 523.193 693.504C521.397 694.582 517.803 694.981 515.228 694.362ZM569.185 694.981C566.609 692.326 567.947 690.529 572.539 690.529C576.132 690.529 578.149 688.733 581.043 682.964C585.494 674.241 591.882 672.983 599.827 679.231C607.392 685.16 612.003 684.061 615.896 675.398C620.188 665.976 625.638 664.259 634.381 669.629C643.663 675.338 646.238 674.62 650.37 665.278C654.961 655.058 659.413 653.421 669.234 658.411C678.037 662.923 682.249 661.924 683.806 655.057C686.78 642.182 693.867 638.529 704.946 644.298C711.892 647.891 714.847 645.695 718.36 634.616C721.394 624.875 722.492 624.496 739.719 626.752C745.888 627.61 747.764 625.354 749.401 614.654C750.878 605.612 756.168 602.816 766.229 605.531C776.13 608.266 778.565 606.789 778.565 597.986C778.565 585.51 780.821 583.234 793.536 583.234C805.693 583.234 807.491 581.598 805.614 572.176C803.738 562.894 807.489 558.841 817.93 558.841C828.849 558.841 832.123 555.787 830.326 547.602C829.249 542.452 828.69 542.153 825.117 544.009C822.063 545.646 820.904 545.646 820.346 544.009C819.966 542.852 818.25 541.833 816.533 541.753C814.577 541.593 814.278 541.214 815.755 540.655C817.072 540.116 818.09 537.94 818.09 535.824C818.09 532.87 818.629 532.471 820.586 534.108C822.382 535.605 823.779 535.525 825.576 533.888C827.612 532.012 827.831 532.172 826.893 534.967C826.035 537.242 826.354 537.861 827.831 537.003C829.009 536.304 831.026 537.162 832.283 538.879C833.92 541.134 836.016 541.673 839.529 540.815C846.316 539.098 847.094 537.243 844.439 527.881C841.325 516.642 843.74 512.669 855.198 510.574C865.579 508.697 867.376 504.725 862.305 494.824C859.491 489.514 859.491 488.495 862.226 484.443C863.863 481.948 868.394 479.074 872.526 477.976C881.649 475.481 882.507 473.284 877.896 464.162C872.745 453.802 874.003 449.429 883.425 445.058C887.796 443.042 891.849 440.227 892.328 438.91C893.566 435.796 888.116 427.133 885.002 427.133C883.745 427.133 882.726 424.796 882.726 421.982C882.726 417.77 883.585 416.752 887.098 416.752C889.513 416.752 891.469 417.851 891.469 419.188C891.469 420.426 892.407 421.524 893.565 421.524C895.042 421.524 895.122 422.222 893.725 423.859C892.407 425.496 892.547 427.292 894.503 429.867C898.955 436.015 897.778 442.024 891.31 445.617C888.036 447.334 883.665 450.128 881.569 451.765C877.656 454.819 877.656 454.82 881.788 461.447C888.895 472.905 885.92 479.851 873.065 482.646C865.1 484.283 864.021 487.338 867.834 497C871.966 507.3 868.774 512.748 857.236 515.084C849.211 516.721 849.211 516.721 849.75 528.179C850.129 538.32 849.749 540.116 845.996 542.691C843.661 544.328 840.227 545.646 838.451 545.646C835.876 545.646 835.098 547.224 835.098 552.054C835.098 560.159 832.443 562.255 820.905 562.973C811.543 563.512 811.542 563.512 811.003 572.954C810.145 586.289 806.632 589.563 794.934 587.926C784.095 586.429 782.458 587.925 782.458 599.543C782.378 609.743 779.484 611.86 766.229 611.161C755.39 610.602 755.39 610.602 753.374 619.805C750.719 631.742 747.524 633.777 735.986 630.643C727.942 628.467 726.784 628.548 724.588 631.502C723.271 633.299 722.172 636.732 722.172 639.147C722.172 643.898 716.184 651.005 712.032 651.005C710.635 651.005 706.343 649.667 702.451 648.11C693.567 644.377 690.913 645.395 689.276 653.26C686.541 666.055 680.233 668.77 667.917 662.462C659.413 658.091 657.696 658.949 653.484 669.409C649.272 679.929 644.281 681.187 633.123 674.619C624.699 669.709 624.699 669.709 621.665 673.921C620.028 676.257 618.71 679.151 618.71 680.329C618.71 683.522 612.303 688.673 608.41 688.673C606.534 688.673 602.182 686.556 598.829 683.981C590.625 677.753 589.766 677.893 583.538 687.255C578.468 694.741 572.299 698.095 569.265 694.981H569.185ZM380.166 691.947C379.168 690.61 376.892 686.796 375.256 683.443C371.443 676.117 370.424 675.957 360.923 682.265C350.942 688.892 346.031 687.415 340.641 676.496C335.97 666.754 335.192 666.516 326.688 671.666C323.255 673.762 318.104 675.478 315.23 675.478C310.619 675.478 309.381 674.161 306.027 666.057C301.815 655.996 299.32 654.898 291.356 659.509C281.455 665.118 270.615 660.587 270.615 650.926C270.615 649.289 269.457 646.314 268.04 644.378C265.465 640.945 265.245 640.944 257.76 644.298C246.681 649.288 241.231 647.331 238.417 637.35C235.223 626.132 232.947 624.096 226.639 626.512C213.784 631.342 206.677 627.609 206.597 615.831C206.597 606.789 204.501 605.392 193.263 606.709C180.168 608.187 177.832 606.47 176.655 594.233C175.637 584.252 175.636 584.252 164.577 584.093C150.844 583.873 147.49 580.58 149.047 568.902C150.305 559.46 147.57 556.425 139.226 558.122C135.174 558.92 131.74 558.282 128.387 556.026C123.875 553.072 123.556 551.973 124.255 542.691C124.953 534.666 124.574 532.471 122.378 532.471C120.043 532.471 120.042 532.012 122.238 529.357C124.254 526.942 124.255 526.083 122.458 525.464C119.264 524.367 119.504 521.173 122.777 521.173C124.255 521.173 125.972 520.155 126.511 518.838C127.449 516.961 127.848 516.961 128.786 518.838C129.325 520.155 131.201 521.173 132.918 521.173C135.094 521.173 135.413 521.791 133.856 523.348C132.678 524.446 132.219 526.702 132.838 528.339C133.457 530.055 133.138 530.754 131.98 530.055C129.864 528.738 126.83 548.461 128.706 551.435C129.245 552.433 133.697 553.212 138.607 553.212C151.004 553.292 152.8 555.008 153.958 567.724C154.896 578.563 154.896 578.563 165.815 578.643C178.451 578.803 180.248 580.44 180.327 592.138C180.327 602.178 183.981 604.614 195.059 601.799C203.563 599.624 204.801 597.347 199.591 593.455C196.457 591.039 196.457 590.959 199.591 590.879C201.447 590.799 202.944 589.562 202.944 588.005C202.944 586.428 203.723 585.19 204.801 585.19C205.819 585.19 206.677 586.128 206.677 587.286C206.677 588.464 208.314 588.923 210.49 588.384C213.544 587.605 213.924 587.925 212.366 589.781C211.289 591.119 210.889 593.614 211.508 595.331C212.366 597.507 211.907 598.046 209.871 597.267C205.579 595.63 204.182 599.683 207.536 604.374C209.093 606.709 210.43 611.241 210.43 614.514C210.43 623.318 213.843 625.274 224.383 622.459C235.382 619.505 238.796 621.361 241.451 631.821C244.266 643.12 246.062 644.298 255.344 640.545C265.385 636.493 272.092 638.129 273.589 644.916C276.703 659.569 279.119 660.905 291.136 654.657C300.478 649.827 304.69 651.623 308.982 662.303C312.795 671.984 315.45 672.903 323.874 667.912C333.395 662.303 338.466 663.561 343.217 672.683C347.808 681.566 352.02 682.884 359.206 677.514C367.151 671.665 373.618 672.364 377.531 679.531C379.248 682.824 382.202 686.796 383.999 688.433C385.795 690.07 387.272 692.006 387.272 692.805C387.272 695.14 382.282 694.502 380.246 691.947H380.166ZM552.198 687.814C551.499 685.938 549.922 685.38 547.746 686.178C544.792 687.256 544.711 687.016 546.887 684.381C548.284 682.664 548.923 680.469 548.285 679.531C547.746 678.612 549.303 677.354 551.798 676.895C557.188 675.877 558.825 679.93 555.551 686.397C553.754 689.911 553.136 690.15 552.198 687.814ZM408.093 686.238C408.013 684.461 406.456 682.884 404.659 682.824C402.703 682.744 402.324 682.345 403.721 681.726C405.059 681.247 406.057 679.072 406.057 676.976C406.057 673.842 406.616 673.541 408.791 675.398C410.348 676.655 412.384 677.195 413.322 676.576C414.321 675.957 414.959 677.594 414.8 680.169C414.64 682.744 413.542 684.84 412.384 684.84C411.127 684.84 409.729 685.938 409.19 687.255C408.631 688.672 408.172 688.274 408.093 686.238ZM345.871 654.738C343.216 652.083 342.119 648.51 342.119 642.581C342.119 629.626 351.561 623.079 363.558 627.69C368.868 629.706 367.231 634.616 361.701 633.298C351.321 630.643 345.632 637.67 349.684 648.269C351.481 652.941 352.179 653.26 359.126 652.162C364.815 651.244 366.612 651.544 366.612 653.58C366.612 659.509 351.481 660.367 345.871 654.738ZM377.052 654.359C373 648.67 372.92 626.591 376.892 626.591C380.026 626.591 381.344 630.963 382.122 643.519C382.522 650.685 383.22 652.083 386.813 652.562C392.023 653.34 394.838 647.092 394.838 634.936C394.838 628.787 395.537 626.591 397.633 626.591C399.829 626.591 400.447 629.167 400.447 638.369C400.447 653.74 397.333 658.571 387.272 658.571C381.883 658.571 379.248 657.473 377.052 654.359ZM409.889 658.571V626.591H419.092C431.867 626.591 436.858 631.502 432.346 639.846C431.168 642.101 431.089 643.519 432.266 643.519C435.919 643.519 436.558 651.244 433.284 654.897C430.789 657.632 427.436 658.571 419.95 658.571H409.889ZM427.735 649.128C427.735 647.492 425.639 646.094 422.525 645.695C418.313 645.236 417.375 645.935 417.375 649.128C417.375 652.402 418.313 653.021 422.525 652.562C425.639 652.242 427.735 650.845 427.735 649.128ZM425.878 635.954C425.878 634.397 423.922 632.919 421.587 632.52C418.393 632.12 417.375 632.92 417.375 635.954C417.375 639.068 418.393 639.847 421.587 639.387C423.922 639.068 425.878 637.511 425.878 635.954ZM463.846 657.312C461.59 655.136 464.624 652.881 469.934 652.881C473.128 652.881 475.783 651.704 476.402 649.907C478.039 645.775 478.119 645.775 472.889 646.793C470.234 647.332 466.88 646.633 465.323 645.395C461.97 642.581 461.59 631.981 464.784 628.847C468.298 625.274 476.642 626.212 480.534 630.484C485.285 635.714 485.126 649.527 480.375 654.817C477.101 658.41 466.501 660.047 463.846 657.312ZM477.26 637.35C477.959 633.458 472.569 630.883 469.695 633.698C466.8 636.572 469.455 642.042 473.288 641.264C475.144 640.944 476.861 639.147 477.26 637.35ZM503.93 654.817C503.93 651.783 502.672 651.005 497.442 651.005C493.869 651.005 490.516 650.307 489.957 649.368C488.479 647.033 502.593 627.61 506.346 626.911C509 626.432 509.539 627.849 509.539 635.474C509.539 640.465 510.397 645.456 511.415 646.474C512.653 647.731 512.493 650.066 511.016 653.5C508.221 659.429 503.93 660.207 503.93 654.817ZM503.85 642.102C503.77 637.112 503.69 637.052 501.035 640.545C497.522 645.236 497.522 647.252 501.115 647.252C502.912 647.252 503.93 645.456 503.85 642.102Z" fill="#DBA651"/>
</svg>
