<svg width="895" height="960" viewBox="0 0 895 960" fill="none" xmlns="http://www.w3.org/2000/svg">
<path fill-rule="evenodd" clip-rule="evenodd" d="M402.569 892.625C398.016 891.531 397.487 889.873 400.24 884.79C404.51 876.92 402.993 842.719 398.44 841.624C394.31 840.53 387.287 874.449 389.475 884.79C390.993 891.955 390.428 892.342 381.746 890.154C369.64 887.119 368.792 886.272 373.487 880.625C375.534 878.013 378.181 866.154 379.275 854.154C381.604 830.189 378.463 831.284 421.311 838.025C438.958 840.778 445.028 852.778 434.298 863.542C429.463 868.378 429.605 869.755 435.923 880.378C444.358 894.849 444.358 894.99 434.97 894.99C429.04 894.99 426.57 892.343 424.205 884.508C419.793 868.908 411.675 867.673 414.569 882.99C416.758 895.238 415.805 896.084 402.569 892.625ZM425.723 853.201C426.287 849.495 424.487 845.754 421.593 844.66C417.605 843.142 416.51 844.943 416.51 852.637C416.51 863.966 424.064 864.495 425.723 853.201ZM449.723 876.072C449.581 865.731 448.487 852.92 447.393 847.696C445.452 839.014 445.876 838.307 453.711 839.825C458.405 840.778 462.816 839.825 463.522 837.884C464.475 835.413 467.794 835.837 474.252 839.26C488.335 846.707 487.629 862.025 473.017 868.52C462.676 873.037 458.829 882.425 465.711 886.696C472.064 890.684 468.888 894.99 459.499 894.99C450.288 894.99 450.146 894.566 449.723 876.072ZM472.205 855.39C472.205 851.825 469.982 847.978 467.229 846.848C460.346 844.237 458.122 847.131 460.769 855.284C463.522 864.108 472.205 864.213 472.205 855.531V855.39ZM354.886 884.896C348.957 882.566 347.828 880.237 349.487 873.742C351.145 867.389 350.334 865.484 346.31 865.484C337.769 865.484 336.11 866.72 336.957 872.79C337.627 878.861 329.51 880.485 322.063 875.684C318.604 873.602 318.745 872.225 322.734 868.907C325.381 866.719 331.698 858.037 336.675 849.496C354.463 819.002 359.546 818.719 362.299 848.225C363.428 860.366 365.228 874.448 366.181 879.39C367.981 889.06 366.604 889.59 354.886 884.896ZM350.863 852.108C350.863 848.367 349.345 846.319 347.58 847.413C345.78 848.507 344.263 851.543 344.263 854.154C344.263 856.66 345.78 858.848 347.58 858.848C349.345 858.848 350.863 855.814 350.863 852.108ZM496.594 880.237C483.641 860.367 488.758 836.507 507.217 831.142C525.535 825.777 542.229 861.461 529.947 880.096C521.688 892.626 518.229 890.155 520.311 872.79C522.535 853.625 517.276 838.166 509.158 839.825C501.287 841.483 501.428 869.048 509.299 877.872C516.605 885.884 516.323 888.354 508.452 888.354C504.888 888.354 499.629 884.79 496.594 880.237ZM547.488 880.625C547.346 880.378 546.782 875.543 546.218 869.755C545.688 863.967 541.947 852.495 537.817 844.095C529.947 827.825 530.088 826.872 539.758 824.931C543.182 824.26 548.865 822.601 552.288 821.083C562.1 816.954 568.982 823.696 568.982 837.496C568.982 846.99 571.065 851.26 578.9 857.613C587.053 864.213 587.865 866.013 583.735 868.625C576.712 873.319 575.053 872.79 568.418 864.496C558.924 852.39 553.135 850.025 556.029 859.272C557.405 863.542 559.876 867.954 561.676 869.19C566.088 871.943 562.241 877.343 554.37 879.531C550.629 880.378 547.594 880.907 547.488 880.625ZM560.3 838.025C560.829 834.989 558.923 831.707 556.029 830.578C548.864 827.825 546.641 830.719 549.253 839.155C551.9 846.99 558.641 846.319 560.3 838.025ZM283.592 860.931C277.662 856.52 277.662 856.236 283.451 850.448C289.098 844.801 289.098 844.378 282.074 841.908C273.251 838.59 268.556 840.919 271.062 847.554C273.25 853.06 267.886 853.766 259.203 849.072C253.803 846.177 255.463 843.566 274.204 823.836C300.286 796.66 303.039 798.177 299.863 837.072C297.533 866.436 295.451 869.473 283.733 860.931H283.592ZM288.568 828.919C288.568 823.131 287.721 822.601 283.733 826.025C278.756 830.19 279.745 835.836 285.533 835.836C287.192 835.836 288.568 832.801 288.568 828.919ZM600.147 855.39C600.147 845.896 586.912 815.965 583.594 818.048C582.076 819.001 581.653 821.895 582.641 824.507C583.735 827.437 582.641 829.342 579.606 829.342C575.194 829.342 570.641 822.883 570.641 816.53C570.641 812.683 603.042 799.166 606.606 801.354C608.548 802.589 610.065 806.472 610.065 810.177C610.065 815.966 609.254 816.389 604.948 812.789C602.336 810.601 599.3 809.507 598.488 810.319C596.018 812.789 610.348 843.813 615.43 846.707C622.065 850.59 620.83 854.014 611.441 858.319C600.535 863.402 600.147 863.26 600.147 855.39ZM228.321 830.86C218.932 821.507 221.544 803.86 234.109 791.295C247.203 778.201 253.945 777.389 266.757 787.731C275.475 794.613 275.862 795.848 271.733 802.448C265.521 812.401 262.345 811.413 262.345 799.836C262.345 792.389 260.827 789.918 256.309 789.918C245.403 789.918 230.933 811.978 234.498 823.131C236.298 828.531 238.38 829.342 246.639 827.542C254.086 825.919 256.168 826.448 255.039 829.766C252.851 836.366 234.497 837.213 228.321 830.86ZM390.993 824.402C294.886 807.002 217.697 756.424 165.568 676.87C100.097 576.917 97.202 452.434 157.591 347.08C244.98 195.032 431.51 138.49 588.711 216.667C677.759 260.926 744.219 347.362 764.901 445.516C773.442 486.599 771.784 552.776 761.019 589.588C735.113 679.2 671.018 755.047 585.394 797.365C530.229 824.648 452.193 835.555 390.993 824.402ZM513.288 811.272C637.241 782.895 738.713 678.53 757.736 559.553C762.819 527.964 760.207 461.117 752.901 434.505C719.654 313.163 629.653 226.161 506.794 197.079C474.817 189.49 402.851 189.631 373.91 197.502C342.039 205.902 309.109 218.715 285.674 231.703C178.802 290.574 110.155 420.987 124.485 537.882C141.32 677.153 247.204 786.742 391.805 814.871C420.358 820.377 481.311 818.613 513.288 811.272ZM425.193 796.554C426.71 788.825 425.475 785.366 419.404 780.284C411.534 773.79 411.534 773.789 421.593 773.648C429.746 773.648 432.781 771.46 436.91 762.883L442.134 752.295L446.016 762.883C449.299 771.848 451.664 773.648 460.205 773.648C470.687 773.789 470.687 773.79 462.817 780.284C456.605 785.366 455.511 788.825 457.029 796.554C459.252 807.425 457.169 808.518 447.534 801.777C441.851 797.789 440.087 797.789 434.546 801.777C425.193 808.66 422.969 807.425 425.193 796.554ZM564.147 778.483C559.453 772.836 549.111 771.989 546.111 776.824C541.699 783.989 537.394 779.86 539.476 770.471C541.135 762.742 540.182 759.848 534.782 756.566C525.288 750.637 526.382 747.318 537.817 747.318C545.547 747.318 548.017 745.519 549.676 739.201C550.77 734.648 552.994 730.906 554.511 730.906C556.17 730.906 558.359 734.648 559.453 739.201C561.112 745.519 563.617 747.318 571.064 747.318C581.935 747.318 583.453 752.154 574.206 757.095C569.124 759.742 568.171 762.742 569.653 771.989C571.736 784.413 570.359 786.071 564.147 778.483ZM313.098 770.895C314.898 762.212 314.051 759.177 307.733 753.918C300.003 747.601 300.003 747.601 310.768 745.377C318.321 743.859 322.063 740.965 323.439 735.459C325.91 725.259 329.933 725.542 332.545 735.884C334.451 743.189 340.945 746.083 351.71 744.424C356.651 743.612 354.039 750.353 347.58 754.906C342.321 758.471 341.51 761.648 343.168 770.189C345.357 780.954 345.357 780.953 336.816 775.448C328.804 770.189 327.851 770.19 319.592 775.59C310.768 781.378 310.768 781.377 313.098 770.895ZM424.628 731.754C310.063 722.366 219.638 623.364 219.638 506.999C219.638 443.61 256.168 371.221 307.168 333.562C401.052 264.209 526.099 275.538 604.841 360.597C627.994 385.692 645.218 416.01 655.842 450.492C664.665 479.292 665.618 535.411 657.783 564.917C637.629 639.635 583.736 696.036 506.653 722.648C490.664 728.295 444.358 733.377 424.628 731.754ZM471.923 720.847C589.1 701.965 673.207 586.412 651.289 474.493C637.242 402.246 585.923 338.821 521.017 313.162C488.475 300.35 468.464 297.032 431.652 298.55C345.498 302.291 274.345 354.245 242.368 436.833C217.133 501.916 229.839 582.282 274.486 640.624C310.063 686.93 380.651 722.647 439.381 724.024C445.734 724.165 460.346 722.788 471.923 720.847ZM284.156 607.376C280.839 603.917 281.651 593.188 285.251 592.764C287.051 592.482 290.333 592.094 292.698 591.953C295.733 591.671 297.11 574.022 298.345 521.081C299.863 457.233 300.533 450.493 305.792 449.399C308.968 448.834 312.392 450.634 313.521 453.529C316.274 460.552 320.262 459.987 322.345 452.152C323.298 448.411 325.768 445.516 327.992 445.516C330.039 445.516 332.545 448.552 333.498 452.152C334.451 455.717 336.392 458.61 337.769 458.61C339.145 458.61 341.087 455.717 342.04 452.152C343.028 448.411 346.063 445.516 348.674 445.516C351.427 445.516 354.745 448.552 355.839 452.152C358.169 459.74 363.957 460.975 363.957 453.811C363.957 451.022 366.851 448.833 370.592 448.833C375.675 448.833 377.193 451.022 377.193 458.61C377.193 466.481 378.569 468.564 383.969 468.564C387.957 468.564 391.557 471.175 392.51 474.74C394.84 483.705 406.028 485.787 410.157 478.057C414.287 470.328 432.887 469.234 432.887 476.681C432.887 479.434 434.405 481.658 436.205 481.658C438.287 481.658 439.522 464.151 439.522 435.739C439.522 407.327 440.758 389.821 442.699 389.821C444.499 389.821 446.016 391.34 446.016 393.281C446.016 395.469 452.758 395.892 465.711 394.374C485.441 392.151 485.44 392.151 485.44 407.045C485.44 421.939 485.441 421.94 465.711 424.164L446.016 426.492L446.123 454.904C446.123 475.728 447.111 481.799 449.581 477.493C454.276 469.234 470.97 469.939 473.158 478.339C474.252 482.045 477.711 484.94 481.417 484.94C485.158 484.94 488.617 482.045 489.57 478.339C490.664 474.492 494.123 471.705 498.252 471.705C503.617 471.705 504.994 469.798 504.994 461.787C504.994 450.069 513.817 444.986 519.888 453.245C524.723 459.986 528.041 460.128 528.041 453.811C528.041 451.022 530.935 448.833 534.641 448.833C538.241 448.833 541.135 451.022 541.135 453.811C541.135 456.422 542.652 458.61 544.452 458.61C546.217 458.61 547.735 456.422 547.735 453.811C547.735 450.634 550.77 448.833 555.888 448.833C560.97 448.833 564.147 450.634 564.147 453.811C564.147 456.422 565.523 458.61 567.465 458.61C569.265 458.61 570.641 456.422 570.641 453.811C570.641 451.022 573.536 448.833 577.1 448.833C583.453 448.833 583.736 451.587 584.547 520.093C585.536 591.388 585.535 591.529 592.841 592.482C598.206 593.329 600.147 595.799 600.147 601.588C600.147 609.599 600.148 609.6 443.229 609.6C356.934 609.6 285.392 608.611 284.156 607.376ZM459.111 579.105C459.111 562.164 451.805 550.446 441.04 550.446C430.981 550.446 426.287 559.128 426.287 578.152C426.287 593.187 426.287 593.187 442.699 593.187C459.111 593.187 459.111 593.188 459.111 579.105ZM629.512 710.365C631.7 704.577 630.465 701.118 623.865 693.953C615.288 684.988 615.289 684.988 625.912 684.988C634.206 684.988 637.1 683.223 639.571 676.87C641.23 672.317 643.983 668.612 645.641 668.612C647.3 668.612 649.63 672.317 650.724 676.87C652.383 683.223 654.889 684.988 662.583 684.988C674.054 684.988 675.148 688.306 665.618 694.235C660.254 697.553 659.301 700.448 660.924 708.177C663.289 719.048 662.865 719.33 651.148 713.966C644.653 711.071 641.759 711.071 638.759 713.966C631.982 720.707 626.335 718.624 629.512 710.365ZM222.109 705.283C222.921 699.495 221.545 694.519 218.227 691.766C210.533 685.271 212.051 681.707 222.639 681.707C229.945 681.707 232.591 679.906 234.109 673.553C236.721 663.353 241.804 662.789 243.18 672.742C244.027 678.389 246.779 680.329 254.932 681.141C267.321 682.235 268.274 684.988 258.639 691.059C253.274 694.377 252.145 697.412 253.663 704.859C255.745 715.341 252.709 716.859 242.65 710.506C237.533 707.329 235.344 707.329 232.168 710.506C225.286 717.388 220.732 715.06 222.109 705.283ZM686.724 622.129C688.383 614.011 687.289 610.835 682.171 607.235C672.783 600.635 674.053 596.365 685.63 596.365C693.324 596.365 696.219 594.424 699.113 587.4C702.854 578.435 702.853 578.435 706.312 587.4C708.924 594.282 711.819 596.365 718.842 596.365C729.607 596.365 730.56 599.788 722.16 607.376C717.889 611.258 716.654 615.918 717.607 622.977C719.124 633.177 719.125 633.176 711.113 627.917C704.089 623.364 702.289 623.223 696.783 627.494C687.007 634.8 684.501 633.423 686.724 622.129ZM165.427 619.941C167.368 611.259 166.415 608.223 160.062 602.964C152.473 596.611 152.473 596.612 162.815 596.506C171.356 596.506 173.72 594.705 176.897 585.74L180.744 575.117L185.297 585.74C188.756 593.858 191.897 596.365 198.25 596.365C208.168 596.365 208.874 599.929 200.05 605.435C194.932 608.611 193.979 611.647 195.779 620.082C197.826 630.671 197.827 630.67 189.003 625.023C180.744 619.517 179.791 619.517 171.638 624.882C163.097 630.529 163.097 630.53 165.427 619.941ZM148.767 526.446C150.673 516.811 149.861 514.199 144.355 511.164C134.685 506.046 136.061 501.211 147.391 501.211C155.085 501.211 157.732 499.551 159.249 493.092C160.344 488.54 162.532 484.94 163.909 484.94C165.285 484.94 167.368 488.54 168.462 493.092C170.121 499.551 172.591 501.211 180.321 501.211C191.65 501.211 193.168 506.046 183.497 511.164C177.991 514.199 177.144 516.811 178.944 526.446C181.168 538.022 181.167 538.022 172.485 532.375C164.332 527.152 163.379 527.152 155.226 532.375C146.685 538.022 146.685 538.022 148.767 526.446ZM222.921 379.057C222.921 375.069 205.132 361.692 191.085 355.234C183.638 351.775 183.638 351.774 191.65 340.056C201.003 326.397 209.967 322.974 219.497 329.574C226.803 334.691 228.18 343.904 223.062 353.575C219.497 360.175 226.521 368.998 232.45 365.434C238.521 361.551 240.038 370.515 234.25 376.868C227.615 384.174 222.921 384.986 222.921 379.057ZM213.709 339.915C211.909 338.115 207.215 337.728 203.226 338.963C195.92 341.292 195.921 341.291 205.274 348.88C214.521 356.327 214.803 356.327 215.897 349.692C216.462 346.127 215.473 341.574 213.709 339.915ZM235.485 331.233C229.556 324.35 221.827 317.715 218.368 316.479C212.439 314.256 212.438 314.009 218.12 307.656C224.579 300.491 229.556 299.256 229.556 304.762C229.556 310.832 253.521 333.986 259.733 333.986C269.404 333.986 266.756 320.08 254.791 308.327C248.862 302.68 242.227 297.88 240.038 297.88C234.638 297.88 235.062 289.727 240.709 285.033C244.451 281.856 246.109 282.421 248.862 287.398C250.627 290.821 257.403 299.927 263.756 307.515C277.238 323.644 277.804 326.962 268.698 336.598C258.639 347.504 248.015 345.703 235.485 331.233ZM607.453 333.316C602.053 328.057 602.477 320.891 607.983 320.891C612.536 320.891 629.512 303.527 635.582 292.48C638.335 287.538 639.712 287.397 644.265 291.103C649.065 295.232 649.065 296.221 643.418 302.539C632.406 314.821 631.983 317.574 641.23 317.574C648.677 317.574 649.63 316.338 648.818 308.891C647.441 297.456 653.477 295.515 659.018 305.574C667.559 321.703 649.912 336.069 634.206 325.869C626.335 320.751 625.63 320.75 621.5 326.256C619.171 329.574 617.794 333.421 618.747 334.798C621.218 338.821 611.724 337.586 607.453 333.316ZM281.933 315.774C281.933 308.468 263.757 282.704 256.839 280.092C252.145 278.292 254.086 275.962 266.898 267.668C283.875 256.515 292.415 257.609 294.497 270.703C294.886 274.444 299.157 278.962 303.71 281.044C314.616 286.162 313.769 304.057 302.192 309.739C298.063 311.786 292.98 315.245 290.898 317.151C285.815 322.409 281.933 321.703 281.933 315.774ZM301.662 295.797C301.662 290.15 293.651 286.691 286.768 289.303C282.356 290.962 282.356 292.197 287.192 299.503C291.462 306.139 293.651 307.092 297.109 304.056C299.58 302.15 301.662 298.268 301.662 295.797ZM282.498 270.844C276.003 264.35 270.78 272.786 275.58 281.856C279.745 289.586 279.745 289.585 283.027 282.138C285.392 276.915 285.25 273.597 282.639 270.844H282.498ZM581.935 312.633C576.006 308.08 575.864 307.515 581.123 303.385C588.712 297.456 593.512 283.798 593.512 268.233C593.512 253.621 594.077 253.338 605.089 260.503C612.536 265.338 612.818 266.292 608.265 272.786C600.959 283.127 601.806 289.198 609.924 284.786C613.524 282.845 616.559 279.103 616.559 276.491C616.559 270.562 619.701 270.562 627.148 276.209C635.16 282.28 635.018 282.562 616.559 289.727C603.465 294.844 599.159 298.268 596.124 306.845C591.712 319.092 590.759 319.516 581.935 312.633ZM318.074 290.574C317.933 286.409 313.522 275.115 308.122 265.339C300.675 251.821 299.298 246.844 302.474 244.939C308.686 240.915 318.886 241.62 316.274 245.75C315.039 247.832 318.075 258.174 323.157 268.621C330.322 283.797 333.216 287.114 336.675 284.362C339.004 282.279 341.086 277.868 341.086 274.55C341.086 266.997 346.168 266.432 348.957 273.738C350.051 276.773 351.851 278.433 352.804 277.444C355.416 274.691 344.263 238.868 340.804 238.868C339.145 238.868 337.769 236.644 337.769 233.891C337.769 231.138 340.663 229.056 344.263 229.056C352.945 229.056 355.981 230.186 354.993 233.08C353.616 237.209 364.38 266.432 369.357 272.079C373.628 276.915 373.204 277.726 364.945 279.667C359.969 280.903 348.11 285.456 338.757 289.868C318.074 299.644 318.074 299.645 318.074 290.574ZM547.735 293.715C534.359 286.974 534.5 265.868 547.876 250.727C557.406 239.821 570.641 234.739 570.641 241.762C570.641 243.421 574.488 245.609 579.182 246.844C585.112 248.362 587.053 250.585 585.817 254.009C584.688 256.797 583.876 260.503 583.876 262.161C583.876 263.82 581.653 265.056 578.9 265.056C576.147 265.056 573.958 262.303 573.958 258.703C573.958 243.42 560.582 247.408 552.57 265.197C544.982 281.997 547.877 289.444 560.83 286.973C571.877 284.785 573.959 289.303 564.288 294.562C556.559 298.691 557.688 298.692 547.735 293.715ZM381.216 269.892C372.251 263.539 366.04 242.433 370.169 231.703C374.051 221.362 379.84 217.338 392.228 216.385C401.052 215.679 402.71 216.808 404.087 223.973C406.31 234.985 402.428 237.068 395.122 228.915C387.287 220.232 380.369 225.914 380.369 241.056C380.369 263.679 393.887 272.926 404.369 257.75C409.593 250.302 409.593 250.303 409.734 257.467C410.017 264.35 399.111 274.974 391.805 274.974C390.04 274.974 385.204 272.645 381.216 269.892ZM484.346 272.645C480.181 271.551 479.087 269.327 480.605 265.621C485.97 252.386 488.864 239.538 489.147 228.244C489.288 221.502 489.711 215.961 489.852 216.102C490.134 216.102 497.582 218.185 506.512 220.514C523.912 225.067 526.523 227.82 521.265 235.549C518.512 239.82 517.558 239.821 514.664 234.738C510.111 227.009 502.947 227.539 500.723 235.974C499.347 240.915 500.723 243.279 505.276 244.514C514.523 246.985 513.005 251.961 502.946 251.961C494.934 251.961 494.547 252.773 496.17 263.397C498.111 275.256 497.158 275.962 484.346 272.645ZM450.146 269.044C433.169 266.432 426.993 237.491 439.805 221.079C451.24 206.608 473.017 213.208 477.147 232.514C481.841 253.62 468.181 271.938 450.146 269.044ZM465.711 238.868C465.711 223.021 457.311 214.726 450.535 223.973C444.888 231.844 444.64 255.809 450.146 261.315C456.358 267.527 465.711 254.009 465.711 238.868ZM704.371 529.058C705.466 523.27 703.666 518.188 698.442 512.682C690.854 504.529 690.854 504.528 701.336 504.528C709.595 504.528 712.63 502.729 714.995 496.411C716.76 491.858 718.984 488.116 719.937 488.116C720.925 488.116 723.113 491.858 724.913 496.411C727.242 502.729 730.277 504.528 738.43 504.528C748.913 504.528 748.913 504.529 741.466 512.541C735.924 518.47 734.407 522.881 735.925 528.917C738.431 538.587 738.007 538.729 726.571 533.47C720.077 530.576 717.183 530.576 714.289 533.47C707.548 540.246 702.713 537.882 704.371 529.058ZM190.662 457.94C185.968 453.105 162.003 445.657 151.379 445.516C144.497 445.516 143.932 444.422 146.014 434.893C150.426 414.104 167.932 405.386 177.427 419.327C181.415 425.116 183.356 425.539 194.403 422.363C201.144 420.421 205.838 417.528 204.744 415.728C201.991 411.316 171.779 396.316 165.709 396.316C159.497 396.316 159.25 391.621 164.897 385.833C167.367 383.468 169.308 380.856 169.45 379.903C169.45 379.056 170.544 374.927 171.779 370.939C174.25 363.068 176.473 362.257 185.015 365.575C191.509 368.045 191.756 373.41 185.438 373.41C182.685 373.41 179.086 376.162 177.144 379.762C174.391 384.845 175.097 386.362 181.026 388.304C185.438 389.68 188.756 389.151 189.426 386.927C190.132 384.845 192.885 383.222 195.638 383.222C198.956 383.222 199.768 385.268 198.391 389.539C197.015 393.951 198.391 396.987 202.944 399.352C213.003 404.716 214.097 403.763 212.191 391.339C210.109 379.057 211.909 377.539 220.873 384.033C226.097 387.88 225.815 389.68 215.756 410.222C205.838 430.233 203.897 432.28 192.603 434.363C177.991 436.974 176.332 442.198 190.132 442.198C197.438 442.198 200.05 443.716 199.909 448.022C199.909 457.658 195.356 462.493 190.803 457.94H190.662ZM170.403 430.904C170.403 423.457 164.473 421.799 157.026 427.058C150.532 431.469 150.532 431.857 156.214 433.375C167.367 436.269 170.544 435.739 170.544 430.904H170.403ZM686.301 456.564C682.736 455.046 673.771 429.669 676.242 427.587C676.807 427.057 680.654 425.681 684.642 424.446C692.372 422.081 695.689 429.81 688.772 434.08C682.983 437.539 685.207 445.516 691.948 445.516C696.642 445.516 699.254 442.092 701.759 432.704C708.077 409.41 730.419 409.799 733.595 433.269C734.831 443.046 734.019 445.234 728.089 447.175C718.277 450.351 716.089 446.752 723.254 438.917C727.525 434.081 728.231 431.328 725.725 428.716C720.36 423.316 715.524 428.01 713.054 440.822C710.301 455.434 699.395 461.787 686.301 456.564ZM665.901 409.552C656.936 396.987 660.253 390.386 681.359 378.104C689.9 373.127 698.019 367.34 699.536 365.434C701.195 363.069 703.666 364.056 706.842 368.186C712.913 376.162 713.195 384.457 707.407 382.233C702.289 380.327 671.689 396.174 669.889 401.821C666.042 414.104 705.889 403.763 710.583 391.198C712.771 385.692 721.595 390.774 721.454 397.551C721.454 400.586 681.465 419.327 674.865 419.327C673.771 419.327 669.642 414.916 665.901 409.552ZM650.583 381.563C649.489 378.81 651.007 371.751 653.76 365.963C660.395 352.198 657.36 349.551 647.971 361.268C640.524 370.516 640.524 370.515 635.159 362.256C628.418 351.915 628.418 350.397 634.736 350.397C641.512 350.397 668.795 330.139 668.936 325.021C669.077 317.15 675.536 320.891 684.253 334.127C695.406 350.821 691.701 363.492 675.96 363.492C667.842 363.492 665.477 365.433 662.053 374.927C657.641 387.351 653.619 389.54 650.583 381.563ZM679.948 349.304C682.983 341.292 677.618 336.738 670.877 341.715C667.559 344.185 665.901 347.786 667.136 349.833C670.313 355.092 677.901 354.669 679.948 349.304ZM388.663 955.626C264.285 935.79 159.921 874.025 89.0494 778.483C64.3787 744.988 41.0838 698.929 46.0603 693C48.1073 690.388 51.567 689.401 53.4729 690.671C55.5552 691.907 59.2959 693 61.7665 693.141C64.2371 693.141 74.4377 706.519 84.3554 722.789C144.885 822.037 232.874 888.637 342.745 918.426C380.792 928.767 383.969 929.155 446.016 929.014C507.64 929.014 511.347 928.626 549.253 918.426C625.242 897.885 685.348 862.837 741.996 806.048C852.714 694.941 891.185 549.882 850.632 396.316C841.138 359.892 823.631 321.456 799.772 284.22C785.831 262.726 783.502 256.797 786.537 252.386C806.266 224.115 811.208 211.267 811.349 188.255C811.772 130.619 775.913 96.1729 676.383 58.1255C665.23 53.8549 655.983 49.0197 655.983 47.6432C655.983 46.1255 654.465 45.8425 652.665 46.9366C651.006 48.0307 639.43 45.9838 627.148 42.2426C593.371 32.1837 545.829 23.0775 506.264 19.0893C486.111 17.0422 469.699 13.7247 468.323 11.5011C466.699 8.88934 465.711 8.88971 465.711 11.2545C465.711 13.5839 446.828 15.5253 409.063 16.7606C304.274 20.4665 195.356 49.3018 107.932 96.4551C106.838 96.9846 106.555 93.2781 107.402 88.1604C109.732 71.8897 183.215 40.4778 265.521 20.3247C367.84 -4.76959 495.781 -6.81714 585.394 15.2419C653.089 31.9008 659.3 34.2657 659.3 42.807C659.3 47.7835 660.818 49.0197 665.76 47.6432C669.36 46.6549 672.394 46.9366 672.394 48.3131C672.394 49.5484 677.195 50.2543 682.983 49.8307C695.548 48.7366 713.478 55.0895 746.69 72.0308C789.431 93.9487 807.784 113.255 820.314 149.502C826.384 167.432 828.854 199.444 824.054 199.55C822.643 199.55 821.408 205.902 821.267 213.632C821.02 221.361 818.373 232.373 815.337 238.303C809.69 249.067 809.831 249.209 821.549 266.998C832.737 283.657 869.126 355.622 869.126 361.022C869.126 362.398 866.232 363.492 862.632 363.492C859.067 363.492 856.031 365.01 856.031 366.81C856.031 368.61 858.926 370.092 862.491 370.092C870.785 370.092 873.82 376.022 881.797 408.034C887.867 432.281 889.385 441.669 893.797 488.116C895.738 507.564 890.62 573.599 884.973 602.964C874.773 656.753 844.596 723.883 807.784 775.165C790.384 799.165 742.842 848.084 718.171 867.143C627.288 937.167 494.934 972.743 388.663 955.626ZM212.298 874.308C210.109 867.955 200.721 868.907 202.38 875.401C203.227 878.966 205.838 880.625 208.591 879.531C211.203 878.578 212.862 876.214 212.298 874.308ZM705.184 862.166C705.184 860.366 703.665 858.848 701.901 858.848C700.101 858.848 698.583 860.366 698.583 862.166C698.583 863.966 700.101 865.484 701.901 865.484C703.665 865.484 705.184 863.966 705.184 862.166ZM884.832 543.564C884.02 541.058 882.643 542.434 881.408 546.987C879.996 552.387 880.42 553.764 882.891 551.258C884.691 549.352 885.679 545.894 884.832 543.564ZM651.007 41.9959C652.101 40.1959 650.583 38.8196 647.689 38.8196C644.795 38.8196 643.277 40.1959 644.547 41.9959C645.641 43.9019 647.018 45.2778 647.689 45.2778C648.395 45.2778 649.912 43.9019 651.007 41.9959ZM380.934 916.202C281.792 900.637 180.321 838.59 118.414 755.436C92.3671 720.424 61.0606 654.248 48.6722 607.941C38.7545 570.706 38.0489 565.341 37.9077 509.505C37.7665 455.434 38.6136 447.598 46.7313 416.01C60.5314 363.492 79.9432 318.138 101.332 288.773C114.426 270.844 121.061 273.88 109.591 292.339C83.6847 334.798 66.1781 376.022 53.3662 425.822C46.8721 451.446 43.9779 537.494 48.9544 565.623C74.2958 712.836 169.45 832.519 301.662 883.66C356.122 904.625 382.028 909.461 442.699 909.461C503.229 909.602 525.676 906.284 575.194 889.59C592.982 883.519 608.829 879.39 610.488 880.484C612.006 881.472 613.382 880.766 613.382 878.966C613.382 877.202 621.783 870.989 632.124 865.06C697.348 828.389 757.596 769.942 793.278 708.706C867.891 580.905 862.632 412.163 780.184 290.574C767.09 271.127 764.478 263.538 771.643 265.868C777.713 267.809 798.254 299.115 813.149 329.009C863.761 430.622 869.408 556.234 827.902 659.082C789.854 753.389 718.278 832.236 630.465 876.637C620.83 881.331 611.583 884.367 609.642 883.273C607.877 882.143 604.559 883.519 602.477 886.413C596.265 894.708 544.593 910.978 507.781 916.202C467.087 921.99 418.275 921.99 380.934 916.061V916.202ZM639.571 816.389C639.571 813.071 652.383 803.013 656.654 803.013C661.913 803.013 659.018 812.789 652.947 816.107C644.936 820.378 639.571 820.377 639.571 816.389ZM54.8839 685.835C51.7074 685.129 49.0611 683.082 49.0611 681.282C49.0611 679.482 45.7787 678.53 41.7551 679.059C24.002 681.565 0.00135744 581.752 0.00135744 504.528C-0.13982 465.775 10.766 392.998 16.4131 392.998C18.072 392.998 18.4604 395.187 17.5075 397.975C16.2721 401.116 17.5072 402.916 20.8249 402.916C23.7191 402.916 26.1899 400.869 26.1899 398.222C26.1899 395.61 27.0015 391.198 28.1309 388.304C29.5074 384.739 28.6602 383.61 25.3778 384.986C10.2012 390.774 36.8137 319.798 68.5081 269.892C72.2493 264.103 71.1193 260.503 60.6722 241.338C54.0369 229.197 49.4845 217.903 50.7198 215.961C51.8492 214.197 51.1433 212.68 49.3433 212.68C47.4374 212.68 45.7781 209.644 45.7781 205.902C45.7781 202.196 47.0136 199.832 48.39 200.68C49.9077 201.632 51.284 199.443 51.5664 195.984C51.8488 192.384 50.7198 190.338 49.2022 191.149C43.5551 194.749 42.1785 181.655 47.9667 177.491C51.0021 175.161 51.8489 173.22 49.7666 173.22C42.8842 173.22 45.4961 158.89 56.7903 135.455C68.3669 111.596 81.8846 95.1845 81.8846 105.279C81.8846 108.032 83.5429 110.925 85.7664 111.596C87.9547 112.443 84.7786 119.749 77.6139 130.232C51.5666 167.997 55.1314 216.526 86.4375 251.115C92.9316 258.315 98.2963 266.151 98.2963 268.374C98.2963 270.562 92.9317 281.327 86.2964 292.339C73.2022 313.868 45.9193 372.457 45.7781 379.057C45.7781 381.422 44.4018 383.222 42.4606 383.222C40.6606 383.222 39.2843 387.21 39.1431 392.151C39.1431 406.657 35.5785 416.01 30.1784 416.01C26.4725 416.01 26.19 416.998 29.0841 420.563C31.6959 423.739 31.8368 431.186 29.5074 447.598C24.6721 481.375 25.519 545.081 31.3072 578.434C34.0602 594.564 42.1785 625.447 49.3433 646.941C56.508 668.471 61.9079 686.259 61.4843 686.506C60.9196 686.788 58.0251 686.506 54.8839 685.835ZM75.673 636.741C73.4847 629.858 70.8729 622.412 69.8846 620.188C68.7905 617.435 71.4022 616.058 77.4728 616.058C82.5905 615.917 94.1667 612.353 103.131 607.941C120.073 599.647 123.249 600.071 125.049 611.259C125.72 615.529 124.626 617.436 121.591 616.765C118.979 616.2 113.05 617.294 108.355 619.094C103.802 621.035 95.9669 623.93 90.9904 625.73C81.4609 629.153 81.3552 639.106 90.7082 639.106C97.8729 639.106 94.0258 647.082 86.2964 648.176C81.3552 649.023 78.8494 646.412 75.673 636.741ZM802.949 633.177C795.643 628.765 791.372 628.482 777.431 631.235C759.254 634.941 757.031 633.988 759.784 623.223C761.443 616.906 763.242 616.341 775.242 618.283C788.76 620.33 788.76 620.329 782.831 613.588C779.372 609.74 774.678 607.517 772.066 608.47C769.031 609.6 767.513 607.941 767.513 603.53C767.513 592.094 774.396 591.67 782.937 602.541C792.467 614.823 807.643 623.364 814.807 620.611C820.172 618.564 821.549 624.353 817.984 633.847C815.619 640.059 814.384 640.059 802.949 633.177ZM73.6254 576.634C72.6371 574.976 70.3082 560.647 68.367 544.8C59.4022 468.67 81.8847 375.069 125.72 306.95C132.356 296.609 139.238 288.068 140.897 288.068C148.203 288.068 147.109 295.656 137.72 309.315C120.355 334.55 98.7198 383.468 89.6138 417.669C82.0256 446.222 80.7903 457.234 80.6492 502.869C80.3668 531.846 81.3548 560.082 82.5901 565.729C84.9195 575.964 78.3195 584.082 73.6254 576.634ZM802.666 561.211C813.714 477.634 793.56 384.845 749.725 316.197C738.819 299.115 736.348 288.068 743.654 288.068C745.031 288.068 751.525 296.609 758.125 306.95C805.843 382.092 825.537 468.422 815.337 557.893C813.29 576.634 811.914 580.094 806.514 580.094C800.726 580.094 800.478 578.435 802.666 561.211ZM200.332 810.884C200.332 810.884 192.603 805.378 200.332 799.307C206.932 794.19 207.497 792.812 203.226 790.059C196.062 785.224 190.132 785.93 190.132 791.577C190.132 797.93 182.262 797.93 177.144 791.718C172.733 786.459 175.097 780.143 181.415 780.143C183.78 780.143 191.509 775.871 198.673 770.471C211.909 760.695 229.556 754.342 229.556 759.177C229.556 764.153 211.486 816.107 209.686 816.107C208.733 816.107 204.603 813.778 200.332 810.884ZM211.768 774.354C208.309 771.037 202.38 779.295 204.992 783.566C206.792 786.46 208.309 786.072 210.532 781.907C212.297 778.907 212.862 775.448 211.768 774.354ZM688.772 801.213C688.772 798.46 681.466 788.966 672.642 780.143L656.654 764.154L668.654 754.06C682.03 742.907 687.148 741.672 690.042 749.26C692.936 756.848 692.513 758.083 687.395 756.142C684.925 755.189 680.372 756.142 677.336 758.33C669.219 764.26 678.854 772.271 688.101 767.295C696.783 762.742 699.819 766.765 693.184 774.071C688.101 779.718 688.101 780.53 693.607 786.742C699.677 793.236 699.677 793.236 704.23 786.742C706.701 783.036 707.936 778.766 706.983 777.107C703.277 771.037 712.242 769.801 716.654 775.731C720.642 781.096 719.795 783.177 709.206 794.048C696.642 807.001 688.772 809.789 688.772 801.213ZM160.626 772.412C160.626 770.083 162.815 760.836 165.427 752.012C168.18 743.047 170.403 735.177 170.403 734.365C170.403 733.659 165.991 737.259 160.626 742.342C155.226 747.601 150.815 753.919 150.815 756.707C150.815 760.554 149.438 760.271 144.214 755.436C136.908 748.977 135.673 744.001 141.32 744.001C147.638 744.001 175.909 719.613 174.532 715.342C172.591 709.695 177.003 710.224 183.92 716.435C189.426 721.412 189.285 722.365 183.356 736.412C174.956 755.86 175.379 758.471 185.156 749.93C189.709 746.083 193.415 740.965 193.415 738.494C193.415 733.13 197.438 732.989 202.521 738.071C207.638 743.189 207.639 747.318 202.38 747.318C200.191 747.459 191.226 754.059 182.544 762.071C166.414 777.248 160.485 780.001 160.485 772.412H160.626ZM724.772 772.271C724.772 768.142 696.924 742.907 691.277 741.954C689.901 741.813 687.818 741.389 686.583 741.106C685.489 740.965 687.289 737.789 690.43 734.083C696.501 727.447 702.007 727.342 723.254 733.272C729.607 735.036 729.748 734.894 723.536 728.012C720.077 724.306 715.242 721.129 712.772 721.129C705.466 721.129 707.689 715.624 724.489 692.153C733.172 679.765 741.466 666.671 742.56 662.788C746.125 651.635 757.737 639.106 764.337 639.106C767.796 639.106 773.16 642.952 776.196 647.505C780.89 654.811 783.642 655.905 794.407 654.811C805.56 653.858 806.937 654.388 806.125 660.317C805.278 665.965 803.09 666.812 791.513 666.106C774.395 665.012 769.701 670.8 785.443 673.694C797.69 676.023 799.067 678.388 793.561 688.447C789.714 695.612 783.925 696.989 783.925 690.671C783.925 685.554 748.49 668.047 746.125 671.894C745.172 673.412 746.019 675.635 747.784 676.729C752.902 679.906 751.666 685.976 746.266 683.894C743.654 682.8 740.619 683.224 739.666 684.847C737.866 687.741 768.078 708.565 772.878 707.753C780.043 706.376 780.607 708.706 775.383 717.53C769.701 727.059 769.701 727.06 760.772 718.377C755.936 713.542 747.254 706.8 741.325 703.482C730.701 697.412 730.701 697.412 733.031 704.718C735.113 711.212 734.407 711.883 728.478 710.365C717.325 707.471 720.501 714.107 738.007 730.236C746.972 738.495 754.419 746.612 754.419 748.412C754.419 751.165 740.76 750.071 718.278 745.236C710.019 743.612 710.018 743.612 719.266 752.012C724.348 756.706 730.56 760.412 733.172 760.412C738.819 760.412 739.101 762.071 734.548 770.471C730.701 777.777 724.772 778.906 724.772 772.271ZM770.831 660.317C770.831 654.106 762.819 650.824 755.231 653.718C750.149 655.624 750.43 656.47 757.595 660.459C768.325 666.388 770.831 666.388 770.831 660.317ZM127.943 735.884C124.626 732.001 125.332 728.859 131.12 719.33C140.085 704.859 137.438 700.977 126.708 712.73C118.555 721.413 118.555 721.413 113.473 714.107C107.931 706.236 109.061 701.4 116.508 701.4C123.108 701.4 147.249 684.177 147.391 679.2C147.532 670.941 155.932 675.635 163.097 688.165C167.085 695.188 170.403 702.494 170.403 704.294C170.403 711.071 159.638 718.235 152.332 716.435C146.015 714.918 144.073 716.577 139.661 727.589C133.732 742.342 133.449 742.625 127.943 735.884ZM160.626 698.224C160.626 692.294 153.32 690.918 148.485 695.753C141.602 702.635 145.873 709.13 154.273 704.577C157.732 702.635 160.626 699.883 160.626 698.224ZM100.237 692.294C97.4843 683.894 97.8726 680.188 101.614 679.623C103.414 679.482 106.308 679.059 108.073 678.812C112.626 678.248 112.096 674.648 106.167 666.953C101.473 660.883 100.908 660.741 97.0609 665.965C93.7432 670.235 91.9436 670.8 89.0494 667.765C81.4612 660.317 84.6372 653.859 95.8255 653.718C101.755 653.577 114.143 652.588 123.673 651.353C134.402 649.976 141.461 650.4 142.838 652.588C144.073 654.529 137.438 663.777 128.226 673.13C118.979 682.518 111.391 691.906 111.391 694.094C111.391 700.306 102.284 698.788 100.237 692.436V692.294ZM123.249 659.648C120.92 657.283 114.708 661.976 114.708 665.965C114.708 668.047 116.65 667.765 119.65 665.295C122.438 662.93 124.061 660.459 123.249 659.648ZM157.45 213.491C142.838 206.185 127.52 181.514 125.332 161.784C123.39 143.855 131.262 123.596 143.368 115.62C153.462 108.985 159.638 113.537 154.273 123.596C148.767 134.078 175.521 199.444 187.909 205.374C197.827 210.315 199.062 214.303 191.509 217.197C182.261 220.797 169.026 219.279 157.45 213.491ZM676.242 213.632C676.807 210.455 680.936 207.138 685.489 206.043C698.442 203.008 697.065 194.185 681.077 176.396C662.724 156.137 659.689 144.561 668.23 128.008C675.819 113.396 686.3 107.325 701.901 108.42C715.242 109.408 717.042 115.867 705.466 121.655C693.077 127.867 693.748 132.42 709.595 149.502C728.231 169.232 732.078 178.902 727.807 194.185C723.254 210.879 711.112 219.138 691.418 219.138C677.9 219.138 675.289 218.326 676.242 213.632ZM199.062 208.514C198.25 206.326 201.144 200.256 205.415 195.138C209.686 190.055 213.144 182.185 213.144 177.632C213.144 172.549 214.662 169.937 217.133 170.749C226.38 173.926 224.05 193.515 213.144 205.374C205.415 213.632 201.145 214.585 199.062 208.514ZM659.3 207.702C656.935 204.949 651.712 202.726 647.3 202.726C637.771 202.726 637.771 198.738 647.018 180.138C656.124 162.067 660.395 162.349 662.583 180.949C663.571 188.961 666.324 197.785 668.654 200.68C672.783 205.621 671.265 212.68 666.042 212.68C664.524 212.68 661.489 210.455 659.159 207.702H659.3ZM254.086 189.632C252.851 187.726 253.521 184.126 255.603 181.515C262.098 173.926 253.521 151.443 235.203 127.725C226.097 115.725 216.603 104.854 214.097 103.337C201.709 95.8896 214.097 88.0191 247.203 82.5132C259.591 80.4308 259.874 80.713 257.933 88.7248C256.168 95.466 258.497 100.443 268.98 113.114C276.568 122.219 284.404 136.549 287.58 147.031C290.474 156.949 295.874 167.714 299.439 170.89C307.592 178.196 304.698 181.091 283.592 186.068C274.627 188.256 264.709 190.726 261.815 191.573C258.78 192.526 255.321 191.573 254.086 189.632ZM572.3 185.079C548.582 174.596 546.111 163.161 557.547 114.772C562.911 92.2897 563.865 83.0782 561.112 80.4312C551.618 70.937 563.194 68.8541 589.665 75.3483C609.253 80.0425 613.1 83.3257 605.371 89.0081C601.665 91.761 596.406 104.996 591.712 124.302C583.03 159.032 582.077 170.185 587.442 175.726C591.324 179.432 589.241 189.773 584.688 189.491C583.312 189.491 577.664 187.444 572.3 185.079ZM593.653 184.691C593.653 182.044 596.265 179.855 599.724 179.855C610.206 179.855 616.947 168.137 625.241 135.455C632.935 105.278 632.936 103.337 627.571 97.4073C619.7 88.5837 625.63 83.6075 640.665 86.5016C657.218 89.537 662.3 96.5604 651.712 101.396C644.547 104.713 642.183 110.078 634.877 140.008C628.418 167.043 624.535 176.537 618.076 182.326C608.406 190.726 593.653 192.244 593.653 184.691ZM332.545 172.691C331.415 171.032 332.121 167.856 333.921 165.667C339.004 159.597 331.698 84.5963 325.239 77.2903C318.18 69.1373 323.016 65.9604 344.793 64.3016C363.287 62.9251 363.286 62.9246 365.227 77.007C366.321 84.8424 368.122 105.279 369.357 122.644C370.733 141.95 373.346 155.855 375.957 158.467C382.452 164.961 381.357 169.656 373.063 171.315C356.263 174.738 334.345 175.585 332.545 172.691ZM497.581 169.938C489.852 163.867 488.617 160.55 488.617 144.985C488.617 132.138 487.24 126.631 483.781 125.255C476.758 122.643 477.57 115.055 485.44 110.926C490.523 108.173 491.9 104.008 491.9 91.1957C491.9 82.2309 490.381 74.7839 488.617 74.7839C486.817 74.7839 485.44 71.8903 485.44 68.3256C485.44 55.6196 516.853 63.4896 524.582 77.9603C532.17 91.9016 525.676 109.937 511.206 115.055C507.888 116.149 509.158 118.902 515.758 125.114C521.123 130.231 524.723 136.973 524.723 142.337C524.723 147.314 527.335 153.102 530.511 155.432C535.876 159.596 535.876 160.125 529.699 166.337C519.217 176.679 507.781 177.915 497.581 169.938ZM440.228 167.573C428.898 166.196 426.993 162.35 434.016 155.326C439.663 149.644 444.499 75.2075 439.522 70.231C437.722 68.4663 436.205 64.8668 436.205 62.3962C436.205 58.655 440.334 57.9835 455.793 59.0776C466.558 59.8894 476.335 61.4078 477.57 62.6784C478.664 63.7725 478.135 85.1252 476.193 109.937C473.44 147.737 473.723 156.137 477.429 160.408C480.041 163.302 481.169 166.62 479.934 167.714C477.711 170.079 459.252 169.937 440.228 167.573ZM730.278 157.938C729.042 156.703 728.089 151.444 728.089 146.22C728.089 140.82 725.583 132.279 722.583 127.197C715.665 115.338 718.701 111.596 729.607 118.62C734.019 121.655 739.948 124.019 742.842 124.019C749.16 124.019 749.16 133.126 742.842 148.267C738.007 159.843 734.69 162.35 730.278 157.938ZM186.109 128.855C179.368 122.644 170.967 117.525 167.65 117.525C164.191 117.525 160.485 115.337 159.497 112.831C157.591 107.608 163.768 104.29 175.627 104.29C180.038 104.29 183.638 102.914 183.638 101.114C183.638 99.3489 185.579 97.8317 187.768 97.8317C192.462 97.8317 207.356 135.172 204.038 138.49C200.862 141.808 198.815 140.679 186.109 128.855ZM375.427 127.197C374.157 125.255 375.675 120.984 378.569 117.666C385.064 110.502 382.592 80.7135 375.004 74.5017C367.275 68.0428 369.746 61.6896 380.228 61.6896C402.852 61.6896 417.181 75.0668 417.181 96.314C417.181 109.938 409.734 119.749 394.451 126.067C381.745 131.467 378.18 131.75 375.427 127.197ZM280.839 121.796C279.603 120.561 279.604 112.584 280.698 104.149C282.498 90.2429 281.933 88.4429 275.58 86.3605C264.427 82.7958 269.545 76.7249 286.486 73.6896C304.133 70.3719 308.122 72.3134 300.816 80.5722C298.063 83.7487 293.933 94.7964 291.603 105.138C287.58 123.314 285.533 126.49 280.839 121.796ZM87.3907 102.243C83.4025 98.2199 85.0609 95.0787 95.4022 87.6315C105.743 80.3256 105.743 80.325 100.519 88.3015C97.59 92.5721 95.4022 97.5493 95.4022 99.3493C95.5434 103.338 90.426 105.279 87.3907 102.243Z" fill="#DBA651"/>
</svg>
