<svg width="965" height="964" viewBox="0 0 965 964" fill="none" xmlns="http://www.w3.org/2000/svg">
<path fill-rule="evenodd" clip-rule="evenodd" d="M451.14 963.155C447.261 962.647 435.158 961.333 424.158 960.167C382.68 955.78 333.656 942.957 293.343 925.979C186.372 880.94 98.1158 796.987 47.6929 692.262C-23.3315 544.894 -14.4932 366.708 70.6259 229.279C106.806 170.908 160.132 115.843 216.172 79.0064C317.018 12.7721 443.022 -13.5521 563.006 6.64674C592.213 11.6064 608.958 15.9945 608.958 18.8134C608.958 20.3183 607.623 21.4628 605.969 21.4628C604.316 21.4628 602.896 22.374 602.896 23.455C602.896 26.4435 606.54 25.935 612.92 22.1199C618.388 18.8983 619.3 19.0674 640.241 26.4432C682.97 41.4281 717.073 58.4697 752.998 82.6532C781.399 101.771 820.653 135.068 820.653 140.113C820.653 141.342 822.645 143.249 825.125 144.33C836.719 149.544 900.536 233.498 900.536 243.608C900.536 245.579 901.364 247.253 902.275 247.253C904.522 247.253 914.292 265.544 923.639 287.227C981.099 420.034 977.369 568.738 913.466 697.646C895.493 734.059 873.64 767.271 867.091 768.183C864.611 768.585 860.394 771.828 857.66 775.389C852.531 782.086 850.876 787.873 854.84 785.393C860.965 781.663 850.05 795.418 833.073 812.883C821.055 825.303 812.535 832.509 809.886 832.509C806.749 832.509 806.325 832.997 808.402 834.332C810.458 835.562 806.156 840.203 791.426 852.454C730.49 903.131 653.658 939.799 578.564 954.126C543.295 960.845 543.04 960.845 543.04 957.433C543.04 955.695 542.129 954.381 540.985 954.381C539.904 954.381 538.993 955.61 538.993 957.115C538.993 958.598 537 960.421 534.52 961.078C529.052 962.647 460.826 964.321 451.14 963.155ZM543.04 945.352C643.144 932.677 734.877 888.316 808.89 816.932C821.967 804.363 832.649 794.995 832.649 796.075C832.649 797.241 834.556 797.644 836.951 797.072C840.936 795.991 841.021 795.736 837.778 793.426C834.556 791.031 834.557 790.607 838.033 786.474C850.114 771.659 853.356 768.501 854.67 770.578C855.582 772.061 856.833 771.744 858.656 769.582C860.797 766.932 860.712 766.678 857.999 767.759C852.764 769.751 853.759 767.759 869.338 744.995C971.582 595.062 976.881 397.186 882.817 239.707C877.455 230.678 873.555 223.239 874.212 223.239C874.869 223.239 874.043 222.158 872.305 220.759C870.652 219.339 862.619 209.25 854.501 198.228C825.612 159.145 772.052 110.715 726.843 82.8226C688.438 59.2114 628.986 35.3025 584.604 25.68C516.144 10.8647 436.579 11.8615 368.013 28.4148C356.419 31.149 346.076 32.9714 345.08 32.3992C344.084 31.7421 343.257 32.0602 343.257 33.0563C343.257 34.1373 334.991 37.8674 324.796 41.3434C301.779 49.3763 255.679 71.4832 234.145 84.8148C205.341 102.682 177.173 125.381 150.446 152.193C78.489 224.234 34.8699 311.495 18.5498 415.986C13.8233 446.359 13.7598 514.987 18.4651 547.373C48.35 751.947 202.353 909.257 406.27 943.359C448.405 950.396 497.345 951.159 543.126 945.352H543.04ZM433.187 939.311C297.158 923.817 180.162 854.786 103.33 744.572C33.789 644.892 6.87139 516.726 29.9739 395.024C63.2501 219.509 194.659 80.0874 368.013 36.447C440.881 18.0709 519.854 17.669 592.065 35.3668C708.723 63.8528 807.978 135.555 872.22 237.397C967.364 388.411 965.118 586.86 866.774 734.886C801.684 832.679 708.129 899.232 596.283 927.378C544.207 940.477 482.614 945.012 433.187 939.311ZM556.712 930.367C705.394 904.361 825.21 815.193 890.533 681.898C923.978 613.608 938.39 545.381 935.974 467.214C933.918 402.888 922.071 351.066 896.15 293.946C765.334 5.33375 383.421 -63.4868 159.475 161.222C52.8218 268.193 7.29505 418.382 35.6963 569.311C70.6257 754.852 220.559 900.397 407.669 930.282C442.195 935.835 445.353 936.005 491.05 935.327C521.846 934.839 538.166 933.588 556.712 930.367ZM688.015 838.465C679.643 824.307 672.86 811.972 672.86 811.06C672.86 810.234 674.599 808.326 676.845 807.012C681.317 804.193 679.58 802.116 696.875 831.513C702.746 841.369 708.722 851.373 710.206 853.704C712.601 857.52 712.431 858.262 708.044 861.144C703.169 864.302 703.169 864.302 688.015 838.465ZM717.645 834.078C696.217 815.278 693.653 791.031 712.114 783.252C722.796 778.865 732.567 782.087 741.426 793.087C756.814 812.141 758.636 823.078 747.954 833.675C738.607 843.107 728.01 843.192 717.645 834.078ZM737.696 829.288C746.788 825.791 744.478 813.964 731.74 798.81C723.198 788.7 710.778 790.946 710.778 802.625C710.778 808.496 719.892 822.23 727.098 827.295C732.227 830.856 733.054 831.026 737.696 829.288ZM348.556 807.181C345.822 804.447 347.411 800.548 351.205 800.548C353.939 800.548 355.274 801.883 355.274 804.532C355.274 808.326 351.29 809.894 348.556 807.181ZM468.54 920.85C468.032 920.108 467.12 917.035 466.379 914.132C465.382 909.829 463.729 908.769 456.777 907.773C446.498 906.437 445.756 906.862 444.103 914.386C443.022 919.367 441.877 920.342 436.981 920.342C433.76 920.342 431.11 919.685 431.11 918.858C431.11 918.031 436.239 904.128 442.45 887.807C453.217 859.915 454.128 858.346 458.918 858.834C463.645 859.406 464.386 861.229 471.423 888.401C475.577 904.36 478.968 918.519 478.968 919.854C479.138 922.588 469.939 923.415 468.54 920.935V920.85ZM462.394 895.586C461.822 894.018 460.741 889.376 459.999 885.412C458.431 877.295 456.777 878.036 453.386 888.316C451.563 893.699 451.648 895.522 453.619 896.752C457.943 899.486 463.645 898.744 462.479 895.586H462.394ZM494.441 917.862C493.869 915.382 492.703 901.478 491.961 886.896C490.562 860.487 490.562 860.487 496.433 860.487C501.732 860.487 503.385 862.31 513.728 879.944L525.152 899.401L523.923 881.428C523.266 871.593 522.44 862.395 522.016 861.144C521.444 859.173 530.96 855.781 532.614 857.435C533.44 858.177 536.916 901.796 537 911.906C537 919.854 536.661 920.342 531.532 920.342C526.657 920.342 524.835 918.201 515.466 901.393C509.595 890.965 504.635 882.424 504.296 882.424C503.893 882.424 504.043 891.453 504.636 902.389C505.632 922.419 505.632 922.419 500.566 922.419C496.921 922.419 495.183 921.105 494.441 917.862ZM405.189 916.209C400.229 915.297 393.362 914.068 389.97 913.39C383.676 912.309 383.676 912.309 386.474 897.832C388.063 889.884 390.289 877.04 391.454 869.262C394.422 849.572 394.358 849.635 408.431 852.369C429.859 856.524 429.118 856.184 429.118 861.653C429.118 866.294 428.546 866.612 423.162 865.616C419.856 864.959 414.557 863.963 411.399 863.306C404.871 862.055 403.875 862.967 402.878 871.339C402.221 876.892 402.624 877.294 412.056 879.287C417.524 880.453 421.827 882.106 421.593 882.932C421.339 883.759 421.17 885.815 421.17 887.574C421.17 890.223 419.432 890.457 410.488 889.376C399.805 888.062 399.805 888.061 398.491 894.441C397.749 898.002 397.241 901.647 397.241 902.559C397.241 903.47 402.624 905.272 409.173 906.522C421.339 908.917 422.166 909.596 419.94 915.212C418.605 918.688 418.266 918.688 405.189 916.209ZM591.323 901.139C586.512 896.752 583.948 891.368 580.302 878.46C572.185 849.72 572.269 850.546 577.398 848.66C579.878 847.664 582.527 847.494 583.205 848.152C583.777 848.893 586.85 858.431 589.902 869.431C596.367 892.873 597.596 894.759 605.799 894.017C614.255 893.191 614.659 885.815 607.792 861.398C604.804 850.886 602.811 841.941 603.32 841.454C603.723 840.945 606.308 840.288 608.872 840.034C613.344 839.546 614.001 840.945 619.703 862.733C624.429 880.855 625.342 887.235 623.858 891.538C621.357 898.574 613.747 904.212 604.633 905.611C598.677 906.607 596.537 905.865 591.323 901.054V901.139ZM332.002 896.921C330.434 895.84 332.426 887.32 338.467 868.435C343.257 853.62 347.242 840.373 347.242 838.974C347.242 835.731 354.533 837.3 368.352 843.425C384.736 850.716 387.555 864.387 375.304 876.722C369.263 882.763 364.367 883.59 353.855 880.601C347.496 878.778 347.411 878.863 344.168 888.549C341.032 898.235 337.64 900.567 332.002 896.921ZM367.61 869.092C372.57 864.62 372.167 857.35 366.783 853.62C359.577 848.491 356.101 849.72 353.536 858.177C350.463 868.435 350.633 870.004 354.766 871.085C361.4 872.822 363.964 872.42 367.61 869.092ZM643.23 881.936C641.153 877.294 635.769 865.213 631.212 855.188C621.441 833.739 621.357 833.336 627.991 831.683C632.294 830.602 635.769 832.51 648.762 843.425C657.388 850.547 664.996 856.439 665.569 856.439C666.247 856.439 663.513 849.487 659.613 840.945C655.734 832.51 652.089 824.562 651.581 823.396C651.178 822.167 653 820.174 655.734 818.924C661.775 816.19 660.948 814.96 676.103 849.487C686.7 873.416 686.701 873.416 681.55 876.065C677.333 878.29 676.019 878.291 673.2 875.98C671.377 874.391 664.255 868.35 657.388 862.479C650.499 856.672 644.459 852.221 644.057 852.708C643.548 853.132 646.367 860.996 650.352 870.173C656.223 883.929 657.049 887.15 654.738 888.549C649.524 891.877 647.108 890.457 643.314 881.936H643.23ZM288.701 878.375C280.266 871.741 278.442 862.819 283.084 849.72C288.213 835.074 294.424 826.702 302.456 823.311C316.763 817.355 331.515 827.126 331.748 842.768C331.833 852.878 321.977 874.327 314.877 879.287C308.497 883.759 294.996 883.335 288.701 878.375ZM313.287 863.136C324.139 846.011 323.567 834.078 311.719 832.828C306.42 832.34 304.767 833.336 300.634 839.885C288.616 858.431 288.955 872.42 301.291 872.42C306.335 872.42 308.413 870.83 313.287 863.136ZM255.679 861.229C251.292 858.177 251.038 857.011 252.267 845.587C253.348 835.901 252.945 832.679 250.699 830.771C248.219 828.694 246.82 829.775 242.093 836.727C235.544 846.414 233.573 847.494 228.846 844.018C225.773 841.687 227.024 838.974 242.093 815.129L258.731 788.785L266.51 793.934C280.499 803.112 285.31 808.75 285.31 815.617C285.31 823.565 279.1 831.683 270.156 835.413C264.2 837.893 263.288 839.207 263.119 845.841C262.949 850.059 262.292 855.93 261.635 859.003C260.384 864.387 260.215 864.472 255.679 861.229ZM272.232 819.75C276.365 814.218 276.365 814.218 270.749 809.322C263.373 803.027 262.865 803.112 257.651 812.395C253.178 820.343 253.178 820.344 258.816 823.311C265.683 827.041 267.018 826.639 272.232 819.666V819.75ZM465.467 832.001C462.33 828.949 462.479 827.126 465.955 825.791C470.194 824.223 473.839 829.352 470.427 832.171C468.541 833.824 467.205 833.739 465.467 832.086V832.001ZM485.263 832.594C483.758 831.683 483.186 829.945 483.928 828.695C485.581 826.045 490.393 825.791 491.961 828.207C493.614 830.941 488.315 834.417 485.263 832.594ZM444.018 830.263C442.111 827.296 446.264 823.735 449.995 825.134C451.733 825.791 452.56 827.614 451.881 829.436C450.483 832.912 446.01 833.506 444.018 830.263ZM504.042 830.517C502.389 827.783 504.635 824.477 508.196 824.477C509.765 824.477 511.078 826.3 511.078 828.44C511.078 832.595 506.204 833.993 504.042 830.517ZM425.388 827.783C423.65 825.727 423.734 824.477 425.896 822.739C427.952 821.001 429.203 821.086 430.941 823.226C432.679 825.303 432.509 826.554 430.453 828.292C428.376 830.03 427.126 829.86 425.388 827.783ZM524.008 828.44C522.355 825.791 524.664 822.484 528.14 822.484C529.709 822.484 531.044 824.307 531.044 826.469C531.044 830.602 526.234 832.001 524.008 828.44ZM405.528 823.904C402.794 820.577 404.447 818.521 409.661 818.521C412.141 818.521 413.221 819.665 412.819 821.827C411.992 826.299 408.347 827.295 405.528 823.904ZM543.04 823.481C543.04 821.827 544.779 820.492 547.026 820.492C549.252 820.492 550.988 821.827 550.988 823.481C550.988 825.134 549.252 826.554 547.026 826.554C544.779 826.554 543.04 825.134 543.04 823.481ZM192.009 815.448C181.242 804.765 183.065 797.241 201.526 775.453C218.736 755.169 217.91 755.763 223.124 760.065C227.278 763.541 227.278 763.71 212.462 780.603C196.481 798.809 193.747 806.418 201.526 810.573C208.054 814.049 211.869 811.484 227.278 793.257C241.839 776.131 241.839 776.131 245.908 780.264C250.041 784.312 250.041 784.312 240.186 795.821C219.076 820.577 216.765 822.484 207.567 822.484C200.445 822.484 197.88 821.34 192.009 815.448ZM563.325 819.008C563.749 817.101 565.402 815.532 566.97 815.532C568.623 815.532 570.192 817.101 570.616 819.008C571.103 821.488 570.043 822.484 566.97 822.484C563.982 822.484 562.922 821.488 563.325 819.008ZM385.562 817.016C385.986 815.13 387.555 813.54 389.208 813.54C390.797 813.54 392.451 815.13 392.853 817.016C393.277 819.517 392.196 820.492 389.208 820.492C386.156 820.492 385.075 819.517 385.562 817.016ZM582.04 816.613C580.302 813.794 582.527 810.488 586.257 810.488C587.995 810.488 588.992 811.887 588.589 813.794C587.826 817.843 583.862 819.517 582.04 816.613ZM366.699 813.307C364.791 811.399 367.356 806.503 370.259 806.503C373.078 806.503 375.643 811.399 373.735 813.307C373.078 813.964 371.489 814.536 370.259 814.536C368.924 814.536 367.356 813.964 366.699 813.307ZM601.327 807.012C601.666 805.104 603.319 803.536 604.972 803.536C606.54 803.536 608.194 805.104 608.533 807.012C609.021 809.492 607.961 810.488 604.972 810.488C601.92 810.488 600.839 809.492 601.327 807.012ZM755.584 789.293C744.647 777.53 735.534 767.356 735.216 766.593C734.961 765.852 736.361 763.711 738.438 761.888C741.575 759.069 743.228 758.815 747.954 760.722C751.176 761.973 760.946 765.618 769.721 768.84L785.703 774.796L771.141 760.065C756.559 745.335 756.56 745.335 760.799 741.604C764.932 737.789 765.016 737.959 786.211 759.069C807.491 780.349 807.49 780.349 803.675 784.567C799.203 789.547 797.804 789.378 775.02 780.752L758.297 774.478L771.544 789.208C784.049 803.282 784.558 804.109 781.082 807.245C779.005 808.983 776.928 810.488 776.356 810.488C775.868 810.488 766.415 800.971 755.584 789.293ZM621.441 803.112C617.965 801.798 618.305 797.157 622.035 795.737C623.773 795.079 625.595 795.906 626.252 797.644C627.651 801.374 625.002 804.363 621.441 803.112ZM330.349 798.64C328.611 795.736 330.837 792.515 334.567 792.515C336.305 792.515 337.301 793.935 336.898 795.821C336.135 799.891 332.172 801.544 330.349 798.64ZM637.762 792.345C637.02 791.201 637.337 789.293 638.503 788.127C640.983 785.648 644.883 787.725 644.883 791.603C644.883 794.995 639.754 795.503 637.762 792.345ZM154.325 779.268L142.583 765.936L159.539 750.125C168.822 741.435 179.335 732.088 182.811 729.353C189.106 724.373 189.106 724.373 197.223 733.148C211.466 748.556 213.438 751.693 210.958 754.258C207.228 757.903 205.405 757.077 197.542 748.217C190.102 739.866 190.102 739.866 183.722 744.423L177.343 748.959L184.549 756.907C191.416 764.538 191.586 765.11 188.364 768.67C185.057 772.316 184.718 772.231 177.682 764.452C170.475 756.504 170.476 756.504 163.926 761.718L157.398 766.932L165.431 776.449C173.04 785.648 173.21 786.135 169.734 789.293C166.258 792.43 165.431 791.942 154.325 779.268ZM311.973 789.378C310.32 785.075 314.538 781.006 317.526 783.994C320.091 786.559 318.501 792.515 315.28 792.515C314.114 792.515 312.63 791.116 311.973 789.378ZM655.565 783.337C654.06 779.691 658.957 775.792 661.606 778.526C663.747 780.688 661.775 786.559 658.871 786.559C657.706 786.559 656.223 785.075 655.481 783.337H655.565ZM295.738 780.179C294 778.441 294 777.127 295.653 775.219C298.472 771.828 303.601 775.453 301.948 779.692C300.634 783.167 298.896 783.337 295.738 780.179ZM672.86 770.578C672.86 767.505 673.941 766.445 676.336 766.932C678.243 767.271 679.812 768.925 679.812 770.578C679.812 772.146 678.243 773.799 676.336 774.139C673.941 774.626 672.86 773.566 672.86 770.578ZM278.358 768.586C276.705 765.851 278.93 762.545 282.406 762.545C284.06 762.545 285.31 764.368 285.31 766.593C285.31 770.748 280.499 772.062 278.358 768.586ZM689.18 759.069C689.583 757.161 691.236 755.593 692.826 755.593C694.479 755.593 696.048 757.161 696.45 759.069C696.959 761.549 695.878 762.545 692.826 762.545C689.837 762.545 688.756 761.549 689.18 759.069ZM262.377 756.589C260.724 753.855 262.949 750.633 266.425 750.633C268.1 750.633 269.329 752.371 269.329 754.597C269.329 758.73 264.539 760.15 262.377 756.589ZM704.823 746.564C704.823 743.597 705.903 742.516 708.298 743.003C710.205 743.342 711.774 744.996 711.774 746.564C711.774 748.217 710.205 749.87 708.298 750.209C705.903 750.697 704.823 749.637 704.823 746.564ZM246.311 744.508C244.086 740.947 249.469 736.221 252.691 738.87C254.768 740.608 254.853 741.774 253.094 743.83C250.444 747.158 248.049 747.306 246.311 744.508ZM719.807 734.652C718.154 731.918 720.38 728.612 723.94 728.612C725.53 728.612 726.759 730.413 726.759 732.575C726.759 736.708 721.969 738.128 719.807 734.652ZM232.746 731.325C229.927 728.527 231.496 724.627 235.544 724.627C238.363 724.627 239.444 725.708 239.02 727.934C238.278 731.664 234.887 733.487 232.746 731.325ZM734.135 721.321C731.317 718.502 732.885 714.602 736.954 714.602C739.688 714.602 740.833 715.683 740.43 718.014C739.688 721.638 736.276 723.461 734.135 721.321ZM219.563 716.764C216.596 714.856 217.995 708.646 221.386 708.646C224.374 708.646 226.367 714.517 224.12 716.679C223.124 717.675 221.153 717.76 219.563 716.764ZM745.644 704.513C744.902 703.262 745.221 701.355 746.386 700.295C748.866 697.709 752.765 699.871 752.765 703.771C752.765 707.162 747.636 707.65 745.644 704.513ZM475.154 733.89C477.888 727.362 480.05 721.554 480.05 720.982C480.05 720.388 475.748 719.901 470.449 719.901C462.755 719.901 459.85 720.897 456.035 724.861C448.659 732.809 445.693 731.494 449.085 721.893C451.48 715.026 451.479 713.034 448.999 706.908C446.35 700.613 446.35 699.956 449.254 699.956C451.077 699.956 454.298 702.182 456.46 704.916C459.681 709.049 462.077 709.876 470.194 709.876C475.578 709.876 480.05 709.219 480.05 708.392C480.05 707.565 478.227 702.182 476.065 696.395C471.275 683.89 471.106 681.983 474.921 681.983C476.405 681.983 482.042 687.769 487.256 694.891C496.433 707.481 497.111 707.904 505.547 707.904C515.318 707.904 522.016 710.702 522.016 714.772C522.016 718.417 517.543 719.901 506.373 719.986C497.196 720.07 496.772 720.325 487.489 732.978C481.533 741.011 476.489 745.907 474.179 745.907C470.533 745.907 470.533 745.314 475.154 733.89ZM206.825 701.355C204.006 698.557 205.574 694.657 209.559 694.657C212.378 694.657 213.522 695.738 213.035 697.964C212.378 701.694 208.965 703.517 206.825 701.355ZM761.709 686.54C760.946 685.311 761.201 683.403 762.367 682.322C764.931 679.757 768.747 681.898 768.747 685.798C768.747 689.189 763.596 689.698 761.625 686.54H761.709ZM194.808 685.374C192.01 682.577 193.578 678.676 197.626 678.676C200.36 678.676 201.526 679.758 201.102 681.983C200.361 685.713 196.969 687.536 194.808 685.374ZM183.722 667.994C181.984 665.917 182.069 664.688 184.146 662.95C187.368 660.3 192.752 665.027 190.505 668.651C188.767 671.47 186.372 671.216 183.722 667.994ZM772.795 666.68C772.795 663.691 773.791 662.61 776.271 663.119C778.178 663.437 779.747 665.09 779.747 666.68C779.747 668.333 778.178 669.986 776.271 670.325C773.791 670.813 772.795 669.732 772.795 666.68ZM172.722 649.618C172.044 647.88 172.871 646.057 174.609 645.4C178.424 643.98 182.472 647.541 180.585 650.529C178.593 653.751 174.121 653.179 172.722 649.618ZM783.137 649.194C783.476 647.308 785.13 645.718 786.699 645.718C788.352 645.718 790.026 647.308 790.344 649.194C790.853 651.695 789.772 652.755 786.699 652.755C783.731 652.755 782.65 651.695 783.137 649.194ZM164.52 632.726C162.866 629.992 165.092 626.77 168.653 626.77C170.221 626.77 171.472 628.508 171.472 630.734C171.472 634.888 166.66 636.287 164.52 632.726ZM792.167 633.552C790.259 631.56 792.908 626.77 795.982 626.77C797.465 626.77 798.717 628.508 798.717 630.734C798.717 634.464 794.816 636.202 792.167 633.552ZM156.487 614.753C154.833 612.04 157.144 608.797 160.62 608.797C162.188 608.797 163.523 610.534 163.523 612.781C163.523 616.914 158.712 618.229 156.487 614.753ZM799.713 614.689C798.865 613.439 799.204 611.445 800.37 610.365C803.019 607.63 809.314 609.962 808.233 613.269C807.067 616.575 801.451 617.572 799.713 614.689ZM207.482 607.801C207.482 605.151 239.274 604.749 482.105 604.749C724.936 604.749 756.813 605.151 756.813 607.801C756.813 610.45 724.936 610.789 482.105 610.789C239.274 610.789 207.482 610.365 207.482 607.801ZM150.849 597.457C148.03 594.638 149.704 590.845 153.668 590.845C156.487 590.845 157.568 591.905 157.144 594.151C156.402 597.797 153.011 599.619 150.849 597.457ZM807.406 595.634C805.922 591.904 809.462 587.772 812.535 589.679C815.672 591.672 815.184 596.207 811.623 597.542C809.885 598.199 808.063 597.457 807.406 595.634ZM412.226 584.295C372.994 581.815 349.064 578.743 344.02 575.436C339.696 572.617 339.293 572.617 339.293 575.606C339.293 579.654 335.563 579.823 333.995 575.775C332.426 571.621 321.977 571.959 319.413 576.262C317.442 579.568 317.102 579.568 314.284 575.923C311.719 572.532 311.316 572.448 311.316 575.436C311.316 579.993 309.578 579.653 304.428 574.1C300.952 570.391 297.158 569.14 285.734 567.975C275.2 567 271.406 565.834 271.406 563.757C271.406 561.701 273.716 560.853 279.354 560.853C287.387 560.853 287.387 560.853 287.387 547.945C287.387 535.122 287.387 535.123 280.838 534.296C274.373 533.533 274.373 533.533 281.346 532.961C288.298 532.389 288.299 532.388 282.322 530.883C276.366 529.315 276.366 529.316 281.834 529.146C286.391 528.913 287.387 528.001 287.536 523.36C287.62 518.4 288.044 518.803 290.439 526.497C291.774 530.651 299.298 525.5 299.553 520.286C299.722 516.895 299.955 516.726 300.718 519.375C301.46 522.279 304.025 522.851 315.937 522.851C323.8 522.851 335.732 522.024 342.282 521.049C348.895 520.053 362.481 518.548 372.485 517.806L390.797 516.493L392.196 494.131C393.595 470.859 395.842 451.573 398.067 442.968C398.809 440.234 400.568 431.713 402.052 423.998C404.871 408.525 405.189 409.013 409.491 435.02C413.391 458.61 415.871 458.037 420.343 432.285C424.646 407.444 423.734 406.278 428.207 442.395C429.033 449.262 430.538 454.391 431.449 453.819C432.424 453.225 433.187 455.96 433.187 459.86C433.187 466.982 433.187 466.982 443.191 466.982C453.217 466.982 453.217 466.981 453.132 453.48C453.047 439.83 456.523 419.779 456.947 431.373C457.031 434.361 457.943 437.245 458.918 437.838C461.822 439.661 464.641 429.063 469.6 397.016C472.25 380.039 472.249 380.039 473.754 390.064C474.496 395.533 475.641 402.316 476.149 405.05C476.722 407.784 477.633 414.078 478.29 419.038C479.541 428.894 487.001 441.568 487.086 434.022C487.086 430.207 487.15 430.208 489.969 434.193C491.537 436.418 492.703 439.491 492.618 441.06C492.533 442.713 492.618 448.668 492.788 454.476C493.127 464.989 493.126 464.988 504.126 464.988C515.063 464.988 515.063 464.989 515.318 456.468C515.466 445.447 520.531 412.256 520.849 419.695C520.934 422.938 522.587 434.849 524.495 446.358L527.887 467.298L553.978 465.985C568.306 465.244 581.383 464.246 583.036 463.822C585.176 463.335 587.339 467.151 590.9 478.151C594.8 490.232 596.114 492.394 597.364 489.087C599.844 482.284 601.582 484.361 600.246 492.649C599.271 498.689 599.843 501.083 602.81 503.733C606.456 507.039 606.711 507.04 607.537 503.479C608.364 500.596 608.534 500.765 608.788 504.39C609.021 510.769 614.573 509.944 615.569 503.416C616.311 498.265 616.397 498.349 616.651 504.39C616.969 510.854 622.946 514.245 622.946 507.866C622.946 505.386 623.602 505.471 626.994 508.29C629.156 510.198 630.979 513.334 630.979 515.242C630.979 518.464 633.12 518.802 650.923 518.802C667.307 518.802 670.867 518.315 670.867 515.814C670.867 514.161 671.779 512.847 672.86 512.847C674.025 512.847 674.937 514.416 674.937 516.323C674.937 518.231 676.93 523.444 679.409 527.832C683.14 534.529 683.712 537.772 682.716 547.776L681.55 559.794L681.232 548.772C680.893 538.598 680.491 537.773 675.849 537.518C671.78 537.264 670.804 538.259 670.465 542.477C670.211 545.381 669.893 550.023 669.638 552.758C669.469 555.555 669.129 559.794 669.045 562.274C668.896 566.661 668.303 566.746 647.786 566.746C626.74 566.746 626.74 566.746 624.599 560.79C621.95 552.99 619.386 553.16 618.39 561.277L617.563 567.742L617.308 561.277C616.969 555.64 616.228 554.728 611.607 554.728C607.368 554.728 606.711 555.322 608.533 557.144C609.869 558.458 610.928 562.02 610.928 565.008C610.928 572.872 620.128 577.259 630.153 574.185C636.681 572.129 637.761 572.362 640.983 576.347C645.71 582.133 656.879 582.557 656.879 576.835C656.879 570.794 664.425 569.565 669.893 574.694C676.994 581.391 682.461 578.657 683.288 568.144C683.881 559.793 683.882 559.794 688.1 564.012C691.746 567.658 696.387 581.9 694.479 583.787C692.974 585.292 434.756 585.609 412.226 584.21V584.295ZM560.59 556.805C559.848 551.846 560.42 550.51 564.235 549.598C570.445 548.03 573.01 550.108 573.01 556.636C573.01 561.617 573.519 562.019 578.966 561.277C584.032 560.536 585.028 559.455 585.028 554.58C585.028 549.769 585.855 548.857 589.988 548.857C594.121 548.857 594.948 549.769 594.948 554.644C594.948 558.056 596.283 560.853 598.105 561.616C603.319 563.588 604.972 563.016 604.972 559.052C604.972 553.33 610.101 550.193 617.223 551.592C625.171 553.16 628.987 556.318 627.567 559.942C626.74 562.189 628.732 562.845 636.85 562.845C650.012 562.845 652.916 560.026 652.916 546.949C652.916 536.86 652.915 536.861 642.89 536.861C633.628 536.861 630.215 538.916 634.942 541.82C636.023 542.562 636.935 546.208 636.935 549.939C636.935 553.754 636.023 556.805 634.942 556.805C633.776 556.805 632.95 554.241 632.95 551.104C632.95 546.547 631.891 545.127 627.991 544.385C625.257 543.813 622.692 544.386 622.205 545.636C621.696 546.865 621.208 546.207 621.123 544.3C620.954 541.481 619.47 540.825 614.002 541.164C607.876 541.567 607.22 542.16 608.194 546.208C608.958 548.942 608.448 550.849 607.219 550.849C605.969 550.849 604.972 549.514 604.972 547.861C604.972 545.297 600.501 544.809 576.741 544.809C551.9 544.809 548.763 545.212 549.823 548.031C550.501 549.769 550.988 552.991 550.988 555.237C550.988 557.972 551.985 558.882 554.062 558.14C555.885 557.377 557.03 558.141 557.03 559.879C557.03 561.532 558.026 562.845 559.277 562.845C560.591 562.845 561.098 560.451 560.59 556.805ZM644.883 550.765C644.883 545.806 645.71 543.156 646.876 543.897C648.02 544.554 648.931 548.201 648.931 551.931C648.931 555.725 648.02 558.798 646.876 558.798C645.795 558.798 644.883 555.153 644.883 550.765ZM657.134 556.234C655.481 554.644 654.908 554.813 654.908 557.144C654.908 558.797 655.565 560.79 656.392 561.616C657.133 562.443 658.129 562.019 658.617 560.79C659.041 559.539 658.385 557.463 657.134 556.234ZM664.912 552.758C664.912 546.463 665.654 543.071 666.905 543.813C667.986 544.555 668.897 543.22 668.897 540.994C668.897 538.684 667.562 536.861 666.078 536.861C664.001 536.861 663.005 540.337 662.602 549.853C662.178 556.975 662.602 562.845 663.429 562.845C664.171 562.845 664.912 558.289 664.912 552.758ZM525.088 543.071C525.088 540.506 519.853 536.691 518.369 538.174C515.635 540.909 517.204 544.894 521.019 544.894C523.265 544.894 525.088 544.046 525.088 543.071ZM659.868 541.164C659.868 537.603 655.968 538.26 655.226 541.991C654.823 544.046 655.48 544.957 657.218 544.385C658.702 543.898 659.868 542.478 659.868 541.164ZM595.944 540.824C598.593 539.658 593.719 539.086 581.468 539.17C571.358 539.255 563.006 540.082 563.006 541.079C563.006 543.389 590.73 543.155 595.944 540.824ZM564.49 533.449C562.583 533.046 559.446 533.046 557.538 533.449C555.631 533.957 557.114 534.359 561.014 534.359C564.893 534.359 566.482 533.957 564.49 533.449ZM614.32 519.375C613.832 517.489 613.408 518.548 613.344 521.876C613.26 525.182 613.663 526.751 614.256 525.437C614.829 524.017 614.829 521.368 614.32 519.375ZM517.056 521.792C517.056 520.054 516.145 519.227 515.064 519.884C513.898 520.625 513.495 521.961 514.152 523.021C515.89 525.755 517.056 525.268 517.056 521.792ZM143.494 575.775C143.494 571.621 149.535 569.565 151.591 572.956C153.838 576.517 152.184 578.827 147.373 578.827C145.232 578.827 143.579 577.428 143.579 575.775H143.494ZM811.709 576.749C810.882 575.52 811.221 573.528 812.366 572.363C815.015 569.713 821.309 572.045 820.228 575.351C819.084 578.657 813.447 579.568 811.709 576.749ZM140.929 559.54C138.11 556.721 139.679 552.842 143.643 552.842C146.462 552.842 147.627 553.901 147.119 556.148C146.462 559.878 143.07 561.702 140.929 559.54ZM816.668 554.813C816.668 551.846 817.749 550.765 820.228 551.168C822.136 551.592 823.704 553.245 823.704 554.813C823.704 556.466 822.136 558.056 820.228 558.459C817.749 558.967 816.668 557.886 816.668 554.813ZM672.288 555.407C670.38 552.334 673.369 542.901 676.252 542.901C678.244 542.901 678.901 544.724 678.499 549.196C677.905 555.237 674.344 558.798 672.288 555.407ZM136.521 538.747C135.695 537.518 136.033 535.61 137.199 534.445C139.849 531.711 146.143 534.041 145.063 537.348C143.897 540.739 138.28 541.65 136.521 538.832V538.747ZM820.738 537.921C818.004 534.614 819.572 530.883 823.79 530.883C826.948 530.883 827.859 537.921 824.955 539.744C823.959 540.337 822.052 539.51 820.738 537.921ZM134.55 518.887C132.897 516.238 135.038 512.932 138.429 512.932C141.332 512.932 143.982 517.807 142.074 519.714C140.167 521.537 135.864 521.113 134.55 518.887ZM822.963 518.146C821.225 516.069 821.31 514.839 823.388 513.164C825.528 511.363 826.693 511.512 828.431 513.589C830.169 515.751 830.084 516.895 827.944 518.633C825.867 520.371 824.701 520.287 822.963 518.146ZM200.53 500.766C204.578 489.173 204.345 488.092 196.481 482.708C187.198 476.329 187.622 474.93 199.046 474.93C208.647 474.93 208.647 474.93 212.378 464.502L216.172 454.137L219.414 463.992C222.721 473.932 222.721 473.933 233.403 474.93L244.17 475.926L235.798 481.711C227.024 487.751 226.769 489.172 231.75 502.504C234.315 509.54 234.06 509.541 224.29 502.822C215.26 496.612 215.26 496.612 208.817 501.423C197.626 509.774 197.308 509.774 200.53 500.766ZM730.829 508.121C730.829 507.633 731.571 505.068 732.482 502.504C737.442 489.172 737.187 487.751 728.412 481.711L720.146 475.926L730.829 474.93C741.49 473.933 741.489 473.932 744.817 463.992L748.124 454.137L751.854 464.502C755.585 474.93 755.584 474.929 765.673 475.014L775.783 475.099L767.92 481.796C760.036 488.494 760.035 488.494 762.536 496.866C765.758 507.718 764.592 508.544 755.817 501.826C748.611 496.294 748.611 496.293 739.751 502.736C734.792 506.212 730.829 508.714 730.829 508.121ZM133.872 497.438C134.296 495.467 135.949 493.878 137.517 493.878C139.171 493.878 140.76 495.467 141.163 497.438C141.672 499.854 140.506 500.914 137.517 500.914C134.55 500.914 133.469 499.854 133.872 497.438ZM823.388 497.778C821.734 493.475 825.952 489.321 828.919 492.394C831.505 494.958 829.916 500.914 826.694 500.914C825.528 500.914 824.045 499.516 823.388 497.778ZM133.872 477.41C134.296 475.502 135.949 473.934 137.517 473.934C139.171 473.934 140.76 475.502 141.163 477.41C141.672 479.889 140.506 480.884 137.517 480.884C134.55 480.884 133.469 479.889 133.872 477.41ZM823.388 477.812C821.734 473.425 825.952 469.376 828.919 472.364C831.505 474.929 829.916 480.884 826.694 480.884C825.528 480.884 824.045 479.486 823.388 477.812ZM134.868 459.436C134.211 458.524 134.55 456.553 135.461 455.048C137.517 451.741 144.236 453.903 142.986 457.464C141.989 460.432 136.373 461.852 134.868 459.436ZM822.051 459.605C819.232 456.786 820.822 452.908 824.87 452.908C827.604 452.908 828.77 454.052 828.346 456.299C827.604 459.944 824.213 461.767 822.051 459.605ZM138.195 439.831C136.521 435.507 140.76 431.373 143.812 434.447C146.377 437.011 144.723 442.968 141.502 442.968C140.336 442.968 138.852 441.569 138.195 439.831ZM818.661 436.926C818.661 433.938 819.741 432.858 822.221 433.366C824.128 433.684 825.697 435.358 825.697 436.926C825.697 438.58 824.128 440.233 822.221 440.572C819.741 441.059 818.661 439.978 818.661 436.926ZM141.502 418.953C141.502 415.985 142.583 414.905 145.063 415.393C146.97 415.732 148.539 417.384 148.539 418.953C148.539 420.606 146.97 422.174 145.063 422.598C142.583 423.086 141.502 422.026 141.502 418.953ZM815.099 417.47C815.438 415.563 817.092 413.994 818.661 413.994C820.314 413.994 821.967 415.563 822.306 417.47C822.794 419.95 821.734 420.946 818.661 420.946C815.672 420.946 814.612 419.95 815.099 417.47ZM145.889 399.496C146.292 397.589 147.881 396.02 149.535 396.02C151.103 396.02 152.756 397.589 153.18 399.496C153.583 401.976 152.502 402.972 149.535 402.972C146.546 402.972 145.465 401.976 145.889 399.496ZM809.971 399.921C809.314 398.183 810.055 396.36 811.878 395.681C815.608 394.198 819.657 397.758 817.834 400.831C815.842 403.968 811.285 403.481 809.971 399.921ZM152.587 383.112C150.764 380.293 153.011 377.072 156.741 377.072C158.479 377.072 159.475 378.471 159.136 380.379C158.394 384.342 154.325 386.08 152.587 383.112ZM804.163 381.861C802.276 379.954 804.842 375.08 807.661 375.08C810.543 375.08 813.107 379.954 811.221 381.861C810.543 382.518 808.975 383.028 807.661 383.028C806.41 383.028 804.841 382.518 804.163 381.861ZM158.797 364.228C157.313 360.264 162.125 356.45 164.922 359.353C167.657 362.003 166.003 367.047 162.443 367.047C161.044 367.047 159.391 365.711 158.797 364.228ZM797.063 361.578C797.466 359.586 799.034 358.017 800.687 358.017C802.361 358.017 803.93 359.586 804.332 361.578C804.841 363.973 803.675 365.054 800.687 365.054C797.719 365.054 796.639 363.973 797.063 361.578ZM207.397 360.095C207.397 357.445 239.274 357.021 482.105 357.021C724.936 357.021 756.729 357.445 756.729 360.095C756.729 362.744 724.936 363.062 482.105 363.062C239.274 363.062 207.397 362.659 207.397 360.095ZM166.427 347.017C165.664 345.767 165.918 343.775 167.084 342.631C169.818 339.981 176.029 342.29 174.948 345.597C173.867 348.903 168.165 349.9 166.427 347.017ZM788.691 343.117C788.691 340.044 789.772 338.984 792.167 339.471C794.159 339.811 795.727 341.464 795.727 343.117C795.727 344.685 794.159 346.339 792.167 346.678C789.772 347.166 788.691 346.105 788.691 343.117ZM175.435 326.967C175.435 324.085 176.516 323.004 178.911 323.491C184.146 324.487 184.718 331.121 179.589 331.121C176.77 331.121 175.435 329.786 175.435 326.967ZM779.089 325.569C779.492 323.661 781.082 322.093 782.735 322.093C784.303 322.093 785.956 323.661 786.38 325.569C786.783 328.049 785.702 329.129 782.735 329.129C779.746 329.129 778.666 328.049 779.089 325.569ZM510.931 303.864C517.713 284.746 523.012 275.803 523.012 283.518C523.012 290.131 509.256 324.149 506.373 324.742C503.894 325.23 504.784 320.926 510.931 303.864ZM295.335 301.3V281.185H304.279C310.638 281.185 314.453 282.352 317.272 285.171C325.474 293.352 320.176 307.107 308.731 307.107C304.343 307.107 303.432 308.104 302.944 313.551C302.541 317.875 301.121 320.269 298.811 320.756C295.653 321.35 295.335 319.358 295.335 301.3ZM313.054 297.506C315.618 292.779 313.287 289.388 307.247 288.731C303.029 288.222 302.203 289.05 301.694 294.603C301.122 300.389 301.63 301.151 306.081 301.151C308.9 301.151 311.973 299.562 313.054 297.506ZM328.357 303.207C327.615 293.266 327.615 284.259 328.357 282.924C330.519 279.448 347.496 282.012 350.633 286.315C354.024 290.956 353.939 298.332 350.463 301.554C348.153 303.716 348.323 305.2 351.459 311.579C356.186 320.672 356.186 321.097 351.459 321.097C348.98 321.097 346.33 318.361 343.935 313.635C341.943 309.502 339.378 306.111 338.297 306.111C337.216 306.111 336.072 309.502 335.648 313.635C335.309 318.107 333.995 321.097 332.426 321.097C330.603 321.097 329.438 315.881 328.442 303.207H328.357ZM346.669 295.853C347.411 293.86 346.5 291.529 344.168 289.876C338.213 285.489 335.224 286.57 335.224 293.119C335.224 298.248 336.072 299.159 340.29 299.159C343.172 299.159 345.906 297.654 346.669 295.853ZM364.049 301.639C372.739 275.802 374.965 275.569 382.998 299.561C386.41 309.756 389.208 318.786 389.208 319.613C389.208 323.004 382.764 320.841 381.768 317.111C381.026 314.144 379.034 313.148 374.223 313.148C369.348 313.148 367.44 314.144 366.614 317.111C366.042 319.442 363.88 321.097 361.569 321.097C357.669 321.097 357.754 320.354 364.049 301.639ZM376.469 301.978C375.812 300.24 375.134 297.336 375.05 295.514C374.965 292.864 374.562 292.949 373.227 296.171C370.578 302.381 370.916 305.115 374.392 305.115C376.554 305.115 377.211 304.034 376.469 301.978ZM401.798 319.103C396.244 316.878 392.196 304.033 394.019 294.432C395.503 286.654 401.459 281.185 408.58 281.185C413.815 281.185 421.17 287.65 421.17 292.207C421.17 296.679 416.04 295.768 412.565 290.617C407.668 283.432 402.306 288.137 401.543 300.557C400.971 311.664 404.192 316.37 411.081 314.145C416.295 312.491 416.38 307.934 411.229 306.599C404.871 304.946 406.524 301.639 414.218 300.812C421.17 299.986 421.17 299.985 421.17 308.506C421.17 319.93 413.879 323.999 401.798 319.103ZM433.187 317.111C429.775 313.804 429.118 310.498 429.118 297.167C429.118 285.086 429.775 281.185 431.852 281.185C433.76 281.185 434.925 285.574 435.836 296.595C437.32 313.487 439.228 317.281 444.696 313.89C447.345 312.237 448.257 308.252 448.744 296.34C449.147 283.009 449.741 281.016 452.708 281.61C455.442 282.097 456.205 284.916 456.692 296.679C457.265 309.841 456.862 311.58 452.305 316.137C446.265 322.177 438.549 322.579 433.187 317.111ZM464.302 303.037C463.56 293.203 463.475 284.174 464.153 283.093C464.81 282.012 470.194 281.185 476.234 281.185C484.5 281.185 487.086 281.843 487.086 284.175C487.086 286.316 484.839 287.141 479.053 287.141C471.932 287.141 471.105 287.65 471.105 292.207C471.105 296.51 471.932 297.167 478.057 297.167C482.932 297.167 485.094 298.078 485.094 300.155C485.094 302.211 482.932 303.123 478.057 303.123C471.592 303.123 471.105 303.547 471.105 309.418C471.105 315.543 471.19 315.628 479.053 314.547C486.005 313.636 487.086 314.059 487.086 317.28C487.086 320.608 485.581 321.097 476.404 321.097H465.637L464.302 303.037ZM545.034 301.151C545.034 281.186 545.033 281.185 552.558 281.185C566.568 281.185 572.354 289.643 566.801 301.808C565.063 305.539 565.317 307.934 567.797 312.724C571.781 320.524 571.782 321.097 567.394 321.097C565.148 321.097 562.413 318.362 560.42 314.145C558.619 310.245 555.715 307.107 554.062 307.107C551.9 307.107 550.988 309.164 550.988 314.145C550.988 319.019 550.078 321.097 548.022 321.097C545.521 321.097 545.034 317.535 545.034 301.151ZM562.329 296.001C563.007 294.263 562.18 291.466 560.42 289.706C556.203 285.489 550.988 287.905 550.988 294.115C550.988 298.163 551.985 299.159 556.034 299.159C558.853 299.159 561.671 297.739 562.329 296.001ZM574.431 319.93C571.929 317.365 575.426 313.635 579.305 314.631C585.176 316.199 586.914 311.982 586.914 295.683C586.914 284.089 587.593 281.185 589.988 281.185C594.375 281.185 594.29 313.487 589.818 317.96C586.766 321.012 576.826 322.346 574.516 319.93H574.431ZM598.932 319.613C598.932 318.786 601.328 310.16 604.316 300.473C609.106 284.662 613.006 278.537 616.143 281.695C617.647 283.179 628.732 315.628 628.816 318.617C628.986 323.089 623.603 321.266 621.293 316.137C619.703 312.724 617.393 311.155 613.918 311.155C610.357 311.155 608.28 312.661 606.966 316.137C605.228 320.609 599.017 323.322 598.932 319.613ZM616.906 302.635C616.906 301.3 616.057 298.989 615.167 297.506C613.832 295.344 613.26 295.514 612.179 298.163C610.187 303.292 610.696 305.115 613.918 305.115C615.571 305.115 616.906 304.034 616.906 302.635ZM634.858 301.151C634.858 281.186 634.857 281.185 642.488 281.185C654.06 281.185 659.529 285.997 658.3 295.259C657.791 299.413 658.215 303.716 659.359 304.776C660.44 305.942 660.779 309.163 660.037 312.067C658.617 317.959 652.173 321.097 641.724 321.097C634.857 321.097 634.858 321.096 634.858 301.151ZM650.584 313.402C654.654 310.837 652.491 304.204 647.362 303.547C643.547 302.954 642.89 303.801 642.89 309.015C642.89 315.225 645.37 316.624 650.584 313.402ZM651.919 295.089C653.573 292.44 649.355 287.141 645.625 287.141C644.056 287.141 642.89 289.219 642.89 292.207C642.89 297.336 649.27 299.413 651.919 295.089ZM185.46 311.155C185.46 308.103 186.541 307.022 188.936 307.51C190.844 307.849 192.412 309.502 192.412 311.155C192.412 312.723 190.844 314.398 188.936 314.716C186.541 315.225 185.46 314.144 185.46 311.155ZM770.145 311.812C767.242 309.014 768.895 305.115 772.88 305.115C775.699 305.115 776.843 306.28 776.356 308.506C775.699 312.151 772.307 313.974 770.145 311.812ZM803.675 307.425C777.181 291.042 783.964 264.378 819.169 246.743C832.416 240.046 841.848 239.707 850.623 245.747C864.611 255.264 868.002 272.008 858.74 285.086C853.272 292.695 850.453 292.78 846.15 285.404C842.929 279.957 842.928 279.533 846.722 276.141C855.582 268.109 847.803 253.696 835.955 256.028C827.859 257.681 808.805 269.423 804.015 275.802C796.639 285.573 806.156 299.562 817.262 295.344C821.65 293.691 822.878 294.115 825.527 298.163C829.999 304.945 829.598 306.45 822.391 308.93C813.786 311.982 810.628 311.749 803.76 307.425H803.675ZM135.546 298.651C123.952 292.864 106.233 275.718 104.495 268.681C102.249 259.737 105.237 249.817 112.359 242.271C118.23 236.061 120.137 235.235 128.912 235.235C134.296 235.235 140.421 236.485 142.498 237.969C146.059 240.618 146.059 241.043 142.901 245.833C140.082 250.135 138.513 250.729 131.9 249.817C122.617 248.567 117.488 252.616 117.488 261.157C117.488 271.5 145.635 291.041 156.571 288.307C164.35 286.399 166.999 278.452 162.612 270.271C159.221 263.976 159.221 263.381 162.527 258.337C166.003 253.038 166.003 253.04 170.73 257.512C178.847 265.121 180.585 274.976 175.774 285.828C168.398 302.466 153.011 307.362 135.461 298.651H135.546ZM196.481 297.167C194.743 294.433 197.054 291.211 200.53 291.211C202.098 291.211 203.434 292.949 203.434 295.175C203.434 299.329 198.622 300.643 196.481 297.167ZM757.153 291.699C757.471 289.706 759.124 288.137 760.799 288.137C762.367 288.137 764.02 289.706 764.359 291.699C764.846 294.115 763.766 295.175 760.799 295.175C757.725 295.175 756.645 294.115 757.153 291.699ZM207.397 279.193C207.397 276.141 208.478 275.061 210.958 275.57C212.865 275.888 214.434 277.54 214.434 279.193C214.434 280.783 212.865 282.437 210.958 282.754C208.478 283.263 207.397 282.182 207.397 279.193ZM745.135 275.717C745.474 273.746 747.128 272.157 748.781 272.157C750.349 272.157 752.023 273.746 752.341 275.717C752.85 278.133 751.769 279.193 748.781 279.193C745.729 279.193 744.648 278.133 745.135 275.717ZM220.814 267.938C217.91 265.035 219.563 261.241 223.548 261.241C226.367 261.241 227.511 262.322 227.024 264.548C226.367 268.193 222.975 270.016 220.814 267.938ZM732.058 262.153C731.316 260.331 732.143 258.592 733.881 257.914C737.781 256.346 739.603 258.169 738.098 262.153C736.529 266.032 733.542 266.032 732.058 262.153ZM764.677 256.112C761.773 253.123 760.714 250.474 761.858 249.393C762.854 248.397 776.271 237.143 791.595 224.468C819.488 201.302 819.488 201.302 824.045 205.604C826.609 207.999 828.686 210.48 828.686 211.221C828.686 212.387 776.44 256.854 771.713 259.673C770.314 260.5 767.326 258.994 764.677 256.112ZM187.029 255.943C185.291 254.12 180.331 239.369 176.198 223.07L168.483 193.354L156.974 204.778C145.465 216.117 145.465 216.117 141.163 211.73C136.776 207.427 136.775 207.427 153.583 189.878C162.782 180.192 170.899 172.074 171.556 171.734C175.032 170.166 179.589 181.336 186.541 208.742L194.32 239.22L206.825 226.799C219.415 214.379 219.414 214.38 223.887 218.767C228.274 223.239 228.274 223.239 210.386 241.191C200.615 251.047 192.01 259.164 191.416 259.164C190.759 259.164 188.852 257.765 187.029 255.943ZM234.802 253.865C231.983 251.131 233.488 246.913 236.879 247.57C238.787 247.909 240.355 249.478 240.355 251.046C240.355 254.204 236.879 256.027 234.802 253.865ZM718.154 248.313C716.585 244.264 721.461 240.619 724.365 243.608C726.103 245.261 726.103 246.574 724.534 248.566C721.715 251.957 719.468 251.873 718.154 248.313ZM248.706 239.877C245.993 237.143 247.392 232.925 250.868 233.582C252.776 233.921 254.344 235.49 254.344 237.058C254.344 240.216 250.868 242.017 248.706 239.877ZM738.267 226.969C729.747 219.254 722.795 211.815 722.795 210.564C722.795 209.25 734.708 196.237 749.375 181.676C775.932 155.182 775.931 155.181 780.743 160.31C785.554 165.439 785.555 165.44 767.581 183.816C738.692 213.383 740.175 209.484 752.765 222.243C763.278 232.926 763.448 233.179 759.803 237.142C757.81 239.368 755.584 241.191 754.906 241.128C754.334 241.128 746.788 234.747 738.267 226.969ZM703.826 235.235C702.172 232.501 704.398 229.194 707.959 229.194C709.548 229.194 710.778 231.018 710.778 233.243C710.778 237.313 705.987 238.711 703.826 235.235ZM263.542 226.46C261.889 224.383 261.953 223.239 264.03 221.501C267.252 218.767 272.55 223.557 270.41 227.118C268.672 229.937 266.277 229.767 263.542 226.46ZM687.76 223.154C685.937 220.081 691.004 214.634 693.399 217.029C695.624 219.254 693.885 225.232 691.003 225.232C689.922 225.232 688.502 224.32 687.76 223.154ZM279.354 214.295C277.362 211.815 277.531 211.073 280.265 209.992C284.144 208.488 288.383 211.9 286.475 215.036C284.568 218.025 282.236 217.771 279.354 214.295ZM212.865 187.228C200.954 171.82 190.844 158 190.271 156.495C189.593 154.842 195.804 148.632 206.486 140.366C223.802 126.865 223.802 126.865 228.104 131.167C232.407 135.555 232.407 135.556 224.459 141.935C205.574 157.175 206.486 155.436 213.035 163.215L218.821 170.082L229.334 162.388C239.847 154.588 239.847 154.589 243.577 159.485C247.223 164.296 247.223 164.359 241.839 168.258C225.858 180.106 225.943 179.938 232.322 188.543C235.459 192.76 238.278 196.576 238.533 196.915C238.787 197.233 244.573 193.27 251.356 187.971C263.691 178.37 263.691 178.37 267.421 183.329C269.499 186.063 270.494 188.796 269.753 189.453C262.949 195.409 236.795 215.206 235.714 215.206C234.972 215.206 224.713 202.616 212.865 187.228ZM672.204 211.985C669.385 209.081 671.038 205.266 675.023 205.266C677.842 205.266 678.901 206.347 678.499 208.572C677.757 212.218 674.344 214.041 672.204 211.985ZM295.653 201.704C296.077 199.797 297.73 198.228 299.299 198.228C300.952 198.228 302.541 199.797 302.944 201.704C303.432 204.184 302.372 205.266 299.299 205.266C296.331 205.266 295.25 204.184 295.653 201.704ZM655.395 200.963C652.746 198.314 654.315 193.27 657.875 193.27C661.521 193.27 663.09 198.568 660.122 201.048C658.3 202.532 656.879 202.531 655.395 200.963ZM312.8 194.096C310.892 192.189 313.457 187.292 316.276 187.292C319.179 187.292 321.659 192.189 319.836 194.096C319.179 194.753 317.59 195.24 316.276 195.24C315.025 195.24 313.457 194.753 312.8 194.096ZM637.677 190.365C637.019 188.712 637.105 186.551 637.762 185.491C639.415 182.842 644.883 184.981 644.883 188.288C644.883 192.018 638.926 193.672 637.591 190.365H637.677ZM685.196 184.071C677.332 179.026 670.867 174.3 670.867 173.473C670.867 172.307 711.118 112.538 713.767 109.719C715.336 108.15 742.401 130.002 744.478 134.474C749.523 145.58 743.481 160.481 732.969 162.537C727.585 163.618 727.268 164.21 728.243 171.395C729.154 178.284 728.497 180.022 722.202 186.232C712.028 196.491 703.826 196.003 685.196 184.071ZM711.118 176.78C717.646 171.566 717.158 167.094 709.464 159.887C702.089 152.935 702.088 152.935 698.527 157.577C690.176 168.683 689.584 171.396 694.564 175.465C699.948 179.853 706.646 180.34 711.118 176.78ZM729.663 146.894C733.796 140.938 733.626 139.942 727.5 134.241C720.464 127.776 718.726 128.031 712.855 136.551C707.959 143.842 707.959 143.842 712.6 147.551C718.81 152.617 725.848 152.277 729.663 146.894ZM330.264 185.236C328.611 182.587 330.837 179.28 334.398 179.28C335.987 179.28 337.301 181.082 337.301 183.244C337.301 187.377 332.426 188.797 330.264 185.236ZM618.876 179.28C618.876 176.292 619.958 175.211 622.437 175.635C624.345 176.037 625.913 177.606 625.913 179.28C625.913 180.933 624.345 182.502 622.437 182.905C619.958 183.414 618.876 182.248 618.876 179.28ZM348.238 177.288C346.584 174.554 348.81 171.332 352.371 171.332C353.939 171.332 355.274 173.07 355.274 175.296C355.274 179.429 350.463 180.764 348.238 177.288ZM282.003 172.901C273.547 170.739 266.023 162.536 258.392 147.318C249.872 130.256 248.706 123.135 252.606 113.364C259.388 96.387 280.435 91.5121 294.254 103.593C302.859 111.139 302.944 112.198 295.25 115.356C289.782 117.667 288.701 117.434 284.399 113.364C278.528 107.896 270.898 109.061 266.341 116.098C263.458 120.485 263.543 121.736 267.252 131.592C275.963 154.673 284.971 163.618 294.742 158.997C299.299 156.751 300.464 154.843 300.952 147.975C301.376 141.596 302.774 138.861 306.674 136.296C313.287 131.909 315.195 134.644 315.28 148.145C315.28 156.92 314.538 158.658 307.501 165.355C299.129 173.304 291.859 175.466 282.003 172.901ZM600.098 173.473C598.762 171.332 603.806 166.86 605.629 168.683C606.371 169.34 606.966 171.163 606.966 172.646C606.966 175.635 601.836 176.292 600.098 173.473ZM366.36 169.509C364.367 166.267 370.429 162.961 372.909 165.949C374.138 167.433 374.562 169.255 373.905 169.997C371.997 171.905 367.695 171.565 366.36 169.509ZM581.383 165.78C581.7 163.872 583.375 162.304 584.944 162.304C586.597 162.304 588.25 163.872 588.589 165.78C589.077 168.26 587.996 169.34 584.944 169.34C581.955 169.34 580.874 168.26 581.383 165.78ZM385.562 161.794C385.986 159.887 387.555 158.318 389.208 158.318C390.797 158.318 392.451 159.887 392.853 161.794C393.277 164.295 392.196 165.27 389.208 165.27C386.241 165.27 385.16 164.295 385.562 161.794ZM561.926 161.137C561.184 159.886 561.416 158.085 562.582 156.92C565.147 154.44 568.962 156.496 568.962 160.396C568.962 163.787 563.834 164.295 561.926 161.137ZM404.193 159.314C402.54 156.665 404.701 153.36 408.092 153.36C410.996 153.36 413.645 158.233 411.738 160.141C409.83 161.964 405.528 161.561 404.193 159.314ZM542.299 157.832C541.727 156.92 542.045 154.927 542.956 153.444C544.949 150.137 551.647 152.277 550.502 155.838C549.506 158.827 543.783 160.227 542.299 157.832ZM631.89 155.436C621.441 150.137 616.142 141.341 617.478 131.655C618.643 122.88 639.075 76.2727 641.894 75.7852C642.975 75.5309 646.282 76.1881 649.27 77.2691C654.654 79.0918 654.653 79.0914 644.543 101.685C631.127 131.909 630.215 135.068 633.946 140.685C637.337 145.898 648.931 147.234 652.407 142.846C653.488 141.426 659.295 129.26 665.336 115.759C671.376 102.194 676.676 91.0038 677.078 90.9402C677.502 90.7706 680.723 91.6811 684.284 92.9104C690.663 95.1571 690.664 95.1581 678.668 121.737C672.119 136.382 664.594 150.455 662.009 153.019C655.396 159.738 642.319 160.735 631.806 155.436H631.89ZM424.073 155.097C423.332 153.931 423.65 152.024 424.731 150.88C427.295 148.4 431.195 150.455 431.195 154.44C431.195 157.831 425.981 158.319 424.073 155.097ZM523.753 154.356C522.015 149.799 524.834 146.64 528.226 149.459C531.871 152.448 531.786 154.588 527.971 156.093C526.233 156.75 524.411 156.009 523.839 154.356H523.753ZM444.103 153.274C442.45 150.625 444.759 147.318 448.257 147.318C449.825 147.318 451.14 149.141 451.14 151.282C451.14 155.436 446.349 156.835 444.103 153.274ZM463.475 149.798C463.899 147.891 465.467 146.322 467.121 146.322C468.689 146.322 470.342 147.891 470.766 149.798C471.19 152.278 470.109 153.274 467.121 153.274C464.068 153.274 462.988 152.278 463.475 149.798ZM483.44 149.968C483.843 147.975 485.496 146.322 487.086 146.322C491.388 146.322 490.795 152.109 486.408 152.935C483.759 153.529 482.932 152.702 483.44 149.968ZM503.046 150.625C503.046 146.895 504.954 145.411 508.282 146.64C512.499 148.315 511.588 153.274 507.031 153.274C504.869 153.274 503.046 152.108 503.046 150.625ZM333.571 145.814C326.958 129.091 311.634 78.2646 312.884 77.1837C313.626 76.5266 316.679 75.3615 319.582 74.6196C324.711 73.4539 325.135 74.0475 329.353 86.8704C331.833 94.3311 334.164 100.944 334.482 101.601C335.309 103.021 355.274 97.8064 357.754 95.5598C358.581 94.7332 357.097 87.6117 354.363 79.6636C349.467 65.2722 349.467 65.2733 354.681 63.281C357.5 62.2 360.573 60.8854 361.4 60.3767C362.883 59.3806 388.296 132.99 386.982 134.241C386.473 134.559 383.421 135.471 379.945 136.212C373.65 137.548 373.651 137.548 369.178 123.962C366.699 116.522 364.367 109.718 363.964 108.976C363.541 108.234 357.839 109.485 351.205 111.711C337.81 116.183 338.043 115.102 345.419 136.721C348.98 147.064 348.98 147.064 342.854 149.141C339.463 150.37 336.475 151.282 336.22 151.282C335.987 151.282 334.822 148.802 333.571 145.814ZM555.461 129.918C553.066 129.43 550.988 127.692 550.988 126.039C550.988 123.39 568.793 54.9926 569.705 53.9965C569.959 53.7633 577.313 55.4165 586.024 57.642C609.932 63.7673 618.708 74.8736 613.091 91.9143C609.106 103.847 602.323 108.404 589.331 107.98C583.036 107.81 576.253 107.408 574.006 106.984C570.7 106.496 569.705 108.235 567.394 118.832C565.805 125.869 563.664 131.168 562.329 131.083C561.014 130.914 557.94 130.426 555.461 129.918ZM598.593 88.8626C602.154 81.2536 599.843 75.5316 591.811 72.2252C581.298 67.8378 579.877 68.4947 577.313 79.5161C574.345 92.5934 574.345 92.9103 578.478 94.076C587.677 96.5558 595.858 94.4157 598.508 88.8626H598.593ZM517.056 124.872C505.547 123.791 495.776 122.647 495.352 122.308C495.034 121.969 496.348 104.42 498.341 83.3944L501.987 45.0742L511.99 46.1337C517.543 46.812 527.653 47.7872 534.52 48.5502C546.771 49.7796 547.026 49.9489 547.026 55.7351C547.026 61.7121 547.025 61.7114 531.214 60.2913C515.466 58.9772 515.467 58.9779 514.068 67.3288C513.326 71.8857 513.155 76.1038 513.728 76.6973C514.321 77.2695 520.193 78.2647 526.891 78.8369C538.569 79.9179 539.078 80.1726 539.078 85.5561C539.078 91.088 538.823 91.1734 525.576 91.7669C512.075 92.4239 512.075 92.4237 511.503 101.601C510.846 110.8 510.846 110.799 518.455 112.05C522.588 112.707 529.391 113.279 533.524 113.279C540.731 113.364 541.048 113.534 541.048 120.316C541.048 124.216 540.391 127.205 539.564 127.035C538.738 126.866 528.565 125.869 517.056 124.872ZM430.368 101.855C429.711 88.9469 428.545 71.3975 427.888 62.9407L426.638 47.4688L438.401 46.9604C457.943 46.3034 464.641 47.0452 469.855 50.4364C480.049 57.1552 481.448 75.2765 472.673 86.5522C468.286 92.0841 468.286 92.0841 475.811 105.924C479.965 113.533 482.932 120.147 482.36 120.741C481.851 121.228 478.375 121.905 474.814 122.054C468.604 122.308 467.777 121.567 461.165 108.892C455.696 98.2098 453.216 95.4123 449.656 95.4123C445.353 95.4123 445.099 96.1535 445.099 110.397C445.099 125.381 445.099 125.382 438.401 125.382C431.682 125.382 431.682 125.381 430.368 101.855ZM460.592 78.9223C463.814 76.3577 463.899 64.934 460.741 61.7971C459.427 60.4619 454.7 59.3806 450.228 59.3806C442.111 59.3806 442.11 59.3809 442.873 71.568C443.53 83.7339 443.53 83.7336 450.821 82.3983C454.87 81.6565 459.257 80.088 460.656 78.9223H460.592ZM268.587 907.18C267.93 905.442 267.337 903.703 267.337 903.216C267.337 902.707 266.022 902.389 264.369 902.389C260.724 902.389 260.47 904.7 263.776 908.006C267.188 911.419 269.986 910.91 268.587 907.18ZM14.5861 422.853C13.0812 420.437 7.6981 420.437 7.6981 422.769C7.6981 424.994 12.0005 426.817 14.1624 425.588C15.0738 425.079 15.2431 423.849 14.5861 422.853Z" fill="#8550DC"/>
</svg>
