<svg width="968" height="970" viewBox="0 0 968 970" fill="none" xmlns="http://www.w3.org/2000/svg">
<path fill-rule="evenodd" clip-rule="evenodd" d="M446.931 962.785C439.971 955.825 431.032 953.93 424.27 958.258C421.639 959.899 422.855 961.002 429.023 962.332C444.951 965.868 434.992 966.745 414.339 963.775C374.674 957.918 326.464 944.31 291.213 928.948C272.879 920.998 268.013 917.235 270.446 913.161C271.21 912.058 270.672 911.067 269.229 911.067C267.787 911.067 266.146 912.481 265.58 914.151C264.929 916.131 255.083 911.605 239.721 902.552C174.847 864.188 118.914 811.14 78.3716 749.492C46.2036 700.745 15.1676 624.158 9.50919 579.853C8.85847 574.76 7.86823 567.573 7.18922 564.037C2.01179 535.292 0.681568 524.033 1.02107 511.443C1.33228 503.464 2.54915 496.164 3.99204 495.287C5.43493 494.297 4.75607 491.1 2.5493 487.45C-2.96764 478.595 0.908174 423.793 9.96161 383.449C31.5201 287.313 74.7217 207.727 141.264 141.863C218.049 65.7296 309.235 19.8684 416.093 3.60052C458.758 -2.90664 558.883 -0.0486569 566.861 7.81652C568.728 9.6838 573.142 10.6732 576.792 10.0225C591.39 7.2499 657.904 28.922 701.332 50.5654C811.417 105.508 903.365 210.5 942.267 325.535C949.113 345.99 950.217 351.847 947.473 353.517C943.484 355.921 945.804 376.15 950.331 378.922C952 380.026 952.424 378.583 951.32 375.273C950.443 372.302 950.784 369.19 952.227 368.313C955.424 366.332 956.527 370.067 961.818 399.689C971.324 452.538 969.003 560.274 958.083 571.223C955.31 573.967 954.858 575.75 956.867 576.401C960.403 577.617 953.981 608.795 949.568 611.568C948.125 612.445 946.456 618.414 946.031 624.922C944.702 645.603 916.07 710.251 894.087 742.306C888.457 750.482 885.032 753.141 881.694 752.009C872.527 749.152 867.662 753.339 869.218 762.845C870.661 771.814 866.247 779.65 859.712 779.65C857.505 779.65 857.505 780.415 859.712 782.621C861.918 784.856 861.381 787.488 857.279 792.92C852.978 798.777 850.205 799.993 843.019 799.427C838.039 799.115 833.399 799.766 832.635 800.983C831.871 802.312 832.977 803.303 835.07 803.303C850.772 803.303 830.429 827.295 782.898 864.867C757.831 884.643 731.294 901.985 708.321 913.585C692.392 921.563 691.516 921.761 687.753 917.122C685.659 914.604 684.669 913.925 685.546 915.707C689.196 922.978 665.769 937.463 659.121 931.946C655.047 928.523 639.12 929.514 636.375 933.39C634.055 936.813 627.86 931.07 629.953 927.533C630.83 926.09 638.893 922.327 648.088 919.017C683.651 906.087 736.047 876.693 771.752 849.617C775.826 846.505 791.755 831.934 807.231 817.109C827.884 797.333 836.739 790.599 840.162 791.703C842.794 792.467 846.668 791.816 848.762 790.034C853.855 785.846 853.743 779.311 848.565 781.32C842.03 783.838 844.123 777.217 853.516 765.618C892.219 717.974 925.689 645.15 939.184 579.513C975.879 399.802 907.355 220.883 759.472 109.922C707.104 70.5959 627.294 35.4287 569.833 26.4885C486.286 13.3327 404.182 19.6425 332.66 44.5112C260.176 69.6911 209.986 101.746 153.091 158.896C115.604 196.468 92.7439 228.296 68.9787 276.024C34.2644 345.311 19.8922 405.545 19.2415 483.235C19.0151 503.351 18.0252 513.762 16.356 512.744C12.5083 510.311 9.8485 519.053 13.385 522.589C15.5918 524.796 16.356 524.796 16.356 522.25C16.356 520.496 17.4875 519.732 19.0153 520.609C20.4581 521.486 21.5614 526.89 21.5614 532.435C21.5614 547.911 33.2744 602.174 42.5542 630.127C81.2294 746.266 169.755 847.948 277.971 900.769C309.46 916.018 357.076 932.286 394.988 940.463C435.671 949.29 533.137 949.29 573.481 940.463C588.504 937.238 601.321 935.144 602.114 935.908C602.764 936.587 605.848 935.483 608.96 933.39C611.931 931.268 616.684 929.513 619.57 929.513C624.323 929.513 624.323 929.966 618.466 936.134C612.271 942.669 612.271 942.67 618.24 942.67C630.18 942.67 621.775 949.063 603.866 953.59C568.728 962.559 537.891 966.632 496.019 968.188C453.779 969.745 453.778 969.745 446.819 962.785H446.931ZM406.927 934.606C306.264 917.235 208.996 862.772 141.35 785.733C-17.1135 605.032 -9.16373 332.297 159.598 162.743C242.918 79.0836 348.249 32.6847 464.727 28.356C594.135 23.603 706.878 66.267 799.591 155.132C883.137 235.142 930.554 335.721 939.297 451.407C955.876 669.68 810.088 872.363 597.474 926.854C542.531 941 462.52 944.197 406.927 934.606ZM528.61 929.4C707.868 909.85 853.855 792.127 910.1 621.724C934.091 549.212 938.081 460.376 920.709 385.232C885.458 232.144 771.977 107.262 623.982 58.968C469.932 8.69309 306.914 42.8416 185.57 150.804C113.737 214.687 66.3193 297.244 45.2135 394.738C38.0273 427.981 35.3681 502.474 40.008 539.622C58.1432 684.279 148.536 814.563 276.755 880.54C291.891 888.405 312.007 897.911 321.4 901.759C347.683 912.482 407.153 927.081 430.579 928.637C442.065 929.288 452.023 930.391 452.674 931.07C454.796 933.163 503.515 932.06 528.61 929.287V929.4ZM480.543 913.698C482.184 903.768 481.872 903.202 475.789 903.202C472.139 903.202 468.604 904.984 467.727 907.191C464.954 914.377 461.955 911.152 461.757 900.542C461.418 888.83 461.529 888.83 468.376 893.159C476.326 898.138 482.297 894.262 479.213 886.086C473.583 871.261 479.75 869.732 489.709 883.426C494.688 890.159 498.537 892.593 505.525 893.159C517.011 894.262 517.548 899.014 506.288 900.118C499.555 900.655 496.556 903.089 491.039 912.595C482.41 927.307 478.11 927.731 480.543 913.698ZM376.541 787.827C372.241 783.526 366.384 779.198 363.498 778.321C349.239 773.794 341.94 750.708 349.239 732.572C356.086 715.343 373.117 709.26 389.923 717.861C410.236 728.386 411.255 765.957 391.451 776.114C384.944 779.537 384.265 780.641 387.801 782.537C390.121 783.838 394.761 784.63 398.099 784.177C402.739 783.753 404.267 784.856 404.267 788.817C404.267 793.033 402.173 794.249 394.337 794.9C386.273 795.579 383.048 794.249 376.541 787.827ZM383.953 764.939C391.903 759.422 392.356 737.976 384.604 731.017C368.591 716.446 351.785 747.058 367.374 762.619C374.872 770.258 376.201 770.371 383.953 764.939ZM425.062 773.031C418.866 766.835 418.526 765.165 419.318 740.862C419.969 717.21 420.422 715.23 425.288 715.23C430.041 715.23 430.692 717.437 431.908 737.553C433.351 763.525 434.794 766.495 445.064 766.495C454.231 766.495 455.22 763.637 456.211 734.892C456.776 717.21 457.315 715.23 462.068 715.23C466.934 715.23 467.386 717.21 468.15 740.862C468.829 765.165 468.49 766.835 462.294 773.031C457.23 778.095 453.014 779.65 443.734 779.65C434.341 779.65 430.126 778.095 425.062 773.031ZM484.39 748.388C484.39 722.954 485.182 716.757 488.379 715.541C498.649 711.58 500.204 715.768 500.204 748.388C500.204 779.651 500.205 779.65 492.368 779.65C484.39 779.65 484.39 779.651 484.39 748.388ZM528.27 777.897C527.28 776.878 526.518 765.052 526.518 751.585C526.518 727.055 526.517 727.056 517.35 727.056C507.731 727.056 505.298 722.953 511.268 716.984C514.578 713.787 548.952 712.57 556.562 715.428C564.427 718.54 561.43 726.603 552.15 727.48C543.634 728.385 543.634 728.386 542.87 754.019C542.106 778.774 541.879 779.65 536.136 779.65C532.684 779.65 529.26 778.774 528.27 777.897ZM576.792 774.134C554.809 753.679 567.738 713.9 596.341 713.9C625.538 713.9 637.365 758.319 612.723 775.548C603.981 781.631 584.091 780.868 576.792 774.134ZM609.187 755.235C612.384 742.079 608.733 731.809 599.567 728.584C589.268 724.934 581.772 732.347 581.772 746.068C581.772 761.968 585.535 766.948 597.021 765.958C605.848 765.279 606.952 764.175 609.187 755.235ZM317.185 609.022C300.605 604.693 299.502 601.383 309.885 586.133C316.534 576.316 316.76 575.184 313.874 559.822C309.687 537.301 310.112 505.246 314.752 494.184C319.505 482.697 330.34 481.028 331.019 491.638C331.217 495.74 330.001 498.287 327.681 498.287C325.701 498.287 324.031 500.041 324.031 502.247C324.031 504.369 325.814 506.123 328.02 506.123C332.773 506.123 333.112 509.208 328.699 513.649C326.039 516.394 326.379 517.723 330.453 520.836C334.443 523.693 334.867 525.249 332.434 527.682C328.134 531.983 328.473 535.066 333.226 535.066C335.433 535.066 337.187 536.283 337.187 537.725C337.187 539.168 338.969 540.385 341.176 540.385C343.27 540.385 345.052 541.715 345.052 543.271C345.052 544.912 342.732 545.591 339.733 544.799C334.443 543.469 327.681 550.994 331.104 554.418C333.99 557.303 341.94 556.285 343.157 552.862C343.836 550.995 345.25 550.429 346.381 551.448C349.013 553.881 342.93 561.378 338.404 561.378C332.887 561.378 331.783 568.79 337.074 570.544C339.733 571.45 343.383 573.882 345.25 575.976C348.023 579.399 347.485 579.627 341.176 577.193C337.074 575.637 333.339 574.873 332.66 575.524C332.01 576.203 333.99 577.42 336.988 578.41C345.702 581.154 343.269 584.039 333.226 582.936C321.711 581.606 320.947 586.586 332.235 589.019C337.073 590.123 340.95 592.866 341.714 595.865C343.27 601.835 343.269 601.835 353.341 596.63C361.178 592.555 368.704 579.4 368.704 569.667C368.704 566.131 366.158 564.037 360.188 562.481L351.672 560.387L360.414 559.397C368.025 558.52 369.016 557.502 367.686 552.664C363.385 536.849 363.159 520.496 367.148 515.29C370.458 510.99 371.222 510.763 371.222 514.3C371.449 521.259 392.441 509.887 392.441 502.927C392.441 498.825 391.564 498.286 389.018 500.493C386.274 502.7 385.595 501.37 385.595 494.184C385.595 485.131 385.595 485.13 401.834 485.13C416.094 485.13 418.64 485.895 422.176 491.44C427.042 498.711 440.651 507.567 450.921 510.226C458.108 511.98 458.107 511.867 458.107 498.513C458.107 480.604 464.727 479.699 466.708 497.381C467.613 504.794 469.933 511.103 472.677 513.083C477.317 516.506 502.751 520.609 508.155 518.826C509.711 518.289 511.466 510.989 512.031 502.587C512.484 494.184 513.587 486.687 514.35 485.894C518.113 482.132 521.311 489.657 521.311 502.474C521.311 515.403 521.876 517.072 528.044 519.392C535.457 522.249 556.138 522.702 565.305 520.269C570.596 518.826 571.275 517.073 571.275 501.937C571.275 482.245 575.461 479.501 577.781 497.607C578.658 504.454 579.677 511.867 579.988 514.073C580.667 519.732 601.774 520.496 614.137 515.403C623.53 511.442 624.096 510.65 622.314 502.7C619.569 490.223 619.569 487.111 622.54 486.008C623.983 485.47 626.981 490.11 629.188 496.165C633.828 509.773 637.025 510.65 656.461 503.351C670.07 498.286 671.399 497.07 669.956 491.44C668.74 486.461 669.42 485.13 673.381 485.13C676.153 485.13 679.124 486.885 680.029 489.092C681.896 494.184 696.381 494.184 706.199 489.092C711.744 486.234 716.271 485.781 723.995 487.563C732.058 489.318 734.264 489.091 734.264 486.121C734.264 480.038 744.337 482.019 748.977 489.007C754.607 497.834 752.06 503.464 742.356 503.464C734.491 503.464 734.492 503.464 739.811 515.516C742.782 522.136 744.563 529.21 743.77 531.332C742.016 535.859 733.388 536.198 725.891 532.208C720.912 529.549 721.025 530.115 726.995 538.065C749.741 568.45 746.657 594.65 719.808 599.629C707.868 601.949 679.35 599.629 675.814 596.092C672.73 592.867 672.051 583.049 674.484 575.863C677.681 566.47 673.833 564.376 659.235 567.347C652.049 568.79 640.336 569.243 633.376 568.111C620.673 566.244 620.672 566.244 622.426 556.851C623.982 548.561 623.644 547.798 619.344 549.438C599.002 557.728 490.246 556.087 443.734 546.892C433.578 544.799 418.866 542.592 411.029 541.828C403.277 541.149 392.13 538.178 386.273 535.179C380.417 532.322 375.098 530.426 374.56 530.992C373.994 531.529 374.985 538.829 376.654 547.232C382.284 574.081 374.872 598.638 358.972 605.909C349.692 610.125 327.794 611.766 317.185 609.022ZM697.485 586.133C697.485 583.926 696.269 582.823 694.826 583.7C693.383 584.577 692.167 586.473 692.167 587.803C692.167 589.133 693.383 590.236 694.826 590.236C696.269 590.236 697.485 588.453 697.485 586.133ZM713.159 587.689C713.159 586.246 712.056 585.03 710.726 585.03C709.425 585.03 707.53 586.246 706.653 587.689C705.776 589.132 706.879 590.349 709.086 590.349C711.406 590.349 713.159 589.132 713.159 587.689ZM731.634 573.204C731.634 565.254 726.881 556.285 705.549 523.806C696.581 510.226 692.392 506.123 687.639 506.123C680.113 506.123 668.204 511.98 663.111 518.289C659.688 522.363 660.111 522.363 666.76 517.949C674.257 513.083 674.258 513.084 667.411 523.156C663.648 528.559 660.564 534.189 660.564 535.406C660.564 539.168 665.967 537.839 667.523 533.765C668.4 531.53 670.184 529.775 671.514 529.775C672.957 529.775 672.843 531.87 671.174 534.868C666.647 543.356 667.863 545.789 675.7 543.921C681.669 542.478 682.35 542.818 679.69 545.676C673.834 551.872 676.04 554.078 686.197 552.324C696.043 550.768 696.043 550.769 688.63 554.871C679.124 560.162 680.679 561.944 692.053 558.718C701.672 555.974 709.425 558.407 701.136 561.604C696.694 563.273 696.92 563.584 702.776 563.698C706.539 563.811 711.518 565.367 714.064 567.234C717.799 570.007 716.272 570.544 704.22 570.544C690.64 570.544 684.216 572.666 687.527 575.976C688.404 576.853 694.486 577.617 701.248 577.73C707.868 577.844 713.838 578.635 714.263 579.513C714.942 580.276 718.931 581.041 723.458 581.041C730.729 581.041 731.521 580.164 731.521 573.091L731.634 573.204ZM328.247 556.851C325.587 554.078 323.38 558.18 325.587 561.717C327.256 564.376 327.794 564.376 328.784 561.717C329.35 559.821 329.124 557.615 328.247 556.851ZM328.247 538.716C327.03 535.406 325.7 534.981 323.607 537.074C322.051 538.602 321.513 542.055 322.503 544.488C323.72 547.911 325.049 548.335 327.143 546.241C328.699 544.572 329.237 541.262 328.247 538.716ZM574.925 540.498C577.245 538.602 579.111 535.405 579.111 533.425C579.111 530.539 570.822 529.775 535.683 529.775C511.918 529.775 491.463 529.436 490.36 529.125C489.257 528.786 488.04 531.105 487.616 534.302C486.937 538.942 488.379 540.272 495.452 541.488C523.971 546.241 568.729 545.675 574.925 540.498ZM620.559 533.538C627.632 525.475 628.283 520.609 621.889 523.353C619.343 524.457 611.394 526.466 604.094 527.909C584.545 531.756 584.431 531.756 584.431 537.952C584.431 543.355 585.195 543.582 599.454 541.941C611.054 540.725 616.033 538.715 620.559 533.538ZM481.873 534.415C481.873 529.775 479.552 527.795 471.375 525.135C465.604 523.353 458.757 521.939 456.211 521.826C449.364 521.826 428.824 511.98 421.751 505.36C415.442 499.617 415.443 499.616 422.289 513.309C432.135 532.859 443.847 539.168 471.912 540.045C480.542 540.272 481.759 539.508 481.759 534.415H481.873ZM324.597 524.032C322.164 521.599 321.4 522.25 321.4 527.229C321.4 532.095 322.164 532.746 324.597 530.342C327.03 527.909 327.03 526.465 324.597 524.032ZM417.423 529.775C416.546 528.332 411.453 527.229 406.049 527.342C398.213 527.569 397.42 527.993 401.636 529.775C409.02 532.972 419.432 532.972 417.423 529.775ZM729.54 516.083C727.644 514.187 726.314 514.073 726.314 515.742C726.314 519.166 729.54 522.25 731.294 520.609C731.945 519.817 731.181 517.837 729.54 516.083ZM407.718 511.64C408.482 509.122 407.492 508.443 404.833 509.547C402.287 510.424 400.306 509.547 399.854 507.113C399.203 504.03 397.534 504.681 392.441 510C385.934 517.073 385.934 517.073 396.204 516.196C402.061 515.743 407.039 513.762 407.718 511.64ZM344.26 570.12C341.063 566.895 342.392 564.151 346.381 565.707C348.588 566.471 350.343 568.224 350.343 569.554C350.343 572.327 346.693 572.667 344.26 570.12ZM337.187 529.775C337.187 528.332 338.969 527.116 341.176 527.116C343.27 527.116 345.052 528.332 345.052 529.775C345.052 531.218 343.27 532.435 341.176 532.435C338.969 532.435 337.187 531.218 337.187 529.775ZM334.555 514.073C334.555 512.546 335.659 511.443 336.988 511.443C338.403 511.443 340.299 512.546 341.176 514.073C342.053 515.516 340.837 516.62 338.63 516.62C336.423 516.62 334.555 515.516 334.555 514.073ZM861.805 490.11C863.474 480.152 862.909 478.595 856.175 473.078C848.65 466.995 848.65 466.996 859.175 465.355C868.228 463.799 870.434 462.129 873.858 453.953L878.073 444.334L882.26 454.179C885.344 461.478 888.116 464.138 892.53 464.138C903.931 464.138 906.252 468.099 898.613 474.182C892.219 479.161 891.766 480.83 893.407 490.648C895.189 501.71 895.191 501.71 887.014 495.854C878.725 489.884 878.725 489.884 869.332 495.514C859.939 501.031 859.937 501.031 861.805 490.11ZM74.3827 489.883C76.4763 482.584 75.9385 480.49 70.1952 474.521C62.7827 466.769 63.8861 464.138 74.8351 464.138C80.9179 464.138 83.0117 462.469 85.1053 456.16C88.6418 446.229 92.1784 446.116 95.6017 455.849C97.6953 462.13 100.128 463.799 109.21 465.242C120.131 466.996 120.131 466.995 111.841 473.417C104.344 479.274 103.778 480.717 105.985 488.214C108.984 499.05 107.428 500.381 97.8086 494.75C90.7356 490.535 89.5187 490.421 84.2281 494.184C74.6088 500.918 71.6384 499.503 74.3827 489.883ZM276.529 479.699C213.522 478.708 173.291 477.067 170.207 475.285C159.598 469.315 218.728 467.986 489.709 467.986C752.74 467.986 815.406 469.429 796.055 474.946C773.166 481.481 527.507 483.688 276.529 479.699ZM681.669 461.365C672.276 460.375 663.648 460.036 662.431 460.715C661.328 461.366 658.896 460.714 657.142 459.271C655.048 457.489 652.389 457.376 650.069 458.932C647.862 460.262 640.222 461.365 633.036 461.365L619.908 461.252L633.828 455.849C641.552 452.85 648.399 448.889 649.192 446.993C649.842 445.126 647.296 431.857 643.533 417.711C636.149 390.409 631.706 383.562 612.92 370.52C603.527 364.012 602.312 363.786 589.948 366.757C568.05 371.963 568.501 371.086 570.934 411.091C572.151 430.301 574.358 447.333 575.915 448.889C577.471 450.304 586.185 453.726 595.351 456.386L611.931 461.139L593.485 461.252C583.102 461.365 573.594 460.149 572.038 458.593C569.831 456.386 566.409 456.499 559.109 458.932C546.632 463.034 501.761 460.8 483.173 455.169C470.47 451.322 466.283 452.425 466.057 459.498C466.057 463.346 460.766 461.478 460.766 457.602C460.766 454.519 457.23 453.642 443.961 453.642C431.456 453.642 426.816 454.632 425.6 457.602C423.166 463.798 418.753 462.129 418.753 454.943C418.753 450.982 417.197 448.323 414.99 448.323C412.896 448.323 407.719 445.352 403.39 441.816C393.771 433.724 392.13 433.639 385.057 441.137C381.068 445.352 380.191 448.209 381.945 450.982C387.915 460.488 385.283 461.478 354.445 461.478C324.936 461.478 324.031 461.366 309.008 452.539C300.605 447.559 290.901 440.486 287.364 436.723C283.941 432.96 270.106 424.444 256.752 417.937C225.122 402.348 216.182 393.945 216.182 379.799C216.182 356.939 227.782 349.64 260.063 351.847C284.592 353.601 293.532 357.364 308.357 372.189C314.1 377.933 318.74 381.355 318.74 379.913C318.74 374.622 329.576 366.757 336.875 366.757C341.94 366.757 349.805 362.57 361.178 353.403C381.747 336.937 393.771 330.628 408.596 328.535C414.876 327.545 429.022 324.008 440.084 320.669C467.499 312.266 484.193 310.399 499.329 314.049C506.402 315.718 525.074 317.246 540.974 317.585C568.276 318.151 571.049 318.689 589.608 327.629C600.444 332.948 613.599 338.04 618.89 338.917C633.262 341.463 647.182 352.186 674.258 381.468C693.723 402.461 701.249 413.071 711.293 433.186C718.139 447.106 723.769 459.809 723.769 461.365C723.769 464.902 716.696 465.015 714.489 461.478C713.612 460.035 710.642 458.819 707.756 458.819C704.984 458.819 702.662 460.035 702.662 461.478C702.662 462.921 701.787 463.911 700.683 463.798C699.693 463.572 691.062 462.468 681.669 461.478V461.365ZM553.592 450.756C563.636 447.983 563.636 447.984 562.109 426.453C557.78 367.663 559.675 373.18 541.201 362.91C532.147 357.817 522.754 353.601 520.434 353.601C515.907 353.601 490.699 362.683 485.069 366.333C482.523 367.974 474.119 425.887 473.893 442.24C473.893 443.456 496.895 449.086 509.372 450.982C529.148 453.953 542.53 453.839 553.592 450.756ZM695.477 450.756C700.909 449.313 705.321 447.446 705.321 446.569C705.321 443.032 691.062 417.258 682.773 405.998C670.607 389.532 662.884 384.439 654.142 387.75C646.192 390.862 646.193 389.532 652.502 412.618C655.274 422.917 658.244 434.516 659.121 438.59C660.224 443.57 663.536 447.219 669.307 449.652C679.577 454.179 682.887 454.292 695.477 450.756ZM318.74 440.372C303.378 426.99 307.027 427.104 327.482 440.797C343.722 451.746 343.723 451.746 335.857 443.033L328.02 434.29L338.177 440.033C343.836 443.23 348.9 445.352 349.692 444.673C350.342 443.909 344.826 436.949 337.526 429.084C322.843 413.722 320.296 408.431 330.566 415.164C340.073 421.36 338.969 415.278 329.011 405.885C322.503 399.915 319.957 398.925 317.071 401.245C314.214 403.678 313.535 402.801 313.535 396.832C313.535 389.759 313.336 389.646 309.687 394.625C306.037 399.378 305.811 399.264 305.698 391.625C305.585 382.006 293.108 368.964 279.613 364.55C270.107 361.353 240.485 360.476 233.525 363.107C231.205 364.013 229.338 366.984 229.338 369.869C229.338 372.727 228.234 374.283 226.791 373.406C225.235 372.387 224.132 374.622 224.132 378.47C224.132 384.439 225.122 385.232 233.978 385.232C245.125 385.119 268.777 392.842 268.777 396.492C268.777 397.821 266.146 398.048 262.921 397.058C252.311 393.606 234.629 392.418 234.629 395.162C234.629 398.812 257.177 406.224 268.126 406.224C274.322 406.224 278.849 404.131 283.375 399.265C286.912 395.502 289.883 393.521 289.883 394.936C289.883 400.028 279.188 411.091 273.331 412.307C268.352 413.298 268.466 413.41 274.634 413.722C279.273 413.948 284.026 411.628 288.468 406.875C295.965 398.812 297.408 401.697 290.675 411.515C286.261 418.05 286.261 418.05 292.004 413.071C298.738 407.214 299.502 410.411 293.419 419.04C290.222 423.68 289.996 425.774 292.316 428.094C294.636 430.527 294.975 429.989 293.533 426C292.203 422.124 294.438 423.228 301.935 430.103C314.101 441.25 326.691 450.982 329.011 450.869C329.916 450.869 325.248 446.116 318.74 440.372ZM249.679 378.272C248.661 377.254 247.784 374.169 247.784 371.397C247.784 367.549 249.34 366.643 254.97 367.322C260.176 367.86 262.27 369.53 262.27 373.406C262.27 378.697 253.414 382.12 249.679 378.272ZM463.51 440.259C464.5 438.703 466.057 427.104 466.934 414.627C467.839 402.009 469.254 386.222 470.244 379.46C471.914 367.096 471.914 367.096 462.068 362.994C436.435 352.3 419.516 356.939 392.13 382.119C378.861 394.285 378.295 395.388 381.294 401.896C388.707 418.164 410.916 437.374 429.249 443.343C437.765 446.116 461.19 444.022 463.51 440.259ZM384.717 423.341C382.058 420.37 377.984 414.174 375.551 409.534C370.798 400.141 365.168 398.811 356.199 405.007C347.683 411.09 349.013 418.588 360.726 430.301C371.024 440.712 371.024 440.713 380.304 434.63C389.244 428.773 389.357 428.433 384.717 423.341ZM361.744 396.265C369.128 395.049 369.129 395.049 359.509 385.119C350.796 376.263 348.9 375.386 341.827 377.479C330.567 380.676 330.34 381.355 338.404 391.852C343.609 398.585 346.806 400.792 349.918 399.491C352.323 398.359 357.642 397.058 361.744 396.265ZM387.15 373.604C393.997 367.21 405.71 358.92 413.122 355.157C425.401 348.848 426.278 347.858 423.28 342.992C421.525 340.134 417.196 337.815 413.462 337.928C403.956 337.928 382.398 348.848 369.242 360.249C357.868 370.067 357.868 370.067 365.167 377.593C369.128 381.808 372.892 385.232 373.542 385.232C374.221 385.232 380.417 379.913 387.15 373.604ZM650.521 379.686C655.812 376.942 655.698 376.603 648.399 368.851C640.336 360.476 618.89 348.31 611.817 348.31C604.093 348.31 609.187 355.723 626.417 369.077C646.08 384.439 643.646 383.336 650.521 379.686ZM581.205 359.373C590.4 356.827 597.784 353.827 597.671 352.837C597.557 351.847 597.474 349.187 597.474 347.094C597.474 339.03 571.585 329.072 546.83 327.855C523.857 326.639 523.858 326.639 523.858 334.815C523.858 342.115 525.611 343.783 542.983 353.176C553.479 358.806 562.645 363.56 563.324 363.673C564.088 363.899 572.039 361.891 581.205 359.373ZM498.875 349.98C507.617 346.33 514.578 342.115 514.464 340.559C514.238 339.144 513.898 335.607 513.813 332.721C513.474 328.845 510.164 326.978 498.536 324.658C481.759 321.122 469.48 322.451 445.715 330.288C424.383 337.248 426.392 341.775 454.684 351.507C477.544 359.373 476.779 359.373 498.875 350.065V349.98ZM838.607 390.296C837.73 386.646 839.709 382.006 844.915 376.15C854.958 364.776 854.62 363.334 842.369 365.427C834.193 366.757 831.872 366.219 830.542 362.569C829.552 360.023 829.665 357.138 830.769 356.147C834.616 352.611 876.404 340.021 879.827 341.237C881.694 342.001 884.807 349.188 886.674 357.251C889.984 370.859 889.87 372.387 885.23 377.593C881.156 382.006 878.073 382.799 868.992 381.809C859.061 380.677 857.051 381.469 851.421 388.089C843.896 397.058 840.587 397.595 838.607 390.296ZM876.291 362.796C876.291 358.043 874.847 356.26 871.084 356.26C865.115 356.26 862.032 360.25 864.125 365.54C866.672 372.387 876.291 370.181 876.291 362.796ZM105.56 381.355C75.3726 370.746 76.0516 371.51 82.1343 355.723C84.8787 348.311 88.7552 341.237 90.6225 340.021C97.6106 335.607 107.993 337.814 113.51 344.774C118.377 350.97 119.933 351.395 131.08 349.754C141.802 348.198 143.132 348.424 141.689 352.3C140.699 354.705 140.048 357.703 140.048 358.92C140.048 360.136 134.616 362.004 128.109 362.994C112.633 365.314 111.077 368.54 122.903 373.519C129.75 376.377 132.07 378.697 130.967 381.582C130.203 383.789 129.438 386.109 129.438 386.646C129.438 388.881 122.677 387.325 105.56 381.355ZM105.786 357.251C105.786 351.847 104.683 350.743 99.9299 351.507C92.2911 352.498 90.0846 363.22 97.0444 364.776C103.891 366.332 105.786 364.663 105.786 357.251ZM122.903 328.308C111.304 321.999 100.807 316.595 99.5906 316.142C98.2609 315.605 100.92 307.967 105.447 299.026C111.304 287.426 114.727 283.21 117.612 284.314C122.564 286.209 122.564 288.841 117.499 298.573C115.293 302.873 114.189 307.627 115.066 308.956C118.15 313.936 123.582 311.502 126.892 303.665C130.429 295.036 132.636 294.047 136.823 299.026C138.719 301.346 138.492 304.316 135.946 308.956C131.08 317.699 131.193 318.802 137.389 322.112C142.029 324.545 143.132 323.668 146.895 314.275C150.856 304.316 156.288 300.78 159.485 305.985C161.041 308.418 148.988 336.937 145.791 338.691C144.801 339.257 134.503 334.617 122.903 328.308ZM818.151 330.175C801.374 313.285 816.396 285.304 842.482 285.304C862.031 285.191 873.972 313.596 859.826 326.526C844.576 340.36 829.666 341.69 818.151 330.175ZM848.225 319.255C859.259 310.513 856.062 298.347 842.708 298.347C828.873 298.347 818.49 309.862 823.696 319.453C827.345 326.413 839.256 326.328 848.225 319.255ZM143.896 282.333C133.852 275.147 125.11 267.848 124.799 265.981C124.346 264.086 127.657 257.691 131.957 251.608C142.029 237.802 154.505 236.133 163.474 247.506C169.981 255.796 170.094 257.013 164.69 268.414C160.475 277.241 160.475 277.581 167.123 282.786C174.394 288.417 174.083 295.914 166.671 295.49C164.238 295.377 154.081 289.406 143.896 282.333ZM154.393 264.198C157.618 254.155 146.895 249.288 139.935 257.691C137.162 261.114 137.389 262.444 141.576 265.528C148.536 270.734 152.525 270.394 154.393 264.198ZM158.381 196.014C158.381 187.612 162.569 183.199 166.671 187.301C170.207 190.837 166.558 203.767 162.031 203.767C159.711 203.767 158.381 200.881 158.381 196.014ZM259.384 163.649C244.701 141.1 243.257 136.658 249.227 134.338C251.773 133.348 253.98 132.923 254.319 133.348C254.631 133.8 259.836 141.411 265.919 150.493C272.002 159.547 277.406 166.959 278.057 166.959C278.736 166.959 283.036 164.639 287.563 161.753C296.532 156.462 300.407 156.773 300.407 163.196C300.407 166.732 278.396 182.746 273.643 182.746C272.54 182.746 266.146 174.145 259.384 163.649ZM672.391 168.713C662.885 159.207 661.441 153.576 665.883 141.977C672.843 123.53 694.486 116.344 708.858 127.717C721.787 137.789 715.055 146.73 701.899 136.997C695.165 132.018 693.948 131.905 687.413 135.555C673.38 143.42 673.154 161.102 687.186 164.412C695.589 166.279 695.815 175.786 687.413 177.002C683.452 177.568 678.587 174.909 672.391 168.713ZM309.121 158.556C307.678 156.66 301.511 145.74 295.315 134.338C286.459 117.985 284.819 113.119 287.563 111.365C294.325 107.149 296.418 109.158 308.244 131.367C319.08 151.709 319.731 154.03 315.855 157.792C312.545 161.103 311.215 161.328 309.121 158.442V158.556ZM631.055 149.163C622.765 145.626 615.919 141.524 615.919 140.194C615.919 134.253 635.47 93.3427 638.356 93.3427C642.883 93.3427 668.514 104.179 668.401 106.159C668.287 113.119 663.648 114.562 653.944 110.601C645.965 107.15 643.448 107.064 641.778 109.696C638.468 114.901 639.005 115.665 648.737 120.305C659.121 125.284 659.461 134.677 649.078 131.367C630.829 125.624 624.634 134.564 642.119 141.637C653.152 146.051 654.934 148.71 649.388 153.124C647.068 155.02 641.551 153.803 631.055 149.163ZM335.546 143.306C327.681 140.194 319.193 128.481 317.298 118.324C314.44 102.849 326.379 88.2789 341.94 88.1658C353.54 88.0526 352.55 96.0022 340.61 99.0861C331.444 101.406 327.907 108.281 330.793 117.674C335.093 131.82 346.693 136.884 355.86 128.595C360.952 123.955 366.158 125.511 366.158 131.594C366.158 135.894 351.135 145.966 345.052 145.74C342.93 145.627 338.63 144.523 335.546 143.306ZM375.324 105.848C377.305 76.5377 377.758 75.4339 386.811 74.3306C392.017 73.6798 395.327 77.2162 407.04 95.8889C423.053 121.295 422.968 121.098 416.772 123.418C413.773 124.634 410.576 123.304 407.605 119.541C400.844 111.251 388.141 114.449 385.821 125.058C384.604 130.49 382.511 132.811 378.748 132.811C373.655 132.811 373.542 131.707 375.324 105.848ZM396.204 104.065C396.996 102.849 395.327 98.9729 392.441 95.5496C387.377 89.3819 387.377 89.382 387.264 97.8696C387.15 106.159 392.554 109.922 396.204 104.065ZM563.975 126.84C550.82 123.643 550.594 122.625 558.883 92.2392C564.626 71.4729 567.059 67.9366 573.029 71.7844C575.575 73.3404 575.463 77.3296 572.492 89.4669C566.636 114.024 567.059 116.457 577.781 118.438C584.43 119.767 586.949 121.522 586.949 125.171C586.949 130.801 581.997 131.141 563.975 126.84ZM522.074 119.767C514.577 118.89 507.844 117.561 506.939 116.769C506.175 115.892 507.053 103.528 508.835 89.1561L512.031 63.0701L525.188 63.8342C543.408 65.0507 547.962 66.7201 546.944 71.7844C546.18 75.236 543.633 75.9999 535.343 75.434C526.516 74.7833 524.311 75.5476 523.207 79.7631C522.076 83.9503 523.632 85.1662 532.261 86.4959C540.211 87.8256 542.418 89.2692 541.767 92.6926C540.975 96.2291 538.569 97.106 531.043 96.4553C523.631 95.8894 521.197 96.7666 521.197 99.7656V105.848C521.084 106.838 525.527 108.366 531.043 109.045C538.654 110.035 540.974 111.591 540.974 115.439C540.974 121.522 539.446 121.861 522.074 119.767ZM450.241 89.3823C450.241 61.741 450.241 61.7404 460.851 61.7404C474.119 61.7404 488.379 67.597 492.142 74.4437C497.772 85.1663 495.565 100.982 487.276 109.272C480.656 115.892 477.657 116.995 464.953 116.995H450.241V89.3823ZM477.656 102.312C483.965 96.0026 482.975 81.2908 476.015 76.3397C465.293 68.9272 463.398 70.9076 463.398 89.3823C463.398 104.518 463.963 106.498 468.49 106.498C471.263 106.498 475.336 104.632 477.656 102.312ZM786.889 275.373C781.032 269.63 776.279 263.095 776.279 261.001C776.279 257.012 812.182 230.05 817.614 230.05C823.018 230.05 834.193 249.062 834.193 258.229C834.193 270.847 822.677 282.56 808.531 284.427C798.148 285.87 796.734 285.191 786.889 275.373ZM816.737 266.631C824.234 260.775 825.225 256.248 820.924 248.185C818.265 243.205 817.727 243.432 806.212 251.608C791.755 261.991 790.763 263.434 794.837 268.3C799.364 273.704 808.645 273.054 816.737 266.631ZM183.363 246.092C179.034 243.432 170.774 236.246 165.002 230.389C155.298 220.232 154.958 219.214 159.032 215.14C163.135 210.924 164.351 211.603 177.846 224.306C193.407 239.018 192.869 238.679 198.952 236.359C206.902 233.275 203.479 223.204 189.984 210.614C175.725 197.345 174.848 195.477 180.478 190.837C186.023 186.169 216.182 215.592 216.182 225.636C216.182 235.793 212.193 242.441 203.139 247.081C193.407 252.146 192.869 252.061 183.363 246.092ZM763.886 248.072C761.792 245.978 761.68 243.432 763.774 238.906C767.876 230.163 759.925 221.336 749.966 223.429C745.326 224.533 741.791 223.656 739.585 220.883C735.284 215.79 733.501 217.007 762.897 203.851C787.313 193.044 787.765 192.931 792.744 197.91C797.611 202.862 797.498 203.314 784.993 226.966C772.516 250.844 769.544 253.702 763.886 248.072ZM778.486 215.593C781.909 208.067 781.568 207.954 772.515 212.056C767.309 214.376 766.432 215.904 768.752 218.676C772.968 223.656 775.063 222.977 778.486 215.593ZM214.088 194.148C197.396 174.032 197.396 174.031 204.921 167.835C219.831 155.246 226.339 152.926 233.525 157.679C237.062 159.886 239.947 164.073 239.947 166.959C239.947 170.269 241.701 172.136 244.7 172.136C251.207 172.136 258.281 180.312 258.281 187.951C258.281 194.034 239.268 214.263 233.525 214.263C231.997 214.263 223.255 205.182 214.088 194.148ZM245.125 188.828C245.125 183.311 237.401 181.416 232.874 185.971C229.677 189.168 229.451 191.148 231.997 195.788C234.854 201.333 235.307 201.333 240.06 197.005C242.918 194.458 245.125 190.837 245.125 188.828ZM228.46 175.899C229.337 173.692 228.772 170.495 227.131 168.826C223.368 165.176 214.626 172.702 217.398 177.228C220.058 181.416 226.678 180.652 228.46 175.899ZM716.582 201.221C700.795 191.601 702.125 179.209 721.562 156.123C730.078 146.051 733.162 143.957 735.934 146.164C741.253 150.606 740.461 153.124 728.861 167.722C717.261 182.208 716.046 191.374 725.439 192.704C729.626 193.355 733.954 189.706 742.47 178.898C754.07 164.073 759.473 161.103 762.246 168.289C764.226 173.353 743.233 200.881 734.831 203.965C726.541 207.19 726.314 207.077 716.582 201.221Z" fill="#22924A"/>
</svg>
