<svg width="961" height="583" viewBox="0 0 961 583" fill="none" xmlns="http://www.w3.org/2000/svg">
<path fill-rule="evenodd" clip-rule="evenodd" d="M419.339 581.656C415.923 581.359 403.169 580.189 390.971 579.112C176.088 560.249 28.2839 465.024 2.68141 328.898C-1.31028 307.937 -0.939065 302.497 4.42651 300.047C8.77095 298.079 9.86621 296.055 7.76825 293.883C7.09988 293.289 5.15072 294.532 3.40551 296.705C0.137899 300.548 0.1376 300.399 0.0819017 284.377C-0.0666264 255.507 8.12117 223.889 23.7166 192.921C28.7851 182.765 34.2991 174.206 36.4156 173.204C38.4393 172.257 39.739 170.437 39.312 169.212C37.4183 163.475 71.8767 125.47 97.3307 105.159C163.834 52.0788 258.187 17.9915 374.15 5.16242C414.03 0.725144 479.159 -1.22431 520.134 0.799386C540.093 1.74625 557.99 2.61892 559.958 2.69318C587.362 3.91854 634.074 10.8067 672.654 19.4399C719.515 29.8183 757.501 43.0927 796.601 62.7356C824.951 76.9572 837 84.8663 835.682 88.2639C835.107 89.712 835.478 90.956 836.481 90.956C837.502 90.956 838.597 90.0834 838.95 88.988C840.249 85.0148 878.551 116.113 896.69 135.923C903.355 143.164 904.005 144.612 901.981 147.23C899.865 149.922 899.939 149.996 902.557 147.954C905.026 146.004 906.326 146.728 911.988 153.245C920.826 163.475 938.018 192.772 944.832 209.166C953.762 230.628 958.979 253.836 960.148 277.767C961.151 299.174 961.151 299.174 955.136 298.45C950.568 297.856 949.77 298.153 951.794 299.601C953.242 300.622 956.008 301.42 957.828 301.495C960.872 301.495 961.077 302.497 959.926 313.451C956.287 348.987 944.182 382.795 924.242 412.891C914.81 427.168 901.034 443.562 897.191 444.936C895.594 445.586 894.295 446.755 894.295 447.628C894.22 451.749 891.25 453.495 885.884 452.548C881.67 451.824 880.871 452.047 882.765 453.346C884.139 454.367 885.94 454.813 886.739 454.293C887.463 453.866 888.131 454.145 888.131 455.092C888.131 455.964 882.821 461.404 876.379 467.141C829.017 509.193 767.879 539.437 690.941 558.801C651.544 568.734 644.007 569.904 644.007 565.764C644.007 564.093 643.357 563.369 642.633 564.093C641.909 564.817 641.333 566.265 641.333 567.36C641.333 569.904 630.082 572.299 628.782 570.108C628.207 569.18 626.016 569.533 623.77 571.055C619.425 573.896 588.754 578.166 552.049 580.988C530.736 582.584 434.861 583.104 419.265 581.656H419.339ZM617.754 555.831C616.529 554.605 615.656 554.457 615.656 555.608C615.656 557.929 617.754 560.027 618.924 558.876C619.499 558.374 618.924 556.982 617.754 555.831ZM813.068 503.326C811.323 500.485 806.756 500.931 806.756 503.902C806.756 506.872 810.525 508.617 812.697 506.649C813.57 505.869 813.718 504.328 812.994 503.326H813.068ZM116.045 477.352C115.451 475.83 115.024 474.233 115.024 473.806C115.024 473.435 113.279 473.082 111.181 473.082C107.486 473.082 107.486 473.156 110.605 476.628C114.374 480.843 117.568 481.269 116.045 477.352ZM851.853 474.827C852.447 473.88 852.15 473.082 851.203 473.082C850.201 473.082 848.882 473.88 848.307 474.827C847.731 475.83 848.01 476.628 848.957 476.628C849.978 476.628 851.278 475.83 851.853 474.827ZM53.088 165.369C53.088 162.101 50.9156 158.184 49.5418 159.056C47.7223 160.207 49.3934 167.04 51.4914 167.04C52.364 167.04 53.088 166.297 53.088 165.369ZM373.277 18.8643C373.277 18.1402 372.479 16.3208 371.532 14.8726C370.158 12.7004 369.805 12.9974 369.805 16.1908C369.805 18.363 370.53 20.1637 371.532 20.1637C372.479 20.1637 373.277 19.5883 373.277 18.8643ZM527.245 14.8726C527.245 13.8701 526.447 13.0717 525.426 13.0717C524.498 13.0717 523.699 13.8701 523.699 14.8726C523.699 15.8195 524.498 16.6177 525.426 16.6177C526.447 16.6177 527.245 15.8195 527.245 14.8726ZM516.588 6.03522C516.588 5.01409 515.344 4.21565 513.822 4.21565C512.3 4.21565 511.575 5.01409 512.169 6.03522C512.819 6.96353 514.045 7.76167 514.917 7.76167C515.864 7.76167 516.588 6.96353 516.588 6.03522ZM398.007 572.652C398.007 570.851 397.432 570.256 396.708 571.278C395.983 572.299 394.665 573.673 393.811 574.397C392.864 575.121 393.514 575.696 395.111 575.696C396.782 575.696 398.082 574.323 398.007 572.652ZM323.019 558.95C322.444 556.406 321.144 554.809 320.271 555.385C319.25 555.979 319.399 558.152 320.55 560.769C323.019 566.209 324.542 565.039 323.019 558.95ZM403.373 562.292C403.373 559.822 405.118 559.6 415.348 560.472C476.913 565.763 559.587 562.347 624.141 551.913C637.044 549.815 647.924 548.423 648.369 548.868C648.796 549.295 647.571 550.892 645.603 552.489C641.333 555.979 642.633 561.568 647.701 561.568C649.521 561.568 650.895 560.974 650.746 560.25C650.616 559.525 651.415 556.703 652.566 553.937C653.661 551.189 654.589 548.219 654.589 547.272C654.589 546.399 655.833 545.601 657.43 545.601C662.87 545.601 704.197 534.944 721.687 528.928C739.529 522.894 739.529 522.894 740.531 527.61C742.351 535.965 742.778 536.095 742.926 528.557C743.001 521.595 743.446 521.019 749.684 518.996C760.768 515.431 798.847 496.865 815.241 487.006C832.86 476.424 839.321 471.912 852.299 461.107C862.306 452.771 866.799 452.344 872.387 459.38C875.135 462.852 875.209 462.703 874.856 456.113C874.336 447.331 874.485 447.479 871.292 450.172C869.769 451.397 868.098 451.898 867.449 451.248C866 449.8 884.789 430.584 886.664 431.735C887.463 432.181 888.131 431.308 888.131 429.637C888.131 428.041 891.176 423.046 894.945 418.461C912.638 397.221 928.735 364.155 936.273 333.688C941.063 314.175 941.508 274.221 937.22 253.687C914.012 143.684 800.221 60.7864 633.35 32.4361C620.224 30.171 609.047 27.9245 608.62 27.3489C608.119 26.8477 603.755 26.3277 598.835 26.2534C593.971 26.1235 574.106 24.7312 554.667 23.1531C411.505 11.2523 268.992 33.0116 172.467 81.4503C94.2859 120.755 43.378 177.771 25.3133 246.075C18.7038 271.251 18.6481 312.077 25.239 337.03C56.5042 455.463 182.029 534.647 374.15 557.056C386.849 558.578 397.784 559.748 398.527 559.748C399.251 559.748 399.827 560.973 399.827 562.422C399.827 563.888 400.625 565.114 401.572 565.114C402.574 565.114 403.373 563.814 403.373 562.292ZM455.599 556.852C338.967 552.86 244.615 531.973 171.669 494.043C94.4344 453.866 49.3934 403.088 30.6789 335.137C28.1353 325.928 27.4855 317.09 27.5598 290.893C27.7083 260.445 27.9866 257.029 32.4982 242.232C62.8722 141.864 162.962 70.6448 315.76 40.772C397.358 24.731 512.522 21.4821 597.09 32.7888C721.39 49.4054 814.071 88.7838 874.281 150.497C898.862 175.728 920.473 213.158 928.883 244.85C934.323 265.737 935.623 303.444 931.557 325.055C913.511 421.728 824.747 496.865 686.077 533.05C674.752 536.039 661.199 539.214 656.056 540.161C650.82 541.034 637.49 543.428 626.313 545.378C594.992 550.966 561.982 554.308 518.407 556.183C496.5 557.204 476.56 557.854 474.165 557.65C471.696 557.427 463.359 557.056 455.599 556.852ZM577.652 546.251C592.226 544.524 608.768 543.132 614.357 543.28C619.926 543.354 624.141 542.927 623.696 542.203C623.269 541.461 633.777 538.713 647.126 536.095C817.116 502.528 921.995 414.692 928.159 300.622C933.822 196.114 853.32 108.148 710.287 62.6058C671.429 50.2594 638.567 43.8171 573.233 35.7594C547.482 32.566 417.149 32.6403 388.371 35.8336C250.5 51.0578 153.604 89.7863 91.594 154.489C51.1387 196.541 31.8483 240.932 31.8483 291.989C31.8483 344.642 52.2156 389.683 95.2887 432.385C160.864 497.366 263.125 535.891 402.5 548.219C442.399 551.765 541.467 550.688 577.652 546.251ZM399.827 507.243C369.137 504.848 317.152 495.417 284.439 486.282C178.557 456.614 104.367 399.041 82.8306 329.771C79.2659 318.316 78.7647 312.95 78.839 289.965C78.9132 266.089 79.4144 262.042 83.6289 249.269C104.646 186.181 169.348 133.751 262.531 104.231C293.147 94.5021 327.363 86.7415 329.628 88.988C332.525 91.9771 329.257 94.001 319.826 95.0964C292.775 98.2712 226.197 121.052 196.622 137.223C148.74 163.475 112.407 198.583 95.2887 235.121C74.5505 279.513 80.2873 330.644 110.958 373.587C156.946 438.048 261.454 486.784 381.261 499.631C408.887 502.602 412.229 503.252 412.229 505.999C412.229 507.392 411.207 508.32 409.982 508.19C408.812 508.042 404.245 507.596 399.827 507.243ZM546.981 506.594C547.556 504.997 557.34 503.029 578.673 500.356C741.2 479.543 848.455 414.915 873.482 322.734C875.58 314.825 876.601 304.744 876.601 290.893C876.601 258.997 867.671 233.822 846.209 205.026C809.077 155.287 735.036 114.516 650.171 97.1942C642.41 95.5975 634.222 93.9268 632.05 93.4998C628.281 92.7014 626.239 87.3913 629.729 87.3913C630.602 87.3913 641.835 89.7865 654.664 92.7014C773.17 119.381 853.895 177.845 877.901 254.281C883.694 272.922 883.619 309.107 877.753 328.026C849.904 416.938 747.141 481.567 599.04 503.177C563.505 508.32 546.034 509.49 546.981 506.594ZM722.69 506.445C715.449 502.379 711.234 497.162 711.234 492.224C711.234 489.476 712.032 487.229 712.979 487.229C713.926 487.229 714.724 489.476 714.799 492.075C714.799 495.714 716.395 498.109 720.963 501.228C728.649 506.445 730.023 510.437 722.69 506.445ZM511.297 113.941V44.9682H528.192C553.275 44.9682 560.831 50.1295 560.831 67.2474C560.831 74.8594 559.958 77.31 555.892 81.7473C550.824 87.1128 541.021 90.8818 532.109 90.956C527.245 90.956 527.245 91.1046 527.245 102.411C527.245 113.941 527.245 113.941 519.262 113.941H511.297ZM538.626 76.8088C544.734 74.4881 547.408 68.3984 545.087 62.1602C543.416 57.89 542.339 57.2958 535.228 57.2958C527.245 57.2958 527.245 57.296 527.245 67.9714C527.245 79.5752 528.619 80.652 538.626 76.8088ZM582.071 113.941V57.2958H573.233C564.377 57.2958 564.377 57.2958 564.377 51.1318C564.377 44.9679 564.377 44.9682 590.054 44.9682C615.656 44.9682 615.656 44.9679 615.656 51.1318C615.656 57.2958 615.656 57.2958 606.8 57.2958H597.963V113.941H582.071ZM203.138 107.35C202.711 103.934 200.744 101.613 195.954 99.0693C192.259 97.1942 189.288 94.9477 189.288 94.1494C189.288 91.9029 191.386 92.4784 198.998 96.7486C204.661 99.9419 206.183 101.91 206.685 106.477C207.353 113.365 203.937 114.238 203.138 107.35ZM746.565 109.021C746.565 108.278 748.162 106.329 750.037 104.732C752.933 102.263 753.23 100.815 751.782 95.876C749.684 88.561 749.684 85.6646 751.782 85.6646C752.655 85.6646 754.177 89.4336 755.18 94.0009C756.777 101.539 756.572 102.838 753.23 106.403C749.462 110.469 746.565 111.546 746.565 109.021ZM214.092 103.432C214.092 99.2179 212.719 97.4729 207.056 94.2981C203.213 92.1073 200.465 89.6566 201.04 88.8582C201.542 87.9856 205.311 89.1365 209.377 91.3087C215.689 94.8734 216.766 96.3218 217.286 102.059C217.564 105.828 216.989 108.65 215.968 108.65C214.891 108.65 214.092 106.254 214.092 103.432ZM735.964 103.934C735.964 103.358 737.357 101.836 738.935 100.666C741.553 98.7168 741.701 97.3427 740.03 89.7863C738.935 85.0705 738.359 80.8747 738.804 80.4291C742.499 76.7344 746.695 98.0669 743.075 102.411C740.903 105.103 735.964 106.106 735.964 103.934ZM224.675 98.9951C224.675 95.022 221.203 91.2345 212.997 86.3888C211.27 85.2934 210.602 83.9939 211.623 83.4184C213.87 81.9517 227.943 91.0304 229.168 94.6508C230.264 98.0669 228.518 103.358 226.272 103.358C225.399 103.358 224.675 101.39 224.675 98.9951ZM725.381 100.387C725.381 99.7377 726.681 97.6955 728.278 95.9503C730.821 93.1282 730.97 91.7544 729.076 85.442C727.851 81.4503 727.331 77.7555 727.925 77.18C729.522 75.6575 730.32 77.1802 732.715 86.0176C734.664 93.4997 734.59 94.6507 731.62 97.9183C728.426 101.464 725.381 102.708 725.381 100.387ZM236.279 95.5975C237.3 91.4573 234.905 88.561 225.325 82.7498C223.524 81.673 222.577 80.1506 223.301 79.4265C224.972 77.6813 236.65 85.1449 238.971 89.4336C240.92 93.1283 239.621 99.7934 236.929 99.7934C236 99.7934 235.703 97.9183 236.279 95.5975ZM714.799 96.6743C714.799 95.9503 715.95 93.9265 717.324 92.1071C719.44 89.3593 719.441 87.8369 717.25 81.7473C714.279 73.3368 714.279 73.2626 716.247 73.2626C717.119 73.2626 719.217 76.883 720.888 81.2274C723.71 88.7095 723.71 89.5821 721.111 93.6295C718.345 97.7697 714.724 99.5892 714.799 96.6743ZM264.128 87.3913C265 84.068 264.35 82.2487 261.38 79.9279C257.388 76.8831 257.388 76.8831 262.104 76.8088C265.65 76.8088 267.247 75.5833 268.565 71.9444C270.217 67.0244 270.217 67.0244 272.185 71.9444C273.633 75.5833 275.304 76.8088 278.999 76.8088C283.863 76.8088 283.863 76.8087 280.02 79.5007C276.827 81.7472 276.381 82.9726 277.774 86.593C279.574 91.383 277.625 92.4043 274.283 88.3384C272.408 86.0919 271.536 86.1659 267.544 88.7837C263.051 91.7543 262.977 91.7543 264.128 87.3913ZM681.287 87.1129C683.107 83.771 682.81 82.7499 679.394 80.0022C675.421 76.8088 675.42 76.8088 680.118 76.8088C683.534 76.8088 685.279 75.5091 686.727 71.9444C688.676 67.0244 688.676 67.0245 689.846 71.4432C690.644 74.5623 692.594 76.159 696.233 76.8831C701.45 77.83 701.45 77.8299 697.458 80.0022C694.413 81.7474 693.763 83.2697 694.562 86.593C695.787 91.4573 693.318 92.3298 689.92 88.2639C687.952 85.8132 687.377 85.8132 684.703 88.2639C680.489 92.107 678.892 91.5316 681.287 87.0386V87.1129ZM304.676 76.3074C305.4 72.3157 304.75 70.8678 301.055 68.9741C296.544 66.579 296.544 66.5789 302.207 65.3535C306.774 64.3324 307.869 63.2557 307.943 59.4125C307.943 54.6968 307.944 54.6966 310.617 59.5423C312.864 63.6825 314.033 64.258 318.081 63.2554C322.871 62.0858 322.87 62.086 319.473 65.9292C316.707 69.0483 316.503 70.4962 318.081 74.0609C319.974 78.2568 319.9 78.3313 315.76 76.4561C312.14 74.7852 310.691 75.0635 307.572 77.8298C303.803 81.2274 303.803 81.2274 304.676 76.3074ZM650.616 77.31C648.221 74.9335 646.847 74.785 643.208 76.3817C639.012 78.3311 638.864 78.2568 640.813 74.0609C642.41 70.4962 642.206 69.0483 639.365 65.9292C636.023 62.086 636.023 62.086 640.888 63.33C645.102 64.3325 646.105 63.7568 647.924 59.5423C649.948 54.6966 649.948 54.6968 650.616 59.4125C651.117 63.1072 652.565 64.4066 656.854 65.3535C662.35 66.5789 662.35 66.579 657.578 69.1225C653.735 71.0905 653.011 72.4645 653.865 75.9363C655.184 81.0977 654.589 81.3017 650.616 77.31ZM192.481 112.641C192.11 109.021 190.309 106.979 185.297 104.658C181.676 102.913 178.705 100.74 178.705 99.7934C178.705 97.3427 179.634 97.5471 187.543 101.539C194.951 105.308 198.998 110.822 197.476 114.962C195.879 119.084 193.131 117.784 192.481 112.641ZM409.11 112.066C384.881 99.7936 386.626 55.9964 411.709 45.5623C422.589 40.9765 437.683 43.4456 443.698 50.7049C445.369 52.6543 444.942 54.0468 441.823 56.9431C438.11 60.4149 437.237 60.5635 430.943 58.3913C422.384 55.4207 418.615 56.3676 413.101 62.9586C409.388 67.3773 408.664 70.0692 408.664 79.6307C408.664 96.7486 415.998 105.103 428.548 102.337C433.19 101.316 433.617 100.592 433.115 94.725C432.596 88.8581 432.02 88.1898 426.729 87.6885C421.289 87.1872 420.936 86.7416 421.437 81.5246C421.939 75.8619 421.939 75.8619 433.914 75.3607L445.796 74.8592V91.6801C445.796 107.925 445.666 108.65 441.155 111.62C433.84 116.41 418.096 116.633 409.11 112.066ZM758.373 114.442C757.872 113.514 758.967 111.471 760.843 109.801C764.333 106.904 764.333 104.955 761.288 93.8524C760.694 91.606 761.214 90.8075 762.736 91.3087C764.036 91.7543 765.707 95.5975 766.431 99.8676C767.656 106.756 767.303 108.222 763.609 111.917C761.288 114.164 758.967 115.315 758.448 114.442H758.373ZM343.256 113.941V44.9682H364.44C385.679 44.9682 385.679 44.9679 385.679 51.1318C385.679 57.2958 385.68 57.2958 371.532 57.2958C357.404 57.2958 357.403 57.296 357.403 64.4067C357.403 71.4433 357.403 71.4432 368.859 71.4432C380.388 71.4432 380.388 71.4432 380.388 78.554C380.388 85.6647 380.388 85.6646 368.859 85.6646C357.403 85.6646 357.403 85.6647 357.403 93.5553C357.403 101.539 357.404 101.539 371.532 101.539C385.68 101.539 385.679 101.539 385.679 107.777C385.679 113.941 385.679 113.941 364.44 113.941H343.256ZM468.873 100.74C468.873 88.4869 468.15 86.2403 459.071 66.9502C453.78 55.6435 449.361 46.0634 449.361 45.6178C449.361 45.265 452.907 44.9682 457.27 44.9682C466.256 44.9682 466.757 45.5621 473.218 63.9796L477.284 75.4349L483.002 60.2109C488.739 44.9682 488.739 44.9682 496.5 44.9682C500.696 44.9682 504.186 45.4137 504.186 45.9892C504.186 46.4905 499.842 56.2192 494.458 67.4516C485.398 86.5375 484.748 88.8581 484.748 100.963C484.748 113.941 484.748 113.941 476.764 113.941C468.874 113.941 468.873 113.941 468.873 100.74ZM163.908 133.955C163.259 133.305 162.739 131.356 162.739 129.536C162.739 127.29 160.065 124.969 154.328 122.426C148.536 119.826 146.939 118.434 149.111 117.933C154.403 116.707 165.134 123.15 166.508 128.515C167.752 133.231 166.229 136.276 163.908 133.955ZM789.063 129.833C789.063 128.812 790.214 127.513 791.736 126.993C793.63 126.195 794.354 123.224 794.354 116.039C794.354 104.732 796.953 105.456 798.42 117.208C799.144 123.224 798.698 125.544 795.951 128.237C792.256 131.931 789.063 132.655 789.063 129.833ZM173.043 124.096C172.616 120.68 166.656 116.336 158.32 113.291C157.373 112.92 157.169 112.066 157.819 111.342C159.341 109.671 173.693 115.185 175.586 118.081C177.387 121.052 177.183 128.088 175.289 128.088C174.343 128.088 173.414 126.269 173.043 124.096ZM293.648 126.343C293.648 125.192 356.809 124.523 479.456 124.523C602.085 124.523 665.19 125.192 665.19 126.343C665.19 127.513 602.085 128.088 479.456 128.088C356.809 128.088 293.648 127.513 293.648 126.343ZM778.462 124.672C778.462 123.725 779.78 122.203 781.451 121.274C783.697 120.03 784.273 117.505 783.976 110.599C783.475 99.2179 786.519 98.7168 787.819 109.949C788.617 116.837 788.116 119.084 785.071 122.351C781.154 126.566 778.462 127.513 778.462 124.672ZM183.997 119.158C183.997 116.986 181.899 114.386 178.557 112.567C175.586 110.896 171.817 108.575 170.147 107.35C164.335 103.135 174.194 104.806 180.655 109.151C186.466 113.068 190.235 122.797 185.872 122.797C184.87 122.797 183.997 121.126 183.997 119.158ZM767.805 119.158C767.805 118.155 768.974 116.911 770.348 116.41C774.043 114.962 774.693 111.917 773.17 103.637C772.168 98.1967 772.446 96.2474 774.043 96.2474C775.268 96.2474 776.586 99.6636 777.162 104.658C777.96 111.546 777.459 113.718 774.414 117.06C770.497 121.274 767.805 122.147 767.805 119.158ZM353.04 151.871C347.823 146.58 351.313 135.199 358.276 135.199C362.045 135.199 366.241 140.342 366.241 144.909C366.241 149.476 362.045 154.638 358.276 154.638C356.958 154.638 354.563 153.394 353.04 151.871ZM360.596 143.758C360.299 141.511 359.204 139.766 358.276 139.915C356.011 140.416 355.008 145.206 356.382 148.826C357.979 153.041 361.395 148.975 360.596 143.758ZM374.001 152.168C372.405 147.954 374.076 136.35 376.396 135.626C377.993 135.05 378.569 137.65 378.569 144.761C378.569 153.969 376.174 157.886 374.001 152.168ZM382.133 144.909C382.133 134.178 384.157 132.581 388.223 140.045C390.822 144.909 390.822 144.909 390.897 140.045C390.971 137.371 391.769 135.199 392.79 135.199C393.737 135.199 394.535 139.543 394.535 144.909C394.535 155.789 393.217 156.884 388.798 149.773C385.754 144.909 385.754 144.909 385.754 149.773C385.679 152.447 384.881 154.638 383.934 154.638C382.932 154.638 382.133 150.275 382.133 144.909ZM401.628 146.803C401.628 140.639 400.904 138.671 398.88 138.671C397.357 138.671 396.559 137.872 397.209 136.925C397.784 135.997 400.978 135.199 404.394 135.199C407.736 135.199 410.484 135.997 410.484 136.925C410.484 137.872 409.685 138.671 408.813 138.671C407.866 138.671 406.863 142.013 406.566 146.079C405.768 156.661 401.628 157.237 401.628 146.803ZM412.229 144.909C412.229 135.273 412.303 135.199 417.52 135.199C423.758 135.199 424.557 137.724 418.82 139.618C414.902 140.917 414.902 140.917 418.82 141.716C423.313 142.588 424.334 145.782 420.194 145.782C418.746 145.782 417.52 146.933 417.52 148.474C417.52 149.922 419.117 151.073 421.066 151.073C423.034 151.073 424.631 151.871 424.631 152.892C424.631 153.839 421.79 154.638 418.393 154.638C412.229 154.638 412.229 154.638 412.229 144.909ZM426.376 144.909C426.376 135.997 426.655 135.199 430.349 135.199C436.885 135.273 439.354 137.798 438.258 143.387C437.757 146.153 438.036 149.773 438.982 151.519C440.226 153.895 440.003 154.638 437.757 154.638C436.16 154.638 434.489 153.041 433.988 151.073C433.394 149.123 432.317 147.527 431.445 147.527C430.646 147.527 429.922 149.123 429.922 151.073C429.922 153.041 429.124 154.638 428.103 154.638C427.156 154.638 426.376 150.275 426.376 144.909ZM434.786 141.938C433.691 138.596 429.922 138.095 429.922 141.214C429.922 142.737 431.148 144.036 432.67 144.036C434.267 144.036 435.213 143.089 434.786 141.938ZM442.324 144.909C442.324 134.178 444.274 132.581 448.34 140.045C451.032 144.909 451.031 144.909 451.106 139.915C451.161 131.931 455.45 135.273 456.471 144.111L457.326 151.945L459.795 143.609C462.914 132.655 466.256 132.878 469.672 144.333C472.494 153.969 471.844 157.534 468.075 152.372C465.309 148.678 462.487 148.474 461.187 151.871C459.59 156.011 451.162 154.34 448.414 149.328C445.945 144.909 445.945 144.909 445.87 149.773C445.87 152.447 444.998 154.638 444.069 154.638C443.122 154.638 442.324 150.275 442.324 144.909ZM475.892 146.654C475.892 140.769 475.242 138.671 473.292 138.671C471.77 138.671 470.6 137.872 470.6 136.925C470.6 135.997 473.794 135.199 477.711 135.199C481.554 135.199 484.748 135.997 484.748 136.925C484.748 137.872 483.597 138.671 482.13 138.671C480.106 138.671 479.456 140.769 479.456 146.654C479.456 151.073 478.658 154.638 477.711 154.638C476.69 154.638 475.892 151.073 475.892 146.654ZM486.493 144.909C486.493 139.543 487.291 135.199 488.294 135.199C489.241 135.199 490.039 139.543 490.039 144.909C490.039 150.275 489.241 154.638 488.294 154.638C487.291 154.638 486.493 150.275 486.493 144.909ZM495.405 151.221C492.935 146.58 493.084 139.915 495.701 137.297C500.696 132.284 509.477 137.148 509.477 144.909C509.477 153.394 499.043 158.035 495.405 151.221ZM503.314 144.909C503.314 139.246 499.897 137 498.171 141.511C496.648 145.485 498.672 151.444 501.29 150.571C502.367 150.2 503.314 147.675 503.314 144.909ZM511.297 144.909C511.297 134.029 512.819 132.878 518.185 140.045C521.805 144.909 521.805 144.909 521.88 140.045C521.88 137.371 522.678 135.199 523.699 135.199C524.627 135.199 525.426 139.543 525.426 144.909C525.426 155.139 523.402 157.237 519.93 150.72C517.813 146.803 517.814 146.803 516.365 150.72C513.766 157.757 511.297 154.916 511.297 144.909ZM527.245 153.171C527.245 148.752 533.186 135.199 535.08 135.199C536.38 135.199 538.496 138.968 539.796 143.535L542.265 151.945L543.137 144.111C544.363 133.231 548.429 132.358 548.429 142.96C548.429 149.922 549.005 151.073 551.975 151.073C553.943 151.073 555.539 151.871 555.539 152.892C555.539 153.839 551.548 154.638 546.684 154.638C540.019 154.638 537.828 153.969 537.828 151.945C537.828 150.497 536.751 149.328 535.377 149.328C533.984 149.328 532.462 150.497 531.887 151.945C530.81 154.768 527.245 155.714 527.245 153.171ZM560.831 153.171C560.831 148.901 566.772 135.199 568.666 135.199C569.817 135.199 572.064 138.968 573.586 143.535L576.426 151.945L576.557 143.535C576.705 137.371 577.429 135.199 579.397 135.199C581.421 135.199 582.071 137.445 582.071 144.909C582.071 154.563 581.996 154.638 576.705 154.638C573.233 154.638 571.414 153.765 571.414 151.945C571.414 150.497 570.318 149.328 568.944 149.328C567.645 149.328 566.048 150.497 565.472 151.945C564.377 154.768 560.831 155.64 560.831 153.171ZM585.635 144.909C585.635 135.775 585.839 135.199 589.905 135.199C596.069 135.199 600.209 139.84 597.889 144.111C596.645 146.506 596.645 148.604 597.963 151.073C600.711 156.216 595.717 155.863 592.078 150.646C589.33 146.654 589.33 146.654 589.181 150.646C589.181 152.818 588.309 154.638 587.362 154.638C586.359 154.638 585.561 150.275 585.561 144.909H585.635ZM594.045 141.938C592.95 138.596 589.107 138.095 589.107 141.214C589.107 142.737 590.407 144.036 591.929 144.036C593.47 144.036 594.398 143.089 594.045 141.938ZM601.509 144.909C601.509 135.849 601.806 135.199 605.723 135.199C614.06 135.199 617.03 146.079 609.047 147.23C606.448 147.601 605.074 149.049 605.074 151.221C605.074 153.115 604.275 154.638 603.328 154.638C602.307 154.638 601.509 150.275 601.509 144.909ZM608.842 141.363C608.842 140.416 608.044 139.395 606.949 139.042C605.928 138.671 605.074 139.766 605.074 141.363C605.074 142.959 605.928 144.036 606.949 143.683C608.044 143.312 608.842 142.291 608.842 141.363ZM617.532 152.094C614.561 148.529 615.935 138.596 619.648 136.201C623.695 133.751 628.337 136.498 630.602 142.811C633.498 150.999 622.897 158.536 617.532 152.094ZM625.366 144.761C625.366 141.363 624.494 139.618 622.767 139.618C619.852 139.618 618.33 144.482 619.927 148.678C621.598 153.041 625.366 150.349 625.366 144.761ZM633.35 144.909C633.35 135.923 633.702 135.199 637.49 135.199C639.736 135.199 643.06 136.276 644.954 137.724C647.998 139.915 648.147 140.713 646.049 144.111C644.378 146.877 644.229 148.529 645.603 149.922C648.295 152.521 647.998 154.638 645.028 154.638C643.58 154.638 641.983 153.041 641.333 151.073C640.312 147.805 636.692 145.93 637.119 148.901C637.62 152.094 636.766 154.638 635.169 154.638C634.148 154.638 633.424 150.275 633.424 144.909H633.35ZM641.909 142.087C641.463 141.066 640.461 140.193 639.588 140.193C638.641 140.193 637.564 141.066 637.267 142.087C636.896 143.164 637.917 144.036 639.588 144.036C641.185 144.036 642.206 143.164 641.909 142.087ZM652.863 147.527C652.863 142.811 651.916 140.045 650.171 139.32C645.176 137.445 647.572 135.199 654.589 135.199C658.507 135.199 661.7 135.997 661.7 136.925C661.7 137.872 660.475 138.671 659.026 138.671C657.058 138.671 656.335 140.769 656.335 146.654C656.335 151.073 655.536 154.638 654.589 154.638C653.661 154.638 652.863 151.444 652.863 147.527ZM817.339 149.773C817.339 148.975 818.935 147.378 820.903 146.208C823.577 144.556 824.45 142.087 824.45 136.072C824.45 131.634 825.248 128.088 826.195 128.088C829.444 128.088 828.293 146.004 824.877 148.603C821.479 151.221 817.339 151.797 817.339 149.773ZM143.968 142.514C142.502 138.597 140.478 137.148 135.614 136.201C128.726 134.902 125.105 131.634 130.545 131.634C140.255 131.634 148.61 137.65 148.61 144.761C148.61 149.254 145.992 147.954 143.968 142.514ZM810.748 140.268C814.721 137.297 815.594 135.273 815.594 128.812C815.594 124.523 816.392 120.977 817.339 120.977C818.36 120.977 819.158 124.895 819.158 129.61C819.158 138.819 815.519 144.036 809.3 143.962C806.385 143.888 806.607 143.387 810.748 140.268ZM153.901 137.148C153.901 132.878 150.56 130.186 143.523 128.738C135.261 127.067 134.166 123.725 142.372 125.117C151.655 126.566 157.448 130.836 157.448 136.072C157.448 138.522 156.649 140.49 155.702 140.49C154.7 140.49 153.901 138.968 153.901 137.148ZM797.9 137C797.9 136.071 799.497 134.475 801.465 133.379C804.213 131.931 804.937 129.685 804.937 122.722C804.937 117.858 805.735 113.941 806.756 113.941C807.703 113.941 808.501 118.304 808.501 123.595C808.501 131.486 807.833 133.677 804.584 135.997C800.072 139.116 797.9 139.469 797.9 137ZM565.175 314.324C553.646 301.922 542.042 289.371 539.35 286.401C534.43 281.035 534.43 281.035 537.104 251.014C538.626 234.546 540.093 220.77 540.371 220.473C540.668 220.268 547.556 226.934 555.744 235.493C606.596 288.443 640.535 324.108 647.423 332.017C651.693 336.882 651.693 336.882 618.924 336.882H586.136L565.175 314.324ZM614.357 314.324C611.163 313.971 606.002 313.971 602.883 314.324C599.69 314.77 602.307 315.048 608.62 315.048C614.932 315.048 617.531 314.77 614.357 314.324ZM581.643 296.705C579.972 296.259 576.779 296.259 574.533 296.705C572.361 297.132 573.734 297.429 577.652 297.503C581.569 297.503 583.314 297.132 581.643 296.705ZM586.062 287.923C584.911 287.422 582.516 287.422 580.771 287.849C579.026 288.294 580.047 288.721 582.943 288.721C585.839 288.796 587.288 288.443 586.062 287.923ZM310.469 321.36C311.118 318.668 311.787 316.347 311.991 316.218C312.715 315.568 318.378 315.196 326.862 315.419C335.923 315.623 336.145 315.698 336.145 320.934C336.145 326.225 336.145 326.225 322.666 326.225C309.243 326.225 309.243 326.225 310.469 321.36ZM337.89 320.934C337.89 315.624 337.89 315.623 352.762 315.623C364.644 315.623 367.837 316.218 368.71 318.39C371.458 325.631 370.381 326.225 353.839 326.225C337.891 326.225 337.89 326.225 337.89 320.934ZM369.805 315.772C369.805 314.77 367.763 313.451 365.368 312.802C362.918 312.226 360.949 310.555 360.949 309.107C360.949 307.659 358.127 304.02 354.711 300.975C351.314 298.004 348.547 294.681 348.547 293.66C348.622 292.564 370.808 269.506 398.007 242.232L447.393 192.772L446.39 206.919C442.25 263.769 442.027 264.641 431.296 266.888C428.697 267.482 424.482 270.081 422.013 272.773C416.22 278.937 409.908 295.609 411.059 301.569C412.582 309.107 410.131 310.555 391.268 313.024C381.483 314.324 372.628 315.846 371.606 316.496C370.604 317.09 369.805 316.793 369.805 315.772ZM378.141 291.339C375.524 290.968 371.105 290.968 368.413 291.339C365.74 291.766 367.986 292.063 373.277 292.063C378.643 292.063 380.815 291.766 378.141 291.339ZM395.835 282.483C393.143 282.131 388.798 282.131 386.125 282.483C383.433 282.929 385.679 283.207 390.971 283.207C396.336 283.207 398.527 282.929 395.835 282.483ZM395.909 263.119C394.164 262.692 390.971 262.617 388.798 263.044C386.626 263.49 388 263.843 391.843 263.843C395.761 263.843 397.58 263.565 395.909 263.119ZM432.094 234.768C429.922 234.341 426.376 234.341 424.185 234.768C421.939 235.195 423.833 235.493 428.177 235.493C432.54 235.493 434.341 235.195 432.094 234.768ZM461.837 545.452C437.46 538.063 419.042 510.864 421.586 486.06C423.61 466.417 437.311 446.755 454.429 438.846C467.203 432.979 491.357 433.406 503.388 439.793C526.224 451.75 539.072 477.501 534.133 501.358C528.693 527.833 507.881 545.675 481.201 546.771C473.942 547.049 465.16 546.473 461.837 545.452ZM499.396 536.318C504.483 534.22 511 529.281 515.716 523.99C544.939 491.499 521.805 440.74 477.711 440.443C442.25 440.294 417.371 479.097 432.391 511.291C444.348 537.042 472.568 547.643 499.396 536.318ZM456.899 534.071C421.066 516.007 420.992 467.141 456.676 447.405C474.444 437.621 496.5 441.167 511.947 456.391C531.162 475.254 531.311 506.371 512.3 524.863C502.664 534.22 494.606 537.487 479.456 538.137C467.852 538.713 464.956 538.212 456.899 534.071ZM498.746 530.377C516.662 521.446 526.447 500.782 522.102 481.195C516.365 455.667 490.187 439.644 466.478 447.108C439.056 455.741 425.708 486.505 438.481 511.514C449.286 532.698 476.764 541.331 498.746 530.377ZM458.198 506.222C458.198 491.722 458.124 491.499 452.833 488.38C445.945 484.314 446.669 482.513 457.326 476.851C469.598 470.464 482.501 470.538 494.903 477.074C499.972 479.747 505.337 481.919 506.86 481.919C508.327 481.919 509.552 483.163 509.552 484.611C509.552 486.357 507.806 487.229 504.409 487.229C501.642 487.229 498.375 488.455 497.15 489.903C494.253 493.393 479.011 497.812 473.794 496.642C470.47 495.918 471.25 497.311 478.008 503.902C485.694 511.365 486.994 512.034 495.256 512.034C501.717 512.034 504.186 512.683 504.186 514.484C504.186 517.399 500.417 519.051 493.734 519.051C488.015 519.051 477.135 512.238 470.247 504.273C465.457 498.759 465.457 498.759 465.383 509.768C465.309 519.645 464.882 520.871 461.763 520.871C458.495 520.871 458.198 519.72 458.198 506.222ZM493.084 486.71C495.924 483.962 495.924 483.59 492.657 481.195C489.612 478.949 488.962 479.023 487.644 481.641C482.928 490.552 471.993 491.796 467.481 483.887C464.956 479.469 464.084 479.023 460.519 480.694C454.949 483.163 455.376 485.187 462.19 488.232C469.951 491.797 489.036 490.85 493.084 486.71ZM448.488 473.082C447.838 472.135 447.913 470.538 448.488 469.591C449.862 467.345 471.398 460.754 477.358 460.754C484.246 460.754 509.477 470.111 509.552 472.636C509.552 475.625 507.602 475.477 495.85 471.337C483.076 466.844 469.672 466.844 458.347 471.263C452.981 473.379 449.064 474.103 448.488 473.008V473.082ZM387.424 541.108C387.424 540.607 388.297 538.49 389.3 536.615C390.822 533.774 390.395 532.475 387.128 529.727C383.006 526.311 383.006 526.311 387.926 526.237C391.342 526.162 393.366 524.937 394.535 522.17C396.132 518.197 396.132 518.197 397.283 522.17C398.23 525.215 399.827 526.162 404.023 526.237C409.537 526.237 409.536 526.236 405.415 529.504C402.296 531.825 401.498 533.719 402.426 536.541C403.744 540.681 401.776 541.535 398.527 538.286C396.986 536.764 395.408 536.968 391.992 539.214C389.448 540.811 387.424 541.683 387.424 541.108ZM555.465 537.766C557.062 533.644 556.691 532.475 553.349 529.653C549.302 526.311 549.302 526.311 554.222 526.237C557.638 526.162 559.661 524.937 560.831 522.17C562.428 518.197 562.428 518.197 563.579 522.17C564.526 525.215 566.123 526.162 570.318 526.237C575.833 526.237 575.832 526.236 571.785 529.43C568.443 531.973 567.942 533.57 568.944 537.766C570.188 542.927 570.188 542.927 566.549 539.734C563.078 536.689 562.632 536.689 558.287 539.511C553.646 542.556 553.646 542.556 555.465 537.766ZM351.666 532.122C352.316 528.78 351.592 526.961 349.197 525.587C346.078 523.841 346.152 523.637 350.292 522.69C353.115 521.966 354.934 520.147 355.287 517.678C356.011 512.535 358.48 512.683 359.798 517.975C360.652 521.446 361.748 522.041 365.739 521.242C370.604 520.37 370.604 520.37 367.336 524.064C364.941 526.756 364.365 529.133 365.238 532.697C366.463 537.562 366.463 537.562 362.843 534.294C359.353 531.175 358.926 531.101 355.881 533.848C351.443 537.914 350.645 537.562 351.666 532.122ZM592.95 532.4C594.918 528.279 594.77 527.258 592.152 525.364C588.086 522.319 588.309 520.221 592.728 521.372C595.271 522.04 596.942 521.019 598.761 517.603C601.212 512.887 601.212 512.888 602.456 517.752C603.403 521.521 604.777 522.69 608.323 522.69C613.039 522.765 613.038 522.765 608.842 525.958C605.278 528.706 604.925 529.727 606.652 532.976C609.047 537.487 607.45 537.915 603.106 533.997C600.358 531.454 599.634 531.453 595.419 534.294C590.778 537.339 590.778 537.339 592.95 532.475V532.4ZM324.987 525.215C321.144 517.25 321.2 515.153 325.414 509.991C329.183 505.573 330.353 508.19 327.085 513.481C325.488 515.932 325.915 518.253 328.904 524.064C331.652 529.578 332.005 531.453 330.278 531.453C328.96 531.453 326.584 528.706 324.987 525.215ZM631.029 526.533C626.536 521.818 624.568 512.609 627.408 509.713C629.803 507.318 631.53 510.641 629.655 514.057C628.058 517.176 628.56 518.624 633.201 523.34C636.172 526.459 638.641 529.578 638.641 530.228C638.641 532.846 635.671 531.323 631.029 526.533ZM314.386 523.489C310.469 515.282 310.617 511.514 314.906 507.596C317.728 505.071 318.452 504.923 318.452 506.946C318.452 508.395 317.579 510.437 316.428 511.588C314.98 513.036 315.184 515.431 317.301 520.797C320.624 529.077 320.772 529.727 318.749 529.727C318.025 529.727 315.983 526.886 314.386 523.489ZM641.538 524.64C637.769 520.722 636.766 518.123 637.193 513.556C637.564 510.288 638.567 508.042 639.514 508.469C640.461 508.97 640.962 511.235 640.665 513.556C640.312 516.378 642.057 519.72 645.975 523.693C649.818 527.685 650.82 529.727 649.094 529.727C647.627 529.727 644.23 527.406 641.538 524.64ZM303.729 521.669C300.109 514.131 300.035 510.437 303.432 505.925C306.774 501.581 308.742 503.475 306.05 508.469C304.453 511.514 304.602 513.76 306.774 519.274C309.967 527.332 310.116 527.982 308.148 527.982C307.35 527.982 305.326 525.16 303.729 521.669ZM653.011 521.966C648.871 517.677 647.423 514.707 647.85 511.291C648.147 508.691 649.224 506.649 650.171 506.723C651.118 506.798 651.693 508.692 651.414 510.79C651.117 513.333 652.863 516.601 656.26 519.924C661.552 525.011 663.093 527.982 660.252 527.982C659.454 527.982 656.186 525.215 653.011 521.966ZM292.701 518.197C289.303 509.193 291.03 501.432 296.544 501.432C299.236 501.432 299.236 501.729 296.265 504.997C292.849 508.766 292.924 508.84 298.512 523.99C299.013 525.16 298.512 526.162 297.565 526.162C296.544 526.162 294.372 522.542 292.627 518.197H292.701ZM663.742 519.423C659.101 515.58 657.931 513.407 658.451 509.416C658.729 506.649 660.029 504.05 661.199 503.604C662.795 503.103 663.093 504.403 662.35 508.116C661.496 512.461 662.146 513.909 666.787 517.176C671.93 520.871 674.028 524.491 670.983 524.361C670.185 524.361 666.991 522.115 663.742 519.423ZM282.118 516.526C278.628 508.19 278.85 504.328 283.065 500.485C286.982 497.013 287.855 499.483 284.587 504.774C282.916 507.318 283.139 509.639 285.46 515.357C287.187 519.72 287.632 522.616 286.463 522.616C285.46 522.616 283.492 519.85 282.118 516.526ZM675.197 516.731C669.832 512.238 668.588 510.065 669.034 506.222C669.312 503.475 670.407 501.358 671.428 501.432C672.375 501.507 672.951 503.4 672.654 505.721C672.301 508.691 673.898 511.291 678.539 515.153C682.085 518.049 684.258 520.871 683.459 521.446C682.587 521.966 678.892 519.85 675.197 516.731ZM271.61 515.004C267.395 505.071 269.289 496.067 275.453 496.067C277.978 496.067 277.978 496.512 275.156 499.631C272.334 502.751 272.185 503.976 274.209 511.161C276.976 521.094 275.23 523.693 271.61 515.004ZM685.632 513.611C679.115 507.893 676.646 497.886 681.789 497.886C683.311 497.886 683.905 499.334 683.385 502.008C682.81 505.071 684.258 507.522 688.974 511.662C692.464 514.707 695.286 517.603 695.286 518.197C695.286 520.518 691.369 518.624 685.632 513.611ZM226.494 375.759C226.494 374.589 311.341 374.014 477.563 374.014C643.06 374.014 729.076 374.589 729.8 375.759C730.524 376.984 646.327 377.56 478.658 377.56C311.712 377.56 226.494 376.984 226.494 375.759ZM95.5114 416.437C95.5114 411.499 100.301 400.563 102.399 400.563C103.346 400.563 105.37 400.043 106.892 399.468C111.404 397.722 110.086 401.566 105.444 403.682C102.399 405.13 100.877 407.6 100.004 412.817C98.7048 420.206 95.5114 422.824 95.5114 416.437ZM847.434 414.692C843.74 410.997 842.644 405.854 845.689 405.854C846.636 405.854 847.434 406.579 847.434 407.525C847.434 411.294 853.394 414.692 859.985 414.692C863.754 414.692 866.873 415.49 866.873 416.511C866.873 419.927 851.203 418.461 847.434 414.692ZM87.6766 406.504C90.2202 395.624 92.6149 392.654 99.0758 392.004C105.592 391.41 104.868 394.325 98.2775 395.55C95.9568 395.922 94.1373 398.446 92.8377 403.088C90.5169 411.368 85.8757 414.413 87.7508 406.504H87.6766ZM854.694 404.759C849.755 398.521 851.927 395.625 857.237 401.362C860.412 404.759 863.178 405.854 868.618 405.854C872.535 405.854 875.729 406.653 875.729 407.655C875.729 408.602 871.811 409.401 867.021 409.401C859.762 409.401 857.738 408.677 854.694 404.759ZM79.6373 400.118C79.7115 398.892 81.2342 394.529 83.1093 390.407C86.0056 383.946 87.3237 382.87 91.8909 382.87C98.5561 382.87 99.076 385.97 92.615 386.713C88.7718 387.214 87.3981 388.737 85.3559 394.826C83.0351 401.863 79.563 405.056 79.6373 400.118ZM860.857 394.975C859.409 392.877 858.685 390.333 859.335 389.312C859.985 388.291 861.507 389.163 863.03 391.41C865.053 394.473 867.318 395.253 874.206 395.253C878.922 395.253 882.821 396.052 882.821 396.998C882.821 398.02 878.477 398.818 873.185 398.818C865.35 398.818 863.104 398.094 860.857 394.975ZM72.5266 390.835C72.5266 390.333 74.1976 386.342 76.2955 381.997C78.7648 376.687 81.1598 374.014 83.332 374.014C85.2257 374.014 87.2494 373.939 87.9735 373.865C88.6976 373.791 89.57 374.589 89.867 375.685C90.2941 376.687 88.5492 377.56 86.1542 377.56C82.6823 377.56 81.1597 379.082 78.9132 384.671C77.3908 388.514 75.2742 391.707 74.3459 391.707C73.3248 391.707 72.5266 391.354 72.5266 390.835ZM868.692 386.416C866.724 384.448 865.128 382.071 865.128 381.124C865.128 378.005 868.47 379.156 870.493 382.925C872.09 385.97 873.686 386.416 881.169 385.692C889.579 384.968 892.847 386.638 887.11 388.885C881.243 391.131 872.164 389.888 868.692 386.416ZM321.998 312.003C321.998 308.383 325.711 303.221 328.236 303.221C329.684 303.221 330.854 302.646 330.854 301.922C330.854 300.047 339.487 290.819 341.288 290.819C342.087 290.819 344.63 293.66 346.951 297.057C349.272 300.399 352.168 303.221 353.337 303.221C355.584 303.221 359.13 308.661 359.13 312.077C359.13 313.303 355.881 313.823 349.847 313.526C342.458 313.099 340.508 312.3 339.989 309.608C339.636 307.807 340.434 305.616 341.734 304.818C343.553 303.667 343.405 303.296 341.01 303.296C338.763 303.221 337.89 304.688 337.89 308.531C337.89 313.674 337.593 313.897 329.981 313.897C325.488 313.897 321.998 313.024 321.998 312.003ZM897.915 301.346C898.639 299.025 897.915 296.408 895.947 294.236C892.977 290.968 893.051 290.819 897.414 290.819C900.811 290.819 902.186 289.668 903.207 285.973C904.506 281.109 904.506 281.109 906.177 285.973C907.495 289.594 909.092 290.894 912.638 290.968C917.354 291.042 917.354 291.042 913.436 293.734C910.317 295.981 909.872 297.28 911.19 300.771C913.065 305.617 912.49 305.913 907.625 302.869C904.878 301.123 903.708 301.123 901.981 302.869C898.639 306.211 896.616 305.412 897.915 301.346ZM48.4465 299.1C49.3191 295.535 48.6692 294.087 45.5501 292.36C41.6327 290.095 41.6329 290.095 46.7757 289.167C50.4703 288.499 52.3639 286.921 53.1623 283.801C54.3134 279.364 54.3132 279.364 55.7057 284.228C56.7825 288.22 58.0265 289.093 62.5937 289.167C68.1078 289.167 68.1079 289.167 63.8935 292.36C60.7744 294.811 60.0502 296.556 60.9971 299.601C62.1482 303.166 61.944 303.37 58.5279 301.569C55.7801 300.102 53.8862 300.102 51.0642 301.643C47.5738 303.444 47.3511 303.296 48.4465 299.1ZM824.45 300.845C824.45 300.325 825.248 297.726 826.325 295.034C827.922 290.764 827.643 289.742 824.078 286.976C820.031 283.857 820.031 283.857 825.471 283.801C829.666 283.801 831.189 282.706 832.637 278.937C834.531 274.073 834.531 274.073 835.831 278.937C837 282.929 838.226 283.801 842.793 283.801C848.307 283.857 848.307 283.857 844.241 286.976C840.918 289.52 840.398 291.191 841.345 295.108C842.57 300.047 842.57 300.102 838.226 297.206C834.085 294.533 833.584 294.533 829.165 298.004C826.547 300.047 824.45 301.346 824.45 300.845ZM117.846 295.034C118.793 291.413 118.143 289.668 114.802 287.125C110.606 283.857 110.606 283.857 116.175 283.801C120.687 283.801 122.135 282.854 123.509 278.937C125.18 274.073 125.18 274.073 127.129 278.937C128.578 282.557 130.322 283.801 133.961 283.857C138.881 283.857 138.882 283.857 134.89 287.199C131.567 290.04 131.195 291.339 132.643 295.108C134.686 300.399 134.091 300.697 128.447 297.002C124.808 294.607 124.084 294.607 122.135 297.002C118.644 301.198 116.547 300.177 117.846 295.034ZM517.665 263.267L505.486 249.844L520.283 234.991C535.581 219.618 537.902 217.948 536.899 223.165C536.602 224.91 535.303 237.591 534.133 251.515C532.982 265.365 531.534 276.69 530.94 276.69C530.364 276.69 524.423 270.601 517.665 263.267ZM129.821 257.252C130.842 252.165 130.322 250.587 126.999 248.043C123.007 244.924 123.008 244.924 128.578 244.924C133.442 244.85 134.314 244.126 135.484 239.113L136.783 233.394L139.178 239.113C140.979 243.624 142.651 244.85 146.419 244.924C151.284 244.998 151.284 244.998 147.292 248.322C143.894 251.088 143.523 252.388 145.045 256.305C147.589 263.045 147.366 263.193 142.149 259.072C137.433 255.358 137.433 255.358 133.015 259.424C128.652 263.416 128.652 263.416 129.821 257.252ZM812.048 261.819C812.048 261.392 812.994 258.923 814.071 256.528C815.891 252.61 815.594 251.589 811.899 248.47C807.629 244.998 807.629 244.998 813.347 244.924C817.915 244.85 819.307 243.977 820.161 240.431C821.405 235.493 824.45 236.142 824.45 241.434C824.45 244.2 825.675 244.85 830.91 244.85C837.279 244.85 837.279 244.85 832.637 248.545C829.091 251.311 828.218 253.186 829.091 256.454C830.242 261.095 828.219 262.116 824.803 258.626C823.15 256.955 821.479 257.178 817.339 259.647C814.443 261.318 812.048 262.32 812.048 261.819ZM892.55 257.252C891.9 256.231 893.571 255.433 896.467 255.433C900.013 255.433 902.984 253.631 906.976 248.841C914.513 239.911 916.556 242.678 909.222 251.812C903.504 258.997 895.297 261.671 892.55 257.252ZM64.9145 245.871C62.5937 244.052 60.1989 243.829 56.0587 244.998C49.0222 247.022 45.9773 247.022 45.9773 245.073C45.9773 244.2 49.6161 242.603 54.0348 241.508C62.5937 239.336 67.7364 240.71 69.6302 245.648C70.9298 248.99 69.1104 249.046 64.9145 245.871ZM888.985 246.669C888.41 245.574 890.155 244.85 893.348 244.85C897.544 244.85 899.586 243.55 902.705 238.686C904.877 235.27 907.272 232.522 908.071 232.522C910.614 232.448 909.296 236.291 904.729 242.306C900.088 248.396 891.529 250.717 888.985 246.669ZM70.0574 236.662C69.1105 234.267 67.2353 233.97 59.252 234.917C53.5893 235.567 49.5418 235.344 49.5418 234.397C49.5418 232.522 64.9887 228.902 67.9593 229.979C71.0041 231.148 74.4759 237.442 72.675 238.612C71.8024 239.113 70.6329 238.24 70.0574 236.662ZM884.566 235.994C884.566 235.065 886.887 234.267 889.784 234.267C893.998 234.267 895.743 232.875 898.936 227.156C901.387 222.738 903.578 220.695 904.581 221.717C905.602 222.738 904.302 226.061 901.183 230.554C897.043 236.365 895.019 237.739 890.377 237.739C887.184 237.739 884.566 237.015 884.566 235.994ZM74.3459 227.156C74.3459 226.209 75.0703 225.411 76.0729 225.411C77.0197 225.411 77.818 226.209 77.818 227.156C77.818 228.159 77.0197 228.957 76.0729 228.957C75.0703 228.957 74.3459 228.159 74.3459 227.156ZM152.955 223.963C153.901 219.823 153.307 218.096 150.485 216.128C146.345 213.232 147.366 211.264 152.955 211.264C155.498 211.264 157.373 209.593 158.617 206.418C160.418 201.48 160.418 201.48 161.81 206.418C162.961 210.54 164.057 211.264 169.553 211.264C176.014 211.264 176.013 211.264 171.093 215.256C166.656 218.82 166.303 219.823 167.9 224.111C169.998 229.626 168.903 230.201 164.261 226.061C161.291 223.388 160.715 223.388 156.427 226.21C151.785 229.254 151.785 229.254 152.955 223.963ZM791.662 223.889C792.609 219.619 792.108 218.022 789.193 216.202C784.124 213.083 784.551 210.614 789.991 211.988C793.834 212.935 794.855 212.285 796.823 207.569L799.144 201.981L801.168 207.718C802.839 212.508 803.86 213.306 807.629 212.582C812.994 211.561 813.347 213.455 808.427 216.778C805.308 218.82 805.011 219.897 806.608 224.037C808.706 229.626 807.554 230.201 802.913 226.061C800.017 223.388 799.423 223.388 795.078 226.21C790.437 229.254 790.437 229.254 791.662 223.889ZM881.02 225.411C881.02 224.39 882.97 223.592 885.365 223.592C888.558 223.592 890.73 221.791 893.627 216.555C897.488 209.741 900.533 207.421 900.533 211.264C900.533 212.285 898.491 216.277 896.096 220.12C892.476 225.782 890.582 227.156 886.312 227.156C883.415 227.156 881.02 226.358 881.02 225.411ZM53.088 223.963C53.088 222.144 60.199 220.194 65.9173 220.473C70.8559 220.77 67.0866 223.239 59.6973 224.539C55.5571 225.337 53.088 225.114 53.088 223.963ZM77.0196 215.478C74.9959 212.434 74.6989 211.06 76.1471 211.561C79.1176 212.582 84.1303 220.12 81.8096 220.12C80.7885 220.12 78.6164 218.022 76.9454 215.478H77.0196ZM875.729 216.629C875.729 215.775 877.53 214.754 879.702 214.457C882.246 214.105 885.142 211.134 887.834 206.344C890.08 202.204 892.698 199.307 893.571 199.809C895.297 200.904 891.25 210.113 886.739 215.181C883.917 218.449 875.729 219.544 875.729 216.629ZM58.3794 213.009C58.3794 212.062 60.4218 211.264 62.8725 211.264C65.4903 211.264 66.9382 211.988 66.3627 213.009C65.7129 213.956 63.6705 214.754 61.7954 214.754C59.9017 214.754 58.3794 213.956 58.3794 213.009ZM83.1836 207.718C82.1067 205.75 79.7117 204.172 77.7437 204.172C75.8686 204.172 74.3459 203.373 74.3459 202.426C74.3459 199.159 81.1598 200.533 84.8544 204.524C86.8039 206.622 88.4749 209.018 88.4749 209.816C88.4749 212.582 85.003 211.19 83.1836 207.718ZM870.865 207.272C871.292 206.047 873.26 204.822 875.358 204.524C877.901 204.097 879.999 201.48 882.097 196.04C883.917 191.324 885.81 188.706 886.739 189.653C889.356 192.345 882.821 206.047 878.049 207.866C872.164 210.038 869.992 209.89 870.865 207.272ZM89.3475 198.862C88.4006 195.965 86.6739 195.316 79.4888 195.316C74.6988 195.316 70.7815 194.517 70.7815 193.571C70.7815 192.568 74.6988 191.77 79.4888 191.77C86.5253 191.77 88.7719 192.568 91.0184 195.668C94.1374 200.18 94.5086 202.426 92.1136 202.426C91.241 202.426 89.923 200.83 89.3475 198.862ZM293.648 165.22C293.648 164.05 356.809 163.475 479.456 163.475C602.085 163.475 665.19 164.05 665.19 165.22C665.19 166.371 602.085 167.04 479.456 167.04C356.809 167.04 293.648 166.371 293.648 165.22ZM835.032 164.273C835.032 162.899 836.276 161.73 837.724 161.73C840.769 161.73 843.888 154.916 843.888 148.325C843.888 145.93 844.687 144.036 845.689 144.036C848.159 144.036 847.806 154.638 845.188 159.78C842.514 164.923 835.032 168.265 835.032 164.273ZM126.628 157.311C125.904 154.341 123.936 152.595 120.761 151.871C118.069 151.296 114.003 150.497 111.608 149.996C109.158 149.476 108.062 148.473 109.009 147.527C111.255 145.28 126.053 148.901 128.726 152.372C131.27 155.789 131.641 161.73 129.32 161.73C128.447 161.73 127.278 159.706 126.628 157.311ZM826.195 156.587C826.195 155.714 827.792 154.638 829.667 154.118C832.285 153.468 833.361 151.073 834.308 144.111C835.107 138.095 836.128 135.552 837.279 136.721C840.119 139.543 837.149 154.341 833.287 156.364C829.24 158.611 826.195 158.685 826.195 156.587ZM135.038 149.476C133.516 145.355 131.696 144.185 125.83 143.164C119.239 142.087 115.395 138.671 120.761 138.745C130.972 138.745 139.754 144.835 139.754 151.871C139.754 156.364 137.136 155.065 135.038 149.476ZM299.96 151.797C293.722 145.559 299.811 133.528 307.869 136.072C311.991 137.371 311.118 139.543 306.421 139.543C304.601 139.618 303.154 141.289 302.782 143.758C301.408 153.895 311.638 152.447 314.757 142.087C317.505 132.804 320.995 133.379 323.966 143.535L326.435 151.945L327.308 144.111C328.607 132.358 332.599 132.581 332.599 144.482C332.599 153.969 332.525 154.118 327.308 154.266C323.817 154.34 321.998 153.542 321.998 151.871C321.998 148.678 317.356 148.529 316.131 151.648C314.906 154.99 303.228 155.065 299.96 151.797ZM336.145 144.909C336.145 135.849 336.442 135.199 340.36 135.199C345.725 135.199 349.197 139.395 347.972 144.259C347.396 146.357 347.749 149.55 348.696 151.37C351.314 156.216 346.078 155.64 342.68 150.646C339.84 146.654 339.84 146.654 339.766 150.646C339.71 152.818 338.912 154.638 337.89 154.638C336.944 154.638 336.145 150.275 336.145 144.909ZM344.556 141.938C343.479 138.596 339.71 138.095 339.71 141.214C339.71 142.737 340.935 144.036 342.458 144.036C344.054 144.036 345.001 143.089 344.556 141.938ZM103.198 426.295C103.848 424.643 104.367 421.376 104.367 418.98C104.367 416.66 105.964 413.095 107.913 411.146C111.608 407.451 116.769 406.43 116.769 409.401C116.769 410.422 115.6 411.146 114.226 411.146C110.958 411.146 109.213 413.968 107.988 421.58C107.486 424.922 105.89 428.041 104.516 428.542C102.77 429.136 102.399 428.412 103.198 426.295ZM842.143 424.848C837.724 422.601 834.884 414.692 838.448 414.692C839.525 414.692 840.324 415.861 840.324 417.31C840.324 420.726 845.912 423.548 852.652 423.548C855.641 423.548 858.035 424.346 858.035 425.367C858.035 427.818 847.434 427.465 842.143 424.848ZM423.758 350.955C412.08 350.305 400.699 349.637 398.527 349.507C395.909 349.284 394.535 348.114 394.535 345.942C394.535 342.099 391.62 339.277 386.7 338.404C384.602 337.977 382.709 335.582 381.836 332.166C380.815 328.323 379.014 326.299 375.969 325.501C373.5 324.906 371.532 323.31 371.532 321.936C371.532 318.743 380.017 316.218 394.535 314.974C400.903 314.473 407.513 313.526 409.184 312.876C413.974 311.056 416.22 305.691 413.825 301.848C412.154 299.174 412.656 296.482 416.573 287.774C422.459 274.648 427.75 269.357 435.362 269.004C440.152 268.781 441.303 269.58 442.751 273.72C445.146 280.757 443.048 281.685 437.237 276.041C432.54 271.529 432.094 271.473 429.774 274.444C427.527 277.266 427.601 277.34 430.071 275.447C434.638 271.826 437.831 276.394 433.914 280.961C431.797 283.43 431.742 283.931 433.543 282.558C434.991 281.406 439.205 280.757 442.826 281.035C449.212 281.481 449.361 281.406 447.114 277.767C443.475 272.197 442.25 267.835 444.143 267.835C445.072 267.835 445.87 269.283 445.87 270.954C445.87 273.423 446.242 273.571 447.467 271.603C448.711 269.58 449.639 269.877 452.257 272.922C459.721 281.685 463.712 298.079 460.018 305.041C458.569 307.733 458.922 308.81 461.763 310.332C468.799 314.101 465.03 315.568 446.316 316.143L427.304 316.719L447.616 316.793C468.001 316.867 468.001 316.868 471.473 322.53C483.077 340.948 481.331 339.499 492.731 340.075C503.462 340.576 506.655 342.024 509.7 347.761C511 350.231 510.777 351.029 508.828 351.029C507.454 351.029 505.931 349.636 505.486 347.91C504.688 344.939 504.613 344.939 504.483 347.91C504.186 351.456 501.42 352.032 500.12 348.783C499.396 347.037 499.173 347.037 499.043 348.783C498.969 350.379 495.256 351.029 486.994 351.029C475.613 350.955 474.889 350.732 472.049 345.663C470.396 342.749 467.629 340.428 465.829 340.502C463.137 340.576 463.285 340.873 466.404 342.099C470.526 343.844 472.995 348.56 471.25 351.456C470.526 352.626 469.226 352.106 467.704 350.082C465.606 347.111 465.309 347.112 465.309 349.785C465.309 353.628 463.712 353.554 460.668 349.711C458.347 346.74 458.272 346.74 459.294 349.711C460.519 353.127 461.689 353.127 423.758 350.955ZM429.05 306.34C425.578 304.391 425.633 304.243 429.922 303.092C434.341 301.848 434.341 301.848 429.477 301.643C425.355 301.495 424.631 300.696 424.631 296.333C424.631 293.437 425.132 289.891 425.708 288.294C426.729 285.676 427.156 285.676 430.572 288.573C434.341 291.692 434.341 291.692 431.296 288.072C429.551 286.048 428.177 282.929 428.177 281.109C428.177 275.967 426.729 278.789 423.981 289.167C421.79 297.782 421.79 299.378 424.334 303.667C425.856 306.34 428.4 308.531 429.848 308.531C431.872 308.457 431.667 307.863 429.05 306.34ZM454.225 296.204C454.726 294.384 454.429 294.161 453.483 295.535C452.684 296.63 450.438 297.93 448.488 298.524C445.722 299.248 445.87 299.378 449.212 299.174C451.607 298.951 453.853 297.652 454.225 296.204ZM441.024 339.202C439.78 338.775 437.386 338.701 435.715 339.202C433.988 339.629 434.916 340.001 437.905 340.075C440.802 340.075 442.175 339.704 441.024 339.277V339.202ZM419.265 331.07C419.265 328.898 418.467 325.928 417.52 324.48C416.295 322.586 416.072 323.384 416.87 327.45C417.817 332.593 417.52 333.113 412.879 333.837C407.94 334.561 407.94 334.561 413.528 334.858C418.393 335.062 419.339 334.487 419.265 331.07ZM307.869 353.35C289.582 352.328 286.611 351.308 286.611 346.462C286.611 340.354 288.783 340.001 310.766 341.597C329.981 343.045 329.982 343.046 330.483 348.783C331.151 355.225 333.323 354.798 307.869 353.35ZM332.599 348.337C332.599 342.173 332.599 342.173 347.173 341.82L361.822 341.449L347.972 340.873C334.196 340.223 334.196 340.223 334.697 334.561C335.273 328.898 335.273 328.898 357.403 328.898C379.515 328.898 379.515 328.898 379.515 334.189C379.515 338.905 380.165 339.629 385.679 340.428C390.896 341.152 391.843 342.024 391.843 345.738C391.843 350.583 389.448 351.103 349.847 353.424C332.599 354.427 332.599 354.427 332.599 348.337ZM54.8331 360.089C54.8331 359.291 57.2282 355.299 60.1987 351.308C64.339 345.515 66.5856 343.918 70.7815 343.918C73.6778 343.918 76.0729 344.717 76.0729 345.738C76.0729 346.666 73.8262 347.464 71.0784 347.464C67.161 347.464 65.2675 348.912 62.1484 354.575C58.528 361.036 54.8331 363.784 54.8331 360.163V360.089ZM884.938 355.949C883.768 354.798 882.821 352.7 882.821 351.233C882.821 349.209 883.564 349.358 886.312 351.902C889.134 354.427 891.529 354.798 898.714 353.851C903.782 353.201 907.625 353.35 907.625 354.278C907.625 358.121 888.484 359.514 884.938 355.949ZM789.341 373.939C792.683 365.158 792.535 364.229 787.745 361.185C782.899 358.195 782.899 358.195 788.692 358.121C793.333 358.121 794.855 357.119 796.378 353.201C798.346 348.337 798.346 348.337 800.017 353.201C801.39 357.119 802.839 358.121 807.332 358.121C812.92 358.195 812.92 358.196 808.706 361.389C805.382 364.007 804.714 365.678 805.661 369.372C806.979 374.663 805.661 375.239 801.391 371.321C798.773 368.945 797.974 369.075 793.407 372.64C790.14 375.165 788.692 375.61 789.341 373.939ZM153.251 368.945C154.05 364.954 153.381 363.208 150.207 360.962C146.066 358.065 146.066 358.066 151.729 358.066C156.296 358.066 157.596 357.267 158.469 353.628C159.118 351.233 160.214 349.209 161.012 349.209C161.736 349.209 162.888 351.233 163.463 353.628C164.41 357.267 165.709 358.121 170.295 358.121C176.013 358.195 176.013 358.196 171.817 361.389C168.476 364.007 167.826 365.678 168.773 369.372C170.072 374.738 168.773 375.239 164.187 371.117C161.217 368.351 160.789 368.351 157.744 371.117C153.177 375.239 152.082 374.738 153.251 368.945ZM60.1245 371.266C60.1245 370.746 61.7956 367.126 63.745 363.282C67.2354 356.469 74.5503 351.605 77.9664 353.777C81.0855 355.67 79.5633 358.066 75.2003 358.066C71.877 358.066 69.983 359.792 67.2352 365.158C64.1904 371.117 60.1245 374.589 60.1245 371.266ZM880.872 366.754C877.326 363.208 876.453 359.866 879.127 359.866C879.999 359.866 881.169 361.185 881.818 362.707C882.691 365.028 884.789 365.455 892.624 364.805C902.055 364.007 906.177 366.105 898.268 367.701C886.535 370.096 884.065 369.948 880.872 366.754ZM67.3094 380.029C67.1609 373.939 74.6989 364.359 80.1387 363.71C82.7565 363.431 84.9287 364.007 84.9287 365.083C84.9287 366.104 83.3318 366.977 81.3082 366.977C79.1174 366.977 76.5184 369.075 74.6989 372.417C73.0279 375.388 70.7071 379.157 69.4817 380.753C67.5137 383.445 67.3837 383.371 67.3094 380.029ZM874.058 375.963C870.939 370.096 872.09 367.553 875.803 372.046C878.922 375.685 880.444 376.112 888.205 375.388C894.22 374.812 896.894 375.165 896.467 376.483C896.096 377.56 891.306 378.655 885.884 378.952C877.455 379.454 875.655 378.952 874.058 375.963ZM864.125 198.583C863.531 197.785 864.404 196.69 865.926 196.188C867.449 195.668 869.695 195.019 871.013 194.592C872.238 194.22 874.281 190.674 875.506 186.683C876.657 182.617 878.402 179.368 879.349 179.368C884.938 179.368 875.859 198.063 869.695 199.233C867.17 199.734 864.626 199.456 864.125 198.583ZM95.5114 190.024C94.0633 187.184 91.8167 186.46 84.8544 186.46C79.9901 186.46 76.0729 185.662 76.0729 184.733C76.0729 183.712 80.4357 182.914 85.727 182.914C93.6361 182.914 95.8083 183.638 98.0548 186.831C99.5772 189.003 100.803 191.398 100.803 192.197C100.803 194.889 97.4051 193.496 95.5114 190.024ZM858.035 188.353C858.035 187.481 859.837 186.46 861.935 186.181C864.998 185.736 866.52 183.563 868.395 176.75C869.844 171.885 871.292 168.915 871.737 170.214C873.037 173.928 870.493 184.362 867.597 187.258C864.626 190.247 858.035 190.971 858.035 188.353ZM102.696 181.317C101.471 178.996 98.0547 177.548 92.0394 176.75C80.7884 175.227 82.1066 171.533 93.4876 172.832C101.1 173.705 107.913 178.569 107.913 183.136C107.913 185.958 104.571 184.807 102.696 181.317ZM850.999 179.497C850.999 178.643 852.725 177.622 854.842 177.325C857.961 176.898 859.112 174.93 860.635 167.894C861.804 162.454 863.104 159.929 863.902 161.229C865.777 164.199 863.457 175.45 860.356 178.569C857.515 181.466 850.999 182.115 850.999 179.497ZM110.012 173.259C108.433 169.787 106.317 168.692 99.0016 167.764C93.1162 166.965 90.5914 165.944 91.7425 164.774C94.713 161.804 109.287 164.997 112.332 169.286C115.247 173.482 115.823 177.622 113.502 177.622C112.703 177.622 111.107 175.654 110.012 173.259ZM842.143 172.61C842.143 171.811 844.111 170.214 846.432 169.138C849.755 167.689 850.999 165.294 851.927 158.982C852.726 153.691 853.821 151.444 854.916 152.521C857.738 155.362 854.694 168.488 850.405 171.458C846.283 174.355 842.143 174.93 842.143 172.61ZM117.642 164.849C116.398 162.101 113.353 160.43 107.041 159.056C96.6068 156.884 98.8531 153.969 109.733 155.714C117.846 157.014 122.061 160.281 122.061 165.369C122.061 169.936 119.814 169.713 117.642 164.849ZM260.359 510.511C257.611 501.228 257.741 498.907 261.528 495.491C266.374 491.147 267.971 491.945 264.573 497.088C262.178 500.782 261.956 502.75 263.478 507.095C265.724 513.612 265.873 517.325 263.923 517.325C263.051 517.325 261.529 514.28 260.359 510.511ZM696.586 510.864C691.22 507.021 689.995 505.071 689.995 500.207C689.995 496.512 690.867 494.321 692.315 494.321C693.912 494.321 694.413 495.992 693.912 499.408C693.318 503.679 694.191 505.071 699.556 508.395C703.047 510.567 705.869 513.036 705.869 513.909C705.869 516.601 703.548 515.802 696.586 510.864ZM249.702 506.946C246.936 497.515 247.158 495.343 251.224 491.648C255.792 487.508 258.113 489.68 253.972 494.266C251.299 497.162 251.15 498.61 252.821 503.326C255.142 510.065 255.29 513.76 253.248 513.76C252.45 513.76 250.853 510.715 249.702 506.946ZM707.187 507.318C701.802 503.475 700.577 501.506 700.577 496.716C700.577 493.467 701.375 490.775 702.397 490.775C703.325 490.775 704.124 493.096 704.124 495.918C704.124 499.91 705.516 502.008 710.287 504.923C713.704 507.021 716.526 509.49 716.526 510.437C716.526 513.036 714.204 512.312 707.187 507.318ZM238.971 502.082C237.226 495.268 237.374 493.245 239.695 489.68C241.217 487.359 243.241 485.484 244.188 485.484C246.731 485.484 246.286 487.433 243.093 490.998C240.716 493.597 240.567 495.194 242.164 499.836C244.559 506.649 244.689 510.288 242.591 510.288C241.719 510.288 240.122 506.594 238.971 502.082ZM228.444 498.313C226.643 489.829 229.112 481.919 233.605 481.919C235.926 481.919 235.629 483.962 232.733 487.805C230.987 490.125 230.765 492.52 231.934 496.642C233.958 503.753 233.958 506.723 231.934 506.723C230.987 506.723 229.465 502.955 228.444 498.313ZM219.31 498.61C215.838 489.327 218.734 478.373 224.824 478.373C227.571 478.373 226.643 481.492 223.598 482.662C221.203 483.59 220.832 485.484 221.779 493.468C223.004 503.902 222.076 505.869 219.31 498.61ZM727.554 498.61C723.432 495.343 721.835 492.595 721.835 488.882C721.835 482.365 724.954 482.068 725.678 488.529C726.031 491.722 728.203 494.619 731.916 496.939C735.036 498.907 737.635 501.079 737.709 501.803C737.858 504.477 733.216 503.029 727.554 498.61ZM739.232 495.268C732.344 490.553 730.171 487.006 731.842 482.792C733.439 478.596 735.964 479.747 735.964 484.611C735.964 487.879 737.709 490.125 742.202 492.799C745.544 494.767 748.366 497.162 748.366 498.035C748.366 500.56 746.045 499.91 739.232 495.268ZM207.854 488.956C206.629 479.747 208.504 474.902 213.442 474.902C216.766 474.902 216.488 477.798 212.997 479.097C210.751 479.97 210.472 481.79 211.4 489.03C212.199 494.544 211.994 497.886 210.899 497.886C209.878 497.886 208.578 493.82 207.854 488.956ZM396.336 493.468C394.665 491.5 393.291 491.277 390.692 492.725C387.926 494.191 386.626 493.895 384.528 491.351C382.634 489.03 381.688 488.752 380.964 490.348C379.738 493.468 375.524 493.096 373.648 489.68C372.256 487.303 371.532 487.229 368.134 489.253C364.718 491.351 363.994 491.277 362.546 488.603C361.024 486.06 360.225 485.911 357.181 487.731C354.21 489.55 353.263 489.401 351.165 486.561C349.049 483.739 348.194 483.516 345.874 485.484C343.553 487.433 342.606 487.359 340.211 485.038C338.039 482.792 336.721 482.662 334.196 484.24C331.504 485.911 330.427 485.633 328.385 482.866C326.361 480.044 325.414 479.821 323.316 481.567C321.2 483.312 320.271 483.238 318.452 481.065C317.152 479.469 314.757 478.8 312.214 479.469C309.466 480.119 307.647 479.469 306.477 477.427C305.103 475.031 304.101 474.827 301.111 476.424C297.992 478.076 297.064 477.872 295.467 474.902C293.87 471.838 293.072 471.708 290.027 473.509C286.982 475.403 286.11 475.254 284.662 472.636C283.418 470.464 281.617 469.814 278.776 470.538C276.029 471.263 274.358 470.687 273.634 468.738C272.835 466.77 271.239 466.268 268.119 467.066C264.926 467.865 263.33 467.345 262.531 465.321C261.807 463.353 260.21 462.852 257.24 463.576C254.269 464.3 252.673 463.725 251.874 461.627C251.076 459.51 249.553 459.009 246.434 459.733C243.037 460.606 241.867 460.03 241.143 457.264C240.419 454.442 239.249 453.94 235.852 454.739C232.435 455.593 231.359 455.017 230.56 452.121C229.836 449.15 228.964 448.779 226.346 450.172C222.002 452.492 221.704 452.418 220.553 448.055C219.829 445.307 218.585 444.583 215.912 445.307C213.442 445.957 211.697 445.159 210.472 442.838C209.079 440.294 207.483 439.719 204.308 440.517C200.595 441.464 199.945 440.944 199.945 437.695C199.945 434.353 199.221 433.982 195.378 434.929C191.683 435.876 190.588 435.374 189.864 432.459C189.214 430.139 187.394 428.839 184.869 428.839C182.4 428.839 180.506 427.539 180.005 425.423C179.355 423.046 178.056 422.322 175.512 422.972C172.969 423.622 171.595 422.824 170.796 420.206C170.072 418.034 168.104 416.437 166.006 416.437C163.983 416.437 162.089 414.989 161.513 413.04C161.068 411.146 158.896 409.326 156.872 409.048C154.774 408.751 153.029 407.302 153.029 405.854C153.029 404.406 151.284 402.958 149.037 402.661C146.494 402.29 145.12 400.842 145.12 398.669C145.12 396.2 143.894 395.253 140.701 395.253C137.136 395.253 136.282 394.399 136.282 390.835C136.282 387.567 135.335 386.416 132.718 386.416C130.397 386.416 129.171 385.246 129.171 383.074C129.171 381.199 127.575 379.305 125.607 378.804C123.583 378.284 122.135 376.409 122.135 374.366C122.135 372.343 120.612 370.468 118.44 369.948C115.674 369.224 115.024 368.073 115.823 365.529C116.621 362.985 115.897 361.834 113.075 361.11C110.308 360.312 109.51 359.068 110.16 356.469C110.81 354 110.086 352.551 107.765 351.827C105.667 351.159 104.441 349.135 104.441 346.387C104.441 343.992 103.198 341.598 101.675 341.022C99.6516 340.224 99.2061 338.553 100.004 334.858C100.877 330.866 100.524 329.771 98.1291 329.771C95.8826 329.771 95.3626 328.694 96.031 325.055C96.6065 322.233 95.9567 319.337 94.5085 317.889C92.6891 316.069 92.541 314.472 93.7663 312.077C95.1588 309.534 94.8616 308.309 92.4666 307.009C89.7931 305.487 89.7188 304.688 91.6682 301.42C93.7105 298.153 93.5619 297.132 90.9441 294.236C88.1221 291.042 88.1219 290.689 91.3152 287.05C93.7103 284.303 94.0632 283.077 92.4666 282.483C89.3475 281.406 89.7185 275.521 92.9119 274.295C95.1584 273.423 95.2328 272.625 93.3391 269.58C91.4454 266.461 91.5196 265.662 94.2117 264.14C96.3839 262.915 96.9596 261.095 96.2355 258.05C95.4372 255.08 95.957 253.409 97.9064 252.685C99.9301 251.886 100.376 250.215 99.6515 246.446C98.8531 242.38 99.2061 241.304 101.675 241.304C104.07 241.304 104.516 240.357 103.643 236.718C102.696 233.097 103.197 232.021 106.112 231.222C108.433 230.628 109.659 228.827 109.659 225.987C109.659 223.666 110.884 221.271 112.332 220.696C113.799 220.194 114.95 218.152 114.95 216.202C114.95 214.179 116.473 212.285 118.496 211.784C120.539 211.19 122.061 209.314 122.061 207.346C122.061 205.323 123.583 203.429 125.607 202.928C127.575 202.427 129.171 200.533 129.171 198.658C129.171 196.541 130.397 195.316 132.569 195.316C134.741 195.316 136.134 193.942 136.487 191.324C136.932 188.781 138.529 187.184 141.054 186.831C143.597 186.46 145.045 185.012 145.045 182.839C145.045 180.37 146.29 179.423 149.464 179.423C152.732 179.423 153.901 178.495 153.901 175.877C153.901 173.259 155.053 172.331 158.32 172.331C161.588 172.331 162.739 171.384 162.739 168.766C162.739 166.241 163.908 165.22 166.953 165.22C169.701 165.22 171.521 163.976 172.096 161.73C172.616 159.632 174.491 158.184 176.663 158.184C178.706 158.184 181.101 156.661 182.103 154.767C183.273 152.669 185.148 151.723 187.264 152.317C189.585 152.892 190.885 152.02 191.535 149.402C192.333 146.357 193.428 145.856 197.123 146.803C200.966 147.731 201.69 147.378 201.69 144.036C201.69 140.713 202.414 140.193 206.332 140.917C209.878 141.641 211.122 141.066 211.846 138.392C212.496 135.775 213.721 135.199 216.84 135.923C219.829 136.721 221.481 135.997 222.874 133.379C224.396 130.557 225.473 130.186 228.165 131.634C230.839 133.083 231.711 132.73 232.658 129.685C233.531 126.844 234.831 126.269 238.024 127.067C241.069 127.865 242.74 127.215 244.114 124.523C245.636 121.701 246.732 121.349 249.405 122.797C252.097 124.245 253.174 123.874 254.696 121.052C256.219 118.23 257.388 117.784 259.932 119.158C262.457 120.55 263.775 120.105 265.873 116.986C268.045 113.792 268.992 113.514 270.811 115.24C273.856 118.229 275.954 118.081 275.954 114.962C275.954 111.119 279.296 109.801 282.415 112.344C284.662 114.312 285.46 114.163 286.908 111.471C288.208 109.225 289.879 108.65 293.146 109.448C296.265 110.246 298.215 109.671 299.812 107.48C301.78 104.806 302.504 104.658 305.029 106.756C307.498 108.798 308.222 108.65 310.338 105.828C311.712 103.934 313.235 102.838 313.736 103.358C314.237 103.859 313.161 106.18 311.415 108.575C308.519 112.344 307.795 112.567 305.177 110.395C302.578 108.222 301.91 108.352 300.387 111.119C299.162 113.291 297.342 113.941 294.446 113.217C291.55 112.493 289.73 113.068 288.505 115.24C287.057 117.932 286.258 118.007 283.065 116.113C280.02 114.238 279.222 114.312 278.349 116.707C277.551 118.805 275.806 119.306 272.185 118.582C268.268 117.784 267.098 118.23 267.098 120.402C267.098 122.574 265.947 123.001 261.807 122.147C257.89 121.404 256.516 121.776 256.516 123.595C256.516 127.29 253.545 128.515 249.628 126.417C246.88 124.969 246.081 125.322 245.357 128.237C244.615 130.984 243.464 131.56 240.048 130.687C236.929 129.908 235.406 130.409 234.608 132.581C233.81 134.679 232.213 135.273 229.242 134.475C225.993 133.677 224.824 134.252 224.099 137C223.375 139.84 222.206 140.416 218.882 139.543C215.392 138.671 214.315 139.246 213.517 142.291C212.793 145.132 211.623 145.856 208.949 144.983C206.406 144.185 204.809 144.909 203.435 147.527C202.117 150.052 200.391 150.924 198.2 150.275C195.954 149.551 194.728 150.349 194.004 153.041C193.206 156.086 192.185 156.587 188.49 155.714C184.795 154.768 183.997 155.213 183.997 158.109C183.997 160.727 182.827 161.73 179.783 161.73C176.96 161.73 175.215 162.974 174.565 165.499C173.841 168.265 172.616 168.989 169.85 168.265C166.953 167.541 165.654 168.339 164.41 171.737C163.259 174.726 161.81 175.877 159.991 175.227C158.246 174.503 156.724 175.654 155.628 178.495C154.626 181.168 153.029 182.487 151.506 181.893C149.91 181.317 148.61 182.542 147.886 185.532C147.143 188.428 145.565 190.024 143.244 190.024C140.979 190.024 139.754 191.175 139.754 193.422C139.754 195.613 138.306 197.061 135.762 197.414C133.015 197.785 131.919 199.01 132.365 201.182C132.717 203.299 131.566 204.821 129.246 205.397C127.055 205.973 125.607 207.792 125.607 209.816C125.607 211.858 124.084 213.733 122.061 214.234C120.037 214.829 118.496 216.704 118.496 218.672C118.496 220.621 117.048 222.589 115.247 223.016C112.926 223.666 112.202 225.114 112.778 227.955C113.279 230.851 112.555 232.225 110.012 232.875C107.412 233.599 106.762 234.917 107.338 238.185C108.062 241.657 107.338 242.826 104.219 243.625C100.877 244.479 100.599 245.147 102.399 247.319C104.219 249.491 103.922 250.512 101.025 253.037C98.5562 255.228 97.9804 256.806 99.1501 258.273C101.025 260.594 99.5774 266.089 97.0338 266.089C96.1612 266.089 95.9568 268.132 96.6066 270.601C97.405 273.85 96.8293 275.818 94.4343 277.638C92.6149 279.011 92.0396 280.163 93.1164 280.163C96.7554 280.311 97.6834 286.178 94.4343 288.573C91.5195 290.689 91.5198 290.968 94.5646 294.31C97.1824 297.206 97.3308 298.376 95.5856 300.474C93.8404 302.646 93.989 303.741 96.3097 306.062C98.5562 308.308 98.7047 309.46 97.1081 311.428C95.5114 313.377 95.6599 314.621 97.8322 317.09C99.5031 318.817 100.301 321.787 99.7257 323.83C99.0759 326.299 99.8001 327.896 101.75 328.694C103.848 329.492 104.441 331.015 103.717 334.06C102.919 336.956 103.495 338.627 105.444 339.351C107.412 340.075 108.062 341.876 107.486 344.865C106.836 348.263 107.338 349.209 109.955 349.209C112.202 349.209 113.205 350.509 113.205 353.275C113.205 355.448 114.801 358.195 116.695 359.439C118.644 360.59 119.74 362.707 119.238 364.081C118.644 365.603 119.74 367.051 121.912 367.775C123.936 368.425 125.607 370.393 125.607 372.12C125.607 373.939 127.278 375.833 129.376 376.334C132.142 377.058 132.866 378.284 132.216 380.976C131.418 383.946 132.068 384.596 135.484 384.596C138.603 384.596 139.754 385.617 139.754 388.161C139.754 390.556 140.924 391.707 143.3 391.707C145.621 391.707 146.865 392.877 146.865 395.123C146.865 397.295 148.239 398.744 150.782 399.115C153.307 399.468 154.978 401.064 155.349 403.459C155.777 406.281 156.798 407.006 159.415 406.282C162.015 405.632 163.259 406.43 163.983 409.178C164.558 411.443 166.378 412.965 168.401 412.965C170.425 412.965 172.319 414.413 172.82 416.437C173.47 418.758 175.289 420.002 177.981 420.002C181.026 420.002 182.177 421.004 182.177 423.622C182.177 426.518 182.976 426.964 186.745 426.017C190.384 425.07 191.46 425.572 192.259 428.691C192.983 431.383 194.227 432.181 196.473 431.457C198.571 430.807 200.316 431.661 201.542 433.926C202.786 436.247 204.587 437.101 207.056 436.451C209.748 435.727 210.973 436.451 211.697 439.217C212.496 442.188 213.591 442.764 216.989 441.891C220.405 441.019 221.556 441.612 222.28 444.583C223.078 447.479 224.248 448.055 227.515 447.257C230.412 446.458 232.083 447.052 232.807 449.002C233.531 450.951 235.202 451.545 237.95 450.821C240.995 450.023 242.294 450.673 243.093 453.216C243.891 455.741 245.358 456.465 248.532 455.816C251.522 455.24 253.248 455.964 254.047 457.858C254.771 459.807 256.367 460.383 259.338 459.584C262.253 458.86 263.923 459.454 264.647 461.404C265.371 463.353 267.024 463.873 269.939 463.149C272.909 462.425 274.506 462.926 275.23 464.95C276.029 466.918 277.625 467.419 280.596 466.695C283.492 465.971 285.089 466.472 285.813 468.44C286.611 470.316 288.357 470.91 291.828 470.186C295.393 469.462 296.989 470.037 297.862 472.209C298.79 474.827 299.459 474.901 301.836 472.933C304.231 470.91 305.029 471.058 306.922 473.658C308.519 475.83 310.543 476.48 313.588 475.7C316.707 474.901 318.303 475.403 319.028 477.427C319.974 479.822 320.698 479.896 323.817 478.021C326.937 476.053 327.883 476.201 329.981 479.097C332.079 481.994 332.878 482.142 335.347 480.044C337.891 478.02 338.615 478.076 340.564 480.842C342.458 483.386 343.609 483.59 346.598 481.994C349.643 480.397 350.515 480.546 351.444 482.866C352.168 484.909 353.765 485.41 356.884 484.611C359.279 484.036 362.323 484.463 363.716 485.632C365.591 487.155 366.816 487.155 368.636 485.632C370.604 484.036 371.755 484.24 374.001 486.505C376.322 488.826 377.418 488.956 379.515 487.155C381.688 485.41 382.783 485.558 385.252 487.731C387.573 489.903 389.096 490.125 391.695 488.677C394.387 487.155 395.538 487.434 397.357 489.903C399.307 492.521 400.18 492.669 402.426 490.85C405.267 488.455 410.409 490.998 410.409 494.767C410.409 495.714 409.184 495.491 407.736 494.266C405.619 492.521 404.468 492.52 402.946 494.043C400.254 496.716 398.954 496.642 396.262 493.468H396.336ZM551.975 494.544C551.975 490.998 557.489 488.306 560.757 490.348C563.152 491.871 564.526 491.648 566.698 489.476C569.019 487.155 569.965 487.081 572.286 488.956C574.607 490.849 575.628 490.775 578.227 488.38C580.622 486.208 581.922 485.985 583.445 487.508C584.967 489.03 586.137 489.03 588.16 487.304C589.757 485.985 592.727 485.558 595.271 486.208C598.112 486.932 599.764 486.561 599.764 485.261C599.764 483.962 601.657 483.664 604.999 484.314C607.896 484.908 610.718 484.537 611.368 483.516C612.036 482.513 614.357 482.068 616.529 482.662C618.998 483.312 621.449 482.662 622.767 481.065C624.215 479.246 625.812 478.949 627.836 480.044C629.804 481.195 631.679 480.842 633.777 478.874C636.246 476.628 637.341 476.554 639.514 478.373C641.686 480.193 642.41 480.044 643.357 477.575C644.155 475.403 645.678 474.901 648.871 475.7C651.916 476.48 653.865 475.83 655.462 473.658C657.504 470.984 658.154 470.91 660.772 473.082C663.445 475.254 664.021 475.18 665.543 472.432C666.787 470.26 668.588 469.592 671.428 470.26C674.176 470.984 675.773 470.39 676.571 468.44C677.296 466.472 678.892 465.971 681.863 466.695C684.759 467.419 686.43 466.918 687.154 464.95C687.953 462.926 689.549 462.425 692.668 463.224C695.862 464.022 697.458 463.502 698.256 461.478C698.981 459.584 700.577 459.009 703.399 459.659C706.166 460.383 708.041 459.733 709.136 457.783C710.232 455.815 712.107 455.24 714.724 455.89C717.695 456.688 718.921 456.038 719.57 453.346C720.313 450.673 721.538 450.097 724.657 450.896C727.405 451.545 729.224 450.896 730.394 448.928C731.397 447.108 733.365 446.384 735.611 446.978C738.21 447.628 739.454 446.904 740.104 444.36C740.828 441.613 742.054 441.019 745.396 441.891C748.812 442.764 749.963 442.188 750.687 439.217C751.411 436.451 752.655 435.727 755.329 436.451C757.872 437.101 759.617 436.247 760.917 433.852C762.086 431.606 764.036 430.584 766.06 431.16C768.176 431.661 769.55 430.863 770.126 428.616C770.701 426.518 772.595 425.293 775.417 425.293C778.387 425.293 780.133 424.123 780.783 421.58C781.507 418.832 782.602 418.182 785.35 419.129C788.265 420.002 789.063 419.482 789.063 416.586C789.063 413.893 790.214 412.965 793.481 412.965C796.749 412.965 797.9 412.018 797.9 409.401C797.9 406.077 799.571 405.13 804.435 405.706C805.512 405.854 806.756 404.109 807.035 401.937C807.406 399.319 809.002 397.722 811.62 397.37C814.145 396.998 815.594 395.55 815.594 393.378C815.594 390.11 817.339 389.164 822.203 389.832C823.503 389.962 824.45 388.161 824.45 385.395C824.45 382.276 825.545 380.475 827.866 379.88C829.741 379.379 831.561 377.281 831.839 375.165C832.21 372.788 833.881 371.192 836.406 370.746C839.6 370.319 840.249 369.446 839.395 366.68C838.522 364.081 839.247 362.911 841.92 362.187C844.464 361.537 845.633 359.792 845.633 356.822C845.633 354 846.859 352.106 848.957 351.604C851.352 350.955 852.002 349.636 851.352 347.037C850.776 344.791 851.575 342.544 853.524 341.152C855.566 339.629 856.216 337.68 855.492 335.359C854.694 332.816 855.417 331.219 857.961 329.845C860.857 328.248 861.21 327.172 859.836 324.628C858.611 322.159 858.815 320.711 860.709 319.188C862.38 317.814 862.881 315.419 862.231 312.653C861.433 309.683 862.083 307.659 864.255 306.062C866.446 304.465 866.799 303.37 865.351 302.497C862.454 300.696 862.881 294.811 866.075 293.01C868.618 291.618 868.618 291.265 866.075 289.167C862.956 286.549 862.454 281.035 865.202 279.29C866.372 278.566 865.926 277.266 863.902 275.744C861.136 273.72 861.006 272.847 862.956 269.728C864.849 266.609 864.775 265.811 862.306 264.938C860.282 264.14 859.762 262.395 860.412 259.127C861.081 255.729 860.412 253.836 857.887 252.239C855.12 250.587 854.768 249.343 856.216 246.725C857.664 243.977 857.293 243.105 854.322 242.158C851.575 241.304 850.85 239.911 851.426 236.867C851.927 233.97 851.203 232.522 848.883 231.872C846.785 231.352 845.633 229.403 845.633 226.432C845.633 223.517 844.686 221.865 843.016 221.865C841.345 221.865 840.324 220.194 840.324 217.651C840.324 214.903 839.098 213.083 836.777 212.508C834.679 211.914 833.287 210.113 833.287 207.866C833.287 205.323 832.136 204.172 829.741 204.172C827.123 204.172 826.195 203.002 826.195 199.883C826.195 196.764 825.099 195.39 822.203 195.019C820.031 194.666 818.211 193.292 818.211 191.77C818.211 190.303 816.689 188.706 814.795 188.205C812.846 187.704 810.878 185.661 810.377 183.786C809.801 181.744 807.833 180.296 805.884 180.296C803.563 180.296 802.115 178.922 801.744 176.378C801.316 173.482 800.147 172.535 797.325 172.832C794.577 173.129 793.333 172.108 792.906 169.212C792.46 165.944 791.514 165.443 788.042 166.297C784.496 167.244 783.771 166.743 783.771 163.698C783.771 160.727 782.676 159.929 778.462 159.929C774.266 159.929 773.096 159.131 773.096 156.364C773.096 153.468 772.298 153.041 768.9 153.895C765.558 154.693 764.333 154.118 763.46 151.147C762.513 148.399 761.288 147.731 758.744 148.529C756.127 149.328 754.976 148.678 754.251 146.004C753.453 143.089 752.358 142.514 748.96 143.387C745.544 144.259 744.375 143.684 743.651 140.713C742.852 137.798 741.701 137.223 738.433 138.021C735.463 138.745 733.866 138.244 733.068 136.127C732.269 133.955 730.747 133.454 727.628 134.252C724.286 135.05 723.061 134.549 722.337 131.783C721.612 128.961 720.443 128.441 716.321 129.314C712.404 130.038 711.234 129.685 711.234 127.513C711.234 125.266 710.009 124.895 705.869 125.693C701.673 126.566 700.577 126.12 700.577 123.725C700.577 121.349 699.556 120.977 695.509 121.85C691.795 122.648 690.143 122.203 689.345 120.179C688.621 118.23 686.95 117.71 684.035 118.434C681.139 119.158 679.468 118.657 678.744 116.707C678.02 114.665 676.349 114.164 673.378 114.962C670.333 115.686 668.588 115.111 667.288 112.864C665.766 110.098 665.191 110.023 662.498 112.196C659.899 114.386 659.231 114.312 657.207 111.546C655.685 109.448 653.661 108.798 650.821 109.522C647.776 110.246 646.049 109.522 644.378 106.904C642.985 104.658 642.856 103.358 644.007 103.358C645.028 103.358 646.327 104.509 646.847 105.902C647.627 108 648.5 108.074 651.34 106.329C654.236 104.584 655.258 104.732 657.207 107.424C659.231 110.172 660.103 110.32 663.371 108.278C666.639 106.329 667.437 106.403 668.959 109.076C670.185 111.267 672.004 111.917 675.049 111.119C678.094 110.32 679.691 110.896 680.415 112.864C681.213 114.814 682.81 115.389 685.706 114.591C688.677 113.867 690.273 114.442 691.072 116.41C691.796 118.36 693.392 118.879 696.363 118.155C699.352 117.431 700.874 118.007 701.673 120.031C702.545 122.203 704.123 122.723 707.911 121.85C711.958 120.977 712.979 121.349 712.979 123.725C712.979 125.99 714.001 126.491 717.324 125.619C720.517 124.821 722.188 125.396 723.488 127.94C724.732 130.186 726.533 130.984 729.002 130.335C731.248 129.759 733.439 130.557 734.961 132.581C736.335 134.475 738.433 135.329 740.104 134.605C741.998 133.955 743.725 134.828 744.894 137.074C746.268 139.618 747.865 140.342 750.408 139.543C753.007 138.671 754.177 139.321 754.901 142.236C755.7 145.28 756.851 145.856 760.267 144.983C763.664 144.111 764.834 144.686 765.558 147.601C766.208 150.052 767.73 151.073 770.2 150.72C772.446 150.423 774.618 151.574 775.714 153.765C776.939 156.011 778.982 157.088 781.507 156.735C784.551 156.29 785.498 157.014 785.498 159.855C785.498 162.602 786.668 163.475 790.14 163.475C793.185 163.475 795.004 164.645 795.654 167.04C796.155 169.063 797.826 170.437 799.423 170.14C801.019 169.862 803.062 171.458 804.064 173.556C805.011 175.729 807.406 177.696 809.356 177.975C811.546 178.346 812.846 179.72 812.697 181.614C812.549 183.786 813.718 184.733 816.689 184.733C820.031 184.733 820.903 185.661 820.903 189.078C820.903 192.624 821.683 193.422 824.877 193.069C827.996 192.772 828.794 193.496 828.441 196.541C828.218 199.307 829.165 200.533 831.987 200.978C834.457 201.331 836.128 202.928 836.481 205.323C836.778 207.421 838.671 209.537 840.695 210.113C843.443 210.837 844.111 211.988 843.369 214.903C842.644 217.725 843.239 218.95 845.764 219.619C847.954 220.194 849.179 222.069 849.179 224.613C849.179 227.156 850.554 229.106 852.8 229.83C855.492 230.702 856.142 231.947 855.343 234.546C854.545 237.015 855.343 238.909 857.887 240.71C860.635 242.603 861.21 244.126 860.059 246.15C858.889 248.266 859.484 249.844 862.157 252.035C865.128 254.43 865.499 255.581 863.828 257.605C862.157 259.573 862.454 260.724 865.351 263.193C868.247 265.662 868.544 266.832 866.799 268.856C865.054 270.954 865.202 272.123 867.374 274.518C869.417 276.691 869.695 278.491 868.47 280.608C867.374 282.706 867.523 284.804 868.971 287.125C870.716 289.965 870.642 291.562 868.766 295.108C866.724 298.877 866.724 300.047 868.766 302.497C870.79 304.892 870.716 305.617 868.173 307.009C866.075 308.16 865.499 310.128 866.223 313.674C866.947 317.294 866.446 318.965 864.33 319.764C861.934 320.711 861.805 321.583 863.531 324.777C865.202 327.951 865.053 329.047 862.231 331.07C860.282 332.537 859.186 335.136 859.484 337.606C859.762 340.149 858.889 342.173 857.089 342.823C855.121 343.621 854.471 345.218 855.047 347.613C855.771 350.156 854.842 351.753 852.002 353.053C849.031 354.427 848.233 355.949 848.808 359.142C849.477 362.559 848.883 363.431 845.838 363.431C843.016 363.431 842.143 364.508 842.143 367.998C842.143 371.117 840.992 372.844 838.597 373.512C836.35 374.088 835.032 375.907 835.032 378.507C835.032 381.403 833.881 382.795 831.041 383.148C828.516 383.594 827.123 384.968 827.123 387.288C827.123 389.609 825.749 390.983 823.224 391.354C820.829 391.707 819.158 393.378 818.787 395.773C818.434 398.242 816.838 399.895 814.294 400.266C811.751 400.637 810.302 402.011 810.302 404.183C810.302 406.653 809.077 407.655 805.884 407.655C802.616 407.655 801.465 408.602 801.465 411.146C801.465 413.763 800.295 414.692 797.176 414.692C794.057 414.692 792.683 415.787 792.312 418.684C791.811 421.877 790.734 422.527 786.872 422.174C782.973 421.728 782.026 422.378 782.026 425.293C782.026 427.892 780.857 428.839 777.589 428.839C774.841 428.839 773.17 429.86 773.17 431.531C773.17 433.258 771.369 434.131 767.879 434.131C763.665 434.131 762.513 434.929 762.513 437.769C762.513 440.666 761.715 441.093 758.299 440.22C754.976 439.422 753.732 440.016 752.859 442.838C751.931 445.734 750.761 446.31 747.363 445.456C744.096 444.657 743.075 445.084 743.075 447.479C743.075 449.874 742.054 450.301 737.932 449.503C733.792 448.63 732.641 449.15 731.916 452.195C731.118 455.091 730.023 455.593 726.533 454.739C723.135 453.866 721.835 454.442 721.037 457.06C720.09 459.882 719.143 460.234 715.727 458.935C712.33 457.709 711.457 457.988 710.659 460.903C709.935 463.576 708.765 464.152 705.441 463.298C702.322 462.499 700.8 463.075 699.927 465.173C699.129 467.345 697.607 467.865 694.488 467.066C691.443 466.342 689.697 466.918 688.398 469.09C686.95 471.708 686.077 471.838 683.106 470.037C680.117 468.218 679.393 468.366 678.465 471.337C677.221 475.254 674.028 475.904 671.057 472.859C669.609 471.485 668.514 471.912 667.066 474.679C665.469 477.723 664.467 478.076 661.552 476.554C658.878 475.106 657.857 475.329 656.984 477.501C656.26 479.543 654.589 480.044 651.043 479.246C647.571 478.522 645.9 479.023 645.176 481.065C644.229 483.386 643.357 483.442 640.164 481.79C636.97 480.119 635.968 480.267 634.074 482.718C632.329 485.113 631.178 485.336 628.337 483.813C625.441 482.291 624.364 482.513 622.972 485.038C621.449 487.656 620.651 487.805 617.532 485.837C614.413 483.962 613.688 484.036 612.76 486.431C612.036 488.38 610.365 488.956 607.525 488.232C605.204 487.656 601.732 488.157 599.838 489.401C597.09 491.072 595.846 491.072 594.194 489.476C592.597 487.805 591.576 488.028 589.831 490.404C588.03 492.873 586.935 493.022 584.187 491.351C581.495 489.68 580.27 489.828 578.005 492.075C575.628 494.396 574.681 494.47 572.36 492.595C570.04 490.627 569.167 490.775 567.199 493.523C565.101 496.364 564.377 496.512 561.834 494.396C559.662 492.595 558.436 492.52 556.913 494.043C554.444 496.438 551.975 496.717 551.975 494.544ZM199.37 493.022C198.942 492.298 197.996 488.232 197.271 484.036C195.953 476.052 199.295 469.517 204.587 469.517C208.077 469.517 207.557 471.912 203.51 474.382C200.595 476.275 200.242 477.872 201.115 485.41C202.117 493.523 201.393 496.438 199.37 493.022ZM748.812 490.553C743.075 486.932 739.882 480.341 742.128 476.702C744.319 473.156 746.565 474.901 746.565 480.193C746.565 484.537 747.716 486.06 752.803 488.455C758.967 491.425 760.991 494.322 756.777 494.266C755.551 494.266 751.931 492.595 748.812 490.553ZM188.638 486.208C186.243 480.118 187.543 470.111 191.108 466.918C195.675 462.703 197.921 464.876 193.781 469.517C191.238 472.284 190.811 474.753 191.683 480.991C192.76 488.752 190.811 491.945 188.638 486.208ZM758.819 484.983C752.581 480.768 750.111 474.159 753.527 470.761C754.901 469.387 755.477 470.186 755.477 473.583C755.477 477.222 757.148 479.394 762.513 482.792C766.431 485.261 769.624 487.656 769.624 488.157C769.624 490.274 764.333 488.677 758.819 484.983ZM771.369 481.344C764.76 477.946 763.312 476.275 762.885 471.634C762.513 468.515 763.089 466.045 764.184 466.045C765.205 466.045 766.06 467.995 766.06 470.39C766.06 473.732 767.731 475.626 773.096 478.373C777.014 480.397 780.207 482.792 780.207 483.739C780.207 485.911 780.652 486.06 771.369 481.344ZM178.056 479.747C175.661 470.761 176.812 464.374 181.379 461.404C187.19 457.561 189.659 459.956 184.145 464.096C180.432 466.918 180.08 468.143 181.231 475.477C182.475 483.887 180.005 487.155 178.056 479.747ZM169.422 477.352C168.698 476.628 168.03 472.209 168.03 467.568C168.03 460.903 168.903 458.582 171.874 456.465C176.961 452.919 180.302 455.091 175.512 458.712C172.82 460.828 171.669 463.948 171.224 470.186C171.019 474.902 170.147 478.076 169.422 477.352ZM781.079 475.477C774.693 472.135 771.369 468.218 771.369 463.873C771.369 459.157 774.34 460.03 775.64 465.099C776.289 467.865 779.334 470.835 783.771 473.082C787.67 475.106 790.79 477.074 790.79 477.575C790.79 479.172 786.371 478.225 781.079 475.477ZM158.543 470.26C155.201 461.701 159.917 448.352 166.303 448.352C169.125 448.352 168.327 450.821 164.41 454.219C161.365 456.763 160.938 458.582 161.866 464.152C163.036 470.984 160.566 475.551 158.543 470.26ZM789.935 469.016C784.774 466.12 782.676 463.725 782.305 460.234C781.655 454.442 784.997 453.643 785.869 459.38C786.222 462.054 788.766 464.449 793.909 466.77C801.168 470.037 803.785 473.156 799.218 473.082C797.974 473.008 793.834 471.263 789.935 469.016ZM148.61 457.412C148.61 448.928 152.082 442.986 157.169 442.986C160.344 442.986 159.62 445.456 155.702 447.906C153.029 449.577 152.156 452.047 152.156 458.062C152.156 462.425 151.358 466.045 150.411 466.045C149.409 466.045 148.61 462.128 148.61 457.412ZM800.073 463.353C793.556 460.531 789.063 452.919 792.108 449.874C793.481 448.5 794.354 449.503 795.152 453.216C796.099 457.338 797.696 458.86 803.266 460.531C807.109 461.701 810.302 463.353 810.302 464.3C810.302 466.621 806.905 466.342 800.073 463.353ZM139.754 450.172C139.754 442.689 140.478 440.888 144.247 438.419C149.761 434.78 152.528 436.748 147.144 440.517C144.173 442.615 143.3 445.01 143.3 451.1C143.3 455.389 142.502 458.935 141.573 458.935C140.552 458.935 139.754 454.943 139.754 450.172ZM808.501 455.816C804.064 453.569 802.189 451.397 801.744 447.851C801.094 442.114 804.51 441.241 805.308 446.978C805.735 449.875 807.907 451.694 813.347 453.569C817.487 455.017 820.903 456.762 820.903 457.561C820.903 459.881 815.018 459.083 808.501 455.816ZM130.898 444.063C130.898 436.024 131.641 433.926 134.816 431.606C139.68 428.189 141.573 428.115 141.573 431.308C141.573 432.682 139.977 434.13 138.009 434.706C135.113 435.449 134.463 437.101 134.463 443.636C134.463 448.055 133.665 452.121 132.718 452.771C131.567 453.421 130.898 450.171 130.898 444.063ZM820.309 450.097C817.636 449.225 814.22 447.628 812.846 446.458C809.95 444.063 809.355 435.95 812.048 435.95C813.069 435.95 813.867 437.398 813.867 439.292C813.867 443.488 816.764 445.809 824.004 447.331C830.242 448.705 833.658 451.972 828.515 451.694C826.77 451.62 823.076 450.896 820.309 450.097ZM121.559 445.381C121.039 444.583 121.04 440.09 121.615 435.374C122.562 426.518 128.373 420.002 132.866 422.749C134.24 423.622 133.442 424.847 130.248 426.518C126.554 428.486 125.607 430.213 125.607 435.504C125.533 442.337 123.212 448.055 121.559 445.381ZM828.868 442.912C822.927 441.093 819.158 436.897 819.158 432.032C819.158 427.317 822.129 428.189 823.354 433.258C824.227 436.674 826.269 438.122 832.433 439.645C836.777 440.74 840.324 442.337 840.324 443.209C840.324 445.159 835.905 445.01 828.868 442.912ZM112.703 436.6C111.478 434.576 114.151 420.132 116.119 418.331C116.973 417.532 119.443 416.363 121.615 415.713C127.129 414.042 126.776 417.885 121.188 420.002C117.716 421.376 116.769 422.972 116.769 427.539C116.769 433.703 114.3 439.143 112.778 436.6H112.703ZM835.905 434.706C831.635 433.703 827.996 429.285 827.996 424.996C827.996 420.354 830.966 421.078 832.21 426.017C833.083 429.415 834.828 430.436 841.196 431.457C845.634 432.107 849.179 433.406 849.179 434.279C849.179 435.95 842.292 436.247 835.905 434.706ZM51.2687 348.783C51.2687 347.539 53.3106 343.547 55.7799 339.926C59.2517 334.858 61.4985 333.336 65.4159 333.336C68.2379 333.336 71.0785 334.134 71.654 335.062C72.3038 336.083 70.5588 336.882 67.5882 336.882C63.5408 336.882 61.35 338.404 57.5069 343.918C52.2156 351.53 51.3429 352.254 51.3429 348.783H51.2687ZM889.431 345.589C886.237 343.695 885.142 338.627 888.057 338.627C888.985 338.627 890.526 340.001 891.454 341.672C892.903 344.271 894.295 344.494 902.13 342.823C909.018 341.449 911.116 341.523 911.116 343.12C911.116 347.037 895.019 348.782 889.431 345.589ZM302.355 339.128C298.586 338.553 297.936 337.68 298.586 334.189C299.811 327.599 302.206 326.8 318.025 327.599C332.599 328.397 332.599 328.397 332.599 334.412C332.599 340.354 332.599 340.353 319.752 340.149C312.715 340.001 304.899 339.555 302.355 339.128ZM824.746 337.234C821.405 334.988 819.882 334.858 817.19 336.51C812.4 339.555 811.825 339.202 813.143 333.985C814.071 330.272 813.422 328.62 810.08 326.076C805.884 322.809 805.884 322.809 811.249 322.734C815.519 322.734 817.042 321.658 818.508 317.814C820.384 312.95 820.383 312.95 822.351 317.814C823.948 321.732 825.545 322.734 830.186 322.734C835.979 322.809 835.979 322.809 831.115 326.373C826.993 329.492 826.622 330.569 828.07 334.561C830.317 340.298 829.815 340.65 824.746 337.234ZM47.7967 336.733C47.7967 335.712 49.8204 332.092 52.4382 328.75C57.0797 322.66 65.5642 320.339 68.1078 324.48C68.7576 325.501 66.9383 326.225 63.8192 326.225C59.6233 326.225 57.5811 327.599 54.3878 332.389C50.4147 338.552 47.7967 340.298 47.7967 336.733ZM131.641 334.134C132.569 329.697 132.068 328.397 127.853 325.853C122.933 322.809 122.933 322.809 129.599 322.734C134.964 322.734 136.208 322.084 136.208 319.262C136.208 313.971 139.531 313.173 140.775 318.241C141.703 321.787 143.022 322.734 147.515 322.734C153.029 322.809 153.029 322.808 148.963 326.225C145.77 328.824 145.194 330.569 146.215 334.487C147.44 339.351 147.366 339.425 143.17 336.584C139.253 334.059 138.454 334.059 134.685 336.584C130.545 339.276 130.471 339.277 131.641 334.134ZM479.883 331.07C478.008 327.951 474.369 321.657 471.844 317.146C469.226 312.653 465.959 308.531 464.436 307.937C462.264 307.064 462.116 306.062 463.787 302.497C467.128 295.256 457.92 272.123 449.788 267.333C443.772 263.769 443.698 263.564 444.719 254.708C445.295 249.788 446.594 234.62 447.69 220.992C448.785 207.346 450.011 195.891 450.438 195.464C450.883 194.944 453.427 196.987 455.952 199.809C458.57 202.705 471.473 216.63 484.673 230.777C517.238 265.662 567.571 320.135 575.758 329.344L582.516 336.882H532.908C483.299 336.882 483.3 336.882 479.883 331.07ZM523.328 323.18C518.686 322.808 510.777 322.808 505.634 323.18C500.492 323.533 504.261 323.83 513.971 323.83C523.699 323.83 527.895 323.533 523.328 323.18ZM545.384 312.579C543.137 312.226 539.573 312.226 537.401 312.579C535.228 313.024 536.974 313.377 541.392 313.377C545.737 313.377 547.556 313.024 545.384 312.579ZM489.686 301.996C487.941 301.569 484.747 301.569 482.575 301.996C480.403 302.423 481.777 302.794 485.62 302.794C489.538 302.794 491.357 302.423 489.612 301.996H489.686ZM466.609 243.625C464.956 243.179 461.763 243.179 459.59 243.625C457.325 244.052 458.792 244.404 462.635 244.404C466.553 244.404 468.354 244.052 466.609 243.625Z" fill="#8550DC"/>
</svg>
