<svg width="959" height="968" viewBox="0 0 959 968" fill="none" xmlns="http://www.w3.org/2000/svg">
<path fill-rule="evenodd" clip-rule="evenodd" d="M648.276 966.816C636.076 966.253 632.91 965.524 632.91 963.089C632.91 960.882 631.682 960.486 628.664 961.381C626.061 962.277 623.791 961.777 622.813 960.236C620.46 956.322 613.049 956.572 610.863 960.632C608.739 964.546 603.138 965.691 603.138 962.193C603.138 959.736 594.831 961.777 592.978 964.713C592.312 965.774 585.816 966.337 578.57 966.004C567.681 965.525 565.391 964.796 565.391 962.027C565.391 957.634 561.665 955.365 558.979 958.03C557.438 959.591 557.584 961.049 559.374 963.235C561.664 966.004 547.84 966.337 418.359 966.253L274.722 966.17L263.353 954.865C257.087 948.681 251.965 942.414 251.965 941.04C251.965 939.666 250.82 938.521 249.446 938.521C248.051 938.521 236.662 928.194 224.149 915.661C207.472 898.921 202.018 892.321 203.975 891.113C206.098 889.802 205.932 889.24 203.329 888.178C201.539 887.532 200.727 885.971 201.539 884.68C202.517 883.056 201.538 882.723 198.207 883.618C194.043 884.68 189.088 880.537 160.148 851.659C141.93 833.442 126.961 817.348 126.961 815.87C126.961 814.496 126.232 813.767 125.337 814.329C124.442 814.829 109.555 801.15 92.3162 783.828C67.5819 759.031 61.1693 751.535 61.9813 748.371C63.1056 744.061 58.4002 740.647 56.8595 744.707C56.3598 746.018 43.4305 734.63 28.1486 719.41L0.249704 691.761L0.166469 621.826C0.083189 583.35 0.728811 551.391 1.5408 550.913C2.43606 550.33 2.43597 543.417 1.70726 535.381C0.89528 527.407 0.166469 466.404 0.166469 399.883L0 278.856L39.2042 239.173C167.872 109.047 187.714 89.3721 190.879 89.3721C192.836 89.3721 194.46 90.4965 194.543 91.8914C194.626 93.1823 195.605 92.1412 196.813 89.3721C198.041 86.6863 198.77 83.1885 198.52 81.6478C198.291 80.0863 215.759 61.1403 237.328 39.5082L276.679 0.157837H426.084C572.47 0.0745564 575.572 0.158208 574.344 3.88501C573.698 6.00866 574.093 8.27807 575.238 9.00677C576.383 9.67302 576.78 12.3585 576.134 14.7944C575.405 17.9591 576.051 19.7498 578.175 20.5618C580.444 21.457 581.255 20.5618 581.255 17.1473C581.255 14.5448 582.651 11.297 584.358 9.90204C586.128 8.44463 587.106 5.6756 586.544 3.71851C585.649 0.387286 587.357 0.074585 610.051 0.074585C627.769 0.074585 634.763 0.803342 635.513 2.59387C636.325 4.55096 636.554 4.55096 636.638 2.59387C636.804 -0.175204 679.755 -1.07038 683.565 1.61542C684.71 2.4274 689.417 7.29958 694.143 12.4213C702.284 21.374 702.513 21.9356 699.515 26.2662C695.038 32.5956 695.371 39.7579 700.076 39.7579C702.596 39.7579 704.635 37.5511 706.176 33.3246C708.383 26.912 708.383 26.9121 833.304 152.062L958.287 277.232L958.142 444.043C958.059 572.857 957.475 611.083 955.622 611.832C953.832 612.644 953.831 612.874 955.684 612.957C957.558 613.123 958.225 620.514 958.225 642.896C958.225 671.107 957.976 672.898 953.749 677.124C949.273 681.601 949.273 681.601 953.749 682.246C960.016 683.141 959.516 690.47 952.771 696.966C945.775 703.649 939.591 702.983 938.696 695.592C938.3 692.177 936.592 689.658 934.219 689.075C930.076 688.034 929.264 685.515 932.428 683.558C933.573 682.912 934.385 672.002 934.385 657.699C934.385 637.025 934.864 632.965 937.405 632.965C939.029 632.965 940.32 633.86 940.32 635.005C940.32 638.669 947.96 636.962 949.272 632.965C950.979 627.51 948.711 624.179 945.13 627.198C942.923 628.988 942.277 628.905 942.277 626.781C942.193 624.908 941.548 625.158 940.153 627.51C937.072 632.799 934.385 631.674 934.385 625.074C934.385 621.098 935.364 619.057 937.405 619.057C939.029 619.057 940.32 618.162 940.32 617.1C940.32 616.059 939.029 615.163 937.405 615.163C935.697 615.163 934.385 613.373 934.385 611.166C934.385 606.857 938.217 605.878 941.715 609.293C943.172 610.854 943.505 609.959 942.756 606.128C942.194 603.13 940.153 600.277 938.05 599.778C933.657 598.57 933.157 592.22 937.405 590.596C939.029 589.95 940.32 588.16 940.32 586.619C940.32 585.058 939.029 583.267 937.405 582.705C934.864 581.727 934.303 576.042 934.136 550.184C933.907 518.954 933.907 518.954 931.45 537.734C915.023 662.009 856.644 768.046 762.787 844.268C700.889 894.528 620.293 929.818 547.027 938.771C536.368 940.061 527.997 941.457 528.393 941.935C528.809 942.352 561.664 942.664 601.263 942.581L673.406 942.498L718.044 898.026C761.329 854.907 762.87 853.617 765.785 857.51C770.511 863.86 781.649 860.924 781.649 853.45C781.649 849.473 780.275 847.516 776.528 846.121C771.739 844.331 774.487 841.249 846.379 769.357C905.591 710.228 921.706 695.175 923.081 697.632C924.142 699.568 923.581 703.149 921.54 707.626C917.231 716.662 918.522 720.076 925.767 718.848C930.327 718.036 922.831 726.405 886.896 762.612C849.961 799.692 841.84 807.021 838.904 805.46C832.971 802.295 831.514 803.357 832.159 810.269C832.721 816.681 829.723 820.034 764.494 885.159C726.997 922.656 696.329 952.179 696.329 950.721C696.329 949.264 694.558 945.829 692.351 942.997C689.832 939.812 688.375 939 688.375 940.874C688.375 942.498 686.086 944.871 683.254 946.162C678.944 948.119 678.445 949.014 680.485 951.45C681.776 953.074 684.545 954.386 686.669 954.386C691.707 954.386 691.29 958.779 685.773 963.984C682.275 967.232 679.006 968.21 672.343 967.877C667.555 967.628 656.645 967.149 648.193 966.816H648.276ZM858.83 777.082C861.682 773.584 857.039 769.274 852.334 771.065C848.503 772.522 848.107 777.082 851.584 778.456C855.581 780.101 856.477 779.934 858.83 777.082ZM414.612 939.583C371.993 933.316 305.473 913.786 305.473 907.54C305.473 906.145 303.932 905.584 301.725 906.146C297.249 907.291 256.92 887.199 234.726 872.646C142.493 812.455 74.3276 720.888 43.6804 615.975C36.5183 591.574 27.7324 547.581 27.7324 536.193C27.7324 533.424 27.1701 531.717 26.3581 532.529C25.6294 533.257 25.213 563.675 25.4628 600.194C25.9417 664.528 25.8584 666.548 22.0483 668.588C16.5934 671.524 15.8648 671.274 15.8648 666.798C15.8648 664.445 14.8029 663.216 13.3455 663.799C10.8263 664.757 9.84788 674.688 12.2006 674.688C13.0125 674.688 13.9076 677.124 14.2408 680.143C14.7196 684.765 15.7816 685.578 20.9866 685.578C28.0654 685.578 45.4709 699.089 46.3662 705.273C46.6785 707.293 48.4692 709.25 50.4263 709.583C56.2767 710.395 227.314 882.973 224.232 884.93C219.256 887.928 223.566 893.466 229.917 892.238C235.205 891.176 237.641 893.133 260.168 916.556L284.653 942.102H358.085C424.626 942.019 429.915 941.852 414.612 939.583ZM514.819 936.481C610.862 927.611 691.457 895.09 762.787 836.377C914.94 711.04 969.114 497.801 895.682 313.418C867.283 242.026 816.127 173.548 754.417 124.267C746.526 117.916 740.572 111.816 741.321 110.671C742.05 109.464 741.634 109.214 740.343 110.026C739.115 110.755 732.93 107.902 726.663 103.676C581.255 5.84203 385.422 4.05163 239.431 99.1996C208.618 119.291 192.669 132.386 164.604 160.619C125.087 200.302 99.2288 236.737 75.2232 286.747C18.6341 404.36 15.5319 540.336 66.6037 662.321C103.455 750.328 166.478 823.927 246.989 873.042C325.731 921.199 425.271 944.788 514.819 936.481ZM610.529 129.701C608.259 129.056 607.031 126.869 607.031 123.288C607.031 118.812 605.908 117.417 600.453 115.793C594.769 114.003 593.456 114.253 591.499 117.417C588.98 121.498 585.816 122.06 581.423 119.291C577.197 116.522 605.991 80.982 611.841 81.7939C615.818 82.3769 616.067 83.6674 616.546 106.778C616.879 120.103 616.484 130.929 615.589 130.846C614.693 130.679 612.486 130.201 610.529 129.701ZM607.114 106.778C607.114 105.383 607.615 102.052 608.26 99.2828C609.322 94.4109 609.238 94.4109 604.345 100.178C600.701 104.488 599.973 106.528 601.68 107.673C605.178 109.859 607.031 109.547 607.114 106.778ZM646.964 147.107C645.173 145.982 643.799 139.632 642.987 128.889L641.759 112.379L636.325 123.601C629.975 136.613 628.664 137.758 624.042 134.344C620.856 131.991 621.355 130.367 630.141 112.545C643.55 85.6247 650.629 86.603 650.879 115.564L650.961 130.034L657.229 117.667C663.392 105.3 665.266 103.842 670.075 106.944C672.011 108.152 670.303 113.357 663.162 128.639C653.731 148.647 652.252 150.438 646.964 147.107ZM315.799 117.833C309.054 101.24 307.742 96.3679 309.866 95.0563C314.987 91.8083 316.612 93.5986 323.274 110.192C326.938 119.457 330.603 127.098 331.415 127.098C332.143 127.098 336.141 125.641 340.284 123.934C347.363 120.998 350.944 122.06 351.09 127.098C351.09 127.827 339.139 133.198 326.376 138.174C325.231 138.653 320.526 129.472 315.799 117.833ZM396.81 119.124C395.103 118.083 390.627 117.188 386.796 117.188C373.7 117.105 364.998 106.528 364.998 90.7465C364.998 74.6525 377.697 65.6999 390.877 72.5289C399.496 77.0052 403.473 87.2484 402.182 101.656C401.349 110.109 401.849 113.191 403.889 113.919C407.054 115.148 405.43 121.165 402.015 121.081C400.787 121.081 398.434 120.186 396.81 119.124ZM390.71 107.34C394.291 105.071 394.208 93.7651 390.46 86.1241C388.42 81.731 386.4 80.4196 381.841 80.4196C376.553 80.4196 375.824 81.1485 375.261 87.1655C373.783 102.781 381.674 113.024 390.71 107.34ZM566.703 115.793C565.974 115.064 565.391 111.171 565.391 107.174C565.391 93.6821 555.064 91.1627 552.711 104.092C551.566 109.942 550.525 111.171 546.444 111.171C543.758 111.171 541.573 110.359 541.573 109.38C541.573 106.445 551.337 67.0742 552.232 66.1789C554.085 64.3259 576.468 71.6333 578.82 74.8188C582.318 79.6074 581.901 86.7698 577.841 90.8297C575.072 93.5988 574.51 96.8466 574.989 105.716C575.655 115.876 575.322 117.188 571.908 117.188C569.784 117.188 567.431 116.522 566.703 115.793ZM570.117 84.8127C571.908 81.877 571.574 80.6697 568.493 78.3795C562.872 74.153 560.04 74.8188 558.562 80.7526C556.459 89.2888 565.474 92.4537 570.117 84.8127ZM419.254 107.34C413.071 104.654 412.009 102.052 409.49 83.4384C406.971 64.9709 407.137 63.5764 412.592 63.5764C416.569 63.5764 417.547 66.5117 419.734 85.8744C421.129 98.3873 424.126 102.302 430.643 100.261C434.786 98.8872 434.953 98.2416 433.641 80.5029C432.351 63.2638 432.517 62.0356 436.244 61.0571C441.282 59.7662 441.948 61.8066 443.572 82.8557C444.717 98.7206 444.468 100.594 440.887 103.842C436.16 108.069 425.188 109.859 419.254 107.34ZM510.009 105.383C507.573 103.842 507.574 100.99 509.698 86.0408C513.591 59.1204 513.507 59.2665 519.524 60.4116C522.377 60.9112 528.56 61.9519 533.203 62.7014C539.865 63.6591 541.656 64.721 541.656 67.9065C541.656 71.55 540.761 71.7998 531.725 70.509C521.815 69.1973 521.814 69.1976 521.814 75.2979C521.814 81.1483 522.21 81.4814 529.706 81.4814C536.451 81.4814 537.658 82.0436 537.658 85.6247C537.658 89.289 536.68 89.6846 528.81 89.0392C519.295 88.3105 517.9 89.8513 517.816 101.802C517.816 107.34 515.131 108.569 510.009 105.383ZM453.566 90.101C450.88 58.1421 450.235 59.5995 467.245 59.5995C480.737 59.5995 482.111 60.0161 482.111 63.5764C482.111 67.0117 480.736 67.5735 472.2 67.5735C462.935 67.5735 462.269 67.9068 462.269 72.5289C462.269 77.0885 462.935 77.4842 471.138 77.4842C478.779 77.4842 480.091 78.0669 480.091 81.4814C480.091 84.7293 478.779 85.3749 472.2 85.3749C464.642 85.3749 464.226 85.7081 464.226 91.392C464.226 97.18 464.476 97.3461 474.157 97.3461C482.777 97.3461 484.068 97.8252 484.068 101.24C484.068 104.904 482.777 105.217 469.515 105.217H454.878L453.566 90.101ZM286.11 150.355C280.01 140.111 267.809 117.584 267.809 116.605C267.809 116.126 273.097 113.357 279.531 110.422C288.796 106.278 292.293 105.633 296.374 107.09C301.496 109.047 305.056 117.022 302.62 120.998C301.892 122.143 302.537 123.122 304.098 123.122C308.637 123.122 313.447 129.95 313.447 136.384C313.447 143.13 310.199 146.628 298.227 152.561C289.941 156.788 289.941 156.788 286.11 150.355ZM291.232 124.662C294.813 121.081 294.167 115.148 290.107 115.231C284.174 115.231 281.155 118.312 282.612 122.872C284.091 127.598 287.588 128.327 291.232 124.662ZM300.184 142.068C307.659 136.384 299.622 127.764 291.731 132.886C289.441 134.344 289.296 135.718 291.232 139.798C293.834 145.649 295.146 145.899 300.268 142.068H300.184ZM348.341 103.926C344.427 92.2038 341.492 82.5432 341.741 82.2934C341.991 82.1268 344.032 81.3981 346.218 80.6694C349.882 79.6075 351.027 81.7312 357.606 100.594C365.164 122.476 365.331 125.079 359.147 125.079C356.232 125.079 353.942 120.686 348.341 103.926ZM122.734 323.828C121.339 321.559 118.903 320.413 116.717 320.996C114.261 321.641 113.053 320.913 113.053 318.789C113.053 316.999 114.198 315.541 115.656 315.541C119.716 315.541 118.654 304.798 114.511 303.986C112.408 303.591 111.096 304.569 111.096 306.506C111.096 311.398 105.245 310.086 102.809 304.735C98.3332 294.804 111.512 289.183 118.092 298.219C121.34 302.695 121.34 302.695 119.716 297.74C116.718 288.787 117.925 278.044 122.401 273.568C126.545 269.425 126.545 269.425 129.876 274.463C133.457 280.085 134.269 288.142 131.916 295.616C130.459 300.176 130.625 300.259 133.79 297.074C142.576 288.288 153.965 298.552 145.574 307.817C141.993 311.794 141.993 311.794 140.453 307.567C138.266 301.634 133.873 303.757 133.873 310.752C133.873 314.563 134.768 316.353 136.559 315.957C138.016 315.708 138.828 316.603 138.349 317.977C137.85 319.372 135.497 320.413 133.228 320.35C130.854 320.267 128.918 321.308 128.918 322.703C128.918 327.096 125.17 327.742 122.734 323.828ZM829.889 323.682C829.307 321.308 827.683 320.351 825.33 320.913C821.187 322.058 818.168 318.394 822.082 316.916C823.539 316.354 824.747 313.105 824.831 309.691C824.997 304.798 824.268 303.591 821.749 304.07C819.875 304.486 818.501 306.36 818.647 308.213C818.98 312.606 816.877 312.543 812.713 307.983C808.653 303.424 808.487 298.948 812.401 295.7C816.461 292.368 824.185 294.721 827.038 300.176C828.828 303.507 829.056 303.674 828.161 300.655C824.83 290.162 824.913 282.041 828.494 276.108C830.451 272.672 832.638 269.924 833.221 269.924C836.802 269.924 841.591 282.853 840.612 289.932C839.717 296.928 839.883 297.49 843.215 295.7C852.563 290.661 859.891 298.052 854.186 306.755C850.543 312.377 846.712 313.105 847.524 308.15C847.94 305.776 846.879 304.652 844.36 304.652C838.738 304.652 838.571 315.375 844.109 317.581C847.69 318.956 847.774 319.289 844.755 320.497C842.902 321.225 840.528 321.309 839.55 320.663C838.509 320.101 837.198 321.308 836.636 323.515C835.324 328.471 831.18 328.637 829.952 323.682H829.889ZM774.988 254.705C769.949 248.355 765.785 242.671 765.785 242.109C765.785 241.609 774.009 235.03 784.002 227.618C802.22 214.043 802.22 214.043 805.801 218.686C815.482 231.116 819.626 238.111 818.418 240.068C816.045 243.816 812.483 242.192 807.674 235.196C802.469 227.472 801.741 227.222 796.869 230.72C793.683 233.073 793.767 233.718 798.41 239.985C802.387 245.44 802.97 247.397 801.013 249.666C799.056 252.019 797.764 251.374 792.622 245.44C786.771 238.444 786.522 238.361 782.15 241.776C777.673 245.19 777.672 245.19 783.918 252.748C789.457 259.431 789.791 260.639 787.188 263.241C784.502 265.927 783.191 264.948 774.988 254.705ZM171.932 187.206C169.725 185.082 170.475 175.651 172.994 173.132C176.971 169.155 178.512 170.363 178.512 177.441C178.512 183.958 174.535 189.892 171.932 187.206ZM252.361 173.381C250.987 172.819 245.282 165.657 239.847 157.517C231.79 145.566 230.333 142.151 232.186 139.882C235.934 135.322 237.079 136.134 247.156 150.937C255.296 162.805 257.482 164.845 261.792 164.346C270.183 163.367 269.288 156.309 259.106 141.506C252.132 131.491 250.57 127.764 252.194 125.724C253.423 124.267 255.463 123.122 256.67 123.122C259.939 123.205 277.74 151.416 277.74 156.621C277.74 168.426 263.416 177.774 252.361 173.381ZM665.516 171.757C661.768 168.905 661.934 168.572 667.056 167.927C669.825 167.614 669.492 162.721 666.244 154.352C661.205 141.423 676.341 119.124 690.166 119.124C697.078 119.124 706.905 129.472 706.905 136.696C706.905 140.111 706.26 143.609 705.532 144.338C703.241 146.628 697.307 141.735 697.973 138.091C698.785 133.698 694.871 129.055 690.312 129.055C686.085 129.055 676.987 139.382 675.28 146.128C673.573 153.124 677.882 157.35 685.273 156.059C688.688 155.414 692.768 155.726 694.392 156.788C699.264 159.869 691.957 165.574 683.483 165.324C678.049 165.158 676.487 165.907 676.487 168.739C676.487 170.696 675.113 172.819 673.406 173.465C669.346 175.005 669.992 175.172 665.516 171.757ZM158.587 247.959C149.322 240.401 141.598 233.489 141.431 232.677C140.536 229.825 155.838 214.522 160.794 213.314C166.894 211.919 176.575 218.686 176.575 224.453C176.575 226.577 177.783 228.284 179.324 228.284C180.802 228.284 185.757 229.908 190.233 231.865C198.353 235.508 198.353 235.508 193.897 239.672C189.9 243.399 188.921 243.566 184.466 241.047C178.032 237.466 173.64 237.466 170.704 240.964C168.851 243.233 169.58 244.711 174.452 248.292C181.031 253.164 182.009 256.329 177.949 259.66C175.909 261.368 171.37 258.619 158.587 247.959ZM167.373 231.782C168.997 229.096 168.768 227.535 166.248 225.016C160.294 219.082 151.446 226.889 156.796 233.323C159.899 237.07 164.458 236.32 167.373 231.782ZM754.084 229.409C745.214 224.537 740.738 209.567 746.671 204.695C750.169 201.759 754.896 206.881 753.105 211.524C751.398 216.083 755.375 222.33 759.934 222.33C765.472 222.33 766.597 217.791 762.953 210.712C758.727 202.488 759.039 195.347 763.848 190.537C769.199 185.166 774.571 185.582 781.566 192.078C788.895 198.845 790.851 206.069 786.687 211.357C783.773 215.272 783.523 215.271 780.837 211.69C779.213 209.65 778.484 206.715 779.046 205.174C780.358 201.759 776.278 196.471 772.301 196.471C769.949 196.471 769.616 198.095 770.595 203.966C774.342 225.515 774.342 225.598 769.532 229.013C763.994 232.823 760.434 232.99 754.084 229.409ZM183.487 214.376L167.706 198.511L178.512 187.622C188.11 177.941 189.671 177.046 192.273 179.648C194.876 182.251 194.376 183.458 187.88 190.141C180.968 197.2 180.719 197.866 183.883 201.031C187.131 204.195 187.714 204.05 193.731 198.178C199.248 192.828 200.643 192.328 203.329 194.534C206.161 196.887 205.848 197.783 200.477 203.383C194.626 209.4 194.543 209.734 197.874 213.877C201.372 218.186 201.372 218.186 208.701 210.962C215.03 204.861 216.508 204.195 219.257 206.485C222.026 208.755 221.214 210.212 211.949 219.664C206.161 225.515 200.956 230.221 200.394 230.221C199.748 230.221 192.19 223.079 183.487 214.376ZM727.976 203.3C725.79 200.635 727.725 197.949 741.633 184.041C756.519 169.072 758.061 168.093 760.997 171.029C763.995 174.027 763.036 175.484 748.879 190.371C740.426 199.157 732.847 206.402 732.035 206.402C731.223 206.402 729.433 205.007 727.976 203.3ZM210.554 189.329C203.558 181.106 197.791 173.298 197.625 171.924C197.541 170.446 201.289 166.053 206.015 162.076C217.882 152.062 227.731 152.395 233.165 162.888C236.579 169.551 234.872 175.484 227.48 182.417C222.359 187.123 222.359 187.123 227.231 193.473C230.895 198.261 231.457 200.302 229.667 202.092C225.69 206.069 223.65 204.695 210.554 189.329ZM224.232 174.61C228.709 166.136 219.423 161.264 211.865 168.093C208.368 171.258 208.368 171.508 212.428 175.901C216.987 180.689 221.13 180.294 224.232 174.61ZM718.377 194.681C716.586 193.556 716.108 191.183 717.003 187.768C718.044 183.542 717.232 181.584 712.839 177.858C708.05 173.714 706.905 173.465 703.241 175.901C699.68 178.253 698.535 178.17 695.204 175.568C690.811 172.07 688.605 174.11 714.713 157.267C723.666 151.583 731.806 147.19 732.847 147.523C738.635 149.459 738.302 154.747 731.056 175.338C723.332 197.137 723.019 197.616 718.377 194.681ZM723.832 167.677C726.997 160.702 726.831 160.536 720.335 164.346C715.942 166.802 715.045 168.26 716.586 170.217C719.605 173.86 721.229 173.298 723.832 167.677ZM226.502 821.741L214.301 812.059L227.148 795.05C234.143 785.785 240.826 777.561 241.867 776.915C243.658 775.791 264.166 790.261 265.29 793.426C265.54 794.071 264.977 795.945 263.916 797.569C262.375 800.026 260.668 799.359 253.901 793.925C249.446 790.261 245.532 787.659 245.282 788.054C245.053 788.387 243.658 790.344 242.117 792.281C239.681 795.466 240.16 796.444 246.177 801.566C251.549 806.126 252.444 807.75 250.487 809.769C248.467 811.81 246.843 811.477 242.117 807.979C234.788 802.545 233.747 802.545 230.333 807.896C227.959 811.727 228.126 812.539 231.374 814.975C244.241 824.573 243.991 824.26 241.222 827.904C238.786 831.173 237.641 830.672 226.419 821.741H226.502ZM711.298 808.791C704.136 799.609 698.368 791.406 698.368 790.427C698.452 789.532 703.49 784.889 709.591 780.247C718.21 773.751 721.312 772.356 723.415 774.063C727.329 777.332 726.83 778.227 718.21 784.327C711.215 789.282 710.569 790.344 712.776 793.759C715.858 798.714 716.67 798.631 723.749 792.697C729.038 788.22 729.849 788.054 732.285 790.906C734.471 793.675 733.992 794.821 728.225 799.526C722.437 804.252 721.875 805.376 723.916 809.207C726.914 814.829 727.726 814.662 736.762 807.25C742.862 802.212 744.735 801.566 746.11 803.752C747.088 805.293 747.9 807.25 747.9 807.979C747.9 809.54 727.559 825.385 725.54 825.385C724.894 825.385 718.461 817.91 711.298 808.791ZM674.863 794.404C675.28 791.552 677.548 787.825 679.984 786.201C684.377 783.348 684.378 783.432 683.17 789.928C681.213 799.942 673.739 803.919 674.863 794.404ZM784.668 722.346C785.959 716.329 785.397 714.955 780.442 710.957C774.737 706.398 774.738 706.398 781.983 706.398C788.312 706.398 789.54 705.585 791.664 699.902L794.1 693.468L796.057 699.902C797.826 705.585 798.972 706.398 805.239 706.481C812.401 706.481 812.4 706.481 806.862 710.645C802.136 714.205 801.492 715.766 802.637 720.888C803.928 726.988 803.927 726.988 798.577 723.491C793.288 719.993 793.122 720.076 788.167 724.552C783.191 729.174 783.19 729.175 784.668 722.346ZM154.693 724.219C154.693 722.991 155.672 720.305 156.713 718.202C158.441 715.1 157.775 713.809 153.299 710.957C147.948 707.376 147.948 707.376 154.777 706.398C159.648 705.669 161.856 704.211 162.334 701.442C163.646 694.218 166.561 693.468 167.872 700.068C168.997 705.669 169.809 706.398 175.909 706.398C182.738 706.398 182.738 706.398 177.533 710.874C172.994 714.788 172.578 715.995 174.368 720.805C176.721 727.072 175.513 727.634 170.142 722.845C166.727 719.743 166.165 719.743 160.627 722.991C156.963 725.115 154.693 725.594 154.693 724.219ZM131.354 700.963C130.542 699.006 128.335 697.465 126.461 697.465C124.525 697.465 122.964 696.57 122.964 695.509C122.964 694.363 124.025 693.468 125.337 693.468C129.23 693.468 128.252 681.684 124.358 680.955C122.068 680.539 121.027 681.601 121.027 684.453C121.027 686.639 120.215 688.513 119.32 688.513C116.717 688.513 111.096 681.601 111.096 678.353C111.096 670.212 122.735 668.026 128.086 675.167C130.938 678.998 131.188 679.081 129.876 675.667C126.711 667.36 126.711 661.113 129.73 655.18C134.269 646.394 136.309 645.977 139.89 652.973C143.055 659.157 143.138 669.004 140.057 677.624C139.245 679.81 140.057 679.165 141.764 676.146C143.784 672.731 146.636 670.712 149.405 670.712C158.274 670.712 161.689 679.331 155.339 685.661C152.257 688.763 151.924 688.763 150.467 684.766C148.593 679.644 142.326 679.082 143.138 684.037C143.471 685.994 143.055 688.68 142.16 690.054C140.702 692.344 142.972 693.468 147.448 692.656C148.427 692.511 148.76 693.551 148.26 694.946C147.781 696.32 145.491 697.382 143.138 697.299C140.786 697.216 139.328 697.549 139.807 698.111C141.098 699.423 136.871 704.378 134.602 704.378C133.623 704.378 132.166 702.837 131.354 700.963ZM820.042 701.276C819.397 699.652 817.689 698.673 816.294 699.256C814.836 699.735 812.713 699.006 811.505 697.632C809.881 695.592 810.278 694.78 813.047 694.051C815.15 693.468 816.628 691.449 816.461 689.242C815.899 681.268 809.465 676.958 809.465 684.536C809.465 689.97 806.217 689.575 802.386 683.724C799.867 679.893 799.7 678.02 801.491 674.688C804.593 668.921 813.379 669.962 817.023 676.645C819.709 681.601 819.708 681.601 818.501 676.645C815.232 663.133 815.15 660.947 818.252 655.096C822.145 647.518 824.268 647.289 828.494 653.785C831.659 658.678 831.659 666.964 828.328 678.602C826.954 683.558 826.955 683.558 829.64 678.832C833.45 671.836 838.426 669.234 842.653 671.919C847.442 674.855 848.023 681.351 843.943 685.515C840.612 688.846 840.362 688.763 838.904 684.766C837.114 679.894 834.679 679.498 831.431 683.391C829.724 685.515 829.64 686.556 831.431 687.618C833.055 688.68 832.971 689.492 831.014 690.783C828.911 692.094 829.306 692.823 832.721 693.718C835.24 694.363 837.198 695.592 837.198 696.404C837.198 699.485 834.512 700.235 830.535 698.111C828.161 696.883 826.954 696.653 827.766 697.549C829.39 699.256 825.892 704.378 823.04 704.378C822.082 704.378 820.688 702.983 820.042 701.276ZM835.241 646.061C835.241 645.582 836.136 642.73 837.281 639.794C838.989 635.172 838.655 633.943 834.762 631.258C830.285 628.093 830.285 628.093 836.053 627.031C840.446 626.302 842.319 624.429 844.193 619.057L846.463 612.145L848.919 619.64C851.105 626.052 852.167 627.031 857.685 627.114C863.952 627.114 863.951 627.114 858.579 630.529C853.145 633.86 852.979 635.005 856.727 644.77C857.455 646.706 855.665 646.144 851.584 643.292C847.857 640.606 844.922 639.627 844.193 640.856C842.819 643.125 835.241 647.518 835.241 646.061ZM101.185 643.791C101.185 643.125 102.143 640.772 103.372 638.42C105.329 634.839 104.829 633.61 99.9573 629.634C94.1901 625.074 94.1901 625.074 100.769 625.074C106.224 625.074 107.765 624.012 110.034 618.578C112.803 611.978 112.804 611.978 115.968 622.076C116.551 623.95 119.403 625.074 123.38 625.074C129.959 625.157 129.959 625.157 124.671 629.55C120.694 632.965 119.882 634.922 121.11 637.92C123.775 644.687 123.214 645.498 117.842 642.001C113.22 638.982 112.408 638.899 108.015 641.751C102.955 645.082 101.185 645.582 101.185 643.791ZM849.148 600.444C849.148 599.944 849.96 597.259 851.022 594.49C852.646 590.263 852.168 588.889 848.024 585.641C841.758 580.665 841.923 579.936 848.981 580.998C854.124 581.727 855.249 580.998 857.622 575.23L860.287 568.548L862.577 574.981C864.451 580.436 865.743 581.414 871.114 581.414C877.464 581.414 877.464 581.414 872.259 585.474C867.949 588.889 867.449 590.263 868.989 594.49C871.759 601.735 871.531 601.985 865.097 597.342C861.599 594.823 858.83 594.01 858.102 595.239C856.727 597.508 849.148 601.901 849.148 600.444ZM89.464 593.844C91.2545 588.972 90.8382 587.827 85.883 583.933C80.3656 579.457 80.3657 579.457 87.507 579.457C94.0237 579.457 94.8357 578.812 96.1266 572.941L97.6045 566.528L100.353 572.941C102.643 578.312 104.267 579.457 109.639 579.457C116.051 579.54 116.051 579.54 110.7 583.517C106.057 587.015 105.558 588.243 107.265 592.719C109.722 599.215 108.16 600.839 103.538 596.613C98.9787 592.553 96.3761 592.47 93.2114 596.28C89.214 601.089 87.1946 599.694 89.464 593.844ZM861.182 547.248C862.889 541.398 862.494 540.253 857.622 536.276C852.084 531.8 852.084 531.8 859.247 531.8C865.576 531.8 866.637 531.071 868.428 525.367L870.469 518.954L872.905 525.367C874.862 530.572 876.402 531.8 881.045 531.8C888.02 531.8 888.435 534.236 882.002 537.65C877.859 539.836 877.464 540.982 879.088 545.208C881.524 551.725 879.899 553.182 874.944 548.706C871.363 545.458 870.551 545.375 867.449 548.06C860.287 554.244 859.162 554.077 861.182 547.248ZM77.3466 550.913C77.3466 550.33 78.2417 547.498 79.3868 544.479C81.2398 539.691 80.8442 538.462 75.9723 534.486C70.4342 529.926 70.4342 529.926 77.5964 529.926C84.0922 529.843 84.9042 529.197 86.2991 523.347L87.7567 516.913L89.7969 523.347C91.5874 529.031 92.6286 529.843 98.9788 529.926C106.141 529.926 106.141 529.926 100.603 534.486C95.6476 538.462 95.2312 539.691 97.105 544.479C100.041 552.204 99.8742 552.37 93.4408 547.811C87.7569 543.751 87.7567 543.751 82.5517 547.811C79.6993 550.101 77.3466 551.475 77.3466 550.913ZM865.992 495.677C867.054 489.993 866.471 488.681 861.599 485.767C856.061 482.352 856.061 482.352 863.473 482.269C870.052 482.185 871.03 481.54 872.654 475.752L874.445 469.339L876.881 475.752C879.005 481.374 880.15 482.185 886.479 482.269C893.724 482.352 893.724 482.352 888.185 485.767C883.314 488.681 882.751 489.993 883.792 495.677C885.021 502.277 885.021 502.277 879.983 498.946C875.257 495.843 874.611 495.843 869.801 498.946C864.763 502.277 864.763 502.277 865.992 495.677ZM73.3698 498.05C73.3698 496.822 74.2654 494.22 75.3064 492.179C76.868 489.265 76.2017 487.869 71.8087 484.954C66.4579 481.29 66.4575 481.29 73.3698 480.229C78.2417 479.5 80.5112 478.042 81.0109 475.273C82.3017 468.028 85.1544 467.299 86.5285 473.899C87.5903 479.5 88.4855 480.229 94.5858 480.229C101.331 480.229 101.332 480.228 96.1266 484.705C91.5878 488.619 91.2544 489.826 93.045 494.636C95.3976 500.882 94.1067 501.465 88.8184 496.739C85.3206 493.574 84.7377 493.574 79.2204 496.822C75.6393 498.946 73.3698 499.424 73.3698 498.05ZM861.432 452.246C865.346 441.836 865.263 440.795 859.642 437.776C856.311 435.986 855.249 434.612 857.039 434.445C858.663 434.278 861.765 434.028 863.784 433.883C866.241 433.716 868.511 431.03 870.052 426.637C872.571 419.725 872.571 419.725 873.966 426.158C875.34 432.488 877.297 433.55 885.833 432.654C889.581 432.259 889.498 432.488 885.105 437.214C881.358 441.274 880.712 443.398 881.857 448.603C883.315 455.098 883.314 455.099 877.775 450.706C873.07 447.041 871.842 446.812 869.156 449.165C863.389 454.037 860.225 455.349 861.432 452.246ZM77.6796 446.396C78.8039 443.065 79.4703 440.066 79.0539 439.816C78.6375 439.483 76.1185 437.693 73.4327 435.903C68.5608 432.571 68.5604 432.571 74.9938 432.571C80.4279 432.571 81.9895 431.509 84.2589 426.158L87.0279 419.725L89.2975 426.158C91.2546 431.592 92.6288 432.571 97.8338 432.571C104.017 432.571 104.017 432.571 99.4579 435.819C95.5645 438.505 95.0856 440.129 96.1266 446C97.4382 452.912 97.4379 452.912 91.5042 448.686C87.9231 446.083 85.0709 445.188 84.3422 446.479C83.6135 447.541 81.4065 449.331 79.3036 450.476C75.8058 452.329 75.7225 452.017 77.6796 446.396ZM854.042 401.028C855.332 395.324 854.853 393.7 850.856 390.681C846.15 387.038 846.151 387.037 852.417 387.037C857.768 386.954 858.913 386.059 860.059 381.02C860.787 377.752 862.078 375.066 862.89 375.066C863.785 375.066 865.013 377.752 865.659 381.02C866.721 386.142 867.782 386.954 873.382 387.037C879.899 387.037 879.899 387.038 875.173 390.681C871.196 393.7 870.696 395.324 871.925 401.028C873.382 407.608 873.299 407.691 869.573 404.36C867.449 402.403 864.451 400.862 862.972 400.862C861.515 400.862 858.58 402.403 856.478 404.36C852.647 407.691 852.647 407.608 854.042 401.028ZM85.3207 402.736C85.3207 401.591 86.1325 398.988 87.2776 396.948C88.8183 393.95 88.0897 392.555 82.8014 389.141C76.368 385.081 76.3679 385.08 83.7799 384.997C90.2757 384.997 91.5875 384.185 93.9402 378.564L96.5427 372.068L98.0003 378.564C99.3952 384.352 100.207 384.997 106.786 385.08C114.032 385.08 114.032 385.081 108.66 389.141C104.184 392.472 103.455 394.179 104.517 399.238C105.724 405.338 105.725 405.338 100.436 401.84C95.4812 398.572 94.8354 398.572 91.5042 401.591C87.4234 405.338 85.3207 405.734 85.3207 402.736ZM854.27 360.929C849.315 357.098 848.67 357.015 845.422 359.951C840.217 364.656 838.738 363.927 840.133 357.431C841.174 352.705 840.446 350.998 835.824 347.583C830.286 343.44 830.285 343.44 837.697 343.357C843.86 343.357 845.255 342.545 846.317 338.402C847.045 335.633 848.253 333.426 849.065 333.426C849.96 333.426 851.188 335.633 851.917 338.402C852.979 342.545 854.269 343.357 860.536 343.357C867.948 343.357 867.948 343.357 862.16 348C856.872 352.226 856.643 353.038 858.579 358.889C861.182 366.301 861.12 366.363 854.27 360.929ZM99.1452 362.303C99.1452 361.824 100.04 359.222 101.102 356.453C102.726 352.226 102.143 350.832 97.6045 347.417C92.2329 343.44 92.2332 343.44 98.7291 343.357C102.727 343.357 105.558 342.212 106.224 340.338C109.305 330.261 109.305 330.261 112.158 336.841C114.344 342.212 115.968 343.357 121.027 343.357C127.211 343.357 127.211 343.357 122.006 347.833C117.446 351.727 117.03 352.955 118.82 357.744C121.256 364.011 120.611 364.344 113.948 359.951C109.389 356.932 108.743 356.932 105.412 359.951C101.997 363.032 99.1452 364.094 99.1452 362.303ZM425.751 930.297C343.948 919.804 264.311 886.138 202.351 835.878C185.278 822.053 149.405 786.118 135.893 769.357C86.945 708.604 53.112 631.258 40.1827 550.663C35.7896 523.18 35.2899 448.603 39.3707 421.682C57.505 300.488 119.966 194.118 214.864 122.393C278.303 74.569 345.406 47.2324 425.105 36.9056C544.425 21.2905 667.556 57.809 761.975 136.696C791.415 161.264 824.997 198.095 822.228 202.655C821.333 204.112 821.582 204.528 822.894 203.716C827.849 200.635 859.809 248.605 878.11 286.747C892.267 316.353 909.506 365.239 908.111 372.234C907.632 374.837 908.028 376.461 908.923 375.878C909.818 375.316 910.63 375.232 910.63 375.815C910.63 376.377 912.026 383.29 913.733 391.347C927.724 456.889 924.788 544.23 906.737 605.066C903.802 614.664 901.531 619.057 899.408 619.057C897.617 619.057 896.722 617.995 897.388 616.371C899.741 610.104 908.694 570.921 911.942 552.62C914.628 537.234 915.439 520.661 915.606 478.854C915.689 449.165 915.19 425.263 914.545 425.659C913.899 426.075 911.859 417.289 910.068 406.234C898.846 335.966 864.451 260.555 816.794 201.447C799.305 179.731 759.934 141.985 737.656 125.474C681.775 84.084 621.106 58.059 550.588 45.3588C515.465 39.0294 444.218 39.0294 408.678 45.3588C312.947 62.5354 233.331 104.654 167.623 172.965C8.61942 338.069 -0.811905 592.949 145.574 770.649C210.887 849.952 302.537 902.981 404.368 920.47C417.464 922.739 425.355 925.009 425.022 926.404C424.772 927.611 426.333 928.59 428.52 928.59C430.727 928.59 432.517 927.861 432.517 927.049C432.517 926.237 447.715 925.841 466.412 926.32C623.062 929.901 760.185 857.427 846.068 725.677C859.476 705.023 879.899 664.362 888.769 640.523C892.267 631.091 896.409 622.888 897.95 622.242C901.614 620.847 901.448 622.076 895.993 638.087C865.658 726.177 802.303 807.333 722.687 860.279C649.983 908.665 567.347 932.9 477.155 932.337C456.418 932.171 433.246 931.276 425.751 930.297ZM454.545 907.457C455.044 906.562 459.271 895.736 464.06 883.452C470.805 866.213 473.574 861.174 476.427 861.174C481.298 861.174 481.298 860.841 471.388 885.971C464.309 903.71 461.873 907.853 458.292 908.436C455.856 908.831 454.232 908.352 454.545 907.457ZM504.637 902.335C505.304 899.879 507.824 889.073 510.343 878.413C514.57 860.029 515.048 859.071 519.691 859.55C523.667 860.029 526.27 863.527 533.932 878.996C539.137 889.406 543.363 898.984 543.446 900.295C543.675 904.522 534.078 903.231 532.703 898.838C531.725 895.819 529.705 894.84 523.833 894.84C517.088 894.84 516.193 895.507 515.131 900.774C514.153 905.667 512.946 906.791 508.719 906.791C504.243 906.791 503.596 906.145 504.637 902.335ZM525.624 884.43C525.624 883.056 524.333 879.725 522.793 877.039C520.024 872.23 519.941 872.229 519.857 876.393C519.774 878.746 519.212 882.078 518.546 883.785C517.734 886.054 518.546 886.95 521.565 886.95C523.835 886.95 525.707 885.825 525.624 884.43ZM415.111 902.252C401.203 900.045 402.016 903.543 407.533 870.044C409.907 856.219 409.906 856.219 420.712 856.615C436.973 857.281 440.241 858.488 439.013 863.131C438.451 865.317 437.389 867.025 436.743 867.025C436.015 866.942 431.767 866.213 427.229 865.318C419.567 863.86 418.838 864.11 418.026 868.336C416.964 874.27 417.797 874.999 425.751 874.999C432.746 874.999 435.119 877.039 433.412 881.515C432.517 883.701 430.393 884.035 424.543 882.973C415.673 881.349 414.612 881.911 414.612 888.011C414.612 892.904 418.026 894.84 426.563 894.84C429.665 894.84 432.746 895.652 433.412 896.714C434.953 899.317 432.434 904.855 429.831 904.522C428.519 904.355 421.94 903.376 415.111 902.252ZM551.338 900.295C549.86 895.652 542.302 855.969 542.781 855.407C543.114 854.99 549.63 854.262 557.104 853.7C569.784 852.804 571.013 853.034 574.011 857.344C577.925 862.882 578.258 869.315 574.843 872.729C573.052 874.52 573.053 875.561 574.594 876.623C578.654 879.142 585.253 894.84 582.318 894.84C580.86 894.84 578.258 895.423 576.551 896.069C574.177 896.964 573.053 895.653 572.158 891.176C570.596 883.619 566.87 880.287 561.748 881.911C558.479 882.973 558 884.347 558.895 890.218C559.707 895.09 559.228 897.776 557.271 898.984C554.585 900.712 551.733 901.357 551.42 900.295H551.338ZM562.476 873.042C570.45 870.044 568.66 862.319 559.707 861.507C553.523 860.924 553.045 861.258 554.169 865.484C554.898 868.003 555.48 871.189 555.48 872.563C555.48 875.561 555.793 875.561 562.476 873.042ZM379.405 895.34C371.597 893.383 367.038 891.176 367.038 889.406C367.038 884.846 375.407 850.368 376.969 848.661C378.426 846.933 406.721 853.034 406.638 854.991C406.554 860.362 402.744 861.736 394.937 859.467C385.817 856.698 382.903 857.593 382.903 863.214C382.903 865.734 384.693 867.441 388.337 868.253C397.623 870.293 398.747 870.856 398.747 873.854C398.747 878.33 396.082 879.059 387.941 876.789C379.488 874.437 379.884 874.27 378.177 881.349C377.052 886.137 377.531 886.721 384.443 887.845C394.208 889.469 397.623 891.759 396.144 895.652C394.687 899.317 395.582 899.317 379.405 895.34ZM587.106 870.689C583.691 859.467 580.527 849.702 580.11 848.974C578.486 846.288 601.68 840.77 606.885 842.561C613.798 844.997 617.94 853.7 614.922 859.301C613.214 862.548 613.298 863.943 615.589 865.734C620.127 869.544 627.122 880.62 625.498 881.515C618.752 885.159 616.629 884.597 612.736 878.018C609.883 873.125 607.197 871.105 603.866 871.105C598.578 871.105 597.766 875.082 601.097 883.868C602.159 886.72 602.242 888.907 601.263 888.907C600.285 888.907 598.099 889.469 596.475 890.052C594.102 890.947 592.082 886.804 587.19 870.689H587.106ZM605.095 860.196C608.509 856.053 605.178 851.264 598.911 851.264C593.061 851.264 591.582 854.679 594.268 861.737C595.58 865.005 601.743 864.11 605.095 860.196ZM349.382 887.116C347.363 885.825 346.946 883.139 347.925 877.289C348.987 870.439 348.57 868.899 345.156 867.108C341.096 864.922 337.265 865.9 337.265 869.065C337.265 875.165 333.205 880.62 329.458 879.642C324.024 878.163 324.169 876.623 332.476 853.616L339.555 833.858L349.799 837.668C366.871 844.019 371.347 853.033 361.999 862.319C359.23 865.088 357.523 868.17 358.168 869.231C360.042 872.23 356.877 888.907 354.358 888.907C353.13 888.907 350.861 888.095 349.382 887.116ZM356.711 853.7C357.19 850.431 355.982 848.724 352.151 847.266C345.322 844.664 345.822 844.497 344.344 850.368C342.637 857.114 344.51 859.55 350.86 858.821C354.504 858.322 356.295 856.864 356.711 853.7ZM627.206 857.676C617.046 833.775 616.963 833.359 625.02 832.547C626.144 832.463 630.953 841.582 635.742 852.721C643.882 871.834 644.132 873.208 640.718 875.082C638.761 876.144 636.72 877.039 636.325 877.039C635.908 877.039 631.766 868.336 627.206 857.676ZM297.915 865.318C295.791 864.027 297.02 860.112 303.599 847.183C311.406 831.651 311.656 830.506 308.325 828.07C306.368 826.613 304.015 825.385 303.12 825.385C300.913 825.385 301.163 819.95 303.349 818.556C306.618 816.536 335.412 831.984 334.746 835.316C334.1 838.314 331.581 838.563 324.253 836.377C320.838 835.315 319.131 837.418 312.468 851.097C304.744 866.941 303.037 868.649 297.915 865.318ZM646.964 846.454C630.87 830.277 630.537 829.694 634.847 827.425C638.928 825.239 640.302 826.051 650.961 836.607C657.374 842.957 662.579 847.683 662.579 847.017C662.579 845.08 658.436 822.469 657.458 819.138C656.562 815.953 663.725 810.019 665.848 812.143C666.411 812.621 668.45 823.511 670.386 836.211C673.801 858.405 673.801 859.384 670.386 861.257C664.786 864.276 664.369 864.027 646.964 846.454ZM272.056 851.41C267.809 848.245 267.663 847.1 268.954 832.796C269.683 824.343 269.849 817.494 269.287 817.494C268.704 817.494 265.29 822.386 261.709 828.403C254.963 839.459 253.173 840.687 248.217 837.502C245.136 835.566 244.636 836.69 259.273 813.101C269.038 797.486 270.412 796.028 273.826 798.152C276.928 800.088 277.657 803.357 278.156 816.452L278.719 832.38L284.236 823.032C290.503 812.372 292.044 811.081 296.437 812.705C300.913 814.495 300.747 815.058 288.067 835.878C276.595 854.678 276.512 854.741 272.056 851.41ZM389.648 845.726C388.42 844.914 386.401 842.311 385.089 839.792C383.069 835.878 383.215 835.316 386.713 835.316C388.92 835.316 391.606 837.106 392.73 839.209C396.394 846.059 394.853 849.223 389.648 845.726ZM680.796 828.154C673.967 817.66 668.68 808.874 669.013 808.728C669.262 808.478 674.613 805.064 680.796 800.983C693.33 792.864 695.434 792.281 697.079 796.674C697.807 798.631 695.6 801.316 690.312 804.648C681.942 809.936 681.463 810.831 684.461 815.557C686.085 818.076 687.397 817.91 694.226 813.996C701.534 809.853 702.283 809.769 703.99 812.955C705.531 815.703 704.552 817.348 699.18 820.992C691.623 826.113 691.374 826.862 695.288 832.067C697.891 835.482 698.369 835.399 706.26 830.194C713.089 825.634 714.796 825.155 716.337 827.508C717.316 829.132 718.127 830.923 718.127 831.568C718.127 832.713 695.766 847.266 693.975 847.266C693.58 847.266 687.709 838.647 680.796 828.154ZM444.384 837.189C362.728 828.153 291.481 794.154 232.04 735.858C143.7 649.308 107.036 524.471 134.186 402.882C170.309 241.047 315.404 124.829 481.07 125.162C638.845 125.391 779.609 234.614 821.332 389.141C836.718 446.146 837.03 510.48 822.311 569.526C787.832 707.959 669.013 815.703 529.539 835.149C507.012 838.251 463.414 839.292 444.384 837.189ZM531.641 828.154C710.986 800.921 841.112 635.255 825.643 453.954C821.499 404.839 811.506 369.132 789.374 324.494C773.03 291.473 755.374 266.01 731.056 240.484C570.2 71.7166 297.748 103.593 179.261 305.048C131.271 386.621 118.987 487.786 145.824 580.436C189.983 732.589 336.141 838.813 492.042 831.984C503.43 831.485 521.314 829.778 531.641 828.154ZM368.266 697.049C367.516 696.321 367.038 681.205 367.038 663.383V631.008H379.405C386.234 631.008 395.103 631.903 399.163 633.048C413.55 637.025 419.254 652.328 409.823 661.759C405.825 665.736 405.513 666.881 407.866 668.838C410.552 671.107 412.988 678.603 415.341 692.094C416.569 698.673 416.569 698.673 409.157 698.111C401.932 697.466 401.683 697.133 399.725 687.534C397.123 674.439 395.749 672.648 388.024 672.648C381.508 672.648 381.508 672.648 381.425 683.058C381.362 688.846 381.279 694.363 381.112 695.509C380.862 697.715 370.202 699.006 368.266 697.049ZM399.08 655.825C402.016 649.392 396.727 642.896 388.503 642.896C383.132 642.896 382.903 643.375 382.903 651.828C382.903 660.697 382.903 660.781 389.898 660.781C395.415 660.781 397.289 659.719 399.08 655.825ZM422.336 697.549C421.691 696.966 426.25 681.684 432.35 663.633C443.406 630.862 443.406 630.862 450.069 631.424C456.835 631.986 456.834 631.986 467.39 662.738C473.262 679.643 478.051 694.447 478.051 695.592C478.134 696.82 475.282 697.299 471.305 696.883C465.851 696.237 464.059 694.863 462.436 690.303C460.562 684.932 459.75 684.536 449.756 684.536C439.346 684.536 438.93 684.765 437.139 691.032C435.682 696.237 434.224 697.549 429.332 698.028C426.084 698.361 422.919 698.111 422.336 697.549ZM455.044 667.214C454.295 664.195 452.838 659.49 451.859 656.804C449.985 652.078 449.839 652.078 448.361 655.825C447.549 658.011 446.258 662.654 445.446 666.235C444.134 672.419 444.301 672.648 450.235 672.648C455.94 672.648 456.252 672.252 455.044 667.214ZM484.796 695.509C484.317 694.28 484.235 679.498 484.484 662.654C485.047 631.986 485.046 631.986 491.958 631.986C498.704 631.986 499.287 632.569 509.842 651.828L520.753 671.69L522.46 651.183C524.167 630.779 524.167 630.779 530.434 631.424C536.617 631.986 536.618 631.986 537.18 664.195L537.742 696.487H529.851C521.897 696.487 521.898 696.487 511.404 677.624L500.912 658.74L500.328 677.374C499.766 696.071 499.766 696.071 492.687 696.883C488.627 697.383 485.213 696.82 484.713 695.509H484.796ZM562.476 696.653C551.087 691.677 544.655 674.938 546.945 656.72C549.381 637.691 558.478 629.8 576.05 631.507C587.439 632.652 597.121 641.105 597.121 649.891C597.121 657.366 586.46 656.95 582.879 649.309C579.548 642.48 568.577 640.606 564.35 646.227C559.791 652.161 560.519 679.081 565.245 683.391C570.45 688.117 579.716 686.806 582.235 681.122C583.692 677.77 585.898 676.645 590.687 676.645C599.077 676.645 599.39 682.017 591.583 690.72C587.023 695.841 584.192 697.132 576.218 697.715C570.846 698.111 564.579 697.632 562.476 696.653ZM607.031 699.006V631.008H627.934C648.754 631.008 648.754 631.008 648.754 636.962C648.754 642.896 648.755 642.896 634.847 642.896C620.939 642.896 620.939 642.896 620.939 650.87C620.939 658.74 620.939 658.74 632.91 658.74C644.216 658.74 644.778 658.99 644.778 663.716C644.778 668.505 644.216 668.671 632.91 668.671C620.939 668.671 620.939 668.671 620.939 677.624C620.939 686.556 620.939 686.556 634.847 686.556C648.359 686.556 648.754 686.722 648.754 691.532C648.754 696.32 648.359 696.487 635.346 696.487C627.934 696.487 618.586 697.049 614.526 697.715L607.031 699.006ZM317.84 664.362L318.402 631.986H339.222C360.042 631.986 360.042 631.986 360.688 637.441C361.271 642.896 361.27 642.896 347.279 642.896C333.288 642.896 333.288 642.896 333.288 650.787C333.288 658.594 333.288 658.594 344.677 659.157C355.482 659.719 356.149 660.052 356.711 665.257C357.356 670.628 357.273 670.712 345.322 670.712C333.288 670.712 333.288 670.712 333.039 680.143C332.726 695.758 332.809 695.425 324.752 696.071L317.257 696.737L317.84 664.362ZM402.744 617.433C402.744 616.538 404.701 614.664 407.22 613.373C411.114 611.249 429.748 584.745 436.41 571.733C437.722 569.214 438.451 564.009 438.034 560.344C437.389 554.577 437.868 553.598 441.449 553.598C445.113 553.598 446.654 550.413 453.254 529.843C459.187 511.063 460.249 505.441 458.459 503.255C456.585 500.965 456.668 499.987 458.855 498.696C463.497 496.093 466.35 472.92 472.284 390.452C474.074 365.967 473.991 358.493 472.117 356.203C470.743 354.496 470.326 351.81 471.222 349.79C472.034 347.916 472.596 345.314 472.45 344.086C472.284 342.878 473.408 340.754 475.053 339.38C476.906 337.819 478.051 333.509 478.051 328.221C478.051 323.432 478.946 319.518 480.091 319.518C481.153 319.518 482.027 323.432 482.027 328.221C482.027 333.509 483.172 337.819 485.046 339.38C486.67 340.754 487.899 342.878 487.733 344.086C487.566 345.314 488.065 347.916 488.877 349.79C489.773 351.81 489.439 354.496 487.982 356.286C486.358 358.243 485.941 362.47 486.753 368.653C487.398 373.775 488.877 394.095 489.918 413.791C492.854 464.946 497.081 494.386 501.89 497.717C504.971 499.924 505.221 501.132 503.43 504.067C501.556 506.982 502.618 512.187 508.635 530.655C515.214 550.58 516.755 553.598 520.503 553.598C524.334 553.598 524.729 554.494 524.084 561.489C523.438 568.401 524.979 571.733 538.408 592.22C546.694 604.837 554.335 615.163 555.48 615.163C556.542 615.163 557.437 616.059 557.437 617.183C557.437 618.412 550.754 618.974 539.699 618.661C522.293 618.162 521.897 617.995 523.021 613.602C526.353 600.361 502.202 582.622 480.903 582.788C459.75 582.955 437.722 598.403 437.722 613.123C437.722 619.057 437.722 619.057 420.233 619.057C410.552 619.057 402.661 618.328 402.661 617.433H402.744ZM421.691 609.063C423.814 605.565 421.524 605.066 417.464 608.168C414.133 610.687 414.05 611 416.965 611.083C418.838 611.166 420.962 610.187 421.607 609.063H421.691ZM430.477 608.168C432.517 605.732 432.35 605.233 429.665 605.233C427.791 605.233 426.813 606.044 427.375 607.023C428.041 608.002 427.374 609.292 426.084 609.875C424.46 610.437 424.376 610.937 425.834 611C427.062 611.083 429.165 609.792 430.56 608.168H430.477ZM543.613 609.146C545.799 609.063 545.632 608.481 542.863 606.857C540.51 605.566 538.72 605.482 537.908 606.69C537.18 607.752 535.306 609.147 533.682 609.875C532.058 610.604 532.953 610.771 535.639 610.188C538.408 609.709 541.968 609.23 543.613 609.146ZM433.475 601.256C432.829 600.111 433.558 599.215 435.182 599.215C436.91 599.215 438.763 598.32 439.429 597.258C440.075 596.217 439.013 595.322 437.056 595.322C435.036 595.322 432.351 597.092 430.956 599.215C428.853 602.547 429.019 603.192 431.622 603.192C433.329 603.192 434.141 602.297 433.475 601.256ZM529.205 598.736C528.726 597.425 526.853 596.134 525.062 595.967C522.46 595.718 522.377 595.884 524.729 596.613C526.437 597.175 527.248 598.403 526.602 599.382C526.04 600.444 526.52 601.256 527.749 601.256C529.04 601.256 529.705 600.111 529.205 598.736ZM428.52 597.258C428.52 596.217 427.708 595.322 426.646 595.322C425.605 595.322 424.21 596.217 423.564 597.258C422.919 598.404 423.731 599.215 425.438 599.215C427.145 599.215 428.52 598.404 428.52 597.258ZM438.763 589.138C436.077 588.077 432.746 588.077 430.956 589.138C428.603 590.429 429.914 590.929 435.598 590.929C442.261 590.846 442.761 590.596 438.763 589.138ZM523.751 590.429C523.751 588.327 519.94 587.515 518.795 589.284C518.15 590.43 518.962 591.325 520.669 591.325C522.377 591.325 523.751 590.929 523.751 590.429ZM446.341 585.391C448.944 583.684 448.861 583.434 446.008 583.434C444.135 583.351 442.115 584.246 441.449 585.391C439.908 587.91 442.51 587.91 446.425 585.391H446.341ZM527.749 585.391C527.749 584.246 526.269 583.351 524.646 583.351C522.938 583.351 522.043 584.246 522.793 585.391C523.438 586.453 524.813 587.348 525.874 587.348C526.853 587.348 527.749 586.453 527.749 585.391ZM461.79 557.908C462.435 556.201 461.374 555.452 459.187 555.951C457.23 556.284 455.19 557.825 454.711 559.282C454.149 560.99 455.128 561.718 457.397 561.239C459.354 560.906 461.29 559.366 461.79 557.908ZM470.159 557.409C470.159 556.43 468.869 555.618 467.245 555.618C465.538 555.618 464.226 556.93 464.226 558.554C464.226 560.261 465.372 560.99 467.245 560.261C468.869 559.699 470.159 558.387 470.159 557.409ZM444.384 557.575C444.384 556.513 443.489 555.618 442.427 555.618C441.282 555.618 440.387 556.513 440.387 557.575C440.387 558.72 441.282 559.615 442.427 559.615C443.489 559.615 444.384 558.72 444.384 557.575ZM452.358 557.575C452.358 556.513 450.964 555.618 449.34 555.618C447.716 555.618 446.341 556.513 446.341 557.575C446.341 558.72 447.716 559.615 449.34 559.615C450.964 559.615 452.358 558.72 452.358 557.575ZM480.091 557.575C480.091 556.513 478.779 555.618 477.155 555.618C475.447 555.618 474.157 556.513 474.157 557.575C474.157 558.72 475.447 559.615 477.155 559.615C478.779 559.615 480.091 558.72 480.091 557.575ZM488.065 557.575C488.065 556.513 486.67 555.618 485.046 555.618C483.422 555.618 482.111 556.513 482.111 557.575C482.111 558.72 483.422 559.615 485.046 559.615C486.67 559.615 488.065 558.72 488.065 557.575ZM496.996 557.575C496.268 556.513 494.478 555.618 492.854 555.618C491.313 555.618 490.001 556.513 490.001 557.575C490.001 558.72 491.876 559.615 494.083 559.615C496.352 559.615 497.642 558.72 496.996 557.575ZM505.866 557.575C505.866 556.513 504.576 555.618 502.931 555.618C501.307 555.618 499.933 556.513 499.933 557.575C499.933 558.72 501.307 559.615 502.931 559.615C504.576 559.615 505.866 558.72 505.866 557.575ZM513.84 557.575C513.84 556.513 512.445 555.618 510.821 555.618C509.197 555.618 507.907 556.513 507.907 557.575C507.907 558.72 509.197 559.615 510.821 559.615C512.445 559.615 513.84 558.72 513.84 557.575ZM521.732 557.575C521.732 556.513 520.419 555.618 518.795 555.618C517.171 555.618 515.797 556.513 515.797 557.575C515.797 558.72 517.171 559.615 518.795 559.615C520.419 559.615 521.732 558.72 521.732 557.575ZM491.396 535.777C487.399 517.892 487.399 517.892 480.82 517.892C473.741 517.892 474.22 516.914 470.077 536.755C468.952 542.21 467.557 548.227 466.995 550.184C466.016 553.265 467.557 553.598 480.653 553.598H495.372L491.396 535.777ZM458.126 546.52C457.064 545.208 456.751 542.522 457.48 540.503C458.459 537.4 458.292 537.234 456.502 539.774C455.357 541.398 454.295 541.794 454.295 540.732C454.233 539.608 453.254 540.336 452.192 542.21C449.589 546.603 451.297 549.518 456.252 549.122C458.938 548.872 459.5 548.144 458.126 546.52ZM464.788 543.584C465.683 540.253 465.371 539.92 463.081 541.794C461.54 543.105 460.812 544.979 461.374 545.937C462.998 548.539 463.663 548.06 464.788 543.584ZM510.592 544.729C509.364 541.564 505.866 540.586 505.866 543.334C505.866 545.458 508.052 547.644 510.093 547.644C510.988 547.644 511.238 546.353 510.592 544.729ZM499.933 543.667C499.933 542.606 499.037 541.71 497.975 541.71C496.83 541.71 495.935 542.606 495.935 543.667C495.935 544.812 496.83 545.708 497.975 545.708C499.037 545.708 499.933 544.812 499.933 543.667ZM496.83 533.986C497.413 533.008 496.685 531.217 495.123 529.926C492.854 528.052 492.521 528.385 493.333 531.717C494.561 536.193 495.206 536.589 496.83 533.986ZM468.202 531.8C468.202 530.738 467.307 529.843 466.183 529.843C465.121 529.843 464.226 530.738 464.226 531.8C464.226 532.862 465.121 533.757 466.183 533.757C467.307 533.757 468.202 532.862 468.202 531.8ZM503.825 529.76C499.203 526.761 496.831 527.573 501.078 530.655C503.181 532.196 505.304 533.007 505.866 532.529C506.345 532.029 505.449 530.738 503.825 529.76ZM462.269 521.786C462.269 520.745 461.373 519.912 460.249 519.912C459.187 519.912 458.292 521.306 458.292 523.014C458.292 524.721 459.187 525.533 460.249 524.887C461.373 524.159 462.269 522.764 462.269 521.786ZM470.159 522.764C470.159 521.057 469.264 520.245 468.14 520.89C467.078 521.619 466.662 523.014 467.308 523.992C468.952 526.761 470.159 526.262 470.159 522.764ZM503.909 522.931C503.909 522.597 502.784 521.39 501.389 520.245C499.432 518.621 498.787 519.016 498.787 521.786C498.787 523.909 499.849 524.971 501.389 524.388C502.784 523.909 503.909 523.18 503.909 522.931ZM494.895 519.766C493.021 516.747 490.002 517.642 491.314 520.89C491.876 522.514 493.27 523.347 494.227 522.681C495.206 522.119 495.54 520.744 494.895 519.766ZM490.001 498.134C490.001 497.072 488.711 496.739 487.087 497.384C485.38 497.967 484.068 498.863 484.068 499.258C484.068 499.675 485.38 500.07 487.087 500.07C488.711 500.07 490.001 499.175 490.001 498.134ZM470.159 494.136C470.159 492.991 469.264 492.116 468.202 492.116C467.078 492.116 466.183 492.991 466.183 494.136C466.183 495.198 467.078 496.093 468.202 496.093C469.264 496.093 470.159 495.198 470.159 494.136ZM482.111 493.241C482.111 491.138 478.3 490.243 477.155 492.116C476.426 493.157 477.238 494.136 478.945 494.136C480.652 494.136 482.111 493.741 482.111 493.241ZM474.157 489.181C474.157 487.474 473.346 486.162 472.284 486.162C469.765 486.162 467.974 489.264 469.598 490.888C471.784 493.074 474.157 492.179 474.157 489.181ZM490.251 487.557C487.649 485.038 485.129 486.974 487.003 490.076C487.732 491.221 489.19 491.617 490.335 490.972C491.709 490.076 491.625 489.014 490.167 487.557H490.251ZM470.159 484.226C470.159 483.081 469.264 482.186 468.202 482.186C467.078 482.186 466.183 483.081 466.183 484.226C466.183 485.267 467.078 486.162 468.202 486.162C469.264 486.162 470.159 485.267 470.159 484.226ZM482.111 481.936C482.111 480.874 481.216 480.562 480.091 481.207C479.03 481.852 478.134 483.331 478.134 484.372C478.134 485.517 479.03 485.85 480.091 485.184C481.216 484.455 482.111 483.081 482.111 481.936ZM493.999 483.081C493.999 481.373 493.103 480.562 491.958 481.207C490.813 481.936 490.501 483.33 491.063 484.309C492.77 487.057 493.999 486.579 493.999 483.081ZM474.303 477.709C474.074 475.357 471.305 475.752 470.493 478.355C470.077 479.666 470.743 480.312 472.034 479.916C473.345 479.5 474.386 478.438 474.303 477.709ZM490.979 478.209C491.708 477.147 490.813 476.252 489.106 476.252C487.399 476.252 486.025 477.147 486.025 478.209C486.025 479.333 486.92 480.229 487.899 480.229C488.961 480.229 490.334 479.333 490.979 478.209ZM471.055 472.421C471.701 471.359 471.305 469.985 470.243 469.339C469.098 468.611 468.202 469.506 468.202 471.213C468.202 474.628 469.348 475.19 471.055 472.421ZM476.094 466.321C476.094 465.259 475.198 464.364 474.157 464.364C473.095 464.364 472.2 465.259 472.2 466.321C472.2 467.383 473.095 468.278 474.157 468.278C475.198 468.278 476.094 467.383 476.094 466.321ZM492.042 461.032C492.042 460.637 490.252 458.284 488.065 455.911C485.859 453.641 484.068 452.663 484.068 453.954C484.068 455.182 484.963 456.722 486.025 457.389C487.17 458.117 488.065 459.491 488.065 460.637C488.065 461.698 487.003 461.928 485.774 461.199C484.4 460.304 483.984 460.637 484.796 461.928C486.024 463.968 492.042 463.239 492.042 461.032ZM477.572 448.436C478.3 446 478.051 446 476.51 448.186C475.449 449.727 473.574 450.393 472.367 449.581C471.138 448.831 470.159 449.248 470.159 450.476C470.159 453.724 476.676 452.017 477.572 448.436ZM482.444 340.921C480.653 339.047 479.591 339.047 477.718 340.921C475.865 342.795 476.427 343.357 480.091 343.357C483.818 343.357 484.317 342.795 482.444 340.921ZM474.47 458.347C475.552 458.388 475.761 459.263 475.115 460.387C474.47 461.449 474.885 462.344 476.01 462.344C478.612 462.344 478.613 460.303 476.094 456.41C474.386 453.808 473.991 453.808 472.2 456.41C471.138 458.034 470.326 460.304 470.41 461.365C470.493 462.427 470.972 462.26 471.555 460.886C472.013 459.533 473.345 458.409 474.386 458.347H474.47ZM346.218 196.388C347.363 191.037 346.863 189.33 342.97 186.311C338.243 182.73 338.243 182.73 344.76 182.647C350.361 182.647 351.423 181.834 352.401 176.629C353.047 173.382 354.275 170.696 355.087 170.696C355.899 170.696 357.106 173.382 357.773 176.629C358.834 181.834 359.876 182.647 365.497 182.647C371.993 182.73 371.993 182.73 367.121 186.79C362.811 190.371 362.478 191.516 364.435 196.638C367.038 203.383 366.642 203.633 359.959 199.24C355.483 196.304 354.67 196.304 349.965 199.407C344.76 202.821 344.76 202.821 346.218 196.388ZM595.33 197.054C597.204 192.244 596.788 191.099 591.833 187.123C586.212 182.646 586.211 182.647 593.373 182.647C599.723 182.647 600.786 181.834 602.576 176.15L604.595 169.717L607.031 176.15C609.072 181.522 610.446 182.647 615.651 182.647C621.918 182.73 621.917 182.729 616.546 186.727C611.923 190.225 611.507 191.432 613.131 195.909C615.65 202.571 614.027 204.049 609.155 199.573C605.407 196.242 604.845 196.242 600.202 199.24C593.54 203.633 592.978 203.3 595.33 197.054ZM396.81 197.366C396.81 196.638 397.872 192.411 399.163 188.018C401.516 180.127 401.516 180.044 393.708 173.465L385.818 166.802H396.144C406.242 166.719 406.409 166.636 408.761 159.307C412.509 147.752 413.154 147.606 416.006 157.35C418.692 166.553 418.692 166.553 428.936 167.115L439.179 167.76L430.956 173.381C424.127 178.087 423.065 179.732 424.376 183.292C425.272 185.666 426.562 190.142 427.312 193.306C428.686 198.99 428.686 198.99 420.712 192.661L412.655 186.228L404.701 192.578C400.391 195.992 396.81 198.178 396.81 197.366ZM464.226 187.539C467.974 176.629 467.973 176.629 459.271 170.217C454.461 166.636 450.485 163.138 450.401 162.409C450.401 161.597 455.357 160.702 461.624 160.369C472.846 159.807 472.846 159.807 476.26 149.876C479.591 139.944 479.591 139.944 481.798 145.483C483.006 148.585 484.568 153.207 485.296 155.893C486.358 160.369 487.399 160.765 498.143 160.765C504.576 160.765 509.842 161.514 509.842 162.326C509.78 163.138 505.783 166.469 500.912 169.717C490.731 176.546 491.063 175.484 494.977 186.56C499.287 198.844 498.871 199.157 488.794 191.516L479.675 184.52L471.138 191.516C466.412 195.347 462.102 198.511 461.54 198.511C460.895 198.511 462.186 193.556 464.226 187.539ZM533.036 189.329C536.201 180.127 536.201 180.127 528.477 173.465L520.753 166.865L530.829 166.802C540.927 166.719 540.927 166.719 543.842 157.35L546.861 147.919L549.776 156.788C552.795 165.74 552.878 165.74 563.455 166.719L574.011 167.76L565.808 173.465C561.165 176.629 557.5 179.398 557.5 179.648C557.5 179.877 558.811 183.958 560.435 188.58C562.059 193.223 563.455 197.449 563.455 197.949C563.455 198.428 559.707 196.075 555.148 192.827C546.944 186.727 546.944 186.727 539.532 192.578C535.473 195.825 531.641 198.511 530.995 198.511C530.433 198.511 531.412 194.368 533.036 189.329ZM475.198 807.666C474.469 806.438 477.488 801.4 481.965 796.361C490.813 786.263 492.125 781.808 486.025 781.808C483.901 781.808 482.111 782.703 482.111 783.744C482.111 784.889 480.321 785.785 478.134 785.785C475.948 785.785 474.157 784.889 474.157 783.744C474.157 780.663 481.715 773.834 485.213 773.834C496.435 773.834 499.432 785.222 490.979 795.383C485.941 801.316 485.941 801.317 491.396 801.962C494.727 802.378 496.914 803.836 496.914 805.626C496.914 809.207 477.239 811.081 475.115 807.666H475.198ZM505.95 807.25C505.95 805.793 508.135 799.859 510.821 794.008C517.254 780.329 517.171 780.163 508.385 779.435C497.246 778.456 500.328 774.812 512.383 774.812C525.458 774.812 526.124 777.644 517.255 795.632C511.238 807.666 505.866 813.184 505.866 807.25H505.95ZM528.727 807.583C527.999 806.355 529.934 802.211 533.036 798.318C542.051 786.929 542.302 786.43 540.928 782.766C539.616 779.518 539.283 779.518 535.951 782.536C534.015 784.327 531.246 785.785 529.851 785.785C525.707 785.785 528.477 779.122 533.932 776.02C538.638 773.417 539.699 773.417 544.342 776.519C551.171 780.996 550.921 786.43 543.446 795.862L537.263 803.586H544.571C549.547 803.586 551.567 804.418 551.005 806.126C549.943 809.207 530.518 810.581 528.727 807.583ZM407.137 805.064C407.616 803.752 410.136 796.528 412.738 789.116C419.171 770.503 423.231 771.231 430.81 792.218C436.244 807.083 436.244 807.583 432.434 807.583C430.227 807.583 427.874 806.188 427.229 804.564C426.562 802.857 423.647 801.649 420.399 801.649C416.569 801.649 414.612 802.628 414.612 804.564C414.612 806.272 412.821 807.583 410.468 807.583C407.949 807.583 406.637 806.605 407.137 805.064ZM423.814 792.53C423.064 790.823 422.586 788.387 422.503 787.076C422.503 783.994 418.692 789.928 418.609 793.176C418.609 794.571 420.067 795.715 421.774 795.715C423.897 795.715 424.543 794.571 423.814 792.53ZM438.846 791.239L439.429 774.812L449.839 774.23C459.271 773.667 460.249 774.063 460.249 777.727C460.249 781.058 459.021 781.808 453.337 781.808C447.715 781.808 446.425 782.537 446.425 785.785C446.425 788.866 447.716 789.678 452.358 789.678C456.335 789.678 458.292 790.74 458.292 792.697C458.292 794.654 456.335 795.715 452.358 795.715C447.07 795.715 446.425 796.361 446.425 801.649C446.425 806.271 445.53 807.583 442.344 807.583C438.534 807.583 438.284 806.521 438.846 791.239ZM17.905 529.843C18.8627 531.467 19.7584 531.8 19.7584 530.655C19.8417 527.324 12.3669 521.307 10.0142 522.764C8.86911 523.493 7.89078 525.866 7.89078 527.969C7.89078 531.384 8.36979 531.55 11.9509 529.364C15.3029 527.24 16.2602 527.324 17.905 529.843ZM25.7754 504.067C25.7754 502.922 24.8799 502.027 23.7556 502.027C22.6937 502.027 21.7986 502.922 21.7986 504.067C21.7986 505.129 22.6937 506.004 23.7556 506.004C24.8799 506.004 25.7754 505.129 25.7754 504.067ZM947.003 499.175C948.127 496.177 943.338 490.805 941.86 493.491C938.612 499.425 938.695 502.027 942.193 502.027C944.233 502.027 946.42 500.799 947.003 499.175ZM939.195 408.253C942.61 408.899 944.067 408.087 944.879 405.089C946.17 400.133 944.962 398.905 939.029 398.905C933.574 398.905 933.74 400.612 934.385 339.38C934.718 311.481 935.531 298.219 937.155 297.24C938.779 296.179 938.696 295.783 936.905 295.783C935.531 295.7 934.385 294.159 934.385 292.285C934.385 290.411 930.639 285.123 926.1 280.417C918.521 272.756 918.292 270.486 925.204 271.715C926.099 271.86 928.619 271.465 930.722 270.819C933.824 269.841 934.136 269.029 932.262 266.739C929.909 263.907 916.334 262.762 916.813 265.448C916.896 266.26 916.897 267.801 916.731 268.946C916.647 270.008 881.274 235.28 838.176 191.766C795.162 148.251 760.267 112.066 760.746 111.317C761.163 110.671 759.039 108.964 756.124 107.673C753.106 106.361 733.014 86.9365 711.465 64.5549L672.177 23.8931L598.412 24.1428C528.81 24.3094 525.792 24.4758 543.53 26.9118C745.048 54.894 905.924 222.101 931.783 430.614C933.407 443.544 933.407 443.544 933.99 425.409C934.552 407.775 934.635 407.441 939.195 408.253ZM38.6419 368.966C72.9534 235.925 166.561 121.893 288.15 64.971C326.543 47.0032 376.969 32.1167 416.569 26.995C437.472 24.3925 437.472 24.3927 398.747 23.8931C377.448 23.664 361.583 23.0809 363.374 22.602C369.89 20.8115 368.995 16.4187 361.916 15.1071C353.63 13.5664 350.444 15.1067 351.756 20.166C352.734 23.7262 351.089 23.8931 320.442 23.8931H288.15L25.7754 286.747L25.9419 361.158C26.1917 435.59 26.1915 435.59 29.9391 411.751C32.0419 398.655 35.8728 379.376 38.6419 368.966ZM896.722 224.287C892.829 221.768 890.226 221.768 891.766 224.287C892.412 225.349 894.537 226.244 896.327 226.244C899.263 226.244 899.325 225.911 896.722 224.287ZM805.488 131.012C805.488 129.951 803.927 129.055 801.991 129.055C799.056 129.139 798.971 129.388 801.491 131.012C805.238 133.448 805.488 133.448 805.488 131.012ZM738.635 75.4643C739.759 70.9047 737.74 69.0311 733.263 70.7383C730.911 71.6336 730.66 72.7784 732.201 75.7141C734.804 80.586 737.24 80.5028 738.635 75.4643Z" fill="#383B40"/>
</svg>
