<svg width="958" height="868" viewBox="0 0 958 868" fill="none" xmlns="http://www.w3.org/2000/svg">
<path fill-rule="evenodd" clip-rule="evenodd" d="M426.893 866.99C258.573 848.58 108.839 748.838 41.4669 610.412C-20.0094 484.04 -12.8208 340.464 60.9727 221.457C94.8778 166.753 151.642 110.865 208.757 75.9299C270.124 38.3428 330.066 16.0755 401.032 4.52544C432.46 -0.515392 508.731 -1.63307 542.197 2.64068C637.842 14.6291 726.955 52.1286 799.718 110.778C815.301 123.445 817.361 125.834 817.361 131.664C817.361 135.346 818.216 138.327 819.246 138.327C820.276 138.327 820.627 136.464 820.013 134.228C818.128 127.04 822.161 129.779 839.015 146.984C900.579 209.907 936.193 277.366 953.398 363.674C956.313 378.468 957.08 392.1 957.08 434.049C956.992 490.199 956.137 497.388 943.732 542.076C897.839 706.714 745.452 833.852 558.393 863.374C537.573 866.64 446.575 869.116 426.893 866.99ZM440.153 851.912C440.153 845.928 440.153 845.928 479.362 846.016C543.929 846.082 592.123 837.797 651.452 816.297C753.145 779.477 844.078 702.089 892.185 611.42C940.818 519.743 949.453 410.159 915.898 311.622C873.621 187.727 762.569 84.8282 626.883 43.6468C570.448 26.5299 528.938 21.1384 466.278 22.5849C369.866 24.9081 285.706 51.0985 208.319 102.888C51.5706 207.759 -13.5879 385.678 42.738 555.007C92.7518 705.18 241.457 820.242 414.138 842.487C426.192 844.044 436.646 845.841 437.238 846.432C437.939 847.112 437.501 849.26 436.471 851.32C434.258 855.594 435.441 860.81 438.268 859.1C439.299 858.421 440.153 855.243 440.153 851.912ZM462.596 836.417C377.494 831.617 306.527 811.41 240.602 773.143C127.161 707.218 54.4856 604.757 37.3468 486.429C32.4813 452.7 33.9275 394.905 40.5244 363.148C43.6804 347.828 46.1792 340.201 47.9764 340.201C49.4229 340.201 50.628 339.259 50.628 338.075C50.628 336.87 49.6858 336.454 48.4803 337.221C43.1765 340.464 57.9045 298.866 72.1942 270.265C92.226 230.114 115.173 198.444 147.785 165.898C241.018 72.9275 370.721 24.8205 507.438 32.5132C547.348 34.7487 603.257 44.2386 603.257 48.7972C603.257 49.7177 604.528 50.0682 605.996 49.4764C609.415 48.0957 643.562 58.8787 666.509 68.5659C752.641 104.772 828.67 169.492 872.832 244.163C936.018 351.072 942.439 479.767 890.058 591.739C849.469 678.551 764.454 758.415 670.958 797.624C615.75 820.834 568.738 831.792 508.468 835.65C490.584 836.855 475.439 837.622 474.825 837.359C474.234 837.184 468.755 836.767 462.596 836.417ZM532.97 826.576C604.528 818.27 673.193 794.556 729.694 758.678C745.102 748.838 749.638 746.865 751.962 748.75C754.35 750.635 754.701 750.459 753.583 747.632C752.641 744.98 757.353 740.027 773.111 727.008C867.265 649.533 917.104 548.081 917.279 433.435C917.367 336.782 880.963 248.436 811.29 176.352C695.614 56.6652 517.629 10.0924 351.457 55.9859C244.613 85.5077 148.486 156.145 94.7025 244.666C14.6628 376.605 24.8543 538.394 121.003 661.346C134.613 678.726 187.52 731.874 192.561 733.255C193.591 733.518 198.566 736.761 203.607 740.531C293.421 807.311 417.908 839.836 532.97 826.576ZM664.382 632.241C647.77 612.209 647.77 612.209 650.838 609.623C652.811 608.001 656.251 610.741 665.412 621.524C677.05 635.309 677.379 635.484 682.179 632.394C689.543 627.529 693.313 632.241 686.716 637.873C676.437 646.618 676.283 646.618 664.382 632.241ZM113.2 633.951C110.636 629.589 110.373 627.616 112.082 626.499C114.756 624.877 122.033 632.57 122.033 637.106C122.033 641.994 116.882 640.197 113.2 633.951ZM268.173 634.191C266.288 632.153 264.732 628.975 264.732 627.178C264.732 622.904 284.26 599.695 289.213 598.16C298.812 595.07 306.177 605.941 300.434 614.685C297.695 618.872 296.577 619.398 294.1 617.337C292.04 615.628 291.712 614.16 293.246 612.713C296.161 609.798 295.898 605.261 292.829 605.261C289.827 605.261 272.863 624.351 272.863 627.704C272.863 628.975 274.419 629.743 276.216 629.414C279.635 628.712 281.783 625.731 284.085 618.696C285.29 614.861 285.465 614.861 289.739 619.135C294.1 623.584 294.1 623.584 287.175 630.773C279.46 638.663 273.214 639.846 268.173 634.191ZM837.743 634.981C837.743 633.337 839.957 629.414 842.697 626.323C846.905 621.436 847.847 621.107 848.965 624.022C850.586 628.033 844.581 637.873 840.571 637.873C839.015 637.873 837.743 636.602 837.743 634.981ZM682.771 609.206C670.717 593.361 670.366 592.594 673.785 588.824C675.67 586.676 677.905 584.879 678.585 584.879C679.264 584.879 686.212 589.591 694.08 595.246C701.882 600.988 709.575 606.379 711.109 607.234C712.841 608.176 713.432 610.324 712.753 612.275C711.635 615.014 710.605 615.19 707.186 613.393C702.035 610.653 695.373 614.598 699.055 618.28C702.035 621.282 701.619 625.644 698.287 625.644C696.644 625.644 689.719 618.28 682.771 609.206ZM695.789 607.826C696.315 606.883 693.488 604.056 689.455 601.492C682.179 596.714 682.179 596.714 686.716 603.048C691.165 609.382 693.905 610.741 695.702 607.826H695.789ZM101.738 615.102C96.4339 606.467 99.8528 601.667 105.748 609.382C110.132 615.014 110.811 618.696 107.721 620.581C106.691 621.283 103.951 618.784 101.738 615.102ZM851.529 616.307C849.556 614.335 856.57 601.251 859.572 601.251C863.167 601.251 862.904 606.379 858.981 612.45C855.627 617.601 853.743 618.543 851.529 616.307ZM245.906 613.305C238.103 608.768 241.456 600.308 256.097 587.114C263.614 580.342 270.978 574.797 272.359 574.71C277.926 574.71 274.419 580.342 261.752 592.002C251.736 601.163 248.908 604.998 250.267 607.146C251.801 609.469 255.155 607.497 266.529 597.306C279.132 586.26 285.115 583.433 285.115 588.649C285.115 591.476 256.272 615.453 252.919 615.453C251.034 615.365 247.878 614.423 245.906 613.305ZM90.1002 594.303C87.4263 588.736 87.1851 586.347 88.8946 584.55C90.6041 582.841 92.1382 584.112 94.7901 589.679C97.442 595.246 97.7052 597.722 95.9957 599.454C94.2862 601.251 92.7521 599.87 90.1002 594.303ZM707.273 590.709C699.997 585.054 692.195 579.071 689.981 577.537C686.299 574.951 686.212 574.447 689.28 571.356C692.37 568.376 693.4 568.376 702.299 571.356L711.985 574.71L704.008 567.674C697.411 561.954 696.644 560.486 699.471 559.368C704.096 557.571 736.116 581.811 734.494 585.997C732.96 589.942 730.724 589.679 716.939 584.024C710.517 581.372 705.213 579.487 705.213 579.838C705.213 580.189 709.838 583.871 715.492 588.057C724.982 594.982 727.218 599.015 722.418 600.549C721.388 600.812 714.55 596.451 707.273 590.709ZM225.436 587.618C219.365 579.071 217.568 581.46 242.574 563.839C257.631 553.209 257.807 553.122 259.253 557.154C260.02 559.039 255.154 563.751 245.38 570.765C230.827 581.197 230.498 581.548 233.479 586.172C236.394 590.533 235.802 595.07 232.295 595.07C231.441 595.07 228.351 591.739 225.436 587.618ZM863.254 593.098C861.457 590.205 867.967 578.808 871.473 578.808C875.331 578.808 875.243 581.548 871.298 589.087C868.142 595.245 865.402 596.626 863.254 593.098ZM81.6182 576.156C78.3526 572.299 76.5555 563.05 78.791 561.691C81.3553 560.157 84.621 564.08 86.3305 570.94C87.777 576.836 84.8619 580.189 81.6182 576.156ZM723.185 561.165C705.477 549.966 705.477 549.966 709.487 543.106C715.142 533.616 717.706 533.265 731.163 540.366C745.781 548.169 750.077 551.851 750.077 556.716C750.077 561.341 744.51 572.737 742.362 572.474C741.595 572.474 732.96 567.345 723.185 561.165ZM742.976 558.36C742.976 553.889 719.591 541.133 716.764 544.048C714.966 545.845 715.141 546.876 717.465 548.169C719.174 549.199 724.654 552.705 729.694 556.037C739.294 562.37 742.976 563.05 742.976 558.36ZM873.775 571.115C871.978 568.288 878.311 556.387 881.489 556.387C885.5 556.387 885.5 559.039 881.577 566.644C878.487 572.562 875.66 574.184 873.775 571.115ZM206.96 559.039C204.045 556.124 206.171 554.152 224.252 543.018C244.109 530.701 243.166 530.788 249.5 542.514C253.27 549.264 253.27 549.527 249.412 550.996C247.352 551.763 245.467 550.382 244.021 547.138C241.281 541.133 240.777 541.046 234.268 546.021C229.885 549.352 229.644 550.294 232.12 553.209C234.509 556.124 234.509 556.891 231.945 558.513C229.972 559.719 228.087 559.127 225.961 556.299C222.959 552.354 222.871 552.355 216.8 556.387C210.116 560.749 208.998 561.099 206.96 559.039ZM70.0462 547.73C67.1532 540.717 67.6573 537.977 71.8434 537.977C74.5172 537.977 79.5582 551.237 77.5857 553.209C75.1092 555.686 72.72 553.976 70.0462 547.73ZM883.791 548.41C882.256 545.845 884.733 534.12 887.144 532.586C891.505 529.934 893.039 535.501 890.058 542.843C886.793 550.47 885.675 551.5 883.791 548.41ZM64.3259 528.29C61.8274 523.841 61.0605 515.622 63.033 514.439C66.211 512.466 68.6876 515.622 70.2218 523.249C71.2519 528.378 70.8355 529.846 68.337 529.846C66.6275 529.846 64.7423 529.145 64.3259 528.29ZM889.971 524.016C888.174 521.101 892.951 507.075 895.538 507.93C898.869 509.047 899.461 513.913 897.072 520.334C894.924 525.726 892.009 527.282 889.971 524.016ZM59.0223 503.634C55.7567 497.65 56.1949 489.081 59.7015 489.081C61.4987 489.081 63.2083 491.909 64.0631 496.358C65.6849 505.102 62.3537 509.968 59.0223 503.634ZM895.604 498.242C894.157 494.407 897.488 484.457 900.579 483.449C903.143 482.506 903.997 492.347 901.784 498.089C900.228 502.1 897.16 502.187 895.604 498.242ZM196.155 488.051C197.009 484.632 198.127 480.358 198.653 478.561C199.245 476.413 196.856 472.907 191.969 468.874L184.254 462.54H194.029C203.519 462.54 203.869 462.387 207.551 453.905C211.562 444.481 211.321 444.305 216.8 459.976C217.392 461.532 221.6 462.54 227.496 462.628C238.038 462.628 238.037 462.474 225.348 471.701C222.104 474.025 221.929 475.383 223.726 482.068C226.466 491.821 225.699 492.61 218.159 487.196C210.554 481.805 210.883 481.805 202.072 488.577C194.708 494.144 194.708 494.144 196.155 488.051ZM734.582 487.898C735.349 484.545 736.467 480.358 736.971 478.473C737.65 476.238 735.436 473.082 730.812 469.312L723.536 463.57L732.96 462.54C742.033 461.598 742.625 461.093 745.957 452.436L749.463 443.451L752.466 452.436C755.381 461.093 755.972 461.598 764.454 462.54L773.44 463.57L766.514 468.962C759.654 474.288 759.567 474.704 761.89 482.155C764.805 491.821 764.038 492.61 756.498 487.196C748.871 481.805 748.872 481.805 740.302 488.402C733.114 493.793 733.113 493.793 734.582 487.898ZM53.8719 477.706C51.3076 470.846 52.5131 464.271 56.2827 464.951C60.8852 465.806 62.7041 480.863 58.1455 480.863C56.436 480.863 54.5513 479.416 53.8719 477.706ZM900.316 471.372C898.102 469.137 898.782 456.82 901.171 455.264C905.116 452.787 907.68 457.85 906.233 465.455C904.94 472.49 903.143 474.2 900.316 471.372ZM51.3952 453.905C49.335 448.513 51.3954 439.265 54.6391 439.265C56.8746 439.265 57.7291 441.478 57.7291 447.22C57.7291 455.351 53.6088 459.647 51.3952 453.905ZM900.929 439.44C900.929 432.339 901.696 430.103 904.085 430.103C906.562 430.103 907.088 431.988 906.65 438.585C905.707 450.727 900.929 451.516 900.929 439.44ZM51.3952 429.424C49.2473 423.682 51.3954 414.871 55.2527 414.082C58.4087 413.49 58.847 414.696 58.321 422.148C57.7293 430.783 53.6088 435.144 51.3952 429.424ZM899.811 415.638C898.343 408.954 901.017 404.154 904.765 406.565C906.058 407.245 907 411.014 907 414.959C907 423.945 901.784 424.449 899.811 415.638ZM52.6008 400.056C52.6008 396.79 53.8717 392.341 55.4935 390.215C58.1454 386.621 58.5837 386.621 59.7892 389.602C62.0027 395.519 59.9648 404.505 56.1951 405.272C53.4555 405.798 52.6008 404.505 52.6008 400.056ZM898.102 394.226C896.392 389.952 896.458 382.15 898.19 380.44C900.929 377.788 905.028 383.881 905.028 390.544C905.028 397.82 900.403 400.319 898.102 394.226ZM56.6991 374.545C56.7868 365.8 59.7018 360.934 62.9454 364.178C66.211 367.444 63.5589 381.142 59.6139 381.142C57.6414 381.142 56.6991 378.994 56.6991 374.545ZM894.069 368.386C892.009 360.847 892.535 356.639 895.604 356.639C898.869 356.639 900.929 361.022 900.929 368.035C900.929 374.282 895.691 374.545 894.069 368.386ZM61.7619 354.601C59.7017 351.247 64.83 338.316 68.249 338.316C70.8352 338.316 71.0765 339.873 69.9807 345.943C67.9205 356.726 65.0056 359.904 61.7619 354.601ZM888.766 344.585C885.675 338.843 886.114 332.158 889.62 332.158C892.535 332.158 897.072 343.883 895.362 346.973C893.894 349.713 890.913 348.595 888.766 344.585ZM68.0079 330.361C66.5395 327.972 72.4572 313.836 74.9338 313.836C78.7035 313.836 79.2073 317.868 76.2267 324.969C73.2241 332.07 70.3092 334.043 68.0079 330.361ZM882.848 323.435C881.577 321.879 879.955 317.693 879.254 314.186C877.369 304.762 883.549 305.529 886.705 315.041C889.357 323.172 886.969 328.388 882.848 323.435ZM77.0814 304.762C77.0814 299.634 81.7061 291.415 84.5334 291.415C87.8647 291.415 88.04 295.689 84.8621 302.548C82.3855 308.115 77.0814 309.649 77.0814 304.762ZM871.298 295.425C868.142 289.354 868.646 285.322 872.591 285.322C874.3 285.322 880.547 297.223 880.547 300.576C880.547 304.258 873.95 300.576 871.298 295.425ZM88.0398 282.429C86.8344 279.163 92.5765 266.934 95.3161 266.934C99.1735 266.934 99.4146 270.944 96.0833 278.045C92.4013 285.76 89.8369 287.141 88.0398 282.429ZM860.932 274.122C857.776 269.235 858.192 262.901 861.72 262.901C864.021 262.901 870.355 276.424 868.821 277.98C866.498 280.281 864.285 279.163 860.932 274.122ZM99.5024 259.044C99.5024 253.389 106.866 245.017 109.518 247.669C110.987 249.116 110.373 251.768 107.634 256.304C103.184 263.668 99.5024 264.874 99.5024 259.044ZM848.965 252.798C845.195 245.434 845.02 242.431 848.439 242.431C851.77 242.431 858.718 254.003 857.096 256.742C854.86 260.337 852.121 258.956 848.965 252.798ZM111.754 238.332C111.754 234.563 118.263 226.169 121.156 226.169C124.838 226.169 124.685 229.259 120.652 235.418C117.321 240.48 111.666 242.277 111.666 238.332H111.754ZM835.683 232.349C831.497 226.52 831.585 222.07 835.771 222.07C838.335 222.07 845.875 234.563 844.582 236.711C842.697 239.779 840.045 238.508 835.683 232.349ZM125.189 220.361C124.597 219.419 125.452 216.832 126.986 214.706C129.221 211.704 130.317 211.441 132.29 213.326C134.262 215.298 134.262 216.504 132.202 218.98C129.309 222.487 126.723 222.925 125.189 220.361ZM662.147 214.181C657.435 210.433 657.435 210.432 665.742 197.414C671.812 187.902 676.196 177.119 681.587 157.855C685.686 143.302 689.455 130.196 689.893 128.837C690.836 125.922 703.066 131.993 703.066 135.434C703.066 136.53 700.764 144.748 698.025 153.669C695.285 162.567 693.313 170.194 693.729 170.61C694.168 171.048 701.027 165.81 708.983 158.972C723.185 146.633 723.448 146.545 728.577 149.899C731.404 151.696 733.727 153.822 733.727 154.611C733.727 155.882 695.46 186.784 689.893 189.962C688.513 190.729 683.472 197.414 678.672 204.69C673.873 212.054 669.248 218.038 668.393 218.038C667.539 218.038 664.711 216.328 662.147 214.181ZM821.723 213.326C816.594 207.847 816.002 203.748 820.188 203.748C823.783 203.748 831.914 213.764 830.379 216.241C828.67 219.068 826.435 218.389 821.723 213.326ZM272.534 211.024C269.795 208.372 261.488 195.792 253.949 183.19C237.95 156.496 236.482 148.781 245.818 140.124C258.749 128.07 268.502 127.982 278.868 139.707C286.408 148.277 286.474 149.724 279.899 153.997C274.748 157.351 274.507 157.35 268.765 150.491C263.877 144.683 262.343 143.981 259.253 145.866C253.007 149.636 253.949 152.901 268.414 177.207C279.723 196.296 283.318 200.833 287.504 201.272C294.955 202.214 296.161 196.8 290.857 186.193C287.504 179.421 285.465 177.47 282.791 178.325C279.372 179.421 274.836 174.292 274.836 169.405C274.836 166.84 288.972 158.534 291.098 159.827C294.1 161.712 307.711 186.017 308.828 191.584C312.423 209.403 285.377 223.955 272.534 211.024ZM136.235 206.137C136.235 200.483 145.812 192.176 148.815 195.179C150.7 197.064 149.933 199.036 145.396 203.748C138.624 210.761 136.235 211.441 136.235 206.137ZM805.373 194.916C801.011 190.313 799.389 183.366 802.633 183.366C805.811 183.366 815.652 195.266 814.359 197.502C812.32 200.746 810.348 200.154 805.373 194.916ZM621.996 192.352C618.401 190.73 615.399 189.195 615.399 188.932C615.399 188.669 616.78 176.944 618.489 162.983C622.259 131.138 622.171 127.04 618.051 136.464C598.194 182.774 599.137 181.152 592.715 178.916C589.471 177.711 586.819 176.528 586.819 176.089C586.819 174.292 619.848 98.5262 621.316 97.0797C622.171 96.2249 626.269 97.0797 630.39 98.9645C639.025 103.151 639.376 105.627 634.927 134.404C633.458 143.893 632.45 152.025 632.691 152.288C632.954 152.638 635.277 148.014 637.754 142.097C652.482 107.249 652.043 107.95 657.873 110.514C660.854 111.808 663.528 112.991 663.857 113.166C664.711 113.605 657.347 132.081 650.246 147.335C647.09 154.26 640.997 167.958 636.811 177.711C632.603 187.574 629.009 195.529 628.922 195.442C628.768 195.354 625.678 193.995 621.996 192.352ZM153.264 188.582C152.322 186.105 153.702 183.453 157.647 180.122C168.167 171.049 170.907 176.615 160.716 186.368C155.324 191.497 154.557 191.76 153.264 188.582ZM329.036 184.9C313.453 147.488 299.755 110.778 300.961 109.835C301.728 109.134 309.946 105.452 319.283 101.704C336.4 94.7565 338.525 94.8442 340.936 102.888C341.966 106.482 340.586 107.6 331.775 110.865C326.121 112.816 320.992 115.643 320.554 116.936C320.05 118.207 321.496 123.621 323.82 128.749C328.006 138.261 328.006 138.261 336.991 134.908C347.183 131.138 347.446 131.226 349.331 138.765C350.514 143.652 349.922 144.42 342.821 146.721C338.525 148.102 334.427 149.548 333.748 149.987C331.687 151.082 340.41 173.175 342.997 173.087C344.18 173.087 349.331 171.202 354.371 168.9C363.028 164.955 363.62 164.956 366.097 168.397C370.809 174.818 368.069 177.558 350.514 184.659C341.2 188.428 333.046 191.497 332.63 191.497C332.104 191.497 330.482 188.516 329.036 184.9ZM788.08 177.119C782.338 172.582 780.804 167.016 785.341 167.016C786.809 167.016 790.228 169.339 792.88 172.144C799.477 179.179 795.707 183.102 788.08 177.119ZM171.849 170.961C170.227 168.397 178.534 158.885 182.457 158.885C187.169 158.885 185.372 164.539 179.213 168.988C175.181 171.815 172.704 172.495 171.849 171.049V170.961ZM386.041 168.55C384.419 163.926 370.721 91.3374 370.721 87.6554C370.721 84.8281 373.373 83.4694 382.293 81.6722C405.919 76.9601 412.933 80.4668 417.469 99.2933C419.705 108.279 419.529 110.778 416.79 116.257C413.7 122.415 413.787 122.832 418.499 126.514C422.006 129.253 424.154 133.878 425.688 142.097C426.981 148.518 428.778 155.707 429.809 158.117C431.43 161.975 430.729 162.567 424.154 163.684C415.321 165.131 414.138 163.772 412.341 149.132C410.873 136.968 407.454 132.343 400.09 132.343C394.26 132.343 394.347 131.752 398.205 151.959C399.827 160.682 401.032 167.958 400.769 168.133C397.854 170.259 386.742 170.523 385.975 168.55H386.041ZM402.15 117.024C404.275 114.788 404.889 111.808 404.034 107.337C401.974 96.4661 399.585 93.6388 392.901 93.6388C388.013 93.6388 386.983 94.3401 387.772 97.1673C388.364 99.1179 389.482 105.123 390.161 110.427C391.695 120.881 395.903 123.182 402.062 117.024H402.15ZM561.9 169.668C559.248 168.988 558.306 166.665 558.306 161.033C558.306 154.699 557.451 152.967 553.769 152.025C543.994 149.373 540.838 150.49 538.362 157.504C536.126 163.509 535.184 164.188 529.792 163.421C526.373 162.917 523.634 161.537 523.634 160.419C523.634 159.235 530.647 140.474 539.304 118.821C556.333 75.9299 554.952 77.5519 570.382 80.6422C576.869 81.9134 576.869 81.9134 575.686 113.758C575.006 131.314 573.977 151.345 573.363 158.381C572.267 171.64 571.565 172.232 561.9 169.668ZM560.366 119.939C560.958 109.397 561.308 100.499 561.133 100.148C560.519 98.9646 548.115 132.694 548.115 135.434C548.115 138.173 553.243 140.475 557.276 139.62C558.394 139.357 559.84 130.546 560.366 119.939ZM766.251 157.855C762.569 153.91 762.065 152.113 763.862 150.315C765.747 148.431 767.698 149.285 772.41 153.756C775.763 157 778.59 160.419 778.59 161.274C778.59 164.868 770.876 162.654 766.251 157.855ZM469.609 156.561C469.017 153.909 466.694 142.097 464.634 130.283L460.799 108.893L460.623 133.878C460.448 158.885 460.448 158.885 453.259 158.885C446.158 158.885 446.158 158.884 446.158 116.081V73.2782H456.262C461.741 73.2782 466.782 73.9574 467.374 74.8998C467.9 75.8422 470.464 88.6857 472.941 103.414C475.505 118.142 477.74 129.954 478.003 129.779C478.178 129.516 480.48 116.673 483.044 101.266L487.669 73.2782H509.936L508.468 115.556C507.613 138.853 506.846 158.03 506.583 158.205C506.429 158.381 503.602 158.885 500.336 159.235C494.441 159.915 494.441 159.915 494.945 136.968C495.208 123.774 494.616 114.021 493.498 114.021C492.468 114.021 490.079 123.774 488.194 135.763C486.397 147.751 484.6 157.855 484.249 158.205C483.811 158.534 480.743 159.389 477.236 160.09C471.669 161.186 470.639 160.769 469.609 156.561ZM191.289 151.871C191.289 150.228 194.029 146.984 197.36 144.595C202.752 140.825 203.694 140.65 204.724 143.477C205.491 145.45 204.132 148.189 201.13 150.666C195.475 155.378 191.289 155.882 191.289 151.871ZM746.899 141.68C741.771 137.56 741.332 136.53 744.247 135.434C748.28 133.878 758.12 139.795 758.12 143.806C758.12 148.014 753.847 147.247 746.899 141.68ZM212.505 137.735C211.058 133.878 219.102 126.01 223.726 126.777C228.175 127.544 226.904 130.897 220.044 136.201C214.565 140.387 213.622 140.562 212.505 137.735ZM727.042 128.749C720.972 124.979 719.591 120.092 724.566 120.092C729.19 120.092 737.738 126.273 737.738 129.516C737.738 133.286 733.902 133.023 727.042 128.749ZM232.887 123.95C231.265 121.298 241.369 111.961 245.993 111.961C250.793 111.961 247.527 118.821 240.843 122.678C236.065 125.506 234.093 125.834 232.887 123.95ZM704.534 114.788C699.055 111.873 698.025 107.863 702.211 106.482C705.301 105.452 717.706 113.846 716.347 116.081C714.637 118.821 711.284 118.47 704.534 114.788ZM255.834 110.602C253.094 107.862 254.629 105.715 261.664 102.383C266.968 99.819 269.357 99.5562 271.066 101.266C272.776 102.975 271.592 104.597 266.441 107.775C258.924 112.312 257.894 112.662 255.834 110.602ZM682.091 102.559C675.845 99.2056 675.67 94.2524 681.916 95.2825C687.746 96.2907 695.198 101.704 693.817 103.918C692.195 106.57 688.776 106.241 682.091 102.559ZM277.926 97.7589C276.545 95.5234 288.972 87.1515 292.04 88.1597C296.423 89.5404 295.131 93.5511 289.388 96.5537C282.2 100.236 279.635 100.498 277.926 97.7589ZM659.758 92.4553C653.928 89.2774 652.723 86.6252 656.164 84.4773C659.057 82.6802 670.454 89.1896 670.454 92.6305C670.454 96.3783 666.947 96.3784 659.758 92.4553ZM302.758 88.1597C299.93 85.3324 301.552 83.1187 308.566 80.2038C315.667 77.2012 319.699 77.7273 319.699 81.497C319.699 82.5271 316.368 84.7406 312.335 86.4501C303.788 90.0445 304.467 89.8911 302.758 88.1597ZM636.549 83.4694C630.565 81.0586 628.768 77.552 632.604 76.0178C636.812 74.4617 648.449 79.2613 647.419 82.1762C646.477 85.1788 641.94 85.683 636.549 83.4694ZM325.858 76.6094C325.858 73.7822 339.556 68.5659 342.471 70.3631C345.802 72.4233 344.093 74.8998 337.759 77.1134C329.299 80.0283 325.858 79.9408 325.858 76.6094ZM611.805 74.7246C600.583 71.1303 604.879 65.6512 616.429 68.8291C619.76 69.6838 622.5 71.7219 622.5 73.1903C622.5 76.8723 619.76 77.2888 611.805 74.7246ZM351.128 70.8674C349.155 67.7114 352.925 65.0594 361.231 63.6786C365.922 62.9116 368.661 63.3498 368.661 64.7087C368.661 68.9824 353.341 74.3741 351.128 70.8674ZM584.321 67.7111C579.456 66.5057 579.784 61.0267 584.672 61.0267C590.414 61.0267 599.049 64.6211 599.049 67.0319C599.049 69.1578 591.093 69.5083 584.321 67.7111ZM376.814 62.232C376.814 59.4924 382.71 57.016 389.57 56.9283C394.019 56.9283 394.26 62.1444 389.898 63.8539C384.156 66.0894 376.88 65.1469 376.88 62.232H376.814ZM563.785 63.5034C558.481 62.824 554.361 58.1118 556.838 55.6352C558.898 53.575 572.596 57.4324 572.596 60.0843C572.596 63.5909 570.711 64.3582 563.785 63.5034ZM402.15 58.7256C400.265 55.5477 405.152 52.8956 413.02 52.8956C417.294 52.8079 419.617 53.838 419.617 55.6352C419.617 60.3473 404.801 62.9993 402.15 58.7256ZM538.099 59.0543C531.239 57.9366 526.79 53.0711 532.094 52.6327C538.099 52.1287 545.2 53.3341 546.997 55.0436C550.263 58.1996 545.638 60.2597 538.099 59.0543ZM427.836 53.838C427.836 51.6025 430.049 50.8356 435.967 50.8356C441.863 50.8356 444.098 51.6025 444.098 53.838C444.098 56.0735 441.863 56.9283 435.967 56.9283C430.049 56.9283 427.836 56.0735 427.836 53.838ZM504.194 54.7804C503.427 53.4873 503.777 51.449 505.048 50.2436C507.613 47.6793 521.661 50.5943 522.253 53.838C522.779 56.7529 505.991 57.6076 504.194 54.7804ZM452.733 52.304C454.114 48.359 470.639 47.7672 470.639 51.6903C470.639 54.1011 468.404 54.868 461.303 54.868C454.706 54.868 452.229 54.1012 452.733 52.304ZM478.77 51.6903C478.77 49.2137 480.655 48.7095 487.339 49.126C499.481 50.0684 500.161 54.868 488.107 54.868C480.984 54.868 478.77 54.1011 478.77 51.6903ZM451.287 817.239C450.432 815.946 450.849 814.237 452.054 813.47C455.648 811.256 468.93 813.47 468.075 816.034C467.045 819.212 453.084 820.242 451.287 817.239ZM476.798 816.385C476.798 813.733 478.595 813.207 485.521 813.645C490.233 814.061 494.178 815.179 494.178 816.385C494.178 817.502 490.233 818.686 485.521 819.037C478.595 819.541 476.798 818.949 476.798 816.385ZM502.221 817.239C500.161 813.908 505.311 811.081 512.5 811.76C516.357 812.111 518.659 813.382 518.659 815.355C518.659 819.124 504.457 820.746 502.221 817.239ZM425.184 815.881C424.571 814.938 424.746 812.966 425.688 811.585C427.485 808.67 442.126 810.993 442.805 814.325C443.331 816.801 426.631 818.27 425.184 815.881ZM527.82 814.5C527.82 811.256 532.094 809.196 539.041 809.196C546.054 809.196 547.26 812.966 541.101 815.355C533.474 818.182 527.82 817.831 527.82 814.5ZM403.596 813.141C396.758 810.402 400.856 806.719 409.755 807.574C414.226 807.991 416.702 809.284 416.702 811.256C416.702 814.938 410.281 815.881 403.596 813.141ZM553.331 811.256C551.884 809.021 560.432 805.163 566.7 805.163C568.826 805.163 570.623 806.369 570.623 807.991C570.623 812.527 555.829 815.267 553.331 811.256ZM371.159 807.048C364.562 804.396 366.623 799.86 374.074 800.714C380.825 801.569 385.537 804.747 383.915 807.399C382.534 809.7 377.318 809.525 371.159 807.048ZM578.754 806.456C578.754 802.687 579.959 801.92 588.441 800.123C593.657 799.005 595.104 799.356 595.104 801.832C595.104 805.514 594.008 806.281 585.439 808.078C580.223 809.196 578.754 808.845 578.754 806.456ZM347.775 800.714C340.498 798.062 341.791 793.701 349.571 794.556C356.256 795.323 361.056 798.566 359.434 801.306C358.053 803.542 355.139 803.366 347.775 800.714ZM604.112 800.714C602.227 797.712 605.471 795.235 613.01 793.701C618.226 792.671 619.607 793.022 619.607 795.674C619.607 797.558 619.344 799.005 619.081 799.005C618.752 799.005 615.574 799.859 611.98 800.89C607.706 802.095 604.966 802.095 604.112 800.714ZM322.351 792.846C317.551 790.874 316.455 787.871 319.699 785.811C322.351 784.189 336.137 790.106 336.137 792.758C336.137 795.323 328.685 795.411 322.351 792.846ZM142.393 671.603C139.478 668.535 138.295 665.357 139.149 663.231C140.333 660.053 141.034 660.229 145.483 664.502C148.311 667.067 150.524 670.42 150.524 671.779C150.524 676.666 147.105 676.578 142.481 671.603H142.393ZM808.2 674.606C806.929 672.546 815.06 660.316 817.624 660.316C821.218 660.316 821.394 664.765 818.041 669.39C813.767 675.285 809.822 677.258 808.2 674.606ZM634.927 648.766C624.472 633.096 622.083 625.644 627.475 625.644C628.593 625.644 631.42 628.8 633.809 632.745C636.548 637.194 639.2 639.342 641.085 638.663C644.943 637.106 644.855 636.076 639.968 628.712C635.102 621.37 635.015 620.34 638.938 618.784C641.085 618.017 645.534 622.992 654.191 635.747C664.799 651.659 665.917 654.158 663.177 656.459C659.758 659.286 659.999 659.461 652.811 647.736C650.071 643.353 648.712 642.673 645.71 644.207C642.203 646.092 642.203 646.618 647.09 653.807C652.986 662.464 653.249 663.56 649.304 665.116C647.419 665.795 642.554 660.316 634.927 648.766ZM303.349 660.228C301.114 658.848 300.96 657.576 302.67 654.837C303.853 652.777 306.177 649.095 307.798 646.53C310.275 642.498 310.187 641.643 307.623 640.021C305.41 638.662 303.349 639.933 299.667 645.15C294.78 652.01 290.594 653.982 288.358 650.388C287.175 648.503 310.538 614.948 313.804 613.831C317.99 612.275 317.814 619.639 313.628 625.381C309.42 631.035 309.508 635.923 313.804 635.923C314.812 635.923 317.814 632.657 320.291 628.8C325.353 621.02 327.502 619.989 329.211 624.526C329.891 626.148 326.471 633.249 321.672 640.372C307.886 660.82 306.593 662.289 303.349 660.228ZM127.336 653.303C123.304 647.122 123.129 644.054 126.811 644.054C130.317 644.054 136.826 653.632 135.205 656.284C133.232 659.549 130.843 658.607 127.336 653.303ZM823.52 654.574C823.52 651.067 831.322 641.994 834.324 641.994C837.568 641.994 835.333 649.774 830.971 653.894C825.229 659.286 823.52 659.461 823.52 654.574ZM446.246 642.936C371.664 631.298 311.064 585.054 282.55 518.121C261.751 469.4 263.79 405.097 287.591 357.581C320.225 292.533 383.389 249.554 457.358 242.102C526.79 235.001 598.282 262.901 641.765 314.011C674.136 351.949 688.097 387.3 690.223 437.029C695.877 563.225 577.132 663.472 446.246 642.936ZM644.088 399.376C644.088 396.724 599.575 396.198 442.63 396.79C359.675 397.141 313.716 398.083 313.716 399.376C313.716 400.648 371.751 401.327 478.858 401.327C585.022 401.327 644.088 400.648 644.088 399.376ZM407.453 390.544C417.031 390.215 401.624 389.777 373.373 389.514C345.035 389.36 321.847 389.864 321.847 390.632C321.847 392.1 364.65 392.012 407.453 390.544ZM529.88 377.964V362.644H426.543L426.718 376.43L426.893 390.128L473.795 391.245C499.569 391.837 522.779 392.516 525.343 392.779C529.705 393.196 529.88 392.604 529.88 377.964ZM431.934 385.065V366.655H523.721V385.065H431.934ZM598.107 391.245C598.961 389.864 588.266 389.273 566.174 389.514C537.156 389.865 535.359 390.04 552.301 391.07C589.472 393.196 596.836 393.283 598.107 391.245ZM633.809 391.158C633.809 389.952 627.125 389.273 617.021 389.426C601.701 389.777 601.109 389.952 610.358 391.158C626.445 393.371 633.809 393.371 633.809 391.158ZM384.507 385.591C380.321 385.152 373.899 385.152 370.217 385.678C366.623 386.095 370.13 386.445 377.91 386.445C385.8 386.445 388.715 386.095 384.507 385.591ZM589.559 385.766C588.178 385.24 585.439 385.152 583.379 385.678C581.406 386.183 582.524 386.686 585.965 386.686C589.296 386.774 590.918 386.358 589.559 385.766ZM360.201 380.966C360.53 380.024 363.883 379.761 367.565 380.352C371.488 380.966 374.929 380.44 375.784 379.169C376.551 377.964 381 376.846 385.712 376.846C390.424 376.846 393.164 376.166 391.783 375.312C389.898 374.019 360.201 373.778 330.482 374.72C326.976 374.874 325.945 376.079 325.945 380.199C325.945 385.591 325.945 385.591 342.733 384.122C351.982 383.355 359.85 381.909 360.201 380.966ZM631.836 379.936C631.836 374.106 634.401 374.545 595.455 374.106C580.486 373.931 567.116 374.545 565.845 375.312C564.552 376.166 566.853 376.846 571.061 376.846C575.16 376.934 579.105 377.788 579.784 378.906C580.486 380.024 584.408 380.966 588.616 380.966C592.715 380.878 599.816 381.733 604.265 382.763C608.736 383.793 616.78 384.736 622.083 384.824C631.157 385.065 631.836 384.736 631.836 379.936ZM417.207 379.498C413.02 379.082 406.073 379.082 401.887 379.498C397.701 379.936 401.119 380.287 409.513 380.287C417.973 380.287 421.415 379.936 417.207 379.498ZM564.048 379.498C558.81 379.082 549.561 379.082 543.666 379.498C537.748 379.936 542.132 380.199 553.331 380.287C564.552 380.287 569.352 379.936 564.048 379.498ZM540.575 375.575C539.129 374.961 536.893 374.961 535.447 375.575C534.066 376.079 535.184 376.605 538.011 376.605C540.838 376.605 541.956 376.079 540.575 375.575ZM406.007 373.514C404.539 372.923 402.237 372.923 400.857 373.514C399.498 374.106 400.593 374.545 403.421 374.545C406.248 374.545 407.366 374.019 406.007 373.514ZM504.873 355.017C501.805 354.601 496.742 354.601 493.673 355.017C490.583 355.543 493.06 355.872 499.219 355.872C505.399 355.872 507.963 355.543 504.873 355.017ZM459.155 343.73C457.796 336.782 456.941 334.81 455.736 336.278C455.32 336.782 454.465 340.114 453.676 343.73C452.645 349.362 453.084 350.393 456.415 350.393C459.856 350.393 460.185 349.362 459.155 343.73ZM480.918 347.149C480.918 345.264 479.538 344.234 477.477 344.672C472.437 345.593 471.669 350.393 476.623 350.393C479.187 350.393 480.918 349.034 480.918 347.149ZM501.629 342.086C500.775 332.837 498.364 333.539 496.238 343.73C495.032 349.362 495.471 350.393 498.627 350.393C501.805 350.393 502.309 349.121 501.629 342.086ZM446.925 344.913C447.605 344.234 446.312 342.261 444.098 340.639C439.035 337.133 436.471 338.842 440.066 343.204C442.893 346.535 444.777 347.061 446.925 344.913ZM466.607 343.291C466.607 341.582 465.752 340.201 464.634 340.201C463.538 340.201 463.188 341.582 463.867 343.291C464.481 344.913 465.423 346.294 465.84 346.294C466.278 346.294 466.607 344.913 466.607 343.291ZM493.148 339.609C493.148 338.667 492.205 338.492 491.088 339.193C489.992 339.873 489.049 341.999 489.137 343.883C489.137 346.886 489.378 346.886 491.088 344.322C492.205 342.612 493.06 340.464 493.148 339.609ZM515.919 341.582C517.804 338.163 515.503 336.782 512.675 339.697C511.821 340.552 510.177 341.231 508.906 341.231C507.7 341.231 506.429 342.174 505.991 343.467C504.785 346.973 513.793 345.352 515.919 341.582ZM481.773 326.679C483.57 326.087 485.017 323.939 485.017 322.054C485.017 319.315 483.57 318.723 477.828 319.402C470.201 320.345 469.259 321.638 473.116 325.495C475.943 328.301 477.236 328.476 481.773 326.679ZM504.457 635.747C554.185 628.8 595.455 608.593 628.68 574.863C635.277 568.113 640.23 562.108 639.639 561.516C639.025 560.924 566.262 560.661 477.915 560.924L317.222 561.428L326.625 571.97C368.157 618.017 441.687 644.47 504.457 635.747ZM663.528 524.696C677.554 496.029 681.587 477.444 681.412 442.18C681.324 416.23 680.645 410.335 675.757 394.226C652.723 317.189 590.326 263.581 509.41 251.351C485.017 247.669 474.65 247.757 449.314 251.526C307.798 272.654 232.799 421.205 303.437 540.103C312.51 555.357 314.483 556.804 316.609 549.703C319.195 541.309 320.554 438.739 318.165 437.292C316.784 436.437 316.368 430.871 317.222 421.622C318.34 408.187 318.077 407.157 313.957 406.127C308.061 404.592 307.799 394.138 313.716 392.604C315.93 392.012 317.727 390.128 317.727 388.33C317.727 386.533 318.669 385.065 319.787 385.065C320.905 385.065 321.847 382.325 321.847 378.906C321.847 374.873 320.817 372.835 318.757 372.835C315.075 372.835 314.571 364.704 318.34 364.617C319.699 364.529 342.646 364.616 369.275 364.704C416.615 364.77 417.732 364.704 417.732 360.671C417.732 358.37 419.004 356.485 420.56 356.485C422.094 356.485 423.891 355.104 424.571 353.483C425.338 351.422 428.778 350.305 434.411 350.151C439.298 350.064 441.687 349.538 439.824 349.034C434.082 347.478 432.022 333.276 436.559 325.649C438.619 322.142 438.619 321.112 436.559 320.345C435.2 319.928 433.995 316.75 433.995 313.331C433.995 304.85 439.89 306.384 445.216 316.246C452.229 329.418 460.448 328.388 460.536 314.274C460.536 309.299 461.741 307.173 465.927 305.113C474.409 300.992 476.382 296.368 471.757 291.239C468.404 287.557 468.228 286.352 470.464 282.758C472.699 279.163 472.436 277.98 468.842 274.122C462.924 267.788 463.1 263.756 469.171 267.175C475.351 270.528 477.061 270.528 482.452 267.175C488.194 263.581 488.874 267.35 483.724 274.627C481.335 278.133 481.071 279.93 482.715 281.662C486.134 284.993 485.52 288.588 480.83 292.949C477.236 296.28 477.061 297.069 479.888 298.099C482.189 298.954 482.715 300.839 481.773 304.937C480.48 310.592 480.48 310.592 483.899 306.055C487.669 300.992 488.699 300.664 493.06 303.403C494.945 304.587 496.15 308.619 496.15 314.098C496.238 322.054 496.742 322.909 501.629 323.523C506.078 324.027 507.613 322.821 510.79 316.334C513.267 311.271 515.919 308.619 518.659 308.619C523.634 308.619 524.992 314.186 520.982 318.197C519.009 320.169 518.659 322.142 519.864 324.027C524.664 331.654 520.894 346.382 513.53 348.946C511.908 349.538 514.889 350.151 520.281 350.217C526.965 350.305 530.384 351.335 531.173 353.483C531.852 355.104 533.65 356.485 535.184 356.485C536.718 356.485 538.011 358.37 538.011 360.584C538.011 364.529 539.392 364.704 590.063 364.704C640.669 364.704 642.028 364.77 642.028 368.715C642.028 371.038 640.669 372.835 638.938 372.835C631.924 372.835 636.636 388.747 644.592 391.749C649.896 393.722 649.479 405.535 643.912 406.894C640.143 407.924 639.814 409.392 640.318 422.389C640.756 430.958 640.055 437.029 638.784 437.467C635.781 438.497 637.491 543.281 640.669 550.908C643.057 556.628 643.058 556.628 648.8 549.878C651.956 546.108 658.64 534.799 663.528 524.696ZM372.606 548.673C374.228 544.903 374.754 526.252 374.403 490.111L373.811 437.029H345.298L345.736 486.517C346.065 528.224 345.649 535.917 343.238 535.917C340.849 535.917 340.169 529.496 339.731 499.799L339.051 463.57L338.197 502.275L337.254 541.045L336.137 494.144L334.931 447.22L334.515 491.58C334.252 519.48 333.309 535.917 332.038 535.917C330.745 535.917 329.803 521.189 329.54 496.708L329.123 457.412L327.063 530.876L324.828 457.412L324.324 502.779L323.885 548.169H332.893C341.112 548.169 341.791 547.818 340.761 543.873C339.994 540.805 340.41 539.775 342.383 540.366C343.939 540.892 345.889 544.223 346.832 547.818C348.476 554.064 348.892 554.327 359.434 554.327C369.45 554.327 370.546 553.801 372.694 548.673H372.606ZM326.296 542.076C326.296 539.249 326.712 538.153 327.238 539.511C327.83 540.892 327.83 543.193 327.238 544.662C326.712 546.021 326.296 544.903 326.296 542.076ZM329.978 542.931C329.978 541.221 330.921 540.366 332.038 541.045C333.134 541.747 334.077 543.193 334.077 544.223C334.077 545.254 333.134 546.196 332.038 546.196C330.921 546.196 329.978 544.728 329.978 542.931ZM427.836 546.284C429.195 541.396 429.808 518.625 429.458 487.722L428.932 437.029H400.352L400.857 491.054C401.12 520.86 401.799 547.226 402.413 549.703C403.333 553.801 404.714 554.327 414.555 554.327C425.688 554.327 425.688 554.327 427.836 546.284ZM498.123 551.675C500.161 549.615 501.038 535.654 501.542 493.026L502.309 437.029H455.385L455.824 491.054C456.087 520.86 456.766 547.226 457.446 549.703C458.476 554.064 459.593 554.327 477.061 554.327C489.553 554.327 496.325 553.472 498.21 551.675H498.123ZM553.506 550.733C554.953 548.409 556.07 527.282 556.596 492.084L557.363 437.029L546.23 436.437C524.993 435.232 526.702 430.279 527.403 491.492C527.732 526.34 528.762 546.7 530.297 549.703C533.299 555.686 550 556.475 553.506 550.733ZM608.89 551.763C610.095 550.207 611.213 526.164 611.629 493.114L612.418 437.029H582.107L582.699 491.909C583.05 529.079 583.992 547.993 585.614 550.557C588.354 555.007 605.558 555.949 608.89 551.763ZM380.562 512.028C380.233 476.852 380.145 476.501 379.115 500.04C377.91 523.753 378.523 548.169 380.145 548.169C380.562 548.169 380.825 531.885 380.562 512.028ZM393.756 546.525C391.958 545.341 391.103 532.235 390.665 497.147L390.074 449.28L389.635 497.738C389.394 525.397 388.364 546.196 387.246 546.196C386.216 546.196 385.362 528.553 385.274 505.102C385.274 482.506 384.682 463.57 384.09 462.978C383.477 462.387 383.06 481.301 383.06 505.015C383.06 548.168 383.06 548.169 389.635 548.169C393.668 548.169 395.29 547.467 393.756 546.525ZM435.529 480.358C435.2 467.778 434.849 478.123 434.849 503.305C434.849 528.553 435.2 538.92 435.529 526.252C435.88 513.65 435.88 493.026 435.529 480.358ZM440.591 542.076C439.978 538.394 440.592 535.917 441.95 535.917C443.156 535.917 444.186 538.744 444.186 542.076C444.186 546.196 445.216 548.169 447.254 548.169C449.994 548.169 450.345 541.309 449.84 493.618C449.314 439.089 449.314 439.089 442.476 438.41C437.764 437.971 436.055 438.497 437.085 440.119C437.852 441.412 439.824 441.917 441.358 441.325C443.747 440.382 444.186 447.834 444.186 487.131C444.186 516.236 443.419 533.945 442.213 533.945C441.008 533.945 439.978 519.129 439.649 496.708C438.948 459.472 438.948 459.472 438.531 503.809C438.268 528.224 438.882 548.169 439.737 548.169C440.679 548.169 441.008 545.429 440.591 542.076ZM447.166 493.114C447.166 463.395 447.429 451.253 447.78 466.134C448.109 480.95 448.109 505.278 447.78 520.159C447.429 534.975 447.166 522.811 447.166 493.114ZM506.846 526.252C506.429 522.044 506.078 525.485 506.078 533.945C506.078 542.339 506.429 545.758 506.846 541.571C507.284 537.363 507.284 530.438 506.846 526.252ZM514.034 493.618L514.56 439.089L515.064 493.618C515.656 546.459 515.744 548.169 519.689 548.169C523.371 548.169 523.721 546.875 523.371 532.41L523.02 516.565L521.836 531.884C519.689 560.661 517.541 536.18 517.979 486.254C518.242 452.524 518.746 444.305 519.689 457.412L520.894 475.821L521.311 456.908C521.661 438.059 521.661 438.059 514.56 438.059C507.437 438.059 507.437 438.059 507.788 463.066L508.226 488.051L509.498 463.57C510.352 446.892 510.703 456.469 510.615 493.618C510.528 523.666 511.207 548.169 512.062 548.169C512.851 548.169 513.793 523.666 514.034 493.618ZM578.425 523.249L577.9 498.242L576.716 522.745C575.16 554.678 574.831 550.996 573.889 490.111C573.45 462.036 573.713 445.949 574.568 454.409L576.015 469.663L576.365 453.905C576.716 438.059 576.716 438.059 569.593 438.059C562.492 438.059 562.492 438.059 562.843 459.976L563.259 481.893L564.465 460.502C565.407 445.336 565.845 454.672 565.999 492.61C566.174 522.395 565.495 546.196 564.465 546.196C563.522 546.196 562.317 543.193 561.9 539.511C561.045 533.002 561.046 533.002 560.695 540.541C560.432 548.168 560.432 548.169 569.593 548.169H578.754L578.425 523.249ZM569.527 493.114C569.527 463.395 569.768 451.253 570.119 466.134C570.448 480.95 570.448 505.278 570.119 520.159C569.768 534.975 569.527 522.811 569.527 493.114ZM624.143 493.618L624.648 439.089L625.173 493.618C625.765 546.459 625.853 548.169 629.798 548.169C633.546 548.169 633.809 546.875 633.458 530.35L633.129 512.554L631.924 529.846C630.039 558.864 628.33 537.977 628.33 486.013C628.33 456.053 628.856 444.569 629.71 454.409L631.069 469.663L631.507 453.905C631.836 438.059 631.836 438.059 624.735 438.059C617.547 438.059 617.547 438.059 617.963 471.197L618.401 504.335L619.607 471.701C620.703 441.15 620.79 442.508 621.229 492.61C621.492 524.455 620.878 546.196 619.76 546.196C618.752 546.196 617.459 544.574 616.955 542.602C616.253 539.862 615.925 540.103 615.749 543.632C615.574 546.876 616.692 548.169 619.607 548.169C623.53 548.169 623.705 546.7 624.143 493.618ZM394.347 440.623C393.164 437.467 381 437.205 381 440.382C381 441.741 383.477 442.267 387.071 441.741C393.252 440.799 393.252 440.799 393.668 486.867L394.194 532.915L394.786 488.051C395.114 463.395 394.961 442.092 394.347 440.623ZM337.167 440.119C337.846 438.914 335.786 438.059 332.191 438.059C328.772 438.059 325.945 439.002 325.945 440.119C325.945 441.237 328.181 442.18 330.92 442.18C333.66 442.18 336.487 441.237 337.167 440.119ZM337.671 432.492C334.602 432.076 329.54 432.076 326.472 432.492C323.381 433.018 325.858 433.347 332.038 433.347C338.197 433.347 340.761 433.018 337.671 432.492ZM392.726 432.492C389.635 432.076 384.594 432.076 381.504 432.492C378.436 433.018 380.913 433.347 387.071 433.347C393.252 433.347 395.816 433.018 392.726 432.492ZM447.78 432.492C444.69 432.076 439.211 432.076 435.529 432.492C431.935 432.931 434.411 433.347 441.096 433.347C447.868 433.347 450.848 433.018 447.78 432.492ZM521.223 432.492C518.155 432.076 512.675 432.076 508.993 432.492C505.311 432.931 507.788 433.347 514.56 433.347C521.31 433.347 524.313 433.018 521.223 432.492ZM576.278 432.492C573.187 432.076 567.708 432.076 564.048 432.492C560.366 432.931 562.843 433.347 569.593 433.347C576.365 433.347 579.368 433.018 576.278 432.492ZM631.332 432.492C628.242 432.076 622.763 432.076 619.081 432.492C615.399 432.931 617.897 433.347 624.648 433.347C631.42 433.347 634.401 433.018 631.332 432.492ZM635.869 425.83C635.869 423.09 641.348 423.244 471.231 423.003C353.013 422.827 321.847 423.331 321.847 425.304C321.847 427.364 354.634 427.868 478.858 427.868C582.195 427.868 635.869 427.189 635.869 425.83ZM326.208 412.044C326.559 406.477 326.559 406.477 327.414 412.044C328.269 417.699 328.269 417.699 357.637 417.699C387.071 417.699 387.071 417.699 387.422 412.044C387.685 406.477 387.684 406.477 388.539 412.044C389.394 417.699 389.394 417.699 407.629 417.699C425.863 417.699 425.864 417.699 426.127 412.044C426.455 406.477 426.455 406.477 427.31 412.044C427.99 416.669 429.195 417.699 433.819 417.699C438.882 417.699 439.474 416.997 438.619 412.548C438.027 409.633 438.531 407.507 439.89 407.507C441.095 407.507 442.301 409.984 442.389 413.074C442.63 418.707 442.63 418.707 444.186 412.548C445.72 406.477 445.72 406.477 445.983 412.044C446.246 417.26 446.926 417.699 454.377 417.699C461.895 417.699 462.596 417.173 462.837 412.044C463.188 406.477 463.188 406.477 464.042 412.044C464.809 417.611 465.16 417.699 479.033 417.699C492.972 417.699 493.148 417.611 493.411 412.044C493.739 406.477 493.739 406.477 494.616 412.044C495.383 417.085 496.325 417.699 503.514 417.699C510.79 417.699 511.557 417.173 511.82 412.044C512.062 406.477 512.062 406.477 512.917 412.044C513.793 417.699 513.793 417.699 541.343 417.699C556.421 417.699 568.41 416.997 567.971 416.143C567.467 415.288 567.796 412.811 568.651 410.576C570.119 406.981 570.382 407.157 570.448 412.044C570.536 415.113 571.39 417.699 572.42 417.699C573.363 417.699 573.714 415.375 573.188 412.548C572.596 409.633 573.122 407.507 574.48 407.507C575.774 407.507 576.716 409.809 576.716 412.548C576.716 417.699 576.716 417.699 606.325 417.699C635.869 417.699 635.869 417.699 635.869 411.518C635.869 405.447 635.869 405.447 478.858 405.447C321.847 405.447 321.847 405.447 321.847 411.518C321.847 419.233 325.77 419.649 326.208 412.044ZM529.88 412.044C529.88 409.721 531.326 408.362 533.912 408.362C536.477 408.362 538.011 409.721 538.011 412.044C538.011 414.258 536.477 415.638 533.912 415.638C531.326 415.638 529.88 414.258 529.88 412.044ZM548.202 411.606C548.202 409.305 549.145 407.507 550.262 407.507C551.358 407.507 552.301 409.305 552.301 411.606C552.301 413.841 551.358 415.638 550.262 415.638C549.145 415.638 548.202 413.841 548.202 411.606ZM554.624 411.606C554.624 408.779 555.04 407.595 555.654 409.041C556.246 410.422 556.246 412.723 555.654 414.082C555.128 415.551 554.624 414.345 554.624 411.606ZM586.973 411.606C586.973 409.809 588.77 408.187 591.006 408.011C593.745 407.836 595.104 409.042 595.104 411.606C595.104 414.17 593.745 415.288 591.006 415.113C588.77 414.959 586.973 413.315 586.973 411.606ZM605.295 411.431C605.295 409.129 606.238 407.836 607.355 408.538C608.473 409.217 609.416 411.102 609.416 412.723C609.416 414.345 608.473 415.638 607.355 415.638C606.238 415.638 605.295 413.754 605.295 411.431ZM611.717 411.606C611.717 408.779 612.155 407.595 612.747 409.041C613.361 410.422 613.361 412.723 612.747 414.082C612.243 415.551 611.717 414.345 611.717 411.606ZM623.968 411.606C623.968 408.779 624.385 407.595 624.998 409.041C625.59 410.422 625.59 412.723 624.998 414.082C624.472 415.551 623.968 414.345 623.968 411.606ZM627.738 412.723C627.738 411.102 628.68 409.217 629.798 408.538C630.894 407.836 631.836 409.129 631.836 411.431C631.836 413.754 630.894 415.638 629.798 415.638C628.68 415.638 627.738 414.345 627.738 412.723ZM474.738 412.044C474.738 409.809 476.447 408.274 478.858 408.011C481.685 407.836 482.957 409.042 482.957 411.693C482.957 414.258 481.51 415.638 478.858 415.638C476.294 415.638 474.738 414.258 474.738 412.044ZM497.268 411.606C497.268 409.305 498.123 407.507 499.219 407.507C500.337 407.507 501.279 409.305 501.279 411.606C501.279 413.841 500.337 415.638 499.219 415.638C498.123 415.638 497.268 413.841 497.268 411.606ZM515.59 411.606C515.59 409.305 516.533 407.507 517.629 407.507C518.746 407.507 519.601 409.305 519.601 411.606C519.601 413.841 518.746 415.638 517.629 415.638C516.533 415.638 515.59 413.841 515.59 411.606ZM405.481 411.606C405.481 409.305 406.336 407.507 407.453 407.507C408.659 407.507 409.513 409.305 409.513 411.606C409.513 413.841 408.659 415.638 407.453 415.638C406.336 415.638 405.481 413.841 405.481 411.606ZM419.705 411.606C419.705 409.305 420.647 407.507 421.743 407.507C422.861 407.507 423.803 409.305 423.803 411.606C423.803 413.841 422.861 415.638 421.743 415.638C420.647 415.638 419.705 413.841 419.705 411.606ZM456.415 411.606C456.415 409.305 457.358 407.507 458.476 407.507C459.593 407.507 460.536 409.305 460.536 411.606C460.536 413.841 459.593 415.638 458.476 415.638C457.358 415.638 456.415 413.841 456.415 411.606ZM348.629 411.606C348.629 408.779 349.155 407.595 349.659 409.041C350.273 410.422 350.273 412.723 349.659 414.082C349.155 415.551 348.629 414.345 348.629 411.606ZM362.941 411.606C362.941 408.779 363.357 407.595 363.971 409.041C364.563 410.422 364.563 412.723 363.971 414.082C363.445 415.551 362.941 414.345 362.941 411.606ZM366.711 411.606C366.711 409.305 367.653 407.507 368.748 407.507C369.866 407.507 370.809 409.305 370.809 411.606C370.809 413.841 369.866 415.638 368.748 415.638C367.653 415.638 366.711 413.841 366.711 411.606ZM381 411.606C381 409.305 381.942 407.507 383.06 407.507C384.156 407.507 385.033 409.305 385.033 411.606C385.033 413.841 384.156 415.638 383.06 415.638C381.855 415.638 381 413.841 381 411.606ZM401.711 411.606C401.711 408.779 402.15 407.595 402.741 409.041C403.267 410.422 403.267 412.723 402.741 414.082C402.15 415.551 401.711 414.345 401.711 411.606ZM329.978 411.431C329.978 409.129 330.921 407.836 332.038 408.538C333.134 409.217 334.077 411.102 334.077 412.723C334.077 414.345 333.134 415.638 332.038 415.638C330.921 415.638 329.978 413.754 329.978 411.431ZM342.207 411.606C342.207 409.305 343.15 407.507 344.268 407.507C345.386 407.507 346.328 409.305 346.328 411.606C346.328 413.841 345.386 415.638 344.268 415.638C343.15 415.638 342.207 413.841 342.207 411.606ZM778.656 702.44C778.656 697.903 784.486 693.958 787.226 696.61C788.847 698.32 788.76 699.788 786.875 702.089C783.632 705.947 778.656 706.21 778.656 702.44ZM388.101 699.613C374.14 696.106 374.403 697.202 381.351 676.227C384.857 665.795 388.364 656.459 389.306 655.429C391.958 652.514 407.541 657.84 407.541 661.675C407.541 664.261 406.073 664.59 400.593 663.56C394.698 662.464 393.58 662.88 392.55 666.738C391.191 672.129 392.375 674.606 396.408 674.606C398.029 674.606 399.322 676.074 399.322 677.959C399.322 680.348 397.942 680.94 394.106 680.173C389.898 679.406 388.452 680.26 386.896 684.205C384.682 690.189 385.975 693.016 390.928 693.016C392.989 693.016 395.114 693.52 395.816 694.221C397.262 695.668 395.378 701.234 393.493 700.884C392.813 700.818 390.337 700.204 388.101 699.613ZM558.218 683.679C554.361 669.127 553.002 666.299 549.999 667.066C548.027 667.68 545.879 666.738 545.2 664.94C543.753 661.083 543.14 661.434 555.128 658.519C563.172 656.546 565.494 656.547 566.787 658.694C567.883 660.404 567.116 661.85 564.64 662.793C560.87 664.173 560.958 664.765 565.67 682.145C568.409 691.986 570.623 700.292 570.623 700.643C570.623 700.884 568.913 701.147 566.787 701.147C563.609 701.147 561.988 697.903 558.218 683.679ZM156.617 687.887C152.935 683.855 152.409 682.145 154.294 680.26C156.179 678.375 157.888 678.967 162.096 683.175C164.989 686.09 166.721 689.509 166.019 690.715C163.893 694.134 162.009 693.52 156.705 687.887H156.617ZM586.206 689.246C581.669 684.205 582.02 680.764 586.973 680.764C589.209 680.764 591.006 681.641 591.006 682.737C591.006 683.942 592.364 684.797 594.096 684.797C600.671 684.797 596.66 678.726 586.469 673.247C576.804 668.097 575.686 666.738 575.072 659.966C574.568 653.982 575.335 652.01 578.842 650.125C584.321 647.21 592.211 649.007 593.92 653.544C595.805 658.344 590.83 660.82 586.732 657.05C584.672 655.166 582.787 654.749 582.02 655.955C579.696 659.724 583.225 664.261 590.151 666.475C597.252 668.864 605.295 677.082 605.295 682.057C605.295 686.09 597.778 693.016 593.395 693.016C591.356 693.016 588.091 691.306 586.206 689.246ZM627.738 791.816C627.738 788.726 635.343 784.715 641.085 784.715C646.564 784.715 644.088 790.435 637.578 792.671C629.097 795.673 627.738 795.498 627.738 791.816ZM299.93 783.773C292.566 780.507 291.098 776.584 297.279 776.584C303.262 776.584 311.656 780.946 311.656 784.014C311.656 787.455 308.324 787.367 299.93 783.773ZM651.539 785.394C648.712 782.655 650.334 780.332 657.348 777.439C664.47 774.436 668.481 774.94 668.481 778.71C668.481 779.74 665.15 781.975 661.117 783.685C652.57 787.279 653.249 787.192 651.539 785.394ZM276.392 773.318C270.124 769.899 269.97 764.924 276.129 766.042C282.024 767.072 289.476 772.464 288.117 774.612C286.474 777.351 283.055 776.913 276.392 773.318ZM675.845 775.116C673.193 772.464 674.902 768.957 679.878 766.722C686.628 763.566 690.923 763.741 690.923 766.985C690.923 769.987 677.818 777 675.845 775.116ZM256.097 762.623C250.53 759.27 248.47 754.141 252.59 754.141C257.807 754.141 266.617 760.388 265.499 763.303C264.053 766.985 263.285 766.984 256.097 762.623ZM697.082 761.33C697.082 758.415 706.835 752.081 711.197 752.081C715.646 752.081 713.169 757.319 707.098 760.738C699.384 765.1 697.082 765.275 697.082 761.33ZM234.772 749.867C230.739 747.303 228.701 744.651 229.381 742.832C230.915 738.821 232.12 739.085 239.221 744.805C247.615 751.577 243.933 755.675 234.772 749.867ZM792.025 691.219C790.491 688.654 798.71 678.726 802.216 678.726C806.666 678.726 805.723 683.592 800.419 688.567C795.269 693.454 793.735 693.87 792.025 691.219ZM349.484 684.972C347.95 682.496 361.319 649.358 365.921 644.207C367.127 642.848 383.06 650.629 383.06 652.602C383.06 655.604 377.494 656.722 373.373 654.486C370.13 652.777 369.187 653.456 367.214 658.694C365.067 664.174 365.33 664.941 368.924 665.971C371.401 666.562 372.781 668.359 372.277 670.332C371.576 673.663 370.305 673.839 364.475 671.603C362.174 670.683 360.442 672.545 358.053 678.638C354.897 686.594 351.895 688.83 349.484 684.972ZM332.893 675.899C332.192 674.189 332.279 671.866 332.981 670.748C335.37 666.825 327.238 664.502 323.381 668.009C320.554 670.507 319.195 670.683 317.31 668.863C315.513 667.066 316.368 664.94 321.08 659.79C324.499 656.196 330.92 648.503 335.282 642.848C342.383 633.6 343.851 632.657 347.862 634.454C353.604 637.019 353.692 635.923 345.561 658.519C338.788 677.17 335.282 682.057 332.893 675.899ZM339.906 652.185L342.207 645.084L336.312 652.185C332.192 657.05 331.096 659.725 332.718 660.733C335.72 662.618 337.079 660.995 339.906 652.185ZM616.254 677.17C615.07 676.315 610.774 669.39 606.764 661.763C598.457 646.092 598.786 640.284 608.298 636.931C613.185 635.221 614.544 635.66 618.906 640.788C623.618 646.268 623.705 646.881 620.461 648.678C617.897 650.125 616.516 649.774 615.158 647.385C613.185 643.879 607.355 642.761 607.355 645.851C607.355 646.881 610.358 652.952 613.952 659.374C620.79 671.537 624.648 673.335 624.648 664.415C624.648 657.489 630.127 657.839 632.604 664.853C635.869 674.102 624.56 682.562 616.341 677.17H616.254ZM718.824 750.722C716.259 748.246 717.465 746.361 724.303 742.065C732.434 737.025 733.814 736.849 733.814 740.794C733.814 742.328 731.075 745.572 727.81 747.895C721.3 752.519 720.796 752.695 718.824 750.722ZM213.294 735.556C207.026 730.953 206.018 727.6 210.795 727.6C215.332 727.6 223.989 733.759 223.989 737.024C223.989 741.035 219.781 740.443 213.294 735.556ZM741.178 736.433C738.439 733.693 740.149 730.427 746.044 726.921C752.378 723.151 756.74 723.83 755.03 728.28C753.759 731.72 742.888 738.142 741.178 736.433ZM192.561 719.732C188.638 715.612 187.695 713.398 189.317 712.368C192.232 710.571 202.577 717.76 202.577 721.617C202.577 726.483 198.303 725.715 192.561 719.732ZM760.268 718.614C760.268 714.253 770.701 706.626 773.265 709.19C774.646 710.571 773.703 712.96 770.525 716.379C765.134 722.033 760.268 723.151 760.268 718.614ZM461.04 712.018C458.3 710.9 457.445 684.534 459.768 672.809C460.952 666.738 461.391 666.475 468.404 667.68C480.217 669.652 482.54 674.014 481.51 691.306C480.217 710.22 473.554 717.08 461.04 712.018ZM473.116 694.988C473.291 689.421 473.554 682.737 473.642 680.26C473.708 677.521 472.349 675.461 470.376 675.044C467.461 674.518 466.87 676.754 466.278 689.772C465.664 703.382 466.015 705.267 469.171 705.18C471.998 705.18 472.765 703.207 473.116 694.988ZM492.293 704.654C491.701 699.942 490.934 689.86 490.583 682.32C489.904 668.622 489.904 668.623 498.89 667.242C505.399 666.299 508.314 666.738 509.585 668.622C512.062 672.721 509.936 674.606 502.988 674.606C498.211 674.606 497.093 675.373 498.035 677.871C498.714 679.669 499.219 682.408 499.219 683.942C499.219 685.652 501.279 686.857 504.369 686.857C507.525 686.857 509.41 688.041 509.41 689.925C509.41 691.81 507.525 692.928 504.369 692.928C500.095 692.928 499.219 693.958 499.219 699.087C499.219 704.478 499.92 705.18 505.224 705.18C508.555 705.18 511.908 706.21 512.588 707.393C514.385 710.308 513.947 710.571 502.901 712.018C493.411 713.223 493.411 713.223 492.293 704.654ZM174.085 703.207C168.934 697.903 168.671 697.048 171.849 695.843C176.035 694.221 186.49 703.558 184.342 707.064C182.216 710.483 180.419 709.804 174.085 703.207ZM423.891 707.306C422.181 706.297 420.647 700.117 419.858 691.657C418.499 677.082 417.908 677.784 414.467 697.64C413.437 703.382 412.253 705.267 409.755 704.654C407.957 704.325 406.599 703.119 406.686 702.002C408.812 685.564 414.73 661.85 416.965 660.996C422.094 659.023 425.864 664.59 426.127 674.343L426.368 683.767L428.34 674.102C429.809 667.001 431.343 664.415 433.907 664.415C437.238 664.415 437.238 665.708 433.227 685.652C428.515 708.862 428.077 709.892 423.891 707.306ZM524.818 704.654C520.127 697.377 516.357 668.535 519.864 666.299C523.458 664.086 524.905 667.001 526.615 679.756C528.938 697.377 530.056 701.147 533.036 701.147C536.565 701.147 536.718 696.522 533.737 679.23C532.028 669.39 532.028 665.532 533.737 663.735C537.332 660.228 538.778 663.823 541.868 683.855C544.345 699.941 544.257 701.673 540.926 705.355C536.126 710.659 528.587 710.396 524.818 704.654ZM361.231 839.068C361.998 837.096 361.319 836.504 359.434 837.271C356.169 838.477 355.314 841.983 358.229 841.983C359.259 841.983 360.618 840.69 361.231 839.068ZM30.158 555.357C30.158 553.209 29.0401 552.442 26.9141 553.297C25.2046 553.976 23.3201 554.503 22.7065 554.503C22.2024 554.503 22.2898 555.445 23.0569 556.541C25.0294 559.806 30.158 558.951 30.158 555.357ZM820.693 144.157C820.101 142.71 819.684 143.894 819.684 146.721C819.684 149.461 820.101 150.666 820.693 149.219C821.219 147.839 821.219 145.537 820.693 144.157ZM217.305 77.3766C218.685 75.163 219.54 73.2782 219.102 73.2782C218.773 73.2782 216.713 75.163 214.74 77.3766C212.68 79.6121 211.825 81.409 212.855 81.409C213.885 81.409 215.946 79.6121 217.305 77.3766Z" fill="#8550DC"/>
</svg>
