<svg width="963" height="624" viewBox="0 0 963 624" fill="none" xmlns="http://www.w3.org/2000/svg">
<path fill-rule="evenodd" clip-rule="evenodd" d="M300.387 150.504C300.672 145.87 305.228 143.864 309.072 146.49C312.916 149.115 309.5 155.138 304.374 154.829C301.669 154.675 300.245 153.13 300.387 150.504ZM626.987 488.472C627.557 479.359 627.271 478.897 622.716 480.287C620.01 481.059 616.736 483.685 615.454 486.157C612.18 492.027 609.76 491.562 610.187 485.229C610.329 482.449 609.475 479.513 608.336 478.741C607.197 477.969 606.343 475.807 606.485 474.108C606.627 471.637 607.482 471.482 610.614 473.335C613.462 475.189 616.451 475.189 620.295 473.799C625.989 471.636 625.99 471.636 620.58 465.303C613.034 456.344 616.451 455.109 628.268 462.523C636.81 467.775 639.373 468.548 644.356 467.003C650.763 464.995 655.887 466.23 655.745 469.628C655.602 470.709 652.329 472.563 648.2 473.799C642.506 475.498 639.515 478.434 635.387 486.157C628.126 499.595 626.275 500.057 626.987 488.472ZM657.17 497.278C656.458 496.042 657.453 493.571 659.447 491.717C664.145 487.701 670.836 492.798 666.708 497.278C663.575 500.522 658.878 500.676 657.17 497.278ZM229.059 467.311C228.348 466.075 229.202 463.759 230.91 462.06C233.615 459.743 234.754 459.743 237.886 462.369C239.88 464.068 240.877 466.539 240.022 467.929C237.887 470.864 230.768 470.555 229.059 467.311ZM272.198 467.62C273.195 464.685 272.34 462.214 269.92 460.206C266.361 457.117 266.504 457.118 270.775 457.272C273.48 457.427 275.899 455.882 277.038 453.101C278.605 448.776 278.89 448.775 281.168 452.174C282.449 454.336 285.155 456.035 287.005 456.19C290.849 456.344 291.418 459.742 287.859 461.596C286.577 462.368 285.723 465.149 286.15 467.929C286.862 473.644 285.297 474.417 281.595 470.247C279.602 468.084 278.606 468.084 276.47 469.937C272.341 473.645 270.632 472.717 272.198 467.62ZM680.945 489.555C679.663 485.539 682.083 481.986 686.07 482.295C690.341 482.604 692.05 488.936 688.348 491.099C683.935 493.57 682.084 493.107 680.945 489.555ZM208.274 454.491C207.704 452.483 208.273 450.166 209.412 449.085C212.687 446.15 218.524 449.702 218.239 454.336C217.954 459.279 209.84 459.434 208.274 454.491ZM240.45 455.419C241.731 452.484 241.019 449.548 238.741 446.768C235.467 442.597 235.466 442.442 239.737 442.597C242.3 442.751 245.432 441.207 246.713 439.354C248.991 435.955 249.277 435.956 251.128 439.508C252.267 441.671 255.113 443.525 257.534 443.679C261.805 443.988 261.948 444.141 258.104 447.848C255.541 450.474 254.543 453.255 255.255 456.344C256.394 460.515 256.11 460.669 252.266 457.889C248.707 455.417 247.141 455.417 243.439 457.425C239.168 459.742 238.884 459.589 240.45 455.419ZM703.155 479.669C702.159 476.116 705.433 472.871 710.131 473.026C713.691 473.18 714.83 478.742 711.84 481.368C708.281 484.611 704.579 483.839 703.155 479.669ZM190.193 443.215C185.921 439.663 187.914 435.183 193.609 435.647C198.592 435.956 200.443 441.361 196.741 444.141C194.605 445.531 192.755 445.223 190.193 443.215ZM408.163 439.972C408.306 424.217 409.159 423.135 419.267 423.598C422.399 423.907 424.251 425.142 424.109 427.15C424.109 428.85 422.115 430.241 419.837 430.086C417.417 429.932 415.424 431.167 415.282 433.02C415.139 434.719 416.989 436.263 419.409 436.418C421.687 436.572 423.539 438.118 423.396 439.818C423.254 441.671 421.402 442.906 418.982 442.751C416.562 442.597 414.712 443.988 414.569 445.687C414.427 447.695 416.42 448.931 419.694 449.24C422.969 449.394 424.962 450.784 424.82 452.637C424.677 454.954 422.257 455.728 416.278 455.419C408.02 454.955 408.021 454.955 408.163 439.972ZM428.094 454.646C427.524 453.873 427.241 446.613 427.811 438.581C428.522 426.069 429.233 424.061 432.081 424.833C434.074 425.296 436.494 429.159 437.776 433.329L440.054 440.898L440.765 432.866C441.334 424.833 444.182 422.516 446.175 428.54C446.745 430.548 447.03 437.191 446.603 443.525C445.748 457.117 441.049 459.126 436.921 447.695L434.359 440.434L433.789 447.232C433.077 453.874 430.514 457.271 428.094 454.646ZM213.399 437.036C214.396 434.102 213.969 431.939 211.976 431.012C207.705 429.158 208.558 425.761 213.257 426.07C215.677 426.224 218.097 424.525 218.952 421.745C220.803 416.956 220.803 416.956 222.796 421.899C223.793 424.68 226.639 426.996 229.059 427.15C233.046 427.305 233.046 427.614 229.487 431.012C227.351 433.174 226.212 436.418 226.781 438.426C228.062 442.288 224.219 443.215 222.368 439.508C221.514 437.964 219.521 437.964 216.531 439.354C212.402 441.207 212.118 441.052 213.399 437.036ZM294.835 443.525C291.987 441.671 291.846 440.588 293.696 438.426C296.686 435.182 302.238 437.037 301.953 441.207C301.811 445.223 299.106 446.15 294.835 443.525ZM273.907 484.92C274.049 481.676 275.188 480.904 278.889 481.522C285.865 483.067 286.008 490.018 279.032 489.709C275.045 489.4 273.622 488.318 273.764 484.92H273.907ZM634.959 504.383C632.254 501.293 635.814 496.196 640.369 496.505C644.641 496.814 646.065 500.83 642.933 504.228C639.658 507.781 638.091 507.781 634.959 504.383ZM253.121 479.823C249.277 477.043 252.408 470.555 257.106 471.791C259.099 472.254 260.667 474.57 260.525 476.733C260.24 481.521 257.107 482.758 253.121 479.823ZM600.221 563.544C598.798 557.211 597.658 550.877 597.801 549.642C597.801 548.251 595.949 547.17 593.671 547.015C591.251 546.861 589.401 546.398 589.401 545.78C589.544 544.081 600.791 533.885 601.645 534.812C603.496 537.129 609.19 571.729 607.908 573.428C605.061 577.753 602.784 574.82 600.221 563.544ZM440.622 521.837C439.911 519.829 440.481 517.358 441.763 516.122C445.322 513.033 451.159 516.432 450.162 520.757C448.881 525.545 442.046 526.317 440.622 521.837ZM391.933 516.741C391.221 514.887 391.932 512.261 393.214 511.026C396.631 507.936 402.609 511.333 401.328 515.658C400.189 520.601 393.356 521.375 391.933 516.741ZM415.423 519.058C414.711 517.822 415.139 515.659 416.278 514.578C419.552 511.798 426.385 513.959 426.243 517.666C425.958 521.528 417.416 522.611 415.423 519.058ZM464.114 521.992C463.402 520.756 463.973 518.593 465.112 517.512C468.244 514.731 475.219 516.895 474.934 520.602C474.792 524.464 466.107 525.545 464.257 521.992H464.114ZM489.457 522.61C488.175 518.594 490.595 515.195 494.582 515.504C498.995 515.813 500.704 522.147 496.86 524.309C492.447 526.781 490.595 526.318 489.457 522.61ZM368.441 513.959C365.309 510.561 368.013 505.773 372.711 506.082C377.979 506.391 379.688 510.098 376.413 513.805C372.996 517.357 371.431 517.358 368.441 513.959ZM514.229 521.992C511.382 517.976 513.801 514.424 519.069 514.732C521.632 514.887 523.056 516.432 522.913 519.058C522.629 524.155 517.219 526.008 514.229 521.992ZM343.384 507.164C342.245 503.302 346.659 500.057 350.93 501.911C352.354 502.529 353.492 505.001 353.492 507.164C353.064 512.261 344.95 512.261 343.384 507.164ZM538.289 517.821C539.57 511.334 547.97 511.333 547.543 517.666C547.401 520.292 545.55 521.992 542.276 522.146C538.147 522.61 537.435 521.837 538.289 517.821ZM320.462 501.758C319.75 499.904 320.319 497.432 321.458 496.35C324.59 493.57 330.998 496.969 329.859 500.985C328.72 505.619 321.886 506.237 320.462 501.758ZM562.065 516.122C560.784 512.106 565.483 508.863 569.469 510.716C571.035 511.334 572.173 513.805 572.031 515.968C571.746 521.065 563.774 521.065 562.065 516.122ZM299.107 497.896C297.683 497.279 296.686 494.96 296.828 492.643C297.113 487.391 306.224 488.474 306.936 493.726C307.363 497.587 303.378 499.596 299.107 497.896ZM586.268 513.343C584.844 508.709 586.98 506.082 591.678 506.391C596.518 506.7 598.371 511.643 594.954 514.732C591.395 517.976 587.549 517.359 586.268 513.343ZM609.617 509.327C607.481 505.465 615.597 500.83 618.871 503.919C620.153 505.309 620.723 507.628 620.011 509.327C618.445 512.879 611.468 512.725 609.617 509.327ZM412.006 620.076C411.294 618.995 404.033 618.068 396.203 617.759C388.372 617.45 372.427 615.289 360.895 612.972C349.221 610.5 334.556 607.565 328.292 606.484C311.065 603.549 280.029 594.899 253.121 585.786C229.915 577.908 227.494 576.208 219.237 563.851C216.389 559.526 216.247 559.528 215.82 565.397C215.393 572.657 215.961 572.811 180.511 554.893C149.189 539.137 144.918 536.048 147.054 531.259C148.335 528.17 148.052 528.017 144.777 530.488C141.502 532.805 139.082 531.723 124.56 521.683C115.448 515.504 100.357 503.92 90.9604 495.888C76.0114 483.068 74.0176 480.596 74.3023 474.727C74.5871 468.548 74.3032 468.238 71.5981 471.482C68.7507 474.725 67.4687 473.645 54.9401 458.816C28.4591 427.306 10.662 391.007 2.54682 352.699C-2.7209 327.058 0.55467 270.987 8.95456 245.809C17.9239 218.778 45.259 171.356 51.5233 171.665C53.0894 171.82 54.3702 170.276 54.5126 168.422C54.9397 161.317 81.9913 133.514 84.1268 137.839C85.1234 139.692 86.2623 138.457 87.5436 134.595C92.5266 118.686 158.444 75.8988 215.535 51.4934C243.155 39.7541 246.287 38.826 247.568 42.3787C248.707 45.7769 248.85 45.7782 249.277 41.7621C249.562 37.9005 253.691 35.8914 276.185 29.095C305.229 20.4449 359.756 8.39776 376.271 7.00758C381.965 6.54418 392.501 5.30764 399.62 4.22639C444.324 -2.87898 544.696 -0.716178 597.231 8.39723C694.47 25.0794 779.751 58.908 843.675 105.865C867.879 123.783 878.128 133.513 876.562 137.375C875.85 139.074 876.278 140.311 877.417 140.465C878.841 140.465 879.837 139.383 879.979 137.993C880.121 136.603 887.668 144.016 897.207 154.365C913.58 172.901 916.427 177.691 911.302 179.081C909.593 179.699 909.877 181.706 912.298 185.877C914.148 189.121 915.003 192.364 914.148 193.136C913.437 193.909 912.868 193.291 913.01 191.901C913.01 190.511 911.729 189.429 909.878 189.275C908.17 189.12 906.602 190.511 906.602 192.365C906.46 194.219 901.193 189.122 894.929 181.244C875.139 156.221 847.519 130.734 821.322 113.588C813.207 108.182 805.52 102.311 804.238 100.612C803.099 98.913 799.825 96.9064 797.262 96.2885C794.557 95.5162 787.723 92.4256 782.028 89.1819C756.97 75.1256 716.538 58.4444 681.087 47.6318C549.821 7.31659 392.074 9.32425 264.795 53.0377C253.263 56.8993 249.418 57.5176 248.137 55.3551C246.998 53.1926 246.571 53.3457 246.428 55.9716C246.286 58.1341 239.026 62.3048 225.928 67.7111C149.047 99.3763 87.1162 147.262 51.6658 202.406C0.839413 281.491 9.38077 377.414 73.8748 451.093C83.9831 462.832 86.1193 466.539 86.9736 475.343C87.9702 483.684 88.2551 484.457 88.967 479.359C89.3941 475.961 89.8219 472.254 89.6795 471.327C89.3948 468.856 93.0964 471.482 103.917 481.522C124.703 500.985 164.994 526.471 203.434 544.852C411.153 643.401 705.861 616.679 854.923 486.157C868.021 474.572 884.108 458.816 890.657 450.939C938.209 393.941 954.155 322.579 934.366 256.004C929.24 238.859 917.993 213.218 912.44 205.803C910.589 203.332 910.304 202.096 912.013 202.096C913.294 202.251 914.576 200.705 914.718 198.697C914.861 195.607 915.287 195.608 917.565 199.315C920.84 204.567 923.119 203.022 924.115 195.454C924.827 189.893 924.827 189.893 929.098 196.072C936.786 206.885 952.019 243.955 956.432 262.8C990.174 405.834 880.408 539.602 682.227 596.29C633.109 610.346 576.161 620.387 539.571 621.468C523.768 621.931 523.056 621.931 523.341 617.606C523.626 612.355 521.206 610.192 516.507 611.737C511.667 613.281 511.95 616.524 517.076 616.833C519.354 616.988 521.205 618.377 521.062 619.922C520.92 621.93 516.934 623.165 508.676 623.474C487.748 624.555 413.572 621.93 412.006 620.076ZM370.862 605.867C370.862 604.786 370.008 603.859 368.869 603.704C367.73 603.704 366.733 604.477 366.59 605.712C366.59 606.794 367.445 607.875 368.584 607.875C369.723 608.03 370.72 607.103 370.862 605.867ZM340.395 597.68C340.679 597.834 344.523 599.533 348.794 601.542C360.468 607.257 360.041 604.167 348.224 597.216C337.688 591.192 337.688 591.193 337.546 598.144C337.404 601.851 337.832 603.395 338.544 601.387C339.255 599.379 339.967 597.68 340.395 597.68ZM210.41 560.144C209.128 554.12 207.846 554.584 207.561 561.072C207.277 564.161 208.131 566.013 209.27 565.55C210.409 564.778 210.837 562.461 210.41 560.144ZM44.9748 421.899C44.4053 420.509 43.8346 421.591 43.6922 424.526C43.5499 427.461 43.9778 428.695 44.5473 427.305C45.2591 425.76 45.4019 423.444 44.9748 421.899ZM927.675 417.574C926.678 409.387 924.258 410.006 923.973 418.347C923.688 428.541 924.114 429.93 926.392 426.532C927.531 424.833 928.102 420.817 927.675 417.574ZM7.53119 301.571C7.10408 299.563 6.67572 300.645 6.2486 304.197C6.10623 307.75 6.24944 309.449 7.10366 308.059C7.81552 306.514 7.95831 303.733 7.53119 301.571ZM11.3755 288.442C12.5145 288.596 12.9407 287.669 12.2288 286.433C9.8085 281.799 7.10352 284.272 6.96115 290.913C6.96115 295.856 7.24527 296.474 8.0995 293.076C8.66898 290.45 10.2365 288.442 11.3755 288.442ZM384.529 591.656C360.753 587.948 360.183 587.794 362.176 583.623C363.03 581.461 366.306 581.306 375.702 583.005C398.055 587.33 486.324 591.811 517.503 590.266C686.355 582.543 828.869 518.902 895.356 421.435C916.854 389.925 924.969 364.901 927.247 322.268C929.098 292.148 928.814 287.824 924.258 270.987C912.156 224.957 887.383 186.031 848.231 151.277C836.699 141.082 832 133.513 837.41 133.822C841.397 134.131 866.312 157.61 882.542 176.609C910.305 209.356 925.538 239.94 933.511 279.638C938.209 303.271 935.789 344.512 928.101 369.69C893.504 482.913 757.256 568.64 572.743 593.509C524.764 599.842 432.508 599.07 384.529 591.656ZM338.259 583.314C272.056 568.022 221.799 549.487 174.675 522.92C91.8147 476.117 42.4107 416.184 27.4617 344.512C23.0482 323.042 26.3241 276.702 34.1545 253.687C41.273 232.371 54.3702 207.966 68.7497 188.658C80.4241 173.212 97.6514 155.138 97.6514 158.536C97.6514 159.618 99.3601 157.611 101.496 153.749C103.631 150.042 115.021 139.846 126.696 131.196C211.833 68.1743 320.746 32.3386 449.449 25.0787C480.486 23.2251 565.91 28.3237 597.943 34.0389C657.597 44.388 759.249 77.2894 754.124 84.7037C753.127 85.9394 753.555 86.2472 755.121 85.4749C758.111 83.7758 776.334 92.8899 776.192 95.8247C776.049 97.0604 777.33 97.6776 779.039 97.0597C785.303 95.2062 834.278 127.799 832 132.587C830.149 136.758 828.299 136.294 822.177 129.806C819.33 126.717 816.198 124.091 815.344 123.782C814.49 123.473 798.971 114.978 780.889 104.783C723.372 72.3454 664.715 52.5747 588.974 39.9086C555.801 34.6568 484.332 30.7955 449.024 32.4946C288.856 40.5268 144.634 102.158 75.0149 192.365C23.3342 259.403 18.7775 347.293 63.482 414.64C68.6074 422.209 72.4526 429.622 71.8831 431.012C71.5984 432.402 71.5969 432.867 72.1664 432.094C72.7359 431.168 81.1366 438.891 90.8179 449.394C100.499 459.743 119.291 476.424 132.532 486.619C145.772 496.659 157.305 505.774 158.017 507.009C158.871 508.245 159.582 508.553 159.582 507.626C159.725 506.854 171.115 512.57 185.067 520.293C226.213 543.154 277.038 561.844 331.851 574.201C351.071 578.68 359.472 581.306 359.472 583.314C359.187 586.094 350.075 586.094 338.116 583.314H338.259ZM449.734 569.104C450.589 554.739 450.304 552.731 446.46 551.495C444.182 550.877 442.473 548.869 442.473 547.17C442.616 545.162 445.891 544.544 454.291 545.007C463.261 545.47 465.965 546.397 465.822 548.869C465.68 550.722 463.687 551.959 461.125 551.804C456.996 551.495 456.568 552.421 456.425 568.022C456.283 582.233 455.715 584.395 452.44 584.858C449.166 585.322 448.88 583.47 449.734 569.104ZM469.382 581.77C468.955 578.989 468.812 569.877 469.239 561.536C470.236 546.398 470.236 546.396 479.775 546.242C485.754 546.088 489.598 547.015 490.167 548.559C491.306 552.112 489.171 553.503 483.334 553.039C479.775 552.885 478.209 554.121 478.066 557.056C477.924 560.145 479.205 561.381 483.191 561.536C486.466 561.845 488.318 563.234 488.176 565.088C488.176 567.096 486.04 568.176 482.766 568.022C478.494 567.713 477.355 568.795 477.07 572.966C476.786 577.6 477.64 578.372 484.189 578.681C489.457 578.99 491.592 580.226 491.45 582.388C491.308 584.551 489.029 585.322 484.046 585.013C480.06 584.858 475.362 585.013 473.654 585.631C471.518 586.249 470.094 584.859 469.382 581.77ZM381.255 576.982C379.404 575.592 379.119 572.657 380.4 567.405C382.108 560.763 381.823 559.837 378.121 559.528C374.989 559.373 373.567 561.225 372 567.867C369.153 580.379 365.024 576.827 366.163 562.771C367.586 545.625 370.577 535.74 374.136 535.894C376.272 536.049 376.983 538.519 376.698 544.698C375.986 555.665 381.539 556.747 384.244 546.089C385.526 540.683 387.092 538.828 390.224 538.983C393.072 539.137 393.925 540.373 392.929 542.999C392.359 545.007 390.651 553.502 389.369 561.998C386.807 578.062 385.668 580.071 381.255 576.982ZM396.488 561.227C397.627 551.032 399.335 542.072 400.19 541.145C403.749 537.593 408.305 543.154 410.725 553.658L413.288 564.933L414.284 553.812C414.854 545.471 415.851 542.69 418.271 542.844C420.834 542.999 421.261 546.552 420.407 562.307C419.268 580.843 418.983 581.461 414.427 580.535C411.01 579.762 409.301 576.826 406.881 567.713L404.034 555.821L403.179 568.022C402.325 578.526 401.613 580.071 398.339 579.916C394.495 579.762 394.352 578.372 396.488 561.227ZM499.422 583.468C494.581 579.607 493.442 553.348 497.713 548.714C502.127 544.08 514.228 545.625 516.933 551.031C519.781 557.519 514.941 562.152 511.24 556.437C506.399 548.868 503.693 551.649 503.551 564.47C503.551 574.046 504.263 576.826 507.11 577.599C511.951 578.834 512.804 570.803 508.106 568.641C503.55 566.632 506.683 563.08 512.663 563.389C517.931 563.853 519.924 568.485 519.354 579.143C519.069 583.159 517.93 584.705 515.225 584.551C513.232 584.396 509.673 584.704 507.253 585.322C504.833 585.94 501.415 585.168 499.279 583.468H499.422ZM546.262 571.267C547.401 565.243 549.11 558.137 549.822 555.666C551.103 551.341 550.39 550.876 543.556 550.413C538.573 550.104 536.012 549.023 536.155 547.015C536.439 543.771 555.373 541.454 557.936 544.388C558.79 545.315 557.652 554.12 555.374 564.006C553.096 573.737 551.102 581.925 551.102 582.233C551.102 582.542 549.394 582.697 547.543 582.543C544.696 582.388 544.412 580.689 546.262 571.267ZM424.251 567.713C424.394 565.396 426.67 564.625 431.938 564.933C437.063 565.242 439.199 566.324 439.057 568.641C438.914 570.803 436.636 571.576 431.511 571.267C426.243 570.958 424.109 569.875 424.251 567.713ZM567.761 574.974C566.052 572.348 565.34 569.258 565.91 568.331C567.903 565.551 572.743 566.787 573.882 570.494C575.163 574.51 579.292 572.811 579.577 568.177C579.719 566.478 577.868 564.316 575.59 563.544C571.034 561.999 570.465 558.291 574.309 554.893C575.733 553.657 576.159 550.876 575.59 548.714C574.451 545.161 574.025 545.162 570.039 549.796C566.764 553.658 565.055 554.274 563.489 552.266C560.499 549.023 564.628 541.764 570.465 540.22C578.295 538.366 587.835 548.714 583.849 554.738C583.137 555.665 583.706 559.528 585.414 563.389C588.119 569.568 587.976 570.647 584.702 575.281C579.861 581.614 571.747 581.462 567.761 574.974ZM522.771 569.721C522.059 568.64 522.913 566.941 524.622 566.014C529.32 563.542 537.15 564.624 537.008 567.867C536.723 571.266 524.337 572.965 522.771 569.721ZM455.145 442.751C455.714 432.866 455.144 430.086 452.866 429.932C451.015 429.777 449.592 428.85 449.734 427.614C449.734 426.379 451.585 425.606 453.436 425.606C455.572 425.761 459.416 425.451 462.121 424.833C465.68 424.061 466.82 424.679 466.678 427.305C466.678 429.159 465.538 430.703 464.399 430.548C463.26 430.548 461.979 436.11 461.552 443.215C460.983 453.101 460.128 455.88 457.566 455.726C455.145 455.571 454.575 452.637 455.145 442.751ZM470.663 454.955C470.235 453.874 469.952 447.077 470.094 439.354C470.379 425.761 470.378 425.606 476.215 425.297C483.903 424.834 488.602 429.314 486.893 435.647C486.181 438.582 486.039 444.141 486.893 448.157C487.89 454.49 487.464 455.572 484.616 454.8C482.623 454.337 480.914 451.865 480.772 449.085C480.203 442.598 476.5 442.752 476.073 449.24C475.788 454.646 472.371 458.044 470.663 454.955ZM481.2 434.874C481.342 433.02 479.917 431.476 478.351 431.476C476.358 431.321 475.503 432.556 476.073 434.564C476.785 436.264 478.067 437.809 479.064 437.809C480.203 437.964 481.057 436.573 481.2 434.874ZM685.217 464.995C686.071 462.369 685.216 459.588 682.796 457.579C679.236 454.336 679.237 454.336 683.936 454.491C686.926 454.645 689.488 453.1 690.627 450.165C692.762 445.532 692.761 445.532 695.039 450.475C696.178 453.101 699.17 455.262 701.875 455.571C706.146 455.726 706.144 455.881 702.3 458.353C699.595 460.206 698.599 462.677 699.026 465.612C699.88 469.628 699.454 469.937 695.894 467.775C692.905 465.921 691.054 465.766 689.346 467.311C685.502 470.709 683.65 469.784 685.217 464.995ZM724.796 469.474C724.084 468.083 725.222 465.612 727.215 463.758C730.49 460.824 731.059 460.979 734.334 464.531C737.324 467.93 737.324 468.702 734.476 470.247C730.063 472.718 726.362 472.408 724.796 469.474ZM491.877 448.776C492.874 444.914 494.44 438.427 495.437 434.102C498.142 421.9 503.551 423.906 507.253 438.117C508.819 444.45 510.099 451.248 509.957 453.256C509.672 457.581 505.687 457.581 504.264 453.256C503.694 451.402 501.985 449.856 500.277 449.702C498.711 449.547 497.287 450.938 497.145 452.792C497.003 454.491 495.437 455.88 493.443 455.726C490.738 455.571 490.454 454.182 491.877 448.776ZM278.036 437.964C274.05 434.566 277.18 429.313 282.021 431.476C285.723 433.175 286.436 437.964 283.161 439.663C282.165 440.281 279.887 439.509 278.036 437.964ZM514.229 450.011C514.514 447.23 514.371 440.434 513.944 434.874C513.09 424.988 513.089 424.988 520.777 425.452C530.316 426.069 533.021 431.012 531.313 444.76C530.031 454.645 529.89 454.8 522.06 454.955C514.799 455.109 514.087 454.645 514.229 450.011ZM525.477 441.671C525.904 434.566 525.191 432.094 522.913 431.94C519.496 431.785 518.501 437.654 520.209 446.149C521.775 454.336 524.907 451.866 525.477 441.671ZM537.008 442.442C540.14 428.849 544.268 422.054 547.258 426.07C550.818 430.858 554.946 453.563 552.668 455.571C550.96 457.116 549.821 456.653 549.109 454.027C547.543 449.548 542.418 449.085 540.567 453.256C539.713 454.955 537.862 456.344 536.438 456.19C534.445 456.035 534.588 453.1 537.008 442.597V442.442ZM546.69 441.978C546.832 441.052 545.978 439.353 544.839 438.581C543.7 437.808 542.703 438.735 542.561 440.434C542.561 442.288 543.273 443.834 544.554 443.834C545.693 443.988 546.69 443.06 546.69 441.978ZM169.549 426.687C168.98 424.679 169.549 422.207 170.83 420.971C174.247 417.882 180.226 421.281 179.23 425.606C177.948 430.395 170.973 431.166 169.549 426.687ZM260.95 430.086C260.381 428.387 260.666 426.069 261.378 424.988C263.656 421.744 268.924 425.143 268.639 429.777C268.354 434.411 262.374 434.72 260.95 430.086ZM746.72 458.043C744.727 454.182 752.274 448.62 754.979 451.71C756.26 453.1 756.686 455.726 755.832 457.579C754.124 461.132 748.713 461.596 746.72 458.043ZM713.263 452.019C714.402 448.775 713.832 446.458 711.127 444.296C707.71 441.206 707.712 441.053 712.41 441.207C715.4 441.516 717.962 439.817 719.243 437.036C721.237 432.248 721.235 432.248 723.371 437.191C724.652 439.817 727.644 442.133 730.206 442.288C734.62 442.597 734.619 442.752 730.775 445.223C727.927 446.923 726.931 449.394 727.643 452.483C728.355 456.344 727.928 456.654 724.654 454.646C721.806 452.946 719.244 452.792 716.112 454.336C711.983 456.344 711.697 456.035 713.263 452.019ZM185.921 417.728C186.775 414.793 186.064 412.168 183.501 410.16C179.942 407.379 180.084 407.07 184.64 407.378C187.772 407.533 190.051 406.143 190.905 403.517C191.759 401.2 193.04 399.346 193.894 399.501C194.749 399.501 195.888 401.509 196.315 403.826C196.885 406.452 199.019 408.306 202.151 408.615C206.707 408.77 206.851 409.078 203.434 411.395C200.871 413.094 199.873 415.565 200.585 418.809C201.44 423.288 201.155 423.597 196.884 420.971C193.609 418.809 191.616 418.656 189.907 420.2C185.921 423.753 184.212 422.671 185.921 417.728ZM245.718 423.907C242.87 421.899 244.579 415.256 247.996 415.411C248.993 415.411 250.842 416.957 251.981 418.656C254.971 422.518 249.846 426.842 245.718 423.907ZM155.312 412.632C153.889 412.014 152.892 409.696 153.034 407.533C153.319 402.59 160.722 402.283 162.146 406.917C163.285 410.624 159.014 414.176 155.312 412.632ZM668.131 440.898C668.416 436.11 674.965 433.484 677.1 437.5C678.097 439.199 677.387 441.207 674.966 442.751C669.841 446.15 667.846 445.532 668.131 440.898ZM229.487 413.557C227.779 411.24 227.921 410.005 230.057 408.306C233.901 405.526 238.884 409.232 237.033 413.557C235.182 417.574 232.477 417.574 229.487 413.557ZM766.795 444.296C766.083 443.06 767.08 440.434 769.073 438.735C773.629 434.565 780.463 439.662 776.192 444.296C773.202 447.694 768.646 447.54 766.795 444.296ZM685.927 434.102C686.497 431.94 688.634 429.931 690.912 429.622C693.617 429.313 694.47 430.24 693.758 433.02C693.331 435.183 691.054 437.037 688.918 437.346C686.071 437.655 685.216 436.728 685.927 434.102ZM164.424 394.559C164.567 391.624 163.57 388.69 162.288 387.763C160.722 386.527 161.433 385.599 164.565 384.518C167.128 383.746 169.407 381.739 169.407 379.885C169.692 375.715 173.251 375.868 174.532 380.193C175.102 382.046 177.664 383.592 180.085 383.747C184.641 383.901 184.64 384.209 180.938 387.916C178.091 390.542 177.38 393.169 178.234 396.721C179.373 401.201 179.088 401.355 175.955 398.42C173.108 395.794 171.684 395.641 168.267 397.494C164.565 399.502 164.14 399.038 164.424 394.559ZM701.59 429.159C700.308 424.988 702.586 421.436 706.43 421.745C711.27 421.899 711.556 428.233 707 430.241C703.583 431.785 702.301 431.475 701.59 429.159ZM139.082 390.697C137.231 388.226 137.088 386.681 138.939 385.136C142.356 382.047 148.335 385.137 147.196 389.462C146.057 394.405 142.072 394.868 139.082 390.697ZM786.585 429.777C785.303 425.761 787.866 422.209 791.71 422.518C795.981 422.827 797.405 426.843 794.273 430.241C790.714 433.948 787.866 433.793 786.585 429.777ZM202.721 392.396C198.877 387.144 204.288 382.975 208.559 387.763C211.122 390.698 211.121 391.625 208.416 393.478C205.996 395.332 204.714 395.022 202.721 392.396ZM337.546 401.663C337.119 401.046 338.401 396.413 339.967 391.161L342.814 381.739L386.38 381.893C410.441 382.202 430.373 382.51 430.8 382.974C431.227 383.437 430.087 387.917 428.236 393.014C424.962 401.973 424.25 402.437 416.135 403.055C402.468 403.982 338.116 402.899 337.546 401.663ZM717.108 420.046C716.538 418.655 716.965 416.647 718.246 415.566C721.236 412.785 727.786 415.565 726.362 419.118C724.938 422.516 718.816 423.289 717.108 420.046ZM430.23 397.647C430.372 394.712 431.512 391.933 432.793 391.315C433.932 390.698 435.07 387.607 435.212 384.518C435.355 381.429 437.918 369.845 440.908 358.878C443.755 347.911 448.881 327.211 452.298 312.692C463.118 266.198 463.83 263.574 466.535 262.183C471.376 259.557 472.372 263.109 470.379 278.246C466.678 305.587 455.857 394.867 455.572 399.655C455.287 403.98 454.433 404.289 442.616 403.517C430.514 402.899 429.945 402.59 430.23 397.647ZM765.229 418.192C765.371 416.03 764.091 413.868 762.382 412.941C757.542 410.778 758.964 407.843 764.801 408.152C768.076 408.306 770.212 407.226 770.354 405.218C770.496 403.519 771.494 402.127 772.633 402.282C773.771 402.282 774.626 403.826 774.483 405.525C774.341 407.533 776.334 408.77 780.036 409.079C785.446 409.388 785.588 409.387 781.602 413.248C779.324 415.411 778.041 418.501 778.469 420.046C779.18 422.208 777.473 422.827 772.205 422.518C766.653 422.209 765.087 421.282 765.229 418.347V418.192ZM510.1 398.575C509.672 395.949 507.823 369.844 506.115 340.341C504.121 310.993 502.27 281.49 501.7 274.694C500.846 263.727 501.13 262.491 504.547 262.645C507.252 262.8 508.818 265.272 509.815 270.987C510.811 275.312 512.235 283.345 513.374 288.751C514.37 294.003 515.938 301.88 516.65 305.896C517.362 310.067 519.211 320.261 520.635 328.447C522.059 336.788 524.053 348.374 525.049 354.398C526.188 360.268 527.612 366.292 528.323 367.682C529.178 369.072 530.175 374.941 530.602 380.502C531.029 386.217 532.595 391.778 534.019 392.705C535.585 393.786 536.723 397.03 536.58 399.81C536.296 404.753 535.585 404.908 523.483 404.29C512.094 403.518 510.811 403.054 510.1 398.575ZM189.339 378.648C188.912 376.795 189.481 374.324 190.763 373.088C194.037 370.153 199.874 375.405 197.881 379.421C196.03 383.437 190.763 382.973 189.339 378.648ZM460.127 396.721C460.27 394.404 504.405 393.324 506.398 395.486C508.676 398.112 505.687 398.421 482.908 398.729C467.959 398.729 459.985 397.957 460.127 396.721ZM538.289 395.177C536.723 390.389 535.3 385.445 535.3 384.209C535.442 382.355 592.532 381.893 618.301 383.438C622.572 383.592 624.14 385.444 626.702 393.786L629.549 403.826L615.312 404.135C607.624 404.444 587.692 404.29 571.32 404.135C541.564 403.672 541.563 403.673 538.289 395.177ZM732.91 411.085C731.344 406.606 735.045 403.21 739.316 405.218C743.73 407.071 743.161 410.469 738.178 412.786C734.904 414.331 733.765 413.866 732.91 411.085ZM802.673 412.322C800.679 408.615 808.082 402.9 810.93 405.989C812.211 407.379 812.639 410.159 811.785 411.859C810.076 415.566 804.666 415.875 802.673 412.322ZM128.832 370.616C128.262 369.844 127.692 367.372 127.834 365.055C128.261 359.34 135.38 361.658 135.808 367.682C136.235 372.316 131.964 374.169 128.832 370.616ZM149.047 365.983C149.189 363.048 147.766 359.65 145.773 358.26C142.498 356.097 142.498 355.943 145.915 356.097C147.766 356.097 151.469 354.398 153.746 352.081C157.448 348.683 158.301 348.528 159.155 351.462C159.867 353.161 162.145 354.862 164.565 355.017C169.548 355.326 170.118 358.569 165.278 360.113C162.857 360.886 162.287 362.738 163.142 367.063C164.138 372.624 163.997 372.779 160.722 369.845C157.875 367.219 156.308 367.063 152.891 368.762C149.332 370.925 148.762 370.617 149.047 365.983ZM460.697 386.835C460.84 384.055 463.687 383.591 478.351 384.518C488.032 384.981 498.142 385.136 500.704 384.518C504.264 383.746 505.544 384.519 505.402 386.99C505.26 389.925 502.27 390.234 486.182 389.307C475.789 388.689 465.822 388.689 463.972 389.153C461.694 389.925 460.555 389.152 460.697 386.835ZM180.938 365.519C179.23 363.048 179.087 361.503 180.796 359.959C183.643 357.333 187.631 359.804 187.346 363.82C187.203 368.3 183.643 369.226 180.938 365.519ZM746.009 400.428C744.016 396.721 751.419 390.851 754.124 394.095C755.405 395.485 755.833 398.111 754.979 399.964C753.27 403.672 748.002 403.981 746.009 400.428ZM358.902 367.527C359.898 363.048 361.322 358.878 362.033 358.105C362.888 357.333 380.115 357.023 400.332 357.332L436.921 358.105L435.07 367.218C433.931 372.315 432.935 376.64 432.651 376.795C432.651 377.104 415.566 376.794 394.779 376.486L357.193 375.714L358.902 367.527ZM784.021 397.031C784.448 394.868 783.594 391.315 782.17 389.307C779.75 386.064 780.036 385.755 783.595 385.91C786.016 386.064 789.005 383.901 790.286 381.43C792.707 376.796 792.707 376.796 793.988 381.739C794.7 384.674 796.836 386.681 799.541 386.835C803.242 386.99 803.384 387.453 800.679 390.388C798.971 392.241 797.831 395.639 798.116 397.802C798.401 401.354 797.831 401.663 794.841 399.655C792.421 398.111 789.717 397.958 787.012 399.193C783.738 400.738 783.167 400.429 784.021 397.031ZM461.267 377.723C461.41 375.251 503.409 374.014 505.402 376.331C507.68 378.957 504.548 379.422 482.908 379.576C468.386 379.885 461.125 379.113 461.267 377.723ZM818.191 393.633C815.486 389.926 820.754 382.356 824.456 384.827C827.588 387.144 827.16 391.624 823.458 394.404C821.038 395.949 819.757 395.795 818.191 393.478V393.633ZM533.876 373.088C534.019 370.771 533.164 368.3 532.025 367.527C530.886 366.601 530.032 364.284 530.174 362.121C530.459 358.723 533.163 358.26 554.377 358.414C567.617 358.414 584.275 358.259 591.678 357.951C606.057 357.487 605.489 356.868 609.191 372.469C610.615 377.876 607.197 378.186 558.649 377.568C534.73 377.413 533.591 377.104 533.876 373.088ZM759.534 388.38C757.398 384.672 764.943 378.957 767.791 382.201C769.499 384.209 769.358 385.599 767.08 387.916C763.663 391.623 761.242 391.778 759.391 388.38H759.534ZM121.285 347.293C119.719 342.505 122.566 336.943 125.698 338.333C127.122 338.797 128.261 341.577 128.119 344.203C127.692 350.073 122.852 352.236 121.285 347.293ZM173.534 347.293C173.962 342.042 176.24 340.343 179.515 343.432C183.501 347.139 182.362 351.771 177.664 351.462C174.816 351.308 173.392 349.765 173.534 347.293ZM463.972 366.602C464.114 365.366 471.091 364.901 480.915 365.519C490.169 365.983 499.279 365.982 501.13 365.365C503.408 364.592 504.547 365.519 504.404 367.682C504.262 370.617 501.131 370.926 484.046 369.999C471.945 369.227 463.972 367.837 463.972 366.602ZM464.542 358.569C464.684 356.561 484.616 355.17 497.998 355.942C509.103 356.56 506.114 359.959 493.586 360.732C477.783 361.659 464.399 360.577 464.542 358.569ZM770.924 374.17C768.931 370.463 776.476 364.747 779.324 367.991C781.032 369.999 780.889 371.389 778.611 373.706C775.194 377.413 772.775 377.568 770.924 374.17ZM378.834 343.432C379.831 338.952 381.397 334.626 382.393 334.008C383.248 333.235 397.627 332.773 414.142 332.927L444.324 333.237L441.763 342.195C440.339 347.138 438.914 351.463 438.629 351.617C438.344 351.771 424.393 351.926 407.593 351.772L376.983 351.462L378.834 343.432ZM799.541 370.154C800.11 368.764 799.113 365.519 797.262 363.202C793.846 358.877 793.846 358.722 799.256 359.031C803.242 359.34 804.95 358.106 805.947 354.707C807.086 350.073 807.086 350.074 808.368 354.862C809.364 358.26 811.357 359.804 815.059 360.113C820.327 360.422 820.326 360.423 816.482 364.284C814.204 366.447 812.781 369.535 813.35 371.08C814.062 373.088 811.927 373.861 806.232 373.552C800.537 373.088 798.544 372.162 799.541 370.154ZM142.784 327.522C142.926 324.896 142.072 321.343 140.79 319.953C138.939 317.79 139.223 317.326 141.929 317.481C143.922 317.481 146.627 315.782 147.909 313.619C150.471 309.603 150.471 309.604 154.315 313.929C156.593 316.4 159.44 318.407 161.006 318.716C162.429 318.716 161.86 319.797 159.582 320.879C156.593 322.423 155.739 324.431 156.593 328.602C157.447 333.39 157.305 333.7 154.315 330.919C151.752 328.448 150.186 328.293 146.769 330.146C143.067 332.154 142.499 331.847 142.784 327.522ZM170.403 329.53C170.545 326.595 171.827 325.512 174.247 326.13C179.799 327.52 179.942 334.626 174.532 334.317C171.542 334.008 170.26 332.619 170.403 329.53ZM828.158 368.917C829.581 361.812 836.842 361.657 836.414 368.608C836.13 372.778 834.849 374.015 831.574 373.861C828.3 373.706 827.446 372.47 828.158 368.917ZM465.112 347.446C465.254 346.21 473.084 345.903 484.331 346.675C495.721 347.293 503.408 348.528 503.266 349.763C503.266 350.999 495.436 351.464 484.189 350.846C472.799 350.074 465.112 348.682 465.112 347.446ZM527.185 344.358C526.046 339.569 525.618 335.554 526.045 335.09C527.611 333.7 586.127 334.164 587.55 335.554C588.262 336.326 589.257 340.342 589.827 344.667C590.824 352.545 590.825 352.545 575.164 352.854C528.182 353.626 529.321 353.78 527.185 344.358ZM118.154 319.798C119.293 314.083 125.698 312.693 127.264 317.636C128.688 322.424 126.553 325.049 121.428 324.74C118.296 324.586 117.442 323.351 118.154 319.798ZM465.68 339.416C465.822 337.099 499.849 336.635 502.981 338.797C503.978 339.569 501.131 340.806 496.433 341.269C484.331 342.659 465.538 341.578 465.68 339.416ZM780.036 356.561C780.463 354.553 782.741 352.39 784.876 352.235C787.724 351.927 788.435 352.698 787.865 355.479C787.296 357.641 785.018 359.65 782.883 359.959C780.035 360.268 779.324 359.341 780.036 356.561ZM739.887 437.5C740.741 435.801 739.744 432.403 737.893 429.932C734.476 425.607 734.62 425.606 739.176 425.915C742.166 426.07 744.442 424.525 745.297 421.899C746.009 419.737 747.432 417.728 748.286 417.883C749.14 417.883 750.28 419.892 750.849 422.363C751.276 424.989 753.412 426.687 756.545 426.996C761.385 427.305 761.384 427.46 757.398 430.086C754.693 431.785 753.554 434.411 754.124 437.191C754.978 442.288 753.128 442.751 749.568 438.89C747.718 436.727 746.579 436.573 744.443 438.581C740.599 441.824 738.32 441.362 739.887 437.5ZM216.246 404.445C214.11 402.591 213.684 400.737 214.965 398.729C217.528 395.331 223.792 397.802 223.507 402.127C223.222 406.607 220.09 407.688 216.246 404.445ZM170.118 315.009C168.694 312.074 173.678 306.36 176.24 308.059C177.095 308.831 177.949 311.148 177.806 313.465C177.522 317.79 172.253 318.871 170.118 315.009ZM397.2 326.903C396.489 325.976 400.617 311.766 402.183 310.376C402.895 309.913 413.857 309.603 426.813 309.758L450.162 309.912L447.456 318.099C445.89 322.579 444.183 326.749 443.613 327.212C442.475 328.294 398.197 327.984 397.2 326.903ZM468.243 331.383C468.243 330.147 470.521 328.756 473.226 328.293C481.056 326.594 502.413 328.448 502.27 330.765C502.27 332 498.141 332.618 493.158 332.464C488.175 332.155 480.629 332.155 476.215 332.773C471.232 333.236 468.101 332.619 468.243 331.383ZM835.702 345.438C835.844 341.268 836.841 340.033 839.546 340.805C841.539 341.269 843.248 343.585 843.105 345.902C842.963 348.219 841.112 350.382 838.976 350.537C836.271 351 835.417 349.609 835.702 345.438ZM522.343 320.108C521.347 315.628 521.063 311.456 521.633 310.993C522.202 310.529 532.879 310.376 545.55 310.531C568.614 310.84 568.614 310.839 570.607 319.025C571.746 323.659 572.174 327.675 571.747 328.138C571.178 328.756 560.214 328.756 547.401 328.602C524.194 328.447 524.194 328.449 522.343 320.108ZM785.304 338.952C785.873 336.171 787.723 334.008 789.431 334.162C794.13 334.471 792.991 342.659 788.151 343.277C785.161 343.741 784.449 342.659 785.161 338.952H785.304ZM121.143 297.554C121.57 292.612 123.421 291.068 126.981 292.612C131.679 294.775 130.113 302.034 125.272 301.725C122.567 301.571 121.001 300.026 121.143 297.554ZM468.812 320.415C468.954 319.334 476.215 318.562 485.042 318.716C496.717 318.87 500.847 319.644 500.704 321.652C500.562 323.505 496.006 323.969 484.759 323.351C475.932 322.733 468.812 321.496 468.812 320.415ZM808.51 336.634C808.51 334.935 807.228 331.692 805.377 329.53C802.245 325.668 802.387 325.359 807.655 325.668C811.357 325.977 813.635 324.586 814.774 321.343C816.625 316.709 816.624 316.709 818.048 321.652C818.902 324.432 821.323 326.594 823.886 326.748C829.011 327.057 829.439 330.302 824.598 331.847C822.463 332.465 821.608 334.472 822.177 336.789C823.032 340.033 821.893 340.65 815.771 340.187C810.504 339.878 808.368 338.797 808.51 336.634ZM149.617 294.002C150.614 290.14 150.045 287.669 148.194 286.743C144.065 284.889 144.919 281.644 149.475 281.953C151.61 282.108 154.599 280.101 155.881 277.475C158.301 272.841 158.301 272.842 159.44 277.784C160.436 281.183 162.43 282.727 166.416 282.881C171.826 283.344 171.828 283.498 167.984 286.124C165.278 287.978 164.138 290.449 164.708 293.384C165.277 297.091 164.709 297.555 160.437 296.165C157.448 295.238 153.889 295.701 151.753 297.245C148.479 299.562 148.193 299.254 149.617 294.002ZM174.817 296.938C175.244 294.775 177.522 292.921 179.657 292.612C182.505 292.303 183.358 293.23 182.646 296.01C182.219 298.018 179.942 300.027 177.806 300.336C174.959 300.645 174.105 299.718 174.817 296.938ZM469.382 312.384C469.524 310.222 499.137 308.368 500.988 310.376C503.408 313.157 497.856 314.547 484.046 314.392C475.362 314.392 469.239 313.466 469.382 312.384ZM417.844 296.783C420.121 286.589 422.256 285.661 440.337 286.588C455.571 287.515 455.572 287.516 453.436 295.084C452.155 299.1 450.874 302.652 450.447 303.115C450.02 303.424 442.19 303.888 432.936 304.043C415.994 304.506 415.993 304.506 417.844 296.783ZM786.727 323.66C785.303 319.489 787.724 316.091 791.852 316.246C793.988 316.4 794.7 318.098 794.131 321.033C792.992 326.594 788.151 328.294 786.727 323.66ZM469.952 303.579C469.952 301.571 482.338 299.872 493.016 300.49C503.978 301.108 500.847 304.351 488.318 305.123C473.369 306.05 469.809 305.741 469.952 303.579ZM838.265 326.13C835.133 322.732 837.411 316.863 841.682 317.172C845.099 317.326 845.811 318.563 845.099 321.961C844.245 326.595 840.543 328.91 838.265 326.13ZM182.789 284.271C181.223 281.027 184.498 275.157 187.203 276.238C190.193 277.474 189.765 284.888 186.491 285.66C185.209 286.124 183.501 285.352 182.789 284.271ZM127.121 275.776C128.545 268.825 135.665 268.516 135.238 275.467C135.095 279.638 133.957 281.027 130.54 280.873C127.265 280.564 126.41 279.329 127.121 275.776ZM517.646 296.165C516.507 291.685 515.938 287.977 516.222 287.668C516.507 287.36 524.337 287.052 533.734 286.897C550.961 286.434 550.96 286.434 552.953 294.62C555.516 305.279 553.951 306.204 534.589 304.968C519.64 304.042 519.639 304.042 517.646 296.165ZM471.66 295.237C471.091 294.156 472.088 292.612 473.939 291.994C479.633 290.295 500.277 292.149 500.277 294.466C500.134 295.702 496.148 296.319 491.022 296.165C486.182 295.856 480.061 296.011 477.498 296.474C474.935 297.092 472.372 296.473 471.66 295.237ZM192.186 269.907C190.477 266.663 197.597 262.491 200.017 265.272C201.298 266.662 201.582 268.671 200.728 269.907C198.877 272.532 193.61 272.532 192.186 269.907ZM783.453 303.888C782.883 302.189 783.026 300.026 783.738 299.563C786.016 297.554 791.425 301.108 791.282 304.352C790.997 308.677 784.877 308.367 783.453 303.888ZM803.1 303.424C804.381 299.717 803.669 297.555 800.964 295.856C797.547 293.539 797.689 293.384 802.103 293.538C805.377 293.693 807.656 292.302 808.653 289.677C810.077 284.734 813.778 284.117 813.493 288.596C813.351 290.295 815.2 292.457 817.62 293.384C821.037 294.619 821.324 295.547 819.188 297.864C817.764 299.408 816.91 302.651 817.337 304.968C818.049 308.676 817.621 308.83 814.346 306.822C811.641 305.123 808.937 305.124 805.947 306.515C801.96 308.368 801.676 308.058 803.1 303.424ZM473.226 284.271C473.226 283.189 479.064 282.572 486.04 283.036C493.016 283.499 498.711 284.734 498.711 285.815C498.569 287.051 492.873 287.67 485.755 287.206C478.779 286.743 473.084 285.506 473.226 284.271ZM435.212 278.865C435.355 277.011 436.921 272.222 438.914 268.36C442.189 261.718 443.043 261.256 451.87 261.719C461.267 262.337 461.267 262.337 458.846 271.142C455.714 281.645 453.721 283.035 442.901 282.572C437.348 282.108 435.07 281.182 435.212 278.865ZM138.939 259.711C135.95 256.313 138.511 251.37 143.352 251.679C148.05 251.988 148.478 256.777 144.064 260.021C141.929 261.565 140.505 261.41 138.939 259.711ZM836.414 302.034C832.855 299.718 834.707 292.303 838.835 292.458C842.395 292.767 843.959 299.872 841.112 302.344C839.973 303.271 837.981 303.116 836.414 302.034ZM513.944 276.857C510.669 266.199 512.947 262.338 522.628 262.183C531.882 262.029 532.168 262.492 536.012 277.784C537.151 282.109 533.307 283.654 523.056 283.036C517.076 282.727 515.51 281.645 513.944 276.857ZM204.715 259.093C202.864 256.467 203.148 255.231 205.853 253.378C211.121 249.516 215.393 254.922 210.552 259.093C207.563 261.719 206.708 261.719 204.715 259.093ZM473.654 275.776C473.796 274.695 479.49 274.076 486.608 274.539C493.584 274.848 499.279 276.239 499.137 277.321C499.137 278.711 493.301 279.174 486.325 278.71C479.206 278.401 473.654 277.166 473.654 275.776ZM184.782 244.574C177.521 228.51 180.653 225.884 194.748 236.696C200.585 241.176 205.283 244.264 205.425 243.492C205.425 242.874 202.152 237.777 198.166 232.216C190.905 222.022 190.905 222.021 196.03 218.314C198.878 216.306 202.01 214.762 203.149 214.762C206.281 214.916 204.857 218.778 200.87 220.786C197.881 222.176 197.596 223.258 199.447 225.421C201.298 227.429 202.579 227.582 205 225.883C208.986 222.948 211.406 225.575 207.989 229.282C204.002 233.453 208.558 237.932 213.399 234.534C215.25 233.143 217.527 232.679 218.239 233.606C220.375 236.077 202.864 247.817 197.881 247.508C194.891 247.199 193.609 248.282 193.752 250.753C194.748 258.94 189.765 255.696 184.782 244.574ZM192.613 243.183C192.613 242.719 191.331 241.02 189.622 239.476C187.06 237.004 186.775 237.159 187.629 240.094C188.626 243.183 192.471 245.5 192.613 243.183ZM776.477 288.287C774.626 282.417 779.751 279.482 782.883 284.425C784.449 286.742 785.161 289.523 784.449 290.45C782.455 293.384 777.616 291.994 776.477 288.287ZM474.222 267.28C474.222 266.199 479.633 265.427 486.04 265.89C492.446 266.199 497.571 267.588 497.571 268.67C497.429 269.905 492.161 270.523 485.755 270.214C479.348 269.751 474.079 268.516 474.222 267.28ZM216.816 247.353C215.25 244.573 220.09 241.021 223.507 242.257C224.646 242.72 225.5 244.419 225.5 246.118C225.215 249.826 218.667 250.906 216.816 247.353ZM151.753 240.867C151.184 239.168 151.61 236.697 152.749 235.152C155.169 231.445 161.577 234.841 160.58 239.321C159.441 243.955 153.034 244.883 151.753 240.867ZM453.721 248.127C453.721 236.387 453.722 236.233 459.559 236.542C465.254 237.005 465.396 237.468 464.684 247.508C464.399 253.378 463.26 258.167 462.263 258.012C461.124 258.012 458.846 258.32 456.996 258.938C454.433 259.711 453.721 257.549 453.721 248.127ZM477.498 248.281C478.067 237.778 478.067 237.777 486.325 238.241C494.298 238.704 494.582 239.012 495.437 247.353C496.576 258.629 495.293 260.02 485.185 259.402C476.785 258.939 476.786 258.939 477.498 248.281ZM766.51 274.23C764.944 271.295 767.365 267.744 770.924 268.053C774.056 268.208 776.477 273.613 774.483 275.467C772.348 277.475 767.791 276.547 766.51 274.23ZM828.298 278.71C825.309 275.312 827.445 268.98 831.147 269.907C833.14 270.37 834.706 272.841 834.564 274.849C834.279 279.174 830.719 281.336 828.298 278.71ZM231.908 238.704C230.627 234.688 234.612 230.518 237.744 232.68C241.018 234.997 240.165 239.786 236.321 241.022C234.47 241.64 232.477 240.712 231.908 238.704ZM507.395 246.737C508.107 235.152 508.107 234.996 513.944 235.923C519.354 237.004 519.781 237.777 519.639 248.127C519.639 259.402 519.64 259.402 513.233 258.938C506.684 258.629 506.684 258.476 507.395 246.737ZM212.829 222.639C207.988 214.607 207.419 212.137 209.555 209.82C213.399 205.649 222.226 206.575 223.649 211.209C224.361 213.372 226.924 217.387 229.487 220.477C233.046 224.493 233.474 226.348 231.48 227.429C229.772 228.201 227.779 227.119 226.07 224.493C222.796 219.087 218.667 220.786 221.23 226.501C226.355 237.468 220.09 234.688 212.829 222.794V222.639ZM219.805 215.999C219.947 213.373 215.961 210.438 214.395 211.982C212.686 213.373 215.108 217.698 217.671 217.852C218.81 217.852 219.663 217.08 219.805 215.999ZM755.974 263.573C752.842 262.183 752.842 257.085 755.974 255.386C759.249 253.687 764.231 258.938 762.523 262.491C761.242 265.425 760.246 265.735 755.974 263.573ZM779.466 262.8C780.178 260.637 781.601 257.239 782.598 254.922C784.449 251.06 784.164 251.061 779.039 255.231C769.5 262.8 770.355 257.395 780.179 246.891C790.856 235.616 796.123 236.388 790.997 248.436C788.007 255.232 788.009 255.232 792.565 250.444C795.27 247.509 797.832 246.272 798.971 247.508C799.967 248.744 797.12 253.07 791.71 258.167C782.313 266.972 777.331 268.824 779.466 262.8ZM168.552 224.957C165.704 221.713 168.41 216.925 173.109 217.234C175.671 217.388 177.094 218.933 176.951 221.559C176.666 226.193 171.542 228.51 168.552 224.957ZM245.432 230.053C244.721 228.663 245.289 226.502 246.428 225.421C249.56 222.795 255.968 225.575 254.687 228.973C253.263 232.526 247.141 233.143 245.432 230.053ZM235.325 221.404C231.623 218.624 224.647 205.957 224.789 202.713C225.074 198.079 230.911 194.528 235.325 196.227C238.884 197.771 247.711 211.209 247.568 215.071C247.426 217.388 241.02 223.412 238.884 223.258C238.172 223.258 236.464 222.486 235.325 221.404ZM241.161 214.762C241.303 211.672 235.324 201.787 233.189 201.633C230.341 201.478 230.625 205.34 234.185 211.364C237.317 216.925 240.876 218.778 241.161 214.762ZM260.382 220.941C261.806 215.38 268.781 215.225 268.497 220.631C268.354 223.721 266.789 224.957 263.799 224.802C260.809 224.648 259.813 223.412 260.382 220.941ZM741.595 250.598C739.886 248.281 740.029 246.89 742.307 245.345C745.867 242.719 751.276 248.126 748.856 251.679C746.72 254.614 744.158 254.306 741.595 250.598ZM765.656 252.759C763.806 249.516 781.175 229.745 783.595 232.525C784.592 233.761 781.887 238.396 776.192 244.729C770.782 250.753 766.368 254.149 765.656 252.759ZM815.486 254.615C813.636 252.143 813.635 250.597 815.344 249.052C819.045 245.809 824.456 249.054 824.171 254.151C823.886 259.248 819.046 259.403 815.486 254.615ZM448.739 230.981C449.023 226.965 456.284 226.347 494.297 226.656C519.639 227.119 523.483 227.428 523.341 230.363C523.199 232.989 518.643 233.606 500.277 233.451C487.606 233.451 470.806 233.606 462.976 233.915C451.017 234.07 448.596 233.607 448.739 230.981ZM275.9 215.844C274.903 212.6 278.462 208.737 282.306 208.892C285.865 209.046 285.154 215.535 281.453 217.388C277.893 218.933 276.754 218.624 275.9 215.844ZM184.925 209.201C182.932 205.34 190.334 199.778 193.182 202.868C194.463 204.258 194.749 206.884 193.894 208.737C192.328 212.444 186.776 212.754 185.067 209.201H184.925ZM246.288 204.104C241.02 193.601 240.735 192.365 244.152 190.048C246.145 188.658 249.419 187.73 251.27 187.885C259.101 188.348 262.089 199.315 255.398 202.558C252.693 203.949 252.266 205.185 253.974 208.737C256.679 214.452 256.679 215.844 253.974 215.689C252.978 215.689 249.42 210.438 246.288 204.104ZM252.979 195.454C252.979 193.6 252.267 192.21 251.128 192.056C248.423 191.901 246.43 195.144 247.853 196.843C250.131 199.469 252.694 198.697 252.979 195.454ZM727.358 241.484C724.51 237.468 727.927 232.989 732.483 234.997C736.185 236.697 735.901 242.72 731.915 243.801C730.633 244.11 728.497 243.183 727.358 241.484ZM755.547 243.646C754.835 242.411 757.114 238.241 760.389 234.534C764.518 229.745 766.083 226.038 765.371 223.103C763.948 217.543 765.514 217.543 772.918 223.567C778.612 228.201 779.181 233.143 773.628 230.672C772.062 230.054 768.218 232.988 764.516 237.622C757.398 246.735 757.255 246.89 755.547 243.646ZM451.585 219.087C451.87 214.762 455.857 214.298 500.277 214.452C522.06 214.452 522.06 214.454 521.775 219.551C521.49 224.494 520.921 224.802 500.704 224.802C489.315 224.957 473.51 224.647 465.68 224.184C453.009 223.411 451.301 222.794 451.585 219.087ZM291.418 209.201C290.706 207.811 291.134 205.802 292.416 204.721C295.405 201.941 301.954 204.877 300.672 208.275C299.249 211.828 293.126 212.445 291.418 209.201ZM745.297 235.923C744.585 233.915 744.87 229.745 745.724 226.501C747.433 220.786 747.432 220.786 743.303 226.346C739.175 232.216 735.9 233.607 736.185 229.437C736.469 225.112 749.284 207.039 751.277 207.966C752.416 208.429 752.985 212.445 752.7 216.924C751.846 225.111 751.847 225.112 755.121 219.551C757.114 216.462 759.533 214.608 760.672 215.38C761.811 216.152 760.104 220.631 756.402 226.346C748.145 239.013 746.578 240.248 745.154 235.923H745.297ZM712.693 232.525C710.273 230.981 710.132 229.899 712.125 228.045C715.399 225.265 722.091 227.738 720.667 231.29C719.243 234.689 716.252 235.306 712.693 232.525ZM799.683 235.923C796.978 229.899 802.245 226.347 807.513 230.672C810.645 233.298 810.788 234.225 808.225 237.006C804.381 241.176 802.104 240.866 799.683 235.923ZM265.933 203.022C261.377 195.917 257.248 183.869 258.815 182.479C260.665 180.78 262.802 183.714 268.639 195.608C273.622 205.803 275.331 199.625 270.632 188.813C265.934 178.464 265.933 177.999 269.635 178.308C271.059 178.308 274.333 183.25 276.753 189.275C280.17 198.234 280.456 200.705 278.178 203.177C274.619 206.884 268.496 206.729 265.933 203.022ZM204.715 196.843C203.433 192.827 205.853 189.275 209.697 189.429C214.111 189.738 215.393 193.909 212.261 197.307C208.844 201.014 205.996 200.859 204.715 196.843ZM306.653 203.795C305.941 202.405 306.367 200.396 307.649 199.161C310.781 196.535 317.187 199.469 315.763 202.868C314.482 206.266 308.361 207.039 306.653 203.795ZM698.315 225.421C695.326 223.413 697.033 216.77 700.449 216.924C701.446 216.924 703.44 218.314 704.579 220.013C707.569 224.029 702.444 228.355 698.315 225.421ZM280.029 188.04C277.467 181.243 275.615 175.682 275.9 175.527C282.449 172.438 288.571 171.358 289.567 173.212C289.994 174.293 289.14 175.682 287.289 176.3C282.163 177.845 282.591 183.869 287.574 182.479C292.557 181.398 295.405 185.105 290.707 186.65C288.999 187.113 287.431 189.12 287.289 190.973C287.004 194.681 288.002 194.991 293.696 192.365C296.971 190.82 297.826 191.128 297.826 193.291C297.683 195.608 289.14 200.707 285.723 200.552C285.296 200.398 282.734 194.836 280.029 188.04ZM451.728 207.657C451.016 205.649 451.444 204.104 452.44 204.104C453.437 204.259 456 202.713 457.993 200.859C460.84 198.542 462.832 198.234 465.252 199.779C470.235 203.023 506.399 204.413 507.538 201.478C508.819 198.389 514.514 198.543 514.371 201.478C514.371 202.714 516.223 203.641 518.501 203.795C521.348 203.95 522.628 205.493 522.486 208.428C522.201 211.981 520.921 212.6 513.091 212.137C507.965 211.828 492.304 211.518 478.351 211.364C455.857 211.209 452.582 210.746 451.728 207.657ZM786.3 228.509C787.154 227.273 788.577 226.966 789.716 227.583C792.564 229.746 791.852 230.981 788.151 230.672C786.3 230.517 785.445 229.59 786.3 228.509ZM323.452 196.998C324.733 192.518 332.991 192.364 332.706 196.998C332.564 198.697 330.286 200.243 327.438 200.552C323.594 200.861 322.74 200.087 323.452 196.998ZM723.088 223.258C718.674 218.161 728.498 199.47 735.474 199.934C737.752 200.088 740.599 201.478 741.88 203.331C748.002 211.518 729.779 230.827 723.088 223.258ZM733.766 214.762C738.037 207.656 738.606 204.259 735.474 204.104C733.623 203.95 726.362 215.844 726.077 219.396C725.935 222.949 730.776 220.013 733.766 214.762ZM682.938 217.388C678.809 213.99 682.084 208.583 686.925 210.9C690.627 212.599 691.338 217.388 688.206 219.087C687.067 219.859 684.789 218.933 682.938 217.388ZM297.256 182.943C294.835 176.146 292.841 170.275 292.841 169.967C292.984 167.958 305.797 166.105 306.936 167.958C307.648 169.194 309.214 168.886 310.78 166.878C313.201 163.943 313.486 164.252 313.059 168.577C312.774 171.357 311.777 174.755 310.78 175.991C309.784 177.381 310.354 179.08 312.063 179.852C313.771 180.625 314.767 183.56 314.482 186.341C313.77 192.674 311.492 192.829 308.787 186.959C307.648 184.488 305.798 182.942 304.659 183.559C303.378 184.332 303.235 186.187 304.517 188.813C305.656 191.593 305.655 193.446 304.232 194.064C302.95 194.682 299.819 189.739 297.398 182.943H297.256ZM305.228 175.065C305.37 173.366 304.089 171.82 302.381 171.665C300.388 171.511 299.675 172.748 300.245 174.756C300.814 176.609 302.097 177.999 303.236 178.154C304.233 178.154 305.085 176.764 305.228 175.065ZM341.675 196.072C338.97 192.983 340.678 188.811 344.522 189.12C349.932 189.429 351.499 191.9 348.509 194.99C345.661 197.925 343.669 198.389 341.675 196.072ZM224.504 185.258C223.365 181.242 225.785 177.69 229.487 177.999C233.901 178.308 235.323 182.324 232.191 185.722C228.632 189.429 225.786 189.274 224.504 185.258ZM781.745 218.932C778.043 213.835 785.445 209.664 789.574 214.143C792.991 218.005 791.283 222.33 786.727 222.176C785.303 222.021 782.883 220.477 781.745 218.932ZM666.282 211.364C663.577 208.12 665.427 204.259 669.556 204.414C672.404 204.568 673.684 206.112 673.541 208.892C673.256 212.908 669.129 214.453 666.282 211.364ZM706.002 211.673C705.29 209.665 706.43 204.104 708.423 199.47C711.128 192.673 713.122 190.975 717.678 190.666C724.227 190.203 728.498 196.535 724.939 201.478C723.23 203.949 722.659 203.486 721.805 199.624C720.381 192.674 717.534 193.291 712.978 201.633C708.707 209.51 709.562 213.217 714.972 209.356C719.1 206.266 721.522 208.119 719.528 212.599C717.535 216.924 707.426 216.152 706.002 211.518V211.673ZM316.19 187.421C315.763 186.34 316.475 185.26 317.899 184.951C320.034 184.333 320.035 182.325 318.469 175.374C316.049 165.18 316.049 161.934 318.469 162.089C320.604 162.089 326.3 178.926 326.015 184.178C325.73 187.731 317.757 190.51 316.19 187.421ZM357.621 189.12C357.763 185.876 363.174 183.251 365.024 185.568C367.729 188.502 365.737 192.519 361.75 192.21C359.472 192.056 357.479 190.665 357.621 189.12ZM374.562 187.421C372.569 184.641 372.57 183.715 375.132 182.324C379.403 180.162 382.394 181.397 382.963 185.568C383.533 190.047 377.552 191.592 374.562 187.421ZM649.624 206.113C646.919 203.023 648.769 198.852 652.898 199.161C655.745 199.315 657.027 200.86 656.885 203.641C656.6 207.811 652.471 209.047 649.624 206.113ZM695.324 200.088C695.751 192.211 695.752 192.21 692.193 199.006C686.355 210.282 684.077 204.259 689.629 192.365C692.334 186.495 695.183 180.934 695.894 180.007C698.172 176.763 700.734 181.088 700.592 187.73C700.307 194.527 700.308 194.528 702.87 188.813C705.291 183.097 709.278 181.243 708.993 186.031C708.851 187.422 706.999 193.138 704.721 198.544C699.454 210.438 694.755 211.364 695.324 200.088ZM332.991 174.756C331.71 168.423 329.573 164.871 326.726 163.789C321.173 162.09 323.878 158.846 331.993 157.456C339.254 156.375 342.957 158.382 338.259 161.008C335.838 162.244 335.696 164.097 337.974 172.284C340.394 181.552 340.11 184.642 336.55 184.333C335.696 184.333 334.13 180.008 332.991 174.756ZM391.22 184.642C390.081 180.935 391.79 179.08 396.915 179.389C401.614 179.698 401.614 185.26 396.915 186.65C392.36 188.195 392.359 188.194 391.22 184.642ZM632.823 200.859C630.261 197.77 632.113 193.6 635.814 193.755C640.797 194.064 642.363 196.072 640.654 199.624C639.373 202.714 635.101 203.331 632.823 200.859ZM244.577 174.447C243.723 173.056 244.72 170.585 246.713 168.886C251.412 164.716 258.246 169.813 253.974 174.292C250.842 177.69 246.286 177.69 244.577 174.447ZM763.236 204.721C761.385 202.095 761.385 200.551 763.093 199.006C766.51 195.917 772.489 199.161 771.492 203.331C770.211 208.274 766.225 208.892 763.236 204.721ZM348.366 178.154C344.522 172.438 342.529 158.537 345.092 155.757C347.085 153.595 357.621 152.359 357.621 154.213C357.621 154.522 358.618 159.309 360.042 165.025C362.177 174.138 362.034 175.528 359.044 178.308C354.915 182.015 350.644 181.861 348.224 178.154H348.366ZM355.627 167.958C354.346 159.463 353.493 157.765 350.93 157.611C348.367 157.456 348.082 162.09 350.217 169.195C352.922 177.382 356.909 176.454 355.627 167.958ZM408.447 181.397C407.877 179.698 409.017 177.846 410.867 177.382C416.42 175.529 417.986 176.301 417.701 180.626C417.416 185.723 410.013 186.185 408.447 181.397ZM615.312 193.445C616.451 189.12 619.584 188.04 623.286 190.821C626.987 193.447 623.996 197.461 618.729 197.152C615.881 196.844 614.6 195.608 615.312 193.445ZM670.124 197.152C667.135 192.982 672.688 177.381 678.526 174.292C683.793 171.357 689.488 176.146 688.633 182.943C686.782 196.69 675.962 205.03 670.124 197.152ZM680.802 189.893C684.219 182.015 684.648 177.537 682.085 177.382C679.949 177.382 674.823 188.348 674.539 193.291C674.112 198.543 678.097 196.381 680.802 189.893ZM426.385 179.236C426.528 176.147 427.952 174.911 430.942 175.065C436.352 175.528 435.355 182.478 429.802 183.25C427.24 183.559 426.101 182.325 426.385 179.236ZM599.366 192.365C596.661 189.43 598.513 185.259 602.215 185.413C607.34 185.722 608.906 187.576 607.198 191.283C605.774 194.372 601.644 194.836 599.366 192.365ZM257.676 168.732C256.964 167.496 257.676 165.025 259.385 163.635C263.229 160.082 268.781 163.634 266.646 168.268C264.937 172.129 259.669 172.439 257.676 168.732ZM443.471 178.154C443.613 175.064 445.036 173.828 448.026 173.983C453.436 174.292 452.44 181.397 446.888 182.015C444.325 182.479 443.186 181.088 443.471 178.154ZM582.425 189.12C579.862 186.185 581.713 182.016 585.414 182.324C590.397 182.633 591.963 184.487 590.397 188.194C588.973 191.129 584.703 191.746 582.425 189.12ZM374.136 168.268C371.574 155.138 371.574 149.732 373.994 148.96C377.411 148.033 380.97 171.821 377.981 174.601C376.415 175.991 375.133 173.983 374.136 168.268ZM460.555 176.919C460.697 174.138 462.122 172.748 464.969 172.902C467.817 173.057 469.239 174.602 469.097 177.382C468.812 180.317 467.389 181.551 464.542 181.397C461.694 181.242 460.27 179.853 460.555 176.919ZM564.344 183.098C564.628 180.317 566.051 178.927 568.899 179.081C571.746 179.236 573.028 180.779 572.886 183.714C572.743 186.494 571.319 187.73 568.471 187.576C565.624 187.421 564.201 186.032 564.344 183.098ZM657.17 187.266C658.309 184.023 659.447 177.846 659.589 173.366C659.874 169.041 660.159 165.488 660.302 165.488C660.444 165.488 663.576 166.723 667.135 168.268C674.254 171.202 675.534 174.138 669.982 175.065C667.846 175.22 665.142 178.926 663.576 183.559C662.01 188.193 659.447 192.056 658.023 192.52C655.888 193.138 655.746 191.746 657.17 187.266ZM382.678 163.635C381.824 157.611 381.113 151.432 381.255 149.733C381.54 144.481 387.518 146.643 390.65 152.976C393.64 159 393.64 159.001 392.644 151.741C391.078 139.384 396.916 145.407 399.051 158.536C401.899 175.527 397.627 179.081 391.22 164.87L387.518 156.528L388.231 165.643C389.085 178.618 384.814 177.073 382.678 163.635ZM477.64 177.228C477.783 173.212 484.616 171.203 486.467 174.601C487.179 175.991 487.32 178 486.751 178.927C484.757 181.707 477.356 180.317 477.64 177.228ZM495.437 178.927C494.725 177.537 495.151 175.528 496.575 174.292C499.565 171.666 505.971 174.601 504.547 177.999C503.266 181.397 497.145 182.016 495.437 178.927ZM512.521 180.007C511.666 178.617 512.093 176.456 513.516 175.374C516.506 172.748 522.914 175.528 521.49 178.927C520.209 182.479 514.087 183.096 512.521 180.007ZM529.319 180.935C527.611 177.382 532.168 173.983 536.012 175.682C537.863 176.608 539.144 178.617 539.144 180.471C538.859 184.178 531.313 184.487 529.319 180.935ZM546.547 182.324C545.124 179.699 551.388 175.374 554.094 177.228C557.653 179.699 556.086 184.796 551.673 184.487C549.395 184.333 547.117 183.406 546.547 182.324ZM631.257 185.413C626.986 183.868 626.987 183.251 630.547 170.894C634.248 158.228 634.248 158.229 640.512 159.773C646.919 161.627 648.199 166.26 641.793 165.025C636.667 163.943 634.959 169.813 639.942 171.358C642.362 172.13 643.645 173.675 642.79 174.91C641.936 175.992 640.085 176.454 638.518 175.682C636.952 175.064 635.101 175.836 634.389 177.535C633.393 179.543 634.39 181.243 636.953 182.17C639.231 183.097 640.939 184.796 640.939 185.877C640.797 188.039 637.664 187.884 631.257 185.413ZM742.876 190.973C741.31 188.657 741.453 187.421 743.731 185.877C747.432 182.942 754.978 188.503 752.415 192.056C750.137 195.3 745.723 194.681 743.018 190.973H742.876ZM223.222 147.261C210.836 121.156 204.857 105.709 206.708 104.164C211.264 100.303 226.498 94.7427 231.623 95.0516C239.026 95.515 245.717 104.937 245.147 114.205C244.863 118.839 245.859 121.466 248.279 122.547C250.272 123.474 254.687 129.033 258.104 135.057C264.226 146.179 264.225 146.18 258.957 148.188C252.693 150.66 249.134 148.034 245.718 138.612C243.155 130.888 239.453 128.88 234.327 132.433C230.483 134.75 230.625 135.521 235.751 145.407C240.733 155.447 240.735 156.065 237.033 158.536C230.911 162.398 230.34 162.089 223.222 147.261ZM234.327 115.904C234.897 107.872 228.918 103.393 222.511 106.946C220.091 108.336 220.233 110.035 222.796 116.522C225.501 123.01 226.64 124.091 230.057 122.392C232.193 121.465 234.185 118.375 234.327 115.904ZM278.604 157.456C278.889 154.058 279.885 153.131 283.729 153.904C286.292 154.521 288.286 156.221 288.144 158.074C288.144 159.773 285.866 161.472 283.161 161.627C279.459 161.936 278.462 161.009 278.604 157.456ZM407.166 158.846C406.596 151.895 405.315 148.034 403.464 148.034C397.627 147.57 401.044 144.017 407.736 143.399C415.851 142.627 417.131 143.399 413.857 146.951C412.006 148.805 411.722 152.359 412.718 158.074C414.712 169.505 414.712 169.966 411.01 169.812C408.874 169.657 407.735 166.105 407.166 158.846ZM421.688 168.422C421.403 167.65 420.692 161.626 420.264 154.984C419.553 142.936 419.552 142.781 425.247 141.7C432.508 140.31 437.349 144.636 430.657 146.335C428.095 146.953 426.102 148.96 425.96 150.813C425.817 152.821 426.956 153.594 428.949 152.976C430.657 152.358 432.649 152.822 433.219 153.904C433.788 154.985 432.222 156.374 429.66 156.992C424.107 158.537 424.963 162.861 431.085 164.097C433.647 164.715 435.64 165.797 435.64 166.878C435.497 168.886 422.827 170.276 421.688 168.422ZM610.329 179.543C609.76 178.308 610.186 172.131 611.325 165.798C613.176 155.448 614.03 154.211 618.444 154.52C626.844 154.983 629.55 160.081 626.702 170.121C625.279 175.064 623.57 179.699 622.858 180.626C621.292 183.097 611.896 182.324 610.472 179.543H610.329ZM621.15 169.659C622.573 165.334 622.716 161.935 621.435 160.544C620.011 159 618.872 160.235 617.59 164.251C616.736 167.65 615.313 172.129 614.601 174.137C613.605 176.763 614.174 177.846 616.167 177.382C617.591 176.919 619.868 173.366 621.15 169.659ZM589.544 176.609C583.991 175.528 583.706 175.064 585.272 167.804C586.268 163.479 587.265 157.456 587.408 154.213C587.693 150.506 588.974 148.496 590.967 148.65C593.672 148.805 593.814 150.813 592.248 160.39C590.255 171.202 590.255 171.975 594.669 172.284C597.089 172.438 599.081 173.52 599.081 174.447C598.797 177.381 596.378 178 589.544 176.609ZM438.061 159.155C438.346 154.83 438.203 148.961 437.633 146.335C436.921 142.628 437.775 141.392 442.331 140.62C449.592 139.23 454.148 143.553 453.294 150.658C453.009 153.748 453.152 159 453.864 162.243C454.86 166.877 454.433 168.113 451.728 167.958C449.735 167.804 448.454 165.952 448.596 163.635C448.739 161.318 447.884 158.847 446.745 158.074C445.606 157.302 444.609 159.001 444.467 161.936C444.182 165.489 442.901 167.342 440.908 167.187C438.63 167.033 437.918 164.715 438.061 159.155ZM447.315 149.578C447.315 147.724 446.461 146.335 445.322 146.18C444.183 146.18 443.043 147.57 443.043 149.269C442.901 150.968 443.755 152.512 445.037 152.667C446.176 152.667 447.173 151.277 447.315 149.578ZM457.281 153.44C457.281 142.782 457.992 140.618 460.84 140.773C462.691 140.927 465.111 143.245 466.25 145.871C468.101 150.659 468.244 150.813 468.671 144.943C470.095 130.115 475.076 145.408 474.222 161.318C473.652 169.813 468.669 168.113 465.395 158.536L462.691 150.504L463.261 158.536C463.688 164.715 463.117 166.414 460.555 166.26C458.134 166.105 457.281 163.171 457.423 153.285L457.281 153.44ZM477.924 166.414C477.354 165.796 478.066 159.463 479.632 152.512C483.191 136.757 488.603 135.367 491.735 149.578C492.874 154.675 494.155 160.39 494.582 162.553C495.151 165.024 494.296 166.259 492.161 166.105C490.31 165.95 488.887 164.871 489.029 163.789C489.171 160.546 484.615 161.008 481.625 164.561C480.202 166.26 478.493 167.032 477.924 166.414ZM554.947 167.187C554.235 164.561 553.095 160.854 552.526 159.155C551.956 157.301 551.245 159 550.96 162.707C549.821 175.219 546.121 169.658 546.832 156.683C547.544 146.488 548.397 143.863 550.818 144.018C552.668 144.172 554.805 146.488 555.659 149.114C557.083 153.903 557.083 153.903 558.791 149.269C561.354 142.781 564.628 143.708 564.201 150.658C563.632 160.544 560.357 172.284 558.364 172.129C557.367 172.129 555.801 169.813 554.947 167.187ZM564.201 168.886C565.198 166.878 567.618 161.316 569.754 156.374C571.747 151.431 574.736 147.57 576.445 147.725C580.004 148.033 580.573 149.733 581.428 163.48C581.855 171.512 581.428 173.521 578.723 173.366C577.157 173.366 575.732 172.285 575.732 171.203C575.875 169.968 574.452 168.886 572.743 168.886C571.035 168.732 569.611 169.504 569.469 170.74C569.327 171.975 567.76 172.748 565.91 172.593C563.489 172.439 563.062 171.358 564.201 168.886ZM576.445 159.464C576.587 157.61 576.302 156.219 575.875 156.219C575.448 156.219 574.452 157.61 573.598 159.309C572.886 161.008 573.17 162.398 574.309 162.398C575.448 162.552 576.445 161.163 576.445 159.464ZM721.094 179.852C719.386 176.609 722.233 173.519 726.647 173.828C730.491 173.983 733.622 179.082 731.06 181.244C729.066 183.252 722.376 182.324 721.094 179.852ZM498.996 165.179C496.149 162.09 498.568 143.708 501.985 141.082C507.538 137.066 517.361 145.408 512.093 149.733C511.239 150.505 510.101 150.04 509.674 148.496C507.681 142.008 502.84 145.717 502.27 153.904C501.985 160.082 502.697 162.398 504.974 162.553C506.825 162.707 508.249 161.318 508.391 159.619C508.534 157.92 509.531 156.528 510.812 156.528C512.094 156.683 512.663 158.846 512.093 161.472C511.096 166.261 502.128 168.732 498.996 165.179ZM517.218 153.594C518.357 134.904 523.341 135.985 523.056 154.829C523.056 165.487 522.344 167.958 519.782 167.804C517.077 167.649 516.649 164.716 517.218 153.594ZM527.328 165.334C523.626 160.082 527.896 143.245 533.164 141.855C540.425 140.001 543.557 145.253 542.133 157.301C540.994 167.033 540.425 167.959 535.3 168.268C532.31 168.422 528.751 167.033 527.328 165.334ZM537.293 159.309C539.144 153.131 538.574 147.569 535.727 146.797C534.588 146.333 533.165 150.196 532.453 155.293C531.171 164.87 534.588 167.805 537.293 159.309ZM700.024 168.886C699.454 166.878 700.166 164.407 701.59 163.171C704.722 160.391 711.413 166.878 708.993 170.43C706.715 173.674 701.447 172.748 700.024 168.886ZM323.024 145.253C321.316 142.009 324.163 138.919 328.862 139.228C331.567 139.383 332.848 140.928 332.706 143.708C332.421 148.188 325.16 149.423 323.024 145.253ZM262.233 114.05C256.823 98.604 252.551 85.1666 252.694 84.2399C252.836 83.4675 259.528 80.3773 267.643 77.4424C279.318 73.2719 282.591 72.8081 283.872 75.1251C286.862 80.5314 285.438 82.6945 276.611 85.4749C267.357 88.5642 265.791 91.6529 270.205 98.4494C272.625 102.157 273.622 102.311 279.602 100.303C283.161 99.0672 287.147 98.6049 288.429 99.5317C292.273 102.158 290.28 108.646 285.297 109.727C275.473 111.735 274.191 113.434 277.466 120.848C281.025 129.034 280.029 128.572 289.852 125.173C299.676 121.775 299.391 121.621 301.811 127.027C303.662 131.043 302.666 131.969 292.273 135.83C270.633 143.708 273.053 145.561 262.233 114.05ZM346.516 139.228C345.804 137.066 346.658 134.904 348.366 133.822C352.78 131.505 355.627 133.05 355.342 137.839C355.058 142.936 347.939 144.017 346.516 139.228ZM676.675 157.92C676.817 154.522 677.956 153.748 681.657 154.365C688.633 155.91 688.776 163.016 681.8 162.553C677.813 162.398 676.39 161.163 676.675 157.92ZM726.647 158.536C718.105 153.285 715.114 142.627 720.382 135.521C723.087 131.66 731.486 136.757 730.775 141.7C729.636 148.651 730.348 150.659 734.619 150.968C741.453 151.277 742.308 145.253 737.04 132.587C730.775 117.913 731.202 111.58 738.606 104.938C749.283 95.3608 767.079 104.32 766.225 118.84C766.082 122.084 764.945 125.327 763.806 125.945C759.962 127.953 754.409 122.855 754.694 117.603C754.836 114.205 753.697 112.661 750.707 112.506C744.443 112.043 744.016 118.531 749.426 132.742C754.409 146.335 753.982 151.74 747.29 158.536C743.446 162.552 732.911 162.552 726.647 158.536ZM370.435 135.521C368.584 131.969 371.572 129.033 376.413 129.342C379.403 129.497 380.401 130.732 379.689 133.204C378.692 137.374 372.285 138.919 370.435 135.521ZM654.606 152.512C652.898 149.114 655.746 146.026 660.302 146.335C663.149 146.489 664.431 148.187 664.288 150.813C664.004 155.293 656.742 156.528 654.606 152.512ZM393.784 131.505C393.214 129.497 393.783 126.871 395.065 125.79C398.481 122.701 404.46 126.1 403.321 130.425C402.04 135.213 395.207 135.984 393.784 131.505ZM631.827 147.57C629.407 144.79 630.83 140.773 634.389 139.692C638.803 138.302 643.644 142.628 641.935 146.49C640.369 149.579 634.248 150.196 631.827 147.57ZM303.519 99.6863C299.675 84.3943 296.686 70.9549 296.686 69.7192C296.828 68.638 302.666 66.4763 309.784 64.7772C321.744 61.8423 322.883 61.8412 327.866 65.5484C341.391 75.5886 337.974 96.5966 321.886 101.231C317.33 102.466 317.33 103.238 320.177 115.904C322.455 125.326 322.455 125.791 318.041 126.718C315.479 127.181 312.775 127.643 312.063 127.489C311.209 127.489 307.363 114.978 303.662 99.5317L303.519 99.6863ZM322.881 85.7841C324.305 78.3698 320.034 72.4997 314.197 73.7354C311.492 74.1988 309.785 75.743 310.212 77.1332C313.771 90.1082 314.767 91.8082 318.326 91.4992C320.462 91.1903 322.454 88.7189 322.881 85.7841ZM417.416 128.726C416.135 124.71 418.555 121.31 422.541 121.464C426.812 121.773 428.521 128.262 424.82 130.27C420.406 132.741 418.555 132.278 417.416 128.726ZM609.474 140.001C607.339 137.067 607.339 136.14 610.044 134.75C614.458 132.279 617.448 133.978 617.163 138.457C616.736 143.554 612.749 144.481 609.474 140.001ZM698.884 144.789C697.175 143.553 696.748 140.618 697.46 137.375C699.596 128.879 688.064 125.482 682.938 132.897C679.806 137.222 676.389 137.839 671.975 134.595C669.84 133.051 673.115 126.871 686.497 106.791C703.297 81.4589 703.724 80.9965 709.846 82.6956C713.406 83.6224 716.538 84.7021 716.965 85.011C717.392 85.6289 715.683 99.6858 713.121 116.522C708.422 148.497 707.283 150.658 698.884 144.789ZM701.305 116.368C702.016 113.896 703.297 108.49 704.294 104.319C705.86 97.2137 705.718 97.2147 699.026 107.255C694.47 114.36 693.047 118.068 694.614 119.304C698.6 121.93 700.023 121.311 701.305 116.368ZM441.193 126.872C439.484 123.628 442.332 120.539 446.603 120.848C451.586 121.157 453.151 123.01 451.443 126.718C450.019 129.961 442.901 130.116 441.193 126.872ZM584.559 133.359C584.702 130.269 586.125 129.188 589.969 129.342C593.956 129.651 595.239 130.888 595.096 133.977C594.954 137.066 593.388 138.148 589.544 137.839C585.7 137.684 584.275 136.448 584.559 133.359ZM464.399 125.79C463.687 124.4 464.968 122.083 467.246 120.539C470.663 118.376 471.803 118.531 474.081 121.157C475.647 122.856 476.216 125.327 475.362 126.718C473.226 129.498 466.25 129.034 464.399 125.79ZM561.212 129.961C561.497 126.717 562.919 125.636 566.905 125.945C573.882 126.253 572.886 133.359 565.767 133.977C562.208 134.286 561.07 133.359 561.212 129.961ZM489.599 123.936C490.169 121.928 492.589 120.384 494.724 120.539C497.002 120.693 499.137 122.392 499.422 124.555C499.849 127.335 498.568 128.262 494.297 127.953C490.168 127.644 488.887 126.717 489.599 123.936ZM513.659 127.027C511.808 123.629 514.656 120.694 519.354 121.002C522.059 121.157 523.483 122.7 523.198 125.481C522.914 129.96 515.794 131.043 513.516 127.027H513.659ZM537.15 128.88C535.442 125.637 539.713 121.62 543.841 122.701C549.252 124.092 548.54 129.961 542.846 130.425C540.283 130.579 537.72 129.962 537.15 128.88ZM350.787 112.506C349.221 104.165 358.902 101.695 362.604 109.572C364.17 113.279 364.028 114.668 361.75 115.904C356.482 118.839 351.784 117.295 350.787 112.506ZM655.319 129.188C653.041 127.797 652.898 124.71 654.464 117.295C655.888 110.962 655.745 106.482 654.179 104.319C649.908 98.4495 646.349 100.457 644.356 109.88C641.651 122.391 639.658 124.709 633.536 122.701C628.41 121.157 628.41 121.157 636.81 92.4269C641.508 76.6715 646.492 63.5417 647.915 63.0783C653.041 61.6881 673.257 70.6458 675.392 75.2797C678.097 81.3038 675.109 92.5803 669.556 97.0597C666.282 99.6856 665.712 101.231 667.42 103.548C668.844 105.401 668.701 109.88 667.278 116.368C665.996 121.929 664.857 127.645 664.999 129.035C664.999 132.124 659.305 132.277 655.319 129.188ZM661.44 90.1096C665.711 85.7846 664.146 77.5979 658.878 76.5166C655.461 75.7443 654.037 76.9799 652.756 82.2317C650.051 92.2719 655.176 96.906 661.44 90.1096ZM394.209 80.8421C390.65 46.242 390.509 47.9402 397.058 47.0134C402.753 46.3955 403.18 47.168 404.604 62.6144C405.458 71.2645 405.885 71.7281 411.295 70.6469C418.698 69.4112 418.271 70.338 416.563 57.2086C414.997 44.2335 414.711 45.0047 421.545 44.3868C426.386 43.9234 426.671 45.0054 429.376 64.4679C430.8 75.5894 431.938 89.6457 431.796 95.3608C431.796 104.938 431.369 106.018 427.098 106.482C422.115 106.791 421.403 105.092 419.979 89.955C419.268 82.2317 418.27 80.6873 414.142 80.5329C407.166 80.0695 406.312 82.0767 408.021 95.2062C409.444 107.1 408.02 109.881 400.475 109.418C397.77 109.418 396.487 103.548 394.209 80.8421ZM594.526 114.669C586.411 110.807 585.272 103.701 589.401 83.1575C595.666 51.0289 595.665 50.8754 601.217 51.3388C603.922 51.4933 606.628 52.2655 607.055 53.1923C607.482 54.1191 605.631 65.3948 602.641 78.0609C598.37 97.2145 597.943 101.539 600.079 104.319C605.774 110.961 608.906 105.864 614.174 80.9948C619.441 56.7439 619.44 56.745 625.42 57.0539C628.837 57.2084 631.542 58.1353 631.4 59.0621C631.115 63.696 622.147 101.385 620.011 106.946C616.31 116.522 605.489 119.766 594.669 114.669H594.526ZM448.169 100.15C444.325 96.7519 443.47 92.7347 442.758 75.7436C441.762 47.4765 446.176 39.9078 463.403 40.989C474.081 41.6069 478.636 49.7939 479.775 70.3377C480.771 91.4993 479.49 98.2949 472.798 102.311C466.392 106.173 453.579 105.093 448.169 100.15ZM467.246 78.0609C468.1 56.5903 466.82 51.492 460.982 51.9554C456.569 52.4188 456.284 53.1918 455.572 70.0284C454.718 91.3445 455.429 94.28 461.693 93.8166C466.391 93.3532 466.676 92.4261 467.246 78.0609ZM492.303 72.5004C494.154 40.5262 494.154 40.5262 500.845 41.6075C507.252 42.5343 507.822 43.6146 512.378 59.9879L517.218 77.2878L518.358 59.8332C519.64 42.6877 519.782 42.2244 525.049 42.5333C530.317 42.9967 530.317 42.9968 528.466 73.5808C526.615 104.474 526.614 104.475 520.635 104.012C515.082 103.703 514.372 102.467 509.531 84.7037L504.404 65.8576L502.696 85.4749C500.988 104.628 500.703 104.937 495.72 104.783C490.452 104.32 490.452 104.32 492.303 72.5004ZM541.848 77.1332C543.699 60.6055 545.978 46.3962 546.69 45.7783C547.544 45.006 553.951 45.6232 560.927 47.0134C576.873 50.2571 580.716 54.8909 579.577 70.0284C577.299 102.157 572.031 109.262 551.388 108.026L538.574 107.255L541.848 77.1332ZM564.059 89.955C565.34 86.2478 566.337 77.5981 566.48 70.9561C566.48 60.4525 566.051 58.7521 561.78 57.9797C559.218 57.3619 556.94 57.826 556.798 58.7528C556.655 59.6796 555.375 68.792 553.951 78.9867C551.388 97.5224 551.387 97.5233 556.655 97.2143C560.499 97.0599 562.493 95.2068 564.059 89.955Z" fill="#383B40"/>
</svg>
