<svg width="961" height="826" viewBox="0 0 961 826" fill="none" xmlns="http://www.w3.org/2000/svg">
<path fill-rule="evenodd" clip-rule="evenodd" d="M246.487 246.487C241.08 238.927 237.125 231.894 237.718 230.773C239.872 227.432 244.597 228.641 247.938 233.366C250.949 237.652 251.3 237.74 256.531 234.224C261.85 230.773 261.938 230.531 258.597 225.278C255.498 220.553 255.41 219.63 258.158 216.883C260.993 214.047 262.531 215.322 271.894 228.114C281.257 240.905 282.114 242.795 279.279 245.63C276.444 248.378 275.586 248.114 271.301 242.795C266.575 236.883 266.312 236.883 260.993 240.399C255.498 244.004 255.498 244.004 259.784 250.004C264.092 256.026 263.74 260.224 259.015 260.224C257.564 260.224 251.982 254.048 246.487 246.487ZM671.02 240.575C669.658 236.971 686.911 210.091 690.691 210.091C696.516 209.915 695.153 216.531 686.56 229.674C677.637 243.235 673.174 246.312 671.02 240.575ZM280.818 224.333C276.114 216.179 272.246 208.795 272.246 208.025C272.246 204.685 289.411 197.124 294.312 198.333C299.191 199.52 303.653 208.641 300.839 211.388C300.136 212.069 302.554 214.641 306.158 217.036C309.763 219.542 313.103 222.619 313.543 223.916C315.081 228.553 307.433 228.795 301.169 224.421C293.191 218.685 289.059 221.674 294.136 229.498C297.477 234.553 297.477 234.905 293.543 236.971C289.916 238.927 288.466 237.564 280.818 224.333ZM292.246 208.113C290.532 205.366 288.905 205.278 284.949 207.762C282.378 209.41 282.378 210.267 284.773 213.102C287.257 216.091 287.96 216.091 290.62 213.52C292.334 211.806 293.015 209.41 292.246 208.113ZM648.098 228.729C647.328 227.52 650.075 220.993 654.119 214.201C661.416 201.937 661.416 201.937 656.867 198.838C653.438 196.443 652.911 195.146 654.801 193.256C658.142 189.739 682.955 202.794 681.328 207.08C680.031 210.443 676.691 210.773 672.318 208.025C669.988 206.487 667.681 208.883 662.274 218.509C655.571 230.355 651.109 233.608 648.098 228.729ZM315.082 204.509C313.697 188.201 313.961 185.959 317.39 183.476C319.455 181.937 321.873 180.64 322.73 180.64C325.301 180.64 349.675 209.322 348.313 210.773C345.895 213.102 339.807 212.245 337.236 209.058C333.543 204.509 324.95 209.058 324.181 216.004C323.829 219.103 322.027 221.762 320.07 222.114C317.147 222.707 316.378 219.96 315.082 204.509ZM328.818 199.783C328.818 198.75 327.368 196.772 325.631 195.322C322.972 193.168 322.466 193.432 322.466 197.212C322.466 199.696 323.829 201.586 325.631 201.586C327.368 201.586 328.818 200.816 328.818 199.783ZM632.998 221.168C631.526 220.641 630.34 217.476 630.34 214.201C630.34 206.905 620.712 203.212 616.515 208.971C614.361 211.806 613.152 211.982 609.394 209.916C604.845 207.52 605.086 207.08 618.053 194.025C632.383 179.52 639.174 177.387 640.559 186.904C641.504 194.025 638.668 222.619 637.02 222.377C636.251 222.289 634.449 221.762 632.998 221.168ZM632.471 194.816C632.471 190.597 632.228 190.509 629.13 193.608C627.239 195.498 626.383 198.069 627.152 199.366C629.218 202.795 632.471 199.959 632.471 194.816ZM207.344 671.285C207.431 670.428 208.289 666.142 209.234 661.769C210.948 654.384 210.685 653.527 203.981 648.208C194.64 640.735 194.97 639.351 206.311 639.351C215.673 639.351 215.915 639.175 220.135 629.394L224.333 619.438L228.619 629.394C232.839 639.087 233.168 639.351 242.113 639.351C252.927 639.351 253.608 641.592 244.861 647.856C238.663 652.23 238.509 652.911 239.872 662.802L241.256 673.263L233.014 668.45C224.772 663.747 224.772 663.747 217.388 668.296C209.475 673.175 207.256 673.791 207.344 671.285ZM808.056 666.318C807.441 662.45 810.892 657.637 822.826 645.285C847.2 619.944 867.793 590.932 882.651 560.8C909.09 507.151 917.772 470.645 917.948 413.127C918.102 344.533 900.519 286.422 861.705 227.608C848.914 208.201 847.287 203.74 853.199 203.74C856.891 203.74 882.387 243.059 893.134 265.543C949.025 382.226 936.234 510.404 858.101 616.955C851.573 625.878 846.518 630.779 844.804 630.076C842.123 629.043 841.111 631.109 841.617 636.274C841.793 637.461 834.408 645.79 825.309 654.889C810.276 669.835 808.65 670.868 808.056 666.318ZM130.507 649.307C83.6274 600.713 52.2864 539.327 38.55 468.689C33.407 442.315 33.3192 381.633 38.3742 355.522C53.0558 279.719 88.2649 215.234 144.925 160.464C273.103 36.6602 477.083 -2.90096 655.57 61.3857C691.109 74.1771 710.868 84.3093 711.637 90.2434C712.318 94.9688 712.055 94.8808 697.307 87.4961C624.669 50.8362 523.789 32.5501 438.71 40.4403C371.83 46.6162 318.51 61.2979 260.575 89.628C116.243 160.2 30.7259 297.653 43.6931 438.205C50.8361 514.953 79.0783 578.998 132.376 639.439C147.849 656.867 152.134 664.516 146.727 664.516C145.87 664.516 138.573 657.637 130.507 649.307ZM108.859 483.282C106.112 480.359 102.595 478.469 101.144 478.975C99.5837 479.59 98.3968 478.733 98.3968 477.172C98.3968 475.634 95.1221 473.744 90.9243 472.974C80.3527 470.996 83.2759 465.326 96.331 462.579C100.023 461.809 103.188 458.205 107.32 450.403C110.485 444.293 113.078 438.622 113.078 437.941C113.078 437.26 104.836 435.545 94.7924 434.161C70.4843 430.908 70.4844 430.908 73.5833 426.007C75.2097 423.347 79.3196 421.633 85.6054 420.952C90.8363 420.248 95.4741 418.798 95.8917 417.501C96.9247 414.424 102.002 414.6 103.189 417.853C103.98 419.919 104.903 419.919 108.09 417.853C115.123 413.127 118.046 412.358 118.903 414.842C120.529 419.831 125.694 417.084 131.276 408.402C139.518 395.457 144.75 390.116 149.035 390.116C154.706 390.116 153.848 397.413 146.552 410.292C139.167 423.347 138.661 429.018 144.574 430.556C147.936 431.413 148.53 432.798 147.585 436.732C146.639 440.425 147.233 442.227 149.805 443.26C152.134 444.117 152.903 446.095 152.134 449.018C151.541 451.502 152.486 457.084 154.288 461.546C157.453 469.546 156.947 475.985 153.167 475.985C152.134 475.985 145.87 468.755 139.167 459.919C127.145 443.963 127.145 443.963 123.628 448.578C114.024 461.392 112.222 467.128 115.211 476.051C118.815 487.128 115.738 490.579 108.859 483.282ZM827.287 478.887C811.903 472.293 802.209 457.612 801.792 440.688C801.528 426.007 805.308 416.732 815.594 407.215C846.43 378.797 893.135 401.721 889.618 443.523C887.2 472.711 855.002 490.997 827.287 478.887ZM844.013 467.568C844.013 461.04 843.243 459.238 840.32 459.238C832.078 459.326 830.979 462.491 836.715 469.37C839.814 472.975 842.65 475.985 843.156 475.985C843.595 475.985 844.013 472.205 844.013 467.568ZM860.166 462.249C859.903 462.073 857.067 461.304 853.99 460.513C848.32 459.15 848.233 459.414 848.233 468.073L848.32 476.997L854.496 469.788C857.837 465.854 860.408 462.491 860.166 462.249ZM828.913 468.689C826.584 463.524 823.067 461.985 820.144 464.908C818.694 466.359 826.672 473.744 829.859 473.832C830.628 473.832 830.276 471.502 828.913 468.689ZM868.321 470.403C872.277 467.81 872.87 466.535 870.804 465.238C866.694 462.579 865.837 463.018 863.244 468.689C860.409 474.777 861.2 475.128 868.321 470.403ZM883.002 448.842C884.211 442.842 883.947 442.491 878.013 442.491C872.431 442.491 871.661 443.26 870.54 450.139C869.595 455.963 870.123 458.469 872.783 460.447C877.069 463.524 880.936 459.15 883.002 448.842ZM820.496 459.568C823.331 457.765 821.177 440.952 818.276 441.985C817.396 442.227 814.913 442.403 812.605 442.403C807.792 442.403 807.111 447.721 810.804 455.963C813.375 461.458 815.946 462.403 820.496 459.568ZM840.671 453.743C842.473 453.062 844.013 450.227 844.013 447.48C844.013 443.018 843.067 442.491 835.617 442.491C828.232 442.491 827.287 443.018 827.287 447.392C827.287 454.864 832.012 457.084 840.671 453.743ZM864.541 448.337C865.046 443.699 864.189 442.315 859.815 441.282C852.254 439.414 848.144 441.545 848.144 447.304C848.144 453.919 850.035 455.37 857.508 454.601C862.739 454.073 864.035 452.886 864.541 448.337ZM821.793 427.479C823.156 419.237 821.353 415.369 816.298 415.281C813.969 415.193 808.385 427.04 808.385 431.941C808.385 435.194 809.771 436.227 814.408 436.227C819.815 436.227 820.584 435.369 821.793 427.479ZM844.013 430.139C844.013 425.062 843.001 423.941 837.507 422.842C829.089 421.193 827.287 422.49 827.287 430.051C827.287 435.787 827.704 436.227 835.617 436.227C843.419 436.227 844.013 435.787 844.013 430.139ZM864.98 430.051C864.98 422.49 863.09 421.193 854.672 422.842C849.265 423.941 848.144 425.15 848.144 430.227C848.144 435.787 848.738 436.227 856.562 436.227C864.452 436.227 864.98 435.787 864.98 430.051ZM883.772 431.941C883.772 427.04 878.189 415.281 875.882 415.281C870.805 415.457 869.002 419.237 870.387 427.479C871.662 435.369 872.343 436.227 877.772 436.227C882.387 436.227 883.772 435.282 883.772 431.941ZM844.013 410.05C844.013 401.105 841.529 400.688 835.771 408.754C831.221 415.105 832.166 416.82 840.32 417.172C843.155 417.347 844.013 415.699 844.013 410.05ZM858.101 415.611C859.903 414.512 859.222 412.446 855.353 408.314C848.65 401.105 848.144 401.193 848.144 410.05C848.144 417.501 851.837 419.567 858.101 415.611ZM829.002 408.754C830.452 406.358 831.397 404.028 830.892 403.611C829.332 401.962 820.935 409.259 822.122 411.237C824.012 414.248 825.991 413.567 829.002 408.754ZM870.123 411.149C870.804 410.05 869.529 408.16 867.2 406.951C861.288 403.765 860.408 404.292 863.331 409.017C866.166 413.567 868.233 414.248 870.123 411.149ZM735.065 294.818C732.67 291.917 732.758 289.235 735.505 277.741L738.758 264.004L729.924 272.752C721.857 280.664 720.824 281.081 718.164 277.917C715.593 274.818 716.78 273.015 728.802 262.202C741.593 250.773 742.627 250.268 745.967 253.609C749.33 256.883 749.33 258.092 746.583 268.642C744.869 274.993 743.483 280.576 743.483 281.081C743.483 281.609 747.088 278.51 751.462 274.224C757.989 267.784 759.967 266.84 761.857 269.147C763.747 271.389 761.44 274.818 751.045 285.125C739.286 296.796 737.571 297.829 735.065 294.818ZM207.344 290.444C197.387 281.081 196.596 280.752 192.904 284.093C189.827 286.928 188.618 287.016 186.904 284.95C185.277 282.972 187.321 279.367 194.64 271.213C203.563 261.257 204.926 260.488 207.431 263.587C209.915 266.488 209.739 267.433 206.223 270.092C202.267 273.015 202.443 273.455 212.047 282.202C221.674 291.06 224.157 296.378 219.871 298.95C218.75 299.719 213.08 295.851 207.344 290.444ZM695.505 259.015C687.087 251.982 686.735 242.378 694.472 233.191C703.483 222.443 720.143 224.861 725.638 237.74C728.978 245.806 726.495 254.312 718.934 260.312C711.638 265.982 703.131 265.543 695.505 259.015ZM713.944 251.037C720.823 243.74 719.198 236.355 710.693 235.498C705.703 235.081 703.22 236.114 700.736 239.718C691.967 252.246 703.482 262.114 713.944 251.037ZM348.818 190.685C344.796 177.541 344.181 173.168 346.159 171.893C350.708 169.058 353.104 170.003 363.082 178.75C368.401 183.476 372.775 186.904 372.775 186.399C372.775 185.871 371.39 181.41 369.676 176.53C366.423 167.255 366.929 163.893 371.654 163.893C374.137 163.893 376.819 170.508 384.357 194.816C384.797 196.179 383.324 198.421 380.929 199.608C377.324 201.586 375.346 200.641 367.28 193.168C362.049 188.377 357.412 184.926 356.885 185.366C356.379 185.871 357.412 190.333 359.126 195.234C362.467 204.597 361.874 207.937 357.06 207.937C355.17 207.937 352.159 201.586 348.818 190.685ZM598.492 206.487C596.25 205.893 594.8 203.476 594.8 200.553C594.8 188.465 587.746 184.509 585.35 195.322C583.877 202.025 582.866 202.619 578.317 199.783C575.987 198.245 576.075 196.003 578.998 186.135C585.526 163.387 585.174 163.893 594.185 166.398C598.558 167.585 603.812 170.003 605.79 171.805C610.493 175.915 610.492 184.069 605.943 186.662C603.195 188.201 602.514 190.948 602.954 198.245C603.283 203.564 603.284 207.762 602.867 207.696C602.427 207.52 600.448 206.992 598.492 206.487ZM600.031 178.574C600.031 174.025 591.877 174.64 590.932 179.278C590.404 182.267 591.349 182.97 595.129 182.443C597.788 182.025 600.031 180.289 600.031 178.574ZM812.605 170.179C784.429 142.178 767.44 128.618 732.847 106.903C718.934 98.2214 715.154 94.8807 716.099 92.0455C718.758 84.6607 778.429 124.661 811.99 156.354C837.155 180.047 846.605 191.893 843.418 195.586C841.352 197.981 835.946 193.608 812.605 170.179ZM544.403 189.234C540.184 185.014 538.206 180.992 538.206 176.53C538.206 162.178 558.997 151.959 570.668 160.464C576.514 164.75 572.888 167.849 563.372 166.552C553.415 165.278 548.689 168.354 548.689 176.355C548.689 182.794 552.117 186.992 557.524 186.992C562.074 186.992 562.514 181.585 558.14 179.959C552.557 177.805 556.931 172.135 563.019 173.607C571.173 175.585 572.03 177.036 570.492 186.662C569.129 195.322 569.13 195.322 559.767 195.322C552.294 195.322 549.283 194.113 544.403 189.234ZM405.303 190.596C404.885 189.234 403.435 181.497 402.138 173.519C400.248 162.091 400.335 158.75 402.401 157.453C407.456 154.376 407.545 154.552 413.896 187.52C414.841 192.311 414.248 193.256 410.556 193.256C408.138 193.256 405.742 192.069 405.303 190.596ZM422.402 189.74C421.633 188.97 420.93 180.465 420.93 170.948C420.93 153.431 420.929 153.431 427.127 153.431C432.622 153.431 433.654 154.618 437.325 164.332C441.632 175.915 442.314 175.497 445.149 159.189C446.358 152.398 447.303 151.365 452.27 151.365C457.501 151.365 458.205 152.31 460.249 162.354C465.743 188.531 465.744 186.992 460.183 186.992C455.634 186.992 454.842 185.783 453.391 176.003L451.765 164.926L449.194 176.091C447.721 182.267 445.919 187.849 445.149 188.619C442.578 191.212 437.172 185.629 433.392 176.443L429.611 167.08L429.434 179.102C429.346 190.509 426.864 194.289 422.402 189.74ZM521.216 188.113C520.689 187.585 521.128 179.519 522.249 170.245C523.876 156.003 524.733 153.431 528.074 153.431C532.382 153.431 532.975 158.574 530.58 178.069C529.635 186.487 528.426 189.058 525.767 189.058C523.789 189.058 521.722 188.618 521.216 188.113ZM472.182 169.739C473.039 160.2 474.161 151.717 474.688 150.86C477.435 146.376 487.985 151.189 487.985 156.86C487.985 158.31 489.018 162.091 490.315 165.365C492.535 171.278 492.535 171.278 496.315 161.849C499.15 154.618 501.216 152.222 505.238 151.805C511.59 151.013 513.063 155.057 513.063 173.849C513.151 185.454 512.623 186.992 509.019 186.992C505.502 186.992 504.82 185.278 504.293 174.882L503.7 162.86L499.502 174.376C494.162 188.794 488.16 190.333 485.237 178.069C482.754 167.761 479.567 168.025 479.567 178.574C479.567 185.717 478.974 186.904 475.105 186.904C470.82 186.904 470.732 186.399 472.182 169.651V169.739ZM336.115 152.904C330.181 137.211 312.071 80.441 312.071 77.7816C312.071 74.5288 321.433 69.6276 327.785 69.6276C330.027 69.6276 357.5 148.706 355.697 150.156C349.412 155.409 337.653 157.124 336.115 152.904ZM593.415 147.849C590.931 147.321 588.272 145.277 587.503 143.387C584.228 135.145 569.634 87.3202 569.546 84.397C569.283 78.2211 565.766 89.2982 560.096 114.2C556.667 129.563 553.591 138.75 551.942 138.75C547.481 138.75 536.162 134.288 536.162 132.486C536.162 127.409 555.217 54.001 556.931 52.1988C558.382 50.7482 562.251 51.012 569.042 53.1439C578.91 56.2428 578.91 56.2429 587.833 82.3312C592.734 96.683 596.756 110.244 596.756 112.397C597.02 120.551 599.503 113.343 604.492 90.3312C607.328 77.2761 610.404 65.7814 611.437 64.7484C612.47 63.7154 616.691 63.4517 620.8 64.3089C630.427 66.1111 630.427 65.7815 619.35 111.606C610.405 148.2 610.405 148.2 604.141 148.53C600.712 148.618 595.898 148.354 593.415 147.849ZM372.863 140.464C370.621 135.321 358.093 71.4299 358.093 65.3419C358.093 59.9352 381.368 52.902 399.215 52.902C421.281 52.902 432.951 74.7047 419.567 90.6609C414.49 96.683 414.248 97.5401 417.501 99.3423C420.776 101.145 439.831 128.266 439.831 131.013C439.831 132.31 425.919 136.684 421.721 136.684C420.336 136.684 416.732 132.222 413.545 126.727C405.149 112.046 400.16 107.321 393.127 107.321C387.192 107.321 387.017 107.76 388.313 114.2C391.237 127.936 392.094 140.288 390.291 141.409C389.346 142.002 385.478 143.123 381.698 143.892C375.874 145.189 374.665 144.662 372.863 140.464ZM401.281 88.3531C404.886 85.3421 405.149 75.6496 401.698 72.199C398.797 69.2979 387.72 68.8583 383.588 71.5177C381.522 72.8144 381.192 75.8914 382.313 83.1882C383.764 93.1663 383.764 93.1664 391.061 91.9576C395.017 91.3642 399.655 89.7158 401.281 88.3531ZM445.149 130.596C444.029 128.793 450.556 109.299 467.128 64.8363L473.92 46.4624L499.502 47.6493L512.382 86.463C519.503 107.76 525.327 126.815 525.502 128.881C525.678 131.87 523.875 132.486 515.282 132.486C504.908 132.486 504.909 132.486 501.985 122.529C499.062 112.639 499.062 112.639 485.326 111.958C471.589 111.365 471.589 111.364 468.161 121.914C464.644 132.486 464.556 132.486 455.457 132.486C450.468 132.486 445.831 131.629 445.149 130.596ZM493.568 91.8698C492.974 90.2434 491.347 84.8367 489.875 79.8477C486.007 66.1991 485.062 66.3748 480.183 81.2322L475.787 94.7928H485.237C492.446 94.7928 494.425 94.1115 493.568 91.8698ZM222.443 268.818C216.443 261.938 211.542 255.587 211.542 254.641C211.542 253.696 215.41 249.762 220.047 245.894C226.311 240.663 229.234 239.454 230.948 241.169C232.663 242.883 231.718 245.125 227.432 249.587C220.553 256.708 223.476 260.4 231.718 254.993C239.696 249.762 243.212 254.312 236.619 261.345C232.838 265.389 232.223 267.191 234.114 269.081C236.004 270.949 237.806 270.356 241.762 266.664C245.015 263.587 248.202 262.29 250.509 263.235C253.608 264.356 252.927 265.807 245.96 272.927C241.498 277.477 236.86 281.169 235.674 281.169C234.377 281.169 228.465 275.587 222.443 268.818ZM464.38 823.595C469.106 818.54 467.216 814.408 459.15 811.837C451.15 809.353 448.161 809.859 448.161 813.551C448.161 814.672 449.105 815.002 450.204 814.32C453.215 812.518 452.798 818.189 449.787 821.2C441.545 829.441 357.324 814.76 301.784 795.441C276.114 786.496 242.355 771.748 225.014 761.858C205.102 750.539 206.047 751.572 210.245 745.132C212.926 741.088 213.256 738.869 211.629 737.22C210.333 735.946 209.3 733.704 209.3 732.253C209.3 730.539 214.201 732.341 222.443 737.044C303.235 783.243 390.709 805.661 487.897 805.045C507.129 804.958 521.304 805.661 519.744 806.606C516.073 809.09 518.886 815.353 523.699 815.353C526.71 815.353 527.657 813.903 527.657 809.09C527.657 803.419 528.337 802.826 534.271 802.826C542.337 802.826 589.129 795.089 603.195 791.485C608.866 789.946 613.591 789.507 613.591 790.364C613.591 794.672 602.251 804.87 597.548 804.87C593.416 804.87 592.47 805.815 592.997 809.507C593.591 813.375 592.294 814.408 585.261 815.859C547.92 823.683 458.886 829.441 464.38 823.595ZM441.896 817.507C441.896 814.672 440.423 813.287 437.676 813.287C434.841 813.287 433.479 814.672 433.479 817.507C433.479 820.254 434.841 821.617 437.676 821.617C440.423 821.617 441.896 820.254 441.896 817.507ZM517.26 819.815C517.26 817.068 511.854 813.112 510.227 814.672C507.392 817.595 509.019 821.617 513.063 821.617C515.371 821.617 517.26 820.848 517.26 819.815ZM614.097 805.485C616.163 803.243 617.789 798.188 617.789 794.232C617.789 787.111 617.789 787.111 640.559 780.408C653.086 776.715 672.142 769.77 682.955 765.045C709.923 753.199 709.571 753.199 708.384 759.55C707.681 763.331 708.626 765.55 711.813 767.528C714.208 769.089 716.187 770.891 716.187 771.66C716.187 773.023 686.56 786.254 671.966 791.397C667.087 793.111 663.483 793.375 662.691 792.166C662.098 791.133 659.944 790.276 657.988 790.276C654.977 790.276 654.889 790.54 657.548 792.254C661.416 794.738 660.8 795.177 648.361 799.375C635.305 803.683 634.537 803.683 634.537 798.694C634.537 791.99 630.845 791.837 629.307 798.518C627.768 805.815 627.503 805.991 617.789 808.056C610.668 809.507 610.581 809.507 614.097 805.485ZM677.461 779.726C676.186 777.66 668.032 779.551 668.032 781.946C668.032 784.694 673.086 785.639 675.833 783.419C677.284 782.298 677.988 780.672 677.461 779.726ZM696.867 775.089C695.505 771.045 688.977 770.539 688.977 774.408C688.977 776.298 690.78 777.66 693.352 777.66C695.923 777.66 697.395 776.54 696.867 775.089ZM450.38 790.54C447.984 785.99 450.733 783.924 453.48 788.32C454.513 789.946 455.545 789.946 457.172 788.32C458.534 786.935 469.612 786.078 485.766 786.078C549.547 786.078 624.844 770.188 679.438 745.286C698.164 736.803 698.581 736.715 700.208 741.176C702.625 747.264 650.845 767.704 602.867 779.551C564.822 788.913 537.788 792.43 492.886 793.815C453.391 795.001 452.797 794.913 450.38 790.54ZM412.533 790.034C359.983 783.243 297.301 763.594 249.059 738.781C214.025 720.649 154.881 678.758 154.881 671.989C154.881 665.549 159.255 667.263 174.025 679.615C238.839 733.88 334.664 773.638 423.523 782.979C435.457 784.188 437.676 785.045 437.676 788.386C437.676 792.782 435.193 792.935 412.533 790.034ZM722.45 767.792C722.45 766.759 723.658 764.781 725.109 763.331C727.175 761.177 726.494 759.55 721.417 755.177C717.549 751.814 716.186 749.418 717.724 748.913C719.197 748.385 730.428 741.946 742.714 734.561C772.847 716.539 800.496 695.066 827.112 669.307C839.222 657.549 849.947 647.856 850.804 647.856C851.662 647.856 852.342 646.735 852.342 645.527C852.342 644.252 856.891 637.373 862.474 630.34C883.507 603.636 898.805 577.877 911.156 548.36C917.332 533.679 920.167 529.195 923.947 528.338C926.607 527.745 929.091 525.503 929.53 523.371C930.036 520.36 929.267 519.766 926.014 520.536C921.97 521.657 921.881 521.393 924.804 511.612C952.101 419.655 938.036 310.884 888.761 232.839C886.014 228.465 883.772 224.333 883.772 223.74C883.772 221.762 891.838 222.619 893.223 224.773C893.904 225.894 898.189 226.839 902.739 226.839C910.981 226.839 910.981 226.839 922.41 250.444C952.103 311.741 965.069 378.27 959.31 440.095C957.86 455.634 955.707 470.821 954.52 473.832C953.223 476.755 952.453 481.304 952.717 483.964C953.223 489.194 949.794 490.315 947.904 485.502C946.19 480.865 942.41 481.722 942.41 486.711C942.41 489.37 944.124 491.612 946.695 492.294C951.86 493.568 951.42 496.403 941.112 528.25C925.574 575.745 881.793 650.516 870.804 648.274C868.233 647.768 866.694 649.746 865.045 655.571C861.353 669.307 812.694 713.967 772.342 740.583C750.517 754.913 722.45 770.276 722.45 767.792ZM852.013 660.736C852.519 656.955 851.837 656.01 848.826 656.516C846.672 656.955 844.715 659.439 844.276 662.186C843.77 665.966 844.54 666.912 847.463 666.318C849.595 665.879 851.574 663.395 852.013 660.736ZM875.024 635.746C874.145 631.372 870.386 631.636 869.441 636.186C869.09 638.142 870.211 639.439 872.277 639.439C874.409 639.439 875.442 638.076 875.024 635.834V635.746ZM934.256 513.151C932.542 511.437 931.926 511.7 931.926 514.096C931.926 515.81 932.629 517.964 933.486 518.821C934.255 519.679 935.376 519.239 935.793 517.964C936.233 516.58 935.531 514.448 934.256 513.151ZM707.088 736.978C706.319 734.913 707.592 732.671 710.515 730.956C713.087 729.418 723.044 723.484 732.671 717.813C742.209 712.165 759.198 700.736 770.363 692.318C790.012 677.637 794.737 675.505 794.737 681.417C794.737 685.285 763.154 708.978 736.868 724.693C710.78 740.407 708.714 741.176 707.088 736.978ZM180.464 732.671C178.156 729.836 174.882 727.44 173.167 727.44C168.266 727.44 130.507 696.275 111.958 676.868C46.1104 608.185 9.95606 530.843 2.06584 442.403C0.94494 429.281 0 417.765 0 416.908C0 416.051 1.80197 415.369 4.13167 415.369C6.9449 415.369 8.32975 413.985 8.32975 411.149C8.32975 408.402 6.94537 407.039 4.19807 407.039C0.351863 407.039 0.175666 405.919 1.20865 389.699C3.95594 349.434 13.3189 309.851 29.1873 271.477C37.0116 252.663 38.726 250.092 43.6052 249.498C49.5394 248.817 52.968 241.52 47.2976 241.52C44.814 241.52 44.4622 240.487 45.8468 236.883C47.0556 233.608 49.0995 232.333 52.3743 232.663C56.5722 233.191 56.924 232.575 55.7152 226.399C54.5943 220.399 54.7698 219.96 57.2753 223.234C58.8138 225.19 62.5945 226.927 65.5836 226.927C70.5727 226.927 71.166 226.048 71.166 219.278C71.166 212.311 70.7483 211.806 65.8472 212.751C59.0778 214.047 59.0777 213.96 75.2977 190.772C100.441 154.97 150.838 108.617 195.739 79.8477C278.927 26.704 374.84 -0.0877303 481.633 0.000183105C602.953 0.000183105 712.23 36.1545 802.649 106.046C817.572 117.54 818.693 118.903 815.77 122.09C812.847 125.343 813.023 125.519 818.781 124.749C824.188 123.892 827.024 125.694 839.991 138.134C858.189 155.651 881.288 182.97 895.113 203.3C904.805 217.564 906.783 224.597 899.486 218.509C897.508 216.883 893.134 216.267 888.145 216.949C880.343 217.982 879.639 217.564 873.046 208.377C782.891 81.0565 609.723 6.87939 436.819 21.473C411.324 23.6269 407.369 23.5391 404.204 20.7039C399.303 16.1543 396.05 16.6598 393.457 22.2423C391.654 26.2863 387.808 27.7369 368.225 31.693C320.488 41.4734 263.147 63.6275 221.322 88.6169C174.288 116.595 122.002 161.937 97.1882 196.179C90.6606 205.278 86.6166 209.322 86.199 207.168C85.7594 205.366 84.1331 203.828 82.4188 203.828C78.3748 203.828 75.4738 212.157 77.5178 217.652C79.6717 223.476 69.0338 240.663 65.4293 237.037C64.1326 235.85 62.0666 235.41 60.8798 236.18C57.9567 237.982 57.8688 247.257 60.7041 248.202C61.9788 248.641 58.9022 257.653 53.6494 268.818C36.3964 306.071 23.0113 357.676 22.9234 387.215C22.9234 391.83 21.8906 396.732 20.6818 397.94C18.9675 399.655 18.9675 401.457 20.6818 404.556C21.8906 406.864 22.9234 416.49 22.9234 425.831C22.9234 442.93 22.9233 442.93 16.6595 441.545C12.7034 440.688 10.3956 441.04 10.3956 442.403C10.3956 443.699 11.341 444.732 12.5278 444.732C13.7366 444.732 15.5386 447.04 16.6595 449.875C17.7804 452.886 19.7364 454.601 21.3848 454.007C23.3628 453.304 25.0772 458.645 27.7365 474.337C36.6597 526.536 62.2427 583.196 98.0454 630.076C119.936 658.67 162.178 697.901 192.574 717.813C199.343 722.297 202.443 725.374 200.201 725.374C198.069 725.374 193.695 728.209 190.42 731.638C184.574 737.99 184.574 737.989 180.376 732.671H180.464ZM180.113 713.615C180.113 711.989 178.662 710.692 176.948 710.692C175.233 710.692 173.761 712.495 173.761 714.824C173.761 717.572 174.794 718.517 176.948 717.747C178.662 717.044 180.113 715.154 180.113 713.615ZM18.8132 459.743C18.8132 457.612 14.2419 453.062 12.11 453.062C9.45058 453.062 10.2198 458.886 13.055 460.095C17.077 461.722 18.8132 461.634 18.8132 459.743ZM94.1773 188.289C94.1773 185.102 91.254 180.816 88.9463 180.816C86.0232 180.816 83.2759 185.959 85.254 187.937C86.7045 189.322 94.1773 189.652 94.1773 188.289ZM866.782 185.19C871.244 182.355 867.881 176.596 861.881 176.596C856.21 176.596 854.914 180.377 859.046 184.596C862.057 187.52 862.914 187.586 866.782 185.19ZM826.759 133.167C827.198 131.716 825.99 129.892 824.1 129.211C820.078 127.672 810.1 132.398 811.837 135.145C813.463 137.892 825.726 136.266 826.759 133.167ZM365.741 18.4619C364.027 13.9124 353.104 15.1212 352.247 19.9345C351.742 22.4181 353.28 23.6269 357.5 24.1324C364.621 25.0775 367.456 23.0993 365.741 18.4619ZM698.318 679.967C699.614 670.516 699.263 669.395 693.174 663.571L686.56 657.307L695.659 656.274C703.571 655.329 705.285 654.12 708.89 647.329C713.945 637.812 714.977 637.636 718.34 645.79C721.505 653.439 726.143 656.274 735.33 656.274H742.209L735.241 663.395C728.801 670.01 728.385 671.285 729.659 680.055C731.132 689.483 731.132 689.483 722.626 684.934C714.12 680.296 714.121 680.296 705.549 685.197L696.956 690.099L698.318 679.967ZM426.776 677.989C341.17 665.549 261.674 619.087 220.816 557.613C180.904 497.612 174.288 423.611 203.212 361.28C215.322 335.258 229.058 316.027 251.212 293.873C356.796 188.531 540.008 173.607 668.032 259.96C718.076 293.631 751.99 337.676 767.88 389.347C773.111 406.512 773.616 410.82 773.616 442.578C773.528 483.788 770.276 498.975 754.143 531.613C708.538 623.812 601.569 681.857 478.534 681.088C461.281 681 437.941 679.527 426.776 677.989ZM524.997 668.714C597.108 659.197 659.857 629.219 704.341 583.042C735.066 551.108 751.989 519.766 760.407 479.238C784.956 360.929 687.328 245.894 540.183 219.63C391.236 193.014 241.081 269.499 203.124 391.325C196.596 412.182 194.97 456.315 199.871 480.359C215.41 557.284 278.158 621.592 367.786 652.757C387.456 659.527 422.49 667.681 439.831 669.483C456.644 671.197 509.788 670.692 524.997 668.714ZM317.147 324.027C313.279 320.928 313.279 320.928 317.829 323.082C320.4 324.357 322.466 325.829 322.466 326.335C322.466 327.961 321.433 327.456 317.147 324.027ZM336.466 315.697C328.554 309.412 322.73 304.269 323.587 304.269C325.301 304.269 351.829 325.126 351.829 326.423C351.829 327.873 351.236 327.544 336.466 315.697ZM552.205 320.84C554.359 317.324 557.349 313.28 558.997 312.005C560.623 310.62 559.327 313.543 556.074 318.445C549.283 328.643 546.623 330.379 552.205 320.84ZM608.361 302.203C622.186 288.378 633.943 277.059 634.448 277.059C635.064 277.059 624.229 288.378 610.493 302.203C596.668 316.027 584.91 327.28 584.404 327.28C583.811 327.28 594.625 316.027 608.361 302.203ZM571.701 317.917C574.448 314.994 577.108 312.686 577.701 312.686C578.228 312.686 576.514 314.994 573.832 317.917C571.085 320.752 568.427 323.082 567.833 323.082C567.328 323.082 569.041 320.752 571.701 317.917ZM375.61 307.016C368.906 299.302 364.445 293.631 365.741 294.4C368.731 296.202 390.292 321.016 388.907 321.016C388.402 321.016 382.379 314.752 375.61 307.016ZM296.796 311.477C292.51 308.554 288.972 305.719 288.972 305.214C288.972 304.62 292.752 306.664 297.389 309.763C304.686 314.577 307.191 316.796 305.213 316.796C304.862 316.796 301.081 314.401 296.796 311.477ZM656.515 313.631C658.845 311.741 662.603 309.346 664.933 308.225C669.131 306.159 669.131 306.159 664.933 309.5C662.603 311.39 658.845 313.895 656.515 314.994C652.405 317.06 652.405 317.06 656.515 313.631ZM578.052 309.939C578.052 309.499 581.063 306.51 584.821 303.06L591.613 296.972L585.526 303.763C579.767 310.115 578.052 311.477 578.052 309.939ZM547.656 302.203C549.459 298.686 551.349 295.851 551.942 295.851C552.47 295.851 551.525 298.686 549.722 302.203C547.92 305.653 546.03 308.466 545.415 308.466C544.909 308.466 545.854 305.653 547.656 302.203ZM565.437 302.203C567.921 298.686 570.405 295.851 570.932 295.851C571.525 295.851 569.987 298.686 567.569 302.203C565.085 305.653 562.601 308.466 561.986 308.466C561.48 308.466 563.02 305.653 565.437 302.203ZM532.118 303.236C532.118 302.049 533.415 298.774 535.041 295.851C536.756 293.016 538.052 291.565 538.052 292.774C538.052 293.873 536.756 297.236 535.041 300.071C533.415 302.972 532.118 304.356 532.118 303.236ZM465.413 295.851C465.413 291.829 465.832 290.18 466.359 292.246C466.865 294.224 466.865 297.565 466.359 299.543C465.832 301.609 465.413 299.895 465.413 295.851ZM422.227 296.884C420.249 291.565 420.842 290.181 423.26 294.488C424.534 296.554 425.061 298.774 424.534 299.301C423.941 299.807 422.996 298.686 422.227 296.884ZM402.05 289.587C399.742 285.038 398.27 281.257 398.863 281.257C399.391 281.257 401.787 285.038 404.204 289.587C406.512 294.225 407.984 298.005 407.369 298.005C406.863 298.005 404.446 294.225 402.05 289.587ZM492.711 288.554C492.711 283.917 493.151 282.29 493.656 284.95C494.096 287.521 494.095 291.301 493.568 293.279C493.062 295.345 492.622 293.192 492.622 288.554H492.711ZM594.8 290.62C597.46 287.785 600.119 285.389 600.712 285.389C601.306 285.389 599.591 287.785 596.843 290.62C594.184 293.543 591.437 295.851 590.932 295.851C590.316 295.851 592.053 293.543 594.8 290.62ZM379.039 284.356C375.522 279.191 373.038 274.906 373.632 274.906C374.137 274.906 377.588 279.191 381.104 284.356C384.709 289.587 387.105 293.807 386.599 293.807C386.006 293.807 382.643 289.587 379.039 284.356ZM449.347 286.334C448.49 282.114 448.315 278.246 448.842 277.741C449.348 277.323 450.38 280.312 451.15 284.532C452.007 288.73 452.182 292.598 451.677 293.016C451.149 293.543 450.138 290.532 449.347 286.334ZM575.305 287.367C577.371 283.829 580.36 279.807 582.008 278.422C583.635 277.147 582.339 279.982 579.174 284.862C572.383 295.17 569.723 296.884 575.305 287.367ZM358.95 287.016C354.994 282.29 354.994 282.29 359.632 286.246C364.093 290.027 365.302 291.653 363.676 291.653C363.324 291.653 361.192 289.587 358.95 287.016ZM538.293 288.554C538.293 287.367 539.151 285.038 540.272 283.323C541.481 281.609 542.338 281.081 542.338 282.29C542.338 283.411 541.481 285.807 540.272 287.521C539.151 289.235 538.293 289.675 538.293 288.554ZM562.339 274.906C566.383 266.84 570.141 260.312 570.756 260.312C571.262 260.312 568.427 266.84 564.404 274.906C560.36 282.972 556.58 289.587 555.987 289.587C555.393 289.587 558.207 282.972 562.339 274.906ZM432.622 282.114C431.83 279.037 431.589 276.114 432.094 275.675C432.622 275.169 433.655 277.235 434.424 280.312C435.194 283.411 435.368 286.334 434.929 286.84C434.423 287.279 433.391 285.213 432.622 282.114ZM415.962 282.202C413.896 276.884 414.489 275.587 416.995 279.807C418.182 281.873 418.797 284.092 418.269 284.62C417.676 285.125 416.643 284.004 415.962 282.202ZM463.348 273.872C463.348 269.235 463.786 267.609 464.292 270.268C464.797 272.84 464.797 276.62 464.292 278.598C463.786 280.664 463.348 278.51 463.348 273.872ZM509.194 277.059C509.194 274.136 509.7 272.927 510.316 274.4C510.821 275.851 510.821 278.18 510.316 279.631C509.7 281.081 509.194 279.895 509.194 277.059ZM542.602 278.092C542.602 276.884 543.876 273.631 545.502 270.708C547.216 267.872 548.514 266.4 548.514 267.609C548.514 268.73 547.216 272.07 545.502 274.906C543.876 277.829 542.602 279.191 542.602 278.092ZM387.456 262.378C383.94 255.411 381.522 249.85 382.137 249.85C382.731 249.85 386.006 255.411 389.522 262.378C393.039 269.235 395.346 274.906 394.841 274.906C394.248 274.906 390.885 269.235 387.456 262.378ZM494.776 267.609C494.776 262.971 495.195 261.345 495.722 263.916C496.228 266.576 496.227 270.356 495.634 272.334C495.194 274.312 494.776 272.246 494.776 267.609ZM446.447 268.642C446.447 265.719 446.863 264.598 447.457 266.07C447.984 267.433 447.984 269.85 447.457 271.213C446.863 272.686 446.447 271.477 446.447 268.642ZM409.699 267.521C407.633 262.29 408.226 260.905 410.732 265.125C411.919 267.257 412.533 269.411 411.918 269.938C411.412 270.532 410.38 269.411 409.699 267.521ZM511.349 266.576C511.349 263.653 511.854 262.466 512.382 263.916C512.975 265.389 512.975 267.697 512.382 269.147C511.854 270.62 511.349 269.411 511.349 266.576ZM527.92 269.675C528.161 265.719 531.612 259.015 531.766 262.378C531.854 264.092 530.996 266.927 529.875 268.642C528.777 270.356 527.832 270.883 527.92 269.675ZM427.368 265.125C427.281 263.828 426.688 260.993 426.007 258.861C424.886 255.257 424.886 255.257 427.216 258.773C428.49 260.839 429.171 263.653 428.577 265.037C427.808 266.839 427.456 266.839 427.368 265.125ZM360.159 257.059C358.686 255.345 357.917 253.455 358.445 253.015C358.862 252.51 360.489 253.96 361.873 256.202C364.884 260.993 363.939 261.609 360.159 257.059ZM461.04 251.894C461.04 248.971 461.545 247.872 462.139 249.235C462.666 250.707 462.666 253.103 462.139 254.466C461.545 255.938 461.04 254.729 461.04 251.894ZM421.105 245.367C419.743 240.663 418.973 236.443 419.391 235.938C419.83 235.498 421.457 238.927 422.82 243.74C424.292 248.466 425.061 252.663 424.534 253.191C424.028 253.608 422.578 250.18 421.105 245.367ZM496.755 248.729C496.843 245.279 497.26 244.18 497.765 246.158C498.293 248.202 498.293 251.037 497.699 252.422C497.172 253.872 496.755 252.246 496.755 248.729ZM516.49 239.367C517.172 234.136 518.47 229.059 519.415 228.026C520.36 227.081 520.271 230.355 519.062 235.41C516.227 248.466 515.041 250.356 516.403 239.367H516.49ZM538.293 236.18C538.293 235.081 539.151 232.663 540.272 230.949C541.481 229.235 542.338 228.729 542.338 229.916C542.338 231.037 541.481 233.432 540.272 235.169C539.151 236.883 538.293 237.301 538.293 236.18ZM473.304 643.307C473.304 639.439 470.997 632.581 468.073 627.944C461.81 617.724 461.72 616.427 467.039 616.427C469.523 616.427 472.271 618.581 473.655 621.658C474.93 624.493 476.82 626.911 477.765 626.911C478.711 626.911 480.094 624.493 480.776 621.658C481.633 618.405 483.611 616.427 486.095 616.427C490.996 616.427 491.085 619.175 486.447 626.23C484.469 629.219 482.403 635.482 481.721 640.208C480.271 651.549 473.303 654.032 473.215 643.307H473.304ZM434.666 646.054C433.985 644.845 434.072 637.219 434.842 628.889C436.226 613.856 436.227 613.856 444.381 614.977C448.842 615.57 453.897 617.196 455.546 618.581C459.15 621.592 459.743 631.109 456.314 631.109C454.073 631.109 454.687 636.428 457.764 644.516C458.71 646.911 457.852 647.856 454.841 647.856C452.094 647.856 449.962 645.702 448.49 641.592C445.742 633.768 442.403 633.438 441.458 640.889C440.776 646.647 436.908 649.571 434.666 646.054ZM449.875 625.526C448.842 620.295 444.645 619.79 443.348 624.757C442.579 627.944 443.26 628.977 446.447 628.977C449.194 628.977 450.293 627.856 449.875 625.526ZM512.975 633.68C504.996 616.251 504.909 615.834 509.283 614.889C511.854 614.295 514.183 617.043 517.612 625.109C522.843 637.285 521.986 637.9 526.535 617.988C527.392 614.119 529.194 612.229 531.941 612.229C534.271 612.229 536.074 612.493 536.074 612.735C535.635 618.911 527.216 644.757 525.238 646.054C520.447 649.065 519.59 648.12 512.975 633.68ZM410.028 642.538C409.434 641.922 410.116 635.834 411.5 628.889C413.984 617.284 413.896 616.427 410.292 616.427C405.83 616.427 403.853 614.032 405.919 610.845C407.985 607.504 431.413 612.054 431.413 615.746C431.413 617.284 429.171 618.493 426.336 618.493C422.05 618.493 421.105 619.79 419.918 627.416C417.852 640.647 416.731 643.636 413.808 643.636C412.357 643.636 410.643 643.131 410.028 642.538ZM545.591 641.065C545.085 639.614 543.283 632.493 541.656 625.197C539.063 613.68 539.062 611.79 541.722 610.757C543.37 610.163 545.173 610.163 545.766 610.757C547.832 612.735 553.063 638.142 551.942 640.889C550.668 644.428 546.712 644.516 545.591 641.065ZM560.447 637.812C559.085 635.482 562.778 629.834 564.58 631.636C566.624 633.68 574.184 629.219 572.734 626.823C572.03 625.702 569.195 624.845 566.536 624.845C560.954 624.845 554.953 619.79 554.953 615.24C554.953 610.427 562.844 603.9 568.602 603.9C575.129 603.9 575.635 609.57 569.283 610.515C561.833 611.614 562.602 615.834 570.581 617.284C579.416 618.999 583.46 624.845 580.031 631.197C576.668 637.46 563.107 642.01 560.447 637.812ZM383.412 630.779C382.138 627.153 381.104 622.361 381.104 620.207C381.104 614.361 377.5 617.548 375.873 624.845C374.313 631.966 371.236 634.625 368.137 631.548C366.423 629.746 372.863 603.724 376.028 600.031C378.27 597.284 384.885 605.262 387.193 613.592C390.028 623.724 390.028 623.724 392.006 616.427C394.577 607.24 397.149 604.405 400.248 607.416C403.853 611.108 394.489 637.373 389.522 637.373C387.192 637.373 384.885 634.889 383.412 630.779ZM588.514 614.625C588.514 599.526 588.954 597.724 592.822 596.515C595.217 595.746 597.371 595.394 597.701 595.834C597.964 596.163 602.691 602.097 608.185 608.955C616.933 619.944 617.723 621.592 614.449 623.394C611.789 624.845 610.163 624.405 608.185 621.658C604.317 616.427 595.394 618.911 595.658 625.197C595.746 628.098 594.361 630.164 592.119 630.691C588.866 631.285 588.514 629.482 588.514 614.625ZM599.855 612.493C600.448 611.46 599.591 609.482 597.876 608.01C595.305 605.878 594.8 606.207 594.8 609.9C594.8 614.361 597.701 615.922 599.855 612.493ZM346.071 623.812C342.291 622.186 339.301 620.295 339.301 619.702C339.301 616.515 350.357 591.284 351.829 591.284C356.796 591.284 368.577 598.141 368.577 600.976C368.577 603.218 367.28 603.987 364.884 603.306C362.906 602.779 359.983 601.921 358.357 601.504C353.038 600.031 353.719 605.174 359.214 607.68C366.247 610.933 363.763 614.977 355.785 613.262C347.961 611.548 347.368 616.779 354.907 620.207C366.929 625.702 358.357 629.131 346.071 623.812ZM312.071 556.25C317.06 550.756 340.84 526.118 364.972 501.48C395.786 469.963 409.61 454.337 411.5 448.842C417.083 433.04 419.39 407.369 419.302 360.599L419.215 313.192L428.666 311.741C433.896 310.972 439.48 308.554 441.458 306.334C445.062 302.115 452.358 300.752 452.358 304.269C452.358 311.302 500.864 312.511 505.941 305.565C509.106 301.17 514.337 301.433 519.151 306.247C521.304 308.401 526.887 310.884 531.524 311.653L539.92 313.038L539.855 357.412C539.855 402.314 543.194 436.82 549.107 450.644C550.667 454.161 575.13 480.953 603.724 510.316C632.23 539.679 655.482 564.229 655.482 564.91C655.482 565.613 630.076 566.207 599.086 566.207H542.602L538.382 552.053C536.162 544.228 531.678 528.953 528.601 517.964C519.744 486.799 512.118 473.744 496.579 463.436C485.92 456.403 474.93 455.37 466.952 460.689C447.303 473.832 439.831 487.392 427.04 533.151L417.852 566.119H303.147L312.159 556.25H312.071ZM361.522 531.085C406.687 474.425 435.875 439.479 442.402 434.337C448.842 429.194 448.842 429.194 447.545 435.633C446.864 439.15 434.424 468.689 419.984 501.129C405.566 533.591 393.72 560.536 393.72 561.064C393.72 561.569 398.181 562.009 403.676 562.009C413.632 562.009 413.633 562.009 421.545 534.272C440.007 469.7 451.766 430.732 454.337 425.831C461.04 413.039 476.315 401.545 483.612 403.853C489.875 405.831 506.271 424.644 508.513 432.358C514.337 452.622 542.843 549.305 544.733 555.218C546.799 561.569 547.481 562.009 557.02 562.009H567.063L541.04 504.052C526.798 472.117 515.283 445.326 515.635 444.469C515.986 443.523 528.425 469.634 543.371 502.426C570.58 562.009 570.58 562.009 580.8 562.009C588.36 562.009 590.757 561.218 589.987 559.262C588.778 556.075 536.843 471.941 526.184 455.809C522.162 449.875 519.503 444.029 520.272 442.842C521.041 441.633 519.92 441.04 517.525 441.545C514.602 442.073 513.062 440.776 512.117 436.996C511.348 433.985 511.084 431.326 511.436 430.996C513.919 428.49 548.338 468.073 596.756 529.129C622.867 562.009 622.866 562.009 634.207 562.009H645.526L636.516 552.053C631.461 546.558 605.702 519.678 579.174 492.381C526.03 437.677 518.557 427.303 511.084 397.852C508.755 389.017 506.271 373.303 505.501 362.995L504.14 344.181H455.106L453.743 364.028C452.182 387.281 448.314 403.611 440.006 422.051C432.182 439.326 427.215 445.326 385.742 487.656C366.599 507.217 342.378 531.942 332.005 542.602L313.104 562.009H325.038C336.884 562.009 336.884 562.009 361.522 531.085ZM399.984 504.228C419.831 472.535 436.556 447.04 437.172 447.655C437.765 448.249 437.26 449.963 436.139 451.414C433.216 455.018 368.577 559.943 368.577 561.064C368.577 561.569 373.368 562.009 379.126 562.009C389.764 562.009 389.764 562.009 394.753 551.02C446.512 436.051 443.347 443.523 439.831 445.677C438.028 446.864 437.501 446.447 438.205 444.469C438.798 442.842 440.425 441.809 441.809 442.161C443.172 442.402 443.699 441.721 442.908 440.512C442.227 439.326 440.776 438.798 439.831 439.413C437.413 440.952 364.357 531.349 344.862 556.932C341.016 562.009 341.016 562.009 352.423 562.009C363.94 562.009 363.94 562.009 399.984 504.228ZM616.427 559.349C610.163 549.042 523.37 442.073 522.249 443.26C521.722 443.699 531.613 460.007 544.141 479.502C556.58 498.909 573.327 525.437 581.305 538.382C595.811 561.921 595.811 561.921 606.888 561.921C615.306 562.009 617.636 561.305 616.427 559.349ZM511.853 462.491C509.963 459.656 507.985 457.26 507.48 457.26C506.447 457.26 508.425 461.04 511.59 465.15C515.195 469.788 515.37 467.897 511.853 462.491ZM508.93 450.996C507.655 448.666 505.589 446.776 504.293 446.776C503.018 446.776 503.7 448.666 505.766 450.996C507.832 453.304 509.876 455.194 510.316 455.194C510.733 455.194 510.051 453.304 508.93 450.996ZM455.546 450.82C457.853 447.216 455.281 446.447 452.358 449.875C450.732 451.853 450.557 453.062 451.941 453.062C453.216 453.062 454.754 452.117 455.546 450.82ZM464.886 450.996C466.622 449.875 467.128 448.93 465.919 448.93C464.798 448.93 462.491 449.875 460.689 450.996C458.974 452.117 458.534 453.062 459.655 453.062C460.863 453.062 463.172 452.117 464.886 450.996ZM499.502 450.996C498.711 449.787 497.26 448.842 496.051 448.842C494.952 448.842 494.601 449.787 495.282 450.996C495.963 452.117 497.524 453.062 498.645 453.062C499.832 453.062 500.184 452.117 499.502 450.996ZM474.337 444.732C475.018 443.524 474.249 442.578 472.447 442.578C470.732 442.578 468.755 443.524 468.073 444.732C467.392 445.831 468.161 446.776 469.875 446.776C471.589 446.776 473.655 445.831 474.337 444.732ZM491.085 444.732C490.403 443.524 488.248 442.578 486.27 442.666C483.171 442.666 483.172 442.93 485.919 444.732C489.963 447.392 492.799 447.392 491.085 444.732ZM467.039 441.37C467.039 440.864 465.589 440.512 463.875 440.512C462.138 440.512 460.689 441.458 460.689 442.578C460.689 443.699 462.138 444.029 463.875 443.348C465.589 442.666 467.039 441.809 467.039 441.37ZM497.437 440.688C496.755 439.414 495.107 438.381 493.832 438.381C492.447 438.381 492.623 439.567 494.249 441.633C497.172 445.062 499.744 444.293 497.524 440.6L497.437 440.688ZM457.677 440.337C459.919 436.666 457.348 435.875 454.513 439.413C452.886 441.37 452.71 442.578 454.073 442.578C455.282 442.578 456.908 441.545 457.677 440.337ZM504.645 439.413C503.195 437.589 501.547 436.666 501.041 437.172C499.59 438.622 502.579 442.578 505.084 442.578C506.447 442.578 506.272 441.37 504.645 439.413ZM475.875 434.93C474.513 434.337 472.116 434.337 470.644 434.93C469.281 435.457 470.381 435.963 473.304 435.963C476.139 435.963 477.348 435.457 475.875 434.93ZM490.052 434.161C485.92 431.589 483.172 431.589 484.82 434.161C485.501 435.369 487.722 436.315 489.612 436.227C492.711 436.227 492.799 435.963 490.052 434.161ZM467.039 432.095C467.039 430.996 466.095 430.051 465.062 430.051C463.941 430.051 462.49 430.996 461.809 432.095C461.04 433.216 461.985 434.161 463.788 434.161C465.59 434.161 467.039 433.216 467.039 432.095ZM497.348 432.095C496.667 430.996 495.107 430.051 494.008 430.051C492.799 430.051 492.447 430.996 493.216 432.095C493.92 433.216 495.458 434.161 496.579 434.161C497.7 434.161 498.117 433.216 497.348 432.095ZM477.524 425.831C477.524 424.644 476.14 423.699 474.425 423.699C472.799 423.699 470.909 424.644 470.139 425.831C469.436 426.952 470.82 427.897 473.128 427.897C475.546 427.897 477.524 426.952 477.524 425.831ZM489.018 425.831C488.336 424.644 486.272 423.699 484.557 423.699C482.843 423.699 481.985 424.644 482.754 425.831C483.436 426.952 485.413 427.897 487.127 427.897C488.842 427.897 489.699 426.952 489.018 425.831ZM537.524 421.105C536.931 419.655 536.403 420.864 536.403 423.699C536.403 426.6 536.931 427.809 537.524 426.358C538.052 424.886 538.052 422.578 537.524 421.105ZM468.073 423.699C468.755 422.578 467.898 421.633 466.183 421.633C464.469 421.633 462.49 422.578 461.809 423.699C461.04 424.886 461.898 425.831 463.612 425.831C465.326 425.831 467.392 424.886 468.073 423.699ZM498.469 423.941C498.469 422.93 496.996 421.545 495.282 420.864C492.117 419.655 490.996 421.897 493.568 424.468C495.546 426.446 498.469 426.183 498.469 423.941ZM430.38 414.842C429.611 407.984 429.787 407.215 431.237 411.149C433.039 416.402 433.039 416.402 433.303 411.149C433.479 408.072 434.161 406.952 435.106 408.402C435.963 409.699 436.731 406.864 436.819 402.05C436.995 397.325 438.116 385.391 439.479 375.61C442.49 353.632 442.754 311.06 439.831 313.961C438.71 315.082 437.501 329.17 437.172 345.214L436.468 374.49L436.05 344.533C435.787 323.676 434.929 314.752 433.303 315.258C431.765 315.785 431.061 325.214 431.237 344.269C431.325 359.742 430.555 381.874 429.434 393.479C428.313 405.061 427.984 416.644 428.577 419.149C430.555 426.688 431.501 424.38 430.38 414.842ZM431.83 401.809C431.83 398.27 432.534 390.731 433.392 384.973C435.018 374.753 435.017 374.665 435.193 382.907C435.369 387.545 434.578 395.017 433.655 399.655C432.182 406.864 431.83 407.127 431.83 401.809ZM428.401 363.94C429.786 332.005 428.842 314.577 426.007 317.412C425.479 318.005 424.886 341.368 424.534 369.522C424.028 424.556 426.006 421.721 428.401 363.94ZM477.524 417.435C477.524 416.314 476.578 415.369 475.545 415.369C474.424 415.369 472.974 416.314 472.271 417.435C471.502 418.622 472.446 419.567 474.248 419.567C476.05 419.567 477.524 418.622 477.524 417.435ZM486.865 417.435C486.183 416.314 484.732 415.369 483.612 415.369C482.579 415.369 481.633 416.314 481.633 417.435C481.633 418.622 483.172 419.567 484.909 419.567C486.711 419.567 487.656 418.622 486.865 417.435ZM476.491 409.435C475.788 408.842 473.215 410.468 470.644 413.127C465.918 417.941 465.919 417.941 471.765 414.336C475.018 412.27 477.085 410.116 476.491 409.435ZM527.304 407.721C526.711 404.886 526.183 405.413 525.238 409.787C524.469 413.567 524.821 414.93 526.118 413.655C527.217 412.534 527.744 409.875 527.304 407.721ZM534.689 366.951C534.425 340.335 533.832 318.093 533.239 317.587C530.491 314.84 529.371 335.522 530.58 364.973C531.767 392.006 533.745 415.369 534.866 415.369C534.954 415.369 534.864 393.567 534.689 366.951ZM485.853 410.05C484.381 408.314 482.667 407.457 481.986 408.072C481.282 408.754 482.161 410.204 483.876 411.237C488.249 414.072 488.842 413.743 485.853 410.05ZM529.875 395.193C528.689 386.094 527.744 364.621 527.92 347.368C528.074 323.851 527.48 315.785 525.502 315.17C522.25 314.049 523.964 374.577 527.92 398.116C531.348 418.358 532.887 416.051 529.875 395.193ZM444.885 374.841C446.687 362.907 448.073 342.313 447.897 329.258C447.633 305.39 447.633 305.389 444.974 342.049C443.523 362.225 441.281 384.292 440.006 391.149C437.325 405.655 437.259 407.633 439.831 401.281C440.864 398.798 443.083 386.863 444.885 374.841ZM519.502 389.874C518.117 383.764 516.14 362.731 514.953 343.082C512.448 301.016 511.437 295.609 511.173 324.357C510.909 352.182 517.611 405.237 520.952 401.874C521.48 401.457 520.777 395.962 519.502 389.874ZM523.612 380.599C522.491 370.38 521.481 351.412 521.481 338.533C521.481 325.214 520.536 314.576 519.415 313.807C515.195 311.214 517.941 376.643 522.842 396.05C525.326 405.918 525.678 398.622 523.612 380.599ZM460.776 337.83C460.776 336.731 459.303 335.786 457.589 335.786C455.874 335.786 454.424 336.731 454.424 337.83C454.424 339.038 455.874 339.983 457.589 339.983C459.303 339.983 460.776 339.038 460.776 337.83ZM469.106 337.83C469.106 336.731 468.16 335.786 467.039 335.786C465.83 335.786 464.886 336.731 464.886 337.83C464.886 339.038 465.83 339.983 467.039 339.983C468.16 339.983 469.106 339.038 469.106 337.83ZM477.524 337.83C477.524 336.731 476.578 335.786 475.37 335.786C474.249 335.786 473.304 336.731 473.304 337.83C473.304 339.038 474.249 339.983 475.37 339.983C476.578 339.983 477.524 339.038 477.524 337.83ZM487.985 337.83C487.985 336.731 486.534 335.786 484.82 335.786C483.106 335.786 481.721 336.731 481.721 337.83C481.721 339.038 483.106 339.983 484.82 339.983C486.534 339.983 487.985 339.038 487.985 337.83ZM496.315 337.83C496.315 336.731 494.953 335.786 493.216 335.786C491.502 335.786 490.052 336.731 490.052 337.83C490.052 339.038 491.502 339.983 493.216 339.983C494.953 339.983 496.315 339.038 496.315 337.83ZM504.733 337.83C504.733 336.731 503.26 335.786 501.545 335.786C499.831 335.786 498.469 336.731 498.469 337.83C498.469 339.038 499.831 339.983 501.545 339.983C503.26 339.983 504.733 339.038 504.733 337.83ZM460.776 329.522C460.776 328.313 459.303 327.456 457.589 327.456C455.874 327.456 454.424 328.313 454.424 329.522C454.424 330.621 455.874 331.566 457.589 331.566C459.303 331.566 460.776 330.621 460.776 329.522ZM469.106 329.522C469.106 328.313 468.249 327.456 467.128 327.456C466.095 327.456 464.556 328.313 463.875 329.522C463.171 330.621 464.028 331.566 465.831 331.566C467.633 331.566 469.106 330.621 469.106 329.522ZM477.524 329.522C477.524 328.313 476.578 327.456 475.37 327.456C474.249 327.456 473.304 328.313 473.304 329.522C473.304 330.621 474.249 331.566 475.37 331.566C476.578 331.566 477.524 330.621 477.524 329.522ZM487.985 329.522C487.985 328.313 486.534 327.456 484.82 327.456C483.106 327.456 481.721 328.313 481.721 329.522C481.721 330.621 483.106 331.566 484.82 331.566C486.534 331.566 487.985 330.621 487.985 329.522ZM496.315 329.522C496.315 328.313 494.953 327.456 493.216 327.456C491.502 327.456 490.052 328.313 490.052 329.522C490.052 330.621 491.502 331.566 493.216 331.566C494.953 331.566 496.315 330.621 496.315 329.522ZM504.733 329.522C504.733 328.313 503.26 327.456 501.545 327.456C499.831 327.456 498.469 328.313 498.469 329.522C498.469 330.621 499.831 331.566 501.545 331.566C503.26 331.566 504.733 330.621 504.733 329.522ZM504.733 318.533C504.733 313.895 504.293 313.807 479.567 313.807C454.929 313.807 454.424 313.895 454.424 318.533C454.424 323.148 454.841 323.236 479.567 323.236C504.205 323.236 504.733 323.082 504.733 318.533ZM435.963 565.086C435.963 563.965 437.172 559.679 438.71 555.723C440.249 551.701 441.633 549.811 441.633 551.525C441.633 553.239 440.424 557.459 438.798 560.976C437.259 564.405 435.963 566.295 435.963 565.086ZM465.413 559.855C465.413 555.811 465.832 554.184 466.359 556.25C466.865 558.229 466.865 561.569 466.359 563.547C465.832 565.613 465.413 563.899 465.413 559.855ZM492.446 562.009C492.446 559.086 492.974 557.877 493.568 559.349C494.095 560.8 494.095 563.108 493.568 564.58C492.974 566.031 492.446 564.844 492.446 562.009ZM454.754 545.261C454.754 542.338 455.281 541.129 455.874 542.602C456.402 544.052 456.402 546.382 455.874 547.833C455.281 549.305 454.754 548.096 454.754 545.261ZM490.556 543.107C490.556 539.085 490.996 537.437 491.502 539.503C492.029 541.481 492.029 544.734 491.502 546.8C490.996 548.778 490.556 547.151 490.556 543.107ZM467.479 541.063C467.479 537.019 467.897 535.393 468.491 537.371C468.93 539.415 468.93 542.69 468.491 544.734C467.985 546.712 467.479 545.085 467.479 541.063ZM512.293 537.789C511.59 535.899 511.085 533.327 511.173 531.942C511.173 530.58 512.206 531.789 513.239 534.536C514.338 537.283 514.864 539.943 514.425 540.36C514.007 540.8 513.062 539.679 512.293 537.789ZM314.137 536.25C314.137 535.723 319.543 531.877 326.159 527.657C332.774 523.371 335.609 522.074 332.51 524.734C326.247 530.074 314.137 537.613 314.137 536.25ZM522.755 533.679C520.777 528.338 521.392 526.975 523.788 531.261C525.085 533.327 525.591 535.481 525.085 536.074C524.47 536.58 523.524 535.481 522.755 533.679ZM638.493 533.151C635.833 529.811 635.921 529.723 639.767 532.558C642.097 534.272 644.405 535.899 644.845 536.25C645.35 536.492 644.756 536.844 643.547 536.844C642.361 536.844 640.031 535.217 638.493 533.151ZM488.425 526.382C488.425 522.338 488.843 520.711 489.37 522.689C489.876 524.733 489.876 528.008 489.37 530.074C488.931 532.03 488.425 530.404 488.425 526.382ZM435.786 529.547C435.786 528.338 437.084 525.085 438.71 522.162C440.337 519.327 441.721 517.876 441.721 519.085C441.721 520.184 440.337 523.547 438.71 526.382C437.084 529.283 435.786 530.668 435.786 529.547ZM663.394 526.206C658.999 523.964 655.482 521.657 655.482 521.041C655.482 520.536 659.263 521.898 663.9 524.316C668.449 526.624 672.23 529.041 672.23 529.547C672.23 530.931 672.23 530.931 663.394 526.206ZM458.974 524.316C458.974 521.393 459.48 520.272 460.007 521.657C460.601 523.107 460.601 525.437 460.007 526.887C459.48 528.338 458.974 527.151 458.974 524.316ZM295.257 525.679C295.257 524.228 314.576 513.59 315.521 514.513C315.938 514.953 311.565 517.788 305.719 520.953C299.961 524.052 295.257 526.206 295.257 525.679ZM448.314 525.349C448.578 521.393 452.007 514.689 452.183 518.052C452.271 519.766 451.413 522.602 450.293 524.316C449.194 526.03 448.314 526.448 448.314 525.349ZM469.611 519.085C469.699 514.448 470.051 512.799 470.557 515.393C471.084 518.052 471.084 521.832 470.557 523.788C470.051 525.767 469.611 523.7 469.611 519.085ZM513.392 512.711C509.875 504.997 510.579 503.371 514.337 510.316C516.14 513.591 517.172 516.667 516.755 517.195C516.227 517.612 514.776 515.635 513.392 512.711ZM441.962 514.865C441.962 513.744 442.82 511.349 443.941 509.634C445.062 507.92 446.007 507.393 446.007 508.601C446.007 509.722 445.062 512.118 443.941 513.832C442.82 515.547 441.962 515.986 441.962 514.865ZM636.163 511.612C631.789 509.283 628.274 506.975 628.274 506.36C628.274 505.854 632.054 507.305 636.691 509.634C641.241 511.942 645.02 514.36 645.02 514.865C645.02 516.25 645.02 516.25 636.163 511.612ZM318.335 512.887C318.335 512.382 320.224 510.843 322.466 509.634C324.774 508.425 326.664 507.832 326.664 508.426C326.664 509.019 324.774 510.492 322.466 511.7C320.224 512.975 318.335 513.503 318.335 512.887ZM486.359 505.415C486.359 501.393 486.777 499.766 487.305 501.81C487.81 503.788 487.81 507.063 487.305 509.107C486.777 511.085 486.359 509.459 486.359 505.415ZM328.818 506.535C328.818 506.03 332.598 503.612 337.148 501.217C341.785 498.909 345.565 497.436 345.565 498.03C345.565 498.557 341.785 500.953 337.148 503.371C332.598 505.678 328.818 507.151 328.818 506.535ZM454.6 505.415C454.6 503.7 455.457 500.865 456.556 499.151C459.061 495.283 459.061 498.645 456.556 504.403C455.369 507.151 454.688 507.481 454.6 505.415ZM293.191 503.371C294.905 502.25 297.301 501.305 298.422 501.305C299.543 501.305 299.103 502.25 297.389 503.371C295.675 504.469 293.279 505.349 292.158 505.349C290.949 505.349 291.477 504.469 293.191 503.371ZM499.744 500.096C497.7 494.865 498.293 493.48 500.777 497.788C501.986 499.854 502.579 501.986 501.985 502.601C501.458 503.107 500.447 501.986 499.744 500.096ZM507.129 498.03C503.612 490.315 504.293 488.689 508.073 495.722C509.875 498.975 510.909 501.986 510.492 502.513C509.964 503.019 508.513 500.953 507.129 498.03ZM607.833 495.898C600.624 491.766 594.8 487.986 594.8 487.392C594.8 486.184 617.548 498.645 620.8 501.568C624.493 504.821 621.064 503.37 607.833 495.898ZM657.637 501.217C655.922 500.096 655.394 499.239 656.515 499.239C657.724 499.239 660.031 500.096 661.746 501.217C663.482 502.338 663.988 503.283 662.867 503.283C661.68 503.283 659.351 502.338 657.637 501.217ZM307.873 497.107C311.895 494.865 316.114 493.063 317.235 493.063C318.422 493.063 316.027 494.865 312.071 497.107C308.049 499.239 303.741 501.041 302.642 501.041C301.433 501.041 303.829 499.239 307.873 497.107ZM448.248 500.184C448.248 499.063 449.106 496.667 450.293 494.953C451.413 493.238 452.27 492.799 452.27 493.92C452.27 495.129 451.413 497.436 450.293 499.151C449.106 500.865 448.248 501.393 448.248 500.184ZM471.589 495.986C471.677 492.535 472.117 491.436 472.622 493.414C473.216 495.458 473.128 498.294 472.622 499.766C472.029 501.129 471.589 499.502 471.589 495.986ZM477.853 494.953C477.853 492.118 478.292 490.909 478.886 492.381C479.413 493.832 479.413 496.162 478.886 497.612C478.292 499.063 477.853 497.876 477.853 494.953ZM347.61 496.162C347.61 495.546 351.39 493.151 356.027 490.821C360.577 488.425 364.357 486.975 364.357 487.568C364.357 488.074 360.577 490.579 356.027 492.887C351.39 495.217 347.61 496.667 347.61 496.162ZM642.955 494.953C641.24 493.832 640.713 492.975 641.922 492.975C643.043 492.975 645.438 493.832 647.152 494.953C648.866 496.074 649.306 497.019 648.185 497.019C646.998 497.019 644.669 496.074 642.955 494.953ZM263.828 492.887C265.63 491.766 267.938 490.821 269.059 490.821C270.268 490.821 269.74 491.766 268.026 492.887C266.312 494.008 264.004 494.953 262.795 494.953C261.674 494.953 262.114 494.008 263.828 492.887ZM324.62 489.722C327.433 488.074 330.796 486.799 331.917 486.799C333.104 486.799 331.653 488.074 328.818 489.722C325.895 491.348 322.642 492.711 321.433 492.711C320.312 492.711 321.697 491.348 324.62 489.722ZM510.996 488.689C509.787 486.359 509.194 484.469 509.787 484.469C510.403 484.469 511.854 486.359 513.063 488.689C514.338 490.997 514.864 492.887 514.249 492.887C513.743 492.887 512.205 490.997 510.996 488.689ZM630.34 489.722C627.504 488.074 626.031 486.799 627.239 486.799C628.36 486.799 631.702 488.074 634.537 489.722C637.46 491.348 638.823 492.711 637.724 492.711C636.515 492.711 633.263 491.348 630.34 489.722ZM276.444 488.689C278.158 487.568 280.488 486.623 281.675 486.623C282.796 486.623 282.378 487.568 280.663 488.689C278.861 489.788 276.532 490.733 275.411 490.733C274.224 490.733 274.729 489.788 276.444 488.689ZM339.301 483.436C342.115 481.81 345.477 480.447 346.598 480.447C347.697 480.447 346.335 481.81 343.412 483.436C340.576 485.085 337.236 486.447 336.115 486.447C334.994 486.447 336.378 485.085 339.301 483.436ZM587.327 483.37C583.371 480.183 583.459 480.183 587.92 482.337C590.579 483.612 592.646 485.085 592.646 485.59C592.646 487.217 591.613 486.799 587.327 483.37ZM615.746 483.436C612.823 481.81 611.438 480.447 612.559 480.447C613.767 480.447 617.02 481.81 619.943 483.436C622.779 485.085 624.229 486.447 623.042 486.447C621.921 486.447 618.581 485.085 615.746 483.436ZM295.257 482.425C296.971 481.304 299.806 480.447 301.609 480.535C303.653 480.535 303.235 481.216 300.488 482.425C294.73 484.909 291.477 484.909 295.257 482.425ZM370.709 483.612C370.709 483.019 372.599 481.546 374.841 480.359C377.148 479.063 379.039 478.557 379.039 479.15C379.039 479.678 377.148 481.216 374.841 482.425C372.511 483.612 370.709 484.227 370.709 483.612ZM659.703 482.425C655.834 479.92 659.175 479.92 664.933 482.425C667.68 483.612 668.032 484.227 665.966 484.293C664.252 484.381 661.417 483.524 659.703 482.425ZM353.895 477.172C356.796 475.546 360.071 474.183 361.28 474.183C362.379 474.183 361.016 475.546 358.093 477.172C355.258 478.799 351.917 480.183 350.796 480.183C349.588 480.183 351.06 478.799 353.895 477.172ZM601.064 477.172C598.141 475.546 596.756 474.183 597.876 474.183C599.085 474.183 602.338 475.546 605.261 477.172C608.096 478.799 609.548 480.183 608.361 480.183C607.24 480.183 603.987 478.799 601.064 477.172ZM642.955 477.172C638.911 475.634 637.021 474.337 638.757 474.337C640.471 474.337 645.196 475.634 649.218 477.172C653.262 478.733 655.152 480.007 653.438 480.007C651.702 480.007 646.999 478.733 642.955 477.172ZM228.201 470.821C226.223 468.425 226.135 466.952 227.85 465.238C229.564 463.524 229.564 462.073 228.025 460.183C225.102 456.666 227.344 453.15 232.575 453.15C234.817 453.15 236.619 451.677 236.619 449.963C236.619 448.249 237.476 446.776 238.597 446.776C239.608 446.776 241.938 448.249 243.652 449.963C245.366 451.677 247.696 453.15 248.707 453.15C252.246 453.15 255.938 458.798 253.432 460.359C252.246 461.128 251.806 464.051 252.487 466.799C254.048 472.974 248.553 475.985 242.619 472.293C240.223 470.733 238.663 470.645 238.663 471.941C238.663 475.194 231.124 474.425 228.113 470.821H228.201ZM249.234 468.93C249.234 465.062 245.718 462.842 244.003 465.59C243.3 466.799 243.74 467.744 245.015 467.744C246.312 467.744 246.751 468.689 246.048 469.875C245.366 470.996 245.718 471.941 246.993 471.941C248.202 471.941 249.234 470.557 249.234 468.93ZM235.586 467.744C236.267 466.623 235.41 465.678 233.608 465.678C231.806 465.678 230.355 466.623 230.355 467.744C230.355 468.93 231.212 469.875 232.311 469.875C233.432 469.875 234.904 468.93 235.586 467.744ZM236.619 459.414C236.619 458.205 235.146 457.26 233.344 457.26C231.542 457.26 230.685 458.205 231.366 459.414C232.157 460.513 233.608 461.458 234.641 461.458C235.762 461.458 236.619 460.513 236.619 459.414ZM250.267 459.414C250.949 458.205 250.092 457.26 248.289 457.26C246.487 457.26 245.015 458.205 245.015 459.414C245.015 460.513 245.894 461.458 246.993 461.458C248.026 461.458 249.586 460.513 250.267 459.414ZM242.883 455.282C242.883 454.249 242.026 452.798 240.817 452.029C239.696 451.326 238.751 452.205 238.751 454.007C238.751 455.809 239.696 457.26 240.817 457.26C242.026 457.26 242.883 456.403 242.883 455.282ZM368.577 470.909C371.478 469.282 374.753 467.898 375.961 467.898C377.06 467.898 375.698 469.282 372.775 470.909C369.852 472.535 366.599 473.919 365.478 473.919C364.269 473.919 365.654 472.535 368.577 470.909ZM586.383 470.909C583.548 469.282 582.074 467.898 583.283 467.898C584.404 467.898 587.657 469.282 590.58 470.909C593.503 472.535 594.866 473.919 593.768 473.919C592.559 473.919 589.306 472.535 586.383 470.909ZM627.239 471.941C624.492 470.733 624.141 470.139 626.206 470.051C627.921 469.963 630.757 470.821 632.471 471.941C636.251 474.425 632.998 474.425 627.239 471.941ZM707.592 473.392C707.351 473.15 707.087 469.194 706.735 464.645C706.318 456.315 708.889 450.139 712.054 452.029C712.933 452.623 714.802 451.59 716.274 449.963C719.527 446.007 724.605 445.831 724.605 449.699C724.605 451.26 726.582 453.062 728.978 453.743C732.077 454.513 732.845 455.721 731.637 457.612C730.692 459.15 729.835 463.194 729.835 466.711C729.835 472.799 729.571 472.974 718.846 473.304C712.846 473.48 707.68 473.48 707.592 473.304V473.392ZM715.153 468.073C715.153 464.293 711.132 464.996 710.253 468.93C709.835 471.084 710.603 472.029 712.406 471.502C713.944 470.997 715.153 469.458 715.153 468.073ZM728.802 467.809C728.802 466.798 727.857 465.326 726.736 464.557C725.549 463.875 724.605 464.293 724.605 465.678C724.605 466.952 723.571 467.304 722.186 466.447C720.735 465.59 720.385 465.941 721.242 467.392C723.044 470.315 728.802 470.645 728.802 467.809ZM714.12 459.326C714.12 458.205 713.175 457.26 712.054 457.26C710.867 457.26 709.922 458.205 709.922 459.326C709.922 460.513 710.867 461.458 712.054 461.458C713.175 461.458 714.12 460.513 714.12 459.326ZM726.736 459.326C726.736 458.205 725.792 457.26 724.605 457.26C723.484 457.26 722.538 458.205 722.538 459.326C722.538 460.513 723.484 461.458 724.605 461.458C725.792 461.458 726.736 460.513 726.736 459.326ZM721.417 455.282C722.033 454.249 721.593 452.798 720.472 452.029C719.285 451.326 718.34 452.205 718.34 454.007C718.34 457.699 719.615 458.205 721.417 455.282ZM346.598 465.678C352.335 463.194 355.697 463.194 351.829 465.678C350.115 466.798 347.28 467.656 345.565 467.568C343.499 467.48 343.851 466.798 346.598 465.678ZM388.138 462.249C393.72 459.326 398.797 457.436 399.303 457.941C400.336 458.974 381.962 467.81 379.302 467.656C378.621 467.568 382.555 465.15 388.138 462.249ZM573.832 465.678C572.118 464.557 571.613 463.612 572.822 463.612C573.921 463.612 576.25 464.557 578.052 465.678C579.767 466.798 580.184 467.656 579.085 467.656C577.877 467.656 575.569 466.798 573.832 465.678ZM607.328 465.678C603.46 463.194 606.8 463.194 612.559 465.678C615.306 466.798 615.657 467.48 613.591 467.568C611.877 467.656 609.043 466.798 607.328 465.678ZM300.994 462.161C302.466 461.546 304.861 461.546 306.246 462.161C307.697 462.667 306.488 463.194 303.653 463.194C300.752 463.194 299.631 462.667 300.994 462.161ZM362.291 460.447C366.335 458.798 371.06 457.612 372.775 457.612C374.489 457.612 372.599 458.798 368.577 460.447C364.533 461.985 359.808 463.194 358.093 463.194C356.379 463.194 358.269 461.985 362.291 460.447ZM654.977 462.161C656.427 461.546 658.756 461.546 660.207 462.161C661.68 462.667 660.472 463.194 657.637 463.194C654.714 463.194 653.504 462.667 654.977 462.161ZM211.717 453.48C211.454 445.919 214.553 438.381 217.893 438.381C219.19 438.381 219.014 440.271 217.476 443.084C216.091 445.677 214.289 450.644 213.432 454.073C211.981 460.359 211.981 460.359 211.717 453.48ZM636.163 457.941C637.547 457.436 639.944 457.436 641.329 457.941C642.779 458.557 641.57 458.974 638.757 458.974C635.834 458.974 634.712 458.557 636.163 457.941ZM744.253 449.787C742.89 444.117 742.12 439.15 742.45 438.71C744.252 436.82 747.857 447.809 747.263 453.568C746.67 459.656 746.407 459.326 744.253 449.787ZM573.832 455.106C569.986 452.71 573.327 452.71 579.085 455.106C581.833 456.315 582.162 456.996 580.118 457.084C578.382 457.172 575.569 456.227 573.832 455.106ZM217.124 453.831C215.498 452.205 219.432 442.403 223.476 437.853C226.663 434.424 226.487 434.249 220.465 435.457C216.773 436.227 213.52 435.787 212.662 434.424C211.717 432.886 213.871 432.095 218.838 432.095C226.487 432.095 226.487 432.095 222.443 426.358C217.036 418.534 215.498 413.655 217.893 412.182C219.014 411.501 220.465 412.622 221.168 414.688C221.849 416.82 223.915 421.545 225.717 425.237C228.882 431.413 228.882 432.534 225.542 439.413C223.564 443.523 222.025 448.249 222.025 449.875C222.025 453.216 219.014 455.634 217.212 453.831H217.124ZM738.758 454.007C737.901 453.062 737.22 450.557 737.22 448.337C737.22 446.095 735.329 441.721 733.109 438.534C729.153 432.974 729.153 432.798 733.109 426.776C735.329 423.347 737.131 418.446 737.131 415.875C737.131 413.303 738.165 411.149 739.286 411.149C743.066 411.149 741.417 420.952 736.714 427.04C734.121 430.293 733.264 432.183 734.737 431.326C738.429 429.018 748.21 431.677 746.407 434.512C745.638 435.721 742.362 436.227 739.021 435.545C732.933 434.337 732.935 434.336 737.308 440.271C741.264 445.677 742.539 457.853 738.758 454.007ZM224.069 452.117C224.069 449.458 229.146 440.512 230.685 440.512C233.344 440.512 232.839 447.655 229.915 450.557C227.432 453.062 224.069 453.919 224.069 452.117ZM729.242 450.557C727.857 449.194 726.736 446.095 726.736 443.787C726.824 439.655 727 439.655 730.956 444.381C737.044 451.677 735.594 456.908 729.242 450.557ZM357.587 449.612C359.038 449.018 361.346 449.018 362.818 449.612C364.269 450.139 363.082 450.644 360.247 450.644C357.324 450.644 356.115 450.139 357.587 449.612ZM398.951 448.842C404.709 446.447 407.985 446.447 404.204 448.842C402.49 449.963 399.654 450.908 397.94 450.82C395.874 450.732 396.204 450.051 398.951 448.842ZM678.581 448.754C673.855 447.721 676.428 447.48 685.878 448.249C693.944 448.842 700.911 449.787 701.416 450.227C702.889 451.502 686.229 450.469 678.581 448.754ZM276.971 447.392C279.015 446.952 281.85 446.952 283.323 447.48C284.685 448.073 283.059 448.513 279.542 448.425C276.114 448.425 274.993 447.985 276.971 447.392ZM236.004 440.183C230.179 433.831 230.179 433.831 234.026 427.215C238.839 418.886 246.993 416.996 247.344 424.117C247.52 427.809 247.85 428.073 248.553 425.237C249.498 421.809 250.091 421.985 254.817 426.688C260.399 432.271 260.224 438.381 254.378 438.381C252.487 438.381 251.542 439.326 252.245 440.337C253.432 442.315 246.993 446.952 243.564 446.622C242.619 446.535 239.191 443.611 236.004 440.183ZM247.85 439.413C247.169 437.677 246.311 436.315 245.806 436.315C245.366 436.315 245.015 437.677 245.015 439.413C245.015 441.216 245.894 442.578 246.993 442.578C248.114 442.578 248.553 441.216 247.85 439.413ZM239.784 436.315C240.465 435.106 239.52 434.249 237.652 434.249C235.849 434.249 234.904 435.106 235.586 436.315C236.267 437.435 237.212 438.381 237.652 438.381C238.157 438.381 239.103 437.435 239.784 436.315ZM255.498 434.6C255.498 431.853 253.015 430.051 250.949 431.238C248.795 432.622 250.685 436.315 253.52 436.315C254.553 436.315 255.498 435.545 255.498 434.6ZM293.697 445.326C295.763 444.82 298.598 444.82 300.049 445.414C301.433 445.919 299.806 446.359 296.29 446.359C292.839 446.271 291.719 445.831 293.697 445.326ZM575.394 445.414C576.844 444.82 579.173 444.82 580.624 445.414C582.075 445.919 580.888 446.447 578.052 446.447C575.129 446.447 573.921 445.919 575.394 445.414ZM658.141 445.326C660.119 444.82 663.483 444.82 665.439 445.326C667.505 445.831 665.79 446.271 661.746 446.271C657.724 446.271 656.097 445.831 658.141 445.326ZM707.351 440.688C700.142 433.04 700.142 431.326 707.681 423.26C713.615 416.908 713.945 416.82 719.022 420.182C721.945 422.051 724.933 426.6 725.791 430.38C727.087 436.227 726.407 437.765 721.242 441.985C713.703 447.985 714.296 447.985 707.351 440.688ZM716.274 440.512C716.274 439.326 715.329 438.381 714.12 438.381C712.999 438.381 712.054 439.326 712.054 440.512C712.054 441.633 712.999 442.578 714.12 442.578C715.329 442.578 716.274 441.633 716.274 440.512ZM709.922 432.095C709.922 430.996 708.538 430.051 706.824 430.051C705.109 430.051 703.659 430.996 703.659 432.095C703.659 433.303 705.109 434.249 706.824 434.249C708.538 434.249 709.922 433.303 709.922 432.095ZM722.538 427.897C722.538 426.776 721.593 425.831 720.384 425.831C719.286 425.831 718.34 426.776 718.34 427.897C718.34 429.106 719.286 430.051 720.384 430.051C721.593 430.051 722.538 429.106 722.538 427.897ZM310.532 443.26C312.51 442.666 315.345 442.754 316.796 443.26C318.181 443.875 316.532 444.293 313.104 444.293C309.587 444.205 308.466 443.787 310.532 443.172V443.26ZM386.951 443.26C388.313 442.754 390.709 442.754 392.182 443.26C393.544 443.875 392.357 444.381 389.522 444.381C386.687 444.381 385.478 443.875 386.951 443.26ZM642.449 443.26C643.811 442.754 646.208 442.754 647.68 443.26C649.043 443.875 647.944 444.381 645.02 444.381C642.185 444.381 640.976 443.875 642.449 443.26ZM207.344 439.326C207.344 437.523 208.289 436.666 209.476 437.348C210.597 438.117 211.036 439.567 210.333 440.6C208.531 443.523 207.344 443.018 207.344 439.326ZM279.015 439.413C276.444 437.589 274.311 434.688 274.311 433.04C274.311 431.326 272.246 429.963 269.674 429.875C266.663 429.699 266.07 429.282 267.938 428.49C269.587 427.809 273.191 424.644 275.938 421.369C280.817 415.545 286.927 413.303 286.927 417.347C286.927 418.358 288.971 419.567 291.652 419.919C295.345 420.512 296.356 421.985 296.532 427.545C296.796 434.688 291.037 443.436 289.411 438.534C288.817 436.82 287.784 437.084 286.158 439.413C284.004 442.403 283.323 442.403 279.015 439.413ZM279.872 424.886C279.872 423.172 279.103 422.314 278.158 422.93C277.213 423.435 276.444 424.886 276.444 425.919C276.444 427.04 277.213 427.897 278.158 427.897C279.103 427.897 279.872 426.534 279.872 424.886ZM295.257 424.974C295.257 424.556 293.367 423.699 291.037 423.084C288.818 422.49 287.433 422.842 288.048 423.941C289.147 425.743 295.257 426.688 295.257 424.974ZM328.312 441.128C330.884 440.6 334.665 440.6 336.621 441.128C338.687 441.633 336.554 442.073 331.917 442.073C327.367 441.985 325.631 441.633 328.312 441.128ZM555.547 441.128C557.613 440.6 560.36 440.6 561.833 441.216C563.284 441.721 561.569 442.161 558.14 442.161C554.689 442.073 553.503 441.633 555.547 441.128ZM624.669 441.128C626.735 440.6 629.482 440.6 630.932 441.216C632.383 441.721 630.668 442.161 627.239 442.161C623.811 442.073 622.603 441.633 624.669 441.128ZM348.137 439.062C350.203 438.534 353.456 438.534 355.522 439.062C357.5 439.479 355.851 440.007 351.829 440.007C347.785 440.007 346.159 439.567 348.137 439.062ZM664.34 437.172C657.9 432.446 662.097 415.875 669.13 418.204C670.251 418.534 672.142 417.501 673.351 415.875C675.153 413.479 676.427 413.809 680.911 417.853C686.823 423.172 690.076 429.963 686.735 429.963C685.527 429.963 685.108 430.908 685.79 432.029C687.592 434.842 678.406 440.337 672.582 439.919C669.835 439.743 666.142 438.468 664.34 437.172ZM670.163 434.161C670.163 433.04 669.218 432.095 668.097 432.095C666.911 432.095 665.966 433.04 665.966 434.161C665.966 435.369 666.911 436.315 668.097 436.315C669.218 436.315 670.163 435.369 670.163 434.161ZM684.845 425.831C684.845 424.644 683.395 423.699 681.681 423.699C679.967 423.699 678.581 424.644 678.581 425.831C678.581 426.952 679.967 427.897 681.681 427.897C683.395 427.897 684.845 426.952 684.845 425.831ZM670.163 424.886C670.163 422.666 666.142 421.721 664.933 423.699C664.252 424.886 665.109 425.831 666.911 425.831C668.714 425.831 670.163 425.413 670.163 424.886ZM677.372 421.809C678.075 420.688 677.636 419.237 676.515 418.446C675.328 417.765 674.383 418.622 674.383 420.424C674.383 424.117 675.57 424.644 677.372 421.809ZM364.972 436.908C367.016 436.402 369.851 436.403 371.236 436.996C372.687 437.523 370.972 438.029 367.544 437.941C364.093 437.853 362.906 437.435 364.972 436.908ZM585.854 436.908C588.514 436.402 592.294 436.402 594.272 436.908C596.25 437.435 594.097 437.853 589.547 437.853C584.91 437.853 583.283 437.435 585.854 436.908ZM384.797 434.776C387.456 434.336 391.236 434.336 393.214 434.842C395.192 435.369 393.127 435.787 388.489 435.787C383.852 435.721 382.225 435.282 384.797 434.776ZM564.909 434.776C567.48 434.336 571.789 434.336 574.361 434.776C576.932 435.282 574.778 435.721 569.635 435.721C564.492 435.721 562.337 435.282 564.909 434.776ZM401.544 432.798C402.995 432.271 405.303 432.271 406.776 432.798C408.226 433.392 407.039 433.831 404.204 433.831C401.281 433.831 400.16 433.392 401.544 432.798ZM208.531 428.161C207.586 426.688 207.431 424.974 208.201 424.292C210.003 422.402 212.047 425.15 211.036 428.161C210.333 430.293 209.827 430.293 208.531 428.161ZM214.882 425.501C212.992 422.842 211.629 417.347 211.717 413.303C211.893 405.919 211.893 405.919 213.871 414.16C214.882 418.622 216.86 423.611 218.157 425.15C219.432 426.688 219.959 428.49 219.366 429.106C218.75 429.787 216.685 428.073 214.882 425.501ZM747.616 428.073C747.616 426.952 748.561 425.501 749.747 424.798C750.868 424.029 751.813 424.974 751.813 426.688C751.813 428.49 750.868 429.963 749.747 429.963C748.561 429.963 747.616 429.106 747.616 428.073ZM363.851 426.358C372.181 426.007 385.918 426.007 394.247 426.358C402.555 426.688 395.786 427.04 379.039 427.04C362.379 427.04 355.522 426.776 363.851 426.358ZM567.152 426.358C576.668 426.007 591.788 426.007 600.624 426.358C609.481 426.688 601.657 427.04 583.283 427.04C564.821 427.04 557.525 426.776 567.152 426.358ZM741.681 423.171C743.066 420.6 744.869 415.611 745.726 412.182C747.176 406.27 747.264 406.358 747.44 414.424C747.616 422.314 744.957 427.897 740.913 427.897C739.88 427.897 740.231 425.743 741.681 423.171ZM227.168 419.391C225.63 414.424 226.904 412.182 230.179 414.248C232.926 415.875 233.168 423.699 230.509 423.699C229.476 423.699 227.937 421.721 227.168 419.391ZM727.088 419.391C727.439 416.732 728.978 414.16 730.516 413.743C732.407 413.039 733.11 414.336 732.671 417.589C732.231 420.182 730.692 422.754 729.154 423.26C727.263 423.853 726.582 422.666 727.088 419.391ZM385.918 418.029C389.082 417.501 393.808 417.589 396.38 418.029C398.951 418.534 396.291 418.974 390.555 418.886C384.797 418.886 382.731 418.446 385.918 418.029ZM563.876 418.029C567.063 417.501 572.207 417.501 575.394 418.029C578.559 418.534 575.987 418.886 569.635 418.886C563.283 418.886 560.711 418.534 563.876 418.029ZM231.542 412.534C227.608 409.259 226.311 407.127 227.85 406.182C229.652 405.061 229.652 403.699 227.85 400.776C225.872 397.677 225.959 396.05 228.113 393.479C231.212 389.874 238.751 389.017 238.751 392.27C238.751 393.633 240.223 393.479 242.619 392.006C244.773 390.644 248.114 390.116 250.004 390.885C253.96 392.446 254.641 400.688 250.773 400.688C248.883 400.776 248.883 401.193 250.949 402.578C255.235 405.237 252.927 412.094 247.608 412.864C245.014 413.215 242.883 414.424 242.883 415.545C242.883 418.886 237.894 417.589 231.542 412.534ZM249.234 406.951C249.234 405.831 248.289 404.885 247.081 404.885C245.96 404.885 245.015 405.831 245.015 406.951C245.015 408.072 245.96 409.017 247.081 409.017C248.289 409.017 249.234 408.072 249.234 406.951ZM235.498 396.314C234.817 395.193 233.344 394.841 232.223 395.523C231.212 396.226 230.861 397.677 231.542 398.71C232.157 399.83 233.608 400.16 234.729 399.479C235.849 398.885 236.179 397.413 235.498 396.314ZM249.234 396.468C249.234 395.369 248.289 394.424 247.256 394.424C246.136 394.424 244.685 395.369 244.003 396.468C243.212 397.677 244.158 398.622 245.96 398.622C247.696 398.622 249.234 397.677 249.234 396.468ZM357.587 415.963C360.159 415.457 364.445 415.457 367.017 415.963C369.588 416.49 367.456 416.82 362.291 416.82C357.148 416.82 354.994 416.402 357.587 415.963ZM591.107 415.963C594.272 415.457 598.998 415.545 601.569 415.963C604.141 416.49 601.569 416.82 595.811 416.82C590.074 416.82 587.921 416.402 591.107 415.963ZM715.153 415.281C714.472 414.16 714.384 412.446 714.977 411.413C715.593 410.468 713.791 410.05 710.955 410.644C706.824 411.413 705.791 410.732 705.791 407.369C705.791 404.973 706.911 402.578 708.384 402.05C710.516 401.193 710.516 400.951 708.384 400.776C704.516 400.6 705.198 392.358 709.154 390.819C711.044 390.116 714.385 390.556 716.539 391.918C719.198 393.633 720.384 393.633 720.384 392.094C720.384 390.885 722.538 390.204 725.109 390.556C729.241 391.149 729.923 392.534 730.186 401.105C730.428 409.259 729.659 411.501 725.549 414.16C719.791 417.941 716.955 418.204 715.153 415.281ZM720.824 408.578C718.846 406.6 718.34 407.215 718.34 411.149C718.34 415.018 718.934 415.611 720.824 413.655C722.803 411.677 722.803 410.556 720.824 408.578ZM714.12 397.413C714.12 395.611 713.175 394.666 711.988 395.457C710.867 396.138 710.428 397.589 711.131 398.71C712.933 401.633 714.12 401.017 714.12 397.413ZM727.615 394.072C725.967 391.413 722.538 393.984 722.538 397.852C722.538 400.512 723.044 400.688 725.638 398.534C727.352 397.171 728.208 395.105 727.615 394.072ZM337.741 413.809C339.719 413.303 342.555 413.391 344.005 413.897C345.39 414.512 343.764 414.93 340.313 414.842C336.796 414.842 335.675 414.424 337.741 413.809ZM614.184 413.809C616.25 413.303 619.086 413.391 620.47 413.897C621.921 414.512 620.207 414.93 616.779 414.842C613.328 414.842 612.14 414.424 614.184 413.809ZM315.675 411.765C318.335 411.237 322.115 411.237 324.093 411.765C326.071 412.27 324.005 412.71 319.367 412.71C314.73 412.71 313.104 412.27 315.675 411.765ZM399.478 411.853C400.929 411.325 403.258 411.325 404.709 411.853C406.181 412.446 404.973 412.864 402.05 412.864C399.215 412.864 398.006 412.446 399.478 411.853ZM554.448 411.853C555.899 411.325 558.206 411.325 559.679 411.853C561.129 412.446 559.942 412.864 557.107 412.864C554.184 412.864 552.976 412.446 554.448 411.853ZM636.163 411.765C638.756 411.237 642.955 411.237 645.526 411.765C648.098 412.182 646.053 412.622 640.8 412.622C635.657 412.622 633.503 412.182 636.163 411.765ZM292.664 409.611C295.257 409.105 299.038 409.105 301.082 409.699C303.06 410.204 300.906 410.644 296.356 410.556C291.719 410.556 290.092 410.116 292.664 409.611ZM381.104 409.017C376.973 407.721 376.819 407.303 380.072 407.303C382.379 407.303 386.687 408.072 389.522 409.017C393.632 410.292 393.896 410.732 390.555 410.732C388.225 410.732 384.028 409.963 381.104 409.017ZM569.635 409.017C572.558 408.072 576.756 407.303 579.085 407.303C582.338 407.303 582.162 407.721 578.052 409.017C575.129 409.963 570.932 410.732 568.602 410.732C565.261 410.732 565.525 410.292 569.635 409.017ZM661.328 409.611C663.9 409.105 667.681 409.105 669.659 409.699C671.637 410.204 669.57 410.644 664.933 410.556C660.295 410.556 658.669 410.116 661.328 409.611ZM275.938 407.545C278.509 407.039 282.29 407.039 284.268 407.545C286.312 408.072 284.18 408.49 279.542 408.49C274.993 408.49 273.367 408.072 275.938 407.545ZM681.152 407.545C684.339 407.039 689.483 407.039 692.67 407.545C695.835 407.984 693.263 408.402 686.911 408.402C680.56 408.402 677.988 407.984 681.152 407.545ZM365.984 405.567C367.368 404.974 369.764 404.974 371.236 405.567C372.599 406.094 371.39 406.6 368.577 406.6C365.741 406.6 364.533 406.094 365.984 405.567ZM401.017 404.798C398.358 403.699 398.006 402.995 399.984 402.995C401.698 402.995 405.06 403.853 407.28 404.798C409.94 406.006 410.38 406.6 408.402 406.6C406.599 406.6 403.347 405.831 401.017 404.798ZM587.92 405.567C589.371 404.974 591.789 404.974 593.152 405.567C594.624 406.094 593.415 406.6 590.58 406.6C587.657 406.6 586.557 406.094 587.92 405.567ZM353.368 403.435C354.84 402.908 357.148 402.908 358.599 403.435C360.071 404.028 358.863 404.468 356.027 404.468C353.104 404.468 351.917 404.028 353.368 403.435ZM560.184 402.754C562.514 401.721 565.767 400.951 567.569 400.951C569.547 400.951 569.129 401.633 566.448 402.754C564.228 403.699 560.888 404.556 559.151 404.556C557.195 404.556 557.525 403.852 560.184 402.754ZM600.536 403.435C602.009 402.908 604.317 402.908 605.79 403.435C607.24 404.028 606.031 404.468 603.108 404.468C600.295 404.468 599.086 404.028 600.536 403.435ZM342.906 401.369C344.357 400.776 346.664 400.776 348.137 401.369C349.588 401.875 348.401 402.402 345.565 402.402C342.642 402.402 341.521 401.875 342.906 401.369ZM611.02 401.369C612.471 400.776 614.8 400.776 616.25 401.369C617.635 401.875 616.515 402.402 613.591 402.402C610.756 402.402 609.547 401.875 611.02 401.369ZM330.357 399.215C331.829 398.71 334.137 398.71 335.609 399.215C337.06 399.831 335.851 400.336 332.928 400.336C330.115 400.336 328.906 399.831 330.357 399.215ZM406.247 398.534C404.533 397.413 404.116 396.556 405.237 396.556C406.336 396.556 408.753 397.413 410.467 398.534C412.182 399.655 412.687 400.6 411.5 400.6C410.38 400.6 407.984 399.655 406.247 398.534ZM623.548 399.215C625.02 398.71 627.328 398.71 628.778 399.215C630.251 399.831 629.042 400.336 626.206 400.336C623.283 400.336 622.097 399.831 623.548 399.215ZM309.411 395.105C310.884 394.512 313.192 394.512 314.642 395.105C316.115 395.611 314.906 396.138 311.983 396.138C309.148 396.138 307.961 395.611 309.411 395.105ZM644.493 395.105C645.966 394.512 648.274 394.512 649.746 395.105C651.197 395.611 649.987 396.138 647.152 396.138C644.251 396.138 643.043 395.611 644.493 395.105ZM291.037 392.27C286.927 390.973 286.752 390.644 290.004 390.644C292.334 390.644 296.62 391.325 299.455 392.27C303.587 393.567 303.829 393.984 300.488 393.984C298.158 393.984 293.961 393.215 291.037 392.27ZM389.522 392.27C387.808 391.149 387.28 390.204 388.489 390.204C389.61 390.204 392.006 391.149 393.72 392.27C395.434 393.391 395.874 394.336 394.753 394.336C393.632 394.336 391.236 393.391 389.522 392.27ZM565.437 392.27C567.152 391.149 569.547 390.204 570.668 390.204C571.877 390.204 571.349 391.149 569.635 392.27C567.921 393.391 565.525 394.336 564.404 394.336C563.284 394.336 563.701 393.391 565.437 392.27ZM380.577 377.501C364.797 369.522 351.829 362.489 351.829 361.874C351.829 360.929 410.292 389.523 412.358 391.501C415.698 394.578 405.479 390.028 380.577 377.501ZM552.887 388.072C556.931 385.918 561.13 384.116 562.339 384.116C563.46 384.116 561.129 385.918 557.107 388.072C553.063 390.292 548.777 392.094 547.656 392.094C546.448 392.094 548.865 390.292 552.887 388.072ZM667.504 390.885C668.977 390.292 671.372 390.292 672.735 390.885C674.207 391.413 672.998 391.918 670.163 391.918C667.24 391.918 666.142 391.413 667.504 390.885ZM376.973 387.039C374.072 385.391 372.687 384.028 373.808 384.028C375.016 384.028 378.269 385.391 381.104 387.039C384.028 388.666 385.391 390.028 384.27 390.028C383.171 390.028 379.808 388.666 376.973 387.039ZM610.493 388.072C612.822 387.127 616.075 386.27 617.789 386.27C619.767 386.27 619.438 386.951 616.779 388.072C614.449 389.083 611.196 389.874 609.394 389.874C607.416 389.874 607.833 389.171 610.493 388.072ZM680.119 388.841C681.592 388.226 683.9 388.226 685.373 388.841C686.823 389.347 685.615 389.874 682.714 389.874C679.879 389.874 678.669 389.347 680.119 388.841ZM263.322 386.688C264.773 386.182 267.081 386.182 268.553 386.688C270.004 387.281 268.817 387.72 265.982 387.72C263.059 387.72 261.938 387.281 263.322 386.688ZM334.049 386.006C331.39 384.885 330.972 384.204 332.928 384.204C334.752 384.204 338.005 384.973 340.313 386.006C342.994 387.127 343.324 387.808 341.346 387.808C339.632 387.808 336.291 386.951 334.049 386.006ZM580.118 386.006C581.833 384.885 584.141 383.94 585.35 383.94C586.471 383.94 586.031 384.885 584.317 386.006C582.603 387.127 580.184 388.072 579.085 388.072C577.877 388.072 578.382 387.127 580.118 386.006ZM692.67 386.688C694.121 386.182 696.45 386.182 697.9 386.688C699.351 387.281 698.164 387.72 695.329 387.72C692.406 387.72 691.198 387.281 692.67 386.688ZM406.776 381.545C399.655 376.995 397.324 373.896 403.676 377.413C408.489 379.984 415.962 385.83 414.665 385.918C414.072 385.918 410.556 383.94 406.776 381.545ZM547.656 382.402C548.777 381.281 553.502 378.27 558.14 375.698C562.777 373.127 564.58 372.533 562.339 374.401C557.613 378.358 544.404 385.479 547.656 382.402ZM565.437 382.907C565.437 382.314 572.03 378.533 580.118 374.401C588.184 370.379 594.8 367.544 594.8 368.138C594.8 368.665 588.184 372.446 580.118 376.556C572.03 380.6 565.437 383.435 565.437 382.907ZM590.58 381.786C592.295 380.687 594.712 379.742 595.811 379.742C596.931 379.742 596.515 380.687 594.8 381.786C593.064 382.907 590.668 383.764 589.547 383.764C588.36 383.764 588.866 382.907 590.58 381.786ZM607.328 375.522C609.043 374.402 611.438 373.478 612.559 373.478C613.679 373.478 613.24 374.336 611.526 375.522C609.811 376.643 607.416 377.501 606.295 377.501C605.087 377.501 605.614 376.643 607.328 375.522ZM654.449 375.522C656.779 374.489 660.031 373.72 661.746 373.72C663.724 373.72 663.395 374.336 660.735 375.522C658.406 376.467 655.152 377.325 653.438 377.325C651.46 377.325 651.79 376.643 654.449 375.522ZM391.324 371.149C386.335 366.863 386.335 366.863 392.182 370.379C395.258 372.27 397.94 374.248 397.94 374.665C397.94 376.292 396.116 375.347 391.324 371.149ZM407.104 370.797C403.17 366.094 403.171 366.094 408.402 370.204C411.237 372.533 413.984 374.665 414.489 374.929C415.017 375.281 414.424 375.522 413.215 375.522C412.094 375.522 409.346 373.391 407.104 370.797ZM546.799 372.863C547.217 372.533 549.546 370.885 551.854 369.171C555.722 366.335 555.81 366.335 553.151 369.786C551.525 371.83 549.283 373.478 548.096 373.478C546.888 373.478 546.294 373.215 546.799 372.863ZM379.984 363.852C376.028 360.753 376.116 360.665 380.577 362.907C383.259 364.204 385.303 365.654 385.303 366.16C385.303 367.808 384.269 367.281 379.984 363.852ZM391.566 358.621L382.225 350.028L392.182 357.764C400.841 364.621 403.434 367.105 401.544 367.105C401.28 367.105 396.819 363.259 391.566 358.621ZM557.7 365.742C558.557 364.357 563.196 360.16 568.009 356.291C572.822 352.423 576.162 350.467 575.305 351.83C574.448 353.127 569.811 357.412 564.997 361.193C560.096 365.061 556.843 367.105 557.7 365.742ZM573.832 366.248C573.832 365.654 575.723 364.204 578.052 362.907C580.272 361.698 582.163 361.193 582.163 361.698C582.163 362.313 580.272 363.764 578.052 365.061C575.723 366.248 573.832 366.775 573.832 366.248ZM634.537 365.061C636.251 363.94 638.668 362.995 639.767 362.995C640.976 362.995 640.471 363.94 638.757 365.061C637.021 366.16 634.625 367.039 633.504 367.039C632.383 367.039 632.823 366.16 634.537 365.061ZM406.182 357.149L398.951 349.346L406.776 356.555C411.15 360.511 414.665 364.028 414.665 364.358C414.665 366.006 412.863 364.533 406.182 357.149ZM562.777 346.159C572.206 336.467 580.184 328.994 580.535 329.522C580.975 330.027 573.152 338.005 563.372 347.192L545.502 363.852L562.777 346.159ZM303.653 358.709C301.939 357.588 301.433 356.731 302.642 356.731C303.741 356.731 306.158 357.588 307.873 358.709C309.587 359.808 310.026 360.753 308.906 360.753C307.697 360.753 305.389 359.808 303.653 358.709ZM293.191 354.577C291.477 353.456 290.949 352.511 292.158 352.511C293.279 352.511 295.675 353.456 297.389 354.577C299.103 355.698 299.543 356.555 298.422 356.555C297.213 356.555 294.905 355.698 293.191 354.577ZM333.873 353.368C330.115 350.291 330.115 350.291 335.082 352.599C341.434 355.698 342.642 356.643 339.983 356.643C338.862 356.643 336.115 355.171 333.873 353.368ZM360.753 352.181C353.544 347.632 351.302 344.533 357.587 348.049C362.379 350.709 369.939 356.467 368.577 356.555C368.049 356.555 364.445 354.577 360.753 352.181ZM594.625 352.863C597.46 350.555 602.602 347.105 606.118 345.126C612.558 341.61 612.559 341.61 607.504 345.83C604.669 348.05 599.504 351.5 595.899 353.456C589.547 356.995 589.548 356.995 594.625 352.863ZM661.746 354.929C663.482 353.808 667.24 352.357 670.163 351.566C673.768 350.621 674.472 350.709 672.23 352.093C670.516 353.214 666.735 354.665 663.9 355.434C660.208 356.467 659.614 356.291 661.746 354.929ZM282.708 350.379C280.993 349.258 280.488 348.313 281.675 348.313C282.796 348.313 285.213 349.258 286.927 350.379C288.641 351.5 289.059 352.423 287.96 352.423C286.751 352.423 284.422 351.5 282.708 350.379ZM369.588 341.786C353.72 328.906 351.148 325.302 366.072 336.819C377.676 345.742 382.907 350.555 380.753 350.291C380.335 350.203 375.346 346.423 369.588 341.786ZM360.159 313.192L323.587 276.026L359.302 310.62C389.852 340.071 399.654 350.379 397.325 350.379C397.061 350.379 380.335 333.632 360.159 313.192ZM578.645 348.907C580.448 346.071 596.843 332.775 596.843 334.225C596.843 334.753 592.47 338.862 586.976 343.258C581.569 347.72 577.876 350.291 578.645 348.907ZM680.648 347.192C683.483 345.566 686.823 344.181 687.944 344.181C689.153 344.181 687.681 345.566 684.845 347.192C681.922 348.819 678.67 350.203 677.461 350.203C676.34 350.203 677.725 348.819 680.648 347.192ZM272.246 346.159C270.531 345.06 270.004 344.115 271.213 344.115C272.334 344.115 274.729 345.06 276.444 346.159C278.158 347.28 278.598 348.225 277.477 348.225C276.268 348.225 273.96 347.28 272.246 346.159ZM399.984 335.698C393.984 328.818 389.61 323.148 390.116 323.148C390.709 323.148 396.116 328.818 402.05 335.698C408.05 342.643 412.533 348.225 411.918 348.225C411.324 348.225 406.006 342.643 399.984 335.698ZM550.755 342.995C553.502 340.159 556.162 337.83 556.755 337.83C557.283 337.83 555.546 340.159 552.887 342.995C550.139 345.918 547.481 348.225 546.888 348.225C546.36 348.225 548.096 345.918 550.755 342.995ZM616.779 338.775C619.087 336.885 622.867 334.489 625.086 333.368C629.306 331.324 629.306 331.324 625.086 334.665C622.867 336.555 619.087 339.038 616.779 340.159C612.559 342.225 612.559 342.225 616.779 338.775ZM335.082 335.522C331.565 332.687 331.214 332.005 334.049 333.368C340.84 336.884 344.621 339.808 342.379 339.808C341.258 339.808 337.917 337.83 335.082 335.522ZM561.217 330.445C563.964 327.632 566.624 325.214 567.239 325.214C567.744 325.214 566.031 327.632 563.372 330.445C560.624 333.368 557.964 335.698 557.348 335.698C556.843 335.698 558.558 333.368 561.217 330.445ZM598.998 332.775C598.998 331.236 634.624 303.675 635.481 304.532C635.833 305.038 627.767 311.741 617.547 319.631C607.327 327.456 598.998 333.368 598.998 332.775ZM403.347 319.456C399.039 312.862 397.764 310.027 400.511 313.104C405.742 319.39 413.302 331.478 411.918 331.478C411.412 331.478 407.545 326.071 403.347 319.456Z" fill="#DBA651"/>
</svg>
