<svg width="958" height="954" viewBox="0 0 958 954" fill="none" xmlns="http://www.w3.org/2000/svg">
<path fill-rule="evenodd" clip-rule="evenodd" d="M455.934 947.849C451.466 941.647 451.466 941.647 444.483 946.604C437.524 951.56 437.524 951.56 432.861 945.651C428.173 939.743 428.173 939.743 422.069 944.601C415.867 949.46 415.867 949.46 411.008 943.356C406.149 937.252 406.149 937.252 399.752 941.452C393.477 945.554 393.379 945.554 388.984 939.45C384.492 933.346 384.394 933.346 377.533 937.35C372.967 939.914 370.281 940.5 369.72 938.766C369.232 937.447 367.523 934.493 365.911 932.296C363.128 928.487 362.566 928.487 355.705 932.003C348.917 935.543 348.356 935.543 347.013 931.71C343.961 923.042 341.666 921.894 334.805 925.434C326.405 929.805 326.698 929.903 323.842 921.894C321.449 915.033 321.351 915.033 314.685 918.452C305.92 923.042 306.189 923.139 303.429 915.033C300.939 907.879 299.987 907.684 287.974 912.274C286.558 912.738 284.629 910.077 283.774 906.072C282.163 898.625 279.404 898.064 268.709 902.532C265.755 903.777 264.51 902.434 263.362 897.014C261.848 890.129 261.36 889.933 253.254 891.276C245.05 892.717 244.586 892.424 243.243 885.563C241.9 878.702 241.339 878.409 233.989 879.752C226.738 881.168 226.176 880.777 224.638 874.111C223.221 867.446 222.562 867.055 215.579 868.202C207.668 869.448 205.373 867.25 205.373 858.094C205.373 854.285 204.323 853.797 197.755 855.042C190.406 856.458 190.015 856.19 188.599 848.45C187.159 840.832 186.792 840.539 179.248 841.784C171.434 843.029 171.337 842.931 171.337 834.728C171.337 826.426 171.337 826.328 163.426 827.867C155.491 829.283 155.417 829.283 155.417 821.177C155.417 813.266 155.124 812.973 147.482 812.973C139.962 812.973 139.571 812.606 139.571 804.964C139.571 797.419 139.18 797.053 131.562 797.053C124.018 797.053 123.652 796.663 123.652 789.045C123.652 781.793 123.066 781.109 116.766 781.109C110.394 781.109 110.003 780.646 110.003 772.051C110.003 763.188 109.808 762.992 102.19 762.992C94.645 762.992 94.4495 762.724 95.5971 755.374C96.7447 748.22 96.3784 747.634 89.493 746.218C82.5344 744.875 82.2414 744.314 83.3889 736.867C84.6342 729.42 84.3412 728.956 76.9186 727.515C72.6213 726.758 69.081 726.001 69.081 725.806C69.081 725.611 70.0332 722.168 71.1807 718.164C73.1829 711.303 72.9143 710.839 65.6627 708.446C58.704 706.151 58.1181 705.394 60.1202 700.242C63.3676 691.745 62.8792 690.793 55.4566 689.084C48.0096 687.472 47.619 686.496 50.9641 677.828C52.9662 672.285 52.5999 671.529 45.2506 668.477C37.242 665.229 37.2419 665.131 40.6602 658.466C44.1029 651.873 44.0053 651.702 37.1443 648.162C31.9925 645.501 30.5519 643.498 31.6995 640.715C35.7038 631.095 35.3375 629.557 28.3544 626.7C21.3958 623.843 21.3958 623.843 25.986 616.298C30.5519 608.974 30.5518 608.778 26.1813 607.436C17.9773 604.774 15.8777 600.086 20.1506 593.518C22.2504 590.271 23.6909 587.414 23.3002 587.121C22.8363 586.828 19.6866 584.826 16.1462 582.726C9.87122 578.722 9.87112 578.722 14.6323 572.618C19.4912 566.514 19.4913 566.514 14.7301 562.705C12.0443 560.605 8.72354 558.407 7.18531 557.846C5.28083 557.186 6.13556 554.891 9.94452 550.789C15.5847 544.685 15.5846 544.685 8.82124 539.241C2.03348 533.893 2.03347 533.893 7.47833 528.18C12.8255 522.369 12.8256 522.369 6.72146 517.119C0.617367 511.87 0.617467 511.87 5.18333 505.961C9.87128 500.052 9.87124 500.052 4.23106 494.803C-1.38471 489.553 -1.38477 489.553 4.32867 483.547C10.1398 477.54 -1.38477 466.748 4.32867 460.84C10.1398 454.833 10.1397 454.833 4.42628 449.486C-1.28715 444.065 -1.28714 444.066 3.37639 439.109C6.81911 435.373 7.3807 433.566 5.37856 432.321C3.37641 431.1 4.03575 429.562 7.57613 426.901C12.5327 423.067 12.5327 423.067 7.57613 416.695C3.37651 411.445 3.08344 409.907 5.67158 408.393C15.5846 402.387 15.8776 401.996 12.9232 397.796C7.67365 390.447 7.08764 387.59 10.2374 385.588C20.1504 379.679 20.1505 379.777 15.78 373.111C11.678 366.91 11.7757 366.812 17.8798 361.856C23.9839 357.07 23.9839 356.704 20.5412 350.014C17.0985 343.25 17.0984 343.153 23.7885 340.394C31.6017 337.146 31.5041 337.512 27.1335 329.138C23.8862 322.838 23.9839 322.545 30.7472 320.25C37.8036 317.784 37.999 316.831 33.3354 304.623C32.7494 302.914 35.2398 300.717 39.3417 299.276C47.5456 296.42 47.448 296.712 43.053 288.216C39.708 281.721 39.708 281.623 47.448 279.157C55.1636 276.569 55.1635 276.569 51.9162 268.853C48.6688 261.138 48.6688 261.138 56.8728 259.6C63.4652 258.354 64.7104 257.207 63.6605 253.788C62.8792 251.493 61.6584 247.489 60.8771 244.998C59.8272 241.482 60.6084 240.433 64.1244 240.433C73.2805 240.433 75.8687 238.235 73.5735 232.131C70.3261 223.561 70.8146 222.584 79.1162 221.07C86.4411 219.63 86.6363 219.361 85.0249 211.914C83.2913 204.467 83.4866 204.199 91.129 202.758C98.7469 201.318 98.9422 200.951 97.5993 193.602C96.1831 186.057 96.2808 185.96 104.387 185.96C112.396 185.96 112.493 185.887 110.955 177.951C109.539 170.04 109.539 170.04 117.914 170.04C126.313 170.04 126.411 169.943 125.458 162.032C124.604 154.389 124.799 154.121 132.026 154.121C139.107 154.121 139.571 153.632 139.571 146.21C139.571 138.568 139.864 138.177 147.482 138.177C155.124 138.177 155.491 137.908 155.491 129.973C155.491 121.964 155.588 121.867 163.328 122.746C171.532 123.698 173.632 121.696 173.632 112.808C173.632 108.902 174.755 108.34 181.543 109.097C189.258 110.049 189.551 109.756 189.551 102.334C189.551 94.6914 189.552 94.6911 198.415 96.1317C207.302 97.6455 207.376 97.5481 208.157 90.1255C208.816 82.8739 209.206 82.5806 217.215 83.2398C224.833 83.9235 225.614 83.5329 226.274 77.6241C226.933 71.7154 227.69 71.2272 235.332 71.8132C242.95 72.4725 243.829 71.9107 245.245 65.416C246.491 59.4095 247.54 58.5549 251.642 59.7757C261.262 62.7545 262.996 62.0711 264.9 54.8195C266.805 47.5678 266.805 47.5677 274.716 50.9128C279.111 52.7196 282.627 53.2078 282.627 52.0602C282.627 50.9127 283.677 47.299 284.922 44.0516C287.119 38.2405 287.315 38.143 294.176 41.7566C298.082 43.7587 301.525 45.1017 301.818 44.7111C302.087 44.2471 303.625 40.6091 305.236 36.6048C308.093 29.4508 308.288 29.3531 314.588 32.6005C322.987 36.9954 322.499 37.0932 325.844 29.0846C328.7 22.1992 328.7 22.199 336.05 26.594C343.399 30.8913 343.399 30.8913 347.11 23.0781C350.919 15.2404 350.919 15.2404 357.609 20.0261C364.275 24.7873 364.275 24.7873 367.815 17.9263C372.015 9.72236 372.284 9.72215 379.828 15.6309C385.737 20.1968 385.737 20.1969 390.034 13.3359C394.429 6.47487 394.43 6.47481 401.486 11.4313C405.49 14.2881 408.811 15.4355 409.299 13.9949C409.69 12.6764 411.496 9.72221 413.206 7.32941C416.258 3.12979 416.551 3.22762 423.216 8.08649C430.004 13.1407 430.004 13.1404 434.57 6.9386C439.063 0.761252 439.062 0.761296 445.166 6.47473C451.173 12.0905 451.173 12.0906 456.691 5.32727C462.331 -1.53374 462.331 -1.53361 466.799 3.9845C471.194 9.23402 471.487 9.23404 474.539 5.03442C477.592 1.03014 477.958 0.932435 481.791 4.76581C485.6 8.4771 486.064 8.37948 491.143 3.61829C495.709 -0.678999 496.856 -0.971952 498.565 1.88477C504.865 12.2861 504.767 12.2858 510.407 6.9386C515.73 1.98207 521.175 0.273241 521.272 3.61829C521.272 4.57053 522.786 7.32961 524.715 9.72241C527.938 13.9953 528.134 13.995 533.871 8.57452C539.78 3.032 539.78 3.03225 545.2 9.82001C550.548 16.4857 550.548 16.4857 556.261 11.0409C559.508 8.08651 562.365 6.08436 562.756 6.67035C563.244 7.13426 565.247 10.4792 567.444 13.9219C571.448 20.1969 571.448 20.1968 578.016 15.5333C584.609 10.8697 584.609 10.87 588.613 17.145C590.713 20.6854 592.813 23.835 593.081 24.299C593.374 24.7873 596.622 22.9804 600.333 20.3923C607.023 15.6311 607.023 15.6311 609.782 22.3944C613.029 30.0367 615.691 30.6959 622.942 25.6417C627.899 22.1258 628.192 22.2967 631.537 30.2321C634.858 38.2406 634.955 38.3382 641.548 34.8954C650.118 30.4028 649.654 30.3054 652.974 38.2407C656.222 46.1516 655.856 46.0539 664.23 41.659C670.725 38.3384 670.823 38.3384 673.484 46.347C676.17 54.5509 676.83 54.7216 688.745 50.1557C690.478 49.5941 692.651 52.0601 694.189 56.3574C696.655 63.6091 697.999 63.9756 708.107 59.8737C711.257 58.5552 712.306 59.7026 713.454 65.3184C715.261 74.1815 716.506 74.9628 725.101 72.4724C731.766 70.5679 732.157 70.861 733.476 78.2836C734.916 85.7306 735.478 86.1212 743.315 85.4376C750.933 84.876 751.788 85.3399 752.838 91.5417C753.888 97.3772 755.035 98.2317 761.994 98.3294C769.343 98.4271 770.002 99.0863 770.686 105.947C771.345 113.101 771.736 113.297 779.158 111.856C786.508 110.538 786.996 110.806 786.996 116.349C786.996 121.207 788.046 122.355 792.71 122.355C797.471 122.355 798.35 123.307 798.35 129.411C798.35 136.077 798.716 136.37 806.358 135.515C814.172 134.563 814.269 134.661 814.269 143.231C814.269 151.532 814.562 151.826 822.18 151.826C829.822 151.826 830.189 152.216 830.189 159.834C830.189 167.379 830.482 167.745 838.197 167.745C846.132 167.745 846.206 167.843 844.887 175.387C843.447 182.834 843.74 183.103 851.748 184.641C859.855 186.155 860.148 186.448 858.707 193.895C857.389 201.318 857.56 201.611 865.397 203.149C873.113 204.565 873.406 204.956 872.063 212.208C870.72 219.264 871.111 219.825 878.265 221.828C882.367 222.975 885.712 224.782 885.419 225.929C885.223 227.077 884.369 230.788 883.514 234.231C882.073 239.676 882.562 240.433 887.323 240.433C896.186 240.53 899.238 243.582 896.088 249.394C892.67 255.888 894.477 260.357 901.07 261.309C906.295 261.993 907.54 266.949 904.195 274.567C903.169 277.155 904.976 278.864 910.787 280.964C918.698 283.821 918.698 283.918 915.378 290.413C910.983 298.885 910.787 298.519 918.893 301.864C923.948 303.94 925.388 305.673 924.338 308.335C920.334 317.979 920.603 319.884 926.609 322.545C932.542 325.304 932.908 327.038 929.099 336.292C927.854 339.051 929.393 341.053 934.545 343.714C941.699 347.45 941.699 347.45 936.913 354.018C932.249 360.61 932.249 360.61 938.549 364.614C942.064 366.812 945.214 368.814 945.702 369.083C946.166 369.473 944.36 372.428 941.699 375.87C936.815 381.974 936.815 381.975 943.798 386.174C949.609 389.69 950.366 391.131 948.364 394.842C947.021 397.235 944.848 399.896 943.31 400.849C941.601 401.898 942.846 404.193 947.217 407.709C953.809 412.861 953.809 412.861 948.95 419.551C944.067 426.119 944.067 426.119 950.171 430.71C956.275 435.373 956.275 435.373 951.123 440.623C946.069 445.872 946.069 445.872 952.075 452.172C958.179 458.471 958.18 458.471 952.857 464.184C947.51 469.898 947.51 469.898 952.954 475.734C958.473 481.545 958.473 481.545 952.857 485.842C947.217 490.042 947.217 490.041 952.271 496.902C956.959 503.202 957.056 503.959 953.516 505.961C950.269 507.768 950.073 508.622 952.661 511.675C955.225 514.824 954.859 516.069 949.609 520.171C943.505 524.932 943.505 524.933 948.169 529.889C954.078 536.286 954.077 537.238 946.923 543.245C941.112 548.299 941.112 548.299 945.898 554.403C950.659 560.41 950.659 560.409 943.871 564.414C937.108 568.442 937.108 568.443 941.699 575.865C946.264 583.215 946.264 583.214 939.208 586.828C932.249 590.466 932.249 590.466 936.253 597.522C938.915 602.186 939.501 604.872 937.767 605.433C936.449 605.922 933.494 607.631 931.297 609.242C927.586 612.026 927.586 612.685 930.906 619.18C934.447 626.139 934.447 626.138 927.586 628.995C920.7 631.852 920.334 633.292 924.436 643.108C925.657 646.258 924.436 647.698 918.991 649.603C910.787 652.46 910.885 652.166 915.28 660.663C918.698 667.231 918.601 667.231 910.69 670.112C904.879 672.212 903.072 674.019 904.195 676.485C908.297 686.496 907.93 688.034 900.874 690.525C893.134 693.186 892.475 694.895 896.284 702.049C899.141 707.494 896.015 710.644 887.226 710.644C883.319 710.741 882.269 711.693 883.319 714.355C888.08 726.758 887.616 728.565 879.778 729.224C872.453 730.006 872.161 730.372 872.918 738.38C873.601 746.023 873.113 746.78 867.204 747.464C861.295 748.123 860.807 748.879 861.295 756.693C861.759 765.092 861.662 765.19 853.653 765.19C845.547 765.19 845.449 765.288 846.694 773.198C848.037 780.938 847.842 781.109 840.199 781.109C832.777 781.109 832.386 781.5 832.386 789.045C832.386 796.663 831.995 797.053 824.378 797.053C816.369 797.053 816.271 797.151 817.785 804.964C819.226 812.875 819.226 812.875 811.217 812.875C803.77 812.875 803.111 813.559 802.452 820.322C801.768 826.817 800.913 827.672 794.907 827.672C786.996 827.672 784.799 829.942 784.701 838.048C784.701 843.298 783.944 843.786 776.692 842.932C769.05 841.98 768.782 842.248 768.782 849.304C768.782 856.556 768.684 856.654 759.796 855.506C751.128 854.285 750.835 854.456 750.176 861.439C749.517 868.203 749.029 868.569 741.118 867.91C733.475 867.348 732.718 867.812 732.059 873.647C731.278 879.361 730.521 879.922 722.903 879.458C715.358 879.068 714.406 879.654 713.063 885.758C711.549 892.717 707.912 894.035 700.684 890.128C697.046 888.224 695.996 889.079 693.799 896.037C691.699 902.141 690.185 903.777 687.329 902.532C677.586 898.528 676.17 898.918 673.68 906.17C671.678 911.786 670.237 913.031 667.185 911.786C657.076 907.586 655.758 907.977 653.268 915.033C650.802 922.187 650.802 922.187 643.648 918.452C636.201 914.643 632.563 916.278 632.489 923.506C632.489 928.194 628.656 928.853 621.99 925.434C615.788 922.187 615.398 922.285 612.346 928.291C610.636 931.71 608.927 934.762 608.537 935.25C608.146 935.641 605.094 934.102 601.676 931.905C595.572 927.901 595.474 927.901 590.42 934.298C585.365 940.597 585.268 940.597 579.164 936.593C573.817 933.052 572.669 932.955 570.96 935.714C565.051 945.456 565.149 945.456 557.604 940.963C551.305 937.252 550.157 937.154 548.35 940.109C542.051 950.608 542.149 950.51 535.874 944.601C529.843 938.961 529.843 938.961 524.422 945.749C519.075 952.512 519.075 952.512 513.069 946.897C507.16 941.256 507.16 941.256 501.324 948.02C495.611 954.71 495.611 954.71 491.314 949.363C487.31 944.504 486.748 944.308 482.939 947.751C479.203 951.072 478.544 951.072 475.101 947.653C471.488 944.015 470.901 944.113 465.847 948.899C460.427 954.026 460.427 954.026 455.837 947.849H455.934ZM557.507 915.326C672.728 893.864 773.445 830.919 842.201 737.429C884.173 680.392 910.69 615.835 922.434 542.488C927.586 510.161 927.586 445.579 922.507 410.859C899.824 254.839 793.564 120.817 646.114 62.071C434.668 -22.2388 191.944 64.5615 83.1203 263.238C13.9731 389.495 11.7756 548.03 77.2848 676.778C144.235 808.407 273.202 899.089 422.459 919.501C450.123 923.335 527.767 920.942 557.507 915.326ZM439.429 910.638C282.725 896.623 142.623 797.151 78.2371 654.169C51.3547 594.568 40.758 543.245 40.8556 473.341C40.9533 421.749 44.7622 394.94 58.8749 348.5C114.398 165.377 284.727 40.5111 479.203 40.5111C681.786 40.5111 858.707 179.782 905.342 375.87C924.436 456.371 918.796 549.349 890.082 626.041C827.82 792.853 671.677 905.291 493.902 911.395C475.785 912.079 451.271 911.688 439.429 910.638ZM530.624 902.825C709.352 880.704 856.143 751.077 898.481 578.063C928.807 453.881 902.119 322.179 825.891 220.021C808.727 197.045 769.441 156.782 747.222 139.422C632.391 49.6675 485.112 23.0779 345.963 66.9297C248.883 97.4502 162.84 164.693 108.489 252.543C6.81911 416.963 32.2855 639.299 168.382 775.396C266.146 873.159 397.384 919.331 530.624 902.825ZM262.239 814.12C262.239 794.001 262.703 790.558 265.657 791.706C268.246 792.658 269.002 797.248 269.002 812.118V831.187L284.824 823.179C300.768 815.17 305.334 813.73 305.334 816.879C305.334 819.37 270.418 837.975 265.95 837.975C262.703 837.975 262.239 834.63 262.239 814.12ZM674.534 827.574C653.854 815.732 650.313 812.973 655.953 812.973C658.127 812.973 667.014 816.513 675.779 820.884L691.601 828.892V810.971C691.601 797.615 692.48 792.268 695.044 790.192C698.194 787.604 698.487 789.997 697.901 811.825C697.535 825.669 696.289 836.73 694.946 837.194C693.701 837.585 684.545 833.287 674.534 827.574ZM251.349 831.675C249.054 830.919 248.786 825.669 249.933 808.211C250.788 795.808 250.69 785.699 249.835 785.699C248.883 785.699 238.384 788.361 226.567 791.608C211.209 795.71 204.25 796.76 202.517 795.051C199.367 791.803 198.414 792.268 225.419 785.407C247.15 779.889 249.152 779.693 253.254 783.111C257.454 786.554 257.649 788.556 256.037 809.725C254.694 826.89 253.547 832.432 251.349 831.675ZM646.114 859.901C646.114 856.751 664.524 847.034 670.53 847.034C676.268 847.034 671.287 851.136 657.76 857.337C649.849 861.049 646.114 861.805 646.114 859.901ZM424.071 857.899C416.258 856.654 409.86 854.651 409.86 853.308C409.86 851.892 413.303 851.502 419.017 852.454C423.997 853.235 435.717 854.554 445.069 855.335C454.42 856.092 461.477 857.606 460.793 858.753C459.28 861.146 442.774 860.755 424.071 857.899ZM499.811 858.753C499.151 857.606 506.11 856.19 515.266 855.335C524.422 854.554 533.676 853.235 535.947 852.356C538.828 851.306 539.683 851.795 538.926 854.09C537.192 859.34 502.765 863.441 499.811 858.753ZM353.215 849.89C348.82 834.142 349.406 833.873 367.523 841.1C373.92 843.688 373.919 843.689 364.763 851.038L355.607 858.46L353.215 849.89ZM304.187 848.084C294.273 843.786 285.874 840.246 285.508 840.246C285.215 840.246 284.922 839.294 284.922 838.244C284.922 837.096 292.076 832.433 300.866 827.867C312.488 821.763 317.078 820.322 317.835 822.519C319.08 825.767 323.28 854.651 322.596 855.408C322.401 855.701 314.124 852.356 304.187 848.084ZM606.339 846.252C597.281 838.341 597.281 838.341 603.678 835.875C607.121 834.532 612.443 832.823 615.398 832.042C620.647 830.724 620.843 830.992 618.938 838.244C617.79 842.443 616.643 847.791 616.179 850.086C615.593 853.602 614.177 853.137 606.437 846.252H606.339ZM648.409 845.398C648.506 837.78 651.363 835.778 657.37 839.025C662.912 841.979 662.912 841.979 655.66 845.691C648.799 849.231 648.409 849.231 648.409 845.398ZM273.568 816.318C273.568 814.022 275.106 812.875 277.572 813.363C282.358 814.315 282.065 818.32 277.109 819.37C275.106 819.736 273.568 818.515 273.568 816.318ZM680.174 817.367C677.22 815.463 677.318 814.877 680.272 812.973C685.033 809.823 687.035 810.116 687.035 813.925C687.035 818.418 684.081 819.931 680.174 817.367ZM704.859 800.203C704.395 790.754 704.688 782.55 705.543 782.086C707.35 781.036 737.309 791.047 737.773 792.951C738.261 794.367 708.864 817.465 706.691 817.465C706.105 817.465 705.25 809.725 704.859 800.203ZM234.477 806.502C229.79 803.157 225.981 799.812 225.883 799.153C225.883 797.517 242.291 792.268 243.536 793.513C244 793.904 244 798.372 243.634 803.45C242.95 812.606 242.95 812.606 234.477 806.502ZM280.918 808.114C269.002 800.471 271.664 796.003 283.774 803.353C289.415 806.771 293.98 810.311 293.98 811.263C293.98 814.315 288.56 812.973 280.918 808.114ZM666.623 808.968C666.623 807.357 683.227 797.053 685.79 797.053C689.599 797.053 686.083 802.303 679.686 806.209C672.068 810.775 666.623 811.923 666.623 808.968ZM733.573 783.991C712.966 777.398 712.697 777.3 715.554 774.541C716.897 773.296 723.367 774.15 731.375 776.641C738.822 778.936 749.322 781.988 754.644 783.307C764.582 785.895 765.9 790.461 756.744 789.997C753.985 789.899 743.584 787.14 733.573 783.991ZM191.554 785.504C189.844 784.454 188.99 783.307 189.551 782.745C192.115 780.645 235.894 770.049 237.627 771.099C241.9 773.784 238.775 775.884 224.174 779.791C198.61 786.749 194.703 787.409 191.554 785.504ZM750.469 775.689C740.923 772.832 731.278 769.878 729.007 768.901C725.467 767.582 727.762 764.335 743.974 748.123C754.474 737.526 763.801 728.858 764.777 728.858C769.905 728.858 764.948 736.476 751.69 749.27C743.486 757.181 737.578 764.335 738.627 765.287C739.58 766.142 747.881 768.73 756.94 771.001C765.998 773.394 773.152 776.25 772.688 777.496C771.443 781.305 768.293 781.036 750.469 775.689ZM181.543 776.055C180.298 772.93 190.113 732.106 192.799 729.42C193.165 729.054 201.662 736.964 211.575 747.073C221.513 757.181 228.667 766.044 227.519 766.728C226.371 767.485 218.924 761.576 210.916 753.739C203.005 745.828 196.046 739.821 195.558 740.383C195.094 740.969 192.896 748.513 190.601 757.279C185.352 777.691 183.545 781.402 181.543 776.055ZM191.846 773.491C191.846 773.101 192.896 769.292 194.215 764.995C195.655 760.795 197.169 755.838 197.755 754.032C198.512 751.736 201.369 753.372 207.864 759.672L216.922 768.535L209.475 771.294C202.321 773.882 191.846 775.2 191.846 773.491ZM758.942 765.947L747.881 762.529L757.696 752.518L767.634 742.409L770.491 753.274C773.738 765.849 774.006 769.878 771.638 769.585C770.784 769.389 764.948 767.778 758.942 765.947ZM779.354 766.044C777.254 758.89 771.052 731.056 771.052 728.468C771.052 726.172 787.851 727.052 806.822 730.372C821.423 732.96 811.681 736.208 794.321 734.572C780.306 733.253 777.449 733.522 778.499 736.11C782.113 745.632 784.994 765.947 782.894 767.949C781.356 769.487 780.208 768.828 779.354 766.044ZM172.484 764.53C170.848 760.624 178.784 726.27 182.788 719.604C186.597 713.598 188.013 720.068 185.352 730.665C178.393 757.67 174.194 768.73 172.484 764.53ZM788.412 751.37C786.313 740.774 786.508 740.31 792.514 740.31C804.259 740.31 805.577 742.312 799.204 750.687C791.855 760.233 790.244 760.331 788.412 751.37ZM161.131 753.568C160.471 751.834 161.985 744.314 164.476 736.964C167.039 729.615 169.042 722.754 169.042 721.704C169.042 720.654 160.935 719.8 151.022 719.8C129.267 719.8 125.165 716.455 144.528 714.452C158.372 713.012 178.198 712.45 178.1 713.598C178.002 716.064 164.94 754.227 163.792 755.374C163.035 756.131 161.79 755.374 161.131 753.568ZM456.887 893.376C457.839 890.714 460.036 890.128 464.993 891.081C468.729 891.862 475.785 892.424 480.546 892.424C485.405 892.424 489.409 893.474 489.409 894.719C489.409 896.037 482.255 897.014 472.44 897.014C457.839 897.014 455.641 896.526 456.887 893.376ZM486.357 880.02L473.953 862.953L461.086 878.873C442.579 901.775 438.379 899.089 455.837 875.552C463.674 864.955 471.585 856.287 473.49 856.287C475.394 856.287 483.012 864.662 490.557 874.868C506.672 897.014 506.672 897.014 502.203 897.014C500.372 897.014 493.218 889.372 486.357 880.02ZM421.8 879.361C416.355 867.446 415.599 863.905 418.065 863.344C421.703 862.465 450.783 866.664 452.321 868.3C453.932 869.814 434.106 894.719 431.225 894.719C429.809 894.719 425.609 887.858 421.8 879.361ZM500.665 878.213C494 869.155 487.602 860.462 486.455 858.949C484.941 856.947 485.307 856.092 487.7 856.092C490.654 856.092 518.88 889.86 518.88 893.376C518.88 898.821 510.774 892.131 500.665 878.213ZM528.036 893.962C528.036 889.079 549.303 849.304 551.793 849.304C554.357 849.304 553.209 853.504 547.105 866.86C537.876 887.272 533.383 894.719 530.233 894.719C528.988 894.719 528.036 894.328 528.036 893.962ZM408.64 879.923C405.588 872.964 403.097 866.567 403.097 865.517C403.097 864.564 401.657 861.903 399.948 859.51C396.993 855.409 395.943 855.994 381.83 868.398C373.065 876.016 365.325 881.168 362.957 880.704C358.073 879.752 392.696 849.304 398.702 849.304C401.095 849.304 403.952 852.649 406.052 857.801C407.956 862.465 412.156 872.207 415.305 879.361C420.164 890.128 420.555 892.424 417.698 892.424C415.598 892.424 411.863 887.272 408.64 879.923ZM543.882 890.714C543.882 885.758 563.342 847.034 565.906 847.034C567.517 847.034 568.86 847.498 568.86 848.181C568.86 852.088 548.35 892.424 546.348 892.424C545.03 892.424 543.882 891.667 543.882 890.714ZM388.325 887.467C372.87 883.756 372.113 883.365 375.531 881.265C379.169 879.068 402.243 883.927 405.954 887.662C409.104 890.812 401.486 890.714 388.325 887.467ZM557.507 886.979C557.507 884.415 585.463 876.504 594.424 876.504C600.723 876.602 599.088 880.411 592.227 881.827C588.808 882.51 579.555 884.61 571.717 886.417C560.852 888.981 557.507 889.079 557.507 886.979ZM515.071 877.92L508.014 868.007L516.316 866.566C534.897 863.514 535.19 863.71 529.843 876.602C527.279 882.804 524.422 887.931 523.665 887.931C522.786 887.931 518.88 883.463 515.071 877.92ZM467.19 880.704C471.854 873.55 474.637 873.354 478.935 879.825C482.646 885.66 482.646 885.66 473.294 885.66C464.041 885.66 463.943 885.563 467.19 880.704ZM392.794 877.163C385.176 875.357 384.394 872.866 390.498 868.862C396.138 865.151 396.334 865.151 398.531 870.962C401.852 879.752 402.145 879.458 392.794 877.163ZM346.158 873.72C346.06 872.109 344.156 862.196 341.861 851.599C339.493 840.929 338.15 831.773 338.711 831.09C341.299 828.526 345.67 838.927 348.356 853.894C351.017 868.495 351.603 869.716 355.021 866.86C376.776 848.547 382.978 844.153 384.785 846.081C386.03 847.302 380.292 853.699 370.086 862.392C353.971 876.016 346.353 879.654 346.158 873.72ZM564.465 873.916C564.465 872.207 566.296 867.617 568.469 863.612C572.4 856.288 572.4 856.287 579.725 862.001C590.615 870.595 589.932 871.816 571.717 875.454C566.394 876.504 564.392 876.114 564.465 873.916ZM597.281 870.498C579.359 854.945 570.96 846.545 572.107 845.3C574.305 843.127 582.875 848.938 598.428 863.051C609.391 873.061 612.077 876.504 608.634 876.504C606.144 876.407 601.017 873.721 597.281 870.498ZM335.488 872.402C332.802 870.766 322.987 826.524 324.794 824.619C326.698 822.617 330.141 827.378 331.459 833.971C332.338 838.048 334.512 847.693 336.441 855.506C340.152 870.962 339.859 875.161 335.488 872.402ZM601.871 857.996C593.081 850.256 586.122 843.395 586.318 842.736C587.563 838.927 592.129 841.296 603.873 851.502C611.027 857.801 617.791 862.465 618.743 861.805C619.793 861.244 621.892 853.797 623.504 845.3C626.19 830.724 628.851 824.326 632.392 824.326C635.712 824.326 624.651 870.864 621.135 871.45C619.329 871.719 610.637 865.712 601.871 857.996ZM295.226 855.335C281.504 848.743 271.395 842.736 272.714 841.882C274.057 841.027 284.263 844.836 295.421 850.183C306.481 855.604 317.933 860.756 320.692 861.61C326.137 863.344 327.748 867.543 322.987 867.446C321.449 867.348 308.972 861.903 295.226 855.335ZM633.71 859.242C634.662 854.359 636.591 843.786 638.007 835.68C639.912 824.814 641.548 820.786 644.502 820.224C650.215 819.077 688.842 841.979 684.277 843.688C682.177 844.543 673.484 841.198 663.571 835.778L646.504 826.328L644.014 839.586C639.912 861.048 638.3 865.907 635.053 867.055C632.562 867.812 632.294 866.298 633.71 859.242ZM65.8579 400.946C66.5171 399.335 77.4801 394.744 90.2743 390.74C116.864 382.536 117.157 382.438 115.448 386.833C114.202 390.081 76.235 403.998 68.6171 403.998C66.322 403.998 65.1742 402.753 65.8579 400.946ZM887.518 394.378C883.612 389.593 880.267 374.723 882.757 373.111C885.712 371.28 885.882 371.573 889.032 384.441C891.913 396.087 891.425 399.139 887.518 394.378ZM69.081 387.395C69.081 385.588 77.3824 381.779 89.5906 378.068C100.847 374.528 110.003 370.914 110.003 370.132C110.003 369.278 104.485 360.976 97.7947 351.747C87.2224 337.048 84.0725 328.942 89.2244 329.138C92.1788 329.235 119.452 372.818 117.547 374.528C115.643 376.334 74.4282 390.374 70.9855 390.374C69.96 390.374 69.081 389.031 69.081 387.395ZM843.837 386.833C843.837 381.022 873.87 342.2 875.872 345.35C877.874 348.695 877.972 348.499 860.807 371.768C847.085 390.447 843.837 393.328 843.837 386.833ZM873.308 386.931C873.308 385.124 874.358 383.586 875.603 383.586C876.824 383.586 877.874 385.124 877.874 386.931C877.874 388.835 876.824 390.374 875.603 390.374C874.358 390.374 873.308 388.835 873.308 386.931ZM71.962 376.237C72.6212 374.625 75.478 365.957 78.3347 356.874C83.0227 342.298 87.2956 335.705 87.2956 342.957C87.2956 350.404 77.6755 376.432 74.5258 377.677C72.133 378.532 71.2783 378.068 71.962 376.237ZM840.102 373.184C838.783 369.375 829.725 346.669 826.38 338.66C825.623 337.146 826.673 335.901 828.675 335.901C833.338 335.901 847.354 371.768 844.033 375.187C842.397 376.823 841.152 376.163 840.102 373.184ZM87.2956 366.128C88.6385 362.613 90.1767 358.413 90.7383 356.704C91.4952 354.702 93.595 355.751 97.3307 360.122C103.606 367.374 102.947 368.814 92.3498 371.012C85.0249 372.525 85.0249 372.526 87.2956 366.128ZM844.399 352.406L839.443 339.807L850.991 341.15C857.388 341.907 863.102 343.055 863.664 343.616C865.007 344.862 856.339 359.267 852.237 362.71C850.039 364.517 848.233 362.026 844.399 352.406ZM105.803 341.248C96.4517 327.233 92.1788 318.736 93.595 317.296C96.0854 314.83 123.652 353.652 123.652 359.658C123.652 366.421 120.013 362.808 105.803 341.248ZM123.652 345.912C123.652 340.101 139.01 308.628 141.866 308.628C143.282 308.628 144.161 309.385 143.673 310.337C143.282 311.191 139.473 320.445 135.079 330.749C127.754 348.5 123.652 353.823 123.652 345.912ZM111.443 327.892C107.805 322.179 105.339 317.124 105.706 316.734C106.853 315.684 129.072 311.02 129.756 311.68C130.024 311.973 127.558 318.077 124.115 325.231L117.914 338.294L111.443 327.892ZM842.885 333.508C823.816 329.504 816.271 326.281 819.323 323.229C819.983 322.545 824.573 322.936 829.334 324.181C834.193 325.402 845.449 327.599 854.41 329.04C864.445 330.651 871.208 332.946 871.965 334.851C873.601 339.051 868.62 338.855 842.885 333.508ZM837.245 319.786C825.525 317.491 815.417 315.025 814.733 314.439C813.024 312.73 828.87 280.671 833.241 277.057C838.881 272.394 837.928 277.155 829.725 293.758C825.72 301.864 823.035 309.018 823.718 309.677C824.378 310.337 833.924 312.729 844.985 314.829C856.045 317.027 865.495 320.079 865.959 321.69C867.106 325.231 863.761 325.035 837.245 319.786ZM855.655 310.337C852.237 305.966 841.542 284.113 841.542 281.257C841.542 275.91 846.499 282.404 854.141 297.372C861.197 311.387 861.955 318.077 855.655 310.337ZM96.94 308.042C97.8923 305.283 133.565 297.762 147.384 297.372C161.228 297.079 148.727 302.621 126.508 306.625C99.6014 311.484 95.6948 311.68 96.94 308.042ZM833.241 306.821C831.336 305.673 831.727 303.085 834.681 297.372L838.686 289.559L843.545 299.081C848.403 308.628 848.403 308.628 842.128 308.53C838.686 308.53 834.681 307.773 833.241 306.821ZM806.822 303.476C805.406 299.276 812.365 285.823 815.978 285.823C817.785 285.823 818.835 286.677 818.469 287.556C817.98 288.509 816.174 293.074 814.367 297.836C810.924 306.625 808.556 308.432 806.822 303.476ZM103.24 296.029C103.24 294.613 111.053 279.523 114.202 274.86C115.814 272.394 119.257 273.615 130.708 280.964C146.432 290.975 146.432 291.073 124.897 294.881C110.003 297.47 103.24 297.836 103.24 296.029ZM200.514 231.374C196.901 222.78 196.119 222.316 186.89 222.218L177.05 222.12L184.497 215.919C192.042 209.717 192.042 209.717 188.501 201.22C184.4 191.404 184.497 191.307 194.996 197.118C201.857 201.049 203.2 201.147 205.666 198.168C207.205 196.263 210.427 193.7 212.82 192.357C216.922 190.159 217.118 190.648 215.677 199.145C214.359 207.519 214.725 208.472 221.219 212.305C230.473 217.823 229.985 220.021 219.315 220.021C210.818 220.021 210.427 220.314 207.961 230.227C206.521 235.842 205.105 240.433 204.812 240.433C204.519 240.433 202.614 236.331 200.514 231.374ZM749.126 229.665C747.222 221.632 746.465 221.07 736.918 220.021L726.81 218.873L734.427 213.428C741.411 208.472 741.972 207.251 740.63 199.218C739.018 189.012 739.482 188.841 748.37 195.311C754.84 200.17 754.84 200.17 763.239 195.214C770.784 190.843 771.443 190.745 770.1 194.359C765.534 206.201 766.096 210.108 773.347 216.212C780.501 222.316 780.502 222.316 770.198 222.316C760.48 222.316 759.625 222.78 756.475 230.227C752.276 240.237 751.592 240.14 749.126 229.665ZM661.764 187.009C654.415 183.005 652.975 176.633 652.804 145.331L652.706 121.208L647.164 133.416C644.111 140.106 638.495 151.069 634.662 157.832C627.606 169.943 627.606 169.942 621.135 166.597C614.543 163.179 614.543 163.179 620.843 150.117C633.441 123.967 648.506 95.0818 649.459 95.0818C650.02 95.0818 654.025 96.6935 658.224 98.6957C665.476 102.138 666.062 103.384 667.38 116.056C668.235 123.6 668.918 136.565 668.918 144.769L669.016 159.834L679.393 137.81C689.794 115.86 689.794 115.86 697.437 119.498C705.055 123.112 705.055 123.112 687.792 156.782C678.343 175.29 669.968 190.452 669.114 190.355C668.333 190.355 665.012 188.841 661.764 187.009ZM286.362 184.641C283.872 178.146 284.824 175.754 291.783 171.847C295.518 169.65 298.57 166.329 298.57 164.425C298.57 162.422 292.93 149.628 286.069 136.004C273.568 111.099 273.568 111.099 280.258 107.583C283.969 105.654 287.51 104.14 288.072 104.14C290.562 104.14 314.197 151.264 315.442 158.687C317.176 168.624 313.343 176.242 303.332 183.005C294.371 189.012 288.267 189.598 286.362 184.641ZM349.601 132.171C352.458 75.8176 351.871 78.1858 363.713 75.4268C374.115 73.034 374.115 73.0341 390.425 98.2318C418.748 141.913 417.698 139.715 411.301 141.327C408.249 142.108 404.245 143.329 402.34 144.11C399.947 144.965 396.993 142.474 393.184 136.37C387.446 127.409 387.446 127.409 377.069 129.802C366.766 132.171 366.765 132.171 366.765 142.963C366.765 154.39 367.425 153.73 352.36 157.93C348.453 158.98 348.258 157.442 349.601 132.171ZM375.165 116.349C380.219 115.006 380.219 115.006 375.824 106.704C367.425 90.8825 366.765 90.6871 366.765 104.702C366.668 118.253 366.863 118.546 375.165 116.349ZM580.677 150.019C572.864 149.262 568.958 143.524 568.958 132.756C568.958 128.557 567.151 127.214 558.557 125.212C548.253 122.917 548.253 122.916 543.199 131.706C538.633 139.813 537.68 140.374 530.331 139.056C525.936 138.275 521.932 137.225 521.468 136.859C520.686 136.175 556.457 72.9605 559.509 69.6155C561.902 67.0273 582.509 72.4723 582.509 75.622C582.509 77.2335 584.12 93.6414 586.025 112.051C588.027 130.461 589.272 146.772 588.881 148.115C588.515 149.531 584.975 150.385 580.677 150.019ZM568.958 104.336C568.958 88.685 566.663 86.7804 560.656 97.3771C554.259 108.706 554.088 110.342 559.24 111.661C568.006 113.956 568.86 113.297 568.86 104.336H568.958ZM442.969 100.429C441.626 71.8132 441.822 64.4637 444.312 62.8278C446.021 61.7046 455.739 61.1186 466.043 61.4116C483.012 62.0709 485.307 62.6569 491.045 68.3704C496.099 73.4246 497.32 76.7696 497.32 84.7781C497.32 97.9386 490.264 105.386 474.051 109.195C462.136 112.051 462.136 112.051 462.136 123.967C462.136 135.906 462.136 135.906 453.371 135.906C444.581 135.906 444.581 135.906 442.969 100.429ZM475.297 93.7391C480.741 89.9301 481.889 81.6286 477.592 77.3313C476.053 75.8175 471.487 74.5721 467.385 74.5721C460.036 74.5721 459.841 74.8652 459.841 84.4853C459.841 98.2317 464.7 101.186 475.297 93.7391ZM145.87 735.914C139.669 727.222 139.669 727.222 149.02 725.708C154.172 724.854 158.836 724.756 159.495 725.416C161.131 727.051 155.686 744.778 153.684 744.778C152.731 744.68 149.215 740.773 145.87 735.914ZM794.419 722.754C790.317 722.168 786.996 721.411 786.996 720.947C786.996 720.361 790.903 714.453 795.664 707.592L804.356 695.188L811.608 709.789L818.737 724.366L810.265 723.999C805.577 723.804 798.423 723.218 794.419 722.754ZM772.884 720.85C772.102 720.068 777.059 712.157 783.846 703.197C790.61 694.236 796.054 686.129 796.054 685.177C796.054 684.225 797.105 683.444 798.35 683.444C803.013 683.444 800.352 690.036 789.194 705.858C778.304 721.313 775.74 723.707 772.884 720.85ZM819.787 714.746C818.835 711.962 814.66 702.049 810.362 692.795C804.722 680.587 803.111 674.678 804.527 671.529C806.065 667.915 808.263 671.162 816.076 689.084C825.428 710.741 827.723 719.8 823.523 719.8C822.375 719.8 820.666 717.505 819.787 714.746ZM123.847 705.296C120.306 701.097 141.183 654.657 144.918 658.368C146.53 660.004 144.332 667.06 137.96 681.075C132.905 692.233 128.974 701.683 129.463 702.147C129.853 702.537 139.18 702.244 150.265 701.39C164.085 700.242 171.239 700.633 173.437 702.44C176 704.539 174.096 705.394 164.378 706.541C142.33 709.203 126.704 708.739 123.847 705.296ZM821.423 686.423C816.271 674.117 811.974 663.056 811.974 661.615C811.974 660.175 820.837 657.977 832.972 656.366C844.594 654.852 855.85 653.118 857.95 652.459C860.514 651.8 861.954 652.557 861.954 654.755C861.954 659.027 858.243 660.077 837.538 662.079C827.82 662.958 821.033 664.667 821.033 666.181C821.033 667.524 824.28 676.583 828.284 686.325C833.241 698.24 834.779 704.735 833.241 706.249C831.727 707.86 827.893 701.39 821.423 686.423ZM139.571 695.286C139.571 692.331 149.484 669.819 150.729 669.917C152.365 669.917 167.43 692.795 166.38 693.577C164.647 695.09 139.571 696.628 139.571 695.286ZM836.977 693.65C836.977 689.084 850.503 665.327 853.091 665.327C856.338 665.327 855.655 667.427 847.085 682.687C838.783 697.581 836.977 699.485 836.977 693.65ZM114.593 688.596C114.593 686.423 117.645 678.487 121.356 670.967C125.068 663.52 128.217 656.659 128.217 655.804C128.217 655.023 120.795 653.118 111.712 651.605C96.1832 649.016 89.5906 646.355 89.5906 642.644C89.5906 640.91 134.419 648.064 136.421 650.067C138.057 651.703 118.866 692.527 116.498 692.527C115.448 692.527 114.593 690.793 114.593 688.596ZM830.482 676.68C828.382 670.381 828.577 669.722 833.827 668.477C841.543 666.474 842.494 668.184 838.197 676.388C833.729 685.08 833.436 685.08 830.482 676.68ZM102.482 667.622C95.4017 654.461 95.2309 653.607 99.6014 655.316C102.385 656.366 112.298 674.019 112.298 677.73C112.298 682.028 107.708 677.266 102.482 667.622ZM112.396 663.227C109.148 657.123 109.539 656.561 116.4 658.27C121.063 659.516 121.259 660.004 118.402 664.008C115.252 668.281 115.057 668.281 112.396 663.227ZM816.662 648.357C818.567 646.453 828.944 643.962 840.981 642.351C852.505 640.91 861.954 639.006 861.954 638.151C861.954 637.297 857.852 631.095 852.896 624.332C846.133 615.346 844.497 611.733 846.694 610.488C850.796 608.192 880.658 601.429 881.707 602.479C884.173 604.969 874.651 610.39 865.495 611.733C859.855 612.587 855.191 614.028 855.191 614.882C855.191 615.737 858.243 621.084 861.954 626.7C873.113 643.401 872.649 643.865 843.154 648.357C815.221 652.655 812.267 652.655 816.662 648.357ZM107.903 638.249C90.9335 635.197 86.1723 633.488 84.8294 629.947C81.5821 621.743 82.7296 618.399 93.9856 603.92L105.242 589.318L88.9314 584.728C79.8729 582.164 72.7191 579.308 73.0121 578.258C73.2807 577.306 81.1914 569.297 90.5429 560.41C103.239 548.592 107.708 545.54 107.708 548.69C107.708 551.082 102.654 558.041 96.4518 564.145C90.2744 570.152 85.684 575.865 86.1724 576.72C86.7339 577.599 93.3265 579.601 100.847 581.212C108.391 582.824 114.593 585.119 114.593 586.266C114.593 587.512 107.903 596.766 99.7968 606.874C91.6906 617.08 85.7818 626.041 86.734 626.895C87.6862 627.75 98.5514 630.143 110.955 632.242C134.712 636.149 137.276 637.004 137.276 640.447C137.276 643.108 134.224 642.912 107.903 638.249ZM827.43 624.6C833.534 610.585 833.534 610.585 838.881 616.885C846.694 626.334 851.358 633.488 850.308 634.538C849.844 635.002 843.081 636.149 835.341 637.004L821.228 638.64L827.43 624.6ZM124.799 626.7C120.404 619.546 114.764 598.279 116.693 596.375C118.207 594.861 119.257 595.227 119.916 597.327C120.502 599.134 122.968 606.483 125.654 613.832C128.315 621.084 130.415 627.457 130.415 628.043C130.415 629.85 126.118 628.898 124.799 626.7ZM867.668 624.405C863.956 620.327 863.761 619.278 866.618 617.446C874.358 612.587 877.312 615.835 873.674 625.088C872.16 628.995 871.77 628.995 867.668 624.405ZM102.653 625.088C94.7426 623.843 94.8403 622.696 102.947 612.978C109.637 605.067 109.637 605.067 111.712 610.78C118.304 627.945 118.597 627.457 102.556 625.088H102.653ZM74.8188 601.82C72.719 595.52 71.3761 589.416 71.7668 588.366C72.6213 586.071 94.1809 591.882 93.9856 594.373C93.9856 595.227 90.4454 599.915 86.2457 604.676L78.6277 613.246L74.8188 601.82ZM836.586 600.965C838.026 599.329 845.742 596.668 853.946 595.032C862.15 593.421 868.816 591.418 868.816 590.564C868.816 589.709 863.663 583.971 857.462 577.867C847.549 568.15 843.251 560.8 847.256 560.8C849.551 560.8 877.874 591.321 877.874 593.884C877.874 596.179 847.549 603.92 838.393 603.92C835.145 603.92 834.779 603.236 836.586 600.965ZM839.345 589.807C839.443 588.171 840.688 584.069 842.201 580.553C844.887 574.156 844.887 574.156 851.553 581.017C858.512 588.269 858.414 588.464 845.449 591.321C841.249 592.273 839.247 591.809 839.345 589.807ZM865.666 569.566C856.143 559.457 848.306 550.496 848.306 549.642C848.306 547.933 890.473 526.739 893.818 526.739C895.038 526.739 896.015 527.984 896.015 529.523C896.015 531.134 887.323 536.384 876.726 541.243C866.154 546.102 857.462 550.692 857.462 551.546C857.462 552.303 862.907 558.407 869.67 565.097C883.416 578.624 882.562 579.112 886.859 555.258C889.228 541.731 890.473 538.581 892.768 540.779C894.379 542.488 886.371 588.073 884.466 588.073C883.612 588.073 875.212 579.772 865.666 569.566ZM103.801 576.451C94.6448 573.765 94.5472 572.056 103.044 565.757C109.148 561.289 109.807 561.191 110.857 564.804C111.443 567.002 112.591 571.006 113.446 573.863C114.959 579.406 114.593 579.601 103.801 576.451ZM66.2243 569.199C65.5651 567.466 71.5714 560.312 80.7275 551.937C89.2977 544.197 96.3784 537.043 96.3784 536.091C96.3784 535.139 92.0812 532.282 86.734 529.621C77.1872 524.737 77.1873 524.737 83.8774 524.566C90.6407 524.469 105.437 531.818 105.437 535.236C105.437 537.043 78.1395 564.243 71.0831 569.468C68.1287 571.665 67.1766 571.665 66.2243 569.199ZM872.551 558.896C866.447 552.596 866.447 552.596 874.455 548.787C882.464 544.978 882.464 544.978 881.024 554.598C880.169 559.848 879.315 564.414 879.119 564.707C878.924 565 875.97 562.412 872.551 558.896ZM63.7581 552.303C60.3154 535.236 59.6562 524.469 61.927 524.469C64.7104 524.469 66.0289 528.57 68.0311 544.099C69.5693 556.405 65.9312 563.462 63.7581 552.303ZM72.9143 540.974C71.1807 530.573 71.8643 529.987 80.4345 533.527C88.9314 537.043 89.0291 538.776 80.7275 544.685C74.2328 549.349 74.2328 549.349 72.9143 540.974ZM850.991 536.579C852.041 531.036 865.104 523.98 872.649 524.933C878.46 525.616 877.703 526.373 864.616 533.136C852.7 539.338 850.308 539.924 850.991 536.579ZM76.821 500.516C77.6756 496.805 78.9207 492.215 79.3846 490.31C80.0683 488.308 77.0896 484.694 72.0354 481.252L63.7581 475.538L74.2328 474.854C84.3412 474.195 84.8294 473.829 87.8815 464.746L91.0313 455.419L94.8403 464.942C98.4539 474 99.1376 474.488 108.294 474.586H117.914L110.296 481.154C103.142 487.356 102.751 488.21 105.242 495.096C109.051 506.254 108.391 506.913 99.4304 500.809C91.2265 495.193 91.2267 495.193 83.1937 501.297C75.1851 507.402 75.1851 507.402 76.821 500.516ZM846.987 502.714C851.748 490.212 851.187 486.599 843.447 480.495L835.829 474.488H846.133C856.241 474.488 856.607 474.195 860.05 464.746L863.664 455.126L866.545 464.746C869.499 474.293 869.67 474.488 879.876 474.488H890.18L882.562 480.885C875.115 487.063 874.92 487.551 877.215 496.609C879.607 506.059 879.608 506.059 871.599 500.614C867.106 497.562 862.345 495.755 861.002 496.512C859.659 497.269 855.557 499.955 851.944 502.518C845.449 507.011 845.253 507.011 846.987 502.714ZM71.3761 422.506C67.1765 418.794 64.4175 414.497 64.8814 412.202C65.5651 409.052 67.4695 410.102 74.4282 417.256C84.6342 427.658 82.1682 431.955 71.3761 422.506ZM852.798 423.165C848.037 410.688 850.308 410.395 872.16 420.967L888.08 428.61L871.599 428.805C855.85 429 854.898 428.708 852.798 423.165ZM84.2436 418.404C75.9664 409.809 75.9663 409.809 81.0205 407.245C83.8773 405.805 89.0291 403.9 92.6427 403.143C99.1374 401.532 99.1376 401.532 97.5017 411.347C94.8403 427.365 93.5951 428.048 84.2436 418.404ZM102.19 417.061C104.289 404.291 107.146 397.235 110.003 397.235C112.298 397.235 112.005 399.896 107.439 418.208C104.387 430.221 100.09 429.269 102.19 417.061ZM871.403 414.497C859.659 409.247 849.087 402.948 847.744 400.653C844.985 395.696 844.131 395.428 874.651 408.857C886.273 414.009 896.284 419.551 896.968 421.358C898.775 426.119 894.575 424.996 871.403 414.497ZM872.82 401.239L853.091 392.083L865.666 375.87C872.649 367.007 879.217 359.365 880.364 358.974C885.223 357.168 881.707 365.664 873.308 376.237C868.351 382.438 864.249 388.274 864.249 389.128C864.249 389.885 870.915 393.499 879.022 397.235C887.909 401.239 893.818 405.243 893.818 407.343C893.818 409.247 893.525 410.762 893.232 410.688C892.866 410.493 883.807 406.293 872.918 401.239H872.82ZM704.395 829.38C703.053 827.183 746.367 794.758 750.64 794.758C754.937 794.758 751.324 798.372 734.159 811.263C711.354 828.33 705.812 831.676 704.395 829.38ZM227.519 814.78C209.866 801.619 209.011 795.051 226.64 807.528C242.095 818.71 247.15 823.472 244.781 824.986C243.732 825.669 235.992 821.079 227.519 814.78ZM449.635 824.986C306.579 812.607 185.84 714.257 147.482 578.82C130.708 519.415 130.317 452.538 146.53 392.645C166.942 317.125 222.929 243.778 294.469 198.949C375.824 147.919 480.839 133.514 574.769 160.591C684.081 192.064 772.493 276.764 807.408 383.391C825.525 438.914 827.527 503.373 813.122 564.341C783.163 690.988 678.832 791.901 550.084 818.417C517.171 825.278 480.155 827.671 449.635 824.986ZM546.641 810.775C613.225 796.663 667.576 766.997 715.554 718.945C765.241 669.063 793.1 617.739 807.677 549.447C814.464 517.876 815.124 454.369 809.02 424.019C782.796 293.172 680.443 191.112 546.153 161.836C515.632 155.171 439.722 155.732 407.858 162.789C310.583 184.641 229.13 244.339 182.788 328.087C112.005 455.687 135.86 614.687 241.631 719.8C296.08 774.053 357.976 803.914 440.576 816.122C458.034 818.711 525.277 815.366 546.641 810.775ZM449.635 810.507C301.135 798.86 178.393 686.593 153.22 539.241C134.224 428.708 173.437 318.077 257.454 244.339C392.891 125.505 600.235 135.515 721.755 266.754C760.285 308.335 785.458 354.799 799.864 410.2C805.87 433.176 806.26 437.571 806.26 482.399C806.358 544.685 800.157 574.449 776.888 623.648C718.02 748.123 589.761 821.372 449.635 810.507ZM395.089 525.885C400.143 522.662 405.49 518.828 407.102 517.51C408.64 516.167 410.813 515.581 411.863 516.265C412.815 516.924 419.505 511.87 426.561 505.009C438.379 493.46 442.676 488.039 437.158 491.458C431.909 494.705 435.62 488.406 446.217 476.002C454.03 466.944 457.57 460.742 457.57 456.371C457.57 452.929 459.182 448.729 461.086 447.117C466.336 442.82 467.752 446.361 463.479 452.929C460.695 457.031 460.232 459.692 461.843 461.621C463.577 463.623 461.086 467.798 452.98 476.588C446.876 483.254 442.383 489.651 443.067 490.798C443.824 491.946 439.917 496.805 434.472 501.664C426 509.306 425.414 510.356 430.37 509.306C435.229 508.159 434.96 508.72 428.075 513.579C423.705 516.631 414.744 521.978 408.151 525.519C401.583 529.132 396.7 532.477 397.286 533.039C397.848 533.625 408.249 528.766 420.36 522.271C432.47 515.776 442.969 511.308 443.726 512.358C444.483 513.408 448.023 516.729 451.466 519.878C456.325 524.176 457.472 524.469 456.325 521.417C455.47 519.122 456.594 513.408 458.791 508.427C462.795 499.466 466.336 496.903 466.995 502.25C468.143 511.772 467.483 519.512 465.579 519.121C462.991 518.731 462.429 533.893 464.797 539.827C466.043 543.05 466.433 542.878 466.531 538.679C466.628 535.895 470.438 526.74 475.101 518.365C483.501 503.104 483.5 503.104 485.503 510.917C486.943 516.265 486.65 520.171 484.843 523.321C483.305 525.787 485.307 524.468 489.116 520.366C500.201 508.525 505.719 515.679 495.05 528.082C491.997 531.72 489.409 535.432 489.409 536.384C489.409 539.631 516.511 524.469 518.977 519.878C520.32 517.315 522.42 515.776 523.568 516.558C524.715 517.217 528.719 516.167 532.528 514.262C538.437 511.113 540.146 511.113 545.591 513.872C555.407 518.828 562.951 520.831 561.144 517.876C558.556 513.774 568.958 515.019 580.018 519.976C590.884 524.933 595.181 524.835 585.927 519.878C582.778 518.267 580.311 515.508 580.311 513.774C580.311 511.772 585.561 513.408 596.719 519.024C608.927 525.128 612.175 526.08 609.123 522.735C605.094 518.267 605.192 518.267 616.277 518.731C622.381 519.024 628.851 520.074 630.56 521.124C632.294 522.076 633.149 522.271 632.489 521.514C631.806 520.733 620.086 513.408 606.339 505.106C584.218 491.75 537.485 457.69 513.826 437.668C504.377 429.757 500.47 430.417 506.11 439.109C510.871 446.361 510.871 448.631 506.11 444.627C502.765 441.868 502.765 442.429 506.403 449.486C510.407 457.421 510.407 457.421 504.108 451.781C497.906 446.068 497.906 446.067 502.472 455.126C504.962 460.18 509.357 466.284 512.116 468.75C523.177 478.785 553.502 513.31 550.645 512.627C548.936 512.261 541.489 505.009 534.042 496.609C526.62 488.21 519.563 481.252 518.318 481.252C517.17 481.252 514.118 478.688 511.628 475.538C507.819 470.679 506.476 470.191 503.522 472.682C500.568 475.148 500.299 474.854 501.617 470.85C502.472 467.993 501.324 461.987 498.565 456.078C496.099 450.536 495.147 445.775 496.27 445.311C497.515 444.92 498.468 441.282 498.468 437.375C498.468 430.124 498.467 430.124 479.691 430.905C460.988 431.662 460.988 431.662 445.069 446.922C436.279 455.321 415.11 472.193 397.945 484.401C380.781 496.61 366.668 506.913 366.668 507.304C366.668 507.768 368.768 507.572 371.234 506.913C373.724 506.254 375.824 506.522 375.824 507.475C375.824 509.672 372.015 512.529 347.77 529.035C336.807 536.482 328.407 542.585 329.091 542.585C331.386 542.585 365.13 525.03 372.381 520.074C390.035 508.061 391.841 518.267 375.238 535.529L363.323 547.933L374.676 539.924C380.878 535.432 390.132 529.132 395.089 525.885ZM406.149 497.757C426.366 480.959 431.42 477.052 432.275 477.906C433.911 479.542 425.609 490.505 423.705 489.358C421.8 488.113 404.709 499.564 402.047 503.861C401.193 505.204 399.483 506.254 398.238 506.254C396.993 506.254 400.607 502.421 406.149 497.757ZM570.96 496.512C565.246 492.508 554.65 484.206 547.593 478.2C540.439 472.096 534.14 467.53 533.676 468.091C533.09 468.677 537.876 475.147 544.346 482.594L556.091 496.048L543.784 484.401C536.997 477.907 529.086 471.534 526.131 469.996C523.079 468.482 521.37 465.991 522.03 464.087C522.786 462.378 522.127 460.278 520.784 459.423C519.075 458.374 518.88 458.935 520.027 460.84C521.273 462.842 520.979 463.232 519.27 462.182C517.732 461.23 517.171 459.521 517.928 458.276C518.685 457.128 518.221 454.735 516.878 453.124C515.071 450.926 515.461 450.169 518.416 450.169C520.613 450.072 528.988 456.371 537.095 464.087C545.201 471.9 558.752 483.644 567.248 490.115C575.623 496.707 582.509 502.518 582.509 503.006C582.509 504.52 582.216 504.252 570.96 496.512ZM530.331 462.378C530.331 461.987 527.474 459.13 524.032 456.078C517.83 450.633 517.83 450.634 523.275 456.835C528.427 462.646 530.331 464.184 530.331 462.378ZM414.646 498.807C415.11 498.416 417.6 496.609 420.066 494.803C424.266 491.751 424.462 491.751 421.507 495.462C419.798 497.659 417.308 499.466 416.062 499.466C414.744 499.466 414.06 499.198 414.646 498.807ZM483.696 478.492C482.06 470.093 485.502 455.224 489.702 452.733C490.947 451.976 490.264 455.224 488.262 459.985C485.405 466.846 485.21 469.727 487.309 473.634C489.116 477.052 489.214 479.738 487.602 482.692C485.6 486.208 485.039 485.646 483.696 478.492ZM439.429 469.043C439.429 465.796 447.535 458.569 451.271 458.569C455.177 458.569 452.687 463.037 446.217 467.627C440.772 471.534 439.429 471.803 439.429 469.043ZM525.472 802.571C631.805 786.847 721.56 722.168 768.586 627.384C779.842 604.774 786.044 588.562 784.139 586.755C783.651 586.169 645.747 585.705 477.787 585.607C307.043 585.51 174.486 584.655 177.05 583.508C179.541 582.458 194.313 577.867 209.963 573.302C274.911 554.306 328.798 528.668 358.659 502.518C371.82 490.896 378.119 486.794 379.828 488.503C384.028 492.605 387.934 488.21 384.028 483.84C373.236 471.9 370.77 450.169 378.29 433.566C384.492 419.844 388.594 415.742 401.95 409.443C423.216 399.432 446.876 403.998 462.429 421.065C470.047 429.562 470.047 429.562 488.945 428.121C499.322 427.364 519.075 423.556 532.895 419.747C561.34 411.811 567.249 411.909 544.444 419.917C536.044 422.896 525.57 426.803 521.272 428.512L513.362 431.857L522.322 439.67C540.244 455.321 581.825 485.549 605.387 500.052C636.957 519.512 649.849 525.787 661.276 527.325C666.526 527.984 675.291 531.622 681.029 535.627C686.645 539.436 699.439 546.59 709.254 551.351C728.324 560.605 786.142 580.651 788.046 578.624C790.805 575.865 798.423 539.436 800.913 517.583C815.221 387.029 745.122 261.797 623.504 200.756C517.634 147.626 385.932 158.027 288.462 227.175C146.627 327.795 112.005 517.779 208.914 663.422C277.304 766.044 401.852 820.884 525.472 802.571ZM283.115 315.294C279.013 308.14 276.913 306.43 273.47 307.48C271.004 308.237 269.002 308.042 269.002 306.919C269.002 304.428 281.577 294.979 284.824 294.979C287.876 294.979 287.876 298.812 284.824 300.717C283.311 301.669 284.556 305.771 288.169 311.875C293.223 320.543 293.712 324.547 289.708 324.45C288.926 324.45 285.972 320.348 283.115 315.294ZM657.467 321.129C657.467 318.736 671.678 297.274 673.216 297.274C677.684 297.274 677.025 300.815 670.628 311.021C666.819 317.198 662.228 322.252 660.617 322.252C658.908 322.252 657.565 321.788 657.565 321.129H657.467ZM299.889 315.025C290.66 284.773 294.762 278.302 311.927 295.833C318.299 302.23 320.79 306.333 319.178 307.382C317.738 308.237 315.076 307.773 313.343 306.333C309.338 302.988 305.432 305.283 305.432 310.923C305.432 316.075 301.134 319.2 299.889 315.025ZM304.479 295.833C303.625 293.758 302.477 292.611 301.916 293.172C301.232 293.831 301.427 296.029 302.184 298.129C303.039 300.229 304.187 301.474 304.87 300.815C305.432 300.229 305.334 297.933 304.479 295.833ZM649.922 316.148C649.068 315.293 648.409 312.827 648.409 310.63C648.409 305.087 644.404 303.085 640.302 306.528C638.3 308.139 636.103 308.53 634.955 307.285C633.808 306.04 637.714 300.985 644.209 295.272C658.712 282.502 661.667 284.407 657.565 303.94C654.708 317.124 653.267 319.493 649.922 316.148ZM652.974 298.226C652.974 296.322 651.925 295.37 650.704 296.127C649.459 296.883 648.409 298.519 648.409 299.667C648.409 300.815 649.459 301.767 650.704 301.767C651.925 301.767 652.974 300.228 652.974 298.226ZM613.786 298.226C607.584 294.881 607.584 294.881 613.786 282.405C617.131 275.617 621.331 270.001 623.04 270.001C624.749 270.001 625.701 271.246 625.042 272.858C624.456 274.396 622.283 279.45 620.281 284.114C616.838 292.22 616.838 292.708 621.233 294.979C623.797 296.322 625.237 298.422 624.554 299.667C622.747 302.426 621.233 302.231 613.884 298.226H613.786ZM328.139 287.166C320.887 269.342 325.087 265.24 332.9 282.502C336.245 290.023 338.54 296.883 337.954 297.836C335.561 301.767 332.9 298.812 328.139 287.166ZM341.006 285.359C339.2 280.012 336.904 273.908 336.05 271.71C333.095 264.458 341.397 264.263 349.015 271.417C352.922 274.957 355.509 276.398 354.923 274.567C350.822 262.652 350.651 260.942 353.507 260.942C356.266 260.942 364.47 279.45 364.47 285.627C364.47 290.022 358.659 288.411 353.117 282.502C345.768 274.665 343.668 275.348 347.403 284.504C350.455 291.658 350.065 294.979 346.158 294.979C345.206 294.979 342.911 290.608 341.006 285.359ZM598.428 288.313C598.428 282.307 594.986 280.573 589.565 284.016C581.263 289.168 581.825 283.918 590.713 272.296C595.938 265.313 600.723 261.211 602.53 261.993C604.239 262.652 605.778 263.14 606.071 263.14C606.242 263.14 606.071 269.806 605.68 277.912C605.094 288.777 604.068 292.708 601.676 292.708C599.966 292.708 598.526 290.706 598.526 288.313H598.428ZM600.723 273.248C600.723 271.344 599.674 270.367 598.428 271.149C597.183 271.906 596.133 273.517 596.133 274.665C596.133 275.812 597.183 276.764 598.428 276.764C599.674 276.764 600.723 275.251 600.723 273.248ZM373.431 271.905C371.234 262.456 370.013 260.747 366.473 261.602C363.811 262.261 362.175 261.602 362.175 259.6C362.175 257.89 366.375 255.4 371.527 253.984C381.342 251.396 386.226 253.032 380.122 257.036C376.874 259.038 376.776 260.65 379.242 270.196C381.635 279.06 381.635 281.257 379.169 282.209C377.167 282.966 375.238 279.621 373.431 271.905ZM571.155 278.009C569.91 274.664 568.86 269.708 568.763 267.046C568.567 263.237 567.908 263.897 565.711 269.806C562.951 277.521 557.507 282.112 557.507 276.764C557.507 275.348 559.142 268.658 561.144 261.895C565.051 248.441 570.398 247.099 572.767 258.94C574.574 268.097 577.161 268.951 578.773 260.845C580.116 254.252 584.877 251.201 584.779 256.938C584.609 263.897 578.675 282.307 576.209 283.064C574.671 283.552 572.498 281.257 571.155 278.009ZM391.841 270.367C386.494 249.882 386.494 250.248 392.134 248.734C399.654 246.732 405.295 246.928 405.295 249.296C405.295 250.444 402.707 251.981 399.581 252.738C393.087 254.35 394.039 258.647 400.9 258.647C403.39 258.647 405.295 259.599 405.295 260.942C405.295 262.188 403.757 263.14 401.95 263.14C400.045 263.14 398.531 265.045 398.531 267.413C398.531 270.66 399.752 271.344 404.147 270.563C407.492 269.903 409.86 270.465 409.86 272.003C409.86 273.346 409.592 274.469 409.299 274.469C409.006 274.469 405.49 275.446 401.388 276.569C394.332 278.669 394.039 278.498 391.939 270.367H391.841ZM532.992 271.808C531.478 270.294 530.331 265.24 530.331 260.454C530.331 253.789 531.576 251.103 536.24 248.05C548.741 239.847 560.656 255.79 551.988 268.951C548.082 275.055 537.778 276.569 532.992 271.808ZM545.787 267.242C547.203 265.801 548.448 261.699 548.448 258.159C548.448 253.3 547.398 251.786 543.882 251.786C538.242 251.786 534.433 260.259 537.485 265.997C539.878 270.66 541.978 270.953 545.787 267.242ZM413.596 263.702C411.106 248.539 411.79 245.585 417.894 244.047C426.561 241.873 433.325 246.342 431.616 253.203C430.859 256.255 431.322 260.845 432.763 263.409C434.57 266.754 434.57 268.951 432.958 270.563C431.225 272.199 429.711 271.148 427.806 266.949C424.364 259.306 421.214 259.136 421.214 266.558C421.214 275.617 415.208 273.419 413.596 263.702ZM425.804 252.934C425.804 251.103 424.266 249.491 422.362 249.491C420.555 249.491 419.017 251.103 419.017 252.934C419.017 254.838 420.555 256.352 422.362 256.352C424.266 256.352 425.804 254.838 425.804 252.934ZM518.025 270.367C515.364 266.094 519.368 242.728 522.689 242.728C525.081 242.728 525.472 245.487 524.325 255.79C522.884 269.146 520.613 274.469 518.025 270.367ZM439.429 257.5C439.429 250.639 439.331 244.242 439.258 243.289C438.965 237.942 445.923 241.58 450.221 248.93L455.177 257.5L455.275 249.003C455.275 244.242 456.325 240.433 457.57 240.433C458.791 240.433 459.841 241.873 459.841 243.582C459.841 245.194 460.524 251.396 461.281 257.134C462.527 266.094 462.136 267.706 458.986 267.706C456.887 267.706 453.077 264.092 450.489 259.795C444.385 249.589 443.531 249.784 445.362 260.942C446.485 268.365 446.119 270.001 443.067 270.001C440.112 270.001 439.429 267.511 439.429 257.5ZM498.858 257.793C499.517 246.83 499.054 244.998 495.611 244.998C493.413 244.998 491.704 243.949 491.704 242.728C491.704 241.483 496.758 240.433 503.058 240.433C511.628 240.433 514.412 241.287 514.412 243.875C514.412 245.78 512.409 247.294 510.017 247.294C506.305 247.294 505.426 249.1 504.865 257.89C504.474 264.263 502.96 268.951 501.154 269.513C498.761 270.294 498.199 267.706 498.858 257.793ZM466.726 265.899C466.726 264.849 468.24 258.745 470.145 252.25C474.735 236.722 481.205 235.843 484.941 250.151C486.26 255.4 487.895 261.602 488.555 263.702C489.995 268.658 483.696 269.244 481.791 264.263C481.01 262.456 478.934 260.942 477.005 260.942C475.101 260.942 473.49 262.456 473.49 264.263C473.49 266.192 471.952 267.706 470.047 267.706C468.24 267.706 466.726 266.851 466.726 265.899ZM480.351 254.253C480.351 253.032 479.301 251.493 478.055 250.736C476.835 249.882 475.785 250.932 475.785 252.836C475.785 254.741 476.835 256.352 478.055 256.352C479.301 256.352 480.351 255.4 480.351 254.253ZM733.964 391.13C733.207 390.276 733.964 387.322 735.771 384.538C739.97 378.166 737.577 375.577 731.961 380.632C728.421 383.879 727.274 383.977 725.76 381.389C724.319 379.118 727.005 375.675 735.209 369.18C746.636 360.024 746.636 360.024 750.933 365.567C756.671 372.916 755.426 379.484 747.686 383.22C744.17 384.831 740.727 387.688 740.068 389.397C738.725 392.937 736.43 393.499 733.964 391.13ZM748.37 373.184C748.37 371.182 747.222 369.962 745.684 370.426C741.484 371.866 740.727 376.725 744.829 376.725C746.734 376.725 748.37 375.113 748.37 373.184ZM229.521 359.56C220.731 342.664 223.417 339.905 240.484 348.011C254.035 354.409 257.161 359.365 246.881 358.217C241.339 357.558 240.679 358.217 240.679 364.028C240.679 374.723 236.578 373.111 229.521 359.56ZM237.237 354.311C237.237 353.163 235.723 351.649 233.891 350.966C231.718 350.111 231.035 350.77 231.89 352.968C233.33 356.606 237.237 357.558 237.237 354.311ZM712.013 365.371C705.812 359.17 706.3 354.872 714.113 347.059C721.951 339.246 726.224 338.758 732.523 344.959C738.53 351.063 738.261 357.656 731.473 364.322C724.71 371.085 718.117 371.475 712.013 365.371ZM727.469 360.415C730.814 357.07 731.107 350.306 727.957 348.402C722.805 345.154 712.306 355.825 715.554 361.074C717.361 364.029 724.222 363.662 727.469 360.415ZM247.638 342.298C238.189 331.237 238.091 331.042 243.829 325.792C249.836 320.445 258.601 321.984 259.553 328.454C259.944 331.335 261.458 333.606 262.996 333.606C267.562 333.704 271.957 337.512 270.418 340.1C269.295 341.809 267.293 341.712 263.264 340.003C256.989 337.048 253.156 339.05 257.258 343.152C260.408 346.4 260.798 351.747 257.844 351.747C256.696 351.747 252.106 347.547 247.638 342.298ZM254.401 333.435C256.306 330.285 252.033 325.792 248.883 327.697C246.295 329.333 247.931 335.901 250.983 335.901C252.033 335.901 253.547 334.753 254.401 333.435ZM688.379 342.957C687.695 341.81 691.333 336.194 696.485 330.383C705.812 319.688 705.812 319.688 711.159 324.742C721.365 334.387 715.359 345.814 702.686 340.955C697.144 338.953 695.63 339.051 694.653 341.712C693.237 345.35 690.185 345.912 688.379 342.957ZM709.743 332.287C709.743 328.552 706.202 327.99 704.103 331.335C702.198 334.289 704.957 338.562 707.643 336.951C708.79 336.194 709.743 334.094 709.743 332.287ZM679.589 336.755C678.832 335.999 679.125 332.946 680.37 329.992C682.738 323.693 679.686 320.836 675.682 325.695C674.168 327.502 671.97 329.04 670.92 329.04C667.112 329.04 668.919 324.181 676.537 314.146C684.277 304.135 684.276 304.135 690.185 308.823C697.144 314.244 697.901 321.129 691.894 324.352C689.526 325.597 686.938 329.235 686.181 332.385C684.74 338.001 682.445 339.539 679.589 336.755ZM689.428 316.539C689.331 313.194 684.179 313.78 683.031 317.296C682.372 319.2 683.422 320.079 685.79 319.591C687.89 319.2 689.526 317.784 689.428 316.539ZM267.952 325.792C262.605 319.298 259.944 314.146 260.798 311.875C261.946 309.092 264.412 311.021 271.566 319.982C283.677 335.339 280.258 340.857 267.952 325.792ZM471.487 421.358C469.485 418.892 476.151 413.74 505.817 395.037C526.131 382.267 541.782 372.818 540.537 374.064C534.238 380.168 477.396 424.508 475.883 424.508C474.833 424.508 472.904 423.067 471.487 421.358ZM380.878 405.805C378.388 401.703 367.913 386.076 357.609 371.085C347.306 356.117 341.006 345.814 343.497 348.402C351.603 356.508 394.43 406.684 393.648 407.148C393.184 407.343 391.182 408.857 389.18 410.395C385.932 412.788 384.785 412.105 380.878 405.805ZM458.132 408.003C456.52 405.903 461.941 397.796 478.446 377.872C501.715 349.818 507.526 343.348 504.01 349.55C495.904 363.858 463.943 410.859 462.429 410.859C461.281 410.859 459.377 409.541 458.132 408.003ZM742.632 403.998C741.777 402.582 741.484 401.142 741.875 400.849C742.363 400.58 746.538 397.894 751.324 395.135C757.794 391.131 759.626 388.836 758.576 385.588C756.085 378.068 762.946 380.827 767.536 389.226C771.54 396.747 770.784 404.096 766.682 397.43C765.241 395.037 762.678 395.697 754.571 400.482C747.588 404.584 743.682 405.707 742.632 403.998ZM390.889 365.079C385.078 344.862 380.585 328.088 380.976 327.697C382.587 326.085 410.153 397.235 408.811 399.432C404.538 406.391 400.9 399.432 390.889 365.079ZM440.674 399.701C440.015 398.553 445.533 381.388 452.98 361.66C460.427 341.809 466.629 326.745 466.629 328.185C466.629 329.504 463.576 342.762 459.743 357.656C455.836 372.526 451.735 388.543 450.489 393.231C448.487 401.239 443.628 404.389 440.674 399.701ZM420.848 367.08C421.971 322.179 424.657 314.439 426.659 350.6C427.514 366.91 428.759 383.977 429.516 388.64C430.663 396.478 430.273 397.235 425.414 397.235C420.067 397.235 420.067 397.235 420.848 367.08ZM210.257 383.781C200.808 376.725 199.171 374.528 201.662 372.525C203.469 371.012 207.864 370.523 212.429 371.378C220.169 372.916 220.17 372.916 214.92 367.08C206.716 358.217 212.259 358.12 224.174 367.007C234.941 374.918 237.432 378.825 232.085 379.289C227.617 379.777 227.421 379.679 219.12 378.166L211.209 376.627L218.924 383.122C230.937 393.133 223.588 393.694 210.257 383.781ZM277.011 703.685C272.714 699.29 272.714 698.802 276.352 692.429C279.965 686.032 279.965 685.739 275.961 685.739C269.759 685.739 266.316 680.221 268.05 673.238C269.466 667.719 270.419 667.231 278.354 668.013C286.558 668.77 287.217 668.379 287.217 662.958C287.217 651.41 298.082 647.6 304.187 657.025C306.091 660.004 307.141 663.813 306.482 665.62C305.529 668.11 307.141 668.672 314.124 668.013C322.133 667.231 323.085 667.719 324.403 673.238C326.332 680.782 322.597 685.739 314.979 685.739C309.534 685.739 309.436 685.934 312.976 689.841C317.542 694.993 317.738 700.901 313.44 705.199C309.045 709.594 306.189 709.301 300.768 703.856C296.178 699.388 296.178 699.388 291.71 703.856C286.07 709.496 282.724 709.496 276.913 703.685H277.011ZM645.552 705.296C640.595 701.487 640.498 695.286 645.357 689.841C648.873 686.032 648.873 685.739 644.6 685.739C638.301 685.739 630.487 677.071 634.491 674.581C636.103 673.531 637.446 671.821 637.348 670.674C637.25 669.624 640.766 668.672 645.064 668.672C652.12 668.672 652.974 668.012 652.974 662.763C652.974 655.902 656.417 652.557 663.766 652.166C669.382 651.873 674.437 658.954 672.825 664.961C672.068 668.11 673.289 668.574 680.272 667.915C687.792 667.231 688.842 667.817 690.283 673.238C692.089 680.685 688.476 685.739 681.127 685.739C675.682 685.739 675.682 685.739 680.272 690.329C685.986 696.043 685.985 699.583 680.077 704.637C674.436 709.496 667.478 707.86 665.281 701.194C663.864 696.531 663.767 696.531 661.472 700.706C656.979 708.837 652.12 710.253 645.65 705.296H645.552ZM668.918 687.179C668.918 686.789 666.916 684.689 664.621 682.589C660.715 678.976 660.226 678.976 658.908 682.492C657.858 685.177 658.419 685.836 660.812 684.982C662.717 684.225 664.817 684.591 665.573 685.837C666.819 687.936 668.918 688.791 668.918 687.179ZM330.8 652.166C331.557 636.906 331.557 636.906 340.445 636.906C345.499 636.906 349.699 638.053 350.26 639.665C350.822 641.594 348.82 642.546 344.156 642.546C339.492 642.546 337.197 643.694 337.197 645.965C337.197 648.065 339.395 649.407 342.911 649.407C349.967 649.407 350.358 653.314 343.399 654.364C336.147 655.316 337.002 661.713 344.547 662.568C354.753 663.715 351.701 667.524 340.542 667.524C330.141 667.524 330.141 667.524 330.8 652.166ZM357.316 655.023C357.121 648.162 356.853 641.301 356.755 639.665C356.267 633.561 363.518 637.394 368.182 645.769L373.236 654.755L374.017 645.965C374.384 641.203 376.019 636.808 377.533 636.344C379.633 635.587 380.39 639.592 380.39 651.605C380.39 665.522 379.828 667.817 376.581 667.133C374.579 666.767 370.77 662.275 368.084 657.318L363.323 648.26L362.664 657.904C361.614 671.822 357.707 669.722 357.316 655.023ZM393.941 655.023C393.941 644.06 393.477 642.546 389.448 642.546C386.885 642.546 384.883 641.008 384.883 639.104C384.883 636.54 387.837 635.759 397.384 635.759C407.004 635.759 409.86 636.54 409.86 639.104C409.86 641.008 407.858 642.546 405.392 642.546C401.388 642.546 400.802 644.06 400.802 655.023C400.802 664.668 400.045 667.524 397.384 667.524C394.796 667.524 394.039 664.668 394.039 655.023H393.941ZM414.451 651.605C414.451 636.051 414.549 635.759 420.262 635.759C429.052 635.759 434.863 639.763 434.863 645.867C434.863 648.919 433.911 651.971 432.568 652.752C431.225 653.705 431.615 656.659 433.813 660.859C437.06 667.134 436.963 667.524 432.958 667.524C430.175 667.524 428.002 665.425 427.123 661.909C426.366 658.759 424.755 656.171 423.509 656.171C422.264 656.171 421.214 658.759 421.214 661.909C421.214 665.425 419.969 667.524 417.894 667.524C415.11 667.524 414.451 664.277 414.451 651.605ZM427.709 646.355C428.075 644.06 426.952 642.546 424.852 642.546C422.753 642.546 421.214 644.548 421.214 647.307C421.214 652.85 426.561 652.069 427.709 646.355ZM446.217 660.663C446.217 656.854 444.215 649.7 441.626 644.744C437.72 637.101 437.622 635.759 440.576 635.759C442.481 635.759 445.264 638.346 446.681 641.399C448.121 644.548 450.026 647.112 450.88 647.112C451.832 647.112 453.175 644.548 454.03 641.399C454.787 638.346 456.887 635.759 458.791 635.759C463.088 635.759 462.991 636.442 457.57 647.112C455.08 651.971 453.078 658.564 453.078 661.811C453.078 665.425 451.832 667.524 449.635 667.524C447.364 667.524 446.217 665.229 446.217 660.663ZM475.785 652.923C475.785 636.54 477.201 634.611 488.359 636.711C501.422 639.201 501.617 654.754 488.652 656.659C485.503 657.025 483.5 659.223 483.012 662.47C482.548 665.229 480.839 667.524 479.008 667.524C476.542 667.524 475.785 664.081 475.785 652.923ZM490.557 647.112C490.557 645.305 488.75 643.401 486.552 643.01C483.793 642.449 482.548 643.694 482.548 647.112C482.548 650.555 483.793 651.8 486.552 651.214C488.75 650.75 490.557 648.919 490.557 647.112ZM505.353 653.9C505.353 646.453 505.06 639.494 504.767 638.542C504.376 637.663 508.478 636.54 513.826 636.149C521.37 635.661 523.47 636.247 523.47 639.006C523.47 641.301 521.468 642.546 517.83 642.546C514.314 642.546 512.116 643.865 512.116 645.965C512.116 647.869 514.118 649.407 516.682 649.407C519.173 649.407 521.175 650.359 521.175 651.605C521.175 652.923 519.27 653.9 516.878 653.9C512.58 653.9 508.967 659.125 511.53 661.615C512.312 662.372 515.266 663.056 518.22 663.056C521.077 663.056 523.47 664.008 523.47 665.229C523.47 666.474 519.368 667.524 514.412 667.524C505.353 667.524 505.353 667.524 505.353 653.9ZM530.331 651.605C530.331 635.758 530.331 635.759 536.728 635.759C546.836 635.759 551.696 640.642 549.986 649.017C549.205 652.923 549.498 658.759 550.743 661.909C552.55 666.67 552.257 667.524 548.643 667.524C546.08 667.524 543.882 665.425 543.028 661.909C542.246 658.759 540.537 656.171 539.292 656.171C538.144 656.171 537.095 658.759 537.095 661.909C537.095 665.425 535.873 667.524 533.676 667.524C530.99 667.524 530.331 664.277 530.331 651.605ZM543.491 646.355C543.98 644.06 542.832 642.546 540.732 642.546C538.535 642.546 537.095 644.548 537.095 647.307C537.095 652.85 542.442 652.069 543.491 646.355ZM557.507 653.021C557.507 642.717 558.459 638.151 560.656 637.297C564.465 635.856 568.86 639.86 568.958 644.744C568.958 646.648 569.91 649.7 571.058 651.409C572.498 653.802 573.817 652.166 575.917 645.11C577.919 638.542 579.823 635.758 582.411 636.247C587.563 637.199 588.979 667.524 583.73 667.524C581.264 667.524 580.214 665.131 580.116 659.027L579.921 650.555L577.064 658.466C575.55 662.861 573.353 666.377 572.401 666.377C571.351 666.377 569.153 662.861 567.615 658.466L564.758 650.555L564.563 659.027C564.465 665.058 563.415 667.524 561.047 667.524C558.361 667.524 557.604 664.375 557.604 653.021H557.507ZM594.326 652.362C594.815 642.815 596.036 636.906 597.867 636.344C599.967 635.587 600.723 639.592 600.723 651.409C600.723 664.472 600.04 667.524 597.183 667.524C594.327 667.524 593.863 664.863 594.326 652.362ZM614.348 655.023C614.348 643.865 613.884 642.546 609.587 642.546C606.828 642.546 605.289 641.399 605.778 639.665C607.291 635.197 630.292 634.538 630.292 639.006C630.292 641.008 628.29 642.546 625.702 642.546C621.697 642.546 621.135 644.06 621.135 655.023C621.135 664.668 620.354 667.524 617.791 667.524C615.129 667.524 614.348 664.668 614.348 655.023ZM296.275 503.568C298.082 501.761 366.863 469.898 368.963 469.898C369.915 469.898 371.234 471.802 371.917 474.195C372.967 478.59 370.013 479.738 298.57 503.568C296.666 504.154 295.714 504.154 296.275 503.568ZM313.343 457.421C365.032 450.829 368.963 450.731 368.963 456.078C368.963 460.742 368.182 460.84 329.848 460.571C290.66 460.278 290.66 460.278 313.343 457.421ZM331.459 431.467C296.837 419.844 289.61 416.963 299.035 418.795C319.251 422.604 369.818 433.567 370.477 434.323C372.186 436.057 368.475 442.625 365.911 442.43C364.471 442.332 349.015 437.375 331.459 431.467ZM342.618 402.655C310.388 378.068 304.382 373.185 314.49 379.387C317.64 381.291 333.657 390.838 350.162 400.58C376.874 416.206 380.024 418.599 377.924 422.408C376.679 424.801 375.336 426.705 374.969 426.705C374.481 426.705 359.978 415.913 342.618 402.655Z" fill="#DBA651"/>
</svg>
