<svg width="958" height="958" viewBox="0 0 958 958" fill="none" xmlns="http://www.w3.org/2000/svg">
<path fill-rule="evenodd" clip-rule="evenodd" d="M449.522 954.216C447.674 952.368 446.187 951.85 446.187 953.157C446.187 956.334 434.56 955.973 407.794 952.12C203.008 922.019 39.9048 761.823 5.86029 557.195C-2.76913 504.923 -1.80009 436.969 8.31638 386.116C53.3786 160.805 249.287 0.000129989 478.744 0.000129989C610.506 0.000129989 731.948 51.9118 824.371 147.759C911.409 238.064 957.26 352.747 957.08 479.755C956.99 583.331 925.221 680.417 864.679 762.701C843.027 792.014 811.169 825.631 808.442 821.936C806.933 819.84 806.752 820.088 807.653 822.814C808.442 825.473 804.905 829.957 795.487 838.225C708.809 914.696 594.396 957.573 476.896 957.573C457.97 957.573 452.158 956.874 449.522 954.216ZM534.194 933.803C608.907 926.142 693.938 891.827 756.327 844.038C852.264 770.362 913.955 665.727 932.7 544.622C937.905 511.524 937.816 445.778 932.611 412.252C905.168 233.76 782.373 91.9723 610.145 39.7001C521.17 12.6628 416.423 14.6904 329.115 45.0623C245.862 74.0148 170.518 127.616 118.066 195.12C110.135 205.326 103.015 213.956 102.046 214.384C101.167 214.744 100.469 215.893 100.469 216.952C100.469 218.011 96.1428 225.582 90.8705 233.76C18.3428 345.785 0.38559 494.446 43.6904 624.608C96.5034 783.295 235.836 902.394 401.822 930.626C443.798 937.768 484.895 938.737 534.103 933.803H534.194ZM439.743 925.263C240.5 906.089 78.4558 761.642 39.2967 568.28C-5.58532 346.326 122.031 125.071 336.347 53.692C587.704 -30.1913 860.106 123.651 916.253 381.092C960.437 583.601 863.259 787.53 678.527 880.021C606.968 915.845 517.633 932.744 439.743 925.263ZM552.398 912.781C692.339 887.952 809.749 801.252 872.07 676.812C920.038 581.055 931.642 469.549 904.627 366.401C853.144 169.953 670.169 33.0082 467.659 39.3395C353.066 42.9445 254.829 83.9512 173.875 162.112C108.557 225.041 65.8832 300.993 48.1062 385.936C16.495 537.052 62.5262 688.168 172.726 794.493C246.651 865.939 335.446 906.337 442.919 917.602C463.513 919.811 529.529 916.904 552.398 912.781ZM457.971 895.342C456.303 890.16 445.127 889.281 443.28 894.283C442.559 896.04 440.463 897.46 438.526 897.46C436.498 897.46 435.439 896.311 436.048 894.824C450.039 859.968 454.275 857.332 461.147 879.412C463.513 887.253 465.45 894.981 465.45 896.581C465.45 901.245 459.458 900.186 457.971 895.342ZM454.703 881.53C454.703 879.773 453.734 877.835 452.608 877.047C451.458 876.326 450.49 876.235 450.49 876.776C450.49 877.294 449.881 879.322 449.16 881.17C448.281 883.468 449.002 884.617 451.278 884.617C453.215 884.617 454.703 883.198 454.703 881.53ZM471.962 882.409C471.962 868.597 472.57 865.24 475.139 865.24C477.685 865.24 478.383 868.237 478.383 879.232C478.383 893.134 478.383 893.134 486.923 893.134C493.164 893.134 495.552 894.013 495.552 896.401C495.552 898.857 492.826 899.578 483.768 899.578H471.871L471.962 882.409ZM501.094 898.068C500.396 897.37 499.855 889.619 499.855 880.989C499.855 868.417 500.487 865.24 503.033 865.24C504.971 865.24 506.299 867.268 506.299 870.085C506.299 872.721 506.907 879.863 507.606 885.834C508.665 894.553 508.214 897.099 505.668 898.068C503.911 898.767 501.793 898.767 501.094 898.068ZM513.42 894.373C514.659 891.286 517.633 879.773 520.021 869.026C522.387 858.639 528.29 861.725 535.86 877.114C539.645 884.775 542.823 892.097 542.823 893.224C542.823 896.581 536.919 895.703 535.589 892.098C533.652 887.163 523.265 888.042 521.958 893.134C521.26 895.612 518.962 897.46 516.506 897.46C513.689 897.46 512.631 896.401 513.42 894.373ZM529.867 880.832C529.777 878.804 525.654 872.293 525.654 874.23C525.654 875.019 524.955 877.204 524.324 879.052C523.445 881.26 524.143 882.409 526.442 882.409C528.379 882.409 529.867 881.711 529.867 880.832ZM402.521 882.049L397.407 870.603L395.829 879.773C394.162 889.348 391.345 892.886 387.921 889.439C386.591 888.132 386.591 883.986 387.921 877.926C389.137 872.721 390.647 865.849 391.346 862.604C393.283 853.457 398.556 855.484 404.098 867.448C409.033 878.083 411.759 878.015 411.759 867.358C411.759 865.15 412.818 862.694 414.147 861.906C418.811 858.999 419.938 864.542 417.482 878.083C414.147 896.761 409.573 897.978 402.521 882.049ZM560.937 875.807C557.782 862.874 557.693 860.216 560.149 858.639C563.574 856.521 567.292 865.33 569.748 881.26C570.897 889.191 570.536 891.038 567.899 891.038C565.691 891.038 563.505 886.284 560.937 875.807ZM365.638 883.716C356.13 880.832 356.129 880.9 361.694 861.455C365.299 848.883 367.665 847.914 381.139 853.547C390.827 857.58 388.259 861.906 377.962 858.999C373.749 857.76 370.572 857.76 369.873 858.999C368.296 861.545 370.572 865.24 373.839 865.33C378.142 865.33 382.378 868.936 380.869 871.414C379.9 872.991 377.692 872.991 373.839 871.481C369.693 869.994 367.666 870.084 366.516 872.022C364.151 875.807 365.818 877.565 373.208 879.232C376.746 880.021 379.63 881.959 379.63 883.648C379.63 887.253 377.174 887.343 365.638 883.716ZM578.377 884.076C568.779 851.429 570.445 847.644 587.794 862.424C594.644 868.327 596.672 869.296 595.703 866.209C592.368 854.763 592.008 850.64 594.306 849.131C597.821 846.945 598.52 848.252 602.846 864.97C608.028 885.315 606.45 886.803 592.097 874.839C581.891 866.389 580.314 866.299 583.468 874.748C584.707 878.015 585.677 881.959 585.677 883.648C585.677 887.434 579.436 887.771 578.377 884.076ZM337.226 874.568C332.201 872.811 328.056 870.175 328.056 868.845C328.056 865.511 336.505 843.16 338.533 841.042C341.011 838.586 360.275 846.404 360.275 849.919C360.275 852.735 357.639 852.736 345.405 849.852C339.411 848.432 341.079 854.065 347.432 856.701C351.037 858.211 353.583 860.486 353.155 861.815C352.186 864.271 351.826 864.362 342.498 861.996C333.688 859.788 334.928 865.849 344.256 870.265C348.491 872.292 351.308 874.839 350.587 876.078C349.01 878.624 348.491 878.624 337.226 874.568ZM619.901 867.967C613.66 850.73 613.322 850.189 608.028 851.519C604.332 852.488 602.935 851.947 602.935 849.671C602.935 847.193 622.808 837.347 627.742 837.347C630.739 837.347 627.922 844.376 624.588 845.255C620.532 846.314 620.532 846.495 624.588 858.301C629.499 872.721 629.59 873.87 625.377 873.87C623.619 873.87 621.141 871.234 619.992 867.967H619.901ZM302.46 859.337C296.467 854.515 296.196 849.311 301.401 836.739C304.127 830.047 306.674 826.78 308.791 827.23C312.487 828.019 312.397 828.627 307.282 842.281C303.948 851.249 303.857 852.826 306.674 854.583C312.577 858.368 315.393 856.701 319.697 847.103C324.18 836.896 326.839 834.17 330.084 836.198C332.382 837.617 326.118 852.826 320.756 859.18C316.542 864.091 308.431 864.271 302.46 859.337ZM651.423 845.098C642.523 829.236 642.613 829.596 646.939 828.019C649.214 827.14 651.783 830.047 655.726 837.955C658.813 844.129 661.629 849.491 661.99 849.852C662.328 850.19 665.504 849.041 668.929 847.283C675.013 844.129 678.01 844.467 678.01 848.432C678.01 849.919 662.689 858.819 660.052 858.819C659.512 858.819 655.636 852.668 651.332 845.098H651.423ZM272.967 851.857C268.664 844.917 263.639 833.99 263.639 831.444C263.639 825.721 269.88 816.663 275.513 814.117C282.656 810.85 291.014 814.365 295.588 822.386C299.892 830.204 293.741 843.498 284.841 845.255C280.718 846.066 278.69 847.824 278.69 850.46C278.69 855.124 275.423 855.822 272.967 851.857ZM287.229 835.319C292.411 825.541 288.897 818.781 279.659 821.057C274.206 822.476 270.759 830.385 273.057 836.288C274.815 840.952 284.593 840.253 287.229 835.319ZM429.018 840.501C315.483 824.662 215.4 753.914 162.858 652.524C137.78 604.104 126.695 560.372 124.847 502.376C122.459 428.7 139.11 364.711 176.331 304.959C288.198 124.98 535.95 83.1625 701.149 216.321C830.703 320.708 870.74 500.619 797.086 647.139C727.735 785.142 581.711 861.816 429.018 840.501ZM548.185 828.807C621.591 813.148 679.676 780.839 731.25 726.809C830.184 623.211 853.841 467.431 790.123 339.364C717.348 193.092 551.79 116.959 393.193 156.749C264.157 189.126 168.4 288.759 138.749 421.13C131.629 452.989 131.629 529.121 138.749 561.07C153.89 629.542 183.902 684.721 231.42 732.171C285.652 786.201 348.829 818.42 426.809 831.894C453.734 836.558 519.48 834.868 548.185 828.807ZM451.887 821.417C450.58 817.97 452.158 815.874 456.213 815.874C457.79 815.874 459.03 817.812 459.03 820.178C459.03 825.022 453.667 825.991 451.887 821.417ZM470.723 822.116C468.875 819.119 473.021 814.996 476.017 816.843C477.324 817.632 478.383 819.66 478.383 821.417C478.383 825.022 472.841 825.541 470.723 822.116ZM489.468 820.876C489.919 818.781 491.677 816.934 493.434 816.934C498.008 816.934 497.399 823.175 492.645 824.053C489.828 824.662 488.95 823.783 489.468 820.876ZM434.741 820.876C431.835 817.97 433.321 813.396 437.016 814.117C439.134 814.545 440.802 816.213 440.802 817.903C440.802 821.237 437.017 823.175 434.741 820.876ZM507.336 820.178C505.669 817.542 511.661 814.906 514.816 816.934C516.055 817.722 516.505 819.209 515.875 820.358C514.207 822.994 509.026 822.904 507.336 820.178ZM526.532 817.812C524.685 814.816 528.831 810.67 531.805 812.518C533.134 813.306 534.194 815.334 534.194 817.091C534.194 820.719 528.65 821.237 526.532 817.812ZM413.967 814.816C413.967 813.058 415.905 811.548 418.27 811.548C420.659 811.548 422.506 813.058 422.506 814.816C422.506 816.573 420.659 817.97 418.27 817.97C415.815 817.97 413.967 816.573 413.967 814.816ZM546.427 816.663C543.431 813.667 545.008 809.093 548.703 809.881C550.731 810.242 552.398 811.909 552.398 813.577C552.398 816.934 548.613 818.871 546.427 816.663ZM397.068 812.968C394.432 809.791 395.92 807.245 400.313 807.245C403.58 807.245 404.279 812.788 401.282 814.635C400.223 815.334 398.308 814.545 397.068 812.968ZM565.691 812.27C564.902 811.459 564.204 809.611 564.204 808.034C564.204 804.789 569.747 804.068 571.595 807.065C573.082 809.453 567.629 814.207 565.691 812.27ZM377.782 805.826C378.751 801.162 385.014 800.463 385.014 805.127C385.014 806.885 383.167 808.642 381.049 809.093C378.142 809.611 377.264 808.732 377.782 805.826ZM582.409 804.947C580.471 801.973 584.618 797.827 587.705 799.675C588.922 800.463 589.979 802.491 589.979 804.159C589.979 807.764 584.437 808.394 582.342 804.947H582.409ZM359.036 800.644C357.459 798.007 362.303 794.042 365.029 795.709C365.908 796.34 366.697 798.188 366.697 799.945C366.697 803.55 361.154 804.068 359.036 800.644ZM599.578 798.526C597.641 795.439 601.786 791.316 604.873 793.253C608.298 795.371 607.689 800.824 604.061 800.824C602.394 800.824 600.367 799.765 599.578 798.526ZM341.89 794.222C340.042 791.225 344.165 787.08 347.162 788.927C348.491 789.738 349.528 791.744 349.528 793.434C349.528 797.039 343.985 797.647 341.89 794.222ZM618.143 791.496C615.597 788.319 617.018 785.863 621.502 785.863C624.656 785.863 625.466 791.316 622.47 793.163C621.411 793.862 619.473 793.073 618.143 791.496ZM324.181 784.173C324.541 782.168 326.298 780.478 328.056 780.478C329.813 780.478 331.593 782.168 331.931 784.173C332.472 786.832 331.323 787.958 328.056 787.958C324.811 787.958 323.662 786.832 324.181 784.173ZM634.074 783.745C632.226 780.749 634.615 777.234 638.58 777.234C640.518 777.234 641.554 778.721 641.126 780.839C640.337 785.142 636.011 786.922 634.074 783.745ZM307.552 777.054C305.705 773.967 309.85 769.843 312.847 771.781C316.272 773.876 315.731 779.352 312.126 779.352C310.369 779.352 308.341 778.293 307.552 777.054ZM433.231 770.812C429.108 768.514 423.565 766.667 420.907 766.577C418.09 766.487 416.085 765.18 416.085 763.242C416.085 759.006 428.837 758.916 434.47 763.242C440.193 767.545 446.974 767.275 456.911 762.183C468.266 756.37 476.355 756.821 489.04 763.76C499.765 769.754 499.765 769.753 508.304 764.909C518.353 759.186 525.563 758.758 534.53 763.422C542.98 767.816 539.646 772.998 530.926 769.055C523.198 765.518 518.962 765.878 512.721 770.812C505.399 776.535 494.132 776.085 483.768 769.663C473.021 763.062 470.294 763.062 457.789 769.663C445.825 776.085 443.19 776.175 433.231 770.812ZM650.454 771.511C650.972 769.303 652.662 767.545 654.42 767.545C659.083 767.545 658.384 773.809 653.698 774.688C650.814 775.296 649.935 774.417 650.454 771.511ZM292.952 769.303C290.383 766.757 291.533 762.183 294.8 762.183C296.557 762.183 297.954 763.58 297.954 765.27C297.954 768.875 294.98 771.33 292.952 769.303ZM665.143 761.124C665.143 759.367 667.081 757.88 669.47 757.88C671.835 757.88 673.773 759.367 673.773 761.124C673.773 762.881 671.835 764.391 669.47 764.391C667.081 764.391 665.143 762.881 665.143 761.124ZM275.355 755.581C273.485 752.495 277.631 748.372 280.628 750.309C284.052 752.405 283.534 757.88 279.929 757.88C278.172 757.88 276.144 756.911 275.355 755.581ZM432.172 751.435C428.657 749.16 423.565 747.222 420.907 747.222C418.09 747.222 416.085 745.893 416.085 743.955C416.085 739.291 425.143 739.922 435.62 745.375C444.587 750.039 444.586 750.039 454.793 744.316C467.478 737.196 474.869 737.106 485.864 743.865C496.251 750.309 503.394 750.647 510.603 745.014C517.295 739.832 525.384 739.652 534.013 744.496C545.279 750.917 541.042 755.761 529.169 750.129C522.049 746.681 521.418 746.772 514.299 751.188C504.52 757.159 495.461 756.978 483.137 750.377C477.594 747.493 472.052 745.014 470.812 745.014C469.686 745.014 464.121 747.493 458.579 750.377C446.434 756.911 440.712 757.068 432.172 751.435ZM681.074 751.278C679.496 748.619 684.34 744.676 687.067 746.343C688.035 746.952 688.733 748.8 688.733 750.557C688.733 754.162 683.282 754.703 681.074 751.278ZM260.462 745.014C258.615 742.108 261.093 738.593 264.878 738.593C266.545 738.593 267.943 740.53 267.943 742.896C267.943 747.312 262.761 748.8 260.462 745.014ZM696.665 741.499C693.759 738.503 695.245 734.019 698.94 734.718C701.058 735.078 702.726 736.745 702.726 738.413C702.726 741.86 698.941 743.798 696.665 741.499ZM246.831 730.752C247.259 728.566 249.039 726.809 250.796 726.809C255.46 726.809 254.74 733.05 250.076 733.929C247.192 734.447 246.29 733.568 246.831 730.752ZM709.237 727.936C707.3 724.961 709.778 721.424 713.744 721.424C715.659 721.424 716.718 722.934 716.289 724.962C715.501 729.265 711.175 731.112 709.237 727.936ZM232.569 719.396C230.721 716.332 233.11 712.817 237.143 712.817C238.99 712.817 240.049 714.304 239.689 716.422C238.81 720.726 234.506 722.483 232.569 719.396ZM723.409 714.214C720.773 711.037 722.26 708.491 726.676 708.491C729.921 708.491 730.642 714.034 727.646 715.882C726.587 716.513 724.648 715.791 723.409 714.214ZM219.546 704.008C217.698 701.011 221.844 696.865 224.818 698.735C226.148 699.524 227.116 701.619 227.116 703.309C227.116 706.914 221.664 707.432 219.546 704.008ZM734.765 699.772C732.557 696.167 737.581 692.044 740.578 695.018C743.034 697.496 741.457 702.07 738.122 702.07C737.153 702.07 735.643 701.011 734.854 699.772H734.765ZM207.83 688.168C207.83 685.96 209.249 684.901 211.615 685.352C216.121 686.23 215.851 690.016 211.097 690.985C209.159 691.413 207.83 690.196 207.83 688.168ZM745.512 684.721C743.665 681.657 747.789 677.511 750.875 679.449C752.115 680.237 753.173 682.265 753.173 683.933C753.173 687.538 747.608 688.168 745.512 684.721ZM195.866 671.878C195.077 670.571 195.438 668.544 196.654 667.304C199.381 664.578 203.526 666.854 203.526 671.09C203.526 674.695 197.984 675.235 195.866 671.878ZM756.508 670.031C754.571 666.944 756.958 663.429 760.991 663.429C762.839 663.429 763.897 664.939 763.537 667.034C762.658 671.36 758.445 673.117 756.417 670.031H756.508ZM185.14 654.619C184.329 653.403 184.69 651.375 185.929 650.136C188.655 647.41 192.779 649.708 192.779 653.921C192.779 657.526 187.236 658.067 185.14 654.619ZM766.016 651.736C766.016 650.046 766.895 648.108 767.954 647.5C770.32 646.013 775.163 651.465 773.225 653.403C770.679 656.039 766.106 654.89 766.106 651.736H766.016ZM776.041 638.352C775.253 637.563 774.646 635.716 774.646 634.116C774.646 630.871 780.188 630.173 782.036 633.147C783.433 635.535 777.979 640.29 776.041 638.352ZM175.632 633.418C175.632 630.962 177.03 629.114 178.877 629.114C180.635 629.114 182.054 631.052 182.054 633.418C182.054 635.806 180.635 637.654 178.877 637.654C177.03 637.654 175.632 635.806 175.632 633.418ZM222.881 628.055C222.881 625.149 252.892 624.788 480.502 624.788C708.111 624.788 738.122 625.149 738.122 628.055C738.122 630.871 708.111 631.209 480.502 631.209C252.892 631.209 222.881 630.871 222.881 628.055ZM168.152 618.367C167.363 617.128 167.364 615.28 168.062 614.154C169.819 611.337 175.632 613.883 175.632 617.488C175.632 620.913 170.09 621.544 168.152 618.367ZM782.036 618.096C780.369 615.46 785.189 611.585 787.938 613.275C788.885 613.883 789.696 615.731 789.696 617.398C789.696 621.093 784.154 621.544 782.036 618.096ZM331.751 617.06C330.962 616.249 331.503 613.613 332.81 611.067C334.319 608.34 335.716 591.442 336.257 568.731C337.045 535.542 336.685 530.27 333.44 525.336C330.083 520.154 330.083 519.523 333.17 518.306C338.352 516.368 337.316 507.649 331.052 500.957C326.05 495.505 325.87 494.806 329.475 494.175C337.654 492.688 338.803 487.844 338.803 453.079C338.803 430.21 338.014 418.764 336.257 417.006C334.319 415.069 334.41 413.311 336.595 409.165C339.074 404.501 338.803 402.564 334.049 392.537C331.052 386.274 329.295 380.641 330.084 380.033C330.962 379.424 332.291 377.216 333.08 375.008C334.229 371.854 335.806 371.313 340.38 372.462C343.647 373.251 346.892 374.918 347.68 376.157C349.01 378.456 357.368 376.337 372.78 369.916C378.503 367.528 379.471 366.401 377.534 364.013C373.658 359.349 379.9 346.596 386.952 344.816C394.522 342.969 396.798 344.659 396.798 352.049C396.798 355.474 397.947 358.651 399.344 359.079C401.372 359.8 401.372 361.805 399.344 368.677C395.739 380.641 396.009 388.662 400.065 388.662C404.098 388.662 404.098 391.749 399.975 395.872C398.127 397.72 396.708 403.082 396.708 408.377C396.618 413.469 396.099 432.575 395.491 450.803C394.072 495.595 393.104 494.175 422.417 493.387L445.128 492.778L444.948 454.138C444.677 405.38 443.798 397.292 437.985 389.18C431.834 380.551 432.104 379.582 440.103 380.393C446.006 381.002 447.493 380.123 451.008 373.611C453.306 369.465 458.578 363.134 462.814 359.439C470.385 353.018 470.474 352.747 466.937 347.723C462.543 341.392 462.364 337.088 466.6 337.088C468.628 337.088 469.753 335.061 469.753 331.636C469.753 325.192 475.566 315.616 479.442 315.616C483.587 315.616 489.131 325.372 489.131 332.762C489.131 337.967 490.009 339.274 493.614 339.274C498.098 339.274 498.098 339.274 493.795 346.687C489.401 354.167 489.401 354.167 495.98 358.831C499.607 361.377 505.24 367.798 508.484 372.98C511.841 378.185 515.087 381.52 515.785 380.393C517.115 378.185 525.654 379.582 525.654 381.97C525.654 382.759 524.077 385.575 522.229 388.302C517.025 395.692 514.389 414.19 513.42 450.893C512.181 497.172 510.332 493.837 537.279 493.837C552.488 493.837 560.149 492.959 561.568 491.201C564.722 487.236 567.111 421.49 564.204 419.732C562.695 418.763 562.357 415.069 563.236 409.774C564.295 403.803 563.664 399.927 561.299 396.142C556.995 389.631 556.904 386.454 561.117 386.454C565.173 386.454 565.263 378.974 561.208 367.618C558.481 359.958 558.572 358.741 561.299 357.682C563.056 356.983 563.934 355.474 563.145 354.234C560.689 350.201 564.384 343.51 569.206 343.6C575.807 343.69 581.103 348.264 583.919 356.353C585.767 361.715 585.676 363.653 583.648 364.982C580.314 367.01 581.711 367.889 597.461 373.792C609.447 378.275 610.235 378.275 616.206 374.76C623.168 370.615 629.252 371.673 627.315 376.765C626.594 378.545 627.134 380.033 628.441 380.033C631.888 380.033 631.348 383.119 626.256 394.025C623.439 400.018 622.289 405.651 623.078 408.895C623.776 411.802 623.349 416.375 622.109 419.101C620.622 422.459 620.442 434.941 621.591 457.314C623.168 488.813 623.529 490.66 628.103 492.958C633.037 495.324 633.037 495.324 628.621 500.777C623.777 506.95 622.988 515.309 626.864 519.185C628.891 521.213 628.891 522.339 626.864 524.277C623.619 527.634 623.169 606.673 626.436 608.678C627.652 609.399 628.621 611.946 628.621 614.244C628.621 618.277 625.624 618.367 480.771 618.367C399.524 618.367 332.381 617.759 331.683 616.97L331.751 617.06ZM349.01 612.554C346.982 612.036 343.107 612.036 340.47 612.554C337.744 613.095 339.411 613.523 344.165 613.523C348.92 613.523 351.037 613.095 349.01 612.554ZM377.354 609.918C380.26 604.465 380.35 526.755 377.444 524.998C372.149 521.731 375.687 517.675 384.384 516.887C389.408 516.459 381.477 516.008 366.697 516.008C351.916 516.008 343.737 516.459 348.491 516.887C359.576 518.036 362.033 520.492 357.189 525.877C353.764 529.662 353.494 533.965 354.282 568.28C354.823 589.324 355.972 608.25 356.85 610.278C359.306 615.821 374.357 615.55 377.354 609.918ZM391.954 612.554C389.859 612.036 386.502 612.036 384.384 612.554C382.378 613.185 384.046 613.523 388.169 613.523C392.315 613.523 393.982 613.095 391.954 612.554ZM415.994 609.918C419.149 604.015 418.991 529.211 415.724 523.308C413.967 519.883 413.967 518.554 415.724 517.946C417.121 517.427 418.18 514.25 418.18 510.826C418.18 504.742 417.932 504.562 407.455 504.562C397.068 504.562 396.708 504.742 396.708 510.826C396.708 514.25 397.947 517.518 399.434 518.036C401.552 518.824 401.552 519.973 399.434 523.578C396.01 529.301 395.649 603.677 399.006 609.918C400.403 612.554 403.49 614.063 407.455 614.063C411.488 614.063 414.575 612.554 415.994 609.918ZM427.351 612.644C425.841 612.036 423.475 612.036 421.966 612.644C420.569 613.275 421.717 613.703 424.691 613.703C427.598 613.703 428.838 613.275 427.351 612.644ZM440.194 571.727C441.163 538.899 440.712 528.423 438.616 525.336C435.89 521.461 435.71 521.55 433.231 526.124C430.325 531.509 430.955 606.673 433.952 611.427C438.165 617.939 439.135 611.495 440.194 571.727ZM478.925 612.464C473.99 612.035 465.27 612.035 459.638 612.464C454.005 612.914 458.061 613.275 468.718 613.275C479.353 613.275 483.927 612.914 478.925 612.464ZM504.7 612.644C503.213 612.036 500.305 612.036 498.278 612.554C496.16 613.095 497.309 613.613 500.914 613.613C504.429 613.703 506.119 613.275 504.7 612.644ZM511.301 595.137C509.633 574.183 506.299 571.727 506.299 591.532C506.299 603.046 509.634 615.731 511.999 613.275C512.36 613.005 511.999 604.826 511.301 595.137ZM524.144 610.977C525.924 606.313 526.261 529.82 524.504 525.516C522.476 520.402 520.382 520.762 517.115 526.936C514.997 530.788 514.659 541.806 515.538 572.516C516.236 594.777 516.844 613.275 516.844 613.523C517.295 615.551 523.197 613.433 524.144 610.977ZM534.711 612.644C533.224 612.036 530.836 612.036 529.349 612.644C527.862 613.275 529.078 613.703 531.985 613.703C534.982 613.703 536.22 613.275 534.711 612.644ZM560.689 610.887C561.388 609.129 562.628 590.023 563.416 568.461C564.723 533.515 564.475 528.851 561.299 526.305C557.423 523.06 556.544 517.428 559.969 517.428C561.118 517.428 562.086 514.521 562.086 510.983C562.086 504.742 561.816 504.562 551.429 504.562C539.037 504.562 537.708 505.982 540.975 515.4C542.822 520.672 542.823 523.308 540.885 526.485C539.038 529.391 538.677 540.747 539.555 567.492C541.223 615.641 540.885 614.063 551.181 614.063C556.544 614.063 559.878 612.914 560.689 610.887ZM576.62 612.554C574.592 612.036 570.717 612.036 567.99 612.554C565.354 613.095 567.021 613.523 571.775 613.523C576.439 613.523 578.625 613.095 576.62 612.554ZM602.484 611.495C605.751 608.25 606.09 529.121 602.935 527.093C601.696 526.395 600.728 523.939 600.728 521.731C600.728 518.554 602.664 517.518 609.874 516.887C614.899 516.459 606.878 516.008 592.188 516.008C577.408 516.008 569.567 516.459 574.682 516.887C583.221 517.675 583.829 518.126 582.342 522.429C579.255 530.698 578.804 603.767 581.711 609.219C584.617 614.672 597.82 616.091 602.484 611.495ZM619.564 612.554C617.446 612.036 613.66 612.036 610.933 612.554C608.297 613.095 609.965 613.523 614.719 613.523C619.383 613.523 621.592 613.095 619.564 612.554ZM450.399 593.38C450.399 582.632 449.791 579.726 447.222 579.726C444.676 579.726 443.978 582.993 443.978 596.106C443.978 610.368 444.406 612.126 447.222 609.738C449.43 607.89 450.399 602.978 450.399 593.38ZM349.528 569.001C349.528 531.757 349.37 530.36 345.224 530.36C341.079 530.36 340.921 531.757 340.921 569.001C340.921 606.222 341.079 607.642 345.224 607.642C349.37 607.642 349.528 606.222 349.528 569.001ZM392.495 569.001C392.495 531.757 392.315 530.36 388.169 530.36C384.046 530.36 383.865 531.757 383.865 569.001C383.865 606.222 384.046 607.642 388.169 607.642C392.315 607.642 392.495 606.222 392.495 569.001ZM426.809 593.628C426.809 585.809 425.93 579.726 424.691 579.726C423.475 579.726 422.506 585.809 422.506 593.628C422.506 601.559 423.475 607.642 424.691 607.642C425.93 607.642 426.809 601.559 426.809 593.628ZM535.86 592.929C536.378 582.114 535.95 579.726 533.224 579.726C530.588 579.726 529.867 582.543 529.867 593.808C529.867 612.734 534.982 612.036 535.86 592.929ZM574.929 569.001C574.929 537.3 574.501 530.36 571.955 530.36C569.567 530.36 568.778 537.48 568.08 567.311C567.629 587.747 567.54 605.074 567.99 606.042C568.418 606.921 570.108 607.642 571.865 607.642C574.411 607.642 574.929 601.198 574.929 569.001ZM620.081 569.001C620.081 530.36 620.082 530.36 614.719 530.36C609.357 530.36 609.357 530.36 609.357 569.001C609.357 607.642 609.357 607.642 614.719 607.642C620.082 607.642 620.081 607.642 620.081 569.001ZM461.147 577.541C461.147 563.188 460.336 551.832 459.21 551.832C458.061 551.832 456.732 550.075 456.213 548.047C455.673 545.929 455.153 557.555 454.973 573.845C454.793 598.742 455.245 603.316 457.971 603.316C460.607 603.316 461.147 599.013 461.147 577.541ZM501.973 576.481C501.973 560.011 501.184 549.624 499.855 549.624C498.548 549.624 497.67 560.011 497.67 576.481C497.67 592.929 498.548 603.316 499.855 603.316C501.184 603.316 501.973 592.929 501.973 576.481ZM492.736 587.747C492.217 585.111 491.857 587.297 491.857 592.591C491.857 597.864 492.285 600.071 492.736 597.413C493.254 594.777 493.254 590.383 492.736 587.747ZM535.589 558.952C534.801 549.985 534.013 539.08 533.923 534.844C533.652 527.972 533.494 528.332 531.894 537.841C531.015 543.744 530.137 554.649 530.047 561.949C529.957 573.124 530.498 575.422 533.404 575.422C536.468 575.422 536.829 573.395 535.589 558.952ZM426.809 550.165C426.809 534.483 426.111 528.152 424.691 530.36C421.875 534.664 421.875 573.305 424.691 573.305C426.021 573.305 426.809 564.157 426.809 550.165ZM450.219 561.949C450.129 555.798 449.251 545.411 448.372 538.899C446.795 527.093 446.795 527.093 446.434 542.144C446.254 550.413 445.465 560.8 444.766 565.216C443.707 571.817 444.068 573.305 446.975 573.305C449.791 573.305 450.399 571.097 450.219 561.949ZM510.603 550.593C510.603 535.993 509.814 528.423 508.395 529.211C507.246 530 506.299 540.049 506.299 551.922C506.299 564.675 507.178 573.305 508.395 573.305C509.724 573.305 510.603 564.247 510.603 550.593ZM492.555 550.503C491.677 548.317 487.712 547.597 477.866 547.867L464.392 548.317L477.866 549.106C491.249 549.895 491.248 549.895 491.586 559.921C491.946 569.609 491.948 569.699 492.826 561.769C493.254 557.195 493.163 552.193 492.465 550.503H492.555ZM497.67 542.685C497.67 541.806 488.95 541.085 478.383 541.085C467.748 541.085 459.03 541.806 459.03 542.685C459.03 543.563 467.748 544.262 478.383 544.262C488.95 544.262 497.67 543.563 497.67 542.685ZM484.805 534.573C484.805 530.54 478.045 529.662 474.507 533.267C471.263 536.511 471.534 536.782 477.866 536.782C481.651 536.782 484.805 535.723 484.805 534.573ZM472.413 528.152C473.9 525.787 476.716 523.849 478.834 523.849C480.862 523.849 483.498 525.787 484.805 528.152C487.621 533.447 501.973 534.416 501.973 529.391C501.973 527.634 501.005 525.696 499.766 524.998C494.854 521.911 497.759 517.428 504.789 517.428C511.571 517.428 511.842 517.157 510.964 509.947C510.063 502.377 510.062 502.376 478.135 502.376C446.186 502.376 446.187 502.377 446.187 509.947C446.187 516.549 446.795 517.428 451.549 517.428C457.001 517.428 459.3 524.277 454.703 527.093C450.039 530 453.036 532.478 461.147 532.478C467.389 532.478 470.475 531.329 472.413 528.152ZM352.705 523.849C353.583 522.609 350.587 521.731 345.224 521.731C339.862 521.731 336.955 522.609 337.744 523.849C338.443 525.065 341.8 526.034 345.224 526.034C348.649 526.034 352.006 525.065 352.705 523.849ZM395.649 523.849C396.46 522.609 393.892 521.731 389.228 521.731C384.654 521.731 382.018 522.609 382.806 523.849C383.505 525.065 386.411 526.034 389.228 526.034C392.044 526.034 394.951 525.065 395.649 523.849ZM430.076 523.849C430.775 522.7 428.927 521.731 425.75 521.731C422.596 521.731 420.749 522.7 421.447 523.849C422.146 525.065 424.083 526.034 425.75 526.034C427.44 526.034 429.288 525.065 430.076 523.849ZM514.816 522.61C514.816 522.091 512.18 521.731 508.935 521.731C504.609 521.821 503.821 522.339 506.119 523.669C508.845 525.426 514.816 524.637 514.816 522.61ZM536.311 523.849C536.311 522.7 534.373 521.731 531.894 521.731C529.438 521.731 528.109 522.7 528.83 523.849C529.529 525.065 531.557 526.034 533.224 526.034C534.891 526.034 536.311 525.065 536.311 523.849ZM577.137 523.849C577.137 522.7 574.231 521.731 570.716 521.731C567.111 521.731 564.204 522.7 564.204 523.849C564.204 525.065 567.111 526.034 570.716 526.034C574.231 526.034 577.137 525.065 577.137 523.849ZM623.259 523.849C624.048 522.519 620.803 521.731 614.719 521.731C608.636 521.731 605.301 522.519 606.09 523.849C606.788 525.065 610.664 526.034 614.719 526.034C618.685 526.034 622.561 525.065 623.259 523.849ZM451.008 522.429C449.521 521.911 446.704 521.821 444.586 522.429C442.468 522.97 443.707 523.398 447.222 523.488C450.76 523.488 452.518 523.06 451.008 522.429ZM431.654 516.008C430.257 515.49 427.351 515.4 425.233 515.918C423.205 516.549 424.353 516.977 427.868 517.067C431.473 517.067 433.141 516.616 431.654 516.008ZM425.93 505.103C423.564 502.714 421.966 506.5 423.656 510.375C425.233 514.07 425.413 514.07 426.292 510.285C426.81 508.1 426.629 505.801 425.93 505.103ZM441.433 508.257C442.311 503.864 436.138 500.867 432.803 504.134C429.536 507.378 432.622 513.642 437.016 512.764C439.043 512.313 441.072 510.375 441.433 508.257ZM525.564 508.888C525.564 505.711 524.144 504.562 520.201 504.562C513.419 504.562 512.968 510.375 519.75 511.614C522.386 512.133 524.775 512.673 525.046 512.854C525.384 513.011 525.564 511.164 525.564 508.888ZM536.311 507.649C536.311 505.982 534.892 504.562 533.135 504.562C529.868 504.562 528.74 509.068 531.286 511.704C533.224 513.642 536.311 511.254 536.311 507.649ZM392.495 507.739C392.495 504.923 388.619 504.472 366.358 505.013C347.77 505.441 339.952 506.41 339.321 508.257C338.623 510.375 344.796 510.983 365.48 510.983C388.259 510.983 392.495 510.465 392.495 507.739ZM620.081 507.739C620.081 505.103 615.598 504.562 593.247 504.562C570.806 504.562 566.389 505.103 566.389 507.739C566.389 510.465 570.806 510.983 593.247 510.983C615.598 510.983 620.081 510.465 620.081 507.739ZM553.119 498.682C513.329 498.321 447.674 498.321 407.095 498.682C366.607 499.02 399.096 499.29 479.442 499.29C559.72 499.29 592.886 499.02 553.119 498.682ZM376.993 491.269C382.288 485.996 379.629 484.149 367.756 484.847L355.972 485.636L355.521 462.316L355.093 439.087L354.372 461.618C353.493 488.993 355.341 493.837 366.607 493.837C370.933 493.837 375.596 492.688 376.993 491.269ZM456.123 490.48C457.88 485.996 454.974 483.541 452.518 487.416C449.882 491.629 449.971 493.837 452.608 493.837C453.824 493.837 455.424 492.328 456.123 490.48ZM488.433 490.39C490.19 485.816 486.134 483.631 478.293 484.757C473.81 485.478 471.871 486.875 471.871 489.782C471.871 495.144 486.405 495.685 488.433 490.39ZM508.395 492.238C508.305 491.269 507.425 489.174 506.367 487.416C503.911 483.541 501.004 485.996 502.671 490.48C504.001 493.837 508.395 495.144 508.395 492.238ZM575.47 492.418C574.05 491.81 571.595 491.81 570.108 492.418C568.689 492.959 569.927 493.477 572.834 493.477C575.74 493.477 576.957 492.959 575.47 492.418ZM604.783 488.993C606.451 485.816 607.058 476.15 606.63 460.559L605.91 436.879L605.482 461.1L605.031 485.208H581.441L581.013 461.1L580.562 436.879L579.864 460.559C578.985 489.782 580.562 493.837 593.247 493.837C600.277 493.837 602.756 492.778 604.783 488.993ZM617.355 492.328C615.328 491.809 611.902 491.809 609.874 492.328C607.756 492.868 609.446 493.296 613.57 493.296C617.715 493.296 619.473 492.868 617.355 492.328ZM465.902 455.196C465.541 433.905 464.391 418.673 463.242 418.673C462.025 418.673 461.147 433.454 461.147 455.196C461.147 482.91 461.845 491.629 463.873 491.629C465.901 491.629 466.42 483.27 465.902 455.196ZM497.67 455.196C497.67 432.215 496.881 418.673 495.552 418.673C494.133 418.673 493.343 432.215 493.343 455.196C493.343 478.088 494.133 491.629 495.552 491.629C496.881 491.629 497.67 478.088 497.67 455.196ZM349.01 455.895C348.582 433.026 347.68 424.126 345.765 423.518C343.737 422.797 343.107 430.029 343.107 455.016C343.107 482.572 343.647 487.416 346.373 487.416C349.19 487.416 349.528 482.91 349.01 455.895ZM390.287 455.196C390.287 435.121 389.498 422.977 388.169 422.977C387.042 422.977 386.073 428.001 385.983 434.243C385.983 440.416 385.352 454.926 384.654 466.462C383.415 485.028 383.595 487.416 386.772 487.416C389.926 487.416 390.287 483.631 390.287 455.196ZM574.929 455.196C574.929 437.419 574.141 422.977 573.172 422.977C572.113 422.977 570.716 433.274 569.928 445.868C567.72 481.242 568.08 487.416 571.775 487.416C574.501 487.416 574.929 482.391 574.929 455.196ZM617.896 476.06C617.896 454.836 615.079 422.977 613.322 422.977C612.263 422.977 611.452 437.419 611.452 455.196C611.452 482.391 611.993 487.416 614.719 487.416C617.175 487.416 617.896 484.69 617.896 476.06ZM380.35 458.801C381.139 445.328 380.868 438.298 379.562 439.087C378.412 439.785 377.444 449.654 377.444 461.009C377.444 472.365 377.782 481.242 378.232 480.724C378.661 480.273 379.562 470.428 380.35 458.801ZM484.805 476.488C484.805 475.43 482.348 474.46 479.442 474.46C473.291 474.46 472.143 477.998 477.866 479.305C482.259 480.364 484.805 479.305 484.805 476.488ZM373.118 460.559C373.118 442.264 373.118 442.263 366.697 442.263C360.275 442.263 360.275 442.264 360.275 460.559C360.275 478.787 360.275 478.786 366.697 478.786C373.118 478.786 373.118 478.787 373.118 460.559ZM600.728 460.378C600.728 441.993 600.727 441.993 593.765 442.692C586.826 443.39 586.825 443.39 586.104 461.1C585.496 478.787 585.497 478.786 593.158 478.786C600.728 478.786 600.728 478.786 600.728 460.378ZM456.911 445.959C456.911 425.365 456.033 416.195 454.005 413.379C452.157 410.833 450.58 410.224 449.702 411.712C448.913 413.041 449.16 414.708 450.399 415.407C451.728 416.195 452.608 428.43 452.608 445.598C452.608 463.465 453.397 474.46 454.703 474.46C456.033 474.46 456.911 463.555 456.911 445.959ZM506.299 445.778C506.299 420.859 506.817 416.826 509.814 415.587C512.54 414.528 512.811 413.649 510.964 411.712C509.026 409.864 507.696 410.224 505.24 413.379C501.545 418.403 500.487 474.46 504.092 474.46C505.399 474.46 506.299 463.465 506.299 445.778ZM489.131 442.962C489.131 412.252 488.499 410.044 480.32 410.044C471.353 410.044 469.753 415.159 469.753 443.751V469.098H489.131V442.962ZM381.657 427.821C381.567 418.133 377.173 414.347 366.088 414.347C357.819 414.347 355.972 415.159 354.642 419.192C353.245 423.428 352.795 429.06 353.583 432.665C353.674 433.183 360.095 433.724 367.756 433.724C381.567 433.724 381.747 433.634 381.657 427.821ZM607.149 428.181C607.149 417.614 603.725 414.347 592.279 414.347C581.013 414.347 579.256 416.127 579.256 427.461C579.256 433.724 579.255 433.724 593.247 433.724C606.788 433.724 607.149 433.544 607.149 428.181ZM350.587 416.556C351.398 415.316 349.528 414.347 346.283 414.347C343.106 414.347 341.259 415.316 342.048 416.556C342.769 417.705 344.706 418.673 346.283 418.673C347.951 418.673 349.889 417.705 350.587 416.556ZM392.495 416.556C392.495 415.316 390.016 414.347 386.952 414.347C383.865 414.347 382.108 415.316 382.806 416.556C383.505 417.705 385.983 418.673 388.259 418.673C390.647 418.673 392.495 417.705 392.495 416.556ZM577.137 416.556C577.137 415.316 574.681 414.347 571.595 414.347C568.508 414.347 566.66 415.316 567.448 416.556C568.169 417.705 570.626 418.673 572.924 418.673C575.2 418.673 577.137 417.705 577.137 416.556ZM618.955 416.556C619.743 415.226 617.356 414.347 613.233 414.437C607.848 414.437 606.879 414.978 609.357 416.556C613.48 419.192 617.265 419.192 618.955 416.556ZM468.718 412.252C469.416 411.013 467.658 410.044 464.481 410.044C461.484 410.044 459.03 411.013 459.03 412.252C459.03 413.379 460.877 414.347 463.153 414.347C465.541 414.347 467.997 413.379 468.718 412.252ZM499.855 412.252C499.855 411.013 497.85 410.044 495.372 410.044C493.006 410.044 491.586 411.013 492.285 412.252C493.006 413.379 495.034 414.347 496.702 414.347C498.459 414.347 499.855 413.379 499.855 412.252ZM358.878 402.564C357.549 398.959 351.646 398.17 351.646 401.505C351.646 402.654 350.249 403.623 348.491 403.623C346.711 403.623 345.224 402.654 345.224 401.505C345.224 400.266 344.346 399.297 343.107 399.297C342.048 399.297 341.619 400.806 342.318 402.564C343.107 404.682 346.464 405.831 351.826 405.831C358.338 405.831 359.847 405.11 358.878 402.564ZM369.603 402.564C368.995 400.806 367.057 399.297 365.39 399.297C363.79 399.297 362.393 400.806 362.393 402.564C362.393 404.321 364.331 405.831 366.607 405.831C369.513 405.831 370.482 404.772 369.603 402.564ZM392.495 402.564C392.495 398.688 386.862 398.26 385.104 402.046C384.135 404.141 383.595 404.141 382.626 402.046C380.869 398.26 373.118 398.688 373.118 402.564C373.118 404.93 375.686 405.831 382.806 405.831C389.926 405.831 392.495 404.93 392.495 402.564ZM489.648 404.231C485.773 403.803 479.532 403.803 475.657 404.231C471.782 404.682 474.959 405.11 482.62 405.11C490.348 405.11 493.434 404.682 489.648 404.231ZM598.609 402.564C598.609 400.806 599.668 399.297 600.998 399.297C602.304 399.297 602.755 400.806 602.124 402.564C601.155 405.11 602.666 405.831 609.357 405.831C616.477 405.831 617.896 405.02 617.896 401.505C617.896 397.72 616.477 397.201 605.031 397.201C595.005 397.201 592.188 397.9 592.188 400.446C592.188 402.203 590.611 403.623 588.673 403.623C586.555 403.623 585.676 402.474 586.465 400.446C587.163 398.689 586.916 397.201 585.767 397.201C584.708 397.201 582.409 398.689 580.652 400.446C578.894 402.203 576.867 403.623 576.168 403.623C575.56 403.623 574.929 402.203 574.929 400.446C574.929 398.689 573.532 397.201 571.775 397.201C569.927 397.201 568.507 399.139 568.507 401.505C568.507 405.38 569.927 405.831 583.559 405.831C595.523 405.831 598.609 405.11 598.609 402.564ZM609.357 401.505C609.357 400.266 610.325 399.297 611.452 399.297C612.601 399.297 613.57 400.266 613.57 401.505C613.57 402.654 612.601 403.623 611.452 403.623C610.325 403.623 609.357 402.654 609.357 401.505ZM377.444 392.785C370.932 391.906 360.883 391.118 355.003 390.938C341.078 390.69 343.467 388.842 371.721 377.824C384.474 372.913 394.433 368.407 393.802 367.798C393.283 367.19 382.536 370.705 369.963 375.549C357.459 380.393 344.796 384.336 341.89 384.336C336.505 384.336 335.536 385.756 338.263 390.059C340.38 393.326 348.649 394.385 371.022 394.475C388.168 394.475 388.619 394.385 377.444 392.785ZM622.717 390.78C623.168 388.392 615.869 384.877 595.456 377.486C580.134 371.944 567.2 367.798 566.75 368.249C565.691 369.285 574.772 373.071 600.728 382.331L621.14 389.721L595.004 390.78C580.562 391.388 567.99 392.695 567.021 393.664C566.052 394.633 578.106 395.083 593.675 394.723C616.837 394.114 622.199 393.416 622.717 390.78ZM516.597 388.662C517.295 386.724 516.415 386.183 513.937 387.152C511.842 388.031 509.904 387.333 509.183 385.395C508.146 382.759 507.336 382.759 503.033 385.575C498.549 388.572 497.85 388.572 495.98 385.305C494.312 382.241 493.434 382.151 489.468 384.606C485.525 387.062 484.376 386.995 481.199 383.818C477.865 380.483 477.415 380.483 474.869 383.908C472.571 386.995 471.444 387.152 467.748 384.877C462.116 381.43 461.147 381.52 461.147 385.395C461.147 389.631 459.209 389.541 454.365 385.057C450.76 381.79 450.399 381.79 450.399 385.215C450.399 387.964 449.341 388.572 446.187 387.603C443.1 386.634 442.222 387.062 443.01 389.18C444.677 393.416 515.177 392.965 516.597 388.752V388.662ZM392.495 382.15C392.495 378.613 391.706 375.729 390.737 375.729C386.501 375.729 364.579 385.846 365.908 387.152C366.787 387.963 373.028 388.662 379.9 388.662C392.405 388.662 392.495 388.572 392.495 382.15ZM596.244 385.575C595.004 384.336 572.113 375.729 570.108 375.729C569.207 375.729 568.507 378.185 568.507 381.092C568.507 386.274 569.049 386.454 582.86 386.454C590.701 386.454 596.762 386.116 596.244 385.575ZM466.87 378.365C470.294 381.79 470.902 381.79 474.507 378.546C478.045 375.369 478.654 375.369 482.349 378.703C485.864 381.88 486.585 381.97 489.04 378.974C492.555 374.851 495.462 374.85 498.639 379.154C500.915 382.331 501.365 382.241 504.001 379.064C506.637 375.977 505.578 374.31 495.912 365.162C484.557 354.505 482.8 350.63 487.374 346.146C489.402 344.118 487.892 343.51 480.682 343.51C472.751 343.51 471.782 344.028 473.99 346.687C477.505 350.99 475.049 357.321 468.447 360.836C461.147 364.801 454.004 375.008 455.671 379.424C456.821 382.489 457.362 382.399 459.998 378.794C462.904 374.918 463.242 374.85 466.87 378.365ZM343.107 379.064C343.107 376.766 338.983 375.887 337.744 377.824C337.046 379.064 337.834 380.033 339.772 380.033C341.619 380.033 343.107 379.582 343.107 379.064ZM392.495 361.557C392.495 361.106 390.985 360.679 389.228 360.679C387.47 360.679 386.073 361.647 386.073 362.774C386.073 363.923 387.47 364.283 389.228 363.652C390.985 362.954 392.495 361.985 392.495 361.557ZM575.47 363.585C574.05 362.954 571.595 362.954 570.108 363.585C568.689 364.193 569.927 364.621 572.834 364.621C575.74 364.621 576.957 364.193 575.47 363.585ZM577.137 355.834C577.137 354.325 575.199 351.959 572.834 350.449C568.958 348.083 568.507 348.354 568.507 353.198C568.507 357.141 569.657 358.56 572.834 358.56C575.199 358.56 577.137 357.321 577.137 355.834ZM392.495 352.139C392.495 347.205 391.706 346.934 385.893 350.021C380.08 353.198 380.689 356.443 387.11 356.443C390.985 356.443 392.495 355.293 392.495 352.139ZM482.62 337.088C482.62 335.939 480.681 334.97 478.383 334.97C476.017 334.97 474.08 335.939 474.08 337.088C474.08 338.237 476.017 339.184 478.383 339.184C480.681 339.184 482.62 338.237 482.62 337.088ZM484.805 328.459C484.805 327.31 482.348 326.341 479.442 326.341C476.445 326.341 474.08 327.31 474.08 328.459C474.08 329.698 476.445 330.667 479.442 330.667C482.348 330.667 484.805 329.698 484.805 328.459ZM161.01 599.531C161.371 597.503 163.128 595.836 164.885 595.836C166.643 595.836 168.4 597.503 168.761 599.531C169.279 602.167 168.152 603.316 164.885 603.316C161.641 603.316 160.492 602.167 161.01 599.531ZM788.457 600.95C786.609 597.953 790.755 593.808 793.729 595.656C795.059 596.444 796.118 598.472 796.118 600.229C796.118 603.857 790.575 604.375 788.457 600.95ZM155.197 583.962C153.44 581.055 155.828 577.541 159.613 577.541C161.37 577.541 162.768 579.478 162.768 581.844C162.768 586.328 157.585 587.747 155.197 583.962ZM794.877 583.782C793.03 580.785 797.176 576.662 800.241 578.509C801.48 579.298 802.539 581.326 802.539 583.083C802.539 586.688 796.995 587.206 794.877 583.782ZM150.285 563.098C150.623 560.98 152.38 559.313 154.16 559.313C155.918 559.313 157.676 560.98 158.013 563.098C158.554 565.734 157.405 566.793 154.16 566.793C150.893 566.793 149.744 565.734 150.285 563.098ZM799.362 564.765C797.514 561.769 799.903 558.254 803.936 558.254C805.783 558.254 806.843 559.763 806.505 561.769C805.626 566.094 801.3 567.942 799.362 564.765ZM146.5 545.141C145.711 543.902 146.049 541.896 147.288 540.657C150.015 537.931 154.16 540.206 154.16 544.442C154.16 548.047 148.618 548.565 146.5 545.141ZM804.025 543.991C802.02 541.964 804.476 538.899 808.081 538.899C809.748 538.899 811.168 540.387 811.168 542.144C811.168 545.411 806.594 546.56 804.025 543.991ZM144.382 525.877C143.593 524.547 143.931 522.52 145.171 521.303C147.807 518.554 152.042 520.852 152.042 525.065C152.042 528.693 146.5 529.211 144.382 525.877ZM690.942 525.967C690.942 524.728 693.668 522.091 697.093 520.154C702.546 516.977 703.356 515.129 704.325 503.593C704.934 496.473 707.931 485.028 710.928 478.246C713.992 471.486 715.839 465.921 715.05 465.921C714.262 465.921 709.958 469.459 705.542 473.852C695.944 483.18 693.307 482.031 697.881 470.427C701.509 461.099 700.18 460.649 689.275 467.611C685.039 470.337 684.43 470.337 684.43 467.521C684.43 462.767 692.79 453.079 699.211 450.262C704.573 447.987 704.326 447.806 694.097 446.747C683.372 445.508 683.371 445.508 688.733 441.993C691.73 440.056 696.575 437.757 699.482 436.879C702.478 436 705.452 434.332 706.263 433.183C707.84 430.728 723.071 437.42 724.558 441.385C725.347 443.39 727.464 443.233 733.796 440.754C741.456 437.758 742.787 437.757 750.177 441.542C761.172 446.927 762.23 451.051 752.271 449.383C743.214 447.987 742.606 449.744 749.906 455.557C754.93 459.41 761.262 475.7 758.806 478.246C758.085 478.877 755.088 476.308 752.024 472.613C744.971 464.254 742.944 464.164 744.093 472.365C745.242 479.756 743.214 489.511 740.578 489.511C739.609 489.511 737.672 485.816 736.342 481.333C735.036 476.759 732.129 471.396 729.831 469.458C726.046 465.921 725.707 466.282 722.53 478.246C720.682 485.028 718.475 496.564 717.687 503.864C716.29 517.067 716.29 517.157 722.892 520.582C733.977 526.305 730.709 528.152 710.206 528.152C698.242 528.152 690.942 527.364 690.942 525.967ZM715.05 522.339C712.414 521.821 708.021 521.821 705.362 522.339C702.726 522.88 704.843 523.308 710.206 523.308C715.591 523.308 717.686 522.88 715.05 522.339ZM714.532 512.042C714.532 508.708 713.293 506.68 711.355 506.68C709.598 506.68 708.111 507.559 708.111 508.708C708.111 509.767 707.57 512.133 706.781 514.07C705.903 516.459 706.781 517.428 710.025 517.428C713.383 517.428 714.532 516.098 714.532 512.042ZM714.532 498.231C714.532 495.955 713.563 493.477 712.414 492.778C711.175 491.99 710.206 492.328 710.206 493.477C710.206 494.716 709.688 497.172 708.99 499.02C708.111 501.228 708.809 502.376 711.084 502.376C713.112 502.376 714.532 500.619 714.532 498.231ZM716.717 483.878C716.717 482.121 715.749 481.242 714.532 482.031C713.383 482.752 712.414 484.757 712.414 486.537C712.414 488.295 713.383 489.173 714.532 488.452C715.749 487.754 716.717 485.636 716.717 483.878ZM733.615 463.285C726.676 457.405 726.586 457.314 731.858 457.314C734.764 457.314 741.006 459.342 745.692 461.798C754.299 466.282 754.3 466.282 748.419 460.288C743.913 455.715 740.668 454.408 734.494 454.588C726.406 454.746 726.406 454.746 731.43 450.713C734.247 448.414 738.28 446.567 740.398 446.567C742.606 446.567 744.971 445.598 745.692 444.449C748.058 440.506 736.703 442.174 731.161 446.567C724.649 451.682 723.161 451.929 723.161 447.806C723.161 446.049 722.26 444.201 721.291 443.571C720.255 442.962 719.895 444.81 720.503 447.716C721.472 452.741 720.954 452.988 710.995 453.079C704.754 453.169 698.85 454.588 696.304 456.593C692.181 459.95 692.181 460.041 696.124 458.531C705.114 455.467 719.533 454.408 717.956 456.954C717.077 458.373 715.14 459.5 713.653 459.5C712.234 459.5 708.629 461.978 705.722 465.042C700.54 470.675 700.54 470.675 708.899 465.042C713.473 461.978 719.444 459.5 722.193 459.5C726.925 459.5 737.851 470.067 738.37 475.182C738.55 476.579 739.091 475.79 739.699 473.492C740.488 470.518 738.64 467.431 733.615 463.285ZM714.443 445.688C712.775 443.931 708.449 441.993 704.844 441.295C699.211 440.236 699.482 440.574 707.052 444.292C717.597 449.384 718.408 449.564 714.443 445.688ZM805.783 523.849C804.025 520.942 806.415 517.428 810.2 517.428C811.957 517.428 813.286 519.365 813.286 521.731C813.286 526.124 808.171 527.634 805.783 523.849ZM143.413 504.562C143.413 501.317 144.562 500.168 147.198 500.687C149.226 501.047 150.984 502.805 150.984 504.562C150.984 506.319 149.226 508.01 147.198 508.438C144.562 508.978 143.413 507.829 143.413 504.562ZM807.203 503.165C807.722 500.957 809.411 499.2 811.168 499.2C815.832 499.2 815.133 505.441 810.469 506.319C807.563 506.86 806.685 505.981 807.203 503.165ZM222.002 492.238C224.908 479.845 224.908 479.846 215.941 472.365L206.951 464.885L218.487 463.736C230.721 462.587 230.901 462.497 237.413 446.567L241.468 436.879L245.254 448.234C249.557 461.099 253.162 463.736 266.185 463.736H275.513L266.005 471.915C256.587 480.003 256.587 480.003 259.335 491.359C260.823 497.532 261.611 503.075 261.003 503.593C260.552 504.134 256.069 501.656 251.135 498.141C246.223 494.536 241.716 491.629 241.018 491.629C240.319 491.629 235.566 494.536 230.361 498.141C225.269 501.656 220.605 504.562 220.064 504.562C219.546 504.562 220.515 499.019 222.092 492.238H222.002ZM142.354 487.416C140.597 484.51 142.985 480.972 146.748 480.972C148.528 480.972 149.835 482.82 149.835 485.208C149.835 489.692 144.742 491.201 142.354 487.416ZM807.293 483.631C807.653 481.603 809.411 479.845 811.168 479.845C812.925 479.845 814.683 481.603 815.043 483.631C815.561 486.267 814.412 487.416 811.168 487.416C807.901 487.416 806.752 486.267 807.293 483.631ZM144.9 468.828C142.016 465.854 143.503 461.257 147.198 462.069C149.226 462.407 150.984 464.074 150.984 465.763C150.984 469.188 147.199 471.036 144.9 468.828ZM806.054 460.469C805.355 458.531 806.143 456.593 808.081 455.895C812.317 454.318 814.165 456.256 812.565 460.469C810.898 464.705 807.721 464.705 806.054 460.469ZM147.018 449.474C144.112 446.567 145.621 441.993 149.316 442.692C151.434 443.142 153.101 444.81 153.101 446.387C153.101 449.834 149.316 451.772 147.018 449.474ZM802.966 438.569C803.327 436.451 805.084 434.783 806.842 434.783C808.599 434.783 810.379 436.451 810.717 438.569C811.258 441.205 810.109 442.263 806.842 442.263C803.597 442.263 802.448 441.205 802.966 438.569ZM148.776 429.398C147.018 426.492 149.496 422.977 153.191 422.977C154.949 422.977 156.346 424.915 156.346 427.303C156.346 431.697 151.164 433.183 148.776 429.398ZM798.663 417.096C799.114 414.979 800.871 413.311 802.539 413.311C804.296 413.311 806.054 414.979 806.505 417.096C806.933 419.733 805.783 420.792 802.539 420.792C799.362 420.792 798.145 419.733 798.663 417.096ZM153.011 409.864C152.223 408.647 152.561 406.619 153.71 405.38C156.436 402.654 160.582 404.929 160.582 409.165C160.582 412.77 155.129 413.311 153.011 409.864ZM795.487 402.294C792.513 399.297 793.999 394.723 797.785 395.444C799.812 395.872 801.48 397.539 801.48 399.229C801.48 402.564 797.695 404.502 795.487 402.294ZM159.162 391.749C157.585 387.513 159.523 385.575 163.736 387.243C167.972 388.842 167.972 392.087 163.736 393.664C161.889 394.475 159.951 393.596 159.162 391.749ZM787.938 380.551C788.366 378.545 790.124 376.765 791.792 376.765C793.571 376.765 795.328 378.545 795.756 380.551C796.207 383.209 795.059 384.336 791.792 384.336C788.637 384.336 787.397 383.209 787.938 380.551ZM166.395 374.31C163.398 371.403 164.975 366.83 168.671 367.528C170.698 367.979 172.456 369.646 172.456 371.313C172.456 374.67 168.67 376.608 166.395 374.31ZM782.036 364.802C779.828 361.197 784.852 357.141 787.758 360.048C790.304 362.616 788.727 367.19 785.369 367.19C784.31 367.19 782.825 366.131 782.036 364.802ZM174.033 357.051C170.248 355.654 170.698 350.72 174.664 349.142C176.601 348.444 178.539 349.323 179.237 351.261C180.725 355.136 177.818 358.47 174.033 357.051ZM773.496 347.633C771.648 344.569 775.772 340.423 778.768 342.361C780.098 343.149 781.066 345.177 781.066 346.844C781.066 350.449 775.614 351.08 773.496 347.633ZM182.414 338.575C180.476 336.21 180.634 334.88 183.113 332.853C185.749 330.667 186.538 330.825 187.687 333.731C189.624 338.756 185.569 342.361 182.414 338.575ZM764.867 330.487C763.019 327.4 767.165 323.254 770.139 325.192C773.586 327.22 773.046 332.762 769.441 332.762C767.683 332.762 765.655 331.703 764.867 330.487ZM192.17 322.826C189.174 319.829 190.773 315.346 194.468 316.044C196.496 316.405 198.164 318.072 198.164 319.739C198.164 323.187 194.379 325.102 192.17 322.826ZM754.66 314.738C753.331 311.2 754.931 309.172 758.874 309.172C760.473 309.172 761.779 311.11 761.779 313.498C761.779 318.342 756.417 319.311 754.66 314.738ZM200.439 305.139C198.344 301.624 204.855 298.087 207.582 301.264C208.888 302.931 209.339 304.869 208.55 305.567C206.523 307.685 201.859 307.325 200.439 305.139ZM242.167 303.81C242.167 300.994 269.97 300.566 479.442 300.566C688.914 300.566 716.717 300.994 716.717 303.81C716.717 306.626 688.914 307.077 479.442 307.077C269.97 307.077 242.167 306.626 242.167 303.81ZM743.214 297.208C741.367 292.544 745.94 288.151 749.207 291.395C751.934 294.121 750.267 300.566 746.729 300.566C745.513 300.566 743.913 299.056 743.214 297.208ZM212.494 288.421C213.395 283.757 219.636 283.036 219.636 287.7C219.636 289.457 217.878 291.238 215.67 291.666C212.854 292.206 211.976 291.305 212.494 288.421ZM731.07 282.067C729.042 280.039 731.521 276.975 735.036 276.975C736.793 276.975 738.189 278.463 738.189 280.22C738.189 283.397 733.616 284.636 731.07 282.067ZM224.12 275.038C222.633 272.739 228.085 267.895 230.023 269.833C230.811 270.644 231.42 272.559 231.42 274.159C231.42 277.313 225.967 278.034 224.12 275.038ZM717.867 268.526C715.929 265.439 718.317 261.924 722.35 261.924C724.197 261.924 725.257 263.412 724.919 265.529C724.04 269.833 719.804 271.59 717.867 268.526ZM237.053 260.775C235.746 257.261 240.59 254.264 244.195 256.472C247.011 258.23 244.623 264.11 241.108 264.11C239.621 264.11 237.774 262.623 237.143 260.775H237.053ZM383.865 238.334V216.862H395.221C409.641 216.862 416.175 221.075 416.085 230.403C415.994 240.362 413.358 243.179 402.881 244.576C394.252 245.725 393.554 246.333 392.923 252.844C392.405 258.049 391.166 259.807 388.079 259.807C384.226 259.807 383.955 258.139 383.955 238.334H383.865ZM406.486 231.913C406.486 227.429 405.338 226.461 399.434 225.83C392.923 225.221 392.495 225.649 392.495 231.913C392.495 238.154 392.923 238.605 399.434 237.884C405.338 237.365 406.486 236.397 406.486 231.913ZM424.691 259.807V216.862H439.923C453.216 216.862 454.973 217.29 454.365 220.647C453.824 223.464 451.098 224.523 443.438 225.041C435.169 225.582 433.32 226.461 433.32 229.705C433.32 232.972 435.168 233.941 442.401 234.459C448.822 234.91 451.549 236.036 451.549 238.334C451.549 240.61 448.822 241.759 442.401 242.21C434.38 242.818 433.32 243.427 433.32 248.113C433.32 252.935 434.02 253.385 444.069 253.385C452.158 253.385 454.793 254.174 454.793 256.562C454.793 259.108 451.639 259.807 439.743 259.807H424.691ZM471.962 242.728C471.962 225.83 471.871 225.74 466.058 225.041C462.453 224.613 459.908 222.833 459.457 220.647C458.849 217.29 460.697 216.862 476.108 216.862C491.948 216.862 493.434 217.2 493.434 221.166C493.434 224.523 491.947 225.492 486.923 225.492C480.501 225.492 480.502 225.491 480.502 242.638C480.502 258.409 480.141 259.807 476.198 259.807C472.322 259.807 471.962 258.41 471.962 242.728ZM500.734 256.9C500.216 255.323 499.946 245.905 500.306 236.036L500.914 217.921L513.149 217.29C523.198 216.772 526.262 217.471 529.867 221.076C535.162 226.371 535.5 233.49 530.679 240.272C527.412 244.936 527.412 245.725 530.679 251.267C535.162 258.838 535.161 259.807 530.137 259.807C527.771 259.807 524.076 256.63 521.327 252.326C518.781 248.181 515.357 244.756 513.689 244.756C511.662 244.756 510.603 247.212 510.603 252.326C510.603 258.41 509.814 259.807 506.299 259.807C503.821 259.807 501.455 258.477 500.824 256.9H500.734ZM522.139 235.608C527.591 231.552 524.414 225.492 516.753 225.492C511.301 225.492 510.603 226.19 510.603 231.913C510.603 239.033 515.357 240.542 522.139 235.608ZM544.039 245.635C553.997 219.228 555.215 216.862 559.721 216.862C563.056 216.862 565.511 220.986 571.595 236.757C575.808 247.662 579.346 257.351 579.256 258.229C579.256 261.834 570.896 259.446 569.657 255.503C568.598 252.146 566.39 251.177 559.969 251.177C553.547 251.177 551.361 252.146 550.302 255.503C549.424 258.23 547.035 259.807 543.791 259.807C538.676 259.807 538.676 259.807 544.039 245.635ZM564.295 241.669C564.295 241.151 563.146 238.064 561.906 234.729C559.631 229.097 559.36 229.007 557.693 232.972C554.876 240.002 555.395 242.638 559.969 242.638C562.357 242.638 564.295 242.21 564.295 241.669ZM705.295 256.292C702.298 253.205 703.964 249.059 708.268 249.059C711.265 249.059 712.504 250.208 712.054 252.687C711.265 256.63 707.57 258.567 705.295 256.292ZM253.072 249.149C249.738 247.054 251.855 242.638 256.249 242.638C259.583 242.638 260.553 248.113 257.646 249.871C256.677 250.479 254.672 250.118 253.072 249.149ZM689.974 242.728C688.036 239.664 690.401 236.217 694.457 236.217C696.304 236.217 697.363 237.726 697.002 239.731C696.124 244.057 691.911 245.905 689.974 242.728ZM266.816 235.946C264.608 232.431 269.542 228.308 272.539 231.282C274.995 233.761 273.418 238.334 270.151 238.334C269.092 238.334 267.604 237.275 266.816 235.946ZM675.102 230.156C673.413 227.43 677.289 222.585 679.947 224.252C683.372 226.37 682.92 231.913 679.225 231.913C677.558 231.913 675.711 231.125 675.102 230.156ZM280.898 222.225C280.898 220.467 282.746 218.98 285.111 218.98C287.5 218.98 289.437 220.467 289.437 222.225C289.437 223.982 287.5 225.492 285.111 225.492C282.746 225.492 280.898 223.982 280.898 222.225ZM659.691 218.8C657.483 215.262 662.418 211.139 665.414 214.136C667.87 216.592 666.383 221.166 663.049 221.166C661.99 221.166 660.479 220.107 659.691 218.8ZM299.373 215.353C296.827 212.806 298.044 208.233 301.221 208.233C302.978 208.233 304.466 209.63 304.466 211.41C304.466 214.925 301.401 217.38 299.373 215.353ZM643.671 207.354C643.671 205.597 644.55 203.749 645.609 203.051C647.997 201.631 652.752 207.084 650.814 209.022C648.245 211.568 643.671 210.531 643.671 207.354ZM313.974 203.839C312.126 200.752 316.272 196.607 319.358 198.454C320.575 199.265 321.634 201.361 321.634 203.051C321.634 206.656 316.092 207.174 313.974 203.839ZM626.864 198.297C627.314 196.089 629.072 194.331 630.83 194.331C635.493 194.331 634.795 200.572 630.131 201.451C627.224 201.992 626.345 201.113 626.864 198.297ZM331.323 195.39C329.475 192.483 331.931 188.969 335.716 188.969C337.384 188.969 338.803 190.884 338.803 193.272C338.803 197.666 333.598 199.175 331.323 195.39ZM609.694 189.667C610.145 187.549 611.903 185.702 613.66 185.702C618.234 185.702 617.626 191.943 612.872 192.821C610.056 193.452 609.176 192.574 609.694 189.667ZM348.649 187.031C347.162 184.643 352.615 179.889 354.552 181.826C355.341 182.615 355.972 184.463 355.972 186.062C355.972 189.307 350.429 190.005 348.649 187.031ZM592.188 182.705C592.188 180.069 593.608 178.221 595.523 178.221C597.551 178.221 598.61 179.709 598.272 181.826C597.213 187.189 592.188 187.91 592.188 182.705ZM367.147 178.92C368.026 174.256 374.267 173.557 374.267 178.221C374.267 179.979 372.51 181.736 370.302 182.097C367.395 182.705 366.516 181.826 367.147 178.92ZM573.803 178.041C571.595 174.436 576.619 170.291 579.525 173.287C581.981 175.766 580.471 180.339 577.137 180.339C576.078 180.339 574.592 179.28 573.803 178.041ZM385.262 174.887C384.474 173.017 385.352 171.102 387.29 170.381C391.436 168.713 393.374 170.651 391.774 174.887C390.107 179.19 386.862 179.19 385.262 174.954V174.887ZM557.152 174.706C554.178 171.71 555.755 167.226 559.45 167.925C561.478 168.285 563.145 169.952 563.145 171.62C563.145 175.045 559.36 176.892 557.152 174.706ZM403.94 170.561C402.341 166.348 404.278 164.5 408.514 166.077C412.727 167.744 412.727 170.921 408.514 172.589C406.667 173.287 404.729 172.408 403.94 170.561ZM537.798 170.381C534.801 167.384 536.468 163.171 540.794 163.171C543.791 163.171 545.008 164.32 544.58 166.776C543.792 170.741 540.096 172.679 537.798 170.381ZM422.597 165.379C422.597 162.991 423.993 161.053 425.75 161.053C427.508 161.053 429.018 162.991 429.018 165.379C429.018 167.745 427.508 169.592 425.75 169.592C423.993 169.592 422.597 167.745 422.597 165.379ZM440.802 165.379C438.954 162.472 441.432 158.867 445.217 158.867C446.885 158.867 448.281 160.805 448.281 163.171C448.281 167.654 443.1 169.164 440.802 165.379ZM517.024 164.229C517.024 162.472 518.961 161.053 521.327 161.053C523.716 161.053 525.564 162.472 525.564 164.229C525.564 166.077 523.716 167.474 521.327 167.474C518.961 167.474 517.024 166.077 517.024 164.229ZM459.998 162.99C458.15 159.994 462.274 155.87 465.27 157.718C468.718 159.836 468.177 165.379 464.572 165.379C462.814 165.379 460.786 164.32 459.998 162.99ZM479.352 162.99C477.167 159.385 482.078 155.33 485.074 158.236C487.53 160.805 485.954 165.379 482.709 165.379C481.65 165.379 480.141 164.32 479.352 162.99ZM497.67 162.112C497.67 160.354 499.607 158.867 501.973 158.867C504.361 158.867 506.299 160.354 506.299 162.112C506.299 163.869 504.361 165.379 501.973 165.379C499.607 165.379 497.67 163.869 497.67 162.112ZM633.284 839.284C631.437 836.198 631.168 833.99 632.587 832.593C635.764 829.416 639.368 832.593 639.368 838.586C639.368 845.007 637.069 845.255 633.284 839.284ZM691.033 831.444C686.459 815.694 685.917 805.916 689.365 804.609C692.091 803.55 709.417 814.636 717.776 822.567C720.953 825.631 714.352 829.168 710.837 826.261C706.601 822.724 697.454 829.506 698.851 835.139C701.059 843.588 693.398 839.983 691.033 831.444ZM700.541 820.268C701.239 819.119 699.909 817.272 697.634 816.055C694.096 814.117 693.668 814.455 694.637 818.06C695.786 822.656 698.513 823.603 700.541 820.268ZM238.472 822.995C236.714 822.296 235.745 817.542 235.745 809.791L235.655 797.647L229.392 805.127C224.661 810.94 222.542 812.089 220.605 810.152C218.667 808.214 220.424 804.609 228.175 794.493C236.804 783.295 238.81 781.717 241.558 784.015C244.014 786.111 244.533 789.378 243.654 797.039C242.956 802.942 243.226 807.335 244.443 807.335C245.592 807.335 246.561 806.547 246.561 805.668C246.651 804.789 248.589 801.793 250.954 798.886C254.131 795.101 255.889 794.402 257.646 796.16C261.274 799.765 243.406 824.752 238.472 822.995ZM714.623 808.732C705.813 797.038 704.394 793.434 707.931 791.316C710.297 789.806 729.922 815.785 728.344 818.331C726.046 822.026 723.072 819.908 714.623 808.732ZM726.405 799.495C714.712 785.953 714.87 783.475 727.983 776.265C735.553 772.119 735.824 772.119 740.127 775.995C742.605 778.203 744.633 782.326 744.633 785.075C744.633 788.59 746.211 790.437 749.997 791.406C752.903 792.104 755.359 793.591 755.359 794.741C755.359 798.008 749.905 798.976 744.002 796.768C737.153 794.132 734.764 796.768 738.55 802.852C740.397 805.826 740.578 807.854 739.091 809.453C737.582 810.94 733.615 807.854 726.405 799.495ZM735.915 789.108C738.821 785.593 737.243 781.537 732.917 781.537C728.253 781.537 725.009 786.832 727.893 789.739C731.25 793.073 732.828 792.893 735.915 789.108ZM209.767 801.432C209.61 800.463 209.677 797.737 209.857 795.281C210.308 789.378 205.283 785.413 198.073 786.291C187.416 787.44 190.593 782.686 205.892 774.417C226.576 763.242 228.964 765.27 221.123 786.99C217.969 795.799 214.183 803.009 212.674 803.009C211.277 803.009 209.948 802.311 209.767 801.432ZM216.459 780.321C216.459 776.783 213.034 776.175 211.097 779.442C209.339 782.258 211.885 786.201 214.431 784.624C215.58 784.016 216.459 782.078 216.459 780.321ZM750.177 777.414C738.551 765.608 738.371 762.453 749.118 755.942C757.387 750.918 764.168 752.765 766.984 760.763C768.652 765.36 768.134 767.365 764.259 771.511C760.023 775.995 759.842 776.873 762.749 779.352C766.804 782.686 767.165 787.958 763.289 787.958C761.78 787.958 755.899 783.227 750.086 777.414H750.177ZM759.594 767.636C762.501 764.211 760.812 760.065 756.508 760.065C751.844 760.065 748.577 765.36 751.483 768.244C754.84 771.601 756.417 771.421 759.594 767.636ZM182.054 775.724C182.054 774.936 184.6 771.691 187.597 768.514C193.139 762.701 193.139 762.701 184.42 764.999C173.695 767.906 172.185 766.577 176.601 758.127C180.477 750.647 178.449 749.34 172.906 755.761C168.76 760.696 164.885 761.394 164.885 757.339C164.885 752.495 185.659 733.568 189.444 734.988C193.928 736.745 193.68 739.201 188.295 749.678C184.172 757.947 184.082 758.398 187.867 756.911C201.949 751.278 203.977 750.918 207.131 754.094C209.948 756.911 209.069 758.488 198.952 767.275C188.565 776.355 182.144 779.599 182.144 775.724H182.054ZM775.434 758.758C765.926 754.094 762.592 745.375 766.895 736.925C771.041 728.904 779.039 726.629 787.489 731.022C799.205 737.106 801.66 748.372 793.031 756.911C786.88 763.062 784.581 763.332 775.434 758.758ZM790.822 749.16C792.76 742.986 786.158 736.047 779.129 736.925C772.347 737.714 770.769 743.865 775.861 749.498C780.886 755.063 788.974 754.883 790.822 749.16ZM154.16 744.406C154.16 742.896 157.134 739.922 160.762 737.804C168.941 732.96 167.972 731.563 158.374 734.29C148.077 737.264 146.139 734.109 152.223 724.24L157.225 716.062L149.496 721.875C143.142 726.719 141.295 727.237 139.268 724.871C137.42 722.483 139.718 719.847 150.285 712.006C161.641 703.467 164.097 702.498 166.643 705.066C169.211 707.522 168.761 709.28 164.007 716.85C157.067 727.846 157.067 727.936 165.426 725.57C185.388 719.847 188.745 726.539 172.027 738.503C159.523 747.493 154.16 749.25 154.16 744.406ZM793.391 727.598L780.977 718.968L787.669 710.519C796.118 699.952 803.327 699.254 808.599 708.491C810.897 712.547 813.984 714.913 816.981 715.003C819.527 715.003 822.163 715.792 822.861 716.85C824.799 720.117 818.198 723.993 812.047 723.182C804.837 722.303 802.899 726.719 808.959 729.964C813.443 732.442 813.106 736.565 808.352 736.295C806.932 736.295 800.24 732.352 793.391 727.598ZM802.178 715.363C802.719 711.916 801.75 710.699 798.663 710.699C793.639 710.699 790.574 717.121 794.45 719.577C798.573 722.213 801.39 720.635 802.178 715.363ZM133.206 714.575C131.539 712.885 131.449 710.879 132.936 708.221C135.933 702.498 131.719 695.648 125.118 695.648C122.031 695.648 119.823 694.409 119.823 692.652C119.823 689.227 147.198 683.414 152.921 685.6C157.946 687.537 157.405 688.957 145.959 703.647C138.299 713.516 134.964 716.332 133.206 714.575ZM145.621 693.26C145.621 690.624 139.718 690.895 138.051 693.531C135.752 697.226 139.2 700.403 142.534 697.677C144.202 696.257 145.621 694.229 145.621 693.26ZM820.045 698.645C811.866 693.711 810.11 693.35 805.626 695.739C797.875 699.862 797.267 697.045 803.688 686.14C810.2 674.965 812.746 672.757 815.833 675.844C817.23 677.241 817.23 678.48 815.652 679.449C810.808 682.445 813.624 687.019 824.011 692.832C833.947 698.465 836.426 701.98 831.401 703.557C830.342 703.917 825.249 701.71 820.045 698.645ZM113.852 658.765C107.318 652.254 113.402 640.38 121.851 643.016C128.092 645.044 130.119 654.709 125.118 658.405C120.183 662.032 117.187 662.032 113.852 658.675V658.765ZM832.64 658.157C831.131 656.219 830.613 652.614 831.401 649.347C832.55 644.683 833.79 643.985 839.67 644.503C845.055 645.044 846.722 646.351 847.241 650.136C848.66 659.554 838.453 665.096 832.64 658.157ZM68.5195 622.152C62.8867 604.465 55.4064 576.729 55.4064 573.395C55.4064 570.578 59.1917 568.911 72.1246 566.095C92.4476 561.769 96.233 561.679 96.233 565.644C96.233 567.672 90.9608 569.88 80.1234 572.246C71.2461 574.274 64.0357 576.481 64.0357 577.18C64.0357 583.173 75.9097 618.367 77.9375 618.367C79.3344 618.367 91.8395 614.492 105.561 609.738C133.026 600.41 136.992 599.711 136.992 604.195C136.992 606.673 79.154 629.114 72.5749 629.114C71.6061 629.114 69.7587 625.937 68.5195 622.152ZM850.327 617.668C822.771 607.642 816.102 603.676 821.555 600.319C822.524 599.711 836.065 603.924 851.656 609.557C876.643 618.727 880.248 619.516 881.758 616.429C884.484 611.157 893.181 577.27 892.145 576.211C891.604 575.693 884.574 573.665 876.553 571.637C868.554 569.609 861.503 566.703 861.075 565.216C859.836 561.521 867.226 561.769 885.791 566.095C903.659 570.308 903.32 569.429 896.966 592.659C889.576 619.606 886.062 629.114 883.426 628.934C882.097 628.844 867.135 623.819 850.327 617.668ZM78.9964 602.077C77.7572 599.013 76.6085 593.56 76.3381 589.932C75.8199 583.511 76.27 583.173 89.4733 579.208C103.105 575.152 103.105 575.152 101.686 567.244C98.5313 549.534 100.378 550.345 72.5749 554.919C62.5261 556.496 53.9869 557.465 53.5588 557.105C51.9591 555.527 49.323 537.48 47.8359 518.216L46.3267 498.591L69.3082 496.992C82.9395 496.113 92.6277 494.446 93.1684 493.049C93.6866 491.72 93.2364 486.267 92.3577 480.972C90.6904 471.306 90.6903 471.306 68.2493 470.247C45.8083 469.188 45.7179 469.098 46.1685 463.826C46.3262 460.829 47.1374 449.113 47.926 437.847C48.7146 426.582 50.0438 416.195 50.9226 414.798C52.0491 412.86 57.6822 412.951 74.7608 415.407C99.1395 418.854 100.378 418.403 100.469 407.408C100.469 404.141 100.289 400.806 100.018 399.927C99.7704 399.049 90.4199 396.143 79.4248 393.506C68.3394 390.78 58.5611 388.121 57.5922 387.603C55.9249 386.544 69.4884 335.151 72.2146 332.424C73.4538 331.095 108.467 342.18 110.946 344.659C111.374 345.087 111.194 347.025 110.495 348.782C109.436 351.689 107.16 351.351 93.867 346.597C75.9097 340.085 76.9687 339.274 70.3671 363.652C66.9423 376.608 66.4016 381.002 68.4294 382.241C69.8264 383.12 83.4801 386.544 98.621 389.879C119.823 394.475 126.244 396.661 126.244 399.229C126.244 401.077 124.847 410.833 123.09 420.859C121.332 430.908 119.823 442.083 119.823 445.598C119.823 449.203 118.944 453.079 117.795 454.228C115.339 456.683 66.4014 454.227 64.1258 451.591C63.2245 450.623 63.0671 445.08 63.4952 439.357C64.4641 428.88 64.4642 428.88 80.2134 430.21C89.4737 430.998 96.5033 430.638 97.2919 429.489C97.9904 428.362 96.3231 426.942 93.5968 426.334C82.9396 424.036 58.8312 421.039 57.9525 421.918C56.3753 423.427 53.1983 459.86 54.5276 461.888C55.136 462.947 69.6684 463.826 86.6569 463.826H117.705L118.156 488.452C119.034 537.142 122.369 530.879 93.3266 534.416C71.6066 536.962 67.6406 536.962 65.9733 534.416C63.6752 530.788 63.4049 513.8 65.7031 512.493C66.5818 511.952 74.9409 511.164 84.449 510.736C99.4097 510.037 101.618 510.465 102.316 513.732C102.834 516.707 101.528 517.518 95.8947 517.518C80.6637 517.518 72.643 519.974 72.643 524.457C72.643 528.513 73.6115 528.693 88.2342 527.274C113.401 524.908 112.072 526.124 110.495 505.982C109.797 496.383 109.188 484.847 109.188 480.454C109.188 473.852 108.377 472.365 104.862 472.365C100.987 472.365 100.559 473.852 100.559 487.146V501.836L87.3555 503.255C80.123 503.954 69.9164 504.562 64.8244 504.562C55.4965 504.562 55.4963 504.562 55.6766 514.769C55.8343 526.034 58.4932 546.898 59.8902 548.408C60.4084 548.926 73.8821 546.988 89.8116 544.262C105.741 541.446 119.395 539.868 120.183 540.657C121.67 542.234 130.998 582.452 131.449 589.054C131.719 592.321 127.393 594.348 108.039 600.319C79.6048 609.039 81.6325 608.859 78.9964 602.077ZM115.069 590.113C120.454 588.806 123.969 586.688 123.428 585.268C122.91 583.962 120.792 575.423 118.764 566.275C115.7 552.193 114.46 549.624 110.765 549.624C106.89 549.624 106.53 550.593 107.859 557.735C112.523 583.083 113.041 581.146 99.8381 584.142C84.7873 587.477 83.2097 588.536 84.7192 594.078C85.8458 598.562 86.2063 598.562 95.8947 595.656C101.347 593.898 110.067 591.442 115.069 590.113ZM112.343 438.569C113.041 432.936 114.55 423.675 115.7 418.043C118.516 403.623 118.246 401.505 113.672 401.505C108.918 401.505 107.499 405.65 105.561 425.703L104.164 440.236L87.3555 438.816C71.1556 437.419 70.4571 437.6 70.4571 441.903C70.4571 445.959 71.8544 446.477 84.9675 447.175C92.8984 447.536 102.046 448.077 105.223 448.325C110.585 448.685 111.103 447.987 112.343 438.569ZM846.993 599.621C832.1 594.687 824.19 590.992 824.799 589.324C825.34 587.927 828.066 576.729 830.703 564.427C833.339 552.193 836.155 541.446 836.763 540.657C837.484 539.868 851.026 541.446 866.955 544.172C882.885 546.988 896.358 548.926 896.877 548.408C898.476 546.808 901.113 527.183 901.203 515.828C901.383 504.562 901.383 504.562 888.788 504.562C881.826 504.562 871.709 503.954 866.166 503.255C856.23 501.836 856.23 501.836 856.23 487.146C856.23 473.762 855.869 472.365 851.904 472.365C848.029 472.365 847.691 473.762 847.601 486.875C847.601 494.806 846.992 506.32 846.271 512.403C844.784 525.246 844.334 524.998 868.645 527.274C883.336 528.693 884.123 528.513 884.123 524.277C884.123 520.491 882.366 519.703 871.799 518.554C856.05 516.706 853.594 515.918 854.631 512.673C855.262 510.736 859.926 510.105 870.403 510.645C892.145 511.614 892.754 511.953 892.754 522.429C892.664 537.751 892.393 537.841 863.44 534.326L838.002 531.329L838.791 499.2C839.242 481.513 840.031 466.282 840.549 465.403C841 464.524 854.902 463.826 871.282 463.826C887.639 463.826 901.541 463.037 902.082 462.159C902.51 461.257 902.352 452.38 901.631 442.354L900.324 424.036L885.611 424.396C868.555 424.824 860.533 426.492 860.533 429.669C860.533 431.178 865.739 431.426 876.463 430.457L892.303 428.97L893.271 439.357C893.812 445.328 893.182 450.893 891.875 452.29C890.546 453.619 878.762 455.197 864.319 455.805C839.67 456.954 839.062 456.864 838.273 452.29C836.516 443.232 830.432 400.356 830.522 397.72C830.522 396.323 832.64 395.083 835.186 395.083C841.877 395.083 887.03 384.178 889.396 382.06C891.086 380.393 886.76 359.867 881.825 346.416C880.158 341.752 880.158 341.752 864.86 347.205C853.504 351.26 848.93 352.049 847.082 350.291C845.573 348.782 845.483 347.115 846.722 345.966C849.088 343.78 884.124 332.064 885.093 333.123C886.512 334.7 893.542 357.772 897.057 372.282C901.293 389.631 901.54 389.09 884.214 392.785C855.442 398.778 855.599 398.688 856.929 408.287C857.537 413.041 858.507 417.344 859.137 417.975C859.656 418.493 870.133 417.614 882.367 415.857C894.602 414.19 904.987 413.131 905.415 413.559C907.353 415.317 909.742 435.842 909.832 452.47L909.922 470.247H897.328C890.456 470.247 880.339 470.855 874.797 471.554C864.86 472.973 864.86 472.973 864.86 484.239V495.505L887.391 496.992L909.922 498.591L909.832 508.528C909.742 519.613 904.897 555.438 903.41 556.947C902.87 557.465 894.24 556.496 884.214 554.829C858.258 550.593 859.565 550.255 856.569 562.918C853.662 575.513 854.383 576.481 867.316 578.667C871.619 579.478 877.004 581.326 879.1 582.813C882.727 585.449 882.727 586.418 879.731 596.106C877.973 601.829 875.066 606.673 873.376 606.921C871.619 607.101 859.835 603.767 847.082 599.621H846.993ZM871.529 588.445C870.042 587.477 863.531 585.629 857.2 584.142C844.267 581.326 844.514 581.844 848.48 563.278C851.206 550.683 851.116 549.985 847.241 548.926C844.965 548.318 842.757 549.016 842.328 550.346C839.85 557.826 834.488 586.508 835.276 587.387C835.817 587.927 843.906 590.654 853.234 593.47C869.952 598.472 870.222 598.472 872.25 594.348C873.647 591.442 873.377 589.595 871.529 588.445ZM879.1 446.567C885.003 446.567 886.332 445.778 886.332 442.083C886.332 437.757 885.61 437.6 868.802 439.087C851.814 440.574 851.387 440.506 852.446 436.27C853.505 432.395 852.536 425.005 848.57 406.349C847.602 401.595 842.576 399.747 840.391 403.262C839.76 404.231 840.639 414.19 842.328 425.275C844.086 436.45 845.483 446.387 845.483 447.446C845.483 448.505 851.386 448.775 858.686 447.987C865.986 447.176 875.157 446.567 879.1 446.567ZM44.6592 484.419C44.6592 480.634 82.4214 477.029 85.9363 480.544C90.7805 485.388 84.7193 487.416 64.9144 487.416C49.075 487.416 44.6592 486.785 44.6592 484.419ZM870.132 485.028C867.135 480.274 872.858 479.057 892.212 480.274C906.835 481.243 912.107 482.391 912.107 484.509C912.107 488.204 872.34 488.723 870.132 485.028ZM863.801 410.495C859.745 406.439 864.589 403.803 882.186 400.446C901.292 396.661 909.652 397.719 903.05 403.082C899.783 405.65 865.468 412.162 863.801 410.495ZM68.6996 406.867C43.4423 401.865 46.5067 394.903 72.0345 399.229C91.569 402.564 94.0472 403.443 94.0472 407.048C94.0472 410.743 87.7835 410.652 68.6996 406.867ZM101.618 381.88C88.5721 378.365 77.667 375.098 77.2389 374.67C76.7883 374.219 77.5769 368.947 78.9964 362.954C81.9705 350.449 83.2098 350.111 101.347 356.353C113.582 360.588 113.582 360.588 115.858 354.775C121.761 339.634 120.454 337.606 99.4998 328.639C88.9327 324.065 79.8754 319.311 79.4248 317.982C78.118 313.926 103.105 264.11 106.44 264.11C108.13 264.11 117.547 268.954 127.303 274.857C137.082 280.76 146.049 285.605 147.288 285.605C150.015 285.605 161.19 266.769 159.793 264.471C159.162 263.592 150.984 257.508 141.475 251.087C131.967 244.665 124.217 238.064 124.217 236.307C124.149 233.31 151.344 196.179 157.225 191.244C159.613 189.217 163.398 191.515 176.601 203.051C191.742 216.231 194.807 220.895 189.444 222.675C188.295 223.013 181.265 218.012 173.785 211.41L160.131 199.513L146.32 217.133C138.749 226.799 133.297 235.338 134.175 236.217C135.144 237.095 146.748 245.206 160.041 254.264C173.244 263.321 184.51 271.523 185.05 272.311C185.569 273.1 181.355 281.279 175.723 290.426C170 299.596 162.61 312.439 159.253 318.861C155.918 325.372 152.043 330.667 150.713 330.667C147.897 330.667 106.98 311.831 103.195 308.744C101.077 306.987 101.775 304.26 106.191 296.059C109.346 290.269 112.523 285.605 113.221 285.605C116.218 285.605 147.717 303.202 147.717 304.869C147.717 309.713 142.354 308.924 129.781 302.233C116.916 295.361 115.947 295.181 113.672 298.808C112.342 300.903 111.194 303.202 111.194 303.81C111.194 305.049 148.167 322.466 148.866 321.587C149.136 321.249 151.502 316.833 154.07 311.651C156.616 306.536 162.519 296.239 167.003 288.849C173.064 278.913 174.664 274.677 172.906 272.92C168.941 269.044 167.702 270.013 159.523 283.397C155.197 290.516 151.164 296.33 150.533 296.33C149.925 296.33 140.867 291.485 130.39 285.605C119.913 279.702 110.315 274.857 109.008 274.857C105.403 274.857 87.6937 314.287 90.6002 316.134C91.9296 316.923 104.772 322.646 119.305 328.82C133.725 334.971 145.621 340.964 145.621 342.181C145.621 347.723 129.692 388.662 127.574 388.482C126.244 388.392 114.55 385.395 101.618 381.88ZM130.818 361.715C136.384 346.596 136.451 345.537 132.846 343.6C128.543 341.302 126.244 344.907 122.031 360.498C119.305 370.705 120.454 370.434 102.745 365.072C92.1099 361.805 88.5047 361.467 87.1753 363.495C84.2688 368.069 85.2377 369.128 94.5656 371.493C99.59 372.823 108.039 375.189 113.402 376.698C118.674 378.275 123.518 379.064 124.059 378.613C124.577 378.095 127.664 370.524 130.818 361.715ZM818.829 365.861C814.503 353.266 811.258 342.721 811.596 342.361C811.956 342 824.709 336.367 839.94 329.788C855.171 323.254 868.105 317.374 868.645 316.833C870.042 315.436 851.656 276.975 849.539 276.975C848.66 276.975 839.513 281.819 829.216 287.7C818.919 293.603 809.659 298.447 808.69 298.447C807.653 298.447 803.057 292.635 798.663 285.605C791.363 274.159 790.034 273.01 786.699 275.466C783.184 278.034 783.882 279.972 796.635 301.084C810.289 323.885 810.289 323.885 818.919 320.1C827.278 316.315 827.435 316.314 827.435 320.528C827.435 323.524 824.619 326.003 818.018 328.82C812.926 331.005 807.811 332.762 806.752 332.762C805.626 332.762 801.48 326.251 797.424 318.342C793.391 310.321 786.159 297.997 781.337 290.967C776.493 283.825 772.528 277.493 772.528 276.795C772.528 276.097 784.491 266.926 799.204 256.562L825.948 237.636L819.617 228.826C816.17 224.072 809.658 215.803 805.084 210.598L796.906 201.113L783.612 213.348C771.468 224.523 764.777 227.249 766.444 220.287C767.413 216.772 796.298 190.816 798.483 191.605C801.39 192.574 834.668 234.91 834.758 237.636C834.758 238.943 826.556 246.175 816.53 253.656C806.503 261.046 798.303 267.895 798.303 268.864C798.303 269.743 800.961 274.767 804.205 279.972L810.109 289.457L830.095 277.854C841.09 271.433 851.026 266.228 852.266 266.228C855.871 266.228 879.979 318.342 877.613 321.159C876.464 322.465 866.797 327.22 856.05 331.703C834.916 340.513 835.276 339.815 841.27 355.474C843.635 361.647 843.207 361.647 863.35 355.474C873.646 352.229 873.647 352.229 876.914 359.957C882.885 374.31 881.307 376.157 857.289 382.579C825.25 391.118 827.977 392.267 818.829 365.861ZM853.234 375.279C867.406 371.584 871.282 369.736 871.282 366.739C871.282 361.985 868.803 361.895 854.293 366.221C848.029 368.068 841.608 369.128 840.121 368.497C838.544 367.888 835.546 361.985 833.428 355.384C830.792 346.935 828.765 343.78 826.647 344.569C825.07 345.177 822.861 345.718 821.802 345.718C820.766 345.718 822.344 352.229 825.341 360.228C828.247 368.159 831.063 375.887 831.581 377.396C832.73 380.821 832.1 380.821 853.234 375.369V375.279ZM839.94 315.346C839.151 314.016 840.549 311.29 843.118 309.353C847.151 306.356 847.421 305.387 844.875 301.962C842.149 298.177 841.45 298.267 830.184 304.689C817.229 311.989 811.168 313.048 811.168 308.136C811.168 306.288 818.379 301.354 828.157 296.42C846.452 287.182 846.271 287.182 852.783 299.935C857.537 309.263 857.199 310.772 849.899 314.467C842.328 318.432 841.877 318.433 839.94 315.346ZM809.05 273.889C809.05 272.131 816.013 266.228 824.462 260.775C843.366 248.541 844.695 248.023 846.182 251.966C846.993 254.174 842.148 258.477 830.184 266.048C811.866 277.764 809.05 278.733 809.05 273.889ZM129.421 264.043C111.824 252.935 109.346 250.479 113.312 248.113C115.52 246.694 146.5 264.651 149.046 268.774C149.744 270.013 149.496 271.771 148.437 272.83C147.288 274.069 139.628 270.554 129.421 264.043ZM748.329 250.208C739.249 240.452 731.678 231.733 731.678 230.854C731.678 227.948 781.946 176.104 784.672 176.104C790.395 176.104 787.218 181.398 770.59 199.603L753.692 218.079L761.96 227.069L770.319 235.946L782.644 225.401C789.516 219.498 795.577 214.744 796.298 214.744C798.664 214.744 811.506 232.003 810.717 234.189C809.748 237.185 769.801 268.346 767.165 268.256C766.016 268.166 757.476 260.077 748.329 250.208ZM785.032 245.725C801.12 233.22 801.57 232.702 798.483 227.857C796.298 224.433 794.451 225.311 780.977 236.577C775.615 241.061 770.409 244.756 769.441 244.756C768.562 244.756 763.38 239.912 757.995 233.941C749.388 224.253 747.878 223.374 745.061 226.28C742.155 229.097 743.214 231.034 754.209 243.516C760.991 251.357 767.255 257.689 768.134 257.689C768.923 257.689 776.583 252.236 785.032 245.725ZM169.549 250.028C157.585 240.97 147.717 232.522 147.717 231.125C147.807 229.795 151.073 224.861 155.039 220.107L162.249 211.567L174.123 221.797C180.635 227.339 186.988 231.913 188.205 231.913C189.354 231.913 193.32 228.308 196.924 223.982L203.436 215.983L186.177 198.297C170.789 182.525 167.183 176.104 173.695 176.104C176.241 176.104 224.998 225.311 224.998 227.948C224.998 229.525 213.643 242.728 194.987 262.623C191.472 266.408 190.413 265.89 169.549 250.028ZM200.439 245.454C214.274 229.006 215.152 227.587 212.245 224.771C210.308 222.833 207.491 224.681 200.101 232.431C194.806 238.064 189.534 242.638 188.385 242.638C187.326 242.638 182.752 239.483 178.359 235.608C163.398 222.495 162.7 222.135 160.492 225.582C159.433 227.339 158.554 229.345 158.464 230.246C158.464 231.823 188.655 255.413 190.773 255.503C191.382 255.503 195.685 250.997 200.439 245.454ZM244.713 199.266C239.261 193.79 241.806 186.941 250.616 183.403C264.788 177.703 264.788 177.613 243.654 143.005C230.721 121.803 230.721 121.804 235.655 117.838C245.411 109.84 246.223 110.538 268.393 146.88C280.267 166.505 281.934 177.861 274.206 187.639C266.726 197.148 249.467 203.929 244.713 199.266ZM687.247 195.48C680.285 191.244 680.285 191.245 679.767 161.684L679.136 132.1L666.564 151.905C659.602 162.81 652.82 171.8 651.423 171.8C647.728 171.8 639.459 165.469 639.459 162.652C639.459 159.115 678.707 99.0021 681.794 97.8755C683.191 97.2446 687.337 99.2722 690.942 102.269C697.363 107.721 697.363 107.721 697.453 135.975V164.229L709.147 146.182C715.591 136.246 721.223 127.076 721.651 125.859C722.62 122.952 738.189 129.825 738.189 133.069C738.189 136.336 697.363 199.694 695.245 199.694C694.637 199.694 691.032 197.756 687.247 195.48ZM310.909 156.479C298.224 151.387 287.928 135.705 285.81 118.108C282.746 91.9723 308.701 70.4101 334.838 77.4398C362.213 84.7625 374.267 125.071 355.341 145.754C345.225 156.839 324.36 161.841 310.909 156.479ZM339.592 137.305C354.372 125.589 338.983 89.7641 320.575 93.2789C306.764 95.9376 301.041 110.02 307.462 125.499C314.244 141.518 327.808 146.543 339.592 137.305ZM615.778 153.843C608.996 151.635 608.208 150.576 607.6 142.397C606.969 133.52 606.878 133.429 593.765 129.013C580.652 124.53 580.652 124.53 574.929 131.402C569.747 137.643 568.598 138.093 562.086 136.246C558.121 135.097 554.606 133.069 554.178 131.74C553.367 129.554 596.153 75.164 603.363 69.2609C605.999 67.0528 608.298 67.0528 614.99 69.2609C623.349 71.9871 623.348 71.987 624.655 93.369C626.593 124.71 626.773 154.203 624.926 155.33C624.047 155.87 619.901 155.172 615.778 153.843ZM607.24 102.787V89.5838L599.668 99.4525C590.79 111.056 590.792 111.236 597.033 113.715C606.361 117.5 607.24 116.621 607.24 102.787ZM391.526 130.433C388.89 118.717 381.567 60.0233 382.626 58.356C383.257 57.3871 393.374 55.2692 405.157 53.7821C422.844 51.3938 427.688 51.3938 433.411 53.7821C441.77 57.2068 448.281 67.3231 448.281 77.0115C448.281 84.0412 442.559 96.6361 439.315 96.6361C435.53 96.6361 437.985 101.818 446.187 111.056C455.425 121.623 456.641 125.499 451.368 127.526C442.739 130.861 437.985 128.676 427.959 116.869C420.568 108.24 416.423 105.176 413.178 105.604C409.032 106.235 408.672 107.451 409.303 118.987C410.001 132.799 408.424 135.187 398.466 135.277C394.072 135.277 392.314 134.038 391.526 130.433ZM425.841 85.7986C429.896 82.5541 429.896 74.2854 425.93 71.0184C424.263 69.6215 418.721 68.7427 413.606 69.1708C403.49 69.8693 401.282 73.6544 404.188 85.2805C405.428 90.2148 406.396 90.6428 414.147 89.5838C418.901 88.9755 424.083 87.3082 425.841 85.7986ZM396.798 82.1939C396.798 80.7068 394.86 79.4675 392.495 79.4675C390.106 79.4675 388.169 80.8869 388.169 82.5542C388.169 84.3116 390.016 85.4607 392.495 85.2805C394.86 85.1002 396.798 83.7936 396.798 82.1939ZM484.196 127.256C479.712 126.828 475.568 125.228 475.049 123.921C473.382 119.347 479.893 51.3938 482.169 49.028C486.314 44.9724 522.746 50.5149 532.074 56.6658C554.335 71.3787 551.79 111.957 527.862 124.011C518.354 128.856 507.087 129.644 484.196 127.256ZM517.992 110.358C526.892 106.933 531.106 82.9822 524.504 73.5642C522.656 71.0182 517.564 67.8638 513.238 66.7147C498.368 62.569 498.189 62.7493 496.702 81.0446C495.981 90.2147 494.944 100.85 494.313 104.725C493.164 111.687 493.163 111.687 503.91 111.687C509.723 111.687 516.055 111.056 517.992 110.358ZM277.901 900.547C277.113 898.699 276.572 896.761 276.572 896.221C276.572 895.702 275.693 895.342 274.634 895.342C273.485 895.342 273.147 897.279 273.756 899.645C274.454 901.943 275.873 903.881 277.022 903.881C278.239 903.881 278.6 902.394 277.901 900.547ZM798.303 827.321C798.303 823.085 793.121 824.932 792.243 829.506C791.702 831.984 792.512 832.683 794.877 831.714C796.725 831.015 798.303 829.078 798.303 827.321ZM119.823 775.206C119.823 774.147 118.854 772.57 117.705 771.871C116.489 771.151 115.519 772.029 115.519 773.877C115.519 775.724 116.489 777.234 117.705 777.234C118.854 777.234 119.823 776.355 119.823 775.206ZM897.845 695.986C895.997 686.749 889.328 687.379 890.027 696.707C890.816 707.522 892.392 709.821 896.087 706.126C898.295 703.918 898.814 700.831 897.845 695.986ZM132.238 169.321C131.719 167.744 130.751 168.713 129.94 171.62C129.061 175.135 129.331 176.013 130.908 174.436C132.148 173.197 132.756 170.921 132.238 169.321ZM832.911 164.748C831.131 162.991 830.522 163.17 830.522 165.626C830.522 169.862 833.339 172.769 834.488 169.592C834.917 168.195 834.218 165.987 832.911 164.748ZM328.056 38.6412C328.056 37.4922 326.659 36.5231 324.901 36.5231C323.144 36.5231 321.634 37.4922 321.634 38.6412C321.634 39.8579 323.144 40.8267 324.901 40.8267C326.659 40.8267 328.056 39.8579 328.056 38.6412ZM452.067 7.90846C452.337 3.33464 452.337 3.33479 449.251 7.39039C447.583 9.66603 446.187 10.635 446.187 9.59858C446.097 7.21028 441.95 13.1135 441.95 15.5693C441.86 19.5348 451.729 12.0542 452.067 7.90846Z" fill="#383B40"/>
</svg>
