<svg width="961" height="689" viewBox="0 0 961 689" fill="none" xmlns="http://www.w3.org/2000/svg">
<path fill-rule="evenodd" clip-rule="evenodd" d="M450.319 624.277C447.733 622.664 447.733 621.857 450.567 616.995C452.264 614.016 455.657 605.616 457.995 598.334C462.05 586.127 462.773 585.094 467.387 585.652C471.814 586.128 472.787 587.99 477.069 602.782C479.655 611.906 482.572 619.664 483.627 620.077C488.468 621.774 484.91 626.222 478.683 626.222C471.587 626.222 467.615 622.912 471.732 620.408C475.538 617.967 472.063 614.491 465.918 614.491C460.022 614.491 456.629 617.244 459.939 619.354C462.774 621.05 460.105 626.222 456.381 626.222C454.602 626.139 451.871 625.333 450.319 624.361V624.277ZM469.642 605.285C469.559 603.34 468.835 600.114 468.028 598.024C466.725 594.693 466.249 595.106 464.222 600.754C461.387 609.092 461.325 608.678 465.836 608.678C468.339 608.678 469.725 607.395 469.642 605.285ZM489.275 623.305C489.275 621.691 490.165 620.408 491.22 620.408C492.358 620.408 493.164 614.575 493.164 606.816C493.164 599.389 492.275 592.769 491.22 592.107C486.524 589.211 489.358 585.011 495.585 585.652C501.005 586.128 502.847 587.907 509.405 598.893C516.915 611.596 516.915 611.595 515.86 602.782C515.301 598.024 514.329 592.19 513.605 589.935C512.549 586.542 513.274 585.569 517.887 584.68C524.342 583.377 528.231 586.128 524.756 589.521C523.142 591.135 522.811 596.638 523.701 608.038C524.921 624.195 524.921 624.277 520.225 624.277C516.584 624.277 513.77 621.442 507.295 611.098L499.061 597.941L500.261 607.705C501.006 613.043 502.371 618.464 503.343 619.747C506.322 623.553 503.261 626.222 495.978 626.222C491.303 626.222 489.275 625.332 489.275 623.305ZM426.404 622.912C422.845 622.023 421.707 617.326 424.707 616.126C425.597 615.795 426.962 609.568 427.769 602.306C428.907 591.217 428.659 589.21 426.155 589.21C424.542 589.21 422.68 590.1 421.956 591.135C420.011 594.3 417.114 591.383 417.114 586.294C417.114 581.928 417.507 581.762 429.32 582.652C448.457 584.121 450.237 584.68 450.237 590.183C450.237 595.024 445.809 596.969 443.451 593.079C442.809 592.024 441.113 591.135 439.747 591.135C436.499 591.135 433.769 614.346 436.582 617.243C442.003 622.663 436.665 625.643 426.404 622.912ZM398.123 619.912C389.806 618.712 385.917 617.16 385.917 615.298C385.917 613.767 386.723 612.568 387.696 612.568C390.199 612.568 394.089 588.238 392.537 582.094C391.254 577.087 391.419 576.922 397.564 578.143C401.101 578.867 404.743 579.424 405.633 579.424C408.301 579.424 407.66 584.846 404.991 585.735C403.605 586.211 401.598 592.355 400.46 599.389C398.371 612.071 398.371 612.237 402.881 613.126C405.322 613.602 407.412 613.209 407.412 612.319C407.412 611.347 409.191 610.624 411.363 610.624C414.611 610.624 415.335 611.678 414.839 615.878C414.032 622.167 413.473 622.25 398.123 619.912ZM548.754 620.326C548.113 619.271 548.278 617.326 549.085 615.961C549.974 614.575 551.982 606.092 553.595 596.969C556.264 581.618 556.926 580.314 561.436 579.839C565.884 579.259 567.187 580.873 574.056 594.941C578.255 603.506 582.372 610.624 583.262 610.624C586.096 610.624 584.876 616.043 581.731 617.243C575.669 619.518 570.89 618.547 571.222 614.989C571.946 608.369 571.139 607.396 565.408 608.203C560.236 609.01 555.064 614.491 559.512 614.491C560.546 614.491 561.353 615.712 561.353 617.243C561.353 621.691 551.092 624.278 548.754 620.326ZM567.187 600.361C567.187 598.975 565.884 595.748 564.353 593.079C561.684 588.404 561.519 588.321 561.519 592.438C561.436 594.693 560.877 598.024 560.236 599.72C559.346 601.892 560.236 602.782 563.133 602.782C565.408 602.782 567.27 601.727 567.187 600.361ZM238.761 612.961C156.732 575.474 87.5502 516.14 58.1315 458.048C51.6768 445.283 51.5938 444.869 55.1521 444.869C56.6831 444.869 61.8554 451.737 66.6965 460.074C99.8391 517.194 154.063 564.157 229.617 601.334C248.857 610.706 256.78 615.547 255.001 616.685C251.525 618.857 252.001 619.023 238.761 612.961ZM590.048 613.21C589.324 612.486 589.655 610.871 590.772 609.485C593.048 606.733 587.462 581.37 584.565 581.37C580.924 581.37 583.097 575.867 587.214 574.75C596.834 572.226 598.861 573.115 597.495 579.342C596.109 585.735 600.081 606.651 602.667 606.651C603.557 606.651 604.364 607.872 604.364 609.403C604.364 613.126 592.965 616.127 590.048 613.21ZM352.857 607.705C348.43 603.03 348.43 602.617 351.078 590.659C352.547 583.956 353.519 576.281 353.188 573.778C352.546 569.495 353.022 569.164 358.836 570.385C367.339 572.081 367.731 572.722 363.863 579.259C359.249 587.183 357.305 602.7 360.698 604.81C367.483 609.01 374.207 597.052 374.207 580.791C374.29 573.777 374.435 573.529 379.607 574.75C387.365 576.591 389.475 579.177 385.503 582.094C383.662 583.459 381.634 588.155 380.91 592.603C378.717 606.175 373.628 612.568 364.815 612.568C359.415 612.568 356.105 611.181 352.857 607.705ZM613.074 608.596C612.516 607.706 612.598 605.699 613.24 604.065C614.853 599.948 608.481 578.783 605.088 576.838C603.619 576.032 602.337 574.501 602.337 573.529C602.337 570.86 623.356 565.212 628.528 566.494C634.258 567.942 638.21 576.364 635.479 581.37C633.121 585.818 636.431 592.437 641.851 594.134C643.713 594.775 645.244 596.968 645.244 598.975C645.244 605.202 636.514 603.837 631.59 596.969C629.335 593.721 626.17 591.073 624.639 591.073C620.997 591.073 621.08 597.776 624.804 600.838C626.418 602.141 627.721 603.838 627.721 604.645C627.721 606.734 614.212 610.458 613.074 608.596ZM625.446 583.459C629.087 581.204 627.473 574.749 623.108 573.86C618.184 572.887 615.908 575.618 617.294 580.873C618.494 585.486 621.08 586.293 625.446 583.459ZM314.563 597.859C308.894 592.19 309.225 588.404 315.452 587.515C318.204 587.101 319.652 587.907 319.652 589.852C319.652 593.328 326.603 597.611 329.437 595.914C332.913 593.721 331.444 590.018 324.493 583.542C313.673 573.281 317.148 561.82 331.134 561.82C338.478 561.82 347.54 569.639 345.76 574.336C344.064 578.784 338.395 578.059 336.223 573.115C333.72 567.632 329.748 566.412 328.134 570.612C327.245 572.888 328.775 575.784 332.83 579.508C340.671 586.852 342.202 592.025 338.313 598.024C333.782 604.81 321.431 604.727 314.563 597.859ZM652.837 596.245C652.692 595.024 652.754 592.769 652.92 591.3C653.582 586.79 645.079 566.102 642.099 564.964C640.651 564.323 639.348 563.101 639.348 562.129C639.348 559.233 656.312 553.73 663.181 554.371C675.801 555.592 677.663 572.308 665.767 577.729C660.595 580.066 658.898 587.183 663.512 587.183C669.967 587.183 668.125 592.604 660.678 595.5C655.195 597.693 653.002 597.941 652.754 596.245H652.837ZM661.65 572.308C665.622 570.86 665.684 562.626 661.815 561.075C659.229 560.102 653.085 561.323 653.085 562.854C653.085 564.55 656.974 573.529 657.781 573.529C658.174 573.529 659.954 572.97 661.65 572.308ZM275.276 583.956C273.828 583.377 272.855 579.426 272.855 574.419C272.855 569.806 271.8 565.357 270.6 564.55C267.517 562.688 263.318 568.916 264.538 573.612C265.593 577.895 263.732 578.288 256.367 575.557C251.608 573.695 249.27 567.715 253.47 567.715C256.139 567.715 266.959 544.524 265.738 541.359C263.897 536.435 268.987 536.435 278.669 541.359C293.792 549.034 296.543 559.543 284.648 564.715C280.696 566.494 280.365 567.716 281.337 575.949C282.393 585.239 281.503 586.46 275.276 583.956ZM282.31 555.261C282.951 551.62 279.724 548.227 275.524 548.227C273.021 548.144 270.517 555.757 272.131 558.405C273.993 561.405 281.586 559.068 282.31 555.261ZM297.66 579.032C292.344 577.087 290.874 574.667 294.04 572.722C296.46 571.191 308.087 576.032 307.363 578.205C306.391 581.039 303.722 581.204 297.66 579.032ZM687.676 575.557C681.449 570.612 676.028 557.371 677.662 550.978C679.193 544.668 687.345 538.462 693.82 538.462C709.812 538.462 719.991 563.268 708.695 574.584C702.861 580.481 694.379 580.79 687.676 575.473V575.557ZM704.971 566.329C707.061 557.929 700.358 547.172 693.013 547.172C687.924 547.172 687.117 548 686.621 553.089C685.421 566.992 701.826 578.949 704.971 566.329ZM840.169 567.55C838.555 566.578 834.273 565.687 830.466 565.687C823.681 565.605 823.681 565.605 832.411 558.489C842.838 550.006 876.208 516.801 883.801 507.43C888.745 501.285 889.387 501.037 892.614 504.037C894.559 505.733 897.538 507.182 899.4 507.182C901.179 507.182 902.647 507.74 902.647 508.464C902.647 511.857 852.706 563.909 845.589 567.861C844.12 568.688 841.7 568.522 840.169 567.55ZM726.053 563.185C725.494 561.654 725.246 559.709 725.577 558.736C726.549 555.509 713.288 534.573 710.309 534.573C708.695 534.573 707.723 533.434 708.116 532.069C709.088 529.152 726.86 519.056 731.225 518.973C736.087 518.891 741.424 526.008 741.569 532.794C741.734 537.655 743.12 539.662 748.292 542.413C757.085 547.171 757.333 547.585 752.72 550.006C749.41 551.785 747.155 551.392 740.927 547.834C736.728 545.331 732.693 543.944 731.969 544.668C729.611 547.027 733.087 553.565 737.452 554.868C741.734 556.068 741.734 556.068 737.865 559.068C730.273 564.964 727.191 566.102 726.053 563.185ZM733.004 532.71C733.004 528.676 728.638 526.256 724.211 527.953C720.735 529.318 720.57 531.428 723.632 536.352C726.466 540.966 733.004 538.379 733.004 532.71ZM228.417 560.764C224.941 559.295 221.051 555.758 219.769 552.924C217.659 548.31 218.155 546.366 223.72 535.794C227.196 529.153 230.03 522.449 230.03 520.753C229.865 515.498 231.975 515.188 238.761 519.222C245.133 523.029 246.27 528.677 240.622 528.677C237.54 528.677 228.003 544.586 228.003 549.758C228.003 553.896 232.202 556.482 236.34 554.93C239.733 553.648 249.415 535.794 249.415 530.849C249.415 525.76 250.802 525.76 257.98 530.456C263.566 534.18 263.566 534.18 259.284 537.8C256.946 539.745 253.387 544.441 251.443 548.227C244.905 560.846 237.788 564.716 228.417 560.764ZM110.348 558.405C109.542 557.04 106.956 555.985 104.68 555.985C102.094 555.985 94.9152 550.089 85.0469 539.91C8.91399 461.026 -16.6979 369.625 10.6106 274.19C15.5551 256.729 30.6573 222.552 33.4089 222.552C34.2157 222.552 35.8293 224.414 37.0499 226.586C38.2498 228.944 40.3602 230.228 41.9738 229.586C46.0908 228.055 45.3666 231.117 38.7464 244.296C34.0501 253.585 32.1885 255.695 30.4093 253.751C28.7129 251.889 28.7128 251.081 30.5747 250.44C31.8781 249.943 32.9953 248.413 32.9953 246.965C32.9953 244.131 27.2646 241.296 25.4026 243.158C23.3959 245.185 24.6782 263.929 26.8712 265.294C28.3194 266.184 27.7612 270.632 25.2372 279.197C11.4175 325.435 12.4724 376.266 28.1541 421.284C42.6979 463.053 61.8553 492.948 97.0875 529.152C115.272 547.834 120.279 554.062 117.3 554.062C114.941 554.062 112.935 555.51 112.521 557.455C112.128 559.958 111.466 560.185 110.348 558.405ZM83.7639 526.731C83.7639 525.676 82.8745 524.787 81.7367 524.787C80.6816 524.787 79.7921 525.676 79.7921 526.731C79.7921 527.787 80.6816 528.677 81.7367 528.677C82.8745 528.677 83.7639 527.787 83.7639 526.731ZM198.75 541.359C197.136 539.352 196.805 534.407 197.695 524.311L199.081 510.161L193.578 517.919C190.599 522.201 188.095 527.064 188.095 528.677C188.012 532.484 185.261 532.4 179.51 528.345C175 525.118 175.227 520.836 180.006 520.836C182.675 520.836 196.805 501.596 196.805 497.976C196.805 493.838 200.943 493.196 204.894 496.755C208.37 499.899 208.618 501.761 207.48 513.967L206.197 527.704L211.369 520.36C214.183 516.305 215.962 512.105 215.238 511.05C213.066 507.429 220.327 506.767 224.217 510.243C228.168 513.801 228.334 517.919 224.527 517.919C223.41 517.919 217.907 523.835 212.487 531.097C207.004 538.379 202.225 544.276 201.832 544.276C201.501 544.276 200.053 542.972 198.75 541.359ZM765.981 537.966C765.898 537.655 765.65 535.628 765.34 533.435C764.926 529.235 752.575 511.381 749.989 511.215C749.182 511.133 747.548 513.554 746.513 516.471C744.403 521.808 744.403 521.808 740.762 517.029C738.838 514.381 737.452 511.94 737.7 511.629C738.031 511.298 743.844 507.182 750.713 502.403C759.919 496.031 763.726 494.334 765.588 495.864C769.374 499.009 768.65 503.375 764.285 503.375C762.257 503.375 760.085 504.099 759.526 504.989C758.057 507.347 771.567 525.532 775.994 527.146C778.104 527.952 779.801 529.318 779.801 530.124C779.801 532.545 766.622 539.993 765.981 537.966ZM898.924 491.831C896.979 490.611 897.145 489.97 899.482 489.08C901.179 488.439 902.958 488.666 903.6 489.638C905.151 492.141 901.903 493.693 898.924 491.831ZM917.274 478.487C908.937 476.956 907.24 475.735 911.295 474.204C915.64 472.59 924.06 473.812 924.06 476.15C924.06 478.57 921.639 479.377 917.274 478.487ZM915.33 464.357C914.605 463.302 915.495 461.833 917.109 461.192C918.805 460.55 919.695 459.33 919.198 458.44C918.64 457.633 920.812 451.178 923.977 444.062C932.625 424.76 939.576 401.237 942.721 380.549C944.252 370.37 945.472 361.309 945.472 360.502C945.472 359.695 947.727 357.915 950.479 356.695C955.486 354.44 955.485 354.44 950.81 351.937C946.445 349.682 945.948 347.985 944.748 329.8C940.859 273.631 912.661 212.125 870.643 168.328C859.326 156.536 858.995 155.812 862.554 153.226C867.974 149.254 863.443 144.496 857.713 148.054C854.237 150.226 851.961 148.922 836.776 136.075C810.274 113.69 763.064 82.0166 745.21 74.5895C738.176 71.6724 736.811 68.5285 742.541 68.5285C744.651 68.5285 747.713 68.0315 749.41 67.3074C751.768 66.4178 752.244 66.9966 751.189 69.6447C750.134 72.3135 750.63 72.811 753.133 71.9214C755.244 71.1145 757.085 72.0042 758.388 74.5074C759.526 76.6797 761.306 77.9002 762.34 77.2589C763.395 76.5968 762.753 74.0108 760.974 71.2799C759.278 68.6939 758.223 66.1069 758.719 65.6104C760.167 64.0794 780.773 77.1756 780.773 79.5961C780.773 83.1545 783.752 85.2436 785.304 82.7403C786.276 81.2094 792.172 84.1269 803.489 91.7195C859.719 129.289 906.351 178.838 931.653 228.221C967.692 298.272 970.278 381.749 938.604 450.289C932.708 463.22 931.57 464.501 928.736 462.246C926.067 459.991 925.26 460.137 923.17 462.971C920.419 466.695 917.109 467.254 915.33 464.357ZM953.313 309.422C953.313 307.416 949.59 306.526 948.452 308.388C947.81 309.423 948.534 310.311 950.314 310.311C951.927 310.311 953.313 309.919 953.313 309.422ZM849.954 136.82C849.954 135.682 848.569 134.875 846.955 134.875C845.258 134.875 844.452 135.765 845.093 136.82C845.755 137.854 847.12 138.744 848.175 138.744C849.148 138.744 849.954 137.854 849.954 136.82ZM259.366 649.496C195.522 625.167 116.41 577.48 115.603 562.854C115.355 558.489 115.914 557.93 119.472 559.068C121.81 559.792 124.251 561.241 124.975 562.296C125.616 563.434 127.644 563.743 129.423 563.019C131.595 562.212 138.381 566.019 149.615 574.17C179.117 595.748 225.665 620.408 264.849 635.345C279.331 640.765 279.33 640.765 280.054 649.082C280.448 653.613 280.613 657.254 280.22 657.254C279.889 657.254 270.517 653.696 259.366 649.496ZM204.563 619.436C204.563 617.326 200.86 616.519 199.722 618.298C199.081 619.353 199.887 620.243 201.584 620.243C203.198 620.243 204.563 619.829 204.563 619.436ZM44.0838 429.042C42.3874 424.594 41.4152 420.063 42.0566 419.008C42.6979 417.953 42.2223 416.505 40.8361 415.615C32.5195 410.526 24.6783 330.11 31.9605 324.048C35.0224 321.545 35.1883 323.16 34.7745 347.655C34.5469 362.199 34.7742 374.797 35.3534 375.769C35.9948 376.824 37.8567 384.251 39.6359 392.423C41.4151 400.595 45.0359 413.195 47.7047 420.457C53.2905 435.828 53.4557 437.027 49.8974 437.027C48.4492 437.027 45.863 433.469 44.0838 429.042ZM36.0776 302.802C35.2708 301.437 35.1054 299.802 35.7468 299.16C37.526 297.381 39.3879 299.968 38.4155 302.802C37.7742 304.747 37.3603 304.747 36.0776 302.802ZM37.2153 293.016C30.6571 288.816 55.6279 232.897 77.6196 202.423C105.487 163.798 164.656 111.435 180.399 111.435C185.013 111.435 183.73 112.8 171.276 121.531C108.487 165.266 64.3585 220.525 45.4495 279.052C42.6979 287.617 40.2775 294.713 40.112 294.713C39.9465 294.63 38.6635 293.906 37.2153 293.016ZM149.367 244.688C148.643 243.964 148.084 242.186 148.084 240.821C148.084 237.262 132.154 222.718 128.203 222.635C126.341 222.635 124.313 221.662 123.672 220.607C121.893 217.793 139.602 201.14 144.195 201.14C149.139 201.14 155.842 207.843 155.842 212.767C155.842 215.601 157.622 216.821 163.187 217.794C175.972 219.883 176.53 220.297 172.165 224.745C168.441 228.365 167.634 228.448 160.125 225.862C153.649 223.607 151.642 223.525 150.029 225.47C148.477 227.332 149.698 228.779 154.87 231.2C162.959 235.007 163.187 236.124 157.208 241.71C152.284 246.323 151.312 246.633 149.367 244.688ZM148.084 214.711C148.084 210.119 143.388 208.567 139.023 211.815C135.547 214.318 135.547 214.546 139.105 218.519C143.243 223.049 148.084 221.021 148.084 214.711ZM795.317 231.283C793.227 228.78 793.372 226.276 796.289 217.132C798.234 210.988 800.158 204.698 800.654 203.084C801.13 201.471 797.51 204.451 792.483 209.788C783.442 219.325 783.442 219.325 779.407 215.291C775.125 210.988 775.994 207.035 781.414 207.035C785.138 207.035 799.931 192.492 801.855 186.989C803.572 182.23 806.468 182.789 810.192 188.54C813.254 193.133 813.171 194.106 809.219 204.367C806.964 210.429 805.413 215.684 805.826 216.16C806.22 216.574 809.778 213.263 813.667 208.732C820.536 200.643 820.784 200.581 824.57 204.057C829.742 208.649 829.577 210.595 823.846 212.767C821.26 213.739 818.591 215.435 818.032 216.407C817.37 217.462 812.53 221.911 807.275 226.277C798.958 233.311 797.51 233.952 795.317 231.283ZM43.1115 224.807C41.0841 223.524 41.4979 222.883 44.7253 221.993C49.6491 220.773 48.201 216.739 42.7807 216.739C40.7533 216.739 38.5809 215.849 37.8568 214.794C37.2154 213.738 37.6085 212.849 38.7464 212.849C39.8635 212.849 40.8361 211.567 40.8361 209.954C40.8361 197.582 105.011 128.565 137.823 105.622C158.511 91.1608 159.711 90.4985 159.711 94.6982C159.711 98.3393 161.49 98.5881 168.69 95.7538C179.675 91.6369 177.089 97.3676 164.159 105.933C118.914 136.075 74.537 180.699 53.5384 217.214C47.9526 226.917 47.3113 227.476 43.1115 224.807ZM879.208 207.45C868.45 191.602 838.721 160.24 818.509 143.358C773.015 105.457 701.33 69.0038 638.872 51.9567C632.645 50.2602 628.032 48.1502 628.59 47.2606C629.17 46.309 628.362 45.0879 626.831 44.5294C625.28 43.8673 623.749 44.3645 623.418 45.4196C623.025 46.6195 613.653 45.5646 598.385 42.5027C553.367 33.4413 542.051 32.4885 478.538 32.6334C433.913 32.7161 413.39 33.524 400.067 35.7169C390.116 37.3306 382.048 37.9715 382.048 37.0819C382.048 36.1096 380.103 35.3848 377.828 35.3848C369.035 35.3848 376.214 33.3784 394.564 30.6269C490.248 16.2278 599.419 27.8751 688.648 61.8866C696.406 64.8864 701.826 68.1144 701.826 69.7281C701.826 71.6728 703.192 72.1687 706.171 71.4239C709.171 70.6998 717.57 73.7823 732.363 80.9611C788.283 108.435 835.328 144.081 868.864 184.403C886.635 205.753 890.917 212.621 889.221 217.049C888.331 219.573 885.911 217.214 879.208 207.45ZM176.034 216.325C175.165 214.96 174.42 213.264 174.42 212.54C174.338 209.788 157.373 191.437 155.842 192.409C154.87 192.885 153.587 192.41 152.843 191.272C151.394 188.934 157.704 181.507 166.269 175.363C171.193 171.804 172.082 171.722 174.751 174.391C177.896 177.452 176.53 182.624 173.137 180.535C172.082 179.894 169.496 180.845 167.407 182.707C163.848 185.955 163.849 186.43 166.91 189.823C170.055 193.299 170.303 193.299 174.275 189.575C177.172 186.844 179.117 186.265 181.206 187.652C183.73 189.265 183.482 190.072 179.758 193.216C174.586 197.499 174.275 199.774 178.31 203.084C180.73 205.091 181.951 204.946 185.095 202.112C187.123 200.25 188.654 197.747 188.406 196.609C187.681 192.968 194.55 192.968 196.412 196.609C197.943 199.526 196.329 201.863 187.93 209.456C180.399 216.242 177.172 218.104 176.034 216.325ZM766.705 203.809C762.257 200.644 762.671 195.326 767.367 195.326C771.711 195.326 770.429 190.155 765.174 186.679C760.416 183.597 760.167 183.597 758.388 188.458C756.526 193.299 756.278 193.382 751.52 190.238C745.789 186.514 745.375 183.928 750.071 182.149C751.913 181.425 760.002 177.059 767.926 172.363C781.828 164.129 782.469 163.88 785.862 167.356C789.255 170.749 789.172 171.389 782.718 185.54C778.994 193.547 775.932 201.698 775.932 203.56C775.932 207.677 772.456 207.761 766.788 203.809H766.705ZM776.884 179.728C780.297 173.025 779.635 172.529 772.849 176.977C769.064 179.48 768.484 180.783 770.263 182.872C773.263 186.431 773.408 186.431 776.884 179.728ZM200.053 193.94C199.308 193.298 198.75 191.437 198.75 189.989C198.75 186.017 186.626 170.356 182.675 169.301C176.448 167.604 179.117 163.073 190.102 156.37C200.943 149.812 200.942 149.812 206.197 153.784C213.376 159.122 214.1 167.687 207.728 173.584C202.473 178.507 202.867 183.596 208.535 183.596C214.1 183.596 214.183 188.127 208.7 191.851C203.032 195.637 201.894 195.885 200.053 193.94ZM204.253 166.466C204.977 161.376 200.363 158.874 194.715 161.377C191.074 162.991 191.074 163.405 193.991 167.605C197.86 173.087 203.363 172.445 204.253 166.466ZM732.114 176.977C726.632 172.611 726.549 167.997 731.969 167.997C735.114 167.997 747.713 148.922 745.789 146.998C745.044 146.274 742.955 145.612 741.176 145.612C736.976 145.612 736.893 140.772 741.01 138.186C743.513 136.572 746.513 137.772 754.665 143.689C769.064 153.95 768.65 153.453 765.898 157.819C763.312 162.018 758.306 161.542 758.306 157.177C758.306 155.812 757.499 154.095 756.444 153.453C754.106 152.005 739.955 172.942 741.506 175.445C742.148 176.5 741.569 178.258 740.203 179.396C738.341 180.927 736.169 180.287 732.032 176.977H732.114ZM227.361 167.107C225.748 165.493 222.437 160.901 219.934 156.846C217.493 152.812 213.707 148.115 211.68 146.419C207.956 143.357 207.956 143.275 212.487 140.047C218.962 135.599 222.107 135.992 222.107 141.412C222.107 152.563 239.65 167.769 242.878 159.349C244.326 155.48 233.816 137.296 229.534 136.158C224.445 134.793 225.251 132.289 231.892 128.317C237.54 125.007 237.788 125.007 238.843 128.4C239.402 130.345 242.464 136.882 245.629 143.026C252.663 156.453 252.746 159.04 246.601 165.184C241.181 170.584 231.809 171.555 227.361 167.107ZM699.716 156.454C693.655 150.392 693.179 149.005 695.682 145.054C697.854 141.578 703.751 144.248 703.751 148.696C703.751 153.619 710.392 157.095 713.205 153.702C714.819 151.758 714.178 149.502 710.537 144.578C701.972 132.93 704.806 123.145 716.929 123.145C726.715 123.145 737.617 135.682 731.225 139.633C728.804 141.102 722.991 138.744 724.274 136.82C725.577 134.627 719.432 128.648 716.764 129.538C712.895 130.82 713.371 134.379 718.295 140.296C731.225 155.729 713.929 170.749 699.716 156.454ZM262.428 154.984C261.704 154.26 261.145 152.088 261.145 150.061C261.145 144.888 251.773 127.117 248.381 125.814C242.96 123.724 245.546 120 255.332 115.717C260.649 113.38 266.318 111.435 267.848 111.435C272.048 111.435 276.744 117.084 276.744 122.194C276.744 125.09 278.193 127.283 280.613 128.007C285.227 129.455 287.895 138.02 285.144 142.468C282.723 146.419 264.125 156.68 262.428 154.984ZM276.827 141.578C280.365 137.295 275.193 132.123 269.545 134.296C266.318 135.516 265.821 136.737 267.207 140.213C269.069 145.302 273.269 145.943 276.827 141.578ZM268.903 124.035C268.903 120.332 263.483 118.138 260.815 120.724C259.677 121.862 259.366 124.613 260.09 126.868C261.145 130.178 262.118 130.593 265.18 128.98C267.207 127.842 268.986 125.586 268.986 124.035H268.903ZM679.67 147.309C675.553 145.054 674.663 143.688 676.194 142.054C678.863 139.468 679.111 129.703 676.525 128.089C674.021 126.538 670.297 133.82 671.683 137.461C673.442 142.054 669.243 143.027 662.457 139.551C657.119 136.82 656.643 135.993 659.229 134.152C663.595 130.904 672.553 112.491 672.553 106.678C672.553 100.926 672.077 101.091 680 103.843C687.034 106.263 688.007 110.381 682.256 113.463C680.166 114.581 678.387 116.856 678.387 118.387C678.387 120.973 679.028 120.973 683.952 118.387C687.117 116.856 690.096 114.187 690.738 112.573C691.627 110.215 693.013 110.07 697.772 111.766C705.861 114.58 705.302 116.442 694.71 121.138C685.648 125.09 685.648 125.09 686.869 133.407C687.51 137.937 688.648 143.689 689.289 146.11C690.738 151.364 687.759 151.674 679.587 147.309H679.67ZM294.268 136.158C294.268 128.814 286.282 109.491 283.282 109.491C278.441 109.491 280.53 104.153 286.364 101.733C292.736 99.1468 296.626 100.368 294.992 104.568C294.433 106.016 295.881 112.491 298.239 118.863C301.798 128.648 303.081 130.344 306.308 129.454C308.501 128.896 310.673 127.283 311.252 125.814C313.176 120.725 319.652 124.117 319.652 130.179C319.652 131.151 305.915 137.296 298.633 139.551C294.93 140.772 294.268 140.296 294.268 136.158ZM644.685 132.6C640.403 130.986 639.679 130.013 641.458 127.924C643.796 125.09 642.182 113.463 639.431 113.463C637.093 113.463 635.314 119.359 636.514 123.31C638.065 128.089 635.066 129.372 627.949 126.868C621.97 124.779 619.384 119.277 624.391 119.277C626.977 119.277 634.507 99.7255 634.507 92.919C634.507 89.8571 635.707 89.1337 640.238 89.444C648.72 90.1061 650.747 93.1676 645.658 97.8638C643.299 100.119 641.375 103.119 641.375 104.65C641.375 108.518 652.527 101.981 653.726 97.3676C654.451 94.4712 655.506 94.3055 660.678 96.0847C668.85 98.981 668.27 100.843 657.926 105.456C648.244 109.739 647.665 111.683 652.113 124.117C656.395 135.992 655.836 136.655 644.685 132.6ZM322.631 127.282C321.907 126.062 321.907 124.283 322.569 123.228C324.265 120.414 317.314 99.5605 314.314 98.3398C310.197 96.8089 311.48 92.7742 316.818 90.333C324.017 87.0229 326.024 87.5199 324.824 92.1955C323.521 97.2848 330.803 117.415 335.085 120.642C337.113 122.194 337.506 123.559 336.223 124.842C333.058 128.007 324.1 129.537 322.631 127.282ZM610.653 121.138C605.895 119.276 604.757 114.353 608.729 112.884C612.267 111.601 608.316 108.042 602.337 107.236C599.109 106.822 597.413 107.546 597.247 109.491C597.082 111.105 596.834 113.462 596.751 114.745C596.441 117.662 586.344 115.16 585.289 111.85C584.876 110.546 585.372 109.491 586.407 109.491C587.379 109.491 592.551 102.953 597.723 94.947C602.978 86.8578 608.315 80.3197 609.536 80.3197C615.432 80.2369 617.936 86.4647 618.246 101.898C618.412 110.38 618.66 118.387 618.742 119.608C618.991 122.67 615.908 123.31 610.653 121.138ZM610.095 95.4432C610.095 89.0505 610.095 89.0502 606.206 93.8913C601.365 100.118 601.365 101.733 606.206 101.733C609.371 101.733 610.177 100.45 610.095 95.4432ZM347.54 119.277C335.975 114.581 332.748 90.4983 342.595 82.9057C350.436 77.0095 369.18 82.2652 362.808 88.6372C361.028 90.4164 359.58 90.3332 356.581 88.4919C350.85 84.9336 344.954 88.6364 344.954 95.8359C344.954 109.407 354.408 117.745 360.78 109.822C364.339 105.374 367.401 104.484 369.263 107.401C371.125 110.546 368.063 115.47 362.394 118.387C356.188 121.614 353.663 121.78 347.54 119.277ZM563.877 111.105C550.533 108.684 550.533 105.622 564.27 92.0301C575.835 80.6515 576.311 77.3407 566.049 79.182C559.905 80.4026 559.512 80.0726 559.512 75.3143C559.512 70.225 559.739 70.1412 568.718 71.4239C590.855 74.6719 591.517 76.3689 575.669 92.3609C566.463 101.65 565.16 103.76 567.994 104.815C569.939 105.539 573.559 105.042 576.145 103.594C581.979 100.532 583.759 101.98 582.124 108.435C580.759 113.856 579.869 114.022 563.877 111.105ZM395.619 105.933C392.226 103.264 390.923 99.7886 390.282 91.6374C389.227 78.5417 391.565 73.5341 400.212 70.617C413.308 66.3345 423.011 75.7897 423.011 93.0024C423.011 106.905 406.439 114.746 395.619 105.933ZM412.108 100.615C415.894 96.8087 415.977 91.8849 412.336 83.1545C409.439 76.1205 404.35 74.342 399.984 78.7072C395.454 83.2379 398.122 98.0913 404.267 102.229C407.412 104.319 408.715 104.008 412.108 100.615ZM536.962 105.54C536.32 104.402 536.879 102.147 538.162 100.533C540.189 98.092 540.189 97.202 537.934 95.7538C532.762 92.4437 527.342 94.4713 527.342 99.7882C527.342 103.595 526.369 104.65 522.894 104.484C498.647 103.76 499.061 103.843 499.061 99.643C499.061 94.4709 495.668 88.0778 492.916 88.0778C491.468 88.0778 491.137 90.7472 492.027 95.9193C493.247 103.677 493.248 103.677 486.358 103.677C479.655 103.677 476.842 99.7258 481.517 96.8915C482.572 96.1675 483.462 90.0235 483.462 83.2378C483.462 76.3693 482.572 70.2242 481.517 69.5828C477.235 66.914 479.904 64.7214 487.331 64.7214C492.999 64.7214 495.171 65.528 495.171 67.6382C495.171 69.2519 494.282 70.5349 493.247 70.5349C492.109 70.5349 491.303 72.9761 491.303 75.8724C491.385 81.2928 491.385 81.2928 496.144 75.8724C498.73 72.8933 500.343 69.1692 499.702 67.6382C498.895 65.3625 500.178 64.7214 505.681 64.7214C514.411 64.7214 514.577 67.3896 506.488 75.7891C500.757 81.6852 500.509 82.5755 502.93 87.0234C506.24 93.2506 512.301 99.7882 514.742 99.7882C515.777 99.7882 520.308 92.3613 524.838 83.2378C536.631 59.5497 540.189 60.3555 545.837 88.0778C547.306 95.0291 549.313 101.34 550.285 101.982C551.34 102.706 551.588 104.236 550.864 105.456C549.168 108.208 538.658 108.291 537.044 105.54H536.962ZM536.962 81.8514C535.493 75.3966 535.493 75.3971 532.99 81.2932C530.9 86.2998 530.983 87.2714 533.797 88.3265C538.245 90.023 538.575 89.2992 536.962 81.8514ZM195.357 101.34C195.191 98.7541 202.474 94.2233 224.362 83.2378C240.457 75.1487 255.084 68.6105 256.946 68.6105C258.787 68.6105 261.228 67.7217 262.2 66.7493C267.207 61.7428 333.865 41.1986 356.746 37.5781C364.587 36.3575 365.952 36.6059 365.559 39.1919C365.311 40.8883 362.973 42.5851 360.387 42.8954C348.988 44.5298 302.833 57.4591 282.144 64.8035C269.628 69.1687 245.05 79.9894 227.527 88.8026C201.17 101.981 195.605 104.154 195.357 101.34ZM432.3 91.8849C432.941 82.5752 432.465 76.5958 430.686 73.3685C427.376 67.1413 427.934 66.749 443.223 65.3629C456.153 64.1629 456.153 64.1633 456.153 69.3353C456.153 74.2591 455.739 74.4237 448.312 73.2031C440.864 72.0859 440.554 72.2317 440.554 77.0934C440.554 81.5414 441.361 82.2655 446.368 82.2655C450.236 82.2655 452.264 83.2369 452.264 85.1609C452.264 86.9401 450.402 88.0778 447.34 88.0778C443.451 88.0778 442.478 89.0505 442.478 92.8572C442.478 95.4432 443.368 98.1741 444.423 98.8361C449.285 101.815 446.202 105.622 438.858 105.622C431.327 105.622 431.327 105.622 432.3 91.8849ZM165.627 88.0778C165.627 87.0227 166.517 86.1332 167.552 86.1332C168.607 86.1332 169.496 87.0227 169.496 88.0778C169.496 89.1329 168.607 90.0236 167.552 90.0236C166.517 90.0236 165.627 89.1329 165.627 88.0778ZM186.378 88.7192C183.482 85.8229 185.095 80.4036 188.488 81.4587C191.798 82.431 191.798 82.4299 188.488 80.3197C186.626 79.0991 185.095 77.341 185.095 76.3687C185.095 71.0311 248.939 42.2537 288.454 29.82C324.493 18.4208 331.858 16.4765 359.249 11.0562C387.054 5.65651 392.868 5.15958 394.812 8.32489C395.702 9.69032 393.84 10.2495 389.558 10.022C380.269 9.52545 378.324 10.2493 383.972 12.0284C390.923 14.2214 407.825 14.2214 411.301 12.0284C413.473 10.5803 412.666 10.1041 407.908 10.1041C398.929 10.0213 399.571 4.99447 408.715 3.29803C422.762 0.649935 482.324 -0.902095 513.274 0.566772C581.09 3.71139 649.857 18.4212 707.64 42.0886C719.929 47.1158 722.742 48.8944 718.625 48.9564C714.757 49.0392 713.371 49.8466 714.095 51.7913C714.674 53.2394 714.177 55.432 712.977 56.6526C711.343 58.2663 712.088 58.8245 715.957 58.8245C718.791 58.8245 721.625 59.7152 722.349 60.9358C724.852 64.97 721.625 64.8874 713.536 60.7704C709.088 58.4947 689.931 51.4813 670.939 45.2542C559.74 8.40832 439.665 4.68394 326.272 34.6613C311.335 38.6127 297.184 41.7779 294.764 41.7779C292.343 41.6951 290.399 42.336 290.399 43.1429C290.399 43.9497 283.613 47.115 275.276 50.0941C254.753 57.5419 220.327 72.9758 203.198 82.3476C187.847 90.747 188.24 90.5812 186.378 88.7192ZM317.873 29.5726C319.9 29.5726 321.596 28.6818 321.596 27.6267C321.596 26.5716 318.514 25.6821 314.811 25.6821C309.783 25.6821 307.922 26.5099 307.922 28.8477C307.922 30.8545 308.977 31.5164 311.004 30.7923C312.701 30.1303 315.763 29.5726 317.873 29.5726ZM733.004 68.6105C733.004 67.5554 733.893 66.666 734.949 66.666C736.004 66.666 736.893 67.5554 736.893 68.6105C736.893 69.6449 736.004 70.5349 734.949 70.5349C733.893 70.5349 733.004 69.6449 733.004 68.6105ZM332.499 66.9147C331.858 65.9424 332.665 64.6379 334.279 63.9966C335.892 63.3552 337.195 63.6657 337.195 64.6381C337.195 67.3068 333.72 68.9215 332.499 66.9147ZM440.554 642.463C321.348 634.146 205.866 586.542 131.926 515.333C109.686 493.838 92.8051 471.308 78.8198 444.558L67.8342 423.373H113.017C148.249 423.373 157.932 422.897 157.29 420.953C156.732 419.174 144.939 418.284 110.825 417.56L65.1655 416.588L60.7175 400.988C50.9527 366.728 50.9527 323.739 60.7175 290.348L62.8275 283.086L107.762 282.59C141.546 282.114 152.759 281.473 153.421 279.611C154.063 277.666 144.526 277.19 110.183 277.19C78.6541 277.19 66.1377 276.527 66.1377 274.914C66.1377 270.321 83.5989 236.206 93.281 221.828C108.156 199.774 126.093 179.562 129.568 180.928C131.513 181.672 132.485 180.782 132.485 178.424C132.568 174.058 141.547 165.101 145.891 164.935C147.588 164.935 148.808 163.798 148.56 162.598C147.919 159.598 169.828 141.412 190.909 127.51C223.41 105.932 276.02 81.1272 311.087 70.7003C327.41 65.8593 327.41 65.8592 327.41 69.0866C327.41 70.5348 321.349 73.6172 313.259 76.2032C224.61 104.401 140.326 162.266 100.315 222.552C88.7709 239.93 76.0059 263.763 75.9231 267.88C75.9231 271.046 79.1509 271.294 116.638 271.294H157.373L165.855 258.198C170.552 250.916 183.151 236.206 193.826 225.386C250.801 168.328 333.637 131.648 429.238 121.304C453.567 118.635 509.322 118.635 533.734 121.304C645.658 133.406 748.375 187.879 796.683 260.702L803.716 271.294H886.966L882.187 260.453C856.327 202.029 797.737 145.695 723.156 107.628C619.135 54.4595 487.02 37.5783 367.566 62.3008C351.078 65.7764 338.892 65.859 342.43 62.6316C344.54 60.6041 366.842 55.7639 390.758 52.04C542.299 28.6829 693.903 65.0526 801.627 150.702C836.528 178.507 870.146 219.718 885.745 253.833C897.703 279.859 901.841 277.107 850.927 277.107C816.501 277.107 806.964 277.666 807.606 279.611C808.164 281.39 819.481 282.114 853.347 282.528L898.365 283.086L901.427 296.182C907.013 319.373 908.771 344.262 906.516 365.281C904.654 382.08 898.282 411.581 895.531 416.029C895.034 416.836 874.594 417.56 850.12 417.56C812.281 417.56 805.413 417.953 804.441 420.457C803.489 422.981 809.054 423.373 848.175 423.373H893.028L882.766 443.338C838.948 528.76 735.445 600.03 614.625 628.166C587.875 634.29 565.408 637.621 564.105 635.51C562.326 632.676 563.215 632.366 585.931 628.001C649.361 615.795 705.219 594.858 754.023 565.129C807.192 532.628 853.348 486.825 875.484 444.31L883.325 429.187H799.434L793.227 438.497C789.752 443.586 778.021 456.599 767.284 467.336C714.819 519.615 636.203 554.372 539.941 567.861C517.804 570.943 448.23 571.026 423.983 568.026C328.217 555.985 246.436 520.112 192.771 466.364C184.62 458.213 174.586 446.482 170.469 440.338L163.104 429.269H120.279C96.7565 429.269 77.8473 429.932 78.1783 430.739C118.914 520.36 227.279 595.106 358.608 624.029C408.632 635.097 425.038 636.815 482.407 636.649C511.412 636.649 540.106 635.677 546.333 634.621C554.981 633.09 557.96 633.174 559.594 635.036C562.491 638.573 558.85 639.318 529.452 641.738C506.322 643.517 461.801 643.91 440.554 642.38V642.463ZM542.858 560.847C624.97 550.09 695.827 520.836 750.134 475.343C766.312 461.833 789.255 435.249 797.013 421.202L802.185 411.746H890.669L893.917 400.595C899.089 382.721 900.786 369.315 900.786 345.069C900.786 325.518 896.814 295.685 893.586 290.348C893.028 289.541 872.981 288.9 848.899 288.9H805.185L799.517 277.665C782.801 244.543 744.01 207.201 698.268 180.203C562.905 100.532 362.311 107.794 236.899 196.94C205.308 219.408 173.386 254.082 159.959 280.583L155.842 288.816L111.631 289.314L67.3582 289.872L64.8346 299.658C57.4903 328.104 57.9039 365.757 65.8896 397.12L69.3652 410.774L158.759 411.892L167.552 425.876C172.414 433.551 184.454 448.261 194.302 458.606C269.876 537.718 408.86 578.535 542.858 560.93V560.847ZM837.914 373.349C835.245 372.624 834.914 371.488 836.363 367.702C838.473 362.364 836.217 361.475 831.77 365.923C829.742 367.867 827.487 368.342 824.487 367.204C820.453 365.673 820.536 365.425 827.322 361.391C831.19 359.136 834.438 356.301 834.438 355.081C834.438 353.964 833.549 353.551 832.411 354.192C831.356 354.854 828.604 354.853 826.349 354.109C823.039 353.074 822.708 352.412 824.901 351.047C826.763 349.826 825.956 349.351 822.067 349.351C818.922 349.351 817.143 348.461 817.784 347.323C818.508 346.206 816.646 345.4 813.585 345.4C809.302 345.4 808.743 344.903 810.999 343.455C813.336 341.924 813.088 341.592 809.55 341.509C807.026 341.509 805.185 340.289 805.185 338.758C805.185 337.227 804.047 335.531 802.682 334.972C800.985 334.31 801.048 334 803.075 333.834C805.102 333.752 804.854 332.944 802.103 330.834C798.627 328.248 799.517 327.939 811.888 327.939C824.405 327.856 825.873 328.331 831.604 333.834C837.418 339.482 837.831 339.648 838.803 335.779C839.362 333.586 839.031 331.724 838.059 331.724C837.107 331.724 836.3 330.835 836.3 329.8C836.3 328.745 838.948 327.856 842.196 327.856C847.203 327.856 848.01 328.58 848.01 333.111C848.01 338.366 848.01 338.366 853.513 333.111C858.354 328.415 860.464 327.856 872.505 327.939C884.38 327.939 885.58 328.331 882.518 330.607C879.932 332.614 879.684 333.586 881.546 334.311C883.49 335.117 883.49 335.365 881.711 335.53C880.325 335.613 879.208 336.979 879.208 338.592C879.208 340.289 877.429 341.509 874.843 341.509C871.284 341.592 871.036 341.924 873.394 343.455C875.649 344.903 874.925 345.4 870.477 345.4C866.505 345.462 865.471 345.958 867.25 347.095C870.643 349.268 865.14 351.606 860.216 349.992C857.63 349.185 857.464 349.351 859.492 350.799C863.05 353.385 859.078 355.806 853.823 354.192C845.755 351.523 852.21 360.667 860.692 363.729C864.416 365.115 864.416 365.281 859.72 367.867C856.161 369.791 854.63 369.873 854.072 368.26C853.575 366.977 851.879 364.618 850.265 363.004C847.679 360.418 847.451 360.75 848.569 366.232C849.458 370.763 849.065 372.708 846.789 373.515C843.645 374.736 843.169 374.735 837.914 373.349ZM101.783 366.895C102.425 363.088 103.48 358.639 104.121 356.86C105.011 354.605 103.398 352.413 98.4531 349.434C89.2468 343.703 89.7431 341.841 100.646 341.117C109.542 340.537 109.769 340.289 112.604 331.89L115.521 323.242L118.831 331.89C122.141 340.227 122.555 340.537 131.265 341.117C142.023 341.841 142.353 342.958 133.457 349.102C125.617 354.44 125.699 354.047 129.423 364.701C132.816 374.073 132.485 374.239 123.279 367.929C115.831 362.84 112.852 363.253 104.37 370.515C100.811 373.598 100.728 373.432 101.783 366.895ZM387.22 536.828C379.524 528.346 385.503 515.022 396.985 515.022C407.97 515.022 413.887 529.815 405.798 537.159C401.019 541.441 391.254 541.276 387.22 536.828ZM403.129 534.18C408.55 528.677 404.432 518.973 396.674 518.973C391.419 518.973 387.861 522.532 387.861 527.704C387.861 532.959 391.419 536.517 396.674 536.517C398.929 536.517 401.847 535.463 403.129 534.18ZM421.149 535.214C416.473 529.318 416.308 528.035 419.37 522.201C422.369 516.636 424.79 515.106 431.245 515.106C437.968 515.023 444.423 521.249 444.423 527.704C444.423 539.579 428.597 544.752 421.149 535.214ZM437.472 533.435C445.064 525.843 434.637 514.382 425.762 520.443C421.955 523.029 421.314 528.201 424.231 532.401C427.624 537.242 433.189 537.718 437.472 533.435ZM456.153 536.517C448.147 528.511 453.484 515.022 464.718 515.022C472.559 515.022 477.565 520.112 477.565 528.036C477.565 539.27 464.221 544.586 456.153 536.517ZM471.338 534.18C476.841 528.677 472.704 518.973 464.863 518.973C459.691 518.973 456.153 522.532 456.153 527.704C456.153 532.959 459.691 536.517 464.863 536.517C467.139 536.517 470.035 535.463 471.338 534.18ZM490.724 536.994C485.717 531.428 485.551 522.946 490.413 518.084C497.592 510.823 512.632 517.36 512.632 527.704C512.632 538.296 497.53 544.669 490.724 536.994ZM505.681 533.435C509.322 529.815 509.488 527.87 506.736 522.698C503.736 517.113 494.365 517.691 491.696 523.587C487.496 532.876 498.482 540.635 505.681 533.435ZM523.701 536.828C519.418 532.07 519.583 522.284 524.031 518.25C532.265 510.823 545.837 516.553 545.837 527.373C545.837 538.379 530.9 544.752 523.701 536.828ZM539.548 534.18C545.03 528.677 540.913 518.973 533.155 518.973C527.9 518.973 524.342 522.449 524.342 527.704C524.342 532.959 527.9 536.517 533.155 536.517C535.431 536.517 538.327 535.463 539.548 534.18ZM557.733 535.38C552.954 529.235 552.871 528.595 555.871 521.892C560.319 512.271 576.228 513.327 579.869 523.505C584.627 537.159 566.691 546.779 557.733 535.38ZM573.973 533.435C580.117 527.229 575.338 518.25 566.38 519.305C559.429 520.112 556.595 526.484 560.712 532.401C564.105 537.242 569.69 537.718 573.973 533.435ZM456.153 438.972C456.153 436.303 458.325 418.366 460.994 399.043C466.642 357.522 467.449 316.291 462.939 290.513C459.629 271.853 455.408 263.846 425.679 219.242C411.942 198.719 410.639 196.134 416.307 200.416C419.949 203.23 422.452 206.312 421.79 207.367C420.425 209.54 427.852 217.049 429.548 215.353C430.21 214.712 429.713 213.015 428.596 211.567C427.376 210.119 427.045 208.898 427.852 208.898C428.659 208.898 427.851 206.56 426.01 203.56C422.928 198.471 423.011 198.471 427.769 204.057C430.438 207.284 432.713 210.76 432.796 211.815C432.796 212.932 433.52 212.622 434.492 211.153C435.775 209.146 436.355 209.229 437.306 211.815C438.051 213.656 437.72 214.463 436.582 213.739C433.686 211.96 434.327 215.436 437.637 219.718C440.472 223.525 440.554 223.524 439.416 219.635C438.279 215.766 438.278 215.766 441.526 219.635C443.285 221.828 445.395 224.746 446.285 226.277C448.064 229.421 452.264 227.477 452.264 223.525C452.264 222.077 448.954 217.546 444.919 213.574C440.864 209.54 439.892 208.174 442.644 210.512C449.347 216.242 449.843 216.015 449.926 207.119C450.091 193.464 460.022 180.369 472.063 177.949C478.372 176.645 478.6 176.252 479.096 166.073C479.738 154.032 481.517 150.061 481.517 160.653C481.517 164.522 482.572 168.08 483.938 168.659C485.882 169.466 485.882 169.611 483.938 169.777C479.014 170.025 481.683 175.528 487.413 176.728C500.178 179.562 510.77 193.133 510.77 206.87C510.77 211.235 511.267 214.794 511.908 214.794C512.467 214.794 516.915 211.566 521.611 207.677C526.369 203.808 530.258 201.616 530.258 202.919C530.258 204.119 528.955 205.67 527.342 206.229C525.728 206.87 524.838 208.174 525.48 209.063C526.038 210.036 525.086 213.512 523.307 216.905C521.611 220.215 521.114 222.387 522.252 221.663C523.452 221.021 524.342 221.27 524.342 222.304C524.342 223.442 523.452 224.89 522.335 225.552C521.114 226.276 520.721 228.138 521.28 229.586C521.838 231.117 521.528 232.338 520.556 232.338C519.583 232.338 518.218 234.2 517.474 236.455C516.749 238.628 514.494 242.186 512.467 244.213C508.267 248.496 507.295 253.336 511.495 249.468C513.046 248.081 513.853 246.323 513.356 245.495C512.881 244.688 513.274 244.047 514.329 244.047C516.191 244.047 522.5 235.4 523.307 231.614C523.535 230.393 524.425 227.89 525.232 226.111C526.038 224.249 526.121 221.828 525.397 220.772C524.114 218.6 532.99 202.03 536.713 199.775C538.017 198.947 537.438 200.725 535.493 203.642C530.9 210.759 532.762 210.264 543.334 201.616C552.23 194.354 552.23 194.355 537.603 215.767C509.405 257.144 501.812 271.935 498.254 293.016C493.723 320.014 494.282 355.329 500.033 399.043C506.177 446.399 506.177 445.447 499.867 437.999C494.861 432.186 494.861 432.186 495.978 437.607C497.675 445.448 495.419 444.144 491.303 434.855C487.992 427.49 487.579 427.181 486.855 431.38C486.048 436.056 486.048 436.056 483.772 430.739C482.572 427.822 481.124 425.401 480.545 425.401C480.069 425.401 478.29 427.822 476.676 430.739C474.255 435.332 473.759 435.497 473.594 432.187C473.511 429.187 472.621 429.932 469.725 435.104C466.249 441.559 466.001 441.641 465.836 437.027C465.67 432.186 465.67 432.186 460.912 437.999C456.153 443.896 456.153 443.896 456.153 439.055V438.972ZM473.118 279.611C472.621 276.694 472.311 279.114 472.311 284.949C472.311 290.845 472.621 293.265 473.118 290.348C473.593 287.369 473.593 282.59 473.118 279.611ZM468.67 282.197C467.946 278.225 466.973 275.41 466.497 275.886C466.001 276.383 466.166 280.004 466.973 283.893C467.697 287.762 468.67 290.596 469.146 290.121C469.642 289.707 469.394 286.066 468.67 282.197ZM488.716 278.638C488.22 276.217 487.827 278.225 487.827 283.004C487.827 287.845 488.22 289.789 488.716 287.451C489.192 285.031 489.192 281.058 488.716 278.638ZM494.944 278.638C495.006 276.776 494.282 275.246 493.164 275.246C492.109 275.246 491.302 278.969 491.468 283.479C491.613 290.513 491.861 291.093 493.164 286.955C494.054 284.224 494.861 280.499 494.944 278.638ZM466.973 258.198C466.249 249.861 464.946 242.765 463.974 242.516C463.084 242.185 462.774 240.323 463.332 238.317C463.911 236.206 462.215 232.731 459.132 229.67C454.043 224.58 454.043 224.579 452.347 229.172C451.043 232.565 452.346 238.565 457.767 253.502C461.718 264.425 465.67 273.3 466.642 273.3C467.615 273.3 467.78 266.68 466.973 258.198ZM453.484 235.234C452.822 233.621 453.153 232.338 454.126 232.338C456.795 232.338 458.408 235.813 456.381 237.096C455.409 237.675 454.126 236.848 453.484 235.234ZM475.455 252.302C475.538 244.544 474.814 238.151 473.842 238.151C472.869 238.151 470.614 237.675 468.835 236.93C466.332 235.978 465.918 236.703 466.642 240.406C467.222 242.91 468.669 251.557 469.973 259.646C472.704 277.273 475.29 273.88 475.455 252.302ZM492.192 253.667C494.054 238.793 493.972 236.289 491.696 237.179C490.165 237.737 488.137 238.151 487.185 238.151C485.075 238.151 484.827 251.165 486.606 264.26C488.303 276.777 489.689 274.273 492.192 253.667ZM502.536 255.281C509.487 235.317 509.715 234.262 506.736 234.262C505.598 234.262 505.288 235.317 506.012 236.537C506.984 237.986 506.571 238.233 504.874 237.261C503.012 236.04 503.343 234.923 506.488 232.565C509.074 230.641 510.046 228.448 509.074 227C507.936 225.221 506.177 225.945 502.371 229.917C498.419 234.117 496.702 238.565 495.171 248.971C490.889 278.638 493.558 280.893 502.536 255.281ZM452.016 250.44C449.843 245.351 446.285 239.516 444.112 237.51C441.361 234.841 440.782 233.393 442.396 232.338C444.113 231.365 443.864 230.061 441.526 227.724C439.747 225.945 437.306 225.055 436.189 225.779C434.803 226.669 434.493 226.028 435.217 224.083C436.665 220.132 431.989 213.263 429.962 216.491C428.431 218.911 435.692 230.393 438.858 230.393C439.892 230.393 440.223 231.365 439.499 232.503C438.775 233.62 439.975 236.455 442.168 238.793C444.34 241.151 446.367 243.964 446.616 245.019C447.257 247.605 454.374 259.646 455.263 259.646C455.656 259.646 454.209 255.446 452.016 250.44ZM519.335 219.407C526.618 206.477 525.397 205.174 515.136 214.877C509.881 219.801 509.074 221.498 510.77 224.663C513.522 229.752 513.605 229.752 519.335 219.407ZM534.127 215.6C534.127 214.069 534.769 212.849 535.576 212.849C536.383 212.849 538.244 210.988 539.63 208.732C541.885 205.174 541.244 205.339 535.348 209.87C531.21 213.015 528.955 216.16 529.597 217.877C530.817 221.187 534.127 219.573 534.127 215.684V215.6ZM419.059 686.342C380.413 682.473 335.251 673.578 299.357 662.902C287.316 659.344 286.282 658.62 288.95 655.951C292.985 651.917 312.059 651.109 324.493 654.419C381.965 669.77 466.001 677.612 522.418 673.081C563.07 669.771 583.758 666.626 632.562 656.447C638.458 655.144 638.458 655.144 634.011 658.454C628.28 662.674 628.445 665.096 634.507 665.096C639.265 665.096 641.044 667.764 637.652 669.854C634.01 672.129 610.095 676.247 610.095 674.633C610.095 673.661 608.792 672.936 607.178 672.936C605.564 672.936 604.281 674.136 604.281 675.605C604.281 678.502 579.538 682.866 542.134 686.508C518.446 688.845 442.892 688.679 419.059 686.259V686.342ZM543.83 676.805C543.83 675.75 541.637 674.86 538.969 674.86C536.321 674.86 534.127 675.75 534.127 676.805C534.127 677.86 536.321 678.749 538.969 678.749C541.637 678.749 543.83 677.86 543.83 676.805ZM412.418 660.151C400.792 658.786 390.675 656.84 390.034 655.868C388.027 652.889 382.275 651.586 381.551 653.945C380.103 658.227 320.935 644.076 280.531 629.78C260.422 622.663 257.587 621.133 260.173 618.464C262.759 615.878 311.48 632.759 314.956 637.373C316.818 639.876 318.038 640.207 319.652 638.511C321.266 636.876 326.52 637.539 339.781 640.849C385.44 652.393 427.128 657.254 482.407 657.254C557.009 657.337 617.935 646.662 685.255 621.857C738.031 602.368 799.765 565.522 834.666 532.71C845.01 522.946 854.465 514.94 855.685 514.94C856.823 514.94 857.795 513.968 857.795 512.747C857.795 511.547 862.554 504.596 868.367 497.396C932.542 417.953 943.776 321.794 898.593 238.627C890.276 223.359 889.469 220.525 893.669 220.525C897.062 220.525 914.109 254.805 920.895 275.163C927.701 295.768 931.156 314.677 928.342 315.649C926.811 316.145 927.122 317.843 929.232 321.153C931.901 325.27 932.211 330.276 931.322 354.688C929.874 392.093 923.481 416.836 907.013 449.648C851.961 559.068 712.729 641.325 550.699 660.151C519.418 663.875 442.727 663.792 412.418 660.151ZM665.208 660.482C667.153 659.034 668.684 656.365 668.684 654.503C668.684 651.669 667.236 651.192 660.843 651.833C656.561 652.247 653.085 652.082 653.085 651.503C653.085 650.944 664.236 646.745 677.89 642.049C719.101 628.167 763.395 606.588 797.903 583.624C807.916 576.921 811.723 575.391 813.419 577.087C815.116 578.784 815.116 579.342 813.336 579.342C812.054 579.342 810.999 580.232 810.999 581.287C810.999 582.508 814.143 582.735 819.315 581.928C827.57 580.646 827.57 580.646 821.736 585.487C794.179 608.12 737.204 637.683 687.51 655.061C662.788 663.791 659.953 664.433 665.291 660.482H665.208ZM734.142 625.415C734.783 620.967 730.273 622.415 729.383 627.029C728.969 629.118 729.693 630.174 731.162 629.698C732.528 629.202 733.811 627.277 734.142 625.415ZM796.537 597.859C797.179 595.19 798.544 592.996 799.517 592.996C800.489 592.996 801.213 592.025 801.213 590.908C801.213 589.77 798.793 589.127 795.876 589.438C792.09 589.934 790.476 591.134 790.476 593.968C790.393 596.079 789.669 598.976 788.862 600.279C787.89 601.976 788.614 602.699 791.365 602.699C793.951 602.699 795.73 601.086 796.537 597.859Z" fill="#DBA651"/>
</svg>
