<svg width="564" height="965" viewBox="0 0 564 965" fill="none" xmlns="http://www.w3.org/2000/svg">
<path fill-rule="evenodd" clip-rule="evenodd" d="M240.661 962.133C182.607 952.717 131.749 926.708 89.4743 884.918C36.9168 832.968 8.4097 770.925 1.7685 693.971C-0.745796 665.047 -0.398819 540.009 2.1675 536.888C3.65873 534.998 3.65881 534.321 2.02885 533.784C0.485595 533.246 0 526.397 0 506.89C0 481.018 -6.34193e-05 480.741 3.72803 480.203C8.5312 479.527 8.5312 474.845 3.72803 474.169C0.0692964 473.632 0.0693218 473.632 0.0693218 412.595C0.0693218 372.366 0.606759 351.576 1.69918 351.576C2.84361 351.576 2.84361 350.552 1.69918 348.385C-0.537678 344.258 -0.468357 295.62 1.7685 269.818C13.4903 134.219 110.542 24.492 237.679 2.88636C263.619 -1.51799 311.79 -0.772398 335.216 4.37757C387.097 15.7526 431.869 39.387 469.271 75.09C480.247 85.5113 482.138 88.0949 480.785 90.5919C479.901 92.2912 479.155 94.7188 479.155 96.0886C479.155 99.3312 485.311 101.221 488.172 98.8629C491.015 96.5567 498.316 104.811 513.089 126.902C532.944 156.64 549.868 196.938 556.838 231.011C563.341 263.038 563.687 276.858 563.011 496.191C562.266 730.748 563.011 713.409 551.289 756.498C540.868 794.629 520.684 832.621 493.374 865.133C481.999 878.606 462.162 898.062 459.041 898.599C458.434 898.738 455.035 901.582 451.446 905.033C428.696 926.638 381.549 949.336 339.551 958.942C314.824 964.578 265.388 966.121 240.661 962.133ZM558.208 668.984C558.607 667.683 558 667.076 556.786 667.492C555.555 667.891 554.272 669.244 553.873 670.405C553.457 671.619 554.064 672.296 555.295 671.827C556.509 671.481 557.792 670.128 558.208 668.984ZM304.056 952.249C345.308 949.405 389.074 933.748 426.858 908.483C466.549 881.866 495.541 849.285 519.523 804.235C524.603 794.768 528.73 787.572 528.73 788.317C528.73 789.063 529.614 789.132 530.568 788.525C531.921 787.71 531.921 787.103 530.568 786.288C529.354 785.473 530.291 781.017 533.62 771.792C544.18 742.939 549.607 712.663 551.029 675.486C552.642 631.512 551.896 288.25 550.145 269.748C546.625 232.155 537.4 198.498 522.106 166.992C517.563 157.715 513.904 149.392 513.904 148.438C513.904 147.484 513.297 146.739 512.621 146.739C511.876 146.739 509.899 144.311 508.217 141.329C506.448 138.415 500.015 129.208 493.929 120.867C452.607 64.8594 396.998 29.9018 324.725 14.3305C309.553 11.0706 255.695 11.4868 236.933 15.0068C193.445 23.1912 150.979 42.9764 117.322 70.755C80.6133 100.961 47.5463 147.224 32.3045 189.62C29.8769 196.47 26.3568 203.44 24.5187 205.14C22.1605 207.307 21.7443 208.66 23.0968 209.475C24.5187 210.342 24.1199 214.07 21.675 223.693C13.8893 254.506 13.2129 265.951 13.2129 369.592C13.2129 455.338 12.9357 467.268 10.7682 467.268C7.6643 467.268 7.6643 468.828 10.7682 472.955C13.7506 476.822 14.3575 514.276 11.5138 516.028C10.3693 516.773 10.3 517.797 11.3751 519.08C12.3982 520.293 13.0743 553.153 13.1436 606.456C13.2823 709.819 14.288 720.258 28.3854 765.22C31.2292 774.099 38.1303 790.623 43.8352 801.946C50.8752 816.096 53.3722 822.529 51.7595 822.529C50.459 822.529 49.8525 823.344 50.4594 824.298C51.0836 825.234 52.5053 825.72 53.6497 825.234C54.9329 824.766 59.6146 830.193 65.3715 838.794C79.3128 859.584 113.525 893.103 136.015 908.084C152.071 918.852 169.602 928.199 187.358 935.516C191.693 937.337 193.393 938.898 192.768 940.597C191.416 944.117 195.144 945.799 197.381 942.764C199.08 940.458 201.178 940.666 217.357 944.793C237.679 950.082 274.335 954.746 285.849 953.602C288.138 953.394 296.34 952.787 304.056 952.249ZM265.18 945.331C179.971 937.944 107.837 893.519 62.5277 820.57C39.0147 782.768 25.5418 740.702 21.5363 692.757C19.2995 666.001 19.3688 291.701 21.5363 267.928C31.5762 161.582 99.5661 70.4081 195.82 34.3063C260.706 9.92629 329.806 14.0531 394.085 46.028C463.514 80.6386 515.656 146.687 535.441 225.185C543.504 257.229 543.573 260.073 543.642 480.81C543.642 709.074 543.642 708.189 533.55 746.528C513.488 822.46 461.347 886.271 391.241 920.535C352.487 939.504 305.287 948.781 265.18 945.331ZM131.142 93.5743C131.749 88.0255 132.217 81.6619 132.217 79.425C132.217 75.4195 132.217 75.4192 127.674 78.6791C125.177 80.4998 118.328 86.2567 112.502 91.6148C102.479 100.753 102.149 101.221 105.947 102.314C108.114 102.921 114.409 103.458 119.958 103.597C130.05 103.736 130.05 103.736 131.142 93.5743ZM150.91 89.8463C166.758 77.9337 166.828 78.4018 148.066 74.0668C138.46 71.83 137.229 72.9225 137.159 83.2744C137.159 87.0719 136.691 92.4297 136.153 95.2735C135.546 98.1172 135.477 100.424 135.945 100.424C136.483 100.424 143.193 95.6725 150.91 89.8463ZM426.736 86.7943C426.32 79.2861 425.783 72.9917 425.575 72.7142C425.107 72.2461 404.715 76.8412 400.848 78.3325C399.097 79.0087 402.686 82.4595 412.778 89.7769C420.702 95.5338 427.205 100.285 427.343 100.354C427.413 100.423 427.204 94.3198 426.736 86.7943ZM178.48 72.5756C183.561 69.4544 183.561 69.4543 170.226 64.1136C156.805 58.6862 156.805 58.6863 150.979 61.8074C147.806 63.5068 144.823 65.4662 144.407 66.0731C143.731 67.0962 166.637 75.0899 171.44 75.4887C172.515 75.5581 175.706 74.275 178.48 72.5756ZM407.021 71.0844C413.177 69.4545 418.257 67.4256 418.327 66.5412C418.327 64.7899 387.045 46.6349 385.884 47.7793C384.67 49.0104 392.455 73.9975 394.085 73.9975C395.022 73.9282 400.778 72.645 407.021 71.0844ZM385.884 70.2695C385.485 69.125 383.647 62.8304 381.757 56.2586C378.306 44.3287 377.075 42.9069 367.798 39.3869C363.255 37.6182 363.203 37.2193 373.225 62.7611C375.393 68.3792 387.652 75.6969 385.884 70.2695ZM194.676 52.9295C200.831 38.1038 200.901 37.4274 197.034 38.7799C186.89 42.4387 163.308 54.4206 164.261 55.4436C165.336 56.5187 186.006 65.1887 188.503 65.6048C188.988 65.6742 191.832 59.9869 194.676 52.9295ZM216.212 57.4032C230.032 52.9294 230.032 52.9294 224.483 48.8718C221.431 46.635 216.212 43.1151 212.83 41.1557C205.981 37.0114 207.004 35.7974 198.126 57.9405C195.005 65.8649 195.005 65.8651 198.733 63.8363C200.762 62.7612 208.617 59.8481 216.212 57.4032ZM363.671 52.1837C358.313 36.1962 358.989 36.5431 345.724 44.5368C339.222 48.4036 334.21 51.8542 334.54 52.1837C335.563 53.2067 365.977 63.5069 366.584 63.0907C366.913 62.8306 365.63 57.9405 363.671 52.1837ZM246.765 49.4788C249.262 48.4557 247.909 46.7736 238.494 39.5255C228.073 31.4624 226.703 30.9249 220.686 31.8613C214.183 32.815 211.946 33.7688 213.299 34.9133C213.698 35.2601 219.194 38.988 225.558 43.1843C236.864 50.6925 240.661 51.8543 246.765 49.4788ZM312.327 36.8207C305.149 26.174 303.241 24.4224 299.184 24.4224C296.548 24.4224 293.149 23.9371 291.537 23.3302C287.462 21.7696 288.814 24.2837 299.114 37.4967C307.455 48.2648 308.669 49.1492 314.425 49.2012H320.651L312.327 36.8207ZM340.158 41.9531C346.799 37.9649 351.672 34.3758 350.874 33.9076C348.429 32.347 320.46 26.1044 316.194 26.1044C313.888 26.1044 312.258 26.7288 312.605 27.4744C313.749 30.3876 326.408 49.2012 327.153 49.2012C327.639 49.2012 333.465 45.9587 340.158 41.9531ZM299.114 46.7043C299.114 44.5368 281.844 24.5612 280.89 25.6363C280.353 26.3819 275.948 31.6013 271.145 37.2194L262.406 47.5886H280.768C290.86 47.5886 299.114 47.1725 299.114 46.7043ZM266.533 34.7744C271.544 28.6187 275.549 23.4689 275.411 23.3302C274.665 22.654 235.858 27.5958 234.974 28.4801C234.436 29.0177 235.511 30.5089 237.349 31.8094C239.17 33.0926 243.852 36.8206 247.771 40.0632C251.638 43.2537 255.365 45.8894 256.111 45.8894C256.787 45.8894 261.521 40.878 266.533 34.7744ZM409.795 904.894C415.552 901.304 415.552 901.304 401.264 896.571C386.906 891.75 386.907 891.75 380.734 894.871C374.509 898.062 374.508 898.062 387.652 903.195C403.362 909.368 402.617 909.298 409.795 904.894ZM159.857 892.634C165.545 891.074 170.157 889.392 170.157 888.837C170.088 888.23 163.655 883.496 155.852 878.277L141.633 868.723L142.725 878.953C143.263 884.502 143.8 890.883 143.8 893.103C143.8 896.155 144.477 896.9 146.644 896.293C148.274 895.825 154.17 894.195 159.857 892.634ZM422.193 879.838C422.87 873.734 422.87 868.792 422.193 868.792C421.517 868.792 418.326 870.89 415.015 873.543C411.685 876.109 405.322 880.514 400.779 883.288L392.663 888.369L405.807 892.357C421.031 897.039 420.286 897.507 422.193 879.838ZM137.835 880.774C136.622 866.226 134.731 861.145 129.113 857.486C125.177 854.903 125.177 854.903 125.853 870.214C126.599 884.78 126.877 885.733 131.472 889.513C134.125 891.681 136.899 893.519 137.644 893.519C138.39 893.588 138.46 887.831 137.835 880.774ZM449.417 875.503L458.503 867.439L450.232 866.416C445.689 865.879 439.256 865.064 435.944 864.596C428.765 863.711 428.696 863.919 426.997 881.866L425.852 894.126L433.1 888.837C437.088 885.924 444.475 879.907 449.417 875.503ZM120.634 866.486V852.666L106.138 851.868C98.2136 851.452 91.4509 851.313 91.1735 851.591C90.5666 852.059 118.883 880.375 119.958 880.375C120.374 880.375 120.634 874.15 120.634 866.486ZM468.526 856.81L473.052 851.452L457.757 850.984C443.799 850.498 442.03 850.845 438.441 854.157C433.43 858.908 434.921 860.191 446.174 860.937C451.186 861.266 457.203 861.683 459.648 861.891C462.769 862.081 465.335 860.66 468.595 856.81H468.526ZM117.322 846.718C117.322 846.371 115.085 843.597 112.311 840.545C109.606 837.424 104.577 831.407 101.265 827.141C97.9534 822.806 95.0402 819.477 94.8322 819.685C94.4854 820.032 89.2833 843.927 89.2139 845.158C89.2139 845.626 100.866 846.718 109.467 847.048C113.802 847.186 117.322 847.048 117.322 846.718ZM475.288 841.083C471.508 821.645 470.555 817.379 470.139 817.864C466.688 821.714 449.417 844.204 449.417 844.811C449.417 845.296 455.451 845.626 462.838 845.626C476.173 845.626 476.173 845.626 475.288 841.083ZM86.9078 828.893C88.2603 822.2 89.6127 815.489 89.9595 813.928C90.289 812.368 88.9366 808.917 86.9078 806.212C83.3184 801.322 83.3183 801.322 78.5151 815.142C73.7639 828.893 73.764 828.893 78.4458 835.673C81.0121 839.401 83.4573 842.106 83.7867 841.707C84.2029 841.291 85.6246 835.534 86.9078 828.893ZM488.64 831.199C492.299 825.98 497.241 818.541 499.616 814.743L503.951 807.773L494.865 808.102C489.923 808.31 485.796 808.986 485.796 809.593C485.796 810.2 483.559 811.223 480.854 811.761C478.132 812.368 475.912 813.46 475.912 814.067C475.912 818.541 480.577 840.684 481.531 840.684C481.791 840.684 484.981 836.418 488.64 831.199ZM75.1167 808.241C79.5904 794.768 79.5905 794.768 76.4 788.525C73.2268 782.37 73.2266 782.37 68.0073 795.981C65.1635 803.49 62.788 810.061 62.788 810.686C62.788 812.368 69.4986 822.997 70.1055 822.321C70.4523 821.991 72.6891 815.628 75.1167 808.241ZM499.062 802.553C506.379 800.993 507.732 799.97 510.714 794.143C512.621 790.485 513.835 787.242 513.488 786.895C513.159 786.566 509.222 787.381 504.766 788.733C500.223 790.086 493.86 791.976 490.461 792.86C486.195 794.022 483.421 796.19 480.924 800.455C477.386 806.472 477.387 806.472 484.097 805.397C487.825 804.79 494.536 803.49 499.062 802.553ZM68.4232 780.462C69.1515 777.428 67.7296 776.405 56.8401 772.347C49.9908 769.763 44.026 768.064 43.6272 768.48C42.6735 769.434 48.1702 783.445 53.927 794.82L58.262 803.438L62.9267 793.675C65.441 788.317 67.9377 782.37 68.4232 780.462ZM515.604 779.526C518.239 778.173 524.811 761.839 523.32 760.348C522.852 759.88 516.609 762.047 509.5 765.168C497.917 770.18 496.148 771.601 492.906 778.104C490.946 782.092 489.247 785.89 489.178 786.497C489.108 787.641 511.269 781.815 515.604 779.526ZM65.4408 763.33C64.0189 760.625 61.5049 753.377 59.8056 747.274L56.7708 736.107L51.2743 745.037C48.2918 749.927 44.7717 755.545 43.5579 757.435C41.321 760.833 41.72 761.093 54.1181 765.845C61.1754 768.48 67.1922 770.11 67.4697 769.434C67.7297 768.758 66.7933 766.035 65.4408 763.33ZM507.194 760.955C510.384 759.88 513.436 758.458 513.904 757.851C514.303 757.227 517.095 755.753 519.939 754.522C525.21 752.285 525.21 752.285 517.355 740.303L509.569 728.252L505.373 742.748C503.067 750.724 500.553 758.597 499.877 760.14C498.455 763.608 499.408 763.677 507.194 760.955ZM46.055 743.355C49.8525 737.043 52.9041 731.563 52.9041 731.165C52.9041 730.072 33.1192 718.42 31.2985 718.42C30.4142 718.42 29.7379 719.374 29.8073 720.518C29.8073 725.46 37.5238 754.799 38.807 754.799C39.0844 754.799 42.3443 749.649 46.055 743.355ZM532.198 731.355C535.163 718.09 536.186 708.536 534.626 708.536C533.88 708.536 513.904 721.125 512.621 722.425C512.274 722.755 515.534 728.373 519.8 734.823C524.135 741.257 527.932 746.268 528.331 745.852C528.73 745.453 530.499 738.95 532.198 731.355ZM52.8348 718.836C52.8348 716.322 52.2972 713.478 51.6209 712.455C49.9216 709.819 27.9173 696.606 26.8942 697.56C26.4954 698.028 26.6862 701.149 27.5012 704.531C28.715 709.681 30.553 711.519 39.6912 716.859C52.7655 724.454 52.9042 724.523 52.8348 718.836ZM525.418 707.582C531.782 703.455 537.001 699.12 537.001 697.907C537.001 696.676 537.539 693.364 538.077 690.52C539.1 685.231 539.099 685.231 526.909 693.641C515.534 701.496 512.812 704.947 512.413 712.264C512.136 716.183 512.205 716.114 525.418 707.582ZM48.7771 687.607C47.8928 681.572 46.1937 679.145 37.5237 671.411C31.9056 666.4 26.6862 662.273 26.0099 662.273C24.5187 662.273 24.4495 672.296 25.802 682.387C26.7557 689.358 27.4317 690.173 37.801 696.606C48.7078 703.455 48.7079 703.455 49.3148 699.051C49.5922 696.606 49.384 691.473 48.7771 687.607ZM524.395 689.237C529.077 685.907 533.481 682.665 534.227 682.058C535.579 680.896 519.73 667.215 517.095 667.215C516.401 667.215 515.534 673.509 515.257 681.243C514.98 688.959 514.979 695.323 515.326 695.323C515.656 695.323 519.731 692.549 524.395 689.237ZM538.7 668.238C538.7 661.389 538.146 660.643 529.285 653.811C514.927 642.835 515.534 642.904 515.534 651.366C515.534 658.614 515.864 659.082 526.493 667.146C532.597 671.758 537.816 675.486 538.077 675.486C538.423 675.486 538.7 672.226 538.7 668.238ZM47.6156 646.684L47.0779 637.824L37.194 646.684L27.2932 655.632L47.0779 673.509L47.6156 664.579C47.893 659.637 47.893 651.644 47.6156 646.684ZM528.47 620.622C522.713 615.403 517.494 611.138 516.818 611.068C516.072 611.068 515.534 616.825 515.534 623.865C515.534 636.662 515.534 636.662 526.701 645.471L537.885 654.279L538.354 642.159C538.891 630.038 538.891 630.038 528.47 620.622ZM36.7088 640.321L46.6789 631.651L37.1247 622.981C31.836 618.247 26.9636 614.311 26.1486 614.311C25.403 614.311 24.796 622.166 24.796 631.651C24.796 641.205 25.2641 649.06 25.7496 649.06C26.2871 649.06 31.2293 645.141 36.7088 640.321ZM47.6156 594.734L47.0779 584.989L35.9108 595.15L24.6574 605.381L35.9108 615.056L47.0779 624.749L47.6156 614.588C47.8237 608.97 47.8237 600.023 47.6156 594.734ZM538.7 603.543C538.7 583.498 538.562 583.428 525.487 596.971L518.031 604.704L527.048 612.819C531.99 617.293 536.603 620.952 537.331 620.952C538.077 620.952 538.7 613.097 538.7 603.543ZM530.429 585.388L536.186 579.371L527.117 571.238C522.106 566.764 517.494 563.106 516.818 563.106C516.072 563.106 515.534 570.961 515.534 580.584C515.534 598.063 515.535 598.063 520.06 594.734C522.575 592.983 527.239 588.786 530.429 585.388ZM37.593 586.948C47.4248 578.209 47.9622 577.325 47.9622 570.215V562.707L40.6448 568.654C36.6392 571.984 32.5818 574.689 31.6975 574.689C29.2699 574.689 24.796 585.266 24.796 591.023C24.796 593.867 25.3337 596.156 26.0099 596.156C26.6862 596.156 31.9055 592.029 37.593 586.948ZM30.6915 569.955C32.859 568.256 37.3328 564.458 40.7141 561.476L46.7483 556.205L36.9861 547.326C31.628 542.454 26.6862 538.448 26.0099 538.379C25.3337 538.379 24.796 546.113 24.796 555.65C24.796 565.204 25.2641 572.989 25.7496 572.989C26.2871 572.989 28.524 571.637 30.6915 569.955ZM538.961 543.668C538.631 538.934 537.885 535.067 537.279 535.067C536.654 535.067 531.452 539.333 525.695 544.621L515.118 554.106L526.493 563.782L537.885 573.544L538.7 562.967C539.099 557.141 539.238 548.471 538.891 543.668H538.961ZM47.6156 522.27L47.0779 512.855L38.009 521.455C32.9977 526.12 28.1775 529.986 27.2932 530.056C26.3568 530.125 30.4835 534.53 36.3791 539.87L47.0779 549.633L47.6156 540.685C47.893 535.743 47.893 527.472 47.6156 522.27ZM530.03 533.714C538.354 526.796 538.7 526.189 538.7 518.265V510.011L530.898 516.305C515.795 528.634 515.534 528.963 515.534 537.512C515.534 546.373 514.372 546.719 530.03 533.714ZM29.738 522.669C30.8824 521.317 32.5816 520.64 33.5353 521.247C34.4197 521.854 34.7491 521.594 34.2116 520.64C33.6741 519.756 36.1712 516.167 39.7605 512.646L46.263 506.283L40.1071 499.849C36.6391 496.329 31.8359 491.995 29.339 490.157C24.7959 486.914 24.796 486.914 24.796 506.005C24.796 524.698 25.6804 527.542 29.738 522.669ZM101.057 138.814L110.334 126.087L97.7453 125.202C90.7746 124.804 84.6709 124.595 84.064 124.803C82.8502 125.272 89.613 151.698 90.8962 151.628C91.3123 151.559 95.9074 145.802 101.057 138.762V138.814ZM122.264 114.504C126.876 109.562 126.252 109.284 108.721 108.14C96.0459 107.325 96.0461 107.325 91.7111 112.943L87.4454 118.63H102.895C117.253 118.63 118.675 118.301 122.264 114.504ZM474.421 115.717C473.537 114.174 467.572 107.672 461.139 101.29L449.417 89.7769V118.63H462.769C474.889 118.63 475.912 118.37 474.421 115.717ZM444.475 99.1925C444.475 84.7657 444.475 84.7656 438.788 80.2399C435.666 77.7256 432.615 75.6967 432.008 75.6967C431.332 75.6967 431.401 82.5286 432.008 90.9385C433.1 104.758 433.638 106.579 437.626 109.891C440.002 111.937 442.585 113.55 443.261 113.619C443.938 113.619 444.475 107.186 444.475 99.1925ZM492.091 160.489C497.033 147.016 497.033 147.016 492.836 140.652C490.53 137.202 488.102 133.734 487.426 132.988C486.802 132.26 484.583 138.277 482.537 146.409C478.878 161.235 478.878 161.235 482.745 167.945C484.843 171.604 486.681 174.448 486.872 174.24C487.08 174.118 489.386 167.876 492.091 160.489ZM85.3473 160.489C86.0235 157.715 80.3358 132.45 78.5151 130.491C78.2377 130.214 76.348 132.797 74.2325 136.179C70.4524 142.282 70.4522 142.282 75.2554 156.154C79.521 168.483 80.3361 169.714 82.2262 167.061C83.4573 165.379 84.8097 162.466 85.3473 160.489ZM478.132 142.681C482.277 126.434 482.068 125.879 473.19 124.596C468.994 124.058 462.214 123.59 458.226 123.59H450.978L459.179 133.404C463.636 138.814 468.665 145.525 470.347 148.299C471.976 151.074 473.797 153.31 474.421 153.31C475.028 153.31 476.71 148.507 478.132 142.681ZM531.036 509.664C534.626 506.543 537.07 503.37 536.533 502.485C535.978 501.67 531.106 497.405 525.557 493.07L515.534 485.215V503.63C515.534 524.299 514.65 523.883 531.036 509.664ZM47.9622 480.342V462.048L37.3851 471.325L26.8249 480.533L36.1018 489.619C41.2518 494.561 46.0027 498.618 46.6789 498.618C47.3552 498.618 47.9622 490.434 47.9622 480.342ZM538.354 469.366L537.885 459.95L527.516 469.834L517.147 479.666L537.885 496.867L538.354 487.85C538.631 482.908 538.631 474.585 538.354 469.366ZM36.1711 465.239C41.3211 460.419 45.6559 456.084 45.9333 455.546C46.1934 455.008 41.5291 450.257 35.5642 445.055L24.796 435.57V454.731C24.796 465.308 25.2644 473.909 25.8713 473.909C26.4955 473.909 31.0905 469.973 36.1711 465.239ZM529.476 460.973L537.209 453.777L529.407 446.876C514.512 433.732 515.534 433.195 515.534 454.055C515.534 474.984 514.72 474.585 529.476 460.973ZM47.6156 421.074L47.0779 411.121L36.6395 420.398L26.2179 429.744L47.0779 448.714L47.6156 439.836C47.893 435.015 47.893 426.553 47.6156 421.074ZM538.7 430.074C538.7 420.537 538.077 412.734 537.331 412.734C535.857 412.734 518.17 427.438 517.702 429.068C517.494 429.935 537.071 447.414 538.284 447.414C538.493 447.414 538.631 439.628 538.631 430.074H538.7ZM32.9977 416.999C34.1421 415.577 35.7721 414.832 36.5871 415.317C37.3847 415.855 38.009 415.456 38.009 414.364C38.009 413.341 38.9454 413.08 40.1071 413.757C41.1822 414.364 41.5983 414.294 40.9221 413.549C40.1764 412.734 41.5293 410.167 43.8876 407.653C47.1475 404.272 48.0317 401.896 47.6156 397.301C47.078 391.405 47.0781 391.405 35.9632 400.752C25.7499 409.352 24.796 410.705 24.796 416.462C24.796 422.08 25.1254 422.565 27.8478 421.143C29.4604 420.259 31.8359 418.369 32.9977 416.999ZM528.123 412.473C537.886 404.549 538.7 403.388 538.7 397.371C538.7 389.984 540.053 389.568 524.066 401.966C516.471 407.792 515.534 409.144 515.534 414.762C515.534 418.161 516.003 421.005 516.54 421.005C517.147 421.005 522.366 417.138 528.123 412.473ZM45.9333 384.764C46.1241 384.157 41.5291 379.354 35.5642 374.135L24.796 364.581V403.127L35.1652 394.527C40.7833 389.776 45.6559 385.441 45.9333 384.764ZM526.909 393.226C534.088 387.4 534.088 387.4 530.152 384.487C528.054 382.874 526.302 380.568 526.233 379.354C526.233 378.193 525.019 377.447 523.459 377.655C521.967 377.915 520.268 377.378 519.731 376.441C516.956 371.968 515.534 375.886 515.534 388.076C515.534 402.85 515.118 402.642 526.909 393.226ZM538.7 370.805C538.7 358.615 538.701 358.616 527.516 349.061L516.349 339.524L515.864 352.529C515.396 365.396 515.465 365.604 520.806 370.615C527.378 376.632 535.718 382.874 537.4 382.944C538.146 382.944 538.7 377.516 538.7 370.805ZM47.1473 342.021C46.1242 340.946 28.5242 356.726 28.2468 359.032C28.1774 359.968 32.3043 364.511 37.593 369.193L47.0779 377.724L47.6156 360.315C47.8237 350.761 47.6848 342.507 47.2166 342.021H47.1473ZM45.7254 334.634C46.3323 333.698 44.0953 330.716 40.7834 328.063C37.4541 325.358 35.1653 322.514 35.6335 321.699C36.171 320.884 35.4948 320.208 34.2116 320.208C32.8591 320.208 30.8824 319.063 29.738 317.711C25.6804 312.769 24.796 315.612 24.796 334.444V353.604L34.7492 345.004C40.1767 340.27 45.1185 335.588 45.7254 334.634ZM538.354 324.213L537.885 315.006L527.932 324.213L518.031 333.421L527.932 342.836L537.885 352.252L538.354 342.836C538.631 337.686 538.631 329.294 538.354 324.213ZM47.9622 309.44C47.9622 299.955 47.3552 292.169 46.6789 292.169C46.0027 292.238 41.3904 295.966 36.3791 300.51L27.2932 308.763L36.8474 317.78C42.1361 322.791 46.7484 326.849 47.2166 326.849C47.546 326.849 47.9622 318.994 47.9622 309.44ZM522.782 324.681C523.32 325.219 523.788 324.612 523.788 323.329C523.788 321.976 526.701 318.04 530.291 314.52L536.793 308.226L527.378 300.163C522.228 295.758 517.494 292.169 516.818 292.1C516.072 292.1 515.534 299.955 515.534 309.509C515.534 326.034 515.656 326.849 518.638 325.288C520.338 324.352 522.158 324.074 522.782 324.681ZM37.6623 292.516C47.0086 283.915 48.1011 282.285 49.0375 274.829C50.1299 266.575 50.13 266.575 45.3094 269.748C22.6288 284.453 24.8653 282.008 24.8653 292.516C24.796 297.787 25.3337 302.001 26.0099 302.001C26.6862 302.001 31.9748 297.718 37.6623 292.516ZM538.077 281.401C537.4 279.701 517.286 267.321 515.257 267.321C514.927 267.321 515.049 271.101 515.534 275.644C516.349 283.499 517.025 284.522 527.117 293.123L537.885 302.192L538.354 292.776C538.701 287.626 538.562 282.493 538.077 281.401ZM48.9681 260.194C51.6212 257.419 53.2508 247.536 51.0139 247.536C50.0602 247.536 44.1647 250.917 37.8703 255.183C27.0328 262.431 26.4259 263.177 26.4259 269.141V275.505L36.7781 268.864C42.4656 265.205 47.9624 261.356 48.9681 260.194ZM537.608 266.09C535.233 247.258 535.51 247.674 522.436 240.496C515.864 236.906 510.107 234.184 509.708 234.6C508.685 235.675 513.436 257.628 515.049 259.188C517.494 261.564 536.186 273.875 537.4 273.875C538.076 273.945 538.146 270.425 537.608 266.09ZM40.9744 247.189C47.0781 243.409 52.2974 240.149 52.5575 239.941C52.9043 239.75 49.5924 234.184 45.3788 227.56C39.7606 218.821 37.3328 216.168 36.3791 217.867C35.2867 219.827 28.1081 250.588 28.1081 253.293C28.1081 254.923 29.9462 254.038 40.9744 247.189ZM529.684 223.555C523.598 200.527 523.719 200.666 516.211 213.879C512.69 220.104 509.5 225.722 509.223 226.329C508.963 227.005 511.737 229.051 515.465 230.941C519.124 232.831 522.158 235.068 522.158 235.953C522.158 236.768 523.112 237.097 524.274 236.698C525.418 236.23 527.863 236.976 529.615 238.259C531.453 239.542 533.134 240.357 533.412 240.08C533.741 239.82 532.059 232.363 529.684 223.555ZM65.3715 202.226C66.4466 199.504 66.1171 199.244 62.389 200.18C59.684 200.874 57.846 200.527 57.3085 199.175C56.7709 197.891 56.4243 198.152 56.2856 199.851C56.2162 201.55 53.3028 203.718 48.7771 205.469C44.6329 207.03 41.321 209.128 41.3904 210.151C41.3904 211.156 44.5118 216.792 48.2225 222.67L55.0716 233.387L59.5453 219.358C61.9729 211.711 64.6259 203.978 65.3022 202.226H65.3715ZM515.604 204.463C517.563 200.666 518.517 197.007 517.771 196.331C515.794 194.562 495.281 187.921 494.466 188.736C494.05 189.152 495.68 194.302 498.056 200.18C500.431 206.076 502.321 211.295 502.321 211.763C502.321 212.249 503.136 214.625 504.09 217.122C505.772 221.665 505.772 221.665 508.962 216.515C510.644 213.671 513.627 208.244 515.604 204.463ZM66.3774 192.88C69.4293 191.181 75.186 181.696 73.9028 180.413C73.4867 179.997 67.0534 181.765 59.6146 184.28C47.4246 188.337 45.7253 189.412 43.6272 194.423C42.344 197.475 41.3211 200.597 41.3211 201.342C41.3211 202.695 59.7536 196.4 66.3774 192.88ZM514.511 180.205C508.963 167.616 502.044 155.01 500.761 155.01C500.154 155.01 497.986 160.021 495.957 166.125C493.859 172.28 491.813 178.107 491.415 179.199C490.669 180.881 510.991 189.152 516.679 189.551C517.962 189.62 517.147 186.17 514.511 180.205ZM63.7416 177.43C70.036 175.193 75.1861 172.818 75.1861 172.072C75.1861 171.275 73.3652 165.501 71.1977 159.206C67.7297 148.976 67.0536 148.108 65.0942 150.813C62.5279 154.333 49.592 178.991 49.592 180.413C49.592 182.043 51.8117 181.557 63.7416 177.43ZM281.445 939.296C280.699 938.082 276.364 932.534 271.821 927.106C265.041 918.922 262.406 916.893 257.117 916.009C253.597 915.454 250.493 915.194 250.216 915.454C249.869 915.731 253.267 921.159 257.672 927.523C264.226 936.869 266.74 939.244 271.284 940.042C280.959 941.811 282.867 941.672 281.445 939.296ZM258.348 937.753C257.672 936.661 253.874 931.112 249.938 925.563L242.829 915.332L217.772 932.395L227.448 934.563C235.997 936.453 251.221 939.036 257.464 939.643C258.816 939.782 259.163 939.036 258.348 937.753ZM304.264 922.979L309.206 916.824L290.115 917.153C279.607 917.361 271.006 917.76 271.006 918.107C271.006 918.436 275.272 923.517 280.422 929.412L289.907 940.181L294.641 934.632C297.224 931.58 301.559 926.291 304.264 922.979ZM330.951 935.984C336.239 934.909 340.505 933.349 340.366 932.395C340.297 931.511 334.887 927.314 328.384 923.188C315.102 914.518 318.292 913.356 303.189 932.187L296.687 940.319L309.015 939.106C315.847 938.499 325.731 937.077 330.951 935.984ZM356.354 917.014C359.267 910.044 361.504 904.218 361.295 904.009C361.087 903.819 352.764 906.108 342.672 909.021L324.379 914.309L336.915 922.771C343.817 927.384 349.851 930.834 350.319 930.436C350.735 930.019 353.44 924.002 356.354 917.014ZM384.323 918.367C390.496 915.593 394.831 912.749 394.016 912.003C390.357 908.899 369.827 901.512 368.544 902.865C367.33 904.148 356.891 927.731 356.891 929.274C356.891 930.089 370.243 924.817 384.323 918.367ZM205.652 924.679C201.507 911.674 194.867 900.229 189.994 897.715C187.081 896.224 184.445 895.27 184.098 895.617C183.769 896.016 185.589 902.518 188.312 910.113C192.231 921.419 193.93 924.263 197.78 925.962C204.976 929.152 206.935 928.806 205.652 924.679ZM224.813 921.627C234.506 915.055 236.933 911.743 232.269 911.743C230.916 911.743 224.067 909.905 217.027 907.668C209.987 905.431 203.953 903.888 203.675 904.148C202.739 905.102 212.276 928.268 213.645 928.268C214.374 928.268 219.402 925.286 224.813 921.627ZM185.052 918.991C185.052 917.361 178.22 894.472 177.474 893.727C176.659 892.912 150.372 900.767 150.372 901.842C150.372 903.142 156.597 906.853 170.226 913.702C182.815 920.066 185.052 920.812 185.052 918.991ZM307.385 910.859C349.036 906.992 392.525 887.224 429.702 855.18C471.37 819.356 501.645 760.209 508.824 700.612C511.269 680.289 511.321 282.077 508.893 262.57C501.974 207.914 477.196 157.524 438.042 118.561C402.686 83.413 363.393 62.8998 316.194 54.8367C296.739 51.5074 257.256 52.4613 237.956 56.6575C145.968 76.8413 78.6365 148.438 57.5164 248.68C53.719 266.506 53.7191 266.506 53.7191 482.163C53.7191 681.989 53.9271 698.912 56.6322 713.01C78.0297 824.228 159.25 902.189 263.498 911.604C278.185 912.957 286.109 912.818 307.385 910.859ZM376.745 591.89C376.745 591.145 378.774 588.439 381.219 585.942C384.93 582.006 385.606 579.978 385.207 573.735C384.739 565.95 388.658 557.141 391.71 559.048C392.594 559.586 393.27 563.106 393.27 566.903C393.27 573.805 393.27 573.805 397.397 569.678C401.125 565.95 401.333 565.013 399.773 559.308C398.351 554.176 398.559 552.008 401.056 546.98C404.923 539.125 407.281 538.656 409.258 545.298L410.818 550.708L413.731 545.298C416.436 540.078 416.437 539.749 413.177 535.535C409.119 530.455 408.235 516.375 412.101 517.796C413.315 518.334 415.76 521.247 417.442 524.438L420.494 530.125L422.332 524.698C423.945 519.964 423.754 518.802 420.286 514.675C416.298 509.872 414.737 496.59 417.928 494.63C419.887 493.416 426.06 501.272 427.413 506.491C428.349 510.41 428.349 510.41 431.869 507.167C433.846 505.329 437.435 503.092 439.932 502.156C443.938 500.665 444.475 500.786 444.475 503.578C444.475 507.774 437.366 515.958 431.54 518.403C428.349 519.687 426.251 522.201 425.037 526.189C423.338 531.686 423.407 531.877 426.112 529.449C430.326 525.652 439.533 524.022 439.533 527.073C439.533 530.455 430.447 538.726 424.43 540.755C421.24 541.847 417.928 544.881 415.483 549.095C411.616 555.65 411.616 555.65 418.934 555.112C424.69 554.644 426.32 555.043 426.32 557.089C426.32 561.216 416.766 566.903 409.657 566.903C404.784 566.903 402.686 567.788 400.726 570.77C398.212 574.619 398.281 574.689 403.57 574.689C411.425 574.758 413.922 576.718 410.264 580.047C405.738 584.174 398.143 586.48 393.062 585.388C389.542 584.573 386.976 585.457 382.571 588.786C379.381 591.214 376.745 592.636 376.745 591.89ZM405.599 579.492C406.553 578.556 405.807 578.018 403.639 578.018C398.888 578.018 394.9 579.631 394.9 581.659C394.9 583.567 403.154 581.868 405.599 579.492ZM389.473 568.533C389.074 566.903 388.658 567.857 388.658 570.562C388.589 573.267 388.935 574.619 389.404 573.475C389.82 572.383 389.889 570.146 389.473 568.533ZM416.905 562.031C420.026 560.401 421.309 558.979 420.026 558.563C417.39 557.626 408.165 561.354 408.165 563.314C408.165 565.481 411.009 565.065 416.905 562.031ZM406.483 551.124C406.483 548.61 405.807 546.581 404.992 546.581C402.946 546.581 400.987 555.858 402.409 558.303C404.108 560.938 406.414 556.811 406.483 551.124ZM430.933 534.113C432.961 532.691 434.591 530.801 434.591 529.917C434.591 528.096 425.436 532.431 423.823 534.998C422.263 537.581 426.788 536.957 430.933 534.113ZM414.945 525.582C413.385 523.016 413.177 523.137 413.177 526.865C413.107 529.241 413.662 531.755 414.338 532.431C416.298 534.391 416.766 528.842 414.945 525.582ZM437.903 510.201C441.423 505.26 441.423 505.26 437.504 507.028C435.337 508.034 432.684 510.271 431.609 512.04C428.158 517.519 433.846 515.906 437.903 510.201ZM422.8 504.323C420.91 499.85 420.702 499.78 420.164 503.162C419.349 507.497 423.338 515.906 424.222 511.762C424.569 510.34 423.893 506.959 422.8 504.323ZM135.546 493.885C135.546 488.735 134.385 486.29 129.842 481.764C124.432 476.337 120.443 465.239 123.079 462.655C123.686 462.049 126.668 464.216 129.72 467.476L135.2 473.493L135.876 467.875C136.292 464.008 135.616 461.441 133.708 459.673C127.553 454.124 125.177 439.558 130.119 437.928C131.818 437.391 137.298 444.431 139.465 449.928C139.812 450.812 141.095 450.396 142.309 448.905C144.962 445.853 152.21 440.842 154.031 440.842C154.776 440.842 155.314 442.749 155.314 445.107C155.314 449.043 150.788 454.592 141.494 461.979C140.003 463.141 138.789 466.384 138.789 469.089C138.789 474.1 138.789 474.1 143.592 470.718C149.765 466.314 152.002 466.383 152.002 470.857C152.002 472.817 149.158 477.152 145.43 480.672C139.812 485.96 138.789 487.989 138.789 493.607C138.789 497.335 138.044 500.318 137.159 500.318C136.223 500.318 135.546 497.405 135.546 493.885ZM132.009 475.66C131.073 472.955 129.113 469.765 127.622 468.62C125.316 466.73 125.108 466.852 126.131 469.505C126.738 471.117 127.275 473.164 127.275 473.909C127.275 475.262 131.818 480.481 133.032 480.481C133.379 480.481 132.894 478.313 132.009 475.66ZM147.06 473.562C147.06 471.187 144.008 473.701 141.91 477.689C140.003 481.278 140.003 481.278 143.54 478.175C145.499 476.475 147.06 474.377 147.06 473.562ZM135.546 450.067C132.893 442.142 129.651 440.166 131.142 447.414C132.217 452.98 135.338 458.06 136.76 456.69C137.09 456.292 136.621 453.309 135.546 450.067ZM150.441 450.604C151.464 448.714 151.933 446.807 151.464 446.338C150.303 445.177 142.118 453.378 142.118 455.685C142.118 458.459 148.274 454.662 150.441 450.604ZM427.95 492.931C427.95 486.498 427.343 485.215 423.338 483.116C418.812 480.81 414.737 474.446 414.737 469.695C414.737 466.522 415.829 466.661 422.401 470.718C427.673 473.978 427.95 473.978 427.95 471.117C427.881 464.753 425.991 461.303 421.24 459.205C418.535 458.06 415.223 454.939 413.853 452.355C411.287 447.344 410.61 440.842 412.708 440.842C415.084 440.842 424.69 447.414 424.69 449.044C424.69 449.997 425.436 450.743 426.32 450.743C427.205 450.743 427.95 449.859 428.02 448.714C428.02 445.107 435.528 436.923 437.626 438.206C441.84 440.772 438.58 454.592 432.684 459.135C429.979 461.234 429.58 462.794 430.517 467.736C431.609 473.77 431.609 473.77 435.736 468.828C440.14 463.609 444.475 462.447 444.475 466.522C444.475 471.464 439.742 480.273 435.528 483.047C432.008 485.353 431.262 487.105 431.262 493.07C431.262 497.075 430.516 500.318 429.649 500.318C428.696 500.318 427.95 497.006 427.95 492.931ZM423.685 476.337C422.124 474.03 420.494 472.556 420.026 473.025C419.28 473.77 424.361 480.481 425.783 480.481C426.112 480.481 425.176 478.643 423.685 476.337ZM439.741 472.487C440.608 470.25 440.955 468.152 440.487 467.667C439.603 466.782 432.961 477.221 432.961 479.458C432.892 482.024 438.181 476.614 439.741 472.487ZM421.448 450.882C417.858 445.801 414.737 444.24 414.737 447.552C414.737 449.859 422.939 457.991 424.153 456.829C424.621 456.292 423.407 453.656 421.448 450.882ZM434.522 450.812C435.666 448.159 436.204 444.986 435.736 443.824C435.06 442.073 429.649 451.887 429.649 454.8C429.649 457.575 432.823 455.009 434.522 450.812ZM84.272 491.44C84.272 490.087 85.0179 487.105 85.8849 484.816C87.2374 481.157 86.7693 480.065 82.1569 476.475L76.8852 472.279H83.5264C89.8901 472.21 90.3584 471.863 92.8033 465.239L95.3698 458.182L97.5373 465.239C99.5661 472.002 99.9128 472.21 106.415 472.279C113.195 472.279 113.195 472.279 107.976 476.406C103.155 480.203 102.826 481.018 104.248 485.891C106.554 493.885 106.207 494.231 100.381 489.758C94.971 485.613 94.971 485.614 89.6129 489.827C85.6247 492.931 84.272 493.347 84.272 491.44ZM476.849 489.55C471.976 485.683 471.976 485.683 467.242 489.082C461.468 493.139 460.047 492.185 462.353 485.562C463.983 481.018 463.705 480.273 458.833 476.406L453.544 472.279H459.856C465.613 472.21 466.358 471.672 468.994 465.43L471.907 458.598L474.144 465.43C476.311 471.932 476.71 472.21 483.144 472.279H489.923L484.635 476.406C479.901 480.203 479.554 481.019 481.115 485.492C483.629 492.671 482.276 493.954 476.849 489.55ZM141.095 441.258C143.87 431.912 143.939 429.258 141.425 425.669C138.512 421.542 137.974 411.659 140.419 407.792C142.448 404.619 145.5 407.393 148.066 414.901C149.973 420.19 149.973 420.19 152.071 415.647C153.684 412.127 153.754 410.167 152.262 406.907C149.696 401.22 149.834 397.301 152.956 389.984C155.383 384.088 155.661 383.949 157.897 387.07C159.181 388.822 160.256 393.157 160.256 396.694C160.256 402.243 160.742 402.989 163.169 402.035C169.55 399.399 177.128 397.7 178.151 398.653C181.133 401.636 167.504 412.734 160.88 412.734C158.296 412.734 156.198 414.363 154.499 417.675C151.933 422.635 151.933 422.635 156.198 421.005C162.84 418.49 167.174 418.907 166.567 422.08C165.822 426.155 157.898 431.374 152.262 431.565C148.066 431.704 147.06 432.657 145.499 437.928C144.476 441.327 142.846 444.171 141.91 444.171C140.956 444.171 140.627 442.818 141.095 441.258ZM161.487 423.311C160.325 422.149 152.002 426.224 152.002 427.906C152.002 428.721 154.308 428.183 157.152 426.692C159.926 425.27 161.886 423.71 161.487 423.311ZM143.939 413.219C142.517 410.774 142.17 411.312 142.17 416.202C142.118 419.444 142.656 422.704 143.332 423.38C145.291 425.34 145.829 416.462 143.939 413.219ZM168.666 406.907C171.301 405.555 173.538 404.064 173.538 403.595C173.538 401.567 166.828 403.197 163.377 406.092C158.713 409.959 161.747 410.427 168.666 406.907ZM156.944 398.307C156.944 392.619 156.476 391.128 155.314 392.897C152.678 397.024 153.493 406.162 156.476 406.162C156.736 406.162 156.944 402.573 156.944 398.307ZM421.309 439.905C420.425 437.599 419.679 435.016 419.679 434.218C419.679 433.403 417.044 432.241 413.853 431.634C410.61 431.027 405.738 428.253 402.824 425.34L397.605 420.19L402.824 419.652C405.668 419.375 409.518 419.982 411.494 421.005C414.876 422.825 414.876 422.756 412.431 418.022C410.541 414.364 408.443 412.942 403.501 412.196C396.651 411.052 388.328 404.618 388.328 400.405C388.328 397.301 390.496 397.301 399.027 400.405C402.686 401.705 405.668 402.781 405.668 402.781C405.668 402.781 405.738 399.798 405.929 396.139C406.067 392.481 407.09 388.423 408.235 387.07C410.003 384.903 410.61 385.042 412.778 388.145C415.691 392.359 416.159 404.948 413.454 408.208C412.032 409.89 412.362 411.589 414.807 415.317C417.182 418.907 418.066 419.444 418.066 417.207C418.066 412.872 422.87 404.202 424.69 405.295C427.95 407.324 428.419 417.814 425.505 424.317C422.8 430.282 422.8 434.148 425.644 441.518C426.251 442.94 425.852 444.171 424.829 444.171C423.823 444.171 422.193 442.211 421.309 439.905ZM411.425 425.132C406.067 422.011 403.085 422.08 407.229 425.201C408.98 426.554 411.564 427.577 412.986 427.577C414.668 427.507 414.13 426.692 411.425 425.132ZM424.569 415.647C424.621 414.034 423.945 412.734 423.008 412.734C422.124 412.734 421.448 415.508 421.517 418.976C421.586 423.918 421.846 424.455 423.008 421.82C423.823 419.982 424.499 417.207 424.569 415.647ZM403.431 406.092C399.981 403.197 393.27 401.567 393.27 403.595C393.27 404.879 402.218 409.283 404.853 409.352C406.553 409.352 406.136 408.329 403.431 406.092ZM411.616 395.133C410.402 390.729 410.263 390.66 409.188 394.041C408.512 396.001 408.512 399.659 409.188 402.174C410.263 406.509 410.402 406.578 411.616 403.318C412.31 401.359 412.31 397.7 411.616 395.133ZM166.897 394.995C166.897 393.972 168.735 390.989 171.024 388.284C173.885 384.903 175.168 381.383 175.168 376.979C175.168 369.939 180.786 359.222 183.907 360.315C185.052 360.714 185.867 363.835 185.798 367.823C185.59 374.811 186.335 375.071 192.023 370.129C193.653 368.777 194.537 367.025 193.999 366.21C192.369 363.557 196.635 353.882 201.577 349.131C205.912 345.004 206.588 344.796 207.542 347.379C208.149 348.94 207.871 352.789 206.935 355.841C205.374 361.061 205.444 361.321 208.357 359.847C210.039 358.893 213.299 356.309 215.536 354.072C218.709 350.899 221.362 349.946 227.257 349.946C232.667 349.946 234.696 350.553 234.228 352.044C233.014 355.772 222.714 361.529 217.165 361.529C207.542 361.529 205.097 363.558 212.276 365.534C221.085 368.031 221.362 370.806 213.091 373.32C207.819 374.88 205.097 374.95 201.109 373.458C196.912 371.829 195.282 371.968 191.901 374.204C187.757 376.84 187.757 376.84 193.323 378.661C196.358 379.684 199.149 381.383 199.479 382.389C200.433 385.302 190.601 388.492 183.838 387.4C178.48 386.533 176.989 387.071 172.324 391.614C169.342 394.527 166.897 396.001 166.897 394.995ZM193.323 382.996C193.323 380.897 188.312 380.897 185.052 382.996C183.231 384.227 183.908 384.626 187.965 384.626C190.948 384.626 193.323 383.949 193.323 382.996ZM183.3 367.286C183.3 364.043 183.301 364.043 180.925 367.216C179.573 368.985 178.48 372.297 178.55 374.672C178.55 378.869 178.549 378.869 180.925 374.742C182.208 372.505 183.3 369.124 183.3 367.286ZM212.345 369.8C212.952 368.777 210.663 368.17 206.519 368.17C202.461 368.17 200.155 368.777 200.762 369.8C201.317 370.684 203.953 371.412 206.519 371.412C209.172 371.412 211.808 370.684 212.345 369.8ZM199.947 364.234C199.947 363.835 201.109 360.714 202.6 357.194C205.166 350.83 205.166 350.83 201.924 354.072C197.988 358.009 195.612 364.858 198.196 364.858C199.149 364.858 199.947 364.58 199.947 364.234ZM225.628 355.772C228.818 353.396 228.818 353.396 225.489 353.344C223.599 353.275 220.616 354.35 218.848 355.703C215.675 358.078 215.674 358.147 219.056 358.147C220.946 358.217 223.859 357.124 225.628 355.772ZM394.224 391.405C389.941 386.932 388.866 386.585 381.549 387.469C375.514 388.146 372.48 387.677 369.22 385.579C364.209 382.25 365.232 380.568 373.416 378.47C379.242 377.048 379.242 377.048 374.907 374.204C371.526 371.968 369.636 371.69 366.099 373.043C360.481 375.21 355.07 375.21 349.452 373.043C343.886 370.944 346.123 367.424 354.047 365.794C358.244 364.98 358.868 364.372 356.96 363.159C355.539 362.274 352.157 361.598 349.313 361.529C344.025 361.529 333.725 355.703 332.58 352.044C331.627 349.131 342.603 349.339 348.36 352.252C350.805 353.535 354.255 356.188 355.954 358.078C359.873 362.413 362.578 362.621 360.289 358.356C357.775 353.674 358.174 346.634 360.896 346.634C365.023 346.634 371.803 356.379 371.803 362.344C371.803 366.54 372.948 368.707 376.329 371.152C380.872 374.395 380.872 374.395 380.872 367.702C380.872 364.043 381.757 360.714 382.762 360.384C385.953 359.292 391.918 370.806 391.38 376.979C391.033 381.036 392.108 383.949 395.438 387.885C399.305 392.48 401.056 396.209 399.357 396.209C399.097 396.209 396.79 394.041 394.224 391.405ZM380.872 382.996C376.26 381.036 371.387 381.036 372.601 382.996C373.156 383.949 376 384.626 378.913 384.556C383.386 384.418 383.647 384.227 380.872 382.996ZM386.022 368.638C383.577 364.234 383.508 364.182 383.439 367.823C383.387 369.939 384.253 373.251 385.346 375.279C387.045 378.331 387.444 378.47 387.912 376.094C388.259 374.534 387.375 371.222 386.022 368.638ZM362.717 369.8C361.434 367.702 356.822 367.702 353.648 369.8C351.741 370.944 352.764 371.412 357.429 371.412C361.226 371.412 363.324 370.806 362.717 369.8ZM366.046 355.512C362.041 349.408 361.087 351.905 364.624 359.292C366.792 363.904 367.798 364.858 368.214 362.691C368.474 361.061 367.538 357.801 366.046 355.512ZM347.961 355.703C346.192 354.35 343.21 353.275 341.32 353.344C337.99 353.396 337.991 353.396 341.112 355.772C342.88 357.124 345.863 358.217 347.753 358.147C351.065 358.147 351.065 358.078 347.961 355.703ZM272.775 348.87C272.844 347.171 273.52 344.328 274.266 342.507C275.341 339.923 274.526 338.293 270.399 334.704L265.18 330.23L271.96 330.178C278.462 330.178 278.792 329.901 280.89 323.121L283.058 316.081L285.433 323.121C287.739 329.831 288.069 330.178 294.641 330.178H301.421L296.01 334.704C291.051 338.848 290.722 339.646 292.352 343.859C295.195 351.298 294.519 352.044 288.693 347.639C283.265 343.512 283.266 343.513 277.977 347.709C273.243 351.368 272.636 351.506 272.775 348.87ZM216.351 297.388C214.114 295.619 210.594 293.729 208.495 293.053C203.744 291.562 199.479 282.146 200.901 276.39C202.115 271.656 208.964 265.691 213.16 265.691C214.721 265.691 217.981 267.251 220.408 269.141C226.165 273.685 226.512 284.245 221.085 290.001C217.426 293.938 217.426 293.937 221.154 294.874C223.183 295.429 224.604 296.642 224.275 297.596C223.252 300.631 220.408 300.579 216.351 297.388ZM218.379 284.782C220.824 279.441 218.917 272.8 214.513 271.378C210.178 270.026 206.519 274.153 206.519 280.517C206.519 288.926 215.067 292.03 218.379 284.782ZM155.314 280.517C155.314 268.604 155.661 267.182 158.227 267.72C160.325 268.118 161.001 269.61 160.672 273.199C160.395 275.921 160.672 280.517 161.14 283.43C162.025 288.32 162.631 288.857 167.92 288.857C177.405 288.857 173.816 292.845 163.845 293.452L155.314 293.937V280.517ZM177.873 290.747C174.145 286.62 173.937 267.373 177.665 267.373C179.503 267.373 180.11 269.28 180.11 274.898C180.11 283.915 182.416 288.857 186.613 288.857C190.601 288.857 191.693 285.666 191.693 274.5C191.693 261.286 195.681 263.523 196.305 277.204C196.704 285.129 196.167 288.319 193.999 290.678C190.341 294.683 181.532 294.753 177.873 290.747ZM230.639 281.817C235.581 267.251 236.933 264.945 239.985 266.09C241.944 266.905 251.221 288.649 251.169 292.585C251.169 295.151 246.21 293.66 244.597 290.487C243.505 288.51 241.077 287.158 238.563 287.158C235.719 287.158 234.02 288.25 233.483 290.487C233.014 292.308 231.246 293.799 229.616 293.799C226.772 293.799 226.911 292.984 230.639 281.817ZM241.268 279.84C241.268 278.557 240.522 276.996 239.586 276.459C238.702 275.852 237.956 275.783 237.956 276.182C237.956 276.667 237.488 278.158 236.933 279.65C236.257 281.331 236.864 282.216 238.632 282.216C240.054 282.216 241.268 281.123 241.268 279.84ZM262.752 291.631C262.752 290.418 264.504 284.314 266.602 278.019C271.891 262.431 275.012 262.431 281.167 278.089C283.612 284.452 285.71 290.608 285.78 291.701C285.901 295.013 281.237 294.128 279.277 290.487C278.254 288.58 275.809 287.158 273.52 287.158C271.006 287.158 269.185 288.372 268.509 290.487C267.347 294.128 262.752 295.082 262.752 291.631ZM275.948 280.187C275.879 277.482 272.705 272.453 272.705 275.037C272.636 276.112 272.168 278.158 271.613 279.58C271.006 281.332 271.544 282.216 273.312 282.216C274.734 282.216 275.948 281.262 275.948 280.187ZM289.161 280.586C289.161 269.887 289.629 267.373 291.675 267.373C293.635 267.373 294.103 269.887 294.103 280.586C294.103 291.215 293.635 293.799 291.675 293.799C289.629 293.799 289.161 291.215 289.161 280.586ZM300.207 292.706C299.6 292.099 299.114 286.152 299.114 279.441V267.373H308.2C316.523 267.373 317.477 267.719 319.038 271.708C320.252 275.037 320.044 276.996 318.084 279.979C315.709 283.568 315.709 284.314 318.015 287.574C321.327 292.377 321.205 293.799 317.477 293.799C315.57 293.799 313.541 291.839 312.327 288.857C311.183 286.082 309.206 283.846 307.992 283.846C306.57 283.846 305.686 285.736 305.686 288.857C305.686 293.452 302.912 295.429 300.207 292.706ZM313.403 276.251C314.426 273.615 311.582 270.702 307.784 270.702C306.64 270.633 305.686 272.523 305.686 274.76C305.686 279.58 311.721 280.725 313.403 276.251ZM323.841 280.725C323.841 267.997 324.049 267.373 327.899 266.367C332.979 265.153 340.435 267.511 342.672 271.101C345.793 275.991 341.996 282.961 335.892 283.568C331.627 283.984 330.621 284.852 330.136 288.51C329.875 291.163 328.523 293.122 326.754 293.452C324.188 294.007 323.841 292.516 323.841 280.725ZM337.921 277.204C339.291 275.037 335.823 270.633 332.788 270.633C331.419 270.633 330.482 272.401 330.482 274.76C330.482 279.095 335.754 280.794 337.921 277.204ZM351.55 291.701C343.556 285.666 344.84 270.98 353.718 267.321C363.879 263.107 373.763 273.008 370.85 284.591C368.821 292.516 357.914 296.573 351.55 291.701ZM363.203 286.828C366.445 283.638 365.63 274.361 361.972 272.401C357.845 270.165 357.636 270.164 354.533 273.268C349.452 278.349 352.157 288.857 358.59 288.857C360.012 288.857 362.11 287.903 363.203 286.828ZM375.115 280.655C375.115 267.373 375.115 267.373 383.04 267.373C387.375 267.373 391.849 268.257 392.924 269.349C395.438 271.777 395.507 279.303 393.132 281.748C391.848 283.031 391.848 284.453 393.132 286.88C395.646 291.493 395.438 293.799 392.525 293.799C391.172 293.799 388.935 291.562 387.513 288.857C384.323 282.684 382.086 282.493 381.41 288.371C381.15 291.163 379.728 293.122 378.028 293.452C375.462 294.007 375.115 292.516 375.115 280.655ZM389.404 276.251C390.496 273.615 387.583 270.702 383.785 270.702C382.641 270.633 381.687 272.523 381.687 274.76C381.687 279.58 387.722 280.725 389.404 276.251ZM404.853 283.239C404.853 273.268 404.576 272.592 400.588 271.586C392.854 269.679 397.137 266.506 407.42 266.506C415.015 266.506 417.251 267.113 417.251 269.003C417.251 270.355 415.552 271.708 413.523 271.985C410.073 272.453 409.795 273.407 409.795 283.17C409.795 291.493 409.258 293.799 407.281 293.799C405.391 293.799 404.853 291.493 404.853 283.239ZM123.963 210.22V172.957L131.818 173.494C139.604 173.98 139.604 173.98 149.557 193.348L159.51 212.717L169.411 193.348C179.295 173.98 179.295 173.98 187.15 173.494L195.005 172.957V247.536H180.11L180.041 224.768V202.088L172.255 216.913C165.267 230.196 163.915 231.895 159.51 232.294C154.777 232.693 154.1 231.964 147.129 218.335L139.673 203.839L139.205 225.722L138.789 247.536H124.032V210.22H123.963ZM204.906 245.368C204.906 244.085 210.386 227.491 217.096 208.521L229.286 173.98H238.026C246.418 173.98 246.765 174.17 248.794 179.736C249.938 182.91 255.764 198.828 261.729 215.162C267.764 231.41 272.636 245.368 272.636 246.183C272.636 246.998 268.769 247.466 264.035 247.189C255.435 246.651 255.435 246.651 252.99 238.796C250.545 230.872 250.545 230.872 238.095 231.34C225.627 231.826 225.628 231.826 223.044 239.265C220.547 246.513 220.339 246.721 212.692 247.189C206.866 247.536 204.906 247.137 204.906 245.368ZM245.465 214.885C244.858 213.255 243.175 207.706 241.684 202.487C240.262 197.285 238.632 193.002 238.095 193.002C237.54 193.002 235.858 197.285 234.297 202.556C232.806 207.845 231.038 213.393 230.431 214.954C229.494 217.399 230.5 217.798 237.956 217.798C245.464 217.798 246.418 217.399 245.465 214.885ZM281.705 245.507C281.376 244.345 281.167 227.751 281.375 208.66L281.705 173.98H296.617L297.086 195.308C297.432 211.226 296.947 217.052 295.386 218.214C293.704 219.358 293.704 219.826 295.317 220.503C296.479 220.988 297.432 223.901 297.432 226.936C297.432 232.502 297.432 232.502 312.726 232.97C327.968 233.438 327.968 233.439 327.968 240.08V246.652L305.218 247.137C287.947 247.467 282.312 247.137 281.705 245.507ZM342.065 236.161C342.065 228.566 342.742 224.3 344.094 223.693C345.793 222.948 345.793 222.549 344.094 221.803C342.672 221.127 342.065 215.908 342.065 204.515V188.199L331.696 187.73C321.396 187.175 321.396 187.176 321.396 180.621V173.98L349.99 173.494L378.566 173.095L378.098 180.135C377.56 187.175 377.56 187.175 368.075 187.73C358.59 188.198 358.59 188.198 358.452 199.244C358.382 205.33 358.174 218.544 358.053 228.497L357.775 246.652L349.92 247.189C342.065 247.674 342.065 247.674 342.065 236.161ZM351.949 179.736C351.949 178.852 351.204 178.107 350.319 178.107C349.383 178.107 348.637 178.852 348.637 179.736C348.637 180.673 349.383 181.418 350.319 181.418C351.204 181.418 351.949 180.673 351.949 179.736ZM373.416 246.998C373.416 245.767 398.073 176.407 399.096 174.725C399.634 173.841 403.639 173.165 407.974 173.165C416.835 173.165 413.922 167.616 434.453 223.971C443.123 247.865 443.123 247.813 433.36 247.189C425.714 246.721 425.505 246.582 422.592 238.658C420.355 232.572 420.095 230.057 421.517 228.358C422.939 226.606 422.8 225.861 420.771 225.046C417.581 223.832 414.737 225.462 414.737 228.635C414.737 230.404 412.362 231.011 404.923 231.011C395.022 231.011 395.021 231.011 392.733 238.866C390.496 246.651 390.496 246.651 381.964 247.189C377.283 247.466 373.416 247.397 373.416 246.998ZM413.853 211.018C412.57 207.376 410.68 201.203 409.587 197.406C407.697 190.505 407.697 190.505 403.83 202.903C401.663 209.735 399.911 215.838 399.911 216.515C399.911 217.191 403.57 217.798 408.027 217.798C416.229 217.798 416.229 217.798 413.853 211.018ZM252.036 903.264C160.88 890.068 89.2141 820.223 65.7705 721.94C61.0367 702.103 59.06 591.214 63.4643 591.214C65.8399 591.214 66.1171 596.503 66.1171 641.274C66.1171 694.994 67.4003 708.259 75.3247 736.922C109.536 860.122 234.627 929.083 350.059 888.369C412.24 866.416 463.029 814.136 485.259 749.042C498.801 709.42 499.339 698.097 498.593 463.938C498.056 290.955 497.639 266.644 495.281 254.923C474.82 155.01 411.356 87.2106 319.974 67.9112C301.49 63.975 263.619 63.9749 244.597 67.9631C194.19 78.4017 151.465 103.874 120.027 142.213C116.507 146.548 112.571 149.998 111.219 149.998C109.935 149.998 109.328 150.814 109.935 151.698C110.473 152.634 108.045 158.062 104.456 163.749C91.1733 184.817 79.0529 212.318 73.6948 233.438C66.1173 263.783 66.0478 264.338 66.0478 430.42C66.0478 568.724 65.7705 587.902 63.603 587.902C61.5048 587.902 61.1058 579.232 61.0365 522.201C60.6897 375.487 61.4355 272.453 62.788 261.564C69.0304 212.457 92.8729 162.258 127.067 126.364C137.645 115.249 158.574 98.5856 160.464 99.7474C161.348 100.285 161.816 99.7993 161.556 98.7242C161.348 97.7011 167.383 93.1753 175.029 88.771C247.58 46.7736 333.326 50.0856 403.085 97.6317C410.003 102.314 423.754 114.365 433.776 124.387C461.347 152.027 478.201 179.598 490.738 217.59C503.604 256.344 502.998 244.969 503.605 461.372C504.021 616.894 503.674 654.817 501.975 655.84C500.293 656.915 500.292 657.591 501.922 659.221C504.627 661.857 504.558 668.359 501.922 669.452C500.292 670.128 500.292 670.527 501.922 671.758C503.535 672.833 503.605 677.168 502.252 691.266C496.634 750.794 476.034 796.866 436.95 837.303C422.523 852.267 404.853 867.44 404.853 864.925C404.853 864.526 402.755 866.156 400.102 868.515C386.768 881.051 343.279 898.322 314.495 902.657C296.947 905.31 267.885 905.639 252.036 903.333V903.264ZM233.829 848.886C224.275 844.88 220.824 844.204 214.252 845.019C207.074 845.903 206.328 845.695 206.866 842.921C207.819 837.771 224.275 837.84 235.719 843.129C247.441 848.47 256.579 848.47 267.954 843.198C273.989 840.406 279.676 839.054 285.849 839.054C292.074 839.054 297.762 840.406 303.796 843.198C315.171 848.47 324.24 848.47 335.962 843.129C347.545 837.771 365.561 837.701 366.584 842.921C367.122 845.695 366.376 845.903 358.798 844.88C351.672 843.874 348.967 844.412 340.834 848.14C326.408 854.764 316.454 855.319 304.802 849.961C289.768 843.06 285.034 842.921 270.33 848.816C254.62 855.111 248.655 855.111 233.829 848.886ZM234.904 834.927C228.61 832.014 223.252 830.8 216.281 830.8C209.102 830.8 206.519 830.193 206.519 828.494C206.519 822.806 222.316 822.668 234.228 828.216C248.516 834.927 252.452 834.996 266.741 829.309C273.781 826.465 282.381 824.159 285.849 824.159C289.369 824.159 297.97 826.465 304.941 829.309C319.038 834.927 324.24 834.858 335.892 828.893C347.285 823.067 366.844 822.737 366.844 828.355C366.844 830.245 364.555 830.8 356.492 830.8C348.967 830.8 343.747 831.945 337.314 834.927C325.541 840.406 314.963 840.337 302.704 834.719C290.583 829.17 281.168 829.17 269.307 834.719C257.464 840.337 246.696 840.407 234.904 834.858V834.927ZM240.384 822.806C235.789 821.107 230.361 818.801 228.263 817.726C226.235 816.564 220.686 815.888 216.073 816.165C206.398 816.633 203.536 813.651 210.993 810.807C217.027 808.518 225.489 809.94 236.534 815.073C247.909 820.362 256.302 820.292 267.694 814.813C274.127 811.692 279.399 810.408 285.849 810.408C292.352 810.408 297.623 811.692 304.056 814.813C315.518 820.292 323.841 820.361 335.355 815.021C346.262 809.94 356.145 808.38 362.457 810.807C370.035 813.79 366.913 816.633 356.561 816.096C349.313 815.818 345.516 816.633 338.875 819.963C325.332 826.864 318.223 827.072 304.472 821.038C290.236 814.813 282.936 814.605 271.076 820.153C258.816 825.858 250.545 826.587 240.384 822.806ZM178.48 734.754C172.723 732.448 171.908 730.488 171.908 718.836C171.839 710.773 172.394 708.536 174.353 708.536C176.243 708.536 176.798 710.634 176.798 717.483C176.798 725.269 179.434 731.633 182.607 731.633C185.728 731.633 188.364 725.269 188.364 717.483C188.364 710.634 188.988 708.536 190.878 708.536C194.069 708.536 194.398 728.044 191.225 731.962C188.433 735.552 183.353 736.713 178.48 734.754ZM293.964 734.754C281.168 730.072 284.826 708.536 298.369 708.536C306.102 708.536 310.628 713.339 310.628 721.541C310.628 732.101 303.12 738.066 293.964 734.754ZM304.126 725.668C307.247 717.483 300.068 709.889 294.45 715.437C291.675 718.212 292.005 725.945 294.987 728.997C298.178 732.17 302.236 730.679 304.126 725.668ZM104.109 721.749C104.109 708.536 104.109 708.536 111.288 708.536C121.865 708.536 127.622 716.183 121.588 722.217C119.559 724.246 119.559 725.2 121.588 729.119C124.57 734.875 124.57 734.945 121.05 734.945C119.489 734.945 116.836 732.656 115.293 729.864C112.103 724.246 109.051 724.714 109.051 730.887C109.051 733.384 108.114 734.945 106.623 734.945C104.577 734.945 104.109 732.378 104.109 721.749ZM117.045 717.206C116.16 712.802 109.051 712.333 109.051 716.668C109.051 719.235 110.144 720.05 113.317 720.05C116.507 720.05 117.461 719.374 117.045 717.206ZM127.275 734.945V708.536H136.344C143.332 708.536 145.43 709.074 145.43 710.981C145.43 712.802 143.592 713.478 138.72 713.478C133.171 713.478 132.078 714.015 132.495 716.391C132.824 718.281 134.87 719.443 138.39 719.772C145.361 720.449 145.361 723.032 138.39 723.708C130.587 724.454 131.211 728.997 139.205 729.673C143.263 730.003 145.43 731.026 145.43 732.587C145.43 734.338 143.124 734.945 136.344 734.945H127.275ZM148.742 721.749C148.742 708.536 148.742 708.536 156.06 708.536C164.261 708.536 168.527 711.588 168.527 717.483C168.527 722.079 163.724 726.691 158.903 726.691C156.198 726.691 155.314 727.697 155.314 730.818C155.314 733.87 154.43 734.945 152.002 734.945C149.019 734.945 148.742 733.87 148.742 721.749ZM161.487 719.911C164.053 717.345 162.233 713.478 158.435 713.478C156.198 713.478 155.314 714.622 155.314 717.605C155.314 721.94 158.296 723.032 161.487 719.911ZM198.334 721.749C198.334 708.536 198.334 708.536 205.652 708.536C210.039 708.536 213.975 709.542 215.536 711.102C218.587 714.154 218.657 714.432 216.489 718.42C215.327 720.518 215.327 721.87 216.489 722.547C218.778 723.986 218.518 730.54 216.143 732.985C215.068 734.078 210.594 734.945 206.189 734.945C198.265 734.945 198.265 734.945 198.265 721.749H198.334ZM212.345 726.691C212.345 722.963 204.282 723.431 203.537 727.229C203.068 729.673 203.814 730.142 207.681 729.743C210.455 729.396 212.345 728.182 212.345 726.691ZM211.53 715.992C211.53 714.432 209.987 713.478 207.403 713.478C204.837 713.478 203.276 714.432 203.276 715.992C203.276 717.483 204.837 718.42 207.403 718.42C209.987 718.42 211.53 717.483 211.53 715.992ZM223.044 721.749C223.044 711.102 223.599 708.536 225.558 708.536C227.518 708.536 228.072 710.842 228.072 719.235C228.072 730.003 228.072 730.003 233.829 730.003C237.887 730.003 239.586 730.749 239.586 732.448C239.586 734.338 237.609 734.945 231.315 734.945H223.044V721.749ZM242.898 721.749C242.898 711.102 243.366 708.536 245.412 708.536C247.372 708.536 247.84 711.102 247.84 721.749C247.84 732.378 247.372 734.945 245.412 734.945C243.366 734.945 242.898 732.378 242.898 721.749ZM255.158 731.494C251.221 727.09 251.291 716.252 255.296 711.779C258.955 707.79 268.024 707.444 271.821 711.241C275.341 714.761 271.891 717.345 267.417 714.57C261.452 710.912 256.302 717.345 258.417 725.807C259.631 730.61 263.55 732.17 267.694 729.604C271.353 727.367 273.52 728.72 272.098 732.378C270.538 736.367 259.024 735.76 255.158 731.494ZM315.639 721.749V708.536H323.91C330.135 708.536 332.112 709.143 332.112 710.981C332.112 712.732 330.413 713.478 326.355 713.478C321.673 713.478 320.581 714.085 320.581 716.79C320.581 719.374 321.673 720.119 325.54 720.119C328.852 720.119 330.482 720.934 330.482 722.547C330.482 724.246 328.852 725.061 325.54 725.061C321.136 725.061 320.581 725.599 320.581 730.003C320.581 733.332 319.784 734.945 318.084 734.945C316.125 734.945 315.639 732.378 315.639 721.749ZM345.377 721.749C345.377 709.958 345.724 708.536 348.429 708.536C350.389 708.536 352.487 710.842 354.394 715.108C357.775 722.495 358.989 722.356 362.856 714.224C366.983 705.484 369.567 707.045 370.78 719.027C371.925 730.54 371.058 734.945 367.468 734.945C365.908 734.945 365.162 732.777 365.093 727.905C365.093 720.934 365.093 720.934 362.579 725.46C361.226 727.974 359.128 730.003 357.983 730.003C356.752 730.003 354.793 727.974 353.51 725.46C351.204 720.934 351.203 720.934 350.666 727.905C350.319 732.708 349.383 734.945 347.753 734.945C345.863 734.945 345.377 732.17 345.377 721.749ZM375.115 732.916C375.115 731.841 377.005 725.876 379.381 719.703C385.138 704.531 388.398 704.53 393.409 719.651C395.438 725.807 397.397 731.772 397.813 732.916C398.281 734.13 397.189 734.945 395.091 734.945C393.132 734.945 391.64 733.87 391.64 732.448C391.64 730.818 389.941 730.003 386.629 730.003C383.716 730.003 381.219 731.026 380.664 732.448C379.52 735.43 375.115 735.829 375.115 732.916ZM388.328 721.818C388.328 720.05 387.583 718.16 386.698 717.605C385.745 717.067 384.999 717.345 384.999 718.212C384.999 719.096 384.6 721.003 383.993 722.425C383.386 724.107 383.924 725.061 385.676 725.061C387.167 725.061 388.328 723.708 388.328 721.818ZM401.524 721.749C401.524 711.102 402.01 708.536 404.038 708.536C405.928 708.536 406.483 710.842 406.483 719.235C406.483 730.003 406.483 730.003 412.309 730.003C416.298 730.003 418.066 730.749 418.066 732.448C418.066 734.338 416.02 734.945 409.795 734.945H401.524V721.749ZM423.008 724.177C423.008 714.57 422.662 713.478 419.679 713.478C417.859 713.478 416.436 712.403 416.436 710.981C416.436 709.074 418.604 708.536 426.32 708.536C434.037 708.536 436.204 709.074 436.204 710.981C436.204 712.403 434.782 713.478 432.961 713.478C429.979 713.478 429.649 714.57 429.649 724.177C429.649 733.87 429.303 734.945 426.32 734.945C423.338 734.945 423.008 733.87 423.008 724.177ZM439.395 722.148C445.429 705.762 448.463 705.155 453.891 719.235C459.994 734.945 459.994 734.945 456.197 734.945C454.238 734.945 452.746 733.87 452.746 732.448C452.746 730.818 451.116 730.003 447.735 730.003C444.822 730.003 442.377 731.026 441.77 732.448C441.285 733.87 439.464 734.945 437.765 734.945C434.852 734.945 434.99 734.078 439.395 722.148ZM449.417 722.963C449.417 721.818 448.741 719.911 447.995 718.697C446.92 716.929 446.365 717.067 445.567 719.235C443.937 723.5 444.267 725.061 446.989 725.061C448.342 725.061 449.417 724.107 449.417 722.963ZM224.743 692.011V665.516H233.829C240.8 665.516 242.898 666.14 242.898 668.03C242.898 669.799 241.129 670.527 237.141 670.527C233.084 670.527 231.315 671.273 231.315 672.972C231.315 674.671 233.014 675.486 236.326 675.486C239.586 675.486 241.268 676.301 241.268 677.914C241.268 679.613 239.586 680.428 236.326 680.428C232.46 680.428 231.315 681.174 231.315 683.74C231.315 686.393 232.459 687.069 237.141 687.069C241.129 687.069 242.898 687.815 242.898 689.497C242.898 691.404 240.8 692.011 233.829 692.011H224.743ZM246.21 678.798C246.21 666.937 246.557 665.516 249.331 665.516C251.221 665.516 254.481 668.637 257.602 673.388L262.683 681.243L262.752 673.319C262.752 666.608 263.22 665.394 265.665 665.862C268.024 666.331 268.561 668.567 268.977 679.197C269.446 690.849 269.185 692.011 266.342 692.011C264.434 692.011 261.382 689.098 258.417 684.416L253.666 676.839L253.129 684.416C252.712 690.659 252.036 692.011 249.401 692.011C246.488 692.011 246.21 690.78 246.21 678.798ZM279.277 681.364C279.277 671.619 279 670.666 275.549 670.197C267.954 669.105 272.168 666.331 282.19 665.862C290.583 665.464 292.473 665.862 292.473 667.961C292.473 669.591 290.982 670.527 288.346 670.527C284.358 670.527 284.219 670.874 284.219 681.243C284.219 689.705 283.682 692.011 281.705 692.011C279.815 692.011 279.277 689.705 279.277 681.364ZM295.802 678.798C295.802 665.516 295.802 665.516 303.12 665.516C314.148 665.516 319.437 673.041 313.004 679.544C310.559 681.919 310.559 682.526 313.004 686.185C316.316 691.335 316.315 692.011 312.535 692.011C310.628 692.011 308.599 690.034 307.385 687.069C306.224 684.277 304.264 682.058 303.05 682.058C301.629 682.058 300.744 683.948 300.744 687.069C300.744 690.312 299.929 692.011 298.299 692.011C296.271 692.011 295.802 689.427 295.802 678.798ZM309.015 673.787C309.015 671.411 307.923 670.527 304.871 670.527C301.819 670.527 300.744 671.411 300.744 673.787C300.744 676.232 301.819 677.099 304.871 677.099C307.923 677.099 309.015 676.232 309.015 673.787ZM325.54 687.191C325.54 684.555 323.703 679.197 321.396 675.209C316.593 666.816 316.385 665.516 319.783 665.516C321.136 665.516 323.702 667.891 325.402 670.735L328.523 675.885L331.228 670.735C332.65 667.891 334.956 665.516 336.308 665.516C339.482 665.516 339.412 665.932 334.609 675.486C332.372 679.942 330.482 685.509 330.482 687.815C330.482 690.45 329.529 692.011 328.037 692.011C326.355 692.011 325.54 690.381 325.54 687.191ZM267.694 632.604C267.694 631.789 269.584 629.622 271.891 627.801C276.087 624.472 276.087 624.472 268.509 623.327C262.007 622.374 260.308 622.721 257.048 625.824C252.591 630.038 243.921 632.327 238.026 630.905C234.02 629.899 234.02 629.899 238.84 625.426C241.545 622.981 244.858 620.883 246.21 620.744C247.58 620.674 244.32 619.201 238.91 617.432C229.616 614.449 229.009 614.449 225.957 617.224C222.715 620.137 208.079 621.368 205.652 618.923C203.675 617.033 208.218 612.75 213.767 611.276C218.986 609.837 218.986 609.837 213.16 607.479C208.149 605.311 206.935 605.311 203.207 607.479C198.473 610.184 189.387 609.161 184.168 605.381C181.064 603.144 181.133 603.005 185.121 601.375C187.358 600.439 191.346 599.208 193.93 598.67C197.519 597.924 198.334 596.971 197.519 594.873C195.283 589.185 194.537 581.261 196.305 581.261C199.756 581.261 207.871 591.214 209.31 597.248C210.386 601.913 212.016 603.889 215.865 605.45C221.015 607.548 221.015 607.548 218.848 601.445C216.542 594.803 217.634 592.168 222.038 593.867C225.021 594.942 231.384 605.918 231.384 609.906C231.384 611.328 234.297 613.028 238.702 614.12C249.123 616.756 250.077 616.548 247.164 612.282C244.597 608.623 243.644 602.728 245.603 602.728C248.863 602.728 257.672 610.114 259.423 614.241C261.591 619.461 268.561 621.628 283.404 621.628C287.063 621.628 293.496 621.021 297.692 620.345C304.195 619.322 305.686 618.386 307.455 614.051C309.345 609.577 317.477 602.797 320.997 602.797C323.442 602.728 322.142 609.039 318.83 613.236C315.518 617.501 315.518 617.501 324.24 614.918C334.54 611.953 334.47 611.952 336.985 604.149C339.013 597.855 346.331 591.491 348.706 593.936C349.452 594.664 349.105 598.063 347.961 601.375C345.863 607.409 345.863 607.409 351.342 604.826C355.538 602.797 357.168 600.768 357.914 596.572C359.128 590.139 365.977 581.261 369.705 581.261C372.271 581.261 372.064 587.832 369.358 594.664C368.544 596.78 369.965 597.786 375.792 599.208C385.554 601.722 386.56 603.959 379.45 606.941C372.133 609.976 366.723 610.045 362.717 607.063C360.012 605.103 358.798 605.173 354.186 607.34C348.759 609.906 348.759 609.906 355.331 612.889C362.319 616.01 363.602 618.316 359.267 619.946C353.978 621.975 345.724 620.813 341.528 617.571C337.314 614.241 336.985 614.172 328.176 616.964C319.229 619.807 319.229 619.807 324.309 623.258C327.153 625.148 329.737 627.593 330.066 628.616C331.835 634.096 314.824 631.789 309.206 625.703C306.571 622.842 304.871 622.512 298.438 623.466C290.791 624.611 290.791 624.611 295.126 628.668C301.212 634.304 299.114 635.171 291.675 630.09C283.942 624.888 282.867 624.888 275.341 630.038C268.631 634.564 267.763 634.911 267.763 632.604H267.694ZM249.002 626.709C252.314 625.356 254.62 623.796 254.082 623.327C252.66 621.906 244.858 624.333 242.759 626.917C240.332 629.83 241.545 629.83 249.002 626.709ZM323.841 626.847C320.581 623.657 311.304 621.368 313.073 624.142C314.425 626.379 320.044 628.946 323.841 629.084C325.939 629.223 325.939 628.946 323.841 626.847ZM222.246 616.01C224.951 614.866 224.483 614.588 219.801 614.449C216.611 614.449 212.9 615.126 211.53 616.01C208.288 618.039 217.426 618.039 222.246 616.01ZM354.463 616.01C353.908 615.056 350.666 614.311 347.337 614.38C342.811 614.38 341.857 614.796 343.695 616.01C347.007 618.108 355.746 618.108 354.463 616.01ZM255.088 613.444C254.551 612.074 252.661 610.184 250.892 609.23C247.701 607.548 247.701 607.617 250.424 611.744C253.458 616.339 256.649 617.571 255.088 613.444ZM316.454 609.716C315.379 608.623 310.628 612.698 310.628 614.796C310.628 615.733 312.119 615.126 313.957 613.496C315.778 611.883 316.94 610.114 316.454 609.716ZM225.489 602.606C223.998 599.814 222.437 597.924 221.899 598.462C220.946 599.416 225.835 607.739 227.327 607.739C227.725 607.739 226.98 605.45 225.489 602.606ZM345.377 599.069C345.377 598.133 343.886 599.277 342.065 601.583C340.227 603.889 338.736 606.386 338.806 607.132C338.875 609.109 345.377 601.115 345.377 599.069ZM201.317 604.635C202.86 603.612 202.062 602.936 198.473 602.19C192.161 600.976 186.942 602.537 190.341 604.635C193.115 606.386 198.525 606.386 201.317 604.635ZM376.468 604.635C379.797 602.537 374.578 600.976 368.336 602.259C364.746 602.936 363.931 603.612 365.422 604.635C368.266 606.456 373.624 606.386 376.468 604.635ZM202.323 589.393C198.196 584.85 197.589 586.688 200.97 593.121C203.276 597.526 204.022 597.994 204.56 595.618C204.906 593.988 203.883 591.145 202.323 589.393ZM367.59 589.601C368.682 585.457 368.682 585.457 365.301 589.324C361.295 593.936 360.29 600.231 364.209 596.104C365.422 594.803 366.983 591.821 367.59 589.601ZM261.383 602.728C231.385 597.318 199.08 577.463 181.393 553.482C126.998 479.926 169.342 376.164 260.776 358.893C314.287 348.801 371.318 377.447 395.646 426.692C430.256 496.728 390.825 580.446 313.957 600.161C300.883 603.473 273.313 604.826 261.383 602.728ZM322.142 593.052C344.424 584.85 375.254 564.129 370.988 560.193C370.035 559.308 355.885 555.927 339.551 552.615C289.3 542.385 293.357 544.136 292.82 532.553C292.074 518.126 286.04 512.993 277.647 519.756C274.942 521.993 273.85 525.114 273.104 532.969C272.636 538.656 272.029 543.269 271.891 543.269C271.353 543.269 200.97 558.095 196.843 559.048C192.907 559.985 192.907 560.054 199.271 566.626C207.872 575.504 221.154 584.104 235.112 590C253.458 597.647 264.365 599.485 287.531 598.809C305.617 598.271 309.883 597.526 322.142 593.052ZM207.403 553.43C220.616 550.517 220.616 550.517 221.622 540.148C222.784 528.166 226.373 523.345 234.367 523.137C242.361 522.877 246.21 527.42 246.21 536.957C246.21 541.361 246.956 544.951 247.84 544.951C248.794 544.951 249.539 540.546 249.539 535.067C249.539 514.606 265.388 512.109 267.833 532.154L268.908 540.824L269.116 531.946C269.307 524.368 270.053 522.461 274.457 518.334C280.769 512.508 285.849 512.248 291.936 517.519C295.802 520.779 296.617 522.877 296.808 529.986C297.155 540.824 299.114 543.2 299.114 532.83C299.114 520.502 306.362 515.091 313.68 521.854C316.593 524.628 317.269 527.073 317.269 535.535C317.339 542.714 317.807 545.02 318.899 543.269C319.783 541.916 320.529 538.258 320.581 535.136C320.581 527.42 324.587 523.484 332.372 523.484C340.366 523.484 343.748 528.166 345.169 541.223C346.192 550.708 346.192 550.708 361.035 553.76C375.791 556.811 375.792 556.811 380.335 551.263C385.138 545.436 394.016 530.194 393.062 529.379C392.525 528.963 326.147 517.45 290.045 511.502C282.26 510.202 277.578 510.41 268.509 512.508C262.197 513.93 238.355 518.195 215.674 521.923C192.907 525.721 173.816 529.31 173.139 529.917C171.093 531.807 187.965 556.534 191.225 556.395C192.837 556.343 200.155 554.973 207.403 553.43ZM236.742 547.326C242.829 546.251 242.898 546.113 242.898 538.448C242.898 529.64 240.869 526.796 234.436 526.796C228.194 526.796 224.743 532.293 224.743 542.107C224.743 548.956 225.159 550.031 227.656 549.286C229.217 548.818 233.274 547.933 236.742 547.326ZM341.996 542.853C341.996 533.246 338.944 527.75 333.257 527.073C326.407 526.258 323.91 529.31 323.91 538.379C323.91 546.251 323.91 546.251 331.696 547.864C336.031 548.748 340.158 549.633 340.834 549.702C341.528 549.841 342.065 546.719 341.996 542.853ZM261.799 542.315C265.319 540.963 265.319 527.958 261.799 524.438C256.371 519.01 252.851 523.085 252.851 534.53C252.851 543.668 254.481 545.09 261.799 542.315ZM313.957 535.136C313.957 528.218 311.183 521.785 308.2 521.785C302.565 521.785 299.929 540.755 305.287 542.176C313.212 544.205 313.957 543.668 313.957 535.136ZM395.507 523.484C394.692 522.877 387.774 521.386 380.057 520.293C372.341 519.218 355.677 516.843 343.071 515.022C305.478 509.595 312.327 512.248 354.654 519.426C391.779 525.79 398.819 526.466 395.507 523.484ZM214.79 518.611C234.367 515.091 249.193 512.109 247.84 511.97C242.759 511.571 170.226 522.6 170.226 523.831C170.226 526.05 178.411 525.114 214.79 518.611ZM211.53 512.993C217.357 511.693 198.595 513.253 181.393 515.421C173.469 516.444 167.313 517.796 167.712 518.473C168.319 519.496 198.525 515.698 211.53 512.993ZM398.212 518.75C398.212 517.19 355.14 511.086 351.811 512.248C350.666 512.577 360.481 514.467 373.555 516.375C386.699 518.195 397.605 519.825 397.813 519.964C398.073 520.103 398.212 519.496 398.212 518.75ZM186.335 511.155C187.566 509.941 195.005 462.863 195.005 456.292C195.005 448.714 195.005 448.714 200.155 449.72C202.999 450.257 206.727 450.743 208.426 450.743C210.386 450.743 211.53 451.887 211.53 454.055C211.53 456.968 212.622 457.384 221.431 457.384C228.541 457.384 231.315 456.76 231.315 455.147C231.315 453.986 232.13 444.986 233.153 435.224C234.367 422.704 234.367 416.063 233.153 412.473C231.592 408.069 231.783 407.393 234.696 406.578C236.743 406.092 237.956 404.341 237.956 402.035C237.956 396.954 242.551 393.035 244.667 396.347C245.464 397.631 246.158 400.336 246.21 402.451C246.21 405.017 247.233 406.092 249.47 406.092C252.452 406.092 252.713 407.185 252.383 417.277L252.036 428.461L261.452 428.929C273.174 429.536 281.375 425.947 280.699 420.537C279.954 415.109 282.312 412.057 285.225 414.572C286.786 415.855 287.063 417.138 285.971 418.369C281.983 423.242 293.028 429.258 305.894 429.258H316.125L315.171 417.675C314.217 407.046 314.425 406.162 317.408 406.162C319.575 406.162 320.581 405.017 320.581 402.451C320.651 400.336 321.327 397.631 322.142 396.347C324.24 393.035 328.852 396.954 328.852 402.104C328.852 404.41 329.997 406.092 331.696 406.439C334.21 406.907 334.47 408.676 334.072 419.722C333.725 426.762 334.072 438.067 334.679 444.917L335.823 457.384H345.585C354.186 457.384 355.261 456.968 355.261 454.055C355.261 452.234 356.215 450.743 357.376 450.743C358.451 450.743 362.18 450.257 365.63 449.72C371.803 448.645 371.803 448.645 371.803 457.575C371.873 464.892 379.103 509.872 380.473 511.155C380.733 511.363 385.069 512.109 390.149 512.716C401.056 514.068 400.588 514.745 403.362 494.561C410.94 440.512 374.907 385.44 319.783 366.887C307.784 362.881 304.264 362.482 282.589 362.482C261.261 362.552 257.186 363.02 245.742 366.817C205.583 380.221 173.885 414.294 164.469 454.332C161.556 466.852 161.21 491.18 163.845 504.375C165.822 513.93 165.822 513.93 175.844 512.785C181.393 512.178 186.075 511.433 186.335 511.155ZM225.159 510.826C224.067 510.34 221.83 510.34 220.2 510.757C218.588 511.155 219.524 511.571 222.246 511.571C225.02 511.623 226.304 511.294 225.159 510.826ZM263.55 510.201C267.955 509.126 268.093 508.988 264.365 508.988C262.128 508.988 258.001 509.525 255.296 510.201C250.892 511.363 250.753 511.502 254.481 511.502C256.718 511.502 260.845 510.947 263.55 510.201ZM312.726 510.826C311.582 510.34 309.744 510.34 308.599 510.826C307.455 511.225 308.391 511.623 310.628 511.623C312.934 511.623 313.888 511.225 312.726 510.826ZM345.793 510.826C344.701 510.34 342.464 510.34 340.834 510.757C339.222 511.155 340.158 511.571 342.88 511.571C345.585 511.623 346.938 511.294 345.793 510.826ZM223.928 506.89C238.425 505.069 252.036 503.161 254.082 502.693C257.672 501.948 257.793 501.202 257.793 484.538V467.198L227.656 467.667L197.589 468.083L194.069 489.151C190.601 510.202 190.601 510.202 193.999 510.271C195.889 510.271 209.363 508.71 223.928 506.89ZM235.112 509.126C233.951 508.71 231.714 508.658 230.17 509.126C228.54 509.525 229.425 509.872 232.199 509.941C234.904 509.941 236.187 509.595 235.112 509.126ZM302.773 509.126C301.698 508.658 299.79 508.658 298.715 509.126C297.554 509.595 298.507 509.941 300.744 509.941C303.05 509.941 303.935 509.595 302.773 509.126ZM335.892 509.126C334.748 508.71 332.511 508.658 330.951 509.126C329.321 509.525 330.205 509.872 332.979 509.941C335.702 509.941 336.985 509.595 335.892 509.126ZM375.792 507.358C374.838 502.953 368.474 468.898 368.474 468.013C368.474 467.597 355.14 467.268 338.736 467.268H309.015V484.608C309.015 504.93 305.218 502.208 340.366 506.82C372.41 510.947 376.607 511.016 375.792 507.358ZM248.325 507.497C247.164 507.028 244.927 507.028 243.366 507.427C241.754 507.843 242.621 508.242 245.412 508.242C248.117 508.312 249.4 507.965 248.325 507.497ZM277.925 490.833C280.144 488.128 286.924 488.128 288.624 490.833C289.3 491.995 290.375 495.844 290.982 499.503C292.005 505.936 292.074 505.866 292.282 497.127C292.404 490.902 291.675 487.243 289.768 485.145C286.456 481.556 280.422 481.226 277.11 484.538C274.266 487.451 271.891 501.133 273.781 504.046C274.596 505.329 275.341 503.63 275.688 499.503C275.948 495.914 276.971 491.995 277.925 490.833ZM299.114 488.735V473.909H267.694L267.885 488.336C268.093 502.832 268.301 503.092 270.122 491.648C271.423 483.932 276.624 478.851 283.266 478.92C292.213 478.989 297.432 486.03 297.432 497.942C297.432 501.063 297.831 503.63 298.23 503.63C298.716 503.63 299.114 496.937 299.114 488.735ZM264.365 486.29V470.58H302.374V486.29C302.374 495.653 303.051 501.948 304.056 501.948C305.01 501.948 305.686 495.098 305.686 484.608V467.268H261.053V484.608C261.053 495.098 261.729 501.948 262.752 501.948C263.689 501.948 264.365 495.653 264.365 486.29ZM368.474 458.528C368.474 453.725 367.937 453.049 363.532 452.702C359.267 452.425 358.59 452.91 358.59 456.5C358.59 460.696 358.59 460.696 339.551 460.696C322.072 460.696 320.581 460.419 320.581 457.575C320.581 453.517 313.819 451.558 311.304 454.939C309.068 457.922 306.224 458.112 305.287 455.268C304.802 453.777 298.785 453.24 282.867 453.24C266.532 453.24 261.122 453.725 261.122 455.268C261.053 458.112 258.071 457.922 255.019 454.8C251.846 451.61 249.193 452.355 247.025 457.037C245.534 460.488 244.389 460.696 226.841 460.696C209.501 460.696 208.218 460.418 208.218 457.436C208.218 453.448 205.843 451.887 201.577 453.24C199.271 453.985 198.334 455.754 198.334 459.135C198.334 463.939 198.334 463.938 283.404 463.938H368.474V458.528ZM243.713 454.055C244.32 452.234 246.019 450.743 247.58 450.743C250.007 450.743 250.285 449.39 249.539 441.258C248.724 431.773 248.724 431.773 242.499 431.235C236.326 430.75 236.326 430.75 236.326 438.882C236.326 443.356 235.858 449.39 235.251 452.234C234.297 456.899 234.627 457.384 238.424 457.384C241.199 457.384 243.037 456.222 243.713 454.055ZM331.488 452.234C330.951 449.39 330.482 443.425 330.482 438.952C330.482 430.958 330.482 430.958 324.864 430.958C318.414 430.958 317.269 432.796 317.269 443.425C317.269 449.65 317.738 450.743 320.581 450.743C322.749 450.743 323.841 451.818 323.841 454.055C323.841 456.5 324.986 457.384 328.176 457.384C332.164 457.384 332.442 456.968 331.488 452.234ZM258.417 439.42C259.093 438.414 261.123 437.53 262.874 437.53C266.203 437.53 268.024 440.304 268.37 445.992C268.7 453.049 271.891 449.321 272.289 441.258C272.844 432.588 272.844 432.588 262.805 432.588C252.851 432.588 252.851 432.588 252.851 439.021C252.851 442.61 253.337 446.876 254.013 448.575C254.949 451.003 255.365 450.674 256.25 446.477C256.787 443.686 257.793 440.512 258.47 439.42H258.417ZM282.936 437.877C286.456 437.46 287.601 438.137 288.208 441.119C288.693 443.217 289.369 446.477 289.768 448.298C290.115 450.067 290.514 446.668 290.652 440.72C290.791 430.889 290.444 429.605 287.132 428.114C284.618 426.97 282.191 426.97 279.676 428.114C276.295 429.605 275.948 430.819 276.225 440.651C276.364 449.928 276.555 450.535 277.439 444.986C278.324 439.298 279.069 438.275 282.936 437.877ZM300.952 438.674C305.478 435.83 309.015 438.483 309.015 444.917C309.015 448.974 309.744 450.743 311.512 450.743C313.402 450.743 313.957 448.645 313.957 441.587C313.957 432.38 313.957 432.38 304.472 432.917C294.987 433.403 294.987 433.403 294.45 439.767C293.704 448.575 296.01 453.517 297.293 445.992C297.831 442.888 299.461 439.628 300.952 438.674ZM247.84 421.005C247.84 414.762 247.58 414.433 242.898 414.433C238.216 414.433 237.956 414.762 237.956 421.005C237.956 427.23 238.216 427.646 242.898 427.646C247.58 427.646 247.84 427.23 247.84 421.005ZM239.586 421.005C239.586 419.167 240.731 417.675 242.083 417.675C243.436 417.675 244.597 419.167 244.597 421.005C244.597 422.825 243.436 424.317 242.083 424.317C240.731 424.317 239.586 422.825 239.586 421.005ZM330.482 421.005C330.482 414.572 330.343 414.433 324.725 414.433C319.038 414.433 318.899 414.572 318.899 421.005C318.899 427.438 319.038 427.646 324.725 427.646C330.343 427.646 330.482 427.438 330.482 421.005ZM322.558 420.589C322.818 418.56 323.772 416.878 324.725 416.878C325.61 416.878 326.615 418.56 326.893 420.589C327.222 423.172 326.615 424.317 324.725 424.317C322.818 424.317 322.142 423.172 322.558 420.589ZM246.626 409.959C244.597 409.56 241.199 409.56 239.17 409.959C237.141 410.306 238.771 410.636 242.898 410.636C247.025 410.636 248.655 410.306 246.626 409.959ZM327.569 409.959C325.54 409.56 322.211 409.56 320.182 409.959C318.084 410.306 319.784 410.636 323.841 410.636C327.968 410.636 329.667 410.306 327.569 409.959ZM184.098 589.185C180.717 586.48 177.128 585.388 171.579 585.388C166.359 585.388 162.302 584.313 159.319 582.006C153.146 577.394 154.1 575.504 162.562 575.504C169.81 575.504 169.81 575.504 166.567 571.377C164.192 568.394 161.556 567.181 156.875 566.973C149.835 566.695 140.488 561.008 140.488 557.089C140.488 555.043 142.049 554.644 147.528 555.112C154.638 555.65 154.638 555.65 150.788 548.748C148.066 543.876 145.499 541.57 142.118 540.824C137.506 539.801 127.275 530.056 127.275 526.744C127.275 524.299 131.749 524.767 137.506 527.75C142.24 530.195 142.517 530.195 141.494 527.611C140.957 526.05 140.488 524.16 140.488 523.345C140.488 522.53 137.506 520.363 133.916 518.542C130.258 516.635 126.2 512.993 124.778 510.271C122.264 505.399 121.449 500.318 123.218 500.318C125.038 500.318 131.402 504.115 134.87 507.236C138.39 510.41 138.39 510.41 139.396 506.491C140.679 501.202 146.921 493.416 148.881 494.63C151.863 496.451 150.441 508.034 146.453 513.93C142.985 519.01 142.725 520.501 144.286 525.443L146.037 531.079L149.488 524.507C151.465 520.848 154.031 517.588 155.245 517.19C158.505 516.028 156.597 532.553 152.956 536.558C150.303 539.541 150.303 540.009 153.424 546.043L156.667 552.338L157.828 546.182C159.181 539.194 162.163 538.119 164.799 543.668C168.319 550.916 168.666 553.759 166.759 559.447C165.077 564.597 165.267 565.551 168.804 569.001C172.723 572.938 172.723 572.938 173.07 566.088C173.608 557.349 174.683 556.395 178.758 561.354C181.133 564.32 181.861 567.441 181.601 573.336C181.255 580.116 181.809 582.006 185.867 586.203C191.763 592.306 190.601 594.266 184.168 589.185H184.098ZM142.916 534.998C141.373 532.431 132.217 528.096 132.217 529.917C132.217 531.946 138.858 536.697 141.771 536.697C142.985 536.697 143.54 535.951 142.916 534.998ZM153.632 525.929C153.632 523.207 153.354 523.085 152.002 525.114C151.118 526.466 150.441 529.102 150.441 530.871C150.441 533.645 150.719 533.784 152.002 531.755C152.886 530.333 153.632 527.75 153.632 525.929ZM132.564 509.872C125.784 503.023 123.963 504.861 130.535 511.901C133.309 514.883 136.084 516.773 136.691 516.167C137.298 515.56 135.477 512.716 132.564 509.872ZM147.06 503.838C147.06 498.012 144.078 501.41 142.847 508.658C141.91 514.068 142.049 514.207 144.477 511.155C145.898 509.404 147.06 506.075 147.06 503.838ZM171.839 581.33C171.839 579.371 164.591 577.325 161.626 578.486C160.256 578.954 161.001 579.908 163.585 580.983C168.926 583.22 171.839 583.359 171.839 581.33ZM176.92 565.88C174.822 563.782 174.561 566.764 176.382 572.989C177.596 577.134 177.596 577.134 178.151 572.383C178.48 569.816 177.943 566.834 176.92 565.88ZM158.643 563.314C158.643 561.285 149.349 557.626 146.713 558.632C145.5 559.118 147.06 560.539 150.372 562.031C157.152 565.065 158.643 565.273 158.643 563.314ZM164.469 551.731C163.845 548.887 162.632 546.581 161.817 546.581C160.065 546.581 159.788 553.222 161.348 557.28C163.1 561.961 165.683 557.28 164.469 551.731Z" fill="#25549A"/>
</svg>
