<svg width="958" height="729" viewBox="0 0 958 729" fill="none" xmlns="http://www.w3.org/2000/svg">
<path fill-rule="evenodd" clip-rule="evenodd" d="M416.743 699.237C365.59 693.826 282.151 673.852 285.772 667.958C286.637 666.55 285.993 666.248 284.122 666.952C279.093 668.903 217.48 643.759 212.371 637.785C211.365 636.537 209.233 635.27 207.744 634.969C202.394 633.862 163.651 608.557 147.7 595.844C88.7014 548.774 47.0626 486.456 32.4387 423.274C24.1914 387.77 24.8149 340.157 34.1686 302.742C63.9394 182.673 182.68 80.9294 338.012 42.2676C411.795 23.9626 500.283 20.8849 577.988 33.9398C602.187 37.9428 626.466 43.998 628.598 46.5929C629.685 47.7596 633.849 48.7851 638.013 48.8655C647.929 49.1069 688.16 63.9525 718.635 78.5764C768.541 102.534 804.608 127.356 838.865 161.23C862.52 184.564 889.073 218.982 887.665 224.333C887.182 226.224 887.806 227.793 888.992 227.793C891.969 227.793 897.4 237.448 896.214 240.666C895.751 242.155 896.133 242.799 897.24 242.095C899.211 240.908 902.671 247.344 912.407 270.92C926.709 305.418 933.065 348.787 929.464 387.851C926.165 423.515 912.487 470.907 904.863 472.939C902.269 473.562 901.886 474.427 903.294 476.238C906.05 479.537 891.587 505.546 873.986 529.041C857.954 550.423 829.27 579.812 809.476 595.2C796.904 604.876 795.013 605.821 793.203 603.065C791.393 600.309 791.252 600.471 792.036 603.931C793.122 608.557 784.09 615.396 753.294 633.077C690.272 669.305 617.897 691.392 533.513 700.182C509.153 702.777 444.643 702.234 416.743 699.237ZM488.656 693.042C505.312 693.424 518.97 693.182 518.97 692.559C518.97 691.935 526.754 690.829 536.269 690.125C545.844 689.421 558.657 688.073 564.873 687.148C585.069 683.99 590.178 683.608 590.178 685.418C590.178 686.364 591.043 687.148 592.049 687.148C593.075 687.148 593.699 686.202 593.477 685.015C593.155 683.768 603.133 680.308 618.058 676.527C690.675 658.141 755.728 626.862 806.016 586.249C825.729 570.378 856.848 537.368 871.15 517.333C882.314 501.543 907.056 454.955 907.056 449.605C907.056 448.277 908.484 447.171 910.295 447.09C912.648 447.09 912.95 446.688 911.22 445.602C909.429 444.415 909.51 442.223 911.622 434.84C924.898 389.339 923.49 331.588 908.002 285.765C905.487 278.302 903.838 271.483 904.401 270.618C904.944 269.753 904.622 269.029 903.676 269.029C902.832 269.029 899.211 262.914 895.751 255.451C849.083 155.095 730.342 73.4668 591.103 46.0294C437.019 15.7155 277.122 48.5442 164.054 133.733C107.006 176.72 65.8301 231.635 47.7665 289.004C31.9759 339.051 32.1973 396.259 48.3098 445.441C71.1005 514.98 134.665 585.384 212.451 627.184C220.699 631.589 228.564 636.135 229.972 637.161C231.32 638.267 233.432 639.374 234.618 639.595C235.785 639.836 244.515 643.377 253.949 647.541C309.81 672.062 369.693 686.424 438.83 691.936C448.968 692.72 455.264 693.967 455.264 695.315C455.264 696.643 455.888 696.481 456.833 694.993C458.081 693.042 465.161 692.639 488.656 693.102V693.042ZM247.734 187.32C247.11 185.751 247.412 183.539 248.518 182.533C251.113 179.857 234.78 146.546 229.67 144.253C223.213 141.356 224.078 138.761 232.808 134.517C241.136 130.514 241.136 130.514 256.222 143.468C264.47 150.71 271.55 156.524 271.933 156.524C272.335 156.524 272.335 147.411 271.852 136.247C270.987 115.891 270.987 115.89 277.907 111.887C281.689 109.614 285.531 107.804 286.396 107.804C288.91 107.804 290.479 113.858 288.508 115.89C285.852 118.485 303.373 152.742 307.376 152.742C309.025 152.742 310.997 154.15 311.62 155.88C313.028 159.5 313.652 158.877 303.836 163.825C293.476 169.095 291.424 168.854 292.611 162.799C293.235 159.5 291.424 153.445 287.019 144.494L280.502 131.218L281.689 148.738C283.479 175.21 280.663 176.94 261.573 161.069C254.654 155.336 249.001 151.173 249.001 151.957C249.001 152.661 251.193 158.173 253.869 164.147C257.329 171.912 259.924 175.21 262.74 175.613C269.981 176.719 268.332 181.748 259.28 186.133C249.082 191.082 249.142 191.081 247.734 187.32ZM689.568 178.67C685.002 176.719 680.999 174.828 680.698 174.506C679.269 173.098 682.729 167.748 685.083 167.748C686.591 167.748 687.678 165.877 687.678 163.363C687.678 156.986 671.505 149.684 666.778 153.929C665.048 155.498 664.102 158.334 664.585 160.204C665.993 165.636 662.151 166.339 653.964 162.176C646.28 158.253 643.846 152.822 649.72 152.661C651.53 152.661 661.749 144.253 672.43 134.034C691.841 115.428 691.841 115.428 697.434 118.244C702.462 120.919 702.845 121.784 701.819 128.08C701.195 131.842 700.41 145.36 700.008 158.093C699.626 170.745 699.002 181.426 698.681 181.748C698.298 182.05 694.195 180.642 689.649 178.67H689.568ZM691.298 133.19C691.459 130.192 690.031 130.896 683.916 136.87L676.372 144.253L682.488 147.411C688.623 150.549 688.623 150.549 689.89 143.71C690.594 139.928 691.218 135.221 691.298 133.19ZM629.544 153.144C620.19 149.523 617.978 145.279 624.193 142.443C629.142 140.17 641.633 106.376 638.737 102.856C637.791 101.749 637.469 99.4763 638.093 97.9073C639.038 95.3124 640.225 95.3925 648.875 98.2891C659.315 101.829 662.071 106.074 655.775 108.89C650.826 111.103 638.174 145.681 641.251 148.738C643.283 150.79 641.955 156.604 639.441 156.443C638.656 156.363 634.171 154.874 629.544 153.064V153.144ZM322 143.951C314.376 137.575 310.836 129.166 310.836 117.7C310.836 105.993 315.784 98.1283 326.224 93.019C345.253 83.8262 361.205 92.0132 367.179 113.999C370.558 126.27 363.94 140.009 351.69 146.385C342.96 150.932 328.899 149.845 322 143.951ZM351.61 132.948C358.047 125.707 356.478 113.698 347.848 104.505C339.199 95.232 323.951 102.292 323.951 115.589C323.951 136.006 339.903 145.983 351.61 132.948ZM592.371 141.357C581.689 138.52 572.416 135.623 571.712 134.98C571.069 134.276 572.336 132.163 574.609 130.353C580.664 125.485 589.374 92.5563 586.014 87.2056C582.313 81.2313 586.014 79.441 596.776 82.1767C606.673 84.7716 610.676 90.3639 603.756 92.0939C601.021 92.8784 599.29 96.9614 596.132 110.238C593.859 119.752 591.969 128.463 592.049 129.649C592.049 132.787 604.943 134.759 608.081 132.083C611.219 129.489 616.489 130.977 616.328 134.436C616.248 135.764 615.242 139.003 613.975 141.658C611.702 146.466 611.702 146.466 592.371 141.357ZM382.104 132.325C382.104 130.353 382.889 128.463 383.996 128.08C385.162 127.678 384.86 120.678 382.969 108.045C380.676 92.7175 379.188 87.93 376.05 85.3351C370.78 81.0908 373.214 77.7919 381.702 77.7919C387.838 77.7919 390.352 79.5817 405.197 94.2056C418.091 106.858 421.631 109.534 420.847 105.913C420.284 103.318 419.197 96.8006 418.473 91.4499C417.548 84.2285 416.281 81.3118 413.686 80.5273C411.795 79.9037 410.226 77.8723 410.226 76.0619C410.226 73.3866 412.278 72.4408 419.982 71.4953C430.583 70.2482 434.425 72.6825 429.959 77.7919C427.907 80.1454 427.907 83.2026 429.879 95.6138C435.451 130.816 435.451 128.382 429.557 128.382C425.554 128.382 420.766 124.842 408.657 112.994L392.947 97.5046L394.194 110.62C395.139 120.537 396.326 124.379 399.082 126.27C404.734 130.273 403.387 133.411 395.703 134.678C384.297 136.549 382.104 136.167 382.104 132.325ZM525.025 127.517C507.263 119.752 506.639 85.6366 524.16 75.418C532.105 70.8719 547.735 71.1136 555.519 75.9816C572.094 86.2002 571.632 114.784 554.735 126.028C547.352 130.977 534.539 131.6 525.025 127.517ZM548.218 116.514C552.301 112.994 553.387 110.157 554.111 101.668C554.896 92.3148 554.494 90.6655 550.169 86.3407C543.732 79.9038 536.893 80.1453 530.053 87.065C525.346 91.7721 524.562 93.8842 524.562 102.856C524.562 111.727 525.266 113.698 529.51 116.997C535.947 122.106 541.921 121.945 548.218 116.594V116.514ZM458.704 122.267C441.887 110.862 442.914 81.7944 460.514 71.5758C467.756 67.3314 482.058 66.6278 490.526 70.1681C495.716 72.3607 496.42 73.4667 496.42 79.9036C496.42 85.8779 495.797 87.1252 492.659 87.1252C490.607 87.1252 488.958 85.9588 488.958 84.3898C488.958 80.8494 483.064 77.7919 476.164 77.7919C460.052 77.7919 453.132 100.26 465.463 112.672C469.949 117.077 477.653 118.485 484.09 116.051C488.797 114.241 487.63 107.884 482.199 105.832C473.65 102.614 477.089 97.5855 488.495 96.8815C498.311 96.3182 498.311 96.3177 498.311 107.723C498.311 118.565 498.009 119.269 492.176 122.81C483.385 128.16 467.112 127.919 458.704 122.267ZM475.46 627.933C476.566 621.657 476.084 620.229 471.839 616.93C465.483 611.901 465.805 610.896 473.569 610.896C479.242 610.896 480.569 609.95 483.707 603.896L487.247 596.895L490.224 603.896C492.9 610.413 493.684 610.896 501.147 610.896L509.254 610.956L502.958 616.145C497.305 620.873 496.843 621.959 498.09 628.255C499.578 636.181 498.713 636.664 491.653 631.635C486.704 628.094 486.544 628.094 481.977 631.554C475.299 636.744 474.132 636.1 475.46 627.933ZM142.45 562.834C131.366 550.966 144.481 532.42 159.729 538.233C161.378 538.857 162.726 540.989 162.726 542.961C162.726 547.125 162.002 547.265 157.054 544.208C150.074 539.802 142.832 548.693 146.131 557.484C147.64 561.487 148.565 561.889 155.243 560.783C162.867 559.536 164.516 560.863 160.513 564.866C156.671 568.648 146.915 567.541 142.45 562.834ZM164.597 565.268C164.597 564.242 165.462 563.378 166.488 563.378C168.922 563.378 168.922 543.343 166.488 541.774C163.43 539.963 166.246 537.147 171.195 537.147C176.083 537.147 178.899 539.963 175.922 541.774C174.815 542.478 173.951 544.61 173.951 546.642C173.951 549.478 175.298 550.262 179.844 550.262C185.497 550.262 185.577 550.021 184.411 543.665C183.224 537.449 183.465 537.147 188.413 537.147C193.684 537.147 193.684 537.147 193.684 552.154C193.684 567.16 193.684 567.16 188.655 567.16C183.928 567.16 183.706 566.757 184.632 560.562C185.658 554.427 185.416 554.024 180.709 554.024C175.218 554.024 172.221 558.67 175.6 561.969C179.221 565.671 177.953 567.16 171.195 567.16C167.594 567.16 164.597 566.294 164.597 565.268ZM196.5 565.268C196.5 564.242 197.445 563.378 198.632 563.378C200.04 563.378 200.443 559.374 199.799 550.262C198.853 537.147 198.853 537.147 203.742 537.147C208.609 537.147 208.69 537.208 208.69 552.154C208.69 567.16 208.69 567.16 202.555 567.16C199.256 567.16 196.5 566.294 196.5 565.268ZM211.506 565.349C211.506 564.403 212.29 563.076 213.316 562.432C214.423 561.809 215.207 557.182 215.207 552.154C215.207 547.125 214.423 542.478 213.316 541.854C210.259 539.883 211.285 537.147 215.046 537.147C217.018 537.147 222.046 541.15 226.21 546.018C233.834 554.969 233.834 554.969 233.915 548.995C233.995 545.696 233.13 542.478 232.104 541.854C228.322 539.5 230.374 537.147 236.027 537.147C240.593 537.147 241.598 537.771 240.733 540.124C240.11 541.693 239.647 548.452 239.647 555.13C239.647 569.895 236.811 570.76 228.161 558.671C224.782 554.024 221.724 550.262 221.262 550.262C220.779 550.262 220.779 554.024 221.342 558.671C222.268 566.999 222.207 567.16 216.937 567.16C213.94 567.16 211.506 566.375 211.506 565.349ZM249.625 564.403C240.894 558.268 242.785 543.101 252.763 539.018C260.065 535.96 269.579 538.234 269.579 542.88C269.579 546.722 266.823 547.748 264.953 544.61C263.303 542.015 255.82 542.236 253.084 545.072C251.817 546.259 250.872 549.478 250.872 552.154C250.872 554.809 251.817 558.047 253.084 559.294C255.82 561.969 264.007 562.292 264.007 559.697C264.007 558.671 263.142 557.805 262.116 557.805C261.09 557.805 260.225 556.538 260.225 554.969C260.225 553.099 262.116 552.234 265.818 552.234C271.068 552.234 271.309 552.535 270.203 558.268C269.499 561.648 268.091 564.947 266.984 565.731C263.444 568.105 253.788 567.32 249.625 564.403ZM277.987 562.513C268.875 553.4 275.232 537.147 287.884 537.147C295.347 537.147 300.537 541.311 298.807 545.777C297.56 549.156 297.318 549.156 295.045 546.018C290.097 539.34 280.824 543.263 280.824 552.154C280.824 558.188 284.042 561.487 289.694 561.487C294.562 561.487 295.427 558.751 291.022 557.022C286.858 555.453 289.534 552.154 295.045 552.154C298.968 552.154 299.591 553.018 299.591 558.51C299.591 568.406 286.315 570.921 277.987 562.513ZM304.318 552.154C304.318 537.369 304.318 537.147 308.945 537.147C313.592 537.147 313.652 537.369 313.652 552.154C313.652 566.838 313.592 567.16 308.945 567.16C304.399 567.16 304.318 566.918 304.318 552.154ZM319.546 565.892C317.675 563.941 318.138 557.725 320.19 557.725C321.276 557.725 322.06 558.591 322.06 559.616C322.06 560.642 324.192 561.487 326.787 561.487C333.465 561.487 332.601 557.102 325.359 553.883C318.218 550.725 316.729 545.777 321.275 540.748C324.574 537.067 328.819 536.282 334.17 538.233C337.388 539.501 338.253 546.481 335.195 546.481C334.169 546.481 333.305 545.696 333.305 544.61C333.305 542.176 326.385 542.176 324.896 544.691C324.273 545.696 326.626 547.828 330.167 549.317C337.549 552.374 339.742 557.725 335.819 563.297C333.224 567.079 322.463 568.809 319.626 565.892H319.546ZM353.018 552.154C353.018 537.147 353.018 537.147 358.288 537.147C363.317 537.147 363.478 537.449 362.291 544.127C361.124 550.725 361.285 550.966 364.182 548.211C365.912 546.561 367.561 543.584 367.883 541.613C368.346 538.716 370.156 538.012 378.484 537.69C390.976 537.147 394.838 538.234 391.76 541.311C387.134 545.938 389.246 550.262 396.165 550.262C401.435 550.262 402.683 549.558 402.683 546.642C402.683 544.61 401.818 542.478 400.792 541.774C397.815 539.963 400.651 537.147 405.519 537.147C410.387 537.147 413.304 539.963 410.226 541.774C409.2 542.478 408.335 547.667 408.335 553.32C408.335 567.461 413.062 566.596 418.956 551.289C426.097 532.903 428.692 532.903 435.772 551.751C437.965 557.645 440.882 562.432 442.129 562.432C443.477 562.432 446.293 557.645 448.566 551.67C455.566 532.983 457.839 532.903 465.322 551.289C468.058 557.967 471.135 562.754 473.087 563.157C476.003 563.7 476.225 562.432 475.38 550.504C474.193 534.07 477.572 532.661 486.845 545.616C490.225 550.262 493.443 554.024 493.987 554.024C494.63 554.024 494.63 550.262 494.147 545.616C493.202 537.368 493.282 537.147 498.553 537.147C503.883 537.147 505.694 539.581 502.093 541.854C501.067 542.478 500.202 548.452 500.202 555.13C500.202 564.564 499.579 567.16 497.366 567.16C495.877 567.16 494.55 566.516 494.55 565.731C494.55 564.947 491.553 560.944 487.871 556.86L481.193 549.397L482.058 558.268C482.843 567.159 482.842 567.16 471.839 567.16C461.621 567.16 460.917 566.918 461.299 562.915C461.701 559.536 460.675 558.59 456.351 558.128C451.402 557.565 451.08 557.886 452.187 562.352C453.373 567.159 453.293 567.16 442.049 567.16C430.965 567.16 430.743 567.079 431.91 562.513C433.017 558.188 432.554 557.805 427.284 557.805C422.335 557.805 421.47 558.51 421.47 562.513C421.47 566.918 420.907 567.16 410.226 567.16C398.056 567.16 397.815 567.079 401.275 561.567C404.332 556.619 401.114 553.4 394.516 555.05C389.567 556.317 387.918 560.32 391.458 562.432C396.165 565.429 392.323 567.16 381.159 567.16C370.558 567.16 368.969 566.677 368.969 563.7C368.969 561.809 367.179 558.671 364.886 556.699C360.883 553.099 360.883 553.099 361.989 560.159C363.015 566.757 362.854 567.16 358.046 567.16C353.018 567.16 353.018 567.16 353.018 552.154ZM383.996 553.159C383.996 541.311 381.702 539.018 374.944 544.047C368.265 549.076 368.104 550.805 373.777 557.484C381.239 566.455 383.996 565.269 383.996 553.159ZM428.933 551.208C428.933 549.639 428.149 548.371 427.042 548.371C426.017 548.371 425.232 549.639 425.232 551.208C425.232 552.777 426.017 554.024 427.042 554.024C428.149 554.024 428.933 552.777 428.933 551.208ZM458.945 551.289C458.945 546.964 455.727 546.179 454.621 550.262C453.997 552.696 454.621 554.024 456.27 554.024C457.779 554.024 458.945 552.777 458.945 551.289ZM518.045 552.154C518.045 537.147 518.044 537.147 523.154 537.147C528.323 537.147 530.053 539.661 526.453 541.854C525.427 542.478 524.562 547.125 524.562 552.154C524.562 557.182 525.427 561.809 526.453 562.432C530.053 564.645 528.323 567.16 523.154 567.16C518.044 567.16 518.045 567.16 518.045 552.154ZM531.16 552.154C531.16 533.607 533.754 532.581 545.059 546.722C552.683 556.397 552.683 556.398 552.683 549.72C552.683 546.018 551.818 542.478 550.812 541.774C547.815 539.963 550.571 537.147 555.198 537.147C559.201 537.147 559.361 537.771 558.738 549.78C557.632 570.619 556.545 571.404 546.166 558.188L539.085 549.317L540.03 558.188C540.976 566.838 540.815 567.16 536.028 567.16C531.16 567.16 531.16 567.079 531.16 552.154ZM571.149 554.668C571.934 542.237 571.934 542.236 566.985 543.503C562.902 544.529 562.037 544.047 562.037 540.909C562.037 537.449 563.304 537.147 575.152 537.147C587.261 537.147 588.287 537.449 588.287 541.07C588.287 544.449 587.583 544.831 583.42 543.826C578.471 542.558 578.471 542.558 579.256 554.809C580.04 566.998 580.04 567.16 575.152 567.16C570.364 567.16 570.365 566.999 571.149 554.668ZM591.103 552.154C591.103 537.208 591.104 537.147 596.072 537.147C601.02 537.147 601.02 537.147 599.994 549.639C599.049 562.131 599.049 562.13 604.943 560.944C609.972 559.918 610.837 560.24 610.837 563.458C610.837 566.676 609.489 567.16 600.94 567.16H591.103V552.154ZM615.383 565.107C613.512 561.969 617.837 558.349 620.412 560.944C622.544 563.156 621.216 567.16 618.299 567.16C617.435 567.16 616.107 566.214 615.383 565.107ZM635.196 565.349C635.196 564.403 635.9 563.156 636.765 562.593C637.63 562.05 640.225 556.539 642.498 550.424C648.875 532.984 651.933 533.204 658.852 551.751C661.367 558.349 664.102 562.674 666.154 563.157C669.131 563.7 669.373 562.432 668.508 550.504C667.562 537.147 667.562 537.147 672.43 537.147C677.378 537.147 677.378 537.208 677.378 552.234V567.32L666.154 566.757C655.613 566.214 654.91 565.892 655.473 561.969C655.935 558.349 655.151 557.725 650.122 557.725C644.691 557.725 644.228 558.128 645.334 562.432C646.36 566.677 645.958 567.16 640.849 567.16C637.711 567.16 635.196 566.294 635.196 565.349ZM652.636 550.262C652.093 548.21 650.907 547.044 649.961 547.587C647.286 549.236 648.07 554.024 650.987 554.024C652.636 554.024 653.26 552.696 652.636 550.262ZM683.594 555.915C683.996 549.156 683.514 543.665 682.267 542.096C679.43 538.636 681.562 537.147 689.488 537.147C701.034 537.147 708.497 545.555 702.382 551.751C699.304 554.748 703.951 563.378 708.578 563.378C711.494 563.378 712.037 561.809 712.037 553.159C712.037 547.587 711.172 542.478 710.146 541.854C703.327 537.61 717.931 535.176 727.828 538.937C736.638 542.317 733.5 555.915 723.986 555.915C718.957 555.915 716.442 559.134 719.339 562.05C723.282 566.053 721.391 567.16 710.629 567.16C700.652 567.16 699.626 566.757 696.649 561.487C693.41 555.834 688.16 553.562 690.272 558.751C690.896 560.24 691.922 562.754 692.545 564.323C693.41 566.455 692.324 567.16 688.241 567.16C682.729 567.16 682.729 567.159 683.594 555.915ZM726.098 547.426C726.098 544.992 724.69 543.504 721.853 543.101C718.414 542.558 717.69 543.423 717.69 547.426C717.69 551.51 718.414 552.294 721.853 551.831C724.69 551.429 726.098 549.941 726.098 547.426ZM697.031 546.481C697.031 544.047 695.784 542.8 693.33 542.8C690.815 542.8 689.568 544.047 689.568 546.481C689.568 548.995 690.815 550.262 693.33 550.262C695.784 550.262 697.031 548.995 697.031 546.481ZM741.587 564.806C729.88 555.915 736.638 537.147 751.564 537.147C757.216 537.147 764.538 545.475 764.538 551.831C764.538 563.78 750.618 571.706 741.587 564.806ZM754.782 559.294C757.216 556.86 757.78 550.504 755.889 545.696C754.541 542.236 747.481 541.774 744.343 544.992C739.153 550.101 742.753 561.487 749.512 561.487C751.162 561.487 753.616 560.481 754.782 559.294ZM766.409 565.268C766.409 564.242 767.274 563.378 768.3 563.378C770.734 563.378 770.734 543.342 768.3 541.854C765.001 539.802 768.22 537.147 773.953 537.147C786.686 537.147 793.122 543.584 788.093 551.289C785.579 555.131 785.659 555.995 788.958 560.239C793.605 566.133 793.605 567.16 788.958 567.16C786.766 567.16 784.091 564.866 782.361 561.487C780.792 558.429 778.679 555.915 777.654 555.915C775.22 555.915 775.3 560.944 777.654 562.432C781.576 564.866 779.303 567.16 773.007 567.16C769.406 567.16 766.409 566.294 766.409 565.268ZM782.924 547.044C781.979 542.096 775.763 541.613 775.763 546.4C775.763 549.076 777.03 550.262 779.685 550.262C782.361 550.262 783.387 549.237 782.924 547.044ZM800.203 565.349C800.203 564.403 800.987 563.076 802.013 562.432C803.099 561.809 803.904 557.021 803.904 551.831C803.904 542.638 803.743 542.397 799.258 543.503C795.416 544.529 794.55 544.047 794.55 540.909C794.55 537.529 795.717 537.147 806.72 537.147C817.724 537.147 818.91 537.529 818.91 540.909C818.91 544.047 818.045 544.529 814.264 543.503C809.637 542.397 809.557 542.639 809.557 552.858C809.557 558.671 810.422 563.378 811.448 563.378C812.453 563.378 813.318 564.242 813.318 565.268C813.318 566.294 810.341 567.16 806.72 567.16C803.1 567.16 800.203 566.375 800.203 565.349ZM304.54 510.735C300.155 507.276 299.591 505.626 299.591 494.945C299.591 488.347 298.726 482.454 297.7 481.83C294.261 479.698 297.861 477.183 304.399 477.183C310.755 477.183 313.431 480.965 308.945 483.7C306.35 485.35 306.672 502.166 309.347 504.922C312.566 508.141 319.626 507.678 320.974 504.219C323.005 498.948 322.221 483.157 319.948 482.373C315.945 481.025 320.33 477.183 325.842 477.183C331.414 477.183 335.819 481.025 331.816 482.373C330.468 482.835 329.603 487.402 329.603 494.241C329.603 503.655 328.899 506.169 325.057 510.031C319.324 515.764 311.218 516.006 304.54 510.735ZM335.195 512.868C335.195 511.923 336.061 510.575 337.086 509.951C338.092 509.327 338.957 503.434 338.957 496.836C338.957 490.238 338.092 484.344 337.086 483.7C332.681 480.965 335.356 477.183 341.632 477.183C347.989 477.183 353.018 480.884 348.713 482.373C347.285 482.835 346.5 487.563 346.5 495.106C346.5 506.411 346.742 507.115 350.745 507.115C353.179 507.115 356.095 506.169 357.262 505.002C358.911 503.273 359.857 503.736 361.044 507.034C362.452 510.736 362.854 510.896 365.047 508.301C366.395 506.732 369.774 499.27 372.51 491.727C376.291 481.428 378.484 477.968 381.401 477.586C384.7 477.103 386.188 479.376 391.378 493.134C399.001 513.25 401.516 513.411 408.657 494.241C416.904 471.833 420.123 471.611 427.907 492.893C430.744 500.758 433.882 507.678 434.747 508.221C439.152 510.896 436.155 514.658 429.718 514.658C423.281 514.658 423.12 514.517 424.286 509.006C425.473 503.655 425.232 503.434 419.036 503.434C412.579 503.434 408.275 507.678 412.197 510.031C413.223 510.655 413.525 512.003 412.982 512.928C411.332 515.523 388.22 515.06 386.57 512.385C385.786 511.198 386.108 509.871 387.294 509.489C391.76 507.98 387.133 503.434 381.159 503.434C375.104 503.434 370.941 507.678 374.722 510.031C375.728 510.655 376.13 511.842 375.587 512.788C374.159 514.98 335.195 515.061 335.195 512.868ZM383.432 492.189C382.266 489.212 381.159 486.859 380.998 487.08C380.837 487.321 380.214 489.755 379.51 492.672C378.484 496.917 378.886 497.781 381.863 497.781C385.082 497.781 385.323 497.218 383.432 492.189ZM421.47 496.052C421.47 492.431 419.117 488.508 417.548 489.433C414.712 491.163 415.657 497.781 418.634 497.781C420.203 497.781 421.47 496.977 421.47 496.052ZM438.367 511.842C438.367 510.273 439.152 509.006 440.238 509.006C442.752 509.006 442.612 485.914 440.017 483.319C437.261 480.563 439.454 477.183 444.02 477.183C446.132 477.183 450.537 481.186 455.103 487.321C465.08 500.839 466.408 501.462 466.408 492.35C466.408 488.267 465.624 484.344 464.517 483.7C460.132 480.965 462.807 477.183 469.244 477.183C473.79 477.183 475.842 477.968 475.842 479.939C475.842 481.508 474.977 482.755 473.952 482.755C472.865 482.755 472.061 489.373 472.061 498.707C472.061 518.198 470.19 518.983 458.945 504.379C454.54 498.626 450.537 493.999 449.994 493.999C449.511 493.999 449.511 498.626 450.155 504.379C451.161 514.658 451.161 514.658 444.724 514.658C440.319 514.658 438.367 513.793 438.367 511.842ZM480.469 495.891C480.469 477.183 480.469 477.183 488.334 477.183C503.34 477.183 512.07 484.022 507.665 492.27C506.096 495.186 506.176 496.836 507.745 498.787C511.044 502.81 508.288 510.736 502.797 512.868C500.202 513.793 494.067 514.658 489.279 514.658H480.469V495.891ZM499.337 506.411C502.314 504.218 502.475 503.354 500.363 500.839C496.038 495.569 490.848 496.977 490.848 503.434C490.848 509.63 493.604 510.575 499.337 506.411ZM500.202 488.428C500.202 485.672 498.935 484.646 495.495 484.646C492.116 484.646 490.848 485.672 490.848 488.428C490.848 491.164 492.116 492.189 495.495 492.189C498.935 492.189 500.202 491.164 500.202 488.428ZM511.426 512.868C511.426 511.923 512.151 510.656 513.096 510.112C513.941 509.549 517.401 501.945 520.7 493.134C528.726 471.832 531.32 471.832 539.568 493.134C543.028 501.945 546.488 509.63 547.433 510.193C550.41 512.064 546.789 514.658 541.298 514.658C536.269 514.658 535.726 514.115 536.188 509.489C536.732 504.762 536.269 504.379 530.214 504.379C524.16 504.379 523.697 504.762 524.16 509.489C524.723 514.276 524.16 514.658 518.125 514.658C514.424 514.658 511.426 513.874 511.426 512.928V512.868ZM532.487 493.054C531.703 488.729 528.324 486.296 528.324 490.158C528.324 491.083 527.78 493.215 527.157 494.784C526.372 496.916 527.157 497.781 529.752 497.781C532.648 497.781 533.272 496.836 532.487 493.054ZM558.356 511.842C558.356 510.273 559.14 509.006 560.227 509.006C561.252 509.006 562.037 503.655 562.037 496.675C562.037 484.264 562.037 484.264 555.359 485.511C549.143 486.698 548.68 486.457 549.223 482.454C549.867 478.37 550.812 478.048 565.336 477.586C580.825 476.942 580.824 476.942 580.824 481.89C580.824 486.376 580.261 486.698 575.152 485.591C569.58 484.344 569.58 484.344 569.58 496.594C569.58 503.273 570.445 509.327 571.471 509.951C574.931 512.144 571.31 514.658 564.792 514.658C560.307 514.658 558.356 513.793 558.356 511.842ZM582.695 512.144C582.695 510.736 583.339 509.005 584.123 508.301C584.908 507.517 588.046 500.437 591.184 492.511C598.969 472.698 601.885 472.939 610.837 493.999C619.406 514.195 622.785 514.98 623.57 496.977C623.871 488.508 623.329 483.54 621.92 482.695C614.216 477.887 633.628 474.991 642.498 479.456C650.042 483.399 651.61 487.643 647.768 494.241C644.55 499.974 644.55 500.215 649.096 506.169C651.691 509.549 653.26 512.788 652.636 513.492C649.498 516.549 644.148 513.954 639.904 507.115C633.929 497.701 632.521 497.701 634.01 507.034C635.197 514.437 635.197 514.437 621.216 514.437C612.728 514.437 606.592 513.572 605.808 512.305C605.104 511.138 605.486 509.871 606.592 509.489C611.078 507.98 606.432 503.354 600.457 503.354C594.403 503.354 590.239 507.678 594.02 510.031C597.239 512.003 593.94 514.578 588.207 514.578C584.827 514.578 582.695 513.652 582.695 512.144ZM602.891 491.727C601.101 486.457 600.618 486.215 599.371 489.433C596.997 495.488 597.561 497.781 601.322 497.781C604.621 497.781 604.782 497.138 602.891 491.727ZM640.768 489.293C640.768 485.592 639.903 484.646 636.142 484.646C631.334 484.646 630.63 485.913 632.602 491.023C634.492 496.052 640.849 494.704 640.849 489.293H640.768ZM209.635 458.395C209.635 457.309 227.236 456.364 255.981 456.042L302.427 455.58L302.971 448.499C303.594 441.518 303.594 441.519 315.623 441.519C326.465 441.519 327.733 441.116 327.733 437.737C327.733 435.705 328.98 433.975 330.549 433.975C332.118 433.975 333.305 432.326 333.305 430.274C333.305 426.975 334.572 426.513 342.417 426.513C351.529 426.513 351.529 426.512 357.423 412.512C362.231 401.046 363.076 397.043 362.15 390.043C361.044 382.178 361.285 381.474 364.966 381.474C367.964 381.474 368.969 380.388 368.969 376.848C368.969 372.201 369.13 372.12 384.921 372.12C394.274 372.12 400.792 371.336 400.792 370.25C400.792 369.224 399.625 368.359 398.217 368.359C393.731 368.359 393.731 364.195 398.277 351.08C400.731 344.16 402.683 336.697 402.683 334.565C402.683 332.372 404.413 330.1 406.927 329.154C414.551 326.237 418.01 320.826 415.878 315.073C414.792 312.257 413.847 307.771 413.686 304.955C413.525 301.334 413.062 302.119 411.956 307.771C409.441 320.424 403.628 327.102 394.275 328.047C393.188 328.128 388.703 329.375 384.217 330.804C379.349 332.373 375.647 332.755 374.863 331.669C374.159 330.723 370.78 329.777 367.259 329.536C359.394 328.993 348.311 325.453 348.311 323.481C348.311 322.616 351.308 321.53 354.909 320.907C364.745 319.318 372.429 312.88 377.237 302.038C385.243 284.357 394.757 278.081 414.872 277.216C427.203 276.733 449.672 270.216 451.08 266.756C451.482 265.891 452.971 265.267 454.46 265.267C459.106 265.267 460.997 256.316 459.428 242.014L458 228.738L446.373 228.657C438.126 228.577 433.721 227.632 431.206 225.358C429.094 223.387 424.608 222.12 419.901 222.12C415.576 222.12 412.036 221.416 412.036 220.551C412.036 216.95 421.47 211.277 429.879 209.789C440.882 207.898 450.236 204.84 452.669 202.406C454.238 200.918 457.457 199.651 459.891 199.651C462.325 199.651 464.839 198.786 465.463 197.76C466.107 196.754 465.624 195.889 464.457 195.889C463.19 195.889 462.647 194.32 463.19 192.107C463.974 189.291 463.029 188.104 459.187 187.239C452.589 185.67 447.721 181.185 447.721 176.719C447.721 173.883 448.506 173.42 451.885 174.506C459.489 176.94 472.543 175.854 474.354 172.616C477.089 167.587 480.549 169.236 486.443 178.59C492.739 188.346 494.69 196.272 492.739 203.433C490.305 211.982 504.829 229.12 520.639 236.341C530.295 240.747 530.999 240.827 532.809 237.689C533.915 235.879 534.861 233.907 535.002 233.364C536.43 227.229 542.163 218.68 546.085 216.87C548.761 215.603 550.571 213.872 550.008 213.007C548.841 211.056 566.442 203.433 572.014 203.433C574.066 203.433 577.284 202.085 579.094 200.435C582.072 197.76 582.776 197.76 587.181 200.676C589.856 202.406 592.049 205.303 592.049 207.194C592.049 209.004 597.943 215.763 605.184 222.12C620.271 235.557 621.92 240.827 612.567 245.614C609.429 247.264 605.405 248.451 603.676 248.209C601.885 247.988 597.48 249.155 593.779 250.804C590.178 252.454 584.908 254.345 582.233 254.968C576.017 256.537 575.474 258.267 573.985 277.598C572.718 293.389 572.718 293.389 579.316 293.389C587.261 293.389 592.049 298.116 592.049 305.88C592.049 309.038 592.994 314.369 594.181 317.748C596.535 324.588 594.02 330.883 584.827 340.7C579.014 347.056 578.23 347.137 575.474 341.163C572.416 334.404 572.718 329.617 576.58 326.8C580.181 324.125 581.83 314.53 579.316 310.769C578.149 308.958 575.635 309.34 568.252 312.498C558.738 316.501 558.738 316.502 554.896 330.723C547.735 357.517 547.735 356.249 556.223 364.657C563.767 372.12 563.767 372.12 580.744 372.12C597.56 372.12 597.641 372.201 597.641 376.848C597.641 380.388 598.647 381.554 601.644 381.554C605.325 381.554 605.567 382.178 604.4 390.747C603.374 398.693 604.078 401.992 609.107 413.297C615.081 426.512 615.081 426.513 623.409 426.513C630.168 426.513 631.978 427.216 632.762 430.274C633.225 432.326 634.875 434.056 636.303 434.056C637.791 434.056 638.877 435.705 638.877 437.817C638.877 441.116 640.145 441.519 651.067 441.519C663.318 441.519 663.318 441.519 663.318 449.062V456.525H708.276C737.021 456.525 753.294 457.229 753.294 458.395C753.294 459.663 661.447 460.286 481.414 460.286C304.701 460.286 209.555 459.663 209.555 458.476L209.635 458.395ZM595.831 235.557C595.831 234.772 591.747 231.171 586.719 227.39C579.879 222.28 576.962 221.114 575.393 222.683C569.822 228.336 575.796 236.422 586.477 237.528C593.477 238.232 595.831 237.769 595.831 235.557ZM602.589 227.47C604.46 224.413 596.615 218.519 592.049 219.686C588.127 220.792 586.718 217.413 590.56 216.085C591.888 215.603 592.049 214.899 591.043 214.195C590.017 213.651 587.181 214.194 584.747 215.441C580.342 217.875 580.342 217.876 588.529 223.709C597.48 229.985 600.538 230.85 602.589 227.47ZM560.629 214.033C565.577 210.976 569.58 208.22 569.58 207.979C569.58 206.027 556.143 213.088 551.738 217.332C545.703 223.226 547.031 222.763 560.629 214.033ZM433.801 215.14C432.554 213.792 428.933 216.467 428.933 218.74C428.933 220.008 430.039 219.846 431.83 218.358C433.419 217.01 434.284 215.603 433.801 215.14ZM426.097 216.548C426.801 215.522 426.499 214.657 425.393 214.657C424.367 214.657 423.039 215.522 422.416 216.548C421.772 217.573 422.013 218.439 423.12 218.439C424.146 218.439 425.473 217.573 426.177 216.548H426.097ZM481.414 207.979C481.414 206.57 469.084 201.462 466.026 201.622C464.678 201.703 467.434 203.272 472.061 205.163C476.707 207.114 480.71 208.683 480.952 208.843C481.253 208.924 481.414 208.542 481.414 207.979ZM488.958 202.648C488.958 201.14 489.521 198.484 490.225 196.674C491.009 194.542 490.687 193.837 489.36 194.702C488.253 195.406 486.765 195.024 486.061 193.837C485.276 192.671 485.9 191.022 487.308 190.076C489.44 188.728 489.44 188.507 487.087 188.507C482.521 188.507 480.167 190.86 479.141 196.513C478.357 200.676 479.061 202.165 482.118 203.433C487.871 205.706 488.958 205.625 488.958 202.648ZM474.515 197.7C473.871 195.568 473.086 194.32 472.543 194.783C471.517 195.809 473.328 201.541 474.655 201.541C475.138 201.541 475.058 199.812 474.515 197.7ZM474.816 185.268C478.437 183.478 481.414 181.426 481.414 180.561C481.414 179.696 475.058 178.993 467.273 178.993C453.052 178.993 449.913 181.346 460.836 183.699C463.894 184.403 466.408 185.751 466.408 186.697C466.408 189.05 467.193 188.889 474.816 185.268ZM580.824 206.893C580.784 205.847 579.939 205.565 578.934 206.168C577.908 206.892 577.043 208.22 577.043 209.246C577.043 210.272 577.908 210.573 578.934 209.95C579.939 209.346 580.784 208.019 580.824 206.953V206.893ZM659.556 450.852C659.556 445.28 659.556 445.28 483.305 445.28C307.054 445.28 307.054 445.28 307.054 450.852C307.054 456.525 307.054 456.525 483.305 456.525C659.556 456.525 659.556 456.525 659.556 450.852ZM635.196 439.547C635.196 438.441 579.477 437.737 483.305 437.737C384.136 437.737 331.494 438.36 331.494 439.627C331.494 440.794 369.995 441.659 440.64 441.981C579.557 442.605 635.196 441.9 635.196 439.547ZM556.928 432.165C516.455 431.682 450.235 431.682 409.763 432.165C359.153 432.869 382.185 433.191 483.305 433.191C584.506 433.191 607.457 432.869 556.928 432.165ZM427.042 425.869C427.042 424.541 429.094 421.544 431.528 419.19C438.126 412.995 447.399 414.323 452.348 422.268C457.055 429.651 460.052 429.952 461.621 423.193C465.241 407.805 471.357 402.153 484.331 402.153C493.986 402.153 503.964 412.049 503.964 421.624C503.964 429.892 508.208 430.737 511.829 423.274C516.697 413.136 531.703 412.834 537.375 422.811C540.513 428.383 540.513 428.383 574.689 428.383C613.19 428.383 611.541 429.168 604.862 414.081C602.67 409.052 600.296 402.454 599.673 399.316C598.506 393.744 598.506 393.744 482.762 393.181C367.098 392.799 367.098 392.799 367.018 396.963C367.018 400.503 363.719 409.454 356.477 426.03C355.612 427.92 363.317 428.383 391.297 428.383C419.74 428.383 427.042 427.92 427.042 425.869ZM451.483 427.136C451.483 424.3 444.965 419.03 441.505 419.03C437.583 419.03 430.824 423.998 430.824 426.814C430.824 427.679 435.45 428.383 441.103 428.383C446.856 428.383 451.483 427.84 451.483 427.136ZM500.202 422.65C500.202 414.865 491.311 405.914 483.546 405.914C480.408 405.914 475.842 407.724 473.087 410.078C468.38 414.242 463.894 425.165 466.026 427.297C466.569 427.921 474.515 428.383 483.627 428.383C500.202 428.383 500.202 428.383 500.202 422.65ZM533.916 425.949C533.916 422.027 529.832 419.03 524.562 419.03C519.291 419.03 515.208 422.027 515.208 425.949C515.208 427.599 518.125 428.383 524.562 428.383C530.999 428.383 533.916 427.599 533.916 425.949ZM601.403 387.147C601.403 385.879 560.79 385.256 483.305 385.256C405.821 385.256 365.208 385.879 365.208 387.147C365.208 388.394 405.821 389.017 483.305 389.017C560.79 389.017 601.403 388.394 601.403 387.147ZM593.477 379.201C592.834 377.31 568.715 376.686 482.681 376.365C385.705 375.982 372.751 376.144 372.751 378.658C372.751 381.173 386.027 381.474 483.466 381.474C571.229 381.474 594.101 381.011 593.477 379.201ZM414.872 370.25C414.229 369.224 412.579 368.359 411.252 368.359C408.818 368.359 406.545 362.928 406.464 356.974C406.464 353.433 417.387 336.536 419.66 336.536C420.605 336.536 426.016 334.726 431.83 332.614C444.643 327.806 454.621 319.398 459.348 309.34C462.647 302.441 462.868 302.28 462.164 307.47C461.701 310.527 460.756 314.53 459.971 316.34C458.784 319.176 459.569 319.639 464.839 319.478C470.27 319.398 470.572 319.096 467.354 317.587C463.592 315.797 482.118 316.884 493.202 319.096C498.794 320.183 498.794 320.263 494.147 307.932C492.417 303.225 491.392 302.742 482.279 302.742C476.788 302.742 471.759 301.958 471.135 300.851C470.492 299.846 466.247 299.061 461.621 299.061C453.293 299.061 453.293 299.061 453.293 285.765C453.293 272.489 453.293 272.489 447.238 273.756C425.011 278.383 413.364 295.44 419.74 313.745C422.174 320.745 418.715 327.806 411.011 331.266C408.496 332.453 406.464 334.726 406.464 336.455C406.464 338.185 404.654 344.783 402.522 351.22C398.76 362.384 398.68 363.089 401.818 365.362C403.628 366.709 404.573 368.821 403.789 370.008C402.924 371.416 404.654 372.12 409.28 372.12C413.303 372.12 415.576 371.417 414.872 370.25ZM434.586 323.642C434.586 322.697 437.261 321.45 440.64 320.826C443.939 320.102 449.129 317.286 452.106 314.449C456.974 309.903 457.296 309.823 455.405 313.584C451.945 320.102 434.586 328.591 434.586 323.642ZM442.531 370.873C441.264 370.39 440.178 368.902 440.178 367.655C440.178 366.388 437.261 360.413 433.56 354.379C429.959 348.324 427.364 342.189 427.907 340.861C429.094 337.703 425.011 337.643 421.068 340.781C417.146 343.758 410.226 355.384 410.226 358.844C410.226 360.333 412.519 363.873 415.335 366.79C419.982 371.497 421.772 372.06 432.695 371.98C439.373 371.899 443.859 371.417 442.531 370.954V370.873ZM538.944 369.767C536.43 367.956 535.786 365.06 536.188 357.114C536.51 351.462 536.51 342.108 536.269 336.375L535.867 325.855L512.855 326.64C500.202 327.102 485.115 326.72 479.222 325.775C468.681 324.045 468.541 324.044 462.727 330.24C459.489 333.619 454.399 337.864 451.322 339.674C448.264 341.565 445.83 344.542 445.83 346.675C445.83 352.649 453.293 366.226 457.216 367.494C459.187 368.117 460.836 369.465 460.836 370.39C460.836 371.416 477.653 372.12 501.53 372.12C534.7 372.12 541.6 371.658 538.944 369.767ZM555.198 369.928C553.005 368.902 549.786 365.362 548.056 362.143C544.758 355.948 544.838 355.304 552.14 323.883C553.246 319.257 551.657 318.775 544.275 321.53C539.407 323.421 539.407 323.421 539.95 343.918C540.433 361.6 540.976 364.577 543.812 365.301C545.623 365.764 547.031 367.494 547.031 369.143C547.031 371.336 548.76 372.121 553.166 372.06C558.738 371.899 558.899 371.738 555.198 369.928ZM541.921 332.754C541.921 328.128 542.324 326.237 542.786 328.591C543.269 330.884 543.269 334.645 542.786 336.999C542.324 339.372 541.921 337.401 541.921 332.754ZM582.474 332.373C579.879 327.505 576.178 330.803 577.988 336.455C579.014 339.674 579.799 340.077 581.83 338.347C583.882 336.697 583.962 335.189 582.474 332.373ZM589.937 328.591C591.506 325.533 591.586 322.556 590.238 317.829C589.233 314.228 588.368 309.038 588.368 306.282C588.368 297.794 584.747 296.547 566.362 298.659C548.358 300.791 545.542 300.308 553.87 296.688C557.712 295.038 559.14 293.308 558.657 290.874C558.195 288.682 558.738 287.816 560.065 288.601C561.172 289.305 562.117 291.116 562.117 292.604C562.117 294.113 563.384 295.279 564.873 295.279C574.689 295.279 560.065 281.058 543.893 274.842C528.726 269.029 527.157 269.431 528.021 278.543C528.806 286.328 524.863 293.389 519.835 293.389C517.26 293.389 514.343 302.581 516.315 304.392C517.019 305.096 517.964 304.553 518.427 303.306C519.915 299.202 524.642 300.711 526.593 305.88C529.027 312.337 527.619 315.938 522.591 315.938C517.32 315.938 518.909 320.424 524.481 321.208C526.835 321.61 530.757 321.369 533.272 320.746C537.918 319.559 537.918 319.559 534.056 314.691C531.944 312.015 530.214 307.61 530.295 304.875C530.375 299.987 530.375 299.987 532.809 305.659C536.812 314.611 542.545 318.854 547.574 316.421C549.867 315.234 554.333 313.424 557.41 312.338C562.741 310.366 562.741 310.366 557.873 311.311C548.761 313.041 552.381 308.877 561.655 306.906C581.69 302.742 584.586 304.874 584.988 323.883C585.21 333.7 586.557 334.967 589.937 328.591ZM395.22 318.231C400.168 312.8 403.628 310.286 404.111 311.774C404.574 313.122 403.869 315.637 402.522 317.366C400.329 320.263 400.41 320.343 403.004 317.748C405.821 315.073 410.789 298.981 409.28 297.472C408.898 297.09 407.631 299.605 406.625 303.064C404.574 309.34 404.573 309.34 405.438 301.877C406.303 294.334 406.304 294.334 402.683 299.061C398.217 304.794 397.493 300.148 401.898 293.872C404.734 289.869 409.763 287.736 407.41 291.518C406.766 292.604 409.2 291.659 412.901 289.466C416.603 287.354 420.062 284.759 420.686 283.814C422.637 280.676 415.496 279.81 405.68 282.003C394.677 284.437 386.107 291.739 381.32 302.823C377.458 311.633 373.073 316.662 365.208 321.369C358.69 325.291 358.69 325.292 367.642 325.292C378.162 325.292 384.217 321.832 391.76 311.473C394.677 307.47 397.111 304.713 397.111 305.417C397.111 308.958 391.378 319.64 387.596 323.18C385.162 325.372 384.136 327.182 385.162 327.182C386.269 327.182 390.815 323.18 395.22 318.231ZM376.674 319.016C380.133 316.582 383.432 315.013 383.996 315.395C385.484 316.742 376.372 323.421 373.133 323.421C371.564 323.421 373.133 321.45 376.674 319.016ZM391.458 300.851V300.791C391.559 296.587 401.918 285.926 405.901 286.006C408.979 286.006 409.059 286.167 406.143 287.897C404.332 288.923 400.329 292.845 397.191 296.688C394.013 300.59 391.519 302.4 391.458 300.851ZM511.426 320.584C511.426 317.668 506.719 316.662 505.15 319.317C504.607 320.102 500.584 320.967 496.199 321.289C483.386 321.993 485.196 323.421 498.935 323.421C508.852 323.421 511.426 322.777 511.426 320.584ZM480.087 320.343C478.819 319.8 476.305 319.72 474.434 320.263C472.624 320.746 473.65 321.128 476.788 321.208C479.845 321.208 481.334 320.826 480.087 320.343ZM517.562 311.392C520.78 310.688 522.671 309.038 522.671 306.986C522.59 304.009 522.43 304.009 520.639 307.067C519.131 309.662 518.044 309.984 516.154 308.395C514.343 306.906 511.909 307.228 506.961 309.581C498.553 313.584 498.15 316.099 506.337 314.068C509.636 313.203 514.746 312.015 517.562 311.392ZM505.855 306.524C507.343 305.579 507.826 304.714 506.719 304.714C505.694 304.714 503.582 305.579 502.093 306.524C500.524 307.53 500.121 308.335 501.147 308.335C502.173 308.335 504.286 307.53 505.855 306.524ZM512.774 295.602C513.478 292.846 514.102 284.839 514.102 277.678C514.263 264.784 514.263 264.784 507.202 261.103C500.122 257.402 500.122 257.402 485.9 266.998C473.408 275.406 468.299 278 468.299 275.948C468.299 275.566 472.543 272.569 477.653 269.27C489.742 261.425 491.009 259.132 481.253 262.511C470.029 266.514 465.865 265.73 475.842 261.566L484.251 258.046L474.515 257.885C462.647 257.805 460.756 260.158 462.164 273.917C462.868 280.676 462.325 285.382 460.293 289.466C457.457 295.199 457.457 295.279 462.003 295.279C464.517 295.279 469.325 293.952 472.624 292.303C479.383 288.923 496.662 272.81 495.555 271C495.173 270.376 496.501 269.673 498.472 269.512C503.34 269.19 503.099 269.753 495.254 278.463C491.472 282.627 489.038 286.63 489.742 287.354C490.466 288.058 492.659 286.57 494.63 284.055C498.07 279.409 498.07 279.408 496.983 287.414C496.34 292.383 496.823 297.251 498.311 299.926C500.363 303.768 501.308 304.09 506.096 302.441C509.556 301.254 511.909 298.74 512.774 295.602ZM482.681 275.647C489.661 267.862 496.199 261.566 497.145 261.566C498.15 261.566 497.366 263.216 495.495 265.348C493.604 267.38 492.578 269.592 493.202 270.215C494.469 271.483 474.354 289.708 471.678 289.708C470.733 289.708 475.681 283.331 482.681 275.647ZM492.739 296.225C492.739 294.113 490.305 293.389 482.36 293.389C474.515 293.389 472.061 294.113 472.061 296.225C472.061 298.417 474.515 299.061 482.36 299.061C490.305 299.061 492.739 298.417 492.739 296.225ZM458.402 275.164C457.919 272.328 457.618 274.621 457.618 280.273C457.618 286.006 458 288.28 458.402 285.463C458.865 282.627 458.865 278 458.402 275.164ZM524.24 281.38C524.562 277.357 524.32 272.107 523.697 269.673C521.645 261.486 519.291 265.267 518.668 277.517C518.125 287.656 518.507 289.707 520.78 289.225C522.591 288.923 523.858 286.087 524.24 281.38ZM565.899 281.3C562.58 277.297 541.539 267.158 536.893 267.299C534.78 267.379 536.893 268.647 541.539 270.055C546.246 271.543 553.87 275.244 558.416 278.302C567.85 284.679 569.117 285.222 565.899 281.3ZM570.284 272.569C572.014 263.779 571.712 255.913 569.58 255.913C568.554 255.913 567.689 257.804 567.689 260.158C567.609 262.431 566.824 265.65 565.819 267.158C564.471 269.27 564.008 268.486 564.008 263.94C563.928 260.56 563.304 257.805 562.52 257.805C561.715 257.805 556.143 256.939 550.008 255.913C539.95 254.344 538.461 254.505 535.484 257.724C531.16 262.35 531.16 263.457 535.786 263.457C541.298 263.457 554.735 268.969 561.172 273.917C568.474 279.57 568.876 279.489 570.284 272.569ZM524.642 256.778C527.78 252.936 526.674 252.212 515.449 250.885C507.423 249.939 505.855 250.261 505.855 252.776C505.855 259.132 520.156 262.21 524.642 256.778ZM533.916 252.454C532.648 252.071 530.918 252.856 529.973 254.264C527.076 258.971 528.243 260.319 532.185 256.698C534.7 254.425 535.324 252.936 533.916 252.454ZM488.958 252.072C476.868 249.94 464.598 249.94 464.598 252.152C464.598 253.319 471.135 253.943 480.952 253.802C495.415 253.56 496.34 253.399 488.958 252.072ZM568.172 252.695C564.792 252.293 559.281 252.293 555.982 252.695C552.603 253.077 555.358 253.399 562.037 253.399C568.796 253.399 571.551 253.077 568.172 252.695ZM566.603 243.744C570.204 235.255 571.934 235.335 570.284 243.965C569.5 248.451 569.741 250.422 570.928 249.638C574.287 247.586 574.85 238.856 571.934 233.042C569.741 228.657 569.58 226.445 571.23 222.844C573.664 217.493 572.577 214.657 568.252 214.657C561.493 214.657 540.674 242.798 544.597 246.64C545.462 247.505 549.083 248.531 552.683 248.913C556.304 249.316 560.307 249.859 561.574 250.02C562.821 250.181 565.094 247.345 566.603 243.744ZM559.14 232.097C561.956 226.223 565.336 222.904 566.824 224.413C567.226 224.795 565.094 228.094 561.956 231.634C556.304 238.071 556.304 238.071 559.14 232.097ZM473.871 245.534C472.624 243.965 471.135 243.1 470.653 243.583C469.405 244.83 472 248.37 474.273 248.37C475.52 248.37 475.38 247.344 473.871 245.534ZM482.058 246.178C479.765 245.072 477.492 243.02 476.949 241.531C476.225 239.882 478.819 240.666 484.009 243.664C488.415 246.258 493.604 248.37 495.495 248.37C498.794 248.37 498.794 248.29 495.495 244.669C491.311 240.043 493.826 239.721 499.096 244.206C502.013 246.64 502.395 246.721 500.665 244.448C499.418 242.879 498.854 240.988 499.498 240.445C500.041 239.801 499.257 234.692 497.527 229.039C494.63 218.982 494.308 218.599 482.118 212.927C466.73 205.706 459.649 203.734 461.782 207.194C462.727 208.683 462.566 209.166 461.379 208.462C459.026 206.953 436.476 210.815 436.476 212.626C436.476 213.33 437.422 214.899 438.588 216.085C440.238 217.735 440.238 218.982 438.367 221.195C436.235 223.709 436.396 223.93 439.152 222.844C440.962 222.2 443.074 219.847 444.02 217.654C445.508 213.792 445.589 213.872 445.669 218.197C445.83 221.898 446.293 222.281 448.646 220.33C450.155 218.982 451.402 218.519 451.402 219.223C451.402 219.847 453.373 219.464 455.646 218.197C459.891 216.004 459.891 216.005 456.189 220.169C452.589 224.252 452.589 224.252 458.08 222.2C461.138 221.033 464.678 218.74 466.026 217.01C468.138 214.194 468.299 214.194 468.299 217.01C468.299 218.74 466.891 220.953 465.08 222.039C462.083 223.769 462.003 223.93 464.92 224.01C468.923 224.091 473.952 219.143 473.952 215.22C473.952 213.571 474.515 212.705 475.138 213.329C477.653 215.924 473.65 224.172 468.46 226.847C463.733 229.281 463.109 230.528 463.351 237.448C463.592 242.637 464.598 245.615 466.489 246.178C468.762 246.882 468.842 246.56 466.972 244.529C463.431 240.908 464.055 238.152 467.675 241.149C470.572 243.503 470.652 243.341 468.379 239.097C466.489 235.416 467.515 235.959 472.865 241.37C476.627 245.313 481.193 248.37 482.983 248.29C485.437 248.209 485.277 247.747 482.058 246.178ZM518.829 240.666C518.91 240.042 516.234 238.393 512.855 236.985C509.475 235.638 505.613 233.203 504.285 231.634C502.093 229.039 501.932 229.12 502.877 232.097C503.42 233.988 503.964 236.744 503.964 238.152C503.964 239.721 505.07 240.364 506.8 239.64C508.771 238.936 509.314 239.419 508.53 241.451C507.906 242.959 508.369 244.83 509.475 245.474C510.582 246.178 511.507 245.313 511.587 243.341C511.668 240.827 512.15 241.149 513.639 244.669C515.53 249.074 515.671 249.155 517.18 245.534C517.964 243.502 518.749 241.31 518.829 240.666ZM586.155 246.339C594.342 243.503 593.558 240.907 584.586 240.907C578.31 240.907 577.043 241.531 577.043 244.669C577.043 248.994 578.069 249.155 586.155 246.339ZM525.507 244.669C526.131 243.663 525.346 242.799 523.777 242.799C522.128 242.799 520.78 243.663 520.78 244.669C520.78 245.695 521.645 246.56 522.591 246.56C523.536 246.56 524.863 245.695 525.507 244.669ZM539.568 242.959C539.568 242.014 542.465 236.985 546.005 231.715C551.436 223.628 551.818 222.522 548.358 224.333C542.947 227.149 539.729 231.715 540.896 234.692C541.459 236.04 541.137 237.126 540.192 237.126C539.327 237.126 537.516 238.856 536.269 240.907C534.298 244.045 534.378 244.669 536.732 244.669C538.301 244.669 539.568 243.885 539.568 242.959ZM614.518 238.936C614.518 237.93 613.271 237.126 611.782 237.126C610.213 237.126 608.946 236.281 608.946 235.255C608.946 234.229 609.972 233.364 611.299 233.364C612.869 233.364 612.647 232.741 610.837 231.554C608.865 230.387 607.136 230.689 605.184 232.661C602.67 235.175 602.891 235.879 607.055 238.936C611.541 242.396 614.598 242.396 614.598 238.936H614.518ZM880.483 561.849C882.435 562.654 866.564 580.053 847.353 597.634C793.122 647.058 711.796 689.662 633.788 709.456C604.943 716.757 594.262 717.944 590.098 714.163C586.397 710.783 584.827 712.835 588.368 716.376C590.802 718.81 574.689 721.787 538.703 725.488C518.185 727.681 512.231 727.761 511.125 725.87C509.938 724.14 509.636 724.14 509.636 725.95C509.556 727.439 506.639 728.304 501.309 728.304C496.42 728.304 492.659 727.379 492.035 725.95C491.311 724.08 491.09 724.08 491.009 725.95C490.768 729.108 449.753 728.787 416.904 725.327V725.407C360.963 719.594 292.752 703.24 258.334 687.53C252.682 684.935 246.326 682.501 244.274 682.119C237.435 680.852 192.034 657.438 172.542 645.107C136.636 622.316 105.116 596.306 83.5921 571.786C75.5057 562.513 67.7212 553.642 66.3131 552.073C49.5771 533.366 22.703 483.158 12.947 452.281C-3.16544 401.59 -4.33234 337.481 9.9697 288.681C33.3036 208.622 86.0261 141.437 167.433 87.93C237.917 41.6444 319.485 13.6639 416.743 2.43949C442.612 -0.557708 522.289 -0.879939 524.16 1.95633C524.864 3.06268 526.915 4.55132 528.726 5.1749C530.456 5.79848 533.272 9.03749 534.921 12.256C537.999 18.2302 537.999 18.2299 522.349 16.7212C513.8 15.9367 504.447 15.2327 501.53 15.1522C498.633 15.0114 495.495 13.7439 494.55 12.1749C493.041 9.8214 492.739 9.98288 492.739 13.1209C492.659 16.1784 492.337 16.3393 490.848 14.0663C489.823 12.4973 488.958 12.1754 488.958 13.2817C488.958 14.6898 481.254 15.4744 466.026 15.6353C414.169 16.2589 360.42 24.5057 308.945 39.7532C290.72 45.1843 248.056 61.2772 237.214 66.7888C233.13 68.8205 228.644 70.0876 227.156 69.464C225.647 68.9008 224.863 69.2227 225.506 70.2486C226.13 71.1739 221.342 74.6337 214.966 77.8723C169.545 100.804 116.602 142.684 86.6498 179.294C80.5347 186.777 73.8563 194.702 71.8045 196.895C69.7527 199.188 67.8016 202.085 67.4798 203.352C67.2384 204.6 63.7984 210.413 59.7754 216.226C36.8438 250.02 18.3781 305.498 16.0246 347.761C15.7028 353.654 14.8378 356.028 13.0274 355.626C11.6998 355.384 10.8349 355.786 11.2171 356.571C11.6194 357.355 13.1077 360.333 14.5157 363.169C16.8089 367.816 16.7287 368.741 13.5102 372.442C11.5389 374.635 10.9957 375.902 12.2429 375.198C14.9987 373.549 15.8636 377.23 17.4326 397.044C22.3005 460.206 63.155 535.638 119.337 585.303C143.073 606.284 151.482 613.505 151.482 612.882C151.482 612.58 160.594 618.394 171.677 625.856C182.761 633.239 200.04 643.457 210.098 648.647C225.647 656.653 228.322 658.705 228.403 662.708C228.483 667.093 228.644 667.173 231.078 663.955C233.512 660.736 234.538 660.978 251.113 668.038C297.942 687.852 364.966 704.97 411.654 708.993C419.117 709.617 425.232 710.703 425.232 711.347C425.232 714.083 528.806 712.051 550.812 708.993C562.66 707.324 574.066 706.237 576.098 706.539C578.23 706.941 580.744 706.539 581.77 705.755C582.776 705.05 595.831 701.671 610.676 698.372C642.659 691.312 681.321 678.961 707.411 667.656C724.066 660.415 726.339 659.871 728.31 662.546C729.477 664.196 731.127 664.9 731.851 664.115C732.635 663.411 732.233 661.682 731.127 660.274C729.477 658.303 730.342 657.115 735.21 654.762C741.044 652.006 741.506 652.006 743.618 655.386C745.992 659.167 749.512 660.193 749.512 657.035C749.512 656.029 748.265 655.165 746.776 655.165C740.641 655.165 744.483 650.136 755.104 644.322C789.2 625.535 826.293 597.333 854.495 568.729C868.414 554.668 873.121 550.805 874.851 552.535C876.42 554.024 877.044 554.104 877.044 552.616C877.044 551.429 876.018 550.182 874.771 549.78C873.363 549.317 875.012 545.938 879.257 540.667C909.027 504.057 931.818 451.254 938.959 402.535C941.956 381.876 940.307 328.912 936.062 310.205C934.332 302.501 932.602 294.897 932.281 293.389C931.979 291.82 931.496 290.09 931.275 289.627C931.034 289.084 930.712 287.817 930.49 286.791C930.169 284.839 929.766 283.975 919.407 259.615C902.429 219.927 881.529 189.211 849.868 157.308C800.042 107.1 733.42 67.3315 659.556 43.7563C648.714 40.2964 639.602 36.8366 639.28 36.0521C638.878 35.2676 636.685 34.6439 634.251 34.6439C631.897 34.6439 621.216 32.6124 610.515 30.1583C592.29 25.914 560.629 20.342 548.056 19.2357C544.114 18.8535 542.243 17.5864 541.761 14.9312C541.378 12.8794 539.246 9.1779 537.053 6.74393C533.05 2.27831 533.05 2.27827 547.976 3.52543C605.808 8.47382 681.16 30.3196 737.021 58.3002C853.006 116.434 927.574 202.567 951.068 305.498C962.152 354.217 957.666 416.676 939.603 464.853C933.005 482.293 915.464 516.79 908.162 526.526C904.944 530.77 899.915 537.851 896.938 542.236C894.021 546.561 890.803 549.719 889.938 549.156C888.992 548.532 888.288 549.719 888.288 551.67C888.288 554.668 883.098 561.024 880.483 561.849ZM879.8 561.929C879.679 561.909 879.578 561.869 879.478 561.809C879.015 561.426 878.07 561.809 877.366 562.513C876.662 563.297 877.124 563.297 878.472 562.593C879.035 562.271 879.478 562.05 879.8 561.929ZM627.653 703.964C627.653 702.939 626.869 702.074 625.843 702.074C624.736 702.074 623.952 702.939 623.952 703.964C623.952 704.97 624.736 705.835 625.843 705.835C626.869 705.835 627.653 704.97 627.653 703.964ZM887.182 538.797C885.291 535.719 882.636 537.067 882.636 541.07C882.636 544.369 883.099 544.69 885.452 542.719C887.021 541.452 887.806 539.662 887.182 538.797ZM895.751 538.857C895.751 537.932 894.967 537.147 893.941 537.147C892.834 537.147 892.05 538.475 892.05 540.044C892.05 541.613 892.834 542.478 893.941 541.774C894.967 541.15 895.751 539.802 895.751 538.857ZM9.02434 389.098C9.02434 388.152 8.15949 386.825 7.13361 386.201C6.10772 385.558 5.24257 386.342 5.24257 387.931C5.24257 389.581 6.10772 390.908 7.13361 390.908C8.15949 390.908 9.02434 390.124 9.02434 389.098ZM927.896 251.589C926.307 250.1 925.763 250.261 925.763 252.373C925.763 256.155 928.278 258.669 929.223 255.833C929.625 254.666 928.982 252.775 927.896 251.589ZM68.9681 192.107C68.9681 191.082 68.1034 190.297 67.0976 190.297C66.0718 190.297 65.2066 191.082 65.2066 192.107C65.2066 193.214 66.0718 193.998 67.0976 193.998C68.1034 193.998 68.9681 193.214 68.9681 192.107ZM892.05 188.427C892.05 187.401 891.185 186.536 890.179 186.536C889.153 186.536 888.288 187.401 888.288 188.427C888.288 189.432 889.153 190.297 890.179 190.297C891.185 190.297 892.05 189.432 892.05 188.427ZM74.6409 184.645C74.6409 183.619 73.7758 182.754 72.7499 182.754C71.724 182.754 70.8592 183.619 70.8592 184.645C70.8592 185.67 71.724 186.536 72.7499 186.536C73.7758 186.536 74.6409 185.67 74.6409 184.645ZM246.627 54.9201C245.541 51.4603 241.458 50.9177 241.458 54.2167C241.458 55.7857 242.785 57.1933 244.435 57.1933C246.084 57.1933 247.11 56.1673 246.627 54.9201ZM273.663 43.1325C273.663 42.1067 272.717 41.0003 271.631 40.6181C270.525 40.2963 269.579 41.4026 269.579 43.1325C269.579 44.782 270.525 45.8884 271.631 45.5666C272.717 45.1844 273.663 44.078 273.663 43.1325Z" fill="#DBA651"/>
</svg>
