<svg width="961" height="963" viewBox="0 0 961 963" fill="none" xmlns="http://www.w3.org/2000/svg">
<path fill-rule="evenodd" clip-rule="evenodd" d="M797.792 839.674C798.757 838.08 798.129 837.653 795.861 838.529C794.019 839.225 791.819 838.866 791.123 837.743C790.427 836.508 788.496 836.059 786.901 836.688C785.24 837.294 782.006 837.114 779.716 836.238C775.674 834.756 775.853 834.307 782.612 827.728C788.743 821.777 790.427 821.148 794.199 823.169C798.915 825.707 799.813 828.514 796.467 830.624C795.165 831.41 795.681 833.252 797.702 835.272C800.599 838.079 801.385 838.17 802.957 835.632C803.922 834.06 804.798 833.701 804.798 834.936C804.888 837.563 800.599 842.121 798.039 842.121C797.073 842.121 796.916 841.066 797.792 839.674ZM805.067 829.749C803.136 828.514 802.687 826.066 803.653 822.293C804.461 819.127 804.102 815.445 802.777 813.873C801.115 811.852 804.192 807.384 815.329 795.46C902.432 702.565 949.093 573.538 939.438 452.843C938.045 436.271 937.955 424.325 939.011 423.899C941.907 422.843 941.279 417.679 937.686 412.222C935.845 409.505 932.252 396.526 929.535 383.458C918.667 331.272 894.977 274.686 864.977 229.08C851.459 208.646 849.618 204.785 852.088 202.337C854.625 199.777 856.107 200.495 862.687 206.805C873.308 217.067 874.543 214.171 864.281 203.213C850.584 188.64 848.652 185.742 850.067 182.15C850.763 180.219 851.998 178.647 852.874 178.647C855.591 178.647 881.998 215.226 895.673 238.107C917.162 273.99 935.575 318.9 946.466 361.789C954.011 391.541 955.583 403.016 952.686 406.698C950.845 408.989 950.934 409.326 952.955 408.114C958.299 404.858 955.403 414.872 949.789 418.981C943.479 423.629 944.872 428.098 951.384 423.989C954.797 421.878 955.762 422.147 957.603 425.561C960.32 430.658 960.32 442.402 957.603 442.402C954.617 442.402 955.066 448.195 958.12 449.16C962.072 450.553 961.196 516.885 956.817 547.042C943.749 637.58 909.617 715.813 852.874 785.535C843.577 796.942 838.301 801.86 835.943 801.164C833.742 800.535 832.17 801.68 831.474 804.397C830.688 807.294 828.577 808.619 824.895 808.619C820.067 808.619 819.528 809.315 820.763 813.963C821.819 818.184 820.763 820.812 816.205 825.55C809.715 832.219 809.266 832.466 805.067 829.749ZM948.307 412.941C950.575 409.326 947.948 408.54 945.141 411.976C943.479 413.997 943.3 415.209 944.714 415.209C945.927 415.209 947.521 414.154 948.307 412.941ZM476.575 796.336C472.443 793.709 474.554 786.68 479.471 786.68C482.458 786.68 483.603 788.095 483.603 791.778C483.603 797.302 480.953 799.053 476.575 796.336ZM449.831 792.923C449.112 791.059 449.561 788.521 450.707 787.376C454.12 783.963 460.609 786.254 460.609 790.902C460.609 796.246 451.762 797.908 449.831 792.923ZM497.974 792.923C497.278 791.059 497.637 788.521 498.76 787.376C502.196 783.963 508.775 786.254 508.775 790.902C508.775 796.246 499.905 797.908 497.974 792.923ZM426.837 790.992C424.996 786.074 427.623 781.066 431.844 781.852C434.112 782.301 435.437 784.502 435.437 787.735C435.437 793.708 428.858 796.246 426.837 790.992ZM523.146 790.992C521.215 786.074 523.932 781.066 528.064 781.852C530.421 782.301 531.746 784.502 531.746 787.735C531.746 793.708 525.167 796.246 523.146 790.992ZM403.237 786.949C400.003 782.997 402.541 777.204 407.548 777.204C412.623 777.204 414.824 782.571 411.411 786.68C408.155 790.542 406.313 790.632 403.237 786.949ZM546.14 786.77C544.299 781.852 546.926 776.868 551.125 777.654C553.415 778.08 554.718 780.281 554.718 783.537C554.718 789.487 548.161 792.024 546.14 786.77ZM381.411 780.887C376.762 777.563 378.851 770.984 384.464 770.984C389.741 770.984 391.852 776.778 388.08 780.64C385.61 783.088 384.397 783.087 381.411 780.887ZM570.773 781.695C566.664 779.046 568.685 772.04 573.58 772.04C576.656 772.04 577.801 773.432 577.801 777.114C577.801 782.638 575.084 784.412 570.773 781.695ZM426.051 773.185C338.432 756.681 261.771 700.633 220.095 622.311C203.343 590.829 193.531 558.359 187.917 515.74L186.412 504.332L115.275 504.939C76.1589 505.298 42.4765 504.939 40.4556 504.153C38.4347 503.367 36.773 500.919 36.773 498.718C36.773 494.946 39.5798 494.767 111.772 494.767H186.862L188.074 468.113C194.137 344.252 287.459 235.39 413.162 205.839C559.119 171.461 708.578 253.107 758.496 394.685C767.163 419.43 773.496 453.45 773.496 475.994V494.767H848.832C921.384 494.767 924.191 494.856 924.191 498.718C924.191 500.919 922.686 503.277 920.845 503.973C919.004 504.692 885.141 505.208 845.508 505.208C773.496 505.208 773.496 505.208 773.496 511.271C773.496 514.505 771.991 525.552 770.24 535.814C754.971 624.152 698.407 701.509 618.243 743.791C593.767 756.59 554.718 769.839 528.58 774.061C501.477 778.44 451.919 777.99 426.051 773.185ZM542.457 765.101C652.172 739.502 735.772 657.565 760.764 551.263C789.978 427.065 729.641 297.86 614.111 237.501C590.78 225.218 566.304 216.461 537.876 209.972C508.146 203.213 455.534 203.213 423.94 209.882C314.293 233.212 229.75 312.591 201.951 418.375C196.248 439.955 195.192 448.196 194.316 477.32C192.295 540.463 205.881 590.469 239.316 642.295C281.15 707.302 352.983 754.143 432.024 767.998C456.927 772.376 518.229 770.715 542.457 765.101ZM290.177 647.123C290.266 645.641 291.052 642.475 292.018 640.207C293.433 636.861 292.377 634.773 287.19 630.282L280.611 624.578H289.301C297.295 624.511 298.17 623.972 299.383 618.179C300.191 614.765 301.494 611.958 302.28 611.958C303.066 611.958 304.84 614.765 306.142 618.179C308.163 623.703 309.578 624.511 316.494 624.578C324.555 624.578 324.555 624.579 318.604 629.856C313.417 634.414 312.811 636.165 313.956 642.295C315.258 649.503 315.259 649.504 309.039 645.911C303.066 642.475 302.459 642.475 296.419 646.068C291.681 648.875 290.087 649.144 290.177 647.123ZM644.2 642.565C646.221 635.806 645.952 634.841 640.338 629.945C634.275 624.579 634.275 624.578 642.09 624.578C648.938 624.511 650.33 623.613 652.958 617.663L655.854 610.903L658.661 617.663C661.041 623.793 662.276 624.511 669.799 624.511H678.219L671.573 629.856C665.69 634.414 665.084 635.806 666.835 640.387C670.069 648.875 669.193 650.02 662.613 646.157C656.304 642.385 656.82 642.295 643.325 649.144C642.539 649.503 642.965 646.606 644.2 642.565ZM518.161 578.456C518.161 577.311 524.022 576.345 531.746 576.345C539.381 576.345 545.354 577.221 545.354 578.456C545.354 579.602 539.381 580.544 531.746 580.544C524.022 580.544 518.161 579.602 518.161 578.456ZM557.884 572.124C557.884 570.911 565.608 570.126 576.746 570.126C587.883 570.126 595.608 570.911 595.608 572.124C595.608 573.449 587.883 574.234 576.746 574.234C565.608 574.234 557.884 573.449 557.884 572.124ZM415.61 568.014C415.61 566.779 420.797 565.904 427.106 565.904C433.416 565.904 438.603 566.779 438.603 568.014C438.603 569.159 433.416 570.126 427.106 570.126C420.797 570.126 415.61 569.159 415.61 568.014ZM649.455 568.531C653.227 568.104 658.931 568.104 662.097 568.531C665.151 568.98 662.097 569.407 655.248 569.407C648.31 569.407 645.772 569.07 649.545 568.531H649.455ZM490.968 565.904C490.968 563.456 514.636 563.456 522.36 565.904C525.863 567.049 521.664 567.655 509.202 567.745C498.333 567.925 490.968 567.139 490.968 565.904ZM592.442 564.062C588.939 563.187 584.201 561.345 581.753 560.021C577.352 557.753 565.878 556.607 476.305 550.207C451.582 548.456 418.596 545.919 403.08 544.594C387.451 543.269 358.597 542.147 338.769 542.057C299.832 541.787 295.453 540.552 295.274 529.864C295.274 524.856 289.929 522.498 277.467 522.139C266.666 521.78 255.012 518.097 253.687 514.594C252.991 512.843 255.192 508.375 258.695 504.423C263.612 498.719 264.915 495.396 264.915 487.761C264.915 476.691 268.171 473.816 280.543 473.816C284.742 473.816 293.68 472.132 300.528 470.134C310.97 467.057 312.991 465.732 313.08 461.78C313.08 456.167 313.081 456.167 353.859 450.822C379.3 447.499 392.885 444.692 395.692 442.402C397.196 441.167 403.237 439.595 409.12 438.899C418.416 437.753 419.741 437.058 419.741 432.836C419.741 427.132 426.141 424.415 432.114 427.581C435.078 429.243 437.728 428.974 442.106 426.706C445.34 424.954 449.112 423.629 450.347 423.54C451.672 423.54 453.94 422.148 455.355 420.486C456.747 418.712 461.058 417.319 464.898 417.319C472.622 417.319 480.953 414.154 488.588 408.45C491.305 406.452 495.706 404.767 498.333 404.767C501.05 404.767 504.464 402.499 506.395 399.513C508.416 396.526 511.829 394.259 514.546 394.259C517.106 394.259 522.27 392.417 526.043 390.037C529.815 387.769 535.519 385.928 538.842 385.928C542.098 385.928 547.195 383.996 550.069 381.706C553.146 379.348 558.58 377.507 562.801 377.507C567.539 377.507 571.222 376.183 572.973 373.735C574.455 371.714 578.767 368.727 582.539 367.223C586.828 365.471 589.298 363.024 589.298 360.487C589.298 355.479 598.505 350.831 602.277 353.997C606.656 357.59 640.338 358.196 644.47 354.783C650.151 350.045 656.304 357.051 656.304 368.278C656.304 376.092 657.089 377.665 662.007 380.045C665.151 381.527 668.047 384.782 668.407 387.23C668.766 389.61 671.214 392.574 673.841 393.809C679.118 396.189 685.697 401.803 704.537 419.947C717.089 431.96 717.089 431.96 731.64 431.96C739.97 431.96 746.303 432.836 746.303 434.071C746.303 435.216 739.544 436.182 730.427 436.182C714.978 436.182 714.641 436.272 715.944 440.83C717.269 445.389 726.834 454.954 730.068 454.954C730.854 454.954 731.64 456.099 731.64 457.491C731.64 458.816 733.414 463.711 735.502 468.449C749.716 499.325 749.896 500.291 742.171 502.042C736.827 503.187 735.771 504.422 735.771 509.497C735.771 516.885 732.358 518.794 716.034 520.657C708.848 521.533 701.82 523.621 699.552 525.642C697.441 527.663 686.034 533.546 674.38 538.801C657.269 546.435 652.958 549.243 652.441 553.105C652.015 556.248 649.208 558.988 644.021 561.076C635.421 564.758 602.277 566.689 592.442 564.062ZM637.442 558.898C645.346 556.877 646.828 555.642 646.828 551.443C646.828 547.132 649.545 545.29 667.172 537.745C678.399 532.917 691.221 526.697 695.689 523.711C700.674 520.388 708.399 517.85 715.854 516.952C730.764 515.201 731.64 514.684 731.393 507.656C731.213 503.367 730.944 503.007 730.158 506.263C728.496 513.022 726.385 513.988 713.586 513.899C703.571 513.719 699.731 514.774 691.917 519.759C686.73 523.015 673.234 530.29 662.007 535.814C647.883 542.842 641.663 547.042 641.663 549.512C641.663 555.462 633.243 558.359 616.312 558.359C604.208 558.269 598.235 557.146 591.207 553.621C581.574 548.793 536.125 543.808 484.636 541.787C472.533 541.338 440.534 539.407 413.499 537.566C386.396 535.724 356.755 534.422 347.549 534.692C318.065 535.388 311.486 534.848 304.66 531.345C298.417 528.112 298.081 528.113 298.777 531.615C299.742 536.96 311.576 539.339 330.797 538.014C340.004 537.408 372.024 538.621 402.024 540.821C431.934 543.022 483.513 546.705 516.567 549.062C551.215 551.443 578.767 554.339 581.484 555.731C592.711 561.794 620.421 563.367 637.442 558.988V558.898ZM616.469 537.499C616.469 526.091 617.277 520.028 618.579 520.904C619.725 521.6 620.69 529.774 620.69 538.98C620.69 555.731 620.69 555.732 627.539 554.34C637.711 552.139 637.801 551.869 636.386 536.869C634.275 515.65 634.994 516.526 620.174 516.616C612.966 516.705 604.298 516.256 600.862 515.65C594.642 514.595 594.643 514.594 592.352 532.042C589.905 551.083 589.994 551.173 601.738 553.441C617.187 556.518 616.469 557.214 616.469 537.499ZM587.973 537.139C588.669 532.827 589.298 525.306 589.298 520.388V511.518L558.423 511.428C541.492 511.428 519.733 510.822 510.167 510.126L492.81 508.711L493.416 523.195L494.112 537.655L532.802 541.091C590.6 546.076 586.401 546.435 587.973 537.139ZM663.152 531.166C693.848 515.829 696.026 513.629 696.026 498.988C696.026 492.14 695.151 486.076 694.028 485.38C692.973 484.684 679.634 490.029 664.455 497.237C636.925 510.306 636.925 510.305 638.227 520.814C638.924 526.608 639.462 533.456 639.552 536.083C639.552 542.483 640.945 542.214 663.152 531.166ZM488.251 536.959C490.093 535.814 490.519 531.346 489.554 521.354C488.319 508.375 487.892 507.319 483.333 507.319C478.595 507.319 478.416 507.925 478.416 523.015C478.416 536.532 478.865 538.711 482.009 538.621C484.03 538.621 486.837 537.925 488.251 536.959ZM474.217 536.6V510.036L445.43 508.711C429.554 507.925 401.845 506.69 383.679 505.994L350.715 504.602V516.435C350.715 524.07 351.68 528.718 353.342 529.325C356.845 530.56 437.548 535.904 457.982 536.353L474.217 536.6ZM333.514 514.684C333.941 504.602 335.176 497.394 336.681 496.428C338.522 495.216 338.432 494.767 336.231 494.767C334.57 494.767 331.493 496.338 329.293 498.27C326.059 501.256 324.308 501.436 319.301 499.504C312.452 496.967 312.294 497.304 310.273 520.298C309.308 531.345 310.453 532.222 324.555 531.705C332.908 531.346 332.908 531.345 333.514 514.684ZM347.369 526.697C347.19 525.215 347.01 518.367 346.853 511.518C346.583 500.47 346.067 498.899 342.362 498.899C338.522 498.899 338.163 500.291 338.163 514.774C338.163 530.021 338.342 530.56 342.9 529.954C345.438 529.594 347.459 528.112 347.369 526.697ZM307.377 511.518C308.073 501.885 307.893 498.27 306.838 502.042C305.176 508.374 304.031 529.684 305.446 528.023C305.872 527.574 306.771 520.118 307.377 511.518ZM298.597 517.132C297.295 515.829 289.391 514.415 281.06 513.988C270.192 513.36 265.184 512.236 263.253 509.766C260.895 506.69 260.267 506.69 258.605 509.34C255.708 514.145 258.874 515.83 274.57 517.761C282.542 518.794 291.322 520.478 294.218 521.533C300.012 523.711 302.549 521.084 298.597 517.132ZM302.19 502.671C302.729 493.622 302.459 493.015 296.06 490.815C292.377 489.512 289.031 488.457 288.694 488.457C288.245 488.457 287.909 493.015 287.909 498.629C287.909 507.049 288.695 509.161 292.647 511.002C299.832 514.505 301.494 513.023 302.19 502.671ZM630.076 511.338C633.31 509.767 632.277 509.497 625.787 510.126C621.139 510.553 612.18 510.216 606.05 509.25C593.677 507.229 590.084 508.195 597.876 511.338C604.298 513.898 624.642 513.898 630.076 511.338ZM722.613 509.766C724.544 508.621 724.813 503.816 723.668 491.87L722.186 475.568L709.904 475.208C697.711 474.849 697.71 474.849 698.923 485.38C699.641 491.084 700.158 498.808 700.158 502.491C700.248 508.105 701.034 509.25 705.951 510.036C716.034 511.518 720.076 511.518 722.613 509.856V509.766ZM283.777 497.843C283.777 486.346 283.777 486.346 276.412 486.346C270.888 486.346 269.046 487.222 269.046 490.029C269.046 492.05 268.418 497.236 267.722 501.525C266.419 509.429 266.419 509.43 275.087 509.43C283.777 509.43 283.777 509.429 283.777 497.843ZM526.492 504.153C526.492 499.864 529.905 500.201 531.656 504.692C532.981 508.195 533.161 508.195 535.159 504.692C537.629 500.201 541.132 499.864 541.132 504.153C541.132 505.904 542.098 507.319 543.243 507.319C544.388 507.319 545.354 505.904 545.354 504.153C545.354 499.864 548.857 500.201 551.484 504.692C553.415 508.015 553.595 507.925 553.685 503.883C553.775 498.898 547.263 496.787 531.477 496.787C523.146 496.787 522.36 497.237 522.36 502.042C522.36 504.939 523.236 507.319 524.381 507.319C525.616 507.319 526.492 505.904 526.492 504.153ZM570.436 503.277C570.436 501.009 569.47 496.518 568.235 493.375C565.945 487.492 565.945 487.491 562.015 492.656C559.815 495.553 557.974 500.044 557.974 502.581C557.884 506.444 559.029 507.319 564.193 507.319C569.021 507.319 570.436 506.353 570.436 503.277ZM588.333 501.525C586.649 494.946 583.841 492.746 577.262 492.656C573.243 492.656 572.524 493.712 572.524 499.954C572.524 507.14 572.704 507.319 581.125 507.319C589.455 507.319 589.725 507.139 588.333 501.525ZM627 505.298C632.187 503.816 632.187 503.726 624.889 500.74C617.614 497.574 599.717 499.504 599.717 503.277C599.717 506.623 618.063 508.015 627 505.298ZM463.236 503.637C457.802 503.188 448.416 503.188 442.376 503.637C436.223 504.153 440.692 504.423 452.189 504.423C463.686 504.423 468.671 504.153 463.236 503.726V503.637ZM497.188 503.637C497.188 502.761 496.223 500.65 495.167 498.988C493.595 496.429 492.72 496.338 490.519 498.539C488.319 500.65 488.408 501.525 490.968 503.187C494.741 505.567 497.188 505.725 497.188 503.637ZM503.071 497.394C502.712 495.395 504.284 491.87 506.574 489.513C510.773 485.291 510.773 485.291 489.037 484.775C471.567 484.236 466.492 484.774 463.955 487.311C461.058 490.208 462.451 490.568 477.9 490.568C495.078 490.568 495.078 490.567 498.513 498.449C501.657 505.904 504.643 505.298 503.071 497.394ZM518.071 500.47C518.071 496.181 517.802 496.091 515.265 499.415C513.67 501.436 511.829 503.097 511.133 503.097C508.595 503.097 509.74 498.202 513.243 494.43C517.353 489.849 515.421 486.706 510.863 490.568C509.112 491.96 507.719 495.912 507.719 499.145C507.719 504.243 508.506 505.208 512.884 505.208C516.926 505.208 518.161 504.153 518.071 500.47ZM661.468 494.161C667.261 491.084 671.393 488.637 670.607 488.547C668.766 488.457 637.442 503.367 637.442 504.423C637.442 505.568 648.938 500.65 661.468 494.161ZM385.43 495.306C383.162 493.015 381.59 496.608 383.252 500.38C384.734 503.973 384.914 503.973 385.789 500.38C386.239 498.269 386.149 496.002 385.43 495.306ZM395.962 497.394C393.783 495.306 392.01 498.449 393.783 501.346C395.086 503.457 395.625 503.457 396.321 501.346C396.837 499.864 396.658 498.112 395.962 497.394ZM405.078 501.009C405.078 499.864 404.203 498.899 403.08 498.899C401.845 498.899 400.969 499.864 400.969 501.009C400.969 502.132 401.845 503.097 403.08 503.097C404.203 503.097 405.078 502.132 405.078 501.009ZM421.403 498.113C424.03 492.319 422.458 489.602 418.416 492.925C415.34 495.463 414.554 503.097 417.361 503.097C418.327 503.097 420.168 500.83 421.403 498.113ZM379.996 498.899C379.996 497.753 376.224 496.877 371.665 496.877C367.017 496.877 363.245 497.753 363.245 498.899C363.245 500.111 367.017 501.009 371.665 501.009C376.224 501.009 379.996 500.111 379.996 498.899ZM487.353 498.202C488.251 495.912 482.705 495.036 459.374 493.801C443.409 493.015 429.374 492.925 428.162 493.711C422.638 497.147 427.623 498.898 445.43 499.504C456.051 499.864 469.636 500.38 475.519 500.65C482.974 500.919 486.657 500.201 487.353 498.202ZM602.794 496.608C605.87 493.711 602.524 492.05 596.753 493.464C593.767 494.25 591.387 496.271 591.387 498.023C591.387 501.436 598.595 500.47 602.794 496.608ZM637.442 492.499C637.442 488.098 636.386 486.346 633.759 486.346C631.738 486.346 627.965 485.74 625.428 485.044C621.386 483.989 620.69 484.594 620.69 489.243C620.69 493.464 622.262 495.395 627.539 497.573C635.87 501.076 637.442 500.291 637.442 492.499ZM359.136 495.036C359.136 492.925 360.977 489.512 363.245 487.401C367.623 483.449 369.038 475.904 365.266 475.904C364.12 475.904 362.639 477.319 361.942 478.981C361.314 480.642 359.046 482.574 356.755 483.27C351.748 484.864 350.962 498.899 355.969 498.899C357.631 498.899 359.136 497.236 359.136 495.036ZM742.081 495.822C742.081 494.16 740.689 489.692 739.028 485.92C737.343 482.147 733.84 474.153 731.303 468.203C728.496 461.781 724.544 456.436 721.647 455.134C716.64 452.844 710.689 441.526 710.689 434.341C710.689 430.209 694.185 412.133 692.254 414.064C691.648 414.693 692.793 416.871 694.634 418.981C696.565 421.182 698.137 424.259 698.137 425.831C698.137 427.492 699.978 430.03 702.358 431.444C704.626 432.926 706.468 435.643 706.468 437.664C706.468 440.201 704.716 439.078 700.427 433.981L694.275 426.706V437.664C694.365 451.878 701.73 459.153 715.854 459.153C724.814 459.153 724.814 459.153 726.296 479.07C727.8 498.898 727.8 498.899 734.985 498.899C739.813 498.899 742.081 497.933 742.081 495.822ZM327.721 494.767C327.721 493.621 324.128 492.746 319.839 492.835C312.811 493.015 312.541 493.284 317.19 494.767C324.734 497.147 327.721 497.147 327.721 494.767ZM660.952 488.367C667.351 485.38 669.103 479.16 663.062 480.822C661.041 481.428 655.428 483.112 650.51 484.505C643.325 486.526 641.663 487.918 641.663 491.96C641.663 497.304 642.09 497.236 660.952 488.367ZM347.818 485.201C347.01 483.202 343.507 482.237 337.197 482.237C329.136 482.237 327.721 482.843 327.721 486.346C327.721 489.849 329.136 490.568 335.962 490.568C340.453 490.568 344.921 491.691 345.797 493.195C347.908 496.429 349.57 489.782 347.818 485.201ZM415.093 491.084C415.609 489.243 413.341 488.457 407.548 488.457C397.982 488.457 392.548 490.118 392.548 493.015C392.548 496.001 414.038 494.16 415.093 491.084ZM557.794 491.69C559.905 489.243 559.455 488.457 555.436 487.401C547.442 485.38 525.863 487.132 524.987 489.939C523.326 494.946 553.775 496.608 557.794 491.69ZM616.132 485.56C616.738 478.015 616.468 477.589 611.91 478.711C609.283 479.497 605.241 480.037 603.063 480.126C599.201 480.126 599.291 480.306 603.58 484.954C606.05 487.581 608.138 490.995 608.138 492.409C608.138 493.891 609.732 494.767 611.753 494.34C614.38 493.891 615.593 491.263 616.132 485.56ZM383.162 490.568C383.948 489.333 381.141 488.457 376.044 488.457C371.486 488.457 367.107 489.423 366.411 490.568C365.625 491.87 368.432 492.656 373.507 492.656C378.065 492.656 382.466 491.691 383.162 490.568ZM446.305 487.761C448.955 485.111 442.286 482.304 433.237 482.237C423.761 482.237 420.886 483.719 423.761 487.222C425.961 489.849 443.858 490.209 446.305 487.761ZM460.43 485.291C464.382 479.25 462.989 474.332 458.341 478.195C455.692 480.305 453.94 490.568 456.141 490.568C456.567 490.568 458.499 488.187 460.43 485.291ZM530.96 482.237C535.608 482.237 537.001 481.271 537.001 478.015C537.001 474.512 535.609 473.816 528.76 473.816C524.112 473.816 520.16 472.671 519.643 471.256C518.947 469.505 518.071 469.954 517.016 472.581C516.05 474.782 516.387 478.105 517.802 480.306C519.127 482.394 519.643 485.83 519.037 487.851C518.229 490.658 518.857 490.388 521.395 486.975C523.685 483.989 527.188 482.237 530.96 482.237ZM589.298 489.692C589.298 489.243 589.904 487.311 590.601 485.56C591.476 483.112 590.6 482.237 587.277 482.237C581.214 482.237 574.208 486.077 575.78 488.637C576.925 490.478 589.298 491.533 589.298 489.692ZM323.522 485.38C323.522 483.27 321.411 482.237 317.19 482.237C312.901 482.237 310.97 481.181 310.97 478.981C310.97 476.533 309.735 475.994 306.232 477.139C296.239 480.126 294.915 481.788 300.438 483.899C314.046 489.063 323.522 489.692 323.522 485.38ZM394.3 483.629C394.996 479.767 389.382 479.251 379.996 482.237C374.742 483.899 374.742 483.899 380.355 484.078C383.499 484.236 386.665 485.29 387.361 486.525C389.292 489.602 393.424 487.85 394.3 483.629ZM453.244 486.436C453.244 485.201 452.278 484.325 451.133 484.325C449.988 484.325 449.022 485.201 449.022 486.436C449.022 487.581 449.988 488.457 451.133 488.457C452.278 488.457 453.244 487.581 453.244 486.436ZM599.717 487.581C599.717 485.381 595.788 484.415 594.553 486.346C593.856 487.581 594.642 488.457 596.484 488.457C598.325 488.457 599.717 488.008 599.717 487.581ZM411.411 481.092C411.411 479.43 410.445 478.015 409.3 478.015C408.154 478.015 407.189 479.946 407.189 482.304C407.189 484.684 408.154 486.076 409.3 485.38C410.445 484.684 411.411 482.664 411.411 481.092ZM419.045 481.272C418.327 479.43 416.845 478.015 415.61 478.015C412.533 478.015 412.982 483.719 416.149 484.864C419.652 486.167 420.527 485.044 419.045 481.272ZM574.366 483.539C575.69 482.057 576.05 480.126 575.331 479.43C572.884 476.96 566.753 477.925 565.608 480.912C563.408 486.525 570.256 488.547 574.366 483.539ZM280.094 482.933C278.702 482.305 275.895 482.304 273.874 482.843C271.764 483.359 272.998 483.809 276.412 483.899C279.825 483.989 281.509 483.54 280.094 482.933ZM402.541 480.396C401.935 478.285 402.271 474.939 403.327 473.098C404.831 470.47 404.113 469.415 399.914 468.36C392.548 466.518 392.099 467.574 396.321 476.444C400.093 484.505 404.292 487.132 402.541 480.396ZM553.775 479.587C553.842 474.849 553.842 474.85 557.884 480.126C562.015 485.291 562.015 485.291 562.015 479.587C562.105 474.602 561.297 473.816 555.773 473.816C551.664 473.816 549.553 474.849 549.553 476.96C549.553 478.711 548.498 480.126 547.195 480.126C545.96 480.126 545.421 478.711 546.14 476.96C546.836 475.029 546.14 473.816 544.209 473.816C539.897 473.816 540.436 481.698 544.815 482.843C552.18 484.774 553.685 484.168 553.775 479.587ZM681.386 466.272C681.386 454.954 681.386 454.954 674.29 454.954C665.869 454.954 663.062 461.354 667.082 471.077C668.407 474.333 669.642 477.925 669.889 479.07C670.158 480.216 670.428 481.877 670.607 482.753C670.765 483.629 673.324 482.843 676.131 481.001C680.689 478.015 681.386 475.995 681.386 466.272ZM688.751 480.912C691.648 479.07 693.938 475.815 693.938 473.816C693.938 470.471 695.42 470.134 706.468 471.167C716.909 472.132 719.2 471.705 720.322 468.809C722.186 463.981 722.006 463.891 705.412 463.015C690.772 462.319 690.772 462.32 690.165 470.134C689.716 475.298 687.965 479.071 684.979 481.092C678.938 485.381 682.262 485.201 688.751 480.912ZM512.704 475.208C511.829 472.85 509.022 471.706 504.037 471.706C497.548 471.706 497.009 472.132 499.479 475.118C505.699 482.573 515.601 482.663 512.704 475.208ZM634.365 478.105C631.401 474.782 629.986 474.513 626.753 476.534C620.69 480.306 622.015 482.237 630.436 482.237C637.891 482.237 637.98 482.057 634.365 478.105ZM653.227 479.856C668.766 475.904 662.523 469.235 645.256 471.167C634.275 472.402 633.849 472.851 638.856 478.375C642.876 482.933 641.663 482.753 653.227 479.856ZM325.97 474.513C334.39 466.429 333.694 462.926 324.038 463.711C316.583 464.43 316.134 464.857 315.528 472.222C314.742 481.788 317.729 482.394 325.97 474.513ZM358.686 477.589C363.335 472.941 361.224 471.706 347.818 471.706C338.859 471.706 333.694 472.671 332.032 474.692C330.012 477.14 330.438 477.836 334.39 478.622C344.293 480.463 356.239 480.036 358.686 477.589ZM455.175 477.139C459.037 472.581 434.202 470.134 427.982 474.513C423.514 477.656 423.513 477.656 429.464 478.554C442.802 480.553 452.795 479.946 455.175 477.139ZM478.416 476.96C478.416 474.849 476.305 473.816 472.106 473.816C466.133 473.816 464.202 475.747 467.188 478.711C469.995 481.428 478.416 480.126 478.416 476.96ZM496.312 476.87C490.968 472.851 482.548 472.851 482.548 476.96C482.548 479.25 484.905 480.036 491.485 480.036C499.726 479.946 500.085 479.767 496.312 476.87ZM390.707 475.118C389.382 473.547 386.149 472.761 383.072 473.277C374.292 475.029 375.079 478.015 384.308 478.015C391.493 478.015 392.638 477.499 390.707 475.118ZM588.243 475.904C587.524 474.782 586.042 473.816 584.987 473.816C583.931 473.816 583.056 474.782 583.056 475.904C583.056 477.05 584.47 478.015 586.312 478.015C588.063 478.015 588.939 477.05 588.243 475.904ZM416.485 473.637C415.52 472.043 416.396 471.705 419.045 472.491C424.03 474.063 430.699 470.47 425.961 468.719C422.279 467.327 406.583 472.492 408.604 474.513C411.051 476.87 418.08 476.085 416.485 473.547V473.637ZM572.524 471.706C572.524 469.415 571.559 467.574 570.436 467.574C569.291 467.574 568.325 467.933 568.325 468.36C568.325 468.899 567.809 470.74 567.09 472.581C566.215 474.782 567 475.904 569.201 475.904C571.132 475.904 572.524 474.153 572.524 471.706ZM589.298 466.518C594.104 465.463 595.608 463.981 595.608 460.208C595.608 453.629 592.172 451.698 590.69 457.402C589.635 461.354 588.4 461.713 579.979 460.748C570.077 459.692 568.236 460.995 573.58 465.463C575.331 466.878 576.746 470.044 576.746 472.491C576.746 476.87 576.746 476.87 579.912 472.312C581.574 469.864 585.863 467.237 589.298 466.429V466.518ZM612.359 472.761C609.552 469.415 589.298 468.202 589.298 471.346C589.298 474.939 592.352 475.904 603.49 475.904C613.415 475.904 614.56 475.478 612.359 472.761ZM624.463 465.822C625.069 457.042 625.069 457.042 616.648 457.042C606.297 457.042 605.421 460.815 613.841 469.684C621.297 477.409 623.677 476.623 624.463 465.822ZM688.145 465.912C688.751 459.422 688.145 454.954 686.303 452.933C683.923 450.306 683.496 451.878 683.496 462.836C683.496 478.105 686.82 480.305 688.145 465.912ZM481.223 468.539C482.188 466.002 480.078 465.396 468.85 465.396C454.816 465.396 450.257 468.719 462.181 470.201C476.395 471.975 480.078 471.616 481.223 468.539ZM490.968 469.595C490.968 468.449 490.092 467.484 488.947 467.484C487.892 467.484 486.41 468.449 485.691 469.595C484.995 470.74 485.871 471.706 487.622 471.706C489.464 471.706 490.968 470.74 490.968 469.595ZM379.996 467.484C379.996 466.361 376.224 465.396 371.665 465.396C367.017 465.396 363.245 466.361 363.245 467.484C363.245 468.629 367.017 469.595 371.665 469.595C376.224 469.595 379.996 468.629 379.996 467.484ZM388.417 467.663C388.417 466.608 390.977 464.857 394.12 463.622C399.914 461.533 399.914 461.534 393.334 461.444C388.417 461.264 386.486 462.32 385.7 465.396C385.093 467.754 385.43 469.595 386.486 469.595C387.541 469.595 388.417 468.719 388.417 467.663ZM459.127 461.084C462.024 460.994 461.934 460.568 458.499 459.153C450.954 455.92 449.022 456.795 449.022 463.801C449.022 470.47 449.112 470.47 452.368 465.912C454.12 463.374 457.196 461.174 459.127 461.084ZM565.159 467.663C566.394 465.642 556.222 463.801 538.236 462.836C526.312 462.229 522.001 466.698 533.161 468.113C547.016 469.775 563.947 469.595 565.159 467.663ZM636.117 468.36C639.013 467.237 639.013 466.788 636.386 464.071C634.635 462.319 633.242 457.761 633.242 453.809C633.242 449.857 632.367 446.624 631.221 446.624C629.986 446.624 629.111 451.788 629.111 458.098C629.111 469.505 629.896 470.74 636.206 468.36H636.117ZM344.383 465.553C344.383 462.589 340.969 461.085 337.287 462.499C332.19 464.43 333.335 467.484 339.218 467.484C342.115 467.484 344.383 466.608 344.383 465.553ZM349.39 464.43C349.996 462.656 349.749 461.264 348.604 461.264C347.459 461.264 346.493 462.656 346.493 464.43C346.493 466.092 346.942 467.484 347.369 467.484C347.818 467.484 348.694 466.092 349.39 464.43ZM361.493 464.43C366.321 462.32 367.197 461.353 364.3 461.353C362.01 461.353 358.327 462.746 356.059 464.43C350.962 468.27 352.556 468.27 361.493 464.43ZM444.913 464.43C444.913 462.05 442.376 461.264 435.078 461.264C425.961 461.264 425.535 461.534 429.307 464.341C434.741 468.45 444.913 468.45 444.913 464.43ZM518.228 464.251C520.609 461.354 519.733 461.085 509.741 461.623C503.161 462.05 498.243 463.375 497.704 464.857C496.402 468.898 514.815 468.36 518.228 464.251ZM652.082 465.396C653.856 464.34 654.283 463.375 653.138 463.375C652.015 463.375 649.634 464.34 647.883 465.396C646.221 466.519 645.682 467.394 646.828 467.394C647.973 467.394 650.33 466.519 652.082 465.396ZM421.852 463.285C421.852 462.14 420.437 461.264 418.776 461.264C417.024 461.264 415.61 462.14 415.61 463.285C415.61 464.52 417.024 465.396 418.776 465.396C420.437 465.396 421.852 464.52 421.852 463.285ZM603.939 460.298C603.939 457.491 602.973 454.595 601.828 453.899C600.593 453.113 599.717 455.291 599.717 458.974C599.717 462.499 600.683 465.396 601.828 465.396C602.973 465.396 603.939 463.105 603.939 460.298ZM661.917 454.415C661.378 451.878 661.042 453.45 660.952 458.098C660.952 462.656 661.378 464.857 661.917 462.836C662.434 460.815 662.434 457.042 661.917 454.415ZM412.466 461.264C413.162 460.029 412.196 459.153 410.355 459.153C408.514 459.153 407.548 460.029 408.244 461.264C408.94 462.409 409.906 463.285 410.355 463.285C410.782 463.285 411.747 462.409 412.466 461.264ZM496.312 460.994C497.008 459.782 496.672 457.941 495.347 456.886C494.112 455.74 493.505 455.56 494.022 456.346C494.651 457.042 494.022 458.974 492.72 460.568C491.125 462.409 491.125 463.375 492.63 463.375C493.865 463.375 495.526 462.319 496.223 461.084L496.312 460.994ZM641.82 459.243C640.248 458.277 639.642 456.436 640.428 455.201C641.214 453.899 640.854 452.843 639.642 452.843C636.566 452.843 636.925 460.658 640.069 461.78C643.841 463.195 645.166 461.264 641.82 459.243ZM375.797 458.098C375.797 456.346 374.921 454.954 373.776 454.954C372.541 454.954 371.665 456.346 371.665 458.098C371.665 459.782 372.541 461.174 373.776 461.174C374.921 461.174 375.797 459.782 375.797 458.098ZM481.672 458.906C476.305 457.582 472.712 457.671 471.32 459.063C469.816 460.478 472.443 461.084 479.561 460.994C489.913 460.815 489.913 460.815 481.672 458.817V458.906ZM553.775 457.042C553.775 453.989 552.36 452.843 548.587 452.843C544.815 452.843 543.759 453.719 544.545 456.01C545.264 457.671 546.567 458.637 547.532 458.008C548.498 457.492 549.822 457.941 550.519 459.063C552.629 462.409 553.775 461.623 553.775 457.042ZM568.415 458.277C568.415 456.616 568.931 453.719 569.717 451.788C570.773 448.981 569.897 448.464 565.002 448.981C560.174 449.587 558.849 450.822 558.333 455.47C557.704 460.388 558.333 461.174 562.981 461.174C566.215 461.174 568.415 460.029 568.415 458.277ZM654.193 455.74C654.193 453.898 652.015 452.934 648.399 453.023C645.256 453.113 643.841 453.629 645.256 454.236C646.738 454.775 647.883 456.616 647.883 458.188C647.883 459.849 649.208 460.568 651.049 459.849C652.801 459.243 654.193 457.312 654.193 455.74ZM349.66 457.042C351.321 454.325 342.294 454.325 338.163 457.042C335.782 458.547 336.591 459.063 341.666 459.063C345.348 459.063 348.941 458.188 349.66 457.042ZM367.466 457.042C367.466 455.92 364.816 455.044 361.673 455.134C355.969 455.291 355.969 455.291 361.224 457.042C364.031 457.941 366.658 458.817 366.927 458.906C367.287 459.064 367.466 458.188 367.466 457.042ZM394.659 455.74C394.659 455.291 390.707 454.954 385.789 454.954C380.445 454.954 377.975 455.651 379.569 456.706C382.017 458.278 394.659 457.491 394.659 455.74ZM442.376 456.1C444.374 454.079 432.989 452.574 424.479 453.899C417.451 454.955 415.699 455.83 417.9 457.312C420.527 459.063 440.355 458.098 442.376 456.1ZM522.36 453.989C522.36 451.182 523.932 447.926 525.953 446.713C528.67 445.209 524.112 444.602 509.202 444.512C489.823 444.512 488.857 444.692 488.857 448.891C488.857 452.394 489.464 452.843 491.664 451.002C493.775 449.25 495.616 449.947 499.299 453.899C503.071 457.941 506.305 459.153 513.243 459.153C521.484 459.153 522.36 458.727 522.36 453.989ZM500.444 453.023C499.815 451.968 500.175 450.486 501.387 449.767C502.532 448.981 503.498 449.857 503.498 451.698C503.498 455.381 502.286 455.92 500.444 453.023ZM507.719 451.788C507.719 450.126 508.595 448.622 509.741 448.622C510.953 448.622 511.829 450.126 511.829 451.788C511.829 453.539 510.953 454.954 509.741 454.954C508.595 454.954 507.719 453.539 507.719 451.788ZM514.905 452.664C514.119 451.429 514.478 449.34 515.781 448.105C517.532 446.354 518.161 446.96 518.161 450.306C518.161 455.381 517.106 456.167 514.905 452.664ZM698.137 458.367C698.137 458.008 696.026 455.919 693.399 453.719C688.661 449.677 688.661 449.677 692.703 454.415C696.475 458.816 698.137 460.029 698.137 458.367ZM530.691 454.954C530.691 453.809 529.725 452.843 528.58 452.843C527.457 452.843 526.492 453.809 526.492 454.954C526.492 456.1 527.457 457.042 528.58 457.042C529.725 457.042 530.691 456.1 530.691 454.954ZM576.746 453.899C576.746 452.148 576.386 450.733 575.96 450.733C575.511 450.733 574.545 452.148 573.849 453.899C573.243 455.651 573.58 457.042 574.725 457.042C575.87 457.042 576.746 455.651 576.746 453.899ZM581.663 453.899C582.359 452.148 582 450.733 580.878 450.733C579.732 450.733 578.856 452.148 578.856 453.899C578.856 455.651 579.193 457.042 579.642 457.042C580.069 457.042 581.035 455.651 581.663 453.899ZM404.831 453.113C406.852 451.788 406.134 451.002 402.204 450.306C396.927 449.251 395.265 450.643 398.162 453.539C400.003 455.381 401.395 455.291 404.831 453.113ZM445.093 443.817C443.409 442.222 442.802 443.008 442.802 446.87C442.802 453.719 445.699 456.706 446.665 450.733C447.024 448.195 446.306 445.029 445.093 443.817ZM467.885 452.843C467.885 451.698 466.043 450.733 463.865 450.733C461.575 450.733 459.217 451.698 458.499 452.843C457.802 454.078 459.554 454.954 462.54 454.954C465.527 454.954 467.885 453.988 467.885 452.843ZM486.747 452.843C486.747 450.216 482.458 450.216 478.416 452.843C475.968 454.415 476.485 454.865 480.953 454.954C484.12 454.954 486.747 453.988 486.747 452.843ZM464.741 445.995C472.196 445.298 471.926 445.119 462.181 444.872C452.099 444.513 451.133 444.872 451.133 449.071C451.133 453.202 451.402 453.293 453.76 450.216C455.265 448.375 460.183 446.444 464.741 445.995ZM616.469 450.822C616.469 449.677 615.076 449.34 613.415 450.036C611.663 450.643 610.249 451.609 610.249 452.058C610.249 452.484 611.663 452.843 613.415 452.843C615.076 452.843 616.469 451.967 616.469 450.822ZM624.889 450.733C624.889 449.587 623.497 448.622 621.745 448.622C619.994 448.622 618.579 449.587 618.579 450.733C618.579 451.878 619.994 452.843 621.745 452.843C623.497 452.843 624.889 451.878 624.889 450.733ZM428.589 448.285C426.837 446.534 424.906 446.443 421.403 448.195C416.934 450.396 417.114 450.486 423.85 450.643C429.374 450.733 430.52 450.216 428.589 448.375V448.285ZM439.906 447.41C439.21 445.658 438.603 443.278 438.603 442.222C438.603 441.167 437.638 440.291 436.492 440.291C435.347 440.291 434.382 442.672 434.382 445.568C434.382 448.892 435.617 450.733 437.795 450.733C439.995 450.733 440.692 449.588 439.906 447.41ZM539.022 448.622C539.022 447.499 537.27 446.534 535.002 446.534C532.802 446.534 530.354 447.499 529.636 448.622C528.94 449.857 530.691 450.733 533.677 450.733C536.664 450.733 539.022 449.767 539.022 448.622ZM555.773 447.746C555.773 443.547 552.36 441.885 547.262 443.457C543.849 444.512 543.49 445.388 545.511 447.746C548.677 451.608 555.773 451.608 555.773 447.746ZM679.275 449.071C679.275 445.905 674.29 442.402 669.799 442.402C663.938 442.402 662.097 444.513 664.904 447.926C667.441 450.912 679.275 451.878 679.275 449.071ZM584.291 441.975C582.629 433.465 580.159 431.96 567.876 431.96C558.333 431.96 557.884 432.14 557.884 437.933C557.884 443.637 558.49 443.974 570.953 445.995C578.138 447.14 584.381 448.196 584.807 448.375C585.256 448.555 585.077 445.658 584.291 441.975ZM576.746 440.291C576.746 438.023 577.711 436.092 578.856 436.092C579.979 436.092 580.945 438.023 580.945 440.291C580.945 442.581 579.979 444.512 578.856 444.512C577.711 444.512 576.746 442.581 576.746 440.291ZM560.331 439.169C561.297 434.588 565.002 434.34 565.878 438.719C566.304 441.009 565.339 442.402 563.138 442.402C561.14 442.402 559.994 441.1 560.331 439.169ZM568.415 439.415C568.415 437.754 569.291 435.822 570.436 435.036C571.648 434.34 572.524 435.733 572.524 438.113C572.524 440.471 571.648 442.402 570.436 442.402C569.291 442.402 568.415 441.099 568.415 439.415ZM652.082 446.624C652.082 445.478 648.759 444.512 644.717 444.512C640.698 444.512 637.442 445.478 637.442 446.624C637.442 447.746 640.698 448.712 644.717 448.712C648.759 448.712 652.082 447.746 652.082 446.624ZM418.776 444.512C419.472 443.277 417.361 442.402 413.589 442.402C410.086 442.402 407.189 443.367 407.189 444.512C407.189 445.658 409.479 446.624 412.376 446.624C415.183 446.624 417.99 445.658 418.776 444.512ZM599.897 444.512C605.241 444.512 606.05 443.727 606.05 438.539C606.05 435.306 604.208 430.995 602.008 428.974C598.235 425.561 597.719 425.561 592.621 428.907C586.222 433.106 584.291 448.195 590.511 445.815C592.352 445.119 596.574 444.512 599.897 444.512ZM665.779 440.291C669.642 440.291 670.944 439.168 670.944 435.912C670.944 432.746 669.978 431.871 667.621 432.746C665.779 433.465 662.523 434.071 660.255 434.071C657.179 434.071 656.304 435.486 656.304 440.83C656.393 446.444 656.73 446.96 658.504 443.974C659.717 441.975 662.973 440.291 665.779 440.291ZM431.665 436.698C431.148 434.677 430.699 435.823 430.609 439.258C430.609 442.761 431.059 444.423 431.575 442.941C432.181 441.526 432.271 438.719 431.665 436.698ZM629.56 442.065C627.786 440.291 624.732 440.291 618.153 441.796C609.193 443.974 609.193 443.974 620.6 444.243C629.201 444.423 631.401 443.907 629.56 442.065ZM428.162 438.36C428.162 436.092 427.196 433.712 426.051 433.016C424.816 432.23 423.94 433.982 423.94 437.058C423.94 440.044 424.906 442.402 426.051 442.402C427.196 442.402 428.162 440.561 428.162 438.36ZM486.747 440.291C486.747 439.168 482.705 438.36 477.9 438.539L468.94 438.809L477.361 440.291C481.919 441.167 485.961 441.975 486.23 442.132C486.567 442.222 486.747 441.526 486.747 440.291ZM520.878 440.291C525.706 440.291 528.333 439.505 527.547 438.203C526.829 437.058 518.318 436.092 508.595 436.092C493.595 436.092 490.968 436.608 490.968 439.505C490.968 442.492 492.63 442.761 501.926 441.705C507.966 440.92 516.477 440.291 520.878 440.291ZM534.913 435.036C534.913 430.119 533.947 427.762 531.836 427.762C527.188 427.762 525.953 431.624 529.546 435.217C531.319 437.058 532.802 439.415 532.802 440.471C532.802 441.526 533.228 442.402 533.857 442.402C534.373 442.402 534.913 439.078 534.913 435.036ZM540.526 429.333C540.077 426.706 539.651 428.906 539.651 434.071C539.651 439.258 539.987 441.346 540.526 438.719C541.043 436.182 541.043 431.87 540.526 429.333ZM679.724 436.002C680.51 430.658 679.028 427.672 669.889 417.5C660.503 406.968 658.661 405.733 656.663 408.719C654.822 411.347 654.552 410.224 655.518 403.465C657 393.114 653.856 386.444 646.221 383.547C641.483 381.796 640.069 382.155 636.925 385.995C634.545 388.982 633.242 389.521 633.242 387.59C633.242 385.995 634.365 383.548 635.78 382.156C637.711 380.224 636.835 379.595 631.558 379.595C627.876 379.595 624.889 378.72 624.889 377.664C624.889 374.947 617.277 372.836 612.786 374.251C610.787 374.857 606.835 379.596 603.939 384.873C601.132 390.037 598.056 394.259 597.18 394.259C594.642 394.259 595.249 392.665 600.773 383.817C603.669 379.259 606.05 375.037 606.05 374.431C606.05 371.624 594.643 373.735 592.015 376.968C589.119 380.471 589.029 380.471 590.084 376.968C591.049 373.982 589.994 373.375 584.021 373.375C579.979 373.375 576.746 374.252 576.746 375.397C576.746 376.452 574.298 378.63 571.402 380.224C566.574 382.762 566.304 383.368 569.291 385.748C571.042 387.23 572.524 391.609 572.524 395.471C572.524 405.216 576.387 406.452 577.105 396.976C577.712 389.678 578.318 389.071 584.021 389.071C589.635 389.071 590.421 389.767 591.05 395.83C591.387 399.872 592.801 402.679 594.553 402.679C597.786 402.679 604.725 393.54 606.925 386.444C607.801 383.817 609.283 381.706 610.338 381.706C612.449 381.706 609.193 391.541 605.69 395.74C603.939 397.851 604.725 398.457 609.193 398.457C612.36 398.457 616.222 396.796 617.793 394.775C619.545 392.484 621.206 391.879 622.172 393.203C623.138 394.349 626.214 395.224 629.021 395.135C631.918 395.135 635.331 395.83 636.566 396.706C637.98 397.761 639.822 396.347 641.304 393.114C642.628 390.127 644.717 388.375 645.952 389.161C647.434 390.037 646.558 392.238 643.751 395.292C640.249 398.997 639.372 402.141 639.889 409.169C640.607 418.982 641.483 419.34 654.193 416.264C661.221 414.513 675.076 426.437 675.076 434.251C675.076 438.809 676.558 442.402 678.309 442.402C678.579 442.402 679.275 439.505 679.724 436.002ZM576.746 381.976C576.746 380.831 577.711 379.259 578.856 378.54C579.979 377.844 580.945 378.204 580.945 379.349C580.945 380.471 579.979 382.065 578.856 382.761C577.711 383.457 576.746 383.121 576.746 381.976ZM691.827 438.203C691.827 434.161 689.627 432.747 687.089 435.306C685.428 436.968 687.606 442.402 689.986 442.402C691.041 442.402 691.827 440.561 691.827 438.203ZM452.728 438.899C450.707 438.36 447.451 438.36 445.43 438.899C443.409 439.325 445.003 439.865 449.022 439.865C453.064 439.865 454.726 439.415 452.728 438.899ZM468.67 431.96C467.548 430.838 463.775 436.272 463.775 439.169C463.775 440.202 465.078 439.259 466.672 437.058C468.334 434.857 469.209 432.589 468.67 431.96ZM548.318 439.079C552.809 437.327 552.966 423.54 548.498 423.54C546.567 423.54 545.354 425.561 545.354 428.637C545.354 431.444 544.815 435.216 544.119 436.968C542.704 440.65 543.423 440.92 548.318 439.079ZM614.38 430.905C614.38 421.519 614.38 421.452 607.015 421.452C599.56 421.452 599.56 421.451 604.994 426.167C607.981 428.817 610.608 433.016 610.788 435.553C611.394 444.333 614.38 440.381 614.38 430.905ZM652.082 437.148C652.082 434.947 649.904 434.071 644.717 434.071C639.642 434.071 637.442 434.947 637.442 437.148C637.442 439.326 639.642 440.291 644.717 440.291C649.904 440.291 652.082 439.326 652.082 437.148ZM443.409 436.092C445.003 436.092 445.093 435.486 443.588 433.981C441.141 431.533 434.472 433.375 434.472 436.519C434.472 437.754 435.954 438.113 437.728 437.394C439.569 436.698 442.106 436.092 443.409 436.092ZM625.159 430.748C626.034 427.402 627.269 422.484 628.055 419.947C629.111 416.623 628.594 414.872 626.034 413.907C621.746 412.223 618.849 414.872 622.531 417.14C624.642 418.465 624.553 419.071 621.925 420.037C619.635 420.912 618.579 423.989 618.579 429.939C618.579 439.954 622.891 440.471 625.159 430.748ZM632.367 430.388C630.076 428.098 628.504 431.714 630.166 435.486C631.738 439.079 631.828 439.079 632.704 435.396C633.242 433.285 633.152 430.995 632.434 430.388H632.367ZM463.236 431.87C466.403 426.885 477.72 426.1 478.775 430.838C479.202 433.016 480.077 432.499 481.739 428.974C483.76 424.595 483.603 424.259 479.651 425.134C476.125 426.01 475.699 425.65 477.72 423.45C479.471 421.609 485.354 420.913 496.312 421.272C506.934 421.609 511.829 421.003 510.953 419.61C509.381 416.961 518.588 414.244 524.112 415.658C528.513 416.871 533.498 413.637 535.429 408.383C536.394 405.823 539.111 404.678 544.209 404.678C551.574 404.678 552.539 403.555 551.664 395.561C551.394 393.45 553.932 388.802 557.188 385.299L563.138 378.899L553.325 384.423C547.981 387.499 540.773 390.037 537.45 390.037C533.767 390.037 529.546 392.058 526.492 395.292C521.844 400.299 516.567 402.589 519.037 398.637C521.485 394.775 512.008 398.996 507.45 403.892C504.913 406.609 500.871 408.899 498.58 408.899C496.312 408.899 492.63 410.471 490.519 412.402C485.871 416.623 473.072 421.362 466.402 421.452C460.879 421.452 447.024 427.761 447.024 430.298C447.024 432.05 454.479 435.732 458.499 436.002C459.644 436.002 461.844 434.251 463.236 431.87ZM495.078 416.174C496.582 414.513 498.67 413.098 499.815 413.098C500.961 413.098 500.781 414.423 499.299 416.174C497.884 417.926 495.773 419.341 494.651 419.341C493.416 419.341 493.685 417.926 495.078 416.174ZM523.326 406.878C525.436 403.555 542.884 392.417 544.119 393.719C544.725 394.348 540.526 398.031 534.643 401.871C523.595 409.169 521.215 410.224 523.326 406.878ZM491.664 428.817C491.058 427.065 489.643 426.167 488.588 426.796C485.691 428.637 486.41 431.87 489.823 431.87C491.664 431.87 492.45 430.658 491.664 428.817ZM523.056 428.727C523.932 426.437 522.809 425.65 518.318 425.65C514.905 425.65 511.739 426.976 511.133 428.727C510.167 431.085 511.402 431.87 515.871 431.87C519.284 431.87 522.36 430.568 523.056 428.727ZM647.883 429.872C647.883 428.637 645.076 427.762 641.663 427.762C638.138 427.762 635.331 428.637 635.331 429.872C635.331 430.995 638.138 431.87 641.663 431.87C645.076 431.87 647.883 430.995 647.883 429.872ZM590.331 425.65C594.103 421.519 594.014 421.452 582.18 421.452C575.601 421.452 568.146 422.574 565.608 423.899C561.05 426.436 561.05 426.437 566.304 427.941C576.746 430.905 586.401 429.939 590.331 425.65ZM666.992 427.941C664.455 426.257 656.304 427.133 656.304 428.974C656.304 429.423 659.38 429.782 663.062 429.782C667.71 429.782 668.923 429.154 666.992 427.941ZM561.477 421.609C562.105 419.251 563.677 418.016 565.429 418.712C567.18 419.43 568.415 418.465 568.415 416.444C568.415 413.817 567.09 413.368 563.138 414.333C558.759 415.388 557.884 414.94 557.884 411.19C557.884 407.485 558.759 406.968 563.138 408.023C566.843 408.989 568.415 408.54 568.415 406.519C568.415 404.768 565.945 403.712 562.105 403.712C555.953 403.712 555.773 403.892 555.773 414.693C555.773 425.561 559.299 429.872 561.477 421.609ZM643.751 423.54C643.751 422.417 641.393 421.452 638.587 421.452C635.78 421.452 632.883 422.417 632.187 423.54C631.468 424.775 633.579 425.65 637.352 425.65C640.855 425.65 643.751 424.685 643.751 423.54ZM658.931 423.54C662.277 423.54 662.793 422.934 661.042 421.182C658.235 418.465 647.883 420.486 647.883 423.809C647.883 425.134 649.365 425.56 651.206 424.864C653.047 424.168 656.483 423.54 658.931 423.54ZM676.041 416.264C668.676 407.327 666.745 405.486 666.745 407.844C666.745 409.258 681.565 425.65 682.8 425.65C683.317 425.65 680.24 421.451 676.041 416.264ZM690.076 418.712C687.606 416.085 685.607 412.941 685.607 411.886C685.607 410.741 682.531 406.609 678.758 402.59C671.999 395.292 672 395.291 671.303 400.478C670.697 404.43 672.965 407.934 681.296 415.905C691.827 425.92 699.102 428.278 690.076 418.712ZM523.415 421.452C522.63 420.306 520.788 419.341 519.194 419.341C517.622 419.341 515.691 420.306 514.995 421.452C514.299 422.664 516.05 423.54 519.194 423.54C522.27 423.54 524.112 422.664 523.415 421.452ZM534.913 421.452C534.913 420.306 534.037 419.341 532.891 419.341C531.836 419.341 530.354 420.306 529.636 421.452C528.94 422.574 529.815 423.54 531.656 423.54C533.408 423.54 534.913 422.574 534.913 421.452ZM551.664 416.444C551.664 414.513 550.159 413.907 547.442 414.603C545.174 415.12 543.849 416.534 544.456 417.5C546.297 420.486 551.664 419.677 551.664 416.444ZM599.717 414.94C599.717 413.907 596.91 413.098 593.497 413.098C589.635 413.098 587.187 414.154 587.187 415.905C587.187 417.746 589.208 418.375 593.497 417.746C596.91 417.23 599.717 415.995 599.717 414.94ZM584.56 411.616C586.042 408.54 587.187 403.802 587.187 401.175C587.187 394.258 581.394 395.134 580.518 402.14C580.069 406.272 578.857 407.664 576.229 407.238C573.49 406.789 572.524 408.024 572.524 411.976C572.524 419.61 581.035 419.34 584.65 411.616H584.56ZM616.469 415.209C616.469 414.064 613.145 413.098 609.013 413.098C604.635 413.098 602.097 413.996 602.883 415.209C603.579 416.354 607.015 417.319 610.338 417.319C613.752 417.319 616.469 416.354 616.469 415.209ZM634.724 404.251C634.208 401.624 633.849 403.712 633.849 408.899C633.849 414.063 634.208 416.174 634.724 413.637C635.241 411.01 635.241 406.788 634.724 404.251ZM551.664 409.259C551.664 408.293 548.767 407.934 545.354 408.45C541.918 408.989 539.112 409.775 539.112 410.224C539.112 410.651 541.918 411.01 545.354 411.01C548.767 411.01 551.664 410.224 551.664 409.259ZM603.939 408.899C603.939 407.754 601.132 406.788 597.719 406.788C594.193 406.788 591.387 407.754 591.387 408.899C591.387 410.044 594.193 411.01 597.719 411.01C601.132 411.01 603.939 410.044 603.939 408.899ZM612.359 408.899C612.359 407.754 611.484 406.788 610.338 406.788C609.283 406.788 607.801 407.754 607.105 408.899C606.386 410.044 607.262 411.01 609.013 411.01C610.855 411.01 612.359 410.044 612.359 408.899ZM629.021 405.733C629.021 402.05 627.966 400.569 625.069 400.569C619.815 400.569 617.883 406.182 622.352 408.809C627.876 411.975 629.021 411.437 629.021 405.733ZM616.469 402.5C616.469 401.175 613.662 400.838 608.677 401.804C597.786 403.712 597.539 404.678 607.801 404.678C612.629 404.678 616.469 403.712 616.469 402.5ZM664.545 389.251C662.524 387.499 662.276 388.106 663.309 392.148C664.028 395.045 664.724 398.817 664.904 400.569C665.151 402.23 665.69 400.995 666.206 397.671C666.655 394.348 665.959 390.576 664.545 389.251ZM659.717 391.609C659.2 390.217 658.661 391.362 658.661 394.259C658.661 397.155 659.111 398.278 659.717 396.886C660.346 395.382 660.346 393.113 659.717 391.609ZM562.622 394.955C561.23 394.416 558.849 394.416 557.367 394.955C555.953 395.561 557.098 396.01 559.994 396.01C562.891 396.01 564.036 395.561 562.622 394.955ZM652.082 371.265C652.082 365.224 651.206 362.844 648.938 362.844C646.648 362.844 645.772 365.224 645.772 371.265C645.772 377.238 646.648 379.595 648.938 379.595C651.206 379.595 652.082 377.327 652.082 371.265ZM641.663 370.209C641.663 364.596 640.787 362.844 637.98 362.844C634.814 362.934 634.724 363.204 637.442 365.135C639.979 366.976 639.732 367.223 636.117 366.437C632.614 365.651 631.648 366.437 631.648 370.299C631.648 373.645 633.152 375.486 636.117 376.092C638.587 376.609 640.855 377.058 641.124 377.238C641.394 377.328 641.663 374.251 641.663 370.209ZM629.021 370.209C629.021 365.134 628.594 364.955 614.38 364.955C606.049 364.955 599.717 365.831 599.717 367.066C599.717 369.603 599.987 369.603 614.29 370.209C620.69 370.479 626.034 371.714 626.483 373.016C627.876 377.058 629.021 375.733 629.021 370.209ZM594.912 362.328C594.283 360.913 593.857 362.058 593.857 364.955C593.857 367.851 594.283 368.997 594.912 367.582C595.428 366.1 595.428 363.81 594.912 362.328ZM611.82 361.452C609.822 360.913 606.049 360.824 603.4 361.362C600.862 361.879 602.434 362.328 607.105 362.328C611.663 362.328 613.841 361.969 611.82 361.452ZM389.382 559.594C377.099 558.179 377.279 558.18 395.355 557.843C407.189 557.573 413.252 558.179 412.466 559.594C411.051 561.794 409.39 561.794 389.472 559.594H389.382ZM427.106 559.594C425.535 557.056 446.395 556.966 458.499 559.504C465.437 560.896 463.506 561.255 447.63 561.435C436.762 561.525 427.802 560.739 427.106 559.594ZM672 553.284C671.214 552.049 674.11 551.263 679.275 551.263C684.552 551.263 687.448 552.049 686.64 553.284C685.854 554.497 682.621 555.372 679.275 555.372C675.951 555.372 672.696 554.497 672 553.284ZM363.335 551.78C337.377 550.994 325.273 547.042 348.941 547.042C371.149 547.042 400.969 549.602 400.969 551.533C400.969 552.476 397.893 553.104 394.12 552.835C390.438 552.565 376.493 552.139 363.335 551.78ZM275.895 541.428C277.894 540.911 281.24 540.911 283.26 541.428C285.259 541.877 283.597 542.393 279.578 542.393C275.536 542.393 273.874 541.967 275.895 541.428ZM687.695 538.621C687.695 537.498 693.579 536.6 701.303 536.6C708.938 536.6 714.889 537.498 714.889 538.621C714.889 539.856 708.938 540.732 701.303 540.732C693.579 540.732 687.695 539.856 687.695 538.621ZM254.473 534.512C254.473 533.367 258.695 532.401 263.859 532.401C269.046 532.401 273.246 533.367 273.246 534.512C273.246 535.635 269.046 536.6 263.859 536.6C258.695 536.6 254.473 535.635 254.473 534.512ZM713.833 530.29C709.275 529.145 712.441 528.628 724.813 528.449C735.075 528.269 742.081 528.988 742.081 530.29C742.081 532.67 723.219 532.67 713.833 530.29ZM257.033 526.697C254.473 526.181 252.385 525.036 252.385 524.071C252.385 522.319 262.736 523.105 278.522 526.181C286.224 527.573 285.888 527.753 274.301 527.663C267.385 527.663 259.66 527.214 257.033 526.697ZM282.722 448.622C281.936 447.409 284.383 446.534 288.874 446.534C292.894 446.534 296.329 447.499 296.329 448.622C296.329 449.767 293.522 450.733 290.177 450.733C286.763 450.733 283.418 449.767 282.722 448.622ZM304.66 446.534C304.66 445.389 310.184 444.512 317.1 444.512C323.949 444.512 330.101 445.389 330.797 446.534C331.673 447.836 327.025 448.622 318.425 448.622C310.61 448.622 304.66 447.746 304.66 446.534ZM249.219 440.291C248.433 438.989 252.632 438.203 260.626 438.203C267.632 438.203 273.246 439.168 273.246 440.291C273.246 441.436 268.171 442.402 261.861 442.402C255.618 442.402 249.915 441.436 249.219 440.291ZM281.666 440.291C281.666 439.079 289.301 438.203 300.438 438.203C311.666 438.203 319.301 439.079 319.301 440.291C319.301 441.526 311.666 442.402 300.438 442.402C289.301 442.402 281.666 441.526 281.666 440.291ZM332.908 440.291C332.1 438.989 339.555 438.203 353.859 438.203C368.162 438.203 375.617 438.989 374.742 440.291C374.045 441.436 364.659 442.402 353.859 442.402C342.99 442.402 333.604 441.436 332.908 440.291ZM212.55 431.96C212.55 427.761 213.785 426.346 227.213 415.388C235.791 408.45 250.79 400.569 255.349 400.569C257.123 400.569 265.274 397.065 273.515 392.844C288.425 385.029 288.425 385.029 299.652 390.913C310.184 396.437 311.329 396.617 320.872 394.169C330.258 391.789 331.673 391.968 341.755 397.155C347.818 400.12 355.969 402.59 360.011 402.59C365.176 402.59 369.397 404.52 374.472 408.899C378.424 412.312 382.623 415.209 383.858 415.209C388.417 415.209 413.678 430.389 412.893 432.679C412.286 434.431 384.397 435.216 312.384 435.553C213.605 436.092 212.55 436.092 212.55 431.96ZM289.997 429.872C289.997 428.727 293.679 426.01 298.08 423.719C305.446 419.947 306.591 419.857 310.184 422.664C313.956 425.74 313.956 425.83 309.914 424.775C307.646 424.258 302.369 425.561 298.417 427.762C291.052 431.714 291.052 431.713 348.065 431.781C379.479 431.871 405.078 431.534 405.078 431.084C405.078 429.513 386.575 419.341 383.769 419.341C382.197 419.341 377.638 416.534 373.686 413.188C363.941 404.857 358.507 404.768 366.411 413.031C374.652 421.699 371.329 423.54 362.818 415.029C354.914 407.058 332.639 394.865 330.258 397.223C328.507 398.997 339.914 408.809 343.866 408.899C345.258 408.899 347.818 411.01 349.57 413.637C351.321 416.264 356.059 419.677 360.101 421.092C364.121 422.574 367.466 424.595 367.466 425.65C367.466 428.277 352.376 421.789 348.604 417.589C346.942 415.569 341.935 411.796 337.646 409.169C333.245 406.519 328.776 402.589 327.721 400.478C325.97 397.222 324.645 396.976 318.425 398.907C312.452 400.748 309.914 400.389 302.729 396.616C291.322 390.643 291.501 394.865 303.155 406.362C313.866 416.804 325.453 418.891 316.673 408.809C315.259 407.147 317.459 408.809 321.501 412.582C325.61 416.264 330.797 419.341 333.065 419.341C337.803 419.341 346.583 424.865 346.583 427.851C346.583 428.974 344.046 428.278 340.969 426.257C337.803 424.168 334.3 422.484 333.065 422.484C322.983 422.148 308.432 415.995 300.977 408.899C292.557 400.838 292.557 400.838 288.155 405.486C285.708 408.113 283.777 411.706 283.777 413.547C283.777 417.409 278.343 423.54 274.93 423.54C273.695 423.54 274.211 421.788 276.142 419.677C277.984 417.589 279.578 414.513 279.578 412.762C279.578 411.1 282.385 406.968 285.887 403.645C292.736 397.066 292.894 396.616 290.266 392.485C288.066 389.071 267.025 399.064 255.798 408.899C247.108 416.444 243.425 417.23 250.274 409.955C252.991 407.058 254.316 404.678 253.26 404.767C248.073 405.037 216.771 426.706 216.771 430.029C216.771 431.085 232.894 431.87 253.44 431.87C275.895 431.87 289.997 431.085 289.997 429.872ZM261.681 426.616C263.859 424.954 266.666 423.54 267.901 423.629C269.136 423.629 268.35 425.045 266.06 426.796C263.859 428.458 260.963 429.782 259.84 429.782C258.605 429.782 259.391 428.278 261.681 426.616ZM383.679 426.976C381.658 425.381 379.996 423.54 379.996 422.933C379.996 420.553 385.969 423.899 387.114 426.886C388.507 430.479 388.327 430.479 383.679 426.976ZM234.309 422.327C237.542 419.431 240.888 417.679 241.584 418.375C243.089 419.858 233.613 427.671 230.357 427.671C229.211 427.671 230.985 425.291 234.309 422.327ZM246.052 423.719C246.052 421.519 260.805 408.899 263.253 408.899C266.936 408.899 264.129 412.492 255.349 418.802C250.274 422.574 246.052 424.775 246.052 423.719ZM359.203 773.185C355.183 770.715 357.451 763.709 362.279 763.709C364.906 763.709 366.658 765.28 367.017 768.087C367.713 773.005 363.424 775.722 359.203 773.185ZM591.297 771.95C587.883 767.818 593.408 761.328 598.595 763.349C602.794 764.921 602.794 772.309 598.595 773.881C594.193 775.633 594.373 775.632 591.297 771.95ZM336.838 761.778C334.996 756.771 337.646 751.763 341.845 752.571C344.136 752.998 345.438 755.198 345.438 758.432C345.438 764.405 338.859 766.943 336.838 761.778ZM613.145 761.778C611.214 756.771 613.931 751.763 618.063 752.571C620.421 752.998 621.745 755.198 621.745 758.432C621.745 764.405 615.166 766.943 613.145 761.778ZM635.421 752.212C631.469 749.764 633.759 742.736 638.497 742.736C641.124 742.736 642.875 744.398 643.325 747.204C644.021 752.032 639.642 754.839 635.51 752.212H635.421ZM315.977 749.136C314.293 744.936 316.673 741.681 321.321 741.681C325.453 741.681 327.631 745.274 326.149 749.585C324.914 753.178 317.369 752.818 315.977 749.136ZM296.666 735.101C297.115 731.778 298.777 730.206 301.494 730.206C307.714 730.206 307.107 738.357 300.887 739.233C296.756 739.839 296.06 739.143 296.666 735.101ZM653.497 738.177C651.049 735.73 652.015 731.172 655.248 729.937C659.38 728.275 664.724 732.834 663.242 736.606C662.097 739.66 655.944 740.715 653.497 738.177ZM280.094 725.625C276.322 724.143 276.838 716.689 280.79 715.207C285.888 713.186 291.412 719.765 287.998 723.784C285.192 727.22 284.383 727.399 280.094 725.625ZM672.359 725.715C670.338 723.627 670.608 717.047 672.786 715.633C676.468 713.365 681.655 717.048 680.959 721.516C680.33 725.985 675.166 728.432 672.359 725.715ZM262.108 708.874C259.66 706.426 260.626 701.868 263.859 700.543C267.991 698.971 273.335 703.44 271.853 707.302C270.708 710.378 264.578 711.344 262.108 708.874ZM688.055 705.731C688.931 699.488 697.082 698.792 697.082 705.102C697.082 707.819 695.42 709.503 692.187 709.929C688.145 710.558 687.449 709.84 688.055 705.731ZM246.861 692.662C245.02 687.744 247.647 682.647 251.846 683.522C254.136 683.972 255.439 686.082 255.439 689.405C255.439 695.378 248.86 697.826 246.861 692.662ZM704.447 692.572C701.393 688.889 703.055 683.096 707.254 683.096C712.351 683.096 715.764 688.89 712.8 692.482C709.544 696.434 707.703 696.434 704.447 692.572ZM233.612 676.876C229.66 674.406 231.861 667.4 236.666 667.4C239.316 667.4 241.068 668.971 241.494 671.778C242.213 676.696 237.811 679.503 233.612 676.876ZM717.695 673.53C716.999 671.689 717.448 669.241 718.661 668.006C721.917 664.75 727.441 667.647 727.441 672.564C727.441 677.751 719.537 678.447 717.695 673.53ZM219.039 657.228C215.626 653.006 218.613 647.123 223.777 647.909C228.965 648.628 231.053 655.544 226.943 658.194C223.081 660.641 221.846 660.551 219.039 657.228ZM731.64 656.959C728.227 652.827 730.427 647.482 735.502 647.482C740.42 647.482 742.957 653.276 739.814 657.138C736.737 660.821 734.806 660.821 731.64 656.959ZM206.33 633.875C206.33 629.316 207.116 628.441 210.978 629.07C214.144 629.496 215.716 631.158 215.716 633.875C215.716 636.614 214.144 638.276 210.978 638.702C207.116 639.331 206.33 638.455 206.33 633.875ZM742.867 636.075C741.295 631.966 743.676 628.62 748.234 628.62C752.343 628.62 754.634 632.213 753.129 636.525C751.827 640.117 744.282 639.758 742.867 636.075ZM754.634 617.123C749.446 610.903 756.812 604.504 762.605 610.297C766.131 613.8 765.771 615.641 761.123 618.089C758.226 619.683 756.565 619.414 754.634 617.123ZM196.248 613.53C196.674 610.387 198.336 608.793 201.053 608.793C203.86 608.793 205.544 610.387 205.971 613.53C206.51 617.393 205.634 618.179 201.053 618.179C196.584 618.179 195.709 617.393 196.248 613.53ZM188.95 595.993C186.502 593.456 187.288 587.303 190.275 586.158C194.496 584.586 198.426 587.842 197.64 592.31C196.854 596.352 191.51 598.53 188.95 595.993ZM761.64 594.152C760.944 592.31 761.392 589.774 762.515 588.628C765.951 585.215 772.44 587.483 772.44 592.131C772.44 597.385 763.571 599.159 761.64 594.152ZM181.248 573.269C177.722 569.07 180.103 563.793 185.357 563.793C187.737 563.793 190.274 565.207 190.881 566.959C192.116 570.125 188.433 576.345 185.357 576.345C184.481 576.345 182.64 574.931 181.248 573.269ZM771.564 574.324C767.523 571.877 769.813 564.848 774.551 564.848C777.178 564.848 778.93 566.443 779.356 569.317C780.075 574.145 775.674 576.951 771.564 574.324ZM174.915 550.207C172.558 547.401 172.647 546.255 175.454 543.538C180.013 539.07 185.896 541.518 185.02 547.581C184.212 553.284 178.688 554.676 174.915 550.207ZM775.854 550.567C772.351 546.256 775.247 540.463 780.591 541.181C783.758 541.608 784.97 543.269 784.97 547.042C784.97 553.015 779.626 555.036 775.854 550.567ZM173.344 528.809C169.661 527.484 170.11 519.939 173.95 518.547C175.724 517.851 178.441 518.367 180.102 519.759C185.177 523.98 179.923 531.077 173.344 528.809ZM781.13 527.663C776.55 524.34 778.571 517.761 784.274 517.761C789.461 517.761 791.639 523.531 787.777 527.304C785.329 529.864 784.184 529.863 781.13 527.663ZM36.0769 466.002C40.8149 390.396 56.1515 332.507 86.5105 274.956C153.089 148.916 276.142 62.1732 417.024 41.8066C448.147 37.3381 512.368 37.3381 542.704 41.8066C678.063 61.6342 793.144 138.992 863.472 257.419C899.355 317.755 924.191 404.071 924.191 468.539V480.126H799.184L798.039 461.78C791.998 362.665 726.475 263.369 633.849 212.935C541.492 162.591 432.451 160.144 339.218 206.356C236.24 257.329 172.648 350.134 161.061 466.002L159.668 480.126H35.2011L36.0769 466.002ZM154.751 467.237C155.537 463.622 156.076 458.098 156.076 454.954C156.076 451.788 158.007 439.685 160.275 428.188C172.984 364.955 202.288 310.39 248.163 264.424C336.838 175.75 461.664 145.324 580.945 183.295C702.785 222.164 792.874 333.024 804.012 457.581L805.494 473.816H861.631C905.239 473.816 917.858 473.187 917.858 471.167C917.858 461.713 912.963 417.41 910.313 402.679C881.728 244.26 765.592 113.213 610.249 64.0148C528.939 38.3039 435.168 37.9444 352.803 63.2062C178.868 116.537 55.2758 271.543 43.9585 450.396L42.4765 473.816H98.0076C153.516 473.816 153.516 473.816 154.751 467.237ZM117.117 336.886C115.006 331.452 117.992 326.984 123.089 327.68C126.592 328.197 127.827 329.791 127.827 333.541C127.827 339.783 119.227 342.41 117.117 336.886ZM831.205 336.527C829.184 331.183 835.247 325.659 839.985 328.646C841.983 329.858 843.577 332.665 843.577 334.865C843.577 340.299 833.226 341.624 831.205 336.437V336.527ZM167.999 254.792C141.166 228.474 141.166 228.474 146.847 222.501C153.179 215.922 151.338 215.585 178.082 228.115C185.02 231.461 191.51 234.425 192.565 234.964C193.598 235.48 189.489 226.633 183.426 215.406C172.378 194.972 172.378 194.971 178.688 188.729C184.93 182.419 184.931 182.419 212.46 208.13C239.923 233.819 239.922 233.819 235.364 238.736C232.827 241.453 230.267 243.654 229.84 243.654C229.301 243.654 221.936 236.895 213.426 228.654C204.915 220.391 197.909 214.26 197.909 215.046C197.909 215.832 201.233 223.13 205.364 231.191C211.247 242.935 212.28 246.618 210.439 249.964C207.632 255.218 208.777 255.397 191.42 246.618C183.269 242.508 176.24 239.522 175.791 239.971C175.364 240.398 182.034 247.673 190.634 256.183C206.24 271.722 206.24 271.722 201.771 276.46C199.212 279.177 196.674 281.266 195.978 281.266C195.372 281.176 182.73 269.342 167.999 254.792ZM735.771 252.321C726.475 247.426 720.592 236.625 722.097 226.97C723.219 219.268 746.123 193.826 757.171 188.033C778.324 176.805 802.62 200.832 791.549 222.075C788.226 228.564 765.771 249.425 757.44 253.826C750.861 257.149 744.192 256.722 735.771 252.321ZM765.322 227.599C780.165 213.295 782.163 208.736 776.46 202.943C770.779 197.239 765.165 199.261 752.163 211.723C736.131 227.06 734.536 229.866 738.848 236.446C744.192 244.529 749.716 242.688 765.322 227.599ZM692.344 212.689C687.606 209.096 687.606 208.826 690.502 193.377C692.793 181.723 692.882 177.322 691.131 176.199C686.909 173.482 685.764 174.358 678.848 184.956C671.303 196.453 669.372 197.239 662.703 191.805C658.235 188.122 658.235 188.123 679.455 157.764C691.131 141.102 701.034 127.068 701.483 126.641C702.538 125.496 717.179 135.309 726.206 143.303C732.695 148.917 733.751 151.184 733.751 158.999C733.751 170.495 724.544 182.06 713.766 184.081C707.186 185.316 706.647 186.102 705.412 195.129C702.358 218.302 701.393 219.605 692.344 212.689ZM714.889 166.184C720.772 160.324 720.075 154.62 712.867 149.523C706.647 145.054 706.648 145.054 700.944 153.834C695.151 162.502 695.151 162.501 699.978 166.454C706.221 171.461 709.634 171.371 714.889 166.184ZM247.108 207.681C243.964 205.143 236.756 196.094 231.143 187.517C217.827 167.06 217.108 156.709 228.336 146.11C241.674 133.558 256.404 134.972 267.811 149.972C277.894 163.221 287.909 181.723 287.909 186.977C287.909 206.019 261.861 219.267 247.108 207.681ZM272.033 190.929C273.785 186.012 272.729 183.295 264.129 170.496C252.205 152.779 247.894 149.882 240.708 154.531C233.792 159.089 234.309 164.253 243.156 178.287C254.316 195.847 256.494 197.868 263.702 197.149C268.418 196.723 270.529 195.061 272.033 190.929ZM311.239 177.075C309.735 174.268 289.75 127.607 284.383 114.538C283.867 113.124 286.404 110.497 289.997 108.655C296.576 105.242 298.171 105.579 304.75 111.799C305.356 112.338 311.666 118.378 318.874 125.226C325.97 132.075 332.279 137.15 332.908 136.544C333.515 135.937 330.258 127.248 325.61 117.345C321.052 107.33 317.28 98.7296 317.28 98.2131C317.28 97.6967 319.996 95.7659 323.432 94.0145C329.136 91.1178 329.832 91.1174 331.583 94.4407C336.681 103.917 359.136 156.708 359.136 159.088C359.136 162.075 352.713 166.184 348.065 166.184C346.493 166.184 337.556 159.088 328.26 150.488C318.941 141.798 310.79 134.792 310.184 134.792C309.577 134.792 312.205 142.068 315.977 151.027C326.756 176.199 326.755 175.84 319.39 178.377C314.136 180.219 312.721 179.972 311.239 177.075ZM622.711 172.607C609.373 168.565 601.828 159.964 601.828 148.647C601.828 143.639 613.325 114.696 618.759 106.028C626.124 94.2616 643.325 92.0835 656.214 101.2C666.565 108.655 667.958 113.123 660.862 116.806C655.428 119.613 654.642 119.523 651.476 115.84C646.221 109.71 637.801 108.385 633.31 113.033C629.021 117.412 616.558 145.234 616.558 150.219C616.558 153.991 624.373 159.874 629.47 159.874C631.469 159.874 634.545 157.158 636.296 153.834C639.193 148.131 639.103 147.592 634.814 144.695C630.772 142.068 630.503 141.012 632.704 136.274C635.174 130.84 635.174 130.84 645.683 135.309C651.566 137.779 656.304 141.013 656.304 142.517C656.304 143.909 653.923 150.398 651.116 156.798C647.097 165.937 644.47 169.081 638.676 171.461C630.503 174.875 630.346 174.875 622.711 172.607ZM393.604 148.917C393.065 147.502 390.011 134.097 386.665 119.097C380.692 91.9038 380.692 91.9034 372.115 92.5096C364.3 93.1159 363.334 92.6893 362.01 87.7717C361.313 84.6953 361.044 81.8884 361.583 81.3719C363.334 79.6205 409.12 70.4144 410.265 71.5596C410.961 72.1659 411.411 75.3092 411.411 78.4753C411.411 83.4828 410.445 84.3589 403.327 85.5939L395.176 86.8959L400.34 110.316C407.975 145.413 408.244 147.502 404.921 149.612C400.7 152.329 394.726 151.993 393.604 148.917ZM559.635 150.152C556.043 149.186 552.809 140.136 547.352 115.93C543.423 98.3928 542.794 98.8195 538.146 122.33C533.857 144.178 533.857 144.178 527.794 143.729C524.561 143.572 521.305 142.853 520.698 142.157C520.002 141.551 522.719 124.441 526.649 104.276C533.767 67.4279 533.767 67.428 540.863 68.5732C544.815 69.1795 548.498 70.2345 549.037 70.751C549.643 71.3797 552.719 82.4274 555.773 95.3165L561.477 118.827L565.339 98.5729C569.897 74.1869 570.346 73.4681 577.711 75.3094C584.56 76.9935 584.47 79.082 576.925 120.152C570.526 154.351 571.222 153.206 559.635 150.152ZM446.215 138.475C445.519 135.848 444.913 118.557 444.913 100.054V66.3721L460.968 64.9803C489.037 62.6001 488.857 62.5997 488.857 70.9305C488.857 78.2957 488.857 78.2958 474.217 78.2958C459.554 78.2958 459.554 78.2961 459.554 87.3455C459.554 96.4621 459.554 96.4617 472.623 96.282C485.691 96.1024 485.691 96.1028 485.691 102.345C485.691 108.565 485.691 108.655 472.376 109.261C459.127 109.89 459.127 109.89 460.34 116.29C461.058 119.883 461.664 124.082 461.664 125.676C461.664 127.764 465.257 128.483 476.305 128.483C490.968 128.483 490.968 128.482 490.968 134.433C490.968 140.406 490.788 140.496 474.913 141.798C449.471 143.999 447.63 143.729 446.215 138.475ZM170.11 473.008C168.516 469.078 173.883 464.588 178.171 466.272C180.013 466.968 181.248 469.168 180.799 471.167C179.923 475.815 171.682 477.229 170.11 473.008ZM780.502 464.43C779.806 462.589 780.232 459.939 781.467 458.727C784.633 455.561 790.674 458.547 789.798 462.836C788.922 467.664 782.163 468.809 780.502 464.43ZM172.827 448.801C172.827 443.188 176.757 441.257 180.619 445.119C184.392 448.891 182.55 452.843 176.846 452.843C174.219 452.843 172.827 451.429 172.827 448.801ZM780.322 447.229C775.943 445.658 777.178 438.203 781.737 438.203C783.937 438.203 786.475 439.258 787.171 440.56C789.012 443.457 783.758 448.554 780.232 447.229H780.322ZM177.565 429.603C174.399 426.347 176.6 421.519 181.338 421.519C186.076 421.519 187.917 424.259 186.233 428.637C184.751 432.5 180.978 432.926 177.565 429.603ZM774.282 424.685C772.777 420.912 774.978 417.319 778.571 417.319C781.827 417.319 784.543 423.024 782.792 425.831C780.951 428.817 775.584 428.098 774.282 424.685ZM182.213 406.698C180.282 403.645 185.11 398.458 188.703 399.873C193.261 401.624 192.385 408.899 187.647 408.899C185.357 408.899 182.91 407.934 182.213 406.698ZM769.454 405.912C766.198 402.05 768.219 398.457 773.743 398.457C776.909 398.457 777.785 399.603 777.268 403.016C776.46 408.719 772.867 410.044 769.454 405.912ZM763.481 387.59C762.089 386.175 760.943 383.997 760.943 382.582C760.943 378.63 766.647 377.508 769.454 380.921C773.047 385.21 767.343 391.542 763.481 387.59ZM189.578 383.907C189.578 378.293 193.53 376.452 197.37 380.224C201.143 384.064 199.301 388.016 193.598 388.016C190.971 388.016 189.578 386.534 189.578 383.907ZM753.578 366.976C751.647 363.9 756.475 358.735 760.068 360.127C764.626 361.878 763.75 369.154 758.923 369.154C756.744 369.154 754.274 368.189 753.578 366.976ZM197.909 362.844C197.909 359.431 199.054 358.555 202.647 359.072C205.274 359.431 207.385 361.182 207.385 362.844C207.385 364.596 205.274 366.347 202.647 366.706C199.054 367.223 197.909 366.28 197.909 362.844ZM745.584 351.011C742.53 347.934 744.282 341.961 748.234 341.961C753.578 341.961 755.689 345.577 752.523 349.349C749.716 352.672 747.695 353.189 745.584 351.011ZM209.137 345.127C208.441 343.196 208.867 340.659 210.102 339.424C213.246 336.28 219.309 339.154 218.523 343.465C217.557 348.293 210.888 349.506 209.137 345.127ZM733.751 329.431C733.751 323.817 737.703 321.977 741.475 325.749C745.337 329.611 743.406 333.541 737.792 333.541C735.165 333.541 733.751 332.058 733.751 329.431ZM222.385 327.927C220.184 325.749 220.701 319.259 223.261 317.665C224.473 316.879 227.033 317.755 228.874 319.596C231.502 322.246 231.682 323.458 229.391 326.086C226.494 329.611 224.473 330.127 222.385 327.927ZM722.097 314.522C720.255 311.535 726.385 305.405 729.372 307.246C730.607 308.032 731.64 310.48 731.64 312.77C731.64 317.149 724.544 318.474 722.097 314.522ZM234.915 309.087C231.861 306.011 233.612 300.038 237.542 300.038C242.55 300.038 244.391 302.665 242.729 307.156C241.404 310.57 237.385 311.625 234.915 309.087ZM710.869 299.162C707.613 295.21 709.634 291.707 715.158 291.707C718.324 291.707 719.2 292.852 718.661 296.176C717.875 301.879 714.192 303.294 710.869 299.162ZM248.163 287.755C248.163 282.68 250.79 280.749 255.439 282.5C260.266 284.342 258.515 290.495 252.901 291.281C249.309 291.797 248.163 290.921 248.163 287.755ZM698.676 286.003C697.261 285.487 696.026 283.376 696.026 281.266C696.026 277.156 699.642 274.956 703.93 276.46C705.345 276.977 706.468 278.549 706.468 280.053C706.468 283.736 701.91 287.149 698.676 286.003ZM263.702 274.17C262.018 269.701 264.398 266.535 269.383 266.535C272.549 266.535 273.425 267.77 272.908 271.273C272.123 276.707 265.454 278.818 263.702 274.17ZM682.172 269.702C681.476 267.86 681.835 265.3 683.048 264.088C686.304 260.832 692.254 263.818 691.468 268.107C690.503 272.935 683.833 274.08 682.172 269.702ZM280.364 259.259C279.578 257.328 280.004 254.791 281.239 253.556C284.383 250.39 290.446 253.287 289.66 257.598C288.694 262.426 282.025 263.638 280.364 259.259ZM666.745 254.162C666.745 248.459 670.697 246.618 674.537 250.39C678.309 254.252 676.468 258.204 670.764 258.204C668.137 258.204 666.745 256.722 666.745 254.162ZM298.866 247.336C295.274 243.721 295.7 240.038 299.832 238.466C304.121 236.805 307.377 239.791 306.411 244.687C305.536 249.425 302.1 250.57 298.866 247.336ZM652.082 245.652C648.309 243.294 651.296 236.805 655.697 237.68C657.696 238.04 659.627 239.881 659.986 241.723C660.772 245.742 656.034 248.032 652.082 245.652ZM316.583 235.93C313.507 232.853 315.259 226.813 319.211 226.813C324.555 226.813 326.576 230.406 323.432 234.268C320.715 237.591 318.694 238.04 316.583 235.93ZM633.242 231.101C633.242 225.847 636.835 223.736 640.518 226.813C644.38 229.956 642.269 235.233 637.262 235.233C634.725 235.233 633.242 233.728 633.242 231.101ZM335.356 225.398C332.369 222.411 334.031 216.371 337.893 216.371C342.721 216.371 345.011 221.199 341.755 224.432C339.038 227.149 337.377 227.419 335.356 225.398ZM616.738 224.882C612.629 222.322 615.525 216.371 620.78 216.371C624.103 216.371 624.979 217.427 624.552 220.93C623.766 226.094 620.96 227.599 616.738 224.882ZM355.43 216.977C351.141 215.405 352.287 207.951 356.845 207.951C359.135 207.951 361.583 209.006 362.369 210.308C364.12 213.205 358.956 218.302 355.43 216.977ZM596.573 214.17C594.642 211.004 599.56 205.929 603.063 207.232C607.621 209.006 606.746 216.371 602.008 216.371C599.717 216.371 597.359 215.405 596.573 214.17ZM372.451 206.985C371.665 205.054 372.114 202.517 373.327 201.282C376.493 198.116 382.556 201.012 381.747 205.323C380.782 210.129 374.135 211.274 372.361 206.985H372.451ZM580.249 208.646C579.463 207.95 578.856 205.57 578.856 203.482C578.856 199.081 586.312 198.026 587.794 202.247C589.815 207.951 584.291 212.688 580.249 208.646ZM393.941 202.427C393.245 201.618 392.548 199.26 392.548 197.149C392.548 192.322 400.52 191.896 402.361 196.633C404.113 201.102 397.376 205.75 393.941 202.337V202.427ZM559.455 201.101C558.759 199.53 559.029 196.97 559.994 195.488C562.352 191.625 568.842 194.612 567.966 199.081C567.09 203.549 560.96 205.054 559.455 201.101ZM540.526 198.205C537.45 195.129 539.201 189.178 543.153 189.178C548.498 189.178 550.518 192.771 547.352 196.543C544.635 199.866 542.615 200.405 540.526 198.205ZM413.499 193.467C413.499 187.853 417.451 185.922 421.313 189.694C425.086 193.557 423.244 197.509 417.541 197.509C414.913 197.509 413.499 196.094 413.499 193.467ZM437.009 193.916C432.72 192.322 433.955 184.956 438.513 184.956C440.691 184.956 443.162 186.012 443.948 187.247C445.789 190.144 440.535 195.219 437.009 194.006V193.916ZM518.947 192.322C518.161 190.391 518.588 187.853 519.823 186.641C522.966 183.475 529.029 186.371 528.243 190.66C527.278 195.488 520.609 196.633 518.947 192.322ZM456.747 191.895C453.671 188.819 455.445 182.868 459.464 182.868C464.741 182.868 466.829 186.461 463.685 190.234C460.878 193.557 458.948 194.095 456.747 191.895ZM497.974 190.234C497.278 188.303 497.637 185.743 498.85 184.53C502.106 181.364 508.146 184.26 507.271 188.549C506.395 193.377 499.636 194.523 497.974 190.234ZM477.024 187.853C475.182 183.205 480.796 180.129 484.389 183.744C485.961 185.316 486.657 187.673 485.871 188.908C483.76 192.322 478.416 191.715 477.024 187.853ZM455.871 962.031C447.54 961.582 440.691 960.436 440.691 959.403C440.691 958.348 437.638 957.989 433.955 958.595C426.41 959.74 390.977 954.912 369.645 949.747C264.825 924.306 178.778 870.459 105.013 784.053C101.151 779.494 101.151 779.225 104.744 775.183C107.82 771.86 108 770.468 105.979 767.998C104.587 766.246 103.958 763.889 104.744 762.744C106.428 760.027 103.531 759.936 96.5928 762.563C91.6752 764.405 90.5525 763.709 83.0975 753.694C46.4286 704.316 16.5186 629.586 3.87645 555.462C-0.861538 527.573 -1.37786 440.65 3.00084 413.098C19.7522 308.279 60.7998 224.971 134.497 145.93C170.357 107.42 227.819 66.8891 279.825 43.3115C465.617 -40.6474 681.655 -0.296417 824.536 144.874C837.268 157.853 839.109 160.75 840.591 170.136C841.736 177.591 841.467 182.329 839.625 185.922C836.998 190.929 836.908 190.84 822.515 174.179C765.682 108.476 678.489 56.2901 588.243 34.172C525.437 18.7455 447.9 17.6006 384.217 31.1185C206.24 68.91 66.0765 209.702 29.4077 387.32C21.5934 425.224 19.4152 453.202 20.7176 496.877C23.2775 581.442 46.4286 656.599 91.8549 728.522C99.3099 740.288 104.834 750.371 104.227 750.977C103.621 751.695 104.048 752.212 105.283 752.212C106.428 752.212 114.04 760.453 122.034 770.468C150.889 806.598 194.137 844.928 235.274 870.886C287.123 903.603 355.004 928.685 412.982 936.409C428.768 938.52 432.361 939.665 432.361 942.629C432.361 944.561 434.202 947.907 436.492 949.928C440.692 953.7 440.692 953.7 439.389 947.121C437.885 939.666 441.5 938.071 446.148 944.224C448.416 947.211 448.955 947.3 449.022 944.65C449.022 941.933 454.12 941.417 483.064 941.237C568.325 940.541 647.344 917.996 720.075 873.513C733.93 865.093 745.674 857.637 746.303 856.941C746.819 856.245 751.288 852.563 756.116 848.791C765.502 841.426 770.24 841.582 768.219 849.127C767.006 853.349 767.253 853.259 771.205 848.431C773.586 845.534 775.517 842.481 775.517 841.582C775.584 837.204 779.895 840.887 781.467 846.86C783.578 854.584 779.806 860.984 773.136 860.984C771.026 860.984 769.274 862.286 769.274 863.88C769.274 867.383 736.131 889.479 732.179 888.603C730.674 888.266 729.709 889.142 729.978 890.534C730.854 894.576 666.566 926.148 637.442 935.983C607.981 945.886 606.836 946.065 601.491 941.237C596.214 936.409 572.974 935.803 570.526 940.452C568.685 943.955 572.973 952.015 575.331 949.568C576.139 948.782 576.746 949.209 576.746 950.444C576.746 956.843 499.389 964.209 455.871 962.031ZM414.464 946.94C416.238 944.134 411.837 942.023 407.728 943.595C404.741 944.74 404.652 945.189 407.279 946.851C411.231 949.298 412.982 949.388 414.464 946.94ZM746.303 868.348C747.695 866.597 750.255 865.182 752.007 865.182C753.938 865.182 754.634 866.417 753.938 868.348C753.129 870.19 753.848 871.425 755.599 871.425C758.047 871.425 764.109 859.232 762.425 857.548C761.999 857.211 758.496 857.481 754.454 858.177C745.584 859.569 736.737 865.811 738.758 869.045C740.779 872.301 743.137 872.121 746.303 868.348ZM101.69 754.233C101.69 753.088 100.724 752.122 99.5793 752.122C98.4341 752.122 97.4686 753.088 97.4686 754.233C97.4686 755.378 98.4341 756.344 99.5793 756.344C100.724 756.344 101.69 755.378 101.69 754.233ZM441.141 923.52C381.141 918.602 314.832 897.809 260.715 867.024C183.695 823.169 117.655 752.728 80.3578 674.675C58.4418 628.71 40.8149 567.565 38.6143 529.235L38.008 518.793L98.7933 518.187L159.579 517.671L163.261 540.216C183.965 667.647 280.97 770.535 408.244 799.839C474.643 815.108 542.704 809.135 606.207 782.302C703.93 741.075 776.819 650.469 795.502 547.042C797.433 536.084 799.453 525.036 799.88 522.409C800.778 517.761 800.778 517.761 861.384 517.761C931.735 517.761 924.886 513.179 917.858 554.676C878.921 782.997 672.696 942.472 441.141 923.43V923.52ZM532.802 915.19C628.415 904.748 726.744 855.459 794.985 783.694C861.384 713.881 901.107 630.641 914.625 532.917L915.86 524.071H805.337L803.922 536.083C801.722 555.282 790.853 593.456 781.467 615.551C738.938 715.026 651.565 785.625 543.49 807.9C498.58 817.129 438.244 815.198 394.659 803.095C343.687 788.971 299.136 764.674 260.267 729.847C207.632 682.646 169.841 615.125 158.344 548.097C156.952 540.036 155.447 531.345 154.841 528.718C153.875 524.07 153.875 524.071 99.5793 524.071C36.5933 524.071 42.9255 520.478 48.4494 552.319C67.2891 661.247 126.503 761.082 210.619 825.37C305.087 897.72 414.127 928.079 532.802 915.19ZM469.299 895.003C470.085 891.859 473.251 879.306 476.305 867.293C481.672 845.714 481.919 845.288 487.802 845.288C493.685 845.288 494.112 845.984 501.836 870.37C511.043 899.651 510.706 897.81 506.395 899.494C502.106 901.155 497.188 897.293 497.188 892.106C497.188 888.962 495.706 888.177 489.127 888.177C481.739 888.177 480.864 888.782 479.741 894.486C478.775 899.493 477.45 900.706 473.162 900.706C468.424 900.706 467.974 900.19 469.299 895.003ZM492.091 873.513C487.982 858.962 488.251 859.389 486.567 865.182C483.85 874.658 484.479 877.735 489.037 877.735C492.36 877.735 493.056 876.769 492.091 873.513ZM430.003 894.666C425.534 890.983 425.085 889.052 425.265 874.748C425.535 857.548 428.678 847.286 434.561 844.143C443.768 839.225 459.554 844.142 456.927 851.058C455.961 853.528 453.671 854.045 447.361 853.259C438.065 851.934 437.975 852.203 435.527 869.92C433.506 884.741 435.258 888.177 444.823 888.177C453.244 888.177 458.161 893.521 452.795 896.844C447.9 900.01 434.988 898.775 430.003 894.666ZM548.408 868.618C550.002 839.494 550.07 839.225 557.367 837.024C561.566 835.811 563.138 837.989 574.545 860.804C581.574 874.658 587.187 886.493 587.187 887.121C587.187 887.638 584.807 888.177 581.91 888.177C578.318 888.177 575.96 886.492 574.298 882.989C572.367 878.79 570.952 878.072 566.484 879.127C558.49 880.968 557.884 881.597 557.884 888.087C557.884 892.825 556.828 894.217 552.45 895.003C546.926 896.058 546.926 896.058 548.408 868.618ZM565.429 868.439C566.484 865.722 561.14 852.563 558.939 852.563C558.333 852.563 557.884 856.852 557.884 862.039C557.884 869.045 558.76 871.425 561.14 871.425C562.891 871.425 564.822 870.1 565.429 868.439ZM392.548 891.679C392.548 891.163 394.906 879.576 397.803 865.968C400.7 852.383 403.08 840.55 403.08 839.584C403.08 838.708 405.437 837.9 408.244 837.9C414.464 837.9 414.464 836.934 408.694 867.203C404.203 890.624 403.866 891.32 398.342 891.949C395.176 892.376 392.548 892.195 392.548 891.679ZM366.927 884.584C364.48 883.955 363.245 881.597 363.245 877.039C363.155 859.659 358.08 856.582 353.252 871.065C350.715 878.7 349.749 879.755 345.797 878.52C343.327 877.824 340.97 876.949 340.61 876.589C339.824 875.893 355.183 826.942 356.845 825.011C358.776 822.743 380.535 830.894 383.589 835.026C388.416 841.583 386.845 850.273 379.659 857.481C372.99 864.037 371.665 870.886 375.078 882.383C376.134 886.065 374.382 886.582 366.927 884.651V884.584ZM374.562 847.735C376.493 844.658 375.977 843.177 371.935 839.921C369.218 837.653 366.321 835.812 365.535 835.812C363.424 835.812 359.203 849.935 360.797 851.507C363.245 853.955 372.272 851.507 374.562 847.735ZM603.333 880.272C600.346 875.265 587.367 831.074 588.333 829.412C589.029 828.357 591.207 827.481 593.318 827.481C596.304 827.481 598.752 832.555 604.725 851.238C613.415 878.521 613.504 878.88 609.013 880.632C604.814 882.204 604.366 882.203 603.333 880.272ZM630.256 864.576C628.661 860.893 624.013 850.363 619.814 841.336C615.683 832.286 612.359 823.798 612.359 822.473C612.359 819.217 628.662 812.818 637.015 812.818C646.042 812.818 652.801 822.743 651.386 834.06C650.6 840.64 651.476 842.727 657.539 848.611C665.78 856.582 666.206 858.086 660.435 859.928C657.269 860.893 653.856 859.232 647.614 853.618C637.262 844.232 634.028 846.163 638.856 858.603C641.91 866.328 642 867.81 639.373 869.494C634.545 872.458 633.242 871.762 630.166 864.576H630.256ZM641.663 831.769C641.663 826.942 637.441 823.259 631.918 823.259C625.338 823.259 624.193 826.335 627.966 833.611C630.952 839.314 631.738 839.674 636.386 837.563C639.283 836.238 641.663 833.611 641.663 831.769ZM306.771 863.701C299.652 860.984 294.218 853.775 294.218 847.196C294.218 838.259 305.356 813.693 310.7 810.887C322.983 804.307 338.163 812.571 338.163 825.797C338.163 833.162 328.26 856.156 323.342 860.288C319.48 863.431 310.79 865.183 306.771 863.701ZM315.011 852.653C319.48 850.273 328.417 829.479 327.362 823.955C326.935 821.508 324.734 820.093 321.411 820.093C317.279 820.093 315.011 822.383 310.521 830.624C304.301 842.031 303.335 848.251 307.197 852.114C310.184 855.19 310.273 855.19 315.011 852.653ZM680.6 843.693C678.938 841.066 672.359 830.287 665.959 819.666L654.283 800.288L665.24 793.956C671.213 790.542 677.703 787.735 679.544 787.735C684.552 787.646 693.062 795.101 695.959 802.04C699.013 809.405 694.634 820.026 687.695 822.204C682.441 823.865 682.441 826.852 687.695 834.756C692.793 842.548 692.793 842.638 687.695 845.804C684.192 848.004 683.137 847.735 680.6 843.693ZM681.565 814.838C686.034 812.391 686.91 804.487 683.048 800.625C679.814 797.481 676.827 797.481 672.269 800.894C668.676 803.431 668.676 803.88 672.359 810.28C676.737 817.915 676.221 817.645 681.565 814.838ZM256.314 835.272C243.695 826.672 246.681 810.46 264.488 791.328C272.37 782.908 283.507 783.357 291.052 792.204C296.06 798.177 296.239 799.143 293.342 802.04C290.446 804.936 289.66 804.846 285.708 800.535C279.129 793.529 273.335 795.55 265.454 807.564C258.089 818.791 257.46 824.584 263.343 828.267C268.597 831.59 275.176 824.921 271.314 820.273C268.26 816.59 269.742 810.707 273.784 810.797C275.266 810.797 278.702 812.571 281.509 814.659C286.224 818.342 286.314 819.06 283.867 825.19C280.7 832.645 272.37 840.01 267.025 840.01C265.094 840.01 260.266 837.9 256.314 835.272ZM723.062 809.764C714.889 805.183 700.248 785.108 700.248 778.439C700.248 766.695 711.565 756.95 722.254 759.667C728.137 761.149 744.888 779.584 748.234 788.342C753.578 802.466 736.378 817.129 723.062 809.764ZM736.737 799.053C741.116 794.674 741.206 794.832 731.483 782.302C722.186 770.199 717.965 767.571 713.586 771.164C708.668 775.273 710.33 780.64 720.322 791.688C730.854 803.432 731.909 803.88 736.737 799.053ZM208.171 799.749C203.253 795.976 199.391 792.114 199.481 791.238C199.93 788.005 232.467 750.101 234.825 750.101C238.957 750.011 254.473 768.536 254.473 773.611C254.473 779.405 250.364 785.804 239.047 797.638C228.246 808.955 220.97 809.404 208.171 799.749ZM231.861 790.273C244.122 777.114 246.232 768.874 238.081 765.73C235.791 764.854 232.984 766.426 229.75 770.288C211.584 792.474 212.213 791.418 216.233 793.799C222.206 797.302 226.158 796.426 231.861 790.273ZM750.502 762.294L730.607 743.432L740.42 734.136C746.55 728.365 752.164 724.929 755.42 724.929C763.234 724.929 773.496 734.495 773.496 741.77C773.496 746.957 774.619 748.08 781.378 749.922C794.109 753.447 796.198 755.468 791.819 759.847C788.316 763.26 787.62 763.26 778.324 759.847C765.165 754.929 761.639 758.185 770.936 766.696C774.618 770.019 777.695 773.611 777.695 774.577C777.695 776.598 773.226 781.425 771.475 781.336C770.846 781.246 761.393 772.736 750.502 762.294ZM760.854 749.046C767.164 741.501 757.777 731.868 750.592 738.447C746.213 742.399 746.213 742.399 750.861 747.204C756.205 752.908 757.441 753.177 760.854 749.046ZM175.185 767.998C169.145 764.674 164.653 757.129 164.564 750.101C164.496 744.308 183.965 724.054 192.902 720.641C206.15 715.633 218.074 726.254 217.018 742.13C216.771 746.149 202.198 761.081 192.722 767.032C185.357 771.59 181.944 771.77 175.185 767.998ZM196.944 749.495C208.777 738.447 210.439 733.17 202.827 730.274C198.695 728.702 195.888 730.453 184.392 741.344C173.883 751.336 173.523 752.482 178.261 757.22C182.999 761.958 184.055 761.598 196.944 749.495ZM800.689 725.805C775.854 706.943 776.123 707.033 771.564 712.557C767.882 717.137 767.164 717.295 764.2 714.331C761.213 711.434 761.819 709.84 770.509 697.557C775.764 690.192 781.13 684.398 782.523 684.757C787.62 686.172 788.406 689.069 785.24 693.874C781.916 698.971 782.073 699.062 799.633 712.13C815.149 723.627 817.171 725.715 815.239 729.241C812.433 734.495 811.826 734.315 800.689 725.805ZM154.055 712.13C148.082 705.551 148.082 705.551 141.862 710.019C134.137 715.453 131.779 715.543 129.04 710.626C127.289 707.302 130.006 704.765 148.958 691.786C161.061 683.523 171.772 676.786 172.917 676.786C175.185 676.786 187.468 697.557 187.468 701.598C187.468 703.17 184.302 707.662 180.372 711.524C170.896 720.977 162.385 721.157 154.055 712.13ZM173.703 704.136C176.599 700.992 176.847 699.241 175.005 695.805C172.199 690.461 169.145 690.372 162.655 695.379C158.434 698.612 158.074 699.848 160.095 703.71C163.082 709.234 168.965 709.503 173.703 704.136ZM99.5793 615.282C99.5793 614.945 100.725 611.51 102.027 607.67C104.228 601.248 104.048 600.372 98.6137 596.083C92.9102 591.524 92.9102 591.525 100.455 590.11C106.428 588.965 108.606 587.213 110.807 581.959C113.614 575.29 113.613 575.29 116.937 583.105C119.833 589.863 121.248 590.986 127.199 591.076C134.137 591.076 134.137 591.076 128.344 595.814C123.179 600.125 122.82 601.158 124.751 607.737C125.896 611.779 126.772 615.282 126.772 615.731C126.772 616.09 123.965 614.316 120.462 611.869C114.13 607.4 114.13 607.4 106.855 611.689C102.813 614.069 99.5793 615.641 99.5793 615.282ZM828.667 611.42C829.363 608.456 830.419 604.773 831.025 603.179C831.564 601.607 829.094 598.284 825.322 595.634L818.563 590.986H826.467C833.652 590.986 834.708 590.2 837.694 583.105L840.95 575.29L844.094 583.105C846.901 590.2 847.956 590.986 854.805 590.986C862.439 590.986 862.44 590.986 856.467 595.724C850.853 600.192 850.583 601.091 852.694 608.366C854.805 616.248 854.805 616.247 847.687 611.779C840.501 607.4 840.501 607.401 833.922 612.139C827.253 616.877 827.253 616.876 828.667 611.42ZM783.937 850.452C783.937 849.307 784.88 848.431 786.026 848.431C787.171 848.431 788.136 849.307 788.136 850.452C788.136 851.687 787.171 852.563 786.026 852.563C784.88 852.563 783.937 851.687 783.937 850.452Z" fill="#C83E3D"/>
</svg>
