<svg width="961" height="959" viewBox="0 0 961 959" fill="none" xmlns="http://www.w3.org/2000/svg">
<path fill-rule="evenodd" clip-rule="evenodd" d="M536.787 896.122C536.787 895.591 538.962 894.557 541.641 893.84C544.453 893.23 546.628 893.522 546.628 894.769C546.628 896.015 544.453 897.05 541.641 897.05C538.962 897.05 536.787 896.626 536.787 896.122ZM425.8 956.947C245.71 937.052 84.6934 807.841 26.0431 636.134C-38.3105 447.557 19.0932 240.012 170.693 113.374C359.483 -44.3262 628.993 -36.766 809.719 131.413C942.962 255.345 994.477 453.552 938.002 624.834C930.946 646.294 929.301 649.185 924.42 649.079C918.001 648.788 917.152 651.679 922.856 654.889C926.278 656.852 925.879 659.239 919.035 675.314C866.301 799.75 741.626 906.679 607.746 942.331C580.609 949.599 572.624 949.599 572.226 942.649C572.014 939.944 571.377 936.23 570.98 934.452C570.343 932.171 576.975 929.492 592.201 925.434C664.035 906.998 727.115 874.158 780.089 827.842C787.543 821.317 794.891 816.33 796.456 816.86C807.226 820.07 815.422 820.282 815.422 817.258C815.422 815.401 818.208 810.839 821.736 807.098C827.333 801.103 827.731 799.432 825.158 793.437C822.558 787.018 823.274 785.453 837.174 768.98C888.981 707.226 924.42 625.975 936.649 540.798C941.504 506.499 940.284 438.113 934.156 403.92C921.211 332.219 896.329 272.428 855.398 214.096C834.071 183.829 777.171 126.85 746.294 105.098C703.613 74.8313 642.469 46.4478 594.19 34.4313C533.259 19.1785 464.767 16.2872 405.082 26.4469C387.681 29.3383 373.065 31.5134 372.852 31.1155C372.534 30.7972 371.102 28.1976 369.537 25.5184C366.831 20.6375 366.831 20.6375 366.433 25.5184C366.221 28.1976 366.115 31.1156 366.327 32.044C366.433 32.8663 355.239 37.1104 341.551 41.4608C273.165 63.133 215.55 97.618 162.39 148.814C106.446 202.69 67.5839 263.011 44.5853 331.901C39.7044 346.411 33.9214 359.674 31.7462 361.345C28.8283 363.52 28.51 364.953 30.4995 366.306C32.4625 367.659 32.0384 374.29 28.7226 390.445C21.0564 428.59 15.8833 536.978 21.7987 537.084C22.621 537.084 24.6906 545.679 26.3353 556.236C48.936 697.278 143.344 824.924 272.953 889.914C286.535 896.732 297.092 903.363 296.376 904.61C295.554 905.857 296.588 906.175 298.657 905.433C300.62 904.61 310.992 907.316 321.656 911.454C371.102 930.527 429.116 939.838 490.551 938.591C516.998 938.087 531.906 938.591 531.906 940.156C531.906 941.509 534.904 945.434 538.432 948.856C544.957 954.984 544.957 954.984 534.081 956.629C522.781 958.406 440.92 958.592 425.8 956.947ZM595.437 937.052C594.482 931.88 590.026 932.171 588.992 937.556C588.488 939.731 589.84 941.403 592.201 941.403C594.801 941.403 595.941 939.731 595.437 937.052ZM937.79 578.306C937.153 576.662 936.543 578.121 936.543 581.436C936.543 584.858 937.047 586.185 937.79 584.54C938.506 582.869 938.506 580.084 937.79 578.306ZM955.908 488.779C955.908 485.675 956.544 481.219 957.367 478.752C958.401 475.516 956.862 476.259 952.512 481.007C946.066 487.957 945.96 494.27 952.3 494.27C954.369 494.27 955.828 492.015 955.828 488.779H955.908ZM773.457 116.69C771.68 114.621 769.824 113.374 769.187 114.011C767.436 115.762 770.964 120.431 773.855 120.431C775.527 120.431 775.314 118.972 773.351 116.584L773.457 116.69ZM783.299 116.69C781.627 114.727 779.134 112.95 777.808 112.95C776.349 112.95 776.667 114.621 778.418 116.69C780.089 118.759 782.556 120.431 783.909 120.431C785.262 120.431 785.049 118.759 783.299 116.69ZM294.625 54.3262C295.129 52.655 293.777 51.4083 291.602 51.4083C289.532 51.4083 287.781 53.1857 287.781 55.2548C287.781 59.6051 293.06 58.8623 294.625 54.3262ZM310.886 47.4825C313.061 41.8854 312.743 36.6065 310.276 36.6065C307.57 36.6065 302.398 47.9864 304.361 49.8698C306.854 52.4429 309.321 51.5145 310.886 47.4825ZM556.47 12.9716C556.47 11.1147 555.329 9.44317 553.976 9.44317C552.623 9.44317 551.589 11.7245 551.589 14.5363C551.589 17.3216 552.623 18.9929 553.976 18.038C555.329 17.2156 556.47 14.9345 556.47 12.9716ZM539.254 939.227C539.254 934.665 554.904 931.959 557.504 936.124C558.22 937.264 556.151 937.768 553.048 937.158C549.838 936.522 546.416 937.264 545.594 938.697C543.524 941.907 539.254 942.331 539.254 939.227ZM412.324 920.261C258.045 896.228 122.6 789.193 66.1252 646.506C38.1662 575.946 28.1124 497.294 37.6355 424.452C51.4294 319.38 94.9328 233.275 171.727 159.186C264.465 69.8444 388.291 25.4125 515.221 36.0762C584.747 41.9917 643.822 60.3215 703.507 94.7266C736.983 114.011 760.088 131.811 791.575 162.29C814.786 184.678 857.281 236.166 857.281 241.763C857.281 247.785 849.403 241.87 840.994 229.535C791.681 157.303 709.395 95.0446 624.033 65.4144C503.92 23.7411 367.467 36.7924 259.504 100.43C147.482 166.322 71.5362 274.603 47.0787 403.204C40.5531 437.291 39.9165 508.488 45.832 545.679C68.5122 690.859 157.005 810.122 290.275 875.404C304.467 882.328 316.801 889.066 317.73 890.419C318.552 891.665 320.409 891.983 321.762 891.135C323.221 890.312 325.821 891.055 327.571 892.806C329.428 894.557 333.169 896.122 335.848 896.228C338.554 896.334 353.462 899.756 369.112 903.894C411.077 915.088 433.89 917.661 483.733 917.051C508.191 916.733 531.694 916.335 536.044 916.017C548.591 915.194 545.594 920.261 532.516 922.118C511.587 925.036 435.323 923.789 412.324 920.261ZM553.976 915.911C553.976 913.629 560.82 911.136 575.224 908.244C638.941 895.591 714.993 857.472 767.012 812.085C777.277 803.279 786.721 795.931 788.153 795.931C789.506 795.931 790.753 794.79 790.753 793.331C790.753 791.872 796.032 784.949 802.557 777.893C857.388 718.632 892.297 651.069 910.627 568.571C916.861 540.506 917.365 534.166 917.471 481.644C917.577 436.787 916.754 420.208 913.226 402.674C904.101 356.571 887.018 307.868 867.123 271.818C856.141 251.711 855.929 251.101 860.597 251.101C866.088 251.101 890.625 301.66 902.562 337.392C920.892 392.62 924.924 418.219 924.845 480.397C924.845 528.569 924.208 536.262 918.001 565.468C897.363 663.484 852.401 743.063 780.593 808.982C731.386 854.05 656.449 895.697 602.361 908.032C592.732 910.313 580.927 913.125 576.258 914.266C557.292 919.226 554.082 919.439 554.082 915.911H553.976ZM429.832 899.332C258.045 879.437 109.337 748.474 69.9713 582.683C59.8116 539.577 57.8486 523.609 57.8486 480.397C57.3181 279.484 198.254 106.955 396.275 65.9187C421.237 60.746 431.184 60.003 480.099 60.003C543.71 60.003 570.874 64.1677 618.728 81.1447C760.698 131.519 868.476 255.637 895.507 399.889C900.387 426.097 903.81 479.044 901.714 497.586C900.679 507.746 899.857 501.326 898.504 471.802C897.576 450.05 896.143 427.556 895.188 421.853C893.65 411.375 893.65 411.374 889.591 419.359C885.771 426.839 885.877 427.556 889.909 430.553C894.79 434.293 895.719 445.886 891.368 450.236C889.087 452.411 889.405 454.188 892.615 457.716C897.788 463.499 897.788 470.131 892.615 475.834C888.769 480.078 888.769 480.715 892.615 484.853C898.318 491.167 897.682 499.151 891.156 503.714C887.124 506.605 886.488 508.17 888.663 509.523C894.26 513.051 895.188 526.208 890.122 530.028C885.771 533.238 885.771 533.768 889.697 541.647C893.862 549.817 893.862 549.817 895.507 533.556C896.541 524.643 898.319 517.401 899.539 517.401C904.526 517.401 893.331 577.909 881.739 613.242C837.996 746.379 721.333 855.191 586.922 888.137C550.554 897.05 549.096 897.369 549.096 894.875C549.096 893.522 558.008 890.631 568.91 888.243C588.699 883.999 588.699 883.999 581.856 879.755C575.33 875.696 574.906 875.696 572.731 880.153C569.839 886.28 559.467 888.774 553.366 884.928C549.307 882.328 547.981 882.752 544.957 886.996C540.925 892.912 532.436 893.628 525.805 888.853C521.852 885.962 520.606 886.174 516.68 889.994C510.976 895.697 505.273 895.803 499.172 890.312C494.715 886.28 494.291 886.28 492.01 890.312C489.119 895.591 476.889 896.015 472.751 890.949C470.046 887.739 469.011 887.739 464.449 890.949C457.393 895.909 451.398 895.485 445.694 889.808C441.662 885.75 440.522 885.538 438.028 888.562C433.784 893.734 424.235 892.912 418.744 886.996C415.746 883.787 413.359 882.858 412.324 884.503C409.645 888.853 397.31 887.527 392.641 882.434C389.113 878.508 387.363 878.083 382.376 880.365C374.603 883.999 364.152 879.436 364.152 872.38C364.152 867.632 363.833 867.632 358.13 871.346C350.57 876.333 343.01 874.158 338.659 865.749C336.484 861.611 334.707 860.364 333.567 862.247C330.171 867.738 319.905 865.351 315.343 857.897C311.417 851.345 310.462 851.053 305.289 853.732C299.692 856.756 299.798 856.942 311.497 862.433C358.449 884.503 419.884 896.944 484.98 897.368C514.716 897.581 525.062 898.297 518.219 899.65C505.99 902.223 452.645 902.037 429.832 899.332ZM199.183 747.016C197.936 744.522 195.044 741.1 192.975 739.349C189.659 736.538 189.129 737.068 189.129 742.453C189.129 747.016 190.694 748.978 194.726 749.801C197.724 750.437 200.536 751.048 200.934 751.154C201.358 751.366 200.535 749.509 199.183 747.016ZM773.962 740.065C772.821 733.964 772.821 733.964 765.765 740.702C761.839 744.416 758.629 747.626 758.629 747.838C758.629 747.944 762.37 747.626 766.906 747.122C774.174 746.273 774.996 745.45 773.962 740.065ZM795.82 743.806C799.878 736.246 791.257 727.519 783.591 731.683C777.808 734.787 776.774 741.525 781.31 746.087C785.872 750.65 792.716 749.589 795.82 743.806ZM165.706 730.33C170.481 725.45 169.765 719.746 163.849 716.033C158.889 712.929 151.408 716.431 150.162 722.558C149.445 726.378 155.758 734.256 159.605 734.256C160.745 734.256 163.425 732.506 165.706 730.33ZM182.709 728.765C178.041 720.595 176.078 719.136 174.009 722.452C170.268 728.368 171.834 731.789 178.147 731.789C182.497 731.789 183.956 730.834 182.709 728.765ZM791.151 719.242C790.116 711.894 790.116 711.894 784.227 719.852C781.017 724.203 778.418 727.943 778.418 728.155C778.418 728.261 781.521 728.049 785.368 727.439C791.469 726.59 792.106 725.556 791.151 719.242ZM812.929 722.028C816.139 715.82 810.435 708.976 802.875 710.011C795.421 711.045 793.14 721.417 799.348 725.98C804.335 729.614 809.719 727.943 812.823 722.028H812.929ZM167.881 709.082C167.165 708.048 164.061 707.12 160.745 707.12C157.536 707.12 154.432 708.048 153.69 709.082C153.079 710.223 156.183 711.045 160.745 711.045C165.414 711.045 168.518 710.223 167.881 709.082ZM803.194 704.732C806.085 704.732 807.226 702.663 807.014 697.384C806.695 689.904 806.696 689.904 802.345 695.501C795.926 703.485 791.575 711.788 795.82 707.73C797.597 706.085 800.912 704.732 803.194 704.732ZM694.992 808.557C696.053 801.528 696.053 801.528 687.326 806.7C678.519 811.873 678.518 811.873 685.999 813.438C690.031 814.367 693.453 815.189 693.665 815.295C693.877 815.507 694.488 812.51 694.992 808.557ZM240.431 805.241C244.039 801.607 244.252 791.872 240.83 789.591C235.445 786.381 226.133 790.838 226.133 796.647C226.133 802.642 230.272 808.239 234.834 808.239C236.293 808.239 238.866 806.912 240.431 805.241ZM736.347 802.138C742.872 794.26 733.349 782.137 724.754 787.522C718.839 791.262 718.123 796.965 722.977 801.713C727.964 806.7 732.527 806.913 736.347 802.244V802.138ZM262.9 800.069C262.396 799.538 258.443 796.859 254.199 793.941C246.533 788.662 246.533 788.662 247.779 794.79C248.708 799.644 250.379 800.785 256.374 800.785C260.539 800.785 263.43 800.467 262.9 800.069ZM717.698 786.381C717.38 785.983 713.666 788.158 709.316 791.368C701.544 797.151 701.544 797.151 708.467 798.398C714.489 799.538 715.735 798.822 716.876 793.543C717.698 790.121 718.017 786.911 717.698 786.381ZM222.181 785.453C225.603 779.856 221.571 772.799 214.197 771.685C207.061 770.624 201.676 781.527 206.451 787.309C210.483 792.19 218.574 791.156 222.181 785.453ZM757.17 782.959C760.911 777.07 756.242 770.014 748.576 770.014C744.225 770.014 742.474 771.579 741.838 775.717C740.193 787.124 751.281 792.296 757.17 782.959ZM236.585 783.596C238.044 783.596 237.222 781.314 234.728 778.609C228.813 772.083 226.531 772.401 227.062 779.855C227.274 783.887 228.521 785.665 230.696 784.842C232.447 784.1 235.153 783.596 236.585 783.596ZM736.983 776.327C738.018 769.192 738.018 769.192 731.466 774.471C725.153 779.75 725.046 779.855 730.139 781.527C732.925 782.349 735.418 783.172 735.63 783.278C735.736 783.49 736.346 780.28 736.983 776.327ZM203.215 767.229C207.061 757.069 191.729 749.403 186.636 758.926C184.567 762.852 184.566 765.054 186.848 767.733C190.8 772.508 201.252 772.189 203.215 767.229ZM221.147 767.945C221.147 767.521 218.574 764.735 215.338 761.632C209.555 756.141 209.554 756.141 208.308 762.454C207.273 768.051 207.883 768.767 214.117 768.767C218.043 768.767 221.147 768.37 221.147 767.945ZM774.492 767.308C779.877 765.239 779.347 754.682 773.643 751.684C766.189 747.626 756.958 756.141 760.91 763.383C763.802 768.874 767.542 769.908 774.492 767.308ZM756.242 758.21C756.242 750.65 756.241 750.65 750.034 756.432C742.368 763.701 742.368 765.054 750.034 765.451C755.313 765.77 756.242 764.735 756.242 758.21ZM182.922 750.013C187.67 745.159 187.06 739.456 181.145 735.821C172.55 730.437 162.921 742.559 169.552 750.438C173.372 755.106 177.935 755 182.922 750.013ZM292.45 847.843C288.497 842.432 285.182 840.681 279.691 840.787C272.237 840.999 265.605 835.296 265.605 828.665C265.605 826.383 263.642 825.853 259.292 826.914C251.917 828.77 243.429 822.351 243.429 814.977C243.429 811.157 242.182 810.414 237.62 811.555C230.166 813.438 221.147 807.019 221.147 799.75C221.147 795.188 220.112 794.259 215.444 795.188C208.308 796.541 201.464 790.228 201.464 782.137C201.464 777.256 200.217 776.115 194.514 776.115C185.813 776.115 181.781 772.083 181.781 763.383C181.781 757.679 180.747 756.432 175.654 756.432C168.518 756.432 161.144 746.91 163.425 740.782C164.672 737.678 163.637 736.75 159.074 736.75C151.116 736.75 147.27 732.293 147.164 723.274C147.164 713.539 145.094 710.754 136.712 708.684C127.985 706.483 123.449 697.49 127.375 690.222C129.868 685.553 129.55 684.943 124.377 684.943C121.274 684.943 117.109 683.59 115.252 681.84C109.549 676.561 126.022 704.016 141.249 725.158C159.393 750.225 204.064 795.4 228.601 813.544C247.992 827.842 291.92 855.085 295.554 855.085C296.8 855.085 295.341 851.769 292.45 847.843ZM308.499 846.278C313.168 841.61 313.167 841.318 309.852 835.19C306.536 828.983 298.551 829.089 295.129 835.296C293.273 838.824 293.273 841.716 295.129 845.138C298.339 851.159 303.326 851.451 308.499 846.278ZM353.78 846.49C354.098 846.172 350.066 844.209 344.655 842.14C334.92 838.294 334.919 838.294 337.625 844.209C339.8 848.878 341.551 849.7 346.75 848.453C350.251 847.631 353.382 846.703 353.78 846.49ZM626.924 838.4C626.5 838.002 622.68 839.222 618.436 840.999C610.557 844.315 610.557 844.421 616.154 846.888C620.929 849.063 622.256 848.666 624.749 844.315C626.314 841.397 627.349 838.718 626.924 838.4ZM669.526 840.363C670.666 832.59 663.717 827.099 657.297 830.627C652.098 833.333 651.064 844.103 655.732 846.066C662.47 848.878 668.677 846.384 669.526 840.363ZM326.643 837.79C331.816 837.79 329.959 836.224 319.375 831.768C310.462 828.134 310.462 828.134 313.273 834.156C314.918 837.684 317.518 839.752 319.375 839.036C321.258 838.4 324.468 837.79 326.643 837.79ZM649.631 829.089C649.206 828.664 645.573 829.805 641.54 831.556C634.193 834.766 634.193 834.766 640.294 837.153C645.466 839.222 646.819 838.824 648.384 834.686C649.419 831.98 650.029 829.381 649.631 829.089ZM284.784 834.872C288.922 830.733 288.498 824.208 283.829 820.362C276.163 813.942 266.534 826.383 273.059 834.262C276.693 838.612 280.831 838.824 284.784 834.766V834.872ZM691.994 831.768C697.91 824.738 689.713 813.836 681.118 817.152C672.099 820.574 675.017 835.296 684.752 835.296C687.034 835.296 690.35 833.731 691.994 831.768ZM304.467 824.208C304.042 823.89 300.328 821.82 295.978 819.645C288.206 815.719 288.206 815.719 290.885 822.855C293.273 829.089 294.201 829.593 299.294 827.311C302.503 825.853 304.785 824.42 304.467 824.208ZM673.664 816.011C673.134 815.613 669.102 817.152 664.539 819.539C656.342 823.89 656.342 823.89 662.47 825.455C667.245 826.702 669.42 825.853 671.595 821.927C673.134 819.142 674.062 816.542 673.664 816.011ZM263.006 819.433C266.852 814.791 265.499 808.239 260.114 804.843C253.376 800.573 244.251 810.52 248.204 817.789C251.413 823.784 258.655 824.632 263.006 819.433ZM715.735 814.579C717.698 806.7 715.418 803.279 708.255 803.279C700.085 803.279 695.947 808.982 699.448 815.507C703.401 822.855 713.772 822.245 715.735 814.579ZM277.41 813.544C279.797 811.979 278.975 810.335 273.988 807.098C267.781 803.066 267.356 802.96 268.921 806.913C269.743 809.194 270.486 812.191 270.486 813.438C270.486 816.223 273.165 816.223 277.41 813.544ZM334.521 855.297C338.447 847.843 329.959 838.612 322.691 842.538C317.2 845.456 316.165 849.169 318.871 856.119C320.94 861.504 331.391 861 334.521 855.297ZM375.134 854.873C378.662 854.66 377.627 853.626 371.606 851.345C359.589 846.703 358.979 846.888 362.188 853.838C364.151 858.082 365.796 859.329 367.573 857.578C369.006 856.226 372.322 854.979 375.134 854.873ZM601.857 850.31C604.138 847.419 603.289 847.101 597.188 848.666C587.347 851.159 586.816 851.981 592.413 856.119C595.941 858.719 597.4 858.825 598.117 856.756C598.647 855.085 600.292 852.3 601.857 850.31ZM642.257 857.048C646.395 852.91 645.997 846.384 641.328 842.538C633.662 836.118 624.033 848.559 630.558 856.438C634.193 860.788 638.331 861 642.257 856.942V857.048ZM872.72 459.149C876.858 454.188 876.858 453.764 872.084 449.52C867.123 445.063 867.123 445.169 867.123 455.727C867.123 461.536 867.415 465.887 867.733 465.383C868.158 464.852 870.333 461.961 872.72 459.149ZM92.97 453.26C92.97 443.71 92.8639 443.498 88.5136 447.663C84.3754 451.589 84.3751 452.411 87.9032 457.398C92.9698 464.64 92.97 464.64 92.97 453.26ZM887.946 445.992C895.931 437.185 883.49 425.487 875.001 433.975C870.73 438.22 871.368 445.169 876.328 448.061C882.243 451.483 882.959 451.376 887.946 445.992ZM85.1977 446.098C86.975 444.957 88.1155 441.323 87.6911 438.113C86.9749 433.471 85.3039 432.224 79.4946 432.224C74.3219 432.224 71.8281 433.551 71.218 436.681C69.3611 446.628 76.6031 451.483 85.1977 446.098ZM95.4634 428.484C95.4634 421.64 94.9326 421.242 90.2905 423.709C85.4096 426.309 85.41 426.733 89.4421 431.19C95.0392 437.397 95.4634 437.291 95.4634 428.484ZM871.261 431.376C873.542 427.768 873.118 426.415 869.298 424.028C865.16 421.428 864.629 421.853 864.629 428.484C864.629 436.973 867.123 438.007 871.261 431.376ZM883.914 420.606C892.403 412.223 880.678 399.782 871.872 407.767C866.089 412.94 865.982 414.69 871.049 419.783C875.612 424.346 879.856 424.638 883.914 420.606ZM90.3965 417.608C92.5717 415.009 92.6518 412.727 90.5827 409.014C86.9751 402.17 76.6029 402.17 74.4278 408.908C71.3242 418.749 83.8444 425.487 90.3965 417.608ZM100.238 398.323C100.344 394.716 99.6013 394.504 95.8876 396.785C92.1473 399.172 91.7233 400.605 94.0046 405.38C96.2859 410.34 96.9226 410.552 98.355 406.838C99.2834 404.557 100.132 400.711 100.238 398.323ZM865.24 399.995C859.749 396.042 859.139 396.891 861.208 405.167C862.773 411.587 863.17 411.799 866.194 407.555C868.98 403.815 868.874 402.674 865.24 399.995ZM890.44 396.042C889.405 390.153 888.053 387.049 887.416 389.119C886.7 391.082 884.63 394.61 882.667 396.891C879.564 400.498 879.644 401.135 884.206 402.568C887.018 403.523 889.299 405.485 889.299 406.944C889.299 408.377 890.016 409.014 890.838 408.165C891.581 407.342 891.474 401.851 890.44 396.042ZM94.0046 393.257C102.811 386.837 92.9696 372.433 83.7649 378.216C77.8494 381.957 77.1336 387.66 81.8819 392.54C86.7628 397.289 88.3014 397.395 94.0046 393.257ZM881.209 392.434C883.172 387.341 879.034 380.71 873.224 379.569C866.911 378.322 861.738 385.988 864.842 391.904C867.839 397.607 879.033 398.032 881.209 392.434ZM858.82 374.078C852.189 368.587 851.684 369.224 855.106 378.959C857.573 386.095 858.104 386.413 860.889 382.593C863.595 378.959 863.171 377.606 858.82 374.078ZM106.764 373.043C108.514 365.802 108.408 365.696 103.448 370.152C100.344 372.937 98.8854 376.359 99.7077 379.569C101.379 385.697 104.376 382.885 106.764 373.043ZM85.728 371.797C87.1604 371.797 86.6565 370.046 84.4813 367.977C82.4122 365.802 80.5286 362.778 80.449 361.133C80.2368 357.817 73.7115 373.972 73.4992 378.64C73.287 380.418 75.356 379.569 78.1678 376.784C80.9531 374.078 84.269 371.797 85.728 371.797ZM885.983 377.394C885.347 375.006 882.455 364.767 879.458 354.608C874.258 337.1 873.861 336.463 870.837 342.166C868.052 347.445 868.264 348.586 873.542 352.751C879.75 357.605 881.527 367.871 876.646 370.762C874.789 371.903 875.824 374.078 879.75 377.102C887.018 382.673 887.416 382.673 885.983 377.394ZM873.33 363.202C873.33 356.677 872.508 355.854 865.982 355.854C860.783 355.854 858.316 357.207 857.68 360.311C856.141 368.269 859.245 372.221 866.487 371.399C872.19 370.656 873.33 369.41 873.33 363.202ZM102.705 365.802C106.34 361.451 104.164 353.149 98.8852 351.08C93.6064 349.117 85.6219 353.891 85.6219 359.064C85.6219 368.375 96.9226 372.725 102.705 365.802ZM855.106 355.536C856.433 353.891 855.106 351.902 851.366 350.257C845.557 347.551 845.557 347.658 848.156 356.252C849.721 361.133 851.366 363.521 851.977 361.637C852.507 359.78 853.966 357.101 855.106 355.536ZM114.642 350.469C116.711 343.732 116.711 342.166 114.536 344.342C112.971 345.907 109.867 347.153 107.48 347.153C103.952 347.153 103.74 348.082 106.127 353.361C109.974 361.558 111.406 361.133 114.642 350.469ZM91.5112 347.153C94.0047 347.153 94.1106 345.376 92.0415 338.638C89.3358 330.15 89.3359 330.15 85.1977 340.522C79.7067 353.891 79.3882 359.992 84.4813 352.645C86.5504 349.62 89.7605 347.153 91.5112 347.153ZM864.842 343.307C869.192 338.029 864.842 331.185 857.281 331.185C849.721 331.185 845.344 338.029 849.721 343.307C851.472 345.376 854.894 347.153 857.281 347.153C859.669 347.153 863.064 345.376 864.842 343.307ZM110.291 339.673C114.217 335.747 114.722 333.784 112.653 329.832C108.196 321.555 95.4634 325.163 95.4634 334.819C95.4634 338.957 100.026 344.66 103.342 344.66C104.376 344.66 107.586 342.485 110.291 339.673ZM123.343 327.152C126.95 318.24 126.95 318.239 119.921 320.919C115.252 322.696 113.608 324.447 115.146 326.012C116.499 327.365 117.64 330.574 117.64 333.253C117.64 339.381 118.674 338.347 123.237 327.152H123.343ZM845.557 332.643C846.406 329.434 845.053 327.152 841.207 325.375C835.822 322.988 835.715 323.094 838.421 330.044C841.525 338.427 843.912 339.275 845.557 332.643ZM864.417 314.606C832.824 237.838 767.542 164.889 688.174 117.221C686.291 116.08 686.185 117.937 688.068 123.64C690.243 130.776 691.384 131.519 698.52 130.67C704.939 129.954 707.327 130.988 710.643 136.081C712.818 139.477 714.17 143.323 713.454 144.464C712.632 145.605 715.417 146.109 719.343 145.499C728.469 144.146 734.066 148.602 734.066 157.117C734.066 163.218 734.702 163.642 742.474 162.794C751.573 161.653 757.807 168.391 755.525 176.906C754.676 180.328 755.738 180.938 760.274 180.009C767.755 178.657 775.925 185.713 775.925 193.485C775.925 197.835 777.277 199.268 781.628 199.268C789.188 199.268 793.246 203.724 793.246 212.027C793.246 217.2 794.387 218.977 797.889 218.977C804.52 218.977 810.436 225.502 810.436 232.744C810.436 236.272 811.894 238.66 813.964 238.66C819.242 238.66 825.264 245.689 825.264 252.029C825.264 255.637 827.439 258.661 831.365 260.412C837.068 263.011 838.713 266.937 837.785 274.922C837.572 276.487 839.668 278.45 842.347 279.272C847.944 281.129 850.836 288.397 848.767 295.135C847.732 298.345 848.767 300.095 852.295 301.024C858.528 302.695 862.242 312.112 859.563 319.486C857.998 323.518 858.316 324.977 860.783 324.977C862.561 324.977 865.452 326.622 867.123 328.691C872.402 335.031 871.977 332.935 864.523 314.606H864.417ZM102.413 314.287C98.8851 307.655 103.554 298.345 111.326 296.461C116.605 295.135 117.109 294.206 114.934 290.042C113.502 287.362 112.971 283.516 113.687 281.659C114.43 279.696 114.43 278.132 113.687 278.132C112.467 278.132 90.4767 323.518 90.4767 326.012C90.4767 326.622 93.7126 325.375 97.7446 323.094C103.66 319.672 104.482 318.133 102.413 314.287ZM854.682 318.956C859.669 312.961 855.504 305.268 847.44 305.268C842.453 305.268 839.854 306.727 838.713 310.255C836.856 316.277 841.312 322.484 847.44 322.484C849.801 322.484 853.037 320.919 854.682 318.956ZM122.706 313.677C125.094 310.865 125.306 308.584 123.449 305.692C117.427 296.169 103.13 301.952 106.551 312.536C108.408 318.638 118.038 319.274 122.706 313.677ZM832.294 304.976C826.511 301.342 825.264 302.589 828.155 309.115C830.649 314.499 831.365 314.817 833.328 311.183C834.999 308.398 834.575 306.409 832.294 304.976ZM137.216 297.602C137.323 296.78 134.616 296.567 131.221 297.31C124.165 298.636 124.059 298.849 127.799 305.799C130.584 310.971 130.585 310.971 133.901 305.082C135.678 301.766 137.216 298.451 137.216 297.602ZM842.347 296.779C848.767 289.007 841.419 280.731 831.577 284.551C827.731 286.01 826.192 295.533 829.296 298.636C832.187 301.554 839.244 300.414 842.347 296.673V296.779ZM819.959 285.293C815.211 282.376 814.574 284.339 818.314 290.254C820.993 294.711 821.63 294.923 822.346 291.395C822.877 289.22 821.736 286.434 819.959 285.293ZM136.182 287.866C137.004 285.081 136.5 281.235 134.829 279.272C128.197 271.288 115.783 278.131 118.886 287.866C119.921 291.395 122.494 292.96 127.481 292.96C132.441 292.96 135.041 291.395 136.182 287.866ZM147.058 281.553C151.408 274.206 151.62 272.853 148.305 274.099C146.129 274.922 142.813 275.638 140.956 275.638C138.251 275.638 138.039 277.097 139.71 281.553C140.957 284.763 141.249 288.185 140.426 289.007C139.71 289.75 139.604 290.466 140.426 290.466C141.169 290.466 144.166 286.434 147.058 281.553ZM832.824 276.672C837.068 271.5 832.824 264.55 825.264 264.55C818.632 264.55 813.857 270.783 816.139 276.566C818.102 281.765 828.58 281.765 832.824 276.672ZM128.94 261.871C128.728 252.851 128.197 253.17 120.425 266.221C114.934 275.346 114.934 275.346 121.99 272.64C127.905 270.465 129.046 268.608 128.94 261.871ZM812.929 269.643C812.929 267.866 810.754 265.797 808.154 265.08C803.91 264.046 803.698 264.55 805.979 269.749C808.685 275.638 812.929 275.532 812.929 269.643ZM149.869 265.478C153.901 257.812 145.307 249.217 137.641 253.276C131.831 256.379 130.797 263.223 135.359 267.759C139.922 272.322 146.766 271.288 149.869 265.478ZM166.024 251.817C165.812 251.605 162.815 252.029 159.393 252.639C154.008 253.674 153.185 254.921 154.114 261.128C155.254 268.502 155.254 268.502 160.851 260.412C163.955 255.849 166.237 252.029 166.024 251.817ZM820.489 256.989C824.521 252.029 820.808 245.185 813.433 244.045C807.544 243.222 802.239 250.994 804.52 256.989C806.51 261.976 816.245 261.976 820.489 256.989ZM799.666 252.215C799.984 247.785 798.843 246.114 795.421 246.114C789.824 246.114 782.264 235.238 784.227 230.065C785.049 227.89 784.227 226.325 782.158 226.325C780.275 226.325 776.853 225.609 774.572 224.76C772.211 223.831 776.773 231.1 784.731 240.729C792.61 250.464 799.135 258.449 799.241 258.449C799.348 258.449 799.453 255.637 799.666 252.215ZM142.601 248.501C146.66 248.501 146.952 247.785 144.671 243.408C140.851 236.272 147.482 226.325 156.183 226.325C161.78 226.325 162.39 225.609 161.063 220.197C159.18 213.168 166.555 204.149 174.115 204.149C177.324 204.149 178.969 201.973 179.818 196.695C180.852 189.32 180.853 189.32 174.831 194.917C168.093 201.151 143.848 230.675 134.935 243.408C129.975 250.464 129.762 251.605 133.396 250.252C135.757 249.323 139.922 248.501 142.601 248.501ZM163.955 245.583C168.412 241.153 167.589 234.203 162.204 231.391C156.183 228.182 150.267 230.357 148.305 236.591C145.413 245.795 157.111 252.533 163.955 245.583ZM177.537 237.917C183.744 229.747 183.744 229.747 177.218 230.675C171.834 231.498 170.693 232.956 170.693 238.872C170.693 242.798 170.799 246.114 171.011 246.114C171.091 246.114 174.115 242.374 177.537 237.917ZM805.157 236.776C808.472 230.675 804.122 223.831 796.96 223.831C790.647 223.831 787.331 229.535 789.612 236.591C791.469 242.48 802.053 242.586 805.157 236.776ZM183.028 221.338C186.343 210.78 172.046 204.865 166.13 214.414C164.273 217.412 164.459 219.587 166.741 222.478C171.516 228.076 181.038 227.466 183.028 221.338ZM194.116 217.73C199.819 211.496 199.819 211.496 193.267 211.496C187.882 211.496 186.636 212.637 186.636 217.73C186.636 221.152 187.06 223.831 187.484 223.831C187.882 223.831 190.906 221.152 194.116 217.73ZM788.365 217.518C792.716 212.345 788.365 205.395 780.805 205.395C773.245 205.395 769.001 212.345 773.245 217.518C775.102 219.587 778.418 221.338 780.805 221.338C783.193 221.338 786.615 219.693 788.365 217.518ZM767.224 212.956C767.224 208.287 765.765 206.748 760.38 206.005C753.563 204.971 753.563 204.971 760.274 211.921C763.908 215.741 767.012 218.977 767.118 218.977C767.224 218.977 767.224 216.271 767.224 212.956ZM200.217 197.941C200.217 192.026 199.076 190.355 194.222 189.745C186.343 188.604 180.959 195.554 184.46 202.186C186.238 205.395 189.129 206.642 193.585 206.111C199.183 205.501 200.217 204.149 200.217 197.941ZM211.942 199.798C218.467 193.061 218.467 193.061 212.658 193.061C208.202 193.061 206.53 194.626 205.814 199.798C205.31 203.539 204.992 206.642 205.098 206.642C205.31 206.642 208.414 203.539 211.942 199.798ZM749.398 194.917C748.576 189.32 747.116 188.1 741.121 187.888C733.747 187.569 733.747 187.569 741.944 194.519C746.4 198.339 750.14 201.549 750.246 201.549C750.326 201.655 749.929 198.658 749.398 194.917ZM769.717 193.061C769.717 186.853 768.789 185.607 763.802 185.607C756.958 185.607 752.209 191.814 754.597 197.835C755.631 200.621 758.311 201.761 762.979 201.257C768.683 200.514 769.717 199.268 769.717 193.061ZM219.714 183.829C222.817 178.763 219.29 171.309 213.162 170.168C209.342 169.319 201.464 175.659 201.464 179.479C201.464 183.325 209.342 189.639 213.162 188.816C215.258 188.498 218.149 186.11 219.714 183.829ZM232.023 182.291C238.76 175.129 238.76 175.129 231.837 174.2C225.391 173.272 224.887 173.776 224.675 181.256C224.675 185.713 224.675 189.32 224.887 189.32C224.993 189.32 228.203 186.111 232.023 182.291ZM198.97 178.444C198.97 171.202 203.533 167.144 211.517 167.144C216.796 167.144 218.467 165.818 219.502 160.433C220.218 156.692 220.43 153.271 220.006 152.846C219.184 152.024 184.673 182.689 184.354 184.572C184.275 185.394 187.59 185.5 191.622 184.864C197.22 184.041 198.97 182.503 198.97 178.444ZM729.609 177.41C728.787 171.415 727.752 170.566 722.261 171.601C715.842 172.847 715.842 172.847 723.083 178.657C727.036 181.76 730.352 184.36 730.432 184.466C730.538 184.466 730.246 181.256 729.609 177.41ZM748.682 180.832C755.207 172.954 745.578 160.618 737.912 166.958C733.243 170.884 732.713 181.044 737.063 182.795C742.554 184.97 745.684 184.466 748.682 180.832ZM253.589 159.69C248.416 158.655 246.851 159.478 246.24 163.43C245.816 166.11 244.039 169.956 242.5 171.919C240.935 173.775 244.251 172.131 249.849 168.205C260.008 161.043 260.008 161.043 253.589 159.69ZM240.83 167.356C245.71 158.151 237.619 149.955 228.415 154.942C223.03 157.833 222.181 164.677 226.638 169.133C230.988 173.59 237.938 172.635 240.83 167.356ZM708.68 162.608C706.717 157.196 704.86 155.87 701.119 156.799C696.557 158.045 696.663 158.549 703.401 163.828C707.327 167.064 710.749 169.637 710.961 169.637C711.173 169.637 710.138 166.428 708.68 162.608ZM728.999 163.642C732.606 159.186 730.352 150.883 724.941 148.814C720.696 147.249 711.783 153.695 711.783 158.443C711.783 166.322 723.72 169.956 728.999 163.642ZM276.587 144.888C267.78 143.111 269.027 142.395 267.17 150.485C265.499 157.196 265.499 157.197 274.73 151.706C284.041 146.215 284.041 146.214 276.587 144.888ZM263.006 151.308C265.181 148.602 265.181 146.427 263.112 142.501C259.902 136.479 251.414 136.691 247.461 142.899C242.076 151.414 256.374 159.186 263.006 151.308ZM688.068 148.098C685.999 139.397 686.822 139.901 678.519 142.076C671.489 144.039 671.489 144.039 679.872 149.239C684.54 152.13 688.678 154.517 688.997 154.623C689.421 154.836 688.997 151.812 688.068 148.098ZM706.398 149.424C713.348 142.501 706.505 130.882 697.273 133.8C694.594 134.622 691.596 137.62 690.748 140.326C687.856 149.53 699.448 156.374 706.398 149.424ZM243.323 141.758C246.639 134.835 248.204 133.906 256.268 134.198C264.465 134.41 265.605 133.694 265.605 128.707C265.605 121.969 273.59 116.903 281.256 118.759C285.288 119.794 287.569 118.362 290.885 112.552C294.625 106.027 296.27 105.098 303.83 106.027C310.462 106.743 312.743 106.027 313.778 102.605C315.953 95.5488 324.255 92.2329 331.311 95.3365C336.484 97.7239 337.519 97.432 339.482 91.941C340.835 88.6251 343.222 85.8137 344.761 85.8137C346.432 85.8137 347.148 85.3093 346.538 84.5666C342.585 80.6406 286.853 107.38 250.379 130.67C227.062 145.498 224.25 148.496 233.057 149.132C238.257 149.53 240.432 147.886 243.323 141.758ZM287.781 132.845C287.781 122.818 274.943 119.688 269.531 128.495C267.25 132.129 267.886 133.906 272.555 137.726C279.293 143.217 287.781 140.538 287.781 132.845ZM298.87 137.62C302.902 134.941 304.971 132.659 303.326 132.659C301.761 132.659 298.975 132.023 297.012 131.307C294.917 130.484 292.45 132.447 290.673 136.267C287.251 143.748 289.028 144.039 298.87 137.62ZM664.115 133.906C662.47 130.378 659.87 128.309 658.014 128.919C656.157 129.636 652.841 130.272 650.559 130.272C648.172 130.378 650.135 132.341 655.122 135.126C666.502 141.36 667.431 141.254 664.115 133.906ZM684.858 133.694C689.5 128.097 684.646 121.571 675.839 121.571C668.571 121.571 665.467 126.532 668.385 133.986C670.242 138.761 680.8 138.548 684.858 133.588V133.694ZM324.574 119.9C319.905 118.972 315.952 118.468 315.873 118.653C315.661 118.866 314.733 121.465 313.778 124.463C312.133 129.848 312.133 129.848 322.585 125.816C333.063 121.678 333.062 121.677 324.574 119.9ZM640.904 123.004C637.403 116.903 636.049 116.186 631.911 118.362C627.455 120.722 627.641 121.253 635.519 125.497C640.188 127.991 644.22 129.954 644.538 130.06C644.856 130.166 643.185 126.956 640.904 123.004ZM310.17 123.853C314.732 118.149 309.958 111.73 301.045 111.73C296.164 111.73 293.697 113.056 293.166 116.08C291.203 125.922 303.644 131.519 310.17 123.853ZM659.977 121.677C665.786 114.621 657.695 103.746 648.995 107.061C640.082 110.483 642.999 125.179 652.629 125.179C655.016 125.179 658.332 123.64 659.977 121.677ZM882.031 554.167C887.416 551.382 888.371 544.432 883.914 539.975C875.399 531.593 862.985 543.185 871.049 551.992C876.036 557.589 875.93 557.483 882.031 554.167ZM90.6888 550.347C95.0391 545.148 90.6887 538.331 83.1286 538.331C76.4969 538.331 71.8284 544.538 74.0036 550.241C75.9931 555.414 86.4445 555.52 90.6888 550.453V550.347ZM70.1834 530.134C64.9842 526.208 64.48 514.165 69.3609 510.027C72.4645 507.533 72.2523 506.419 68.2203 502.361C62.1988 496.472 62.0929 489.097 67.6901 483.394C71.8282 479.362 71.8282 478.938 67.6901 474.799C61.9868 469.096 62.3054 461.855 68.4065 456.152C72.863 452.013 72.969 451.085 69.6532 448.379C64.056 443.711 64.7988 431.8 70.7938 428.484C75.4625 426.097 75.5685 425.38 72.0405 420.499C66.9739 413.152 67.3719 409.624 74.1096 402.886C79.6006 397.289 79.7065 396.785 75.6744 391.586C71.6159 386.095 71.5365 386.201 68.7246 400.499C61.1646 439.148 59.8119 490.344 64.9846 536.341C66.5497 549.313 66.5496 549.313 70.5817 541.328C74.322 533.874 74.3215 533.132 70.2895 530.134H70.1834ZM95.8876 533.344C94.8265 523.821 94.323 523.29 89.336 527.747C86.5507 530.346 86.8686 531.805 91.219 536.447C94.0043 539.471 96.3918 541.938 96.604 541.938C96.8162 541.938 96.4982 538.118 95.9677 533.344H95.8876ZM870.121 528.489C867.839 525.784 865.664 522.999 865.346 522.468C864.948 521.858 864.629 525.465 864.629 530.452C864.629 538.835 865.054 539.365 869.51 536.553C874.046 533.662 874.046 533.238 870.121 528.489ZM85.0917 526.712C92.1478 519.682 85.1974 508.17 75.8865 511.061C67.4776 513.767 70.5817 529.63 79.3886 529.63C80.9536 529.63 83.447 528.277 85.0917 526.712ZM889.193 524.855C894.154 515.624 886.09 507.534 876.858 512.521C871.473 515.306 870.545 522.256 875.001 526.712C879.458 531.062 886.381 530.24 889.193 524.855ZM92.97 504.748C92.97 494.589 92.9701 494.588 88.4075 500.185C84.2694 505.278 84.2691 506.101 87.7971 510.133C89.9723 512.52 92.0413 514.483 92.3596 514.589C92.7575 514.802 92.97 510.239 92.97 504.748ZM82.6242 499.575C86.7624 495.411 86.3385 488.885 81.6698 485.065C74.0036 478.752 64.3743 491.06 70.8998 498.939C74.534 503.289 78.6718 503.501 82.6242 499.575ZM891.368 495.225C892.509 487.453 885.559 481.962 879.14 485.463C874.577 487.851 872.826 497.506 876.248 501.008C880.386 505.066 890.546 501.326 891.368 495.225ZM92.97 477.611C92.97 467.452 92.9702 467.452 88.1954 473.261C83.9512 478.646 83.8449 479.468 87.3729 483.394C92.7578 489.31 92.97 489.097 92.97 477.611ZM81.6698 473.871C86.5507 472.014 86.7627 462.173 82.094 458.22C74.0034 451.589 63.8701 464.958 71.324 472.412C74.6399 475.834 76.1788 476.046 81.6698 473.871ZM890.546 466.709C890.546 460.183 889.697 459.361 883.172 459.361C877.999 459.361 875.611 460.714 875.001 463.818C873.436 471.802 876.54 475.728 883.808 474.906C889.511 474.296 890.546 473.049 890.546 466.709ZM146.766 701.735C154.724 693.75 142.389 680.169 133.688 687.437C126.765 693.22 130.797 704.732 139.816 704.732C141.991 704.732 145.094 703.379 146.766 701.735ZM157.536 702.663C161.355 701.098 161.355 700.488 156.713 694.891C154.007 691.469 152.442 690.01 153.291 691.681C154.114 693.326 153.689 696.96 152.151 699.772C149.445 704.944 150.479 705.449 157.536 702.663ZM827.837 700.806C832.188 695.607 827.837 688.683 820.277 688.683C812.717 688.683 808.367 695.607 812.717 700.806C814.468 702.981 817.89 704.732 820.277 704.732C822.664 704.732 826.086 702.981 827.837 700.806ZM146.766 677.701C143.635 672.396 141.063 668.258 140.85 668.47C140.744 668.683 139.816 671.998 138.887 675.712C137.534 681.309 138.038 682.45 142.097 682.45C144.776 682.45 147.588 683.591 148.411 684.943C149.339 686.296 150.479 687.437 151.116 687.437C151.832 687.437 149.763 683.086 146.766 677.701ZM822.24 681.097C822.558 680.911 821.948 678.206 820.807 675.102C818.818 669.717 818.526 669.717 813.539 678.312C808.261 687.225 808.26 687.224 814.892 684.333C818.526 682.768 821.842 681.309 822.24 681.097ZM134.935 673.033C134.935 662.661 122.202 659.133 117.427 668.152C114.934 672.714 115.358 674.173 120.027 677.993C126.446 683.192 134.935 680.275 134.935 673.033ZM842.135 675.208C843.17 667.436 836.352 661.945 829.826 665.473C824.627 668.152 823.593 678.922 828.367 680.911C835.105 683.697 841.313 681.203 842.135 675.208ZM113.501 668.364C114.828 661.733 114.324 660.274 110.69 660.274C108.302 660.274 104.986 658.947 103.342 657.382C98.9913 653.032 99.7076 656.745 105.517 668.046C111.22 679.346 111.406 679.346 113.501 668.364ZM133.078 654.066C129.126 645.764 128.834 645.578 126.951 650.645C125.81 653.642 125.2 656.348 125.624 656.666C126.765 657.488 136.075 662.661 136.712 662.661C137.004 662.767 135.465 658.841 133.078 654.066ZM835.397 656.958C834.177 655.419 832.718 651.997 832.294 649.504C831.577 645.764 830.543 646.612 827.333 653.35C823.274 661.839 823.274 661.839 830.437 660.804C835.503 660.061 836.963 658.841 835.397 656.958ZM119.603 654.889C126.659 647.859 119.815 636.346 110.372 639.344C106.87 640.379 105.305 642.978 105.305 647.939C105.305 656.958 113.502 661.016 119.603 654.889ZM853.541 649.185C853.541 642.66 852.719 641.838 846.193 641.838C841.1 641.838 838.633 643.191 837.997 646.294C836.458 654.279 839.562 658.205 846.804 657.382C852.507 656.746 853.541 655.419 853.541 649.185ZM101.166 643.694C102.307 637.699 101.776 635.63 99.2034 635.63C97.32 635.63 94.0045 633.243 91.9354 630.139C89.7603 627.115 88.1153 625.577 88.1153 626.611C88.1153 629.184 98.4607 653.244 99.0973 652.395C99.3891 651.997 100.344 648.045 101.166 643.694ZM122.202 629.609C119.284 623.402 118.887 623.189 115.863 627.327C113.077 631.174 113.396 632.102 118.25 634.675C125.306 638.522 125.916 637.806 122.202 629.609ZM842.877 636.134C846.485 634.675 846.591 633.535 843.912 628.574C840.702 622.659 840.703 622.659 837.997 630.431C835.318 638.309 835.821 638.946 842.877 636.134ZM108.01 630.643C115.676 626.505 112.547 613.454 103.74 613.454C100.345 613.454 92.97 620.192 92.97 623.296C92.97 625.577 99.9199 633.243 101.989 633.243C102.599 633.243 105.305 631.996 107.904 630.643H108.01ZM864.736 628.044C868.476 621.333 863.595 615.417 855.106 616.452C847.944 617.274 845.345 624.012 850.013 629.609C854.258 634.782 861.632 634.065 864.736 628.15V628.044ZM92.1475 617.168C94.4288 612.207 94.3229 610.961 91.7233 610.961C89.8665 610.961 86.6565 609.289 84.4813 607.114C79.9187 602.578 79.6004 604.939 83.3407 615.629C86.6565 624.94 88.4073 625.258 92.1475 617.168ZM853.753 604.541C851.048 598.732 849.509 599.979 846.405 610.244C844.84 615.099 845.265 615.311 850.544 612.817C855.504 610.43 856.035 609.289 853.753 604.541ZM111.83 603.295C109.655 598.414 108.09 596.769 108.01 599.262C107.798 601.623 106.658 603.613 105.305 603.613C100.636 603.613 102.811 608.679 108.409 610.748C115.783 613.56 116.075 613.03 111.83 603.295ZM869.802 605.974C879.352 600.907 872.72 586.715 862.348 590.031C856.645 591.782 855.504 600.801 860.279 605.576C863.807 609.21 863.807 609.21 869.802 605.974ZM102.705 601.517C105.836 595.628 100.636 587.962 94.3227 589.209C88.5134 590.349 84.3754 596.981 86.3384 602.048C88.5135 607.539 99.6018 607.22 102.705 601.517ZM83.3407 590.137C86.6565 586.715 86.02 583.903 81.988 583.903C80.025 583.903 77.3189 581.94 75.9926 579.553C72.3584 573.452 72.5711 579.765 76.2848 592.206C78.46 599.448 79.6003 600.907 80.2369 597.485C80.7409 594.7 82.0939 591.49 83.3407 590.137ZM861.526 578.837C858.21 573.452 856.141 574.991 853.86 584.646C852.188 591.49 852.188 591.49 858.316 587.431C863.489 584.116 864.019 582.763 861.526 578.837ZM105.093 580.8C103.846 576.449 102.811 572.311 102.811 571.595C102.811 570.852 101.379 573.134 99.6017 576.449C96.7103 581.94 96.9227 582.975 101.459 585.681C104.271 587.325 106.763 588.678 106.976 588.785C107.161 588.785 106.339 585.256 105.093 580.8ZM95.3573 576.662C96.7102 574.062 97.2142 570.242 96.4979 568.279C93.3943 560.082 78.1678 562.576 78.1678 571.171C78.1678 581.118 90.7947 585.15 95.3573 576.662ZM880.678 576.343C884.1 565.786 869.802 559.977 863.807 569.5C861.924 572.524 862.136 574.699 864.523 577.484C869.192 583.187 878.822 582.471 880.678 576.343ZM77.0272 564.115C79.7064 561.117 79.2028 559.658 73.8975 555.732C67.5842 551.064 67.5838 551.064 69.1488 559.154C70.0773 563.611 70.8998 569.102 71.0059 571.277C71.112 574.593 71.324 574.699 72.5707 571.595C73.2869 569.499 75.356 566.184 77.0272 564.115ZM891.58 557.191C891.766 551.992 891.368 551.78 887.946 555.308C885.771 557.483 883.066 559.26 881.819 559.26C880.678 559.26 881.527 562.576 883.914 566.608C887.946 573.771 888.159 573.77 889.697 568.465C890.546 565.361 891.368 560.401 891.58 557.191ZM99.2835 555.308C97.745 549.207 97.4264 548.995 94.3227 553.345C91.5109 557.191 91.6172 558.332 95.1452 560.799C100.344 564.645 101.379 563.398 99.2835 555.308ZM866.3 553.239C863.807 547.96 863.17 547.748 861.738 551.382C860.783 553.663 859.961 557.483 859.855 559.977C859.749 563.505 860.598 563.902 864.417 561.833C868.476 559.658 868.767 558.411 866.3 553.239ZM344.575 116.903C352.533 113.587 352.639 113.481 347.148 110.589C344.045 108.918 341.338 107.99 341.153 108.414C340.941 108.812 339.376 111.73 337.625 114.728C333.991 121.253 334.097 121.359 344.575 116.903ZM333.168 114.011C337.731 109.342 337.837 109.024 334.521 102.923C333.062 100.217 329.959 98.1484 327.571 98.1484C317.942 98.1484 313.672 110.483 321.656 115.152C327.465 118.547 328.712 118.468 333.168 114.011ZM618.118 115.974C617.905 110.377 613.555 107.777 606.817 109.449C599.682 111.305 599.682 111.305 608.276 114.409C613.051 116.08 617.189 117.513 617.507 117.619C617.799 117.725 618.118 117.009 618.118 115.974ZM678.121 115.338C682.365 115.338 681.437 114.091 673.558 109.343C660.799 101.464 659.871 101.57 663.292 110.483C665.07 115.152 667.351 117.513 669.42 116.69C671.277 115.974 675.203 115.338 678.121 115.338ZM635.307 110.695C640.188 101.464 632.097 93.2674 622.892 98.2544C617.507 101.146 616.977 103.851 620.717 110.695C623.927 116.796 631.991 116.796 635.307 110.695ZM373.993 105.709C373.993 104.886 371.818 102.923 369.112 101.146C365.399 98.8644 364.152 98.8645 364.152 101.04C364.152 102.605 362.375 105.921 360.199 108.308C356.486 112.446 356.777 112.446 365.186 109.953C370.04 108.414 373.993 106.531 373.993 105.709ZM594.402 106.743C592.731 102.605 589.522 101.968 587.453 105.39C586.63 106.637 587.957 108.096 590.344 108.706C592.732 109.342 594.907 110.059 595.225 110.165C595.517 110.377 595.119 108.812 594.402 106.743ZM359.271 103.109C364.55 93.0552 352.851 83.3198 344.973 91.1982C340.623 95.5486 341.339 102.393 346.326 105.284C352.851 109.13 356.379 108.52 359.271 103.109ZM399.167 100.828C402.801 99.6073 402.589 98.9705 397.708 96.6893C392.96 94.408 391.182 94.9386 386.938 99.793C381.765 105.496 381.765 105.496 388.397 103.958C392.031 103.003 396.886 101.676 399.167 100.828ZM574.507 99.6072C571.696 95.8669 569.096 94.5143 567.664 95.8672C566.417 97.1139 562.465 98.2543 559.043 98.4665C554.799 98.6522 556.868 99.7928 565.064 101.888C571.908 103.639 577.824 105.204 578.116 105.284C578.54 105.39 576.868 102.817 574.507 99.6072ZM610.663 101.968C615.014 96.6894 611.38 87.7765 605.172 88.7049C598.939 89.6598 594.589 96.0793 596.658 101.464C598.647 106.531 606.605 106.743 610.663 101.968ZM657.085 101.782C657.907 101.146 624.961 87.3787 616.048 84.673C610.345 82.9223 610.345 83.0283 614.484 89.2355C617.906 94.5143 619.471 95.1509 623.503 93.0553C629.1 89.9517 640.294 95.8669 640.294 101.888C640.294 104.568 642.257 105.098 648.278 103.958C652.735 103.109 656.661 102.074 657.085 101.782ZM383.41 97.7238C390.466 90.6943 383.516 79.1818 374.205 82.0732C370.677 83.2139 369.112 85.8133 369.112 90.8003C369.112 99.7929 377.309 103.745 383.41 97.7238ZM590.556 97.7238C595.013 93.1612 594.084 86.3439 588.381 83.3199C581.962 79.8979 576.258 83.9566 576.258 92.1268C576.258 99.8991 584.853 103.321 590.556 97.7238ZM424.235 96.1853C424.977 95.1508 423.518 93.0553 421.131 91.5168C417.709 89.3416 416.276 89.7392 413.889 93.4795C411.289 97.6176 411.714 98.1484 416.993 98.1484C420.308 98.1484 423.625 97.3259 424.235 96.1853ZM548.697 93.4795C546.31 89.7392 544.851 89.3416 541.429 91.5168C535.832 95.0448 537.821 98.1484 545.594 98.1484C550.872 98.1484 551.297 97.6176 548.697 93.4795ZM411.926 81.4632C408.398 75.8661 398.769 75.9721 395.241 81.6753C393.065 85.3095 393.569 87.0602 398.556 90.9861C404.445 95.9731 404.445 95.9732 409.539 90.8801C413.571 86.848 414.101 84.8852 411.926 81.4632ZM447.445 94.1161C453.043 92.6572 453.042 92.5514 448.188 89.1294C443.837 86.1319 442.591 86.2378 438.24 90.6943C433.678 95.2568 433.678 95.7608 437.498 95.6547C439.885 95.6547 444.342 95.0446 447.445 94.1161ZM523.922 90.3762C520.5 86.8481 518.218 86.0255 517.608 87.8824C517.078 89.4474 514.823 90.88 512.541 90.9861C506.52 91.3045 516.574 95.3364 523.816 95.5486C529.307 95.6547 529.307 95.6549 523.922 90.3762ZM564.958 91.8349C571.59 85.2032 567.956 75.9722 558.539 75.9722C554.905 75.9722 549.096 82.6036 549.096 86.7418C549.096 88.8108 556.682 95.7611 558.963 95.7611C560.104 95.7611 562.783 94.0101 564.958 91.8349ZM479.887 92.6574C479.383 92.233 476.465 90.0577 473.68 87.6703C468.693 83.5321 468.295 83.5322 464.025 88.307C459.568 93.2675 459.674 93.2674 470.258 93.2674C476.067 93.2674 480.418 92.9757 479.887 92.6574ZM500.313 89.4476C495.326 85.9196 494.291 85.9196 489.331 89.4476C484.025 93.1613 484.237 93.2674 494.822 93.2674C505.485 93.2674 505.591 93.0552 500.313 89.4476ZM370.783 78.7574C376.672 75.362 373.781 75.362 360.199 78.7574C349.111 81.5692 349.111 81.5694 356.061 85.8137C362.587 89.7396 363.011 89.7393 364.656 85.6011C365.611 83.2137 368.396 80.1101 370.783 78.6777V78.7574ZM435.243 87.7764C439.275 83.7443 438.851 77.2188 434.182 73.3724C426.516 66.953 416.887 79.3941 423.412 87.1664C427.046 91.5167 431.184 91.8349 435.243 87.7764ZM540.102 87.1664C544.665 82.4977 542.676 74.2213 536.362 72.2318C527.237 69.3404 520.5 80.9324 527.344 87.8824C531.402 91.8348 535.646 91.6228 540.102 87.1664ZM463.732 82.816C465.695 79.7124 465.695 77.3248 463.732 74.2212C456.889 63.1331 441.954 72.046 448.082 83.532C451.292 89.5535 459.78 89.1293 463.732 82.816ZM488.482 83.6384C496.573 74.7255 484.025 63.1333 475.643 71.6218C471.611 75.5478 471.903 79.7918 476.572 84.4605C481.559 89.4475 483.309 89.3416 488.482 83.6384ZM514.08 85.389C521.534 77.9351 511.401 64.4594 503.31 71.1972C497.103 76.3964 500.605 88.307 508.377 88.307C509.942 88.307 512.436 87.0602 514.08 85.389ZM606.605 83.2139C610.027 83.0282 601.035 78.8634 596.658 78.6777C594.907 78.5716 594.297 80.1101 595.119 82.2853C595.941 84.4605 598.223 85.4953 600.186 84.779C602.149 84.0628 605.067 83.32 606.605 83.2139ZM578.434 73.2663C575.224 72.3379 570.449 71.5155 567.956 71.3033C563.924 71.0911 563.924 71.5157 567.452 74.9376C569.521 77.1128 571.272 79.898 571.272 81.1447C571.272 82.4976 574.296 81.5694 577.903 79.182C584.456 74.9377 584.455 74.9375 578.434 73.2663ZM393.171 75.9722C396.567 70.5873 395.745 70.269 383.94 72.6564C375.85 74.301 375.85 74.3008 381.765 77.537C389.431 81.7813 389.643 81.7815 393.171 75.9722ZM424.235 66.5287C423.943 66.0247 417.709 66.5286 410.573 67.4835C397.628 69.3404 397.628 69.4467 405.48 71.5157C409.831 72.7625 413.465 74.7255 413.465 75.9722C413.465 77.3251 416.064 75.866 419.168 72.8685C422.271 69.8444 424.553 66.9531 424.235 66.5287ZM558.963 70.5872C561.032 69.9506 556.682 68.6243 549.414 67.6693C542.172 66.7409 535.54 66.5287 534.798 67.2714C534.081 68.0937 535.328 68.6241 537.503 68.6241C539.678 68.6241 542.782 70.9852 544.241 73.797C546.734 78.3596 547.45 78.5715 551.191 75.3618C553.366 73.3723 556.867 71.1973 558.963 70.5872ZM446.729 68.6241C451.186 63.7432 451.079 63.6374 440.416 63.7435C429.54 63.8496 429.54 63.8493 435.641 68.6241C439.063 71.3033 441.954 73.4784 442.061 73.4784C442.167 73.4784 444.342 71.3033 446.729 68.6241ZM480.604 63.637C483.522 63.637 487.766 65.4939 490.153 67.5895C494.079 71.091 495.114 71.1972 499.782 67.8814C506.945 62.8148 501.851 61.2497 478.641 61.2497C459.17 61.2497 457.923 61.8864 464.449 69.022C468.401 73.3724 468.587 73.3724 471.903 68.6241C473.892 65.8123 477.712 63.637 480.604 63.637ZM531.8 65.7062C531.8 64.5655 527.238 63.637 521.534 63.637C511.587 63.637 511.507 63.8495 515.645 68.412C519.253 72.338 521.03 72.7625 525.885 70.4812C529.201 69.0222 531.8 66.8468 531.8 65.7062ZM487.341 888.562C492.435 882.328 489.517 873.733 481.957 872.805C473.15 871.876 469.224 883.468 476.465 888.774C482.169 893.018 483.734 892.912 487.341 888.562ZM463.626 884.317C465.483 881.293 465.271 879.118 462.99 876.333C458.242 870.63 448.692 871.346 446.729 877.473C443.413 888.031 457.711 893.84 463.626 884.317ZM515.539 885.75C518.139 878.906 517.184 875.086 512.223 872.38C505.061 868.667 496.042 877.686 499.782 884.715C502.886 890.631 513.47 891.241 515.539 885.75ZM436.888 878.508C436.888 871.982 436.065 871.16 429.54 871.16C424.446 871.16 421.98 872.486 421.343 875.59C419.778 883.575 422.908 887.527 430.15 886.678C435.853 886.068 436.888 884.821 436.888 878.508ZM541.641 883.574C545.169 879.33 542.994 870.948 537.715 868.879C532.436 866.889 524.452 871.664 524.452 876.943C524.452 886.174 535.753 890.631 541.641 883.574ZM409.645 879.967C417.603 871.16 405.189 859.435 396.674 867.924C391.076 873.521 395.029 884.715 402.483 884.715C404.048 884.715 407.257 882.54 409.645 879.967ZM567.558 873.627C567.558 866.995 566.736 866.173 560.184 866.173C555.117 866.173 552.623 867.526 552.013 870.63C550.448 878.72 553.552 882.646 560.82 881.824C566.523 881.108 567.558 879.861 567.558 873.627ZM612.096 876.227C693.957 847.525 752.926 806.488 808.473 739.243C842.135 698.525 876.142 630.431 885.665 584.328C887.31 576.052 887.31 576.052 882.137 581.224C879.352 584.01 875.824 586.397 874.365 586.397C872.932 586.397 873.436 588.174 875.612 590.243C882.668 597.379 878.317 611.067 868.98 611.067C864.842 611.067 864.311 611.677 866.593 613.958C873.437 620.802 867.017 638.203 857.68 638.203C854.682 638.203 854.47 638.84 856.751 641.121C862.242 646.506 860.173 655.419 852.613 659.77C846.406 663.298 845.557 664.942 846.698 671.892C847.838 678.922 847.122 680.487 840.384 684.333C834.363 687.728 832.612 690.434 832.612 696.244C832.612 705.05 828.765 709.613 821.524 709.613C817.067 709.613 816.457 710.86 817.279 716.643C818.526 724.945 812.717 731.895 804.52 731.895C799.772 731.895 799.136 732.93 800.064 739.031C800.913 744.628 799.772 747.122 794.679 750.438C791.151 752.719 786.8 753.965 784.944 753.329C782.556 752.4 781.946 753.647 782.768 757.679C784.015 764.523 775.818 773.754 768.577 773.754C764.942 773.754 763.59 775.399 763.59 779.643C763.59 787.124 757.913 791.766 749 791.58C743.403 791.368 742.156 792.19 743.084 795.718C744.65 801.713 737.594 808.239 729.503 808.345C724.543 808.345 722.049 810.334 719.263 816.329C716.027 823.173 714.276 824.314 706.822 824.102C699.554 823.784 697.91 824.738 697.591 828.983C697.087 836.224 689.819 840.787 681.649 838.93C677.086 838.002 674.805 838.4 674.805 840.575C674.805 849.594 658.014 856.756 653.557 849.594C652.204 847.525 651.17 848.559 650.241 852.697C648.384 860.364 639.047 865.351 631.699 862.433C627.136 860.788 625.678 861.504 623.396 866.385C621.115 871.452 618.117 873.017 610.769 872.911C610.027 872.911 607.029 872.195 603.926 871.24C599.894 870.019 598.435 870.629 598.435 873.335C598.435 875.404 596.472 878.19 594.084 879.543C586.71 883.893 594.403 882.434 612.096 876.227ZM383.41 874.37C390.891 866.889 380.731 853.52 372.64 860.152C369.006 863.176 367.865 872.805 370.783 875.696C373.356 878.296 380.2 877.579 383.41 874.37ZM594.402 871.77C600.185 862.539 585.888 852.697 579.468 861.504C575.33 867.208 575.33 868.773 580.185 873.521C585.066 878.402 590.768 877.686 594.402 871.77ZM452.75 865.643C453.36 865.245 449.62 864.926 444.66 864.926C436.357 864.926 435.853 865.351 438.639 869.807C441.557 874.37 441.954 874.37 446.729 870.417C449.435 868.136 452.114 865.961 452.75 865.643ZM477.394 868.136C477.925 867.738 474.821 867.526 470.258 867.526C463.308 867.526 462.592 868.03 465.271 871.24C467.765 874.264 469.117 874.37 472.327 871.876C474.608 870.205 476.784 868.56 477.394 868.136ZM500.207 869.489C505.485 864.21 505.486 864.21 499.57 865.749C496.254 866.704 491.506 867.42 488.8 867.42C484.132 867.42 484.132 867.526 488.8 871.054C494.928 875.59 493.973 875.802 500.207 869.489ZM530.765 863.573C530.659 863.388 525.884 863.786 520.208 864.422C509.836 865.457 509.836 865.563 514.903 869.701C519.996 873.733 520.393 873.733 525.486 868.879C528.484 866.067 530.765 863.68 530.765 863.573ZM428.293 864.316C430.786 863.388 430.362 862.857 426.728 862.751C423.837 862.539 417.921 861.823 413.465 861C405.48 859.329 405.48 859.329 411.396 865.457C416.064 870.311 417.921 870.948 420.919 868.561C422.908 866.995 426.224 865.032 428.293 864.316ZM359.377 864.714C363.515 857.048 354.92 848.453 347.254 852.591C341.445 855.615 340.41 862.433 344.973 866.995C349.536 871.558 356.273 870.523 359.377 864.714ZM550.979 865.033C554.4 859.648 553.552 859.329 541.854 861.717C534.081 863.282 534.081 863.282 539.678 866.385C547.451 870.63 547.45 870.63 550.979 865.033ZM619.046 864.422C622.786 858.507 618.118 851.451 610.451 851.451C606.207 851.451 604.35 853.016 603.714 857.154C602.149 868.56 613.157 873.839 619.046 864.422ZM398.663 861.398C404.154 858.189 404.34 857.791 399.883 857.685C397.204 857.685 392.429 856.836 389.219 856.013C383.834 854.581 383.622 854.873 386.726 859.754C390.572 865.961 390.678 865.961 398.663 861.398ZM575.622 860.152C579.044 854.661 577.293 853.944 566.921 856.756C561.643 858.188 561.537 858.507 565.675 861.61C571.484 865.961 572.015 865.855 575.622 860.152ZM522.065 859.966C588.991 851.663 639.577 833.015 695.734 795.718C724.648 776.646 765.367 738.421 786.508 710.648C825.158 659.77 850.013 600.297 859.032 537.8C862.03 516.977 863.701 510.664 865.876 512.521C867.945 514.165 870.014 513.555 872.72 510.663C876.248 506.711 876.248 505.783 872.084 500.716C867.521 495.119 867.521 495.119 866.381 500.716C865.77 503.82 865.239 501.857 865.16 496.472C865.16 491.06 865.664 487.957 866.3 489.734C867.123 491.803 869.192 490.769 872.614 486.418C877.68 479.972 877.681 479.972 872.402 474.693C867.123 469.521 867.123 469.521 866.805 478.009C866.699 482.784 865.054 471.696 863.277 453.446C857.282 392.726 848.979 362.698 823.911 311.183C773.643 207.677 673.452 130.272 556.47 104.462C531.694 99.0766 457.711 96.6893 430.362 100.536C379.988 107.565 334.415 122.712 292.662 146.321C144.67 229.853 69.3612 397.183 105.305 562.47C131.301 681.84 215.337 782.349 330.463 831.874C389.432 857.154 460.523 867.632 522.065 859.966ZM761.122 430.66C761.122 429.094 762.767 425.884 764.73 423.709C767.436 420.712 767.94 416.972 766.613 409.199L764.837 398.748L753.032 406.308C746.506 410.34 740.193 413.762 738.84 413.762C734.49 413.762 736.347 406.626 741.414 403.92C744.119 402.488 746.294 399.676 746.294 397.713C746.294 395.644 747.965 394.079 750.034 394.079C752.103 394.079 753.748 392.434 753.748 390.551C753.748 388.588 756.029 386.201 758.841 385.379C763.192 384.026 763.696 382.381 762.555 374.715C761.017 365.271 763.802 357.817 767.94 360.417C769.293 361.239 771.07 366.412 771.998 372.009C773.139 379.277 774.996 382.593 778.524 383.522C781.124 384.132 783.299 385.803 783.299 386.943C783.299 388.164 784.944 389.119 786.907 389.119C791.257 389.119 807.014 403.204 805.051 405.274C803.698 406.52 788.79 403.417 779.453 399.783C772.503 397.183 775.102 415.327 782.662 422.277C789.4 428.59 789.4 428.59 780.089 428.59C774.89 428.59 768.577 429.731 765.871 431.19C762.449 433.047 761.122 432.835 761.122 430.66ZM534.399 423.603C534.293 421.64 539.254 413.656 545.275 405.99L556.257 392.01L539.466 391.188C526.733 390.551 522.887 391.082 523.816 393.469C524.664 395.644 521.242 396.467 511.083 396.467C498.429 396.467 496.997 395.936 494.822 390.153C492.938 385.272 493.363 382.487 496.679 377.924C502.276 370.258 505.485 370.364 512.541 378.64C518.218 385.378 518.537 385.378 544.745 384.662C567.558 383.919 571.272 384.45 571.272 387.766C571.272 389.835 569.309 391.586 566.921 391.586C564.561 391.586 560.184 395.22 557.08 399.57C547.026 414.186 534.505 427.45 534.399 423.603ZM469.436 369.94C465.483 365.484 465.483 365.059 469.94 361.027C472.539 358.64 474.078 354.82 473.362 352.326C471.505 344.978 479.675 343.944 487.448 350.575C491.4 353.785 493.575 357.393 492.434 358.639C491.294 359.78 489.941 363.52 489.517 366.942C488.376 375.006 475.749 376.89 469.436 369.94ZM233.588 329.832C217.937 317.709 204.992 306.939 204.674 305.905C204.355 304.87 205.708 301.952 207.565 299.485C210.987 294.923 211.624 295.029 227.884 301.554C237.116 305.268 246.32 308.902 248.31 309.645C250.379 310.361 244.464 305.189 235.232 298.026C221.571 287.575 218.971 284.551 221.359 281.659C222.924 279.803 225.497 278.954 227.062 279.802C234.304 283.941 282.795 320.813 282.795 322.165C282.795 323.094 281.654 325.481 280.433 327.444C277.94 331.291 268.099 328.585 240.325 316.568C235.232 314.393 231.094 313.04 231.094 313.571C231.094 314.181 239.397 320.919 249.45 328.691C265.287 340.92 267.568 343.519 265.393 347.445C264.04 350.045 262.714 352.114 262.395 352.008C262.077 351.902 249.132 341.954 233.588 329.832ZM693.453 346.305C690.031 342.883 687.14 337.392 687.14 334.288C687.14 327.259 693.559 317.603 698.228 317.603C703.904 317.603 705.152 322.59 700.695 327.55C696.053 332.643 697.273 339.779 702.764 339.779C707.539 339.779 714.277 331.715 714.277 325.8C714.277 312.218 723.402 296.567 733.455 292.748C749.928 286.434 762.051 310.573 748.151 322.059C742.475 326.834 737.594 319.778 741.838 312.961C745.578 306.939 742.05 301.766 735.842 304.154C731.466 305.798 727.752 314.499 725.471 328.081C722.261 347.445 704.647 357.499 693.453 346.305ZM657.403 301.13L647.35 292.005L673.982 266.619L700.695 241.339L709.926 250.995C714.993 256.379 719.263 263.223 719.263 266.221C719.263 269.749 712.42 278.45 699.979 290.97C677.192 313.783 672.523 314.818 657.403 301.13ZM706.928 264.364C706.928 262.799 705.469 260.306 703.719 258.847C701.225 256.777 696.132 260.411 682.047 274.709C664.539 292.429 663.929 293.357 668.571 296.779C673.028 300.201 674.593 299.273 690.137 283.835C699.369 274.709 706.928 265.902 706.928 264.364ZM289.028 301.554C286.322 298.345 275.446 286.328 264.889 274.816L245.604 253.992L257.409 242.798C267.781 233.063 269.744 232.028 272.847 235.132C275.977 238.235 275.552 239.588 269.451 245.901C262.501 253.17 262.502 253.17 267.886 260.73C274.306 269.749 274.837 269.749 281.654 263.303C286.429 258.847 287.357 258.661 290.169 262.083C292.742 265.186 292.344 266.539 287.675 270.359C281.972 274.922 281.972 274.922 289.028 283.729C296.058 292.642 296.058 292.641 303.22 286.62C311.098 279.988 313.778 279.272 316.271 283.304C317.73 285.691 298.551 307.974 295.236 307.549C294.519 307.549 291.707 304.764 289.028 301.554ZM630.028 278.025C626.208 275.85 626.606 273.463 634.192 250.995C638.728 237.519 642.044 226.431 641.646 226.431C641.116 226.431 634.909 235.026 627.853 245.504C620.717 255.955 614.696 264.868 614.378 265.292C613.449 266.539 605.783 262.905 605.783 261.234C605.783 260.305 615.12 246.007 626.5 229.428C647.138 199.268 647.138 199.268 652.735 203.724C658.332 208.287 658.332 208.287 651.992 227.254C648.491 237.625 645.891 246.114 646.209 246.114C646.607 246.114 651.7 238.952 657.695 230.251C666.714 216.987 669.101 214.812 672.842 216.802C676.768 218.871 675.097 222.372 656.979 249.854C645.785 266.725 636.05 280.519 635.413 280.519C634.697 280.519 632.309 279.378 630.028 278.025ZM320.728 245.504C311.709 231.604 304.042 219.799 303.538 219.269C303.114 218.765 300.939 219.693 298.763 221.55C295.554 224.15 294.307 224.044 291.097 220.94C287.569 217.412 288.71 216.059 302.61 206.642C314.732 198.445 318.34 196.986 320.117 199.586C323.115 204.467 322.797 206.642 318.552 208.287C312.955 210.462 313.671 212.239 331.311 240.304C344.256 260.942 346.936 266.831 344.257 268.502C338.235 272.216 337.413 271.393 320.728 245.504ZM586.524 251.392C584.455 250.04 583.925 247.042 584.959 242.798C586.312 237.413 585.569 235.848 580.821 233.991C576.152 232.134 573.977 232.745 570.051 237.201C567.345 240.305 563.207 242.267 560.714 241.763C555.223 240.517 553.976 243.408 575.834 207.146C594.085 176.693 597.798 173.484 606.419 180.222C609.921 183.007 609.629 186.323 602.573 217.518C594.801 251.393 592.944 255.451 586.524 251.392ZM590.768 217.094C596.976 193.379 596.763 192.53 587.559 207.359C577.187 224.044 577.399 223.221 582.996 224.654C585.384 225.29 587.559 225.9 587.851 226.112C588.169 226.219 589.416 222.293 590.768 217.094ZM368.184 249.005C366.115 245.689 344.469 186.959 344.469 184.678C344.469 183.537 346.644 182.078 349.217 181.362C353.064 180.328 354.92 182.688 359.377 194.732C364.152 207.464 365.505 209.03 370.041 207.677C377.734 205.289 377.733 205.501 372.136 190.275C366.539 175.234 366.831 172.131 373.781 172.131C376.593 172.131 379.166 175.128 380.837 180.222C382.269 184.572 387.973 199.798 393.464 213.884C399.061 228.076 403.305 239.907 403.013 240.092C402.695 240.304 400.095 241.233 397.204 242.188C392.641 243.514 391.288 241.976 386.434 229.11C381.049 214.627 379.59 213.672 371.101 218.234C370.04 218.765 371.499 225.184 374.311 232.638C377.096 240.013 378.662 247.148 377.813 248.501C375.956 251.605 369.961 251.817 368.184 249.005ZM527.556 233.381C521.746 232.134 517.078 229.747 517.184 228.076C517.184 226.537 520.393 210.78 524.134 193.061C530.261 164.571 531.588 160.937 536.362 160.327C543.604 159.186 543.313 161.865 530.659 218.022C529.625 222.585 530.872 223.513 539.466 224.866C547.132 226.113 549.201 227.466 548.591 230.781C547.663 235.848 541.641 236.697 527.556 233.461V233.381ZM416.064 215.953C414.393 206.112 411.714 189.957 409.937 180.222C408.186 170.38 406.939 162.29 407.151 162.29C407.47 162.29 414.102 161.043 422.06 159.584C433.466 157.515 436.781 157.621 438.452 160.221C441.954 165.712 441.025 166.746 430.786 168.391C420.52 170.168 419.884 171.415 422.272 183.643C423.624 190.169 424.553 190.673 432.219 189.851C439.381 189.029 440.628 189.639 440.628 194.095C440.628 197.305 439.063 199.268 436.277 199.268C427.868 199.374 425.375 203.008 427.152 212.637C428.903 221.55 429.115 221.762 439.063 221.046C447.764 220.409 449.329 221.046 449.939 225.502C450.575 229.853 449.116 230.887 439.169 232.24C418.345 235.026 419.168 235.636 415.958 215.847L416.064 215.953ZM466.12 202.584C467.048 188.1 467.765 171.521 467.765 165.606C467.765 154.942 467.765 154.942 480.099 154.942C499.994 154.942 508.271 169.239 498.854 187.357C496.785 191.204 496.254 194.811 497.607 196.058C498.854 197.305 500.101 205.183 500.499 213.566C501.348 227.97 501.029 228.818 495.75 228.818C490.657 228.818 490.153 227.572 489.411 214.706C488.801 202.08 488.084 200.409 483.097 199.692C477.924 198.976 477.606 199.798 477.606 213.884C477.606 228.394 477.394 228.818 471.08 228.818C464.555 228.818 464.555 228.818 466.12 202.584ZM488.694 175.871C488.694 167.462 487.872 165.924 483.097 165.181C478.137 164.465 477.606 165.393 477.606 175.871C477.606 186.323 478.031 187.251 483.097 186.535C487.872 185.819 488.694 184.147 488.694 175.871ZM189.129 556.767C189.129 555.096 246.639 554.273 353.063 554.273C458.639 554.273 517.078 555.202 517.078 556.767C517.078 558.332 458.639 559.154 353.063 559.154C246.639 559.154 189.129 558.332 189.129 556.767ZM520.712 556.767C519.783 555.096 561.854 554.273 645.068 554.273C727.327 554.273 770.964 555.096 770.964 556.767C770.964 558.412 727.858 559.26 646.607 559.26C566.417 559.26 521.746 558.332 520.712 556.767ZM401.13 540.692C401.13 537.906 404.446 537.084 415.852 537.084C430.468 537.084 430.468 537.084 431.184 527.747L432.007 518.542H528.166L528.908 527.747C529.731 537.084 529.731 537.084 544.347 537.084C555.727 537.084 558.963 537.906 558.963 540.692C558.963 543.928 548.591 544.432 480.099 544.432C411.608 544.432 401.13 544.008 401.13 540.692ZM487.049 530.24C486.413 524.855 484.98 523.503 480.099 523.503C475.219 523.503 473.786 524.855 473.15 530.24C472.433 536.341 473.043 537.084 480.099 537.084C487.049 537.084 487.765 536.341 487.049 530.24ZM166.342 520.399C159.923 516.659 154.724 512.627 154.618 511.486C154.618 508.17 166.661 511.99 174.407 517.799C182.922 524.033 194.514 522.574 203.427 514.165C212.128 505.995 229.131 506.711 242.713 515.836C254.517 523.821 263.748 523.502 274.73 514.908C280.937 509.921 290.275 508.17 290.275 511.804C290.275 512.945 287.145 515.12 283.431 516.764C279.691 518.436 273.881 521.434 270.486 523.503C261.148 528.994 250.167 527.959 239.397 520.505C227.274 512.096 213.586 511.804 205.204 519.762C195.973 528.383 180.64 528.675 166.342 520.399ZM681.649 520.505C670.242 513.767 666.926 509.921 672.736 509.921C674.38 509.921 680.614 512.839 686.609 516.367C699.263 523.821 709.21 523.078 718.627 514.165C727.328 506.101 744.543 506.605 757.382 515.518C769.001 523.396 777.887 524.033 786.296 517.481C793.538 511.698 805.475 508.276 805.475 511.91C805.475 513.343 802.981 515.306 799.984 516.261C796.854 517.189 791.787 520.081 788.578 522.574C779.983 529.206 766.189 528.489 754.677 520.717C742.475 512.308 728.787 511.99 720.484 519.682C711.173 528.489 695.84 528.781 681.649 520.505ZM422.166 512.839C421.768 512.308 424.049 506.207 427.258 499.045C430.574 491.909 435.031 478.434 437.1 468.99C441.954 447.849 443.732 444.639 459.674 427.45C466.836 419.89 472.645 411.693 472.645 409.199C472.645 399.172 483.84 395.75 490.975 403.708C495.008 408.059 495.007 408.801 491.082 414.69C487.049 420.924 487.05 421.03 503.098 435.938C517.608 449.52 519.465 452.411 522.065 465.064C523.63 472.837 527.98 486.604 531.8 495.729L538.75 512.415L501.347 512.733C480.816 512.945 454.82 513.237 443.519 513.343C432.219 513.555 422.59 513.237 422.166 512.733V512.839ZM174.327 498.939C171.011 496.87 165.096 493.766 161.356 492.095C157.642 490.45 154.618 488.275 154.618 487.241C154.618 483.5 163.849 485.277 170.057 490.238C178.97 497.188 193.479 496.657 203.957 488.991C215.443 480.397 230.484 480.503 240.724 489.204C250.167 497.082 262.501 497.586 272.661 490.45C280.221 485.066 290.275 483.5 290.275 487.745C290.275 489.097 288.604 490.132 286.641 490.132C284.678 490.132 278.868 493.05 273.696 496.551C262.289 504.218 249.132 503.289 237.938 493.766C233.375 489.92 227.566 487.745 222.393 487.745C217.221 487.745 211.517 489.92 206.955 493.766C197.724 501.645 182.603 503.926 174.327 498.939ZM689.607 498.939C686.185 496.87 680.402 493.872 676.662 492.095C672.922 490.45 669.924 488.275 669.924 487.241C669.924 483.5 679.155 485.277 685.363 490.238C694.276 497.188 708.785 496.657 719.263 488.991C724.542 485.065 730.856 482.784 736.559 482.784C742.156 482.784 749.106 485.171 754.677 488.991C765.977 496.657 780.089 497.082 788.896 490.238C795.527 485.065 805.475 483.5 805.475 487.745C805.475 489.097 803.804 490.238 801.735 490.238C799.666 490.238 794.573 492.731 790.435 495.729C779.877 503.607 765.155 502.997 752.714 494.376C740.909 486.206 733.137 485.994 721.837 493.766C710.245 501.645 697.592 503.713 689.607 498.939ZM385.585 484.137L376.168 475.834L422.802 425.062L410.149 408.483C403.199 399.358 395.532 391.798 393.171 391.692C390.784 391.692 388.821 389.835 388.821 387.766C388.821 384.45 392.959 383.92 416.382 384.344C440.734 384.768 444.341 384.238 447.365 380.206C452.644 372.831 466.518 377.394 467.871 386.943C469.011 395.114 467.34 396.148 451.716 396.891C439.593 397.501 435.959 396.997 436.782 394.716C437.71 392.434 433.784 391.586 422.06 391.586C413.253 391.586 406.117 392.116 406.117 392.832C406.117 393.469 409.937 399.464 414.711 405.99C419.486 412.621 423.412 419.571 423.412 421.428C423.412 423.311 428.691 418.961 435.137 411.799C446.41 399.172 446.941 398.854 452.326 402.674C455.324 404.849 457.923 407.873 457.923 409.305C457.923 410.87 455.642 410.048 452.856 407.555C449.328 404.345 447.153 403.814 445.19 405.698C441.954 409.014 444.447 413.762 449.435 413.762C454.501 413.762 453.785 417.078 447.259 423.205C441.45 428.696 441.45 428.696 436.994 423.709C433.466 419.889 431.715 419.359 429.115 421.534C426.224 423.921 426.409 425.275 430.574 429.625C433.996 433.259 434.819 435.938 433.148 438.432C431.185 441.642 430.866 441.535 430.786 438.113C430.786 432.118 424.871 427.953 421.343 431.588C419.168 433.763 419.99 435.434 424.871 438.644C428.399 440.925 430.15 443.419 428.797 444.241C427.55 445.063 424.447 443.498 422.06 440.819C418.744 437.079 416.887 436.575 414.287 438.75C410.361 442.066 414.207 448.273 420.096 448.273C422.059 448.273 423.014 449.626 422.06 451.377C419.778 456.045 447.445 426.203 455.642 415.115C461.239 407.767 462.168 404.955 459.78 403.204C457.499 401.639 457.817 401.347 460.709 402.276C466.836 404.239 473.255 393.469 470.47 385.989C467.977 379.675 461.239 373.15 456.889 373.15C453.891 373.044 376.486 305.48 376.486 302.907C376.486 302.058 380.731 297.31 385.798 292.323L395.029 283.198L432.643 317.921C453.254 336.994 470.152 353.467 470.152 354.502C470.152 355.43 467.977 358.321 465.165 360.815C461.239 364.343 459.568 364.661 457.207 362.274C454.819 359.886 455.032 359.568 458.135 360.709C462.804 362.486 466.73 355.112 463.096 351.398C460.099 348.48 455.43 351.292 455.43 356.146C455.43 358.136 454.183 359.064 452.75 358.242C451.079 357.101 451.61 354.926 454.395 351.796C459.992 345.695 455.536 339.487 449.328 344.66C446.225 347.26 446.119 348.48 448.586 351.61C451.292 354.926 450.973 355.006 445.907 352.326C440.097 349.223 440.098 349.223 445.376 343.626C449.727 339.063 450.045 337.498 447.259 335.217C443.413 332.113 438.134 335.853 438.134 341.662C438.134 343.519 436.994 344.236 435.535 343.413C433.784 342.273 434.288 340.203 436.994 337.206C439.487 334.5 440.522 330.76 439.593 328.399C438.134 324.659 437.418 324.765 432.325 329.54C424.447 336.888 421.237 336.172 428.293 328.585C432.643 324.049 433.36 321.767 431.291 319.592C427.869 316.276 420.839 321.025 420.839 326.622C420.839 328.585 419.698 329.434 418.239 328.585C416.462 327.55 417.099 325.375 419.778 322.378C422.166 319.672 423.2 316.065 422.378 313.571C420.919 309.831 420.202 309.937 415.136 314.818C411.926 317.709 408.717 319.38 407.868 318.531C407.045 317.709 408.716 314.924 411.714 312.536C416.064 308.902 416.568 307.47 414.101 304.976C411.608 302.377 410.361 302.801 407.575 306.621C405.586 309.22 404.551 312.218 405.188 313.252C406.621 315.534 402.589 315.746 400.307 313.465C399.379 312.537 401.023 309.221 404.048 306.011C408.186 301.66 408.796 299.591 406.515 297.416C404.34 295.135 402.271 295.745 397.92 299.883C394.71 302.907 391.394 304.552 390.572 303.73C389.75 302.907 391.819 299.883 395.241 297.204C399.697 293.676 400.732 291.607 398.849 289.644C396.886 287.654 394.392 288.689 389.856 293.251C383.516 299.591 383.516 299.591 413.889 326.516C467.048 373.68 472.646 378.03 479.781 377.102C487.554 376.147 495.432 369.622 493.867 365.484C492.647 362.38 559.998 283.118 563.818 283.118C564.958 283.118 570.237 286.726 575.728 291.288L585.49 299.485L575.622 310.361C570.131 316.356 559.467 327.975 551.801 336.171C544.241 344.236 532.622 356.889 525.991 364.024C513.974 377.102 513.974 377.102 508.191 371.691C504.955 368.693 502.992 365.165 503.734 364.024C504.451 362.884 507.13 364.449 509.624 367.446C513.364 372.115 514.717 372.54 517.502 369.834C520.208 367.155 519.783 365.802 515.221 362.061C512.329 359.674 510.446 356.995 511.189 356.252C512.011 355.536 514.902 356.995 517.714 359.674C521.64 363.308 523.312 363.733 524.85 361.345C526.097 359.462 524.956 356.677 521.746 353.971C518.961 351.69 517.396 348.586 518.219 347.259C519.173 345.588 521.64 346.835 524.452 350.257C528.166 354.82 529.518 355.218 532.224 352.538C534.903 349.833 534.612 348.48 530.049 344.872C527.025 342.379 525.168 339.779 525.991 339.063C526.734 338.347 529.518 339.991 532.224 342.697C536.044 346.517 537.927 347.047 540.102 344.766C542.172 342.591 541.429 340.708 536.787 336.888C530.659 331.901 530.659 331.901 515.221 348.798C506.838 358.029 499.888 366.942 499.782 368.375C499.782 369.834 497.501 373.044 494.822 375.537C486.519 382.991 490.047 395.538 501.453 399.252C502.992 399.782 522.781 416.68 545.381 436.867L586.418 473.553L577.187 482.996C572.12 488.169 566.815 491.697 565.276 490.875C563.817 489.92 546.31 473.659 526.309 454.692C489.941 420.208 489.941 420.208 495.432 414.292C501.029 408.377 501.029 408.377 493.575 402.488C489.516 399.172 484.45 396.467 482.275 396.467C477.818 396.467 467.659 406.52 467.659 410.977C467.659 412.621 459.674 423.099 449.833 434.187C439.991 445.382 424.765 462.995 415.958 473.553C407.257 484.031 398.848 492.626 397.522 492.52C396.063 492.52 390.785 488.699 385.585 484.137ZM573.447 481.962C578.54 476.471 578.646 475.94 574.507 472.731C572.014 470.98 570.874 470.343 571.802 471.484C572.837 472.624 570.874 475.728 567.452 478.434C564.136 481.007 561.961 484.243 562.783 485.463C564.958 488.991 567.558 488.169 573.447 481.962ZM414.817 451.085C411.714 447.848 407.867 445.992 406.329 446.92C402.084 449.52 403.119 452.119 409.751 455.621C413.066 457.398 415.136 459.892 414.393 461.112C413.571 462.465 410.255 460.926 407.045 457.902C402.483 453.552 400.414 452.942 398.238 455.223C395.957 457.398 396.488 459.361 400.414 463.711C403.199 466.709 404.976 470.767 404.26 472.518C403.411 474.799 402.164 473.977 400.201 470.025C397.204 464.136 391.182 462.359 389.644 466.921C389.113 468.38 391.501 471.059 394.816 472.837C398.238 474.694 400.413 477.187 399.591 478.434C398.848 479.681 395.639 478.328 392.429 475.33C389.326 472.412 385.585 470.662 384.153 471.59C379.696 474.296 381.049 477.505 388.185 481.431C394.923 485.065 395.135 484.853 407.762 470.98C420.521 456.867 420.521 456.867 414.817 451.085ZM564.958 474.906C568.592 469.733 568.274 468.884 559.891 460.289C551.085 451.27 547.344 450.554 539.784 456.364C537.397 458.22 537.397 459.573 539.572 462.253C542.066 465.17 543.312 464.958 547.875 460.714C550.766 457.902 553.87 456.364 554.693 457.186C555.648 458.008 553.87 460.82 550.872 463.207C546.31 466.921 545.992 468.168 548.697 470.98C551.376 473.659 552.729 473.261 556.363 468.698C558.857 465.78 561.43 463.924 562.279 464.746C563.101 465.489 561.324 468.062 558.539 470.343C555.541 472.73 554.082 475.834 555.011 477.505C557.716 481.75 560.714 480.927 564.958 474.906ZM545.594 450.13C546.84 451.164 545.063 448.803 541.747 444.957C533.869 436.044 499.782 405.989 504.769 412.435C508.085 416.68 508.085 416.972 504.239 415.645C498.536 413.47 492.938 420.287 497.103 424.346C499.464 426.733 501.135 426.097 504.663 421.746C507.342 418.43 509.942 417.184 510.87 418.643C511.693 419.996 511.401 421.136 510.048 421.136C506.626 421.136 504.132 429.015 506.838 431.588C508.191 433.047 510.446 431.906 512.541 429.015C515.645 424.558 516.361 424.452 520.818 427.874C524.452 430.765 524.665 431.376 521.534 430.235C515.752 428.272 510.26 435.116 514.398 439.148C516.786 441.429 518.431 440.925 521.959 436.575C524.558 433.471 527.131 431.906 527.98 433.153C528.696 434.294 527.025 437.291 524.452 439.678C520.712 443.1 520.208 444.851 522.383 447.451C525.592 451.377 531.8 447.557 531.8 441.641C531.8 439.678 533.046 438.856 534.505 439.784C536.15 440.819 535.646 442.994 532.941 445.992C530.553 448.591 529.413 452.305 530.341 454.692C531.8 458.433 532.516 458.327 537.609 453.552C540.713 450.66 544.347 449.095 545.594 450.13ZM443.731 414.902C440.628 412.621 438.452 412.436 436.277 414.292C433.784 416.362 434.103 417.502 437.498 419.996C440.628 422.277 442.803 422.462 444.978 420.606C447.445 418.643 447.153 417.396 443.731 414.902ZM548.061 334.501C549.096 332.856 547.556 329.725 544.665 327.365C541.747 325.083 540.103 322.59 540.819 321.767C541.641 321.025 544.559 322.59 547.345 325.163C552.411 329.938 552.517 329.938 559.573 323.2C566.629 316.356 566.63 316.356 560.396 310.971C556.868 307.974 555.117 304.87 556.47 304.048C557.822 303.199 558.963 303.623 558.963 305.082C558.963 309.008 568.99 313.571 571.696 310.785C573.261 309.22 571.908 306.621 567.876 303.517C564.454 300.732 562.279 297.814 563.207 296.992C564.03 296.063 567.346 297.814 570.555 300.838C574.8 304.764 576.975 305.48 579.044 303.411C581.14 301.448 579.999 299.167 575.012 294.817C568.168 288.901 568.168 288.901 556.868 301.448C540.209 319.884 530.341 331.397 532.835 329.328C534.081 328.293 536.681 329.726 538.538 332.431C542.464 338.028 545.488 338.639 548.061 334.501ZM553.366 319.884C550.978 318.452 547.875 318.134 546.31 319.062C544.851 319.884 545.593 317.815 547.875 314.181C551.907 308.186 556.258 304.658 552.729 310.361C551.801 311.82 553.048 315.136 555.435 317.815C560.183 323.094 559.785 323.624 553.366 319.884ZM168.73 470.449C165.308 467.744 160.745 465.568 158.57 465.568C156.395 465.568 154.618 464.428 154.618 463.101C154.618 458.751 166.024 460.502 170.693 465.568C177.112 472.731 192.233 472.12 202.498 464.348C208.308 459.892 213.586 458.114 221.571 458.114C229.449 458.114 234.941 459.892 240.936 464.348C250.379 471.271 265.605 472.624 270.38 466.921C274.306 462.173 287.251 457.796 289.028 460.714C289.744 461.961 286.641 464.534 281.972 466.417C277.41 468.38 272.847 471.166 271.919 472.731C268.603 478.009 247.355 475.834 238.468 469.202C233.481 465.568 226.743 463.101 221.783 463.101C216.69 463.101 210.271 465.489 205.39 469.202C195.045 477.187 177.934 477.691 168.73 470.449ZM684.01 470.449C680.615 467.744 675.945 465.568 673.876 465.568C671.701 465.568 669.924 464.428 669.924 463.101C669.924 458.937 678.731 460.29 685.363 465.568C694.276 472.518 708.07 472.014 717.168 464.348C722.765 459.573 727.328 458.114 736.453 458.114C745.578 458.114 750.14 459.573 755.737 464.348C764.942 472.014 778.63 472.518 787.543 465.568C794.175 460.396 805.475 458.857 805.475 463.101C805.475 464.428 803.592 465.568 801.205 465.568C798.844 465.568 794.069 467.85 790.753 470.449C781.521 477.612 764.333 477.081 753.748 469.202C748.47 465.382 742.05 463.101 736.453 463.101C730.856 463.101 724.542 465.382 719.263 469.202C708.679 477.081 693.029 477.612 684.01 470.449ZM189.129 430.978C187.166 429.731 181.887 428.59 177.431 428.59C168.199 428.59 167.377 426.415 174.327 420.499C180.322 415.433 181.569 397.607 175.866 399.783C164.671 404.027 151.939 406.945 150.48 405.486C148.198 403.31 163.743 389.119 168.306 389.119C170.269 389.119 171.94 388.164 171.94 386.943C171.94 385.803 174.115 384.132 176.794 383.522C180.004 382.673 181.781 380.099 181.781 376.359C181.887 366.836 184.566 359.568 188.201 359.568C190.588 359.568 191.622 362.884 191.622 370.868C191.622 382.275 198.679 393.867 205.496 393.973C207.061 394.079 208.917 395.936 209.766 398.323C210.589 400.711 212.552 404.557 214.197 406.944C219.714 414.398 214.515 414.292 202.286 406.626L190.376 399.172L188.307 409.199C186.741 417.078 187.166 420.102 190.482 423.709C195.442 429.306 194.514 434.506 189.129 430.978ZM452.937 846.278C361.234 838.294 284.148 802.562 219.794 738.209C127.587 645.976 91.2189 519.046 121.274 394.901C150.904 272.64 244.676 170.46 362.905 131.625C405.905 117.513 425.481 114.622 480.099 114.622C534.399 114.622 554.294 117.513 596.259 131.307C636.978 144.676 706.928 183.935 706.928 193.485C706.928 195.554 707.963 196.588 709.21 195.766C712.419 193.777 737.063 215.741 756.958 238.235C810.966 299.485 842.347 373.866 848.661 455.541C850.12 474.189 849.907 476.046 846.193 474.587C843.912 473.765 840.994 473.049 839.774 473.049C838.633 473.049 837.573 467.24 837.573 460.077C837.493 427.45 823.699 370.868 806.696 333.466C791.257 299.592 768.577 265.796 740.485 234.813C732.925 226.537 727.54 218.871 728.574 217.836C729.503 216.696 729.105 216.484 727.646 217.306C726.187 218.128 719.052 213.884 711.677 207.783C663.399 168.099 604.032 140.007 543.923 128.707C512.542 122.818 448.294 122.818 416.382 128.707C263.005 157.196 144.166 282.164 124.882 435.116C120.425 470.025 123.237 526.818 130.797 559.366C164.671 703.91 284.147 812.298 432.749 833.227C459.488 836.941 529.412 834.766 553.366 829.381C650.665 807.629 733.747 748.766 787.119 663.801C815.21 619.051 837.493 547.429 837.573 501.857C837.573 493.342 838.421 490.132 840.596 490.954C842.347 491.485 843.381 494.27 842.983 497.082C842.559 499.867 843.382 502.891 844.841 503.82C848.766 506.207 847.944 522.786 842.347 550.347C827.837 621.837 797.385 679.665 746.294 732.718C709.502 771.049 659.871 806.17 650.029 800.891C647.138 799.326 645.255 799.246 645.255 800.679C645.255 801.926 646.607 803.491 648.384 803.995C657.589 807.204 588.275 832.909 551.297 840.071C526.096 844.925 474.715 848.135 452.937 846.278ZM353.912 744.442C353.912 725.767 354.416 723.407 358.474 723.407C361.472 723.407 363.753 726.298 365.504 732.717L368.104 741.949L368.422 732.717C368.607 726.298 369.854 723.407 372.348 723.407C376.486 723.407 377.123 731.073 374.523 752.506C372.56 768.767 368.926 768.051 363.435 750.331L359.297 736.962L359.085 751.154C358.979 758.926 357.732 765.372 356.379 765.372C354.947 765.372 353.912 756.75 353.912 744.442ZM383.542 744.442C383.542 732.107 384.47 723.407 385.929 723.407C387.362 723.407 388.423 730.861 388.423 740.702C388.423 757.493 388.609 757.997 394.63 757.997C398.45 757.997 400.732 759.35 400.732 761.632C400.732 764.231 398.158 765.372 392.137 765.372C383.542 765.372 383.542 765.372 383.542 744.442ZM426.648 757.387C427.47 752.931 428.929 743.806 429.858 736.962C431.317 727.014 432.643 724.548 436.807 723.911C441.37 723.301 442.299 725.263 445.508 743.699C448.93 763.196 447.471 771.367 442.192 761.95C439.381 756.963 432.855 756.751 432.855 761.632C432.855 763.701 431.104 765.372 429.035 765.372C426.011 765.372 425.507 763.595 426.648 757.387ZM440.017 747.44C439.805 745.769 438.877 741.63 437.948 738.208C436.277 732.611 436.065 732.824 434.924 741.312C434.102 747.838 434.738 750.544 437.02 750.544C438.77 750.544 440.123 749.191 440.017 747.44ZM455.032 744.442C455.032 725.582 455.456 723.407 459.594 723.407C464.369 723.407 467.26 729.614 467.26 740.171C467.26 743.381 468.401 745.264 469.754 744.442C471.106 743.593 472.247 740.277 472.247 737.068C472.247 728.049 474.82 723.486 479.913 723.486C484.157 723.486 484.582 725.476 484.582 744.442C484.582 761.419 483.945 765.372 480.842 765.372C478.136 765.372 477.102 762.348 476.996 753.647C476.81 741.02 475.961 741.63 473.574 756.247C471.611 767.733 466.756 767.229 464.581 755.318C463.016 746.909 463.016 746.909 462.698 756.141C462.486 762.56 461.265 765.372 458.666 765.372C455.668 765.372 455.032 761.419 455.032 744.442ZM495.564 763.488C490.895 760.279 489.33 753.037 493.283 753.037C495.246 753.037 496.891 754.178 496.891 755.504C496.891 756.857 498.562 757.997 500.631 757.997C506.228 757.997 505.087 752.108 498.137 745.662C489.012 737.068 490.789 721.019 500.949 721.019C504.477 721.019 511.719 727.757 511.719 731.073C511.719 734.495 504.875 733.752 503.628 730.224C502.806 728.049 501.665 727.863 499.596 729.826C497.527 731.789 498.668 734.787 504.265 741.843C512.435 752.188 512.86 753.647 509.119 760.597C506.546 765.372 500.312 766.698 495.458 763.488H495.564ZM542.702 753.647C550.05 730.118 550.05 728.367 542.914 728.367C539.28 728.367 536.388 727.333 536.388 726.192C536.388 723.407 540.951 721.842 548.697 722.054C554.003 722.16 554.825 723.301 554.506 729.614C554.002 742.161 546.124 765.372 542.49 765.372C539.598 765.372 539.704 763.488 542.702 753.647ZM566.417 762.348C563.022 758.926 562.491 750.544 565.701 750.544C566.947 750.544 568.512 752.188 569.335 754.284C571.616 760.172 575.754 758.528 575.754 751.79C575.754 748.368 574.72 745.662 573.367 745.662C572.014 745.662 570.873 744.018 570.873 741.949C570.873 739.88 572.014 738.208 573.367 738.208C574.72 738.208 575.754 736.033 575.754 733.354C575.754 730.542 574.72 728.367 573.367 728.367C572.014 728.367 570.873 729.508 570.873 730.861C570.873 732.214 569.228 733.354 567.159 733.354C561.774 733.354 562.597 726.51 568.406 723.407C571.828 721.629 574.826 721.523 578.035 723.407C582.067 725.476 582.81 728.579 582.81 742.559C582.704 751.684 581.563 760.597 580.211 762.242C577.001 766.194 570.263 766.3 566.417 762.454V762.348ZM593.262 763.09C589.946 760.915 589.628 757.599 591.193 734.574C591.803 725.051 592.121 724.627 600.53 724.627C609.124 724.627 609.125 724.627 609.523 741.843C610.053 763.382 604.774 770.332 593.262 763.09ZM602.891 751.578C602.891 743.912 597.108 744.734 595.967 752.612C595.437 756.14 596.471 757.997 599.071 757.997C601.564 757.997 602.891 755.716 602.891 751.578ZM602.891 733.142C602.891 730.542 601.246 728.367 599.283 728.367C595.543 728.367 594.084 735.927 597.108 739.031C599.681 741.524 602.891 738.315 602.891 733.142ZM405.718 743.195C405.718 741.843 408.504 740.702 411.82 740.702C415.242 740.702 418.053 741.843 418.053 743.195C418.053 744.522 415.242 745.662 411.82 745.662C408.504 745.662 405.718 744.522 405.718 743.195ZM516.68 743.195C516.68 741.843 519.385 740.702 522.807 740.702C526.229 740.702 529.014 741.843 529.014 743.195C529.014 744.522 526.229 745.662 522.807 745.662C519.385 745.662 516.68 744.522 516.68 743.195ZM390.28 698.418C391.208 694.89 390.174 691.999 387.176 689.824C382.905 686.72 383.011 686.508 389.245 686.508C394.418 686.508 395.877 685.262 395.983 680.911C396.169 675.42 396.169 675.42 398.875 680.911C400.334 684.015 403.756 686.508 406.329 686.508C410.573 686.508 410.785 687.012 407.894 690.54C406.037 692.821 404.896 696.88 405.294 699.666C406.116 703.91 405.612 704.228 402.403 701.628C399.591 699.241 397.309 699.135 393.808 701.018C389.537 703.3 389.139 702.981 390.28 698.418ZM430.68 699.666C431.211 696.88 430.07 692.821 428.213 690.54C425.189 687.012 425.401 686.508 429.646 686.508C432.351 686.508 435.773 684.015 437.206 680.911C439.911 675.42 439.911 675.42 440.017 680.911C440.229 685.262 441.662 686.508 446.967 686.508C453.386 686.614 453.493 686.826 449.222 690.036C446.119 692.424 445.19 695.103 446.437 698.843C447.896 703.591 447.578 703.909 442.697 701.336C438.665 699.135 436.595 699.135 433.704 701.628C430.467 704.228 429.964 704.016 430.68 699.666ZM471.611 698.418C472.539 694.89 471.398 691.999 468.507 689.824C464.157 686.614 464.157 686.508 469.435 686.508C472.857 686.508 475.669 684.439 476.89 680.911C478.985 675.42 478.985 675.42 480.736 680.911C481.77 684.333 484.476 686.508 487.473 686.508C491.93 686.508 492.142 687.012 489.224 690.54C487.368 692.821 486.227 696.88 486.651 699.666C487.473 703.91 486.943 704.228 483.733 701.628C480.948 699.241 478.667 699.135 475.139 701.018C470.894 703.3 470.47 702.981 471.611 698.418ZM512.965 698.737C514.106 695.103 513.284 692.424 510.048 690.036C505.804 686.826 505.804 686.614 511.189 686.508C514.717 686.508 517.528 684.439 518.855 680.911C520.844 675.42 520.844 675.42 522.595 680.911C523.735 684.333 526.335 686.402 529.545 686.402C534.399 686.402 534.399 686.72 530.579 691.071C527.873 693.962 527.051 697.278 528.192 700.275C529.757 704.44 529.439 704.546 525.486 701.416C521.985 698.525 520.207 698.419 516.281 700.912C511.719 703.697 511.4 703.512 512.965 698.737ZM189.129 640.909C189.129 636.453 222.5 635.922 493.045 635.922C734.172 635.922 770.964 636.453 770.964 639.557C770.964 642.66 732.527 643.084 480.099 643.084C318.234 642.978 189.129 642.05 189.129 640.909Z" fill="#383B40"/>
</svg>
