<svg width="961" height="963" viewBox="0 0 961 963" fill="none" xmlns="http://www.w3.org/2000/svg">
<path fill-rule="evenodd" clip-rule="evenodd" d="M144.977 724.287C142.258 720.17 142.409 719.717 147.338 714.995C153.022 709.538 153.173 710.727 144.467 698.245C144.24 697.961 141.143 698.925 137.536 700.398C131.267 703.041 130.964 702.966 128.169 698.698C126.545 696.186 125.507 693.901 125.884 693.523C126.243 693.165 139.519 687.934 155.382 681.947C184.163 670.956 184.162 670.956 188.223 675.904C190.432 678.623 192.264 681.211 192.264 681.72C192.189 682.91 150.812 727.459 149.113 728.139C148.376 728.422 146.544 726.647 144.977 724.287ZM169.848 692.277C174.796 687.197 177.591 683.42 176.118 684.024C156.043 691.39 151.926 694.638 156.647 699.359C159.82 702.532 160.103 702.38 169.848 692.277ZM793.345 704.968C780.05 696.035 768.852 688.368 768.474 688.066C767.001 686.517 782.788 665.65 786.263 664.535C795.838 661.514 809.491 669.483 809.491 678.114C809.491 680.474 810.606 680.984 814.062 680.323C817.159 679.738 821.597 681.286 827.715 685.12C832.663 688.217 837.516 690.729 838.48 690.729C840.991 690.729 836.856 697.886 833.683 699.132C832.21 699.661 827.999 698.188 824.316 695.752C814.062 689.029 811.626 688.595 807.716 692.579C802.636 697.584 802.995 698.32 813.986 705.931C819.444 709.689 823.882 713.22 823.882 713.9C823.806 715.298 819.311 721.341 818.348 721.341C817.971 721.341 806.696 713.976 793.345 704.968ZM799.539 686.593C800.785 682.835 800.483 681.06 797.915 678.189C793.402 673.241 788.907 673.619 784.413 679.303C780.655 684.081 780.655 684.081 787.434 688.217C795.479 693.165 797.254 692.938 799.539 686.593ZM711.385 690.577C710.498 687.783 712.122 684.534 717.731 677.962C739.637 651.921 763.016 609.581 773.271 577.118C784.564 541.577 787 524.6 787 481.958C786.924 446.7 786.471 441.318 782.052 420.885C779.389 408.648 777.614 398.091 778.143 397.582C780.05 395.655 785.074 400.452 786.547 405.607C795.555 437.56 798.274 492.741 792.665 528.358C785.376 574.172 769.871 614.831 745.17 652.959C736.691 666.009 714.766 694.336 713.142 694.336C712.859 694.336 712.046 692.655 711.385 690.577ZM117.103 675.319C112.155 671.844 107.736 663.516 107.736 657.756C107.736 650.75 113.93 644.763 130.379 635.774C148.093 626.105 155.911 625.067 162.691 631.412C172.209 640.42 172.058 652.374 162.313 660.041C157.233 664.026 157.233 664.026 154.06 660.041C149.849 654.885 150.076 653.922 155.382 651.486C160.84 648.974 161.501 641.383 156.572 638.645C150.227 635.264 118.501 653.035 118.501 659.965C118.501 665.65 123.222 668.237 128.83 665.65C132.966 663.799 133.986 663.95 135.988 666.613C139.595 671.617 138.783 673.978 132.589 676.131C124.997 678.775 121.824 678.623 117.103 675.319ZM828.452 659.229C816.573 652.808 805.941 647.577 804.846 647.577C803.807 647.577 801.975 649.56 800.861 651.996C798.652 656.868 795.328 657.756 791.929 654.432C790.38 652.884 791.645 649.05 797.254 638.72C806.394 621.686 806.545 621.535 811.116 624.047C814.723 625.954 814.722 626.332 812.079 630.392C810.53 632.828 809.718 635.623 810.379 636.662C810.964 637.625 821.219 643.441 833.022 649.428C844.825 655.471 854.494 661.363 854.494 662.628C854.494 663.799 853.53 666.16 852.284 667.859C850.207 670.522 847.922 669.71 828.452 659.229ZM892.49 629.655C890.79 628.617 891.375 624.859 894.85 614.076C931.505 499.748 918.381 370.501 859.574 267.881C809.643 180.691 734.104 114.821 639.907 76.3905C633.335 73.7278 631.201 69.5356 635.11 67.0995C636.205 66.4196 637.98 66.7973 639.095 67.9115C640.19 68.9313 642.778 69.8943 644.76 69.8943C654.278 69.8943 725.474 109.212 743.83 124.622C748.343 128.399 748.777 129.494 746.568 130.911C745.17 131.855 744.509 133.196 745.246 133.932C745.907 134.593 747.682 134.14 749.23 132.894C752.46 130.155 767.152 141.373 791.645 165.432C910.033 281.535 953.053 453.272 903.99 614.453C899.628 628.843 896.909 632.375 892.49 629.655ZM452.533 959.76C452.004 958.211 449.436 957.04 446.849 957.04C444.186 957.04 442.638 957.853 443.299 958.797C444.772 961.233 436.084 961.157 417.71 958.589C403.47 956.587 402.961 956.361 403.905 952.244C405.246 947.145 400.808 946.56 391.007 950.695C385.171 953.131 383.188 952.905 363.643 948.033C287.292 929.148 210.054 887.469 154.57 835.234C145.657 826.831 138.782 819.088 139.387 818.125C140.199 816.878 140.935 816.878 141.672 818.049C142.843 820.051 146.167 820.788 151.473 820.485C156.572 820.127 153.985 816.142 148.225 815.33C145.355 814.952 142.031 813.252 140.784 811.628C138.934 809.136 137.839 808.984 134.949 810.684C130.889 813.177 128.453 811.704 131.266 808.399C132.74 806.548 131.776 805.661 127.206 804.471C118.652 802.261 92.0241 768.628 67.4551 729.008C59.6369 716.468 40.1669 676.414 33.2929 658.87C-3.13568 566.052 -10.0101 458.806 14.3511 362.248C20.3187 338.567 32.4807 303.517 35.068 302.554C37.9573 301.458 48.1361 303.158 51.6676 305.367C53.5938 306.614 52.6304 311.052 46.5873 328.313C38.4669 351.39 30.8001 381.718 25.5501 411.745C20.8289 438.656 20.8289 520.615 25.5501 549.471C38.5428 628.919 68.6449 699.944 115.403 761.773C148.376 805.359 195.663 847.188 245.387 876.63C358.242 943.614 492.285 959.326 617.396 920.291C625.668 917.723 625.951 917.723 625.951 921.178C625.951 923.18 627.141 925.163 628.538 925.749C632.145 927.165 656.563 914.021 656.563 910.697C656.563 908.488 656.053 908.412 653.919 910.188C652.446 911.377 650.218 911.963 648.972 911.51C646.687 910.641 663.437 902.294 671.614 900.235C678.337 898.536 681.586 905.315 675.373 908.129C670.293 910.49 669.707 914.172 673.824 917.572C676.411 919.706 676.411 920.14 673.691 922.142C671.992 923.388 669.48 923.992 668.083 923.388C666.742 922.878 665.571 923.256 665.571 924.2C665.571 928.562 605.084 947.674 570.185 954.302C529.394 962.045 454.818 965.52 452.608 959.76H452.533ZM357.807 936.456C357.807 934.53 354.332 933.718 353.388 935.418C352.708 936.456 353.464 937.268 355.012 937.268C356.561 937.268 357.807 936.891 357.807 936.456ZM437.916 923.464C284.119 908.563 147.338 812.894 80.5801 673.619C51.5921 613.131 39.6382 562.369 38.0141 492.59C36.9943 448.325 38.467 428.477 45.6243 392.86C53.8769 351.994 72.6864 298.437 78.9561 298.437C83.5451 298.437 85.018 295.396 81.3922 293.338C78.7483 291.865 79.5604 289.429 88.4739 272.829C147.489 162.845 250.995 81.3951 370.573 50.9341C409.438 41.0574 431.061 38.5457 478.424 38.4702C525.636 38.3946 542.16 40.1699 580.439 49.2346C613.941 57.1284 623.893 60.6028 627.141 65.4751C628.765 67.9679 629.653 70.404 629.048 70.9328C628.538 71.4427 618.945 69.0068 607.728 65.5509C534.7 42.7571 453.118 40.0943 378.543 58.0914C231.374 93.5757 112.457 204.013 66.2841 348.217C25.9275 474.14 44.6611 610.771 117.405 721.265C237.04 903.03 474.874 968.031 670.066 872.418C748.418 833.988 816.8 770.327 857.95 697.451C861.122 691.767 864.597 687.556 865.56 688.141C866.523 688.746 867.109 688.141 866.807 686.819C866.146 683.873 885.106 640.344 887.013 640.344C893.075 640.344 893.661 642.346 890.262 651.259C875.361 690.37 843.654 740.301 808.981 779.033C785.961 804.773 735.577 847.264 728.118 847.264C726.361 847.264 724.945 848.302 724.945 849.549C724.945 852.363 707.174 863.486 702.831 863.486C701.131 863.486 699.715 864.241 699.715 865.185C699.715 869.548 656.488 889.981 623.005 901.331C592.695 911.661 552.622 920.442 525.183 922.878C517.213 923.539 444.035 924.068 437.916 923.464ZM686.514 912.926C687.119 911.453 686.666 909.149 685.551 907.827C684.456 906.505 684.078 904.881 684.758 904.296C685.343 903.616 683.719 902.369 681.132 901.331C678.47 900.386 676.336 899.197 676.336 898.762C676.336 896.836 707.608 881.351 709.837 882.163C711.234 882.673 712.33 882.087 712.33 880.765C712.33 879.424 717.429 875.364 723.623 871.682C729.741 867.999 735.728 864.449 736.823 863.788C744.566 859.067 777.029 832.741 789.134 821.448C797.179 813.857 804.619 807.644 805.733 807.644C806.829 807.644 807.716 806.624 807.716 805.359C807.716 804.112 810.662 800.279 814.364 796.804C822.994 788.702 844.315 763.019 854.343 748.705C859.725 741.037 863.407 737.506 865.995 737.506C868.808 737.43 869.167 737.053 867.392 735.882C865.485 734.692 867.033 730.783 874.549 717.941C879.875 708.877 884.728 701.493 885.408 701.493C886.069 701.493 887.618 704.382 888.713 707.914C889.903 711.464 891.149 714.032 891.602 713.598C891.961 713.22 890.998 709.255 889.525 704.817C886.73 696.696 886.73 696.696 895.587 678.85C902.593 664.687 913.055 639.022 918.305 623.008C918.966 621.025 936.585 621.025 938.663 623.084C942.496 626.917 910.562 703.041 901.12 712.484C899.043 714.561 897.872 716.62 898.382 717.205C900.818 719.566 873.737 760.734 853.096 786.115C840.613 801.374 840.614 801.374 832.134 800.788C823.504 800.279 818.499 802.488 818.499 806.983C818.499 808.531 820.482 809.494 823.806 809.494C826.752 809.494 829.547 810.155 830.076 810.967C830.888 812.44 803.222 839.219 791.929 847.849C789.285 849.927 786.622 852.136 786.112 852.721C785.659 853.382 779.975 858.028 773.648 863.202C762.204 872.267 757.332 874.496 757.332 870.435C757.332 866.602 740.657 869.774 732.631 875.081C724.435 880.463 718.902 891.454 723.037 894.041C725.398 895.439 714.105 903.03 709.61 903.03C708.288 903.03 706.513 904.069 705.701 905.315C704.304 907.468 689.328 915.645 686.741 915.645C686.08 915.645 685.929 914.399 686.514 912.926ZM746.568 861.729C746.568 860.766 745.322 860.464 743.83 860.993C742.357 861.578 741.11 862.39 741.11 862.749C741.11 863.127 742.357 863.429 743.83 863.429C745.322 863.429 746.568 862.693 746.568 861.729ZM804.997 827.491C805.658 826.472 804.77 825.66 803.222 825.66C801.598 825.66 800.786 826.472 801.447 827.491C802.032 828.455 802.844 829.267 803.222 829.267C803.581 829.267 804.392 828.455 804.997 827.491ZM814.949 818.502C814.949 816.501 814.288 814.877 813.476 814.877C812.74 814.877 811.928 816.501 811.852 818.502C811.625 820.41 812.287 822.034 813.25 822.034C814.137 822.034 814.949 820.41 814.949 818.502ZM827.942 792.611C829.698 791.271 831.114 789.288 831.114 788.098C831.114 785.001 827.337 785.662 824.618 789.212C820.18 795.029 822.182 796.955 827.942 792.611ZM878.836 742.888C879.421 741.925 879.119 741.113 878.1 741.113C877.136 741.113 875.815 741.925 875.21 742.888C874.549 743.851 874.851 744.663 875.89 744.663C876.834 744.663 878.175 743.851 878.836 742.888ZM876.986 733.88C878.383 731.595 876.022 731.595 872.491 733.88C870.206 735.353 870.206 735.655 872.85 735.655C874.474 735.655 876.4 734.919 876.986 733.88ZM903.103 691.616C903.103 690.068 901.479 688.878 899.496 688.878C897.494 688.878 895.87 690.068 895.87 691.616C895.87 693.089 897.494 694.279 899.496 694.279C901.479 694.279 903.103 693.089 903.103 691.616ZM562.442 885.543C561.932 884.807 559.345 873.306 556.531 860.105C551.527 836.046 551.527 836.046 544.804 837.009C538.836 837.746 538.024 837.463 537.287 833.402C536.324 828.304 535.663 828.681 555.587 824.772C567.975 822.412 570.997 822.261 572.243 824.168C574.906 828.455 573.867 830.381 567.749 832.062L561.781 833.761L567.163 858.557C570.109 872.192 572.186 883.636 571.809 883.938C569.883 885.694 563.178 886.808 562.442 885.543ZM364.455 878.405C362.018 877.725 361.415 876.327 362.151 872.72C364.228 862.239 367.099 839.748 366.438 839.087C366.079 838.709 361.792 846.093 356.844 855.384C348.667 871.021 347.629 872.192 343.417 871.247C340.981 870.643 338.488 869.699 337.884 869.095C336.638 867.773 344.38 809.721 346.004 808.097C346.514 807.587 348.875 807.946 351.236 808.985C355.447 810.892 355.447 810.892 352.274 830.437C350.575 841.145 349.479 850.21 349.763 850.587C350.14 850.946 354.484 843.052 359.507 833.025C364.511 823.072 369.384 814.877 370.271 814.877C378.316 814.877 379.355 821.448 374.993 845.489C373.671 852.873 372.783 859.218 373.085 859.444C373.293 859.728 377.429 851.4 382.225 840.994C390.856 822.26 393.065 819.975 399.051 823.733C401.11 825.055 400.222 827.945 394.028 839.446C389.892 847.188 383.547 859.444 379.865 866.602C373.368 879.424 372.122 880.387 364.455 878.405ZM589.22 875.081C587.823 869.548 587.747 869.699 593.13 868.075C596.453 867.036 597.473 867.697 599.022 871.682C601.175 877.366 601.25 877.215 595.113 878.763C591.071 879.802 590.259 879.273 589.22 875.081ZM627.216 836.934C621.154 802.186 621.154 803.225 627.877 800.43C632.75 798.428 633.618 798.579 635.771 801.525C637.093 803.451 645.497 814.669 654.58 826.396C663.569 838.199 670.953 848.454 670.953 849.19C670.953 849.927 668.819 851.022 666.157 851.683C662.172 852.646 660.548 851.909 657.092 847.415C652.805 842.033 652.805 842.033 646.46 844.979C640.492 847.849 640.19 848.378 641.38 855.082C642.192 860.105 641.814 862.541 640.115 863.637C633.26 867.999 632.296 865.922 627.216 836.934ZM646.101 834.951C646.762 834.29 644.099 829.342 640.266 823.884C632.447 813.045 632.221 813.252 635.243 828.077C637.093 837.311 637.679 838.199 641.078 837.236C643.136 836.575 645.421 835.536 646.101 834.951ZM297.395 852.873C288.973 849.039 285.007 841.655 286.839 833.61C288.973 824.848 302.192 800.562 306.988 796.804C318.055 788.098 336.26 796.804 336.26 810.76C336.26 817.388 322.55 846.301 317.092 851.173C311.71 856.045 305.364 856.555 297.395 852.873ZM317.602 829.267C326.232 811.931 327.044 806.832 321.662 803.961C315.694 800.789 313.391 802.923 304.76 820.126C295.62 838.482 295.545 838.709 299.605 842.769C305.365 848.529 309.481 845.413 317.602 829.267ZM673.163 826.094C650.596 786.115 652.22 789.722 655.902 786.927C657.753 785.53 659.812 784.34 660.472 784.34C661.152 784.264 666.893 793.424 673.238 804.547C690.801 835.159 691.311 836.273 688.8 839.294C684.815 844.167 682.02 841.806 673.163 826.094ZM255.717 828.303C251.807 825.584 251.807 825.509 266.046 803.602C280.286 781.621 280.286 781.621 274.96 778.297C270.617 775.559 270.031 774.388 271.58 771.498C274.148 766.645 275.414 767.004 291.333 777.183C304.175 785.454 305.365 786.701 303.363 789.798C300.719 794.009 299.605 794.085 293.996 790.383C289.653 787.588 289.653 787.588 275.621 809.192C267.879 821.071 261.175 830.891 260.646 830.966C260.06 831.042 257.926 829.852 255.717 828.303ZM699.356 818.937C691.613 808.173 673.749 782.281 672.2 779.543C670.727 777.032 692.123 762.66 697.222 762.66C705.626 762.66 715.446 775.408 713.368 783.604C712.481 787.078 713.01 787.89 715.956 787.89C717.938 787.89 721.413 790.1 723.623 792.744C725.832 795.406 729.817 799.901 732.48 802.639C737.276 807.644 737.276 807.644 733.443 810.382C727.683 814.442 726.134 813.781 719.789 805C713.822 796.653 709.913 795.18 703.265 798.73C699.941 800.505 700.168 801.242 707.401 811.496C714.841 821.958 714.917 822.411 711.593 824.923C706.589 828.606 706.136 828.379 699.356 818.937ZM703.039 783.981C703.341 781.318 702.075 778.297 699.866 776.295C696.769 773.425 695.522 773.274 690.801 775.275C684.229 777.995 684.229 778.146 690.065 786.701C694.333 793.046 694.937 793.348 698.544 790.912C700.678 789.514 702.755 786.398 703.039 783.981ZM95.7067 226.052C93.8371 227.865 92.345 229.017 91.2875 229.451C86.8496 231.377 86.3398 232.189 87.9639 234.909C89.588 237.571 87.8129 241.858 78.3706 258.307C71.9498 269.43 64.9435 283.084 62.6585 288.617C58.6738 298.437 58.3907 298.72 52.9896 297.625C39.2038 294.811 37.504 294.301 37.504 293.187C37.504 290.09 63.0361 241.707 72.9128 226.071C188.147 43.8524 403.848 -39.5047 611.278 17.9614C622.495 21.0585 633.033 24.9677 634.657 26.5917C636.357 28.2914 640.19 29.7642 643.363 29.9908C649.047 30.2741 682.907 43.4936 686.155 46.6662C687.251 47.6104 686.514 48.2903 684.38 48.2903C681.434 48.3469 681.283 48.6491 683.568 50.0466C685.041 51.0097 688.724 51.8217 691.689 51.8217C694.635 51.8972 701.131 54.0311 706.06 56.6183C720.96 64.4365 743.622 78.3736 747.814 82.3583C750.043 84.3601 752.535 86.0596 753.423 86.0596C759.919 86.0596 813.325 132.516 836.572 158.35C918.815 250.036 961.003 360.095 960.645 481.958C960.494 528.66 956.433 560.16 944.196 610.167C941.986 619.326 939.097 621.611 939.097 614.227C939.097 611.715 938.077 609.657 936.812 609.505C929.579 608.844 924.197 608.033 923.687 607.523C923.385 607.145 924.65 600.875 926.558 593.51C935.113 560.311 941.685 497.821 939.834 466.699C937.775 432.839 936.812 422.812 933.564 403.115C930.618 385.628 930.316 380.378 932.016 378.319C933.791 376.185 933.715 375.883 931.505 376.771C929.372 377.583 928.031 374.92 925.538 364.665C916.152 325.65 894.473 275.643 870.489 237.647C833.249 178.481 773.497 120.052 715.068 85.5309C707.911 81.3385 706.74 79.771 707.401 76.1641C707.911 73.7279 707.552 72.1793 706.74 72.6891C705.852 73.2935 705.191 74.842 705.191 76.2395C705.191 79.8465 705.852 80.073 682.681 68.5723C667.932 61.1884 661.946 57.3548 661.946 55.0698C661.946 51.5194 659.226 50.7829 657.375 53.8044C656.714 54.8431 654.863 55.1455 653.258 54.4845C615.621 39.2068 564.5 27.0448 520.839 22.9091C492.738 20.3219 440.579 21.7195 413.649 25.7797C294.657 43.7768 184.37 109.665 112.816 205.486C106.396 214.098 100.975 220.689 96.9717 224.805C96.9717 224.749 96.9717 224.711 96.9717 224.654H96.8962C96.8962 223.634 95.4798 222.823 93.7991 222.898C91.0608 222.898 90.9855 223.106 93.3461 224.654C94.4225 225.334 95.1779 225.806 95.7067 226.052ZM96.9717 224.805C96.9717 226.146 96.8209 226.581 95.7067 226.052C96.1222 225.674 96.5374 225.24 96.9717 224.805ZM953.922 520.407C952.675 519.879 950.692 519.879 949.427 520.407C948.181 520.842 949.201 521.276 951.712 521.276C954.148 521.276 955.187 520.842 953.922 520.407ZM71.7418 240.82C71.7418 239.856 70.4767 239.044 68.9282 239.044C67.3797 239.044 66.5677 239.856 67.2286 240.82C67.833 241.858 69.0791 242.651 70.0422 242.651C70.9298 242.651 71.7418 241.858 71.7418 240.82ZM161.067 745.022C159.443 743.171 158.12 740.962 158.196 740.074C158.404 736.977 202.972 699.434 204.879 700.605C210.129 703.853 221.044 720.245 221.044 724.815C221.044 734.843 207.466 745.985 197.797 743.851C195.078 743.247 190.508 740.301 187.694 737.43C182.614 732.105 182.614 732.105 177.081 737.128C164.315 748.705 164.39 748.705 161.067 745.022ZM205.559 730.198C211.149 725.779 211.602 721.265 206.73 716.846C203.331 713.749 202.972 713.825 196.985 718.829C189.62 724.967 189.091 727.327 194.492 731.085C199.572 734.692 199.874 734.617 205.559 730.198ZM776.217 755.125C768.115 750.555 747.682 730.858 745.378 725.476C740.884 714.637 750.402 701.493 762.714 701.493C769.947 701.493 776.066 705.553 792.004 720.755C804.336 732.483 805.431 740.735 795.989 750.857C792.967 754.162 790.173 755.579 787.869 754.974C785.886 754.464 783.903 754.767 783.299 755.654C782.052 757.788 780.655 757.637 776.217 755.125ZM789.36 744.361C794.365 739.338 791.646 734.107 777.765 722.228C770.174 715.807 763.016 710.501 761.845 710.501C760.656 710.501 758.22 712.125 756.445 714.108C752.026 718.98 754.31 722.814 769.588 736.165C781.674 746.646 785.508 748.195 789.36 744.361ZM167.412 314.583C161.501 310.976 161.501 310.976 165.429 305.443C168.45 301.156 170.207 300.193 173.172 301.081C182.897 304.178 184.824 304.027 188.506 300.42C196.041 292.828 191.169 282.196 180.178 282.196C177.081 282.196 169.47 284.632 163.201 287.578C149.641 293.999 145.581 294.225 135.251 289.202C125.356 284.481 121.371 277.267 122.561 266.484C124.695 247.524 144.845 236.533 158.782 246.712C161.954 249.072 161.954 249.525 159.141 254.908C155.911 261.253 154.948 261.536 148.301 258.514C139.387 254.454 132.381 267.069 139.821 273.868C144.391 277.928 147.13 277.626 160.557 271.432C174.796 264.784 186.372 264.274 195.304 269.808C206.654 276.814 209.676 289.127 203.198 301.893C195.304 317.397 180.612 322.628 167.487 314.583H167.412ZM761.845 309.938C756.897 303.517 756.898 303.517 763.451 296.813C767.001 293.187 769.947 289.655 769.947 288.919C769.947 288.258 767.435 284.122 764.338 279.76C758.73 271.79 758.729 271.79 749.665 275.567C740.657 279.325 740.657 279.326 736.389 274.019C729.666 265.672 725.322 268.335 787 243.331C815.686 231.661 815.686 231.661 818.858 235.796C826.979 246.504 826.979 247.014 817.461 258.514C804.26 274.378 767.813 316.434 767.303 316.434C767.001 316.434 764.565 313.469 761.845 309.938ZM803.448 252.169C802.92 251.659 774.309 263.689 771.949 265.464C771.571 265.672 773.12 268.844 775.556 272.395L779.842 278.872L791.929 265.823C798.652 258.666 803.807 252.547 803.448 252.169ZM205.332 257.193C195.89 249.733 174.928 227.242 171.245 220.538C164.617 208.584 171.548 192.059 186.07 184.978C198.761 178.859 204.954 181.503 225.841 201.728C247.294 222.445 250.618 227.619 249.371 238.459C247.747 252.849 235.567 264.199 221.856 264.199C215.662 264.199 212.49 262.877 205.332 257.193ZM231.884 246.202C239.117 238.969 234.755 231.377 211.602 210.359C197.061 197.139 192.415 195.383 186.599 200.614C179.8 206.733 182.236 211.681 201.858 231.302C221.403 250.847 225.312 252.774 231.884 246.202ZM709.459 246.428C697.146 238.893 692.048 226.505 696.618 215.439C699.866 207.771 730.931 173.175 737.711 169.624C749.004 163.808 762.657 168.529 771.288 181.276C777.841 191.096 776.009 204.221 766.85 212.493C763.526 215.439 763.167 215.363 758.371 210.359C753.272 205.109 753.272 205.109 757.408 199.368C762.506 192.21 760.731 185.129 753.215 182.466C748.701 180.842 747.455 181.578 738.239 190.511C722.301 205.996 710.573 220.821 710.573 225.334C710.573 230.055 715.653 235.437 720.091 235.437C721.715 235.437 725.908 232.85 729.534 229.753C736.011 224.069 736.011 224.069 741.336 229.375C746.643 234.701 746.643 234.701 740.733 240.669C731.082 250.545 719.714 252.622 709.459 246.428ZM271.504 218.026C263.308 215.438 259.097 210.642 240.666 182.976C229.599 166.244 220.818 152.364 221.271 152.081C233.584 142.563 231.658 141.297 252.828 172.948C269.144 197.29 273.204 202.238 277.17 202.673C282.344 203.277 289.426 197.8 289.426 193.306C289.426 191.908 280.947 178.122 270.541 162.769C260.136 147.359 251.656 134.008 251.656 133.045C251.656 131.194 262.27 123.017 263.233 124.112C263.535 124.49 272.524 137.69 283.383 153.553C302.041 181.068 302.928 182.768 302.928 191.682C302.928 199.576 302.116 201.861 297.546 206.657C289.577 215.08 278.057 220.084 271.504 218.026ZM665.269 209.905C660.472 206.223 660.472 206.223 684.966 170.002C698.393 150.079 709.535 133.479 709.761 133.196C710.422 132.308 723.189 140.863 722.66 141.902C719.412 148.757 673.749 213.815 672.2 213.739C671.029 213.664 667.932 211.964 665.269 209.905ZM640.851 194.495C633.618 190.945 633.618 190.87 640.643 175.818C647.423 161.069 646.762 155.687 637.679 151.401C634.223 149.72 631.126 148.757 630.748 149.191C630.389 149.569 626.688 157.085 622.628 165.715C615.263 181.503 615.262 181.503 608.03 177.896L600.872 174.194L619.832 136.142C630.238 115.255 639.151 97.4093 639.68 96.5973C640.776 94.7466 668.517 108.4 674.126 113.575C680.622 119.542 681.132 127.795 675.675 138.861C671.256 147.869 665.647 152.666 659.301 152.666C657.224 152.666 657.3 153.478 659.452 157.897C661.738 162.467 661.738 164.016 659.452 170.002C653.844 185.129 648.386 197.593 647.574 197.517C647.045 197.441 644.024 196.119 640.776 194.495H640.851ZM656.488 140.126C661.001 137.69 664.25 128.021 661.946 123.754C659.812 119.844 653.107 114.821 649.935 114.821C648.669 114.821 645.213 119.693 642.192 125.585C636.791 136.369 636.791 136.368 641.739 139.012C647.574 142.185 651.993 142.487 656.488 140.126ZM335.24 176.498C333.691 172.797 328.442 160.409 323.645 149.04C318.867 137.69 313.617 125.378 312.069 121.676C309.274 114.972 309.274 114.972 300.927 118.579C296.281 120.505 292.448 121.903 292.296 121.676C289.577 116.879 287.802 110.402 288.916 109.363C291.786 106.7 332.955 89.6664 334.428 90.554C335.24 91.0639 336.713 93.8778 337.752 96.7483C339.508 101.904 339.357 102.13 331.614 105.076C327.271 106.776 323.645 108.4 323.645 108.778C323.645 109.137 328.593 120.94 334.636 135.103C354.276 180.993 353.388 177.367 345.853 180.54C337.676 183.939 338.545 184.317 335.24 176.498ZM326.383 123.829C326.969 122.866 326.232 122.054 324.759 122.054C323.286 122.054 321.586 122.866 320.925 123.829C320.34 124.849 321.077 125.661 322.55 125.661C324.023 125.661 325.722 124.849 326.383 123.829ZM376.994 153.1C371.593 128.985 363.265 86.1919 363.265 82.8115C363.265 80.1488 364.889 78.978 369.761 78.0904C373.293 77.3539 376.465 77.1271 376.768 77.4103C377.126 77.7125 378.826 85.3043 380.601 94.1612C382.376 103.094 384 110.61 384.151 110.987C384.661 111.724 404.642 107.305 404.642 106.493C404.642 106.115 402.961 98.448 400.959 89.3645C398.976 80.3754 397.56 72.6892 397.862 72.4059C398.24 72.1037 401.695 71.2918 405.68 70.7064L412.837 69.5355L422.204 112.309C427.379 135.84 431.363 155.31 431.137 155.536C430.834 155.839 427.303 156.575 423.318 157.236C415.273 158.558 416.444 160.919 409.891 129.646C407.89 120.128 407.89 120.127 401.545 121.317C395.577 122.488 395.275 122.262 396.238 118.22C397.05 114.821 396.899 114.972 395.199 118.881C394.104 121.6 391.819 123.829 390.195 123.829C387.456 123.829 387.532 125.51 390.931 142.846C394.991 163.732 394.538 165.13 384.51 165.205C380.091 165.205 379.562 164.393 376.994 153.1ZM384.812 121.166C384.812 118.296 383.189 117.842 378.675 119.542C374.993 120.94 376.843 123.829 381.338 123.829C383.264 123.829 384.812 122.639 384.812 121.166ZM392.178 114.387C391.97 112.234 389.458 112.611 388.721 114.972C388.344 116.143 388.929 116.804 390.119 116.37C391.29 115.992 392.253 115.048 392.178 114.387ZM552.622 160.409C550.413 159.974 548.58 158.633 548.58 157.463C548.58 156.273 553.887 137.18 560.308 114.972C566.729 92.8391 571.96 74.4642 571.96 74.3132C571.96 73.7277 612.014 84.2845 613.487 85.2476C614.224 85.682 613.997 88.8544 612.977 92.1781C611.051 98.2967 611.051 98.2969 598.738 94.8977C591.94 92.9904 585.746 91.4416 584.858 91.4416C583.253 91.4416 576.908 111.346 578.078 112.611C578.456 112.895 583.914 114.594 590.259 116.37C601.25 119.391 601.684 119.693 601.099 124.849C600.287 132.667 599.248 132.969 585.821 129.211C576.757 126.699 573.433 126.397 572.923 128.021C572.545 129.211 570.109 137.237 567.522 145.867C562.669 162.335 562.669 162.335 552.622 160.409ZM609.805 89.44C609.805 87.6082 607.652 87.457 603.61 88.93C599.097 90.7052 600.363 92.8392 605.292 91.8761C607.728 91.4418 609.805 90.3276 609.805 89.44ZM579.193 89.6665C579.193 88.7034 578.381 87.8915 577.417 87.8915C576.379 87.8915 575.567 88.7034 575.567 89.6665C575.567 90.6296 576.379 91.4416 577.417 91.4416C578.381 91.4416 579.193 90.6296 579.193 89.6665ZM525.711 155.026C521.877 154.214 520.99 152.005 519.215 138.276C518.913 136.217 516.344 135.556 508.148 135.556C497.46 135.556 497.46 135.556 494.948 144.319C492.512 153.025 492.512 153.025 485.053 151.854C480.992 151.193 477.461 150.456 477.159 150.23C476.876 149.928 482.994 130.76 490.737 107.513L504.9 65.3996L513.682 65.9852C518.554 66.2873 522.973 67.0992 523.634 67.7602C525.485 69.6675 534.625 132.818 533.605 136.652C533.152 138.502 533.378 139.673 534.115 139.163C535.663 138.2 538.024 152.59 536.626 154.8C535.739 156.273 532.642 156.348 525.711 155.026ZM517.44 117.994C516.93 115.784 515.891 107.664 515.23 99.9964C514.569 92.3292 513.455 86.0596 512.794 86.0596C512.133 86.0596 509.546 93.5756 507.034 102.716C502.389 119.391 502.389 119.391 507.922 120.505C517.893 122.488 518.478 122.337 517.44 117.994ZM203.482 788.551C197.363 783.094 192.264 777.844 192.264 776.899C192.264 775.936 201.348 765.097 212.338 752.84L232.394 730.424L243.838 740.528C256.227 751.292 256.68 752.104 252.619 755.503C249.655 757.939 248.333 757.259 238.966 748.78C234.396 744.663 234.396 744.663 229.165 750.121C223.99 755.503 223.99 755.503 230.997 762.736C237.569 769.44 237.852 770.101 234.981 772.915C232.186 775.785 231.525 775.559 224.878 770.252C220.893 767.079 217.362 764.492 216.909 764.492C216.474 764.492 213.887 767.382 211.224 770.913C206.296 777.409 206.295 777.409 213.736 785.001C220.893 792.309 221.044 792.744 217.947 795.557C214.85 798.352 214.038 797.918 203.482 788.551ZM448.756 794.897C341.283 783.755 246.199 717.885 198.911 621.762C175.74 574.701 166.165 532.645 166.524 479.239C166.978 409.082 190.206 343.798 234.471 288.466C243.763 276.89 266.179 253.435 267.954 253.435C268.539 253.435 272.902 249.677 277.698 245.163C288.236 234.984 319.66 214.117 338.847 204.448C381.413 182.976 432.912 170.739 480.709 170.663C498.272 170.663 501.803 171.097 501.803 173.326C501.803 174.799 502.615 176.045 503.654 176.045C504.598 176.045 505.41 175.082 505.41 173.987C505.41 171.324 525.919 173.25 548.429 178.123C640.19 197.8 721.772 260.951 763.167 344.308C775.405 368.877 778.218 377.281 775.707 381.341C772.685 386.062 773.044 387.025 777.18 385.703C779.106 385.042 780.73 385.325 780.73 386.288C780.73 387.327 781.24 389.31 781.825 390.859C782.713 393.219 782.203 393.295 778.218 391.444C774.97 389.895 772.685 386.591 770.608 380.321C761.468 352.202 737.05 310.901 713.821 284.047C679.074 243.992 623.893 207.922 574.245 192.871C564.651 189.925 557.57 186.809 557.57 185.488C557.57 182.9 554.624 182.39 553.736 184.827C553.358 185.714 544.596 184.978 534.19 183.202C433.648 165.942 334.862 197.366 262.496 269.581C237.266 294.736 221.271 316.944 205.842 347.858C183.634 392.482 176.193 422.944 174.796 474.801C173.984 507.113 174.267 511.909 178.554 535.081C204.596 676.489 316.714 777.032 460.559 787.947C473.401 788.91 485.865 789.212 488.376 788.627C492.285 787.664 492.795 788.098 492.795 792.158C492.795 796.879 492.795 796.879 477.971 796.653C469.794 796.521 456.65 795.709 448.756 794.897ZM494.646 792.309C494.646 788.702 495.76 788.325 509.546 787.361C573.508 782.867 642.267 751.877 690.801 705.704C703.265 693.826 707.609 690.653 708.798 692.504C711.083 696.186 708.496 699.737 694.125 713.088C642.702 760.659 574.018 790.61 504.976 795.557C495.307 796.218 494.646 795.992 494.646 792.309ZM728.118 774.463C717.504 762.283 708.798 751.594 708.798 750.706C708.798 749.082 719.563 739.867 725.757 736.165C734.538 731.085 745.529 735.957 750.911 747.383C754.537 755.05 753.498 759.771 746.417 767.23C741.186 772.688 741.185 772.688 749.23 781.828C756.897 790.61 757.124 791.12 754.008 793.933C752.252 795.557 750.042 796.804 749.155 796.728C748.192 796.653 738.75 786.625 728.118 774.463ZM742.961 755.276C742.961 754.54 741.11 751.669 738.749 749.007C735.426 745.098 733.651 744.361 729.666 745.4C722.226 747.232 721.923 751.292 728.646 758.298C734.689 764.492 734.689 764.492 738.825 760.583C741.11 758.449 742.961 756.013 742.961 755.276ZM437.029 779.619C370.574 769.138 312.729 739.64 266.122 692.428C181.802 607.145 156.496 477.105 203.047 367.914C218.967 330.447 238.305 302.27 268.54 272.319C293.486 247.675 315.978 231.528 346.155 216.685C395.803 192.286 434.592 183.863 490.151 185.563C538.326 187.036 572.035 195.081 612.751 214.929C734.765 274.302 800.937 403.625 777.029 536.176C755.047 658.058 657.98 755.05 534.7 778.07C512.36 782.282 459.162 783.169 437.029 779.619ZM615.262 360.473C622.571 353.089 628.161 346.744 627.726 346.385C627.292 346.007 611.127 339.001 591.808 330.881C572.47 322.779 548.505 312.449 538.459 307.955C528.355 303.441 519.29 300.269 518.252 300.93C517.213 301.609 515.532 305.217 514.494 308.975C512.058 317.832 501.879 328.313 492.946 330.956C486.677 332.883 485.713 333.921 484.694 340.04C483.069 349.765 480.86 350.143 479.444 340.852C478.424 334.204 477.536 332.883 473.401 331.995C462.108 329.559 451.343 319.002 448.397 307.426C447.812 304.914 446.395 302.346 445.3 301.61C442.279 299.532 449.209 299.985 461.749 302.629C471.852 304.782 473.325 304.707 475.761 301.968C477.234 300.344 478.424 298.644 478.424 298.286C478.424 297.832 471.342 297.757 462.712 298.059C446.471 298.645 443.09 299.532 421.845 309.126L409.363 314.734L438.955 344.383L468.453 373.976H495.684L524.238 345.195C539.95 329.332 553.075 316.642 553.359 316.944C553.661 317.246 541.782 329.559 526.958 344.308C512.133 359.132 500.028 371.823 500.028 372.559C500.028 374.108 542.896 375.071 577.568 374.334L601.986 373.824L615.262 360.473ZM476.649 367.026C476.649 366.157 478.858 365.855 481.596 366.214C486.525 367.026 486.525 367.026 481.521 363.117C477.536 360.02 476.951 358.698 478.575 356.715C480.992 353.826 485.657 353.316 485.657 355.903C485.657 356.847 484.391 357.225 482.918 356.64C479.009 355.167 479.67 357.584 484.108 361.285C486.318 363.041 487.413 365.345 486.677 366.516C485.204 368.877 476.649 369.387 476.649 367.026ZM219.269 367.706C215.946 364.231 212.641 361.361 211.885 361.361C210.866 361.361 206.73 371.011 206.73 373.371C206.73 373.673 210.941 373.976 216.021 373.976H225.388L219.269 367.706ZM266.707 371.747C269.427 369.764 267.52 367.253 249.22 349.029L228.712 328.596L222.291 340.04C212.414 357.735 212.489 357.074 221.195 366.006C229.014 373.976 229.014 373.976 246.35 373.976C257.341 373.976 264.706 373.163 266.707 371.747ZM345.343 360.624C332.067 347.197 332.067 347.197 325.647 349.917C322.096 351.465 309.274 356.847 297.244 361.871C285.139 366.969 275.697 371.747 276.225 372.559C276.66 373.296 295.469 373.976 317.904 373.976H358.695L345.343 360.624ZM435.782 344.912L406.719 315.773L370.649 330.881L334.579 346.083L362.302 373.976H464.921L435.782 344.912ZM687.175 372.559C687.175 370.803 633.92 348.217 631.635 349.105C629.275 349.992 606.179 371.54 606.179 372.861C606.179 373.447 624.403 373.976 646.686 373.976C668.97 373.976 687.175 373.296 687.175 372.559ZM742.583 366.289L750.099 358.622L742.508 345.271C738.296 337.963 734.028 332.146 733.065 332.354C732.102 332.58 722.66 341.286 712.122 351.616C689.762 373.749 689.762 373.824 716.919 373.9C734.991 373.976 734.991 373.975 742.583 366.289ZM755.575 373.164C755.575 371.162 751.289 363.193 750.175 363.193C749.589 363.193 746.719 365.629 743.83 368.575C738.674 373.976 738.674 373.976 747.153 373.976C751.799 373.976 755.575 373.598 755.575 373.164ZM300.568 357.584C314.731 351.541 326.969 346.083 327.705 345.422C328.366 344.761 314.807 329.993 297.471 312.732L265.895 281.308L256.604 291.865C251.43 297.7 243.461 307.879 238.815 314.357L230.336 326.311L251.279 347.405C262.874 359.075 272.902 368.575 273.563 368.575C274.224 368.575 286.329 363.646 300.568 357.584ZM712.273 348.009L732.706 327.5L722.527 313.412C716.918 305.651 708.874 295.396 704.663 290.675L697.071 282.12L665.345 313.847C633.562 345.497 633.562 345.497 639.227 347.933C642.324 349.255 654.203 354.355 665.571 359.283C676.996 364.231 687.478 368.291 689.026 368.443C690.499 368.518 700.98 359.359 712.273 348.009ZM367.835 329.049C386.437 321.079 402.073 314.225 402.583 313.62C403.168 313.11 385.908 294.962 364.228 273.283L324.91 233.965L317.526 238.61C307.801 244.88 287.141 261.253 276.376 271.205L267.671 279.25L299.68 311.335C317.3 328.973 332.275 343.42 332.879 343.42C333.54 343.42 349.253 336.943 367.835 329.049ZM663.796 311.788L695.296 280.138L684.456 270.11C672.426 258.968 647.121 239.554 640.7 236.684C636.867 234.909 633.694 237.647 598.002 273.283C576.756 294.528 559.42 312.374 559.42 313.035C559.42 313.696 571.374 319.153 585.972 325.215C600.57 331.334 615.697 337.83 619.682 339.738C623.666 341.588 628.104 343.213 629.652 343.288C631.125 343.364 646.46 329.2 663.796 311.788ZM486.677 321.004C489.566 307.199 489.566 306.916 485.789 303.158C482.031 299.381 482.031 299.381 482.031 318.134C482.031 328.388 482.409 336.414 482.918 335.904C483.353 335.47 485.053 328.747 486.677 321.004ZM476.649 328.161C476.649 327.708 475.685 323.062 474.59 317.907L472.589 308.389L467.433 314.583C461.012 322.175 461.012 322.855 467.206 326.159C472.079 328.822 476.649 329.785 476.649 328.161ZM495.609 326.386C503.201 323.214 503.276 322.043 496.572 315.697C490.812 310.164 490.963 310.089 488.301 323.138C486.979 329.861 487.13 329.937 495.609 326.386ZM464.921 312.808C467.716 309.862 469.718 307.143 469.265 306.765C468.377 305.877 450.758 302.119 450.248 302.629C449.285 303.517 456.801 318.19 458.199 318.19C459.086 318.19 462.108 315.773 464.921 312.808ZM509.697 312.072C514.04 302.856 513.682 302.422 502.691 304.404L492.738 306.255L498.555 312.223C505.712 319.607 506.147 319.607 509.697 312.072ZM428.776 303.29C435.782 300.269 436.896 299.305 434.158 298.286C431.571 297.398 432.761 296.662 438.728 295.472C445.3 294.15 446.924 292.979 448.02 288.919C450.607 279.325 456.801 271.866 466.621 266.711C472.003 263.897 476.951 262.14 477.612 262.801C478.273 263.462 477.763 269.732 476.498 276.738C474.439 288.258 474.515 289.863 477.234 292.602C480.048 295.396 480.256 294.528 480.18 279.477V263.311L447.434 230.49C429.437 212.417 413.725 197.668 412.403 197.668C403.905 197.668 363.189 213.305 338.262 226.203L326.742 232.114L366.872 272.395C407.078 312.6 407.078 312.6 413.498 309.787C417.049 308.238 423.904 305.367 428.7 303.29H428.776ZM604.555 264.577L635.922 233.36L628.689 229.017C624.705 226.58 621.683 223.767 621.891 222.822C622.118 221.935 621.23 221.557 619.832 222.086C618.511 222.672 612.599 220.67 606.858 217.799C594.376 211.53 574.83 204.297 559.194 200.236L547.976 197.366L516.854 228.488C499.669 245.692 485.657 260.214 485.657 260.8C485.657 261.404 489.113 263.236 493.399 264.86C503.125 268.618 509.47 275.19 514.267 286.256C517.893 294.811 517.893 294.811 513.908 294.736C511.755 294.66 505.353 293.565 499.669 292.224C490.151 289.939 489.264 290.014 486.393 293.187C484.693 295.113 483.655 297.02 484.108 297.474C484.542 297.908 493.607 297.549 504.239 296.737C514.852 295.85 525.787 295.85 528.431 296.662C531.905 297.7 532.34 298.135 529.904 298.21C524.899 298.512 527.26 300.118 541.933 306.539L554.926 312.223L564.066 303.97C569.089 299.381 587.294 281.686 604.555 264.577ZM463.599 290.316C466.829 289.655 469.416 288.541 469.416 287.805C469.416 286.03 458.878 275.926 458.066 276.965C451.06 285.746 449.209 293.848 454.591 292.375C456.291 291.865 460.351 290.977 463.599 290.316ZM512.643 292.016C512.643 289.58 507.336 278.872 505.637 277.852C503.786 276.738 494.797 285.01 494.646 287.956C494.646 288.617 498.045 289.939 502.238 290.902C512.209 293.111 512.643 293.187 512.643 292.091V292.016ZM475.61 272.754C476.951 265.011 477.027 265.011 468.604 269.071C461.012 272.678 460.635 275.265 467.055 280.364C472.589 284.708 473.627 283.745 475.61 272.754ZM497.157 278.816C502.181 273.566 502.181 273.566 497.97 270.846C495.609 269.373 492.059 267.674 490 267.069C486.393 265.974 486.318 266.333 488.074 274.963C489.113 279.911 490.434 284.047 491.039 284.047C491.624 284.047 494.419 281.686 497.157 278.816ZM480.256 252.396C480.256 249.809 480.992 248.26 482.031 248.94C482.994 249.526 483.806 251.584 483.806 253.51C483.806 255.417 484.165 257.042 484.543 257.042C485.581 257.042 544.879 196.856 544.294 196.327C544.067 196.119 536.249 194.779 526.882 193.306L509.923 190.718L495.968 204.523L482.031 218.253L468.018 204.297C455.63 191.984 453.345 190.511 448.699 191.247C427.964 194.571 419.032 196.403 419.032 197.366C419.032 198.99 477.234 257.042 478.858 257.042C479.595 257.042 480.256 254.908 480.256 252.396ZM476.498 234.097C475.535 225.466 476.649 224.654 481.955 230.339C485.657 234.323 485.657 234.323 485.657 230.339C485.657 228.205 486.242 226.43 487.054 226.43C487.791 226.43 488.074 229.678 487.715 233.587C487.054 240.82 487.054 240.82 483.22 235.947C479.387 231 479.387 231 478.348 236.382C477.385 241.329 477.234 241.178 476.498 234.097ZM494.344 202.389L505.712 190.945L493.834 189.774C487.338 189.113 476.724 189.113 470.228 189.774L458.35 190.945L469.718 202.389C475.912 208.659 481.521 213.815 482.031 213.815C482.541 213.815 488.15 208.659 494.344 202.389ZM426.699 608.542C425.453 608.032 423.47 608.032 422.204 608.542C420.958 608.996 421.978 609.43 424.414 609.43C426.926 609.43 427.964 609.071 426.699 608.542ZM242.951 577.855L271.202 549.603L255.717 542.673L240.288 535.666L220.818 555.136C210.054 565.844 201.272 575.645 201.272 576.986C201.272 580.82 212.565 608.033 213.736 607.069C214.321 606.56 227.465 593.435 242.951 577.855ZM753.725 596.739C763.904 573.134 764.716 576.533 744.132 555.949C734.028 545.921 724.888 537.725 723.698 537.725C720.601 537.725 694.408 549.905 694.408 551.378C694.408 553.003 746.87 606.125 748.494 606.125C749.155 606.125 751.515 601.914 753.725 596.739ZM354.276 556.609L373.085 537.725H329.858C286.555 537.725 286.556 537.725 281.23 543.409C278.36 546.506 276.811 549.32 277.774 549.679C278.794 550.056 291.711 555.948 306.535 562.823C321.435 569.602 333.975 575.286 334.503 575.362C335.013 575.438 343.946 567.015 354.276 556.609ZM659.585 562.823C699.054 545.109 714.181 538.027 714.181 537.139C714.181 536.705 706.872 536.478 697.958 536.554C689.101 536.629 681.793 537.215 681.793 537.876C681.793 538.48 683.417 540.463 685.419 542.238C687.326 544.013 688.951 546.374 688.951 547.394C688.951 548.432 686.363 546.733 683.134 543.636C677.298 538.027 677.299 538.027 634.506 537.441C611.051 537.064 591.808 537.215 591.808 537.725C591.808 539.066 628.463 575.494 629.86 575.494C630.521 575.494 643.873 569.829 659.585 562.823ZM212.773 538.102C201.272 537.876 191.452 537.951 191.093 538.405C190.13 539.292 194.851 560.009 197.665 567.317C199.648 572.624 199.648 572.624 216.682 555.59L233.81 538.612L212.773 538.102ZM767.964 554.702C770.098 546.298 771.344 538.537 770.759 537.668C769.664 535.742 740.883 535.364 734.255 537.139C730.346 538.178 731.214 539.424 745.907 554.192C754.688 562.955 762.28 570.112 762.941 570.112C763.602 570.112 765.887 563.181 767.964 554.702ZM278.133 542.824C280.418 540.69 282.269 538.48 282.269 537.876C282.269 537.29 275.414 536.629 266.991 536.327C258.587 536.044 251.656 536.252 251.656 536.856C251.656 538.027 269.502 546.431 272.241 546.657C273.204 546.733 275.848 544.958 278.133 542.824ZM772.459 532.267C772.836 531.833 774.234 522.9 775.48 512.57C780.05 472.818 773.497 419.639 759.334 382.53C757.483 377.582 757.483 377.583 576.095 377.432C476.346 377.356 374.105 377.356 348.875 377.432C323.645 377.507 280.947 377.583 253.942 377.583H204.955L202.235 384.154C192.717 406.873 185.183 449.949 185.107 482.034C185.107 499.748 187.845 529.472 189.771 532.569C190.64 534.042 770.986 533.759 772.459 532.267ZM538.25 625.01C537.797 622.574 537.061 620.496 536.702 620.496C536.324 620.496 536.041 622.574 536.041 625.01C536.041 627.503 536.702 629.504 537.589 629.504C538.402 629.504 538.76 627.503 538.25 625.01ZM434.385 619.174C433.724 614.453 432.307 609.808 431.288 608.845C430.022 607.598 429.739 608.184 430.476 610.62C430.985 612.603 432.024 617.248 432.685 620.95C434.385 630.751 435.858 629.278 434.385 619.174ZM534.341 620.496C537.646 615.265 538.685 611.583 538.175 606.937C537.212 598.892 536.324 599.704 535.078 609.808C534.549 614.151 533.001 618.948 531.754 620.421C528.072 624.708 526.656 627.729 528.28 627.729C529.092 627.729 531.754 624.481 534.341 620.496ZM517.893 615.114C517.817 613.339 517.213 613.641 516.193 616.002C514.116 620.95 514.116 623.82 516.193 620.496C517.156 619.023 517.949 616.587 517.893 615.114ZM510.811 617.04C510.811 611.942 512.794 607.806 514.645 608.92C515.532 609.505 516.269 608.486 516.344 606.71C516.476 603.764 516.703 603.821 518.025 606.994C519.291 610.034 519.574 609.581 519.649 604.633C519.8 598.666 519.8 598.666 515.23 604.123C510.207 610.034 506.373 620.496 509.111 620.496C510.075 620.496 510.811 618.948 510.811 617.04ZM424.716 596.305C429.003 595.493 435.405 594.983 438.804 595.059C442.279 595.134 472.891 595.266 506.751 595.266C567.087 595.342 568.41 595.418 568.41 598.968C568.41 600.875 569.014 602.499 569.75 602.575C572.111 602.575 626.027 578.535 626.027 577.42C626.027 576.835 617.094 567.544 606.33 556.761L586.633 537.139L481.747 537.366L376.843 537.668L357.373 557.214L337.809 576.759L371.669 592.396C390.346 600.951 406.794 608.769 408.267 609.732C410.326 611.054 411.591 609.959 413.951 604.577C416.52 598.515 417.861 597.495 424.716 596.305ZM400.147 578.535C403.32 573.587 410.118 570.112 416.445 570.112C418.881 570.112 422.431 568.488 424.414 566.505C426.416 564.579 429.588 562.955 431.571 562.955C433.573 562.955 436.009 560.896 437.406 558.026C443.374 545.562 460.125 541.426 471.928 549.471C475.988 552.115 481.143 553.966 484.977 553.966C489.774 553.966 492.663 555.288 496.496 559.423C500.764 563.993 502.237 564.654 505.202 563.03C511.17 559.858 517.893 560.896 522.671 565.617C525.183 568.129 529.016 570.112 531.169 570.112C533.378 570.112 536.834 571.226 538.761 572.548C540.762 573.946 548.354 575.437 555.795 575.947C563.254 576.457 572.187 578.081 575.567 579.63C581.402 582.217 574.679 582.444 489.623 582.576C397.352 582.727 397.352 582.727 400.147 578.535ZM552.622 577.93C551.451 577.42 549.393 577.42 548.127 577.93C546.957 578.459 547.976 578.818 550.412 578.818C552.849 578.818 553.887 578.459 552.622 577.93ZM537.722 576.306C536.041 574.248 533.681 573.813 529.394 574.55C525.258 575.362 523.426 574.984 523.426 573.511C523.426 566.203 511.396 562.218 504.466 567.242C500.689 569.98 496.421 569.168 496.421 565.693C496.421 561.198 489.566 557.063 483.429 558.026C478.783 558.687 476.271 557.799 471.626 553.739C462.92 546.147 453.119 546.431 444.923 554.627C441.618 558.026 438.804 562.086 438.804 563.635C438.804 565.693 437.18 566.505 433.271 566.505C429.21 566.505 427.454 567.544 426.774 570.112C426.038 573.001 424.282 573.738 418.371 573.813C414.31 573.813 409.363 575.06 407.455 576.457C404.358 578.818 411.799 579.12 472.003 579.12C533.737 579.12 539.875 578.893 537.722 576.306ZM502.691 632.677C503.352 629.429 504.315 625.217 504.825 623.235C505.637 620.421 505.353 620.062 503.578 621.762C500.991 624.198 498.045 638.494 500.104 638.494C500.916 638.494 502.105 635.925 502.691 632.677ZM536.551 634.887C537.061 632.96 536.777 631.789 535.89 632.299C534.927 632.904 534.19 634.509 534.19 635.925C534.19 639.683 535.437 639.098 536.551 634.887ZM476.139 629.127C473.91 624.934 469.567 619.835 466.545 617.853C463.448 615.851 459.898 611.942 458.727 609.147C457.462 606.408 456.064 604.501 455.705 604.86C453.704 606.862 459.822 615.416 465.96 619.477C469.718 621.969 473.325 625.822 473.986 628.107C475.251 632.016 478.197 636.737 479.444 636.737C479.822 636.737 478.273 633.262 476.063 629.127H476.139ZM421.77 631.355C421.109 630.316 419.485 629.504 418.069 629.504C416.596 629.504 415.424 630.316 415.424 631.355C415.424 632.299 417.124 633.111 419.183 633.111C421.166 633.111 422.355 632.299 421.77 631.355ZM494.06 622.932C492.587 621.459 487.205 629.429 488.301 631.355C489.113 632.601 490.51 631.563 492.134 628.466C493.551 625.822 494.419 623.31 494.06 622.932ZM513.229 775.936C520.178 774.747 520.178 774.747 500.632 755.201L481.143 735.655L462.712 754.615C452.533 765.096 444.262 773.934 444.262 774.312C444.262 776.748 500.481 777.995 513.229 775.936ZM554.397 768.552C557.135 767.816 559.572 766.569 559.855 765.908C560.081 765.153 541.348 745.532 518.101 722.228L475.912 679.889H418.069L384.208 713.825L350.291 747.76L365.852 754.238C400.298 768.703 393.443 771.366 438.955 725.627C461.012 703.419 479.444 685.705 479.972 686.234C480.482 686.744 463.524 704.59 442.354 725.835C421.109 747.156 403.546 765.229 403.244 766.041C402.659 767.816 427.511 773.5 435.933 773.5C441.089 773.5 444.261 770.989 461.088 753.652C471.701 742.813 480.935 733.88 481.672 733.88C482.408 733.88 492.134 743.096 503.352 754.313L523.785 774.747L536.626 772.31C543.708 770.989 551.753 769.289 554.397 768.552ZM590.92 756.391C599.834 752.916 608.332 749.309 609.805 748.27C611.939 746.873 605.971 739.999 579.117 713.22L545.691 679.889H515.74C495.76 679.889 485.43 680.55 484.618 681.872C483.882 683.061 500.028 700.605 523.634 724.287C569.675 770.479 562.876 767.23 590.92 756.391ZM395.275 680.248L376.919 679.738L351.236 705.402C337.148 719.49 325.194 730.632 324.684 730.122C324.249 729.612 334.277 718.753 347.118 705.931C359.941 693.165 370.422 682.023 370.422 681.286C370.422 680.55 354.276 679.889 334.428 679.889C298.358 679.889 298.358 679.889 301.153 674.507C303.438 670.144 305.138 669.124 309.859 669.124C313.391 669.124 319.962 666.613 326.232 662.836C336.713 656.509 336.713 656.509 390.554 656.509C444.488 656.509 444.488 656.509 450.38 661.004C453.628 663.516 457.027 665.499 457.915 665.499C458.803 665.423 456.725 663.648 453.269 661.438C446.924 657.378 446.924 657.378 457.764 656.358L468.528 655.32L456.442 655.018C446.395 654.734 444.035 654.149 442.411 651.109C441.089 648.616 438.653 647.501 434.536 647.501C431.212 647.501 426.566 646.028 424.206 644.178C421.845 642.346 417.936 639.834 415.424 638.645C411.44 636.662 411.515 636.869 416.388 641.081C422.733 646.69 428.474 649.352 434.234 649.352C436.519 649.352 439.389 650.523 440.654 651.996C442.637 654.432 436.953 654.734 391.29 654.734H339.659L344.078 648.899C346.439 645.651 349.687 640.571 351.16 637.625C353.313 633.338 356.108 631.487 364.077 629.051C369.686 627.295 377.277 623.461 380.979 620.496C387.022 615.7 388.268 615.341 394.104 616.965C398.749 618.287 401.261 620.289 402.81 624.047C403.98 626.917 406.643 630.751 408.626 632.526C411.44 635.038 411.138 634.15 407.531 628.768C402.81 621.762 402.81 621.762 406.568 618.211C408.626 616.304 409.665 614.076 408.853 613.263C408.041 612.47 391.233 604.501 371.536 595.417L335.675 579.044L318.414 595.72C300.927 612.603 299.982 614.378 302.702 624.708C304.024 629.731 304.024 629.731 296.206 625.142C288.387 620.572 288.387 620.572 281.608 625.218C277.849 627.729 274.526 629.504 274.148 629.127C273.789 628.768 274.375 624.934 275.489 620.572C277.472 612.754 277.396 612.603 270.976 606.994L264.422 601.328L273.638 599.704C282.571 598.08 283.005 597.703 285.668 589.96L288.387 581.839L291.937 590.262C295.393 598.515 298.358 600.667 306.611 600.724C311.408 600.724 333.975 578.233 330.594 576.835C329.254 576.25 315.902 570.188 300.927 563.332L273.714 550.793L243.763 580.744L213.887 610.695L222.819 626.256C227.673 634.887 235.208 646.765 239.476 652.733L247.162 663.516L268.691 642.478C293.996 617.626 293.033 620.647 267.218 646.992C250.844 663.648 249.522 665.574 251.807 668.52C269.805 691.465 288.841 708.65 317.375 727.535C350.801 749.668 342.832 751.443 380.828 713.522L413.725 680.776L395.35 680.248H395.275ZM626.914 739.13C632.372 736.014 637.169 732.992 637.603 732.256C638.056 731.519 626.763 719.358 612.524 705.119C598.21 690.88 587.011 678.567 587.521 677.755C587.974 676.943 587.521 676.263 586.482 676.263C585.463 676.263 584.575 677.075 584.575 678.114C584.575 679.152 577.72 679.889 567.522 679.889C558.08 679.889 550.412 680.474 550.412 681.135C550.412 683.288 612.373 744.361 614.734 744.512C615.999 744.588 621.532 742.152 626.914 739.13ZM663.362 714.561C670.594 709.103 684.966 695.676 695.447 684.761L714.332 664.838L691.972 642.478L669.631 620.062L662.758 624.783C659 627.295 655.619 629.127 655.241 628.843C654.939 628.466 655.468 624.632 656.488 620.289C658.187 612.603 658.112 612.319 651.559 606.635C647.725 603.311 646.025 600.8 647.498 600.8C650.445 600.724 631.786 580.971 628.765 580.971C624.629 580.971 572.111 605.389 572.621 606.994C572.923 608.033 575.132 609.071 577.568 609.43C579.929 609.808 583.102 611.054 584.575 612.319C586.048 613.566 588.711 615.039 590.467 615.7C592.393 616.38 593.564 618.665 593.564 621.46C593.564 628.843 596.737 632.828 603.969 634.887C609.503 636.435 611.429 638.361 615.036 645.726C620.21 656.358 626.027 661.155 645.648 670.956C653.617 674.941 660.189 678.567 660.189 679.077C660.189 679.511 654.505 679.889 647.574 679.889C639.151 679.889 635.11 679.228 635.469 677.887C635.696 676.792 634.884 675.451 633.619 675.017C632.372 674.582 631.409 675.451 631.409 677.075C631.409 679.511 628.387 679.889 611.202 679.889H590.92L615.999 705.043C644.836 733.956 639.227 732.785 663.362 714.561ZM728.193 644.178C733.065 636.586 739.712 625.671 742.885 619.835L748.777 609.222L719.865 580.366L691.028 551.529L675.165 558.762C666.459 562.747 653.391 568.715 646.233 571.963C639.095 575.211 633.184 578.384 633.184 579.044C633.184 579.63 637.83 584.729 643.514 590.338C652.22 598.892 654.656 600.29 658.791 599.478C662.398 598.741 664.174 596.89 665.722 591.962C668.819 582.217 670.141 581.839 672.804 590.035C675.448 598.005 679.659 600.724 689.253 600.724C694.71 600.724 694.71 600.724 687.704 606.56C680.698 612.47 680.698 612.47 682.832 621.025C684.003 625.671 684.531 629.504 683.87 629.504C683.266 629.504 689.989 636.813 698.846 645.651C710.857 657.756 715.446 661.287 717.127 659.89C718.392 658.87 723.396 651.788 728.193 644.178ZM370.271 643.441C373.368 635.189 374.482 630.467 372.934 631.865C371.234 633.489 366.815 647.501 367.986 647.501C368.439 647.501 369.459 645.651 370.271 643.441ZM504.088 644.556C502.842 644.027 500.84 644.027 499.594 644.556C498.328 644.99 499.367 645.443 501.803 645.443C504.315 645.443 505.354 644.99 504.088 644.556ZM523.936 644.556C522.671 644.027 520.253 644.027 518.478 644.48C516.779 644.914 517.742 645.368 520.688 645.368C523.709 645.443 525.107 645.065 523.936 644.556ZM570.77 638.21C571.733 633.999 571.658 630.392 570.411 628.315C568.787 625.444 568.56 625.595 568.787 629.504C569.599 643.951 569.373 644.178 557.57 643.743C551.678 643.517 546.22 643.895 545.54 644.631C544.804 645.292 549.827 645.651 556.682 645.368C569.146 644.839 569.146 644.839 570.695 638.21H570.77ZM603.384 644.102C593.205 642.044 585.538 633.111 584.046 621.46C583.536 617.475 583.253 618.211 583.102 623.971C582.875 630.977 583.612 632.677 589.22 637.833C595.566 643.668 595.566 643.668 590.542 644.404C587.748 644.839 590.769 645.216 597.19 645.216C604.857 645.216 606.991 644.839 603.384 644.102ZM363.341 639.173C364.379 636.586 364.813 634.074 364.455 633.716C364.001 633.262 362.831 635.396 361.792 638.437C359.431 645.141 360.829 645.802 363.341 639.173ZM458.35 637.625C454.818 631.487 447 624.122 444.186 624.122C443.091 624.122 460.2 643.366 461.749 643.819C461.975 643.895 460.427 641.081 458.35 637.625ZM525.409 635.396C526.372 632.904 526.731 630.467 526.297 630.014C525.485 629.202 519.8 639.098 519.8 641.232C519.8 643.743 523.785 639.608 525.409 635.396ZM585.236 639.381C584.726 637.908 583.385 636.737 582.365 636.737C581.326 636.737 581.553 637.833 582.8 639.381C584.046 640.93 585.311 642.119 585.67 642.119C585.972 642.119 585.821 640.93 585.236 639.381ZM553.736 634.811C554.038 632.375 555.795 628.843 557.494 626.842C561.045 622.857 563.764 609.732 561.12 609.732C560.157 609.732 559.42 612.093 559.42 614.963C559.42 617.928 557.494 622.574 555.209 625.369C550.564 630.902 547.693 640.93 551.073 639.834C552.188 639.457 553.358 637.172 553.736 634.811ZM565.615 622.12C566.351 610.242 566.275 609.883 564.953 618.74C564.217 624.198 562.952 631.487 562.291 634.887C561.403 639.532 561.555 640.42 562.876 638.286C563.915 636.662 565.105 629.353 565.615 622.12ZM473.042 863.429C473.042 832.874 473.042 832.874 478.424 832.874C483.806 832.874 483.806 832.874 483.806 863.429C483.806 894.041 483.806 894.041 478.424 894.041C473.042 894.041 473.042 894.041 473.042 863.429ZM499.216 887.318C498.48 882.37 494.57 837.595 494.57 833.686C494.57 833.478 497.158 832.874 500.255 832.439C505.863 831.627 506.014 831.854 514.72 849.775L523.483 867.924L522.387 849.7C521.273 831.929 521.349 831.401 525.258 830.154C530.942 828.303 531.754 830.589 533.152 853.25C533.813 864.298 534.852 877.593 535.437 882.824C536.476 892.266 536.476 892.266 529.904 892.266C525.995 892.266 523.351 891.378 523.275 889.981C523.199 888.791 519.574 880.463 515.23 871.531L507.336 855.384L508.45 874.703C509.47 894.041 509.47 894.041 504.9 894.041C500.991 894.041 500.179 893.078 499.216 887.318ZM426.774 891.02C422.053 890.056 422.129 890.132 418.069 868.509C416.237 858.916 414.235 851.324 413.649 851.758C412.988 852.136 411.364 860.181 410.042 869.699C407.606 886.733 407.531 886.884 402.508 886.884C396.389 886.884 396.464 889.528 401.922 855.535C404.434 840.182 406.417 827.208 406.417 826.679C406.417 825.131 414.159 825.509 416.747 827.133C417.936 827.945 420.221 835.385 421.77 843.732C426.189 867.47 426.642 867.773 429.664 848.151C432.534 830.079 434.385 826.982 440.201 830.74C442.128 832.005 441.901 837.009 438.879 857.292C434.46 887.469 433.497 892.342 431.949 891.964C431.288 891.888 428.927 891.454 426.774 891.02ZM86.1133 489.116C86.1133 488.096 87.0762 483.431 88.1904 478.861C90.2488 470.609 90.249 470.609 82.3552 463.754L74.3859 456.88L82.5062 456.804C92.9117 456.672 95.0457 455.18 99.7668 444.718L103.676 436.087L107.661 445.303C111.796 454.972 114.667 456.672 127.282 456.804C131.852 456.879 131.852 457.031 124.411 463.754C116.876 470.609 116.876 470.609 119.388 480.278C120.786 485.584 121.673 490.154 121.371 490.513C121.012 490.891 117.103 488.681 112.608 485.66C108.095 482.638 103.902 480.202 103.241 480.202C102.562 480.202 98.445 482.638 94.0826 485.66C89.6636 488.681 86.1133 490.23 86.1133 489.116ZM120.276 462.186C120.276 461.166 119.011 460.354 117.462 460.354C115.913 460.354 115.177 461.166 115.781 462.186C116.442 463.149 117.688 463.961 118.576 463.961C119.539 463.961 120.276 463.149 120.276 462.186ZM840.104 487.567C840.104 481.524 842.162 478.351 846.147 478.276C849.773 478.276 849.773 478.049 846.883 475.84C845.127 474.518 843.711 472.743 843.711 471.931C843.711 471.043 840.255 467.361 836.043 463.678L828.452 456.955L838.48 456.804C848.583 456.728 848.583 456.728 853.096 446.417L857.666 436.087L861.651 445.379C865.919 455.255 868.279 456.672 880.46 456.728H887.542L880.46 462.998C876.627 466.397 872.264 469.268 870.942 469.268C869.243 469.343 869.016 470.023 870.206 471.628C871.981 473.781 876.324 489.493 875.512 490.381C875.21 490.588 871.452 488.379 867.033 485.509C857.213 478.937 857.817 478.937 848.073 485.66C840.84 490.664 840.104 490.815 840.104 487.567ZM857.213 468.323C858.176 468.248 860.461 468.021 862.161 467.87C865.768 467.512 866.448 461.601 863.049 459.089C859.29 456.294 853.606 457.408 853.606 460.864C853.606 462.639 852.492 464.773 851.095 465.661C849.773 466.473 849.244 468.097 849.924 469.211C850.584 470.307 852.133 470.608 853.304 469.872C854.494 469.135 856.194 468.474 857.213 468.323Z" fill="#C83E3D"/>
<path d="M551.886 470.155C553.151 469.645 555.209 469.645 556.38 470.155C557.646 470.684 556.607 471.043 554.171 471.043C551.735 471.043 550.715 470.684 551.886 470.155Z" fill="#C83E3D"/>
<path d="M533.152 466.775C537.439 466.038 539.799 466.473 541.48 468.531C543.633 471.119 537.495 471.345 475.761 471.345C415.557 471.345 408.116 471.043 411.213 468.682C413.121 467.285 418.069 466.038 422.129 466.038C428.04 465.963 429.796 465.226 430.533 462.337C431.212 459.769 432.969 458.73 437.029 458.73C440.938 458.73 442.562 457.918 442.562 455.86C442.562 454.311 445.376 450.251 448.681 446.852C456.877 438.656 466.678 438.372 475.384 445.964C480.029 450.024 482.541 450.912 487.187 450.251C493.324 449.288 500.179 453.423 500.179 457.918C500.179 461.393 504.447 462.205 508.224 459.467C515.155 454.443 527.184 458.428 527.184 465.736C527.184 467.209 529.016 467.587 533.152 466.775Z" fill="#C83E3D"/>
</svg>
