<svg width="955" height="960" viewBox="0 0 955 960" fill="none" xmlns="http://www.w3.org/2000/svg">
<path fill-rule="evenodd" clip-rule="evenodd" d="M447.679 958.626C441.126 958.251 436.508 956.929 435.107 955.074C433.883 953.455 432.027 952.685 430.961 953.317C429.876 954.008 427.33 953.455 425.238 952.152C422.08 950.139 420.935 950.218 418.547 952.606C415.922 955.231 413.751 955.231 397.804 952.685C385.468 950.771 380.001 949.074 380.001 947.297C380.001 945.916 378.521 945.067 376.823 945.284C374.593 945.758 373.054 943.981 371.81 939.817C370.823 936.501 368.573 933.264 366.737 932.652C361.487 931.034 360.481 926.1 365.494 926.179C372.363 926.179 389.869 931.409 391.409 933.876C392.474 935.652 393.481 935.731 395.415 934.113C397.192 932.731 400.35 932.573 405.284 933.639C429.639 939.205 510.6 940.744 535.647 936.264C539.515 935.573 541.745 935.968 541.745 937.271C541.745 938.435 539.653 939.363 537.107 939.363C530.791 939.363 529.252 942.738 534.956 944.218C539.653 945.363 551.14 939.284 551.14 935.652C551.14 934.725 554.693 933.501 559.094 932.791C573.206 930.56 605.042 922.389 622.075 916.685C641.575 910.211 639.502 910.527 639.502 913.843C639.502 916.073 640.351 916.073 645.206 913.685C648.285 912.067 650.378 910.054 649.746 909.047C649.134 908.06 653.615 905.119 659.615 902.494C688.766 889.705 717.148 873.659 741.345 856.172C756.997 844.902 763.549 844.211 759.7 854.237C758.694 856.862 756.543 858.481 753.839 858.56C751.45 858.56 747.444 859.783 744.819 861.185C740.733 863.494 740.575 863.948 743.437 865.112C745.194 865.803 746.121 867.264 745.51 868.349C744.819 869.435 745.746 871.349 747.444 872.672C757.608 880.073 636.641 938.889 607.805 940.508C601.963 940.902 596.792 942.205 595.548 943.745C592.943 947.06 563.791 952.922 557.633 951.383C554.929 950.692 551.771 951.225 550.074 952.606C544.212 957.462 484.232 961.014 447.679 958.626ZM436.271 947.06C437.889 943.981 437.653 943.587 434.495 944.435C430.646 945.442 429.797 947.139 432.028 949.37C433.804 951.146 434.199 950.988 436.271 947.06ZM578.515 935.573C578.515 931.567 576.522 930.56 574.666 933.718C573.344 935.731 574.962 939.363 577.134 939.363C577.903 939.363 578.515 937.666 578.515 935.573ZM598.173 933.718C598.173 932.652 597.324 931.804 596.258 931.804C595.252 931.804 594.403 932.652 594.403 933.718C594.403 934.725 595.252 935.573 596.258 935.573C597.324 935.573 598.173 934.725 598.173 933.718ZM679.588 904.271C679.055 902.889 677.891 901.724 676.963 901.724C674.97 901.724 674.654 908.06 676.509 909.896C678.364 911.672 680.753 907.29 679.588 904.271ZM332.04 936.659C313.448 930.481 287.158 920.396 280.764 916.922C278.987 915.915 269.593 911.218 260.02 906.501C214.546 884.159 160.269 843.599 129.045 808.744C119.789 798.421 117.559 794.711 118.782 792.165C119.71 790.329 121.17 787.388 122.098 785.553C123.795 782.296 130.19 782.079 131.434 785.316C131.73 786.243 132.736 787.013 133.585 787.013C134.434 787.013 144.144 795.796 155.177 806.592C201.52 851.928 261.579 890.395 317.158 910.211C345.303 920.317 345.994 920.613 344.83 923.554C343.606 926.712 346.369 927.027 349.389 924.008C350.533 922.863 353.001 922.468 354.777 923.159C357.244 924.087 357.481 924.935 355.863 926.633C352.468 930.027 353.238 932.179 357.402 930.876C359.474 930.185 361.172 930.56 361.172 931.567C361.172 932.573 359.553 933.955 357.718 934.567C355.783 935.198 353.474 937.271 352.547 939.284C350.928 942.738 350.159 942.659 332.04 936.659ZM141.144 800.04C141.144 797.809 134.276 796.803 131.039 798.658C127.427 800.651 127.032 804.125 130.19 807.283C131.967 809.059 133.427 808.605 136.743 805.428C139.131 803.197 141.144 800.809 141.144 800.04ZM435.422 925.942C246.303 909.678 81.7754 764.197 41.6107 577.762C2.21576 394.898 77.6899 208.7 233.276 104.765C286.625 69.1593 344.751 46.6393 412.903 35.3103C441.679 30.534 512.988 30.5341 542.673 35.2315C589.627 42.7118 634.173 57.2776 677.437 79.1067C810.819 146.627 901.787 275.154 920.833 422.945C925.155 456.715 923.833 524.57 918.208 555.715C896.004 679.308 827.536 784.546 724.47 853.625C639.66 910.369 541.272 934.962 435.422 925.863V925.942ZM540.896 916.843C664.706 898.725 774.109 829.487 843.267 725.493C948.05 568.051 941.873 365.135 827.615 212.391C809.576 188.272 768.108 146.706 743.812 128.587C631.706 44.4881 499.489 17.5669 366.955 51.8895C264.046 78.5541 169.664 147.259 109.308 239.529C81.6964 281.707 56.6504 343.306 46.3872 393.892C33.8147 456.577 35.3738 525.715 50.7883 587.63C94.1899 761.414 241.98 893.553 419.475 917.455C449.85 921.54 511.054 921.244 540.896 916.843ZM446.613 902.652C443.83 898.409 443.751 897.481 446.376 893.632C448.37 890.474 448.685 888.323 447.304 885.915C444.205 880.369 448.37 873.52 454.784 873.52C457.705 873.52 461.1 874.507 462.324 875.751C465.107 878.455 465.343 885.994 462.797 887.553C461.712 888.244 461.791 890.395 463.094 893.257C468.028 904.034 453.087 912.6 446.613 902.652ZM457.093 896.869C457.093 890.928 452.692 891.639 451.765 897.639C451.39 900.343 452.159 901.724 454.153 901.724C456.087 901.724 457.093 900.027 457.093 896.869ZM457.784 883.922C459.087 880.448 455.554 878.06 452.929 880.685C450.916 882.678 452.376 886.705 455.08 886.705C456.008 886.705 457.172 885.461 457.784 883.922ZM472.113 906.817C472.113 905.968 478.528 887.613 480.6 882.461C481.765 879.678 480.916 879.145 475.133 879.145C470.357 879.145 468.344 878.297 468.344 876.362C468.344 874.211 470.653 873.52 477.442 873.52C482.455 873.52 486.995 874.053 487.626 874.586C489.778 876.757 478.449 906.442 475.291 907.053C473.514 907.35 472.113 907.29 472.113 906.896V906.817ZM499.192 905.889C489.699 899.573 491.238 878.455 501.58 873.737C507.58 870.974 507.896 871.053 507.896 875.218C507.896 877.132 506.199 879.145 504.126 879.678C498.64 881.139 499.488 884.455 505.429 885.145C509.357 885.619 510.975 887.159 512.298 891.777C515.14 901.803 506.732 910.902 499.192 905.889ZM505.962 896.099C505.962 892.33 505.034 890.474 503.199 890.474C500.337 890.474 499.113 898.034 501.58 900.501C504.265 903.185 505.962 901.507 505.962 896.099ZM424.468 904.192C422.159 901.882 423.245 900.264 427.942 899.04C430.488 898.409 432.64 896.632 432.64 895.172C432.64 893.553 431.494 892.863 429.955 893.474C425.554 895.172 420.698 885.915 422.711 879.836C425.317 871.961 430.883 869.119 436.192 872.81C440.12 875.593 440.514 877.053 439.745 887.238C439.133 896.099 438.047 899.257 434.653 902.04C430.172 905.593 426.64 906.363 424.468 904.192ZM434.198 882.461C433.804 879.066 432.718 876.362 431.731 876.362C430.646 876.362 429.56 879.066 429.264 882.461C428.79 887.08 429.402 888.54 431.731 888.54C434.04 888.54 434.573 887.08 434.198 882.461ZM521.396 903.185C520.153 901.961 519.147 899.889 519.147 898.488C519.147 895.646 524.081 895.251 525.699 897.955C528.028 901.646 530.416 899.731 530.416 894.323C530.416 887.849 527.633 885.382 523.863 888.54C519.778 891.935 518.002 889.626 517.528 880.211C517.232 873.816 517.765 871.665 519.778 871.665C521.238 871.665 525.087 871.112 528.324 870.422C532.804 869.573 534.186 869.968 534.186 872.119C534.186 873.737 531.798 875.356 528.561 876.047C525.087 876.757 522.936 878.376 522.936 880.211C522.936 882.224 523.923 882.915 525.699 882.224C530.416 880.448 533.87 882.915 536.199 889.705C537.896 895.093 537.738 897.027 535.271 900.876C532.035 905.81 525.166 906.975 521.396 903.185ZM408.442 901.882C406.508 900.718 406.429 898.724 408.205 892.409C411.146 881.534 409.528 880.922 405.501 891.323C401.278 902.415 397.725 902.277 395.948 890.849C394.488 881.455 394.172 881.612 392.336 892.705C391.409 897.955 390.402 899.415 388.231 898.488C385.843 897.639 385.547 895.645 386.553 888.698C388.863 872.968 391.626 864.106 394.409 864.106C397.725 864.106 398.889 867.106 400.428 879.599L401.731 889.468L406.211 878.672C410.672 868.112 412.527 866.494 417.007 869.277C418.626 870.343 418.31 874.586 416.001 886.073C412.606 902.968 412.073 904.034 408.442 901.882ZM553.528 897.797C552.699 894.56 551.456 894.027 547.055 894.955C540.581 896.178 540.364 894.323 544.982 879.303C547.982 869.573 550.153 866.119 553.311 866.04C554.002 866.04 555.166 870.422 555.857 875.83C556.627 881.297 558.541 886.705 560.318 888.007C562.864 890.02 562.943 890.632 560.712 892.093C559.311 893.02 558.62 895.093 559.252 896.632C559.864 898.33 559.094 900.027 557.475 900.659C555.541 901.349 554.239 900.343 553.528 897.797ZM551.061 884.297C551.061 880.922 550.686 880.606 549.225 882.915C546.916 886.547 546.916 888.54 549.225 888.54C550.291 888.54 551.14 886.626 551.061 884.297ZM568.41 893.79C564.561 890.02 565.943 888.007 571.587 889.172C574.587 889.784 577.508 889.784 578.14 889.172C579.758 887.553 575.673 880.764 573.739 881.909C570.423 884.001 569.653 878.83 572.969 876.441C575.89 874.29 576.048 873.52 573.739 870.737C571.43 867.954 570.956 867.955 569.495 870.58C567.502 874.132 562.41 874.428 562.41 870.974C562.41 867.658 568.489 862.172 572.12 862.172C576.739 862.172 581.831 869.119 580.607 873.659C579.976 875.988 580.745 878.909 582.304 880.448C588.383 886.547 584.298 896.021 575.594 896.021C572.89 896.021 569.653 895.014 568.41 893.79ZM591.778 890.849C591.246 889.942 592.548 884.455 594.7 878.593C598.489 868.349 598.41 862.25 594.403 862.25C593.397 862.25 592.469 863.948 592.469 865.961C592.469 868.507 591.245 869.731 588.699 869.731C583.844 869.731 583.765 863.869 588.699 859.487C593.791 854.849 601.489 856.941 603.108 863.336C603.719 866.04 603.344 871.428 602.18 875.277C599.417 884.612 599.338 884.376 604.726 883.389C611.437 882.066 610.982 887.77 604.272 889.389C601.41 890.08 597.719 891.007 596.022 891.56C594.245 892.014 592.39 891.777 591.857 890.849H591.778ZM348.915 888.165C344.218 885.54 342.442 882.915 342.363 878.672C342.363 874.132 347.297 874.507 348.54 879.145C349.073 881.218 350.849 882.915 352.389 882.915C357.718 882.915 357.856 878.909 352.922 873.659C344.909 865.349 347.139 854.691 356.869 854.691C361.724 854.691 369.343 861.244 368.277 864.56C366.876 868.507 362.79 868.27 361.724 864.185C361.172 861.875 359.474 860.415 357.797 860.711C353.079 861.639 353.237 865.033 358.33 870.422C364.191 876.836 364.409 883.606 358.863 887.553C353.928 890.928 353.85 890.928 348.915 888.165ZM326.02 880.369C322.783 879.224 319.468 877.606 318.777 876.895C316.843 874.981 327.797 845.296 330.343 845.296C331.487 845.296 335.593 846.599 339.441 848.218C346.448 851.158 347.849 856.25 341.218 854.928C333.954 853.468 332.119 853.843 331.567 856.704C331.192 858.481 332.968 860.632 335.81 861.876C341.83 864.639 340.132 868.349 333.58 866.652C330.422 865.882 328.25 866.415 327.185 868.112C324.481 872.356 325.093 873.58 331.191 875.672C334.349 876.836 336.579 878.593 336.204 879.757C335.198 882.678 332.731 882.836 326.02 880.448V880.369ZM372.047 881.376C370.054 880.527 369.343 879.224 370.35 877.685C371.435 875.83 373.132 875.751 376.981 877.211C379.764 878.297 381.541 879.994 380.909 881.06C379.606 883.152 376.823 883.31 372.047 881.376ZM623.16 879.599C617.831 864.797 615.147 859.408 612.976 859.25C607.193 858.777 607.035 858.244 611.279 853.783C613.746 851.158 616.292 849.066 617.062 849.066C617.752 849.066 620.535 854.77 623.16 861.797C625.785 868.724 628.469 875.83 629.101 877.527C629.871 879.363 629.239 880.981 627.325 881.691C625.469 882.461 623.93 881.691 623.16 879.599ZM446.751 820.625C301.961 808.053 179.848 703.822 143.848 562.11C112.387 438.063 155.256 303.378 252.855 219.575C300.974 178.246 352.073 153.574 416.692 140.627C443.435 135.219 518.771 135.772 544.982 141.555C617.298 157.285 675.206 189.575 725.24 241.996C803.556 324.122 836.556 437.451 814.135 547.229C796.154 634.979 743.2 713.69 668.654 763.487C617.456 797.73 565.41 815.691 503.199 820.783C476.593 822.934 473.811 822.934 446.751 820.625ZM521.693 810.52C672.661 790.704 791.694 669.894 809.891 518.018C834.168 314.707 669.187 135.772 465.561 144.397C397.488 147.337 336.816 167.982 281.849 206.924C260.73 221.963 220.171 262.819 204.677 284.865C155.493 354.497 134.513 440.076 145.763 524.728C162.421 650.157 252.007 757.329 373.369 797.04C419.317 812.059 472.824 816.915 521.693 810.52ZM434.416 789.855C385.389 782.77 342.994 766.427 300.974 738.598C275.671 721.782 238.743 686.078 221.71 661.96C186.085 611.374 165.421 551.314 164.809 496.504C164.651 478.623 165.045 475.761 167.749 475.228C170.355 474.695 171.066 477.083 172.052 491.116C175.605 541.228 184.625 576.696 203.434 614.472C233.809 675.598 283.231 724.328 345.145 754.092C406.665 783.697 473.041 791.553 542.042 777.52C630.167 759.559 710.042 697.269 750.365 614.926C770.418 574.15 779.595 539.985 782.141 497.353C783.286 477.379 783.681 475.761 787.135 475.761C790.688 475.761 790.924 476.846 790.53 491.728C786.76 641.67 670.193 769.822 519.304 789.934C495.324 793.092 456.482 793.092 434.416 789.855ZM334.803 692.019C322.093 684.697 322.329 684.776 315.461 688.94C308.06 693.559 304.744 694.032 304.744 690.48C304.744 687.48 317.928 679.762 323.099 679.762C325.093 679.762 328.961 681.46 331.567 683.552C337.744 688.407 341.435 688.328 351.165 683.157C358.783 679.151 359.257 679.072 365.81 682.23C372.284 685.308 375.975 690.026 373.744 692.335C373.132 692.947 369.659 691.565 365.968 689.256C359.257 685.17 359.257 685.17 353.159 688.782C344.06 694.328 340.053 695.039 334.803 692.019ZM598.647 689.947C590.693 685.091 590.693 685.091 584.298 689.019C576.976 693.559 573.66 694.032 573.66 690.48C573.66 689.098 577.133 686.078 581.298 683.769C589.39 679.229 597.798 679.526 602.041 684.618C605.199 688.486 614.595 687.933 620.22 683.552C627.404 677.907 639.502 679.683 639.502 686.473C639.502 689.71 636.956 689.947 631.647 687.164C628.548 685.466 626.713 685.861 622.39 689.098C613.982 695.256 607.745 695.493 598.647 689.947ZM395.021 681.697V621.479H300.974V531.202H332.731L333.58 507.222C334.033 494.037 335.731 474.754 337.349 464.432C338.968 454.109 340.369 444.853 340.448 443.846C340.586 439.445 344.06 446.234 344.672 452.254C345.757 462.123 347.613 455.491 348.994 436.603C350.238 420.418 350.317 420.103 355.547 419.017C359.475 418.247 361.033 416.629 361.882 412.385C363.185 405.991 366.816 406.997 366.816 413.787C366.816 418.168 367.428 418.405 378.067 418.405C389.159 418.405 389.396 418.247 389.396 413.155C389.396 400.208 393.56 345.694 396.106 325.266C401.415 283.404 402.501 265.898 400.192 262.207C397.192 257.351 403.271 250.246 408.205 252.871C412.527 255.18 414.382 260.273 411.994 263.134C409.744 265.898 410.909 290.51 414.383 312.931C416.85 328.819 416.85 328.819 420.62 324.655C424.784 320.174 430.883 282.259 431.81 254.332C432.106 246.397 432.876 238.917 433.567 237.772C434.337 236.608 433.429 234.062 431.573 232.068C428.416 228.595 428.494 228.2 431.731 224.667C435.896 220.029 438.659 219.871 442.666 224.351C445.37 227.351 445.449 228.121 442.981 231.674C440.83 234.674 440.593 237.615 441.896 244.542C442.824 249.476 443.14 254.648 442.587 256.029C442.133 257.43 442.587 263.825 443.751 270.299C446.751 287.885 451.468 336.674 451.468 351.023C451.468 357.951 452.08 363.971 452.85 364.444C455.238 365.668 466.488 362.056 466.488 359.964C466.488 358.879 464.791 354.714 462.797 350.707C457.468 340.385 457.942 336.063 464.652 332.293C470.278 329.056 470.278 329.056 470.278 298.898C470.278 279.24 469.587 267.99 468.186 266.608C463.567 261.97 471.58 258.358 477.837 262.286C479.988 263.667 480.146 264.516 478.212 266.371C476.594 267.99 475.903 277.384 475.903 299.214C475.903 329.826 475.903 329.826 481.074 332.293C487.843 335.53 488.396 339.536 483.383 349.859C481.153 354.497 479.751 359.431 480.304 360.813C481.074 362.964 490.942 366.359 492.324 364.977C492.561 364.74 494.475 344.392 496.567 319.799C498.719 295.128 500.811 274.306 501.344 273.536C503.574 269.924 504.048 233.45 501.956 230.904C500.179 228.832 500.574 227.43 503.653 224.351C510.285 217.72 518.692 224.667 513.679 232.601C512.298 234.91 511.903 238.542 512.752 242.233C513.521 245.47 514.291 253.266 514.449 259.503C514.686 265.68 516.305 282.181 518.219 296.056C521.002 317.016 522.304 321.951 525.561 324.576C529.488 327.734 529.567 327.655 531.877 313.405C535.114 293.746 536.416 266.45 534.344 262.582C532.331 258.812 535.962 252.871 540.285 252.871C545.219 252.871 548.456 258.279 545.91 262.286C543.896 265.522 545.752 305.076 548.061 308.924C549.384 311.016 554.614 366.912 556.074 394.425L557.318 418.405H567.186C572.574 418.405 579.68 418.938 582.916 419.57C588.305 420.635 589.074 420.182 591.088 414.853C593.93 407.451 596.022 407.372 597.482 414.635C598.489 419.57 599.417 420.339 604.963 420.339C611.279 420.339 611.279 420.339 611.358 436.761C611.358 457.109 613.667 467.353 615.068 453.636C615.601 448.702 616.844 444.616 617.91 444.616C620.456 444.616 626.002 490.406 626.239 512.926L626.397 531.281H652.687V621.558H558.542L559.785 635.433C560.476 643.071 560.397 656.631 559.706 665.512L558.324 681.697H395.021ZM645.128 612.065V538.761H310.369V612.065H645.128ZM425.317 576.538C425.317 562.505 425.337 562.505 433.725 562.505C438.422 562.505 442.212 563.354 442.212 564.36C442.212 565.367 439.666 566.215 436.587 566.215C432.185 566.215 430.942 567.064 430.942 569.985C430.942 572.768 432.185 573.775 435.659 573.775C438.205 573.775 440.357 574.624 440.357 575.61C440.357 576.696 438.205 577.545 435.659 577.545C431.87 577.545 430.942 578.472 430.942 582.242C430.942 586.17 431.79 586.959 436.587 586.959C439.666 586.959 442.212 587.808 442.212 588.795C442.212 589.801 438.422 590.65 433.725 590.65C425.337 590.65 425.317 590.65 425.317 576.617V576.538ZM445.37 589.426C444.679 588.716 444.126 582.321 444.126 575.156C444.126 563.906 444.521 562.288 447.383 562.821C449.139 563.137 452.455 566.827 454.844 570.992L459.087 578.472V570.459C459.166 564.676 459.935 562.505 461.949 562.505C464.258 562.505 464.791 565.288 464.791 576.617C464.791 593.729 461.633 595.347 454.547 581.788L449.909 572.847L449.85 581.788C449.692 590.117 448.37 592.426 445.291 589.426H445.37ZM474.205 578.472C474.205 567.518 473.811 566.215 470.416 566.215C468.344 566.215 466.646 565.367 466.646 564.36C466.646 563.354 471.344 562.505 477.048 562.505C482.692 562.505 487.39 563.354 487.39 564.36C487.39 565.367 485.693 566.215 483.6 566.215C480.225 566.215 479.83 567.518 479.83 578.472C479.83 588.104 479.219 590.65 477.048 590.65C474.817 590.65 474.205 588.104 474.205 578.472ZM491.081 576.617C491.081 562.505 491.08 562.505 497.337 562.505C500.732 562.505 504.581 563.512 505.804 564.755C508.587 567.518 508.745 574.229 506.041 576.933C504.502 578.472 504.502 580.091 506.041 582.874C508.824 588.104 508.587 590.65 505.271 590.65C503.732 590.65 501.956 588.578 501.344 586.031C500.653 583.406 499.41 581.314 498.482 581.314C497.554 581.314 496.33 583.406 495.719 586.031C493.409 595.13 491.16 590.492 491.16 576.617H491.081ZM502.035 571.525C501.186 565.525 496.785 564.893 496.785 570.755C496.785 573.913 497.791 575.61 499.725 575.61C501.659 575.61 502.488 574.308 502.035 571.525ZM516.995 583.643C516.521 579.775 514.765 573.38 513.067 569.531C510.205 563.196 510.206 562.505 512.831 562.505C514.449 562.505 516.679 565.209 517.844 568.604L519.995 574.683L522.462 568.604C523.864 565.209 526.173 562.505 527.712 562.505C530.021 562.505 529.785 563.966 526.785 571.071C524.771 575.847 523.074 582.163 523.074 585.183C523.074 593.512 518.002 592.189 516.995 583.643ZM360.797 522.182C363.718 521.788 365.494 522.873 366.816 525.952C368.494 530.038 368.573 529.959 368.198 524.649C367.803 519.952 366.817 518.945 362.336 518.393C356.159 517.702 353.632 520.485 353.85 527.492C354.007 532.209 354.007 532.209 355.329 527.492C356.099 524.57 358.251 522.557 360.797 522.182ZM377.139 522.103C379.073 521.709 381.837 523.031 383.297 524.946C385.764 528.182 385.843 528.123 385.31 523.722C384.008 513.774 370.27 518.097 370.744 528.261C370.902 531.577 371.119 531.439 372.284 527.492C372.974 524.886 375.126 522.478 377.139 522.103ZM575.594 525.873C575.594 522.952 573.897 519.024 571.805 517.169C568.193 513.853 567.956 513.853 564.324 517.169C562.252 519.024 560.555 522.952 560.555 525.873C560.555 530.886 561.008 531.202 568.035 531.202C575.041 531.202 575.594 530.886 575.594 525.873ZM609.443 524.886C609.443 514.011 599.495 510.991 597.028 521.097C595.252 528.044 597.404 531.281 603.719 531.281C608.97 531.281 609.443 530.649 609.443 524.886ZM417.916 520.406C418.764 507.676 423.778 507.991 425.317 520.86L426.402 530.274L426.718 520.406C426.935 511.919 427.488 510.537 430.646 510.537C433.725 510.537 434.573 512.235 435.659 519.952C436.35 525.103 437.653 529.347 438.659 529.347C441.521 529.347 439.271 499.82 434.968 481.386C432.797 472.07 430.113 459.577 428.87 453.636C425.791 438.221 422.929 439.228 420.383 456.577C419.159 464.511 419.317 465.044 422.771 464.116C427.251 462.971 428.1 464.116 429.876 473.61C431.179 480.537 431.021 480.695 427.251 478.702C423.856 476.846 423.008 477.3 420.698 481.781C417.067 488.708 414.146 499.208 411.225 515.709C408.757 529.347 408.758 529.347 413.06 529.347C416.85 529.347 417.462 528.261 417.916 520.406ZM419.534 496.347C419.475 492.419 424.33 484.248 426.718 484.248C428.869 484.248 435.264 497.274 433.725 498.814C432.955 499.504 431.495 498.656 430.488 496.899C428.179 492.735 425.238 492.735 422.08 496.899C419.771 499.978 419.613 499.978 419.534 496.426V496.347ZM453.304 520.011C453.304 511.998 454.015 510.143 458.238 507.459C465.719 502.524 469.192 505.84 469.883 518.709C470.278 526.347 471.206 529.347 473.041 529.347C474.975 529.347 475.903 526.347 476.278 518.709C476.988 506.057 480.363 502.603 488.002 506.689C492.245 508.998 492.857 510.459 492.857 519.32C492.857 528.123 493.251 529.347 496.567 529.347C499.962 529.347 500.337 528.123 500.337 516.636C500.337 506.689 497.87 495.498 488.85 464.432C482.534 442.761 477.047 423.872 476.672 422.649C475.745 419.254 468.344 419.708 468.344 423.182C468.344 426.043 459.008 459.103 450.383 486.715C444.284 506.215 443.83 529.347 449.534 529.347C452.85 529.347 453.304 528.123 453.304 520.011ZM464.021 499.287C455.929 495.972 455.85 495.498 460.863 485.096C466.113 474.3 471.423 469.682 475.508 472.228C479.515 474.695 489.087 493.189 487.923 496.189C486.304 500.511 471.659 502.445 464.021 499.287ZM461.712 461.116C463.488 450.794 469.725 437.215 472.745 437.215C475.587 437.215 478.745 443.234 482.613 455.945C485.85 466.583 484.528 467.906 478.291 459.892L473.278 453.557L466.962 460.879L460.567 468.202L461.712 461.116ZM509.752 522.34C509.83 506.985 518.929 506.057 519.462 521.334L519.699 530.274L520.844 520.86C522.383 507.991 527.318 507.676 528.166 520.406C528.719 528.044 529.331 529.347 532.646 529.347C536.258 529.347 536.416 528.656 535.114 518.551C533.574 505.919 525.561 479.314 522.778 477.537C521.692 476.925 519.462 477.537 517.844 478.919C515.061 481.169 514.903 480.695 516.225 473.906C518.002 464.353 518.535 463.583 523.153 463.583C525.857 463.583 526.627 462.577 525.936 460.267C525.403 458.412 524.396 453.794 523.706 449.866C522.245 441.458 519.62 439.149 518.219 445.149C507.285 492.873 502.804 529.347 507.817 529.347C508.903 529.347 509.752 526.189 509.752 522.34ZM512.515 494.116C513.225 491.254 514.982 487.643 516.601 486.103C519.068 483.557 519.778 483.774 523.015 487.722C526.942 492.498 527.87 497.353 524.772 497.353C523.785 497.353 522.936 496.504 522.936 495.498C522.936 492.577 517.311 493.347 516.068 496.426C514.133 501.518 511.133 499.504 512.515 494.116ZM346.685 522.478C350.534 523.485 351.461 523.189 350.613 521.097C348.146 514.623 336.738 517.09 336.738 524.038C336.738 527.965 336.816 528.044 339.284 524.728C341.139 522.182 343.132 521.63 346.764 522.478H346.685ZM589.706 516.853C587.298 515.156 585.305 515.018 582.838 516.32C577.903 518.945 578.515 521.491 583.844 520.485C586.311 520.011 588.996 520.643 589.765 522.024C591.009 524.038 591.462 523.959 592.173 521.946C592.627 520.485 591.541 518.255 589.706 516.932V516.853ZM361.172 511.386C363.718 511.465 367.033 512.235 368.435 513.163C369.974 514.169 371.514 514.011 372.284 512.768C373.823 510.222 382.31 510.616 384.146 513.241C386.613 516.695 385.764 507.834 382.685 497.511C379.369 486.32 378.363 486.478 374.218 498.893C372.52 503.748 370.507 507.538 369.58 507.38C368.731 507.143 366.58 502.524 364.882 496.959C361.724 487.031 361.724 487.031 359.415 492.656C358.172 495.735 356.632 500.669 356.099 503.511C354.402 511.998 352.31 511.149 348.836 500.669C344.218 486.399 343.902 486.241 340.29 496.504C335.356 510.537 335.652 511.998 343.132 511.386C347.771 510.991 350.001 511.761 350.849 514.011C351.935 516.774 352.231 516.853 354.244 514.169C355.468 512.551 358.567 511.307 361.172 511.386ZM341.593 507.064C340.211 504.754 342.204 499.287 344.454 499.287C345.382 499.287 346.152 500.511 346.152 502.051C346.152 503.59 346.152 505.524 346.231 506.294C346.448 508.445 342.836 509.077 341.593 507.064ZM358.863 507.616C357.481 506.215 359.415 499.287 361.172 499.287C363.185 499.287 365.198 504.833 363.876 506.985C362.731 508.919 360.402 509.156 358.863 507.616ZM375.678 506.215C375.126 504.754 375.442 502.445 376.369 500.985C377.83 498.735 378.363 498.735 379.922 501.123C380.988 502.682 381.54 504.754 381.225 505.682C380.297 508.682 376.744 508.998 375.678 506.215ZM585.384 509.294C587.772 509.156 590.772 509.926 592.015 510.991C593.555 512.235 595.173 512.235 596.713 510.991C598.015 510.005 600.798 509.156 602.871 509.156C604.884 509.156 607.667 510.005 608.969 510.991C612.206 513.616 611.969 508.998 608.279 497.886C603.956 484.939 602.871 484.702 599.18 496.347C597.403 502.051 595.331 506.768 594.561 506.768C593.851 506.768 591.541 501.518 589.469 495.044L585.68 483.241L581.515 496.268C577.134 510.38 576.127 517.485 579.285 512.393C580.292 510.853 582.995 509.452 585.384 509.294ZM582.522 505.603C580.746 503.827 584.91 497.116 586.923 498.36C589.706 500.057 589.074 506.768 586.232 506.768C584.831 506.768 583.213 506.215 582.522 505.603ZM601.114 505.149C599.713 502.899 601.726 497.353 603.956 497.353C604.884 497.353 605.654 498.577 605.654 500.215C605.654 501.754 605.732 503.59 605.811 504.36C606.048 506.531 602.338 507.143 601.114 505.149ZM570.423 509.531C573.265 509.689 575.594 509.294 575.594 508.84C575.594 505.84 568.884 486.103 567.877 486.103C566.653 486.103 560.555 506.136 560.555 510.38C560.555 512.077 561.324 512.314 562.864 511.07C564.186 510.143 567.561 509.452 570.423 509.531ZM565.41 505.149C564.028 502.899 566.022 497.353 568.272 497.353C569.179 497.353 569.969 498.577 569.969 500.215C569.969 501.754 569.969 503.59 570.029 504.36C570.265 506.531 566.653 507.143 565.331 505.149H565.41ZM414.916 467.669C412.527 460.8 412.528 460.8 411.284 472.761C409.054 494.274 409.745 497.886 413.751 485.412C416.771 476.077 416.929 473.452 414.916 467.669ZM534.798 476.61C533.574 459.044 533.574 458.965 531.107 466.129C528.936 472.287 529.094 474.754 531.877 484.248C533.653 490.268 535.351 494.965 535.568 494.728C535.884 494.432 535.489 486.241 534.798 476.61ZM358.251 479.156C358.942 477.222 358.33 475.307 356.553 474.379C352.863 472.287 352.784 467.294 356.474 467.294C358.014 467.294 359.336 468.281 359.336 469.603C359.336 471.3 359.869 471.221 361.033 469.366C363.955 464.748 367.034 468.971 365.731 475.919C364.645 481.86 364.883 482.314 369.422 482.314C373.665 482.314 374.435 481.307 375.521 474.754C376.211 470.669 377.455 467.294 378.363 467.294C379.212 467.294 380.534 470.669 381.146 474.754C381.836 478.919 383.159 482.314 384.086 482.314C386.77 482.314 388.468 476.077 386.001 475.228C383.455 474.379 382.922 467.906 385.389 466.978C386.238 466.583 387.541 460.958 388.31 454.405C389.238 446.155 389.021 442.84 387.619 443.688C386.554 444.379 385.547 445.938 385.468 447.162C385.468 448.405 383.85 452.787 381.915 456.952C378.067 465.517 378.678 466.208 369.738 442.228C367.428 436.208 364.803 431.589 363.876 431.905C362.948 432.201 358.941 440.846 355.093 451.169C349.764 465.123 348.303 471.439 349.152 476.156C350.455 482.945 356.099 484.781 358.251 479.156ZM369.047 470.531C369.343 468.202 370.507 466.366 371.514 466.366C372.521 466.366 373.665 468.202 373.981 470.531C374.356 473.452 373.665 474.754 371.514 474.754C369.422 474.754 368.652 473.452 369.047 470.531ZM360.481 460.741C359.179 457.346 360.955 446.925 363.106 445.622C365.889 443.925 368.968 450.162 368.356 456.34C367.724 462.971 362.494 465.971 360.481 460.741ZM564.246 473.846C564.246 469.208 565.173 467.294 567.107 467.294C568.647 467.294 569.969 468.281 570.107 469.603C570.186 471.517 570.423 471.517 571.193 469.603C572.811 465.517 575.594 467.057 575.594 472.07C575.594 474.833 574.745 476.373 573.66 475.682C572.653 475.07 571.805 475.919 571.805 477.458C571.805 479.156 573.423 480.399 575.594 480.399C578.515 480.399 579.364 479.156 579.364 474.912C579.364 469.524 582.917 464.511 583.213 469.524C583.371 471.379 583.607 471.439 584.377 469.603C586.232 464.886 588.778 467.432 588.778 473.985C588.778 480.162 589.154 480.616 593.93 480.083C598.173 479.55 599.259 478.386 600.028 473.294C601.252 465.359 604.43 465.281 605.654 473.136C606.818 480.695 611.279 482.787 611.279 475.761C611.279 470.748 596.18 429.655 594.324 429.655C593.792 429.655 590.476 437.293 587.002 446.708C579.897 465.813 580.055 465.892 572.357 444.241C569.495 436.208 566.713 429.655 566.18 429.655C563.476 429.655 556.311 455.945 557.633 460.958C558.403 463.899 559.311 469.287 559.627 472.919C560.397 481.011 560.16 480.399 562.41 480.399C563.397 480.399 564.246 477.458 564.246 473.846ZM592.469 471.991C592.469 469.366 593.318 467.294 594.403 467.294C595.41 467.294 596.258 469.366 596.258 471.991C596.258 474.537 595.41 476.689 594.403 476.689C593.318 476.689 592.469 474.537 592.469 471.991ZM561.403 459.577C560.16 455.57 563.634 444.695 566.18 444.695C568.331 444.695 569.969 449.866 569.969 457.109C569.969 462.202 569.18 463.504 566.337 463.504C564.245 463.504 562.094 461.807 561.403 459.577ZM591.009 454.563C591.384 448.169 592.311 445.622 594.403 445.622C596.397 445.622 597.324 448.169 597.798 454.563C598.252 462.577 597.936 463.504 594.403 463.504C590.851 463.504 590.476 462.577 591.009 454.563ZM401.495 437.136C402.896 422.885 401.494 414.004 398.573 418.563C396.481 421.958 396.422 450.32 398.573 450.32C399.422 450.32 400.804 444.379 401.495 437.136ZM549.225 434.432C549.225 418.247 546.838 411.853 544.509 422.175C542.969 429.28 545.219 450.32 547.528 450.32C548.456 450.32 549.225 443.155 549.225 434.432ZM411.994 427.741C411.994 419.017 411.146 412.701 410.06 412.701C408.975 412.701 408.205 419.017 408.205 427.741C408.205 436.524 408.975 442.84 410.06 442.84C411.146 442.84 411.994 436.524 411.994 427.741ZM537.956 427.741C537.956 419.017 537.186 412.701 536.12 412.701C534.956 412.701 534.186 419.017 534.186 427.741C534.186 436.524 534.956 442.84 536.12 442.84C537.186 442.84 537.956 436.524 537.956 427.741ZM485.001 429.892C483.758 424.563 481.982 420.261 480.995 420.261C480.067 420.261 479.672 421.405 480.304 422.885C480.837 424.346 482.297 428.965 483.62 433.208C486.778 443.925 487.705 441.695 485.001 429.892ZM420.856 414.083C420.462 409.701 420.165 413.708 420.165 423.024C420.165 432.359 420.462 435.912 420.856 430.978C421.231 426.043 421.231 418.405 420.856 414.083ZM465.343 418.484C463.883 417.024 460.942 422.649 460.863 426.813C460.784 428.886 460.33 432.675 459.857 435.28C459.324 437.827 460.567 435.359 462.561 429.655C464.574 424.03 465.797 418.938 465.343 418.484ZM359.257 425.885C359.257 424.879 358.014 424.03 356.474 424.03C354.935 424.03 353.632 424.879 353.632 425.885C353.632 426.892 354.935 427.741 356.474 427.741C358.014 427.741 359.257 426.892 359.257 425.885ZM389.396 425.885C389.396 424.879 384.698 424.03 378.915 424.03C372.442 424.03 368.889 424.721 369.659 425.885C370.271 426.892 374.988 427.741 380.06 427.741C385.231 427.741 389.396 426.892 389.396 425.885ZM432.58 410.392C432.58 390.418 429.718 390.951 429.185 411.004C428.869 423.103 429.56 427.741 431.81 427.741C432.264 427.741 432.639 419.945 432.58 410.392ZM515.377 410.392C515.377 398.431 514.765 393.892 513.521 395.806C510.443 400.603 511.37 427.741 514.686 427.741C515.061 427.741 515.377 419.945 515.377 410.392ZM589.706 425.885C590.397 424.642 584.693 424.03 573.818 424.03C563.712 424.03 556.785 424.8 556.785 425.885C556.785 426.971 563.338 427.741 572.653 427.741C581.377 427.741 589.074 426.892 589.706 425.885ZM605.654 425.885C605.654 424.879 604.43 424.03 602.871 424.03C601.252 424.03 600.028 424.879 600.028 425.885C600.028 426.892 601.252 427.741 602.871 427.741C604.43 427.741 605.654 426.892 605.654 425.885ZM526.094 416.945C525.62 415.168 525.245 416.629 525.245 420.261C525.245 423.872 525.62 425.353 526.094 423.497C526.548 421.721 526.548 418.8 526.094 416.945ZM443.909 405.142C443.909 396.438 443.139 390.102 442.054 390.102C440.968 390.102 440.12 396.438 440.12 405.142C440.12 413.925 440.968 420.261 442.054 420.261C443.139 420.261 443.909 413.925 443.909 405.142ZM505.962 405.142C505.962 398.056 505.113 391.721 504.126 391.109C502.883 390.339 502.192 395.51 502.192 405.142C502.192 414.853 502.883 420.024 504.126 419.254C505.113 418.642 505.962 412.307 505.962 405.142ZM462.324 395.352C462.877 379.326 462.877 379.326 458.238 380.234C453.778 381.083 453.541 381.793 453.008 397.05C452.613 405.833 452.613 413.313 453.008 413.708C453.383 414.004 455.554 413.629 457.705 412.859C461.416 411.458 461.87 409.76 462.324 395.352ZM492.778 397.583C492.778 383.629 492.482 382.405 488.614 380.944C484.528 379.385 484.311 379.78 483.758 391.721C483.067 407.688 484.39 412.701 489.087 412.701C492.482 412.701 492.857 411.399 492.857 397.583H492.778ZM477.442 405.754C477.758 403.603 476.751 399.063 475.37 395.51C472.666 389.194 472.666 389.194 470.278 397.129C468.264 403.602 468.264 405.616 470.278 408.004C473.357 411.774 476.673 410.688 477.442 405.754ZM401.573 403.287C402.264 402.3 401.968 401.451 400.883 401.451C399.876 401.451 398.494 402.3 397.882 403.287C397.192 404.372 397.488 405.221 398.573 405.221C399.58 405.221 400.962 404.372 401.573 403.287ZM548.298 403.287C547.686 402.3 546.285 401.451 545.298 401.451C544.212 401.451 543.897 402.3 544.509 403.287C545.219 404.372 546.521 405.221 547.607 405.221C548.594 405.221 548.91 404.372 548.298 403.287ZM412.903 397.662C413.534 396.655 413.218 395.806 412.133 395.806C411.146 395.806 409.745 396.655 409.133 397.662C408.521 398.668 408.817 399.517 409.824 399.517C410.909 399.517 412.212 398.668 412.903 397.662ZM537.048 397.662C536.337 396.655 535.035 395.806 533.949 395.806C532.962 395.806 532.647 396.655 533.258 397.662C533.87 398.668 535.272 399.517 536.259 399.517C537.344 399.517 537.66 398.668 537.048 397.662ZM401.573 393.892C402.264 392.885 401.968 392.037 400.883 392.037C399.876 392.037 398.494 392.885 397.882 393.892C397.192 394.958 397.488 395.806 398.573 395.806C399.58 395.806 400.962 394.958 401.573 393.892ZM548.298 393.892C547.686 392.885 546.285 392.037 545.298 392.037C544.212 392.037 543.897 392.885 544.509 393.892C545.219 394.958 546.521 395.806 547.607 395.806C548.594 395.806 548.91 394.958 548.298 393.892ZM413.83 388.267C413.83 387.26 413.06 386.412 412.073 386.412C411.067 386.412 409.745 387.26 409.133 388.267C408.521 389.254 409.29 390.102 410.909 390.102C412.527 390.102 413.83 389.254 413.83 388.267ZM422.771 334.681C422.159 330.892 422.159 330.891 420.008 334.76C418.547 337.444 418.231 346.464 419.08 364.898L420.304 391.109L421.784 364.74C422.633 350.332 423.008 336.753 422.771 334.681ZM536.12 388.267C536.12 387.26 535.272 386.412 534.186 386.412C533.179 386.412 532.331 387.26 532.331 388.267C532.331 389.254 533.179 390.102 534.186 390.102C535.272 390.102 536.12 389.254 536.12 388.267ZM402.58 384.477C402.58 383.471 401.731 382.622 400.804 382.622C399.797 382.622 398.494 383.471 397.882 384.477C397.192 385.563 398.04 386.412 399.659 386.412C401.198 386.412 402.58 385.563 402.58 384.477ZM547.37 384.477C547.37 383.471 546.522 382.622 545.515 382.622C544.449 382.622 543.6 383.471 543.6 384.477C543.6 385.563 544.449 386.412 545.515 386.412C546.522 386.412 547.37 385.563 547.37 384.477ZM432.64 380.55C432.64 379.464 431.81 379.168 430.725 379.78C429.718 380.392 428.87 381.793 428.87 382.859C428.87 383.865 429.718 384.181 430.725 383.55C431.81 382.938 432.64 381.556 432.64 380.55ZM515.377 380.708C513.916 379.78 512.298 379.464 511.745 380.017C511.212 380.471 511.982 381.714 513.521 382.622C514.982 383.55 516.6 383.866 517.153 383.333C517.686 382.859 516.916 381.635 515.377 380.708ZM412.764 378.616C411.521 376.622 408.205 378.241 408.205 380.787C408.205 381.714 409.448 382.01 410.988 381.398C412.527 380.865 413.297 379.543 412.764 378.616ZM525.087 333.22C521.456 329.589 521.455 329.589 522.166 337.76C522.541 342.24 523.469 354.418 524.16 364.74L525.561 383.55L527.179 360.201C528.719 338.372 528.561 336.595 525.087 333.22ZM469.804 371.53C471.58 361.207 474.659 360.813 476.061 370.839C476.593 375.221 477.758 379.464 478.607 380.234C479.455 381.004 479.672 380.017 479.14 377.925C478.528 375.852 477.521 369.517 476.909 363.813C475.291 349.78 473.81 342.694 472.824 343.701C472.271 344.234 471.126 350.411 470.12 357.497C469.192 364.583 467.89 372.911 467.258 376.01C466.567 379.168 466.646 381.162 467.258 380.55C467.969 379.938 469.113 375.852 469.883 371.53H469.804ZM537.048 378.852C536.337 377.846 535.035 376.997 534.107 376.997C533.101 376.997 532.331 377.846 532.331 378.852C532.331 379.859 533.653 380.708 535.271 380.708C536.89 380.708 537.66 379.859 537.048 378.852ZM445.824 375.852C445.824 375.458 444.521 375.083 442.981 375.083C441.442 375.083 440.12 375.931 440.12 376.918C440.12 377.925 441.442 378.24 442.981 377.688C444.521 377.076 445.824 376.227 445.824 375.852ZM505.962 376.997C505.962 375.931 504.659 375.083 503.041 375.083C501.423 375.083 500.653 375.931 501.265 376.997C501.956 378.004 503.278 378.852 504.186 378.852C505.193 378.852 505.962 378.004 505.962 376.997ZM402.58 374.076C402.58 372.457 401.731 371.609 400.646 372.3C399.659 372.912 398.81 374.234 398.81 375.221C398.81 376.148 399.659 376.997 400.646 376.997C401.731 376.997 402.58 375.694 402.58 374.076ZM547.37 375.083C547.37 374.076 546.522 373.227 545.515 373.227C544.449 373.227 543.6 374.076 543.6 375.083C543.6 376.148 544.449 376.997 545.515 376.997C546.522 376.997 547.37 376.148 547.37 375.083ZM412.764 369.221C411.521 367.287 408.205 368.826 408.205 371.372C408.205 372.3 409.448 372.616 410.988 371.984C412.527 371.451 413.297 370.148 412.764 369.221ZM459.936 371.372C462.403 370.286 462.719 369.675 460.863 369.596C459.324 369.596 456.778 370.365 455.238 371.372C451.764 373.543 454.784 373.543 459.936 371.372ZM492.778 372.458C492.778 372.063 490.311 370.839 487.153 369.754C484.074 368.668 481.528 368.53 481.528 369.379C481.528 370.839 483.383 371.451 491.396 372.911C492.166 373.069 492.778 372.833 492.778 372.458ZM517.311 372.458C517.311 372.063 515.989 371.214 514.449 370.681C512.91 370.069 511.587 370.365 511.587 371.372C511.587 372.379 512.91 373.227 514.449 373.227C515.989 373.227 517.311 372.911 517.311 372.458ZM537.048 369.457C536.337 368.451 535.035 367.602 534.107 367.602C533.101 367.602 532.331 368.451 532.331 369.457C532.331 370.523 533.653 371.372 535.271 371.372C536.89 371.372 537.66 370.523 537.048 369.457ZM445.824 366.438C445.824 366.063 444.521 365.668 442.981 365.668C441.442 365.668 440.12 366.517 440.12 367.523C440.12 368.53 441.442 368.826 442.981 368.293C444.521 367.681 445.824 366.832 445.824 366.438ZM505.962 367.76C505.962 366.832 504.738 365.589 503.199 365.056C500.337 363.892 499.33 365.905 501.58 368.214C503.416 369.99 505.962 369.754 505.962 367.76ZM402.58 364.661C402.58 363.043 401.731 362.194 400.646 362.885C399.659 363.517 398.81 364.819 398.81 365.826C398.81 366.754 399.659 367.602 400.646 367.602C401.731 367.602 402.58 366.28 402.58 364.661ZM545.831 363.438C544.508 362.056 543.6 361.977 543.6 363.122C543.6 365.668 545.831 367.819 547.055 366.596C547.686 366.063 547.054 364.661 545.831 363.438ZM433.567 361.977C434.199 360.892 433.883 360.043 432.876 360.043C431.81 360.043 430.488 360.892 429.797 361.977C429.185 362.964 429.481 363.813 430.567 363.813C431.574 363.813 432.955 362.964 433.567 361.977ZM516.304 361.977C515.692 360.892 514.37 360.043 513.364 360.043C512.436 360.043 511.587 360.892 511.587 361.977C511.587 362.964 512.988 363.813 514.528 363.813C516.146 363.813 516.995 362.964 516.304 361.977ZM445.824 357.043C445.824 356.648 444.521 356.273 442.981 356.273C441.442 356.273 440.12 357.122 440.12 358.109C440.12 359.115 441.442 359.431 442.981 358.879C444.521 358.267 445.824 357.418 445.824 357.043ZM505.962 358.188C505.962 357.122 504.659 356.273 503.041 356.273C501.423 356.273 500.653 357.122 501.265 358.188C501.956 359.194 503.278 360.043 504.186 360.043C505.193 360.043 505.962 359.194 505.962 358.188ZM545.831 354.023C544.508 352.642 543.6 352.563 543.6 353.727C543.6 356.273 545.831 358.425 547.055 357.181C547.686 356.648 547.054 355.267 545.831 354.023ZM515.377 352.563C515.377 351.477 514.528 350.628 513.521 350.628C512.436 350.628 511.587 351.477 511.587 352.563C511.587 353.569 512.436 354.418 513.521 354.418C514.528 354.418 515.377 353.569 515.377 352.563ZM443.909 347.707C443.909 346.089 443.06 345.319 442.054 345.931C440.968 346.622 440.12 347.944 440.12 348.872C440.12 349.859 440.968 350.628 442.054 350.628C443.06 350.628 443.909 349.326 443.909 347.707ZM505.962 348.793C505.962 347.707 505.113 346.859 504.126 346.859C503.041 346.859 502.192 347.707 502.192 348.793C502.192 349.78 503.041 350.628 504.126 350.628C505.113 350.628 505.962 349.78 505.962 348.793ZM433.567 343.148C434.199 342.082 433.883 341.234 432.876 341.234C431.81 341.234 430.488 342.082 429.797 343.148C429.185 344.155 429.481 345.003 430.567 345.003C431.574 345.003 432.955 344.155 433.567 343.148ZM513.837 340.839C512.515 339.536 511.587 339.378 511.587 340.543C511.587 343.089 513.837 345.319 515.14 344.076C515.693 343.464 515.061 342.082 513.837 340.839ZM443.909 337.306C443.909 336.22 443.06 335.905 442.054 336.536C440.968 337.227 440.12 338.53 440.12 339.615C440.12 340.622 440.968 340.918 442.054 340.306C443.06 339.694 443.909 338.293 443.909 337.306ZM505.962 339.378C505.962 338.372 505.113 337.523 504.126 337.523C503.041 337.523 502.192 338.372 502.192 339.378C502.192 340.385 503.041 341.234 504.126 341.234C505.113 341.234 505.962 340.385 505.962 339.378ZM515.377 333.753C515.377 332.668 514.528 331.819 513.521 331.819C512.436 331.819 511.587 332.668 511.587 333.753C511.587 334.76 512.436 335.609 513.521 335.609C514.528 335.609 515.377 334.76 515.377 333.753ZM443.909 329.984C443.909 328.977 443.06 328.128 442.054 328.128C440.968 328.128 440.12 328.977 440.12 329.984C440.12 330.97 440.968 331.819 442.054 331.819C443.06 331.819 443.909 330.97 443.909 329.984ZM505.962 329.984C505.962 328.977 505.113 328.128 504.126 328.128C503.041 328.128 502.192 328.977 502.192 329.984C502.192 330.97 503.041 331.819 504.126 331.819C505.113 331.819 505.962 330.97 505.962 329.984ZM406.744 314.786C407.968 313.937 407.83 308.845 406.29 303.615C405.896 301.996 400.725 319.562 400.804 322.424C400.883 324.043 401.889 323.194 403.113 320.569C404.278 317.944 405.975 315.398 406.744 314.786ZM543.127 313.405C540.897 303.753 537.956 300.299 537.956 307.148C537.956 309.082 537.423 313.326 536.811 316.641C535.804 321.418 536.12 322.345 538.508 321.418C540.048 320.806 541.982 321.339 542.673 322.424C545.219 326.589 545.436 323.036 543.127 313.405ZM537.956 316.799C537.956 315.793 538.805 314.944 539.811 314.944C540.897 314.944 541.745 315.793 541.745 316.799C541.745 317.865 540.897 318.714 539.811 318.714C538.805 318.714 537.956 317.865 537.956 316.799ZM409.29 317.332C407.435 315.398 405.817 318.26 407.435 320.806C408.6 322.72 409.054 322.72 409.666 320.806C410.139 319.484 409.981 317.944 409.369 317.332H409.29ZM405.738 290.964C405.284 289.108 404.81 290.194 404.81 293.273C404.731 296.431 405.126 297.911 405.659 296.589C406.133 295.365 406.212 292.819 405.738 290.964ZM435.955 294.595C437.12 291.2 433.192 291.891 431.87 295.365C431.179 297.121 431.653 298.049 432.955 297.595C434.199 297.2 435.58 295.819 435.955 294.595ZM513.521 295.207C513.521 293.589 512.673 292.345 511.666 292.345C510.679 292.345 510.364 293.668 510.975 295.207C511.528 296.747 512.377 297.97 512.752 297.97C513.146 297.97 513.521 296.747 513.521 295.207ZM541.133 290.964C540.659 289.108 540.285 290.194 540.206 293.273C540.127 296.431 540.502 297.911 541.054 296.589C541.587 295.365 541.666 292.819 541.133 290.964ZM439.823 285.95C438.659 280.641 437.277 277.779 436.508 279.082C434.81 281.786 436.192 290.51 438.817 293.806C441.738 297.516 441.896 295.898 439.823 285.95ZM507.502 290.806C507.897 288.575 508.745 286.72 509.515 286.72C510.363 286.72 510.6 284.095 510.127 280.858C509.12 273.931 506.041 277.167 506.041 285.181C505.962 287.963 505.113 290.806 504.126 291.418C501.422 293.115 501.798 296.589 504.581 295.661C505.824 295.207 507.206 293.036 507.502 290.806ZM408.126 280.641C408.126 279.319 407.277 277.01 406.29 275.47C404.889 273.24 404.514 273.773 404.435 277.779C404.435 280.641 405.284 282.95 406.29 282.95C407.356 282.95 408.205 281.865 408.126 280.641ZM541.745 279.082C541.745 276.931 540.897 275.707 539.811 276.398C538.805 277.01 537.956 278.786 537.956 280.246C537.956 281.707 538.805 282.95 539.811 282.95C540.897 282.95 541.745 281.174 541.745 279.082ZM437.653 260.825C437.278 259.049 436.804 260.509 436.804 264.141C436.804 267.753 437.199 269.213 437.653 267.457C438.126 265.601 438.126 262.661 437.653 260.825ZM509.12 260.825C508.745 259.049 508.291 260.509 508.291 264.141C508.291 267.753 508.666 269.213 509.12 267.457C509.594 265.601 509.594 262.661 509.12 260.825ZM542.12 258.121C539.278 255.259 537.107 257.43 538.726 261.595C539.653 263.983 540.502 264.279 542.12 262.582C543.818 260.904 543.818 259.898 542.12 258.2V258.121ZM408.205 259.266C408.205 257.647 407.198 256.661 405.975 257.036C402.501 258.2 401.889 262.286 405.205 262.286C406.823 262.286 408.205 260.904 408.205 259.266ZM438.58 246.871C437.653 240.614 437.653 240.614 436.192 246.101C434.653 251.726 435.58 255.496 438.126 253.878C438.896 253.424 439.133 250.246 438.58 246.871ZM510.127 247.858C509.199 242.786 509.12 242.786 507.581 247.009C505.883 251.569 507.048 255.417 509.594 253.878C510.442 253.345 510.679 250.641 510.127 247.858ZM439.212 226.503C438.284 225.042 437.199 224.963 435.955 226.207C434.969 227.193 434.731 229.049 435.501 230.292C436.35 231.753 437.435 231.91 438.738 230.588C439.745 229.601 439.981 227.746 439.212 226.503ZM510.679 228.753C510.679 225.358 506.969 225.97 506.278 229.443C505.883 231.437 506.594 232.285 508.133 231.753C509.515 231.299 510.679 229.897 510.679 228.753ZM330.579 672.282C324.875 667.821 317.395 667.348 314.158 671.354C311.533 674.532 302.889 675.223 302.889 672.203C302.889 671.137 304.902 669.519 307.369 668.591C309.836 667.664 312.461 665.966 313.152 664.881C315.224 661.407 328.33 662.571 333.501 666.657C336.126 668.67 339.52 670.368 340.981 670.368C342.52 670.368 345.915 668.67 348.54 666.657C356.553 660.341 374.356 663.657 374.356 671.512C374.356 674.986 369.737 674.828 366.816 671.275C363.56 667.348 356.099 667.821 350.395 672.282C347.77 674.295 343.29 675.993 340.527 675.993C337.665 675.993 333.185 674.295 330.579 672.282ZM600.265 672.203C595.015 667.822 588.916 667.506 583.923 671.275C579.976 674.295 573.66 675.065 573.66 672.598C573.66 669.519 585.384 662.571 590.772 662.414C593.93 662.335 598.864 664.111 601.963 666.341C608.732 671.354 611.357 671.433 617.614 666.499C624.088 661.407 631.943 661.348 639.818 666.203C644.279 669.045 646.983 669.657 649.292 668.354C653.851 665.808 656.003 670.368 651.68 673.525C646.825 677.058 642.739 676.683 637.114 672.282C634.489 670.21 630.482 668.512 628.252 668.512C626.002 668.512 621.996 670.21 619.371 672.282C613.292 676.999 606.048 676.999 600.265 672.203ZM302.889 654.4C302.889 652.861 303.816 651.617 304.902 651.617C306.046 651.617 309.145 649.92 311.751 647.848C317.849 643.071 324.797 643.071 332.04 647.848C339.126 652.545 343.369 652.545 349.389 647.848C355.784 642.756 363.56 643.071 369.974 648.617C376.527 654.164 374.277 657.262 366.955 652.94C360.027 648.854 357.56 648.933 351.777 653.473C345.52 658.328 338.198 658.17 329.099 653.019C321.698 648.775 321.698 648.775 314.218 653.019C305.514 657.953 302.889 658.328 302.889 654.4ZM573.739 654.854C573.739 651.4 585.384 644.078 590.772 644.078C593.239 644.078 597.877 645.775 600.956 647.769C608.121 652.545 612.285 652.545 618.305 647.769C624.463 642.992 632.101 642.992 638.338 648.006C642.049 650.848 644.752 651.538 648.917 650.631C653.219 649.703 654.542 650.078 654.542 652.17C654.542 658.111 643.193 658.94 636.266 653.473C633.64 651.4 630.246 649.703 628.785 649.703C627.246 649.703 623.851 651.4 621.226 653.473C614.989 658.407 607.193 658.249 598.016 653.019C590.614 648.775 590.614 648.775 583.213 653.019C574.588 657.874 573.66 658.111 573.739 654.854ZM255.086 591.716C255.796 587.946 256.408 584.314 256.566 583.702C256.645 583.17 254.237 580.466 251.158 577.762C245.533 572.827 245.533 572.827 253.625 571.525C260.099 570.439 262.191 569.137 263.573 565.268C264.579 562.584 265.882 559.11 266.434 557.492C267.204 555.636 268.507 557.334 270.52 562.505C273.204 569.748 274.053 570.439 281.928 571.604L290.336 572.906L284.237 577.683C278.454 582.242 278.138 583.012 279.303 590.946C280.606 599.354 280.605 599.354 274.526 595.032C268.428 590.709 268.428 590.709 261.105 594.735C253.862 598.663 253.862 598.663 255.086 591.716ZM670.272 595.801C670.805 593.887 671.812 590.255 672.503 587.788C673.588 584.018 672.66 582.242 667.489 577.998L661.173 572.748L669.187 571.525C676.193 570.36 677.733 569.216 680.279 563.354L683.299 556.564L686.299 563.65C688.766 569.216 690.384 570.676 694.391 570.676C704.733 570.676 706.115 572.591 699.72 577.998C694.095 582.696 693.858 583.308 695.634 590.946C697.41 598.959 697.41 598.959 690.779 594.795C684.068 590.709 684.068 590.709 676.667 594.953C669.956 598.821 669.344 598.9 670.272 595.722V595.801ZM246.145 506.215C239.592 502.287 239.059 502.287 235.665 505.366C231.737 508.919 225.717 509.768 225.717 506.689C225.717 504.301 237.046 497.353 240.993 497.353C242.671 497.353 246.224 499.051 248.849 501.123C254.395 505.524 260.099 505.978 263.197 502.209C267.204 497.432 274.526 496.958 281.158 501.044C285.54 503.748 289.014 504.518 293.178 503.669C299.889 502.366 301.27 505.445 295.487 508.524C289.862 511.544 285.086 510.912 279.303 506.373C274.132 502.287 274.132 502.287 266.967 506.373C258.105 511.465 254.869 511.465 246.145 506.215ZM650.831 508.149C650.91 505.366 657.542 500.274 663.483 498.439C666.325 497.511 670.114 498.439 675.206 501.281C682.608 505.445 682.608 505.445 690.917 501.044C699.167 496.662 699.167 496.662 706.272 500.827C711.286 503.748 714.976 504.676 718.766 503.827C724.391 502.603 725.694 504.36 721.924 508.228C718.766 511.307 710.042 511.07 707.279 507.676C703.253 502.899 698.101 502.445 692.851 506.61C686.457 511.623 678.976 511.544 672.424 506.373C667.174 502.208 667.174 502.208 660.009 506.373C651.759 511.149 650.753 511.307 650.831 508.149ZM246.915 489.557C241.132 485.945 240.441 485.866 236.119 488.649C230.809 492.182 225.105 492.656 226.191 489.557C226.566 488.412 229.961 485.629 233.73 483.478C240.599 479.471 240.599 479.471 249.243 484.169C256.329 488.018 258.323 488.412 261.027 486.478C270.362 479.767 272.671 479.55 281 484.09C287.553 487.643 289.783 488.018 293.02 486.32C298.349 483.478 301.053 487.485 296.178 491.037C291.323 494.649 286.468 494.195 278.987 489.557C272.435 485.551 272.434 485.551 267.046 489.557C260.257 494.57 254.711 494.57 246.915 489.557ZM672.66 489.419C667.41 485.55 666.957 485.472 661.706 488.57C655.312 492.182 650.14 492.656 651.226 489.557C651.601 488.412 654.996 485.629 658.845 483.478C665.713 479.471 665.713 479.471 674.279 483.932C682.746 488.491 682.746 488.491 690.917 484.169C699.088 479.846 699.088 479.846 706.963 484.248C713.516 487.939 715.588 488.333 718.529 486.478C722.93 483.715 725.536 486.794 722.22 490.8C718.983 494.728 711.503 494.195 705.187 489.636C699.641 485.708 699.641 485.708 693.325 489.636C685.371 494.57 679.509 494.491 672.66 489.34V489.419ZM293.099 399.971C284.237 394.899 284.237 394.899 278.612 399.122C272.059 403.918 265.27 404.609 265.27 400.524C265.27 398.905 266.809 397.662 268.822 397.662C270.737 397.662 273.283 396.438 274.526 394.958C278.691 390.023 287.316 389.491 294.56 393.734C302.889 398.668 306.599 398.668 315.007 393.734C322.329 389.412 329.415 389.964 335.277 395.274C342.066 401.372 336.58 403.918 328.409 398.51C324.323 395.885 323.316 395.964 315.007 400.445C304.053 406.306 303.974 406.306 293.099 400.05V399.971ZM644.812 399.971C635.95 394.899 635.95 394.899 630.325 399.122C623.772 403.918 616.983 404.609 616.983 400.524C616.983 398.905 618.305 397.662 619.923 397.662C621.621 397.662 625.075 395.964 627.7 393.892C633.799 389.195 638.812 389.195 646.588 393.892C654.463 398.668 657.463 398.668 667.174 393.497C674.733 389.491 675.266 389.491 681.759 392.57C686.22 394.741 688.391 397.05 688.391 399.675C688.391 403.603 688.391 403.602 681.898 399.596C675.424 395.589 675.424 395.589 666.404 400.445C655.391 406.306 655.687 406.306 644.812 400.05V399.971ZM294.796 382.622C289.25 378.24 282.698 377.846 277.606 381.714C273.599 384.793 265.27 385.484 265.27 382.78C265.27 381.852 269.514 378.931 274.744 376.148C285.007 370.839 289.014 370.997 297.027 377.234C302.672 381.714 306.362 381.635 312.303 376.918C318.244 372.221 328.803 372.221 334.803 376.918C338.593 379.78 339.046 381.004 337.211 382.859C335.435 384.635 334.191 384.477 331.428 382.01C326.79 377.767 320.474 378.004 314.691 382.622C312.066 384.714 307.606 386.333 304.744 386.333C301.882 386.333 297.421 384.635 294.796 382.622ZM643.43 381.477C637.035 376.918 637.035 376.918 630.64 380.708C624.009 384.635 616.983 385.721 616.983 382.78C616.983 381.852 621.226 378.931 626.476 376.148C636.719 370.839 640.726 370.997 648.68 377.234C654.384 381.714 658.075 381.635 663.937 376.918C672.582 370.227 688.45 373.681 688.45 382.247C688.45 385.168 686.378 384.951 681.976 381.635C676.963 377.846 671.496 378.161 665.871 382.622C659.614 387.497 651.305 387.102 643.43 381.477ZM265.27 365.214C265.349 362.194 280.763 354.418 286.625 354.418C289.092 354.418 293.257 356.115 295.882 358.188C301.882 362.885 306.046 362.885 313.231 358.188C320.79 353.174 327.876 353.411 334.27 358.957C338.889 362.964 339.125 363.675 336.283 364.819C334.349 365.51 331.803 364.819 330.027 363.043C326.02 359.036 321.323 359.273 315.54 363.813C312.915 365.905 308.06 367.602 304.744 367.602C301.428 367.602 296.573 365.905 293.948 363.813C291.323 361.74 287.553 360.043 285.54 360.043C283.468 360.043 279.678 361.74 277.072 363.813C271.665 368.056 265.191 368.826 265.27 365.214ZM616.983 364.977C616.983 363.28 617.989 361.898 619.311 361.898C620.614 361.898 623.772 360.201 626.318 358.188C632.417 353.411 641.516 353.411 647.516 358.188C653.535 362.885 657.937 362.885 663.937 358.188C666.562 356.115 671.338 354.497 674.496 354.418C680.2 354.418 690.305 360.418 690.305 363.971C690.305 366.753 683.456 365.984 680.91 362.885C677.673 358.957 672.029 359.352 666.325 363.813C660.325 368.53 651.226 368.53 645.128 363.813C639.581 359.431 634.331 359.036 630.246 362.747C625.391 367.129 616.983 368.53 616.983 364.977ZM695.476 258.812C695.93 257.43 695.081 257.036 693.325 257.726C691.627 258.358 690.305 259.74 690.305 260.746C690.305 263.213 694.549 261.674 695.555 258.812H695.476ZM353.632 180.397C353.632 178.483 354.856 177.555 356.948 177.93C360.876 178.7 360.639 182.094 356.553 182.943C354.856 183.259 353.632 182.252 353.632 180.397ZM877.195 525.794C873.642 523.248 874.411 518.018 878.28 518.018C880.431 518.018 882.129 516.774 882.129 515.235C882.129 513.695 880.589 512.393 878.734 512.393C874.412 512.393 870.879 508.84 870.879 504.36C870.879 502.445 870.03 501.439 868.866 502.129C867.78 502.741 867.168 505.149 867.484 507.38C867.938 510.774 866.477 511.919 858.622 514.465C853.451 516.083 848.971 516.774 848.596 515.847C848.28 515.018 846.82 514.228 845.497 514.228C842.892 514.228 842.734 511.149 845.122 507.301C846.05 505.84 848.754 505.445 852.444 506.136C857.694 507.222 858.148 506.985 856.846 503.748C853.451 495.656 854.596 492.952 862.234 491.116C868.491 489.557 870.03 489.794 872.339 492.873C873.958 494.965 874.728 495.281 874.254 493.643C873.425 490.721 858.76 482.314 854.596 482.314C853.214 482.314 852.05 483.083 852.05 484.09C852.05 485.097 850.826 485.471 849.286 484.86C847.668 484.248 845.971 485.097 845.28 486.952C844.589 488.649 842.892 489.557 841.491 489.024C840.03 488.491 838.885 488.945 838.885 490.031C838.885 491.037 838.036 491.412 837.03 490.722C835.944 490.11 835.569 488.787 836.181 487.8C836.714 486.873 835.787 486.103 834.089 486.103C831.484 486.103 831.326 485.551 833.241 483.241C835.017 481.169 835.017 480.399 833.398 480.399C832.175 480.399 831.701 479.55 832.392 478.465C833.102 477.3 835.865 476.925 838.569 477.458C841.964 478.149 845.122 477.3 848.28 474.754C850.905 472.682 851.675 471.438 850.135 471.991C848.28 472.603 846.05 470.906 843.879 467.294C842.043 464.195 839.102 461.57 837.247 461.57C834.859 461.57 834.089 460.188 834.326 456.419C834.78 448.859 834.721 448.938 839.951 448.938C843.346 448.938 845.359 450.32 846.583 453.557C849.445 461.195 853.293 463.978 857.615 461.649C861.918 459.34 860.931 454.879 855.681 453.478C853.688 453.024 852.05 451.642 852.05 450.557C852.05 449.471 853.293 449.096 854.912 449.629C856.846 450.399 857.694 449.55 857.694 446.767C857.694 444.162 858.918 442.84 861.306 442.84C863.32 442.84 865.175 442.07 865.55 441.221C866.556 438.675 876.504 436.761 876.504 439.149C876.504 440.215 877.273 440.688 878.201 440.155C879.129 439.524 880.668 440.155 881.655 441.379C883.353 443.53 883.51 445.998 882.444 460.8C882.287 463.425 881.28 465.044 880.274 464.432C879.129 463.741 878.359 465.971 878.359 470.057C878.359 478.149 886.747 495.498 890.616 495.498C894.543 495.498 894.07 490.406 889.688 484.169C880.885 471.833 883.293 459.735 894.464 459.735C900.168 459.735 900.938 460.267 900.938 464.59C900.938 474.063 891.76 476.925 891.07 467.669C890.912 465.517 890.063 464.195 889.293 464.669C886.451 466.445 887.833 473.61 892.688 481.781C898.629 491.965 897.78 499.208 890.616 499.208C884.754 499.208 884.517 503.452 890.142 507.38C893.458 509.689 893.853 510.695 891.839 512.077C890.458 513.005 889.53 514.939 889.688 516.32C890.754 524.491 883.214 530.196 877.195 525.794ZM874.491 451.484C874.037 451.011 872.102 452.945 870.109 455.649C866.556 460.662 866.556 460.662 870.957 456.498C873.346 454.169 874.964 451.938 874.491 451.484ZM866.023 479.235C867.642 478.623 868.945 477.221 868.945 476.077C868.945 474.695 868.254 474.754 866.714 476.314C863.852 479.156 860.773 479.235 862.55 476.373C863.398 475.07 863.082 474.754 861.78 475.603C856.688 478.702 860.003 481.623 866.023 479.314V479.235ZM601.726 147.337C597.107 145.64 596.713 144.397 595.548 130.975C593.476 106.936 592.015 94.6793 591.324 95.449C590.93 95.824 587.614 104.923 583.923 115.719C580.212 126.515 576.522 135.989 575.594 136.916C574.745 137.765 571.114 137.548 567.423 136.305L560.791 134.153L573.265 97.5213C585.759 60.9092 585.759 60.9092 591.463 62.1329C600.719 64.0671 601.489 65.6856 602.871 86.8042C605.042 118.502 605.575 118.877 613.982 94.5213C618.068 82.7975 621.542 72.929 621.838 72.554C623.002 70.9948 635.732 76.5607 635.654 78.5541C635.575 79.7975 630.246 95.982 623.851 114.554C611.673 149.726 610.982 150.791 601.726 147.337ZM343.527 144.791C336.362 142.245 335.04 141.002 330.876 133.759C328.566 129.673 328.408 129.831 336.283 127.206C341.75 125.351 342.915 125.666 347.001 129.752C349.547 132.298 352.705 134.37 354.086 134.37C358.942 134.37 364.961 128.508 364.961 123.811C364.961 118.423 356.1 113.706 345.678 113.646C314.849 113.41 310.606 76.5607 340.527 68.5278C350.158 65.9225 359.474 68.6067 364.882 75.4752C370.192 82.2647 369.659 84.495 362.1 86.8832C356.238 88.6595 355.251 88.4226 353.474 85.1857C350.316 79.1659 338.277 81.0213 335.889 87.8108C333.264 95.3701 337.507 98.6069 352.152 100.462C366.185 102.16 370.586 104.153 376.054 111.1C389.869 128.666 366.343 152.963 343.527 144.791ZM399.738 130.147C398.336 126.041 389.317 56.6659 390.087 55.8961C390.481 55.5014 398.574 54.1987 408.047 52.9553C423.699 51.0408 425.869 51.1198 431.652 54.2777C440.356 58.9751 444.6 68.3896 443.436 80.4094C442.291 92.3503 436.883 97.4424 422.396 100.462C410.83 102.929 410.83 102.771 413.692 119.962C414.678 126.12 414.541 129.219 413.06 129.673C404.672 132.219 400.507 132.377 399.738 130.147ZM426.245 85.3436C429.718 82.4226 429.56 74.1725 425.948 68.9225C423.777 65.8435 421.153 64.758 415.685 64.758C411.679 64.758 408.047 65.3699 407.514 66.1396C407.139 66.9883 407.514 72.5541 408.6 78.6331C410.514 89.6661 410.514 89.6661 417.007 88.5805C420.619 87.9687 424.784 86.5081 426.245 85.3436ZM531.64 129.298C528.719 128.508 528.324 127.206 529.252 121.502C540.897 52.4224 540.896 52.5013 546.679 53.1131C549.6 53.35 552.995 53.9618 554.16 54.3566C555.62 54.8105 554.377 66.1395 549.995 91.4423C546.521 111.396 543.66 128.449 543.66 129.219C543.601 130.679 537.344 130.758 531.64 129.219V129.298ZM455.238 123.732C455.238 122.883 460.942 105.475 467.889 85.0279C480.6 47.8829 480.6 47.8828 488.238 47.8828C495.877 47.8039 495.876 47.8039 499.034 60.5145C500.732 67.5408 505.113 84.2581 508.745 97.6793C512.377 111.1 515.377 122.745 515.377 123.515C515.377 124.364 512.061 124.976 507.975 124.976C500.337 124.976 500.258 124.897 497.633 113.173C496.568 108.318 495.877 108.002 486.383 108.002C476.219 108.002 476.218 108.002 473.593 116.035C471.047 123.574 470.435 124.048 463.034 124.581C458.712 124.897 455.238 124.502 455.238 123.732ZM492.087 90.6726C491.475 88.2647 490.39 83.1923 489.778 79.3239C488.08 69.3764 486.225 70.541 482.91 83.5674C480.067 94.8175 480.067 94.8175 486.699 94.8175C492.64 94.8175 493.173 94.4423 492.087 90.6726ZM776.812 851.079C776.812 850.073 777.661 848.77 778.668 848.139C782.279 845.908 776.122 839.671 770.418 839.671C765.168 839.671 766.016 838.586 783.286 822.244C802.865 803.809 809.339 799.27 813.582 800.888C817.372 802.349 818.674 799.112 815.438 796.408C813.049 794.493 813.977 792.638 821.457 783.993C826.234 778.368 831.326 773.829 832.629 773.829C834.01 773.829 835.175 772.368 835.253 770.513C835.253 768.737 840.642 760.487 847.116 752.237C858.464 737.75 859.234 737.118 867.247 736.664C880.51 735.894 881.813 737.967 874.491 748.684C864.385 763.487 847.589 785.316 838.036 795.954C830.694 804.046 828.385 805.586 824.615 804.658C821.22 803.809 820.056 804.283 820.056 806.513C820.056 808.448 818.438 809.592 815.595 809.592C813.128 809.592 810.582 810.836 809.97 812.375C809.418 813.915 807.503 815.217 805.727 815.217C803.023 815.217 803.181 815.928 806.872 819.934C809.339 822.481 810.957 824.869 810.503 825.244C810.049 825.559 805.727 829.487 800.714 833.967C792.069 841.823 791.615 841.981 788.911 838.507C786.227 835.112 786.148 835.191 786.602 839.967C786.918 842.829 785.595 846.599 783.602 848.849C779.812 853.014 776.812 854 776.812 851.079ZM95.5717 768.816C46.3872 704.828 12.5382 620.019 2.98549 536.827C-0.942164 502.366 -1.02107 454.109 2.90659 454.109C4.44607 454.109 5.68932 452.787 5.68932 451.248C5.68932 449.708 6.99221 448.465 8.53169 448.465C10.0712 448.465 11.3933 446.925 11.3933 445.149C11.3933 443.313 12.6962 440.215 14.2357 438.221C18.2423 432.892 17.6303 431.511 11.2355 431.511C6.30128 431.511 5.61032 430.978 6.6169 427.741C7.38664 425.412 6.99201 424.03 5.61042 424.03C0.123545 424.03 10.9987 368.668 24.4198 328.049C33.8935 299.056 47.3937 268.759 61.3477 245.016C69.6767 230.904 70.0517 230.45 77.7689 229.897C84.8544 229.443 85.703 228.832 86.2556 224.035C86.6306 220.581 85.6242 217.799 83.4729 216.259C80.3149 213.95 80.4728 213.397 85.2491 207.081C89.7097 201.219 91.1899 200.45 96.0452 201.456C100.9 202.384 101.591 201.989 101.591 198.298C101.591 195.062 100.742 194.351 97.9003 195.061C94.5845 195.969 94.4266 195.594 96.2819 192.042C100.288 184.483 121.092 160.127 139.131 141.93C172.289 108.475 214.546 76.087 225.026 76.087C228.263 76.087 231.974 74.7844 233.276 73.2449C234.658 71.5475 238.822 70.383 243.915 70.383C249.007 70.383 251.849 69.6923 251.079 68.5278C250.467 67.5409 251.711 66.6922 253.862 66.6922C255.934 66.6922 257.711 65.9225 257.711 64.9949C257.711 62.4488 249.698 60.9882 247.151 63.0606C245.849 64.1462 244.447 64.2251 243.836 63.2975C242.454 61.0672 251.158 56.508 253.783 58.1264C254.948 58.8172 256.408 57.9685 257.099 56.1922C258.796 51.7317 321.244 23.5077 329.494 23.4287C330.185 23.4287 331.349 26.1327 331.961 29.5274C332.652 32.9222 333.58 37.0078 334.034 38.7052C334.744 41.0934 330.875 43.3236 316.546 48.8697C227.256 83.0344 149.631 145.936 95.0387 227.983C81.9334 247.641 77.8479 250.562 78.3808 240.003C78.5387 236.075 77.7689 234.062 75.9926 234.062C74.2163 234.062 73.3677 236.371 73.3677 241.384C73.3677 245.391 72.1437 251.095 70.6042 254.036C69.0647 257.036 67.7426 260.963 67.7426 262.74C67.7426 266.292 70.6043 267.22 72.1437 264.141C72.6766 263.055 72.9926 262.976 72.7557 263.825C71.907 268.148 53.4925 305.45 52.1701 305.45C51.3214 305.45 48.1633 307.385 45.0843 309.615C38.058 314.786 37.604 319.562 44.2357 317.865C46.8607 317.253 48.9332 317.016 48.9332 317.332C48.9332 317.648 46.0121 326.668 42.3805 337.385C14.2356 420.872 11.9263 517.939 35.9856 604.604C46.012 640.604 69.3607 693.874 87.9529 723.026C94.3477 733.032 95.2753 735.5 92.9661 736.822C91.4858 737.671 90.7954 739.21 91.4862 740.296C92.1178 741.361 91.486 742.98 90.1045 743.829C87.0255 745.763 89.4927 748.763 94.8809 749.691C97.5059 750.164 98.8876 748.921 99.6573 745.605C100.743 741.204 100.901 741.144 102.44 744.677C103.368 746.769 103.98 749.079 103.743 749.848C103.605 750.618 104.216 751.23 105.223 751.23C106.15 751.23 109.762 754.783 113.157 759.184C117.322 764.414 118.328 766.664 116.157 765.816C111.302 763.96 107.216 766.191 107.216 770.75C107.138 780.539 104.138 779.987 95.4928 768.816H95.5717ZM35.3737 332.214C35.7487 330.97 34.3675 329.984 32.1964 329.984C28.2687 329.984 27.1236 331.898 29.5907 334.365C31.2881 336.141 34.446 334.918 35.3737 332.214ZM50.8672 287.648C50.8672 286.108 49.624 284.786 48.0845 284.786C46.3871 284.786 45.7753 285.95 46.3872 287.648C46.999 289.187 48.2423 290.431 49.1699 290.431C50.0975 290.431 50.8672 289.187 50.8672 287.648ZM863.319 729.421C863.319 728.73 867.089 722.177 871.727 714.855C883.352 696.105 903.168 654.085 910.352 632.729C917.28 612.143 926.991 576.538 928.392 566.887C928.925 563.275 930.465 552.321 931.925 542.452C933.406 532.663 935.162 511.761 935.872 496.189C937.096 470.215 937.491 467.827 940.491 468.596C942.958 469.208 944.123 467.985 945.11 463.662C946.649 456.577 945.03 453.715 939.8 454.484C936.247 454.958 935.715 454.03 935.241 447.478C934.254 432.359 930.86 407.53 927.07 388.642C924.603 376.306 923.833 368.451 924.997 366.99C927.761 363.438 932.932 346.543 931.787 344.707C930.168 342.082 927.307 344.845 927.307 349.089C927.307 351.793 926.379 352.563 924.307 351.793C922.688 351.181 920.596 350.628 919.748 350.628C918.899 350.628 915.899 343.622 913.037 335.135C897.701 288.812 872.951 241.621 845.28 205.542L837.109 194.983L845.971 191.114C854.833 187.187 854.833 187.186 859.451 191.746C863.774 196.048 863.852 196.443 860.852 199.759C856.53 204.614 856.846 205.7 863.083 207.93C866.024 208.937 869.398 211.858 870.563 214.404C871.727 216.95 874.195 218.963 876.109 218.963C883.984 218.963 928.846 308.391 923.675 313.622C920.754 316.562 921.129 318.26 924.682 318.023C928.077 317.707 930.169 322.641 938.557 351.477C942.031 363.359 943.333 370.681 942.188 371.451C941.024 372.142 941.418 373.543 943.195 375.004C946.886 378.083 946.886 383.787 943.195 385.168C940.866 386.096 940.807 386.944 942.564 389.885C944.419 392.806 944.044 394.504 940.412 399.596C937.629 403.523 937.017 405.379 938.715 404.826C940.175 404.451 942.8 401.293 944.498 397.898C947.044 392.806 947.813 392.352 948.662 395.195C956.754 422.807 956.754 536.669 948.583 565.742C947.813 568.505 946.116 569.058 940.254 568.446C931.392 567.656 931.392 570.755 940.254 573.064C946.195 574.604 946.353 574.841 945.11 582.538C941.182 607.13 925.234 653.867 909.583 686.394C893.004 720.855 888.997 726.796 882.287 726.796C879.267 726.796 876.425 725.71 875.951 724.486C875.34 722.789 873.721 723.401 870.484 726.342C865.945 730.486 863.319 731.651 863.319 729.421ZM946.116 520.86C946.116 519.32 944.813 518.018 943.274 518.018C941.715 518.018 940.412 519.32 940.412 520.86C940.412 522.419 941.715 523.643 943.274 523.643C944.813 523.643 946.116 522.419 946.116 520.86ZM920.912 360.734C919.372 356.569 921.129 354.872 923.991 357.734C925.53 359.273 925.609 360.497 924.149 361.977C922.767 363.359 921.839 363.043 920.912 360.734ZM75.3806 222.654C75.3806 221.568 77.0783 220.799 79.0717 220.799C81.1638 220.799 82.8609 221.568 82.8609 222.654C82.8609 223.66 81.1638 224.509 79.0717 224.509C76.9993 224.509 75.3806 223.66 75.3806 222.654ZM817.372 171.081C808.273 160.66 807.03 158.351 808.727 155.193C811.51 150.022 811.273 149.331 807.109 149.331C805.115 149.331 802.865 148.403 802.174 147.259C801.484 146.094 799.411 145.64 797.477 146.094C795.247 146.706 789.996 143.39 782.141 136.383C734.95 94.6003 678.285 61.679 619.844 42.2381C594.482 33.7709 591.542 32.3697 591.009 28.2052C590.318 22.4222 584.219 16.7972 580.292 18.3367C578.594 18.9683 577.746 20.1919 578.279 21.1196C580.746 25.1262 574.667 28.9157 567.561 27.6723C561.009 26.5867 558.463 22.3629 564.324 22.3629C565.726 22.3629 567.186 21.2773 567.64 19.955C568.114 18.6523 566.87 17.6458 564.719 17.6458C562.706 17.6458 559.706 15.7314 558.166 13.4024C555.226 9.1787 555.226 9.1787 552.147 13.4024C548.673 18.1985 545.515 17.4287 545.515 11.8629C545.515 7.32336 542.042 7.08655 540.423 11.5668C539.811 13.3432 538.351 15.4155 537.344 16.1063C536.12 16.955 536.338 18.4945 537.956 20.4287C540.206 23.1327 539.653 23.2709 532.173 21.9682C527.634 21.1195 502.35 20.5077 475.982 20.5867C424.784 20.6656 407.672 22.6589 364.961 33.3761C347.987 37.6985 338.514 38.0144 348.224 33.988C352.784 32.0736 352.784 32.0736 348.461 31.3038C344.83 30.6723 344.218 29.5274 344.672 24.5932C345.382 17.7247 348.461 16.3432 376.211 10.1655C411.521 2.38917 434.337 0.0799322 476.909 0.000984265C530.949 -0.0779637 561.482 4.00748 609.206 17.7247C649.292 29.2906 711.424 57.7513 731.792 73.9356C735.404 76.7777 740.417 80.2515 743.042 81.5739C745.589 82.9555 754.766 89.1134 763.391 95.291C779.043 106.462 779.043 106.541 778.431 114.258C777.977 121.186 778.352 122.114 782.28 122.666C784.747 123.041 787.688 122.429 788.753 121.265C792.306 117.732 793.846 118.798 811.964 136.541C830.398 154.66 831.405 156.811 824.379 164.746C821.754 167.765 822.069 168.298 827.379 171.377C833.793 175.009 834.721 177.792 830.695 181.107C828.622 182.864 825.997 180.871 817.451 171.16L817.372 171.081Z" fill="#383B40"/>
<path d="M66.7554 472.761C66.5975 473.373 65.986 477.004 65.2755 480.774C64.0518 487.721 64.0516 487.721 71.2951 483.794C78.6175 479.767 78.6173 479.768 84.7161 484.09C90.795 488.412 90.7951 488.412 89.4925 480.004C88.328 472.07 88.6438 471.3 94.4268 466.741L100.525 461.965L92.1174 460.662C84.2424 459.498 83.3936 458.807 80.7094 451.563C78.6962 446.392 77.3936 444.695 76.6238 446.55C76.0712 448.169 74.7688 451.642 73.7622 454.327C72.3806 458.195 70.2885 459.498 63.8148 460.583C55.7227 461.886 55.7227 461.886 61.3477 466.82C64.4267 469.524 66.8343 472.228 66.7554 472.761Z" fill="#383B40"/>
</svg>
