<svg width="959" height="960" viewBox="0 0 959 960" fill="none" xmlns="http://www.w3.org/2000/svg">
<path fill-rule="evenodd" clip-rule="evenodd" d="M197.566 725.295C191.488 717.15 196.806 713.564 203.909 721.091C207.849 725.296 207.637 730.349 203.502 730.349C202.248 730.349 199.563 728.14 197.566 725.295ZM303.433 716.886C296.808 711.356 294.741 706.815 300.942 711.161C306.26 714.889 314.264 714.324 323.169 709.572C327.515 707.292 333.045 705.419 335.519 705.419C338.01 705.419 343.522 707.292 347.869 709.572C352.162 711.851 357.816 713.705 360.501 713.705C363.134 713.705 368.858 711.851 373.134 709.572C377.41 707.292 383.011 705.419 385.484 705.419C387.975 705.419 393.487 707.292 397.781 709.572C402.127 711.851 407.781 713.705 410.467 713.705C413.099 713.705 418.753 711.851 423.099 709.572C432.905 704.324 437.729 704.324 448.011 709.572C458.436 714.819 464.107 714.818 474.514 709.5C484.107 704.606 492.606 704.942 500.468 710.472C506.334 714.677 514.691 714.606 521.581 710.472C530.698 704.871 538.295 704.606 547.818 709.5C558.242 714.818 562.66 714.818 573.897 709.642C585.08 704.394 589.232 704.394 598.95 709.642C603.243 711.921 608.614 713.776 610.964 713.776C613.243 713.776 618.632 711.921 622.908 709.642C632.501 704.465 638.579 704.395 647.961 709.077C654.851 712.469 655.063 712.805 652.449 715.702C649.957 718.547 649.339 718.546 645.894 716.267C640.364 712.681 630.77 713.158 623.933 717.363C620.417 719.571 615.381 720.949 611.105 720.949C606.83 720.949 601.794 719.571 598.19 717.363C590.54 712.61 582.253 712.805 572.66 717.911C568.313 720.19 563.136 722.134 561.14 722.134C559.126 722.134 553.967 720.19 549.674 717.911C540.009 712.805 531.74 712.61 524.072 717.363C520.486 719.571 515.521 720.949 511.174 720.949C506.881 720.949 501.917 719.571 498.33 717.363C490.662 712.61 482.393 712.805 472.729 717.911C462.923 723.158 459.69 723.158 449.46 717.911C439.601 712.946 431.456 712.681 424.283 717.027C415.237 722.54 408.947 722.752 399.636 718.052C389.141 712.681 382.728 712.681 372.798 717.911C363.063 723.087 359.742 723.087 349.529 717.911C339.794 712.946 331.526 712.61 324.547 716.886C315.236 722.611 310.394 722.611 303.433 716.886ZM765.842 713.564C764.464 711.232 768.386 703.705 771.019 703.705C775.224 703.705 776.814 707.91 774.111 711.709C771.355 715.649 767.697 716.461 765.842 713.564ZM309.988 153.098C307.568 150.677 309.087 148.062 314.546 145.501C320.554 142.603 322.197 143.08 322.197 147.568C322.197 151.437 312.674 155.783 309.988 153.098ZM630.629 148.327C624.904 145.906 624.356 144.882 626.847 140.942C628.155 138.804 629.109 138.875 634.286 141.366C640.576 144.334 641.477 146.119 638.155 148.875C636.706 150.129 634.427 149.917 630.629 148.327ZM333.31 143.151C330.907 140.677 332.356 137.568 337.25 135.006C340.006 133.628 342.974 132.868 343.876 133.415C346.561 135.076 345.66 140.465 342.568 141.366C340.978 141.772 338.487 142.673 337.109 143.221C335.66 143.839 333.999 143.769 333.31 143.151ZM606.476 138.734C601.794 136.879 600.964 134.935 603.367 131.207C605.505 127.832 617.66 133.222 616.282 136.879C615.734 138.328 615.24 139.776 615.24 140.182C615.24 141.295 611.441 140.677 606.476 138.734ZM356.438 134.67C353.876 132.109 356.013 128.115 360.925 126.242C365.537 124.457 366.579 124.581 368.381 127.072C369.547 128.592 369.901 130.394 369.194 131.013C367.056 132.938 357.462 135.625 356.438 134.67ZM753.687 133.698C751.832 131.419 751.832 130.394 753.475 128.38C754.8 126.79 754.871 125.906 753.757 125.906C752.786 125.906 751.549 126.667 751.001 127.55C749.482 129.97 746.796 129.634 746.796 126.931C746.796 123.132 753.139 122.585 757.203 125.978C759.288 127.691 760.1 129.139 759.005 129.139C757.892 129.21 756.796 130.871 756.514 132.867C755.966 136.118 755.754 136.189 753.687 133.698ZM780.189 133.486C778.669 131.631 778.669 130.253 780.33 127.285C782.327 123.557 782.468 123.557 783.087 126.72C783.44 128.592 784.465 130.518 785.366 131.084C786.196 131.561 785.86 132.868 784.535 133.981C782.751 135.501 781.708 135.429 780.189 133.556V133.486ZM583.225 130.589C577.978 128.734 576.741 122.585 581.564 122.585C588.402 122.656 592.13 124.653 591.635 128.045C591.017 132.25 589.161 132.797 583.225 130.589ZM796.002 127.691C794.889 125.907 801.444 123.416 803.104 125.006C803.652 125.624 803.034 126.79 801.726 127.62C798.546 129.634 797.168 129.635 796.002 127.691ZM379.971 125.341C378.788 122.303 381.279 120.094 387.569 118.592C392.463 117.408 395.837 121.207 392.675 124.317C389.706 127.356 380.996 128.045 379.971 125.341ZM771.284 126.526C769.906 125.147 771.496 122.585 773.563 122.585C774.394 122.585 775.083 123.698 775.083 125.076C775.083 127.62 773.157 128.381 771.284 126.526ZM749.623 734.271C746.107 730.755 751.549 722.062 757.274 722.062C762.115 722.062 762.256 725.579 757.485 730.473C752.662 735.526 751.478 736.143 749.552 734.271H749.623ZM180.658 705.349C174.986 697.416 181.135 693.21 187.407 700.808C191.277 705.419 191.418 708.052 188.043 709.359C184.315 710.737 184.58 710.879 180.658 705.349ZM775.772 699.553C774.818 697.08 780.878 686.992 783.369 686.992C784.129 686.992 785.648 688.104 786.744 689.483C788.334 691.408 788.069 692.928 785.154 696.938C781.302 702.398 777.221 703.493 775.701 699.553H775.772ZM234.758 676.514C234.758 653.245 233.592 648.758 227.231 648.758C223.786 648.758 213.432 637.592 214.881 635.313C216.259 633.033 224.192 633.51 228.962 636.266C235.376 639.923 235.871 639.376 235.376 629.994C234.97 622.185 235.305 621.231 238.485 620.736C241.242 620.33 242.143 621.231 242.567 624.959C243.256 630.896 248.079 631.372 248.15 625.436C248.15 622.326 249.122 621.16 252.019 620.736C255.535 620.189 255.818 620.613 254.775 625.295C254.157 628.121 254.157 632.751 254.775 635.507C255.818 640.348 256.083 640.489 258.839 637.998C262.638 634.553 273.062 632.75 274.581 635.241C276.578 638.404 270.094 647.238 265.129 648.28C257.673 649.729 256.436 654.076 256.507 677.61C256.56 695.49 256.154 698.457 254.422 696.037C253.185 694.376 252.214 693.758 252.214 694.659C252.214 695.489 251.525 695.136 250.694 693.828C249.67 692.238 250.005 689.766 251.525 686.797C254.917 680.366 254.493 679.606 249.599 682.857C245.588 685.472 245.111 685.472 242.072 682.716C238.15 679.129 236.136 680.79 238.485 685.755C241.736 692.522 242.284 697.345 239.652 696.391C238.344 695.896 237.249 696.179 237.249 697.08C237.249 697.981 236.683 698.67 235.994 698.67C235.235 698.67 234.687 688.653 234.687 676.444L234.758 676.514ZM250.694 678.511C251.878 676.373 251.949 675.401 250.906 676.019C248.079 677.821 247.107 674.306 249.811 672.027C251.666 670.507 251.878 669.394 250.5 667.751C248.485 665.331 249.934 661.461 252.355 662.909C253.945 663.952 256.083 657.398 255.464 653.529C254.775 649.447 257.39 645.719 260.359 646.549C263.327 647.309 272.232 641.372 272.232 638.616C272.232 636.142 265.677 636.885 260.5 639.924C254.775 643.316 253.945 642.698 252.779 633.987C251.878 627.238 251.878 627.238 248.768 630.966C245.588 634.623 245.588 634.623 242.284 630.683C239.793 627.786 238.963 627.433 238.963 629.376C238.963 630.825 237.796 635.507 236.348 639.73C234.545 644.906 234.281 648.069 235.376 649.182C236.277 650.083 236.63 651.867 236.136 653.104C234.899 656.355 237.108 664.094 238.892 662.98C241.454 661.32 242.691 665.4 240.411 668.157C238.627 670.294 238.768 670.984 241.171 672.362C242.761 673.193 243.591 674.641 243.044 675.542C242.496 676.443 241.383 676.708 240.482 676.16C238.274 674.782 238.627 677.68 240.977 680.101C244.068 683.14 248.627 682.451 250.694 678.511ZM233.026 643.863C234.475 641.443 227.107 637.096 221.648 637.096C216.683 637.096 216.683 637.097 220.606 641.249C224.545 645.383 231.242 646.831 233.026 643.863ZM708.828 694.306C707.997 692.857 707.661 686.515 708.138 680.172C709.11 666.709 707.52 665.737 699.446 674.571C693.509 681.055 688.739 681.956 684.605 677.344C680.735 673.051 681.23 669.129 686.884 659.606C689.569 654.977 691.778 649.447 691.849 647.238C691.849 644.977 693.103 641.867 694.551 640.206C697.025 637.521 696.954 636.884 693.721 632.821C691.778 630.329 690.188 626.479 690.188 624.27C690.188 620.189 690.188 620.189 694.746 623.44C699.923 627.097 705.382 626.054 708.28 620.948C709.87 618.191 710.347 618.333 714.835 622.945C717.449 625.719 722.079 630.065 724.976 632.75C730.224 637.45 741.337 656.496 736.513 652.486C733.121 649.73 730.153 652.981 730.082 659.465C730.012 668.564 727.114 677.468 722.838 681.761C719.181 685.419 718.086 685.755 714.481 684.094C708.828 681.55 710.206 685.207 716.69 690.03C721.39 693.493 721.389 693.494 725.877 685.278C728.987 679.607 730.647 673.546 731.336 665.401C732.149 655.313 732.573 654.147 734.499 656.709C735.807 658.352 736.708 658.704 736.778 657.521C736.778 655.948 737.75 655.949 741.125 657.398C744.923 659.182 745.347 660.083 744.517 665.33C743.951 668.563 743.404 673.811 743.333 677.062C743.192 682.38 743.068 682.521 741.814 678.723C740.506 674.5 740.507 674.499 740.295 679.199C740.1 684.994 736.089 692.928 732.715 694.253C729.534 695.49 729.464 694.589 732.715 689.695C734.093 687.557 735.612 681.761 736.019 676.849L736.849 667.874L734.499 676.991C732.785 683.616 730.647 687.415 726.778 690.648C721.319 695.207 718.421 695.207 713.103 690.648C710.559 688.51 710.206 688.511 710.206 690.595C710.206 691.903 711.106 693.899 712.22 695.012C713.668 696.461 713.669 697.01 712.273 697.01C711.248 697.01 709.658 695.773 708.828 694.306ZM722.079 676.09C723.669 673.405 725.4 668.228 725.948 664.571L726.973 657.946L724.57 664.287C721.601 672.097 716.902 677.468 714.004 676.373C711.319 675.26 711.177 677.397 713.863 680.101C716.637 682.857 718.845 681.815 722.149 676.09H722.079ZM718.774 668.634C720.347 666.355 722.149 662.292 722.697 659.606C723.527 655.525 723.05 656.02 720.294 661.815C718.421 665.808 715.382 669.394 713.527 669.889C711.725 670.436 710.63 671.479 711.177 672.362C712.626 674.641 715.382 673.263 718.774 668.634ZM739.605 664.977C739.128 663.81 738.722 664.783 738.722 667.062C738.722 669.324 739.128 670.295 739.605 669.129C740.029 668.016 740.029 666.16 739.605 664.977ZM704.41 663.882C703.792 662.84 701.301 662.079 698.827 662.15C694.34 662.221 694.34 662.22 699.375 664.429C704.764 666.779 706.142 666.638 704.41 663.882ZM711.107 656.072C710.488 653.528 708.898 652.079 706.69 652.079C704.835 652.079 703.792 651.32 704.34 650.418C704.888 649.517 706.76 648.758 708.492 648.758C710.135 648.758 712.008 647.804 712.555 646.691C713.103 645.524 713.103 646.832 712.626 649.588C711.796 654.553 711.796 654.553 714.075 650.56C715.736 647.733 716.637 647.238 717.184 648.899C717.661 650.207 718.35 647.044 718.704 641.797C719.181 634.129 718.898 632.75 717.114 634.199C714.358 636.549 711.46 632.75 712.485 628.192C712.909 626.549 712.838 623.987 712.344 622.68C710.895 619.022 708.562 623.298 708.562 629.446C708.492 634.27 708.492 634.27 704.764 631.09C701.036 627.927 701.036 627.928 703.933 631.443C705.523 633.299 706.901 637.026 707.043 639.73C707.237 644.624 707.237 644.624 708.492 639.588C709.375 636.196 709.87 635.647 710.011 637.927C710.205 640.683 710.488 640.825 711.796 638.758C712.697 637.38 713.456 636.762 713.456 637.38C713.527 637.998 714.004 639.8 714.623 641.372C715.312 643.245 715.047 643.934 713.934 643.245C712.98 642.627 711.725 643.245 711.248 644.623C710.7 646.001 708.563 647.114 706.478 647.114C704.004 647.114 701.513 648.97 699.375 652.486C694.41 660.631 694.41 660.984 698.969 659.8C701.866 659.111 704.145 659.605 706.071 661.531C708.686 664.146 708.827 664.147 708.209 661.126C707.803 659.112 705.788 657.592 702.626 657.044C697.025 656.072 698.757 654.288 705.17 654.5C708.616 654.553 709.446 655.525 710.011 660.437C710.417 663.882 710.965 664.977 711.389 663.193C711.796 661.532 711.654 658.351 711.107 656.142V656.072ZM721.248 645.03C720.842 643.864 720.418 644.835 720.418 647.114C720.418 649.394 720.842 650.277 721.248 649.182C721.743 647.998 721.743 646.143 721.248 645.03ZM732.291 649.447C733.74 647.927 731.672 643.652 730.012 644.694C729.181 645.172 728.492 646.69 728.492 647.998C728.492 650.489 730.506 651.178 732.291 649.447ZM704.834 641.249C704.622 638.97 703.792 637.096 702.962 637.096C702.131 637.096 701.937 638.281 702.555 639.73C703.103 641.178 703.51 643.033 703.51 643.863C703.51 644.764 703.863 645.454 704.34 645.454C704.835 645.454 704.958 643.511 704.834 641.249ZM728.492 641.037C728.492 639.659 727.732 639.041 726.849 639.588C725.948 640.136 725.188 641.726 725.188 643.104C725.188 644.482 725.948 645.171 726.849 644.552C727.732 644.004 728.492 642.415 728.492 641.037ZM698.545 631.514C698.545 630.259 697.025 627.927 695.17 626.266C691.513 622.945 690.682 625.153 693.58 630.542C695.576 634.27 698.545 634.817 698.545 631.514ZM558.649 124.387C556.034 123.698 554.444 122.038 554.444 120.041C554.444 117.267 555.468 116.861 560.31 117.196C567.147 117.762 569.144 119.352 567.695 123.133C566.511 126.101 565.274 126.243 558.649 124.458V124.387ZM404.406 120.094C403.028 116.649 404.884 114.864 411.438 113.469C415.52 112.656 416.898 113.062 417.781 115.271C419.177 118.857 417.657 120.235 410.82 121.684C406.686 122.585 405.237 122.25 404.406 120.094ZM532.429 119.759C530.009 119.282 528.631 117.762 528.631 115.677C528.631 112.78 529.603 112.443 535.733 112.85C541.528 113.274 542.853 114.033 542.853 116.719C542.853 120.164 539.461 121.137 532.429 119.759ZM428.771 114.51C428.771 110.447 440.008 107.674 442.287 111.207C444.707 114.988 442.835 116.719 435.661 117.267C429.725 117.691 428.771 117.266 428.771 114.51ZM505.503 116.101C504.196 115.2 503.648 113.345 504.266 111.825C505.927 107.479 517.871 108.928 517.871 113.416C517.871 117.073 509.797 118.857 505.503 116.101ZM454.301 113.203C452.994 109.952 456.368 107.602 462.305 107.602C466.651 107.602 469.69 111.33 467.764 114.369C466.174 117.072 455.396 116.171 454.301 113.203ZM479.284 113.416C477.764 109.405 480.874 107.266 487.217 107.885C491.563 108.238 492.871 109.122 492.871 111.755C492.871 116.172 480.945 117.621 479.284 113.416ZM778.475 114.228C778.475 113.344 779.164 112.585 780.118 112.585C781.019 112.585 781.779 113.344 781.779 114.228C781.779 115.129 781.019 115.888 780.118 115.888C779.164 115.888 778.475 115.129 778.475 114.228ZM756.796 100.094C756.796 98.5741 757.627 97.5316 758.598 97.885C759.552 98.2207 760.383 99.1924 760.383 100.094C760.383 100.924 759.552 101.949 758.598 102.232C757.556 102.568 756.796 101.613 756.796 100.094ZM713.863 83.9448C714.905 80.8352 718.492 80.3406 718.492 83.2558C718.492 84.7046 717.326 85.942 715.877 85.942C714.428 85.942 713.527 85.0402 713.863 83.9448ZM735.118 78.6274C735.118 75.4471 735.807 74.6164 737.75 75.3761C740.648 76.4892 740.294 81.1005 737.202 82.1429C735.877 82.6199 735.118 81.2423 735.118 78.6274ZM215.711 744.554C211.701 740.278 211.983 735.313 216.259 735.313C219.581 735.313 225.641 743.317 224.475 746.215C223.167 749.731 220.058 749.112 215.711 744.554ZM844.518 439.373C844.094 438.684 843.282 435.787 842.646 432.889C841.55 427.712 844.731 424.179 848.511 426.529C850.596 427.836 850.455 432.253 848.387 432.253C847.486 432.253 846.727 433.437 846.727 434.815C846.727 436.123 847.486 437.306 848.387 437.306C849.271 437.306 850.031 438.066 850.031 438.95C850.031 440.893 845.614 441.228 844.518 439.373ZM109.844 423.56C108.802 420.733 111.293 411.829 113.289 411.211C117.017 410.044 118.943 413.42 117.918 419.427C117.229 424.056 116.117 425.627 113.767 425.627C112.053 425.627 110.25 424.673 109.844 423.56ZM168.979 418.049C168.979 414.25 169.545 413.825 174.368 414.249C178.573 414.656 179.969 415.698 180.375 418.525C180.781 421.847 180.163 422.324 174.916 422.324C169.686 422.324 168.979 421.776 168.979 418.049ZM192.584 418.525C193.008 415.557 194.386 414.727 199.351 414.321C205.075 413.826 205.64 414.109 205.64 418.049C205.64 421.918 205.022 422.324 198.874 422.324C192.796 422.324 192.107 421.917 192.584 418.525ZM217.567 418.525C217.991 415.557 219.369 414.727 224.333 414.321C230.058 413.826 230.623 414.109 230.623 418.049C230.623 421.918 230.005 422.324 223.856 422.324C217.778 422.324 217.09 421.917 217.567 418.525ZM242.567 418.525C242.973 415.557 244.281 414.727 249.316 414.321C255.058 413.826 255.606 414.109 255.606 418.049C255.606 421.918 254.987 422.324 248.839 422.324C242.69 422.324 242.072 421.917 242.567 418.525ZM807.185 318.171C804.765 312.994 804.695 312.04 806.762 310.732C810.702 308.241 811.603 308.718 814.624 315.008C817.045 320.185 817.115 321.139 815.048 322.464C811.108 324.937 810.207 324.461 807.185 318.171ZM152.76 307.887C150.145 307.004 150.074 303.824 152.636 298.364C154.703 293.753 157.177 292.994 160.216 296.033C161.665 297.482 161.541 299.054 159.739 302.587C156.983 307.888 155.675 308.93 152.76 307.887ZM795.03 295.608C793.034 290.714 794.341 287.604 798.475 287.463C800.278 287.392 805.242 297.481 804.271 299.125C802.062 302.587 797.097 300.714 795.03 295.608ZM164.085 285.043C160.569 280.838 167.742 271.315 172.301 274.142C174.368 275.396 174.297 276.491 171.894 281.526C168.785 288.011 167.124 288.771 164.085 285.043ZM552.023 279.248C535.115 278.488 531.122 277.798 530.698 275.731C530.292 273.452 532.624 273.524 552.376 276.015C564.514 277.534 576.317 279.178 578.596 279.602C583.773 280.573 581.352 280.502 552.023 279.248ZM782.821 276.704C777.026 267.941 782.468 262.481 788.546 270.979C791.373 274.972 791.655 276.421 790.065 278.365C787.238 281.739 785.913 281.457 782.821 276.704ZM383.841 274.283C386.12 273.594 397.498 272.481 409.159 271.792C427.728 270.838 430.414 270.979 430.414 273.24C430.414 275.449 426.898 275.803 405.025 275.661C390.731 275.591 381.491 274.972 383.841 274.283ZM529.673 266.421C528.701 263.929 535.044 262.905 558.649 261.721C580.522 260.626 578.667 261.58 551.617 265.449C535.327 267.728 530.221 267.94 529.673 266.421ZM176.859 263.523C176.311 262.339 177.689 259.106 179.898 256.474C183.485 251.986 183.962 251.862 186.594 254.406C189.209 256.968 189.209 257.446 186.241 261.439C182.866 266.068 178.167 267.11 176.859 263.523ZM419.583 264.071C416.827 263.241 408.064 261.244 400.06 259.725C392.039 258.206 385.837 256.545 386.244 256.138C387.905 254.478 432.216 261.385 431.597 263.169C430.838 265.59 425.802 265.926 419.583 264.071ZM767.698 255.572C763.634 250.749 763.492 250.131 765.984 247.64C768.457 245.237 769.005 245.361 772.733 249.654C777.433 255.025 777.645 256.332 774.464 258.965C772.662 260.484 771.214 259.795 767.698 255.572ZM527.73 257.233C527.111 256.332 526.97 255.378 527.253 255.024C528.348 254 572.447 242.393 573.013 243.029C573.348 243.294 563.49 247.021 551.193 251.226C537.465 255.926 528.348 258.275 527.73 257.233ZM408.4 246.951C397.71 242.322 389.141 238.258 389.495 237.904C390.661 236.738 432.764 252.057 433.382 253.859C434.566 257.375 428.205 255.573 408.4 246.951ZM524.355 248.894C522.765 246.261 524.691 245.096 547.748 234.195C559.691 228.594 568.932 224.459 568.384 225.007C564.515 228.876 525.185 250.201 524.355 248.894ZM194.386 246.332C191.276 245.236 191.895 240.113 195.552 236.738C199.086 233.558 203.98 234.317 203.98 238.045C203.98 241.155 196.93 247.233 194.386 246.332ZM414.071 233.434C384.035 213.063 385.007 212.992 419.371 232.939C435.873 242.462 439.866 245.855 435.944 246.951C435.184 247.163 425.308 241.085 414.071 233.364V233.434ZM518.207 239.848C517.659 239.301 525.256 232.869 535.044 225.483C544.779 218.169 553.755 211.402 554.921 210.519C556.034 209.547 556.988 209.194 556.988 209.618C556.988 211.067 522.411 240.873 520.768 240.873C519.938 240.873 518.754 240.396 518.207 239.848ZM751.337 236.121C747.132 231.562 746.99 227.569 751.001 227.569C753.757 227.569 760.1 233.983 760.1 236.81C760.1 240.873 755.418 240.467 751.337 236.121ZM439.601 237.851C438.7 237.145 430.414 228.735 421.244 219.212C403.912 201.067 404.883 201.614 429.177 223.275C442.499 235.148 445.944 239.23 442.499 239.159C441.81 239.159 440.502 238.54 439.601 237.851ZM511.51 233.152C510.892 232.533 516.616 225.36 524.143 217.144C531.67 208.999 540.362 199.547 543.472 196.155C551.617 187.25 547.96 192.498 530.486 214.653C515.38 233.7 513.719 235.36 511.51 233.152ZM436.774 216.314C415.643 184.423 415.785 183.522 437.658 211.615C450.503 228.046 452.923 232.534 448.912 232.534C448.153 232.534 442.711 225.219 436.774 216.314ZM211.012 228.046C207.973 226.862 208.538 221.756 211.983 218.664C215.711 215.272 219.987 215.059 221.171 218.169C222.266 220.996 213.909 229.07 211.012 228.046ZM503.295 228.258C502.411 227.357 526.97 185.608 530.627 181.738C531.528 180.837 526.634 190.908 519.726 204.159C507.712 227.357 505.503 230.467 503.295 228.258ZM447.057 205.748C434.76 176.631 434.972 176.207 448.576 202.568C461.138 226.862 461.404 227.569 458.294 227.498C457.199 227.498 452.092 217.692 447.057 205.748ZM464.796 221.279C462.446 213.205 455.202 177.18 455.82 176.632C456.651 175.802 468.718 217.48 468.718 221.279C468.718 225.078 465.891 225.078 464.796 221.279ZM493.701 223.416C493.701 221.685 510.963 176.703 512.129 175.307C512.747 174.565 511.104 181.314 508.401 190.36C505.786 199.335 502.411 210.643 501.016 215.484C499.496 220.731 497.5 224.176 496.051 224.176C494.743 224.176 493.701 223.84 493.701 223.416ZM474.867 221.42C474.248 220.802 473.824 209.406 473.895 196.014C474.107 169.865 475.556 173.31 477.906 205.961C479.001 221.279 478.312 224.865 474.867 221.42ZM484.531 218.788C485.98 212.657 491.987 176.968 492.058 174.424C492.058 173.098 492.464 172.48 493.012 173.045C493.577 173.593 493.153 182.497 492.128 192.851C489.354 220.113 488.877 222.516 486.121 222.516C484.39 222.516 483.913 221.35 484.531 218.788ZM733.545 218.452C731.336 216.103 730.153 213.275 730.701 211.756C732.097 208.24 734.234 208.504 739.605 213.204C743.545 216.579 743.899 217.55 741.955 219.83C738.987 223.416 738.086 223.276 733.545 218.452ZM227.514 208.646C226.135 206.932 226.895 205.272 230.764 201.544C235.8 196.773 235.871 196.773 238.274 200.024C240.553 203.063 240.411 203.681 236.418 207.126C231.383 211.473 230.058 211.685 227.514 208.646ZM713.792 200.36C710.206 196.508 711.319 192.568 716.071 192.568C718.969 192.568 725.665 200.431 724.428 202.445C722.556 205.413 717.662 204.441 713.792 200.36ZM247.178 193.257C245.394 191.12 245.73 190.024 249.316 186.349C251.949 183.734 254.634 182.498 256.295 183.116C260.288 184.706 259.404 188.628 254.086 192.427C249.811 195.466 249.051 195.537 247.178 193.257ZM694.746 185.73C691.018 182.903 690.541 181.738 691.919 179.035C693.721 175.731 695.435 176.066 702.626 181.384C705.382 183.522 705.524 184.281 703.651 186.561C700.824 189.882 700.347 189.882 694.746 185.73ZM267.055 178.152C265.129 175.872 265.465 174.971 269.475 171.526C274.793 166.968 276.931 166.543 278.309 170.077C280.306 175.448 270.571 182.427 267.055 178.152ZM673.969 171.649C670.046 168.893 669.074 165.095 671.831 163.381C674.605 161.72 683.774 167.445 683.156 170.554C682.467 174.353 678.456 174.829 673.969 171.649ZM287.285 164.334C285.977 161.79 286.454 160.678 289.829 158.469C294.741 155.236 299.423 155.642 300.183 159.299C300.465 160.89 298.327 162.957 294.811 164.688C289.21 167.303 288.875 167.303 287.285 164.334ZM653.138 159.653C647.82 156.332 646.918 150.889 651.689 150.889C656.583 150.889 662.237 156.261 660.929 159.653C659.622 163.169 658.933 163.169 653.138 159.653ZM940.933 465.045C938.583 463.384 938.301 462.413 939.82 461.53C942.241 460.01 945.615 462.766 944.732 465.522C944.237 466.776 943.141 466.706 940.933 465.045ZM845.755 463.384C843.759 458.208 845.755 451.44 849.201 451.44C853.83 451.44 854.183 464.427 849.624 465.258C848.034 465.593 846.232 464.692 845.755 463.384ZM949.979 456.829C949.979 453.79 950.792 452.271 952.523 452.271C954.114 452.271 954.661 451.512 953.972 450.346C953.142 449.038 951.834 449.515 949.838 452.006C945.968 456.83 940.244 456.759 939.272 451.865C938.866 449.798 937.682 441.034 936.657 432.253C934.166 410.875 928.989 383.048 924.095 364.284C921.816 355.715 920.367 348.065 920.915 347.235C921.392 346.405 920.915 345.715 919.873 345.715C918.424 345.715 918.495 345.026 920.085 343.153C921.604 341.298 922.576 341.086 923.406 342.464C924.29 343.86 924.926 343.913 925.739 342.534C926.445 341.368 924.926 340.255 921.675 339.637C918.088 338.877 916.71 337.782 917.046 335.909C917.399 334.389 916.781 332.464 915.738 331.563C914.696 330.609 912.152 325.008 910.084 319.071C892.823 270.078 857.628 212.922 817.946 169.246C811.656 162.409 807.38 156.472 808.352 156.189C811.938 154.953 810.012 152.338 806.355 153.504C802.822 154.617 802.769 154.476 805.313 151.508C806.762 149.777 807.663 147.356 807.185 146.048C806.549 144.335 805.595 144.741 803.316 147.709C800.277 151.72 800.278 151.72 793.44 145.024C786.885 138.593 786.744 138.328 790.472 137.427C792.963 136.738 795.507 137.496 797.716 139.493C799.589 141.154 801.867 142.532 802.698 142.532C803.581 142.461 802.415 141.013 800.136 139.229C796.002 135.907 796.002 135.906 799.518 134.935C801.514 134.387 803.581 132.32 804.147 130.324C805.03 127.143 807.663 129.281 825.543 147.638C897.452 221.42 943.618 319.001 955.774 423.155C959.149 452.007 959.149 459.109 955.633 457.802C954.184 457.254 952.311 457.801 951.498 459.109C950.456 460.769 950.032 460.151 949.979 456.829ZM945.898 439.445C945.491 436.476 942.594 436.476 941.958 439.445C941.693 440.681 942.594 441.723 943.901 441.723C945.138 441.723 946.11 440.681 945.898 439.445ZM948.318 425.627C948.318 422.323 947.488 420.662 945.757 420.662C942.788 420.662 942.718 421.016 945.209 426.388C947.7 431.847 948.318 431.705 948.318 425.627ZM943.283 369.867C943.283 368.489 942.523 367.394 941.622 367.394C940.721 367.394 939.961 368.489 939.961 369.867C939.961 371.245 940.721 372.359 941.622 372.359C942.523 372.359 943.283 371.245 943.283 369.867ZM933.265 340.68C933.265 339.778 932.576 339.019 931.622 339.019C930.721 339.019 929.961 339.778 929.961 340.68C929.961 341.651 930.721 342.411 931.622 342.411C932.576 342.411 933.265 341.651 933.265 340.68ZM932.435 329.089C933.071 328.117 932.311 327.358 930.915 327.358C929.467 327.358 928.3 328.117 928.3 329.089C928.3 329.973 928.989 330.733 929.89 330.733C930.721 330.733 931.887 329.973 932.435 329.089ZM924.996 310.732C924.996 309.831 924.237 309.071 923.336 309.071C922.364 309.071 921.675 309.831 921.675 310.732C921.675 311.616 922.435 312.376 923.336 312.376C924.237 312.376 924.996 311.616 924.996 310.732ZM106.876 449.373C105.427 446.953 107.777 437.5 109.915 436.67C113.36 435.362 115.427 439.232 114.473 445.169C113.713 450.275 108.943 452.889 106.876 449.373ZM166.364 684.518C163.608 679.412 163.537 678.369 165.605 677.062C170.234 674.235 177.407 683.758 173.891 687.963C170.993 691.55 169.88 691.002 166.364 684.518ZM790.754 677.963C789.571 674.995 794.747 667.062 797.857 667.062C801.585 667.062 802.274 671.408 799.165 676.019C796.143 680.789 792.203 681.691 790.754 677.963ZM152.76 662.839C150.357 657.662 150.286 656.708 152.424 655.312C156.152 652.98 157.053 653.387 159.88 658.846C161.947 662.839 162.089 664.5 160.569 666.355C157.53 670.012 155.87 669.27 152.76 662.768V662.839ZM804.483 658.281C801.656 656.214 801.656 655.878 804.553 650.772C809.871 641.373 816.02 645.595 810.967 655.259C807.946 661.178 808.281 661.055 804.483 658.281ZM140.763 640.56C138.555 635.242 139.509 632.133 143.237 632.133C146.011 632.133 151.258 641.443 149.809 643.793C147.724 647.185 142.76 645.313 140.763 640.56ZM815.119 635.507C813.051 634.129 813.105 633.175 815.525 627.998C818.016 622.751 818.847 622.185 821.744 623.775C825.737 625.913 825.737 625.983 822.504 632.203C819.801 637.45 818.917 637.857 815.119 635.507ZM131.435 618.669C129.986 615.842 129.226 612.397 129.721 611.019C131.24 607.079 135.799 609.216 138.272 615.011C140.269 619.923 140.216 620.612 137.301 622.132C134.615 623.58 133.714 623.015 131.435 618.669ZM824.023 611.425C822.981 608.668 826.303 598.792 828.158 598.863C832.292 598.933 833.882 602.185 832.363 607.432C830.649 613.351 825.666 615.7 824.023 611.425ZM122.265 594.375C120.268 589.128 121.293 585.47 124.756 585.47C127.653 585.47 130.675 590.506 130.675 595.347C130.675 600.594 124.332 599.835 122.265 594.375ZM833.617 589.004C830.649 587.131 832.504 575.47 835.755 575.47C840.172 575.47 841.55 579.411 839.13 585.065C836.656 591.143 836.78 591.001 833.617 589.004ZM180.728 583.951C177.689 581.954 179.757 579.675 184.51 579.675C187.831 579.675 188.167 578.651 188.661 569.252C189.068 560.223 189.562 558.845 192.389 558.845C195.216 558.845 195.623 560.011 195.623 567.608C195.623 572.431 194.669 578.226 193.485 580.505C191.276 584.922 184.863 586.654 180.728 583.951ZM200.605 572.149C200.605 558.845 200.605 558.845 206.948 558.845C217.778 558.845 224.545 566.849 218.132 572.149C215.994 573.951 215.994 574.711 218.132 578.916C221.294 584.994 221.224 585.47 217.513 585.47C215.57 585.47 213.573 583.544 212.266 580.505C211.153 577.749 209.634 575.47 208.944 575.47C208.255 575.47 207.231 577.749 206.665 580.505C206.118 583.403 204.669 585.47 203.149 585.47C201.082 585.47 200.605 582.997 200.605 572.149ZM213.096 567.184C213.096 565.806 211.772 564.499 210.181 564.145C208.185 563.739 207.284 564.64 207.284 567.184C207.284 569.675 208.185 570.576 210.181 570.152C211.772 569.887 213.096 568.492 213.096 567.184ZM227.584 581.619C219.369 572.909 224.828 558.845 236.418 558.845C244.351 558.845 248.91 563.668 248.91 572.025C248.91 583.827 235.305 589.888 227.584 581.619ZM240.482 578.086C241.595 576.778 242.214 573.262 241.931 570.223C241.525 565.806 240.623 564.569 237.443 564.074C232.903 563.456 230.694 566.159 230.623 572.219C230.623 579.463 236.489 582.997 240.482 578.086ZM288.733 584.233C288.663 583.544 288.592 577.75 288.592 571.336C288.592 562.007 289.14 559.586 291.207 559.109C293.221 558.774 293.91 560.011 293.91 564.145L293.981 569.675L298.468 564.216C301.366 560.841 304.529 558.845 307.091 558.845C311.154 558.845 311.084 558.898 305.642 564.569L300.041 570.294L305.359 577.467C309.988 583.756 310.271 584.711 307.709 585.276C305.978 585.612 303.009 583.827 300.465 580.718C295.076 574.234 293.839 574.163 293.839 580.505C293.839 583.827 293.009 585.47 291.348 585.47C289.97 585.47 288.804 584.922 288.733 584.233ZM313.857 572.149C313.857 560.488 314.193 558.703 316.614 559.109C320.819 559.94 320.96 584.376 316.826 585.206C314.193 585.683 313.857 584.163 313.857 572.149ZM325.518 572.096C325.518 560.153 325.854 558.704 328.416 559.181C330.766 559.587 331.455 561.795 331.861 570.152C332.356 580.435 332.409 580.505 337.25 580.505C340.483 580.505 342.144 581.337 342.144 582.998C342.144 584.923 340.148 585.541 333.858 585.541H325.518V572.096ZM346.632 584.376C345.254 582.998 345.183 567.679 346.561 562.626C347.109 560.559 348.575 558.845 349.883 558.845C351.596 558.845 352.162 561.937 352.162 572.149C352.162 582.167 351.596 585.47 349.953 585.47C348.699 585.47 347.25 584.994 346.632 584.376ZM358.222 584.233C357.887 583.544 357.886 577.538 358.363 570.912C359.123 560.417 359.671 558.845 362.445 558.845C365.413 558.845 366.508 560.559 371.208 572.979C372.303 575.753 372.993 574.923 375.342 568.015C377.692 561.106 379 559.587 382.657 559.181C387.074 558.633 387.074 558.633 387.074 572.149C387.074 584.163 386.738 585.683 384.177 585.206C382.18 584.782 380.996 582.573 380.378 577.962L379.548 571.336L377.339 577.608C374.371 586.159 370.236 585.824 366.791 576.777L364.035 569.675L363.964 577.608C363.823 583.332 363.134 585.47 361.402 585.47C360.095 585.47 358.717 584.922 358.293 584.233H358.222ZM390.873 583.403C391.226 582.308 393.364 576.301 395.502 570.082C398.735 560.841 400.06 558.845 403.081 558.845C406.05 558.845 407.498 560.912 411.102 570.63C413.435 577.061 415.449 583.067 415.449 583.951C415.449 586.99 409.159 585.471 408.258 582.167C407.711 579.888 406.049 578.845 402.957 578.845C399.848 578.845 398.187 579.888 397.569 582.167C397.092 584.093 395.36 585.47 393.434 585.47C391.491 585.47 390.396 584.64 390.873 583.403ZM405.29 572.573C405.096 570.011 402.321 564.764 402.268 566.636C402.198 567.679 401.633 569.746 401.085 571.195C400.466 572.909 401.014 573.81 402.746 573.81C404.265 573.81 405.361 573.262 405.29 572.573ZM418.753 572.219C418.753 560.293 419.106 558.898 421.862 558.898C423.665 558.898 427.039 561.866 429.796 565.806L434.566 572.785L435.114 565.806C435.52 560.223 436.209 558.898 438.841 558.898C441.81 558.898 442.075 560.152 442.075 572.219C442.075 588.244 440.078 589.27 431.315 577.75L425.449 570.011V577.75C425.449 584.376 424.901 585.541 422.074 585.541C419.035 585.541 418.753 584.375 418.753 572.219ZM451.739 583.262C444.778 577.961 444.99 564.286 452.093 560.488C455.891 558.491 463.753 558.421 466.863 560.417C470.45 562.697 467.411 565.524 462.375 564.64C456.156 563.457 453.188 565.947 453.188 572.219C453.188 575.117 454.23 578.156 455.538 578.986C459.195 581.336 463.683 580.788 463.683 578.014C463.683 576.636 462.587 575.542 461.209 575.542C459.813 575.542 458.718 574.428 458.718 573.05C458.718 571.389 460.379 570.577 463.683 570.577C468.383 570.577 468.718 570.983 468.718 577.061C468.718 581.407 467.835 583.828 466.033 584.517C461.757 586.16 454.708 585.541 451.669 583.262H451.739ZM472.799 582.573C473.418 580.983 475.556 574.993 477.552 569.18C480.803 559.94 481.634 558.775 485.22 559.252C488.524 559.587 489.92 561.601 493.083 570.506C495.15 576.513 496.952 582.308 496.952 583.403C497.093 586.725 492.323 585.824 490.397 582.167C489.284 580.171 486.881 578.845 484.319 578.845C481.492 578.845 479.761 579.959 479.213 582.167C478.665 584.093 476.934 585.541 475.008 585.541C472.517 585.541 471.969 584.781 472.799 582.573ZM487.005 571.743C486.952 569.057 483.771 564.075 483.701 566.636C483.701 567.732 483.224 569.746 482.659 571.195C482.04 572.909 482.588 573.88 484.39 573.88C485.839 573.88 487.005 572.909 487.005 571.743ZM500.327 572.149C500.327 558.845 500.327 558.845 507.093 558.845C518.966 558.845 523.171 563.739 518.63 572.29C517.376 574.64 517.588 576.777 519.514 580.505C521.935 585.276 521.935 585.47 518.754 585.47C516.758 585.47 514.408 583.544 512.818 580.505C511.44 577.749 509.514 575.542 508.613 575.542C507.712 575.542 507.023 577.749 507.023 580.505C507.023 584.375 506.263 585.47 503.719 585.47C500.609 585.47 500.327 584.375 500.327 572.149ZM513.648 567.184C513.648 564.976 512.553 563.88 510.344 563.88C508.136 563.88 507.023 564.976 507.023 567.184C507.023 569.393 508.136 570.506 510.344 570.506C512.553 570.506 513.648 569.393 513.648 567.184ZM528.772 582.573C526.828 580.983 524.761 576.919 524.284 573.545C523.454 568.421 524.002 566.708 527.518 563.121C535.733 554.905 547.889 559.11 549.744 570.771C551.546 582.308 537.871 589.958 528.772 582.573ZM541.051 577.891C546.087 572.838 543.331 563.88 536.705 563.88C533.666 563.88 530.362 568.492 530.362 572.785C530.362 575.471 534.708 580.505 536.988 580.505C537.8 580.505 539.603 579.34 541.051 577.891ZM563.614 572.149C563.614 559.94 563.967 558.845 566.935 558.845C570.045 558.845 570.31 559.94 570.31 572.149C570.31 584.375 569.974 585.47 566.935 585.47C563.896 585.47 563.614 584.375 563.614 572.149ZM575.292 572.149C575.292 560.082 575.557 558.845 578.525 558.845C580.469 558.845 583.985 561.936 587.218 566.565L592.748 574.234L593.296 566.565C593.649 561.177 594.533 558.845 596.194 558.845C598.066 558.845 598.614 561.672 598.614 572.149C598.614 588.298 596.476 589.41 588.26 577.608L582.801 569.675L582.253 577.608C581.918 584.163 581.211 585.47 578.525 585.47C575.557 585.47 575.292 584.234 575.292 572.149ZM610.275 574.711C610.275 564.216 610.133 563.88 606.07 563.88C603.508 563.88 601.918 562.908 601.918 561.318C601.918 559.392 604.268 558.845 612.766 558.845C621.247 558.845 623.597 559.392 623.597 561.318C623.597 562.908 622.006 563.88 619.392 563.88C615.381 563.88 615.24 564.216 615.24 574.711C615.24 583.192 614.762 585.47 612.766 585.47C610.822 585.47 610.275 583.192 610.275 574.711ZM622.978 582.926C622.36 581.478 623.049 579.959 624.498 579.411C627.802 578.156 629.25 579.675 628.014 582.926C626.706 586.23 624.215 586.23 622.978 582.926ZM641.883 584.233C641.883 583.544 643.88 577.538 646.3 570.912C649.957 560.771 651.265 558.845 654.445 558.845C657.696 558.845 658.862 560.559 661.972 570.082C664.039 576.301 666.035 582.308 666.459 583.403C666.936 584.64 665.841 585.47 663.827 585.47C661.901 585.47 659.975 584.093 659.41 582.167C658.65 579.888 656.866 578.845 653.615 578.845C650.382 578.845 648.721 579.817 648.102 582.167C647.272 585.277 641.883 587.06 641.883 584.233ZM656.247 571.195C655.682 569.746 655.205 567.679 655.205 566.636C655.134 564.004 651.954 569.057 651.883 571.743C651.883 572.909 653.067 573.88 654.586 573.88C656.3 573.88 656.865 572.909 656.247 571.195ZM670.187 572.149C670.187 559.94 670.523 558.845 673.562 558.845C676.601 558.845 676.883 559.94 676.883 572.149C676.883 584.375 676.53 585.47 673.562 585.47C670.452 585.47 670.187 584.375 670.187 572.149ZM682.944 584.376C682.325 583.757 681.848 577.82 681.848 571.053C681.848 558.845 681.848 558.845 689.233 558.845C699.993 558.845 705.93 566.707 699.304 572.149C697.096 574.022 697.237 574.923 700.276 579.888C703.792 585.471 703.792 585.47 700.417 585.47C698.403 585.47 695.788 583.403 694.057 580.505C692.467 577.749 690.541 575.542 689.852 575.542C689.092 575.542 688.544 577.749 688.544 580.505C688.544 585.205 685.718 587.132 682.944 584.376ZM695.17 567.184C695.17 564.976 694.057 563.88 691.849 563.88C689.64 563.88 688.544 564.976 688.544 567.184C688.544 569.393 689.64 570.506 691.849 570.506C694.057 570.506 695.17 569.393 695.17 567.184ZM706.831 572.29C706.831 558.845 706.831 558.845 713.315 558.845C727.255 558.845 731.814 571.389 719.464 575.47C715.594 576.778 713.527 578.58 713.174 580.983C712.909 582.997 711.389 584.853 709.729 585.206C707.167 585.683 706.831 584.234 706.831 572.29ZM719.87 567.608C718.969 563.262 713.527 562.767 713.527 567.043C713.527 569.464 714.552 570.506 716.972 570.506C719.322 570.506 720.223 569.605 719.87 567.608ZM733.262 582.379C730.294 579.958 729.393 577.538 729.393 572.149C729.393 564.004 734.234 558.845 741.814 558.845C749.411 558.845 754.235 564.004 754.235 572.149C754.235 580.294 749.411 585.47 741.814 585.47C739.27 585.47 735.4 584.092 733.262 582.379ZM746.443 578.509C751.143 573.81 747.75 563.88 741.549 563.88C735.807 563.88 733.262 573.404 737.75 577.891C740.93 580.983 743.757 581.195 746.443 578.509ZM759.553 575.877C758.104 561.796 759.288 558.845 766.249 558.845C774.464 558.845 778.475 561.46 778.475 566.919C778.475 569.463 777.574 572.361 776.532 573.403C775.083 574.852 775.295 576.371 777.362 579.534C780.878 584.852 780.807 585.47 776.814 585.47C774.871 585.47 772.468 583.474 770.948 580.505C769.5 577.749 767.627 575.542 766.726 575.542C765.843 575.542 765.153 577.749 765.153 580.505C765.153 583.615 764.252 585.47 762.874 585.47C761.355 585.47 760.242 582.379 759.623 575.877H759.553ZM772.609 567.184C772.609 565.806 770.948 564.428 768.881 564.145C765.984 563.739 765.153 564.428 765.153 567.184C765.153 569.94 765.984 570.629 768.881 570.223C770.948 569.887 772.609 568.562 772.609 567.184ZM788.405 574.64C788.405 564.976 788.069 563.88 785.1 563.88C783.228 563.88 781.779 562.767 781.779 561.318C781.779 559.392 783.988 558.845 791.779 558.845C799.518 558.845 801.726 559.392 801.726 561.318C801.726 562.767 800.278 563.88 798.405 563.88C795.437 563.88 795.101 564.976 795.101 574.64C795.101 584.375 794.748 585.47 791.779 585.47C788.758 585.47 788.405 584.375 788.405 574.64ZM262.231 574.711C262.231 572.909 264.016 572.149 268.097 572.149C272.161 572.149 273.892 572.909 273.892 574.711C273.892 576.443 272.161 577.202 268.097 577.202C264.016 577.202 262.231 576.443 262.231 574.711ZM115.71 571.336C113.36 565.188 113.643 562.697 116.806 561.46C120.604 560.011 122.124 562.007 122.742 568.845C123.36 576.23 118.254 578.085 115.71 571.389V571.336ZM837.751 564.145C835.826 561.054 839.483 553.032 843.069 552.484C846.939 551.936 847.628 554.428 845.685 561.796C844.66 565.471 839.483 566.972 837.751 564.145ZM110.109 545.312C108.537 537.644 108.661 537.237 113.007 537.237C116.258 537.237 117.159 538.261 117.848 542.625C118.819 549.11 118.13 550.559 114.12 550.559C112.123 550.559 110.798 548.898 110.109 545.312ZM841.762 537.643C841.762 531.371 843.829 527.219 846.939 527.219C849.483 527.219 850.031 528.473 850.031 533.844C850.031 539.851 849.624 540.541 845.896 540.541C842.999 540.541 841.762 539.657 841.762 537.643ZM242.284 527.219V473.95H232.266C222.266 473.95 222.266 473.95 222.266 468.296C222.266 465.187 223.238 462.36 224.333 462.006C225.517 461.671 238.203 461.67 252.638 461.935C278.857 462.412 278.857 462.413 278.857 468.155C278.857 473.95 278.857 473.95 268.927 473.95H258.91V527.219H242.284ZM288.733 509.428C306.808 459.392 305.094 462.289 316.543 462.289H326.685L337.586 491.83C343.522 508.102 348.982 522.749 349.671 524.392C350.784 527.095 350.024 527.36 341.95 526.883C333.045 526.406 332.974 526.336 330.554 519.286C328.133 512.254 328.133 512.254 316.137 512.254C304.122 512.254 304.122 512.254 301.773 519.286C299.493 526.336 299.352 526.406 290.801 526.883L282.249 527.36L288.733 509.428ZM323.858 500.169C323.858 499.904 322.073 494.162 319.918 487.343L316.066 474.975L311.719 487.748L307.426 500.594H315.642C320.13 500.594 323.858 500.381 323.858 500.169ZM360.501 494.727V462.289H368.381C376.314 462.289 376.314 462.289 390.466 482.289L404.601 502.236L405.095 482.237L405.502 462.289H420.414V527.219H413.17C404.671 527.219 405.166 527.643 388.116 503.208L375.413 485.063V527.219H360.431L360.501 494.727ZM432.075 522.943C432.075 520.187 437.605 511.282 447.887 497.342C456.58 485.611 463.754 475.54 463.754 474.975C463.754 474.356 456.916 473.95 448.647 473.95C433.523 473.95 433.524 473.95 434.071 467.943C434.566 461.936 434.566 461.935 459.548 461.794C484.531 461.599 484.531 461.6 485.079 466.141C485.503 469.745 482.181 475.399 469.69 492.378C460.927 504.25 453.753 514.322 453.753 514.728C453.753 515.223 460.856 515.558 469.549 515.558C485.362 515.558 485.361 515.558 485.361 521.353C485.361 527.219 485.362 527.219 458.718 527.219C432.075 527.219 432.075 527.219 432.075 522.943ZM492.058 526.194C492.058 525.647 497.358 511 503.913 493.756L515.786 462.289H526.14C536.299 462.289 536.422 462.36 538.224 467.66C540.009 473.12 555.062 513.968 558.437 522.679C560.239 527.219 560.239 527.219 551.475 527.219C542.712 527.219 542.712 527.219 540.08 520.117C537.536 513.085 537.536 513.084 525.309 513.084C513.101 513.084 513.101 513.085 510.751 520.117C508.401 527.166 508.33 527.219 500.203 527.219C495.715 527.219 492.058 526.742 492.058 526.194ZM533.26 498.508C532.765 497.342 531.051 492.095 529.39 486.848C527.73 481.547 525.945 477.253 525.38 477.253C524.832 477.253 523.101 481.194 521.652 486.017C520.132 490.788 518.418 496.035 517.8 497.696C516.828 500.24 517.73 500.594 525.309 500.594C531.599 500.594 533.807 499.957 533.26 498.508ZM570.31 527.219V462.077L578.19 462.624C586.123 463.119 586.122 463.119 600.275 482.642L614.409 502.166L614.904 482.237L615.31 462.289H630.222V527.219L622.289 527.166C614.409 527.095 614.409 527.095 600.275 506.936L586.052 486.848L585.628 507.007L585.151 527.219H570.31ZM646.919 527.219V462.289H663.562V527.219H646.919ZM679.498 511.07C682.749 502.112 688.05 487.466 691.371 478.509L697.378 462.289H707.803C718.138 462.289 718.139 462.288 720.7 469.391C722.838 475.398 731.195 498.509 739.411 521.018C741.69 527.22 741.69 527.219 732.785 527.219C723.951 527.219 723.951 527.219 721.813 519.71C719.728 512.254 719.729 512.254 707.591 512.254C695.435 512.254 695.435 512.254 693.103 519.286C690.823 526.336 690.683 526.406 682.184 526.883L673.633 527.36L679.498 511.07ZM715.188 500.169C715.188 499.904 713.456 494.232 711.319 487.466L707.449 475.257L703.792 486.3C701.796 492.378 700.205 498.032 700.205 498.933C700.205 499.834 703.509 500.594 707.661 500.594C711.796 500.594 715.188 500.381 715.188 500.169ZM106.946 520.258C105.904 513.562 106.593 512.254 110.798 512.254C113.29 512.254 114.049 513.42 114.049 517.219C114.049 519.975 114.261 522.802 114.473 523.509C114.667 524.198 113.289 524.958 111.293 525.223C108.466 525.647 107.636 524.675 106.946 520.258ZM152.354 521.777C152.354 521.565 153.467 517.907 154.774 513.561C157.124 505.769 157.124 505.77 151.382 501.424C144.562 496.177 144.968 494.728 153.466 494.162C161.046 493.685 161.594 493.208 164.562 484.709L166.842 478.084L169.615 484.568C171.135 488.102 172.301 491.618 172.301 492.378C172.301 493.137 176.17 494.303 180.852 494.921L189.421 496.035L183.061 501.353C176.789 506.653 176.789 506.654 179.474 514.393C180.923 518.739 181.753 522.184 181.347 522.184C180.923 522.184 177.619 520.257 173.961 517.837C167.336 513.42 167.336 513.42 160.71 517.837C154.703 521.848 152.283 522.943 152.354 521.777ZM782.468 518.456C785.79 506.866 785.648 506.106 779.571 501.283C772.397 495.611 773.086 493.897 782.397 493.897C789.235 493.897 789.571 493.685 792.822 486.017L796.143 478.084L798.617 485.611C801.037 492.784 801.514 493.138 809.801 494.798L818.352 496.441L812.416 501.212C806.143 506.176 806.073 506.724 809.518 518.88C810.631 522.873 810.56 522.944 806.62 520.329C795.03 512.802 795.86 512.943 789.517 517.767C782.397 523.226 781.09 523.368 782.468 518.456ZM845.349 509.428C845.826 504.251 846.585 502.996 849.766 502.519C853.282 502.042 853.564 502.519 853.07 508.385C852.593 513.562 851.833 514.798 848.653 515.293C845.137 515.77 844.854 515.294 845.349 509.428ZM105.286 495.134C104.243 488.579 104.932 487.271 109.155 487.271C111.77 487.271 112.388 488.438 112.388 493.897C112.388 499.339 111.77 500.594 109.226 500.594C106.946 500.594 105.833 499.074 105.286 495.134ZM846.232 485.204C845.278 478.632 845.897 477.253 850.102 477.253C852.805 477.253 853.352 478.438 853.352 483.95C853.352 489.339 852.805 490.576 850.243 490.576C847.964 490.576 846.868 489.056 846.232 485.204ZM105.498 474.781C105.003 474.357 105.003 471.388 105.356 468.155C105.904 463.738 106.876 462.289 109.226 462.289C111.77 462.289 112.388 463.526 112.388 468.914C112.388 474.285 111.77 475.611 109.35 475.611C107.636 475.611 105.904 475.258 105.498 474.781ZM267.549 418.525C267.956 415.557 269.263 414.727 274.299 414.321C280.041 413.826 280.588 414.109 280.588 418.049C280.588 421.918 279.97 422.324 273.751 422.324C267.673 422.324 267.055 421.917 267.549 418.525ZM292.532 418.525C292.938 415.557 294.246 414.727 299.282 414.321C305.024 413.826 305.571 414.109 305.571 418.049C305.571 421.918 304.953 422.324 298.734 422.324C292.656 422.324 292.037 421.917 292.532 418.525ZM317.515 418.525C317.921 415.557 319.228 414.727 324.281 414.321C330.006 413.826 330.483 414.109 330.483 418.049C330.483 421.918 329.865 422.324 323.716 422.324C317.656 422.324 317.02 421.917 317.515 418.525ZM342.497 418.525C342.833 415.628 344.282 414.656 348.628 414.249C354.494 413.702 357.533 416.105 356.014 420.045C355.466 421.423 352.497 422.324 348.575 422.324C342.639 422.324 342.003 421.917 342.497 418.525ZM367.48 418.525C367.816 415.557 369.194 414.727 374.247 414.321C379.971 413.826 380.449 414.109 380.449 418.049C380.449 421.918 379.83 422.324 373.682 422.324C367.622 422.324 366.985 421.917 367.48 418.525ZM392.392 418.525C392.798 415.557 394.194 414.727 399.23 414.321C404.954 413.826 405.431 414.109 405.431 418.049C405.431 421.918 404.813 422.324 398.664 422.324C392.604 422.324 391.986 421.917 392.392 418.525ZM417.092 418.19C417.092 414.391 417.781 413.967 423.788 413.967C429.725 413.967 430.414 414.391 430.414 418.19C430.414 421.918 429.725 422.324 423.788 422.324C417.781 422.324 417.092 421.918 417.092 418.19ZM442.075 418.19C442.075 414.391 442.782 413.967 448.701 413.967C454.708 413.967 455.397 414.391 455.397 418.19C455.397 421.918 454.708 422.324 448.701 422.324C442.782 422.324 442.075 421.918 442.075 418.19ZM467.34 418.525C467.764 415.557 469.142 414.727 474.107 414.321C479.831 413.826 480.379 414.109 480.379 418.049C480.379 421.918 479.761 422.324 473.63 422.324C467.552 422.324 466.863 421.917 467.34 418.525ZM492.323 418.525C492.747 415.557 494.125 414.727 499.09 414.321C504.814 413.826 505.379 414.109 505.379 418.049C505.379 421.918 504.743 422.324 498.613 422.324C492.535 422.324 491.846 421.917 492.323 418.525ZM517.306 418.525C517.995 413.702 529.249 412.041 530.98 416.529C532.624 420.805 530.627 422.324 523.454 422.324C517.517 422.324 516.829 421.917 517.306 418.525ZM542.288 418.525C542.712 415.557 544.02 414.727 549.055 414.321C554.78 413.826 555.345 414.109 555.345 418.049C555.345 421.918 554.709 422.324 548.507 422.324C542.429 422.324 541.811 421.917 542.288 418.525ZM567.271 418.666C567.695 415.345 568.79 414.797 574.462 414.797C579.974 414.797 581.158 415.345 581.158 418.119C581.158 420.875 579.833 421.564 573.897 421.971C567.218 422.465 566.723 422.253 567.271 418.666ZM592.254 418.525C592.678 415.557 593.985 414.727 599.02 414.321C604.763 413.826 605.239 414.109 605.239 418.049C605.239 421.918 604.621 422.324 598.473 422.324C592.395 422.324 591.777 421.917 592.254 418.525ZM617.183 418.666C617.66 415.345 618.703 414.797 624.427 414.797C629.939 414.797 631.053 415.345 631.053 418.119C631.053 420.875 629.798 421.564 623.879 421.971C617.183 422.465 616.688 422.253 617.183 418.666ZM642.166 418.666C642.643 415.345 643.685 414.797 649.41 414.797C654.922 414.797 656.035 415.345 656.035 418.119C656.035 420.875 654.798 421.564 648.862 421.971C642.166 422.465 641.671 422.253 642.166 418.666ZM667.484 419.762C665.965 415.769 669.003 413.631 675.435 414.249C679.71 414.656 681.018 415.557 681.018 418.119C681.018 422.606 669.074 424.055 667.484 419.762ZM692.467 419.762C690.948 415.769 693.986 413.631 700.417 414.249C704.693 414.656 706.001 415.557 706.001 418.119C706.001 422.606 694.057 424.055 692.467 419.762ZM717.114 418.525C717.52 415.628 718.898 414.656 723.316 414.249C729.181 413.702 732.149 416.105 730.647 420.045C730.153 421.423 727.184 422.324 723.191 422.324C717.326 422.324 716.637 421.917 717.114 418.525ZM742.432 419.903C740.931 415.981 743.263 413.967 749.199 413.967C754.659 413.967 757.963 417.358 755.895 420.804C754.305 423.295 743.475 422.536 742.432 419.903ZM767.079 418.525C767.556 415.557 768.881 414.727 773.846 414.321C779.57 413.826 780.118 414.109 780.118 418.049C780.118 421.918 779.5 422.324 773.352 422.324C767.291 422.324 766.602 421.917 767.079 418.525ZM115.162 399.408C113.713 397.058 116.116 388.72 118.537 387.819C122.265 386.37 124.191 389.532 123.024 395.344C121.982 400.38 117.229 402.782 115.162 399.408ZM287.285 372.623C360.713 335.715 404.124 310.378 422.905 293.258L431.244 285.679L424.619 286.704C420.961 287.252 409.777 289.195 399.848 290.98C389.901 292.782 381.562 294.018 381.208 293.753C380.943 293.4 392.039 290.29 405.855 286.704C423.594 282.145 431.244 280.767 431.739 282.146C433.594 287.676 435.396 282.711 435.396 272.146C435.396 231.227 483.153 210.643 511.722 239.229C521.581 249.088 524.426 256.137 524.832 271.314C525.115 284.283 526.069 288.082 528.348 284.778C529.108 283.594 536.634 285.325 549.885 289.671C561.14 293.258 569.974 296.651 569.55 297.057C569.073 297.534 560.787 295.82 551.122 293.258C541.405 290.785 533.189 288.983 532.765 289.407C530.981 291.192 555.61 310.096 573.349 320.521C615.664 345.503 649.48 363.101 715.188 394.444C724.287 398.79 724.287 398.79 479.566 398.861L234.758 398.931L287.285 372.623ZM417.092 352.34C429.654 347.093 435.396 342.465 435.396 337.853C435.396 336.475 439.053 331.369 443.541 326.457C448.011 321.563 452.499 315.079 453.471 312.04C454.919 307.623 454.849 307.199 453.188 309.832C450.22 314.796 442.022 322.535 432.834 329.16C426.757 333.507 424.689 336.051 424.972 338.684C425.237 341.298 423.859 343.1 419.99 345.097C413.93 348.206 398.187 360.08 402.127 358.56C403.435 357.995 410.202 355.238 417.092 352.34ZM481.899 352.818C480.945 350.344 479.355 347.305 478.312 346.068C476.863 344.337 477.146 342.464 479.425 338.259C481.899 333.63 482.04 332.181 480.255 328.807C479.072 326.669 477.694 322.251 477.146 319.071C476.386 314.583 475.273 313.064 472.252 312.658C468.718 312.181 468.453 311.492 469.283 306.033C470.237 299.884 470.238 299.884 467.075 304.107C463.471 308.647 462.782 313.276 465.414 314.867C466.315 315.485 467.075 318.665 467.128 322.04C467.128 327.694 467.34 327.977 469.478 325.15C474.513 318.524 478.807 329.85 474.867 339.231C472.658 344.62 472.8 345.168 477.411 351.104C483.224 358.56 484.249 358.896 481.899 352.818ZM358.858 346.687C368.452 342.606 376.579 339.637 377.003 339.991C377.41 340.397 375.201 343.789 372.162 347.57C366.721 354.408 366.721 354.408 371.473 351.44C374.176 349.779 377.48 347.376 379 346.121C380.449 344.955 387.498 341.651 394.671 338.948C401.774 336.192 409.777 332.111 412.481 329.849C415.166 327.57 418.612 325.697 420.202 325.697C427.516 325.697 440.078 317.217 446.085 308.1C449.46 303.064 453.948 298.294 456.156 297.481C458.294 296.651 460.573 295.131 461.209 294.089C462.022 292.781 463.064 292.852 464.866 294.301C466.934 296.032 468.241 295.273 472.799 289.884C478.807 282.781 478.877 282.782 481.086 295.75C481.775 299.743 485.22 304.919 492.058 312.304C497.57 318.241 501.987 323.771 501.987 324.531C501.987 325.291 503.436 325.485 505.238 324.938C507.517 324.178 510.821 326.05 516.687 331.298C525.115 338.736 536.352 346.881 543.26 350.485C550.097 354.072 547.129 351.103 536.157 343.223C530.221 339.018 525.309 334.885 525.309 333.984C525.309 333.154 520.839 328.047 515.238 322.658C507.376 315.078 504.337 313.064 501.228 313.63C498.118 314.248 496.263 312.94 492.182 307.34C487.5 300.926 485.291 292.428 488.188 292.428C488.877 292.428 491.634 294.512 494.461 297.127C497.235 299.742 502.535 303.612 506.192 305.82L512.818 309.69L505.574 301.757C499.019 294.513 498.542 293.471 500.892 291.121C503.224 288.842 503.913 288.841 507.305 291.05C509.443 292.428 514.002 294.442 517.447 295.608C520.839 296.721 528.083 300.927 533.525 304.92C550.857 317.623 570.663 329.283 578.596 331.492C580.946 332.057 575.628 328.259 566.864 322.87C552.571 314.178 545.945 309.213 520.415 287.747C513.931 282.287 511.581 281.457 501.298 280.432C494.814 279.814 485.22 278.771 480.043 278.152C472.941 277.322 468.789 277.728 463.754 279.672C460.026 281.191 453.877 282.428 450.167 282.428C444.089 282.428 441.88 283.594 431.456 292.923C413.24 309.071 405.237 314.655 374.653 332.747C333.116 357.306 332.762 357.659 358.858 346.616V346.687ZM383.77 334.319C383.77 333.507 391.845 327.358 401.703 320.662C411.509 313.966 422.958 305.485 427.11 301.951C436.704 293.541 442.357 290.714 446.845 291.88C451.404 293.064 451.403 293.611 445.467 302.923C440.979 309.972 427.446 320.733 423.099 320.733C422.198 320.733 424 318.046 427.18 314.795L432.905 308.859L422.905 314.584C417.445 317.835 410.131 322.8 406.685 325.768C398.611 332.676 383.77 338.189 383.77 334.319ZM593.649 351.581C593.649 351.104 590.398 349.161 586.529 347.235C582.677 345.239 574.179 339.779 567.765 334.956C561.334 330.185 553.207 325.291 549.603 324.107C546.087 322.941 538.772 317.976 533.454 312.993C522.217 302.711 520.627 302.022 524.832 309.213C527.659 314.036 529.726 316.033 541.529 325.079C545.875 328.4 590.875 352.34 592.748 352.34C593.225 352.34 593.649 351.987 593.649 351.581ZM832.981 386.51C832.098 381.811 832.787 380.645 836.85 380.645C841.073 380.645 842.522 385.946 838.988 388.508C834.854 391.546 833.882 391.192 832.981 386.51ZM122.601 375.874C119.579 373.949 123.166 362.341 126.682 362.341C130.056 362.341 131.311 366.422 129.509 371.811C127.777 376.917 125.922 378.012 122.601 375.874ZM826.638 364.691C824.642 358.56 826.426 354.902 830.843 356.28C833.953 357.234 835.896 367.517 833.264 369.178C829.465 371.528 828.776 371.051 826.638 364.691ZM130.887 352.552C127.919 350.609 131.434 339.019 135.039 339.019C138.625 339.019 139.65 343.436 137.301 349.09C135.092 354.408 134.403 354.761 130.887 352.552ZM817.468 340.467C814.694 335.22 815.949 332.464 821.055 332.393C823.051 332.393 826.709 339.443 826.709 343.295C826.709 347.853 820.225 345.856 817.468 340.467ZM897.523 330.326C889.519 319.213 888.335 315.484 891.445 311.757C894.007 308.859 893.936 308.719 890.826 309.69C887.929 310.591 886.268 308.029 877.575 289.743C857.345 246.88 831.197 209.07 798.617 175.307C787.857 164.211 778.475 153.716 777.91 152.055C777.291 150.394 776.125 149.441 775.224 149.989C774.394 150.536 772.256 149.087 770.454 146.808C768.669 144.528 766.867 143.01 766.461 143.504C766.037 143.84 763.899 142.32 761.691 139.971C758.316 136.384 758.104 135.501 760.171 134.175C763.705 131.967 765.153 132.25 765.153 135.006C765.153 136.525 766.108 137.073 767.627 136.525C769.217 135.907 770.118 136.596 770.118 138.327C770.118 139.917 770.878 140.606 771.903 140.041C774.394 138.468 780.401 144.388 779.288 147.232C778.67 148.876 779.235 149.3 781.09 148.611C784.465 147.303 804.836 166.685 824.571 190.024C841.762 210.307 867.434 248.187 866.18 251.438C865.632 252.816 866.462 254.124 868.123 254.548C869.837 255.025 875.508 264.406 882.063 277.604C903.795 321.209 912.629 351.51 897.523 330.326ZM139.862 329.089C138.696 327.146 140.216 320.945 142.689 317.977C144.633 315.485 149.049 316.934 149.049 320.044C149.049 327.076 142.548 333.436 139.862 329.089ZM345.66 736.074C337.939 731.798 332.904 731.108 328.964 733.582C327.444 734.553 325.306 734.483 323.31 733.37C318.469 730.755 323.381 726.815 332.762 725.79C338.84 725.101 342.074 725.791 348.699 729.307C359.053 734.696 361.95 734.766 371.756 729.518C376.102 727.239 382.251 725.367 385.484 725.367C388.664 725.367 394.813 727.239 399.159 729.518C403.435 731.797 408.541 733.653 410.413 733.653C412.339 733.653 417.446 731.797 421.721 729.518C426.138 727.168 432.357 725.367 435.873 725.367C439.46 725.367 445.679 727.168 450.025 729.518C454.372 731.797 459.407 733.653 461.209 733.653C463.064 733.653 468.1 731.797 472.376 729.518C476.722 727.239 482.941 725.367 486.192 725.367C489.496 725.367 495.715 727.239 499.991 729.518C504.337 731.797 509.302 733.653 511.174 733.653C513.03 733.653 518.065 731.797 522.341 729.518C532.359 724.2 539.956 724.271 550.363 729.712C559.479 734.483 566.652 734.271 572.253 729.236C577.624 724.342 590.257 724.412 599.586 729.377C609.586 734.695 612.201 734.695 622.766 729.518C627.325 727.239 633.332 725.437 636.088 725.437C641.053 725.437 641.053 725.437 636.918 728.759C628.985 734.961 616.971 740.349 611.035 740.349C607.784 740.349 601.582 738.476 597.306 736.215C592.96 733.936 587.978 732.062 586.123 732.062C584.25 732.062 579.214 733.936 574.939 736.215C570.663 738.476 564.444 740.349 561.14 740.349C557.818 740.349 551.617 738.476 547.341 736.215C543.048 733.936 538.012 732.062 536.157 732.062C534.284 732.062 529.249 733.936 524.973 736.215C520.698 738.476 514.478 740.349 511.174 740.349C507.853 740.349 501.652 738.476 497.358 736.215C493.083 733.936 488.047 732.062 486.192 732.062C484.319 732.062 479.354 733.936 475.008 736.215C470.732 738.476 464.513 740.349 461.262 740.349C457.959 740.349 451.615 738.476 447.057 736.215C436.845 731.038 432.976 731.038 424.619 736.144C415.855 741.515 406.809 741.586 396.739 736.215C387.003 731.038 383.01 730.967 374.653 736.144C365.89 741.586 355.537 741.515 345.66 736.074ZM732.15 751.674C729.323 748.83 729.676 746.285 733.192 743.035C740.577 736.338 746.107 741.798 739.058 748.83C735.259 752.628 733.74 753.247 732.15 751.674ZM454.584 959.062C447.251 958.638 440.149 957.949 438.771 957.401C437.393 956.853 434.354 956.5 432.075 956.641C429.725 956.853 419.654 955.811 409.583 954.291C217.231 925.934 61.5925 785.42 14.1184 597.132C-1.7652 534.198 -4.30943 463.048 6.80379 396.51C19.4365 321.209 54.2075 243.576 102.865 181.879C120.957 158.964 162.424 118.097 185.693 100.288C320.13 -2.82323 497.5 -28.4244 653.685 32.7955C665.205 37.3538 676.053 42.1068 677.838 43.5026C680.541 45.5698 680.541 45.8352 678.12 45.0048C676.124 44.2628 675.223 44.8103 675.223 46.6655C675.223 50.6761 679.975 51.9132 682.467 48.5386C684.463 45.8354 685.294 45.9762 694.817 50.8173C711.389 59.1566 733.474 72.6202 733.474 74.3516C733.474 76.7545 731.955 76.3477 727.255 72.6198C721.107 67.7964 718.086 68.132 720.489 73.4501C722.768 78.4855 721.107 80.6945 716.972 78.0796C714.481 76.5601 713.669 76.7541 712.485 79.3866C711.46 81.6658 710.276 82.072 708.562 81.0472C706.477 79.7221 706.478 79.1038 708.898 76.489C711.725 73.3087 710.206 67.655 706.548 67.655C705.453 67.655 705.594 68.6087 706.902 70.1989C708.686 72.3367 708.562 73.3089 706.283 75.5174C703.721 78.1323 703.386 78.0796 701.106 75.0407C699.728 73.2386 698.615 72.6906 698.545 73.8567C698.545 75.0404 691.919 72.6196 682.255 67.7962C633.473 43.5556 578.048 28.0963 519.514 22.5132C495.15 20.1633 439.742 21.4706 416.279 25.0042C284.246 44.6688 170.304 115.96 97.9005 224.176C56.8399 285.467 32.2637 351.863 23.2884 425.574C20.3908 449.515 19.9845 505.487 22.458 528.049C44.3488 722.892 181.417 879.132 371.349 925.793C380.448 928.072 391.35 930.422 395.431 931.111C399.848 931.801 403.841 933.584 405.095 935.386C407.781 939.185 410.749 939.521 409.3 935.864C408.399 933.585 409.23 933.319 414.76 934.22C480.732 944.627 560.645 936.977 629.321 913.655C637.466 910.81 644.781 908.531 645.54 908.531C646.3 908.531 646.919 911.235 646.919 914.468C646.919 917.789 647.608 919.998 648.438 919.45C649.339 918.885 650.788 919.786 651.759 921.447C652.643 923.037 653.474 923.444 653.474 922.277C653.544 921.164 654.587 920.21 655.894 920.21C659.269 920.21 660.788 914.892 657.82 913.231C656.442 912.401 655.753 910.687 656.3 909.362C656.936 907.648 656.035 906.888 653.35 906.747C650.099 906.676 650.576 906.128 656.035 903.567C664.392 899.697 665.205 899.644 665.205 902.736C665.205 904.114 666.459 905.227 667.908 905.227C670.117 905.227 670.258 905.704 668.527 907.718C667.078 909.432 667.007 910.192 668.315 910.192C669.357 910.192 670.187 912.33 670.187 914.963C670.187 919.238 669.074 920.21 659.834 924.132C632.908 935.528 595.222 946.359 562.995 952.012C541.405 955.811 535.398 956.094 538.295 953.197C541.193 950.37 540.769 947.401 537.465 946.146C535.733 945.457 533.808 946.023 532.695 947.595C531.67 949.044 529.938 950.228 528.843 950.228C527.323 950.228 527.323 951.058 528.772 953.743C530.627 957.189 530.486 957.33 524.002 956.305C520.274 955.669 517.04 955.881 516.758 956.641C516.069 958.372 474.248 959.963 454.584 959.062ZM440.432 950.158C440.432 949.257 439.672 948.496 438.771 948.496C437.87 948.496 437.11 949.257 437.11 950.158C437.11 951.059 437.87 951.818 438.771 951.818C439.672 951.818 440.432 951.059 440.432 950.158ZM448.771 929.114C289.758 917.93 149.244 824.82 77.3348 682.928C55.7268 640.278 40.5499 592.926 33.094 544.693C28.7477 516.176 28.677 443.367 33.094 414.797C70.8507 169.512 294.935 0.834965 539.461 33.6269C574.179 38.3266 611.034 47.4249 615.045 52.3367C616.618 54.3332 617.519 54.5456 618.067 53.1498C619.516 49.1568 679.711 74.0686 684.534 80.6235C685.506 82.0016 687.096 82.6906 687.979 82.1429C688.88 81.5952 695.93 84.7051 703.58 89.1221C716.213 96.366 717.591 97.6028 717.873 102.373C718.015 105.271 717.803 107.602 717.52 107.602C717.114 107.602 712.008 104.634 706.071 100.977C700.135 97.3194 689.993 91.6663 683.509 88.433C672.873 83.0443 671.901 82.2136 672.873 78.415C674.039 73.7859 672.325 73.1679 667.767 76.5602C665.081 78.486 662.59 77.9378 648.438 72.072C637.325 67.5136 632.501 64.6873 633.049 63.1678C634.092 60.606 631.671 60.199 629.321 62.5488C628.226 63.6442 621.388 62.1957 609.922 58.3971C566.935 44.5277 521.722 38.5203 468.453 39.7747C399.424 41.3472 344.706 54.669 284.246 84.4927C71.257 189.671 -19.9809 441.229 75.8154 658.97C132.406 787.488 250.906 883 389.636 911.782C422.622 918.69 446.987 920.616 488.524 919.715C529.726 918.832 545.61 917.029 579.974 909.096C590.681 906.605 601.087 904.68 603.172 904.751C605.239 904.751 606.971 904.184 606.971 903.495C606.971 902.806 609.303 901.358 612.13 900.404C616.547 898.814 617.731 899.008 619.586 901.428C621.671 904.114 621.795 904.061 621.865 900.598C621.865 898.389 622.978 896.87 624.427 896.87C625.805 896.87 626.901 897.629 626.901 898.531C626.901 899.432 628.42 900.192 630.222 900.192C643.756 900.192 612.554 911.499 577.766 919.167C567.695 921.376 554.585 923.443 548.649 923.797C542.712 924.062 537.394 924.963 536.846 925.652C534.567 928.761 476.245 930.97 448.701 929.044L448.771 929.114ZM680.594 913.231C681.424 910.74 685.223 909.361 685.223 911.499C685.223 912.4 683.986 913.655 682.537 914.203C680.947 914.821 680.188 914.415 680.594 913.231ZM677.696 908.531C677.149 907.648 677.838 906.888 679.287 906.888C680.665 906.888 681.848 907.648 681.848 908.531C681.848 909.432 681.159 910.192 680.329 910.192C679.428 910.192 678.262 909.432 677.696 908.531ZM671.212 900.669C669.551 898.955 670.117 897.294 672.59 896.322C673.845 895.845 675.293 896.393 675.771 897.63C676.672 899.98 672.944 902.4 671.212 900.598V900.669ZM637.466 895.704C637.749 891.835 638.773 890.934 644.374 889.839C647.961 889.079 651.336 887.772 651.883 886.941C653.898 883.69 667.908 878.867 670.735 880.457C674.534 882.595 674.322 886.87 670.382 886.87C668.668 886.87 666.318 887.965 665.205 889.361C662.873 892.188 658.509 892.736 658.509 890.174C658.509 889.291 657.201 888.531 655.558 888.531C651.954 888.531 645.205 893.071 645.205 895.492C645.205 896.605 646.159 896.464 647.749 895.156C649.127 893.973 650.717 893.495 651.265 893.972C652.449 895.156 642.996 900.192 639.604 900.192C637.89 900.192 637.183 898.743 637.466 895.704ZM692.202 893.213C689.922 890.934 689.498 886.87 691.583 886.87C693.226 886.87 698.545 892.382 698.545 894.114C698.545 895.916 694.34 895.351 692.202 893.213ZM677.979 877.488C673.968 873.407 681.3 870.933 685.717 874.785C687.573 876.375 688.544 876.729 687.785 875.545C686.954 874.026 687.714 873.001 690.064 872.453C691.99 871.888 693.509 870.174 693.509 868.443C693.509 866.57 695.788 864.167 698.969 862.577C701.937 860.986 707.52 857.611 711.46 854.908C715.311 852.223 721.177 848.901 724.499 847.594C730.294 845.12 730.435 845.191 729.888 848.902C729.393 852.153 728.439 852.629 724.075 852.223C719.941 851.817 718.563 852.506 717.732 855.121C717.114 856.993 717.043 859.202 717.52 860.086C718.775 861.958 703.651 870.934 699.782 870.651C698.138 870.51 696.813 871.057 696.813 871.958C696.813 875.474 680.735 880.245 677.979 877.418V877.488ZM747.75 853.743C747.344 853.053 750.648 849.732 755.136 846.428C759.694 842.983 763.775 841.04 764.323 841.941C764.871 842.842 764.659 843.601 763.828 843.601C763.069 843.601 761.426 845.386 760.171 847.665C757.963 851.817 749.199 856.092 747.75 853.743ZM462.658 851.057C461.138 847.047 464.23 844.908 470.591 845.526C474.937 845.95 476.245 846.835 476.245 849.397C476.245 853.884 464.301 855.333 462.658 851.057ZM488.047 850.916C486.457 846.693 488.4 845.244 495.503 845.244C500.821 845.244 502.058 845.81 502.058 848.354C502.058 853.389 489.849 855.598 488.047 850.916ZM438.912 850.421C437.605 849.538 437.04 847.735 437.658 846.145C439.319 841.799 451.262 843.247 451.262 847.735C451.262 851.463 443.188 853.195 438.912 850.421ZM513.648 847.947C513.648 844.838 514.761 843.795 518.418 843.248C524.761 842.347 526.97 843.248 526.97 846.834C526.97 848.849 525.309 850.156 521.793 850.845C514.072 852.364 513.648 852.223 513.648 847.947ZM531.122 848.778C528.56 846.216 530.839 842.223 535.539 841.322C541.599 840.067 543.666 841.04 543.666 845.121C543.666 847.4 542.094 848.354 537.801 848.902C534.567 849.255 531.528 849.255 531.122 848.778ZM414.954 847.4C410.06 846.145 412.269 841.11 417.923 840.633C424.142 840.138 427.94 842.418 426.562 845.951C425.59 848.495 421.244 849.043 414.954 847.4ZM555.345 841.393C555.345 838.142 556.369 837.117 560.521 836.287C568.101 834.767 568.666 834.909 568.666 838.495C568.666 842.276 567.907 842.771 560.716 844.361C555.751 845.385 555.345 845.121 555.345 841.393ZM389.706 841.322C385.696 838.424 387.693 835.244 393.488 835.244C399.424 835.315 402.816 837.594 401.579 840.898C400.325 844.149 393.841 844.361 389.706 841.252V841.322ZM786.885 840.015C787.928 838.071 790.136 836.145 791.779 835.721C793.44 835.244 795.172 833.442 795.578 831.729C796.55 828.213 797.998 827.859 801.656 830.138C804.907 832.205 799.995 837.859 791.991 841.181C784.747 844.219 784.606 844.22 786.885 840.015ZM579.144 835.933C577.766 832.276 580.663 829.997 587.094 829.661C594.815 829.308 595.787 834.148 588.472 836.692C581.423 839.113 580.398 839.043 579.144 835.933ZM365.819 835.103C362.639 833.866 362.303 833.035 363.823 830.279C365.89 826.339 365.272 826.41 371.897 828.76C375.272 829.926 377.144 831.658 377.144 833.725C377.144 837.241 372.445 837.805 365.819 835.173V835.103ZM781.85 825.314C786.814 820.897 791.161 817.929 791.514 818.742C792.609 821.71 795.03 820.138 794.694 816.746C794.058 811.781 799.659 808.406 801.938 812.329C803.793 815.65 809.253 816.198 811.037 813.3C811.726 812.258 811.037 810.473 809.518 809.36C804.836 805.985 806.426 801.287 815.189 792.665C850.861 757.947 892.205 691.002 910.491 638.352C911.321 635.931 912.364 635.718 916.162 637.096C920.774 638.757 920.774 638.758 917.187 635.648C913.601 632.609 913.601 632.609 919.113 613.563C922.152 603.139 924.926 593.068 925.262 591.265C925.686 589.198 926.993 588.103 928.778 588.439C930.368 588.651 931.622 588.103 931.622 587.202C931.622 586.23 930.65 585.4 929.413 585.4C927.54 585.4 927.682 582.431 930.226 569.18C935.332 542.484 938.177 515.487 938.371 491.547C938.583 473.526 939.06 468.914 940.933 468.914C942.24 468.914 942.788 469.869 942.241 471.388C941.339 473.597 945.209 474.922 950.386 474.092C951.075 473.95 951.622 475.399 951.622 477.183C951.622 480.505 950.173 481.194 944.52 480.646C942.788 480.434 941.622 481.477 941.622 483.12C941.622 484.922 942.523 485.54 944.113 484.922C945.615 484.374 947.7 485.611 949.343 488.226C951.764 491.83 952.382 492.094 953.636 489.815C956.799 484.162 958.248 487.749 958.248 501.141C958.248 518.81 957.011 525.576 953.902 524.321C951.145 523.296 951.004 524.533 953.495 531.3C954.732 534.675 955.014 540.541 954.255 547.661C953.071 558.28 952.806 558.775 948.584 558.845C944.114 558.898 944.113 558.898 948.106 561.937C952.046 564.976 952.046 564.976 948.318 582.308C931.887 658.564 897.24 728.83 845.967 789.908C833.334 805.014 828.776 808.459 830.508 801.904C831.055 800.049 830.72 798.601 829.818 798.601C827.327 798.601 826.161 803.423 828.158 805.773C829.536 807.434 827.257 810.615 818.635 819.167C808.14 829.591 807.044 830.28 802.892 828.69C800.419 827.718 798.405 825.863 798.405 824.414C798.405 820.615 796.337 821.304 789.447 827.453C785.295 831.11 781.373 833.106 777.91 833.177C772.733 833.389 772.733 833.389 781.85 825.314ZM942.452 532.131C943 531.23 942.717 530.47 941.834 530.47C940.933 530.47 939.696 531.23 939.131 532.131C938.583 533.085 938.866 533.844 939.75 533.844C940.651 533.844 941.905 533.085 942.452 532.131ZM755.277 828.76C754.305 827.028 754.111 825.174 754.658 824.555C755.277 823.919 756.726 825.173 757.892 827.24C759.076 829.308 760.047 830.138 760.047 828.972C760.1 827.789 761.425 826.887 763.015 826.958C765.701 826.958 765.63 827.24 762.733 829.449C758.528 832.629 757.273 832.558 755.277 828.76ZM344.211 827.717C338.558 825.244 337.939 824.201 340.359 820.402C341.596 818.406 342.692 818.407 347.056 820.191C353.186 822.682 354.158 823.989 352.851 827.576C351.596 830.756 351.19 830.756 344.211 827.717ZM603.102 828.001C601.918 824.962 604.551 822.541 610.681 821.021C615.452 819.785 618.968 823.795 615.858 826.958C612.837 829.997 604.126 830.686 603.102 828.001ZM626.901 818.619C625.452 815.845 625.946 814.962 630.363 812.682C633.19 811.163 636.565 810.402 637.89 810.879C641.812 812.399 640.505 816.675 635.328 819.378C629.109 822.541 629.056 822.541 626.901 818.619ZM320.13 817.576C315.165 814.89 314.741 813.989 317.091 810.403C318.345 808.406 319.37 808.406 323.716 810.19C330.148 812.823 331.384 814.679 328.752 817.788C326.349 820.757 325.854 820.756 320.13 817.576ZM773.563 814.061C771.426 811.711 772.326 810.261 781.92 801.215C870.19 717.91 919.607 605.152 920.579 484.709C920.703 466.352 921.463 450.894 922.223 450.346C922.982 449.798 922.841 447.784 921.816 445.929C920.844 444.056 918.495 431.776 916.639 418.595C914.767 405.415 911.18 385.875 908.565 375.257C904.219 357.447 904.077 355.591 906.498 353.029C908.636 350.679 908.707 350.414 906.622 351.51C904.625 352.552 904.554 352.411 906.215 350.538C909.59 346.951 911.604 350.538 916.021 367.517C926.71 408.719 930.791 446.689 929.413 492.997C926.569 589.623 897.311 673.121 838.582 751.939C825.048 770.154 780.948 816.957 777.574 816.816C776.673 816.816 774.871 815.58 773.563 814.061ZM922.982 421.157C922.717 419.638 921.604 418.048 920.509 417.695C919.254 417.288 918.919 418.313 919.466 420.451C920.509 424.532 923.813 425.15 922.982 421.157ZM649.675 809.096C647.413 806.887 648.721 804.184 653.403 801.427C659.481 797.841 659.693 797.841 661.83 801.834C663.35 804.608 662.873 805.491 658.65 807.646C653.208 810.473 651.336 810.739 649.675 809.096ZM297.638 805.986C293.698 803.282 292.726 799.502 295.5 797.771C298.256 796.039 307.426 801.834 306.879 804.873C306.119 808.671 302.126 809.148 297.638 805.986ZM671.071 795.703C669.834 792.24 675.488 786.939 680.399 786.939C685.435 786.939 684.269 793.141 678.597 796.039C672.467 799.219 672.467 799.219 671.071 795.703ZM275.96 792.665C272.02 789.908 271.065 786.18 273.892 784.448C276.436 782.858 285.694 789.006 285.147 791.833C284.458 795.42 280.377 795.774 275.96 792.665ZM691.301 781.144C690.682 779.625 692.273 777.346 695.365 775.138C700.135 771.745 700.612 771.675 703.244 774.307C705.788 776.852 705.718 777.275 701.866 780.314C696.884 784.166 692.538 784.519 691.301 781.144ZM254.422 777.823C250.147 774.095 249.934 773.618 252.426 771.056C254.917 768.583 255.465 768.653 259.811 772.363C262.85 775.066 264.087 777.345 263.398 779.13C261.949 782.929 259.882 782.646 254.422 777.823ZM449.46 776.091C440.573 771.603 432.976 770.862 426.491 773.812C424.212 774.855 420.273 775.137 417.781 774.519C413.435 773.476 413.718 773.194 423.099 768.512C435.043 762.505 437.605 762.434 448.011 767.752C452.57 770.031 458.506 771.886 461.209 771.886C463.965 771.886 469.902 770.031 474.39 767.752C478.93 765.473 484.248 763.6 486.192 763.6C488.188 763.6 493.506 765.473 497.994 767.752C502.464 770.031 508.401 771.886 511.174 771.886C513.931 771.886 519.867 770.031 524.355 767.752C534.284 762.717 537.253 762.646 546.988 767.134C553.472 770.155 554.02 770.791 551.122 771.886C549.338 772.575 544.09 772.787 539.461 772.363C532.694 771.674 529.673 772.363 522.977 775.897C512.888 781.268 509.726 781.268 499.372 776.091C494.885 773.812 488.948 771.886 486.192 771.886C483.418 771.886 477.482 773.812 472.994 776.091C468.524 778.37 463.206 780.244 461.209 780.244C459.266 780.244 453.948 778.37 449.46 776.091ZM711.319 766.233C710.417 764.095 713.174 760.702 718.139 757.875C719.323 757.186 721.39 757.61 722.768 758.705C724.976 760.508 724.764 761.268 721.601 764.713C717.449 769.059 712.626 769.819 711.319 766.233ZM233.927 761.056C230.482 757.399 230.27 756.569 232.408 754.431C234.475 752.293 235.376 752.487 239.652 755.879C242.903 758.494 244.139 760.632 243.38 762.505C241.931 766.445 238.486 765.88 233.927 761.056ZM398.117 756.092C389.071 751.321 381.208 750.773 375.766 754.572C372.109 757.116 363.752 756.709 363.893 754.006C363.964 751.391 379.141 745.243 385.484 745.243C389.565 745.243 395.431 746.975 400.113 749.466C409.848 754.643 411.367 754.643 421.385 749.325C431.103 744.148 440.078 744.412 453.188 750.278C461.899 754.147 461.898 754.147 470.45 749.73C481.492 743.935 490.945 743.865 501.369 749.395C505.645 751.727 510.061 753.6 511.174 753.6C512.27 753.6 516.687 751.727 521.034 749.395C525.945 746.762 531.528 745.243 536.157 745.243C540.769 745.243 546.369 746.762 551.334 749.395C555.61 751.727 560.027 753.6 561.14 753.6C562.235 753.6 566.653 751.727 570.928 749.395C580.875 744.147 593.084 743.723 598.826 748.564C602.2 751.391 602.412 752.081 600.275 753.529C598.879 754.43 596.618 754.695 595.293 754.147C588.473 751.179 582.112 751.728 574.25 755.95C564.108 761.321 558.243 761.321 548.295 756.092C544.02 753.812 538.507 751.869 536.157 751.869C533.807 751.869 528.348 753.812 524.002 756.092C519.726 758.353 513.86 760.226 511.033 760.226C508.206 760.226 502.34 758.353 497.994 756.092C493.701 753.812 488.33 751.869 486.051 751.869C483.771 751.869 478.383 753.812 474.036 756.092C469.761 758.353 463.895 760.226 461.068 760.226C458.241 760.226 452.375 758.353 448.082 756.092C443.736 753.812 438.364 751.869 436.085 751.869C433.806 751.869 428.417 753.812 424.142 756.092C419.795 758.353 414 760.226 411.102 760.226C408.258 760.226 402.392 758.353 398.117 756.092Z" fill="#22924A"/>
</svg>
