<svg width="955" height="952" viewBox="0 0 955 952" fill="none" xmlns="http://www.w3.org/2000/svg">
<path fill-rule="evenodd" clip-rule="evenodd" d="M417.824 948.588C366.116 941.633 323.358 929.758 280.363 910.375C154.955 853.885 55.2326 739.66 18.6395 610.754C9.4517 578.429 7.98964 569.854 11.072 567.621C13.3245 566.08 13.2452 565.844 10.7753 566.614C3.28679 569.005 -2.89752 481.395 1.42963 434.172C4.90716 396.887 11.9213 361.854 22.3539 330.121C25.2782 321.013 26.7406 318.781 29.2105 319.631C31.3839 320.322 31.6803 320.084 30.0601 318.938C26.8987 316.627 28.1432 311.904 37.9435 288.984C68.1941 218.446 122.531 148.441 184.197 100.664C311.009 2.32535 480.261 -26.3836 629.242 25.2656C651.688 33.0505 650.917 32.5959 648.072 35.9746C646.452 37.99 646.59 39.1558 648.764 40.9143C651.154 42.9297 651.53 42.5543 651.53 38.4445C651.53 33.9 651.846 33.7416 657.635 35.678C660.955 36.7647 673.146 42.2374 684.803 47.7896C703.871 56.8983 705.649 58.143 703.397 61.0673C701.164 63.9323 701.243 63.9325 704.167 61.68C707.032 59.4473 709.047 60.0607 720.922 67.0948C827.6 129.829 910.25 239.983 940.204 359.306C948.226 391.256 951.23 410.777 953.621 446.441C962.966 583.981 912.641 715.575 812.78 814.684C788.082 839.225 749.256 870.325 745.324 868.863C743.921 868.309 742.775 869.02 742.775 870.324C742.775 873.486 718.156 888.621 691.047 902.057C639.734 927.585 594.882 941.021 535.527 948.668C508.438 952.225 444.301 952.145 417.824 948.588ZM558.447 935.389C558.447 934.697 557.143 932.683 555.522 930.984C552.974 928.138 552.974 927.664 555.522 926.676C557.143 926.123 558.447 926.36 558.447 927.288C558.447 928.296 560.778 927.901 563.545 926.518C566.41 925.115 575.36 922.507 583.54 920.729C645.681 907.056 710.351 875.579 763.305 833.197C826.671 782.417 877.688 712.867 906.773 637.231C914.894 616.247 914.893 616.247 917.739 621.484C921.058 627.51 925.998 628.28 926.689 622.886C927.302 618.025 923.607 612.454 922.145 616.011C921.453 617.789 920.446 617.472 918.509 614.706C916.198 611.446 916.355 609.214 919.675 597.339C921.75 589.85 924.377 580.128 925.464 575.643C926.926 569.538 927.934 567.996 929.554 569.537C932.399 572.402 934.573 572.166 934.573 569.004C934.573 567.542 935.64 565.843 936.964 565.231C938.189 564.678 936.49 564.52 933.17 565.073C927.697 565.843 927.163 565.527 927.934 561.832C928.388 559.521 929.713 553.494 930.701 548.317C931.787 543.219 933.565 525.475 934.652 508.878C937.418 466.575 933.862 416.33 925.306 378.907C924.14 373.73 923.686 366.636 924.22 363.079C924.832 358.614 924.694 357.686 923.607 360.235C922.362 363.159 921.058 360.373 917.047 347.174C904.856 306.352 884.169 262.212 860.399 226.152C853.681 215.897 848.267 207.401 848.425 207.183C848.583 206.946 846.034 204.003 842.794 200.624C839.475 197.225 831.907 188.333 825.9 181.003C801.34 150.831 750.877 107.461 717.682 87.9196C711.122 84.0666 704.72 78.9687 703.397 76.657C702.093 74.2662 700.018 72.883 698.536 73.4165C696.995 73.95 696.54 73.5756 697.39 72.1924C698.239 70.7896 697.686 70.4137 695.69 71.1843C694.07 71.7968 690.356 71.263 687.51 69.8601C684.566 68.477 678.244 65.5527 673.383 63.3792C667.198 60.613 664.59 58.3612 664.59 55.7333C664.59 53.7377 665.44 52.0382 666.428 52.0382C669.589 52.0382 668.523 48.5611 664.65 46.5655C661.35 44.7872 661.192 45.0832 662.12 51.1096C663.345 58.8353 663.583 58.8348 651.154 53.3419C645.681 50.9511 632.246 46.1694 621.2 42.6919C607.231 38.3055 601.441 35.678 602.074 33.9788C602.607 32.6747 602.212 31.5885 601.363 31.5885C600.434 31.5885 599.446 32.438 599.051 33.4457C598.675 34.5917 590.554 33.5835 577.988 30.7383C524.659 18.8436 463.21 16.2948 412.272 23.9414C380.559 28.644 382.792 28.644 385.341 23.9414C386.882 21.0171 386.882 19.4763 385.341 17.8561C383.721 16.2951 383.405 16.532 384.333 18.8438C385.025 20.7801 384.096 22.8548 381.626 24.5541C379.552 26.036 378.228 27.735 378.781 28.2685C379.393 28.802 374.138 30.7388 367.123 32.5171C309.151 47.4942 254.044 72.9631 210.516 105.071C204.193 109.694 198.088 113.706 197.021 114.022C195.934 114.239 191.528 117.795 187.201 121.885C182.973 125.975 173.014 135.084 165.288 142.118C112.118 189.895 66.574 260.196 42.6462 330.972C34.7032 354.445 31.8383 364.858 26.8196 388.173C18.1851 428.461 16.7229 502.082 23.6582 546.321C25.8909 560.587 27.2145 573.944 26.6019 575.881C25.8116 578.272 26.1282 579.121 27.4322 578.271C28.598 577.58 29.9017 579.2 30.534 582.282C32.3716 590.996 40.7099 618.401 45.8077 632.133C85.6412 740.352 166.593 831.736 267.856 882.673C280.205 888.858 290.242 894.707 290.242 895.635C290.242 896.643 291.487 896.959 292.949 896.326C294.728 895.714 297.039 897.572 299.509 901.503C302.671 906.759 303.283 907.134 303.283 903.736C303.283 899.962 304.054 900.041 327.132 907.984C381.705 926.755 431.952 934.085 491.386 931.991C512.369 931.299 533.749 930.529 538.846 930.371C543.944 930.213 548.805 929.284 549.575 928.217C550.346 927.13 550.899 927.288 550.978 928.83C550.978 931.537 554.831 936.476 556.985 936.555C557.755 936.634 558.387 936.081 558.387 935.389H558.447ZM596.126 851.415C592.807 841.377 590.1 832.269 590.1 831.123C590.1 828.179 602.212 824.485 606.934 825.947C611.4 827.409 614.877 835.134 613.257 840.153C612.645 842.149 613.099 843.611 614.265 843.611C618.039 843.611 622.129 856.197 619.817 860.603C617.96 863.922 607.784 869.712 603.694 869.712C602.844 869.712 599.446 861.452 596.126 851.415ZM611.953 858.213C614.956 855.269 611.479 849.182 606.776 849.182C602.528 849.182 602.449 849.4 605.314 855.663C607.705 860.899 608.851 861.374 611.953 858.213ZM606.46 837.288C606.164 834.897 604.307 833.118 601.758 832.822C597.964 832.19 597.826 832.585 599.604 837.762C601.837 844.243 607.389 843.847 606.46 837.366V837.288ZM317.727 857.284C313.874 855.664 310.772 853.431 310.772 852.265C310.772 848.491 324.662 817.153 326.677 816.304C330.155 814.98 342.425 821.165 342.425 824.326C342.425 827.25 340.192 827.171 333 824.168C331.005 823.318 329.384 824.484 327.843 827.724C325.907 832.052 326.144 832.743 330.313 834.66C335.331 836.912 335.707 837.762 333.474 841.141C332.546 842.623 331.162 842.84 329.305 841.694C324.662 838.75 322.35 839.678 320.512 845.171C318.813 849.953 319.11 850.566 324.208 852.502C327.211 853.648 329.384 855.663 328.989 856.888C327.843 860.366 325.452 860.445 317.727 857.284ZM627.306 859.754C627.306 859.438 625.686 850.032 623.67 838.907C620.054 818.773 620.588 814.447 626.377 816.304C629.538 817.292 651.688 849.261 650.542 851.099C648.843 853.964 645.899 853.194 642.5 849.104C638.035 843.552 632.166 846.08 633.55 853.035C634.32 856.671 633.787 858.508 631.771 859.279C628.531 860.524 627.306 860.683 627.306 859.754ZM634.715 839.461C634.715 838.137 633.392 835.431 631.929 833.514C629.005 829.642 628.531 830.807 630.388 837.604C631.554 841.99 634.794 843.393 634.715 839.461ZM293.107 845.546C292.495 844.539 295.498 836.912 299.667 828.495C306.385 815.217 306.998 812.984 304.449 811.581C301.129 809.744 300.359 804.488 303.362 804.488C304.449 804.488 309.467 806.563 314.486 809.191C320.888 812.431 323.358 814.684 322.587 816.601C321.975 818.379 320.118 818.991 317.49 818.378C314.012 817.449 312.55 819.307 306.148 832.348C299.351 846.318 295.814 849.873 293.107 845.546ZM651.53 830.569C645.365 818.22 643.35 815.83 639.951 816.146C637.561 816.442 635.644 815.454 635.328 813.834C634.557 809.961 653.466 801.564 655.481 804.805C656.252 806.109 655.482 808.045 653.703 809.349C650.838 811.443 651.234 812.905 657.556 825.788C665.203 841.14 666.132 845.468 661.804 845.468C660.184 845.468 655.857 839.224 651.53 830.569ZM276.055 835.214C275.344 833.435 275.66 827.487 276.668 822.014C277.676 816.442 278.288 811.977 277.972 811.977C277.676 811.977 275.206 816.146 272.42 821.243C267.243 830.807 264.853 832.506 263.074 827.962C262.067 825.413 280.284 791.448 282.675 791.448C286.39 791.448 287.772 795.913 286.389 803.184C283.92 815.909 284.532 817.075 289.63 808.736C294.036 801.327 298.126 798.858 300.201 802.177C301.288 803.955 281.766 836.834 279.138 837.683C278.051 838.059 276.668 836.913 276.055 835.214ZM673.225 829.799C670.913 827.25 666.665 820.552 663.741 814.822C657.793 802.947 658.722 796.921 667.357 792.989C674.845 789.59 679.864 793.384 687.51 807.887C695.611 823.319 695.69 823.852 689.822 829.72C684.033 835.51 678.56 835.509 673.225 829.799ZM686.108 824.326C687.511 820.848 674.391 798.937 670.913 798.937C666.981 798.937 665.815 803.481 668.443 808.578C677.315 825.176 683.638 830.886 686.108 824.326ZM247.88 819.702L240.075 814.526L250.507 798.857C256.297 790.124 261.691 782.339 262.541 781.41C264.161 779.632 279.138 788.444 279.138 791.21C279.138 794.687 276.352 795.004 271.946 792.139C267.481 789.214 267.085 789.274 263.924 793.305C260.604 797.316 260.604 797.533 264.694 800.853C268.014 803.56 268.409 804.725 266.552 806.642C264.694 808.42 263.706 808.499 262.007 806.721C258.608 803.323 255.289 804.034 252.819 808.578C251.041 811.977 251.278 813.143 254.657 815.83C256.831 817.608 258.609 819.92 258.609 821.007C258.609 825.018 255.289 824.564 247.88 819.624V819.702ZM444.835 812.668C351.06 801.089 274.969 760.486 216.779 690.797C191.231 660.23 167.916 620.417 170.07 611.071C170.841 607.831 170.623 607.059 169.536 608.68C167.442 611.841 166.672 610.754 160.882 595.244C134.643 525.634 133.022 441.739 156.496 371.872C192.852 263.674 281.212 180.47 391.209 150.99C433.117 139.786 493.085 137.238 534.223 144.963C634.715 163.714 717.919 221.291 768.323 306.964C814.539 385.466 826.829 483.252 801.419 570.783C765.459 694.591 662.97 785.816 533.294 809.191C517.171 812.135 459.041 814.446 444.835 812.668ZM534.914 800.556C550.346 797.77 555.76 797.474 557.676 799.095C559.613 800.636 560.304 800.715 560.304 799.154C560.304 798.008 561.47 797.078 562.932 797.078C564.394 797.078 565.856 796.388 566.172 795.538C566.568 794.768 574.748 791.29 584.469 787.891C681.484 753.709 754.967 680.306 788.616 583.903C808.532 526.781 811.536 455.076 796.559 395.958C780.969 334.449 743.467 273.078 695.927 231.328C634.241 177.15 560.086 149.053 478.582 149.053C449.319 148.974 415.987 152.373 402.393 156.7C397.986 158.083 395.595 158.083 393.679 156.542C391.743 154.922 390.735 155.08 389.589 157.155C388.739 158.696 380.322 162.568 370.976 165.651C285.994 194.123 213.223 260.433 176.551 342.708C165.447 367.723 161.514 379.36 155.033 406.924C150.015 428.303 149.778 431.306 149.778 475.842C149.699 528.479 151.635 541.678 165.525 583.448C194.926 671.572 267.638 747.919 355.466 782.714C382.259 793.305 423.93 802.947 453.173 805.18C471.39 806.642 514.918 804.172 534.914 800.556ZM436.437 794.214C398.54 789.215 370.976 780.798 335.865 763.43C250.033 721.048 187.141 642.862 165.604 551.874C155.863 510.973 154.322 460.173 161.514 420.577C176.254 338.855 222.944 265.747 291.784 216.667C368.507 161.876 465.759 143.877 557.301 167.587C682.097 199.992 774.883 302.874 794.089 430.239C797.804 454.858 798.021 504.788 794.484 504.709H791.164C790.157 504.709 789.307 503.247 789.307 501.469C789.307 499.394 784.447 503.089 775.338 512.119C767.691 519.765 761.368 526.859 761.368 527.946C761.289 530.574 776.958 560.508 778.42 560.508C781.74 560.587 781.581 548.317 778.203 540.533C773.263 529.566 773.263 529.645 781.898 520.299C785.988 515.833 789.307 510.973 789.307 509.412C789.307 507.654 790.394 507.1 792.311 507.792C796.48 509.412 794.642 527.254 787.45 555.885C760.973 660.704 680.793 746.753 578.364 780.402C564.631 784.966 559.533 785.896 557.992 784.276C556.767 783.11 554.989 782.181 553.902 782.181C552.815 782.181 553.132 782.952 554.673 783.96C558.921 786.667 549.575 789.432 522.11 793.443C494.389 797.533 463.98 797.771 436.437 794.155V794.214ZM208.975 411.864C210.911 409.769 212.136 407.378 211.84 406.528C209.508 401.292 186.746 365.016 185.66 365.016C184.968 365.016 183.822 366.795 183.111 369.027C182.261 371.734 184.593 378.59 190.757 391.492L199.629 410.006L182.577 427.137C170.762 438.953 165.525 445.592 165.525 448.595C165.525 452.31 168.608 450.077 185.502 434.33C196.547 424.134 207.118 414.017 208.975 411.864ZM444.835 429.232C444.835 428.066 442.76 426.149 440.211 424.983C435.805 422.968 435.508 423.126 435.508 427.908C435.508 430.694 434.955 435.1 434.343 437.648C433.117 442.272 433.117 442.272 438.986 436.878C442.226 433.855 444.835 430.378 444.835 429.232ZM193.069 410.48C193.385 410.322 190.52 403.604 186.746 395.503C179.791 380.842 179.791 380.843 177.322 386.849C175.168 392.105 175.247 393.963 177.954 400.681C181.036 408.386 181.036 408.387 175.168 413.642C170.999 417.416 168.924 421.269 168.074 426.92C166.829 434.863 166.829 434.862 179.653 422.829C186.746 416.19 192.773 410.619 193.069 410.48ZM786.462 426.92C785.671 422.968 782.747 417.337 779.428 413.859C774.113 408.228 773.876 407.458 775.95 401.668C778.578 394.338 778.815 387.481 776.424 383.687C774.33 380.368 774.883 379.677 766.466 395.741L759.669 408.781L772.176 421.21C779.052 427.987 785.375 433.618 786.225 433.776C786.995 433.855 787.074 430.773 786.383 426.92H786.462ZM446.692 389.239C446.692 357.527 446.474 355.67 443.155 355.67C439.973 355.67 439.519 357.685 438.433 373.887C437.82 383.846 436.891 397.973 436.279 405.145C435.35 417.573 435.508 418.424 439.598 420.439C441.989 421.585 444.538 422.593 445.308 422.593C446.079 422.672 446.692 407.694 446.692 389.239ZM721.456 417.258C720.844 416.27 717.603 413.72 714.363 411.468C708.336 407.536 708.336 407.536 714.836 413.167C721.693 419.273 723.234 420.123 721.396 417.258H721.456ZM245.568 407.161C245.568 406.154 243.098 407.695 239.996 410.619C236.914 413.563 234.444 416.27 234.444 416.645C234.444 416.961 236.914 415.42 239.996 413.167C243.098 410.855 245.568 408.149 245.568 407.161ZM432.426 404.612C433.038 398.744 433.888 385.071 434.422 374.342L435.271 354.741L433.414 372.504C431.102 394.812 428.474 401.827 427.941 387.403C427.624 378.511 427.407 379.44 426.004 393.884C424.305 412.101 424.779 415.342 428.711 415.342C430.569 415.342 431.655 412.022 432.426 404.612ZM722.009 398.665C721.614 397.737 711.972 389.319 700.393 379.993C679.469 363.001 679.469 363.001 677.631 367.861C675.003 374.737 674.845 374.579 685.732 382.383C691.205 386.236 700.551 393.487 706.577 398.506C717.069 407.081 717.682 407.379 720.073 403.921C721.456 401.906 722.305 399.594 722.009 398.665ZM249.875 396.195C256.435 390.861 265.702 383.767 270.326 380.526C278.585 374.816 278.822 374.342 276.747 368.948C275.502 365.549 273.882 363.929 272.657 364.779C271.649 365.628 261.928 373.275 251.199 381.752C240.47 390.327 231.362 397.499 231.045 397.815C229.899 398.586 234.523 405.995 236.222 405.995C237.072 405.995 243.237 401.59 249.875 396.195ZM233.91 388.706C235.688 387.402 234.681 384.162 229.583 375.132C225.948 368.572 223.478 362.466 224.031 361.459C224.643 360.53 231.441 359.147 239.146 358.456C254.44 356.994 255.131 356.599 252.977 350.888C251.574 347.114 251.278 347.035 228.734 349.505C216.147 350.888 205.497 352.35 205.122 352.745C203.502 354.366 227.568 392.796 229.583 391.709C230.749 391.018 232.665 389.714 233.91 388.706ZM727.877 391.492C727.877 390.643 732.817 381.613 738.903 371.418C744.929 361.222 749.632 352.746 749.414 352.43C749.177 352.192 738.369 350.889 725.407 349.585C703.179 347.253 701.776 347.331 700.788 350.493C699.089 355.907 701.085 357.053 714.205 358.456C732.264 360.372 732.185 360.373 727.64 369.402C725.487 373.65 722.088 379.36 720.152 382.146C716.674 387.086 716.674 387.165 720.843 390.01C725.408 393.27 727.877 393.725 727.877 391.492ZM250.27 375.745C258.213 369.876 260.683 364.62 256.751 362.229C253.827 360.451 236.301 375.903 237.526 379.065C239.008 382.997 241.083 382.463 250.27 375.745ZM716.22 378.056C716.457 376.515 712.9 372.346 708.277 368.71C697.923 360.688 696.995 360.373 695.374 364.463C694.446 366.933 696.145 369.639 702.171 374.816C710.351 381.909 715.37 383.075 716.22 378.056ZM429.403 359.917C428.948 357.131 428.632 358.99 428.632 364.088C428.632 369.264 428.948 371.575 429.403 369.264C429.877 366.932 429.877 362.782 429.403 359.917ZM239.699 366.636C244.639 362.625 244.639 362.624 239.996 363.77C237.447 364.462 234.286 365.016 233.061 365.016C231.816 365.016 231.282 366.319 231.895 367.782C233.278 371.496 233.831 371.338 239.699 366.636ZM290.025 367.169C294.411 363.77 294.411 363.77 285.856 340.001C281.133 326.96 277.735 315.461 278.288 314.611C279.513 312.675 270.325 312.537 265.939 314.453C262.916 315.777 262.857 315.54 281.904 368.335C282.991 371.496 284.769 371.18 290.025 367.169ZM675.379 358.989C677.473 352.587 681.8 340.318 684.883 331.584C690.988 314.612 690.672 312.991 680.871 312.912C677.078 312.912 675.774 313.841 675.774 316.469C675.774 318.385 672.059 329.746 667.594 341.542C659.414 363.158 659.414 363.159 664.353 366.873C667.06 368.869 669.747 370.567 670.379 370.567C670.992 370.567 673.225 365.391 675.379 358.989ZM723.017 367.861C723.708 365.945 722.859 365.095 720.547 365.095C718.61 365.095 715.528 364.541 713.592 363.928C710.964 363.158 711.201 363.771 714.599 366.794C719.836 371.338 721.535 371.576 723.017 367.861ZM500.336 365.549C499.961 363.475 497.333 361.934 493.006 361.222C489.37 360.61 483.206 358.298 479.412 356.065C467.3 348.952 462.439 351.58 473.642 359.226C486.209 367.723 501.502 371.339 500.336 365.549ZM269.95 360.235C272.025 357.765 271.729 355.216 268.014 344.329C262.995 329.589 262.778 329.351 256.435 331.13C251.733 332.434 251.733 332.434 257.443 347.806C263.232 363.395 265.465 365.55 269.95 360.235ZM696.461 347.41C702.013 332.137 701.638 328.896 694.446 329.963C691.284 330.517 689.506 333.362 686.048 343.637C682.017 355.591 681.879 356.915 684.646 359.997C689.131 365.016 690.672 363.395 696.461 347.41ZM500.652 342.234C500.652 326.882 500.653 326.881 496.859 332.829C494.705 336.148 489.291 341.246 484.747 344.249C478.345 348.498 477.021 350.197 478.958 351.738C482.731 354.821 490.003 357.369 495.634 357.527C500.731 357.606 500.731 357.606 500.731 342.234H500.652ZM472.161 346.561C476.409 344.645 480.894 341.325 482.04 339.152C483.127 336.998 484.984 335.299 485.991 335.299C487.058 335.299 487.296 336.306 486.604 337.61C485.833 338.855 487.908 337.453 491.149 334.45C497.551 328.423 500.811 319.789 499.408 312.379C498.479 307.657 498.479 307.656 491.919 312.142C487.375 315.224 482.672 316.627 477.1 316.627C470.007 316.627 467.913 315.698 461.432 309.059C456.275 303.803 453.034 301.808 450.861 302.658C449.082 303.27 438.907 305.048 428.178 306.589C417.449 308.051 408.103 310.205 407.49 311.291C406.562 312.674 404.941 312.596 401.938 311.055C399.152 309.514 394.45 309.218 388.186 310.067C383.029 310.759 373.841 311.213 367.815 311.055C355.011 310.838 355.012 309.513 367.499 332.433L375.619 347.332L392.513 346.799L409.426 346.186L389.668 333.145C378.86 326.032 370.364 319.709 370.897 319.176C371.53 318.623 379.927 322.949 389.728 328.818C423.08 348.734 453.173 355.216 472.161 346.561ZM432.426 338.143C423.001 333.757 405.712 319.71 405.712 316.39C405.712 315.461 410.573 318.623 416.362 323.404C428.553 333.283 439.519 338.855 447.62 339.072C452.481 339.23 452.718 339.468 449.478 340.851C443.925 343.242 442.917 343.083 432.426 338.143ZM454.338 338.223C454.793 337.769 459.653 335.674 465.225 333.441C470.698 331.288 477.575 327.889 480.341 325.874C487.059 321.092 489.153 321.25 484.668 326.19C480.262 331.13 464.06 338.935 458.033 338.935C455.563 338.935 453.884 338.618 454.338 338.223ZM460.206 330.201C455.721 329.351 435.508 311.904 435.508 308.821C435.508 307.814 439.895 310.916 445.229 315.698C450.485 320.48 457.183 325.578 460.127 327.04C462.973 328.581 465.304 330.201 465.304 330.675C465.304 331.129 465.146 331.446 464.909 331.288C464.593 331.209 462.518 330.675 460.206 330.201ZM547.184 343.399C552.816 340.85 563.09 334.904 570.026 330.201C587.176 318.464 588.026 321.171 571.112 333.52C563.624 338.934 556.688 344.091 555.759 344.94C554.752 345.711 560.699 346.403 568.879 346.403H583.777L591.562 330.734C595.89 322.099 599.446 314.156 599.446 312.991C599.446 311.904 595.119 311.055 589.172 311.055C579.371 311.055 578.521 311.45 568.267 321.092C554.139 334.37 548.963 338.301 537.384 344.94C526.497 351.125 531.911 350.275 547.263 343.399H547.184ZM364.417 335.299C361.018 329.114 357.56 324.116 356.71 324.116C355.307 324.116 358.094 329.352 366.274 342.234C371.589 350.572 370.364 346.186 364.417 335.299ZM547.184 333.995C550.82 331.288 558.308 325.261 563.782 320.638C572.495 313.307 573.345 311.984 570.341 310.838C561.924 307.518 555.285 309.059 550.504 315.224C543.173 324.945 533.748 333.442 529.125 334.608C525.193 335.615 523.414 340.613 526.121 343.241C527.742 344.861 539.32 339.765 547.184 333.995ZM597.589 332.355C599.821 328.739 601.224 325.262 600.671 324.728C600.138 324.175 597.905 327.198 595.81 331.367C591.029 340.772 592.116 341.325 597.589 332.355ZM539.478 323.107C551.59 310.976 551.037 309.356 534.144 307.814C522.565 306.747 522.486 306.826 523.652 311.213C524.343 313.683 524.877 319.71 524.877 324.57C524.877 329.964 525.726 333.362 527.05 333.362C528.275 333.362 533.827 328.739 539.478 323.107ZM235.906 327.573C260.683 325.182 260.683 325.182 259.537 320.48C257.917 314.236 259.221 314.532 243.553 316.469C235.985 317.476 224.328 318.78 217.61 319.393C206.584 320.48 205.201 321.093 202.257 326.269C198.937 331.98 198.937 331.979 205.043 330.892C208.441 330.358 222.332 328.818 235.906 327.573ZM751.173 325.952C749.553 322.87 747.715 320.322 746.944 320.322C743.309 320.243 709.344 316.548 703.397 315.62C697.232 314.612 696.461 315.007 694.92 319.789C693.142 325.025 693.141 325.024 722.167 328.047C738.132 329.746 751.805 331.209 752.655 331.288C753.425 331.446 752.793 329.054 751.173 325.952ZM355.011 319.551C358.093 316.469 342.504 307.281 334.166 307.281C331.222 307.281 331.696 308.289 336.873 312.912C342.958 318.385 341.951 320.322 334.857 316.548C331.854 314.928 331.222 315.224 331.222 318.622C331.222 322.475 331.854 322.634 342.88 321.33C349.301 320.638 354.774 319.788 355.011 319.551ZM243.711 526.484C243.711 526.168 241.004 524.014 237.684 521.702C231.599 517.454 231.599 517.454 236.835 522.235C241.695 526.701 243.711 527.946 243.711 526.484ZM525.351 501.628L523.573 481.394L523.336 501.311C523.178 512.198 522.486 522.69 521.873 524.547C520.708 527.709 520.866 527.788 523.869 524.943C526.813 522.236 526.971 519.924 525.351 501.706V501.628ZM726.02 514.668C726.02 514.135 722.701 516.367 718.611 519.608C714.521 522.848 711.122 525.93 711.122 526.405C711.122 526.938 714.521 524.705 718.611 521.465C722.701 518.224 726.02 515.122 726.02 514.668ZM519.167 503.327C519.008 497.459 518.396 490.741 517.783 488.508C516.539 484.339 516.538 484.338 510.532 488.191C505.434 491.352 504.427 493.21 504.427 498.841C504.506 504.413 505.592 506.409 510.532 509.728C519.008 515.439 519.325 515.202 519.167 503.327ZM500.336 435.791C500.574 384.616 500.178 372.504 498.262 372.504C491.544 372.504 476.112 366.24 468.545 360.372C447.936 344.644 454.793 363.238 479.037 388.786C486.13 396.196 490.852 402.3 489.686 402.3C485.913 402.3 467.458 383.608 459.654 371.951C450.248 357.843 450.327 361.696 459.891 384.695C471.548 412.713 479.728 427.907 488.066 436.878C492.235 441.422 494.547 445.138 493.243 445.138C485.912 445.138 469.691 419.964 457.895 390.168C454.654 381.988 451.552 374.895 450.94 374.342C450.406 373.888 450.406 378.59 450.94 385.011C452.481 402.676 472.477 448.377 489.074 471.831C495.93 481.552 496.325 484.576 490.002 478.629C480.578 469.836 472.082 454.937 460.661 426.998L452.876 407.852L451.631 419.431C450.624 429.31 449.477 431.998 443.925 437.728C438.136 443.577 437.425 445.433 437.425 454.167C437.425 463.967 437.425 463.967 447.462 468.354C452.955 470.824 462.36 476.85 468.387 481.79C478.641 490.207 493.618 498.92 498.025 499.078C499.329 499.078 500.099 478.47 500.336 435.791ZM510.986 483.093C516.934 479.161 516.855 475.309 510.828 472.997C504.269 470.527 504.427 470.29 504.427 478.629C504.427 487.046 504.664 487.183 511.065 483.093H510.986ZM526.576 474.222C528.196 472.226 528.038 461.181 525.963 429.073C524.422 405.619 522.644 368.869 521.952 347.332C520.945 315.007 520.253 307.815 517.862 305.898C513.456 302.421 510.374 303.111 509.445 307.735C508.675 311.983 508.674 311.983 507.291 307.735C506.521 305.502 504.822 303.566 503.577 303.566C501.878 303.566 501.72 306.273 502.885 314.295C503.735 320.164 504.348 356.757 504.19 395.583C503.893 466.121 503.893 466.121 509.979 468.67C513.298 470.053 516.4 471.219 516.776 471.219C518.02 471.219 517.546 445.276 515.689 414.413C512.37 357.054 511.461 319.314 513.456 321.25C515.314 323.029 521.182 431.148 521.182 462.564C521.182 476.612 522.407 479.241 526.576 474.222ZM771.564 427.533L753.504 410.619L762.989 391.631C771.327 375.132 772.334 371.951 770.635 367.564C768.778 362.704 768.323 363.238 754.809 384.933L740.918 407.24L764.688 430.852C786.837 452.843 788.458 454.009 789.07 449.366C789.623 445.137 786.995 441.818 771.564 427.533ZM259.379 613.382C260.071 611.683 260.387 610.062 260.071 609.825C259.458 609.213 192.693 605.736 192.002 606.289C191.686 606.507 192.456 608.837 193.701 611.525C195.934 616.385 195.934 616.386 227.034 616.386C254.282 616.386 258.371 616.01 259.379 613.382ZM282.615 596.864C285.935 586.135 289.175 577.342 289.946 577.342C290.637 577.342 291.25 575.406 291.329 573.094C291.329 570.782 291.942 567.226 292.712 565.151C293.72 562.207 292.791 560.587 288.405 558.038C281.825 554.185 282.062 553.869 275.344 577.342C273.191 584.989 269.792 596.251 267.796 602.357C263.153 616.623 263.153 616.386 270.405 616.386C276.51 616.386 276.51 616.385 282.615 596.864ZM298.66 613.145C295.419 605.598 296.031 601.271 303.224 579.279C307.373 566.535 310.772 555.43 310.772 554.64C310.772 553.81 299.964 547.705 286.765 541.145C265.544 530.495 262.304 528.182 258.135 521.069C254.519 514.984 246.339 507.95 223.478 491.669C206.96 479.853 193.543 469.361 193.543 468.354C193.543 467.366 207.275 456.479 224.11 444.209C252.819 423.126 254.894 421.21 259.221 411.39C263.548 401.589 265.327 399.969 286.844 385.466C299.509 376.97 310.159 369.718 310.554 369.402C311.008 369.106 307.452 357.844 302.75 344.329C294.174 319.868 294.174 319.867 297.81 312.754C300.201 307.973 301.05 303.803 300.28 299.95C298.818 292.699 302.67 292.225 305.377 299.417C306.919 303.507 306.603 306.036 303.52 312.299C299.825 320.084 299.825 320.085 308.084 343.558C312.629 356.52 316.343 368.098 316.343 369.481C316.343 370.805 305.614 379.144 292.495 388.015C270.266 403.071 268.251 404.908 263.469 414.866C258.688 424.667 256.06 427.216 230.354 446.046C215.001 457.328 202.099 467.05 201.644 467.741C201.249 468.433 213.678 478.154 229.267 489.437C249.796 504.177 258.826 511.881 261.77 517.058C265.327 523.322 269.1 525.931 289.709 536.205C302.829 542.765 314.486 548.791 315.632 549.7C317.114 550.787 315.336 559.046 309.309 578.113C296.269 619.488 291.408 616.386 370.601 616.386H435.508V600.737C435.508 592.162 436.437 559.896 437.504 529.112C439.44 474.143 439.44 473.076 435.666 467.979C432.643 463.81 431.655 458.711 430.647 442.035C429.482 422.355 429.185 421.131 424.779 418.74C419.681 416.033 419.761 416.645 423.614 369.639L424.858 354.662L413.734 352.43C406.72 350.967 396.603 350.572 385.795 351.343C368.902 352.509 368.902 352.508 363.567 345.178C360.643 341.088 356.632 334.765 354.695 331.13C351.139 324.491 351.138 324.49 336.102 325.34C323.595 326.031 319.88 325.577 314.486 322.554C306.069 317.93 305.911 312.754 314.012 310.6C317.411 309.751 320.117 308.289 320.117 307.439C320.117 304.12 337.861 303.19 344.816 306.036C348.451 307.597 351.771 308.585 352.067 308.21C352.462 307.894 364.89 307.123 379.709 306.589C405.949 305.661 423.614 303.803 445.071 299.634C455.504 297.56 455.504 297.559 457.737 281.495C460.661 261.045 462.755 255.651 469.236 252.253C475.875 248.854 480.894 248.855 487.612 252.332C494.172 255.731 494.863 257.43 498.716 280.271C502.194 301.255 498.183 298.567 533.294 303.507C545.801 305.186 601.066 308.288 606.855 307.518C627.306 304.969 633.253 305.266 641.354 309.139C650.68 313.683 651.609 316.231 645.741 321.408C642.5 324.412 639.043 324.946 623.591 324.886C605.315 324.886 605.314 324.885 601.224 333.52C598.972 338.301 594.961 344.566 592.412 347.332C587.788 352.351 587.255 352.43 572.574 351.343C558.526 350.276 531.219 354.444 527.426 358.218C526.813 358.831 527.742 384.933 529.52 416.27C531.99 459.799 532.286 473.768 530.587 475.763C529.046 477.621 528.75 485.108 529.659 502.239C530.982 526.088 530.982 526.089 526.2 530.495C521.399 534.882 521.399 534.881 522.328 567.779C522.881 585.839 523.652 604.116 524.185 608.522L525.193 616.386H586.465C647.756 616.386 647.756 616.385 650.68 610.754C653.466 605.36 653.229 604.037 644.831 578.193C639.951 563.374 636.415 550.945 636.79 550.549C637.264 550.174 648.605 544.305 662.12 537.588C682.867 527.175 687.432 524.093 691.897 517.454C695.296 512.435 707.19 502.398 725.407 489.041L753.564 468.432L724.479 446.757C698.16 427.216 694.841 424.055 690.356 414.788C685.811 405.462 683.262 403.15 661.488 388.252C648.369 379.281 637.264 371.654 636.869 371.338C636.494 371.042 640.267 359.306 645.128 345.258C654.158 319.71 654.158 319.709 650.226 312.675C646.373 305.581 646.373 305.582 650.226 295.248C652.3 289.538 653.466 284.361 652.854 283.67C652.162 283.037 642.204 281.732 630.625 280.725C619.126 279.717 609.483 278.809 609.246 278.572C609.009 278.335 607.843 264.76 606.697 248.459C605.532 232.178 604.386 218.604 604.07 218.288C603.832 217.912 584.706 225.697 561.628 235.497C538.629 245.297 518.633 253.261 517.25 253.261C515.847 253.261 512.448 249.703 509.682 245.376C506.975 240.97 498.4 228.404 490.852 217.359L476.942 197.225L457.974 225.381C441.376 249.941 438.432 253.478 434.816 252.549C432.564 252.016 412.884 243.993 390.972 234.726C369.119 225.46 350.842 218.209 350.368 218.683C349.993 219.138 348.827 231.881 347.819 247.076C346.831 262.29 345.666 275.628 345.27 276.873C344.816 278.098 337.94 279.5 328.14 280.192C319.11 280.883 308.776 282.049 305.219 282.819C297.652 284.519 294.036 283.749 294.036 280.429C294.036 278.809 300.754 277.406 316.64 276.023C329.068 274.857 339.639 273.474 340.113 273.02C340.884 272.249 343.966 229.174 344.203 215.58C344.282 212.735 345.132 210.503 346.12 210.503C347.128 210.503 367.439 218.821 391.288 229.096C415.058 239.35 435.034 247.688 435.666 247.688C436.358 247.688 445.842 234.194 456.808 217.755C467.774 201.237 477.021 188.037 477.337 188.412C477.733 188.728 486.13 201.237 496.088 216.056C506.126 230.875 515.314 244.151 516.46 245.376C518.238 247.313 527.663 243.993 563.011 229.016C587.393 218.682 608.002 210.878 608.851 211.727C609.622 212.577 610.946 226.784 611.637 243.302L612.941 273.395L622.524 274.481C627.76 275.015 638.489 276.022 646.452 276.714C655.402 277.484 660.876 278.73 660.718 280.034C660.5 284.045 657.951 288.905 656.173 288.688C655.244 288.53 654.158 289.379 653.703 290.604C653.308 291.928 653.861 292.383 654.928 291.692C656.865 290.447 654.77 300.958 652.617 303.111C652.162 303.645 653.466 307.36 655.56 311.529C660.026 320.242 659.947 320.48 650.068 347.727L642.5 368.573L651.233 374.736C656.015 378.135 666.902 385.465 675.319 391.097C688.972 400.126 691.126 402.36 694.762 411.172C698.615 420.36 700.926 422.592 730.268 444.504C750.639 459.719 761.052 468.591 759.906 469.756C758.898 470.744 745.245 480.94 729.497 492.439C711.043 505.954 699.089 516.13 695.611 521.227C691.126 527.787 686.582 530.95 666.131 541.145C651.609 548.476 642.283 554.185 642.737 555.489C643.212 556.734 647.144 568.55 651.53 581.669C658.248 602.041 659.177 606.29 657.319 610.301C656.173 612.928 655.561 615.477 656.094 615.931C657.793 617.709 670.221 614.39 670.221 612.236C670.221 609.529 663.82 588.309 657.793 570.941C652.854 556.893 652.854 556.893 664.116 552.724C667.91 551.341 670.221 549.246 670.221 547.171C670.221 543.615 673.225 542.528 674.233 545.689C675.379 549.088 699.86 534.664 702.863 528.796C704.562 525.556 720.231 512.435 741.926 496.213C761.902 481.256 778.203 468.748 778.203 468.432C778.203 468.057 761.902 455.471 742.064 440.415C718.532 422.672 705.175 411.331 703.792 407.932C699.939 398.744 676.09 379.222 670.992 381.139C669.372 381.751 668.364 381.06 668.364 379.223C668.364 377.602 664.966 374.045 660.876 371.338C656.786 368.631 653.466 366.162 653.466 365.945C653.466 365.629 657.181 355.057 661.804 342.392C671.368 315.916 671.229 317.081 666.586 311.055C663.346 306.886 663.346 306.036 665.815 301.176C667.752 297.402 667.969 295.169 666.586 293.469C664.274 290.683 665.815 288.688 670.3 288.688C672.059 288.688 673.996 287.443 674.608 285.902C675.458 283.59 675.003 283.512 672.059 285.369C666.744 288.688 665.973 286.278 669.451 277.643C671.15 273.316 672.217 269.621 671.842 269.226C671.447 268.929 660.639 267.922 647.835 266.993L624.599 265.373L622.524 249.545C621.358 240.832 619.58 225.935 618.573 216.431C617.585 206.946 616.261 198.687 615.727 198.213C615.253 197.68 609.859 199.458 603.833 202.244C585.852 210.503 524.343 236.505 522.881 236.505C522.11 236.505 511.678 222.22 499.724 204.852C487.75 187.425 477.416 173.219 476.804 173.298C476.112 173.298 465.996 187.563 454.18 204.93C442.444 222.298 431.872 236.505 430.805 236.505C429.64 236.505 417.054 231.408 402.847 225.164C350.921 202.462 338.335 197.146 337.801 197.758C337.406 198.075 336.161 208.408 335.015 220.678C333.85 232.948 332.309 248.083 331.617 254.169L330.392 265.373L305.911 267.23L281.529 269.068L284.156 276.556C285.619 280.646 286.547 286.514 286.31 289.675C285.994 292.778 286.923 297.935 288.247 301.176C290.479 306.51 290.322 307.597 286.844 311.984C282.991 316.844 282.991 316.844 289.235 333.915C292.712 343.321 296.427 353.358 297.573 356.283C300.754 364.403 300.122 366.399 292.633 371.497C288.78 374.046 285.619 377.207 285.619 378.511C285.619 379.756 284.374 380.842 282.754 380.842C275.265 380.981 251.199 400.68 251.199 406.686C251.199 410.164 243.948 416.408 208.738 442.805C190.995 456.162 176.63 467.82 176.867 468.67C177.262 470.211 238.218 516.525 244.244 519.766C246.022 520.773 249.105 524.705 251.041 528.558C255.289 536.739 276.273 548.712 280.521 545.235C282.675 543.456 283.603 544.464 283.07 547.942C282.991 548.713 286.626 551.183 291.25 553.494C295.874 555.727 299.588 558.434 299.588 559.521C299.588 560.588 295.873 572.778 291.408 586.609C282.457 614.232 282.675 616.386 294.569 616.386C299.055 616.386 299.746 615.773 298.66 613.145ZM317.49 471.752C318.181 468.907 319.505 464.501 320.433 462.031C321.817 458.257 321.125 456.775 315.948 452.309C312.55 449.444 309.23 447.054 308.46 447.054C307.689 446.975 307.077 446.125 307.077 445.138C307.077 444.051 311.542 443.201 317.035 443.201C327.072 443.201 327.072 443.201 329.384 434.863C330.688 430.239 332.309 426.445 333 426.445C333.633 426.445 335.47 430.002 337.09 434.408C339.955 442.272 339.955 442.272 350.921 443.201L361.868 444.209L353.846 450.532C347.819 455.234 346.041 457.783 346.752 460.727C347.206 462.881 348.293 467.503 349.064 471.06L350.447 477.383L333.474 465.192L324.82 471.14C316.265 477.008 316.265 477.008 317.49 471.752ZM603.141 476.317C603.141 475.764 604.386 471.831 605.927 467.425C609.622 456.854 609.78 457.249 601.284 451.301C597.194 448.377 593.874 445.433 593.874 444.662C593.815 443.892 598.359 443.28 603.912 443.28C614.028 443.28 614.028 443.28 617.11 433.934C618.81 428.836 620.509 424.588 620.825 424.588C621.121 424.588 622.821 428.836 624.52 433.934C627.602 443.28 627.602 443.28 637.719 443.28C643.271 443.28 647.835 443.892 647.756 444.662C647.677 445.433 644.357 448.298 640.346 451.143C632.087 456.775 631.771 458.098 635.644 469.045C637.106 473.293 637.956 476.77 637.482 476.77C637.027 476.77 633.174 474.222 628.926 471.14C620.43 465.034 622.366 464.737 607.784 474.142C605.235 475.842 603.141 476.771 603.141 476.317ZM443.688 601.033C445.546 573.568 446.613 473.214 445.071 472.226C444.222 471.752 442.997 494.533 442.305 522.926C441.594 551.339 440.527 583.982 439.895 595.482C439.065 609.688 439.282 616.386 440.685 616.386C441.831 616.386 443.076 609.983 443.688 601.033ZM452.323 599.038C452.323 589.455 452.876 557.663 453.568 528.262C454.417 491.432 454.18 474.913 452.797 474.913C450.94 474.913 449.932 497.992 448.015 587.064C447.462 610.675 447.779 616.386 449.774 616.386C451.711 616.386 452.323 612.296 452.323 599.038ZM460.443 610.616C462.439 600.658 461.827 480.782 459.733 479.557C458.587 478.787 457.895 485.564 457.895 498.545C457.895 509.571 457.342 540.671 456.65 567.543C455.8 600.797 456.038 616.386 457.342 616.386C458.428 616.386 459.811 613.778 460.443 610.616ZM469.078 551.795C469.078 509.887 468.387 487.815 467.221 488.961C464.297 491.905 463.822 616.386 466.766 616.386C468.545 616.386 469.078 602.279 469.078 551.795ZM479.807 555.43C479.353 502.714 478.958 494.455 476.488 494.455C474.097 494.455 473.642 502.714 473.247 555.43C472.714 615.615 472.793 616.386 476.488 616.386C480.262 616.386 480.262 615.615 479.807 555.43ZM488.6 558.196C487.829 526.247 486.525 499.236 485.596 498.228C484.668 497.22 483.976 521.544 483.976 556.418C483.976 610.062 484.293 616.386 486.901 616.386C489.608 616.386 489.766 610.755 488.6 558.196ZM496.009 560.054C495.239 526.326 493.935 503.011 492.848 501.944C491.544 500.62 491.307 508.8 492.077 527.017C492.69 541.915 493.243 568.076 493.243 585.207C493.243 606.506 493.935 616.386 495.318 616.386C496.701 616.386 496.938 600.342 496.009 560.054ZM505.276 600.104C504.822 591.153 504.11 567.305 503.656 547.092C503.122 524.547 501.956 509.036 500.731 507.021C499.111 504.551 498.874 511.585 499.645 535.276C500.257 552.565 500.731 577.876 500.731 591.549C500.731 611.92 501.186 616.386 503.419 616.386C505.592 616.386 505.889 613.382 505.276 600.104ZM510.907 540.533C510.216 525.931 509.05 513.977 508.359 513.977C506.976 513.977 507.509 549.779 509.603 590.383L510.986 617.314L511.52 592.241C511.915 578.43 511.599 555.114 510.907 540.533ZM518.238 568.471C517.546 542.074 516.46 519.924 515.847 519.233C514.464 517.672 515.235 601.507 516.618 610.379C518.93 624.585 519.404 613.541 518.238 568.471ZM687.668 607.593C686.186 602.812 685.416 597.635 685.969 596.173C686.582 594.789 685.811 592.616 684.409 591.549C682.946 590.383 679.943 582.283 677.631 573.569C675.378 564.915 673.146 557.11 672.691 556.339C671.763 554.877 660.876 559.896 660.876 561.753C660.876 562.444 664.353 573.944 668.601 587.38C672.849 600.796 676.307 612.849 676.307 614.074C676.386 615.556 679.014 616.386 683.341 616.386C690.277 616.386 690.276 616.386 687.668 607.593ZM760.361 610.992C763.226 605.597 763.226 605.597 752.497 606.368C746.707 606.743 731.197 607.593 718.156 608.206C695.374 609.292 691.047 610.616 695.611 615.161C696.303 615.852 710.51 616.386 727.245 616.386C757.595 616.386 757.595 616.386 760.361 610.992ZM247.03 598.88C249.579 593.387 247.405 592.241 234.523 592.241C217.076 592.241 197.159 589.85 197.159 587.676C197.159 586.609 204.727 572.403 213.914 556.201C223.181 539.979 230.67 526.089 230.67 525.318C230.67 524.468 216.463 511.506 199.016 496.371C181.649 481.256 167.383 468.67 167.383 468.354C167.383 468.136 181.965 455.155 199.787 439.644L232.211 411.39L214.606 381.376C204.964 364.858 197.396 350.434 197.851 349.269C198.325 347.965 208.975 346.107 223.952 344.704C249.717 342.234 252.128 341.246 247.03 334.903C244.936 332.354 242.011 332.295 221.403 334.37C208.58 335.674 197.851 336.761 197.554 336.919C197.238 336.998 195.005 341.404 192.536 346.719C189.374 353.595 188.604 357.29 189.829 359.601C190.757 361.38 197.93 373.196 205.655 385.862L219.783 408.781L191.686 435.791C167.521 458.948 163.589 463.572 163.589 468.354C163.668 473.135 167.916 478.016 191.923 501.015L220.237 528.104L214.606 536.442C211.524 540.986 203.344 554.185 196.389 565.684C184.435 585.759 183.96 586.906 185.976 593.09C188.683 601.27 188.287 601.192 235.53 603.049C243.948 603.345 245.252 602.812 247.03 598.88ZM266.789 588.15C271.116 573.944 271.254 572.719 268.33 570.546C263.311 566.693 262.916 567.147 257.601 583.369C254.736 591.845 252.128 599.808 251.654 601.033C251.041 602.574 252.661 603.344 256.435 603.344C261.928 603.344 262.303 602.89 266.789 588.15ZM701.855 601.961C701.855 599.57 692.134 570.862 690.83 569.4C690.138 568.629 688.044 569.084 686.187 570.388C683.025 572.719 683.025 573.568 687.036 588.15C691.047 602.653 691.521 603.344 696.54 603.344C699.464 603.344 701.855 602.732 701.855 601.961ZM762.613 599.491C764.767 598.721 767.474 595.56 768.462 592.477C770.319 587.222 769.311 584.91 752.951 558.354C743.309 542.686 735.504 529.032 735.583 527.946C735.742 526.938 748.248 514.352 763.384 500.007C789.999 474.775 790.848 473.768 789.999 467.425C789.465 463.888 787.766 459.956 786.225 458.632C784.605 457.407 772.413 445.75 759.215 432.788C742.143 416.033 735.504 408.307 736.275 406.153C736.907 404.533 743.684 393.034 751.252 380.606C758.899 368.178 765.143 357.211 765.143 356.144C765.143 351.659 757.279 337.235 754.414 336.465C752.655 335.912 743.625 334.983 734.437 334.37C725.17 333.758 715.449 332.75 712.742 332.296C708.652 331.446 707.566 332.137 705.945 336.682C704.108 342.096 704.108 342.096 723.926 344.249C734.813 345.415 746.391 346.403 749.632 346.403C752.951 346.403 756.033 347.114 756.666 348.023C757.199 348.952 749.711 363.317 740.068 379.993C730.426 396.729 722.938 411.014 723.392 411.864C723.926 412.713 737.915 425.299 754.493 439.802C771.09 454.305 784.901 466.812 785.217 467.504C785.533 468.274 771.485 481.632 753.959 497.221C722.167 525.476 722.167 525.476 726.178 532.352C744.079 562.524 757.673 586.609 757.673 588.15C757.673 589.217 746.628 590.542 731.651 591.312C704.799 592.696 703.871 593.09 706.716 600.5C707.724 603.207 710.806 603.424 733.272 602.278C747.241 601.567 760.44 600.342 762.613 599.571V599.491ZM251.812 584.356C253.274 578.725 250.429 577.342 236.677 577.342C222.174 577.263 221.166 575.407 228.734 562.603C235.214 551.558 235.609 548.93 231.44 545.472C228.891 543.378 228.042 543.536 225.73 546.618C220.158 554.185 204.43 583.29 205.418 584.278C205.972 584.831 213.757 585.918 222.707 586.609C251.041 588.921 250.646 588.921 251.812 584.356ZM742.993 584.99L749.79 583.823L738.527 563.827C732.264 552.802 726.712 543.773 726.02 543.773C725.408 543.773 723.234 544.998 721.238 546.46C717.761 549.009 717.84 549.483 724.637 562.049C731.651 574.952 731.651 575.031 727.482 576.098C725.171 576.73 719.065 577.263 713.908 577.342C702.487 577.342 699.939 578.804 701.934 584.139C703.337 587.913 704.325 588.071 719.836 587.142C728.866 586.609 739.298 585.602 743.072 584.99H742.993ZM196.942 555.194C205.26 541.461 212.057 529.567 212.057 528.796C212.057 528.025 201.407 517.296 188.367 504.947C168.45 486.196 164.518 483.094 163.984 486.413C163.51 489.278 168.154 495.146 181.491 508.562L199.708 526.78L188.9 547.546C179.732 565.31 178.408 569.241 179.416 574.873C180.107 578.508 180.957 581.116 181.273 580.741C181.569 580.425 188.682 568.847 196.942 555.194ZM775.259 574.34C776.187 570.625 773.875 564.598 765.004 547.862L753.564 526.247L771.327 509.412C785.217 496.293 789.386 491.136 790.394 486.038C791.085 482.403 790.927 480.249 790.078 481.098C789.149 481.948 777.729 493.131 764.609 505.955L740.681 529.249L746.944 538.912C750.402 544.148 757.357 555.351 762.455 563.827C767.553 572.244 772.255 579.2 772.868 579.2C773.56 579.2 774.646 577.027 775.259 574.34ZM258.135 565.526C257.838 564.598 253.748 561.061 249.105 557.584C240.549 551.34 240.549 551.34 238.534 555.805C236.598 559.974 237.23 560.903 245.252 566.85C253.195 572.778 254.203 573.173 256.356 570.308C257.601 568.629 258.451 566.455 258.135 565.526ZM716.457 561.279C717.682 560.37 714.521 553.099 712.821 553.099C711.893 553.099 707.724 555.351 703.634 557.959C696.758 562.602 693.991 568.846 697.39 572.245C698.318 573.173 709.186 566.851 716.457 561.279ZM238.158 568.076C234.839 565.527 233.14 565.152 232.132 566.772C229.662 570.704 230.591 571.712 236.756 571.712C242.782 571.633 242.782 571.632 238.158 568.076ZM723.017 568.925C721.614 565.447 718.69 565.448 714.047 569.004C710.668 571.553 710.806 571.712 717.227 571.712C722.542 571.712 723.787 571.098 723.017 568.925ZM276.965 552.328C276.668 552.111 270.029 548.317 262.383 544.148C254.657 539.9 245.706 534.664 242.466 532.569C236.538 528.637 236.538 528.638 233.219 533.736C230.037 538.596 230.037 538.911 233.219 540.828C235.056 541.915 244.639 548.475 254.597 555.272L272.578 567.701L275.127 560.291C276.51 556.201 277.36 552.644 276.965 552.328ZM702.784 552.882C722.543 539.525 724.163 537.588 719.994 532.273C717.919 529.645 715.37 530.574 697.607 540.75C678.086 551.953 677.631 552.328 678.777 557.821C680.022 563.749 681.03 566.159 682.413 566.159C682.946 566.159 692.134 560.212 702.784 552.882ZM179.791 514.43C166.454 500.856 166.454 500.856 165.822 507.574C165.368 513.443 166.296 515.122 173.232 521.227C181.115 528.321 181.115 528.321 176.946 538.141C173.706 545.689 173.014 549.641 174.002 555.569C175.326 563.294 175.326 563.294 184.197 545.61L193.148 528.025L179.791 514.43ZM171.315 526.484C168.924 524.093 166.533 525.931 168.213 528.796C168.924 529.942 170.386 530.337 171.394 529.645C172.698 528.874 172.619 527.867 171.315 526.484ZM785.612 528.025C785.612 526.405 784.526 525.713 782.826 526.405C781.285 526.938 780.515 528.183 781.127 529.112C782.747 531.72 785.612 531.029 785.612 528.025ZM444.696 768.211C429.482 748.926 427.17 746.753 421.835 746.753C418.595 746.753 404.408 751.693 390.359 757.64C366.649 767.678 365.029 768.685 369.198 770.523C373.15 772.301 377.378 771.294 397.69 763.43C410.731 758.333 422.072 754.4 422.685 754.697C423.396 754.934 430.411 762.896 438.354 772.38C449.083 785.124 454.022 789.59 457.184 789.59C461.056 789.59 459.594 787.12 444.696 768.211ZM473.484 787.278C472.714 785.974 466.292 776.392 459.278 765.9C447.778 748.769 445.921 746.753 440.902 746.753C434.264 746.753 433.651 745.528 453.034 770.602C462.518 782.793 469.078 789.59 471.311 789.59C473.643 789.59 474.413 788.82 473.484 787.278ZM503.28 768.053C519.64 746.516 519.641 746.516 513.456 747.148C507.825 747.682 505.81 749.757 492.927 768.686C480.202 787.2 479.037 789.59 482.732 789.59C485.834 789.59 490.99 784.117 503.28 768.053ZM516.46 771.926C524.581 762.185 531.674 754.242 532.286 754.242C532.84 754.242 543.786 758.253 556.609 763.193C575.894 770.602 580.675 771.768 584.924 770.306C589.567 768.606 587.947 767.599 563.545 757.64C548.963 751.614 534.539 746.833 531.437 746.833C526.497 746.912 523.948 749.46 509.603 768.29C495.476 786.804 493.935 789.59 497.551 789.59C500.574 789.59 505.889 784.651 516.46 771.926ZM440.902 784.196C431.655 771.373 423.001 761.81 420.61 761.731C416.757 761.652 385.262 773.467 385.262 775.087C385.262 778.328 398.619 778.624 407.787 775.542C417.607 772.301 417.607 772.301 423.614 778.94C429.561 785.342 432.722 787.042 439.974 787.516C443.076 787.733 443.155 787.278 440.902 784.196ZM530.903 778.94C537.779 772.222 537.779 772.223 547.658 775.937C555.364 778.862 558.842 779.257 563.545 777.854C566.864 776.866 569.571 775.542 569.571 774.929C569.571 773.684 535.23 760.802 533.373 761.336C532.76 761.494 527.05 767.599 520.708 774.929C509.208 788.365 509.208 788.365 516.618 786.962C521.34 786.113 526.418 783.188 530.903 778.94ZM488.837 765.425C502.036 745.666 501.64 746.753 495.634 746.753C491.386 746.753 489.232 748.532 484.292 756.099C480.973 761.197 477.574 765.425 476.804 765.425C476.033 765.425 472.931 761.197 470.007 756.099C465.522 748.453 463.605 746.753 459.357 746.753C456.492 746.753 454.18 747.228 454.18 747.761C454.18 750.685 477.021 782.339 478.187 780.956C478.879 780.106 483.739 773.072 488.837 765.425ZM379.157 756.554C401.089 747.682 401.089 747.682 389.885 747.148C380.085 746.595 376.924 747.367 364.259 753.551C349.439 760.723 347.444 762.659 353.154 764.121C354.932 764.576 356.553 765.05 356.77 765.208C357.007 765.287 367.044 761.414 379.157 756.554ZM600.829 764.201C607.389 762.423 605.927 760.96 590.555 753.629C578.443 747.84 574.194 746.753 564.019 746.833L551.887 746.912L573.345 756.021C597.826 766.434 595.356 765.663 600.829 764.201ZM362.717 747.445C363.191 747.07 358.331 746.753 352.067 746.753C341.259 746.753 340.568 747.069 340.568 751.16C340.568 753.55 341.042 756.02 341.733 756.632C342.662 757.561 359.951 750.073 362.717 747.445ZM612.408 755.329C612.408 753.866 612.941 751.318 613.573 749.698C614.561 747.228 612.862 746.833 601.916 746.912L589.172 746.99L599.446 752.227C611.716 758.49 612.408 758.727 612.408 755.329ZM335.391 751.456C334.858 748.453 333.316 746.753 331.004 746.753C326.223 746.753 326.598 751.397 331.696 753.867C334.008 754.934 336.023 755.862 336.102 755.941C336.24 756.02 335.865 754.005 335.391 751.456ZM481.111 747.148C479.57 746.753 476.725 746.753 474.631 747.148C471.015 747.682 470.936 747.92 473.939 752.168C477.021 756.554 477.021 756.554 480.42 752.168C483.206 748.453 483.285 747.603 481.111 747.148ZM627.306 749.144C627.306 744.6 619.046 747.149 618.355 751.93C617.802 755.783 618.118 755.941 622.524 753.926C625.132 752.78 627.306 750.606 627.306 749.144ZM653.091 735.254C679.093 717.511 709.186 688.86 727.482 664.478C737.125 651.516 753.959 625.198 753.959 622.966C753.959 622.412 629.538 622.037 477.416 622.037C267.935 622.037 200.874 622.49 200.874 624.19C200.874 628.28 228.418 667.639 242.308 683.466C256.593 699.589 276.194 717.036 297.652 732.547L309.625 741.202H477.021C644.358 741.202 644.357 741.201 653.091 735.254ZM550.049 707.77C549.358 698.681 549.279 690.263 549.97 689.176C551.827 686.252 562.556 686.786 567.338 690.106C570.875 692.576 571.428 694.65 571.428 705.616C571.428 720.435 568.563 724.446 557.992 724.446C551.353 724.446 551.353 724.446 550.049 707.77ZM563.624 706.94C564.236 696.507 562.695 692.891 557.992 692.812C557.222 692.812 556.609 698.68 556.609 705.932C556.609 717.51 556.984 719.051 559.849 718.498C562.398 717.965 563.248 715.575 563.624 706.94ZM577.059 705.694C577.059 688.801 577.376 687.023 580.3 687.556C583.086 688.09 583.619 690.796 584.074 706.307C584.627 723.438 584.469 724.446 580.833 724.446C577.297 724.446 577.059 723.299 577.059 705.694ZM590.1 705.774C590.1 688.406 590.337 687.181 593.815 687.181C597.272 687.181 597.51 688.406 597.51 702.83C597.51 718.499 597.589 718.577 602.528 719.21C612.012 720.277 609.701 724.366 599.525 724.366H590.1V705.774ZM384.333 711.405C382.259 708.085 385.341 705.774 391.901 705.774C397.077 705.774 398.303 706.545 398.303 709.469C398.303 712.492 397.077 713.263 391.901 713.263C388.344 713.263 384.946 712.412 384.333 711.405ZM534.223 711.484C532.207 710.18 531.99 709.172 533.531 707.631C536.534 704.608 546.335 706.09 546.335 709.547C546.335 712.788 538.313 714.112 534.223 711.484ZM365.187 706.307C365.582 690.717 366.195 688.09 368.981 687.556C371.826 687.023 372.221 688.722 372.221 702.909C372.221 718.814 372.221 718.814 377.773 718.814C381.547 718.814 383.405 719.743 383.405 721.679C383.405 723.754 381.093 724.446 373.999 724.446H364.653L365.187 706.307ZM404.25 722.214C402.847 720.831 402.017 714.27 402.017 705.536C402.017 692.654 402.393 691.033 405.87 689.947C411.58 688.089 418.753 690.481 418.832 694.195C418.911 695.974 419.148 701.922 419.366 707.395C419.603 713.342 418.753 718.814 417.291 720.909C414.505 724.92 407.648 725.612 404.25 722.214ZM413.201 706.782C413.201 697.199 412.588 694.65 410.415 694.65C408.182 694.65 407.569 697.199 407.569 706.782C407.569 716.266 408.182 718.814 410.415 718.814C412.588 718.814 413.201 716.266 413.201 706.782ZM424.305 719.664C423.317 717.036 422.467 711.248 422.467 706.782C422.467 694.196 425.075 689.018 431.576 689.018C438.59 689.018 440.448 691.646 441.989 703.62C443.925 717.728 440.823 724.446 432.485 724.446C427.407 724.446 425.787 723.517 424.305 719.664ZM435.508 706.782C435.508 697.199 434.955 694.65 432.722 694.65C430.569 694.65 429.956 697.199 429.956 706.782C429.956 716.266 430.569 718.814 432.722 718.814C434.955 718.814 435.508 716.266 435.508 706.782ZM446.771 720.83C444.064 715.812 444.301 694.037 447.087 691.271C448.312 690.026 451.473 689.018 454.101 689.018C461.748 689.018 463.447 692.339 463.447 706.782C463.447 714.567 462.518 720.91 461.214 722.214C457.657 725.77 448.944 724.921 446.771 720.83ZM456.966 706.782C456.966 699.669 456.116 695.578 454.654 695.124C452.876 694.511 452.244 697.673 452.244 706.782C452.244 715.891 452.876 718.973 454.654 718.361C456.116 717.886 456.966 713.796 456.966 706.782ZM474.631 710.24C474.631 698.898 474.097 696.27 472.003 697.12C470.62 697.673 468.92 697.594 468.308 696.981C466.45 695.203 473.01 689.018 476.804 689.018C479.886 689.018 480.202 690.797 480.202 706.782C480.202 721.206 479.728 724.446 477.416 724.446C475.184 724.446 474.631 721.601 474.631 710.24ZM487.671 721.601C487.671 720.06 490.615 714.488 494.172 709.252C497.787 704.075 500.731 698.68 500.731 697.198C500.731 693.74 495.792 693.879 494.468 697.436C492.927 701.368 487.671 700.914 487.671 696.903C487.671 692.121 491.307 689.098 496.938 689.098C507.746 689.098 509.366 699.056 500.573 711.03L494.784 718.894H500.573C504.426 718.894 506.284 719.743 506.284 721.679C506.284 723.754 504.051 724.446 496.938 724.446C489.845 724.446 487.671 723.755 487.671 721.601ZM512.231 722.214C509.129 719.131 509.445 713.263 512.686 713.263C514.148 713.263 516.163 714.645 517.092 716.344C518.02 717.964 519.779 718.814 520.945 718.043C523.948 716.186 523.494 711.485 520.253 710.181C516.459 708.778 516.697 703.996 520.708 700.992C525.568 697.357 521.182 693.425 515.847 696.745C510.986 699.748 509.05 697.969 511.757 692.951C514.069 688.564 523.178 687.556 526.339 691.33C528.809 694.432 528.888 719.051 526.339 722.055C523.869 725.058 515.155 725.138 512.231 722.214ZM347.977 709.547C347.977 697.514 347.443 694.65 345.211 694.65C343.65 694.65 342.425 692.951 342.425 690.797C342.425 687.398 343.433 687.023 352.067 687.556C362.105 688.169 366.59 692.18 359.398 694.037C355.782 694.966 355.466 696.428 355.466 709.785C355.466 723.221 355.09 724.446 351.771 724.446C348.293 724.446 347.977 723.22 347.977 709.547ZM327.527 314.769C327.527 313.683 325.215 312.991 322.429 313.07C317.253 313.228 317.252 313.228 321.975 314.769C324.524 315.54 326.835 316.311 327.072 316.39C327.369 316.548 327.527 315.777 327.527 314.769ZM235.372 312.221C253.432 309.988 253.965 309.829 253.432 305.423C252.661 298.409 251.357 298.093 233.91 300.405C218.4 302.499 217.313 302.953 213.678 308.663C209.133 315.915 207.73 315.699 235.372 312.221ZM487.75 310.975C496.701 306.431 497.096 305.048 489.074 305.819C483.818 306.273 483.127 305.819 483.581 302.342C484.055 299.101 483.206 298.409 479.412 298.626C476.251 298.784 474.631 300.029 474.631 302.183C474.631 304.573 473.089 305.423 468.841 305.423C463.684 305.423 463.289 305.819 465.522 308.446C471.173 315.224 477.95 315.994 487.75 310.975ZM741.215 308.663C737.599 302.953 736.512 302.578 720.152 300.325C710.747 299.1 702.705 298.33 702.408 298.626C702.092 298.942 701.401 301.729 700.788 304.812C699.622 310.364 699.622 310.363 716.99 312.299C747.241 315.54 745.621 315.777 741.215 308.663ZM284.295 306.352C285.619 305.265 278.051 294.932 276.352 295.307C275.265 295.623 270.563 296.315 265.781 297.007C257.067 298.172 257.068 298.172 258.984 303.724C260.921 309.296 260.92 309.296 272.341 308.051C278.585 307.359 283.999 306.589 284.295 306.352ZM694.762 304.494C697.39 298.626 696.916 298.172 685.337 296.314C676.624 294.931 675.616 295.169 672.988 299.101C667.969 306.827 668.898 307.438 688.36 308.821C691.284 309.059 693.3 307.656 694.762 304.494ZM470.935 298.014C470.935 295.939 470.54 294.24 470.244 294.24C469.849 294.24 469.078 295.939 468.545 298.014C467.991 300.029 468.308 301.729 469.236 301.729C470.165 301.729 470.935 300.029 470.935 298.014ZM488.916 295.623C488.382 294.398 487.987 295.465 487.987 298.014C487.987 300.562 488.461 301.57 488.916 300.325C489.449 299.021 489.449 296.946 488.916 295.702V295.623ZM464.454 297.856C465.146 296.789 465.067 291.929 464.297 287.127L462.834 278.413L461.353 285.902C460.582 289.992 459.891 294.774 459.811 296.631C459.732 300.188 462.518 300.958 464.454 297.856ZM496.859 294.695C496.859 291.928 496.167 286.278 495.397 282.188C494.014 274.719 494.014 274.718 492.769 284.519C492.077 289.992 491.998 295.623 492.611 297.085C494.389 301.649 497.017 300.188 496.859 294.695ZM251.199 293.074C264.003 291.375 274.732 289.834 275.048 289.597C275.265 289.38 273.724 285.664 271.491 281.337C266.71 272.248 267.638 270.391 274.574 274.936C279.672 278.255 279.671 278.255 277.518 274.323C272.341 264.681 272.341 264.681 311.088 261.52C325.373 260.354 325.373 260.354 326.361 251.699C332.23 201.927 332.23 197.443 326.677 203.153C324.662 205.168 316.343 244.606 316.343 252.095C316.343 252.786 304.133 253.32 289.235 253.32C252.503 253.32 247.03 256.185 258.056 269.621C261.691 274.087 264.161 278.176 263.548 278.808C262.916 279.5 255.21 281.041 246.477 282.346C233.831 284.203 229.899 285.507 226.955 288.984C220.079 297.323 219.546 297.243 251.199 293.074ZM727.956 290.684C722.7 283.195 714.441 279.342 706.577 280.646C698.773 281.891 690.672 280.113 690.672 277.109C690.672 275.864 693.596 271.854 697.232 268.139C703.792 261.441 703.791 261.441 699.938 257.885C696.54 254.881 692.134 254.249 667.278 253.636C651.471 253.182 638.489 252.707 638.41 252.628C638.331 252.49 636.494 241.604 634.241 228.405C630.704 207.559 629.538 204.002 625.685 201.454C621.516 198.687 621.279 198.688 622.287 202.165C622.821 204.161 624.362 217.28 625.685 231.408C626.99 245.456 628.531 257.805 629.163 258.734C629.775 259.741 641.117 261.441 654.316 262.587C667.594 263.753 678.698 264.899 679.014 265.215C679.409 265.61 678.777 268 677.71 270.687C675.616 276.18 676.169 276.557 681.642 273.632C687.589 270.471 687.807 272.94 682.413 282.049C677.473 290.525 677.473 290.525 681.721 290.604C684.112 290.683 693.991 291.849 703.713 293.232C713.434 294.615 723.787 295.86 726.633 295.939C731.889 296.157 731.888 296.157 728.035 290.684H727.956ZM484.431 291C486.051 289.221 487.908 284.597 488.679 280.725C489.845 274.481 489.528 273.79 485.991 273.79C481.743 273.79 478.503 278.868 481.427 280.962C482.435 281.575 483.284 283.887 483.443 285.982C483.66 289.222 482.81 289.675 478.424 289.063C472.931 288.213 472.476 286.594 476.112 280.034C477.871 276.714 477.792 275.785 475.401 274.856C468.545 272.248 467.004 273.473 468.308 280.725C469.691 288.747 473.781 294.24 478.345 294.24C480.123 294.24 482.811 292.778 484.431 291ZM254.281 274.856C254.519 274.777 253.116 272.545 251.199 270.075C247.801 265.53 247.642 265.53 243.868 268.988C238.771 273.552 241.932 277.959 249.026 276.26C251.733 275.628 254.123 275.014 254.281 274.856ZM712.367 274.561C712.979 272.941 712.13 270.233 710.509 268.613C707.723 265.827 707.111 265.906 702.626 270.154C697.844 274.64 697.844 274.64 702.171 275.865C709.265 277.88 711.201 277.643 712.367 274.561ZM482.89 268.218C488.6 266.064 488.995 263.437 483.976 260.73C481.19 259.188 478.879 259.425 474.631 261.658C471.548 263.199 469.078 264.978 469.078 265.452C469.078 266.223 473.406 268.376 477.792 269.917C478.029 269.996 480.262 269.225 482.89 268.218ZM479.57 253.874C477.496 251.779 469.078 255.257 467.142 258.971C465.146 262.745 465.146 262.745 472.852 258.813C477.1 256.64 480.123 254.407 479.57 253.794V253.874ZM490.536 258.971C489.924 257.885 487.533 256.027 485.201 254.881C481.349 252.865 481.348 253.024 485.675 257.647C489.924 262.29 493.085 263.2 490.536 258.971ZM309.922 246.839C311.009 246.543 312.945 239.212 314.249 230.637C315.494 222.141 317.035 213.585 317.569 211.727C318.497 208.566 318.181 208.487 313.024 211.194C308.855 213.348 307.156 215.818 306.306 221.153C303.145 239.43 304.844 237.809 288.089 238.975C277.814 239.667 272.104 240.911 270.029 242.986C267.856 245.14 267.638 246.385 269.179 247.313C271.175 248.617 305.832 248.241 309.922 246.918V246.839ZM685.653 246.918C687.51 242.215 681.642 239.745 665.973 238.58L650.621 237.513L649.001 226.093C647.598 216.213 646.669 214.276 641.73 211.411C635.407 207.637 635.565 204.635 640.504 234.115L642.816 247.61L659.71 248.163C669.056 248.539 678.481 249.012 680.713 249.17C682.867 249.388 685.12 248.38 685.653 246.918ZM293.028 232.791C298.501 232.791 299.272 232.178 300.122 226.784C300.596 223.464 300.754 220.382 300.359 219.987C299.588 219.216 280.995 232.732 280.995 234.115C280.995 234.648 282.299 234.568 283.919 233.956C285.54 233.343 289.63 232.791 293.028 232.791ZM664.037 226.31C654.158 218.742 653.387 218.525 653.387 223.385C653.387 231.032 655.403 232.791 664.116 232.791H672.612L664.037 226.31ZM456.353 192.661C466.371 177.763 474.631 165.196 474.631 164.642C474.631 164.109 473.089 163.951 471.172 164.267C469.236 164.564 458.586 176.537 447.541 190.882C436.516 205.247 427.249 217.28 426.933 217.675C426.716 218.051 410.415 211.886 390.893 203.923C365.582 193.748 354.003 189.954 350.763 190.745C344.737 192.286 344.895 194.755 351.297 197.146C354.083 198.213 372.754 206.254 392.75 214.968C434.896 233.501 426.636 236.426 456.353 192.581V192.661ZM563.545 214.197C584.785 204.93 603.911 196.672 605.927 195.743C609.404 194.281 609.325 194.044 604.465 191.732C599.663 189.5 596.739 190.348 566.251 202.619C548.113 209.87 531.99 216.352 530.369 216.984C528.117 217.834 521.873 210.957 506.521 190.962C491.919 172.053 484.51 163.951 481.882 163.951C477.338 163.951 476.033 161.64 500.099 196.139C510.69 211.274 520.174 225.321 521.261 227.317C522.328 229.332 523.573 230.953 524.027 230.953C524.501 230.953 542.245 223.386 563.545 214.119V214.197ZM436.733 196.059C443.767 187.188 451.789 176.695 454.654 172.823C459.732 165.808 459.733 165.809 455.563 165.809C452.56 165.809 447.245 170.828 436.595 183.552C425.925 196.376 420.986 200.999 418.911 200.07C417.291 199.458 405.633 195.21 393.047 190.745C374.296 184.027 369.435 182.86 366.274 184.639C362.796 186.496 364.654 187.642 382.634 194.893C393.817 199.457 407.569 205.168 413.201 207.638C418.832 210.108 423.534 212.123 423.772 212.182C423.93 212.261 429.798 205.01 436.733 196.059ZM570.104 195.526C581.071 191.12 590.1 186.871 590.1 186.18C590.1 181.774 579.687 183.552 556.767 191.89C542.936 196.988 531.061 200.465 530.448 199.774C529.737 198.983 523.178 191.04 515.689 182.089C507.43 172.131 500.811 165.809 498.637 165.809C496.701 165.809 495.081 166.185 495.081 166.817C495.081 167.35 502.806 177.684 512.152 189.816L529.125 211.886L539.617 207.717C545.327 205.406 559.079 199.913 570.104 195.526ZM433.335 179.461C438.67 173.218 442.997 167.587 442.997 166.954C442.997 163.635 429.798 169.128 423.456 175.134C415.987 182.248 415.987 182.248 404.547 178.612C394.213 175.451 392.513 175.372 386.882 177.842C381.409 180.233 381.093 180.707 384.333 181.695C386.349 182.327 395.141 185.568 403.855 188.887C415.275 193.274 420.215 194.439 421.697 192.977C422.764 191.811 428.02 185.804 433.335 179.461ZM557.913 185.942C574.056 180.074 574.056 180.075 567.338 177.684C561.47 175.688 558.842 175.846 548.805 178.928C537.068 182.485 537.068 182.485 530.508 175.214C525.885 170.057 521.952 167.587 516.855 166.737C508.22 165.334 508.358 165.651 522.802 182.169C534.381 195.526 532.069 195.288 557.913 185.942ZM537.918 172.289C537.918 170.748 536.613 169.504 534.914 169.504C532.444 169.504 532.365 169.978 534.223 172.289C535.527 173.831 536.851 175.075 537.226 175.075C537.621 175.075 537.918 173.831 537.918 172.289ZM419.681 171.361C420.373 170.353 419.523 169.504 417.982 169.504C416.362 169.504 415.058 170.353 415.058 171.361C415.058 172.369 415.828 173.218 416.836 173.218C417.745 173.218 419.069 172.369 419.681 171.361ZM628.768 320.934C626.911 320.48 625.448 318.701 625.448 317.002C625.448 314.69 624.994 314.532 623.216 316.231C621.971 317.476 618.889 318.385 616.261 318.326C611.558 318.168 611.558 318.168 617.11 315.62C620.193 314.236 621.832 312.912 620.825 312.675C619.817 312.457 622.287 311.766 626.456 310.975C633.866 309.671 633.866 309.671 625.606 309.434C617.031 309.138 605.077 312.458 602.686 315.698C600.829 318.247 613.337 321.942 623.591 321.863C628.235 321.784 630.546 321.408 628.768 320.934ZM423.001 884.057C419.444 879.512 419.069 875.343 420.768 862.915C422.843 848.629 426.241 843.552 433.967 843.552C439.361 843.552 446.692 849.182 446.692 853.351C446.534 860.978 442.602 881.824 440.823 883.918C438.275 887.079 425.392 887.159 423.001 884.057ZM435.271 876.647C440.448 862.599 438.512 846.871 432.031 850.882C429.561 852.423 426.004 874.256 427.625 878.504C429.028 882.298 433.651 881.132 435.271 876.647ZM394.371 879.117C390.122 875.719 390.044 875.422 392.276 860.287C393.521 851.87 395.438 843.848 396.603 842.385C399.231 839.224 411.66 838.987 414.663 842.069C417.054 844.46 417.824 856.592 415.512 856.592C412.667 856.513 409.881 853.648 409.19 850.111C407.866 843.235 403.084 845.942 400.772 854.735C397.216 868.25 397.611 875.184 401.859 875.184C403.855 875.184 406.028 873.565 406.641 871.49C407.787 867.855 411.343 866.551 413.655 868.863C415.196 870.404 411.66 879.433 408.874 881.212C405.021 883.682 398.836 882.753 394.371 879.117ZM545.406 868.941C542.008 848.866 542.008 840.844 545.406 840.844C547.422 840.844 548.963 845.251 551.037 857.6C553.981 874.336 553.981 874.336 559.692 873.802C563.465 873.407 565.797 874.177 566.488 876.035C567.872 879.591 566.943 880.125 556.372 881.587C547.797 882.832 547.797 882.831 545.406 868.941ZM375.679 876.272C375.146 875.719 376.845 866.472 379.551 855.743C383.325 840.153 384.946 836.201 387.574 836.142C391.822 836.142 391.664 839.066 386.487 859.437C382.555 874.73 379.315 879.888 375.679 876.272ZM573.977 874.414C568.405 870.482 562.478 845.784 565.402 839.225C568.267 833.04 577.83 830.886 582.77 835.371C589.942 841.852 594.803 868.705 589.646 873.032C585.16 876.727 578.067 877.358 573.977 874.414ZM585.003 867.4C585.477 866.076 584.548 859.595 582.849 852.956C580.379 843.076 579.134 840.844 576.131 840.844C572.969 840.844 572.436 841.931 572.732 848.491C573.345 862.599 581.841 875.718 585.003 867.4ZM361.018 864.534C360.939 851.573 358.331 848.866 355.703 859.22C353.45 868.17 350.684 871.253 347.74 868.25C346.515 867.084 347.898 859.912 351.771 847.563C356.552 832.269 358.252 828.733 361.176 828.733C364.041 828.733 364.811 830.115 364.969 835.667C365.029 839.52 365.74 844.697 366.432 847.167C367.499 851.02 367.973 850.408 370.285 842.069C372.676 833.356 376.074 829.957 378.544 833.968C378.998 834.817 377.002 843.769 373.999 853.806C370.976 863.922 368.507 872.419 368.507 872.794C368.507 873.11 366.807 873.407 364.732 873.407C361.571 873.407 361.018 872.181 361.018 864.534ZM440.685 926.122C434.737 925.668 429.956 924.581 429.956 923.652C429.956 922.803 428.257 922.506 426.241 923.04C424.246 923.573 413.971 922.646 403.4 920.887C241.241 893.798 108.936 784.196 51.2213 629.051C41.6383 603.424 34.0117 572.936 36.8569 572.007C38.4772 571.474 38.3979 570.466 36.4023 568.234C34.8414 566.534 33.2214 562.603 32.6879 559.58C32.1544 556.497 30.8303 549.78 29.8424 544.702C28.7557 539.525 26.8984 521.762 25.5943 505.184C20.5756 440.119 33.5373 363.85 60.251 301.65C116.583 170.274 233.989 70.7892 371.292 38.1478C411.659 28.5056 426.083 27.0239 476.488 27.0239C527.347 27.0239 542.245 28.5651 582.612 38.4445C617.426 46.8617 636.652 53.7371 638.41 58.2816C639.26 60.534 639.734 62.609 639.497 62.8461C639.181 63.1425 628.61 60.0603 615.964 56.0493C593.024 48.7978 568.484 42.5544 553.29 40.0846C548.962 39.2942 545.406 38.2267 545.406 37.5352C545.327 35.7569 509.287 34.3543 469.078 34.5914C412.351 34.9865 360.168 45.3207 309.309 66.3242C300.813 69.861 293.107 72.2514 292.1 71.6389C291.092 71.0264 290.242 71.4012 290.242 72.4879C290.242 73.4956 284.295 77.4286 276.965 81.1432C187.517 126.134 112.493 205.01 70.664 297.777C54.2248 334.291 38.1608 391.947 35.6317 423.6C33.0038 455.708 34.1499 522.532 37.7855 544.464C49.8976 618.796 83.4084 695.044 128.241 750.151C133.793 757.027 137.428 763.113 136.816 764.654C136.263 766.215 136.737 767.204 138.041 766.987C139.365 766.75 150.015 776.154 161.811 787.891C248.571 874.039 355.011 918.18 476.804 918.417C521.873 918.556 543.411 916.085 581.604 906.601C632.246 894.015 681.108 872.952 721.396 846.397C731.493 839.679 740.444 834.205 741.155 834.205C741.926 834.205 742.776 833.514 743.072 832.664C743.467 831.814 751.726 824.484 761.447 816.443C829.358 760.269 877.135 687.872 903.69 600.875C907.168 589.454 910.566 577.718 911.179 574.873C911.87 572.008 913.194 570.171 914.182 570.783C915.19 571.396 915.96 571.099 915.96 570.091C915.96 569.083 915.111 567.997 914.103 567.621C912.957 567.226 913.194 562.049 914.953 553.019C919.517 528.795 922.066 492.281 921.137 463.492C920.525 444.129 920.9 435.713 922.303 435.713C923.607 435.713 923.528 435.1 922.066 434.25C920.821 433.4 918.983 426.919 917.976 419.806C915.506 403.209 915.506 404.059 919.28 403.98C921.987 403.842 921.908 403.604 918.746 402.3C915.802 401.134 914.261 397.124 911.495 383.392C894.048 296.947 844.493 211.965 773.955 147.829C767.079 141.565 761.368 134.847 761.289 132.93C761.131 130.836 760.677 130.381 760.143 131.764C759.511 133.463 756.271 132.002 749.632 127.141C722.464 107.383 696.303 91.1599 671.526 78.9688C656.41 71.4012 643.982 64.625 643.903 63.8544C643.824 63.0047 642.895 61.3052 641.809 60.0604C637.422 54.6662 657.635 61.601 663.267 67.3903C665.124 69.2476 667.436 70.335 668.364 69.7817C670.676 68.3986 680.634 73.6547 681.879 76.9741C682.492 78.4363 684.883 79.602 687.273 79.602C694.999 79.602 730.505 101.969 758.899 124.83C787.608 147.829 831.828 193.431 829.299 197.521C828.666 198.529 829.22 199.062 830.366 198.845C832.381 198.371 856.921 230.024 859.628 236.505C860.241 238.046 862.632 241.761 864.944 244.843C872.116 254.486 893.119 298.093 901.991 321.863C911.258 346.64 919.359 377.365 924.615 407.774C928.922 432.314 929.554 514.905 925.622 539.979C910.803 635.927 868.184 721.442 800.273 791.605C780.969 811.502 748.624 838.829 742.775 840.153C741.372 840.529 737.974 842.919 735.287 845.626C727.877 852.956 711.043 863.31 684.112 877.121C649.613 894.706 620.43 905.514 583.619 914.327C550.267 922.191 532.919 924.503 529.125 921.42C527.426 920.116 526.655 919.958 527.347 921.104C528.038 922.27 527.188 923.811 525.351 924.503C521.557 926.044 456.274 927.288 440.685 926.122ZM459.278 888.7L450.406 888.009L450.485 869.021C450.485 849.874 451.789 844.322 456.037 845.705C457.737 846.318 458.27 851.494 458.033 864.534C457.579 882.673 457.579 882.673 463.368 882.673C467.774 882.673 468.999 883.444 468.999 886.388C468.999 888.383 468.841 889.925 468.624 889.767C468.307 889.629 464.138 889.075 459.278 888.7ZM472.793 888.7C472.793 887.929 474.551 878.268 476.883 867.321C480.499 849.479 481.427 847.246 484.905 847.246C488.303 847.246 489.449 849.795 493.856 866.629C499.724 889.391 499.566 887.534 495.93 888.917C493.935 889.707 492.473 888.384 491.07 884.531C488.521 877.121 483.048 877.121 480.499 884.531C478.8 889.391 472.793 892.632 472.793 888.7ZM487.533 870.087C487.454 868.308 486.762 865.147 485.912 863.073C484.747 860.069 484.352 860.683 483.66 866.393C483.048 871.253 483.522 873.327 485.201 873.327C486.604 873.327 487.612 871.865 487.533 870.087ZM507.291 883.84C503.419 879.967 502.569 877.279 502.569 869.238C502.49 863.844 501.957 856.197 501.344 852.423C500.336 846.238 500.652 845.388 504.051 845.388C507.983 845.388 509.129 850.032 510.453 872.419C510.907 878.426 511.599 879.888 514.701 879.888C518.159 879.888 518.317 878.82 517.783 862.835C517.171 846.396 518.929 840.37 523.039 844.697C525.963 847.859 527.267 879.591 524.58 882.989C520.095 888.779 512.606 889.155 507.291 883.84ZM702.171 797C691.205 781.568 689.427 776.47 694.999 776.628C698.931 776.866 720.31 808.895 718.156 811.503C717.148 812.748 715.746 813.756 715.133 813.756C714.442 813.677 708.652 806.188 702.171 797ZM224.11 802.413C221.087 800.082 218.321 798.007 217.926 797.691C217.55 797.473 222.944 789.748 229.899 780.482C243.71 762.343 244.856 761.968 252.898 772.143C258.45 779.257 257.838 781.944 247.88 794.372C237.605 807.037 232.507 808.815 224.11 802.413ZM242.703 789.274C248.176 781.944 249.421 779.02 247.959 776.708C246.951 775.088 245.489 773.922 244.778 774.159C242.387 774.771 227.271 795.992 228.2 797.474C230.512 801.248 236.143 798.087 242.624 789.274H242.703ZM712.663 789.057C696.837 768.903 697.923 763.588 715.607 774.771C724.716 780.561 724.854 779.948 717.148 769.674C713.137 764.2 712.822 759.794 716.516 759.794C719.144 759.794 743.072 791.368 741.926 793.305C740.147 796.15 738.211 795.616 727.798 789.511L718.156 783.88L724.933 793.068C730.505 800.636 731.118 802.414 728.727 803.323C727.107 803.955 725.566 804.488 725.249 804.488C724.933 804.488 719.302 797.534 712.663 789.057ZM207.513 789.748C205.892 787.12 232.665 756.258 235.609 757.324C239.917 759.024 238.613 761.572 225.73 776.786C213.993 790.677 209.903 793.601 207.513 789.748ZM741.076 770.84C731.651 760.348 728.865 758.174 726.791 759.952C724.775 761.572 723.55 761.572 721.535 759.952C719.302 758.095 720.31 756.475 727.186 750.073C733.35 744.442 736.057 742.979 737.599 744.521C739.14 746.062 739.061 747.366 737.283 749.46C735.366 751.772 735.9 753.472 740.523 759.261C743.625 763.114 747.932 767.974 750.185 769.99C756.35 775.542 757.97 779.553 755.203 781.865C753.346 783.426 750.027 780.877 741.076 770.84ZM196.705 780.185C191.073 776.865 189.137 771.215 191.686 765.208C194.077 759.261 195.321 758.728 198.562 761.889C200.103 763.43 200.103 764.891 198.483 767.44C196.863 770.068 196.863 771.452 198.78 773.23C202.791 777.241 206.584 770.148 205.339 760.96C203.423 747.149 215.93 737.644 224.031 746.595C228.496 751.456 227.35 760.723 222.332 760.723C219.309 760.723 218.696 759.716 219.249 755.408C219.704 751.16 219.249 750.31 216.463 750.844C213.835 751.318 213.065 753.017 213.381 757.956C213.993 770.918 212.215 776.392 206.505 779.336C200.261 782.576 200.874 782.576 196.784 780.185H196.705ZM761.823 770.523C759.057 767.124 762.06 762.66 765.992 764.201C769.391 765.426 769.233 771.155 765.913 772.301C764.767 772.697 762.91 771.846 761.823 770.523ZM176.946 759.102L170.841 752.859L186.351 738.573L201.802 724.229L207.888 731.163C215.001 739.264 213.302 744.758 205.892 737.724C201.565 733.634 201.486 733.634 198.167 737.349C195.085 740.806 195.006 741.438 197.851 745.666C201.566 751.396 198.483 754.084 193.464 749.54C190.145 746.517 189.67 746.516 185.284 749.993C180.641 753.629 180.641 753.629 184.513 757.403C187.971 760.88 187.912 765.366 184.355 765.366C183.585 765.366 180.265 762.58 176.946 759.102ZM768.62 738.89C750.481 714.113 753.267 711.406 781.285 726.541C796.796 734.938 798.653 736.42 796.262 738.81C794.01 741.043 792.706 741.122 789.386 739.265C785.988 737.487 784.683 737.644 782.293 739.956C779.665 742.663 779.665 743.275 782.826 746.753C785.83 750.072 785.988 750.922 783.676 753.234C781.364 755.486 779.27 753.551 768.62 738.89ZM775.259 731.005C769.786 726.836 768.323 727.607 772.018 732.626C774.113 735.412 776.029 736.499 777.116 735.412C778.262 734.404 777.571 732.705 775.259 731.005ZM164.36 745.982C163.826 744.599 165.605 739.877 168.292 735.57C174.634 725.612 173.152 724.288 163.984 731.638C157.8 736.499 156.259 737.032 154.48 734.799C152.623 732.626 155.093 729.702 167.758 718.973C176.254 711.722 184.197 705.774 185.363 705.774C189.295 705.774 195.776 718.499 194.472 723.675C193.385 728.082 183.111 734.483 180.107 732.626C179.495 732.172 176.709 735.648 174.002 740.272C168.924 748.847 166.138 750.547 164.36 745.982ZM187.833 719.822C187.833 715.12 183.881 714.566 179.791 718.656C176.413 721.976 176.175 722.904 178.487 724.366C181.807 726.382 187.833 723.438 187.833 719.822ZM784.684 719.664C768.62 706.703 766.92 704.53 771.643 702.771C773.48 702 776.583 703.304 779.665 706.149C782.431 708.698 789.544 714.408 795.412 718.814C803.968 725.137 805.746 727.231 804.047 729.306C801.044 732.942 801.123 732.942 784.684 719.664ZM792.943 709.33C784.288 703.146 776.958 697.436 776.642 696.507C775.733 693.879 787.687 681.53 791.164 681.53C795.867 681.53 804.284 688.723 804.284 692.734C804.284 695.283 806.675 696.744 813.551 698.522C823.351 700.992 823.806 701.446 821.178 705.536C819.874 707.631 818.333 707.711 813.472 706.011C810.152 704.846 805.667 703.916 803.514 703.995C800.194 703.995 800.649 704.924 806.754 710.101C812.543 715.12 813.393 716.661 811.299 718.361C809.224 720.06 805.371 718.123 792.943 709.33ZM797.408 697.594C798.653 694.432 795.255 690.875 790.927 690.875C786.067 690.875 784.842 694.512 788.695 697.436C793.081 700.834 796.183 700.834 797.408 697.594ZM137.745 712.413C135.887 710.239 138.12 707.849 150.094 699.135C158.037 693.267 165.743 687.557 167.146 686.47C169.062 684.929 170.683 685.7 174.081 689.651C180.108 696.587 179.87 704.47 173.626 709.33C167.521 714.191 163.589 714.27 157.642 709.547C153.018 705.932 153.018 705.932 146.834 710.476C139.503 715.969 140.432 715.733 137.745 712.492V712.413ZM169.773 702.455C174.634 697.12 170.919 693.425 164.834 697.436C159.815 700.676 158.966 702.297 161.198 704.529C163.352 706.703 166.671 705.854 169.773 702.455ZM808.908 686.173C799.72 680.542 791.935 675.365 791.698 674.595C791.402 673.824 792.864 670.505 794.859 667.185C802.961 653.907 818.254 658.847 818.254 674.832C818.254 682.538 818.866 683.861 824.201 687.102C828.212 689.572 829.911 691.725 829.141 693.583C827.659 697.515 827.738 697.594 808.908 686.173ZM812.385 675.128C813.551 671.966 808.987 666.632 805.134 666.632C800.431 666.632 799.878 670.959 804.126 674.437C809.303 678.527 811.002 678.684 812.385 675.128ZM134.88 678.606C133.101 675.978 132.252 672.422 132.944 670.722C133.951 668.114 134.88 668.49 138.654 673.192C141.124 676.294 143.139 679.831 143.139 681.076C143.218 685.087 138.12 683.624 134.88 678.606ZM820.644 662.858C814.776 659.855 809.066 655.607 807.9 653.433C805.055 648.118 807.129 641.243 812.701 637.627C817.009 634.762 817.938 634.84 827.738 638.851C846.884 646.576 852.752 654.757 846.034 664.399C842.023 670.11 833.685 669.655 820.644 662.858ZM841.49 657.543C841.49 652.663 818.412 640.551 815.25 643.712C811.773 647.269 814.618 651.28 824.201 656.219C835.226 662.009 841.49 662.483 841.49 657.543ZM106.862 661.396C103.701 658.235 108.028 654.441 124.605 646.182C140.136 638.397 143.455 637.31 144.364 639.701C144.996 641.321 145.154 642.863 144.838 643.179C141.835 645.728 107.632 662.167 106.941 661.396H106.862ZM100.302 646.953C99.2944 644.344 97.5949 640.551 96.528 638.555C94.7497 635.236 96.2909 634.07 113.738 625.811C124.23 620.792 133.497 617.096 134.267 617.551C138.278 620.021 134.267 623.736 119.824 630.908C103.997 638.772 103.997 638.773 106.783 644.108C109.253 648.968 109.253 649.659 106.625 650.667C102.377 652.287 102.317 652.208 100.302 646.953ZM835.464 636.539C815.705 628.28 814.776 627.055 820.96 616.86C825.979 608.68 834.159 608.443 841.49 616.386C845.797 621.029 848.208 621.957 855.301 621.957C863.936 621.957 865.023 622.807 862.237 627.272C861.091 629.05 858.304 629.368 852.219 628.518C840.936 626.819 838.862 630.296 848.82 634.307C853.918 636.302 856.388 638.397 856.388 640.788C856.388 645.411 856.526 645.411 835.464 636.619V636.539ZM837.479 624.507C836.392 619.093 830.84 616.939 827.204 620.555C824.28 623.499 824.359 623.795 828.588 625.495C835.385 628.202 838.091 627.905 837.479 624.507ZM91.727 624.882C90.2648 620.95 89.0395 621.721 110.418 612.77C128.004 605.519 131.876 605.123 131.955 610.834C131.955 611.525 108.877 621.72 95.2044 627.055C93.9794 627.589 92.4383 626.581 91.727 624.882ZM88.6445 610.676C84.6335 608.285 79.2393 595.797 81.314 593.703C82.1636 592.932 89.8893 589.77 98.5238 586.826C107.257 583.823 115.655 580.82 117.354 580.187C119.606 579.278 120.91 580.425 122.452 584.91C127.233 598.563 124.546 602.495 106.407 608.68C93.1295 613.224 93.1297 613.224 88.6445 610.676ZM110.102 599.038C114.963 597.023 117.136 594.947 117.136 592.319C117.136 587.538 118.045 587.538 102.317 593.328C95.046 596.015 89.1781 599.255 89.1781 600.658C89.1781 605.676 95.5995 605.203 110.102 599.038ZM849.117 605.736C836.708 601.567 835.147 601.428 833.685 604.115C831.828 607.435 826.592 608.206 826.592 605.123C826.592 604.037 827.975 598.958 829.595 593.861C831.828 587.143 833.527 584.752 835.7 585.127C837.538 585.522 838.467 587.222 838.17 589.771C837.617 593.249 839.554 594.394 853.523 598.958C865.635 602.89 869.429 604.886 869.429 607.435C869.429 611.762 866.267 611.446 849.117 605.736ZM70.506 506.725C70.506 505.718 71.2766 502.931 72.1263 500.62C76.8288 487.816 76.6112 486.65 67.7395 480.248C63.1753 476.929 59.4014 473.53 59.4014 472.681C59.4014 471.831 64.3414 471.14 70.427 471.14C81.3931 471.14 81.3931 471.14 84.4754 461.873C86.1747 456.775 88.1898 452.151 89.0395 451.697C89.81 451.223 91.8059 455.392 93.5842 460.944C96.8246 471.14 96.8244 471.14 107.87 471.14C113.955 471.14 118.974 471.831 118.974 472.681C118.974 473.53 115.2 476.929 110.576 480.248C105.933 483.568 102.238 486.492 102.238 486.887C102.238 487.184 103.464 490.978 105.005 495.364C109.49 508.187 108.719 509.194 99.5314 502.852C89.6521 496.075 88.7236 495.997 81.156 501.628C72.7388 507.792 70.585 508.878 70.585 506.804L70.506 506.725ZM847.121 506.804C847.121 505.717 847.813 502.931 848.662 500.54C853.365 487.736 853.148 486.571 844.256 480.248C839.712 476.929 835.918 473.53 835.918 472.681C835.918 471.831 840.858 471.14 846.884 471.14C857.534 471.14 857.85 470.981 860.083 465.034C866.267 448.436 865.793 448.596 869.804 460.411C873.44 471.14 873.44 471.14 885.868 471.219C898.296 471.219 898.296 471.219 893.574 475.388C891.045 477.621 886.717 481.176 884.011 483.251C878.992 486.966 878.992 486.966 882.39 497.695C884.248 503.563 885.394 508.345 884.939 508.345C884.406 508.345 880.316 505.797 875.672 502.556C866.485 496.293 865.793 496.371 853.147 504.709C849.828 506.942 847.121 507.871 847.121 506.804ZM95.2044 379.676C80.7015 374.815 72.4422 371.181 72.4422 369.56C72.4422 368.098 73.7465 363.554 75.4457 359.306C79.3777 349.506 84.179 347.648 96.9826 350.968C118.816 356.678 124.546 360.61 124.546 369.718C124.546 376.199 121.147 387.402 119.211 387.323C118.599 387.244 107.791 383.766 95.2044 379.676ZM116.208 370.489C116.208 366.636 114.43 365.55 101.685 361.618C90.0277 357.982 86.7082 357.607 84.4754 359.464C79.1604 363.85 81.8474 366.32 97.0616 371.042C114.884 376.516 116.208 376.515 116.208 370.489ZM829.22 376.97C822.264 360.313 821.494 361.162 849.057 352.35C862.552 347.963 873.756 344.644 873.973 344.94C874.21 345.177 875.593 350.276 877.214 356.065C879.684 365.313 879.683 366.873 877.372 367.722C873.519 369.185 871.74 367.643 870.357 361.301C868.954 354.978 868.342 354.82 860.617 358.06C856.151 359.917 855.38 361.084 856.526 364.088C858.779 369.877 858.542 371.952 855.38 373.196C853.286 373.967 851.903 372.663 850.519 368.632C848.741 363.475 847.971 363.079 842.715 364.166C834.693 365.865 833.606 367.328 835.858 373.196C838.388 379.993 838.328 381.218 834.851 382.541C832.835 383.312 831.215 381.692 829.22 376.97ZM105.933 345.258C95.2044 340.851 85.5621 336.84 84.5544 336.524C83.4677 336.149 83.7839 332.75 85.3251 328.047C88.8816 317.397 91.6477 313.919 95.4414 315.302C98.2866 316.468 98.2865 317.081 95.6783 323.325C94.1174 327.118 93.0504 330.359 93.2875 330.517C94.9077 331.367 104.313 335.219 104.847 335.219C105.163 335.219 106.467 332.75 107.791 329.668C110.26 323.721 111.031 323.266 114.805 325.657C116.662 326.803 116.741 328.423 115.279 332.216C114.192 335.061 113.343 337.611 113.343 338.006C113.343 338.54 124.23 342.708 125.692 342.708C126.008 342.708 127.549 340.16 129.169 337.077C130.869 333.758 133.576 331.525 135.729 331.525C140.215 331.525 140.274 330.813 135.413 343.479C132.805 350.434 130.473 353.754 128.478 353.596C126.858 353.517 116.662 349.723 105.933 345.258ZM818.57 345.178C814.321 340.93 818.333 337.611 836.392 330.439C854.531 323.266 855.459 322.634 855.459 317.477C855.459 313.92 856.526 311.766 858.542 311.371C860.774 310.976 862.79 313.998 866.188 322.554C868.658 328.975 870.357 334.903 869.962 335.674C868.421 338.539 862.395 336.919 861.466 333.441C860.557 329.964 859.549 330.122 843.407 337.077C822.423 346.028 820.111 346.719 818.57 345.178ZM132.015 324.333C128.399 322.475 118.599 317.476 110.181 313.228C95.2833 305.661 94.9079 305.266 96.9826 300.801C99.4524 295.248 97.9902 295.307 115.279 299.792C129.169 303.349 129.169 303.349 123.617 298.331C120.515 295.624 115.2 291.158 111.802 288.451C106.328 284.203 105.775 283.116 107.633 279.659C108.798 277.406 110.715 275.627 111.802 275.627C114.726 275.627 156.18 297.935 156.18 299.476C156.18 300.188 155.409 301.946 154.559 303.349C153.255 305.344 150.39 304.495 140.135 299.022L127.312 292.145L136.658 300.563C141.756 305.186 146.616 309.059 147.387 309.059C148.158 309.138 148.77 310.442 148.77 311.984C148.77 315.461 144.364 315.461 132.865 311.984C121.681 308.664 120.298 309.435 129.624 313.841C141.045 319.235 144.917 322.258 143.751 325.103C142.447 328.581 139.978 328.343 132.015 324.253V324.333ZM807.979 318.78C804.897 315.698 802.348 311.905 802.348 310.284C802.348 305.74 806.142 298.863 809.916 296.472C812.84 294.694 813.769 294.932 815.468 298.093C817.088 301.175 816.791 302.499 813.551 305.048C810.152 307.814 809.995 308.664 812.227 311.766C816.634 317.694 822.265 312.834 824.734 300.801C827.125 289.301 832.993 283.116 841.648 283.116C847.575 283.116 854.531 290.526 854.531 296.947C854.531 301.037 848.346 309.139 845.264 309.139C842.636 309.139 840.719 301.037 843.11 300.247C846.647 299.101 845.58 292.383 841.865 292.383C837.775 292.383 834.08 295.86 834.001 299.792C834.001 306.668 829.832 316.844 826.039 319.235C817.325 324.728 813.848 324.648 807.979 318.701V318.78ZM792.093 290.368C789.386 286.218 786.916 281.812 786.462 280.646C785.988 279.421 795.255 272.545 807.525 265.135L829.358 251.857L835.384 261.441C842.419 272.625 842.478 273.019 838.328 274.639C835.147 275.785 833.843 274.719 829.299 267.151C827.52 264.128 827.046 264.128 821.415 267.072C815.389 270.154 815.389 270.154 818.412 275.943C820.881 280.725 820.961 281.97 818.866 283.274C815.705 285.289 813.551 285.368 813.551 283.432C813.551 282.582 812.464 280.35 811.081 278.492C808.69 275.173 808.374 275.173 802.664 278.492C795.788 282.582 795.788 282.424 800.431 289.458C802.427 292.462 803.672 295.623 803.119 296.472C800.965 299.95 796.558 297.481 792.093 290.368ZM138.891 279.501C119.982 267.151 117.275 261.657 124.684 251.245C130.395 243.223 137.587 243.993 153.394 254.485C173.093 267.447 175.247 272.308 166.296 282.958C159.657 290.763 155.33 290.23 138.891 279.501ZM161.435 274.481C161.89 271.458 159.578 268.988 152.09 264.048C138.041 254.801 134.88 253.32 132.173 255.019C127.628 257.805 131.106 263.357 142.289 271.399C154.184 279.875 160.507 280.883 161.435 274.481ZM777.116 267.842C774.113 263.436 771.011 258.891 770.319 257.726C768.541 255.019 809.303 226.626 812.919 228.009C818.412 230.104 814.618 234.647 797.882 246.147C780.356 258.2 780.357 258.2 784.21 264.286C787.608 269.621 787.687 270.609 785.296 273.079C782.826 275.489 781.898 274.857 777.116 267.842ZM158.729 249.012C142.981 236.881 139.977 231.566 144.146 223.465C148.237 215.502 155.33 213.111 163.352 216.905C168.845 219.532 169.299 220.303 167.146 223.069C165.822 224.848 164.518 226.547 164.36 226.863C164.123 227.239 162.364 226.468 160.349 225.243C156.022 222.536 150.627 224.077 150.627 228.009C150.627 232.257 172.382 249.545 177.717 249.545C183.111 249.545 183.822 245.081 179.258 239.983C176.788 237.276 176.63 236.031 178.408 233.877C181.412 230.262 184.592 231.723 188.604 238.58C191.449 243.381 191.607 245.08 189.671 249.783C184.593 262.053 175.326 261.816 158.729 249.012ZM753.88 237.355C751.884 234.886 752.26 232.732 756.508 224.236C763.068 210.721 761.052 208.171 751.331 217.833C743.684 225.243 743.388 225.381 740.305 222.002C737.282 218.683 737.974 217.755 756.271 201.394L775.417 184.323L782.372 191.732C786.225 195.822 789.386 200.92 789.386 203.153C789.386 208.567 777.808 219.749 772.176 219.749C768.541 219.749 766.762 221.686 763.226 229.254C758.049 240.279 757.041 241.129 753.88 237.355ZM776.424 208.566C780.593 206.334 781.206 200.682 777.571 197.679C775.654 196.138 773.875 196.909 769.943 200.999C762.613 208.646 766.92 213.585 776.424 208.566ZM179.791 219.296L161.593 202.086L168.292 195.209C176.788 186.575 180.641 185.33 187.754 188.966C193.84 192.127 197.159 196.987 197.159 202.619C197.159 205.325 200.261 207.559 208.52 211.194C218.162 215.363 219.546 216.51 217.61 218.9C214.606 222.536 211.444 222.378 202.731 217.913C189.611 211.195 187.141 215.126 198.562 224.689C204.568 229.708 205.122 230.874 202.949 233.502C201.565 235.202 199.945 236.505 199.253 236.505C198.641 236.426 189.908 228.701 179.791 219.296ZM187.833 207.717C189.67 205.485 189.611 204.002 187.141 200.228C183.664 194.893 180.028 194.28 176.63 198.45C174.713 200.761 175.01 202.085 178.645 205.859C183.664 211.273 184.731 211.412 187.833 207.717ZM217.55 209.021C197.85 174.226 195.243 168.279 198.701 165.118C201.882 162.332 203.343 163.022 222.411 177.15C233.594 185.488 243.019 192.898 243.316 193.589C243.632 194.36 242.624 196.059 241.083 197.363C238.771 199.22 237.309 198.925 233.219 195.684C228.2 191.732 228.121 191.732 224.564 195.289C221.166 198.687 221.166 199.062 224.189 203.785C226.797 207.717 226.955 209.179 225.098 211.411C221.858 215.284 220.869 214.968 217.55 209.099V209.021ZM220.316 188.412C220.87 187.484 219.388 185.093 217.155 183.097C209.824 176.459 208.283 176.617 212.294 183.394C216.147 189.954 218.459 191.435 220.316 188.412ZM725.091 208.329C712.367 201.394 713.513 192.503 729.34 175.53C743.23 160.632 749.474 158.478 757.357 165.809C766.762 174.601 765.083 180.075 747.083 198.984C736.137 210.562 732.185 212.182 725.091 208.329ZM743.546 189.658C754.65 177.388 755.658 175.075 751.094 171.281C748.624 169.286 746.707 170.354 737.915 179.008C725.249 191.357 723.155 194.893 726.178 198.45C729.873 203.014 732.817 201.533 743.546 189.658ZM702.487 187.188C701.855 185.489 704.72 179.936 709.423 173.673C717.524 162.786 715.686 163.497 701.401 176.755C696.303 181.478 693.833 182.702 692.371 181.24C690.909 179.778 690.909 178.079 692.45 175.214C694.92 170.59 700.077 156.462 699.228 156.462C699.01 156.462 695.927 160.474 692.529 165.335C689.13 170.195 686.107 174.443 685.811 174.759C685.574 175.135 683.638 174.443 681.563 173.376C677.848 171.361 678.402 170.274 692.747 150.832C707.645 130.539 710.668 128.069 714.679 132.93C716.299 134.926 715.449 138.561 711.201 148.678C708.119 155.929 705.57 162.41 705.57 163.023C705.57 163.714 710.885 159.545 717.306 153.914C728.411 144.114 729.34 143.738 733.114 146.347C737.065 149.133 736.907 149.37 722.701 169.504C708.731 189.42 704.72 192.898 702.487 187.188ZM239.838 172.744C224.486 152.373 225.651 153.38 221.245 156.087C217.234 158.636 213.914 157.629 213.914 153.914C213.914 152.61 218.696 148.125 224.485 143.877C233.989 136.862 235.293 136.407 237.309 139.173C239.146 141.722 238.85 142.81 235.688 145.359C231.895 148.441 231.974 148.678 243.947 164.109C259.675 184.56 259.379 183.868 255.052 186.18C251.812 187.958 250.034 186.417 239.838 172.744ZM256.435 155.929C241.478 133.088 240.628 131.231 244.857 129.611C248.947 128.07 249.796 128.998 264.773 152.215C276.194 169.899 276.885 171.44 273.586 173.218C271.649 174.226 269.792 175.075 269.476 175.075C269.101 174.996 263.232 166.421 256.435 155.929ZM669.293 165.118C666.052 162.727 666.428 161.64 675.774 146.05C691.442 119.81 692.134 118.961 696.066 121.431C699.227 123.348 698.536 125.205 686.503 145.121C679.33 156.996 673.304 166.875 673.067 167.112C672.85 167.349 671.15 166.501 669.293 165.118ZM281.687 161.719C276.964 159.467 260.446 130.915 260.446 125.047C260.446 118.961 268.567 111.769 275.265 111.769C284.611 111.769 292.712 122.735 285.461 125.521C283.682 126.212 281.213 125.046 279.059 122.497C275.739 118.486 275.502 118.408 272.262 121.589C269.022 124.83 269.18 125.441 276.115 139.016C283.841 154.072 287.081 156.778 291.566 152.293C293.799 149.982 293.957 148.678 292.179 145.359C290.321 141.96 290.559 140.874 293.404 138.72C297.889 135.322 301.445 139.649 301.445 148.441C301.445 154.31 296.269 162.015 292.337 162.015C291.329 162.015 289.472 162.41 288.089 162.865C286.765 163.339 283.84 162.785 281.687 161.798V161.719ZM649.06 154.152C646.136 151.998 646.669 150.298 655.936 133.147C665.815 114.87 665.895 114.555 662.259 111.552C659.572 109.457 659.018 107.758 660.184 105.604C661.646 102.976 663.266 103.371 673.541 108.607C686.186 115.088 688.577 120.503 678.481 119.732C673.304 119.337 672.375 120.502 663.109 137.949C657.635 148.125 653.012 156.462 652.775 156.462C652.458 156.462 650.839 155.377 649.06 154.152ZM321.738 134.709C314.783 118.566 307.077 98.6493 307.077 96.8908C307.077 94.3419 319.505 89.4017 325.907 89.4017C333.079 89.4017 339.185 98.7279 338.098 108.074C337.485 113.468 338.572 116.017 344.737 123.505C352.68 133.148 352.68 133.089 347.049 134.768C344.203 135.697 341.812 134.076 336.794 127.674C330.767 119.949 325.67 116.866 325.67 120.956C325.67 121.885 327.29 126.45 329.305 131.153C332.921 139.649 332.921 139.648 329.305 141.643C326.065 143.343 325.215 142.573 321.738 134.709ZM329.068 104.833C328.298 98.965 323.042 95.0325 319.959 98.1149C318.339 99.7351 318.339 101.968 320.038 106.908C321.975 112.776 322.666 113.389 325.907 111.63C328.456 110.306 329.463 108.153 329.068 104.833ZM604.544 134.629C602.765 134.155 601.284 133.306 601.284 132.614C601.284 131.923 605.532 120.739 610.787 107.678L620.351 84.0665L629.933 87.7821C641.354 92.3266 642.579 93.3337 640.425 96.8112C639.121 98.9649 637.482 99.0447 632.008 97.3455C625.686 95.4091 625.132 95.5671 623.512 99.9733C620.904 106.77 621.279 107.995 626.535 109.931C629.696 111.156 631.08 112.935 630.704 115.009C630.013 118.408 627.385 118.803 620.746 116.709C617.505 115.642 616.418 116.788 613.573 124.83C609.859 135.005 609.325 135.696 604.544 134.629ZM355.466 129.69C355.466 129.295 352.146 118.328 348.214 105.366C343.196 89.1643 341.575 81.5187 343.038 80.9852C362.717 74.2673 364.811 74.0297 364.811 79.0484C364.811 80.4315 362.026 82.6044 358.706 83.9085C355.387 85.3114 352.462 86.4584 352.225 86.6955C351.909 86.8536 352.621 89.6188 353.767 92.8593C355.703 98.3522 356.394 98.7282 361.947 97.7205C370.601 96.1003 372.755 101.83 364.574 104.675C359.24 106.533 358.943 107.066 360.089 113.389C361.71 121.806 361.097 121.351 368.428 119.257C375.225 117.34 377.852 118.112 377.852 122.044C377.852 123.585 373.841 125.817 368.131 127.517C358.252 130.461 355.466 130.915 355.466 129.69ZM574.906 122.972C568.642 116.65 568.642 115.247 575.973 93.4924C582.315 74.7216 592.649 69.6432 603.141 80.135C608.081 84.9956 607.844 91.4764 602.212 108.232C595.198 129.057 586.01 133.998 574.906 122.972ZM593.42 106.217C598.596 91.7928 598.28 84.9962 592.57 84.2256C588.934 83.6922 587.946 85.3711 583.619 98.9651C578.284 115.72 578.601 119.81 584.924 118.882C588.243 118.408 590.1 115.721 593.42 106.217ZM377.003 98.5695C373.762 83.7505 372.379 73.6542 373.446 72.5675C374.375 71.6388 379.157 70.3346 383.938 69.643C394.529 68.1611 399.469 71.5593 401.306 81.4387C402.847 89.9349 399.607 96.6539 392.671 99.0447C386.487 101.198 386.27 102.127 389.115 112.48C391.209 119.811 389.727 122.814 384.254 122.893C383.167 122.972 379.927 112.005 377.003 98.5695ZM389.728 92.0103C393.521 90.5481 393.6 81.3601 389.964 78.2778C385.025 74.1877 381.093 77.4281 382.555 84.3041C384.491 93.5709 384.867 93.8676 389.728 92.0103ZM532.365 116.016C522.565 112.401 520.569 101.356 525.726 79.286C528.67 66.8578 532.069 63.3792 541.098 63.3792C549.278 63.3792 554.752 68.932 554.752 77.3492C554.752 86.695 546.493 85.8455 545.109 76.4206C544.714 73.1802 543.331 71.7173 540.782 71.7173C536.534 71.7173 532.681 83.5331 531.911 98.7275C531.516 106.532 531.753 107.145 536.08 107.145C539.478 107.145 540.941 105.979 541.316 102.897C542.008 98.1149 550.978 96.7324 550.978 101.435C550.978 106.612 546.809 113.251 542.324 115.325C537.384 117.558 536.613 117.558 532.365 116.016ZM415.058 111.769C412.963 109.694 411.343 107.461 411.264 106.691C411.264 105.92 410.039 96.4952 408.498 85.8453C406.324 70.3347 406.167 66.0862 408.024 64.9204C413.655 61.3046 414.287 62.5304 416.836 82.0718C419.839 105.683 420.136 106.533 424.858 105.842C429.64 105.13 429.956 100.98 427.328 75.9659C425.866 62.2337 425.925 61.522 429.482 61.522C433.967 61.522 434.58 63.6172 437.425 87.0115C439.757 106.059 438.59 110.701 430.647 113.704C423.534 116.411 419.148 115.859 415.058 111.769ZM446.079 103.372C445.388 98.5111 444.835 86.6158 444.835 77.0526V59.6057H454.18C465.601 59.6057 470.935 63.9922 470.935 73.4961C470.935 77.0527 470.086 80.4313 468.999 81.0636C467.853 81.8342 468.15 83.6912 469.928 86.2203C474.018 92.0096 473.563 103.055 469.078 107.066C467.004 109.002 461.352 110.86 456.353 111.314C447.245 112.164 447.245 112.164 446.079 103.372ZM461.827 100.822C465.601 97.7202 465.838 96.7329 463.902 92.4058C462.598 89.5408 460.206 87.5445 457.895 87.5445C454.713 87.5445 454.18 88.7701 454.18 95.9622C454.18 105.209 455.425 105.979 461.827 100.822ZM461.511 77.4276C464.455 73.9501 460.977 67.0948 456.353 67.0948C453.646 67.0948 453.172 68.3199 453.805 73.5757C454.654 80.4319 457.737 81.9919 461.511 77.4276ZM485.142 110.464C477.871 109.614 477.871 109.615 479.037 95.5667C479.728 87.7817 480.262 76.4999 480.262 70.4932C480.262 60.0606 480.499 59.6057 485.063 59.6057C489.844 59.6057 489.845 59.6058 488.521 80.9056C487.217 102.205 487.217 102.206 494.389 102.818C500.178 103.213 501.641 104.142 501.641 107.145C501.641 111.156 498.183 111.847 485.142 110.464ZM507.054 95.4871C509.524 63.3792 509.979 61.4629 515.155 61.4629C519.325 61.4629 519.641 62.0751 518.712 67.5483C518.159 70.8677 517.171 80.293 516.539 88.4731C514.998 109.615 514.306 111.769 509.761 111.769C505.888 111.769 505.81 111.235 507.054 95.4871ZM267.48 890.932C265.702 889.154 262.145 892.019 263.469 894.172C264.24 895.476 265.327 895.418 266.631 894.094C267.717 892.948 268.093 891.544 267.48 890.932ZM228.812 866.926C228.812 865.385 228.042 864.081 226.955 864.081C225.948 864.081 225.098 865.385 225.098 866.926C225.098 868.388 225.948 869.712 226.955 869.712C228.042 869.712 228.812 868.388 228.812 866.926ZM125.534 791.605C124.922 790.519 123.459 789.59 122.373 789.59C121.148 789.59 121.286 790.677 122.768 792.456C125.316 795.538 127.628 794.846 125.613 791.605H125.534ZM22.1169 584.752C22.1169 583.744 20.8723 582.895 19.3311 582.895C17.7899 582.895 16.5646 581.887 16.5646 580.741C16.5646 579.575 16.0116 579.12 15.32 579.733C13.9369 581.116 18.1059 586.609 20.4967 586.609C21.4253 586.609 22.1169 585.839 22.1169 584.752ZM943.899 551.261C943.899 548.929 941.983 548.929 938.347 551.261C936.114 552.723 936.332 553.02 939.73 553.099C942.062 553.099 943.899 552.249 943.899 551.261ZM24.3498 379.518C23.0457 378.214 22.1169 378.057 22.1169 379.223C22.1169 381.752 24.3495 383.925 25.5943 382.68C26.1278 382.147 25.5946 380.763 24.3498 379.518ZM31.9963 342.629C31.3837 340.554 30.5343 339.231 30.0601 339.764C29.0721 340.772 30.8304 346.403 32.1542 346.403C32.6087 346.403 32.5297 344.703 31.9963 342.629ZM323.813 31.6669C323.813 30.6592 322.587 29.8097 321.046 29.8097C319.505 29.8097 318.26 30.6592 318.26 31.6669C318.26 32.7338 319.505 33.5832 321.046 33.5832C322.587 33.5832 323.813 32.7338 323.813 31.6669ZM357.323 31.8249C357.323 30.8172 356.473 29.5727 355.466 28.8811C354.458 28.2686 353.609 29.1187 353.609 30.6599C353.609 32.2801 354.458 33.5832 355.466 33.5832C356.473 33.5832 357.323 32.7338 357.323 31.8249Z" fill="#C83E3D"/>
</svg>
