<svg width="961" height="643" viewBox="0 0 961 643" fill="none" xmlns="http://www.w3.org/2000/svg">
<path fill-rule="evenodd" clip-rule="evenodd" d="M173.471 638.357C141.447 625.941 125.773 599.871 126.357 559.732C126.688 537.148 125.789 535.466 111.053 531.656C87.6303 525.616 60.1007 509.328 43.7179 491.938C36.4647 484.319 35.5715 482.466 38.3469 481.411C40.2009 480.777 41.718 479.363 41.7348 478.357C41.7461 477.37 39.9032 477.492 37.5548 478.638C32.6556 481.241 31.751 480.223 20.1774 460.4C1.9013 429.106 -0.638052 408.003 0.114792 293.427C0.564252 217.166 0.912745 215.246 17.7675 183.952C29.6332 161.965 56.5894 137.011 80.8434 125.417C101.822 115.426 113.587 111.848 109.575 116.627C107.789 118.7 107.856 119.943 109.845 121.815C113.794 125.643 115.615 115.134 116.25 83.602C116.772 59.4395 117.514 54.1852 121.592 44.3715C127.829 29.4132 141.683 14.7353 155.999 8.00589C167.359 2.56263 167.786 2.56875 217.378 2.20302C246.565 1.9653 268.229 2.53828 269.729 3.7147C271.296 4.91551 272.218 4.757 272.24 3.25752C272.263 1.75803 281.37 1.20946 302.196 1.51424C322.939 1.81292 332.052 2.63581 332.029 4.13529C332.007 5.71402 332.754 5.81153 334.529 4.42786C338.339 1.37402 374.812 0.904664 619.447 1.13629C661.753 1.08753 700.575 0.733988 705.766 0.295114C715.39 -0.570444 716.643 0.282934 713.379 5.35437C712.171 7.17692 712.485 9.09088 714.131 10.889C717.929 14.778 718.339 14.2903 717.873 6.75021C717.48 -0.0218625 717.48 -0.0218598 751.745 0.733979C784.769 1.53858 786.522 1.81898 796.978 7.15253C811.344 14.5585 824.131 27.548 830.036 41.019C835.216 52.7162 838.654 81.3711 836.592 96.5427C835.463 104.9 835.463 104.9 843.946 107.21C891.679 119.852 926.737 148.799 946.086 191.492C958.497 218.757 959.384 226.565 960.339 315.389C961.154 397.129 960.649 408.491 955.165 428.984C946.243 462.21 916.574 500.014 885.814 517.448C871.392 525.609 856.172 531.254 853.346 529.456C852.183 528.755 851.256 528.907 851.245 529.919C851.228 530.925 849.02 532.644 846.497 533.784C841.868 535.795 841.795 536.392 842.418 556.55C843.419 590.691 834.39 613.811 814.17 628.806C796.832 641.698 795.332 641.85 642.032 642.027C605.312 642.07 522.173 642.204 457.445 642.332C174.82 642.722 185.202 642.874 173.556 638.357H173.471ZM806.917 621.443C807.596 620.357 806.709 619.425 804.934 619.401C803.175 619.376 802.242 620.284 802.911 621.382C803.647 622.467 804.467 623.399 804.871 623.405C805.298 623.411 806.237 622.503 806.917 621.443ZM48.0944 478.211C46.7011 476.76 45.7855 476.596 45.763 477.839C45.7237 480.515 48.0271 482.898 49.3924 481.57C49.8924 481.088 49.426 479.473 48.0944 478.211ZM14.6322 422.273C14.6491 421.182 13.7391 420.243 12.6492 420.231C11.5592 420.213 10.6208 421.121 10.6096 422.212C10.5927 423.303 11.4974 424.236 12.593 424.254C13.6829 424.272 14.6154 423.364 14.6322 422.273ZM957.845 332.249C957.856 331.158 956.952 330.243 955.862 330.225C954.766 330.213 953.834 331.097 953.817 332.188C953.806 333.279 954.71 334.211 955.8 334.23C956.896 334.248 957.828 333.34 957.845 332.249ZM949.738 274.256C950.418 273.171 949.513 272.239 947.844 272.214C946.176 272.19 944.726 273.092 944.71 274.183C944.693 275.274 945.536 276.207 946.519 276.219C947.614 276.237 948.974 275.335 949.738 274.256ZM128.109 90.8861C128.699 89.8864 127.885 88.5516 126.228 87.9481C124.48 87.1496 123.295 87.9054 123.267 89.6609C123.222 92.9159 126.312 93.623 128.109 90.8861ZM420.466 12.1021C419.826 10.4258 419.011 9.0848 418.606 9.07871C418.09 9.07261 417.73 10.3953 417.702 12.0655C417.679 13.7356 418.578 15.0949 419.584 15.1071C420.679 15.1254 421.039 13.7844 420.466 12.1021ZM437.753 8.60933C437.759 8.18265 436.45 6.75022 434.781 5.37874C432.393 3.24532 431.809 3.40379 431.77 6.07971C431.747 7.8352 433.051 9.29206 434.725 9.31644C436.416 9.34082 437.748 9.01773 437.753 8.60933ZM420.623 631.774C420.634 630.769 419.314 630.488 417.702 631.043C416.022 631.707 415.168 633.018 415.752 634.036C417.05 636.151 420.584 634.536 420.623 631.774ZM299.022 625.222C339.103 625.142 428 625.094 496.576 625.027C565.158 625.021 654.977 624.899 696.125 624.917C792.821 624.832 794.236 624.679 807.81 611.33C821.732 597.719 824.367 588.893 824.901 552.527C825.372 520.16 825.373 520.16 832.839 519.112C861.503 514.93 899.977 491.658 916.955 468.056C918.922 465.325 921.383 464.118 923.535 464.899C926.029 465.685 926.287 465.514 924.377 464.161C922.388 462.631 923.36 459.285 928.866 448.49C942.99 421.182 943.384 417.848 943.193 326.684C943.159 238.275 942.232 226.809 933.513 205.097C915.276 159.418 879.15 130.458 829.693 121.796C825.013 120.973 821.176 119.827 821.125 119.078C821.046 118.413 820.479 104.424 819.889 87.9481C819.08 64.1696 818.018 56.0626 814.956 48.9126C809.771 37.2703 799.961 27.1945 788.82 22.0011C780.269 18.0452 777.016 17.911 675.146 17.7526C617.447 17.655 532.123 17.844 485.447 18.167C438.871 18.5633 355.733 18.612 300.859 18.3865C246.008 18.2707 194.405 18.5023 186.197 19.0692C162.342 20.5626 149.689 28.1454 139.537 47.0779C135.16 55.191 134.593 58.8666 133.548 90.9653L132.351 125.996L118.019 129.385C70.1688 140.802 33.0207 176.32 20.2224 222.89C16.3345 236.964 15.638 261.041 16.7055 347.622C17.3403 396.556 18.6383 410.362 24.6274 429.697C28.6388 442.711 42.8866 468.184 51.1285 477.077C53.8477 480.052 55.8816 483.167 55.7804 484.002C55.6175 484.831 56.6737 485.769 58.1064 485.958C59.5166 486.239 66.4775 490.518 73.4273 495.48C90.0854 507.262 102.614 512.626 124.475 517.204L142.318 520.977L143.121 550.942C144.054 585.406 145.532 592.532 154.307 604.461C164.976 618.834 174.612 623.064 200.265 624.612C212.304 625.368 223.092 625.782 224.165 625.63C225.255 625.496 258.958 625.216 299.022 625.222ZM850.486 370.504C790.129 361.745 747.172 354.93 746.183 353.991C743.037 350.95 751.234 350.98 771.421 354.211C784.281 356.24 812.31 360.312 833.676 363.384C855.042 366.457 880.341 370.169 889.932 371.571C907.882 374.167 915.511 377.812 901.904 377.185C897.713 377.038 874.588 374.021 850.486 370.504ZM45.7181 343.184C45.7462 341.429 52.7746 340.782 114.643 336.997C135.492 335.802 165.454 333.888 181.185 332.87C206.9 331.237 214.091 331.596 211.203 334.321C210.765 334.803 187.405 336.735 159.454 338.57C131.486 340.435 98.0744 342.623 85.2817 343.507C56.5612 345.61 45.6844 345.519 45.7181 343.184ZM589.525 280.535C589.502 275.933 588.597 275 583.996 274.933C578.558 274.768 578.558 274.768 583.299 271.257C587.519 268.045 587.788 267.131 585.58 262.919C583.148 258.195 583.148 258.195 588.109 261.523C592.924 264.784 593.266 264.705 595.317 260.56C597.48 256.244 597.48 256.244 597.581 260.761C597.603 265.022 599.261 266.052 605.626 265.461C607.559 265.339 607.025 266.405 604.059 268.716C600.856 271.257 600.081 273.001 601.463 275.189C604.16 279.505 603.772 282.497 600.991 279.608C597.446 275.963 594.334 276.603 591.839 281.577C589.592 285.978 589.592 285.887 589.525 280.535ZM379.914 275.975C378.206 272.611 377.121 272.251 373.582 274.128C369.874 276 369.531 275.823 370.84 272.653C371.801 270.16 370.907 267.984 367.756 265.436C363.205 261.834 363.205 261.834 367.66 261.901C370.913 261.883 372.172 260.724 372.217 257.622C372.278 253.446 372.363 253.361 376.251 256.933C380.054 260.499 380.29 260.499 384.537 256.878C388.768 253.196 388.852 253.197 386.459 257.506C383.093 263.644 383.492 265.406 388.565 267.155C392.976 268.716 392.886 268.716 387.779 269.477C383.509 270.099 382.728 271.068 383.436 275.104C384.509 281.053 382.745 281.455 379.914 275.975ZM737.992 284.137C744.425 279.114 747.116 278.145 747.077 281.083C747.043 283.436 737.835 289.233 734.497 289.099C733.149 288.989 734.7 286.764 737.992 284.137ZM212.355 271.69C205.304 267.557 173.46 249.045 141.526 230.68C106.451 210.424 84.3212 196.551 85.4336 195.387C86.5404 194.332 97.3386 199.587 112.749 208.76C126.761 217.081 145.335 227.803 154.043 232.704C185.326 250.222 228.277 276.524 228.255 278.109C228.215 280.699 226.131 279.834 212.355 271.69ZM270.043 181.447C263.666 176.838 264.251 166.226 271.403 157.552C274.476 153.828 278.285 150.805 279.869 150.823C282.117 150.859 282.195 151.353 280.414 153.084C278.633 154.895 279.19 156.492 282.903 160.058C289.347 166.165 289.437 177.302 283.1 181.642C280.639 183.275 277.622 184.665 276.527 184.647C275.353 184.628 272.459 183.239 269.959 181.447H270.043ZM280.735 170.731C280.819 165.141 280.004 163.782 276.836 163.733C272.661 163.672 270.38 170.085 272.481 175.875C274.645 181.861 280.628 178.094 280.735 170.731ZM505.223 171.011C505.442 156.022 508.897 153.743 514.757 164.702L518.173 171.2L518.864 164.763C519.33 160.917 520.718 158.259 522.302 158.284C524.229 158.314 525.179 162.093 525.448 171.304C526.066 186.451 522.521 188.816 515.998 177.673L512.155 171.109L511.487 177.613C511.083 181.629 509.633 184.11 507.88 184.086C505.695 184.055 505.077 180.941 505.223 171.011ZM531.145 171.389C531.291 161.179 531.999 158.424 534.331 158.461C536.685 158.497 537.309 161.35 537.163 171.474C537.011 181.666 536.308 184.5 533.949 184.47C531.617 184.433 530.993 181.575 531.145 171.389ZM347.26 328.939C347.328 324.251 346.423 323.404 341.822 323.252C336.552 323.173 336.468 323.002 340.367 320.235C343.743 317.754 343.929 316.687 341.901 313.298C339.35 309.086 340.709 308.269 345.524 311.359C347.665 312.804 349.092 312.158 350.828 308.909C353.227 304.514 353.227 304.514 354.48 309.732C355.508 314.096 356.671 314.858 361.03 314.176C366.39 313.42 366.39 313.42 361.413 317.351C357.339 320.564 356.828 321.886 358.789 323.928C362.671 327.817 361.632 329.987 357.064 327.5C354.839 326.202 352.665 325.507 352.423 325.848C352.075 326.165 350.867 328.244 349.592 330.475C347.44 334.126 347.272 334.035 347.345 328.939H347.26ZM70.4326 323.892C56.4601 323.282 46.027 322.033 46.0438 320.942C46.0607 319.765 69.2362 319.357 107.614 319.918C173.589 320.881 211.602 323.02 211.563 325.696C211.54 327.299 127.93 326.165 70.4326 323.806V323.892ZM736.823 295.493C736.857 293.073 887.302 220.482 888.859 222.195C889.6 222.957 889.842 223.877 889.404 224.365C887.802 225.694 739.391 297.2 738.149 297.181C737.374 297.169 736.807 296.413 736.823 295.493ZM180.297 267.368C157.892 256.506 124.913 240.713 106.968 232.338C74.4103 217.154 69.8427 214.582 71.8821 212.601C72.5563 212.028 80.9668 215.319 90.5964 219.982C100.31 224.639 123.896 235.69 142.93 244.571C202.242 272.031 224.575 283.491 223.198 285.637C222.519 286.715 221.755 287.538 221.502 287.453C221.249 287.295 202.731 278.31 180.297 267.368ZM746.285 335.193C746.375 334.071 748.369 333.297 750.745 333.334C753.246 333.37 790.152 332.474 832.817 331.34C903.354 329.463 914.629 329.689 911.59 332.578C910.657 333.571 778.944 337.662 757.707 337.351C751.352 337.259 746.268 336.266 746.285 335.193ZM343.204 183.098C343.12 182.861 342.799 176.991 342.384 170.127C341.648 157.656 341.648 157.656 349.44 157.772C359.373 157.918 361.345 160.539 360.924 173.419C360.592 184.183 356.856 187.81 354.384 179.831C353.733 177.576 352.345 175.802 351.339 175.784C350.333 175.772 349.474 177.515 349.44 179.758C349.395 182.782 344.002 185.695 343.204 183.098ZM355.244 166.464C354.396 161.527 349.715 160.71 349.642 165.635C349.609 168.055 350.85 169.737 352.688 169.768C354.615 169.792 355.643 168.482 355.244 166.464ZM372.632 177.936C372.02 174.418 371.514 169.463 371.554 166.872C371.593 163.94 370.441 162.081 368.604 162.057C367.02 162.033 365.682 161.094 365.699 160.021C365.716 158.93 370.16 158.077 375.683 158.156C381.206 158.235 385.622 159.222 385.605 160.314C385.594 161.386 383.74 162.276 381.402 162.246C377.638 162.185 377.278 163.105 377.829 172.486C378.408 184.122 374.582 188.158 372.632 177.936ZM399.403 171.456C399.594 158.503 399.594 158.503 407.533 158.619C416.421 158.753 419.533 162.392 419.387 172.517C419.281 179.624 413.106 184.628 404.825 184.507C399.302 184.427 399.218 184.342 399.403 171.456ZM412.393 170.639C412.466 165.629 411.572 163.52 409.078 162.99C406.151 162.453 405.555 163.776 405.454 170.536C405.353 177.411 405.915 178.746 408.853 178.21C411.364 177.753 412.32 175.668 412.393 170.639ZM462.468 184.086C461.709 183.33 461.198 178.393 461.277 173.047C461.384 165.854 460.67 163.398 458.4 163.367C456.732 163.343 455.423 161.996 455.451 160.326C455.479 158.058 457.996 157.345 465.53 157.455C473.047 157.565 475.452 158.351 475.418 160.618C475.396 162.289 473.62 163.587 471.204 163.556C467.435 163.502 467.103 164.416 467.541 173.797C468.064 183.336 465.923 187.652 462.468 184.086ZM483.559 182.556C479.913 179.996 479.199 177.478 479.328 168.53C479.446 160.423 480.154 157.668 482.334 157.699C484.413 157.729 485.374 160.679 485.694 168.286C485.986 175.997 486.952 178.771 489.138 178.801C491.295 178.838 492.346 176.089 492.885 168.39C493.402 160.795 494.453 157.875 496.548 157.906C498.711 157.942 499.352 160.88 499.223 169.999C499.06 181.026 498.616 182.196 493.902 183.885C487.593 186.213 488.683 186.311 483.559 182.556ZM544.955 181.526C541.421 177.21 544.124 175.497 549.95 178.259C552.607 179.557 555.281 179.856 555.871 178.941C557.073 177.033 553.843 173.967 548.522 172.047C543.792 170.225 542.174 165.19 545.247 161.636C548.556 157.833 558.102 157.973 561.214 161.874C564.664 166.184 561.787 168.238 556.821 165.062C554.169 163.355 552.079 163.063 550.73 164.306C549.45 165.617 550.691 167.244 554.259 169.048C561.804 172.907 564.411 177.716 561.096 181.697C557.697 185.652 548.152 185.512 544.871 181.526H544.955ZM584.002 182.032C578.985 176.753 580.181 163.818 586.075 160.137C591.828 156.449 598.249 157.894 601.165 163.544C602.789 166.824 602.542 167.396 599.266 167.354C597.103 167.317 595.025 166.281 594.637 164.952C592.957 159.661 587.097 165.16 586.996 172.121C586.912 177.875 587.642 179.234 590.912 179.283C593.075 179.313 594.929 178.423 594.946 177.332C594.963 176.241 596.733 175.345 598.912 175.375C604.182 175.455 603.963 178.466 598.384 182.239C592.721 186.073 587.968 186.006 584.002 182.032ZM606.862 174.998C612.779 158.686 613.301 157.772 616.132 158.906C619.284 160.216 627.813 183.336 625.852 185.317C625.009 186.055 623.268 185.195 621.88 183.159C618.84 178.856 610.818 178.399 610.761 182.483C610.733 184.177 609.042 185.482 606.885 185.445C603.031 185.39 603.031 185.22 606.778 174.998H606.862ZM630.914 171.755C631.116 157.863 631.116 157.863 637.965 157.961C646.594 158.089 651.915 164.611 648.572 170.664C647.033 173.401 647.078 175.991 648.527 179.374C650.308 183.489 650.044 184.068 646.791 184.019C644.696 183.988 642.471 182.196 641.752 180.026C640.223 174.888 636.886 174.687 636.813 179.697C636.785 181.709 635.336 183.934 633.746 184.58C631.206 185.457 630.745 183.294 630.914 171.755ZM643.802 165.842C642.15 163.05 637.049 163.642 637.004 166.659C636.982 168.073 637.538 169.835 638.212 170.597C640.021 172.462 645.184 168.024 643.802 165.842ZM660.764 177.454C660.887 168.683 659.196 164.306 655.775 164.257C654.19 164.233 653.033 162.868 653.056 161.197C653.089 158.954 655.539 158.217 663.056 158.326C673.18 158.473 676.394 161.197 668.68 163.099C664.809 164.05 664.539 165.05 665.584 174.272C666.556 182.55 666.27 184.305 663.769 184.269C661.584 184.232 660.691 182.227 660.764 177.454ZM676.821 171.505C676.972 161.295 677.607 158.54 680.029 158.576C681.871 158.601 682.933 160.545 682.888 163.648C682.832 167.329 683.905 168.585 686.821 168.628C689.754 168.671 690.861 167.445 690.917 163.764C690.962 160.746 692.08 158.753 693.838 158.778C697.344 158.826 698.524 163.13 698.518 175.333C698.4 183.446 697.889 184.763 694.529 184.714C691.703 184.671 690.63 183.33 690.681 179.734C690.737 176.052 689.664 174.687 686.731 174.644C683.821 174.601 682.709 175.936 682.652 179.618C682.608 182.702 681.49 184.525 679.652 184.5C677.231 184.464 676.675 181.69 676.821 171.505ZM701.091 182.306C701.603 180.983 703.704 175.15 705.884 169.42C707.98 163.758 710.873 159.027 712.311 159.046C714.643 159.082 724.564 178.966 724.503 183.397C724.458 186.414 719.036 185.244 717.817 182.141C717.261 180.441 715.014 179.082 712.935 179.051C710.755 179.021 708.575 180.319 707.862 181.995C706.395 185.573 699.715 185.884 701.091 182.306ZM714.71 171.968C714.738 170.213 713.828 169.365 712.727 170.018C711.626 170.749 710.682 172.084 710.671 173.175C710.654 174.163 711.564 175.01 712.654 175.022C713.744 175.04 714.688 173.638 714.71 171.968ZM424.106 182.202C423.528 180.605 423.36 174.479 423.786 168.64C424.522 157.949 424.522 157.949 433.068 157.814C438.911 157.814 441.495 158.601 441.467 160.442C441.444 161.965 439.349 163.087 436.501 163.05C433.248 163.002 431.478 164.068 431.449 166.08C431.421 168.091 432.821 169.03 435.332 168.64C437.433 168.329 439.433 169.042 439.742 170.054C440.068 171.127 438.293 172.364 435.871 172.675C429.5 173.498 430.174 178.521 436.759 179.368C445.197 180.496 443.135 184.062 433.686 184.586C427.663 184.927 424.826 184.202 424.106 182.202ZM729.879 181.636C724.699 175.711 725.789 164.02 731.947 160.106C737.762 156.419 746.847 159.058 746.762 164.495C746.712 168.091 744.374 168.378 741.318 165.251C737.2 161.015 732.458 164.782 733.02 171.81C733.458 176.851 734.61 178.533 738.116 178.99C740.532 179.453 742.554 178.819 742.571 177.643C742.588 176.467 741.166 175.443 739.413 175.412C737.739 175.388 736.666 174.303 737.2 172.876C737.627 171.554 740.234 170.414 742.824 170.456C746.419 170.505 747.835 171.791 748.273 175.479C749.408 184.513 736.279 188.92 729.879 181.636ZM752.588 171.858C752.796 157.644 752.796 157.644 761.83 157.778C768.443 157.875 770.763 158.741 770.735 160.905C770.701 162.916 768.696 163.898 764.758 163.837C761.42 163.788 758.729 164.672 758.712 165.763C758.701 166.83 760.931 167.787 763.695 167.823C766.797 167.872 768.623 168.987 768.595 170.828C768.567 172.754 766.713 173.821 763.606 173.778C760.527 173.73 758.583 174.857 758.555 176.698C758.527 178.71 760.504 179.746 764.527 179.807C767.78 179.856 770.443 180.727 770.426 181.904C770.409 182.995 769.156 183.812 767.634 183.793C766.139 183.769 762.128 184.287 758.673 184.903C752.38 186.073 752.38 186.073 752.588 171.858ZM567.068 172.901C567.085 171.828 569.282 170.938 572.046 170.981C574.805 171.017 577.041 171.974 577.024 173.041C577.007 174.132 574.749 175.022 571.984 174.979C569.226 174.943 567.057 173.992 567.068 172.901ZM277.695 104.784L276.718 74.9221L266.914 74.7758C257.133 74.6356 257.132 74.6355 257.25 66.5225L257.368 58.4948L286.791 59.5005C316.219 60.427 316.22 60.427 316.809 66.9614C317.293 73.5018 317.293 73.5018 306.18 73.3372L295.134 73.1787L294.235 134.975L286.46 134.865C278.673 134.749 278.673 134.749 277.695 104.784ZM344.288 132.262C331.67 125.569 330.394 121.699 329.439 89.0758L328.624 59.6834L347.187 59.9577L347.002 78.366C346.816 113.159 349.283 121.717 359.576 121.949C368.846 122.174 370.256 117.932 370.688 88.07L371.093 60.3051L389.077 60.5672L388.678 88.009C388.352 110.081 387.593 116.749 384.661 122.314C380.346 130.622 370.076 136.084 359.031 135.926C354.598 135.859 348.03 134.158 344.288 132.262ZM407.572 98.8224C407.111 79.0731 407.274 62.0118 407.977 60.9329C408.656 59.787 412.758 58.9214 417.106 58.9884C424.899 59.0982 424.899 59.0982 436.546 79.6765C442.905 91.0507 448.939 101.675 450.007 103.382C451.22 105.302 451.58 98.1153 451.057 82.8828L450.304 59.47L468.288 59.7321L469.171 95.8661C469.772 117.798 469.317 132.847 468.21 133.92C467.187 134.975 462.833 135.426 458.664 135.023C451.141 134.335 450.72 133.817 439.079 112.665C432.467 100.682 426.77 90.557 426.371 90.1486C425.949 89.7097 425.719 99.5782 425.876 112.129L426.123 134.975L408.482 134.719L407.572 98.8224ZM489.363 116.481C488.767 105.704 488.441 88.6308 488.587 78.5062L488.857 60.0369L506.841 60.299L506.835 88.2163C506.813 141.168 507.908 135.078 498.543 135.609C490.34 136.084 490.34 136.084 489.363 116.481ZM545.64 134.798C535.544 132.634 530.241 129.129 526.915 122.467C521.881 112.458 522.999 110.379 533.039 110.526C539.635 110.623 541.977 111.489 541.943 113.653C541.887 117.676 550.669 123.241 555.944 122.485C561.972 121.735 565.484 116.006 562.787 111.623C561.658 109.764 554.523 105.655 546.944 102.443C539.393 99.2491 531.662 94.7689 529.791 92.4039C525.505 86.9911 525.533 74.8733 529.881 68.8327C539.691 55.252 567.276 56.0626 578.204 70.3748C585.176 79.4937 583.861 83.3277 573.67 83.1753C566.394 83.0717 564.647 82.2976 562.782 78.0917C558.888 69.0887 543.039 72.5387 544.742 82.005C545.118 84.1079 550.759 87.7043 559.248 91.2519C566.888 94.4459 575.102 99.4258 577.563 102.309C582.322 107.905 583.254 118.706 579.647 125.338C575.361 132.957 558.809 137.663 545.64 134.798ZM599.57 112.994C599.665 100.706 599.654 83.8154 599.621 75.6108C599.671 60.6465 599.671 60.6465 608.115 60.1893L616.576 59.6285L616.638 83.2241C616.616 102.541 616.177 126.703 615.661 134.231C615.559 135.066 611.958 135.676 607.525 135.615C599.581 135.499 599.581 135.499 599.654 112.994H599.57ZM631.47 133.457C631.493 132.024 637.263 115.042 644.229 95.6589C657.033 60.4758 657.033 60.4757 665.399 60.5977C673.77 60.7257 673.77 60.7257 686.636 96.2806C693.625 115.865 699.4 132.61 699.389 133.445C699.288 134.28 695.338 134.883 690.591 134.816C682.562 134.694 681.798 134.28 680.13 128.154C678.467 121.857 678.062 121.674 666.359 120.906C654.32 120.065 654.32 120.065 651.033 128.136C647.904 135.712 647.235 136.194 639.549 136.078C634.454 136.005 631.448 135.042 631.47 133.457ZM671.775 104.93C671.815 102.425 665.719 84.2664 665.045 84.9369C664.786 85.2539 663.039 90.2644 661.286 95.9088C658.05 106.417 658.05 106.417 664.904 106.521C668.669 106.576 671.764 105.85 671.775 104.93ZM291.713 169.883C291.898 156.931 291.898 156.931 297.999 157.022C306.539 157.144 311.759 160.563 311.68 165.915C311.596 171.779 308.034 175.15 302.017 175.065C298.168 175.01 297.32 175.833 298.106 179.008C298.898 181.959 298.134 182.952 295.286 182.91C291.949 182.861 291.544 181.355 291.713 169.883ZM305.73 165.915C305.747 164.416 303.949 163.124 301.764 163.093C297.999 163.038 296.269 166.866 298.91 169.579C300.809 171.535 305.685 168.933 305.73 165.915ZM318.602 178.819C310.32 166.555 321.315 152.67 333.844 159.643C338.327 162.045 339.114 177.107 335.029 181.136C330.973 185.012 321.956 183.793 318.602 178.819ZM331.254 171.554C332.024 164.282 328.484 160.399 324.259 163.764C321.029 166.391 320.838 173.754 323.978 176.973C327.692 180.794 330.484 178.734 331.254 171.554ZM554.596 203.012C554.618 201.836 555.298 200.495 556.141 200.099C559.939 197.886 820.091 200.099 820.058 202.372C820.035 203.872 812.765 204.512 797.546 204.463C785.236 204.451 772.022 204.494 768.252 204.78C741.722 206.322 554.573 204.768 554.596 203.012ZM198.455 170.536C204.135 154.066 207.653 153.858 213.355 169.512C218.501 183.458 218.496 183.799 214.642 183.745C213.057 183.72 211.658 182.867 211.675 181.69C211.692 180.599 209.524 179.728 206.844 179.691C204.169 179.655 201.394 180.447 200.714 181.526C200.034 182.696 198.27 183.507 196.748 183.482C194.675 183.452 195.034 180.612 198.455 170.536ZM207.9 170.584C207.922 168.829 207.018 167.982 205.916 168.628C204.832 169.298 203.894 170.7 203.877 171.791C203.86 172.797 204.77 173.644 205.843 173.663C206.933 173.675 207.872 172.255 207.9 170.584ZM63.4266 431.099C62.0277 428.807 53.8588 432.544 141.307 395.258C183.061 377.477 217.799 363.512 218.451 364.183C219.108 364.878 219.265 365.804 218.85 366.201C217.917 367.109 182.382 382.738 154.701 394.447C145.346 398.507 128.2 405.772 116.587 410.783C74.0734 429.155 64.4941 432.781 63.4266 431.099ZM568.557 478.534C568.574 477.443 569.259 476.212 570.102 475.712C573.468 473.749 832.036 475.681 832.008 477.693C831.974 480.198 784.298 481.021 659.842 480.704C601.312 480.509 568.54 479.796 568.557 478.534ZM423.376 580.877C423.567 567.821 423.567 567.821 431.843 568.54C441.765 569.436 445.81 574.184 441.776 580.31C439.978 583.193 439.776 585.461 441.169 588.161C443.86 593.294 443.675 594.299 440.074 594.244C438.405 594.22 436.085 591.94 434.882 589.161C433.663 586.381 431.938 584.083 431.017 584.071C430.096 584.059 429.315 586.314 429.275 589.076C429.23 592.16 428.023 594.068 426.185 594.043C423.848 594.007 423.23 591.154 423.376 580.877ZM436.399 576.208C436.461 571.862 430.697 572.441 429.798 576.793C429.241 579.463 430.067 580.31 432.663 579.835C434.77 579.457 436.377 577.793 436.399 576.208ZM744.504 319.259C744.537 316.931 743.7 317.175 830.603 299.705C902.646 285.277 908.612 284.363 908.568 287.465C908.556 288.386 901.59 290.446 893.106 292.08C875.588 295.335 850.745 300.321 788.921 312.719C740.689 322.398 744.464 321.85 744.504 319.259ZM134.245 295.213C96.4565 287.807 63.3426 281.547 60.5784 281.437C57.8199 281.23 54.2578 280.34 52.6678 279.31C46.1394 274.957 53.7354 275.067 76.9219 279.578C90.4394 282.199 115.778 287.087 133.396 290.361C187.27 300.504 213.861 306.331 213.838 307.916C213.799 310.677 204.203 309.122 134.245 295.213ZM746.397 327.403C746.431 325.324 750.442 324.617 792.41 319.96C809.417 318.046 837.317 314.944 854.323 313.091C902.921 307.617 910.292 307.148 910.264 309.22C910.247 310.226 905.944 311.597 900.758 312.188C895.567 312.774 884.499 314.023 876.285 314.999C837.766 319.552 750.459 329.305 748.532 329.274C747.29 329.256 746.386 328.409 746.397 327.403ZM131.009 310.153C87.164 305.398 50.1845 301.351 48.8362 301.247C47.426 301.137 46.3473 300.113 46.3641 298.876C46.3978 296.517 47.662 296.627 128.059 305.246C156.043 308.251 186.27 311.451 195.292 312.335C207.226 313.511 211.726 314.755 211.698 316.681C211.675 318.18 211.422 319.357 211.169 319.18C210.911 319.089 174.853 314.968 131.009 310.153ZM480.407 593.422C479.666 592.727 479.148 586.875 479.244 580.347C479.418 568.637 479.418 568.637 487.694 569.357C501.464 570.564 503.807 583.23 490.492 584.62C486.885 584.973 485.177 586.381 485.138 588.887C485.076 592.977 482.362 595.525 480.407 593.422ZM492.273 577.025C492.295 575.44 490.795 573.745 488.896 573.374C486.379 572.849 485.357 573.922 485.312 576.921C485.267 579.938 486.261 581.048 488.795 580.566C490.7 580.274 492.245 578.61 492.273 577.025ZM538.617 477.668C538.668 474.243 537.758 473.652 533.657 474.34C528.786 475.194 528.701 475.102 531.943 471.555C535.162 468.093 535.168 467.599 531.634 463.521C527.949 459.205 527.948 459.205 533.364 460.613C537.612 461.68 539.202 461.125 541.269 457.474C543.753 452.994 543.753 452.994 544.944 458.041C545.809 461.973 547.118 462.911 550.983 462.393C555.742 461.778 555.832 461.778 552.023 465.916C548.697 469.464 548.511 470.47 550.905 473.414C553.365 476.474 553.107 476.638 548.202 475.389C543.528 474.145 542.691 474.56 542.64 477.9C542.607 480.168 541.663 481.996 540.567 481.978C539.477 481.966 538.584 480.021 538.617 477.668ZM824.603 435.018C748.841 394.861 731.34 384.908 732.7 382.829C733.318 381.744 739.385 384.018 746.094 387.864C763.358 397.665 805.933 420.444 846.008 441.352C875.223 456.59 885.083 463.161 878.577 462.917C877.723 462.814 853.497 450.324 824.603 435.018ZM590.26 447.075C588.963 443.375 587.648 442.607 583.867 443.54C578.754 444.729 577.602 442.784 581.254 439.237C582.861 437.676 582.215 436.171 578.911 433.854C574.355 430.532 574.355 430.532 579.793 430.611C583.305 430.66 585.249 429.6 585.277 427.673C585.311 425.083 572.518 424.553 482.373 423.236C400.948 422.047 379.683 422.248 380.34 424.187C380.728 425.607 383.307 426.479 385.897 426.192C390.768 425.668 390.768 425.668 385.7 429.618C381.627 432.727 381.116 433.982 383.082 436.024C386.959 439.999 385.925 442.168 381.358 439.596C379.127 438.383 377.043 437.603 376.694 437.92C376.363 438.347 375.16 440.407 373.885 442.571C371.733 446.222 371.565 446.131 371.638 441.041C371.621 436.433 370.795 435.5 366.109 435.348C360.677 435.183 360.677 435.183 365.171 432.166C368.722 429.691 369.233 428.368 367.694 425.327C365.565 421.291 368.52 419.755 370.885 423.705C371.7 425.15 373.048 425.089 374.998 423.51C377.099 421.785 377.93 416.037 378.144 401.481C378.413 383.091 378.604 381.744 382.374 381.799C384.644 381.835 386.414 380.616 386.442 378.946C386.47 377.02 388.386 375.959 391.493 376.002C396.588 376.081 396.588 376.081 396.476 344.135C396.476 326.556 397.201 312.201 398.117 312.213C399.105 312.225 399.504 308.208 398.999 303.277C398.347 296.566 399.06 293.061 401.617 289.757C403.577 287.368 405.701 284.04 406.325 282.376C407.286 279.974 407.538 279.974 407.656 282.223C407.718 283.832 409.257 286.856 411.156 288.892C413.555 291.604 414.336 295.621 413.892 302.57C413.55 308.324 414.173 312.444 415.415 312.463C416.848 312.487 416.831 313.639 415.359 316.297C412.876 320.777 412.365 332.395 414.544 332.426C415.466 332.444 415.645 342.312 415.061 354.357C414.258 369.571 414.651 376.343 416.151 376.362C417.415 376.38 418.454 374.301 418.488 371.796C418.567 366.274 423.865 358.49 427.545 358.545C429.045 358.569 430.73 357.417 431.348 356.094C432.124 354.351 432.877 354.278 434.029 355.796C434.933 357.07 437.579 359.118 439.894 360.398C442.208 361.696 444.911 365.993 446.023 370.187C447.681 376.91 447.933 377.172 448.158 372.314C448.394 367.798 449.417 366.81 453.439 366.865C457.119 366.92 458.462 365.932 458.507 363.025C458.535 360.751 459.485 359.014 460.659 359.032C462.075 359.051 462.092 357.807 460.715 355.174C455.99 346.006 467.805 327.104 480.053 324.178C484.525 323.172 485.031 322.173 484.289 315.718C483.767 311.707 483.856 310.018 484.429 311.951C484.98 313.889 486.306 315.492 487.312 315.504C488.295 315.517 489.104 317.138 489.166 319.046C489.132 321.143 492.284 324.032 497.003 326.269C507.487 331.279 513.116 339.886 513.549 351.431C513.706 356.637 514.055 362.312 514.111 364.244C514.229 366.341 515.903 367.779 518.319 367.816C520.993 367.852 522.302 369.224 522.263 371.9C522.218 374.978 523.555 375.923 528.331 375.99C533.511 376.063 534.269 375.411 533.224 372.058C532.51 369.779 532.943 368.029 534.117 368.047C535.297 368.06 536.32 366.834 536.342 365.231C536.365 363.646 538.831 360.599 541.882 358.374C544.91 356.167 549.068 352.87 551.023 351.078C554.062 348.103 554.495 348.109 554.456 350.785C554.427 352.455 557.152 355.088 560.473 356.484C566.45 359.075 572.192 367.444 572.108 373.46C572.074 375.709 574.052 376.569 579.086 376.648C583.923 376.715 586.007 377.666 585.974 379.763C585.951 381.433 587.687 382.811 589.935 382.841C593.699 382.896 593.94 384.225 593.654 403.791C593.396 421.432 592.834 424.784 590.154 424.748C588.485 424.723 587.637 425.631 588.288 426.71C589.125 428.07 590.794 428.094 593.232 426.783C598.368 424.095 600.632 424.382 597.66 427.186C594.008 430.733 594.626 433.909 599.621 436.427C604.02 438.566 604.019 438.566 598.755 438.657C594.148 438.676 593.216 439.669 592.62 445.186C591.951 451.275 591.783 451.36 590.26 446.99V447.075ZM406.527 325.781C405.971 324.446 405.437 325.531 405.398 328.293C405.359 331.054 405.859 332.127 406.454 330.81C406.965 329.384 406.999 327.135 406.527 325.781ZM500.133 381.531C500.166 379.348 499.273 377.495 498.183 377.477C497.11 377.459 496.166 379.287 496.132 381.47C496.099 383.634 496.992 385.487 498.065 385.505C499.155 385.517 500.105 383.695 500.133 381.531ZM508.077 381.646C508.111 379.464 507.301 377.611 506.211 377.593C505.054 377.575 504.189 379.403 504.161 381.592C504.127 383.749 504.936 385.602 506.094 385.621C507.183 385.639 508.043 383.81 508.077 381.646ZM413.887 411.124C414.033 401.426 407.342 401.908 406.28 411.587C405.6 417.019 406.274 418.122 409.696 418.171C413.038 418.219 413.803 416.97 413.887 411.124ZM429.854 411.441C429.927 406.583 429.04 404.407 426.961 404.377C424.865 404.346 423.91 406.498 423.842 411.356C423.769 416.189 424.657 418.39 426.758 418.421C428.832 418.451 429.787 416.281 429.854 411.441ZM516.105 381.762C516.133 379.58 515.24 377.727 514.15 377.709C513.083 377.697 512.133 379.519 512.1 381.707C512.071 383.865 512.965 385.724 514.032 385.737C515.128 385.755 516.071 383.926 516.105 381.762ZM474.474 363.171C474.491 362.08 473.581 361.233 472.491 361.214C471.418 361.196 470.485 362.019 470.474 363.11C470.457 364.268 471.362 365.116 472.435 365.134C473.525 365.146 474.457 364.329 474.474 363.171ZM480.137 410.679C480.727 404.328 481.767 402.072 484.621 401.621C489.408 400.774 491.767 404.572 491.649 412.837C491.599 416.433 492.475 419.292 493.565 419.31C496.413 419.353 496.374 398.689 493.481 395.8C489.767 391.997 480.401 392.698 478.002 397.092C475.345 401.81 474.924 419.121 477.514 419.158C478.519 419.176 479.727 415.342 480.137 410.679ZM549.185 413.678C548.41 403.968 541.719 403.291 541.579 412.904C541.489 418.835 542.219 420.103 545.562 420.152C549.006 420.206 549.601 419.121 549.185 413.678ZM488.43 363.372C488.447 362.281 487.537 361.434 486.469 361.422C485.379 361.403 484.446 362.226 484.429 363.317C484.413 364.469 485.317 365.323 486.413 365.335C487.48 365.353 488.413 364.53 488.43 363.372ZM406.179 349.712C405.623 348.353 405.089 349.438 405.05 352.199C405.01 354.96 405.51 356.064 406.106 354.723C406.617 353.4 406.651 351.133 406.179 349.712ZM484.183 380.208C484.205 378.623 483.306 377.258 482.21 377.246C481.121 377.227 480.171 379.141 480.137 381.39C480.104 383.658 481.008 384.914 482.109 384.261C483.211 383.615 484.16 381.787 484.183 380.208ZM492.194 381.415C492.228 379.233 491.329 377.374 490.239 377.361C489.149 377.343 488.199 379.172 488.171 381.354C488.138 383.518 489.031 385.371 490.121 385.389C491.216 385.401 492.16 383.579 492.194 381.415ZM565.49 413.251C565.63 403.639 559.028 404.121 557.877 413.806C557.287 419.231 557.871 420.334 561.293 420.383C564.72 420.432 565.405 419.097 565.49 413.251ZM460.254 380.945C460.288 378.763 459.395 376.91 458.305 376.892C457.209 376.88 456.265 378.708 456.232 380.891C456.198 383.048 457.091 384.908 458.187 384.92C459.277 384.938 460.226 383.109 460.254 380.945ZM467.412 377.605C465.26 375.325 463.71 378.812 465.243 382.433C466.693 385.883 466.777 385.883 467.665 382.384C468.21 380.379 468.154 378.215 467.496 377.605H467.412ZM476.227 381.183C476.255 378.995 475.362 377.142 474.272 377.13C473.182 377.111 472.232 378.94 472.199 381.122C472.17 383.286 473.064 385.139 474.154 385.158C475.244 385.17 476.193 383.341 476.227 381.183ZM84.9391 469.458C84.0402 468.032 191.118 397.336 222.176 378.885C223.429 378.154 225.013 378.263 225.597 379.275C226.165 380.208 196.102 400.579 158.69 424.546C121.39 448.496 89.7256 468.867 88.4447 469.854C87.1019 470.842 85.5852 470.647 84.9391 469.543V469.458ZM877.409 438.725C836.188 421.554 747.83 383.39 741.032 379.757C733.975 375.996 736.042 372.515 743.183 376.13C749.897 379.483 819.389 409.424 859.61 426.326C875.909 433.178 889.623 439.736 890.01 440.901C890.977 443.845 889.05 443.564 877.409 438.725ZM54.7071 409.387C54.7184 408.552 63.1404 405.169 73.2925 401.89C95.4733 394.679 185.23 365.048 201.973 359.428C215.569 354.784 215.164 354.863 215.13 357.198C215.114 358.203 212.585 359.922 209.552 360.971C149.358 381.994 61.0447 411.063 57.449 411.014C55.9265 410.99 54.6959 410.222 54.7071 409.387ZM355.564 580.06C355.75 566.998 355.749 566.998 363.694 567.114C369.452 567.199 371.711 568.071 371.677 570.253C371.649 572.179 369.705 573.24 366.626 573.197C363.862 573.154 361.666 574.026 361.649 575.117C361.632 576.208 363.373 577.153 365.559 577.183C367.806 577.22 369.542 578.591 369.52 580.261C369.497 581.846 367.722 583.145 365.475 583.114C363.289 583.084 361.514 584.406 361.491 586.077C361.463 587.917 363.289 589.118 366.391 589.167C369.132 589.204 371.385 590.161 371.368 591.227C371.357 592.318 367.744 593.19 363.312 593.123C355.373 593.007 355.373 593.007 355.564 580.06ZM72.4946 450.8C72.944 449.544 80.9612 444.393 90.3043 439.432C99.6699 434.476 131.694 417.366 161.622 401.42C217.249 371.705 220.962 369.919 220.917 372.936C220.901 373.917 205.226 383.067 186.169 393.325C130.688 423.132 73.7251 453.152 72.6352 453.134C72.1407 453.128 72.0676 452.037 72.4946 450.8ZM407.381 582.718C407.521 573.112 407.027 571.777 403.6 571.722C401.353 571.691 399.611 570.746 399.628 569.655C399.645 568.564 404.089 567.705 409.589 567.784C415.112 567.869 419.528 568.851 419.511 569.942C419.5 571.033 418.157 571.935 416.573 571.911C414.219 571.88 413.516 574.459 413.393 582.809C413.269 591.264 412.483 593.842 410.213 593.812C407.965 593.775 407.257 591.178 407.381 582.718ZM839.16 464.502C832.603 460.229 804.843 442.248 777.353 424.546C734.02 396.635 723.429 388.796 728.778 388.876C729.441 388.882 751.886 403.023 778.657 420.133C805.428 437.329 833.85 455.475 841.722 460.449C855.385 469.086 859.015 472.737 853.497 472.396C852.172 472.317 845.694 468.769 839.16 464.502ZM182.601 608.301C171.893 602.79 164.572 595.165 159.465 584.303C155.729 576.306 155.055 570.856 154.639 542.159L154.032 509.2L140.093 507.731C86.1355 502.105 41.392 462.229 31.8354 411.24C28.9701 396.294 27.6893 346.433 28.2118 276.853C28.4703 235.471 28.8803 231.046 33.1446 218.885C35.6728 211.644 39.9986 202.519 42.8246 198.447C45.645 194.485 47.9543 190.322 47.9655 189.34C48.0273 185.061 78.1971 158.412 89.3942 152.713C101.451 146.617 122.789 139.991 137.037 137.864C144.504 136.712 144.503 136.712 144.992 103.424C145.256 85.0344 146.448 66.8334 147.661 62.9079C150.476 53.2526 164.072 38.6357 173.499 35.0271C185.691 30.3458 193.056 30.0411 309.719 30.5714C370.604 30.8579 424.045 30.742 428.399 30.2909C432.837 29.8643 504.695 29.5656 588.069 29.6022C671.551 29.6692 744.223 29.3766 749.751 29.0536C773.775 27.4749 793.708 37.4653 802.714 55.7518C806.546 63.3284 809.209 91.8857 809.08 124.167C809.13 132.628 809.13 132.628 816.557 132.823C863.964 133.75 913.006 172.596 926.529 220.135C932.332 240.646 933.99 395.55 928.58 416.799C923.535 436.811 910.91 458.443 895.904 473.018C875.201 493.206 856.745 502.313 825.058 508.036L813.569 510.139L813.074 544.067C812.754 565.901 811.9 577.518 810.585 576.659C809.507 575.982 809.153 576.811 809.81 578.579C813.024 587.229 793.517 606.429 776.707 610.958C773.612 611.836 736.453 612.531 694.232 612.689C652.072 612.738 598.626 612.964 575.631 613.116C552.545 613.378 492.402 613.336 441.9 613.177C391.369 613.019 332.658 613.165 311.416 613.518C279.122 614.055 272.937 613.732 273.723 611.47C274.864 608.063 312.837 607.271 469.901 607.655C596.772 607.905 746.167 607.258 766.757 606.295C783.404 605.533 793.613 599.663 801.843 586.064C807.568 576.616 807.568 576.616 807.524 540.239C807.389 503.775 807.388 503.775 813.063 503.861C816.08 503.903 824.962 502.684 832.671 501.209C877.291 492.487 913.871 456.645 923.967 411.721C927.473 396.038 927.917 330.225 925.04 259.103C923.248 214.734 914.545 193.54 887.544 168.475C868.981 151.146 847.295 142.045 814.49 137.718L803.057 136.285L803.31 118.986C803.574 101.181 802.467 78.5732 800.961 67.4429C799.68 58.385 789.826 45.3529 780.033 39.9462C771.814 35.3929 770.404 35.2832 719.727 35.0576C654.668 34.7711 453.249 35.2588 401.387 35.8257C380.054 36.1122 323.939 36.2158 276.684 36.106C226.929 36.039 187.438 36.8131 182.578 37.9834C172.072 40.507 160.83 49.4613 155.414 59.598C151.628 66.8212 151.223 70.9904 150.892 105.265C150.515 142.984 150.515 142.984 143.813 142.887C134.031 142.746 108.35 149.305 96.9845 154.919C72.2923 166.933 51.9148 188.56 41.0716 214.246C34.414 230.119 34.4143 230.119 33.875 300.942C33.3974 378.977 34.8524 405.504 40.6842 424.15C52.7577 462.46 89.0292 492.944 131.992 500.935C141.751 502.66 151.684 504.22 154.105 504.257C158.105 504.312 158.684 505.586 159.684 516.564C160.268 523.336 160.634 537.813 160.476 548.778C160.139 571.935 162.274 581.151 170.302 591.227C182.309 606.198 187.303 607.533 232.968 607.447C269.178 607.398 273.201 607.697 272.066 610.526C271.021 613.275 265.577 613.622 230.62 613.025C194.764 612.415 189.657 611.915 182.601 608.301ZM730.183 281.175C729.593 280.248 741.121 270.953 755.808 260.633C770.522 250.313 797.472 231.308 815.816 218.452C834.165 205.573 849.772 195.009 850.61 195.021C855.295 195.094 849.784 200.276 831.378 212.985C819.957 220.848 800.703 234.441 788.523 243.127C746.616 272.873 731.244 282.948 730.183 281.175ZM749.521 279.102C750.841 275.207 876.364 201.092 878.347 203.049C879.257 203.982 861.616 215.526 839.177 228.729C816.715 241.95 789.309 258.213 778.252 264.814C751.077 281.053 748.296 282.449 749.521 279.102ZM743.532 311.134C742.886 310.055 743.565 308.799 745.009 308.33C749.543 306.873 826.047 284.655 863.504 273.915C883.179 268.277 900.545 263.669 902.129 263.693C913.837 263.864 890.072 271.288 753.173 310.61C747.948 312.115 744.285 312.323 743.532 311.134ZM181.107 292.811C165.864 288.331 138.121 280.388 119.553 275.195C100.979 270.063 79.2476 263.961 71.2529 261.767C63.1682 259.469 56.095 257.116 55.5051 256.506C50.488 251.337 67.9159 255.616 166.679 283.973C192.579 291.397 214.333 297.474 214.911 297.48C215.49 297.492 215.99 298.419 215.973 299.51C215.928 302.594 210.996 301.686 181.107 292.811ZM866.706 353.674C861.273 353.254 833.44 351.608 804.945 350.011C751.296 346.957 746.122 346.305 746.172 342.965C746.189 341.788 749.616 341.496 754.616 342.251C759.296 342.898 795.81 345.36 835.834 347.615C875.864 349.871 909.455 352.632 910.511 353.65C912.264 355.497 892.674 355.552 866.706 353.674ZM619.638 336.772C618.503 334.077 616.672 333.364 613.318 334.15C608.525 335.26 606.812 332.56 610.784 330.201C612.127 329.384 611.744 327.622 609.508 325.08C606.312 321.441 606.401 321.185 610.34 321.24C613.334 321.283 614.705 319.893 615.256 315.876C616.087 310.366 616.088 310.366 618.683 315.754C621.195 321.057 621.368 321.143 626.509 317.882C631.846 314.621 631.846 314.621 628.324 319.832C624.992 324.879 624.987 325.227 629.206 328.281C633.588 331.536 633.588 331.536 628.167 330.621C623.655 329.871 622.728 330.542 621.998 335.053C621.352 339.624 621.009 339.874 619.638 336.772ZM895.977 399.086C892.735 398.031 868.734 392.332 842.632 386.444C773.617 370.797 743.863 363.08 743.897 360.745C743.914 359.569 745.936 359.191 748.431 359.721C785.77 368.724 884.965 391.905 893.55 393.697C900.634 395.239 905.039 397.141 905.017 398.811C904.972 401.743 904.46 401.737 895.977 399.086ZM47.4093 365.286C47.4205 364.366 57.5612 362.263 69.8932 360.52C82.2983 358.77 118.84 353.29 151.201 348.323C204.844 340.069 214.389 339.118 210.827 342.574C208.956 344.391 60.5897 367.145 51.3027 367.011C49.1397 366.981 47.3981 366.207 47.4093 365.286ZM453.17 590.349C453.203 588.076 451.529 582.7 449.344 578.408C444.703 568.985 444.714 568.302 448.4 568.351C449.984 568.375 451.793 570.247 452.428 572.435C453.08 574.611 454.468 576.47 455.389 576.482C456.31 576.501 457.664 574.678 458.462 572.526C459.159 570.35 461.03 568.54 462.614 568.558C466.12 568.613 466.097 570.283 462.406 576.586C460.782 579.323 459.361 584.4 459.311 587.997C459.181 592.428 458.142 594.507 456.13 594.482C454.462 594.458 453.142 592.593 453.17 590.349ZM221.019 182.489C220.283 181.812 219.788 175.942 219.884 169.518C220.052 157.894 220.052 157.894 230.154 158.04C236.345 158.131 239.778 158.93 238.991 160.161C238.221 161.246 235.536 162.124 232.862 162.087C229.862 162.045 227.918 163.105 227.889 165.031C227.867 166.872 229.777 167.969 232.856 168.018C235.62 168.055 237.873 169.012 237.862 170.103C237.845 171.194 235.558 172.084 232.8 172.041C225.951 171.944 226.187 177.466 233.047 178.405C235.957 178.765 238.783 180.246 239.188 181.575C239.985 184.263 223.575 185.116 221.019 182.489ZM741.144 303.07C741.678 301.576 749.251 297.687 757.993 294.365C766.757 291.068 801.141 277.78 834.452 264.973C894.589 241.761 899.303 240.225 899.258 243.243C899.241 244.419 766.915 296.419 742.296 305.014C741.11 305.422 740.633 304.496 741.144 303.07ZM195.169 285.826C178.46 279.047 130.228 261.108 83.0514 244.212C59.0896 235.489 60.4886 236.263 62.1123 233.782C63.4045 231.619 69.7362 233.807 161.061 268.265C193.489 280.535 220.097 291.196 220.086 292.031C220.041 294.883 213.305 293.195 195.169 285.826ZM425.146 477.272C424.309 471.652 421.489 469.769 417.264 471.981C412.556 474.413 411.583 472.39 415.556 468.44C417.601 466.459 417.353 465.539 414.64 463.911C411.218 461.936 409.78 457.822 412.707 458.358C417.213 459.089 419.224 457.706 419.286 453.683C419.432 449.251 419.432 449.251 422.814 453.732C425.275 457.041 427.017 457.736 429.202 456.353C434.276 453.238 435.59 454.177 432.36 458.645C429.624 462.546 429.702 463.21 433.652 466.697C437.944 470.525 437.944 470.525 432.607 469.269C427.961 468.111 427.18 468.611 426.359 473.609C425.904 476.705 425.371 478.37 425.146 477.272ZM865.846 412.544C814.237 395.648 740.818 370.742 739.913 369.894C739.425 369.462 739.694 368.541 740.284 367.974C741.717 366.56 741.397 366.469 814.31 390.698C847.104 401.56 879.471 412.142 886.314 414.166C893.797 416.378 898.707 418.865 898.679 420.536C898.657 422.06 898.387 423.212 898.129 423.12C897.808 423.053 883.319 418.238 865.846 412.544ZM50.9937 388.266C51.0275 385.913 211.26 346.695 213.074 348.56C214.715 350.255 211.181 351.961 200.781 354.57C128.081 372.906 50.9657 390.174 50.9937 388.266ZM713.154 552.82C713.199 549.802 714.659 541.97 716.339 535.399C721.834 514.15 720.278 512.205 709.44 526.841C703.479 534.783 703.479 534.783 703.563 529.023C703.614 525.75 704.923 521.251 706.625 518.941C709.446 514.955 709.362 514.802 705.17 515.729C702.743 516.381 699.535 517.661 698.108 518.728C694.125 521.775 693.411 519.325 696.99 514.455C698.782 511.974 702.597 509.011 705.541 507.963C710.839 505.878 710.839 505.878 705.35 503.44C698.715 500.496 700.333 498.271 708.94 498.399C712.788 498.454 716.772 500.1 718.918 502.55C721.952 506.037 722.952 506.201 725.666 503.91C730.672 499.807 735.441 498.698 740.357 500.697C744.594 502.428 744.503 502.684 738.026 504.927L731.138 507.244L738.121 510.194C743.779 512.547 749.526 519.484 749.459 523.823C749.453 524.256 745.307 522.184 740.172 519.258C730.874 513.857 730.874 513.857 734.228 518.764C737.829 524.086 738.599 534.716 735.34 534.667C734.25 534.655 733.436 533.46 733.453 532.052C733.475 530.614 731.351 526.493 728.728 522.86L724.07 516.259L722.784 523.866C722.059 528.029 721.171 537.544 720.806 544.902C720.294 556.434 719.688 558.354 716.671 558.312C714.081 558.275 713.097 556.757 713.154 552.82ZM227.873 538.715C227.322 529.669 226.131 520.123 225.249 517.435C223.564 512.894 223.215 513.12 218.147 523.007C212.967 533.058 212.732 533.223 211.456 528.109C210.748 525.164 211.243 520.568 212.439 517.996C214.338 513.912 214.175 513.504 211.248 514.467C209.394 515.192 205.776 516.978 203.248 518.526C199.012 521.141 198.776 521.05 200.068 517.643C202.338 511.748 205.467 508.518 211.776 506.019C217.681 503.599 217.681 503.599 211.344 502.178C203.832 500.38 203.293 497.863 209.995 496.296C215.215 495.041 225.03 498.698 224.985 501.782C224.974 502.788 227.406 501.727 230.288 499.521C235.851 495.26 242.221 494.431 246.694 497.406C248.688 498.698 248.014 499.442 244.149 500.301C238.109 501.733 237.137 505.47 242.812 505.549C246.576 505.604 254.756 512.748 254.711 515.936C254.7 516.771 251.604 516.149 247.795 514.485C238.901 510.609 237.553 510.657 241.261 514.991C242.986 516.942 244.519 520.306 244.66 522.556C245.452 531.284 244.43 532.339 240.918 526.438C238.89 523.159 235.278 518.587 232.8 516.369C228.26 512.297 228.26 512.297 229.671 518.331C232.266 529.571 236.221 550.375 236.188 552.881C236.165 554.228 234.57 555.276 232.468 555.246C229.3 555.197 228.67 553.027 227.873 538.715ZM241.761 171.249C241.952 157.961 241.952 157.961 251.469 158.759C259.576 159.393 260.998 160.161 261.52 164.087C261.824 166.622 261.178 169.78 260.003 171.09C258.717 172.675 258.604 174.668 259.756 176.521C262.369 180.758 261.97 184.433 258.891 184.391C257.368 184.366 255.239 182.068 254.02 179.374C251.261 173.145 248.357 172.761 248.503 178.716C248.548 181.392 247.278 183.385 245.087 183.763C242.081 184.379 241.592 182.788 241.761 171.249ZM255.795 166.104C255.829 163.855 250.188 161.417 248.582 162.977C247.891 163.569 247.862 165.495 248.52 167.177C249.716 170.359 255.745 169.445 255.795 166.104ZM424.056 242.664C423.517 238.482 422.438 237.781 417.421 238.22C411.398 238.708 411.398 238.708 415.96 235.605C420.264 232.655 420.269 232.246 417.32 227.51C414.14 222.518 414.14 222.518 419.208 224.523C423.697 226.254 424.539 225.95 426.213 221.201C428.045 215.874 428.045 215.874 429.377 221.5C430.489 226.035 431.545 227.059 434.832 226.273C438.765 225.237 438.759 225.407 435.366 229.016C431.978 232.649 432.056 232.996 435.512 236.983C439.13 241.127 439.13 241.213 434.118 239.878C430.129 238.811 428.686 239.39 426.876 243.108C424.736 247.686 424.736 247.686 424.056 242.664ZM545.315 243.425C544.511 241.255 542.68 240.713 538.64 241.572C533.359 242.761 533.275 242.676 536.601 239.213C539.988 235.751 539.91 235.404 536.117 231.173C532.089 226.834 532.089 226.834 536.915 227.827C540.674 228.565 542.034 227.748 543.073 224.17C544.399 219.842 544.567 219.757 546.618 223.213C548.163 225.913 550.079 226.602 554.011 225.657C559.057 224.487 559.124 224.639 555.821 227.949C552.517 231.155 552.511 231.649 555.545 235.056C558.512 238.439 558.422 238.695 554.422 238.634C551.489 238.592 550.124 239.817 550.079 242.578C550.011 247.266 546.921 247.796 545.315 243.425ZM523.139 581.584C523.336 568.357 526.224 565.724 536.117 569.637C542.269 572.081 544.539 576.781 541.314 580.499C539.679 582.407 539.578 584.821 540.943 588.442C543.348 595.006 538.326 596.024 535.056 589.618C533.932 587.418 532.117 585.546 531.027 585.534C530.021 585.516 529.072 587.344 529.044 589.527C529.01 591.776 527.656 593.513 525.988 593.489C523.718 593.452 523.094 590.77 523.229 581.584H523.139ZM535.848 576.653C536.033 575.586 534.617 574.385 532.696 574.014C530.538 573.581 529.263 574.477 529.229 576.555C529.179 580.066 535.044 580.152 535.848 576.653ZM350.906 388.62C348.811 383.987 347.901 383.481 344.446 385.273C340.131 387.455 339.007 385.45 342.653 381.909C344.26 380.324 343.535 378.812 340.294 376.435C335.737 373.18 335.737 373.18 341.176 373.259C345.777 373.326 346.625 372.418 346.693 367.816C346.856 362.312 346.856 362.312 350.637 367.377C353.575 371.424 354.918 371.961 356.957 369.974C361.019 365.944 363.104 367.219 359.845 371.772C357.047 375.673 357.103 376.337 361.075 379.818C365.368 383.737 365.368 383.737 360.536 383.091C356.435 382.512 355.328 383.506 354.424 388.266C353.328 394.179 353.328 394.179 350.906 388.705V388.62ZM610.784 393.252C609.908 390.479 607.829 389.12 604.149 388.979C598.794 388.9 598.795 388.9 603.278 385.456C606.587 383 607.278 381.342 605.896 379.05C602.778 374.082 603.806 372.662 608.278 375.917C612.087 378.733 612.756 378.574 616.155 374.594C619.897 370.303 619.897 370.303 619.919 374.82C619.857 378.849 621.852 380.287 626.38 379.604C628.976 379.214 627.931 381.878 624.554 384.267C621.852 386.218 621.661 387.395 623.599 391.107C625.807 395.398 625.717 395.483 621.492 393.149C617.841 391.107 616.661 391.259 614.543 394.057C612.228 397.129 611.908 397.123 610.784 393.252ZM479.109 229.162C480.177 225.005 479.542 223.067 476.148 220.598C471.676 217.428 471.676 217.428 477.115 217.507C481.289 217.568 482.806 216.416 483.958 212.174C485.368 206.67 485.368 206.67 487.126 212.217C488.503 216.349 490.239 217.703 494.155 217.757C499.442 217.837 499.441 217.837 494.947 220.872C491.396 223.329 490.885 224.731 492.424 227.687C495.447 233.581 494.677 234.66 490.368 230.655C486.587 227.175 486.244 227.169 482.104 230.71C477.789 234.496 477.789 234.496 479.109 229.162ZM139.531 201.702C139.571 199.026 145.352 198.703 183.972 199.099C208.4 199.367 231.564 199.367 235.424 199.184C239.261 198.898 278.246 198.892 322.074 199.099C380.178 199.373 401.836 200.093 402.409 201.708C402.965 203.39 380.453 203.982 319.731 204.012C273.824 204.006 214.518 204.146 187.921 204.42C145.183 204.719 139.492 204.378 139.531 201.702ZM594.929 584.711C595.047 576.683 594.407 574.83 591.081 573.861C582.917 571.667 587.311 568.455 598.356 568.613C606.379 568.735 609.216 569.46 608.593 571.295C608.082 572.612 606.228 573.422 604.39 573.075C601.638 572.606 601.12 574.349 600.986 583.559C600.862 591.989 600.076 594.568 597.806 594.537C595.559 594.5 594.822 592.075 594.929 584.711ZM139.531 477.364C139.576 474.279 164.909 473.731 322.647 473.53C392.167 473.457 401.027 473.816 400.987 476.492C400.948 479.107 396.83 479.54 374.503 479.296C300.264 478.559 157.324 478.546 149.026 479.345C141.655 479.985 139.498 479.546 139.531 477.364ZM116.705 469.921C121.896 465.075 211.125 396.879 221.181 390.064C225.311 387.303 229.361 385.602 230.013 386.279C230.749 387.041 230.912 387.876 230.474 388.297C210.192 403.633 142.622 454.585 136.863 458.937C132.385 462.21 126.469 466.898 123.761 469.36C117.317 474.962 110.867 475.535 116.794 469.927L116.705 469.921ZM503.234 581.377C503.403 569.582 503.402 569.582 511.358 568.954C516.886 568.516 519.296 569.156 519.274 570.911C519.251 572.234 517.072 573.38 514.313 573.343C511.144 573.294 509.285 574.422 509.257 576.348C509.228 578.445 510.712 579.305 513.566 578.92C515.903 578.634 518.246 579.5 518.633 580.92C519.19 582.45 517.594 583.346 514.335 583.297C511.066 583.248 509.139 584.376 509.116 586.217C509.083 588.228 511.06 589.265 515.083 589.326C518.341 589.374 520.999 590.331 520.987 591.422C520.971 592.495 516.954 593.355 512.01 593.281C503.06 593.153 503.06 593.153 503.234 581.377ZM547.073 580.67C547.236 569.302 547.775 567.644 550.764 568.266C552.685 568.631 555.472 572.764 557.242 577.738L560.366 586.473L563.091 577.305C565.035 570.57 566.737 568.156 569.501 568.193C572.771 568.241 573.243 569.857 573.074 581.225C572.928 591.41 572.226 594.165 569.872 594.129C567.793 594.098 566.821 591.837 566.81 586.57L566.664 579.116L564.54 586.534C561.99 595.683 558.062 596.14 555.427 587.411L553.427 580.932L553.163 587.375C553.011 591.721 551.91 593.867 549.899 593.836C547.545 593.8 546.921 591.032 547.073 580.67ZM481.963 486.562C480.935 482.264 479.457 481.003 475.176 480.942C469.738 480.771 469.738 480.771 474.238 477.413C477.53 474.938 478.222 473.188 476.839 471.006C473.721 465.929 474.749 464.618 479.306 467.94C483.205 470.756 484.036 470.683 487.593 467.654C491.391 464.368 491.559 464.435 490.245 469.275C489.188 472.944 489.992 475.054 493.29 477.693C497.672 481.265 497.672 481.265 492.576 481.192C488.812 481.137 486.947 482.612 485.39 486.611C483.385 492.084 483.385 492.084 481.963 486.562ZM579.007 581.139C579.266 563.584 584.03 564.316 584.603 582.054C584.974 592.099 584.423 594.342 581.923 594.305C579.502 594.269 578.856 591.666 579.007 581.139ZM375.531 580.347C375.756 565.133 378.885 563.249 385.577 574.459C390.717 583.078 392.319 583.419 390.824 575.629C389.835 570.174 392.408 565.608 394.959 568.32C395.611 568.93 396.448 574.873 396.926 581.499C397.69 592.385 397.352 593.623 394.01 593.489C391.83 593.458 388.532 590.325 386.009 585.942L381.683 578.427L381.492 585.875C381.329 591.142 380.374 593.373 378.279 593.342C375.941 593.312 375.318 590.538 375.469 580.347H375.531Z" fill="#25549A"/>
</svg>
