<svg width="963" height="971" viewBox="0 0 963 971" fill="none" xmlns="http://www.w3.org/2000/svg">
<path fill-rule="evenodd" clip-rule="evenodd" d="M480.063 966.81C471.279 962.509 471.279 962.509 463.953 966.18C454.611 970.806 454.756 970.806 446.602 964.759C439.78 959.773 439.78 959.773 432.454 963.085C422.824 967.441 421.708 967.368 414.113 961.321C407.651 956.191 407.651 956.191 398.507 959.143C389.291 962.023 389.291 962.023 382.469 955.831C375.432 949.441 373.686 949.225 362.652 953.311C360.528 954.085 358.494 954.715 358.152 954.715C357.864 954.715 354.624 951.619 350.97 947.821C344.365 940.927 344.364 940.927 335.509 943.033C326.581 945.157 326.581 945.157 319.957 938.119C313.351 931.009 313.351 931.009 303.722 932.143C294.02 933.259 294.02 933.259 288.674 925.538C283.328 917.798 283.328 917.798 273.842 918.86C264.483 919.832 264.357 919.832 261.189 914.486C255.555 904.856 252.531 902.822 243.459 902.822C235.108 902.822 235.107 902.822 230.878 894.452C226.594 886.083 226.594 886.083 217.378 886.083C208.234 886.083 208.234 886.083 204.166 876.885C200.441 868.443 199.594 867.669 194.537 867.453C183.485 867.111 181.037 865.563 178.157 856.833C175.475 848.824 175.133 848.536 166.547 846.646C156.144 844.252 155.784 843.91 153.048 833.848C151.014 826.324 150.582 825.964 142.788 824.074C133.428 821.824 133.284 821.68 130.62 811.205C128.856 804.041 128.154 803.339 120.001 800.243C111.289 796.931 111.289 796.931 110.227 788.003C109.111 779.148 109.111 779.076 100.669 776.052C91.4535 772.74 91.7415 773.1 90.1936 761.706C89.2036 754.398 88.5015 753.408 82.1117 750.186C73.3099 745.74 72.68 744.696 72.608 735.067C72.608 727.615 72.266 727.111 65.0842 722.899C57.4884 718.471 57.4884 718.471 57.4884 708.769C57.4884 699.068 57.4884 698.996 50.1086 694.352C42.7288 689.636 42.7289 689.636 43.7188 680.492C44.6368 671.492 44.5647 671.366 37.5989 665.247C30.5611 659.127 30.5612 659.127 32.2531 650.757C33.8731 642.459 33.8011 642.387 27.2673 635.565C20.5894 628.816 20.5894 628.816 22.6233 620.032C24.6573 611.32 24.6573 611.32 18.2675 604.84C11.9317 598.306 11.9317 598.306 14.8116 589.721C17.8355 580.451 17.8356 580.451 9.41181 571.091C5.54192 566.807 5.54181 566.807 9.12371 558.222C12.7056 549.726 12.7057 549.726 7.16188 542.832C1.67203 536.01 1.672 536.01 5.46989 526.866C9.26779 517.795 9.26777 517.795 3.99392 510.217C-1.20794 502.621 -1.20796 502.621 3.29191 494.881C7.86379 487.141 7.86381 487.141 3.48994 478.358C-0.793946 469.574 -0.79392 469.574 4.19194 461.978C9.1958 454.31 9.19579 454.31 4.96591 446.084C0.826023 437.859 0.825996 437.859 6.51384 430.749C12.1477 423.585 12.1476 423.585 8.83574 415.143C5.46983 406.719 5.46983 406.72 12.0757 398.206C18.6095 389.836 18.6815 389.692 16.5036 382.528C15.0996 377.956 14.9556 375.274 16.0176 375.274C16.9895 375.274 17.3496 373.384 16.9176 371.134C16.0896 366.563 18.0515 365.303 19.5994 369.443C20.6614 372.125 25.7193 372.97 25.7193 370.36C25.7193 369.514 24.5133 367.625 23.0374 366.149C20.8594 363.971 20.7875 362.981 22.4794 360.947C24.0994 358.967 24.1713 356.573 22.5514 349.409C20.5894 340.409 20.5895 340.409 27.4653 333.948C34.2871 327.54 34.2871 327.54 32.4691 319.17C30.5612 310.8 30.5611 310.8 37.5989 304.698C44.6367 298.651 44.6908 298.506 43.7188 289.507C42.8009 280.507 42.8009 280.507 50.1807 275.503C57.3625 270.661 57.4884 270.445 57.5604 261.031C57.5604 251.528 57.5604 251.474 65.0842 247.1C72.536 242.672 72.608 242.528 72.608 233.6C72.608 224.528 72.608 224.528 81.0498 220.874C88.0876 217.779 89.4196 216.519 89.4196 212.721C89.4196 201.399 91.1115 198.447 99.3372 194.937C106.987 191.697 107.347 191.283 108.823 182.698C110.299 173.842 110.443 173.698 118.597 170.962C126.462 168.352 127.039 167.794 128.928 160.27C131.394 150.568 131.106 150.928 140.808 147.616C148.188 145.151 148.764 144.521 151.014 136.367C153.408 127.727 153.408 127.727 161.49 126.593C170.831 125.261 172.037 124.199 174.917 114.425C177.095 107.046 177.239 106.902 190.109 104.868C195.509 104.022 196.571 102.978 199.594 95.5799C202.402 88.8301 203.878 87.2282 207.19 87.2282C218.008 87.2282 221.878 85.2482 225.532 77.7964C229.06 70.5606 229.132 70.4886 237.843 70.4886C247.401 70.4886 249.309 69.2827 254.367 59.7249C257.661 53.4791 257.733 53.4071 266.661 54.1811C275.606 54.8831 275.606 54.883 280.88 47.5572C286.154 40.1774 286.154 40.1773 295.352 41.1673C304.568 42.1573 304.64 42.1573 310.615 35.1195C316.663 28.0817 316.663 28.0817 325.663 29.9176C334.735 31.7356 334.735 31.7357 340.639 24.9319C346.398 18.3081 346.614 18.236 353.148 20.0719C363.21 22.8078 365.172 22.4659 372.282 15.9861C378.888 10.0103 378.888 10.0102 385.079 12.6201C393.647 16.202 395.267 15.9321 402.791 10.0103C409.397 4.8084 409.397 4.80835 417.91 8.33625C426.406 11.8462 426.406 11.8462 432.742 6.8603C440.266 0.812461 441.598 0.740512 450.526 5.51038C457.492 9.18228 457.491 9.18227 465.429 3.98041C473.385 -1.23944 473.385 -1.23943 480.981 3.47645C488.576 8.19232 488.577 8.1923 497.216 3.98041C505.928 -0.32147 505.928 -0.321424 513.326 4.68244C520.634 9.7403 520.634 9.7402 528.931 5.87031C537.229 2.00041 537.229 2.00044 544.321 7.83228C551.431 13.6101 551.431 13.6101 560.286 10.2982C569.07 6.93232 569.07 6.93225 575.19 12.9081C581.31 18.8839 581.31 18.884 590.238 16.2021C599.165 13.5382 599.165 13.5382 605.987 19.928C612.737 26.3358 612.737 26.3358 621.881 24.7159C630.952 23.0239 630.953 23.0239 637.144 30.2597C642.976 37.0095 643.678 37.3695 648.394 35.7495C652.894 34.1296 653.596 34.4176 655.342 38.2155C657.178 42.2834 657.736 42.4274 667.149 41.4554C677.067 40.4654 677.067 40.4653 682.269 47.9171C687.399 55.3689 687.543 55.4411 697.173 55.4411C706.892 55.4411 706.892 55.4411 710.888 62.9649C714.902 70.4887 714.902 70.4886 724.118 70.5606C733.316 70.5606 733.316 70.5606 737.888 78.7864C742.244 86.7242 742.675 87.0121 751.531 88.1281C760.603 89.262 760.747 89.406 764.185 97.4158C767.569 105.282 767.983 105.642 776.065 106.704C785.208 107.892 785.694 108.306 789.492 118.223C791.742 124.199 792.876 125.189 800.112 126.953C809.958 129.401 809.472 128.987 812.766 138.761C815.232 146.357 815.79 146.843 824.015 149.02C832.043 151.126 832.745 151.756 833.717 157.39C835.625 168.082 836.327 169.054 844.337 172.078C853.552 175.534 854.668 176.794 854.74 183.544C854.812 190.509 856.792 192.975 865.144 196.899C872.11 200.211 872.326 200.625 872.812 208.851C873.316 217.293 873.442 217.437 881.542 221.235C889.768 225.104 889.767 225.105 890.253 234.446C890.739 243.518 890.955 243.95 897.849 247.73C904.941 251.6 905.013 251.672 905.013 261.301C905.013 270.589 905.157 271.075 911.277 275.017C917.469 279.031 917.541 279.301 917.613 289.777C917.667 296.743 918.386 300.828 919.718 301.242C920.834 301.602 921.753 302.574 921.753 303.42C921.753 304.194 920.636 304.41 919.214 303.924C917.811 303.348 916.695 303.78 916.695 304.824C916.695 305.814 917.253 306.588 917.955 306.444C921.339 305.958 923.516 306.804 922.598 308.352C922.04 309.252 922.31 310.026 923.3 310.026C924.29 310.026 925.065 311.16 925.065 312.492C925.065 313.896 925.892 315.03 926.882 315.03C927.872 315.03 928.214 316.434 927.584 318.396C927.026 320.232 927.314 321.708 928.142 321.708C929.06 321.708 929.42 323.112 928.988 324.804C928.43 326.982 930.338 329.79 935.252 334.002C942.29 340.049 942.29 340.049 939.752 348.851C937.214 357.707 937.214 357.707 943.766 364.529C950.3 371.35 950.3 371.35 947.69 378.586C944.18 388.504 944.396 389.476 951.074 396.946C956.978 403.48 956.978 403.48 953.612 412.407C950.156 421.335 950.156 421.335 953.612 425.547C960.703 434.421 961.135 436.671 956.978 445.526C953.18 453.68 953.18 453.68 958.382 461.348C963.655 468.944 963.655 468.944 959.084 477.224C954.44 485.467 954.44 485.467 958.939 493.693C963.439 501.919 963.439 501.919 958.237 509.929C953.036 517.867 953.036 517.866 956.636 525.39C961.261 534.894 961.261 535.164 955.088 543.048C949.814 549.654 949.814 549.654 953.324 558.095C956.906 566.591 956.906 566.591 950.858 573.917C944.882 581.225 944.882 581.225 947.762 589.721C950.588 598.234 950.588 598.306 946.718 602.392C943.478 605.902 942.632 606.118 941.444 603.94C940.67 602.518 939.266 601.402 938.348 601.402C937.43 601.402 937.088 602.176 937.646 603.094C938.276 603.994 937.916 604.768 936.944 604.768C935.954 604.768 935.18 603.994 935.18 603.094C935.18 602.176 934.406 601.402 933.488 601.402C930.824 601.402 931.526 605.056 934.964 608.854C936.656 610.744 938.978 615.964 940.04 620.518C942.074 628.744 942.074 628.744 935.54 635.565C929.132 642.315 929.06 642.531 930.536 650.757C932.012 659.127 932.012 659.127 924.992 665.175C918.098 671.006 917.955 671.366 918.801 679.79C919.647 688.934 917.739 692.102 908.811 696.746C905.517 698.438 905.013 699.968 905.013 708.481C905.013 718.399 905.013 718.399 897.921 722.269C890.955 726.139 890.739 726.409 890.253 735.967C889.767 745.812 889.767 745.812 881.668 749.196C873.586 752.634 873.586 752.634 872.542 762.138C871.408 771.552 871.408 771.624 863.326 774.99C855.514 778.302 855.244 778.662 854.182 786.959C853.066 795.311 852.923 795.455 844.769 798.209C836.399 800.945 835.697 801.863 833.789 812.681C832.817 818.315 832.115 818.944 824.087 821.122C816.006 823.372 815.231 824.074 812.91 830.968C809.256 841.66 808.77 842.146 799.698 843.406C792.876 844.324 791.256 845.17 790.41 848.464C789.78 851.002 788.592 852.136 787.116 851.56C785.838 851.074 784.218 851.632 783.516 852.766C782.743 853.954 782.958 854.386 784.02 853.738C786.27 852.334 787.944 856.42 786.27 859.155C785.568 860.289 780.493 861.621 775.093 862.179C769.675 862.737 763.483 864.285 761.449 865.635C757.435 868.227 756.247 866.409 759.757 862.953C761.377 861.261 761.305 860.487 759.343 859.299C757.795 858.309 756.589 858.381 756.247 859.443C755.887 860.487 754.771 860.433 753.295 859.155C751.243 857.409 751.243 856.707 753.709 854.026C756.949 850.444 759.541 849.958 758.911 853.036C758.137 856.761 767.353 854.386 772.843 849.454C777.829 844.81 777.901 844.684 774.391 843.766C772.339 843.208 770.935 842.146 771.295 841.3C771.565 840.454 779.017 833.362 787.818 825.478C870.706 750.672 922.815 646.959 935.108 532.356C937.916 505.843 937.214 453.194 933.632 425.547C916.137 291.253 844.409 175.804 731.84 100.854C584.406 2.63036 390.767 -0.177491 241.011 93.762C183.701 129.689 128.856 184.677 93.7035 241.34C62.3483 291.757 40.8389 349.697 30.7772 410.157C26.7633 434.277 23.4694 483.415 24.9454 497.347C26.0613 507.895 26.0613 507.967 22.1914 506.833C18.2676 505.771 18.2675 505.771 21.8494 508.867C24.5853 511.333 25.5753 514.717 26.5653 525.246C36.051 634.593 82.0398 733.087 159.726 810.791C221.248 872.241 290.51 911.534 373.326 931.855C488.847 960.331 615.689 940.855 717.008 879.207C723.272 875.409 728.96 871.953 729.59 871.611C730.292 871.179 730.148 872.799 729.248 875.265C727.07 880.953 726.998 880.881 730.868 879.909C732.758 879.405 734.234 879.693 734.234 880.539C734.234 882.213 729.104 886.929 725.648 888.261C724.244 888.837 724.676 889.251 726.926 889.323C729.734 889.395 730.292 890.241 729.59 893.606C728.96 897.062 727.844 897.836 723.344 897.836C719.888 897.836 717.494 898.808 716.864 900.428C716.162 902.264 714.614 902.75 712.094 902.048C708.71 901.13 708.566 901.274 711.032 903.236C713.498 905.216 713.57 905.918 711.32 910.202C708.855 914.846 708.422 914.99 699.711 913.928C690.639 912.884 690.639 912.884 685.221 920.606C679.821 928.274 679.821 928.274 670.39 927.212C660.904 926.168 660.904 926.168 655.414 933.133C649.924 940.081 649.924 940.081 640.51 939.037C631.439 937.975 630.953 938.119 625.391 943.807C619.343 950.071 615.761 950.917 607.247 947.893C602.405 946.201 601.415 946.561 594.953 952.105C586.998 958.927 586.512 958.999 576.882 955.633C569.772 953.095 569.772 953.095 562.393 959.215C555.013 965.263 555.013 965.262 546.229 961.951C537.427 958.585 537.427 958.585 530.047 963.985C522.668 969.402 522.668 969.402 513.812 965.335C505.028 961.321 505.028 961.321 498.62 965.263C495.11 967.44 491.528 969.618 490.538 970.176C489.62 970.68 484.977 969.204 480.135 966.81H480.063ZM30.7052 601.402C30.7052 600.484 30.0031 599.71 29.0852 599.71C28.1132 599.71 27.4113 600.484 27.4113 601.402C27.4113 602.32 28.1672 603.094 29.0852 603.094C30.0031 603.094 30.7052 602.32 30.7052 601.402ZM449.896 927.788C314.341 918.572 188.975 844.54 113.179 728.947C50.5407 633.315 27.4113 516.607 48.4167 402.274C77.6659 243.176 192.701 112.391 348.09 61.5608C420.574 37.8554 511.85 35.1915 588.348 54.523C728.258 90.0361 843.707 194.019 894.051 329.862C942.362 460.43 925.965 610.744 850.817 726.409C827.471 762.264 794.568 799.469 762.151 826.81C744.007 842.074 740.839 844.18 734.72 844.954C732.128 845.314 729.176 845.728 728.258 845.944C722.984 847.06 725.45 844.54 741.829 832.156C779.79 803.465 824.015 754.542 848.909 713.611C944.666 555.971 932.156 353.423 817.841 211.947C740.282 115.973 627.785 57.5469 506.99 50.5811C387.671 43.7593 277.352 83.3583 187.913 165.256C71.7621 271.651 23.3974 437.157 62.6903 593.519C93.8475 717.553 180.461 823.3 296.198 878.631C419.53 937.561 563.598 934.033 685.221 869.217C700.899 860.847 703.994 860.289 703.994 865.833C703.994 867.885 698.235 871.737 684.321 878.847C624.977 909.158 572.238 923.774 506.918 927.932C478.101 929.749 479.577 929.749 449.896 927.788ZM444.064 912.884C344.148 903.884 253.233 860.991 181.379 789.065C113.323 720.865 75.362 644.223 58.9104 541.914C57.4885 533.274 56.7144 512.521 56.7864 483.271C56.9304 435.609 59.0364 415.719 67.7661 381.196C98.9053 257.576 179.759 156.76 293.03 100.08C426.766 33.1576 588.834 42.9314 713.066 125.477C835.409 206.745 906.561 338.933 906.561 484.963C906.561 600.556 862.408 707.491 781.068 789.065C714.398 855.789 634.462 895.856 538.975 910.418C518.6 913.514 466.203 914.846 444.064 912.884ZM539.893 905.486C726.296 875.679 865.36 738.163 896.643 552.678C901.089 526.164 902.835 473.012 900.099 444.825C878.518 221.505 688.317 52.9751 466.977 60.9849C331.009 65.9167 207.19 135.035 132.024 248.018C84.0737 320.016 60.5123 398.62 60.8723 485.467C61.1603 553.02 74.156 610.744 102.487 670.016C164.711 800.315 289.52 889.611 433.516 906.962C458.625 909.986 516.908 909.158 539.893 905.486ZM738.662 771.48C730.652 762.768 724.046 755.028 724.046 754.11C724.046 753.264 725.522 751.302 727.196 749.754C730.22 747.018 730.724 747.216 738.662 755.73C762.367 781.253 761.719 780.264 758.353 783.935C756.733 785.753 754.897 787.229 754.267 787.229C753.709 787.229 746.671 780.138 738.662 771.48ZM204.094 780.623C201.214 777.384 201.556 776.898 215.974 760.716C232.642 742.087 231.94 742.303 243.531 753.912C252.117 762.48 252.603 770.004 245.007 777.528C240.579 781.955 239.031 782.513 233.758 781.686C230.392 781.11 225.604 779.147 223.156 777.384C218.71 774.09 218.71 774.09 214.012 779.004C208.45 784.835 207.964 784.907 204.094 780.623ZM236.853 770.436C240.795 768.312 241.011 763.326 237.357 759.672C234.819 757.134 234.261 757.278 229.834 761.49C225.334 765.792 225.19 766.278 227.782 769.158C230.95 772.686 232.354 772.812 236.853 770.436ZM180.605 756.018L170.687 744.84L176.663 739.711C179.903 736.813 187.715 729.991 193.961 724.447L205.354 714.457L215.128 725.293C224.758 736.039 224.83 736.183 221.662 739.423C218.512 742.591 218.368 742.518 212.104 735.625C206.344 729.289 205.426 728.875 202.618 731.053C199.666 733.303 199.81 733.717 205.012 740.197C209.512 745.812 210.07 747.36 208.306 749.538C205.21 753.21 203.95 752.778 197.831 746.244C192.359 740.413 192.287 740.413 188.345 743.491C184.331 746.586 184.331 746.586 190.739 753.624C195.725 759.186 196.787 761.364 195.437 763.398C192.413 768.24 190.595 767.34 180.605 756.018ZM771.223 754.812C766.363 750.816 760.891 748.278 752.161 746.172C735.71 742.231 735.422 742.014 739.364 737.101C742.46 733.303 743.161 733.159 749.695 734.923C753.565 735.913 758.065 737.317 759.757 737.947C762.367 738.937 762.223 738.019 758.569 729.649C754.411 720.217 754.411 720.217 758.209 715.861C762.007 711.433 762.007 711.433 767.497 726.337C771.781 738.091 774.391 742.518 779.791 747.36C786.612 753.48 786.684 753.624 783.588 756.99C779.593 761.49 779.16 761.436 771.223 754.812ZM718.628 748.494C714.902 746.46 714.83 741.043 718.412 739.711C721.436 738.505 725.72 741.313 725.72 744.552C725.72 748.134 721.796 750.312 718.556 748.494H718.628ZM157.962 729.361C156 725.707 156 724.519 157.962 721.423C164.783 710.659 165.485 708.697 163.595 706.789C162.191 705.385 159.942 706.087 154.668 709.615C147.774 714.115 147.486 714.187 145.236 711.091C143.976 709.327 142.914 707.078 142.986 706.16C142.986 705.188 151.428 698.78 161.688 692.03L180.407 679.664L185.033 685.28C191.999 693.65 195.653 703.91 193.259 708.337C190.379 713.827 183.701 717.409 178.499 716.437C174.413 715.663 173.297 716.491 168.383 724.591C165.359 729.577 162.264 733.663 161.562 733.663C160.86 733.663 159.24 731.755 157.962 729.361ZM182.711 701.876C183.485 694.496 180.965 692.588 174.917 696.116C168.941 699.698 168.725 700.544 172.451 704.341C176.465 708.337 182.225 706.933 182.711 701.876ZM788.448 722.269C762.853 704.198 764.671 707.635 773.617 694.712C781.482 683.318 784.092 681.626 787.458 685.64C788.79 687.242 787.944 689.636 784.29 695.198C779.719 702.092 779.592 702.866 782.184 704.756C786.27 707.779 786.828 707.563 791.742 700.112C794.496 695.9 796.944 693.794 798.222 694.496C804.396 698.006 804.468 698.852 799.41 705.817C794.352 712.639 794.352 712.639 798.15 715.591C803.208 719.515 802.92 719.659 808.338 711.091C813.612 702.794 814.116 702.506 818.615 705.817C821.567 707.923 821.279 708.697 813.467 720.019C808.968 726.553 804.54 731.899 803.64 731.899C802.722 731.827 795.9 727.543 788.448 722.269ZM112.135 501.271C112.765 497.833 113.881 493.333 114.655 491.299C115.789 488.203 114.655 486.439 107.275 480.05L98.5633 472.454H109.669C120.775 472.382 120.775 472.382 124.573 462.248C128.784 450.998 129.63 451.07 134.058 463.166C137.154 471.536 137.154 471.536 147.558 472.022C153.336 472.31 157.962 473.084 157.962 473.714C157.908 474.344 154.524 477.512 150.384 480.752C142.014 487.357 142.158 486.799 145.308 498.751C146.586 503.593 147.216 507.535 146.712 507.535C146.154 507.535 142.086 505.213 137.586 502.333L129.414 497.059L120.991 502.333C116.347 505.213 112.189 507.535 111.775 507.535C111.289 507.535 111.487 504.727 112.135 501.271ZM247.689 220.731C237.142 206.745 227.368 193.731 226.036 191.913C223.714 188.745 223.354 188.817 213.58 195.711C208.036 199.581 202.906 202.731 202.132 202.731C201.358 202.677 198.604 199.725 196.085 196.125L191.441 189.591L217.882 169.054C232.354 157.804 245.295 147.832 246.483 146.842C248.247 145.511 249.939 146.555 253.593 150.928C256.257 154.078 258.435 157.606 258.435 158.722C258.435 159.856 254.367 163.924 249.237 167.722C243.117 172.366 240.507 175.318 241.497 176.578C250.857 188.403 283.616 233.186 283.616 234.176C283.616 235.724 270.261 246.326 268.281 246.326C267.579 246.326 258.309 234.806 247.689 220.731ZM680.793 240.854C677.067 237.902 673.971 234.662 673.899 233.744C673.899 232.826 678.615 226.004 684.519 218.697C695.211 205.269 695.211 205.269 701.619 175.102C705.057 158.506 708.152 144.665 708.422 144.305C708.782 143.819 717.998 150.64 726.152 157.534C726.854 158.092 724.82 167.578 721.58 178.558C718.34 189.519 715.676 198.663 715.676 198.807C715.676 198.951 724.046 194.649 734.234 189.177C752.719 179.188 752.719 179.188 757.219 182.428C763.555 186.982 770.719 194.865 767.353 193.533C765.805 192.975 764.329 193.533 763.699 195.081C762.709 197.745 751.603 203.091 726.998 212.865C712.724 218.481 711.95 219.057 701.331 232.484C695.283 240.08 689.721 246.326 688.947 246.326C688.173 246.326 684.519 243.878 680.793 240.854ZM613.655 197.745C599.453 191.355 587.286 185.505 586.584 184.803C585.882 184.102 590.382 172.582 596.646 159.226C614.699 120.617 623.771 101.556 624.203 101.07C624.689 100.656 675.249 123.227 676.437 124.487C676.923 124.901 675.735 128.699 673.899 132.983C670.119 141.857 672.009 141.929 649.726 131.723C642.4 128.429 636.371 125.891 636.299 126.107C636.155 126.377 634.39 130.103 632.356 134.477C628.631 142.415 628.631 142.415 634.049 144.809C658.024 155.14 658.996 155.77 657.808 159.64C657.178 161.746 655.63 165.472 654.298 168.01C651.688 173.212 653.596 173.554 631.51 163.582C626.165 161.188 621.521 159.226 621.251 159.226C619.631 159.226 613.439 176.506 614.645 177.712C615.401 178.414 622.799 182.068 631.097 185.722C639.394 189.447 646.414 193.389 646.774 194.451C647.476 196.557 642.058 209.481 640.51 209.427C639.952 209.427 627.857 204.153 613.655 197.745ZM516.206 892.562C515.774 891.428 510.23 846.718 510.428 846.43C511.004 845.512 537.373 842.92 538.561 843.622C539.263 844.036 539.821 846.16 539.821 848.266C539.821 851.704 538.903 852.262 531.451 852.964C521.408 853.954 521.192 854.097 522.74 859.371C523.802 863.025 524.846 863.457 532.297 863.457C539.749 863.457 540.739 863.871 541.225 867.237C541.657 870.405 540.955 871.035 537.013 871.035C525.548 871.107 524.288 872.313 525.278 882.159C525.98 888.963 525.691 891.086 523.927 891.086C522.739 891.086 520.49 891.573 519.086 892.131C517.61 892.706 516.35 892.904 516.206 892.562ZM403.277 884.679C394.349 880.539 390.407 874.275 390.407 864.159C390.407 845.098 407.291 834.136 425.29 841.66C430.348 843.766 430.906 844.54 429.43 847.348C427.9 850.156 426.406 850.516 417.766 849.742C408.623 848.896 407.705 849.112 405.113 853.036C397.229 865.131 402.089 877.515 415.103 878.289C420.934 878.631 421.78 879.207 421.78 882.789C421.78 886.299 420.934 887.001 415.93 887.361C412.709 887.631 407.003 886.371 403.277 884.679ZM584.118 862.251C579.204 845.026 579.204 845.026 572.526 845.026C566.892 845.026 565.705 844.468 565.273 841.444C564.931 839.05 565.848 837.502 567.81 836.944C569.502 836.458 576.396 834.478 583.146 832.516C589.896 830.536 596.502 829.348 597.761 829.834C600.371 830.824 601.073 837.502 598.607 837.502C597.689 837.502 595.152 838.204 592.848 839.122C588.762 840.67 588.762 840.67 593.892 857.535C599.166 874.761 599.021 876.381 592.488 878.361C589.392 879.333 588.618 877.785 584.118 862.251ZM367.35 876.111C362.148 874.707 362.148 874.635 369.888 849.814C376.206 829.492 376.206 829.492 381.065 831.184C384.377 832.3 385.637 833.704 385.151 835.612C380.706 851.434 373.254 875.409 372.48 876.183C371.994 876.741 369.672 876.741 367.35 876.111ZM335.509 864.429C328.687 861.477 324.817 858.885 325.159 857.409C326.149 852.766 339.235 819.934 340.711 818.386C341.556 817.468 343.734 817.613 346.254 818.657C350.34 820.564 350.34 820.564 343.807 837.43C340.153 846.79 337.183 854.656 337.183 855.015C337.183 855.357 341.053 856.905 345.697 858.453C351.888 860.559 353.922 861.963 353.22 863.799C352.734 865.131 352.302 866.967 352.302 867.813C352.302 870.333 346.956 869.289 335.509 864.357V864.429ZM816.149 505.069C816.185 503.449 817.085 498.913 818.111 494.809C820.019 487.213 820.019 487.213 811.794 479.906L803.64 472.526L814.169 472.454C825.779 472.31 824.447 473.642 831.611 455.642C833.231 451.646 833.519 451.916 838.091 461.906C842.789 472.382 842.789 472.382 853.336 472.454H863.884L855.586 479.834C847.217 487.141 847.217 487.141 849.269 496.771C850.385 502.117 851.014 506.761 850.6 507.121C850.24 507.535 846.389 505.429 842.015 502.405C834.995 497.545 833.717 497.203 830.567 499.165C817.517 507.391 816.167 507.967 816.149 505.141V505.069ZM468.597 891.932C454.324 884.679 452.649 862.323 465.429 851.074C475.419 842.29 491.384 844.882 497.432 856.42C501.23 863.511 501.23 877.587 497.504 883.275C491.24 892.832 478.029 896.774 468.597 891.932ZM485.265 881.871C491.654 875.409 490.125 860.289 482.529 856.059C471.135 849.598 462.207 871.809 472.125 881.799C475.491 885.111 481.899 885.183 485.265 881.799V881.871ZM623.141 859.299C619.631 856.563 606.833 830.338 606.833 825.91C606.833 824.92 614.069 820.762 615.761 820.762C615.977 820.762 618.371 826.468 621.107 833.488C627.371 849.31 631.925 854.799 637.271 852.838C643.246 850.66 642.976 843.55 636.299 828.286C630.449 814.931 630.448 814.931 634.606 812.753C636.856 811.565 639.394 810.989 640.15 811.493C640.996 811.979 644.452 819.358 647.818 827.872C653.524 841.93 653.866 843.91 652.12 849.742C648.664 861.333 632.501 866.679 623.141 859.299ZM290.708 843.064C285.866 840.598 281.924 838.06 281.924 837.358C281.924 835.882 300.14 800.513 301.958 798.551C303.794 796.445 323.053 806.993 325.375 811.421C328.327 816.839 326.437 823.786 321.379 826.036C317.995 827.584 317.509 828.718 318.355 833.56C319.057 838.06 318.409 840.238 315.403 843.406C310.256 848.896 302.174 848.752 290.708 843.064ZM307.663 835.54C308.995 833.362 308.708 831.886 306.332 829.204C302.102 824.56 300.068 824.92 296.684 830.824C294.02 835.468 294.02 835.882 296.684 837.502C300.554 839.824 305.558 838.906 307.663 835.54ZM315.187 816.695C315.745 813.815 311.659 809.027 308.707 809.027C306.187 809.027 303.938 816.965 305.9 818.945C308.78 821.824 314.485 820.42 315.187 816.695ZM665.044 830.338C660.616 822.814 655.486 814.157 653.65 811.277C650.212 805.931 650.212 805.931 659.068 799.955C674.547 789.479 688.047 793.133 686.985 807.479C686.571 813.599 686.985 814.301 694.437 819.214C704.571 825.964 704.984 826.81 699.423 829.708C695.139 832.012 694.365 831.814 687.687 827.17C682.899 823.93 679.317 822.598 677.139 823.3C673.899 824.29 673.971 824.56 678.345 832.012C682.629 839.41 682.701 839.752 679.677 841.93C674.547 845.656 673.341 844.738 665.044 830.338ZM674.547 814.157C678.543 809.801 677.355 804.959 672.153 804.455C664.774 803.681 662.938 806.219 666.447 812.195C670.047 818.315 670.678 818.459 674.547 814.157ZM249.381 817.253C242.973 811.637 241.497 804.185 245.295 796.787C248.391 790.811 262.377 770.49 263.367 770.562C263.925 770.562 266.031 771.912 268.083 773.514C271.736 776.412 271.736 776.412 262.377 790.037C252.459 804.527 251.343 810.989 258.381 812.825C263.079 814.085 266.661 810.935 275.948 797.489C280.448 790.955 284.606 785.609 285.164 785.681C288.188 785.825 292.256 790.811 291.356 793.133C289.52 797.993 275.03 817.397 271.377 819.934C265.257 824.218 256.059 823.084 249.381 817.253ZM610.343 816.767C607.751 813.671 609.785 809.027 613.799 809.027C617.795 809.027 619.559 813.311 616.895 816.622C614.285 819.718 612.809 819.718 610.343 816.838V816.767ZM701.474 801.359C694.149 791.873 687.903 783.431 687.615 782.657C687.399 781.812 689.091 780.137 691.557 778.788C695.499 776.682 696.201 776.754 698.379 779.778C708.08 792.719 707.306 792.719 706.172 780.065C705.272 769.788 705.471 768.384 709.07 764.586C711.176 762.336 713.498 760.446 714.272 760.446C714.974 760.446 715.748 765.792 716.018 772.326C716.594 784.277 716.594 784.277 729.662 789.551C736.898 792.431 742.891 795.527 742.945 796.445C742.945 797.363 741.127 799.181 738.806 800.513C735.008 802.709 733.676 802.565 726.08 799.253C721.436 797.291 717.152 795.599 716.648 795.599C714.272 795.599 716.09 803.339 719.258 806.705C723.128 810.863 722.642 814.589 717.854 817.036C715.316 818.386 712.796 815.992 701.474 801.359ZM623.915 812.051C621.323 809.459 621.395 806.561 624.059 804.311C627.155 801.719 630.665 804.599 629.963 809.099C629.333 813.671 626.795 814.931 623.915 812.051ZM441.886 798.137C310.183 781.109 203.608 679.232 179.345 547.044C174.413 520.044 174.143 465.488 178.787 439.749C192.917 362.135 235.305 293.503 297.818 247.1C340.855 215.259 379.032 199.005 434.362 189.105C450.742 186.225 511.076 186.226 528.157 189.177C628.847 206.529 710.96 267.493 755.113 357.707C774.517 397.288 782.472 425.691 786.126 469.07C790.194 517.453 781.41 570.317 761.593 615.46C706.821 740.539 575.82 815.434 441.886 798.137ZM447.718 523.5C447.718 520.117 446.872 519.271 443.434 519.271C439.492 519.271 439.348 519.559 441.742 521.952C443.218 523.356 444.406 525.246 444.406 526.092C444.406 527.01 445.126 527.712 446.026 527.712C447.016 527.712 447.718 525.822 447.718 523.5ZM490.323 546.774C492.429 545.928 492.932 543.048 492.932 532.5V519.271H469.515V532.716C469.515 545.01 469.731 546.072 472.827 546.072C475.707 546.072 476.193 545.01 476.193 538.746C476.193 530.25 479.649 525.966 483.717 529.332C485.337 530.664 486.254 534.39 486.254 539.592C486.254 544.092 486.524 547.746 486.956 547.746C487.37 547.746 488.847 547.332 490.323 546.774ZM551.575 538.476V531.024H516.404V538.548C516.404 545.784 516.62 546.072 521.336 546.072C525.619 546.072 526.321 545.442 526.753 540.654C527.095 537.27 528.229 535.236 529.705 535.236C531.037 535.236 532.729 537.63 533.503 540.654C535.321 547.692 539.821 547.962 539.821 540.996C539.821 537.918 540.883 535.524 542.503 534.894C545.869 533.616 548.191 537.072 548.191 543.246C548.191 546 548.965 547.548 549.883 546.918C550.801 546.342 551.575 542.544 551.575 538.476ZM569.574 525.534C569.214 521.664 568.926 525.246 568.926 533.544C568.926 541.842 569.214 545.01 569.574 540.582C569.916 536.226 569.916 529.404 569.574 525.534ZM610.343 547.746L609.371 528.486L597.276 529.116C588.618 529.548 583.704 528.972 579.834 527.01C576.882 525.534 574.2 524.346 573.93 524.346C573.57 524.346 573.372 529.62 573.372 536.082V547.746H610.343ZM626.597 541.068C626.093 535.596 625.679 535.164 619.847 534.678C613.583 534.192 613.511 534.192 613.511 540.582C613.511 546.918 613.583 546.918 620.333 546.918C627.011 546.918 627.083 546.918 626.597 541.068ZM513.038 534.462C513.038 519.343 508.682 514.429 499.538 519.342C496.802 520.818 496.298 522.942 496.298 533.616C496.298 546.144 496.298 546.144 504.668 546.144C513.038 546.144 513.038 546.144 513.038 534.462ZM622.997 524.76C622.439 521.322 621.953 513.727 621.953 508.021C621.881 498.049 621.737 497.545 617.867 497.545C614.069 497.545 613.727 498.247 612.665 510.073C611.045 527.154 612.179 531.024 618.785 531.024C623.915 531.024 623.987 530.88 622.997 524.76ZM441.04 526.02C441.04 523.914 432.04 519.271 427.828 519.271C425.992 519.271 422.338 521.179 419.801 523.428C415.103 527.568 415.103 527.568 428.026 527.64C435.406 527.64 441.04 526.938 441.04 526.02ZM546.571 526.938C546.571 524.274 538.417 519.271 534.061 519.271C528.787 519.271 521.408 523.284 521.408 526.092C521.408 526.938 527.095 527.712 533.989 527.712C540.883 527.712 546.571 527.298 546.571 526.938ZM378.744 520.746C385.349 520.746 389.147 519.703 393.647 516.679C400.541 511.963 406.805 511.549 415.445 515.131C421.492 517.669 421.492 517.669 418.54 514.357C411.305 506.419 398.579 506.131 390.479 513.799C386.483 517.597 385.007 518.011 378.185 517.021C367.71 515.617 355.614 518.713 355.614 522.798C355.614 525.678 356.028 525.75 362.706 523.356C366.648 521.952 373.902 520.746 378.744 520.746ZM519.788 519.559C515.216 518.929 514.028 519.972 515.36 523.644C516.404 526.236 516.764 526.236 520.004 523.284C523.513 520.116 523.514 520.116 519.788 519.559ZM607.679 521.88C607.679 516.895 589.608 512.881 580.122 515.761C571.896 518.227 571.68 519.702 578.772 523.284C582.57 525.192 587.772 525.894 595.925 525.606C606.401 525.246 607.679 524.76 607.679 521.88ZM413.339 518.497C411.503 517.165 409.325 516.049 408.353 516.049C407.435 516.049 407.993 516.823 409.613 517.723C411.233 518.713 412.565 520.693 412.565 522.222C412.565 524.346 413.051 524.544 414.599 522.996C416.147 521.466 415.876 520.405 413.339 518.497ZM552.133 515.545C555.013 513.727 563.022 513.997 566.964 516.121C572.166 518.928 574.56 515.347 569.772 511.963C564.715 508.453 553.249 508.525 545.725 512.107C539.749 514.987 539.749 514.987 544.393 519.217C548.821 523.284 549.109 523.356 549.667 520.189C549.955 518.299 551.071 516.247 552.133 515.545ZM447.718 495.871C447.718 479.474 447.304 475.748 445.324 475.748C442.03 475.748 440.338 472.598 440.68 467.18C441.112 462.464 437.872 460.07 433.444 461.762C429.862 463.166 431.05 467.738 435.478 469.916C438.16 471.248 438.718 472.382 437.53 474.218C436.18 476.252 435.694 476.18 434.146 473.57C432.526 470.834 432.184 470.906 429.16 474.704C426.478 478.142 425.992 481.597 425.992 496.645C425.992 507.247 426.622 514.069 427.54 513.511C428.386 513.025 429.574 513.295 430.15 514.285C430.708 515.203 434.92 515.977 439.492 515.977H447.718V495.871ZM466.149 512.179C466.149 509.857 464.655 509.299 458.625 509.299C452.434 509.299 451.102 509.785 451.102 512.323C451.102 514.915 452.362 515.419 458.625 515.275C464.601 515.203 466.149 514.501 466.149 512.179ZM492.932 512.593C492.932 509.569 491.798 509.227 481.251 509.227C470.649 509.227 469.515 509.569 469.515 512.593C469.515 515.617 470.649 515.977 481.251 515.977C491.798 515.977 492.932 515.617 492.932 512.593ZM513.038 512.323C513.038 509.713 511.634 509.227 504.668 509.227C497.846 509.227 496.298 509.785 496.298 512.179C496.298 514.573 497.846 515.131 504.668 515.203C511.706 515.347 513.038 514.843 513.038 512.323ZM532.369 514.141C533.071 512.953 534.205 513.025 535.825 514.357C537.787 516.049 538.147 513.295 538.147 496.069C538.147 479.132 537.787 475.748 535.681 475.748C534.205 475.748 533.071 474.146 532.927 471.968C532.513 464.444 532.225 463.526 529.489 461.762C525.134 459.026 520.976 463.382 522.326 469.43C523.226 473.444 522.811 474.488 519.932 475.19C516.62 476.108 516.404 477.224 516.404 495.997V515.905H523.874C527.941 515.905 531.739 515.131 532.369 514.213V514.141ZM525.475 473.858C524.431 472.166 527.383 469.142 530.191 469.07C531.739 468.998 531.739 469.646 530.479 473.084C529.273 476.18 527.167 476.522 525.475 473.858ZM386.681 512.467C387.329 511.477 390.065 509.299 392.729 507.607C397.733 504.583 397.733 504.583 392.387 502.747C389.363 501.703 384.431 500.857 381.354 500.857C375.936 500.857 375.72 501.073 375.72 507.535C375.72 513.871 376.08 514.285 380.652 514.285C383.387 514.285 386.123 513.439 386.681 512.467ZM422.05 506.473C421.636 505.987 419.098 505.915 416.506 506.203C411.719 506.761 411.719 506.761 416.704 509.569C421.15 511.963 421.852 512.035 422.338 509.785C422.626 508.453 422.554 506.905 422.05 506.473ZM582.426 511.549C583.974 510.973 585.036 508.597 585.036 505.915C585.036 501.559 584.55 501.217 576.252 500.299C571.464 499.795 563.94 498.823 559.585 498.193C548.407 496.645 541.513 499.669 541.513 506.131C541.513 510.973 541.513 510.973 546.427 508.453C553.393 504.871 564.714 505.213 570.834 509.227C576.18 512.809 578.214 513.169 582.426 511.549ZM511.346 499.597C511.346 491.641 506.702 483.919 504.398 488.131C503.552 489.607 501.644 490.795 500.168 490.795C498.134 490.795 497.774 489.679 498.548 485.809C499.466 481.454 498.908 480.464 494.192 477.998C487.101 474.344 476.823 474.272 469.371 477.944C464.169 480.536 463.467 481.525 464.097 485.881C464.655 489.607 464.241 490.795 462.135 490.795C460.659 490.795 459.453 489.535 459.453 487.987C459.453 485.665 458.751 485.881 455.241 489.121C452.218 492.001 451.102 494.809 451.102 499.525V505.915H511.346V499.597ZM456.087 500.155C456.087 495.025 458.409 493.405 461.145 496.645C463.611 499.723 462.207 504.223 458.679 504.223C457.077 504.223 456.087 502.693 456.087 500.155ZM466.977 502.549C465.645 500.299 469.299 493.819 471.279 495.025C473.799 496.645 473.169 504.223 470.433 504.223C469.101 504.223 467.553 503.467 466.977 502.549ZM478.155 499.597C478.515 496.843 479.703 495.025 481.251 495.025C482.727 495.025 483.933 496.843 484.275 499.597C484.707 503.395 484.148 504.223 481.251 504.223C478.299 504.223 477.741 503.395 478.155 499.597ZM489.621 500.227C489.621 495.367 491.312 493.819 494.48 495.727C497.432 497.545 496.1 503.179 492.5 503.881C490.394 504.295 489.621 503.323 489.621 500.227ZM501.644 500.011C501.932 497.689 502.904 495.727 503.822 495.727C504.74 495.727 505.73 497.689 506.072 500.011C506.432 503.035 505.802 504.223 503.822 504.223C501.86 504.223 501.23 503.035 501.644 500.011ZM467.823 484.963C467.823 480.05 468.399 478.988 470.775 479.42C472.755 479.834 473.655 481.598 473.655 484.963C473.655 488.419 472.755 490.093 470.775 490.525C468.399 490.939 467.823 489.895 467.823 484.963ZM478.227 483.704C478.587 478.574 479.505 476.468 481.683 476.108C484.077 475.622 484.563 476.81 484.563 483.218C484.563 489.823 484.149 490.795 481.125 490.795C478.101 490.795 477.741 489.967 478.227 483.704ZM489.621 484.963C489.621 480.896 490.322 479.132 492.086 479.132C493.85 479.132 494.624 480.896 494.624 484.963C494.624 489.049 493.85 490.795 492.086 490.795C490.322 490.795 489.621 489.049 489.621 484.963ZM415.805 501.487C416.147 501.217 413.896 500.857 410.729 500.857C407.579 500.857 403.493 500.569 401.657 500.299C399.839 499.939 399.281 500.011 400.397 500.443C401.603 500.857 402.503 501.775 402.503 502.621C402.503 503.881 414.113 502.963 415.805 501.487ZM422.266 494.467C422.824 487.357 420.376 484.747 418.756 490.795C417.478 495.799 414.256 494.881 414.256 489.607C414.256 484.963 414.257 484.963 401.945 485.521C390.065 486.025 389.651 486.169 390.407 489.967C391.055 493.405 392.873 494.323 403.493 496.717C410.315 498.193 416.291 500.155 416.849 501.073C419.027 504.583 421.78 501.217 422.266 494.467ZM387.455 494.179C387.455 491.929 386.339 490.795 384.089 490.795C381.839 490.795 380.705 491.929 380.705 494.179C380.705 496.429 381.839 497.473 384.089 497.473C386.339 497.473 387.455 496.429 387.455 494.179ZM545.599 496.501C549.325 495.097 548.893 492.487 544.897 492.487C542.989 492.487 541.513 493.621 541.513 495.025C541.513 497.833 541.873 497.905 545.599 496.501ZM576.666 492.631C576.666 487.717 576.666 487.717 559.099 487.141C549.451 486.871 541.513 487.213 541.513 487.915C541.513 488.545 542.575 489.121 543.835 489.121C545.095 489.121 548.335 490.237 550.927 491.641C553.609 493.045 557.623 494.179 559.926 494.251C562.248 494.323 565.632 495.025 567.45 495.871C574.146 498.679 576.666 497.833 576.666 492.631ZM472.953 473.372C484.977 469.772 497.216 473.57 507.836 484.19L513.038 489.391V479.834C513.038 470.276 513.038 470.276 507.908 471.32C503.624 472.166 502.85 471.896 503.336 469.43C504.11 465.146 515.846 464.372 516.836 468.512C517.466 470.978 517.538 470.978 517.394 468.224C517.25 465.002 515.99 464.858 481.251 464.714C461.433 464.57 448.204 464.93 451.929 465.488C457.203 466.334 458.751 467.324 459.183 470.348C459.669 474.002 456.933 475.748 455.8 472.454C455.53 471.536 452.848 470.06 449.824 469.214C445.468 467.954 444.406 468.098 444.406 470.132C444.406 471.536 445.612 472.382 447.304 472.094C449.824 471.68 450.183 472.796 449.751 480.608L449.266 489.607L457.077 482.641C461.577 478.772 468.399 474.704 472.899 473.372H472.953ZM418.829 479.762C417.281 478.214 414.04 480.752 415.228 482.714C415.93 483.848 416.849 483.847 418.127 482.569C419.098 481.598 419.387 480.32 418.829 479.762ZM553.249 481.598C553.249 480.248 552.475 479.132 551.575 479.132C550.657 479.132 549.883 480.248 549.883 481.598C549.883 483.001 550.657 484.117 551.575 484.117C552.475 484.117 553.249 483.001 553.249 481.598ZM561.619 481.598C561.619 480.248 560.917 479.132 560.071 479.132C557.893 479.132 556.417 481.723 557.748 483.073C559.656 484.963 561.619 484.189 561.619 481.598ZM569.646 482.155C568.584 478.988 565.002 478.502 565.002 481.454C565.002 482.93 566.19 484.117 567.594 484.117C569.07 484.117 569.988 483.217 569.646 482.155ZM399.137 480.752C399.137 479.834 398.435 479.06 397.517 479.06C396.599 479.06 395.825 479.834 395.825 480.752C395.825 481.67 396.599 482.444 397.517 482.444C398.435 482.444 399.137 481.67 399.137 480.752ZM405.887 480.752C405.887 479.834 405.113 479.06 404.195 479.06C403.277 479.06 402.503 479.834 402.503 480.752C402.503 481.67 403.277 482.444 404.195 482.444C405.113 482.444 405.887 481.67 405.887 480.752ZM411.719 480.752C412.277 479.834 412.007 479.06 411.089 479.06C410.171 479.06 408.983 479.834 408.407 480.752C407.777 481.67 408.065 482.444 409.055 482.444C409.955 482.444 411.161 481.67 411.719 480.752ZM545.725 480.752C545.167 479.834 543.979 479.06 543.061 479.06C542.215 479.06 541.513 479.834 541.513 480.752C541.513 481.67 542.701 482.444 544.123 482.444C545.599 482.444 546.301 481.67 545.725 480.752ZM427.612 468.224C427.612 464.084 426.91 462.32 425.146 462.32C423.4 462.32 422.626 464.084 422.626 468.224C422.626 472.31 423.4 474.074 425.146 474.074C426.91 474.074 427.612 472.31 427.612 468.224ZM539.821 467.396C539.821 464.57 539.119 462.32 538.147 462.32C537.229 462.32 536.527 464.57 536.527 467.396C536.527 470.132 537.229 472.382 538.147 472.382C539.119 472.382 539.821 470.132 539.821 467.396ZM429.79 459.584C428.656 459.098 426.352 459.098 424.732 459.512C423.112 459.944 424.03 460.286 426.766 460.358C429.574 460.43 430.906 460.07 429.79 459.584ZM502.706 459.44C491.942 459.098 473.799 459.098 462.477 459.44C451.155 459.728 459.957 459.944 482.097 459.944C504.182 459.944 513.452 459.728 502.706 459.44ZM538.561 459.584C537.427 459.098 535.537 459.098 534.403 459.584C533.287 459.998 534.205 460.43 536.527 460.43C538.777 460.43 539.749 460.07 538.561 459.584ZM439.348 450.656C439.348 447.848 438.574 445.598 437.656 445.598C436.756 445.598 436.054 447.848 436.054 450.656C436.054 453.392 436.756 455.642 437.656 455.642C438.574 455.642 439.348 453.392 439.348 450.656ZM449.41 450.656C449.41 447.272 448.564 445.598 446.872 445.598C445.252 445.598 444.406 447.272 444.406 450.656C444.406 453.968 445.252 455.642 446.872 455.642C448.564 455.642 449.41 453.968 449.41 450.656ZM457.78 449.81C457.78 446.57 457.005 443.906 456.087 443.906C455.169 443.906 454.467 446.57 454.467 449.81C454.467 453.05 455.169 455.642 456.087 455.642C457.005 455.642 457.78 453.05 457.78 449.81ZM478.029 453.536C477.957 452.834 477.885 450.44 477.885 448.118C477.885 445.796 477.183 443.906 476.265 443.906C475.275 443.906 474.573 446.642 474.573 449.954C474.573 453.464 475.275 455.714 476.337 455.372C477.327 455.012 478.101 454.166 478.029 453.536ZM489.621 449.81C489.621 445.724 488.847 443.906 487.101 443.906C485.337 443.906 484.563 445.724 484.563 449.81C484.563 453.896 485.337 455.642 487.101 455.642C488.847 455.642 489.621 453.896 489.621 449.81ZM499.322 449.252C499.754 445.311 499.178 443.906 497.216 443.906C495.398 443.906 494.624 445.599 494.624 449.954C494.624 457.478 498.548 456.92 499.322 449.252ZM508.898 449.81C508.898 447.218 507.908 444.752 506.774 444.32C505.37 443.907 504.668 445.67 504.668 449.81C504.668 453.968 505.37 455.714 506.774 455.228C507.908 454.796 508.898 452.42 508.898 449.81ZM518.096 449.81C518.096 446.57 517.322 443.906 516.404 443.906C515.504 443.906 514.73 446.57 514.73 449.81C514.73 453.05 515.504 455.642 516.404 455.642C517.322 455.642 518.096 453.05 518.096 449.81ZM526.466 450.656C526.466 447.848 525.692 445.598 524.774 445.598C523.874 445.598 523.1 447.848 523.1 450.656C523.1 453.392 523.874 455.642 524.774 455.642C525.692 455.642 526.466 453.392 526.466 450.656ZM467.823 448.964C467.823 446.229 467.049 443.906 466.149 443.906C465.231 443.906 464.457 446.229 464.457 448.964C464.457 451.718 465.231 453.968 466.149 453.968C467.049 453.968 467.823 451.718 467.823 448.964ZM349.35 447.848C348.234 447.416 345.984 447.344 344.364 447.848C342.744 448.19 343.663 448.622 346.398 448.622C349.152 448.694 350.484 448.334 349.35 447.848ZM621.881 447.272C621.881 446.372 620.045 445.598 617.723 445.598C615.401 445.598 613.511 446.372 613.511 447.272C613.511 448.19 615.401 448.964 617.723 448.964C620.045 448.964 621.881 448.19 621.881 447.272ZM367.206 443.475C367.08 442.359 366.432 439.551 365.802 437.229C364.686 433.431 364.542 433.575 363.768 439.335C363.21 443.763 363.624 445.598 365.172 445.598C366.378 445.598 367.278 444.681 367.206 443.475ZM599.165 439.335C597.546 430.623 596.772 430.407 596.772 438.633C596.772 442.503 597.545 445.598 598.535 445.598C599.651 445.598 599.867 443.277 599.165 439.335ZM348.307 416.907C347.731 414.027 347.244 409.797 347.244 407.422C347.244 401.086 346.056 403.48 344.292 413.397C342.817 421.551 342.888 422.181 345.984 422.181C348.864 422.181 349.206 421.407 348.307 416.907ZM619.631 418.383C619.073 416.349 618.497 412.335 618.425 409.599C618.227 404.668 618.227 404.668 616.895 408.754C614.501 416.205 614.987 422.181 617.939 422.181C619.901 422.181 620.333 421.191 619.631 418.383ZM483.231 413.469C481.683 411.921 480.765 411.921 479.217 413.469C477.669 414.999 478.101 415.503 481.251 415.503C484.346 415.503 484.778 414.999 483.231 413.469ZM754.195 375.562C754.195 372.61 737.042 340.895 728.816 328.602C709.196 299.28 680.379 269.473 651.976 249.224C632.842 235.58 595.026 216.375 573.642 209.481C475.275 177.784 373.182 197.043 291.986 262.579C260.127 288.229 228.772 328.458 212.176 364.799L206.686 376.966H480.405C631.024 376.966 754.195 376.336 754.195 375.562ZM331.495 546.216C332.629 546.144 333.043 544.38 332.629 541.914C332.125 539.592 332.629 536.784 333.529 535.596C336.481 532.068 338.533 513.727 339.649 481.67C340.207 463.166 340.009 450.512 339.019 449.036C338.101 447.704 338.029 445.796 338.731 444.825C339.505 443.907 340.567 434.835 341.125 424.719C342.457 400.528 344.004 387.028 345.48 387.028C346.614 387.028 350.34 408.537 351.744 423.027C352.104 426.681 352.302 441.369 352.23 455.642C352.158 491.569 353.85 515.977 356.46 515.977C358.782 515.977 360.6 492.145 360.528 461.546C360.528 451.43 361.23 437.859 362.22 431.397C363.138 424.917 363.984 418.527 364.128 417.195C364.182 415.773 364.956 416.907 365.802 419.643C367.854 426.393 370.59 464.642 370.932 491.713C371.076 503.665 371.58 510.415 371.922 506.761C372.282 503.035 373.686 499.453 375.018 498.751C376.278 497.977 377.411 495.799 377.411 493.819C377.411 489.751 381.911 484.117 385.205 484.117C386.411 484.117 387.455 483.074 387.455 481.724C387.455 478.43 403.709 469.43 412.151 468.098C418.469 467.108 419.314 466.406 420.232 461.348C421.15 456.704 422.05 455.642 425.506 455.642C429.304 455.642 429.574 455.156 429.016 449.882C428.386 444.68 428.872 443.906 434.578 441.099C438.016 439.479 442.03 435.969 443.578 433.431C447.016 427.527 456.375 421.407 466.149 418.599C475.851 415.773 479.433 411.489 479.505 402.49C479.505 398.548 480.279 395.398 481.179 395.398C482.169 395.398 482.871 398.548 482.871 402.418C482.871 409.87 487.803 417.123 492.788 417.195C498.134 417.195 512.48 425.205 517.124 430.749C519.716 433.845 524.648 438.075 527.941 440.037C532.873 443.061 533.989 444.681 533.989 449.18C533.989 453.608 534.763 454.868 538.147 455.642C541.369 456.416 542.503 457.892 542.845 461.906C543.349 466.55 544.123 467.252 550.027 468.224C553.681 468.872 558.882 471.194 561.474 473.444C564.156 475.622 567.882 477.44 569.772 477.44C572.454 477.44 573.372 478.502 573.372 481.526C573.372 484.477 574.344 485.737 577.098 486.169C579.978 486.511 580.95 487.915 581.382 492.145C581.796 496.213 582.714 497.545 585.18 497.545C587.844 497.545 588.402 498.751 588.402 504.223C588.402 507.967 589.05 510.919 589.896 510.919C591.57 510.919 593.261 486.583 593.477 459.026C593.549 448.406 594.521 434.133 595.727 427.239L597.761 414.657L599.723 425.547C600.857 431.523 602.189 453.752 602.819 474.92C603.809 510.343 604.799 518.569 607.949 515.419C610.145 513.223 612.107 453.464 610.145 449.18C608.867 446.373 608.867 444.608 610.145 443.349C611.045 442.431 611.891 436.797 611.891 430.965C611.891 421.263 616.679 384.562 617.795 385.696C619.271 387.226 622.997 424.287 622.367 430.965C621.953 435.393 622.025 440.181 622.583 441.657C623.141 443.061 623.915 460.646 624.203 480.536C624.689 507.319 625.607 520.621 627.929 531.438C630.952 546 631.024 546.144 636.082 546.072C638.89 546.072 666.808 546.144 698.091 546.342C729.446 546.486 759.343 546.486 764.473 546.342L773.959 546.144L775.992 529.116C780.924 489.049 775.722 435.681 763.195 398.764L758.425 384.49L480.909 384.076L203.392 383.716L198.191 399.97C186.023 437.859 181.523 475.622 184.547 513.997C187.085 545.784 187.085 545.784 194.609 546.63C199.036 547.188 314.341 546.774 331.567 546.216H331.495ZM252.459 502.963C256.131 487.213 256.059 486.997 247.401 479.906L239.247 473.3L250.155 472.454C260.973 471.608 260.973 471.608 264.627 462.392C266.661 457.334 268.91 453.536 269.684 453.968C270.458 454.382 272.583 458.522 274.4 463.166C277.784 471.608 277.784 471.608 288.602 472.454L299.366 473.3L291.212 480.248C282.986 487.285 282.986 487.285 284.948 495.871C287.756 508.093 287.684 508.309 280.664 504.097C277.208 501.973 273.212 499.525 271.736 498.679C269.684 497.473 267.021 498.391 261.405 502.333C251.973 508.795 251.127 508.867 252.459 502.963ZM676.149 502.477C679.605 486.223 679.821 486.997 671.092 479.906L663.01 473.3L673.845 472.454C684.663 471.608 684.663 471.608 688.389 462.392C690.369 457.334 692.547 453.194 693.177 453.194C693.735 453.194 695.913 457.334 697.947 462.392C701.672 471.608 701.673 471.608 712.364 472.454L723.128 473.3L715.046 480.122C706.947 486.997 706.946 486.997 708.998 496.573C710.042 501.847 710.672 506.473 710.33 506.761C709.97 507.121 706.047 505.069 701.547 502.261C694.293 497.761 692.817 497.419 689.865 499.309C674.817 508.723 674.817 508.723 676.149 502.477ZM352.932 546.414C353.364 545.64 353.364 543.39 352.806 541.356C352.032 538.26 350.682 537.774 343.734 537.774C336.283 537.774 335.509 538.116 335.509 541.644C335.509 543.822 336.067 546.072 336.625 546.702C338.245 548.25 351.888 548.034 352.932 546.414ZM372.552 546.072C375.234 546.072 377.411 545.37 377.411 544.452C377.411 543.534 373.614 542.76 369.042 542.76C364.398 542.76 360.672 541.986 360.672 541.068C360.672 540.168 365.1 539.394 370.734 539.394C379.517 539.394 380.778 539.808 380.778 542.616C380.778 544.452 381.407 546.342 382.253 546.846C383.531 547.62 385.979 526.092 384.791 524.616C383.171 522.51 367.71 524.976 356.46 529.116C343.104 534.048 343.105 534.12 349.782 534.678C356.244 535.164 356.46 535.452 357.018 541.716C357.504 547.89 357.72 548.106 362.652 547.116C365.46 546.558 369.96 546.072 372.552 546.072ZM392.801 533.76C394.853 533.904 395.897 532.068 396.743 527.082C397.373 523.284 398.705 519.073 399.767 517.795C401.099 516.121 400.055 516.247 396.113 518.37C393.017 519.918 390.911 521.665 391.397 522.168C391.901 522.654 391.181 524.13 389.849 525.462C388.229 527.154 387.527 531.168 387.671 538.26C387.959 548.25 388.031 548.322 388.931 541.068C389.705 535.38 390.623 533.616 392.801 533.76ZM404.339 534.39C406.661 534.39 407.507 536.01 408.065 541.5C408.407 545.442 408.623 542.202 408.551 534.39C408.407 521.106 408.137 520.116 404.753 519.63C400.397 519 399.695 521.034 398.507 536.856C397.733 547.746 397.805 548.106 399.479 541.5C400.829 536.442 402.233 534.39 404.339 534.39ZM416.219 540.222C416.993 533.058 421.564 533.616 422.626 541.068C423.184 544.794 424.372 546.918 425.992 546.918C427.54 546.918 428.8 544.794 429.304 541.068C429.862 537.342 431.05 535.236 432.67 535.236C434.29 535.236 435.478 537.342 436.054 541.068C436.756 546.27 437.386 546.918 441.886 546.918C446.656 546.918 446.944 546.558 447.43 538.962L447.934 531.024H412.565V539.736C412.565 548.952 415.229 549.294 416.219 540.222ZM466.149 533.418C466.149 519.415 463.611 516.121 455.385 519.271C451.299 520.818 451.102 521.466 451.102 533.904C451.102 546.972 451.102 546.972 458.625 546.342C466.149 545.784 466.149 545.784 466.149 533.418ZM564.156 532.716C564.156 519.001 563.94 518.443 560.143 517.867C553.897 517.021 553.051 519.415 554.239 534.192C555.427 547.746 555.499 547.962 559.801 547.476C564.085 546.918 564.156 546.774 564.156 532.716ZM513.038 789.839C573.228 782.657 625.463 760.158 671.596 721.423C694.437 702.218 718.412 675.092 730.652 654.555L734.378 648.291H226.594L235.107 660.891C245.439 676.208 258.939 691.958 275.462 707.995C339.433 770.076 426.478 800.099 513.038 789.839ZM464.529 780.912C461.361 779.148 456.429 774.864 453.622 771.408C448.978 765.648 448.564 764.172 448.564 752.076C448.564 740.053 448.978 738.505 453.694 732.601C465.087 718.255 483.573 714.745 497.846 724.231C505.514 729.289 507.134 733.087 500.096 729.361C488.217 723.241 471.693 728.515 465.717 740.413C454.899 761.994 478.371 783.791 500.024 772.254C508.394 767.754 506.774 771.966 497.702 778.23C488.702 784.493 473.241 785.681 464.529 780.912ZM502.976 758.268C502.976 754.542 501.932 753.21 497.576 751.716L492.158 749.826L497.576 747.576C501.788 745.884 503.048 744.336 503.048 740.755C503.12 736.183 503.12 736.183 506.144 739.765C508.394 742.519 510.302 743.149 513.956 742.447C518.798 741.529 518.798 741.529 516.206 745.542C513.74 749.196 513.74 749.898 516.134 753.552C518.726 757.494 518.654 757.494 513.524 756.36C509.312 755.46 507.908 755.946 505.658 759.042C502.976 762.912 502.976 762.912 502.976 758.268ZM358.152 737.875C346.615 734.779 333.889 729.091 333.889 727.111C333.889 723.385 337.957 723.745 352.032 728.587C376.638 737.029 393.431 735.139 425.992 720.217C470.217 700.04 492.932 700.544 542.359 722.539C570.546 735.067 589.752 736.543 612.593 727.885C619.001 725.491 625.247 723.889 626.453 724.375C630.736 725.995 628.487 728.875 619.847 732.673C592.56 744.625 568.728 742.789 531.451 725.707C492.374 707.851 469.443 708.139 428.242 727.039C400.469 739.837 378.114 743.292 358.152 737.875ZM353.922 715.447C342.745 711.865 333.889 707.365 333.889 705.242C333.889 701.66 337.903 701.876 348.432 706.087C371.58 715.375 394.709 713.611 424.3 700.256C451.66 687.962 459.039 686.054 481.251 686.054C503.12 686.054 511.148 688.016 536.725 699.482C568.368 713.611 590.868 715.591 614.141 706.16C622.871 702.578 626.021 701.948 627.497 703.496C632.77 708.841 609.569 717.409 587.286 718.255C567.45 719.029 559.927 717.265 533.647 705.817C491.601 687.602 469.731 687.602 429.088 706.016C419.872 710.173 407.993 714.673 402.575 716.077C389.363 719.515 365.604 719.245 353.922 715.447ZM360.672 695.972C349.422 693.218 336.355 687.746 334.663 685.064C331.639 680.15 337.255 680.222 349.908 685.352C361.374 689.996 365.172 690.77 378.257 690.77C395.411 690.77 405.527 688.16 427.468 678.116C467.121 659.901 493.076 659.829 534.763 677.9C560.359 689.006 567.18 690.77 584.262 690.842C597.401 690.842 600.929 690.14 612.521 685.424C622.223 681.41 626.309 680.492 627.641 681.842C630.395 684.578 623.771 689.222 610.559 693.794C601.559 696.89 595.926 697.664 582.57 697.592C564.571 697.448 558.45 695.828 528.427 682.814C492.014 667.065 467.967 667.64 429.16 685.136C401.027 697.718 380.994 700.958 360.672 695.972ZM748.579 622.21C758.353 601.69 768.829 571.865 770.449 559.985L771.421 552.822H189.461L190.595 559.067C193.061 572.153 203.95 602.95 212.878 621.868L222.166 641.541H739.364L748.579 622.21ZM322.981 198.447C315.889 194.793 308.923 187.827 305.414 181.006C302.534 175.39 281.924 125.963 281.924 124.631C281.924 123.083 301.058 115.757 302.174 116.891C302.804 117.593 308.149 130.175 313.981 144.809C320.029 159.928 326.581 173.554 329.101 176.236C334.879 182.428 343.375 182.698 350.052 176.938C357.504 170.53 356.244 163.078 342.529 131.093L330.793 103.878L339.163 99.5938C343.806 97.2718 348.504 95.7239 349.638 96.1558C350.754 96.5698 356.802 108.882 363.138 123.425C379.877 162.178 380.219 175.534 364.686 189.177C352.662 199.725 333.601 204.009 322.981 198.447ZM557.551 176.092C549.325 175.102 549.325 175.102 541.657 155.554C537.427 144.809 533.503 135.593 532.927 135.035C530.263 132.353 521.75 145.781 520.562 154.438C518.384 170.476 518.24 170.602 506.504 168.64C500.87 167.722 496.298 166.534 496.298 166.03C496.442 162.232 511.274 76.6804 511.904 76.0324C512.408 75.5464 516.98 76.0324 522.11 77.0944C533.215 79.4163 533.143 78.9843 527.383 112.391C526.825 115.703 530.263 113.021 543.349 99.6657C559.999 82.7822 559.998 82.7823 571.248 84.2583C577.44 85.1042 582.858 86.1662 583.344 86.5802C583.776 87.0841 576.324 94.734 566.748 103.68L549.397 119.915L553.177 128.285C562.122 148.175 573.372 174.688 573.372 176.092C573.372 177.712 570.906 177.712 557.551 176.092ZM408.479 172.366C407.003 167.722 398.579 83.9163 399.479 82.9983C401.603 80.8204 435.622 77.0224 443.848 78.0124C468.597 80.9643 478.227 107.604 460.443 123.929C456.015 128.069 456.015 128.069 460.227 131.507C465.429 135.737 481.611 162.88 479.919 164.482C479.289 165.13 474.087 166.174 468.399 166.804C458.121 168.01 458.121 168.01 450.255 154.366C445.9 146.842 440.968 140.021 439.276 139.103C434.506 136.511 425.434 136.997 426.478 139.733C426.91 140.939 427.9 148.876 428.53 157.318C429.718 172.654 429.718 172.654 423.256 172.654C419.656 172.654 415.03 173.068 412.978 173.626C410.603 174.328 408.983 173.842 408.479 172.366ZM443.848 114.983C448.564 109.512 448.78 103.95 444.55 98.6759C441.886 95.454 439.852 94.7339 432.814 94.8779C428.17 94.8779 423.886 95.4539 423.328 96.0119C422.752 96.5699 422.824 102.546 423.454 109.368C424.66 121.805 424.66 121.805 432.328 120.617C437.656 119.843 441.184 118.079 443.848 114.983ZM731.696 895.856C732.2 895.01 733.892 894.308 735.368 894.308C738.518 894.308 736.843 896.486 733.244 896.99C731.912 897.206 731.21 896.702 731.696 895.856ZM759.271 879.405C759.271 878.487 760.045 877.299 760.945 876.741C761.863 876.183 762.565 876.453 762.565 877.371C762.565 878.289 761.863 879.477 760.945 880.107C759.973 880.683 759.271 880.395 759.271 879.405ZM711.518 854.097C712.094 853.18 713.282 852.478 714.2 852.478C715.172 852.478 715.46 853.18 714.902 854.097C714.344 855.015 713.066 855.789 712.148 855.789C711.248 855.789 710.96 855.015 711.518 854.097ZM717.368 851.632C717.368 850.228 718.142 849.112 718.97 849.112C719.888 849.112 720.176 850.228 719.672 851.632C719.114 852.963 718.412 854.097 718.07 854.097C717.71 854.097 717.368 852.963 717.368 851.632Z" fill="#22924A"/>
</svg>
