<svg width="958" height="960" viewBox="0 0 958 960" fill="none" xmlns="http://www.w3.org/2000/svg">
<path fill-rule="evenodd" clip-rule="evenodd" d="M422.304 956.559C380.868 951.818 329.135 938.2 290.309 921.722C223.727 893.569 156.519 843.654 112.054 789.311C104.139 779.599 104.139 779.598 108.044 775.86C111.24 772.831 111.386 771.851 109.193 771.203C107.647 770.702 105.768 769.323 105.037 768.174C104.222 766.88 102.99 767.861 102.008 770.638C100.379 774.878 99.9825 774.629 92.3803 764.666C55.3508 716.213 25.3179 650.695 11.1369 587.225C-4.29728 518.054 -3.62889 431.568 12.766 365.007C53.4712 200.119 177.07 69.7543 339.494 20.6324C455.093 -14.3503 580.175 -4.57617 687.441 47.8874C736.897 72.0306 772.047 96.6743 810.81 134.289C838.796 161.46 846.774 171.005 843.182 173.198C841.804 174.096 841.24 175.642 841.971 176.791C842.618 177.856 841.804 180.132 840.258 181.761C838.629 183.39 837.48 185.437 837.815 186.252C838.044 187.15 837.397 188.13 836.332 188.465C835.287 188.778 833.805 187.065 833.157 184.538C832.426 182.095 831.779 180.779 831.695 181.594C831.528 182.429 819.456 171.005 804.691 156.155C779.712 131.03 748.154 105.321 723.426 90.1587C695.691 73.012 696.986 74.0775 699.032 70.2347C700.494 67.5614 700.181 65.911 697.884 64.0522C694.229 61.0239 687.441 59.7285 687.441 62.005C687.441 65.3466 673.824 62.6526 658.975 56.4498C528.609 1.96039 384.857 8.39343 261.342 74.1608C197.537 108.183 135.132 165.449 93.9259 227.624C58.9432 280.401 31.6044 353.583 23.7725 415.591C20.3473 442.992 19.6998 445.938 17.7366 444.706C16.6715 444.142 15.8569 444.455 15.8569 445.687C15.8569 446.752 16.755 447.733 17.8201 447.733C18.8853 447.733 19.7834 450.344 19.7834 453.519C19.7834 457.424 18.8018 459.388 16.8386 459.388C15.2095 459.388 13.8938 460.286 13.8938 461.351C13.8938 462.416 15.2095 463.314 16.8386 463.314C19.2822 463.314 19.7834 467.386 19.7834 488.522C19.7834 513.083 23.3756 549.131 27.9286 570.016C29.8083 578.663 29.7247 580.709 27.3647 582.171C25.0882 583.633 25.0882 583.884 27.6153 583.967C29.7247 583.967 31.7715 588.207 34.2151 598.086C44.4071 638.144 69.0516 694.032 91.9835 729.182C126.005 781.228 167.692 824.063 218.757 859.318C229.199 866.481 237.762 872.768 237.762 873.352C237.762 873.916 234.17 873.749 229.763 873.018C222.683 871.786 221.848 872.037 222.516 875.295C222.996 877.822 225.127 878.97 230.014 879.304C246.659 880.348 257.436 883.378 273.747 891.773C369.025 940.478 486.421 952.967 593.228 925.565C754.023 884.359 881.381 757.732 923.151 597.585C933.427 557.945 937.103 527.682 937.249 480.774C937.333 434.179 934.722 410.934 924.697 370.145C912.124 319.06 889.046 266.283 861.707 225.828C853.625 213.819 847.025 203.711 847.025 203.231C847.025 202.813 848.403 202.416 850.053 202.416C851.766 202.416 852.58 201.58 851.912 200.536C851.181 199.388 852.079 198.573 853.792 198.573C858.031 198.573 859.431 193.916 856.82 188.465C852.894 180.382 868.328 198.824 879.084 215.052C916.948 272.569 942.157 338.233 953.414 409.138C957.821 436.706 958.385 516.905 954.396 544.077C938.398 652.408 892.784 744.281 817.744 819.426C713.715 923.351 569.315 973.518 422.304 956.559ZM757.532 853.428C757.532 851.799 756.634 850.985 755.569 851.632C754.504 852.301 753.605 853.678 753.605 854.66C753.605 855.641 754.504 856.54 755.569 856.54C756.634 856.54 757.532 855.141 757.532 853.428ZM908.385 671.581C909.033 670.536 908.135 669.638 906.422 669.638C904.71 669.638 903.812 670.536 904.459 671.581C905.107 672.646 906.005 673.544 906.422 673.544C906.819 673.544 907.717 672.646 908.385 671.581ZM919.058 662.787C919.058 661.221 918.16 659.927 917.116 659.927C916.05 659.927 915.152 661.221 915.152 662.787C915.152 664.416 916.05 665.712 917.116 665.712C918.16 665.712 919.058 664.416 919.058 662.787ZM947.128 517.47C946.313 516.258 945.081 512.498 944.266 509.24C942.888 503.371 942.804 503.371 942.637 508.425C942.387 514.712 944.183 519.767 946.647 519.767C947.691 519.767 947.859 518.702 947.128 517.47ZM80.1416 243.352C80.1416 242.224 79.2435 241.409 78.1992 241.409C77.1341 241.409 76.2361 242.224 76.2361 243.352C76.2361 244.417 77.1341 245.231 78.1992 245.231C79.2435 245.231 80.1416 244.417 80.1416 243.352ZM708.828 62.339C708.828 61.2739 708.013 60.3759 706.864 60.3759C705.799 60.3759 704.985 61.2739 704.985 62.339C704.985 63.3832 705.799 64.2817 706.864 64.2817C708.013 64.2817 708.828 63.3832 708.828 62.339ZM351.085 28.7983C349.289 27.0022 348.725 27.5029 348.725 31.1578C348.725 34.8336 349.289 35.3352 351.085 33.5391C352.881 31.6594 352.881 30.678 351.085 28.7983ZM425.645 929.471C363.575 922.203 295.614 898.79 243.631 866.731C136.845 800.985 58.609 689.124 35.6144 569.369C29.6413 538.522 28.7431 527.514 31.9386 527.514C33.9644 527.514 35.6144 533.384 38.0579 548.484C53.2206 642.718 94.0094 724.128 159.526 791.107C229.533 862.576 312.991 905.577 413.908 922.056C440.014 926.296 514.01 926.777 538.571 922.955C641.765 906.622 722.863 866 793.58 795.262C902.496 686.346 947.211 533.468 913.92 383.512C902.412 331.55 880.88 279.755 853.478 238.131C847.276 228.67 841.553 220.023 840.822 218.895C840.091 217.746 841.073 216.765 843.182 216.598C852.664 215.867 894.184 294.018 909.033 340.697C924.196 388.336 929.501 423.485 929.668 478.894C929.751 534.615 925.512 564.962 910.495 614.564C881.214 711.722 815.133 799.273 726.371 858.65C641.598 915.436 529.988 941.71 425.645 929.471ZM433.394 916.752C331.913 905.244 241.187 861.928 170.616 791.357C104.306 724.942 64.3941 648.502 46.6208 553.788C40.2508 519.933 40.2508 440.632 46.6208 405.796C80.8098 218.142 220.553 79.6327 409.083 46.4253C441.81 40.6192 509.917 40.1389 542.394 45.4437C642.496 61.6715 724.659 104.173 793.663 175.475C812.606 194.982 833.408 220.106 833.408 223.364C833.408 224.429 834.87 226.476 836.582 227.938C838.295 229.337 842.618 235.122 846.21 240.677C949.488 402.203 938.481 608.695 818.809 756.27C801.579 777.489 772.381 806.373 770.167 804.41C769.269 803.595 769.207 803.992 769.854 805.224C773.363 811.344 712.086 853.929 670.879 874.083C630.425 893.903 596.068 904.91 549.244 913.16C523.472 917.65 459.103 919.676 433.394 916.752ZM506.408 488.606C506.408 487.457 504.215 486.643 501.521 486.643C498.827 486.643 496.718 487.457 496.718 488.606C496.718 489.65 498.827 490.549 501.521 490.549C504.215 490.549 506.408 489.65 506.408 488.606ZM132.605 469.6C132.522 462.499 132.125 462.082 120.199 456.777C107.877 451.326 107.877 451.326 92.067 457.508C83.337 461.016 76.2361 464.379 76.2361 465.026C76.2361 465.673 84.799 470.645 95.2415 476.2C114.164 486.225 114.164 486.224 123.395 481.504C131.958 477.181 132.689 476.283 132.605 469.6ZM882.028 465.11C882.112 464.442 874.844 461.183 865.947 457.675L849.886 451.389L837.23 457.194C824.511 462.896 824.511 462.897 825.242 470.478C825.889 477.266 826.871 478.393 834.786 482.069C843.683 486.225 843.683 486.225 862.856 476.2C873.382 470.645 882.028 465.674 882.028 465.11ZM461.213 471.542C460.732 460.933 460.398 460.286 455.26 459.722C449.956 459.158 449.956 459.22 449.956 470.895C449.956 482.716 449.956 482.717 455.929 482.717C461.798 482.717 461.798 482.716 461.213 471.542ZM486.505 471.542C485.941 460.369 485.941 460.369 478.673 459.722C471.342 459.158 471.342 459.157 471.342 470.895C471.342 482.716 471.342 482.717 479.258 482.717C487.173 482.717 487.173 482.716 486.505 471.542ZM506.408 471.062C506.408 459.888 506.179 459.388 501.521 459.388C496.864 459.388 496.718 459.888 496.718 471.062C496.718 482.235 496.864 482.717 501.521 482.717C506.179 482.717 506.408 482.235 506.408 471.062ZM564.824 478.811C564.824 477.746 563.279 476.931 561.399 476.931C558.475 476.931 558.391 477.265 560.919 478.811C564.594 481.254 564.824 481.254 564.824 478.811ZM286.466 464.296C286.466 453.936 291.124 454.583 240.707 458.176C207.583 460.536 207.583 460.536 221.2 462.98C234.901 465.424 279.449 472.357 284.023 472.775C285.652 472.942 286.466 470.081 286.466 464.296ZM712.733 466.989C750.765 461.35 752.645 460.286 726.371 458.74C714.049 458.009 696.338 456.86 686.961 456.212L669.918 454.897V464.211C669.918 473.505 669.919 473.505 678.147 472.21C682.721 471.458 698.301 469.098 712.733 466.989ZM403.632 430.754C389.347 430.357 366.582 430.357 352.965 430.754C339.41 431.088 351.085 431.318 378.904 431.318C406.723 431.318 417.813 431.004 403.632 430.754ZM663.131 429.292C664.196 428.874 659.392 428.561 652.375 428.561C645.441 428.561 638.006 429.291 635.897 430.106C632.221 431.568 658.808 430.753 663.131 429.292ZM469.546 422.191C479.174 418.035 479.174 418.035 488.802 422.191C495.318 425.052 502.419 426.347 511.149 426.347C523.472 426.347 523.952 426.18 523.952 421.46C523.952 416.552 523.952 416.552 479.174 416.552C434.375 416.552 434.375 416.552 434.375 421.46C434.375 426.18 434.876 426.347 447.199 426.347C455.845 426.347 463.009 425.052 469.546 422.191ZM317.147 423.006C313.158 422.525 306.14 422.525 301.566 422.922C296.992 423.339 300.251 423.736 308.834 423.736C317.397 423.736 321.136 423.34 317.147 423.006ZM428.507 419.663C428.507 417.053 429.405 414.359 430.47 413.712C431.535 412.981 432.433 410.683 432.433 408.573C432.433 405.211 433.477 404.731 439.764 405.212C447.032 405.88 447.032 405.879 448.577 394.205C449.392 387.772 449.872 370.459 449.559 355.777C449.225 341.011 449.642 329.023 450.457 329.023C451.271 329.023 451.919 324.051 451.919 318.015C451.919 311.081 452.9 306.258 454.613 304.879C456.075 303.647 457.704 299.575 458.289 295.732C459.354 288.798 459.354 288.797 447.345 290.593C387.968 299.24 332.33 342.326 309.649 397.066C300.167 419.998 299.854 418.515 314.536 418.515C324.561 418.515 327.339 419.162 327.339 421.46C327.339 423.987 334.273 424.384 377.923 424.384C428.59 424.384 428.59 424.383 428.59 419.663H428.507ZM657.826 423.006C653.837 422.525 646.819 422.525 642.246 422.922C637.693 423.339 640.951 423.736 649.514 423.736C658.077 423.736 661.753 423.34 657.826 423.006ZM301.566 404.564C304.01 396.983 305.806 390.529 305.472 390.383C302.715 388.253 245.281 375.68 234.838 374.866L221.2 373.82L234.587 377.476C252.862 382.614 264.203 390.132 276.442 405.462C284.67 415.654 288.012 418.515 292.022 418.515C296.679 418.431 297.556 417.137 301.566 404.564ZM440.265 410.767C440.265 409.702 439.367 408.804 438.302 408.804C437.237 408.804 436.339 409.702 436.339 410.767C436.339 411.832 437.237 412.73 438.302 412.73C439.367 412.73 440.265 411.832 440.265 410.767ZM495.089 411.268C485.126 410.85 469.379 410.85 460.085 411.268C450.77 411.581 458.936 411.916 478.192 411.916C497.449 411.916 505.03 411.581 495.089 411.268ZM520.046 410.767C520.046 409.702 519.148 408.804 518.083 408.804C517.018 408.804 516.12 409.702 516.12 410.767C516.12 411.832 517.018 412.73 518.083 412.73C519.148 412.73 520.046 411.832 520.046 410.767ZM706.384 383.512C720.482 375.534 731.76 368.829 731.509 368.599C731.342 368.348 719.354 371.857 704.901 376.431C690.47 381.068 672.675 386.456 665.428 388.503C651.143 392.575 651.226 392.492 656.28 405.796C658.411 411.497 653.44 413.712 706.384 383.512ZM467.102 399.426C467.75 393.056 467.666 392.994 460.315 393.641C453.464 394.205 452.817 394.706 452.253 400.659C451.668 407.008 451.752 407.091 459.103 406.527C465.87 405.88 466.518 405.378 467.102 399.426ZM428.507 438.753C428.507 437.291 427.212 436.059 425.645 436.059C424.016 436.059 422.721 437.771 422.721 439.901C422.721 442.428 423.619 443.327 425.645 442.596C427.212 441.927 428.507 440.214 428.507 438.753ZM315.685 439.004C315.685 437.375 314.787 436.059 313.721 436.059C312.74 436.059 312.406 437.375 312.991 439.004C313.638 440.549 314.453 441.844 314.87 441.844C315.267 441.844 315.685 440.549 315.685 439.004ZM288.68 434.597C290.309 423.173 290.393 423.173 259.545 419.748C207.5 413.879 208.648 413.628 239.725 424.384C255.222 429.772 271.053 435.412 274.729 436.874C285.255 441.03 287.866 440.633 288.68 434.597ZM504.466 434.096C498.576 431.005 492.875 428.477 491.81 428.477C490.744 428.477 494.671 431.005 500.54 434.096C506.408 437.208 512.131 439.818 513.196 439.818C514.24 439.818 510.335 437.208 504.466 434.096ZM656.28 438.272C656.28 437.29 654.818 435.892 653.106 435.244C650.412 434.263 650.328 434.513 652.375 436.956C655.153 440.382 656.28 440.716 656.28 438.272ZM449.726 431.172C450.123 430.67 446.948 430.273 442.458 430.273C435.691 430.273 434.375 430.837 434.375 434.179C434.375 437.938 434.709 437.939 441.56 435.077C445.549 433.365 449.225 431.652 449.726 431.172ZM523.952 434.096C523.952 430.754 522.657 430.273 514.658 430.273L505.448 430.357L513.196 434.012C523.221 438.753 523.952 438.753 523.952 434.096ZM555.05 440.883C555.05 437.854 553.985 436.059 552.189 436.059C550.309 436.059 549.244 437.854 549.244 440.883C549.244 443.89 550.309 445.77 552.189 445.77C553.985 445.77 555.05 443.89 555.05 440.883ZM574.536 440.883C574.536 437.854 573.408 436.059 571.612 436.059C569.816 436.059 568.667 437.854 568.667 440.883C568.667 443.89 569.816 445.77 571.612 445.77C573.408 445.77 574.536 443.89 574.536 440.883ZM594.043 440.883C594.043 437.854 592.894 436.059 591.098 436.059C589.218 436.059 588.174 437.854 588.174 440.883C588.174 443.89 589.218 445.77 591.098 445.77C592.894 445.77 594.043 443.89 594.043 440.883ZM613.445 440.883C613.445 437.854 612.401 436.059 610.521 436.059C608.725 436.059 607.66 437.854 607.66 440.883C607.66 443.89 608.725 445.77 610.521 445.77C612.401 445.77 613.445 443.89 613.445 440.883ZM628.461 438.503C627.981 436.623 627.48 437.687 627.48 440.883C627.396 444.141 627.814 445.686 628.378 444.308C628.879 442.992 628.963 440.382 628.461 438.503ZM636.795 440.883C636.795 438.188 635.98 436.059 634.915 436.059C633.766 436.059 632.952 438.188 632.952 440.883C632.952 443.556 633.766 445.77 634.915 445.77C635.98 445.77 636.795 443.556 636.795 440.883ZM644.459 437.437C644.543 436.706 643.728 436.059 642.663 436.059C641.598 436.059 640.784 438.418 640.867 441.363C640.951 446.104 641.201 446.25 642.663 442.825C643.561 440.716 644.376 438.272 644.459 437.437ZM652.375 443.891C652.375 440.549 648.95 439.901 646.569 442.825C644.543 445.269 644.856 445.77 648.281 445.77C650.579 445.77 652.375 444.955 652.375 443.974V443.891ZM665.992 440.883C665.992 437.854 664.927 436.059 663.131 436.059C661.272 436.059 660.207 437.854 660.207 440.883C660.207 443.89 661.272 445.77 663.131 445.77C664.927 445.77 665.992 443.89 665.992 440.883ZM296.178 440.883C296.178 438.272 295.28 436.059 294.215 436.059C293.171 436.059 292.272 438.272 292.272 440.883C292.272 443.556 293.171 445.77 294.215 445.77C295.28 445.77 296.178 443.556 296.178 440.883ZM304.511 438.419C305.806 436.706 305.472 436.059 303.195 436.059C301.065 436.059 300.104 437.687 300.251 441.363C300.334 444.454 300.835 445.436 301.483 443.807C302.047 442.178 303.446 439.818 304.511 438.419ZM311.278 443.493C310.129 439.817 306.537 439.401 305.242 442.742C304.428 444.873 305.326 445.77 308.083 445.77C310.296 445.77 311.758 444.705 311.278 443.493ZM323.433 440.883C323.433 438.188 322.535 436.059 321.47 436.059C320.405 436.059 319.507 438.188 319.507 440.883C319.507 443.556 320.405 445.77 321.47 445.77C322.535 445.77 323.433 443.556 323.433 440.883ZM348.725 440.883C348.725 437.854 347.66 436.059 345.78 436.059C343.984 436.059 342.919 437.854 342.919 440.883C342.919 443.89 343.984 445.77 345.78 445.77C347.66 445.77 348.725 443.89 348.725 440.883ZM370.174 440.883C370.174 437.29 369.109 436.059 366.269 436.059C363.407 436.059 362.342 437.29 362.342 440.883C362.342 444.454 363.407 445.77 366.269 445.77C369.109 445.77 370.174 444.454 370.174 440.883ZM387.634 443.974C387.634 442.992 388.198 440.799 388.866 439.086C389.681 436.873 388.866 436.059 385.922 436.059C382.831 436.059 381.849 437.207 381.849 440.883C381.849 443.89 382.893 445.77 384.773 445.77C386.318 445.77 387.634 444.955 387.634 443.974ZM409.083 440.883C409.083 437.29 408.039 436.059 405.178 436.059C402.317 436.059 401.251 437.29 401.251 440.883C401.251 444.454 402.317 445.77 405.178 445.77C408.039 445.77 409.083 444.454 409.083 440.883ZM455.093 434.911C474.851 425.7 478.756 424.468 482.766 426.264C485.377 427.413 487.821 428.06 488.217 427.58C488.635 427.162 486.505 425.783 483.497 424.551C478.443 422.441 475.749 423.339 453.715 433.865C440.411 440.214 430.136 445.519 430.783 445.603C431.535 445.686 442.458 440.884 455.093 434.911ZM499.558 443.724L511.233 443.64L498.576 437.688C491.643 434.43 484.228 431.088 482.035 430.19C479.258 429.125 473.305 431.005 460.649 437.208L443.105 445.77L465.536 444.788C477.858 444.224 493.209 443.724 499.558 443.724ZM535.627 440.883C535.627 437.29 534.562 436.059 531.7 436.059C526.897 436.059 526.646 439.568 531.22 443.076C535.71 446.418 535.627 446.501 535.627 440.883ZM537.59 909.233C631.239 896.431 720.335 851.798 785.1 785.321C814.152 755.539 812.919 760.51 798.321 732.44C791.387 719.157 784.787 707.482 783.638 706.5C782.49 705.519 773.676 703.66 764.132 702.261L746.839 699.817L728.314 719.073C679.045 770.304 618.353 803.909 548.429 818.758C516.454 825.525 462.863 827.259 431.451 822.602C349.936 810.446 286.968 778.137 228.635 718.572L210.674 700.215L192.65 702.595C179.43 704.224 174.041 705.77 172.579 708.13C171.514 710.009 165.165 721.852 158.378 734.487L146.139 757.585L159.944 772.832C226.923 847.079 323.016 896.848 424.914 909.901C455.093 913.807 506.346 913.473 537.59 909.233ZM446.698 890.06C442.938 879.471 440.265 874 438.615 874C436.506 874 434.459 880.599 434.375 887.303C434.375 890.874 433.477 891.689 429.969 891.209C425.979 890.561 425.645 889.747 426.314 879.137C426.627 872.851 427.525 863.641 428.256 858.65C429.488 850.087 429.822 849.689 436.422 849.104C452.483 847.726 461.881 857.751 454.195 868.131C450.29 873.352 450.206 874.167 452.9 880.599C454.53 884.442 455.762 888.849 455.762 890.478C455.762 894.634 448.16 894.3 446.698 890.06ZM446.05 865.269C448.013 862.909 448.013 861.76 446.05 859.4C442.708 855.307 438.782 855.809 437.32 860.362C435.044 867.63 441.226 871.138 446.05 865.269ZM465.536 891.293C465.536 890.144 468.314 880.432 471.655 869.843C477.775 850.587 477.858 850.504 483.664 851.067C489.282 851.569 489.867 852.53 496.049 871.055C499.558 881.665 502.503 891.126 502.503 891.94C502.503 895.783 494.42 893.088 492.394 888.598C490.682 884.693 488.802 883.795 482.913 883.795C476.814 883.795 475.498 884.525 474.433 888.598C473.222 893.485 465.536 895.867 465.536 891.293ZM486.024 870.658C484.562 864.851 483.497 863.139 482.265 864.455C481.785 864.935 480.803 867.629 480.072 870.658C478.923 875.21 479.341 875.963 482.996 875.963C486.755 875.963 487.173 875.21 486.024 870.658ZM515.974 885.82C510.418 880.286 509.27 875.712 510.168 862.325C510.899 851.715 526.082 843.653 535.71 848.791C542.477 852.383 540.43 856.853 532.682 855.391C523.137 853.595 520.046 856.79 520.046 868.36C520.046 876.276 520.861 878.322 524.85 880.933C529.173 883.794 530.238 883.795 535.543 881.184C541.328 878.239 541.412 878.323 541.412 882.96C541.412 892.588 524.683 894.467 515.974 885.82ZM394.568 886.239C377.526 881.915 372.952 857.918 386.987 846.828C396.615 839.246 416.832 843.236 416.832 852.697C416.832 857.187 415.286 857.354 410.149 853.511C397.993 844.301 381.933 860.132 390.412 873.018C394.819 879.785 403.215 879.785 403.215 873.018C403.215 870.074 402.149 868.131 400.437 868.131C396.698 868.131 395.299 865.666 397.262 862.492C398.557 860.361 400.27 860.361 406.159 862.325C413.49 864.685 413.49 864.685 412.279 874.563C410.796 887.053 407.204 889.412 394.568 886.154V886.239ZM551.458 865.834C547.218 846.097 547.698 841.126 553.651 843.403C555.28 843.966 557.807 851.151 559.77 860.696C561.65 869.593 563.696 878.887 564.26 881.247C565.075 884.922 564.427 885.653 560.501 885.653C556.011 885.653 555.447 884.359 551.458 865.834ZM580.822 876.611C573.471 873.582 568.103 851.318 572.656 842.755C577.794 833.043 595.108 830.183 602.689 837.764C608.224 843.236 612.15 856.289 610.354 863.223C607.66 873.917 591.912 881.101 580.822 876.611ZM598.763 866.335C604.068 860.445 599.744 844.3 592.163 841.94C585.563 839.81 580.405 844.134 580.405 851.799C580.405 867.066 590.701 875.211 598.763 866.335ZM354.594 872.684C354.594 867.63 364.306 838.432 367 835.655C368.295 834.255 370.258 833.942 371.803 834.84C373.85 836.135 373.265 840.229 368.629 855.725C363.888 871.702 362.175 875.065 358.75 875.629C355.826 876.026 354.594 875.211 354.594 872.684ZM331.745 863.807C332.247 861.343 335.004 854.18 337.865 847.726L343.17 836.051L331.265 849.104C315.601 866.251 313.22 865.52 314.056 843.737C314.369 834.923 314.056 828.073 313.22 828.553C312.406 829.034 311.758 830.517 311.758 831.729C311.675 833.044 309.565 838.662 306.955 844.301C303.53 851.715 301.399 854.179 299.206 853.365C294.946 851.715 295.28 850.087 303.279 830.747C310.463 813.371 312.343 811.74 319.924 815.834C323.6 817.776 323.83 819.092 322.702 832.793L321.47 847.726L330.847 837.367C338.763 828.637 341.123 827.091 345.947 827.572C354.113 828.553 354.114 832.961 345.697 851.799C340.162 864.289 337.468 868.131 334.607 868.131C331.662 868.131 331.014 867.149 331.745 863.807ZM625.934 857.354C624.389 853.595 620.964 845.596 618.269 839.643C612.401 826.277 612.401 825.609 617.852 823.583C623.157 821.536 625.454 822.684 637.358 833.127C647.321 841.857 647.634 840.541 639.635 825.128C636.293 818.591 637.024 813.621 641.431 813.621C644.543 813.621 658.724 845.596 657.826 850.504C656.615 856.937 648.699 855.077 638.507 845.846C633.035 840.959 628.232 837.2 627.814 837.618C627.396 838.015 629.276 843.403 631.97 849.523C634.664 855.642 636.377 861.427 635.813 862.409C633.37 866.335 628.712 863.954 626.018 857.354H625.934ZM580.405 830.433C580.405 826.11 587.276 818.675 589.803 820.304C591.515 821.37 591.515 822.684 589.803 825.943C586.211 832.793 580.405 835.571 580.405 830.433ZM264.036 817.046C262.971 812.974 261.509 811.658 257.52 811.658C252.528 811.595 252.444 811.511 256.287 808.65C258.814 806.77 259.963 803.992 259.545 800.818C258.898 796.327 259.232 796.077 262.887 798.458C266.229 800.484 267.711 800.483 271.137 798.374C275.042 795.93 275.209 796.077 274.144 800.254C273.413 803.095 274.144 806.04 276.107 808.233C279.052 811.512 278.969 811.741 275.126 811.741C272.599 811.741 269.904 813.788 268.192 817.046C265.351 822.435 265.351 822.435 264.036 817.046ZM689.822 816.816C688.339 813.537 685.896 811.741 683.118 811.658C678.878 811.658 678.878 811.511 682.22 808.901C684.684 807.021 685.415 804.891 684.601 802.113C683.201 797.79 684.768 797.058 689.321 800.003C691.284 801.214 693.331 800.734 695.858 798.541C699.367 795.346 699.534 795.43 698.865 800.254C698.469 803.095 699.367 806.771 700.829 808.567C703.105 811.344 702.959 811.741 699.534 811.741C696.986 811.741 694.96 813.537 693.811 816.816C692.182 821.953 692.182 821.953 689.822 816.816ZM211.342 796.495C211.823 795.597 211.572 792.339 210.758 789.144C209.212 783.526 209.212 783.525 206.434 789.227C204.972 792.338 202.362 795.262 200.816 795.763C198.435 796.494 198.352 796.161 200.315 794.051C201.631 792.652 202.759 788.914 202.759 785.718C202.759 779.933 202.758 779.932 198.038 784.339C190.206 791.67 188.661 788.016 196.075 779.85C202.195 773.25 202.445 772.435 198.519 773.73C195.992 774.461 191.355 775.526 188.16 776.006C182.291 776.821 182.291 776.821 188.661 773.981C196.493 770.305 196.806 766.963 189.225 766.963C186.05 766.963 183.022 766.232 182.542 765.334C181.957 764.52 182.939 763.768 184.818 763.768C186.614 763.768 191.188 763.538 194.927 763.204C201.798 762.724 201.798 762.723 193.298 758.88C183.106 754.16 183.44 753.179 194.613 755.205C203.009 756.772 203.009 756.771 198.038 751.549C191.585 744.845 191.585 742.57 197.955 746.726C203.74 750.569 205.87 749.336 202.926 743.864C198.769 736.116 200.9 735.385 206.601 742.653L212.47 749.984V741.42C212.47 732.857 212.47 732.857 215.415 738.496C216.96 741.504 218.36 745.494 218.506 747.206C218.59 748.94 219.404 747.707 220.386 744.365C221.367 741.023 223.331 737.264 224.792 736.032C226.923 734.236 227.152 735.468 226.108 742.736C224.709 751.612 224.709 751.612 230.181 745.66C235.402 739.958 240.456 737.014 236.217 742.152C235.068 743.551 233.188 747.144 232.061 750.151C229.93 755.623 229.93 755.622 236.551 751.549C246.012 745.743 247.223 746.558 240.122 753.826L233.94 760.26L242.169 759.695L250.419 759.214L242.67 762.953C236.697 765.814 235.653 766.963 238.263 767.778C247.954 770.869 248.205 771.683 239.976 772.352L231.413 772.999L238.66 777.887C242.587 780.581 245.511 783.107 245.197 783.525C244.299 784.423 232.144 780.268 228.051 777.72C225.44 776.091 225.44 776.341 228.051 779.683C229.617 781.729 232.06 784.172 233.355 784.987C234.755 785.885 235.799 788.496 235.799 790.856C235.736 794.699 235.486 794.783 233.773 791.754C232.624 789.875 230.014 787.43 227.821 786.302C224.145 784.339 223.978 784.591 225.21 791.107C226.839 799.67 223.894 800.254 220.803 792.004C218.276 785.237 214.433 786.052 214.433 793.32C214.433 795.93 213.452 798.04 212.387 798.04C211.259 798.04 210.758 797.309 211.342 796.411V796.495ZM222.516 773.48C228.865 767.778 226.839 758.881 218.589 756.354C214.6 755.038 214.183 755.372 215.331 758.964C216.062 761.408 215.812 763.037 214.517 763.037C213.368 763.037 212.47 761.658 212.47 760.029C212.47 754.077 207.583 758.546 207.019 765.083C205.954 775.359 215.081 780.267 222.516 773.48ZM209.776 769.888C209.212 768.259 209.463 766.963 210.361 766.963C211.259 766.963 213.138 768.259 214.433 769.888C216.397 772.269 216.313 772.832 213.869 772.832C212.303 772.832 210.444 771.454 209.859 769.888H209.776ZM218.36 766.963C218.36 765.898 219.174 765 220.135 765C221.117 765 222.516 765.898 223.163 766.963C223.811 768.029 222.996 768.926 221.367 768.926C219.655 768.926 218.36 768.029 218.36 766.963ZM736.145 786.449C736.083 777.656 736.083 777.656 731.425 783.525C725.222 791.273 723.176 788.747 728.397 779.85C732.804 772.435 731.592 770.868 725.306 775.693C717.808 781.311 716.659 778.471 723.593 771.537C727.75 767.36 729.211 765 727.102 765.815C725.055 766.629 720.816 767.694 717.641 768.174C712.002 769.072 712.086 768.927 719.521 764.666C727.353 760.197 727.353 760.196 721.463 759.528C712.169 758.484 711.689 755.789 720.482 754.307C728.648 752.928 728.648 752.928 722.695 749.252C714.696 744.449 715.031 743.134 723.176 746.559C730.611 749.671 733.535 748.355 729.546 743.781C728.167 742.069 726.371 739.144 725.703 737.181C724.742 734.486 725.953 734.904 731.342 738.977C738.192 744.198 738.192 744.199 737.044 735.636C735.916 727.073 735.916 727.073 738.693 733.192C742.766 741.922 745.857 743.133 745.857 736.032C745.857 732.858 746.672 729.683 747.737 729.015C748.885 728.367 749.7 729.829 749.784 732.293C749.784 740.042 752.645 742.402 755.172 736.847C756.383 734.152 758.346 731.959 759.495 731.959C760.706 731.959 761.041 732.857 760.393 733.922C759.725 735.05 758.43 738.559 757.532 741.754C755.819 747.54 755.819 747.54 762.502 742.402C770.167 736.617 770.982 737.599 765.197 745.744C761.939 750.318 761.688 751.382 764.048 751.382C765.698 751.382 767.557 750.569 768.225 749.503C768.872 748.355 770.919 747.54 772.695 747.54C774.992 747.54 774.01 749.252 769.207 753.325L762.419 759.131L769.436 757.983C773.363 757.335 777.039 757.649 777.686 758.797C778.417 759.863 775.159 761.241 770.084 762.056C760.477 763.455 760.143 765.982 769.207 767.945C778.501 769.971 778.668 773.396 769.436 772.498C761.521 771.767 761.521 771.767 766.262 776.758C772.945 783.692 772.298 785.154 764.8 780.58C756.216 775.359 754.921 775.693 758.43 782.46C760.059 785.635 761.375 789.226 761.375 790.375C761.375 792.819 753.042 783.358 750.932 778.617C750.264 777.071 750.034 779.431 750.514 784.005C750.932 788.579 750.514 792.82 749.533 793.383C748.551 793.968 747.737 792.903 747.653 790.94C747.653 788.977 746.358 785.237 744.813 782.543C742.035 777.719 742.035 777.719 741.952 782.71C741.952 785.404 740.636 789.394 739.09 791.441C736.396 794.949 736.229 794.615 736.145 786.449ZM746.755 768.926C746.108 767.861 747.089 765.418 748.969 763.538C752.227 760.343 752.31 760.343 751.162 764.833C750.034 769.24 750.18 769.323 753.125 766.316C758.681 760.76 754.274 752.511 745.293 751.78C739.174 751.216 737.712 751.864 735.832 756.02C734.036 760.03 734.203 761.909 736.814 765.898C739.821 770.472 749.533 773.396 746.755 768.926ZM738.025 763.037C738.025 761.993 738.923 761.095 739.988 761.095C741.053 761.095 741.952 761.993 741.952 763.037C741.952 764.102 741.053 765 739.988 765C738.923 765 738.025 764.102 738.025 763.037ZM743.915 756.27C743.915 754.641 744.646 753.325 745.544 753.325C746.442 753.325 747.089 754.641 747.089 756.27C747.089 757.815 746.442 759.214 745.544 759.214C744.646 759.214 743.915 757.815 743.915 756.27ZM531.867 807.187C615.241 793.153 688.193 749.9 739.988 683.59C744.875 677.303 747.006 675.757 747.423 678.117C747.82 679.83 748.885 681.293 749.867 681.293C752.227 681.293 752.143 678.682 749.7 676.238C748.321 674.86 750.765 669.639 757.198 659.76C776.203 630.959 793.517 590.734 800.848 558.195L803.876 545.059H790.405C781.278 545.059 776.955 544.327 776.955 542.698C776.955 540.902 776.454 540.902 774.658 542.698C772.862 544.473 700.996 545.059 463.176 545.059C217.211 545.059 154.054 545.539 154.054 547.502C154.054 548.797 156.185 557.777 158.795 567.489C174.543 626.385 208.878 682.023 255.953 725.109C265.184 733.505 272.348 740.857 271.868 741.338C271.387 741.755 271.951 743.948 273.1 746.078C274.729 749.086 275.543 749.337 276.755 747.373C277.987 745.431 282.791 747.706 296.512 756.771C340.476 785.55 388.365 802.864 443.356 809.798C461.463 812.075 511.316 810.613 531.867 807.187ZM459.667 782.042C459.751 780.747 460.983 775.442 462.529 770.304C465.39 761.094 465.39 761.094 455.595 753.826L445.8 746.559L458.54 745.911C471.259 745.347 471.259 745.347 474.517 734.821C476.396 729.015 478.527 724.692 479.341 725.193C480.156 725.673 482.265 730.498 484.061 735.803C487.257 745.493 487.257 745.494 499.245 745.577H511.233L501.688 753.993C492.144 762.305 492.144 762.306 495.402 771.767C499.976 785.154 499.725 785.321 488.552 777.802L478.443 770.952L469.045 777.72C463.907 781.395 459.667 783.358 459.667 782.042ZM288.346 701.78C288.346 699.169 310.86 698.836 479.174 698.836C647.383 698.836 669.918 699.169 669.918 701.78C669.918 704.307 647.383 704.704 479.174 704.704C310.86 704.704 288.346 704.307 288.346 701.78ZM232.959 674.045C236.697 665.315 236.217 660.491 231.162 656.502C224.396 651.197 224.792 650.132 233.522 650.132C240.289 650.132 241.104 649.568 243.568 642.863L246.242 635.617L249.103 642.863C251.714 649.568 252.528 650.132 259.462 650.132C263.618 650.132 266.98 651.03 266.98 652.095C266.98 653.16 266.312 654.121 265.498 654.121C264.683 654.204 262.072 655.834 259.712 657.797C256.037 660.909 255.723 662.286 257.269 667.842C259.629 676.07 258.731 676.802 251.797 671.832C246.095 667.843 246.095 667.843 239.642 672.646C231.893 678.369 231.079 678.514 232.959 674.045ZM699.763 674.609C704.003 663.519 703.69 661.305 696.986 655.77L690.386 650.299L699.596 650.215C704.672 650.215 708.828 649.401 708.828 648.336C708.828 647.354 709.809 644.096 711.021 641.067C713.151 635.616 713.151 635.616 715.594 642.383C717.725 648.502 718.769 649.317 726.538 650.215L735.101 651.113L728.481 656.251C722.278 661.138 722.048 661.723 724.157 667.759C727.499 677.387 726.935 678.034 719.918 672.729C713.485 667.842 713.485 667.842 705.966 672.896C700.098 676.885 698.719 677.303 699.763 674.609ZM258.564 619.702C257.833 618.971 257.269 609.008 257.269 597.521C257.269 574.673 258.731 571.165 267.712 573.358C272.515 574.59 275.794 580.876 281.579 599.297C283.375 605.187 284.921 602.889 290.476 586.411C294.549 574.256 294.549 574.256 302.13 574.256C309.795 574.256 309.795 574.255 309.795 596.54C309.795 618.887 308.897 621.979 303.195 619.786C300.668 618.888 300.021 615.378 299.937 602.743C299.854 585.199 300.167 584.866 291.291 609.677C288.012 618.553 283.459 622.646 280.347 619.535C279.449 618.637 276.107 610.491 273.016 601.427L267.21 584.949L266.563 602.493C266.166 616.36 265.351 620.119 262.97 620.516C261.341 620.85 259.378 620.516 258.564 619.702ZM325.146 615.462C313.805 605.416 316.249 581.44 329.302 574.673C336.967 570.663 350.667 572.877 355.972 579.08C359.565 583.152 360.379 586.495 360.379 595.956C360.379 606.733 359.899 608.277 353.779 614.313C344.966 623.127 334.189 623.628 325.146 615.462ZM345.864 608.444C352.067 602.242 352.547 589.752 346.762 583.967C338.596 575.801 329.302 582.506 329.302 596.624C329.302 602.806 330.451 606.565 333.145 609.259C338.199 614.313 340.079 614.23 345.864 608.444ZM371.49 619.702C370.738 618.971 370.174 608.528 370.174 596.54C370.174 578.411 370.655 574.423 373.203 573.525C378.57 571.415 383.645 576.052 390.496 589.44L397.179 602.493L397.346 588.374C397.43 574.673 397.597 574.256 402.317 574.256C407.141 574.256 407.141 574.256 407.141 595.642C407.141 614.314 406.723 617.174 403.549 618.887C398.16 621.748 393.336 617.341 386.653 603.39L380.867 591.151L379.886 605.584C379.155 616.528 378.173 620.119 375.876 620.516C374.247 620.85 372.305 620.516 371.553 619.702H371.49ZM427.859 619.702C427.212 618.971 426.627 610.241 426.627 600.363C426.627 582.255 426.627 582.254 420.257 581.69C416.101 581.273 413.741 579.895 413.323 577.681C412.759 574.59 414.555 574.256 430.386 574.256C446.698 574.256 448.013 574.59 448.013 578.182C448.013 581.19 446.698 582.088 442.124 582.088C436.339 582.088 436.339 582.088 436.339 600.363C436.339 615.212 435.775 618.804 433.247 619.786C429.405 621.248 429.488 621.247 427.943 619.702H427.859ZM455.511 618.887C454.53 618.24 453.966 608.445 454.279 596.457L454.78 575.238L467.917 574.673C480.072 574.088 481.054 574.34 481.054 578.015C481.054 581.441 479.821 582.004 472.324 582.004C464.241 582.004 463.594 582.421 463.594 586.912C463.594 591.319 464.325 591.799 471.342 591.799C477.775 591.799 479.174 592.446 479.174 595.558C479.174 598.482 477.545 599.464 471.822 599.965C465.473 600.445 464.575 601.177 464.575 605.417C464.575 609.74 465.473 610.408 473.305 611.222C479.341 611.87 482.035 613.102 482.035 615.128C482.035 617.342 478.923 618.323 469.713 619.054C462.925 619.534 456.576 619.451 455.511 618.887ZM501.041 618.553C497.114 613.749 486.275 576.052 488.301 574.089C492.394 569.933 496.551 574.904 500.79 589.106C503.15 597.021 505.677 603.955 506.408 604.456C507.244 604.936 509.854 598.337 512.214 589.92C516.454 575.071 520.36 569.933 524.453 573.943C526.249 575.801 515.389 613.833 511.713 618.553C510.669 619.869 508.288 620.934 506.408 620.934C504.55 620.934 502.085 619.869 501.041 618.553ZM533.1 619.702C530.406 617.007 531.554 574.757 534.311 573.691C540.43 571.331 541.579 575.238 541.015 597.752C540.514 615.943 539.95 620.036 537.423 620.516C535.794 620.85 533.831 620.433 533.1 619.702ZM560.355 619.702C559.603 618.971 558.956 610.241 558.956 600.279C558.956 582.255 558.955 582.254 553.651 581.69C550.393 581.273 548.033 579.728 547.615 577.681C547.051 574.59 548.931 574.256 564.824 574.256C580.739 574.256 582.535 574.59 581.971 577.681C581.553 579.895 579.193 581.273 575.121 581.69C568.834 582.254 568.834 582.255 568.249 601.093C567.769 616.277 567.122 620.036 564.678 620.516C563.028 620.85 561.086 620.433 560.355 619.702ZM633.599 619.452C629.944 617.092 617.204 575.571 619.418 573.358C623.24 569.536 627.981 575.571 632.785 590.504C637.024 603.703 640.7 609.51 640.7 603.14C640.7 597.021 649.117 573.859 651.644 572.877C658.327 570.35 658.16 575.801 650.976 597.668C645.107 615.546 642.914 620.12 639.719 620.433C637.609 620.767 634.831 620.266 633.599 619.452ZM669.584 617.99C662.901 614.314 659.392 603.703 660.938 592.133C662.985 577.284 673.26 570.267 688.673 573.191C697.884 574.903 702.959 583.487 703.042 597.271C703.042 606.565 702.291 608.445 696.422 614.313C688.924 621.748 679.045 623.127 669.584 617.99ZM686.961 610.158C691.618 606.9 694.375 596.374 692.349 589.92C691.618 587.644 688.924 584.386 686.313 582.736C681.99 579.895 681.176 579.895 676.769 582.819C669.918 587.309 669.501 605.5 676.184 610.158C681.489 613.917 681.656 613.917 686.961 610.158ZM587.505 617.656C584.978 615.212 586.044 574.59 588.654 573.691C591.098 572.71 608.474 573.942 612.965 575.321C614.28 575.738 614.844 577.368 614.197 578.997C613.382 581.106 610.354 582.004 604.485 582.004C596.653 582.004 595.922 582.421 595.922 586.912C595.922 591.235 596.737 591.716 603.754 591.716C610.187 591.716 611.503 592.363 611.503 595.642C611.503 598.9 610.187 599.548 603.754 599.548C596.403 599.548 595.922 599.798 595.922 605.353C595.922 610.971 596.236 611.222 604.736 611.222C612.15 611.222 613.445 611.786 613.445 615.128C613.445 618.553 612.15 618.971 601.143 618.971C594.356 618.971 588.237 618.407 587.505 617.738V617.656ZM166.627 706.834C166.063 706.271 135.216 710.741 120.45 713.602C114.331 714.834 113.6 713.434 133.253 740.272L142.964 753.492L155.119 730.581C161.803 717.925 167.024 707.231 166.627 706.834ZM830.379 731.876C836.582 723.23 841.156 715.648 840.509 715C839.109 713.517 792.285 706.188 791.303 707.232C790.572 707.9 792.368 711.408 807.531 739.311C815.363 753.659 814.548 753.91 830.379 731.876ZM119.552 664.167C104.953 663.916 91.8165 664.083 90.438 664.563C87.4097 665.795 88.3912 668.49 98.1863 686.2C112.702 712.056 109.026 711.972 128.846 686.764L146.222 664.73L119.552 664.167ZM139.957 705.603C150.399 703.974 161.657 702.261 164.998 701.697C170.219 700.799 172.099 698.585 179.513 684.404C190.29 663.749 189.392 661.806 168.59 661.806C154.388 661.806 154.388 661.806 138.077 682.775C120.45 705.373 118.257 708.548 119.886 708.548C120.534 708.548 129.598 707.232 139.957 705.603ZM837.898 705.937C837.083 704.475 828.917 693.949 819.77 682.608L803.208 661.806H788.212C767.64 661.806 766.826 663.665 778.25 684.634C785.831 698.585 787.794 700.715 793.183 701.613C796.608 702.261 806.403 703.889 814.966 705.372C836.499 709.027 839.84 709.112 837.898 705.937ZM861.874 680.561C865.947 672.562 868.077 666.442 867.012 665.398C866.031 664.416 853.228 663.833 838.462 664.167L811.708 664.73L828.917 686.514L846.043 708.297L850.534 701.112C853.061 697.123 858.115 687.913 861.874 680.561ZM774.491 687.663C771.065 681.209 767.473 675.758 766.596 675.591C764.8 675.173 753.94 689.626 753.125 693.364C752.791 694.931 757.281 696.476 766.262 697.854C773.76 699.086 780.13 699.901 780.38 699.734C780.61 699.651 777.999 694.179 774.491 687.663ZM205.223 695.577C206.037 695.076 203.427 689.939 199.417 684.237C195.428 678.515 191.418 674.191 190.603 674.776C189.705 675.257 186.364 681.063 183.106 687.496L177.153 699.254L190.457 697.854C197.704 697.039 204.408 696.058 205.223 695.577ZM852.894 660.01C852.894 659.028 854.376 657.879 856.089 657.566C858.366 657.065 854.042 651.51 840.989 637.976L822.715 618.971L808.429 621.248C795.877 623.378 793.914 624.276 791.387 629.08C788.609 634.468 788.776 635.031 797.423 646.289L806.403 657.88H827.685C840.571 657.88 848.988 658.694 848.988 659.843C848.988 660.908 849.886 661.806 850.951 661.806C851.995 661.806 852.894 660.991 852.894 660.01ZM109.59 637.726C119.886 626.887 127.384 617.739 126.152 617.509C124.94 617.175 114.895 615.379 103.972 613.416C84.068 609.74 84.0679 609.74 77.0505 615.86L69.9496 621.895L77.2177 640.754C82.9193 655.77 85.0496 659.342 87.5768 658.527C89.3729 657.88 99.2307 648.587 109.59 637.726ZM159.693 647.27C168.507 635.616 168.674 634.948 165.562 628.014C163.682 624.025 161.322 622.96 149.501 621.164L135.633 619.138L116.127 638.457L96.7035 657.88H151.694L159.693 647.27ZM178.615 652.576C171.681 639.439 171.117 639.293 164.1 648.983L157.73 657.88H169.572C181.393 657.88 181.393 657.88 178.615 652.576ZM793.35 649.066L786.165 640.253L781.592 647.604C779.148 651.677 777.039 655.687 777.039 656.418C777.039 657.232 782.26 657.88 788.776 657.88H800.597L793.35 649.066ZM879.668 642.781C887.897 622.062 887.897 621.895 880.316 615.546C873.633 609.907 873.633 609.907 852.079 613.75C840.174 615.859 830.129 617.906 829.648 618.324C828.019 619.786 867.43 657.88 870.604 657.88C872.735 657.88 875.658 652.993 879.668 642.781ZM156.999 608.611C155.37 604.685 153.24 601.427 152.258 601.427C150.399 601.427 140.187 613.583 141.252 614.564C142.651 615.943 158.962 618.073 159.443 617.008C159.777 616.361 158.628 612.517 156.999 608.611ZM810.81 616.109L818.391 614.814L811.854 608.11C804.022 600.049 803.208 599.965 800.681 606.815C799.636 609.739 798.154 613.833 797.339 615.796C796.128 618.72 796.524 619.221 799.553 618.406C801.579 617.822 806.633 616.757 810.81 616.109ZM891.824 609.74C891.824 607.212 883.741 606.315 881.527 608.529C880.88 609.176 882.279 611.306 884.639 613.185C888.962 616.673 891.74 615.379 891.824 609.74ZM73.8759 612.768C77.6144 609.009 76.6329 607.296 70.5135 607.296C65.877 607.296 65.0624 607.964 65.9605 611.222C67.0883 615.545 70.3672 616.194 73.8759 612.768ZM142.567 604.289C152.926 594.013 153.741 586.746 144.593 584.699C141.753 584.051 136.448 582.735 132.689 581.857C128.929 580.876 124.857 580.061 123.625 580.061C121.181 580.061 91.8163 603.39 91.8163 605.353C91.8163 606.481 121.348 612.434 129.66 612.935C131.791 613.019 137.492 609.26 142.567 604.289ZM846.043 609.991C855.671 608.278 864.234 606.231 864.965 605.584C865.801 604.853 859.347 598.733 850.784 591.966C835.204 579.644 835.204 579.644 822.38 582.171C812.272 584.218 809.181 585.68 807.531 589.273C805.756 593.262 806.57 594.911 814.966 603.474C820.271 608.779 825.409 613.185 826.557 613.185C827.685 613.185 836.415 611.703 846.043 609.991ZM98.6667 592.217C108.629 584.218 113.996 578.579 112.618 577.848C111.323 577.117 101.194 574.339 90.0202 571.561C71.7457 567.071 69.2187 566.925 64.3316 569.452C56.5623 573.441 56.3325 574.59 59.8412 588.541C62.9322 601.093 62.9322 601.094 71.9964 602.973C76.967 604.038 81.3739 605.02 81.7707 605.103C82.1884 605.27 89.7697 599.464 98.6667 592.217ZM894.1 599.798C894.831 599.151 896.711 593.116 898.256 586.328C901.034 574.173 901.034 574.172 894.664 570.266C888.231 566.34 888.231 566.341 867.179 571.479C855.588 574.34 845.396 577.367 844.498 578.098C843.6 578.913 850.053 585.199 858.783 592.133C874.677 604.769 874.677 604.769 883.741 602.889C888.712 601.908 893.369 600.445 894.1 599.798ZM145.262 573.691C143.298 564.314 141.816 563.813 133.984 570.099L126.82 575.739L134.067 577.681C146.222 580.96 146.724 580.792 145.262 573.691ZM826.474 576.219C829.732 574.987 829.314 574.256 822.965 569.369C814.716 563.166 815.05 562.998 812.355 572.877C810.309 580.291 810.309 580.292 816.512 578.997C819.937 578.182 824.427 576.95 826.474 576.219ZM131.227 566.257C140.604 558.196 143.048 551.345 137.993 547.502C136.678 546.521 130.976 543.826 125.254 541.549C114.895 537.393 114.895 537.393 95.6593 549.381C85.0497 555.981 76.8835 561.85 77.4474 562.434C78.3455 563.5 115.96 573.691 120.032 574.025C121.098 574.088 126.089 570.581 131.227 566.257ZM861.707 568.136C871.836 565.693 880.149 563.083 880.149 562.352C880.149 561.621 871.753 555.752 861.54 549.298L842.952 537.623L831.027 542.281C817.013 547.753 818.308 546.771 817.493 553.057C817.013 557.13 818.809 559.741 826.641 566.257C832.51 571.165 837.731 574.026 839.757 573.525C841.637 573.044 851.515 570.58 861.707 568.136ZM59.0266 565.443C59.0266 564.461 58.0451 563.333 56.8964 562.915C55.7477 562.518 54.7661 563.647 54.7661 565.443C54.7661 567.239 55.7477 568.387 56.8964 567.969C58.0451 567.656 59.0266 566.508 59.0266 565.443ZM903.477 565.443C903.477 562.185 903.164 562.017 898.674 563.814C896.063 564.795 895.896 565.358 898.006 566.674C901.849 569.118 903.477 568.722 903.477 565.443ZM88.7046 548.233C99.2307 541.382 107.063 535.347 106.102 534.783C105.12 534.115 95.4087 530.042 84.3813 525.718C64.3942 517.719 64.3942 517.719 56.4996 521.813C48.5006 525.885 48.5004 525.886 49.7953 535.911C52.8237 559.908 52.0928 558.842 66.5244 560.304C68.1535 560.471 78.1158 554.999 88.7046 548.233ZM903.728 557.527C905.023 556.712 910.098 527.515 909.033 526.617C908.699 526.283 904.793 524.257 900.47 522.043C892.555 518.054 892.555 518.054 874.196 525.302C845.96 536.412 846.377 534.616 869.059 548.484C886.435 559.177 889.777 560.555 895.729 559.49C899.405 558.842 903.081 557.944 903.728 557.527ZM137.743 538.041C137.096 536.329 136.532 532.819 136.532 530.292C136.532 524.486 135.466 524.424 126.82 529.791L120.032 533.968L127.802 537.54C137.43 541.863 139.205 541.947 137.743 538.041ZM830.212 537.54L837.815 534.198L829.815 528.894C821.733 523.526 821.733 523.526 821.733 527.912C821.733 530.377 821.169 534.366 820.521 536.726C819.122 541.863 820.187 541.946 830.212 537.476V537.54ZM503.651 533.3C526.479 533.3 527.795 533.132 527.795 529.478C527.795 525.635 526.479 525.551 478.192 525.551C430.136 525.551 428.507 525.635 428.507 529.395C428.507 532.987 430.136 533.217 451.439 533.801C463.991 534.198 475.415 534.198 476.877 533.884C478.276 533.55 490.348 533.3 503.651 533.3ZM806.883 527.912C809.661 515.36 810.476 463.314 808.283 443.807C785.998 248.572 603.42 115.848 411.13 154.924C403.048 156.553 386.089 161.294 373.516 165.533C260.527 203.064 177.237 298.175 153.01 417.533C149.251 435.975 147.204 488.271 149.167 514.628L150.546 533.3H286.07L286.884 523.108C287.281 517.469 287.364 512.248 286.968 511.434C286.55 510.619 259.295 510.473 226.421 511.12C188.243 511.768 167.776 511.517 169.635 510.306C171.285 509.324 189.225 504.834 209.546 500.344C277.256 485.411 288.597 482.487 287.866 480.106C287.448 478.811 264.683 474.404 232.791 469.517C202.926 464.859 178.051 460.704 177.634 460.202C175.524 458.093 181.727 457.425 232.541 454.167C276.609 451.389 286.466 450.261 285.986 447.964C285.568 445.52 261.509 436.539 198.352 415.424C164.915 404.25 165.395 404.251 248.205 413.545C264.119 415.341 277.507 416.406 277.987 415.904C279.7 414.192 256.454 390.947 249.604 387.438C245.761 385.559 238.013 382.948 232.374 381.716C219.738 379.105 209.128 373.821 202.926 367.117C196.639 360.433 198.602 358.972 207.082 363.943C211.342 366.47 219.007 368.432 227.319 369.08C234.671 369.727 255.87 373.737 274.395 378.06C300.585 384.179 308.667 385.391 310.463 383.595C312.176 381.799 312.009 380.755 309.649 378.959C290.476 364.59 220.386 308.701 220.971 308.137C221.367 307.741 229.93 311.312 239.976 315.969C260.778 325.764 323.663 356.11 325.877 357.489C330.618 360.433 325.396 353.082 312.26 338.566C258.898 279.503 249.103 268.329 249.834 267.598C250.335 267.097 267.711 279.024 288.513 293.936C330.116 323.885 330.2 323.884 324.331 302.184C321.386 291.178 319.11 287.586 306.453 274.115C292.586 259.349 288.513 252.749 285.652 240.824C283.856 233.326 286.801 234.225 291.374 242.704C293.734 247.027 301.963 254.859 312.74 262.858C322.368 270.042 334.607 280.485 339.995 286.02C354.928 301.621 371.803 315.719 373.85 314.507C374.915 313.839 372.534 305.609 368.294 295.334C345.613 240.427 331.182 203.711 331.913 203.064C332.811 202.082 343.337 216.849 368.211 253.794C388.929 284.642 389.994 284.808 390.412 256.822C390.579 243.288 389.994 240.908 383.06 227.688C375.061 212.442 371.72 194.584 375.563 187.65C377.275 184.538 377.756 185.103 378.988 191.807C380.7 201.268 385.755 211.543 392.856 219.939C395.8 223.448 405.261 240.677 413.824 258.137C435.044 301.119 435.775 300.555 432.746 242.954C430.303 196.443 429.822 170.023 431.535 171.652C432.099 172.299 435.106 182.659 438.218 194.898C446.781 228.753 460.001 279.253 460.482 279.754C460.649 279.984 464.492 263.756 468.982 243.686C476.48 210.165 477.545 198.49 473.055 198.49C472.157 198.49 471.342 197.675 471.342 196.61C471.342 195.482 472.637 194.647 474.266 194.647C475.916 194.647 477.211 193.749 477.211 192.704C477.211 191.639 478.109 190.741 479.174 190.741C480.239 190.741 481.137 191.974 481.137 193.436C481.137 194.898 482.599 196.777 484.479 197.425C486.505 198.239 487.006 199.221 485.774 200.119C480.97 203.315 481.2 210.395 487.006 238.298C490.348 254.463 493.773 269.229 494.504 271.254C495.402 273.635 500.226 257.386 508.204 225.494C514.992 198.323 521.258 174.431 522.156 172.217C523.137 170.024 523.388 189.196 522.657 216.848L521.425 265.301L528.442 259.997C539.783 251.351 547.051 238.068 550.142 220.357C553.087 203.628 557.974 192.036 564.594 186C570.213 181.03 571.758 183.307 567.435 190.011C564.741 194.083 563.613 200.934 562.631 217.913C561.65 236.585 557.661 264.654 551.938 292.474C549.244 305.694 558.392 295.418 587.339 252.582C618.437 206.489 623.24 199.952 623.24 203.712C623.24 204.86 616.139 223.218 607.493 244.5C586.294 296.463 586.607 293.788 602.355 285.873C616.39 278.856 622.843 272.82 630.759 259.266C639.155 245.085 646.088 237.649 655.716 232.846C665.177 228.021 665.595 228.919 657.68 237.085C653.106 241.722 648.281 249.972 644.773 259.099C641.682 267.098 631.657 286.688 622.509 302.582C613.382 318.497 606.281 332.197 606.845 333.178C609.456 337.334 602.856 333.909 591.014 325.033C568.187 307.74 524.036 290.03 503.798 290.03C498.347 290.03 498.18 290.28 499.328 297.297C499.976 301.286 501.354 304.879 502.503 305.276C503.568 305.61 504.466 311.082 504.466 317.431C504.466 325.347 505.197 328.938 506.91 328.938C508.789 328.938 509.186 334.327 508.622 351.537C508.204 363.943 508.539 381.235 509.27 389.965C510.585 405.879 510.585 405.88 518.167 405.212C525.664 404.481 525.664 404.481 526.98 414.359C527.962 421.627 529.173 424.384 531.471 424.468C533.183 424.635 548.033 424.551 564.427 424.321C586.775 424.071 595.024 424.635 597.301 426.598C599.995 428.791 594.69 429.376 563.696 430.19C528.359 431.255 528.943 431.256 578.462 431.318C606.845 431.318 624.055 431.005 616.724 430.671C599.013 429.689 599.911 425.532 618.019 424.718C627.563 424.321 630.988 423.423 630.988 421.377C630.988 419.33 634.33 418.515 643.561 418.118L656.197 417.451L649.764 401.556C641.201 380.337 632.471 366.135 618.437 350.889C604.966 336.123 603.002 340.029 635.897 316.45C685.979 280.402 703.189 268.414 706.384 267.182C708.264 266.451 698.865 277.875 685.499 292.641C672.111 307.323 657.262 323.885 652.458 329.357L643.728 339.298L657.346 338.086C674.471 336.603 681.489 333.679 697.153 321.107C712.086 309.202 720.899 305.129 730.193 305.944C737.043 306.508 737.043 306.508 728.167 310.664C722.779 313.107 715.427 319.227 709.642 325.931C704.421 332.051 688.277 347.214 673.824 359.536C659.392 371.858 647.237 382.697 646.903 383.595C645.107 388.419 655.716 386.457 694.542 374.552C742.85 359.786 758.91 355.692 763.234 356.841C765.364 357.405 764.863 358.157 761.437 359.202C754.42 361.416 736.48 370.96 709.809 386.624C696.986 394.121 680.591 403.499 673.344 407.509C650.892 419.915 654.004 420.562 705.486 414.275C737.127 410.516 744.813 410.433 741.367 413.879C740.719 414.526 723.844 416.886 703.94 419.1C669.417 423.006 667.788 423.339 668.853 427.161C669.417 429.292 669.918 433.051 669.918 435.494C669.918 437.938 670.879 439.901 672.028 439.901C673.177 439.901 689.154 434.597 707.595 428.227C725.953 421.774 742.515 416.489 744.395 416.489C746.275 416.489 747.82 415.654 747.82 414.526C747.82 413.461 746.839 412.646 745.711 412.646C744.562 412.646 744.144 411.832 744.729 410.934C745.293 410.036 752.143 408.657 759.892 407.905C767.724 407.174 775.639 406.11 777.435 405.546C779.315 405.065 780.861 405.295 780.861 406.193C780.861 407.091 755.903 416.49 725.306 427.079C692.913 438.336 670.065 447.232 670.482 448.465C670.963 449.76 690.95 451.89 725.557 454.167C776.872 457.592 782.657 458.176 780.693 460.118C779.649 461.183 680.278 476.848 674.471 476.848C668.603 476.848 668.436 482.236 674.325 483.614C676.685 484.199 703.523 490.319 733.952 497.252C764.299 504.186 789.758 510.473 790.405 511.12C791.053 511.851 764.215 511.768 730.778 511.12L669.918 509.72V533.216L706.384 533.801C726.455 534.031 757.031 534.031 774.344 533.717C805.756 533.133 805.756 533.132 806.883 527.848V527.912ZM323.433 533.3V502.223H292.272V533.3H323.433ZM303.279 528.162C301.733 526.533 301.65 513.313 303.195 509.157C303.843 507.444 305.973 506.066 307.853 506.066C312.176 506.066 313.721 509.887 313.721 520.831C313.721 528.579 313.22 529.478 309.148 529.478C306.621 529.478 304.01 528.809 303.279 528.162ZM424.664 527.766C424.664 524.487 425.896 521.646 427.525 520.978C429.572 520.247 430.47 517.072 430.47 511.036V502.223H329.302L329.218 510.473C329.135 515.026 328.655 522.042 328.07 526.052L327.025 533.383H375.813C424.664 533.383 424.664 533.384 424.664 527.766ZM331.181 518.868C331.181 510.702 331.996 507.611 334.273 506.796C338.846 505 340.475 507.925 341.206 518.785C341.875 528.163 341.708 528.496 336.57 529.144C331.265 529.707 331.181 529.561 331.181 518.868ZM350.668 518.701C350.668 510.869 351.503 507.611 353.612 506.796C358.917 504.75 362.342 509.971 362.342 520.016C362.342 529.227 362.259 529.478 356.557 529.478C350.751 529.478 350.668 529.394 350.668 518.701ZM370.508 518.305C370.989 509.157 371.803 507.026 374.748 506.462C379.802 505.481 381.766 509.324 381.766 520.247C381.849 529.228 381.682 529.478 375.876 529.478C369.924 529.478 369.924 529.478 370.508 518.305ZM390.892 528.162C388.198 525.468 389.514 507.924 392.521 506.796C397.826 504.75 401.251 509.971 401.251 520.016C401.251 528.663 400.855 529.478 396.761 529.478C394.234 529.478 391.623 528.893 390.892 528.162ZM409.814 526.784C409.25 525.301 409.083 520.246 409.417 515.61C409.981 508.008 410.566 507.11 414.973 507.11C419.442 507.11 419.86 507.778 420.34 518.305C421.009 529.144 420.842 529.478 415.934 529.478C413.177 529.478 410.483 528.246 409.898 526.784H409.814ZM629.046 533.383V502.223H527.795V511.935C527.795 517.323 528.693 521.73 529.758 521.73C530.802 521.73 531.7 524.34 531.7 527.514C531.7 533.383 531.7 533.383 580.405 533.383H629.046ZM537.903 518.305C538.488 508.593 539.052 507.11 542.394 507.11C545.819 507.11 546.403 508.593 546.884 518.305C547.448 529.144 547.364 529.478 542.394 529.478C537.506 529.478 537.339 529.144 537.903 518.305ZM557.41 518.305C557.89 508.593 558.475 507.11 561.9 507.11C565.242 507.11 565.806 508.593 566.391 518.305C566.954 529.144 566.787 529.478 561.9 529.478C556.909 529.478 556.846 529.144 557.41 518.305ZM576.896 518.305C577.397 508.593 577.961 507.11 581.303 507.11C584.728 507.11 585.313 508.593 585.793 518.305C586.461 529.144 586.294 529.478 581.303 529.478C576.416 529.478 576.332 529.144 576.896 518.305ZM595.922 518.785C595.922 510.703 596.737 507.611 599.013 506.713C603.754 504.917 605.864 508.593 606.281 518.952C606.595 527.995 606.365 528.497 601.29 529.061C596.006 529.708 595.922 529.562 595.922 518.785ZM616.807 528.246C615.095 526.534 615.011 513.397 616.64 509.157C617.288 507.444 619.418 506.066 621.444 506.066C628.712 506.066 629.359 527.996 622.175 529.061C619.982 529.311 617.538 528.977 616.807 528.246ZM665.992 533.3V502.223H632.952V533.3H665.992ZM645.023 518.22C645.525 508.509 646.089 507.027 649.43 507.027C652.855 507.027 653.44 508.509 653.92 518.22C654.568 529.143 654.401 529.395 649.43 529.395C644.543 529.395 644.459 529.143 645.023 518.22ZM124.857 525.384C134.151 519.683 134.652 518.951 134.652 511.036C134.652 502.87 134.318 502.474 124.293 497.252L113.934 491.864L91.9 503.288C79.8284 509.575 70.6807 514.942 71.5787 515.276C72.5603 515.61 81.6244 519.265 91.8163 523.442C101.925 527.598 111.386 531.107 112.702 531.191C113.996 531.358 119.468 528.663 124.857 525.384ZM865.863 523.275C877.058 518.868 885.454 514.545 884.639 513.814C883.741 513.083 874.196 507.862 863.42 502.307C843.683 492.115 843.683 492.114 833.721 497.168C823.947 502.139 823.696 502.473 823.696 510.702C823.696 518.701 824.26 519.6 832.906 525.302C838.044 528.58 842.952 531.358 843.85 531.358C844.832 531.358 854.69 527.765 865.863 523.275ZM55.7477 513.731C48.9809 511.037 47.0177 511.768 47.0177 516.822C47.0177 521.73 47.0177 521.73 53.3042 518.451C59.1103 515.527 59.2564 515.109 55.7477 513.731ZM440.265 490.485C440.265 464.128 439.764 459.388 437.32 459.388C434.793 459.388 434.375 464.128 434.375 490.485C434.375 516.905 434.876 521.646 437.32 521.646C439.764 521.646 440.265 516.905 440.265 490.485ZM445.549 477.349C445.236 469.099 444.902 475.866 444.902 492.428C444.902 509.073 445.236 515.84 445.549 507.528C445.883 499.195 445.883 485.661 445.549 477.349ZM459.667 508.009C459.667 494.809 459.584 494.391 454.864 494.391C450.123 494.391 449.956 494.809 449.956 508.009C449.956 521.229 450.039 521.646 454.864 521.646C459.5 521.646 459.667 521.229 459.667 508.009ZM466.935 477.349C466.601 469.099 466.288 475.866 466.288 492.428C466.288 509.073 466.601 515.84 466.935 507.528C467.332 499.195 467.332 485.661 466.935 477.349ZM492.311 477.349C491.893 469.099 491.643 475.866 491.643 492.428C491.643 509.073 491.893 515.84 492.311 507.528C492.624 499.195 492.624 485.661 492.311 477.349ZM506.408 508.009C506.408 494.809 506.262 494.391 501.521 494.391C496.801 494.391 496.718 494.809 496.718 508.009C496.718 521.229 496.801 521.646 501.521 521.646C506.262 521.646 506.408 521.229 506.408 508.009ZM523.952 490.485C523.952 464.128 523.472 459.388 521.028 459.388C518.501 459.388 518.083 464.128 518.083 490.485C518.083 516.905 518.584 521.646 521.028 521.646C523.472 521.646 523.952 516.905 523.952 490.485ZM514.178 492.428C514.178 476.534 513.426 465.193 512.381 465.193C511.233 465.193 510.502 476.45 510.585 492.428C510.669 507.444 511.483 519.682 512.465 519.682C513.426 519.682 514.178 507.444 514.178 492.428ZM909.931 515.756C910.996 511.684 909.117 511.12 902.579 513.647C898.841 515.109 898.841 515.192 902.579 517.406C907.884 520.413 908.699 520.247 909.931 515.756ZM86.1774 500.845C97.8522 494.725 107.397 489.17 107.397 488.606C107.397 487.938 98.3326 483.05 87.4096 477.578C67.4225 467.637 67.4225 467.637 57.2305 471.542C47.0177 475.469 47.0177 475.469 47.0177 490.549C47.0177 505.649 47.0177 505.648 54.2857 508.676C64.248 512.833 62.598 513.229 86.1774 500.845ZM902.914 508.759C911.309 505.564 911.309 505.564 911.309 490.485C911.309 475.468 911.309 475.469 900.219 471.375C889.129 467.303 889.129 467.302 870.04 477.432C859.514 483.05 851.181 488.271 851.515 489.169C851.995 490.882 889.61 511.37 892.722 511.684C893.766 511.851 898.34 510.472 902.914 508.759ZM254.658 506.066H286.07L287.448 498.15C288.179 493.827 288.262 489.734 287.615 489.086C286.383 487.875 204.471 505.564 202.759 507.444C202.195 508.008 206.601 508.008 212.47 507.277C218.36 506.629 237.365 506.066 254.658 506.066ZM753.209 506.963C752.06 505.815 676.351 488.522 672.446 488.522C670.733 488.522 669.918 491.446 669.918 497.252V505.982L707.366 506.546C728 506.881 747.006 507.36 749.533 507.611C752.143 507.861 753.772 507.612 753.209 507.027V506.963ZM472.72 496.834C472.24 494.955 471.822 496.437 471.822 500.259C471.822 503.935 472.24 505.481 472.72 503.602C473.222 501.743 473.222 498.714 472.72 496.834ZM301.65 487.624C300.501 474.571 304.261 469.099 311.027 473.924C314.453 476.284 314.87 478.247 314.118 487.457C313.22 498.067 313.304 498.317 318.295 498.317C323.433 498.317 323.433 498.317 323.433 473.924V449.593H292.272V473.924C292.272 498.317 292.272 498.317 297.41 498.317C302.381 498.317 302.465 498.067 301.65 487.624ZM302.381 461.768C302.945 455.481 303.613 454.5 307.853 454.5C312.093 454.5 312.824 455.481 313.304 461.768C313.889 468.764 313.722 469.099 307.853 469.099C302.047 469.099 301.817 468.764 302.381 461.768ZM309.795 461.351C309.795 459.158 308.897 457.425 307.853 457.425C306.788 457.425 305.89 459.158 305.89 461.351C305.89 463.481 306.788 465.193 307.853 465.193C308.897 465.193 309.795 463.481 309.795 461.351ZM330.68 485.181C330.2 482.236 329.866 484.198 329.782 489.503C329.782 494.871 330.2 497.336 330.618 494.871C331.098 492.511 331.098 488.105 330.68 485.181ZM350.187 486.643C349.289 477.349 349.769 474.571 352.067 473.256C354.176 472.128 354.427 471.145 352.881 470.247C351.649 469.516 350.668 465.841 350.668 462.165C350.668 456.046 351.169 455.482 356.557 455.482C361.945 455.482 362.342 455.962 362.342 462.332C362.342 466.739 361.277 469.662 359.335 470.414C356.787 471.375 356.87 471.877 359.982 474.07C363.073 476.2 363.491 478.477 362.76 487.457C361.945 497.649 362.092 498.317 366.185 498.317C370.174 498.317 370.425 497.566 369.84 487.29C369.109 474.968 372.701 469.997 379.385 474.153C382.079 475.949 382.664 478.477 382.079 487.29C381.515 497.482 381.765 498.317 385.671 498.317C389.597 498.317 389.911 497.42 389.514 488.105C388.929 473.506 389.096 473.025 394.318 473.025C400.855 473.025 402.317 476.033 401.586 488.105C400.938 497.482 401.251 498.317 405.178 498.317C409.083 498.317 409.418 497.482 408.77 487.29C408.185 478.477 408.77 475.949 411.548 474.153C418.148 469.997 421.823 474.968 421.092 487.29C420.424 497.253 420.758 498.317 424.267 498.317C427.776 498.317 428.339 496.584 429.488 482.236C430.219 473.423 430.553 462.646 430.136 458.406L429.488 450.574L379.385 450.094L329.218 449.529V462.248C329.218 474.884 329.302 474.968 334.106 473.757C341.938 471.793 344.318 475.302 343.253 487.54C342.439 497.649 342.689 498.234 346.845 498.234C351.002 498.234 351.169 497.732 350.187 486.559V486.643ZM331.181 463.397C331.181 455.878 331.495 455.482 337.134 455.482C342.836 455.482 343.086 455.795 342.522 462.729C342.021 469.099 341.206 470.165 336.57 470.645C331.495 471.313 331.181 470.895 331.181 463.397ZM339.013 463.314C339.013 461.1 338.116 459.388 337.05 459.388C335.985 459.388 335.087 461.1 335.087 463.314C335.087 465.423 335.985 467.136 337.05 467.136C338.116 467.136 339.013 465.423 339.013 463.314ZM371.553 469.83C369.924 468.285 369.694 456.61 371.156 455.148C371.72 454.584 374.414 454.5 377.108 455.064C381.431 455.878 381.995 456.86 381.431 463.063C380.951 468.451 379.886 470.248 376.858 470.645C374.665 470.979 372.305 470.645 371.553 469.83ZM377.923 462.165C377.923 460.62 377.025 459.388 375.959 459.388C374.915 459.388 374.017 461.183 374.017 463.397C374.017 465.59 374.915 466.822 375.959 466.154C377.025 465.507 377.923 463.711 377.923 462.165ZM390.412 468.451C389.827 466.822 389.597 463.064 389.911 460.035C390.496 455.649 391.54 454.5 395.466 454.5C399.873 454.5 400.353 455.315 400.353 462.332C400.353 468.849 399.622 470.164 395.947 470.728C393.419 471.062 391.06 470.08 390.412 468.451ZM396.615 459.889C394.485 457.759 393.023 461.1 394.568 464.609C395.947 467.951 396.114 467.951 396.845 464.609C397.346 462.646 397.262 460.536 396.615 459.889ZM410.483 469.83C409.668 469.099 409.083 465.507 409.083 461.998C409.083 456.046 409.585 455.482 415.036 455.482C420.758 455.482 421.009 455.796 420.34 462.813C419.944 468.368 418.878 470.248 415.787 470.645C413.657 470.979 411.214 470.561 410.483 469.83ZM416.832 462.332C416.832 460.787 416.017 459.075 414.889 458.406C413.824 457.675 413.01 459.388 413.01 462.332C413.01 465.194 413.824 466.906 414.889 466.154C416.017 465.507 416.832 463.794 416.832 462.332ZM537.005 486.643C536.191 477.098 536.525 474.57 539.219 473.025C541.245 471.793 541.495 471.146 539.866 471.146C538.07 471.062 537.506 468.619 537.903 462.813C538.404 455.879 539.219 454.417 542.895 453.853C546.884 453.268 547.302 454.083 547.302 462.165C547.302 467.867 546.403 471.062 544.921 471.062C543.626 471.062 544.524 472.441 546.884 474.07C550.309 476.535 550.789 477.913 549.244 480.774C548.179 482.8 547.302 487.541 547.302 491.363C547.302 497.566 547.782 498.317 552.356 498.317C557.326 498.317 557.41 498.151 556.763 486.142C556.094 474.655 556.261 473.923 560.501 473.338C567.289 472.357 570.797 476.2 568.584 482.069C567.602 484.68 566.704 489.42 566.704 492.595C566.704 497.482 567.518 498.317 571.842 498.317C576.979 498.317 576.979 498.234 575.935 486.643C575.121 477.098 575.518 474.57 578.128 473.025C580.258 471.793 580.488 471.146 578.776 471.146C576.979 471.062 576.415 468.619 576.833 462.813C577.314 456.046 578.212 454.416 581.637 453.936C585.229 453.351 585.877 454.416 586.524 461.434C587.109 466.989 586.524 469.83 584.728 470.561C582.869 471.313 583.182 472.274 586.044 474.237C589.218 476.534 589.636 477.913 588.09 481.902C587.025 484.68 586.211 489.42 586.211 492.595C586.211 497.482 586.942 498.317 591.348 498.317C596.486 498.317 596.486 498.234 595.421 486.643C594.523 477.098 594.941 474.57 597.635 473.025C599.515 471.96 599.828 471.146 598.366 471.146C596.82 471.062 595.922 467.951 595.922 462.165C595.922 453.603 596.152 453.267 601.29 453.936C605.947 454.416 606.762 455.482 607.263 461.831C607.66 467.053 607.012 469.517 604.882 470.331C602.271 471.313 602.522 471.96 606.031 474.821C609.059 477.348 609.707 478.978 608.307 481.422C605.133 487.207 607.493 498.317 611.899 498.317C615.408 498.317 615.742 497.169 615.095 487.29C614.343 474.655 617.935 469.997 625.12 474.487C628.879 476.847 629.046 476.451 629.046 463.314V449.593H527.795V473.986C527.795 498.317 527.795 498.317 532.932 498.317C538.07 498.317 538.07 498.234 537.005 486.643ZM556.992 462.332C556.992 453.602 557.159 453.267 562.381 453.936C567.205 454.416 567.685 455.231 567.685 462.332C567.685 469.35 567.205 470.164 562.381 470.728C557.243 471.313 556.992 470.979 556.992 462.332ZM564.824 462.165C564.824 460.62 563.926 459.388 562.882 459.388C561.817 459.388 560.919 461.183 560.919 463.397C560.919 465.59 561.817 466.822 562.882 466.154C563.926 465.507 564.824 463.711 564.824 462.165ZM616.223 468.451C615.659 466.822 615.408 463.064 615.742 460.035C616.306 455.649 617.371 454.5 621.277 454.5C625.621 454.5 626.101 455.315 626.101 462.332C626.101 468.849 625.454 470.164 621.778 470.728C619.167 471.062 616.891 470.08 616.223 468.451ZM623.157 462.415C623.157 460.87 622.342 459.075 621.277 458.406C620.149 457.759 619.335 458.991 619.335 461.184C619.335 463.398 620.149 465.193 621.277 465.193C622.342 465.193 623.157 463.961 623.157 462.415ZM542.811 488.105C542.31 485.661 541.997 487.206 541.913 491.446C541.913 495.769 542.31 497.732 542.811 495.853C543.208 494.057 543.292 490.548 542.811 488.105ZM581.72 489.086C581.24 487.207 580.822 488.689 580.822 492.428C580.822 496.187 581.24 497.732 581.72 495.853C582.201 493.973 582.201 490.966 581.72 489.086ZM628.461 485.181C627.981 482.236 627.647 484.199 627.647 489.587C627.647 494.871 627.981 497.336 628.461 494.871C628.963 492.511 628.963 488.105 628.461 485.181ZM644.627 489.734C644.627 484.68 643.645 480.691 642.162 480.106C640.45 479.375 641.118 477.913 644.125 475.219C646.569 473.088 647.718 471.062 646.736 470.728C645.754 470.415 644.71 466.572 644.292 462.332C643.645 455.064 643.958 454.5 649.033 453.936C654.171 453.267 654.338 453.603 654.338 462.165C654.338 467.951 653.503 471.062 651.874 471.146C650.495 471.146 650.829 471.96 652.688 473.025C655.299 474.57 655.717 477.015 654.818 486.643C653.837 498.318 653.837 498.317 659.873 498.317C665.992 498.317 665.992 498.317 665.992 473.986V449.593H632.952V473.986C632.952 498.317 632.952 498.317 638.737 498.317C644.376 498.317 644.627 497.984 644.627 489.734ZM649.848 489.086C649.347 487.207 648.95 488.689 648.95 492.428C648.95 496.187 649.347 497.732 649.848 495.853C650.328 493.973 650.328 490.966 649.848 489.086ZM132.689 489.734C132.689 483.134 132.605 483.05 126.82 485.264C123.625 486.475 121.014 488.105 121.014 488.919C121.014 490.068 129.911 495.937 132.208 496.271C132.438 496.354 132.689 493.326 132.689 489.734ZM831.612 493.409C838.629 489.733 838.713 489.336 831.695 485.744C826.39 482.966 825.973 483.051 824.908 487.123C822.297 497.002 823.132 497.816 831.612 493.409ZM461.63 488.606C461.63 487.457 459.02 486.643 455.762 486.643C452.566 486.643 449.956 487.457 449.956 488.606C449.956 489.65 452.566 490.549 455.762 490.549C459.02 490.549 461.63 489.65 461.63 488.606ZM486.922 488.606C486.922 487.457 483.414 486.643 479.174 486.643C474.851 486.643 471.342 487.457 471.342 488.606C471.342 489.65 474.851 490.549 479.174 490.549C483.414 490.549 486.922 489.65 486.922 488.606ZM483.08 403.917C483.08 400.742 477.858 397.797 475.916 399.76C474.517 401.138 478.84 406.861 481.367 406.861C482.265 406.861 483.08 405.546 483.08 403.917ZM506.012 400.574C505.531 394.935 504.696 394.121 499.078 393.641C493.042 392.994 492.791 393.223 492.791 399.927C492.791 406.61 493.042 406.861 499.725 406.861C506.346 406.861 506.659 406.61 506.012 400.574ZM488.886 399.112C488.886 393.473 488.551 393.223 480.156 393.223C475.331 393.223 471.342 393.954 471.342 394.852C471.342 395.75 473.953 396.085 477.127 395.604C481.952 394.936 483.33 395.667 485.293 399.844C488.217 406.36 488.886 406.276 488.886 399.112ZM455.26 352.935C454.947 345.667 454.613 351.139 454.613 365.007C454.613 378.958 454.947 384.91 455.26 378.227C455.678 371.607 455.678 360.182 455.26 352.935ZM481.137 384.494C481.137 381.799 480.239 379.606 479.174 379.606C478.109 379.606 477.211 381.799 477.211 384.494C477.211 387.188 478.109 389.317 479.174 389.317C480.239 389.317 481.137 387.188 481.137 384.494ZM486.421 349.991C486.108 342.242 485.774 348.111 485.774 363.044C485.774 378.06 486.024 384.409 486.421 377.246C486.755 370.061 486.755 357.823 486.421 349.991ZM503.965 352.935C503.568 345.667 503.234 351.139 503.234 365.007C503.234 378.958 503.568 384.91 503.965 378.227C504.299 371.607 504.299 360.182 503.965 352.935ZM465.056 350.972C464.638 343.704 464.325 349.176 464.325 363.044C464.325 376.995 464.638 382.947 465.056 376.264C465.39 369.643 465.39 358.219 465.056 350.972ZM473.305 362.062C473.305 346.565 472.553 336.77 471.342 336.77C470.193 336.77 469.379 346.565 469.379 362.062C469.379 377.643 470.193 387.438 471.342 387.438C472.553 387.438 473.305 377.643 473.305 362.062ZM665.992 359.953C677.249 350.241 688.277 341.01 690.469 339.548C694.709 336.687 713.631 315.405 711.919 315.405C711.438 315.405 706.468 319.311 701.079 324.135C685.415 338.003 677.5 341.261 656.865 342.243C640.053 343.057 638.737 343.392 633.933 348.759C628.879 354.482 628.879 354.481 636.21 365.988C640.303 372.254 644.042 377.476 644.627 377.559C645.19 377.643 654.819 369.727 665.992 359.953ZM319.193 368.663C321.637 364.841 323.433 361.499 323.099 361.165C322.702 360.831 316.332 357.74 308.834 354.314C301.316 350.806 284.67 342.722 271.868 336.29C258.981 329.92 248.936 325.18 249.52 325.764C251.964 328.291 312.823 375.68 313.721 375.68C314.202 375.68 316.729 372.506 319.193 368.663ZM481.137 365.988C481.137 363.858 480.239 362.062 479.174 362.062C478.109 362.062 477.211 363.858 477.211 365.988C477.211 368.098 478.109 369.894 479.174 369.894C480.239 369.894 481.137 368.098 481.137 365.988ZM498.013 362.627C497.532 360.768 497.114 361.811 497.031 365.007C497.031 368.265 497.449 369.81 497.929 368.432C498.514 367.116 498.514 364.507 498.013 362.627ZM492.227 347.945C491.726 345.585 491.329 347.548 491.329 352.351C491.329 357.176 491.726 359.118 492.227 356.758C492.708 354.315 492.708 350.388 492.227 347.945ZM340.559 339.465C340.079 337.502 295.614 303.897 280.848 294.352C278.071 292.556 288.012 304.712 303.028 321.525C330.283 351.954 330.284 351.954 335.672 346.899C338.596 344.038 340.81 340.781 340.559 339.465ZM498.013 341.177C497.532 339.297 497.115 340.843 497.115 344.602C497.115 348.362 497.532 349.824 498.013 347.945C498.514 346.065 498.514 343.057 498.013 341.177ZM655.633 318.83C675.453 297.047 681.739 289.215 675.787 293.622C670.963 297.131 654.986 308.555 640.387 318.914L613.779 337.752L619.815 344.122C623.157 347.547 626.101 350.388 626.352 350.388C626.582 350.388 639.719 336.206 655.633 318.83ZM459.103 341.177C458.602 339.297 458.122 340.363 458.122 343.621C458.038 346.816 458.456 348.362 459.02 347.046C459.584 345.751 459.584 343.14 459.103 341.177ZM481.137 341.678C481.137 338.984 480.239 336.854 479.174 336.854C478.109 336.854 477.211 338.984 477.211 341.678C477.211 344.351 478.109 346.565 479.174 346.565C480.239 346.565 481.137 344.351 481.137 341.678ZM357.121 326.328L366.415 317.932L352.234 304.294C321.804 275.18 302.945 259.35 300.919 261.313C300.418 261.793 304.261 265.719 309.315 270.042C320.823 279.754 328.404 294.353 331.349 312.46C333.061 323.32 334.607 326.976 338.679 330.485C345.53 336.291 346.198 336.123 357.121 326.328ZM461.63 332.949C464.241 331.236 464.241 331.068 461.63 331.068C460.001 331.068 457.391 331.884 455.845 332.949C453.235 334.578 453.235 334.807 455.845 334.807C457.391 334.807 460.001 333.993 461.63 332.949ZM502.503 332.949C500.874 331.884 497.845 331.069 495.736 331.153C491.81 331.236 491.81 331.236 495.736 332.949C497.845 333.847 500.874 334.662 502.503 334.724C505.113 334.808 505.113 334.578 502.503 332.949ZM488.886 330.986C488.886 329.92 484.562 329.023 479.258 329.023C473.953 329.023 469.128 329.92 468.481 330.986C467.666 332.197 471.342 332.949 478.025 332.949C483.978 332.949 488.886 332.051 488.886 330.986ZM463.594 322.569C463.594 316.303 461.547 314.82 458.456 318.83C454.78 323.717 455.26 327.059 459.667 327.059C462.445 327.059 463.594 325.764 463.594 322.569ZM500.54 323.404C500.54 318.182 495.569 314.34 494.023 318.413C491.81 324.135 492.708 327.059 496.718 327.059C499.161 327.059 500.54 325.764 500.54 323.404ZM619.335 298.759C633.599 273.551 644.125 251.184 641.849 251.184C641.347 251.184 638.257 255.925 634.915 261.793C626.916 275.745 613.695 287.168 599.431 292.389C588.236 296.399 583.349 300.869 581.971 308.137C581.47 311.166 597.948 326.662 602.042 326.975C602.689 327.059 610.521 314.34 619.335 298.759ZM483.581 323.801C481.137 323.321 476.814 323.32 473.869 323.717C470.841 324.218 472.804 324.532 478.192 324.616C483.497 324.616 485.941 324.219 483.581 323.801ZM481.137 315.489C481.137 312.21 477.628 311.478 476.48 314.423C475.832 316.219 476.48 317.347 478.276 317.347C479.822 317.347 481.137 316.533 481.137 315.489ZM482.913 273.384C478.756 232.094 477.211 223.302 477.127 240.595C477.127 245.899 476.313 255.924 475.415 262.858C474.433 269.792 473.055 283.827 472.324 294.018C471.091 311.165 471.259 312.209 474.12 308.22C475.832 305.944 476.647 302.666 475.979 300.953C475.248 298.927 475.916 297.862 477.942 297.862C479.738 297.862 481.137 299.49 481.137 301.683C481.137 305.693 485.126 315.885 486.275 314.737C486.588 314.423 485.126 295.815 482.913 273.384ZM471.008 260.895C471.008 258.2 468.815 266.45 466.121 279.169C461.965 299.24 461.63 303.083 463.907 307.239C466.288 311.645 466.685 310.1 468.815 288.964C470.026 276.162 471.008 263.589 471.008 260.895ZM386.653 306.257C390.412 304.461 393.503 302.269 393.503 301.287C393.503 299.574 350.835 235.603 349.707 235.603C349.289 235.603 355.826 252.249 363.971 272.57C372.221 292.891 379.071 309.515 379.322 309.515C379.552 309.515 382.831 308.053 386.653 306.257ZM491.893 280.402C489.115 267.265 486.922 255.59 486.922 254.462C486.922 253.397 486.421 252.917 485.941 253.481C484.959 254.379 487.173 280.067 490.013 301.537C490.995 309.035 491.496 309.766 494.023 307.239C496.467 304.712 496.216 301.454 491.893 280.402ZM592.079 270.44C599.744 251.852 606.448 235.289 607.012 233.66C607.576 232.031 597.468 246.463 584.498 265.719L561.002 300.722L568.187 305.129C576.833 310.35 574.369 313.923 592.079 270.44ZM408.519 296.233C413.657 294.269 419.38 292.076 421.322 291.408C424.35 290.343 422.805 286.187 408.185 257.554C399.058 239.613 389.263 222.237 386.486 219.041C380.784 212.442 380.867 212.692 388.616 228.752C395.633 243.121 397.012 259.182 392.856 275.263C389.994 286.27 389.994 286.855 394.088 293.204C396.448 296.796 398.557 299.825 398.808 299.825C398.975 299.825 403.382 298.175 408.519 296.233ZM553.003 259.099C556.428 239.446 558.872 219.292 558.559 214.321C557.974 205.424 557.974 205.424 555.447 219.041C551.688 238.966 547.051 247.696 532.765 262.127C522.406 272.57 520.046 276.162 520.046 281.216C520.046 287.169 520.527 287.587 533.183 291.325C540.347 293.455 546.466 295.168 546.633 295.084C546.8 295.001 549.662 278.856 553.003 259.099ZM455.177 283.576C455.991 282.761 439.43 216.033 437.237 211.292C436.088 208.682 438.135 269.542 439.513 279.086C440.578 286.521 440.745 286.604 447.512 285.539C451.272 284.892 454.697 283.994 455.177 283.576ZM516.788 259.6C517.519 245.001 518 227.291 517.916 220.19C517.833 207.471 517.686 207.784 508.288 244.333C503.067 264.655 498.743 281.948 498.66 282.679C498.576 283.994 504.215 285.456 511.483 285.957C515.305 286.187 515.556 285.059 516.788 259.6ZM220.219 268.644C220.219 267.599 218.924 266.784 217.378 266.784C215.749 266.784 214.433 267.599 214.433 268.644C214.433 269.792 215.749 270.607 217.378 270.607C218.924 270.607 220.219 269.792 220.219 268.644ZM664.029 190.825C664.029 189.76 663.214 188.862 662.17 188.862C661.021 188.862 660.207 189.76 660.207 190.825C660.207 191.89 661.021 192.788 662.17 192.788C663.214 192.788 664.029 191.89 664.029 190.825ZM59.2564 465.11C60.1544 464.379 57.7945 461.915 53.9516 459.722C47.0177 455.649 47.0177 455.649 47.0177 463.314C47.0177 470.895 47.0176 470.979 52.3225 468.702C55.3508 467.47 58.4419 465.841 59.2564 465.11ZM911.309 463.23C911.309 455.398 911.31 455.398 902.997 459.638L894.747 463.877L902.496 467.303C906.819 469.182 910.495 470.811 910.829 470.895C911.059 470.978 911.309 467.553 911.309 463.23ZM358.437 462.165C358.437 460.62 357.601 459.388 356.557 459.388C355.408 459.388 354.594 461.183 354.594 463.397C354.594 465.59 355.408 466.906 356.557 466.154C357.601 465.507 358.437 463.711 358.437 462.165ZM542.811 459.889C542.31 458.009 541.83 459.074 541.83 462.332C541.746 465.507 542.143 467.053 542.728 465.758C543.208 464.442 543.292 461.831 542.811 459.889ZM603.754 462.332C603.754 460.87 602.856 459.075 601.791 458.406C600.642 457.759 599.828 459.388 599.828 462.332C599.828 465.194 600.642 466.906 601.791 466.154C602.856 465.507 603.754 463.794 603.754 462.332ZM649.848 459.889C649.347 458.009 648.95 459.074 648.866 462.332C648.866 465.507 649.263 467.053 649.764 465.758C650.328 464.442 650.412 461.831 649.848 459.889ZM581.637 458.907C581.156 457.591 580.655 458.657 580.655 461.351C580.655 464.045 581.073 465.11 581.637 463.795C582.201 462.416 582.201 460.202 581.637 458.907ZM84.9661 455.482L98.5833 449.843H46.057L56.7292 455.482C69.7825 462.416 68.3206 462.416 84.9661 455.482ZM899.656 456.464C904.96 453.769 909.346 451.076 909.346 450.574C909.346 450.094 898.173 449.676 884.556 449.76L859.681 449.843L873.298 455.482C890.027 462.416 888.064 462.332 899.656 456.464ZM134.568 451.075C134.568 450.344 130.475 449.676 125.337 449.676L116.127 449.76L123.875 453.268C131.227 456.609 134.485 455.962 134.568 451.075ZM833.408 453.519L840.258 449.843L831.925 449.76C824.991 449.676 823.696 450.26 823.696 453.602C823.696 458.322 824.761 458.322 833.408 453.602V453.519ZM523.952 452.537C523.952 450.094 517.686 449.676 479.174 449.676C440.662 449.676 434.375 450.094 434.375 452.537C434.375 455.065 440.662 455.482 479.174 455.482C517.686 455.482 523.952 455.065 523.952 452.537ZM135.55 434.597C145.011 355.296 187.847 274.846 249.437 220.524C310.129 166.995 392.521 134.289 466.518 134.289C482.766 134.289 484.959 134.685 485.043 137.714C485.126 140.972 485.21 140.972 487.737 137.714C493.355 130.279 546.55 137.379 587.276 151.101C691.2 186 773.446 268.33 807.301 371.273C813.985 391.428 821.733 425.699 821.733 434.68C821.733 446.104 820.438 445.77 866.678 445.77C916.134 445.77 911.393 449.447 906.255 414.84C875.262 204.693 691.764 46.5927 479.258 46.7388C261.989 46.8224 80.1415 205.925 50.046 421.94C48.4169 434.012 47.0177 444.371 47.0177 444.872C47.0177 445.353 66.608 445.77 90.5842 445.77H134.151L135.55 434.597ZM398.411 114.469C396.531 109.394 391.54 83.2875 391.54 78.7346C391.54 73.9936 395.947 72.1141 398.244 75.7899C398.891 76.7715 401.022 85.5007 402.964 95.2958C406.556 112.672 406.556 113.069 402.964 115.032C400.27 116.411 399.058 116.265 398.411 114.469ZM547.615 109.248C544.921 101.499 534.311 99.6192 531.22 106.386C529.027 111.273 522.01 112.756 522.01 108.349C522.01 106.866 526.082 98.137 531.22 88.8431C539.302 73.9938 541.015 72.0308 545.735 72.0308C551.625 72.0308 551.458 71.7171 554.966 93.5839C557.89 111.942 557.661 114.865 553.337 114.865C550.956 114.865 548.931 112.756 547.698 109.248H547.615ZM545.735 90.5551C544.754 82.4725 542.895 81.8258 539.783 88.6761C536.775 95.3802 536.608 95.2958 545.422 97.0919C545.986 97.2381 546.153 94.2309 545.735 90.5551ZM414.973 92.2684C413.657 81.9929 413.323 72.8453 414.221 72.0308C415.119 71.2162 420.424 70.0878 425.979 69.503C433.728 68.6049 436.255 69.0233 437.07 71.2162C438.218 74.161 437.32 74.7247 428.026 76.7715C419.526 78.6511 420.675 85.6678 429.488 85.6678C438.218 85.6678 439.033 91.0568 430.47 92.7693C425.896 93.6674 424.664 94.9617 424.664 98.7211C424.664 103.128 425.248 103.442 432.913 102.878C439.283 102.314 441.226 102.878 441.727 105.322C442.458 109.081 437.069 110.876 425.415 110.96C417.333 110.96 417.333 110.961 414.973 92.2684ZM451.104 89.5736C449.726 68.6884 450.123 66.1619 455.595 66.1619C459.667 66.1619 463.092 69.8371 470.11 81.7416L475.248 90.5551V78.3165C475.248 67.4771 475.665 66.1619 479.174 66.1619C482.85 66.1619 483.08 67.4767 483.08 86.6494C483.08 107.033 483.08 107.034 478.192 107.034C474.12 107.034 472.24 104.987 467.019 94.2314L460.649 81.428L459.667 94.712C458.936 104.841 457.955 108.183 455.595 108.58C452.984 109.081 452.253 106.052 451.104 89.5736ZM503.484 91.4538C504.863 73.9938 504.863 73.9938 499.809 73.9938C495.966 73.9938 494.754 73.012 494.754 70.0881C494.754 66.4123 495.569 66.2446 508.873 67.3933C516.621 68.0408 523.722 69.3356 524.62 70.171C527.544 72.7816 523.952 75.9569 518 75.9569C512.382 75.9569 512.214 76.124 512.214 86.3995C512.214 102.544 510.418 108.997 505.928 108.997C502.252 108.997 502.169 108.099 503.484 91.4538ZM93.1113 396.168C84.799 393.724 77.5309 391.343 77.0505 390.779C75.9018 389.631 81.4573 373.821 84.235 370.459C87.7438 366.303 96.9542 367.368 100.943 372.422C103.554 375.847 105.517 376.578 108.378 375.534C110.488 374.719 114.665 373.968 117.672 373.884C122.33 373.738 123.061 374.468 122.58 378.144C122.079 381.653 120.367 382.697 113.683 383.595C109.193 384.18 104.953 385.224 104.306 385.892C102.426 387.772 105.266 391.28 108.545 391.28C113.767 391.28 118.988 395.102 117.756 398.131C116.294 401.869 111.469 401.472 93.1113 396.168ZM96.62 382.3C96.62 379.689 95.3251 378.625 91.8163 378.625C86.0312 378.625 83.9009 384.66 89.2057 385.976C94.6776 387.355 96.62 386.372 96.62 382.3ZM865.55 398.778C862.355 397.797 855.191 397.379 849.719 397.964C841.971 398.778 839.444 398.361 838.546 396.168C837.397 393.056 840.822 390.613 849.301 388.587C852.163 387.919 859.013 383.762 864.652 379.355C872.568 373.069 875.095 371.941 876.473 373.967C879.084 378.144 878.687 379.042 871.335 384.828L864.568 390.299L872.797 392.326C882.759 394.769 885.788 401.055 876.891 400.826C873.862 400.742 868.725 399.843 865.55 398.778ZM834.055 376.431C833.241 374.384 834.473 372.024 837.23 369.894C843.516 365.174 840.571 355.692 832.343 354.23C829.001 353.666 826.39 351.87 825.973 349.824C825.409 346.649 827.121 346.398 847.359 346.899C869.456 347.463 869.456 347.464 870.04 352.434C870.521 356.757 868.411 358.972 854.46 368.516C836.749 380.671 835.768 380.984 834.055 376.431ZM854.857 358.156C859.681 354.397 859.681 354.398 852.413 354.314C844.581 354.231 844.498 354.314 846.294 358.971C847.756 362.877 848.905 362.793 854.857 358.156ZM105.935 357.489C88.0571 350.638 87.6602 349.991 93.6124 335.956C96.3902 329.502 98.2699 327.393 100.463 328.208C104.139 329.586 104.139 329.44 100.546 337.836C97.8521 344.436 97.9357 344.77 102.008 346.316C105.601 347.631 106.749 346.962 108.713 342.326C110.007 339.214 112.367 336.77 114.08 336.77C117.589 336.77 117.756 338.483 115.145 345.417C113.433 349.907 113.85 350.722 118.173 352.351C124.773 354.878 124.376 355.129 125.838 348.279C127.133 342.556 131.456 338.818 134.067 341.428C134.735 342.076 133.754 347.464 131.958 353.333C127.948 365.906 128.031 365.905 105.851 357.489H105.935ZM820.668 335.873C810.726 325.932 815.217 315.238 832.593 307.323C846.941 300.786 852.894 300.137 852.894 305.129C852.894 307.489 848.821 310.184 839.193 314.089C824.177 320.292 822.882 321.44 824.594 326.829C826.557 333.011 830.797 333.012 844.414 326.892C857.551 321.024 862.605 320.71 862.605 325.68C862.605 328.855 837 340.614 830.129 340.614C827.602 340.614 823.278 338.484 820.668 335.873ZM119.552 323.07C110.655 318.913 103.491 314.339 103.491 312.961C103.491 311.562 105.517 306.988 107.961 302.665C111.887 295.731 113.098 294.917 119.886 294.917C130.412 294.917 136.197 302.436 133.253 312.21C131.31 318.58 131.457 319.06 136.845 321.273C142.797 323.801 143.862 329.503 138.474 330.338C136.845 330.568 128.365 327.309 119.552 323.07ZM126.82 309.453C126.82 304.378 119.719 300.64 115.96 303.731C111.72 307.323 112.618 310.497 118.57 312.711C125.024 315.071 126.82 314.34 126.82 309.453ZM806.487 304.962C795.459 293.204 797.088 279.086 810.225 272.403C819.686 267.599 827.685 267.599 833.888 272.486C839.527 276.893 844.08 286.772 842.451 291.011C840.906 295.084 835.35 294.687 835.35 290.426C835.35 283.743 829.732 278.355 822.631 278.355C811.938 278.355 805.589 287.002 809.244 296.546C811.207 301.621 819.373 296.63 818.308 291.011C817.159 284.808 820.751 283.346 824.093 288.568C830.296 298.175 829.983 299.491 820.02 304.545C810.559 309.286 810.559 309.285 806.487 304.962ZM133.169 286.02C120.534 277.958 119.301 276.329 123.395 272.904C125.191 271.505 129.514 273.133 139.142 278.856C152.342 286.771 152.342 286.772 156.435 282.679C161.803 277.374 160.027 273.635 149 267.182C134.882 258.786 132.438 256.404 134.568 253.063C136.197 250.536 137.994 250.953 147.371 256.007C163.599 264.57 168.34 269.959 166.961 278.125C165.478 287.168 158.795 293.935 151.297 293.852C147.705 293.852 140.521 290.76 133.169 286.02ZM781.759 265.802C775.472 259.516 775.305 249.408 781.362 243.936C783.722 241.805 789.925 237.169 795.063 233.744C802.56 228.669 804.92 227.854 807.218 229.734C810.977 232.846 809.912 234.224 796.19 243.435C783.973 251.768 781.842 257.072 789.027 261.563C791.721 263.192 794.728 262.044 804.273 255.444C810.81 250.87 817.41 247.194 818.955 247.194C823.195 247.194 822.151 253.648 817.243 257.24C796.357 272.319 789.841 273.864 781.759 265.802ZM120.199 260.08C118.821 254.295 120.701 248.74 123.625 249.722C126.486 250.703 126.486 263.192 123.625 264.173C122.413 264.57 120.93 262.774 120.199 260.08ZM162.868 249.971C155.37 244.019 148.436 238.464 147.538 237.566C146.64 236.668 149.167 232.345 153.156 227.938C161.657 218.56 168.006 217.578 172.746 224.847C174.856 228.021 177.717 229.651 181.142 229.651C187.993 229.651 191.105 232.992 191.105 240.176C191.105 246.379 182.291 260.894 178.615 260.748C177.467 260.748 170.303 255.84 162.868 249.971ZM183.273 243.038C183.273 237.733 177.968 236.418 173.394 240.595C169.405 244.103 169.405 244.103 173.895 247.445C178.949 251.267 183.273 249.241 183.273 243.038ZM167.275 234.141C168.006 229.253 162.951 226.957 159.86 230.8C157.981 232.992 158.064 234.224 159.944 236.584C163.118 240.427 166.544 239.278 167.275 234.141ZM762.189 240.595C761.604 239.028 762.502 235.206 764.215 231.948C767.327 225.829 768.225 219.939 765.928 219.939C765.28 219.939 761.855 222.069 758.43 224.68C753.772 228.272 751.663 228.92 750.034 227.207C746.525 223.699 746.922 223.135 762.586 209.1L777.435 195.796L784.035 202.98C792.118 211.793 792.849 220.356 785.998 224.847C783.471 226.476 779.963 227.29 778.25 226.643C776.37 225.912 774.992 226.393 774.992 227.688C774.992 229.004 773.593 233.076 771.88 236.668C768.622 243.519 763.985 245.398 762.189 240.595ZM781.842 216.117C782.49 215.052 782.009 212.357 780.777 209.997C778.5 205.841 778.501 205.841 774.574 209.83C772.465 211.961 771.233 214.717 771.964 215.866C773.593 218.56 780.213 218.728 781.842 216.117ZM188.243 217.996C176.736 206.885 174.041 203.231 175.754 201.184C178.949 197.257 179.597 197.591 192.399 209.183C204.158 219.792 204.158 219.793 208.481 215.136C212.804 210.562 218.36 210.394 218.36 214.885C218.36 216.2 214.851 220.608 210.591 224.764L202.926 232.262L188.243 217.996ZM730.924 207.951C724.972 205.027 719.834 194.647 721.797 189.593C724.241 183.39 741.137 165.449 744.479 165.449C750.514 165.449 748.885 170.587 739.738 180.466C729.462 191.305 727.917 197.195 734.287 200.62C737.879 202.479 739.654 201.434 749.199 191.89C755.172 185.917 761.124 181.03 762.502 181.03C767.974 181.03 766.262 186.418 757.782 195.629C744.646 210.081 739.821 212.275 730.924 207.951ZM211.008 194.731C198.769 181.448 195.992 175.161 202.278 175.244C206.936 175.244 230.661 201.748 229.283 205.424C227.319 210.478 223.414 208.202 211.008 194.731ZM227.737 182.909C221.367 176.226 220.219 173.699 220.219 166.515C220.219 159.414 221.2 157.2 226.338 152.877C232.624 147.655 239.725 146.924 241.187 151.415C241.689 152.814 239.475 154.757 236.05 155.905C232.792 157.054 229.617 159.665 228.949 161.774C227.236 167.079 234.024 177.688 240.54 179.965C245.281 181.677 246.576 181.281 250.648 176.457C253.175 173.533 256.204 171.652 257.269 172.3C264.119 176.539 251.797 190.741 241.187 190.741C236.78 190.741 233.355 188.778 227.737 182.909ZM686.961 171.986C682.888 169.125 679.609 166.013 679.609 165.115C679.609 161.774 700.181 132.41 702.541 132.41C708.41 132.326 706.948 138.925 698.385 151.415C689.404 164.468 689.404 164.468 694.312 168.06C699.367 171.819 700.745 177.125 696.672 177.125C695.273 177.125 690.95 174.826 686.961 171.986ZM264.203 170.922C261.342 162.108 255.64 133.391 256.454 132.076C257.018 131.178 259.065 129.549 261.091 128.483C264.119 126.854 267.377 128.817 279.95 139.51C297.327 154.192 297.41 154.276 293.317 157.617C290.79 159.748 289.578 159.581 286.299 156.553C282.561 153.211 282.06 153.211 277.089 156.239C273.1 158.683 271.868 160.959 271.868 165.783C271.868 172.383 265.915 176.372 264.203 171.005V170.922ZM273.914 149.703C274.645 148.491 272.849 145.212 269.904 142.372C264.516 137.213 264.516 137.212 265.748 142.12C266.396 144.731 266.98 148.074 266.98 149.369C266.98 152.397 272.118 152.564 273.914 149.703ZM659.622 155.571C655.55 153.378 651.728 150.433 651.143 148.888C649.764 145.296 666.243 114.865 669.584 114.865C670.963 114.865 676.038 117.163 680.841 119.92C687.859 124.097 689.091 125.559 687.211 127.752C685.332 130.049 684.016 129.966 678.648 126.77C672.278 123.032 672.279 123.031 670.315 127.271C668.686 130.947 669.25 131.992 674.158 134.853C680.11 138.278 680.027 142.12 674.075 142.12C672.195 142.12 669.584 140.972 668.269 139.677C666.243 137.714 665.178 137.964 662.985 140.972C659.225 146.11 659.392 146.444 666.076 150.266C671.861 153.545 674.075 159.665 669.417 159.498C668.122 159.498 663.716 157.701 659.622 155.487V155.571ZM319.026 138.048C314.056 135.186 307.853 121.883 307.853 114.218C307.853 102.063 324.498 91.6204 334.941 97.2385C340.308 100.1 346.762 113.069 346.762 121.235C346.762 134.121 329.866 144.397 319.026 138.048ZM335.254 128.337C337.468 126.123 338.763 122.948 338.199 121.319C337.552 119.774 337.05 117.164 337.05 115.597C337.05 110.626 328.153 103.275 323.6 104.507C317.397 106.136 315.351 111.358 317.878 119.022C322.285 132.159 328.237 135.354 335.254 128.337ZM617.852 135.103C614.343 133.641 611.503 131.428 611.503 130.28C611.503 125.058 625.851 95.38 628.378 95.38C633.119 95.38 646.339 102.962 648.448 106.951C653.022 115.514 649.681 128.817 641.034 135.751C637.108 138.925 625.851 138.612 617.852 135.103ZM639.489 122.05C642.83 115.2 642.83 114.469 639.802 109.811C635.166 102.627 631.239 104.674 626.101 116.746C620.88 129.151 621.36 130.863 629.694 130.049C634.581 129.547 636.544 128.002 639.405 122.05H639.489ZM360.546 122.05C358.27 116.098 350.668 90.3881 350.668 88.759C350.668 86.7123 363.574 81.7416 368.796 81.7416C375.73 81.7416 380.533 88.1116 379.385 95.7764C378.654 100.747 379.719 103.693 384.46 109.561C389.43 115.764 389.994 117.309 387.551 118.876C383.228 121.549 382.413 121.236 376.774 113.884C369.36 104.11 365.684 104.757 367.313 115.513C368.295 122.384 367.981 124.244 365.371 125.225C363.24 126.04 361.695 125.057 360.546 122.05ZM369.109 98.5541C373.516 95.3795 371.803 89.5736 366.415 89.5736C361.611 89.5736 360.296 91.6207 361.695 97.0091C362.99 101.896 364.222 102.146 369.109 98.5541ZM573.241 120.087C569.816 118.792 566.537 117.31 565.973 116.746C564.741 115.43 573.805 81.6585 576.019 79.5491C576.833 78.7346 578.776 78.8184 580.405 79.8627C582.953 81.4291 582.785 83.5374 579.193 97.0919C575.121 112.505 575.121 112.505 581.156 114.218C587.84 116.181 589.302 121.486 583.266 122.05C581.156 122.3 576.583 121.403 573.241 120.087ZM28.9938 522.858C26.5502 516.509 27.6154 441.53 30.3931 421.627C44.8248 319.143 88.0571 231.279 158.962 160.395C198.352 120.985 234.024 95.5262 283.542 71.7172C340.977 43.9817 396.531 30.2598 461.714 27.7327C526.897 25.122 586.378 35.4816 648.135 60.126C677.75 71.947 679.379 72.8445 676.602 75.7058C675.056 77.2513 669.584 75.7066 657.095 70.2347C600.475 45.3605 544.754 34.1025 478.192 34.1025C403.778 34.1025 347.576 47.1562 281.579 79.5491C159.526 139.51 72.8109 250.305 43.1957 384.263C35.5309 418.682 33.0037 447.733 33.7347 489.817C34.215 515.61 33.8183 525.384 32.1683 525.384C30.957 525.384 29.495 524.257 28.9938 522.858ZM826.474 199.806C791.47 156.323 745.773 117.644 697.236 90.3053C677.416 79.2153 678.481 80.0297 681.092 77.4191C684.914 73.597 729.295 100.747 762.419 127.271C788.776 148.407 830.964 192.287 838.462 206.489C844.164 217.182 837.397 213.423 826.474 199.806ZM839.276 194.418C839.276 193.352 840.175 192.537 841.24 192.537C842.305 192.537 843.182 193.352 843.182 194.418C843.182 195.545 842.305 196.36 841.24 196.36C840.175 196.36 839.276 195.545 839.276 194.418Z" fill="#DBA651"/>
</svg>
