<svg width="961" height="962" viewBox="0 0 961 962" fill="none" xmlns="http://www.w3.org/2000/svg">
<path fill-rule="evenodd" clip-rule="evenodd" d="M444.008 960.672C441.027 960.311 430.43 959.038 420.478 957.937C367.149 951.992 314.028 935.526 261.288 908.596C115.354 834.186 17.5842 691.158 1.40309 528.53C-1.35073 500.783 0.149422 433.514 4.15671 407.913C42.1404 163.468 260.984 -13.7639 506.834 0.84082C573.685 4.77214 638.295 21.9979 696.467 51.3593C713.598 60.0386 717.017 62.5644 714.263 64.2736C712.858 65.0903 714.187 65.6028 717.529 65.5458C723.835 65.3179 753.576 84.1579 779.69 104.935C799.214 120.432 840.388 161.607 856.417 181.719C923.914 266.138 960.796 372.227 960.644 482.019C960.568 640.639 881.999 788.339 749.873 878.323C724.651 895.472 711.604 902.594 707.217 901.398C705.223 900.885 701.348 901.626 698.614 903.031C695.936 904.437 691.492 905.633 688.738 905.633C685.187 905.633 683.249 906.81 682.223 909.564C681.255 912.166 680.362 912.755 679.47 911.349C677.552 908.311 672.937 908.748 672.937 912.014C672.937 913.496 674.646 915.433 676.735 916.173C680.058 917.427 679.033 918.32 669.385 922.612C663.308 925.366 657.003 927.151 655.502 926.619C654.021 926.03 653.28 926.258 653.812 927.151C654.989 928.993 654.021 929.449 633.11 936.647C614.479 943.104 579.915 952.144 567.741 953.777C560.619 954.746 558.112 954.29 555.282 951.707C551.427 948.289 550.173 950.435 553.876 954.157C555.586 955.79 555.206 956.303 552.167 956.303C550.097 956.303 547.04 956.74 545.482 957.405C543.64 958.089 542.595 957.481 542.595 955.563C542.595 954.005 541.855 952.657 540.81 952.657C539.861 952.657 539.044 953.777 539.044 955.183C539.044 956.531 536.803 958.221 534.068 958.829C528.275 960.234 452.156 961.792 444.008 960.672ZM417.743 947.244C419.737 945.915 418.711 945.478 413.584 945.478C409.424 945.478 407.127 946.143 407.791 947.244C409.216 949.542 414.248 949.542 417.743 947.244ZM531.77 945.402C531.77 944.433 530.574 943.617 529.092 943.617C527.535 943.617 526.357 944.433 526.357 945.402C526.357 946.427 527.535 947.244 529.092 947.244C530.574 947.244 531.77 946.427 531.77 945.402ZM550.306 937.311C576.211 933.969 622.266 921.282 650.089 909.925C800.619 848.354 909.309 714.384 934.53 559.335C936.164 549.231 937.797 539.222 938.158 537.152C938.69 534.626 940.171 533.43 942.982 533.582C948.471 533.734 948.851 525.416 943.495 523.042C940.019 521.56 939.867 520.079 940.456 487.811C942.165 393.213 916.868 304.939 866.046 228.23C858.639 217.025 853.226 207.017 853.587 205.079C853.967 202.705 853.074 201.604 850.852 201.604C848.915 201.604 840.901 193.741 831.329 182.384C693.049 19.1678 459.069 -27.6472 270.252 70.142C135.467 139.937 45.9199 264.581 22.9208 414.218C16.5395 455.753 17.5082 519.034 25.2189 561.766C38.2663 634.486 68.0264 701.831 113.36 761.636C132.409 786.63 175.293 829.152 200.742 848.144C262.921 894.579 326.715 922.327 404.164 936.722C423.307 940.274 432.576 940.787 480.72 941.015C510.841 941.167 535.986 941.832 536.67 942.496C537.334 943.161 538.588 942.572 539.329 941.091C540.146 939.685 545.045 937.976 550.306 937.311ZM446.971 929.886C447.56 926.847 449.649 926.619 472.933 927.075C562.86 928.784 649.577 903.107 726.949 851.848C738.535 844.213 748.467 837.452 748.904 836.939C749.436 836.331 754.773 831.888 760.698 826.988C793.725 799.772 830.816 758.446 854.404 722.836C864.944 706.959 893.793 651.977 894.838 645.9C894.989 644.931 896.832 639.595 898.921 634.182C905.378 616.975 915.159 580.758 918.14 563.266C922.433 537.893 922.661 537 925.472 537C929.194 537 928.814 540.856 922.661 571.414C908.493 641.076 877.992 706.522 833.703 761.864C808.482 793.467 757.526 841.535 751.658 839.313C749.949 838.648 748.904 839.313 748.904 841.08C748.904 844.422 733.027 856.083 708.261 870.764C682.432 886.128 655.958 898.435 627.394 908.311C579.61 924.985 545.558 930.854 489.551 932.184C448.377 933.152 446.383 933.076 446.971 929.886ZM404.164 927.151C366.408 920.617 323.676 907.342 323.676 902.139C323.676 899.613 326.639 900.144 344.738 905.994C368.782 913.8 399.72 920.618 425.302 923.808C438.881 925.441 442.584 926.486 441.844 928.404C440.59 931.823 429.024 931.443 404.164 927.151ZM465.735 918.471C459.734 915.793 465.223 915.053 497.414 913.933C530.365 912.907 559.593 908.596 591.271 900.22C613.815 894.2 615.011 894.067 615.011 896.289C615.011 900.068 562.176 912.755 531.77 916.307C508.619 918.984 469.819 920.238 465.735 918.471ZM422.339 915.433C327.456 902.518 238.422 858.457 170.697 790.713C101.11 721.127 59.7082 637.296 44.7237 535.519C41.1722 511.247 41.6849 446.561 45.6162 420.599C52.1494 378.228 69.6597 317.473 75.3762 317.473C77.0665 317.473 77.5224 318.518 76.7058 320.588C63.6394 354.052 54.1437 391.295 49.3198 427.949C46.1291 451.974 46.5086 527.941 49.9272 539.071C51.2566 543.667 53.7828 545.3 68.3876 551.244C83.5241 557.398 85.5372 557.759 87.3794 555.176C89.3166 552.65 92.1274 553.391 113.417 561.842C126.56 567.046 137.765 570.901 138.278 570.388C138.79 569.856 137.537 561.253 135.542 551.32C112.239 437.217 145.836 321.861 226.78 238.087C280.052 182.821 343.029 149.433 420.478 135.417C442.224 131.41 493.71 130.004 517.526 132.758C587.34 140.621 650.982 167.912 704.615 212.733C728.07 232.39 738.154 243.652 736.749 248.78C735.856 252.274 736.218 252.711 739.636 251.818C743.339 250.85 746.017 252.863 746.321 256.794C746.321 257.839 747.347 258.428 748.467 258.2C749.588 257.972 754.545 263.328 759.445 269.994C801.739 327.349 824.872 389.433 829.696 458.659C830.816 475.429 830.74 475.942 827.036 475.942C824.738 475.942 823.181 474.745 823.181 473.112C823.181 471.631 822.289 461.394 821.244 450.493C813.742 370.366 780.222 298.254 724.5 242.171C669.537 186.904 611.897 156.783 533.612 142.463C506.834 137.563 447.123 138.095 419.604 143.432C364.774 154.048 322.935 171.768 277.906 203.37C256.236 218.583 215.726 259.168 200.742 280.61C192.518 292.328 188.359 296.848 186.422 296.108C184.428 295.367 183.972 295.879 184.865 298.12C185.529 300.039 182.263 308.205 176.109 319.847C166.253 338.478 152.749 371.923 148.153 388.921C146.805 393.897 144.431 399.518 142.874 401.455C140.804 403.905 140.727 404.494 142.513 403.45C144.583 402.196 144.811 403.089 143.766 408.14C120.026 519.186 151.781 632.701 229.97 716.531C342.877 837.68 532.283 859.483 668.796 766.973C760.85 704.661 814.711 609.986 822.364 497.156C823.542 480.177 823.922 478.752 827.246 479.056C830.816 479.284 830.892 480.177 829.771 500.194C828.594 520.307 825.764 541.141 821.32 561.405C820.123 566.742 819.459 571.262 819.839 571.566C820.123 571.87 831.709 567.634 845.421 562.146C868.344 553.011 870.509 552.422 872.579 555.252C874.649 558.138 876.074 557.835 890.165 551.833C898.617 548.206 906.479 544.274 907.676 543.078C908.853 541.9 910.715 531.208 911.835 519.262C913.013 507.316 914.722 496.719 915.615 495.826C918.197 493.072 917.609 513.925 914.418 536.849C900.402 638.417 855.22 727.128 781.703 797.474C770.498 808.147 760.641 816.903 759.748 816.903C756.178 816.903 758.267 813.2 765.446 806.514L772.948 799.544L765.389 760.744C761.305 739.378 756.994 717.272 755.893 711.479C754.848 705.762 753.443 701.166 752.836 701.242C752.171 701.318 746.834 707.111 740.832 714.233C719.751 739.226 675.235 774.988 647.943 788.719C640.309 792.574 637.783 793.163 635.694 791.454C633.624 789.745 633.186 790.049 633.186 792.859C633.186 800.133 589.182 817.055 549.869 824.917C428.796 849.094 308.235 810.673 223.38 720.69C209.801 706.37 206.155 703.331 205.414 705.99C204.825 707.776 200.666 728.762 196.146 752.653C191.626 776.545 187.543 797.094 187.087 798.291C186.137 800.949 201.198 814.092 225.07 831.375C291.105 879.139 363.654 906.07 447.199 913.799C453.941 914.464 458.993 915.718 458.404 916.61C457.056 918.832 444.294 918.471 422.339 915.433ZM184.865 789.308C185.396 786.117 189.613 764.01 194.209 740.271C201.938 700.198 202.299 696.722 199.697 692.715C198.14 690.341 196.582 688.404 196.222 688.404C194.892 688.404 91.0256 659.783 87.9109 658.511C86.2016 657.846 84.7962 658.074 84.7962 658.966C84.7962 663.923 91.4626 667.19 115.278 673.799C129.598 677.806 141.696 681.434 142.209 681.965C142.665 682.402 141.316 691.082 139.094 701.166C136.948 711.27 135.543 719.949 135.979 720.31C136.34 720.766 147.185 723.349 160.08 726.178L183.383 731.212L186.498 718.449C191.474 697.691 192.29 699.02 171.589 693.759L153.49 689.145L151.857 695.602C147.545 712.96 146.729 711.27 160.897 714.67C175.084 718.164 174.476 718.316 176.185 711.707C177.306 707.111 176.926 706.807 167.278 704.585C161.125 703.255 157.193 701.394 157.193 699.913C157.193 698.583 157.782 697.539 158.523 697.539C159.795 697.539 175.597 702.059 180.041 703.692C181.522 704.281 181.598 706.807 180.268 713.188C179.224 718.012 178.198 722.172 177.97 722.456C177.667 722.76 170.032 721.279 160.973 719.132C142.133 714.745 142.721 715.79 147.336 695.45C149.786 684.928 150.736 682.991 153.262 683.96C154.895 684.624 164.392 687.226 174.324 689.828C184.276 692.335 193.031 695.013 193.848 695.678C194.588 696.342 193.544 705.326 191.55 715.714C189.536 726.103 187.903 734.782 187.903 735.067C187.903 736.415 178.863 734.934 155.788 729.73C141.62 726.54 130.035 723.064 130.035 722.019C130.035 720.975 131.972 712.068 134.346 702.363C137.309 689.961 137.974 684.34 136.568 683.884C123.958 679.801 93.0959 672.242 92.2793 673.058C89.1646 676.173 96.5904 680.465 112.012 684.549C121.432 686.999 129.294 689.145 129.522 689.297C129.674 689.448 128.117 697.824 126.047 708.079C123.445 720.158 122.704 727.128 123.882 728.325C124.85 729.293 138.657 732.997 154.534 736.624C170.393 740.195 183.896 743.689 184.637 744.278C185.321 744.943 183.896 755.616 181.598 768.094C178.559 784.047 177.895 791.302 179.224 792.935C182.263 796.582 183.763 795.613 184.789 789.308H184.865ZM781.19 792.935C782.443 791.378 781.779 784.484 778.74 769.86C772.948 741.752 772.644 743.385 783.773 741.087C816.572 734.25 835.792 729.065 836.666 726.843C837.197 725.514 835.868 716.683 833.703 707.32C831.557 697.9 830.227 689.828 830.74 689.297C831.329 688.708 838.906 686.41 847.662 684.036C861.754 680.256 870.281 675.28 867.527 672.469C866.046 670.969 821.32 683.808 821.396 685.745C821.472 686.713 823.39 695.241 825.764 704.737C828.062 714.157 829.487 722.38 828.803 723.064C827.037 724.754 776.366 735.884 773.916 735.067C771.979 734.402 765.598 707.187 765.389 698.355C765.237 695.241 768.124 693.969 785.634 689.372C796.764 686.41 806.696 683.96 807.665 683.96C809.298 683.884 815.755 706.218 815.907 712.144C815.907 714.309 812.185 715.866 800.999 718.316C792.756 720.006 785.122 721.867 784.001 722.323C781.038 723.349 777.031 704.585 779.842 702.876C783.109 700.806 801.664 697.083 802.765 698.204C804.55 699.989 802.176 701.318 792.984 703.616C786.071 705.402 784.153 706.731 783.64 709.998C783.336 712.296 783.697 714.897 784.514 715.714C786.888 718.012 810.494 712.144 810.494 709.257C810.494 703.028 806.032 688.404 804.247 689.011C803.221 689.372 794.75 691.595 785.558 693.969C776.366 696.419 769.093 699.172 769.453 700.198C769.909 701.167 771.239 708.004 772.568 715.334C773.993 723.349 775.911 728.99 777.468 729.578C779.557 730.395 822.725 721.716 824.511 720.158C824.795 719.949 823.029 711.327 820.579 700.957C818.129 690.645 816.496 681.89 816.876 681.434C817.237 681.073 829.999 677.274 845.136 673.134C868.42 666.677 872.883 664.816 874.136 661.416C875.466 657.694 875.181 657.409 871.535 658.359C796.992 678.395 762.122 688.784 759.672 691.898C756.767 695.393 759.672 713.929 774.429 785.737C776.366 795.385 777.847 796.943 781.19 792.935ZM177.23 768.607C181.446 748.361 181.446 746.348 177.382 746.348C174.628 746.348 173.526 749.178 170.924 763.707C168.55 777.21 168.323 781.673 170.032 783.667C173.071 787.295 173.526 786.421 177.23 768.607ZM790.306 783.819C793.421 779.964 786.888 747.468 782.823 746.728C778.892 745.911 778.892 748.133 782.823 769.347C786.014 786.478 786.812 787.978 790.306 783.819ZM169.728 747.83C169.804 746.12 168.399 744.354 166.689 743.822C157.497 741.163 131.155 735.523 130.567 736.111C128.117 738.637 138.126 744.563 149.255 747.241L162.169 750.279L159.795 760.516C157.649 769.727 157.706 771.132 160.46 774.171C163.347 777.286 163.651 776.849 166.613 764.162C168.247 756.888 169.728 749.539 169.728 747.83ZM799.802 760.896C798.682 755.692 798.169 750.811 798.682 750.052C799.138 749.254 804.854 747.621 811.235 746.348C819.25 744.867 824.131 742.873 826.961 739.815C829.183 737.441 830.151 735.523 829.031 735.523C827.17 735.523 798.473 741.98 792.091 743.822C789.414 744.563 789.338 745.683 791.636 755.92C796.612 777.951 795.871 776.165 799.062 773.051C801.436 770.677 801.512 768.834 799.802 760.896ZM155.636 761.712C155.788 759.262 156.016 756.224 156.092 755.027C156.225 753.033 143.025 749.026 141.392 750.583C140.5 751.476 152.218 766.081 153.927 766.157C154.744 766.233 155.408 764.238 155.56 761.712H155.636ZM818.566 750.204C818.206 749.919 814.635 750.204 810.628 750.868C802.917 752.141 802.1 753.698 804.398 762.377C805.519 766.46 805.804 766.308 812.337 758.75C816.116 754.438 818.87 750.583 818.566 750.204ZM122.628 704.148C123.882 698.355 124.622 693.304 124.261 692.943C123.882 692.563 117.804 690.702 110.606 688.708C97.6159 685.156 97.6159 685.156 99.5531 689.372C100.807 692.126 103.864 694.196 108.08 695.165C114.538 696.722 114.614 696.874 114.614 705.705C114.614 715.638 116.912 721.507 119.134 717.195C119.798 715.79 121.356 709.921 122.628 704.148ZM844.756 714.005C845.953 711.783 845.953 708.516 844.756 704.509C843.788 701.166 843.047 698.28 843.047 698.052C843.047 697.824 846.313 696.646 850.397 695.45C856.702 693.532 862.855 687.739 860.785 685.669C859.968 684.852 839.419 690.037 836.608 691.746C834.291 693.152 838.907 717.423 841.414 717.423C842.23 717.423 843.731 715.866 844.756 714.005ZM111.119 701.242C110.455 700.198 108.669 699.324 107.264 699.324C105.118 699.324 105.042 699.913 106.903 702.876C108.156 704.946 109.79 705.762 110.758 704.813C111.651 703.996 111.803 702.363 111.119 701.242ZM852.106 702.952C853.663 700.065 853.511 699.324 851.289 699.324C849.656 699.324 848.478 700.881 848.478 702.952C848.478 704.889 848.839 706.522 849.352 706.522C849.808 706.522 851.061 704.889 852.106 702.952ZM191.55 681.358C191.55 678.395 182.206 672.166 177.819 672.166C172.254 672.166 171.437 670.305 173.584 662.442C175.008 657.257 174.856 655.035 172.767 652.053C170.184 648.35 170.032 648.426 168.095 655.168C167.069 659.043 165.645 665.196 165.056 668.823C163.955 675.508 164.03 675.508 171.893 677.578C176.185 678.699 181.826 680.332 184.276 681.149C190.429 683.295 191.55 683.295 191.55 681.358ZM784.514 678.243C797.58 674.901 797.504 675.129 792.528 657.694C789.186 645.976 789.186 645.976 786.888 650.876C785.046 654.807 785.045 657.409 786.603 662.594C787.704 666.221 788.445 669.412 788.236 669.564C788.008 669.716 784.305 670.969 779.918 672.318C775.398 673.799 770.726 676.762 769.016 679.288C766.263 683.523 766.339 683.656 769.605 682.402C771.466 681.662 778.209 679.801 784.514 678.243ZM159.643 670.836C165.512 650.724 166.404 645.824 165.36 640.108C163.726 631.504 162.606 633.289 156.908 653.687C153.338 666.601 152.597 671.577 154.155 672.527C157.421 674.616 158.599 674.236 159.643 670.836ZM806.848 669.868C806.848 668.823 804.702 659.84 802.024 649.983C797.352 632.549 797.124 632.112 794.693 636.784C792.528 640.924 792.68 643.222 795.947 655.472C798.017 663.183 800.106 670.456 800.543 671.653C801.436 674.236 806.848 672.678 806.848 669.868ZM149.786 663.562C150.812 659.84 153.186 651.237 155.123 644.419C157.573 635.663 157.934 631.884 156.529 631.352C135.903 624.173 123.958 621.42 122.628 623.566C120.539 626.832 121.812 627.649 136.341 632.321C143.33 634.619 149.179 636.632 149.483 636.784C149.635 636.993 147.925 643.982 145.475 652.281C143.025 660.6 141.468 668.082 141.981 668.899C144.222 672.47 148.153 669.792 149.786 663.562ZM816.42 669.336C818.642 668.538 818.357 665.937 814.635 652.87C812.261 644.343 810.628 636.993 811.007 636.632C811.368 636.252 817.389 634.03 824.207 631.656C832.962 628.769 836.742 626.547 836.742 624.458C836.742 622.825 835.925 621.495 834.899 621.571C833.114 621.647 802.765 630.764 801.815 631.504C801.359 631.884 809.07 661.34 811.368 668.083C812.261 670.608 812.717 670.761 816.42 669.336ZM181.313 665.784C180.192 662.974 177.078 662.081 177.078 664.588C177.078 666.525 179.015 668.538 180.933 668.538C181.75 668.538 181.902 667.342 181.389 665.784H181.313ZM781.475 666.753C783.336 665.632 783.64 664.455 782.368 663.183C781.114 662.005 779.766 662.518 778.285 664.968C775.911 668.823 777.183 669.488 781.475 666.753ZM139.835 657.029C144.811 639.899 144.811 639.822 133.681 635.891C121.356 631.504 119.134 631.428 119.134 635.739C119.134 638.189 121.356 639.747 127.3 641.38C135.979 643.83 136.568 644.931 133.454 653.839C131.972 657.922 130.567 659.327 128.478 658.663C126.845 658.15 116.912 655.244 106.447 652.129C95.9827 649.015 87.2463 646.28 87.0184 646.052C86.7145 645.748 87.7591 642.557 89.3164 638.93C90.7978 635.302 91.6906 632.321 91.2348 632.321C90.874 632.321 89.3164 631.884 87.835 631.295C84.7963 630.175 78.776 645.084 80.4853 649.604C81.074 651.028 86.9423 653.763 93.5514 655.7C100.142 657.618 110.91 660.808 117.349 662.822C135.828 668.462 136.568 668.234 139.835 657.029ZM852.922 659.175C867.318 655.035 879.473 650.648 880.005 649.318C881.638 644.931 875.466 630.251 872.275 630.991C869.161 631.58 868.952 633.669 871.022 641.665C872.218 646.204 871.838 646.641 862.191 649.394C840.825 655.624 828.746 658.434 827.701 657.409C827.112 656.801 826.144 653.402 825.555 649.907C824.586 643.602 824.739 643.374 832.145 641.152C839.267 639.082 843.047 635.359 840.616 632.928C838.906 631.219 815.907 638.113 815.907 640.411C815.907 642.273 819.914 657.409 822.288 664.455C823.314 667.646 823.846 667.57 852.922 659.175ZM129.978 650.572C129.978 648.35 127.965 646.489 124.337 645.159C116.551 642.481 115.506 642.633 115.506 646.793C115.506 649.243 117.349 650.876 121.432 652.053C129.826 654.427 129.978 654.427 129.978 650.572ZM855.221 646.052C855.733 645.596 851.137 630.402 845.06 612.227C839.039 594.052 834.235 579.067 834.444 578.84C836.818 576.978 866.653 566.001 867.394 566.818C869.768 569.116 867.831 570.673 859.304 573.503C854.328 575.193 850.321 577.51 850.321 578.612C850.321 579.808 853.15 588.772 856.626 598.572C860.12 608.372 862.931 616.748 862.931 617.108C862.931 618.001 886.462 609.474 887.867 608.068C888.76 607.1 871.325 561.101 869.027 558.29C868.344 557.474 824.948 574.32 824.948 575.421C824.948 575.725 830.151 591.07 836.532 609.474C842.914 627.953 847.738 643.374 847.206 643.906C846.693 644.342 845.212 644.343 843.864 643.83C842.534 643.298 838.603 643.83 835.184 644.932C830.436 646.489 829.183 647.761 829.847 650.344C830.664 653.611 831.044 653.611 842.534 650.344C849.067 648.426 854.784 646.565 855.221 646.052ZM863.083 595.819C859.076 583.36 859.076 582.695 862.191 580.473C865.913 577.719 871.99 577.206 871.99 579.656C871.99 580.549 869.977 581.803 867.603 582.391C863.159 583.512 863.159 583.512 866.046 592.039C869.692 603.092 870.718 604.213 875.618 601.535C878.144 600.206 880.29 600.053 881.334 601.174C882.455 602.275 880.442 603.985 875.694 605.846C871.611 607.479 868.059 608.809 867.831 608.809C867.527 608.809 865.381 602.94 863.083 595.819ZM123.73 607.916C130.035 590.045 135.011 575.269 134.859 575.193C132.789 573.788 91.4624 558.062 91.1015 558.518C89.3163 560.284 72.0339 605.922 72.5467 607.479C73.0595 609.037 95.9255 618.381 96.6661 617.336C96.7991 617.108 99.553 609.246 102.744 599.75C105.934 590.33 108.973 581.499 109.486 580.245C110.094 578.84 106.979 576.542 101.186 574.168C92.659 570.597 89.0884 567.046 94.2922 567.255C100.142 567.483 125.439 579.504 124.926 581.878C124.622 583.208 119.798 598.06 114.101 614.735C105.421 640.488 104.225 645.463 106.523 646.793C109.638 648.787 108.612 651.161 123.73 607.916ZM83.163 605.846C78.9278 603.985 77.5985 602.58 78.852 601.307C80.1814 599.978 81.9665 600.054 84.7203 601.535C89.3923 604.061 88.8036 604.498 92.583 594.717C96.4383 584.917 96.3622 583.949 91.9941 582.543C86.3535 580.758 87.6071 577.434 93.3237 578.915C96.0585 579.58 98.9642 580.701 99.7049 581.441C101.338 583.075 93.3237 607.555 90.9497 608.068C90.0571 608.296 86.4865 607.327 83.163 605.846ZM101.262 640.05C102.307 637.296 103.56 632.928 104.073 630.402C105.042 625.503 104.681 625.351 70.7615 612.892C69.3561 612.36 68.4635 613.557 68.4635 615.703C68.4635 618.533 70.7615 620.299 77.9594 622.977C99.7811 631.219 97.8437 629.662 94.881 636.708C93.4756 640.107 92.8108 643.374 93.3996 643.982C95.8495 646.413 99.477 644.646 101.262 640.05ZM865.096 639.519C864.716 637.069 864.28 633.878 864.128 632.397C863.9 630.688 868.724 627.953 877.916 624.382C888.305 620.451 891.951 618.229 891.951 615.779C891.951 613.937 891.419 612.436 890.83 612.436C889.71 612.436 855.145 625.123 854.404 625.806C854.176 626.015 855.372 630.479 857.082 635.663C859.152 642.349 860.861 644.931 862.855 644.57C864.717 644.115 865.457 642.425 865.02 639.519H865.096ZM80.0483 633.062C80.9409 630.251 80.1244 628.845 76.6299 627.288C71.5021 624.914 71.2173 625.731 74.104 634.03C76.1931 640.051 78.0351 639.747 80.0483 633.062ZM888.304 625.94C888.304 624.838 880.973 627.421 880.081 628.921C879.473 629.738 880.005 632.245 881.183 634.41C883.272 638.265 883.348 638.265 885.779 632.397C887.203 629.13 888.304 626.244 888.304 625.94ZM158.979 624.382C158.979 620.831 155.636 618.742 145.779 616.083C135.315 613.253 134.574 612.303 137.309 604.061C139.094 598.648 140.139 597.756 143.766 598.42C146.216 598.933 148.077 598.42 148.077 597.243C148.001 593.235 144.963 590.557 139.835 590.197C135.011 589.817 134.346 590.634 130.643 600.642C124.698 616.748 124.547 616.52 140.424 621.856C156.966 627.421 158.979 627.725 158.979 624.382ZM816.8 622.16C824.795 619.558 831.917 616.899 832.677 616.159C833.418 615.494 831.917 608.733 829.334 601.174C824.738 587.367 824.739 587.367 819.383 589.228C814.787 590.861 810.494 595.381 810.494 598.724C810.494 599.237 812.717 599.237 815.452 598.648C819.915 597.755 820.807 598.42 822.725 603.833C823.922 607.176 824.948 610.442 824.948 611.031C824.948 611.62 819.687 613.937 813.154 616.083C806.696 618.229 801.436 620.242 801.436 620.603C801.436 620.907 800.923 622.464 800.315 624.021C798.834 627.801 799.878 627.725 816.8 622.16ZM114.101 602.066C120.482 583.511 120.691 580.017 115.278 579.884C114.69 579.884 111.119 588.564 107.492 599.161C102.231 614.374 101.338 618.742 103.181 619.938C104.529 620.755 106.01 621.419 106.447 621.419C106.979 621.419 110.378 612.74 114.101 602.066ZM856.93 620.09C860.272 617.925 846.693 579.884 842.61 579.884C838.451 579.884 838.375 579.428 845.952 602.066C852.41 621.571 853.074 622.54 856.93 620.09ZM152.521 610.138C151.04 605.466 148.514 603.472 144.07 603.396C138.277 603.396 140.348 609.929 146.729 611.999C149.996 613.044 152.901 613.937 153.186 614.07C153.49 614.146 153.186 612.436 152.521 610.138ZM813.078 611.487C820.276 608.429 821.757 601.991 814.939 603.016C811.311 603.624 805.063 609.702 805.063 612.664C805.063 614.734 805.291 614.734 813.078 611.487ZM74.4077 588.411C81.5297 569.704 83.9799 561.766 82.6315 561.766C82.2706 561.766 75.2245 558.955 67.058 555.461C53.042 549.611 52.2252 549.383 52.2252 552.878C52.2252 555.536 55.1122 557.758 63.7915 561.709L75.3762 566.894L69.2042 581.954C62.9749 597.452 62.2339 600.946 64.1711 605.998C65.8044 610.29 66.5451 608.961 74.4077 588.411ZM896.015 602.066C896.699 598.8 894.838 591.754 890.83 581.802C887.488 573.427 884.905 566.457 885.114 566.305C885.418 566.153 890.469 564.007 896.471 561.481C904.561 557.986 907.448 555.84 907.885 552.802C908.189 550.504 907.828 549.022 906.859 549.307C888.836 556.581 875.618 562.659 876.073 563.627C876.282 564.216 880.214 574.244 884.677 585.886C889.121 597.452 893.356 606.948 893.945 606.948C894.61 606.948 895.502 604.801 896.015 602.066ZM65.8803 578.84C70.0205 568.679 70.0207 568.679 63.8674 566.153C60.4488 564.748 56.8974 563.551 55.8529 563.551C52.8901 563.551 53.7066 568.964 56.8973 570.236C58.9674 571.053 59.4991 572.762 58.6824 576.693C57.6379 582.182 59.1193 591.602 60.8286 589.969C61.3414 589.437 63.6392 584.404 65.8803 578.84ZM901.371 582.771C901.807 580.397 901.447 577.054 900.554 575.497C899.433 573.503 899.738 572.23 901.58 571.566C904.562 570.445 906.935 563.551 904.333 563.551C903.441 563.551 899.813 564.748 896.319 566.229C890.014 568.831 890.014 568.831 892.977 575.725C894.61 579.504 896.319 583.949 896.832 585.734C898.028 589.817 900.326 588.336 901.371 582.771ZM821.833 579.656C821.016 576.75 817.674 572.819 817.674 574.756C817.674 575.136 816.933 577.947 816.059 581.138C814.502 586.626 814.559 586.778 818.566 584.993C821.396 583.664 822.422 582.03 821.757 579.656H821.833ZM143.253 582.106C141.164 576.238 140.215 575.573 138.942 579.067C137.461 583.284 138.353 585.297 141.848 585.297C143.462 585.297 143.994 584.176 143.253 582.106ZM173.45 321.044C173.45 320.075 172.634 319.259 171.665 319.259C170.621 319.259 169.804 320.075 169.804 321.044C169.804 322.069 170.621 322.886 171.665 322.886C172.634 322.886 173.45 322.069 173.45 321.044ZM466.628 906.374C432.291 891.465 440.362 841.763 477.605 839.009C507.574 836.787 525.825 870.175 508.03 894.731C498.686 907.703 481.1 912.603 466.628 906.374ZM493.045 902.139C510.176 894.352 516.329 870.536 505.067 855.114C503.206 852.513 498.078 848.505 493.634 846.207C467.748 832.704 438.653 861.192 451.947 887.154C460.246 903.335 476.94 909.488 493.045 902.139ZM466.932 893.022C448.756 881.589 455.271 853.766 476.637 851.848C482.809 851.259 486.74 851.848 489.19 853.709C492.59 856.216 492.381 856.368 485.999 856.368C471.888 856.368 463 869.871 469.23 881.969C473.161 889.528 482.505 893.687 489.627 891.009C494.299 889.243 494.451 889.319 491.697 892.13C486.892 896.954 474.054 897.466 467.008 893.022H466.932ZM491.925 879.823C491.925 878.189 490.52 876.024 488.81 875.075C485.772 873.366 485.772 873.214 488.81 872.017C490.52 871.353 491.925 869.719 491.925 868.314C491.925 866.909 492.742 865.788 493.786 865.788C494.755 865.788 495.571 866.68 495.571 867.801C495.571 868.903 497.053 869.435 498.895 868.979C501.649 868.238 502.238 869.054 502.086 873.29C502.01 876.689 500.984 878.475 499.123 878.475C497.566 878.475 495.344 879.443 494.147 880.621C492.438 882.33 491.925 882.121 491.925 879.823ZM291.998 891.978C149.786 826.551 51.6366 693.683 31.5242 539.298C29.9668 527.429 29.0745 517.344 29.5113 516.888C32.0372 514.286 35.8925 518.901 35.8925 524.466C35.8925 535.215 44.5147 581.727 50.2883 602.2C70.8375 674.692 109.866 740.86 164.315 795.309C205.338 836.408 247.044 865.047 301.114 889.376C312.167 894.352 319.08 898.435 318.624 899.765C317.523 903.335 314.921 902.594 291.998 891.978ZM619.683 895.168C617.233 892.719 619.607 891.313 635.181 885.673C664.789 875.132 708.622 850.879 737.927 828.849C751.278 818.84 754.393 817.207 754.393 820.397C754.393 822.904 721.309 846.796 702.317 858.001C674.437 874.391 622.342 897.846 619.683 895.168ZM571.748 880.697C570.779 876.993 568.937 869.207 567.665 863.49C565.367 853.405 565.158 853.025 560.334 854.146C556.174 855.039 555.282 854.583 555.282 851.696C555.282 848.809 557.58 847.537 567 845.239C581.396 841.611 580.655 841.536 580.655 845.904C580.655 847.917 579.478 849.55 578.053 849.55C573.381 849.55 573.153 852.816 576.952 868.618C578.946 877.221 580.218 884.932 579.611 885.9C577.313 889.604 573.457 887.078 571.748 880.697ZM371.156 883.678C367.889 882.786 365.287 881.589 365.287 881.076C365.287 880.564 367.433 871.581 370.035 861.04C374.859 841.896 374.859 841.896 381.981 842.789C394.592 844.498 400.46 854.81 392.597 861.572C389.768 863.946 389.483 865.351 391.04 868.618C393.699 874.467 391.477 881.076 386.064 883.602C380.728 886.052 379.246 886.052 371.156 883.678ZM383.102 875.36C385.172 871.657 382.646 865.788 379.018 865.788C376.72 865.788 374.422 870.992 374.346 876.177C374.346 879.595 381.088 878.93 383.102 875.36ZM386.805 857.849C389.559 854.583 387.318 849.17 383.614 849.911C379.759 850.576 378.43 860.375 382.133 860.375C383.538 860.375 385.685 859.255 386.805 857.849ZM596.229 870.764C593.114 834.85 593.038 837.3 597.425 836.198C602.097 834.926 602.61 835.515 615.296 856.52C622.494 868.39 623.899 872.017 621.981 873.214C618.943 875.132 616.854 875.284 616.778 873.499C616.702 872.758 615.6 870.612 614.195 868.827C610.111 863.414 604.167 866.453 604.167 873.879C604.167 879.006 601.793 882.121 597.786 882.121C597.501 882.121 596.76 876.993 596.229 870.764ZM607.737 858.818C607.509 855.855 600.691 845.315 600.615 847.917C600.388 855.19 602.838 861.857 605.288 860.964C606.617 860.451 607.737 859.483 607.737 858.818ZM337.692 873.366C332.944 871.808 329.089 869.511 329.089 868.086C329.089 866.757 334.957 860.071 342.079 853.329C355.126 840.947 355.127 840.947 348.442 838.782C342.364 836.788 340.066 833.673 342.82 830.995C344.51 829.21 365.287 837.015 365.287 839.389C365.287 840.643 359.495 847.1 352.449 853.842C345.327 860.527 339.838 866.32 340.218 866.605C340.503 866.909 343.257 867.877 346.295 868.827C352.373 870.84 354.975 876.841 349.562 876.404C347.777 876.252 342.364 874.923 337.692 873.366ZM634.953 863.49C634.953 862.237 637.403 860.223 640.518 859.046C649.425 855.703 647.203 849.55 636.073 846.72C626.141 844.27 624.127 842.048 624.127 833.673C624.051 828.925 625.248 827.063 629.92 824.177C633.186 822.164 636.89 820.531 638.068 820.531C641.942 820.531 640.593 826.836 636.301 828.697C629.388 831.736 631.098 837.3 639.701 839.465C643.784 840.491 648.456 842.504 650.089 843.833C654.249 847.328 653.869 857.697 649.425 862.16C645.341 866.244 634.953 867.136 634.953 863.49ZM300.525 857.564C294.732 853.481 295.34 844.954 302.747 828.773C308.976 814.966 310.021 814.016 314.18 816.675C315.965 817.796 314.997 821.271 309.945 831.888C302.975 846.644 302.519 852.209 308.312 852.209C310.99 852.209 313.649 848.581 319.137 837.3C326.791 821.499 326.791 821.499 330.722 824.025C332.792 825.354 332.356 827.728 327.968 837.832C319.213 858.229 310.458 864.534 300.525 857.564ZM443.116 818.612C290.06 802.355 166.177 682.478 143.69 528.986C140.063 504.05 140.063 457.463 143.69 431.349C150.66 381.21 173.223 325.184 203.629 282.604C216.467 264.657 247.253 232.314 265.732 217.405C380.5 124.744 546.014 117.242 667.011 199.078C694.378 217.614 727.766 246.843 721.537 246.843C720.055 246.843 716.865 244.697 714.415 242.095C707.369 234.384 675.102 209.087 658.845 198.413C563.657 136.234 432.651 129.643 329.089 181.719C187.542 252.863 115.943 411.027 155.332 565.412C175.901 645.9 232.572 723.197 302.006 765.416C307.951 768.986 312.775 772.842 312.775 773.943C312.775 774.988 313.288 775.425 313.8 774.912C314.389 774.323 323.961 778.179 335.09 783.439C360.388 795.461 387.925 804.805 411.665 809.553C436.659 814.453 475.155 817.568 493.331 816.01C502.618 815.27 508.258 815.498 508.258 816.523C508.258 817.492 506.397 818.84 504.175 819.429C498.61 820.91 459.734 820.397 443.116 818.612ZM511.885 817.207C511.885 816.162 514.924 814.833 518.628 814.225C569.526 806.439 602.761 795.765 639.492 775.653C694.606 745.304 749.512 689.012 776.803 634.619C780.45 627.364 784.001 621.495 784.742 621.495C785.558 621.495 786.223 620.09 786.375 618.305C786.451 616.596 789.49 607.023 793.193 597.167C817.313 531.645 820.731 462.362 803.069 395.454C790.306 347.006 769.985 307.692 736.37 266.29C728.963 257.231 724.651 250.489 726.133 250.489C729.399 250.489 745.656 269.766 759.596 290.315C816.42 373.557 832.962 478.012 804.778 576.01C771.162 692.867 669.746 787.826 552.243 812.383C525.009 818.099 511.885 819.657 511.885 817.207ZM241.612 799.981C240.131 793.011 240.131 793.011 236.048 796.791C229.818 802.659 228.185 801.406 234.053 795.233C239.238 789.821 239.238 789.82 232.116 789.535C225.45 789.232 225.374 789.156 230.863 788.491C237.32 787.674 238.213 786.041 234.053 782.547C229.609 778.843 231.015 776.849 235.839 779.964C240.663 783.154 240.947 782.926 242.809 774.399C243.245 772.177 243.701 773.051 243.853 776.697C244.062 783.439 244.29 783.591 250.899 779.432C255.799 776.393 255.799 776.393 251.716 780.913C246.36 786.934 246.512 787.598 253.482 788.491L259.427 789.232L253.482 789.535C246.588 789.82 246.303 790.789 251.716 796.733C255.799 801.177 255.799 801.177 251.792 799.107C249.627 797.911 247.177 795.974 246.36 794.72C245.487 793.315 244.594 795.157 243.986 799.772L243.036 806.97L241.612 799.981ZM714.567 798.5C714.567 792.783 714.567 792.783 710.046 797.018C707.597 799.316 705.147 800.874 704.615 800.361C704.102 799.848 705.299 797.911 707.293 796.126C712.421 791.53 711.813 789.82 705.071 789.611C699.202 789.459 699.202 789.46 705.298 787.674C711.376 785.965 711.376 785.965 707.217 781.521C704.919 779.147 703.95 777.134 704.995 777.134C706.039 777.134 707.881 778.33 709.154 779.812C712.477 783.819 713.826 783.23 715.896 776.697C717.833 770.753 717.834 770.753 717.967 777.875C718.118 784.997 718.118 784.996 722.714 780.78C725.164 778.406 727.614 776.925 728.146 777.438C728.659 777.95 727.405 779.812 725.392 781.673C720.416 786.193 720.872 787.598 727.69 788.491L733.558 789.232L727.69 789.535C720.72 789.82 720.492 790.789 725.848 796.733C729.988 801.329 727.177 800.589 721.309 795.537C718.422 793.087 718.194 793.315 718.194 798.576C718.194 801.69 717.377 804.292 716.352 804.292C715.383 804.292 714.567 801.69 714.567 798.5ZM443.116 769.727C271.296 747.981 156.529 580.758 199.033 414.294C221.519 325.925 288.427 251.591 375.904 217.766C444.217 191.215 527.611 193.058 593.266 222.514C601.204 226.16 604.167 228.383 604.167 231.041C604.167 233.207 603.274 234.156 601.869 233.567C600.692 233.055 593.93 230.149 586.96 227.186C534.22 204.567 468.033 199.895 408.836 214.5C348.897 229.351 291.542 267.772 252.893 319.107C228.793 351.089 207.56 398.778 201.558 434.615C200.818 438.851 199.697 442.041 199.033 441.585C196.962 440.332 196.734 494.478 198.823 513.546C208.376 603.092 258.762 680.332 338.281 727.356C347.188 732.636 361.204 739.606 369.371 742.796C377.613 746.063 386.957 750.279 390.223 752.216C393.49 754.135 397.346 755.331 398.751 754.742C400.232 754.21 402.017 754.742 402.758 755.92C403.575 757.116 407.43 758.142 411.437 758.218C415.445 758.294 427.011 759.699 437.172 761.409C447.408 763.118 465.583 764.447 477.605 764.447C493.786 764.447 500.092 765.112 501.934 766.973C503.358 768.303 503.947 769.936 503.358 770.544C501.801 772.177 457.284 771.493 443.116 769.727ZM505.732 767.049C504.915 764.827 505.428 764.447 508.467 765.416C510.632 766.081 512.854 765.872 513.443 764.903C514.032 763.934 523.166 761.408 533.555 759.338C613.815 743.157 683.781 692.943 724.29 622.388C744.84 586.626 757.735 542.034 760.926 496.111C761.895 482.247 762.711 478.543 764.857 478.543C767.155 478.543 767.459 482.019 766.491 503.385C765.389 529.803 761.23 550.428 751.069 579.884C720.055 669.944 641.258 741.011 547.192 763.631C535.626 766.461 524.933 768.018 521.457 767.429C518.191 766.897 515.437 767.277 515.437 768.17C515.437 771.056 506.91 770.088 505.732 767.049ZM463 732.693C463 732.18 465.887 726.027 469.457 718.981C473.009 711.935 475.611 705.914 475.307 705.629C475.022 705.249 469.154 704.813 462.336 704.585C450.238 704.148 449.706 704.281 445.11 709.846C437.172 719.57 433.392 717.196 438.805 705.914C441.483 700.198 441.559 699.02 438.881 691.385C436.222 683.523 436.279 682.991 439.26 682.991C440.97 682.991 444.217 685.441 446.458 688.404C450.238 693.608 451.13 693.893 463.076 693.893C470.483 693.893 475.687 693.076 475.687 692.05C475.687 691.006 472.781 684.473 469.306 677.578C461.956 662.898 461.956 663.107 466.324 663.107C468.261 663.107 475.383 669.336 482.809 677.578C495.856 692.05 495.856 692.05 505.58 692.05C516.861 692.05 524.116 694.424 525.75 698.583C527.459 703.027 523.015 704.661 508.847 704.737C495.856 704.737 495.856 704.737 483.55 719.057C475.155 728.761 469.818 733.434 467.083 733.51C464.842 733.586 463 733.301 463 732.693ZM235.307 544.122C235.839 541.369 238.422 540.856 253.482 540.4L271.145 539.887L271.372 523.269C271.448 514.077 272.189 491.515 273.006 473.055C273.822 454.652 274.487 434.311 274.487 427.949C274.563 421.568 275.076 411.179 275.741 404.874C277.013 393.441 277.013 393.441 284.724 393.441C292.358 393.441 292.358 393.441 293.479 401.152C293.992 405.387 295.397 431.652 296.518 459.551C297.714 487.356 299.271 517.116 300.088 525.567C301.038 535.519 301.19 527.353 300.525 502.492L299.557 463.996H327.228V503.841H314.617C306.678 503.841 301.93 504.581 301.93 505.835C301.93 507.107 306.318 507.544 314.541 507.164L327.152 506.576L327.759 523.782C328.044 533.221 328.5 523.194 328.709 501.6L329.089 462.211L320.485 461.85C315.737 461.622 309.204 461.622 306.014 461.774C301.854 462.001 300.088 461.318 300.088 459.476C300.088 457.178 307.647 456.798 352.601 456.798C385.609 456.798 405.056 457.462 405.056 458.583C405.056 459.628 391.401 460.501 370.263 460.805L335.394 461.318L335.242 493.889C335.166 511.779 335.394 522.149 335.755 516.964L336.514 507.468H350.816C359.21 507.468 365.211 506.728 365.211 505.683C365.211 504.582 359.571 503.841 351.86 503.841C338.585 503.841 338.585 503.841 337.388 498.2C336.8 495.085 336.287 486.178 336.287 478.391C336.287 464.3 336.287 464.3 345.783 463.255C351.043 462.666 358.754 462.438 362.989 462.666L370.624 463.103L371.08 502.055L371.517 540.932L372.048 503.024C372.333 482.095 373.302 464.299 374.194 463.407C375.087 462.514 382.285 462.362 390.433 463.103L405.056 464.433V540.039H446.668V501.979C446.668 471.194 447.275 462.799 449.497 458.507C452.612 452.354 462.469 444.7 473.674 439.667C481.252 436.248 481.327 436.249 489.266 440.104C500.908 445.821 511.506 456.057 513.595 463.768C514.62 467.414 515.437 486.026 515.437 505.17V540.039H555.282V464.224L562.993 463.103C567.228 462.514 574.73 462.21 579.687 462.514L588.746 463.103L589.714 502.055L590.664 540.932L591.405 464.224L599.571 463.027C604.091 462.363 611.365 462.363 615.885 463.027L624.052 464.224V503.841H609.522C601.052 503.841 595.051 504.582 595.051 505.683C595.051 506.728 601.052 507.468 609.447 507.468H623.9L624.507 524.238C624.792 533.43 625.248 522.832 625.457 500.65L625.837 460.425H590.531C568.196 460.425 555.282 459.76 555.282 458.583C555.282 457.462 574.274 456.798 608.63 456.798C643.043 456.798 662.035 457.462 662.035 458.583C662.035 459.628 659.3 460.425 655.958 460.425C652.615 460.425 646.082 460.957 641.486 461.546L633.11 462.742L633.472 501.828C633.624 523.345 634.079 533.43 634.44 524.238L635.029 507.468H660.193V524.086C660.193 558.139 661.807 537.153 663.669 477.347C664.789 443.371 666.195 410.572 666.783 404.494C667.98 393.441 667.98 393.441 675.842 393.441C682.508 393.441 683.781 394.03 684.597 397.524C685.262 400.791 691.055 525.415 690.979 536.773C690.979 539.45 693.277 539.963 706.856 540.4C719.466 540.856 722.657 541.521 722.657 543.667C722.657 546.041 694.169 546.421 478.65 546.857C246.892 547.313 234.718 547.161 235.25 544.122H235.307ZM304.969 526.023C304.608 523.269 304.229 525.492 304.229 530.98C304.229 536.469 304.608 538.71 304.969 535.956C305.425 533.221 305.425 528.758 304.969 526.023ZM324.702 519.11C324.265 517.781 321.739 515.331 319.213 513.698C314.921 510.887 314.256 510.887 310.021 513.622C307.571 515.255 305.501 517.401 305.501 518.37C305.501 519.338 307.134 518.521 309.128 516.527C313.44 512.216 314.617 512.064 319.08 515.331C321.511 517.192 322.708 521.048 323.524 529.347C324.569 540.932 324.569 540.932 325.081 531.208C325.385 525.871 325.234 520.383 324.702 519.11ZM345.783 516.964C353.797 508.437 361.869 514.59 363.578 530.695L364.698 540.932L365.002 531.056C365.211 522.681 364.547 520.535 360.388 516.147C354.538 510.07 349.714 509.69 344.073 515.027C340.503 518.37 339.99 520.534 340.218 529.954C340.579 540.932 340.579 540.932 341.262 530.98C341.775 524.01 343.105 519.775 345.783 516.964ZM384.355 515.407C388.438 512.729 389.103 512.729 393.338 515.483C397.269 518.009 397.858 519.851 398.162 529.651L398.447 540.932L399.112 530.315C399.72 521.275 399.188 519.034 395.788 515.407C390.736 510.07 387.47 509.994 382.057 515.027C378.487 518.37 377.974 520.534 378.278 529.954L378.563 540.932L379.246 529.651C379.759 520.003 380.5 517.857 384.279 515.407H384.355ZM566.848 516.66C574.35 508.437 581.092 514.001 582.592 529.499L583.694 540.932L583.922 529.803C584.225 519.718 583.694 518.217 579.477 514.818C573.305 509.994 570.57 510.146 565.158 515.559C561.359 519.338 560.695 521.56 560.998 530.467L561.226 540.932L562.328 530.695C562.993 524.466 564.778 519.034 566.848 516.66ZM603.217 515.786C611.821 509.253 618.942 515.331 620.576 530.695L621.678 540.932L621.981 530.467C622.209 521.56 621.602 519.338 617.822 515.559C612.334 510.07 606.541 509.842 601.052 515.027C597.501 518.37 596.969 520.591 597.197 529.954L597.425 540.932L598.527 529.727C599.343 521.408 600.539 517.781 603.217 515.786ZM643.195 515.331C647.354 512.596 647.943 512.653 651.21 515.635C653.945 518.16 654.913 521.484 655.141 529.954C655.445 540.704 655.445 540.704 656.186 532.025C657.059 519.927 655.578 514.97 650.241 512.52C646.386 510.811 645.056 511.096 641.201 514.742C637.251 518.445 636.738 520.306 637.042 529.954L637.403 540.932L638.01 529.651C638.599 519.927 639.34 517.857 643.119 515.331H643.195ZM401.429 505.683C401.429 504.657 396.377 503.841 389.768 503.841C383.387 503.841 377.613 504.657 377.005 505.683C376.265 506.804 380.652 507.468 388.666 507.468C395.997 507.468 401.429 506.728 401.429 505.683ZM583.333 505.683C578.205 503.461 560.695 503.461 560.695 505.683C560.695 506.728 566.183 507.392 573.837 507.316C582.801 507.24 585.783 506.728 583.333 505.683ZM309.945 472.01C314.541 468.668 315.073 468.744 319.593 473.568C322.48 476.606 323.6 480.538 324.037 489.369L324.702 501.163L325.081 488.115C325.385 476.093 325.081 474.897 320.637 471.421C314.541 466.673 313.516 466.673 308.16 472.086C304.229 476.017 303.715 477.936 304.019 488.856L304.229 501.163L305.349 487.887C306.166 477.651 307.21 474.004 309.869 472.01H309.945ZM346.22 472.295C351.043 468.668 353.133 468.82 358.241 472.903C361.736 475.714 362.762 478.676 363.578 488.78L364.698 501.163L364.926 489.445C365.211 479.056 364.699 477.271 360.388 472.751C354.538 466.674 351.043 466.37 344.662 471.421C340.218 474.897 339.914 476.093 340.218 488.115L340.446 501.163L341.548 488.115C342.364 477.936 343.409 474.46 346.22 472.295ZM565.898 474.232C567.304 472.599 570.191 471.27 572.413 471.27C579.098 471.27 582.137 476.606 582.877 489.369L583.542 501.163L583.922 488.115C584.225 475.562 584.074 474.973 578.87 471.27C573.229 467.262 571.596 467.547 564.778 473.644C561.283 476.834 560.771 478.98 560.998 489.217L561.284 501.163L562.328 489.217C562.917 482.608 564.55 475.866 565.898 474.232ZM384.355 471.934C388.362 469.256 389.179 469.256 393.186 471.934C395.56 473.492 397.934 476.91 398.371 479.417C399.112 483.956 399.188 483.956 398.979 479.132C398.827 476.245 396.814 472.979 393.851 470.738C389.179 467.263 388.742 467.262 384.279 470.149C377.746 474.46 375.524 481.278 377.309 491.154C378.79 499.301 378.791 499.302 379.303 487.071C379.835 476.378 380.424 474.536 384.355 471.934ZM399.055 492.559C398.523 491.287 398.086 492.332 398.086 494.782C398.086 497.308 398.523 498.276 399.055 497.08C399.491 495.826 399.491 493.737 399.055 492.559ZM604.623 472.447C609.58 468.744 609.58 468.744 614.556 472.447C618.791 475.638 619.683 477.86 620.576 487.736L621.602 499.302L621.905 487.963C622.209 477.727 621.677 476.093 617.461 472.086C614.859 469.636 611.289 467.623 609.58 467.623C607.89 467.623 604.319 469.636 601.717 472.086C597.425 476.093 596.969 477.727 597.197 487.963L597.577 499.302L598.603 487.736C599.495 477.86 600.388 475.638 604.623 472.447ZM485.62 480.31C484.955 479.36 483.701 478.543 482.809 478.543C481.84 478.543 481.1 479.36 481.1 480.31C481.1 481.278 482.353 482.095 483.911 482.095C485.468 482.095 486.209 481.278 485.62 480.31ZM474.263 475.486C473.009 474.973 471.015 474.973 469.743 475.486C468.489 476.018 469.515 476.379 472.041 476.379C474.491 476.379 475.535 476.018 474.263 475.486ZM284.952 410.572C284.287 408.73 284.572 408.198 285.844 409.014C287.098 409.774 287.535 409.242 287.098 407.837C285.616 403.317 281.97 403.905 281.97 408.653C281.97 411.255 282.863 413.325 283.983 413.325C285.104 413.325 285.54 412.072 284.952 410.572ZM679.546 410.514C680.951 406.792 677.248 402.861 674.646 405.463C672.576 407.533 674.133 413.325 676.811 413.325C677.684 413.325 678.957 412.072 679.546 410.514ZM407.127 457.69C406.918 388.693 407.203 377.203 409.425 377.203C413.736 377.203 417.743 382.463 417.743 388.18C417.743 393.441 417.743 393.441 480.131 393.441C542.595 393.441 542.595 393.441 542.595 388.332C542.595 383.204 547.343 377.203 551.351 377.203C552.908 377.203 553.421 397.372 553.421 457.69C553.421 528.53 553.136 538.254 550.686 538.254C548.312 538.254 548.008 529.062 548.464 460.577C548.673 417.846 548.312 383.28 547.571 383.793C546.83 384.249 546.242 387.44 546.242 390.839V397.087L499.636 397.372C473.978 397.524 444.749 397.676 434.588 397.828C416.109 397.961 416.109 397.961 415.445 390.706C414.856 384.837 414.248 426.012 413.298 531.436C413.223 536.469 412.482 538.254 410.317 538.254C407.658 538.254 407.354 530.467 407.127 457.69ZM415.882 538.254V400.715H546.242V538.254H524.496V418.814H437.627V538.254H415.882ZM433.981 526.023C433.981 522.301 433.468 512.444 432.803 504.202C431.683 489.217 431.683 489.217 425.168 489.73C418.635 490.262 418.636 490.261 418.104 511.551L417.667 532.765H425.833C434.057 532.765 434.057 532.765 434.057 526.023H433.981ZM419.965 511.551C420.478 492.104 420.478 492.104 425.454 491.515C430.429 490.926 430.429 490.926 430.429 510.962C430.429 530.98 430.429 530.98 424.941 530.98C419.452 530.98 419.452 530.98 419.965 511.551ZM542.595 511.096C542.595 489.369 542.596 489.369 535.322 489.369C528.124 489.369 528.124 489.369 528.124 511.096C528.124 532.766 528.124 532.765 535.322 532.765C542.596 532.765 542.595 532.766 542.595 511.096ZM530.364 511.551C530.877 492.104 530.877 492.104 535.853 491.515C540.81 490.926 540.81 490.926 540.81 510.962C540.81 530.98 540.81 530.98 535.322 530.98C529.833 530.98 529.833 530.98 530.364 511.551ZM432.424 462.287C432.139 450.872 431.531 440.845 431.018 440.104C429.689 437.958 422.339 438.471 419.889 440.845C418.484 442.326 417.743 450.056 417.743 463.616V484.165L425.302 483.576L432.955 483.064L432.424 462.287ZM419.528 463.331C419.528 443.807 421.37 438.774 427.676 441.148C429.917 442.041 430.429 446.049 430.429 462.135C430.429 482.095 430.429 482.095 424.941 482.095C419.528 482.095 419.528 482.095 419.528 463.331ZM542.234 461.774C541.703 439.591 541.703 439.591 535.322 439.591C529.016 439.591 529.016 439.591 528.503 461.774L528.048 483.956H542.747L542.234 461.774ZM530.364 461.774C530.801 441.433 530.802 441.434 535.322 441.434C539.861 441.434 539.86 441.433 540.373 461.774C540.962 482.095 540.962 482.095 535.322 482.095C529.833 482.095 529.833 482.095 530.364 461.774ZM432.214 420.599C432.214 406.127 432.215 406.128 424.941 406.128C417.743 406.128 417.743 406.128 417.743 419.555C417.743 433.058 417.743 433.058 423.593 433.799C426.859 434.179 430.126 434.615 430.866 434.767C431.607 434.919 432.214 428.538 432.214 420.599ZM419.528 419.707C419.528 407.913 419.528 407.913 424.941 407.913C430.429 407.913 430.429 407.913 430.429 419.707C430.429 431.425 430.429 431.425 424.941 431.425C419.528 431.425 419.528 431.425 419.528 419.707ZM542.595 421.036V406.944L493.255 407.533C466.191 407.837 441.92 408.349 439.47 408.653C436.963 408.957 455.879 409.318 481.537 409.47L528.124 409.774V421.188C528.124 434.463 528.503 435.071 536.594 435.071C542.595 435.071 542.595 435.071 542.595 421.036ZM529.909 419.707C529.909 407.913 529.909 407.913 535.322 407.913C540.81 407.913 540.81 407.913 540.81 419.707C540.81 431.425 540.81 431.425 535.322 431.425C529.909 431.425 529.909 431.425 529.909 419.707ZM439.47 479.417V420.599H522.711V479.417C522.711 530.468 522.35 538.254 519.976 538.254C517.678 538.254 517.298 532.993 517.298 501.979C517.298 475.277 516.634 464.148 514.772 459.761C511.962 452.943 502.75 444.852 490.007 437.882C481.251 433.134 481.252 433.134 470.711 438.471C444.901 451.689 443.344 455.677 444.521 503.1C445.262 534.778 445.11 538.254 442.451 538.254C439.697 538.254 439.47 532.69 439.47 479.417ZM922.661 532.765C922.661 531.797 923.249 530.98 923.99 530.98C926.288 530.98 926.592 472.295 924.503 446.998C912.937 308.13 840.977 186.088 725.392 109.303C715.896 102.998 707.806 97.3575 707.293 96.7687C706.78 96.256 694.758 90.0837 680.59 83.1136C666.422 76.2196 654.761 69.8383 654.761 69.0216C654.761 59.6016 716.789 92.8374 755.209 122.883C854.1 200.18 914.95 308.053 929.118 431.425C932.156 457.766 932.005 523.858 928.966 531.436C927.636 534.778 922.661 535.88 922.661 532.765ZM27.8965 494.193C25.8834 464.224 30.1946 419.403 38.8739 380.754C63.3544 270.658 130.795 172.072 225.887 107.081C260.547 83.4934 307.799 59.7536 309.793 64.9384C310.458 66.6477 304.019 70.7306 288.731 78.0805C131.592 154.124 34.1259 308.566 34.1259 481.506C34.1259 504.733 33.5183 510.887 31.6001 511.627C29.587 512.444 28.8461 508.798 27.8965 494.193ZM634.953 503.841V463.996H648.532C662.035 463.996 662.035 463.996 662.035 472.827C662.035 477.651 661.522 486.615 660.933 492.711L659.737 503.841H634.953ZM640.669 473.644C643.119 470.681 649.804 470.605 652.691 473.416C653.869 474.612 654.989 481.278 655.217 488.4C655.502 501.163 655.502 501.163 656.186 490.337C656.546 484.393 656.395 477.86 655.882 475.714C654.552 470.529 647.564 467.414 642.892 469.921C637.403 472.979 636.738 474.973 637.118 488.476L637.403 501.163L638.068 488.552C638.448 481.582 639.568 474.897 640.669 473.644ZM88.4238 495.237C88.3479 488.856 86.4866 487.812 82.9352 492.104C81.6817 493.661 80.1814 494.478 79.6686 493.965C79.1558 493.452 80.1246 491.515 81.8148 489.597C84.7966 486.406 84.6445 486.178 78.9279 484.849C73.0024 483.424 73.0022 483.424 79.3075 482.323C83.3718 481.582 84.8725 480.69 83.3722 479.721C82.1947 478.98 80.2572 476.606 79.1557 474.536C77.1426 470.814 77.2187 470.814 82.7074 474.745C88.348 478.753 88.3479 478.753 88.3479 473.112C88.3479 469.788 89.0885 467.927 90.209 468.516C91.1776 469.181 91.9941 471.782 91.9941 474.384C91.9941 478.676 92.279 478.829 95.1847 476.379C100.958 471.346 103.788 470.605 99.7049 475.201C94.3682 481.05 94.501 481.791 101.49 482.608L107.34 483.291L101.547 484.773C95.8499 486.178 95.8496 486.178 98.8123 490.774C101.851 495.446 101.851 495.446 96.9513 492.18C92.1274 489.065 91.9941 489.065 91.9941 492.332C91.9181 494.193 91.1776 496.928 90.209 498.409C88.8605 500.498 88.4238 499.681 88.4238 495.237ZM868.648 495.237C868.344 488.856 866.502 487.812 862.931 492.104C861.754 493.604 859.816 494.782 858.715 494.782C857.594 494.782 858.563 492.996 860.785 490.774C864.792 486.691 864.792 486.691 857.974 484.621L851.213 482.551L858.259 482.323C865.381 482.095 865.381 482.095 861.45 477.936C855.961 472.086 856.55 470.225 862.494 474.897C867.47 478.828 867.47 478.828 868.572 472.827C869.54 467.699 869.768 467.49 869.977 471.421C870.281 478.239 872.142 479.056 876.814 474.612C882.151 469.56 882.379 472.295 877.099 477.936C873.168 482.095 873.168 482.095 880.29 482.323L887.412 482.551L880.442 484.317C873.548 486.178 873.547 486.178 877.783 490.85C881.923 495.522 881.923 495.522 877.023 492.408C870.585 488.4 870.509 488.4 869.692 495.237L868.951 501.163L868.648 495.237ZM915.159 491.154C914.494 489.673 913.45 477.043 912.861 463.103C909.67 386.167 885.854 310.807 844.984 248.115C831.12 226.901 831.12 226.977 834.444 226.977C839.799 226.977 874.137 287.2 886.519 318.366C896.832 344.176 908.778 384.913 907.961 391.371C907.828 393.004 908.493 396.404 909.518 398.93C913.165 407.685 917.381 450.131 916.868 472.162C916.583 484.108 915.824 492.711 915.159 491.154ZM760.926 469.123C759.141 460.216 759.596 456.798 762.635 456.798C764.192 456.798 764.933 455.981 764.344 454.937C763.68 453.911 762.483 453.531 761.591 454.12C760.698 454.652 759.52 451.974 758.932 448.27C745.941 365.257 701.576 296.487 631.477 250.717C618.867 242.55 616.777 240.537 619.683 239.512C628.514 236.169 671.246 268.816 697.493 298.937C736.958 343.967 762.123 401.892 766.339 457.311C767.307 469.997 767.079 472.675 764.781 473.568C762.787 474.308 761.667 473.112 760.926 469.123ZM316.402 453.17V438.699H365.287V453.17H316.402ZM596.893 453.17V438.699H645.797V453.17H596.893ZM316.402 434.102C316.402 431.728 319.821 431.424 340.218 431.88C357.349 432.241 364.243 432.982 364.85 434.615C365.363 436.325 359.875 436.913 340.959 436.913C320.106 436.913 316.402 436.476 316.402 434.102ZM596.893 434.178C596.893 431.88 600.843 431.425 621.392 431.425C641.866 431.425 645.797 431.88 645.797 434.178C645.797 436.476 641.866 436.913 621.392 436.913C600.843 436.913 596.893 436.476 596.893 434.178ZM315.813 428.462C313.439 426.088 314.617 415.927 317.96 409.774C319.821 406.355 325.309 400.791 330.209 397.372C335.014 394.03 339.553 389.965 340.294 388.332C341.395 385.578 341.472 385.578 341.623 388.408C341.699 390.098 343.485 392.396 345.555 393.517C358.83 400.639 368.706 415.699 366.332 425.195C365.211 429.639 365.135 429.64 341.111 429.64C327.835 429.64 316.478 429.127 315.813 428.462ZM596.304 428.462C594.006 426.088 595.127 414.731 598.241 409.47C600.027 406.583 605.724 401.152 610.928 397.6C616.189 393.954 620.424 390.402 620.424 389.661C620.424 388.332 623.463 390.63 636.814 402.196C644.449 408.729 648.532 418.301 646.823 425.195C645.721 429.639 645.645 429.64 621.602 429.64C608.402 429.64 596.969 429.127 596.304 428.462ZM106.599 389.073C106.447 381.951 106.447 381.951 102.307 385.882C96.5141 391.295 93.9886 390.839 99.1734 385.351C103.712 380.603 103.181 379.938 93.8366 378.38C90.7979 377.944 91.6145 377.564 96.3624 377.412C102.896 377.203 103.18 376.899 100.673 374.012C95.2417 367.631 95.0331 365.542 100.218 369.701C105.555 373.936 105.554 373.936 106.675 367.84L107.719 361.763L109.125 367.783C110.53 373.708 110.53 373.708 114.841 369.701C117.215 367.479 119.134 366.51 119.134 367.555C119.134 368.599 117.88 370.518 116.399 371.714C112.239 375.19 113.132 376.899 119.589 377.64L125.439 378.38L119.589 378.684C113.208 378.969 112.164 380.906 116.399 384.401C117.88 385.654 119.134 387.516 119.134 388.541C119.134 389.586 117.5 388.921 115.506 387.136C111.347 383.356 111.271 383.432 108.669 390.782C106.751 396.194 106.751 396.195 106.599 389.073ZM850.321 390.25C850.245 383.945 848.403 382.843 844.832 387.136C843.655 388.617 841.717 389.813 840.673 389.813C839.647 389.813 840.616 387.952 842.762 385.654C847.947 380.09 847.738 379.349 840.749 378.456C834.899 377.716 834.899 377.716 840.901 377.412C846.921 377.203 846.921 377.203 842.838 371.41C838.83 365.846 840.616 365.77 847.13 371.41C850.036 373.86 850.245 373.632 850.245 368.372C850.245 365.257 851.061 362.655 852.106 362.655C853.074 362.655 853.891 365.257 853.891 368.372C853.891 373.632 854.176 373.86 857.082 371.41C862.855 366.434 865.685 365.618 861.602 370.214C856.265 376.083 856.417 376.823 863.387 377.64L869.237 378.38L863.387 378.684C857.006 378.969 855.961 380.906 860.196 384.401C861.678 385.654 862.931 387.516 862.931 388.541C862.931 389.586 861.45 389.073 859.607 387.439C855.372 383.584 853.891 383.66 853.891 387.591C853.815 389.281 853.074 391.96 852.106 393.441C850.776 395.53 850.321 394.77 850.321 390.25ZM274.848 388.18C271.373 381.723 272.626 380.754 284.724 380.754C296.822 380.754 298.075 381.723 294.657 388.18C293.175 390.782 290.801 391.656 284.724 391.656C278.646 391.656 276.273 390.782 274.848 388.18ZM666.118 388.028C662.187 381.723 663.441 380.754 676.583 380.754C690.01 380.754 690.827 381.343 686.364 387.649C682.585 393.08 669.461 393.365 666.118 388.028ZM746.606 353.007C745.941 351.374 749.284 348.791 756.33 345.448C764.857 341.365 766.87 339.58 766.054 336.978C763.964 330.464 769.757 333.864 772.796 340.985C775.759 348.05 773.992 353.596 770.574 348.05C769.32 346.037 767.079 346.474 758.932 350.481C747.214 356.274 747.803 356.122 746.606 353.007ZM200.077 347.974C191.55 343.663 189.461 343.15 188.644 345.296C188.055 346.778 186.498 347.518 185.168 347.006C183.155 346.265 183.459 344.556 186.498 338.25C190.201 330.616 195.69 328.603 193.848 335.497C193.183 338.175 195.177 340.035 203.04 344.043C209.421 347.233 212.612 349.892 211.795 351.165C210.902 352.646 207.427 351.678 200.077 347.974ZM739.123 339.295C738.306 338.022 739.275 335.421 741.497 333.047C745.049 329.267 746.606 324.671 744.384 324.671C743.795 324.671 741.421 325.925 739.123 327.482C735.857 329.571 734.451 329.799 733.483 328.166C732.742 326.969 733.255 325.336 734.66 324.519C756.102 311.624 755.817 311.757 758.78 316.068C760.337 318.214 761.591 321.481 761.591 323.19C761.591 326.608 754.697 332.306 752.323 330.825C751.506 330.388 748.543 332.534 745.656 335.725C741.934 339.884 740.092 340.928 739.123 339.295ZM755.893 322.297C756.482 318.955 754.772 318.442 750.993 320.892C748.087 322.677 750.025 327.045 753.215 326.001C754.336 325.64 755.513 323.931 755.893 322.297ZM207.351 328.754C199.773 321.12 197.475 317.625 198.747 315.688C200.077 313.466 202.299 313.77 214.093 317.398C226.704 321.405 231.3 325.564 223.076 325.564C216.543 325.564 214.473 328.242 217.949 332.173C220.038 334.395 220.474 336.237 219.373 337.358C218.252 338.478 213.941 335.421 207.351 328.754ZM214.093 322.734C213.504 321.861 211.795 321.044 210.238 321.044C207.94 321.044 207.788 321.557 209.649 323.779C211.947 326.609 215.878 325.716 214.093 322.734ZM138.126 317.701C135.163 315.916 126.787 311.016 119.589 306.8C106.447 299.146 106.447 299.146 109.942 292.328C114.69 283.193 117.804 280.895 124.85 281.578C129.294 282.015 131.82 283.649 134.498 287.941C137.233 292.252 139.531 293.809 143.538 293.961C146.596 294.113 151.705 295.139 154.971 296.335C160.384 298.329 160.688 298.785 158.39 301.976C156.092 305.091 155.123 305.167 147.622 303.078C134.042 299.298 130.795 304.122 142.798 310.276C147.698 312.801 149.919 315.023 149.559 317.036C148.742 321.329 144.507 321.632 138.126 317.701ZM130.491 298.861C131.896 294.93 128.269 290.315 123.73 290.315C117.425 290.315 116.095 293.961 120.843 297.817C125.667 301.672 129.37 302.128 130.491 298.861ZM229.533 314.055C229.533 313.029 230.35 311.681 231.376 311.092C232.344 310.503 233.161 308.433 233.161 306.572C233.161 303.533 232.116 303.229 224.254 304.198C216.467 305.091 215.214 304.787 213.276 301.235C211.567 298.045 211.719 296.411 214.093 292.917C215.65 290.467 217.74 288.473 218.689 288.473C221.139 288.473 220.93 292.765 218.328 295.367C215.802 297.817 216.467 298.045 227.444 298.254C237.092 298.482 240.207 302.052 237.548 309.611C235.839 314.435 229.533 317.929 229.533 314.055ZM721.157 310.503C716.865 305.679 717.454 302.128 723.759 295.88C732.97 286.612 745.352 288.758 745.352 299.526C745.352 310.066 727.918 317.986 721.157 310.503ZM737.262 303.97C742.827 298.33 742.903 295.746 737.414 295.746C732.362 295.746 723.607 302.128 723.607 305.831C723.607 309.991 732.362 308.794 737.262 303.97ZM77.6743 307.085C78.6998 304.35 83.524 294.246 88.3479 284.617C150.375 160.638 270.917 71.7752 407.791 48.9279C432.956 44.6927 448.529 43.4203 448.529 45.6614C448.529 47.8075 443.477 48.9284 426.783 50.5427C394.231 53.8093 347.853 66.2109 311.141 81.5563C217.739 120.585 135.315 198.413 91.3867 288.91C85.2333 301.596 79.2318 311.985 78.0353 311.985C76.3261 311.985 76.2499 310.807 77.6743 307.085ZM235.99 287.884C228.868 281.578 225.754 277.571 226.704 276.014C227.748 274.305 229.154 274.742 232.496 277.856C236.655 281.788 237.016 281.788 239.998 278.749C242.96 275.634 242.885 275.33 239.029 272.747C234.946 269.918 233.465 264.961 236.731 264.961C238.497 264.961 257.204 280.819 258.173 283.193C259.502 286.46 254.907 286.327 250.595 282.908C242.657 276.679 239.029 282.168 246.151 289.726C248.677 292.48 249.494 294.626 248.373 295.746C247.253 296.772 242.809 293.961 235.99 287.884ZM147.925 275.558C137.613 268.436 128.858 262.359 128.478 262.131C128.193 261.827 130.643 257.611 133.967 252.635C139.018 245.076 140.575 243.88 143.253 245.361C146.216 246.995 146.216 247.45 142.722 253.091C139.018 259.092 139.018 259.092 143.69 262.207C146.292 263.84 148.59 264.961 148.818 264.657C155.047 255.598 156.832 254.192 158.979 256.794C160.764 259.016 160.536 260.422 158.01 264.353C154.819 269.177 154.895 269.253 159.947 273.336C165.056 277.419 165.056 277.419 169.443 271.038C173.298 265.322 174.115 264.885 176.489 267.259C178.939 269.709 178.483 271.038 172.995 279.204L166.765 288.473L147.925 275.558ZM701.063 286.839C700.095 285.206 719.391 266.727 722.05 266.727C724.424 266.727 729.038 274.666 729.038 278.901C729.038 285.719 719.011 289.061 713.902 283.952C712.193 282.243 710.711 281.939 710.046 283.06C708.185 286.099 702.165 288.625 701.063 286.839ZM723.322 278.901C726.721 274.742 723.094 272.216 718.726 275.786C714.718 278.977 714.928 281.275 719.163 281.275C720.416 281.275 722.277 280.23 723.322 278.901ZM692.308 276.527C691.719 275.862 692.384 272.956 693.941 269.994C697.569 263.024 695.803 261.467 690.295 266.575C687.257 269.481 685.623 269.994 684.673 268.512C683.933 267.259 687.256 262.511 693.049 256.566L702.773 246.709L707.806 252.274C713.522 258.579 712.345 264.068 704.919 265.911C702.545 266.518 699.943 269.253 698.765 272.292C696.828 277.42 694.682 278.825 692.308 276.527ZM705.508 257.763C705.508 253.603 703.665 253.091 700.475 256.263C697.284 259.453 697.797 261.314 701.88 261.314C704.33 261.314 705.508 260.137 705.508 257.763ZM254.906 265.835C247.253 258.2 245.544 255.465 247.253 253.755C248.886 252.122 250.443 252.559 253.938 255.902C258.534 260.213 258.534 260.213 256.54 254.572C255.191 250.641 255.191 247.811 256.388 245.589C258.382 242.019 258.914 242.778 261.06 252.711C261.649 255.465 262.845 257.763 263.738 257.763C264.535 257.763 268.334 259.016 272.037 260.574C280.792 264.201 278.266 268.36 269.15 265.17C262.104 262.72 260.471 263.764 264.536 268.284C267.669 271.703 268.542 275.786 266.112 275.786C265.352 275.786 260.243 271.323 254.906 265.835ZM771.827 260.137C769.453 257.763 770.801 253.964 778.892 240.328C787.115 226.445 787.116 226.445 780.222 231.573C760.033 246.709 761.591 245.817 758.704 242.911C756.33 240.537 758.267 238.543 775.398 225.401C794.01 211.157 794.826 210.72 797.276 214.214C799.954 218.07 799.574 218.963 786.223 241.43C782.748 247.374 783.26 247.07 794.902 237.214C806.487 227.49 809.298 226.445 810.78 231.649C811.444 233.795 778.361 261.162 775.018 261.238C773.992 261.314 772.511 260.801 771.827 260.137ZM169.367 245.437C159.719 237.726 151.857 230.452 151.857 229.275C151.781 228.078 154.231 224.223 157.345 220.653C161.713 215.696 164.315 214.29 169.215 214.29C181.237 214.29 188.359 227.566 181.522 237.347C178.939 241.069 179.148 241.658 185.092 247.222C190.581 252.407 191.17 253.604 189.1 256.263C186.954 259.093 185.092 258.048 169.367 245.437ZM175.9 233.282C178.559 226.293 169.576 219.703 164.03 224.603C161.2 227.11 161.353 227.642 165.873 231.573C171.513 236.606 174.476 237.062 175.9 233.282ZM672.348 258.2C670.791 255.674 690.827 235.049 692.821 237.062C694.094 238.315 691.719 242.171 685.49 249.217C676.507 259.244 673.981 260.954 672.348 258.2ZM275.607 249.141C271.809 244.393 268.03 239.588 267.137 238.467C266.112 237.062 267.517 234.972 271.221 232.39C277.754 227.718 280.489 228.895 275.665 234.232C271.145 239.208 274.715 243.519 280.413 239.873C285.237 236.91 287.098 238.695 283.394 242.778C281.305 245.076 280.944 246.842 282.198 249.083C283.831 251.97 284.42 251.97 288.142 249.52C293.84 245.817 295.549 248.4 290.801 253.528C285.237 259.396 283.394 258.865 275.607 249.141ZM663.308 251.078C662.624 250.489 662.624 248.115 663.156 245.893C664.409 240.765 661.446 238.847 656.774 241.734C652.995 244.184 650.089 242.911 652.026 239.797C652.691 238.771 657.952 234.232 663.744 229.788C672.272 223.255 674.722 222.077 676.355 223.995C677.836 225.781 676.868 229.636 672.5 239.36C666.707 252.122 665.606 253.452 663.308 251.078ZM670.278 230.908C668.72 229.351 663.897 234.536 665.074 236.473C665.815 237.65 667.163 237.062 668.644 235.049C669.974 233.206 670.714 231.345 670.278 230.908ZM292.738 232.238C283.166 218.07 285.103 215.031 298.455 223.255L307.875 229.047L302.158 221.336C298.455 216.208 297.106 212.942 298.303 211.764C299.271 210.796 300.373 210.359 300.753 210.796C301.114 211.233 304.836 216.664 308.977 222.894C317.884 236.245 315.813 239.72 303.716 231.649C295.777 226.445 294.657 227.262 300.145 234.156C302.083 236.682 303.716 239.721 303.716 240.993C303.792 245.893 299.936 242.778 292.738 232.238ZM608.839 237.271C606.104 235.277 606.028 234.612 608.25 232.751C611.365 230.149 618.126 234.232 616.113 237.499C614.404 240.252 612.846 240.177 608.839 237.271ZM630.585 227.851C628.723 226.445 626.35 225.04 625.381 224.66C623.311 223.996 636.814 201.3 640.005 200.256C643.575 199.078 642.531 203.294 636.814 213.246C631.553 222.362 631.553 222.59 635.105 224.812C637.042 226.085 638.219 227.851 637.631 228.819C636.149 231.117 634.668 230.965 630.585 227.851ZM745.428 228.003C743.719 225.933 743.947 224.375 746.397 220.653C749.36 216.133 749.284 215.772 745.352 211.613C741.269 207.225 741.269 207.226 737.927 211.157C735.344 214.348 733.996 214.803 731.546 213.246C729.779 212.201 728.146 210.568 727.918 209.6C727.614 208.726 736.673 202.553 747.954 195.963C768.427 184.017 768.504 184.018 772.055 187.569C775.702 191.14 775.625 191.215 763.015 210.872C755.95 221.697 749.645 230.604 748.904 230.604C748.164 230.604 746.606 229.408 745.428 228.003ZM759.369 202.478C764.933 193.95 764.572 193.589 756.178 199.154C750.461 202.933 749.36 204.415 750.993 206.409C753.88 209.98 754.849 209.543 759.369 202.478ZM322.632 217.253C319.137 211.309 315.89 207.985 313.724 207.985C307.799 207.909 308.901 204.263 316.174 200.18C320.03 197.958 323.752 196.172 324.341 196.172C326.411 196.172 325.461 201.3 323.22 202.041C321.663 202.553 322.783 206.2 326.867 213.759C334.425 227.927 330.722 230.965 322.632 217.253ZM204.236 222.514C201.71 221.185 194.892 214.575 189.024 207.985C179.3 196.913 178.635 195.66 181.237 192.982C183.896 190.399 185.168 191.291 196.222 203.237C206.078 213.834 209.193 216.208 213.067 215.772C221.291 214.803 219.506 209.752 205.869 195.356C193.62 182.536 193.031 181.416 196.146 179.117C199.184 176.895 200.438 177.636 208.529 185.936C213.504 191.064 219.43 197.672 221.747 200.635C232.8 214.651 219.657 230.965 204.236 222.514ZM819.535 212.05C807.152 195.223 764.781 153.44 744.308 137.943C666.859 79.1063 586.22 50.6186 490.596 48.2446C469.458 47.7318 452.156 46.6113 452.156 45.8706C452.156 41.1986 502.617 41.7303 538.151 46.7632C633.035 60.3424 715.383 100.548 783.564 166.735C802.765 185.423 832.221 218.962 832.221 222.153C832.221 226.16 826.505 221.621 819.535 212.05ZM613.891 217.101C613.378 215.62 613.378 213.683 614.043 212.657C615.885 209.599 611.213 208.346 606.693 210.72C598.906 214.955 599.951 211.024 609.447 199.97C615.448 193.057 619.835 189.506 621.45 190.171C624.716 191.367 624.716 191.139 621.165 206.789C618.335 219.247 615.961 222.59 613.891 217.101ZM617.518 202.344C619.532 197.217 618.715 195.431 615.961 199.002C614.556 200.92 613.302 203.161 613.302 203.902C613.15 206.409 616.417 205.231 617.518 202.344ZM352.088 202.857C345.403 188.31 344.662 185.347 347.701 185.347C351.196 185.347 360.995 208.422 358.469 210.948C357.197 212.201 355.203 209.599 352.088 202.857ZM590.151 207.681C588.746 207.092 587.853 202.933 587.777 196.476C587.625 186.239 587.625 186.239 584.966 193.437C582.06 201.3 579.534 204.719 577.768 202.933C575.983 201.224 586.371 176.307 588.821 176.307C590.075 176.307 591.556 180.295 592.373 185.802L593.721 195.298L596.304 187.721C598.09 182.536 599.799 180.371 601.508 181.054C603.502 181.871 603.275 183.713 600.236 191.367C598.242 196.476 595.867 202.553 594.975 204.794C594.082 207.016 593.19 208.783 592.905 208.726C592.601 208.65 591.348 208.118 590.151 207.681ZM364.623 193.285C360.615 181.567 360.388 179.554 362.762 178.68C364.547 177.997 367.509 180.01 371.08 184.245C377.746 192.393 378.79 191.88 375.315 181.871C372.865 174.882 372.865 174.294 375.524 174.807C379.835 175.623 387.85 199.591 384.279 200.92C382.798 201.528 379.303 199.23 375.98 195.356C368.991 187.417 368.041 187.873 371.441 197.596C373.682 203.75 373.682 205.079 371.593 205.896C369.883 206.561 367.813 202.781 364.623 193.285ZM227.444 182.156C213.656 164.494 213.656 164.494 217.208 160.563C222.184 155.226 230.35 152.111 235.915 153.517C240.738 154.713 244.67 161.683 242.961 166.203C242.22 168.064 243.55 168.957 247.918 169.394C255.04 170.058 259.579 177.256 257.641 184.834C256.388 189.791 246.892 199.819 243.398 199.819C242.22 199.819 235.098 191.88 227.444 182.156ZM249.494 183.638C249.494 179.706 245.923 176.307 241.992 176.307C236.807 176.307 236.351 179.497 240.662 185.271C244.879 190.987 249.494 190.171 249.494 183.638ZM234.87 170.059C237.396 167.02 234.566 159.974 230.711 159.974C225.811 159.974 224.178 163.981 227.369 168.368C231.015 173.325 231.983 173.553 234.87 170.059ZM712.041 196.989C708.85 194.691 709.363 193.589 721.385 179.345C733.027 165.538 733.919 163.829 731.412 161.303C728.583 158.569 729.172 152.776 732.21 152.776C733.103 152.776 738.003 156.631 743.206 161.303C750.537 167.988 752.247 170.59 750.841 172.66C749.284 174.958 748.467 175.034 745.049 172.888C740.681 170.21 738.895 171.692 721.764 191.956C716.048 198.698 715.079 199.23 712.041 196.989ZM554.693 194.691C547.799 187.056 553.952 169.033 563.448 169.033C572.64 169.033 576.287 179.934 570.722 190.608C566.639 198.546 559.726 200.256 554.693 194.691ZM564.189 190.019C567.076 186.543 568.785 175.186 566.639 173.857C563.22 171.767 558.701 177.408 557.656 184.91C556.535 193.057 559.669 195.432 564.189 190.019ZM399.112 194.843C398.675 194.102 397.346 189.202 396.073 183.941C394.364 176.592 393.111 174.445 390.433 174.445C383.615 174.445 386.957 169.545 394.516 168.292C402.53 167.02 408.171 169.622 401.79 171.692C398.238 172.812 398.162 173.173 400.669 181.34C402.094 186.012 403.271 191.291 403.271 192.982C403.271 196.172 400.536 197.369 399.112 194.843ZM417.154 189.506C415.293 182.973 412.026 165.102 412.615 164.57C412.919 164.361 416.413 163.544 420.193 162.803C425.605 161.835 427.011 162.12 426.422 163.981C425.966 165.253 423.82 166.583 421.674 166.868C419.528 167.248 417.743 168.064 417.819 168.729C417.819 171.844 421.161 174.673 424.124 174.142C425.909 173.857 427.675 174.597 428.131 175.851C428.644 177.18 427.39 178.073 425.168 178.073C422.339 178.073 421.37 179.27 421.37 182.669C421.37 186.62 421.978 187.056 425.909 186.088C429.309 185.195 430.429 185.651 430.429 187.873C430.429 189.506 428.948 190.76 426.935 190.76C425.017 190.76 422.263 191.215 420.782 191.804C419.148 192.393 417.743 191.576 417.154 189.506ZM536.518 191.139C534.809 188.309 541.342 163.62 543.792 163.62C546.906 163.62 546.907 164.057 543.336 179.706C540.677 191.576 538.74 194.767 536.518 191.139ZM438.729 183.201C435.462 161.303 435.538 160.429 441.407 159.613C444.369 159.157 448.377 159.898 450.39 161.303C454.093 163.905 455.214 169.85 452.232 171.692C451.283 172.3 451.643 174.806 453.125 177.636C456.391 183.789 456.467 187.132 453.428 187.132C452.156 187.132 450.162 184.682 449.042 181.719C446.307 174.445 442.66 174.674 443.401 182.004C444.218 189.791 439.925 190.911 438.729 183.201ZM447.636 168.14C447.636 166.279 446.591 164.494 445.338 164.057C443.933 163.62 443.116 165.101 443.116 168.14C443.116 171.179 443.933 172.66 445.338 172.223C446.591 171.768 447.636 170.001 447.636 168.14ZM517.374 184.91C517.45 182.612 518.115 177.256 518.931 172.964C520.128 166.944 519.9 164.949 517.963 164.209C514.032 162.651 515.076 159.974 519.52 160.05C529.548 160.05 535.473 164.057 528.352 165.918C525.674 166.583 524.648 169.185 523.679 177.864C522.787 185.575 521.609 188.993 519.824 188.993C518.419 188.993 517.298 187.208 517.374 184.91ZM503.358 183.486C502.238 179.27 496.445 178.68 494.888 182.612C494.375 184.093 492.666 185.347 491.184 185.347C488.962 185.347 489.323 182.821 493.255 171.768C499.56 153.896 503.434 153.307 506.245 169.622C507.365 175.927 508.258 182.46 508.258 184.093C508.258 188.385 504.46 187.873 503.358 183.486ZM500.908 169.47C500.756 165.102 500.528 164.95 499.199 168.14C497.053 173.116 497.053 174.445 499.199 174.445C500.167 174.445 500.984 172.223 500.908 169.47ZM463 171.768C463 155.226 466.039 153.744 472.857 166.811L477.32 175.414L477.396 166.811C477.453 162.063 478.346 158.189 479.314 158.189C480.283 158.189 481.176 161.246 481.176 164.95C481.176 168.729 481.689 174.806 482.277 178.529C483.246 184.53 482.942 185.347 479.77 185.347C477.168 185.347 475.079 183.049 472.781 177.636L469.457 169.925L468.85 177.636C468.489 182.821 467.445 185.347 465.659 185.347C463.589 185.347 463 182.384 463 171.768ZM263.054 161.17C257.205 152.035 251.336 142.843 249.931 140.697C247.633 137.126 247.785 136.538 251.108 134.753C254.527 132.891 255.799 134.088 265.143 148.635C270.784 157.372 275.741 164.874 276.12 165.387C276.481 165.842 279.311 164.874 282.274 163.088C285.313 161.379 288.503 160.429 289.396 161.018C293.099 163.24 290.649 167.171 282.35 172.299L273.67 177.636L263.054 161.17ZM679.033 173.477C674.798 169.242 674.57 168.425 677.02 165.994C679.47 163.544 680.21 163.62 683.629 167.02C691.852 175.262 698.766 169.318 693.79 158.265C690.086 150.041 691.055 143.735 696.828 138.323C702.165 133.347 707.73 133.708 714.567 139.424C719.675 143.736 719.979 144.552 717.454 147.002C714.928 149.509 714.339 149.509 711.3 146.774C702.925 139.196 698.974 144.685 703.286 158.055C706.096 166.868 706.096 167.399 702.545 172.223C697.132 179.497 685.623 180.086 679.033 173.553V173.477ZM659.661 160.942C656.623 158.644 657.059 157.315 667.6 139.349C673.753 128.751 679.394 119.768 680.135 119.331C680.875 118.875 682.736 119.464 684.294 120.66C686.896 122.655 685.927 125.104 675.994 142.178C662.7 165.177 663.745 163.905 659.661 160.942ZM290.137 139.139C281.02 121.553 279.748 117.983 282.046 116.577C283.527 115.609 285.16 114.792 285.692 114.792C286.205 114.716 291.618 123.927 297.771 135.132C307.723 153.307 308.616 155.682 305.938 157.752C304.38 158.929 302.595 159.974 302.006 159.974C301.494 159.974 296.157 150.553 290.137 139.139ZM643.499 152.567C641.049 151.142 640.384 148.332 640.384 140.013C640.384 127.194 638.067 126.301 632.883 137.126C629.92 143.128 628.211 144.837 625.609 144.172C623.767 143.66 622.266 142.311 622.266 141.21C622.209 137.43 640.973 100.263 642.967 100.339C648.912 100.396 649.728 103.378 645.949 110.785C640.745 121.021 641.049 121.249 650.545 113.975C655.141 110.424 659.433 107.822 660.041 108.202C660.63 108.487 662.7 109.303 664.637 109.968C667.676 111.089 666.783 112.209 658.921 117.47C649.729 123.699 649.729 123.699 648.532 137.791C647.051 155.454 647.278 154.637 643.499 152.567ZM322.632 142.995C313.212 138.836 305.349 121.249 308.084 110.424C309.717 103.891 317.58 96.6169 323.011 96.6169C329.165 96.6169 328.424 102.333 321.815 106.037C313.364 110.861 315.073 124.364 325.385 133.632C328.709 136.69 330.057 136.898 334.881 135.056C345.194 131.201 347.492 138.608 337.255 142.919C329.753 146.033 329.678 146.033 322.632 142.995ZM600.691 134.391C595.336 132.606 590.531 130.669 590.075 130.232C589.41 129.568 603.654 87.7853 605.136 86.095C606.104 84.9745 624.792 92.4577 625.324 94.1669C626.653 98.4021 622.95 100.263 617.233 98.0223C610.776 95.5914 610.339 95.8001 608.706 102.333C607.661 106.493 608.174 107.309 613.226 109.076C621.013 111.753 619.303 115.837 610.776 115.096C605.06 114.64 603.882 115.248 602.325 119.331C599.875 125.693 599.723 125.484 606.845 128.447C613.378 131.125 614.119 132.302 611.821 135.797C610.852 137.202 607.661 136.765 600.691 134.391ZM376.113 120.433C366.769 111.089 364.395 89.4947 371.972 81.9359C373.739 80.1507 377.898 78.1569 381.089 77.4731C394.231 74.8143 407.278 99.8832 400.821 115.324C396.073 126.738 384.735 129.036 376.113 120.433ZM393.11 112.646C394.307 109.227 393.851 105.011 391.325 97.2816C388.363 88.1655 387.242 86.6082 383.026 86.1524C376.644 85.4117 374.631 92.0968 377.746 103.739C381.62 118.059 389.616 122.655 393.11 112.646ZM555.738 121.914C550.686 119.92 550.686 119.92 556.839 95.7243C561.967 75.8398 561.967 75.8396 567.228 76.3713C575.907 77.188 582.649 80.6635 584.359 85.2025C586.296 90.2354 583.922 97.5094 579.838 99.0668C577.161 100.111 577.161 100.548 579.763 104.555C587.777 116.881 571.9 128.371 555.738 121.914ZM571.311 110.424C571.596 107.461 570.855 104.556 569.45 103.663C564.93 100.776 564.93 100.776 561.284 113.538C560.543 116.273 561.283 116.729 565.519 116.198C569.678 115.761 570.779 114.64 571.311 110.424ZM574.198 93.8058C577.389 90.5392 577.388 90.6911 575.907 86.8358C574.654 83.4932 567.969 82.9617 567.969 86.2283C567.893 87.5008 567.38 90.3116 566.848 92.5337C565.519 97.5096 569.754 98.174 574.198 93.8058ZM417.743 115.172C417.743 113.462 416.546 103.074 415.141 92.1726C413.66 81.2713 412.691 72.2123 412.843 71.9844C413.071 71.8515 417.895 71.0919 423.668 70.3512C433.316 69.1737 434.057 69.3256 434.057 72.8011C434.057 75.4789 432.727 76.6563 429.1 77.1121C424.941 77.5489 423.972 78.5933 423.535 83.5692C423.003 89.1338 423.232 89.419 429.233 89.419C433.24 89.419 435.842 90.3873 436.583 92.2485C438.14 96.4078 438.216 96.4077 431.759 96.9965C425.909 97.5852 425.909 97.5853 426.346 107.974C426.783 117.983 426.726 118.362 422.263 118.362C419.224 118.362 417.743 117.394 417.743 115.172ZM527.25 117.166C516.994 115.837 513.671 114.64 513.671 112.266C513.671 110.937 518.115 102.998 523.528 94.6984C528.864 86.38 532.948 78.9731 532.435 78.1564C531.998 77.4157 528.655 76.7324 525.161 76.7324C520.052 76.7324 518.931 76.1435 519.824 73.8455C520.413 72.2882 520.926 70.4271 520.926 69.6864C520.926 68.9457 526.642 69.1734 533.555 70.142C540.601 71.0346 546.242 72.725 546.242 73.8455C546.242 74.966 541.342 83.1895 535.398 92.0967L524.496 108.411L532.662 109.968C538.892 111.165 540.81 112.342 540.81 114.944C540.81 118.438 539.48 118.647 527.25 117.166ZM478.194 110.272C473.902 105.904 473.75 104.935 474.263 86.2283C474.719 67.6163 474.946 66.7994 478.877 66.2106C482.809 65.6029 482.885 65.9827 482.885 84.5377C482.885 99.1425 483.55 103.967 485.62 105.676C490.957 110.12 493.406 104.859 494.755 85.7154C496.008 68.0529 496.16 67.692 500.604 67.692C504.916 67.692 505.067 68.0531 503.947 76.0676C503.358 80.6637 502.827 89.2859 502.827 95.1354C502.827 104.119 502.086 106.568 498.382 110.272C492.438 116.197 484.215 116.197 478.194 110.272ZM639.929 64.7292C623.007 57.8161 590.303 48.4725 566.183 43.5726C490.52 28.2271 410.108 33.7159 335.09 59.222C320.334 64.2738 316.478 65.0141 315.737 63.02C314.541 59.9813 317.067 58.557 335.166 52.5555C432.215 20.2124 535.169 21.0291 631.401 54.9296C654.021 62.8682 653.945 62.7925 651.799 66.3439C650.545 68.509 648.608 68.2047 639.929 64.7292ZM652.102 918.319C652.767 917.275 651.95 916.458 650.393 916.458C648.836 916.458 647.564 917.275 647.564 918.319C647.564 919.288 648.38 920.105 649.273 920.105C650.241 920.105 651.495 919.288 652.102 918.319ZM812.261 822.467C813.685 821.499 814.426 820.322 813.894 819.79C813.382 819.201 811.368 819.942 809.45 821.423C805.595 824.329 807.969 825.145 812.261 822.467ZM813.154 815.118C812.565 814.149 811.235 813.351 810.267 813.351C809.298 813.351 808.937 814.149 809.602 815.118C810.191 816.086 811.52 816.903 812.489 816.903C813.533 816.903 813.818 816.086 813.154 815.118ZM829.334 801.329C830.892 800.722 832.221 799.164 832.221 797.911C832.221 796.05 831.253 795.974 827.853 797.607C821.985 800.361 823.314 803.703 829.334 801.329ZM127.072 785.889C126.484 784.864 125.002 785.072 123.521 786.269C122.096 787.446 121.432 789.156 122.039 790.048C122.704 791.093 124.11 790.941 125.591 789.669C126.996 788.491 127.661 786.782 127.072 785.889ZM944.691 403.392C944.691 402.5 943.799 401.379 942.754 401.018C941.653 400.715 940.76 401.759 940.76 403.392C940.76 405.083 941.653 406.127 942.754 405.766C943.799 405.387 944.691 404.342 944.691 403.392ZM886.975 249.369C887.564 248.78 887.564 247.146 887.051 245.741C886.31 243.728 885.494 243.652 883.632 245.209C882.227 246.33 881.562 247.963 882.075 248.856C883.272 250.717 885.418 250.926 886.975 249.369ZM106.447 192.317C106.447 187.569 106.086 187.056 103.788 188.917C101.851 190.55 101.623 192.032 102.971 194.539C105.554 199.439 106.447 198.85 106.447 192.317ZM811.235 146.698C810.039 143.66 806.848 142.539 806.848 145.141C806.848 146.926 810.931 151.143 811.748 150.25C812.052 149.965 811.9 148.332 811.235 146.698ZM702.545 72.2122C701.424 69.2495 698.234 68.5089 698.234 71.1678C698.234 72.5162 699.582 73.4655 703.21 74.814C703.438 74.8899 703.134 73.6936 702.545 72.2122ZM718.194 73.2567C718.194 72.2881 717.377 71.0349 716.352 70.4271C713.826 68.7938 707.065 71.1675 708.337 73.2567C709.667 75.4787 718.194 75.4027 718.194 73.2567ZM272.037 55.898C272.037 51.302 268.182 50.4855 267.061 54.8536C266.549 56.7908 266.625 58.9369 267.137 59.4497C269.151 61.4628 272.037 59.2976 272.037 55.898ZM367.965 22.0548C367.813 19.9087 366.769 17.8386 365.591 17.3828C363.293 16.6421 362.837 18.807 364.547 23.1752C366.18 27.4104 368.326 26.6698 367.965 22.0548Z" fill="#DBA651"/>
</svg>
