<svg width="959" height="714" viewBox="0 0 959 714" fill="none" xmlns="http://www.w3.org/2000/svg">
<path fill-rule="evenodd" clip-rule="evenodd" d="M447.619 713.104C335.517 708.45 225.205 672.177 143.649 613.133C116.682 593.644 118.233 595.195 121.734 591.774C124.378 589.05 125.691 589.667 136.41 598.377C171.292 626.656 233.975 658.892 290.076 677.228C298.687 680.092 306.065 683.135 306.383 683.97C306.781 684.826 307.716 685.143 308.491 684.685C309.346 684.129 321.914 686.535 336.611 689.956C446.685 715.669 567.935 710.399 672.818 675.359C686.023 670.924 703.026 664.72 710.564 661.598C718.101 658.416 725.339 655.85 726.652 655.85C727.964 655.85 729.297 655.154 729.595 654.299C729.993 653.444 738.147 648.711 747.851 643.898C805.503 615.162 858.482 572.187 892.508 526.586C919.773 490.014 940.893 441.371 946.64 401.677C947.814 393.682 949.205 387.159 949.842 387.159C950.379 387.159 950.299 372.323 949.683 354.206C947.813 300.074 936.478 261.156 909.133 214.78C904.54 207.004 903.844 204.598 905.792 203.285C907.642 202.033 907.503 201.715 905.156 202.192C903.227 202.51 897.559 196.683 889.008 185.566C881.789 176.08 876.261 168.403 876.738 168.403C877.116 168.403 867.809 159.236 855.996 147.961C789.176 84.4222 708.157 43.0179 607.788 21.1821C583.089 15.753 584.341 15.9907 548.605 11.7946C514.26 7.75759 419.639 7.59863 406.752 11.4766C405.28 11.9538 396.968 13.3467 388.257 14.5002C299.323 26.7902 215.262 60.0205 145.498 110.593C120.64 128.551 78.1615 171.049 61.6157 194.336C46.2232 216.092 27.112 254.235 19.5749 278.239C-10.9515 375.346 14.762 475.954 90.7298 557.052C105.645 572.962 108.131 576.542 106.898 579.883C105.565 583.542 103.796 582.209 87.3093 564.967C69.8487 546.791 46.3027 517.279 47.9334 515.568C48.3908 515.171 46.7005 512.606 44.2147 509.961C38.8452 504.213 19.2765 464.598 14.6827 450.24C12.4354 443.001 12.1171 439.979 13.5887 439.442C16.711 438.427 16.2338 435.324 13.0519 435.324C10.2479 435.324 8.4779 430.194 3.188 406.568C-1.16722 387.378 -1.00821 330.521 3.34701 308.467C25.4015 198.771 106.898 107.41 234.054 50.017C285.183 27.008 355.006 8.67291 411.406 3.64154C457.483 -0.475034 458.716 -0.555012 458.716 1.6922C458.716 3.32292 459.412 3.32302 461.52 1.5332C467.029 -2.96122 568.492 3.32307 578.893 8.83173C580.921 10.005 583.784 10.3834 585.276 9.84644C592.495 7.04239 662.875 25.7752 700.321 40.5312C876.26 109.598 977.405 251.134 955.271 397.322C939.58 500.872 871.15 588.036 758.968 647.319C666.514 696.181 563.818 717.857 447.619 713.104ZM413.434 695.703C284.09 681.643 170.277 629.758 95.1647 550.589C-16.0028 433.455 -11.4885 270.403 106.043 154.264C181.553 79.6087 289.3 32.2981 416.079 17.9995C442.946 14.9767 518.536 14.9767 543.077 17.9995C579.131 22.5138 621.629 30.6671 641.278 36.8121C644.3 37.8065 655.178 41.1485 665.36 44.3304C697.06 54.2141 740.871 73.3047 761.295 86.2112C766.963 89.7909 768.056 91.3428 766.425 93.2719C764.795 95.2208 765.252 96.075 768.374 97.0892C770.701 97.8648 772.948 97.4671 773.724 96.3137C776.986 90.9442 828.333 130.42 857.627 160.708C898.872 203.504 926.216 253.539 937.87 307.452C942.066 326.941 943.458 367.889 940.753 390.182C931.108 468.715 885.508 541.123 810.853 596.428C788.639 612.894 768.593 624.946 765.332 623.613C763.781 623.076 762.926 623.315 763.542 624.249C765.491 627.431 736.277 643.202 729.595 642.506C726.413 642.188 724.862 642.805 725.18 644.356C725.717 647.001 711.577 653.762 686.182 663.168C648.815 676.91 604.606 687.709 560.637 693.914C530.727 698.11 445.352 699.124 413.434 695.703ZM544.011 687.311C606.794 680.171 668.463 663.784 718.657 640.875C729.834 635.744 739.459 632.006 740.016 632.563C740.553 633.179 742.263 631.926 743.655 629.838C745.366 627.431 747.931 626.338 751.272 626.656C754.374 626.955 756.005 626.338 755.786 624.866C755.09 621.525 771.715 612.278 774.201 614.685C776.289 616.852 781.261 615.698 781.261 613.053C781.261 612.119 779.869 611.423 778.159 611.423C776.448 611.423 781.182 607.148 788.798 601.937C868.027 547.328 916.969 478.36 930.651 401.915C934.529 380.397 934.986 339.69 931.665 320.419C919.614 251.909 881.014 187.595 822.586 138.793C747.155 75.8709 643.763 35.5594 532.834 25.7751C509.686 23.7466 436.821 22.8923 435.11 24.6026C433.241 26.472 416.079 25.7759 416.079 23.827C416.079 22.8127 415.224 21.9577 414.21 21.9577C413.195 21.9577 412.34 23.1304 412.34 24.5225C412.34 26.3123 408.701 27.4853 399.831 28.42C365.348 31.9797 307.238 46.4383 271.502 60.3392C112.804 122.028 18.8788 238.167 23.771 366.716C26.575 438.428 54.0784 498.168 110.159 553.93C158.564 602.176 223.256 639.701 298.388 663.088C311.673 667.205 326.031 671.481 330.386 672.555C335.12 673.728 338.242 675.598 338.242 677.308C338.242 678.78 339.177 679.933 340.25 679.933C341.424 679.933 341.881 678.859 341.424 677.526C340.648 675.677 345.381 676.055 361.151 679.317C378.711 682.976 408.84 686.853 443.881 689.956C458.02 691.209 525.377 689.498 543.932 687.311H544.011ZM437.199 685.382C302.107 676.751 170.516 618.722 98.1079 535.913C63.6241 496.457 40.476 450.936 31.149 404.163C26.6546 381.551 26.734 332.768 31.3875 311.171C50.3397 222.396 110.398 148.974 210.767 91.7996C256.745 65.5489 333.807 41.227 400.388 31.8405C434.017 27.0875 523.667 27.0875 556.062 31.8405C733.791 57.6933 865.78 145.792 914.026 270.622C925.679 300.85 930.094 326.166 929.875 361.127C929.179 461.815 867.868 552.696 757.496 616.792C750.039 621.127 743.437 624.171 742.8 623.534C741.03 621.824 743.575 619.974 764.954 606.988C846.828 557.43 898.792 493.275 918.997 416.751C924.208 396.864 924.586 393.125 924.745 361.127C924.904 323.601 922.955 310.396 912.694 280.029C857.09 115.346 634.675 8.29485 405.897 36.0171C321.537 46.2787 244.774 73.5434 178.829 116.658C149.237 136.008 144.802 139.807 143.649 146.727C142.714 152.554 138.12 156.054 138.12 150.924C138.12 145.554 134.938 147.881 116.066 167.549C40.2371 246.241 14.5236 338.675 42.7232 431.208C82.8151 562.72 238.33 663.387 427.255 680.092C458.716 682.896 527.863 681.344 557.932 677.228C616.657 669.134 671.565 653.304 725.021 628.903C732.797 625.403 739.002 623.534 739.698 624.548C741.03 626.735 713.527 639.702 683.915 650.739C608.564 678.859 523.13 690.891 437.199 685.382ZM435.568 643.58C276.553 631.151 141.78 554.785 97.1933 451.95C76.5308 404.4 74.2635 353.828 90.6503 305.901C121.495 215.714 220.233 139.031 347.489 106.477C395.416 94.2861 419.579 91.5009 479.08 91.5009C546.894 91.5009 583.009 96.7713 639.567 114.789C783.349 160.787 877.593 261.852 877.593 370.056C877.593 428.782 855.379 478.122 807.213 526.128C747.632 585.55 666.216 622.918 560.637 639.225C536.414 643.043 461.282 645.609 435.568 643.58ZM546.357 636.361C591.401 630.454 629.863 621.366 665.042 608.4C777.761 566.597 849.771 496.298 869.658 408.518C873.238 392.827 873.775 351.88 870.593 337.045C869.44 331.456 868.027 324.774 867.57 322.208C866.397 316.004 856.692 291.364 850.547 279.253C817.694 214.303 741.408 154.961 649.749 123.102C503.462 72.3111 331.778 90.9442 210.449 170.889C105.426 240.095 62.1524 338.218 94.7669 433.376C127.481 528.535 236.083 605.218 374.356 630.772C395.257 634.571 431.213 639.085 447.619 639.94C471.702 641.093 524.76 639.165 546.357 636.361ZM439.844 631.768C306.383 621.287 191.954 567.85 132.612 488.144C119.009 469.888 103.716 437.95 97.8891 415.816C90.9684 389.088 90.9687 351.879 98.0484 325.012C116.066 256.184 173.777 194.117 259.47 151.301C341.185 110.593 447.918 93.7489 544.946 106.178C695.032 125.508 820.418 208.337 855.379 311.092C867.868 348.082 867.868 392.508 855.379 429.717C821.114 531.796 699.685 610.03 546.357 628.903C517.681 632.403 465.637 633.876 439.844 631.768ZM445.75 621.604C445.75 615.937 445.133 615.081 441.096 615.081C437.198 615.081 436.503 616.016 436.503 620.511C436.503 625.562 437.895 626.875 444.358 627.889C445.133 627.969 445.75 625.164 445.75 621.604ZM460.586 621.604C460.586 615.937 459.969 615.081 455.932 615.081C451.895 615.081 451.259 615.937 451.259 621.604C451.259 627.272 451.895 628.048 455.932 628.048C459.969 628.048 460.586 627.272 460.586 621.604ZM475.421 622.619C475.421 618.801 474.268 616.851 471.543 616.016C466.949 614.525 466.949 614.445 465.478 622.062C464.384 627.73 464.702 628.048 469.912 628.048C474.725 628.048 475.421 627.432 475.421 622.619ZM490.257 625.482C490.257 619.974 487.851 616.931 483.495 616.931C479.856 616.931 479.08 617.866 479.08 622.539C479.08 627.431 479.697 628.048 484.669 628.048C488.248 628.048 490.177 627.113 490.177 625.482H490.257ZM503.243 621.445C503.243 615.698 502.686 614.923 499.047 615.46C495.845 615.937 494.692 617.409 494.294 622.062C493.757 627.431 494.214 628.048 498.411 628.048C502.686 628.048 503.243 627.352 503.243 621.445ZM515.354 627.034C521.26 625.403 519.311 615.081 513.186 615.081C509.368 615.081 508.752 616.016 508.752 621.604C508.752 628.366 509.129 628.664 515.354 627.034ZM431.292 620.67C432.307 614.067 431.69 613.292 425.943 613.292C422.443 613.292 421.667 614.226 421.667 618.502C421.667 624.548 422.84 626.258 427.335 626.258C429.443 626.258 430.756 624.389 431.292 620.67ZM532.834 619.735C532.834 614.067 532.278 613.292 528.241 613.292C524.124 613.292 523.587 614.067 523.587 619.735C523.587 625.403 524.124 626.258 528.241 626.258C532.278 626.258 532.834 625.403 532.834 619.735ZM416.934 619.417C417.709 616.235 417.312 613.989 415.761 612.974C410.252 609.554 406.831 612.596 406.831 620.829C406.831 626.735 415.383 625.563 416.934 619.497V619.417ZM547.67 620.829C547.67 614.525 545.721 611.82 542.002 612.735C539.516 613.451 538.423 615.301 538.423 619.04C538.423 623.474 539.199 624.389 543.077 624.389C546.358 624.389 547.67 623.394 547.67 620.829ZM402.397 617.707C403.57 612.894 401.164 609.633 396.351 609.554C394.163 609.554 391.678 618.642 393.229 621.127C395.257 624.548 401.243 622.301 402.397 617.707ZM562.506 620.193C562.347 612.974 560.099 609.474 556.301 610.647C551.011 612.278 551.011 612.119 552.403 617.647C553.338 621.207 554.81 622.539 558.071 622.539C560.477 622.539 562.506 621.525 562.506 620.193ZM387.959 613.591C388.416 608.4 387.959 607.704 383.982 607.704C380.342 607.704 379.248 608.857 378.632 613.212C378.095 617.09 378.712 618.88 380.72 619.417C385.851 620.829 387.322 619.656 387.959 613.591ZM576.108 619.278C576.566 618.502 576.566 615.539 576.029 612.676C575.253 608.698 574.159 607.624 571.136 608.082C564.216 609.016 564.753 620.67 571.594 620.67C573.623 620.67 575.631 620.053 576.188 619.278H576.108ZM591.56 616.236C591.72 616.156 591.401 613.75 590.864 610.965C590.089 607.068 588.836 605.835 585.495 605.835C581.856 605.835 581.08 606.849 581.08 611.105C581.08 617.648 582.552 619.198 587.364 617.707C589.532 617.011 591.401 616.394 591.56 616.315V616.236ZM373.422 614.367C373.422 612.895 373.899 610.488 374.515 609.016C375.132 607.306 374.038 605.914 371.333 605.218C366.58 603.965 364.254 606.531 364.174 612.815C364.174 616.017 365.268 616.931 368.847 616.931C371.552 616.931 373.422 615.938 373.422 614.367ZM359.282 610.965C359.919 608.619 360.455 605.756 360.455 604.423C360.535 601.102 351.824 601.639 350.512 605.059C348.026 611.582 349.259 613.53 357.035 614.922C357.651 615.002 358.666 613.213 359.282 610.965ZM603.91 614.068C606.157 613.213 606.316 611.88 604.845 607.545C601.822 598.994 593.649 601.161 595.359 610.031C596.294 615.082 598.561 616.077 603.91 614.068ZM344.526 608.48C347.012 602.016 345.779 598.456 341.026 598.456C338.461 598.456 336.372 599.073 336.372 599.848C336.372 600.624 335.836 603.031 335.279 605.218C334.264 608.937 335.438 609.951 342.199 611.184C342.895 611.343 343.91 610.11 344.526 608.48ZM551.389 606.848C630.718 594.638 693.023 571.191 747.772 532.889C758.193 525.591 764.716 523.245 761.832 527.839C761.375 528.694 763.005 531.259 765.57 533.665C769.846 537.702 770.383 537.782 773.266 534.978C775.752 532.413 775.832 531.418 773.883 529.011C771.934 526.665 772.014 526.128 774.42 526.128C775.971 526.128 777.841 527.063 778.537 528.157C779.312 529.39 780.943 529.012 783.289 526.904C786.77 523.722 786.77 523.562 782.812 519.366C779.79 516.184 777.602 515.409 774.042 516.264C770.224 517.199 772.949 513.54 786.77 499.102C814.035 470.664 828.095 447.197 837.819 413.727C866.794 313.816 792.378 209.729 653.09 155.418C621.231 142.989 589.234 134.756 547.67 128.233C515.195 123.102 437.199 123.659 403.57 129.167C291.468 147.742 199.73 197.677 147.904 268.534C114.196 314.672 104.87 372.403 122.907 424.208C147.447 494.747 213.79 550.37 315.173 585.391C347.489 596.587 381.973 603.647 435.568 610.249C450.563 612.039 533.292 609.632 551.389 606.848ZM390.127 583.621V544.702H400.308C408.144 544.702 410.551 545.319 410.551 547.486C410.551 549.435 408.542 550.211 404.028 550.211C398.36 550.211 397.584 550.828 397.584 554.865C397.584 558.763 398.439 559.538 403.093 559.538C407.448 559.538 408.701 560.313 408.701 563.177C408.701 566.14 407.448 566.916 403.093 566.916C398.439 566.916 397.584 567.691 397.584 571.41C397.584 575.925 401.86 578.788 406.99 577.635C408.303 577.396 409.695 578.57 410.093 580.36C410.709 583.144 409.317 583.621 400.467 583.621H390.127ZM414.21 564.112C414.21 545.001 414.289 544.702 418.565 544.702C422.124 544.702 423.457 546.473 426.4 555.342L429.98 565.981L430.517 555.342C430.994 546.174 431.611 544.702 434.713 544.702C438.054 544.702 438.372 546.094 438.372 564.112C438.372 583.223 438.213 583.621 434.096 583.621C430.437 583.621 429.125 581.751 425.863 572.046L421.985 560.473L421.826 572.046C421.667 582.288 421.21 583.621 417.929 583.621C414.448 583.621 414.21 582.368 414.21 564.112ZM449.469 566.916C449.469 551.444 449.171 550.211 445.75 550.211C443.642 550.211 442.012 549.038 442.012 547.486C442.012 545.319 444.497 544.702 453.128 544.702C461.839 544.702 464.245 545.319 464.245 547.486C464.245 549.038 462.614 550.211 460.586 550.211C457.086 550.211 456.867 551.444 456.867 566.916C456.867 582.368 456.549 583.621 453.128 583.621C449.708 583.621 449.469 582.368 449.469 566.916ZM467.964 564.112V544.702H476.197C481.169 544.702 485.524 545.856 487.313 547.566C490.654 550.987 491.112 557.828 488.248 560.771C486.757 562.243 486.757 563.873 488.248 566.598C489.322 568.706 490.257 573.121 490.257 576.462C490.257 584.934 492.902 580.976 495.547 568.626C500.121 547.188 501.215 544.702 505.868 544.702C509.766 544.702 510.542 546.175 513.326 558.127C515.116 565.505 517.223 574.294 517.999 577.556C519.391 583.144 519.153 583.621 515.036 583.621C511.556 583.621 510.621 582.607 510.621 578.948C510.621 575.309 509.686 574.373 506.027 574.373C502.686 574.373 501.135 575.607 500.28 578.948C499.266 583.065 498.112 583.621 491.033 583.621C483.038 583.621 483.038 583.621 482.501 575.765C482.023 569.163 481.169 567.772 477.748 567.294C473.95 566.678 473.552 567.453 473.552 575.149C473.552 581.433 472.856 583.621 470.768 583.621C468.5 583.621 467.964 580.2 467.964 564.112ZM508.055 564.589C507.419 562.322 506.962 559.141 506.882 557.669C506.882 555.183 506.644 555.183 505.013 557.669C502.149 562.163 502.845 568.785 506.186 568.785C508.433 568.785 508.911 567.691 508.055 564.589ZM481.865 555.8C481.865 552.379 480.791 550.987 477.669 550.589C474.188 550.052 473.552 550.828 473.552 555.8C473.552 560.771 474.188 561.546 477.669 561.009C480.791 560.532 481.865 559.22 481.865 555.8ZM521.718 583.7V544.763H529.732C542.38 544.763 544.866 547.725 544.866 562.959C544.866 579.266 541.684 583.7 529.792 583.7H521.718ZM536.474 574.453C540.75 566.439 537.727 550.211 531.9 550.211C529.732 550.211 529.176 553.154 529.176 564.112C529.176 575.149 529.732 578.013 531.9 578.013C533.372 578.013 535.48 576.382 536.474 574.453ZM547.67 582.209C547.67 581.434 549.54 572.664 551.787 562.641C555.824 545.319 556.222 544.544 560.557 545.081C564.833 545.558 565.608 547.188 569.347 563.177C574.398 584.695 574.398 583.621 570.122 583.621C567.935 583.621 566.165 581.832 565.449 578.948C564.594 575.607 563.043 574.294 559.702 574.294C556.063 574.294 555.128 575.309 555.128 578.948C555.128 582.369 554.114 583.621 551.389 583.621C549.381 583.621 547.67 582.985 547.67 582.209ZM562.506 564.589C562.426 562.322 561.651 559.141 560.637 557.669C559.165 555.422 558.847 555.641 558.847 558.902C558.787 561.09 558.31 564.191 557.693 565.822C556.917 567.771 557.534 568.785 559.562 568.785C561.412 568.785 562.506 567.214 562.506 564.589ZM343.054 577.158C341.801 572.186 341.662 572.186 338.162 575.308C334.344 578.788 333.35 577.237 336.293 572.504C337.605 570.475 336.83 569.243 333.031 567.612C328.437 565.504 328.378 565.364 332.097 565.205C336.691 565.046 339.236 562.163 336.452 560.473C332.872 558.285 334.344 555.561 338.003 557.51C342.04 559.678 343.75 558.445 343.909 553.155C344.068 549.973 344.367 550.132 345.918 554.407C347.549 558.683 348.324 559.141 351.446 557.51C354.628 555.8 354.947 556.118 353.853 560.314C352.918 564.112 353.296 565.047 356.1 565.126C359.123 565.206 359.063 565.445 355.484 567.453C352.381 569.164 351.825 570.416 353.296 572.962C355.325 576.7 352.302 577.635 350.035 573.896C349.12 572.425 347.946 573.438 346.475 577.018C344.287 582.288 344.287 582.288 343.054 577.158ZM611.686 576.382C610.672 573.041 609.896 572.742 607.709 574.532C604.229 577.396 602.12 575.228 605.004 571.728C606.794 569.62 606.396 568.845 603.055 567.771C598.939 566.439 598.938 566.439 603.214 564.192C606.018 562.72 606.794 561.388 605.382 560.612C601.584 558.206 603.055 555.561 607.013 557.669C610.195 559.379 611.05 558.981 612.302 555.421C613.933 551.225 613.933 551.226 615.166 555.342C616.26 558.763 617.115 559.14 620.078 557.589C624.035 555.421 624.97 557.51 621.55 560.93C619.839 562.561 620.377 563.495 623.797 564.728C628.232 566.359 628.232 566.359 624.195 567.691C620.694 568.785 620.377 569.621 621.928 572.584C624.036 576.462 621.232 577.794 618.905 574.055C618.129 572.663 616.797 573.438 615.325 576.242C613.078 580.498 613.078 580.499 611.765 576.382H611.686ZM252.947 508.409C252.947 492.102 253.643 483.709 254.796 484.405C255.89 485.101 256.666 494.985 256.666 507.713V529.848H699.685V510.358C699.685 494.349 700.163 490.928 702.489 490.928C704.737 490.928 705.214 494.508 705.214 512.227V533.506H252.947V508.409ZM762.687 523.562C762.687 523.185 763.94 521.853 765.491 520.54C767.897 518.591 768.136 518.67 767.201 521.236C766.187 523.881 762.687 525.67 762.687 523.562ZM272.436 513.242C273.609 507.952 273.132 506.48 269.413 503.676C265.058 500.255 265.058 500.255 270.885 500.255C275.777 500.176 277.03 499.241 278.88 494.209L280.987 488.144L283.553 494.209C285.562 498.863 287.272 500.176 291.309 500.255C296.519 500.335 296.519 500.335 292.164 503.915C288.366 507.097 288.047 508.269 289.758 513.161C292.005 519.525 291.548 519.844 285.482 515.787C281.365 513.162 280.59 513.162 276.016 516.185C271.044 519.446 271.044 519.446 272.436 513.242ZM666.454 517.418C666.514 516.643 667.23 514.235 668.085 512.227C669.159 509.582 668.543 507.335 665.739 504.372C661.94 500.176 661.94 500.176 666.912 500.176C670.79 500.176 672.42 498.863 674.29 494.209L676.776 488.224L678.883 494.209C680.653 499.241 681.827 500.176 686.878 500.176C692.784 500.176 692.784 500.175 687.972 503.994C683.855 507.176 683.378 508.489 684.929 512.447C687.415 519.069 687.256 519.207 681.906 515.647C677.392 512.684 676.776 512.764 671.724 515.727C668.781 517.497 666.375 518.273 666.454 517.418ZM700.938 487.826C700.242 487.13 699.685 484.267 699.685 481.383C699.685 476.093 699.685 476.093 611.129 476.093C252.172 475.954 258.138 475.875 255.512 479.355C253.325 482.318 253.086 482.079 253.027 477.505C253.027 472.374 253.026 472.374 479.08 472.453H705.214V480.766C705.214 488.522 703.881 490.789 700.938 487.826ZM367.376 453.88L278.72 452.945L284.488 444.254C288.286 438.587 291.15 435.862 292.94 436.558C294.431 437.095 295.584 436.558 295.584 435.385C295.584 434.232 294.809 433.753 293.715 434.39C292.721 435.006 291.945 434.768 291.945 433.694C291.945 430.89 300.715 424.666 308.173 422.18C311.971 420.947 320.065 416.909 326.19 413.25C332.335 409.531 343.671 403.307 351.526 399.429C359.282 395.551 367.376 390.58 369.464 388.313C377.459 379.861 388.655 356.315 392.93 338.914C396.411 324.774 401.243 292.697 401.243 283.608C401.243 282.594 405.817 279.631 411.485 277.085C421.13 272.651 422.124 272.571 429.284 275.057C433.48 276.529 440.619 277.781 445.133 277.781H453.287L452.034 311.569C451.418 330.203 450.105 346.212 449.25 347.226C448.315 348.161 447.619 368.267 447.619 391.892C447.619 440.357 446.287 437.095 466.094 439.899C477.37 441.53 478.225 441.609 492.047 441.211C504.098 440.833 504.098 440.833 499.186 436.717C494.215 432.52 494.214 432.521 493.14 385.289C492.504 359.257 491.51 324.158 490.953 307.214L489.799 276.369L497.874 275.515C506.803 274.6 528.638 276.926 537.727 279.79C544.011 281.818 547.909 288.342 547.511 296.336C547.133 307.612 550.395 327.259 553.497 331.535C555.287 334.101 557.693 339.928 558.707 344.502C563.361 365.721 567.08 372.86 577.879 381.551C583.646 386.145 591.719 394.298 595.836 399.588C602.279 407.9 604.765 409.691 613.933 412.316C619.84 414.026 628.769 418.461 633.9 422.259C638.951 426.077 649.352 432.679 657.048 437.035C670.65 444.631 678.943 451.095 677.313 452.725C675.921 454.038 460.585 454.814 367.376 453.88ZM649.67 446.342C649.67 444.254 648.815 443.001 647.8 443.638C646.707 444.334 645.931 446.044 645.931 447.516C645.931 448.908 646.707 450.161 647.8 450.161C648.815 450.161 649.67 448.45 649.67 446.342ZM475.421 446.581C475.421 445.726 474.188 444.493 472.617 443.856C470.927 443.24 469.833 443.856 469.833 445.566C469.833 447.038 471.066 448.291 472.617 448.291C474.188 448.291 475.421 447.516 475.421 446.581ZM330.227 416.293C329.691 415.04 329.233 416.055 329.233 418.62C329.233 421.186 329.691 422.18 330.227 420.947C330.705 419.634 330.705 417.606 330.227 416.293ZM592.177 419.555C592.177 417.984 591.322 416.751 590.308 416.751C589.313 416.751 588.458 417.984 588.458 419.555C588.458 421.106 589.313 422.339 590.308 422.339C591.322 422.339 592.177 421.106 592.177 419.555ZM537.488 411.163C538.96 408.836 537.249 408.835 532.755 411.241C530.727 412.315 529.176 414.026 529.176 415.041C529.176 417.149 535.619 414.106 537.488 411.163ZM530.11 401.915C530.727 400.9 529.872 400.045 528.241 400.045C526.531 400.045 525.755 400.9 526.391 401.915C527.008 402.929 527.863 403.784 528.241 403.784C528.639 403.784 529.414 402.929 530.11 401.915ZM408.462 366.019C410.013 364.15 410.013 362.996 408.224 361.524C406.434 360.112 405.897 360.67 405.897 364.09C405.897 369.36 405.817 369.281 408.462 366.019ZM470.132 433.694C468.282 432.441 467.646 427.012 467.805 411.938C467.964 400.821 467.347 377.992 466.572 361.127C465.796 344.343 465.16 318.49 465.16 303.714V276.846H486.836L485.842 304.648C485.285 319.882 484.589 343.806 484.271 357.707C483.973 371.608 483.197 382.724 482.561 382.346C481.944 381.948 481.009 392.29 480.473 405.256C479.24 434.768 477.828 438.586 470.132 433.694ZM456.39 392.668C454.759 377.912 454.6 291.444 456.151 283.449C456.867 280.188 458.497 277.781 460.049 277.781C462.455 277.781 462.614 284.224 461.52 326.404C460.824 353.132 459.651 381.711 458.955 389.864L457.702 404.719L456.39 392.668ZM450.105 378.607C449.469 377.056 449.866 374.809 451.04 373.636C452.67 372.084 453.128 372.781 453.128 376.52C453.128 382.108 451.815 383.042 450.105 378.607ZM255.89 237.769C249.825 231.704 253.722 214.7 261.1 214.7C268.399 214.7 271.044 235.124 264.203 238.783C259.549 241.269 259.311 241.19 255.89 237.769ZM263.189 227.667C263.189 224.326 262.115 221.143 260.862 220.765C259.231 220.209 258.535 222.317 258.535 227.667C258.535 233.036 259.231 235.204 260.862 234.667C262.115 234.19 263.189 231.088 263.189 227.667ZM272.595 237.769C268.558 233.812 268.479 216.569 272.436 216.569C274.544 216.569 275.24 218.817 275.24 225.798C275.24 230.929 276.095 235.125 277.09 235.125C278.104 235.125 278.959 230.929 278.959 225.798C278.959 218.817 279.655 216.569 281.763 216.569C285.641 216.569 285.561 233.812 281.604 237.769C279.973 239.321 277.945 240.652 277.09 240.652C276.234 240.652 274.226 239.321 272.595 237.769ZM303.042 228.284C303.042 216.57 303.042 216.569 308.551 216.569C311.673 216.569 314.159 217.425 314.159 218.419C314.159 219.433 312.449 220.288 310.42 220.288C308.412 220.288 306.701 221.541 306.701 223.092C306.701 224.643 308.332 225.877 310.42 225.877C312.449 225.877 314.159 226.653 314.159 227.667C314.159 228.761 312.449 229.536 310.42 229.536C308.412 229.536 306.701 230.769 306.701 232.34C306.701 233.891 308.332 235.125 310.42 235.125C316.247 235.125 314.775 238.306 308.551 239.241C303.042 240.016 303.042 240.017 303.042 228.284ZM348.563 237.769C342.517 231.704 346.395 214.7 353.773 214.7C361.072 214.7 363.717 235.124 356.876 238.783C352.222 241.269 351.984 241.19 348.563 237.769ZM355.862 227.667C355.862 224.326 354.788 221.143 353.535 220.765C351.904 220.209 351.208 222.317 351.208 227.667C351.208 233.036 351.904 235.204 353.535 234.667C354.788 234.19 355.862 231.088 355.862 227.667ZM474.964 238.704C469.912 235.741 470.37 219.275 475.501 216.49C479.776 214.223 484.669 216.868 484.669 221.462C484.669 225.022 481.566 224.644 480.154 220.826C479.081 218.042 478.683 218.042 477.211 220.368C474.884 224.028 474.964 229.855 477.45 233.255C478.921 235.363 479.617 235.522 480.314 233.732C481.785 229.994 486.618 230.928 485.206 234.667C483.038 240.414 480.015 241.647 474.964 238.704ZM498.411 238.007C490.496 232.26 496.561 210.823 504.635 215.854C509.527 218.977 510.144 236.059 505.411 238.624C502.845 240.016 500.896 239.857 498.411 238.007ZM505.013 227.587C505.013 222.317 504.237 220.288 502.308 220.288C499.425 220.288 498.112 233.115 500.677 235.68C503.163 238.166 505.013 234.667 505.013 227.587ZM567.159 237.61C564.833 235.284 564.594 234.11 566.304 232.559C567.935 231.007 568.73 231.087 569.426 232.798C569.804 234.031 571.355 235.044 572.847 235.044C576.406 235.044 574.08 229.914 569.963 228.602C566.006 227.369 564.057 223.251 565.449 219.513C567.637 213.924 576.029 214.084 578.117 219.672C578.972 221.919 578.276 222.317 574.538 221.382C568.651 219.91 568.571 222.695 574.538 226.573C580.066 230.233 580.603 236.058 575.631 238.783C570.978 241.269 570.739 241.19 567.159 237.61ZM613.237 239.241C612.143 238.465 610.592 235.204 609.896 231.863C608.345 224.942 615.107 209.172 619.601 209.172C621.629 209.172 621.769 209.729 620.138 211.658C618.587 213.607 618.746 214.779 620.854 216.569C622.624 218.041 623.638 222.079 623.638 227.508C623.638 238.545 619.442 243.278 613.237 239.241ZM619.601 226.573C619.283 222.616 618.209 219.354 617.195 219.354C615.027 219.354 613.615 230.391 615.246 234.667C617.274 239.857 620.297 234.19 619.601 226.573ZM670.571 239.48C667.687 238.306 665.52 227.288 667.071 221.382C668.383 216.013 674.608 213.448 678.406 216.63C682.682 220.21 682.066 236.377 677.551 238.783C675.622 239.797 673.673 240.652 673.355 240.493C673.057 240.414 671.804 239.937 670.571 239.48ZM677.094 228.284C676.239 218.499 671.883 217.883 671.883 227.508C671.883 233.196 672.579 235.125 674.767 235.125C676.934 235.125 677.551 233.494 677.094 228.284ZM206.63 232.798C207.426 229.457 208.659 224.485 209.276 221.681C210.986 213.925 215.5 215.396 217.827 224.484C218.921 228.76 220.233 233.812 220.77 235.602C221.406 237.69 220.71 238.783 218.841 238.783C217.21 238.783 215.878 238.008 215.878 236.994C215.878 235.9 214.645 235.125 213.173 235.125C211.602 235.125 210.369 235.9 210.369 236.994C210.369 238.008 209.196 238.783 207.724 238.783C205.716 238.783 205.397 237.451 206.63 232.798ZM223.336 227.667C223.336 216.57 223.336 216.569 228.864 216.569C231.967 216.569 234.452 217.425 234.452 218.419C234.452 219.433 232.742 220.288 230.713 220.288C228.705 220.288 226.995 221.541 226.995 223.092C226.995 224.643 228.705 225.877 230.713 225.877C232.742 225.877 234.452 226.653 234.452 227.667C234.452 228.761 232.742 229.536 230.713 229.536C228.705 229.536 226.995 230.769 226.995 232.34C226.995 233.891 228.625 235.125 230.654 235.125C232.583 235.125 234.77 235.98 235.387 236.994C236.003 238.088 233.836 238.863 229.858 238.863C223.335 238.863 223.336 238.863 223.336 227.667ZM237.873 227.587C237.256 216.41 237.256 216.411 243.699 216.948C250.222 217.485 250.222 217.485 250.6 228.144C250.998 238.306 248.353 243.277 247.12 234.746C246.186 228.839 241.83 228.224 241.83 234.031C241.83 243.835 238.489 238.385 237.873 227.587ZM245.569 223.013C245.569 221.542 244.714 220.288 243.699 220.288C242.685 220.288 241.83 221.542 241.83 223.013C241.83 224.564 242.685 225.798 243.699 225.798C244.714 225.798 245.569 224.564 245.569 223.013ZM286.337 227.508C286.337 216.332 286.337 216.331 292.323 216.868C297.454 217.425 298.468 218.34 299.005 222.695C299.462 226.732 298.687 228.224 295.743 228.92C293.178 229.616 291.945 231.485 291.945 234.349C291.945 237.073 290.851 238.783 289.141 238.783C286.973 238.783 286.337 236.297 286.337 227.587V227.508ZM295.584 223.013C295.584 221.542 294.809 220.288 293.715 220.288C292.721 220.288 291.945 221.542 291.945 223.013C291.945 224.564 292.721 225.798 293.715 225.798C294.809 225.798 295.584 224.564 295.584 223.013ZM316.008 227.667C316.008 216.57 316.008 216.569 322.471 216.569C326.031 216.569 329.074 216.788 329.154 217.027C329.233 217.265 329.611 222.238 330.088 228.144C330.705 236.755 330.386 238.783 328.06 238.783C326.349 238.783 325.256 237.073 325.256 234.11C325.256 231.624 324.401 229.536 323.406 229.536C322.392 229.536 321.537 231.624 321.537 234.11C321.537 236.993 320.523 238.783 318.812 238.783C316.645 238.783 316.008 236.298 316.008 227.667ZM325.256 223.013C325.256 221.542 324.401 220.288 323.406 220.288C322.392 220.288 321.537 221.542 321.537 223.013C321.537 224.564 322.392 225.798 323.406 225.798C324.401 225.798 325.256 224.564 325.256 223.013ZM336.372 229.536C336.372 222.536 335.676 220.288 333.568 220.288C332.097 220.288 330.864 219.433 330.864 218.419C330.864 217.425 334.205 216.569 338.242 216.569C342.358 216.569 345.62 217.425 345.62 218.419C345.62 219.433 344.367 220.288 342.895 220.288C340.807 220.288 340.091 222.536 340.091 229.536C340.091 234.587 339.236 238.783 338.242 238.783C337.227 238.783 336.372 234.587 336.372 229.536ZM369.782 227.667C369.782 219.056 370.399 216.569 372.487 216.569C374.675 216.569 375.291 219.056 375.291 227.667C375.291 236.298 374.675 238.783 372.487 238.783C370.399 238.783 369.782 236.298 369.782 227.667ZM377.16 227.667C377.16 215.238 380.959 212.295 384.996 221.602C387.183 226.732 387.183 226.732 387.879 221.602C389.112 212.295 391.996 216.411 391.996 227.667C391.996 240.176 388.257 243.06 384.837 233.255C383.763 230.153 382.589 227.667 382.211 227.667C381.814 227.667 381.894 230.153 382.351 233.255C382.987 237.451 382.43 238.783 380.183 238.783C377.697 238.783 377.16 236.676 377.16 227.667ZM397.584 229.536C397.584 224.405 396.729 220.288 395.715 220.288C394.721 220.288 393.865 219.433 393.865 218.419C393.865 217.425 396.729 216.569 400.308 216.569C403.868 216.569 406.831 217.425 406.831 218.419C406.831 219.433 405.976 220.288 404.962 220.288C403.948 220.288 403.093 224.405 403.093 229.536C403.093 236.517 402.397 238.783 400.308 238.783C398.2 238.783 397.584 236.517 397.584 229.536ZM408.701 227.667C408.701 216.57 408.701 216.569 415.303 216.569C419.181 216.569 421.428 217.345 420.732 218.419C420.116 219.433 417.928 220.288 415.999 220.288C411.266 220.288 411.326 224.027 416.079 225.26C418.087 225.797 419.798 226.97 419.798 227.905C419.798 228.76 418.087 229.536 416.079 229.536C414.05 229.536 412.34 230.769 412.34 232.34C412.34 234.03 414.13 235.044 417.013 235.044C419.579 235.044 421.667 235.899 421.667 236.914C421.667 237.928 418.724 238.783 415.144 238.783C408.701 238.783 408.701 238.784 408.701 227.667ZM423.536 227.587C423.536 216.331 423.536 216.331 429.522 216.868C435.488 217.484 435.568 217.564 436.125 228.144C436.582 238.306 433.699 243.516 432.466 234.746C431.531 228.839 427.176 228.224 427.176 234.031C427.176 236.676 426.4 238.783 425.326 238.783C424.312 238.783 423.536 233.811 423.536 227.587ZM432.784 223.013C432.784 221.542 431.531 220.288 429.98 220.288C428.429 220.288 427.176 221.542 427.176 223.013C427.176 224.564 428.429 225.798 429.98 225.798C431.531 225.798 432.784 224.564 432.784 223.013ZM440.162 227.667C440.162 214.999 443.881 212.374 447.142 222.536L449.091 228.602L449.25 222.536C449.548 211.658 453.128 216.252 453.128 227.667C453.128 240.335 449.469 243.059 446.208 232.798L444.278 226.732L444.04 232.798C443.722 243.676 440.162 239.082 440.162 227.667ZM455.614 236.297C456.151 234.885 457.165 229.854 457.861 225.101C458.796 218.658 459.969 216.569 462.375 216.569C464.782 216.569 466.333 219.354 468.361 227.667C470.449 236.298 470.529 238.783 468.739 238.783C467.427 238.783 466.015 237.769 465.557 236.456C464.941 234.666 463.927 234.666 460.824 236.456C455.773 239.479 454.381 239.399 455.534 236.297H455.614ZM488.388 227.667C488.388 221.542 489.183 216.569 490.257 216.569C491.271 216.569 492.047 221.542 492.047 227.667C492.047 233.892 491.271 238.783 490.257 238.783C489.183 238.783 488.388 233.892 488.388 227.667ZM512.471 227.667C512.471 214.999 516.13 212.374 519.391 222.536L521.34 228.602L521.499 222.536C521.877 211.658 525.456 216.252 525.456 227.667C525.456 240.335 521.718 243.059 518.456 232.798L516.527 226.732L516.368 232.798C516.05 243.676 512.471 239.082 512.471 227.667ZM528.559 234.667C531.9 219.971 533.292 216.569 535.619 216.569C537.19 216.569 539.119 219.832 540.292 224.406C541.445 228.761 542.778 233.811 543.315 235.521C543.872 237.689 543.235 238.783 541.306 238.783C539.735 238.783 538.423 237.928 538.423 236.914C538.423 235.899 537.19 235.044 535.619 235.044C534.147 235.044 532.834 235.899 532.834 236.914C532.834 237.928 531.661 238.783 530.269 238.783C528.479 238.783 527.942 237.451 528.559 234.667ZM544.787 230.471C543.474 221.601 544.568 216.569 547.591 216.569C548.684 216.569 549.539 220.687 549.539 225.798C549.539 233.892 550.077 235.044 553.258 235.044C555.287 235.044 556.997 235.899 556.997 236.914C556.997 238.007 554.511 238.783 551.469 238.783C546.497 238.783 545.96 238.167 544.787 230.471ZM581.08 227.667C581.08 219.056 581.697 216.569 583.785 216.569C585.972 216.569 586.589 219.056 586.589 227.667C586.589 236.298 585.972 238.783 583.785 238.783C581.697 238.783 581.08 236.298 581.08 227.667ZM588.458 227.667C588.458 217.803 588.836 216.569 592.177 216.569C594.902 216.569 595.916 217.802 595.916 221.064C595.916 227.507 599.257 228.76 599.953 222.615C600.251 219.513 601.822 217.266 603.751 216.868C606.555 216.41 607.013 217.803 607.013 227.508C607.013 239.559 603.373 243.596 603.135 231.863C602.975 224.644 602.598 224.942 600.649 233.732C599.177 240.494 596.85 240.176 594.364 232.798L592.257 226.732L592.794 232.798C593.191 236.835 592.575 238.783 590.944 238.783C589.154 238.783 588.458 235.681 588.458 227.667ZM627.377 227.667C627.377 214.999 631.016 212.374 634.357 222.536L636.306 228.602L636.465 222.536C636.763 211.658 640.343 216.252 640.343 227.667C640.343 240.414 636.226 243.278 633.124 232.798L631.414 226.732L631.255 232.798C630.936 243.755 627.377 239.002 627.377 227.667ZM651.459 227.826C651.459 216.63 651.539 216.569 656.809 216.569C663.034 216.569 663.889 218.121 663.65 229.536C663.571 237.531 663.332 237.928 657.505 238.465C651.46 239.002 651.459 239.002 651.459 227.826ZM660.767 232.34C660.767 230.769 659.534 229.536 657.982 229.536C656.431 229.536 655.179 230.769 655.179 232.34C655.179 233.812 656.431 235.044 657.982 235.044C659.534 235.044 660.767 233.812 660.767 232.34ZM658.917 223.013C658.917 221.542 658.062 220.288 657.048 220.288C656.034 220.288 655.179 221.542 655.179 223.013C655.179 224.564 656.034 225.798 657.048 225.798C658.062 225.798 658.917 224.564 658.917 223.013ZM683 227.667C683 219.056 683.617 216.569 685.784 216.569C687.892 216.569 688.588 218.817 688.588 225.798C688.588 233.892 689.046 235.044 692.228 235.044C694.336 235.044 695.966 235.899 695.966 236.914C695.966 237.928 693.023 238.783 689.523 238.783C683 238.783 683 238.784 683 227.667ZM697.836 227.667C697.836 221.462 698.612 216.569 699.685 216.569C700.7 216.569 701.555 221.462 701.555 227.667C701.555 233.892 700.7 238.783 699.685 238.783C698.612 238.783 697.836 233.892 697.836 227.667ZM707.382 231.863C703.742 217.425 703.662 216.569 706.148 216.569C707.461 216.569 709.171 219.673 709.947 223.471L711.339 230.471L713.129 223.471C714.064 219.673 715.933 216.569 717.245 216.569C719.194 216.569 719.115 218.817 716.867 227.667C713.606 240.494 709.947 242.125 707.382 231.863ZM718.26 237.371C718.26 236.596 719.353 231.863 720.666 226.732C724.086 213.448 728.362 213.447 731.305 226.652C733.632 236.834 732.558 242.125 729.297 236.835C727.885 234.667 726.891 234.587 723.848 236.456C719.572 239.161 718.18 239.32 718.26 237.371ZM734.885 227.667C734.885 216.57 734.885 216.569 741.408 216.569C745.286 216.569 747.931 217.484 747.931 218.896C748.01 220.129 748.408 225.102 748.786 229.994C749.403 236.835 749.024 238.783 746.857 238.783C745.226 238.783 744.132 236.994 744.132 234.19C744.132 231.625 743.357 229.536 742.343 229.536C741.328 229.536 740.016 231.625 739.399 234.19C737.291 242.503 734.885 239.002 734.885 227.667ZM744.132 223.013C744.132 221.542 743.357 220.288 742.263 220.288C741.249 220.288 740.473 221.542 740.473 223.013C740.473 224.564 741.249 225.798 742.263 225.798C743.357 225.798 744.132 224.564 744.132 223.013ZM698.134 212.752C698.612 211.36 700.083 209.968 701.396 209.49C702.808 209.033 703.504 209.728 703.026 211.121C702.569 212.453 701.097 213.925 699.765 214.382C698.373 214.78 697.677 214.144 698.134 212.752ZM618.746 609.951C620.297 607.465 617.732 598.377 615.564 598.377C610.831 598.457 608.345 601.718 609.578 606.53C610.751 611.104 616.658 613.371 618.746 609.951ZM330.864 605.278C330.864 604.045 331.321 601.24 331.938 599.073C332.713 595.97 332.017 594.956 328.378 594.26C324.798 593.564 323.466 594.261 322.631 597.284C320.92 603.647 321.378 605.437 324.798 606.371C330.307 607.763 330.864 607.704 330.864 605.278ZM631.712 606.53C633.979 605.675 634.138 604.423 632.647 600.087C630.718 594.559 628.391 593.485 624.036 596.19C622.325 597.363 622.166 598.994 623.559 602.732C625.507 607.764 626.9 608.4 631.712 606.53ZM315.392 590.443C311.196 588.812 309.565 589.985 307.715 596.05C306.701 599.391 307.397 600.624 310.738 601.877C314.537 603.269 315.312 602.732 317.102 597.681C318.892 592.55 318.733 591.696 315.392 590.443ZM645.553 602.334C649.113 600.087 646.408 590.999 642.133 590.999C637.618 590.999 636.067 593.862 637.479 599.391C638.632 604.044 641.277 605.059 645.553 602.334ZM661.005 596.428C661.164 591.377 657.982 585.331 655.735 586.186C654.244 586.802 652.235 587.26 651.3 587.26C649.749 587.26 650.764 595.195 652.693 598.755C653.468 600.087 661.005 597.979 661.005 596.428ZM303.042 593.565C305.15 588.036 304.434 586.186 299.622 584.933C294.65 583.7 290.851 593.862 295.286 596.428C300.019 599.232 301.093 598.755 303.042 593.565ZM672.659 592.232C675.622 590.064 675.761 589.209 673.514 585.013C671.426 581.135 670.173 580.578 666.832 581.831C663.193 583.223 662.954 583.999 664.744 589.05C666.912 595.335 667.846 595.732 672.659 592.232ZM289.678 587.499C291.309 582.766 291.011 581.911 287.272 580.201C283.473 578.411 282.698 578.868 280.669 583.84C278.72 588.513 278.8 589.746 280.908 591.079C285.402 593.942 287.749 593.008 289.678 587.499ZM688.509 583.92C688.429 583.224 687.415 580.817 686.182 578.649C684.392 575.527 683.08 575.07 679.659 576.303C675.622 577.874 675.543 578.092 678.327 583.541C680.813 588.354 681.827 588.891 684.929 587.181C686.878 586.187 688.509 584.695 688.509 583.92ZM276.016 581.99C278.661 576.939 278.502 576.542 274.226 574.593C270.428 572.903 269.413 573.12 267.862 576.083C264.442 582.447 265.913 586.405 271.899 587.101C272.675 587.181 274.544 584.853 276.016 581.99ZM700.48 573.976C697.358 568.07 697.139 567.93 692.168 570.635C688.827 572.425 688.747 572.962 691.313 578.013C693.858 582.906 694.654 583.223 698.691 581.354C702.966 579.425 703.026 579.028 700.48 573.976ZM264.123 573.042C264.123 571.729 262.413 569.779 260.484 568.785C257.362 567.075 256.348 567.613 254.021 572.107C251.456 577.158 251.535 577.635 255.353 579.425C259.688 581.434 264.123 578.172 264.123 573.042ZM712.592 574.373C714.919 572.902 714.919 571.967 712.592 566.916C710.026 561.626 709.569 561.387 706.228 563.813C703.106 566.06 702.887 567.134 704.816 571.271C707.143 576.541 708.396 577.018 712.592 574.373ZM249.208 570.715C251.933 565.504 251.615 563.575 247.498 561.327C244.396 559.677 243.381 560.234 240.975 564.887C238.41 569.939 238.41 570.556 241.373 572.266C245.947 574.991 247.041 574.752 249.208 570.715ZM724.544 567.612C728.124 566.22 728.283 563.097 725.021 558.682C722.993 555.878 721.839 555.64 718.578 557.43C715.157 559.22 714.839 560.154 716.708 564.112C718.876 569.004 719.811 569.402 724.544 567.612ZM236.62 562.164C238.41 558.206 238.251 557.132 235.228 554.944C232.046 552.617 231.35 552.856 228.466 557.271C225.364 561.944 225.364 562.401 228.307 564.589C232.822 567.85 234.293 567.454 236.62 562.164ZM740.473 557.351C740.473 556.655 738.842 554.169 736.834 551.763C733.572 547.726 733.015 547.645 730.231 550.449C727.348 553.233 727.348 553.791 730.231 558.205C732.936 562.322 733.871 562.641 736.913 560.771C738.842 559.538 740.473 557.987 740.473 557.351ZM224.031 554.865C226.835 550.589 226.756 550.211 222.958 547.566C219.139 544.842 218.682 545.001 215.579 549.734C212.457 554.487 212.398 554.944 215.341 557.131C219.696 560.313 220.631 560.075 224.031 554.865ZM751.033 551.604C752.744 550.212 752.604 548.819 750.337 545.399C744.829 536.927 736.973 541.501 741.945 550.211C744.829 555.263 746.062 555.422 751.033 551.604ZM214.029 542.992C214.029 542.355 212.457 540.805 210.528 539.651C207.645 537.782 206.412 538.159 202.991 541.739C198.954 546.094 198.954 546.095 203.23 549.118C207.267 552.001 207.724 551.922 210.767 548.183C212.537 546.015 214.029 543.688 214.029 542.992ZM764.477 541.281C764.477 540.585 762.766 538.021 760.758 535.614C757.795 531.955 756.641 531.637 754.314 533.506C750.814 536.469 750.814 538.875 754.533 542.992C756.86 545.557 758.431 545.936 761.056 544.464C762.926 543.45 764.477 542.057 764.477 541.281ZM199.73 538.16C202.912 533.824 202.832 533.586 199.034 531.558C195.772 529.788 194.44 530.086 191.099 533.427C187.221 537.384 187.221 537.464 190.801 540.109C195.454 543.529 195.852 543.449 199.73 538.16ZM188.772 522.867C184.198 519.526 181.931 519.904 179.067 524.577C176.88 528.077 176.959 528.932 179.922 531.02C182.786 533.128 183.88 532.89 187.599 529.39C191.715 525.512 191.795 525.114 188.772 522.867ZM177.655 512.843C175.329 510.278 173.857 509.96 171.053 511.451C165.783 514.235 164.689 518.83 168.647 521.693C171.689 523.881 172.684 523.722 176.422 520.222C180.38 516.503 180.459 515.946 177.655 512.843ZM794.307 515.787C796.256 513.381 796.017 512.227 792.676 508.886C788.878 505.148 788.48 505.068 785.537 508.031C782.574 510.974 782.574 511.372 785.835 514.872C789.892 519.446 791.125 519.526 794.307 515.787ZM166.081 510.12C168.647 507.793 169.044 506.242 167.573 503.597C165.167 499.102 161.746 499.181 157.55 503.835C154.825 506.857 154.666 508.031 156.536 510.279C159.558 513.938 161.965 513.858 166.081 510.12ZM804.091 499.798C800.532 495.9 797.727 495.523 794.625 498.625C792.835 500.335 793.293 501.807 796.415 505.148C800.134 509.125 800.611 509.184 803.793 506.321C806.975 503.437 806.975 502.98 804.171 499.878L804.091 499.798ZM155.442 490.63C150.868 485.817 150.311 485.738 146.194 488.383C141.541 491.406 142.078 494.667 148.461 501.031C151.245 503.835 151.802 503.756 155.919 499.878C160.334 495.761 160.334 495.761 155.442 490.63ZM814.114 494.588C816.143 491.406 815.825 490.55 811.708 487.826C807.373 484.962 806.736 484.963 803.952 487.747C801.227 490.472 801.387 491.008 805.503 494.429C811.091 499.102 811.33 499.102 814.114 494.588ZM143.49 483.948C147.049 480.985 147.209 480.289 144.882 477.028C142.316 473.607 141.998 473.607 137.345 476.649C133.149 479.354 132.85 480.289 134.779 483.471C137.583 487.985 138.438 487.985 143.49 483.948ZM823.839 480.527C823.839 479.135 822.129 477.107 819.941 475.954C816.759 474.243 815.446 474.463 812.961 476.869C810.157 479.753 810.316 480.209 814.353 483.63C819.006 487.448 823.839 485.817 823.839 480.527ZM137.663 465.612C135.793 461.655 135.396 461.576 130.365 464.141C124.379 467.243 124.299 467.403 127.322 472.215C129.43 475.556 129.808 475.636 134.541 472.832C138.896 470.266 139.294 469.271 137.663 465.612ZM831.217 470.505C832.927 467.482 832.37 466.467 827.637 464.061C822.427 461.336 822.049 461.417 820.1 465.076C818.947 467.164 818.231 469.193 818.628 469.411C820.339 470.823 826.782 474.084 827.955 474.163C828.731 474.163 830.203 472.533 831.217 470.505ZM130.583 453.721C128.336 449.465 125.233 449.146 120.56 452.566C117.776 454.575 117.537 455.669 119.327 459.089C121.415 462.888 121.813 462.968 127.024 460.244C131.757 457.837 132.294 456.843 130.583 453.721ZM838.674 457.538C840.305 454.495 839.748 453.502 835.095 451.095C829.805 448.371 829.427 448.45 827.399 452.248C825.609 455.589 825.847 456.683 828.651 458.771C833.305 462.192 836.407 461.814 838.674 457.538ZM120.342 447.973C125.393 445.647 125.771 444.791 123.981 440.058C121.495 433.615 110.856 439.441 112.964 446.043C114.435 450.776 114.276 450.697 120.342 447.893V447.973ZM845.197 444.413C845.893 442.305 846.132 440.356 845.814 440.137C845.436 439.898 842.95 438.805 840.305 437.651C836.029 435.782 835.254 436.021 833.464 439.819C831.833 443.399 832.152 444.413 835.552 446.043C841.698 448.987 843.865 448.609 845.197 444.413ZM115.449 434.072C120.799 432.6 120.421 425.301 114.893 424.605C109.225 423.889 105.963 426.774 107.355 431.348C108.767 435.624 109.145 435.782 115.449 434.072ZM849.93 431.348C852.118 427.231 849.931 424.208 844.72 424.128C843.408 424.128 841.856 423.969 841.24 423.671C840.524 423.353 839.291 425.143 838.436 427.47C837.203 430.89 837.66 431.984 841.001 433.376C847.067 435.783 847.604 435.623 849.93 431.268V431.348ZM114.733 414.185C114.037 412.017 113.421 410.069 113.262 409.91C113.182 409.751 110.776 410.068 107.912 410.605C104.174 411.321 102.861 412.713 102.861 415.736C102.861 421.483 104.253 422.259 110.478 420.091C114.893 418.54 115.747 417.446 114.733 414.185ZM854.524 416.592C855.996 411.779 855.3 411.083 848.697 410.605C844.879 410.307 843.248 411.162 842.711 413.727C841.379 420.469 852.416 423.115 854.524 416.592ZM111.711 401.219C111.015 396.407 99.1223 394.139 99.1223 398.892C99.1223 404.938 101.151 406.807 106.739 405.952C111.174 405.335 112.168 404.321 111.711 401.219ZM857.925 401.438C859.098 396.625 858.78 396.326 852.655 396.326C846.987 396.326 846.132 396.943 846.132 400.821C846.132 404.401 847.206 405.494 851.183 405.952C853.967 406.349 856.374 406.568 856.453 406.568C856.613 406.568 857.229 404.242 857.925 401.438ZM106.122 391.435C108.906 390.719 110.239 388.949 110.239 385.906C110.239 382.108 109.384 381.491 103.796 381.491C97.8098 381.491 97.2527 381.949 97.2527 387.08C97.2527 392.747 98.6647 393.443 106.122 391.435ZM859.496 388.014C860.57 382.347 859.794 381.491 853.192 381.491C848.837 381.491 847.922 382.347 847.922 385.986C847.922 390.182 850.09 391.733 856.533 392.429C857.706 392.508 859.019 390.58 859.496 388.014ZM108.051 372.701C107.594 368.664 106.361 367.491 102.384 367.034C97.8098 366.497 97.2527 367.033 97.2527 372.084C97.2527 377.215 97.8893 377.832 102.941 377.832C108.052 377.832 108.608 377.295 108.051 372.701ZM860.968 372.243C860.968 367.272 860.351 366.716 855.3 366.716C849.473 366.716 846.748 370.056 848.618 375.028C849.234 376.659 852.038 377.832 855.3 377.832C860.351 377.832 860.968 377.215 860.968 372.243ZM109.384 359.119C110.855 354.525 110.856 354.524 103.318 353.132C97.5711 352.038 97.2527 352.277 97.2527 357.487C97.2527 362.379 97.8892 362.997 102.702 362.997C106.58 362.997 108.529 361.903 109.384 359.119ZM860.888 359.735C860.888 354.207 858.402 352.198 853.033 353.212C849.155 353.908 847.982 355.221 847.982 358.562C847.982 362.38 848.836 362.997 854.445 362.997C859.416 362.997 860.888 362.221 860.888 359.735ZM110.776 344.581C111.949 339.928 110.776 338.914 104.412 338.914C100.057 338.914 99.1223 339.689 99.1223 343.487C99.1223 347.385 99.9772 348.16 104.492 348.16C108.21 348.16 110.08 347.067 110.776 344.581ZM859.098 345.516C859.098 339.609 857.09 337.661 851.561 338.516C847.286 339.152 846.132 340.226 846.132 343.727C846.132 347.545 846.987 348.16 852.575 348.16C856.931 348.16 859.098 347.305 859.098 345.516ZM113.659 329.984C114.355 325.092 105.347 321.89 102.702 326.086C99.8977 330.442 100.753 333.007 105.188 333.862C111.392 335.035 112.963 334.399 113.659 329.984ZM856.692 332.55C856.931 332.391 856.533 330.282 855.996 327.956C854.982 324.376 853.967 323.839 849.234 324.853C842.234 326.245 842.314 326.086 843.646 331.217C844.581 334.797 845.575 335.174 850.468 334.18C853.669 333.464 856.453 332.769 856.692 332.55ZM117.617 315.228C117.696 313.895 115.449 312.026 112.804 311.032C107.196 308.844 107.435 308.765 105.804 314.134C104.79 317.396 105.565 318.489 109.682 319.881C114.972 321.671 117.617 320.199 117.617 315.228ZM852.953 318.489C853.192 318.489 852.496 316.382 851.323 313.816C849.692 310.316 848.22 309.462 845.356 310.317C839.748 312.027 838.675 313.438 839.828 317.853C840.763 321.353 841.618 321.671 846.749 320.199C849.93 319.265 852.735 318.489 852.953 318.489ZM122.191 304.191C123.444 300.929 119.089 296.256 114.654 296.256C111.174 296.256 109.384 303.793 112.327 305.742C116.444 308.307 120.878 307.611 122.191 304.191ZM843.805 306.2C848.618 304.887 848.837 303.794 845.356 298.981C841.777 294.089 832.927 297.747 834.399 303.574C835.493 307.611 837.044 307.989 843.805 306.2ZM128.734 290.748C130.424 287.646 129.887 286.71 125.154 284.304C119.944 281.579 119.566 281.58 117.537 285.458C115.748 288.799 115.907 289.892 118.711 291.92C123.444 295.401 126.467 295.024 128.734 290.748ZM837.66 292.617C841.856 290.986 842.174 290.291 840.305 286.234C838.436 282.197 837.74 281.977 833.385 283.827C830.66 284.921 828.174 286.094 827.876 286.313C826.623 287.088 829.666 294.406 831.296 294.406C832.151 294.406 835.015 293.631 837.581 292.617H837.66ZM134.322 280.646C134.322 280.188 134.779 278.717 135.396 277.225C135.953 275.674 134.481 273.268 131.756 271.478C127.242 268.614 126.944 268.613 124.915 272.491C123.126 275.832 123.364 276.927 126.168 278.935C129.35 281.262 134.322 282.356 134.322 280.646ZM831.436 279.491C834.319 277.94 834.638 276.847 833.067 273.964C830.819 269.688 827.717 269.389 822.904 272.889C819.861 275.057 819.722 275.912 821.81 278.478C824.774 281.978 826.464 282.116 831.436 279.491ZM142.714 267.142C144.643 264.497 144.345 263.403 140.367 260.38C135.793 256.721 135.635 256.721 133.069 260.221C130.742 263.403 130.901 264.178 134.481 267.062C139.373 271.019 139.831 271.1 142.714 267.142ZM823.282 267.062C827.18 263.94 827.26 263.721 824.137 259.903C820.955 256.105 820.717 256.104 816.839 259.286C812.185 263.025 811.788 264.954 814.969 268.136C817.853 270.94 818.39 270.86 823.282 267.062ZM151.106 256.343C153.115 253.917 152.876 252.764 149.456 249.423C145.737 245.684 145.28 245.624 142.316 248.567C139.453 251.511 139.453 251.909 142.634 255.488C146.751 259.983 147.984 260.062 151.106 256.343ZM815.447 254.474C819.006 251.749 819.006 251.75 815.447 248.17C811.867 244.69 811.788 244.69 807.432 248.249C803.793 251.212 803.475 252.286 805.344 254.633C808.208 258.053 810.773 258.053 815.447 254.474ZM160.414 245.227C162.363 242.821 162.124 241.647 158.783 238.306C154.984 234.587 154.587 234.508 151.643 237.451C148.68 240.335 148.68 240.792 151.882 244.292C155.999 248.886 157.232 248.946 160.414 245.227ZM805.961 242.82C808.844 239.638 808.844 239.241 805.802 236.517C802.858 233.812 802.162 233.891 798.205 237.153C794.545 240.017 794.148 241.189 796.097 243.437C799.12 247.175 802.242 246.937 805.961 242.82ZM171.451 232.4C171.451 231.167 169.74 228.602 167.712 226.732C164.073 223.471 163.834 223.471 161.348 226.891C159.021 230.073 159.181 230.928 162.601 234.587C166.559 238.862 171.451 237.61 171.451 232.4ZM795.162 233.195C798.344 229.695 798.423 229.218 795.48 226.275C792.517 223.391 792.06 223.391 788.321 227.209C785 230.55 784.682 231.703 786.69 234.11C789.813 237.849 791.046 237.689 795.162 233.195ZM180.777 224.802C182.786 222.396 182.567 221.303 179.366 218.201C176.104 214.939 175.11 214.701 171.769 216.789C167.792 219.275 167.791 219.275 171.828 223.471C176.502 228.443 177.655 228.601 180.777 224.802ZM785 215.794C781.261 212.055 781.261 212.055 777.145 216.092C773.187 220.05 773.187 220.209 776.528 223.948C780.028 227.746 780.028 227.746 784.364 223.63C788.719 219.513 788.718 219.512 785 215.794ZM192.511 212.294C191.795 211.121 190.025 208.635 188.454 206.846C185.829 203.743 185.431 203.743 182.249 206.687C178.908 209.65 178.908 209.888 182.786 214.004C185.909 217.345 187.539 217.882 190.244 216.41C192.272 215.316 193.207 213.527 192.511 212.294ZM773.486 205.532C769.449 202.271 769.229 202.351 765.809 206.687C762.388 211.042 762.388 211.28 765.729 214.939C769.15 218.738 769.15 218.738 773.346 213.845C777.602 208.874 777.602 208.873 773.486 205.532ZM202.673 206.687C205 203.902 200.664 196.205 196.687 196.205C191.656 196.205 190.085 200.242 193.287 204.757C196.846 209.649 199.73 210.266 202.673 206.687ZM762.309 203.126C766.266 198.851 766.266 198.851 762.388 196.445C759.047 194.337 758.033 194.495 754.772 197.757C751.59 200.939 751.351 202.032 753.38 204.439C756.561 208.257 757.655 208.098 762.309 203.126ZM215.798 195.271C215.739 192.566 211.145 186.879 208.977 186.879C204.304 186.879 202.594 192.169 205.716 196.902C208.341 200.879 209.355 201.257 212.398 199.388C214.327 198.155 215.878 196.285 215.878 195.271H215.798ZM753.459 189.922C753.459 189.365 751.749 187.972 749.641 186.879C746.539 185.168 745.226 185.566 742.263 189.146C738.763 193.342 738.763 193.421 742.581 196.682C746.22 199.785 746.539 199.705 749.959 195.43C751.828 192.944 753.459 190.538 753.459 189.922ZM225.523 190C228.466 187.733 228.466 187.276 225.443 182.682C222.401 178.029 221.944 177.87 218.145 180.595C214.327 183.24 214.247 183.617 217.051 187.972C220.472 193.103 221.168 193.262 225.523 190ZM738.226 186.8C740.791 182.683 738.604 177.651 734.189 177.651C730.371 177.651 726.97 185.029 729.456 187.972C732.478 191.711 735.422 191.314 738.226 186.8ZM239.961 180.436C239.961 178.507 235.546 170.253 234.532 170.253C233.836 170.253 231.807 171.347 229.938 172.68C226.676 175.086 226.677 175.384 229.719 180.057C232.344 184.094 233.597 184.632 236.461 183.081C238.41 182.066 239.961 180.913 239.961 180.436ZM726.334 178.645C729.138 174.37 729.058 173.992 725.26 171.268C721.441 168.623 720.984 168.781 717.881 173.534C714.759 178.267 714.68 178.725 717.643 180.913C721.998 184.095 722.913 183.856 726.334 178.645ZM252.947 172.521C252.947 171.745 251.456 169.259 249.686 166.913C246.722 163.194 246.026 163.035 242.844 165.362C239.424 167.847 239.424 168.166 242.526 172.819C245.171 176.856 246.345 177.413 249.367 175.782C251.376 174.688 252.947 173.217 252.947 172.521ZM713.526 171.665C716.311 167.707 716.231 167.23 712.274 164.048C708.157 160.707 708.077 160.708 705.373 166.455C702.966 171.586 702.966 172.521 705.293 174.072C709.251 176.558 710.265 176.239 713.526 171.665ZM262.334 168.325C265.297 166.773 265.516 165.758 263.746 161.88C261.479 156.968 259.311 156.273 254.876 158.998C252.629 160.469 252.549 161.404 254.717 165.521C257.68 170.89 257.6 170.89 262.254 168.325H262.334ZM700.541 164.745C703.186 159.614 703.185 159.156 699.765 157.366C694.793 154.642 694.575 154.722 691.452 160.708C688.887 165.759 688.966 166.137 692.784 168.006C695.032 169.1 697.06 170.034 697.279 170.114C697.518 170.193 698.989 167.768 700.541 164.745ZM278.024 160.867C279.118 159.157 275.24 149.83 273.45 149.83C272.754 149.83 270.726 150.923 268.936 152.236C266.152 154.264 265.993 155.339 267.862 159.455C269.95 164.049 275.618 164.824 278.024 160.867ZM687.117 158.063C688.827 154.185 688.748 152.932 686.56 151.619C682.225 148.815 679.957 149.59 677.79 154.423C676.08 158.221 676.238 159.316 678.883 160.867C683.616 163.651 684.71 163.273 687.117 158.063ZM290.851 155.577C291.468 154.643 291.09 151.619 290.076 148.974C288.524 144.937 287.431 144.321 284.01 145.335C278.422 147.026 278.501 146.886 280.987 152.395C283.155 157.128 288.743 158.918 290.851 155.577ZM673.594 152.236C675.543 147.88 675.384 146.887 672.58 144.858C668.006 141.517 667.23 141.755 664.585 147.423C662.636 151.778 662.795 152.792 665.599 154.88C670.173 158.221 670.949 157.903 673.594 152.236ZM304.434 147.961C304.752 146.409 303.817 143.625 302.505 141.676C300.397 138.872 299.244 138.653 295.982 140.364C292.562 142.213 292.323 143.068 294.113 147.185C296.519 152.395 303.519 152.853 304.434 147.961ZM660.071 146.329C661.94 141.517 661.701 140.742 657.664 138.952C653.707 137.082 653.011 137.4 651.459 141.676C649.053 147.821 649.113 149.373 651.917 150.447C656.571 152.316 658.142 151.619 660.071 146.329ZM318.196 144.858C318.892 144.48 318.653 141.835 317.659 138.872C316.247 134.835 314.855 133.82 312.13 134.536C307.159 135.849 306.383 137.639 308.491 143.148C310.201 147.662 312.289 148.04 318.196 144.858ZM646.707 141.218C647.96 136.306 645.792 133.284 640.96 133.205C637.857 133.125 634.436 143.843 637.24 144.937C642.51 147.105 645.553 145.872 646.707 141.218ZM331.401 136.167C330.864 129.406 330.386 129.008 324.719 130.48C320.363 131.494 320.145 132.11 321.914 137.161C324.559 144.778 331.938 144.082 331.401 136.167ZM632.726 136.784C634.437 131.733 634.198 130.956 630.559 129.564C625.746 127.695 624.334 128.709 622.703 135.312C621.55 140.124 622.405 140.98 629.544 142.213C630.161 142.293 631.652 139.886 632.726 136.784ZM345.62 136.943C348.642 136.943 344.367 126.681 341.185 126.065C336.054 125.051 334.125 128.233 336.372 133.98C337.685 137.56 339.176 138.793 341.185 138.017C342.816 137.401 344.764 136.863 345.62 136.863V136.943ZM619.064 131.116C620.078 127.138 619.522 126.064 616.021 125.209C610.911 123.817 610.99 123.738 609.578 130.798C608.643 135.451 609.121 136.704 611.905 137.32C616.26 138.335 617.592 137.161 619.064 131.116ZM360.137 132.27C360.376 131.972 360.137 129.564 359.441 126.919C358.586 123.419 357.035 122.107 353.773 122.107C349.179 122.107 348.563 123.738 350.512 130.957C351.447 134.218 352.52 134.915 355.643 133.98C357.81 133.284 359.839 132.509 360.137 132.27ZM605.004 125.508C605.083 123.877 603.293 122.028 601.046 121.392C596.134 120.159 596.612 119.761 595.06 127C593.967 132.19 594.285 132.966 598.083 133.523C602.359 134.139 604.765 131.414 605.004 125.508ZM372.805 129.943C375.609 128.153 373.74 118.368 370.637 118.368C365.884 118.368 362.544 120.536 363.399 123.181C363.796 124.593 364.572 127 365.029 128.551C365.964 131.574 369.385 132.111 372.805 129.943ZM588.995 129.943C589.452 129.167 590.307 126.363 590.944 123.658C591.938 119.541 591.401 118.686 587.444 117.911C582.313 116.896 582.075 117.135 580.364 124.275C579.45 127.993 579.986 129.405 582.472 130.022C587.682 131.414 588.219 131.415 588.995 129.943ZM387.959 121.63C387.402 116.36 386.786 115.644 382.748 116.2C376.922 117.056 377.319 116.499 378.473 122.564C379.248 126.442 380.501 127.616 383.982 127.616C387.959 127.616 388.416 126.92 387.959 121.63ZM576.029 122.564C577.182 116.36 576.327 114.649 571.833 114.649C568.253 114.649 566.244 118.13 566.244 124.037C566.244 130.102 574.855 128.789 576.029 122.564ZM403.093 122.167C403.093 113.934 399.692 110.911 394.164 114.411C390.047 117.056 393.467 125.747 398.678 125.747C401.78 125.747 403.093 124.733 403.093 122.167ZM560.716 123.42C560.716 122.167 561.193 119.223 561.81 116.976C562.744 113.476 562.188 112.78 558.31 112.78C551.469 112.78 548.366 122.803 554.651 124.514C560.179 125.906 560.636 125.826 560.716 123.42ZM415.84 122.246C420.275 119.462 416.934 110.911 411.406 110.911C408.144 110.911 406.831 111.925 406.831 114.49C406.831 122.882 410.252 125.746 415.84 122.246ZM547.67 115.107C547.67 111.925 546.656 110.911 543.236 110.911C537.11 110.911 535.082 121.551 541.068 122.486C545.562 123.102 547.591 120.854 547.67 115.107ZM431.213 121.172C431.69 120.615 431.77 117.752 431.292 114.649C430.676 110.214 429.582 109.042 426.102 109.042C422.283 109.042 421.667 109.976 421.667 115.564C421.667 121.093 422.283 122.028 426.022 122.028C428.349 122.028 430.676 121.63 431.213 121.172ZM532.834 115.564C532.834 109.897 532.278 109.042 528.241 109.042C524.124 109.042 523.587 109.897 523.587 115.564C523.587 121.252 524.124 122.028 528.241 122.028C532.278 122.028 532.834 121.252 532.834 115.564ZM445.75 113.477C445.75 108.187 445.134 107.033 442.787 107.967C441.156 108.584 439.148 109.042 438.213 109.042C437.199 109.042 436.503 111.607 436.503 114.649C436.503 119.303 437.198 120.238 441.096 120.238C445.213 120.238 445.75 119.383 445.75 113.477ZM457.642 119.065C459.352 118.369 460.586 115.724 460.586 112.542C460.586 108.107 459.81 107.192 455.932 107.192C451.895 107.192 451.259 108.047 451.259 113.715C451.259 120.237 452.273 121.093 457.642 119.065ZM503.243 116.658C503.243 114.709 503.7 111.766 504.317 110.135C505.172 107.888 504.237 107.192 499.663 107.192C494.532 107.192 493.916 107.808 493.916 112.621C493.916 117.672 495.388 118.985 501.831 120C502.607 120.079 503.243 118.607 503.243 116.658ZM517.999 113.715C517.999 108.047 517.442 107.192 513.405 107.192C509.368 107.192 508.752 108.047 508.752 113.715C508.752 119.382 509.368 120.238 513.405 120.238C517.442 120.238 517.999 119.382 517.999 113.715ZM475.421 112.78C475.421 107.888 474.725 107.252 470.132 107.252C465.398 107.252 465.02 107.729 465.716 112.78C466.412 117.195 467.506 118.368 470.987 118.368C474.646 118.368 475.421 117.433 475.421 112.78ZM490.257 112.78C490.257 107.808 489.64 107.252 484.669 107.252C479.697 107.252 479.08 107.888 479.08 112.78C479.08 117.752 479.697 118.368 484.669 118.368C489.64 118.368 490.257 117.752 490.257 112.78ZM92.6788 245.147C73.1102 229.695 73.8062 230.928 79.5535 223.471C87.011 213.607 96.8748 213.309 101.23 222.854C102.304 225.34 105.426 227.826 108.131 228.362C110.855 228.999 115.052 231.087 117.617 233.036C121.415 236.058 121.733 237.073 119.705 239.559C117.458 242.203 116.762 242.124 112.108 238.783C101.529 231.325 94.8466 236.457 104.651 244.61C108.608 247.872 110.398 250.735 109.623 252.604C107.992 256.88 106.898 256.343 92.6788 245.147ZM95.0852 228.362C94.3096 224.087 87.0112 222.774 85.5396 226.652C84.9032 228.283 86.0764 230.629 88.4827 232.26C92.9971 235.442 96.0994 233.652 95.0852 228.362ZM841.16 243.358C840.603 241.807 841.379 239.082 842.95 237.371C845.436 234.587 845.436 233.732 843.249 230.63C841.081 227.667 839.907 227.428 836.109 229.138C832.529 230.769 831.137 230.63 829.268 228.443C826.245 224.724 827.558 223.709 846.828 215.556C859.257 210.266 863.991 209.033 866.238 210.425C870.991 213.448 870.136 215.556 857.388 231.405C845.038 246.698 843.089 248.25 841.24 243.358H841.16ZM855.379 223.092C860.351 217.723 859.337 217.266 851.482 221.303C848.459 222.854 846.43 224.943 847.067 225.957C848.777 228.681 850.706 228.064 855.379 223.092ZM108.051 217.724L93.8523 204.14L101.688 196.445C107.753 190.459 110 189.226 111.711 190.996C113.5 192.706 112.884 194.336 109.066 198.393C104.949 202.648 104.492 203.981 106.5 206.308C109.682 210.186 112.645 209.888 115.37 205.453C116.682 203.425 118.552 201.715 119.566 201.715C123.205 201.715 123.683 207.481 120.421 211.121C117.219 214.621 117.219 214.86 120.481 218.499C123.901 222.238 123.901 222.237 129.112 217.186C132.99 213.447 134.939 212.672 136.41 214.223C137.961 215.794 136.887 218.28 132.294 223.789C128.793 227.985 125.154 231.325 124.14 231.325C123.126 231.246 115.907 225.181 108.051 217.724ZM818.787 216.63C812.105 208.635 811.489 206.387 815.367 204.14C816.759 203.364 821.194 199.706 825.151 196.046C829.029 192.407 833.385 189.842 834.777 190.299C836.189 190.697 836.805 190.3 836.188 189.286C835.552 188.291 836.566 186.024 838.436 184.314C841.618 181.53 842.015 181.53 844.422 184.314C846.589 186.959 846.291 187.814 842.314 190.996C839.828 193.104 834.16 198.075 829.745 202.112C821.651 209.569 821.652 209.569 826.464 214.541C830.203 218.419 830.74 220.05 829.03 221.761C825.848 224.943 825.469 224.724 818.787 216.63ZM127.083 197.837L113.421 183L119.705 177.651C127.719 170.731 134.7 170.571 139.751 176.935C144.564 183.08 144.564 185.169 139.91 191.155C136.112 195.967 136.112 195.967 141.7 202.271C145.896 207.083 146.672 209.112 145.041 210.743C141.938 213.845 142.078 214.005 127.163 197.837H127.083ZM134.242 183C132.214 179.202 127.879 178.347 125.93 181.449C125.234 182.543 126.168 185.109 127.938 187.038C132.214 191.711 137.186 188.509 134.242 183ZM800.69 198.075L793.452 190.617L799.975 183.697C803.634 179.899 809.779 173.137 813.736 168.782L820.796 160.867L828.81 168.702C835.015 174.767 836.268 177.015 834.637 178.963C832.927 181.052 831.595 180.595 827.319 176.558C822.984 172.362 821.651 171.884 819.325 173.913C815.367 177.174 815.745 180.674 820.418 183.935C823.839 186.341 824.058 187.197 822.049 189.682C819.802 192.327 819.086 192.169 814.591 187.893C809.699 183.16 809.699 183.16 806.279 186.879C802.938 190.617 802.938 190.856 807.989 196.046C812.563 200.799 813.18 205.453 809.302 205.453C808.526 205.453 804.648 202.112 800.69 198.075ZM159.717 189.066C155.283 187.276 135.953 164.427 136.808 161.941C138.359 157.208 143.41 160.17 152.658 171.347C158.166 177.949 163.595 183.08 164.689 182.682C169.502 181.052 167.413 175.007 158.405 164.586C152.498 157.824 149.237 152.475 149.854 150.765C151.643 146.031 154.209 147.582 164.848 160.17C176.8 174.31 178.053 180.595 170.198 186.8C164.928 190.936 164.689 190.995 159.717 189.066ZM777.841 179.421C775.673 177.333 773.804 173.674 773.804 171.268C773.804 166.296 793.074 142.451 797.111 142.451C802.858 142.451 801.227 146.886 791.523 157.764C785.835 164.128 781.261 170.81 781.261 172.599C781.182 177.869 787.864 176.319 793.372 169.796C807.989 152.236 809.063 151.301 811.867 153.647C814.969 156.193 812.802 159.773 799.279 174.37C790.111 184.254 784.443 185.566 777.841 179.421ZM173.081 159.614C167.414 151.699 162.203 144.241 161.507 143.068C160.811 141.755 163.596 139.031 168.647 136.087C175.249 132.189 177.655 131.573 180.618 133.124C185.053 135.531 188.693 141.835 187.141 144.32C186.525 145.335 187.678 146.19 189.707 146.19C194.44 146.19 199.173 152.853 199.173 159.455C199.173 163.274 197.482 165.759 192.272 169.259C188.454 171.825 184.974 173.992 184.417 173.992C183.801 173.992 178.749 167.47 173.081 159.614ZM191.497 160.25C192.272 156.432 188.613 151.699 185.053 151.699C180.778 151.699 180.002 157.127 183.562 161.105C187.38 165.281 190.562 164.983 191.497 160.25ZM180.698 145.395C180.698 141.994 176.8 138.872 173.937 140.045C170.914 141.219 170.675 144.619 173.539 147.503C175.965 149.909 180.698 148.596 180.698 145.395ZM747.473 156.75C737.53 150.446 729.456 144.539 729.376 143.704C729.297 141.138 748.328 110.911 750.039 110.911C752.524 110.911 766.425 120.477 766.425 122.167C766.425 125.588 762.229 125.905 757.655 122.882C753.061 119.84 752.684 119.84 750.258 123.181C747.931 126.303 748.249 127.079 752.445 130.48C755.627 133.045 756.86 135.392 756.085 137.401C755.011 140.205 754.453 140.204 750.973 137.798C745.604 134.059 742.8 134.297 740.394 138.732C738.684 141.994 739.24 142.988 744.053 145.713C748.328 148.119 749.402 149.83 748.487 152.634C747.473 156.134 747.553 156.133 750.894 153.329C752.743 151.619 759.346 147.502 765.491 144.161C771.556 140.821 776.985 137.798 777.463 137.401C777.92 137.023 775.971 134.835 773.107 132.508C768.673 129.008 768.295 127.993 770.542 126.144C772.63 124.434 774.42 124.892 779.551 128.71C782.971 131.275 787.088 134.139 788.56 134.994C792.835 137.4 787.327 142.452 772.014 149.83C759.048 156.134 759.047 156.134 764.099 159.455C769.229 162.796 770.701 166.694 767.36 167.708C766.266 168.006 757.337 163.034 747.473 156.75ZM196.548 140.423C187.917 126.999 186.207 123.181 188.315 121.948C192.272 119.382 192.193 119.303 201.599 134.298C210.449 148.358 210.449 148.357 215.182 145.255C219.855 142.212 225.205 142.531 225.205 145.952C225.205 147.344 210.21 157.287 208.042 157.287C207.645 157.287 202.514 149.67 196.548 140.423ZM226.995 144.54C226.995 143.625 222.719 135.531 217.508 126.682C209.971 113.874 208.579 110.214 210.608 108.902C212 108.047 213.631 107.252 214.168 107.252C215.023 107.252 231.887 135.69 234.054 140.821C234.452 141.597 232.981 143.068 230.873 144.242C228.705 145.395 226.995 145.554 226.995 144.54ZM717.086 138.017C716.55 136.546 716.947 130.559 718.101 124.732C719.194 118.846 719.811 113.795 719.512 113.477C719.194 113.158 716.47 117.434 713.447 123.022C707.7 133.821 707.461 133.979 703.742 131.573C701.873 130.42 703.424 125.985 710.802 112.163C719.572 95.8363 720.666 94.4443 724.086 96.3137C727.427 98.1035 727.746 99.4161 726.572 108.584C725.876 114.252 724.862 120.238 724.404 121.869C723.927 123.5 726.115 120.079 729.217 114.172C735.044 103.294 735.979 102.519 739.857 105.004C741.487 106.019 739.459 111.308 732.857 123.499C724.087 139.727 719.433 144.003 717.086 138.017ZM240.2 134.536C234.83 131.812 225.205 114.173 225.205 107.252C225.205 101.127 230.793 95.6181 237.177 95.6181C242.447 95.6181 247.419 99.0184 247.419 102.678C247.419 106.337 243.143 107.113 239.663 103.991C236.083 100.889 232.583 102.28 232.662 106.874C232.662 112.223 242.606 128.471 246.265 129.167C249.208 129.704 249.606 128.928 248.89 123.957C248.274 119.76 248.89 117.673 251.157 116.42C255.433 114.173 256.666 115.883 256.666 123.957C256.666 133.82 248.751 138.951 240.2 134.536ZM688.111 125.13C683.219 123.022 679.261 120.397 679.261 119.224C679.261 117.355 693.481 85.1182 694.952 83.4875C696.285 82.175 712.671 91.5608 712.671 93.6688C712.671 96.612 708.157 96.8515 703.026 94.0475C700.083 92.4963 698.83 92.5756 697.597 94.5245C694.793 98.9592 695.807 101.584 701.475 103.93C705.512 105.621 706.606 106.954 705.373 108.823C704.12 110.832 702.569 110.99 697.995 109.359C693.083 107.649 692.009 107.888 690.378 110.911C687.494 116.28 688.111 117.673 694.097 120.159C699.308 122.326 701.475 126.443 698.293 128.074C697.518 128.472 692.944 127.138 688.111 125.05V125.13ZM260.245 113.934C259.072 106.715 257.362 97.5467 256.586 93.6688C255.274 87.305 255.572 86.4499 259.768 84.501C263.507 82.7907 264.74 82.9506 265.993 85.0387C266.848 86.5302 272.118 93.9072 277.806 101.444C283.473 108.962 287.669 115.883 287.112 116.738C285.641 119.144 282.38 118.687 278.959 115.645C277.249 114.014 274.305 113.397 271.82 114.013C268.319 114.948 267.783 116.041 268.717 120.238C269.632 124.275 269.095 125.508 266.152 126.224C262.891 127.079 262.254 125.747 260.245 113.934ZM271.502 105.403C271.502 104.627 269.791 101.981 267.623 99.5751C263.805 95.2199 263.805 95.2208 264.82 99.7948C265.456 102.36 265.913 105.482 265.913 106.715C265.913 107.968 267.146 108.504 268.717 107.967C270.269 107.331 271.502 106.178 271.502 105.403ZM663.034 114.411C660.767 113.636 658.917 112.085 658.917 110.991C658.917 107.888 664.665 73.0868 665.201 72.4504C665.52 72.1521 667.23 72.4494 669 73.1653C671.565 74.1597 672.042 75.7906 671.108 81.0805C667.309 104.229 667.15 103.771 674.906 91.0239C681.29 80.464 686.719 76.5868 689.125 80.8426C689.603 81.5585 684.77 89.791 678.565 99.0981C668.383 114.252 666.752 115.803 663.034 114.411ZM302.107 108.823C298.229 98.4023 290.155 73.1656 290.533 72.6883C290.851 72.4497 294.968 71.1369 299.701 69.9039C307.556 67.7959 308.789 67.9558 312.289 71.0582C314.696 73.3054 316.008 76.427 315.71 79.3702C315.312 82.393 316.724 85.7341 319.429 88.379C324.798 93.7485 324.102 101.047 317.798 105.562C311.275 110.295 303.281 111.925 302.107 108.823ZM314.696 99.3372C316.008 95.6184 312.449 90.5663 308.491 90.5663C304.593 90.5663 304.374 91.1837 306.065 97.468C307.238 101.982 313.224 103.215 314.616 99.3372H314.696ZM307.636 80.3049C307.636 77.819 306.224 76.4276 303.201 76.0299C299.701 75.493 299.005 76.0299 300.019 78.5157C300.636 80.226 301.172 82.3931 301.172 83.4073C301.172 84.4216 302.664 84.9583 304.434 84.66C306.224 84.2622 307.636 82.3333 307.636 80.3049ZM625.746 102.44C621.232 101.048 617.195 99.5754 616.797 99.0981C616.34 98.6407 618.587 89.8512 621.769 79.4504C626.044 65.7086 628.312 60.8759 630.161 61.5918C631.573 62.0492 636.147 63.4408 640.343 64.6141C649.829 67.1795 649.193 71.0582 639.249 71.0582C633.283 71.0582 631.951 71.7543 631.414 75.0953C631.016 78.2175 632.11 79.3702 636.544 80.3049C642.51 81.6174 643.147 82.5525 640.661 86.4503C639.488 88.2998 637.857 88.379 633.9 86.8278C627.834 84.5806 628.073 84.4222 626.442 90.786C625.348 95.2208 625.826 95.7569 632.03 96.9302C637.082 97.8649 638.553 98.8792 637.698 100.967C637.161 102.519 636.624 104.15 636.624 104.627C636.624 105.701 634.993 105.323 625.746 102.44ZM331.162 98.2436C327.364 94.4452 324.321 86.1317 322.233 73.6229C320.284 61.8897 331.639 54.9897 341.503 61.8904C345.699 64.8535 351.208 80.0662 351.208 88.6971C351.208 99.4161 338.381 105.562 331.162 98.2436ZM342.577 87.6835C342.12 76.5867 338.321 66.4834 334.583 66.4834C329.372 66.4834 328.596 68.9699 331.003 78.8337C333.966 91.0244 336.054 94.6033 339.713 93.8278C341.881 93.3505 342.816 91.5018 342.577 87.6835ZM356.021 83.2484C350.512 59.1057 350.273 55.3674 354.39 55.3674C357.492 55.3674 358.586 57.7737 361.39 71.2172C364.731 87.067 364.731 87.0665 371.87 85.8932C378.095 84.8193 379.01 85.1177 379.01 88.22C379.01 91.1036 377.001 92.1183 368.927 93.5899C358.745 95.4593 358.745 95.4589 356.021 83.2484ZM592.575 94.0475C589.234 93.0531 586.827 91.641 587.205 90.945C587.683 90.249 589.85 81.3992 592.098 71.3762C596.214 53.3588 596.294 53.1999 601.186 54.2738C610.672 56.5409 616.18 59.4839 617.274 62.984C619.143 68.9699 614.391 87.0671 609.658 91.7206C605.004 96.394 602.2 96.772 592.575 94.0475ZM605.004 86.1323C608.504 81.8567 609.896 64.5348 606.794 62.5859C602.597 59.9608 602.12 60.4185 599.794 70.6006C598.62 75.9501 597.149 82.2538 596.532 84.501C595.677 87.842 596.214 88.6971 599.098 88.6971C601.186 88.6971 603.831 87.5244 605.004 86.1323ZM379.408 77.1235C378.155 69.7455 376.683 60.5769 375.987 56.699C374.973 50.5539 375.211 49.7791 378.711 49.7791C381.734 49.7791 382.828 51.3295 383.763 56.699C384.459 60.5769 386.01 69.2683 387.263 76.1889C389.669 89.3938 389.43 90.5663 384.618 90.5663C382.211 90.5663 381.038 87.5243 379.328 77.1235H379.408ZM563.599 84.0434C562.108 78.2166 554.114 77.5007 552.324 83.1088C551.17 86.8276 546.895 88.1602 545.105 85.2766C544.568 84.4215 547.352 75.8701 551.329 66.3244C557.534 51.3297 559.165 48.7642 563.202 48.3068C568.79 47.5909 569.188 48.8448 570.739 72.4504C571.753 87.5247 571.515 88.6971 568.253 88.6971C566.085 88.6971 564.295 86.9866 563.599 84.0434ZM562.426 65.0718C562.426 57.9324 560.637 59.026 557.992 67.8756C556.997 70.8984 557.455 71.9928 559.622 71.9928C561.73 71.9928 562.506 70.123 562.426 65.0718ZM399.533 82.6317C386.785 50.0173 386.626 49.5402 389.43 48.4464C393.308 47.0543 394.641 48.9235 399.692 62.7449L404.028 74.7967L404.584 60.418C405.121 47.591 405.499 46.0406 408.78 46.0406C412.897 46.0406 413.195 49.1622 411.187 72.6883C410.093 86.0522 409.695 86.8278 405.579 86.8278C402.715 86.8278 400.607 85.3562 399.533 82.6317ZM416.695 81.9362C417.232 79.9873 418.724 70.7591 420.036 61.3527C422.284 44.7273 422.522 44.1908 427.176 44.1908C431.611 44.1908 432.466 45.5829 437.895 62.3674C441.236 72.3904 443.881 81.1601 443.881 81.8561C443.881 84.8789 436.582 82.7914 435.568 79.4504C433.858 74.1008 425.784 74.3993 425.008 79.908C424.61 82.6325 422.9 84.2622 420.116 84.66C416.616 85.1969 415.92 84.5806 416.695 81.8561V81.9362ZM430.437 61.8103C428.111 54.3527 428.11 54.3524 426.559 62.2873C425.625 67.3385 426.022 68.2737 428.886 68.2737C432.068 68.2737 432.227 67.6371 430.437 61.8103ZM532.138 81.7772C531.661 79.9874 530.647 75.1747 529.951 71.0582C527.943 59.3249 525.536 56.8383 525.456 66.4834C525.377 77.978 523.667 83.1088 520.087 83.1088C517.303 83.1088 517.223 81.3193 518.933 63.3615C520.007 51.8669 521.718 43.3354 522.891 42.8581C526.61 41.7047 530.269 47.2134 532.994 58.3898C535.619 69.1883 535.619 69.1884 536.096 60.8757C536.872 48.5259 538.184 44.1908 541.227 44.1908C544.329 44.1908 544.647 48.9237 542.778 70.8191C541.684 83.9643 541.307 84.9586 537.329 84.9586C534.923 84.9586 532.675 83.6466 532.138 81.7772ZM446.923 76.2678C446.287 72.3899 445.75 63.2225 445.75 55.8445C445.75 42.401 445.75 42.4005 454.838 42.4005C460.745 42.4005 465.1 43.4155 466.95 45.265C470.211 48.5265 470.847 58.1716 467.884 60.0211C466.572 60.8763 466.572 61.9692 467.964 63.6795C471.305 67.637 471.305 82.2542 467.964 82.2542C466.253 82.2542 464.623 79.3709 463.529 74.3196C462.137 67.7172 461.202 66.4834 457.483 66.4834C453.526 66.4834 453.128 67.1797 453.586 74.2396C453.983 80.2255 453.367 82.2545 451.1 82.7119C448.932 83.1891 447.759 81.3986 446.983 76.2678H446.923ZM461.52 53.4982C461.52 50.0777 460.347 48.6853 457.324 48.2279C453.745 47.7506 453.128 48.447 453.128 53.4982C453.128 58.4699 453.745 59.1851 457.324 58.7078C460.347 58.2504 461.52 56.8392 461.52 53.4982ZM505.789 78.5157C504.317 72.6094 496.64 71.9929 494.851 77.5811C494.214 79.6096 492.047 81.3196 490.098 81.3196C488.169 81.3196 486.538 81.0812 486.538 80.8426C486.538 80.5443 488.944 72.0719 491.888 61.8103C496.7 44.8866 497.555 43.2559 502.07 42.699C504.715 42.4007 506.882 42.4801 506.882 43.0171C506.882 43.4745 508.592 51.947 510.621 61.8904C515.115 83.8852 515.115 83.1888 510.7 83.1888C508.274 83.1888 506.584 81.5584 505.789 78.5157ZM503.163 60.8757C503.163 57.8529 502.388 55.3674 501.373 55.3674C500.28 55.3674 499.504 56.5401 499.504 57.9322C499.504 59.4038 498.967 61.8898 498.331 63.5205C497.635 65.4694 498.271 66.4834 500.2 66.4834C502.308 66.4834 503.163 64.7735 503.163 60.8757ZM475.58 66.0063C475.58 46.9746 476.674 42.4005 481.169 42.4005C484.351 42.4005 484.669 43.8722 484.669 58.8668C484.669 77.7394 483.813 81.3196 479.001 81.3196C475.958 81.3196 475.58 79.5294 475.58 66.0063Z" fill="#22924A"/>
</svg>
