<svg width="961" height="677" viewBox="0 0 961 677" fill="none" xmlns="http://www.w3.org/2000/svg">
<path fill-rule="evenodd" clip-rule="evenodd" d="M623.048 656.491C623.008 654.605 621.302 651.535 619.214 649.668C617.167 647.801 616.143 645.673 616.926 644.89C617.709 644.188 628.467 640.896 640.771 637.684C701.446 621.607 766.919 589.855 811.999 554.65C840.3 532.472 870.647 499.374 880.523 480.005C883.112 474.847 889.314 466.518 894.332 461.5C929.918 425.994 949.909 367.506 943.245 318.652C941.68 307.533 941.921 305.164 944.429 303.217C948.343 300.086 950.391 300.227 950.391 303.599C950.391 305.104 951.475 305.947 952.739 305.486C953.983 305.024 956.332 305.485 957.918 306.429C960.186 307.914 960.647 313.554 960.647 338.643C960.567 365.94 960.025 371.118 955.469 387.818C946.617 420.032 931.403 447.871 909.606 471.535C903.645 477.978 896.519 486.829 893.689 491.224C889.073 498.43 888.129 498.992 884.436 497.186C880.442 495.299 880.442 495.38 883.814 498.049C887.267 500.859 887.266 501.099 882.71 508.004C845.478 564.063 751.705 623.415 655.744 651.555C626.52 660.125 623.088 660.727 623.048 656.572V656.491ZM448.126 675.619C294.22 666.146 156.47 605.23 84.0329 514.508C77.9914 506.981 70.8461 496.865 68.0361 492.088C65.2863 487.231 58.783 478.68 53.6849 473.04C34.6372 451.865 19.5837 427.639 12.1172 406.163C8.9058 396.83 9.60846 390.547 13.2213 396.348C14.7869 398.716 15.0276 398.716 15.0276 396.207C15.0276 394.621 14.0039 392.274 12.7594 390.949C11.4147 389.604 11.1942 388.821 12.278 389.142C14.1647 389.764 15.1079 388.44 15.1079 385.148C15.1079 384.125 13.9237 383.723 12.599 384.285C8.44421 385.85 3.50679 378.324 2.88458 369.473C2.64373 364.836 1.86098 360.22 1.15848 359.116C0.435914 358.012 1.62012 355.282 3.66739 352.994C7.66159 348.759 7.26017 345.789 2.80434 345.789C-1.04935 345.789 -0.889052 333.485 3.02485 331.98C4.59042 331.358 5.45367 331.597 4.91175 332.541C3.80782 334.267 8.4443 336.777 9.92957 335.271C10.4113 334.89 10.4113 332.38 9.92957 329.871C8.98622 325.014 4.75112 323.509 3.34612 327.523C2.88448 328.848 1.78047 329.249 0.997693 328.466C0.134627 327.683 0.75694 317.789 2.48307 306.589C7.96254 269.819 24.5215 234.914 48.8278 208.5C55.5718 201.215 63.4798 191.019 66.4705 185.841C90.6163 143.43 146.113 94.9774 206.167 63.7665C283.802 23.4634 367.058 2.68967 461.213 0.261047C560.084 -2.24786 643.52 13.268 725.291 49.4163C752.568 61.4992 760.958 66.2762 763.547 71.0532C764.872 73.5621 766.598 74.3449 769.107 73.5621C771.154 72.8596 772.72 73.0996 772.559 73.9627C771.937 77.415 772.88 79.0617 774.285 76.8538C775.69 74.5858 800.639 89.8791 820.309 105.013C824.463 108.224 828.157 110.975 828.538 111.196C829.1 111.597 830.264 116.695 830.585 120.147C830.585 121.091 831.99 120.769 833.475 119.444C838.734 115.129 883.513 163.662 894.793 185.841C896.841 189.995 903.504 198.626 909.465 204.969C922.552 219.079 932.748 233.75 941.519 251.312C954.224 276.863 957.135 293.342 948.424 290.593C945.513 289.649 944.811 290.351 944.811 294.124C944.811 304.16 941.138 300.306 936.502 285.494C933.832 277.024 927.951 262.914 923.335 254.204C916.912 242.06 915.487 237.905 917.133 235.938C918.698 233.991 918.477 232.647 915.888 230.218C913.459 227.79 912.356 227.628 911.733 229.355C910.629 232.345 885.701 205.912 880.683 196.499C851.821 141.945 767.3 80.3863 680.13 50.1991C613.554 27.2376 554.203 17.5024 480.903 17.5024C406.258 17.5024 349.496 26.7549 282.618 49.9774C194.566 80.3853 114.361 138.011 83.6314 192.745C79.9382 199.248 72.0302 209.765 65.9887 216.027C9.30735 275.378 1.29879 367.184 46.9409 435.326C52.9021 444.258 61.9141 455.699 67.0123 460.877C72.0301 465.976 78.4529 474.445 81.2027 479.544C98.6045 511.919 140.313 551.759 186.497 580.14C250.865 619.64 332.476 646.316 417.156 655.488C465.448 660.727 541.358 658.137 589.97 649.607C596.935 648.342 597.015 648.423 595.851 653.281C594.185 659.703 595.992 659.562 599.524 653.039C602.033 648.423 602.354 648.263 602.435 651.875C602.435 654.304 604 656.271 606.188 656.893C611.366 658.218 610.905 660.888 605.164 663.477C598.42 666.608 593.101 666.226 593.101 662.694C593.101 660.647 592.078 660.025 590.191 660.807C588.545 661.43 585.816 661.991 584.089 662.072C582.042 662.152 582.444 662.774 585.414 663.939C591.837 666.447 590.432 667.089 570.601 670.14C536.48 675.559 484.195 677.827 448.126 675.619ZM752.106 68.9449C752.106 65.2518 751.163 63.3047 749.357 63.3047C747.791 63.3047 747.008 64.4691 747.47 66.115C747.952 67.6003 748.815 70.1898 749.276 71.6951C750.681 76.3115 752.106 74.9061 752.106 68.9449ZM742.773 65.1717C742.773 64.1681 741.429 63.3047 739.863 63.3047C738.217 63.3047 737.434 64.1681 738.056 65.1717C738.699 66.1953 740.023 67.0583 740.967 67.0583C741.99 67.0583 742.773 66.1953 742.773 65.1717ZM609.961 654.464C609.961 653.36 611.206 652.577 612.852 652.577C614.417 652.577 615.28 653.36 614.578 654.464C613.956 655.488 612.611 656.271 611.688 656.271C610.744 656.271 609.961 655.488 609.961 654.464ZM436.927 642.08C433.775 641.679 422.415 640.434 411.677 639.25C317.904 629.375 220.678 591.822 155.768 540.459C128.952 519.204 103.301 490.201 93.5868 470.049C91.1581 465.032 84.4142 456.261 78.5333 450.54C57.3581 429.827 39.9563 396.509 34.5572 366.322C25.224 314.337 40.9798 263.858 78.6135 225.04C84.5747 218.938 91.2383 210.468 93.2655 206.393C104.887 183.332 134.592 150.636 163.756 128.758C228.908 79.9247 310.136 49.1949 408.847 36.0081C442.567 31.4719 518.998 31.4719 552.878 36.0081C620.077 44.8796 673.848 60.7165 728.743 87.6722C795.38 120.368 847.124 164.666 869.544 208.26C871.671 212.335 877.311 219.48 882.168 224.097C901.076 242.382 916.912 270.039 924.439 298.038C929.135 315.761 930.079 352.913 926.165 370.957C920.204 398.937 904.046 428.884 884.376 448.814C877.853 455.398 869.784 465.975 866.412 472.257C845.799 510.894 795.139 554.569 735.788 584.837C682.399 612.033 625.637 629.295 559.382 638.548C539.15 641.358 450.555 643.947 436.927 642.08ZM566.908 630.318C677.622 613.539 770.993 569.945 831.207 506.821C845.016 492.329 862.499 468.243 862.499 463.626C862.499 462.442 868.6 454.996 876.127 447.088C906.314 415.255 919.34 386.312 921.689 345.708C924.198 302.354 908.662 261.429 877.773 229.897C871.27 223.153 863.903 213.759 861.475 208.962C853.627 193.528 834.338 170.004 816.696 154.329C673.146 26.9162 418.18 1.58592 230.011 96.0614C170.5 125.948 119.86 170.084 100.17 209.123C96.718 216.027 91.7001 223.092 89.0507 224.818C81.5842 229.756 62.2957 254.985 54.9295 269.658C25.7659 327.603 38.471 401.767 85.197 446.767C89.9739 451.404 96.3364 459.793 99.1464 465.433C113.979 494.436 150.971 531.287 192.057 557.782C248.116 593.93 334.282 623.495 407.904 631.804C417.718 632.908 428.216 634.152 431.267 634.553C434.337 635.015 460.43 635.096 489.293 634.775C530.298 634.313 547.158 633.289 566.908 630.318ZM473.376 601.999V583.271H482.709C493.046 583.271 499.569 587.668 499.569 594.632C499.569 599.971 491.32 607.658 485.6 607.658C481.445 607.658 480.823 608.441 480.823 614.161C480.823 619.5 480.12 620.744 477.129 620.744C473.617 620.744 473.376 619.501 473.376 601.999ZM489.835 595.033C490.397 591.581 489.614 590.798 485.68 590.798C481.766 590.798 480.823 591.662 480.823 595.576C480.823 599.49 481.605 600.292 485.058 599.811C487.807 599.429 489.453 597.702 489.835 595.033ZM506.373 608.281C505.751 601.216 505.209 592.283 505.209 588.45C505.209 581.465 505.209 581.466 516.409 581.466C526.384 581.466 527.629 581.866 527.629 585.158C527.629 588.209 526.384 588.911 521.045 588.911C515.787 588.911 514.542 589.614 514.542 592.685C514.542 595.655 515.787 596.438 521.045 596.438C525.441 596.438 527.629 597.302 527.629 599.028C527.629 600.513 524.799 602.159 521.045 602.861C515.706 603.885 514.542 604.908 514.542 608.681C514.542 612.977 515.004 613.218 521.989 612.114C528.813 611.03 529.515 611.251 529.515 614.864C529.515 617.774 528.331 618.858 525.28 618.858C523.012 618.858 518.075 619.42 514.382 620.042C507.638 621.146 507.638 621.146 506.373 608.281ZM432.451 609.926C432.691 603.583 431.347 598.325 427.814 591.341C421.793 579.418 421.793 579.579 427.272 579.579C430.644 579.579 432.29 581.305 434.719 587.427L437.85 595.334L442.566 588.37C445.316 584.376 448.829 581.466 450.956 581.466C455.974 581.466 455.653 582.79 448.126 594.01C443.349 601.155 441.543 605.772 441.543 611.251C441.543 618.156 441.081 618.858 436.846 618.858C432.451 618.858 432.129 618.316 432.451 609.926ZM406.88 608.602C403.046 598.646 399.052 597.543 398.189 606.234C397.707 610.87 396.623 612.435 393.412 612.897C388.535 613.619 388.535 613.699 391.124 595.816C394.496 572.694 393.472 574.179 403.508 576.065C418.501 578.875 423.66 588.049 415.129 596.679C411.115 600.674 411.115 600.673 415.129 608.822C419.043 616.991 419.043 616.991 414.567 616.991C410.974 616.991 409.469 615.346 406.88 608.602ZM409.79 589.153C409.79 585.46 405.094 582.488 402.103 584.375C401.16 584.917 400.377 587.025 400.377 588.992C400.377 591.662 401.722 592.685 405.094 592.685C408.466 592.685 409.79 591.662 409.79 589.153ZM537.985 614.623C537.584 613.378 536.721 607.659 536.099 601.999C535.477 596.359 534.533 589.072 533.971 585.861C532.968 580.221 533.128 579.98 541.197 578.796C556.551 576.528 565.664 584.837 558.92 595.114C556.331 599.028 556.491 599.73 561.509 605.37C564.48 608.682 566.908 612.275 566.908 613.299C566.908 617.453 558.92 614.623 553.581 608.602C546.135 600.132 544.569 600.292 545.814 609.464C546.757 616.208 546.456 616.991 542.763 616.991C540.575 616.991 538.367 615.887 537.985 614.623ZM551.534 589.232C550.831 585.238 542.602 583.813 542.602 587.667C542.602 589.232 543.084 591.822 543.706 593.388C545.271 597.382 552.397 593.628 551.534 589.232ZM573.652 609.765C570.361 598.004 566.748 577.551 567.771 575.905C568.474 574.801 570.822 573.939 573.11 573.939C576.161 574.019 578.75 576.849 583.608 585.62C590.833 598.786 592.7 597.702 592.941 579.98C593.101 571.048 593.563 569.944 598.119 568.218C600.869 567.194 603.679 566.954 604.301 567.817C606.509 570.326 612.309 601.617 610.965 603.725C607.753 608.983 604.622 605.149 602.274 593.146L599.845 580.522L597.878 594.552C595.289 612.897 591.616 613.539 582.444 597.381C576.322 586.402 576.161 586.563 579.072 600.132C579.453 601.697 580.236 604.747 580.858 606.955C581.641 609.926 581.019 611.191 578.289 611.893C575.78 612.516 574.194 611.813 573.652 609.765ZM368.162 608.039C364.168 607.176 364.088 604.045 367.681 590.176C371.293 576.367 371.293 576.207 366.276 575.504C360.395 574.641 359.451 568.298 365.172 568.539C375.609 569 388.234 573.076 388.856 576.287C389.317 578.796 388.234 579.579 383.918 579.579C378.579 579.579 378.359 579.98 376.07 592.203C373.341 607.176 372.477 608.902 368.162 608.039ZM339.38 600.594C338.276 599.811 335.848 592.444 334.061 584.215L330.689 569.242L326.916 581.927C324.025 591.582 322.379 594.552 319.71 594.552C317.823 594.552 316.177 593.929 316.177 593.146C315.937 588.911 326.836 557.159 328.481 557.159C333.579 557.079 337.192 562.799 340.243 575.825L343.615 589.855L346.746 579.278C348.472 573.477 349.897 567.736 349.897 566.492C349.897 565.307 351.383 564.606 353.189 565.007C357.344 565.87 356.942 572.212 351.764 589.313C347.93 601.938 345.181 604.447 339.38 600.594ZM622.024 597.783C618.572 588.611 612.39 565.227 613.092 564.143C613.554 563.36 615.36 562.719 617.167 562.719C619.756 562.719 621.643 566.653 625.476 579.418C628.226 588.671 630.494 597.06 630.494 598.164C630.494 600.994 623.128 600.593 622.024 597.843V597.783ZM641.152 578.715C635.994 564.926 635.913 564.765 630.253 565.869C625.316 566.873 624.613 566.492 625.235 563.441C625.958 559.748 647.976 550.495 651.268 552.542C654.56 554.569 652.914 558.564 648.378 559.748C643.821 560.852 643.821 560.852 649.16 575.665C653.697 588.209 654.098 590.637 651.75 591.581C646.873 593.467 646.411 592.906 641.152 578.715ZM296.267 586.723L286.613 582.95L291.329 570.487C293.919 563.662 296.889 555.754 297.913 552.924C300.1 546.883 299.94 546.883 311.24 550.736C317.502 552.924 319.931 554.731 319.931 557.32C319.931 561.394 318.526 561.635 311.401 558.885C307.547 557.48 305.901 557.561 304.737 559.347C302.308 563.201 302.77 564.144 308.731 566.171C311.862 567.275 314.371 569.081 314.371 570.185C314.371 573.397 309.353 574.401 304.958 572.052C300.422 569.624 300.341 569.623 298.615 575.203C297.591 578.575 298.374 579.579 303.793 581.305C308.811 582.951 310.056 584.215 309.273 587.106C308.109 591.501 308.41 591.5 296.267 586.723ZM634.268 530.184C634.268 529.802 635.914 525.807 637.941 521.331C643.119 509.971 642.798 508.466 635.352 508.466C630.735 508.466 627.905 509.81 625.235 513.182C620.218 519.605 616.625 519.284 618.431 512.701C620.218 506.037 620.298 502.907 618.572 497.728C616.705 492.329 621.081 492.008 625.797 497.266C627.905 499.615 631.598 501.02 635.592 501.02C642.577 501.02 642.718 499.214 636.777 487.532C631.759 477.657 635.913 475.067 643.581 483.236C646.029 485.805 649.161 487.933 650.646 487.933C652.211 487.933 652.914 489.037 652.292 490.522C650.726 494.758 656.848 498.591 666.643 499.615C682.86 501.341 683.342 508.246 667.345 509.169C658.253 509.731 650.245 514.829 651.83 519.064C652.372 520.308 651.107 521.954 649.08 522.576C647.113 523.218 644.604 525.326 643.521 527.373C641.935 530.344 634.268 532.692 634.268 530.184ZM204.762 511.537C151.372 485.344 108.72 443.094 90.7566 398.636C75.402 360.762 74.78 316.705 89.0507 281.098C104.164 243.224 133.107 208.742 171.122 183.011C184.389 174.079 216.845 156.757 220.357 156.757C222.163 156.757 238.943 199.408 237.458 200.351C237.077 200.512 230.393 204.025 222.726 208.1C174.274 233.269 143.524 266.747 130.979 307.914C125.58 325.877 126.363 355.282 132.706 373.768C145.491 410.699 182.723 448.814 226.88 470.37C232.841 473.2 237.699 476.252 237.699 477.035C237.699 478.6 222.946 518.2 222.023 519.143C221.702 519.444 213.934 515.993 204.762 511.537ZM223.267 497.728C225.857 490.764 228.526 483.778 229.148 482.213C229.931 480.166 227.823 478.139 221.3 474.988C190.491 460.014 153.48 427.479 138.667 402.39C106.292 347.515 116.649 287.923 166.968 238.688C182.503 223.474 211.586 204.105 229.771 196.82C231.256 196.197 218.089 166.17 216.283 166.17C212.449 166.25 182.503 183.251 168.232 193.528C129.193 221.588 98.4439 264.238 89.1107 303.056C85.3574 318.892 85.1968 352.291 88.8097 369.473C100.009 422.621 139.229 468.965 201.009 502.203C209.318 506.599 216.684 510.273 217.306 510.273C217.929 510.353 220.598 504.633 223.187 497.728H223.267ZM205.083 492.871C205.785 490.984 205.083 489.338 203.276 488.636C199.824 487.311 199.202 484.16 202.413 484.16C203.598 484.16 205.625 482.674 207.03 480.868C208.535 478.921 209.539 478.52 209.539 479.925C209.539 481.269 211.345 482.293 213.553 482.293C216.764 482.293 217.065 482.835 215.419 484.882C214.255 486.287 213.774 488.796 214.496 490.522C215.339 492.791 214.878 493.272 212.609 492.409C210.964 491.767 208.294 492.248 206.729 493.573C204.38 495.54 204.139 495.38 205.083 492.871ZM184.148 481.028C185.092 478.138 184.45 476.413 182.101 474.988C179.05 473.201 179.05 473.04 181.941 472.96C183.667 472.96 185.794 471.856 186.577 470.451C187.741 468.484 189.006 468.484 192.458 470.21C195.268 471.695 196.071 472.959 194.726 473.823C193.562 474.525 193.161 476.713 193.783 478.68C194.646 481.43 194.184 481.972 191.916 481.109C190.331 480.487 187.601 481.109 185.955 482.514C183.205 484.722 183.044 484.562 184.148 480.949V481.028ZM164.699 466.056C164.699 464.089 163.676 461.439 162.431 460.174C160.705 458.448 161.087 457.986 164.318 457.986C166.968 457.986 168.473 456.802 168.473 454.695C168.533 451.543 168.694 451.543 170.5 454.695C171.524 456.481 173.711 457.986 175.277 457.986C177.705 457.986 177.786 458.449 175.919 460.717C174.655 462.303 174.113 464.811 174.735 466.377C175.919 469.508 173.089 470.29 171.203 467.239C170.34 465.894 169.175 465.976 167.369 467.461C165.241 469.187 164.699 468.966 164.699 466.056ZM154.342 452.186C153.64 451.082 151.452 450.62 149.485 451.082C146.595 451.865 146.033 451.323 146.896 448.573C147.539 446.686 147.057 444.579 145.893 443.876C144.548 443.013 145.411 441.749 148.161 440.344C151.693 438.538 152.857 438.617 154.041 440.584C154.904 441.909 156.932 443.013 158.738 443.093C161.649 443.093 161.648 443.315 158.577 445.663C156.631 447.169 155.768 449.356 156.47 451.163C157.795 454.615 156.229 455.317 154.342 452.186ZM135.857 433.84C135.134 432.656 132.786 431.793 130.518 431.793C127.527 431.793 127.066 431.251 128.712 429.605C130.197 428.1 130.277 426.375 129.033 424.027C127.607 421.357 127.768 420.895 130.116 421.758C131.702 422.3 134.051 421.999 135.295 420.895C138.988 417.845 142.039 425.913 139.289 431.472C137.964 434.142 136.64 435.085 135.857 433.84ZM119.78 412.505C115.926 409.374 115.063 401.064 118.836 402.469C120.322 403.092 122.048 402.711 122.67 401.767C124.477 398.857 127.768 399.72 126.684 402.711C126.042 404.196 126.363 405.922 127.387 406.544C128.391 407.166 128.17 409.133 126.825 411.26C124.176 415.495 123.614 415.636 119.86 412.505H119.78ZM110.447 392.515C110.447 391.491 109.182 390.628 107.617 390.628C104.486 390.628 103.863 387.737 106.613 386.011C107.617 385.389 108.018 383.884 107.536 382.639C106.994 381.154 108.72 380.291 112.173 380.13C115.786 380.05 117.351 380.753 116.709 382.318C116.167 383.583 116.709 385.148 117.733 385.85C118.917 386.553 118.295 388.44 116.007 390.708C111.852 394.782 110.447 395.264 110.447 392.515ZM103.943 369.533C103.161 367.746 101.435 366.322 99.9292 366.322C98.5242 366.322 97.3602 365.458 97.3602 364.455C97.3602 363.431 98.2234 362.568 99.2269 362.568C100.251 362.568 101.114 360.761 101.114 358.573C101.114 355.422 101.595 355.041 103.703 356.767C105.108 357.932 107.617 358.333 109.263 357.711C111.551 356.848 112.092 357.31 111.229 359.578C110.527 361.224 111.069 363.813 112.333 365.378C114.28 367.667 113.979 368.127 110.828 368.127C108.72 368.127 106.613 369.231 106.131 370.476C105.589 372.122 104.887 371.821 103.943 369.533ZM96.8785 341.794C94.1287 338.803 94.0683 338.262 96.4166 338.262C98.0625 338.262 99.2269 336.535 99.2269 334.106C99.2269 330.895 99.7889 330.494 101.515 332.22C102.759 333.484 105.027 334.489 106.613 334.489C108.48 334.489 109.503 336.214 109.503 339.205C109.503 341.794 108.56 343.821 107.396 343.821C106.131 343.821 104.024 344.223 102.679 344.604C101.274 345.005 98.6849 343.821 96.8785 341.875V341.794ZM101.114 320.298C101.114 318.973 99.7084 317.086 97.9823 316.063C95.2325 314.577 95.3127 314.196 98.9256 313.092C101.113 312.389 103 310.343 103 308.617C103.08 305.807 103.241 305.807 104.947 308.777C106.051 310.584 108.259 312.069 109.965 312.069C112.253 312.069 112.554 312.631 110.989 314.116C109.825 315.28 109.262 317.327 109.744 318.572C110.286 319.997 108.72 321.322 105.89 321.803C102.759 322.425 101.114 321.943 101.114 320.298ZM105.67 297.416C106.533 294.827 105.81 293.021 103.542 291.696C100.331 289.81 100.331 289.73 103.703 289.649C105.67 289.649 108.319 288.164 109.744 286.358C112.092 283.226 112.173 283.226 112.253 286.358C112.253 288.164 113.578 289.568 115.143 289.568C117.351 289.568 117.652 290.431 116.408 292.86C115.464 294.667 115.063 297.416 115.625 298.982C116.327 301.169 116.006 301.251 114.14 299.524C112.414 297.879 110.768 297.798 108.098 299.223C104.947 300.929 104.646 300.708 105.67 297.416ZM115.063 274.996C115.625 273.491 115.223 271.143 113.979 269.738C112.333 267.691 112.715 267.149 115.846 267.149C118.054 267.149 119.78 266.125 119.78 264.961C119.78 263.696 121.506 264.56 123.613 266.828C126.905 270.28 127.146 271.464 125.018 274.194C121.967 278.289 113.578 278.991 115.063 274.996ZM132.866 257.977C132.866 257.033 131.461 256.631 129.655 257.113C127.066 257.816 126.363 256.792 126.363 252.256C126.363 248.563 127.146 246.836 128.631 247.398C129.896 247.86 131.461 247.459 132.003 246.536C133.729 243.786 136.64 244.327 136.64 247.398C136.64 248.803 137.723 250.53 138.988 251.072C140.875 251.935 140.875 252.417 138.988 253.26C137.723 253.903 136.64 255.548 136.64 257.033C136.64 258.438 135.857 259.703 134.753 259.703C133.729 259.703 132.947 258.92 132.947 257.977H132.866ZM147.057 239.311C146.435 238.207 144.387 237.905 142.661 238.607C139.931 239.631 139.851 239.31 141.798 236.881C143.143 235.235 143.604 232.405 142.902 230.619C142.039 228.25 142.28 227.709 143.926 228.653C145.17 229.435 147.217 229.195 148.462 228.171C150.107 226.766 151.292 227.469 152.777 230.68C154.503 234.373 154.342 235.697 151.613 238.146C149.485 240.092 147.759 240.495 147.057 239.311ZM163.756 224.016C163.134 223.093 160.866 222.23 158.658 222.23C155.125 222.23 155.065 221.989 157.634 218.998C159.22 217.212 160.143 214.843 159.762 213.839C159.36 212.816 161.568 211.872 164.619 211.792C167.67 211.632 169.717 212.335 169.175 213.278C168.613 214.141 169.015 216.027 170.119 217.291C171.524 218.998 171.042 220.503 168.473 222.771C166.345 224.578 164.378 225.12 163.756 224.016ZM181.639 210.548C181.559 208.741 180.295 207.317 178.729 207.317C177.164 207.317 175.919 206.454 175.919 205.45C175.919 204.426 176.863 203.564 177.947 203.564C179.131 203.564 179.432 201.918 178.569 199.329C177.404 195.635 177.645 195.414 180.295 197.682C182.964 199.87 183.908 199.87 186.577 197.682C189.407 195.414 189.548 195.554 188.383 198.625C187.681 200.572 188.062 203.322 189.246 204.747C190.812 206.694 190.812 207.256 189.006 207.256C187.681 207.256 185.473 208.741 184.148 210.548C181.8 213.679 181.639 213.679 181.639 210.548ZM200.226 196.98C200.226 195.495 198.801 194.23 197.075 194.23C194.566 194.23 194.425 193.688 196.131 191.962C197.395 190.698 198.419 188.108 198.419 186.081C198.419 183.251 198.961 182.95 200.928 184.676C202.333 185.84 204.682 186.322 206.107 185.76C207.893 185.138 208.756 186.462 208.836 190.476C208.997 193.989 208.134 196.037 206.568 196.037C205.163 196.037 203.979 196.9 203.979 197.923C203.979 198.927 203.196 199.79 202.092 199.79C201.089 199.79 200.226 198.546 200.226 196.98ZM728.101 498.049C723.565 486.127 720.193 476.171 720.574 475.85C720.895 475.629 728.342 471.696 737.053 467.159C767.622 451.404 799.073 423.565 813.484 399.419C829.883 372.042 835.282 335.431 826.972 307.914C814.428 266.446 782.053 231.623 733.44 207.317C726.696 203.945 720.895 200.975 720.494 200.573C719.33 199.489 735.788 156.757 737.434 156.757C740.967 156.757 768.886 171.971 785.344 182.789C805.095 195.715 830.344 219.158 843.993 237.202C855.112 251.854 870.326 282.202 874.963 298.982C879.74 316.303 879.659 360.52 874.802 377.541C861.796 423.163 829.401 465.273 784.863 494.437C770.752 503.77 740.806 519.766 737.675 519.686C736.892 519.686 732.577 509.972 728.101 498.049ZM754.535 504.472C811.136 476.091 854.329 426.535 868.52 373.768C873.779 354.017 873.779 322.184 868.46 301.491C855.975 252.637 817.177 207.477 760.416 175.564C751.243 170.405 742.773 166.17 741.589 166.17C740.505 166.17 737.133 172.673 734.143 180.582C731.172 188.51 728.422 195.636 728.101 196.499C727.8 197.281 728.422 197.923 729.526 197.923C730.69 197.923 738.92 202.078 747.952 207.176C813.806 244.489 847.586 303.839 835.442 361.002C825.868 406.163 789.82 448.493 739.401 473.743C731.332 477.737 729.526 479.544 729.988 482.835C730.61 487.07 736.812 489.659 738.779 486.448C739.482 485.424 741.428 486.588 743.315 489.036C745.202 491.465 745.824 493.493 744.72 493.493C743.636 493.493 742.773 495.299 742.773 497.487C742.773 500.799 742.292 501.099 739.943 499.072C738.378 497.808 736.651 497.106 736.19 497.568C734.925 498.832 739.562 510.352 741.368 510.352C742.211 510.352 748.092 507.684 754.535 504.472ZM752.889 483.698C752.728 480.486 753.592 478.519 755.157 478.519C756.562 478.519 757.746 477.496 757.746 476.171C757.827 474.686 758.609 474.847 760.095 476.874C761.359 478.44 763.627 480.326 765.193 480.868C766.919 481.57 767.16 482.052 765.654 482.132C764.41 482.293 763.306 483.778 763.306 485.584C763.306 487.852 761.821 488.796 758.208 488.796C753.832 488.796 752.969 488.013 752.809 483.698H752.889ZM780.327 476.793C778.922 475.93 776.714 475.549 775.469 476.01C774.124 476.552 772.8 474.846 772.258 472.096C771.616 468.965 772.178 467.32 773.743 467.32C775.068 467.32 776.634 466.297 777.196 464.952C778.059 463.085 778.52 463.085 779.383 464.952C780.005 466.297 781.732 467.32 783.378 467.32C785.726 467.32 785.806 467.862 783.94 470.13C782.675 471.616 782.133 474.123 782.675 475.709C783.939 479.001 783.859 479.061 780.327 476.793ZM790.121 462.844C790.824 460.957 790.743 458.448 789.88 457.284C788.877 456.02 789.419 453.972 791.386 452.186C794.276 449.436 794.898 449.516 798.591 452.487C800.86 454.374 801.883 456.341 800.859 456.963C799.856 457.586 799.535 459.472 800.237 461.198C801.1 463.547 800.639 463.948 798.049 462.924C796.163 462.222 793.333 462.684 791.767 464.009C789.258 466.056 789.038 465.894 790.121 462.844ZM806.981 447.249C807.684 446.064 807.142 444.017 805.797 442.693C802.124 438.859 807.844 433.842 812.942 436.411C817.017 438.538 818.342 446.767 814.588 446.767C813.324 446.767 810.815 447.309 809.029 448.031C806.901 448.814 806.199 448.493 806.981 447.249ZM821.332 431.393C821.332 429.687 819.847 427.399 818.04 426.375C814.909 424.669 814.909 424.508 818.04 423.244C819.847 422.622 821.332 420.735 821.332 419.169C821.332 416.901 821.794 416.821 824.082 418.707C825.648 419.952 828.156 420.513 829.802 419.871C831.99 419.008 832.231 419.49 830.886 422.079C829.802 424.026 829.802 426.535 830.826 428.422C832.231 430.851 831.83 431.251 828.618 430.388C826.35 429.826 824.002 430.469 823.058 431.954C821.714 434.061 821.412 433.982 821.332 431.393ZM834.499 412.505C834.419 410.699 833.094 408.672 831.448 408.03C828.698 407.026 828.698 406.705 831.368 405.22C833.094 404.276 833.796 402.39 833.094 400.503C832.231 398.155 832.693 397.772 835.202 398.716C837.008 399.418 839.436 399.96 840.701 399.96C841.865 399.96 842.889 402.088 842.889 404.657C842.889 407.246 842.106 409.294 841.163 409.294C840.3 409.294 838.413 410.779 837.008 412.586C834.66 415.717 834.579 415.716 834.499 412.505ZM845.017 391.732C844.374 390.086 842.427 388.741 840.621 388.741C838.112 388.741 837.871 388.199 839.677 386.473C840.922 385.308 841.865 382.941 841.865 381.375C841.865 379.428 843.672 378.484 847.284 378.484C850.817 378.484 852.383 379.267 851.76 380.832C851.198 382.077 851.821 384.446 853.165 385.931C855.052 388.199 854.892 388.741 852.543 388.741C850.897 388.741 848.85 390.086 847.907 391.732C846.341 394.562 846.1 394.562 845.077 391.732H845.017ZM852.222 369.533C851.439 367.746 849.091 366.241 846.803 366.161C844.615 366.021 843.912 365.539 845.157 365.077C846.502 364.515 847.525 362.408 847.525 360.361C847.525 357.852 848.449 356.928 850.094 357.55C851.519 358.092 853.627 357.631 854.811 356.447C856.296 354.881 856.838 355.423 856.838 358.494C856.838 360.681 857.862 362.568 859.126 362.568C860.451 362.568 860.13 363.512 858.424 364.917C856.778 366.161 855.052 368.529 854.49 370.014C853.707 372.362 853.326 372.283 852.222 369.613V369.533ZM853.868 344.925C848.449 342.577 848.69 335.833 854.269 333.244C857.862 331.518 858.725 331.598 858.725 333.785C858.725 335.271 860.13 336.997 861.796 337.639C864.445 338.643 864.526 339.124 862.097 340.85C860.532 342.014 858.966 343.741 858.564 344.764C858.022 346.029 856.377 346.089 853.788 344.925H853.868ZM851.6 321.722C848.77 321.321 847.585 320.218 848.228 318.492C848.77 317.087 848.388 315.361 847.284 314.738C846.1 314.036 847.124 312.551 849.713 311.286C853.165 309.48 854.329 309.48 855.594 311.447C856.377 312.852 858.424 313.956 860.13 313.956C862.88 313.956 862.88 314.196 860.21 316.304C858.645 317.568 856.999 319.434 856.617 320.458C856.216 321.482 853.948 322.104 851.6 321.722ZM841.865 297.798C841.865 295.771 840.922 293.102 839.677 291.837C837.871 290.111 838.353 289.568 841.564 289.568C844.153 289.568 845.638 288.385 845.719 286.358C845.719 283.226 845.879 283.226 848.228 286.358C849.633 288.164 851.821 289.568 853.085 289.568C854.972 289.568 854.972 290.19 853.165 292.398C851.901 293.884 851.359 296.473 851.901 298.038C852.844 300.306 852.302 300.548 849.633 299.063C847.284 297.798 845.558 297.958 844.073 299.444C842.427 301.009 841.865 300.708 841.865 297.878V297.798ZM834.419 275.779C834.419 274.836 832.934 273.03 831.127 271.625C828.779 269.819 828.538 269.116 830.505 269.116C831.91 269.036 834.198 267.53 835.603 265.744C837.088 263.777 838.112 263.375 838.112 264.8C838.112 266.125 839.838 267.149 841.865 267.149C845.799 267.149 846.963 269.899 843.832 271.766C842.889 272.408 842.507 274.053 843.049 275.458C843.752 277.265 842.568 277.888 839.216 277.727C836.627 277.566 834.419 276.702 834.419 275.779ZM821.332 257.033C821.332 255.307 819.987 253.421 818.342 252.798C815.532 251.695 815.532 251.474 818.342 249.969C819.987 249.045 821.332 246.837 821.332 245.191C821.332 242.762 821.794 242.602 823.6 244.328C824.785 245.593 827.514 246.596 829.562 246.596C832.392 246.596 832.773 247.078 831.127 248.724C829.562 250.289 829.561 251.935 830.966 254.604C832.693 257.816 832.472 258.217 829.722 257.113C827.916 256.411 825.326 256.793 823.921 257.977C821.874 259.623 821.332 259.462 821.332 257.033ZM806.359 237.985C806.359 236.56 805.095 235.316 803.529 235.316C802.044 235.316 800.779 234.534 800.779 233.51C800.779 232.406 801.582 231.623 802.586 231.623C803.69 231.623 804.472 229.836 804.472 227.628C804.472 224.497 805.014 224.097 807.062 225.823C808.467 227.007 810.815 227.468 812.24 226.927C817.097 225.04 815.692 236.179 810.755 238.528C807.222 240.174 806.359 240.093 806.359 237.985ZM789.579 223.635C789.579 221.828 788.175 220.423 786.529 220.423C784.02 220.423 783.859 219.861 785.726 217.593C787.07 216.108 787.532 213.518 786.99 211.953C786.127 209.685 786.589 209.445 789.258 210.93C791.607 212.194 793.413 212.033 794.979 210.548C796.865 208.741 797.187 209.043 796.705 212.034C796.404 214.061 796.785 216.81 797.648 218.074C798.511 219.479 798.21 220.423 796.865 220.423C795.621 220.423 793.493 221.908 792.169 223.714C789.74 226.765 789.66 226.765 789.579 223.714V223.635ZM770.913 209.604C770.833 208.34 768.966 207.317 766.678 207.317C763.467 207.317 763.085 206.774 764.791 205.048C766.056 203.804 767.079 201.516 767.079 199.87C767.079 195.254 775.55 196.278 777.818 201.215C779.223 204.105 779.223 205.45 777.898 205.45C776.794 205.45 774.767 206.855 773.422 208.661C771.857 210.688 770.913 211.09 770.833 209.604H770.913ZM751.464 197.141C750.761 195.334 749.035 194.231 747.711 194.773C745.904 195.495 745.282 194.149 745.362 190.316C745.523 186.462 746.386 185.138 748.172 185.76C749.597 186.322 751.705 186.001 752.809 184.977C754.294 183.813 755.619 184.736 757.124 187.807C758.288 190.316 758.449 192.343 757.506 192.343C756.562 192.343 755.077 194.15 754.214 196.358C752.889 200.031 752.648 200.031 751.464 197.141ZM250.785 348.759V245.111L257.068 243.946C264.113 242.601 268.348 243.786 274.851 248.804C277.36 250.69 282.377 252.176 286.452 252.176C290.386 252.176 294.059 253.039 294.701 254.063C295.404 255.066 298.996 255.929 302.77 256.009C306.604 256.009 311.32 257.274 313.348 258.76C315.315 260.325 318.205 261.509 319.71 261.509C321.276 261.509 323.865 262.753 325.591 264.319C329.826 268.173 368.865 271.545 375.207 268.635C378.66 267.069 381.008 267.068 384.621 268.714C387.21 269.899 393.091 270.902 397.567 270.902C402.103 270.902 406.258 271.624 406.82 272.487C407.281 273.33 419.826 273.733 434.478 273.332C449.23 272.87 475.102 272.407 492.123 272.167C513.599 271.845 524.337 270.902 527.468 269.176C531.001 267.229 533.43 267.149 539.15 268.875C543.164 270.039 547.379 270.44 548.643 269.658C553.119 266.908 568.474 265.021 593.724 264.319C619.355 263.536 619.595 263.537 626.018 257.816C633.244 251.474 632.762 251.614 648.297 251.152C669.312 250.53 685.69 247.941 691.571 244.489C694.702 242.522 699.178 240.956 701.366 240.956C705.38 240.956 705.38 240.956 705.38 346.651V452.327H596.694C517.994 452.327 488.51 451.785 489.373 450.219C491.561 446.687 505.831 441.207 512.896 441.127C518.536 441.127 536.179 433.6 543.545 428.04C544.569 427.237 548.322 425.672 551.935 424.508L558.519 422.38L557.896 353.234C557.575 312.149 558.057 281.419 559.141 277.505C560.867 271.303 560.726 270.823 556.792 270.823C550.209 270.823 546.757 274.756 543.706 285.815C538.146 305.726 529.515 377.14 529.515 403.172C529.515 411.803 528.813 414.934 526.926 414.934C524.959 414.934 524.096 407.729 523.153 380.753C521.286 328.688 518.075 281.5 516.108 277.888C513.278 272.408 509.203 274.134 507.176 281.661C504.728 290.833 501.436 337.479 501.436 363.813C501.436 377.702 500.733 385.229 499.248 386.092C497.602 387.095 497.442 373.628 498.385 331.036C499.649 277.567 499.569 274.595 496.338 274.675C486.703 274.756 485.599 280.798 481.686 356.928C480.04 389.303 478.394 416.118 478.073 416.419C477.13 417.362 475.564 397.13 474.239 369.071C473.135 343.66 468.679 293.563 466.632 282.584C465.689 277.647 464.585 276.402 461.775 276.863C458.322 277.425 458.162 279.373 458.082 328.849L457.921 380.291L455.653 336.375C452.843 281.581 450.093 272.167 438.251 276.643C434.096 278.208 434.096 278.289 434.096 323.208C434.096 347.896 433.314 368.127 432.451 368.127C431.587 368.127 430.263 354.479 429.54 337.719C428.055 303.297 425.626 282.584 422.575 278.991C421.471 277.566 418.26 276.482 415.43 276.482C410.332 276.482 410.332 276.482 409.088 337.479C407.743 398.476 407.743 398.475 412.058 402.951C414.407 405.379 417.779 409.053 419.585 411.1C422.014 413.99 425.165 414.934 432.29 414.934C444.373 414.934 448.207 417.061 450.876 425.049C452.984 431.472 461.614 439.481 468.82 441.829C471.028 442.451 474.701 445.121 477.129 447.711C481.525 452.327 481.525 452.327 366.115 452.327H250.705L250.785 348.759ZM591.215 419.169C591.375 386.794 599.062 294.125 601.792 291.536C602.434 290.974 602.434 295.61 601.712 301.732C599.685 320.619 596.855 377.22 596.855 400.503C596.775 421.999 596.935 422.461 600.548 420.574C604 418.708 604.301 416.66 604.301 391.972C604.301 344.684 609.56 278.59 613.875 270.521C615.441 267.531 614.818 267.149 608.155 267.149C601.792 267.149 600.227 268.012 597.878 272.487C591.757 284.309 585.575 324.312 580.858 382.238L578.289 413.991L579.072 380.371C579.935 344.142 584.089 299.062 588.164 281.661C590.893 270.2 590.191 269.036 583.848 274.194C580.798 276.643 579.132 281.42 577.104 294.265C573.893 313.875 567.772 373.306 565.885 402.148C564.64 422.159 564.64 422.16 571.846 422.942C590.432 424.809 591.215 424.729 591.215 419.169ZM397.486 368.208C393.873 323.59 389.96 302.514 382.433 287.541C378.358 279.151 370.109 272.247 373.341 279.774C378.278 291.215 380.225 305.245 381.49 336.375C382.192 355.423 382.353 372.042 381.65 373.387C381.008 374.792 379.442 362.327 378.278 345.789C374.746 299.223 369.105 274.675 361.799 274.675C359.451 274.675 359.07 276.001 359.853 280.717C360.394 284.089 361.338 293.563 361.88 301.732C362.904 317.709 362.442 317.086 356.16 293.803C354.674 288.324 351.222 281.5 348.392 278.429C342.912 272.628 330.047 268.474 331.552 273.03C332.014 274.435 334.764 275.84 337.574 276.161C344.719 277.024 348.312 286.438 349.175 306.429L349.817 322.345L346.284 306.429C340.082 278.51 338.918 278.429 338.758 305.886C338.677 333.163 337.654 331.117 352.326 333.706C361.097 335.271 364.71 340.289 364.549 350.967C364.389 356.988 365.573 360.219 368.865 363.732C372.156 367.345 373.481 371.258 374.204 380.05C375.127 391.571 375.127 391.57 383.677 391.029C390.341 390.627 393.01 391.33 395.68 394.32C397.567 396.428 399.293 397.933 399.514 397.612C399.674 397.371 398.811 384.124 397.486 368.127V368.208ZM512.194 408.751C511.391 406.865 510.929 379.508 511.01 347.896C511.251 302.816 511.632 293.964 512.977 306.348C514.843 325.014 514.221 413.689 512.194 408.751ZM544.73 377.541C544.328 325.014 548.724 278.349 554.043 278.349C555.227 278.349 555.628 280.156 555.066 282.584C553.119 290.272 549.828 327.443 547.379 369.071L544.95 410.237L544.73 377.541ZM488.59 367.746C488.67 345.869 489.453 321.643 490.156 313.956C491.019 304.783 491.561 318.732 491.801 353.696C492.042 388.52 491.4 407.487 490.236 407.487C489.052 407.487 488.429 393.137 488.59 367.746ZM444.835 378.644C442.807 348.839 443.269 289.408 445.457 294.988C446.481 297.577 447.022 320.78 446.721 349.241C446.32 391.33 446.019 395.886 444.835 378.644ZM465.227 382.639C463.099 355.664 462.397 286.598 464.203 293.342C466.17 300.467 468.981 396.207 467.254 396.207C466.712 396.207 465.769 390.166 465.227 382.639ZM421.01 392.976C420.85 388.601 417.237 312.309 416.454 298.982L415.591 283.066L418.34 297.095C421.07 311.446 424.382 394.401 422.174 394.401C421.552 394.401 421.01 393.759 421.01 392.976ZM340.564 190.476C340.564 174.861 340.865 173.617 344.318 173.617C347.69 173.617 348.011 174.861 348.011 186.703C348.011 199.79 348.011 199.79 354.594 199.79C359.933 199.79 361.097 200.513 361.097 203.564C361.097 206.855 359.933 207.317 350.821 207.317H340.564V190.476ZM370.892 204.346C367.219 201.837 366.737 199.79 366.737 187.567C366.737 174.862 367.058 173.617 370.511 173.617C373.883 173.617 374.204 174.861 374.204 186.543C374.204 199.79 376.15 203.021 382.654 200.512C384.781 199.649 385.484 196.277 385.484 186.543C385.484 174.861 385.805 173.617 389.177 173.617C392.629 173.617 392.93 174.862 392.93 187.567C392.93 202.861 390.04 207.317 379.844 207.317C377.254 207.317 373.18 205.992 370.892 204.346ZM399.915 206.152C396.302 202.539 398.891 199.79 406.017 199.79C415.27 199.79 415.51 197.602 406.88 192.585C398.65 187.647 397.326 184.195 401.24 178.153C403.829 174.24 405.635 173.536 411.275 173.998C416.293 174.4 418.341 175.483 418.802 178.073C419.364 180.983 418.561 181.444 414.728 180.742C409.248 179.658 403.367 182.549 407.683 184.275C409.088 184.817 412.841 187.727 416.052 190.617C421.712 195.715 421.873 196.036 419.043 201.134C416.775 205.289 414.648 206.453 408.686 206.935C404.612 207.176 400.617 206.855 399.915 206.152ZM422.877 204.969C422.796 203.644 425.085 196.037 427.895 188.029C432.531 174.701 433.314 173.456 437.549 173.998C441.463 174.48 442.948 176.748 447.504 189.372C450.394 197.521 452.843 204.888 452.843 205.751C452.843 208.963 445.537 207.096 444.373 203.564C443.51 200.894 441.543 199.79 437.549 199.79C433.474 199.79 431.587 200.814 430.885 203.564C429.861 207.558 422.877 208.822 422.796 204.969H422.877ZM440.218 188.59C439.195 184.515 435.983 181.525 435.983 184.596C435.983 185.6 435.421 187.727 434.799 189.372C434.016 191.48 434.799 192.343 437.468 192.343C440.298 192.343 441.001 191.4 440.218 188.59ZM456.516 190.476C456.516 174.861 456.837 173.617 460.29 173.617C463.34 173.617 464.043 174.862 464.043 180.662L464.123 187.646L469.844 180.662C473.055 176.748 477.21 173.617 479.177 173.617C483.954 173.617 483.652 175.263 477.772 181.364C473.376 186.001 473.055 187.105 475.022 191.802C476.266 194.632 478.715 198.926 480.501 201.295C483.733 205.53 483.793 205.53 488.972 189.453C493.909 174.56 494.551 173.456 498.927 173.998C503.021 174.48 504.346 176.667 509.043 190.316C515.566 209.042 515.405 207.317 510.608 207.317C508.26 207.317 506.313 205.751 505.671 203.564C505.049 200.894 503.162 199.79 499.408 199.79C496.036 199.79 493.367 201.135 492.123 203.564C490.617 206.313 488.189 207.317 482.789 207.317C476.507 207.317 475.022 206.394 471.489 200.734C469.302 197.141 466.712 194.23 465.769 194.23C464.826 194.23 464.043 197.141 464.043 200.734C464.043 206.073 463.34 207.317 460.29 207.317C456.837 207.317 456.516 206.072 456.516 190.476ZM501.436 189.995C501.355 186.944 497.763 181.305 497.763 184.275C497.682 185.459 497.201 187.727 496.579 189.372C495.796 191.339 496.418 192.343 498.465 192.343C500.111 192.343 501.436 191.259 501.355 189.995H501.436ZM529.515 190.476C529.515 174.861 529.757 173.617 533.269 173.617C536.34 173.617 536.962 174.862 536.962 180.502V187.325L543.084 180.28C547.158 175.563 550.45 173.456 552.878 173.838C556.09 174.48 555.929 175.182 550.691 181.063L544.87 187.486L550.45 197.442C555.708 206.695 555.849 207.317 552.256 207.317C549.968 207.317 546.917 204.748 544.489 200.734C542.221 197.141 539.631 194.23 538.688 194.23C537.745 194.23 536.962 197.141 536.962 200.734C536.962 206.073 536.26 207.317 533.269 207.317C529.757 207.317 529.515 206.072 529.515 190.476ZM558.519 205.45C556.953 202.941 559 199.79 562.131 199.79C564.881 199.79 567.31 204.426 565.503 206.152C563.777 207.958 559.783 207.477 558.519 205.45ZM572.548 190.476C572.548 174.861 572.789 173.617 576.241 173.617C579.774 173.617 579.995 174.861 579.995 190.476C579.995 206.072 579.694 207.317 576.241 207.317C572.789 207.317 572.548 206.072 572.548 190.476ZM586.518 205.369C585.816 204.185 586.036 202.379 587.14 201.295C589.649 198.786 595.53 200.894 594.506 204.025C593.483 207.177 588.164 208.039 586.518 205.369ZM597.798 203.403C605.947 177.772 607.533 174.56 611.989 173.998C616.063 173.536 617.006 174.942 622.506 190.397C628.527 207.317 628.527 207.317 623.911 207.317C620.539 207.317 619.274 206.313 619.274 203.564C619.274 200.573 618.03 199.79 612.932 199.79C608.235 199.79 606.429 200.733 605.646 203.564C605.084 205.832 603.137 207.317 600.628 207.317C597.417 207.317 596.855 206.534 597.798 203.403ZM614.818 189.372C614.196 187.727 613.634 184.977 613.634 183.251C613.634 180.581 613.413 180.501 611.828 182.95C609.018 187.245 609.64 192.264 612.932 192.264C614.899 192.264 615.601 191.259 614.818 189.372ZM298.294 159.648C297.21 155.112 300.883 142.326 311.24 115.129C313.909 108.225 315.314 102.504 314.451 102.504C313.588 102.504 307.467 104.23 300.964 106.258C286.071 110.894 287.014 111.055 284.666 104.311C283.16 100.076 283.241 98.4298 284.967 97.7875C286.231 97.3259 296.889 94.034 308.731 90.5818C330.288 84.2393 330.288 84.239 331.853 89.3371C333.118 93.3313 331.472 99.7548 323.784 120.147C318.446 134.338 314.371 146.179 314.773 146.561C315.074 146.882 321.195 145.537 328.401 143.59C345.422 138.793 347.388 138.954 348.874 144.834C349.576 147.504 349.737 150.094 349.255 150.555C348.392 151.419 303.151 164.203 300.803 164.283C300.101 164.283 298.936 162.157 298.294 159.648ZM646.411 160.752C641.313 159.648 640.69 158.784 639.908 150.334C638.964 141.081 638.964 141.081 629.551 138.713C616.766 135.341 616.846 135.341 612.852 142.727C610.965 146.32 608.315 149.311 607.051 149.311C602.435 149.311 593.101 146.963 593.101 145.698C593.101 144.755 629.39 88.2336 631.438 86.0258C632.301 85.1025 644.524 87.6712 647.194 89.3371C648.759 90.3407 650.566 99.7548 652.131 115.912C653.556 129.621 655.202 145.698 655.744 151.659C656.988 163.26 657.149 163.02 646.411 160.752ZM639.205 118.18C638.563 113.403 638.021 107.282 638.021 104.612C638.021 100.458 636.997 101.401 631.438 110.573C623.75 123.359 623.59 124.462 629.089 125.546C640.209 127.674 640.45 127.513 639.205 118.18ZM352.326 146.32C352.948 144.374 355.698 128.216 358.588 110.413C364.228 75.2079 363.225 77.1745 376.934 75.9301C380.867 75.5287 382.975 76.4715 384.46 79.141C403.909 115.59 415.671 138.412 415.129 138.873C414.808 139.194 411.356 140.058 407.522 140.68C400.858 141.945 400.457 141.704 396.623 134.257C392.689 126.57 392.689 126.57 382.975 127.815C371.213 129.4 370.43 130.023 369.186 139.737C368.544 144.052 367.139 147.424 365.814 147.424C364.55 147.424 360.796 147.966 357.424 148.688C352.085 149.692 351.463 149.391 352.326 146.32ZM384.299 114.487C386.748 113.564 386.347 111.677 381.57 102.183C378.419 96.0011 375.609 91.2045 375.288 91.6059C374.987 91.907 374.123 97.4863 373.401 103.909C372.156 115.43 372.237 115.591 376.773 115.591C379.282 115.591 382.734 115.13 384.299 114.487ZM574.676 144.212C570.902 143.51 570.441 142.566 571.304 137.468C571.846 134.177 574.194 119.746 576.482 105.314C578.751 90.9031 581.179 78.4394 581.962 77.6366C582.664 76.7936 586.197 76.6322 589.729 77.2544L596.152 78.4991L591.756 105.956C589.328 121.01 586.899 136.144 586.438 139.436C585.414 145.698 584.471 146.099 574.676 144.212ZM522.451 138.091C516.028 137.388 510.147 136.205 509.524 135.502C508.26 134.258 512.194 78.1986 513.9 71.836C515.787 65.4132 549.426 69.8885 558.057 77.7162C563.075 82.2724 562.372 94.1952 556.632 99.9155C553.119 103.448 552.557 104.773 554.605 105.556C562.372 108.546 562.593 125.084 554.906 132.29C550.911 136.063 540.173 140.298 536.019 139.656C534.995 139.576 528.893 138.793 522.451 138.091ZM542.923 122.656C547.158 115.912 543.084 110.493 532.486 108.766C526.384 107.743 525.742 108.065 525.742 112.139C525.742 114.568 525.2 118.421 524.658 120.609C523.876 123.519 524.498 124.924 527.006 125.627C532.024 126.972 541.277 125.245 542.923 122.656ZM543.465 94.4162C549.828 89.7195 542.14 81.9512 531.242 81.9512C528.251 81.9512 527.629 83.2967 527.629 89.3984C527.629 96.7043 527.87 96.9251 533.831 96.9251C537.203 96.9251 541.498 95.7599 543.465 94.3549V94.4162ZM420.287 105.173C419.665 87.049 419.585 71.5347 420.147 70.5913C420.769 69.648 424.924 68.8652 429.46 68.8652C439.194 68.8652 438.492 67.8409 448.126 96.5428C452.04 108.144 455.894 116.996 456.677 116.214C457.459 115.35 460.992 104.151 464.525 91.2849C471.028 67.9219 471.028 67.9212 480.501 67.3793C492.183 66.6768 491.48 64.469 492.825 105.796L493.829 136.204H486.382C478.936 136.204 478.936 136.204 478.855 120.77C478.775 112.299 478.153 101.943 477.451 97.8683C476.206 90.6628 475.885 91.2039 469.763 113.322C463.421 136.204 463.421 136.204 456.356 136.204C448.528 136.204 447.745 134.879 437.79 102.966C433.233 88.4744 431.507 85.7252 432.993 95.52C433.474 98.8919 434.418 109.791 435.04 119.826C436.204 138.091 436.204 138.091 428.838 138.091H421.552L420.368 105.173H420.287ZM6.79833 388.981C6.01555 387.737 5.85516 386.091 6.47737 385.529C8.12321 383.803 9.92959 386.312 9.06652 388.981C8.44431 390.868 7.96247 390.868 6.79833 388.981Z" fill="#383B40"/>
</svg>
