<svg width="961" height="672" viewBox="0 0 961 672" fill="none" xmlns="http://www.w3.org/2000/svg">
<path fill-rule="evenodd" clip-rule="evenodd" d="M408.263 669.821C300.134 659.15 195.609 621.72 129.156 569.988C86.8094 537.027 51.7811 498.311 35.2168 466.328C18.848 434.903 10.2172 411.775 8.6809 395.518C8.5971 393.786 6.38981 392.361 3.90377 392.249C0.719394 392.249 0.300541 391.691 2.47932 390.295C5.10503 388.535 5.63605 367.808 3.12207 361.16C2.8986 360.49 2.78693 356.356 3.0104 352.082C3.12213 347.836 2.25606 338.786 0.943207 332.026C-0.257916 325.238 -0.369648 320.35 0.943207 321.104C3.34545 322.64 3.34545 322.529 4.43484 309.987C5.7477 294.037 8.90385 276.802 10.7754 274.176C11.8648 272.78 15.5798 263.394 18.9597 253.45C22.3396 243.422 27.0325 232.277 29.323 228.785C31.7252 225.182 38.038 215.266 43.5129 206.634C73.0661 160.265 134.072 102.556 176.391 80.9354C183.179 77.4438 191.782 72.5559 195.497 70.0419C218.514 54.4273 293.374 27.9181 347.173 16.3538C391.475 6.74484 393.096 6.52215 456.169 1.4104C491.951 -1.55051 545.638 0.320498 574.326 5.43225C582.203 6.85684 595.08 8.81256 602.929 9.70642C610.778 10.6841 618.32 12.304 619.717 13.2816C621.142 14.3989 626.393 16.1306 631.393 17.1082C674.606 25.963 753.069 56.1864 785.918 76.801C823.544 100.488 850.611 120.768 869.718 140.098C884.327 154.819 919.578 197.807 919.578 200.852C919.578 201.522 924.159 210.461 929.83 220.601C947.847 253.338 958.098 287.947 959.942 322.193C961.59 351.216 960.808 360.07 952.512 400.099C949.355 415.49 932.009 452.25 919.243 470.602C916.618 474.401 914.439 478.675 914.439 480.071C914.439 481.607 913.573 483.144 912.483 483.563C911.394 484.121 903.628 492.948 895.36 503.312C861.31 545.323 804.131 588.535 745.639 616.468C711.701 632.725 653.236 651.72 615.918 658.815C612.314 659.345 605.331 660.993 600.303 662.306C595.275 663.507 584.158 665.351 575.639 666.329C567.035 667.334 559.074 668.732 557.761 669.514C553.487 672.028 432.593 672.334 408.152 669.821H408.263ZM530.247 656.524C540.61 656.747 594.521 648.451 621.142 642.557C677.231 630.127 755.89 598.144 798.46 570.434C871.226 523.06 933.098 439.177 938.992 379.903C939.551 373.926 940.752 368.032 941.394 366.943C942.595 364.959 943.238 332.669 942.595 314.456C940.528 263.814 905.724 195.07 859.55 150.656C835.779 127.863 792.343 95.2371 777.734 89.2314C775.108 88.1421 767.678 84.1195 761.365 80.2927C718.041 54.3149 626.616 27.2481 554.912 19.1754C521.867 15.4882 425.191 17.2198 392.761 22.136C277.537 39.4824 180.776 82.6951 112.144 147.388C78.2058 179.483 52.7868 214.931 39.6862 248.227C36.418 256.83 32.1443 267.305 30.3007 271.579C28.5409 275.937 24.9374 289.121 22.4514 301.02C18.7363 318.478 18.5128 323.059 21.2503 324.707C23.4291 326.02 23.6529 327.334 21.7813 328.423C16.7534 331.579 18.8484 375.769 25.273 400.099C44.4909 472.78 93.9046 533.451 171.922 580.239C209.799 602.837 244.045 617.67 297.844 634.486C321.531 642 393.431 654.569 425.079 656.748C442.202 657.949 471.979 658.368 491.308 657.725C510.61 656.943 528.069 656.524 530.247 656.524ZM632.483 127.528C627.594 125.572 626.7 122.528 625.08 100.041C623.013 72.3318 621.588 72.4437 614.717 100.907C611.113 115.852 609.158 119.79 605.443 119.79C597.677 119.79 597.566 116.522 604.353 89.5665C615.136 47.0244 615.359 46.3543 623.32 48.3096C632.706 50.7119 632.482 50.2932 633.599 71.243C634.884 98.8409 636.756 99.9303 643.069 77.1369C648.851 56.0754 650.834 53.2254 657.147 57.164C660.108 59.0076 659.996 62.2765 656.281 77.2486C648.963 107.137 641.756 130.153 639.801 129.93C638.823 129.93 635.555 128.841 632.483 127.528ZM357.648 119.902C356.978 118.812 357.76 101.466 359.381 81.3821C362.341 45.2646 362.425 44.93 369.101 43.5333C377.509 41.7735 379.464 44.5106 396.922 81.1588C408.152 104.511 409.8 109.651 406.727 112.165C401.727 116.299 395.721 113.366 392.676 105.377C390.47 99.7064 388.738 98.8406 381.643 99.483C374.325 100.153 372.9 101.578 370.833 109.874C368.654 118.813 360.693 124.818 357.648 119.902ZM381.196 86.6059C383.18 85.321 382.202 80.628 378.04 71.7733L371.923 58.7845V73.6453C371.923 88.4777 374.018 91.4104 381.196 86.6059ZM583.515 113.896C582.845 112.164 582.091 107.779 581.644 104.176C581.002 98.7288 579.354 97.5281 571.058 96.8856C562.119 96.2152 561.029 96.7736 558.515 104.064C555.582 112.472 546.84 115.097 544.214 108.226C543.46 106.159 548.264 92.6111 554.8 78.1138C561.449 63.5886 568.012 48.9796 569.325 45.488C571.728 39.1472 580.108 37.1923 586.672 41.3264C588.627 42.6392 590.918 55.0971 592.454 73.1978C596.281 115.544 596.169 117.165 589.94 117.165C587.007 117.165 584.158 115.74 583.515 113.896ZM579.577 74.2872C579.577 59.8737 576.421 59.3431 571.169 72.8627C566.812 83.8963 567.454 85.9631 574.772 85.9631C578.711 85.9631 579.577 83.8961 579.577 74.2872ZM419.716 108.673C418.962 106.578 416.895 92.7229 415.135 77.8904C411.979 50.935 411.978 50.9351 404.241 50.9351C398.459 50.9351 396.364 49.6228 395.833 45.7122C395.163 41.0194 397.258 40.0411 413.403 37.192C439.576 32.7227 441.979 32.9463 441.979 40.2369C441.979 45.0414 440.247 46.8016 434.129 48.0027C426.168 49.6229 426.168 49.6222 428.236 69.7061C431.392 102.444 430.973 110.405 425.722 111.494C423.208 111.941 420.61 110.629 419.828 108.673H419.716ZM477.649 107.249C473.404 106.467 473.068 103.086 473.738 69.5944L474.381 32.8351L486.951 32.7225C512.565 32.4991 520.331 40.9074 520.442 69.1478C520.554 88.4775 514.66 103.533 506.364 105.265C496.979 107.248 482.677 108.226 477.649 107.249ZM503.515 88.5887C511.588 72.6389 505.386 44.5111 493.822 44.5111C489.437 44.5111 488.683 46.354 488.571 58.1418C488.459 65.572 487.928 76.3544 487.593 82.1365C487.258 87.8069 487.482 93.5057 488.124 94.5951C490.443 98.8409 500.359 94.9016 503.627 88.5887H503.515ZM531.029 63.3656C530.023 60.9913 530.694 58.5888 532.426 58.0301C536.365 56.7172 536.365 50.405 532.426 49.0922C530.583 48.4218 530.024 45.4887 531.225 41.1311C532.538 35.8797 534.521 34.1478 539.409 34.1478C545.192 34.1478 545.862 35.1255 545.862 44.6227C545.862 50.5166 544.661 57.2762 543.348 59.874C539.633 66.7734 532.984 68.617 531.029 63.3656ZM471.979 571.636C471.225 570.435 472.314 568.032 474.493 566.273C476.56 564.541 478.319 560.295 478.319 556.887C478.319 553.088 479.856 550.686 482.258 550.686C484.325 550.686 486.169 552.195 486.169 554.178C486.169 556.245 489.129 557.67 493.934 557.67C501.448 557.67 501.671 557.222 501.671 545.769C501.671 534.959 500.805 533.228 492.621 527.976C481.923 521.105 480.386 520.881 470.47 526.132C462.928 529.959 462.817 530.602 462.817 549.709C462.817 564.206 461.951 569.01 459.549 568.256C457.705 567.586 456.057 563.675 455.834 559.513C455.61 555.379 455.303 550.686 455.191 549.038C455.079 546.971 451.476 546.859 442.649 548.619C435.861 549.904 419.828 550.35 406.951 549.484C389.716 548.283 378.487 548.926 364.073 552.194C339.967 557.558 337.229 557.893 335.609 554.708C332.425 548.619 367.565 543.144 410.023 543.032C452.677 542.921 458.795 541.524 452.119 533.535C448.543 529.066 448.096 529.513 466.643 518.284C481.057 509.653 503.403 507.92 514.437 514.568C522.51 519.484 522.51 519.484 522.51 513.255C522.51 509.875 521.085 506.607 519.465 506.049C514.548 504.429 519.353 499.066 534.297 489.457C546.951 481.384 549.996 480.63 567.454 480.63C582.734 480.63 588.097 481.719 593.32 485.853C596.923 488.703 600.638 490.993 601.616 490.993C602.482 490.993 603.041 480.183 602.817 466.887C602.482 449.848 603.46 440.462 606.197 435.015C608.264 430.881 612.203 421.272 614.828 413.73C617.426 406.328 620.276 400.099 621.03 400.099C621.924 400.099 625.415 407.306 628.906 416.021C632.286 424.764 637.287 434.68 639.912 437.976C643.404 442.334 644.074 445.49 642.426 448.758C641.225 451.272 640.247 458.032 640.359 463.702C640.583 474.177 640.583 474.177 653.236 473.311C662.51 472.669 667.203 473.758 671.002 477.138C675.918 481.719 676.365 481.607 683.013 473.423C688.795 466.44 691.756 465.015 700.471 465.015C706.253 465.015 712.37 463.702 713.907 462.082C716.197 459.903 719.242 460.211 726.002 463.507C738.544 469.401 751.645 488.367 743.125 488.367C741.729 488.367 740.639 493.283 740.639 499.289C740.639 512.278 736.142 509.876 734.941 496.245C734.075 487.055 734.075 487.054 719.131 487.054C704.186 487.054 704.186 487.054 704.186 503.312C704.186 513.032 705.388 519.569 707.008 519.569C708.544 519.569 708.991 520.77 708.097 522.194C707.231 523.619 702.539 524.708 697.622 524.708C691.421 524.708 688.684 525.91 688.684 528.647C688.684 531.161 686.17 532.557 681.7 532.557C677.874 532.557 672.65 534.541 670.024 536.832C664.13 542.167 661.309 539.987 665.108 532.892C670.025 523.619 668.6 516.524 662.063 517.39C656.924 518.172 656.058 520.015 655.415 532.026C654.437 548.395 649.745 547.725 649.745 531.161C649.745 524.709 648.851 519.485 647.762 519.262C629.214 516.524 628.906 516.635 628.906 525.797C628.906 533.451 629.996 534.652 636.756 536.049C641.449 537.027 644.493 539.233 644.493 541.719C644.493 544.904 643.069 545.435 638.711 543.926C635.443 542.837 627.901 542.166 622.008 542.501C614.158 542.92 610.443 541.943 608.711 538.898C606.532 534.959 606.197 534.959 604.773 538.786C603.907 541.077 601.393 542.921 599.326 542.921C597.259 542.921 595.191 545.547 594.745 548.619C594.186 552.642 591.253 554.932 584.801 556.692C579.801 557.893 573.795 560.714 571.393 562.781C568.543 565.407 566.588 565.742 565.499 563.87C564.521 562.362 556.225 561.161 547.063 561.161C537.565 561.161 530.247 559.959 530.247 558.535C530.247 554.485 524.689 555.379 513.99 561.161C508.096 564.318 501.895 565.742 498.18 564.876C494.465 563.871 488.459 565.407 482.789 568.563C477.565 571.524 472.761 572.949 471.979 571.748V571.636ZM629.884 435.127C628.99 433.06 627.901 431.188 627.37 431.188C626.812 431.188 626.281 433.06 626.281 435.127C626.281 437.305 627.482 439.066 628.795 439.066C630.191 439.066 630.638 437.305 629.884 435.127ZM524.577 541.831C525.359 535.742 524.577 535.071 516.169 535.071C507.119 535.071 506.895 535.407 506.895 545.323C506.895 555.602 506.895 555.602 515.303 552.111C521.309 549.597 524.046 546.636 524.577 541.831ZM541.7 554.29C543.99 553.396 545.862 550.015 545.862 546.747C545.862 541.077 551.532 536.496 554.689 539.652C555.583 540.518 556.225 543.814 556.225 547.082C556.225 554.401 559.828 556.887 567.678 554.82C572.929 553.619 573.907 551.328 574.884 539.652C577.063 512.501 574.996 504.429 563.543 496.887C553.18 490.015 553.18 490.015 541.7 496.328C530.247 502.557 530.247 502.557 530.247 526.132C530.247 552.11 532.538 557.781 541.7 554.29ZM560.471 520.35C557.426 517.278 558.851 511.719 562.65 511.719C564.857 511.719 566.588 513.479 566.588 515.546C566.588 519.792 562.873 522.753 560.471 520.35ZM547.594 502.892C546.085 499.065 547.817 496.245 551.42 496.245C554.381 496.245 554.27 503.311 551.309 505.071C549.996 505.937 548.376 504.959 547.594 502.892ZM536.476 534.093C534.828 529.736 537.007 524.708 540.834 524.708C544.102 524.708 543.907 534.429 540.611 536.384C539.214 537.362 537.342 536.272 536.476 534.093ZM559.828 534.093C558.962 531.579 559.381 528.311 561.029 526.775C563.096 524.596 564.298 525.155 565.61 528.423C566.476 530.825 566.057 534.206 564.409 535.742C562.342 537.809 561.141 537.362 559.828 534.093ZM537.231 520.463C534.074 517.278 535.386 511.719 539.325 511.719C541.504 511.719 543.236 514.01 543.236 516.971C543.236 522.083 540.499 523.731 537.231 520.463ZM621.588 531.915C620.164 530.49 617.538 530.155 615.918 531.245C613.515 532.669 613.628 533.647 616.225 535.295C620.611 538.032 624.968 535.294 621.588 531.915ZM522.51 527.976C522.398 524.066 506.141 516.971 497.09 516.971H487.705L496.532 523.395C504.716 529.513 522.51 532.669 522.51 527.976ZM623.544 484.233C623.879 447.892 623.432 443.87 619.717 445.266C617.427 446.16 613.823 446.914 611.644 446.914C606.644 446.914 607.175 487.725 612.426 497.753C614.605 502.11 615.024 505.713 613.627 507.585C609.689 512.278 613.292 524.708 618.628 524.708C622.901 524.708 623.32 521.44 623.544 484.233ZM611.225 474.959C612.426 466.663 618.516 465.798 618.516 473.87C618.516 478.228 617.119 480.63 614.493 480.63C611.756 480.63 610.666 478.674 611.225 474.959ZM611.644 461.105C609.801 456.301 612.203 449.429 615.918 449.429C617.314 449.429 618.516 452.92 618.516 457.278C618.516 465.35 614.27 467.865 611.644 461.105ZM680.834 513.032C680.834 501.356 680.835 501.356 669.801 501.468C658.795 501.468 658.795 501.468 665.22 506.608C668.823 509.317 672.762 511.607 673.963 511.719C675.164 511.719 675.499 513.591 674.605 515.882C672.874 520.463 674.717 524.708 678.432 524.708C679.745 524.708 680.834 519.485 680.834 513.032ZM696.449 516.971C699.605 516.971 697.091 483.367 693.711 479.093C688.348 472.669 686.617 477.473 686.393 498.954C686.281 516.859 686.952 519.792 690.331 518.479C692.51 517.613 695.248 516.971 696.449 516.971ZM647.119 507.921C647.119 503.004 644.605 503.004 638.18 507.921C633.376 511.608 633.376 511.719 640.136 511.719C644.605 511.719 647.119 510.407 647.119 507.921ZM660.108 509.205C655.08 505.937 652.231 505.937 652.231 509.205C652.231 510.63 654.857 511.719 658.125 511.719C662.818 511.719 663.264 511.189 660.108 509.205ZM634.13 493.618C634.13 486.412 632.929 480.63 631.505 480.63C630.108 480.63 628.906 486.412 628.906 493.618C628.906 500.713 630.108 506.608 631.505 506.608C632.929 506.608 634.13 500.713 634.13 493.618ZM595.387 493.395C586.002 486.635 582.622 485.658 570.946 486.3L557.538 487.054L569.214 494.149C577.622 499.177 584.493 501.133 593.655 501.244L606.309 501.356L595.387 493.395ZM670.471 484.457C668.404 481.943 662.622 480.63 653.991 480.63C633.153 480.63 643.963 486.524 667.511 487.949C672.762 488.256 673.181 487.725 670.471 484.457ZM731.784 475.713C728.516 472.11 723.377 470.798 711.924 470.49C703.432 470.379 696.449 470.685 696.449 471.356C696.449 478.87 700.471 480.63 717.818 480.63C735.611 480.63 736.03 480.518 731.784 475.825V475.713ZM634.13 466.328C634.13 464.149 632.929 462.418 631.505 462.418C630.108 462.418 628.906 464.149 628.906 466.328C628.906 468.395 630.108 470.155 631.505 470.155C632.929 470.155 634.13 468.395 634.13 466.328ZM634.13 449.541C634.13 448.228 632.929 446.356 631.505 445.49C630.108 444.624 628.906 445.825 628.906 448.004C628.906 450.182 630.108 452.055 631.505 452.055C632.929 452.055 634.13 450.937 634.13 449.541ZM619.94 439.596C621.477 438.618 621.924 434.261 621.142 429.987C619.633 422.138 619.633 422.138 615.136 430.546C612.734 435.127 610.778 439.485 610.778 440.267C610.778 442.334 616.784 441.886 619.94 439.708V439.596ZM663.376 496.133C682.482 496.133 681.784 493.843 662.398 492.53C654.745 491.971 646.365 490.658 643.851 489.68C640.359 488.255 639.27 489.149 639.27 493.507C639.27 497.752 640.471 498.842 643.404 497.753C645.695 496.887 654.549 496.133 663.264 496.133H663.376ZM589.074 544.122C589.828 542.055 589.074 538.563 587.426 536.384C583.823 532.25 585.89 523.507 589.828 525.909C591.141 526.775 591.784 529.736 591.253 532.557C590.052 538.563 593.209 539.345 597.566 534.093C599.857 531.244 599.772 530.155 597.258 529.289C595.387 528.647 594.745 527.11 595.722 526.021C596.812 524.931 599.437 525.462 601.616 527.334C605.108 530.155 605.554 529.066 605.554 518.591C605.554 506.608 605.555 506.608 594.186 506.608C582.734 506.608 582.733 506.607 581.756 518.814C580.024 541.3 584.381 556.468 589.074 544.122ZM595.191 516.971C595.191 514.122 596.365 511.719 597.79 511.719C599.214 511.719 600.303 514.122 600.303 516.971C600.303 519.792 599.214 522.194 597.79 522.194C596.365 522.194 595.191 519.792 595.191 516.971ZM584.801 516.971C584.801 514.122 585.89 511.719 587.426 511.719C588.851 511.719 589.94 514.122 589.94 516.971C589.94 519.792 588.851 522.194 587.426 522.194C585.89 522.194 584.801 519.792 584.801 516.971ZM467.09 556.692C464.129 553.731 465.219 550.686 469.269 550.686C471.448 550.686 473.18 552.418 473.18 554.597C473.18 558.647 470.023 559.737 467.09 556.692ZM772.818 533.004C764.187 520.462 757.538 508.786 758.097 507.026C760.471 499.931 767.148 505.071 779.578 523.507C787.986 535.937 793.88 542.39 795.835 541.188C797.595 540.211 802.064 537.25 805.863 534.653C809.69 532.027 814.606 529.96 816.896 529.96C824.438 529.96 821.142 537.585 810.891 544.01C805.332 547.613 799.997 551.664 798.992 553.2C794.857 559.96 787.65 554.485 772.818 533.004ZM709.41 494.932C709.41 492.753 711.17 490.993 713.348 490.993C715.416 490.993 717.175 492.753 717.175 494.932C717.175 496.999 715.416 498.73 713.348 498.73C711.17 498.73 709.41 496.999 709.41 494.932ZM772.818 199.12C768.349 195.74 768.237 194.763 771.505 189.399C783.824 169.316 783.824 169.651 778.042 163.98C772.818 158.645 772.818 158.645 764.41 170.517C756.002 182.416 747.929 185.154 746.309 176.746C745.639 172.807 785.918 117.053 789.41 117.165C790.388 117.276 796.924 122.305 803.796 128.31C813.293 136.606 816.45 141.299 816.45 146.634C816.45 154.259 807.734 165.405 799.885 167.919C797.259 168.785 795.081 171.606 795.081 174.232C795.081 179.148 782.092 202.612 779.355 202.724C778.6 202.836 775.639 201.187 772.818 199.12ZM798.992 150.768C803.684 145.656 803.684 145.433 798.014 139.762C792.12 134.092 792.12 134.092 785.807 141.829C780.025 149.036 779.802 149.902 783.824 152.863C790.053 157.444 793.545 156.885 798.992 150.768ZM181.977 191.802C178.681 187.109 169.296 175.098 161.027 164.958C144.77 145.098 143.57 142.053 150.749 138.226C154.687 136.047 158.821 139.986 178.151 164.204C196.698 187.444 200.302 193.45 197.788 196.494C192.983 202.277 188.402 200.964 181.977 191.802ZM249.604 148.059C246.559 145.098 241.335 136.383 237.843 128.617C225.497 101.885 227.145 88.8128 243.514 81.9413C255.721 76.8016 259.547 77.2482 266.866 84.5387C274.715 92.4158 275.05 98.0867 267.844 100.377C263.905 101.578 261.279 100.488 258.57 96.6614C253.877 89.7898 248.318 89.6784 244.827 96.2147C239.24 106.578 259.436 145.545 268.821 142.388C270.553 141.83 271.866 136.913 271.866 131.131C271.755 125.572 272.956 120.238 274.492 119.148C289.548 108.45 293.71 138.673 278.626 150.125C271.866 155.349 255.833 154.148 249.604 148.059ZM663.264 137.472C655.834 134.399 649.745 131.354 649.745 130.488C649.745 129.622 655.415 114.874 662.287 97.7509C672.203 73.4211 676.142 66.3264 680.276 65.7678C687.483 64.6784 705.918 74.3989 709.634 81.1588C716.84 94.7063 701.896 133.31 687.063 139.539C682.37 141.494 678.097 143.03 677.678 142.919C677.231 142.919 670.806 140.405 663.264 137.472ZM691.421 112.807C699.829 93.2816 700.024 89.79 693.488 83.6726C690.332 80.7396 686.84 78.2263 685.862 78.2263C684.326 78.2263 667.846 121.326 667.846 125.461C667.846 128.421 676.672 129.399 681.7 126.885C684.214 125.572 688.572 119.343 691.421 112.807ZM293.794 125.572C291.503 118.812 286.392 103.756 282.118 91.9687C274.269 69.5943 274.269 68.8402 282.118 67.4156C286.392 66.6614 289.017 71.6615 299.688 99.8181C306.559 118.142 311.587 134.204 310.721 135.489C309.967 136.802 306.671 137.891 303.626 137.891C299.157 137.891 296.978 135.181 293.794 125.572ZM318.794 129.511C313.542 112.696 301.894 70.6844 301.224 66.662C300.358 60.5446 312.788 55.1815 328.179 54.986C340.386 54.8742 348.571 64.148 348.571 78.338C348.571 89.0084 339.52 98.952 329.911 98.952C324.911 98.952 325.023 103.868 330.805 119.455C332.313 123.394 332.006 126.885 330.023 129.176C326.42 133.645 320.107 133.757 318.794 129.511ZM331.559 85.097C340.609 78.449 331.782 62.8348 321.308 66.8572C316.727 68.617 316.391 72.6396 319.883 81.9413C322.844 89.567 324.799 90.0133 331.559 85.097ZM238.821 512.92C240.134 510.742 245.023 506.915 249.827 504.513C256.81 500.937 259.436 497.222 263.039 486.188C267.397 472.557 279.073 457.166 285.078 457.166C291.503 457.166 299.157 447.78 301.447 437.082C304.073 424.875 303.849 424.876 288.793 436.887C283.765 440.909 276.028 444.847 271.559 445.713C266.978 446.691 258.989 451.83 253.542 457.501C245.358 465.909 241.866 467.641 233.347 467.641C226.056 467.641 219.268 470.155 209.464 476.691C195.274 486.188 185.022 488.368 185.022 482.166C185.022 476.049 221.251 457.725 230.525 459.038C237.285 460.127 240.329 458.479 250.497 448.34C258.123 440.798 264.883 436.439 268.821 436.439C272.313 436.439 279.52 432.948 284.967 428.591C309.743 408.954 314.743 407.948 326.335 420.63C329.157 423.898 333.096 425.518 335.694 424.763C338.319 423.897 343.347 425.965 347.928 429.904C352.285 433.479 358.179 436.439 361.028 436.439C363.961 436.439 369.101 439.931 372.481 444.289C378.598 452.054 378.598 452.054 390.163 447.669C396.475 445.155 404.548 441.021 408.04 438.395C415.135 433.06 432.258 434.149 445.359 440.797C452.035 444.177 454.325 443.87 473.962 436.216C485.638 431.635 499.157 427.92 504.074 428.143C514.549 428.479 537.118 437.529 544.884 444.735C547.929 447.445 558.292 451.384 568.013 453.451C585.89 457.166 601.84 464.904 595.722 466.999C593.879 467.641 587.761 466.216 582.091 463.926C576.309 461.635 567.259 459.791 561.672 459.791C554.577 459.791 549.884 458.032 545.303 453.451C539.521 447.557 517.593 436.439 511.923 436.439C510.61 436.439 509.521 439.82 509.521 443.954C509.521 451.496 513.236 454.652 522.398 454.652C529.27 454.652 540.498 473.535 535.498 476.691C534.186 477.473 531.225 474.624 529.046 470.266C526.756 465.909 522.845 462.418 520.107 462.418C511.811 462.418 501.671 452.362 501.671 444.065C501.671 435.127 502.314 435.238 485.945 440.685C474.605 444.401 472.873 445.937 470.135 454.987C467.398 464.037 467.621 465.685 472.761 471.021C478.962 477.669 479.744 480.63 475.359 480.63C470.471 480.63 459.66 467.194 461.085 462.725C466.532 445.713 466.532 446.049 460.191 449.429C455.526 451.943 452.565 451.831 444.939 448.563C423.319 439.485 414.8 441.356 421.364 453.563C423.207 456.942 423.878 460.658 422.9 461.635C420.274 464.261 413.291 456.3 412.733 449.959C412.509 446.579 411.308 445.266 409.688 446.579C408.152 447.78 402.593 450.183 397.257 451.943L387.425 454.987L400.414 463.926C411.643 471.691 415.358 472.781 429.325 472.781C442.733 472.781 447.425 474.093 457.37 480.406C463.906 484.652 473.739 489.903 478.962 492.194C488.236 496.021 492.174 501.356 485.749 501.356C483.99 501.356 472.984 496.133 460.973 489.68C440.889 478.786 438.375 478.004 425.722 479.54C414.046 480.853 411.225 480.295 405.638 475.295C402.035 472.111 394.52 467.418 388.738 464.82C383.068 462.306 374.995 456.524 370.722 452.138C366.587 447.781 360.47 444.177 357.09 444.177C353.822 444.177 349.129 441.887 346.615 439.066C344.213 436.217 339.632 433.814 336.587 433.814C333.514 433.814 328.068 431.524 324.464 428.703C314.548 420.825 312.788 422.026 307.676 439.708C303.402 454.428 301.978 456.412 292.062 461.217C277.453 468.312 276.336 469.596 269.464 488.479C264.464 502.334 262.061 505.602 252.788 510.853C240.134 517.948 235.637 518.591 238.821 512.92ZM709.41 509.094C709.41 506.272 711.17 503.87 713.348 503.87C715.416 503.87 717.175 506.272 717.175 509.094C717.175 512.055 715.416 514.345 713.348 514.345C711.17 514.345 709.41 512.055 709.41 509.094ZM412.425 509.54C411.531 508.227 405.638 504.624 399.213 501.691C392.76 498.618 384.492 492.753 380.665 488.479C376.503 483.786 370.833 480.63 365.721 480.071C359.38 479.429 356.643 477.361 353.263 470.266C350.861 465.238 346.28 458.591 343.235 455.63C339.967 452.362 338.766 449.429 340.19 448.451C343.989 446.161 353.151 454.54 358.291 465.015C361.336 471.133 364.939 474.4 369.324 474.959C372.9 475.378 379.353 479.206 383.599 483.368C387.984 487.502 397.9 494.037 405.75 498.088C418.962 504.736 422.565 509.094 416.448 511.189C415.023 511.608 413.291 510.965 412.425 509.54ZM216.782 588.424C209.24 584.932 203.123 580.462 203.123 578.507C203.123 574.345 226.056 527.334 228.011 527.334C231.279 527.334 251.81 538.899 257.034 543.703C267.173 552.977 263.793 575.658 250.609 587.669C242.424 595.099 231.726 595.295 216.782 588.424ZM241.112 580.686C248.207 575.77 253.43 562.781 251.587 555.155C250.693 551.663 246.224 547.306 240.888 544.792C231.726 540.434 231.727 540.434 223.961 557.557C219.604 567.054 216.112 575.239 216.112 575.881C216.112 576.859 231.726 584.177 234.352 584.401C235.218 584.401 238.151 582.753 241.112 580.686ZM745.22 576.105C731.561 555.267 720.22 530.491 723.069 527.669C728.069 522.641 729.606 524.177 740.723 545.546C746.617 556.887 752.622 566.273 753.935 566.273C755.248 566.273 761.03 563.87 766.701 560.937C776.533 556.021 782.092 556.021 782.092 560.937C782.092 562.669 760.388 576.748 750.667 581.329C749.801 581.664 747.287 579.373 745.22 576.105ZM183.178 571.943C181.083 570.77 179.687 561.049 179.24 545.434L178.486 520.881L170.832 532.557C159.491 549.82 156.335 553.088 152.285 551.552C150.218 550.797 148.57 549.261 148.57 548.06C148.57 544.68 179.771 498.73 182.062 498.73C187.536 498.73 189.938 507.25 190.693 528.759L191.447 551.999L200.636 536.384C205.748 527.864 211.866 520.462 214.268 520.015C220.162 518.926 220.05 525.686 213.933 534.541C211.196 538.452 204.547 548.927 198.989 557.781C188.29 574.904 188.067 575.127 183.178 571.943ZM424.409 642.334C422.565 641.692 418.85 636.664 416.001 631.217C409.577 618.536 404.018 612.977 397.677 612.977C393.962 612.977 392.676 614.848 392.676 620.183C392.565 631.105 389.828 638.954 386.001 638.954C380.219 638.954 379.883 635.798 383.179 606.44L386.336 577.949L400.526 578.843C408.375 579.374 418.515 581.329 423.208 583.312C430.414 586.245 431.615 588.116 431.615 595.853C431.615 604.261 426.28 612.977 421.141 612.977C419.828 612.977 421.895 618.982 425.498 626.189C431.839 638.954 431.504 644.848 424.409 642.334ZM420.806 599.122C422.007 592.585 419.297 590.519 406.308 588.312C395.386 586.58 395.275 586.692 395.275 594.429C395.275 603.284 398.124 605.128 410.777 604.485C417.314 604.038 420.163 602.613 420.806 599.122ZM198.765 176.215C194.938 170.21 188.067 159.399 183.598 152.193C167.452 126.773 167.005 125.126 174.771 120.238C179.687 117.165 182.061 118.254 199.435 131.354C209.994 139.315 218.737 145.209 218.737 144.455C218.737 143.673 214.045 135.6 208.374 126.55C202.592 117.5 198.011 108.869 198.011 107.36C198.011 104.735 207.927 100.042 209.464 101.997C209.799 102.444 216.447 113.366 224.296 126.215C232.062 139.092 240.441 152.64 242.955 156.439C247.313 163.115 247.313 163.338 240.665 167.584C234.129 171.941 233.682 171.83 224.631 164.735C219.603 160.712 210.218 153.617 204.016 148.924L192.536 140.405L205.525 161.243C217.536 180.573 218.095 182.193 213.598 184.595C206.503 188.422 206.503 188.31 198.765 176.215ZM713.907 161.355C704.94 154.26 703.209 144.986 708.097 130.265C712.706 116.187 727.873 97.0808 737.147 93.5892C746.309 90.0975 759.605 96.5503 763.767 106.271C767.566 115.545 764.857 126.885 754.494 144.874C743.013 165.07 726.868 171.522 713.907 161.355ZM736.03 146.41C744.662 137.36 754.047 116.411 751.98 110.964C748.823 102.891 738.656 106.159 730.807 117.835C719.354 134.623 715.863 144.874 719.773 149.567C724.466 155.265 728.293 154.483 736.03 146.41ZM479.409 541.943C477.23 536.161 480.051 533.228 484.102 537.25C486.392 539.541 486.504 540.965 484.102 543.367C481.811 545.658 480.722 545.323 479.409 541.943ZM489.995 542.921C488.124 539.876 490.527 535.071 494.018 535.071C495.443 535.071 496.532 537.474 496.532 540.323C496.532 545.77 492.733 547.306 489.995 542.921ZM135.693 539.01C133.179 536.049 133.179 533.228 135.469 526.664C138.318 518.703 137.983 517.837 130.245 511.301C122.62 504.736 121.614 504.512 115.944 508.228C109.519 512.501 99.379 510.853 99.379 505.602C99.379 501.133 152.732 475.183 157.955 477.138C161.028 478.227 161.782 480.965 160.916 486.748C159.268 497.111 142.676 542.837 140.497 542.837C139.631 542.837 137.452 541.188 135.693 539.01ZM146.949 498.088C150.972 488.367 150.972 488.368 142.676 492.641C131.447 498.312 131.558 497.976 136.894 503.982C142.452 510.099 141.809 510.406 146.949 498.088ZM466.001 539.764C467.509 534.959 473.18 534.205 473.18 538.786C473.18 541.077 471.336 542.921 469.046 542.921C466.755 542.921 465.442 541.524 466.001 539.764ZM824.326 529.401C822.902 527.557 818.74 517.837 815.164 507.809C811.561 497.865 807.064 486.412 805.22 482.473C802.371 476.272 802.595 474.624 806.086 471.021C809.913 467.194 812.427 467.753 837.092 478.004C868.712 491.216 870.137 492.194 864.69 497.753C861.087 501.356 859.354 501.468 851.17 498.424C842.204 495.239 841.338 495.463 834.913 501.915C828.572 508.228 828.237 509.317 831.421 516.859C834.243 523.73 834.243 525.574 830.975 528.87C827.818 532.027 826.617 532.138 824.326 529.401ZM829.662 494.038C833.712 489.568 833.489 489.038 824.522 484.876C815.584 480.518 815.248 480.518 817.12 484.987C818.209 487.501 819.634 491.635 820.388 494.149C822.036 499.932 824.327 499.932 829.662 494.038ZM657.482 526.021C657.482 523.842 658.683 522.082 660.108 522.082C661.532 522.082 662.706 523.842 662.706 526.021C662.706 528.2 661.532 529.96 660.108 529.96C658.683 529.96 657.482 528.2 657.482 526.021ZM347.705 520.015C342.788 514.904 340.721 509.987 340.721 503.535C340.721 496.021 338.989 492.948 330.358 486.077C318.682 476.691 310.609 465.797 313.235 463.06C314.213 462.082 319.352 465.574 324.688 470.686C329.911 475.937 337.453 483.144 341.391 486.748C346.838 491.748 348.571 495.686 348.571 503.535C348.571 511.496 349.883 514.68 355.023 517.948C358.626 520.35 361.559 523.395 361.559 524.82C361.559 529.624 354.688 527.222 347.705 520.015ZM639.689 593.451C629.326 579.82 621.588 567.586 622.454 566.161C626.058 560.379 631.728 564.764 645.471 583.731C660.108 603.926 660.108 603.926 660.108 594.541C660.108 589.401 660.751 578.06 661.728 569.233C663.153 555.909 664.242 553.312 668.292 553.312C672.985 553.312 673.181 554.932 671.449 579.932C669.27 614.066 669.382 612.976 665.108 615.714C659.214 619.429 659.438 619.541 639.689 593.451ZM695.136 599.233C692.957 596.189 691.198 592.474 691.198 591.049C691.198 589.513 687.706 580.91 683.46 571.86C673.516 550.994 673.628 550.015 685.415 544.345C706.03 534.429 713.991 532.446 715.751 536.943C717.706 542.055 718.376 541.524 702.874 547.613C689.773 552.753 686.728 556.803 690.974 563.451C693.153 566.943 702.12 564.764 720.108 556.468C720.974 556.021 722.399 557.445 723.265 559.736C724.466 562.669 721.086 565.63 710.835 570.658C697.846 576.971 697.091 577.949 699.717 583.536C703.097 590.938 705.499 591.049 720.778 584.289C727.426 581.328 733.963 579.708 735.388 580.574C741.505 584.289 736.589 588.87 718.488 596.496C698.935 604.681 698.935 604.68 695.136 599.233ZM722.399 494.932C722.399 492.753 724.159 490.993 726.226 490.993C728.404 490.993 730.164 492.753 730.164 494.932C730.164 496.999 728.404 498.73 726.226 498.73C724.159 498.73 722.399 496.999 722.399 494.932ZM211 488.591C211 484.764 228.765 475.49 239.576 473.758C248.095 472.445 249.827 472.893 249.827 476.384C249.827 479.429 247.425 480.63 240.888 480.63C235.86 480.63 228.011 482.921 223.318 485.77C213.933 491.552 211 492.194 211 488.591ZM644.493 465.462C644.493 464.261 649.409 461.635 655.527 459.68C661.616 457.724 672.426 450.518 679.857 443.647C689.13 434.904 698.181 429.456 710.08 425.294C719.466 421.915 731.672 415.378 737.147 410.685C752.734 397.054 769.103 391.802 769.103 400.21C769.103 401.523 766.058 403.367 762.343 404.345C758.516 405.238 749.801 411.132 742.929 417.222C735.387 423.898 725.779 429.568 719.131 431.3C701.03 435.881 695.136 438.842 685.527 448.227C672.985 460.434 644.493 472.333 644.493 465.462ZM836.757 278.451C834.578 274.177 835.22 271.886 840.248 265.992C846.254 259.009 846.366 258.366 842.316 251.494C839.494 246.69 836.757 244.847 834.02 245.936C826.059 249.428 818.433 250.07 818.433 247.444C818.433 246.048 815.36 241.132 811.673 236.746C804.885 228.674 804.885 228.674 814.494 216.997C822.79 206.858 823.656 204.679 820.723 200.852C818.852 198.338 817.008 195.852 816.561 195.182C816.142 194.539 810.556 199.12 804.243 205.321C794.41 214.93 792.12 216.132 788.74 213.311C781.757 207.64 784.047 204.036 808.712 181.327C821.924 169.12 833.6 158.31 834.69 157.109C835.779 156.019 841.98 160.266 848.321 166.607C857.371 175.433 859.997 179.791 859.997 186.467C859.997 195.629 852.455 204.679 842.539 207.081C839.271 207.947 836.645 209.596 836.645 210.908C836.645 212.221 832.399 217.891 827.26 223.561C815.248 236.857 818.097 236.858 856.952 223.981C886.282 214.288 886.282 214.288 891.645 221.69C896.98 229.12 896.981 229.12 871.338 255.629C857.26 270.154 844.271 282.361 842.651 282.807C840.891 283.338 838.293 281.272 836.757 278.451ZM865.668 242.64C875.696 232.947 874.83 231.411 861.953 235.768C848.321 240.461 848.097 240.684 852.148 245.601C856.505 250.824 857.148 250.713 865.668 242.64ZM842.874 190.07C846.477 186.132 846.785 184.065 844.495 179.707C840.779 172.808 837.204 172.807 829.662 179.902C823.991 185.265 823.879 185.908 827.93 190.266C833.377 196.383 837.287 196.271 842.874 190.07ZM100.357 261.746C61.8371 235.461 64.1281 237.752 68.0387 230.21C79.8265 208.282 93.1502 201.746 107.117 211.215C119.547 219.623 122.508 229.008 116.279 240.685C111.474 249.539 111.474 249.847 116.391 253.227C132.201 264.372 133.848 266.55 130.804 272.444C129.044 275.601 126.865 278.003 125.888 278.003C124.91 277.891 113.429 270.573 100.468 261.746H100.357ZM103.178 232.723C103.178 223.673 96.1949 218.422 89.5469 222.584C82.4519 227.054 83.0104 232.277 90.8596 236.97C100.245 242.64 103.178 241.662 103.178 232.723ZM125.776 211.662C99.3792 184.064 99.3794 184.176 116.167 169.427C131.335 156.131 149.24 161.048 152.927 179.484C153.821 184.176 155.665 186.467 157.732 185.573C159.603 184.819 166.251 188.757 172.48 194.092C178.569 199.539 184.156 204.343 184.799 204.79C185.469 205.237 183.597 208.059 180.553 211.02C175.19 216.355 175.19 216.355 164.827 206.969C153.039 196.271 152.061 196.048 145.525 202.053C140.832 206.215 141.055 206.746 151.53 217.444C160.804 226.83 162.005 229.12 159.156 232.612C157.313 234.791 154.351 236.551 152.731 236.551C151.083 236.551 138.96 225.405 125.776 211.662ZM138.206 193.757C142.257 188.869 139.631 177.947 133.849 175.768C131.223 174.79 127.508 176.103 124.24 179.26C119.016 184.483 119.016 184.484 125.218 191.048C132.313 198.674 133.849 199.009 138.206 193.757ZM435.862 642.111C434.353 639.597 453.766 587.334 457.816 583.2C459.436 581.552 461.727 581.552 464.353 583.2C468.934 586.021 491.616 640.379 489.325 642.67C485.191 646.804 479.074 643.2 476.141 635.016C473.068 626.636 471.979 625.965 461.616 625.965C451.364 625.965 450.386 626.636 448.096 634.373C445.805 642.446 438.822 646.915 435.862 642.111ZM466.978 612.334C466.085 609.177 465.442 605.016 465.442 603.284C465.331 597.809 461.197 599.681 458.012 606.664C453.543 616.245 454.213 618.229 461.727 618.229C467.51 618.229 468.291 617.334 466.978 612.334ZM515.191 613.647C512.37 585.379 513.348 579.82 520.973 582.753C523.934 583.842 525.135 588.004 525.135 598.032C525.135 605.574 525.89 616.245 526.756 621.72C528.404 631.748 528.403 631.748 541.169 630.323C551.197 629.122 554.158 629.681 555.47 632.837C557.761 638.954 551.421 641.469 533.851 641.469L518.04 641.581L515.191 613.647ZM560.918 637.53C560.052 636.776 560.359 632.307 561.56 627.726C562.65 623.228 565.052 610.462 566.811 599.345C570.08 578.619 574.549 571.077 581.113 575.546C586.225 578.926 615.806 626.72 614.27 629.122C611.532 633.703 603.795 630.658 599.437 623.34C595.275 616.161 593.99 615.603 585.247 617.139C573.571 619.318 574.242 618.647 572.035 629.122C570.527 636.999 564.744 641.357 560.918 637.53ZM589.94 606.553C589.94 605.882 587.873 601.86 585.247 597.502C579.8 588.647 576.951 589.624 576.951 600.435C576.951 606.552 578.04 607.865 583.515 607.865C587.091 607.865 589.94 607.195 589.94 606.553ZM362.761 634.373C361.336 633.284 357.844 626.636 354.911 619.541C350.665 608.955 348.375 606.329 342.788 605.686C336.699 605.016 335.609 605.993 334.073 614.289C332.313 623.787 326.754 628.703 322.62 624.318C320.525 622.251 330.023 575.658 333.738 569.569C334.939 567.809 340.833 568.144 351.755 570.658C369.101 574.457 377.062 580.909 377.062 590.826C377.062 596.831 369.855 605.239 364.52 605.239C360.693 605.239 360.693 605.462 365.163 614.513C373.682 631.747 372.481 641.468 362.761 634.373ZM364.073 593.563C368.654 588.116 363.543 582.418 352.062 580.239C341.699 578.396 341.699 578.395 339.408 587.446C337.984 593.34 338.654 594.541 343.793 595.518C355.889 597.809 360.917 597.39 364.073 593.563ZM285.833 616.161C263.263 613.424 255.721 582.418 273.067 563.87C282.341 553.954 299.576 552.642 310.386 561.161C334.185 579.932 316.392 619.849 285.833 616.161ZM305.582 596.831C310.721 589.401 310.721 575.546 305.47 570.323C303.291 568.144 297.397 566.273 292.508 566.273C277.648 566.273 268.263 586.58 277.117 599.233C284.212 609.373 297.621 608.172 305.582 596.831Z" fill="#8550DC"/>
</svg>
