<svg width="965" height="968" viewBox="0 0 965 968" fill="none" xmlns="http://www.w3.org/2000/svg">
<path fill-rule="evenodd" clip-rule="evenodd" d="M443.468 965.652C426.406 964.117 422.864 962.208 426.091 956.127C428.551 951.581 427.174 948.432 421.25 944.516C415.562 940.836 412.492 943.513 414.263 950.676C415.11 953.903 414.559 954.828 411.567 954.828C409.501 954.828 407.493 953.352 407.041 951.581C406.49 949.672 406.116 950.361 405.958 953.431C405.88 956.284 404.502 959.04 402.967 959.591C398.657 961.283 358.294 951.817 331.234 942.823C261.902 919.837 200.698 882.485 147.267 830.432C86.0039 770.94 44.7941 703.753 20.5879 624.03C12.8931 598.662 12.8146 596.734 19.3483 595.73C24.1305 595.041 24.1305 594.963 18.5808 594.747C11.9093 594.353 11.9092 594.353 8.052 572.134C3.74212 547.377 2.44326 531.475 4.7458 532.932C5.90691 533.621 7.20544 533.385 7.83519 532.479C9.37022 530.02 6.9891 524.942 4.29296 524.942C1.06547 524.942 -1.02032 488.889 0.514709 460.294C3.7422 403.006 18.5808 337.747 39.0282 291.618C43.4168 281.62 43.574 281.483 47.6477 284.316C54.7915 289.315 57.8617 287.465 51.4067 281.935L45.5024 276.936L51.6428 264.184C69.2562 227.895 101.925 182.001 133.747 148.781C212.23 67.0708 312.716 16.6513 424.635 2.73761C448.998 -0.273405 521.971 -1.04135 523.644 1.65479C524.195 2.57974 526.261 2.87494 528.19 2.4223C538.03 -0.195116 592.838 10.7277 628.892 22.3388C674.628 37.1774 712.157 55.4596 752.284 82.5981C781.036 102.042 787.786 107.513 785.189 109.363C783.418 110.583 783.26 112.669 784.028 121.19C784.402 125.421 790.03 125.264 794.714 120.895C798.394 117.51 798.552 117.589 811.776 129.574C828.465 144.648 851.746 170.626 868.671 193.14C949.929 301.3 981.436 441.381 955.144 577.743C952.527 591.204 948.236 609.034 945.619 617.339C940.778 632.413 940.778 632.413 932.079 630.17C927.317 628.95 923.4 628.635 923.4 629.481C923.4 630.327 922.101 631.016 920.488 631.016C918.48 631.016 917.87 630.032 918.638 628.025C919.327 626.332 922.318 615.567 925.408 604.035C938.318 555.76 943.691 501.72 940.227 456.279C938.318 432.073 938.396 428.846 940.935 427.389C943.454 425.992 943.395 425.539 940.227 423.315C937.924 421.702 936.389 417.844 935.622 411.94C933.929 397.633 925.546 361.894 918.933 341.132C915.568 330.525 913.56 321.905 914.485 321.905C915.41 321.905 916.709 323.223 917.32 324.837C918.796 328.596 921.472 324.601 921.551 318.599C921.551 316.375 922.869 312.458 924.483 310.077C927.789 305 926.628 301.772 921.472 301.772C919.484 301.772 917.87 301.005 917.87 299.922C917.87 298.919 916.631 298.151 915.096 298.151C913.167 298.151 912.557 299.47 913.167 302.618C913.639 305.078 913.029 307.539 911.789 308.07C910.254 308.837 910.254 309.389 911.947 310.156C914.564 311.377 915.017 315.765 912.636 317.142C911.789 317.752 908.719 312.222 905.866 304.921C867.136 207.447 785.405 120.344 685.629 70.3768C620.587 37.787 557.178 23.0276 482.533 23.1063C429.023 23.185 389.132 29.3248 338.161 45.541C328.617 48.552 320.469 50.6974 320.017 50.2448C319.544 49.7724 320.548 48.9258 322.083 48.3944C324.622 47.3907 324.543 46.8598 321.473 43.7897C316.947 39.2437 314.25 39.2435 314.25 43.8486C314.25 45.8559 313.483 47.5482 312.479 47.5482C309.941 47.5482 310.098 52.5468 312.715 53.393C313.778 53.7669 306.556 57.546 296.637 61.7772C180.723 111.272 82.9335 220.2 45.5024 341.664C29.6602 393.166 24.5044 427.31 24.4256 482.118C24.3469 521.399 24.1304 524.253 21.1981 523.486C18.8956 522.856 17.9706 523.702 17.9706 526.555C17.9706 530.708 22.6543 531.928 23.9728 528.09C24.3467 526.851 25.7441 533.247 26.9643 542.319C28.2828 551.313 30.8018 566.526 32.7305 575.992C34.6591 585.438 36.2727 593.349 36.2727 593.585C36.2727 593.821 33.5767 594.51 30.3492 595.277C24.6617 596.439 24.5831 596.577 28.4994 598.131C30.7429 599.037 33.7342 599.352 35.1118 598.82C36.8042 598.19 38.4968 601.28 40.7206 609.428C57.8617 671.144 91.1597 733.194 133.904 783.24C141.127 791.683 142.426 794.221 140.674 796.307C139.277 797.999 139.198 799.377 140.281 800.066C141.284 800.676 142.583 800.302 143.194 799.298C143.823 798.295 154.116 806.442 166.101 817.443C208.472 856.271 247.595 882.564 294.945 903.995C349.143 928.536 417.019 943.591 474.07 943.748C494.833 943.748 495.738 943.906 494.832 947.448C494.281 949.436 494.596 951.05 495.521 951.05C496.446 951.05 497.214 949.593 497.214 947.822C497.214 944.909 500.127 944.201 522.345 942.213C611.672 934.223 691.926 902.322 766.04 845.349C787.255 828.975 829.843 785.916 847.062 763.166C872.823 729.337 894.491 690.371 910.707 648.787C914.722 638.554 917.792 633.102 919.248 633.634C920.488 634.106 925.624 635.09 930.623 635.72C935.7 636.409 939.774 637.018 939.774 637.176C939.774 637.254 937.393 644.024 934.539 652.014C924.483 680.137 903.485 722.665 890.338 741.794C886.422 747.481 884.041 749.41 881.895 748.564C879.435 747.639 879.121 748.328 880.046 752.107C880.971 755.787 879.357 759.25 871.82 769.326C846.059 803.609 801.779 849.58 796.485 847.573C794.478 846.806 793.474 847.416 793.474 849.344C793.474 850.958 792.628 852.336 791.644 852.336C790.64 852.336 789.794 853.418 789.794 854.737C789.794 857.335 774.267 869.418 748.663 886.559C659.415 946.287 548.874 974.961 443.39 965.573L443.468 965.652ZM700.231 896.694C700.152 894.706 699.621 894.234 698.853 895.552C698.086 896.615 696.236 898.012 694.78 898.544C692.93 899.233 693.383 899.705 696.079 899.784C698.854 899.863 700.231 898.859 700.231 896.694ZM756.968 867.174C756.968 866.269 755.59 865.029 753.977 864.419C751.438 863.416 751.281 863.73 753.268 866.033C755.886 869.181 756.968 869.555 756.968 867.174ZM809.927 831.751C809.927 824.587 806.857 822.049 805.932 828.445C805.479 831.515 805.479 834.506 806.01 834.978C808.096 837.123 809.927 835.588 809.927 831.751ZM154.43 826.516C154.194 820.828 149.668 819.825 149.668 825.355C149.668 827.815 150.199 830.353 150.809 830.983C152.817 832.971 154.647 830.668 154.509 826.516H154.43ZM142.347 814.294C142.347 812.444 141.205 809.374 139.749 807.446C137.289 804.14 136.896 804.061 133.983 806.914C131.287 809.61 131.208 810.378 133.432 812.602C135.518 814.668 138.352 816.361 141.894 817.443C142.131 817.522 142.347 816.065 142.347 814.294ZM21.9657 586.737C20.8242 585.595 19.2893 585.28 18.5021 585.969C17.8133 586.737 18.3641 588.055 19.8204 588.98C23.2053 591.047 24.7405 589.511 21.9657 586.737ZM947.075 539.918C947.154 536.848 946.308 535.844 943.926 536.238C940.542 536.927 938.77 543.382 940.699 548.223C941.624 550.762 942.077 550.683 944.379 547.613C945.855 545.684 947.075 542.24 947.075 539.918ZM952.605 426.995C952.605 425.539 951.838 424.378 950.834 424.378C949.85 424.378 949.004 426.07 949.004 428.156C949.004 430.144 949.85 431.384 950.834 430.774C951.838 430.144 952.605 428.452 952.605 426.995ZM945.304 361.422C945.304 361.048 944.084 360.281 942.627 359.651C941.073 359.12 939.853 359.434 939.853 360.418C939.853 361.343 941.073 362.19 942.627 362.19C944.084 362.19 945.304 361.816 945.304 361.422ZM829.075 169.938C828.465 169.013 827.225 168.697 826.3 169.308C825.316 169.859 825.001 171.157 825.611 172.082C826.221 173.007 827.461 173.322 828.386 172.771C829.39 172.161 829.685 170.922 829.075 169.938ZM211.856 92.2806C211.856 88.8367 211.089 85.983 210.164 85.983C209.16 85.983 208.55 89.2105 208.707 93.1268C209.003 101.904 211.856 101.137 211.856 92.2806ZM257.592 74.4506C257.592 71.3018 252.2 64.2367 252.141 67.228C252.141 68.4482 250.665 69.5305 248.913 69.688C246.374 69.7667 246.296 70.0033 248.441 70.8495C249.976 71.3808 251.905 72.9943 252.672 74.3719C254.522 77.5207 257.592 77.5207 257.592 74.4506ZM394.269 16.1C390.51 13.7974 389.191 17.7927 391.041 25.645C391.12 26.0976 392.36 24.4835 393.737 21.9448C395.587 18.7173 395.725 17.0249 394.269 16.1ZM447.089 934.44C376.281 928.989 306.182 905.924 244.82 867.883C187.099 832.046 131.523 775.86 97.162 718.67C29.1878 605.57 13.6608 470.822 53.9454 343.435C96.3161 209.513 200.777 102.435 334.462 55.853C358.215 47.6269 382.284 41.4672 410.268 36.626C430.558 33.1623 432.251 33.1032 433.786 35.9371C435.4 38.7907 435.714 38.7124 438.096 35.4849C440.477 32.2574 443.389 32.0208 485.839 32.0208C524.805 32.0995 534.271 32.71 554.482 36.3311C652.881 53.8462 736.6 97.9089 805.007 168.087C871.21 235.963 912.262 318.52 928.242 416.093C933.004 444.904 932.926 522.777 928.242 551.451C923.479 580.124 914.407 617.103 908.877 630.111C908.03 632.099 905.866 637.865 904.095 642.942C898.565 658.922 888.193 680.373 886.579 679.37C885.733 678.838 885.418 679.527 886.048 680.983C888.193 686.75 857.906 736.579 834.231 766.178C740.673 882.781 595.692 945.815 447.089 934.44ZM520.042 926.292C654.731 917.377 788.338 834.584 860.208 715.423C909.861 633.102 933.477 531.161 923.243 443.526C922.161 434.533 921.255 422.764 921.176 417.47C921.176 412.235 920.488 407.867 919.701 407.867C918.933 407.867 917.713 404.009 917.024 399.168C913.639 375.887 900.178 332.512 886.875 301.851C849.365 215.201 777.258 138.036 689.25 89.978C650.716 68.9993 594.295 50.3233 547.476 43.0024C521.125 38.8696 471.453 37.4721 444.157 40.0895C238.07 60.0055 77.3249 211.206 44.4202 416.093C40.4252 441.224 38.8903 502.723 41.6455 528.858C59.869 703.123 178.263 851.115 342.688 905.235C401.727 924.679 453.092 930.76 520.042 926.292ZM564.086 912.3C561.252 903.228 559.245 890.396 560.248 887.247C561.016 884.945 560.406 882.406 558.792 880.714C556.253 878.254 550.566 853.044 552.258 851.725C553.478 850.722 598.447 839.209 602.147 838.894C604.981 838.658 606.909 842.358 612.518 858.732C616.356 869.792 618.894 879.474 618.127 880.242C617.438 880.95 612.833 882.781 607.913 884.257C600.828 886.402 598.526 886.48 597.443 884.787C595.141 881.245 596.754 879.1 602.993 877.25C609.9 875.322 609.9 875.262 604.685 859.263C601.222 848.34 600.139 846.806 596.912 847.652C594.924 848.203 585.99 850.505 577.232 852.808C558.635 857.57 559.323 855.8 564.932 881.718C570.384 907.085 569.773 905.845 576.465 904.389C604.823 898.308 670.947 874.476 670.947 870.264C670.947 869.261 666.48 859.027 660.95 847.494C651.72 828.129 650.579 826.594 646.722 827.736C641.27 829.507 625.211 837.576 625.211 838.658C625.211 839.819 634.343 863.947 635.13 864.636C635.425 865.029 637.885 864.419 640.503 863.415C645.344 861.644 645.344 861.644 641.802 852.572C638.653 844.66 638.574 843.421 641.034 842.496C642.569 841.886 644.045 841.433 644.34 841.433C645.187 841.433 654.495 862.727 654.495 864.577C654.495 866.112 639.204 873.255 632.887 874.712C631.273 875.026 627.671 867.942 622.515 854.185C614.604 833.207 614.604 833.128 618.52 831.435C620.665 830.511 629.423 826.595 637.885 822.757C646.348 818.9 653.413 815.987 653.649 816.223C654.731 817.365 681.929 872.567 681.929 873.492C681.929 877.723 622.515 900.709 592.307 908.089C564.696 914.839 564.854 914.839 564.086 912.3ZM444.787 893.388C445.475 888.625 446.007 882.406 446.007 879.553C446.007 874.554 446.401 874.338 454.076 874.338C464.546 874.338 467.911 875.716 467.911 880.025C467.911 882.781 466.612 883.489 460.688 883.489C453.466 883.489 453.465 883.489 452.934 892.167C452.462 899.705 451.852 900.925 448.014 901.476C443.783 902.086 443.626 901.771 444.787 893.388ZM576.229 880.183C575.008 874.338 574.005 868.65 574.005 867.489C574.005 865.108 591.303 860.64 594.078 862.333C598.152 864.872 595.771 868.729 589.375 869.87C582.31 871.248 582.31 871.248 585.99 886.008C587.072 890.16 586.698 890.79 582.841 890.79C578.925 890.79 578.157 889.55 576.229 880.183ZM315.707 866.879C312.794 865.187 312.873 864.262 317.163 854.579C319.702 848.813 322.398 843.499 323.244 842.732C325.625 840.272 343.77 848.892 343.081 852.198C342.452 855.268 340.385 855.504 332.316 853.339C327.849 852.119 327.082 852.729 323.697 860.424C321.631 865.029 319.702 868.788 319.406 868.788C319.091 868.729 317.478 867.883 315.707 866.879ZM260.82 858.811C232.992 842.043 207.015 822.127 180.861 797.606L170.883 788.239L193.633 765.41C206.169 752.874 216.934 742.797 217.622 743.034C218.311 743.329 227.915 751.634 238.995 761.631L259.206 779.697L245.528 797.763C230.375 817.758 232.303 817.128 219.236 806.068C213.844 801.463 213.47 800.617 215.851 798.157C218.311 795.756 219.236 795.913 224.235 800.145C229.765 804.828 229.765 804.828 238.68 793.847C243.521 787.845 247.516 782.236 247.516 781.39C247.516 779.855 219.079 753.72 217.308 753.641C216.855 753.641 208.707 761.257 199.399 770.625L182.415 787.687L193.947 798.846C200.245 804.986 210.853 814.295 217.386 819.588C229.686 829.507 270.345 856.803 271.191 855.721C273.513 852.729 294.177 815.219 294.177 813.98C294.177 812.366 271.427 797.449 269.046 797.527C268.278 797.606 264.126 802.762 259.895 808.981C252.141 820.356 252.141 820.356 257.12 824.45C263.674 829.743 263.516 829.822 268.357 821.281C272.667 813.527 273.513 813.055 277.508 815.593C280.814 817.679 267.668 840.272 264.283 838.363C251.747 830.983 241.219 822.521 242.36 820.671C246.06 814.747 265.425 788.239 266.822 787.392C268.731 786.231 305.493 810.142 304.785 812.15C302.325 818.526 274.576 865.029 273.12 865.108C272.116 865.108 266.586 862.255 260.82 858.811ZM678.701 838.658C670.397 824.134 663.725 811.598 663.803 810.831C663.863 810.063 672.325 803.844 682.558 797.074C699.089 786.231 701.471 785.149 703.931 787.55C705.682 789.301 705.997 790.777 704.777 791.624C703.695 792.312 696.315 797.389 688.325 802.762C680.236 808.213 673.486 812.838 673.171 813.055C672.935 813.291 678.406 822.973 685.314 834.584L697.929 855.799L708.693 849.187C732.742 834.348 777.022 798.373 777.022 793.611C777.022 792.765 769.721 784.46 760.806 775.171L744.589 758.246L734.139 767.161C728.373 772.081 723.296 777.159 722.843 778.399C722.292 779.619 725.756 785.7 730.518 791.761C739.138 802.841 739.138 802.841 744.353 799.141C751.045 794.379 750.966 792.607 743.743 785.227C739.433 780.701 738.449 778.615 739.984 777.08C743.054 774.01 746.518 776.076 754.351 785.621L761.356 794.221L750.434 803.982C744.432 809.375 739.138 813.822 738.666 813.763C737.898 813.763 718.77 789.38 712.216 780.17C710.544 777.769 715.148 772.927 737.367 753.641L744.353 747.56L751.655 754.724C755.728 758.64 765.804 769.09 773.952 778.083L788.869 794.3L773.952 808.449C751.733 829.586 702.16 865.344 695.39 865.108C694.544 865.108 687.006 853.182 678.701 838.658ZM432.251 844.188C328.164 829.901 230.533 765.705 176.177 675.847C156.044 642.549 140.733 603.11 131.819 561.527C127.213 540.154 126.899 535.786 126.977 492.962C126.977 449.746 127.292 445.908 132.133 424.378C144.512 368.645 164.192 324.758 195.561 282.939C295.417 149.942 474.149 102.829 626.353 169.465C700.152 201.838 765.273 263.338 800.854 334.441C810.399 353.511 811.245 355.361 819.392 377.717C854.206 472.731 842.536 587.209 789.026 675.001C732.821 767.162 638.653 829.133 532.264 844.051C507.821 847.416 456.457 847.494 432.251 844.188ZM540.175 835.352C617.438 820.749 677.717 789.38 730.44 736.342C783.103 683.443 815.614 620.192 827.304 547.849C856.528 366.814 735.596 193.002 553.715 154.626C506.896 144.708 462.853 144.413 415.72 153.643C252.436 185.465 133.511 327.986 133.294 492.116C133.137 549.148 145.437 599.666 171.867 651.168C188.398 683.384 204.319 705.583 230.139 732.269C287.033 791.151 356.995 826.201 440.477 837.654C458.228 840.114 522.955 838.579 540.175 835.352ZM469.761 804.77C469.761 790.62 469.682 790.147 466.08 791.997C460.393 795.067 461.298 787.687 467.143 783.85C472.299 780.465 478.066 780.701 477.829 784.244C477.692 785.464 477.534 793.926 477.377 802.999C477.062 818.132 476.845 819.451 473.46 819.451C470.075 819.451 469.761 818.211 469.761 804.77ZM493.514 816.754C493.514 815.219 496.289 810.831 499.674 807.072C508.51 797.232 510.813 792.391 508.038 789.164C505.204 785.621 501.445 785.857 499.359 789.537C498.277 791.387 496.525 792.076 494.596 791.387C488.594 789.084 498.277 779.166 506.582 779.166C509.73 779.166 517.346 788.081 517.346 791.761C517.346 793.768 514.434 799.141 510.97 803.766L504.515 812.15H511.974C518.035 812.15 519.354 812.681 518.803 815.298C517.957 819.825 493.514 821.202 493.514 816.754ZM428.866 814.294C424.261 809.138 424.713 790.226 429.633 784.007C434.868 777.395 444.629 777.316 448.939 783.771C452.934 790.009 451.773 808.607 446.932 813.901C442.701 818.604 433.018 818.821 428.866 814.294ZM442.169 806.383C445.003 798.157 444.629 789.163 441.323 786.467C437.486 783.239 434.947 786.073 433.707 795.303C431.719 810.221 437.938 818.368 442.169 806.383ZM530.965 814.983C526.261 811.598 528.8 809.374 537.105 809.374C543.107 809.374 543.875 808.843 543.875 804.829C543.875 801.148 542.792 800.066 538.797 799.613C532.952 799.003 532.106 794.615 537.558 792.843C540.096 792.076 541.1 790.383 540.726 787.687C540.175 783.692 538.345 783.397 530.571 785.7C525.258 787.314 524.805 782 530.04 779.245C540.49 773.617 553.164 781.232 548.401 790.147C546.709 793.296 546.866 794.772 549.169 797.311C554.168 802.841 552.947 811.598 546.709 814.826C539.959 818.289 535.491 818.368 530.965 815.062V814.983ZM407.119 814.373C404.876 813.901 404.187 812.445 404.798 809.69C407.336 797.685 407.041 796.76 399.739 795.54C392.891 794.379 392.891 794.379 390.884 802.31C389.349 808.214 387.971 810.3 385.432 810.3C381.201 810.3 381.123 808.528 385.039 788.002C387.814 773.616 388.581 771.865 392.202 771.865C395.804 771.865 396.119 772.554 395.272 780.091C394.347 788.317 394.347 788.317 400.035 788.317C403.184 788.317 406.352 788.533 407.041 788.77C407.808 789.084 409.107 786.152 409.954 782.393C411.193 777.395 412.571 775.545 415.11 775.545C419.262 775.545 419.341 775.781 415.641 795.54C412.256 813.527 411.488 815.298 407.119 814.373ZM577.704 806.521C577.704 803.077 576.917 802.841 569.163 803.982C560.622 805.301 560.622 805.301 561.705 799.062C562.236 795.697 564.853 788.159 567.471 782.393C573.237 769.483 578.472 767.929 580.302 778.694C582.762 793.237 583.53 795.618 585.144 794.614C586.069 794.083 587.387 794.989 588.076 796.76C588.764 798.61 588.391 800.302 587.151 800.755C585.99 801.148 585.005 803.451 585.005 805.832C585.005 809.06 584.002 810.3 581.306 810.3C578.846 810.3 577.704 809.06 577.704 806.521ZM574.772 795.913C575.244 795.146 575.087 792.076 574.319 789.164C572.843 783.771 572.844 783.771 570.698 790.01C569.537 793.375 568.553 796.464 568.553 796.838C568.553 798.157 573.847 797.389 574.772 795.913ZM600.061 803.687C595.141 801.522 597.758 797.449 604.135 797.449C609.369 797.449 610.747 796.681 611.672 793.001C612.282 790.541 612.203 787.688 611.593 786.625C609.979 784.007 602.757 784.165 599.982 786.92C596.597 790.305 594.452 786.703 593.842 776.627C593.232 767.633 593.232 767.634 601.832 765.41C606.594 764.17 610.904 763.638 611.436 764.17C614.053 766.866 611.908 770.093 606.516 771.471C598.526 773.557 598.447 778.477 606.378 777.71C617.674 776.549 624.818 792.391 616.434 799.909C612.833 803.215 603.839 805.301 600.14 803.687H600.061ZM349.064 800.833C345.542 799.849 342.452 798.846 342.235 798.61C341.763 798.078 352.528 762.32 353.453 761.316C353.846 760.943 358.137 761.71 362.899 763.009C373.664 766.099 379.745 773.085 376.596 778.93C375.435 781.075 373.368 782.846 371.912 782.846C369.826 782.846 369.905 783.771 372.365 788.081C375.199 793.001 375.199 793.69 372.286 798.157C368.823 803.451 361.364 804.297 349.064 800.833ZM363.293 795.303C367.13 791.544 365.831 786.703 360.754 785.385C355.677 784.086 352.764 786.625 352.764 792.312C352.685 794.93 354.378 796.071 360.144 797.311C360.675 797.39 362.131 796.543 363.293 795.303ZM368.606 776.234C369.747 773.085 366.441 770.093 361.6 770.093C358.137 770.093 355.755 776.785 358.826 778.005C363.214 779.855 367.524 779.087 368.606 776.234ZM692.241 726.877C693.382 715.285 693.323 714.655 690.017 715.895C688.088 716.663 684.389 717.666 681.791 718.198C678.78 718.808 676.399 721.051 675.1 724.495C672.482 731.501 669.098 731.265 669.098 724.121C669.098 721.051 667.405 716.053 665.26 713.042C660.419 706.213 661.954 704.599 669.57 708.594C675.1 711.506 676.025 711.585 682.401 708.889C690.312 705.524 690.706 704.284 685.393 699.443C683.247 697.514 680.02 693.834 678.091 691.138C673.329 684.526 677.56 682.991 685.865 688.363C689.25 690.607 693.009 692.378 694.308 692.378C695.547 692.378 696.689 693.145 696.846 694.129C697.397 698.518 703.931 700.9 709.697 698.912C718.533 695.822 726.209 696.294 725.52 699.896C724.831 703.202 722.765 704.678 712.374 708.752C706.234 711.133 705.466 712.057 706.469 715.974C707.158 718.965 706.686 720.973 704.836 721.957C703.38 722.803 700.999 726.818 699.621 730.813C698.243 734.808 695.705 738.35 694.012 738.645C691.316 739.176 691.08 737.878 692.241 726.877ZM250.291 726.661C250.291 725.893 251.137 722.35 252.141 718.808C253.833 712.825 253.597 712.117 247.063 706.587L240.215 700.663H248.677C257.061 700.604 257.199 700.525 260.741 691.905L264.283 683.227L268.121 691.905C271.959 700.447 272.195 700.604 280.342 700.604H288.647L282.113 706.508C275.894 712.274 275.737 712.747 277.429 720.284C279.417 729.278 279.575 729.199 270.581 724.043C263.673 720.048 263.673 720.048 258.045 724.043C252.141 728.274 250.291 728.884 250.291 726.661ZM208.924 662.307C208.55 661.854 208.235 660.457 208.235 659.08C208.235 657.23 212.919 656.698 229.076 656.698H249.898L248.973 635.169C248.363 622.574 248.835 608.03 250.134 599.961C252.908 582.289 261.824 555.839 268.81 544.464L274.281 535.47L263.201 536.317C256.982 536.769 252.141 536.317 252.141 535.392C252.141 534.467 250.98 534.625 249.602 535.707C247.063 537.852 229.844 543.539 228.84 542.536C228.604 542.319 230.139 539.151 232.461 535.786C238.365 526.851 250.901 520.789 260.82 522.088C270.266 523.249 270.581 522.403 262.119 518.408C258.517 516.716 256.057 514.866 256.589 514.335C257.12 513.784 254.129 511.874 249.819 509.946C240.825 505.872 242.832 503.097 254.818 503.019C264.284 503.019 273.277 508.568 277.193 516.715C280.657 524.017 280.893 524.096 288.037 520.396C298.802 514.787 312.243 517.72 321.473 527.56C326.55 532.932 324.543 533.463 313.857 529.704C309.705 528.169 306.949 527.933 306.949 529.015C306.949 530.078 304.253 530.393 300.101 529.704L293.252 528.543L300.573 532.007C312.085 537.458 319.781 547.928 319.781 558.063C319.781 561.291 319.013 561.074 312.479 555.839C308.484 552.612 305.099 548.617 305.021 547.082C304.863 545.153 304.568 544.917 303.938 546.472C303.25 548.145 301.478 547.692 297.483 544.838C291.953 540.843 291.953 540.843 293.488 545.232C296.027 552.454 295.181 562.53 291.422 568.139C287.958 573.453 287.958 573.453 286.502 565.227C285.656 560.681 285.42 555.918 285.951 554.619C286.423 553.301 286.108 552.612 285.262 553.143C284.416 553.694 282.723 550.84 281.582 546.767C278.807 537.694 277.429 538.541 272.431 552.297C262.197 580.36 260.288 612.95 267.275 640.167L271.348 655.773H306.103C340.838 655.773 340.838 655.773 341.389 650.696C341.92 645.934 342.452 645.697 351.229 645.697C360.518 645.697 360.518 645.697 359.219 637.943C358.53 633.633 357.29 617.811 356.444 602.736C353.374 548.459 360.518 491.112 376.596 440.83C384.055 417.47 406.726 372.423 421.329 351.976C434.179 334.126 452.383 313.462 450.77 318.756C448.939 324.601 440.713 366.421 438.706 379.567C437.702 386.573 436.403 394.937 435.872 398.164C434.947 404.009 434.947 404.01 446.696 396.334C453.23 392.103 458.622 387.341 458.7 385.727C458.7 384.113 459.999 381.712 461.456 380.57C463.542 378.799 463.699 377.343 462.007 373.486C459.625 367.798 459.153 330.682 461.298 317.457C463.837 302.087 465.844 311.612 467.143 344.891C468.383 376.95 470.922 388.404 477.219 390.49C478.833 391.1 484.914 394.327 490.759 397.869C496.525 401.392 501.74 404.245 502.291 404.245C503.826 404.245 500.973 375.946 496.21 343.907C493.75 327.298 491.743 313.384 491.743 312.911C491.743 310.687 502.744 322.987 513.587 337.432C555.328 392.949 580.224 459.132 586.993 532.243C589.217 556.449 588.155 622.101 585.301 636.094C583.687 643.867 583.687 643.867 593.448 643.867C603.288 643.867 603.288 643.867 603.288 650.243V656.62H690.923L693.855 647.016C695.39 641.781 697.24 632.413 697.85 626.175C698.617 617.732 699.542 615.115 701.392 615.882C702.77 616.335 703.931 615.882 703.931 614.8C703.931 613.658 702.691 612.734 701.156 612.734C699.011 612.734 698.381 610.353 698.381 602.048C698.381 590.043 693.323 568.375 687.164 554.068C683.09 544.464 683.09 544.464 681.319 549.837C680.394 552.769 679.016 555.997 678.249 557.001C677.481 557.985 676.241 563.219 675.553 568.612C674.411 577.212 673.939 578.058 671.558 575.676C667.877 572.055 666.402 559.382 668.862 552.376C670.869 546.688 670.869 546.688 665.26 551.392C662.19 553.99 658.943 555.603 658.037 555.072C657.112 554.461 656.345 554.678 656.345 555.466C656.345 556.312 653.492 559.303 649.949 562.058C643.494 567.214 643.494 567.214 643.494 561.921C643.494 554.757 650.421 545.074 658.805 540.312L665.791 536.475L658.805 536.927C654.869 537.242 648.493 538.009 644.419 538.777C637.118 540.075 637.118 540.076 641.723 535.077C650.874 525.099 662.957 522.246 673.486 527.697C680.177 531.239 679.252 531.633 683.936 523.249C688.463 515.102 696.689 510.339 705.997 510.399C716.152 510.399 717.529 512.859 709.697 516.873C705.84 518.782 702.612 521.085 702.534 522.01C702.455 522.856 699.995 525.237 697.161 527.166C692.005 530.708 692.005 530.708 699.306 529.626C704.915 528.779 708.536 529.468 714.755 532.696C722.371 536.632 731.207 545.763 729.298 547.77C727.822 549.148 714.302 544.701 710.464 541.552C707.847 539.466 707.296 539.387 708.457 541.315C709.697 543.46 708.083 543.697 698.696 542.693C692.477 542.004 687.4 541.847 687.4 542.162C687.4 542.536 690.312 547.691 693.933 553.615C707.158 575.597 714.224 607.735 712.374 637.943L711.232 656.698H732.978C750.592 656.698 754.882 657.171 755.728 659.474C756.653 661.855 746.597 662.228 672.246 662.622C625.822 662.858 569.773 662.996 547.87 662.78C507.9 662.386 507.9 662.386 503.511 657.23C501.051 654.396 499.044 652.94 499.044 654.002C499.044 655.085 499.969 656.935 501.209 658.076C502.35 659.316 502.823 660.851 502.134 661.54C501.445 662.228 446.853 662.701 380.827 662.701C281.109 662.622 260.584 662.149 259.285 660.083C258.202 658.469 257.671 658.312 257.592 659.768C257.592 661.854 210.931 664.314 209.003 662.307H208.924ZM432.251 656.698C431.641 655.695 429.948 654.848 428.492 654.848C427.016 654.848 425.874 655.695 425.874 656.698C425.874 657.702 427.567 658.469 429.633 658.469C431.719 658.469 432.861 657.702 432.251 656.698ZM460.393 440.141C461.455 416.152 462.696 396.098 463.227 395.567C463.699 395.095 465.234 395.094 466.612 395.626C469.524 396.708 470.075 410.09 473.46 552.376C474.523 599.194 475.92 640.935 476.373 645.245C477.908 658.312 481.824 654.927 485.898 637.018C498.592 581.895 503.826 540.705 505.735 481.272L506.975 443.979L490.208 445.297C473.46 446.596 473.46 446.596 473.46 441.755C473.46 436.914 473.46 436.914 489.44 437.308C507.349 437.76 505.578 439.531 504.811 422.075C504.515 414.538 504.121 414.085 493.986 408.772C488.22 405.78 480.761 400.939 477.455 398.027C469.603 391.1 459.999 390.253 456.851 396.256C455.611 398.558 449.785 403.793 443.862 407.926C433.333 415.306 433.176 415.542 433.176 424.299C433.176 429.219 432.703 434.533 432.093 436.068C431.09 438.606 432.939 439 444.865 439C457.539 439 458.779 439.295 458.779 442.68C458.779 445.986 457.539 446.302 445.082 446.302H431.326L431.405 482.434C431.405 530.472 435.636 572.134 445.161 619.188C454.076 663.074 453.859 664.078 456.319 569.753C457.539 522.482 459.389 464.131 460.393 440.141ZM430.165 641.092C429.319 638.868 423.946 638.396 397.339 638.396C370.279 638.396 365.517 638.79 365.517 641.092C365.517 643.473 370.358 643.867 398.343 643.867C426.859 643.867 431.09 643.473 430.165 641.092ZM579.082 640.719C580.302 636.94 507.133 637.412 505.657 641.171C504.751 643.631 509.12 643.946 541.415 643.473C568.927 643.1 578.472 642.411 579.082 640.719ZM427.705 625.565C427.705 624.404 415.798 623.715 395.666 623.715C375.592 623.715 363.686 624.404 363.686 625.565C363.686 626.726 375.592 627.415 395.666 627.415C415.798 627.415 427.705 626.726 427.705 625.565ZM579.535 624.64C579.535 622.18 574.851 621.944 544.485 622.337C518.429 622.731 509.199 623.42 508.667 625.112C508.038 626.864 515.811 627.415 543.717 627.415C574.536 627.415 579.535 627.021 579.535 624.64ZM424.025 610.037C424.025 607.735 419.478 607.42 393.895 607.735C370.515 607.971 363.686 608.581 363.686 610.431C363.686 612.261 370.358 612.813 393.895 612.813C419.341 612.813 424.025 612.34 424.025 610.037ZM581.306 610.037C581.306 607.735 576.228 607.263 546.571 607.263C516.893 607.263 511.816 607.656 511.816 610.037C511.816 612.419 516.893 612.813 546.571 612.813C576.228 612.813 581.306 612.419 581.306 610.037ZM422.175 595.435C422.175 593.054 417.648 592.66 392.045 592.66C366.441 592.66 361.836 593.054 361.836 595.435C361.836 597.737 366.441 598.131 392.045 598.131C417.648 598.131 422.175 597.737 422.175 595.435ZM581.306 593.506C581.306 591.125 576.858 590.81 548.106 591.282C523.506 591.656 514.65 592.365 514.119 594.038C513.509 595.809 520.967 596.36 547.338 596.36C576.543 596.36 581.306 595.966 581.306 593.506ZM416.251 582.368C426.721 579.593 418.022 578.058 392.045 578.058C368.055 578.058 363.686 578.511 363.686 580.754C363.686 583.057 367.602 583.509 387.892 583.509C401.275 583.509 414.027 582.978 416.251 582.368ZM581.306 578.904C581.306 576.523 576.996 576.208 549.031 576.602C525.198 576.976 516.5 577.743 515.969 579.435C515.359 581.206 522.66 581.679 548.244 581.679C576.701 581.679 581.306 581.285 581.306 578.904ZM469.761 573.453C469.761 571.977 468.993 570.756 467.989 570.756C467.005 570.756 466.691 571.977 467.301 573.453C467.852 574.988 468.678 576.208 469.072 576.208C469.465 576.208 469.761 574.988 469.761 573.453ZM504.515 566.073C504.515 564.459 503.669 563.692 502.665 564.302C501.662 564.912 500.815 566.21 500.815 567.135C500.815 568.139 501.662 568.907 502.665 568.907C503.669 568.907 504.515 567.608 504.515 566.073ZM418.101 564.911C417.019 561.684 363.686 561.605 363.686 564.754C363.686 566.525 370.436 567.057 391.277 567.057C411.803 567.057 418.652 566.525 418.101 564.911ZM578.767 565.227C580.164 565.227 581.306 563.987 581.306 562.451C581.306 559.991 577.075 559.677 549.936 560.149C527.186 560.444 518.35 561.232 517.818 562.904C517.267 564.518 523.802 565.226 544.17 565.679C559.087 565.915 572.391 565.994 573.69 565.679C575.087 565.443 577.311 565.227 578.767 565.227ZM416.723 549.621C416.723 547.239 413.024 546.924 390.805 547.298C372.05 547.692 364.67 548.459 364.139 550.152C363.529 551.923 369.512 552.376 390.038 552.376C412.729 552.376 416.723 552.002 416.723 549.621ZM579.535 547.849C579.535 545.546 574.93 545.074 549.326 545.074C523.723 545.074 519.118 545.468 519.118 547.849C519.118 550.151 523.723 550.604 549.326 550.604C574.93 550.604 579.535 550.23 579.535 547.849ZM416.723 534.015C416.723 531.85 367.898 531.711 366.599 533.857C365.989 534.703 365.91 535.785 366.284 536.159C367.819 537.694 416.723 535.628 416.723 534.015ZM577.704 531.397C577.704 529.094 573.316 528.622 549.326 528.622C525.336 528.622 520.967 529.094 520.967 531.397C520.967 533.699 525.336 534.093 549.326 534.093C573.316 534.093 577.704 533.699 577.704 531.397ZM414.421 519.018C413.023 514.708 369.137 515.259 369.137 519.628C369.137 520.553 379.292 521.321 392.202 521.321C409.796 521.321 415.031 520.789 414.421 519.018ZM575.854 516.715C575.854 514.413 571.623 514.019 548.401 514.019C525.258 514.019 520.967 514.492 520.967 516.715C520.967 519.097 525.258 519.471 548.401 519.471C571.623 519.471 575.854 519.018 575.854 516.715ZM414.874 503.865C414.874 501.484 411.725 501.188 393.58 501.562C378.505 501.956 371.971 502.802 371.44 504.416C370.909 506.187 375.907 506.718 392.812 506.718C411.41 506.718 414.874 506.266 414.874 503.865ZM550.408 503.019C568.553 503.019 572.155 502.566 572.155 500.263C572.155 498.098 569.478 497.567 558.635 497.567C549.483 497.567 544.8 496.8 544.111 495.264C543.402 493.493 542.792 493.494 541.415 495.501C540.411 496.879 536.101 498.099 531.417 498.177C526.812 498.335 522.581 499.024 521.892 499.732C519.806 501.72 522.955 505.183 525.887 504.022C527.344 503.491 538.404 503.019 550.408 503.019ZM414.874 489.341C414.874 487.038 411.41 486.586 394.82 486.586C378.131 486.586 374.668 487.038 374.668 489.341C374.668 491.565 378.131 492.037 394.82 492.037C411.41 492.037 414.874 491.565 414.874 489.341ZM568.553 485.661C568.553 483.339 564.775 482.886 545.646 482.886C526.576 482.886 522.798 483.339 522.798 485.661C522.798 487.964 526.576 488.416 545.646 488.416C564.775 488.416 568.553 487.964 568.553 485.661ZM414.874 473.735C414.874 472.672 407.887 471.885 397.654 471.885C388.129 471.885 379.823 472.731 379.213 473.735C378.505 474.896 384.665 475.585 396.512 475.585C407.572 475.585 414.874 474.896 414.874 473.735ZM564.854 470.271C564.854 468.52 543.796 466.512 530.571 466.965C525.651 467.123 522.798 468.126 522.798 469.582C522.798 471.354 528.032 471.885 543.875 471.885C555.407 471.885 564.854 471.196 564.854 470.271ZM416.723 452.914C416.723 444.904 416.723 444.904 404.581 440.063C397.968 437.386 392.36 435.458 392.124 435.694C391.041 437.308 383.819 457.912 383.819 459.29C383.819 460.215 391.199 460.983 400.271 460.983C416.723 460.983 416.723 460.983 416.723 452.914ZM559.402 455.669C559.402 454.823 557.552 449.214 555.25 443.212C552.317 435.458 550.33 432.525 548.401 433.076C546.945 433.529 540.096 435.91 533.346 438.37C520.967 442.995 520.967 442.995 520.967 450.139C520.967 457.282 520.968 457.283 540.175 457.283C550.704 457.283 559.402 456.594 559.402 455.669ZM416.723 427.841C416.723 424.535 416.251 424.299 413.949 426.228C412.414 427.546 410.564 427.92 409.796 427.231C409.107 426.464 410.8 424.083 413.574 421.839C418.18 418.08 418.947 415.778 422.096 394.091C423.946 381.102 425.245 370.12 424.949 369.806C423.414 368.271 394.741 425.224 394.741 429.849C394.741 430.912 399.504 431.679 405.722 431.679C415.72 431.679 416.723 431.384 416.723 427.841ZM547.791 427.468C548.322 426.917 546.099 420.383 542.792 413.082C536.416 399.011 515.044 360.202 514.119 361.127C513.115 362.111 519.511 414.321 520.967 417.155C521.814 418.769 521.971 422.39 521.42 425.224C520.416 430.38 520.417 430.38 533.563 429.455C540.805 428.924 547.181 428.078 547.712 427.468H547.791ZM171.808 565.679C171.945 563.908 172.654 560.445 173.421 557.926C174.563 554.068 173.638 552.376 168.187 547.456L161.574 541.552H170.036C178.4 541.473 178.558 541.394 182.1 532.774L185.643 524.095L189.48 532.774C193.318 541.394 193.475 541.473 202.016 541.473H210.617L203.709 547.456C197.018 553.222 196.86 553.615 198.789 560.602C199.93 564.518 200.54 567.981 200.245 568.375C199.852 568.67 196.407 567.135 192.334 564.911C185.013 560.916 185.013 560.916 179.404 564.911C172.654 569.674 171.571 569.831 171.808 565.679ZM764.801 565.915C768.264 553.379 768.107 552.769 761.495 547.456L755.04 542.378L763.738 541.473C772.043 540.548 772.496 540.233 775.487 532.322L778.576 524.095L782.335 532.774C786.015 541.394 786.173 541.473 794.635 541.473H803.236L796.328 547.456C789.4 553.379 789.322 553.616 791.565 560.385C794.478 569.222 793.258 570.285 786.094 565.148C780.407 561.074 780.269 561.074 773.656 564.459C769.957 566.368 766.276 568.218 765.43 568.612C764.584 568.986 764.269 567.765 764.801 565.915ZM744.137 394.169C744.137 392.556 748.348 389.564 754.193 386.947C761.416 383.719 763.955 381.791 763.187 379.803C762.577 378.268 762.734 376.024 763.502 374.804C764.348 373.348 766.414 376.103 769.111 382.184C773.184 391.335 773.342 395.094 769.799 395.094C768.874 395.094 767.654 393.559 767.044 391.552C765.962 388.187 765.568 388.246 755.886 392.477C744.058 397.712 744.137 397.712 744.137 394.169ZM201.327 387.183C190.7 381.712 190.011 381.023 192.334 377.874C194.636 374.726 195.857 374.568 204.772 376.339L214.612 378.268L206.858 371.341C199.163 364.571 197.785 358.51 203.787 358.51C208.314 358.51 226.537 368.35 226.537 370.81C226.537 374.116 223.92 373.801 215.005 369.275L207.31 365.417L215.005 372.108C224.766 380.57 223.999 384.881 212.998 383.326C205.46 382.263 205.46 382.263 211.384 385.412C217.229 388.403 219.531 393.402 215.084 393.166C213.765 393.166 207.625 390.49 201.327 387.183ZM737.898 379.331C737.288 377.796 738.371 374.49 740.358 371.951C745.514 365.338 743.586 361.422 736.816 364.964C732.29 367.267 731.522 367.267 730.676 364.886C729.908 362.957 733.214 360.418 742.129 355.892L754.665 349.595L757.657 357.427C759.349 361.737 760.195 366.657 759.585 368.27C758.267 371.498 752.422 374.037 749.824 372.344C748.899 371.813 746.046 373.801 743.586 376.733C739.906 381.102 738.745 381.653 737.898 379.331ZM755.118 365.122C755.118 362.19 752.422 358.51 750.356 358.51C747.738 358.51 746.813 362.504 748.978 364.65C750.355 365.968 755.118 366.342 755.118 365.122ZM220.082 354.042C207.861 337.668 209.927 335.523 233.228 340.286C241.455 342.057 242.832 342.825 240.983 344.97C239.841 346.367 237.381 347.587 235.688 347.587C230.375 347.587 227.226 352.665 229.844 356.975C231.989 360.34 231.379 364.118 228.683 363.961C227.994 363.882 224.156 359.434 220.082 354.042ZM226.537 345.58C226.537 344.675 224.766 343.907 222.621 343.907C219.393 343.907 219.079 344.36 221.007 346.583C223.31 349.358 226.537 348.827 226.537 345.58ZM721.151 348.591C713.908 341.289 716.368 331.135 726.681 326.215C732.289 323.519 733.667 323.44 737.898 325.684C747.896 331.056 747.974 343.434 738.134 349.437C730.361 354.199 726.602 353.963 721.151 348.512V348.591ZM737.131 342.667C741.205 339.046 741.362 335.976 737.741 332.984C731.837 328.065 720.6 335.74 723.296 342.824C724.752 346.662 732.9 346.505 737.131 342.667ZM234.291 330.82C221.618 320.921 221.775 318.304 234.98 318.304C245.293 318.304 245.292 318.304 239.979 314.309C237.145 312.065 234.37 309.999 233.917 309.684C233.445 309.389 233.996 308.227 234.98 307.224C237.224 305 258.123 319.445 257.061 322.614C256.588 323.913 252.279 324.601 245.745 324.444C235.138 324.227 235.138 324.227 240.904 328.753C246.06 332.748 248.677 338.436 245.214 338.357C244.525 338.357 239.526 334.972 234.291 330.82ZM713.003 318.304C709.618 314.919 708.989 314.84 705.072 317.378C701.235 319.917 698.381 319.524 698.381 316.453C698.381 315.765 703.301 311.297 709.304 306.614L720.147 298.073L724.831 304.921C730.361 313.147 730.518 314.918 726.149 318.913C721.682 322.987 717.451 322.752 713.003 318.304ZM721.997 309.841C719.222 306.535 716.841 306.693 715.463 310.314C713.987 313.994 718.533 316.907 721.682 314.309C723.453 312.833 723.532 311.691 721.997 309.841ZM253.518 303.839C244.446 287.091 246.375 285.163 264.657 292.248C277.587 297.227 280.578 300.847 272.037 301.005C265.13 301.162 262.827 303.465 263.437 309.605C264.441 319.228 260.584 316.985 253.518 303.839ZM259.442 296.321C254.975 293.547 253.755 294.235 256.136 298.151C257.671 300.533 259.048 301.162 260.288 299.844C261.508 298.624 261.272 297.463 259.442 296.321ZM693.166 310.373C691.473 308.385 691.473 306.614 693.087 303.071C694.229 300.533 694.701 297.01 694.012 295.239C692.93 292.464 692.32 292.543 688.246 296.38C685.314 299.234 683.09 300.08 681.929 298.919C680.709 297.699 683.621 293.625 690.234 287.091L700.467 277.172L705.761 283.097C713.299 291.461 712.295 300.001 703.695 300.001C701.845 300.001 699.542 302.619 698.007 306.535C695.783 311.986 694.996 312.616 693.166 310.373ZM704.836 292.621C706.844 289.315 702.002 285.005 699.089 287.387C697.161 289 697.004 290.161 698.617 292.011C701.077 295.002 703.223 295.239 704.836 292.621ZM271.585 284.927C264.283 276.484 263.594 275.028 265.976 272.627C268.81 269.714 268.731 269.714 281.11 277.783C285.42 280.558 285.419 280.558 280.736 271.249C276.662 263.259 276.426 261.645 278.65 259.795C282.113 256.883 282.881 257.336 292.189 267.491C297.798 273.709 299.727 277.094 298.802 279.396C297.719 282.171 296.794 281.778 292.189 276.326C286.108 269.025 285.577 269.714 290.025 279.023C294.413 288.233 290.418 290.771 281.72 284.159C274.419 278.55 272.273 279.396 278.65 285.399C283.196 289.63 284.731 294.55 281.582 294.55C280.657 294.55 276.111 290.161 271.585 284.927ZM672.089 289.394C671.558 288.547 675.552 283.017 680.945 277.015C689.309 267.785 690.923 266.644 692.084 269.478C693.087 272.017 691.159 275.087 684.546 281.856C675.553 290.929 673.782 292.09 672.089 289.394ZM665.87 283.097C664.571 281.562 664.02 279.16 664.571 277.704C666.185 273.552 658.884 267.864 655.577 270.639C652.881 272.863 649.044 271.859 649.044 269.025C649.044 267.096 670.475 254.265 673.703 254.265C678.013 254.265 677.934 256.568 672.935 271.406C668.94 283.313 667.72 285.32 665.87 283.097ZM669.629 265.247C670.259 263.259 670.022 261.566 669.255 261.566C666.952 261.566 663.568 266.408 664.945 267.707C667.031 269.872 668.724 269.025 669.708 265.247H669.629ZM301.478 266.565C300.337 262.334 298.723 256.489 297.719 253.577C295.417 246.492 295.495 245.724 298.88 244.425C301.635 243.343 323.48 257.178 323.48 260.031C323.48 262.649 319.623 263.712 317.321 261.803C313.857 258.949 306.477 264.479 307.874 268.868C308.484 270.875 307.874 272.567 306.182 273.177C304.174 273.945 302.876 272.252 301.4 266.565H301.478ZM308.091 254.561C304.785 251.274 302.718 252.415 304.332 256.646C304.942 258.26 306.634 259.107 308.17 258.497C310.551 257.572 310.551 257.099 308.091 254.561ZM628.439 256.253C625.664 254.502 622.889 252.573 622.279 251.963C621.059 250.723 634.205 228.662 636.193 228.662C639.814 228.662 639.263 231.968 634.284 240.726L628.734 250.428L634.343 253.34C637.433 254.954 639.499 257.02 638.889 258.024C637.354 260.484 634.205 259.953 628.439 256.253ZM331.549 240.431C326.157 230.807 325.232 227.973 327.239 226.733C329.01 225.671 331.313 228.052 335.623 235.668C341.92 246.65 342.845 249.719 339.992 251.49C339.087 252.041 335.229 247.043 331.549 240.431ZM613.679 247.574C612.99 246.885 612.439 244.878 612.439 243.048C612.439 238.187 606.063 235.353 601.517 238.187C599.136 239.663 597.306 239.8 596.144 238.659C593.527 236.042 614.9 217.366 618.816 218.822C620.902 219.668 621.512 221.44 620.823 224.825C620.37 227.442 619.446 233.897 618.737 239.191C617.674 248.342 616.434 250.349 613.679 247.574ZM614.289 230.276C614.289 227.048 613.817 226.733 611.515 228.662C608.759 230.886 609.369 234.113 612.518 234.113C613.522 234.113 614.289 232.421 614.289 230.276ZM343.613 234.192C340.543 228.209 338.083 222.443 338.083 221.439C338.083 218.054 344.538 219.432 350.835 224.057C358.373 229.666 358.983 229.194 355.46 220.751C352.154 212.741 352.075 212.209 355.066 212.209C358.825 212.209 369.984 236.2 367.052 238.049C365.674 238.896 362.899 238.344 360.518 236.809C358.215 235.353 354.299 232.814 351.682 231.122C346.919 228.052 346.919 228.052 349.832 234.959C353.217 243.048 353.453 245.114 350.914 245.114C349.91 245.114 346.604 240.194 343.613 234.192ZM585.38 232.893C584.376 231.043 582.998 226.28 582.309 222.285L580.932 214.985L577.39 223.053C574.851 228.898 573.316 230.591 571.938 229.134C570.462 227.658 571.171 223.742 574.241 215.063C579.456 200.52 583.234 199.752 585.773 212.682C587.761 222.975 589.453 223.585 592.307 214.985C594.294 208.825 595.987 207.29 598.23 209.592C599.765 211.127 591.46 234.743 589.079 235.511C587.997 235.885 586.305 234.743 585.38 232.893ZM377.521 222.285C374.589 213.744 373.369 212.209 369.59 212.209C362.683 212.209 365.674 208.451 375.671 204.672C386.515 200.52 385.668 200.598 385.668 203.826C385.668 205.302 383.976 206.995 382.048 207.605C378.446 208.746 378.505 208.824 382.126 218.054C385.669 226.969 385.747 232.362 382.441 232.362C381.595 232.362 379.351 227.815 377.521 222.285ZM395.115 213.371C392.36 204.062 391.888 200.067 393.344 199.142C397.496 196.603 408.025 195.521 409.954 197.45C411.331 198.768 410.19 199.673 406.037 200.52C399.799 201.76 397.575 203.826 399.267 206.601C399.878 207.604 402.574 207.683 405.801 206.679C410.032 205.439 411.272 205.676 411.272 207.683C411.272 209.14 409.186 210.832 406.647 211.442C403.813 212.131 402.121 213.902 402.121 216.047C402.121 219.137 403.046 219.432 409.639 218.37C420.325 216.598 418.337 221.361 407.179 224.214C398.894 226.36 398.894 226.36 395.036 213.371H395.115ZM548.106 222.207C536.022 215.673 541.415 195.757 555.328 195.757C560.544 195.757 568.553 203.373 568.553 208.372C568.553 214.374 564.775 220.829 560.012 222.974C554.482 225.513 554.088 225.434 548.106 222.207ZM560.859 213.587C563.712 207.604 561.095 201.228 555.86 201.228C549.169 201.228 544.721 211.915 549.484 216.677C553.557 220.751 557.946 219.59 560.859 213.587ZM421.565 215.437C421.033 213.134 420.029 207.054 419.341 201.996C418.18 192.609 418.18 192.608 425.56 191.447C429.555 190.759 434.179 190.759 435.714 191.31C439.473 192.766 441.166 198.532 438.942 202.527C437.623 204.829 438.095 207.053 440.792 210.753C444.019 215.279 444.078 215.988 441.559 216.972C439.709 217.661 437.249 216.362 434.868 213.292C429.712 206.758 426.327 207.053 427.331 214.059C428.256 220.672 423.178 221.892 421.565 215.358V215.437ZM432.861 198.906C433.254 196.84 432.251 195.757 429.948 195.757C425.481 195.757 424.025 197.213 425.324 200.598C426.642 204.141 432.093 202.901 432.861 198.906ZM528.269 216.126C528.269 207.211 532.638 192.077 535.176 192.077C537.184 192.077 537.558 193.533 536.869 198.06C536.259 201.287 535.334 207.447 534.645 211.757C533.484 219.511 528.269 223.132 528.269 216.126ZM447.857 207.821C447.857 203.452 447.326 197.292 446.696 194.143C444.925 185.386 451.458 186.468 458.071 196.072L463.384 203.688L463.916 195.147C464.467 186.527 466.848 183.851 468.619 189.775C470.607 196.367 470.449 214.748 468.383 215.358C467.3 215.752 463.463 212.209 459.842 207.447L453.23 198.906V207.368C453.23 213.666 452.54 215.91 450.553 215.91C448.467 215.91 447.778 213.745 447.778 207.821H447.857ZM494.439 212.209C493.061 207.683 484.835 207.211 481.686 211.521C480.525 213.213 478.597 214.217 477.534 213.823C476.215 213.371 477.298 208.53 480.447 200.304C487.138 182.926 490.759 182.926 496.584 200.225C498.907 207.211 500.815 213.587 500.815 214.375C500.815 217.523 495.6 215.673 494.439 212.209ZM490.444 199.457C489.913 197.45 488.752 196.229 487.827 196.761C485.288 198.374 485.977 203.058 488.83 203.058C490.444 203.058 491.054 201.76 490.444 199.457ZM510.203 205.44C511.738 194.222 511.206 192.077 507.132 192.077C505.735 192.077 504.515 191.231 504.515 190.227C504.515 188.22 515.811 187.846 522.345 189.617C527.796 191.074 527.659 193.907 522.109 193.907C517.583 193.907 515.497 199.063 515.497 210.596C515.497 214.512 514.591 215.91 512.131 215.91C509.12 215.91 508.884 214.827 510.203 205.44ZM438.784 919.759C430.322 918.834 423.178 917.987 423.021 917.692C422.785 917.535 424.398 903.011 426.485 885.555L430.322 853.812L450.474 854.953C461.613 855.642 474.149 856.646 478.459 857.197L486.213 858.259V903.542H475.231C464.762 903.542 464.309 903.307 464.309 899.016C464.309 894.864 464.998 894.391 471.61 894.391C478.912 894.391 478.912 894.391 478.912 879.868C478.912 865.344 478.912 865.344 472.988 864.419C462.223 862.806 436.856 861.802 436.856 863.022C436.856 863.73 435.636 874.475 434.1 887.011C432.625 899.547 431.778 910.076 432.251 910.549C433.864 912.163 462.007 914.386 481.903 914.465C499.359 914.544 539.112 911.611 540.568 910.155C541.493 909.23 535.255 864.262 534.035 863.179C533.425 862.648 526.734 862.648 519.118 863.179L505.44 864.261L504.889 879.337C504.279 894.392 504.279 894.391 511.895 894.391C519.432 894.391 519.433 894.391 518.882 884.787C518.429 876.325 518.802 875.184 521.971 875.184C525.041 875.184 525.73 876.935 526.655 887.09C527.344 893.624 527.501 899.39 526.95 899.922C525.888 901.083 498.906 902.932 497.903 901.929C497.43 901.476 497.135 891.479 497.135 879.631C497.135 854.579 494.833 856.882 522.188 855.032C544.17 853.575 541.257 849.344 546.177 889.55C548.559 908.462 548.952 916.925 547.555 917.377C534.881 921.372 468.619 922.848 438.706 919.759H438.784ZM375.592 908.226C362.525 904.782 346.152 899.863 339.303 897.324C323.323 891.4 288.804 876.03 287.801 874.338C286.345 872.016 314.25 816.676 316.553 816.991C317.852 817.207 328.321 821.438 339.932 826.358C351.445 831.357 362.289 835.903 364.06 836.434C366.835 837.438 366.363 839.82 359.75 859.499L352.449 881.403L341.606 877.486C330.152 873.412 329.856 873.098 332.395 869.024C333.694 866.958 335.151 866.879 340.071 868.572C343.377 869.713 346.604 870.028 347.234 869.26C348.926 867.331 356.366 846.963 356.366 844.346C356.366 842.496 323.008 826.752 319.092 826.752C317.793 826.752 297.798 867.036 297.798 869.713C297.798 872.015 329.247 885.476 353.059 893.388C378.978 902.008 399.346 906.849 401.353 904.92C403.046 903.228 411.725 859.578 410.642 858.417C409.107 856.96 383.051 850.663 382.205 851.509C381.516 852.119 372.975 877.408 372.818 879.1C372.818 879.257 374.825 879.868 377.206 880.478C379.666 881.088 382.973 882.092 384.508 882.702C386.357 883.41 387.44 882.859 387.44 881.324C387.499 870.953 394.111 861.408 397.496 866.879C398.421 868.414 393.659 890.632 392.045 892.246C391.513 892.856 365.143 885.398 363.981 884.315C363.686 884.099 366.441 874.18 370.141 862.412C376.281 842.653 377.127 841.118 380.749 842.122C382.894 842.653 392.123 844.955 401.196 847.12C410.268 849.344 418.258 851.647 419.026 852.277C419.715 852.887 417.648 866.958 414.342 883.548C407.179 919.385 410.268 917.378 375.592 908.148V908.226ZM648.119 169.701C638.653 164.781 638.732 164.86 641.034 161.16C642.038 159.468 650.185 144.097 659.022 126.956C667.878 109.894 675.71 95.2127 676.478 94.3665C678.091 92.5953 692.93 99.7391 692.93 102.357C692.93 103.892 656.424 173.775 655.637 173.539C655.499 173.539 652.114 171.767 648.119 169.701ZM612.439 152.796C606.142 150.474 605.984 150.257 605.532 139.335C604.902 128.196 604.902 128.196 593.763 124.418C581.306 120.187 582.31 119.734 573.769 133.117C570.699 137.958 569.006 138.942 565.621 138.115C559.166 136.482 552.101 133.569 552.101 132.565C552.101 131.64 596.991 67.9172 599.608 65.0833C600.375 64.3158 605.984 65.0046 611.987 66.6971C622.968 69.7671 622.968 69.7672 624.129 78.0721C624.739 82.5984 625.211 101.904 625.211 120.817C625.211 159.33 625.9 157.638 612.439 152.796ZM606.909 98.6768C606.909 90.5884 606.516 83.9956 606.063 83.9956C604.902 83.9956 590.457 105.899 590.457 107.749C590.457 108.969 599.844 112.275 605.61 113.043C606.299 113.2 606.909 106.667 606.909 98.6768ZM384.586 138.174C384.134 137.033 381.359 120.895 378.289 102.278C375.277 83.6804 372.365 66.6968 371.912 64.4533C371.125 61.0093 372.05 60.3009 379.666 58.6871C384.429 57.6244 388.896 57.3882 389.506 58.077C390.116 58.7658 391.651 65.6931 392.97 73.5257C394.879 85.0581 395.804 87.5966 398.264 86.9078C399.878 86.4552 405.801 85.5305 411.41 84.822C426.642 83.0705 426.563 83.208 423.414 66.4604C421.879 58.5492 420.876 51.7794 421.171 51.4645C421.486 51.2284 425.717 50.4608 430.637 49.9294L439.631 48.8472L446.617 87.6754C450.474 109.048 452.934 127.114 452.088 127.881C451.242 128.649 447.168 129.81 443.016 130.42C434.101 131.719 434.396 132.27 431.247 112.512C428.945 98.2833 428.945 98.2833 421.486 99.4444C417.333 100.133 410.485 101.136 406.195 101.746C397.28 102.967 397.28 102.967 400.881 123.808C402.2 131.109 402.731 137.112 402.199 137.112C401.648 137.19 397.575 137.879 393.265 138.725C387.814 139.788 385.118 139.65 384.586 138.174ZM440.477 101.589C440.477 101.215 439.237 97.3582 437.702 92.9893C436.167 88.6794 435.321 83.9953 435.793 82.6768C436.856 79.9806 435.163 79.6853 431.483 82.0666C429.318 83.3655 429.319 84.2908 431.09 86.4556C432.625 88.2859 432.703 89.5258 431.405 90.372C428.787 91.9858 434.238 102.278 437.781 102.278C439.237 102.278 440.477 102.042 440.477 101.589ZM520.042 129.259C519.57 128.039 517.956 121.663 516.5 115.129C513.588 102.436 509.12 96.8264 501.819 96.8264C496.978 96.8264 495.364 102.199 495.364 118.199C495.364 128.117 495.364 128.118 485.76 127.567C476.137 126.957 476.137 126.957 476.609 115.129C476.904 108.595 478.065 90.5882 479.226 75.0608L481.293 47.0173L501.583 47.7848C522.03 48.631 527.423 50.087 535.098 57.0734C544.032 65.2208 541.336 81.6731 529.961 88.3643C524.352 91.6705 524.352 91.749 528.033 95.134C530.04 96.9839 532.106 99.9752 532.638 101.746C533.799 105.663 539.25 129.574 539.25 130.735C539.25 132.802 520.81 131.345 520.042 129.259ZM518.193 80.3741C521.578 77.5993 521.892 66.4606 518.665 64.532C517.425 63.7645 512.584 62.6231 507.9 61.9933C499.438 60.9306 499.438 60.9307 498.434 70.9871C497.824 76.5368 497.824 81.7518 498.434 82.7554C499.831 84.9793 514.729 83.208 518.193 80.3741ZM695.626 829.586C692.083 824.134 689.25 818.9 689.25 817.975C689.25 816.991 694.701 812.445 701.392 807.84L713.535 799.456L720.6 809.296C728.905 820.985 729.141 822.127 723.06 826.063C717.608 829.586 716.152 828.661 715.601 821.36C714.912 811.303 712.078 809.984 703.695 815.908C698.381 819.667 698.381 819.667 703.006 826.437C708.221 834.132 708.693 836.966 704.777 838.422C702.77 839.209 699.995 836.513 695.626 829.586ZM201.78 791.308C198.238 788.691 198.474 788.317 208.157 778.399L218.154 768.244L225.848 775.781C230.139 780.091 233.071 784.46 232.52 785.857C231.221 789.459 229.233 789.006 223.389 783.85C218.232 779.323 218.232 779.324 211.856 786.704C205.933 793.533 205.244 793.847 201.78 791.308ZM779.344 765.331C768.5 755.629 757.736 745.868 755.354 743.565C751.044 739.413 751.044 739.413 766.198 720.422C774.503 710.05 784.953 695.901 789.479 689.151C794.025 682.381 798.099 676.772 798.63 676.772C802.173 676.772 853.675 712.274 852.593 714.045C843.756 729.199 802.546 782.846 799.87 782.846C799.398 782.846 790.168 774.935 779.344 765.331ZM809.08 760.549C820.849 746.183 842.831 716.505 842.91 714.97C842.91 713.514 803.176 687.753 801.012 687.753C800.165 687.753 797.174 691.296 794.399 695.527C791.565 699.817 783.103 711.349 775.644 721.189C762.813 737.956 762.124 739.256 764.958 742.424C766.572 744.175 767.89 747.187 767.89 748.958C767.89 751.418 768.5 751.712 770.193 750.335C771.885 748.957 775.802 751.476 785.248 760.096C792.333 766.551 798.473 771.786 799.024 771.707C799.476 771.707 804.023 766.709 809.08 760.549ZM787.649 746.793C776.254 737.268 776.254 737.642 786.941 725.342C792.254 719.202 793.632 718.513 796.013 720.5C798.63 722.665 798.394 723.511 794.399 728.805C791.861 732.111 789.873 735.26 789.873 735.949C789.873 736.579 792.943 739.964 796.702 743.408C802.862 749.095 803.314 750.02 800.776 752.559C798.257 755.176 796.938 754.566 787.649 746.793ZM807.014 736.342C806.482 734.886 808.096 730.892 810.694 727.507C813.312 724.043 815.476 720.816 815.476 720.284C815.476 719.812 812.17 717.194 808.156 714.518C801.012 709.814 798.945 705.583 802.625 703.359C804.397 702.218 826.458 716.131 826.458 718.276C826.458 720.579 811.619 738.96 809.848 738.96C808.864 738.96 807.545 737.799 807.014 736.342ZM149.274 763.166C133.511 744.411 118.83 724.2 108.754 707.669C99.6814 692.752 79.1749 651.464 80.3163 650.617C80.9264 650.165 110.84 637.786 121.821 633.397C124.99 632.099 135.518 655.242 132.586 657.092C128.375 659.769 126.209 658.391 123.297 651.011C120.758 644.634 119.676 643.631 116.134 644.556C107.297 646.78 91.1598 654.927 91.1598 657.092C91.1598 661.166 116.37 705.898 128.984 724.201C135.597 733.804 145.594 747.107 151.203 753.641C156.812 760.175 161.574 765.784 161.81 766.099C162.499 767.162 199.084 734.807 199.084 733.194C199.084 731.954 187.552 716.82 181.411 709.893C181.018 709.519 173.421 714.203 164.349 720.422L147.975 731.797L139.671 720.343C135.124 714.124 131.366 708.516 131.366 707.906C131.366 707.276 136.817 703.674 143.43 699.758C153.191 694.071 155.808 693.224 157.107 695.29C159.725 699.364 159.272 700.132 150.573 705.209C142.347 710.05 142.347 710.05 145.515 715.423C149.274 721.819 148.822 721.957 166.809 709.047C174.72 703.359 181.707 698.833 182.336 698.833C183.478 698.991 208.629 730.813 209.613 733.489C210.085 734.65 178.637 763.323 165.117 774.167C161.181 777.237 160.886 777.001 149.274 763.166ZM158.661 745.179C155.04 741.341 154.725 740.337 157.048 738.881C158.504 737.956 160.807 737.563 162.027 738.035C163.346 738.488 167.734 735.89 171.867 732.111C178.952 725.735 179.404 725.578 181.864 728.805C184.108 731.954 183.636 732.958 176.787 738.802C163.346 750.414 163.503 750.335 158.661 745.179ZM832.302 683.601C811.698 672.698 804.475 667.916 805.085 665.928C805.774 663.625 820.77 629.953 822.148 627.71C822.384 627.336 824.155 627.573 826.222 628.261C830.453 629.639 830.452 629.796 820.396 651.089C812.859 667.01 810.615 664.314 844.996 681.455C859.598 688.835 864.892 692.378 864.518 694.523C864.203 696.215 863.121 697.751 862.137 697.987C861.133 698.282 847.672 691.748 832.302 683.601ZM114.835 679.311C107.219 665.318 105.841 661.461 107.848 660.162C112.611 657.17 114.146 658.548 119.223 670.297C122.057 676.772 125.363 682.912 126.524 683.837C127.981 685.057 133.905 682.675 144.886 676.614C153.801 671.694 161.653 667.621 162.342 667.621C163.641 667.621 175.252 687.3 175.252 689.603C175.252 690.37 174.111 691.453 172.713 692.063C171.1 692.673 168.344 690.292 165.333 685.844C162.736 681.83 160.118 678.602 159.567 678.602C159.036 678.602 151.124 682.754 141.973 687.753C132.901 692.83 125.206 696.904 124.911 696.904C124.596 696.904 120.07 688.993 114.835 679.311ZM850.29 671.222C839.761 666.164 830.846 661.697 830.374 661.245C829.685 660.536 839.309 634.716 840.293 634.716C840.607 634.716 844.603 636.408 849.286 638.396C860.13 643.021 860.523 643.021 861.98 637.176C863.515 631.331 862.668 630.721 844.76 624.64C824.608 617.87 825.375 618.795 829.843 605.196C831.929 598.82 835.372 586.599 837.458 578.058C839.604 569.438 841.611 561.527 841.985 560.444C842.379 558.988 849.365 559.677 865.128 562.904C877.586 565.364 887.957 567.686 888.351 567.982C888.646 568.375 887.583 574.751 885.891 582.289L882.801 596.045L873.807 593.349C863.515 590.279 861.98 590.751 860.74 597.206C859.894 601.418 860.661 602.126 869.655 604.665C879.495 607.578 880.341 608.345 878.432 613.344C877.507 615.725 875.5 615.489 864.44 611.73C857.296 609.27 851.136 606.967 850.762 606.574C849.758 605.57 855.741 584.828 857.591 582.82C858.516 581.817 862.747 582.132 867.746 583.372C877.192 585.753 879.967 584.198 879.042 577.133C878.668 574.141 875.972 572.902 863.908 570.442C855.898 568.749 849.07 567.608 848.833 567.824C848.519 568.06 845.606 578.373 842.221 590.673C836.14 613.029 836.14 613.029 839.997 614.505C842.064 615.351 850.29 618.264 858.142 621.098C874.358 626.805 874.358 626.864 866.821 644.32C863.121 653.077 863.121 653.077 856.213 650.086C844.445 645.008 843.913 645.087 841.532 651.405C840.292 654.711 839.446 657.466 839.761 657.702C839.919 657.938 846.452 660.93 854.206 664.472L868.199 670.927L875.5 653.235C894.038 608.581 904.409 563.829 907.952 513.567L909.172 495.717H855.682V505.479C855.682 510.871 855.21 521.478 854.521 529.015L853.36 542.693L872.351 545.232C889.728 547.613 891.421 548.144 891.952 551.923C892.425 554.914 891.657 556.075 889.197 555.996C882.958 555.839 846.61 549.384 845.449 548.302C844.839 547.692 845.291 538.855 846.373 528.701C847.456 518.487 848.361 505.341 848.361 499.417C848.361 493.493 849.286 488.042 850.369 487.432C851.451 486.724 866.742 486.802 884.415 487.491L916.631 488.809L915.489 511.029C913.718 548.46 905.787 590.811 893.959 626.726C888.508 643.395 873.118 679.232 871.131 679.842C870.206 680.078 860.819 676.221 850.29 671.143V671.222ZM133.215 669.687C133.215 668.073 138.745 665.239 139.828 666.302C140.123 666.617 138.746 667.837 136.817 669.077C134.829 670.297 133.215 670.612 133.215 669.687ZM145.043 650.401C142.583 644.792 138.51 635.72 136.05 630.17C133.59 624.64 130.52 620.114 129.28 620.114C127.981 620.114 115.228 623.951 100.842 628.635C86.4761 633.338 74.3139 636.861 73.9399 636.408C72.4836 634.952 61.8763 596.891 58.1765 580.203C54.2602 562.137 49.1041 524.627 49.1041 514.177C49.1041 507.249 49.104 507.25 71.4013 506.109C83.7012 505.479 94.151 505.419 94.702 506.029C95.3121 506.561 96.1586 512.721 96.6113 519.628C97.5362 531.849 97.4574 532.322 93.4624 532.322C90.1562 532.322 89.31 531.318 89.31 527.323C89.2313 514.866 88.2275 514.019 74.0186 514.019C66.8748 514.098 59.9478 514.708 58.708 515.476C54.4178 518.251 63.7065 577.448 73.8613 611.258C76.3212 619.484 78.545 626.411 78.8599 626.726C79.1748 627.021 90.845 623.557 104.916 619.11C118.987 614.564 131.602 610.726 132.979 610.49C134.593 610.195 139.119 618.027 145.515 632.02C156.812 656.856 157.343 659.001 152.817 660.004C150.435 660.457 148.428 658.076 145.043 650.48V650.401ZM82.855 599.43C80.1588 588.586 80.08 586.363 82.2448 584.985C83.6224 584.139 85.315 583.372 86.0038 583.372C87.3223 583.372 91.0811 595.199 91.1598 599.351C91.1598 600.591 92.0059 601.654 93.0096 601.654C95.2334 601.654 120.68 594.668 121.526 593.822C121.821 593.507 119.991 583.371 117.295 571.209L112.453 549.227L95.8437 551.608C70.319 555.229 72.7787 556.843 70.0235 534.388C68.9412 525.552 69.1777 524.784 72.6217 524.784C76.2427 524.784 76.9312 526.555 78.9386 541.315C79.3912 544.385 82.6187 544.465 104.306 542.241C118.141 540.765 118.377 540.843 119.361 545.153C120.601 550.84 129.673 590.437 130.834 595.593C131.818 599.883 132.586 599.588 99.0712 608.739L86.0038 612.261L82.855 599.43ZM99.2286 581.738C97.3787 570.599 96.6113 570.068 86.6927 572.528C77.8564 574.752 74.7862 573.532 74.7075 567.765C74.7075 565.679 99.5433 560.759 102.003 562.215C102.85 562.766 104.463 568.218 105.684 574.437C107.455 583.667 107.455 585.969 105.448 587.209C101.315 589.905 100.39 589.059 99.2286 581.738ZM870.816 534.467C866.29 533.935 864.814 532.853 864.814 529.941C864.814 526.477 865.739 526.241 875.657 527.008C886.422 527.776 886.501 527.697 887.583 522.403C888.114 519.471 888.646 516.322 888.646 515.397C888.646 514.551 883.647 513.862 877.664 513.862C867.903 513.862 866.664 513.489 866.664 510.182C866.664 506.797 867.903 506.482 881.266 506.482H895.947V517.011C895.888 534.467 895.042 535.844 885.202 535.47C880.577 535.313 874.043 534.86 870.816 534.467ZM108.616 520.711C108.065 515.397 107.376 507.407 107.14 502.881L106.687 494.734L76.9314 495.264C48.3366 495.875 47.2543 495.718 47.2543 492.274C47.2543 488.81 48.9467 488.574 79.3914 487.275C97.3788 486.507 112.139 486.645 112.985 487.57C113.831 488.416 114.992 498.413 115.602 509.71C116.763 529.311 116.606 530.314 113.221 530.314C110.308 530.314 109.521 528.622 108.616 520.711ZM78.3284 476.273C64.7886 474.975 52.6466 473.892 51.3281 473.735C42.6493 473.125 63.7854 352.901 72.7003 352.901C76.9315 352.901 114.913 365.811 114.835 367.188C114.835 367.877 113.3 373.801 111.45 380.334C107.77 393.48 105.998 394.72 95.4696 391.178C88.1683 388.797 85.2362 390.784 86.0825 397.554C86.4761 400.408 89.9198 401.864 104.542 405.17C114.441 407.394 122.746 409.539 123.061 409.854C123.297 410.248 121.821 421.839 119.833 435.773C116.074 461.14 116.074 461.14 108.616 460.057C104.542 459.526 94.9185 458.523 87.2434 457.834C79.5486 457.204 72.2477 456.063 71.0079 455.295C68.3314 453.681 72.2477 418.69 75.1603 418.69C76.164 418.69 82.2449 419.694 88.6211 420.856C100.154 423.001 100.311 423.079 100.311 428.924C100.311 437.603 98.7757 440.456 94.702 439.374C92.4585 438.764 91.1598 436.835 91.1598 434.08C91.1598 430.991 89.8411 429.455 86.4759 428.609C80.3161 427.074 79.8636 427.842 79.5488 439.216L79.2341 448.899L93.5411 450.454C101.452 451.3 108.301 451.595 108.694 451.143C109.6 450.297 114.913 416.309 114.303 415.62C114.067 415.384 105.684 413.475 95.6077 411.31C85.63 409.165 77.0885 407.079 76.7146 406.784C75.2386 405.328 81.0836 381.712 83.091 380.945C84.2324 380.492 88.6997 381.023 92.9309 382.184C101.767 384.487 101.689 384.566 103.834 377.028C105.448 371.341 105.448 371.341 90.8451 366.499C82.8551 363.803 75.8687 362.032 75.3963 362.504C70.9487 367.031 53.8664 462.517 56.9561 465.666C57.5662 466.276 70.7126 467.811 86.0038 469.13C101.374 470.428 114.225 471.511 114.441 471.59C114.756 471.747 114.913 473.44 114.913 475.427C114.913 479.737 114.677 479.737 78.3284 476.273ZM849.444 476.962C848.991 475.585 848.145 467.753 847.456 459.448C846.452 446.518 846.748 444.137 849.208 443.212C853.439 441.598 853.596 442.149 855.052 457.066L856.292 470.429L886.186 469.13C915.253 467.811 916.099 467.89 916.099 471.432C916.099 474.817 914.407 475.191 896.419 476.195C885.576 476.805 870.737 477.809 863.436 478.36C853.281 479.206 850.054 478.812 849.444 476.962ZM866.664 452.756C866.664 449.292 866.211 445.14 865.581 443.605C864.735 441.381 865.581 440.693 869.202 440.693C873.276 440.693 873.965 441.46 873.965 445.908C873.965 451.142 874.201 451.221 882.663 450.454C905.728 448.368 907.027 448.073 906.102 443.763C905.571 441.519 903.957 431.384 902.422 421.15C898.722 397.102 884.887 343.75 882.27 343.75C881.955 343.75 870.363 347.824 856.449 352.901C842.536 357.88 830.236 362.032 829.075 362.032C827.835 362.032 824.686 356.974 822.01 350.736C818.152 341.9 817.621 339.125 819.471 337.984C823.624 335.366 824.608 336.212 828.386 344.812C831.22 351.504 832.617 352.96 835.156 351.976C843.441 348.67 884.808 334.598 886.265 334.598C888.508 334.598 900.336 372.344 905.787 396.787C910.648 418.474 915.41 452.993 913.797 454.606C912.183 456.141 889.335 458.818 877.192 458.896C866.664 458.975 866.664 458.975 866.664 452.756ZM886.186 437.603C885.497 436.993 884.966 434.454 884.966 432.151C884.966 426.995 883.962 426.917 862.354 430.695C853.439 432.309 845.764 433.155 845.291 432.683C844.76 432.151 842.457 422.626 840.076 411.31C837.675 400.014 834.388 386.711 832.696 381.791C831.082 376.792 830 372.502 830.374 372.187C830.689 371.951 839.919 369.038 850.821 365.81C861.665 362.583 871.741 359.572 873.119 359.041C874.89 358.352 876.425 360.969 878.353 367.798C884.198 388.324 884.277 387.262 876.425 388.56C863.967 390.706 863.436 391.02 864.44 396.098C865.581 402.1 868.198 403.006 877.664 400.487C886.186 398.165 886.186 398.086 887.111 403.084C887.662 406.095 885.969 407.02 876.739 408.929C859.815 412.55 860.208 412.708 857.67 400.939C856.45 395.094 855.052 389.092 854.6 387.478C853.99 385.254 856.135 384.035 863.908 382.342C869.438 381.102 873.965 379.803 873.965 379.567C873.965 379.252 873.118 376.576 872.056 373.486C870.127 368.035 870.127 368.034 855.052 372.797L839.997 377.56L845.291 400.408C848.302 413.003 850.9 423.61 851.215 423.925C851.608 424.299 859.598 423.315 869.045 421.702C878.59 420.088 887.189 418.69 888.272 418.69C889.728 418.69 894.117 433.234 894.117 437.996C894.117 439.295 887.583 439 886.186 437.603ZM119.833 397.318C119.361 396.551 121.29 388.029 124.064 378.484C126.82 368.959 128.591 360.576 127.981 359.966C126.524 358.509 79.3911 341.9 76.7146 341.9C74.3924 341.9 73.94 335.288 76.2426 333.91C77.6201 332.985 135.754 352.96 137.742 354.967C139.749 356.974 126.367 397.712 123.592 398.243C122.057 398.558 120.365 398.164 119.912 397.318H119.833ZM113.536 333.064C98.2247 326.215 85.1575 320.075 84.5474 319.445C83.1698 318.067 94.0724 294.314 96.0798 294.392C101.157 294.471 101.767 297.463 98.3037 305.236C96.316 309.605 94.9187 313.993 95.2335 314.84C95.8436 316.69 134.357 334.598 137.663 334.598C138.903 334.598 141.206 331.745 142.898 328.222C144.964 323.834 146.814 322.22 148.743 322.909C150.278 323.519 151.498 324.916 151.498 325.979C151.498 328.754 143.744 345.58 142.505 345.521C141.895 345.521 128.906 339.893 113.536 333.064ZM836.691 335.366C835.687 332.748 849.148 325.29 867.824 318.067C870.816 316.906 871.505 315.45 870.816 311.849C869.36 304.075 876.346 305.61 879.278 313.679C880.577 317.3 881.344 320.528 881.049 320.843C879.573 322.141 841.296 338.279 839.604 338.279C838.6 338.279 837.301 336.98 836.691 335.366ZM120.837 315.686C109.993 310.313 107.14 306.929 111.292 304.39C113.674 302.934 135.046 314.683 135.046 317.536C135.046 321.689 132.291 321.373 120.837 315.686ZM721.603 221.676C717.982 218.901 714.991 215.358 714.912 213.902C714.912 212.367 716.919 198.06 719.458 182.158C721.997 166.237 723.985 152.402 723.985 151.477C723.985 150.553 718.533 156.949 711.763 165.785C687.164 198.218 689.623 196.072 682.637 190.68C679.252 188.141 676.478 185.228 676.478 184.225C676.478 182.395 725.52 120.58 726.976 120.58C727.527 120.58 731.522 123.651 735.989 127.35C743.664 133.727 743.979 134.494 742.976 141.48C740.201 161.081 735.064 191.526 733.903 194.754C733.136 196.682 740.122 188.456 749.352 176.392C758.582 164.328 766.729 154.252 767.418 154.016C768.186 153.78 771.492 155.866 774.877 158.621L780.879 163.62L773.027 173.932C746.046 209.218 731.974 226.596 730.223 226.674C729.141 226.674 725.303 224.431 721.603 221.676ZM214.769 192.156C202.095 175.231 191.704 160.472 191.704 159.33C191.704 157.008 209.927 141.48 219.315 135.793C222.759 133.648 228.151 131.424 231.221 130.794C238.227 129.259 247.359 132.408 245.528 135.655C244.82 136.954 244.899 137.328 245.666 136.639C250.665 132.113 254.365 147.719 250.134 155.551C248.284 159.015 248.599 159.172 254.739 158.011C274.281 154.331 285.419 175.546 273.434 193.691C268.652 200.835 254.286 213.292 243.285 219.825C237.834 222.974 237.834 222.975 214.769 192.235V192.156ZM259.049 187.61C263.732 178.085 254.601 169.859 244.367 174.385C231.221 180.309 230.847 181.391 238.601 191.762C245.529 200.992 245.528 200.992 251.058 196.682C254.129 194.379 257.75 190.306 259.049 187.61ZM230.985 166.159C245.371 153.485 232.52 141.264 217.701 153.485C213.549 157.008 213.549 157.008 218.469 164.388C221.145 168.461 223.605 171.768 223.92 171.768C224.314 171.768 227.463 169.248 230.985 166.159ZM297.798 171.846C297.739 167.261 292.878 107.139 291.639 96.6691C290.95 90.2928 291.186 90.0565 301.714 85.3727L312.558 80.6108L340.838 111.823C356.444 129.043 369.137 143.566 369.137 144.255C369.137 144.944 365.3 147.325 360.597 149.628C351.997 153.78 351.996 153.78 344.459 145.18L336.922 136.482L325.625 141.638C314.25 146.715 314.251 146.715 315.392 158.09C316.553 169.386 316.553 169.387 309.016 172.398C299.314 176.294 297.818 176.235 297.798 171.925V171.846ZM319.781 128.57C323.933 126.956 327.003 124.969 326.708 124.123C326.078 122.43 308.091 100.507 307.795 101.058C307.244 101.747 311.18 131.562 311.79 131.562C312.086 131.562 315.707 130.184 319.781 128.57Z" fill="#DBA651"/>
</svg>
