<svg width="958" height="823" viewBox="0 0 958 823" fill="none" xmlns="http://www.w3.org/2000/svg">
<path fill-rule="evenodd" clip-rule="evenodd" d="M435.86 821.317C347.489 814.035 258.789 785.082 192.542 742.068C181.43 734.886 171.88 727.024 171.275 724.555C170.594 722.085 168.629 720.523 166.941 721.203C163.111 722.69 159.86 718.154 163.312 716.088C168.024 713.14 165.58 708.125 158.196 705.454C148.747 702.204 149.428 702.102 148.344 707.041C146.882 713.442 88.9002 654.074 69.1193 626.028C34.068 576.311 1.08334 491.871 5.61908 463.522C6.40024 459.188 5.92138 455.535 4.73704 455.535C3.45191 455.535 2.46926 453.771 2.46926 451.603C2.46926 448.655 3.14957 448.353 5.71982 450.52C10.2556 454.249 15.7486 448.151 11.5404 444.019C10.0537 442.457 9.55025 440.39 10.533 439.483C13.1033 436.837 16.757 443.717 16.8326 451.1C16.8326 462.54 25.7022 501.9 33.2869 524.452C89.2026 691.393 273.052 808.516 478.874 808.516C648.385 808.516 805.775 728.687 886.789 601.711C894.273 589.994 896.238 588.432 901.555 589.414C909.241 590.876 909.241 590.297 900.069 606.525C889.334 625.323 873.988 645.406 871.443 643.843C870.258 643.138 869.276 644.524 869.276 646.993C869.276 652.89 843.17 681.238 818.475 702.103C753.891 756.633 681.95 791.583 594.334 810.885C582.44 813.43 568.758 815.597 563.919 815.698C559.006 815.698 552.504 816.681 549.455 817.764C546.406 818.949 533.907 820.611 521.611 821.519C502.611 822.879 499.361 822.603 499.94 819.528C500.444 817.664 499.663 816 498.277 816C496.992 816 496.21 817.562 496.613 819.452C497.395 823.484 488.626 824.265 486.257 820.435C485.375 819.049 482.629 818.545 480.058 819.452C476.909 820.435 475.547 819.73 475.547 817.084C475.547 814.715 473.381 813.329 469.525 813.329C462.949 813.329 461.865 815.597 466.376 820.032C469.324 822.98 460.378 823.383 435.86 821.317ZM363.313 803.502C361.953 802.015 358.702 801.335 356.333 801.914C352.402 802.796 352.604 803.3 357.82 805.467C364.598 808.315 367.169 807.332 363.313 803.502ZM858.44 652.411C859.322 651.126 858.239 650.042 856.072 650.042C853.905 650.042 852.821 651.126 853.703 652.411C854.51 653.772 855.593 654.856 856.072 654.856C856.576 654.856 857.659 653.772 858.44 652.411ZM446.695 799.747C392.745 794.43 361.549 789.038 327.203 778.681C169.032 731.157 56.1171 616.075 28.6506 474.333C22.855 444.321 22.4517 386.642 27.7686 355.622C45.3824 252.661 112.033 157.889 209.073 97.5383C259.974 65.8385 336.149 36.8095 386.647 29.7287C391.284 29.0231 403.681 27.1584 414.214 25.4953C443.243 20.758 518.94 21.4635 552.303 26.5788C608.42 35.2219 655.466 49.6105 702.411 72.5412C779.292 110.137 839.138 162.223 879.985 227.185C905.688 268.132 932.348 342.242 928.518 361.821C927.636 366.256 928.215 369.103 930.004 369.708C935.422 371.472 933.532 452.385 927.535 479.549C918.186 521.58 898.405 571.196 890.341 572.783C887.091 573.363 888.25 569.231 896.037 551.113C918.967 498.549 925.67 466.95 925.469 411.135C925.267 375.706 924.486 366.659 918.867 342.645C902.841 273.349 873.887 220.684 822.608 167.716C708.131 49.4091 525.441 1.75843 352.503 45.0748C252.086 70.1726 161.347 127.071 105.028 200.298C38.2011 287.133 15.3706 391.959 40.8716 494.416C62.9204 583.216 125.993 665.288 214.188 720.12C324.734 788.836 472.473 810.482 605.472 777.32C716.295 749.753 809.807 686.958 868.369 600.628C881.775 581.049 884.521 578.277 886.99 582.309C889.334 586.164 856.576 631.143 834.224 654.578C756.361 736.574 654.584 784.704 531.841 797.681C501.023 800.932 467.661 801.814 446.695 799.747ZM437.649 782.814C433.415 782.234 429.863 780.848 429.863 779.765C429.863 778.681 434.776 772.684 440.799 766.485C453.196 753.684 453.398 749.652 441.681 749.652C431.45 749.652 430.543 743.857 440.295 740.606C449.366 737.632 458.11 741.69 460.076 749.753C461.361 754.566 459.975 758.119 454.179 765.301C446.695 774.549 446.695 774.548 453.297 775.355C457.228 775.833 460.176 777.799 460.68 780.269C461.461 784.704 456.926 785.183 437.649 782.814ZM474.162 781.05C467.459 776.136 472.675 770.819 480.159 774.851C484.191 777.018 486.257 776.917 488.928 774.75C493.262 771.222 489.231 765.301 482.427 765.301C479.957 765.301 477.891 763.738 477.891 761.672C477.891 759.681 479.957 758.119 482.528 758.119C488.424 758.119 491.297 753.684 487.744 750.156C485.677 748.09 483.813 748.166 480.461 750.232C476.808 752.5 475.346 752.324 472.877 749.35C468.744 744.436 473.658 741.387 485.778 741.286C496.513 741.286 502.813 749.955 497.092 756.834C494.623 759.984 494.724 761.369 497.975 764.922C503.09 770.617 502.913 773.868 497.092 779.664C491.473 785.283 480.764 785.964 474.162 781.05ZM407.612 780.269C404.765 779.664 403.782 777.698 404.463 774.17C405.067 771.298 406.151 764.318 406.932 758.699C408.217 749.35 407.915 748.569 403.178 749.173C394.434 750.156 395.215 743.857 404.362 740.102C418.347 734.206 418.649 734.483 416.684 754.969C414.617 777.22 413.131 781.352 407.612 780.269ZM528.994 777.018C527.809 772.684 526.424 772.205 518.36 773.465C506.743 775.355 506.441 772.784 516.394 753.205C522.291 741.488 524.66 738.918 529.574 738.918C535.092 738.918 535.47 739.724 535.47 750.937C535.47 759.984 536.377 762.932 539.124 762.932C541.089 762.932 542.777 764.52 542.777 766.485C542.777 768.451 541.694 770.139 540.308 770.139C539.023 770.139 537.94 772.785 537.94 776.136C537.94 783.62 530.858 784.3 528.994 777.018ZM528.188 763.537C528.112 762.554 527.205 759.681 526.222 757.237C524.66 753.306 524.156 753.483 521.711 759.102C519.141 764.62 519.343 765.301 523.576 765.301C526.222 765.301 528.188 764.519 528.188 763.537ZM555.074 775.153C550.337 772.205 554.293 767.065 559.988 768.551C566.893 770.315 571.504 767.871 571.504 762.554C571.504 756.733 566.086 754.566 559.787 757.918C553.588 761.269 549.254 754.39 550.337 743.051C551.144 736.071 552.026 735.289 561.853 733.601C572.688 731.736 578.207 733.904 575.258 738.716C574.351 740.102 570.521 741.286 566.59 741.286C561.374 741.286 559.509 742.471 559.509 745.721C559.509 749.173 560.971 749.854 566.389 749.073C574.956 747.787 581.155 753.684 581.155 762.932C581.155 774.07 565.103 781.554 555.074 775.153ZM360.264 772.104C355.653 770.718 351.52 769.433 351.218 769.055C350.336 768.148 359.684 728.99 361.171 727.604C361.751 727.024 368.353 727.805 375.736 729.468C385.866 731.736 389.015 733.424 388.436 736.272C387.629 740.203 384.102 740.606 373.569 737.935C368.63 736.65 367.471 737.255 367.471 740.984C367.471 744.033 369.713 745.923 374.652 746.906C379.667 747.989 381.834 749.753 381.834 753.004C381.834 757.035 380.75 757.338 373.569 755.751C367.269 754.289 365.001 754.667 364.019 757.439C362.154 762.251 364.397 765.301 369.815 765.301C376.82 765.301 381.834 767.972 381.834 771.6C381.834 775.431 372.763 775.632 360.264 772.104ZM595.317 763.033C581.735 749.451 588.437 724.454 605.774 724.454C609.201 724.454 612.654 725.336 613.233 726.419C615.224 729.569 610.688 734.886 607.739 733.021C604.287 730.854 597.988 735.869 597.988 740.707C597.988 743.554 598.668 743.756 601.54 741.286C609.1 734.987 622.002 744.235 622.002 755.952C622.002 759.782 610.486 770.139 606.253 770.139C604.086 770.139 599.273 766.989 595.317 763.033ZM611.167 754.466C611.167 751.316 609.302 749.451 605.774 748.972C601.818 748.367 600.356 749.35 600.356 752.701C600.356 755.272 601.138 758.018 602.02 759.001C605.27 762.151 611.167 759.203 611.167 754.466ZM315.385 759.682C311.152 758.22 307.12 756.255 306.44 755.549C305.734 754.768 307.901 745.217 311.253 734.306C317.351 714.324 317.351 714.324 324.633 715.786C338.921 718.658 344.615 722.791 345.422 731.156C345.901 736.07 344.918 739.422 342.852 740.203C340.685 740.984 339.904 743.932 340.483 748.569C342.449 761.849 332.722 766.082 315.385 759.682ZM331.437 748.468C331.437 745.822 330.454 743.655 329.27 743.655C327.985 743.655 325.44 743.05 323.55 742.37C319.821 740.883 316.066 747.384 318.334 751.139C319.14 752.323 322.366 753.306 325.515 753.306C329.85 753.306 331.437 752.021 331.437 748.468ZM335.67 732.341C337.031 727.906 326.422 723.27 323.953 727.201C320.904 732.039 321.282 733.601 326.019 734.785C331.638 736.272 334.587 735.491 335.67 732.341ZM639.918 741.488C641.682 721.984 641.682 721.984 635.282 724.454C626.336 727.805 622.002 727.503 622.002 723.37C622.002 719.742 647.099 710.468 649.871 713.14C650.652 714.021 650.653 723.874 649.67 735.188C648.183 752.323 647.1 756.154 643.068 758.321C638.356 760.866 638.255 760.488 639.918 741.488ZM445.511 724.353C318.636 717.675 199.925 655.46 138.113 563.334C87.716 488.318 82.8023 389.59 125.514 311.827C180.245 212.015 300.518 140.955 434.777 129.037C477.312 125.307 491.675 125.685 493.061 130.801C494.144 134.757 494.144 134.757 494.446 130.801C494.724 126.189 498.957 126.289 542.173 131.808C563.037 134.454 574.452 140.25 565.305 143.501C562.836 144.307 554.873 144.786 547.59 144.483C540.308 144.206 515.992 143.122 493.54 142.14C399.146 138.007 308.884 163.004 234.372 213.78C208.594 231.318 168.427 270.4 153.862 291.945C64.4829 424.742 119.013 586.845 279.755 666.371C355.451 703.791 445.41 719.137 530.657 709.108C555.755 706.134 558.527 706.134 561.273 709.788C563.919 713.341 564.423 713.14 565.809 708.302C566.691 705.253 569.135 702.909 571.605 702.909C573.973 702.909 577.602 702.203 579.669 701.422C582.239 700.44 583.801 701.926 584.885 706.336C585.792 709.889 585.968 713.24 585.288 713.921C582.642 716.592 526.021 724.051 501.906 725.034C488.046 725.538 462.646 725.235 445.511 724.353ZM419.33 701.523C303.97 685.875 205.142 628.775 154.644 548.644C93.915 452.587 109.261 339.772 194.23 256.214C250.423 201.004 327.304 164.97 416.583 151.766C445.133 147.633 491.675 147.255 496.513 151.186C498.579 152.849 499.461 152.774 499.461 150.884C499.461 142.82 573.192 155.117 621.321 171.169C739.326 210.629 819.66 293.432 837.173 393.924C852.821 483.782 802.524 581.225 709.617 640.996C670.232 666.371 606.858 691.973 610.486 680.936C610.99 679.475 621.221 674.737 633.216 670.428C708.811 643.44 772.891 591.179 805.372 529.946C854.409 437.417 835.988 336.925 755.68 259.364C609.302 118.125 336.955 121.074 195.112 265.462C163.79 297.363 140.381 338.109 130.428 377.873C124.733 400.803 124.834 453.468 130.529 474.736C158.096 577.294 248.256 655.057 375.837 686.253C431.727 699.936 510.196 701.322 566.288 689.705C579.769 686.958 581.357 686.959 580.651 690.386C578.409 702.002 475.145 709.209 419.33 701.523ZM630.267 696.508C625.051 691.191 626.739 688.42 637.65 684.187C729.398 649.161 798.593 588.331 828.328 516.666C832.637 506.133 837.853 496.684 839.844 495.5C842.011 494.214 842.49 492.853 841.003 491.871C839.441 490.888 839.743 485.067 842.011 474.736C856.071 409.068 840.726 342.746 797.913 284.562C754.496 225.597 679.102 177.972 593.754 155.52C582.339 152.471 580.374 147.154 589.118 143.122C593.553 141.157 600.457 142.518 624.749 150.405C680.665 168.598 734.211 199.618 773.194 236.332C792.874 254.828 794.461 256.995 791.009 260.447C787.557 263.899 787.658 264.479 792.874 267.327C795.923 269.116 800.156 270.476 802.146 270.577C806.859 270.678 827.925 302.378 839.239 326.09C854.308 357.89 860.305 386.641 860.305 426.707C860.305 456.416 859.423 464.984 854.207 484.765C830.293 575.228 751.548 656.04 650.048 694.241C635.584 699.658 633.719 699.835 630.267 696.508ZM391.485 671.688V633.21H404.664C414.794 633.21 417.868 634.092 417.868 636.839C417.868 639.308 415.298 640.391 409.477 640.391C403.581 640.391 401.035 641.475 401.035 644.045C401.035 646.388 403.479 647.674 408.318 647.674C413.03 647.674 415.499 648.858 415.499 651.227C415.499 653.671 413.03 654.856 408.318 654.856C402.698 654.856 401.035 655.939 401.035 659.693C401.035 663.523 402.699 664.406 409.477 664.406C415.298 664.406 417.868 665.489 417.868 668.059C417.868 670.806 414.794 671.688 404.664 671.688H391.485ZM427.494 652.411C427.494 628.397 431.828 626.608 443.646 645.809L451.332 658.408L451.432 645.809C451.432 636.259 452.315 633.21 455.061 633.21C458.009 633.21 458.715 636.939 458.715 652.411C458.715 676.224 454.078 678.491 443.545 659.693C439.816 652.99 436.263 647.674 435.482 647.674C434.776 647.674 434.499 651.705 434.777 656.644C435.583 669.621 435.079 671.688 431.047 671.688C428.199 671.688 427.494 667.958 427.494 652.411ZM477.891 656.04C477.891 640.996 477.715 640.391 471.894 640.391C468.164 640.391 465.896 639.106 465.896 636.839C465.896 633.991 469.248 633.21 481.545 633.21C493.464 633.21 497.092 633.991 497.092 636.662C497.092 638.526 494.623 640.492 491.675 640.895C485.879 641.676 485.879 641.777 485.375 659.693C485.174 668.538 484.191 671.688 481.545 671.688C478.697 671.688 477.891 668.337 477.891 656.04ZM504.274 652.411V633.21H516.294C526.323 633.21 528.792 634.193 532.144 639.207C535.772 644.826 535.772 645.708 532.144 651.227C528.591 656.745 528.49 657.904 531.942 664.406C535.47 671.31 535.394 671.688 530.859 671.688C527.91 671.688 524.559 668.841 522.291 664.406C520.225 660.475 517.579 657.224 516.294 657.224C515.009 657.224 513.925 660.475 513.925 664.406C513.925 670.025 512.841 671.688 509.112 671.688C504.677 671.688 504.274 670.025 504.274 652.411ZM524.76 645.229C524.76 643.238 522.291 641.273 519.343 640.895C515.21 640.29 513.925 641.273 513.925 645.229C513.925 649.16 515.21 650.244 519.343 649.639C522.291 649.161 524.76 647.195 524.76 645.229ZM549.959 663.524C549.959 659.089 547.086 650.446 543.76 644.323C537.637 633.512 537.637 633.21 542.475 633.21C545.625 633.21 548.876 636.057 551.421 640.996L555.453 648.757L559.106 640.996C561.273 636.46 564.625 633.21 567.17 633.21C572.688 633.21 572.688 633.109 565.607 645.608C562.256 651.328 559.61 659.593 559.61 663.826C559.509 670.025 558.527 671.688 554.772 671.688C550.942 671.688 549.959 670.025 549.959 663.524ZM906.973 576.211C903.521 572.784 903.622 571.599 907.552 563.813C927.233 525.234 938.849 479.75 940.437 435.174C941.117 416.653 942.301 399.921 943.083 397.956C943.889 395.889 944.368 393.621 944.166 392.84C944.065 392.059 946.535 391.959 949.785 392.538C955.682 393.622 958.151 397.956 952.935 397.956C951.247 397.956 951.851 399.72 954.22 402.391C957.949 406.523 957.95 407.304 954.699 410.555C951.65 413.705 951.549 414.486 954.397 415.57C957.068 416.552 957.471 420.887 956.564 435.552C954.22 471.687 946.736 505.831 933.734 539.899C927.535 556.127 926.149 558.093 921.638 556.933C917.002 555.749 916.599 556.329 917.884 564.115C919.673 575.026 912.97 582.309 906.872 576.211H906.973ZM310.27 532.995C310.95 526.696 311.757 526.318 324.633 525.612C340.181 524.831 337.132 529.845 354.468 476.399C362.935 450.52 362.935 450.52 358.021 440.289C352.099 428.068 351.898 424.44 356.535 413.503C358.702 408.186 363.036 403.751 368.353 401.206C376.517 397.275 376.819 396.57 380.75 374.622C384.581 353.657 384.581 351.792 380.851 347.659C373.367 339.394 373.367 327.778 380.851 318.807C387.352 311.248 388.134 310.945 401.111 312.129C414.013 313.314 415.777 312.709 434.777 301.798C453.776 290.862 454.96 289.677 455.263 281.815C455.842 263.496 472.977 250.897 489.23 256.717C499.562 260.447 504.879 267.931 506.643 281.11C507.827 290.66 508.608 291.441 528.011 302.277C546.708 312.709 549.077 313.414 560.77 312.129C572.21 310.945 574.175 311.525 579.769 317.043C587.253 324.628 588.034 338.613 581.457 347.256C577.904 351.792 577.426 354.74 578.988 361.644C580.072 366.356 582.138 376.411 583.624 383.87C585.867 395.688 587.152 397.855 593.553 400.526C608.823 406.825 613.939 425.019 604.968 440.97C599.953 449.94 599.953 449.94 609.906 480.935C625.252 528.585 622.884 524.831 637.272 525.612C648.687 526.318 649.67 526.796 650.35 532.995C651.132 539.597 651.132 539.597 480.26 539.597C309.489 539.597 309.489 539.597 310.27 532.995ZM431.047 527.602C431.929 526.216 439.514 525.133 447.98 525.133H463.326L457.329 516.263C452.592 509.384 451.433 504.949 452.012 496.482C452.693 485.571 452.693 485.571 426.713 468.033C404.462 452.99 399.649 450.621 393.652 452.006C389.116 452.989 386.269 455.333 385.463 458.684C376.114 498.851 370.621 524.05 370.999 524.528C371.2 524.932 383.497 525.334 398.264 525.435C413.03 525.612 425.049 526.695 425.049 527.88C425.049 530.752 429.283 530.55 431.047 527.602ZM590.705 521C590.504 510.266 576.619 454.753 573.671 452.888C567.271 448.857 562.155 450.923 536.075 468.033C509.692 485.37 509.692 485.369 510.876 493.937C511.859 501.32 509.389 509.787 502.409 523.369C501.905 524.352 521.611 525.133 546.104 525.133C587.052 525.133 590.705 524.831 590.705 521ZM354.065 521.303C358.903 519.513 358.903 514.701 354.166 510.77C349.832 507.116 349.454 507.519 347.287 516.163C345.699 522.865 347.186 523.948 354.065 521.303ZM617.189 521.681C617.189 521.202 616.105 517.851 614.72 514.298C612.653 508.981 611.67 508.401 608.722 510.77C602.322 516.162 604.967 521.983 614.14 522.563C615.803 522.664 617.189 522.286 617.189 521.681ZM362.154 499.934C360.087 497.767 354.947 503.286 356.635 506.032C358.021 508.2 359.08 507.998 360.768 504.848C362.053 502.681 362.632 500.413 362.154 499.934ZM605.169 501.219C600.734 498.447 599.853 499.33 601.818 504.546C603.002 507.62 604.086 507.998 606.051 506.032C608.017 504.067 607.74 502.782 605.169 501.219ZM362.154 491.165C360.768 487.134 356.938 488.519 355.048 493.836C353.385 498.347 353.687 498.549 358.021 496.281C360.768 494.819 362.532 492.551 362.154 491.165ZM608.218 493.937C606.656 487.814 603.607 485.848 601.339 489.502C600.356 491.064 601.541 493.736 604.086 495.5C609.705 499.632 609.705 499.632 608.218 493.937ZM504.274 491.367C504.274 485.067 490.213 474.736 481.545 474.736C475.044 474.736 470.911 476.601 465.695 481.817C454.658 492.753 456.245 493.937 481.545 493.937C496.21 493.937 504.274 493.03 504.274 491.367ZM367.471 481.716C367.471 480.355 366.387 479.952 365.001 480.733C363.716 481.514 362.633 483.304 362.633 484.664C362.633 485.949 363.716 486.352 365.001 485.571C366.387 484.765 367.471 483.001 367.471 481.716ZM459.496 474.736C451.911 467.756 405.647 439.584 404.563 441.373C402.9 443.918 456.548 479.649 459.496 477.886C460.58 477.205 460.58 475.819 459.496 474.736ZM546.91 452.486C558.703 445.203 562.357 441.171 557.241 441.171C552.806 441.171 501.905 475.215 503.291 477.382C503.972 478.566 511.279 475.139 519.443 469.898C527.608 464.606 540.005 456.719 546.91 452.486ZM366.286 474.736C367.068 473.451 366.967 471.183 366.085 469.721C364.497 467.05 360.365 471.082 360.264 475.316C360.264 477.987 364.497 477.583 366.286 474.736ZM601.037 472.166C600.155 468.915 598.869 468.033 597.408 469.62C594.838 472.065 596.904 477.205 600.255 477.205C601.44 477.205 601.717 474.938 601.037 472.166ZM470.609 439.306C470.508 410.555 470.231 408.489 465.191 404.936C460.177 401.307 458.513 401.685 435.28 412.142C401.917 426.984 402.018 428.37 437.649 451.805C452.516 461.632 466.098 469.721 467.661 469.822C469.928 469.897 470.71 462.338 470.609 439.306ZM525.34 451.301C561.475 427.589 561.576 426.606 527.406 411.739C502.813 401.005 502.813 401.005 496.891 406.12C491.196 411.059 490.994 411.84 491.876 440.567C492.38 456.719 493.64 469.898 494.825 469.898C496.009 469.898 509.793 461.532 525.34 451.301ZM485.073 438.702C485.073 414.688 484.493 409.975 481.545 409.975C478.496 409.975 477.891 414.688 477.891 438.702C477.891 462.716 478.496 467.554 481.545 467.554C484.493 467.554 485.073 462.716 485.073 438.702ZM372.284 455.434C372.284 451.1 367.95 451.1 366.765 455.434C365.984 458.584 366.564 459.566 368.932 458.684C370.696 458.004 372.284 456.517 372.284 455.434ZM596.4 456.719C595.619 454.753 594.157 453.166 592.973 453.166C591.889 453.166 591.487 454.753 592.268 456.719C592.973 458.684 594.536 460.372 595.72 460.372C596.803 460.372 597.207 458.684 596.4 456.719ZM402.018 418.921C396.802 409.673 390.2 405.137 381.834 405.137C375.837 405.137 371.603 406.826 368.252 410.555C358.198 421.668 358.5 421.97 381.834 421.97C398.667 421.97 403.379 421.189 402.018 418.921ZM599.273 414.99C593.452 403.575 577.224 401.206 567.472 410.354C557.342 419.904 559.988 421.97 582.44 421.97C602.901 421.97 602.901 421.97 599.273 414.99ZM433.113 405.037C444.528 399.619 453.877 394.226 453.877 393.042C453.877 391.757 453.499 390.673 452.894 390.673C450.526 390.673 405.848 412.319 405.848 413.503C405.848 416.552 413.811 414.007 433.113 405.037ZM555.856 412.521C551.622 408.59 510.574 391.077 508.407 392.337C505.459 394.126 506.24 394.605 529.775 404.936C550.539 414.209 560.593 417.056 555.856 412.521ZM431.627 392.437C445.133 385.936 451.508 381.526 451.508 378.654C451.508 372.757 414.315 351.489 407.133 353.278C402.396 354.438 401.313 357.411 398.062 376.89C394.635 397.275 394.635 399.342 398.163 402.088C402.799 405.742 406.151 404.835 431.627 392.437ZM566.187 402.088C568.556 399.039 563.642 364.694 559.686 357.109C556.36 350.809 550.942 351.792 531.64 362.426C504.98 377.091 505.358 380.544 535.47 394.504C560.492 406.019 562.659 406.523 566.187 402.088ZM390.401 380.644C393.929 364.189 394.811 352.976 392.266 355.445C390.578 357.209 384.48 386.742 384.279 394.125C384.203 402.592 387.151 395.99 390.401 380.644ZM577.703 388.909C573.873 366.961 570.622 354.64 568.455 354.64C567.271 354.64 566.792 356.126 567.472 357.89C568.153 359.654 570.118 369.405 571.806 379.56C573.469 389.69 575.838 397.956 577.123 397.956C578.307 397.956 578.585 393.924 577.703 388.909ZM504.274 374.143C504.274 372.959 501.124 368.624 497.395 364.593C487.844 354.362 475.623 354.161 465.695 364.089C454.658 375.126 456.245 376.31 481.545 376.31C494.043 376.31 504.274 375.327 504.274 374.143ZM453.575 363.207C450.349 359.956 416.961 342.846 415.878 343.829C414.215 345.492 414.214 345.493 434.6 356.605C444.427 362.023 452.995 365.954 453.575 365.374C454.18 364.794 454.18 363.812 453.575 363.207ZM527.205 356.907C543.357 348.063 550.539 342.745 546.305 342.745C543.156 342.745 506.743 363.106 506.743 364.895C506.643 367.843 508.508 367.138 527.205 356.907ZM466.275 353.858C471.315 350.028 473.381 306.308 468.643 304.746C464.208 303.259 420.212 329.063 420.312 333.094C420.312 336.446 454.381 356.907 459.874 356.907C461.16 356.907 464.108 355.521 466.275 353.858ZM523.475 346.475C533.404 340.755 541.77 334.556 542.173 332.792C542.778 329.642 500.746 304.242 494.925 304.242C493.262 304.242 492.279 312.407 492.279 327.375C492.279 346.677 493.06 351.112 496.513 353.757C502.51 358.293 503.493 357.991 523.475 346.475ZM485.073 328.257C485.073 310.643 484.493 306.712 481.545 306.712C478.597 306.712 477.891 310.643 477.891 328.257C477.891 345.896 478.597 349.927 481.545 349.927C484.392 349.927 485.073 345.896 485.073 328.257ZM413.03 329.063C413.03 325.006 402.119 316.262 396.979 316.262C391.385 316.262 381.834 323.847 381.834 328.257C381.834 329.643 388.612 330.726 397.482 330.726C406.05 330.726 413.03 329.945 413.03 329.063ZM578.307 326.593C577.904 324.325 574.553 320.798 570.924 318.706C565.003 315.481 563.642 315.481 557.72 318.706C554.092 320.798 550.841 324.325 550.337 326.593C549.657 330.146 551.723 330.726 564.322 330.726C577.022 330.726 578.988 330.146 578.307 326.593ZM440.396 310.341C452.012 303.764 460.278 298.043 458.892 297.564C455.843 296.481 415.6 319.009 415.499 321.856C415.499 324.427 415.6 324.427 440.396 310.341ZM545.121 321.377C545.121 320.193 535.394 313.792 523.375 307.115C511.355 300.412 501.905 296.078 502.409 297.363C502.813 298.648 512.363 304.947 523.576 311.348C547.59 325.106 545.121 323.947 545.121 321.377ZM494.724 285.066C494.724 282.596 491.372 281.715 485.476 282.496C483.712 282.798 482.931 281.815 483.813 280.43C484.695 279.044 488.525 277.859 492.456 277.859C500.142 277.859 500.922 276.297 496.412 270.476C488.827 260.548 477.11 259.464 467.661 267.729C461.159 273.45 462.545 277.859 470.71 277.859C475.346 277.859 477.891 279.044 477.891 281.312C477.891 284.663 482.125 286.629 490.491 287.208C492.859 287.309 494.724 286.326 494.724 285.066ZM236.64 432.805C239.89 422.071 239.89 422.07 229.861 414.209L219.908 406.322L232.809 405.137C245.686 403.953 245.787 403.852 249.239 393.521C253.069 382.106 254.959 382.61 259.293 396.091C262.04 404.759 262.619 405.137 272.774 405.137C285.575 405.137 286.054 407.304 275.118 415.67C266.853 421.97 266.853 421.97 270.104 432.805C273.858 445.304 273.354 445.606 262.443 437.341C254.253 431.117 254.254 431.117 244.905 437.341C239.689 440.768 234.977 443.54 234.473 443.54C233.893 443.54 234.876 438.702 236.64 432.805ZM687.846 432.805C691.097 422.071 691.096 422.071 681.168 413.705L671.215 405.339L683.814 405.238C695.431 405.137 696.716 404.558 698.883 398.536C704.88 381.904 705.182 381.627 708.534 389.489C710.197 393.42 711.583 400.803 711.684 405.742C711.961 415.972 713.75 416.955 718.865 409.673C721.713 405.641 723.88 404.835 729.197 406.221C736 407.909 736.001 407.909 727.811 414.587C719.747 421.088 719.646 421.39 722.317 431.722C723.779 437.417 724.56 442.557 724.081 443.036C723.577 443.54 719.168 441.272 714.229 437.921C705.384 431.923 705.384 431.924 696.111 437.719C690.996 440.869 686.385 443.54 685.78 443.54C685.099 443.54 686.082 438.702 687.846 432.805ZM0 419.803C0 414.789 1.4862 412.521 5.14 411.538C8.08823 410.757 9.44944 409.169 8.46669 407.506C7.48395 406.019 5.13998 405.44 3.07369 406.221C-4.81347 409.27 4.15759 343.224 17.1349 302.478C63.1979 158.166 198.161 45.6796 367.471 10.4268C422 -0.887382 506.945 -3.35664 559.106 4.8077C610.184 12.8964 662.168 28.5444 704.2 48.4261C722.897 57.2708 726.728 60.0425 726.627 64.3767C726.45 67.3249 727.71 70.1724 729.398 70.6764C731.364 71.3567 731.843 70.3743 730.961 67.9049C730.18 65.8386 730.759 64.1752 732.246 64.1752C733.733 64.1752 735.597 65.7373 736.278 67.728C737.059 69.6935 738.646 70.7775 739.831 69.9712C744.845 66.9221 787.96 95.069 786.297 100.386C784.029 107.971 787.38 111.12 796.729 110.339C804.692 109.659 807.363 111.12 822.028 124.425C833.922 135.235 837.576 139.872 835.207 141.257C832.839 142.82 833.645 144.786 838.937 149.901C845.741 156.604 845.741 156.603 844.153 150.606C841.91 141.736 866.907 168.8 886.789 196.669C920.832 244.496 945.653 304.444 952.154 354.06C953.514 364.694 953.137 366.659 949.987 366.659C947.82 366.659 946.132 368.322 946.132 370.288C946.132 372.253 947.719 373.941 949.685 373.941C953.716 373.941 954.598 377.671 951.171 379.737C946.534 382.61 941.419 377.873 940.034 369.507C932.272 322.461 924.889 298.043 906.57 259.565C881.371 206.497 844.077 160.056 795.847 121.754C784.608 112.809 777.124 105.224 777.628 103.057C778.107 100.587 777.124 100.008 774.378 101.091C771.707 102.074 764.626 98.8235 754.395 92.1207C745.525 86.4258 732.649 78.6391 725.745 74.9097C717.984 70.7771 713.448 66.8212 714.229 64.9565C715.716 60.9247 710.802 57.8759 708.534 61.5045C707.249 63.5708 699.084 61.2271 679.984 53.4408C645.336 39.1784 604.59 27.562 565.507 20.6576C528.288 14.1815 443.848 12.7952 407.411 18.1121C391.183 20.4808 385.362 20.4807 382.817 18.3136C380.146 16.1465 379.465 16.2475 379.465 18.9942C379.465 21.262 372.082 24.1098 356.031 27.94C301.904 40.9424 240.773 66.5438 201.69 92.7251C184.076 104.619 178.38 107.29 181.329 102.553C182.11 101.293 181.026 100.209 178.96 100.209C176.491 100.209 175.332 101.772 175.81 104.518C176.314 107.593 169.914 114.472 154.946 126.97C132.292 145.97 86.431 193.016 86.431 197.35C86.431 197.652 80.9123 206.32 74.2347 216.551C38.5031 270.678 18.3191 332.389 15.1693 397.275C13.6826 426.707 13.6825 426.707 6.90408 426.707C0.906817 426.707 0 425.8 0 419.803ZM276.202 47.0404C282.224 42.1266 282.224 42.1262 273.858 43.6129C269.221 44.3941 263.804 46.6621 261.939 48.6276C256.043 54.4233 268.919 53.0628 276.202 47.0404ZM216.557 153.933C206.83 136.017 199.245 121.074 199.724 120.57C203.479 117.042 239.109 100.209 242.839 100.209C245.51 100.209 251.003 103.46 255.06 107.491C260.956 113.388 262.04 116.135 260.956 121.855C259.873 126.869 260.453 128.936 262.72 128.936C268.441 128.936 278.192 138.486 279.755 145.668C282.325 157.385 275.723 166.154 256.32 176.888C246.77 182.205 237.925 186.515 236.539 186.515C235.254 186.515 226.208 171.849 216.557 153.933ZM254.077 162.601C264.308 156.301 266.072 151.387 260.074 145.39C255.236 140.552 255.236 140.552 245.308 145.567C233.994 151.388 234.17 150.884 239.008 160.333C243.343 168.699 243.821 168.8 254.077 162.601ZM238.026 134.454C245.61 129.918 247.576 120.192 241.377 117.823C237.622 116.336 224.141 120.872 222.075 124.324C220.487 126.869 226.006 138.587 228.778 138.587C230.037 138.587 234.17 136.722 238.026 134.454ZM715.01 183.969C708.912 180.517 709.718 176.788 720.629 154.916L730.482 135.336L711.684 152.572C690.895 171.571 691.802 171.068 686.082 166.834C682.353 163.987 682.251 162.223 685.603 142.24C687.568 130.321 689.131 119.486 689.131 118.201C689.03 116.841 684.419 124.223 678.699 134.555C665.621 158.166 665.217 158.468 658.237 153.252C652.517 148.918 652.518 148.918 671.215 116.739C681.446 99.0248 690.114 84.158 690.618 83.654C690.996 83.1753 695.053 85.1407 699.664 87.8874C707.45 92.7255 707.728 93.5064 705.964 101.973C704.88 106.887 703.217 118.504 702.335 127.752L700.748 144.584L718.865 126.668C737.059 108.853 737.059 108.852 745.526 112.909C750.263 115.051 753.992 117.823 753.992 119.007C753.992 121.174 728.013 178.048 724.46 183.566C722.217 187.22 720.63 187.22 715.01 183.969ZM306.137 147.557C296.99 122.938 283.786 79.6223 285.172 78.3371C287.717 75.9937 331.437 60.9247 332.52 62.0082C332.999 62.5122 334.083 65.7376 334.965 69.1899C336.452 75.0107 335.771 75.6908 321.383 80.2265C307.322 84.7371 306.239 85.5435 306.717 91.7423C307.423 100.99 307.7 101.091 322.97 96.2533C334.687 92.5239 336.854 92.4229 338.82 95.472C342.852 101.872 339.903 105.425 326.422 110.641C313.016 115.757 312.916 115.858 315.285 122.938C316.57 126.97 317.956 130.523 318.334 131.002C318.737 131.405 326.598 129.339 335.972 126.29C354.267 120.368 354.947 120.469 355.93 128.835C356.535 133.95 354.468 135.235 333.805 142.417C307.422 151.589 307.624 151.488 306.137 147.557ZM569.135 146.751C569.135 144.685 570.42 143.4 572.008 143.904C576.418 145.39 577.224 150.606 572.991 150.606C570.823 150.606 569.135 148.918 569.135 146.751ZM569.135 138.587C569.135 137.302 570.219 136.218 571.504 136.218C572.89 136.218 573.973 137.302 573.973 138.587C573.973 139.872 572.89 140.955 571.504 140.955C570.219 140.955 569.135 139.872 569.135 138.587ZM599.172 135.638C589.319 132.186 583.523 126.869 579.492 117.42C576.417 110.138 576.72 107.29 583.725 82.5705C587.858 67.8041 591.789 55.0279 592.268 54.0452C593.452 52.0545 607.538 56.6911 607.538 59.1606C607.538 60.1433 604.766 69.9708 601.44 81.1086C591.789 112.985 593.351 121.754 608.722 121.754C619.154 121.754 620.616 119.587 628.604 90.9364C632.434 77.3544 636.264 66.2416 637.171 66.1408C638.154 66.04 641.985 66.6447 645.714 67.325C652.619 68.711 652.618 68.711 644.933 94.6907C635.685 125.887 633.518 130.22 624.37 134.958C616.383 139.09 609.503 139.267 599.172 135.638ZM378.583 124.904C376.719 118.907 367.471 61.5045 367.471 56.2884C367.471 53.1385 369.436 52.1558 375.434 52.1558C383.296 52.1558 383.296 52.1555 387.731 81.0078C390.2 96.9586 392.947 110.44 393.93 111.02C394.812 111.624 402.295 110.818 410.485 109.457C427.015 106.509 426.234 106.307 428.3 114.673C429.661 120.771 429.384 120.973 411.165 123.82C401.035 125.408 389.797 127.373 386.269 128.054C381.431 128.936 379.566 128.155 378.583 124.904ZM531.539 113.968C532.32 109.659 534.689 92.7255 536.755 76.1701C538.922 59.7406 540.988 45.8558 541.492 45.377C541.971 44.8731 545.726 45.1756 549.858 46.1584C556.637 47.6451 557.141 48.4264 556.057 55.3056C555.452 59.5389 553.689 72.6417 552.303 84.5606C547.792 122.837 548.17 121.754 538.62 121.754C530.456 121.754 530.254 121.553 531.539 113.968ZM460.781 114.572C440.395 103.838 435.96 70.7773 452.415 52.5587C464.107 39.4555 484.594 36.1294 498.857 44.8733C507.827 50.291 508.13 51.3742 502.989 57.0943C499.562 60.8237 498.579 60.9247 491.977 57.6741C483.914 53.6423 470.407 55.0279 465.997 60.3448C457.127 71.0542 458.816 94.1865 468.845 101.293C471.793 103.359 478.194 104.921 483.208 104.921C491.977 104.921 492.279 104.72 492.279 96.5555C492.279 88.7692 491.675 88.1895 485.073 88.1895C478.975 88.1895 477.891 87.2066 477.891 82.1921C477.891 76.3712 478.496 76.1701 493.464 76.1701H509.112V93.0027C509.112 109.457 508.911 109.936 501.326 114.572C491.196 120.771 472.473 120.771 460.781 114.572Z" fill="#22924A"/>
</svg>
