<svg width="959" height="736" viewBox="0 0 959 736" fill="none" xmlns="http://www.w3.org/2000/svg">
<path fill-rule="evenodd" clip-rule="evenodd" d="M191.356 144.84C181.082 133.059 180.329 131.702 184.701 131.702C187.479 131.702 205.895 151.237 205.895 154.166C205.895 158.388 199.928 154.511 191.356 144.84ZM753.691 154.253C751.753 151.065 772.537 129.01 775.057 131.638C776.651 133.146 774.131 136.936 766.054 144.927C759.916 151.151 754.359 155.265 753.691 154.253ZM203.116 136.505C190.43 121.019 193.79 117.918 207.165 132.801C218.343 145.336 219.614 147.705 215.156 147.705C213.648 147.705 208.178 142.643 203.116 136.505ZM741.738 146.348C740.984 145.68 744.602 140.037 749.728 133.899C754.962 127.761 759.42 122.29 759.743 121.795C760.174 121.364 761.337 121.859 762.522 122.958C763.879 124.401 761.51 128.601 755.027 136.333C745.442 147.791 744.107 148.782 741.738 146.348ZM704.305 124.724C704.305 122.872 720.953 99.6537 722.31 99.6537C726.338 99.6537 725.347 103.186 718.024 113.869C713.566 120.352 708.677 125.65 707.169 125.65C705.575 125.65 704.305 125.241 704.305 124.724ZM253.019 107.903C245.201 94.8722 244.77 93.6875 248.475 93.6875C249.81 93.6875 254.118 98.8137 257.973 105.124C266.89 119.77 266.803 119.684 263.207 119.684C261.591 119.684 256.961 114.386 253.019 107.903ZM692.265 118.413C692.265 114.881 706.997 93.6875 709.431 93.6875C713.394 93.6875 713.308 94.097 704.8 107.644C698.49 117.832 692.265 123.13 692.265 118.413ZM267.148 104.026C259.502 91.4048 258.404 87.6359 262.432 87.722C265.964 87.722 278.585 111.78 276.323 114.127C275.139 115.312 271.607 111.435 267.148 104.026ZM680.333 111.607C680.333 107.235 692.868 87.6359 695.646 87.6359C699.092 87.6359 699.178 87.4633 691.274 102.346C685.954 112.447 680.333 117.25 680.333 111.607ZM279.016 95.7987C270.271 78.4607 274.213 75.7681 283.732 92.5892C291.034 105.555 291.723 107.903 288.514 109.088C287.179 109.497 283.129 104.026 279.016 95.7987ZM666.613 105.964C670.145 97.1338 679.816 81.648 681.754 81.648C685.201 81.648 685.114 82.1653 678.222 95.7127C674.776 102.691 670.899 107.644 669.047 107.644C667.367 107.644 666.269 106.89 666.613 105.964ZM292.477 90.8231C286.576 78.9557 286.167 75.5957 290.28 75.5957C291.551 75.5957 303.914 100.322 303.914 102.949C303.914 103.359 302.815 103.703 301.394 103.703C299.972 103.703 296.009 97.8875 292.477 90.8231ZM654.25 101.42C654.25 96.4662 665.019 75.5957 667.539 75.5957C671.416 75.5957 671.071 77.3621 664.265 91.3187C658.881 102.518 654.25 107.149 654.25 101.42ZM839.348 241.589C837.732 238.983 837.151 239.392 851.883 232.005C865.085 225.35 868.446 224.51 868.446 227.719C868.446 230.906 840.855 244.023 839.348 241.589ZM101.823 235.536C90.6448 229.807 86.8538 225.78 92.5829 225.78C96.5243 225.78 119.829 238.143 119.829 240.254C119.829 243.097 112.85 241.244 101.823 235.536ZM110.74 224.681C100.143 218.629 95.1028 213.245 100.746 213.999C106.044 214.666 127.819 226.943 127.819 229.226C127.819 233.167 123.878 232.09 110.74 224.681ZM831.508 229.894C830.41 228.128 854.145 213.74 858.258 213.74C863.643 213.74 859.442 217.94 847.338 224.595C832.778 232.586 833.102 232.5 831.508 229.894ZM119.161 213.245C110.244 207.947 106.281 204.479 107.552 203.143C109.576 201.205 135.81 215.011 135.81 218.026C135.81 221.903 131.696 220.719 119.161 213.245ZM823.345 219.642C822.591 218.457 822.333 217.273 822.764 216.95C831.422 210.381 849.191 201.636 850.784 203.23C852.378 204.91 840.339 213.654 826.037 221.063C825.284 221.472 824.099 220.891 823.345 219.642ZM129.004 202.476C119.915 196.403 116.038 192.719 117.395 191.362C120.087 188.584 146.084 206.008 144.059 209.282C143.047 210.876 138.437 208.873 129.004 202.476ZM814.428 208.097C814.428 204.651 839.003 189.424 841.114 191.621C843.547 193.969 844.302 193.215 830.41 202.476C819.813 209.541 814.428 211.393 814.428 208.097ZM138.351 192.202C130.274 186.236 126.484 182.187 127.733 181.024C128.918 179.754 132.364 181.024 137.253 184.384C152.566 195.239 154.914 197.414 152.825 199.439C151.468 200.796 146.579 198.254 138.351 192.202ZM805.77 198.255C804.499 196.252 826.123 179.753 829.914 179.753C834.631 179.667 832.434 182.855 822.333 190.35C810.724 199.008 807.278 200.71 805.77 198.255ZM149.271 182.446C142.961 177.47 137.834 172.689 137.834 171.849C137.834 167.391 141.453 168.813 151.554 177.234C157.778 182.36 163.249 186.818 163.659 187.163C164.176 187.486 163.744 188.67 162.667 189.682C161.483 190.867 156.508 188.239 149.271 182.446ZM795.841 188.239C794.42 185.633 817.551 167.972 820.243 169.566C821.837 170.578 818.973 174.197 811.65 180.335C800.967 189.51 797.435 191.276 795.841 188.239ZM158.037 171.849C151.554 166.034 147.85 161.252 148.69 159.895C149.616 158.388 154.16 160.994 161.979 167.8C168.461 173.443 173.351 178.914 172.748 179.926C170.895 182.855 169.387 182.015 158.037 171.849ZM785.503 179.926C784.9 178.914 789.702 173.443 796.272 167.8C804.004 161.166 808.548 158.388 809.475 159.809C810.314 161.166 807.278 165.366 802.152 169.91C791.124 179.753 786.924 182.274 785.503 179.926ZM169.215 162.501C160.902 154.683 158.446 151.323 160.557 150.548C164.498 149.04 185.627 168.812 182.849 171.418C181.513 172.775 176.883 169.652 169.215 162.501ZM775.639 170.169C773.808 167.133 796.013 146.52 798.533 149.04C800.127 150.634 797.866 153.929 790.37 160.994C778.934 171.763 777.254 172.775 775.639 170.169ZM179.23 152.659C172.575 145.336 170.314 141.632 171.994 140.555C174.6 139.026 193.876 157.548 193.876 161.575C193.876 166.12 188.492 162.846 179.23 152.659ZM763.62 162.329C761.94 160.563 782.38 139.715 785.826 139.715C790.37 139.715 788.604 142.558 777.835 153.24C766.894 164.095 765.968 164.698 763.62 162.329ZM76.2572 285.246C69.365 282.899 63.7221 279.862 63.7221 278.44C63.7221 277.019 64.3899 275.834 65.2299 275.834C69.6882 275.92 94.672 285.591 95.3612 287.529C96.4381 290.803 90.6445 290.136 76.2572 285.246ZM862.889 287.443C863.578 285.418 888.304 275.834 892.848 275.834C893.774 275.834 894.442 277.019 894.442 278.526C894.442 280.12 888.648 282.899 879.645 285.505C862.393 290.545 861.877 290.545 862.889 287.443ZM430.708 734.183C306.024 724.599 188.729 675.536 105.441 598.236C86.1003 580.23 82.9772 575.686 88.534 573.489C91.8078 572.24 92.2383 561.621 88.9645 562.72C87.7799 563.064 85.8418 565.326 84.7434 567.782C83.6665 570.215 82.2233 572.154 81.4695 572.154C79.208 572.154 58.5959 545.727 48.6669 530.09C18.4491 482.793 2.55455 433.492 0.271528 379.992C-7.71906 197.759 161.483 38.0768 397.97 4.41295C428.339 0.126894 502.386 -1.46668 533.595 1.57017C664.416 14.1699 778.266 63.9007 858.603 143.742C912.792 197.501 944.496 256.063 955.696 322.701C960.154 349.365 958.647 405.234 952.831 430.046C925.5 546.739 832.434 642.561 693.536 697.16C671.825 705.667 623.365 720.313 616.731 720.313C613.694 720.313 604.347 710.47 604.261 707.089C604.196 705.84 612.338 702.802 622.353 700.369C648.435 693.8 672.342 685.982 698.08 675.471C710.357 670.324 720.953 666.209 721.47 666.209C721.966 666.209 721.47 668.062 720.286 670.237C719.101 672.434 718.606 674.286 719.188 674.286C719.704 674.286 721.47 671.766 723.064 668.643C725.003 664.939 731.486 660.244 742.664 654.342C763.448 643.487 796.681 621.454 816.281 605.473C932.887 510.232 969.243 376.201 912.534 250.678C909.497 243.936 901.506 229.808 894.873 219.125C830.926 117.401 708.268 45.2273 562.283 23.3448C532.087 18.8864 444.083 16.5387 424.053 19.7264C342.273 32.7784 348.433 31.5938 318.645 40.3382C204.559 73.9159 111.666 140.21 60.9437 224.337C55.8177 232.931 49.3348 245.035 46.5564 251.346C43.778 257.57 39.8149 264.312 37.6396 266.315C35.5289 268.253 34.3658 271.204 34.9474 272.797C35.5289 274.391 34.1938 281.886 31.8246 289.381C7.76667 367.112 21.2277 454.276 68.0082 523.607C73.4789 531.597 78.3463 539.502 79.0355 541.268C81.1247 546.739 126.311 592.335 142.809 605.623C247.721 690.181 401.933 731.836 545.118 714.412C572.88 711.052 591.058 708.359 595.689 707.089C598.381 706.335 600.147 706.68 600.147 708.015C600.147 709.286 598.123 710.298 595.516 710.298C592.91 710.298 590.799 711.396 590.649 712.818C590.218 719.042 588.043 725.095 585.76 726.624C582.055 728.972 580.203 728.627 580.117 725.784C580.117 723.846 579.794 723.845 578.523 725.848C577.425 727.464 573.806 728.045 568.098 727.55C562.283 727.033 558.579 727.701 557.243 729.381C552.871 735.024 478.414 737.802 430.708 734.183ZM806.352 108.829C806.352 106.718 802.561 105.878 801.398 107.731C800.73 108.829 801.57 109.755 803.25 109.755C805.016 109.755 806.352 109.324 806.352 108.829ZM441.046 708.015C244.512 695.566 76.9248 581.824 38.7379 434.935C-10.4979 245.552 156.357 63.2329 408.653 30.7537C436.006 27.2215 446.107 26.877 446.107 29.6554C446.107 30.7538 443.243 31.0985 439.538 30.4093C435.166 29.7416 433.895 30 435.748 31.2492C437.6 32.52 433.809 33.5326 423.729 34.5449C325.71 43.7201 228.444 81.5617 158.123 137.69C9.70473 256.148 -5.02721 437.024 123.038 567.264C190.667 636.013 284.81 680.424 401.416 698.603C437.277 704.159 513.737 704.741 551.687 699.615C600.987 693.046 648.112 680.425 694.117 661.407C721.966 649.884 731.572 649.539 708.849 660.911C676.025 677.388 624.808 692.874 576.175 701.123C550.588 705.409 488.085 710.793 472.685 709.953C469.584 709.781 455.347 708.941 441.046 708.015ZM469.153 692.379C468.485 691.28 468.571 684.539 469.325 677.324C470.338 667.631 471.414 664.271 473.698 664.271C476.045 664.271 476.39 666.038 475.378 673.533C474.71 678.659 474.107 685.4 474.107 688.501C474.107 694.144 471.501 696.169 469.153 692.379ZM484.122 679.412C484.122 667.05 484.639 664.271 487.159 664.271C489.765 664.271 490.196 666.705 489.679 678.572C489.356 687.834 488.257 693.218 486.577 693.8C484.725 694.381 484.122 690.698 484.122 679.412ZM439.883 690.785C438.698 681.437 441.649 662.247 444.255 662.247C446.28 662.247 446.689 680.683 444.837 687.747C443.652 692.033 440.292 694.059 439.883 690.785ZM454.098 684.539C454.098 673.36 456.187 664.271 458.815 664.271C460.322 664.271 460.818 668.816 460.409 678.228C459.892 688.674 459.052 692.292 456.962 692.292C454.938 692.292 454.098 689.858 454.098 684.539ZM499.436 690.935C498.682 690.181 498.1 683.871 498.1 676.892C498.1 666.963 498.768 664.271 501.116 664.271C503.485 664.271 504.152 667.136 504.152 678.228C504.152 691.194 502.882 694.381 499.436 690.935ZM513.413 681.782C511.475 665.693 511.798 662.247 515.18 662.247C517.269 662.247 518.109 664.443 518.109 669.742C518.195 673.855 518.798 680.597 519.38 684.797C520.392 690.612 520.047 692.292 517.7 692.292C515.589 692.292 514.34 689.169 513.413 681.782ZM410.764 688.674C407.662 686.735 412.185 661.837 415.804 660.653C417.914 659.899 418.173 662.333 417.074 672.52C415.394 686.994 413.973 690.698 410.764 688.674ZM424.979 678.917C426.745 665.198 427.757 662.247 430.88 662.247C432.732 662.247 432.819 665.629 431.375 676.225C430.04 686.391 428.683 690.267 426.508 690.267C424.138 690.267 423.816 688.243 424.979 678.917ZM529.481 688.76C528.964 687.92 527.952 681.609 527.198 674.782C526.035 664.444 526.272 662.247 528.641 662.247C531.505 662.247 534.111 673.533 534.111 685.551C534.111 690.009 531.419 691.948 529.481 688.76ZM543.352 681.782C542.598 677.065 541.499 670.323 540.918 666.705C539.991 661.924 540.422 660.244 542.598 660.244C545.634 660.244 551.342 684.711 549.08 688.329C546.647 692.292 544.622 690.009 543.352 681.782ZM559.419 686.068C558.924 684.539 557.911 679.671 557.157 675.299C556.49 670.841 555.391 665.198 554.809 662.764C554.034 659.555 554.637 658.219 556.727 658.219C560.69 658.219 565.816 683.461 562.456 686.735C560.948 688.329 560.022 688.157 559.419 686.068ZM395.041 679.757C398.228 664.099 400.339 658.219 402.945 658.219C405.207 658.219 405.207 659.985 402.945 669.742C401.416 676.052 400.167 682.363 400.081 683.785C400.081 685.142 398.573 686.24 396.893 686.24C394.351 686.24 393.942 684.883 395.041 679.757ZM373.998 681.437C373.998 675.966 380.567 654.256 382.247 654.256C385.435 654.256 385.435 657.616 382.247 670.087C379.21 681.847 373.998 688.997 373.998 681.437ZM573.397 681.092C571.544 676.311 571.954 670.237 574.065 670.237C576.412 670.237 577.273 671.766 578.953 678.745C580.375 684.883 575.572 686.908 573.397 681.092ZM585.501 669.161C582.314 656.863 582.572 649.798 586.276 653.588C587.698 655.01 594.181 677.646 594.181 681.006C594.181 681.696 592.996 682.277 591.661 682.277C590.132 682.277 587.526 676.721 585.501 669.161ZM358.426 677.905C359.03 676.462 361.119 670.087 363.143 663.69C365.082 657.379 367.946 652.232 369.368 652.232C372.728 652.232 372.663 652.749 368.355 667.222C365.836 675.536 363.66 679.413 361.033 679.93C358.685 680.425 357.759 679.671 358.426 677.905ZM345.137 676.462C344.211 674.954 351.276 650.724 353.3 648.377C353.731 647.86 354.894 648.377 355.993 649.389C357.263 650.638 356.337 656.195 353.559 664.767C349.359 677.646 347.507 680.253 345.137 676.462ZM607.298 675.708C606.888 674.373 605.036 668.385 603.184 662.505C600.728 654.924 600.406 651.241 601.913 649.712C604.261 647.278 603.938 646.611 609.99 664.53C612.187 670.841 613.35 676.397 612.682 677.065C610.744 679.003 608.138 678.4 607.298 675.708ZM331.008 672.262C329.652 670.086 337.491 646.696 340.097 645.081C343.974 642.733 343.888 649.13 339.839 660.244C335.208 672.844 333.119 675.708 331.008 672.262ZM618.411 661.838C613.522 647.278 613.35 646.179 616.882 646.179C618.325 646.179 621.104 651.305 623.107 657.702C625.131 664.013 627.156 670.324 627.737 671.767C628.254 673.102 627.242 674.2 625.648 674.2C623.709 674.2 621.103 669.742 618.411 661.838ZM315.351 668.816C314.855 667.976 317.375 660.911 320.993 653.158C329.07 635.841 332.861 639.546 325.279 657.379C320.584 668.558 317.375 672.262 315.351 668.816ZM632.54 658.478C627.737 645.34 627.242 641.549 630.43 642.561C632.454 643.229 642.211 664.767 642.211 668.557C642.211 669.483 641.026 670.237 639.519 670.237C638.011 670.237 634.888 664.939 632.54 658.478ZM569.348 663.001C567.496 658.047 567.926 656.194 571.2 656.194C572.815 656.194 574.151 657.961 574.151 660.072C574.151 665.112 570.963 667.136 569.348 663.001ZM646.346 653.33C639.26 637.78 639.432 638.189 642.879 638.189C646.583 638.189 656.942 662.333 654.336 664.939C653.066 666.21 650.287 662.161 646.346 653.33ZM305.184 653.674C307.963 647.945 310.741 641.635 311.323 639.697C312.507 636.014 315.027 635.087 316.793 637.844C318.473 640.709 306.347 664.185 303.16 664.185C300.726 664.185 301.135 662.074 305.184 653.674ZM287.502 659.146C285.994 657.616 299.8 632.223 302.062 632.223C305.185 632.223 304.258 635.669 297.948 648.29C292.218 659.468 290.13 661.752 287.502 659.146ZM659.635 648.032C653.733 634.829 653.238 632.223 656.275 632.223C658.192 632.223 670.232 654.428 670.232 658.133C670.232 664.271 664.352 658.628 659.635 648.032ZM445.095 656.108C310.806 647.859 184.873 583.095 125.902 492.054C95.6843 445.445 82.8262 391.429 89.8906 340.793C94.9305 304.782 112.506 261.856 134.302 232.844C234.497 99.072 447.12 42.9442 630.86 101.764C756.211 141.89 846.412 227.202 866.679 324.876C871.396 347.857 871.72 387.982 867.347 409.348C851.194 487.423 793.644 556.495 705.812 603.103C630.343 643.229 538.807 661.837 445.095 656.108ZM522.158 650.142C697.649 634.312 837.151 534.203 861.553 406.57C864.913 389.167 865.344 352.552 862.393 333.965C849.255 251.259 779.343 171.419 681.001 127.007C616.128 97.6296 555.8 84.9437 481.106 84.8576C411.022 84.8576 355.583 95.1097 297.108 118.931C108.973 195.477 39.4921 365.927 140.441 502.909C214.144 602.931 371.651 663.689 522.158 650.142ZM314.015 614.712C314.101 613.872 315.35 610.922 316.965 608.165C318.559 605.387 319.809 602.005 319.895 600.67C319.981 597.137 308.975 597.547 305.938 601.165C301.975 605.968 300.963 604.697 300.963 595.113C300.963 586.196 304.258 582.837 306.692 589.319C307.532 591.323 309.815 592.162 313.433 591.753C319.227 591.085 319.895 588.307 316.879 578.615C314.596 571.227 320.239 573.231 326.808 582.169C331.848 588.975 333.873 590.159 340.097 590.159C347.162 590.159 353.386 594.101 350.608 596.793C349.94 597.547 345.654 598.15 341.11 598.236C333.873 598.236 332.279 599.249 326.206 607.239C320.369 615.014 313.929 618.955 314.015 614.712ZM474.107 598.15C474.107 585.529 473.698 584.172 470.079 584.172C467.882 584.172 466.03 583.246 466.03 582.169C466.03 581.07 469.239 580.144 473.116 580.144C480.094 580.144 480.094 580.144 480.094 596.211C480.094 609.091 479.491 612.192 477.058 612.192C474.71 612.192 474.107 609.35 474.107 598.236V598.15ZM422.049 348.18C422.049 323.778 439.452 303.511 466.289 296.619C499.436 288.111 534.521 311.846 536.545 344.153L537.127 352.897L479.578 353.393C422.05 353.996 422.049 353.995 422.049 348.266V348.18ZM287.437 259.681C280.2 255.481 283.302 251.776 292.886 253.112C303.828 254.641 305.357 250.764 295.923 245.379C288.6 241.179 287.846 233.426 294.415 228.881C302.32 223.325 315.867 225.931 313.347 232.586C312.335 235.106 311.064 235.364 306.692 233.684C297.431 230.152 295.665 235.02 303.742 241.589C309.212 246.047 310.311 248.158 309.298 252.099C307.274 260.025 295.169 264.139 287.437 259.594V259.681ZM313.003 259.853C312.249 258.583 316.276 250.333 322.092 241.589C335.381 221.322 338.331 221.322 340.679 241.33C342.359 256.062 341.691 261.792 338.159 261.792C337.061 261.792 335.639 259.939 334.971 257.742C333.27 252.444 324.525 252.53 318.818 257.914C315.781 260.693 313.929 261.36 313.003 259.767V259.853ZM333.959 242.515C333.959 238.057 333.442 237.626 330.922 239.737C329.329 241.093 327.972 243.527 327.972 245.035C327.972 246.564 329.329 247.727 330.922 247.727C332.861 247.727 333.959 245.875 333.959 242.515ZM348.756 258.841C348.088 257.247 348.497 252.939 349.682 249.321C350.867 245.703 352.719 238.897 353.968 234.266C355.239 229.14 357.263 225.78 359.029 225.78C362.82 225.78 362.734 230.562 359.029 242.946C357.349 248.331 355.993 253.025 355.993 253.284C355.993 253.542 359.611 253.779 363.983 253.779C373.072 253.779 374.58 256.903 366.848 259.853C359.266 262.718 350.027 262.2 348.756 258.841ZM373.072 259.94C371.478 257.247 392.5 226.793 396.032 226.793C399.995 226.793 405.121 257.829 401.502 260.09C398.573 261.942 396.032 260.348 396.032 256.644C396.032 251.949 382.657 252.853 379.964 257.742C377.703 262.028 374.924 262.955 373.072 259.94ZM394.028 241.761C394.028 239.564 393.598 237.712 393.102 237.712C392.585 237.712 391.164 239.564 389.98 241.761C388.3 244.949 388.472 245.789 390.906 245.789C392.672 245.789 394.028 244.022 394.028 241.761ZM408.911 259.681C408.33 258.582 409.256 253.112 411.108 247.641C412.96 242.084 413.887 235.45 413.198 232.844C411.862 227.46 414.727 225.78 425.237 225.78C431.72 225.78 440.034 231.251 440.034 235.623C440.034 236.636 437.772 240.167 434.908 243.527C430.622 248.653 430.191 250.247 432.129 253.866C433.659 256.816 433.723 258.841 432.388 260.176C429.782 262.868 426.25 260.521 423.88 254.382C421.705 248.653 417.333 249.171 416.406 255.309C415.739 259.853 410.85 262.717 408.998 259.681H408.911ZM428.188 241.675C433.228 238.983 433.142 234.352 427.843 232.672C422.954 231.164 422.954 231.164 421.274 238.229C419.853 244.195 421.705 245.121 428.188 241.675ZM458.728 259.594C457.113 258.087 457.544 254.124 460.15 245.638C462.584 237.562 463.015 233.34 461.572 232.414C458.126 230.325 466.202 225.78 473.525 225.78C483.282 225.78 490.949 233.857 489.269 242.257C487.74 250.096 482.959 255.546 474.624 259.1C466.891 262.373 461.658 262.545 458.728 259.594ZM478.242 249.666C483.627 244.281 482.7 235.795 476.562 233.512C471.673 231.746 469.325 235.279 466.719 248.244C465.793 252.854 466.289 253.779 469.821 253.779C472.19 253.779 475.959 251.949 478.242 249.666ZM494.309 259.94C491.876 258.41 491.962 256.321 494.977 245.789C496.829 238.983 497.928 232.845 497.26 232.242C496.657 231.66 497.174 229.894 498.337 228.473C501.633 224.51 522.158 224.768 522.158 228.709C522.158 231.488 519.207 232.672 509.278 234.18C502.559 235.192 503.398 239.479 510.463 240.168C519.207 241.008 519.035 244.626 510.118 245.466C503.722 246.048 500.189 248.481 500.124 252.272C500.124 253.112 503.721 253.779 508.115 253.779C513.586 253.779 516.106 254.641 516.106 256.558C516.106 261.188 500.189 263.709 494.309 259.94ZM543.61 259.594C539.582 257.247 539.152 249.494 542.425 236.635C544.795 227.116 547.314 224.1 550.351 227.115C551.428 228.214 550.933 233.103 549.08 239.392C545.72 250.85 546.302 253.779 552.354 253.779C556.576 253.779 558.751 249.838 562.197 236.29C563.813 229.98 565.32 227.783 568.184 227.783C571.803 227.783 571.803 228.214 569.025 238.229C564.803 252.853 562.456 256.988 556.813 259.594C550.933 262.287 548.24 262.287 543.696 259.594H543.61ZM578.781 254.792C579.449 250.678 578.609 243.937 576.843 238.552C574.495 231.832 574.323 228.881 575.917 227.201C578.867 224.251 581.387 226.943 583.584 235.536C585.35 242.256 585.351 242.257 591.058 234.008C596.443 226.189 602.171 223.088 602.171 227.955C602.171 229.226 598.639 234.697 594.181 240.254C589.809 245.789 586.19 251.777 586.19 253.629C586.19 257.247 582.486 261.792 579.535 261.792C578.523 261.792 578.2 258.669 578.781 254.792ZM603.184 257.828C599.738 253.952 599.738 253.284 603.184 240.749C605.122 233.598 607.47 227.202 608.482 226.62C612.682 224.014 613.694 228.386 611.088 238.315C607.298 252.444 607.47 253.779 612.94 253.779C618.066 253.779 621.104 248.826 623.279 237.044C624.636 229.894 629.266 224.1 631.614 226.448C632.282 227.115 631.7 232.931 630.192 239.242C625.648 258.324 612.1 267.585 603.27 257.828H603.184ZM633.38 260.026C631.872 257.656 639.346 229.894 642.211 226.943C644.989 224.165 647.272 226.857 651.881 238.724L655.758 248.653L657.115 240.404C658.709 231.315 663.081 223.928 665.515 226.275C667.044 227.869 661.057 255.309 658.106 260.026C655.758 263.795 651.386 259.336 648.263 249.838C645.162 240.49 643.977 240.921 641.199 252.272C639.109 260.435 635.728 263.795 633.38 260.026ZM669.305 259.94C667.712 257.333 673.764 229.894 676.542 226.857C677.641 225.694 679.062 225.78 680.419 227.029C681.84 228.558 681.41 233.34 679.062 243.01C675.53 257.57 671.825 263.967 669.305 259.853V259.94ZM280.954 198.168C280.351 197.501 279.942 181.864 279.942 163.255V129.355L301.803 130.022C321.661 130.625 324.116 131.121 328.812 135.579C335.209 141.567 335.898 153.327 330.168 158.56C326.55 161.834 326.636 162.092 332.193 167.628C343.048 178.483 337.319 193.968 320.993 197.845C312.744 199.87 282.892 200.021 280.954 198.168ZM320.735 181.261C324.784 174.778 319.895 170.837 307.188 170.169C295.923 169.566 295.923 169.566 295.923 177.729C295.923 185.978 295.923 185.978 307.188 185.397C315.351 184.966 319.141 183.781 320.735 181.261ZM316.793 154.597C318.559 152.831 319.981 150.634 319.981 149.708C319.981 146.09 310.806 141.717 303.504 141.717C296.009 141.717 295.923 141.804 295.923 149.708C295.923 157.72 295.923 157.72 304.754 157.72C310.138 157.72 314.855 156.535 316.793 154.597ZM370.294 197.587C356.079 191.944 346.15 178.16 345.977 164.181C345.891 151.237 359.202 133.49 371.22 130.453C380.223 128.17 397.044 130.798 403.527 135.321C418.582 146.09 422.286 170.255 411.108 184.879C401.761 197.091 383.346 202.885 370.294 197.587ZM396.204 179.926C409.428 166.637 400.425 143.161 381.989 143.161C363.057 143.161 354.98 165.107 368.786 178.913C377.875 188.002 387.718 188.326 396.204 179.926ZM545.634 198.341C542.597 197.931 540.164 197.329 540.164 197.092C540.164 196.833 534.263 182.274 527.112 164.699C519.961 147.102 514.167 131.961 514.167 131.121C514.081 130.195 517.527 129.785 521.662 130.108C529.136 130.711 529.136 130.712 538.139 153.176C543.115 165.453 547.573 175.963 548.154 176.48C548.65 176.975 553.194 166.701 558.083 153.585C567 129.699 567 129.7 574.581 129.7C578.781 129.7 582.141 129.936 582.141 130.195C582.141 133.404 554.638 198.513 553.108 198.772C552.031 198.944 548.65 198.771 545.634 198.255V198.341ZM430.04 197.759V129.7H446.107V185.719H462.089C478.07 185.719 478.07 185.72 478.07 191.793C478.07 197.759 478.07 197.759 454.098 197.759H430.04ZM490.109 163.773C490.109 129.7 490.109 129.7 497.088 129.7C504.152 129.7 504.152 129.7 504.152 163.773C504.152 197.76 504.152 197.759 497.088 197.759C490.109 197.759 490.109 197.76 490.109 163.773ZM590.218 197.759V129.7H606.199V197.759H590.218ZM617.227 193.71C617.98 191.449 624.205 176.393 631.183 160.154C643.805 130.711 643.804 130.712 651.386 130.712C658.881 130.712 658.881 130.711 673.333 164.268L687.807 197.759H679.988C672.838 197.759 671.739 197.092 669.133 190.695C666.118 183.631 666.118 183.63 650.718 184.212C635.405 184.793 635.405 184.793 633.552 191.276C631.786 197.178 630.946 197.759 623.796 197.759C616.796 197.759 616.042 197.328 617.227 193.71ZM659.118 167.218C658.364 164.784 656.189 159.723 654.336 155.933C650.546 148.631 651.386 147.619 642.813 169.243C642.124 171.009 644.494 171.763 651.128 171.763C659.958 171.763 660.475 171.418 659.118 167.218ZM556.813 610.34C555.887 606.98 554.12 606.14 547.896 606.14C537.881 606.14 537.967 603.448 548.327 590.396C558.751 577.366 562.197 577.107 562.197 589.384C562.197 595.953 563.21 599.485 565.73 601.251C569.025 603.771 569.025 603.943 565.73 605.214C563.813 605.968 562.197 607.82 562.197 609.242C562.197 613.872 557.997 614.799 556.813 610.34ZM556.145 594.854C556.145 589.642 556.059 589.642 552.182 593.174C549.921 595.113 548.154 597.547 548.154 598.473C548.154 599.399 549.921 600.153 552.182 600.153C555.133 600.153 556.145 598.817 556.145 594.854ZM575.658 611.848C572.643 610.771 570.188 609.091 570.188 608.165C570.188 605.387 573.806 603.943 575.163 606.14C577.187 609.414 586.19 608.488 587.612 604.87C589.12 600.756 583.412 596.211 578.265 597.547C573.311 598.817 571.545 595.285 573.052 587.036C574.323 580.402 574.732 580.144 583.24 580.144C588.193 580.144 592.156 581.07 592.156 582.169C592.156 583.246 589.033 584.172 585.178 584.172C579.535 584.172 578.2 584.925 578.2 588.134C578.2 590.999 579.535 592.162 582.895 592.162C585.415 592.162 589.034 593.778 590.886 595.781C599.479 605.3 588.797 616.565 575.658 611.848ZM606.63 611.934C597.627 608.574 596.033 590.568 604.024 583.332C606.457 581.156 610.248 580.144 614.534 580.553C622.783 581.307 622.525 585.184 614.19 585.184C608.805 585.184 604.347 588.479 604.261 592.593C604.261 593.347 607.298 593.433 611.002 592.766C616.796 591.84 618.411 592.507 621.276 596.879C624.377 601.682 624.463 602.608 621.599 606.894C617.894 612.451 612.768 614.217 606.63 611.934ZM617.227 603.448C617.227 597.633 611.002 594.531 607.125 598.387C602.581 602.931 605.445 608.574 611.928 607.82C615.547 607.389 617.227 605.968 617.227 603.448ZM363.983 596.211C363.983 583.245 364.586 580.144 367.02 580.144C369.368 580.144 369.97 583.095 369.97 594.187C369.97 608.165 369.97 608.165 378.047 608.165C382.419 608.165 386.038 609.091 386.038 610.168C386.038 611.266 381.063 612.192 375.011 612.192H363.983V596.211ZM392.004 596.211C392.004 580.144 392.004 580.144 400.167 580.144C411.948 580.144 416.062 583.009 416.062 591.172C416.062 598.99 412.034 602.177 402.191 602.177C396.958 602.177 396.032 602.931 396.032 607.239C396.032 609.931 395.127 612.192 394.028 612.192C392.844 612.192 392.004 605.537 392.004 596.211ZM409.924 594.359C412.616 589.384 407.49 583.676 401.265 584.602C398.056 585.011 396.893 586.778 396.376 591.667C395.795 597.719 396.204 598.15 401.847 598.15C405.81 598.15 408.588 596.793 409.924 594.359ZM422.049 612.365V580.144H432.818C445.095 580.144 449.209 583.332 447.271 591.172C446.517 593.929 447.12 597.891 448.541 600.153C453 607.325 448.369 611.094 434.326 611.784L422.049 612.365ZM443.071 603.19C443.071 600.002 441.563 599.076 435.576 598.559C428.597 598.064 428.015 598.322 428.015 603.19C428.015 608.079 428.683 608.402 435.576 607.82C441.563 607.325 443.071 606.399 443.071 603.19ZM441.046 589.147C441.046 586.11 439.538 585.011 434.584 584.516C428.683 583.999 428.015 584.43 428.015 589.147C428.015 593.929 428.683 594.359 434.584 593.864C439.538 593.347 441.046 592.249 441.046 589.147ZM486.06 609.5C486.06 608.079 489.765 603.448 494.223 599.313C505.509 588.888 502.731 581.565 489.593 587.122C487.159 588.134 486.06 587.618 486.06 585.615C486.06 579.218 502.731 577.861 506.004 583.999C508.697 589.061 507.017 593.691 499.436 601.682L493.297 608.165H500.706C504.82 608.165 508.115 609.091 508.115 610.168C508.115 611.266 503.14 612.192 497.088 612.192C489.269 612.192 486.06 611.439 486.06 609.5ZM515.417 610.857C511.562 606.981 514.34 604.633 520.134 606.808C524.592 608.488 526.703 608.488 528.382 606.722C531.656 603.534 529.05 598.15 524.182 598.15C519.293 598.15 519.035 595.695 523.342 589.147C526.53 584.258 526.53 584.172 520.392 584.172C516.946 584.172 514.167 583.246 514.167 582.169C514.167 581.07 518.626 580.144 524.182 580.144C535.188 580.144 537.041 582.923 530.149 589.147C526.121 592.766 526.121 592.851 530.644 595.027C535.792 597.633 537.558 605.042 534.025 609.328C531.656 612.192 517.958 613.377 515.417 610.857ZM367.343 478.334L345.654 466.553L310.31 473.962C290.797 478.011 272.791 482.469 270.271 483.891C265.21 486.583 258.813 485.398 260.924 482.125C261.592 480.94 261.354 480.1 260.514 480.1C259.588 480.1 234.497 474.543 204.817 467.91C157.434 457.227 149.12 455.87 137.253 456.882C129.844 457.55 123.792 457.313 123.792 456.301C123.792 453.931 130.942 452.079 139.773 452.079C148.194 452.015 194.113 434.763 189.827 433.234C175.203 428.194 143.736 424.166 128.508 425.329C117.825 426.083 111.752 425.846 111.752 424.575C111.752 423.477 119.161 422.056 128.25 421.474C144.985 420.203 163.745 416.24 163.745 413.892C163.745 410.942 141.883 408.68 126.742 410.016C117.976 410.856 109.9 411.028 108.888 410.36C105.355 408.336 114.789 406.247 128.745 406.161C141.281 405.988 153.234 403.963 161.806 400.603C167.88 398.17 148.345 396.318 126.742 397.244C112.678 397.912 105.872 397.567 107.724 396.404C109.404 395.392 120.668 393.948 132.794 393.281C157.025 391.945 164.347 390.502 162.495 387.552C161.741 386.302 151.296 386.044 133.548 386.97C116.124 387.896 105.7 387.724 105.7 386.475C105.7 385.463 117.826 384.019 133.118 383.352C148.108 382.684 161.397 381.176 162.495 379.992C163.917 378.549 155.259 378.398 134.302 379.238C105.441 380.488 104.106 380.401 104.429 376.783C104.86 371.484 117.89 366.014 130.512 365.777C140.441 365.519 140.526 365.518 133.807 363.838C129.93 362.912 121.939 362.654 115.973 363.321C107.207 364.334 105.355 364.011 106.13 361.728C107.466 357.786 826.037 356.516 833.037 360.393C837.151 362.74 836.978 362.912 829.419 364.097C821.406 365.346 821.407 365.346 830.41 365.691C835.385 365.777 841.265 367.198 843.461 368.706C845.637 370.235 849.191 372.001 851.366 372.669C853.649 373.25 841.868 373.509 825.37 373.014C808.118 372.583 797.435 372.928 800.386 373.854C803.078 374.78 814.342 375.706 825.37 375.943C836.397 376.201 847.661 377.127 850.44 378.053C853.563 379.238 845.809 379.561 829.074 379.152C814.687 378.721 801.721 379.065 800.472 379.905C797.521 381.672 818.047 383.933 837.56 383.933C846.326 383.933 852.723 384.859 853.563 386.216C854.64 387.896 848.76 388.155 831.099 387.056C817.96 386.302 804.585 386.302 801.312 387.142C795.346 388.65 795.346 388.65 801.312 390.33C804.672 391.256 817.465 392.613 829.914 393.281C842.794 393.948 852.378 395.391 852.378 396.555C852.378 397.825 845.4 398.084 832.865 397.33C812.834 396.146 796.337 397.33 796.337 399.936C796.337 402.198 807.192 404.136 828.816 405.73C846.068 407.086 852.874 408.594 850.182 410.532C849.772 410.942 841.782 410.619 832.348 409.865C816.884 408.681 796.337 410.942 796.337 413.806C796.337 416.24 812.834 419.944 829.332 421.215C838.831 421.969 847.08 423.477 847.748 424.575C848.588 425.932 843.461 426.083 832.779 425.243C818.133 423.994 785.503 428.194 770.34 433.234C765.731 434.763 812.253 451.929 821.342 452.079C828.988 452.252 839.671 455.288 835.385 456.042C834.286 456.301 828.148 456.301 821.665 456.042C809.044 455.547 697.65 479.432 699.416 482.297C701.526 485.657 695.474 486.238 689.573 483.223C686.127 481.457 667.625 476.912 648.607 473.122L613.867 466.23L591.898 478.334L569.865 490.46L480.008 473.617L440.551 481.112C386.189 491.558 392.263 491.795 367.343 478.248V478.334ZM453.086 411.696C476.304 409.176 478.737 408.68 477.23 406.311C476.648 405.321 464.953 403.468 451.147 402.111C415.803 398.579 343.199 404.545 368.032 408.853C411.022 416.413 410.354 416.326 453.086 411.696ZM571.803 412.212C607.879 406.828 606.888 405.73 562.369 401.939C541.499 400.087 529.481 400.173 508.783 402.111C473.525 405.407 473.784 408.249 509.623 412.298C546.302 416.412 543.782 416.412 571.803 412.212ZM318.969 410.016C353.559 407.323 357.349 406.57 354.14 403.382C350.867 400.087 286.339 400.517 272.188 403.963C266.395 405.32 262.109 406.914 262.604 407.41C264.37 409.09 284.809 413.548 287.932 412.88C289.526 412.557 303.505 411.2 318.969 410.016ZM214.811 409.003C254.355 405.988 262.518 404.631 260.838 401.939C257.736 396.899 188.492 398.752 165.855 404.481L156.766 406.742L165.855 409.176C170.744 410.533 175.267 411.696 175.784 411.782C176.366 411.954 193.963 410.619 214.811 409.003ZM688.647 409.693L699.265 407.323L690.262 404.545C677.964 400.776 609.58 399.936 605.962 403.468C604.519 404.89 603.852 406.075 604.261 406.247C607.815 407.173 657.438 411.545 666.699 411.696C672.924 411.868 682.853 410.942 688.647 409.693ZM791.21 409.693C798.189 408.25 801.721 406.828 800.041 405.902C789.875 400.345 709.345 396.554 701.44 401.271C697.994 403.296 698.252 403.705 704.477 405.062C708.268 405.902 725.261 407.668 742.341 409.003C759.42 410.36 774.798 411.631 776.5 411.696C778.266 411.868 784.9 410.942 791.21 409.693ZM400.835 397.998C416.816 396.555 423.73 395.133 426.573 392.527C430.363 389.081 430.126 388.995 418.754 387.724C402.601 385.958 356.574 389.662 348.002 393.453C340.937 396.468 340.937 396.469 351.965 399.01C358.017 400.345 366.589 401.099 370.962 400.69C375.42 400.259 388.816 399.096 400.835 397.998ZM506.5 398.751C537.881 396.317 535.619 390.33 502.128 387.315C474.365 384.774 437.6 387.638 432.56 392.7C429.782 395.392 429.696 396.059 432.129 396.145C433.723 396.317 444.083 397.567 455.11 399.01C466.03 400.432 478.242 401.272 482.184 400.862C486.061 400.432 497.002 399.505 506.5 398.751ZM613.199 398.084L621.189 396.899L612.187 393.453C596.787 387.551 532.173 384.774 532.173 390.007C532.173 394.293 540.336 396.468 565.492 398.837C580.72 400.345 595.861 401.013 599.221 400.431C602.495 399.763 608.805 398.752 613.199 398.084ZM317.957 396.059C327.304 395.219 338.159 393.194 341.95 391.514C349.014 388.564 349.014 388.564 335.381 387.056C319.809 385.29 271.607 388.736 259.244 392.441L250.909 394.961L260.924 397.244C270.767 399.505 284.056 399.247 317.957 396.059ZM699.265 397.158L709.259 394.702L701.117 392.354C688.582 388.736 643.051 385.548 627.242 387.142C613.199 388.564 613.199 388.564 621.513 392.096C626.897 394.379 639.109 396.318 655.586 397.567C689.164 400.022 687.72 400.022 699.265 397.158ZM211.882 395.973C226.678 394.874 243.435 392.936 248.884 391.687C258.813 389.317 258.813 389.318 252.933 387.552C242.746 384.536 169.388 389.49 162.905 393.626C160.557 395.047 169.56 397.394 178.821 397.739C182.095 397.911 196.977 397.071 211.882 395.973ZM791.383 396.318C795.755 395.543 798.447 394.293 797.263 393.54C791.124 389.663 721.298 384.946 710.271 387.638C703.293 389.318 703.293 389.318 712.037 391.773C726.338 395.801 777.749 398.752 791.383 396.318ZM230.9 382.512C255.367 380.25 235.509 378.398 205.571 380.164C190.839 381.004 177.206 381.758 175.203 381.844C173.006 381.931 172.166 382.856 173.006 384.278C174.363 386.475 195.125 385.872 230.9 382.512ZM318.969 381.931C328.984 380.401 328.984 380.401 316.965 379.905C300.381 379.065 272.964 379.82 260.924 381.327C252.352 382.426 251.576 382.856 255.884 384.106C261.268 385.785 302.406 384.364 318.969 381.931ZM401.933 381.844C407.145 378.808 369.712 378.484 345.977 381.327C335.208 382.684 335.122 382.684 341.95 384.192C350.866 386.044 397.819 384.278 401.933 381.844ZM469.821 382.081C478.996 380.746 478.996 380.746 464.113 379.475C455.864 378.721 442.317 378.979 434.068 379.905C425.819 380.918 417.656 381.844 416.062 382.081C414.382 382.253 416.148 383.093 420.025 384.019C427.175 385.635 453.172 384.623 469.821 382.081ZM539.151 384.106L547.142 382.598L538.139 381.327C518.626 378.635 508.611 378.226 496.076 379.647L483.11 381.177L497.088 382.684C504.82 383.524 512.057 384.536 513.155 384.946C516.687 386.13 530.989 385.699 539.151 384.106ZM621.189 384.106C628.749 382.684 628.427 382.512 614.19 381.241C583.154 378.549 552.268 378.808 555.219 381.844C558.428 384.946 608.051 386.712 621.189 384.106ZM704.305 384.019C708.849 382.684 708.591 382.426 701.268 381.327C685.287 378.807 634.479 378.721 636.912 381.241C639.863 384.192 695.797 386.475 704.305 384.019ZM790.37 383.61C784.146 381.004 731.895 378.225 722.31 379.992C716.409 381.004 717.766 381.413 730.301 382.598C756.728 384.945 761.014 385.204 778.331 385.463C791.792 385.635 794.333 385.204 790.37 383.61ZM234.841 373.595C237.124 372.669 225.752 372.497 208.845 373.164C192.347 373.854 177.464 375.189 175.784 376.115C171.994 378.398 229.371 375.943 234.841 373.595ZM304.84 373.681C307.123 371.57 299.972 371.398 271.197 373.25C259.502 373.94 249.897 375.361 249.897 376.373C249.897 378.635 302.234 376.115 304.84 373.681ZM359.783 376.632C379.555 375.189 381.063 372.001 361.959 371.915C341.95 371.915 316.88 374.435 321.079 376.115C326.119 378.053 336.974 378.226 359.783 376.632ZM434.649 376.632C443.157 375.792 447.357 374.693 445.677 373.595C442.489 371.57 406.133 371.398 395.041 373.423C387.05 374.78 387.05 374.78 394.028 376.115C403.871 377.967 418.754 378.14 434.649 376.632ZM502.882 375.857C508.266 375.792 508.61 375.447 505.423 373.681C501.029 371.075 459.482 370.731 455.692 373.25C452.073 375.62 469.993 377.709 484.876 376.697C491.359 376.287 499.522 375.857 502.882 375.857ZM564.136 376.46C575.163 375.103 575.163 375.103 567.172 373.595C556.576 371.656 521.404 371.484 516.773 373.337C509.623 376.287 546.302 378.721 564.136 376.46ZM641.112 376.115C643.719 375.103 639.195 374.09 628.168 373.25C603.679 371.398 582.141 371.657 582.141 373.854C582.141 376.955 633.876 378.979 641.112 376.115ZM713.221 376.115C710.788 373.853 652.721 370.989 654.918 373.25C656.684 375.017 678.05 377.041 701.182 377.623C709.345 377.795 714.32 377.213 713.221 376.115ZM785.244 376.201C782.875 373.94 720.803 371.075 722.978 373.337C723.904 374.177 733.747 375.447 745.033 376.029C779.515 377.967 787.269 378.053 785.244 376.201ZM161.806 373.94C164.585 373.014 153.73 372.755 137.748 373.337C121.853 373.94 108.392 374.78 107.896 375.189C106.195 376.696 157.025 375.448 161.806 373.854V373.94ZM283.884 369.223C287.76 368.878 280.782 368.469 268.333 368.296C255.884 368.038 246.041 368.62 246.537 369.395C247.377 370.817 267.149 370.73 283.884 369.223ZM151.382 368.469C147.268 368.039 140.031 368.039 135.314 368.469C130.598 368.879 133.979 369.223 142.809 369.223C151.64 369.223 155.431 368.879 151.382 368.469ZM220.454 368.469C214.747 368.039 204.817 368.039 198.421 368.469C192.024 368.879 196.741 369.136 208.845 369.223C220.971 369.223 226.183 368.879 220.454 368.469ZM344.556 368.469C337.728 368.039 326.033 368.039 318.559 368.469C311.064 368.792 316.621 369.136 330.922 369.136C345.31 369.136 351.362 368.879 344.556 368.469ZM407.985 368.124C407.985 366.53 374.084 367.543 372.146 369.223C371.737 369.632 379.555 369.89 389.656 369.89C399.736 369.89 407.985 369.137 407.985 368.124ZM467.042 367.866C468.572 365.518 446.28 365.518 437.018 367.866C432.818 368.964 436.178 369.481 448.455 369.632C458.126 369.804 466.375 369.051 467.042 367.866ZM524.096 367.866C516.601 365.518 490.346 365.518 494.137 367.866C495.731 368.964 504.325 369.718 513.155 369.632C524.183 369.546 527.629 368.964 524.096 367.866ZM588.042 369.136C587.612 368.706 578.2 367.866 567.172 367.198C553.711 366.272 548.154 366.531 550.179 367.866C552.871 369.632 590.045 370.903 588.042 369.136ZM631.183 367.952C619.079 367.284 607.879 367.456 606.199 368.296C604.519 369.136 614.448 369.632 628.254 369.482L653.238 369.136L631.183 367.952ZM703.874 368.383C697.563 367.952 686.794 367.952 679.816 368.383C672.924 368.792 678.05 369.136 691.274 369.136C704.477 369.136 710.185 368.792 703.874 368.383ZM765.882 368.383C759.485 367.952 749.147 367.952 742.836 368.383C736.526 368.792 741.652 369.136 754.359 369.136C766.98 369.136 772.193 368.792 765.882 368.383ZM825.951 368.469C821.838 368.039 814.687 368.039 809.97 368.383C805.253 368.792 808.548 369.223 817.379 369.223C826.21 369.223 830.087 368.792 825.951 368.469ZM199.347 364.42C196.31 363.924 191.356 363.924 188.319 364.42C185.282 364.851 187.824 365.26 193.876 365.26C199.928 365.26 202.362 364.937 199.347 364.42ZM256.379 364.42C253.946 364.011 249.896 364.011 247.377 364.42C244.943 364.937 246.967 365.346 251.921 365.346C256.896 365.346 258.899 364.937 256.379 364.42ZM649.792 364.506C647.853 364.011 644.235 364.011 641.801 364.42C639.26 364.937 640.875 365.346 645.247 365.346C649.62 365.432 651.73 365.023 649.792 364.506ZM715.828 364.42C712.812 364.011 707.427 364.011 703.809 364.42C700.255 364.851 702.711 365.26 709.259 365.26C715.914 365.26 718.864 364.937 715.828 364.42ZM771.869 364.42C768.918 364.011 763.448 364.011 759.916 364.42C756.297 364.851 758.731 365.26 765.386 365.26C771.955 365.26 774.884 364.937 771.869 364.42ZM446.603 475.06C476.045 469.589 476.045 469.59 476.045 463.775C476.045 460.673 475.894 458.067 475.636 458.067C475.291 458.067 459.31 455.375 440.034 452.079L405.035 446.113L380.977 454.448C367.774 458.993 356.337 463.193 355.583 463.861C354.808 464.55 362.82 469.676 373.417 475.319C392.585 485.485 392.585 485.485 404.797 482.965C411.517 481.629 430.363 478.097 446.603 475.06ZM587.181 475.146C599.049 468.749 605.962 463.947 604.196 463.365C602.581 462.784 591.23 458.734 579.04 454.19L556.813 445.941L521.662 452.015C502.3 455.375 485.479 458.067 484.122 458.067C482.787 458.067 482.119 460.329 482.442 463.538C483.045 468.664 484.122 469.245 496.076 471.615C509.278 474.221 564.308 485.312 566.16 485.743C566.742 485.915 576.175 481.112 587.181 475.146ZM304.926 470.171C321.424 466.811 336.888 463.624 339.257 463.107C343.285 462.181 343.371 461.771 340.851 450.916C339.43 444.692 337.814 439.221 337.233 438.618C336.738 438.123 319.809 435.517 299.714 432.997C263.207 428.28 263.207 428.28 231.977 431.984C201.35 435.603 198.421 436.443 163.831 450.485C159.631 452.165 166.437 454.19 206.821 463.365C233.248 469.331 258.059 474.974 261.936 475.9C265.727 476.826 270.271 477.322 271.951 476.912C273.545 476.568 288.428 473.553 304.926 470.171ZM750.331 463.861C769.586 459.488 788.26 455.375 791.878 454.707C795.41 454.018 798.361 452.941 798.361 452.252C798.361 451.584 789.1 447.47 777.835 443.163C760.756 436.615 752.334 434.763 727.437 431.898C697.908 428.538 697.068 428.539 660.733 432.997C640.444 435.517 623.193 438.382 622.353 439.308C621.104 440.643 616.128 461.771 616.968 462.181C617.141 462.181 633.875 465.626 654.25 469.762C689.831 476.998 691.77 477.236 703.292 474.544C709.862 473.036 731.055 468.233 750.331 463.861ZM379.641 450.163C400.253 442.84 400.253 442.84 395.708 436.938C393.275 433.664 391.164 430.8 390.906 430.541C390.733 430.218 380.395 431.64 367.774 433.664C344.965 437.369 344.965 437.369 345.654 444.003C345.977 447.707 347.162 452.855 348.174 455.547C350.263 461.018 348.26 461.341 379.641 450.163ZM613.522 448.978C615.891 436.27 618.584 438.037 588.452 432.997C578.2 431.231 569.52 430.132 569.348 430.477C569.111 430.714 566.914 433.664 564.394 436.938C559.936 442.84 559.935 442.84 583.584 451.326C596.615 456.042 608.224 459.92 609.408 459.92C610.571 460.006 612.424 455.116 613.522 448.978ZM500.124 451.089C558.751 441.828 554.96 443.098 561.702 429.637C565.406 422.314 493.641 410.856 465.125 414.151C457.372 415.078 442.661 416.757 432.388 417.942C420.606 419.277 410.419 421.797 404.884 424.575C395.967 429.12 395.967 429.12 401.502 435.689C406.887 442.086 407.899 442.409 441.046 447.965C482.27 454.944 477.143 454.707 500.124 451.089ZM366.417 429.788C381.063 427.526 396.032 424.08 399.65 422.228C406.305 418.782 406.305 418.781 379.641 414.905C354.312 411.2 351.276 411.2 318.969 414.065C292.822 416.412 283.129 418.092 277.25 421.215C269.582 425.243 269.582 425.243 302.234 429.465C320.239 431.726 336.048 433.664 337.405 433.836C338.827 433.923 351.879 432.157 366.417 429.788ZM665.191 428.28C689.163 425.006 689.163 425.006 680.161 420.548C673.01 416.93 665.02 415.487 639.432 413.484C609.904 411.028 605.79 411.114 581.043 414.905C555.887 418.781 554.637 419.191 559.763 421.797C562.714 423.326 576.412 426.686 590.218 429.206C617.141 434.16 621.857 434.095 665.191 428.28ZM268.419 420.957C272.533 418.932 275.893 416.671 275.893 416.004C275.893 415.314 270.422 413.721 263.788 412.471C241.238 408.25 142.961 418.265 161.806 422.809C193.963 430.627 201.78 431.145 231.74 427.849C250.413 425.846 263.616 423.326 268.419 420.957ZM777.34 427.095C786.17 425.415 795.583 423.477 798.361 422.809C817.551 418.179 720.717 408.336 695.797 412.385C681.496 414.733 680.742 416.089 690.843 421.301C696.809 424.403 751.839 432.243 758.322 430.886C760.002 430.477 768.574 428.861 777.34 427.095ZM673.419 642.389C667.949 631.62 666.958 628.174 669.219 628.174C673.268 628.174 685.287 651.995 682.594 654.687C681.259 656.023 678.222 651.909 673.419 642.389ZM273.89 652.081C273.89 648.872 286.511 626.171 288.277 626.171C292.046 626.171 291.12 630.37 285.154 641.139C278.93 652.404 273.89 657.293 273.89 652.081ZM724.658 651.155C725.003 649.303 734.845 642.238 746.541 635.496C780.032 616.069 805.339 596.965 830.582 572.067C875.252 528.151 901.334 484.817 915.57 430.972C922.872 403.382 924.638 353.565 919.512 324.467C897.888 204.07 790.284 100.321 639.605 54.8117C592.566 40.5966 549.748 33.8769 495.58 32.2615C473.87 31.5938 456.122 30.3231 456.122 29.5693C456.122 25.0247 474.796 24.5294 519.121 27.6309C619.251 34.7169 712.468 66.9374 786.408 119.77C858.021 171.009 903.531 234.007 921.946 307.301C926.921 327.073 927.417 332.199 927.417 367.952C927.503 399.161 926.749 410.102 923.712 422.981C902.26 514.776 839.348 590.568 737.624 646.933C726.941 652.921 724.077 653.847 724.658 651.155ZM692.868 647.773C691.769 646.352 688.324 640.472 685.287 634.656C679.988 624.727 679.493 620.183 684.037 622.961C687.72 625.244 698.338 646.933 696.658 648.613C695.732 649.539 694.031 649.216 692.868 647.773ZM259.912 646.093C259.912 642.733 273.631 622.121 275.893 622.121C279.188 622.121 278.262 625.245 271.435 636.94C265.555 647.02 259.912 651.478 259.912 646.093ZM245.869 640.795C245.869 637.607 261.096 616.156 263.358 616.156C266.976 616.156 266.739 616.823 258.404 630.198C252.007 640.386 245.869 645.598 245.869 640.795ZM699.416 630.694C694.807 623.306 693.04 618.589 694.29 617.319C696.573 615.057 695.883 614.304 704.972 628.691C713.221 641.721 713.394 642.152 709.431 642.152C707.923 642.152 703.379 637.004 699.416 630.694ZM233.334 634.915C231.309 632.891 247.721 610.082 251.167 610.082C253.946 610.082 253.946 610.771 250.737 615.639C236.608 637.435 236.284 637.845 233.248 634.915H233.334ZM713.394 625.654C706.415 615.402 704.649 610.082 708.009 610.082C710.034 610.082 724.335 631.125 724.335 634.162C724.335 638.857 719.963 635.496 713.394 625.654ZM725.67 618.762C714.643 602.522 717.938 598.387 729.375 613.959C737.365 624.814 739.132 630.284 734.673 630.026C733.919 630.026 729.87 624.9 725.67 618.762ZM219.872 626.494C219.872 625.158 233.42 605.882 236.694 602.695C237.124 602.092 238.546 602.263 239.816 603.017C242.509 604.697 226.42 628.088 222.565 628.088C221.035 628.088 219.872 627.334 219.872 626.494ZM208.436 620.441C205.894 618.934 222.392 596.125 226.011 596.125C230.555 596.125 226.851 602.608 211.968 620.527C211.365 621.281 209.771 621.281 208.436 620.441ZM737.538 610.34C729.461 599.916 728.104 596.125 732.325 596.125C734.587 596.125 752.097 619.688 750.827 620.937C748.393 623.392 746.282 621.777 737.538 610.34ZM195.039 612.451C193.876 610.512 211.042 589.061 213.885 589.061C217.762 589.061 216.168 592.679 207.575 603.19C198.744 614.045 196.892 615.401 195.039 612.451ZM83.9034 272.97C71.8852 268.856 65.5745 263.795 72.2944 263.795C77.1835 263.795 99.2166 272.625 99.6474 274.736C100.315 278.01 97.3646 277.686 83.9034 272.97ZM858.431 275.49C858.431 271.548 887.873 261.361 889.23 264.893C889.897 266.745 886.02 268.942 876.867 271.957C869.458 274.391 862.307 276.847 860.951 277.342C859.615 277.773 858.431 277.019 858.431 275.49ZM89.2879 260.348C81.2973 257.333 75.7406 254.038 75.7406 252.358C75.7406 249.17 77.6786 249.58 94.4351 256.407C104.364 260.435 108.564 264.139 104.429 265.065C103.503 265.324 96.697 263.127 89.2879 260.348ZM852.464 263.127C852.464 261.705 858.517 258.324 865.839 255.632C873.249 252.939 880.055 250.506 880.895 250.097C881.735 249.752 882.489 250.764 882.489 252.272C882.489 253.952 876.867 257.333 868.876 260.435C853.304 266.573 852.464 266.745 852.464 263.127ZM58.1654 327.568C60.1038 322.098 59.7589 320.935 55.9036 317.984C50.9284 314.279 52.1993 311.846 59.0915 311.846C62.4514 311.846 64.4759 310.079 66.4143 305.363L69.1065 298.88L70.5283 305.19C71.7129 310.316 73.2203 311.674 79.0355 312.772C86.0138 314.108 86.0138 314.107 80.9739 318.07C76.6663 321.43 76.2573 322.851 77.8511 327.073C80.6295 334.31 80.3712 334.483 73.8883 330.692C68.4392 327.397 67.7496 327.396 62.9681 330.519C56.0545 335.063 55.6454 334.805 58.1654 327.568ZM880.636 322.356C882.489 317.553 882.079 316.39 877.104 312.427C871.483 307.883 871.482 307.883 878.547 307.883C884.599 307.883 885.956 306.957 888.217 301.314L890.91 294.853L892.762 301.314C894.442 307.129 895.368 307.883 902.023 307.883C909.497 307.969 909.497 307.969 903.875 312.599C899.158 316.476 898.491 318.156 899.654 322.938C901.183 328.753 901.183 328.753 895.799 325.221C890.909 322.011 889.983 322.012 885.956 324.79C879.645 329.248 878.289 328.667 880.636 322.442V322.356ZM215.328 129.01C208.845 120.869 206.497 116.475 208.091 115.549C210.202 114.214 213.476 117.66 228.273 136.936C229.285 138.358 229.048 139.628 227.432 140.21C226.011 140.705 220.626 135.838 215.328 129.01ZM729.805 138.53C728.707 137.345 746.282 114.299 747.725 115.053C748.134 115.226 749.319 115.635 750.417 116.066C752.506 116.733 735.255 139.715 732.649 139.715C731.723 139.715 730.473 139.111 729.805 138.53ZM228.121 122.786C219.528 111.435 218.106 107.644 222.392 107.644C225.085 107.731 239.882 127.933 239.882 131.552C239.882 136.096 236.026 133.232 228.121 122.786ZM718.864 132.392C715.827 131.121 731.809 107.644 735.772 107.644C737.193 107.644 738.378 108.247 738.378 108.829C738.378 109.927 722.052 133.899 721.556 133.555C721.384 133.404 720.2 132.887 718.864 132.392ZM240.14 115.053C235.014 107.321 232.731 102.023 233.915 100.838C235.014 99.7397 236.198 99.3306 236.521 99.826C236.952 100.257 240.98 106.223 245.524 112.943C251.663 122.204 253.106 125.564 250.995 126.318C249.229 127.093 245.352 123.044 240.14 115.053ZM70.7005 473.962C70.0328 472.863 72.0574 471.011 75.1588 469.762C95.4261 461.857 101.737 460.415 101.737 463.775C101.737 464.701 95.4262 467.91 87.6079 470.775C71.3682 476.827 72.3804 476.568 70.7005 473.962ZM869.867 470.516C862.394 467.737 856.578 464.55 856.923 463.538C857.763 460.932 857.849 460.931 874.002 466.143C882.165 468.749 888.476 471.938 888.476 473.381C888.476 476.999 885.698 476.482 869.867 470.516ZM63.7221 460.092C63.7221 457.055 94.4997 448.31 96.2012 450.83C97.1274 452.165 92.583 454.707 84.3339 457.464C69.9466 462.353 63.7221 463.107 63.7221 460.092ZM874.928 457.722C863.578 454.19 858.258 449.99 865.258 449.99C870.728 449.99 894.442 458.153 894.442 460.092C894.442 462.784 889.316 462.181 874.928 457.722ZM57.7348 443.249C57.7348 442.667 58.6608 439.803 59.8454 436.788C61.6976 431.899 61.2884 430.713 56.3131 426.686C50.7563 422.141 50.7564 422.141 57.907 422.055C64.3038 421.969 65.4021 421.215 67.1682 415.486L69.2788 408.939L71.7127 415.486C73.8234 421.129 75.0727 421.969 81.4695 422.055C88.7924 422.055 88.7924 422.055 83.1495 426.686C78.605 430.477 77.7649 432.329 78.8633 436.615C80.2848 442.581 78.6051 443.249 72.9622 438.963C69.6023 436.443 68.5036 436.615 63.4637 440.147C60.2761 442.409 57.7348 443.766 57.7348 443.249ZM880.571 432.652C882.424 427.935 881.907 426.686 877.039 422.637C871.482 418.092 871.482 418.093 878.805 418.006C885.18 418.006 886.365 417.167 888.562 411.459L890.996 404.976L893.02 411.459C894.786 417.167 895.885 418.006 902.26 418.006C909.497 418.093 909.497 418.092 904.113 422.551C899.913 426.083 898.986 428.194 899.913 432.652C901.011 438.381 901.011 438.381 895.196 435.344C890.242 432.738 888.885 432.738 885.525 435.172C879.796 439.393 878.288 438.618 880.571 432.652ZM52.6948 382.017C53.7932 376.955 53.2115 375.102 49.4208 371.915C44.704 368.038 44.7042 368.038 50.8425 367.952C55.8178 367.952 57.6699 366.617 60.1898 361.405L63.3776 354.922L65.7465 361.405C67.7495 366.854 69.1927 367.952 74.491 367.952C80.8017 368.038 80.8018 368.038 76.085 371.915C72.2943 375.102 71.7126 376.955 72.811 382.017C74.1464 388.241 74.1463 388.241 68.4387 385.29C63.3773 382.684 62.0423 382.684 56.9809 385.29C51.3595 388.241 51.3594 388.241 52.6948 382.017ZM84.5922 499.7C82.9769 497.18 82.5679 497.438 98.5491 490.201C114.444 483.051 113.776 483.223 113.776 486.583C113.776 490.029 86.186 502.327 84.5922 499.7ZM859.357 495.5C842.535 487.854 843.203 488.349 845.723 485.915C848.502 483.051 876.781 496.254 874.756 499.463C873.744 501.229 869.458 500.13 859.357 495.5ZM94.0907 247.404C85.3463 243.097 82.0508 240.663 83.58 239.156C85.8415 236.872 110.33 247.059 111.429 250.764C112.505 254.641 106.712 253.457 94.0907 247.404ZM846.412 251.69C846.412 249.752 870.729 237.712 874.67 237.712C880.313 237.712 874.756 242.687 863.233 247.813C848.932 254.296 846.412 254.878 846.412 251.69ZM884.427 383.093C884.427 382.598 885.353 379.906 886.365 377.127C888.045 372.841 887.55 371.398 883.091 367.952C877.944 363.924 877.944 363.925 884.341 363.925C889.725 363.925 891.254 362.826 893.106 357.851C894.356 354.577 895.95 351.885 896.79 351.885C897.565 351.885 898.728 354.577 899.482 357.851C900.58 362.998 901.765 363.925 907.149 364.011C913.546 364.011 913.546 364.011 908.829 367.952C905.039 371.075 904.457 373.013 905.555 378.053C906.891 384.278 906.891 384.278 901.851 381.004C897.22 377.881 896.294 377.881 890.651 380.832C887.205 382.598 884.513 383.61 884.513 383.093H884.427ZM76.925 486.239C75.9127 484.645 100.488 473.962 105.355 473.962C111.515 473.962 106.626 478.011 94.7585 482.792C80.5434 488.435 78.5188 488.866 76.925 486.239ZM863.492 482.62C849.514 476.827 849.104 476.482 851.538 474.134C853.714 472.109 880.981 482.555 882.079 485.829C883.264 489.275 876.436 488.091 863.492 482.62ZM749.728 603.276C739.562 591.494 738.873 590.073 743.094 590.073C746.454 590.073 764.719 611.094 762.952 612.86C760.583 615.229 759.162 614.131 749.728 603.276ZM182.677 603.943C180.824 600.842 202.125 579.541 204.645 582.083C205.808 583.332 203.051 587.876 196.654 594.854C186.122 606.463 184.787 607.325 182.677 603.943ZM761.337 594.941C755.199 587.876 752.507 583.159 753.691 581.91C754.962 580.639 759.334 584.258 765.882 591.753C775.057 602.349 776.737 606.14 772.279 606.14C771.439 606.14 766.571 601.079 761.337 594.941ZM773.635 587.294C763.706 575.685 762.866 574.092 766.98 574.092C770.189 574.092 788.69 595.113 786.924 596.879C784.577 599.248 782.724 597.977 773.635 587.294ZM169.818 594.618C169.818 591.172 190.581 572.476 193.273 573.489C195.384 574.329 193.273 577.624 185.541 585.356C176.043 594.94 169.818 598.645 169.818 594.618ZM158.877 586.196C157.434 583.848 179.898 563.818 182.353 565.326C184.205 566.51 164.348 588.048 161.483 588.048C160.729 588.048 159.544 587.208 158.877 586.196ZM784.06 578.378C777.426 572.068 774.303 567.781 775.315 566.166C776.414 564.4 780.032 566.855 787.592 574.243C793.58 580.144 798.361 585.615 798.361 586.541C798.361 590.073 793.817 587.553 784.06 578.378ZM795.345 569.289C787.592 562.31 784.404 558.261 785.998 557.249C788.26 555.828 810.401 573.079 810.401 576.353C810.401 580.812 805.942 578.701 795.345 569.289ZM148.862 576.181C147.591 574.156 167.966 556.086 171.498 556.086C175.87 556.086 173.76 559.016 162.905 568.535C151.382 578.701 150.628 579.046 148.862 576.181ZM812.339 565.326C809.561 562.978 804.262 558.52 800.558 555.397C796.099 551.692 794.484 549.086 795.755 547.837C797.78 545.812 820.416 562.72 820.416 566.166C820.416 569.784 817.12 569.461 812.339 565.326ZM137.748 566.252C137.748 562.634 160.384 545.813 162.495 547.924C163.658 549 164.176 550.271 163.659 550.616C163.163 550.939 158.209 554.988 152.566 559.619C142.551 567.782 137.748 569.957 137.748 566.252ZM127.733 556.086C127.733 553.631 148.345 537.995 151.468 537.995C156.271 537.995 153.492 541.785 142.896 549.776C131.954 558.003 127.733 559.769 127.733 556.086ZM815.441 550.012C805.102 541.936 802.238 537.995 806.524 537.995C809.798 537.995 830.41 553.631 830.41 556.086C830.41 559.769 825.284 557.766 815.441 550.012ZM118.73 545.985C117.977 544.8 117.74 543.551 118.063 543.292C118.407 543.034 123.964 539.502 130.274 535.475C136.585 531.339 142.637 527.979 143.736 527.979C147.935 527.979 145.588 531.598 138.265 536.401C120.345 548.16 120.173 548.246 118.73 545.985ZM824.788 539.157C817.551 534.031 813.093 529.831 814.342 528.991C817.121 527.311 842.794 543.788 841.265 546.244C839.499 549.087 838.163 548.505 824.788 539.157ZM835.471 529.745C823.69 522.25 819.727 517.964 824.444 517.964C827.89 517.964 850.44 531.942 850.44 534.031C850.44 538.08 846.735 536.982 835.471 529.745ZM107.81 534.548C107.81 532.782 131.114 517.964 133.807 517.964C139.514 517.964 135.982 522.164 124.976 528.647C112.678 535.797 107.724 537.478 107.81 534.548ZM100.66 523.866C99.0443 521.173 98.2904 521.755 114.121 513.097C122.025 508.789 127.906 506.613 128.659 507.777C129.93 509.887 127.905 511.395 111.429 520.742C105.269 524.188 101.586 525.287 100.66 523.866ZM844.388 518.976C838.335 515.185 832.52 511.826 831.422 511.309C830.087 510.813 830.087 509.801 831.422 508.38C833.877 505.86 861.123 521.238 859.357 524.102C857.677 526.794 856.664 526.471 844.388 518.976ZM306.434 85.7837C301.803 75.4239 300.963 71.6329 302.902 70.8791C305.594 69.8668 318.646 96.2941 316.449 98.491C313.843 101.097 312.335 99.0726 306.434 85.7837ZM640.272 96.7893C640.272 95.7124 650.718 70.9653 651.644 69.7807C652.053 69.2854 653.238 69.7806 654.336 70.8791C656.942 73.4852 646.583 97.6293 642.965 97.6293C641.457 97.6293 640.272 97.3062 640.272 96.7893ZM324.698 92.5032C323.944 90.414 321.251 83.931 318.818 78.2019C315.867 71.5682 314.941 67.2607 316.277 66.4207C319.141 64.6546 320.648 66.8513 325.968 80.2264C329.328 88.7123 329.91 92.5032 328.316 94.097C326.722 95.7124 325.71 95.2815 324.698 92.5032ZM631.27 80.3992C633.962 73.0763 636.245 66.7653 636.245 66.4207C636.245 65.9253 637.666 65.5807 639.346 65.5807C642.965 65.5807 642.383 68.5315 635.814 84.1681C633.553 89.4018 630.515 93.6875 629.008 93.6875C626.897 93.6875 627.5 90.479 631.27 80.3992ZM338.503 88.3898C331.094 73.9163 328.144 57.0086 333.959 62.8023C337.491 66.3346 344.125 88.3036 342.187 90.242C341.11 91.3189 339.58 90.5651 338.503 88.3898ZM614.19 86.8603C614.19 80.3128 622.611 61.6396 625.562 61.6396C628.749 61.6396 628.663 62.3935 622.439 78.547C618.734 88.3898 614.19 92.934 614.19 86.8603ZM349.014 75.1652C344.556 59.7871 344.47 59.2701 347.076 58.344C349.359 57.504 358.426 83.2419 356.833 85.9342C354.485 89.811 352.46 86.9465 349.014 75.1652ZM600.233 84.1681C600.405 74.756 612.273 50.8706 612.273 59.8735C612.273 66.6794 605.445 85.6108 602.925 85.6108C601.504 85.6108 600.233 84.9434 600.233 84.1681ZM363.143 72.7313C361.377 66.6791 359.353 60.2823 358.685 58.5162C357.759 56.0824 358.34 55.4146 361.033 55.91C363.897 56.4915 370.552 72.9901 371.974 83.1775C371.974 83.4144 370.725 83.6725 369.109 83.6725C367.429 83.6725 365.082 79.3865 363.143 72.7313ZM378.112 74.2608C374.343 60.7134 373.331 51.6246 375.678 51.6246C377.703 51.6246 382.829 66.2483 384.423 76.4358C385.607 83.7587 380.309 81.9068 378.112 74.2608ZM582.227 79.3002C582.227 72.0635 589.034 53.6273 591.726 53.6273C593.837 53.6273 594.353 54.8982 593.427 58.1073C592.652 60.6273 591.058 66.9374 589.809 72.1496C588.538 77.5341 586.341 81.648 584.834 81.648C583.412 81.648 582.227 80.5494 582.227 79.3002ZM568.184 77.7069C568.184 76.4362 569.692 69.6302 571.458 62.5657C574.495 50.4398 576.584 47.338 579.04 51.2795C580.72 53.9717 573.483 78.2019 570.704 79.128C569.348 79.5588 568.184 78.9561 568.184 77.7069ZM399.327 76.0913C398.81 75.2514 397.389 68.876 396.118 61.8762C393.856 49.3411 394.438 45.0549 397.884 48.7594C399.586 50.6117 404.044 69.199 404.044 74.6697C404.044 77.7927 400.921 78.719 399.327 76.0913ZM554.207 75.9408C554.207 71.224 559.01 50.3532 560.431 48.7594C563.963 44.7965 564.48 49.8583 562.046 63.4918C560.431 72.7316 558.579 77.6208 556.813 77.6208C555.391 77.6208 554.207 76.867 554.207 75.9408ZM413.198 73.0757C411.195 66.5928 408.502 48.4147 409.342 47.0794C411.022 44.4733 413.714 45.4861 414.813 49.1045C417.505 58.3443 418.431 75.5957 416.234 75.5957C414.963 75.5957 413.628 74.4972 413.198 73.0757ZM540.164 73.2486C540.164 63.3196 544.966 45.5505 547.659 45.5505C550.006 45.5505 550.351 46.9935 549.339 52.1195C548.65 55.6517 547.487 62.4794 546.798 67.0885C546.044 72.4084 544.622 75.5957 542.942 75.5957C541.413 75.5957 540.164 74.5839 540.164 73.2486ZM427.434 72.1496C425.237 68.445 423.88 45.9812 425.733 44.7966C428.77 42.8582 429.782 45.5504 431.289 60.2823C432.216 69.2852 431.957 73.5713 430.449 73.5713C429.265 73.5713 427.929 72.9034 427.434 72.1496ZM441.304 67.0885C438.526 49.2551 438.526 43.6338 441.046 43.6338C443.997 43.6338 446.107 52.3778 446.107 64.8268C446.107 75.1004 442.726 76.6083 441.304 67.0885ZM512.143 66.0979C512.229 53.4767 514.491 43.6338 517.355 43.6338C519.466 43.6338 519.81 46.3262 518.97 56.0829C517.613 71.138 516.946 73.5713 514.167 73.5713C513.069 73.5713 512.143 70.2117 512.143 66.0979ZM527.198 60.1101C528.555 47.0796 530.73 41.4365 533.336 44.1288C534.026 44.7964 533.939 51.7102 533.185 59.4423C532.087 69.9528 530.988 73.5713 528.813 73.5713C526.358 73.5713 526.035 71.3098 527.198 60.1101ZM455.347 67.0885C452.827 57.8487 453.926 43.6338 457.114 43.6338C459.483 43.6338 460.064 46.4765 460.064 57.5901C460.064 71.3097 457.717 76.0267 455.347 67.0885ZM469.411 64.0729C467.128 50.5255 467.818 41.6087 471.091 41.6087C473.525 41.6087 474.107 44.5597 474.107 56.5779C474.107 72.4729 471.501 76.6941 469.411 64.0729ZM484.122 56.5779C484.122 44.5597 484.725 41.6087 487.159 41.6087C489.506 41.6087 490.109 44.5597 490.109 56.5779C490.109 68.6176 489.506 71.633 487.159 71.633C484.725 71.633 484.122 68.6176 484.122 56.5779ZM498.509 57.2456C498.94 48.0059 500.038 42.6213 501.632 42.1044C503.484 41.4367 504.152 45.1413 504.152 56.4056C504.152 68.7899 503.571 71.633 501.029 71.633C498.51 71.633 498.1 69.1131 498.509 57.2456ZM91.7429 511.395C91.7429 507.777 117.825 495.242 120.345 497.697C121.595 499.032 117.395 502.155 108.048 506.85C92.0663 514.927 91.7429 515.013 91.7429 511.395ZM852.464 507.777C840.188 501.143 837.151 498.623 838.831 496.857C840.597 495.156 868.445 508.616 867.778 510.899C866.679 514.432 863.406 513.764 852.464 507.777Z" fill="#22924A"/>
</svg>
