<svg width="958" height="707" viewBox="0 0 958 707" fill="none" xmlns="http://www.w3.org/2000/svg">
<path fill-rule="evenodd" clip-rule="evenodd" d="M415.099 705.308C354.846 698.531 292.608 683.815 249.085 665.866C214.747 651.803 158.039 622.003 148.739 613.241C145.081 609.81 140.856 606.947 139.325 606.947C133.768 606.947 83.0423 558.971 65.094 536.713C46.607 513.803 19.8117 466.168 19.8117 456.187C19.8117 453.436 18.3661 448.56 16.6932 445.356C14.9352 442.237 10.2849 426.5 6.40039 410.565C-0.801605 381.218 -1.56752 363.61 2.31701 315.521C3.73473 298.254 17.6001 255.268 29.2254 232.358C53.8086 183.73 103.088 131.559 159.485 94.4716C201.222 66.8828 253.962 41.8455 264.907 44.2839C269.897 45.3898 270.577 45.163 267.458 43.0648C264.708 41.1934 264.594 40.2866 266.919 40.0881C270.776 39.6344 272.789 39.0668 278.091 37.082C282.089 35.5225 293.601 32.7721 297.145 32.5452C298.251 32.4318 303.582 30.6741 308.997 28.5475C323.401 22.7916 373.248 12.045 382.322 12.6121C386.518 12.9524 391.282 12.272 392.728 11.1662C394.287 9.94696 404.353 8.38753 415.213 7.50854C425.959 6.62956 437.812 5.52389 441.469 4.84338C445.127 4.19124 458.737 2.97241 471.695 2.20685C484.766 1.29951 497.298 0.306729 499.396 0.079895C504.046 -0.458836 521.315 1.63914 569.517 8.84113C663.427 22.7914 752.913 58.4614 819.602 108.734C888.503 160.593 930.694 220.506 950.627 294.369C959.7 328.167 959.161 385.641 949.294 421.197C940.107 454.315 928.029 480.004 906.224 512.895C890.374 536.6 889.268 539.152 893.039 543.263C903.332 554.662 910.648 576.92 910.875 597.647C911.3 645.254 876.424 680.497 828.562 680.696C804.432 680.696 782.485 671.282 766.777 653.901C757.023 643.041 757.024 643.041 743.499 649.024C684.352 675.28 643.606 688.239 588.995 698.219C561.208 703.181 501.608 704.967 498.716 700.742C497.299 698.758 495.966 699.098 494.293 701.962C492.195 705.393 485.872 706.187 458.085 706.3C439.485 706.3 420.203 705.96 415.099 705.308ZM473.027 694.76C473.027 691.556 473.906 691.329 476.571 693.541C478.585 695.213 480.91 695.78 481.789 694.873C482.668 693.994 490.097 692.888 498.178 692.548C509.151 692.009 512.581 692.661 511.673 695.1C510.029 699.325 529.084 696.206 534.953 691.329C537.817 688.89 538.922 688.777 538.922 691.131C538.922 693.342 543.573 693.654 555.425 692.435C571.927 690.79 634.958 677.832 652.254 672.502C675.93 665.3 708.283 653.022 729.01 643.381C747.837 634.62 751.494 631.87 750.473 627.758C748.261 619.224 745.399 619.564 725.466 630.31C622.228 686.253 469.936 703.181 343.901 672.842C217.498 642.389 117.067 571.39 69.0917 478.672C29.2256 401.378 30.1046 305.994 71.3034 230.572C127.473 128.014 244.208 53.5842 384.08 31.326C574.592 0.873554 760 62.459 858.361 188.494C871.206 205.109 875.091 208.428 878.635 206.556C881.414 205.11 884.619 205.11 886.944 206.556C889.609 208.201 889.721 208.995 887.368 208.995C885.61 208.995 884.278 209.873 884.505 210.979C885.271 216.508 883.825 219.74 881.188 218.067C877.643 215.856 877.869 216.395 887.821 235.335C931.232 318.073 924.258 427.832 870.328 506.374C866.103 512.583 863.013 518 863.466 518.453C881.613 531.723 880.081 531.949 893.577 512.782C939.426 447.34 957.829 362.278 939.54 299.927C938.321 295.589 935.229 284.956 932.791 276.223C922.045 238.455 892.358 190.819 858.134 156.482C786.483 84.7172 689.683 38.9823 569.29 20.0416C538.611 15.1647 413.993 13.6049 388.758 17.8013C382.208 18.8221 374.467 20.0412 371.575 20.4665C368.712 20.9202 364.487 21.9126 362.388 22.6782C360.177 23.4721 352.635 24.8902 345.433 25.9109C338.344 26.9033 330.716 28.5476 328.391 29.7668C326.066 30.8726 316.965 33.8786 308.345 36.3171C233.801 57.4694 154.381 103.431 101.217 156.255C51.597 205.648 26.3334 250.193 14.7082 309.227C11.3907 325.729 8.61181 366.588 11.504 356.635C13.829 348.753 16.1542 352.297 15.9274 363.156C15.814 367.693 14.3678 371.124 12.4965 371.124C10.7385 371.124 9.51942 372.23 9.83132 373.676C10.285 375.122 12.0427 376.001 13.829 375.576C18.4791 374.555 17.9119 377.788 12.9499 381.445C9.29217 384.082 9.17932 386.208 11.9297 396.274C13.716 402.71 15.4737 413.343 15.9274 419.978C16.2676 426.5 19.018 436.027 21.9101 441.017C24.8022 446.008 28.0063 453.096 28.9987 456.754C31.8908 466.394 50.378 497.3 66.4266 519.218C136.547 615.141 274.774 683.248 421.649 694.107C443.34 695.78 462.962 697.993 465.174 699.098C470.051 701.764 473.027 700.09 473.027 694.76ZM48.8185 483.124C48.8185 481.678 49.9242 480.458 51.3703 480.458C52.8163 480.458 54.0354 481.678 54.0354 483.124C54.0354 484.541 52.8163 485.76 51.3703 485.76C49.9242 485.76 48.8185 484.541 48.8185 483.124ZM39.5182 459.42C38.6392 457.974 39.178 456.754 40.5107 456.754C41.9568 456.754 43.9411 457.974 44.8485 459.42C45.7274 460.837 45.2743 461.943 43.8283 461.943C42.4106 461.943 40.3972 460.837 39.5182 459.42ZM550.008 674.174C608.588 666.405 681.148 644.147 724.671 620.556C743.187 610.491 743.186 610.491 744.717 592.316C746.503 569.405 753.707 553.216 768.876 537.394C775.285 530.617 779.933 524.634 779.054 524.095C774.631 521.543 700.542 501.043 678.596 496.393C641.281 488.539 593.872 481.11 561.52 478.019C502.26 472.263 397.151 475.808 341.349 485.449C269.244 497.953 243.528 504.588 172.642 529.199C150.157 537.054 130.904 542.582 129.911 541.476C128.806 540.484 125.148 531.949 121.604 522.536C118.059 513.122 110.517 493.076 104.648 477.793C89.0247 436.821 89.3651 439.798 100.764 434.808C137.114 418.986 233.688 390.859 282.855 381.757C294.934 379.545 305.906 376.993 307.239 376.228C308.543 375.349 309.65 359.498 309.65 340.785C309.65 321.844 310.784 306.107 312.202 305.228C314.98 303.584 325.5 312.884 325.5 317.081C325.5 318.527 326.719 319.746 328.165 319.746C329.611 319.746 330.915 312.317 331.029 303.243C331.256 294.17 331.596 279.653 331.709 270.891C331.936 262.272 331.142 253.057 330.036 250.505C328.59 247.414 329.923 242.991 334.034 236.895L340.244 227.822L347.644 237.121C352.295 242.877 354.081 247.187 352.408 248.18C348.212 250.732 349.771 272.905 354.194 274.322C356.746 275.23 357.398 274.209 356.292 271.232C355.3 268.906 356.746 263.378 359.27 259.039C364.033 251.299 364.033 251.299 369.59 258.615C373.361 263.803 374.241 267.234 372.568 270.24C370.81 273.444 371.575 275.003 375.346 276.223C378.21 277.102 381.329 280.078 382.208 282.97C383.314 286.741 386.206 288.075 392.614 288.075C401.489 288.075 401.489 288.074 402.368 270.778C402.822 261.138 402.255 251.724 401.035 249.626C399.703 247.187 401.035 242.878 404.806 237.547C410.676 229.353 410.676 229.352 416.885 237.008C422.981 244.635 422.982 244.636 423.294 234.003C423.521 228.247 423.521 219.06 423.067 213.645C422.188 199.779 433.047 182.171 447.111 174.317C454.88 170.007 458.31 166.236 458.736 161.586C459.189 157.929 460.295 151.945 461.174 148.061C462.507 142.758 461.402 139.64 456.1 134.451C452.329 130.567 449.323 124.584 449.323 120.699C449.323 113.299 459.843 100.992 466.279 100.992C471.922 100.992 471.382 103.204 464.492 108.847C459.53 112.958 459.077 114.603 461.288 121.152C463.727 127.787 465.172 128.582 475.125 128.469C487.884 128.128 488.878 130.112 479.577 137.428C472.914 142.645 470.815 152.059 475.692 155.036C477.138 155.943 478.357 159.261 478.357 162.465C478.357 166.463 481.221 169.893 487.658 173.324C492.761 176.075 500.503 183.079 504.699 188.835C512.014 198.787 512.354 200.46 512.014 225.383C511.787 243.644 512.694 252.291 515.133 254.616C517.883 257.168 518.11 256.375 516.777 250.42C515.558 245.09 516.438 241.205 519.982 236.668C524.972 230.26 524.971 230.26 531.833 238C535.718 242.197 537.703 246.308 536.483 247.074C535.292 247.868 534.074 257.395 533.96 268.226L533.621 288.075H581.029V249.088C581.029 222.605 580.035 209.108 577.909 206.981C575.584 204.543 575.585 202.331 578.25 197.454C580.461 193.371 581.028 187.388 579.809 180.073C578.25 171.113 578.93 167.994 583.127 163.344C586.019 160.253 589.223 154.922 590.215 151.718C592.2 145.197 596.85 143.637 596.85 149.507C596.85 151.605 599.856 156.822 603.513 161.132C610.262 169.1 612.048 178.513 607.483 181.292C603.287 183.844 604.392 190.932 609.269 194.59C613.154 197.34 613.352 199.013 610.602 204.883C606.717 213.644 606.178 280.192 610.034 280.192C611.48 280.192 612.701 278.973 612.701 277.555C612.701 276.109 614.571 274.889 616.811 274.889C619.221 274.889 620.668 272.99 620.243 270.24C619.789 267.801 621.007 262.924 622.879 259.493C626.31 253.283 626.309 253.283 632.632 259.153C637.623 263.916 638.276 266.015 636.064 270.353C633.853 274.323 634.079 275.23 636.744 274.322C639.183 273.443 640.403 268.142 640.488 257.395C640.715 246.082 642.159 239.674 645.704 234.91C650.808 228.134 650.808 228.133 658.01 236.328C665.751 245.089 667.084 248.52 662.66 248.52C659.768 248.52 661.753 348.866 665.099 368.487C666.857 379.007 666.857 379.007 700.656 386.095C753.253 397.267 857.029 428.626 863.89 435.488C865.336 436.934 860.687 452.529 852.493 474.022C841.519 502.943 839.421 510.57 842.313 512.356C851.84 518.452 854.363 516.015 873.191 483.01C897.462 440.791 909.541 390.858 906.989 343.45C900.128 210.638 793.459 99.5467 627.332 52.1383C584.46 39.9743 551.682 35.2108 496.731 33.311C430.07 30.986 393.068 35.2106 326.18 52.5917C301.568 58.9147 293.374 64.1038 307.665 64.1038C313.109 64.1038 313.109 64.1036 308.118 67.9881C301.143 73.2903 297.259 72.865 295.699 66.8823C294.367 61.8919 293.261 62.119 272.335 70.9656C241.769 83.8384 206.78 103.204 207.546 106.862C207.886 108.648 205.561 110.179 202.329 110.406C187.953 111.399 125.46 166.462 101.67 199.24C19.8115 311.665 34.216 454.769 137.426 554.434C200.911 615.793 289.716 656.793 393.947 672.955C432.934 678.938 508.924 679.59 549.896 674.174H550.008ZM413.767 670.176C410.449 668.73 409.911 667.965 412.434 667.965C414.674 667.965 418.757 668.957 421.649 670.176C424.966 671.623 425.505 672.502 422.981 672.502C420.855 672.502 416.659 671.396 413.767 670.176ZM480.995 670.176C480.995 668.73 482.128 667.511 483.546 667.511C484.992 667.511 486.211 668.73 486.211 670.176C486.211 671.623 484.992 672.842 483.546 672.842C482.128 672.842 480.995 671.623 480.995 670.176ZM399.277 662.322C397.066 660.876 396.499 659.77 397.945 659.77C399.391 659.77 402.368 660.876 404.58 662.322C406.678 663.655 407.358 664.875 405.912 664.875C404.353 664.875 401.489 663.655 399.277 662.322ZM233.235 596.427C233.235 585.908 234.34 577.912 235.9 577.912C237.346 577.912 238.565 585.908 238.565 596.427C238.565 606.947 237.346 614.8 235.9 614.8C234.34 614.8 233.235 606.947 233.235 596.427ZM243.754 596.626C243.754 574.254 248.518 571.503 256.599 589.111L261.816 600.397L262.042 589.111C262.468 569.944 267.572 576.693 267.572 596.427C267.572 617.693 262.383 621.776 256.599 604.933C253.168 595.094 253.168 595.094 251.835 604.054C250.956 609.045 248.972 613.582 247.072 614.262C244.662 615.028 243.754 610.377 243.754 596.626ZM280.643 599.064C280.643 584.802 280.104 583.242 275.227 583.242C272.108 583.242 270.124 581.796 270.776 580.123C272.109 575.927 291.843 575.814 293.148 579.925C293.715 581.797 292.382 583.242 290.17 583.242C286.739 583.242 285.973 586.333 285.973 599.064C285.973 607.826 284.754 614.8 283.308 614.8C281.862 614.8 280.643 607.826 280.643 599.064ZM297.032 595.746C297.826 576.579 297.826 576.579 306.332 576.579C311.436 576.579 314.98 578.026 314.98 579.925C314.98 581.797 312.003 583.242 308.345 583.242C304.46 583.242 301.795 584.802 301.795 586.9C301.795 588.885 304.687 591.323 308.345 592.202C312.003 593.081 314.98 595.095 314.98 596.427C314.98 597.845 312.003 599.064 308.345 599.064C303.581 599.064 301.795 600.396 301.795 604.281C301.795 608.392 303.469 609.612 309.65 609.612C313.988 609.612 317.532 610.803 317.532 612.249C317.532 613.695 312.768 614.8 306.899 614.8C296.266 614.8 296.266 614.801 297.032 595.746ZM320.736 595.973C321.502 576.579 321.502 576.579 330.263 577.033C341.888 577.6 342.002 577.912 343.108 597.76C343.987 615.255 340.556 621.124 337.692 606.947C336.132 599.178 328.505 595.52 327.825 602.297C327.598 604.168 327.371 607.259 327.172 609.385C327.059 611.37 325.273 613.582 323.401 614.262C320.736 615.141 320.197 610.916 320.736 595.973ZM335.679 590.217C339.138 585.992 337.011 583.242 330.263 583.242C325.613 583.242 323.741 588.545 327.286 591.975C329.923 594.641 332.475 594.102 335.679 590.217ZM349.204 596.541C349.204 570.937 354.733 569.292 362.728 592.429C366.358 602.948 366.358 602.948 367.152 589.111C368.258 568.838 372.908 574.935 372.908 596.739C372.908 612.589 372.255 615.141 368.598 614.347C366.159 613.922 362.814 609.81 361.283 605.16C356.859 592.202 354.421 591.777 354.421 603.828C354.421 609.924 353.315 614.8 351.869 614.8C350.309 614.8 349.204 607.06 349.204 596.541ZM375.573 609.924C375.573 605.727 378.323 596.087 384.873 578.365C387.198 572.042 393.181 579.698 396.499 593.195C398.172 600.085 400.157 607.712 400.922 610.264C401.801 613.241 400.808 614.8 398.171 614.8C395.733 614.8 393.947 612.589 393.947 609.612C393.947 605.954 392.302 604.281 388.531 604.281C385.214 604.281 382.435 606.38 381.556 609.612C379.883 616.247 375.573 616.473 375.573 609.924ZM389.637 592.316C387.539 586.9 386.093 587.553 386.093 593.989C386.093 596.853 387.198 598.639 388.644 597.76C389.977 596.966 390.516 594.527 389.637 592.316ZM407.132 599.177C407.132 587.325 406.139 582.675 403.247 581.569C395.847 578.706 399.277 575.36 409.683 575.36C420.316 575.36 425.845 578.904 419.21 581.456C416.545 582.448 415.099 587.892 414.56 598.072C413.454 619.678 407.132 620.67 407.132 599.177ZM425.619 595.094C425.619 583.667 426.724 575.36 428.284 575.36C429.73 575.36 430.949 583.667 430.949 595.094C430.949 606.492 429.73 614.8 428.284 614.8C426.724 614.8 425.619 606.492 425.619 595.094ZM438.917 609.697C434.72 601.843 435.599 584.235 440.476 579.358C446.345 573.488 455.079 575.274 459.303 583.242C463.386 590.983 461.856 609.385 456.752 612.589C450.656 616.473 441.695 615.028 438.917 609.697ZM453.321 594.867C453.321 585.227 452.328 581.909 449.435 581.909C443.453 581.909 439.908 594.867 443.679 603.062C448.443 613.695 453.321 609.697 453.321 594.867ZM465.712 595.973C466.619 572.95 471.581 569.944 478.131 588.545L482.213 600.397L483.122 587.892C484.341 567.732 488.878 573.375 488.878 595.094C488.878 610.377 487.999 614.8 485.107 614.8C483.122 614.8 480.002 610.717 478.357 605.727C474.246 593.194 471.695 592.429 471.695 603.629C471.695 608.932 470.277 613.582 468.377 614.262C465.712 615.141 465.06 610.916 465.712 595.973ZM493.528 613.355C490.636 610.491 501.041 576.579 504.699 576.579C508.243 576.579 517.344 600.17 517.656 610.264C517.883 616.587 513.574 616.02 511.788 609.612C510.256 603.516 499.396 602.183 499.396 608.166C499.396 612.249 495.739 615.566 493.528 613.355ZM507.364 592.316C507.364 589.99 506.145 588.885 504.699 589.764C503.281 590.756 502.061 592.543 502.061 593.989C502.061 595.322 503.281 596.427 504.699 596.427C506.145 596.427 507.364 594.527 507.364 592.316ZM522.221 613.156C519.443 610.264 520.208 578.479 523.101 576.579C524.745 575.587 525.766 580.917 525.766 590.756C525.766 605.954 526.078 606.606 532.854 607.372C543.572 608.704 543.799 614.8 532.939 614.8C527.977 614.8 523.214 614.035 522.221 613.156ZM554.007 613.241C553.214 612.362 553.667 608.591 554.887 604.735C556.106 600.851 558.431 592.656 559.99 586.56C564.073 570.398 569.177 572.383 574.479 592.202C578.817 607.825 578.703 624.214 574.365 610.264C572.266 603.515 559.99 601.616 559.99 608.052C559.99 612.362 556.333 615.481 554.007 613.241ZM568.835 592.429C568.07 590.217 567.079 588.431 566.625 588.431C566.172 588.431 565.178 590.217 564.299 592.429C563.42 594.867 564.3 596.427 566.625 596.427C568.837 596.427 569.828 594.867 568.835 592.429ZM582.786 613.043C580.688 610.916 580.688 589.112 582.786 581.258C585.678 570.512 588.995 578.025 588.995 595.094C588.995 610.717 586.784 617.013 582.786 613.043ZM595.971 613.043C595.092 612.022 594.327 603.175 594.327 593.308C594.327 575.275 594.326 575.275 603.172 575.275C614.911 575.275 617.01 578.705 617.464 598.412C617.804 615.566 614.372 620.444 611.367 606.947C609.269 597.42 602.181 596.2 602.181 605.5C602.181 612.022 598.977 616.02 595.971 613.043ZM611.028 588.998C613.353 585.227 608.163 579.811 603.74 581.456C597.871 583.668 598.523 591.096 604.619 591.096C607.483 591.096 610.375 590.217 611.028 588.998ZM623.22 595.094C623.22 575.274 623.219 575.275 632.406 575.275C639.182 575.275 642.387 576.806 644.712 581.144C647.803 587.127 647.803 587.127 650.468 581.144C653.786 573.602 666.63 573.035 670.628 580.35C676.951 592.202 672.726 611.596 663.313 613.921C655.345 615.906 647.038 607.485 647.038 597.192C647.038 591.323 646.583 591.096 642.812 594.867C640.6 597.192 636.405 599.064 633.626 599.064C629.77 599.064 628.55 600.851 628.55 606.947C628.55 611.257 627.331 614.8 625.885 614.8C624.439 614.8 623.22 606.492 623.22 595.094ZM666.857 597.647C668.643 588.885 662.888 578.592 657.898 581.683C653.786 584.235 654.013 606.152 658.209 607.712C662.774 609.385 665.099 606.72 666.857 597.647ZM637.738 587.127C637.738 579.812 630.082 580.577 628.976 588.12C628.324 592.883 629.202 593.989 632.973 593.308C635.724 592.769 637.738 590.104 637.738 587.127ZM678.596 595.094C678.596 575.048 678.596 575.048 688.464 575.813C698.416 576.579 698.415 576.579 698.982 589.764C699.323 597.079 699.861 604.735 700.315 606.947C700.655 609.159 699.747 611.257 698.415 611.71C696.884 612.022 695.324 609.697 694.786 606.379C693.113 594.981 683.926 594.3 683.926 605.614C683.926 609.044 682.707 612.589 681.261 613.468C679.588 614.574 678.596 607.825 678.596 595.094ZM693.879 586.56C692.546 579.698 683.926 578.905 683.926 585.681C683.926 589.452 685.57 591.096 689.341 591.096C693.112 591.096 694.559 589.65 693.879 586.56ZM711.941 613.043C710.949 612.022 710.268 604.394 710.268 595.973C710.268 584.008 709.388 580.577 706.298 580.577C704.086 580.577 702.3 579.358 702.3 577.912C702.3 576.494 707.63 575.275 714.151 575.275C720.701 575.275 726.004 576.494 726.004 577.912C726.004 579.358 724.245 580.577 722.119 580.577C719.028 580.577 718.151 584.121 718.151 596.2C718.151 610.802 715.826 617.013 711.941 613.043ZM227.932 545.474C227.932 524.208 229.804 521.77 243.754 525.201C250.077 526.76 250.417 527.753 250.417 545.134C250.417 563.422 250.417 563.422 239.217 564.301C227.932 565.067 227.932 565.067 227.932 545.474ZM243.754 553.102C243.754 551.003 242.535 548.565 241.117 547.686C239.671 546.693 238.565 548.452 238.565 551.458C238.565 554.435 239.671 556.873 241.117 556.873C242.535 556.873 243.754 555.115 243.754 553.102ZM243.754 535.947C243.754 534.614 242.535 532.743 241.117 531.836C239.671 530.957 238.565 532.063 238.565 534.274C238.565 536.599 239.671 538.385 241.117 538.385C242.535 538.385 243.754 537.28 243.754 535.947ZM254.387 561.409C254.614 556.221 261.475 528.632 263.375 525.428C264.367 523.869 266.806 522.649 268.904 522.649C272.335 522.649 275.227 529.965 279.991 551.769C281.749 559.765 282.202 558.659 283.308 542.582C284.839 520.438 289.177 517.545 296.493 533.622L301.682 545.021V533.622C301.682 525.654 302.788 522.536 305 523.217C307.24 523.982 308.657 531.298 309.111 544.596C309.763 561.637 309.337 564.727 305.68 564.727C303.355 564.727 299.81 560.871 297.825 556.221C294.054 547.686 294.054 547.686 293.941 555.88C293.828 563.621 293.26 564.188 283.535 564.301C275.539 564.415 273.016 563.309 271.995 559.311C270.237 552.676 265.814 552.79 264.141 559.424C262.581 565.18 254.274 566.854 254.387 561.409ZM314.98 543.688C314.98 522.649 314.98 522.649 322.834 522.649C335.367 522.649 342.229 531.297 340.556 545.361C338.911 560.077 334.913 564.727 323.827 564.727C314.98 564.727 314.98 564.727 314.98 543.688ZM329.497 544.141C329.497 528.745 324.28 529.086 323.401 544.596C322.721 554.208 323.401 557.1 325.953 556.221C328.051 555.541 329.497 550.776 329.497 544.141ZM343.448 563.423C342.682 562.629 344.1 553.442 346.539 543.036C350.083 527.753 351.983 523.868 355.952 523.868C360.943 523.868 369.818 545.588 370.129 558.858C370.243 566.287 363.381 566.74 361.056 559.538C360.177 556.646 358.163 554.208 356.632 554.208C355.186 554.208 353.315 556.532 352.635 559.538C351.302 564.415 346.538 566.514 343.448 563.423ZM372.908 543.688C372.908 522.649 372.908 522.649 381.981 522.649C394.627 522.649 405.033 534.615 396.725 539.719C395.052 540.711 395.052 543.575 396.725 547.913C398.171 551.571 399.277 556.987 399.277 559.879C399.277 568.272 390.289 564.727 388.758 555.767C386.745 544.142 380.762 543.915 380.762 555.313C380.762 561.977 379.656 564.727 376.906 564.727C373.673 564.727 372.908 560.644 372.908 543.688ZM386.632 532.63C382.662 528.632 379.656 531.638 381.868 537.394C383.201 540.825 384.307 541.136 386.745 538.811C389.07 536.486 389.07 535.069 386.632 532.63ZM418.218 561.636C413.766 557.213 414.333 548.905 419.097 548.905C421.195 548.905 422.981 550.777 422.981 552.904C422.981 555.115 424.74 556.873 426.951 556.873C433.274 556.873 431.601 552.449 422.981 546.353C417.424 542.355 415.099 538.499 415.099 533.282C415.099 521.883 430.949 517.999 436.252 528.094C440.136 535.267 437.357 537.818 430.496 533.509C421.422 527.866 421.308 532.942 430.381 540.03C442.914 549.898 440.902 564.727 426.951 564.727C423.974 564.727 419.976 563.309 418.331 561.636H418.218ZM443.34 563.195C442.234 562.09 441.469 552.449 441.469 541.816C441.469 522.309 441.469 522.309 452.64 523.103C464.408 523.982 467.951 528.632 457.857 530.078C450.541 531.07 450.003 538.385 457.318 538.385C460.182 538.385 462.507 540.144 462.507 542.355C462.507 544.595 460.182 546.353 457.318 546.353C453.774 546.353 451.988 548.14 451.988 551.571C451.988 555.541 453.775 556.873 458.85 556.873C469.057 556.873 465.172 563.309 454.312 564.188C449.322 564.642 444.333 564.188 443.34 563.195ZM467.839 543.688C467.839 522.649 467.838 522.649 476.798 522.649C487.204 522.649 495.286 529.199 492.649 535.494C490.522 540.597 490.522 542.044 492.96 555.115C494.633 564.189 494.293 565.18 489.869 564.301C486.779 563.734 484.453 560.417 483.546 555.54C481.788 545.021 477.251 545.475 476.146 556.221C475.692 561.523 473.905 564.727 471.58 564.727C468.603 564.727 467.724 560.304 467.724 543.688H467.839ZM483.546 534.501C483.546 532.289 481.788 530.503 479.69 530.503C477.45 530.503 475.692 532.289 475.692 534.501C475.692 536.599 477.45 538.385 479.69 538.385C481.788 538.385 483.546 536.599 483.546 534.501ZM498.631 563.082C497.611 562.09 496.731 552.563 496.731 541.93C496.731 524.208 497.299 522.649 502.176 522.649C507.138 522.649 507.478 523.982 506.826 542.809C506.032 561.296 503.395 567.846 498.631 563.082ZM524.859 562.969C523.866 562.09 523.101 552.563 523.101 541.93C523.101 522.535 523.1 522.536 532.06 522.536C543.685 522.536 546.011 526.08 546.351 544.255C546.578 556.646 545.699 559.879 541.701 562.09C535.945 565.181 527.524 565.634 524.859 562.969ZM538.922 550.011C538.922 545.361 533.28 546.24 531.636 551.117C531.069 552.79 532.515 554.208 534.727 554.208C537.052 554.208 538.922 552.336 538.922 550.011ZM537.504 532.942C536.597 531.524 534.839 531.07 533.392 531.949C532.06 532.828 531.636 534.614 532.515 535.947C533.394 537.393 535.179 537.819 536.483 536.94C537.929 536.061 538.383 534.274 537.504 532.942ZM555.425 562.969C553.213 562.09 552.107 555.314 552.107 542.157C552.107 522.536 552.106 522.536 562.626 522.536C570.282 522.536 573.146 523.641 573.146 526.533C573.146 528.972 570.737 530.503 566.625 530.503C562.514 530.503 559.99 531.949 559.99 534.501C559.99 536.94 562.514 538.385 566.852 538.385C575.16 538.385 574.167 544.595 565.632 545.9C557.863 547.006 559.195 555.229 567.276 556.448C574.932 557.44 574.932 561.097 567.276 563.082C560.641 564.84 559.99 564.84 555.425 562.969ZM579.923 560.53C574.82 555.54 574.365 533.396 579.241 526.874C583.58 521.005 596.538 521.997 600.507 528.405C604.392 534.501 600.509 537.592 594.1 533.622C586.218 528.745 583.014 532.403 584.573 544.255C586.218 556.646 588.004 558.971 592.427 554.321C594.979 551.684 594.978 550.663 592.313 549.671C586.33 547.459 588.769 541.051 595.63 541.051C601.415 541.051 602.295 542.27 602.522 550.89C602.834 560.871 602.832 560.87 606.263 548.905C608.163 542.469 610.375 533.736 611.254 529.624C612.587 523.868 614.26 522.423 618.796 523.103C623.446 523.755 625.205 526.647 627.643 537.053C631.981 555.88 631.868 562.09 627.332 562.09C625.092 562.09 623.334 560.303 623.334 558.205C623.334 553.215 616.357 552.988 613.579 557.865C610.261 563.621 584.998 565.634 580.036 560.53H579.923ZM637.85 558.858C634.958 550.011 630.875 524.634 632.179 523.415C635.837 519.672 641.707 525.74 642.047 533.736C642.387 542.356 642.387 542.355 645.166 532.403C648.71 519.87 655.798 519.984 656.989 532.517C658.01 543.036 662.774 541.137 662.774 530.305C662.774 524.975 664.078 522.536 667.084 522.536C670.741 522.536 671.082 524.861 669.522 537.705C667.084 558.659 665.752 562.09 660.336 562.09C657.331 562.09 654.665 558.971 652.907 553.555L650.127 545.021L649.901 553.555C649.702 560.303 648.484 562.09 644.259 562.09C641.395 562.09 638.502 560.644 637.85 558.858ZM671.62 558.319C672.385 556.22 674.626 547.233 676.384 538.5C679.163 524.975 680.495 522.536 685.343 522.536C690.022 522.536 691.441 524.974 694.22 537.705C695.978 546.127 697.99 555.002 698.756 557.554C699.635 560.871 698.528 562.09 694.559 562.09C691.553 562.09 689.114 560.417 689.114 558.205C689.114 555.994 687.357 554.208 685.259 554.208C683.019 554.208 681.261 555.994 681.261 558.205C681.261 560.417 678.822 562.09 675.732 562.09C671.96 562.09 670.627 560.871 671.62 558.319ZM702.3 542.355C702.3 526.307 703.179 522.536 706.412 522.536C708.623 522.536 712.167 526.42 714.265 531.184L717.924 539.719L718.036 531.184C718.15 524.435 719.256 522.536 723.339 522.536C728.216 522.536 728.669 524.322 728.669 542.355C728.669 559.765 728.103 562.09 723.907 562.09C721.128 562.09 717.243 558.545 714.833 553.555L710.607 545.021L710.38 553.555C710.267 559.311 708.963 562.09 706.298 562.09C703.065 562.09 702.3 558.206 702.3 542.355ZM743.385 386.52C742.392 383.883 739.84 382.863 736.523 383.657C729.888 385.415 727.563 381.87 732.752 377.56C735.077 375.575 736.098 372.23 735.078 369.139C733.773 364.829 734.311 364.262 738.734 365.595C741.627 366.587 744.831 366.048 745.71 364.602C748.489 360.179 752.373 361.512 752.373 366.814C752.373 369.593 754.132 372.457 756.343 373.336C761.561 375.349 761.447 380.339 756.144 380.339C753.819 380.339 751.268 382.664 750.587 385.528C748.943 391.964 745.596 392.39 743.385 386.52ZM206.979 379.772C206.979 377.22 204.342 373.79 201.109 372.145C195.921 369.253 195.807 368.799 199.777 365.821C202.215 364.035 204.228 360.604 204.228 358.279C204.228 353.402 208.311 352.411 210.863 356.635C211.856 358.166 214.975 358.62 217.952 357.741C222.375 356.295 222.942 356.947 221.383 361.71C220.39 364.943 221.042 369.026 222.829 371.124C225.494 374.356 224.927 375.008 220.05 375.008C216.733 375.008 212.536 377.107 210.523 379.658C207.319 383.968 207.092 383.968 206.979 379.772ZM745.71 353.856C744.831 352.296 741.74 351.758 738.961 352.637C733.319 354.508 732.327 351.304 737.09 346.541C739.642 344.102 739.642 342.657 737.09 340.246C732.554 335.681 733.207 332.023 738.31 333.923C740.749 334.915 744.718 333.696 747.496 331.144C752.147 327.061 752.373 327.061 752.373 332.704C752.373 336.361 754.358 339.112 757.676 340.02C760.568 340.785 763.006 342.345 763.006 343.564C763.006 344.67 760.568 346.428 757.676 347.335C754.812 348.327 752.373 350.765 752.373 352.75C752.373 357.173 748.262 357.854 745.71 353.856ZM204.228 338.573C204.228 335.794 201.563 332.364 198.359 330.804C192.376 327.827 192.376 327.827 198.359 326.069C201.79 325.049 204.228 322.298 204.228 319.406C204.228 313.423 209.105 312.771 211.203 318.413C212.309 321.078 214.634 321.844 218.178 320.738C222.715 319.292 223.282 319.973 221.949 325.048C221.042 328.394 221.496 333.243 222.942 335.908C225.154 340.133 224.587 340.445 217.498 339.027C212.423 338.006 209.531 338.573 209.531 340.445C209.531 342.118 208.312 343.45 206.865 343.45C205.448 343.45 204.228 341.238 204.228 338.573ZM745.71 316.854C744.718 315.323 741.06 314.642 737.516 315.521C731.874 316.967 731.334 316.542 732.752 310.758C733.659 307.327 733.093 303.669 731.533 302.677C726.685 299.699 728.443 295.276 733.972 296.694C737.516 297.601 740.635 296.155 743.272 292.384C747.27 286.741 747.27 286.741 748.829 292.611C749.595 295.815 752.8 299.246 755.805 300.125C760.909 301.798 760.909 302.138 756.911 305.115C754.359 306.901 752.373 310.872 752.373 313.991C752.373 319.973 748.603 321.617 745.71 316.854ZM206.865 300.125C206.865 296.269 205.107 292.498 202.895 291.619C197.253 289.407 198.132 285.409 204.341 285.409C207.432 285.409 210.636 282.97 211.856 279.539C213.954 273.783 213.954 273.784 216.959 279.313C219.057 283.197 221.723 284.53 225.267 283.538C230.91 282.092 232.696 286.515 227.819 289.492C226.146 290.513 225.607 294.17 226.6 297.913C228.131 304.009 227.706 304.35 221.269 302.79C217.3 301.798 212.763 302.365 210.636 304.123C207.546 306.561 206.865 305.909 206.865 300.125ZM725.466 273.217C726.118 269.672 725.464 267.007 723.678 267.007C722.119 267.007 720.786 265.022 720.786 262.697C720.786 260.032 722.233 259.04 724.671 260.032C726.997 260.939 729.774 259.266 731.646 255.835C734.425 250.618 734.878 250.505 737.855 254.616C739.642 257.054 742.96 259.039 745.285 259.039C751.154 259.039 753.593 264.03 748.602 265.901C746.391 266.809 744.49 270.126 744.49 273.217C744.49 277.98 742.96 278.972 734.425 279.199C725.125 279.426 724.332 278.859 725.466 273.217ZM230.57 267.007C228.471 265.703 223.934 265.249 220.504 266.128C215.173 267.461 214.407 266.922 215.853 262.47C216.959 259.266 216.08 255.836 213.528 253.851C208.992 250.08 210.523 245.855 216.619 245.855C218.944 245.855 222.375 243.756 224.388 241.318C227.705 237.008 228.046 237.008 229.577 242.537C230.57 246.081 233.348 248.52 236.24 248.52C242.109 248.52 242.762 253.283 237.232 255.495C234.567 256.488 233.802 259.04 234.907 263.265C236.665 270.353 236.24 270.551 230.57 267.007ZM712.819 239.787C712.819 236.016 710.835 231.791 708.283 230.374C704.2 228.134 704.511 227.481 710.948 225.042C714.917 223.483 718.15 220.279 718.263 217.614C718.263 213.191 718.462 213.191 721.807 217.5C723.679 220.052 727.876 222.151 730.995 222.151C736.864 222.151 738.508 225.921 733.972 228.813C732.554 229.692 731.334 233.124 731.334 236.555C731.334 241.431 730.229 242.424 726.004 241.318C723.14 240.666 719.03 241.432 716.818 243.332C713.501 245.968 712.819 245.43 712.819 239.787ZM245.54 233.35C244.434 231.564 239.898 230.033 235.446 230.033C228.471 230.033 227.819 229.466 230.683 226.035C233.348 222.831 233.121 221.158 229.265 216.848C224.7 211.744 224.7 211.631 230.683 211.631C234.029 211.631 238.991 209.646 241.656 207.321C245.966 203.323 246.419 203.323 246.419 207.094C246.419 209.419 249.085 213.19 252.289 215.402C257.506 219.06 257.619 219.825 253.735 222.831C251.41 224.589 249.085 228.474 248.518 231.366C247.866 235.109 246.986 235.675 245.54 233.35ZM862.784 224.164C859.694 218.295 859.695 218.295 865.337 223.285C871.66 228.814 872.198 230.033 868.456 230.033C867.01 230.033 864.457 227.368 862.784 224.164ZM694.446 206.754C694.446 204.117 691.781 200.573 688.464 199.013C682.594 196.121 682.594 196.121 688.464 194.363C691.668 193.371 694.984 190.252 695.891 187.501C697.196 183.39 698.33 182.965 701.194 185.489C703.292 187.161 707.29 187.927 710.268 187.161C716.052 185.602 717.356 190.252 712.507 195.129C710.154 197.454 710.267 199.24 712.819 202.331C715.711 205.762 715.144 206.329 709.388 206.329C705.731 206.329 701.875 207.548 700.967 208.995C698.33 213.304 694.446 211.971 694.446 206.754ZM262.156 199.666C260.256 197.454 256.712 196.349 253.961 197.256C248.404 199.014 247.979 197.567 251.75 190.592C253.508 187.275 253.508 185.063 251.75 183.957C246.986 181.065 248.858 176.756 254.274 178.089C257.052 178.854 260.824 177.862 262.468 175.763C266.806 170.546 270.124 171.226 270.124 177.294C270.124 180.073 272.222 183.618 274.774 185.177C279.197 187.842 279.197 188.04 274.774 190.706C272.222 192.265 270.124 195.129 270.124 197.142C270.124 202.785 265.814 204.117 262.156 199.666ZM825.13 183.73C822.691 177.407 823.147 176.982 828.903 180.073C831.88 181.632 833.553 184.071 832.674 185.404C830.349 189.147 826.916 188.494 825.13 183.73ZM670.969 176.755C669.409 172.644 666.205 169.44 663.539 169.44C659.116 169.326 659.115 169.1 663.425 165.782C665.977 163.911 668.075 159.799 668.075 156.709C668.075 150.726 671.848 149.167 674.825 153.93C675.845 155.49 679.475 156.255 683.019 155.603C688.889 154.497 689.342 155.036 687.896 160.792C687.017 164.45 687.697 168.987 689.341 171.113C691.893 174.09 691.327 174.771 686.479 174.771C683.133 174.771 679.049 176.869 677.149 179.421C674.058 183.618 673.521 183.39 670.969 176.755ZM286.966 170.772C286.059 168.674 282.429 166.888 278.771 166.888C273.214 166.888 272.676 166.236 275.426 162.919C277.212 160.679 277.864 156.142 276.985 152.286C275.426 146.19 275.879 145.735 281.976 147.295C285.86 148.287 290.283 147.635 292.608 145.736C295.813 142.957 296.493 143.524 296.493 149.053C296.493 152.711 298.251 156.482 300.463 157.248C306.219 159.488 305.34 164.223 299.13 164.223C295.586 164.223 293.828 166.009 293.828 169.44C293.828 175.649 289.064 176.528 286.966 170.772ZM644.6 151.492C642.927 148.288 639.835 145.736 637.624 145.736C632.747 145.736 632.633 141.539 637.624 139.64C639.835 138.761 640.828 136.095 639.949 132.778C638.503 127.249 642.727 125.151 645.704 129.999C646.81 131.786 649.022 131.786 652.254 129.999C659.541 126.143 660.449 126.568 658.663 133.657C657.897 137.088 658.436 140.746 659.995 141.653C664.532 144.517 663.2 148.401 657.671 148.401C654.892 148.401 651.46 150.386 650.127 152.824C647.916 156.709 647.378 156.595 644.6 151.492ZM315.32 146.417C313.534 143.184 310.443 140.547 308.232 140.547C303.78 140.547 303.128 136.322 307.239 133.77C308.77 132.778 309.338 129.233 308.544 125.689C306.786 118.941 309.338 117.495 314.413 122.599C316.852 125.038 318.298 125.038 320.736 122.599C325.613 117.722 328.165 118.827 328.165 125.802C328.165 129.347 329.27 133.005 330.717 133.884C335.026 136.549 333.694 140.547 328.505 140.547C325.839 140.547 322.522 143.184 321.076 146.417C318.411 152.286 318.411 152.286 315.32 146.417ZM614.572 129.914C613.806 126.795 611.027 124.697 607.71 124.697C604.619 124.697 602.181 123.478 602.181 122.031C602.181 120.585 603.514 119.366 605.045 119.366C606.945 119.366 607.37 116.843 606.377 112.731C604.846 106.748 605.272 106.323 611.028 107.741C614.572 108.648 618.23 107.968 619.222 106.408C622.228 101.56 625.885 103.318 625.885 109.641C625.885 112.959 627.331 117.154 629.202 118.941C631.754 121.606 631.187 122.599 626.537 123.818C623.22 124.584 620.667 126.909 620.667 128.78C620.667 134.678 616.018 135.557 614.572 129.914ZM346.539 123.137C346.539 120.812 344.213 118.26 341.349 117.495C335.026 115.935 334.459 112.731 340.017 110.52C342.115 109.754 343.901 106.636 343.901 103.659C343.901 98.016 347.758 96.4558 350.536 101.106C351.529 102.552 354.733 102.977 357.738 102.098C362.162 100.652 362.814 101.22 361.396 104.991C360.29 107.741 361.396 111.626 364.033 114.518C368.258 119.168 368.145 119.366 361.708 119.366C358.079 119.366 354.308 121.152 353.514 123.364C351.529 128.581 346.539 128.468 346.539 123.137ZM581.256 113.071C579.243 110.519 575.386 109.074 572.721 109.755C567.191 111.172 566.965 110.406 570.623 103.544C572.381 100.34 572.381 98.1006 570.623 96.9948C565.519 93.9042 567.958 90.3603 574.167 91.9198C578.477 93.0256 580.915 92.146 582.021 89.1404C584.006 84.0367 588.995 86.2486 588.995 92.2313C588.995 94.5564 590.98 97.902 593.419 99.66C597.53 102.666 597.417 103.091 592.313 104.763C589.222 105.642 586.331 108.961 585.906 112.08C585.112 117.268 584.8 117.381 581.256 113.071ZM380.762 106.522C380.762 103.771 379.004 100.879 376.906 100C374.666 99.2344 372.908 97.2216 372.908 95.7756C372.908 94.2444 374.666 93.0256 376.906 93.0256C379.429 93.0256 380.762 90.5872 380.762 86.0505C380.762 79.5006 381.102 79.2731 385.639 83.3845C388.304 85.8229 392.614 87.8079 395.166 87.8079C398.37 87.8079 399.278 89.1411 398.257 91.9198C397.378 94.2449 397.945 98.5546 399.59 101.56C402.141 106.409 401.914 106.862 397.065 105.529C393.946 104.764 390.176 105.756 388.531 107.854C384.193 112.958 380.876 112.391 380.876 106.522H380.762ZM545.926 101.447C544.479 99.2351 541.247 98.5542 537.278 99.5466C531.522 100.993 531.068 100.426 532.628 94.4716C533.506 90.587 532.939 86.0504 530.954 83.8387C528.289 80.4929 528.856 79.8401 534.498 79.8401C538.269 79.8401 542.04 78.7345 542.919 77.2884C545.585 72.8651 549.47 74.3112 549.47 79.6135C549.47 82.5056 551.994 85.2562 555.425 86.2486C561.294 88.0349 561.293 88.0352 555.537 90.9273C552.447 92.4584 549.47 96.2293 549.016 99.3199C548.449 103.545 547.57 104.084 545.926 101.447ZM417.764 94.6697C417.764 91.1255 415.666 87.5812 413.114 86.4753C409.003 84.8308 409.116 84.3776 414.447 82.3928C417.878 81.0602 420.316 77.8555 420.316 74.7366C420.316 68.4419 424.399 67.5347 426.61 73.2906C427.404 75.5306 430.268 77.2884 432.82 77.2884C436.591 77.2884 437.584 79.3867 437.584 87.6945C437.584 97.1081 437.046 98.0159 431.942 96.6833C428.738 95.8894 425.419 96.5695 424.399 98.1006C421.422 103.091 417.764 101.22 417.764 94.6697ZM507.705 94.8964C504.926 91.4656 502.941 91.1255 498.716 93.3372C493.953 96.0025 493.528 95.6909 495.087 89.5947C496.08 85.8236 495.625 82.1651 494.179 81.1727C489.755 78.5074 491.202 74.6232 496.505 74.6232C499.283 74.6232 502.26 72.525 503.394 69.9731C505.039 65.8901 505.492 66.1168 507.477 71.3057C508.923 74.9634 512.014 77.2884 515.559 77.2884C520.889 77.2884 521.003 77.6288 517.232 81.8252C514.907 84.3771 512.694 89.3672 512.127 92.7981C511.361 98.554 510.909 98.781 507.705 94.8964ZM455.759 91.3522C456.638 88.9137 455.418 84.9439 452.98 82.1652C448.897 77.6285 449.011 77.2889 453.547 75.5309C456.298 74.5102 459.956 71.7599 461.629 69.5482C464.408 65.7771 464.947 65.8901 466.506 69.9731C467.499 72.525 470.589 74.6232 473.368 74.6232C478.67 74.6232 480.002 78.5074 475.692 81.1727C474.133 82.1651 473.822 85.8236 474.701 89.5947C476.232 95.776 476.032 96.1162 470.474 93.139C466.165 90.814 463.728 90.6999 461.629 92.7981C457.319 97.1079 453.775 96.3425 455.647 91.3522H455.759ZM272.789 77.6284C272.789 76.2958 275.114 74.623 278.091 73.8574C280.983 73.0919 283.308 72.8653 283.308 73.4041C283.308 73.9711 280.983 75.7289 278.091 77.2884C275.114 78.8479 272.789 78.9611 272.789 77.6284ZM285.973 71.9867C285.973 70.5406 287.08 69.3207 288.384 69.3207C289.83 69.3207 291.616 70.5406 292.495 71.9867C293.374 73.4044 292.268 74.6232 290.057 74.6232C287.845 74.6232 285.973 73.4044 285.973 71.9867ZM859.467 663.541C905.004 641.283 916.176 578.819 880.847 544.482C863.125 527.3 849.175 521.316 827.456 521.43C763.659 522.11 729.322 597.306 771.088 644.828C795.133 672.19 827.795 679.051 859.467 663.541ZM166.233 520.211C285.066 477.906 411.442 459.618 534.159 466.933C613.466 471.81 674.4 482.557 751.382 505.609C788.809 516.78 793.345 517.659 803.864 515.022C810.187 513.349 818.155 512.13 821.586 512.13C827.228 512.13 829.241 508.585 840.64 477.793C847.615 458.852 852.72 442.917 852.039 442.236C848.495 438.579 776.616 415.442 737.855 405.348C647.915 382.097 573.826 372.457 483.008 372.457C364.487 372.343 254.075 391.17 142.756 430.384C122.709 437.359 105.527 443.909 104.761 444.675C102.89 446.575 133.995 530.503 136.433 530.503C137 530.503 150.383 525.853 166.233 520.211ZM137.312 483.01C132.01 466.933 128.239 452.869 129.005 451.65C129.798 450.544 135.781 447.992 142.303 446.234C156.054 442.35 162.803 446.007 166.007 458.852C166.886 462.736 170.118 471.045 173.095 477.254C180.524 492.736 178.085 500.505 164.022 506.913C157.925 509.691 151.602 512.016 149.958 512.016C148.398 512.016 142.643 498.945 137.312 483.01ZM163.143 494.068C165.893 489.645 161.357 480.458 156.48 480.458C150.951 480.458 150.27 483.663 154.268 491.205C157.16 496.507 160.903 497.726 163.143 494.068ZM153.701 463.729C154.155 461.29 152.595 458.625 150.27 457.746C144.628 455.534 142.756 457.86 144.968 464.608C146.952 470.931 152.397 470.364 153.701 463.729ZM802.419 506.828C798.988 504.588 799.215 502.263 804.432 487.972C807.636 479.012 809.961 471.271 809.508 470.817C809.082 470.364 804.659 477.141 799.782 485.76C787.476 507.82 782.825 506.913 784.81 483.124C785.717 472.916 785.917 464.608 785.265 464.608C784.698 464.608 782.174 471.272 779.622 479.466C774.858 494.409 770.096 499.285 765.105 494.181C761.107 490.212 780.388 433.049 785.719 433.049C796.777 433.049 799.894 437.927 798.108 452.869C796.123 470.052 797.769 470.931 805.084 456.64C811.521 444.221 814.725 442.35 824.252 446.007C831.228 448.673 831.227 448.673 820.935 478.36C815.292 494.636 809.733 508.358 808.514 508.699C807.295 509.039 804.659 508.246 802.419 506.828ZM183.189 487.66C181.516 481.564 177.405 467.841 173.974 457.208C167.566 437.927 167.566 437.926 176.64 434.155C195.807 426.188 209.531 431.944 209.531 447.879C209.531 452.217 212.961 462.51 217.186 470.817C224.501 484.994 224.587 485.874 220.05 488.425C212.763 492.31 212.423 491.97 206.865 479.125C202.329 468.379 196.034 464.069 192.802 469.258C192.15 470.364 193.369 476.46 195.467 482.783C198.784 492.423 198.784 494.748 195.92 496.62C189.058 500.93 185.939 498.719 183.189 487.66ZM198.132 452.643C198.586 451.225 197.452 447.765 195.467 445.015C190.278 437.926 182.962 442.577 186.167 450.998C188.378 457.095 196.232 458.2 198.132 452.643ZM748.943 489.191C747.951 488.312 747.156 484.229 747.156 480.344C747.156 470.477 738.309 468.152 734.311 476.8C732.751 480.231 730.115 483.124 728.442 483.124C725.012 483.124 694.87 475.694 689.114 473.369C687.016 472.575 682.253 471.697 678.596 471.47C673.18 471.271 671.847 469.711 671.166 462.623C670.174 451.877 661.328 450.658 657.557 460.752C654.778 467.841 647.69 469.485 645.365 463.615C644.032 460.071 663.539 410.565 668.075 405.688C669.295 404.355 673.406 404.129 677.064 405.036C683.926 406.794 683.926 406.794 683.926 437.048C683.926 453.664 684.919 467.273 686.252 467.273C687.585 467.273 691.553 455.081 695.097 440.251C700.655 417.086 702.413 413.117 707.177 412.436C714.265 411.33 714.266 414.336 707.744 442.236C704.966 453.748 703.179 463.842 703.859 464.381C704.511 465.062 708.962 466.933 713.698 468.606C722.459 471.583 722.459 471.584 735.19 447.681C742.165 434.61 748.148 423.409 748.488 422.956C748.828 422.53 752.261 422.956 756.032 423.977C762.44 425.508 762.894 426.727 762.894 440.592C762.894 471.584 759.887 490.977 755.038 490.977C752.6 490.977 749.821 490.212 748.829 489.191H748.943ZM749.708 454.769C749.708 449.099 749.14 448.333 747.156 451.423C743.838 456.64 743.838 461.943 747.156 461.943C748.602 461.943 749.708 458.739 749.708 454.769ZM672.725 432.709C671.62 426.415 671.621 426.415 668.842 433.049C665.751 440.251 667.197 445.44 671.166 441.471C672.612 440.025 673.293 436.027 672.725 432.709ZM231.25 478.474C223.708 470.931 212.763 425.394 217.725 422.19C223.935 418.305 226.259 420.971 230.031 435.829C238.225 469.258 238.565 469.939 243.868 469.939C250.531 469.939 250.531 463.956 243.868 438.465C238.452 417.653 238.764 414.563 246.193 414.563C249.85 414.563 252.062 419.412 256.486 437.048C265.701 473.03 264.141 479.239 245.654 482.216C238.678 483.322 235.219 482.443 231.25 478.474ZM271.796 470.591C269.131 461.744 262.269 421.85 262.269 415.556C262.269 404.469 271.343 407.899 280.756 422.53C285.407 429.845 289.603 435.488 290.057 435.034C290.51 434.609 289.603 428.513 288.072 421.424C285.974 411.217 286.059 408.127 288.951 406.369C295.586 402.144 297.372 405.574 303.894 435.375C309.451 460.525 309.876 465.487 306.786 467.5C300.037 471.81 297.599 470.052 288.497 454.315C283.535 445.667 279.083 439.033 278.545 439.486C278.091 440.025 279.537 447.227 281.749 455.762C284.84 467.614 285.067 471.47 282.515 473.029C277.326 476.46 273.214 475.468 271.796 470.591ZM316.426 461.745C314.214 454.855 306.446 403.703 307.551 402.598C308.119 402.031 315.434 400.811 323.628 399.818C337.578 398.145 338.684 398.372 338.684 403.363C338.684 407.474 336.359 409.118 329.157 410.451C322.182 411.784 320.197 413.343 321.303 416.207C322.182 418.419 322.834 421.425 322.834 422.871C322.834 424.289 326.718 424.628 332.049 423.636C340.13 422.076 341.349 422.53 341.349 427.293C341.349 431.065 339.025 433.049 333.354 434.382C325.386 436.14 323.288 441.357 327.825 448.446C329.384 450.884 332.588 451.423 338.004 450.317C344.1 448.985 346.312 449.552 347.644 453.096C350.083 459.532 347.106 461.404 331.482 463.502C320.849 464.835 317.418 464.495 316.426 461.745ZM620.667 462.736C612.132 459.731 607.483 453.096 607.483 444.221C607.483 436.481 608.277 435.375 613.267 436.14C616.896 436.707 619.676 439.373 620.555 443.342C622.454 450.998 627.869 453.55 630.194 447.681C631.186 445.016 628.324 439.684 622.228 432.936C606.605 415.668 610.829 396.161 630.308 396.161C639.949 396.161 647.038 403.249 647.038 412.776C647.038 422.417 637.396 422.643 633.738 413.116C632.292 409.345 629.968 407.134 628.55 408.013C624.098 410.791 625.544 414.875 635.071 426.613C640.175 432.823 644.371 440.79 644.371 444.335C644.371 455.988 630.875 466.507 620.667 462.736ZM349.317 429.278C345.886 398.826 346.538 393.496 353.315 393.496C357.511 393.496 358.504 396.955 362.275 427.521C366.16 458.626 366.046 459.42 358.844 459.42C352.975 459.42 352.521 458.086 349.317 429.278ZM571.161 453.437C563.647 444.023 564.838 430.384 573.259 430.384C576.605 430.384 578.363 432.709 578.93 437.586C579.469 442.009 581.568 445.242 584.347 445.667C592.541 447.227 589.761 435.148 579.809 425.394C564.299 410.338 569.064 390.859 588.118 390.859C597.758 390.859 604.846 397.947 604.846 407.673C604.846 413.655 603.825 414.761 598.863 414.109C595.092 413.542 592.653 411.132 592.086 407.361C591.661 404.044 589.563 401.378 587.55 401.378C580.802 401.378 583.581 410.678 592.995 419.865C603.741 430.271 605.726 444.789 597.418 452.331C591.662 457.52 575.046 458.2 571.161 453.437ZM390.289 437.586C389.524 428.626 388.531 414.676 388.078 406.68C387.425 392.276 387.425 392.276 397.945 390.631C417.764 387.314 424.286 393.411 427.178 417.994C430.382 444.902 424.626 454.088 404.58 454.088C391.735 454.088 391.735 454.088 390.289 437.586ZM411.895 440.366C415.326 437.048 415.78 420.205 412.774 409.345C411.555 405.149 408.691 402.37 404.693 401.803C399.391 401.038 398.71 401.803 400.156 407.134C401.035 410.451 401.801 420.091 401.801 428.399C401.915 443.796 404.92 447.454 411.895 440.366ZM527.524 449.325C524.206 445.667 523.101 439.373 523.101 424.515C523.101 396.274 525.199 387.74 531.748 388.732C536.71 389.526 537.05 391.284 536.483 414.988C536.171 431.717 537.051 441.017 539.036 442.236C545.019 446.007 548.251 437.473 549.47 413.769C550.774 390.632 551.114 389.526 557.097 388.647C563.533 387.74 563.533 387.74 561.747 416.094C560.528 436.934 558.884 445.781 555.652 449.325C549.896 455.761 533.28 455.761 527.524 449.325ZM433.614 444.221C433.699 440.252 435.826 426.302 438.264 413.23C442.688 389.753 442.915 389.526 450.996 388.732C459.191 387.966 459.189 387.967 466.051 415.669C474.699 449.893 474.7 451.423 466.818 451.423C461.969 451.423 460.182 449.665 458.962 443.569C457.857 438.04 455.873 435.715 452.329 435.715C448.785 435.715 446.686 438.04 445.467 443.569C443.029 454.315 433.501 454.854 433.699 444.221H433.614ZM454.653 418.532C454.653 414.875 453.434 411.897 451.988 411.897C450.542 411.897 449.323 414.875 449.323 418.532C449.323 422.19 450.542 425.083 451.988 425.083C453.434 425.083 454.653 422.19 454.653 418.532ZM477.366 449.438C476.685 448.332 476.912 433.815 477.904 417.2L479.577 386.86L494.066 387.513C504.16 387.966 509.575 389.526 511.9 392.616C515.898 398.06 516.353 413.542 512.582 415.867C510.796 417.001 510.796 419.213 512.582 422.417C514.028 425.195 515.218 432.823 515.218 439.486C515.218 450.431 514.679 451.423 508.697 451.423C502.941 451.423 502.259 450.204 501.494 438.919C500.728 428.286 499.85 426.301 494.746 425.621C489.302 424.855 488.878 425.735 488.878 438.154C488.878 449.552 488.083 451.423 483.66 451.423C480.91 451.423 478.018 450.544 477.366 449.438ZM502.061 405.574C502.061 398.486 496.306 395.055 491.854 399.478C486.325 405.036 488.31 411.897 495.399 411.897C500.616 411.897 502.061 410.565 502.061 405.574ZM330.717 366.36C330.717 363.156 329.497 358.734 328.165 356.635C326.265 353.743 325.5 355.728 325.5 364.035C325.5 370.925 326.492 374.668 328.165 373.676C329.611 372.797 330.717 369.479 330.717 366.36ZM623.22 360.378C623.22 353.091 622.227 348.979 620.667 349.972C619.221 350.879 618.002 356.294 618.002 362.05C618.002 367.693 619.221 372.343 620.667 372.343C622.113 372.343 623.22 367.041 623.22 360.378ZM636.405 360.491C636.405 354.083 635.299 348.639 633.853 348.639C632.406 348.639 631.187 354.083 631.187 360.491C631.187 367.041 632.406 372.457 633.853 372.457C635.299 372.457 636.405 367.041 636.405 360.491ZM359.723 359.074C359.723 352.637 358.731 348.979 357.058 349.972C355.64 350.879 354.534 355.727 354.534 360.718C354.534 365.708 355.64 369.791 357.058 369.791C358.504 369.791 359.723 364.943 359.723 359.074ZM372.908 357.741C372.908 352.751 371.689 348.639 370.243 348.639C368.797 348.639 367.578 353.516 367.578 359.385C367.578 365.822 368.712 369.48 370.243 368.487C371.689 367.58 372.908 362.703 372.908 357.741ZM610.034 359.272C610.034 353.403 608.929 348.639 607.483 348.639C606.066 348.639 604.846 353.403 604.846 359.272C604.846 365.056 606.066 369.791 607.483 369.791C608.929 369.791 610.034 365.056 610.034 359.272ZM386.093 359.385C386.093 355.189 384.873 350.879 383.427 349.972C381.868 349.093 380.762 352.184 380.762 357.741C380.762 362.93 381.981 367.155 383.427 367.155C384.873 367.155 386.093 363.61 386.093 359.385ZM397.718 358.733C397.378 355.415 396.952 351.644 396.839 350.538C396.725 349.319 395.506 349.093 393.947 349.972C391.083 351.871 390.402 362.703 393.068 365.255C396.045 368.26 398.37 364.942 397.718 358.733ZM570.623 357.968C570.623 352.864 569.404 348.639 567.958 348.639C566.512 348.639 565.291 352.864 565.291 357.968C565.291 363.043 566.512 367.155 567.958 367.155C569.404 367.155 570.623 363.043 570.623 357.968ZM583.779 357.968C583.779 352.864 582.559 348.639 581.142 348.639C579.696 348.639 578.477 352.864 578.477 357.968C578.477 363.043 579.696 367.155 581.142 367.155C582.559 367.155 583.779 363.043 583.779 357.968ZM596.963 357.968C596.963 352.864 595.745 348.639 594.327 348.639C592.881 348.639 591.662 352.864 591.662 357.968C591.662 363.043 592.881 367.155 594.327 367.155C595.745 367.155 596.963 363.043 596.963 357.968ZM457.206 355.189C457.206 347.646 453.095 344.556 450.996 350.198C447.877 358.052 449.096 364.489 453.321 362.816C455.419 362.051 457.206 358.506 457.206 355.189ZM544.254 356.635C544.254 352.297 543.033 348.639 541.587 348.639C540.141 348.639 538.922 352.297 538.922 356.635C538.922 360.945 540.141 364.489 541.587 364.489C543.033 364.489 544.254 360.945 544.254 356.635ZM557.438 356.635C557.438 352.297 556.218 348.639 554.772 348.639C553.326 348.639 552.107 352.297 552.107 356.635C552.107 360.945 553.326 364.489 554.772 364.489C556.218 364.489 557.438 360.945 557.438 356.635ZM473.027 355.954C472.914 346.002 468.831 341.778 465.4 348.214C460.949 356.522 461.856 361.824 467.839 361.824C471.496 361.824 473.027 360.179 473.027 355.954ZM485.757 355.189C485.219 351.531 483.773 348.526 482.213 348.526C480.795 348.526 479.237 351.531 478.783 355.189C478.244 359.952 479.236 361.824 482.213 361.824C485.332 361.824 486.325 359.952 485.757 355.189ZM425.619 250.732C425.619 247.187 419.635 249.399 418.331 253.283C417.651 255.268 418.87 255.835 421.422 254.843C423.747 253.964 425.619 252.064 425.619 250.732Z" fill="#C83E3D"/>
</svg>
