<svg width="961" height="645" viewBox="0 0 961 645" fill="none" xmlns="http://www.w3.org/2000/svg">
<path fill-rule="evenodd" clip-rule="evenodd" d="M442.647 643.925C398.006 641.554 345.36 633.387 340.375 628.098C336.971 624.451 326.535 622.951 328.662 626.356C329.371 627.45 328.5 628.24 326.92 628.24C325.339 628.24 324.001 626.902 324.001 625.241C324.001 622.87 323.353 622.627 321.468 624.207C319.644 625.707 314.416 625.079 301.285 621.512C187.138 591.116 85.7369 525.583 38.3191 451.497C28.3492 435.894 14.6509 407.078 16.9407 406.369C20.4261 405.193 19.0886 398.446 15.4411 398.446C8.55129 398.446 0 357.857 0 324.928C0 222.412 69.7487 128.69 192.67 66.0742C214.515 54.9087 218.791 53.3282 220.371 55.6991C221.972 58.0903 222.438 57.9279 223.39 54.5235C225.052 48.343 270.889 31.2405 315.531 20.1763C345.522 12.6381 371.804 8.13924 372.595 10.267C373.547 13.2863 376.708 12.8814 376.708 9.88232C376.708 6.70087 399.91 3.70141 445.666 1.00629C540.016 -4.60686 647.821 13.5091 731.957 49.2144C754.045 58.5562 780.327 72.1735 781.361 74.7875C781.685 75.7399 783.265 76.4492 784.927 76.4492C788.554 76.4492 811.432 90.4522 830.602 104.394C868.03 131.629 896.765 160.586 917.738 192.259C932.632 214.651 944.02 238.075 942.683 243.547C941.973 246.546 942.358 247.417 944.263 246.708C945.925 246.08 947.262 247.336 947.911 250.031C948.458 252.483 950.606 260.326 952.734 267.6C979.887 361.889 935.955 466.047 839.215 536.748C819.761 550.994 806.224 559.221 802.658 558.977C795.525 558.592 791.026 560.639 791.026 564.286C791.026 566.576 789.831 568.015 787.683 568.015C785.88 568.015 782.941 569.677 781.199 571.723C776.214 577.438 751.37 589.293 744.622 589.07C740.205 588.908 738.461 589.779 737.752 592.555C736.172 598.797 730.782 597.054 730.782 590.326C730.782 585.422 730.295 584.875 728.005 586.759C726.506 588.036 724.52 588.502 723.507 587.955C719.069 585.179 716.05 588.907 717.711 594.926C718.664 598.168 718.826 601.329 718.036 602.039C713.76 605.929 657.791 622.87 628.509 629.192C579.916 639.649 501.616 647.714 495.678 642.891C493.47 640.986 492.679 640.986 492.051 642.891C491.321 645.181 472.253 645.586 442.647 644.006V643.925ZM749.627 578.856C749.627 578.066 748.756 577.438 747.722 577.438C746.689 577.438 745.899 579.323 745.899 581.633C745.899 585.098 746.304 585.341 747.722 583.051C748.756 581.551 749.627 579.565 749.627 578.856ZM20.7501 389.915C20.7501 388.314 19.8789 387.463 18.8454 388.172C17.8119 388.8 17.0217 390.056 17.0217 391.09C17.0217 392.042 17.8119 392.832 18.8454 392.832C19.8789 392.832 20.7501 391.495 20.7501 389.915ZM171.454 85.8726C171.454 83.8056 171.069 82.0625 170.745 82.0625C170.279 82.0625 169.569 83.8056 169.002 85.8726C168.455 87.9192 168.779 89.5806 169.711 89.5806C170.664 89.5806 171.454 87.9192 171.454 85.8726ZM522.285 624.288C591.791 620.418 652.34 607.185 718.502 581.389C735.301 574.824 736.638 574.581 736.01 577.742C735.685 579.018 737.023 580.356 738.928 580.762C741.623 581.309 742.251 580.518 741.785 577.195C741.238 573.709 742.818 571.967 749.627 568.319C754.288 565.786 764.035 560.416 771.31 556.303C784.684 548.704 785.008 548.704 800.996 551.946C806.609 553.121 807.724 550.912 803.286 547.265C801.787 546.008 800.51 543.86 800.51 542.523C800.51 539.828 829.244 518.855 833.844 518.227C835.344 517.983 837.168 516.95 837.796 515.835C838.505 514.741 840.815 513.465 842.862 513.08C844.929 512.674 846.671 511.093 846.671 509.594C846.671 508.094 855.223 498.347 865.578 487.972C902.155 451.639 922.662 417.919 933.969 375.81C939.035 357.289 941.811 330.298 940.393 313.843C939.278 300.53 939.278 300.529 945.459 301.806C951.619 303.002 951.619 303.002 948.377 297.997C946.553 295.241 943.635 293.012 941.892 293.012C939.521 293.012 937.941 289.607 935.55 279.253C933.746 271.654 929.389 257.873 925.742 248.694C920.21 234.448 919.562 231.672 922.013 230.416C923.533 229.545 924.789 227.477 924.789 225.816C924.789 223.04 924.405 223.121 921.223 225.978C917.738 229.058 917.353 228.673 908.477 213.779C852.528 119.592 725.229 48.5866 570.169 25.1614C533.532 19.609 431.725 19.143 396.506 24.29C329.371 34.1789 277.374 48.5054 227.342 70.8972C215.873 76.0442 205.66 80.0158 204.626 79.6915C203.674 79.2862 200.978 80.8061 198.77 82.9338C196.48 85.0818 185.233 92.1946 173.764 98.7602C145.171 115.235 123.57 131.77 97.6116 157.1C33.8812 219.169 7.92284 292.545 23.5261 366.388C32.1384 407.078 55.8881 449.349 89.7695 484.345C139.315 535.552 224.018 581.633 308.013 603.072C318.287 605.686 327.872 609.252 329.148 610.914C330.567 612.657 331.519 612.961 331.519 611.704C331.519 608.462 335.309 608.928 339.342 612.576C341.246 614.237 342.827 614.785 342.827 613.691C342.827 612.333 345.36 612.252 350.831 613.529C369.818 617.804 412.575 622.627 449.699 624.755C471.929 626.031 489.741 627.855 489.741 628.808C489.741 629.821 491.018 629.517 492.598 628.159C494.422 626.659 505.425 625.241 522.285 624.288ZM444.552 615.656C310.384 609.496 177.797 557.397 100.692 480.454C76.7195 456.644 64.9258 440.656 51.7745 414.515C37.4478 385.78 31.9967 364.584 30.7201 332.587C29.6056 303.711 31.7537 286.061 38.9474 264.845C77.8138 150.069 211.029 62.2037 387.407 34.8877C424.754 29.1124 507.391 27.6131 548.162 32.0306C748.837 53.7335 906.268 162.41 927.647 293.964C942.439 384.929 890.908 474.213 787.298 536.829C764.886 550.365 725.168 569.9 719.94 569.9C717.792 569.9 715.746 570.629 715.422 571.561C714.55 573.872 682.979 585.26 655.501 593.183C614.588 604.896 563.279 613.366 519.59 615.656C507.006 616.284 505.263 615.98 506.216 613.366C507.168 610.833 506.763 610.833 503.521 613.691C499.731 617.014 484.452 617.48 444.552 615.656ZM555.133 606.395C559.165 605.301 559.165 605.058 556.328 599.425C553.309 593.649 553.309 593.649 550.776 598.249C546.116 606.638 547.129 608.543 555.133 606.395ZM397.377 601.41C397.377 593.345 394.439 591.44 390.731 597.135C387.873 601.41 387.793 602.444 390.083 603.943C394.601 606.8 397.458 605.848 397.377 601.41ZM581.963 601.41C581.801 597.763 576.815 591.987 574.85 593.183C573.816 593.811 572.621 596.425 572.155 599.039C571.364 603.234 571.912 603.781 576.654 603.781C579.673 603.781 581.963 602.768 581.963 601.41ZM374.804 597.702C374.743 589.293 371.885 587.874 367.529 594.054C363.415 599.911 364.205 601.411 371.561 601.735C373.79 601.816 374.804 600.539 374.804 597.702ZM604.517 597.702C604.517 596.345 603.179 593.568 601.679 591.521C599.227 588.36 598.579 588.198 596.999 590.569C593.675 595.959 594.871 599.992 599.937 599.992C602.47 599.992 604.598 598.959 604.517 597.702ZM351.297 589.07C350.041 584.004 350.04 584.003 345.218 589.617C340.293 595.311 340.294 595.311 345.765 596.344C352.087 597.459 353.121 596.183 351.297 589.07ZM624.943 594.602C626.848 593.426 626.604 592.15 623.686 588.583C619.572 583.436 618.843 583.679 617.12 591.035C616.087 595.23 616.472 596.263 619.167 596.182C620.991 596.182 623.605 595.473 624.943 594.602ZM329.615 586.922C329.615 579.241 327.162 578.533 322.421 584.875C318.773 589.86 318.692 590.407 321.692 591.197C328.581 593.021 329.615 592.393 329.615 586.922ZM647.03 588.583C648.307 586.537 642.917 579.322 640.06 579.322C639.188 579.322 638.479 581.856 638.479 584.956C638.479 589.293 639.35 590.569 642.207 590.569C644.173 590.569 646.402 589.698 647.03 588.583ZM315.288 585.747C315.916 584.085 316.483 581.39 316.483 579.809C316.483 577.276 315.916 577.276 312.674 580.275C310.627 582.099 308.945 584.794 308.945 586.212C308.945 589.698 313.95 589.374 315.288 585.747ZM670.375 581.937C670.861 581.551 669.118 579.019 666.666 576.405C662.553 571.967 662.066 571.886 660.81 574.966C657.79 582.646 658.905 585.422 664.376 584.085C667.213 583.355 669.909 582.423 670.375 581.937ZM295.733 577.438C295.733 570.771 293.909 570.305 289.005 575.615C286.006 578.938 285.925 579.809 288.296 581.227C293.281 584.469 295.733 583.213 295.733 577.438ZM688.835 576.242C692.705 575.209 692.787 574.905 690.01 570.629C685.816 564.287 681.864 564.834 681.864 571.723C681.864 577.742 682.249 577.985 688.835 576.242ZM275.003 570.933C275.003 564.368 271.518 563.091 266.837 567.853C263.351 571.338 263.209 572.129 265.58 573.709C270.889 577.032 275.003 575.837 275.003 570.933ZM713.598 566.9C715.097 565.563 711.936 560.558 708.309 558.674C704.742 556.688 704.418 557.093 704.418 563.334C704.418 569.515 704.823 569.981 708.694 568.806C710.984 568.097 713.213 567.225 713.598 566.9ZM252.429 561.429C252.429 553.607 250.848 553.202 244.911 559.463C240.554 564.124 240.554 564.124 245.073 565.948C251.963 568.724 252.368 568.481 252.368 561.429H252.429ZM732.524 558.755C735.766 556.607 734.105 551.946 729.039 549.25C725.472 547.265 725.168 547.67 725.168 553.83C725.168 560.558 727.296 561.997 732.524 558.755ZM229.794 551.864C229.794 544.894 228.76 544.732 221.729 550.75C218.487 553.526 218.568 553.769 222.681 556.059C229.085 559.626 229.794 559.22 229.794 551.864ZM752.626 549.088C757.692 547.184 757.692 547.183 753.336 542.523C747.479 536.261 745.899 536.667 745.899 544.428C745.899 551.865 745.655 551.784 752.626 549.088ZM209.145 540.618C209.145 534.762 208.658 534.214 205.659 535.795C199.013 539.362 197.189 542.989 200.979 545.218C207.078 548.704 209.064 547.589 209.064 540.618H209.145ZM774.957 537.214C778.199 534.843 778.038 534.438 772.485 530.486C766.568 526.291 766.568 526.291 766.568 533.019C766.568 540.294 769.101 541.489 774.957 537.214ZM188.314 528.905C188.395 523.839 186.895 523.596 181.039 527.791C176.601 530.891 176.601 530.892 181.039 534.215C186.024 538.004 188.314 536.261 188.314 528.905ZM793.864 525.501C797.592 522.644 797.592 522.563 792.911 519.017C787.379 514.822 785.312 516.16 786.751 523.293C787.845 529.23 788.636 529.452 793.864 525.501ZM167.664 517.983C167.664 511.255 167.664 511.255 161.889 514.66C156.175 518.064 156.175 518.064 160.227 521.387C166.165 526.21 167.664 525.501 167.664 517.983ZM807.4 509.108C806.853 507.851 806.448 508.885 806.448 511.499C806.448 514.113 806.853 515.126 807.4 513.869C807.886 512.512 807.886 510.465 807.4 509.108ZM148.434 499.138C147.076 497.881 137.511 502.238 137.511 504.123C137.511 504.994 139.396 506.98 141.767 508.641C145.82 511.499 146.043 511.418 147.705 505.865C148.657 502.704 148.981 499.705 148.434 499.138ZM819.437 507.689C824.503 504.913 824.017 502.623 817.451 499.219C812.081 496.442 811.757 496.523 811.757 500.009C811.757 504.041 813.581 509.594 814.918 509.594C815.404 509.594 817.451 508.722 819.437 507.689ZM130.784 483.473C129.75 482.278 118.666 487.263 118.666 488.925C118.666 489.634 120.652 491.62 122.942 493.119C126.974 495.895 127.299 495.733 129.264 490.12C130.46 486.878 131.088 483.858 130.784 483.473ZM841.829 488.702C841.991 487.182 832.264 482.906 831.149 483.94C830.683 484.507 830.825 487.425 831.554 490.586C832.811 496.301 832.892 496.382 837.33 493.119C839.782 491.316 841.829 489.33 841.829 488.702ZM113.053 470.646C113.053 467.789 107.743 467.404 103.711 469.937C101.32 471.436 101.482 472.308 104.582 475.712C107.987 479.502 108.372 479.502 110.581 476.421C111.939 474.598 113.053 471.984 113.053 470.646ZM858.85 471.842C858.85 471.052 856.317 469.532 853.237 468.438C846.894 466.29 845.719 468.742 849.59 476.037C851.495 479.583 851.818 479.664 855.223 476.503C857.269 474.679 858.85 472.632 858.85 471.842ZM95.2406 456.705C98.9489 449.511 98.3208 448.802 90.8029 451.416C85.1087 453.382 85.0279 453.543 87.8648 457.981C91.6745 463.675 91.5931 463.676 95.2406 456.705ZM872.468 457.9C875.71 453.462 875.71 453.381 870.016 452.125C862.741 450.544 861.951 451.416 864.707 457.576C867.483 463.594 868.354 463.675 872.468 457.9ZM80.2658 440.412C83.7512 435.812 83.5079 432.408 79.6375 432.408C73.153 432.489 71.005 435.184 73.7812 439.703C76.7802 444.526 77.1046 444.607 80.2658 440.412ZM886.713 439.136C888.942 434.232 886.956 432.408 879.438 432.408C875.001 432.408 875.001 433.117 878.871 439.055C882.681 444.85 884.099 444.85 886.713 439.136ZM900.25 415.954C900.25 414.515 897.96 413.583 894.636 413.583C888.152 413.583 887.99 413.968 892.104 420.23C894.94 424.647 895.265 424.728 897.636 421.567C899.075 419.743 900.169 417.21 900.25 415.954ZM68.1679 419.824C73.2339 415.244 72.4439 413.583 64.9868 413.583C57.793 413.583 57.4685 413.968 60.4068 419.358C62.7777 423.776 63.73 423.857 68.1679 419.824ZM61.1972 395.203C61.8253 393.542 60.0825 392.832 55.5839 392.832C48.3699 392.832 48.0458 393.238 50.9841 398.608C52.5647 401.627 53.4363 401.85 56.5164 399.966C58.5833 398.689 60.65 396.561 61.1972 395.203ZM909.429 397.433C910.625 394.819 911.577 392.285 911.577 391.799C911.577 390.542 902.945 390.785 899.378 392.123C896.683 393.156 896.845 393.866 900.493 397.817C905.802 403.451 906.734 403.37 909.429 397.433ZM51.2272 376.52C56.3742 371.94 55.4218 370.278 47.9038 370.278C42.4325 370.278 41.3184 370.826 42.1897 373.196C42.8382 374.858 43.3851 377.006 43.3851 377.959C43.3851 380.654 47.4175 379.924 51.2272 376.52ZM917.434 373.521C918.69 368.779 918.467 368.617 912.834 369.651C905.012 371.15 904.769 371.454 908.801 375.891C913.077 380.654 915.691 379.924 917.434 373.521ZM49.4845 349.305C48.6942 348.515 45.7558 347.319 42.9188 346.61C38.3189 345.495 37.6908 345.901 37.6908 349.933C37.6908 356.58 39.4339 357.37 45.5131 353.804C48.4513 352.061 50.1937 350.015 49.4845 349.305ZM921.871 352.142C923.452 345.82 922.581 345.11 915.529 346.691C908.558 348.19 908.477 348.819 913.948 353.418C919.561 358.079 920.351 357.917 921.871 352.142ZM47.9848 326.812C47.4985 326.022 44.5808 324.522 41.4804 323.408C35.9483 321.523 35.8671 321.604 35.8671 327.926C35.8671 334.411 35.8673 334.411 42.3518 331.25C45.9182 329.588 48.4509 327.521 47.9848 326.812ZM923.614 314.228C921.932 307.196 921.709 307.115 916.319 309.952C910.463 313.053 910.382 314.471 915.853 317.085C923.128 320.57 924.951 319.922 923.614 314.228ZM42.6758 307.987C46.8705 306.406 47.4176 305.595 45.2088 304.258C40.386 301.178 35.8671 302.191 35.8671 306.244C35.8671 310.601 35.8671 310.601 42.6758 307.987ZM921 291.593C920.919 284.541 918.224 283.285 912.53 287.723C907.139 291.999 907.139 291.998 911.739 293.255C919.338 295.403 921 295.078 921 291.593ZM48.9984 289.222C51.3896 287.641 51.146 286.77 47.1945 283.751C41.7232 279.475 40.3861 279.961 39.1094 286.365C38.4002 290.256 38.9475 291.127 42.1897 291.127C44.4188 291.127 47.4178 290.255 48.9984 289.222ZM915.367 269.039C915.286 267.216 914.496 264.439 913.543 262.939C912.044 260.569 911.01 260.872 906.896 264.763C902.479 268.958 902.317 269.505 905.397 270.701C911.496 273.071 915.367 272.444 915.367 269.039ZM57.3265 266.891C58.3397 265.229 49.5658 256.05 48.2081 257.408C47.742 257.793 46.8704 260.488 46.1612 263.345C44.8845 268.168 45.2902 268.553 50.5791 268.553C53.7605 268.553 56.7591 267.844 57.3265 266.891ZM907.849 248.856C907.849 248.37 906.815 245.837 905.64 243.142C903.411 238.319 903.411 238.319 899.074 242.432C893.056 248.147 893.522 249.728 901.202 249.728C904.85 249.728 907.849 249.322 907.849 248.856ZM65.9391 244.499C65.9391 243.709 64.5205 241.014 62.8588 238.562C59.8597 234.286 59.6165 234.286 57.1645 237.528C53.1117 243.142 54.1453 245.918 60.3258 245.918C63.4059 245.918 65.9391 245.289 65.9391 244.499ZM896.46 226.606C896.46 225.35 895.265 222.817 893.927 220.993C891.536 217.812 891.151 217.893 888.294 222.33C884.18 228.592 884.343 228.977 890.908 228.977C894.15 228.977 896.541 228.025 896.46 226.606ZM77.2665 223.526C77.2665 222.655 75.767 219.96 73.8622 217.67C70.4578 213.475 70.4577 213.475 67.3775 218.217C65.7159 220.75 64.8447 223.445 65.4728 224.073C67.2155 225.897 77.2665 225.411 77.2665 223.526ZM884.423 208.085C885.133 206.97 884.018 204.357 882.133 202.391C878.567 198.906 878.486 198.905 875.163 204.518C871.839 210.152 871.84 210.152 877.453 210.152C880.614 210.152 883.714 209.199 884.423 208.085ZM89.2222 198.338C86.2029 192.421 86.2028 192.421 82.5756 196.919C78.7659 201.6 79.5563 203.647 85.7369 204.924C91.7553 206.18 92.5455 204.681 89.2222 198.338ZM865.902 192.015C870.887 190.678 871.13 189.564 867.483 184.66C864.788 181.012 864.706 181.012 861.869 184.741C856.479 191.691 857.898 194.143 865.902 192.015ZM107.42 186.868C107.42 186.544 106.467 183.545 105.292 180.222C103.144 174.122 103.144 174.122 98.5639 178.479C93.8829 182.836 93.883 182.836 99.2732 185.126C104.724 187.415 107.42 188.064 107.42 186.868ZM852.042 173.819C855.142 171.508 855.142 171.205 851.332 167.8C847.928 164.7 847.057 164.558 845.557 166.929C840.957 174.285 845.152 178.804 852.042 173.819ZM124.279 168.266C124.198 166.928 123.185 164.071 121.908 161.781C119.699 157.809 119.537 157.81 115.424 161.153C111.148 164.619 112.019 166.766 118.666 169.218C123.246 170.961 124.36 170.718 124.279 168.266ZM833.358 159.005C839.215 156.31 839.296 155.277 834.149 152.034C829.65 149.279 826.955 151.487 826.874 157.891C826.874 161.781 827.117 161.862 833.358 159.005ZM141.301 151.325C141.22 148.954 140.43 145.793 139.477 144.213C137.897 141.822 137.106 141.983 133.621 145.469C129.507 149.501 129.507 149.501 134.978 152.439C137.896 154.101 140.591 155.439 140.835 155.439C141.058 155.52 141.301 153.615 141.301 151.325ZM815.627 144.213C820.389 141.68 820.308 139.228 815.404 136.614C810.723 134.162 810.561 134.222 808.9 140.95C807.481 146.583 809.386 147.536 815.627 144.213ZM160.146 134.952C160.146 127.738 157.775 126.482 152.466 130.757C148.272 134.223 148.272 134.223 152.709 137.323C158.951 141.68 160.146 141.274 160.146 134.952ZM797.754 130.109C801.381 127.353 801.381 127.272 797.754 124.495C793.154 120.929 791.088 120.848 791.088 124.333C791.088 125.752 790.54 128.285 789.912 129.947C788.494 133.756 792.911 133.918 797.754 130.109ZM180.634 124.881C180.573 123.624 179.924 120.625 179.215 118.315C178.1 114.201 177.796 114.121 173.683 117.059C169.488 119.977 169.488 120.301 172.568 123.705C176.216 127.738 180.958 128.447 180.634 124.881ZM777.49 118.72C782.779 114.91 782.698 113.33 777.085 110.716C772.181 108.507 770.357 110.493 770.357 118.011C770.357 122.429 772.019 122.509 777.49 118.72ZM199.722 109.378C199.722 102.164 198.445 101.456 192.994 105.427C189.428 108.021 189.428 108.183 192.913 112.074C197.979 117.606 199.722 116.977 199.722 109.378ZM758.402 107.15C762.92 104.151 763.002 103.826 759.82 101.536C754.288 97.5037 751.512 98.5373 751.512 104.698C751.512 111.283 751.917 111.365 758.402 107.15ZM217.838 94.0182C217.372 93.4711 215.082 94.0997 212.853 95.2953C208.74 97.5041 208.74 97.5038 213.096 102.165C217.534 106.927 217.534 106.926 218.162 100.908C218.487 97.5847 218.325 94.4843 217.838 94.0182ZM738.847 95.5179C742.089 92.8228 742.028 92.5189 737.895 90.2899C731.491 86.6626 730.782 87.1289 730.782 94.424C730.782 101.456 731.896 101.617 738.847 95.5179ZM239.217 89.5806C239.217 83.8053 236.846 82.5486 231.78 85.7909C229.409 87.2094 229.571 88.0809 232.57 91.4042C237.393 96.7134 239.217 96.2272 239.217 89.5806ZM716.536 87.8379C720.325 83.7243 719.454 81.11 713.841 79.6915C710.599 78.8202 710.031 79.6109 710.031 85.0822C710.031 92.357 711.774 93.066 716.536 87.8379ZM259.319 75.1728C258.772 74.6257 256.563 75.2536 254.253 76.4492C250.139 78.658 250.139 78.6585 254.577 83.3395C259.015 88.0813 259.015 88.0809 259.562 82.0625C259.967 78.7392 259.805 75.6591 259.319 75.1728ZM698.643 73.9162C698.238 73.5109 695.948 72.5587 693.577 71.8495C689.706 70.6742 689.382 71.1403 689.382 77.7058C689.382 84.8388 689.382 84.8386 694.448 79.7726C697.224 76.9153 699.109 74.3012 698.643 73.9162ZM278.792 72.8018C278.792 68.3032 278.164 67.4928 275.084 68.3641C271.517 69.2355 271.518 69.4785 274.598 73.7542C278.711 79.3674 278.792 79.3674 278.792 72.8018ZM297.638 66.7834C297.638 61.7985 297.091 61.2514 293.362 62.4268C287.506 64.1695 287.506 64.2503 291.072 69.6405C294.943 75.5779 297.638 74.3825 297.638 66.7834ZM666.747 68.4451C670.374 64.5747 670.456 64.1692 667.294 62.9938C661.276 60.6229 659.229 61.3327 659.229 65.7705C659.229 69.6409 660.648 72.6398 662.309 72.6398C662.634 72.6398 664.599 70.7552 666.828 68.4451H666.747ZM319.645 56.4288C319.077 55.7804 316.321 56.1041 313.626 56.9755C308.641 58.6371 308.641 58.6374 312.998 64.0884C317.355 69.6408 317.355 69.6406 319.016 63.6221C320.029 60.2178 320.273 57.057 319.645 56.4288ZM644.902 62.9128C648.226 58.2318 647.658 56.5703 642.288 55.1518C639.046 54.3615 638.479 55.0711 638.479 60.6235C638.479 67.9793 640.769 68.7692 644.902 62.9128ZM341.489 56.1852C342.746 49.7007 342.28 49.2959 336.342 51.2818C331.682 52.8624 331.601 53.1056 334.438 57.1381C338.328 62.7513 340.294 62.4265 341.489 56.1852ZM623.038 57.5228C625.895 52.9431 624.557 50.0858 619.572 50.0858C615.844 50.0858 614.972 53.0241 617.039 58.3941C618.62 62.3659 620.201 62.1227 623.038 57.5228ZM363.577 55.2328C363.577 53.9562 364.124 50.957 364.753 48.5861C365.786 44.5536 365.482 44.3109 360.477 45.5065C353.202 47.2289 353.121 47.3905 356.768 52.8618C360.092 57.9278 363.496 59.1032 363.577 55.2328ZM600.018 45.7291C593.513 43.5203 592.641 44.6351 594.323 52.2341C595.661 58.3944 595.661 58.3939 600.403 52.8618C605.084 47.3905 605.084 47.3907 600.018 45.7291ZM386.131 47.1681C386.131 43.5206 385.178 42.5677 381.47 42.5677C375.918 42.5677 375.614 43.9056 379.646 49.7011C383.213 54.6861 386.131 53.4905 386.131 47.1681ZM578.72 48.4241C581.963 42.973 581.963 42.9735 576.816 41.9401C570.331 40.7445 570.088 40.9875 571.588 48.0394C573.188 55.2332 574.688 55.3139 578.72 48.4241ZM408.462 44.3915C410.346 39.0012 410.205 38.7584 404.895 38.7584C398.958 38.7584 398.168 40.5821 401.248 46.4384C404.024 51.5855 406.152 50.957 408.462 44.3915ZM556.552 44.3915C559.49 38.7581 559.49 38.7584 553.795 38.7584C547.777 38.7584 547.534 39.1634 549.277 45.8101C550.857 51.5853 553.066 51.1191 556.552 44.3915ZM429.435 41.4534C429.435 38.1301 428.402 36.8741 425.707 36.8741C421.35 36.8741 420.965 39.0823 424.207 44.3104C426.983 48.8293 429.435 47.5529 429.435 41.4534ZM443.357 39.4881C444.471 36.0027 444.005 35.5971 439.871 36.3874C434.582 37.4209 434.096 39.0014 437.196 44.8577C439.486 49.0524 440.824 47.8774 443.357 39.4881ZM466.721 35.8401C466.072 35.2119 463.458 34.9691 460.865 35.3744C456.184 35.9215 456.103 36.0022 458.96 42.5677L461.797 49.1334L464.816 43.0341C466.478 39.6297 467.268 36.3872 466.721 35.8401ZM512.234 37.3397C512.315 36.0833 510.167 34.9688 507.634 34.9688C502.325 34.9688 502.021 36.1645 504.939 43.8243C506.925 49.1335 506.925 49.1333 509.539 44.3915C511.038 41.8585 512.234 38.6164 512.234 37.3397ZM533.998 42.5677C536.916 36.8735 536.916 36.8741 531.222 36.8741C525.122 36.8741 524.899 37.2588 526.723 43.9054C528.222 49.7009 530.512 49.2954 533.998 42.5677ZM489.741 37.4207C489.741 36.0833 487.613 34.9688 484.999 34.9688C479.852 34.9688 479.224 36.955 482.466 42.9734C484.533 46.8439 484.675 46.8435 487.127 43.4391C488.566 41.5343 489.741 38.8392 489.741 37.5018V37.4207ZM420.012 604.268C420.012 602.444 419.141 599.667 418.108 598.168C416.446 595.716 415.818 595.797 413.447 598.958C409.333 604.348 410.043 607.591 415.332 607.591C418.594 607.591 420.012 606.558 420.012 604.268ZM458.332 592.778C462.445 589.292 466.559 591.987 469.963 600.62C473.124 608.462 473.125 608.462 475.495 602.768C476.853 599.587 479.386 595.554 481.19 593.73C484.452 590.569 484.756 590.569 488.87 594.44C491.261 596.669 493.713 600.701 494.422 603.397C495.597 608.219 495.678 608.138 499.083 600.62C504.554 588.36 508.992 587.955 515.395 599.202L519.124 605.686L522.447 598.168C524.575 593.264 527.027 590.569 529.256 590.569C532.579 590.569 539.064 597.844 540.887 603.619C541.353 605.058 543.258 602.281 545.082 597.378C549.196 586.698 554.343 586.131 560.361 595.716C565.184 603.477 565.893 603.397 568.041 595.007C570.878 583.68 575.478 582.646 583.077 591.521C587.738 597.053 589.481 598.168 589.481 595.716C589.562 590.407 594.952 581.146 598.032 581.146C599.532 581.146 602.632 583.679 604.841 586.759C609.197 592.636 612.116 592.697 612.116 586.922C612.116 585.037 613.716 581.552 615.682 579.16C619.167 574.824 619.167 574.824 625.024 580.6C630.961 586.537 632.866 586.698 632.866 581.227C632.866 579.566 633.98 576.628 635.399 574.743C638.803 570.062 644.741 572.21 649.644 579.89C651.772 583.213 653.515 584.631 653.515 583.051C653.596 581.551 654.467 577.114 655.582 573.163C658.034 564.287 662.309 563.962 670.314 572.129C676.17 578.147 676.17 578.147 676.17 573.223C676.17 565.948 679.412 558.592 682.654 558.592C684.235 558.592 688.43 561.206 692.158 564.448L698.805 570.305V563.658C698.805 549.96 703.628 547.427 713.598 555.816C719.292 560.639 719.292 560.639 719.859 552.736C720.649 541.571 724.844 539.504 733.315 546.009C740.042 551.075 740.042 551.074 740.59 542.118C741.299 531.114 745.98 529.372 754.997 536.971C760.935 541.976 760.935 541.976 760.935 532.634C760.935 519.564 766.791 518.065 778.585 528.278C782.07 531.196 782.151 530.972 780.894 522.644C779.152 510.627 782.698 507.527 792.607 512.593C796.396 514.498 800.125 516.403 800.753 516.707C801.463 517.112 801.219 513.869 800.287 509.594C798.382 501.366 799.173 498.347 803.205 498.347C804.563 498.347 806.144 496.605 806.691 494.558C807.947 489.715 812.466 489.796 820.389 494.639C826.549 498.51 826.549 498.509 825.536 488.296C824.259 475.955 826.489 474.436 838.039 479.664C845.476 482.987 845.942 482.987 844.767 479.988C844.057 478.164 842.943 473.504 842.396 469.613C841.119 460.757 844.604 459.096 855.142 463.291C862.66 466.29 862.66 466.29 859.803 459.481C854.352 446.269 857.513 441.993 870.178 445.641C873.805 446.654 876.905 447.444 877.068 447.444C877.209 447.444 875.629 444.202 873.42 440.25C867.564 429.49 869.691 425.924 881.343 427.342C890.604 428.457 890.604 428.456 886.004 421.567C879.195 411.597 880.472 408.983 892.57 408.273L902.702 407.727L896.602 401.384C888.375 392.913 889.489 388.881 900.817 386.348L909.754 384.362L903.978 378.992C896.298 371.697 897.413 368.05 908.416 364.584C917.352 361.727 917.352 361.727 911.658 358.322C900.168 351.514 900.493 345.576 912.611 341.301L920.048 338.687L912.996 335.282C903.816 330.865 903.269 324.988 912.043 325.069C916.238 325.069 917.353 325.637 915.61 326.731C912.996 328.393 913.786 329.203 919.561 331.331C921.932 332.121 922.885 331.493 922.885 329.122C922.885 327.055 920.514 324.927 916.562 323.489C913.077 322.232 908.72 319.537 906.896 317.551C902.945 313.134 904.849 309.79 914.272 304.805C920.047 301.725 920.047 301.725 913.482 299.739C899.702 295.545 898.345 290.094 909.206 282.738C913.077 280.124 914.981 277.975 913.482 277.975C911.881 277.975 907.464 277.023 903.573 276.01C894.637 273.477 894.313 268.877 902.621 261.116L908.801 255.421L901.83 255.34C888.294 255.34 885.295 250.275 892.975 240.609C896.926 235.543 896.926 235.543 888.152 234.995C877.452 234.286 875.872 231.429 881.262 222.33C883.471 218.602 885.214 215.441 885.214 215.218C885.214 215.056 881.404 215.137 876.743 215.522C866.53 216.312 864.322 212.989 868.901 203.404C872.002 197 872.002 197.001 863.045 197.487C855.142 197.872 854.109 197.486 853.541 193.839C853.237 191.549 854.413 186.949 856.074 183.626C859.094 177.851 859.093 177.689 855.77 179.107C853.865 179.979 849.205 181.012 845.476 181.478C837.006 182.431 835.344 179.27 839.072 168.753C841.747 161.214 841.747 161.214 836.296 163.99C833.277 165.571 828.536 166.847 825.759 166.847C820.693 166.847 820.693 166.766 821.889 156.472L823.145 146.178L815.546 150.15C805.191 155.52 801.544 152.744 803.286 140.95C804.563 132.723 804.563 132.723 796.721 136.695C786.183 142.065 782.698 139.531 784.441 127.738C785.718 119.429 785.718 119.429 780.165 123.543C777.085 125.833 772.647 127.353 770.114 127.028C766.082 126.4 765.697 125.448 765.758 117.525C765.839 109.297 765.615 108.892 762.211 110.959C747.965 119.754 745.899 119.106 745.899 106.218C745.899 96.7949 745.899 96.7943 739.961 101.779C730.944 109.378 726.263 107.717 725.554 96.6323C724.925 87.6148 724.925 87.6148 719.15 92.4376C710.274 99.8745 705.532 98.2134 704.823 87.5342C704.256 78.9017 704.256 78.9016 698.481 84.2919C688.673 93.3904 683.769 90.9383 683.769 76.9155C683.769 70.1068 683.769 70.1069 679.331 74.2205C673.941 79.3675 671.651 79.4484 672.989 74.5445C673.86 71.0591 673.475 71.1401 668.328 75.4969C665.248 78.111 661.519 80.2388 660.019 80.2388C656.838 80.2388 653.596 72.8022 653.596 65.6895C653.596 60.8464 653.596 60.8462 649.644 65.8311C643.464 73.6733 638.398 75.7404 635.399 71.6268C633.98 69.722 632.866 65.8309 632.866 62.9128C632.866 56.1852 632.156 56.2663 625.429 63.7032C618.539 71.3022 614.02 69.4789 611.183 58.0095L609.278 50.3288L605.084 56.8135C598.579 66.7023 592.095 65.8313 589.319 54.6861L587.191 46.1348L582.591 52.9434C576.188 62.2852 570.878 61.3323 566.765 50.1668C564.232 43.196 563.441 42.4058 562.489 45.6481C560.665 51.2815 552.519 58.2318 549.277 56.9755C547.696 56.4283 545.386 52.4568 544.13 48.1811L541.84 40.501L538.03 47.0871C535.984 50.7144 533.045 54.1998 531.546 54.7672C527.655 56.2667 522.204 50.7952 520.704 43.8243C519.428 37.968 519.428 37.9678 515.8 45.1008C513.814 48.9712 510.876 52.6189 509.377 53.2471C505.425 54.7669 499.65 48.8906 498.13 42.1021C496.874 36.3066 496.874 36.3066 492.679 44.6351C487.208 55.4764 482.628 55.5571 477.238 45.0198L473.286 37.0967L470.348 44.5541C465.607 56.6517 458.392 56.2667 453.266 43.6827C450.874 37.9683 450.874 37.9682 447.247 45.4254C443.437 53.1663 437.662 56.1043 434.967 51.6664C433.711 49.7008 432.758 49.9241 430.468 52.9434C427.53 56.5707 427.368 56.4896 421.593 49.6201L415.656 42.5677L412.251 50.2478C408.138 59.4274 404.186 59.5084 398.006 50.3288C393.73 43.9861 393.73 43.9864 391.825 49.0524C390.812 51.8286 389.94 54.7671 389.94 55.6385C389.94 58.5565 384.713 61.4134 381.612 60.2178C379.87 59.5896 377.194 56.5702 375.614 53.5711C372.675 47.7958 369.19 47.8774 369.19 53.7338C369.19 55.6386 367.528 59.1845 365.401 61.6364C361.591 66.0742 361.591 66.0745 355.188 58.8808L348.683 51.5854L346.636 59.2654C345.522 63.4601 343.779 67.3507 342.746 67.9789C339.423 70.0256 333.566 66.8643 330.243 61.2512C326.92 55.6988 326.92 55.699 324.468 64.2504C321.144 75.497 317.821 76.6114 309.756 68.7692C303.251 62.5076 303.251 62.508 303.251 68.3035C303.251 71.5458 301.752 75.9634 299.928 78.2735C296.605 82.3871 296.605 82.3871 291.457 78.3546C286.31 74.2207 286.31 74.2206 285.135 80.0972C283.615 87.6152 278.792 87.6152 272.47 80.0972C267.627 74.4638 267.627 74.4635 266.695 78.7392C266.127 81.1101 265.499 85.163 265.175 87.7568C264.466 94.2616 258.143 94.8087 252.51 88.7902C246.492 82.3868 245.863 82.6303 245.559 91.8099C245.235 98.6997 242.864 102.732 238.831 102.813C238.102 102.813 234.556 100.199 230.908 97.0175L224.424 91.3232L223.776 101.293C223.148 113.33 218.568 115.478 210.482 107.474C205.578 102.489 205.578 102.489 205.031 111.587C204.464 119.511 203.836 120.767 200.026 121.335C197.574 121.639 194.17 120.686 192.508 119.267C185.477 113.249 184.362 113.411 185.638 120.301C188.171 133.918 181.505 137.546 169.407 129.015C164.564 125.61 164.564 125.61 165.374 135.58C166.388 147.677 163.855 149.502 153.338 144.132C149.366 142.146 146.043 140.484 145.901 140.484C145.82 140.484 146.043 144.678 146.529 149.825C147.643 161.214 144.543 163.443 134.33 158.539C126.184 154.649 125.86 154.972 128.474 163.443C132.202 175.703 127.38 179.108 114.228 173.656C108.048 171.042 108.048 171.042 110.905 178.945C115.728 192.482 110.58 196.21 95.3216 190.192C92.3023 189.016 91.9175 189.402 93.1739 192.421C99.1112 206.667 99.111 206.585 95.2406 209.341C93.2547 210.861 90.3168 211.732 88.6551 211.246C75.2809 207.761 75.524 207.538 80.2658 216.88C86.2032 228.592 84.7844 231.348 73.2339 230.558C64.5203 229.929 61.8255 231.125 66.0201 233.739C67.0536 234.368 69.1815 237.448 70.8431 240.548C74.8149 248.37 71.8761 251.612 60.6499 251.612H52.0175L58.1169 257.792C61.3591 261.197 64.1154 265.472 64.1154 267.296C64.1154 270.863 57.0834 274.187 49.7275 274.187C45.1276 274.187 45.1278 274.328 51.9365 280.671C59.9205 288.27 59.6978 290.884 50.7411 295.322C47.1949 297.065 45.6751 298.564 47.3368 298.564C51.4503 298.726 56.6784 304.886 55.0168 307.581C54.2265 308.858 50.2747 311.229 46.3232 312.89L38.9474 315.971L46.9515 319.537C57.0835 324.056 57.0026 329.669 46.7084 335.444L39.7377 339.335L47.6608 342.091C58.421 345.82 59.2115 351.352 49.8698 357.695C42.4329 362.761 42.7567 363.47 53.0508 365.375C62.9397 367.118 63.6491 371.393 55.3408 379.864L48.4511 386.976L57.6308 387.523C68.9584 388.253 70.7009 392.913 63.0208 402.012C58.0359 407.868 58.0358 407.868 67.4585 407.868C80.3465 407.868 80.9749 409.935 72.1195 424.343C69.9918 427.909 70.2957 427.991 78.9282 427.18C90.1747 426.086 92.0592 429.328 86.6082 440.007C84.5413 444.121 83.0417 447.444 83.3659 447.444C83.5888 447.444 86.7706 446.573 90.3978 445.56C102.84 441.993 106.953 447.525 100.773 459.481C97.0443 466.614 96.9026 466.533 105.515 463.453C116.052 459.724 119.213 461.385 118.18 469.856C117.714 473.584 116.68 478.246 115.89 480.151C114.471 483.474 114.633 483.473 120.166 480.616C132.506 474.213 139.882 478.57 135.688 489.715C132.668 497.638 133.317 498.672 139.315 495.511C142.335 493.91 147.076 492.653 149.852 492.653C154.837 492.653 154.918 492.815 154.047 502.785C153.257 512.998 153.257 512.998 160.694 509.108C170.582 503.9 174.392 506.189 173.764 516.95C173.115 525.967 172.974 525.907 181.667 520.679C190.766 515.369 194.575 518.226 193.704 529.777C193.076 537.538 194.332 539.99 196.865 535.958C197.493 534.924 200.594 532.776 203.674 531.114C211.111 527.325 214.758 530.162 214.758 539.99C214.758 548.46 215.001 548.622 222.114 543.313C230.503 537.133 234.394 539.038 235.103 549.798C235.65 558.836 235.65 558.836 241.993 553.992C245.559 551.378 249.673 549.169 251.253 549.169C255.043 549.169 258.062 555.026 258.062 562.382V568.4L264.709 562.544C268.356 559.302 272.065 556.687 272.936 556.687C275.793 556.687 278.407 561.206 279.745 568.4C281.021 575.452 281.021 575.452 286.635 569.839C295.267 561.207 301.346 563.415 301.346 574.966C301.346 582.646 302.461 582.727 310.141 575.209C315.45 570.062 316.706 569.596 319.321 571.885C321.063 573.223 324.71 574.418 327.406 574.5C331.742 574.581 332.695 575.695 334.357 582.646L336.342 590.732L342.28 584.004C349.879 575.371 355.269 577.195 357.154 588.826C358.349 596.425 358.349 596.426 362.382 590.732C369.818 579.971 376.627 581.39 380.032 594.359L381.693 600.945L384.874 594.926C388.421 588.117 393.649 584.551 396.972 586.618C398.249 587.327 400.376 591.278 401.815 595.311C404.348 602.606 404.349 602.606 407.814 596.587C414.399 585.503 422.383 587.327 425.078 600.62C426.193 605.848 426.193 605.848 430.692 598.249C433.549 593.568 436.71 590.569 438.939 590.569C442.647 590.569 448.2 599.121 448.342 605.139C448.423 607.267 449.699 606.092 451.989 601.735C453.975 598.087 456.731 594.054 458.25 592.778H458.332ZM435.129 587.489C387.631 582.808 366.981 579.566 333.424 571.42C192.913 537.538 87.8645 457.981 63.8922 367.421C58.8262 348.191 57.0836 314.147 60.3258 296.112C75.6049 210.618 157.613 133.594 279.745 90.0672C371.014 57.5231 473.833 48.2621 573.978 63.3791C703.871 83.096 816.276 144.05 869.773 223.749C880.614 239.899 887.038 253.132 893.684 272.991C898.912 288.513 903.735 323.894 901.445 329.832C900.736 331.797 899.784 339.396 899.459 346.691C898.426 368.454 886.47 399.722 869.773 424.586C812.547 509.513 685.025 572.048 540.725 585.888C515.233 588.36 453.57 589.293 435.129 587.489ZM526.399 581.065C651.144 572.595 773.296 522.644 838.667 453.321C915.286 372.102 914.738 274.267 837.249 193.434C783.812 137.708 702.838 96.4702 605.631 75.4969C560.523 65.6891 526.074 62.8323 468.058 63.8658C433.873 64.494 408.381 65.9119 395.554 67.8978C288.215 84.2915 202.336 121.091 137.978 178.398C35.1579 269.91 40.7709 393.623 151.676 480.373C245.782 554.074 382.808 590.893 526.399 581.065ZM568.041 429.409C564.393 425.842 563.847 404.16 567.312 400.756C570.878 397.189 579.754 397.979 581.963 402.093C584.901 407.645 584.334 423.39 580.929 428.213C577.525 433.117 572.236 433.603 568.041 429.409ZM577.768 416.339C578.092 411.192 577.524 405.822 576.592 404.383C573.33 399.398 570.716 404.464 570.716 415.71C570.716 425.457 571.202 426.957 573.978 426.39C576.511 425.924 577.444 423.553 577.768 416.339ZM588.933 431.152C588.224 430.443 587.657 422.843 587.657 414.211C587.657 400.269 588.062 398.446 591.061 398.446C593.513 398.446 595.418 401.14 597.485 407.402L600.484 416.339L600.646 407.402C600.808 400.836 601.599 398.446 603.645 398.446C605.955 398.446 606.502 401.627 606.502 415.467C606.502 435.589 603.503 437.96 597.404 422.519L593.513 412.631L593.452 422.519C593.29 431.699 592.013 434.232 588.933 431.152ZM214.758 339.639C214.758 338.302 215.629 334.27 216.663 330.703C218.487 324.36 218.243 323.813 210.563 317.085L202.498 310.114L213.339 310.033C220.614 309.952 224.181 309.162 224.343 307.581C224.343 306.325 225.923 301.887 227.828 297.692L231.151 290.175L235.427 300.063C239.703 309.952 239.703 309.952 249.349 310.033H259.014L251.639 316.923C244.283 323.732 244.283 323.813 246.106 332.911C247.14 337.896 247.525 342.01 246.897 342.01C246.269 342.01 242.54 339.801 238.588 337.106C231.456 332.283 231.456 332.283 224.1 337.106C215.71 342.658 214.758 342.881 214.758 339.639ZM235.65 324.441C233.279 322.07 230.827 323.894 232.57 326.812C233.279 327.927 234.698 328.332 235.731 327.683C237.089 326.893 237.008 325.799 235.65 324.441ZM713.841 339.396C713.841 338.059 714.874 334.107 716.05 330.621C718.198 324.522 718.035 324.137 709.889 317.167L701.561 309.952H712.422C719.778 309.952 723.345 309.162 723.426 307.581C723.507 306.325 725.088 301.887 726.972 297.692L730.377 290.175L734.571 300.063C738.847 309.952 738.847 309.952 748.027 309.952C753.032 309.952 757.145 310.358 757.145 310.905C757.145 311.391 754.045 314.634 750.255 318.119C743.447 324.36 743.366 324.522 745.494 332.668C746.608 337.187 747.236 341.219 746.851 341.625C746.527 341.929 742.737 339.963 738.543 337.187C730.781 332.04 730.781 332.04 723.345 337.025C714.712 342.719 713.841 342.963 713.841 339.396ZM722.777 218.298C713.213 212.907 711.693 210.375 717.488 208.875C721.115 207.842 724.297 200.08 722.23 196.838C721.602 195.805 717.711 193.272 713.517 191.144C706.323 187.496 705.776 187.416 702.371 190.516C700.385 192.34 698.805 195.744 698.805 198.196C698.805 203.485 697.143 203.647 689.544 199.29C683.526 195.886 681.702 191.306 686.363 191.306C687.802 191.306 698.643 182.836 710.356 172.542C731.572 153.858 736.233 151.487 742.494 156.229C745.493 158.458 745.27 160.505 739.171 186.403C735.442 202.31 733.153 216.069 733.781 218.683C735.301 224.478 733.943 224.478 722.777 218.298ZM729.282 176.574C730.944 170.171 731.815 164.942 731.106 165.023C729.363 165.105 711.308 181.883 712.179 182.593C717.245 186.544 722.635 189.321 724.216 188.855C725.229 188.449 727.539 182.998 729.282 176.574ZM221.972 216.231C204.869 204.924 197.899 179.35 208.578 166.685C213.34 161.072 225.923 153.777 231.232 153.696C232.489 153.696 234.941 155.844 236.684 158.458C239.541 162.876 239.622 163.524 236.765 166.361C234.151 168.975 233.036 169.056 229.166 167.01C218.791 161.376 211.111 170.961 215.548 183.87C220.614 198.743 231.537 210.152 240.635 210.152C245.316 210.152 251.963 202.938 252.753 197C253.543 191.144 258.771 190.678 259.643 196.372C261.933 212.441 236.521 225.816 221.972 216.231ZM279.502 190.82C280.15 188.53 279.664 173.96 278.407 158.62C276.34 131.933 276.422 130.433 279.745 127.981C281.65 126.562 284.568 125.448 286.229 125.448C287.83 125.448 297.151 135.175 306.98 147.049C316.706 159.005 326.291 169.218 328.115 169.765C333.728 171.508 331.985 174.284 322.887 178.155C311.721 182.998 310.141 182.836 311.478 177.445C312.289 174.365 311.478 171.995 308.945 169.624C305.399 166.442 304.832 166.442 296.686 169.543C289.249 172.38 288.215 173.494 288.215 178.479C288.215 182.511 289.248 184.416 291.944 185.126C297.232 186.483 296.685 188.854 290.201 192.177C281.893 196.453 278.083 195.967 279.502 190.82ZM296.28 162.49C301.59 160.282 301.589 160.282 292.734 148.954L283.939 137.627L285.135 148.002C285.763 153.696 286.31 159.795 286.31 161.619C286.31 165.49 288.925 165.652 296.28 162.49ZM653.758 183.464C645.531 179.674 645.531 179.675 650.435 175.541C656.777 170.414 673.07 133.919 671.651 128.224C670.071 122.044 671.894 121.557 681.459 125.833C692.949 130.818 692.787 130.514 687.234 135.337C680.669 141.031 665.957 176.574 667.537 182.836C669.037 188.692 665.633 188.854 653.758 183.464ZM346.555 166.442C346.555 165.024 347.426 162.957 348.46 161.944C350.831 159.553 341.814 116.269 338.004 112.155C336.504 110.493 335.309 108.589 335.309 107.96C335.309 106.522 352.655 102.813 354.478 103.907C355.188 104.394 360.416 113.33 366.029 123.705L376.161 142.551L377.337 128.062C378.066 120.058 378.613 109.926 378.613 105.488C378.613 97.4228 378.613 97.4228 388.117 95.4369C393.345 94.2616 398.087 93.39 398.634 93.39C399.201 93.39 399.12 95.9231 398.411 99.0843C396.81 106.217 406.152 146.421 409.88 148.549C411.299 149.42 412.494 150.778 412.494 151.649C412.494 153.696 402.038 157.424 396.263 157.424C391.521 157.424 390.873 156.148 393.487 152.034C395.007 149.664 388.036 115.316 385.503 112.783C384.793 112.154 384.226 118.72 384.145 127.414C383.922 151.953 382.261 160.12 377.337 160.829C373.871 161.295 371.561 158.215 361.834 140.079C355.573 128.366 350.426 119.895 350.426 121.172C350.284 128.852 358.511 158.377 361.287 160.424C365.482 163.524 362.868 166.138 353.688 167.881C348.217 168.813 346.636 168.509 346.636 166.442H346.555ZM591.466 162.734C574.688 158.296 574.282 158.053 579.592 154.02C584.415 150.21 597.87 106.765 595.033 103.826C592.419 101.07 592.966 99.0032 596.37 99.0032C602.632 99.0032 624.942 106.684 629.785 110.412C644.497 122.044 638.317 154.344 619.572 164.071C612.845 167.557 608.873 167.395 591.466 162.734ZM611.183 157.424C617.668 154.973 625.267 138.66 625.348 127.109C625.348 117.849 622.653 113.958 613.777 110.635C608.65 108.669 608.164 109.682 595.904 154.02C595.337 156.148 596.451 157.425 599.389 157.972C601.76 158.458 604.294 158.924 604.922 159.005C605.631 159.167 608.488 158.458 611.183 157.424ZM520.785 150.211C510.248 145.307 505.729 135.256 507.168 119.815C508.911 100.28 518.719 88.9521 533.674 89.1143C551.405 89.4182 560.28 99.3279 560.118 118.883C560.037 145.226 541.515 159.958 520.785 150.211ZM538.659 144.294C545.001 140.889 549.439 118.477 546.196 106.44C543.724 97.3417 538.598 94.0995 531.222 97.0986C524.332 99.9558 521.576 106.44 520.38 122.591C519.59 134.161 519.995 136.37 523.542 140.95C527.817 146.34 532.721 147.455 538.659 144.294ZM433.225 148.954C433.225 147.374 434.096 146.097 435.129 146.097C436.244 146.097 437.034 137.161 437.034 122.996C437.034 104.617 436.325 98.9223 433.934 95.4369C429.354 88.9524 433.144 87.5337 453.651 88.1619C469.477 88.628 471.625 89.1144 474.867 93.1469C480.014 99.4896 479.467 107.717 473.449 113.249C470.125 116.349 469.396 117.849 471.22 117.849C476.205 117.849 482.223 126.157 482.223 133.209C482.223 142.855 476.063 147.84 461.25 149.988C442.728 152.602 433.225 152.277 433.225 148.954ZM464.816 141.274C469.801 137.789 470.43 129.014 466.073 124.576C464.411 122.996 460.216 121.638 456.67 121.638C450.165 121.638 450.165 121.638 450.165 132.966C450.165 144.05 450.327 144.213 455.393 144.213C458.332 144.213 462.526 142.936 464.816 141.274ZM462.911 111.749C465.931 109.378 465.931 100.503 462.992 97.5036C461.736 96.308 457.926 95.2953 454.522 95.2953C448.342 95.2953 448.342 95.2954 448.342 104.394C448.342 109.379 448.747 113.897 449.294 114.444C450.652 115.863 460.074 113.958 462.911 111.749ZM468.383 431.152C467.673 430.443 467.106 422.843 467.106 414.211C467.106 398.445 467.106 398.446 474.705 398.446C483.723 398.446 487.289 404.16 483.885 413.015C482.142 417.777 482.466 422.195 485.242 429.409C485.951 431.314 485.323 432.408 483.662 432.408C482.142 432.408 479.305 428.781 477.4 424.424L473.915 416.42L473.205 424.424C472.577 432.023 471.138 433.908 468.383 431.152ZM478.434 410.725C480.338 408.517 480.338 407.321 478.434 405.113C474.786 400.675 472.8 401.708 472.8 407.868C472.8 414.13 474.786 415.082 478.434 410.725ZM491.018 431.152C490.308 430.443 489.741 422.843 489.741 414.211C489.741 400.269 490.146 398.446 493.145 398.446C495.597 398.446 497.502 401.14 499.569 407.483L502.568 416.42L502.73 407.483C502.811 400.755 503.602 398.446 505.81 398.446C508.202 398.446 508.586 401.14 508.12 415.001C507.472 434.637 503.926 437.474 499.164 422.053L496.327 412.631L495.759 422.519C495.212 431.78 493.936 434.07 490.936 431.152H491.018ZM513.024 424.809C516.266 404.707 518.252 398.446 521.576 398.446C524.19 398.446 525.608 401.546 528.06 412.712C529.722 420.453 531.141 428.052 531.141 429.652C531.141 433.766 527.189 432.976 526.075 428.619C525.527 426.552 523.542 424.89 521.718 424.89C519.914 424.89 517.928 426.552 517.462 428.619C515.476 436.056 511.748 432.813 513.024 424.809ZM523.622 416.501C523.622 415.001 522.751 413.259 521.718 412.631C520.705 411.982 519.833 413.178 519.833 415.326C519.833 417.453 520.705 419.196 521.718 419.196C522.751 419.196 523.622 418 523.622 416.501ZM538.111 431.152C537.402 430.443 536.774 423.715 536.774 416.116C536.774 405.032 536.206 402.255 533.998 402.255C532.417 402.255 531.141 401.384 531.141 400.35C531.141 399.317 535.416 398.446 540.563 398.446C550.148 398.446 553.228 400.978 546.034 402.802C542.468 403.755 542.225 405.031 542.792 417.453C543.339 430.118 541.759 434.86 538.111 431.152ZM555.052 431.152C554.343 430.443 553.795 422.843 553.795 414.211C553.795 401.465 554.262 398.446 556.552 398.446C558.862 398.446 559.409 401.627 559.409 415.467C559.409 430.99 558.375 434.556 555.052 431.152ZM685.573 415.467C685.573 401.627 686.14 398.446 688.43 398.446C690.72 398.446 691.287 401.627 691.287 415.467C691.287 429.247 690.72 432.408 688.43 432.408C686.14 432.408 685.573 429.247 685.573 415.467ZM696.9 415.467C696.9 398.445 696.9 398.446 703.081 398.446C706.566 398.446 710.355 399.479 711.632 400.756C714.388 403.512 714.55 412.063 711.855 414.758C710.518 416.116 710.518 418.325 711.855 421.891C712.97 424.647 713.841 428.294 713.841 429.875C713.841 434.637 709.484 431.618 707.356 425.377C704.256 416.258 702.513 415.954 702.513 424.586C702.513 430.281 701.723 432.408 699.676 432.408C697.366 432.408 696.9 429.247 696.9 415.467ZM707.823 408.192C708.228 405.497 707.437 404.16 705.533 404.16C703.547 404.16 702.513 405.821 702.513 408.983C702.513 414.92 706.951 414.292 707.823 408.192ZM719.454 415.467C719.454 398.445 719.454 398.446 726.04 398.446C730.862 398.446 733.396 399.641 735.523 402.964C739.637 409.226 736.476 417.291 729.91 417.291C725.635 417.291 725.168 418.081 725.168 424.89C725.168 430.28 724.358 432.408 722.311 432.408C720.021 432.408 719.454 429.247 719.454 415.467ZM729.829 407.868C729.829 405.497 728.796 403.127 727.539 402.721C725.959 402.174 725.168 403.998 725.168 407.868C725.168 411.84 725.959 413.583 727.539 413.096C728.796 412.63 729.829 410.32 729.829 407.868ZM744.075 430.584C740.671 428.457 739.009 407.949 741.866 402.721C744.561 397.736 750.336 396.399 755.159 399.722C758.401 402.012 759.03 404.464 759.03 415.164C759.03 422.519 758.098 428.841 756.821 430.118C754.126 432.813 747.966 433.057 744.075 430.584ZM753.417 415.548C753.417 404.464 750.721 399.317 747.56 404.383C745.655 407.402 745.351 419.358 747.013 423.776C747.641 425.376 749.303 426.714 750.722 426.714C752.707 426.714 753.417 423.857 753.417 415.548ZM764.744 415.467C764.744 398.445 764.744 398.446 770.905 398.446C774.309 398.446 778.119 399.479 779.375 400.756C782.151 403.512 782.394 412.063 779.699 414.758C778.362 416.116 778.362 418.324 779.699 421.81C780.732 424.647 781.604 428.294 781.604 429.794C781.604 434.637 777.328 431.618 775.18 425.377C772.019 416.258 770.357 415.954 770.357 424.586C770.357 430.281 769.567 432.408 767.5 432.408C765.21 432.408 764.663 429.247 764.663 415.467H764.744ZM775.018 407.868C775.018 405.497 774.005 403.127 772.728 402.721C771.148 402.174 770.357 403.998 770.357 407.868C770.357 411.84 771.148 413.583 772.728 413.096C774.005 412.63 775.018 410.32 775.018 407.868ZM791.088 417.291C791.088 405.193 790.459 402.255 788.25 402.255C786.67 402.255 785.393 401.384 785.393 400.35C785.393 399.317 789.203 398.446 793.864 398.446C802.172 398.446 805.11 400.755 799.558 402.964C797.349 403.755 796.721 407.321 796.721 418.162C796.721 429.571 796.153 432.408 793.864 432.408C791.655 432.408 791.088 429.49 791.088 417.291ZM310.769 367.34C310.769 362.051 311.721 360.39 315.369 358.951C319.726 357.289 319.948 356.337 320.597 338.768C320.901 328.636 320.516 317.795 319.726 314.715C318.935 311.533 318.773 304.582 319.483 299.111C320.516 290.803 321.144 289.526 323.353 291.35C325.663 293.255 325.825 292.383 324.792 285.737C324.001 280.752 324.224 277.975 325.501 277.975C326.757 277.975 327.163 275.442 326.453 271.329C325.886 267.681 326.21 264.763 327.244 264.763C328.196 264.763 328.662 262.23 328.196 259.13C327.629 255.746 328.196 253.436 329.453 253.436C330.648 253.436 331.519 252.017 331.519 250.274C331.519 248.532 333.262 245.29 335.39 243.081C337.457 240.852 339.503 237.143 339.99 234.914C340.456 232.625 342.118 229.464 343.698 227.883C345.279 226.282 346.636 224.154 346.636 223.202C346.636 216.15 358.511 227.883 360.801 237.144C361.51 239.738 363.253 242.352 364.672 242.919C366.11 243.466 367.367 245.614 367.367 247.66C367.367 249.727 368.157 251.855 369.19 252.483C370.224 253.132 371.095 256.131 371.095 259.069C371.095 261.987 372.129 264.763 373.304 265.148C374.966 265.716 374.966 267.459 373.385 271.957C371.966 276.152 371.885 277.975 373.385 277.975C374.662 277.975 374.966 280.59 374.175 285.494C372.838 293.883 374.965 295.241 379.484 288.817C382.402 284.703 382.403 284.784 382.403 291.431C382.403 295.241 383.436 298.564 384.793 298.949C386.05 299.354 397.539 299.435 410.204 299.03L433.306 298.321V285.332C433.306 271.329 435.21 268.877 438.939 277.975C440.357 281.38 442.647 283.609 444.795 283.609C448.909 283.609 449.132 282.495 446.295 274.328C444.005 267.844 445.505 264.135 448.585 268.553C450.003 270.62 450.246 269.83 449.294 265.716C447.47 257.165 446.376 246.546 447.551 249.241C450.084 254.55 451.989 250.984 450.875 243.081C449.943 235.867 450.165 234.671 452.617 235.705C455.069 236.576 455.393 235.542 454.522 229.139C453.732 223.121 454.137 221.459 456.346 221.459C458.332 221.459 458.879 220.041 458.25 216.799C457.602 213.617 458.332 211.733 460.378 210.942C462.04 210.294 463.397 208.551 463.397 207.132C463.397 205.714 464.33 204.518 465.363 204.518C466.478 204.518 467.187 203.404 467.025 202.147C466.559 197.791 469.477 191.306 471.929 191.306C473.368 191.306 474.705 189.401 475.029 187.111C475.901 181.174 486.033 179.756 486.033 185.45C486.033 187.578 487.694 190.191 489.741 191.306C491.808 192.42 493.389 193.92 493.307 194.629C493.145 195.42 493.307 196.676 493.551 197.406L494.422 200.243C495.678 205.005 498.292 209.422 500.44 210.699C501.778 211.57 502.973 214.651 502.973 217.751C502.973 222.006 503.602 222.959 505.973 222.006C508.587 221.074 508.83 221.946 507.715 228.673C506.52 235.624 506.763 236.333 509.62 235.238C513.024 233.962 513.024 235.786 509.377 247.66C508.202 251.389 508.505 252.017 511.12 250.984C513.571 250.031 514.2 250.984 514.2 255.259C514.2 258.34 513.328 261.278 512.315 261.906C511.281 262.534 510.491 265.006 510.491 267.215C510.572 271.248 510.654 271.248 513.328 267.681C516.024 264.196 516.104 264.196 516.104 268.958C516.104 271.734 515.314 276.01 514.281 278.604C513.024 282.008 513.187 283.528 514.99 284.238C518.253 285.494 520.38 283.67 523.542 277.023C526.156 271.329 526.155 271.329 527.513 277.023C528.222 280.124 528.931 286.284 529.094 290.641C529.316 298.645 529.317 298.645 536.531 298.645C540.482 298.645 551.566 299.192 560.989 299.901C578.254 301.097 578.254 301.097 578.254 295.626C578.315 287.864 581.172 283.751 582.915 288.979C583.543 291.208 585.448 293.012 587.029 293.012C588.933 293.012 589.562 291.998 588.852 290.012C585.995 282.575 585.448 277.975 587.576 277.975C589.015 277.975 589.319 275.767 588.528 271.329C587.657 266.729 587.9 264.763 589.562 264.763C590.98 264.763 591.466 263.264 590.919 260.954C590.271 258.907 591.142 255.969 592.581 254.469C593.999 253.051 595.175 250.599 595.175 248.998C595.175 247.499 596.694 244.743 598.437 243C600.18 241.176 601.842 238.643 601.984 237.204C603.341 228.268 615.925 216.637 615.925 224.317C615.925 225.897 617.121 227.64 618.539 228.268C620.039 228.815 621.7 232.078 622.41 235.543C623.038 238.947 624.78 242.27 626.381 242.837C627.881 243.466 629.137 245.533 629.137 247.498C629.137 249.484 630.414 252.179 631.913 253.436C633.737 254.935 634.284 257.407 633.575 260.244C632.866 263.183 633.332 264.763 634.77 264.763C636.351 264.763 636.655 266.729 635.865 271.167C634.994 275.605 635.399 277.814 637.06 278.462C639.046 279.09 639.046 280.509 637.222 285.494C634.527 292.789 635.318 294.592 639.512 291.127C642.208 288.898 642.37 292.059 641.174 323.813C639.837 358.951 639.836 358.951 644.902 358.951C649.401 358.951 649.887 359.599 649.887 366.469V373.987H480.338L310.85 373.926V367.34H310.769ZM540.563 368.373C540.563 367.34 539.692 366.469 538.659 366.469C537.645 366.469 536.855 367.34 536.855 368.373C536.855 369.407 537.645 370.278 538.659 370.278C539.692 370.278 540.563 369.407 540.563 368.373ZM555.599 342.881C555.599 341.382 554.809 340.126 553.795 340.126C552.762 340.126 551.891 341.382 551.891 342.881C551.891 344.462 552.762 345.738 553.795 345.738C554.809 345.738 555.599 344.462 555.599 342.881ZM358.977 308.534C356.931 306.467 355.492 309.79 357.011 313.195C358.43 316.376 358.511 316.376 359.301 313.134C359.767 311.229 359.605 309.162 358.977 308.534ZM497.421 548.926L481.676 533.809L467.673 547.589L453.651 561.429L439.162 545.684L424.673 530.02L407.733 544.103C398.472 551.865 390.245 557.802 389.454 557.316C385.179 554.702 362.078 523.596 363.881 522.968C366.11 522.259 369.028 525.177 383.355 542.28L390.873 551.378L404.976 539.909C423.883 524.468 426.578 524.549 441.857 541.165L453.651 553.83L465.606 542.118C472.172 535.633 479.224 530.324 481.271 530.324C483.338 530.324 491.484 536.262 499.407 543.557L513.896 556.687L526.48 542.604C542.934 524.245 547.128 523.758 564.718 538.166C572.073 544.184 577.14 547.183 577.93 545.927C585.529 533.728 598.984 520.759 598.984 525.663C598.984 526.778 578.092 554.783 577.302 554.783C576.977 554.783 570.088 549.332 562.023 542.604C553.937 535.877 546.744 530.324 545.953 530.324C545.244 530.324 537.645 537.923 529.013 547.184L513.267 564.043L497.421 548.926ZM373.223 554.56C357.072 535.309 359.463 536.504 349.879 543.394C345.218 546.717 339.828 549.251 337.923 548.845C335.471 548.379 337.68 545.847 346.474 539.362C353.04 534.438 359.058 530.81 359.768 531.276C361.916 532.634 382.341 557.964 382.341 559.22C382.341 562.301 377.823 559.93 373.223 554.56ZM587.576 550.588C601.437 531.682 601.923 531.276 606.826 534.6C609.197 536.342 614.182 540.233 617.83 543.394C626.847 551.236 620.12 551.298 610.312 543.557L603.179 537.842L595.337 548.217C591.061 553.911 586.238 558.592 584.658 558.592C582.51 558.592 583.32 556.444 587.576 550.588ZM303.737 537.295C298.266 535.228 293.828 533.101 293.828 532.472C293.828 531.844 296.524 529.777 299.847 527.872C306.271 524.245 306.27 524.245 311.965 534.762C313.545 537.7 314.579 540.294 314.255 540.537C313.87 540.78 309.188 539.281 303.737 537.295ZM642.288 540.456C642.288 539.747 644.031 536.423 646.159 532.938C650.05 526.697 650.192 526.697 655.582 529.453C658.662 531.033 661.114 532.695 661.114 533.262C661.114 534.133 644.984 541.651 643.079 541.651C642.674 541.651 642.288 541.104 642.288 540.456ZM567.251 533.89C563.765 530.729 561.233 527.953 561.537 527.568C562.57 526.697 585.772 525.258 585.772 526.129C585.772 527.568 575.863 539.747 574.688 539.666C574.059 539.666 570.716 537.052 567.251 533.89ZM325.967 526.778C323.839 523.759 322.097 520.759 322.097 520.111C322.097 518.692 333.019 519.016 338.551 520.597C342.746 521.772 342.685 522.016 336.342 527.001C329.858 532.148 329.858 532.148 325.967 526.778ZM622.572 527.406C616.006 522.178 616.249 521.773 626.766 520.192C635.642 518.855 636.189 519.645 631.447 526.839C628.104 531.844 628.104 531.844 622.572 527.406ZM678.622 520.435C684.397 510.708 691.51 507.527 686.687 516.788C683.283 523.373 678.622 528.44 675.846 528.44C674.812 528.44 676.008 524.873 678.622 520.435ZM252.753 513.161C245.235 508.885 239.298 505.156 239.622 504.832C239.926 504.528 245.235 505.318 251.415 506.575C260.98 508.479 263.209 509.675 266.208 514.903C270.727 522.563 269.451 522.421 252.753 513.161ZM355.978 554.316C347.264 551.621 347.265 551.702 352.412 547.508C357.559 543.313 358.187 543.557 363.577 551.075C367.934 557.235 366.981 557.64 355.978 554.316ZM610.231 430.037C610.231 428.781 611.649 421.182 613.392 413.096C615.844 401.789 617.263 398.446 619.796 398.446C622.248 398.446 623.767 401.627 626.057 411.921C627.719 419.277 629.056 426.876 629.056 428.842C629.056 433.604 625.267 433.361 623.99 428.619C623.443 426.552 621.538 424.89 619.653 424.89C617.83 424.89 615.925 426.552 615.378 428.619C614.263 432.733 610.231 433.847 610.231 430.037ZM621.538 415.467C621.538 413.34 620.667 411.678 619.653 411.678C618.62 411.678 617.83 413.34 617.83 415.467C617.83 417.534 618.62 419.196 619.653 419.196C620.667 419.196 621.538 417.534 621.538 415.467ZM634.203 431.233C633.494 430.524 632.866 422.843 632.866 414.211C632.866 401.465 633.413 398.446 635.703 398.446C637.932 398.446 638.479 401.302 638.479 412.468C638.479 426.389 638.56 426.471 643.707 427.119C646.564 427.423 648.854 428.538 648.854 429.571C648.854 431.78 636.189 433.199 634.203 431.233ZM663.1 428.132C663.181 422.681 667.922 400.513 669.28 399.094C672.36 395.994 675.846 401.303 677.913 411.982C679.169 418.568 680.668 425.842 681.236 428.132C682.492 433.604 677.042 434.07 675.603 428.619C675.137 426.552 673.394 424.89 671.813 424.89C670.233 424.89 668.328 426.552 667.7 428.619C666.099 433.685 662.938 433.442 663.019 428.132H663.1ZM672.846 413.583C672.36 410.402 671.651 407.868 671.246 407.868C670.861 407.868 670.537 410.402 670.537 413.583C670.537 416.663 671.246 419.196 672.036 419.196C672.908 419.196 673.232 416.663 672.846 413.583ZM163.855 415.629C163.855 398.445 163.855 398.446 170.116 398.446C177.634 398.446 180.877 401.384 180.877 407.868C180.877 413.583 177.716 417.291 173.035 417.291C170.664 417.291 169.63 419.115 169.164 424.262C168.84 428.051 167.583 431.536 166.246 431.942C164.503 432.489 163.855 428.456 163.855 415.629ZM174.23 407.868C174.23 405.497 173.196 403.127 171.94 402.721C170.359 402.174 169.569 403.998 169.569 407.868C169.569 411.84 170.359 413.583 171.94 413.096C173.196 412.63 174.23 410.32 174.23 407.868ZM186.348 431.942C186.348 431.699 185.861 424.019 185.314 415.001C184.605 400.978 184.909 398.446 187.361 398.446C189.428 398.446 190.299 400.351 190.299 405.113C190.299 410.402 191.008 411.678 194.028 411.678C197.108 411.678 197.817 410.402 197.817 405.113C197.817 400.513 198.689 398.446 200.593 398.446C202.964 398.446 203.431 401.627 203.431 415.467C203.431 429.247 202.964 432.408 200.593 432.408C198.608 432.408 197.817 430.28 197.817 424.89C197.817 419.439 197.027 417.291 194.96 417.291C193.238 417.291 192.123 419.115 192.123 421.891C192.123 427.667 190.38 432.408 188.171 432.408C187.3 432.408 186.429 432.185 186.348 431.942ZM209.145 415.629C209.145 396.074 212.306 392.528 217.291 406.531L220.148 414.515L220.29 406.531C220.371 400.674 221.161 398.446 223.228 398.446C225.518 398.446 226.085 401.627 226.085 415.467C226.085 434.394 223.857 437.17 218.872 424.424L215.71 416.42L214.758 423.776C214.292 427.828 212.772 431.536 211.516 431.942C209.692 432.489 209.145 428.456 209.145 415.629ZM233.989 430.118C231.537 427.666 230.828 404.545 233.117 401.141C235.346 397.979 239.845 396.946 244.445 398.689C248.234 400.127 248.639 401.465 248.639 414.049C248.639 428.7 246.897 432.408 240.169 432.408C238.021 432.408 235.184 431.374 233.989 430.118ZM244.04 418.487C245.397 409.064 243.816 401.708 240.493 402.802C236.927 403.917 236.441 426.714 239.926 426.714C241.831 426.714 243.168 423.938 244.04 418.487ZM254.334 415.467C254.334 399.803 254.577 398.446 258.062 398.446C260.514 398.446 262.095 400.127 262.723 403.207C265.965 418.567 266.127 418.791 268.113 408.355C269.532 400.675 270.646 398.446 273.422 398.446C276.583 398.446 276.888 400.188 276.888 415.629C276.888 428.456 276.341 432.489 274.517 431.861C273.017 431.374 272.389 428.133 272.693 422.763C273.179 416.663 272.774 415.244 271.355 417.291C270.322 418.872 269.37 422.438 269.37 425.214C269.37 429.956 266.452 433.907 264.466 431.942C264 431.455 262.885 427.342 262.014 422.763L260.352 414.515L260.109 423.471C259.967 430.037 259.156 432.408 257.11 432.408C254.82 432.408 254.253 429.247 254.253 415.467H254.334ZM293.828 415.467C293.828 398.445 293.828 398.446 300.09 398.446C307.527 398.446 310.769 401.384 310.769 407.868C310.769 413.644 307.689 417.291 302.866 417.291C300.171 417.291 299.543 418.872 299.543 424.89C299.543 430.28 298.752 432.408 296.686 432.408C294.396 432.408 293.828 429.247 293.828 415.467ZM304.204 407.868C304.204 405.497 303.17 403.127 301.833 402.721C300.333 402.255 299.543 403.998 299.543 407.868C299.543 411.84 300.333 413.583 301.833 413.096C303.17 412.63 304.204 410.32 304.204 407.868ZM315.916 431.233C315.207 430.524 314.579 422.843 314.579 414.211C314.579 398.445 314.579 398.446 323.049 398.446C332.229 398.446 334.762 401.627 326.372 402.58C319.401 403.451 317.821 411.05 324.306 411.982C329.939 412.792 330.02 416.177 324.468 416.987C317.821 417.919 318.611 426.309 325.42 427.119C328.277 427.423 330.567 428.538 330.567 429.571C330.567 431.78 317.902 433.199 315.916 431.233ZM335.309 415.467C335.309 401.546 335.795 398.446 338.166 398.446C339.747 398.446 341.874 400.837 342.908 403.674C347.184 415.629 348.055 416.338 347.022 407.483C346.231 400.046 346.636 398.446 349.169 398.446C351.783 398.446 352.25 401.059 352.25 415.629C352.25 434.86 349.635 437.312 344.732 422.844L341.875 414.515L341.327 423.471C340.942 429.713 339.909 432.408 338.004 432.408C335.876 432.408 335.309 429.004 335.309 415.467ZM359.139 431.152C358.43 430.443 357.883 422.843 357.883 414.211C357.883 401.465 358.43 398.446 360.72 398.446C362.706 398.446 363.577 400.513 363.577 405.113C363.577 410.402 364.287 411.678 367.286 411.678C370.386 411.678 371.095 410.401 371.095 404.95C371.095 400.35 371.804 398.445 373.466 398.932C375.047 399.479 375.756 404.545 375.756 415.467C375.756 426.309 375.047 431.374 373.466 431.942C371.804 432.489 371.095 430.361 371.095 425.052C371.095 418.568 370.467 417.291 367.286 417.291C364.205 417.291 363.577 418.568 363.577 424.89C363.577 431.942 362.078 434.07 359.139 431.152ZM393.021 431.152C392.393 430.443 391.744 422.843 391.744 414.211C391.744 401.465 392.312 398.446 394.601 398.446C396.891 398.446 397.458 401.627 397.458 415.467C397.458 430.99 396.425 434.556 393.021 431.152ZM404.348 431.152C403.619 430.443 403.072 422.843 403.072 414.211C403.072 399.965 403.477 398.446 406.719 398.446C409.252 398.446 411.137 400.836 413.123 406.531L415.98 414.515L416.142 406.531C416.284 400.593 417.074 398.446 419.222 398.446C421.593 398.446 421.998 401.14 421.512 414.839C420.965 431.861 418.351 436.684 414.865 427.261C409.961 414.292 409.799 414.211 409.171 423.471C408.604 431.861 407.266 433.989 404.348 431.152ZM431.34 417.291C431.34 405.193 430.773 402.255 428.483 402.255C426.983 402.255 425.707 401.384 425.707 400.35C425.707 399.317 429.901 398.446 435.129 398.446C444.552 398.446 447.795 400.978 440.743 402.802C437.419 403.674 436.953 405.335 436.953 418.081C436.953 429.571 436.406 432.408 434.177 432.408C431.887 432.408 431.34 429.49 431.34 417.291ZM448.261 415.467C448.261 398.445 448.26 398.446 455.798 398.446C459.993 398.446 463.397 399.317 463.397 400.35C463.397 401.384 461.25 402.255 458.636 402.255C454.846 402.255 453.975 403.208 453.975 406.997C453.975 410.401 454.928 411.678 457.683 411.678C459.831 411.678 461.493 412.934 461.493 414.515C461.493 416.116 459.831 417.291 457.683 417.291C454.928 417.291 453.975 418.568 453.975 422.053C453.975 425.843 454.846 426.714 458.636 426.714C461.574 426.714 463.397 427.829 463.397 429.571C463.397 431.618 461.25 432.408 455.798 432.408C448.26 432.408 448.261 432.408 448.261 415.467ZM445.666 538.491C441.614 533.972 438.858 529.777 439.486 529.149C440.114 528.501 447.004 528.743 454.927 529.615L469.254 531.276L461.088 538.956L453.022 546.636L445.666 538.491ZM317.274 532.391C312.349 525.035 307.446 519.017 306.27 519.017C305.156 519.017 300.799 521.144 296.686 523.677C285.763 530.405 281.568 529.858 275.955 520.982C273.422 516.788 271.274 512.593 271.274 511.58C271.274 507.851 276.584 511.884 278.873 517.355C282.116 525.177 283.392 525.42 292.734 519.969C305.237 512.593 311.884 514.498 320.273 527.629C323.839 533.262 327.548 537.842 328.5 537.842C329.453 537.842 334.762 534.438 340.375 530.162C346.231 525.744 352.087 522.806 354.316 523.13C357.234 523.596 355.107 525.967 344.732 533.728C337.376 539.2 330.162 544.185 328.743 544.732C327.001 545.36 323.049 541.023 317.274 532.391ZM617.263 536.039C603.584 525.664 601.051 522.806 605.55 522.806C607.212 522.806 612.987 526.21 618.539 530.324C623.99 534.438 628.975 537.842 629.542 537.842C630.171 537.842 633.737 533.182 637.446 527.487C643.241 518.936 645.288 517.112 649.806 517.112C655.176 517.112 672.441 526.129 672.441 528.905C672.441 531.763 666.423 530.243 659.614 525.663C655.825 523.049 651.63 520.901 650.273 520.901C648.935 520.901 644.335 526.453 640.141 533.181C635.865 539.909 631.832 545.36 631.042 545.36C630.252 545.36 624.071 541.166 617.263 536.039ZM383.679 534.6C380.031 529.696 377.276 525.42 377.499 525.096C377.823 524.873 385.503 525.177 394.682 525.907L411.299 527.163L402.038 535.309C396.891 539.747 392.149 543.476 391.521 543.476C390.812 543.476 387.327 539.504 383.679 534.6ZM597.08 555.107C597.161 554.398 598.66 551.946 600.484 549.494C603.807 545.218 603.888 545.218 608.326 548.704C612.764 552.331 612.764 552.331 604.922 554.316C600.565 555.431 597.08 555.735 597.08 555.107ZM503.196 539.909L493.145 530.729L511.282 529.372C521.251 528.581 529.803 528.358 530.269 528.824C530.756 529.311 527.108 534.053 522.204 539.362L513.267 549.088L503.196 539.909ZM666.342 518.308C662.229 515.207 663.89 513.383 670.861 513.383C676.555 513.383 677.508 515.045 673.941 518.611C671.104 521.469 670.375 521.388 666.342 518.308ZM694.61 515.045C697.771 510.06 700.305 508.399 706.708 507.223C720.245 504.832 720.325 506.514 706.951 513.383C699.899 517.031 693.334 520.273 692.3 520.76C691.368 521.145 692.3 518.611 694.529 515.045H694.61ZM283.777 515.916C281.163 513.302 282.764 512.046 287.425 512.917C290.991 513.626 291.62 514.335 289.796 515.45C286.716 517.436 285.439 517.497 283.777 515.916ZM435.291 557.397C424.997 546.17 423.498 545.137 420.56 547.508C418.736 548.926 413.204 553.445 408.219 557.478C402.119 562.544 398.634 564.287 397.296 562.949C395.939 561.673 399.424 557.802 408.219 550.75C415.19 545.056 421.917 539.909 423.012 539.199C424.207 538.571 430.773 544.57 438.129 552.959C445.262 561.288 451.908 568.015 452.941 568.015C453.975 568.015 460.865 561.997 468.301 554.641L481.757 541.246L496.327 555.107C507.249 565.482 510.086 569.109 507.634 569.596C505.588 569.981 500.116 566.11 493.226 559.301L482.223 548.379L471.301 559.139C462.04 568.238 459.345 569.9 453.57 569.9C447.551 569.9 445.423 568.4 435.291 557.397ZM475.191 562.868L482.223 555.816L489.194 562.868L496.246 569.9H468.139L475.191 562.868ZM415.818 566.657C411.947 566.191 408.766 565.482 408.766 564.996C408.766 563.415 421.046 553.04 423.012 552.959C424.126 552.959 427.773 556.303 431.097 560.497L437.196 568.015L429.982 567.691C426.112 567.529 419.688 567.063 415.818 566.657ZM531.384 552.959C538.902 544.651 545.71 537.842 546.42 537.842C549.52 537.842 574.364 560.335 572.54 561.429C570.493 562.706 569.541 562.159 555.376 550.588L546.582 543.476L535.821 555.735C529.479 562.949 523.541 568.015 521.414 568.015C518.556 568.015 521.008 564.449 531.384 552.959ZM534.95 566.029C534.95 565.401 537.787 561.591 541.273 557.559L547.615 550.203L554.343 555.816C557.99 558.896 561.07 561.916 561.151 562.544C561.232 563.172 555.376 564.53 548.081 565.482C540.888 566.496 534.95 566.738 534.95 566.029ZM489.66 608.928C489.599 607.672 488.484 604.572 487.066 602.039C484.533 597.459 484.533 597.459 481.433 603.315C477.481 611.157 477.481 611.299 484.047 611.299C487.37 611.299 489.66 610.367 489.66 608.928ZM442.647 606.152C442.566 604.349 441.695 601.572 440.662 599.992C439.081 597.54 438.453 597.702 436.001 600.864C431.887 606.234 432.596 609.415 437.905 609.415C441.148 609.415 442.647 608.381 442.647 606.152ZM467.106 608.625C467.106 606.477 462.607 598.168 461.493 598.168C460.297 598.168 455.798 606.477 455.798 608.625C455.798 609.01 458.392 609.415 461.493 609.415C464.573 609.415 467.106 609.01 467.106 608.625ZM511.282 605.22C509.134 597.925 507.087 597.459 503.987 603.559C500.907 609.415 500.907 609.415 506.763 609.415C511.91 609.415 512.457 608.929 511.282 605.22ZM533.755 608.3C536.45 607.266 536.45 606.638 533.755 601.41C530.755 595.554 530.755 595.554 528.222 600.154C523.622 608.463 525.689 611.461 533.755 608.3Z" fill="#25549A"/>
</svg>
