<svg width="963" height="949" viewBox="0 0 963 949" fill="none" xmlns="http://www.w3.org/2000/svg">
<path fill-rule="evenodd" clip-rule="evenodd" d="M442.91 947.739C346.767 939.774 254.258 902.72 177.196 841.464C154.964 823.832 112.164 779.923 95.8745 758.192C32.7934 673.648 0 576.233 0 473.305C0 453.597 2.81029 416.955 4.61824 412.336C5.17315 410.94 5.8891 406.322 6.22921 402.205C7.76865 382.067 17.7748 342.132 28.9626 311.092C31.8266 303.198 40.419 283.829 48.1162 268.095C113.005 135.238 237.055 39.5067 384.662 8.46735C416.328 1.82628 437.236 0 481.718 0C526.953 0 545.265 1.6826 581.066 9.09338C663.856 26.2241 743.853 67.6815 810.21 127.827C817.406 134.325 823.295 140.626 823.295 141.879C823.295 143.061 824.333 144.045 825.604 144.045C828.038 144.045 851.47 169.983 866.005 188.796C912.511 248.78 942.852 318.359 955.722 394.436C975.717 512.257 950.549 634.213 886.215 730.983C808.885 847.336 688.469 923.485 548.344 944.607C531.07 947.185 461.366 949.279 442.91 947.739ZM359.351 919.224C361.016 917.183 360.89 916.556 358.581 915.643C355.574 914.462 352.137 917.881 353.677 920.405C354.948 922.428 357.042 922.016 359.351 919.224ZM673.79 898.943C674.345 897.403 673.719 895.936 672.251 895.381C668.904 894.038 667.436 895.577 668.689 898.943C669.942 902.218 672.537 902.218 673.79 898.943ZM259.699 885.929C257.122 885.016 255.439 885.23 254.526 886.698C252.79 889.562 258.232 891.603 261.239 889.151C263.065 887.755 262.778 887.057 259.699 885.929ZM758.889 852.992C758.191 849.43 755.184 849.716 754.485 853.35C754.127 854.89 755.04 856 756.651 856C758.406 856 759.229 854.889 758.889 852.992ZM924.54 644.559C924.54 642.179 921.246 638.33 919.152 638.33C917.541 638.33 917.344 644.076 918.937 645.669C920.906 647.567 924.54 646.869 924.54 644.559ZM948.168 548.899C948.168 547.987 947.399 547.217 946.486 547.217C945.519 547.217 944.821 547.987 944.821 548.899C944.821 549.884 945.591 550.582 946.486 550.582C947.399 550.582 948.168 549.812 948.168 548.899ZM953.843 461.993C952.643 458.986 948.723 458.699 947.685 461.635C946.289 465.698 948.312 468.007 951.659 466.181C953.485 465.196 954.397 463.461 953.843 461.993ZM140.339 148.234C140.339 147.392 139.498 146.354 138.531 145.996C137.475 145.656 136.706 146.694 136.706 148.234C136.706 149.773 137.475 150.758 138.531 150.471C139.498 150.131 140.339 149.147 140.339 148.234ZM176.069 123.424C176.642 121.312 176.426 119.002 175.728 118.251C173.759 116.282 169.929 121.598 171.039 124.605C172.506 128.31 174.959 127.756 176.069 123.424ZM735.958 77.9026C733.22 75.1638 730.015 78.3865 731.555 82.3067C732.593 84.956 732.951 85.0267 735.332 82.5743C737.426 80.5516 737.569 79.4957 735.958 77.9026ZM284.313 53.2184C282.988 51.8759 280.052 54.9539 281.108 56.5649C281.806 57.7643 282.702 57.5499 283.543 56.082C284.313 54.829 284.671 53.5586 284.313 53.2184ZM559.675 13.8372C556.954 12.1725 556.113 13.3539 557.509 16.9161C558.422 19.44 558.905 19.5829 560.158 17.4886C561.071 15.9491 560.928 14.6069 559.675 13.8372ZM540.719 925.865C622.685 914.678 694.555 885.302 760.715 835.79C858.254 762.792 920.208 659.166 939.147 537.157C943.425 509.679 943.425 438.221 939.147 410.6C915.661 258.572 824.888 135.238 685.819 66.4285C618.406 33.08 556.041 18.5985 480.036 18.7417C424.509 18.8849 371.022 28.1037 324.248 45.5924C311.091 50.5508 307.673 51.2491 303.538 49.7812C299.564 48.385 298.651 48.5282 298.651 50.6226C298.651 52.0188 299.42 52.7164 300.333 52.0898C301.246 51.5349 302.016 51.6785 302.016 52.4482C302.016 53.1463 292.296 58.4624 280.464 64.1189C187.185 109.156 111.681 183.139 66.7863 273.608C45.1089 317.178 32.865 355.843 24.2012 408.077C19.7977 434.498 19.7977 512.759 24.2012 539.663C40.4906 639.655 82.4492 722.587 151.813 791.88C181.457 821.541 214.537 847.193 248.512 866.991C254.813 870.625 259.556 874.473 259.145 875.583C258.017 878.518 260.058 879.843 262.492 877.82C264.032 876.496 267.039 877.266 273.268 880.416C328.437 908.377 387.866 924.182 456.407 929.212C472.195 930.411 522.12 928.371 540.719 925.865ZM441.568 918.455C268.381 901.807 120.559 791.325 58.3911 631.975C47.6867 604.552 33.8494 551.208 36.4449 547.091C36.9999 546.178 36.6418 544.496 35.7468 543.386C29.7323 536.173 27.7632 453.937 32.7395 417.367C35.9437 393.523 37.0715 388.422 38.6109 389.407C39.1658 389.747 39.7925 386.113 39.9357 381.369C40.3474 369.608 50.2104 336.332 61.6846 308.085C94.6751 226.834 150.417 158.58 226.065 106.489C245.236 93.3504 277.958 74.8959 282.147 74.8959C283.829 74.8959 285.154 74.2509 285.154 73.4275C285.154 71.53 317.106 57.9612 337.387 51.2485C385.504 35.3887 426.889 28.8736 480.877 28.802C556.739 28.6767 617.923 42.8712 683.994 75.8617C710.003 88.9469 713.297 91.1131 710.844 93.5655C709.591 94.8185 704.346 92.8679 693.23 86.9249C590.786 32.3107 469.958 19.5116 357.668 51.3207C195.025 97.2711 70.0083 234.872 41.5466 398.983C34.5476 439.116 33.7065 500.729 39.5778 537.998C59.7874 666.094 132.588 775.949 243.768 845.939C349.703 912.636 482.972 931.665 602.958 897.117C678.122 875.583 742.045 838.099 797.769 783.002C866.846 714.693 909.217 630.991 923.985 533.792C928.531 504.077 928.102 441.156 923.143 409.759C903.847 286.335 836.076 180.758 730.499 109.568C716.089 99.7766 709.949 93.4224 715.051 93.4224C717.485 93.4224 751.406 116.282 765.118 127.201C784.612 142.721 819.858 177.68 835.592 197.191C884.819 258.089 916.144 328.706 928.8 407.235C932.434 430.237 933.973 464.642 931.467 469.332C929.928 472.196 929.928 473.038 931.467 473.038C933.006 473.038 933.204 479.463 932.434 498.76C927.547 622.953 864.054 743.496 761.753 823.081C728.888 848.589 681.971 876.281 666.863 879.02C664.429 879.432 661.618 880.828 660.651 882.009C657.017 886.556 618.209 900.052 587.994 907.338C564.848 912.923 556.184 914.391 526.398 917.756C512.758 919.296 455.28 919.708 441.568 918.455ZM447.94 899.91C260.326 884.891 100.565 749.295 59.2324 570.022C51.1951 535.188 46.6482 490.509 50.64 485.765C51.8214 484.297 52.0364 483.169 50.9803 483.169C47.6866 483.169 47.3464 477.781 49.029 451.503C52.9313 389.407 64.8354 343.742 90.97 289.969C143.204 182.566 239.991 100.618 355.914 65.3721C366.619 62.1679 377.323 59.7157 379.758 60.0021C382.21 60.2706 385.289 59.6439 386.542 58.6594C398.231 49.7091 490.794 44.6081 535.975 50.4794C662.119 66.912 775.733 137.744 845.527 243.339C878.804 293.746 900.07 348.844 910.416 411.424C915.16 440.101 914.748 511.774 909.646 540.164C893.142 633.086 856.285 704.973 791.611 770.561C774.767 787.62 739.807 817.407 737.498 816.78C736.853 816.565 734.133 818.605 731.34 821.183C724.914 827.269 701.482 841.732 679.447 853.278C612.052 888.596 525.002 906.139 447.94 899.91ZM521.565 893.143C622.47 883.423 712.187 840.695 785.453 767.482C811.534 741.544 823.42 727.062 841.679 699.299C930.966 563.237 930.769 383.678 840.98 247.814C783.574 160.818 697.92 97.8972 598.698 69.8472C449.551 27.62 292.35 67.6095 181.6 175.997C129.778 226.691 95.1048 282.004 74.1971 347.233C67.6993 367.658 61.4701 394.579 58.9461 413.178C57.8363 421.501 56.3682 429.128 55.7417 430.023C53.2893 433.46 55.0436 512.061 57.9077 530.516C65.7302 580.709 75.5935 612.392 96.9846 656.087C118.25 699.37 142.863 733.99 176.355 767.41C249.496 840.623 341.522 883.495 447.099 893.698C460.882 895.023 505.419 894.683 521.565 893.143ZM858.666 337.585C858.666 334.023 858.523 333.95 856.285 336.958C853.153 341.093 849.644 339.052 852.025 334.577C853.421 332.071 853.278 331.301 851.398 331.301C850.074 331.301 848.535 330.174 848.033 328.778C847.264 326.898 848.176 326.271 851.398 326.271C855.175 326.271 855.444 325.842 853.636 323.604C852.025 321.725 851.953 320.526 853.35 319.129C854.746 317.733 855.659 318.216 856.715 321.152C858.183 325.072 858.183 325.072 860.832 321.295C863.696 317.249 866.22 318.987 864.394 323.82C863.643 325.842 863.839 326.397 865.164 325.573C866.507 324.803 866.775 325.287 866.148 326.969C865.594 328.437 866.005 329.619 866.99 329.619C868.046 329.619 868.87 330.675 868.87 332C868.87 333.539 867.688 334.023 865.379 333.468C862.372 332.627 862.103 333.055 863.07 336.958C863.911 340.395 863.571 341.362 861.459 341.362C859.794 341.362 858.738 339.965 858.666 337.585ZM116.424 297.667C116.424 296.754 117.194 295.573 118.107 295.018C121.186 293.12 119.861 290.81 115.655 290.81C112.576 290.81 111.752 290.113 112.522 288.162C113.077 286.622 114.616 285.996 116.227 286.622C118.465 287.464 118.536 287.248 116.854 285.494C113.99 282.63 114.187 280.106 117.194 281.234C118.734 281.86 119.861 280.876 120.273 278.513C120.899 274.88 120.899 274.879 122.654 278.924C124.336 283.113 124.336 283.114 126.431 279.212C127.97 276.348 129.008 275.774 130.422 277.171C131.818 278.513 131.747 279.551 130.279 281.019C127.2 284.169 127.827 286.264 131.604 285.297C133.77 284.724 134.951 285.226 134.951 286.766C134.951 288.09 133.43 289.128 131.604 289.128C128.811 289.128 128.382 289.898 129.223 293.335C130.423 298.222 128.74 298.848 125.661 294.731C123.763 292.136 123.495 292.207 122.439 295.573C121.329 299.135 116.424 300.889 116.424 297.667ZM832.728 297.81C832.102 296.754 832.37 294.445 833.355 292.637C834.823 289.827 834.554 289.271 831.332 288.788C829.238 288.501 827.895 287.535 828.396 286.622C828.808 285.71 830.706 285.225 832.442 285.494C835.592 286.067 835.592 285.852 832.943 281.789C831.26 279.283 830.777 277.045 831.744 276.473C832.657 275.918 834.339 277.045 835.521 278.924C837.615 282.343 837.615 282.344 840.766 278.584C843.845 274.807 843.844 274.808 843.146 279.283C842.591 282.702 843.361 284.17 846.368 285.566C851.613 287.947 851.398 290.81 846.082 290.81C842.377 290.81 842.019 291.24 843.558 294.104C845.67 298.078 845.742 299.206 843.773 299.206C842.86 299.206 841.678 297.595 840.98 295.573C839.853 291.939 839.853 291.938 836.917 295.84C835.038 298.364 833.57 299.063 832.8 297.881L832.728 297.81ZM150.757 255.78C149.576 251.233 148.663 251.09 145.87 254.938C143.006 258.858 140.482 256.137 143.078 251.93C144.957 248.923 144.671 248.584 140.483 248.584C135.864 248.512 135.864 248.511 140.483 244.663C143.078 242.64 145.101 239.633 145.101 238.022C145.101 233.887 148.036 234.461 149.433 238.792C150.489 242.211 150.757 242.283 152.726 239.634C154.749 236.841 158.598 235.713 158.598 237.95C158.598 238.577 157.327 240.474 155.805 242.139C153.21 245.075 153.281 245.218 156.629 245.218C158.866 245.218 160.334 246.274 160.334 247.957C160.334 250.051 159.296 250.391 156.002 249.55C152.028 248.583 151.814 248.78 153.622 252.146C155.036 254.795 155.089 256.209 153.693 257.605C152.225 259.001 151.527 258.572 150.757 255.78ZM807.632 257.677C807.059 257.104 807.274 255.224 808.187 253.613C809.511 251.089 809.1 250.464 806.021 249.98C802.315 249.497 801.403 246.346 804.75 245.845C805.663 245.791 806.934 245.577 807.56 245.505C808.187 245.362 807.346 243.822 805.734 242.068C803.712 239.83 803.425 238.505 804.75 237.664C805.806 237.037 807.703 237.879 808.956 239.634C811.122 242.569 811.337 242.569 812.376 239.777C813.503 236.895 816.779 235.499 816.367 238.094C815.741 241.871 817.066 243.822 821.183 245.505C825.801 247.259 825.801 247.313 822.024 248.727C817.835 250.32 817.28 252.074 820.073 254.866C821.326 256.066 821.326 257.033 820.216 257.731C819.231 258.304 817.352 257.176 815.938 255.297C813.503 251.734 813.503 251.734 812.376 255.225C811.266 258.787 809.583 259.628 807.632 257.677ZM181.188 252.629C180.973 249.836 184.607 244.376 193.074 234.728C204.602 221.589 226.136 201.38 228.588 201.38C232.777 201.38 225.509 210.885 205.031 232.151C185.162 252.772 181.313 256.065 181.188 252.629ZM281.806 235.016C281.806 221.375 281.806 221.375 286.281 221.93C289.987 222.431 291.097 223.828 293.12 230.684C295.715 239.777 296.557 239.633 300.531 229.484C302.428 224.74 304.451 222.288 306.831 221.93C310.25 221.447 310.465 222.073 310.465 235.016C310.465 245.792 309.91 248.655 308.013 248.655C306.277 248.655 305.435 246.202 305.077 240.6L304.522 232.563L301.873 240.188C298.293 250.266 294.802 250.75 291.795 241.513L289.414 234.317L288.859 241.441C288.448 247.259 287.678 248.655 285.082 248.655C282.075 248.655 281.806 247.385 281.806 235.016ZM318.162 244.878C311.664 235.641 316.694 221.661 326.486 221.661C335.633 221.661 340.394 228.715 338.372 239.491C336.617 248.924 323.407 252.432 318.162 244.878ZM331.516 235.159C331.516 228.589 331.033 227.461 327.739 226.978C325.09 226.62 323.407 227.676 322.011 230.827C319.2 236.895 322.494 244.037 327.739 243.268C331.033 242.784 331.516 241.728 331.516 235.159ZM342.489 235.159C342.489 222.772 342.847 221.661 345.854 221.661C348.092 221.661 351.028 224.454 354.303 229.627L359.351 237.664V229.627C359.351 222.771 359.834 221.661 362.77 221.661C365.849 221.661 366.135 222.772 366.135 235.159C366.135 247.385 365.849 248.655 362.842 248.655C360.676 248.655 357.883 245.844 354.804 240.6L350.115 232.563L349.631 240.6C349.201 247.259 348.503 248.655 345.783 248.655C342.847 248.655 342.489 247.385 342.489 235.159ZM377.592 238.094C377.108 228.589 376.679 227.461 373.331 226.978C371.237 226.691 369.483 225.367 369.483 224.042C369.483 222.216 372.078 221.661 380.456 221.661C389.066 221.661 391.446 222.145 391.446 224.168C391.446 225.707 389.836 226.691 387.24 226.691C383.123 226.691 382.98 227.121 382.98 237.664C382.98 246.131 382.425 248.655 380.527 248.655C378.72 248.655 377.95 245.917 377.592 238.094ZM394.794 235.159C394.794 221.662 394.794 221.661 402.903 221.661C407.378 221.661 411.925 222.574 413.052 223.684C415.558 226.207 415.63 233.833 413.25 236.268C411.925 237.592 412.14 239.562 414.091 243.411C416.758 248.441 416.686 248.655 413.464 248.655C411.441 248.655 409.061 246.615 407.45 243.554C406.053 240.743 404.102 238.505 403.189 238.505C402.276 238.505 401.578 240.743 401.578 243.554C401.578 247.528 400.808 248.655 398.231 248.655C395.08 248.655 394.794 247.528 394.794 235.159ZM409.132 230.056C409.132 228.642 407.45 227.318 405.355 226.978C402.42 226.62 401.578 227.318 401.578 230.056C401.578 232.849 402.42 233.547 405.355 233.118C407.45 232.849 409.132 231.453 409.132 230.056ZM420.105 248.655V221.661H429.413C436.538 221.661 438.632 222.216 438.632 224.168C438.632 225.922 436.896 226.691 432.761 226.691C428.644 226.691 426.89 227.461 426.89 229.215C426.89 230.88 428.572 231.721 431.92 231.721C435.285 231.721 436.967 232.635 436.967 234.317C436.967 236 435.285 236.841 431.92 236.841C428.017 236.841 426.89 237.592 426.89 240.188C426.89 242.909 428.017 243.554 432.761 243.554C436.896 243.554 438.632 244.305 438.632 246.131C438.632 248.029 436.538 248.655 429.413 248.655H420.105ZM441.085 245.648C449.337 219.693 453.883 216.56 460.113 232.563C466.324 248.584 466.324 248.655 462.404 248.655C460.453 248.655 458.913 247.527 458.913 246.059C458.913 244.305 457.159 243.554 453.042 243.554C448.925 243.554 447.099 244.305 447.099 246.059C447.099 247.527 445.56 248.655 443.608 248.655C441.013 248.655 440.386 247.814 441.085 245.648ZM455.494 236.411C455.494 233.69 452.201 228.589 452.201 231.166C452.201 232.294 451.717 234.389 451.162 235.857C450.446 237.593 451.019 238.505 452.827 238.505C454.295 238.505 455.494 237.538 455.494 236.411ZM469.063 235.159C469.063 224.239 469.546 221.661 471.569 221.661C473.538 221.661 474.093 223.971 474.093 232.563C474.093 243.554 474.093 243.554 479.821 243.554C483.383 243.554 485.907 244.52 486.534 246.131C487.304 248.154 485.764 248.655 478.282 248.655H469.063V235.159ZM509.536 237.664C509.536 227.121 509.393 226.691 505.276 226.691C502.68 226.691 501.087 225.707 501.087 224.168C501.087 222.145 503.45 221.661 512.06 221.661C520.652 221.661 523.033 222.145 523.033 224.168C523.033 225.582 521.493 226.691 519.685 226.691C516.606 226.691 516.249 227.819 516.249 237.664C516.249 247.527 515.908 248.655 512.901 248.655C509.894 248.655 509.536 247.527 509.536 237.664ZM526.398 235.159V221.661H534.578C545.963 221.661 552.622 229.484 545.838 235.087C543.672 236.894 543.672 237.736 545.838 241.942C549.042 248.154 548.97 248.655 545.14 248.655C543.242 248.655 541.148 246.615 539.895 243.554C538.767 240.743 536.745 238.505 535.474 238.505C534.006 238.505 533.182 240.403 533.182 243.554C533.182 247.528 532.413 248.655 529.746 248.655C526.667 248.655 526.398 247.528 526.398 235.159ZM541.56 230.056C541.56 227.604 540.45 226.691 537.371 226.691C534.292 226.691 533.182 227.604 533.182 230.056C533.182 232.562 534.292 233.404 537.371 233.404C540.45 233.404 541.56 232.562 541.56 230.056ZM554.359 245.988C552.479 244.108 551.709 240.116 551.709 232.491C551.709 222.771 552.049 221.661 555.057 221.661C558.136 221.661 558.493 222.771 558.493 232.563C558.493 243.196 558.619 243.554 562.682 243.554C566.746 243.554 566.871 243.124 566.871 232.563C566.871 222.771 567.229 221.661 570.236 221.661C573.315 221.661 573.655 222.771 573.655 232.366C573.655 240.547 572.886 243.679 570.577 245.845C566.674 249.353 557.796 249.425 554.359 245.988ZM577.504 235.087C577.235 221.661 577.235 221.661 584.36 221.661C594.08 221.661 598.967 226.208 598.967 235.23C598.967 244.305 594.42 248.656 584.986 248.584C577.862 248.584 577.862 248.583 577.504 235.087ZM592.326 239.007C594.563 233.064 591.914 226.691 587.152 226.691C584.217 226.691 583.733 227.819 583.733 235.159C583.733 242.498 584.217 243.554 587.152 243.554C589.318 243.554 591.216 241.871 592.326 239.007ZM603.173 248.655L604.283 221.661H613.376C620.447 221.661 622.541 222.216 622.541 224.168C622.541 225.993 620.644 226.691 615.829 226.691C610.924 226.691 609.044 227.389 609.044 229.215C609.044 230.951 610.852 231.721 614.987 231.721C619.104 231.721 620.859 232.492 620.859 234.317C620.859 236.072 619.104 236.841 614.987 236.841C610.154 236.841 609.044 237.467 609.044 240.188C609.044 242.98 610.154 243.554 615.829 243.554C620.644 243.554 622.541 244.252 622.541 246.131C622.541 248.082 620.375 248.655 612.893 248.655H603.173ZM624.224 247.455C624.224 246.9 626.318 240.743 628.896 233.959C635.054 217.258 638.061 217.597 644.631 235.569C649.106 247.742 649.249 248.655 646.313 248.655C644.559 248.655 642.751 247.455 642.178 246.059C641.623 244.663 639.117 243.554 636.307 243.554C633.443 243.554 630.937 244.663 630.364 246.059C629.451 248.583 624.224 249.765 624.224 247.455ZM638.759 235.857C638.204 234.389 637.703 232.294 637.703 231.166C637.649 228.589 634.427 233.69 634.427 236.411C634.356 237.538 635.609 238.505 637.077 238.505C638.831 238.505 639.457 237.593 638.759 235.857ZM653.867 245.988C652.041 244.108 651.2 240.116 651.2 232.491C651.2 222.771 651.629 221.661 654.637 221.661C657.644 221.661 657.984 222.771 657.984 232.563C657.984 243.196 658.127 243.554 662.191 243.554C666.236 243.554 666.451 243.124 666.451 232.563C666.451 222.771 666.791 221.661 669.799 221.661C672.806 221.661 673.164 222.771 673.164 232.366C673.164 240.547 672.466 243.679 670.085 245.845C666.165 249.353 657.358 249.425 653.867 245.988ZM489.255 236.841C489.255 235.857 491.564 235.159 494.374 235.159C497.166 235.159 499.404 235.928 499.404 236.841C499.404 237.736 497.095 238.505 494.374 238.505C491.564 238.505 489.255 237.736 489.255 236.841ZM176.982 224.168C176.838 223.684 176.57 222.574 176.355 221.661C176.069 220.677 175.8 219.495 175.728 218.994C175.585 218.439 174.261 219.209 172.793 220.677C169.159 224.311 166.08 222.145 169.499 218.296C172.023 215.504 171.951 215.218 168.461 214.323C164.684 213.338 164.684 213.266 167.96 210.115C170 208.164 171.665 207.61 172.363 208.648C172.99 209.561 173.706 208.719 174.046 206.624C174.601 203.062 177.966 201.38 177.966 204.745C177.966 206.696 179.291 206.84 183.139 205.372C187.185 203.761 188.455 206.482 184.893 209.077C181.814 211.315 182.298 214.035 185.717 214.035C186.558 214.035 187.059 214.806 186.845 215.719C186.558 216.632 185.091 217.33 183.48 217.258C181.457 217.187 180.544 218.367 180.544 221.106C180.544 224.382 177.608 226.835 176.91 224.168H176.982ZM781.121 221.661C781.121 219.352 780.011 218.224 777.774 218.224C773.227 218.224 773.424 215.432 778.043 213.964C781.479 212.854 781.551 212.568 778.884 210.689C776.091 208.648 774.964 204.745 777.201 204.745C777.846 204.745 779.725 205.998 781.408 207.538C784.343 210.187 784.486 210.115 784.486 206.696C784.486 201.935 785.453 202.078 791.396 208.021C797.268 213.892 797.482 214.878 792.667 214.878C789.23 214.878 789.23 215.092 791.826 217.956C793.365 219.639 794.618 221.589 794.618 222.144C794.618 224.382 790.698 223.273 788.532 220.337C786.438 217.598 786.295 217.67 786.223 221.232C786.223 223.416 785.185 225.009 783.645 225.009C782.249 225.009 781.121 223.469 781.121 221.661ZM266.555 194.255C253.202 187.471 247.116 173.688 248.44 153.281C249.353 138.388 254.186 127.398 262.438 121.043C268.309 116.64 270.046 116.21 282.63 116.21C295.089 116.21 296.968 116.64 302.571 120.9C308.997 125.787 312.559 131.317 314.457 139.355C315.567 143.973 315.495 144.045 306.617 144.045C297.953 144.045 297.595 143.83 296.055 138.513C292.565 126.699 275.792 125.857 269.706 137.26C265.231 145.727 265.302 169.714 269.849 177.25C276.203 187.614 292.708 186.075 296.001 174.816C297.541 169.642 298.096 169.356 305.65 169.356C310.053 169.356 313.956 169.911 314.385 170.609C315.638 172.578 311.092 184.321 307.673 188.241C298.937 198.033 279.569 200.825 266.555 194.255ZM320.614 195.992C320.614 195.723 327.327 177.608 335.579 155.859L350.526 116.21H366.959L380.885 153.281C388.511 173.688 395.224 191.804 395.778 193.486C396.691 196.207 395.779 196.421 387.097 195.992C377.377 195.508 377.377 195.508 375.497 188.724C373.618 182.011 373.618 182.012 359.065 181.528C344.53 180.956 344.529 180.955 342.149 188.241C339.696 195.509 339.696 195.508 330.12 195.992C324.875 196.206 320.614 196.206 320.614 195.992ZM367.388 163.825C366.959 162.715 364.865 156.414 362.699 149.916C360.604 143.418 358.438 139.284 358.009 140.626C357.525 142.023 355.431 148.306 353.336 154.607L349.416 165.938H358.779C365.563 165.938 367.943 165.364 367.388 163.825ZM404.943 196.35V115.172L413.822 115.655C422.629 116.21 422.629 116.21 438.22 142.219L453.74 168.175L454.224 142.219L454.653 116.21L463.532 115.655L472.41 115.172V196.493L462.762 195.992C453.185 195.508 453.185 195.509 438.704 171.451L424.312 147.339L423.882 171.88L423.399 196.35H404.943ZM481.432 195.079C481.844 194.381 486.391 182.424 491.492 168.515C511.988 112.504 510.52 115.369 518.844 115.369C522.889 115.369 526.81 116.281 527.58 117.48C528.278 118.59 535.473 136.848 543.529 157.953L558.064 196.35H548.344C538.624 196.35 538.624 196.349 536.53 188.724C534.364 181.17 534.364 181.17 519.685 181.17C504.917 181.17 504.918 181.17 502.752 188.724C500.657 196.349 500.657 196.35 490.669 196.35C485.137 196.35 481.02 195.795 481.432 195.079ZM528.063 164.523C528.063 163.198 522.549 146.211 520.24 140.626C519.399 138.586 511.362 160.047 511.219 164.666C511.219 165.364 514.995 165.938 519.685 165.938C524.286 165.938 528.063 165.292 528.063 164.523ZM566.871 196.35V114.885L585.058 115.727C605.411 116.711 613.788 119.718 621.485 128.865C627.715 136.276 629.809 144.887 629.039 160.478C628.556 172.364 627.786 175.013 623.383 181.314C615.13 193.057 606.878 196.35 585.201 196.35H566.871ZM601.133 180.956C608.973 177.394 612.052 166.832 611.067 146.837C610.584 136.849 603.37 130.547 592.326 130.547H583.733V182.854H590.446C594.08 182.854 598.895 182.012 601.133 180.956ZM637.703 195.079C637.703 194.381 644.362 176.14 652.471 154.534L667.292 115.296L675.544 115.727C683.797 116.21 683.796 116.21 698.761 155.788C706.942 177.608 713.654 195.652 713.654 195.848C713.654 196.135 709.251 196.35 703.935 196.35C694.143 196.35 694.143 196.349 691.905 188.724C689.668 181.17 689.668 181.17 674.918 181.17C660.078 181.17 660.079 181.17 657.984 188.724C655.89 196.349 655.89 196.35 646.797 196.35C641.838 196.35 637.703 195.795 637.703 195.079ZM681.63 157.112C679.876 152.225 679.178 147.965 680.02 147.679C680.915 147.392 681.63 146.354 681.63 145.441C681.63 144.6 680.861 144.331 679.876 144.886C678.963 145.441 677.567 144.259 676.798 142.147C675.115 137.618 674.417 138.728 670.855 151.097C669.315 156.414 667.633 161.945 667.078 163.342C666.236 165.508 667.704 165.938 675.401 165.938H684.692L681.63 157.112ZM207.538 190.335C207.538 186.272 207.323 186.2 203.618 188.724C198.444 192.089 196.135 189.709 200.968 186.076C204.745 183.194 204.745 183.193 201.111 182.083C196.905 180.759 196.135 177.751 199.984 177.751C201.38 177.751 202.991 177.948 203.563 178.163C204.19 178.45 205.3 176.839 206.07 174.673C207.609 170.609 210.974 171.11 210.974 175.371C210.974 177.322 211.673 177.466 214.179 176.141C218.869 173.617 220.265 176.91 215.861 179.989C212.371 182.495 212.371 182.495 215.861 183.623C221.034 185.234 220.265 188.438 215.02 187.113C211.315 186.201 210.831 186.486 211.744 189.279C212.37 191.373 211.798 192.913 210.133 193.557C208.236 194.255 207.538 193.343 207.538 190.335ZM752.033 193.683C751.335 192.985 750.78 190.962 750.78 189.208C750.78 186.63 750.225 186.415 747.487 187.812C743.155 190.192 740.917 186.774 744.98 183.838C747.629 181.869 747.63 181.601 745.106 180.616C743.566 180.061 742.313 178.378 742.313 176.91C742.313 174.816 743.011 174.672 745.607 175.997C750.279 178.521 751.12 178.235 749.939 174.386C748.614 170.269 751.621 169.911 754.002 173.974C754.969 175.657 755.739 175.997 755.739 174.816C755.81 173.688 756.58 172.704 757.493 172.704C758.334 172.704 758.674 173.831 758.119 175.228C757.421 176.982 758.262 177.751 760.715 177.751C765.387 177.751 765.244 180.472 760.428 181.725C756.651 182.781 756.651 182.781 760.643 185.502C763.364 187.471 763.991 188.796 762.737 190.049C761.467 191.32 759.999 190.962 757.707 188.868C754.485 186.004 754.342 186.075 753.859 190.479C753.501 192.913 752.731 194.381 752.033 193.683ZM103.912 622.184C102.802 617.924 102.802 617.924 99.3652 621.754C95.9463 625.675 95.9461 625.675 96.6442 621.199C97.1992 617.977 96.7159 616.94 95.0333 617.638C93.5654 618.193 93.1536 617.637 93.7801 615.954C94.2634 614.558 93.9234 612.876 92.9388 612.249C89.5736 610.226 91.113 607.917 95.1764 608.902C98.7386 609.797 99.0965 609.456 98.3268 605.608C97.2706 600.219 100.421 599.737 101.961 605.054C102.927 608.544 103.142 608.615 105.237 605.966C106.919 603.728 107.904 603.514 109.371 604.981C110.839 606.449 110.625 607.702 108.53 610.012C105.935 612.876 106.006 613.018 109.443 613.018C111.394 613.018 113.077 614.147 113.077 615.4C113.077 617.011 111.877 617.494 109.586 616.867C106.633 616.098 106.293 616.581 107.205 620.215C107.832 622.596 107.546 624.976 106.633 625.531C105.738 626.104 104.467 624.565 103.912 622.184ZM853.708 622.667C853.708 621.485 854.621 619.463 855.802 618.192C857.556 616.384 857.198 616.098 854.119 616.867C849.304 618.049 847.067 614.844 851.81 613.573C855.73 612.535 856.214 611.211 853.779 608.687C852.795 607.703 852.723 606.091 853.636 604.623C854.961 602.529 855.319 602.601 856.285 605.125C857.753 608.973 859.865 608.758 860.904 604.623C861.405 602.744 862.73 601.277 863.839 601.277C865.164 601.277 865.45 602.744 864.752 605.68C863.768 609.6 864.054 610.011 867.061 609.241C869.37 608.615 870.552 609.099 870.552 610.71C870.552 611.981 869.782 613.09 868.941 613.09C868.046 613.09 867.76 614.344 868.386 615.883C869.156 617.924 868.816 618.335 867.204 617.279C865.522 616.241 865.236 616.653 866.077 618.819C867.903 623.652 865.379 625.46 862.515 621.343C859.865 617.566 859.866 617.565 858.523 621.27C857.055 625.262 853.708 626.229 853.708 622.739V622.667ZM88.4637 576.807C87.336 572.403 87.3359 572.403 84.8299 576.036C82.8608 578.829 81.9659 579.115 80.9098 577.433C80.0685 576.18 80.3549 574.139 81.5364 572.671C83.0758 570.72 83.0759 570.506 81.3932 571.49C80.2834 572.188 79.2988 571.902 79.2988 570.989C79.2988 569.951 80.2119 569.181 81.3217 569.181C82.4494 569.181 81.8944 568.125 80.0685 566.8C75.9514 563.721 78.314 561 82.7355 563.721C85.7248 565.619 85.8681 565.403 84.9014 560.517C83.6305 554.001 87.9091 554.359 89.5022 560.856C90.4151 564.777 90.4864 564.848 92.3838 561.555C93.422 559.747 94.8186 558.834 95.5883 559.532C96.2864 560.302 96.0179 562.397 94.8186 564.223C93.1538 566.943 93.2072 567.498 95.3911 567.498C97.6823 567.498 98.4521 569.037 97.5571 572.116C97.3423 572.814 96.1611 573.173 94.8901 572.887C93.3507 572.529 92.7955 573.585 93.1535 576.108C93.9232 581.425 89.7884 582.051 88.4637 576.807ZM869.782 579.455C869.299 578.614 869.37 576.591 869.997 575.052C870.91 572.671 870.355 572.402 867.473 573.297C862.998 574.711 862.515 571.346 866.775 568.124C869.227 566.245 869.299 565.618 867.402 564.347C866.149 563.524 865.594 561.913 866.292 560.785C867.205 559.389 868.386 559.604 870.624 561.627C873.488 564.222 873.703 564.151 874.186 560.785C874.544 558.834 875.528 557.295 876.495 557.367C877.408 557.51 877.891 559.103 877.622 561.001C877.121 563.793 877.694 564.222 880.558 563.309C883.064 562.539 884.049 562.951 884.049 564.849C884.049 566.316 883.136 567.498 881.954 567.498C880.487 567.498 880.63 568.124 882.366 569.324C884.192 570.577 884.335 571.347 882.867 571.973C881.74 572.403 881.256 573.87 881.811 575.195C883.011 578.417 880.827 578.274 876.996 574.837C874.114 572.187 873.917 572.26 873.917 575.607C873.917 579.456 871.322 581.979 869.782 579.527V579.455ZM79.2988 528.689C79.2988 526.81 78.5292 525.343 77.6163 525.343C76.7213 525.343 75.9512 526.112 75.9512 527.007C75.9512 527.92 74.8237 528.689 73.4274 528.689C70.3485 528.689 70.1336 526.739 72.944 523.947C74.4834 522.407 74.1973 521.906 71.6733 521.763C69.8654 521.709 69.3103 521.279 70.4917 520.796C71.7448 520.294 72.1742 518.415 71.5477 515.891C70.4199 511.488 72.2997 510.575 75.5934 513.797C77.2045 515.408 77.6163 514.853 77.6163 511.29C77.6163 508.766 78.3859 506.744 79.2988 506.744C80.2833 506.744 80.9814 508.695 80.9814 511.004C80.9814 514.71 81.4649 515.049 84.2574 513.581C88.6072 511.29 89.4481 511.345 89.4481 514.155C89.4481 515.48 88.1775 517.019 86.6381 517.574C84.132 518.558 84.2573 518.969 87.4793 521.279C91.9544 524.429 90.7014 527.777 85.9399 525.271C83.1474 523.731 82.7355 524.072 82.7355 527.777C82.7355 530.158 81.9659 532.056 80.9814 532.056C80.0684 532.056 79.2988 530.515 79.2988 528.689ZM879.019 527.777C879.019 524 878.589 523.732 875.582 525.343C872.933 526.739 872.235 526.596 872.235 524.502C872.235 523.034 873.416 521.351 874.83 520.868C877.193 519.955 877.121 519.524 874.758 516.803C871.465 513.17 874.472 510.449 878.249 513.581C880.272 515.264 880.701 514.853 880.701 511.147C880.701 508.212 881.597 506.744 883.422 506.744C885.445 506.744 885.875 507.782 885.033 510.932C883.906 515.479 885.517 516.463 888.739 513.17C889.849 512.113 891.245 511.702 891.961 512.4C892.587 513.027 892.229 514.423 891.191 515.479C889.723 516.947 889.723 518.057 891.048 519.668C892.229 521.136 892.301 521.906 891.191 521.906C890.206 521.906 889.777 523.445 890.278 525.343C891.316 529.12 889.15 529.745 886.018 526.595C884.335 524.912 883.709 525.271 882.939 528.279C881.596 533.38 878.947 533.022 878.947 527.777H879.019ZM884.049 483.026C884.049 480.305 883.279 479.75 880.701 480.592C876.924 481.773 875.725 477.298 879.431 475.758C880.97 475.132 880.773 474.29 878.661 472.607C876.853 471.068 876.352 469.475 877.265 467.936C878.464 466.038 879.234 466.039 881.399 467.865C883.709 469.744 884.049 469.476 884.049 465.627C884.049 462.834 884.962 461.223 886.573 461.223C888.184 461.223 889.079 462.834 889.079 465.77C889.079 469.332 889.58 469.886 891.119 468.275C894.252 465.125 895.863 465.895 895.863 470.513C895.863 472.822 894.968 474.72 893.84 474.72C892.229 474.72 892.229 475.203 893.84 476.743C896.919 479.822 896.221 481.844 892.516 480.663C889.849 479.821 889.079 480.305 889.079 483.026C889.079 484.995 888.041 486.534 886.573 486.534C885.177 486.534 884.049 484.995 884.049 483.026ZM74.4834 483.598C75.1099 479.249 74.1254 477.513 72.2458 479.392C68.8089 482.829 68.111 481.773 68.111 473.038C68.0394 464.714 69.4356 462.548 71.9596 466.665C72.8725 468.061 73.5706 467.506 74.1971 464.857C75.307 460.167 78.3144 459.826 79.0126 464.355C79.3706 466.593 80.4983 467.362 82.7895 466.736C86.8529 465.698 87.1392 468.902 83.0758 471.14C80.2833 472.679 80.2833 472.822 83.0758 473.95C84.7584 474.577 86.083 476.116 86.083 477.441C86.083 480.233 85.1703 480.305 80.6235 477.853C77.491 476.188 77.2758 476.385 78.2603 480.376C79.0838 483.67 78.7441 484.779 76.775 484.779C75.3788 484.779 74.3402 484.226 74.4834 483.527V483.598ZM880.701 428.071C880.701 423.811 880.558 423.74 877.622 426.389C875.868 427.928 873.989 429.128 873.345 429.128C871.107 429.128 872.306 425.279 875.17 423.041C877.963 420.947 877.891 420.732 874.472 419.747C872.163 419.049 871.107 417.797 871.751 416.258C872.306 414.79 873.917 414.235 875.797 414.861C878.321 415.703 878.876 415.13 878.589 412.122C878.321 410.1 879.091 408.076 880.272 407.718C881.597 407.235 882.366 408.56 882.366 411.567C882.366 415.899 882.51 416.042 885.445 413.393C889.777 409.473 891.191 411.782 887.754 417.027C885.302 420.732 885.302 421.216 887.54 420.374C889.365 419.676 890.206 420.589 890.493 423.812C890.761 427.231 890.35 427.731 888.81 426.12C885.445 422.826 883.637 423.812 884.747 428.287C885.517 431.437 885.177 432.547 883.279 432.547C881.597 432.547 880.701 430.935 880.701 428.071ZM86.4949 382.622C87.2647 378.774 86.9242 378.362 83.362 379.275C79.4418 380.241 77.7593 378.004 80.9098 376.053C81.8227 375.498 82.0913 373.815 81.4648 372.276C80.8383 370.593 81.1247 369.966 82.2345 370.664C83.4338 371.362 83.7738 370.592 83.2189 368.427C82.1628 364.381 85.2418 363.88 87.4793 367.8C88.7324 370.11 89.1617 369.751 90.1463 366.046C90.7728 363.468 92.0259 362.001 93.0104 362.627C93.977 363.254 94.335 365.491 93.8517 367.585C93.0103 370.807 93.4221 371.291 96.0177 370.664C97.754 370.181 99.7231 370.665 100.421 371.793C101.119 372.903 100.206 374.083 98.0405 374.656C94.4783 375.569 93.0823 378.559 96.2149 378.559C97.1278 378.559 97.8974 379.687 97.8974 381.083C97.8974 384.162 95.946 384.305 93.082 381.512C91.4709 379.901 90.8444 380.242 90.0747 383.177C88.6785 388.494 85.5283 387.939 86.4949 382.622ZM873.345 383.32C872.593 380.17 872.02 379.972 869.782 381.852C866.22 384.859 864.269 382.55 866.847 378.433C868.601 375.623 868.458 375.139 865.522 375.139C863.642 375.139 862.103 374.03 862.103 372.615C862.103 371.219 863.642 370.11 865.593 370.11C868.314 370.11 868.869 369.34 868.046 366.744C866.703 362.555 871.322 361.929 872.933 366.046C873.774 368.283 874.401 368.427 876.495 366.673C879.431 364.239 879.86 364.506 881.399 369.68C882.241 372.275 881.883 373.457 880.344 373.529C879.019 373.529 879.234 374.227 881.113 375.283C885.517 377.861 884.675 380.457 879.789 379.204C875.797 378.219 875.528 378.505 876.567 382.55C877.193 385.074 876.996 386.954 876.012 386.954C875.099 386.954 873.917 385.343 873.345 383.32ZM97.8974 340.467C97.8974 339.966 98.7385 337.943 99.7946 335.992C101.459 332.841 101.263 332.626 97.1993 333.396C94.192 333.951 92.7957 333.467 92.7957 331.927C92.7957 330.674 93.6372 329.619 94.6755 329.619C95.7316 329.619 96.0895 328.366 95.5167 326.898C94.747 325.001 95.2483 324.446 96.913 325.144C98.524 325.77 99.0968 325.286 98.4524 323.675C96.7161 319.129 99.9202 317.107 102.301 321.367C104.539 325.359 104.538 325.359 105.666 321.582C106.221 319.488 107.761 317.805 109.014 317.805C111.824 317.805 111.949 318.645 109.64 322.977C108.172 325.698 108.459 326.2 111.323 326.2C113.22 326.2 114.759 326.969 114.759 327.864C114.759 328.849 113.22 329.547 111.394 329.547C107.474 329.547 107.277 330.173 110.07 334.577C112.79 338.998 110.284 341.165 107.205 337.03C104.753 333.879 104.682 333.879 103.626 337.585C102.731 340.807 97.8974 343.188 97.8974 340.467ZM208.164 777.56C207.609 776.145 206.499 775.447 205.658 776.02C204.817 776.503 204.19 776.145 204.19 775.322C204.19 774.481 202.579 773.281 200.61 772.798C196.708 771.814 197.746 768.251 202.024 768.251C204.315 768.251 204.315 767.84 201.666 764.904C198.373 761.253 199.5 757.905 202.848 761.252C205.801 764.188 207.538 763.633 207.538 759.856C207.538 755.452 210.974 755.452 212.156 759.856C212.782 762.308 213.982 763.007 216.219 762.309C220.336 760.984 220.551 765.727 216.416 767.41C213.767 768.466 213.91 768.735 217.258 770.078C222.502 772.1 222.162 775.662 216.846 774.338C213.409 773.496 212.639 773.854 212.639 776.718C212.639 780.621 209.56 781.265 208.164 777.56ZM750.78 775.949C750.78 772.101 750.422 771.814 747.487 773.712C743.083 776.432 740.577 773.711 744.694 770.704C747.63 768.609 747.63 768.251 745.106 767.267C741.83 766.014 741.329 761.538 744.479 761.538C745.75 761.538 747.629 762.452 748.757 763.562C750.279 765.101 750.78 764.546 750.78 761.055C750.78 758.531 751.55 756.509 752.463 756.509C753.358 756.509 754.128 758.048 754.128 759.928C754.128 762.792 754.7 763.078 757.421 761.61C763.221 758.46 764.975 759.713 760.84 764.063C756.938 768.252 756.938 768.251 760.715 768.251C763.006 768.251 764.277 769.093 763.776 770.418C763.364 771.545 761.825 772.315 760.285 772.029C758.746 771.743 757.493 772.369 757.493 773.353C757.493 774.409 756.723 774.749 755.81 774.194C754.897 773.64 754.128 774.266 754.128 775.662C754.128 777.058 753.358 778.67 752.463 779.225C751.478 779.851 750.78 778.384 750.78 775.949ZM173.76 745.518C173.76 744.122 172.99 743.012 172.023 743.012C171.038 743.012 170.627 742.314 171.182 741.472C171.665 740.703 170.555 739.574 168.729 739.163C164.254 737.981 164.397 734.544 168.944 734.544C172.435 734.544 172.506 734.402 169.714 731.341C167.691 729.104 167.405 727.76 168.729 726.991C169.786 726.292 171.665 727.134 172.99 728.888C175.227 731.896 175.657 731.753 176.069 727.564C176.57 723.286 180.544 724.27 180.544 728.602C180.544 732.307 181.116 732.934 183.909 732.039C186.29 731.27 187.256 731.753 187.256 733.579C187.256 735.047 186.146 736.228 184.75 736.228C181.528 736.228 181.457 739.45 184.607 740.631C186.003 741.186 186.63 742.654 186.146 744.05C185.305 746.162 184.679 746.091 181.94 743.567C178.879 740.774 178.664 740.845 177.751 744.336C176.641 748.525 173.76 749.367 173.76 745.518ZM784.486 742.726C784.486 739.307 784.343 739.307 781.408 741.884C779.725 743.424 777.846 744.694 777.201 744.694C774.964 744.694 776.163 740.775 779.027 738.609C781.748 736.514 781.676 736.371 778.043 736.299C775.662 736.299 774.408 735.458 774.838 734.134C775.25 733.006 777.201 732.235 779.17 732.45C781.963 732.736 782.661 732.038 782.375 729.228C782.178 727.277 782.947 725.326 784.057 724.896C785.382 724.484 786.223 725.666 786.223 727.975C786.223 731.609 786.294 731.609 789.588 728.673C793.992 724.681 796.086 726.794 792.094 731.198C789.159 734.474 789.159 734.544 792.667 734.544C794.69 734.544 796.372 735.315 796.372 736.228C796.372 737.213 795.102 737.911 793.634 737.911C792.166 737.911 791.325 738.877 791.683 740.005C792.452 742.386 789.087 746.359 786.295 746.359C785.328 746.359 784.558 744.766 784.558 742.726H784.486ZM379.06 740.219C378.433 739.575 377.95 734.276 377.95 728.387C377.95 720.009 378.505 717.701 380.456 717.701C382.497 717.701 382.98 720.154 382.98 729.515C382.98 740.345 381.995 743.155 379.06 740.219ZM388.081 729.659C388.081 719.097 388.439 717.701 391.232 717.701C393.541 717.701 394.937 719.723 396.477 725.254C398.929 734.062 400.11 733.918 403.189 724.556C404.8 719.723 406.411 717.701 408.649 717.701C411.513 717.701 411.781 718.882 411.37 728.96C410.743 742.099 406.68 746.503 406.465 734.277L406.34 726.991L403.744 734.205C400.809 742.582 398.356 742.654 395.492 734.473L393.469 728.673L392.914 734.473C392.485 737.624 391.304 740.559 390.176 740.917C388.565 741.401 388.01 738.466 388.01 729.659H388.081ZM416.185 740.219C415.559 739.575 415.075 734.205 415.075 728.262C415.075 718.113 415.29 717.486 418.709 717.969C421.358 718.399 423.041 720.637 424.867 726.025L427.319 733.507L430.112 726.025C431.651 721.747 434.086 718.327 435.768 717.969C438.292 717.486 438.632 719.026 438.632 729.515C438.632 738.466 438.149 741.401 436.538 740.917C435.428 740.488 433.96 737.981 433.388 735.243C432.761 732.593 432.206 731.537 432.134 733.005C431.991 734.401 430.81 737.069 429.485 738.876C427.176 742.027 426.961 741.812 424.025 735.386L421.018 728.673L420.463 734.975C419.89 741.043 418.638 742.654 416.185 740.219ZM443.734 729.515C443.734 720.154 444.235 717.701 446.258 717.701C448.281 717.701 448.782 720.154 448.782 729.515C448.782 738.877 448.281 741.329 446.258 741.329C444.235 741.329 443.734 738.877 443.734 729.515ZM455.566 737.982C448.352 730.768 453.328 717.074 462.69 718.04C465.555 718.327 468.633 719.867 469.618 721.407C472.267 725.667 469.618 727.135 465.698 723.644C460.113 718.542 455.065 725.255 458.215 733.579C459.343 736.514 465.626 737.337 465.626 734.544C465.626 733.632 464.928 732.862 463.944 732.862C463.049 732.862 462.279 731.753 462.279 730.357C462.279 728.746 463.872 727.832 466.539 727.832C470.173 727.832 470.728 728.531 470.728 733.579C470.728 741.813 461.992 744.408 455.566 737.982ZM475.775 729.659C475.775 717.701 475.775 717.701 480.949 717.701C490.794 717.701 495.967 723.859 490.669 729.104C489.201 730.625 489.201 732.093 490.669 735.458C493.175 740.918 493.175 741.329 490.454 741.329C489.201 741.329 487.304 739.45 486.248 737.069C483.885 731.896 481.289 731.681 480.591 736.568C480.251 738.537 479.051 740.488 477.941 740.917C476.402 741.401 475.83 738.466 475.83 729.659H475.775ZM487.59 725.327C487.59 723.859 486.122 722.731 484.225 722.731C482.345 722.731 480.877 723.859 480.877 725.327C480.877 726.723 482.345 727.832 484.225 727.832C486.122 727.832 487.59 726.723 487.59 725.327ZM494.374 739.933C494.374 735.941 502.752 718.47 504.918 718.04C507.155 717.557 514.584 733.99 514.584 739.378C514.584 742.17 511.29 741.759 510.163 738.805C509.608 737.409 507.298 736.228 505.061 736.228C502.823 736.228 500.514 737.409 500.031 738.805C498.975 741.401 494.374 742.385 494.374 739.933ZM506.743 728.673C506.26 727.277 505.132 726.579 504.291 727.063C501.91 728.531 502.555 731.198 505.276 731.198C506.743 731.198 507.37 730.213 506.743 728.673ZM522.478 740.219C521.851 739.575 521.35 735.458 521.35 731.126C521.35 724.27 520.795 723.017 517.573 722.176C510.932 720.421 516.821 717.414 525.771 718.04C534.149 718.542 537.084 721.478 530.175 722.444C526.81 722.946 526.398 723.912 526.398 732.164C526.398 740.631 525.27 743.012 522.478 740.219ZM536.53 729.515C536.53 720.154 537.013 717.701 539.054 717.701C541.076 717.701 541.56 720.154 541.56 729.515C541.56 738.877 541.076 741.329 539.054 741.329C537.013 741.329 536.53 738.877 536.53 729.515ZM117.337 663.57C118.25 659.238 117.892 658.254 114.885 657.502C110.41 656.302 110.338 653.582 114.813 653.582C117.624 653.582 117.964 653.026 116.568 650.431C114.885 647.352 115.654 645.114 118.322 645.114C119.02 645.114 120.129 646.796 120.774 648.819C121.884 652.381 122.027 652.382 124.265 649.303C125.947 647.066 127.057 646.653 128.382 647.978C129.724 649.303 129.724 650.144 128.382 650.914C125.518 652.74 126.216 654.763 130.136 655.819C133.913 656.786 133 660.294 128.954 660.294C127.2 660.294 126.771 661.475 127.541 664.554C128.883 669.799 125.589 670.211 123.907 664.913C122.725 661.136 122.725 661.136 120.971 664.913C118.537 670.498 116.013 669.584 117.337 663.57ZM833.426 666.577C833.426 665.324 834.339 663.444 835.449 662.317C837.06 660.777 836.648 660.294 833.784 660.294C831.6 660.294 830.079 659.237 830.079 657.769C830.079 656.373 831.601 655.264 833.498 655.264C836.362 655.264 836.648 654.691 835.181 651.97C832.871 647.567 836.291 645.401 839.226 649.446C841.195 652.185 841.392 652.114 842.305 648.748C843.773 643.02 847.407 644.273 846.154 650.072C845.169 654.548 845.384 654.905 848.946 654.136C852.455 653.438 852.508 653.51 849.787 655.264C847.407 656.786 847.21 657.699 848.732 659.596C849.931 660.992 850.002 661.977 849.018 661.977C848.105 661.977 846.852 663.713 846.297 665.807C845.169 669.584 845.169 669.585 842.932 665.468C840.622 661.404 840.622 661.404 838.671 665.109C836.505 669.101 833.426 670.013 833.426 666.577ZM157.828 637.776C140.769 606.45 126.073 561.842 120.345 523.66C116.496 498.635 116.567 449.194 120.416 424.294C131.819 350.312 165.311 282.487 214.107 234.388C226.279 222.431 227.819 221.375 227.819 225.152C227.819 228.016 225.026 232.079 219.226 237.736C178.521 277.457 144.814 339.553 131.604 398.768C129.724 407.593 127.541 415.129 126.914 415.63C126.288 416.114 125.661 419.963 125.589 424.151C125.446 428.286 124.748 443.877 124.05 458.699C122.51 489.685 124.48 514.155 130.691 544.138C137.959 579.241 144.886 597.141 171.737 650.216C171.952 650.788 170.698 651.272 168.801 651.415C166.223 651.612 163.699 648.409 157.899 637.776H157.828ZM473.466 633.013C474.093 624.349 475.059 617.082 475.632 616.867C476.545 616.456 476.957 568.411 476.116 562.683C475.704 559.533 467.309 560.571 426.89 569.037C393.684 575.965 386.399 577.003 386.327 574.712C386.274 573.996 388.296 567.283 390.802 559.801C393.326 552.337 394.937 544.979 394.382 543.44C393.756 541.972 382.067 532.754 368.301 522.962C324.803 491.976 313.061 483.313 312.56 481.988C312.363 481.218 317.464 477.727 323.962 474.219C330.46 470.657 335.776 467.309 335.705 466.593C335.705 465.966 330.818 453.311 324.946 438.489C319.003 423.596 314.672 410.94 315.298 410.242C315.925 409.544 327.327 410.243 340.538 411.71C355.431 413.393 365.294 413.876 366.189 412.891C367.102 411.996 368.641 405.069 369.769 397.444C370.951 388.852 372.49 383.607 373.743 383.607C374.871 383.607 386.9 394.991 400.468 408.918C423.954 433.101 430.255 437.863 430.183 431.293C430.183 429.682 426.746 408.632 422.629 384.52C418.423 360.318 415.075 338.498 415.075 335.992C415.075 331.302 415.075 331.302 430.183 338.927C438.507 343.116 446.115 346.535 447.028 346.535C447.94 346.535 455.638 332.841 464.087 316.05C472.697 298.92 480.304 285.852 481.432 286.192C482.488 286.478 489.828 299.421 497.722 314.869C505.634 330.317 512.973 343.886 514.083 344.996C515.622 346.535 519.614 345.21 531.571 339.124C540.163 334.792 547.503 331.642 547.932 332.072C548.845 332.985 544.782 359.906 537.371 401.99C532.61 429.467 532.269 434.229 535.205 434.229C536.386 434.229 548.899 422.683 563.04 408.559C578.828 392.825 589.318 383.535 590.231 384.52C591.072 385.415 592.612 391.859 593.722 398.84C594.85 405.768 596.317 412.068 597.087 412.838C597.857 413.608 609.188 413.035 622.255 411.567C635.34 410.099 646.456 408.918 646.94 408.918C649.034 408.918 647.352 414.431 637.703 438.973C632.19 453.168 627.643 465.34 627.643 466.038C627.643 466.736 632.53 470.174 638.544 473.736C644.631 477.227 649.535 480.788 649.535 481.558C649.535 483.312 639.117 491.152 587.582 527.651C565.761 543.1 565.761 543.1 572.814 561.913C577.987 575.678 577.576 577.916 569.95 576.036C566.871 575.267 547.431 571.347 526.81 567.355C498.635 561.985 488.771 560.571 487.304 562.039C485.692 563.65 487.232 612.321 489.899 644.631C490.096 647.138 488.628 647.781 481.217 648.193L472.267 648.676L473.466 633.013ZM425.977 507.853C423.256 506.6 401.364 498.635 377.52 490.025C334.04 474.434 334.04 474.433 329.064 477.584C324.105 480.734 324.105 480.735 350.813 488.003C365.491 492.048 388.439 498.635 401.721 502.537C426.478 509.876 435.07 511.773 425.977 507.853ZM573.1 498.975C594.294 492.817 614.217 487.161 617.511 486.463C620.715 485.693 626.801 484.011 630.936 482.686C638.401 480.305 638.401 480.304 633.926 477.369C628.628 473.878 633.228 472.608 577.862 492.817C518.558 514.495 518.218 514.924 573.1 498.975ZM425.977 502.394C423.256 501.069 403.118 492.119 381.369 482.471C342.704 465.412 341.719 465.072 339.983 468.634C338.927 470.585 338.515 472.411 339.07 472.679C341.862 474.147 428.017 504.846 429.413 504.846C430.308 504.846 428.787 503.808 425.977 502.394ZM563.667 494.428C579.813 488.557 600.363 481.218 609.313 478.139C624.922 472.822 625.549 472.411 623.723 469.046C622.613 467.023 621.628 465.197 621.485 465C621.414 464.713 601.705 473.306 577.647 484.153C520.867 509.679 520.025 510.306 563.667 494.428ZM420.947 494.285C402.903 484.081 336.761 449.534 336.206 450.035C335.991 450.304 336.546 452.827 337.53 455.548C339.07 460.166 343.116 462.332 383.463 480.161C407.808 490.937 428.429 499.745 429.413 499.816C430.308 499.96 426.549 497.364 420.947 494.285ZM437.737 498.492C436.896 497.651 416.06 484.494 391.446 469.261C366.833 454.01 342.418 438.776 337.101 435.339L327.524 429.199L330.12 436.735C332.626 444.218 332.626 444.217 368.373 462.762C388.01 472.894 411.656 485.407 420.947 490.58C438.006 500.031 440.673 501.285 437.737 498.492ZM531.428 495.681C531.428 495.198 529.96 495.681 528.063 496.665C526.255 497.65 524.715 498.832 524.715 499.333C524.715 499.745 526.255 499.334 528.063 498.349C529.96 497.293 531.428 496.111 531.428 495.681ZM579.473 479.894C616.383 463.461 623.168 459.88 625.334 455.691C626.73 452.97 627.5 450.447 627.088 450.035C626.73 449.605 612.821 456.461 596.174 465.197C564.705 481.916 530.945 500.657 534.149 499.744C535.205 499.386 555.558 490.509 579.473 479.894ZM440.386 496.039C440.386 495.341 405.355 469.475 359.351 435.984C340.18 422.057 330.12 415.774 326.898 415.703C324.32 415.703 322.279 416.043 322.279 416.401C322.279 421.574 329.833 427.516 360.747 446.455C379.972 458.215 405.498 474.219 417.599 482.059C441.568 497.65 440.386 496.881 440.386 496.039ZM596.389 461.492C624.85 446.67 628.824 444.021 631.635 438.561C633.299 435.142 634.355 431.992 633.872 431.509C632.816 430.452 533.182 492.674 533.182 494.357C533.182 494.715 540.163 491.278 548.773 486.677C557.294 482.059 578.757 470.728 596.389 461.492ZM440.386 490.866C440.386 490.437 425.35 477.297 407.038 461.706C353.122 415.773 357.668 419.049 347.394 418.011L338.3 417.027L347.394 423.524C352.424 427.086 375.211 443.806 398.016 460.65C442.266 493.319 440.386 491.976 440.386 490.866ZM573.243 442.696C591.484 427.302 599.468 419.676 597.57 419.264C596.031 418.906 593.937 418.012 592.952 417.242C591.842 416.329 577.092 429.969 553.32 453.938C528.277 479.124 520.58 487.501 530.73 478.694C539.125 471.426 558.279 455.209 573.243 442.696ZM587.152 455.835C637.989 424.152 638.688 423.667 639.941 418.906C640.639 416.257 639.887 415.703 636.038 415.703C632.53 415.703 619.462 424.365 585.828 448.979C560.803 467.309 537.711 484.44 534.578 487.089L528.904 491.851L534.847 488.342C538.069 486.391 561.626 471.785 587.152 455.835ZM591.359 441.085C626.73 415.416 625.477 416.669 614.504 418.083C605.894 419.121 604.14 420.32 572.886 446.956C526.47 486.391 519.399 493.319 543.242 475.973C553.947 468.205 575.552 452.47 591.359 441.085ZM441.783 479.392C437.737 474.505 423.041 457.375 409.132 441.211C395.224 425.136 381.852 409.616 379.417 406.752L374.942 401.507L373.743 407.092C372.562 412.552 373.188 413.321 410.242 450.375C430.953 471.068 448.209 488.074 448.495 488.146C448.853 488.199 445.775 484.225 441.783 479.392ZM433.888 478.497C429.055 472.536 385.361 429.055 376.195 421.143C372.902 418.279 370.807 417.725 367.174 418.709C362.699 419.891 363.54 420.875 390.874 443.805C406.465 456.944 423.47 471.498 428.572 476.188C439.688 486.391 440.53 486.731 433.888 478.497ZM449.892 473.449C434.157 445.631 429.753 439.259 426.478 439.259C423.256 439.259 423.256 439.546 427.247 444.791C429.557 447.798 436.466 457.643 442.767 466.665C448.979 475.758 454.367 483.169 454.725 483.169C455.065 483.169 452.899 478.765 449.892 473.449ZM523.803 461.492C531.84 450.035 538.069 440.243 537.586 439.742C535.205 437.379 531.07 441.98 523.391 455.62C518.772 463.801 513.241 473.52 511.075 477.226C505.132 487.572 507.871 484.154 523.803 461.492ZM549.185 441.282C563.094 425.207 577.36 408.703 580.94 404.586C584.503 400.522 587.152 396.334 586.812 395.349C585.899 392.628 554.645 424.223 544.155 438.418C530.73 456.605 511.773 484.923 518.217 477.226C521.35 473.52 535.277 457.374 549.185 441.282ZM589.175 413.035C589.82 411.996 589.819 409.061 589.121 406.465C587.85 401.847 587.51 402.133 571.006 420.947C517.573 481.701 514.297 486.946 552.622 449.463C572.044 430.524 588.549 414.091 589.175 413.035ZM445.219 475.973C420.535 440.513 407.879 424.294 393.398 409.956C383.32 399.967 376.195 394.096 375.497 395.206C374.871 396.262 378.093 401.077 382.568 405.982C392.986 417.17 420.947 449.409 436.054 467.506C448.155 482.059 451.717 485.335 445.219 475.973ZM458.358 480.161C457.929 479.463 456.049 475.489 454.17 471.354C439.617 439.187 435.696 431.991 434.587 435.41C433.817 437.934 436.896 444.79 445.631 460.166C452.344 471.909 458.072 481.433 458.43 481.433C458.77 481.433 458.77 480.859 458.358 480.161ZM527.436 442.195C529.119 438.973 529.405 436.609 528.278 434.569C526.81 431.991 526.469 432.135 525.002 435.912C524.089 438.221 519.542 448.424 514.781 458.484C510.037 468.633 506.188 477.297 506.188 477.924C506.188 478.98 522.961 450.733 527.436 442.195ZM456.962 464.498C454.993 459.468 447.869 439.743 441.085 420.733C434.229 401.705 428.644 386.685 428.644 387.384C428.572 388.082 429.754 395.564 431.15 403.888C433.262 416.042 436.395 424.849 446.616 446.956C459.343 474.577 463.746 482.059 456.962 464.498ZM516.75 446.043C525.7 426.263 529.96 414.574 531.428 405.839C532.538 399.055 533.111 393.112 532.61 392.7C532.198 392.199 530.103 397.032 528.009 403.315C525.968 409.616 519.399 428 513.528 444.093C498.348 485.335 498.778 485.621 516.75 446.043ZM471.855 465.824C471.354 464.714 471.014 465.626 471.014 467.936C471.014 470.298 471.354 471.212 471.855 470.102C472.267 468.903 472.267 467.023 471.855 465.824ZM523.731 405.553C540.235 358.564 544.495 340.664 538.767 341.72C536.601 342.132 534.579 345.765 531.983 354.089C528.063 366.476 501.158 462.959 499.959 468.777C498.635 475.275 508.14 450.035 523.731 405.553ZM455.423 408.918C448.979 377.037 443.465 350.813 443.251 350.741C443.036 350.67 440.673 349.614 438.006 348.433C433.191 346.338 433.191 346.337 434.229 351.922C434.855 354.93 441.783 380.241 449.623 408.077C457.445 435.912 464.301 460.794 464.928 463.389C465.554 465.967 466.324 467.864 466.611 467.506C466.951 467.238 461.921 440.87 455.423 408.918ZM473.252 426.317C471.712 404.228 469.546 372.061 468.49 354.93C466.468 323.748 466.468 323.747 462.476 331.301C459.2 337.585 458.699 340.52 459.468 348.145C461.366 367.03 474.934 467.649 475.489 467.094C475.829 466.808 474.791 448.424 473.252 426.317ZM518.629 389.478C524.787 367.246 529.817 348.504 529.746 347.878C529.746 345.211 519.471 350.956 518.701 354.017C515.837 366.619 496.039 465.483 496.111 466.951C496.182 469.26 504.219 441.783 518.629 389.478ZM449.551 419.747C429.342 346.892 428.5 344.101 426.335 342.758C417.241 336.958 421.305 355.557 441.228 411.424C461.634 468.634 460.882 466.54 461.58 465.824C461.992 465.484 456.533 444.79 449.551 419.747ZM500.245 375.283C504.864 340.807 504.864 340.807 500.944 333.11L497.095 325.43L495.842 336.547C495.197 342.705 493.801 362.771 492.835 381.226C490.311 425.977 489.201 437.577 487.16 437.577C486.194 437.577 485.979 432.619 486.605 424.51C488.915 397.033 492.62 335.078 492.548 325.43C492.548 317.518 491.367 313.186 487.59 305.99L482.614 296.682L482.757 370.11C482.9 410.458 483.527 445.417 484.225 447.727C485.496 451.647 485.549 451.575 485.693 446.33C485.836 442.893 486.605 441.211 487.661 441.855C488.771 442.553 489.13 447.511 488.557 455.065C487.733 466.88 491.08 443.806 500.245 375.283ZM464.928 416.401C461.706 392.343 458.573 367.729 457.929 361.643C456.461 347.305 455.638 345.979 450.948 349.828C447.171 352.835 447.171 352.836 454.796 389.747C458.985 410.028 464.015 434.927 466.056 444.987C468.078 455.137 469.958 462.619 470.244 461.778C470.584 460.865 468.15 440.459 464.928 416.401ZM508.497 388.637C512.758 368.141 515.335 352.137 514.44 351.779C513.528 351.511 511.773 350.186 510.449 348.844C507.227 345.639 507.227 345.712 501.982 386.954C499.548 405.982 496.468 429.325 495.144 438.919C491.492 464.159 492.334 466.664 496.952 444.36C499.118 433.674 504.291 408.631 508.497 388.637ZM478.783 338.712L478.282 300.388L473.664 308.926C468.633 318.145 468.418 310.949 477.87 446.401C478.568 456.461 479.194 377.807 478.783 338.712ZM533.182 563.309C533.182 562.88 527.096 559.46 519.685 555.683C512.203 551.978 506.188 549.257 506.188 549.598C506.188 550.994 522.961 561.072 527.58 562.468C530.175 563.238 532.484 563.936 532.753 564.007C532.968 564.079 533.111 563.792 533.111 563.309H533.182ZM446.741 557.079C455.835 551.494 451.646 551.692 440.941 557.367C433.96 561.072 432.546 562.324 436.126 561.555C438.919 561 443.68 558.977 446.741 557.079ZM455.763 556.31C457.875 553.733 457.732 553.661 454.295 555.469C450.321 557.563 449.408 559.103 451.932 559.103C452.755 559.103 454.51 557.85 455.763 556.31ZM512.901 558.279C512.901 557.921 511.218 556.668 509.124 555.683C505.49 553.929 505.419 553.929 508.569 556.453C511.988 559.246 512.901 559.604 512.901 558.279ZM423.47 548.201C451.986 539.538 451.932 538.911 423.256 544.979C403.118 549.258 398.159 551.065 398.159 554.216C398.159 556.095 394.937 556.865 423.47 548.201ZM563.738 552.82C562.61 550.797 555.755 548.488 541.291 545.266C529.889 542.742 519.811 540.862 518.987 541.077C517.645 541.488 560.158 555.128 564.007 555.54C564.777 555.683 564.633 554.431 563.738 552.82ZM438.507 538.911C439.831 538.84 440.458 538.41 439.975 537.927C439.133 537.086 420.392 538.965 405.355 541.489C402.348 541.972 399.824 543.387 399.824 544.64C399.824 546.376 403.816 545.964 418.011 542.885C428.017 540.719 437.236 538.911 438.507 538.911ZM560.731 542.33C559.12 540.934 524.716 536.601 523.659 537.64C523.248 538.069 527.723 539.323 533.522 540.504C539.322 541.632 547.932 543.512 552.55 544.64C560.373 546.591 564.365 545.48 560.731 542.33ZM431.92 534.436C440.1 533.165 442.266 532.538 436.967 533.021C431.848 533.379 420.177 533.72 411.012 533.792C396.477 533.792 394.651 534.078 396.477 536.315C398.786 539.036 403.888 538.768 431.92 534.436ZM566.871 536.315C568.697 534.149 567.569 533.792 558.207 533.792C552.336 533.792 541.005 533.236 533.182 532.682C517.931 531.554 514.924 533.022 529.047 534.633C533.594 535.188 542.258 536.244 548.344 537.014C564.437 539.036 564.562 539.036 566.871 536.315ZM483.455 643.36C484.01 642.393 483.956 630.777 483.186 617.638C482.417 604.427 481.647 595.19 481.361 597.088C480.179 605.465 478.013 642.733 478.64 643.861C479.678 645.669 482.13 645.4 483.455 643.36ZM409.974 566.943C415.075 565.69 426.12 561.144 434.443 556.812C452.756 547.217 450.035 547.789 419.193 559.872C395.421 569.18 393.04 570.989 409.974 566.943ZM562.682 567.426C555.612 564.275 515.837 548.971 514.852 549.043C511.845 549.329 545.265 564.992 552.55 566.8C562.682 569.324 567.515 569.663 562.682 567.426ZM423.882 554.771C437.594 549.454 448.639 544.854 448.352 544.64C447.314 543.583 397.247 559.604 396.119 561.34C394.168 564.348 394.579 566.316 396.889 565.332C398.088 564.92 410.242 560.159 423.882 554.771ZM567.444 562.683C566.799 560.231 561.143 557.921 543.171 552.533C530.3 548.685 519.184 545.624 518.415 545.678C517.09 545.749 565.206 565.619 567.157 565.762C567.784 565.816 567.855 564.42 567.372 562.683H567.444ZM535.277 519.185C534.077 518.702 532.198 518.702 530.999 519.185C529.889 519.597 530.801 520.026 533.182 520.026C535.473 520.026 536.386 519.597 535.277 519.185ZM572.814 515.05C594.921 512.186 600.935 510.789 606.252 507.37C609.814 505.061 612.463 502.895 612.123 502.537C611.622 501.982 555.755 513.653 540.719 517.358C532.27 519.471 547.503 518.344 572.814 515.05ZM582.051 504.99C617.995 497.292 622.541 495.897 630.579 490.383C635.465 487.018 639.457 484.082 639.457 483.867C639.457 483.026 539.608 511.702 538.355 512.883C536.601 514.494 544.925 512.955 582.051 504.99ZM423.327 530.158C440.673 530.015 440.87 529.961 430.255 528.618C424.24 527.92 411.012 527.007 401.023 526.667C382.836 526.112 382.765 526.112 386.614 529.244C389.692 531.768 392.145 532.198 397.944 531.428C402.062 530.856 413.464 530.301 423.327 530.158ZM575.75 529.746C577.361 528.475 578.703 527.222 578.703 526.882C578.703 525.826 545.48 526.882 533.182 528.279C522.961 529.46 523.874 529.603 544.925 530.444C557.509 530.999 568.84 531.554 570.236 531.697C571.632 531.84 574.157 530.999 575.75 529.746ZM404.943 520.241C385.002 517.645 368.427 515.765 368.158 515.962C367.943 516.249 369.841 517.86 372.419 519.596C376.196 522.12 381.584 522.962 399.824 523.731C440.87 525.539 441.639 525.056 404.943 520.241ZM531.07 524.143C529.477 523.803 526.398 523.732 524.286 524.143C522.192 524.573 523.534 524.912 527.239 524.912C530.945 524.912 532.681 524.573 531.07 524.143ZM589.461 519.739C592.057 518.003 593.936 516.392 593.596 516.034C593.095 515.551 548.773 520.867 539.895 522.532C537.586 523.033 546.733 523.248 560.23 523.105C580.869 522.819 585.47 522.335 589.461 519.739ZM424.724 517.789C419.336 516.59 414.448 515.192 413.894 514.566C411.656 512.4 414.52 512.06 421.645 513.654C425.708 514.566 429.682 515.122 430.523 514.853C431.991 514.352 329.69 484.852 326.629 484.852C325.788 484.852 328.723 487.572 333.055 490.866C340.323 496.451 343.617 497.435 374.244 503.736C392.485 507.513 407.808 510.861 408.148 511.219C411.084 513.869 403.333 513.098 381.852 508.551C368.087 505.687 354.947 502.895 352.638 502.394C348.503 501.57 348.503 501.624 353.48 505.831C359.834 511.219 359.476 511.148 394.794 515.891C427.659 520.366 439.903 521.136 424.724 517.789ZM425.905 871.59C426.55 866.292 427.444 860.618 427.874 859.078C428.429 857.056 427.247 856 423.47 855.158C416.06 853.565 418.154 849.985 426.191 850.558C438.775 851.399 443.734 852.723 443.734 855.373C443.734 857.198 442.338 857.754 439.062 857.396C434.515 856.841 434.443 857.056 433.047 869.085C431.794 879.772 431.15 881.311 428.214 881.311C425.01 881.311 424.867 880.612 425.905 871.59ZM537.443 877.534C536.243 872.235 533.182 853.977 533.182 852.509C533.182 851.882 535.133 850.97 537.514 850.487C541.363 849.789 542.329 850.683 546.25 858.739C548.702 863.697 551.208 867.832 551.906 867.832C552.551 867.832 553.589 863.357 554.216 857.825C555.272 849.018 555.898 847.747 559.675 846.781C561.984 846.208 564.078 845.94 564.293 846.208C564.92 846.978 568.554 870.624 568.554 873.631C568.554 875.099 567.158 876.209 565.403 876.209C562.897 876.209 561.984 874.472 561 867.402C559.604 857.682 559.263 857.969 557.652 869.926C556.256 880.488 552.264 880.613 546.662 870.409C544.424 866.292 542.401 863.07 542.186 863.285C541.99 863.482 542.544 867.062 543.457 871.108C544.71 876.782 544.567 878.805 542.902 879.915C539.465 882.081 538.355 881.597 537.443 877.534ZM406.125 876.639C405.695 876.013 404.944 873.417 404.299 870.964C402.706 864.055 398.714 863.625 397.461 870.266C396.62 874.813 395.779 875.726 393.112 875.028C390.749 874.401 389.979 873.059 390.534 870.553C393.326 856.644 395.152 848.105 395.635 846.422C396.119 845.026 398.231 844.955 403.53 846.155C416.257 849.019 420.249 855.927 413.178 862.926C409.831 866.292 409.759 868.243 412.48 875.028C413.393 877.265 412.909 877.963 410.242 877.963C408.363 877.963 406.465 877.408 406.125 876.71V876.639ZM409.687 857.27C410.457 853.279 402.974 850.272 401.023 853.762C400.182 855.105 400.039 857.342 400.594 858.739C401.936 862.158 408.989 861.047 409.687 857.27ZM572.76 859.777C571.221 852.581 569.538 846.155 569.109 845.456C568.697 844.74 570.165 844.185 572.331 844.185C575.893 844.185 576.591 845.385 578.488 854.746C579.67 860.546 580.994 866.991 581.496 869.085C582.265 872.092 581.71 872.862 579.043 872.862C576.179 872.862 575.194 870.821 572.76 859.777ZM371.165 869.997C365.294 867.832 362.77 863.84 362.77 856.698C362.77 847.049 368.373 840.265 376.267 840.265C382.353 840.265 389.764 846.923 389.764 852.437C389.764 858.881 385.844 866.292 381.226 868.727C376.124 871.322 375.211 871.465 371.165 869.997ZM379.615 861.871C380.814 860.475 381.852 856.5 381.924 852.992C382.139 847.55 381.583 846.638 378.021 846.155C375.497 845.797 373.045 846.709 371.72 848.589C369.411 851.739 368.713 861.387 370.61 863.285C372.633 865.308 377.449 864.538 379.615 861.871ZM585.684 859.634C583.805 853.422 582.051 846.924 581.764 845.098C580.798 839.37 586.812 840.14 594.08 846.71C597.857 850.129 601.275 852.509 601.777 852.097C602.188 851.596 601.634 848.176 600.434 844.328C599.325 840.551 598.895 836.918 599.468 836.363C602.188 833.624 605.411 838.243 608.758 849.788C613.09 864.825 613.036 863.839 609.957 865.021C608.489 865.594 604.211 863.213 599.611 859.222C595.332 855.516 591.556 852.724 591.215 853.064C590.929 853.35 591.699 857.127 592.952 861.387C595.136 868.655 595.136 869.228 592.182 869.997C589.533 870.696 588.477 868.942 585.684 859.634ZM617.511 846.71C617.511 825.247 619.534 824.262 633.031 839.227C638.401 845.17 642.822 850.558 642.822 851.113C642.822 853.762 637.148 854.192 635.34 851.668C633.729 849.43 632.673 849.358 628.825 851.113C626.318 852.222 624.224 854.531 624.224 856.214C624.224 857.896 622.738 860.063 620.859 861.047C617.637 862.784 617.511 862.373 617.511 846.71ZM629.325 844.472C629.325 843.702 627.786 841.68 625.96 839.997C622.613 836.99 622.541 837.061 622.541 841.393C622.541 844.741 623.383 845.868 625.96 845.868C627.786 845.868 629.325 845.242 629.325 844.472ZM334.523 857.968C331.033 855.802 341.236 829.722 345.425 830.205C356.344 831.387 364.524 839.441 361.159 845.724C358.367 850.969 353.605 852.921 348.432 850.97C342.417 848.66 342.56 848.589 340.538 854.335C338.712 859.633 337.871 860.134 334.523 857.968ZM354.303 842.574C354.303 840.766 352.835 838.457 351.027 837.472C348.289 836.004 347.322 836.363 345.783 839.299C344.243 842.163 344.315 843.272 346.123 844.4C350.258 846.978 354.303 846.083 354.303 842.574ZM377.735 808.527C374.799 805.448 370.038 798.664 367.174 793.562C360.891 782.518 356.469 781.319 342.704 786.779C326.056 793.276 317.321 790.269 309.767 775.322C307.529 770.972 304.111 765.942 302.141 764.134C298.579 760.984 298.167 760.983 287.749 763.776C268.309 768.949 263.763 766.998 256.28 750.423C250.194 736.926 247.67 735.529 234.245 737.982C228.589 739.02 222.216 739.449 220.05 738.876C217.956 738.393 209.292 730.571 200.753 721.478C146.855 664.214 116.854 600.435 104.61 516.948C101.889 498.063 102.372 446.67 105.523 424.92C111.323 385.343 122.027 350.312 139.158 315.156C151.115 290.668 177.339 249.98 179.648 252.289C181.671 254.312 176.767 264.318 165.794 281.019C116.568 355.699 97.8259 451.575 114.957 540.504C117.337 552.533 117.821 558.333 116.568 558.763C114.061 559.604 114.258 562.468 116.854 562.468C118.107 562.468 122.439 572.814 127.129 586.723C136.294 613.86 151.384 645.329 166.152 668.045C177.536 685.605 184.177 693.929 204.888 716.573L220.05 733.22L233.905 732.039C251.376 730.625 253.273 731.609 260.755 746.503C267.325 759.588 270.744 761.897 280.052 759.516C290.685 756.777 301.443 756.08 304.88 757.906C306.688 758.89 310.68 764.26 313.687 769.935C321.939 785.454 324.588 786.564 339.84 781.193C359.763 774.123 364.668 775.52 372.275 790.771C379.973 806.219 387.097 810.479 396.62 805.377C399.341 803.909 399.896 804.196 399.896 806.917C399.896 811.052 398.786 811.75 390.104 813.146C383.75 814.185 382.693 813.772 377.806 808.599L377.735 808.527ZM427.802 801.188C420.606 792.381 417.241 791.809 403.673 796.982C398.786 798.808 393.326 800.347 391.644 800.347C386.614 800.347 380.187 794.189 374.441 783.843C365.849 768.538 361.786 767.07 345.854 773.353C333.27 778.33 326.898 777.829 321.51 771.474C315.638 764.547 311.861 757.064 312.488 753.645C313.329 749.026 303.341 747.416 292.779 750.495C275.165 755.596 269.849 753.644 263.763 739.861C256.907 724.27 256.549 724.055 238.72 725.38C223.344 726.508 223.343 726.508 219.226 721.191C216.989 718.256 210.402 710.486 204.53 703.917C183.479 680.288 169.785 660.562 171.396 656.373C173.061 652.041 174.189 652.883 181.045 663.641C192.573 681.756 209.148 700.767 213.069 700.355C215.933 700.015 217.043 701.411 218.868 707.766C222.431 720.207 225.438 721.961 239.418 719.58C256.692 716.787 260.755 719.025 268.309 735.744C273.823 747.899 277.116 749.509 288.304 745.589C304.594 739.789 311.933 742.726 319.773 758.192C322.082 762.792 325.86 767.768 328.222 769.307C332.214 771.957 333.127 771.814 344.655 767.625C364.381 760.483 368.498 761.95 378.917 780.352C387.169 794.887 389.406 795.729 405.212 790.269C411.71 787.978 417.313 787.065 420.392 787.763C425.977 788.944 437.308 802.585 435.84 806.362C434.587 809.655 434.784 809.78 427.802 801.188ZM526.469 802.03C526.469 797.34 537.711 784.398 543.457 782.59C549.257 780.692 558.69 783.288 559.675 786.922C560.588 790.341 563.524 791.54 563.524 788.461C563.524 787.28 564.508 787.28 566.8 788.461C573.87 792.238 578.488 790.627 584.217 782.231C596.872 763.776 600.649 762.165 618.478 768.323C633.872 773.64 635.824 772.87 643.646 758.192C651.898 742.726 655.962 740.219 668.259 742.869C686.16 746.717 689.042 745.249 695.11 729.031C700.015 715.803 703.236 713.995 720.296 714.622C736.03 715.177 735.332 715.678 740.774 699.514C744.211 689.311 746.019 687.145 748.256 690.707C750.279 693.929 742.313 714.067 737.569 717.844C733.578 720.976 731.68 721.262 721.763 720.278C707.21 718.882 704.561 720.35 700.086 732.737C694 749.295 687.842 753.359 674.077 749.94C657.787 745.805 654.35 747.487 647.852 762.864C643.717 772.512 637.703 778.383 632.046 778.383C630.095 778.383 623.24 776.575 616.867 774.338C602.332 769.236 600.094 770.006 590.929 783.002C581.138 796.928 577.02 798.467 563.81 792.864C548.344 786.366 544.782 786.922 534.847 797.411C527.168 805.52 526.469 805.932 526.469 802.03ZM322.566 852.294C321.51 851.184 320.614 847.747 320.614 844.686C320.614 837.902 316.909 837.257 314.099 843.487C312.774 846.279 311.02 847.622 309.14 847.193C305.65 846.351 305.775 845.51 312.434 829.721L317.607 817.334L325.913 821.542C330.46 823.833 334.666 826.84 335.15 828.254C336.761 832.443 334.237 838.869 330.46 840.068C327.453 841.035 327.041 842.091 327.811 847.748C328.723 854.532 326.683 856.357 322.566 852.294ZM328.509 832.997C329.135 831.261 328.365 829.292 326.414 827.896C322.154 824.817 321.098 825.031 319.97 829.363C318.431 835.163 326.343 838.528 328.509 832.997ZM641.354 836.631C635.197 821.881 635.34 822.938 638.688 821.595C640.639 820.843 642.536 823.278 646.313 831.53C651.271 842.503 651.272 842.503 657.358 839.997C664.84 836.847 664.697 836.846 664.697 839.925C664.697 842.503 653.312 849.287 649.034 849.287C647.638 849.287 644.362 843.845 641.354 836.631ZM295.858 841.464C292.779 840.211 305.435 813.844 309.14 813.844C310.823 813.844 312.148 814.542 312.148 815.312C312.148 817.836 300.047 842.503 298.865 842.378C298.293 842.306 296.896 841.876 295.858 841.464ZM285.995 836.148C285.082 835.45 284.313 833.427 284.313 831.601C284.313 827.197 277.26 823.564 273.34 826.017C271.514 827.198 269.491 827.269 267.683 826.213C265.23 824.889 266.555 823.081 276.561 814.614C282.988 809.082 289.289 804.536 290.542 804.536C292.224 804.536 292.636 807.686 292.35 817.191C291.723 835.861 290.542 839.495 285.995 836.148ZM286.836 817.765C286.836 813.415 286.765 813.361 283.4 816.422C280.822 818.731 280.536 819.787 282.147 820.843C285.78 823.135 286.836 822.437 286.836 817.765ZM680.091 821.398C674.631 811.822 673.45 810.908 670.371 813.915C669.1 815.24 668.259 815.026 667.633 813.289C667.078 811.893 668.689 808.885 671.338 806.362C676.028 801.886 676.028 801.887 683.152 813.844C689.668 824.817 690.992 830.688 686.875 830.688C686.034 830.688 682.955 826.5 680.091 821.398ZM424.938 816.296C419.693 809.011 417.599 807.757 408.434 806.701C406.197 806.433 404.031 805.377 403.673 804.267C402.706 801.26 412.909 799.721 418.566 802.102C423.399 804.053 435.285 818.32 435.285 822.097C435.285 826.357 430.111 823.492 424.938 816.296ZM488.145 822.168C486.122 821.398 481.021 821.112 476.742 821.542C468.15 822.365 466.951 820.699 473.252 816.493C476.742 814.255 477.44 812.376 477.44 806.146C477.44 796.641 475.489 795.8 464.158 800.275C459.343 802.172 454.653 803.695 453.812 803.695C450.178 803.695 452.487 798.808 458.072 794.548C461.294 792.095 463.944 788.944 463.944 787.62C463.944 786.152 465.555 785.167 467.864 785.167C473.592 785.167 475.775 781.964 475.775 773.712C475.775 765.459 478.138 759.856 481.575 759.856C484.583 759.856 485.907 763.633 485.907 772.369C485.907 780.066 489.541 785.167 495.072 785.167C496.683 785.167 498.42 786.564 498.849 788.318C499.332 790.072 501.91 793.15 504.577 795.102C507.298 797.124 509.536 799.864 509.536 801.26C509.536 804.339 510.234 804.464 497.31 799.577L486.319 795.46L485.209 804.124C484.081 812.09 484.368 813.003 488.557 816.368C493.873 820.557 493.676 824.262 488.216 822.168H488.145ZM527.508 818.104C526.953 816.851 530.873 811.248 536.244 805.52C547.431 793.634 550.027 793.079 564.705 799.577C577.647 805.305 581.495 804.608 588.351 795.246C602.117 776.432 605.482 775.179 622.953 781.748C639.457 788.031 641.14 787.208 650.86 768.108C657.358 755.237 661.206 753.501 677.353 756.222C693.23 758.943 696.237 757.476 700.784 744.766C702.538 739.933 705.886 733.632 708.338 730.84C712.598 725.666 712.742 725.667 726.024 726.58C738.465 727.421 739.664 727.205 743.441 723.5C746.162 720.707 747.415 717.557 747.415 713.082C747.487 707.623 749.169 704.758 759.301 693.231C782.178 666.935 805.735 627 818.175 593.025C828.737 564.276 838.528 519.882 838.528 500.442C838.528 496.039 839.083 490.168 839.853 487.375C841.321 481.773 838.313 436.806 835.252 418.208C830.204 387.938 819.518 354.518 805.806 326.128C801.546 317.25 798.037 309.141 798.037 308.157C798.037 307.101 797.411 306.061 796.713 305.775C796.086 305.435 791.325 298.723 786.223 290.882C773.639 271.514 753.233 246.203 740.774 234.657C731.627 226.28 727.42 218.296 732.038 218.296C732.808 218.296 741.06 226.136 750.279 235.713C766.926 252.987 784.487 275.291 792.793 289.701C795.245 293.818 800.149 302.284 803.783 308.568C819.016 335.006 834.554 379.204 841.321 415.703C845.599 438.49 845.599 509.053 841.321 532.127C832.317 581.424 812.519 630.15 785.883 669.101C778.884 679.305 774.838 683.779 773.156 683.153C771.688 682.598 771.061 683.082 771.473 684.352C772.386 686.93 767.839 693.642 757.135 705.456C750.995 712.241 749.097 715.606 749.169 719.795C749.169 725.255 749.169 725.255 760.572 713.441C810.138 661.905 843.916 587.493 852.168 511.559C854.692 488.843 853.207 434.785 849.501 414.861C835.449 338.355 804.338 278.37 751.192 225.295C735.744 209.919 730.499 203.546 730.857 200.968C731.268 198.033 734.759 200.682 751.192 216.488C840.551 302.428 877.336 422.415 853.009 547.862C841.052 609.457 811.051 667.49 764.617 718.954C750.565 734.473 747.415 736.854 747.415 731.967C747.415 729.801 746.788 729.73 743.71 731.341C741.329 732.594 735.958 732.862 727.849 732.164C713.225 730.839 711.202 732.236 706.1 747.201C700.856 762.72 694.913 765.388 674.632 761.181C662.889 758.818 661.493 759.659 654.279 774.051C644.917 792.793 640.299 794.745 621.628 787.692C615.202 785.311 608.274 783.7 606.323 784.201C604.283 784.756 600.309 788.801 597.427 793.222C586.741 809.924 579.956 812.448 564.365 805.592C551.709 799.99 547.932 800.705 539.823 810.354C532.126 819.501 528.833 821.541 527.508 818.104ZM806.433 706.782C806.468 705.403 807.363 703.828 808.401 703.148C809.726 702.378 809.1 701.483 806.647 700.57C802.172 698.959 803.425 695.737 808.456 695.737C811.194 695.737 811.534 695.325 809.995 693.427C808.527 691.691 808.67 690.635 810.496 689.167C812.447 687.556 813.145 687.843 814.058 690.779C815.24 694.341 815.24 694.341 817.692 690.779C820.771 686.447 824.064 687.843 821.612 692.461C820.144 695.254 820.413 695.737 823.295 695.737C827.269 695.737 827.895 698.744 824.19 700.212C822.794 700.713 822.095 701.823 822.596 702.665C823.08 703.506 822.722 704.204 821.755 704.204C820.771 704.204 819.93 705.314 819.93 706.728C819.93 710.917 814.899 709.663 814.828 705.456C814.685 701.679 814.684 701.679 812.107 705.456C809.046 709.752 806.468 710.433 806.433 706.853V706.782ZM77.6163 428.215C77.6163 424.366 77.2582 424.169 73.9824 425.905C70.7067 427.731 70.4919 427.516 71.6733 423.883C72.3714 421.645 72.944 417.797 72.8724 415.201C72.6576 410.243 74.1255 409.402 77.2759 412.624C79.2987 414.575 79.5137 414.36 79.9254 410.314C80.0686 409.258 81.1961 408.005 82.5208 407.594C84.2571 406.949 84.6151 408.005 83.9886 411.371C83.2189 415.488 83.5589 415.845 87.139 414.932C90.0031 414.163 91.1132 414.574 91.1132 416.472C91.1132 417.868 90.0031 419.049 88.6068 419.049C85.528 419.049 85.4566 419.819 88.1059 424.026C90.9163 428.501 88.6068 430.237 84.9014 426.532C81.9658 423.596 81.8229 423.596 81.3217 427.999C80.6236 433.727 77.6342 433.943 77.6163 428.287V428.215ZM463.944 872.021C463.944 859.634 463.872 859.365 459.755 859.365C456.891 859.365 455.566 858.452 455.566 856.429C455.566 853.833 457.034 853.565 467.38 854.048C476.187 854.46 479.123 855.158 479.123 856.984C479.123 858.38 477.44 859.365 474.934 859.365C470.799 859.365 470.728 859.705 470.728 872.021C470.728 883.549 470.459 884.676 467.38 884.676C464.301 884.676 463.944 883.549 463.944 872.021ZM484.225 873.273C484.153 867.062 483.741 860.206 483.186 858.112C482.202 854.46 482.542 854.335 493.318 854.335C502.125 854.335 504.434 854.818 504.434 856.841C504.434 858.738 502.483 859.365 496.88 859.365C490.382 859.365 489.255 859.848 489.255 862.712C489.255 865.594 490.383 866.15 496.039 866.15C500.872 866.15 502.752 866.847 502.752 868.655C502.752 870.409 501.015 871.179 496.88 871.179C492.065 871.179 490.937 871.806 490.937 874.545C490.937 877.409 492.065 877.963 497.722 877.963C503.324 877.963 504.434 878.518 504.434 881.311C504.434 884.318 503.324 884.676 494.374 884.676H484.225V873.273ZM509.393 881.74C506.457 850.969 506.045 852.652 517.376 852.652C526.255 852.652 529.746 855.23 529.746 861.602C529.746 864.681 528.904 867.957 527.866 869.013C526.47 870.409 526.953 872.307 529.674 876.138C533.379 881.311 533.379 881.311 528.976 881.311C525.969 881.311 524.017 879.986 522.693 877.122C519.882 870.821 514.995 871.465 515.908 877.963C516.535 882.224 516.106 882.993 513.098 882.993C511.147 882.993 509.464 882.438 509.393 881.74ZM521.565 866.15C525.127 866.15 522.12 858.523 518.343 857.968C515.139 857.539 514.584 858.165 514.584 862.783C514.584 866.99 515.139 867.957 517.233 867.115C518.701 866.56 520.652 866.15 521.565 866.15ZM548.344 737.982C539.125 728.745 550.385 712.241 560.731 719.795C562.27 720.976 564.007 724.682 564.562 728.047C566.316 738.877 555.755 745.392 548.344 737.982ZM559.46 732.039C560.857 726.293 559.263 722.731 555.057 722.731C550.94 722.731 549.257 726.293 550.725 732.039C551.351 734.76 552.962 736.228 555.057 736.228C557.223 736.228 558.762 734.76 559.46 732.039ZM568.554 729.515C568.554 715.32 571.078 714.066 577.647 724.896L581.907 732.039L581.979 724.896C582.051 719.651 582.748 717.701 584.574 717.701C586.597 717.701 587.081 720.154 587.081 729.515C587.081 743.567 585.058 744.623 578.274 734.134L573.655 726.991V734.134C573.655 739.379 572.957 741.329 571.077 741.329C569.108 741.329 568.554 738.877 568.554 729.515ZM143.776 708.195C142.72 706.226 142.38 704.133 143.006 703.506C143.633 702.88 142.434 701.967 140.411 701.412C135.721 700.212 135.524 695.737 140.071 695.737C143.006 695.737 143.15 695.325 141.395 692.461C138.603 687.986 141.395 685.677 144.474 689.865C146.855 693.016 147.052 693.087 148.663 690.295C150.829 686.446 153.496 687.986 152.368 692.389C151.67 694.967 152.297 695.808 155.035 695.808C157.058 695.808 158.598 696.865 158.598 698.333C158.598 699.801 157.058 700.838 154.964 700.838C151.527 700.838 151.527 701.053 154.123 703.917C157.756 707.98 155.591 710.147 151.599 706.513C148.735 703.917 148.448 703.988 147.052 707.694C145.584 711.686 145.584 711.686 143.704 708.195H143.776Z" fill="#DBA651"/>
</svg>
