<svg width="958" height="959" viewBox="0 0 958 959" fill="none" xmlns="http://www.w3.org/2000/svg">
<path fill-rule="evenodd" clip-rule="evenodd" d="M435.192 957.209C310.212 942.16 214.876 895.682 131.981 809.443C62.547 737.26 18.6195 648.357 3.99597 550.159C-1.33199 514.195 -1.33199 443.883 3.99597 409.251C46.0528 136.023 305.451 -45.0988 575.901 9.82452C735.853 42.2457 873.247 162.04 929.361 318.024C952.515 382.215 962.15 464.486 954.498 532.446C936.02 697.613 832.947 841.524 682.29 912.601C639.327 932.751 605.772 943.492 557.849 952.249C534.921 956.33 455.002 959.646 435.192 957.209ZM544.557 931.306C656.7 913.933 756.769 857.933 827.62 772.913C946.847 630.106 969.009 439.122 885.858 272.963C844.028 189.161 761.643 109.128 675.092 67.8368C640.772 51.4562 600.898 38.0514 563.035 30.2012C538.351 25.0999 525.966 24.1079 480.026 24.1079C425.557 24.1079 411.84 25.5251 369.103 36.0676C228.167 70.9261 112.709 170.117 56.0286 304.846C-0.991951 440.567 13.0647 601.964 92.7857 725.414C131.754 785.864 194.952 844.528 261.155 881.71C297.034 901.86 354.139 921.472 402.204 930.002C435.504 935.869 510.577 936.634 544.557 931.306ZM427.116 923.229C369.755 916.257 331.127 904.638 278.329 878.281C179.79 829.366 102.195 744.459 61.2148 641.046C19.0445 534.458 22.1622 401.486 69.4337 298.299C135.523 153.849 268.467 55.1972 422.893 35.8408C459.537 31.193 534.383 33.942 567.371 41.027C701.987 69.934 814.016 155.946 876.563 278.489C896.826 318.364 907.454 348.801 916.523 393.296C923.381 427.275 924.175 440 923.268 501.357C921.511 635.406 845.559 770.362 727.21 850.281C638.647 910.051 532.059 935.953 427.116 923.229ZM567.258 908.747C789.105 863.573 943.106 648.811 913.859 425.178C893.397 269.421 790.664 135.258 644.853 74.015C462.853 -2.24844 245.341 57.8611 127.644 216.935C85.5876 273.728 60.1098 332.194 45.7413 404.575C39.0814 438.016 39.1944 520.94 45.9394 556.705C74.1662 708.042 178.799 833.787 322.483 889.362C395.346 917.476 487.99 924.788 567.258 908.747ZM860.721 498.353C863.952 488.944 863.838 488.292 855.96 481.207C847.883 473.895 847.882 473.895 858.85 473.782C869.251 473.668 869.818 473.328 871.688 463.806L873.587 453.972L878.121 464.486C882.316 474.32 883.194 474.887 892.943 474.235L903.231 473.555L894.502 480.867C886.623 487.612 886.085 489.057 888.636 495.689C892.943 507.11 891.951 509.434 885.32 503.114C878.773 497.021 871.689 495.689 869.025 500.025C868.146 501.442 865.17 503.879 862.393 505.324C857.631 507.875 857.518 507.535 860.721 498.353ZM98.6522 351.891C79.8343 344.04 79.8346 344.04 83.9156 333.64C88.5634 321.907 96.64 318.251 107.268 323.097C113.049 325.648 113.814 327.546 113.134 337.069C112.369 347.016 112.936 348.235 119.681 350.445C127.106 352.996 128.098 358.636 121.24 359.429C119.114 359.656 108.94 356.198 98.6522 351.891ZM105.624 336.389C105.624 333.073 103.839 331.316 100.523 331.316C93.0978 331.316 90.7736 336.729 96.3282 340.81C102.081 345.032 105.624 343.36 105.624 336.389ZM828.951 353.563C827.96 350.785 828.838 347.81 831.275 346.024C836.717 342.028 833.174 333.073 825.409 331.316C813.024 328.312 817.105 324.004 833.939 322.219C843.008 321.227 853.636 319.895 857.405 319.129C868.826 317.032 869.931 325.761 859.303 334.745C833.485 356.765 830.85 358.324 828.951 353.563ZM849.215 332.619C851.992 329.303 851.425 328.652 845.672 328.652C840.684 328.652 839.267 329.757 840.372 332.619C841.137 334.745 842.809 336.615 843.915 336.615C845.02 336.615 847.344 334.745 849.215 332.619ZM115.487 314.028C105.737 308.927 97.7739 303.967 97.7739 302.975C97.8589 301.842 100.523 295.975 103.725 289.91C108.288 281.153 110.385 279.283 113.474 281.267C117.017 283.477 116.903 284.583 113.134 291.441C109.932 296.996 109.591 299.971 111.717 302.068C116.138 306.518 117.895 305.611 121.438 296.996C123.223 292.659 125.66 289.117 126.879 289.117C131.414 289.117 131.98 294.558 128.211 301.955C124.555 309.04 124.555 309.834 128.75 311.477C131.641 312.583 134.304 311.591 135.948 308.842C142.92 297.307 144.819 295.664 147.794 298.639C151.223 302.069 141.389 323.437 136.288 323.21C134.616 323.21 125.321 319.016 115.487 314.028ZM810.7 311.818C809.906 309.607 812.797 302.635 817.332 295.975C821.753 289.571 825.409 283.591 825.409 282.939C825.409 282.145 820.223 284.469 813.789 288.012C805.826 292.546 801.603 293.652 800.299 291.554C797.975 287.785 799.506 286.481 820.874 274.72C842.47 262.874 846.437 266.105 833.486 285.036C824.304 298.299 825.182 299.518 838.048 291.781C848.449 285.348 852.531 285.036 851.312 290.562C850.887 292.886 841.903 299.433 831.389 305.299C815.773 313.915 812.032 315.133 810.7 311.818ZM141.162 283.364C124.328 274.068 118.576 257.915 128.863 248.619C137.62 240.74 155.984 245.501 164.742 258.028C176.588 274.834 159.3 293.453 141.162 283.364ZM159.641 273.303C162.73 268.315 158.308 260.89 149.24 256.016C141.814 252.048 139.604 251.821 136.175 254.684C130.535 259.246 130.847 262.562 137.734 269.874C143.6 276.052 156.665 278.178 159.641 273.303ZM787.347 273.417C786.441 272.085 794.745 264.886 805.712 257.461C821.866 246.493 825.862 244.85 827.194 248.279C828.073 250.489 828.3 252.813 827.733 253.267C820.988 258.68 793.526 275.939 791.542 275.939C790.097 275.939 788.226 274.834 787.347 273.417ZM776.38 257.008C775.275 255.251 777.599 251.481 781.793 248.165C788.113 243.178 788.651 241.534 786.129 236.773C782.36 229.801 780.149 229.688 774.056 236.433C768.955 242.072 763.429 243.178 760.991 239.21C758.554 235.327 794.319 206.76 797.522 209.963C799.194 211.748 797.975 214.837 793.979 219.174C788.878 224.586 788.34 226.343 791.089 229.688C795.425 234.874 800.186 234.874 804.38 229.801C808.376 224.927 811.352 224.7 813.024 229.234C813.789 231.218 807.271 238.53 797.748 246.38C779.469 261.344 779.129 261.457 776.38 257.008ZM165.394 241.732C143.26 223.595 144.025 224.927 151.79 215.631C159.98 205.995 169.05 204.89 176.815 212.627C182.993 218.833 183.219 222.149 178.231 231.105C174.916 236.971 175.142 238.303 180.13 243.631C183.559 247.287 184.778 250.489 183.22 251.935C181.774 253.38 174.491 249.157 165.394 241.732ZM171.033 224.02C172.053 217.275 165.167 214.186 160.859 219.372C158.422 222.376 158.422 224.02 160.972 227.25C165.28 232.437 169.928 230.906 170.948 224.02H171.033ZM188.661 207.412C176.361 194.914 173.697 190.918 176.248 188.396C178.798 185.846 182.341 188.056 193.082 198.91C206.685 212.74 206.685 212.74 213.884 205.882C224.738 195.481 226.835 203.105 216.094 214.186C211.333 219.173 206.685 223.141 205.807 223.141C205.041 223.141 197.276 216.056 188.661 207.412ZM746.368 221.384C733.19 216.623 732.424 200.781 744.724 187.829C759.886 171.675 779.469 177.315 777.485 197.238C776.493 208.206 771.959 208.744 770.06 198.117C768.19 187.376 756.003 186.951 748.266 197.238C741.493 206.42 743.817 212.627 754.246 212.627C759.546 212.627 762.21 213.959 762.21 216.623C762.21 218.833 761.105 220.59 759.773 220.59C758.441 220.59 755.777 221.044 753.793 221.696C751.923 222.263 748.579 222.149 746.368 221.384ZM216.321 182.076L202.264 164.704L212.552 155.946C220.544 149.202 223.746 147.869 226.495 150.193C229.386 152.517 228.734 154.275 222.868 159.262C213.77 167.141 217.653 173.546 227.288 166.801C238.681 158.837 241.685 164.363 231.71 174.991C227.289 179.639 226.609 181.736 229.046 184.173C231.37 186.611 234.033 185.845 240.353 181.198C247.098 176.323 249.082 175.756 250.867 178.76C252.511 181.311 250.188 184.854 243.329 190.833C237.916 195.481 232.815 199.335 231.936 199.335C231.171 199.449 224.086 191.598 216.321 182.076ZM682.177 168.445C681.497 167.339 686.825 158.384 694.023 148.521C707.173 130.61 707.174 130.61 715.477 135.91C720.125 138.801 725.113 142.995 726.445 145.092C730.866 151.951 725.566 153.169 717.602 147.303C710.942 142.428 709.497 142.117 706.748 145.546C704.084 148.635 704.736 150.42 710.63 154.955C719.813 162.266 715.59 168.133 705.756 161.7C699.55 157.505 698.983 157.619 694.023 163.91C688.922 170.457 684.501 172.214 682.177 168.445ZM269.685 159.489C265.378 155.068 271.017 148.096 275.665 151.951C280.2 155.72 287.937 152.291 286.945 147.104C286.293 143.76 283.516 142.995 275.439 143.562C263.139 144.44 254.949 137.78 256.394 127.946C257.499 119.869 270.025 112.784 276.204 116.525C283.855 121.4 282.977 125.282 274.107 126.048C259.71 127.493 261.495 133.586 276.204 133.586C290.827 133.586 295.475 136.789 295.475 146.878C295.475 159.376 278.102 167.906 269.685 159.489ZM653.27 151.951C642.643 143.562 644.088 130.384 657.493 115.76C667.553 104.679 688.356 111.566 688.356 125.849C688.356 132.254 681.384 147.983 676.849 151.639C669.878 157.505 660.469 157.619 653.27 151.951ZM675.092 138.886C678.521 132.481 678.635 121.173 675.092 118.963C670.104 115.873 662.452 120.635 658.258 129.392C653.157 140.331 653.157 140.104 658.258 145.206C663.019 150.08 670.643 147.189 675.092 138.886ZM243.102 149.627C242.904 147.643 240.665 144.44 238.143 142.542C234.799 140.104 234.26 138.347 236.357 136.25C240.467 132.027 246.107 139.566 244.548 147.189C244.009 150.647 243.216 151.639 243.102 149.627ZM328.463 133.586C324.042 126.501 314.179 95.2702 315.965 93.7398C316.957 92.7479 322.37 90.5089 327.925 88.7518C336.767 85.9745 338.666 86.2012 343.2 90.3105C346.403 93.1729 348.159 97.7074 347.734 101.93C347.394 105.699 349.605 112.331 352.921 116.865C356.151 121.4 358.787 125.849 358.787 126.728C358.787 130.497 351.815 127.72 345.07 121.173C336.228 112.671 330.673 115.42 334.783 126.274C337.985 134.691 332.884 140.671 328.463 133.586ZM339.856 100.938C340.423 97.9341 338.751 96.6021 334.33 96.6021C326.366 96.6021 324.694 98.2742 326.366 104.481C327.925 110.545 338.439 107.796 339.856 100.938ZM588.286 121.286C572.472 101.137 599.367 68.262 617.193 86.088C623.371 92.2945 624.165 101.93 618.412 101.93C616.173 101.93 613.311 98.9261 611.865 95.2702C606.877 82.2054 593.387 92.181 593.387 108.788C593.387 117.631 599.906 122.732 604.894 117.744C608.89 113.776 614.529 114.428 614.529 118.963C614.529 123.525 606.566 128.258 599.027 128.258C596.136 128.258 591.375 125.169 588.286 121.286ZM445.933 103.461C444.261 101.363 442.164 91.3026 441.286 81.0151C439.954 65.2863 440.379 62.2822 443.723 62.2822C446.699 62.2822 448.371 66.9299 450.014 80.1081C452.027 95.3835 453.132 97.9342 457.666 97.9342C462.427 97.9342 462.853 96.1771 462.966 79.4564C463.079 65.0596 463.958 60.9503 466.962 60.9503C472.941 60.9503 473.933 97.1689 468.067 102.922C462.852 108.137 450.128 108.448 445.933 103.461ZM485.326 87.6467C485.326 61.0636 485.666 60.5252 500.29 62.1689C514.573 63.9543 520.1 69.8206 514.885 78.1243C512.335 82.3186 512.335 84.5576 514.772 88.5253C517.209 92.4079 517.209 95.1851 514.772 100.371C512.136 106.351 510.124 107.116 498.504 107.116C485.213 107.116 485.213 107.116 485.213 87.6467H485.326ZM507.687 94.1649C507.687 92.0677 504.484 89.5172 500.488 88.4119C493.97 86.7682 493.204 87.1932 493.204 93.0596C493.204 98.6142 494.31 99.4929 500.488 98.7277C504.598 98.2743 507.687 96.2904 507.687 94.1649ZM506.468 74.2418C506.355 70.2742 495.189 71.0394 493.857 75.0354C492.978 77.4727 494.735 78.351 499.61 77.6708C503.492 77.2457 506.468 75.6872 506.468 74.2418ZM66.8832 498.466C69.5188 489.51 69.3204 488.405 62.6604 482.737C53.2515 474.66 53.5916 473.668 65.7779 473.668C75.3852 473.668 76.0651 473.102 77.7088 464.373C79.8343 453.632 83.1502 454.17 85.4741 465.705C86.9194 473.017 87.9114 473.668 98.3123 473.782L109.592 473.895L100.863 481.32C93.0976 487.839 92.5591 489.397 94.9963 495.802C99.3041 507.223 98.1991 508.64 89.782 502.66C81.8184 496.907 81.8184 496.907 72.8629 502.575C63.8791 508.102 63.8791 508.102 66.8832 498.466ZM368.111 119.983C367.318 117.971 364.569 107.91 361.678 97.3956C355.925 76.1405 355.046 77.6709 375.196 74.015C383.16 72.598 385.144 73.1365 385.144 76.4523C385.144 79.0029 381.828 81.2135 376.188 82.2054C369.216 83.5374 367.544 84.9827 368.536 88.6385C369.528 92.6345 371.2 93.0596 377.293 91.3026C390.018 87.6467 392.342 95.2702 379.844 99.6062C371.54 102.582 370.747 103.801 374.091 109.128C375.621 111.452 378.512 111.679 384.605 110.007C389.678 108.448 393.561 108.448 394.439 110.007C396.877 113.89 393.787 116.865 385.824 118.537C381.828 119.303 376.415 120.748 373.978 121.74C371.087 122.845 368.876 122.193 368.111 119.983ZM561.731 114.428C561.731 104.481 571.027 72.9097 574.116 72.9097C578.651 72.9097 578.537 75.687 573.237 98.6142C570.46 110.347 567.371 117.744 565.274 117.744C563.375 117.744 561.731 116.214 561.731 114.428ZM538.351 111.991C531.946 110.886 526.419 109.667 526.079 109.242C525.626 108.788 526.42 102.582 527.61 95.2702C528.942 88.1001 530.727 78.2378 531.492 73.59C532.371 68.6021 534.61 64.9462 536.82 64.9462C539.796 64.9462 540.249 67.4968 538.804 77.4726C535.375 101.363 535.829 103.149 545.323 104.027C554.08 104.906 555.298 106.238 551.869 111.226C550.65 112.983 545.776 113.323 538.351 111.991ZM401.099 91.0757C399.314 79.3429 398.322 69.2539 398.889 68.8288C399.314 68.262 404.755 67.0433 410.621 66.1648C420.342 64.6061 422.014 65.0596 426.01 71.2661C432.302 80.7884 429.326 90.8491 419.237 94.3917C413.059 96.6022 411.5 98.7276 411.5 104.792C411.5 109.554 410.055 112.444 407.844 112.444C405.293 112.444 403.196 106.011 401.099 91.0757ZM420.682 80.4482C420.682 78.4644 417.593 76.4523 413.824 76.0272C407.731 75.347 407.079 76.0273 408.184 81.7803C409.176 87.1933 410.395 87.9868 415.042 86.2014C418.131 85.0961 420.682 82.5454 420.682 80.4482ZM420.144 828.261C338.439 813.297 268.694 774.783 216.208 715.552C123.563 611.175 99.7574 470.778 153.009 342.368C184.778 265.992 253.645 194.263 328.35 159.716C410.281 121.853 512.335 116.525 594.039 145.659C710.404 187.291 798.061 287.133 824.19 407.806C831.077 439.235 832.38 501.555 826.854 534.543C813.364 615.369 779.044 679.701 718.906 736.58C668.659 784.192 603.448 816.641 535.602 828.034C505.703 833.135 447.265 833.135 420.144 828.261ZM530.047 820.495C670.983 798.929 784.797 690.981 816.453 548.826C822.971 519.381 824.303 455.842 819.117 425.178C788.566 246.295 626.801 119.756 449.589 136.25C325.913 147.756 225.305 216.509 169.163 327.66C121.438 422.203 122.118 539.106 170.835 635.859C194.839 683.442 244.207 738.706 288.843 767.811C360.006 814.204 447.039 833.135 530.047 820.495ZM467.982 623.361C467.982 623.361 467.954 623.276 467.982 623.219V622.993C467.982 622.143 468.322 621.321 468.917 620.697C469.541 620.102 470.363 619.762 471.213 619.762H489.407C496.747 619.167 498.504 619.96 498.504 622.568C498.504 624.778 496.18 626.564 493.204 626.564C487.877 626.564 486.658 632.09 487.877 651.021C488.217 656.009 487.112 658.22 484.221 658.22C480.792 658.22 480.026 654.904 480.026 641.046C480.026 634.867 479.998 630.928 479.658 628.377C479.431 627.357 478.524 626.62 477.476 626.62C475.095 626.62 471.213 626.62 471.213 626.62C470.363 626.62 469.541 626.28 468.917 625.657C468.322 625.062 467.982 624.24 467.982 623.361ZM146.349 494.47C145.357 492.94 145.811 490.389 147.256 488.83C150.572 485.515 155.644 488.405 155.644 493.478C155.644 497.899 148.899 498.579 146.349 494.47ZM801.716 492.033C801.716 488.065 803.162 486.62 806.364 487.272C808.915 487.725 810.927 489.936 810.927 492.033C810.927 494.158 808.915 496.369 806.364 496.794C803.162 497.474 801.716 496.029 801.716 492.033ZM681.724 492.033C682.716 490.502 697.566 489.397 717.489 489.397C738.517 489.397 751.696 490.389 751.696 492.033C751.696 493.705 737.951 494.697 715.93 494.697C692.692 494.697 680.732 493.705 681.724 492.033ZM734.522 476.106C750.024 474.887 761.87 475 763.429 476.446C764.874 477.863 754.558 478.77 736.959 478.543L708.193 478.09L734.522 476.106ZM145.697 469.02C146.15 466.47 148.361 464.373 150.458 464.373C152.555 464.373 154.652 466.47 155.219 469.02C155.871 472.223 154.454 473.555 150.458 473.555C146.462 473.555 145.017 472.223 145.697 469.02ZM802.17 469.247C803.275 463.494 810.927 462.587 810.927 468.255C810.927 470.466 808.801 472.676 806.165 473.102C802.623 473.782 801.518 472.79 802.17 469.247ZM725.226 460.377C725.226 458.932 732.651 457.713 742.287 457.713C751.582 457.713 759.999 458.932 760.878 460.377C761.87 462.049 755.664 463.041 743.818 463.041C733.19 463.041 725.226 461.936 725.226 460.377ZM147.908 448.757C145.81 446.207 146.151 444.45 149.013 442.126C153.321 438.47 158.309 440.454 158.309 445.782C158.309 450.854 151.337 452.867 147.908 448.757ZM800.498 449.976C798.174 446.207 801.178 441.899 806.052 441.899C808.376 441.899 809.708 443.77 809.141 446.32C808.15 451.648 802.935 453.859 800.498 449.976ZM735.854 444.563C735.854 443.118 740.502 441.899 746.141 441.899C751.923 441.899 757.336 443.118 758.214 444.563C759.206 446.207 755.238 447.199 747.813 447.199C741.182 447.199 735.854 445.98 735.854 444.563ZM152.215 427.049C148.474 423.308 150.685 418.207 155.871 418.207C159.641 418.207 161.086 419.652 160.519 422.628C159.527 427.502 155.106 429.826 152.215 427.049ZM796.955 424.186C797.409 421.636 799.619 419.539 801.716 419.539C803.842 419.539 806.053 421.636 806.478 424.186C807.158 427.389 805.712 428.721 801.716 428.721C797.749 428.721 796.304 427.389 796.955 424.186ZM484.334 259.558C481.897 224.7 482.237 175.643 485.014 175.643C489.435 175.643 490.201 182.955 490.427 231.785C490.767 283.591 487.225 299.858 484.334 259.558ZM217.766 278.603C215.442 274.834 218.418 270.639 223.293 270.639C225.617 270.639 226.949 272.396 226.41 274.947C225.39 280.275 220.203 282.486 217.766 278.603ZM721.684 268.655C720.918 267.437 721.344 264.773 722.562 262.789C725.226 258.453 734.096 261.344 732.538 265.992C731.206 269.959 723.667 271.744 721.684 268.655ZM232.588 258.34C233.694 252.473 241.459 251.708 241.459 257.348C241.459 259.558 239.248 261.684 236.584 262.222C233.042 262.874 231.937 261.769 232.588 258.34ZM707.967 251.935C705.303 247.514 711.396 242.412 715.052 246.068C718.027 249.157 716.157 254.797 712.048 254.797C710.829 254.797 708.959 253.465 707.967 251.935ZM249.762 245.161C246.106 241.421 248.203 236.319 253.418 236.319C257.187 236.319 258.604 237.765 258.066 240.74C257.187 245.502 252.625 247.939 249.762 245.161ZM691.473 234.335C692.011 231.785 694.108 229.688 696.234 229.688C698.444 229.688 700.541 231.785 700.995 234.335C701.647 237.538 700.201 238.983 696.234 238.983C692.238 238.983 690.906 237.538 691.473 234.335ZM266.483 225.805C266.483 221.809 267.815 220.364 271.017 220.931C273.568 221.497 275.665 223.595 275.665 225.805C275.665 227.902 273.568 229.999 271.017 230.566C267.815 231.218 266.483 229.688 266.483 225.805ZM673.873 223.141C671.663 219.599 674.639 215.178 679.287 215.178C681.384 215.178 683.056 217.615 683.056 220.477C683.056 225.918 676.736 227.789 673.873 223.141ZM283.516 215.178C282.524 213.506 282.864 210.87 284.394 209.311C287.936 205.769 296.24 208.858 294.823 213.279C293.378 217.615 285.84 218.947 283.516 215.178ZM655.934 210.87C652.165 207.101 654.262 201.999 659.59 201.999C663.246 201.999 664.776 203.445 664.124 206.42C663.246 211.295 658.683 213.732 655.934 210.87ZM303.779 200.327C304.884 194.461 312.649 193.696 312.649 199.335C312.649 201.546 310.411 203.671 307.775 204.21C304.232 204.89 303.127 203.785 303.779 200.327ZM636.124 195.028C637.229 189.274 644.853 188.396 644.853 194.036C644.853 196.246 642.643 198.457 639.979 198.91C636.436 199.562 635.444 198.57 636.124 195.028ZM323.475 190.04C322.596 187.716 323.589 185.279 326.026 184.4C330.9 182.53 336.313 187.291 333.905 191.258C331.241 195.481 325.26 194.688 323.475 190.04ZM614.982 184.173C615.521 181.623 617.619 179.639 619.829 179.639C621.955 179.639 624.052 181.623 624.59 184.173C625.157 187.489 623.712 188.821 619.829 188.821C615.861 188.821 614.415 187.489 614.982 184.173ZM344.192 180.857C343.2 179.185 343.512 176.55 345.07 175.105C348.613 171.562 356.917 174.538 355.471 178.987C353.941 183.408 346.516 184.627 344.192 180.857ZM595.258 179.185C591.489 175.445 593.614 170.343 598.914 170.343C602.57 170.343 604.129 171.789 603.448 174.764C602.57 179.639 598.035 182.076 595.258 179.185ZM368.423 173.999C364.767 170.23 366.893 165.129 372.079 165.129C375.848 165.129 377.293 166.574 376.727 169.465C375.848 174.311 371.314 176.748 368.423 173.999ZM574.116 171.335C570.46 167.679 572.359 162.04 577.007 162.918C579.444 163.485 581.541 165.469 581.541 167.566C581.541 171.675 576.893 174.113 574.116 171.335ZM389.026 165.129C386.815 161.473 389.905 157.165 394.439 157.165C396.536 157.165 398.322 159.602 398.322 162.493C398.322 167.906 391.888 169.776 389.026 165.129ZM551.529 165.242C547.561 162.805 549.319 154.501 553.853 154.501C557.736 154.501 560.399 162.266 557.509 165.129C556.177 166.461 553.541 166.574 551.529 165.242ZM411.925 157.817C412.492 155.295 414.589 153.282 416.8 153.282C418.925 153.282 421.022 155.295 421.561 157.817C422.128 161.048 420.682 162.493 416.8 162.493C412.832 162.493 411.386 161.048 411.925 157.817ZM527.524 157.165C527.524 153.282 528.828 151.866 532.172 152.404C534.695 152.971 536.707 155.068 536.707 157.165C536.707 159.376 534.695 161.473 532.172 161.926C528.828 162.578 527.524 161.161 527.524 157.165ZM433.747 156.938C431.31 152.971 436.638 148.323 441.597 150.193C443.921 151.072 445.026 153.396 444.148 155.72C442.277 160.481 436.298 161.161 433.747 156.938ZM504.711 155.946C503.946 153.849 504.031 150.959 504.937 149.513C507.035 146.084 514.346 148.861 514.346 153.282C514.346 158.157 506.468 160.368 504.711 155.946ZM457.666 154.501C455.455 150.959 458.431 146.651 463.079 146.651C465.176 146.651 466.848 148.975 466.848 151.951C466.848 157.392 460.528 159.149 457.666 154.501ZM481.358 154.501C479.148 150.959 482.124 146.651 486.772 146.651C488.869 146.651 490.541 148.975 490.541 151.951C490.541 157.392 484.221 159.149 481.358 154.501ZM577.772 420.984C588.513 417.753 633.007 417.555 633.007 420.757C633.007 422.514 622.068 423.421 602.003 423.308C582.873 423.081 573.578 422.288 577.772 420.984ZM552.521 410.13C548.213 409.138 560.626 408.231 580.209 408.118C599.792 408.118 614.643 408.458 613.197 409.024C607.558 410.895 560.06 411.773 552.521 410.13ZM792.647 405.142C790.324 401.372 793.214 397.065 798.174 397.065C800.385 397.065 801.716 398.935 801.291 401.486C800.299 406.814 794.971 409.024 792.534 405.142H792.647ZM155.644 399.729C155.644 395.733 157.09 394.401 160.321 394.968C162.843 395.506 164.969 397.603 164.969 399.729C164.969 401.939 162.843 404.037 160.321 404.49C157.09 405.142 155.644 403.696 155.644 399.729ZM578.651 399.389C577.885 398.17 588.966 397.292 603.136 397.405C617.391 397.49 627.821 397.943 626.375 398.51C620.169 400.607 579.869 401.373 578.651 399.389ZM527.524 394.514C527.524 392.955 535.035 391.85 544.784 391.85C555.638 391.85 561.504 392.842 560.513 394.514C559.606 395.96 551.756 397.178 543.112 397.178C534.497 397.178 527.524 395.96 527.524 394.514ZM195.292 389.413C195.292 385.984 200.394 384.878 231.596 381.223C256.961 378.247 264.584 378.785 260.276 383.121C258.491 384.878 212.778 391.624 201.159 391.737C197.956 391.85 195.292 390.745 195.292 389.413ZM599.254 387.429C594.152 383.773 591.602 383.66 582.533 386.324C573.776 388.988 570.914 388.875 566.039 385.672C558.387 380.684 551.982 379.777 541.241 382.328C533.391 384.227 531.492 383.433 523.302 374.931C512.249 363.623 503.719 362.745 483.682 371.049C463.759 379.352 446.812 376.462 441.597 364.077C419.464 311.166 489.861 266.983 529.055 309.267C543.112 324.429 547.759 351.777 539.144 368.498C534.156 378.134 535.148 379.579 544.018 376.235C551.217 373.486 560.4 374.931 567.797 380.004C571.254 382.328 575.108 382.441 582.646 380.457C591.063 378.134 594.153 378.474 599.679 382.13C603.335 384.539 610.647 386.551 615.748 386.551C620.849 386.551 625.043 387.769 625.043 389.215C625.043 393.296 605.885 391.964 599.254 387.316V387.429ZM787.773 384.879C784.004 381.109 786.129 376.036 791.429 376.036C795.085 376.036 796.53 377.453 795.963 380.457C795.085 385.332 790.55 387.769 787.773 384.879ZM164.061 380.797C159.98 376.575 160.207 374.251 164.742 372.494C170.268 370.368 175.142 377.255 170.721 380.911C168.057 383.122 166.272 383.008 164.061 380.797ZM495.727 378.474C502.387 377.142 510.804 377.142 515.452 378.474C521.857 380.344 519.533 380.911 503.832 380.797C485.326 380.797 484.788 380.684 495.727 378.474ZM778.931 361.413C776.72 355.66 782.247 350.247 786.214 354.215C789.672 357.644 787.546 365.522 783.238 365.522C781.68 365.522 779.809 363.623 778.931 361.413ZM170.155 357.644C167.944 353.988 171.033 349.68 175.596 349.68C177.693 349.68 179.45 352.004 179.45 354.98C179.45 360.421 173.046 362.178 170.155 357.53V357.644ZM555.185 347.129C552.748 343.048 555.865 342.482 610.533 336.502C675.631 329.53 678.408 329.417 679.626 332.733C680.505 335.51 664.465 337.834 597.355 344.579C584.29 345.797 569.921 347.583 565.274 348.348C560.711 349.227 556.177 348.688 555.185 347.129ZM770.74 341.263C768.416 339.052 768.416 337.267 770.514 334.745C774.283 330.182 781.028 335.056 778.931 340.611C777.145 345.259 774.821 345.372 770.74 341.263ZM179.904 334.518C180.442 331.967 182.568 329.87 184.665 329.87C186.875 329.87 188.972 331.967 189.539 334.518C190.078 337.721 188.661 339.166 184.665 339.166C180.782 339.166 179.337 337.721 179.904 334.518ZM688.356 331.741C688.356 326.753 739.283 320.886 742.173 325.534C744.384 329.19 738.404 330.635 711.396 332.733C696.121 333.838 688.356 333.64 688.356 331.741ZM759.999 318.903C761.105 313.15 768.728 312.384 768.728 318.024C768.728 320.121 766.631 322.332 763.967 322.898C760.425 323.55 759.319 322.445 759.999 318.903ZM547.561 318.562C545.436 315.02 551.642 310.486 584.205 291.668C600.132 282.486 622.946 268.542 634.906 260.777C660.468 244.283 664.663 242.299 664.663 247.287C664.663 250.376 625.922 275.854 621.161 275.854C620.169 275.854 615.634 278.603 611.1 282.032C606.452 285.461 593.161 293.992 581.541 300.963C569.922 307.822 557.962 315.247 554.759 317.231C551.529 319.356 548.44 319.894 547.561 318.562ZM190.531 313.49C190.985 310.939 193.082 308.842 195.292 308.842C197.39 308.842 199.487 310.939 200.054 313.49C200.705 316.692 199.288 318.024 195.292 318.024C191.296 318.024 189.879 316.692 190.531 313.49ZM248.657 315.247C231.256 313.036 226.07 311.052 228.054 307.822C230.038 304.619 272.463 311.052 273.682 314.708C274.9 318.364 273.114 318.449 248.657 315.247ZM391.69 290.676C371.427 278.716 344.957 263.214 332.998 256.356C313.075 244.736 306.783 238.983 314.18 238.983C316.504 238.983 428.646 303.061 432.415 306.518C433.095 307.056 432.415 308.615 431.083 309.947C429.638 311.364 414.051 303.74 391.69 290.676ZM747.7 302.182C745.489 298.639 748.465 294.332 753.141 294.332C755.238 294.332 756.882 296.656 756.882 299.631C756.882 305.073 750.591 306.83 747.7 302.182ZM205.042 297.874C201.272 294.105 203.37 289.004 208.698 289.004C212.325 289.004 213.77 290.449 213.232 293.453C212.325 298.299 207.791 300.737 205.042 297.874ZM446.698 279.283C398.889 202.226 392.455 191.032 394.892 188.594C397.443 186.072 400.419 190.607 445.14 263.668C453.784 277.838 458.431 287.898 456.986 289.457C455.569 290.902 451.46 286.906 446.698 279.283ZM520.978 289.117C519.986 287.587 525.087 275.287 532.286 261.996C539.456 248.619 550.877 226.684 557.735 213.194C569.355 190.493 574.995 183.748 574.995 192.59C574.995 195.566 526.844 287.898 523.642 291.214C523.075 291.668 521.97 290.676 520.978 289.117ZM737.526 287.247C736.619 286.368 735.854 283.931 735.854 282.032C735.854 278.064 742.598 277.157 744.837 280.813C746.708 283.704 739.963 289.684 737.526 287.247ZM467.727 809.641C465.516 803.888 471.043 798.589 475.039 802.556C478.468 805.9 476.371 813.751 472.063 813.751C470.504 813.751 468.606 811.965 467.727 809.641ZM443.043 805.9C443.043 801.904 444.488 800.459 447.69 801.139C450.241 801.564 452.338 803.775 452.338 805.9C452.338 807.997 450.241 810.208 447.69 810.661C444.488 811.313 443.043 809.868 443.043 805.9ZM491.079 806.552C491.533 804.002 493.63 801.904 495.841 801.904C497.966 801.904 500.063 804.002 500.602 806.552C501.282 809.755 499.837 811.087 495.841 811.087C491.873 811.087 490.428 809.755 491.079 806.552ZM515.112 807.006C513.015 801.253 518.541 795.925 522.537 799.921C525.966 803.236 523.869 811.087 519.533 811.087C518.003 811.087 515.99 809.33 515.112 807.006ZM421.136 806.779C417.48 803.01 419.577 797.908 424.792 797.908C428.533 797.908 429.978 799.354 429.439 802.358C428.533 807.232 423.998 809.556 421.136 806.779ZM538.039 800.572C538.039 796.605 539.371 795.16 542.687 795.811C545.124 796.265 547.221 798.362 547.221 800.572C547.221 802.67 545.124 804.795 542.687 805.334C539.371 806.014 538.039 804.568 538.039 800.572ZM396.99 800.572C394.779 797.03 397.755 792.609 402.431 792.609C404.415 792.609 406.172 795.046 406.172 797.908C406.172 803.35 399.767 805.22 396.99 800.572ZM560.399 797.908C558.302 794.479 561.165 790.058 565.586 790.058C569.468 790.058 572.898 796.491 570.347 799.014C567.91 801.451 562.27 800.799 560.399 797.908ZM374.856 794.366C372.532 791.617 372.646 789.945 375.508 787.734C378.285 785.41 379.844 785.524 382.168 788.301C384.492 791.05 384.265 792.722 381.488 795.046C378.739 797.257 377.18 797.143 374.856 794.366ZM583.752 791.164C581.541 785.41 587.067 779.997 591.063 784.078C594.493 787.394 592.396 795.273 588.06 795.273C586.529 795.273 584.63 793.374 583.752 791.164ZM351.702 785.864C349.491 780.082 355.046 774.783 359.014 778.779C362.443 782.095 360.346 790.058 356.038 790.058C354.479 790.058 352.609 788.188 351.702 785.864ZM605.233 782.095C603.023 778.552 605.999 774.216 610.647 774.216C612.744 774.216 614.529 776.54 614.529 779.431C614.529 784.957 608.096 786.742 605.233 782.095ZM331.581 777.759C327.811 774.018 329.908 768.916 335.208 768.916C338.864 768.916 340.309 770.362 339.771 773.338C338.864 778.212 334.33 780.536 331.581 777.759ZM410.055 773.111C403.961 768.69 403.083 750.75 408.496 744.232C413.143 738.706 428.334 738.706 433.747 744.119C439.5 749.872 436.638 752.082 428.873 748.001C418.925 742.673 412.945 745.224 411.925 755.285C411.386 760.046 412.492 765.714 414.249 767.811C418.358 772.686 427.002 772.572 428.986 767.584C430.545 763.503 437.856 762.058 437.856 765.912C437.856 770.248 428.107 776.767 421.561 776.767C418.018 776.767 412.832 775.123 410.055 773.111ZM441.937 770.9C447.152 753.981 453.444 741.115 456.674 740.463C458.998 740.009 462.739 746.329 467.189 758.289C472.262 771.892 473.281 776.767 470.617 776.767C468.719 776.767 466.395 774.443 465.516 771.58C464.298 767.924 461.52 766.253 456.447 766.253C451.233 766.253 448.569 767.811 447.577 771.58C446.925 774.443 444.828 776.767 443.156 776.767C441.172 776.767 440.719 774.669 441.937 770.9ZM461.52 759.054C461.52 757.949 460.415 755.398 459.112 753.414C457.326 750.439 456.221 750.864 453.784 755.398C451.233 760.273 451.46 761.066 456.221 761.066C459.111 761.066 461.52 760.046 461.52 759.054ZM479.148 775.123C475.492 771.467 477.589 769.256 484.334 769.682C488.33 770.022 491.873 768.69 492.638 766.479C493.517 763.929 492.524 763.277 489.549 764.495C484.674 766.366 474.699 757.949 474.699 751.969C474.699 746.669 482.124 739.924 487.877 739.924C495.727 739.924 501.055 747.321 501.055 758.402C501.055 764.042 499.27 770.362 496.946 772.686C492.752 776.88 482.35 778.325 479.148 775.123ZM493.857 755.086C495.727 749.645 492.978 745.224 487.65 745.224C484.108 745.224 482.69 747.095 482.69 751.742C482.69 758.827 491.646 761.491 493.857 755.086ZM507.035 773.791C503.265 770.022 502.614 761.945 505.929 759.961C507.148 759.281 507.573 755.086 506.921 750.637C506.043 743.892 506.808 742.56 512.675 741.03C522.962 738.479 527.95 741.342 527.298 749.759C526.958 753.755 527.723 759.281 528.829 762.058C530.047 764.807 529.735 768.916 528.29 771.24C524.974 776.54 511.342 778.212 507.035 773.791ZM523.529 766.366C523.529 761.605 514.771 759.394 511.03 763.163C509.585 764.609 509.245 767.131 510.237 768.803C512.901 773.111 523.529 771.014 523.529 766.366ZM521.744 749.532C522.31 746.669 520.752 745.224 517.096 745.224C514.12 745.224 511.683 746.783 511.683 748.653C511.683 756.73 520.213 757.524 521.744 749.532ZM545.889 763.589C545.889 753.641 545.011 750.439 542.007 750.439C539.796 750.439 538.039 749.333 538.039 747.888C538.039 746.329 539.796 745.224 542.007 745.224C544.132 745.224 545.889 744.005 545.889 742.56C545.889 741.115 547.108 739.924 548.553 739.924C550.083 739.924 551.217 747.888 551.217 758.402C551.217 768.917 550.083 776.88 548.553 776.88C547.108 776.88 545.889 770.9 545.889 763.589ZM625.497 769.568C626.035 767.046 628.133 764.92 630.343 764.92C632.469 764.92 634.566 767.046 635.104 769.568C635.671 772.799 634.226 774.216 630.343 774.216C626.376 774.216 624.93 772.799 625.497 769.568ZM646.072 758.629C646.072 754.746 647.858 753.074 651.599 753.074C658.372 753.074 657.578 761.831 650.72 763.163C647.517 763.815 646.072 762.37 646.072 758.629ZM289.155 751.657C288.277 749.333 289.269 747.009 291.706 746.103C296.581 744.232 302.022 748.88 299.585 752.876C296.921 757.07 290.94 756.419 289.155 751.657ZM666.335 748.767C662.679 745.111 664.776 739.924 669.878 739.924C673.42 739.924 675.092 741.681 675.092 745.224C675.092 750.325 669.991 752.309 666.335 748.653V748.767ZM269.572 735.248C270.026 732.726 272.236 730.714 274.333 730.714C276.43 730.714 278.641 732.726 279.094 735.248C279.746 738.592 278.329 739.924 274.333 739.924C270.337 739.924 268.92 738.592 269.572 735.248ZM683.934 733.151C681.724 727.398 687.25 722.099 691.359 726.066C694.675 729.382 692.578 737.26 688.356 737.26C686.825 737.26 684.813 735.475 683.934 733.151ZM251.859 723.969C248.969 719.321 255.969 713.001 260.163 716.544C262.941 718.754 263.139 720.426 260.815 723.09C257.272 727.398 254.183 727.738 251.859 723.969ZM700.202 718.754C699.097 717.111 699.55 714.56 701.108 713.001C704.651 709.459 712.841 712.576 711.396 716.884C709.951 721.305 702.526 722.524 700.202 718.754ZM235.365 703.706C235.819 701.155 237.916 699.058 240.127 699.058C242.224 699.058 244.321 701.155 244.888 703.706C245.54 706.908 244.123 708.354 240.127 708.354C236.131 708.354 234.714 706.908 235.365 703.706ZM718.028 703.819C712.728 701.835 714.258 695.175 720.039 695.175C722.902 695.175 725.226 696.847 725.226 698.945C725.226 703.479 722.449 705.378 718.028 703.819ZM219.863 688.317C217.653 682.677 223.292 677.264 227.288 681.232C230.604 684.661 228.507 692.54 224.284 692.54C222.754 692.54 220.742 690.641 219.863 688.317ZM731.886 684.548C729.647 681.005 732.651 676.697 737.299 676.697C739.396 676.697 741.068 679.021 741.068 681.912C741.068 687.438 734.748 689.195 731.886 684.548ZM206.799 670.179C206.033 668.054 206.033 665.191 206.912 663.746C209.123 660.203 216.321 663.094 216.321 667.402C216.321 672.39 208.471 674.6 206.799 670.179ZM744.923 665.843C743.931 664.313 744.384 661.875 745.829 660.317C749.145 657.001 754.246 659.863 754.246 664.965C754.246 669.386 747.473 670.066 744.923 665.843ZM398.322 638.297C398.322 618.345 398.322 618.345 410.82 619.365C426.888 620.669 429.439 625.005 414.589 626.11C405.634 626.762 403.423 627.754 404.075 631.297C404.953 635.859 405.974 636.171 418.018 636.851C428.986 637.39 425.443 642.378 414.164 642.378C405.294 642.378 403.536 643.256 403.536 647.705C403.536 652.126 405.293 653.005 415.467 653.005C422.014 653.005 427.314 654.11 427.314 655.556C427.314 657.001 420.795 658.22 412.832 658.22H398.322V638.297ZM432.528 639.94C432.528 629.88 433.747 620.896 435.079 620.017C436.524 619.139 442.164 625.232 447.69 633.535L457.666 648.584L458.431 634.952C459.65 614.604 464.185 618.458 464.185 639.713C464.185 662.754 460.302 663.859 448.03 644.361L439.16 630.531L438.395 644.361C437.176 664.738 432.642 661.195 432.642 639.94H432.528ZM503.832 639.713C503.832 618.798 505.051 617.353 520.978 620.669C531.492 622.908 531.492 622.908 531.832 636.511C531.946 643.936 532.825 651.9 533.703 654.11C534.61 656.548 533.816 658.22 531.719 658.22C529.735 658.22 527.412 654.677 526.618 650.341C525.286 643.596 523.756 642.378 516.982 642.378C509.897 642.378 509.019 643.256 509.019 650.341C509.019 654.677 507.914 658.22 506.355 658.22C504.938 658.22 503.832 650.228 503.832 639.713ZM526.958 631.523C527.95 626.45 522.196 623.786 514.573 625.77C511.342 626.564 509.019 629.313 509.019 632.317C509.019 636.511 510.577 637.276 517.549 636.624C522.962 636.171 526.419 634.187 526.958 631.523ZM551.217 651.446C551.217 647.819 548.326 640.394 544.671 635.066C537.926 625.118 535.829 617.041 540.901 620.13C542.46 621.122 546.002 625.543 548.666 629.993C553.541 637.956 553.541 637.956 559.294 628.321C562.383 623.021 566.039 618.685 567.371 618.685C571.027 618.685 570.12 621.803 563.149 633.195C559.606 638.948 556.63 647.025 556.63 651.021C556.517 654.989 555.298 658.22 553.853 658.22C552.408 658.22 551.217 655.216 551.217 651.446ZM192.629 647.705C192.629 643.709 193.961 642.264 197.276 642.944C199.827 643.369 201.811 645.466 201.811 647.705C201.811 649.803 199.827 651.9 197.276 652.467C193.961 653.119 192.629 651.673 192.629 647.705ZM757.789 646.147C755.465 640.053 760.651 636.058 764.647 640.819C767.963 644.928 766.518 650.341 761.983 650.341C760.538 650.341 758.667 648.471 757.789 646.147ZM182.341 630.758C178.572 626.337 180.555 621.349 185.997 621.349C191.75 621.349 193.62 626.649 189.426 630.871C186.11 634.301 185.203 634.3 182.341 630.758ZM767.397 623.786C767.397 617.041 776.153 617.807 777.485 624.665C778.137 627.754 776.72 629.199 772.951 629.199C769.182 629.199 767.51 627.556 767.51 623.786H767.397ZM171.487 605.507C171.487 601.539 172.932 600.094 176.135 600.746C178.685 601.199 180.782 603.296 180.782 605.507C180.782 607.632 178.685 609.73 176.135 610.268C172.932 610.948 171.487 609.503 171.487 605.507ZM778.024 602.871C778.024 598.875 779.356 597.43 782.586 598.11C785.109 598.535 787.234 600.746 787.234 602.871C787.234 604.969 785.109 607.179 782.586 607.633C779.356 608.284 778.024 606.839 778.024 602.871ZM341.528 600.547C329.342 594.993 324.496 586.377 324.496 570.422C324.496 548.175 336.767 534.458 356.577 534.345C367.318 534.345 380.836 543.64 383.273 552.709C385.143 560.134 371.852 560.134 367.318 552.709C363.01 545.851 350.483 545.851 344.192 552.709C337.107 560.559 337.986 581.389 345.637 587.596C353.488 593.887 357.795 593.547 365.56 585.697C372.957 578.385 382.479 576.968 382.479 583.146C382.479 590.912 373.978 600.094 364.455 602.758C352.496 606.074 354.139 606.301 341.528 600.547ZM397.33 584.705C396.451 574.729 396.451 559.256 397.33 550.385C398.888 535.648 399.654 534.345 405.293 534.345C410.933 534.345 411.5 535.337 411.5 547.495C411.5 560.673 411.5 560.673 424.111 560.673C436.638 560.673 436.637 560.673 435.617 549.818C434.512 538.539 437.403 534.458 446.472 534.345C450.581 534.345 451.006 537.661 451.006 568.75C451.006 603.183 451.006 603.183 443.808 602.418C436.836 601.539 436.525 600.859 436.525 587.681C436.525 573.851 436.524 573.851 423.998 573.851C411.5 573.851 411.5 573.851 411.5 588.361C411.5 601.851 411.046 602.871 405.293 602.871C399.54 602.871 398.888 601.539 397.33 584.705ZM467.387 569.203C468.18 535.648 468.18 535.648 474.812 535.648C481.359 535.648 481.359 535.648 482.124 569.203C482.776 602.871 482.776 602.871 474.812 602.871C466.735 602.871 466.735 602.871 467.387 569.203ZM498.504 568.551C498.504 534.345 498.504 534.345 504.824 534.345C510.01 534.345 513.78 538.539 524.634 556.025L538.039 577.847V557.357C538.039 537.32 538.237 536.98 544.671 536.98C551.217 536.98 551.217 536.98 551.217 569.883C551.217 602.871 551.217 602.871 544.671 602.871C539.258 602.871 535.914 599.215 525.513 581.276L513.014 559.568L512.249 581.276C511.455 602.191 511.229 602.871 504.937 602.871C498.504 602.871 498.504 602.871 498.504 568.551ZM574.683 569.203C586.642 536.555 587.181 535.648 594.719 535.648C602.229 535.648 602.909 536.669 613.764 565.887C626.914 601.426 627.14 602.871 618.412 602.871C613.764 602.871 610.987 600.859 609.201 596.211C607.104 590.572 605.12 589.693 594.719 589.693C584.403 589.693 582.42 590.572 580.209 596.211C578.339 601.199 575.788 602.871 570.12 602.871C562.497 602.871 562.496 602.871 574.683 569.203ZM601.124 573.199C601.011 571.414 599.481 565.774 597.582 560.786L594.379 551.604L591.29 560.446C586.727 573.511 587.294 576.515 594.719 576.515C598.375 576.515 601.238 574.956 601.124 573.199ZM187.527 588.588C185.657 586.264 184.778 576.855 185.203 562.883L186.11 540.863L234.373 539.531C260.928 538.879 284.394 539.191 286.52 540.325C291.281 543.074 291.819 584.365 287.058 589.126C282.184 594.001 191.636 593.547 187.527 588.588ZM284.961 587.029V542.195H189.964V587.029H284.961ZM200.507 569.77C200.507 562.345 199.487 558.349 197.957 559.341C193.195 562.231 195.179 556.365 200.507 551.377C205.807 546.729 205.807 546.843 205.807 564.215C205.807 574.191 204.702 581.701 203.143 581.701C201.698 581.701 200.507 576.288 200.507 569.77ZM213.657 580.171C213.657 579.292 217.313 573.964 221.847 568.325C226.296 562.685 229.046 556.818 228.167 555.146C226.835 553.163 225.503 553.049 223.406 555.146C219.41 559.142 216.321 558.802 216.321 554.268C216.321 549.053 226.296 546.276 230.944 550.272C236.357 554.693 235.819 561.353 229.386 569.543C223.859 576.515 223.859 576.515 229.386 576.515C232.39 576.515 234.799 577.733 234.799 579.179C234.799 580.596 230.037 581.701 224.284 581.701C218.418 581.701 213.657 581.049 213.657 580.171ZM240.58 578.612C236.358 574.304 236.697 571.187 241.459 571.187C243.556 571.187 245.341 572.406 245.341 573.851C245.341 575.296 246.56 576.515 247.977 576.515C249.422 576.515 250.641 574.078 250.641 571.187C250.641 568.325 249.309 565.887 247.665 565.887C245.653 565.887 245.766 564.669 248.09 561.891C250.641 558.802 250.754 557.017 248.43 554.693C246.106 552.369 245.341 552.482 245.341 554.806C245.341 556.592 244.207 558.037 242.677 558.037C238.568 558.037 239.673 550.839 244.009 549.167C250.981 546.503 256.28 550.385 255.742 557.697C255.402 561.466 256.054 566.653 257.188 569.203C261.042 578.385 247.977 585.924 240.58 578.499V578.612ZM271.783 577.734C271.783 575.636 269.346 573.851 266.483 573.851C259.71 573.851 259.823 570.422 266.908 557.697C273.767 545.511 278.443 545.737 277.876 558.235C277.536 563.11 278.528 567.871 280.086 568.75C281.758 569.883 281.532 572.405 279.208 576.061C275.098 582.608 271.669 583.373 271.669 577.734H271.783ZM271.783 564.555C271.783 562.458 271.244 560.673 270.677 560.673C270.139 560.673 269.005 562.458 268.127 564.555C267.362 566.766 267.701 568.551 269.118 568.551C270.564 568.551 271.783 566.766 271.783 564.555ZM163.636 584.365C163.636 580.398 164.968 578.952 168.284 579.604C170.835 580.057 172.819 582.268 172.819 584.365C172.819 586.462 170.835 588.701 168.284 589.126C164.968 589.807 163.636 588.361 163.636 584.365ZM785.902 581.701C785.902 577.734 787.348 576.288 790.55 576.968C793.101 577.393 795.198 579.604 795.198 581.701C795.198 583.94 793.101 586.037 790.55 586.462C787.348 587.143 785.902 585.697 785.902 581.701ZM158.649 566.114C154.653 563.563 156.438 555.373 160.972 555.373C164.855 555.373 167.491 563.11 164.628 566.001C163.296 567.333 160.632 567.333 158.649 566.114ZM792.987 564.215C789.218 560.446 791.429 555.373 796.643 555.373C800.384 555.373 801.829 556.818 801.291 559.794C800.299 564.669 795.85 567.106 792.987 564.215ZM151.79 542.308C149.466 538.539 152.442 534.231 157.317 534.231C159.641 534.231 160.972 536.102 160.519 538.652C159.527 543.952 154.227 546.191 151.79 542.308ZM796.955 537.547C797.409 534.997 799.619 533.013 801.716 533.013C803.842 533.013 806.053 534.997 806.478 537.547C807.158 540.75 805.712 542.195 801.716 542.195C797.749 542.195 796.304 540.75 796.955 537.547ZM147.794 515.838C147.794 511.871 149.126 510.426 152.442 511.077C154.993 511.531 156.976 513.628 156.976 515.838C156.976 517.936 154.993 520.061 152.442 520.6C149.126 521.28 147.794 519.721 147.794 515.838ZM800.951 519.381C797.182 515.612 799.279 510.539 804.607 510.539C808.263 510.539 809.822 511.984 809.141 514.96C808.263 519.834 803.728 522.158 800.951 519.381ZM189.964 511.871C189.964 509.434 192.402 507.875 196.284 507.875C205.467 507.875 231.256 477.976 263.366 429.713C291.933 386.976 292.386 385.445 292.698 331.741C292.811 323.324 293.265 323.012 301.909 323.664C306.868 324.117 311.856 323.664 312.847 322.558C316.078 319.469 329.228 320.461 330.674 324.004C331.467 326.101 332.006 325.648 332.119 323.012C332.459 317.797 345.949 314.482 348.84 318.903C350.285 321.113 351.702 320.688 353.601 317.344C357.908 310.145 379.844 312.271 379.844 320.008C379.844 323.097 380.609 323.324 383.5 321C387.808 317.344 395.658 319.894 395.658 324.882C395.658 329.19 400.079 329.87 401.411 325.761C402.856 321.567 411.5 325.874 411.5 330.862C411.5 334.405 412.038 334.518 413.937 331.514C415.156 329.417 417.905 328.425 420.03 329.304C422.893 330.409 424.451 337.72 425.783 356.652C426.775 370.935 428.334 385.332 429.099 388.534C430.658 395.166 437.856 396.725 437.856 390.405C437.856 384.879 443.496 383.235 451.913 386.437C456.334 388.081 458.998 391.085 458.998 394.401C458.998 397.405 460.103 399.842 461.52 399.842C462.966 399.842 464.185 397.292 464.185 394.288C464.185 390.405 465.517 389.215 468.832 390.206C471.383 390.858 476.144 392.19 479.347 393.182C483.456 394.288 485.326 396.838 485.326 401.259C485.326 405.255 486.885 407.693 489.209 407.693C491.419 407.693 493.204 405.368 493.204 402.478C493.204 397.405 493.516 397.405 502.5 401.599C509.018 404.802 511.683 407.806 511.683 412.114C511.683 415.429 512.901 418.207 514.346 418.207C515.792 418.207 516.982 416.421 516.982 414.324C516.982 412.114 518.994 410.356 521.545 410.47C528.516 410.555 535.375 416.875 535.375 423.194C535.375 426.284 536.593 428.834 538.039 428.834C539.456 428.834 540.675 426.964 540.675 424.838C540.675 422.628 542.573 420.871 544.784 420.871C552.634 420.871 559.181 426.284 559.181 432.83C559.181 437.591 560.513 439.348 564.367 439.348C567.258 439.348 569.582 438.47 569.355 437.365C567.711 426.964 585.622 428.721 588.06 439.235C590.27 448.304 596.051 449.324 596.051 440.567C596.051 434.474 596.93 433.709 602.003 435.041C605.234 435.919 609.428 436.684 611.213 436.684C612.97 436.684 614.529 439.122 614.529 442.012C614.529 444.875 616.286 447.199 618.412 447.199C620.622 447.199 622.38 444.875 622.38 442.012C622.38 437.676 624.165 436.684 631.675 436.684C638.108 436.684 640.885 437.903 640.885 440.68C640.885 442.891 642.104 444.676 643.521 444.676C644.967 444.676 646.185 442.239 646.185 439.348C646.185 436.458 647.857 434.049 649.841 434.049C651.938 434.049 655.481 433.369 657.805 432.49C660.809 431.272 661.914 432.49 661.914 436.458C661.914 439.462 663.132 442.012 664.578 442.012C665.995 442.012 667.214 439.008 667.214 435.352C667.214 431.498 668.772 428.834 670.983 428.834C672.967 428.834 676.509 428.069 678.833 427.162C681.837 426.057 683.056 427.162 683.056 431.272C683.056 434.474 684.274 436.259 685.72 435.352C687.363 434.361 687.477 432.15 685.918 429.373C684.275 426.397 684.813 422.514 687.477 417.328C691.36 409.79 691.246 409.336 681.95 400.154L672.541 390.632V400.381C672.541 406.814 674.072 411.008 677.076 412.794C680.845 414.891 679.514 415.429 670.643 415.543C664.578 415.543 658.797 414.324 657.805 412.68C656.7 410.895 650.493 410.243 641.424 410.895C628.813 412 627.481 411.66 631.789 408.571C634.453 406.701 637.428 405.028 638.335 405.028C639.327 405.028 640.97 394.061 641.991 380.684C642.983 367.279 644.626 355.546 645.646 354.668C646.638 353.789 653.724 352.231 661.234 351.239C671.663 349.907 675.205 350.332 675.205 352.882C675.205 355.32 675.971 355.093 677.955 352.344C679.74 349.907 681.27 349.453 681.95 351.239C682.602 352.769 686.712 353.563 691.019 352.882C698.785 351.777 698.87 351.777 698.87 364.955C698.87 378.02 698.87 378.134 711.396 384.34C723.894 390.518 723.894 390.518 724.687 408.344C725.453 426.17 725.453 426.17 739.17 426.17C755.352 426.17 772.724 430.506 772.724 434.474C772.724 436.146 770.854 436.458 768.076 435.267C765.526 434.134 754.898 432.717 744.384 432.037C725.226 430.931 725.226 430.931 725.226 441.332C725.226 454.737 718.906 462.814 699.436 474.547C665.116 495.15 625.383 503.454 578.338 499.685C550.31 497.474 537.472 492.146 513.014 473.215C483.682 450.628 471.723 443.004 450.808 433.822C438.735 428.494 427.427 421.182 421.447 414.778C410.933 403.697 409.714 403.583 389.139 411.235C383.386 413.332 376.953 417.64 374.969 420.644C372.759 423.96 368.423 426.17 364.115 426.17C358.022 426.17 356.265 428.182 350.824 441.332C347.508 449.749 342.633 461.255 340.083 467.037C331.241 487.073 324.496 503.34 324.496 504.332C324.496 507.648 329.682 504.446 331.014 500.138C331.892 497.361 334.67 494.357 337.334 493.592C340.763 492.486 341.641 490.049 340.876 484.409C340.083 479.195 341.414 475.114 345.297 471.344C348.273 468.255 350.824 463.494 350.824 460.604C350.824 457.826 351.929 454.85 353.374 453.972C354.706 453.065 355.245 450.741 354.479 448.871C353.034 445.215 364.993 434.134 370.321 434.134C371.965 434.134 374.743 430.591 376.415 426.17C378.285 421.182 381.176 418.32 384.378 418.32C387.127 418.32 391.69 416.535 394.439 414.437C403.423 407.579 413.144 409.449 420.682 419.312C424.451 424.3 431.763 430.393 436.836 432.83C442.702 435.579 447.152 440.114 448.796 444.875C450.468 449.522 453.33 452.527 456.221 452.527C458.771 452.527 462.314 454.17 463.957 456.296C465.63 458.28 469.172 459.385 471.836 458.733C474.812 457.826 478.581 459.838 481.784 464.033C484.675 467.575 489.861 470.891 493.403 471.458C496.946 471.883 500.942 475 502.387 478.316C504.257 482.425 507.262 484.183 512.561 484.183C517.889 484.183 520.439 485.741 521.431 489.511C522.197 492.373 524.974 494.81 527.723 494.81C530.387 494.81 535.035 497.474 538.152 500.677C541.128 503.992 546.881 506.77 550.764 506.883C554.646 506.996 605.007 507.223 662.566 507.535C753.793 507.875 767.397 508.442 767.397 511.871C767.397 515.413 733.643 515.838 478.695 515.838C223.859 515.838 189.964 515.413 189.964 511.871ZM387.807 365.522C387.807 361.073 386.589 357.53 385.144 357.53C383.698 357.53 382.479 361.073 382.479 365.522C382.479 369.83 383.698 373.372 385.144 373.372C386.589 373.372 387.807 369.83 387.807 365.522ZM666.987 358.522C669.538 356.312 665.343 355.773 656.047 356.879C650.606 357.53 646.185 359.316 646.185 360.648C646.185 362.858 664.238 360.959 666.987 358.522ZM304.005 345.259C302.22 344.579 299.244 344.579 297.459 345.259C295.588 346.024 297.147 346.591 300.69 346.591C304.346 346.591 305.876 346.024 304.005 345.259ZM342.973 340.498C353.827 338.599 359.127 336.955 354.819 336.955C350.398 336.955 337.986 338.401 327.131 340.385C316.192 342.255 310.864 343.814 315.171 343.927C319.621 343.927 332.006 342.368 342.973 340.498ZM396.99 341.716C394.127 340.498 389.905 339.506 387.807 339.506C385.257 339.506 385.71 340.271 389.026 341.716C392.002 343.048 396.111 344.04 398.322 344.04C400.759 344.04 400.306 343.162 396.99 341.716ZM334.33 334.943C364.88 330.409 366.666 329.757 366.666 324.117C366.666 319.781 365.107 318.024 361.338 318.024C358.476 318.024 356.151 319.781 356.151 321.992C356.151 324.429 353.601 325.874 349.492 325.874C345.836 325.874 342.973 324.769 342.973 323.324C342.973 321.793 341.755 320.688 340.309 320.688C338.864 320.688 337.645 322.445 337.645 324.542C337.645 326.753 336.54 328.538 335.208 328.538C333.904 328.538 330.9 329.304 328.69 330.182C325.912 331.202 324.496 330.295 324.496 327.546C324.496 322.332 320.273 321.992 317.411 326.753C314.066 332.307 305.989 334.291 304.346 329.984C302.107 324.117 295.475 328.425 295.475 335.737C295.475 339.931 296.694 341.943 298.791 341.15C300.576 340.498 316.617 337.72 334.33 335.056V334.943ZM267.815 436.684C282.41 414.211 298.366 391.085 303.127 385.332C310.864 375.923 310.637 376.036 300.803 386.437C294.823 392.956 278.528 415.202 264.811 435.919C251.094 456.607 233.382 480.527 225.503 489.171C217.54 497.701 211.135 505.664 211.135 506.883C211.446 513.401 244.321 472.676 267.815 436.684ZM276.431 504.332C283.516 499.911 278.641 497.588 260.503 496.681C241.458 495.802 241.458 495.802 262.827 495.264C278.754 494.81 284.734 493.705 285.84 490.928C286.945 488.065 283.742 486.733 272.236 485.401C250.102 482.964 249.649 481.972 270.791 481.745C284.082 481.519 290.487 480.3 292.811 477.551C295.702 474.122 293.803 473.668 278.641 473.668C255.062 473.668 256.281 468.794 280.086 467.802C292.273 467.348 299.358 465.818 300.123 463.693C300.888 461.255 296.467 460.377 283.402 460.377C273.568 460.377 266.483 459.498 267.588 458.506C268.693 457.401 277.309 456.523 286.831 456.523C298.366 456.523 304.544 455.389 305.337 453.178C306.102 450.741 302.107 449.863 290.374 449.863C281.418 449.863 274.333 448.757 274.333 447.199C274.333 445.782 282.184 444.676 292.5 444.676C306.216 444.676 311.09 443.656 312.196 440.68C313.528 437.478 310.75 436.571 297.345 436.259L280.965 435.806L297.912 434.247C320.159 432.263 322.37 426.737 301.568 425.518L286.179 424.526L302.56 424.073C323.475 423.421 327.698 418.207 307.321 418.207C286.945 418.207 291.167 413.105 312.082 412.567L328.463 412L312.649 410.47C294.483 408.571 297.686 405.595 319.168 404.263L333.677 403.385L318.403 402.931C298.791 402.251 300.888 397.178 320.726 397.178C328.576 397.178 335.01 396.186 335.01 395.081C335.01 393.948 330.249 393.522 324.496 394.061C317.949 394.628 313.953 393.947 313.953 392.077C313.953 390.405 319.167 389.215 326.904 389.215C334.103 389.215 340.763 387.996 341.641 386.551C342.633 384.992 338.978 384 332.573 384C322.143 384 321.831 383.66 321.831 375.243C321.831 365.182 327.471 355.887 332.006 358.636C333.678 359.656 335.01 365.182 335.01 370.935C335.01 379.692 335.888 381.336 340.423 381.336C344.079 381.336 345.75 379.777 345.41 376.688C344.078 363.51 345.637 357.53 350.597 357.53C355.811 357.53 357.257 365.834 359.467 407.693C359.921 416.875 361.111 419.765 365.107 420.417C369.868 421.409 370.095 419.879 368.423 382.555C367.544 361.186 366.326 343.162 365.674 342.482C364.994 341.83 349.293 343.473 330.674 346.137L296.807 351.012L296.042 367.96C295.249 382.668 295.702 384.453 299.131 381.563C301.341 379.777 303.439 374.478 303.892 369.943C304.997 358.636 311.856 358.862 314.18 370.283C315.172 375.045 316.503 379.466 317.183 380.117C317.835 380.798 314.066 385.87 308.767 391.425C303.439 397.065 292.159 412.794 283.742 426.397C275.325 440 260.616 463.041 250.981 477.551C241.345 492.033 233.268 504.559 232.815 505.211C231.823 507.308 272.888 506.43 276.431 504.219V504.332ZM299.244 483.842C305.876 472.11 311.317 462.049 311.317 461.369C311.317 459.612 342.208 397.603 348.5 386.862C354.026 377.368 354.026 377.368 348.386 384C345.411 387.542 332.005 411.887 318.714 438.016C305.564 464.146 291.819 489.936 288.39 495.377C284.961 500.79 283.289 505.211 284.734 505.211C286.066 505.211 292.613 495.575 299.244 483.842ZM381.063 489.596C373.978 482.624 363.775 480.527 357.795 484.863C353.374 488.065 353.941 488.292 362.245 487.385C368.111 486.733 373.864 487.838 377.633 490.502C385.824 496.255 387.354 495.802 381.063 489.596ZM428.873 484.409C426.322 481.632 421.136 478.543 417.253 477.664C413.37 476.644 407.957 473.555 405.407 470.693C402.204 467.235 397.33 465.591 390.897 465.705C385.484 465.931 378.172 465.251 374.516 464.373C370.435 463.381 365.986 464.373 362.67 466.923C357.682 470.778 357.795 470.891 364.88 467.915C370.548 465.478 373.524 465.478 377.18 467.689C379.844 469.361 386.135 470.126 391.237 469.247C398.548 468.029 400.986 468.794 403.196 472.903C404.641 475.652 410.621 479.421 416.374 481.093C422.014 482.851 427.54 486.166 428.419 488.49C429.326 490.928 430.856 492.033 431.763 491.154C432.642 490.276 431.31 487.187 428.873 484.409ZM329.455 448.531C329.455 447.085 325.374 454.737 320.386 465.365C315.398 476.106 311.431 485.628 311.516 486.507C311.856 488.944 329.569 451.648 329.455 448.531ZM469.399 476.106C464.298 472.903 458.545 473.016 453.67 476.446C450.581 478.656 451.006 478.883 455.569 477.551C458.885 476.644 463.533 477.098 466.083 478.543C471.836 481.745 474.812 479.535 469.399 476.106ZM668.12 456.069C679.938 452.3 694.675 446.32 700.882 442.778C718.594 432.377 716.384 431.158 697.765 441.02C672.655 454.397 644.853 460.717 611.865 460.604C576.78 460.604 562.157 456.721 517.096 435.466C484.221 420.077 459.877 411.122 457.439 413.672C456.873 414.211 463.192 416.761 471.496 419.425C479.8 422.089 499.071 430.393 514.346 438.016C545.889 453.745 564.593 460.377 585.423 463.268C609.201 466.583 644.314 463.608 668.12 456.069ZM345.297 416.336C349.832 407.239 352.921 399.842 352.269 399.842C350.71 399.842 335.01 430.279 335.01 433.142C335.01 436.146 336.653 433.482 345.297 416.336ZM399.654 431.498C400.532 432.915 402.629 434.049 404.415 434.049C407.504 433.936 398.889 426.17 395.658 426.17C394.779 426.17 391.69 427.956 388.913 430.166C384.152 433.822 384.265 433.935 390.897 431.611C395.545 429.939 398.662 429.939 399.654 431.498ZM703.432 423.62C702.525 420.077 703.631 417.867 707.174 416.875C714.825 414.437 721.343 403.271 717.716 398.822C716.044 396.951 715.591 394.401 716.696 393.182C717.801 391.964 717.376 391.737 715.817 392.757C714.173 393.636 710.291 391.963 707.174 389.101C704.085 386.21 701.534 384.652 701.534 385.757C701.534 386.777 700.088 386.324 698.331 384.539C694.562 380.684 688.356 380.344 688.356 384C688.356 385.559 692.464 388.761 697.566 391.085C704.084 394.174 705.869 396.186 703.545 397.717C701.42 399.049 702.639 399.615 706.861 399.162C711.821 398.709 713.607 399.927 714.259 404.49C714.712 407.692 713.72 410.356 712.161 410.356C710.518 410.356 709.837 409.336 710.63 408.033C711.396 406.701 710.291 404.915 708.08 404.15C704.849 402.931 704.538 403.583 706.748 407.693C708.845 411.575 708.505 413.332 705.076 415.203C700.315 417.867 698.104 428.834 702.327 428.834C703.63 428.834 704.197 426.51 703.432 423.62ZM693.457 401.486C690.906 399.162 690.566 399.615 691.898 403.271C692.918 405.907 693.796 410.13 694.023 412.567C694.108 415.004 694.902 414.097 695.554 410.668C696.121 407.239 695.242 403.158 693.457 401.486ZM451.686 411.235C449.901 410.47 446.925 410.47 445.14 411.235C443.269 411.887 444.828 412.567 448.371 412.567C452.027 412.567 453.443 412 451.686 411.235ZM667.214 386.777C667.214 363.198 667.213 363.198 657.379 364.729C645.533 366.628 643.861 367.733 648.736 370.708C651.513 372.494 651.712 373.911 649.501 376.575C647.857 378.474 646.185 385.445 645.732 391.964C644.967 402.931 645.42 403.923 652.817 406.701C667.214 412.227 667.327 412.114 667.327 386.777H667.214ZM654.489 373.372C654.489 369.83 655.056 368.271 655.821 370.17C656.473 371.927 656.473 374.931 655.821 376.688C655.056 378.587 654.489 377.028 654.489 373.486V373.372ZM660.469 375.81C659.59 374.251 660.015 371.587 661.687 370.057C663.784 367.846 664.578 368.611 664.578 372.919C664.578 379.239 663.246 380.231 660.469 375.81ZM684.813 387.203C679.06 381.336 674.525 378.786 672.428 380.117C669.991 381.563 671.55 384.113 677.728 389.215C690.481 399.616 695.781 398.057 684.813 387.203ZM680.279 387.203C673.874 380.004 673.873 380.004 681.072 386.324C687.93 392.304 689.574 394.514 687.477 394.514C687.023 394.514 683.708 391.198 680.279 387.203ZM419.237 376.688C419.124 375.583 418.018 372.38 416.8 369.376C414.703 364.729 414.476 364.955 414.249 371.389C414.249 375.356 415.269 378.672 416.8 378.672C418.245 378.672 419.35 377.794 419.237 376.688ZM403.536 369.603C403.536 366.061 402.431 362.405 400.986 361.526C399.427 360.534 398.322 363.283 398.322 367.96C398.322 372.381 399.54 376.036 400.986 376.036C402.431 376.036 403.536 373.146 403.536 369.603Z" fill="#25549A"/>
<path d="M464.864 873.888C472.743 880.973 472.856 881.625 469.625 891.034C466.423 900.216 466.536 900.557 471.297 898.006C474.075 896.561 477.051 894.123 477.929 892.706C480.593 888.37 487.678 889.702 494.224 895.795C500.856 902.115 501.848 899.791 497.54 888.37C494.99 881.739 495.528 880.293 503.407 873.548L512.136 866.237L501.848 866.917C492.099 867.569 491.22 867.002 487.026 857.168L482.491 846.653L480.593 856.487C478.722 866.01 478.156 866.35 467.755 866.463C456.787 866.577 456.787 866.577 464.864 873.888Z" fill="#25549A"/>
</svg>
