<svg width="961" height="658" viewBox="0 0 961 658" fill="none" xmlns="http://www.w3.org/2000/svg">
<path fill-rule="evenodd" clip-rule="evenodd" d="M440.596 656.744C212.66 640.981 34.9832 527.981 5.02321 379.895C0.838027 359.228 -1.02419 332.955 0.561392 318.04C1.63073 307.733 2.1472 306.59 5.52116 306.94C8.61856 307.309 9.26387 306.369 9.33762 302.055C9.41137 297.593 10.1302 296.726 14.3891 296.21C19.2749 295.639 19.275 295.639 17.9844 305.005C16.0486 318.537 16.5463 351.963 18.9246 366.658C35.481 470.365 129.97 560.669 271.142 607.776C349.351 633.919 435.766 645.442 515.708 640.464C534.79 639.248 552.95 637.883 556.122 637.367C560.86 636.5 562.022 637.017 563.533 640.538C564.547 642.769 566.262 646.014 567.497 647.673C568.64 649.332 569.231 650.992 568.788 651.416C565.119 654.937 470.98 658.901 440.596 656.744ZM443.767 647.102C443.325 644.133 441.813 643.285 435.839 642.843C431.156 642.566 427.782 643.211 426.473 644.723C423.173 648.742 426.27 650.844 435.562 650.844C443.472 650.844 444.265 650.476 443.767 647.102ZM579.371 649.037C579.371 648.097 581.97 647.304 585.068 647.304C589.456 647.378 590.175 647.747 588.165 649.037C584.699 651.268 579.371 651.268 579.371 649.037ZM598.029 645.792C587.723 643.562 587.446 633.053 597.531 631.836C601.274 631.393 602.214 631.965 602.214 634.86C602.214 636.869 603.007 638.528 603.929 638.528C604.943 638.528 605.736 636.943 605.736 634.915C605.736 631.319 611.635 628.001 618.125 628.001C620.577 628.001 621.499 629.162 621.499 632.334C621.499 638.086 625.979 636.445 628.284 629.734C629.722 625.641 631.511 624.48 639.365 622.82C691.652 611.666 764.256 580.618 810.773 549.589C836.197 532.59 846.135 524.588 868.462 502.906C884.226 487.567 884.3 487.567 884.226 493.19C884.171 498.297 883.58 498.887 878.4 499.385C873.495 499.883 872.647 500.602 873.071 503.773C873.569 507.018 874.583 507.516 879.34 507.092C882.511 506.723 885.092 507.239 885.092 508.161C885.092 511.129 857.584 536.185 840.309 548.999C821.153 563.195 784.629 585.799 780.813 585.799C779.449 585.799 777.863 584.158 777.365 582.13C776.425 578.535 776.277 578.535 771.023 581.632C764.533 585.448 763.888 588.398 769.861 586.887C772.24 586.315 774.692 586.592 775.263 587.606C777.863 591.865 713.979 618.358 669.62 631.467C650.095 637.219 605.017 647.894 603.505 647.102C603.283 646.954 600.758 646.382 598.029 645.792ZM746.317 598.981C746.317 597.543 745.525 596.326 744.511 596.326C743.589 596.326 742.796 597.543 742.796 598.981C742.796 600.419 743.589 601.654 744.511 601.654C745.525 601.654 746.317 600.419 746.317 598.981ZM793.35 568.597C793.7 567.436 792.779 566.514 791.248 566.514C789.737 566.514 788.446 567.731 788.446 569.242C788.446 572.34 792.262 571.842 793.35 568.597ZM809.833 565.647C809.833 564.707 808.966 563.619 807.897 563.343C806.883 562.974 806.016 563.988 806.016 565.647C806.016 567.233 806.883 568.228 807.897 567.878C808.966 567.583 809.833 566.514 809.833 565.647ZM418.637 620.091C290.077 606.54 182.258 562.181 110.243 493.264C97.4292 480.948 94.1104 476.837 95.1244 474.256C96.1938 471.509 97.5582 472.449 104.988 480.727C136.958 516.661 205.672 559.231 267.252 581.337C317.732 599.498 374.85 611.444 435.766 616.551C445.777 617.418 449.39 618.359 449.39 620.239C449.39 623.115 447.731 623.115 418.637 620.091ZM462.923 620.091C465.08 618.58 477.894 617.639 503.835 616.994C593.715 614.689 683.226 592.436 756.55 554.05C767.483 548.353 778.011 543.671 779.946 543.671C781.901 543.671 783.91 542.233 784.408 540.573C784.924 538.859 791.119 533.733 798.162 529.124C848.938 496.066 889.701 447.596 906.774 399.992C916.066 374.217 917.357 365.644 917.652 330.577C917.799 312.49 918.445 297.151 919.09 296.505C922.114 293.482 922.833 300.469 922.833 330.779C922.833 367.801 919.735 384.081 907.069 413.617C860.903 521.417 719.234 601.876 543.364 620.091C510.951 623.465 458.019 623.465 462.923 620.091ZM470.482 608.993C470.482 607.997 471.201 606.614 472.068 606.116C474.004 604.899 437.996 559.157 433.829 557.351C429.866 555.71 424.759 555.71 424.814 557.295C424.888 558.014 432.391 568.025 441.536 579.475C450.681 590.998 458.166 601.083 458.166 601.876C458.166 606.19 453.409 601.212 437.074 580.12C427.118 567.307 418.343 557 417.55 557.295C414.876 558.014 370.296 593.303 370.296 594.667C370.296 596.529 402.634 600.862 442.827 604.383C449.317 604.955 454.202 606.116 453.705 607.056C450.755 611.739 390.613 605.471 344.816 595.681C198.906 564.338 86.2565 482.091 58.5274 386.533C40.8832 325.599 54.3603 258.618 94.4054 208.064C103.9 196.043 109.026 196.54 99.8631 208.561C91.3083 219.955 74.8807 247.021 75.8947 248.035C76.3188 248.477 84.8184 246.67 94.7559 243.997C104.767 241.416 116.069 238.521 119.959 237.673C141.346 232.695 140.055 234.06 137.4 220.379C136.091 213.613 133.713 200.873 132.128 192.005L129.178 175.873L118.669 186.677C112.916 192.65 107.864 197.554 107.514 197.554C107.145 197.554 106.777 196.116 106.777 194.457C106.777 188.262 143.651 154.91 171.822 135.68C238.435 89.9565 313.621 63.3154 414.231 49.6906C436.134 46.7406 525.498 46.6667 546.903 49.6166C585.068 54.8158 613.147 60.2179 641.393 67.7032C648.085 69.5101 648.804 72.8104 642.462 72.8104C639.217 72.8104 639.143 73.1052 641.669 77.991C643.181 80.8119 643.697 83.5407 642.904 84.0569C642.038 84.6285 639.936 81.9552 638.295 78.1387C635.548 72.0914 628.284 67.2608 625.684 69.8604C625.26 70.2845 630.663 83.0428 637.705 98.3086C646.795 117.962 651.68 126.462 654.501 127.771C661.194 130.868 661.046 127.974 653.34 111.27C649.302 102.42 646.426 94.787 646.998 94.197C648.657 92.5561 650.814 96.0778 658.373 113.501L665.729 130.499L691.504 117.169C705.701 109.905 717.943 103.342 718.736 102.697C719.455 101.978 712.965 98.4562 704.189 94.7872C695.321 91.0998 688.333 87.0803 688.333 85.7713C688.333 83.9092 690.435 84.1858 697.552 87.0067C733.061 100.982 769.142 120.064 769.142 124.876C769.142 126.683 764.754 125.024 754.171 119.345C744.732 114.146 739.256 112.063 739.33 113.501C739.33 114.81 741.56 128.121 744.307 143.11C747.976 163.262 749.912 170.249 751.719 170.12C753.084 169.973 766.266 167.447 781.108 164.423C795.857 161.4 808.321 158.874 808.763 158.874C812.063 158.874 807.178 154.191 792.834 143.829C777.07 132.306 773.751 129.061 778.01 129.061C783.615 129.061 826.481 162.266 844.125 180.334C870.472 207.271 894.311 246.818 903.456 278.787C938.394 401.374 851.113 518.91 681.493 577.742C659.682 585.375 620.135 595.607 596.517 599.848C582.321 602.447 579.371 602.521 579.371 600.493C579.371 599.203 580.385 598.115 581.602 598.115C582.763 598.115 586.801 597.266 590.544 596.252L597.236 594.372L589.898 588.767C585.86 585.67 574.614 577.023 564.972 569.538C555.255 562.108 546.387 555.912 545.244 555.912C543.511 555.912 518.381 586.591 507.43 602.005C504.904 605.545 504.978 605.545 521.479 604.383C530.623 603.738 543.732 602.447 550.572 601.433C563.091 599.7 574.835 600.069 577.066 602.226C577.712 602.871 577.859 603.388 577.435 603.388C577.066 603.388 566.852 604.604 554.739 606.116C525.074 609.711 470.409 611.592 470.409 608.993H470.482ZM501.604 581.779C518.658 559.655 519.303 558.586 515.063 558.015C509.31 557.295 505.992 560.393 492.883 578.313C487.112 586.315 481.784 592.86 481.065 592.86C480.42 592.86 473.727 584.951 466.297 575.29C454.571 559.95 452.193 557.719 447.583 557.719C444.707 557.719 442.329 558.144 442.329 558.807C442.329 561.536 478.687 605.028 480.991 605.028C482.43 605.028 491.721 594.593 501.604 581.779ZM518.658 581.189C529.038 568.081 537.095 557 536.745 556.632C536.376 556.207 533.5 556.429 530.402 557.074C526.291 557.867 522.696 560.817 517.367 567.731C513.33 572.985 505.475 582.996 499.944 589.91C494.395 596.824 489.859 603.093 489.859 603.812C489.786 604.531 492.09 605.102 494.893 605.102C499.355 605.102 502.323 602.152 518.658 581.189ZM386.225 576.156C399.186 565.998 410.138 556.853 410.415 555.912C410.784 554.991 408.552 554.198 405.602 554.198C401.344 554.198 395.002 558.143 377.284 571.971C364.765 581.779 354.532 590.408 354.532 591.127C354.532 592.362 356.763 593.377 361.667 594.372C362.165 594.52 373.264 586.315 386.225 576.156ZM614.733 591.072C620.651 589.413 621.942 587.679 631.234 569.538C636.783 558.66 643.329 546.418 645.707 542.306C648.085 538.195 649.302 534.894 648.509 534.894C641.172 535.042 638.572 538.121 624.965 563.048L610.713 589.118L587.299 571.547C566.981 556.355 563.036 554.051 557.984 554.475C552.305 555.046 552.803 555.562 576.789 573.925C601.919 593.303 603.8 594.096 614.733 591.072ZM348.19 585.375C327.965 545.699 320.258 534.894 312.33 534.894C311.04 534.894 332.574 575.935 339.764 587.108C341.276 589.486 344.023 591.072 346.678 591.072C351.066 591.072 351.066 591.072 348.19 585.375ZM326.379 571.326C321.475 562.402 314.93 550.16 311.888 544.113C308.809 538.066 304.918 532.664 303.185 532.074C300.162 531.152 247.432 557.222 247.359 559.655C247.359 560.319 248.741 561.241 250.4 561.757C252.115 562.255 263.786 566.366 276.323 570.902C299.516 579.18 326.508 587.182 332.132 587.458C334.657 587.532 333.643 584.582 326.379 571.326ZM652.916 581.411C676.46 574.571 707.71 563.546 709.941 561.388C712.117 559.231 661.046 530.857 657.23 532.074C655.497 532.59 652.252 536.83 650.095 541.44C645.283 551.672 631.086 578.166 627.565 583.642C625.186 587.255 625.26 587.532 628.358 587.532C630.22 587.532 641.319 584.803 652.916 581.411ZM376.417 568.081C395.37 553.534 395.647 553.331 389.968 552.741C385.211 552.317 381.69 554.05 369.946 562.826L355.676 573.483L347.618 558.438C339.617 543.523 335.727 539.356 330.767 540.426C328.886 540.868 331.56 546.989 340.705 563.472C349.204 578.756 353.813 585.375 355.178 584.361C356.265 583.494 365.834 576.23 376.417 568.081ZM492.164 572.838C497.64 565.776 502.102 559.453 502.102 558.807C502.102 558.217 500.092 557.719 497.713 557.719C493.602 557.719 490.578 560.172 483.738 569.095C481.065 572.561 480.862 572.413 474.446 565.131C468.399 558.291 459.899 554.843 459.899 559.305C459.899 561.462 479.129 585.799 480.862 585.799C481.655 585.799 486.762 579.973 492.164 572.838ZM621.296 561.96C627.417 550.805 631.953 541.163 631.381 540.573C628.21 537.402 621.075 544.611 614.456 557.793C607.321 572.045 607.321 572.045 601.698 567.583C585.068 554.475 578.449 550.732 573.692 552.022C569.23 553.258 570.005 554.05 588.663 567.804C599.467 575.788 608.759 582.277 609.257 582.277C609.773 582.277 615.175 573.133 621.296 561.96ZM369.227 558.66C378.943 551.1 379.164 550.732 374.905 549.644C371.808 548.925 368.858 549.718 365.115 552.391C359.787 556.208 359.787 556.208 356.69 550.732C354.035 546.049 346.899 541.882 344.89 543.892C343.949 544.832 356.339 566.514 357.851 566.514C358.57 566.514 363.677 562.974 369.227 558.66ZM483.665 562.974C486.762 559.526 486.688 559.452 481.213 559.452C476.179 559.452 475.81 559.803 477.47 562.974C478.558 564.928 479.627 566.514 479.922 566.514C480.198 566.514 481.858 564.928 483.665 562.974ZM612.281 554.198C617.48 544.537 617.627 543.671 614.53 543.671C611.137 543.671 609.478 545.035 604.943 551.525C602.638 554.843 602.343 554.843 599.19 551.949C595.65 548.796 585.639 547.634 586.727 550.51C587.52 552.741 602.712 564.559 604.869 564.633C605.809 564.633 609.184 559.95 612.281 554.198ZM729.89 547.782C732.914 537.549 741.063 497.431 740.27 496.638C739.901 496.214 737.966 496.785 736.011 497.799C733.43 499.164 731.697 503.423 729.54 513.36C727.88 520.845 725.281 532.664 723.695 539.578L720.819 552.17L697.92 539.209C681.493 529.917 673.86 526.543 671.131 527.262C668.974 527.76 667.241 528.847 667.241 529.492C667.241 530.211 678.395 537.125 692.094 544.906C715.988 558.512 717.224 558.936 722.405 556.779C726.369 555.12 728.378 552.741 729.89 547.782ZM267.325 544.389C296.05 528.976 296.493 528.626 290.501 527.114C287.053 526.248 280.711 528.847 262.274 538.49C249.239 545.33 238.582 550.382 238.582 549.589C238.582 548.87 236.499 537.918 233.973 525.307C229.714 503.699 225.179 493.19 221.657 496.712C220.643 497.726 223.667 515.591 230.009 545.772C231.669 553.479 234.121 555.839 241.827 557.572C242.177 557.646 253.627 551.746 267.325 544.389ZM521.405 552.391C672.072 541.292 794.936 479.068 839.147 391.363C854.487 360.813 857.363 319.92 846.43 287.932C826.758 230.833 767.999 178.675 684.461 144.106C622.513 118.552 554.463 105.646 480.991 105.646C380.602 105.646 288.565 130.075 213.453 176.665C99.2912 247.463 75.9686 354.545 156.335 439.244C230.304 517.177 378.076 562.974 521.405 552.391ZM466.094 545.975C346.531 541.735 243.192 506.649 175.712 447.467C169.739 442.12 164.761 437.087 164.761 436.294C164.761 432.625 169.591 435.427 182.977 446.803C253.701 506.594 362.387 540.794 481.858 540.794C548.415 540.794 610.566 530.359 666.154 509.968C796.152 462.143 862.691 374.641 833.174 290.163C803.214 204.321 676.81 133.523 529.462 119.99C498.931 117.169 429.718 119.05 401.915 123.438C286.334 141.672 190.038 191.286 146.748 255.096C111.036 307.604 113.488 366.731 153.312 415.774C164.337 429.306 163.323 435.077 152.094 422.466C135.022 403.237 122.633 377.462 117.876 351.244C115.221 336.476 115.792 313.135 118.963 312.066C119.885 311.771 120.254 309.393 119.756 306.812C119.24 303.917 120.752 296.8 123.573 288.872C145.107 228.879 207.903 177.034 299.148 143.977C453.778 87.9471 640.877 109.113 763.814 196.614C781.901 209.428 805.942 232.917 816.968 248.477C878.4 335.315 837.285 433.27 713.407 495.126C644.048 529.769 550.498 548.999 466.094 545.975ZM375.919 513.434C373.541 510.982 373.19 501.763 375.348 498.223C376.214 496.933 378.722 496.14 381.026 496.509C384.493 497.007 385.359 498.224 385.783 503.773C386.576 513.508 381.247 518.689 375.919 513.434ZM382.261 505.432C381.966 501.837 380.971 498.813 379.957 498.813C379.017 498.813 378.002 501.837 377.652 505.432C377.283 510.539 377.8 511.996 379.957 511.996C382.188 511.996 382.685 510.539 382.261 505.432ZM390.835 514.227C390.466 513.508 390.116 509.101 390.042 504.418C389.968 495.993 389.968 495.993 395.517 496.583C400.772 497.081 401.049 497.505 401.344 505.008C401.491 509.396 400.772 513.434 399.611 514.153C396.956 515.867 391.83 515.868 390.835 514.227ZM398.394 509.396C398.394 507.958 397.306 506.723 395.868 506.723C392.992 506.723 390.982 509.249 392.623 510.908C394.725 512.991 398.467 512.051 398.467 509.396H398.394ZM398.025 501.192C396.956 497.873 393.139 497.375 393.139 500.473C393.139 501.985 394.356 503.201 395.942 503.201C397.454 503.201 398.394 502.261 398.025 501.192ZM406.598 514.356C404.072 511.775 405.658 510.263 409.843 511.258C413.512 512.199 414.231 511.775 414.231 508.53C414.231 505.211 413.512 504.787 409.843 505.727C406.672 506.52 405.455 506.078 405.455 504.289C405.455 498.74 407.686 496.214 412.719 496.214C415.743 496.214 417.476 496.933 416.831 497.947C416.259 498.942 414.028 499.735 411.927 499.735C408.258 499.735 408.257 499.883 412.443 501.985C417.476 504.566 418.988 509.249 415.891 512.992C413.733 515.665 408.626 516.384 406.598 514.356ZM419.486 514.725C419.486 514.3 422.012 511.056 425.035 507.59C429.073 502.98 430.013 500.749 428.649 499.385C427.192 497.947 425.902 498.095 423.671 499.883C421.071 502.04 420.795 501.985 421.514 499.735C422.011 498.297 424.538 496.859 427.119 496.509C433.609 495.79 434.973 500.399 430.216 506.87C426.473 511.996 426.473 511.996 429.939 511.996C431.949 511.996 433.535 512.77 433.535 513.784C433.535 514.725 430.364 515.517 426.473 515.517C422.657 515.517 419.486 515.149 419.486 514.725ZM443.195 513.784C443.841 512.77 442.329 511.996 439.803 511.996C434.254 511.996 434.18 510.189 439.232 502.335C444.486 494.278 447.086 494.628 448.008 503.699C448.948 512.568 448.081 515.517 444.707 515.517C443.251 515.517 442.605 514.725 443.195 513.784ZM442.329 505.856C442.329 504.418 442.034 503.201 441.684 503.201C441.241 503.201 440.522 504.418 439.951 505.856C439.379 507.313 439.656 508.53 440.596 508.53C441.536 508.53 442.329 507.313 442.329 505.856ZM452.838 511.922C451.695 509.747 451.253 505.58 451.898 502.04C452.912 496.785 453.631 496.066 457.668 496.583C462.849 497.154 465.302 502.833 463.495 510.263C462.057 516.089 455.567 517.103 452.838 511.922ZM459.899 506.004C459.899 502.63 459.18 499.459 458.314 498.942C456.359 497.726 453.926 507.663 455.511 510.189C457.742 513.932 459.899 511.849 459.899 506.004ZM466.961 512.918C466.961 508.235 470.777 496.214 472.363 496.214C473.082 496.214 472.566 500.251 471.275 505.137C468.749 514.798 466.961 518.043 466.961 512.918ZM482.724 513.784C482.724 512.77 481.139 511.996 479.203 511.996C474.741 511.996 474.797 509.544 479.406 502.114C484.089 494.554 486.264 494.628 486.264 502.335C486.264 505.727 487.039 508.53 488.053 508.53C489.067 508.53 488.919 509.968 487.628 511.996C485.324 515.739 482.798 516.66 482.798 513.784H482.724ZM482.724 505.801C482.724 504.289 481.932 503.496 480.991 504.142C479.996 504.713 479.203 505.93 479.203 506.87C479.203 507.737 479.996 508.53 480.991 508.53C481.932 508.53 482.724 507.313 482.724 505.801ZM498.857 509.82C498.636 505.285 497.714 503.275 495.907 503.275C492.514 503.275 492.514 500.749 495.98 497.947C499.871 494.702 500.59 496.435 499.871 507.018C499.354 513.858 499.078 514.651 498.857 509.82ZM507.356 514.301C507.356 513.637 509.44 510.908 511.965 508.235C517.072 502.906 516.796 495.495 511.671 499.735C508.721 502.187 506.268 501.044 508.149 498.095C509.956 495.126 517.865 495.864 519.1 499.164C519.746 500.749 518.953 504.289 517.367 507.018C514.915 511.258 514.915 511.996 517.073 511.996C518.455 511.996 519.598 512.77 519.598 513.784C519.598 514.725 516.87 515.517 513.477 515.517C510.085 515.517 507.282 515.02 507.282 514.301H507.356ZM525 513.36C525 512.125 526.162 509.175 527.526 506.723C530.9 500.823 530.771 499.735 526.66 499.735C524.705 499.735 523.138 498.942 523.138 497.947C523.138 497.007 525.941 496.214 529.315 496.214C532.707 496.214 535.436 496.435 535.436 496.712C535.436 497.007 533.869 500.325 531.914 504.142C529.978 507.884 528.466 512.051 528.466 513.286C528.466 514.503 527.674 515.517 526.66 515.517C525.719 515.517 524.927 514.577 525 513.36ZM545.391 513.065C544.801 511.48 543.087 510.908 540.838 511.48C538.754 512.051 537.169 511.553 537.169 510.466C537.169 507.313 544.875 496.288 547.106 496.214C549.208 496.214 551.291 509.322 549.927 513.36C548.839 516.31 546.608 516.089 545.391 513.065ZM545.963 505.008C545.963 503.054 545.594 501.468 545.17 501.468C544.728 501.468 543.511 503.054 542.497 505.008C540.985 507.811 541.133 508.53 543.29 508.53C544.802 508.53 545.963 507.018 545.963 505.008ZM556.048 514.429C553.743 512.125 554.739 509.82 557.118 511.775C559.717 513.932 561.8 512.715 561.8 509.101C561.8 507.811 560.288 506.723 558.426 506.723C554.61 506.723 551.715 500.325 554.389 497.652C555.329 496.712 557.984 496.14 560.289 496.509C564.031 497.007 564.474 497.947 564.474 505.856C564.474 513.36 563.884 514.724 560.86 515.148C558.851 515.443 556.693 515.148 556.048 514.429ZM560.934 501.763C560.934 498.592 557.486 499.164 556.841 502.482C556.472 504.289 557.044 505.082 558.556 504.64C559.865 504.216 560.934 502.906 560.934 501.763ZM570.079 514.429C567.424 511.848 569.009 510.263 573.25 511.258C576.495 512.125 577.656 511.701 577.656 509.746C577.656 508.235 576.642 506.723 575.407 506.299C573.692 505.727 573.692 505.008 575.481 502.777C576.919 501.118 577.14 499.606 576.07 498.942C575.13 498.371 573.84 498.74 573.25 499.735C572.605 500.749 571.388 501.044 570.447 500.528C567.774 498.813 570.447 496.214 574.909 496.214C579.666 496.214 580.532 498.021 580.385 507.59C580.311 513.784 579.74 514.724 575.776 515.148C573.324 515.443 570.798 515.148 570.079 514.429ZM308.809 465.461C308.809 454.012 308.809 454.012 315.649 454.012C323.06 454.012 327.448 457.533 325.66 462.142C325.07 463.728 325.439 466.033 326.453 467.342C330.324 472.025 325.365 476.911 316.645 476.911C308.809 476.911 308.809 476.91 308.809 465.461ZM322.562 470.292C321.622 465.609 314.063 465.111 314.063 469.72C314.063 472.449 315.206 473.389 318.599 473.389C321.973 473.389 322.987 472.596 322.562 470.292ZM322.415 460.631C321.327 457.257 314.063 456.741 314.063 460.059C314.063 461.866 315.649 462.806 318.599 462.806C321.475 462.806 322.913 462.013 322.415 460.631ZM333.864 474.68C330.693 470.513 329.974 466.328 331.781 461.497C336.593 448.979 351.011 452.795 351.011 466.549C351.011 469.923 349.997 473.592 348.835 474.753C346.107 477.556 336.095 477.482 333.864 474.68ZM346.752 468.983C347.324 466.549 347.397 463.378 346.826 461.94C344.226 455.155 335.155 457.828 335.155 465.314C335.155 473.537 344.816 476.634 346.752 468.983ZM356.984 472.596C353.518 467.268 355.03 458.326 359.787 455.819C364.47 453.293 369.503 453.643 372.103 456.74C375.126 460.354 373.191 461.792 368.932 459.119C363.179 455.524 359.436 458.326 360.082 465.904C360.58 471.656 361.299 472.596 365.484 473.02C368.931 473.463 370.296 472.817 370.296 470.863C370.296 469.351 369.503 468.135 368.507 468.135C367.567 468.135 366.774 467.342 366.774 466.328C366.774 465.387 368.784 464.595 371.163 464.595C374.555 464.595 375.569 465.461 375.569 468.632C375.569 474.256 372.398 476.911 365.631 476.911C361.446 476.911 359.068 475.694 356.984 472.596ZM381.967 473.665C375.643 466.623 380.307 454.012 389.323 454.012C394.282 454.012 400.2 459.985 400.2 465.111C400.2 475.251 388.456 480.801 381.967 473.665ZM394.006 465.461C394.006 459.561 393.416 458.326 390.115 457.902C387.295 457.459 385.58 458.547 384.198 461.571C381.543 467.471 384.861 473.813 390.189 473.02C393.416 472.596 394.006 471.361 394.006 465.461ZM408.977 467.194C408.977 458.621 408.553 457.533 405.308 457.533C403.353 457.533 402.21 456.741 402.782 455.819C403.427 454.805 407.391 454.012 411.724 454.012C415.964 454.012 419.486 454.805 419.486 455.819C419.486 456.741 417.9 457.533 415.964 457.533C412.867 457.533 412.516 458.695 412.516 467.194C412.516 472.522 411.724 476.911 410.71 476.911C409.769 476.911 408.977 472.522 408.977 467.194ZM423.671 465.904C425.902 459.838 428.778 454.952 430.087 454.952C431.377 454.952 434.327 459.561 436.632 465.24C440.744 475.472 440.596 480.506 436.282 474.68C433.534 470.937 426.768 470.642 425.404 474.256C424.814 475.694 423.302 476.911 421.938 476.911C420.076 476.911 420.426 474.385 423.671 465.904ZM432.318 464.595C431.801 462.659 430.658 461.571 429.866 462.069C427.34 463.599 428.059 468.135 430.732 468.135C432.318 468.135 432.889 466.899 432.318 464.595ZM451.105 475.399C451.105 471.361 455.069 456.685 456.655 455.026C458.664 452.721 458.535 456.021 456.157 466.033C454.202 474.108 451.105 479.86 451.105 475.399ZM470.409 465.461C470.409 454.012 470.408 454.012 478.336 454.012C482.724 454.012 486.264 454.805 486.264 455.819C486.264 456.741 483.517 457.533 480.125 457.533C475.811 457.533 473.948 458.326 473.948 460.207C473.948 461.94 475.737 462.806 479.203 462.806C482.153 462.806 484.531 463.599 484.531 464.595C484.531 465.535 482.153 466.328 479.203 466.328C475.165 466.328 473.948 467.12 473.948 469.849C473.948 472.744 475.092 473.389 480.125 473.389C483.517 473.389 486.264 474.182 486.264 475.122C486.264 476.118 482.724 476.911 478.336 476.911C470.408 476.911 470.409 476.91 470.409 465.461ZM490.136 466.033C490.8 451.633 495.04 449.476 495.04 463.599C495.04 473.315 495.114 473.389 500.295 473.389C503.171 473.389 505.549 474.182 505.549 475.122C505.549 476.118 501.954 476.911 497.566 476.911C489.564 476.911 489.565 476.91 490.136 466.033ZM517.865 465.24C517.865 453.588 517.865 453.588 525.148 454.583C529.185 455.1 533.131 456.611 533.924 457.902C540.193 467.415 535.657 476.911 524.853 476.911C517.865 476.911 517.865 476.91 517.865 465.24ZM531.619 466.549C532.209 460.631 530.052 457.607 525.369 457.607C523.912 457.533 523.138 460.354 523.138 465.609C523.138 472.873 523.489 473.592 527.084 473.02C530.181 472.596 531.195 471.158 531.619 466.549ZM543.935 474.753C537.888 470.144 539.842 456.538 546.756 454.805C556.97 452.205 564.326 461.497 559.791 471.084C557.044 476.689 548.913 478.57 543.935 474.753ZM555.679 466.549C555.679 459.34 551.292 455.671 547.033 459.193C541.28 463.949 544.949 474.034 552.084 473.02C554.886 472.596 555.679 471.158 555.679 466.549ZM565.34 465.461C565.34 454.012 565.34 454.012 571.093 454.012C579.021 454.012 583.63 457.607 582.118 462.511C581.473 464.595 580.164 466.328 579.224 466.328C578.302 466.328 578.873 468.337 580.385 470.716C581.97 473.168 583.907 475.122 584.626 475.122C585.363 475.122 587.667 470.365 589.751 464.595C591.908 458.769 594.637 454.012 595.872 454.012C597.089 454.012 600.112 459.193 602.638 465.461C605.883 473.666 606.528 476.911 604.869 476.911C603.652 476.911 602.141 475.694 601.551 474.256C601.053 472.818 598.527 471.582 596.093 471.582C593.567 471.582 591.115 472.818 590.544 474.256C588.884 478.644 579.887 477.482 576.568 472.522C574.983 470.07 572.604 468.135 571.24 468.135C569.876 468.135 568.862 469.923 568.862 472.522C568.862 474.901 568.069 476.911 567.055 476.911C566.059 476.911 565.34 471.877 565.34 465.461ZM598.674 466.752C598.601 465.111 595.226 459.764 595.226 461.35C595.226 462.013 594.71 463.802 594.139 465.314C593.42 467.121 593.991 468.135 595.872 468.135C597.457 468.135 598.674 467.471 598.674 466.752ZM577.287 460.631C577.712 458.326 576.716 457.533 573.324 457.533C569.95 457.533 568.862 458.474 568.862 461.221C568.862 465.83 576.421 465.314 577.287 460.631ZM609.257 465.461C609.257 454.012 609.257 454.012 615.378 454.012C626.477 454.012 632.027 464.097 625.832 472.946C623.804 475.896 621.37 476.911 616.171 476.911C609.257 476.911 609.257 476.91 609.257 465.461ZM622.956 466.549C623.527 460.631 621.444 457.607 616.687 457.607C615.249 457.533 614.53 460.354 614.53 465.609C614.53 472.873 614.881 473.592 618.476 473.02C621.499 472.596 622.513 471.158 622.956 466.549ZM633.686 474.108C630.367 470.07 631.086 459.119 634.903 456.316C639.291 453.072 645.062 453.514 648.509 457.257C651.902 460.999 652.326 471.73 649.302 474.753C646.279 477.777 636.415 477.353 633.686 474.108ZM647.219 468.706C648.657 463.156 646.057 458.4 641.743 458.4C637.355 458.4 634.829 463.156 636.267 468.706C637.134 472.154 638.498 473.389 641.743 473.389C644.988 473.389 646.352 472.154 647.219 468.706ZM428.28 450.546C428.28 449.55 429.497 448.757 431.009 448.757C432.521 448.757 433.258 449.55 432.668 450.546C432.097 451.486 430.88 452.279 429.939 452.279C428.999 452.279 428.28 451.486 428.28 450.546ZM266.385 428.237C249.608 417.783 248.944 383.14 265.224 370.972C276.747 362.325 295.479 366.142 301.674 378.328C305.342 385.445 305.342 385.445 299.59 386.957C294.465 388.395 293.451 387.971 289.782 383.509C284.97 377.591 277.835 376.872 271.787 381.776C266.459 386.09 264.8 404.97 269.04 413.174C274.018 422.761 286.98 422.171 291.146 412.16C293.174 407.274 293.672 407.053 298.429 408.712C305.343 411.091 305.914 412.603 302.669 418.945C296.77 430.247 277.54 435.151 266.385 428.237ZM326.877 427.721C317.732 422.171 313.621 411.957 314.34 396.765C315.354 376.743 324.425 367.082 342.216 367.082C354.606 367.082 360.506 370.751 366.48 382.145C374.186 396.821 369.503 420.457 357.482 427.795C349.849 432.404 334.51 432.404 326.877 427.721ZM350.495 418.004C359.566 411.588 360.156 388.837 351.435 381.997C341.129 373.922 328.886 380.633 327.024 395.309C324.646 413.395 338.326 426.504 350.495 418.004ZM380.823 431.187V367.948H394.854V420.659H408.977C423.026 420.659 423.025 420.66 423.025 425.932C423.025 431.187 423.026 431.187 401.915 431.187H380.823ZM440.891 427.647C432.17 422.319 427.708 410.87 428.575 395.899C429.294 383.14 432.097 377.536 441.02 370.898C453.059 361.901 474.668 367.377 481.711 381.131C489.491 396.249 484.881 418.871 472.363 427.223C464.435 432.551 449.243 432.699 440.891 427.647ZM466.168 416.64C474.077 409.856 474.446 389.556 466.887 381.997C462.278 377.388 451.031 377.241 446.938 381.776C439.231 390.275 439.656 407.698 447.731 415.847C453.704 421.747 459.899 422.042 466.168 416.64ZM496.773 399.568V367.948H505.623C511.173 367.948 514.694 368.741 515.136 370.179C515.487 371.341 517.939 380.485 520.686 390.349C523.341 400.287 525.793 408.067 526.217 407.624C526.586 407.274 528.098 402.296 529.536 396.692C537.095 366.584 536.302 367.948 545.889 367.948C554.536 367.948 554.536 367.948 555.606 378.973C556.251 384.947 556.472 398.996 556.177 410.15C555.68 430.32 555.679 430.32 550.001 430.892C544.304 431.39 544.304 431.39 543.88 408.067L543.364 384.652L538.404 404.822C535.657 415.976 533.076 426.43 532.56 428.163C531.988 430.247 529.978 431.187 525.867 431.187C520.096 431.187 520.096 431.187 514.123 407.92L508.223 384.652L507.78 407.92C507.283 431.187 507.282 431.187 502.028 431.187C496.847 431.187 496.847 431.187 496.847 399.568H496.773ZM568.862 431.611V367.948H587.151C603.8 367.948 605.957 368.317 609.847 371.912C615.82 377.388 616.834 383.656 613.018 391.142C609.921 397.263 609.921 397.411 613.94 401.301C620.707 407.846 618.844 422.319 610.419 427.721C607.966 429.306 599.91 430.468 587.723 430.892L568.862 431.611ZM604.297 414.538C607.542 407.422 602.269 403.089 590.544 403.089C581.104 403.089 581.104 403.089 581.104 411.017C581.104 418.871 581.104 418.871 591.687 418.871C601.274 418.871 602.491 418.502 604.297 414.538ZM601.2 389.778C607.616 383.435 602.343 378.457 589.179 378.457C581.104 378.457 581.104 378.457 581.104 385.519C581.104 392.58 581.104 392.58 589.824 392.58C595.3 392.58 599.467 391.566 601.2 389.778ZM628.561 399.568C628.561 367.948 628.561 367.948 634.682 367.948C640.877 367.948 640.877 367.948 640.877 399.568C640.877 431.187 640.877 431.187 634.682 431.187C628.561 431.187 628.561 431.187 628.561 399.568ZM648.731 428.163C651.035 422.319 663.13 389.907 667.168 378.826C671.205 367.801 671.205 367.801 678.193 368.317C685.18 368.815 685.18 368.815 696.335 399.568C702.53 416.493 707.563 430.542 707.563 430.745C707.563 430.966 704.466 431.187 700.649 431.187C694.104 431.187 693.606 430.818 691.578 424.199C689.495 417.138 689.495 417.138 677.75 417.138C666.025 417.138 666.025 417.138 663.923 424.199C661.913 430.892 661.471 431.187 654.631 431.187C648.583 431.187 647.717 430.745 648.731 428.163ZM683.945 401.798C683.3 400.065 681.862 395.751 680.7 392.082C678.119 383.712 677.031 383.859 674.376 392.727C673.215 396.691 671.777 401.08 671.279 402.37C670.56 404.251 672.146 404.822 677.75 404.822C684.093 404.822 684.959 404.398 683.945 401.798ZM199.902 409.358C199.902 408.786 200.989 405.541 202.428 402.222C204.88 396.249 204.806 396.028 199.33 391.714C193.707 387.326 193.707 387.325 201.137 387.325C208.18 387.252 208.548 386.957 209.71 381.131C211.148 373.424 212.936 373.277 215.038 380.688C216.476 385.666 217.62 386.533 223.667 387.252C230.581 388.192 230.581 388.192 225.4 391.935C220.367 395.604 220.219 396.028 222.081 402.941C224.036 410.15 224.035 410.15 218.136 405.689C212.144 401.153 212.144 401.153 206.023 405.836C202.649 408.417 199.902 410.003 199.902 409.431V409.358ZM739.828 406.481C742.925 395.309 742.925 395.235 737.099 391.216C731.402 387.252 731.402 387.252 738.758 387.252C745.893 387.252 746.17 387.03 748.327 379.969L750.502 372.705L752.936 379.969C755.241 386.957 755.683 387.252 762.671 387.325C769.585 387.399 769.787 387.547 766.487 390.054C764.533 391.566 761.952 393.373 760.79 394.018C759.131 394.958 759.057 396.821 760.292 401.301C762.523 408.934 761.657 409.653 755.757 405.043C751 401.301 751 401.301 744.879 406.039C738.684 410.722 738.685 410.722 739.828 406.481ZM336.888 336.55C336.888 331.222 342.143 325.968 349.425 323.94C353.961 322.723 359.215 319.256 363.972 314.297C368.931 309.116 372.969 306.443 375.846 306.443C378.224 306.443 382.114 304.507 384.345 302.055C386.65 299.676 389.249 297.667 390.189 297.667C391.037 297.667 395.002 294.846 398.818 291.398C404.736 286.07 406.672 285.204 411.355 286.144C417.845 287.361 417.476 287.434 430.953 285.775L441.462 284.484L441.739 253.142C442.034 227.441 442.679 220.379 445.279 214.037C447.012 209.796 448.874 206.33 449.446 206.33C452.414 206.33 456.949 221.025 457.742 233.138C458.461 244.937 459.033 246.744 461.835 246.744C464.066 246.744 465.154 245.435 465.154 242.78C465.228 238.595 468.602 231.755 468.602 235.719C468.676 238.964 472.437 238.318 477.175 234.354C479.922 232.05 481.065 229.672 480.42 227.367C479.922 225.486 480.272 223.477 481.139 222.905C482.005 222.389 482.724 224.269 482.724 227.072C482.724 233.064 491.445 240.697 493.03 236.014C493.455 234.649 494.745 236.217 495.907 239.683C497.05 243.075 499.299 246.099 500.867 246.375C503.319 246.892 503.835 245.435 503.761 237.673C503.761 229.1 510.085 206.33 512.463 206.33C513.053 206.33 514.915 209.944 516.722 214.332C519.598 221.246 520.041 226.574 519.746 252.718L519.451 283.102L530.052 284.042C536.228 284.614 543.087 286.568 546.535 288.725C550.646 291.251 555.255 292.32 561.081 292.265C576.347 291.97 588.313 294.846 592.774 300.1C595.005 302.7 600.186 306.59 604.371 308.747C610.271 311.845 611.857 313.652 611.93 317.394C612.004 323.368 613.368 324.806 615.968 321.709C618.992 318.113 626.698 320.197 629.003 325.249C630.072 327.627 633.612 330.65 636.783 331.941C654.132 339.205 639.217 339.924 474.372 339.721C346.457 339.574 336.888 339.353 336.888 336.55ZM465.154 266.047C465.154 251.427 464.933 250.266 461.632 250.266C458.387 250.266 458.166 251.427 458.166 266.047C458.166 280.668 458.387 281.885 461.632 281.885C464.933 281.885 465.154 280.668 465.154 266.047ZM472.215 261.641C472.215 250.56 471.496 243.204 470.409 243.204C469.395 243.204 468.676 250.56 468.676 261.641C468.676 272.814 469.395 280.078 470.409 280.078C471.496 280.078 472.215 272.814 472.215 261.641ZM486.264 276.059C486.264 267.191 478.41 263.743 477.47 272.242C476.751 278.788 477.47 280.078 481.858 280.078C485.25 280.078 486.264 279.23 486.264 276.059ZM493.307 261.641C493.307 250.56 492.588 243.204 491.519 243.204C490.431 243.204 489.786 250.56 489.786 261.641C489.786 272.814 490.431 280.078 491.519 280.078C492.588 280.078 493.307 272.814 493.307 261.641ZM503.835 265.181C503.835 251.427 503.54 250.266 500.295 250.266C497.05 250.266 496.773 251.427 496.773 265.181C496.773 278.935 497.05 280.078 500.295 280.078C503.54 280.078 503.835 278.935 503.835 265.181ZM485.896 254.451C486.467 250.413 482.153 245.804 479.276 247.537C478.262 248.182 477.47 251.058 477.47 254.008C477.47 258.488 478.041 259.208 481.434 258.691C483.886 258.341 485.601 256.755 485.896 254.451ZM452.543 235.866C451.75 230.243 447.583 229.671 447.583 235.147C447.583 238.097 448.598 239.683 450.386 239.683C452.193 239.683 452.912 238.392 452.543 235.866ZM515.782 235.866C515.063 230.888 511.541 229.819 510.38 234.281C509.366 238.171 510.306 239.683 513.919 239.683C515.431 239.683 516.151 238.245 515.782 235.866ZM229.714 279.875C229.714 278.935 229.069 278.566 228.203 279.082C227.41 279.58 225.4 278.64 223.888 276.925C221.233 273.957 221.436 273.386 227.133 267.983C234.323 261.291 234.84 259.06 229.143 259.06C226.838 259.06 223.391 257.622 221.362 255.962C219.427 254.229 216.181 251.704 214.172 250.339C212.217 248.975 211.001 247.168 211.499 246.375C212.015 245.583 210.706 244.937 208.696 244.937C206.613 244.937 205.451 244.144 206.023 243.204C206.613 242.282 206.465 241.49 205.599 241.49C204.806 241.49 202.575 240.328 200.695 238.964C197.597 236.659 197.671 236.585 202.575 237.304C207.829 238.097 207.83 238.097 202.28 235.571C199.256 234.133 196.233 232.05 195.514 230.888C194.5 229.303 195.09 229.248 197.818 230.759C203.644 233.857 203.939 232.99 198.685 228.16C193.781 223.698 193.781 223.698 198.611 226.648C204.806 230.464 206.816 228.879 200.842 224.989C198.39 223.403 196.38 221.246 196.38 220.232C196.38 219.236 198.962 220.379 202.059 222.758C205.23 225.136 211.074 227.938 214.965 229.026C219.648 230.243 224.386 233.341 228.571 238.097C237.79 248.33 241.035 246.302 237.568 232.271C236.628 228.381 236.997 227.441 239.449 227.441C241.753 227.441 242.03 227.938 240.592 229.745C239.08 231.552 240.02 233.414 244.703 237.876L250.677 243.794L257.812 237.378C261.85 233.709 266.736 230.888 269.188 230.888C271.492 230.888 275.88 228.879 278.848 226.353C285.541 220.748 286.039 224.122 279.42 230.317C274.59 234.852 274.59 234.852 278.978 233.709C283.384 232.548 283.384 232.548 278.978 235.147C276.249 236.88 275.604 237.876 277.263 237.95C278.848 238.024 278.185 239.037 275.456 240.623C273.078 241.987 271.861 243.13 272.783 243.13C273.723 243.204 272.211 244.587 269.335 246.301C255.01 254.653 252.631 256.608 252.631 259.927C252.631 261.862 254.217 264.462 256.153 265.679C258.107 266.84 259.674 268.702 259.674 269.79C259.674 271.228 259.029 271.228 257.314 269.79C256.005 268.702 252.982 267.91 250.677 268.057C248.372 268.205 245.275 267.984 243.837 267.633C242.03 267.117 241.035 268.555 240.666 272.242C240.316 275.119 239.449 278.068 238.73 278.861C236.628 281.018 229.788 281.811 229.788 279.949L229.714 279.875ZM725.576 279.156C723.419 277.644 721.686 274.621 721.686 272.371C721.686 266.84 720.893 266.471 711.969 267.836C706.493 268.629 704.189 268.426 704.613 267.117C704.982 266.048 706.346 265.181 707.563 265.181C708.872 265.181 710.162 263.448 710.531 261.364C710.955 258.415 709.222 256.46 702.751 252.718C694.399 247.813 683.226 237.95 685.973 237.876C686.766 237.876 685.457 236.29 683.005 234.354C679.484 231.552 679.336 231.11 682.157 232.05C685.383 233.138 685.383 232.916 681.714 229.376C676.239 223.974 676.755 221.098 682.507 225.56C685.033 227.588 690.638 230.096 694.897 231.183C699.93 232.474 703.894 234.926 706.346 238.171C708.356 240.973 710.734 243.204 711.601 243.204C713.334 243.204 722.552 232.695 722.552 230.759C722.552 227.736 725.207 227.146 726.295 229.893C726.94 231.552 726.59 233.783 725.428 234.926C722.902 237.452 722.847 244.937 725.428 244.937C726.516 244.937 730.259 241.84 733.78 238.097C738.113 233.414 742.722 230.538 748.05 229.174C752.438 228.012 758.338 225.284 761.288 223.053C766.69 219.015 766.69 219.015 766.561 225.431C766.561 230.888 765.694 232.198 760.366 234.852C755.167 237.452 754.817 237.95 758.265 237.95C763.888 237.95 761.233 241.416 755.388 241.619C750.705 241.766 750.705 241.766 755.112 243.204C759.5 244.661 759.5 244.661 755.241 244.79C752.936 244.863 751.572 245.509 752.217 246.173C753.803 247.74 737.671 259.06 733.707 259.06C729.097 259.06 729.761 262.084 735.734 267.983C742.28 274.621 742.353 274.621 736.38 278.566C730.332 282.53 730.48 282.53 725.649 279.156H725.576ZM762.081 231.755C764.459 230.391 765.399 229.248 764.035 229.248C762.026 229.174 762.026 228.657 764.035 226.076C766.34 223.255 766.193 223.182 762.081 225.855C759.647 227.441 757.988 229.303 758.265 230.04C758.56 230.833 757.84 232.05 756.55 232.916C752.512 235.442 757.417 234.428 762.081 231.755ZM467.164 165.566C471.275 152.679 471.201 152.476 463.347 146.705L455.862 141.303H465.578C475.239 141.303 475.239 141.303 477.47 133.375C478.687 129.061 480.198 125.54 480.862 125.54C481.434 125.54 483.167 128.84 484.531 132.951C487.112 140.363 487.186 140.437 496.552 140.953L505.992 141.525L498.783 146.853C490.505 152.9 490.652 152.476 494.174 162.414C495.612 166.507 496.773 170.249 496.773 170.692C496.773 171.116 493.75 169.032 489.933 166.083C481.581 159.39 481.581 159.39 472.639 166.009L465.375 171.337L467.164 165.566ZM354.459 168.664C354.459 168.24 355.251 165.862 356.192 163.409C357.703 159.519 357.261 158.524 353.168 155.85C348.485 152.753 348.485 152.753 354.532 151.886C359.215 151.167 360.801 150.024 361.225 147.001C361.944 141.728 364.691 142.022 366.055 147.498C366.996 151.093 368.212 151.886 373.19 151.886C379.311 151.886 379.311 151.886 374.702 155.85C370.665 159.316 370.296 160.385 371.882 164.644C374.057 170.175 373.467 170.471 367.567 166.581C363.53 163.926 362.958 163.926 360.008 166.581C356.984 169.328 354.459 170.249 354.459 168.664ZM590.747 164.497C591.761 159.814 591.263 158.228 587.87 155.426C583.777 151.96 583.777 151.96 589.456 151.886C593.991 151.886 595.356 151.02 596.222 147.498C596.812 145.046 597.955 143.11 598.674 143.11C599.467 143.11 600.555 145.046 601.2 147.498C602.14 151.167 603.283 151.886 608.833 151.886C615.378 151.886 615.378 151.886 609.773 155.5C604.795 158.653 604.371 159.667 605.809 163.483C608.188 169.678 608.04 169.825 603.21 166.728C599.246 164.128 598.601 164.128 594.213 167.023C589.456 170.12 589.456 170.12 590.747 164.497ZM227.059 547.063C226.488 545.109 223.74 532.221 221.159 518.541C217.546 500.03 215.684 493.614 213.803 493.762C208.844 494.204 160.299 507.239 158.861 508.603C158.068 509.322 163.544 514.153 171.177 519.26C184.783 528.478 224.036 550.658 226.764 550.658C227.557 550.658 227.705 549.072 227.133 547.063H227.059ZM751.295 542.527C778.084 528.054 803.712 511.203 801.26 509.691C799.397 508.604 745.598 492.766 745.23 493.19C744.879 493.688 735.439 539.356 734.37 545.828C733.928 548.501 734.149 550.658 734.868 550.658C735.513 550.658 742.925 546.989 751.295 542.527ZM723.492 524.662C725.576 513.711 726.94 504.345 726.442 503.847C723.695 501.192 718.367 510.982 716.284 522.357C715.067 529.198 713.481 534.894 712.762 534.894C712.043 534.894 705.848 531.65 699.064 527.759C688.555 521.638 686.102 520.919 682.931 522.579C679.557 524.441 680.774 525.528 698.289 535.687C708.724 541.808 717.796 546.27 718.441 545.625C719.086 545.035 721.335 535.614 723.492 524.662ZM258.384 536.683C267.326 531.944 276.028 526.893 277.908 525.529C281.079 523.224 281.079 523.003 276.544 521.933C272.93 520.993 269.114 522.21 260.688 526.893C254.641 530.285 248.815 533.088 247.875 533.088C246.861 533.088 245.054 527.114 243.763 519.832C242.104 510.042 240.666 506.078 238.14 504.787C236.278 503.773 234.323 503.349 233.899 503.773C233.107 504.566 240.666 545.404 241.68 545.404C242.03 545.404 249.534 541.513 258.384 536.683ZM266.017 518.172C265.298 516.163 260.264 516.163 255.655 518.117C253.277 519.113 252.631 518.615 252.631 515.812C252.631 513.784 251.046 511.258 249.092 510.263C244.999 508.032 244.851 508.604 247.432 520.772L249.386 529.64L258.033 524.809C262.771 522.136 266.385 519.112 266.017 518.172ZM711.674 528.257C712.117 527.538 713.039 522.579 713.758 517.324C715.067 507.59 715.066 507.589 711.324 510.982C709.296 512.77 707.637 515.37 707.637 516.66C707.637 519.334 703.894 519.831 701.368 517.453C700.373 516.531 697.921 516.605 695.321 517.527C691.08 519.186 691.228 519.334 699.801 524.367C709.075 529.843 710.531 530.359 711.748 528.257H711.674ZM811.271 504.068C812.506 502.63 813.225 501.192 812.856 500.971C811.271 499.883 798.752 496.14 779.154 490.812C761.159 485.908 757.767 485.484 753.655 487.364C747.756 490.167 747.331 489.945 778.803 499.459C804.799 507.313 808.247 507.811 811.271 504.068ZM176.708 499.606C188.029 496.638 200.418 493.411 204.234 492.397C211.222 490.591 211.222 490.591 207.332 487.419C203.57 484.34 202.722 484.47 176.653 491.254C141.715 500.252 143.798 499.459 147.983 502.482C152.519 505.856 153.09 505.801 176.708 499.606ZM822.149 495.642C824.896 493.485 824.895 491.531 821.798 464.447C819.917 448.61 818.406 434.93 818.406 434.063C818.332 433.197 816.673 434.635 814.589 437.234C810.92 441.917 810.92 441.991 813.723 468.632C815.308 483.326 816.599 495.919 816.599 496.638C816.544 498.592 818.775 498.168 822.149 495.642ZM146.471 465.904C149.421 441.622 149.421 439.76 146.692 437.013C145.107 435.354 143.448 434.413 143.005 434.856C142.581 435.206 140.498 448.186 138.322 463.599C134.58 490.591 134.58 491.678 137.677 493.909C142.286 497.302 142.802 495.642 146.471 465.904ZM813.004 493.117C813.004 488.655 807.749 446.379 807.104 445.807C806.809 445.512 805.149 446.803 803.435 448.757C800.54 451.928 800.467 453.588 802.347 468.263C803.435 477.132 803.933 484.765 803.435 485.336C802.919 485.852 795.009 484.045 785.864 481.298C772.239 477.353 768.644 476.837 766.487 478.643C762.228 482.165 763.169 482.884 775.706 486.35C782.251 488.157 792.262 491.033 798.107 492.821C811.492 496.859 813.004 496.933 813.004 493.117ZM173.758 488.36C186.443 485.06 197.247 481.888 197.671 481.372C198.187 480.948 196.528 479.584 194.076 478.496C190.333 476.763 186.59 477.205 172.541 480.874L155.542 485.41L156.704 474.532C157.349 468.559 158.271 460.926 158.787 457.533C159.654 451.855 155.911 442.986 153.606 445.291C153.164 445.734 151.228 457.035 149.421 470.292C146.748 489.724 146.545 494.481 148.407 494.481C149.716 494.481 161.092 491.752 173.758 488.36ZM865.863 448.462C875.874 434.93 893.241 403.679 891.582 402.02C891.139 401.577 879.837 405.541 866.452 410.722C852.975 415.921 837.857 421.526 832.805 423.185C827.772 424.845 823.162 427.002 822.591 427.942C821.503 429.675 826.481 482.607 828.196 487.419C829.357 490.886 850.966 468.559 865.863 448.462ZM135.667 458.123C137.898 442.858 139.631 430.247 139.484 430.099C138.986 429.675 73.5165 408.343 72.5762 408.343C70.8431 408.343 80.5041 426.209 90.2204 440.977C99.0885 454.51 129.178 488.433 130.837 486.774C131.279 486.35 133.436 473.463 135.667 458.123ZM172.394 477.63C184.71 474.458 186.941 472.946 183.622 470.218C182.11 468.983 179.013 468.78 174.625 469.775C167.932 471.287 167.932 471.287 169.002 465.609C169.794 461.294 169.223 459.193 166.697 456.888C163.471 453.938 163.323 454.233 161.442 465.111C159.212 477.925 159.064 480.376 160.52 480.376C161.092 480.376 166.494 479.141 172.394 477.63ZM798.955 470.863C798.955 458.252 797.812 455.376 793.627 457.607C791.119 458.99 790.603 460.631 791.469 465.682C792.484 472.025 792.483 472.025 785.643 470.937C779.522 469.923 772.314 471.951 774.397 473.961C775.706 475.251 792.484 480.155 795.858 480.303C798.457 480.376 798.955 478.865 798.955 470.863ZM788.446 466.328C788.446 465.387 787.653 464.595 786.639 464.595C785.717 464.595 784.924 465.387 784.924 466.328C784.924 467.342 785.717 468.135 786.639 468.135C787.653 468.135 788.446 467.342 788.446 466.328ZM176.137 464.595C175.565 463.599 174.348 462.806 173.408 462.806C172.541 462.806 171.748 463.599 171.748 464.595C171.748 465.535 172.965 466.328 174.477 466.328C175.989 466.328 176.782 465.535 176.137 464.595ZM133.289 419.147C130.339 414.981 124.642 412.455 98.0744 403.458C66.1601 392.727 61.9197 392.285 69.4051 401.006C72.1522 404.177 128.035 424.052 134.58 424.126C136.165 424.126 135.815 422.687 133.289 419.147ZM865.512 407.274C881.349 401.153 894.532 395.972 894.827 395.677C895.103 395.382 895.896 392.93 896.542 390.275C897.777 385.297 897.777 385.297 891.01 388.192C887.268 389.704 873.145 395.382 859.612 400.711C837.414 409.431 828.988 414.538 828.859 419.443C828.859 421.323 831.367 420.53 865.512 407.274ZM124.365 406.555C124.365 401.946 114.926 396.175 98.7935 390.847C89.1325 387.676 80.707 384.726 79.988 384.302C79.269 383.933 84.5971 376.743 91.8059 368.317C104.767 353.402 106.426 350.083 103.55 345.474C102.536 343.888 96.489 349.806 83.1591 365.349C72.7238 377.535 64.5193 387.676 64.8696 387.971C65.8099 388.616 121.471 408.067 122.983 408.215C123.702 408.288 124.365 407.551 124.365 406.555ZM875.376 390.773C883.156 387.676 890.07 384.579 890.863 383.859C892.08 382.716 859.741 343.39 857.658 343.39C857.308 343.39 856.939 345.916 856.939 349.087C857.013 353.623 859.317 357.366 868.536 367.524C881.718 382.071 883.156 379.471 855.851 389.704C844.697 393.944 839.368 398.554 839.368 403.956C839.368 404.748 851.832 400.139 875.376 390.773ZM115.276 388.266C114.207 385.814 110.317 382.79 106.426 381.204C99.5863 378.457 99.5861 378.457 103.698 372.779C107.514 367.524 108.51 358.232 105.062 359.523C103.403 360.168 85.6848 380.762 85.7585 381.997C85.7585 382.993 111.681 392.156 115.073 392.433C116.733 392.506 116.788 391.566 115.276 388.266ZM860.036 384.376C866.526 381.776 872.205 379.471 872.573 379.176C872.924 378.9 869.402 374.217 864.719 368.741C856.718 359.449 856.22 359.098 854.782 362.841C853.694 365.717 854.266 367.727 856.939 370.548C861.548 375.508 861.475 375.95 855.132 378.531C850.449 380.486 846.43 384.873 846.43 388.044C846.43 389.63 847.352 389.335 860.036 384.376ZM880.409 350.452C860.332 328.125 859.612 327.479 859.022 332.66C858.598 337.343 861.179 341.16 878.4 361.034C898.275 384.007 898.275 384.007 899.786 378.826C901.151 373.922 900.155 372.336 880.409 350.452ZM91.3817 350.452C101.098 339.574 103.182 336.108 103.182 331.075C103.255 325.027 103.255 325.027 99.0883 329.342C78.992 350.304 61.0531 372.133 61.0531 375.655C61.0531 382.993 63.5791 382.347 71.5623 372.982C75.9687 367.874 84.8181 357.716 91.3817 350.452ZM110.741 374.936C110.022 372.133 109.376 371.838 107.367 373.498C105.339 375.157 105.265 375.803 107.145 377.019C110.814 379.324 111.755 378.752 110.815 374.936H110.741ZM98.2955 325.101C101.172 321.432 100.729 320.566 84.2467 296.358C74.8807 282.604 66.7502 271.376 66.234 271.376C64.5194 271.302 59.7624 290.31 57.4578 306.221C55.356 320.842 55.8722 362.048 58.2505 365.791C59.2461 367.524 88.7821 337.564 98.2955 325.101ZM903.898 361.403C906.424 349.217 905.41 310.038 902.091 294.57C896.413 267.983 897.261 268.278 883.58 288.227C877.035 297.796 869.181 309.043 866.084 313.283C862.636 318.04 861.05 321.856 861.843 323.294C864 327.184 899.86 367.727 901.225 367.875C901.944 367.948 903.105 364.999 903.898 361.403ZM104.988 311.697C104.988 307.881 100.729 300.101 90.0729 284.558C81.8685 272.593 75.1756 262.434 75.1756 262.01C75.1756 261.567 79.7111 260.055 85.2606 258.544C90.7917 257.106 103.403 253.732 113.267 251.132C127.168 247.389 131.851 245.38 133.934 242.135C135.667 239.609 135.962 237.95 134.801 237.95C133.215 237.95 109.155 243.997 78.3467 252.146C73.1475 253.51 71.4886 255.022 69.903 259.927C67.8934 265.826 68.1881 266.472 85.1132 291.472C94.6082 305.503 102.96 316.952 103.698 317.026C104.417 317.026 104.988 314.574 104.988 311.697ZM891.582 270.14C893.665 266.914 893.665 265.531 891.582 260.424C889.13 254.598 888.706 254.451 857.234 245.583C839.645 240.771 825.32 237.231 825.393 237.802C825.393 238.392 826.758 240.549 828.417 242.633C831.441 246.375 839.719 249.325 870.546 257.401C878.547 259.484 885.092 262.01 885.092 262.95C885.092 263.946 878.768 274.326 870.988 285.922C858.156 305.226 855.003 312.638 858.082 315.809C858.949 316.675 877.976 290.808 891.508 270.14H891.582ZM100.73 280.742C96.3416 274.178 93.3178 268.352 94.0368 267.762C94.7559 267.191 101.319 265.328 108.584 263.669C117.876 261.567 122.485 259.631 124.071 257.032C125.287 255.022 125.951 253.086 125.509 252.57C125.011 252.146 114.705 254.377 102.463 257.622L80.2828 263.522L93.0229 282.457C104.989 300.248 105.929 301.188 107.293 297.077C108.51 293.408 107.367 290.606 100.73 280.742ZM868.388 283.766C880.133 265.753 881.497 262.508 877.386 262.508C876.095 262.508 866.526 260.129 856.146 257.106C845.785 254.156 836.916 252.146 836.492 252.57C835.976 253.013 836.621 255.022 837.857 256.958C839.295 259.263 844.844 261.715 854.634 264.388C864.074 266.914 868.757 268.998 868.038 270.214C867.374 271.302 863.779 276.852 860.036 282.457C854.929 290.016 853.417 293.777 854.21 296.929C854.782 299.308 855.648 301.188 856.146 301.188C856.57 301.188 862.12 293.334 868.388 283.766ZM110.815 278.364C109.026 273.681 109.155 273.09 112.123 273.09C114.999 273.09 120.328 266.766 118.742 265.181C118.171 264.609 99.66 269.071 98.7198 270.067C98.351 270.362 100.6 274.326 103.624 278.935C107.44 284.835 109.598 286.789 110.888 285.406C112.253 284.116 112.179 282.032 110.815 278.364ZM857.732 279.507C860.258 275.34 862.194 271.45 862.194 270.933C862.194 269.495 844.623 265.458 843.48 266.619C842.964 267.191 844.623 269.569 847.149 271.874C850.025 274.621 851.316 277.202 850.67 279.009C849.601 281.811 850.744 287.139 852.477 287.139C852.901 287.139 855.28 283.692 857.732 279.507ZM880.059 237.157C876.169 229.967 869.679 219.513 865.586 213.908C856.939 202.016 836.124 178.251 834.391 178.251C832.805 178.251 822.867 230.833 824.176 232.124C825.043 232.99 881.644 249.473 885.682 250.044C886.475 250.118 883.949 244.366 880.059 237.157ZM144.591 195.821C142.139 180.98 140.424 168.535 140.848 168.166C141.291 167.742 153.533 169.825 168.227 172.849C198.39 178.97 202.132 179.265 205.101 175.651C207.608 172.628 209.913 173.347 173.039 165.861L147.043 160.607L140.055 166.156C136.239 169.254 133.142 172.996 133.142 174.582C133.142 176.094 135.096 188.336 137.53 201.869C139.908 215.346 141.936 227.146 141.936 228.16C141.936 229.174 143.522 228.307 145.457 226.353C149.053 222.758 149.053 222.758 144.591 195.821ZM824.453 205.04C826.758 192.503 829.136 180.187 829.781 177.753C830.648 174.213 830.076 172.775 827.126 171.19C824.969 170.047 823.089 169.383 822.794 169.752C822.591 170.047 820.36 182.141 817.908 196.688C813.796 220.601 813.649 223.329 816.175 226.076C817.613 227.791 819.198 228.879 819.567 228.529C819.917 228.16 822.075 217.577 824.453 205.04ZM156.04 198.421C154.824 190.069 154.252 182.86 154.75 182.363C155.247 181.92 162.456 182.86 170.808 184.519C182.903 186.898 186.867 187.101 190.536 185.46C192.988 184.298 194.721 183.008 194.352 182.639C193.928 182.215 182.774 179.615 169.518 176.813C141.567 170.913 143.448 169.106 148.131 196.688C152.021 219.162 152.15 219.66 155.542 216.268C157.995 213.834 158.068 211.732 156.04 198.421ZM814.442 196.319C816.47 184.003 817.834 173.642 817.392 173.218C816.599 172.425 804.873 174.434 780.813 179.468C767.354 182.215 767.133 182.436 770.802 185.239C774.397 187.893 775.78 187.894 791.248 184.667C800.412 182.787 808.173 181.57 808.616 182.067C809.04 182.491 808.118 189.627 806.532 197.979C804.154 210.442 804.007 213.613 805.869 215.844C807.178 217.356 808.763 218.646 809.482 218.646C810.127 218.646 812.432 208.561 814.442 196.319ZM166.125 199.638C165.406 193.664 165.406 193.664 171.896 194.734C176.358 195.471 179.012 194.955 180.469 193.295C182.7 190.567 181.686 190.069 170.015 187.893C166.642 187.248 162.383 186.308 160.576 185.81C157.202 184.87 157.202 187.469 160.576 205.114C162.032 212.599 167.066 207.639 166.125 199.638ZM803.361 195.526C804.578 185.589 804.578 185.589 796.079 187.174C779.596 190.124 779.08 190.346 781.606 193.369C783.265 195.397 785.644 195.821 790.529 195.029C797.093 194.015 797.167 194.015 796.079 199.288C795.433 202.514 795.931 205.611 797.314 207.271C800.411 211.013 801.776 208.285 803.361 195.526ZM794.419 172.923C808.837 170.047 820.858 167.447 821.208 167.078C821.503 166.728 820.36 165.142 818.627 163.557C815.53 160.828 813.52 161.031 784.998 167.152C755.683 173.42 754.817 173.789 758.338 176.665C760.44 178.325 763.464 179.339 765.178 178.896C766.838 178.546 780.02 175.873 794.419 172.923ZM215.536 160.164C216.55 155.131 219.205 141.672 221.51 130.352C223.814 118.976 225.326 109.684 224.976 109.684C219.924 109.684 154.399 152.255 152.943 156.422C152.445 158.007 200.621 168.811 209.839 169.254C213.084 169.383 213.951 168.018 215.536 160.164ZM744.437 165.511C744.437 164.276 742.206 151.02 739.551 136.049C735.089 111.417 734.223 108.615 730.332 106.661C727.954 105.444 725.281 104.503 724.285 104.503C723.345 104.503 710.808 110.698 696.409 118.331C672.865 130.794 670.634 132.38 673.934 134.094C677.105 135.828 681.217 134.316 702.235 123.807C726 111.915 726.94 111.638 727.733 115.381C728.249 117.612 730.554 129.559 732.988 142.023C736.878 162.414 738.979 167.594 743.22 167.668C743.939 167.668 744.511 166.654 744.437 165.511ZM223.888 164.571C225.4 163.63 236.776 115.602 236.776 110.256C236.776 109.979 240.518 111.989 245.128 114.736C270.202 129.707 283.31 135.606 287.698 133.892C292.953 131.864 294.833 133.246 263.214 116.1C242.03 104.577 239.08 103.416 234.692 105.075C229.438 107.103 228.995 108.467 221.362 148.789C218.191 165.511 218.56 167.945 223.888 164.571ZM732.195 158.597C732.195 155.703 724.93 117.759 724.211 116.967C723.345 116.026 684.812 136.547 684.812 137.985C684.812 138.648 686.545 139.644 688.702 140.16C691.301 140.88 696.833 138.925 705.48 134.242C712.615 130.426 718.662 127.254 718.883 127.254C719.16 127.254 720.321 133.025 721.538 140.013C723.769 152.679 727.235 160.681 730.48 160.681C731.475 160.681 732.195 159.74 732.195 158.597ZM236.13 157.509C237.218 156.864 239.522 149.729 241.182 141.727C242.896 133.818 244.63 127.254 244.998 127.254C245.349 127.254 251.47 130.426 258.531 134.242C269.63 140.363 271.714 141.008 274.442 138.999C277.319 136.915 275.806 135.68 259.545 126.683C249.608 121.207 240.813 116.745 240.094 116.745C239.375 116.745 237.937 121.281 236.849 126.83C235.78 132.38 233.826 141.875 232.609 147.922C230.304 158.8 231.023 160.902 236.13 157.509ZM246.713 152.255C247.875 151.536 249.313 148.715 250.032 146.06C251.193 141.377 251.396 141.303 255.36 143.903C259.25 146.484 264.873 145.986 264.873 143.036C264.873 141.598 249.737 132.509 247.359 132.509C246.64 132.509 245.275 137.266 244.335 143.11C242.62 153.619 242.897 154.707 246.713 152.255ZM719.03 144.401C718.293 139.294 717.445 134.611 717.003 133.892C716.136 132.454 697.054 141.451 697.054 143.313C697.054 145.618 704.41 147.001 706.42 144.972C709.37 142.023 712.891 142.741 712.891 146.208C712.891 149.581 716.062 153.619 718.662 153.619C719.602 153.619 719.676 149.582 719.03 144.401ZM300.014 127.181C300.014 126.259 305.49 113.648 312.183 99.175C320.535 80.8856 323.484 72.8104 321.77 72.8104C314.782 72.8104 249.663 96.5017 245.201 100.687C243.616 102.125 296.696 130.868 298.65 129.707C299.369 129.209 300.014 128.047 300.014 127.181ZM325.586 98.8802C332.279 84.3335 338.769 72.0174 339.838 71.5934C341 71.1509 351.656 78.4337 363.603 87.8734C375.495 97.2947 386.004 105.591 387.018 106.31C387.94 107.103 391.48 107.103 394.854 106.439L400.919 105.222L394.798 100.982C391.48 98.6036 379.957 89.7355 369.153 81.2361C349.499 65.7491 349.499 65.749 340.999 67.5558C336.316 68.5699 331.707 70.0079 330.693 70.6532C329.034 71.8147 303.536 125.466 303.536 127.845C303.536 128.416 305.767 128.047 308.514 127.126C312.68 125.669 315.206 121.429 325.586 98.8802ZM336.667 104.356C340.778 95.709 344.521 88.5922 345.019 88.5922C345.609 88.5922 351.73 93.3305 358.717 99.175C370.443 108.818 377.947 111.989 381.321 108.615C382.335 107.601 344.226 76.4241 341.922 76.3503C340.779 76.3503 322.415 113.427 320.258 120.064C319.244 123.29 319.594 123.512 324.148 121.852C328.167 120.488 330.693 117.041 336.667 104.356ZM644.342 122.793C644.342 120.212 622.587 74.5433 621.573 74.9673C617.48 76.6267 579.887 107.306 580.532 108.393C582.763 111.989 590.617 108.744 602.786 99.175C610.124 93.3305 616.834 88.5922 617.627 88.5922C618.402 88.5922 622.587 95.7826 626.901 104.577C631.16 113.353 635.917 121.281 637.355 122.074C640.305 123.881 644.342 124.231 644.342 122.793ZM342.936 115.731C344.447 114.219 345.738 112.431 345.738 111.767C345.738 111.122 346.457 109.408 347.397 107.951C348.762 105.794 349.702 106.015 353.371 109.537C356.837 112.708 358.92 113.353 362.737 112.431C367.641 111.196 367.641 111.196 361.52 106.015C345.314 92.4088 346.457 92.4826 340.483 104.282C337.534 110.127 335.155 115.658 335.155 116.672C335.155 119.419 339.838 118.829 342.936 115.731ZM628.561 117.833C628.561 115.658 617.756 93.9205 616.687 93.9205C615.968 93.9205 610.769 97.5896 605.164 102.051C597.66 108.025 595.503 110.625 597.236 111.712C601.053 114.072 605.016 113.427 608.335 109.684C612.354 105.296 613.94 105.296 615.378 109.684C616.964 114.662 621.223 118.478 625.186 118.478C627.049 118.478 628.561 118.184 628.561 117.833ZM614.53 114.22C614.53 112.358 611.138 111.565 610.124 113.224C609.552 114.146 610.197 114.939 611.783 114.939C613.295 114.939 614.53 114.588 614.53 114.22ZM595.651 89.9566C608.335 80.0191 619.49 71.3722 620.504 70.7269C622.661 69.2151 621.868 68.3486 616.964 66.8367C614.088 65.9702 607.542 70.0078 587.299 85.4948C560.584 105.72 560.067 106.384 571.093 107.748C571.885 107.896 582.911 99.8203 595.651 89.9566ZM435.341 79.3737C445.426 65.6751 454.055 53.8019 454.35 53.0091C455.641 49.8379 389.028 56.9729 363.456 62.7252L354.034 64.9009L372.25 78.8575C382.335 86.4904 393.637 95.4326 397.38 98.6037C402.505 102.918 405.953 104.43 410.562 104.356C416.61 104.208 417.697 103.139 435.341 79.3737ZM582.118 84.9048C596.148 74.1746 607.469 65.1775 607.174 64.9009C605.017 62.8729 546.313 54.2998 522.548 52.5114C509.587 51.5711 507.208 51.7923 508.444 53.8019C509.31 55.0925 517.368 66.0439 526.438 77.991C535.436 90.0303 543.29 100.908 543.732 102.199C544.23 103.416 547.254 104.43 550.572 104.43C555.403 104.43 561.155 100.908 582.118 84.9048ZM451.105 80.4433C475.387 48.4 473.506 51.7184 467.459 51.7184C461.411 51.7184 460.25 52.8617 440.301 78.9315C420.942 104.282 421.735 102.697 428.649 102.549C433.977 102.494 435.766 100.761 451.105 80.4433ZM537.814 100.466C537.095 99.2489 528.669 87.7994 519.1 74.9673C502.673 53.0827 501.309 51.7184 495.612 51.7184C489.638 51.7184 489.638 51.7184 500.516 66.1914C526.365 100.466 528.393 102.697 533.924 102.697C537.685 102.697 538.754 102.051 537.814 100.466ZM466.666 81.4572L481.286 62.0801L495.612 81.3835C508.868 99.3226 510.38 100.761 515.929 100.834C520.391 100.908 521.405 100.392 520.17 98.7325C491.445 60.7894 483.886 51.7184 481.213 51.7184C478.484 51.7184 473.211 57.987 441.813 98.7325C440.522 100.392 441.61 100.908 446.072 100.908C451.547 100.835 453.133 99.3226 466.666 81.4572ZM474.078 92.0401L481.507 83.1165L487.702 92.0401C492.662 99.1752 494.893 100.908 498.857 100.908C501.604 100.908 503.835 100.244 503.835 99.5253C503.835 97.8107 482.946 70.2845 481.286 69.7867C480.069 69.4364 458.166 97.8846 458.166 99.8204C458.166 100.392 460.047 100.908 462.351 100.908C465.301 100.908 468.897 98.1612 474.078 92.0401ZM487.979 99.599C487.979 98.88 486.393 96.2988 484.457 93.9205C480.991 89.5141 480.991 89.5141 477.544 93.9205C472.639 100.115 473.008 100.908 480.991 100.908C484.808 100.908 487.979 100.318 487.979 99.599ZM897.408 491.31C897.408 487.069 894.384 484.691 889.923 485.41C885.461 486.129 885.959 484.764 894.458 473.665C919.459 440.829 933.932 409.505 940.698 373.645C943.722 357.79 943.722 357.79 949.843 356.794C953.161 356.204 956.535 356.204 957.402 356.72C961.016 358.951 956.683 385.371 948.903 408.343C939.979 434.708 914.978 478.57 901.814 490.886C897.408 494.997 897.408 494.997 897.408 491.383V491.31ZM88.4137 468.208C86.6253 465.387 90.5152 464.521 92.7461 467.268C94.5345 469.351 94.4053 469.849 92.1744 469.849C90.6442 469.849 89.0037 469.13 88.4137 468.208ZM75.5999 452.002C36.9929 394.885 27.3505 328.475 48.5161 265.974C56.6652 242.061 74.309 209.723 87.5652 194.531C96.4149 184.446 93.0964 195.102 82.8086 209.944C56.0197 248.532 43.1141 288.448 43.1141 332.807C43.1141 375.95 53.8444 409.8 80.0617 449.255C85.685 457.681 87.4918 461.792 86.1828 463.083C84.8184 464.373 81.7209 461.147 75.5999 452.002ZM944.809 330.208C944.809 300.617 938.025 268.481 926.151 241.692C921.247 230.538 921.247 230.888 924.639 230.888C926.077 230.888 927.221 229.377 927.221 227.441C927.221 225.486 928.013 223.919 929.027 223.919C929.968 223.919 930.76 225.062 930.76 226.5C930.76 227.939 931.903 229.174 933.36 229.174C934.927 229.174 935.517 228.16 934.927 226.5C934.356 225.062 934.356 223.919 934.927 223.919C936.661 223.919 944.146 241.692 949.769 259.134C957.328 282.751 960.647 303.917 960.647 328.77V350.23L944.809 349.511V330.208ZM913.264 284.982C898.274 214.904 834.317 145.12 743.073 99.175C721.612 88.371 679.907 70.9482 667.389 67.5558C660.825 65.8228 653.838 61.0106 655.497 59.3513C656.806 58.0422 692.223 70.432 713.758 79.7242C816.968 124.083 888.909 191.212 913.043 265.753C919.883 286.715 921.099 294.201 917.799 294.201C916.14 294.201 914.554 290.956 913.264 284.982ZM5.66857 280.668C10.4253 254.525 30.3002 211.235 49.6037 185.017C60.4078 170.397 60.9795 169.899 66.9531 170.544C70.3455 170.913 73.6639 170.397 74.2355 169.456C74.8807 168.461 74.512 167.668 73.5164 167.668C72.5023 167.668 71.636 166.875 71.636 165.935C71.636 164.921 72.7974 164.128 74.1617 164.128C75.5261 164.128 77.8309 162.985 79.1952 161.621C81.2233 159.593 82.3664 159.519 84.5972 161.178C87.1231 163.059 86.1825 164.847 76.6875 176.444C48.018 211.53 31.591 243.72 21.7272 284.337C21.5797 285.277 17.5602 286.273 12.8773 286.715C4.45157 287.434 4.45174 287.434 5.66857 280.668ZM927.221 218.646C924.99 217.134 925.063 216.932 927.663 216.932C929.396 216.858 930.76 217.651 930.76 218.646C930.76 220.748 930.539 220.748 927.221 218.646ZM911.31 213.539C909.945 210.737 905.41 203.675 901.298 197.831C897.058 191.784 894.605 186.75 895.62 186.105C896.615 185.515 897.408 184.003 897.408 182.713C897.408 179.984 891.582 177.237 890.789 179.615C890.42 180.482 879.414 170.471 866.157 157.288C852.901 144.18 834.317 127.9 824.895 121.134C812.358 112.136 808.616 108.689 811.141 108.246C815.953 107.527 819.641 102.844 816.82 101.111C813.723 99.175 804.504 100.908 803.933 103.563C803.564 105.149 798.752 102.992 789.312 97.1655C770.802 85.6425 735.661 68.1274 713.758 59.499C700.52 54.2998 697.349 52.4376 700.87 52.0689C704.466 51.6449 705.332 50.7781 704.613 48.1047C703.894 45.3761 702.529 44.8783 697.422 45.5236C692.592 46.0951 690.582 45.4501 688.776 42.8505C685.604 38.3887 681.29 38.4624 681.29 42.9241C681.29 47.1831 680.424 47.2384 670.56 43.7169C647.145 35.365 588.958 23.344 546.903 18.071C523.415 15.1211 440.024 15.1213 415.098 18.0159C404.515 19.3065 384.492 22.2564 370.665 24.561C342.438 29.3914 342.069 29.4653 345.682 27.1606C348.983 25.0588 347.121 23.1965 343.23 24.7084C341.571 25.2799 340.631 26.7179 340.999 27.8795C341.571 29.17 334.805 31.6962 322.268 34.8673C271.787 47.7547 213.582 71.6671 174.348 95.7089C166.494 100.466 162.032 102.273 160.65 101.185C159.507 100.245 156.63 99.249 154.252 98.8802C151.228 98.4562 149.846 97.1656 149.846 94.7872C149.846 91.6898 150.86 91.3211 157.7 91.7635C167.434 92.3351 170.015 90.7495 171.601 83.2642C172.689 77.8621 174.477 76.5529 195.587 65.7489C252.558 36.6555 312.404 17.352 377.357 7.13794C415.245 1.14595 433.608 -0.0707569 483.665 0.00299072C536.173 0.150486 551.789 1.44094 598.674 9.71912C737.32 34.0743 860.756 106.015 920.528 197.333C930.263 212.175 930.539 213.318 924.86 213.318C922.556 213.318 919.661 214.553 918.445 215.991C915.347 219.734 914.186 219.31 911.31 213.539ZM916.287 202.385C915.845 201.15 914.13 200.136 912.323 200.136C910.517 200.136 908.784 201.15 908.36 202.385C907.936 203.749 909.374 204.542 912.323 204.542C915.273 204.542 916.711 203.749 916.287 202.385ZM214.098 70.5795C213.877 68.4962 211.425 68.8463 210.706 71.1509C210.356 72.3124 211.001 72.9579 212.07 72.5339C213.306 72.1651 214.172 71.2248 214.098 70.5795ZM356.265 20.9656C356.265 19.5276 355.473 18.3661 354.532 18.3661C353.518 18.3661 352.726 19.5276 352.726 20.9656C352.726 22.4037 353.518 23.6208 354.532 23.6208C355.473 23.6208 356.265 22.4037 356.265 20.9656ZM103.55 179.394C101.891 177.384 103.901 174.656 113.838 165.216C188.526 94.7871 295.626 49.6167 418.121 36.8768C473.432 31.106 548.544 34.4246 599.615 44.9337C635.124 52.2162 653.413 57.4707 651.183 59.6278C649.228 61.5084 645.062 60.937 628.561 56.7518C551.365 37.0981 457.152 33.632 376.491 47.5334C273.152 65.2513 181.834 107.951 120.678 167.226C108.233 179.265 105.209 181.422 103.55 179.394ZM84.0256 157.805C80.7069 156.422 76.8905 155.703 75.5262 156.219C68.1145 159.095 100.656 128.121 122.632 111.565C140.055 98.3084 139.631 98.4562 138.838 104.282C138.267 107.896 139.115 109.979 141.788 111.841C145.384 114.367 145.181 114.736 132.275 124.452C124.937 130.002 113.635 139.367 107.145 145.415C90.0729 161.252 91.0132 160.754 84.0256 157.805ZM662.927 79.8716C654.63 76.848 650.168 72.7367 655.22 72.8104C659.959 72.8842 677.972 79.0051 678.322 80.7382C678.912 83.6143 672.145 83.264 662.927 79.8716Z" fill="#383B40"/>
</svg>
