<svg width="959" height="953" viewBox="0 0 959 953" fill="none" xmlns="http://www.w3.org/2000/svg">
<path fill-rule="evenodd" clip-rule="evenodd" d="M423.147 950.666C346.525 941.886 265.683 911.157 202.889 866.919C163.443 839.159 113.671 791.358 118.294 785.801C120.118 783.575 119.969 782.175 117.233 779.524C114.497 776.704 113.501 776.619 112.165 778.761C110.935 780.754 108.517 779.1 102.982 772.314C98.8252 767.245 96.0259 762.198 96.7681 761.053C98.7616 757.723 106.205 758.55 109.196 762.452C111.507 765.506 112.08 765.591 113.819 762.94C115.41 760.544 117.233 761.625 123.362 769.005C137.359 785.738 167.346 815.809 182.339 828.067C193.6 837.335 196.506 840.728 194.427 842.234C192.434 843.718 192.604 843.888 195.17 843.061C197.418 842.318 207.024 847.535 221.53 857.227C290.602 903.438 373.119 930.858 452.985 934.103C478.9 935.164 481.721 935.673 480.724 938.726C480.152 940.635 481.551 944.537 483.884 947.506C488.104 952.893 488.104 952.893 463.25 952.659C449.507 952.49 431.524 951.578 423.147 950.666ZM412.055 944.792C412.713 943.71 411.886 942.798 410.147 942.798C408.408 942.798 407.008 943.71 407.008 944.792C407.008 945.937 407.835 946.849 408.917 946.849C409.892 946.849 411.398 945.937 412.055 944.792ZM512.132 950.009C510.626 948.185 508.315 947.103 506.915 947.591C503.67 948.842 499.938 944.94 499.938 940.317C499.938 935.249 506.003 933.191 508.4 937.412C510.711 941.632 520.17 941.886 520.17 937.751C520.17 934.422 522.227 933.849 546.424 930.625C629.917 919.428 725.858 874.787 786.171 818.864C793.042 812.565 800.486 807.433 802.819 807.433C805.555 807.433 806.615 806.436 805.873 804.528C805.216 802.789 811.005 795.006 820.379 784.826C869.919 731.129 907.349 663.203 924.93 595.191C928.408 581.682 930.889 575.808 933.116 575.32C936.849 574.641 937.506 571.842 934.452 569.933C931.207 567.94 932.035 557.421 935.682 553.774C937.845 551.695 938.333 549.808 937.103 548.557C936.021 547.475 935.534 543.828 936.021 540.519C936.849 535.302 937.76 534.475 942.066 534.963C944.886 535.302 947.537 534.645 947.94 533.478C948.279 532.312 946.201 531.4 943.232 531.485C937.845 531.57 937.845 531.57 938.672 517.403C940.581 484.766 938.587 430.348 934.622 406.405C932.374 393.15 931.059 381.55 931.632 380.638C932.204 379.726 934.452 378.984 936.594 378.984C939.415 378.984 940.496 380.384 940.496 384.031C940.496 388.018 941.493 389.079 945.289 389.079C951.185 389.079 951.439 389.927 955.574 423.392C960.876 466.379 957.886 548.641 951.1 547.221C948.025 546.563 947.707 550.126 950.761 551.123C953.093 551.865 949.7 573.412 943.401 597.927C933.71 635.782 910.763 689.797 890.468 722.519C824.111 829.637 722.295 905.856 603.005 937.666C584.618 942.544 573.018 944.368 581.713 940.974C585.615 939.405 585.615 939.32 581.14 936.903C578.638 935.588 573.188 934.761 569.031 935.1C562.245 935.673 561.588 936.245 561.906 941.314C562.16 944.453 561.248 946.849 559.933 946.849C558.597 946.849 555.459 947.443 552.956 948.1C549.648 949.012 548.418 948.418 548.418 946.022C548.418 941.462 545.088 941.971 543.773 946.849C543.031 949.839 541.037 950.921 535.99 950.921C532.258 950.921 526.044 951.493 522.057 952.066C516.84 952.978 514.189 952.405 512.132 950.009ZM549.478 938.726C548.736 937.666 547.336 936.754 546.17 936.754C545.088 936.754 544.77 937.666 545.427 938.726C546.085 939.893 547.591 940.805 548.651 940.805C549.818 940.805 550.157 939.893 549.478 938.726ZM606.568 927.147C607.055 925.642 605.656 924.56 603.174 924.56C600.672 924.56 598.933 925.896 598.933 927.805C598.933 931.537 605.232 930.944 606.568 927.147ZM763.628 849.847C763.628 845.457 757.838 846.115 756.927 850.505C756.418 853.24 757.245 854.067 759.981 853.495C761.974 853.155 763.628 851.417 763.628 849.847ZM799.171 825.565C800.253 825.565 801.08 824.674 801.08 823.593C801.08 822.426 798.748 821.514 796.012 821.514C792.703 821.514 790.964 822.681 790.964 824.823C790.964 826.901 792.046 827.643 794.124 826.816C795.948 826.159 798.175 825.565 799.171 825.565ZM920.286 642.908C920.286 642.505 918.95 641.593 917.211 640.914C915.557 640.341 914.241 640.681 914.241 641.762C914.241 642.823 915.557 643.735 917.211 643.735C918.95 643.735 920.286 643.332 920.286 642.908ZM487.85 936.754C487.85 935.588 489.271 934.676 491.01 934.676C492.749 934.676 493.576 935.588 492.897 936.754C492.155 937.814 490.755 938.726 489.759 938.726C488.677 938.726 487.85 937.814 487.85 936.754ZM455.467 923.415C359.292 916.947 277.771 886.621 201.977 828.979C173.475 807.263 114.073 745.062 119.969 743.069C123.362 741.987 122.365 738.424 118.718 739.082C113.67 739.994 93.6931 709.604 75.561 672.979C48.2249 618.138 36.2006 573.729 30.9837 509.366C28.5024 479.061 29.9018 430.433 33.3161 428.354C34.2917 427.782 35.1399 428.927 35.1399 431.09C35.1399 433.168 35.7129 435.395 36.2855 436.053C36.9429 436.647 37.7064 457.026 38.0245 481.372C38.6183 528.177 41.2692 550.296 50.2823 585.33C82.2627 709.434 168.661 815.131 283.731 870.885C343.047 899.642 398.377 913.299 467.385 916.204C493.406 917.286 499.45 918.028 498.135 920.17C496.396 923.075 474.935 924.645 455.467 923.415ZM501.932 919.513C501.932 917.859 502.674 916.544 503.501 916.544C504.349 916.544 513.193 915.547 523.139 914.381C576.814 908.082 624.53 894.828 668.365 874.045C676.318 870.312 678.46 869.888 679.881 872.136C682.447 876.356 681.365 877.098 658.101 886.875C618.825 903.438 583.707 913.214 541.78 919.428C513.532 923.585 501.932 923.585 501.932 919.598V919.513ZM391.251 860.451L391.845 834.684H402.937C412.968 834.684 414.134 835.108 414.706 839.244C415.194 843.231 414.452 843.803 408.154 843.803C401.452 843.803 400.964 844.206 400.964 849.847C400.964 855.234 401.621 855.891 407.008 855.891C411.716 855.891 413.052 856.803 413.052 859.963C413.052 863.102 411.716 864.014 407.008 864.014C401.367 864.014 400.964 864.501 400.964 871.054C400.964 877.756 401.282 878.095 408.005 878.095C413.709 878.095 415.046 878.922 415.046 882.146C415.046 885.793 413.71 886.217 402.852 886.217H390.679L391.251 860.451ZM425.225 861.023C425.225 847.281 426.052 835.426 427.049 834.769C431.269 832.203 435.426 836.932 440.727 850.505L446.432 865.01L447.429 849.847C448.341 836.338 448.914 834.684 452.476 834.684C456.294 834.684 456.548 836.169 457.036 860.451C457.609 886.218 457.609 886.217 451.819 886.217C446.432 886.217 445.52 885.051 439.731 870.567L433.432 854.895L433.347 870.567C433.263 884.797 432.923 886.217 429.212 886.217C425.395 886.217 425.225 884.881 425.225 861.023ZM480.724 886.217C475.677 886.217 475.677 843.803 470.63 843.803C465.243 843.803 461.765 838.756 464.819 835.596C465.816 834.599 473.28 834.366 481.318 835.023C493.745 836.105 495.888 836.847 495.888 839.986C495.888 842.637 494.488 843.803 490.84 843.803C485.793 843.803 485.793 843.803 485.793 865.01C485.793 886.217 485.793 886.217 480.724 886.217ZM502.44 860.451L502.928 834.684L513.871 835.193C520.742 835.426 526.214 836.932 528.525 838.989C533.17 843.231 533.573 856.4 529.098 860.79C526.299 863.59 526.384 864.841 530.18 873.281C535.397 885.221 535.397 886.217 529.268 886.217C525.217 886.217 523.478 884.309 520 876.102C514.953 864.501 511.623 863.017 512.132 872.539C512.789 884.966 512.302 886.217 507 886.217C501.846 886.217 501.847 886.218 502.44 860.451ZM521.146 850.844C521.146 846.115 520.17 844.63 516.607 844.121C512.62 843.549 512.132 844.376 512.132 850.844C512.132 857.312 512.62 858.139 516.607 857.546C520.17 857.058 521.146 855.573 521.146 850.844ZM550.475 876.356C550.475 869.803 548.418 861.532 544.431 852.159C537.136 835.023 537.136 835.681 543.434 835.681C547.167 835.681 549.075 837.165 550.56 841.237C555.607 855.403 555.692 855.404 558.852 845.882C562.16 835.935 567.207 831.376 570.77 835.023C572.424 836.677 571.449 841.152 566.804 852.074C562.817 861.702 560.591 870.397 560.591 876.611C560.591 885.475 560.251 886.217 555.543 886.217C550.814 886.217 550.475 885.56 550.475 876.356ZM632.334 869.231C623.13 865.095 617.002 857.227 615.751 848.023C614.351 837.929 617.256 837.165 622.961 846.284C625.209 849.932 630.002 854.576 633.734 856.718C644.508 862.847 649.979 868.488 646.989 870.397C643.426 872.624 639.375 872.306 632.334 869.231ZM687.918 868.234C687.918 865.668 691.714 862.19 699.519 857.8C719.39 846.624 746.153 827.813 765.537 811.568C780.191 799.225 784.581 796.49 786.49 798.483C789.31 801.558 777.795 812.565 749.547 833.772C733.981 845.542 691.884 872.051 688.915 872.051C688.321 872.051 687.918 870.312 687.918 868.234ZM316.05 868.976C316.05 868.318 319.444 864.268 323.664 859.878C327.799 855.488 334.183 848.681 337.746 844.715C345.21 836.423 349.431 837.165 347.522 846.454C345.868 854.979 341.308 861.448 333.61 866.092C327.714 869.655 316.05 871.542 316.05 868.976ZM310.833 863.102C309.073 858.797 311.491 850.187 316.199 843.633C320.759 837.25 334.925 830.951 340.736 832.775C344.447 833.942 344.129 834.599 337.406 840.155C333.441 843.464 328.796 848.765 327.142 851.925C325.573 855.064 321.437 859.539 318.108 861.935C312.806 865.752 311.809 865.922 310.833 863.102ZM647.243 862.529C645.737 860.366 640.69 856.231 636.131 853.325C626.121 847.027 618.338 837.759 620.904 835.193C621.879 834.196 625.781 833.942 629.514 834.684C639.863 836.678 648.325 844.715 651.379 855.403C653.69 863.356 651.039 867.831 647.243 862.529ZM792.385 789.958C791.621 789.216 796.181 783.087 802.48 776.28C830.24 746.293 857.321 707.61 874.563 673.403C883.173 656.247 884.743 654.338 887.309 656.904C889.959 659.555 888.963 662.376 879.271 680.762C860.057 717.048 834.8 752.761 809.436 779.609C799.002 790.616 795.269 792.863 792.385 789.958ZM731.16 785.229C724.204 782.408 716.166 771.317 716.166 764.446V758.147L722.783 764.361C726.346 767.839 732.899 772.144 737.289 773.968C748.062 778.358 753.534 783.32 750.035 785.483C746.811 787.562 736.631 787.477 731.16 785.229ZM177.122 777.785C172.563 775.961 174.471 773.544 181.512 772.229C185.393 771.487 190.631 768.412 193.197 765.443C202.465 754.585 212.984 749.686 212.984 756.239C212.984 762.113 205.625 772.547 198.987 775.961C193.197 779.015 182.339 779.842 177.122 777.785ZM749.377 776.873C748.635 775.622 743.821 772.801 738.689 770.575C728.424 766.1 717.736 757.235 719.39 754.584C721.384 751.425 735.295 752.846 741.848 756.811C748.38 760.798 754.594 770.151 754.594 775.961C754.594 779.609 751.455 780.182 749.377 776.873ZM172.563 767.839C172.563 757.893 188.044 744.723 199.56 744.723C210.503 744.723 214.808 749.452 205.943 751.594C203.207 752.337 196.336 756.981 190.695 761.943C180.346 771.147 172.563 773.713 172.563 767.839ZM88.7307 753.588C85.3375 748.371 85.3375 748.032 88.7307 745.55C90.809 743.981 91.6999 741.584 90.9576 739.591C89.6428 736.113 84.6592 736.516 84.6592 740.164C84.6592 751.51 67.4385 726.337 48.3944 687.23C13.9964 616.738 0.0848287 556.17 0 476.982C0 400.106 14.0813 337.058 46.4011 270.7C59.7404 243.216 90.3001 195.16 102.727 181.99C106.714 177.77 109.938 173.699 109.938 172.871C109.938 169.733 150.698 128.548 169.488 112.728C327.8 -20.4744 555.374 -37.2917 730.736 71.1407C792.873 109.589 850.196 166.912 888.56 229.049C901.305 249.578 916.214 278.504 916.214 282.64C916.214 284.209 913.987 287.857 911.167 290.932C904.783 297.803 906.437 301.111 914.241 297.145C917.465 295.47 920.604 294.07 921.282 294.07C924.76 294.07 946.54 361.743 946.54 372.516C946.54 378.56 942.808 372.028 942.15 364.818C941.663 359.092 940.666 357.777 937.103 357.692C934.622 357.692 931.971 356.95 931.144 356.207C930.38 355.38 928.323 354.702 926.499 354.702C924.251 354.702 921.855 349.909 918.462 338.478C915.811 329.529 910.424 314.79 906.607 305.671C902.811 296.552 899.651 287.432 899.736 285.545C899.821 283.552 898.994 281.982 897.997 281.982C897 281.982 892.865 275.345 888.878 267.307C848.287 186.296 774.487 112.643 690.803 69.8256C648.898 48.3639 607.734 34.3675 558.512 25.0787C523.308 18.3773 434.429 18.2073 400.964 24.7603C389.279 26.9871 379.248 28.1534 378.675 27.4112C376.936 24.6755 368.56 22.9368 368.56 25.1635C368.56 26.4147 369.98 27.3264 371.634 27.3264C377.763 27.3264 374.455 30.9743 367.075 32.2043C349.006 35.3642 306.507 51.0999 276.605 65.7541C241.571 82.9955 210.333 102.633 187.068 122.25C178.437 129.545 171.078 134.275 169.339 133.681C166.921 132.705 165.437 134.932 167.007 137.18C167.346 137.582 158.142 147.699 146.711 159.617C114.582 193.336 85.8252 233.524 66.7812 271.294C-6.53209 416.924 3.3932 592.137 92.6967 727.566C99.9071 738.509 105.633 747.544 105.294 747.628C105.124 747.713 102.07 750.364 98.5919 753.418C92.2934 759.059 92.2935 759.059 88.7307 753.588ZM16.9868 518.4C16.9868 517.319 16.0751 516.406 14.9087 516.406C13.8484 516.406 12.9361 517.319 12.9361 518.4C12.9361 519.567 13.8484 520.478 14.9087 520.478C16.0751 520.478 16.9868 519.567 16.9868 518.4ZM16.9868 425.449C16.9868 424.389 16.0751 423.477 14.9087 423.477C13.8484 423.477 12.9361 424.389 12.9361 425.449C12.9361 426.531 13.8484 427.443 14.9087 427.443C16.0751 427.443 16.9868 426.531 16.9868 425.449ZM16.1597 405.832C14.0814 403.754 12.4274 406.808 14.0816 409.544C15.4177 411.622 15.8202 411.622 16.5836 409.544C16.9866 408.144 16.8172 406.49 16.1597 405.832ZM916.214 303.105C916.214 299.711 913.075 299.202 911.167 302.193C909.513 304.844 911.994 308.64 914.39 307.155C915.387 306.498 916.214 304.674 916.214 303.105ZM89.7273 223.239C89.7273 222.157 88.3067 221.33 86.6525 221.33C83.5987 221.33 82.6868 223.747 84.9135 225.974C86.5677 227.628 89.7273 225.805 89.7273 223.239ZM769.503 110.586C771.411 107.426 767.106 102.952 764.54 105.518C763.289 106.769 762.801 108.847 763.543 109.992C765.198 112.558 768.103 112.897 769.503 110.586ZM202.889 98.9006C202.889 97.1616 201.808 96.0799 200.472 96.5041C196.76 97.7341 196.082 102.124 199.644 102.124C201.468 102.124 202.889 100.64 202.889 98.9006ZM763.713 98.0735C764.37 96.992 762.971 96.0802 760.638 96.0802C758.242 96.0802 756.927 96.992 757.584 98.0735C758.326 99.1551 759.663 100.067 760.638 100.067C761.635 100.067 762.971 99.1551 763.713 98.0735ZM578.723 19.2889C578.723 18.1225 577.408 17.2108 575.754 17.2108C574.099 17.2108 572.679 18.1225 572.679 19.2889C572.679 20.3705 574.099 21.2823 575.754 21.2823C577.408 21.2823 578.723 20.3705 578.723 19.2889ZM759.238 726.167C754.764 724.004 754.764 724.004 761.062 716.221C764.54 711.916 768.675 708.353 770.181 708.353C771.75 708.353 772.408 707.356 771.666 706.211C769.757 703.051 777.137 690.221 780.785 690.136C782.842 690.136 783.096 689.627 781.612 688.63C779.046 686.976 781.527 678.026 784.666 678.026C785.663 678.026 786.087 676.372 785.578 674.315C785.005 672.237 785.832 669.332 787.232 667.762C790.562 664.284 790.964 653.85 787.91 653.85C786.659 653.85 783.436 656.077 780.785 658.898C778.219 661.718 774.974 663.627 773.659 663.118C772.323 662.63 770.266 664.454 769.015 667.19C767.679 670.01 765.876 671.664 764.794 671.07C763.713 670.413 761.401 672.407 759.662 675.46C756.418 681.101 756.418 681.101 757.33 672.809C758.496 661.718 763.883 654.02 773.405 649.715C782.927 645.474 780.361 642.908 766.937 643.417C752.028 643.904 744.584 645.155 741.424 647.806C737.034 651.454 737.777 647.064 742.675 640.914C751.773 629.335 766.852 626.514 782.354 633.555C790.879 637.436 790.879 637.436 787.825 632.643C786.086 629.992 783.266 627.342 781.527 626.684C779.873 626.005 778.961 624.182 779.534 622.612C780.276 620.704 778.452 618.965 774.147 617.48C769.503 615.911 768.527 614.829 770.415 613.578C772.408 612.348 771.326 611.182 766.449 609.273C759.662 606.622 759.662 606.622 765.706 605.795C781.188 603.653 797.835 616.144 800.338 631.731C801.398 638.263 802.31 639.599 804.876 638.433C818.555 632.389 837.366 639.111 844.894 652.769C850.281 662.461 849.369 664.2 842.159 657.668C839.253 655.017 837.45 653.935 838.277 655.335C839.104 656.756 838.935 657.816 837.938 657.816C837.026 657.816 835.118 656.756 833.718 655.335C832.297 653.935 829.158 652.599 826.762 652.366C824.259 652.111 819.212 651.369 815.565 650.606C808.863 649.291 808.863 649.291 814.165 654.593C825.171 665.684 828.077 680.529 821.29 691.705C816.476 699.573 814.334 700.146 816.073 693.19C816.816 690.306 816.476 688.142 815.246 688.142C814.08 688.142 813.168 685.576 813.168 682.353C813.168 679.108 811.854 675.376 810.178 674.061C808.524 672.661 807.124 669.841 807.124 667.678C807.124 665.62 806.467 663.945 805.555 663.945C804.728 663.945 802.48 661.379 800.571 658.325C797.093 652.769 797.093 652.769 797.093 658.155C796.924 667.508 786.914 698.576 779.195 713.337C771.411 728.245 767.933 730.472 759.238 726.167ZM181.766 717.875C173.877 704.387 164.864 681.102 162.298 667.423C160.962 660.467 159.648 654.508 159.308 654.168C156.827 651.115 144.315 672.81 144.315 680.19C144.315 682.353 143.318 684.092 142.067 684.092C140.752 684.092 140.412 686.573 141.176 690.709C142.406 697.262 142.406 697.262 137.274 691.218C128.664 681.017 130.891 663.033 142.067 652.938C147.708 647.891 143.827 645.155 136.447 648.951C132.969 650.775 130.89 651.03 130.403 649.63C129.979 648.379 128.24 648.803 126.162 650.69C124.189 652.514 120.541 654.338 118.06 654.847C115.558 655.25 112.249 656.756 110.765 657.986C107.117 661.061 107.117 659.152 110.85 651.942C117.975 638.199 133.881 631.074 148.705 635.04C155.83 636.948 156.403 636.779 156.403 632.813C156.488 630.48 158.227 624.691 160.39 619.961C165.522 608.7 174.556 603.229 187.726 603.483C197.163 603.738 197.417 603.886 192.285 605.88C189.21 607.131 186.729 609.273 186.729 610.609C186.729 612.008 184.82 613.747 182.509 614.405C180.176 615.168 178.777 616.229 179.434 616.908C180.028 617.48 177.207 622.04 173.135 626.917L165.776 635.952L174.302 631.477C190.207 623.206 209.76 628.168 217.458 642.504C219.197 645.813 218.943 646.152 215.719 644.816C206.367 641.084 181.342 640.172 178.119 643.417C176.38 645.156 176.783 645.728 179.943 645.728C185.902 645.728 194.767 653.342 198.075 661.146C203.122 673.234 200.323 682.353 195.085 670.922C193.855 668.017 191.946 666.193 190.865 666.85C189.868 667.508 188.383 666.108 187.726 663.797C186.899 661.379 185.16 660.064 183.654 660.637C182.17 661.146 180.515 660.382 179.943 658.813C179.264 657.328 176.041 654.593 172.648 652.854C166.434 649.63 166.434 649.63 167.007 656.247C167.261 659.894 168.342 663.542 169.339 664.2C170.336 664.942 171.312 667.274 171.481 669.247C171.651 671.325 172.987 675.142 174.387 677.708C175.786 680.274 176.465 683.753 175.786 685.322C175.214 686.891 175.871 688.142 177.292 688.142C180.346 688.142 187.302 701.736 185.648 704.472C184.99 705.532 185.732 706.359 187.387 706.359C190.949 706.359 201.553 719.868 199.156 721.353C198.16 721.947 195.021 723.261 192.116 724.428C187.217 726.252 186.39 725.743 181.766 717.875ZM445.351 698.322C309.985 688.566 199.729 618.392 175.214 526.522C170.484 508.624 170.484 471.511 175.298 453.782C201.892 354.044 330.281 279.989 476.589 279.989C509.057 279.989 522.142 281.473 522.142 285.291C522.142 286.775 523.647 288.026 525.471 288.026C527.444 288.026 528.271 286.945 527.529 285.036C526.299 281.728 524.644 281.558 560.336 288.111C651.888 304.844 732.644 356.356 766.534 419.744C779.873 444.684 783.839 460.823 783.839 490.152C783.839 517.997 780.933 532.566 770.839 554.113C738.031 624.521 648.24 679.935 542.353 694.929C515.271 698.831 472.539 700.315 445.351 698.322ZM523.224 688.142C650.721 674.146 749.631 608.955 771.835 524.359C776.883 505.061 776.48 474.904 770.923 454.779C737.204 332.434 546.912 258.612 375.685 301.366C281.334 324.884 211.16 378.729 187.556 445.659C180.346 466.039 178.607 498.847 183.505 520.881C197.735 585.012 259.47 640.85 348.18 670.01C401.855 687.655 466.728 694.356 523.224 688.142ZM467.3 686.064C465.477 685.004 458.202 684.177 451.161 684.177C424.737 684.24 409.659 682.586 404.357 679.108C400.37 676.542 396.977 676.054 390.933 677.051C384.55 678.112 381.326 677.539 375.94 674.23C372.037 671.749 365.739 670.01 361.031 670.01C355.814 670.01 350.428 668.271 345.529 664.942C341.224 661.973 335.264 659.894 331.193 659.894C326.485 659.894 322.179 658.071 317.62 654.105C313.972 650.945 307.335 647.637 302.945 646.894C298.152 645.982 291.853 642.589 287.294 638.433C283.073 634.7 277.687 631.562 275.29 631.562C272.873 631.562 267.825 628.168 263.69 623.694C259.703 619.389 253.087 614.49 249.015 612.751C244.307 610.778 240.49 607.3 238.411 602.974C236.672 599.178 231.964 594.449 227.808 592.222C223.354 589.72 219.452 585.754 218.201 582.106C216.971 578.713 213.069 573.157 209.421 569.594C205.858 566.031 202.889 561.239 202.889 558.736C202.889 556.34 200.641 551.632 197.821 548.387C194.512 544.421 192.773 539.862 192.773 535.133C192.773 531.252 190.864 524.868 188.553 521.051C185.16 515.58 184.566 512.441 185.648 505.146C186.475 499.674 185.987 493.46 184.481 489.24C182.339 483.366 182.509 481.033 185.329 474.586C187.132 470.344 188.638 462.986 188.468 458.172C188.298 451.958 189.465 448.247 192.434 445.002C194.767 442.606 197.248 436.561 198.075 431.578C199.157 425.046 201.468 420.656 207.024 415.269C211.16 411.198 215.232 404.984 215.974 401.421C216.971 396.883 219.791 393.469 225.411 389.927C229.886 387.106 235.357 381.55 237.669 377.648C240.405 373.025 245.049 369.123 250.605 366.726C255.992 364.393 260.467 360.767 262.439 356.95C264.772 352.475 267.825 350.227 274.124 348.573C279.341 347.258 285.215 343.61 289.202 339.39C294.08 334.173 297.325 332.498 302.542 332.498C307.101 332.498 311.067 330.844 314.311 327.705C321.098 321.004 326.888 318.352 334.755 318.352C338.912 318.352 344.298 316.359 348.519 313.2C353.905 309.149 356.959 308.322 362.028 309.234C366.99 310.145 370.808 309.149 377.424 305.247C384.635 301.027 387.943 300.284 394.326 301.366C399.967 302.193 404.272 301.599 408.832 299.287C412.967 297.146 419.096 296.064 425.798 296.382C431.609 296.637 439.646 295.64 443.781 294.155C449.741 291.907 452.815 291.844 459.199 293.731C464.819 295.47 468.891 295.555 472.602 294.155C479.728 291.419 488.444 291.504 494.806 294.41C498.708 296.233 501.847 296.233 507.891 294.41C514.529 292.416 517.264 292.586 524.051 295.321C528.61 297.145 532.258 299.86 532.258 301.366C532.258 304.928 531.431 304.929 523.881 301.026C518.749 298.376 516.098 298.206 508.888 300.03C501.698 301.769 498.623 301.599 491.922 298.948C485.199 296.234 482.718 296.064 477.755 298.121C473.938 299.712 467.724 300.115 460.111 299.203C451.649 298.291 446.432 298.715 441.131 300.942C435.574 303.275 432.096 303.508 426.561 302.023C420.496 300.369 417.845 300.687 411.144 304.186C405.184 307.155 400.964 307.983 395.238 307.071C389.449 306.159 385.886 306.837 380.584 310.061C376.342 312.627 370.214 314.281 364.742 314.281C358.38 314.281 353.99 315.766 349.261 319.328C344.701 322.806 340.057 324.397 334.437 324.397C328.308 324.397 324.661 325.881 319.528 330.441C315.457 333.919 309.243 336.909 304.45 337.736C298.724 338.648 294.992 340.705 292.023 344.862C289.117 348.658 284.558 351.393 278.514 352.963C271.728 354.702 268.652 356.695 266.341 361.17C264.517 364.818 259.958 368.55 254.656 370.777C249.1 373.173 244.476 377.075 241.74 381.72C239.408 385.601 233.958 391.072 229.547 393.893C224.012 397.371 221.276 400.764 220.364 405.154C219.706 408.632 215.974 414.357 211.987 418.005C206.94 422.628 204.458 426.955 203.546 432.575C202.889 436.965 200.153 443.602 197.417 447.25C193.77 452.128 192.773 455.351 193.77 459.592C194.512 463.07 193.6 468.691 191.607 473.844C188.892 480.715 188.638 483.769 190.377 489.749C191.607 493.885 192.031 501.01 191.458 505.57C190.631 511.614 191.289 515.346 193.516 518.654C195.339 521.221 196.845 526.692 196.845 530.828C196.845 535.875 198.499 540.265 201.892 544.336C204.713 547.645 207.512 553.201 208.191 556.679C208.933 560.157 211.839 564.886 214.808 567.113C217.713 569.34 221.445 574.324 223.099 578.056C224.754 581.852 229.313 586.984 233.194 589.635C237.096 592.222 241.486 596.845 242.971 600.005C244.625 603.483 249.1 607.046 254.571 609.443C259.958 611.691 264.517 615.317 265.832 618.392C267.508 621.87 270.901 624.266 276.436 625.857C280.995 627.087 287.718 631.222 291.429 634.955C296.243 639.854 299.89 641.678 304.62 641.678C308.925 641.678 313.548 643.734 318.108 647.637C323.007 651.772 327.396 653.681 332.359 653.766C336.749 653.766 342.22 655.759 346.356 658.898C351.255 662.461 355.814 663.945 362.092 663.945C367.902 663.945 373.119 665.366 377.021 668.187C381.559 671.41 384.974 672.237 390.848 671.41C396.405 670.668 400.879 671.579 406.096 674.315C411.568 677.284 415.533 677.963 422.001 676.966C427.388 676.139 433.093 676.712 437.483 678.451C442.615 680.529 446.347 680.762 452.073 679.278C457.29 677.963 461.681 677.963 465.477 679.447C468.976 680.762 472.369 680.847 474.426 679.702C476.419 678.62 479.155 678.705 481.636 680.02C486.768 682.756 495.315 682.671 497.054 679.85C498.051 678.281 502.674 678.027 511.305 678.875C521.145 679.85 525.62 679.448 530.349 677.051C534.654 674.803 539.129 674.23 545.088 675.142C551.896 676.139 555.289 675.461 561.163 671.983C566.889 668.59 570.367 667.932 576.326 668.929C582.455 669.925 585.106 669.331 589.666 665.769C593.228 662.969 599.272 660.891 605.741 660.319C612.697 659.64 618.084 657.731 621.88 654.508C625.527 651.518 630.171 649.778 634.731 649.778C640.118 649.778 643.935 647.955 649.724 642.653C654.369 638.602 659.671 635.612 662.64 635.612C665.8 635.612 671.101 632.558 676.318 627.829C681.047 623.524 687.664 619.389 691.142 618.646C695.532 617.65 698.607 615.168 701.173 610.439C703.4 606.219 707.959 602.147 712.858 600.005C718.16 597.524 721.723 594.195 723.526 589.805C725.031 586.242 729.421 580.855 733.302 577.971C737.862 574.493 741.17 569.764 742.506 564.716C743.672 560.475 746.472 555.597 748.804 554.028C751.37 552.204 753.682 547.475 754.764 541.685C755.76 536.468 758.326 529.746 760.489 526.777C763.458 522.62 764.137 519.142 763.289 513.098C762.632 507.712 763.289 502.834 765.452 498.677C768.357 493.142 768.357 491.722 765.622 485.275C763.628 480.545 763.055 475.243 763.883 470.026C764.879 463.813 764.201 460.823 760.893 456.115C758.411 452.7 756.587 446.996 756.587 442.945C756.587 437.389 754.933 434.08 749.631 428.779C745.581 424.622 742.167 418.832 741.34 414.612C740.343 409.31 738.201 406.32 732.984 403.245C728.509 400.679 724.777 396.204 722.868 391.327C720.472 385.283 717.99 382.717 711.946 380.384C706.962 378.412 702.573 374.679 699.837 370.119C696.868 364.987 693.453 362.336 688.088 360.831C683.762 359.685 677.888 355.783 674.325 351.733C670.762 347.746 666.118 344.607 663.636 344.607C658.101 344.607 651.633 341.214 646.077 335.233C643.256 332.264 639.291 330.526 635.304 330.526C628.433 330.526 619.313 326.369 615.348 321.576C613.693 319.667 609.537 318.586 604.002 318.671C598.106 318.841 593.314 317.441 589.242 314.535C584.937 311.545 580.144 310.315 572.933 310.315C566.21 310.315 560.421 308.894 556.031 306.243C551.387 303.338 547.591 302.596 542.861 303.423C538.874 304.186 536.309 303.847 536.309 302.511C536.309 296.552 550.984 296.064 560.251 301.684C564.981 304.589 569.201 305.416 575.33 304.844C582.116 304.101 585.191 304.929 590.747 309.064C595.794 312.881 600.184 314.281 606.822 314.281C613.269 314.281 617.171 315.532 620.395 318.586C622.961 320.919 629.344 323.655 634.646 324.63C640.69 325.797 646.586 328.617 650.382 332.264C654.114 335.742 659.755 338.563 664.633 339.221C670.677 340.132 674.155 342.274 678.46 347.576C682.023 351.966 687.092 355.465 691.884 356.78C697.441 358.265 700.834 360.831 703.739 365.814C706.051 369.695 711.268 374.424 715.573 376.418C720.641 378.729 724.522 382.632 727.024 387.679C729.081 391.899 733.154 396.798 736.123 398.622C743.503 403.245 746.472 407.232 746.472 412.788C746.472 415.524 749.462 420.571 753.533 424.622C758.75 429.754 760.638 433.402 760.638 438.131C760.638 441.778 762.632 447.823 765.113 451.725C768.273 456.602 769.757 462.243 769.927 469.942C770.012 476.07 770.839 484.511 771.75 488.752C772.832 493.884 772.493 498.02 770.754 501.265C769.185 504.064 768.591 509.366 769.269 514.265C770.096 520.478 769.439 523.617 766.279 527.604C764.052 530.424 761.804 536.554 761.232 541.262C760.489 546.733 758.157 551.865 754.425 555.852C751.371 559.16 747.977 565.035 746.981 568.937C745.814 573.581 742.845 577.632 738.286 580.707C734.468 583.273 729.824 588.744 728.085 592.88C725.774 598.181 722.465 601.49 716.909 604.056C712.604 606.049 707.302 610.524 705.054 614.002C702.573 617.904 697.78 621.531 692.627 623.439C688.004 625.178 681.874 629.399 679.054 632.813C675.321 637.288 671.356 639.514 665.545 640.426C660.667 641.253 655.45 643.819 652.714 646.725C647.816 652.026 639.545 655.844 632.992 655.844C630.68 655.844 626.121 658.155 622.792 660.891C618.402 664.624 614.521 665.939 607.968 665.939C601.924 665.939 596.876 667.508 591.744 670.986C585.763 675.057 582.794 675.8 576.581 674.803C570.685 673.806 567.207 674.549 561.757 677.963C555.861 681.589 552.892 682.098 545.343 681.017C538.302 679.935 534.4 680.444 529.437 683.18C524.136 685.979 521.23 686.319 514.953 684.749C508.887 683.328 504.922 683.583 498.369 685.916C491.413 688.482 488.592 688.63 483.375 686.573C479.07 685.004 476.165 684.834 474.85 686.149C472.454 688.63 471.542 688.63 467.3 686.064ZM394.326 650.606C390.594 646.81 393.16 643.735 399.967 643.735C404.018 643.735 411.971 641.084 418.439 637.606C433.835 629.399 446.347 629.399 461.595 637.521C475.762 645.24 484.202 645.24 500.277 637.606C508.485 633.725 516.268 631.562 522.057 631.562C533.424 631.562 548.502 638.602 548.502 643.904C548.502 648.718 548.078 648.718 538.387 643.735C526.617 637.691 514.274 638.433 500.447 645.898C486.365 653.426 473.938 653.193 459.517 644.901C447.26 637.86 433.75 637.86 421.917 644.731C413.052 649.948 397.062 653.341 394.326 650.606ZM323.24 630.077C320.441 627.172 323.007 624.945 336.664 618.392C355.39 609.443 364.996 609.188 382.408 617.395C398.313 624.945 405.015 624.945 419.096 617.31C434.175 609.273 446.263 609.273 462.592 617.395C477.904 625.009 485.114 625.009 499.281 617.395C514.529 609.273 526.871 609.273 543.349 617.48C558.343 624.945 564.472 624.945 579.72 617.395C594.056 610.27 606.059 609.612 618.656 615.317C631.741 621.297 629.599 627.999 616.429 622.442C605.316 617.819 594.883 618.731 579.889 625.772C563.984 633.216 553.804 632.898 539.553 624.521C527.953 617.735 515.271 617.734 502.016 624.69C486.196 632.961 478.243 633.131 462.423 625.772C444.863 617.565 434.832 617.48 419.839 625.518C405.418 633.216 397.232 633.216 381.072 625.518C365.654 618.222 354.563 617.734 343.302 623.779C333.78 628.911 324.915 631.646 323.24 630.077ZM395.896 611.521C392.503 610.694 385.716 607.873 380.733 605.307C368.39 598.924 356.302 599.093 342.878 605.965C328.966 613.09 310.579 613.26 315.711 606.219C316.453 605.137 320.016 604.226 323.749 604.056C327.396 603.971 335.519 601.235 341.796 598.097C357.384 590.229 370.214 590.229 383.807 598.181C397.316 606.049 408.577 606.049 422.001 598.181C436.083 589.974 448.256 590.144 465.561 598.754C481.721 606.877 486.281 606.877 500.532 599.263C518.579 589.635 525.047 589.487 543.943 598.012C563.644 606.876 565.065 606.961 579.974 598.839C594.883 590.801 609.621 590.059 622.558 596.76C632.08 601.744 634.646 604.798 631.91 607.534C630.68 608.785 625.866 607.619 618.995 604.395C604.829 597.757 600.672 597.927 584.852 605.54C567.547 613.917 558.597 613.833 540.38 605.477C523.966 597.842 518.346 598.097 502.928 606.707C490.013 613.832 475.338 613.917 463.165 606.792C448.596 598.266 441.47 597.842 426.476 604.883C411.228 612.009 404.103 613.578 395.896 611.521ZM245.303 583.273C245.303 582.276 249.608 578.713 254.91 575.49C332.041 527.604 379.672 492.549 418.439 455.288C432.011 442.182 443.866 431.493 444.778 431.493C445.775 431.493 451.734 433.317 458.033 435.565C471.69 440.358 479.579 440.697 484.945 436.647C493.237 430.348 497.139 432.574 522.396 458.68C559.17 496.62 583.622 514.837 654.284 556.934C677.23 570.591 695.956 582.531 695.956 583.443C695.956 584.333 594.543 585.097 470.63 585.097C335.837 585.097 245.303 584.333 245.303 583.273ZM388.028 549.044C399.056 536.956 410.062 523.447 412.543 518.909C416.446 512.017 414.282 513.607 398.377 529.428C388.113 539.607 378.167 549.808 376.258 551.95C372.865 555.852 365.739 570.93 367.329 570.93C367.732 570.93 377.021 561.069 388.028 549.044ZM630.256 567.771C628.093 566.032 618.571 560.475 609.219 555.428C599.845 550.296 585.361 540.18 576.899 532.906C555.035 514.095 552.638 512.441 560.591 521.475C585.933 550.465 592.656 555.513 620.141 566.032C634.562 571.588 635.643 571.842 630.256 567.771ZM534.251 560.73C532.915 558.333 527.211 551.208 521.485 544.994C515.78 538.695 509.481 531.251 507.573 528.516C504.179 523.447 504.179 523.447 506.088 529.513C508.569 536.956 534.824 570.336 535.821 567.367C536.308 566.116 535.566 563.126 534.251 560.73ZM478.985 546.987C477.246 539.607 474.935 528.601 473.853 522.472C472.114 512.695 471.944 514.01 472.453 533.903C472.856 552.035 473.683 557.506 476.758 562.151C482.23 570.337 483.057 564.292 478.985 546.987ZM340.969 551.292C348.922 547.072 358.613 540.116 362.516 535.79C366.418 531.485 372.864 524.444 376.936 520.139C387.625 508.793 382.896 510.617 369.217 523.129C362.77 529.004 350.427 538.695 341.732 544.57C318.107 560.814 317.875 563.38 340.969 551.292ZM442.382 527.434L443.442 517.403L439.476 527.519C434.514 540.519 434.09 544.739 438.31 540.519C439.964 538.865 441.788 532.991 442.382 527.434ZM533.827 527.01C532.088 525.038 528.695 519.397 526.214 514.434C523.648 509.451 516.437 499.844 510.054 493.227C503.671 486.505 496.545 477.407 494.233 472.932C491.922 468.542 490.013 465.891 489.928 467.121C489.674 472.508 497.054 485.847 505.918 496.196C511.135 502.325 517.434 510.702 519.915 514.753C522.396 518.909 526.871 524.126 529.861 526.353C536.648 531.4 537.899 531.57 533.827 527.01ZM454.724 473.165C457.948 464.216 458.605 451.725 455.467 458.766C445.944 480.376 441.385 492.4 441.385 495.539C441.385 500.013 450.652 484.511 454.724 473.165ZM423.741 472.508C431.184 464.47 437.313 457.345 437.313 456.687C437.313 454.439 417.273 472.02 413.371 477.64C402.703 493.058 406.096 491.403 423.741 472.508ZM284.388 488.074C288.63 473.08 288.545 472.593 280.422 467.121L272.639 461.819H282.904C293.104 461.819 293.104 461.819 296.158 452.212L299.148 442.606L302.202 451.725C305.108 460.505 305.595 460.823 314.715 461.819L324.088 462.816L317.026 467.63C308.925 473.165 309.01 472.762 312.976 483.854C316.199 493.058 315.224 493.142 304.026 484.278C299.064 480.375 299.064 480.376 291.026 486.674C283.073 492.973 282.989 492.973 284.388 488.074ZM634.392 483.854C638.379 472.677 638.463 472.932 629.768 467.545L622.219 462.816L632.165 461.819C641.856 460.823 642.196 460.589 645.165 451.725L648.24 442.606L651.209 452.212C654.284 461.819 654.284 461.819 663.467 461.904L672.755 461.989L665.291 468.033C657.847 474.162 657.847 474.162 660.752 482.369C662.321 486.929 663.636 491.064 663.636 491.552C663.636 492.061 660.158 489.749 656.023 486.42C648.325 480.376 648.325 480.375 643.341 484.278C632.165 493.142 631.168 493.058 634.392 483.854ZM464.246 432.087C456.039 431.09 454.3 428.842 450.653 414.76C447.684 403.415 448.341 396.713 453.134 387.679C454.64 384.943 454.64 382.95 453.304 381.55C450.08 378.327 450.568 367.553 454.215 361.997C456.209 358.943 460.259 356.441 464.331 355.614C469.718 354.617 471.033 353.557 470.29 350.736C468.806 345.095 475.592 332.668 481.975 329.359C489.419 325.542 501.931 325.627 507.573 329.614C511.708 332.434 512.535 332.434 516.607 329.614C525.471 323.4 540.38 328.362 540.38 337.566C540.38 339.22 542.119 340.535 544.176 340.535C556.371 340.535 563.729 359.007 554.207 365.645C551.811 367.299 549.075 368.211 548.163 367.638C547.251 367.044 546.424 368.868 546.424 371.604C546.424 378.984 537.135 385.685 528.78 384.371C524.22 383.628 522.227 384.031 522.227 385.94C522.227 387.34 520.318 390.902 518.007 393.893C514.783 397.943 512.047 399.195 505.918 399.195C494.573 399.195 485.941 407.317 484.457 419.405C482.633 433.571 481.551 434.229 464.246 432.087ZM461.935 412.619C461.426 405.154 462.083 397.71 463.504 394.889C465.731 390.33 465.646 390.245 462.677 393.977C458.69 399.025 457.863 409.31 460.599 420.889C462.338 428.609 462.762 426.043 461.935 412.619ZM481.552 403.669C485.708 395.886 493.979 390.902 500.786 392.154C504.922 392.981 508.4 392.238 511.051 390.075C515.016 386.852 515.016 386.852 510.796 388.93C508.485 389.991 503.437 390.415 499.62 389.842C486.768 387.764 475.253 402.588 475.931 420.402C476.08 424.961 476.589 424.134 477.755 417.093C478.582 411.961 480.322 405.896 481.552 403.669ZM888.22 653.193C886.312 650.775 886.969 647.213 891.868 634.955C912.651 582.594 921.601 527.689 919.692 464.067C916.893 366.726 884.255 277.423 824.684 203.686C816.392 193.336 811.684 185.871 812.426 183.984C814.25 179.339 815.395 180.166 826.592 193.675C850.196 222.072 881.095 272.439 878.698 278.653C877.871 280.816 878.444 281.982 880.353 281.982C881.922 281.982 884.318 284.209 885.57 287.03C886.969 290.083 887.054 292.077 885.909 292.077C884.742 292.077 883.915 293.074 883.915 294.325C883.915 295.555 885.23 296.064 886.821 295.386C891.444 293.647 908.516 339.793 917.126 377.818C926.5 418.748 930.719 480.715 926.499 516.406C925.248 526.925 923.849 540.031 923.255 545.418C921.283 567.028 902.133 634.297 893.183 651.369C891.041 655.42 890.384 655.674 888.22 653.193ZM91.7 611.436C91.7 610.354 93.46 608.53 95.5171 607.449C97.6803 606.304 101.9 601.087 104.89 595.785C110.68 585.669 117.806 578.628 120.457 580.367C125.843 583.676 117.148 604.65 108.114 609.952C101.731 613.663 91.7 614.575 91.7 611.436ZM846.06 609.358C839.762 605.54 838.511 603.483 839.253 597.758C839.508 596.358 838.681 595.191 837.514 595.191C836.369 595.191 835.457 593.452 835.457 591.311C835.457 587.833 836.538 588.151 846.06 594.28C860.715 603.802 867.756 609.358 867.756 611.521C867.756 614.914 852.677 613.43 846.06 609.358ZM85.6559 602.147C85.6559 588.066 97.5107 574.981 110.426 574.981C117.318 574.981 117.551 577.547 110.935 581.852C108.199 583.676 104.064 588.978 101.646 593.707C97.6803 601.659 90.724 609.188 87.246 609.273C86.3341 609.358 85.6559 606.134 85.6559 602.147ZM865.529 604.056C863.959 602.232 859.4 598.584 855.243 595.933C845.552 589.889 842.752 584.842 846.315 579.943C848.881 576.465 849.284 576.465 855.837 580.283C859.633 582.531 864.702 587.323 867.268 591.056C874.224 601.49 872.739 612.751 865.529 604.056ZM838.426 579.031C839.105 577.971 840.589 577.059 841.755 577.059C842.816 577.059 843.155 577.971 842.498 579.031C841.84 580.113 840.334 581.025 839.189 581.025C838.108 581.025 837.769 580.113 838.426 579.031ZM847.545 526.522C847.545 524.274 846.464 522.96 844.979 523.362C843.664 523.787 836.369 524.699 828.819 525.356C816.392 526.523 815.246 526.268 815.246 522.79C815.246 518.824 824.938 516.406 840.759 516.406C846.23 516.406 847.545 515.58 847.545 512.356C847.545 510.108 848.881 508.306 850.535 508.306C852.592 508.306 853.589 510.363 853.589 514.837C853.674 518.485 854.268 523.447 854.84 526.013C855.837 529.661 855.243 530.573 851.765 530.573C848.881 530.573 847.545 529.258 847.545 526.522ZM135.45 520.796C134.878 519.969 135.196 517.997 136.108 516.492C138.44 512.759 136.532 508.306 132.63 508.306C130.976 508.306 127.497 510.617 124.931 513.353C115.07 523.956 101.243 517.085 104.721 503.237C106.29 496.854 110.934 497.617 111.019 504.319C111.019 511.02 115.07 511.444 122.196 505.485C132.545 496.79 144.315 500.586 144.315 512.61C144.315 519.566 138.186 525.271 135.45 520.796ZM813.168 504.403C813.168 502.155 816.158 498.677 820.294 496.196C829.328 490.576 829.158 489.495 819.551 491.064C813.338 492.146 811.429 491.722 810.432 489.155C809.775 487.416 810.347 485.508 811.684 485.02C814.504 484.023 845.637 477.979 848.118 477.979C849.03 477.979 849.539 482.772 849.115 488.583C848.627 498.105 847.969 499.356 842.901 501.095C838.85 502.495 836.115 502.41 833.209 500.586C829.816 498.444 828.247 498.847 822.521 503.237C814.504 509.281 813.168 509.535 813.168 504.403ZM842.816 491.064C844.407 486.929 843.24 486.017 837.853 487.416C835.372 488.074 833.379 489.813 833.379 491.403C833.379 495.199 841.332 494.966 842.816 491.064ZM126.586 488.667C114.582 482.199 109.938 478.637 109.938 475.816C109.938 472.338 111.507 471.935 125.589 471.935C134.199 471.935 143.318 471.341 145.799 470.684C149.447 469.687 150.359 470.281 150.359 473.589C150.359 476.325 148.79 477.894 145.799 478.382C140.328 479.145 138.271 487.501 143.148 489.325C146.393 490.576 147.454 495.284 144.803 496.79C143.976 497.193 135.789 493.545 126.586 488.667ZM134.199 481.033C134.199 478.891 132.057 478.064 126.586 478.064C119.057 478.149 119.057 478.149 125.101 480.948C133.054 484.596 134.199 484.596 134.199 481.033ZM806.467 470.281C798.662 461.65 805.873 449.816 821.375 445.659C831.724 442.86 838.362 445.172 841.84 452.637C848.054 466.294 816.9 481.797 806.467 470.281ZM828.416 462.986C835.118 460.165 837.514 455.287 833.464 452.785C830.558 450.961 815.904 455.351 812.256 458.999C805.47 465.806 815.649 468.287 828.416 462.986ZM133.223 460.165C110.425 452.552 110.341 446.169 133.138 445.511L141.24 445.256L132.311 442.436C121.771 439.128 119.63 437.474 121.772 433.996C122.938 432.087 127.497 432.914 141.176 437.558C161.704 444.514 160.962 444.005 159.223 448.395C158.312 450.961 155.173 451.788 145.566 451.873L133.138 452.043L143.233 455.606C148.79 457.514 153.349 460.335 153.349 461.819C153.349 466.124 150.359 465.891 133.223 460.165ZM809.775 434.908C806.954 431.345 804.961 430.518 801.992 431.663C795.693 434.144 790.964 433.741 790.964 430.751C790.964 428.439 820.697 413.361 825.426 413.361C827.822 413.361 831.724 428.354 830.24 432.002C829.073 435.225 820.866 439.616 816.243 439.616C814.737 439.616 811.768 437.474 809.775 434.908ZM822.69 429.266C823.942 428.015 824.514 425.788 823.941 424.304C822.605 420.89 813.168 424.792 813.168 428.779C813.168 432.087 819.552 432.405 822.69 429.266ZM163.359 419.744C164.441 416.266 162.617 414.676 150.444 408.971C137.274 402.672 133.626 399.025 137.931 396.289C138.928 395.717 146.393 398.622 154.579 402.757C168.173 409.628 169.488 410.88 169.488 416.351C169.488 420.571 168.427 422.565 165.776 423.053C162.871 423.625 162.383 422.968 163.359 419.744ZM785.747 420.741C784.835 418.324 785.917 414.93 788.822 411.049C794.188 403.754 793.361 402.185 786.086 405.493C782.015 407.402 780.191 407.402 778.367 405.663C777.137 404.326 776.48 402.927 776.968 402.503C779.279 400.361 807.697 385.028 809.266 385.028C811.684 385.028 817.219 395.971 817.219 400.679C817.219 406.15 813.253 409.31 806.212 409.31C801.568 409.31 798.429 411.134 793.615 416.839C788.059 423.477 787.083 423.965 785.832 420.741H785.747ZM808.778 397.456C809.351 393.32 808.948 393.065 805.3 395.059C800.083 397.795 799.574 403.839 804.558 402.842C806.551 402.503 808.439 400.022 808.778 397.456ZM36.6246 417.093C34.5463 415.927 33.6346 414.103 34.5465 412.703C35.2887 411.452 36.2005 406.32 36.5398 401.358C37.3669 387.191 48.3948 345.922 58.4045 319.498C85.2528 248.751 133.966 180.654 191.373 133.617C198.902 127.488 201.553 126.237 203.462 128.145C205.37 130.054 202.804 133.362 191.777 142.969C113.671 211.235 63.5365 297.548 44.5773 396.544C40.5903 417.009 39.8481 418.917 36.6246 417.093ZM166.603 398.94C156.318 394.89 148.281 387.106 148.281 381.211C148.281 366.641 165.925 364.648 180.176 377.563C186.305 383.119 186.305 393.808 180.176 398.028C175.129 401.591 173.559 401.761 166.603 398.94ZM177.525 391.242C181.088 385.516 162.447 372.77 156.996 377.33C153.667 380.065 156.403 383.777 165.522 389.418C172.223 393.469 175.786 394.062 177.525 391.242ZM769.588 392.981C767.933 390.245 768.358 389.927 785.578 378.242C798.832 369.377 803.137 368.211 803.053 373.513C803.053 375.676 775.314 395.144 772.238 395.144C771.581 395.144 770.33 394.147 769.588 392.981ZM942.489 385.028C942.489 383.947 943.805 383.035 945.459 383.035C947.049 383.035 948.852 383.947 949.615 385.028C950.272 386.11 948.937 387.021 946.71 387.021C944.398 387.021 942.489 386.11 942.489 385.028ZM763.14 382.716C761.486 381.062 761.401 379.238 762.886 376.418C765.622 371.371 762.377 367.871 755.103 367.871C744.584 367.871 748.719 363.163 765.791 355.868C782.524 348.658 788.886 347.831 788.886 352.878C788.886 354.787 767.106 385.028 765.791 385.028C765.621 385.028 764.37 383.946 763.14 382.716ZM774.317 362.824C777.137 358.265 776.31 357.777 770.584 360.915C768.358 362.082 767.106 363.906 767.764 364.902C769.588 367.871 771.581 367.214 774.317 362.824ZM929.553 376.673C929.066 375.167 927.729 370.862 926.499 367.044C923.764 358.349 923.679 358.689 927.899 360.173C935.767 363.164 938.842 372.431 933.455 376.906C931.059 378.899 930.232 378.899 929.553 376.673ZM189.868 375.167C189.295 374.17 190.122 372.261 191.777 370.862C198.817 364.987 194.258 359.77 184.905 363.079C179.773 364.818 177.61 364.648 173.559 361.912C164.78 356.208 168.661 339.878 177.865 343.441C180.94 344.607 180.94 345.01 177.695 348.573C172.478 354.384 175.383 356.695 186.39 355.381C200.896 353.705 207.194 361.743 199.729 372.431C196.506 377.076 191.861 378.327 189.868 375.167ZM197.333 344.925C190.377 338.563 184.651 332.434 184.651 331.268C184.651 327.451 196.251 317.844 197.821 320.325C198.584 321.576 197.736 324.227 195.997 326.22C193.028 329.529 193.028 330.101 196.421 333.176C199.729 336.145 200.323 336.146 203.292 333.261C208.106 328.447 212.157 331.841 207.682 336.824C204.374 340.451 204.374 340.959 207.512 344.013C210.587 347.173 211.16 347.088 214.977 343.61C218.201 340.79 219.706 340.451 221.53 342.211C223.354 344.013 222.505 346.007 218.052 350.651C214.892 354.044 211.754 356.695 211.075 356.611C210.503 356.611 204.289 351.309 197.333 344.925ZM728.997 343.865C723.462 339.051 723.462 339.051 736.207 324.545C743.333 316.593 750.034 310.4 751.201 310.803C756.1 312.457 754.276 316.847 744.33 327.366C734.383 337.969 733.981 338.796 737.119 342.274C740.194 345.689 739.77 348.658 736.123 348.658C735.296 348.658 732.072 346.516 728.997 343.865ZM228.316 317.186C222.76 305.671 219.367 296.149 220.194 294.24C221.021 292.077 224.754 297.718 231.794 311.715C239.259 326.623 241.571 333.007 240.001 334.576C238.347 336.23 235.103 331.353 228.316 317.186ZM182.997 319.244C183.421 316.105 184.905 313.199 186.39 312.712C188.214 312.139 188.892 313.538 188.383 317.441C188.044 320.579 186.475 323.485 185.075 323.973C183.166 324.545 182.594 323.231 182.997 319.244ZM694.959 314.281C694.302 313.199 697.78 306.986 702.827 300.454C709.359 291.992 711.268 288.026 709.698 286.457C708.532 285.206 708.129 282.809 708.786 280.986C709.868 278.165 711.437 278.653 719.305 284.04C726.855 289.257 728.085 290.932 726.112 293.243C724.373 295.385 723.038 295.555 721.044 293.986C718.987 292.247 716.485 294.494 709.698 304.016C701.258 315.85 697.525 318.501 694.959 314.281ZM258.876 310.973C258.049 310.23 258.473 308.407 259.703 306.901C261.442 304.844 259.958 301.196 253.49 291.165C245.791 279.416 244.476 273.86 249.269 273.86C250.266 273.86 255.165 280.392 260.297 288.43C268.568 301.366 269.31 303.338 266.829 306.986C263.86 311.545 260.87 313.051 258.876 310.973ZM728.339 306.243C728.339 305.098 729.675 304.186 731.329 304.186C732.984 304.186 734.214 303.508 734.129 302.681C733.472 298.46 734.638 296.149 737.458 296.149C742.336 296.149 743.587 302.362 739.367 305.501C734.977 308.725 728.339 309.149 728.339 306.243ZM679.966 304.335C677.887 303.02 677.548 299.86 678.46 291.759C679.542 282.809 679.308 281.558 677.23 284.718C670.592 294.813 667.941 297.146 665.63 294.813C663.891 293.159 665.715 288.853 672.84 277.677C678.057 269.47 682.702 262.429 683.02 262.005C684.674 260.097 689.912 266.649 689.149 269.64C688.661 271.463 687.664 276.511 687.007 280.986L685.671 289.023L690.973 280.477C695.702 272.694 702.085 268.876 702.085 273.86C702.085 274.941 697.695 282.64 692.393 290.932C685.268 302.108 682.023 305.586 679.966 304.335ZM276.202 294.643C273.954 292.671 269.246 285.948 265.768 279.65C260.381 269.958 259.873 267.986 262.354 265.907C264.772 263.914 266.596 265.822 272.873 276.765C277.114 284.039 281.674 290.084 282.989 290.084C288.46 290.084 287.803 285.291 280.826 273.606C272.809 260.033 272.046 257.127 277.029 258.124C281.504 258.951 293.677 279.48 293.762 286.287C293.847 295.385 282.904 300.624 276.202 294.643ZM651.718 288.111C649.639 286.86 651.039 282.725 657.847 270.128C662.64 261.093 667.284 253.649 668.196 253.649C672.586 253.649 671.356 260.69 664.633 273.69C656.426 289.511 655.514 290.507 651.718 288.111ZM297.494 268.389C294.504 251.741 295.077 245.612 299.721 245.612C301.799 245.612 324.152 273.287 324.152 275.768C324.152 278.589 319.529 278.589 316.623 275.684C313.06 272.121 305.935 275.514 306.508 280.477C306.762 283.043 305.68 285.121 303.772 285.545C301.291 286.033 299.975 282.47 297.494 268.389ZM308.67 268.304C309.243 267.392 307.844 264.423 305.596 261.687C302.711 258.124 301.884 257.785 302.711 260.436C303.369 262.429 303.941 265.398 303.941 266.989C303.941 270.043 307.101 270.87 308.67 268.304ZM627.436 276.002C625.951 275.09 625.209 272.863 625.866 271.124C627.86 265.992 619.229 262.26 615.92 266.819C614.351 268.961 612.039 269.873 609.961 269.046C607.649 268.219 607.225 266.989 608.476 265.25C624.785 243.788 630.426 237.49 633.649 237.49C638.039 237.49 638.209 240.31 635.07 260.351C632.483 276.511 631.508 278.589 627.436 276.002ZM628.856 253.48C629.344 248.751 629.344 248.751 626.29 252.568C622.558 257.297 622.304 260.351 625.782 259.27C627.181 258.782 628.517 256.216 628.856 253.48ZM323.579 258.209C316.284 237.829 316.369 238.656 321.267 237.914C324.152 237.489 327.311 239.653 331.129 244.615C337.83 253.48 339.4 252.822 335.264 242.961C331.362 233.587 331.447 231.022 335.519 231.764C338.488 232.443 350.003 258.442 350.258 265.334C350.512 270.551 343.132 267.477 335.837 259.27L328.223 250.659L332.274 260.436C334.437 265.823 335.752 271.039 335.179 272.036C332.189 276.829 328.626 272.609 323.579 258.209ZM744.987 270.552C739.431 266.649 739.367 264.741 744.414 255.304C748.38 247.839 748.38 247.839 740.597 241.71C731.16 234.181 731.732 234.266 723.292 240.629C716.484 245.867 716.485 245.867 710.038 239.971L703.485 234.181L720.472 222.072C752.028 199.465 776.544 182.987 778.283 182.987C779.195 182.987 782.927 185.469 786.574 188.523L793.127 194.079L775.313 231.446C765.537 251.995 756.842 269.958 755.93 271.379C753.852 274.687 750.628 274.432 744.987 270.552ZM763.459 219.103C768.527 210.069 771.178 203.94 769.184 205.425C767.276 206.93 761.147 211.808 755.591 216.283C750.034 220.672 745.072 224.575 744.669 224.893C743.905 225.317 752.537 235.496 753.682 235.496C753.937 235.496 758.327 228.137 763.459 219.103ZM596.452 264.656C595.795 263.999 597.788 256.046 600.842 246.927C605.232 233.842 607.225 230.279 610.618 229.791C614.839 229.198 614.775 229.537 608.795 247.521C603.26 263.829 600.1 268.304 596.452 264.656ZM585.615 260.182C584.364 259.354 582.54 255.134 581.459 250.659L579.465 242.537L576.984 250.171C575.584 254.307 573.591 257.7 572.679 257.7C568.459 257.7 568.543 252.314 573.018 236.239C577.726 219.018 577.726 219.018 583.706 220.184C596.452 222.751 600.099 230.937 592.656 240.395C589.326 244.615 588.584 247.669 589.411 253.819C590.493 261.772 589.835 263.002 585.615 260.182ZM588.181 234.351C588.838 232.612 588.33 230.194 587.184 228.964C584.533 226.313 583.791 226.801 581.883 232.93C580.228 238.317 586.187 239.653 588.181 234.351ZM370.638 254.795C370.638 253.226 372.631 251.656 375.197 251.317C381.644 250.405 380.818 245.103 373.607 241.795C366.248 238.317 364.594 236.005 364.594 229.283C364.509 222.666 367.987 219.357 375.028 219.357C381.814 219.357 382.896 224.808 376.343 225.72C369.069 226.801 369.726 231.276 377.594 234.584C387.285 238.656 390.594 245.612 386.034 252.568C382.238 258.358 370.638 260.033 370.638 254.795ZM205.943 250.829C197.736 247.266 181.343 229.367 176.529 218.764C174.217 213.547 172.648 205.679 172.648 198.638C172.563 188.119 173.305 186.211 179.688 179.17C183.59 174.865 189.634 170.136 193.112 168.651C198.902 166.255 199.729 166.403 203.207 170.729C208.276 177.007 207.936 178.258 200.068 181.99C186.39 188.459 186.157 200.377 199.072 219.357C211.245 237.15 222.442 240.713 233.279 230.364C238.178 225.635 240.087 224.893 242.886 226.632C254.91 234.182 237.351 253.819 218.709 253.565C215.062 253.565 209.251 252.313 205.943 250.829ZM393.987 236.175C395.323 219.188 397.147 213.292 401.198 213.292C402.618 213.292 419.096 246.1 419.096 248.92C419.096 251.168 411.313 249.175 410.316 246.609C408.408 241.795 401.282 242.876 400.54 248.093C400.201 250.575 398.313 252.971 396.235 253.31C392.842 253.968 392.672 252.737 393.987 236.175ZM405.354 234.012C404.357 232.018 403.021 229.049 402.364 227.374C401.791 225.72 401.198 227.31 401.113 230.937C400.964 235.581 401.855 237.49 404.018 237.49C406.33 237.49 406.669 236.578 405.354 234.012ZM556.519 249.747C556.519 244.531 548.503 241.964 546 246.354C544.028 249.917 538.302 250.829 538.302 247.669C538.302 246.524 541.695 238.826 545.851 230.449C551.98 218.191 554.292 215.286 558.024 215.286C562.329 215.286 562.584 216.028 562.669 229.961C562.669 237.977 563.242 246.609 563.899 249.175C564.811 252.822 564.323 253.649 560.845 253.649C557.94 253.649 556.519 252.398 556.519 249.747ZM556.455 231.934C556.455 224.405 556.455 224.405 553.38 229.961C550.39 235.496 550.899 239.568 554.631 239.568C555.692 239.568 556.519 236.09 556.455 231.934ZM422.171 234.012C419.923 210.896 420.008 210.408 423.317 209.73C425.31 209.327 428.364 212.55 431.863 218.764L437.229 228.371V218.849C437.313 211.893 438.14 209.242 440.219 209.242C442.297 209.242 443.442 213.059 444.354 222.835C445.033 230.364 446.029 238.487 446.517 240.798C448.341 249.663 441.555 248.009 435.002 237.978L428.788 228.371L430.039 237.978C431.015 246.524 430.781 247.605 427.388 247.605C424.059 247.605 423.316 245.612 422.171 234.012ZM528.122 237.978L527.953 228.371L524.878 237.002C522.736 243.046 520.742 245.612 518.007 245.612C514.698 245.612 514.041 244.043 513.871 235.008L513.617 224.405L511.539 235.008C509.884 243.534 508.739 245.612 505.494 245.612C502.186 245.612 501.762 244.615 502.674 240.056C503.353 237.002 505.007 228.371 506.237 220.842C507.573 213.292 509.396 207.164 510.223 207.164C516.013 207.164 518.176 210.238 518.176 218.445C518.176 230.618 520.742 230.937 524.878 219.188C528.207 209.814 532.513 206.591 535.312 211.235C537.814 215.201 533.912 247.605 531.007 247.605C529.098 247.605 528.207 244.7 528.122 237.978ZM459.517 235.751C459.517 221.924 457.46 213.292 454.215 213.292C452.731 213.292 451.48 211.893 451.48 210.238C451.48 207.906 454.046 207.164 462.592 207.164C471.117 207.164 473.684 207.906 473.684 210.238C473.684 211.893 471.86 213.292 469.633 213.292C465.9 213.292 465.561 214.628 465.561 229.452C465.561 242.452 464.989 245.612 462.592 245.612C460.259 245.612 459.517 243.131 459.517 235.751ZM473.28 244.531C472.687 243.958 474.595 235.263 477.501 225.232C481.976 209.814 483.375 207.163 486.684 207.672C493.322 208.584 501.444 245.612 495.06 245.612C493.406 245.612 491.582 243.788 490.84 241.54C490.183 239.314 487.85 237.49 485.708 237.49C483.63 237.49 480.894 239.314 479.728 241.54C477.586 245.612 475.338 246.609 473.28 244.531ZM488.189 225.147C487.595 220.757 486.768 219.676 485.538 221.669C482.972 225.804 483.46 231.446 486.45 231.446C488.359 231.446 488.847 229.537 488.189 225.147ZM680.708 222.411C662.321 213.292 658.016 196.56 668.281 174.207C682.277 143.542 703.082 131.708 723.95 142.396C734.214 147.613 737.119 151.495 735.55 157.708C733.98 164.007 728.509 166.573 725.519 162.353C722.465 158.302 715.34 154.654 710.271 154.654C698.692 154.654 681.048 181.397 682.193 197.387C682.787 205.509 683.528 206.506 691.651 210.642C702.912 216.368 702.573 215.859 699.752 222.072C696.783 228.71 693.39 228.71 680.708 222.411ZM609.049 223.578C609.049 222.581 611.785 220.757 615.093 219.591C619.907 217.937 621.222 218.106 621.222 220.269C621.222 222.984 616.917 225.401 611.954 225.401C610.385 225.401 609.049 224.574 609.049 223.578ZM264.517 216.283C248.866 207.842 235.187 184.132 233.703 162.777C232.706 149.84 232.961 149.013 239.174 141.888C246.618 133.447 257.816 129.291 267.995 131.199C290.453 135.441 313.633 187.122 300.803 204.364C290.941 217.533 276.033 222.411 264.517 216.283ZM283.816 201.035C295.501 194.821 274.696 146.617 260.382 146.617C253.744 146.617 248.781 154.485 250.605 162.014C254.825 179.34 270.073 203.198 277.029 203.198C278.599 203.198 281.674 202.201 283.816 201.035ZM623.703 195.075C621.222 193.994 619.165 192 619.165 190.516C619.165 188.119 648.982 112.155 650.552 110.501C652.036 108.932 665.63 114.721 665.63 116.948C665.63 118.199 658.844 136.586 650.552 157.708C634.901 197.896 633.904 199.211 623.703 195.075ZM327.227 185.214C325.488 177.177 327.227 174.526 333.356 176.095C340.566 177.919 350.258 173.296 351.742 167.315C353.397 160.444 348.01 155.8 333.44 151.664C319.359 147.699 311.152 140.403 309.243 129.969C306.274 114.467 317.196 101.721 335.837 98.9006C345.868 97.4161 347.861 98.6465 348.773 107.172C349.346 112.983 349.007 113.237 341.054 113.809C330.132 114.636 324.576 120.278 327.715 127.233C329.454 131.03 333.356 133.193 344.129 136.416C359.949 141.146 367.245 147.783 369.387 159.447C372.462 175.777 359.865 189.201 340.142 190.685C328.627 191.513 328.542 191.428 327.227 185.214ZM591.489 183.56C586.93 182.648 586.188 180.506 583.622 161.695C580.377 137.583 577.663 137.752 571.682 162.437C568.119 177.261 568.119 177.261 561.906 176.031C558.428 175.352 554.78 173.868 553.635 172.787C551.98 171.048 568.798 94.9137 572.191 89.2938C574.502 85.3916 604.489 94.2561 611.785 100.979C622.388 110.734 617.002 135.186 602.751 141.973C597.618 144.454 597.618 144.454 601.266 161.186C606.822 186.55 606.822 186.55 591.489 183.56ZM595.795 125.898C602.348 116.715 598.191 106.196 588.181 106.196C585.615 106.196 580.801 120.681 580.801 128.464C580.801 132.451 592.656 130.457 595.795 125.898ZM798.917 173.529C755.421 128.379 691.481 86.5583 633.161 65.0118C598.785 52.2663 540.783 39.4995 517.264 39.4995C512.705 39.4995 507.742 38.0148 505.664 36.1062C502.674 33.4553 501.02 33.201 497.372 34.94C494.891 36.1912 479.24 37.6758 462.592 38.2484C415.533 40.0722 380.648 46.3704 336.261 61.0458C313.633 68.4895 272.809 87.3006 253.086 99.3039C243.798 104.945 240.489 106.026 238.347 104.202C235.357 101.721 232.049 104.605 234.106 108.02C234.7 108.995 229.228 114.149 221.848 119.366C211.33 126.894 208.106 128.315 206.77 126.152C204.798 123.013 206.197 121.677 228.147 106.429C305.193 52.6692 415.957 23.2549 510.478 31.2924C573.336 36.5942 620.565 49.1063 675.237 74.9578C693.136 83.3983 698.437 86.8125 700.007 91.1176C701.661 95.4226 702.997 96.2498 706.793 95.3379C719.475 92.1144 818.894 173.698 810.602 180.506C808.439 182.308 805.958 180.909 798.917 173.529ZM401.94 170.305C401.452 168.906 399.14 155.481 396.892 140.488C390.361 98.1584 391.845 101.87 382.408 103.46C376.512 104.372 373.776 103.948 372.462 101.87C370.892 99.3888 369.811 90.0361 371.126 89.9513C371.38 89.9513 382.556 88.1277 395.896 85.9646C409.235 83.7378 420.666 81.9138 421.408 81.9138C422.087 81.9138 423.231 84.819 423.91 88.3818C425.395 95.5923 423.147 97.9887 414.876 98.0735C412.055 98.0735 409.235 98.5613 408.662 99.0703C408.153 99.6428 410.232 115.294 413.455 133.85C416.615 152.491 418.757 168.821 418.184 170.221C416.933 173.614 403.106 173.614 401.94 170.305ZM443.866 167.485C439.964 165.916 440.558 162.777 452.158 119.281C462.825 78.8599 462.826 78.86 470.948 78.2662C475.847 77.9481 479.897 78.6903 481.233 80.2596C483.545 83.165 504.01 157.963 504.01 163.604C504.01 166.339 502.441 166.912 495.548 166.403C487.596 165.831 487.023 165.343 484.881 157.708C482.718 149.671 482.548 149.586 472.199 149.013C462.083 148.441 461.596 148.611 460.429 154.061C457.46 167.994 453.388 171.302 443.866 167.485ZM478.731 130.457C478.074 128.315 476.334 120.362 474.85 112.813C472.856 102.464 471.945 100.3 471.118 104.118C470.46 106.938 468.636 114.891 467.152 121.847C464.246 134.444 464.246 134.444 472.114 134.444C479.07 134.444 479.813 133.935 478.731 130.457Z" fill="#DBA651"/>
</svg>
