<svg width="958" height="962" viewBox="0 0 958 962" fill="none" xmlns="http://www.w3.org/2000/svg">
<path fill-rule="evenodd" clip-rule="evenodd" d="M335.512 403.303C336.1 384.71 336.1 384.709 341.735 384.102C344.922 383.818 349.438 384.861 351.885 386.474C355.3 388.712 356.4 388.846 357.007 387.005C357.596 385.222 366.266 384.557 393.833 384.102C425.555 383.666 429.919 383.894 429.919 386.417C429.919 389.889 431.475 389.889 438.381 386.417C442.896 384.178 451.491 383.818 489.132 384.179C534.496 384.71 534.495 384.71 535.084 388.713C535.615 392.109 534.799 392.716 530.189 392.716C526.489 392.716 524.706 391.825 524.706 390.041C524.706 388.562 523.833 387.365 522.865 387.365C521.822 387.365 520.57 388.562 519.963 390.041C519.09 392.337 507.593 392.716 431.475 392.716H344.106V404.783C344.03 411.385 343.291 418.064 342.323 419.544C340.919 421.612 340.54 421.687 340.54 419.752C340.54 417.76 340.027 417.684 337.807 419.619C335.36 421.611 335.056 419.828 335.512 403.303ZM437.034 960.184C393.093 955.953 347.218 945.499 309.425 930.909C295.48 925.502 290.452 922.751 291.116 920.968C292.236 918.084 289.409 917.496 287.701 920.228C286.07 922.903 283.262 920.607 284.438 917.496C285.254 915.409 284.305 915.124 280.15 915.94C266.888 918.596 197.81 874.504 154.742 835.971C122.223 806.924 73.7485 746.819 79.6679 742.967C81.015 742.076 83.5951 741.696 85.3785 742.152C88.0537 742.816 88.4901 742.152 87.6742 739.022C86.9343 735.853 87.5223 735.094 91.165 734.885C94.7129 734.658 97.0846 736.726 102.719 745.111L109.834 755.565L98.6404 756.153L87.4652 756.818L99.3804 757.121C111.029 757.481 111.466 757.709 117.025 764.672C120.288 768.903 122.28 772.982 121.616 774.595C121.028 776.303 121.331 776.909 122.508 776.169C123.551 775.486 126.739 777.194 129.622 779.945C133.929 784.024 134.442 785.352 132.582 787.648C130.742 789.868 130.893 790.171 133.265 789.279C135.257 788.54 140.228 792.315 149.335 801.65C166.543 819.142 199.593 846.785 219.381 860.199C227.976 865.986 235.014 871.317 235.014 871.981C235.014 872.588 235.982 873.176 237.234 873.176C238.487 873.252 246.284 877.255 254.651 882.074C297.643 906.814 351.069 925.787 402.655 934.609C414.21 936.62 415.614 937.284 415.614 940.908C415.614 943.128 414.589 945.291 413.318 945.727C412.142 946.163 413.318 946.543 416.069 946.543C420.888 946.619 422.804 943.052 419.18 940.756C414.874 938.176 417.985 936.904 425.84 938.176C430.526 938.916 446.444 940.016 461.204 940.68C528.785 943.792 603.043 929.354 664.855 901.104C680.28 894.141 686.579 891.997 687.528 893.552C689.691 897.176 699.917 892.073 699.917 887.329C699.917 884.654 702.516 882.131 708.872 878.659C721.033 871.905 723.177 872.133 721.925 879.987C721.261 884.066 721.545 886.21 722.892 886.21C723.993 886.21 724.96 885.394 724.96 884.445C724.96 883.478 725.852 882.662 726.971 882.662C728.451 882.662 728.451 883.326 726.971 885.034C725.852 886.362 725.549 888.069 726.289 888.809C727.029 889.473 726.44 889.853 725.036 889.549C723.632 889.189 721.413 891.105 719.99 893.856C716.878 900.231 703.692 907.345 701.472 903.855C700.277 901.995 699.992 902.147 699.917 904.519C699.917 907.63 694.794 911.349 690.658 911.197C689.311 911.197 690.715 909.186 693.618 906.739C699.177 902.223 698.721 900.971 692.65 904.158C690.279 905.486 689.159 905.486 689.159 904.158C689.159 903.19 687.983 902.375 686.503 902.375C683.543 902.375 682.784 908.673 685.611 910.381C689.159 912.601 687.167 914.46 675.309 919.867C639.888 936.165 593.86 949.806 555.403 955.441C533.091 958.628 528.272 957.888 528.272 951.286C528.272 948.25 524.345 948.099 521.461 950.982C518.558 953.885 518.786 955.953 521.973 955.953C523.453 955.953 524.648 956.769 524.648 957.736C524.648 961.076 521.461 959.577 516.927 954.17C512.032 948.402 509.604 949.502 511.368 956.769C512.487 961.208 512.336 961.36 503.438 961.36C498.41 961.36 494.255 960.544 494.255 959.52C494.255 958.552 493.439 957.736 492.396 957.736C491.371 957.736 490.992 958.552 491.58 959.444C492.547 961.076 452.307 961.588 437.034 960.108V960.184ZM542.578 948.838C542.578 947.871 541.762 947.055 540.794 947.055C539.751 947.055 538.935 947.871 538.935 948.838C538.935 949.806 539.751 950.622 540.794 950.622C541.762 950.622 542.578 949.806 542.578 948.838ZM301.115 909.489C301.115 908.522 300.375 907.706 299.483 907.706C298.535 907.706 297.263 908.522 296.675 909.489C296.087 910.457 296.827 911.273 298.383 911.273C299.938 911.273 301.115 910.457 301.115 909.489ZM435.269 926.166C320.827 914.157 213.898 858.283 139.773 771.787C126.435 756.229 122.356 750.291 122.887 747.255C123.551 743.632 122.28 742.36 118.353 742.967C114.653 743.556 91.6015 705.535 76.7081 674.325C57.5838 634.388 44.2462 591.245 37.1315 546.128C32.616 517.669 32.616 444.948 37.1315 416.489C51.0004 328.817 85.1509 255.165 143.776 186.314C153.793 174.532 156.089 172.825 159.864 173.641C164.019 174.589 164.095 174.457 161.193 172.161C158.233 169.846 159.049 168.669 171.95 156.735C241.617 92.2667 317.867 54.5313 409.618 39.3533C434.89 35.1224 518.483 34.4585 520.93 38.4617C522.201 40.4538 522.562 40.4532 523.226 38.5369C523.89 36.6017 528.121 36.8298 546.05 39.41C616.533 49.8639 686.712 79.8022 747.272 125.393C772.088 143.986 811.968 182.007 809.976 185.119C809.293 186.314 809.597 186.978 810.849 186.75C813.372 186.162 831.016 206.235 841.394 221.508C850.881 235.376 851.469 237.217 846.289 237.142C843.102 237.066 839.459 233.517 831.32 222.399C739.645 97.0098 587.334 28.9746 434.377 44.9684C331.66 55.8017 244.937 96.9346 172.311 169.258C86.2702 255.014 41.723 361.43 41.6471 481.28C41.6471 539.753 50.9242 589.556 71.6042 641.939C75.892 652.848 78.9278 663.207 78.4155 664.991C77.7515 667.078 78.188 667.818 79.7438 667.286C81.2236 666.85 84.411 671.289 88.3383 679.372C101.316 705.819 121.767 737.693 139.64 759.341C154.154 776.833 195.798 816.486 213.822 829.957C313.428 904.367 433.182 933.793 552.349 913.265C607.786 903.703 654.193 886.286 704.071 856.347C714.658 849.973 723.86 845.23 724.448 845.818C725.036 846.425 724.6 846.937 723.48 846.937C722.285 846.937 721.336 847.753 721.336 848.72C721.336 849.688 722.589 850.485 724.145 850.485C725.7 850.485 726.516 851.244 725.928 852.117C724.22 854.868 687.167 876.363 669.447 884.882C630.553 903.551 569.101 922.315 561.323 917.932C559.179 916.756 558.514 916.832 559.33 918.084C559.994 919.127 558.799 920.531 556.655 921.195C554.284 921.935 552.291 921.499 551.324 919.943C550.129 918.008 549.389 918.084 547.548 920.531C544.057 925.047 518.71 927.418 477.275 927.058C457.638 926.906 438.665 926.451 435.269 926.166ZM458.53 902.526C451.339 900.515 452.819 895.924 460.465 896.588C468.395 897.328 472.246 893.628 469.287 888.145C468.016 885.698 465.568 884.445 462.02 884.445C456.234 884.445 455.93 883.402 457.865 871.468C458.985 864.79 458.985 864.79 468.604 864.79C476.99 864.79 478.166 865.17 478.166 868.357C478.166 871.317 476.99 871.905 471.051 871.905C465.056 871.905 463.861 872.512 463.861 875.472C463.861 878.071 465.056 879.096 468.092 879.096C477.274 879.096 481.505 891.845 474.618 898.732C472.607 900.743 470.312 902.299 469.42 902.299C468.471 902.299 466.687 902.659 465.359 903.039C464.088 903.418 460.977 903.19 458.53 902.526ZM437.337 900.743C435.781 899.775 435.326 897.783 436.085 895.487C437.033 892.3 436.294 891.693 429.103 890.593C424.436 889.929 420.964 888.43 420.964 887.178C420.964 886.001 424.739 879.987 429.407 873.916C436.37 864.866 438.741 862.95 442.384 863.31C446.52 863.842 446.823 864.506 446.311 871.905C446.007 876.364 445.344 881.391 444.888 883.099C444.224 885.186 444.964 886.21 446.899 886.21C448.759 886.21 449.556 887.406 449.119 889.322C448.759 891.105 447.564 892.3 446.52 892.148C445.496 891.921 444.148 894.14 443.56 897.043C442.441 902.602 441.34 903.266 437.337 900.743ZM437.698 881.619C438.305 880.063 438.817 877.104 438.817 875.017C438.817 871.772 438.153 872.056 434.377 877.331C428.97 884.502 429.027 884.445 433.258 884.445C435.117 884.445 437.11 883.175 437.698 881.619ZM490.764 899.187C481.505 891.693 485.281 871.317 496.93 865.834C504.708 862.058 506.777 862.286 506.777 866.574C506.777 868.509 505.676 870.14 504.253 870.14C502.925 870.14 499.889 871.696 497.594 873.612C493.363 877.179 493.363 877.179 499.965 877.255C511.216 877.331 515.751 888.297 508.408 897.632C504.045 903.19 496.551 903.855 490.764 899.187ZM502.849 889.113C502.413 884.958 501.445 883.554 498.694 883.554C494.558 883.554 492.851 890.441 496.038 894.292C499.434 898.372 503.437 895.412 502.849 889.113ZM522.865 898.144C522.865 896.892 524.857 889.929 527.305 882.662C529.752 875.472 531.82 869.173 531.82 868.718C531.82 868.281 528.196 868.509 523.757 869.173C516.49 870.273 515.675 869.989 515.675 866.801C515.675 863.917 517.306 863.026 524.193 862.058C528.861 861.47 534.059 860.578 535.69 860.047C541.249 858.567 541.098 863.158 535.235 881.922C530.644 896.664 528.709 900.515 526.128 900.515C524.345 900.515 522.865 899.491 522.865 898.144ZM393.757 894.217C390.646 892.509 389.242 890.593 389.906 888.885C391.082 885.774 390.874 885.774 396.641 887.994C405.995 891.56 411.174 882.89 402.124 878.735C395.826 875.908 396.433 871.905 403.168 871.905C411.174 871.905 409.77 865.91 401.612 865.094C393.606 864.354 394.346 858.795 402.504 857.979C413.849 856.86 421.248 866.422 414.741 873.612C412.293 876.363 412.066 877.767 413.773 880.879C419.693 891.997 406.203 900.971 393.757 894.217ZM368.183 888.221C354.997 884.654 353.517 881.03 363.515 876.515C378.352 869.837 382.715 859.098 371.237 857.979C366.778 857.543 365.451 856.651 365.887 854.431C367.234 847.24 384.423 851.168 386.339 859.098C387.838 864.942 384.119 871.62 376.417 876.8C371.749 879.911 371.085 881.031 373.381 881.771C374.937 882.207 377.46 883.023 378.94 883.554C381.672 884.37 382.64 889.037 380.268 890.365C379.528 890.801 374.121 889.853 368.183 888.221ZM569.917 872.797C564.358 853.824 564.358 853.824 569.101 851.984C571.701 850.864 577.563 849.688 582.078 849.157C589.345 848.417 591.052 848.929 596.384 853.672C601.715 858.491 602.455 860.199 602.455 868.054C602.455 880.291 595.644 887.405 580.883 890.593C575.476 891.693 575.476 891.693 569.917 872.797ZM590.445 879.02C596.156 873.764 594.98 861.679 588.301 857.239C585.626 855.456 576.956 855.531 575.779 857.315C574.964 858.719 579.403 878.356 581.263 881.315C582.742 883.687 586.442 882.738 590.445 879.02ZM547.909 882.131C547.909 880.651 549.161 879.02 550.736 878.431C555.099 876.724 562.214 877.103 562.214 879.02C562.214 881.183 560.734 881.998 553.695 883.478C549.237 884.446 547.909 884.142 547.909 882.131ZM738.601 878.204C739.19 876.724 739.929 875.547 740.309 875.547C740.669 875.547 741.049 876.724 741.049 878.204C741.049 879.703 740.233 880.879 739.266 880.879C738.374 880.879 738.013 879.703 738.601 878.204ZM610.025 860.863C606.382 851.756 603.347 843.598 603.347 842.782C603.347 840.411 615.356 836.198 622.016 836.198C629.054 836.198 632.697 840.638 630.99 847.316C630.25 850.428 630.99 851.832 634.101 853.16C637.364 854.564 638.256 856.347 638.256 861.906C638.256 870.065 633.058 875.017 622.983 876.572C616.76 877.54 616.76 877.54 610.025 860.863ZM630.99 864.942C633.058 861.546 629.661 857.6 624.615 857.6C618.98 857.6 618.544 858.643 621.2 865.606C622.68 869.533 623.495 869.989 626.474 868.433C628.39 867.389 630.401 865.834 630.99 864.942ZM623.059 849.536C624.994 847.24 624.919 846.273 622.68 844.053C619.511 840.866 614.009 842.573 614.009 846.785C614.009 852.724 619.132 854.279 623.059 849.536ZM322.838 873.916C321.055 872.721 320.694 870.425 321.567 865.758C322.762 859.535 320.751 854.052 317.279 854.052C316.615 854.052 314.756 857.239 313.2 861.166C310.316 868.509 309.121 869.4 305.118 866.877C302.671 865.321 303.638 861.83 312.612 840.638C317.564 828.856 319.271 828.192 330.617 833.599C338.623 837.375 341.583 844.129 337.807 849.897C336.176 852.268 333.728 854.64 332.324 855.228C330.541 855.911 329.801 859.098 329.801 865.834C329.801 875.623 328.321 877.331 322.838 873.916ZM330.465 846.349C332.021 843.75 331.736 842.573 328.985 840.562C324.09 836.939 322.762 837.299 320.694 842.706C317.791 850.352 326.102 853.463 330.465 846.349ZM731.183 873.688C730.595 872.721 731.335 871.392 732.967 870.804C736.382 869.457 738.298 870.88 736.591 873.612C735.111 875.984 732.587 876.06 731.183 873.688ZM344.543 867.902C338.396 865.91 337.067 863.538 341.222 861.906C344.467 860.654 355.224 866.213 353.896 868.433C352.625 870.425 352.265 870.349 344.543 867.902ZM751.787 866.422C751.787 865.397 750.895 865.094 749.871 865.682C748.676 866.498 748.448 865.17 749.264 861.982C750.535 856.803 749.055 856.936 742.377 862.646C739.569 865.018 739.266 865.018 739.266 862.495C739.266 856.727 760.61 842.782 767.136 844.338C768.976 844.793 771.728 844.414 773.207 843.446C775.503 841.89 775.351 841.302 772.316 838.931C768.768 836.256 768.768 836.199 772.771 835.079C774.991 834.491 776.831 833.22 776.831 832.404C776.831 831.513 778.102 830.773 779.582 830.773C781.138 830.773 781.954 830.109 781.441 829.217C779.658 826.409 787.512 821.229 793.375 821.438C803.677 821.742 808.117 822.994 808.629 825.82C809.521 830.488 803.886 834.415 796.335 834.415C789.656 834.415 787.209 836.483 791.137 838.855C793.963 840.638 793.223 843.826 790.263 842.706C788.404 841.966 787.513 842.706 787.513 844.945C787.513 846.785 783.073 851.908 777.514 856.499C768.312 864.05 762.602 867.086 765.049 863.159C766.245 861.242 757.346 855.095 755.715 856.727C755.051 857.315 755.715 858.643 757.195 859.686C759.054 860.939 759.206 861.679 757.65 862.343C756.53 862.874 756.018 864.354 756.531 865.758C757.119 867.389 756.379 868.357 754.614 868.357C753.058 868.357 751.787 867.541 751.787 866.498V866.422ZM286.449 857.467C283.489 855.759 283.489 855.228 286.81 848.644C291.344 839.822 291.42 840.334 284.893 837.014C278.67 833.751 278.803 833.751 273.548 842.421C270.076 848.113 269.393 848.493 266.357 846.273C263.17 843.977 263.473 843.01 272.58 826.636C277.779 817.15 282.673 809.371 283.337 809.371C287.492 809.371 288.744 814.703 285.861 820.262C282.958 825.82 283.034 826.181 286.146 828.553C294 834.415 294.967 834.415 298.383 827.964C301.779 821.741 303.79 820.774 307.945 823.373C309.633 824.473 307.945 828.704 300.963 840.79C289.637 860.199 290.224 859.611 286.373 857.391L286.449 857.467ZM645.295 845.078C633.797 833.448 631.577 830.336 633.74 829.008C638.483 825.972 640.4 826.997 649.886 838.039C655.009 843.977 659.448 848.569 659.752 848.265C660.036 848.057 659.012 841.454 657.456 833.675C654.705 820.11 654.705 819.446 658.044 817.074C662.047 814.114 662.56 815.367 666.487 840.259C668.859 855.019 668.859 856.044 665.823 857.676C660.7 860.427 660.34 860.199 645.295 845.078ZM444.528 837.887C299.047 823.373 177.129 720.864 138.52 580.505C90.1216 404.858 185.288 219.876 356.628 156.66C429.843 129.605 517.382 128.504 589.933 153.624C615.053 162.37 617.652 163.49 617.652 165.786C617.652 166.887 618.752 167.417 620.099 166.886C623.287 165.634 649.222 178.743 668.935 191.569C694.509 208.246 712.135 222.988 713.406 228.699C714.222 232.398 715.322 233.442 717.542 232.778C722.361 231.222 749.131 259.965 768.237 287.248C778.994 302.445 798.327 337.43 797.151 339.346C796.619 340.162 796.999 340.826 797.891 340.826C799.883 340.826 803.601 348.908 803.601 353.423C803.601 355.359 804.341 356.991 805.233 356.991C806.181 356.991 809.293 364.39 812.347 373.516C824.945 412.049 828.721 433.696 829.897 476.157C830.865 508.619 830.713 510.402 827.526 511.218C824.642 511.958 824.642 512.11 827.317 512.318C829.897 512.47 830.201 513.799 829.385 520.989C826.122 549.676 821.303 572.272 813.296 596.803C809.521 608.224 808.117 610.596 804.417 611.336C798.991 612.38 798.991 613.271 805.518 593.843C833.085 511.73 826.786 417.172 788.328 338.227C751.275 262.128 685.023 200.316 606.458 168.67C567.47 152.884 534.932 146.13 491.58 144.651C466.764 143.835 460.749 143.095 458.833 140.799C456.613 138.143 456.537 138.143 457.353 140.799C458.093 143.171 456.082 143.835 445.932 144.802C408.803 148.293 364.255 160.815 330.104 177.416C317.051 183.791 305.573 188.458 304.681 187.945C303.714 187.338 302.974 187.945 302.898 189.197C302.898 190.525 296.751 195.497 289.181 200.392C251.464 224.619 211.527 265.467 186.692 305.101C137.705 383.286 122.432 479.648 144.592 570.792C168.914 670.626 243.761 759.701 338.32 801.289C451.187 850.864 582.363 837.299 679.825 766C685.023 762.225 690.582 759.341 692.271 759.626C694.054 760.005 695.401 759.037 695.401 757.482C695.401 756.002 704.584 745.928 715.777 735.094C747.784 704.264 768.028 677 786.184 640.383C790.624 631.277 794.779 625.129 796.411 625.129C798.175 625.129 798.479 624.674 797.151 623.782C795.747 622.891 795.671 621.126 796.847 618.014C798.175 614.751 798.934 614.22 799.598 616.231C800.11 617.711 801.306 619.419 802.254 620.007C806.789 622.966 780.018 672.845 759.357 700.128C746.228 717.468 705.02 759.113 703.996 756.153C703.54 754.882 702.364 753.934 701.321 753.934C700.353 753.934 699.917 755.034 700.429 756.381C703.313 763.856 650.854 797.438 610.974 813.735C561.399 833.96 497.802 843.162 444.528 837.887ZM446.008 140.591C446.008 139.623 445.192 138.807 444.224 138.807C443.2 138.807 442.441 139.623 442.441 140.591C442.441 141.539 443.2 142.354 444.224 142.354C445.192 142.354 446.008 141.539 446.008 140.591ZM751.427 828.04C749.34 825.972 760.686 816.543 765.277 816.543C771.215 816.543 770.684 818.326 762.981 824.113C758.618 827.452 756.094 828.401 755.278 827.073C754.311 825.593 753.799 825.593 753.267 827.149C752.907 828.344 752.091 828.78 751.427 828.116V828.04ZM800.547 816.619C794.703 815.595 794.703 815.595 809.236 799.942C820.866 787.269 824.414 784.46 827.317 785.352C830.428 786.396 830.789 785.94 829.897 782.392C828.493 777.042 843.387 758.146 848.357 758.962C850.141 759.189 852.133 758.601 852.721 757.633C853.404 756.59 852.664 755.698 851.108 755.698C847.238 755.698 847.541 754.522 853.404 747.028C869.55 726.291 899.64 668.633 910.91 636.835C914.097 627.937 919.732 608.661 923.507 593.92C927.814 577.243 931.134 567.32 932.481 567.604C933.582 567.832 936.029 567.604 937.964 567.016C942.84 565.46 940.108 562.425 934.929 563.677C932.557 564.285 930.622 564.133 930.622 563.241C930.698 562.425 931.875 553.679 933.354 543.813C946.028 457.925 930.85 361.146 892.089 281.613C885.126 267.156 884.747 265.827 888.522 265.827C892.525 265.827 891.861 262.052 887.631 260.932C880.895 259.168 884.974 252.794 894.081 250.783C899.204 249.682 899.564 250.042 905.863 262.564C910.246 271.235 911.877 276.282 910.758 277.61C909.582 279.014 910.094 279.906 912.238 280.513C914.837 281.177 925.5 302.806 926.24 308.668C926.24 309.181 927.739 312.823 929.427 316.75C935.878 331.416 941 352.248 939.217 356.84C937.225 362.095 938.477 365.946 942.177 365.946C948.191 365.946 941.968 377.444 934.986 379.227C930.395 380.327 930.034 381.806 932.405 389.149C933.354 392.26 933.885 392.64 933.961 390.477C934.113 388.712 936.181 386.55 938.628 385.602C941.285 384.634 942.632 382.927 942.101 381.447C941.513 380.119 942.328 378.032 943.732 376.855C945.971 374.996 946.711 376.172 948.475 384.71C954.186 412.429 956.045 430.585 956.861 468.738C957.886 514.405 955.381 545.009 947.526 582.29C929.882 665.807 888.826 745.472 831.984 806.545C822.934 816.258 821.455 817.15 814.188 817.359C809.9 817.511 803.677 817.15 800.547 816.619ZM948.475 569.767C948.475 568.8 947.071 567.984 945.364 567.984C942.632 568.06 942.632 568.269 944.927 569.767C948.267 571.911 948.475 571.911 948.475 569.767ZM931.059 343.274C929.882 342.837 927.435 342.761 925.727 343.197C923.944 343.653 924.988 344.089 927.871 344.089C930.85 344.165 932.254 343.786 931.059 343.274ZM891.273 711.834C891.273 707.755 887.27 706.711 884.747 710.126C883.494 711.91 882.811 713.978 883.267 714.718C884.595 716.881 891.273 714.433 891.273 711.834ZM725.776 809.22C725.036 808.024 722.152 807.74 718.661 808.404C713.33 809.371 712.799 809.068 713.691 805.805C714.298 803.585 713.406 800.682 711.471 798.538C708.359 795.142 708.435 795.066 712.951 795.066C715.986 795.066 717.922 793.871 718.661 791.499C719.325 789.507 720.521 787.875 721.261 787.875C722.076 787.875 723.177 789.507 723.708 791.499C724.296 793.947 726.08 795.066 729.552 795.066C734.371 795.066 734.447 795.066 731.032 798.842C729.191 800.91 727.92 804.476 728.224 806.848C728.812 811.439 727.711 812.407 725.776 809.22ZM227.16 803.433C220.406 798.538 227.596 786.396 234.559 790.759C238.79 793.435 239.454 799.354 235.906 802.921C232.339 806.393 231.239 806.469 227.16 803.433ZM790.188 795.427C790.624 791.348 794.191 785.788 801.305 777.725C824.717 751.258 846.802 720.656 861.847 693.601C866.59 685.082 871.561 681.231 871.561 686.107C871.561 687.151 872.453 687.454 873.553 686.79C876.304 685.082 861.923 711.094 851.241 727.106C836.348 749.551 822.422 767.044 805.518 784.612C790.112 800.625 789.448 801.062 790.188 795.427ZM194.186 781.937C194.47 779.414 193.294 775.942 191.359 773.798C188.02 770.079 188.02 770.004 192.402 770.004C195.59 770.004 197.582 768.6 199.138 765.109C201.357 760.233 201.357 760.233 203.957 765.109C205.74 768.6 207.96 770.079 211.375 770.079C216.27 770.155 216.27 770.155 212.039 773.646C208.851 776.302 208.111 778.313 208.927 781.652C209.971 785.864 209.819 786.016 205.361 783.948C201.813 782.316 199.953 782.393 197.221 784.081C193.958 786.092 193.654 785.94 194.186 781.937ZM743.781 782.013C744.445 779.338 743.857 776.967 742.074 775.487C738.089 772.166 738.601 770.079 743.496 770.079C746.001 770.079 748.372 768.524 749.643 766C751.56 761.997 751.56 761.997 752.755 765.791C753.495 768.239 755.866 770.004 759.433 770.744C764.973 771.863 764.974 771.863 761.046 774.595C758.086 776.682 757.422 778.541 758.238 781.71C759.433 786.453 757.422 787.42 753.874 783.948C752.167 782.165 750.972 782.165 748.164 783.948C743.269 786.984 742.605 786.68 743.781 781.937V782.013ZM168.459 754.749C168.971 751.922 168.099 748.887 166.087 746.743C163.052 743.328 163.052 743.176 167.416 743.176C170.527 743.176 172.538 741.773 174.094 738.282C176.314 733.406 176.314 733.406 178.913 738.282C180.772 741.773 182.916 743.176 186.312 743.252C191.207 743.252 191.207 743.252 187.071 746.44C183.732 749.039 183.144 750.67 184.168 754.674C185.364 759.417 185.212 759.569 181.36 757.482C178.401 755.926 176.238 755.85 172.975 757.254C167.34 759.853 167.416 759.929 168.459 754.749ZM769.659 753.934C769.659 750.746 768.54 747.995 766.984 747.407C762.678 745.776 763.873 743.176 768.919 743.176C772.088 743.176 773.872 742.076 774.46 739.628C775.067 737.617 776.091 736.062 776.907 736.062C777.723 736.062 778.842 737.617 779.506 739.628C780.246 741.924 782.181 743.176 784.989 743.176C789.96 743.176 790.7 745.851 786.393 748.223C784.401 749.323 783.737 751.41 784.325 754.598C785.369 759.853 785.141 760.005 780.246 757.406C777.875 756.154 775.731 756.154 773.207 757.482C770.02 759.189 769.659 758.885 769.659 753.934ZM69.2327 731.983C63.2184 723.616 40.6984 679.448 34.6082 664.251C22.8263 634.54 8.74876 587.033 10.8168 583.693C11.348 582.802 10.9681 581.094 9.94363 579.842C5.04873 573.979 0.154075 526.34 0.00229511 483.936C-0.0735949 439.54 1.70979 418.727 8.74859 384.634C16.2427 348.908 20.3787 335.799 24.6096 334.376C27.9487 333.351 28.0246 333.047 25.5012 332.079C22.8261 331.112 23.4901 328.304 31.0601 308.515C53.0682 251.01 85.9096 198.987 131.482 149.469C157.189 121.541 207.656 80.6186 213.974 82.6297C216.118 83.2938 217.143 82.6293 217.143 80.77C217.143 76.5581 235.603 65.2884 269.848 48.4597C343.955 12.0704 426.219 -4.45461 506.037 1.02845C540.718 3.40001 545.613 4.21541 547.017 7.91505C547.909 10.3625 548.364 10.4388 549.692 8.29487C552.576 3.70352 592.893 12.2981 634.48 26.3757C656.925 34.0026 701.7 54.246 701.7 56.8262C701.7 57.6421 702.952 58.3826 704.508 58.3826C710.219 58.3826 748.24 82.9137 776.471 104.789C795.14 119.246 832.136 155.104 846.422 172.596C853.253 180.963 855.548 185.195 855.036 188.23C854.353 191.494 854.96 192.233 857.768 191.949C860.367 191.721 863.706 194.833 869.626 203.2C878.011 214.982 896.604 243.896 896.604 245.148C896.604 245.527 893.569 246.779 889.926 247.975C886.227 249.151 882.223 250.935 881.047 251.902C878.22 254.122 874.596 251.827 875.849 248.639C876.38 247.235 876.152 246.115 875.185 246.115C873.856 246.115 849.61 211.054 849.249 208.55C849.173 208.094 846.954 205.287 844.203 202.46C840.503 198.532 839.839 196.825 841.546 195.8C843.235 194.681 843.026 194.32 840.654 194.32C838.947 194.244 834.944 191.265 831.756 187.566C785.881 133.532 725.264 87.8841 662.711 60.2412C603.043 33.8694 544.645 21.8601 476.401 21.936C423.772 22.0119 383.607 28.3113 334.923 44.0964C322.99 48.0238 312.612 50.7558 311.872 50.3195C311.056 49.7882 310.165 50.2435 309.785 51.2111C309.501 52.1598 299.787 57.3573 288.29 62.6127C182.176 111.448 96.6479 201.131 52.6317 309.844C47.1487 323.257 46.2574 324.529 40.0913 326.369C36.3917 327.489 31.952 328.381 30.0926 328.381C26.9812 328.381 26.9813 328.532 29.8651 331.416C32.6161 334.243 33.0522 334.243 35.1392 331.568C37.8712 328.077 45.4412 325.572 45.4412 328.153C45.4412 329.196 43.9615 334.243 42.0263 339.422C33.4318 363.441 25.7291 400.855 22.0105 437.396C20.9101 448.742 19.0508 458.589 17.9314 459.329C16.5275 460.22 16.6032 460.599 18.159 460.675C19.8665 460.675 20.3026 466.899 20.1698 486.156C19.5627 561.23 42.5388 645.582 81.9636 712.801L88.5659 724.128L83.007 728.51C79.0038 731.622 77.9791 733.405 79.3072 735.037C80.3507 736.289 80.6353 737.769 79.9713 738.433C77.3721 741.033 74.4122 739.249 69.2327 731.983ZM311.872 36.7536C311.758 34.7425 307.11 34.5523 305.858 36.5255C305.422 37.2654 306.522 38.0818 308.457 38.2335C310.316 38.3853 311.872 37.7212 311.872 36.7536ZM572.953 19.0329C572.953 18.0084 572.137 17.2693 571.188 17.2693C570.22 17.2693 569.405 18.0653 569.405 19.0329C569.405 20.0005 570.22 20.8162 571.188 20.8162C572.137 20.8162 572.953 20.0005 572.953 19.0329ZM41.6471 633.648C41.7988 631.94 41.0589 630.536 40.0913 630.536C39.1427 630.536 38.4027 634.388 38.5355 639.055C38.7632 646.606 38.915 646.91 40.0913 642.167C40.8502 639.207 41.5901 635.355 41.6471 633.648ZM861.771 215.721C861.107 214.697 859.836 213.957 858.963 213.957C857.995 213.957 857.255 214.772 857.255 215.721C857.255 216.689 858.508 217.504 860.064 217.504C861.619 217.504 862.359 216.689 861.771 215.721ZM314.604 44.0964C315.192 43.053 314.016 42.2367 312.005 42.2367C310.013 42.2367 308.305 43.053 308.305 44.0964C308.305 45.0451 309.5 45.8601 310.904 45.8601C312.308 45.8601 313.94 45.0451 314.604 44.0964ZM349.438 25.9392C349.438 24.9716 348.622 24.6678 347.654 25.2559C346.706 25.8631 345.89 27.1914 345.89 28.159C345.89 29.1835 346.706 29.4877 347.654 28.8237C348.622 28.2355 349.438 26.9637 349.438 25.9392ZM463.121 779.262C461.281 775.563 457.486 771.711 454.678 770.535C447.867 767.708 448.227 765.26 455.494 765.26C459.725 765.26 462.912 763.78 466.536 760.005C471.583 754.674 471.583 754.674 467.276 753.042C453.35 747.692 449.423 745.548 450.599 743.631C451.415 742.36 454.678 742 459.934 742.74C465.284 743.48 468.907 743.025 470.691 741.621C472.835 739.837 473.575 739.837 474.163 741.621C475.51 745.548 482.093 743.992 487.443 738.433C496.93 728.511 501.806 733.538 493.363 744.58C489.208 750.064 489 751.335 489.948 765.925C491.219 784.157 489.36 785.637 482.473 772.014C476.458 760.005 477.198 760.441 472.095 765.564C469.059 768.599 467.504 772.375 467.124 777.858L466.536 785.865L463.121 779.262ZM144.307 727.922C145.047 724.052 144.307 721.624 141.556 718.645C137.856 714.566 137.856 714.566 142.675 714.566C146.527 714.566 148.159 713.313 150.075 708.798L152.522 702.936L154.609 708.798C156.297 713.617 157.569 714.566 162.16 714.566C167.719 714.566 167.719 714.566 163.943 718.645C161.268 721.548 160.453 724.052 161.193 727.771C162.16 732.874 162.16 732.874 157.645 729.839C153.262 727.031 152.75 727.031 148.158 730.066C143.263 733.254 143.263 733.254 144.307 727.98V727.922ZM791.364 727.315C791.744 724.052 790.624 720.656 788.556 718.36C785.217 714.641 785.217 714.566 789.96 714.566C793.375 714.566 795.367 713.238 796.771 710.126C797.891 707.679 799.446 705.686 800.11 705.686C800.85 705.686 801.97 707.679 802.558 710.126C803.45 713.693 804.778 714.566 809.293 714.566C815.004 714.566 815.004 714.566 811.001 718.797C808.041 721.984 807.301 724.28 808.193 727.846C809.369 732.438 809.236 732.514 804.702 730.427C801.154 728.795 798.991 728.795 795.443 730.427C791.004 732.438 790.852 732.286 791.364 727.24V727.315ZM459.649 690.338C450.902 685.898 437.641 678.12 430.223 672.997C413.185 661.291 381.16 630.821 382.412 627.558C382.867 626.23 382.203 625.186 380.932 625.186C378.124 625.186 364.635 605.341 356.628 589.556C349.153 574.644 340.995 549.372 337.807 530.779C334.316 511.067 334.032 445.403 337.352 443.847C339.136 443.032 339.136 442.576 337.352 441.779C334.848 440.584 334.393 428.878 336.612 425.235C337.884 423.395 338.472 423.395 339.951 425.235C342.627 428.65 342.702 430.585 343.29 476.745C343.879 521.729 344.543 529.527 348.394 531.007C350.102 531.671 351.221 529.812 352.037 524.481C353.517 514.767 359.588 509.871 368.334 511.503C373.077 512.395 374.482 512.11 374.482 510.023C374.482 506.323 384.727 499.493 388.787 500.537C390.646 501.068 393.169 500.309 394.27 498.905C395.617 497.35 399.904 496.457 405.994 496.457C415.329 496.457 415.557 496.325 415.557 491.43C415.557 484.088 418.668 482.153 430.223 482.153C436.009 482.153 440.6 481.336 440.6 480.388C440.6 479.344 442.232 478.605 444.224 478.605C446.16 478.605 447.791 479.344 447.791 480.388C447.791 483.044 467.731 480.388 471.279 477.276C473.954 475.038 474.846 475.037 478.773 477.636C481.884 479.648 483.573 479.932 484.389 478.528C485.129 477.409 487.368 475.778 489.512 474.905C491.655 473.937 494.691 472.23 496.399 471.035C498.77 469.346 500.326 469.421 503.589 471.11C506.853 472.893 510.476 472.97 519.374 471.566C525.749 470.523 538.65 469.63 548.061 469.63C562.442 469.63 565.705 470.161 568.21 472.893C569.841 474.677 570.733 476.593 570.221 477.125C569.708 477.637 572.516 480.161 576.444 482.836C580.447 485.416 583.634 488.318 583.634 489.343C583.634 490.31 584.81 491.051 586.309 491.051C587.713 491.051 589.781 492.683 590.825 494.694C592.38 497.653 594.524 498.241 603.422 498.241H614.085V392.716L581.414 392.488C563.466 392.412 547.397 392.488 545.689 392.64C543.393 392.849 542.502 391.673 542.502 388.333C542.502 384.046 543.09 383.742 551.533 383.742C557.851 383.742 560.81 384.558 561.55 386.417C562.442 388.713 562.878 388.713 565.25 386.342C567.394 384.179 572.744 383.742 594.088 384.179L620.308 384.634L620.839 452.594C621.2 508.544 620.839 523.077 618.468 534.859C612.909 563.393 600.596 594.735 595.037 594.735C592.893 594.735 592.665 595.324 594.012 597.031C596.232 599.706 582.439 621.562 571.549 632.756C565.914 638.543 564.661 639.131 562.518 636.987C560.279 634.748 561.323 632.68 569.917 621.638C580.807 607.788 591.413 590.884 593.424 584.433C594.676 580.354 594.524 580.354 583.331 581.473C572.744 582.574 546.125 579.842 541.249 577.09C539.542 576.142 539.618 574.795 541.534 571.019C544.058 566.124 544.057 566.124 496.93 566.124C467.427 566.124 449.347 565.46 448.607 564.341C447.943 563.165 462.172 562.577 490.1 562.577C513.531 562.577 535.691 562.046 539.39 561.458C546.05 560.357 546.05 560.358 546.05 550.72V541.157H411.762L412.369 551.383L412.882 561.686L427.472 562.577C447.336 563.754 448.379 566.124 429.027 566.124C415.842 566.124 413.546 566.58 414.437 568.876C415.026 570.28 415.993 572.727 416.581 574.131C417.321 575.838 416.297 577.015 413.47 577.698C411.174 578.211 399.62 580.733 387.838 583.314C376.037 585.913 366.038 588.285 365.678 588.665C364.407 589.841 379.376 612.152 390.57 625.869C403.832 642.015 419.996 656.244 439.709 669.07C456.006 679.675 474.903 689.522 479.058 689.522C483.137 689.522 501.958 679.732 518.331 669.07C526.205 663.947 533.452 659.508 534.42 659.204C535.463 658.844 537.171 657.288 538.347 655.732C540.282 653.133 540.794 653.133 543.545 655.884C546.353 658.616 545.613 659.508 531.687 669.658C515.75 681.364 484.104 698.496 478.773 698.42C476.914 698.344 468.319 694.721 459.573 690.262L459.649 690.338ZM472.835 690.49C471.658 689.01 469.875 688.27 468.983 688.858C466.764 690.262 468.907 693.165 472.247 693.165C474.542 693.165 474.618 692.633 472.835 690.49ZM392.353 578.647C393.833 577.907 398.425 576.807 402.655 576.067C406.81 575.384 410.738 574.055 411.326 573.087C412.426 571.171 401.764 572.652 394.346 575.384C391.898 576.351 389.318 576.351 388.123 575.384C384.347 572.424 366.418 571.399 362.927 573.979C358.336 577.318 361.068 581.17 367.082 579.69C380.42 576.427 385.239 575.763 385.239 577.015C385.239 577.755 382.203 579.177 378.485 580.202C372.053 582.061 372.185 582.061 380.723 581.094C385.675 580.506 390.874 579.462 392.353 578.722V578.647ZM578.739 577.47C576.595 577.015 572.953 577.015 570.733 577.47C568.513 577.831 570.372 578.21 574.736 578.21C579.195 578.21 580.959 577.907 578.739 577.47ZM562.062 576.275C561.626 575.915 557.699 575.175 553.316 574.587C547.909 573.828 546.429 574.055 548.801 575.099C552.216 576.579 563.618 577.622 562.062 576.275ZM593.936 575.687C592.229 575.251 589.421 575.251 587.713 575.687C586.006 576.142 587.41 576.502 590.825 576.502C594.297 576.502 595.719 576.142 594.012 575.687H593.936ZM361.96 569.692C361.96 568.724 361.143 567.984 360.195 567.984C359.227 567.984 358.412 569.236 358.412 570.716C358.412 572.271 359.227 573.012 360.195 572.424C361.143 571.836 361.96 570.584 361.96 569.692ZM597.56 570.507C600.387 569.691 601.563 567.984 601.563 564.644C601.563 559.901 601.563 559.901 575.552 559.901C549.92 559.901 549.541 559.978 548.497 564.057C547.985 566.277 547.985 568.648 548.649 569.312C552.216 572.879 586.158 573.695 597.56 570.507ZM401.764 570.356C405.463 569.767 408.442 568.344 408.442 567.244C408.442 565.897 402.428 565.461 388.787 565.841C377.972 566.125 369.15 567.092 369.15 567.984C369.15 570.583 390.874 572.215 401.764 570.356ZM364.255 565.024C363.003 564.493 360.631 564.418 358.848 564.949C357.141 565.385 358.108 565.765 361.068 565.841C364.047 565.898 365.451 565.536 364.255 565.024ZM399.089 563.241C408.442 562.046 408.442 562.045 408.442 548.043C408.442 535.009 408.215 533.967 404.724 533.967C402.731 533.967 399.544 534.782 397.685 535.826C395.465 537.002 389.754 537.078 381.672 536.11L369.074 534.63V548.348C369.074 555.823 369.681 562.578 370.345 563.166C371.825 564.721 386.719 564.721 399.089 563.241ZM374.482 558.27C374.482 556.562 375.98 555.463 378.2 555.463C382.564 555.463 381.975 559.598 377.46 560.49C375.676 560.793 374.482 559.901 374.482 558.27ZM393.169 558.858C392.505 557.758 392.866 555.974 394.061 554.855C395.977 552.863 399.392 555.671 399.468 559.466C399.544 561.534 394.497 561.021 393.169 558.858ZM392.353 545.597C392.353 544.117 393.53 542.94 395.01 542.94C396.509 542.94 397.761 544.117 397.761 545.597C397.761 547.076 396.509 548.272 395.01 548.272C393.606 548.272 392.353 547.076 392.353 545.597ZM365.526 548.272C365.526 535.75 365.526 535.75 356.552 535.75C347.521 535.75 347.521 535.75 348.698 542.485C350.766 553.907 353.005 558.422 354.845 555.386C356.192 553.299 357.141 553.166 359.664 554.798C361.447 555.974 362.623 557.758 362.415 558.858C362.111 559.901 362.775 560.794 363.743 560.794C364.786 560.794 365.526 555.462 365.526 548.272ZM572.953 546.488C572.953 535.75 572.952 535.75 564.149 535.75C559.33 535.75 554.132 535.295 552.576 534.707C550.129 533.739 549.692 535.294 549.692 544.42C549.692 556.411 549.768 556.487 565.326 557.018C572.953 557.227 572.953 557.227 572.953 546.488ZM557.319 551.383C557.775 550.188 559.103 549.163 560.431 549.163C561.778 549.163 563.182 550.188 563.542 551.383C563.998 552.711 562.727 553.679 560.431 553.679C558.135 553.679 556.883 552.711 557.319 551.383ZM597.56 556.126C601.279 555.083 601.563 554.039 601.563 541.005C601.563 529.223 601.127 527.08 598.907 527.952C597.408 528.559 591.925 529.527 586.821 530.191C577.411 531.291 577.411 531.291 576.88 544.268C576.368 557.227 576.368 557.226 584.962 557.226C589.63 557.169 595.34 556.714 597.56 556.126ZM591.109 551.08C591.413 549.448 592.532 548.12 593.481 548.196C596.156 548.348 595.72 552.351 592.893 553.243C591.413 553.755 590.749 552.939 591.109 551.08ZM610.385 535.142C610.461 533.302 609.569 532.183 608.317 532.639C606.894 533.075 605.946 537.154 605.718 543.073C605.415 552.787 605.415 552.787 607.786 545.597C609.133 541.669 610.309 537.002 610.385 535.142ZM424.227 528.179C424.663 520.704 424.284 519.661 421.173 519.661C419.181 519.661 417.113 521.293 416.506 523.209C415.842 525.22 414.589 526.852 413.697 526.852C412.806 526.852 412.066 529.3 412.066 532.335C412.066 537.439 412.426 537.742 417.852 537.23C423.411 536.699 423.696 536.337 424.227 528.179ZM467.428 534.402C467.428 532.695 464.828 529.584 461.641 527.592C458.454 525.524 453.786 522.545 451.263 520.913C446.899 518.029 446.444 518.181 437.413 524.253C431.475 528.256 428.154 531.747 428.154 534.042C428.154 537.305 429.407 537.514 447.791 537.514C465.359 537.514 467.428 537.229 467.428 534.402ZM475.946 523.664C478.546 521.729 478.47 521.444 474.979 521.444C471.431 521.444 471.051 522.337 471.355 529.964C471.583 537.078 471.715 537.438 472.322 532.182C472.683 528.767 474.315 524.916 475.946 523.664ZM508.56 534.27C508.56 525.809 494.103 521.293 482.549 526.112C477.881 528.029 476.401 529.735 476.401 533.074C476.401 537.514 476.534 537.514 492.471 537.514C506.928 537.514 508.56 537.23 508.56 534.27ZM514.404 529.071C515.295 522.032 515.087 521.444 511.216 521.444C507.232 521.444 507.156 521.653 509.603 526.396C511.007 529.071 512.184 532.848 512.184 534.707C512.184 540.266 513.379 537.229 514.404 529.071ZM546.126 533.151C546.126 529.811 544.418 527.819 539.239 525.144C532.352 521.653 532.352 521.654 524.933 525.372C519.298 528.104 517.534 530.039 517.534 533.302C517.534 537.438 517.971 537.59 531.82 537.59C545.841 537.59 546.126 537.438 546.126 533.151ZM389.242 532.771C387.971 532.334 385.979 532.334 384.784 532.771C383.531 533.302 384.575 533.662 387.022 533.662C389.469 533.662 390.494 533.302 389.242 532.771ZM402.655 531.007C400.948 530.552 397.76 530.475 395.541 530.931C393.321 531.367 394.725 531.747 398.652 531.747C402.58 531.747 404.363 531.443 402.655 530.931V531.007ZM370.933 527.516C370.933 525.732 369.89 525.068 368.183 525.656C366.418 526.396 365.526 525.58 365.526 523.076C365.526 520.173 364.559 519.586 360.631 520.041C356.78 520.477 355.585 521.654 355.148 525.524C354.636 530.267 354.845 530.399 362.7 530.399C369.074 530.399 370.933 529.736 370.933 527.516ZM573.635 527.744C574.451 525.524 572.516 525.068 562.138 525.068C549.028 525.068 545.025 527.952 556.428 529.147C570.372 530.551 572.592 530.4 573.635 527.744ZM384.347 526.852C384.935 525.809 383.152 525.068 379.983 525.068C376.929 525.068 374.482 525.885 374.482 526.852C374.482 527.82 376.417 528.636 378.864 528.636C381.236 528.636 383.683 527.82 384.347 526.852ZM589.041 526.852C589.041 525.885 587.258 525.068 585.038 525.068C581.775 525.144 581.49 525.448 583.71 526.852C587.182 529.072 589.041 529.072 589.041 526.852ZM611.941 524.632C612.529 521.957 611.049 521.521 601.715 521.521C594.828 521.521 590.825 522.26 590.825 523.513C590.825 524.841 593.272 525.22 598.015 524.556C603.574 523.816 605.13 524.177 605.13 526.264C605.13 529.964 611.201 528.484 611.941 524.632ZM399.544 522.545C399.544 520.173 400.512 517.802 401.764 517.29C402.94 516.853 400.644 516.322 396.508 516.246C392.429 516.17 387.61 515.582 385.827 514.918C382.715 513.723 382.716 513.799 385.675 516.778C387.383 518.542 388.787 521.52 388.787 523.436C388.787 526.035 390.058 526.852 394.137 526.852C398.652 526.852 399.544 526.187 399.544 522.545ZM412.957 525.068C413.546 524.024 411.478 523.284 407.683 523.284C404.136 523.284 401.327 524.1 401.327 525.068C401.327 526.035 403.699 526.852 406.583 526.852C409.467 526.852 412.293 526.035 412.957 525.068ZM466.536 525.068C465.948 524.1 464.676 523.284 463.652 523.284C462.684 523.284 462.381 524.1 462.988 525.068C463.576 526.035 464.904 526.852 465.872 526.852C466.915 526.852 467.2 526.035 466.536 525.068ZM429.919 515.886C429.919 511.579 429.179 509.207 428.154 509.871C427.111 510.479 426.371 514.179 426.371 518.106C426.371 522.413 427.035 524.84 428.154 524.176C429.103 523.512 429.919 519.813 429.919 515.886ZM379.831 520.553C379.831 519.149 378.636 517.878 377.156 517.878C374.349 517.878 373.609 520.041 375.677 522.109C377.745 524.101 379.831 523.361 379.831 520.553ZM408.575 519.225C408.366 517.062 405.919 517.517 405.179 519.813C404.799 520.989 405.387 521.596 406.583 521.216C407.759 520.837 408.651 519.889 408.575 519.225ZM493.363 519.661C494.027 518.694 493.287 517.878 491.807 517.878C490.327 517.878 488.62 518.694 488.032 519.661C487.443 520.705 488.108 521.444 489.587 521.444C491.067 521.444 492.775 520.629 493.363 519.661ZM583.407 518.618C581.851 517.138 577.924 515.298 574.584 514.615C565.914 512.926 543.906 514.766 543.014 517.29C542.047 520.325 546.505 520.989 567.546 521.293C584.526 521.444 586.006 521.217 583.407 518.618ZM438.817 508.771C438.817 502.169 438.514 501.808 433.334 501.808C428.363 501.808 428.155 502.092 430.659 504.615C432.215 506.171 433.486 510.25 433.486 513.798C433.486 519.224 433.846 519.813 436.142 517.878C437.698 516.626 438.817 512.699 438.817 508.771ZM487.14 515.221C489.36 512.546 484.844 511.731 469.287 512.035C458.302 512.243 457.941 512.394 460.313 515.221C461.869 517.062 465.948 517.878 473.726 517.878C481.505 517.878 485.584 517.062 487.14 515.221ZM521.082 513.438C521.082 509.207 520.569 508.98 511.747 508.98C500.117 509.056 496.19 510.991 499.51 515.07C501.142 516.986 504.917 517.878 511.52 517.878C520.57 517.878 521.082 517.669 521.082 513.438ZM612.32 515.221C612.32 513.134 610.025 512.546 602.682 512.546C596.308 512.546 592.304 513.438 590.825 515.221C588.889 517.593 590.161 517.878 600.463 517.878C609.797 517.878 612.32 517.365 612.32 515.221ZM418.061 513.438C418.593 511.958 418.365 510.763 417.473 510.763C416.657 510.763 415.481 511.958 414.95 513.438C414.362 514.918 414.589 516.094 415.481 516.094C416.297 516.094 417.473 514.918 418.061 513.438ZM588.681 512.85C589.041 511.579 587.486 510.763 584.735 510.763C579.935 510.763 578.436 513.362 582.363 514.918C585.418 516.17 587.789 515.43 588.681 512.85ZM528.272 512.546C528.272 511.579 529.904 510.763 531.82 510.763C534.496 510.763 535.387 509.587 535.387 506.323C535.387 502.548 534.571 501.808 530.056 501.808C525.085 501.808 524.706 502.32 524.706 508.107C524.706 511.503 525.521 514.33 526.489 514.33C527.457 514.33 528.272 513.514 528.272 512.546ZM389.527 510.991C390.494 509.435 385.087 507.291 380.268 507.215C376.417 507.139 377.896 510.479 382.051 511.295C384.271 511.731 386.643 512.166 387.307 512.318C388.047 512.394 389.014 511.807 389.527 510.991ZM412.066 509.871C412.066 508.392 410.871 507.215 409.391 507.215C407.835 507.215 407.171 508.24 407.835 509.871C408.366 511.351 409.542 512.546 410.434 512.546C411.326 512.546 412.066 511.351 412.066 509.871ZM446.52 507.215C447.127 504.843 446.596 503.572 444.964 503.572C443.409 503.572 442.441 505.432 442.441 508.183C442.441 513.363 445.116 512.698 446.52 507.215ZM551.476 508.771C551.476 507.88 548.649 507.215 545.234 507.215C541.022 507.215 539.011 506.323 539.011 504.615C539.011 499.36 541.307 496.457 545.462 496.457C548.497 496.457 549.692 495.434 549.692 492.91C549.692 489.723 548.497 489.267 539.903 489.267C529.752 489.267 527.381 491.355 533.604 494.694C535.899 495.87 537.246 498.393 537.246 501.732C537.246 510.402 538.499 511.882 545.31 511.067C548.725 510.687 551.533 509.663 551.533 508.771H551.476ZM558.287 508.24C557.035 506.836 555.688 506.02 555.327 506.323C554.284 507.367 556.959 510.763 558.799 510.763C559.767 510.763 559.539 509.587 558.287 508.24ZM459.858 507.727C458.169 507.29 454.982 507.215 452.743 507.652C450.523 508.107 451.927 508.467 455.873 508.467C459.8 508.467 461.565 508.183 459.858 507.652V507.727ZM469.344 503.572C470.312 503.572 471.051 502.757 471.051 501.808C471.051 500.765 468.395 500.025 465.208 500.025C460.389 500.101 459.933 500.385 462.533 501.94C464.24 502.908 465.796 505.128 465.872 506.76C466.099 509.587 466.156 509.51 466.915 506.684C467.351 504.995 468.471 503.572 469.344 503.572ZM494.558 506.551C491.883 503.364 499.586 499.057 506.928 499.645C511.159 499.949 512.184 499.36 512.184 496.457C512.184 494.465 511.159 492.758 509.964 492.682C498.561 492.17 473.423 493.347 472.171 494.542C471.355 495.358 471.507 497.577 472.531 499.36C474.315 502.396 474.466 502.396 474.542 499.494C474.618 496.097 477.274 495.357 479.134 498.317C479.798 499.361 481.505 499.721 482.985 499.209C484.389 498.621 487.368 499.436 489.436 500.84C491.58 502.32 492.623 503.572 491.731 503.572C490.916 503.572 491.295 504.768 492.471 506.248C493.743 507.728 495.147 508.923 495.583 508.923C496.114 508.923 495.583 507.88 494.482 506.551H494.558ZM585.038 506.684C583.938 503.287 578.303 502.832 578.303 506.095C578.303 507.803 579.859 508.923 582.078 508.923C584.222 508.923 585.493 508.031 585.038 506.684ZM613.724 505.812C613.269 503.364 610.974 502.548 603.043 502.168C596.972 501.808 592.077 500.612 590.749 498.981C588.301 496.021 585.493 495.565 585.493 498.241C585.493 499.284 586.897 500.612 588.605 501.2C590.293 501.808 592.969 503.364 594.449 504.54C597.56 507.139 602.152 508.391 609.266 508.695C613.194 508.923 614.237 508.24 613.724 505.812ZM563.846 499.569C563.922 500.764 565.25 501.808 566.73 501.808C568.665 501.808 569.405 499.797 569.405 494.617C569.405 487.503 569.405 487.503 562.214 487.503C555.536 487.503 555.099 487.787 555.099 492.682C555.099 495.566 556.219 498.241 557.774 498.829C559.254 499.436 560.507 501.732 560.658 503.952C560.81 507.367 561.095 507.139 562.214 502.68C562.954 499.721 563.694 498.317 563.846 499.569ZM579.858 499.949C582.002 499.949 583.71 499.209 583.71 498.165C583.71 497.198 581.339 496.382 578.512 496.382C574.376 496.382 573.18 497.274 572.44 501.277C571.625 505.584 571.777 505.811 573.769 503.06C575.04 501.353 577.771 499.949 579.858 499.949ZM521.082 500.84C521.082 499.436 519.829 498.165 518.198 498.165C515.826 498.165 515.674 498.696 517.534 500.84C518.786 502.32 520.038 503.572 520.418 503.572C520.778 503.572 521.082 502.32 521.082 500.84ZM549.692 501.808C549.692 500.765 548.497 499.949 547.017 499.949C545.537 499.949 544.361 500.765 544.361 501.808C544.361 502.757 545.537 503.572 547.017 503.572C548.497 503.572 549.692 502.757 549.692 501.808ZM438.817 494.086C438.817 488.166 429.103 484.6 423.335 488.394C419.256 491.05 417.985 494.693 420.357 496.989C421.04 497.653 425.479 498.165 430.223 498.165C438.001 498.165 438.817 497.804 438.817 494.086ZM447.791 494.162C447.715 488.243 445.78 482.096 444.015 482.096C443.124 482.096 442.441 485.719 442.441 490.159C442.441 496.097 443.124 498.165 445.116 498.165C446.672 498.165 447.791 496.534 447.791 494.162ZM463.861 491.714C463.861 487.047 463.425 486.896 455.19 488.527C450.979 489.419 449.556 490.69 449.556 493.497C449.556 496.913 450.371 497.274 456.746 496.685C462.912 496.097 463.861 495.433 463.861 491.714ZM468.756 487.047C468.319 484.828 467.94 486.232 467.94 490.159C467.864 494.086 468.244 495.87 468.68 494.162C469.135 492.455 469.211 489.267 468.756 487.047ZM521.082 490.823C521.082 488.394 522.865 486.971 526.944 486.079C531.972 484.979 531.005 484.6 520.19 483.499C513.303 482.835 505.372 482.02 502.489 481.716C499.662 481.488 496.987 482.152 496.55 483.348C496.114 484.752 498.922 485.643 505.373 486.023C514.195 486.535 514.859 486.895 515.371 491.354C516.035 496.989 521.082 496.457 521.082 490.823ZM581.927 492.246C581.927 491.942 579.934 489.799 577.411 487.427C572.953 483.272 572.953 483.271 572.953 488.014C572.953 491.942 573.768 492.834 577.411 492.834C579.934 492.834 581.927 492.53 581.927 492.246ZM509.527 488.319C513.151 487.124 480.689 487.863 476.401 489.134C473.954 489.874 479.949 490.083 489.815 489.722C499.662 489.267 508.484 488.679 509.527 488.319ZM542.578 484.751C542.578 483.271 541.838 482.096 540.87 482.096C538.65 482.096 537.019 484.904 538.423 486.307C540.434 488.319 542.578 487.578 542.578 484.751ZM547.909 485.643C547.909 484.675 547.093 483.86 546.126 483.86C545.177 483.86 544.361 484.675 544.361 485.643C544.361 486.686 545.177 487.427 546.126 487.427C547.093 487.427 547.909 486.61 547.909 485.643ZM476.838 484.467C475.643 484.012 473.574 484.012 472.398 484.467C471.127 484.98 472.171 485.416 474.618 485.416C477.066 485.416 478.09 484.98 476.838 484.467ZM569.405 483.86C569.405 482.892 566.141 482.096 562.214 482.096C558.287 482.096 555.099 482.892 555.099 483.86C555.099 484.827 558.287 485.643 562.214 485.643C566.141 485.643 569.405 484.827 569.405 483.86ZM492.471 481.204C492.471 479.724 491.371 478.528 489.948 478.528C486.476 478.528 484.769 481.565 487.577 482.684C491.447 484.24 492.471 483.936 492.471 481.204ZM534.799 479.268C535.747 476.821 538.423 476.536 551.76 477.276C560.431 477.713 567.621 477.485 567.621 476.67C567.621 474.089 561.987 473.121 546.866 473.121C534.723 473.121 531.82 473.634 531.82 475.778C531.82 477.941 529.164 478.605 519.754 478.833L507.668 479.116L518.407 480.313C524.345 480.977 530.189 481.641 531.46 481.793C532.712 481.944 534.192 480.824 534.799 479.268ZM501.806 474.601C500.117 472.894 499.15 472.894 497.518 474.601C495.81 476.233 496.323 476.745 499.662 476.745C503.001 476.745 503.438 476.233 501.806 474.601ZM813.163 693.298C814.036 688.858 813.524 687.226 810.716 685.519C805.821 682.407 806.333 680.548 812.196 680.548C816.047 680.548 817.679 679.372 819.083 675.672C820.942 670.701 820.942 670.701 823.01 675.672C824.414 679.144 826.273 680.548 829.537 680.548C834.792 680.548 835.38 683.299 830.637 685.822C828.342 687.075 827.601 688.934 828.208 692.121C829.081 696.94 827.753 697.68 823.314 694.929C821.53 693.753 819.234 694.113 816.351 696.049C812.044 698.856 812.044 698.857 813.163 693.298ZM125.923 691.23C125.923 688.042 124.803 685.367 123.248 684.779C119.036 683.147 120.136 680.548 125.031 680.548C128.218 680.548 129.774 679.372 130.59 676.109C131.178 673.661 132.297 671.669 133.113 671.669C133.853 671.669 134.953 673.661 135.636 676.109C136.509 679.675 137.856 680.548 142.372 680.548C148.007 680.548 148.007 680.548 144.231 684.627C141.632 687.378 140.74 690.034 141.404 692.709C142.6 697.149 141.632 697.528 136.376 694.72C133.701 693.297 132.146 693.297 130.742 694.72C127.478 697.965 125.923 696.94 125.923 691.23ZM870.745 680.852C870.138 678.935 873.116 670.398 878.011 659.887C894.157 625.262 906.983 580.127 912.902 536.642C914.097 527.744 915.198 505.507 915.274 487.123C915.349 456.805 915.653 453.637 918.537 452.821C920.244 452.441 921.648 451.266 921.648 450.222C921.648 449.255 920.168 448.818 918.328 449.331C915.349 450.07 914.837 448.59 913.642 436.22C912.902 428.498 912.01 419.391 911.65 415.901C909.639 396.34 898.9 355.207 888.295 326.748C881.332 308.003 863.478 271.159 853.176 254.198C847.105 244.256 845.758 239.228 850.35 243.82C851.469 244.863 853.404 245.375 854.656 244.863C859.096 243.155 885.335 293.623 897.42 327.053C918.688 385.962 926.923 443.619 923.356 509.587C922.464 525.96 920.832 541.005 919.808 542.94C918.764 544.932 918.328 547.152 918.764 547.968C919.941 549.827 912.238 588.132 906.831 607.333C898.597 636.607 878.372 684.115 874.141 684.115C872.889 684.115 871.333 682.711 870.821 680.852H870.745ZM110.877 655.144C108.506 651.805 108.43 650.685 110.498 647.574C115.165 640.535 124.139 642.755 124.139 650.913C124.139 659.204 115.621 661.955 110.877 655.144ZM833.236 656.32C831.681 654.764 830.428 652.393 830.428 651.065C830.428 648.029 835.323 642.982 838.359 642.982C841.015 642.982 846.498 648.693 846.498 651.501C846.498 654.252 841.395 659.147 838.492 659.147C837.164 659.147 834.792 657.8 833.236 656.32ZM546.126 652.848C542.805 648.845 547.093 644.842 554.663 644.842C560.962 644.842 560.962 644.842 557.623 648.541C552.216 654.461 548.573 655.808 546.126 652.848ZM97.6914 622.967C94.7127 620.007 95.0165 613.48 98.128 610.9C101.619 607.997 106.21 609.117 109.17 613.556C113.761 620.519 103.611 628.905 97.6914 622.967ZM846.878 622.967C843.994 620.007 844.203 613.48 847.314 610.9C850.805 607.997 855.396 609.117 858.356 613.556C862.966 620.519 852.797 628.905 846.878 622.967ZM86.9343 587.241C80.0473 580.354 90.0457 569.388 97.3122 575.99C101.619 579.918 101.828 582.877 98.128 586.577C94.7129 589.992 89.894 590.22 86.9343 587.241ZM857.331 586.881C852.285 580.734 859.248 570.356 865.774 574.435C872.149 578.438 869.853 589.405 862.663 589.405C860.879 589.405 858.508 588.285 857.331 586.881ZM75.8164 550.568C76.9358 546.565 76.2718 544.629 72.6291 540.702C68.0377 535.826 68.0376 535.826 74.4124 535.826C79.9713 535.826 80.9388 535.067 82.5704 529.964L84.411 524.176L86.7826 529.964C88.7937 534.859 90.1216 535.826 95.0165 535.826C102.055 535.826 102.359 536.851 96.5722 541.385C92.8726 544.269 92.4929 545.596 93.7641 550.112C95.5285 556.278 95.1683 556.486 89.3058 552.635C85.3785 550.055 84.6384 550.055 80.9388 552.635C75.2281 556.562 74.1848 556.203 75.8164 550.568ZM861.999 549.98C862.89 545.825 862.207 543.528 858.963 540.189C854.884 535.749 854.884 535.75 860.594 535.75C865.395 535.75 866.818 534.783 868.886 529.964L871.409 524.101L873.705 529.964C875.412 534.479 876.968 535.75 880.592 535.75C887.346 535.75 888.162 537.514 883.191 541.442C879.624 544.269 879.036 545.901 880.004 550.568C881.123 556.279 881.123 556.278 876.228 553.015C871.693 550.112 870.954 550.055 867.026 552.635C861.183 556.41 860.803 556.203 861.999 549.98ZM76.1957 505.944C68.1134 502.68 71.5284 487.503 80.2747 487.503C84.5625 487.503 90.1975 493.27 90.1975 497.729C90.1975 503.364 81.9064 508.239 76.1957 505.944ZM869.777 503.572C865.338 499.132 865.262 496.173 869.55 490.823C874.445 484.827 882.887 487.711 883.703 495.794C884.671 505.735 876.437 510.326 869.777 503.572ZM74.7916 459.784C72.1165 455.629 72.1165 454.964 74.7916 450.809C79.9711 442.879 90.1975 445.839 90.1975 455.249C90.1975 464.735 79.9711 467.714 74.7916 459.784ZM866.951 459.784C864.219 455.629 864.219 454.964 866.951 450.809C872.149 442.879 882.299 445.839 882.299 455.249C882.299 464.735 872.149 467.714 866.951 459.784ZM240.801 420.359C232.719 415.009 226.041 410.19 226.041 409.677C226.041 406.642 232.055 397.896 236.874 393.817C243.685 388.106 248.731 387.973 256.662 393.228C264.441 398.484 267.553 404.573 266.206 412.124C265.257 417.835 258.426 430.358 256.51 430.13C255.979 430.13 248.94 425.69 240.801 420.359ZM258.218 416.129C261.102 410.721 260.438 407.23 255.694 402.486C250.287 397.079 242.205 396.719 237.689 401.746C233.895 405.825 234.351 406.49 245.829 414.06C255.467 420.359 255.846 420.435 258.218 416.129ZM76.4805 421.384C77.524 416.128 77.0116 414.724 72.7808 411.233C67.81 407.154 67.81 407.154 74.3365 407.078C80.0472 407.002 81.1667 406.338 82.9311 401.235L85.0178 395.372L87.5225 401.235C89.6095 406.054 90.9374 407.003 95.7564 407.003C101.543 407.003 101.543 407.002 97.388 411.461C94.2007 414.8 93.5366 417.096 94.3524 421.232C95.6046 427.55 95.1683 427.758 89.3058 423.907C85.3785 421.308 84.6384 421.383 80.1988 424.362C75.2281 427.549 75.2284 427.55 76.4805 421.384ZM861.543 420.644C862.587 415.464 862.151 413.908 859.096 412.049C853.992 408.786 854.58 407.003 860.803 407.003C865.186 407.003 866.666 405.978 868.658 401.235L871.181 395.448L873.325 401.235C875.109 405.978 876.437 407.003 880.668 407.003C886.739 407.003 887.498 409.677 882.072 412.504C878.96 414.193 878.524 415.692 879.339 420.795C880.383 427.018 880.383 427.019 875.924 424.135C871.921 421.46 871.105 421.46 866.002 424.135C860.367 427.019 860.367 427.018 861.619 420.644H861.543ZM688.495 415.084C687.831 413.168 691.246 409.905 700.068 404.043C709.251 397.896 712.287 394.935 711.395 392.848C706.367 380.63 712.799 382.186 721.033 395.22C727.484 405.598 727.92 407.079 725.415 409.166C723.48 410.797 722.361 410.873 721.925 409.526C719.25 401.671 717.257 401.671 704.811 409.829C691.455 418.575 690.051 419.011 688.495 415.084ZM676.865 397.46C674.93 395.088 675.158 393.665 678.269 388.485C681.608 383.154 681.912 376.627 678.857 376.627C678.269 376.627 675.537 378.848 672.71 381.447C668.043 385.962 667.531 386.113 664.78 383.362C662.048 380.63 662.256 380.043 667.891 375.432C671.154 372.624 677.377 367.368 681.684 363.65C685.915 359.95 690.127 356.991 690.943 356.991C693.466 356.991 701.624 367.577 702.8 372.396C704.28 378.183 699.253 383.818 692.498 383.818C688.875 383.818 687.395 384.71 687.395 386.93C687.395 388.637 685.535 392.337 683.316 395.145C679.673 399.679 679.009 399.964 676.865 397.46ZM694.433 375.887C697.829 371.732 693.694 365.281 689.235 367.653C684.34 370.328 683.24 372.852 685.687 375.812C688.419 379.151 691.758 379.151 694.433 375.887ZM259.091 382.622C248.428 373.591 247.536 372.32 249.984 369.873C252.431 367.368 253.532 367.805 261.178 374.104C272.959 383.894 276.374 385.601 280.15 383.59C285.709 380.555 283.546 375.584 272.447 365.946C262.733 357.503 261.842 356.175 264.289 353.803C266.661 351.356 268.14 352.096 277.854 360.463C292.084 372.776 293.848 380.555 284.59 389.225C278.139 395.22 272.144 393.664 259.091 382.622ZM85.4544 381.882C86.422 377.291 85.8336 375.147 82.7221 371.884C78.8517 367.729 78.8518 367.729 84.202 367.729C88.4139 367.729 90.1217 366.553 92.3415 361.886L95.244 356.1L97.3122 361.886C99.0956 366.686 100.348 367.729 104.939 367.729C110.498 367.729 110.498 367.729 106.571 371.884C103.535 375.072 102.947 377.291 103.839 381.731C104.939 387.441 104.939 387.441 99.6079 384.406C94.5043 381.446 93.9731 381.447 89.23 384.558C84.2782 387.822 84.2781 387.821 85.4544 381.882ZM866.438 384.482C863.175 382.186 861.41 381.959 857.919 383.59C851.772 386.417 851.393 386.19 852.721 380.859C853.537 377.368 852.873 375.072 849.913 371.961C845.91 367.73 845.91 367.729 851.241 367.729C855.548 367.729 857.18 366.552 859.324 362.018L861.999 356.403L864.294 362.018C866.21 366.628 867.633 367.729 872.073 367.729C877.556 367.729 877.556 367.729 873.477 372.036C870.29 375.432 869.701 377.519 870.669 381.882C872.073 388.257 871.921 388.333 866.438 384.482ZM289.105 356.023C282.958 348.757 277.93 342.174 277.93 341.282C277.93 338.455 287.701 330.372 292.672 329.196C298.743 327.716 302.974 330.752 302.974 336.614C302.974 339.858 303.941 340.902 307.053 340.902C317.64 340.902 318.835 354.24 309.121 363.441C305.573 366.761 302.158 369.437 301.494 369.361C300.83 369.209 295.271 363.214 289.105 356.023ZM307.414 353.423C307.414 348.32 302.519 346.461 298.383 349.952C296.087 351.868 296.087 352.533 298.819 355.511C302.898 360.027 307.414 358.907 307.414 353.423ZM295.859 343.502C297.776 341.206 297.643 340.162 295.195 337.714C292.444 334.982 292.008 334.982 289.257 337.714C286.81 340.162 286.677 341.206 288.593 343.502C289.864 344.982 291.476 346.234 292.235 346.234C292.975 346.234 294.607 344.982 295.859 343.502ZM641.956 362.17C634.993 353.955 635.733 346.309 644.176 337.354C649.81 331.416 652.258 330.164 657.741 330.164C666.563 330.164 674.854 338.018 674.854 346.234C674.854 364.106 652.637 374.843 641.956 362.17ZM662.484 355.36C667.967 349.877 669.238 343.122 665.595 339.422C657.893 331.719 640.912 346.917 646.186 356.84C649.07 362.247 656.261 361.583 662.484 355.36ZM316.312 333.124C305.118 316.295 305.042 314.967 315.723 309.484C325.646 304.285 334.032 307.927 333.728 317.262C333.653 321.113 334.544 323.125 336.764 323.865C338.548 324.377 341.735 326.749 343.879 329.044C347.294 332.687 347.445 333.483 345.15 335.343C342.987 337.126 341.28 336.748 335.948 333.124C326.766 326.901 323.123 328.608 328.169 336.747C331.66 342.382 331.793 343.197 329.289 345.721C326.765 348.244 325.494 346.974 316.312 333.124ZM326.31 316.826C323.654 313.715 321.131 313.411 317.431 315.707C315.268 317.111 315.344 318.079 318.019 322.158C321.207 326.977 321.207 326.976 324.906 323.333C327.942 320.222 328.246 319.198 326.31 316.826ZM102.947 342.097C103.307 339.574 102.131 336.007 100.196 333.939C96.8001 330.164 96.7998 330.164 101.543 330.164C105.091 330.164 106.874 328.893 108.354 325.269C110.365 320.298 110.365 320.298 112.206 325.269C113.686 329.121 115.317 330.163 119.548 330.239C125.031 330.239 125.031 330.24 120.952 333.636C117.84 336.311 117.176 338.169 118.068 341.717C119.168 346.1 118.96 346.233 114.729 344.317C111.39 342.837 109.322 342.837 106.362 344.469C102.719 346.385 102.435 346.157 103.023 342.097H102.947ZM837.904 342.022C838.207 339.574 836.936 336.007 835.096 333.939C831.68 330.239 831.757 330.164 836.348 330.164C839.687 330.164 841.831 328.684 843.614 325.269C846.213 320.298 846.214 320.298 847.466 325.269C848.433 328.893 849.837 330.164 853.025 330.164C857.768 330.164 858.735 333.276 854.505 334.907C852.512 335.723 852.057 337.355 852.873 341.13C854.068 346.462 852.284 347.713 848.737 344.165C847.105 342.534 845.549 342.534 841.983 344.165C837.619 346.157 837.391 346.025 837.904 342.022ZM608.166 336.822C605.415 334.83 606.022 333.275 614.901 320.013C620.251 312.007 625.43 304.968 626.322 304.437C628.77 302.881 642.183 313.259 643.663 317.775C645.731 324.377 639.224 331.055 630.838 330.979C627.062 330.903 622.68 330.316 621.2 329.633C619.435 328.817 617.348 330.163 614.825 333.711C611.714 338.226 610.689 338.758 608.166 336.822ZM634.993 321.853C636.169 318.818 633.873 313.771 630.914 312.898C628.618 312.215 622.623 320.886 623.951 323.049C625.734 325.933 633.797 325.041 634.993 321.853ZM594.828 328.684C593.196 327.641 592.817 324.965 593.633 320.07C594.449 314.814 594.088 312.443 591.925 310.66C589.554 308.668 588.738 309.256 586.081 314.815C582.97 321.417 578.967 323.2 577.259 318.742C576.368 316.446 589.553 288.292 592.305 286.584C594.524 285.256 608.754 292.959 610.689 296.582C613.421 301.705 611.125 308.592 606.021 310.527C602.758 311.703 601.563 313.563 601.563 317.187C601.487 323.258 599.723 330.164 598.224 330.164C597.56 330.088 596.08 329.424 594.828 328.684ZM603.347 301.705C603.347 298.594 600.083 294.439 597.712 294.439C596.972 294.439 595.416 296.145 594.221 298.289C592.532 301.477 592.741 302.597 595.264 304.437C599.04 307.188 603.347 305.784 603.347 301.705ZM353.82 324.073C343.366 319.558 338.092 305.992 343.063 296.506C348.394 286.204 359.74 284.136 368.865 291.763C380.723 301.704 379.452 318.591 366.551 323.998C359.228 327.052 360.631 327.052 353.82 324.073ZM366.342 316.598C370.118 312.823 369.814 307.264 365.602 300.225C363.231 296.355 360.632 294.439 357.881 294.439C348.186 294.439 346.326 305.841 354.693 314.227C360.632 320.146 362.415 320.526 366.342 316.598ZM560.431 312.367C560.431 309.844 571.188 281.177 572.744 279.621C573.56 278.805 575.4 278.653 576.956 279.241C579.555 280.285 579.479 281.252 576.595 289.619C569.708 309.484 567.261 314.075 563.846 314.075C561.986 314.075 560.431 313.335 560.431 312.367ZM384.726 294.951C377.004 283.472 374.937 279.089 376.644 278.065C380.647 275.466 381.596 276.282 389.318 288.368L396.869 300.149L397.381 286.128C397.837 273.246 399.24 269.452 403.623 269.395C404.363 269.395 404.8 278.426 404.496 289.468C403.984 309.484 403.983 309.635 399.544 310.072C395.768 310.451 393.529 308.156 384.726 294.951ZM548.801 308.744C546.733 308.004 544.873 305.329 544.361 302.294C543.166 295.615 535.008 293.85 531.896 299.617C529.98 303.26 522.865 304.893 522.865 301.705C522.865 300.814 527.02 293.11 532.124 284.573C540.282 271.026 541.913 269.243 545.917 269.755C549.92 270.211 550.736 271.387 551.988 278.938C552.804 283.757 553.24 292.655 552.955 298.802C552.424 309.104 552.14 309.844 548.801 308.744ZM544.722 285.464C543.83 279.09 543.318 278.938 540.718 283.681C538.65 287.684 539.751 290.796 543.242 290.796C544.722 290.796 545.234 289.031 544.722 285.464ZM116.361 303.925C117.252 300.282 116.588 298.517 113.249 295.918C108.942 292.654 108.942 292.654 113.837 292.654C117.252 292.579 119.396 291.175 121.255 287.684C123.855 282.733 123.855 282.733 126.074 287.684C127.63 291.099 129.622 292.579 132.734 292.579C137.117 292.579 137.116 292.655 134.081 296.071C132.07 298.29 131.178 301.325 131.709 304.152C132.734 309.408 132.885 309.332 126.89 306.6C123.323 304.969 121.768 304.969 120.136 306.6C116.74 310.072 115.108 308.971 116.361 304V303.925ZM823.826 303.925C824.49 300.434 823.674 298.213 820.866 295.918C817.091 292.73 817.091 292.73 822.043 292.654C825.761 292.579 827.45 291.403 828.872 287.684C830.713 282.733 830.713 282.733 833.312 287.684C835.172 291.175 837.391 292.579 840.806 292.654C845.682 292.73 845.682 292.731 841.622 296.146C838.491 298.669 837.752 300.586 838.644 304.077C839.839 308.972 837.903 310.072 834.431 306.6C832.876 304.969 831.244 304.968 827.602 306.657C823.01 308.744 822.934 308.592 823.826 303.925ZM420.888 302.881C420.072 298.593 415.69 269.604 415.69 267.972C415.614 266.796 417.549 265.752 419.92 265.752C424.075 265.752 429.71 270.95 438.229 282.656C442.004 287.912 442.004 287.912 439.709 275.827C437.774 265.316 437.85 263.607 440.145 262.716C443.94 261.236 445.268 264.348 447.715 279.83C448.815 287.324 450.239 294.875 450.675 296.582C451.415 299.03 450.523 299.694 447.051 299.694C443.484 299.694 440.449 297.17 434.074 289.031C429.483 283.093 425.48 278.502 425.1 278.881C424.816 279.166 425.328 283.757 426.295 288.956C428.819 301.99 428.667 303.337 424.512 303.337C422.596 303.337 420.964 303.108 420.888 302.881ZM493.875 291.688C489.36 282.201 486.476 282.125 485.736 291.403C485.205 296.962 484.465 297.986 480.917 297.986C476.838 297.986 476.762 297.777 477.578 283.168C478.773 262.943 479.437 260.421 483.573 260.421C486.552 260.421 487.14 261.597 487.14 267.972V275.542L492.623 268.864C496.399 264.348 499.586 262.204 502.698 262.204C507.289 262.204 507.289 262.204 501.142 269.603L494.995 277.098L500.99 288.424C507.08 299.77 507.08 299.769 502.413 299.769C498.77 299.769 497.063 298.138 493.875 291.688ZM459.649 289.619C459.042 285.104 458.53 276.643 458.53 270.875C458.53 261.825 459.042 260.421 461.869 260.421C465.492 260.421 467.427 270.059 467.503 288.576C467.503 296.507 466.972 297.911 464.164 297.911C461.565 297.911 460.54 296.146 459.649 289.619ZM153.641 255.678C145.787 249.227 137.856 242.852 135.997 241.6C132.734 239.228 132.734 239.001 136.585 232.853C147.343 215.437 167.055 214.545 167.055 231.374C167.055 233.669 167.795 235.15 168.687 234.562C169.578 234.03 174.834 235.301 180.393 237.369C189.955 241.068 190.315 241.448 187.887 244.996C184.908 249.303 183.068 249.379 174.018 245.451C168.307 243.004 167.131 242.928 164.171 245.3C160.984 247.747 161.117 248.184 167.947 254.122C173.866 259.169 174.758 260.857 173.202 263.38C170.015 268.427 168.611 267.839 153.641 255.678ZM158.46 238.108C162.312 229.666 151.554 224.391 146.678 232.322C145.123 234.997 145.483 236.25 148.974 239.077C154.457 243.592 156.013 243.44 158.46 238.108ZM779.81 260.724C776.907 257.537 776.983 257.082 780.701 252.414C784.477 247.519 784.553 247.367 781.29 241.372C778.994 237.065 777.135 235.509 775.142 236.325C766.908 239.513 762.829 239.304 760.837 235.51C759.281 232.55 759.282 231.507 761.046 230.918C762.393 230.482 772.543 226.764 783.737 222.704C804.038 215.285 804.037 215.285 808.344 219.592C812.632 223.88 812.632 223.879 799.143 243.44C791.744 254.273 784.989 263.304 784.249 263.532C783.434 263.836 781.441 262.564 779.81 260.724ZM799.219 226.764C798.175 225.739 785.729 231.583 785.729 233.138C785.729 233.954 786.773 235.661 787.949 236.857C789.733 238.621 791.136 237.881 795.007 233.214C797.587 229.95 799.522 227.067 799.219 226.764ZM600.235 244.123C597.048 242.928 596.232 241.22 596.232 235.813C596.232 229.818 595.568 228.699 590.673 226.915C585.626 224.999 584.81 225.208 581.187 229.439C577.999 233.138 576.216 233.879 572.289 232.93C566.654 231.507 565.762 233.138 584.45 209.726C596.972 194.017 598.964 192.688 605.415 196.16C608.754 197.944 608.906 199.196 607.71 216.841C605.946 243.44 605.206 245.963 600.235 244.123ZM598.679 215.437C600.747 204.983 600.083 203.731 595.416 209.423C590.445 215.437 589.781 218.548 593.12 219.876C597.123 221.508 597.56 221.148 598.679 215.437ZM360.043 233.878C352.113 229.951 345.89 220.408 345.89 212.326C345.89 200.164 356.268 188.762 367.746 188.23C372.565 188.022 373.665 188.685 374.197 192.005C374.633 195.193 373.893 196.009 370.421 196.009C367.974 196.009 363.895 197.717 361.296 199.728C355.452 204.395 354.845 214.772 360.119 221.508C364.71 227.294 368.866 228.262 376.929 225.511C382.867 223.443 383.683 223.595 385.315 226.555C388.862 233.29 369.814 238.849 360.043 233.878ZM178.685 217.504L162.673 201.36L172.841 191.265C181.645 182.462 183.277 181.419 185.8 183.487C188.399 185.65 188.02 186.599 181.948 192.765C175.27 199.652 175.27 199.652 179.274 203.655C183.277 207.658 183.276 207.658 188.399 201.871C193.958 195.497 196.026 194.832 198.986 198.38C200.542 200.239 199.745 202.023 195.665 205.875C189.499 211.794 189.215 213.293 193.37 217.884C196.254 221.072 196.557 220.92 202.856 214.773C209.155 208.607 215.378 207.658 215.378 212.838C215.378 214.773 197.506 233.593 195.59 233.593C195.134 233.593 187.507 226.327 178.685 217.504ZM554.663 228.775C551.172 227.883 550.944 229.439 558.514 202.308C563.333 184.834 565.553 181.646 570.657 184.891C572.289 186.01 571.397 191.494 566.957 207.583C561.095 229.003 560.355 230.255 554.663 228.775ZM750.896 226.479C747.86 223.14 747.86 222.324 750.687 212.478C752.243 206.767 753.571 201.492 753.571 200.828C753.571 197.868 748.448 200.012 743.705 204.983C737.938 210.978 735.414 211.586 731.999 207.583C730.083 205.135 732.075 202.384 746.38 188.022C760.989 173.413 763.417 171.553 766.396 173.336C771.063 176.296 770.532 177.928 762.981 185.782C756.682 192.233 756.53 192.613 760.761 191.722C781.726 186.979 781.062 186.978 785.578 191.494C789.884 195.724 789.884 195.724 781.062 196.9C763.721 199.272 763.797 199.197 760.097 215.437C758.238 223.444 756.17 230.027 755.43 230.027C754.69 230.027 752.679 228.395 750.896 226.479ZM390.494 205.723C385.903 183.203 385.903 183.202 390.418 181.419C398.425 178.383 411.611 179.048 415.614 182.596C419.541 186.162 420.224 192.537 417.245 198.096C415.766 200.828 415.993 202.384 417.928 204.68C422.14 209.499 426.599 219.212 425.404 221.147C422.956 225.151 417.397 222.628 413.925 215.949C407.398 203.048 400.36 204.395 402.883 218.036C404.059 224.543 403.908 226.479 402.124 226.479C400.872 226.479 398.728 226.839 397.381 227.37C395.617 228.034 393.909 222.627 390.494 205.723ZM409.106 195.648C411.914 191.19 409.106 187.13 403.168 187.13C398.652 187.13 397.761 187.793 397.761 191.417C397.761 198.911 399.468 201.359 403.623 199.803C405.691 198.987 408.214 197.128 409.106 195.648ZM524.933 221.281C522.941 220.028 523.017 217.429 525.388 205.951C529.448 186.163 529.24 183.866 523.302 183.202C519.83 182.747 518.274 181.495 517.819 178.592C517.155 173.925 518.862 173.716 534.647 176.448C553.164 179.635 553.031 179.56 551.988 183.715C551.172 186.903 549.977 187.338 545.025 186.522C538.347 185.422 538.935 184.227 535.387 204.091C532.276 221.584 531.896 222.836 529.525 222.836C528.348 222.836 526.261 222.096 524.933 221.281ZM439.272 216.481C424.151 205.875 427.851 179.047 445.344 172.976C466.972 165.406 481.885 196.236 464.828 213.349C459.934 218.244 457.562 219.289 451.054 219.289C446.747 219.289 441.416 218.036 439.272 216.481ZM457.941 207.506C461.869 203.579 462.381 201.796 461.641 194.985C459.345 174.457 440.676 175.12 440.676 195.648C440.676 201.435 441.701 204.471 445.04 207.734C450.523 213.293 452.231 213.217 457.941 207.506ZM506.264 217.961C505.809 217.221 504.993 214.393 504.329 211.661C503.362 207.734 502.185 206.766 497.803 206.766C494.919 206.766 491.959 206.539 491.295 206.311C490.631 206.102 489.36 208.55 488.544 211.738C487.292 216.689 486.248 217.504 481.581 217.504C478.545 217.504 476.402 216.841 476.686 216.101C477.066 215.285 480.841 205.287 485.205 193.713C493.06 172.825 493.059 172.824 498.998 172.824C505.6 172.824 504.917 171.42 512.108 201.435C516.567 220.256 516.642 219.289 511.368 219.289C508.996 219.289 506.701 218.701 506.264 217.961ZM501.445 197.356C501.445 196.161 500.933 192.005 500.25 188.154L499.15 181.191L496.19 189.046C494.103 194.453 493.818 197.356 495.07 198.248C498.03 200.316 501.445 199.88 501.445 197.356ZM209.288 188.23C201.813 179.048 195.665 170.662 195.665 169.561C195.665 165.919 212.039 154.877 217.446 154.877C230.271 154.877 236.267 172.445 226.856 182.596C222.265 187.566 222.265 187.566 226.781 193.94C230.196 198.684 230.86 200.904 229.38 202.611C225.756 207.051 222.853 204.983 209.288 188.23ZM220.33 177.776C227.16 171.041 218.717 161.252 210.711 166.526C206.252 169.41 206.252 169.41 210.407 174.589C214.847 180.3 217.143 181.039 220.33 177.776ZM709.403 188.97C701.548 184.151 698.721 178.592 702.364 174.968C704.811 172.52 705.552 172.825 709.839 177.852C714.734 183.715 720.805 185.271 722.437 181.116C722.892 179.788 721.697 174.589 719.705 169.561C715.702 159.335 716.745 153.036 722.968 149.697C730.291 145.77 741.334 149.261 746.304 157.115C748.164 160.151 748.012 161.175 745.716 163.49C743.193 165.994 742.529 165.861 738.526 161.478C729.552 151.84 724.657 156.432 730.216 169.333C734.447 179.275 733.783 185.707 727.92 189.862C722.817 193.429 716.214 193.125 709.403 188.97ZM253.323 171.781C249.68 169.258 231.448 143.398 231.448 140.799C231.448 139.547 238.714 134.728 239.303 135.544C239.53 135.905 243.23 141.615 247.536 148.369C256.795 162.883 261.69 166.81 267.097 163.926C272.96 160.739 271.631 153.473 262.733 140.211C258.275 133.608 254.727 127.386 254.727 126.418C254.727 124.729 261.766 120.043 262.582 121.238C269.393 131.028 279.771 149.318 280.587 153.188C283.698 167.19 264.953 179.939 253.323 171.781ZM676.713 164.818C674.93 162.598 676.353 159.411 684.72 146.662C692.574 134.804 694.358 130.8 692.498 129.756C684.644 125.241 683.6 123.685 686.124 120.27C688.495 117.007 688.799 117.084 695.61 121.315C719.25 136.208 717.998 135.088 715.987 138.883C714.222 142.203 713.767 142.203 708.872 139.774C706.064 138.275 703.388 137.023 703.028 137.023C702.649 137.023 697.981 143.834 692.65 152.22C682.784 167.702 680.565 169.485 676.713 164.818ZM659.145 154.364C655.521 152.732 655.142 151.632 656.185 145.617C657.304 139.167 657.001 138.656 651.366 136.284C645.731 133.837 645.143 133.988 640.627 138.219C636.169 142.431 628.39 142.962 628.39 139.016C628.39 138.276 635.657 129.985 644.479 120.498C660.34 103.67 660.7 103.385 665.975 105.377C669.447 106.705 671.306 108.641 671.306 111.089C671.382 117.16 665.519 153.928 664.343 155.18C663.755 155.768 661.441 155.407 659.145 154.364ZM661.307 121.315L662.484 113.612L656.773 119.986C651.366 126.209 651.29 126.57 654.553 128.941C658.784 132.053 659.828 130.877 661.307 121.315ZM287.701 133.399C282.294 122.49 278.291 112.871 278.879 111.904C279.486 110.936 283.11 108.564 286.961 106.629C301.039 99.3815 313.58 103.973 311.265 115.527C310.449 119.606 310.905 120.935 312.821 120.935C317.204 120.935 322.611 127.765 322.611 133.173C322.611 139.471 316.312 146.661 307.414 150.361C303.714 151.84 300.09 153.112 299.198 153.112C298.307 153.112 293.184 144.214 287.701 133.399ZM311.265 137.839C313.352 134.728 313.352 133.609 311.265 130.801C309.197 128.05 307.793 127.765 303.335 129.093C297.928 130.725 297.852 130.8 300.375 136.719C303.202 143.398 307.262 143.759 311.265 137.839ZM302.386 118.127C303.941 114.124 299.483 109.968 295.119 111.315C289.788 112.928 289.712 113.08 292.235 119.018C294.076 123.61 294.968 124.122 297.927 122.566C299.787 121.542 301.854 119.531 302.386 118.127ZM335.132 130.421C334.108 127.689 330.389 117.899 326.841 108.792C323.35 99.5905 320.827 91.7365 321.207 91.3761C321.643 90.9207 323.863 90.4081 326.101 90.1046C329.801 89.7441 330.921 91.3751 336.537 106.629C339.952 115.982 342.911 123.762 343.063 123.99C343.215 124.198 347.142 123.022 351.809 121.315C359.303 118.64 360.48 118.563 362.035 120.935C364.711 125.166 363.306 126.721 353.82 129.908C336.1 135.979 337.144 135.904 335.057 130.421H335.132ZM607.426 131.541C603.574 130.061 603.422 129.169 603.574 109.817C603.859 83.2935 604.675 79.7269 610.31 81.8898C614.616 83.4455 614.616 83.5967 613.421 101.678C612.757 111.752 612.909 119.171 613.724 118.203C614.616 117.236 619.435 110.708 624.539 103.669C631.881 93.5949 634.613 91.0715 637.44 91.8114C639.356 92.3427 641.443 93.443 641.956 94.3347C642.772 95.6628 616.248 130.212 612.757 132.28C612.017 132.659 609.645 132.357 607.426 131.541ZM371.825 120.498C371.446 119.246 368.638 109.456 365.602 98.7744C359.967 79.062 360.195 75.2872 366.494 76.5584C370.933 77.3552 383.019 118.942 379.528 121.162C376.113 123.382 372.717 123.022 371.825 120.498ZM576.956 120.858C573.56 119.53 572.953 117.899 572.953 110.424C572.953 104.049 572.213 101.374 570.145 100.558C565.838 98.9261 564.073 99.2301 563.997 101.678C563.997 102.93 563.182 107.009 562.138 110.709C560.507 116.571 559.691 117.387 556.352 116.343C554.208 115.679 552.14 114.939 551.836 114.635C551.324 114.123 559.994 77.7343 561.778 73.067C562.593 70.999 564.813 70.696 571.852 71.5119C582.742 72.764 589.781 77.5072 590.521 84.1096C591.185 89.7445 586.594 97.6743 582.667 97.6743C580.599 97.6743 580.371 98.414 581.851 101.146C583.938 105.073 584.374 122.794 582.363 122.566C581.623 122.566 579.252 121.75 577.032 120.858H576.956ZM579.934 89.8961C582.818 86.4052 580.523 81.7373 575.4 80.4851C570.069 79.1381 569.765 79.4423 568.286 86.6329C567.261 92.0401 567.47 92.343 572.516 92.343C575.476 92.343 578.815 91.2242 579.934 89.8961ZM393.321 113.972C391.898 109.608 385.466 71.9472 385.979 71.359C386.206 71.1314 388.274 70.695 390.722 70.4674C394.573 70.031 395.237 70.9226 396.717 78.4737C397.609 83.1409 398.804 86.9166 399.392 86.9166C399.98 86.8407 402.579 82.0984 405.103 76.4067C409.182 67.4327 410.586 65.877 415.405 65.1371C418.516 64.7007 420.964 64.6244 420.964 64.909C420.964 65.2885 418.593 69.8034 415.614 75.0588C412.654 80.2573 410.283 85.3613 410.283 86.4048C410.283 87.4483 414.874 93.4431 420.433 99.6661C430.659 111.088 430.659 111.087 424.436 111.676C419.029 112.188 417.473 111.315 410.947 103.821C402.656 94.1829 400.72 95.0751 401.612 108.052C402.124 115.527 401.764 116.495 398.349 117.007C395.769 117.386 394.137 116.343 393.321 113.972ZM533.831 112.34C529.828 111.752 529.676 111.163 530.72 102.189C531.896 91.8873 530.644 90.6355 519.014 90.5596C514.555 90.5596 514.119 91.224 513 100.331C512.032 107.825 511.084 110.197 508.845 110.197C502.413 110.121 502.11 108.053 504.917 85.153C507.744 62.8413 507.744 62.8407 512.791 62.2526C517.818 61.6455 517.818 61.646 516.566 71.6635C515.371 81.5862 515.371 81.5852 520.494 81.5852C523.301 81.6611 527.381 82.0979 529.525 82.705C533.092 83.6726 533.452 82.9893 533.983 75.0588C534.495 67.0714 534.932 66.3129 539.466 65.8007C543.242 65.4402 544.361 66.0287 544.285 68.552C544.133 74.3956 539.39 112.188 538.726 112.644C538.347 112.871 536.203 112.72 533.831 112.34ZM434.15 106.193C434.738 103.973 437.413 93.0829 440.145 81.965C444.964 61.7973 444.964 61.7978 451.263 62.329C457.562 62.8413 457.562 62.8413 466.099 85.153C470.767 97.4472 474.618 107.673 474.618 107.977C474.618 108.186 472.247 108.412 469.344 108.412C464.98 108.412 463.728 107.388 461.869 102.114C459.725 96.2706 459.042 95.8155 453.198 96.2708C447.563 96.7831 446.748 97.5222 445.268 103.518C443.788 109.38 442.972 110.197 438.381 110.197C433.77 110.197 433.258 109.683 434.15 106.193ZM455.721 84.6967C453.35 76.9939 451.263 72.1749 450.675 72.8389C450.371 73.2184 449.556 76.9948 448.892 81.1498C447.791 88.4163 447.943 88.7763 452.382 88.7763C456.31 88.7763 456.822 88.1877 455.721 84.6967Z" fill="#22924A"/>
</svg>
