<svg width="958" height="550" viewBox="0 0 958 550" fill="none" xmlns="http://www.w3.org/2000/svg">
<path fill-rule="evenodd" clip-rule="evenodd" d="M239.082 541.051C213.552 535.565 177.488 522.563 153.817 510.448C59.2565 461.788 1.62776 377.078 0.0166418 284.49C-0.355154 264.724 5.5931 220.984 8.81533 219.546C10.0546 219.021 10.7984 216.923 10.5506 214.933C9.9309 209.595 18.2344 187.921 27.6532 169.957C49.7131 127.697 83.5459 91.1775 127.666 62.1074C153.939 44.7756 155.304 44.3316 160.013 51.6865C163.731 57.4952 163.73 57.4947 165.341 52.6139C166.581 49.1717 166.21 47.9617 164.475 48.4055C162.987 48.6609 161.005 47.5986 160.013 45.9582C159.022 44.2506 158.649 42.8663 159.393 42.8126C160.013 42.826 161.128 42.758 161.995 42.7042C162.739 42.758 165.713 41.0509 168.44 39.0071C171.166 36.8961 174.512 35.901 175.999 36.7346C177.487 37.4876 178.23 37.2862 177.735 36.1971C176.743 33.8575 188.889 28.1291 208.718 21.5809C216.401 19.0665 226.068 15.8931 230.158 14.5485C250.854 7.63732 297.825 0.497514 321.868 0.57819C330.419 0.64542 330.418 0.646063 329.179 10.986C328.436 16.6871 327.196 21.2853 326.205 21.1509C325.337 21.0298 324.718 19.8597 324.966 18.6092C325.09 16.7537 324.842 16.7002 323.479 18.2465C322.487 19.3625 313.813 20.9495 304.022 21.6621C285.928 23.0471 248.624 29.8504 236.85 33.9649C233.256 35.2557 229.538 35.5917 228.671 34.8118C227.803 34.0588 226.813 34.1666 226.689 35.0137C226.689 35.8608 223.095 37.7965 219.005 39.2352C208.223 43.027 176.247 56.7825 166.705 61.7037C162.243 64.0433 157.782 65.2128 156.915 64.4464C155.923 63.5858 155.551 63.9361 156.047 65.1866C156.542 66.3564 154.435 68.8034 151.213 70.6186C148.115 72.4473 136.961 80.0977 126.551 87.7888C75.3668 125.101 40.542 174.582 25.918 230.437C11.294 286.735 24.8033 355.134 60.7436 405.839C66.1966 413.718 67.6834 417.389 66.568 420.28C65.5766 422.485 65.7009 424.246 66.9402 424.421C68.0556 424.583 69.1704 423.413 69.4182 421.799C69.6661 419.944 73.7566 423.05 81.0686 430.862C87.2652 437.397 94.7007 445.007 97.6751 447.709C101.517 451.152 102.508 453.599 101.516 456.113C100.401 458.775 101.144 460.147 104.614 461.599C107.217 462.581 110.192 463.011 111.307 462.554C114.777 461.088 134.482 475.946 133.986 479.63C133.615 482.414 133.863 482.521 135.846 480.303C137.209 478.689 138.448 478.554 139.192 479.831C139.812 481.028 141.547 482.293 143.035 482.75C144.522 483.207 153.94 487.685 163.73 492.727C207.23 514.926 262.381 529.165 306.872 529.609C315.795 529.73 326.453 530.173 330.666 530.523C334.756 530.953 339.467 530.94 341.202 530.483C342.813 529.931 358.8 529.568 376.77 529.555C394.74 529.541 426.59 529.434 447.659 529.339C468.727 529.165 509.748 529.017 538.749 528.95C678.42 528.681 678.42 528.667 715.724 519.994C724.771 517.924 732.826 516.902 733.817 517.669C734.809 518.502 736.296 517.844 737.04 516.324C737.907 514.792 739.89 513.756 741.377 513.958C742.864 514.186 743.484 515.141 742.74 515.961C741.996 516.795 742.369 518.341 743.484 519.202C744.848 520.412 745.343 519.618 745.096 516.848C744.6 513.245 747.327 511.591 764.306 504.935C799.502 491.247 830.98 472.302 856.138 449.78C869.523 437.867 875.967 435.285 874.976 442.358C874.728 443.729 876.091 446.849 878.074 449.229C881.544 453.598 881.545 453.599 875.224 459.892C856.634 478.501 811.523 508.754 804.211 507.692C802.104 507.409 800.245 508.243 800.121 509.547C799.501 513.783 762.693 528.345 729.108 537.703C696.638 546.698 652.395 550.745 622.899 547.371C617.57 546.765 613.48 546.874 613.728 547.559C614.472 549.052 615.71 549.011 539.988 549.24C507.641 549.361 443.198 549.589 396.847 549.737C285.928 550.154 279.732 549.804 239.082 541.132V541.051ZM129.401 72.2723C129.773 69.8117 129.278 67.2297 128.41 66.3692C127.295 65.5221 126.304 67.7276 125.808 71.7479C125.188 75.822 125.559 78.2291 126.799 77.6912C127.914 77.1399 129.029 74.7329 129.401 72.2723ZM74.4999 427.393C74.6238 426.384 73.88 425.416 72.7646 425.255C71.7732 425.121 70.7812 425.846 70.6573 426.841C70.5333 427.931 71.277 428.899 72.2684 429.047C73.3838 429.194 74.252 428.469 74.4999 427.393ZM35.8332 176.653C35.9571 175.564 35.3374 174.595 34.222 174.461C33.2305 174.3 32.2385 175.026 32.1146 176.102C31.9907 177.11 32.6104 178.078 33.7258 178.239C34.7172 178.387 35.7092 177.662 35.8332 176.653ZM243.295 511.806C217.641 504.72 207.975 501.627 206.364 499.718C205.248 498.548 203.513 497.89 202.521 498.374C200.662 499.14 169.679 486.111 168.068 484.014C167.82 483.476 168.068 481.97 168.936 480.518C170.919 477.089 183.312 482.669 182.816 486.662C182.444 488.679 183.063 488.988 185.046 487.778C186.905 486.649 191.863 487.818 202.149 491.812C242.303 507.409 284.813 514.495 336.492 514.105C374.291 513.877 379.868 514.388 379.372 518.301C379.124 519.833 378.257 520.99 377.513 520.882C376.769 520.775 361.774 520.802 344.176 520.855C326.578 520.99 310.218 520.829 307.863 520.64C290.017 518.852 247.881 513.097 243.295 511.806ZM381.48 516.889C381.975 513.501 378.009 513.635 523.753 513.285C559.074 513.191 603.07 513.017 621.536 513.003C640.002 512.922 663.052 511.954 672.966 510.851C692.919 508.539 727.125 501.534 734.313 498.334C736.916 497.15 740.635 496.962 742.618 497.876C747.079 500.082 744.847 502.986 740.014 501.251C737.907 500.579 736.668 500.861 737.164 502.031C737.536 503.12 734.189 505.07 729.356 506.428C723.035 508.243 720.557 508.297 719.813 506.441C718.945 504.76 718.45 504.908 718.202 507.006C717.582 510.824 699.364 515.114 670.488 518.193C655.121 519.834 507.271 520.64 505.412 519.053C504.668 518.448 502.437 518.543 500.454 519.202C498.471 519.941 483.971 520.492 468.108 520.438C452.245 520.412 428.574 520.533 415.437 520.613C386.313 520.963 380.984 520.358 381.48 516.889ZM148.239 472.826C116.512 453.088 93.0897 432.126 73.0128 405.516C58.6366 386.477 41.781 353.588 44.2597 349.285C45.1272 347.685 44.6319 346.462 43.1447 346.233C40.1704 345.803 38.4359 338.959 40.6667 336.283C41.5342 335.302 41.0376 334.616 39.7983 334.75C36.824 334.952 31.2469 306.756 30.3794 286.977C29.0161 256.455 37.568 218.51 52.6877 187.652C62.2305 168.276 79.0849 144.154 81.8114 145.754C83.0508 146.466 84.6622 146.373 85.2819 145.526C86.0255 144.692 85.5288 143.522 84.2895 142.863C80.6954 141.021 102.508 118.701 125.312 100.737C171.043 64.9847 227.183 41.683 290.388 32.4187C304.517 30.3615 359.667 28.8151 390.402 29.6219C395.112 29.7563 428.325 29.7564 464.141 29.5816C499.958 29.3396 532.056 30.0118 535.154 30.953C538.5 31.8808 541.475 32.0149 541.971 31.1409C542.714 29.6753 571.715 28.6671 588.693 29.4873C592.907 29.6755 604.929 29.5414 615.587 29.1918C659.831 27.5514 737.535 45.1247 769.634 63.8817C771.493 65.0246 777.565 68.0769 783.018 70.672C809.168 83.3918 857.13 120.798 866.301 135.629C868.408 138.991 870.886 141.855 871.754 141.976C874.852 142.42 894.681 171.275 902.737 187.06C941.527 262.223 932.605 344.727 878.571 411.62C873.489 418.048 868.035 423.063 866.672 422.861C865.185 422.646 864.318 423.695 864.69 425.161C866.177 431.978 823.173 465.741 793.553 480.962C765.793 495.241 750.3 500.794 745.838 498.024C742.74 495.994 744.352 494.904 759.348 489.042C869.771 446.472 933.968 348.613 916.865 248.992C903.356 170.562 839.407 99.3796 749.061 61.9999C710.022 45.932 657.352 35.2155 619.925 35.8475C606.54 36.0492 601.086 35.5111 600.839 33.9649C600.591 32.5262 599.599 32.5397 597.864 34.0995C596.253 35.592 584.479 36.3174 564.774 36.1561C547.919 35.9947 525.487 35.9951 514.953 36.0354C504.419 36.1699 454.847 36.2502 404.779 36.3309C354.71 36.3443 307.12 37.0977 299.065 38.0658C196.449 49.562 101.64 108.522 61.2383 186.051C57.8921 192.398 53.9267 198.408 52.3156 199.43C50.7045 200.371 50.085 201.783 50.9525 202.469C51.6961 203.209 50.5809 208.681 48.1023 215.162C40.7903 234.067 35.5842 275.777 37.815 295.663C45.2509 362.785 80.2004 418.935 139.192 458.95C145.017 462.93 149.23 467.22 149.478 469.546C149.85 472.571 150.594 473.001 152.948 471.603C156.914 469.129 167.2 474.911 166.58 479.388C165.961 483.772 165.837 483.771 148.239 472.826ZM343.184 503.039C343.555 500.337 343.431 474.803 343.059 469.492C342.812 464.665 343.308 464.262 348.265 464.961C353.718 465.754 353.719 465.754 353.471 483.866C353.347 493.829 352.603 502.825 351.736 503.725C350.124 505.769 342.936 505.137 343.184 503.039ZM364.253 489.89C363.633 467.274 364.376 464.477 369.829 464.651C373.671 464.786 375.902 467.004 380.735 475.233C383.957 480.961 386.932 485.546 387.18 485.358C387.428 485.143 387.552 480.679 387.428 475.421C387.304 465.027 388.792 462.406 393.997 464.194C396.599 465.136 397.466 468.456 397.59 479.791C397.962 502.932 397.59 504.666 391.393 503.779C387.303 503.187 384.949 500.807 380.983 493.654C378.133 488.464 375.531 484.215 375.035 484.148C374.663 484.081 374.167 488.733 374.167 494.555C373.919 504.788 373.796 505.016 369.21 504.357C364.997 503.739 364.501 502.663 364.253 489.89ZM246.766 481.284C247.261 478.286 250.854 477.869 276.508 477.963C311.085 477.99 312.326 478.111 311.83 481.714C311.334 484.941 310.714 485.008 277.252 485.291C246.269 485.613 246.146 485.587 246.766 481.284ZM408.868 499.625C407.381 492.888 408 488.357 410.231 490.172C411.223 490.925 412.091 490.831 412.214 489.822C412.338 488.827 411.222 487.334 409.735 486.554C405.645 484.228 407.257 479.361 411.594 481.177C414.321 482.346 415.064 481.996 414.444 479.616C414.073 477.922 412.463 476.82 410.975 477.156C408.001 477.828 407.877 470.742 410.727 469.68C411.595 469.317 411.098 469.169 409.859 469.304C408.496 469.411 407.629 468.363 407.753 466.884C408.373 463.2 427.582 463.764 434.275 467.649C446.296 474.803 444.56 498.253 431.671 502.69C428.697 503.671 422.748 504.613 418.163 504.667C410.603 504.828 409.983 504.505 408.868 499.625ZM425.723 494.998C429.812 493.775 431.052 492.135 431.795 486.689C433.034 478.447 430.681 474.91 423.493 473.875C418.164 473.109 418.039 473.243 418.163 481.27C418.287 490.871 418.907 496.196 419.898 496.343C420.27 496.397 422.996 495.765 425.723 494.998ZM451.748 503.376C450.509 500.377 451.501 466.359 452.74 465.283C458.07 461.424 477.898 465.606 480.377 471.159C481.988 474.763 480.252 484.793 477.773 486.716C476.286 487.751 476.906 490.669 479.509 495.442C483.351 502.596 483.352 502.596 479.014 503.833C475.42 504.828 473.932 503.914 470.214 498.266C464.389 489.567 462.034 489.312 460.919 497.312C460.299 501.386 458.813 503.927 456.954 504.357C452.864 505.272 452.492 505.218 451.748 503.376ZM470.462 477.801C470.834 475.341 469.595 473.592 466.869 472.799C463.523 471.844 462.531 472.503 462.035 476.578C461.416 480.652 462.034 481.539 465.628 481.499C468.479 481.513 470.09 480.262 470.462 477.801ZM491.035 484.39C490.911 471.402 491.531 465.136 492.894 464.477C497.975 462.285 516.069 463.885 517.309 466.642C519.291 471.173 517.185 473.001 509.749 472.948C505.783 472.84 502.561 473.485 502.437 474.252C502.437 475.032 502.189 476.564 502.065 477.653C501.941 478.716 504.915 479.791 508.88 480.047C514.953 480.45 515.945 481.055 515.449 484.296C515.077 487.146 513.466 487.926 508.756 487.725C504.047 487.496 502.437 488.303 502.065 491.301C501.569 494.77 502.313 495.12 509.873 495.093C517.185 495.079 518.176 495.523 518.672 499.046C519.291 504.155 518.424 504.438 503.676 503.806L491.159 503.254L491.035 484.39ZM524.496 502.018C523.009 498.737 526.603 494.783 530.817 494.743C535.526 494.797 536.519 491.1 536.519 473.27C536.519 463.065 536.518 463.065 541.723 464.436C546.804 465.808 546.804 466.117 546.184 482.75C545.564 499.154 545.317 499.839 540.732 502.622C535.775 505.581 525.859 505.191 524.496 502.018ZM149.726 442.237C144.893 439.346 137.829 427.823 137.457 422.418C137.209 420.119 137.085 399.828 137.085 377.374C137.085 347.524 137.705 335.987 139.44 334.346C141.299 332.814 141.299 331.872 139.316 330.81C137.953 330.057 136.961 325.365 136.961 320.175C136.961 315.079 136.59 279.851 136.218 241.852C135.846 203.868 136.217 167.16 137.085 160.222C138.572 148.726 139.192 147.26 144.892 142.742C148.362 140.026 153.94 137.377 157.41 136.826C167.572 135.172 256.555 135.266 259.529 136.96C261.017 137.807 262.877 137.834 263.62 136.92C265.727 134.406 322.364 134.863 322.736 137.35C323.232 140.349 326.577 140.497 326.949 137.579C327.197 135.885 343.803 135.199 385.197 135.212C417.047 135.253 466.001 135.145 494.009 135.092C521.894 135.051 562.42 134.998 584.108 134.984C625.625 134.998 689.698 134.903 754.39 134.648C775.831 134.594 796.032 134.903 799.254 135.374C806.814 136.45 815.613 143.684 818.092 150.877C819.083 154.024 820.198 179.853 820.446 208.318C820.693 236.783 821.066 279.971 821.314 304.268C822.553 428.36 822.801 423.359 816.977 432.031C811.524 440.126 804.087 443.743 793.305 443.609C786.365 443.461 764.182 443.595 714.733 444.066C696.887 444.173 627.731 444.563 566.385 444.751C552.009 444.805 532.057 444.899 522.018 444.953C495.125 445.222 439.852 445.276 431.052 445.02C426.963 444.899 411.842 444.926 397.466 445.155C383.214 445.289 360.039 445.477 345.787 445.45C331.535 445.45 311.334 445.504 300.676 445.545C167.573 446.392 155.923 446.137 149.726 442.237ZM143.157 190.152C143.281 189.144 142.539 188.176 141.547 188.028C140.432 187.881 139.564 188.607 139.316 189.602C139.192 190.691 139.936 191.659 140.927 191.807C142.043 191.955 142.909 191.228 143.157 190.152ZM210.701 437.383C233.257 437.423 253.706 438.149 256.061 439.104C258.291 440.072 260.274 440.046 260.398 439.118C260.77 436.98 286.547 436.132 291.257 438.163C293.116 438.969 294.974 439.077 295.47 438.351C295.842 437.706 327.197 437.047 365.12 436.953C403.043 436.913 451.004 436.765 471.577 436.644C492.15 436.63 532.676 436.428 561.676 436.361C590.676 436.227 628.104 436.052 644.959 435.904C661.938 435.743 693.415 435.568 714.979 435.474C805.698 434.963 801.856 435.178 807.186 430.525C809.912 428.199 812.514 423.749 812.886 420.683C813.753 414.753 813.629 371.874 812.514 277.094C812.142 243.882 811.895 204.19 811.895 188.875C811.895 155.583 811.027 150.81 803.591 146.359C797.642 142.823 795.536 142.689 751.788 143.133C740.882 143.227 731.587 142.742 731.091 142.043C730.595 141.344 728.984 141.344 727.745 142.11C723.655 144.719 701.596 143.199 701.967 140.362C702.215 138.587 701.595 138.722 699.612 140.645C697.753 142.501 690.565 143.334 676.685 143.307C665.655 143.281 623.89 143.388 583.736 143.495C496.364 143.684 495.248 143.684 386.436 143.697C338.97 143.697 285.555 143.845 267.585 143.939C249.615 144.087 217.641 144.208 196.573 144.302C145.513 144.477 144.15 145.311 144.398 175.174C144.398 184.062 144.522 199.941 144.646 210.483C145.018 246.894 145.761 369.736 145.885 397.475C145.885 425.671 147.124 430.727 154.683 435.325C156.666 436.482 160.88 437.409 163.978 437.396C167.077 437.369 188.145 437.343 210.701 437.383ZM586.958 189.413C586.71 187.584 586.462 182.448 586.338 178.038C586.338 171.812 585.471 169.741 582.497 168.827C580.39 168.222 578.408 166.676 578.284 165.398C577.788 163.126 583.488 162.387 596.005 163.019C602.573 163.409 604.557 168.33 598.36 169.016C594.519 169.486 594.147 170.347 593.899 180.364C593.651 189.292 593.031 191.471 590.429 192.049C588.57 192.479 587.206 191.43 586.958 189.413ZM665.283 177.635C661.317 165.896 661.07 163.436 663.549 162.844C668.258 161.782 668.258 161.782 671.357 172.929L674.207 183.403L677.057 173.587C679.536 164.847 683.873 160.289 686.352 163.624C686.848 164.256 685.236 170.858 682.757 178.186C678.916 189.655 677.677 191.672 674.207 191.645C670.861 191.618 669.248 189.117 665.283 177.635ZM690.937 184.465C690.813 179.907 690.813 173.439 690.689 169.97C690.441 160.128 696.39 160.115 702.462 169.957L707.296 177.796L707.668 170.065C707.916 164.135 708.659 162.508 710.89 162.844C714.98 163.423 715.228 164.552 714.609 179.181C714.237 191.282 713.988 192.022 710.27 191.497C708.163 191.188 704.693 187.867 702.462 184.088L698.373 177.298L697.877 184.842C697.505 190.677 696.638 192.519 694.16 192.546C691.805 192.694 690.937 190.758 690.937 184.465ZM798.633 197.185C798.262 196.27 797.766 192.895 797.519 189.695C796.279 175.698 783.638 162.185 767.899 157.856C761.082 156.013 758.356 154.467 758.728 152.451C759.347 147.691 776.698 151.429 786.612 158.542C797.271 166.098 805.699 181.467 804.584 191.121C803.84 197.292 800.245 201.084 798.633 197.185ZM380.487 179.759C379.991 163.597 380.116 163.059 384.454 163.677C387.304 164.094 388.048 165.466 387.552 168.989C386.932 172.928 387.551 173.883 391.145 173.829C394.491 173.843 395.856 172.471 396.971 167.778C398.086 163.126 399.202 161.889 401.432 162.683C403.787 163.489 404.531 166.824 404.407 175.752C404.407 182.327 403.663 188.902 402.92 190.381C400.441 194.657 397.466 192.734 397.218 186.563C396.846 182.058 395.856 180.633 392.262 180.122C388.172 179.544 387.552 180.149 387.304 185.621C387.18 190.139 386.312 191.833 383.958 191.887C381.479 191.995 380.735 189.453 380.363 179.745L380.487 179.759ZM408.868 191.094C408.496 190.462 410.231 183.82 412.833 176.344C417.047 164.538 418.287 162.831 421.633 163.315C424.608 163.731 426.838 167.12 430.06 175.846C435.389 189.87 435.389 192.075 430.308 191.336C428.201 191.04 426.714 189.951 426.838 188.943C427.333 185.501 418.659 185.742 415.685 189.238C412.835 192.6 410.479 193.272 408.868 191.094ZM422.748 177.675C422.996 176.061 422.252 175.174 421.013 175.631C419.898 176.115 418.907 177.299 418.783 178.294C418.659 179.302 419.403 180.189 420.394 180.337C421.386 180.498 422.501 179.302 422.748 177.675ZM558.083 191.134C556.471 187.477 556.596 164.875 558.207 163.759C559.074 163.18 563.535 162.561 567.996 162.588C575.308 162.548 576.176 162.898 575.68 166.286C575.308 169.056 573.946 169.89 570.476 169.379C564.155 168.491 563.535 173.722 569.607 175.389C575.432 177.003 575.308 180.284 569.359 180.848C566.013 181.144 564.651 182.529 564.155 186.603C563.412 191.766 559.57 194.603 558.083 191.134ZM606.168 187.639C605.92 185.165 606.167 178.468 606.787 172.74C607.531 164.605 608.399 162.44 610.63 162.763C612.365 163.005 613.48 165.292 613.356 168.411C613.232 171.315 613.851 173.749 614.843 173.883C619.552 174.569 622.774 172.202 623.394 167.281C623.889 163.812 625.129 161.956 626.988 162.212C630.83 162.763 631.078 164.122 630.458 179.517C629.839 191.592 629.342 193.259 626.616 192.869C624.633 192.586 623.395 190.207 623.147 186.482C622.775 178.173 615.215 177.957 613.852 186.159C612.737 193.218 606.788 194.335 606.168 187.639ZM634.548 188.673C635.291 186.979 637.647 180.485 639.753 174.273C645.33 158.111 649.421 158.219 655.865 174.865C661.442 189.481 661.565 192.089 656.36 191.336C654.253 191.04 652.642 189.951 652.889 188.943C653.385 185.258 643.472 185.554 641.861 189.252C640.993 191.323 638.762 192.64 636.779 192.344C634.053 191.968 633.432 190.959 634.548 188.673ZM648.924 176.371C649.42 172.982 649.048 172.7 647.313 174.703C644.339 177.984 644.091 180.001 646.446 180.337C647.438 180.485 648.552 178.764 648.924 176.371ZM177.487 369.292C175.751 365.111 180.214 364.426 207.975 364.331C223.218 364.264 262.133 364.129 294.231 364.062C374.539 363.847 370.945 363.632 370.449 367.182C369.954 370.328 366.856 370.826 346.035 370.745C338.599 370.678 306.252 370.745 274.154 370.812C242.056 370.893 209.214 370.96 201.282 370.92C193.35 370.96 185.047 371.081 182.692 371.215C180.338 371.43 178.106 370.556 177.487 369.292ZM580.265 386.449C580.513 384.755 584.232 383.639 590.801 383.33C607.78 382.483 746.211 382.483 751.788 383.29C756.622 383.976 758.233 386.732 754.887 388.211C752.904 389.112 672.967 389.421 670.736 388.641C669.869 388.278 667.886 388.386 666.151 388.776C660.202 390.269 595.633 389.596 592.783 388.01C591.172 387.068 589.808 387.256 589.56 388.399C589.436 389.569 587.207 390.201 584.604 389.811C581.878 389.421 580.018 388.063 580.265 386.449ZM588.818 366.792C589.065 365.098 591.296 363.686 593.651 363.565C607.779 362.852 695.151 363.202 702.092 363.955C712.626 365.071 714.112 369.373 703.949 369.494C699.983 369.467 676.933 369.67 652.643 369.858C587.331 370.342 588.322 370.328 588.818 366.792ZM715.6 366.684C712.006 363.74 723.159 362.583 754.266 362.583C770.625 362.597 780.663 363.417 781.655 364.667C784.505 368.62 779.176 369.414 750.424 369.427C717.83 369.44 718.698 369.495 715.6 366.684ZM174.512 424.461C165.837 418.895 157.534 409.361 158.03 405.744C158.154 404.44 157.41 403.002 156.543 402.464C153.816 401.133 151.214 386.087 153.444 384.433C156.543 382.04 160.879 385.831 160.26 390.43C159.392 396.521 165.713 408.743 173.149 414.915C176.619 417.765 183.931 421.248 189.756 422.74C197.316 424.69 200.043 426.169 199.795 428.267C199.051 432.798 183.807 430.499 174.512 424.461ZM528.957 187.799C527.966 186.428 527.099 180.499 526.852 174.65C526.48 164.538 527.966 161.526 532.428 162.024C534.039 162.239 534.907 169.675 534.039 175.887C533.172 182.22 537.138 187.033 541.104 184.545C543.459 183.214 543.954 180.647 543.706 173.91C543.21 164.525 544.326 161.849 548.292 162.414C552.753 163.059 551.514 187.06 546.928 190.556C543.458 193.057 530.94 191.174 528.957 187.799ZM203.513 388.44C203.018 387.176 203.141 385.791 203.884 385.267C205.371 384.137 262.257 383.465 266.47 384.46C267.958 384.837 270.56 384.836 272.171 384.366C273.782 383.962 279.854 383.828 285.679 384.097C291.38 384.379 304.269 384.433 314.308 384.151C327.321 383.828 332.65 384.352 332.898 385.872C333.393 389.031 336.615 389.085 337.111 386.019C337.607 382.631 375.034 383.007 377.513 386.342C378.628 387.848 378.504 388.83 377.141 389.435C375.901 389.973 348.513 390.39 316.043 390.524C283.449 390.538 245.773 390.672 232.141 390.833C203.265 391.062 204.753 391.196 203.513 388.44ZM601.583 347.04C602.698 344.189 605.672 343.611 619.056 343.746C627.979 343.759 646.941 343.826 661.193 343.759C675.446 343.692 688.335 343.745 689.946 343.907C691.434 344.054 706.057 343.934 722.292 343.638C745.468 343.181 752.407 343.651 754.266 345.722C756.125 347.712 757.117 347.78 758.604 345.87C762.074 341.742 801.236 342.038 800.617 346.193C800.493 347.121 799.625 348.237 798.633 348.748C795.411 350.146 755.753 349.702 752.159 348.236C750.3 347.43 749.061 347.497 749.433 348.25C749.805 349.003 718.821 349.729 680.774 349.877C642.603 350.038 608.895 350.2 605.92 350.334C601.335 350.536 600.591 349.958 601.583 347.04ZM281.093 292.584C283.324 283.71 283.325 283.629 276.013 277.713C268.577 271.689 268.577 271.689 274.278 271.326C285.556 270.533 288.282 269.04 290.636 262.371C293.363 254.155 295.223 254.424 298.94 263.5C301.915 270.586 302.286 270.802 310.589 270.761C320.752 270.654 321.124 272.455 312.449 278.654C306.376 283.024 306.252 283.252 307.863 291.091C308.731 295.461 309.103 299.347 308.608 299.683C308.112 300.006 305.013 298.473 301.543 296.16C295.47 292.059 295.347 292.046 287.168 296.846L278.988 301.606L281.093 292.584ZM653.386 291.602C654.501 283.979 654.005 282.58 648.676 277.942C645.454 275.051 642.852 272.24 642.852 271.702C642.976 271.097 646.694 270.357 651.156 269.981C657.104 269.591 659.83 268.34 660.697 265.786C661.317 263.755 663.052 260.085 664.416 257.678C666.894 253.255 666.894 253.255 670.24 261.282C673.586 269.054 674.082 269.363 682.509 270.116C691.308 270.828 691.309 270.828 686.476 275.937C683.749 278.761 680.774 281.477 679.659 281.948C678.544 282.419 678.544 286.117 679.659 290.688C682.014 300.517 681.022 301.31 673.214 296.093C667.018 291.992 666.894 291.965 659.582 296.026C652.146 300.113 652.146 300.113 653.386 291.589V291.602ZM150.965 197.723C149.23 195.518 150.966 186.415 154.932 176.935C159.269 166.327 176.372 152.84 187.774 151.119C203.265 148.807 201.778 155.583 185.791 160.41C170.919 164.942 161.871 174.878 159.145 189.642C157.658 198.53 154.187 201.945 150.965 197.723ZM241.808 191.43C241.188 190.005 240.073 168.478 240.445 165.789C240.569 165.023 242.056 164.121 243.667 163.732C245.774 163.247 247.137 164.781 247.881 168.344C249.12 173.628 249.119 173.628 253.581 168.142C256.06 165.117 259.405 162.857 261.017 163.086C264.487 163.597 264.363 164.606 259.653 170.589C255.812 175.362 255.811 175.618 260.893 183.578C266.222 191.565 266.222 191.645 261.761 191.632C258.663 191.645 256.184 189.803 253.705 185.689C250.235 179.826 248.995 180.445 248.623 188.391C248.376 191.511 242.923 194.025 241.808 191.43ZM267.089 188.539C266.098 171.826 266.346 170.454 270.436 166.569C273.41 163.785 277.004 162.965 283.325 163.382C291.876 164.095 291.876 164.095 292.124 171.114C292.495 187.894 288.283 193.891 277.625 192.344C274.526 191.901 270.932 192.331 269.693 193.231C268.082 194.482 267.214 193.124 266.967 188.526L267.089 188.539ZM283.821 180.592C285.184 175.2 285.184 175.201 281.714 179.503C277.376 184.855 276.88 187.06 280.103 186.495C281.466 186.226 283.201 183.631 283.821 180.592ZM281.838 171.342C281.838 170.575 280.723 169.782 279.112 169.553C275.642 169.042 273.039 173.305 274.03 177.93C274.898 180.955 275.269 180.862 278.243 177.11C279.978 174.69 281.59 172.108 281.838 171.342ZM298.32 177.823C298.196 170.266 298.321 163.906 298.692 163.718C299.064 163.543 302.41 163.408 306.252 163.328C315.423 163.247 321.372 168.41 318.893 174.569C317.778 176.935 317.902 178.992 319.017 179.154C320.133 179.302 320.628 181.493 320.256 183.954C319.389 189.736 312.325 193.487 304.517 192.371C298.692 191.524 298.568 191.43 298.32 177.823ZM312.697 183.026C312.945 181.413 311.457 179.934 309.35 179.638C307.243 179.329 305.509 180.337 305.261 181.951C305.013 183.483 306.501 184.949 308.483 185.245C310.714 185.554 312.449 184.559 312.697 183.026ZM312.325 172.23C312.449 171.302 310.962 170.293 308.856 169.983C305.138 169.459 303.65 171.275 305.633 173.843C306.873 175.591 312.077 174.3 312.325 172.23ZM325.462 177.957C325.71 162.83 325.958 162.481 337.979 163.892C346.407 164.78 347.522 168.895 339.591 169.325C332.402 169.769 331.535 172.78 338.227 174.596C344.424 176.196 345.415 180.512 339.715 180.552C332.898 180.512 332.278 184.909 338.97 185.877C345.787 186.858 346.283 191.551 339.591 192.399C326.702 193.918 325.462 192.654 325.462 177.957ZM349.876 178.71C349.381 160.424 353.47 157.815 362.145 171.086L367.103 178.603L366.979 170.67C366.855 163.503 367.227 162.763 370.325 163.852C372.928 164.767 373.672 167.806 373.92 177.944C374.044 185.124 373.671 191.282 373.052 191.74C369.953 194.093 364.873 190.623 361.403 183.833L357.312 176.034L357.436 184.21C357.312 191.363 356.94 192.237 353.842 191.78C350.867 191.349 350.124 189.05 349.876 178.71ZM438.24 177.809C434.894 167.348 434.398 164.215 436.629 163.288C440.842 161.378 441.214 161.728 444.561 171.893L447.783 181.373L450.757 171.759C453.36 164.121 454.724 162.266 457.574 162.683C461.664 163.274 461.663 163.758 458.069 172.35C456.705 175.819 454.474 181.79 453.235 185.541C451.5 191.094 450.137 192.317 446.79 191.833C443.568 191.349 441.71 188.364 438.364 177.823L438.24 177.809ZM464.265 188.082C463.398 182.515 463.646 163.57 464.762 162.777C467.612 160.599 472.198 163.678 476.04 170.697L480.377 178.454L480.872 170.912C481.12 165.049 481.988 163.315 484.466 163.18C486.821 163.059 487.689 164.995 487.689 171.274C487.813 175.833 487.813 182.368 487.937 185.756C488.185 194.415 482.112 193.407 475.916 183.699L471.206 176.505L471.082 183.941C470.958 190.072 470.462 191.389 467.86 191.026C466.125 190.771 464.637 189.453 464.265 188.082ZM504.791 189.265C504.296 188.337 504.295 181.817 504.543 174.717C504.915 163.544 505.411 161.956 508.138 162.346C511.608 162.857 511.979 164.31 511.855 176.398C511.731 184.869 511.98 185.137 517.681 185.177C522.514 185.151 523.382 185.675 522.39 188.593C521.399 191.134 519.168 191.833 513.343 191.443C509.006 191.134 505.039 190.126 504.791 189.265ZM159.269 349.393C157.286 344.781 160.26 344.592 231.893 344.781C237.718 344.754 266.098 344.687 295.098 344.472C324.222 344.324 349.629 344.243 351.612 344.297C353.842 344.284 355.577 345.642 355.577 347.376C355.825 350.536 355.33 350.563 276.013 350.993C261.513 351.006 252.713 350.375 252.094 349.097C251.598 347.86 250.854 347.82 250.235 348.99C249.119 351.02 185.17 352.419 183.683 350.388C183.187 349.702 181.824 349.796 180.461 350.482C176.743 352.606 160.384 351.813 159.269 349.393ZM399.449 374.268C399.449 369.643 400.441 365.864 401.556 365.69C402.424 365.448 404.655 364.264 406.39 363.013C408.001 361.763 412.215 361.024 415.685 361.387C420.89 361.898 421.137 361.763 417.419 360.526C407.008 356.976 406.389 348.815 415.807 339.497C419.03 336.337 420.765 333.675 419.526 333.513C415.064 332.868 418.658 327.248 425.35 324.518C431.299 322.084 432.662 320.404 434.645 312.995C436.009 308.235 439.232 298.244 441.834 290.714C444.561 283.144 447.163 273.397 447.783 269.161C448.403 264.872 450.013 259.224 451.5 256.683C453.111 253.832 453.36 252.38 452.12 252.918C451.129 253.322 449.146 256.643 447.907 260.166C446.668 263.769 444.437 266.956 442.949 267.306C438.984 268.233 435.389 260.959 438.116 257.49C439.107 255.931 439.851 252.878 439.727 250.726C439.355 248.091 441.462 244.851 446.048 240.898C452.616 235.251 452.864 234.726 450.633 230.329C444.313 217.623 455.466 202.913 470.338 204.486C474.552 204.97 478.889 205.333 479.881 205.4C482.607 205.468 489.919 228.85 489.052 234.699C488.68 238.397 486.821 240.185 482.979 241.49C474.304 244.179 474.428 248.522 483.227 260.784C491.655 272.267 492.275 274.795 488.557 279.85C485.335 284.328 481.492 298.997 482.855 301.875C483.847 303.905 486.946 304.269 497.604 303.61C518.672 302.252 533.42 308.288 536.27 319.462C537.634 324.679 537.138 326.199 532.924 331.321C524.249 341.608 506.403 348.385 486.326 349.03C469.843 349.635 469.347 349.796 463.026 357.756C456.086 366.348 448.898 370.247 440.842 369.642C437.744 369.44 435.141 370.005 435.018 370.853C434.77 372.923 446.295 372.063 451.872 369.576C454.351 368.527 459.556 364.237 463.274 360.069C469.471 353.359 471.453 352.445 481.368 351.92C498.594 350.858 510.369 348.639 516.194 345.238C523.01 341.271 526.604 343.141 534.783 354.919C538.501 360.163 543.335 365.259 545.814 366.147C548.788 367.451 550.027 369.683 550.027 373.999C550.151 377.387 549.903 380.251 549.779 380.385C549.283 380.87 477.651 381.852 460.3 381.623C445.057 381.475 412.71 381.77 404.407 382.214C399.821 382.496 399.449 381.879 399.449 374.268ZM440.347 359.921C441.091 355.457 440.718 353.762 439.479 355.147C437.744 357.245 437.125 366.658 438.736 366.886C439.108 366.953 439.852 363.847 440.347 359.921ZM437.868 341.715C434.15 337.023 429.936 333.043 428.697 332.854C427.334 332.68 429.069 335.113 432.539 338.287C436.01 341.379 439.48 345.883 440.347 348.209C441.215 350.441 442.454 351.907 443.322 351.288C444.065 350.697 441.71 346.435 437.868 341.715ZM478.766 339.913C483.351 339.416 490.415 336.969 494.257 334.374L501.321 329.735L493.142 333.298C476.536 340.545 461.54 339.497 454.476 330.69C451.377 326.696 451.377 324.894 454.476 307.294C456.459 296.806 458.812 286.627 459.804 284.651C460.919 282.459 460.424 282.768 458.193 285.457C456.458 287.783 452.12 296.188 448.898 304.201C445.552 312.121 441.957 320.471 440.966 322.676C439.355 326.064 439.728 326.844 443.57 327.382C445.924 327.799 451.004 330.649 454.846 333.796C462.406 340.156 466.373 341.19 478.766 339.913ZM462.654 245.806C462.778 244.797 461.044 245.16 458.689 246.639C456.334 248.118 454.476 249.57 454.352 249.934C454.352 250.256 456.086 249.799 458.317 249.019C460.548 248.239 462.53 246.733 462.654 245.806ZM760.711 424.771C760.959 422.458 762.445 421.261 764.552 421.557C770.253 422.377 784.259 414.74 790.579 407.425C795.289 402.114 797.023 398.121 798.139 390.524C799.378 381.811 799.997 380.655 803.343 381.139C806.565 381.609 806.938 382.9 805.698 391.062C803.344 407.909 789.339 423.332 772.36 427.729C763.313 430.028 759.967 429.235 760.711 424.771ZM555.108 499.691C554.241 495.133 557.338 492.767 561.924 494.69C564.278 495.564 567.5 496.034 569.235 495.671C574.936 494.354 573.077 490.562 564.898 487.026C556.099 483.234 552.753 477.586 555.603 470.756C559.445 461.505 581.506 460.187 581.506 469.223C581.506 472.84 580.39 473.391 574.317 473.001C564.278 472.409 563.907 476.027 573.45 479.926C592.164 487.644 584.604 506.67 564.155 503.711C558.578 502.905 555.604 501.614 555.108 499.691ZM593.403 501.655C592.659 498.186 592.411 464.839 593.031 464.288C594.394 463.078 617.445 463.576 618.932 464.732C622.278 467.569 619.677 473.405 615.339 472.84C607.531 471.724 602.573 473.122 603.317 476.134C603.688 478.165 606.044 479.213 610.754 479.496C616.579 479.778 617.693 480.477 617.569 483.852C617.569 487.24 616.33 488.007 610.009 488.034C603.813 488.155 602.574 488.841 602.946 491.866C603.194 495.053 604.184 495.443 611.124 494.865C619.924 494.165 619.677 494.138 619.925 499.194C620.049 501.964 618.684 503.026 614.223 503.402C601.458 504.639 593.775 503.994 593.403 501.655ZM647.437 479.442C648.057 474.736 653.138 475.005 653.634 479.791C654.005 482.991 654.129 483.005 654.749 479.953C655.492 476.376 657.971 476.027 679.535 476.215C714.36 476.605 713.369 476.537 712.129 480.141C711.262 482.897 707.172 483.489 687.095 483.435C673.958 483.354 659.458 483.382 654.997 483.355C647.685 483.328 646.941 482.978 647.437 479.442ZM84.0429 368.07C76.1112 353.185 66.3207 322.716 67.0643 315.2C67.4361 311.556 66.9395 307.953 66.1959 307.213C60.495 301.606 63.5935 248.185 71.0294 223.821C77.4739 202.994 85.9011 185.755 89.4952 186.266C92.7174 186.737 91.8505 190.691 83.9188 208.48C64.7094 252.273 65.4519 309.391 85.9006 355.538C90.2383 365.192 93.5844 373.837 93.5844 374.684C92.8408 379.619 88.6284 376.742 84.0429 368.07ZM881.545 444.483C881.173 442.546 879.437 438.754 877.578 436.132C874.976 432.381 874.853 430.956 876.959 429.047C880.553 425.887 882.536 426.317 883.156 430.512C883.528 432.341 883.899 430.916 884.023 427.245C884.271 423.588 885.386 419.433 886.997 418.088C893.318 412.172 913.643 378.181 920.46 362.059C930.374 338.972 937.809 298.285 936.818 274.123C936.446 265.262 936.694 257.369 937.314 256.522C938.058 255.742 937.685 254.922 936.57 254.761C935.454 254.599 934.711 253.617 934.835 252.542C935.578 247.54 927.399 218.254 920.954 202.792C916.988 193.353 914.386 184.573 915.13 183.241C915.749 182.004 914.386 179.611 912.156 177.957C909.925 176.303 904.224 169.11 899.638 162.024C891.583 149.479 879.562 134.379 864.194 117.652L856.882 109.679L867.292 109.773C873.117 109.827 878.818 109.303 880.058 108.536C883.032 106.842 905.216 132.255 916.989 151.012C956.523 213.804 967.306 284.624 946.981 348.384C939.793 371.188 928.515 395.19 924.797 396.051C923.186 396.373 922.318 397.892 922.69 399.425C923.433 402.692 920.707 402.84 918.352 399.68C916.245 396.857 901.869 398.646 902.365 401.617C902.612 402.827 906.206 404.373 910.172 405.019C919.219 406.484 919.84 411.674 910.917 412.037C905.587 412.279 905.463 412.347 909.305 414.095C913.519 415.87 913.52 415.869 908.19 423.345C899.639 435.527 887.122 448.798 884.519 448.422C883.156 448.234 881.793 446.472 881.421 444.469L881.545 444.483ZM114.157 311.542C111.431 306.984 114.529 302.884 119.982 303.677C122.708 304.067 125.188 305.747 125.56 307.374C126.303 310.776 121.965 315.495 118.371 314.984C117.131 314.796 115.149 313.183 114.157 311.542ZM114.033 290.554C112.918 285.363 116.141 281.746 120.602 283.104C123.7 283.938 124.568 285.565 124.073 288.953C123.329 294.48 115.273 295.757 114.033 290.554ZM114.282 271.339C110.068 264.549 119.487 258.364 124.321 264.791C126.428 267.615 126.428 269.107 124.445 271.326C121.099 275.333 116.636 275.306 114.282 271.339ZM866.301 369.709C866.549 368.015 869.647 360.458 872.993 353.009C882.164 332.908 889.476 282.661 886.254 260.153C883.652 241.328 876.96 218.524 869.4 201.864C863.079 188.405 862.583 184.694 867.044 185.339C872.373 186.105 886.254 222.141 890.964 247.244C894.806 267.332 895.301 293.095 891.955 294.802C889.848 295.851 889.847 296.389 891.582 297.424C898.523 301.485 876.463 374.469 868.655 373.34C867.044 373.125 866.053 371.484 866.301 369.709ZM114.406 251.91C112.423 249.113 114.654 241.489 117.752 240.831C122.585 239.715 126.799 246.465 123.701 250.176C120.85 253.389 116.265 254.276 114.406 251.91ZM834.45 311.972C831.476 307.132 834.203 302.265 839.532 303.031C843.002 303.529 844.241 304.886 844.241 308.261C844.117 315.092 837.796 317.485 834.45 311.972ZM833.707 290.809C829.494 283.992 838.912 277.82 843.745 284.234C845.728 286.977 845.852 288.483 843.869 290.796C840.523 294.682 836.062 294.775 833.707 290.809ZM833.583 269.739C832.344 264.616 835.566 260.918 840.028 262.276C843.126 263.177 843.993 264.738 843.497 268.207C842.753 273.733 834.699 274.929 833.583 269.739ZM834.698 250.982C830.856 247.123 832.964 240.898 838.293 240.965C844.117 240.938 846.595 248.064 842.01 251.56C837.92 254.599 838.416 254.586 834.698 250.982ZM257.672 120.584C256.556 118.083 249.244 65.2801 249.616 62.6581C249.988 60.1168 275.89 56.0837 283.945 57.24C303.774 60.0905 314.555 88.1114 303.03 106.559C297.329 115.716 289.15 119.629 272.543 121.471C258.415 123.058 258.663 123.017 257.672 120.584ZM280.847 105.712C288.902 103.601 291.999 97.6583 290.388 86.8344C288.901 76.8709 285.555 72.7967 278.367 71.7479C271.055 70.7663 266.966 72.3664 267.585 76.0909C267.957 77.6237 269.073 85.2478 270.065 93.1002C271.18 100.872 272.543 107.259 273.039 107.326C273.535 107.393 277.005 106.734 280.847 105.712ZM268.824 62.6721C268.948 61.6636 268.205 60.6952 267.089 60.5473C266.098 60.3994 265.231 61.1252 264.983 62.1337C264.859 63.2094 265.603 64.1778 266.594 64.3257C267.71 64.4736 268.576 63.7477 268.824 62.6721ZM323.975 105.658C322.86 95.9233 320.256 62.8597 320.008 56.3923C319.884 50.5433 319.142 50.772 344.052 48.9299C361.031 47.7063 361.031 47.7068 361.403 52.3053C362.27 59.8754 359.914 61.7444 347.893 62.9142C337.607 63.9495 336.616 64.5005 336.616 68.736C336.492 74.8674 335.748 74.5044 348.389 73.738C357.808 73.1464 359.667 73.4958 360.906 76.0236C364.005 82.8272 360.534 86.2831 349.876 87.0764C344.175 87.5202 339.218 88.1519 338.846 88.3805C337.111 89.7789 338.971 99.7156 340.83 99.2988C345.539 98.25 365.615 97.4427 366.359 98.236C366.607 98.7604 367.103 101.799 367.227 105.053C367.599 110.996 367.598 110.996 349.752 112.448C325.586 114.519 325.09 114.358 323.975 105.658ZM381.107 106.425C381.231 104.475 381.231 101.584 381.107 99.984C380.488 95.0225 377.885 50.7584 378.133 48.4457C378.381 47.2893 381.851 46.1467 386.189 46.0526C393.749 45.9047 394.244 46.2677 400.564 56.137C404.158 61.6767 409.364 69.5829 412.09 73.6839L417.048 81.0658L416.552 68.5743C415.684 48.9971 416.799 45.2862 423.615 44.5466C426.837 44.1298 429.688 44.2507 430.06 44.7617C430.927 45.918 433.406 85.3682 433.282 97.5368C433.158 106.236 432.911 106.976 428.697 107.473C418.906 108.657 416.676 106.842 405.77 89.1741C399.821 79.5065 394.74 71.7212 394.616 71.9498C394.368 72.0439 394.616 79.9502 395.112 89.5237C395.608 99.0972 395.359 107.46 394.616 108.038C393.748 108.737 390.402 109.41 386.932 109.625C381.727 109.894 380.86 109.383 381.107 106.425ZM450.385 99.9167C450.137 86.6187 450.509 64.7692 451.005 61.2195C451.377 59.1488 451.501 54.2278 451.377 50.3554C451.253 43.3366 451.253 43.3363 460.176 43.2959C465.133 43.2287 469.347 43.592 469.595 44.0222C469.719 44.4391 472.94 52.7491 476.41 62.457C480.004 72.2322 483.228 80.2324 483.599 80.2862C483.971 80.34 486.82 72.5139 490.167 62.8731C496.735 43.7799 498.967 41.5212 509.501 44.1297C515.326 45.5147 515.326 45.5147 516.194 69.583C516.689 82.8541 517.061 96.4208 517.184 99.8092C517.432 105.658 517.061 106.076 510.245 106.896C501.198 108.025 500.95 107.594 500.826 88.8105C500.702 80.864 500.454 73.9929 500.206 73.6568C499.958 73.2937 497.356 79.5197 494.381 87.5738C490.416 98.2364 487.937 102.418 484.962 103.561C479.386 105.524 477.03 102.754 471.701 87.843C469.346 81.2948 466.993 76.2524 466.621 76.5751C466.001 76.9785 465.504 83.5806 465.628 91.2044C465.504 98.8955 465.009 105.793 464.389 106.572C463.77 107.339 460.3 107.554 456.706 107.043C451.129 106.223 450.385 105.497 450.385 99.9167ZM528.091 106.102C527.347 104.569 549.655 47.9488 551.514 46.5639C551.762 46.2949 555.975 46.1198 560.685 46.1601C569.236 46.2139 569.235 46.2137 578.654 76.5612C583.859 93.2476 587.949 107.743 587.825 108.751C587.701 109.746 585.472 110.297 582.993 109.934C580.514 109.571 577.044 109.544 575.309 110.001C573.079 110.458 571.715 108.603 570.228 103.211C568.369 95.8022 568.368 95.8028 558.577 95.5877C548.415 95.2919 545.564 96.9997 544.449 103.669C543.705 109.222 530.197 111.117 528.091 106.102ZM562.42 73.2809C560.313 62.6048 558.95 62.1879 556.223 71.116C552.877 81.55 553.001 81.9667 558.825 81.9399C564.278 81.9533 564.279 81.9535 562.42 73.2809ZM599.227 91.6074C599.971 81.5095 601.458 67.5121 602.45 60.5202L604.185 47.8006L621.288 50.2479C640.249 52.9908 646.942 56.4602 649.42 64.837C651.651 72.7163 650.163 78.0674 643.967 84.9517C638.266 91.2041 638.265 91.2042 643.595 102.418C646.569 108.644 648.553 114.036 648.057 114.385C647.562 114.762 643.843 114.842 639.629 114.573C632.441 114.156 631.946 113.699 627.236 103.346C620.296 88.4474 615.711 87.9498 613.728 101.88C612.241 112.179 612.24 112.18 604.928 111.144C597.74 110.096 597.74 110.096 599.227 91.6074ZM629.468 77.6773C631.698 76.5209 633.185 73.9666 633.185 71.0758C633.185 67.0554 632.07 66.1002 625.749 64.7287C618.189 63.1017 618.189 63.102 617.941 70.7393C617.569 77.2202 618.19 78.5651 621.66 79.0626C623.891 79.3853 627.361 78.7798 629.468 77.6773ZM659.458 117.101L668.381 55.1826L675.818 56.2585C683.378 57.3342 683.378 57.3335 681.766 69.0315L680.155 80.8237L692.548 70.5916C703.578 61.5828 705.685 60.5607 712.005 61.4616C716.838 62.1608 718.946 63.3305 718.698 65.1054C718.45 66.5575 717.582 68.0102 716.839 68.1985C714.484 68.8035 698.497 84.8175 698.249 86.7268C698.125 87.5739 701.471 95.3457 705.56 103.884C713.864 120.933 713.493 124.886 703.827 123.501C696.887 122.493 694.779 120.005 689.078 105.497C685.236 95.7759 685.236 95.7758 681.022 99.7961C678.296 102.31 676.19 106.788 675.57 111.574C674.455 119.252 674.454 119.252 666.894 118.177L659.458 117.101ZM850.438 103.561C847.959 100.616 846.72 97.1334 847.588 95.6812C848.331 94.1618 847.463 92.6162 845.232 91.6616C841.142 89.9808 839.532 92.334 843.25 94.2836C844.49 95.0097 844.861 96.0047 844.117 96.5963C843.25 97.282 834.202 91.8629 823.792 84.7096C773.104 49.683 729.108 32.6064 668.877 24.4582C626.988 18.7302 617.445 17.8435 616.082 19.2822C615.338 19.8872 593.774 20.4517 567.996 20.5189C492.026 20.7206 336.12 20.7202 334.385 20.4648C331.287 20.0211 332.03 12.0884 335.5 6.09148C337.483 2.75689 339.838 0.121015 340.581 0.228583C342.069 0.443717 492.274 0.430711 540.236 0.175239C646.569 -0.268477 644.339 -0.3495 682.139 6.03732C741.502 16.0814 786.861 34.3146 833.707 66.8403C845.109 74.6792 848.95 78.3766 848.578 81.0658C848.207 83.0558 848.826 85.3551 849.693 86.1081C850.685 86.8745 851.677 86.2156 851.801 84.6021C852.42 80.4473 854.031 81.173 863.574 89.765C869.151 94.8072 872.002 98.9082 871.878 101.705C871.63 105.04 870.763 105.632 868.037 104.448C866.054 103.628 863.947 103.642 863.203 104.543C862.583 105.39 860.228 105.847 858.245 105.538C856.139 105.242 854.899 105.927 855.271 107.016C856.758 110.445 854.899 109.06 850.438 103.561ZM403.292 13.1099C404.035 12.209 403.911 11.3218 402.92 11.1739C401.804 11.026 400.317 11.6852 399.573 12.5592C398.83 13.5542 398.954 14.4548 400.069 14.6027C401.061 14.7506 402.548 14.1049 403.292 13.1099ZM539.493 14.2933C538.997 13.5 539.864 12.1419 541.599 11.2141C544.449 9.74852 544.574 9.03624 542.343 5.35205C540.608 2.43429 539.492 1.86961 538.5 3.389C537.757 4.62603 535.403 5.36536 533.172 5.04266C529.082 4.54516 529.082 4.54527 532.428 8.01432C534.287 9.84297 535.403 12.1287 535.031 13.0968C534.536 13.9707 535.65 15.0057 537.385 15.2477C539.121 15.5032 540.112 15.0194 539.493 14.2933Z" fill="#25549A"/>
</svg>
