<svg width="965" height="772" viewBox="0 0 965 772" fill="none" xmlns="http://www.w3.org/2000/svg">
<path fill-rule="evenodd" clip-rule="evenodd" d="M40.7543 769.437C22.9791 764.056 7.89423 748.972 2.76634 731.45C0.0759215 722.114 -0.29215 673.502 0.16775 380.315C0.696635 40.0803 0.696939 40.0813 5.36493 31.4581C11.6656 19.8686 22.3581 9.88883 34.2925 4.508C42.5708 0.736809 48.5724 0.0919191 73.637 -6.10352e-05C95.2983 -6.10352e-05 103.645 0.736721 104.542 2.71429C105.623 4.85283 106.06 4.85283 107.049 2.71429C108.13 0.552761 152.05 -6.10352e-05 316.257 -6.10352e-05C524.201 -6.10352e-05 524.201 -0.000163078 522.683 5.93256C521.327 11.3364 521.603 11.59 524.822 8.89954C526.8 7.28988 528.432 4.59957 528.432 2.96692C528.432 0.46046 539.838 -6.10352e-05 594.543 -6.10352e-05C632.163 -6.10352e-05 662.355 0.897382 664.425 2.07013C666.563 3.1509 674.841 7.10589 683.004 10.8771C711.472 23.9842 702.85 25.6172 602.891 25.7781C543.61 25.9621 526.363 25.433 525.374 23.2715C524.385 21.11 523.833 21.11 522.845 23.2715C521.856 25.341 510.358 25.962 476.234 25.962C434.544 25.962 430.865 25.709 430.865 22.1907C430.773 18.6035 430.611 18.6035 428.542 22.1907C426.472 25.778 417.137 25.962 281.305 25.962C153.315 25.962 136.437 25.6167 137.586 22.7423C138.414 20.4888 137.425 19.5002 134.275 19.5002C131.584 19.5002 129.699 20.8567 129.699 22.7423C129.699 25.5247 124.042 25.9612 92.3317 26.0532C71.7511 26.0532 52.7113 26.6063 50.0209 27.3192C46.4337 28.3079 45.169 27.7548 45.169 25.1564C45.169 23.0868 43.3757 21.6616 40.8462 21.6616C35.9943 21.6616 35.2815 23.8928 38.8687 27.5031C40.6853 29.2967 39.7882 31.9867 35.5571 37.4595C32.4068 41.6906 28.8197 48.3366 27.7389 52.2917C26.3822 56.7758 25.5775 144.984 25.5775 280.976C25.6695 456.129 25.1404 502.672 22.9789 503.477C20.7254 504.374 20.7254 504.649 22.887 504.741C26.4742 504.994 26.5661 529.07 23.0708 532.657C21.0933 534.635 21.0933 535.279 22.9789 535.279C24.8645 535.279 25.761 558.894 26.3129 626.799C26.6579 677.204 27.4628 720.32 28.0147 722.643C29.1874 727.954 42.5708 740.256 50.4581 743.315C54.6892 744.924 133.102 745.545 301.518 745.545C480.465 745.453 547.197 746.098 549.358 747.892C551.497 749.685 552.324 749.685 552.324 747.983C552.324 746.189 568.213 745.454 607.834 745.454C659.826 745.454 663.16 745.729 661.712 749.316C659.113 755.433 659.389 761.275 662.263 762.264C664.149 762.884 664.954 760.469 664.954 754.352V745.454L732.513 746.005L800.049 746.626L804.281 754.812C809.57 765.045 811.363 764.148 806.971 753.455L803.637 745.545H838.59C872.99 745.545 873.518 745.637 877.658 750.857C880.003 753.732 884.027 756.791 886.648 757.595C889.339 758.492 892.214 760.194 893.019 761.551C893.916 762.884 894.627 762.976 894.627 761.803C894.627 758.676 892.122 755.618 887.27 752.996C878.463 748.075 880.991 745.545 894.627 745.545C917.001 745.545 931.19 735.221 935.605 715.56C936.663 710.617 939.467 704.775 941.698 702.706C943.86 700.636 944.757 699.648 943.584 700.544C939.1 704.063 938.388 701.534 938.296 681.965L938.112 661.751L947.723 663.177C959.221 664.879 964.509 668.835 963.612 674.951C963.175 678.194 961.543 679.251 958.14 678.907C954.645 678.539 953.749 679.343 954.645 681.688C955.45 683.85 957.428 684.563 960.21 683.575C964.418 682.31 964.51 683.046 963.705 704.96C962.992 724.897 962.096 729.104 956.439 740.257C948.253 756.146 935.95 765.942 919.256 769.621C911.783 771.322 906.585 771.598 906.217 770.334C903.527 762.699 894.72 761.274 894.72 768.54C894.72 771.069 876.761 771.507 780.918 771.507C693.882 771.507 667.115 770.978 667.115 769C667.115 766.931 666.563 766.931 664.493 769C661.274 772.22 604.315 772.679 604.315 769.437C604.315 768.195 602.798 767.299 601.004 767.299C599.303 767.299 597.762 768.195 597.762 769.437C597.762 770.702 590.749 771.599 580.976 771.507C569.732 771.507 565.247 770.886 567.409 769.529C569.11 768.357 569.731 766.655 568.835 765.758C567.846 764.769 565.868 765.666 564.35 767.827C561.752 771.322 552.485 771.598 425.759 771.598C289.928 771.598 289.928 771.599 287.951 766.655C285.996 761.803 285.996 761.803 285.812 766.655C285.72 771.599 285.72 771.598 165.985 771.414C100.15 771.23 43.8126 770.426 40.7543 769.529V769.437ZM57.2876 752.996C55.0571 746.994 51.6307 749.868 51.6307 757.939C51.6307 765.85 51.6304 765.942 55.0567 761.09C57.0343 758.308 58.0004 754.721 57.2876 752.996ZM288.594 752.996C286.893 748.512 285.72 749.064 285.72 754.261C285.72 756.79 286.617 758.216 287.789 757.503C288.939 756.79 289.307 754.813 288.594 752.996ZM12.654 517.941C12.654 516.769 11.7573 515.778 10.5846 515.778C9.50379 515.778 7.98637 516.769 7.25053 517.941C6.44571 519.114 7.43446 520.103 9.22807 520.103C11.1137 520.103 12.654 519.114 12.654 517.941ZM70.4868 722.826C60.254 719.239 55.126 714.732 50.7339 705.488C47.7675 699.21 47.3304 673.87 47.3304 484.253C47.4224 331.014 48.0435 269.387 49.7451 267.317C51.5387 265.179 51.5387 264.352 49.7451 264.352C48.4114 264.352 47.3304 261.937 47.3304 258.971C47.3304 256.004 48.3196 253.59 49.4693 253.59C50.6421 253.59 51.6307 255.567 51.6307 257.981C51.6307 260.419 53.1712 262.926 54.9648 263.639C57.8391 264.719 58.2764 273.711 58.0925 331.29V698.314L65.5654 705.673C72.9238 713.031 72.9239 713.03 106.704 713.03C127.169 713.03 140.461 713.835 140.461 715.1C140.461 716.273 143.519 718.779 147.29 720.756C154.028 724.252 154.027 724.252 152.694 718.687C151.245 713.031 151.245 713.03 440.477 713.03C667.207 713.122 729.892 713.674 730.697 715.72C731.593 717.882 731.869 717.882 731.961 715.72C732.145 713.674 740.768 713.03 767.534 713.03C801.751 713.03 803.108 713.123 807.592 718.067C810.19 720.85 811.731 723.723 810.926 724.527C808.489 726.965 276.637 726.23 278.085 723.816C278.89 722.643 278.43 721.653 277.189 721.653C275.924 721.653 274.843 722.643 274.843 723.816C274.843 727.403 80.7426 726.506 70.4868 722.826ZM811.823 720.665C809.662 717.791 807.96 714.916 807.96 714.203C807.96 711.95 851.075 712.939 852.408 715.193C853.949 717.607 863.101 717.077 865.7 714.571C866.527 713.674 872.184 713.03 878.278 713.03C885.015 713.03 891.408 711.606 894.443 709.444C904.239 702.614 905.504 694.98 905.504 643.954C905.504 607.943 906.217 596.078 908.195 595.089C910.356 594.1 910.356 593.571 908.195 592.583C906.217 591.594 905.504 583.155 905.504 560.964C905.504 541.373 906.309 531.14 907.666 532.037C908.908 532.75 909.805 532.405 909.805 531.14C909.805 529.783 908.816 528.795 907.575 528.795C906.034 528.795 905.412 507.961 905.504 465.397C905.688 430.536 905.689 328.76 905.597 239.218C905.413 76.4588 905.412 76.4596 900.123 68.4573C892.029 56.5919 893.73 49.0487 903.25 54.1766C908.47 56.959 909.183 61.19 904.147 59.2125C901.641 58.2237 900.928 58.7533 901.549 60.9149C902.17 62.5245 904.515 64.2262 906.769 64.6861C908.999 65.054 912.15 66.9395 913.598 68.8251C917.37 73.677 917.53 644.943 913.851 649.519C911.965 651.772 911.965 653.129 913.851 655.015C915.392 656.532 916.382 665.247 916.382 677.204C916.382 713.835 904.424 726.069 868.321 726.069C852.317 726.069 849.535 725.516 850.524 722.734C851.328 720.756 850.524 719.492 848.546 719.492C846.752 719.492 844.775 720.94 844.062 722.734C843.165 725.171 839.394 725.977 829.253 725.977C817.388 725.885 815.135 725.172 811.823 720.665ZM456.918 691.485C449.1 690.496 428.634 686.632 411.387 682.953C355.878 671.087 336.815 669.57 306.278 674.33C283.467 677.917 282.478 677.824 282.478 672.973C282.478 669.569 284.915 668.122 294.343 665.799C309.428 662.189 367.099 661.383 370.503 664.81C371.859 666.051 374.113 666.695 375.63 666.143C377.056 665.522 391.359 668.029 407.34 671.617C465.817 684.655 494.744 685.459 539.285 675.227C551.772 672.444 562.373 670.904 562.741 672.077C563.89 675.135 569.639 674.33 569.639 671.088C569.639 668.121 584.471 665.062 614.112 662.004C627.955 660.67 668.195 664.166 677.255 667.684C680.682 668.926 682.384 670.995 681.832 673.502C680.935 677.825 679.142 677.826 656.331 674.055C633.703 670.283 596.061 672.513 566.328 679.527C513.325 691.921 484.949 694.98 456.918 691.485ZM460.16 665.155C450.64 664.166 435.992 661.843 427.645 659.958C419.275 658.141 403.201 654.463 391.888 651.956C367.996 646.576 310.325 645.126 295.861 649.519C286.709 652.324 281.397 651.334 281.397 646.735C281.397 641.814 288.41 639.653 313.291 636.963C342.84 633.72 365.306 635.974 415.872 647.012C437.786 651.864 460.344 655.268 474.624 656.095C494.101 657.084 497.527 657.797 496.446 660.58C495.641 662.741 496.078 663.361 497.711 662.281C499.136 661.476 500.217 659.314 500.217 657.613C500.217 655.635 502.563 654.554 506.495 654.554C510.013 654.554 520.43 652.945 529.674 651.06C542.528 648.369 547.564 648.092 550.508 649.977C553.658 651.863 554.463 651.68 554.463 649.082C554.463 647.288 555.267 645.839 556.348 645.839C560.119 645.839 556.003 654.83 551.427 656.532C534.181 663.085 484.949 667.684 460.16 665.155ZM958.324 662.097C957.611 660.119 955.358 659.314 952.391 659.958C949.701 660.487 945.746 659.314 942.964 656.9C938.112 652.76 938.111 652.761 937.49 352.561C936.938 52.3833 936.939 52.3833 930.477 43.2083C920.497 29.2043 912.679 26.0532 887.89 26.0532C869.931 26.0532 866.781 25.525 865.54 22.1907C864.091 18.6035 863.906 18.6034 861.86 22.3746C859.79 26.0538 855.375 26.2376 793.404 25.6167C741.481 25.0648 726.488 24.3517 724.142 22.0981C722.625 20.4885 720.095 19.5917 718.577 20.1206C714.093 21.7533 708.345 17.4302 708.253 12.3943C708.253 8.80706 707.794 8.37007 706.368 10.6006C704.736 13.0381 701.861 12.6713 689.558 8.09534C681.395 5.037 673.208 2.06984 671.507 1.54095C664.769 -0.712559 915.024 0.0924339 923.187 2.25397C933.443 5.03637 950.046 17.6147 949.701 22.3746C949.517 24.3522 950.138 25.5251 951.127 24.8813C952.208 24.2604 954.093 25.7778 955.45 28.3073C957.427 31.8945 957.152 33.6875 954.461 36.6539C949.334 42.3106 949.976 47.1633 955.173 42.4953C961.635 36.6546 962.808 41.1383 963.705 75.5619C964.349 100.167 963.888 107.088 961.635 108.513C959.22 109.962 959.221 110.952 961.382 113.09C964.969 116.7 965.245 296.959 961.635 300.569C959.933 302.271 959.933 303.351 961.635 304.432C963.359 305.42 963.981 358.494 963.981 485.61C963.981 656.003 963.36 675.388 958.324 662.097ZM955.358 628.501C955.358 626.087 954.368 624.201 953.195 624.201C952.023 624.201 951.034 626.087 951.034 628.501C951.034 630.938 952.023 632.824 953.195 632.824C954.368 632.824 955.358 630.938 955.358 628.501ZM948.897 398.734C948.897 397.562 947.908 396.573 946.735 396.573C945.47 396.573 944.572 397.562 944.572 398.734C944.572 399.999 945.47 400.989 946.735 400.989C947.908 400.989 948.897 399.999 948.897 398.734ZM956.255 126.473C958.049 121.713 955.726 119.574 953.104 123.598C950.598 127.645 950.505 130.084 953.012 130.084C954 130.084 955.542 128.45 956.255 126.473ZM764.567 19.5929C766.361 18.5121 767.258 17.0859 766.638 16.442C765.925 15.7292 763.579 16.7179 761.256 18.4196C756.657 21.8458 759.439 22.8352 764.567 19.5929ZM862.573 6.02521C861.032 4.50754 860.043 4.41501 860.043 5.74872C860.043 8.6231 862.573 11.1525 863.999 9.7038C864.642 9.17491 863.998 7.47389 862.573 6.02521ZM788.459 5.22095C788.459 4.76105 787.034 4.32416 785.217 4.32416C783.423 4.32416 781.999 5.31279 781.999 6.48553C781.999 7.5663 783.423 8.00258 785.217 7.28973C787.034 6.64587 788.459 5.65785 788.459 5.22095ZM558.786 652.577C558.786 651.243 559.866 650.163 561.2 650.163C562.464 650.163 562.994 648.805 562.373 647.103C561.568 644.85 563.73 643.608 570.283 642.528C575.319 641.723 581.321 640.55 583.667 639.999C601.626 635.974 628.944 634.709 649.778 636.963C678.705 640.09 682.293 641.079 682.293 645.931C682.293 651.864 680.59 652.047 662.792 648.897C634.692 643.861 595.44 645.838 563.638 653.749C560.763 654.462 558.786 654.025 558.786 652.577ZM199.029 535.371C196.614 532.934 194.729 528.173 194.729 524.494C194.729 519.113 195.534 518.033 199.926 518.033C203.697 518.033 205.421 519.366 205.858 522.701C206.939 529.714 213.217 532.842 217.632 528.542C222.392 523.69 219.885 516.952 211.975 513.71C194.729 506.535 189.164 490.806 200.018 480.021C209.101 470.869 224.99 474.02 229.129 485.679C232.187 494.67 232.371 494.233 226.163 494.233C223.012 494.233 219.885 492.347 218.437 489.725C216.919 486.851 214.39 485.517 211.331 485.954C203.973 486.943 205.514 494.302 214.206 500.051C228.141 509.226 231.544 513.617 231.544 522.24C231.544 533.301 224.553 539.67 212.412 539.67C206.226 539.67 201.995 538.338 199.029 535.371ZM238.028 538.59C238.028 537.877 240.535 527.276 243.593 515.158C253.918 473.744 252.653 476.894 259.667 476.894C266.772 476.894 265.415 473.744 275.832 515.158C282.57 542.016 282.569 540.131 275.487 539.326C270.704 538.775 269.278 537.256 268.382 532.128C267.393 526.379 266.404 525.575 259.758 525.575C253.021 525.575 252.032 526.379 251.043 532.128C250.147 537.256 248.698 538.775 244.03 539.326C240.719 539.671 238.028 539.394 238.028 538.59ZM263.001 505.547C261.46 495.291 260.471 492.692 258.77 494.393C258.31 494.853 257.252 499.89 256.424 505.547C254.999 515.251 255.183 515.871 259.667 515.871C264.243 515.871 264.426 515.251 263.001 505.547ZM290.02 508.421C290.02 476.895 290.02 476.894 296.045 476.894C301.609 476.894 302.414 478.137 308.531 495.843L314.993 514.79L315.636 495.843C316.165 477.24 316.349 476.894 321.546 476.894C326.95 476.894 326.95 476.895 326.95 508.237C326.95 539.672 326.95 539.67 320.65 539.67C314.74 539.67 314.096 538.682 308.163 520.907L301.977 502.12L300.897 520.355C299.908 537.257 299.448 538.683 294.964 539.326C290.112 540.039 290.02 539.947 290.02 508.421ZM347.783 538.246C347.071 537.418 346.357 525.759 346.357 512.284C346.357 487.656 346.358 487.656 340.954 487.656C336.654 487.656 335.573 486.598 335.573 482.275C335.573 476.895 335.757 476.894 354.153 476.894C372.135 476.894 372.664 476.986 372.043 481.746C371.491 485.241 369.606 486.759 365.397 487.311C359.373 487.932 359.373 487.932 359.373 513.801C359.373 539.486 359.373 539.67 354.337 539.67C351.555 539.67 348.588 539.051 347.783 538.246ZM385.058 535.531C380.574 531.852 379.931 529.346 379.218 512.1C378.229 486.598 381.655 477.791 393.244 475.537C410.307 472.387 417.849 482.275 417.849 507.868C417.941 525.483 414.515 535.808 408.053 538.337C401.224 541.027 390.094 539.671 385.058 535.531ZM403.661 526.195C407.616 520.63 408.329 496.279 404.834 489.725C401.867 484.16 394.854 484.346 391.704 490.094C388.209 496.74 390.002 526.287 394.141 528.886C398.809 531.852 399.982 531.507 403.661 526.195ZM454.227 538.406C453.331 537.509 452.618 523.321 452.618 506.788V476.71H466.622C478.119 476.71 481.361 477.515 484.949 481.379C490.237 487.127 492.583 501.223 490.605 516.768C488.444 533.738 484.328 537.969 468.599 539.05C461.586 539.579 455.124 539.234 454.227 538.337V538.406ZM475.958 526.288C477.59 524.678 478.579 517.135 478.579 507.155C478.579 490.185 476.602 485.517 469.496 485.517C466.001 485.517 465.541 487.748 465.541 507.155C465.541 526.655 466.001 528.886 469.496 528.886C471.658 528.886 474.532 527.737 475.958 526.288ZM507.392 535.531C498.056 526.839 498.424 489.289 508.036 479.769C515.027 472.755 526.891 472.847 533.997 480.021C538.941 484.965 539.285 486.851 539.285 506.788C539.285 525.207 538.666 529.07 534.802 534.014C529.146 541.212 514.497 542.108 507.483 535.531H507.392ZM526.179 526.839C528.87 521.804 529.145 492.163 526.523 488.024C525.557 486.414 522.316 485.518 519.534 485.863C514.59 486.599 514.313 487.403 513.692 505.8C513.072 525.023 514.773 531.047 521.051 531.047C522.592 531.047 524.915 529.162 526.179 526.839ZM552.233 508.421C552.233 476.895 552.232 476.894 559.682 476.894C568.122 476.894 567.846 476.526 572.077 500.142C575.319 518.216 576.745 517.043 580.516 493.68C583.206 476.894 583.207 476.894 591.577 476.894H599.924V508.237C599.924 539.672 599.924 539.67 594.543 539.67C589.139 539.67 589.139 539.579 588.955 518.562L588.794 497.451L584.011 518.033C580.079 535.371 578.63 538.59 575.135 538.59C571.548 538.59 570.375 535.715 567.225 519.55C565.247 509.041 562.994 499.889 562.373 499.245C561.66 498.532 561.293 507.156 561.569 518.285C561.937 537.877 561.845 538.591 557.085 539.326C552.233 540.039 552.233 539.947 552.233 508.421ZM612.938 508.329C612.938 476.894 612.939 476.894 618.343 476.894C623.816 476.894 623.816 476.894 623.816 508.329C623.816 539.671 623.816 539.67 618.343 539.67C612.939 539.67 612.938 539.671 612.938 508.329ZM636.739 508.329C636.739 476.894 636.739 476.894 643.039 476.894C648.696 476.894 649.593 478.045 653.985 490.462C662.172 513.802 662.539 513.985 662.608 494.761C662.792 477.147 662.884 476.894 668.196 476.894C673.669 476.894 673.669 476.895 673.669 508.421C673.669 540.039 673.669 540.039 667.921 539.326C662.793 538.775 661.366 536.451 654.973 519.113L647.891 499.614L647.707 519.642C647.615 539.579 647.616 539.67 642.235 539.67C636.739 539.67 636.739 539.671 636.739 508.329ZM693.974 538.062C682.476 530.336 682.293 485.954 693.79 477.975C702.942 471.49 715.428 474.112 720.28 483.54C724.948 492.508 724.327 496.371 718.302 496.371C714.531 496.371 712.737 494.854 711.748 490.991C710.759 487.036 708.874 485.517 705.195 485.517C698.641 485.517 697.469 488.92 697.469 508.052C697.469 526.655 700.619 533.025 707.885 529.07C714.002 525.85 714.279 516.768 708.346 515.251C705.724 514.607 703.93 512.284 703.93 509.593C703.93 505.638 705.286 504.994 713.725 504.994C723.429 504.994 723.431 504.995 723.431 522.333C723.431 538.245 723.062 539.67 719.106 539.67C716.784 539.67 714.808 538.499 714.808 537.165C714.808 535.096 714.186 535.096 712.208 537.165C709.334 539.947 697.745 540.568 693.974 538.062ZM738.791 534.014C735.019 529.162 734.306 525.206 734.306 508.949C734.306 487.587 737.526 478.229 745.62 476.09C762.061 471.675 770.938 478.873 772.663 497.821C774.272 515.251 771.834 530.335 766.638 535.531C760.084 542.2 744.539 541.281 738.791 534.014ZM758.014 527.989C759.624 526.103 760.269 518.033 759.901 505.8C759.28 487.403 759.003 486.599 754.059 485.863C746.793 484.874 745.252 488.645 745.16 506.788C745.16 528.081 750.564 536.98 758.014 527.989ZM415.688 453.002V437.802H545.747V453.002H415.688ZM430.865 429.179C430.865 424.971 432.313 424.88 480.718 424.88C529.145 424.88 530.571 424.971 530.571 429.179C530.571 433.41 529.145 433.504 480.718 433.504C432.313 433.504 430.865 433.41 430.865 429.179ZM488.444 420.212C487.823 418.603 487.11 413.819 486.834 409.703C486.282 403.241 485.317 401.977 480.189 401.425C474.532 400.712 474.256 401.08 474.256 410.6C474.256 420.488 474.256 420.487 460.505 420.487C446.869 420.487 446.869 420.488 447.582 414.555C447.95 411.313 450.732 381.304 453.698 347.892C456.642 314.573 460.068 277.114 461.241 264.719C462.39 252.325 462.758 238.412 462.046 233.721C460.689 225.282 460.689 225.283 480.994 225.926C498.861 226.455 501.391 227.076 502.104 230.594C502.564 232.825 501.643 235.446 500.125 236.343C498.056 237.677 498.7 250.531 503.276 296.245C510.45 369.461 515.027 419.315 514.682 419.752C514.498 419.936 508.748 420.832 501.918 421.637C492.307 422.81 489.249 422.535 488.444 420.212ZM505.346 366.587C503.46 358.769 504.08 358.861 490.697 363.989C451.353 378.706 454.756 376.821 454.756 384.639V391.905L480.718 382.04C505.966 372.52 506.679 372.152 505.346 366.587ZM482.35 348.789C501.919 341.615 502.379 341.247 502.379 334.417C502.471 327.519 502.471 327.519 487.823 333.084C479.729 336.211 470.025 339.73 466.093 340.994C462.229 342.236 459.079 344.305 459.079 345.57C458.987 346.811 458.367 350.238 457.631 353.205C456.573 357.16 456.918 358.148 459.263 357.251C460.965 356.607 471.381 352.744 482.35 348.697V348.789ZM482.879 317.01C497.159 311.698 499.229 310.272 499.85 305.052C500.654 297.601 498.768 297.603 478.579 305.421C464.023 310.986 462.23 312.25 460.965 318.436C459.355 326.254 457.539 326.346 482.879 317.01ZM480.097 287.094C497.527 280.632 498.7 279.643 496.538 273.71C494.836 269.203 494.837 269.204 479.637 274.952C466.438 280.08 464.368 281.597 463.747 286.725C462.942 293.922 462.138 293.924 480.097 287.094ZM481.615 257.706C492.399 253.59 493.756 252.326 493.756 246.853C493.756 240.736 493.756 240.735 482.35 245.15C470.945 249.542 465.541 254.21 465.541 259.522C465.541 263.293 467.519 263.11 481.615 257.706ZM229.313 383.282C229.405 382.845 230.831 377.717 232.716 371.784C236.051 360.931 236.051 360.93 226.692 352.836L217.356 344.673H229.658C240.811 344.673 241.96 344.213 243.225 339.361C243.938 336.394 245.571 331.29 246.904 327.956C249.25 321.931 249.25 321.931 253.458 333.268C257.781 344.674 257.781 344.674 270.083 344.766C283.558 344.834 283.742 344.121 268.382 355.435C263.162 359.298 263.07 359.85 265.691 369.738C268.818 381.236 267.922 383.742 262.357 378.89C252.308 370.083 248.974 369.807 238.833 377.097C233.613 380.868 229.313 383.65 229.313 383.282ZM694.158 370.795C697.032 360.033 697.032 360.034 688.041 352.492L679.049 344.834L691.283 344.766C702.413 344.674 703.586 344.121 704.827 339.269C705.563 336.395 707.173 331.29 708.53 327.956C710.852 321.839 710.852 321.839 715.175 333.268C719.383 344.674 719.382 344.673 731.685 344.673C745.16 344.765 745.344 344.029 729.984 355.435C724.787 359.206 724.695 359.758 727.386 369.645C728.811 375.302 729.639 380.316 729.087 380.868C728.466 381.489 724.787 379.326 720.648 376.291C711.565 369.37 710.852 369.37 701.791 376.107C691.628 383.558 690.916 383.028 694.158 370.795ZM103.921 248.277C95.367 234.641 88.4685 222.592 88.4685 221.695C88.4685 220.706 93.6654 217.12 99.966 213.693C114.775 205.622 120.616 206.955 130.687 220.614C140.391 233.905 145.68 247.565 143.887 254.763C142.714 259.592 125.652 273.159 120.892 273.159C120.087 273.159 112.452 261.936 103.921 248.277ZM128.963 239.747C120.179 223.052 113.878 217.556 106.865 220.707C101.484 223.213 101.484 223.213 109.394 235.699C125.927 261.844 125.192 261.224 130.412 255.912C134.988 251.336 134.988 251.336 128.963 239.747ZM822.055 266.168C810.12 259.338 809.569 250.348 819.986 232.917C831.668 213.601 837.601 208.129 847.213 208.129C853.49 208.129 856.457 209.577 860.872 214.774C867.149 222.225 867.609 224.938 863.999 232.917C861.124 239.126 857.445 240.023 853.582 235.355C851.604 233.01 851.604 231.123 853.582 227.536C856.916 221.167 851.168 214.522 845.419 218.109C839.302 221.972 825.114 244.323 824.654 250.715C824.033 258.602 830.402 260.052 837.324 253.498C841.647 249.543 843.073 249.175 845.856 251.428C850.363 255.199 849.994 257.269 843.785 263.455C838.037 269.204 829.252 270.284 822.055 266.168ZM832.035 224.846C829.253 222.063 826.447 224.202 828.517 227.536C829.252 228.801 830.955 229.239 832.128 228.526C833.646 227.629 833.553 226.363 832.035 224.846ZM56.1149 259.062C55.678 257.889 55.2177 253.498 55.0567 249.267C54.8727 243.702 53.884 241.817 51.1936 242.001C47.9513 242.277 47.5833 234.987 47.4223 156.206C47.2384 70.2505 47.2384 70.2502 52.0904 62.7998C54.8728 58.6607 61.3343 53.1877 66.5542 50.5893C75.7062 45.8983 77.8679 45.8293 155.384 45.7374C222.208 45.6454 235.407 46.174 238.925 48.8644C244.398 53.0035 247.456 53.0035 245.916 48.8644C244.766 45.99 250.584 45.5535 290.112 45.5535C318.948 45.5535 335.481 46.3582 335.481 47.7149C335.481 48.9566 336.562 49.9451 337.804 49.9451C339.069 49.9451 339.528 48.9566 338.793 47.7149C337.896 46.2662 397.636 45.5535 516.29 45.5535C674.381 45.5535 694.962 45.99 693.881 48.8644C693.237 50.589 693.605 52.1065 694.778 52.1065C695.951 52.1065 698.089 50.589 699.63 48.8644C703.493 44.1964 723.431 44.289 723.431 48.957C723.431 50.8426 722.441 51.7386 721.268 51.0258C720.095 50.3129 719.106 50.589 719.106 51.7388C719.106 52.9115 720.372 54.36 721.821 54.9808C723.339 55.5097 579.343 56.0629 401.959 56.2468C224.553 56.3388 78.5808 56.8667 77.684 57.4875C76.6952 58.1314 75.3385 57.1436 74.7177 55.35C74.0048 53.5564 71.9351 52.1065 70.2335 52.1065C68.1639 52.1065 67.4511 53.3717 68.256 55.4412C68.9688 57.3958 67.3592 61.0977 64.3928 64.317C59.1729 69.8128 59.1732 69.8139 58.0925 165.473C57.3796 218.109 56.5748 260.235 56.1149 259.062ZM789.012 244.415C787.472 242.529 790.898 234.458 800.51 217.028C816.836 187.572 817.663 186.582 822.331 191.25C825.551 194.469 824.653 196.815 811.27 220.983C797.266 246.301 793.588 250.164 789.012 244.415ZM158.167 239.034C151.889 233.653 138.322 205.437 138.322 197.619C138.322 193.043 140.299 189.549 144.967 185.594C153.682 178.213 162.122 178.304 169.756 185.847C177.39 193.481 188.888 217.557 188.888 226.088C188.888 239.563 168.767 248.025 158.167 239.034ZM174.7 231.584C176.126 230.135 177.298 227.168 177.298 225.03C177.298 219.902 165.709 196.815 161.317 193.228C156.902 189.548 150.44 190.973 149.543 195.825C148.187 202.471 165.617 234.182 170.561 234.182C171.366 234.182 173.251 232.918 174.7 231.584ZM763.579 231.584C756.405 227.905 750.196 224.661 749.828 224.385C748.494 223.144 776.595 169.152 778.664 169.152C779.837 169.152 782.344 170.141 784.16 171.222C786.851 173.016 785.586 176.97 775.79 196.538C765.028 218.292 764.476 219.994 768.063 222.684C770.225 224.202 773.099 225.466 774.548 225.466C775.973 225.466 778.318 226.984 779.836 228.801C782.182 231.583 782.09 232.734 779.652 235.171C777.054 237.678 774.64 237.149 763.579 231.584ZM202.455 218.293C200.914 214.522 195.534 201.943 190.59 190.353C185.646 178.764 181.599 168.531 181.599 167.542C181.599 165.909 194.912 159.908 195.901 161.058C196.154 161.334 201.282 169.243 207.399 178.579C219.701 197.527 220.046 197.275 214.481 172.026C210.618 154.32 210.618 154.321 215.746 151.998C218.528 150.641 222.024 149.652 223.472 149.652C224.898 149.652 231.383 162.415 237.844 178.051C247.364 201.207 248.974 206.703 246.467 208.312C240.627 211.992 239.017 210.198 231.82 191.779C227.773 181.546 224.185 173.545 223.748 173.913C223.38 174.349 224.898 183.341 227.243 194.033C230.555 209.21 230.923 213.694 228.761 215.051C224.093 218.017 223.104 217.119 212.78 201.574C207.215 193.227 202.271 186.742 201.811 187.202C201.374 187.662 203.973 194.562 207.56 202.656C215.286 219.811 215.562 222.408 209.721 223.949C206.41 224.846 204.685 223.582 202.455 218.293ZM465.541 217.925C465.541 214.959 464.552 212.544 463.38 212.544C462.23 212.544 461.241 211.555 461.241 210.29C461.241 209.025 469.128 208.129 480.718 208.129C492.307 208.129 500.217 209.025 500.217 210.29C500.217 211.555 499.229 212.544 498.056 212.544C496.883 212.544 495.895 215.142 495.895 218.362C495.895 224.754 492.675 223.052 490.973 215.762C490.145 212.451 489.801 212.889 489.617 217.396C489.525 220.615 488.444 223.305 487.363 223.305C486.283 223.305 484.949 220.615 484.397 217.396C483.5 211.463 483.5 211.463 483.247 217.396C483.063 220.615 481.982 223.305 480.902 223.305C479.729 223.305 478.487 220.615 477.935 217.396C477.039 211.463 477.038 211.463 476.693 217.396C476.509 220.615 475.521 223.305 474.348 223.305C473.267 223.305 471.911 220.615 471.474 217.396C470.577 211.463 470.577 211.463 470.209 217.396C469.864 224.846 465.541 225.283 465.541 217.925ZM718.05 211.187C713.359 209.485 708.598 207.232 707.609 206.151C705.723 204.357 727.385 147.422 729.8 147.583C730.536 147.583 736.353 150.296 742.93 153.515C754.243 159.08 754.864 159.908 755.508 168.348C756.037 175.614 755.231 178.051 751.092 181.362C746.884 184.697 746.15 186.927 746.793 194.124C747.506 201.115 746.517 203.99 742.101 208.773C736.008 215.326 730.881 215.855 718.05 211.187ZM733.846 201.206C737.985 197.09 736.905 189.089 731.961 186.398C726.764 183.616 727.293 183.247 722.441 192.767C719.383 198.792 719.2 200.403 721.637 201.943C725.776 204.542 730.788 204.265 733.846 201.206ZM742.469 175.246C746.424 171.314 745.621 165.289 740.861 162.69C737.274 160.713 736.1 161.426 733.042 167.267C730.168 172.832 730.076 174.349 732.422 175.89C736.446 178.489 739.411 178.212 742.469 175.246ZM463.38 204.725C463.38 203.184 480.097 186.491 481.707 186.491C482.35 186.491 482.879 187.733 482.879 189.181C482.879 190.699 485.846 193.573 489.433 195.55C501.298 202.38 497.964 205.967 479.637 205.967C470.669 205.967 463.38 205.438 463.38 204.725ZM253.458 176.694C242.513 145.973 241.248 140.937 244.03 140.937C245.295 140.937 247.709 140.501 249.526 139.788C251.94 138.799 254.998 145.353 262.633 168.348C268.106 184.697 272.337 198.332 272.061 198.516C271.785 198.792 269.463 199.597 266.933 200.402C262.725 201.667 261.552 199.689 253.458 176.694ZM668.448 192.86C660.906 186.835 661.183 181.546 670.519 153.332C677.716 131.877 678.704 130.083 683.004 131.417C685.603 132.222 687.949 133.05 688.225 133.211C688.409 133.487 685.787 142.293 682.2 152.71C673.853 177.314 673.116 185.134 679.233 186.03C685.442 186.927 687.144 184.145 695.146 159.908C700.619 143.283 702.942 138.798 706.184 138.798C708.346 138.798 710.76 139.696 711.404 140.753C713.198 143.628 698.366 188.376 693.974 193.228C688.938 198.792 675.83 198.608 668.448 192.767V192.86ZM276.2 163.403C269.646 139.787 268.658 133.487 270.888 132.061C277.005 128.106 280.592 130.705 290.917 146.433C296.758 155.401 301.793 162.414 302.161 162.046C302.506 161.793 300.437 153.699 297.746 144.179C292.803 127.37 292.803 126.841 296.758 124.955C299.011 123.875 301.356 123.437 301.885 123.966C302.506 124.587 306.829 138.062 311.589 154.067C320.304 183.8 320.304 186.399 311.405 186.491C309.428 186.491 303.058 179.109 296.504 169.152C290.296 159.632 284.823 151.814 284.455 151.814C284.018 151.814 285.168 156.482 286.892 162.139C295.424 190.078 295.608 192.951 288.135 192.951C285.076 192.951 282.661 187.019 276.2 163.403ZM325.961 150.457C320.741 125.76 320.213 120.724 322.719 119.114C326.95 116.516 329.02 116.7 330.169 119.827C332.699 126.381 343.392 176.878 342.656 178.395C342.219 179.292 339.62 180.029 336.999 180.029C332.699 180.029 331.71 177.499 325.961 150.548V150.457ZM615.1 176.165C615.1 172.923 626.506 126.932 629.035 120.011C630.553 115.964 652.192 122.541 657.044 128.359C661.895 134.384 660.814 147.766 654.905 154.32C651.754 157.746 648.788 158.552 640.601 157.931C630.369 157.195 630.369 157.195 627.954 168.6C625.885 178.58 624.989 180.029 620.321 180.029C616.803 180.029 615.1 178.764 615.1 176.165ZM644.74 147.951C646.097 147.054 647.892 143.719 648.697 140.592C649.778 136.085 649.156 134.291 645.73 132.498C638.808 128.819 637.382 129.624 635.75 138.063C633.956 147.422 638.187 152.09 644.74 147.951ZM362.339 173.636C356.039 170.946 350.474 155.861 349.14 137.534C347.691 119.483 349.945 114.079 360.086 110.767C370.066 107.433 378.229 110.859 382 119.827C385.426 127.921 384.713 130.175 378.689 130.175C376.09 130.175 373.561 127.922 372.296 124.588C370.779 120.472 368.893 119.207 365.305 119.667C360.798 120.38 360.453 121.46 360.729 133.395C360.798 140.592 362.063 150.642 363.512 155.769C365.65 163.496 366.915 165.013 370.87 164.393C374.458 163.841 375.906 161.862 376.711 156.113C377.976 147.329 386.139 143.995 388.117 151.445C391.98 166.622 376.803 179.661 362.339 173.636ZM582.586 173.016C577.205 171.843 572.606 170.669 572.261 170.416C571.617 169.773 582.217 110.216 583.045 109.503C583.39 109.227 590.22 110.055 598.314 111.297C611.605 113.274 612.938 113.987 612.938 118.678C612.938 123.507 612.502 123.691 602.085 122.358C591.484 120.909 591.209 121 591.209 126.565C591.209 129.716 591.209 133.049 591.117 133.946C591.025 134.843 594.98 136.361 599.924 137.35C606.569 138.706 608.638 140.04 608.086 142.731C607.466 145.605 605.121 146.341 597.326 146.066C587.438 145.698 587.254 145.88 585.828 153.423C584.196 162.23 586.541 164.736 596.865 164.736C604.868 164.828 606.294 165.91 604.868 171.406C603.604 176.166 598.384 176.511 582.586 173.016ZM399.982 159.908C400.603 154.872 402.672 140.5 404.65 128.014C408.145 105.203 408.145 105.202 414.883 104.558C421.528 103.937 421.528 103.939 431.6 133.671C437.073 150.113 441.373 163.748 441.12 163.932C440.844 164.208 438.246 164.736 435.279 165.104C430.864 165.817 429.623 164.668 427.898 158.735C426.565 153.883 424.863 151.998 422.793 152.802C421.091 153.423 417.849 153.976 415.504 153.976C412.377 153.976 411.387 155.492 411.387 160.252C411.387 166.277 408.237 169.152 401.684 169.152C399.522 169.152 399.085 166.715 399.982 159.908ZM422.15 140.408C422.15 138.959 420.816 133.395 419.275 128.106C416.401 118.494 416.401 118.494 414.975 125.668C412.376 138.615 413.181 143.099 417.849 143.099C420.264 143.099 422.15 141.926 422.15 140.408ZM549.449 167.795C548.622 166.99 548.622 162.138 549.358 156.941C550.784 146.686 547.909 140.937 541.355 140.937C537.124 140.937 534.986 146.778 534.894 158.828C534.894 166.094 534.25 166.99 529.49 166.99C523.029 166.99 523.028 167.266 526.523 130.704C529.145 104.122 529.146 104.122 538.574 104.122C552.049 104.122 562.189 108.882 563.983 115.965C565.615 122.702 563.982 129.623 559.406 134.843C557.336 137.166 557.084 138.868 558.602 139.788C559.866 140.593 560.947 147.49 560.947 155.216C560.947 168.347 560.672 169.152 555.82 169.152C553.038 169.152 550.162 168.531 549.449 167.795ZM549.702 130.428C551.335 129.347 552.231 125.853 551.864 122.358C551.243 117.414 549.887 115.872 545.403 115.343C540.367 114.814 539.654 115.62 538.849 122.541C538.297 126.75 538.39 130.704 538.941 131.233C540.551 132.866 546.575 132.405 549.702 130.428ZM450.364 133.049C450.364 101.5 450.364 101.501 456.297 102.237C461.586 102.766 462.85 104.651 467.702 118.839L473.083 134.843L473.819 118.31C474.348 102.673 474.716 101.777 479.384 101.777C484.144 101.777 484.489 102.858 485.845 119.667C486.558 129.532 487.202 143.628 487.202 151.101C487.271 164.668 487.202 164.668 480.902 164.668C474.877 164.668 474.256 163.747 467.702 144.087C463.931 132.773 460.689 123.438 460.413 123.438C460.16 123.438 460.344 132.773 460.873 144.087C461.77 164.667 461.77 164.668 456.113 164.668C450.364 164.668 450.364 164.668 450.364 133.049ZM861.032 56.8672C849.097 56.4993 837.945 55.6018 836.152 54.797C834.358 54.0842 830.954 53.625 828.517 53.809C826.194 53.9929 818.813 52.2906 812.26 49.9451C800.417 45.645 800.417 45.6457 845.142 46.0826C869.839 46.3586 890.604 47.1627 891.409 47.9675C894.099 50.589 890.144 58.4768 886.373 57.9479C884.396 57.6719 872.989 57.2351 861.032 56.8672ZM727.73 50.8419C727.73 45.4611 727.729 45.4623 756.841 45.4623C783.883 45.4623 786.137 45.7373 787.379 49.6924C788.367 53.0037 790.001 53.625 794.83 52.7282C798.256 52.0154 801.567 52.5664 802.395 53.9001C803.452 55.6018 792.944 56.2468 765.833 56.2468C727.731 56.2468 727.73 56.2458 727.73 50.8419Z" fill="#383B40"/>
</svg>
