<svg width="961" height="794" viewBox="0 0 961 794" fill="none" xmlns="http://www.w3.org/2000/svg">
<path fill-rule="evenodd" clip-rule="evenodd" d="M430.599 791.448C389.528 787.783 329.614 775.254 297.326 763.502C286.909 759.778 285.335 758.603 285.893 755.037C286.51 750.436 284.18 749.818 278.961 753.085C274.679 755.814 263.943 751.77 228.787 734.103C200.623 719.861 183.892 709.663 158.436 691C130.511 670.524 119.615 660.505 119.615 655.286C119.615 651.701 118.839 650.924 116.189 651.781C113.7 652.558 109.198 649.052 98.9998 638.475C8.11277 544.023 -22.6212 414.156 16.9166 291.46C37.3727 227.582 86.1528 159.262 143.418 114.068C160.787 100.444 162.181 99.6671 162.181 103.711C162.181 105.344 163.117 106.678 164.193 106.678C165.447 106.678 165.826 104.965 165.129 102.236C164.192 98.3524 165.826 96.6393 179.29 87.6163C290.952 12.8432 440.419 -16.3365 582.396 8.88003C619.205 15.4132 656.253 25.9099 691.409 39.9124C727.979 54.5523 777.456 81.6215 775.763 86.1429C774.667 89.2502 781.579 96.2412 784.228 94.6079C785.243 93.9904 785.483 92.5165 784.707 91.2616C781.121 85.5053 814.803 110.802 836.434 130.182C922.103 206.967 967.317 313.251 959.847 420.55C957.816 448.874 952.059 478.811 948.175 481.082C946.303 482.098 945.686 484.268 946.303 487.615C947.618 494.227 940.228 516.477 928.635 540.996C883.202 637.38 791.698 717.133 678.423 759.081C632.591 776.031 570.186 789.336 523.577 792.145C513.399 792.682 512.064 792.384 512.064 789.416C512.064 784.915 506.388 785.134 505.153 789.815C504.297 793.32 502.723 793.46 476.192 793.241C460.795 793.081 440.26 792.305 430.599 791.448ZM852.229 643.216C851.073 639.79 847.11 639.173 847.11 642.439C847.11 644.073 848.425 645.407 850.059 645.407C851.692 645.407 852.627 644.391 852.229 643.216ZM81.651 195.533C82.2684 194.518 81.4917 193.661 79.8584 193.661C78.3048 193.661 76.9705 194.518 76.9705 195.533C76.9705 196.549 77.7671 197.406 78.763 197.406C79.6992 197.406 81.0335 196.549 81.651 195.533ZM419.485 9.49704C419.485 7.94341 418.23 6.68875 416.676 6.68875C415.202 6.68875 413.948 7.94341 413.948 9.49704C413.948 11.0507 415.202 12.3059 416.676 12.3059C418.23 12.3059 419.485 11.0507 419.485 9.49704ZM593.531 775.733C593.531 774.179 592.515 773.163 591.28 773.541C587.854 774.716 587.316 778.68 590.583 778.68C592.216 778.68 593.531 777.366 593.531 775.733ZM545.607 774.02C681.211 758.065 801.278 694.426 872.705 600.591C880.095 590.851 887.166 583.004 888.42 583.163C889.655 583.243 890.592 582.526 890.592 581.53C890.592 580.514 889.894 579.896 888.958 580.195C888.022 580.513 888.878 578.482 890.671 575.613C911.844 543.406 929.273 501.159 937.898 461.004C943.574 434.552 944.989 380.156 940.627 351.055C931.524 289.667 907.244 236.227 864.38 183.165C855.974 172.807 850.058 164.023 851.233 163.624C852.548 163.166 852.787 161.533 851.931 159.342C850.596 156.076 850.297 155.996 848.425 158.804C846.712 161.533 844.381 159.98 830.597 146.973C767.656 87.7759 679.438 43.6568 590.264 26.9255C582.795 25.5312 578.672 23.8984 578.672 22.1855C578.672 19.2176 577.735 19.0582 573.373 21.4086C571.281 22.4842 563.335 22.1053 550.826 20.1534C536.664 17.9026 517.662 17.1257 479.618 17.046C447.49 16.9663 427.333 16.1897 426.476 15.0146C425.699 13.939 424.305 14.3173 422.831 16.1099C421.198 18.0619 414.425 19.8351 402.833 21.3289C348.675 28.3203 288.303 47.163 237.73 72.7579C68.1065 158.566 -15.3711 321.656 27.9711 482.476C68.8035 633.735 226.835 752.149 416.676 773.86C447.49 777.365 516.427 777.525 545.607 774.02ZM443.526 770.115C426.556 768.88 380.724 762.028 362.996 758.144C240.3 731.075 131.447 659.569 74.3409 568.682C13.6499 471.979 7.81388 355.955 58.5457 254.671C121.487 129.087 265.198 40.0717 429.285 24.9737C462.349 21.9461 534.872 23.9776 562.957 28.6385C622.393 38.5976 668.702 52.9989 715.45 76.2634C811.854 124.027 883.66 199.258 916.186 286.241C923.815 306.877 930.826 333.169 930.129 338.766C929.811 340.957 930.189 343.665 930.906 344.761C937.519 355.417 937.2 427.701 930.428 459.291C913.697 537.331 870.594 605.869 803.609 661.122C734.671 717.909 650.019 753.484 551.822 766.769C531.824 769.498 463.604 771.609 443.526 770.115ZM510.192 765.693C547.081 763.363 571.66 759.937 604.027 752.548C725.648 725.001 828.826 654.43 886.011 559.818C891.449 550.875 896.427 543.545 897.204 543.545C897.901 543.545 898.997 541.295 899.535 538.506C900.092 535.698 904.295 524.264 908.876 513.05C958.911 391.828 924.672 251.324 821.655 154.761C759.41 96.48 678.343 56.0262 586.061 37.4226C549.193 29.9532 528.259 28.1606 479.618 28.2403C427.651 28.3199 405.243 30.7299 359.112 41.0077C205.044 75.4065 78.1453 182.527 41.9737 308.729C31.7755 344.303 29.9831 357.907 29.9831 398.282C29.9831 431.206 30.6006 437.819 34.9627 458.594C52.9289 543.485 103.123 617.382 180.227 672.556C260.378 729.821 349.93 759.539 462.967 766.39C468.105 766.629 473.942 767.088 475.973 767.247C477.985 767.406 493.401 766.709 510.192 765.693ZM625.121 74.4709C623.328 72.3595 620.997 71.662 618.189 72.3592C613.528 73.5343 612.593 71.662 616.019 68.2361C617.573 66.6824 617.333 64.9696 615.003 61.3843C611.895 56.6438 611.895 56.5643 616.635 57.8192C619.902 58.596 622.551 57.9782 625.041 55.7075C628.546 52.5206 628.706 52.6005 628.706 57.122C628.706 60.6873 629.942 62.161 633.766 63.2565C638.885 64.6508 638.884 64.6508 633.905 66.5231C630.558 67.778 628.706 70.0288 628.307 73.0564C627.849 77.3388 627.531 77.4188 625.121 74.4709ZM591.44 66.3639C588.87 62.7985 587.695 62.4 583.572 64.0333C578.134 66.065 577.736 65.5872 580.922 60.4682C582.795 57.5004 582.556 56.1859 579.528 52.8396C575.943 48.7166 575.942 48.7162 581.001 49.9511C584.886 50.8872 586.539 50.3495 588.392 47.4613C591.439 42.4818 593.531 42.8005 593.531 48.1585C593.531 51.4251 594.846 52.919 598.59 53.915C603.57 55.2495 603.649 55.3293 599.606 57.122C596.956 58.3569 595.323 61.0058 595.004 64.8102C594.387 70.5665 594.388 70.5666 591.44 66.3639ZM369.53 63.575C369.53 60.3881 368.215 58.4362 365.785 57.5797C361.363 56.1854 362.678 52.9989 367.658 52.9989C370.227 52.9989 371.323 51.4255 371.781 47.0036C372.418 40.9286 372.418 40.928 374.907 45.9873C377.079 50.2697 378.234 50.8077 383.154 49.8715C388.91 48.7162 388.91 48.716 385.405 52.7594C382.516 56.026 382.218 57.5005 383.931 61.2451C385.942 65.5873 385.863 65.7466 381.441 63.7348C377.696 62.0219 376.222 62.2406 373.195 65.049C369.609 68.3156 369.53 68.2359 369.53 63.575ZM404.705 57.2612C404.705 53.2975 403.45 51.1264 400.503 49.7918C396.379 47.8598 396.379 47.8598 401.439 46.5252C404.785 45.6688 406.956 43.5774 407.733 40.6096C408.828 36.0284 408.829 36.0286 411.856 40.3907C413.947 43.4183 416.218 44.5135 419.485 44.0354C424.066 43.3383 424.066 43.4181 420.561 47.2224C417.692 50.509 417.374 51.9828 419.087 55.7075C421.118 60.0696 421.038 60.1493 416.676 58.1973C412.952 56.4843 411.458 56.7237 408.351 59.4525C404.785 62.7988 404.705 62.7188 404.705 57.2612ZM556.104 59.213C553.455 56.6436 552.061 56.4047 548.336 58.1176C543.815 60.1493 543.735 60.0696 545.766 55.7075C547.479 51.9828 547.16 50.5091 544.272 47.1629C540.707 43.1792 540.787 43.1787 545.847 44.4336C550.109 45.4494 551.284 44.8918 553.157 40.9281C555.248 36.1875 555.247 36.1875 557.657 41.8642C559.291 45.7482 561.243 47.4613 564.191 47.4613C568.393 47.4613 568.394 47.4612 564.43 50.2696C562.259 51.7436 560.148 55.1695 559.849 57.739C559.292 62.1608 559.071 62.2406 556.104 59.213ZM440.259 54.2334C440.957 50.429 440.339 48.477 437.77 46.8437C432.949 43.8958 433.408 41.8642 438.925 41.8642C442.271 41.8642 443.526 40.9282 443.526 38.279C443.526 32.7617 446.713 32.0647 448.028 37.2633C448.884 40.7689 450.377 41.8642 454.023 41.8642C458.624 41.8642 458.764 42.1032 455.975 45.2104C454.023 47.3018 453.406 50.1108 454.103 52.8396C455.119 56.8034 454.88 56.9624 451.076 54.9307C447.65 53.0584 446.315 53.2972 443.128 56.1057C439.403 59.452 439.323 59.3723 440.259 54.2334ZM521.087 55.7075C518.677 53.2974 517.204 53.0585 514.256 54.6918C508.799 57.58 507.942 57.1818 510.272 52.8396C511.906 49.7921 511.686 48.3178 509.415 45.7484C505.452 41.3265 505.771 40.3906 510.909 41.4065C514.395 42.1036 515.491 41.2469 516.507 37.3429C517.821 31.9849 521.327 32.6023 521.327 38.279C521.327 40.9282 522.582 41.8642 525.928 41.8642C530.968 41.8642 532.062 44.5929 527.939 46.9234C526.465 47.7002 525.071 50.7278 524.673 53.5362C524.135 58.3564 523.897 58.516 521.008 55.7075H521.087ZM475.734 52.6001C476.67 48.6364 476.132 47.0031 473.164 45.2104C468.184 42.0235 468.503 40.0716 473.941 40.0716C476.829 40.0716 478.921 38.6777 479.618 36.3473C480.315 34.3156 481.49 32.6023 482.346 32.6023C483.203 32.6023 484.298 34.3156 484.836 36.3473C485.453 38.9167 487.327 40.0716 490.912 40.0716C496.051 40.0716 496.051 40.0717 492.226 44.1947C489.358 47.3817 488.801 49.4133 489.976 52.5205C491.848 57.5001 490.513 57.8186 485.852 53.6159C482.665 50.8074 482.188 50.8076 478.463 54.0742C474.5 57.6595 474.499 57.6594 475.734 52.6001ZM479.081 757.826C477.527 754.021 475.654 752.767 471.85 752.767C466.791 752.767 466.791 752.766 471.073 749.818C474.26 747.568 475.037 745.695 474.18 742.349C473.005 737.609 474.798 736.673 478.383 740.238C480.176 742.031 481.411 742.031 484.299 740.238C489.358 737.051 490.274 737.37 488.879 741.812C488.103 744.222 488.801 746.931 490.912 749.201C493.94 752.627 493.939 752.767 489.577 752.767C486.231 752.767 484.458 754.181 483.044 757.826C481.112 762.965 481.112 762.965 479.001 757.826H479.081ZM440.957 755.495C440.1 752.069 438.547 750.914 434.722 750.914C429.683 750.835 429.683 750.835 434.025 747.489C437.292 744.999 438.068 743.047 437.152 740.099C435.658 735.498 438.308 734.8 441.733 738.923C443.825 741.413 444.542 741.413 448.506 738.844C452.868 736.055 452.868 736.055 451.693 740.716C450.916 743.982 451.533 746.632 453.784 749.122C456.991 752.687 456.912 752.767 451.235 752.767C447.411 752.767 445.398 753.703 445.398 755.416C445.398 760.156 442.132 760.236 440.957 755.495ZM516.666 756.511C515.809 753.782 513.857 752.767 509.575 752.687C503.739 752.687 503.739 752.687 508.101 749.341C511.846 746.472 512.144 745.377 510.351 741.951C507.941 737.449 511.367 736.195 515.331 740.178C516.964 741.812 518.459 741.493 521.566 738.764C525.61 735.199 525.609 735.198 524.434 739.78C523.498 743.285 524.215 745.218 527.402 747.648C531.525 750.835 531.525 750.835 527.243 750.914C524.434 750.914 522.422 752.547 521.247 755.575C519.155 761.172 518.22 761.331 516.666 756.511ZM402.215 755.256C401.498 754.559 400.961 752.547 400.961 750.755C400.961 748.882 398.79 746.711 395.902 745.616C390.763 743.743 390.763 743.743 395.125 742.429C398.79 741.333 399.328 740.317 398.391 735.577C397.236 730.06 397.316 730.06 400.881 733.246C403.371 735.577 406.02 736.195 409.366 735.338C413.649 734.262 414.107 734.561 413.031 737.987C412.175 740.557 412.952 743.206 415.123 745.695C418.469 749.42 418.469 749.42 413.091 748.803C408.829 748.265 407.115 749.121 405.482 752.308C404.387 754.559 402.833 755.894 402.215 755.256ZM553.694 752.687C552.678 749.5 551.523 749.042 546.624 750.138C540.787 751.372 540.788 751.372 544.751 746.93C547.938 743.584 548.395 741.812 546.921 739.242C544.432 734.801 545.986 733.486 550.587 735.896C553.375 737.45 554.789 737.211 556.502 735.119C559.849 731.076 561.641 731.853 560.705 736.832C559.988 740.178 560.786 741.652 563.733 742.509C569.032 744.222 568.554 747.249 562.957 747.249C559.212 747.249 558.296 748.106 558.296 751.83C558.296 757.447 555.327 757.985 553.694 752.627V752.687ZM590.184 746.074C589.029 743.983 586.918 743.285 583.572 743.903C577.975 744.998 577.576 744.142 581.619 739.62C583.89 737.131 584.109 735.577 582.476 732.629C580.624 729.044 580.843 728.884 585.743 729.821C589.647 730.597 591.44 730.139 592.216 727.948C594.069 723.287 596.797 724.522 595.781 729.582C595.084 733.326 595.941 734.641 600.223 736.433C605.521 738.684 605.522 738.684 600.463 739.382C596.957 739.86 595.403 741.174 595.403 743.525C595.403 748.265 592.295 749.819 590.184 746.074ZM362.06 743.525C362.06 741.095 360.427 739.461 357.16 738.605C352.261 737.449 352.26 737.449 357.32 734.8C360.965 732.848 361.981 731.215 361.124 728.586C359.81 724.224 361.602 723.985 365.945 727.948C368.514 730.219 370.067 730.438 373.115 728.805C377.238 726.554 377.935 727.869 375.127 732.39C373.972 734.262 374.27 736.513 376.063 739.322C378.712 743.286 378.633 743.365 373.494 742.349C369.689 741.572 367.896 742.111 367.04 744.302C365.486 748.425 362.14 747.947 362.14 743.525H362.06ZM627.152 738.306C625.121 734.72 623.807 734.263 618.827 735.258C612.911 736.593 612.911 736.593 616.556 732.55C619.524 729.204 619.823 727.869 617.97 724.921C614.923 720.021 615.002 719.861 620.46 720.877C623.647 721.495 625.977 720.638 627.77 718.308C630.26 715.041 630.42 715.121 630.499 719.782C630.499 723.447 631.813 725.16 635.617 726.474C640.677 728.267 640.677 728.267 635.698 730.219C632.272 731.614 630.559 733.784 630.181 737.37C629.563 742.588 629.563 742.588 627.152 738.306ZM325.112 733.944C325.112 730.677 323.618 728.884 319.973 727.49C314.914 725.538 314.914 725.538 319.973 724.144C323.857 723.048 325.112 721.574 325.112 718.069C325.112 713.488 325.172 713.408 328.677 716.595C330.868 718.547 333.896 719.463 336.147 718.925C340.27 717.83 340.748 718.925 338.099 723.128C336.923 725 337.242 727.331 339.254 730.279C342.063 734.721 342.063 734.721 337.083 733.486C333.577 732.629 331.008 733.167 328.518 735.338C325.252 738.386 325.112 738.306 325.112 733.944ZM660.914 725.459C659.201 722.75 658.105 722.67 653.982 724.522C648.465 727.012 648.066 726.554 651.333 721.256C653.205 718.308 653.126 716.834 651.194 713.647C648.844 709.982 649.003 709.743 653.445 710.918C657.09 711.854 658.664 711.157 660.377 707.871C662.627 703.748 662.628 703.748 664.261 708.727C665.197 711.456 667.686 714.264 669.857 714.961C673.681 716.196 673.682 716.276 669.001 718.686C665.495 720.559 664.42 722.271 665.197 725C666.352 729.502 663.643 729.9 660.914 725.459ZM288.064 720.718C288.064 717.053 286.909 715.499 283.403 714.643C278.264 713.328 278.962 710.221 284.479 710.221C286.75 710.221 288.064 708.886 288.064 706.636C288.064 701.337 291.251 700.262 293.582 704.604C295.155 707.492 296.709 708.11 300.354 707.174C304.796 706.098 304.955 706.237 302.923 709.982C301.768 712.233 301.37 715.739 301.987 717.83C303.083 721.116 302.624 721.495 299.198 720.399C296.549 719.543 293.98 720.18 291.649 722.351C288.144 725.458 288.064 725.379 288.064 720.718ZM694.915 712.711C692.266 710.062 690.951 709.902 687.047 711.695C682.307 713.866 682.306 713.787 684.876 708.807C687.206 704.305 687.126 703.369 684.477 700.959C681.768 698.389 681.988 698.071 686.669 697.533C689.537 697.214 692.265 695.741 692.883 694.347C694.376 690.443 697.165 691.08 697.165 695.203C697.165 697.374 699.117 699.485 702.304 700.64C707.204 702.513 707.205 702.592 703.321 703.748C700.512 704.604 699.037 706.716 698.639 710.44C698.101 715.659 697.943 715.739 694.915 712.711ZM251.653 706.476C252.51 702.971 251.813 701.119 248.705 698.768C244.582 695.581 244.583 695.581 249.622 693.729C253.128 692.395 254.681 690.442 254.681 687.574C254.681 683.451 254.681 683.451 257.569 687.574C259.362 689.984 262.389 691.697 265.277 691.697C269.938 691.697 270.018 691.857 266.911 695.203C264.341 697.992 264.102 699.545 265.656 702.513C268.305 707.492 268.226 709.584 265.417 706.875C262.31 703.748 258.426 704.066 254.143 707.871C250.558 710.998 250.478 710.998 251.574 706.476H251.653ZM728.059 695.9C725.41 693.251 724.254 693.091 721.206 694.964C716.067 698.151 715.53 697.852 717.482 692.793C718.717 689.447 718.498 687.654 716.546 686.02C712.423 682.674 713.359 680.344 718.259 681.658C721.765 682.515 722.999 681.897 723.935 678.85C725.489 674.03 728.676 673.81 728.676 678.551C728.676 680.802 730.389 682.435 733.735 683.292C738.715 684.546 738.715 684.606 735.13 687.255C732.72 689.048 731.644 691.618 732.022 694.565C732.72 699.943 732.262 700.102 728.059 695.9ZM216.478 685.622C217.255 682.674 216.478 680.563 213.53 678.312C209.407 675.125 209.407 675.125 214.466 675.045C218.35 675.045 219.745 673.87 220.681 670.145C221.936 665.246 221.935 665.246 224.505 670.145C226.297 673.571 228.548 675.045 232.133 675.045C236.874 675.125 236.954 675.285 233.687 677.775C231.197 679.627 230.56 681.658 231.417 685.084C232.512 689.526 232.353 689.665 227.851 687.654C224.266 686.02 222.633 686.02 220.999 687.654C217.494 691.159 215.323 690.144 216.478 685.622ZM759.569 677.376C756.92 674.727 755.765 674.587 752.718 676.44C747.738 679.567 747.518 679.408 748.594 674.03C749.211 670.763 748.375 668.433 746.025 666.64C742.679 664.15 742.838 663.991 747.519 663.991C750.786 663.911 752.877 662.676 753.654 660.186C754.271 658.155 755.526 656.522 756.303 656.522C757.159 656.522 758.255 658.155 758.792 660.186C759.49 662.835 761.362 663.911 765.007 663.911C770.305 663.991 770.305 663.991 766.022 667.258C762.596 669.907 761.979 671.699 762.995 675.583C764.469 681.419 763.931 681.738 759.569 677.376ZM193.99 666.341C190.803 664.071 189.25 663.852 187.616 665.485C184.19 668.891 182.019 667.974 183.194 663.453C183.971 660.505 183.115 658.394 180.147 656.063C176.024 652.876 176.024 652.877 181.083 652.877C184.35 652.797 186.84 651.402 188.314 648.674C190.505 644.55 190.505 644.55 192.357 648.674C193.532 651.243 195.862 652.797 198.512 652.797C203.491 652.797 204.427 656.063 199.906 657.776C197.815 658.553 197.276 660.346 198.053 664.15C198.591 667.118 198.91 669.448 198.671 669.369C198.432 669.289 196.341 667.975 193.99 666.341ZM777.775 653.952C778.631 650.606 777.854 648.753 774.667 646.562C770.385 643.535 770.385 643.535 775.285 643.535C778.95 643.535 780.583 642.28 781.818 638.475C783.531 633.337 783.531 633.337 785.781 637.539C787.275 640.268 789.765 641.742 793.032 641.742C798.091 641.822 798.091 641.822 793.809 645.407C790.303 648.276 789.905 649.61 791.478 652.637C794.506 658.234 793.888 659.011 788.988 655.824C785.084 653.335 784.228 653.255 782.296 655.665C778.87 659.788 776.54 658.872 777.775 653.952ZM163.276 642.599C160.706 640.647 158.834 640.507 156.185 641.901C151.664 644.311 150.19 642.997 152.6 638.555C154.094 635.986 153.616 634.273 150.508 630.927C146.465 626.564 146.465 626.564 151.365 627.819C155.568 628.835 156.723 628.198 159.073 623.776C161.862 618.557 161.862 618.557 163.117 623.537C163.893 626.724 166.144 629.134 169.252 630.15C174.152 631.783 174.152 631.783 170.029 634.034C166.762 635.747 166.065 637.3 167.001 640.806C168.315 646.104 168.016 646.184 163.276 642.599ZM805.082 630.548C805.779 628.059 804.844 625.947 802.513 624.473C797.852 621.585 798.091 619.872 803.15 619.175C805.7 618.796 807.572 616.845 808.27 613.897C809.445 609.296 809.445 609.295 811.695 613.418C813.169 616.147 815.66 617.621 818.787 617.621C823.448 617.621 823.527 617.78 820.419 621.206C817.85 624.015 817.611 625.489 819.324 628.596C821.575 632.878 820.798 633.337 815.739 630.628C813.249 629.294 811.775 629.532 810.062 631.544C806.795 635.528 803.987 634.891 805.162 630.548H805.082ZM135.809 616.387C133.239 613.817 131.825 613.657 128.021 615.45C122.723 617.78 122.344 617.243 125.292 611.785C126.846 608.837 126.547 607.284 123.898 604.236C120.551 600.511 120.551 600.432 125.77 601.368C129.495 602.065 131.526 601.447 133.16 598.878C136.107 594.058 138.139 594.516 138.139 600.033C138.139 603.459 139.076 604.634 141.784 604.634C146.625 604.634 146.625 607.742 141.784 609.295C138.996 610.232 138.378 611.566 139.215 614.972C140.55 620.27 139.932 620.51 135.809 616.387ZM431.774 612.801C424.624 607.901 418.389 607.582 404.227 611.168C397.774 612.881 397.455 609.535 403.61 605.571C410.92 600.751 425.859 601.607 434.025 607.284C442.909 613.419 451.155 613.419 461.572 607.284C472.547 600.811 483.123 600.89 494.417 607.503C500.95 611.327 504.596 612.343 509.814 611.626C517.283 610.63 523.817 614.435 518.3 616.546C511.05 619.334 497.904 617.542 491.689 613.04C487.407 609.853 483.044 608.359 477.825 608.359C472.626 608.359 468.185 609.853 463.903 613.04C455.119 619.494 441.494 619.414 431.774 612.801ZM548.336 610.769C543.118 608.061 532.92 608.22 526.387 611.008C523.897 612.104 523.12 611.626 523.12 608.757C523.12 604.156 526.545 602.842 538.297 602.842C546.762 602.842 558.355 607.204 558.355 610.391C558.355 613.199 553.236 613.339 548.336 610.769ZM830.538 606.108C830.458 602.921 829.044 600.352 826.395 598.958C822.431 596.767 822.431 596.767 827.331 594.197C830.458 592.564 832.31 589.995 832.31 587.505C832.39 583.382 832.39 583.382 835.736 587.744C838.385 591.17 840.099 591.867 843.525 590.792C847.728 589.377 847.807 589.457 844.919 593.898C842.747 597.165 842.429 599.336 843.764 601.667C846.094 605.869 844.621 607.363 840.418 605.013C838.008 603.619 836.434 604.157 833.864 607.204C830.597 611.168 830.598 611.168 830.538 606.108ZM379.728 597.783C377.616 597.324 374.748 595.771 373.195 594.436C371.701 593.042 368.136 591.09 365.327 589.995C360.427 588.142 358.176 582.466 362.379 582.466C363.454 582.466 368.912 585.015 374.43 588.222C385.783 594.676 393.173 594.596 401.897 587.664C410.063 581.211 423.449 580.892 432.472 586.887C443.984 594.516 448.426 594.675 461.035 587.903C474.181 580.892 485.454 580.892 495.194 588.143C502.962 593.899 513.24 593.739 521.645 587.744C530.051 581.748 545.687 581.609 553.853 587.445C563.574 594.357 568.095 594.516 581.082 588.222C587.535 585.015 593.928 582.466 595.163 582.466C598.908 582.466 596.558 588.839 592.514 589.616C590.503 589.994 586.679 591.867 583.97 593.819C574.927 600.193 564.351 600.193 552.38 593.739C539.154 586.668 536.743 586.668 523.577 593.739C510.989 600.511 501.329 600.193 490.274 592.644C481.57 586.728 473.702 586.728 464.998 592.644C453.864 600.193 445.777 600.511 431.934 593.739C417.373 586.668 416.378 586.668 403.451 593.58C393.571 598.878 388.054 599.814 379.648 597.783H379.728ZM111.369 589.218C110.194 586.668 108.501 586.031 104.517 586.887C98.5419 588.062 98.3027 587.585 101.49 582.466C103.282 579.578 103.282 578.343 101.49 576.55C97.984 573.124 98.7609 570.933 103.043 572.347C105.533 573.124 108.182 572.347 110.433 570.315C113.859 567.208 114.018 567.208 114.018 571.013C114.018 573.423 116.03 575.992 119.157 577.625C124.216 580.275 124.216 580.275 119.237 581.53C115.651 582.466 114.018 584.178 113.54 587.744C113.003 592.026 112.684 592.186 111.369 589.218ZM852.708 575.534C852.708 570.714 851.93 569.459 848.962 569.459C846.95 569.459 845.238 568.682 845.238 567.746C845.238 566.81 846.95 565.496 848.962 564.878C851.372 564.101 852.708 562.069 852.708 558.882C852.708 554.301 852.786 554.222 856.272 557.409C858.842 559.659 861.412 560.277 864.758 559.42C869.518 558.265 869.578 558.345 866.789 562.388C864.14 566.193 864.14 566.969 866.789 571.013C869.737 575.534 869.658 575.534 864.539 574.279C860.416 573.204 858.702 573.821 856.053 577.247C852.787 581.529 852.787 581.529 852.708 575.534ZM369.53 572.964C363.933 569.937 359.033 566.671 358.714 565.735C357.479 562.149 368.056 564.101 374.669 568.602C383.453 574.518 391.699 574.439 402.295 568.304C407.733 565.037 413.41 563.324 418.389 563.324C423.369 563.324 429.045 565.037 434.503 568.304C439.164 570.933 445.319 573.204 448.187 573.204C451.075 573.204 457.21 570.933 461.812 568.304C473.085 561.691 482.964 561.771 494.477 568.443C504.834 574.518 513.857 574.22 522.96 567.527C531.445 561.213 544.433 561.452 553.934 568.144C563.116 574.438 571.601 574.598 581.48 568.523C589.647 563.464 597.196 562.547 597.196 566.511C597.196 567.905 594.925 569.698 592.136 570.395C589.328 571.092 585.523 572.964 583.731 574.598C581.938 576.231 576.023 577.865 570.585 578.343C562.259 579.04 559.212 578.342 552.38 574.359C541.724 568.144 532.54 568.065 523.577 574.14C514.395 580.354 502.664 580.354 492.625 574.22C483.044 568.304 471.85 567.985 464.839 573.502C456.593 579.976 442.271 580.354 432.013 574.359C421.735 568.304 413.33 568.224 403.769 574.14C393.412 580.514 382.596 580.115 369.53 572.964ZM90.9925 560.515C90.0564 557.568 88.2639 556.552 83.9815 556.552C78.4641 556.552 78.3845 556.392 81.4917 552.966C84.0612 550.158 84.3 548.684 82.6667 545.577C80.3163 541.215 83.7423 539.98 87.5666 543.784C89.1203 545.338 90.2758 544.8 92.0684 541.912C95.4147 536.634 97.9842 537.012 96.8887 542.629C96.2713 545.976 96.9684 547.529 99.4582 548.306C103.661 549.621 104.059 552.807 100.095 552.807C98.4619 552.807 96.052 555.456 94.7175 558.723C92.387 564.18 92.1478 564.32 90.9925 560.515ZM370.845 554.301C365.008 551.174 360.268 547.449 360.268 546.035C360.268 542.39 363.933 543.007 372.258 548.146C382.377 554.361 393.173 554.301 403.989 547.987C413.888 542.231 425.779 542.549 434.423 548.923C441.733 554.361 453.485 554.062 462.967 548.146C472.707 542.151 482.885 542.151 492.625 548.146C502.345 554.142 513.858 554.361 521.566 548.684C529.653 542.689 545.767 542.848 554.312 548.923C562.478 554.759 571.66 554.6 583.113 548.465C588.093 545.736 593.371 543.545 594.845 543.545C598.829 543.545 596.797 549.939 592.514 550.716C590.503 551.094 586.539 553.126 583.572 555.138C574.549 561.611 564.27 561.532 551.901 554.919C538.675 547.828 537.82 547.828 524.056 554.679C510.133 561.691 505.293 561.611 491.689 554.52C479.399 548.146 472.926 548.306 462.967 555.377C455.039 560.974 440.339 560.835 432.472 554.999C423.13 548.147 416.437 547.987 404.227 554.52C391.002 561.691 384.469 561.611 370.845 554.301ZM872.705 543.167C872.307 540.597 870.434 538.725 867.566 538.028C862.965 536.932 862.964 536.932 867.327 533.905C870.374 531.813 871.371 529.702 870.673 527.053C869.518 522.472 870.673 522.233 875.035 526.117C877.605 528.467 879.078 528.607 882.106 526.973C885.233 525.34 886.011 525.5 886.011 527.691C886.011 529.165 885.074 530.957 883.978 531.654C882.743 532.431 883.52 534.523 886.309 537.49C890.591 542.151 890.591 542.151 884.755 540.916C879.855 539.9 878.68 540.279 877.685 543.486C876.131 548.465 873.402 548.306 872.705 543.167ZM74.4205 529.244C73.4047 526.117 71.6123 525.042 67.3299 525.042C61.8125 525.042 61.7328 524.961 64.9197 521.456C67.0908 518.966 67.8081 516.317 67.0113 513.13C65.9358 508.688 66.095 508.549 70.5169 510.561C74.4208 512.353 75.815 512.114 79.0816 509.166C83.0453 505.661 83.0452 505.661 81.8102 511.417C80.8741 515.779 81.1729 517.492 83.3639 518.269C87.3276 519.822 87.0092 523.248 82.9658 523.248C80.954 523.248 78.8424 525.34 77.7668 528.308C75.8945 533.367 75.8152 533.367 74.4807 529.244H74.4205ZM629.642 523.328C619.902 519.364 614.465 505.422 617.652 493.212C623.089 472.915 651.573 474.07 655.457 494.765C659.042 514.146 645.039 529.622 629.642 523.328ZM642.469 511.736C646.592 505.82 646.135 494.387 641.613 489.865C637.251 485.503 636.096 485.364 631.355 488.77C628.626 490.802 627.77 493.69 627.77 501C627.77 514.525 636.175 520.679 642.469 511.736ZM226.995 505.74C226.995 488.312 226.995 488.312 220.92 487.695C216.338 487.217 214.765 486.141 214.307 482.875C213.769 478.672 213.908 478.671 230.958 479.209C246.833 479.667 248.228 479.986 248.228 483.412C248.228 486.22 246.833 487.217 242.232 487.695C236.257 488.312 236.256 488.312 236.256 505.74C236.256 523.169 236.177 523.248 231.576 523.248C226.995 523.248 226.995 523.169 226.995 505.74ZM254.462 501C261.075 478.811 261.075 478.811 267.051 478.811C272.966 478.811 273.045 478.97 277.806 495.004C280.435 503.868 283.403 513.13 284.419 515.461C287.128 521.994 286.59 523.248 280.913 523.248C276.472 523.248 275.376 522.313 274.46 517.652C273.444 512.812 272.588 512.114 267.051 512.114C261.533 512.114 260.597 512.812 259.661 517.652C258.725 522.313 257.649 523.248 253.207 523.248C247.849 523.248 247.849 523.249 254.462 501ZM270.257 499.586C268.225 491.26 266.134 486.599 265.975 490.104C265.895 491.817 265.357 495.702 264.64 498.889C263.644 503.948 264.023 504.725 267.528 504.725C270.875 504.725 271.253 503.948 270.257 499.586ZM291.729 501C291.729 478.811 291.729 478.811 296.31 478.811C300.832 478.811 300.911 479.05 301.37 496.877L301.907 514.923L310.711 515.461C318.021 515.939 319.495 516.636 319.495 519.584C319.495 522.85 318.101 523.248 305.652 523.248H291.729V501ZM325.112 500.84C325.112 478.512 325.112 478.512 330.152 479.13C335.29 479.667 335.29 479.668 335.768 497.734C336.306 515.78 336.306 515.779 344.552 515.779C351.643 515.779 352.878 516.397 352.878 519.504C352.878 522.85 351.643 523.248 338.955 523.248H325.112V500.84ZM360.268 501C360.268 478.811 360.268 478.811 364.869 478.811C369.53 478.811 369.53 478.811 369.53 501C369.53 523.249 369.53 523.248 364.869 523.248C360.268 523.248 360.268 523.249 360.268 501ZM378.792 501C378.792 478.811 378.792 478.811 384.07 478.811C388.91 478.811 390.225 480.305 397.077 493.132L404.705 507.453L404.387 493.61C404.068 479.827 404.068 479.667 408.968 479.13C413.948 478.512 413.948 478.512 413.948 500.84C413.948 523.248 413.948 523.248 408.43 523.248C403.371 523.248 402.215 521.934 395.523 508.848L388.193 494.547L388.133 508.848C387.974 522.93 387.895 523.248 383.373 523.248C378.712 523.248 378.712 523.249 378.712 501H378.792ZM423.21 501C423.21 478.811 423.21 478.811 428.348 478.811C432.87 478.811 434.264 480.444 441.036 493.829L448.665 508.927L448.427 494.307C448.188 479.667 448.186 479.667 453.246 479.13C458.385 478.512 458.386 478.512 458.386 500.84C458.386 523.248 458.385 523.248 452.868 523.248C447.808 523.248 446.633 521.934 439.941 508.848L432.631 494.547L432.551 508.848C432.392 522.93 432.312 523.248 427.811 523.248C423.209 523.248 423.21 523.249 423.21 501ZM476.91 522.073C476.91 521.456 479.858 511.497 483.443 499.904C490.056 478.811 490.056 478.811 496.051 478.811C502.026 478.811 502.026 478.811 507.862 497.813C511.049 508.23 514.256 518.269 514.953 519.982C515.889 522.631 515.112 523.248 510.591 523.248C506.069 523.248 504.675 522.153 503.041 517.652C501.488 513.13 500.094 512.114 495.413 512.114C490.593 512.114 489.577 512.891 488.641 517.652C487.725 522.313 486.629 523.248 482.187 523.248C479.239 523.248 476.91 522.711 476.91 522.073ZM498.919 501.458C498.76 499.665 498.143 496.18 497.445 493.61C496.111 489.009 496.11 489.009 493.859 495.244C490.911 503.709 491.071 504.725 495.413 504.725C497.743 504.725 498.999 503.569 498.919 501.458ZM519.853 501.458C520.391 479.667 520.39 479.667 525.449 479.13C530.588 478.512 530.589 478.512 530.589 500.84C530.589 523.248 530.589 523.248 524.992 523.248C519.316 523.248 519.316 523.248 519.853 501.458ZM539.851 501V478.811H549.89C563.116 478.811 568.394 481.002 571.123 487.695C573.075 492.276 572.916 494.148 570.426 498.968C568.872 502.075 566.681 504.725 565.765 504.725C564.749 504.725 566.462 508.848 569.41 513.986L574.927 523.248H568.872C563.494 523.248 562.339 522.233 558.754 514.923C556.503 510.321 553.853 506.517 552.837 506.517C551.742 506.517 550.886 510.321 550.886 514.923C550.886 522.93 550.746 523.248 545.368 523.248C539.85 523.248 539.851 523.249 539.851 501ZM559.928 497.494C564.131 494.845 561.642 489.009 556.025 488.391C551.443 487.854 550.886 488.391 550.886 493.451C550.886 499.366 554.471 500.92 559.928 497.494ZM580.544 501V478.811H591.44C605.203 478.811 612.055 483.412 612.055 492.594C612.055 501.298 607.074 506.597 597.653 507.832C589.945 508.848 589.806 509.007 589.806 516.098C589.806 522.472 589.248 523.248 585.204 523.248C580.543 523.248 580.544 523.249 580.544 501ZM599.905 497.952C604.585 493.371 602.713 489.089 595.781 488.391C590.025 487.854 589.806 488.073 589.806 494.387C589.806 501.857 594.467 503.49 599.905 497.952ZM663.862 501V478.811H674.677C682.844 478.811 686.748 479.747 690.473 482.635C696.389 487.296 697.006 496.638 691.808 502.235C688.302 505.979 688.302 506.139 692.744 513.907C698.261 523.627 698.261 523.248 691.568 523.248C686.828 523.248 685.413 521.994 681.928 514.843C677.088 504.804 674.22 505.043 673.443 515.461C672.965 522.312 672.347 523.248 668.383 523.248C663.862 523.248 663.862 523.249 663.862 501ZM684.179 496.399C687.764 492.116 685.035 488.073 678.721 488.073C673.741 488.073 673.123 488.631 673.123 493.61C673.123 498.192 673.822 499.127 677.487 499.127C679.897 499.127 682.924 497.873 684.179 496.399ZM711.945 505.74C711.945 488.312 711.945 488.312 705.97 487.695C701.369 487.217 699.814 486.141 699.356 482.934C698.798 478.891 699.197 478.811 715.371 478.811C726.963 478.811 732.182 479.528 732.799 481.082C734.353 485.424 732.023 488.073 726.665 488.073C721.207 488.073 721.206 488.073 721.206 505.661C721.206 523.169 721.207 523.248 716.625 523.248C712.024 523.248 711.945 523.169 711.945 505.74ZM889.197 508.389C888.5 505.82 886.628 504.645 882.963 504.645C877.685 504.565 877.685 504.565 882.027 500.92C885.373 498.191 886.091 496.179 885.234 492.594C884.059 487.993 884.138 487.913 888.58 490.881C892.304 493.291 893.938 493.451 897.284 491.658C901.029 489.626 901.248 489.786 900.252 493.75C899.535 496.478 900.172 499.287 902.105 501.378C904.913 504.505 904.753 504.725 900.311 504.725C897.124 504.725 895.113 505.979 894.336 508.389C893.699 510.401 892.465 512.114 891.608 512.114C890.831 512.114 889.655 510.401 889.197 508.389ZM59.7809 495.463C59.1634 492.833 57.2112 491.738 53.5661 491.658C48.3476 491.658 48.3477 491.658 52.4708 488.153C55.9764 485.205 56.3549 483.87 54.8809 479.827C52.7895 474.389 54.0246 473.772 58.7651 478.114C61.8923 480.922 62.4298 480.922 66.8715 478.034C71.5324 474.927 71.5328 474.927 70.3576 479.667C69.5011 483.014 70.2179 485.583 72.4687 488.073C75.6556 491.658 75.576 491.738 70.5965 491.738C67.0909 491.738 65.2386 492.893 64.6012 495.463C64.0634 497.494 62.9678 499.127 62.191 499.127C61.4142 499.127 60.3386 497.494 59.7809 495.463ZM901.088 473.991C899.455 470.485 897.981 469.569 895.272 470.485C890.99 471.82 890.353 469.091 894.257 465.904C896.189 464.27 896.428 462.478 895.193 459.211C893.321 454.152 893.858 453.853 899.316 456.721C902.025 458.195 903.578 458.195 905.072 456.721C908.339 453.455 910.052 454.391 910.052 459.371C910.052 462.02 911.287 464.589 912.841 465.127C917.203 466.84 916.107 469.569 910.988 469.569C907.642 469.569 906.386 470.485 906.386 473.134C906.386 478.671 903.439 479.209 901.088 473.991ZM50.8375 462.179C50.2997 458.753 48.7463 457.259 44.6033 456.403C39.0859 455.327 39.0859 455.328 43.8264 452.997C47.6508 451.204 48.5069 449.65 47.8097 445.985C46.8736 441.464 47.0333 441.404 51.2958 444.273C54.3433 446.225 56.6734 446.603 58.5457 445.448C62.9676 442.56 64.3024 443.336 62.1114 447.46C60.4781 450.567 60.7169 452.061 63.2864 454.849C66.314 458.275 66.3139 458.434 61.8123 458.434C59.0039 458.434 55.9763 460.068 54.2634 462.557C51.5346 466.76 51.5346 466.761 50.8375 462.179ZM194.847 459.052C192.516 456.722 193.532 432.919 195.942 431.744C197.814 430.888 197.814 430.429 195.942 429.573C188.951 426.306 196.639 413.937 209.865 407.085C215.701 404.058 229.246 404.058 232.194 407.005C233.986 408.798 234.464 402.026 234.305 374.32C234.066 340.718 234.225 339.164 238.268 333.706C241.535 329.205 242.63 325.161 242.949 314.963C243.248 307.813 244.264 299.089 245.359 295.503C246.435 291.938 247.291 285.465 247.291 281.043C247.291 276.223 248.068 273.493 249.164 274.191C250.18 274.888 251.036 279.947 251.036 285.544C251.036 291.161 251.813 297.216 252.828 299.088C253.745 300.881 254.92 308.112 255.398 315.203C255.776 322.353 257.569 330.759 259.441 334.404C265.277 345.697 265.497 346.713 263.863 349.342C261.772 352.629 261.612 395.493 263.644 395.493C264.421 395.493 266.752 394.238 268.684 392.764C270.715 391.29 274.141 390.036 276.472 389.976C279.36 389.976 280.595 388.8 280.595 386.231C280.595 383.343 281.85 382.506 286.192 382.506C289.618 382.506 291.729 383.502 291.729 384.996C291.729 386.39 295.155 388.88 299.358 390.513C306.887 393.461 306.887 393.461 305.732 388.721C304.955 385.773 305.652 382.347 307.444 379.538C308.998 377.128 310.313 372.846 310.313 370.058C310.313 360.796 312.424 347.33 313.978 347.33C314.755 347.33 315.452 349.203 315.372 351.533C315.372 360.317 318.34 376.192 320.591 379.538C322.144 381.789 322.622 386.071 321.905 391.987C320.909 400.472 321.128 401.01 324.953 401.01C327.602 401.01 329.454 402.425 330.091 404.755C330.629 406.767 332.263 408.4 333.657 408.4C335.908 408.4 336.306 402.643 335.988 373.702C335.768 340.638 335.908 338.308 340.668 324.226C346.584 306.479 348.596 292.874 345.648 291.002C342.68 289.209 343.078 286.241 346.345 286.241C347.898 286.241 349.153 287.894 349.153 289.827C349.153 291.858 349.93 293.95 350.926 294.567C352.101 295.284 352.021 296.917 350.707 299.088C348.994 301.817 349.771 306.1 354.591 320.72C360.188 337.531 360.666 340.718 360.347 360.796L360.109 382.506H393.571V392.684C393.571 401.628 394.029 402.882 397.316 402.882C400.801 402.882 400.961 401.628 400.961 376.033V349.203H428.747V366.771C428.747 382.964 429.046 384.359 432.312 384.359C437.212 384.359 438.546 379.001 436.993 364.919L435.738 352.927H458.386V328.966C458.386 307.335 459.321 299.009 463.903 278.852C465.377 272.398 465.376 272.398 465.695 279.788C466.093 292.316 469.042 283.294 471.372 262.14C474.559 233.578 474.1 234.892 480.315 235.828C485.693 236.605 485.693 236.605 487.864 256.364C489.119 267.18 490.832 279.011 491.609 282.516L493.162 289.05L493.322 282.198C493.7 270.924 497.206 271.86 497.206 283.293C497.206 288.89 498.142 293.95 499.237 294.647C500.313 295.364 500.791 297.057 500.173 298.471C499.616 299.866 499.775 301.041 500.552 301.041C501.249 301.041 501.568 312.713 501.249 326.934L500.632 352.927H523.199V378.841H535.17C547.241 378.841 547.241 378.841 547.241 384.359C547.241 389.119 547.937 389.896 551.901 389.896C556.661 389.896 556.661 389.896 556.104 371.83L555.566 353.784L576.342 353.326L597.196 352.768V369.499C597.196 384.916 597.494 386.231 600.841 386.231C604.426 386.231 604.585 384.677 605.043 343.207L605.521 300.184L614.305 298.551C621.535 297.217 624.105 297.615 629.084 300.483C635.159 304.068 635.16 304.068 635.698 338.606C636.176 373.244 636.175 373.245 640.756 373.245C645.278 373.245 645.358 373.005 645.358 358.604C645.358 343.984 645.357 343.985 654.759 342.67C659.977 341.953 664.958 342.112 665.815 343.048C666.751 343.904 667.686 356.194 667.985 370.356C668.383 389.497 669.081 396.27 670.873 396.887C672.745 397.505 673.283 395.015 673.123 386.848C673.044 380.933 674.06 368.962 675.454 360.317C678.023 344.522 678.024 344.522 679.359 353.784C680.136 358.923 681.45 366.552 682.466 370.834C683.402 375.097 684.258 384.916 684.258 392.605C684.258 406.607 684.259 406.607 690.712 406.607C696.389 406.607 697.165 407.165 697.165 411.208C697.165 414.156 698.261 415.869 700.054 415.869C701.687 415.869 702.463 415.013 701.846 414.077C699.496 410.272 714.296 391.907 721.685 389.497C722.84 389.119 724.394 381.57 725.33 372.228C727.521 348.884 728.138 343.984 730.388 332.77C731.484 327.253 732.341 319.943 732.341 316.517C732.341 313.091 733.277 310.303 734.432 310.303C735.527 310.303 736.066 311.378 735.529 312.713C735.07 314.028 735.767 321.735 737.161 329.822C738.635 337.909 739.332 346.713 738.794 349.342C738.097 352.39 738.715 355.039 740.508 356.513C742.6 358.226 743.078 360.875 742.221 366.771C740.349 380.475 742.678 387.546 750.706 392.605C754.669 395.095 759.808 400.711 762.218 405.054C766.262 412.443 766.581 414.794 766.103 436.564L765.565 460.147L653.604 460.227C555.566 460.227 541.723 459.908 541.723 457.498C541.723 453.913 538.217 453.913 536.803 457.498C535.887 459.908 515.172 460.307 365.945 460.307C272.508 460.307 195.564 459.689 194.847 459.052ZM497.824 445.906C510.511 440.309 519.933 430.19 523.12 418.757C524.992 412.144 524.832 408.241 522.422 396.429C520.789 388.562 519.455 376.511 519.455 369.659V357.13L503.281 355.656C483.98 353.943 479.399 353.944 456.832 355.736L439.483 357.13L440.718 367.01C441.495 373.463 440.797 382.566 438.706 393.62C435.658 409.495 435.658 410.89 438.706 420.471C442.51 432.681 451.772 441.245 468.265 448.018C480.634 453.057 481.809 452.997 497.824 445.906ZM478.92 433.856C475.813 430.729 476.431 429.095 480.873 428.477C483.522 428.099 484.996 426.466 485.235 423.817C485.454 419.853 485.455 419.853 476.591 424.275C471.771 426.764 465.855 428.797 463.525 428.797C461.194 428.876 458.147 429.573 456.673 430.509C452.868 432.92 449.362 430.967 450.437 426.924C450.915 424.892 452.39 423.896 453.944 424.514C455.358 425.051 457.907 424.972 459.56 424.354C462.11 423.338 461.731 422.482 457.289 419.056C451.075 414.236 449.601 409.336 453.863 407.703C455.895 406.926 457.13 407.782 457.847 410.272C459.162 415.331 463.285 415.013 463.126 409.814C463.046 406.309 463.902 405.691 469.519 405.691C474.559 405.691 476.053 406.468 476.511 409.336C476.989 412.762 478.144 413.001 491.45 412.443C503.58 411.985 506.229 412.383 508.42 415.252C510.591 418.14 510.591 418.28 508.341 416.348C504.437 412.842 502.424 413.539 503.122 418.14C503.52 420.929 504.754 422.183 506.926 421.785C510.192 421.247 510.989 422.96 510.192 429.733C509.734 434.314 507.165 436.027 502.584 434.851C498.601 433.776 497.983 431.366 501.409 430.111C504.297 429.095 503.042 427.78 497.824 426.147C494.876 425.29 493.561 425.828 492.704 428.557C491.21 433.138 481.808 436.724 478.92 433.856ZM493.561 419.534C493.561 418.518 492.067 417.741 490.274 417.741C487.565 417.741 487.485 417.98 489.816 419.534C493.321 421.785 493.561 421.785 493.561 419.534ZM502.345 408.878C498.6 408.101 497.903 404.755 501.409 404.675C502.664 404.675 501.648 403.579 499.078 402.185C495.035 399.934 494.098 400.074 491.369 403.122C488.103 406.847 479.697 407.783 477.825 404.755C477.128 403.739 478.543 402.882 480.794 402.882C483.045 402.882 484.379 402.345 483.662 401.628C482.965 401.01 483.362 399.297 484.518 397.982C486.091 396.11 484.757 396.27 479.478 398.441C471.153 401.946 461.812 403.739 455.119 403.122C451.295 402.724 452.549 399.138 456.512 399.138C458.544 399.138 460.258 398.441 460.258 397.505C460.258 396.648 458.544 395.493 456.512 394.955C452.628 393.94 451.294 388.104 454.959 388.104C456.134 388.104 458.703 389.418 460.556 391.131C463.683 394.019 463.903 393.939 463.903 390.195C463.903 386.848 464.998 386.231 470.356 386.231C474.957 386.231 476.91 387.088 476.91 389.04C476.91 391.211 479.479 391.748 488.96 391.748C499.457 391.748 501.03 391.37 500.552 388.561C500.233 386.689 501.03 385.534 502.345 385.773C503.58 385.992 504.675 385.454 504.675 384.518C504.675 380.853 494.478 381.49 492.625 385.215C490.215 389.816 478.761 391.37 478.761 387.167C478.761 385.613 480.016 384.359 481.49 384.359C483.044 384.359 484.299 382.726 484.299 380.714C484.299 378.224 486.151 376.511 490.274 375.336C493.62 374.399 494.796 373.543 493.003 373.384C489.577 373.244 478.543 378.224 476.91 380.714C476.053 381.869 458.764 386.231 454.72 386.231C453.784 386.231 453.167 384.598 453.326 382.566C453.565 379.777 454.581 379.16 457.847 380.017C463.126 381.331 463.365 378.064 458.305 374.559C453.485 371.212 452.151 364.68 455.896 363.206C457.689 362.509 459.002 363.425 459.62 365.855C460.795 370.277 466.173 370.894 465.376 366.552C464.54 362.11 472.308 359.78 475.893 363.285C477.447 364.919 478.383 366.711 477.984 367.408C477.606 368.106 482.426 368.344 488.72 368.025C496.269 367.627 502.425 368.404 506.628 370.276C511.767 372.607 512.064 372.925 508.021 372.069C503.659 371.212 503.201 371.611 504.058 374.957C504.595 377.049 506.547 378.841 508.42 378.841C512.921 378.841 513.858 382.566 510.591 387.625C508.878 390.274 508.639 391.748 509.973 391.748C511.129 391.748 512.064 392.605 512.064 393.541C512.064 394.716 510.352 394.796 507.405 393.62C504.377 392.465 502.803 392.525 502.803 393.7C502.803 394.716 504.915 396.429 507.564 397.445C510.91 398.68 512.064 400.154 511.288 402.106C510.67 403.739 510.192 405.691 510.192 406.548C510.192 408.56 506.229 409.735 502.345 408.878ZM413.948 379.857C413.948 376.89 410.542 374.181 408.968 375.814C407.415 377.288 409.824 382.506 412.015 382.506C413.091 382.506 413.948 381.331 413.948 379.857ZM588.631 374.181C589.249 372.468 588.631 371.451 586.997 371.451C585.444 371.451 584.268 372.687 584.268 374.181C584.268 375.734 584.966 376.969 585.902 376.969C586.838 376.969 588.014 375.734 588.631 374.181ZM732.341 373.245C732.341 371.213 731.485 369.579 730.469 369.579C729.453 369.579 728.597 371.213 728.597 373.245C728.597 375.336 729.453 376.969 730.469 376.969C731.485 376.969 732.341 375.336 732.341 373.245ZM739.731 374.32C739.731 372.846 738.953 371.133 737.858 370.515C736.842 369.898 736.066 371.054 736.066 373.165C736.066 375.256 736.842 376.969 737.858 376.969C738.953 376.969 739.731 375.814 739.731 374.32ZM254.84 361.253C254.681 358.445 250.558 359.003 249.562 361.871C249.084 363.425 249.94 364.141 251.813 363.743C253.526 363.365 254.84 362.269 254.84 361.253ZM339.254 346.853C338.716 345.618 338.338 346.634 338.338 349.203C338.338 351.773 338.716 352.768 339.254 351.533C339.732 350.199 339.732 348.187 339.254 346.853ZM251.036 318.609C251.036 317.135 250.18 315.9 249.164 315.9C248.148 315.9 247.291 317.135 247.291 318.609C247.291 320.182 248.148 321.417 249.164 321.417C250.18 321.417 251.036 320.182 251.036 318.609ZM467.647 314.804C467.647 312.394 466.791 310.303 465.775 310.303C464.759 310.303 463.903 312.852 463.903 315.98C463.903 319.326 464.679 321.178 465.775 320.481C466.791 319.863 467.647 317.294 467.647 314.804ZM475.037 314.804C475.037 312.394 474.18 310.303 473.164 310.303C472.148 310.303 471.292 312.852 471.292 315.98C471.292 319.326 472.068 321.178 473.164 320.481C474.18 319.863 475.037 317.294 475.037 314.804ZM482.426 315.9C482.426 312.793 481.57 310.303 480.554 310.303C478.543 310.303 477.985 318.23 479.937 320.182C482.028 322.274 482.426 321.656 482.426 315.9ZM497.206 312.553C497.206 307.414 496.668 306.399 495.413 308.51C493.003 312.155 493.003 321.955 495.413 320.481C496.429 319.863 497.206 316.278 497.206 312.553ZM489.816 315.043C489.816 312.553 488.959 310.064 487.943 309.367C486.947 308.729 486.151 310.601 486.151 313.947C486.151 317.055 486.947 319.545 487.943 319.545C488.959 319.545 489.816 317.533 489.816 315.043ZM649.56 209.536L639.9 205.015L660.058 163.166C671.113 140.2 680.912 121.378 681.768 121.458C685.812 121.617 699.038 128.23 699.038 130.023C699.038 131.098 690.094 150.478 679.119 172.966L659.201 213.978L649.56 209.536ZM832.391 206.429C832.311 202.605 831.156 201.21 827.192 200.194C822.133 198.8 822.132 198.8 826.335 196.928C829.283 195.534 830.458 193.343 830.538 189.22C830.598 183.543 830.597 183.543 834.023 187.666C836.991 191.171 838.306 191.57 842.35 190.076C847.409 188.144 848.583 189.618 844.919 193.283C843.285 194.916 843.286 196.609 844.999 200.354C847.11 204.935 846.95 205.174 843.206 204.238C840.497 203.461 838.147 204.398 835.816 207.206C832.391 211.249 832.391 211.249 832.391 206.429ZM301.37 206.728C293.283 204.716 293.282 204.795 296.011 195.533C298.342 187.447 298.342 187.447 309.377 187.825C322.921 188.363 332.502 183.543 332.502 176.233C332.502 169.859 328.518 168.306 309.237 167.449C289.857 166.513 282.148 163.166 276.551 152.968C269.401 139.982 275.316 124.027 290.474 115.084C304.875 106.679 326.965 106.36 326.885 114.606C326.805 125.262 325.172 127.055 315.452 127.055C302.146 127.055 295.534 131.098 295.454 139.344C295.454 144.404 298.561 145.578 312.723 145.658C342.84 145.897 356.463 156.852 353.276 178.404C350.707 195.912 321.905 211.628 301.37 206.728ZM128.957 203.541C126.766 200.354 125.073 199.737 120.631 200.593C114.954 201.669 114.955 201.668 118.6 197.545C121.647 194.119 121.866 192.884 119.854 189.697C116.966 185.096 118.142 183.463 122.643 185.953C125.292 187.447 127.005 187.049 130.192 184.021C134.395 180.117 134.395 180.117 134.395 185.814C134.395 190.156 135.411 191.948 138.518 192.964C142.641 194.279 142.641 194.279 137.741 195.912C134.235 197.087 132.602 199.099 132.144 202.605C131.606 207.584 131.606 207.584 128.957 203.541ZM606.06 191.491C597.973 189.3 598.431 190.554 589.727 147.451C586.54 131.656 583.731 118.51 583.412 118.191C583.193 117.952 582.396 121.995 581.778 127.294C580.762 135.619 569.888 178.563 568.314 180.515C567.776 181.133 550.885 177.089 549.411 175.994C549.112 175.775 551.364 166.114 554.471 154.522C557.658 143.009 563.115 122.772 566.68 109.626C570.186 96.4802 573.373 85.4253 573.772 85.1266C574.23 84.5689 593.769 89.7876 594.785 90.7237C595.702 91.5802 608.31 151.654 608.469 156.076C608.629 161.294 608.629 161.295 610.182 155.777C610.959 152.65 614.385 138.727 617.652 124.724C624.105 97.0179 623.646 97.6554 636.713 101.3C642.788 102.934 643.725 103.87 642.709 107.296C642.151 109.467 636.953 129.246 631.276 151.096C625.579 172.966 620.539 191.491 620.061 192.267C618.966 194.06 614.843 193.821 605.98 191.491H606.06ZM479.538 184.32C478.92 183.244 478.761 181.909 479.319 181.372C480.713 180.037 484.299 182.387 484.299 184.559C484.299 186.889 481.111 186.73 479.538 184.32ZM808.27 181.053C808.27 178.105 806.556 176.153 802.592 174.52C796.995 172.11 796.995 172.11 801.497 170.078C805.082 168.445 805.779 167.05 804.923 162.848C803.987 157.569 803.987 157.569 807.971 161.135C811.317 164.103 812.711 164.322 816.595 162.549C821.734 160.199 822.133 160.756 819.165 166.194C817.611 169.162 817.93 170.715 820.419 173.504C823.527 176.85 823.448 177.01 818.787 177.01C815.978 177.01 812.871 178.723 811.158 181.133C808.27 185.256 808.27 185.256 808.27 181.053ZM151.903 176.85C150.967 173.982 149.572 173.205 146.226 173.823C141.167 174.759 140.47 173.046 144.513 169.62C146.624 167.907 146.764 166.513 145.29 163.704C142.8 159.043 144.194 157.709 148.875 160.199C151.664 161.693 153.078 161.533 154.791 159.422C158.057 155.458 160.786 155.996 159.372 160.438C158.516 163.087 159.452 165.258 162.48 167.748C166.762 171.333 166.762 171.333 161.703 171.412C157.5 171.492 156.583 172.349 156.583 176.073C156.583 181.75 153.616 182.228 151.903 176.85ZM394.966 179.499C394.428 178.643 391.32 162.768 387.974 144.185C384.548 125.661 381.281 109.626 380.664 108.631C379.887 107.376 375.605 107.455 368.056 108.929C361.742 110.104 356.145 110.642 355.686 110.184C355.288 109.706 354.591 105.663 354.273 101.161L353.735 93.0542L388.512 86.6802C407.653 83.0949 423.608 80.6051 423.986 81.0035C424.385 81.3819 424.922 85.4254 425.321 90.0265C425.938 98.3523 425.938 98.3523 414.346 99.9856C408.052 100.922 402.833 102.555 402.833 103.711C402.833 106.061 413.569 166.672 415.043 172.648C416.139 176.93 414.884 177.707 402.515 179.898C398.869 180.516 395.444 180.356 394.966 179.499ZM474.101 169.859C457.987 162.609 450.298 147.75 450.378 124.266C450.378 95.4647 466.472 77.0998 491.689 77.0998C509.197 77.0998 522.96 86.2818 529.732 102.475C533.397 111.259 533.318 138.03 529.573 146.893C525.072 157.629 517.742 166.034 509.496 169.779C499.696 174.201 483.821 174.281 474.101 169.859ZM503.739 149.941C514.794 138.11 513.001 103.87 501.031 97.4958C494.637 94.0699 484.458 95.2451 479.777 99.906C473.165 106.519 470.137 122.553 473.085 135.619C476.132 149.243 481.571 154.84 491.689 154.84C497.525 154.84 500.313 153.666 503.739 149.941ZM178.832 154.363C176.88 150.399 175.566 149.542 172.06 150.399C166.682 151.733 166.383 149.164 171.442 145.977C174.55 144.025 174.868 142.929 173.155 139.822C170.506 134.843 171.901 133.588 176.721 136.555C179.908 138.567 181.083 138.348 184.589 135.301C188.632 131.656 188.632 131.656 187.457 137.651C186.521 142.631 187.078 144.025 190.425 145.898C194.548 148.148 194.468 148.228 189.09 149.164C185.206 149.861 183.254 151.574 182.398 154.84C181.243 159.422 181.242 159.422 178.832 154.363ZM781.281 155.299C780.424 152.51 778.631 151.096 775.603 151.096C770.703 151.096 769.688 148.387 773.971 146.754C775.524 146.117 776.758 143.547 776.758 140.998C776.758 135.859 778.472 135.082 781.977 138.508C783.69 140.281 784.707 140.281 786.42 138.508C789.845 135.082 791.937 135.938 790.622 140.141C789.846 142.631 790.542 145.26 792.633 147.531C795.74 150.957 795.682 151.096 791.24 151.096C788.272 151.096 785.862 152.59 784.547 155.299C782.516 159.422 782.516 159.422 781.281 155.299ZM751.86 133.369C750.924 129.326 749.929 128.688 746.184 129.704C741.125 130.959 739.81 128.15 744.631 126.278C746.802 125.421 747.359 123.708 746.503 119.665C745.487 114.446 745.567 114.307 750.068 116.319C753.494 117.872 755.207 117.872 756.84 116.239C760.346 112.753 762.138 113.75 760.883 118.51C760.107 121.777 760.884 123.708 763.852 125.74C767.896 128.608 767.895 128.609 762.596 129.246C758.792 129.624 757.159 130.958 756.761 133.986C755.905 139.583 753.354 139.285 751.86 133.369ZM207.375 133.05C206.678 130.72 204.666 128.927 202.794 128.927C198.193 128.927 196.34 125.421 200.145 124.027C202.396 123.091 202.953 121.378 202.176 117.494C201.001 111.498 202.097 110.961 206.917 115.303C210.104 118.191 210.582 118.111 214.307 114.845C218.27 111.339 218.27 111.339 216.956 116.637C216.02 120.442 216.557 122.932 218.828 125.421C221.856 128.768 221.776 128.927 217.334 128.927C214.387 128.927 211.976 130.401 210.642 133.05C208.63 137.253 208.63 137.253 207.375 133.05ZM722.142 115.941C721.286 113.292 719.334 112.196 715.291 112.196C709.693 112.196 709.614 112.116 712.801 108.631C715.071 106.141 715.769 103.492 714.993 100.305C713.817 95.863 714.056 95.7037 718.419 97.7353C722.303 99.5081 723.696 99.2886 726.803 96.4801C730.468 93.2135 730.469 93.2136 729.373 98.8106C728.457 103.491 728.915 104.647 732.182 105.662C737.56 107.375 737.082 110.403 731.405 110.403C728.059 110.403 726.803 111.339 726.803 113.988C726.803 119.047 723.616 120.442 722.142 115.941ZM237.332 113.132C236.396 109.626 234.922 108.551 231.118 108.471C226.058 108.471 226.058 108.471 230.5 105.045C233.607 102.635 234.624 100.444 233.906 97.6557C232.831 93.5326 235.082 92.2773 237.253 95.7829C237.97 96.9581 240.838 97.3364 243.945 96.719C248.845 95.7031 249.243 96.0223 248.228 99.4483C247.451 101.858 248.148 104.567 250.259 106.838C253.366 110.264 253.287 110.403 247.61 110.403C243.786 110.403 241.774 111.259 241.774 113.052C241.774 117.793 238.508 117.872 237.332 113.132ZM690.632 99.0495C689.616 95.8626 688.381 95.3847 683.7 96.3208C678.183 97.4163 678.104 97.4164 681.45 93.7514C684.258 90.6442 684.417 89.1705 682.705 85.3661C680.434 80.5259 681.45 79.669 686.051 82.5572C687.983 83.7921 690.015 83.1751 692.963 80.3865C697.165 76.4029 697.165 76.4029 697.165 82.0198C697.165 85.9835 698.341 88.1545 701.368 89.5487C705.491 91.4211 705.491 91.4212 700.432 92.8354C696.628 93.7517 695.293 95.3252 695.293 98.5918C695.293 104.029 692.345 104.348 690.632 99.0495ZM268.843 96.8789C267.987 93.4529 266.194 91.899 262.628 91.4209C257.489 90.8035 257.489 90.8034 262.788 88.1543C266.751 86.2222 267.847 84.5691 267.21 81.3025C266.194 76.323 267.21 76.024 271.572 79.9877C274.141 82.3181 275.615 82.4775 278.643 80.8442C283.085 78.5138 284.26 82.0194 280.356 85.9034C278.643 87.5367 278.961 89.0109 281.69 92.1181C285.275 96.1815 285.276 96.1813 280.674 95.0061C277.248 94.0699 275.237 94.8472 273.046 97.7353C270.098 101.619 270.098 101.619 268.843 96.8789ZM301.051 84.2701C301.051 81.1629 299.497 78.7528 296.868 77.4183C292.665 75.4066 292.665 75.4066 296.868 74.1517C299.975 73.2156 300.991 71.5028 301.051 67.1407C301.131 61.3245 301.131 61.3245 304.636 65.5074C307.524 69.013 308.919 69.4116 312.882 67.8579C318.42 65.7466 318.957 67.001 314.595 71.8212C311.727 75.0081 311.806 75.4663 315.073 79.2109C318.559 83.1746 318.559 83.1751 313.36 81.9402C309.317 80.9243 307.445 81.5414 304.636 84.8877C301.131 89.0904 301.131 89.0903 301.051 84.2701ZM658.664 84.9673C656.791 81.5414 655.616 81.1628 651.812 82.6368C646.912 84.5091 645.736 82.9361 649.401 79.3708C651.035 77.7375 651.035 76.024 649.401 72.5184C647.37 68.1563 647.529 67.9971 652.509 68.9333C656.313 69.7101 658.106 69.1725 658.883 67.0811C660.755 62.241 664.42 63.575 663.085 68.5545C662.149 72.2793 662.866 73.375 667.049 74.8489C672.187 76.6416 672.187 76.6419 667.208 78.5939C664.26 79.7492 662.009 82.2386 661.611 84.808C660.993 89.0904 660.994 89.0904 658.664 84.9673ZM336.147 73.136C336.147 69.7897 334.673 67.6981 331.088 65.9851C325.949 63.575 325.949 63.5753 330.629 62.3204C333.896 61.5436 335.529 59.5318 336.226 55.7075C337.242 50.1901 337.242 50.1905 339.652 54.5526C341.525 57.8989 343.078 58.5955 346.504 57.739C351.643 56.4841 351.942 57.1218 348.755 62.2408C346.962 65.1289 346.962 66.3638 348.755 68.1564C352.42 71.8214 351.324 73.375 346.424 71.5027C342.68 70.1084 341.365 70.4869 339.035 73.8332C336.147 77.8965 336.147 77.8964 336.147 73.136ZM908.797 438.118C907.861 434.792 906.865 434.394 901.945 435.409C896.189 436.644 896.189 436.644 899.774 432.601C902.881 429.175 903.04 428.02 901.029 424.833C898.14 420.152 899.396 418.678 904.057 421.167C906.706 422.562 908.638 422.342 911.605 420.311C915.41 417.662 915.649 417.741 915.649 422.024C915.649 424.593 917.442 427.78 919.773 429.414C923.975 432.302 923.974 432.302 918.835 432.362C915.11 432.441 913.777 433.457 913.777 436.106C913.777 441.325 909.972 442.878 908.797 438.118ZM114.795 436.962C115.492 435.01 117.046 429.334 118.221 424.354C120.312 415.331 120.313 415.332 111.13 407.325L102.028 399.218H113.321C126.148 399.138 126.845 398.68 131.686 384.837C135.57 373.942 136.107 374.1 140.868 387.167C145.051 398.68 145.768 399.078 159.372 399.218C168.475 399.297 169.949 399.696 167.618 401.568C150.19 415.093 150.588 414.475 153.616 426.147C155.169 432.142 156.185 437.281 155.807 437.66C155.328 438.058 150.748 435.409 145.37 431.824L135.729 425.29L124.595 432.92C116.269 438.517 113.779 439.532 114.795 436.962ZM803.449 435.011C804.067 433.377 805.561 428.238 806.716 423.657C809.046 414.475 808.906 414.236 794.346 403.42C788.829 399.297 788.83 399.297 801.358 399.218C813.947 399.138 813.946 399.138 817.531 390.673C819.563 385.992 821.196 381.092 821.196 379.698C821.196 373.085 824.841 376.351 828.884 386.769C833.326 398.281 833.327 398.281 845.935 399.138L858.464 400.074L849.121 407.085C838.704 414.873 838.625 414.933 842.509 427.701C844.063 432.76 844.92 437.202 844.461 437.66C843.983 438.118 840.019 436.027 835.657 433.079C831.315 430.111 826.794 427.163 825.698 426.526C824.623 425.828 819.643 428.159 814.743 431.664C804.844 438.676 801.657 439.612 803.449 435.011ZM45.5394 428.477C45.5394 424.753 44.3041 423.119 40.42 421.865C35.3608 420.152 35.3608 420.152 39.5635 417.981C42.1928 416.507 43.6866 414.017 43.6866 410.89C43.6866 406.149 43.7666 406.149 47.332 409.256C49.7421 411.527 52.4709 412.224 55.5782 411.448C60.0199 410.273 60.1792 410.511 58.1476 414.933C56.5143 418.518 56.5143 420.152 58.1476 421.785C61.5735 425.211 60.7168 426.526 55.9763 425.61C52.869 424.972 50.678 425.988 48.5069 429.015C45.5391 433.298 45.5394 433.298 45.5394 428.477ZM912.382 402.962C910.988 400.711 908.877 399.935 905.53 400.552C900.631 401.489 899.395 399.536 902.801 396.031C904.295 394.557 904.295 393.003 902.801 390.274C899.933 384.757 900.312 383.98 904.834 386.39C908.26 388.262 909.355 387.944 912.064 384.597C916.266 379.459 917.442 379.618 917.442 385.454C917.442 388.721 918.676 390.593 921.166 391.21C923.197 391.748 924.911 392.844 924.911 393.62C924.911 394.397 923.197 395.493 921.166 396.031C918.995 396.588 917.442 398.521 917.442 400.771C917.442 405.91 914.952 407.005 912.382 402.962ZM43.6866 393.083C43.6866 389.896 42.1928 387.406 39.5635 385.992C35.3608 383.741 35.3608 383.741 40.42 382.028C44.3041 380.793 45.5394 379.16 45.5394 375.415C45.6191 370.515 45.619 370.516 48.9653 374.878C51.4551 378.144 53.4071 378.921 56.355 377.985C60.9561 376.511 61.2549 377.447 58.0679 382.506C56.2753 385.375 56.2753 386.629 58.0679 388.402C61.6532 391.987 60.7167 393.621 56.2152 391.908C53.0083 390.752 50.9966 391.29 47.8894 394.158C43.6866 397.983 43.6866 397.983 43.6866 393.083ZM911.207 368.025C908.498 364.918 907.004 364.52 904.136 366.074C899.535 368.484 897.683 366.85 900.79 363.126C902.742 360.715 902.663 359.62 900.173 356.891C896.05 352.39 896.348 351.215 901.029 352.47C903.817 353.167 906.008 352.151 908.339 349.043C911.605 344.681 911.606 344.681 912.841 349.502C913.697 352.768 915.809 354.88 918.996 355.736C923.896 356.971 923.895 357.05 919.852 358.923C917.282 360.098 915.648 362.807 915.25 366.313C914.712 371.83 914.712 371.83 911.207 368.025ZM47.4116 357.907C47.4116 354.72 45.9377 352.231 43.2089 350.757C39.0858 348.486 39.0855 348.486 43.6866 347.41C46.5549 346.713 48.5072 344.761 48.8856 342.192C49.5828 337.212 52.1523 336.893 54.6421 341.574C55.9766 344.064 57.8487 344.761 61.6531 344.064C66.7123 343.128 66.7122 343.208 63.5253 346.853C61.1152 349.502 60.478 352.071 61.4142 355.656C62.5894 360.317 62.4301 360.477 58.8448 358.226C55.4985 356.195 54.4226 356.354 51.156 359.301C47.4114 362.648 47.332 362.648 47.332 357.907H47.4116ZM905.77 333.009C903.041 330.28 902.024 330.221 898.758 332.232C893.937 335.2 892.464 334.026 895.034 329.205C896.667 326.237 896.269 325.002 892.922 322.672C888.799 319.784 888.799 319.784 893.778 319.704C897.284 319.624 899.614 318.071 901.407 314.645C903.976 309.745 903.977 309.745 905.231 314.645C906.148 318.31 907.641 319.545 911.047 319.545C916.585 319.545 917.123 322.592 911.845 324.226C908.718 325.242 908.18 326.477 909.196 330.839C910.59 337.133 910.131 337.371 905.849 333.009H905.77ZM53.6458 322.811C54.4226 319.863 53.5664 317.772 50.5986 315.422C46.4755 312.235 46.4754 312.235 51.6939 312.235C55.4187 312.155 57.2912 311.08 57.9087 308.51C58.4664 306.399 59.5415 304.765 60.3383 304.765C61.1151 304.765 62.1907 306.399 62.7484 308.51C63.4456 311.08 65.3181 312.155 68.9632 312.235C73.8631 312.314 74.0223 312.473 70.7557 314.884C68.266 316.836 67.6484 318.847 68.5048 322.194C69.5804 326.715 69.4411 326.795 64.9197 324.763C61.3344 323.13 59.7012 323.13 58.0679 324.843C54.5623 328.269 52.3909 327.333 53.6458 322.811ZM733.576 305.383C731.783 303.61 732.023 301.041 733.975 301.041C734.911 301.041 736.066 302.275 736.703 303.829C737.779 306.638 735.847 307.653 733.576 305.383ZM884.139 296.997C884.139 294.806 882.744 291.54 881.11 289.667C878.222 286.48 878.303 286.241 882.585 286.241C885.852 286.241 887.644 284.847 889.038 281.202C890.99 276.063 890.99 276.063 893.081 281.202C894.635 285.007 896.427 286.241 900.252 286.241C905.291 286.241 905.291 286.241 901.247 289.05C897.981 291.38 897.523 292.715 898.997 296.519C900.79 301.339 899.236 302.515 895.65 298.85C894.017 297.216 892.384 297.216 888.799 298.85C884.596 300.802 884.139 300.563 884.139 296.997ZM74.7196 292.476C72.1501 289.906 70.9947 289.667 69.2817 291.46C65.3179 295.364 61.7327 294.268 64.1429 289.827C65.7762 286.719 65.5373 285.245 62.9679 282.357C59.8606 279.011 59.94 278.852 64.3817 278.852C67.4093 278.852 69.7397 277.378 71.0743 274.649C73.086 270.526 73.086 270.526 74.3409 274.729C75.038 277.079 77.6078 279.409 80.3167 280.106C84.3801 281.122 84.5991 281.501 82.1093 283.373C80.476 284.548 78.9221 287.815 78.5436 290.603C77.9859 295.424 77.7671 295.503 74.7196 292.476ZM248.148 269.451C247.53 268.355 247.371 267.04 247.929 266.482C249.243 265.168 252.908 267.498 252.908 269.669C252.908 272.099 249.702 271.94 248.148 269.451ZM870.434 264.849C871.45 261.045 870.833 259.869 867.725 259.093C862.586 257.778 862.666 255.208 867.944 254.432C870.593 254.033 872.307 252.4 872.705 249.692C873.402 244.553 876.131 244.313 877.685 249.213C878.541 252.101 879.856 252.719 883.362 251.783C888.341 250.548 889.278 253.097 885.075 256.603C883.123 258.236 882.884 259.79 884.139 262.28C886.868 267.259 886.388 268.116 882.106 265.785C879.078 264.152 877.605 264.391 875.035 266.642C870.434 270.844 869.04 270.307 870.434 264.849ZM731.942 261.125C723.318 254.592 723.318 254.591 727.202 244.234C731.166 233.956 731.166 233.956 724.793 228.758C710.392 217.006 709.694 216.926 699.815 225.092L691.031 232.323L683.004 226.566C678.582 223.459 674.917 220.192 674.917 219.495C674.917 218.24 699.735 199.179 738.097 171.094L752.18 160.757L762.596 167.529C768.353 171.174 772.716 175.058 772.417 176.073C772.019 177.089 765.167 198.183 757.16 222.841C749.073 247.5 742.141 267.657 741.603 267.657C741.125 267.657 736.762 264.69 731.942 261.125ZM744.631 200.194C748.057 192.187 750.387 185.256 749.929 184.798C749.152 183.942 724.393 204.238 723.537 206.429C722.999 207.983 734.672 215.75 736.843 215.213C737.779 214.974 741.284 208.221 744.631 200.194ZM89.2 261.044C88.5825 259.411 87.009 258.555 85.7741 259.013C76.1934 262.917 76.4322 262.997 78.6232 258.854C80.7943 254.89 79.6989 249.213 76.8307 249.213C75.8945 249.213 75.1177 248.357 75.1177 247.341C75.1177 246.265 77.0501 245.947 79.5399 246.564C82.7467 247.341 84.7582 246.644 86.7102 243.856C89.5784 239.653 91.849 240.509 91.849 245.867C91.849 247.978 93.1639 249.213 95.4147 249.213C100.474 249.213 101.868 252.4 97.3665 253.874C95.0361 254.591 93.6221 256.683 93.6221 259.571C93.6221 264.63 90.9129 265.546 89.2 261.044ZM210.722 217.005C197.277 196.231 186.222 178.404 186.222 177.408C186.222 176.392 197.197 168.305 210.582 159.501C229.245 147.132 235.241 143.946 236.556 145.898C239.742 150.638 243.865 158.884 243.328 159.342C242.949 159.581 235.858 164.182 227.453 169.62C212.275 179.42 212.275 179.42 215.622 184.24C217.494 186.889 219.745 190.554 220.681 192.267C222.234 195.136 223.728 194.597 234.843 187.208C241.615 182.606 248.068 178.882 249.164 178.882C250.956 178.882 258.426 189.458 258.426 192.028C258.426 192.566 252.829 196.689 245.897 201.051C239.045 205.413 233.209 209.217 232.91 209.456C231.894 210.313 242.63 227.044 244.264 227.044C245.12 227.044 252.908 222.363 261.533 216.687C276.312 206.967 277.408 206.509 279.738 209.775C283.622 214.974 286.909 221.368 286.052 222.145C283.483 224.316 239.364 253.257 237.492 253.954C236.257 254.432 225.202 239.254 210.722 217.005ZM852.708 235.45C852.708 231.944 851.531 230.072 848.962 229.375C843.982 228.14 844.302 225.57 849.441 224.853C852.469 224.395 853.783 222.762 854.181 218.958C854.799 213.659 854.799 213.659 857.687 217.703C859.699 220.67 861.65 221.447 864.917 220.671C869.658 219.495 870.673 221.288 867.167 224.714C865.454 226.427 865.455 228.06 867.088 231.625C869.2 236.067 869.04 236.306 864.599 235.131C861.412 234.354 858.762 235.052 856.272 237.243C852.786 240.43 852.708 240.43 852.708 235.45ZM106.708 231.785C105.075 229.693 102.665 228.977 99.8563 229.694C95.8926 230.69 95.733 230.47 97.685 226.108C99.3183 222.443 99.3183 220.81 97.685 219.177C94.2591 215.751 95.1956 214.038 99.6174 215.691C102.725 216.846 104.517 216.229 106.928 213.341C110.194 209.456 110.194 209.456 110.274 214.277C110.274 218.101 111.529 219.496 115.413 220.511C120.472 221.746 120.472 221.746 115.89 224.236C113.321 225.57 110.831 228.518 110.274 230.769C109.417 234.593 109.118 234.673 106.708 231.785ZM476.192 227.423C475.734 226.646 476.052 222.304 476.989 217.782C477.825 213.201 478.622 205.015 478.622 199.577C478.682 193.82 479.478 190.235 480.474 190.853C481.49 191.49 482.108 194.199 481.968 197.007C481.809 199.736 482.267 208.062 483.044 215.452C484.458 228.14 484.299 228.837 480.794 228.837C478.762 228.837 476.67 228.2 476.192 227.423Z" fill="#22924A"/>
</svg>
