<svg width="963" height="524" viewBox="0 0 963 524" fill="none" xmlns="http://www.w3.org/2000/svg">
<path fill-rule="evenodd" clip-rule="evenodd" d="M423.378 522.771C343.761 517.003 274.999 502.253 206.966 476.349C163.263 459.644 112.251 431.155 81.4415 406.246C24.9106 360.537 -3.69438 306.094 0.382605 251.9C1.80789 233.636 2.45428 231.449 6.53126 232.675C9.76301 233.636 9.76283 233.636 6.86254 230.471C3.43191 226.593 4.72462 219.665 12.3648 201.335C39.0309 137.115 119.112 76.0095 222.893 40.5928C235.77 36.1843 235.77 36.1842 235.058 40.0126C234.279 44.0233 235.969 45.1173 238.041 41.8855C239.201 40.0127 239.466 39.2339 239.847 36.2507C240.311 33.0852 290.146 20.0752 331.397 12.3025C382.343 2.65691 414.13 0.0714194 480.356 0.00512695C549.946 -0.127458 577.922 2.20936 632.812 12.435C671.924 19.6774 725.522 33.7319 731.024 38.074C732.118 38.9027 732.963 39.1679 732.963 38.7204C732.963 36.3173 772.258 51.7303 798.228 64.2927C814.668 72.1815 817.386 74.0043 814.403 74.8329C811.553 75.6119 812.083 75.8773 816.806 76.0099C830.264 76.3248 879.022 110.001 906.716 138.092C932.172 163.913 946.027 185.409 955.855 214.412C961.108 229.758 961.556 232.609 962.136 252.944C963.047 282.262 961.953 290.88 957.031 293.134C952.49 295.139 952.043 297.99 956.252 297.99C959.103 297.99 959.169 298.255 956.899 306.094C953.203 319.104 939.994 344.096 929.453 358.134C910.411 383.507 876.486 413.106 842.113 434.337C811.95 452.981 762.745 475.372 723.715 488.199C697.43 496.801 653.794 507.491 652.617 505.552C651.788 504.193 650.744 504.374 648.739 506.198C647.181 507.49 641.43 509.43 635.927 510.408C600.71 516.755 589.44 518.429 567.497 520.5C536.605 523.483 535.644 523.483 536.804 520.566C537.964 517.451 536.605 517.65 533.307 520.948C530.921 523.351 526.247 523.666 485.858 523.865C461.197 523.931 433.089 523.483 423.328 522.771H423.378ZM395.154 505.8C396.33 504.64 404.866 504.706 424.803 505.999C456.408 508.07 537.069 507.159 564.315 504.441C612.742 499.585 682.399 484.835 723.898 470.648C867.553 421.575 952.623 338.776 946.607 253.839C940.839 172.332 863.476 100.869 730.693 54.3153C718.793 50.1721 708.302 45.7142 707.325 44.4214C706.098 42.7973 705.385 42.6645 704.938 43.9572C704.54 45.2499 698.458 44.2226 683.641 40.2782C661.616 34.3781 615.659 25.0639 595.141 22.3294C546.913 15.9984 484.814 13.3966 441.26 15.9986C419.881 17.225 410.119 17.2911 408.943 16.1807C406.689 13.8605 404.866 14.1756 405.777 16.645C406.423 18.1863 403.44 18.9649 393.016 19.7439C360.516 22.2133 307.184 32.3725 268.601 43.377C237.461 52.2436 232.339 53.8019 228.528 55.2935C162.749 81.247 137.177 94.5218 100.666 121.768C60.0125 152.147 33.5287 186.701 21.9441 224.77C18.1157 237.266 17.6683 241.028 17.6683 261.744C17.6683 283.82 17.8671 285.56 22.723 300.26C40.97 355.482 90.6894 403.064 171.55 442.69C229.489 471.113 306.654 493.254 377.155 501.657C388.558 503.016 392.436 504.06 391.856 505.485C390.944 507.871 392.9 508.071 395.154 505.8ZM408.943 497.331C299.146 488.133 193.045 454.34 119.957 405.334C54.6926 361.498 18.696 301.619 25.7561 248.535C33.9764 186.768 79.4862 134.198 161.639 91.7373C183.333 80.5339 219.595 64.8061 227.036 63.3145C228.71 62.9996 232.472 61.6905 235.455 60.3315C243.99 56.586 288.141 44.2885 310.929 39.3C352.296 30.3008 410.053 22.5944 421.057 24.666C430.769 26.4725 427.471 29.5221 414.511 30.6159C368.09 34.7095 323.823 42.2836 282.059 53.2219C150.767 87.5945 58.1231 154.019 36.5118 229.444C31.5233 246.779 31.4571 275.069 36.3793 292.239C52.5547 348.488 105.058 397.18 193.492 437.833C201.331 441.463 207.745 445.142 207.745 446.054C207.745 447.015 209.237 447.346 211.358 446.766C213.695 446.186 215.767 446.7 216.993 448.192C218.037 449.418 219.976 450.463 221.335 450.463C222.628 450.463 234.544 453.893 247.686 458.036C326.011 482.896 388.491 492.343 475.765 492.658C531.235 492.856 551.372 491.945 579.662 488.067C768.579 462.295 903.102 385.33 927.962 288.742C939.812 242.835 922.062 194.938 877.398 152.262C812.398 90.1133 696.834 45.714 564.315 32.0412C544.892 30.0358 524.308 29.2569 484.632 29.2569C442.868 29.2072 431.084 28.7431 431.084 27.2515C431.084 26.224 430.239 25.3124 429.211 25.3124C427.786 25.3124 427.786 24.9311 429.145 23.5058C431.664 21.0364 519.386 21.1031 546.582 23.6388C592.291 27.8484 643.303 36.0021 673.598 43.9572C691.215 48.5645 696.32 50.371 694.58 51.4648C693.154 52.31 693.287 52.8901 695.094 53.5364C696.386 54.0668 697.878 53.8016 698.392 52.9563C698.905 52.1111 700.082 51.9287 700.977 52.5087C701.889 53.0888 704.805 53.7356 707.391 54.0008C719.506 55.0946 771.678 75.8769 801.974 91.6048C882.701 133.502 930.415 188.259 937.79 247.492C940.458 268.854 935.602 298.835 928.41 305.497C926.537 307.254 925.891 308.812 926.852 309.392C929.189 310.817 924.068 321.822 913.709 337.616C902.904 354.189 873.122 384.418 854.477 397.76C787.406 445.722 698.906 477.974 591.247 493.503C548.853 499.651 459.126 501.541 408.943 497.331ZM444.939 472.272C444.939 470.516 454.138 422.554 455.099 419.255C455.762 417.25 457.568 416.604 462.739 416.604C466.501 416.604 469.6 417.117 469.6 417.763C469.6 418.344 471.29 430.326 473.428 444.297C478.218 476.151 478.284 473.897 472.268 473.3C467.86 472.853 467.213 472.206 466.832 467.798C466.368 463.207 465.854 462.76 461.065 462.76C456.342 462.76 455.761 463.273 454.85 468.195C453.938 472.852 453.226 473.565 449.414 473.565C446.945 473.565 444.939 472.985 444.939 472.272ZM463.136 444.762C462.358 439.906 461.579 435.762 461.314 435.497C461.065 435.298 460.22 439.259 459.375 444.297C457.949 453.18 458.015 453.561 461.197 453.561C464.363 453.561 464.429 453.181 463.136 444.762ZM486.505 449.684C486.505 425.785 486.504 425.785 481.914 425.785C477.837 425.785 477.307 425.337 477.307 421.194C477.307 416.603 477.307 416.604 491.162 416.604C505.017 416.604 505.017 416.603 505.017 421.194C505.017 425.205 504.437 425.785 500.675 425.785C496.415 425.785 496.415 425.785 497.062 449.684C497.708 473.566 497.708 473.565 492.139 473.565C486.505 473.565 486.505 473.566 486.505 449.684ZM510.652 461.715C510.072 455.119 509.558 442.424 509.425 433.491C509.226 417.366 509.226 417.366 513.883 416.852C518.557 416.405 518.557 416.405 519.518 434.585C521.656 474.725 521.855 472.72 516.419 473.251C511.563 473.764 511.563 473.764 510.652 461.715ZM412.837 470.913C409.721 470.333 409.34 469.554 410.053 465.345C410.5 462.693 411.346 451.822 411.926 441.331C413.417 415.295 413.798 414.134 420.411 414.78C423.328 415.112 425.847 415.493 426.096 415.759C426.361 415.941 427.72 422.62 429.145 430.575L431.797 445.076L433.355 430.442C434.913 416.206 435.045 415.824 438.658 416.206C440.73 416.471 442.553 416.786 442.669 416.985C442.735 417.183 442.089 429.481 441.194 444.297C439.569 471.229 439.57 471.229 434.2 471.229C428.83 471.229 428.83 471.229 425.582 455.252C422.35 439.259 420.278 437.635 420.278 451.159C420.278 459.843 418.588 472.074 417.362 471.825C416.848 471.693 414.842 471.295 412.837 470.913ZM531.368 468.063C528.136 463.92 527.291 459.578 525.799 438.795C524.639 423.465 526.247 418.725 533.638 415.626C540.168 412.908 548.654 414.913 551.305 419.769C553.311 423.647 556.426 457.191 555.2 462.18C553.509 468.71 548.852 472.007 541.345 472.007C535.843 472.007 533.887 471.228 531.368 468.063ZM544.51 443.982C543.533 425.271 542.439 422.106 537.715 423.912C535.776 424.625 535.577 427.608 536.555 442.623C537.782 462.561 537.848 462.76 542.306 462.76C545.488 462.76 545.488 462.362 544.51 443.982ZM396.397 469.107C393.728 467.997 393.347 466.439 393.347 457.258C393.347 448.64 392.9 446.568 390.828 446.187C388.872 445.789 388.044 447.28 387.265 452.335C384.994 467.35 384.928 467.417 380.138 467.417C376.062 467.417 375.614 466.903 375.614 462.296C375.614 456.611 381.697 411.549 382.591 410.637C383.967 409.278 402.612 413.687 404.799 415.825C408.114 419.123 407.716 434.138 404.286 437.966C402.214 440.22 402.015 441.646 403.308 444.944C405.263 450.197 403.573 470.516 401.186 470.4C400.275 470.334 398.137 469.754 396.397 469.107ZM396.264 434.138C398.004 429.547 397.225 422.686 394.772 421.708C391.474 420.482 390.762 421.576 389.85 429.614C389.138 435.895 389.403 436.607 392.187 436.607C393.861 436.607 395.734 435.497 396.264 434.138ZM564.199 468.395C563.089 465.412 557.454 414.466 558.167 413.753C558.498 413.355 561.349 413.04 564.514 412.908C570.215 412.709 570.215 412.709 574.674 424.227C577.077 430.575 579.463 436.077 579.927 436.541C580.374 436.989 580.242 431.287 579.662 423.912C578.568 410.438 578.568 410.438 582.579 410.438C584.783 410.438 586.656 410.968 586.656 411.549C586.656 412.195 588.28 424.691 590.219 439.325C592.158 453.943 593.384 466.256 593.003 466.638C592.605 467.085 590.285 467.417 587.816 467.417C584.137 467.417 582.96 466.439 580.955 461.649C574.491 445.789 569.503 436.077 570.281 440.618C570.663 443.204 571.508 450.578 572.088 456.926C573.132 468.51 573.132 468.51 568.989 469.289C566.586 469.753 564.514 469.356 564.133 468.395H564.199ZM354.5 463.787C349.329 462.826 344.655 461.649 344.274 461.268C343.18 460.108 352.047 408.764 353.539 407.273C354.251 406.626 359.687 406.892 365.571 407.853C375.614 409.543 376.377 409.924 376.377 413.488C376.377 417.117 375.929 417.316 368.289 417.117C360.98 416.918 360.201 417.25 360.201 420.216C360.135 422.039 359.754 425.073 359.223 426.962C358.511 429.746 358.975 430.442 361.428 430.442C367.261 430.442 369.465 432.199 369.465 436.79C369.465 441.132 369.267 441.198 363.499 440.286C358.196 439.441 357.483 439.706 356.572 443.004C354.5 450.777 355.345 455.053 359.041 455.12C366.731 455.186 369.648 456.86 369.134 461.069C368.554 465.792 367.062 466.058 354.5 463.787ZM598.953 437.502C598.953 406.113 598.572 407.273 608.4 406.826C613.256 406.56 613.256 406.56 622.255 432C627.177 445.988 630.939 458.285 630.542 459.329C630.16 460.357 627.823 461.268 625.304 461.268C621.492 461.268 620.581 460.489 619.736 456.611C618.708 451.871 617.598 451.357 611.648 452.981C608.93 453.694 608.217 454.987 608.217 459.13C608.217 462.561 607.438 464.301 606.013 464.301C604.787 464.301 602.715 464.765 601.422 465.279C599.218 466.124 598.953 463.008 598.953 437.502ZM613.322 443.403C615.278 442.69 615.145 441.198 612.294 433.044L608.996 423.531L608.466 431.818C607.82 443.137 608.665 445.209 613.322 443.403ZM320.127 456.081C320.127 454.921 321.868 445.474 324.006 435.049C328.729 411.797 328.729 410.77 324.403 410.123C321.751 409.726 321.039 408.764 321.354 405.914C321.553 403.842 322.133 401.771 322.514 401.323C323.359 400.544 347.838 405.267 349.064 406.428C349.395 406.825 349.263 408.566 348.683 410.323C347.97 412.576 346.346 413.488 343.114 413.488C340.645 413.488 338.64 413.819 338.64 414.134C338.64 414.78 331.778 447.479 330.104 454.722C329.507 457.324 328.215 458.152 324.718 458.152C321.868 458.152 320.127 457.373 320.127 456.081ZM635.331 447.015C630.542 425.205 626.398 403.975 626.928 403.577C627.177 403.328 629.249 402.682 631.519 402.152C635.596 401.191 635.663 401.257 639.673 418.609C641.877 428.188 644.148 438.613 644.662 441.778C645.639 447.86 646.402 448.059 657.672 444.894C659.428 444.43 660.522 445.474 661.235 448.325C662.527 453.429 662.461 453.495 651.788 456.014C637.734 459.329 638.066 459.511 635.331 447.015ZM298.184 452.468C295.848 451.871 295.533 449.683 295.533 435.431C295.533 418.277 294.174 416.537 290.992 429.68C286.849 447.148 286.136 448.905 283.484 448.905C276.888 448.838 276.938 447.214 283.998 420.349C287.76 405.98 290.859 394.064 290.859 393.865C290.859 393.617 292.483 393.484 294.423 393.484C301.416 393.484 303.107 396.401 303.554 409.676L303.936 421.973L307.184 410.438C309.438 402.218 311.194 398.721 313.133 398.34C319.282 397.113 319.216 400.544 312.355 427.276C305.427 454.407 305.427 454.407 298.184 452.468ZM681.371 447.347C680.973 446.766 679.614 436.276 678.322 424.111C677.029 411.93 675.604 399.832 675.156 397.18C674.443 392.705 674.758 392.324 680.725 390.501C684.222 389.473 687.52 389.076 688.034 389.606C688.614 390.186 694.314 401.439 700.795 414.78C712.512 438.927 712.512 438.928 708.501 440.751C705.12 442.292 704.225 442.176 702.932 440.22C698.59 433.624 698.143 433.292 694 434.337C690.37 435.248 689.856 436.143 689.856 441.198C689.856 446.186 689.26 447.148 685.962 447.728C683.824 448.192 681.752 447.993 681.371 447.347ZM694.447 425.072C694.447 423.647 686.608 407.339 685.962 407.339C685.117 407.339 686.426 421.575 687.52 425.337C687.967 426.763 694.447 426.498 694.447 425.072ZM262.121 441.844C261.608 440.552 262.055 436.541 263.033 433.044C265.883 423.067 276.043 389.672 276.358 389.142C277.336 387.65 284.711 391.147 284.711 393.103C284.711 394.462 281.479 406.494 277.468 419.902C270.789 442.358 269.961 444.297 266.646 444.297C264.707 444.297 262.635 443.203 262.121 441.844ZM236.417 434.652C232.539 433.293 232.075 432.58 232.787 428.122C233.5 423.846 233.052 422.868 229.622 421.26C225.545 419.437 222.959 420.995 221.136 426.299C220.424 428.437 212.336 426.249 212.402 423.846C212.402 421.327 237.908 377.491 239.649 376.911C240.427 376.646 243.543 377.491 246.526 378.717C252.028 381.054 252.028 381.054 249.244 394.578C247.752 402.036 245.681 413.62 244.637 420.415C242.184 436.077 241.919 436.541 236.417 434.652ZM237.974 403.395C238.952 398.34 239.599 394.064 239.4 393.816C239.135 393.617 236.814 397.495 234.096 402.549C230.599 409.145 229.754 411.864 231.179 412.46C234.925 413.935 236.168 412.394 237.974 403.395ZM710.175 411.615C705.651 397.826 702.021 385.778 702.087 384.817C702.154 383.325 706.678 381.253 710.043 381.187C711.286 381.12 728.952 433.425 728.041 434.337C727.66 434.718 725.323 435.431 722.87 435.895C718.329 436.723 718.329 436.724 710.175 411.615ZM737.04 429.282C735.814 427.277 717.55 380.723 717.55 379.563C717.55 378.137 732.648 371.922 736.145 371.922C743.454 371.922 749.934 380.789 749.934 390.899C749.934 393.932 750.961 397.047 752.453 398.274C753.878 399.434 757.044 404.82 759.513 410.256C764.303 420.747 763.839 422.686 756.596 422.686C754.011 422.752 752.718 421.062 750.448 414.913C747.597 406.825 744.233 403.577 740.935 405.649C739.509 406.494 740.023 409.344 742.94 417.117C746.818 427.409 746.818 427.409 742.874 428.967C738.084 430.707 737.952 430.773 737.04 429.282ZM740.338 393.351C741.316 388.247 737.819 382.679 733.609 382.679C730.378 382.679 729.798 383.192 730.626 385.397C731.223 386.888 732.449 390.054 733.294 392.39C734.968 397.047 739.51 397.627 740.338 393.351ZM201.133 421.062C197.702 419.056 197.768 415.891 201.53 407.654C203.204 404.041 204.115 400.08 203.668 398.854C201.845 394.064 198.166 396.782 194.271 405.781C190.841 413.753 189.813 414.913 187.029 414.134C179.836 411.93 179.256 414.2 197.387 374.574C200.751 367.199 203.983 361.183 204.497 361.25C205.027 361.316 209.237 363.189 213.827 365.459C224.699 370.829 226.522 375.038 222.246 385.33C220.556 389.341 217.838 393.351 216.164 394.197C214.026 395.29 213.248 397.047 213.562 399.964C213.894 402.285 212.667 407.405 210.911 411.35C209.17 415.294 207.745 419.438 207.745 420.614C207.745 423.067 204.961 423.266 201.199 421.062H201.133ZM211.491 385.463C214.54 381.054 214.54 375.552 211.557 374.458C208.259 373.149 201.911 385.579 204.895 387.468C207.927 389.474 208.839 389.142 211.491 385.463ZM760.806 394.13C746.238 363.835 746.619 366.42 756.331 361.896C760.872 359.824 765.977 358.067 767.8 358.067C775.44 358.001 785.732 375.751 782.881 383.905C782.102 386.175 779.318 389.407 776.666 391.214C771.877 394.396 771.877 394.395 776.202 403.063C780.743 411.996 780.545 413.223 774.131 415.493C771.943 416.272 769.606 412.51 760.806 394.13ZM772.523 381.767C773.882 378.137 768.96 368.824 765.595 368.824C760.938 368.824 760.673 370.315 764.17 377.425C767.535 384.419 770.832 386.109 772.523 381.767ZM161.97 402.036C155.954 399.368 153.236 394.528 154.264 388.181C155.242 381.966 170.323 355.416 174.466 352.499C179.19 349.201 185.339 349.914 190.642 354.322C196.028 358.847 196.807 364.614 193.045 371.922C190.907 376.066 190.393 376.265 186.764 374.64C183.78 373.281 183.068 372.121 183.847 369.669C185.918 363.255 185.471 360.338 182.422 360.338C179.19 360.338 162.169 389.208 163.843 391.926C165.666 394.909 170.124 393.418 172.776 388.894C175.179 384.817 175.825 384.551 179.256 386.109C181.328 387.004 183.068 388.562 183.068 389.473C183.018 392.39 177.251 400.08 173.489 402.152C169.097 404.621 168.053 404.621 161.97 402.036ZM433.355 376.397C407.981 364.548 386.685 354.322 386.088 353.742C385.508 353.145 382.21 341.892 378.647 328.75C375.15 315.674 369.913 296.25 366.996 285.626C360.98 263.683 360.847 262.524 364.146 262.524C365.438 262.524 366.085 261.811 365.505 260.899C364.991 259.988 363.632 259.606 362.588 259.988C361.361 260.452 359.754 257.8 358.196 252.812C353.92 238.89 341.556 191.375 342.07 190.795C342.717 190.199 414.445 155.113 455.496 135.308L482.229 122.431L503.276 132.59C514.795 138.225 534.666 147.87 547.361 153.953C560.056 160.101 582.065 170.725 596.235 177.586C613.073 185.674 622.072 190.845 622.072 192.402C622.072 193.695 618.509 207.749 614.233 223.676C603.096 264.595 594.163 297.99 586.59 326.479C583.026 340.003 578.949 352.25 577.59 353.676C576.231 355.101 567.812 359.493 558.946 363.454C544.444 369.917 542.704 370.365 541.014 368.111C539.721 366.288 538.876 366.105 538.031 367.398C537.45 368.359 537.848 369.718 539.008 370.431C540.5 371.409 538.677 372.834 532.661 375.486C528.07 377.557 515.309 383.507 504.37 388.694C493.499 393.865 483.406 398.075 482.03 398.075C480.671 398.008 458.794 388.314 433.355 376.397ZM527.49 369.469L572.353 348.488L578.104 327.457C581.22 315.922 586.208 297.41 589.175 286.405C594.561 266.401 603.163 234.946 609.958 210.153C611.963 202.96 613.587 196.546 613.587 195.899C613.587 194.739 484.499 131.612 482.163 131.612C480.489 131.612 353.655 193.115 351.914 194.739C351.202 195.452 353.589 206.656 357.152 219.666C360.781 232.675 364.659 247.11 365.77 251.767C366.863 256.424 370.625 270.611 374.189 283.356C377.686 296.051 383.122 315.806 386.287 327.258C392.055 348.04 392.054 348.041 401.899 353.029C411.478 357.885 480.356 389.921 481.914 390.253C482.295 390.385 502.812 380.988 527.49 369.469ZM422.218 357.62C407.584 350.758 395.618 344.212 395.618 343.118C395.618 342.024 396.331 341.113 397.159 341.113C400.921 341.113 452.646 366.487 452.646 368.293C452.646 371.608 450.127 370.762 422.218 357.62ZM511.878 368.757C511.298 367.845 511.099 366.818 511.497 366.486C512.856 365.061 561.995 342.671 565.741 341.759C572.154 340.135 569.039 345.19 561.465 348.62C507.735 373.149 513.237 370.961 511.878 368.757ZM474.787 363.702C475.633 359.111 475.301 357.935 472.716 356.526C468.241 354.123 468.838 351.852 473.942 351.852C477.191 351.852 478.798 350.825 480.356 347.643C482.361 343.433 482.361 343.433 483.985 347.643C485.278 351.14 486.504 351.852 490.979 351.852C496.349 351.852 496.349 351.852 492.388 356.128C489.223 359.492 488.709 361.183 489.67 364.613C491.029 369.536 490.781 369.668 485.659 366.354C482.163 364.034 481.582 364.034 477.837 366.486C473.743 369.138 473.743 369.138 474.787 363.702ZM397.689 331.003C396.198 327.059 398.468 324.142 403.125 324.142C409.208 324.142 409.473 322.783 409.473 286.024V254.817H555.846V269.766C555.846 281.417 555.383 284.334 553.957 282.842C550.527 279.411 549.101 281.036 552.466 284.599C555.449 287.764 555.846 289.836 555.846 303.691C555.846 322.468 556.36 324.142 562.127 324.142C565.807 324.142 566.586 324.788 566.586 327.838C566.586 333.274 562.708 333.539 476.213 333.34C410.368 333.208 398.402 332.827 397.689 330.954V331.003ZM451.668 320.712C452.132 318.772 452.58 305.63 452.58 291.394C452.646 265.622 452.646 265.622 447.21 265.622C441.84 265.622 441.84 265.622 441.84 291.394C441.906 321.242 442.354 324.142 447.21 324.142C449.547 324.142 451.022 322.982 451.668 320.712ZM501.917 324.142V265.622H461.844V292.421C461.844 307.188 462.291 320.396 462.805 321.689C463.584 323.761 466.832 324.142 482.809 324.142H501.917ZM521.01 321.689C521.524 320.396 521.921 307.188 521.921 292.421C521.921 265.623 521.921 265.622 517.314 265.622C512.657 265.622 512.657 265.622 512.657 294.89C512.657 324.142 512.657 324.142 516.353 324.142C518.424 324.142 520.496 323.048 521.01 321.689ZM381.182 290.035C376.575 274.688 373.924 264.661 373.343 260.319C373.145 258.562 372.432 255.911 371.786 254.419C371.139 252.878 367.328 239.537 363.3 224.654L355.925 197.656L377.421 186.9C397.358 176.94 401.766 175.581 401.766 179.525C401.766 180.437 393.148 185.226 382.541 190.198C368.487 196.811 363.3 200.043 363.3 202.048C363.3 203.54 365.703 213.765 368.686 224.77C371.587 235.841 376.443 253.839 379.36 264.844C382.276 275.848 385.707 288.162 386.934 292.173C388.757 298.189 388.806 299.68 387.066 301.105C385.376 302.464 384.215 300.326 381.182 290.035ZM575.85 300.194C575.85 299.349 583.225 271.522 594.561 229.824C598.041 216.881 601.224 204.899 601.605 203.159C602.185 200.374 599.6 198.617 582.894 190.463C570.729 184.514 563.536 180.105 563.536 178.614C563.536 177.321 563.735 176.294 564.067 176.294C564.846 176.294 607.306 196.479 608.019 197.192C608.35 197.524 606.461 205.611 603.809 215.124C601.157 224.703 595.854 244.26 591.959 258.695C588.015 273.064 583.871 288.543 582.645 292.952C581.22 298.056 579.53 301.039 578.104 301.039C576.878 301.039 575.85 300.641 575.85 300.194ZM402.794 252.281C400.789 250.21 401.833 248.668 405.263 248.668C408.495 248.668 408.826 247.89 409.208 239.089C409.523 233.836 410.053 228.979 410.434 228.333C410.898 227.687 422.284 227.106 435.758 227.106C460.286 227.106 460.286 227.107 460.286 223.278C460.286 219.914 460.999 219.4 465.457 219.4C469.932 219.4 470.777 218.754 472.202 214.097C473.743 209.042 473.561 208.595 468.639 205.23C461.711 200.557 462.026 199.396 470.263 199.396C476.925 199.396 477.19 199.197 478.997 193.248C480.024 189.817 481.334 187.033 481.914 187.033C482.494 187.033 484.052 189.817 485.411 193.248C487.731 199.197 487.996 199.396 495.239 199.396L502.696 199.463L496.664 204.518C491.162 209.175 490.78 209.953 492.206 214.097C493.432 217.842 494.592 218.688 499.316 219.135C504.172 219.533 505.017 220.113 505.017 223.278C505.017 227.04 505.017 227.04 530.009 227.422C555.067 227.886 555.068 227.886 554.537 233.123C553.642 241.989 555.581 248.668 558.946 248.668C560.636 248.668 561.995 249.696 561.995 250.988C561.995 252.994 552.151 253.325 482.875 253.325C439.437 253.325 403.374 252.812 402.794 252.281ZM485.344 217.594C483.985 216.301 482.627 216.234 480.025 217.527C476.727 219.085 476.793 219.201 481.781 219.334C485.858 219.4 486.703 219.019 485.344 217.594ZM381.182 213.964C381.895 211.047 381.183 208.976 378.581 206.258C375.084 202.446 375.084 202.446 379.94 202.446C383.834 202.446 384.994 201.733 385.773 198.617C386.287 196.479 387.265 194.739 387.911 194.739C388.558 194.739 389.585 196.479 390.115 198.617C390.878 201.667 392.054 202.446 395.684 202.446C401.054 202.446 401.501 203.987 397.043 206.771C394.507 208.396 394.06 209.754 394.905 213.384C395.866 217.842 395.8 217.908 391.789 216.036C388.624 214.61 387 214.61 384.729 216.036C380.52 218.687 380.006 218.372 381.182 213.964ZM568.276 216.881C568.276 216.169 568.922 214.163 569.635 212.472C570.53 210.152 569.884 208.595 566.785 206.009C562.774 202.562 562.774 202.562 567.812 202.512C571.823 202.512 573.182 201.601 574.557 198.237C576.297 194.027 576.297 194.027 577.922 198.237C579.148 201.468 580.573 202.446 583.872 202.446C588.993 202.446 589.374 204.385 584.966 207.302C582.248 209.108 581.999 210.02 583.49 213.831C584.965 217.776 584.849 218.108 582.446 217.014C578.949 215.522 574.292 215.522 570.862 217.014C569.37 217.66 568.21 217.594 568.276 216.881ZM429.924 184.58C430.57 181.332 429.924 179.194 427.587 176.675C424.356 173.178 424.356 173.178 429.079 173.178C432.841 173.178 434.001 172.399 434.78 169.366C435.94 164.576 438.343 164.311 439.056 168.968C439.371 171.62 440.796 172.598 444.939 173.244C450.309 174.023 450.309 174.023 446.166 176.807C442.553 179.194 442.221 180.171 443.514 183.536C445.453 188.657 444.16 189.817 440.348 186.32C437.432 183.735 437.117 183.735 433.156 186.254C429.079 188.972 429.079 188.972 429.924 184.58ZM520.628 184.248C520.877 181.332 520.032 178.415 518.226 176.409C515.309 173.244 515.309 173.178 519.85 173.178C523.413 173.178 524.772 172.266 526.064 168.968C527.606 164.692 527.606 164.692 529.363 168.968C530.788 172.332 532.147 173.244 536.158 173.244C541.212 173.31 541.212 173.31 537.517 176.343C534.666 178.746 534.086 180.37 534.799 183.983C535.843 189.237 534.931 189.685 530.987 186.055C528.385 183.801 527.871 183.801 524.175 186.188C520.165 188.839 520.164 188.839 520.628 184.248ZM471.622 173.559C472.069 172.084 472.848 169.416 473.362 167.609C474.009 165.156 473.047 163.267 469.6 160.367C464.048 155.693 463.783 154.401 468.374 154.798C474.854 155.312 478.798 154.732 478.798 153.306C478.798 152.461 479.577 149.876 480.555 147.473C482.229 143.147 482.229 143.147 484.881 149.296C487.35 155.047 487.93 155.445 493.167 154.98C500.028 154.4 500.293 155.826 494.145 160.88C489.803 164.51 489.62 165.09 491.228 169.813C493.565 176.476 492.388 177.321 486.77 173.111C482.162 169.747 482.162 169.747 477.505 172.979C471.937 177.006 470.644 177.122 471.622 173.559ZM798.874 392.324C792.775 385.778 779.185 360.719 779.185 355.929C779.185 346.814 793.107 339.82 800.366 345.256C806.962 350.112 822.176 376.397 822.242 382.927C822.375 394.777 807.028 400.992 798.874 392.324ZM811.487 384.999C813.111 383.06 811.884 380.076 804.376 367.647C799.388 359.426 794.267 352.631 792.974 352.631C788.698 352.631 789.875 358.846 796.222 369.602C808.122 389.606 807.874 389.407 811.487 384.999ZM424.869 390.186C324.586 382.744 232.986 357.62 181.526 323.38C150.568 302.846 135.039 276.494 139.696 252.745C142.547 238.376 149.342 225.88 160.28 214.876C171.947 203.225 181.775 196.231 182.687 199.015C183.018 200.043 184.046 200.954 184.891 200.954C185.918 200.954 185.852 200.109 184.758 198.75C182.173 195.7 192.001 189.171 217.523 177.006C265.486 154.152 325.298 137.96 393.347 129.359C414.329 126.757 463.518 123.458 464.694 124.619C465.075 125.083 448.884 133.502 428.631 143.33C359.803 176.807 358.71 177.255 358.71 172.863C358.71 172.15 369.581 166.25 382.923 159.836C396.264 153.439 413.417 145.086 421.057 141.324L434.912 134.529L420.278 135.507C379.161 138.292 315.205 150.456 277.071 162.753C246.642 172.531 209.751 188.259 198.415 196.347C195.448 198.485 192.664 199.264 190.393 198.617C187.808 197.905 187.476 198.037 189.233 199.198C190.459 200.043 191.172 201.021 190.708 201.335C190.393 201.667 187.609 203.606 184.626 205.611C167.539 217.196 154.463 232.542 149.673 246.53C142.348 268.025 153.485 292.107 179.902 311.663C225.744 345.638 319.481 373.033 417.809 381.187C433.686 382.479 439.122 383.573 445.138 386.623C456.855 392.572 456.922 392.572 424.936 390.186H424.869ZM319.995 369.784C318.321 368.359 309.388 367.531 309.388 368.89C309.388 369.669 311.907 370.365 315.006 370.365C318.122 370.365 320.393 370.116 319.995 369.784ZM511.165 391.214C511.165 390.633 514.795 388.562 519.32 386.49C525.534 383.64 532.014 382.347 546.648 381.187C569.237 379.314 602.964 374.64 629.381 369.784C644.214 367.066 648.225 366.752 648.225 368.359C648.225 370.762 649.716 370.895 652.882 368.824C654.821 367.531 654.821 367.331 652.948 367.331C647.247 367.265 655.219 364.149 672.504 359.691C732.449 344.278 785.4 317.032 804.376 291.841C838.815 246.016 796.67 199.015 689.856 164.046C677.542 159.969 661.749 155.444 654.755 153.82C646.667 152.014 642.258 150.323 642.722 149.163C643.104 148.185 641.679 146.512 639.673 145.401C637.602 144.307 635.927 142.816 635.927 142.103C635.927 139.965 641.612 140.744 643.618 143.147C644.662 144.44 646.153 145.086 646.932 144.556C649.186 143.147 685.829 152.909 706.811 160.433C786.113 189.105 829.104 227.372 824.761 265.49C821.082 298.57 784.82 329.33 721.312 353.211C697.679 362.078 667.118 370.696 663.439 369.536C661.566 368.956 659.611 369.469 658.517 370.828C655.086 375.171 594.876 385.529 554.289 388.761C542.886 389.672 528.451 390.832 522.303 391.28C516.22 391.794 511.165 391.744 511.165 391.214ZM129.272 381.767C121.83 375.486 122.676 370.182 133.995 353.41C147.85 332.893 152.391 330.241 162.617 336.456C169.163 340.401 170.588 346.218 166.76 353.211C163.329 359.426 161.705 360.271 158.092 357.487C155.821 355.747 155.689 354.769 157.247 350.626C158.606 346.996 158.606 345.323 157.313 344.03C154.711 341.362 152.772 343.318 142.812 358.465C134.393 371.343 133.879 372.635 136.133 374.839C138.403 377.11 138.983 376.845 142.48 372.387C145.911 368.045 146.756 367.647 150.054 369.138C155.043 371.409 154.778 373.745 148.629 380.275C142.166 387.07 136.133 387.534 129.272 381.767ZM819.326 359.891C810.591 348.356 803.2 338.13 802.819 337.218C802.04 335.279 814.602 326.164 819.906 324.789C822.176 324.209 824.96 324.789 826.899 326.164C831.888 329.595 837.705 338.196 837.705 342.025C837.705 344.212 838.882 345.704 841.202 346.284C843.158 346.748 847.102 350.311 850.019 354.123C852.853 358.001 855.77 361.117 856.482 361.117C859.068 361.117 857.593 364.216 853.698 366.752C849.754 369.337 849.754 369.337 842.312 360.984C835.633 353.543 834.606 352.896 832.468 354.968C830.33 357.04 830.728 358.067 836.23 365.26C843.34 374.574 843.472 375.42 838.749 378.535C835.186 380.856 834.921 380.541 819.326 359.891ZM828.126 345.389C828.839 341.76 821.729 334.252 818.679 335.412C815.182 336.771 815.514 338.528 820.171 344.146C824.38 349.068 827.347 349.532 828.126 345.389ZM109.665 367.133C106.55 364.034 106.484 363.636 108.887 359.426C111.339 355.217 111.273 354.902 107.975 351.604C104.545 348.173 104.544 348.173 100.666 351.852C96.7053 355.548 96.7056 355.548 93.3412 352.184C91.2033 350.046 90.5568 348.289 91.4684 347.395C92.3136 346.616 101.893 338.644 112.765 329.711C132.586 313.403 132.586 313.403 137.442 317.48C140.094 319.684 142.232 321.954 142.232 322.468C142.232 324.026 114.588 370.315 113.676 370.365C113.229 370.365 111.406 368.889 109.665 367.133ZM124.416 334.318L128.178 328.037L121.316 333.987C117.554 337.285 113.875 340.533 113.096 341.246C112.317 342.025 112.582 343.566 113.809 345.057C116.195 347.908 116.527 347.577 124.416 334.318ZM852.538 335.611C837.771 319.999 837.191 319.551 834.341 322.137C832.137 324.092 830.728 324.407 828.839 323.181C824.248 320.33 825.027 318.126 833.959 308.746C842.826 299.482 842.826 299.481 846.456 302.846C850.019 306.21 850.019 306.21 846.969 309.459C843.92 312.757 843.92 312.757 860.046 328.75C876.171 344.809 876.171 344.809 872.807 348.355C870.984 350.311 869.111 351.852 868.663 351.852C868.133 351.786 860.891 344.543 852.538 335.611ZM366.283 320.712C362.339 306.094 360.649 293.333 362.787 293.333C364.659 293.333 374.636 329.644 373.343 331.782C371.139 335.279 369.648 332.893 366.283 320.712ZM590.932 332.561C589.755 331.401 600.063 291.642 602.002 289.703C605.566 286.09 604.919 294.112 600.063 312.624C595.274 330.887 593.384 334.964 590.932 332.561ZM636.243 296.117C635.082 295.023 634.37 289.455 634.37 281.815C634.37 268.092 635.596 265.622 642.391 265.622C647.181 265.622 650.943 271.125 649.253 275.533C647.96 278.897 645.043 278.517 644.081 274.887C642.391 268.473 640.518 272.169 640.518 281.815C640.518 288.212 641.165 291.775 642.259 291.775C643.435 291.775 643.684 289.769 643.038 285.626C642.076 279.809 642.259 279.478 645.888 279.478C649.385 279.478 649.783 280.058 649.783 285.759C649.783 289.189 649.07 293.333 648.159 295.023C646.402 298.388 639.159 299.034 636.243 296.117ZM651.971 295.918C651.589 294.824 651.39 287.698 651.655 280.124C652.037 268.738 652.567 266.335 654.689 265.954C656.76 265.556 657.423 266.782 657.804 271.97C658.45 281.234 662.146 281.814 662.146 272.683C662.146 266.666 662.594 265.622 665.179 265.622C668.096 265.622 668.295 266.667 668.295 281.815C668.295 296.963 668.096 297.99 665.179 297.99C662.594 297.99 662.146 296.962 662.146 291.062C662.146 285.891 661.5 284.068 659.809 284.068C658.069 284.068 657.473 285.891 657.473 291.062C657.473 296.25 656.893 297.99 655.152 297.99C653.86 297.99 652.435 297.029 651.971 295.918ZM689.856 287.051C689.856 278.317 689.26 275.533 687.188 274.042C684.669 272.235 684.802 271.837 688.299 268.921C695.408 262.971 696.121 264.197 695.674 281.417C695.292 294.957 694.828 297.211 692.508 297.675C690.171 298.123 689.856 296.83 689.856 287.051ZM700.596 293.598C700.596 290.996 702.535 286.737 705.253 283.356C709.661 277.738 711.335 271.771 708.501 271.771C707.788 271.771 706.744 273.263 706.297 275.02C705.186 279.097 701.573 278.053 700.861 273.528C700.214 268.855 703.181 265.622 708.17 265.622C717.235 265.622 718.909 275.401 711.468 284.135C705.717 290.88 705.717 291.775 711.402 291.775C715.031 291.775 716.075 292.487 716.075 294.89C716.075 297.542 715.031 297.99 708.368 297.99C700.927 297.99 700.662 297.808 700.662 293.532L700.596 293.598ZM718.859 294.245C716.97 290.101 718.014 285.626 720.732 285.626C721.693 285.626 722.804 287.052 723.251 288.742C724.411 293.068 726.814 292.554 726.814 287.963C726.814 285.56 725.903 284.068 724.478 284.068C723.185 284.068 722.157 282.709 722.157 281.035C722.157 279.279 723.185 277.92 724.478 277.92C725.787 277.92 726.814 276.561 726.814 274.887C726.814 271.258 724.411 270.743 723.185 274.108C721.959 277.141 717.55 277.091 717.55 273.975C717.55 266.849 726.881 262.391 731.09 267.562C733.162 270.097 733.228 293.532 731.156 295.984C728.24 299.481 720.798 298.388 718.859 294.245ZM743.719 294.89C743.719 292.487 742.741 291.775 738.913 291.775C734.455 291.775 734.19 291.526 734.969 287.45C736.908 277.92 743.454 265.622 746.686 265.622C749.404 265.622 749.801 266.783 750.249 275.914C750.829 289.571 753.746 290.349 753.746 276.76C753.746 266.401 753.746 266.401 760.673 266.401C768.628 266.401 770.899 270.611 763.391 271.523C761.005 271.771 759.115 272.948 759.115 274.174C759.115 275.467 760.093 275.914 761.452 275.401C765.794 273.776 768.38 277.853 768.38 286.273C768.38 290.681 767.535 295.089 766.557 296.117C763.59 299.1 756.331 298.321 754.193 294.89C753.1 293.2 751.74 291.775 751.094 291.775C750.448 291.775 749.934 293.2 749.934 294.89C749.934 296.962 748.89 297.99 746.818 297.99C744.747 297.99 743.769 296.962 743.769 294.89H743.719ZM762.231 286.273C762.231 282.593 761.585 280.969 760.292 281.417C756.662 282.593 756.977 291.775 760.607 291.775C761.519 291.775 762.231 289.322 762.231 286.273ZM743.719 283.356C743.719 282.063 743.454 281.035 743.122 281.035C742.808 281.035 742.161 282.063 741.647 283.356C741.117 284.599 741.382 285.626 742.227 285.626C743.056 285.626 743.719 284.599 743.719 283.356ZM671.328 281.815C671.328 280.257 672.885 279.478 676.001 279.478C679.034 279.478 680.592 280.257 680.592 281.815C680.592 283.356 679.034 284.068 676.001 284.068C672.885 284.068 671.328 283.356 671.328 281.815ZM91.2696 277.854C84.9387 273.462 84.9385 273.461 79.2373 277.406C72.1109 282.196 70.9509 281.284 74.1164 273.329C76.5195 267.18 76.5196 267.18 70.487 262.904C67.1889 260.568 64.4708 258.181 64.4708 257.535C64.4708 256.888 67.9014 256.375 72.1773 256.375C79.8837 256.375 79.8838 256.375 81.6903 249.447C82.7344 245.619 84.0933 242.52 84.6733 242.52C85.2534 242.52 86.7451 245.486 87.9052 249.049C90.1094 255.529 90.2419 255.596 98.3959 256.375L106.749 257.137L100.799 262.059C94.7662 266.982 94.7665 266.981 96.7719 274.042C97.8823 277.92 98.5286 281.35 98.1309 281.682C97.816 281.997 94.7002 280.257 91.2696 277.854ZM884.839 277.854C881.541 275.401 878.11 273.843 877.133 274.373C876.238 274.953 873.519 276.694 871.116 278.384C865.747 282.063 864.587 281.102 866.774 274.688C869.31 267.445 869.045 266.335 863.161 262.324C855.902 257.468 856.3 256.375 865.415 256.375C873.122 256.375 873.122 256.375 874.995 249.447C876.039 245.619 877.331 242.52 877.911 242.52C878.558 242.52 879.983 245.486 881.21 249.049C882.966 254.303 884.192 255.728 887.374 256.109C891.518 256.557 892.214 259.739 889.446 265.821C888.849 267.247 889.115 271.324 890.092 274.887C891.054 278.45 891.568 281.55 891.319 281.815C891.054 282.13 888.137 280.323 884.839 277.854ZM894.103 258.562C893.589 257.137 894.285 256.375 896.307 256.375C899.804 256.375 900.385 258.761 897.136 259.988C895.976 260.452 894.617 259.805 894.103 258.562ZM648.291 257.916V220.958H656.71C664.085 220.958 665.179 221.339 665.179 223.941C665.179 226.195 663.953 227.04 660.191 227.422C655.998 227.819 655.219 228.532 655.219 231.697C655.219 234.813 656.047 235.708 659.428 236.039C664.731 236.686 664.997 240.315 659.809 241.608C656.76 242.387 655.931 243.547 655.931 247.176C655.931 251.253 656.445 251.767 660.588 251.767C664.152 251.767 665.179 252.414 665.179 254.817C665.179 257.535 664.151 257.916 656.71 257.916H648.291ZM669.323 256.888C668.742 256.308 668.295 248.022 668.295 238.443C668.295 220.958 668.295 220.958 672.621 220.958C676.449 220.958 677.294 221.869 679.432 228.267L681.885 235.592L682.017 228.267C682.15 222.052 682.598 220.958 685.249 220.958C688.166 220.958 688.299 221.985 688.299 239.536C688.299 257.8 688.232 258.115 684.934 257.668C682.282 257.27 680.907 255.016 678.189 246.398L674.759 235.592L674.576 246.729C674.51 254.95 673.863 257.916 672.372 257.916C671.212 257.916 669.853 257.468 669.256 256.888H669.323ZM697.033 256.888C696.453 256.308 696.005 249.513 696.005 241.674C696.005 228.532 695.806 227.422 692.757 226.659C686.227 224.903 690.685 221.737 700.331 221.273C709.081 220.825 709.86 221.091 709.86 223.941C709.86 226.063 708.882 227.106 706.811 227.106C703.894 227.106 703.695 228.134 703.695 242.52C703.695 256.425 703.446 257.916 700.861 257.916C699.303 257.916 697.613 257.468 697.033 256.888ZM712.959 239.404V220.958H719.241C730.626 220.958 731.09 221.737 731.223 240.962C731.289 256.756 731.09 257.916 728.306 257.916C725.903 257.916 725.257 256.822 725.257 252.679C725.257 245.884 723.964 242.52 721.246 242.52C719.688 242.52 719.108 244.658 719.108 250.21C719.108 256.889 718.727 257.916 716.009 257.916C713.158 257.916 712.959 256.888 712.959 239.404ZM724.478 231.697C724.478 229.311 723.517 227.753 721.826 227.422C719.688 226.974 719.108 227.952 719.108 231.697C719.108 235.526 719.688 236.487 721.826 236.039C723.517 235.708 724.478 234.167 724.478 231.697ZM740.156 256.888C739.625 256.308 739.112 252.878 739.112 249.182C739.112 245.486 737.753 238.492 736.079 233.636C732.051 222.383 732.118 220.627 736.46 221.207C738.979 221.604 740.288 223.229 741.316 227.488C742.095 230.67 743.255 233.255 743.835 233.255C744.481 233.255 745.592 230.67 746.371 227.488C747.332 223.229 748.575 221.604 751.094 221.207C755.37 220.627 755.37 221.024 750.696 234.813C748.575 241.028 746.818 248.801 746.818 252.032C746.818 256.689 746.238 257.916 744.034 257.916C742.476 257.916 740.736 257.468 740.156 256.888ZM94.1201 224.521C93.0926 224.124 92.181 222.582 92.181 221.091C92.181 212.672 124.614 174.735 131.741 174.735C133.746 174.735 135.304 174.023 135.304 173.178C135.304 172.332 136.398 171.686 137.624 171.686C141.453 171.686 140.541 172.863 126.885 185.807C115.814 196.298 110.246 203.274 97.617 222.831C96.7718 224.19 95.1642 224.903 94.1201 224.521ZM860.692 214.296C852.405 200.242 827.612 175.581 809.68 163.598C791.748 151.616 763.971 136.982 740.288 127.088C724.544 120.475 720.666 118.288 720.666 115.818C720.666 113.299 721.378 112.967 724.875 113.879C740.471 117.757 788.831 141.788 811.553 156.87C831.242 169.946 857.775 195.767 865.945 209.887C872.094 220.444 872.807 223.279 869.426 224.521C867.951 225.102 865.167 221.87 860.692 214.296ZM558.946 154.533C534.799 142.683 511.746 131.48 507.669 129.806C503.658 128.049 500.36 125.978 500.36 125.215C500.36 123.84 505.663 124.039 546.582 127.154C566.453 128.646 590.153 131.877 619.354 137.181C631.784 139.451 632.944 139.965 635.149 144.307C636.441 146.893 637.469 149.163 637.469 149.362C637.469 149.545 633.525 148.765 628.602 147.605C616.504 144.688 559.526 136.601 543.533 135.507L530.39 134.595L568.392 153.506C592.871 165.737 606.079 173.111 605.632 174.338C605.234 175.448 604.389 176.294 603.875 176.227C603.295 176.227 583.093 166.449 558.946 154.533ZM140.16 169.101C139.05 167.874 138.337 166.581 138.668 166.316C142.745 162.372 173.555 143.528 187.41 136.468C206.502 126.756 231.958 115.619 238.952 113.879C242.432 112.967 243.145 113.299 243.145 115.818C243.145 118.288 239.002 120.542 221.534 127.801C198.746 137.181 170.124 152.329 154.595 163.151C142.281 171.753 142.546 171.686 140.16 169.101ZM681.951 137.513C676.764 136.154 676.316 135.507 675.024 128.049C673.665 120.16 673.665 120.16 657.738 116.266C640.005 112.006 642.325 111.476 635.082 121.453C633.143 124.171 632.298 124.304 624.327 122.481C619.603 121.453 615.99 119.961 616.239 119.182C616.504 118.404 626.928 104.681 639.424 88.6218L662.146 59.5693L670.947 62.1543C678.52 64.4248 679.946 65.3863 680.907 69.3307C682.283 74.8329 694.447 136.866 694.447 138.292C694.447 139.651 688.746 139.319 681.951 137.513ZM668.875 93.6765C667.781 87.213 666.538 81.6444 666.223 81.2466C665.892 80.9318 662.329 85.0087 658.384 90.3121C653.595 96.7922 651.904 100.223 653.213 100.67C655.865 101.515 668.809 105.145 669.969 105.261C670.499 105.327 669.969 100.157 668.875 93.6765ZM290.213 129.408C281.545 126.176 276.888 122.299 271.767 114.078C263.348 100.538 264.707 84.3625 275.198 72.7613C287.893 58.7239 312.106 54.1828 325.961 63.182C329.391 65.4525 329.392 65.4525 325.298 71.6011C323.044 75.0317 320.442 77.5011 319.547 77.1034C306.537 71.5348 297.141 72.9604 289.5 81.6447C280.567 91.804 284.329 109.023 296.627 114.145C303.289 116.929 313.78 115.818 318.702 111.874C321.867 109.288 321.934 108.891 319.68 100.356C317.078 90.3124 317.409 89.7986 328.083 87.8596C333.651 86.8818 333.651 86.8816 337.148 101.052C340.645 115.172 340.645 115.172 336.187 118.868C322.978 129.74 303.223 134.264 290.213 129.408ZM594.611 118.022C588.015 117.575 588.015 117.575 573.895 96.0799C566.139 84.2964 559.344 74.6509 558.747 74.6509C558.233 74.6509 556.874 82.5394 555.78 92.2512C554.67 101.963 553.377 110.515 552.93 111.36C552.018 112.719 538.163 111.41 536.555 109.736C535.71 108.89 544.129 42.6647 545.223 41.5709C545.604 41.2395 548.853 41.3055 552.532 41.8192C559.145 42.7308 559.343 42.9299 573.646 64.3589C582.314 77.3688 588.396 85.0753 588.86 83.7826C589.241 82.5396 590.534 73.9379 591.71 64.6073L593.782 47.6528L601.356 48.1667C605.566 48.4319 609.51 49.1444 610.09 49.7245C611.25 50.8183 604.522 107.929 602.45 114.658C601.422 118.089 600.577 118.47 594.611 118.022ZM358.262 86.5501C352.693 45.7803 352.428 49.0785 361.941 47.7858C366.284 47.1892 370.112 47.0066 370.427 47.3215C370.758 47.653 371.786 53.6026 372.83 60.5965C374.437 72.2474 374.835 73.2251 377.802 72.5125C379.559 72.1147 385.574 71.2863 391.209 70.6897C405.512 69.281 405.379 69.3972 403.507 56.0061C402.661 49.7249 402.479 44.1563 403.059 43.6425C405.379 41.5046 418.853 40.7253 419.5 42.6644C419.881 43.7085 422.019 59.039 424.223 76.7225C428.83 112.902 429.013 111.874 417.229 111.228C410.302 110.83 410.302 110.83 409.009 98.4661C408.296 91.7374 407.269 85.6554 406.622 85.0753C406.042 84.429 399.115 84.7439 391.209 85.7217L376.84 87.4615L377.868 99.1125C378.448 105.593 379.227 111.94 379.625 113.299C380.404 116.15 376.376 117.691 367.907 117.691C362.471 117.757 362.471 117.757 358.262 86.5501ZM441.84 108.576C441.84 107.797 444.69 100.67 448.187 92.7651C474.522 33.2179 470.777 39.1675 481.649 39.1675H490.648L506.508 72.9601C515.242 91.5385 522.303 107.333 522.236 107.979C522.054 108.692 518.225 109.471 513.568 109.736C505.149 110.183 505.149 110.184 501.205 102.361C497.194 94.522 497.194 94.5217 481.45 94.9692C465.788 95.4333 465.788 95.4332 462.291 102.742C458.794 110.051 458.795 110.051 450.309 110.051C445.652 110.051 441.84 109.405 441.84 108.576ZM491.162 80.0864C491.162 78.976 483.008 60.0168 481.98 58.8567C481.45 58.2103 478.864 62.8673 476.213 69.2148L471.489 80.799H481.334C486.703 80.799 491.162 80.4676 491.162 80.0864ZM909.251 146.048C910.676 142.169 909.052 141.656 907.113 145.335C906.135 147.092 906.019 148.583 906.848 148.583C907.627 148.583 908.671 147.407 909.251 146.048Z" fill="#8550DC"/>
</svg>
