<svg width="955" height="957" viewBox="0 0 955 957" fill="none" xmlns="http://www.w3.org/2000/svg">
<path fill-rule="evenodd" clip-rule="evenodd" d="M451.723 955.736C409.714 953.404 355.453 942.248 314.847 927.571C274.621 912.989 219.147 884.181 222.121 879.352C222.953 878.044 222.573 877.663 221.098 878.591C215.246 882.231 165.981 842.909 131.06 806.775C65.3575 738.741 21.207 650.559 5.05487 554.954C-0.630474 521.508 -1.72459 453.569 2.81893 417.792C28.3673 216.164 180.587 51.2177 379.907 9.3031C391.42 6.9005 402.387 4.8548 404.242 4.8548C406.003 4.8548 414.471 3.73669 423.011 2.42834C448.655 -1.4729 514.072 -0.545105 546.781 4.28387C700.856 27.1442 833.45 122.963 904.91 263.169C938.546 329.253 954.722 398.762 954.722 477.548C954.722 565.54 934.55 642.756 892.445 715.976C877.221 742.476 857.239 769.594 851.101 771.925C847.771 773.139 846.367 775.089 847.2 777.135C848.77 781.226 824.435 809.177 801.765 829.445C783.543 845.716 745.173 875.522 742.39 875.522C741.367 875.522 739.963 873.5 739.131 871.074C737.822 866.792 737.656 866.792 733.374 870.883C730.852 873.12 725.762 875.713 721.86 876.545C714.89 878.234 714.891 878.234 720.362 879.899C723.431 880.922 724.644 881.755 723.145 881.85C721.575 882.04 720.362 883.063 720.362 884.371C720.362 885.561 718.221 888.725 715.533 891.341C712.084 894.862 711.156 895.147 712.179 892.436C713.107 889.938 712.464 888.725 710.228 888.725C707.921 888.725 707.255 890.033 708.087 892.721C709.11 895.98 705.304 898.573 687.748 906.946C627.255 935.754 574.66 950.05 510.361 955.07C483.219 957.115 478.58 957.21 451.723 955.736ZM49.5624 664.141C49.7527 658.741 48.9918 654.388 47.9689 654.388C46.8747 654.388 46.0183 659.574 46.0183 665.807C46.0183 679.556 49.2769 678.081 49.5624 664.141ZM899.415 265.215C899.415 264.002 898.487 262.979 897.202 262.979C895.989 262.979 895.061 264.002 895.061 265.215C895.061 266.428 895.989 267.452 897.202 267.452C898.487 267.452 899.415 266.428 899.415 265.215ZM74.7305 245.233C74.7305 244.044 73.8023 243.116 72.6129 243.116C71.3997 243.116 70.3769 244.686 70.3769 246.542C70.3769 248.492 71.3997 249.42 72.6129 248.683C73.8023 247.945 74.7305 246.351 74.7305 245.233ZM512.502 935.183C572.804 929.997 634.035 912.893 683.277 887.511C689.152 884.538 693.791 882.778 693.791 883.61C693.791 884.371 695.646 883.349 697.977 881.303C700.189 879.257 703.639 878.234 705.685 878.972C708.087 879.899 709.301 879.257 709.301 876.926C709.301 871.716 717.579 867.91 721.575 871.169C723.621 872.834 724.834 872.929 724.834 871.55C724.834 870.241 723.526 868.838 722.027 868.386C720.552 867.815 722.218 865.603 725.929 863.271C738.941 854.993 768.223 832.513 783.186 819.311C908.168 709.006 961.858 536.923 923.298 370.311C891.612 233.173 790.608 113.566 658.394 56.5225C645.643 51.0274 634.963 45.6514 634.606 44.4382C634.13 43.225 632.56 42.7731 630.871 43.4153C629.206 43.9625 619.738 41.9403 609.7 38.7765C474.679 -3.87554 322.744 22.6006 205.208 109.118C165.149 138.663 121.283 185.026 94.0699 226.655C43.6154 303.68 19.6372 383.799 19.542 475.787C19.4469 581.43 52.2508 677.986 116.36 760.507C139.981 790.789 188.58 836.7 215.698 854.256C219.79 856.944 222.858 860.845 222.954 863.367C222.954 866.697 223.406 866.982 224.904 864.746C226.379 862.344 227.783 862.439 232.612 865.603C235.775 867.625 238.368 870.693 238.368 872.382C238.368 874.047 239.772 874.785 241.532 874.143C243.292 873.5 253.07 877.402 263.084 882.968C336.494 922.932 429.339 942.343 512.502 935.183ZM442.898 915.129C337.993 907.041 242.103 862.248 166.457 786.15C82.8181 702.06 39.5239 596.298 39.4288 476.334C39.3336 360.272 83.9362 251.941 165.339 170.063C251.095 84.0214 357.309 39.7042 477.462 39.7994C582.558 39.9659 673.166 72.4128 756.877 139.971C777.501 156.599 815.062 194.969 823.697 208.457C827.027 213.547 830.382 218.305 831.024 218.852C836.805 223.681 860.497 262.718 872.011 286.315C964.19 475.312 908.43 703.249 739.226 829.635C720.267 843.765 695.17 858.894 690.627 858.894C689.414 858.894 685.988 861.13 683.11 863.914C680.136 866.602 674.832 868.838 671.383 868.838C667.481 868.838 665.078 870.051 665.078 871.906C665.078 873.572 661.82 876.188 657.918 877.663C653.922 879.162 647.975 881.755 644.549 883.61C619.738 896.908 556.272 911.68 509.243 915.201C475.607 917.722 475.416 917.722 442.898 915.201V915.129ZM533.411 903.14C580.417 896.908 637.841 878.972 676.14 858.347C700.57 845.24 738.203 819.121 759.85 800.185C775.741 786.317 781.046 782.796 782.425 785.128C783.829 787.34 784.376 786.602 784.471 782.511C784.471 779.276 786.992 774.423 790.251 771.449C793.391 768.476 802.692 757.605 810.97 747.305C905.266 629.006 931.576 474.194 881.479 332.393C862.805 279.345 819.13 210.574 781.402 174.725C777.049 170.539 773.433 165.805 773.433 164.116C773.433 162.451 772.577 161.713 771.459 162.356C770.46 162.998 761.705 156.956 752.143 148.987C669.432 79.9298 565.835 44.6284 460.549 49.6476C418.277 51.5983 419.11 51.5031 387.614 58.5682C304.808 77.0515 234.205 115.255 177.708 172.013C169.145 180.672 161.152 186.976 159.487 186.334C157.727 185.668 156.609 186.786 156.609 189.117C156.609 191.258 155.11 194.588 153.255 196.563C129.562 221.54 92.0242 283.794 78.0844 321.165C75.9435 326.922 73.4455 331.655 72.5178 331.655C71.59 331.655 70.8292 333.891 70.8292 336.579C70.8292 339.363 68.2363 350.519 64.9773 361.485C37.3831 455.52 45.2805 560.616 87.2902 655.411C146.38 788.934 280.759 887.059 427.65 904.068C453.674 907.137 506.555 906.661 533.411 903.14ZM432.955 894.125C429.886 893.554 417.612 891.603 405.718 889.652C349.792 880.827 285.492 853.613 233.92 817.003C193.67 788.458 156.038 749.065 127.326 705.485C59.3158 602.34 41.4748 469.103 79.6546 349.401C126.493 202.415 256.209 90.7059 410.475 64.7769C445.776 58.8299 515.737 59.3057 550.134 65.7998C661.724 86.8047 760.04 150.747 823.887 243.854C853.242 286.696 878.791 348.664 888.544 400.712C894.396 431.827 896.536 489.989 893.016 523.459C876.197 684.671 762.276 824.045 605.418 875.617C561.743 889.938 537.86 893.649 484.907 894.386C459.335 894.767 436.023 894.577 432.955 894.029V894.125ZM533.506 886.227C624.829 873.857 709.681 830.182 775.646 761.339C939.569 590.446 924.796 315.765 743.603 164.021C665.078 98.2467 578.466 66.4659 477.462 66.3708C375.15 66.1805 286.23 99.8168 205.945 168.85C128.634 235.385 80.0351 328.492 67.9508 433.326C64.0495 467.795 66.5707 524.838 73.5406 558.213C97.0432 670.731 157.441 759.484 253.902 823.022C335.947 877.211 434.905 899.596 533.506 886.227ZM667.767 810.771C658.465 794.405 656.705 790.052 660.511 792.359C663.77 794.405 678.733 822.285 677.9 824.806C677.52 826.091 672.976 819.787 667.767 810.771ZM273.788 822.951C273.884 819.406 293.2 788.838 294.223 790.599C295.531 792.74 277.952 824.33 275.454 824.521C274.526 824.521 273.788 823.783 273.788 822.951ZM257.803 814.482C256.399 813.079 271.458 788.458 277.214 782.606C283.256 776.564 280.378 784.105 271.362 798.211C260.681 814.863 259.563 816.243 257.803 814.482ZM690.246 811.889C688.962 809.748 684.228 802.207 679.756 795.238C675.212 788.291 672.595 782.511 673.904 782.511C675.854 782.511 696.026 811.794 696.026 814.672C696.026 817.17 692.483 815.41 690.246 811.889ZM242.84 802.683C242.84 798.972 262.537 771.449 265.225 771.449C267.842 771.449 266.819 773.234 254.354 790.313C242.555 806.299 242.84 806.037 242.84 802.683ZM697.311 789.029C691.555 780.37 687.368 772.758 687.939 772.211C689.152 771.093 711.346 800.185 711.441 802.969C711.727 807.988 706.613 802.969 697.311 789.029ZM227.307 791.17C227.307 787.816 249.239 760.412 251.951 760.412C254.258 760.412 253.616 761.435 238.654 780.941C228.615 794.143 227.307 795.237 227.307 791.17ZM718.031 786.412C704.091 768.666 700.095 762.624 702.236 762.624C704.281 762.624 726.951 789.956 726.951 792.454C726.951 795.523 723.145 792.93 718.031 786.412ZM726.214 767.643C719.529 759.484 714.605 752.229 715.248 751.658C716.461 750.468 736.799 772.211 740.439 778.705C745.648 787.911 737.466 781.583 726.214 767.643ZM211.892 778.895C212.083 776.112 238.202 747.947 238.273 750.468C238.369 752.966 216.816 778.8 213.748 780.013C212.725 780.37 211.892 779.918 211.892 778.895ZM739.416 755.107C732.636 747.4 726.951 740.144 726.951 739.217C726.951 736.885 751.025 760.412 753.713 765.431C758.28 773.685 751.31 768.666 739.416 755.107ZM209.466 752.966C217.387 744.973 224.262 738.931 224.809 739.502C226.308 740.977 202.425 765.883 198.595 766.716C196.739 767.096 201.664 760.959 209.466 752.966ZM751.31 741.643C743.508 733.745 738.108 727.323 739.416 727.323C742.39 727.323 768.961 751.301 768.961 753.989C768.961 758.271 765.06 755.583 751.31 741.643ZM196.834 739.026C205.018 730.843 212.439 724.896 213.295 725.752C215.413 727.965 189.674 753.799 185.416 753.799C183.56 753.799 188.58 747.209 196.834 739.026ZM765.987 730.391C752.238 718.688 746.386 710.98 755.211 716.166C762.276 720.353 783.281 740.335 781.973 741.643C781.236 742.38 773.98 737.266 765.987 730.391ZM172.024 738.836C172.024 735.958 198.523 713.668 200.926 714.406C202.234 714.882 196.834 720.9 188.937 727.87C174.735 740.43 172.024 742.19 172.024 738.836ZM776.216 715.904C761.444 704.01 756.686 696.017 770.626 706.413C787.73 719.33 793.296 723.968 793.296 725.657C793.296 728.821 789.87 726.847 776.216 715.904ZM158.845 724.159C158.845 721.923 188.104 700.561 190.15 701.298C192.743 702.131 164.697 725.086 161.057 725.086C159.773 725.086 158.845 724.634 158.845 724.159ZM147.783 709.957C147.783 708.934 153.921 703.63 161.438 698.325C179.374 685.503 180.849 684.67 180.849 687.192C180.849 689.143 151.494 711.813 148.901 711.813C148.235 711.813 147.783 710.98 147.783 709.957ZM788.753 702.797C782.163 697.873 775.288 692.949 773.433 691.926C771.649 690.903 770.817 689.309 771.649 688.572C772.958 687.192 806.594 708.839 806.594 710.98C806.594 713.953 799.077 710.504 788.753 702.797ZM136.722 694.423C136.722 691.926 169.977 671.468 171.571 672.967C172.214 673.704 172.404 674.537 171.833 674.822C160.962 682.244 138.577 696.279 137.745 696.279C137.174 696.279 136.627 695.446 136.627 694.423H136.722ZM795.532 685.218C786.421 679.199 780.308 674.275 781.973 674.275C785.684 674.18 815.229 692.283 815.324 694.709C815.514 697.778 812.16 696.184 795.532 685.218ZM805.761 670.35C796.198 664.689 789.395 659.669 790.703 659.312C793.391 658.385 826.385 676.773 826.48 679.199C826.48 682.078 823.602 680.864 805.761 670.35ZM127.896 676.963C127.896 676.035 135.057 671.373 143.882 666.449C163.578 655.578 163.198 655.768 163.198 658.099C163.198 659.955 132.25 678.628 129.181 678.628C128.444 678.628 127.896 677.891 127.896 676.963ZM118.976 660.978C118.976 659.764 126.969 654.745 136.722 649.916C146.38 644.992 154.373 642.019 154.373 643.232C154.373 644.445 146.38 649.464 136.722 654.293C126.969 659.217 118.976 662.191 118.976 660.978ZM814.301 653.913C804.548 648.893 797.864 644.445 799.243 643.874C802.05 642.946 832.237 657.814 834.378 661.168C836.519 664.689 832.523 663.214 814.301 653.913ZM110.15 643.874C110.15 642.661 117.383 638.498 126.208 634.596C148.236 624.653 147.783 624.82 147.783 627.246C147.783 628.364 140.528 632.551 131.703 636.547C109.58 646.395 110.15 646.205 110.15 643.874ZM823.127 638.212C805.119 630.22 805.381 630.41 807.236 628.649C808.735 627.056 841.538 640.805 843.394 643.684C845.344 646.943 838.755 645.182 823.127 638.212ZM103.538 625.747C103.538 623.25 138.863 609.31 140.623 611.07C142.383 612.854 141.931 613.021 123.067 620.823C104.299 628.459 103.538 628.721 103.538 625.747ZM834.188 623.059C828.146 620.562 820.819 617.588 817.94 616.47C814.967 615.352 813.183 613.782 813.944 613.116C815.704 611.356 850.816 623.63 850.816 625.938C850.816 628.721 846.272 627.983 834.188 623.059ZM96.8532 608.477C96.8532 607.264 104.56 603.648 114.052 600.485C132.821 594.062 134.486 593.8 134.486 596.393C134.486 597.416 127.231 600.485 118.405 603.363C109.58 606.146 101.135 608.929 99.6365 609.5C98.1616 610.143 96.8532 609.595 96.8532 608.477ZM835.876 604.195C827.027 601.127 819.891 597.701 819.891 596.393C819.891 595.18 821.081 594.633 822.579 595.18C824.149 595.846 832.618 598.629 841.348 601.507C850.173 604.386 857.333 607.55 857.429 608.477C857.429 610.975 853.147 610.142 835.876 604.195ZM90.2637 590.541C90.2637 589.233 93.975 587.187 98.5185 585.997C103.086 584.689 111.721 582.263 117.763 580.407C123.805 578.552 129.181 577.529 129.752 578.171C131.417 579.765 129.847 580.503 113.029 585.522C104.204 588.115 95.4736 590.922 93.5944 591.564C91.7389 592.302 90.2637 591.85 90.2637 590.541ZM858.547 591.278C857.333 590.826 849.055 588.4 840.04 585.807C831.119 583.191 824.34 580.503 824.982 579.86C826.766 578.1 864.113 588.305 864.113 590.541C864.113 592.492 862.448 592.682 858.547 591.278ZM87.0049 570.654C89.5264 568.418 116.93 561.448 122.782 561.543C129.942 561.638 121.283 565.183 104.203 568.989C85.8867 573.081 84.1266 573.247 87.0049 570.654ZM844.131 568.704C829.073 565.183 827.218 564.422 829.169 562.471C830.572 561.091 861.425 567.776 866.254 570.464C871.464 573.437 860.949 572.605 844.131 568.704ZM81.4383 552.908C81.4383 551.505 81.7951 550.41 82.3661 550.41C82.818 550.41 91.0015 548.912 100.564 547.152C120.832 543.25 121.212 543.25 121.212 545.653C121.212 546.771 113.576 548.817 104.203 550.315C94.9023 551.885 85.8867 553.551 84.3167 554.217C82.7229 554.764 81.4383 554.217 81.4383 552.908ZM849.888 551.338C835.211 548.365 831.31 546.961 833.26 545.201C835.02 543.607 872.939 551.148 872.939 553.004C872.939 555.335 868.752 555.049 849.888 551.338ZM853.718 534.14C832.713 530.786 829.739 527.265 849.721 529.215C868.585 531.071 875.079 532.641 875.079 535.163C875.079 537.494 875.079 537.494 853.718 534.14ZM80.1301 533.307C82.6279 530.785 115.432 526.432 117.478 528.288C118.5 529.215 113.029 531.166 105.226 532.474C88.765 535.353 77.7037 535.71 80.1301 533.307ZM76.9664 515.371C76.9664 513.515 98.1613 510.542 111.078 510.732C115.907 510.732 116.93 511.279 114.599 512.587C109.865 515.18 76.9664 517.607 76.9664 515.371ZM848.033 515.656C842.276 515.18 837.542 513.777 837.542 512.683C837.542 510.161 872.201 512.397 877.315 515.276C880.741 517.131 869.133 517.321 848.033 515.561V515.656ZM855.74 497.887C844.417 497.435 837.542 496.221 837.542 494.746C837.542 493.058 842.18 492.701 852.504 493.724C860.664 494.461 870.155 495.103 873.509 495.103C876.84 495.103 879.528 496.126 879.528 497.34C879.528 498.553 878.339 499.29 876.745 499.1C875.27 498.838 865.779 498.267 855.74 497.887ZM75.8484 495.103C76.681 493.914 86.2677 492.962 97.5908 493.058C110.983 493.153 116.36 493.914 113.481 495.103C107.082 497.886 74.1833 497.886 75.8484 495.103ZM82.5563 477.452C75.7529 476.239 78.4649 475.788 94.165 475.502C106.511 475.312 114.599 476.073 114.599 477.452C114.599 479.879 96.3058 479.879 82.5563 477.452ZM838.66 477.452C839.397 476.239 848.865 475.216 859.736 475.216C871.464 475.216 879.528 476.144 879.528 477.452C879.528 478.761 870.988 479.689 858.451 479.689C844.868 479.689 837.827 478.856 838.66 477.452ZM89.6931 460.349C80.7726 459.897 74.7305 458.589 74.7305 457.114C74.7305 455.425 79.107 455.163 88.4082 456.091C95.83 456.923 104.751 457.566 108.295 457.566C111.72 457.566 114.599 458.494 114.599 459.707C114.599 460.92 112.363 461.752 109.58 461.562C106.892 461.277 97.8762 460.73 89.6931 460.349ZM838.66 459.802C839.397 458.494 848.865 457.661 860.307 457.851C877.125 458.042 879.171 458.398 871.821 459.897C858.999 462.585 836.971 462.49 838.66 459.802ZM91.3817 442.698C78.9167 441.675 72.0423 437.679 82.8183 437.679C96.211 437.679 116.74 440.557 116.74 442.413C116.74 444.292 113.124 444.292 91.3817 442.698ZM838.66 442.603C839.849 441.39 849.793 439.629 860.759 438.797C874.342 437.774 879.908 437.964 878.433 439.534C877.22 440.843 867.277 442.508 856.311 443.364C842.918 444.363 837.161 444.102 838.66 442.603ZM835.306 427.188C835.306 424.667 841.443 423.192 861.615 420.956C870.988 419.838 875.365 420.123 874.437 421.598C873.676 422.811 866.801 424.572 859.189 425.428C851.482 426.261 843.013 427.474 840.325 428.116C837.542 428.758 835.306 428.402 835.306 427.188ZM92.5715 424.12C80.9629 422.169 77.5371 420.861 79.3926 419.101C80.7723 417.887 116.549 423.382 118.238 425.143C120.189 427.093 107.534 426.617 92.5715 424.12ZM101.968 406.921C85.2445 403.686 75.9434 400.046 84.2216 400.046C89.0506 400.046 119.618 406.564 120.927 407.849C123.424 410.465 118.881 410.18 101.968 406.921ZM832.142 409.252C833.26 408.229 840.706 406.088 848.603 404.708C856.501 403.21 865.231 401.45 867.919 400.784C870.703 400.141 872.939 400.617 872.939 401.806C872.939 403.02 864.208 405.636 853.622 407.587C831.119 411.75 829.264 411.845 832.142 409.252ZM102.99 388.628C93.499 386.106 85.7918 383.133 85.7918 381.92C85.7918 380.73 87.1003 380.159 88.5751 380.73C90.1689 381.277 99.0894 383.608 108.462 385.845C117.953 388.057 125.66 390.674 125.66 391.696C125.66 394.099 122.782 393.742 102.99 388.628ZM829.264 392.148C830.762 390.674 861.687 382.491 866.159 382.396C873.771 382.396 864.018 386.487 848.865 389.841C831.405 393.742 827.218 394.194 829.264 392.148ZM824.245 376.068C824.245 374.783 827.955 372.738 832.618 371.524C837.161 370.216 845.797 367.718 851.934 365.958C865.041 361.961 864.113 362.056 864.113 364.364C864.113 365.387 856.406 368.551 846.915 371.334C837.542 374.117 828.526 376.829 827.028 377.376C825.553 377.947 824.245 377.376 824.245 376.068ZM109.485 371.334C91.8341 365.767 89.4314 364.745 90.8111 363.436C92.2146 362.056 125.851 371.239 128.824 373.951C132.155 376.924 123.425 375.711 109.485 371.334ZM114.599 354.325C96.4013 348.117 95.545 347.641 97.4957 345.691C99.3749 343.835 134.486 355.729 134.486 358.227C134.486 360.939 133.749 360.843 114.599 354.325ZM819.891 358.512C819.891 357.489 827.027 354.42 835.876 351.542C844.702 348.759 853.147 345.976 854.645 345.405C856.215 344.763 857.429 345.31 857.429 346.618C857.429 347.831 849.721 351.447 840.325 354.611C821.556 360.844 819.891 361.105 819.891 358.512ZM121.212 337.602C102.705 329.99 102.348 329.8 103.918 328.23C105.678 326.446 141.075 340.386 141.075 342.812C141.075 345.595 139.885 345.31 121.212 337.602ZM813.183 342.907C813.183 341.884 820.914 338.078 830.287 334.629C839.683 331.108 848.128 327.945 849.055 327.469C849.983 327.112 850.816 327.754 850.816 328.967C850.816 330.181 842.751 334.272 832.903 337.983C812.921 345.595 813.183 345.5 813.183 342.907ZM130.037 321.617C120.926 317.454 112.458 313.624 111.268 313.172C110.055 312.696 109.675 311.578 110.508 310.746C112.197 308.89 147.783 324.781 147.783 327.469C147.783 329.99 148.996 330.371 130.037 321.617ZM806.594 327.754C806.594 326.184 824.815 317.073 842.371 309.818C843.394 309.461 844.131 310.008 844.131 311.221C844.131 312.34 836.971 316.502 828.146 320.499C806.689 330.085 806.594 330.18 806.594 327.754ZM136.079 304.442C113.219 292.262 114.242 289.289 137.269 300.897C158.179 311.317 157.442 310.841 155.015 312.435C153.921 313.077 145.452 309.461 136.079 304.442ZM800.004 312.244C800.004 309.723 832.713 292.809 834.378 294.498C835.116 295.236 827.693 299.97 817.845 304.894C807.997 309.913 800.004 313.172 800.004 312.244ZM144.715 288.266C135.223 282.7 127.992 277.68 128.634 277.014C130.204 275.349 163.198 293.832 163.198 296.354C163.198 299.232 163.935 299.518 144.715 288.266ZM791.179 296.711C791.179 294.308 824.244 275.539 825.838 277.109C827.693 278.965 827.956 278.703 809.187 289.289C791.917 299.042 791.084 299.327 791.179 296.711ZM152.802 272.566C143.977 266.976 137.269 261.695 137.935 260.672C139.124 258.721 172.024 278.608 172.024 281.296C172.024 284.175 169.145 282.866 152.802 272.566ZM782.258 281.843C782.258 279.441 813.088 260.386 815.609 261.219C817.084 261.79 810.876 266.809 801.67 272.566C785.494 282.604 782.258 284.174 782.258 281.843ZM162.461 257.032C154.182 251.276 148.521 246.161 149.734 245.804C151.018 245.328 159.297 250.086 168.027 256.2C176.757 262.432 182.537 267.452 180.682 267.452C178.898 267.452 170.739 262.813 162.461 257.032ZM174.069 243.854C165.244 236.884 159.106 230.842 160.51 230.366C163.293 229.438 191.91 251.37 191.91 254.439C191.91 257.603 191.078 257.032 174.069 243.854ZM762.371 254.63C762.371 251.371 790.893 229.438 793.867 230.366C795.175 230.937 789.966 236.051 782.068 241.998C774.266 247.945 766.63 253.702 765.155 254.82C763.394 256.2 762.371 256.105 762.371 254.63ZM185.416 229.914C177.518 222.754 171.571 216.354 172.309 215.688C173.617 214.309 201.402 237.621 202.591 241.07C204.28 245.709 198.975 242.26 185.416 229.914ZM764.584 227.678C777.977 215.403 783.638 211.692 781.878 216.354C780.76 219.399 754.831 240.88 752.428 240.88C751.215 240.785 756.687 234.933 764.584 227.678ZM196.382 215.498C188.58 207.601 183.561 201.107 185.321 201.107C188.58 201.107 214.033 225.085 214.033 228.153C214.033 232.15 209.846 229.081 196.382 215.498ZM210.964 204.27C203.804 196.373 198.595 189.403 199.261 188.641C200.474 187.452 225.356 212.81 226.95 216.902C228.901 222.016 222.763 217.187 210.964 204.27ZM726.951 214.856C726.951 213.928 733.469 206.768 741.367 198.966C759.017 181.41 760.135 183.36 743.317 202.51C731.804 215.498 726.951 219.233 726.951 214.856ZM223.976 191.068C217.007 183.17 211.987 175.915 212.82 175.082C213.653 174.25 216.079 175.748 218.125 178.246C220.17 180.839 226.118 188.094 231.399 194.327C236.703 200.464 240.057 205.555 238.844 205.555C237.726 205.555 231.041 199.061 223.976 191.068ZM713.772 204.627C713.772 201.487 739.036 172.775 740.796 173.869C741.819 174.44 738.679 179.65 733.921 185.311C723.526 197.562 713.772 207.053 713.772 204.627ZM238.559 180.672C232.421 173.131 227.402 165.424 227.402 163.664C227.307 160.12 227.307 160.024 239.677 175.748C254.449 194.327 254.544 194.517 251.951 194.517C250.643 194.517 244.601 188.284 238.559 180.672ZM700.475 193.114C700.475 190.782 723.526 161.333 725.286 161.333C728.902 161.333 726.594 165.329 714.7 179.649C702.806 193.946 700.475 196.182 700.475 193.114ZM266.628 157.979C260.872 148.892 257.422 141.446 258.921 141.541C261.324 141.636 280.378 169.801 280.378 173.227C280.378 177.699 275.834 172.68 266.628 157.979ZM353.788 133.358C349.982 125.841 341.799 99.1746 343.012 97.9614C344.392 96.5579 348.579 105.954 354.335 123.319C358.141 134.952 357.879 141.16 353.883 133.358H353.788ZM576.611 127.887C576.611 122.225 586.364 90.6107 588.052 90.6107C590.645 90.6107 590.551 91.1818 584.223 111.806C579.037 129.1 576.611 134.024 576.611 127.887ZM383.333 111.068C381.382 102.885 379.146 94.3455 378.504 92.2997C377.957 90.1588 378.313 88.3984 379.431 88.3984C380.645 88.3984 383.238 95.0828 385.188 103.361C387.234 111.52 389.47 119.989 390.112 122.13C390.683 124.247 390.303 125.936 389.185 125.936C387.971 125.936 385.379 119.252 383.333 111.068ZM559.055 123.605C559.245 118.133 566.763 88.7554 568.428 86.9951C571.044 84.4974 570.283 91.9193 566.382 107.81C562.957 121.94 558.865 130.765 559.055 123.605ZM401.364 108.547C397.748 92.9419 396.44 79.8349 398.676 82.071C400.626 84.0216 406.74 117.016 405.908 121.012C405.456 123.153 403.41 117.563 401.364 108.547ZM542.047 117.658C542.689 115.517 544.378 106.596 545.758 97.7708C547.161 88.9454 549.397 81.7853 550.587 81.7853C552.085 81.7853 552.371 85.0443 551.419 90.6107C548.446 109.665 545.21 121.559 543.165 121.559C541.951 121.559 541.499 119.799 542.047 117.658ZM526.989 100.554C530.153 76.9564 533.506 72.7698 531.556 94.9879C529.867 113.376 528.487 119.323 526.061 119.323C525.229 119.323 525.609 110.878 526.989 100.554ZM436.571 103.528C434.62 84.5686 434.81 75.3863 437.141 79.573C439.829 84.402 442.351 117.111 439.924 117.111C438.902 117.111 437.332 110.973 436.571 103.528ZM454.15 96.9385C452.841 79.0023 453.293 72.5081 455.91 75.2913C457.861 77.5273 459.621 117.111 457.766 117.111C456.647 117.111 454.982 108.095 454.15 96.9385ZM490.664 96.6529C490.474 83.6408 491.307 75.1011 492.615 75.1011C495.208 75.1011 495.208 104.551 492.615 112.734C491.497 116.35 490.759 110.878 490.664 96.6529ZM508.22 111.425C507.935 99.3647 510.908 77.337 512.764 77.337C514.81 77.337 512.692 107.429 510.171 113.852C508.696 117.468 508.41 117.111 508.22 111.425ZM568.998 866.435C567.143 861.226 561.291 834.845 561.196 831.396C561.196 829.445 561.933 828.969 563.146 830.277C565.644 833.06 572.995 866.602 571.401 868.291C570.664 868.933 569.641 868.1 568.998 866.435ZM362.138 860.845C362.138 858.347 364.183 850.45 366.61 843.29C373.104 824.14 373.199 823.878 374.602 825.258C375.245 825.924 373.675 834.274 370.986 843.837C366.062 861.606 362.138 869.028 362.138 860.845ZM582.843 845.621C579.774 835.297 578.014 826.281 578.942 825.734C580.321 824.806 583.295 833.156 591.288 860.583C591.954 862.7 591.573 864.485 590.455 864.485C589.337 864.485 586.007 856.016 582.843 845.621ZM550.134 872.382C550.134 871.906 548.636 863.628 546.781 854.161C542.879 833.893 542.879 833.536 545.401 833.536C546.423 833.536 548.921 841.719 550.967 851.734C555.154 873.215 555.154 873.31 552.37 873.31C551.157 873.31 550.134 872.929 550.134 872.382ZM379.907 867.72C379.907 862.058 389.755 829.064 391.421 829.064C392.634 829.064 393.181 830.277 392.539 831.871C392.063 833.346 389.755 842.362 387.519 851.734C385.283 861.131 382.69 868.838 381.667 868.838C380.74 868.838 379.907 868.386 379.907 867.72ZM455.91 860.75C457.29 842.647 458.242 838.175 460.359 840.316C462.309 842.267 458.693 879.899 456.648 879.899C455.173 879.899 454.887 873.12 455.91 860.75ZM492.9 859.465C493.162 841.148 493.448 840.125 494.923 850.069C497.444 866.054 497.349 879.899 494.851 879.899C493.447 879.899 492.71 871.811 492.9 859.465ZM511.764 868.291C511.003 861.963 510.456 852.21 510.551 846.739C510.741 836.795 510.741 836.795 512.502 844.598C515.38 857.61 516.95 879.899 515 879.899C513.977 879.899 512.502 874.69 511.764 868.291ZM417.445 875.808C417.445 871.55 421.988 841.624 423.201 838.175C423.653 836.51 424.771 835.582 425.437 836.32C427.103 837.985 421.798 873.952 419.395 876.474C418.182 877.758 417.445 877.568 417.445 875.808ZM532.293 877.211C530.438 870.241 527.084 837.89 528.202 837.89C529.034 837.89 530.343 840.126 530.985 842.909C533.126 851.663 535.267 877.663 533.864 877.663C533.031 877.663 532.389 877.497 532.293 877.211ZM398.39 869.409C399.033 867.268 400.722 859.085 402.197 851.187C405.17 834.75 409.999 826.661 407.763 841.814C404.885 860.583 401.554 873.31 399.413 873.31C398.295 873.31 397.748 871.55 398.39 869.409ZM342.274 857.229C342.346 855.564 355.453 821.833 356.476 820.715C360.02 817.265 358.902 823.117 352.955 839.578C349.316 849.617 345.415 857.776 344.297 857.776C343.203 857.776 342.274 857.515 342.274 857.324V857.229ZM601.136 841.814C598.258 832.965 595.474 824.521 594.927 823.022C594.261 821.452 594.737 820.239 595.855 820.239C596.973 820.239 600.304 827.494 603.277 836.224C610.342 857.324 610.437 857.776 608.201 857.776C607.178 857.776 603.943 850.64 601.136 841.814ZM324.6 850.355C324.6 849.879 327.669 842.076 331.475 833.156C338.088 817.455 342.275 810.39 342.346 814.863C342.346 818.859 328.239 851.187 326.384 851.187C325.432 851.187 324.6 850.807 324.6 850.355ZM617.217 833.441C613.411 823.783 610.985 815.315 612.008 814.768C613.506 813.745 627.541 845.145 627.541 849.522C627.446 855.279 623.259 848.689 617.217 833.441ZM635.343 828.422C630.871 818.859 627.636 809.938 628.183 808.44C628.73 807.06 632.727 813.745 637.199 823.403C641.647 833.061 644.906 841.981 644.359 843.29C643.883 844.598 639.792 837.89 635.343 828.422ZM315.037 825.163C323.672 806.394 324.148 805.752 325.718 807.322C327.312 809.011 311.588 842.362 309.185 842.362C308.067 842.362 310.755 834.654 315.037 825.163ZM651.043 818.859C646.5 809.653 643.336 801.47 643.979 800.828C645.644 799.163 645.929 799.52 654.85 817.456C663.413 834.464 663.865 835.677 661.177 835.677C660.249 835.677 655.682 828.136 651.043 818.859ZM298.124 816.337C308.805 796.736 308.709 796.927 310.398 798.687C312.159 800.447 293.747 833.536 291.059 833.536C289.846 833.536 293.009 825.829 298.124 816.337ZM447.275 826.852C384.355 821.357 327.859 801.28 277.785 766.716C197.952 711.622 146.761 633.193 127.421 536.732C120.832 503.929 120.451 441.318 126.588 408.967C135.509 361.771 154.278 315.123 179.921 275.991C194.694 253.607 235.966 209.194 257.137 192.828C265.963 186.048 265.963 186.048 261.324 180.934C254.068 172.846 242.84 155.386 242.84 152.222C242.84 150.652 247.859 156.218 253.997 164.782C260.205 173.227 266.058 181.029 267.176 182.147C268.199 183.266 274.241 180.672 281.211 176.01L293.39 167.922L283.542 151.294C278.142 142.183 273.788 133.738 273.788 132.43C273.788 127.506 278.618 133.643 287.253 149.343C296.268 165.71 296.268 165.71 302.501 162.451C308.709 159.287 308.71 159.287 298.957 141.16C293.676 131.217 289.75 122.582 290.321 121.94C291.796 120.441 291.891 120.441 302.406 139.876C307.52 149.248 312.063 156.956 312.539 156.956C312.991 156.956 315.775 155.862 318.843 154.458C324.338 151.96 324.339 151.96 315.585 134.571C306.949 117.277 305.475 112.639 308.615 112.829C309.471 112.829 313.634 120.536 317.82 129.932C327.312 151.199 327.217 151.104 333.996 147.964C339.563 145.442 339.563 145.442 332.046 126.959C324.695 108.547 322.745 100.935 326.551 105.121C327.574 106.239 331.76 115.422 335.852 125.555C341.513 139.685 344.035 143.492 346.628 142.373C348.483 141.636 354.525 139.495 360.02 137.64C365.491 135.784 370.225 133.929 370.606 133.643C371.058 133.263 368.846 124.913 365.682 115.065C359.449 95.4635 358.997 92.8467 361.876 92.8467C363.826 92.8467 373.199 123.058 373.199 129.361C373.199 132.24 374.507 132.811 378.218 131.788C380.93 131.051 391.706 128.719 402.006 126.674C412.33 124.533 421.06 122.772 421.346 122.677C421.536 122.487 420.323 113.471 418.563 102.6C414.733 79.1924 414.733 79.573 417.159 79.573C418.277 79.573 420.418 89.136 422.083 100.84C424.962 122.035 424.962 122.035 432.859 120.727C437.141 119.989 447.917 119.418 456.743 119.418H472.728L472.918 96.748C473.109 79.1924 473.656 75.5767 475.226 80.6674C476.344 84.3069 477.081 94.2502 476.82 102.79L476.439 118.3L502.844 119.799C528.107 121.202 559.602 126.673 581.535 133.358C591.954 136.617 591.954 136.617 597.901 118.585C603.657 100.935 607.654 93.1323 607.654 99.5312C607.654 101.22 604.942 110.331 601.612 119.704C595.023 138.187 595.023 138.282 603.182 140.233C608.392 141.541 609.224 140.518 616.099 122.772C620.191 112.353 624.377 103.908 625.495 103.908C627.35 103.908 624.567 112.186 615.456 134.024C611.841 142.659 612.483 144.514 620 146.846C624.092 148.035 625.685 146.013 632.655 130.479C637.008 120.726 641.647 112.734 642.861 112.734C645.644 112.734 643.598 118.395 634.32 136.807C627.541 150.176 627.541 150.176 633.678 153.34C639.696 156.504 639.697 156.504 649.545 138.092C654.945 127.982 660.154 120.179 661.082 120.727C662.557 121.654 655.325 136.712 645.834 152.222C644.074 155.005 642.955 157.622 643.336 157.979C644.906 159.192 653.827 163.569 654.945 163.569C655.492 163.569 660.249 156.599 665.269 148.035C670.359 139.59 675.569 131.883 676.782 131.146C680.231 129.005 677.615 134.761 667.576 151.199C658.846 165.71 658.846 165.71 664.508 169.873C670.288 174.059 670.288 174.059 681.254 157.241C694.076 137.449 693.505 138.187 695.099 139.876C695.836 140.518 691.269 148.796 684.87 158.169C673.333 175.272 673.333 175.273 678.638 179.364C681.516 181.6 684.394 183.361 684.965 183.361C685.607 183.361 689.414 178.151 693.41 171.752C703.068 156.599 709.11 149.439 710.799 151.104C711.536 151.865 706.517 159.858 699.738 168.945L687.273 185.501L694.433 190.521C698.334 193.304 709.681 202.676 719.529 211.502L737.465 227.392L753.261 213.001C772.957 195.064 773.79 197.3 754.641 216.616L740.344 231.032L754.736 248.778C762.729 258.436 770.46 266.048 771.839 265.691C773.243 265.31 780.665 260.481 788.372 255.01C796.008 249.515 803.525 245.519 805.023 245.994C806.498 246.446 799.624 252.203 789.871 258.721L772.125 270.52L782.901 288.361C803.715 322.64 818.392 359.25 826.671 397.905C833.26 428.497 834.925 490.084 829.929 523.649C810.495 655.958 715.533 768.856 588.6 810.39C546.424 824.235 491.021 830.658 447.347 826.852H447.275ZM509.433 820.048C599.756 811.318 681.326 769.975 739.321 703.63C795.532 639.331 823.031 569.727 825.838 484.613C828.05 415.937 817.37 366.885 787.54 309.556C724.834 188.927 588.219 114.137 452.009 125.841C362.328 133.453 290.774 166.162 229.353 227.582C179.279 277.68 149.258 332.964 134.034 403.21C126.873 436.109 126.969 505.974 134.129 539.444C141.265 572.605 150.376 598.629 165.529 629.006C229.638 757.605 366.99 833.988 509.338 820.048H509.433ZM562.671 402.924C559.697 402.187 558.865 400.141 559.412 394.837C559.983 388.533 560.72 387.867 567.785 387.867C575.207 387.867 575.588 388.247 575.588 395.598C575.588 403.686 572.234 405.541 562.671 402.924ZM583.295 395.788C583.295 386.939 583.39 386.772 591.193 386.772C598.924 386.772 598.995 386.939 598.353 395.027C597.711 402.663 597.045 403.4 590.455 404.042C583.39 404.708 583.295 404.613 583.295 395.788ZM608.106 403.02C606.631 402.472 605.418 398.476 605.418 394.29C605.418 387.129 605.799 386.772 613.221 386.772C621.023 386.772 621.118 386.939 620.476 395.027C619.738 403.4 615.552 406.088 608.106 403.02ZM235.3 398.761C234.562 396.787 233.92 392.719 233.92 389.556C233.92 375.616 251.476 352.946 256.305 360.558C261.8 369.193 256.209 389.556 246.099 397.453C238.844 403.21 237.084 403.4 235.3 398.761ZM402.006 394.48C402.006 387.129 402.292 386.772 409.714 386.772C417.064 386.772 417.445 387.129 417.445 394.48C417.445 401.902 417.16 402.282 409.714 402.282C402.387 402.282 402.006 401.902 402.006 394.48ZM259.016 524.482C253.331 510.732 258.541 486.278 267.176 486.278C270.054 486.278 276.001 501.05 276.001 508.306C276.001 516.013 268.293 532.736 264.773 532.736C263.465 532.736 260.967 529.025 259.016 524.482ZM148.806 475.216C150.091 469.555 149.544 467.604 145.737 465.011C139.22 460.349 139.981 457.566 147.783 457.566C151.399 457.566 154.373 456.733 154.373 455.806C154.373 454.783 155.776 451.999 157.536 449.668C160.605 445.481 160.796 445.577 163.008 451.428C164.792 456.257 166.743 457.566 172.024 457.566C179.731 457.566 180.754 460.73 174.069 464.25C170.263 466.296 169.716 468.08 170.81 474.289C172.404 482.472 171 483.4 164.601 478.571C160.962 475.883 159.582 475.883 153.825 478.856C147.307 482.186 147.307 482.186 148.806 475.216ZM785.684 474.289C786.897 468.08 786.326 466.201 782.425 463.798C776.026 459.707 776.668 457.566 784.566 457.566C789.776 457.566 791.726 456.257 793.582 451.428C795.818 445.577 796.008 445.481 798.981 449.668C800.742 451.999 802.145 454.783 802.145 455.806C802.145 456.733 805.119 457.566 808.83 457.566C816.537 457.566 817.465 460.73 810.78 464.25C806.974 466.296 806.403 468.08 807.617 474.289C809.115 482.662 807.807 483.685 801.86 478.285C798.149 474.955 797.388 474.955 792.369 478.285C784.661 483.304 784.114 482.948 785.684 474.289ZM229.543 465.178C229.543 456.353 234.943 445.672 242.65 439.178C252.498 430.994 258.255 431.28 258.255 440.01C258.255 449.573 252.879 458.779 243.388 465.178C232.992 472.243 229.543 472.243 229.543 465.178ZM333.426 413.344C333.426 406.731 333.425 406.731 478.295 406.731C623.069 406.731 623.069 406.731 623.069 413.344C623.069 419.933 623.069 419.933 478.295 419.933C333.425 419.933 333.426 419.933 333.426 413.344ZM339.563 402.924C336.78 402.282 335.662 399.761 335.662 394.194C335.662 386.867 336.042 386.582 342.822 387.224C348.959 387.795 350.172 388.89 350.719 394.29C351.362 399.856 348.222 404.97 344.487 404.233C343.94 404.043 341.704 403.495 339.563 402.924ZM363.826 402.734C358.522 402.092 357.784 401.069 357.784 394.29C357.784 386.868 358.141 386.582 364.944 387.224C371.058 387.795 372.271 388.89 372.842 394.29C373.77 401.997 371.819 403.757 363.826 402.734ZM381.477 403.115C380.549 402.187 379.907 398.19 379.907 394.194C379.907 387.224 380.264 386.772 387.805 386.772C395.512 386.772 395.608 386.939 394.941 395.027C394.299 402.092 393.371 403.495 388.637 404.042C385.569 404.328 382.31 403.947 381.477 403.115ZM424.962 401.355C422.179 394.099 425.057 387.867 431.551 387.129C438.521 386.392 441.685 389.46 441.78 397.073C441.78 404.233 427.483 407.849 424.962 401.355ZM447.085 401.45C446.418 399.689 446.157 395.859 446.609 392.981C447.18 388.818 448.655 387.867 455.077 387.867C462.404 387.867 462.785 388.247 462.785 395.598C462.785 402.734 462.214 403.4 455.625 404.042C450.796 404.518 448.012 403.686 447.085 401.45ZM468.732 395.027C469.374 388.437 470.04 387.867 477.177 387.867C484.242 387.867 485.003 388.437 485.55 395.027C486.287 402.092 486.097 402.282 477.177 402.282C468.161 402.282 468.09 402.092 468.732 395.027ZM492.615 394.48C492.615 387.129 492.972 386.772 500.417 386.772C507.768 386.772 508.125 387.129 508.125 394.48C508.125 401.902 507.768 402.282 500.417 402.282C492.972 402.282 492.615 401.902 492.615 394.48ZM514.738 394.48C514.738 387.129 515.095 386.772 522.445 386.772C529.867 386.772 530.248 387.129 530.248 394.48C530.248 401.902 529.867 402.282 522.445 402.282C515.095 402.282 514.738 401.902 514.738 394.48ZM537.67 399.023C535.077 392.339 537.86 387.867 545.21 387.224C552.085 386.487 552.37 386.868 552.37 394.385C552.37 401.735 551.895 402.282 545.663 402.282C541.856 402.282 538.431 400.879 537.67 399.023ZM710.419 397.453C702.901 391.506 698.239 380.825 698.239 369.288C698.239 357.394 701.403 356.276 710.228 365.197C718.507 373.475 723.05 386.201 721.099 395.859C719.529 403.495 718.411 403.686 710.419 397.453ZM326.836 380.54C326.836 379.612 333.996 376.163 342.822 372.999C351.647 369.859 368.846 363.627 381.002 359.154C477.462 323.853 476.153 324.233 488.809 328.325C498.657 331.56 585.436 363.341 597.14 368.003C599.852 369.098 600.969 368.455 600.969 366.053C600.969 361.486 601.802 361.486 618.24 367.052C629.944 371.049 631.894 372.452 631.894 376.996C631.894 382.395 631.894 382.396 479.413 382.396C395.512 382.396 326.836 381.563 326.836 380.54ZM234.752 293.832C235.871 288.076 235.133 285.388 231.399 281.391C226.57 276.277 226.57 276.277 233.349 276.277C239.035 276.277 240.604 275.064 242.84 269.021L245.433 261.885L248.597 269.021C251.095 274.968 252.879 276.277 258.636 276.277C265.701 276.277 265.701 276.277 260.681 281.581C256.685 285.768 255.948 288.361 257.137 293.737C258.636 300.541 258.636 300.541 252.118 296.806C245.909 293.285 245.243 293.285 239.391 297.091C233.254 301.088 233.254 301.088 234.752 293.832ZM699.357 293.927C700.57 288.361 699.928 285.84 695.836 281.581C690.817 276.277 690.817 276.277 697.882 276.277C703.639 276.277 705.399 274.968 708.016 269.021L711.061 261.885L713.677 269.021C715.913 275.064 717.484 276.277 723.145 276.277C729.925 276.277 729.925 276.277 725.001 281.486C721.385 285.388 720.552 288.171 721.575 292.548C723.24 299.137 722.788 299.327 715.057 295.783C710.514 293.737 708.373 294.023 703.639 297.091C697.787 300.898 697.787 300.897 699.357 293.927ZM406.478 266.976C405.075 261.79 403.6 256.2 403.124 254.725C402.006 251.656 403.124 250.823 411.402 248.873C415.946 247.755 417.445 248.207 417.445 250.824C417.445 252.584 415.946 254.154 414.186 254.154C412.33 254.154 410.832 255.081 410.832 256.295C410.832 257.603 412.33 258.531 414.186 258.531C415.946 258.531 417.445 259.554 417.445 260.767C417.445 261.98 416.517 262.979 415.304 262.979C414.091 262.979 413.068 264.573 413.068 266.429C413.068 268.926 414.376 269.497 417.445 268.474C420.585 267.547 421.893 268.094 421.893 270.615C421.893 272.471 420.514 274.041 418.73 274.041C417.064 274.041 414.091 274.612 412.235 275.349C409.714 276.277 408.239 274.136 406.478 267.071V266.976ZM544.925 271.638C541.761 267.927 540.382 267.546 537.765 269.783C531.818 274.707 531.818 269.878 537.765 259.744C546.781 244.306 552.37 246.922 552.37 266.429C552.37 277.3 550.777 278.418 544.925 271.638ZM429.886 269.949C428.506 267.832 431.646 245.899 433.597 243.949C434.263 243.188 435.928 243.283 437.236 244.139C440.019 245.804 448.37 261.695 448.37 265.12C448.37 269.497 443.921 267.356 441.4 261.885C437.974 254.439 435.191 254.915 435.191 262.813C435.191 269.402 432.027 273.589 429.886 269.949ZM509.053 267.927C505.722 265.691 515.737 243.116 520.019 243.116C522.802 243.116 528.012 259.173 528.012 267.547C528.012 269.949 512.597 270.33 509.053 267.927ZM521.422 260.862C521.422 255.367 517.783 253.131 516.118 257.603C513.977 263.17 514.548 265.215 518.068 265.215C519.829 265.215 521.422 263.265 521.422 260.957V260.862ZM456.005 259.744C458.241 248.04 461.215 240.88 463.903 240.88C466.496 240.88 474.964 259.007 474.964 264.478C474.964 270.235 469.85 266.334 467.066 258.436L464.45 250.824L462.404 258.436C459.431 269.402 453.959 270.52 456.005 259.744ZM481.554 264.668C481.554 263.074 483.219 257.127 485.36 251.275C490.284 237.431 494.756 238.359 498.657 253.892C501.892 266.428 500.798 271.067 496.041 264.668C492.615 259.934 488.523 259.649 486.763 264.097C485.264 268.094 481.554 268.474 481.554 264.668ZM613.696 257.984C602.991 252.108 596.593 247.184 596.593 244.972C596.593 239.12 628.278 181.22 631.537 181.22C633.202 181.22 642.408 185.406 651.971 190.616C670.098 200.274 673.713 205.84 666.291 212.073C663.675 214.214 660.892 213.547 651.971 208.719C642.765 203.699 640.267 203.152 637.484 205.483C631.894 210.122 633.678 215.237 642.408 219.875C651.59 224.799 653.47 228.986 648.903 235.218C645.929 239.286 645.572 239.191 635.534 233.625C625.209 227.868 625.21 227.868 621.856 234.457C618.525 240.88 619.072 245.328 623.259 245.328C624.472 245.328 629.301 247.755 634.13 250.824C642.218 255.938 642.67 256.77 640.363 261.885C637.008 269.307 633.678 268.855 613.696 257.984ZM319.961 260.862C299.623 254.63 284.921 228.415 291.249 209.385C297.291 191.068 331.76 172.299 336.494 184.669C339.468 192.471 337.992 196.634 332.236 196.634C324.885 196.634 314.3 202.224 311.421 207.601C302.762 223.681 319.961 249.063 336.042 244.139C345.058 241.332 346.723 238.93 344.035 232.982C341.989 228.415 340.491 227.773 334.639 228.891C328.692 230.009 327.312 229.343 325.171 224.609C323.22 220.422 323.315 218.567 325.266 216.997C329.619 213.453 347.651 205.84 349.221 206.768C352.028 208.528 364.374 234.1 364.374 238.192C364.374 250.086 334.543 265.406 319.961 260.957V260.862ZM387.139 233.815C384.903 231.032 371.058 171.752 371.058 164.853C371.058 162.831 373.675 160.786 377.1 160.024C380.455 159.287 386.687 157.717 390.945 156.694C413.71 150.842 428.506 158.835 428.506 176.938C428.506 182.433 427.103 187.999 425.057 190.235C421.798 193.756 422.274 195.064 431.646 206.483C443.088 220.518 443.541 222.111 437.498 225.346C428.958 229.914 424.415 227.868 415.304 215.403C401.911 197.396 396.154 200.179 402.197 221.826C403.505 226.465 403.767 231.127 402.744 232.15C399.033 235.766 389.565 236.789 387.139 233.815ZM406.573 187.714C411.593 185.026 412.235 176.2 407.596 172.394C405.646 170.8 401.744 170.348 397.653 171.181C390.85 172.775 390.493 174.535 394.394 187.262C395.417 190.616 400.793 190.782 406.573 187.714ZM554.488 234.362C527.726 226.298 521.874 191.71 543.165 167.66C549.849 160.215 553.013 158.454 561.458 157.527C580.322 155.386 596.307 164.401 593.429 175.558C591.859 181.767 585.436 183.17 581.25 178.056C570.022 164.496 550.134 179.649 550.134 201.844C550.134 213.833 556.438 219.78 569.189 219.78C578.942 219.875 580.06 220.422 580.702 225.275C582.106 234.838 569.926 239.12 554.488 234.362ZM461.024 221.826C460.192 220.898 459.431 204.08 459.431 184.383C459.431 142.945 457.67 145.823 483.79 145.823C505.342 145.823 508.125 146.846 508.125 154.743C508.125 160.595 503.581 164.306 497.824 163.284C496.801 163.093 491.877 163.093 486.953 163.284C478.294 163.474 477.938 163.759 478.865 170.063C479.793 176.2 480.531 176.581 491.212 177.223C502.273 177.77 502.558 178.056 502.558 184.479C502.558 190.973 502.273 191.163 490.474 192.281C482.576 192.923 478.39 194.327 478.485 196.087C478.58 197.657 478.865 200.821 479.056 203.247C479.317 206.863 481.268 207.601 493.162 208.172C506.912 208.814 507.007 208.909 507.007 215.498C507.007 222.111 507.007 222.112 484.812 222.754C472.538 223.039 461.857 222.659 461.024 221.826ZM309.09 563.684C309.09 557 309.09 557 446.062 557C553.393 557 583.2 557.642 584.223 559.783C585.246 562.019 585.721 562.019 586.744 559.783C587.672 557.833 595.95 557 616.765 557C645.477 557 645.477 557 644.811 563.137C644.074 569.179 644.073 569.18 491.687 569.727C371.248 570.274 338.825 569.726 337.255 567.585C335.756 565.349 335.114 565.349 334.186 567.49C333.52 569.251 328.596 570.274 321.079 570.274C309.28 570.274 309.09 570.202 309.09 563.684ZM280.758 553.741C275.549 550.767 268.103 545.843 264.392 542.87C257.993 537.945 257.137 537.756 252.308 540.919C244.886 545.843 229.281 543.607 219.6 536.185C215.342 532.926 211.892 528.93 211.892 527.36C211.892 521.032 227.236 519.724 239.582 524.838C243.768 526.622 247.194 527.717 247.194 527.265C247.194 526.789 243.768 521.223 239.486 514.728C235.228 508.306 231.779 504.69 231.779 506.736C231.779 509.78 230.376 510.256 224.524 509.138C210.322 506.545 198.88 496.959 195.264 484.613C194.051 480.236 194.598 479.689 200.831 479.689C208.919 479.689 215.151 482.567 223.334 490.179C229.281 495.769 229.281 495.769 226.117 485.065C224.333 479.308 222.858 471.696 222.858 468.342C222.858 463.798 222.026 462.395 219.6 463.322C215.056 465.107 202.591 456.923 198.048 449.026C193.219 440.843 192.743 424.405 197.405 424.405C202.329 424.405 216.174 437.417 217.649 443.436C219.79 451.809 222.216 449.573 223.596 438.25C224.262 432.398 225.547 425.69 226.379 423.287C227.878 419.005 227.878 419.005 224.714 423.002C221.55 426.998 221.289 426.903 216.626 421.051C207.991 409.99 206.231 391.125 212.915 380.254C217.649 372.547 231.137 399.118 228.71 411.655C227.783 416.603 228.068 417.792 229.448 415.58C231.232 412.773 231.684 412.773 232.897 415.841C233.92 418.553 235.966 417.53 242.65 410.727C249.43 403.947 252.784 402.282 259.373 402.282C267.176 402.282 267.556 402.663 266.153 408.039C263.845 417.435 258.16 424.405 249.24 428.949C239.582 433.873 231.874 434.515 231.494 430.447C231.399 428.949 230.566 430.162 229.543 433.231C225.927 444.554 227.235 469.936 232.159 485.541L236.988 500.693L238.559 489.061C241.08 470.292 255.758 454.497 259.088 466.962C262.823 480.807 258.826 492.796 247.384 502.454C240.7 508.115 240.7 508.115 249.335 518.986C258.35 530.524 272.195 542.489 284.279 549.459C288.18 551.695 291.439 554.859 291.439 556.429C291.439 560.069 291.987 560.164 280.83 553.741H280.758ZM663.865 556.905C662.2 554.122 662.105 554.121 670.93 549.649C674.736 547.699 680.874 543.607 684.585 540.467C691.364 534.782 691.364 534.782 685.988 526.789C679.565 517.416 678.733 502.834 683.942 492.796C687.939 484.993 690.436 484.613 694.813 491.297C700.023 499.29 701.213 512.849 697.502 523.459C694.338 532.736 694.338 532.926 698.239 529.406C700.475 527.36 705.043 521.865 708.278 517.131C714.225 508.591 714.225 508.591 707.16 501.526C696.289 490.655 692.578 474.765 698.429 463.893C700.761 459.516 700.951 459.516 705.399 463.418C711.632 469.008 718.031 483.59 718.221 492.962C718.507 500.694 718.506 500.694 722.598 489.632C728.355 474.027 727.974 472.433 717.484 467.509C705.875 461.943 698.239 450.881 698.239 439.534C698.239 429.972 698.334 429.876 706.612 434.158C714.51 438.25 721.67 446.147 724.739 454.045C728.259 463.322 729.568 459.992 727.879 445.672C726.499 434.348 725.929 433.231 720.909 433.231C712.94 433.231 700.951 426.903 696.122 420.123C691.102 413.058 688.295 403.21 690.912 401.64C694.242 399.499 710.323 406.469 715.248 412.131C722.027 419.933 726.951 417.53 726.951 406.374C726.951 396.145 734.492 380.159 739.226 380.159C743.413 380.159 746.933 389.08 746.838 399.689C746.743 408.967 738.012 425.785 733.659 424.857C731.518 424.405 731.138 426.356 732.161 432.564C732.898 437.227 733.659 443.436 733.659 446.504C733.826 451.904 733.826 451.904 736.895 445.386C742.485 433.587 755.307 422.55 760.04 425.428C769.603 431.375 751.31 464.179 738.393 464.179C735.705 464.179 733.755 467.985 731.233 478.285L727.712 492.415L736.538 485.993C742.199 481.925 748.051 479.689 752.975 479.689C760.231 479.689 760.516 479.974 759.113 485.731C758.28 489.061 754.641 494.913 750.93 498.838C743.318 506.736 727.237 512.112 724.073 507.758C722.693 505.713 721.932 505.713 721.195 507.758C720.552 509.138 717.198 514.348 713.677 519.177L707.255 528.002L714.89 524.838C724.453 520.842 738.94 520.747 742.199 524.743C744.245 527.074 743.127 529.215 737.085 534.52C727.713 542.775 712.845 545.653 703.449 541.205C697.502 538.326 696.574 538.588 687.463 545.463C673.714 555.787 665.626 559.783 663.865 556.905ZM324.981 547.057C325.718 541.49 325.718 541.49 478.295 540.919C630.776 540.467 630.776 540.467 631.537 546.486C632.179 552.623 632.18 552.623 478.295 552.623C324.338 552.623 324.338 552.623 324.981 547.057ZM334.281 526.622C337.16 502.168 338.278 433.778 335.852 432.303C334.543 431.47 333.426 428.853 333.426 426.451C333.426 422.621 335.114 422.169 348.959 422.169C362.803 422.169 364.374 422.621 364.374 426.451C364.374 428.853 363.351 431.47 361.971 432.303C360.282 433.326 360.021 448.741 361.115 485.446L362.803 537.113H347.936C333.068 537.113 333.068 537.113 334.281 526.622ZM342.274 510.066C342.274 498.838 342.822 478.19 343.274 464.179C344.225 438.892 344.225 438.892 342.441 458.684C339.373 490.56 338.278 530.524 340.395 530.524C341.418 530.524 342.274 521.318 342.274 510.066ZM385.093 531.071C387.805 517.036 389.184 433.778 386.782 432.303C385.378 431.47 384.26 428.853 384.26 426.451C384.26 422.621 385.926 422.169 399.771 422.169C414.828 422.169 415.304 422.359 415.304 427.735C415.304 430.709 414.281 433.231 413.068 433.231C411.855 433.231 410.832 436.014 410.832 439.439C410.832 442.793 409.642 446.79 408.144 448.288C406.383 450.049 406.288 450.881 407.953 450.881C410.38 450.881 411.855 466.129 413.9 514.443L414.828 537.113H399.413C383.975 537.113 383.975 537.113 385.093 531.071ZM394.775 456.448L394.679 436.561L392.991 457.566C391.421 478.023 390.208 527.17 391.23 531.618C392.063 535.543 394.846 477.001 394.775 456.448ZM438.354 510.066C439.092 495.198 440.21 471.886 440.852 458.303C441.685 441.961 441.233 433.231 439.734 432.208C438.426 431.375 437.331 428.853 437.331 426.451C437.331 422.621 438.997 422.169 451.819 422.169C467.162 422.169 471.705 425.428 466.044 432.208C463.998 434.705 463.712 447.17 464.926 486.278L466.591 537.113H437.141L438.354 510.066ZM446.062 495.674C445.871 476.525 445.491 461.848 445.134 463.061C443.278 468.532 442.422 530.524 444.206 530.524C445.324 530.524 446.157 514.895 446.062 495.674ZM490.569 525.504C490.664 519.177 491.497 496.031 492.52 474.098C494.09 440.105 493.924 433.778 491.117 430.614C485.74 424.572 489.737 422.169 504.961 422.169C516.118 422.169 519.567 423.002 520.685 425.785C521.517 427.926 520.59 430.162 518.354 431.375C515.666 432.945 515 435.538 515.737 441.58C516.308 446.147 517.426 469.46 518.068 493.438L519.472 537.113H504.961C490.379 537.113 490.379 537.113 490.569 525.504ZM499.585 518.63C500.037 512.017 499.87 491.392 499.204 472.719C498.277 445.22 497.896 442.793 497.539 459.802C497.254 471.315 496.421 491.939 495.684 505.618C494.661 522.626 494.922 530.524 496.516 530.524C497.825 530.524 499.204 525.124 499.68 518.63H499.585ZM308.067 756.035C309.185 750.635 308.543 748.518 304.546 745.354C299.527 741.262 299.527 741.262 306.592 739.859C311.588 738.836 314.3 736.719 315.965 732.342C318.296 726.205 318.296 726.205 321.532 732.342C323.672 736.338 327.312 739.026 331.665 739.859C338.445 741.262 338.445 741.262 333.426 745.068C329.358 748.137 328.596 750.183 329.715 755.749C331.308 763.48 330 764.218 323.22 759.484C319.224 756.677 318.01 756.677 314.395 759.389C308.067 764.218 306.402 763.385 308.067 756.035ZM626.233 756.867C627.351 752.609 626.518 749.707 623.069 746.092C618.43 741.167 618.43 741.167 624.757 739.859C628.825 739.121 632.085 736.433 633.845 732.627C636.652 726.585 636.652 726.585 640.815 733.555C643.979 738.669 646.762 740.62 651.234 740.62C657.371 740.715 657.371 740.715 652.066 745.068C647.88 748.613 647.142 750.825 648.26 756.32C649.378 762.267 649.093 762.909 645.739 761.53C638.222 758.366 632.465 757.89 630.966 760.317C627.993 765.05 624.829 762.719 626.233 756.867ZM440.852 731.699C439.377 727.965 447.18 698.896 450.605 695.542C454.245 691.926 456.933 696.279 461.667 713.573C464.093 722.303 466.139 730.011 466.139 730.581C466.139 733.27 459.24 731.414 458.051 728.441C456.195 723.612 450.795 724.349 446.157 730.106C442.898 734.102 441.875 734.483 440.852 731.699ZM455.077 713.953C455.077 712.74 454.055 711.813 452.841 711.813C451.628 711.813 450.605 713.383 450.605 715.238C450.605 717.189 451.628 718.117 452.841 717.379C454.055 716.642 455.077 715.048 455.077 713.953ZM474.108 732.437C473.371 731.604 472.728 724.825 472.728 717.284C472.728 705.104 472.157 703.344 468.089 702.321C460.001 700.18 464.735 695.256 475.702 694.614C484.812 693.972 486.002 694.423 486.002 698.42C486.002 701.037 484.527 702.987 482.672 702.987C480.055 702.987 479.318 706.032 479.318 717.189C479.318 730.486 477.557 735.767 474.108 732.437ZM490.854 713.858C491.306 702.321 492.52 695.256 494.09 694.709C495.684 694.233 497.063 696.755 497.444 701.203C497.991 706.793 499.3 708.649 503.011 709.196C507.007 709.767 507.934 708.649 508.505 702.607C509.885 688.286 513.62 695.447 514.262 713.478C514.809 728.441 514.357 731.699 511.669 731.699C509.623 731.699 508.125 729.083 507.673 724.539C506.745 714.31 499.87 713.383 498.847 723.326C498.371 728.25 496.897 730.843 494.185 731.319C490.665 732.056 490.284 730.391 490.854 713.858ZM222.858 678.628C222.858 677.248 309.923 676.487 479.508 676.487C650.021 676.487 735.61 677.248 734.777 678.628C733.826 680.127 645.929 680.864 478.105 680.864C309.471 680.864 222.858 680.127 222.858 678.628ZM209.656 654.936C209.656 647.871 218.315 624.558 220.908 624.558C224.809 624.558 232.612 652.152 229.543 655.221C228.258 656.505 226.95 655.958 226.022 653.627C224.262 648.988 217.197 648.798 215.413 653.27C214.224 656.696 209.656 657.909 209.656 654.936ZM222.858 641.091C222.858 639.878 221.931 638.855 220.718 638.855C219.504 638.855 218.482 639.878 218.482 641.091C218.482 642.304 219.504 643.327 220.718 643.327C221.931 643.327 222.858 642.304 222.858 641.091ZM237.536 655.031C236.798 654.293 236.156 648.346 236.156 641.828C236.156 632.551 235.395 630.029 232.707 630.029C226.022 630.029 231.042 624.558 238.273 623.797C246.552 622.964 252.498 626.77 246.456 629.101C243.673 630.124 242.84 633.288 242.84 642.304C242.84 653.365 240.795 658.29 237.536 655.031ZM251.666 640.163C251.666 630.505 252.593 623.44 253.902 623.44C255.091 623.44 256.209 624.653 256.305 626.128C256.495 627.722 256.78 630.41 256.875 632.265C257.422 638.212 263.75 635.881 264.488 629.482C265.32 622.036 268.769 621.489 270.53 628.554C272.575 636.809 270.625 655.031 267.651 656.054C265.891 656.601 264.868 654.555 264.868 650.107C264.868 641.567 258.826 640.71 257.898 649.179C257.422 652.438 255.948 655.483 254.354 656.054C252.308 656.696 251.666 652.604 251.666 640.163ZM274.716 653.722C274.05 651.962 273.789 644.706 274.146 637.57C274.883 624.653 274.883 624.463 282.043 623.797C287.348 623.25 289.203 623.987 289.203 626.604C289.203 628.554 287.348 630.029 284.827 630.029C282.329 630.029 280.378 631.147 280.378 632.456C280.378 633.74 282.329 635.429 284.827 635.976C287.253 636.642 289.203 638.117 289.203 639.33C289.203 640.544 287.253 642.018 284.827 642.661C278.808 644.255 279.165 649.464 285.302 650.297C292.819 651.415 291.344 655.411 283.161 656.149C278.427 656.601 275.549 655.768 274.716 653.722ZM293.675 639.782C293.675 621.204 296.364 618.968 302.858 632.456L306.497 639.973L307.235 632.265C308.543 618.873 312.444 624.915 312.444 640.353C312.444 656.981 309.471 660.24 304.356 649.464L300.907 642.209L299.337 649.369C296.554 662 293.675 657.076 293.675 639.782ZM316.988 654.483C314.657 650.749 317.535 648.061 322.387 649.274C325.432 650.106 326.836 649.369 326.836 646.847C326.836 644.897 325.813 643.327 324.695 643.327C323.482 643.327 320.889 640.9 318.938 637.927C314.49 631.052 318.011 622.774 325.171 623.797C331.379 624.748 332.973 630.029 327.026 630.029C320.794 630.029 321.175 632.265 328.406 638.022C333.806 642.304 334.186 643.589 332.236 649.179C330 655.768 319.866 659.217 316.988 654.483ZM346.723 639.973C346.723 627.436 347.46 623.25 349.506 623.987C351.362 624.558 352.194 629.839 352.194 639.973C352.194 650.106 351.362 655.411 349.506 656.054C347.46 656.696 346.723 652.509 346.723 639.973ZM356.476 653.532C355.834 651.867 355.643 644.802 356.024 637.737C356.761 622.703 360.758 619.539 365.302 630.41C368.465 637.737 368.465 637.737 369.203 631.623C370.606 619.729 374.317 625.747 374.317 639.973C374.317 656.148 371.724 658.551 366.134 647.513L362.423 639.973L362.233 648.251C362.138 656.434 358.712 659.479 356.476 653.532ZM384.26 643.327C384.26 632.646 383.618 630.029 380.835 630.029C373.675 630.029 379.432 624.463 387.234 623.797C395.798 623.059 399.033 628.174 391.873 630.862C389.565 631.79 388.542 634.668 388.827 639.426C389.47 651.676 388.828 656.505 386.496 656.505C385.283 656.505 384.26 650.654 384.26 643.327ZM398.486 653.532C397.819 651.867 397.653 644.706 398.01 637.57C398.676 624.653 398.771 624.463 405.813 623.797C411.213 623.25 413.068 623.987 413.068 626.604C413.068 628.554 411.212 630.029 408.619 630.029C406.193 630.029 404.242 631.528 404.242 633.383C404.242 635.144 405.646 636.642 407.406 636.642C412.687 636.642 413.805 641.281 408.881 642.589C402.934 644.159 402.744 649.916 408.619 649.916C411.117 649.916 413.068 651.415 413.068 653.27C413.068 657.528 400.151 657.814 398.486 653.627V653.532ZM417.445 640.163C417.445 624.748 417.802 623.44 421.988 623.44C432.955 623.44 439.377 633.74 432.764 640.448C431.004 642.114 431.004 644.064 432.764 647.323C435.738 652.985 435.833 656.601 432.859 656.601C431.646 656.601 429.434 653.913 427.935 650.654C425.247 644.802 425.247 644.802 424.034 650.011C423.392 652.795 421.608 655.483 420.133 656.054C418.182 656.696 417.445 652.438 417.445 640.163ZM428.506 633.193C428.506 631.433 427.555 630.029 426.27 630.029C425.057 630.029 424.129 632.075 424.129 634.596C424.129 637.094 425.057 638.498 426.27 637.737C427.555 636.999 428.506 634.954 428.506 633.193ZM439.544 639.973C439.544 621.394 442.161 618.873 447.917 631.694L451.628 639.973L452.366 631.694C453.674 616.827 457.29 622.964 457.29 639.973C457.29 658.551 455.078 660.597 448.56 648.251L444.206 639.973L444.016 648.251C444.016 652.794 442.993 656.601 441.78 656.601C440.472 656.601 439.544 649.535 439.544 639.973ZM461.024 655.031C458.693 651.415 467.233 624.558 470.682 624.558C474.584 624.558 482.481 652.152 479.413 655.221C478.104 656.505 476.82 655.958 475.892 653.627C474.036 648.893 468.446 648.893 465.021 653.627C463.427 655.768 461.762 656.339 461.024 655.031ZM472.728 641.091C472.728 639.878 471.705 638.855 470.492 638.855C469.279 638.855 468.351 639.878 468.351 641.091C468.351 642.304 469.279 643.327 470.492 643.327C471.705 643.327 472.728 642.304 472.728 641.091ZM487.405 655.031C486.668 654.293 486.002 648.346 486.002 641.828C486.002 632.551 485.265 630.029 482.481 630.029C475.321 630.029 481.078 624.463 488.904 623.797C495.113 623.25 497.064 623.987 497.064 626.604C497.064 628.459 496.04 630.029 494.851 630.029C493.638 630.029 492.615 635.429 492.615 642.019C492.615 653.366 490.664 658.29 487.405 655.031ZM501.44 640.163C501.44 620.919 505.722 616.827 506.269 635.524C506.46 642.209 506.745 649.369 506.817 651.415C506.912 653.46 505.722 655.483 504.224 656.054C502.178 656.696 501.44 652.604 501.44 640.163ZM513.43 651.034C507.102 641.376 512.407 623.44 521.517 623.44C528.202 623.44 532.484 629.672 532.484 639.782C532.484 655.221 520.685 662.096 513.43 651.034ZM526.537 645.277C528.107 639.14 524.301 629.387 520.757 630.6C517.783 631.528 515.928 641.828 517.783 646.752C519.662 651.51 525.133 650.558 526.537 645.277ZM536.837 639.973C536.837 621.846 538.978 619.444 545.02 630.6C548.826 637.641 548.922 637.737 549.659 632.265C550.967 623.44 553.941 622.322 555.606 630.029C557.557 638.664 555.154 656.505 551.99 656.505C550.777 656.505 548.636 653.532 547.256 649.916C545.853 646.3 543.902 643.327 542.974 643.327C542.047 643.327 541.309 646.3 541.309 649.916C541.309 653.532 540.286 656.505 539.073 656.505C537.765 656.505 536.837 649.535 536.837 639.973ZM558.579 655.483C557.937 654.745 558.96 647.514 561.006 639.33C565.93 619.896 569.641 619.991 575.207 639.426C579.489 654.483 578.752 660.977 573.447 653.817C569.926 648.988 565.74 648.798 562.481 653.365C561.101 655.316 559.341 656.244 558.579 655.483ZM570.021 639.973C570.021 638.117 569.641 636.642 569.189 636.642C568.713 636.642 567.69 638.117 567.048 639.973C566.287 641.828 566.667 643.327 567.88 643.327C569.094 643.327 570.021 641.828 570.021 639.973ZM582.01 653.532C580.06 648.536 582.011 625.581 584.413 625.581C585.626 625.581 586.935 631.052 587.292 637.737C587.767 648.156 588.6 649.916 592.216 649.916C594.642 649.916 596.593 651.415 596.593 653.27C596.593 657.528 583.58 657.814 582.01 653.532ZM607.559 654.293C607.559 646.562 615.171 623.44 617.692 623.44C620.666 623.44 624.187 633.098 626.708 648.251C628.278 657.719 626.613 658.646 620.928 651.676C617.027 646.847 617.027 646.847 614.434 651.676C611.746 656.696 607.559 658.289 607.559 654.293ZM630.609 653.532C628.468 647.87 630.776 624.82 633.583 623.892C635.629 623.25 636.366 627.341 636.366 639.782C636.366 655.221 633.749 661.62 630.609 653.532ZM642.218 655.031C641.385 654.293 640.72 647.323 640.72 639.521C640.72 624.082 643.431 620.823 652.804 625.105C657.466 627.246 657.918 628.816 657.633 642.019C657.276 657.909 655.873 659.669 650.853 650.487C647.88 644.897 647.594 644.802 647.523 649.274C647.427 654.388 644.549 657.457 642.218 655.031ZM651.781 633.383C651.781 631.528 650.853 630.029 649.64 630.029C648.356 630.029 647.427 631.528 647.427 633.383C647.427 635.144 648.356 636.642 649.64 636.642C650.853 636.642 651.781 635.144 651.781 633.383ZM662.842 639.973C662.842 623.892 663.032 623.44 668.242 623.44C677.424 623.44 683.562 633.098 678.828 640.163C677.995 641.567 675.022 643.779 672.238 645.277C669.527 646.657 667.314 649.821 667.314 652.247C667.314 654.555 666.292 656.505 665.078 656.505C663.77 656.505 662.842 649.535 662.842 639.973ZM673.904 634.311C673.904 628.911 668.789 629.673 667.671 635.239C667.315 637.38 668.409 638.855 670.455 638.855C672.501 638.855 673.904 636.999 673.904 634.311ZM686.44 652.509C681.326 646.943 681.611 631.789 686.821 627.056C692.387 622.036 697.406 622.512 701.498 628.269C711.632 642.756 697.787 665.069 686.44 652.509ZM697.121 639.782C697.121 633.574 696.193 631.147 693.791 631.147C690.341 631.147 688.129 641.186 690.342 646.942C692.768 653.27 697.121 648.536 697.121 639.782ZM709.301 639.973C709.301 623.797 709.395 623.44 714.795 623.44C722.217 623.44 728.26 632.456 724.906 638.593C723.431 641.471 723.24 644.897 724.644 648.441C725.857 651.51 726.119 654.483 725.381 655.221C723.526 657.076 718.126 652.152 718.126 648.536C718.126 646.847 717.198 645.563 715.985 645.563C714.796 645.563 713.772 647.966 713.772 651.034C713.772 654.103 712.75 656.601 711.536 656.601C710.228 656.601 709.301 649.535 709.301 639.973ZM719.815 634.026C718.506 629.934 713.772 629.292 713.772 633.193C713.772 635.144 715.343 636.714 717.198 636.714C719.149 636.714 720.362 635.524 719.815 634.026ZM733.659 643.517C733.659 632.717 732.898 630.029 730.115 630.029C728.164 630.029 727.046 628.816 727.522 627.246C728.545 624.082 738.845 622.417 744.34 624.558C747.766 625.843 747.766 626.128 744.245 628.721C741.724 630.6 740.249 635.334 739.868 643.327C738.845 660.692 733.659 660.882 733.659 643.517ZM222.858 601.317C222.858 599.842 269.697 599.081 358.902 599.081C448.012 599.081 494.851 599.842 494.851 601.317C494.851 602.72 448.012 603.553 358.902 603.553C269.697 603.553 222.858 602.72 222.858 601.317ZM497.064 601.507C497.064 600.389 510.456 599.366 526.894 599.176C546.233 598.986 556.724 599.747 556.724 601.222C556.724 602.72 546.043 603.553 526.894 603.553C510.456 603.553 497.064 602.626 497.064 601.507ZM561.196 601.222C561.196 599.747 590.836 598.986 647.427 599.081C701.403 599.176 733.659 600.009 733.659 601.317C733.659 602.72 701.498 603.458 647.427 603.458C590.931 603.458 561.196 602.72 561.196 601.222ZM543.355 536.185C542.784 535.71 543.26 513.23 544.283 486.278C545.853 448.36 545.663 436.109 543.522 432.208C539.264 424.31 542.427 422.169 558.032 422.169C570.212 422.169 572.234 422.716 572.234 426.166C572.234 428.306 571.234 431.185 569.926 432.398C568.332 433.968 568.261 450.501 569.546 484.232C570.569 511.565 571.044 534.591 570.569 535.448C569.736 537.208 544.925 537.851 543.26 536.185H543.355ZM549.564 495.769C549.112 488.704 548.731 493.914 548.731 507.283C548.731 520.676 549.112 526.432 549.564 520.105C550.04 513.777 550.04 502.834 549.564 495.769ZM552.085 465.273C551.99 452.094 550.872 454.235 549.469 470.483C548.922 477.357 549.302 480.997 550.42 479.308C551.419 477.643 552.18 471.41 552.18 465.273H552.085ZM592.977 520.009C596.117 477.262 596.973 433.682 594.547 432.303C593.239 431.47 592.121 428.853 592.121 426.451C592.121 422.621 593.809 422.169 607.654 422.169C621.023 422.169 623.069 422.716 623.069 426.166C623.069 428.306 622.141 431.09 621.023 432.208C618.43 434.896 618.145 452.927 620 500.122L621.499 537.113H591.668L592.977 520.009ZM601.041 497.887C601.136 479.974 601.968 461.277 602.92 456.257C603.848 451.333 603.943 445.386 603.087 443.079C601.232 437.964 599.376 459.064 597.901 501.24C597.33 518.439 597.71 530.524 598.924 530.524C600.113 530.524 601.041 516.394 601.041 497.887ZM475.797 861.131C475.797 848.951 476.154 844.312 476.534 850.735C477.081 857.134 477.081 867.077 476.534 872.834C476.082 878.496 475.797 873.31 475.797 861.131ZM438.354 861.321C438.901 850.545 440.472 840.506 441.875 839.198C443.635 837.437 443.921 841.244 442.708 853.423C440.305 878.781 437.237 884.371 438.426 861.321H438.354Z" fill="#C83E3D"/>
</svg>
