<svg width="965" height="850" viewBox="0 0 965 850" fill="none" xmlns="http://www.w3.org/2000/svg">
<path fill-rule="evenodd" clip-rule="evenodd" d="M435.792 847.42C312.035 837.297 197.09 784.828 114.31 700.736C57.1648 642.821 22.2048 577.749 5.1526 497.906C-2.31843 463.26 -1.52015 384.272 6.60674 346.859C33.012 224.443 121.125 116.512 245.965 53.6928C258.683 47.3339 265.47 45.1091 266.126 47.2192C266.81 49.1013 268.578 48.4461 270.916 45.1098C279.072 33.4185 361.253 10.3494 419.196 3.67682C544.721 -11.0371 673.382 18.8181 773.3 85.9719C807.832 109.269 839.114 136.216 839.114 142.804C839.114 146.14 840.91 148.021 844.246 148.021C853.485 148.021 891.468 194.815 914.195 234.338C947.501 292.167 964.211 355.87 964.211 424.935C964.325 500.472 943.366 572.303 903.388 634.352C860.957 700.166 790.78 760.562 714.131 797.318C687.298 810.121 682.735 811.119 682.735 803.876C682.735 801.652 681.167 800.768 678.715 801.767C676.377 802.65 674.922 805.787 675.378 808.781C676.262 815.568 664.144 820.587 619.118 832.05C562.087 846.422 492.823 852.324 435.792 847.648V847.42ZM468.3 831.736C469.64 831.736 470.752 832.848 470.752 834.388C470.752 836.07 472.435 836.184 475.429 834.616C477.995 833.276 497.271 830.938 518.43 829.398C565.879 826.033 605.43 818.59 646.321 805.103C663.459 799.428 679.399 795.521 681.509 796.32C683.733 797.204 685.53 796.32 685.616 794.181C685.616 792.185 699.674 783.716 716.697 775.247C772.958 747.53 835.008 696.174 872.42 646.5C904.614 603.727 931.475 540.993 941.256 485.872C946.275 457.785 947.045 398.758 942.71 371.925C934.469 320.683 910.859 260.315 881.773 216.516C866.175 192.905 824.97 148.706 798.251 126.863C712.705 56.9144 599.071 18.0485 480.789 18.0485C450.363 18.1341 406.478 21.613 395.899 24.9493C393.333 25.7193 391.223 25.0628 391.223 23.2664C391.223 21.6125 393.675 19.5877 396.697 18.8178C401.374 17.5916 403.256 11.803 398.579 12.8011C389.34 14.7972 380.643 20.0439 380.643 23.6083C380.643 26.8306 376.423 28.8271 364.047 31.1653C316.826 40.4329 248.531 69.4899 203.876 99.3455C106.867 164.19 46.4716 250.849 23.7449 357.667C17.1863 388.521 17.0717 460.807 23.6587 493.229C44.8171 598.138 104.415 683.912 201.966 749.64C267.352 793.868 347.223 820.473 444.689 830.51C456.951 831.736 459.945 833.076 461.513 837.867C463.509 843.655 463.509 843.656 464.621 837.639C465.306 834.388 466.96 831.736 468.3 831.736ZM429.547 821.271C410.841 819.246 394.559 816.566 376.623 812.46C373.743 811.889 366.614 810.463 360.825 809.351C354.922 808.325 349.02 806.785 347.679 805.873C346.225 804.989 342.546 803.991 339.552 803.648C329.857 802.65 282.18 783.944 255.888 770.685C171.226 728.368 96.9435 655.283 61.2992 579.203C36.8045 527.077 27.2232 484.646 27.1091 427.615C26.881 366.136 38.5727 315.664 64.5217 265.42C105.413 186.346 173.565 120.618 260.223 76.8468C372.289 20.0441 518.772 10.463 642.642 51.5538C769.935 93.8992 872.42 187.686 914.651 300.408C945.619 383.045 944.278 478.173 911.086 559.385C856.622 692.952 715.699 795.978 556.868 818.477C528.581 822.469 456.066 824.037 429.547 821.271ZM563.541 809.551C622.682 799.542 672.384 782.49 719.834 756.199C866.089 675.129 944.279 534.548 926.77 384.386C912.855 264.535 839.912 161.937 719.492 93.2148C677.945 69.3759 618.576 49.1012 560.861 38.8642C530.577 33.5318 428.549 34.4157 396.583 40.3184C273.824 62.703 172.908 123.185 104.528 215.204C31.1012 313.896 14.2775 442.985 59.8451 557.703C111.315 687.477 254.434 791.187 408.503 810.35C421.648 811.889 435.336 813.8 438.9 814.456C452.502 816.794 541.812 813.344 563.541 809.551ZM466.645 800.198C462.739 792.955 459.403 786.169 459.175 785.057C458.832 783.174 489.572 783.488 491.482 785.399C492.709 786.625 478.879 810.121 475.999 811.889C474.772 812.688 470.524 807.441 466.645 800.198ZM517.66 798.544C512.413 791.301 508.963 784.714 509.961 783.716C512.641 781.378 542.383 778.812 542.155 780.922C542.155 781.948 538.704 789.277 534.598 797.204L527.127 811.576L517.66 798.544ZM415.289 794.409C412.067 787.052 410.042 780.266 410.841 779.496C411.725 778.697 419.624 779.04 428.549 780.38L444.689 782.832L434.794 795.407C429.433 802.308 424.101 808.011 422.96 808.011C421.962 808.011 418.398 801.88 415.289 794.409ZM567.676 791.073C562.429 784.714 558.208 778.926 558.208 778.156C558.208 777.471 563.313 776.045 569.444 775.019C575.689 774.021 583.359 772.566 586.61 771.797C592.512 770.342 592.513 770.342 587.038 786.511C584.044 795.407 580.593 802.65 579.367 802.65C578.141 802.65 572.894 797.432 567.676 791.073ZM367.498 793.64C366.158 790.189 364.275 782.946 363.277 777.471C361.595 768.688 361.937 767.805 366.386 769.116C369.18 769.915 375.852 771.369 381.327 772.367C386.774 773.365 391.793 774.933 392.335 775.931C393.789 778.156 375.739 799.97 372.402 799.97C371.062 799.97 368.838 797.204 367.498 793.64ZM616.579 779.04C609.992 773.365 605.202 768.118 605.886 767.462C607.996 765.438 636.056 757.767 637.168 758.879C638.85 760.448 632.149 789.391 630.267 789.391C629.269 789.391 623.024 784.714 616.579 779.04ZM318.708 782.148C317.938 779.61 316.598 771.797 315.6 765.01L313.803 752.406L329.971 757.881C338.868 760.875 346.225 764.24 346.225 765.352C346.225 766.35 342.319 770.143 337.642 773.707C319.278 787.623 320.162 787.167 318.708 782.148ZM412.267 769.573C191.729 733.814 46.8136 557.047 83.5699 368.788C103.73 265.876 176.245 174.769 279.071 123.184C309.469 107.929 332.081 99.4598 337.214 101.342C339.324 102.254 340.436 101.798 339.666 100.458C337.87 97.5776 363.591 89.6508 395.243 83.2064C440.782 73.8533 509.647 73.2823 559.635 81.7513C608.653 90.2204 674.836 113.718 674.836 122.728C674.836 126.521 673.81 126.521 664.913 122.529C541.812 68.7205 403.598 70.4884 289.422 127.32C187.708 177.878 118.786 259.745 93.8351 359.549C85.2519 393.539 85.4805 460.123 94.2632 493.885C110.317 555.935 136.808 601.702 184.372 649.038C237.952 702.419 308.699 739.375 393.133 758.223C428.321 766.122 528.011 766.892 563.769 759.535C657.784 740.401 744.984 692.267 796.797 631.216C805.152 621.207 811.939 615.418 814.163 616.302C820.066 618.526 814.505 626.225 786.446 654.056C730.726 709.633 658.897 747.188 571.782 766.008C538.704 773.251 447.256 775.247 412.267 769.573ZM665.569 762.672C659.667 758.309 654.562 753.746 654.22 752.52C653.336 750.182 682.165 737.607 684.075 739.489C686.414 741.827 681.851 770.799 679.057 770.799C677.488 770.685 671.358 767.12 665.569 762.672ZM269.262 755.657C269.262 750.182 268.578 742.939 267.694 739.717C265.584 732.16 267.922 732.246 286.628 740.487L301.998 747.302L288.424 756.427C271.258 767.89 269.376 767.805 269.262 755.657ZM711.251 740.173C704.35 736.609 698.647 732.816 698.647 731.704C698.647 729.366 721.602 715.222 725.28 715.222C726.735 715.222 727.847 722.351 727.847 731.134C727.847 739.831 726.962 746.96 725.85 746.845C724.738 746.845 718.151 743.852 711.251 740.173ZM722.486 725.801C722.486 724.347 721.373 723.121 719.834 723.121C718.379 723.121 717.267 724.347 717.267 725.801C717.267 727.256 718.379 728.482 719.834 728.482C721.373 728.482 722.486 727.256 722.486 725.801ZM224.493 729.023C224.806 707.209 226.147 706.183 242.515 716.334C258.113 725.915 258.227 725.573 236.84 735.61L224.265 741.513L224.493 729.023ZM434.566 734.926C426.752 727.141 427.551 716.99 436.676 709.205C443.577 703.417 444.917 703.417 452.616 709.633C460.058 715.65 457.064 720.44 448.937 715.45C444.033 712.313 442.807 712.542 439.67 716.762C437.788 719.442 436.448 723.349 436.904 725.459C437.902 730.478 446.143 735.382 448.709 732.588C449.936 731.362 449.365 729.794 447.597 729.138C443.805 727.798 443.035 720.44 446.713 720.44C458.832 720.44 461.969 734.812 450.706 739.061C441.695 742.511 442.35 742.625 434.566 734.926ZM467.53 734.042C466.959 729.794 466.959 722.009 467.53 716.762C468.642 708.093 469.412 707.209 477.111 707.209C481.787 707.209 487.034 708.635 488.802 710.431C492.709 714.338 492.937 724.917 489.258 727.141C487.462 728.254 487.462 730.364 489.258 733.7C492.823 740.401 492.594 741.713 488.032 741.713C485.922 741.713 482.785 739.061 481.017 735.81C477.88 729.908 477.881 729.908 475.657 735.81C472.663 743.966 468.87 743.167 467.53 734.042ZM484.012 719.214C484.012 716.99 482.244 715.222 479.991 715.222C477.881 715.222 475.999 716.99 475.999 719.214C475.999 721.353 477.881 723.121 479.991 723.121C482.244 723.121 484.012 721.353 484.012 719.214ZM499.951 739.831C499.951 738.947 501.834 731.134 504.172 722.665C509.847 702.504 515.435 702.076 522.564 721.125C525.444 728.681 528.125 735.81 528.581 736.922C529.123 738.149 527.555 739.061 525.331 739.061C522.992 739.061 521.11 737.835 521.11 736.381C521.11 732.16 510.531 733.358 508.849 737.721C507.309 741.627 499.951 743.395 499.951 739.831ZM541.042 725.915C539.474 715.222 538.162 712.542 534.142 712.542C531.347 712.542 529.009 710.774 529.009 708.521C529.009 705.983 531.689 704.529 536.366 704.529C540.386 704.529 546.289 703.845 549.625 702.961C553.96 701.734 555.528 702.419 555.528 705.641C555.528 707.979 553.646 709.861 551.394 709.861C548.057 709.861 547.401 712.542 548.057 723.577C549.283 742.055 543.495 743.966 541.042 725.915ZM412.381 728.795C412.381 715.336 415.632 704.643 419.51 704.643C422.533 704.643 422.96 707.209 421.648 717.218C419.509 733.472 418.512 736.381 415.175 736.381C413.721 736.381 412.495 732.93 412.495 728.795H412.381ZM393.903 726.799C393.903 719.328 393.903 719.328 389.768 725.231C384.55 732.702 381.755 732.702 379.303 725.117C377.763 720.127 377.193 719.898 376.195 723.805C374.969 728.596 367.384 730.478 367.384 725.915C367.384 724.575 368.724 717.446 370.292 710.089C372.516 699.624 374.284 696.601 378.191 696.601C381.755 696.601 383.324 698.512 383.324 702.618C383.438 714.338 387.544 716.448 392.791 707.523C398.009 698.74 398.807 698.284 403.712 701.392C406.164 702.96 406.164 706.639 403.712 717.674C400.262 733.358 393.903 739.175 393.903 726.799ZM567.79 729.138C567.105 726.571 565.651 718.672 564.653 711.544C563.199 701.392 563.541 698.854 566.335 699.852C569.9 700.964 571.896 706.297 575.118 723.805C576.573 731.704 576.145 733.7 573.122 733.7C570.898 733.7 568.559 731.704 567.79 729.138ZM586.496 723.577C581.363 717.988 580.593 701.848 585.27 697.172C594.623 687.705 611.219 697.828 611.219 712.998C611.219 726.913 595.507 733.7 586.496 723.577ZM602.75 711.886C602.094 705.299 600.525 703.074 595.963 702.418C590.944 701.734 590.06 702.846 590.06 709.319C590.06 718.216 591.714 720.44 598.529 720.44C602.635 720.44 603.434 718.9 602.75 711.886ZM350.36 715.878C352.014 708.521 352.014 708.521 347.679 714.538C341.549 722.779 338.754 722.009 337.642 711.886C336.644 703.302 336.644 703.303 333.536 710.545C330.285 718.102 324.953 720.44 324.953 714.338C324.953 709.861 332.852 683.37 334.192 683.37C340.665 683.37 343.545 687.819 343.545 697.514C343.545 708.521 343.545 708.521 349.448 699.966C360.597 684.14 367.269 690.157 360.711 709.975C356.034 724.233 347.337 729.252 350.474 715.878H350.36ZM619.574 705.641C611.561 684.796 615.011 680.576 629.925 693.151C638.394 700.394 638.394 700.394 636.398 693.835C633.489 684.14 633.489 682.8 636.74 681.688C638.964 680.804 650.997 705.983 650.997 711.43C650.997 714.424 641.73 711.886 635.714 707.209C627.587 700.736 626.132 701.62 629.611 710.545C631.949 716.99 631.037 720.44 627.045 720.44C626.047 720.44 622.682 713.768 619.574 705.641ZM754.452 712.77C748.007 710.089 742.332 706.981 741.99 705.641C740.878 701.962 764.945 684.91 767.397 687.591C768.623 688.931 770.392 696.288 771.276 703.958C773.3 719.898 772.73 720.127 754.452 712.77ZM183.26 698.512C186.168 677.24 187.052 676.669 201.196 687.705C208.097 692.952 213.685 698.284 213.685 699.396C213.685 700.508 206.443 703.844 197.518 706.867L181.378 712.313L183.26 698.512ZM306.474 707.637C306.474 701.506 318.166 678.009 320.732 679.007C324.068 680.234 323.727 683.028 317.824 698.626C314.259 708.321 306.474 714.423 306.474 707.637ZM793.46 681.46C784.991 679.349 778.205 676.555 778.205 675.443C778.205 674.217 783.993 668.428 791.008 662.525L803.926 651.718L808.26 667.544C810.599 676.242 812.623 683.912 812.623 684.682C812.623 686.479 811.482 686.25 793.46 681.46ZM143.737 676.241C141.941 674.331 151.522 648.04 154.316 647.041C157.539 646.043 178.156 666.86 176.017 668.998C173.793 671.109 145.163 677.553 143.737 676.241ZM485.352 670.795C486.008 660.758 485.551 659.531 480.447 659.531C477.311 659.531 473.319 661.328 471.408 663.438C466.846 669.113 462.853 668.457 464.735 662.44C465.619 659.646 465.192 656.537 463.623 655.653C458.376 652.402 460.829 648.838 467.302 650.407C470.866 651.291 476.312 651.177 479.335 650.293C484.667 648.61 484.782 648.068 480.875 642.166C478.651 638.715 476.769 635.265 476.769 634.466C476.769 631.016 484.24 633.582 490.142 639.057C494.249 642.821 499.81 644.96 505.826 644.96C518.088 644.96 520.084 649.523 509.391 652.973C499.61 656.195 497.813 657.649 497.043 662.782C496.701 664.778 493.821 669.997 490.456 674.245C484.44 682.03 484.439 682.03 485.352 670.795ZM829.875 644.361C812.823 642.821 811.825 642.023 816.843 634.352C820.065 629.334 822.746 627.993 826.88 629.105C831.557 630.446 831.757 630.218 828.535 627.651C825.541 625.427 825.426 624.315 827.878 623.317C829.761 622.547 831.215 620.323 831.215 618.184C831.215 610.399 835.778 614.962 841.338 628.45C848.039 644.589 848.267 646.386 843.79 645.815C842.023 645.587 835.663 644.931 829.875 644.361ZM110.317 637.232C110.317 633.554 123.776 609.173 125.801 609.173C128.025 609.173 145.619 633.126 144.279 634.466C142.511 636.234 110.317 638.915 110.317 637.232ZM819.409 609.515C818.183 607.491 821.063 600.59 826.766 592.121C864.749 534.89 882.001 467.166 875.984 398.302C874.644 382.618 873.874 369.472 874.33 369.016C878.208 365.109 882.229 376.487 884.795 398.53C888.474 431.066 884.567 473.497 874.872 507.601C862.725 549.918 825.198 618.868 819.409 609.515ZM206.329 603.157C192.955 586.447 210.235 562.18 225.035 576.979C232.05 583.994 229.056 587.33 220.13 582.54C212.346 578.434 207.783 582.226 209.009 591.921C209.551 596.256 211.461 597.139 219.702 596.712C229.939 596.141 231.821 597.91 226.375 603.385C222.24 607.491 209.779 607.405 206.329 603.157ZM237.524 590.781C237.524 578.091 238.409 574.755 241.631 574.755C244.967 574.755 245.538 577.55 244.967 589.783C243.855 611.283 237.524 612.281 237.524 590.781ZM256.23 602.7C252.552 598.252 253.55 573.415 257.457 573.415C258.911 573.415 260.451 579.089 260.907 586.018C261.449 596.256 262.561 598.594 266.696 598.594C270.83 598.594 271.829 596.256 272.484 586.018C272.941 579.089 274.481 573.415 275.935 573.415C279.727 573.415 280.839 594.687 277.389 601.16C273.939 607.491 261.021 608.517 256.23 602.7ZM287.854 590.695C287.854 572.759 290.535 569.85 302.996 573.985C320.619 579.888 316.484 604.497 297.777 606.065C287.854 606.835 287.854 606.835 287.854 590.695ZM305.134 589.355C305.134 583.88 303.68 581.114 300.458 580.543C296.779 579.774 295.867 581.542 295.867 589.355C295.867 597.026 296.779 598.822 300.458 598.024C303.68 597.368 305.134 594.687 305.134 589.355ZM320.504 602.814C321.388 600.818 323.384 594.26 325.181 588.243C331.197 568.196 336.102 568.624 344.457 590.011C349.903 603.926 349.904 606.493 344.885 606.493C342.661 606.493 340.892 605.495 340.892 604.154C340.892 600.048 330.085 598.708 328.517 602.7C327.747 604.839 325.295 606.493 323.07 606.493C320.732 606.493 319.706 604.953 320.504 602.814ZM355.236 602.928C354.466 600.932 354.124 593.461 354.694 586.332C355.35 575.097 356.263 573.301 361.595 572.531C364.931 572.075 370.634 573.529 374.198 575.867C382.211 581.228 383.096 595.571 375.853 602.158C369.95 607.491 357.147 607.947 355.236 602.814V602.928ZM372.174 590.011C371.747 584.792 369.95 581.314 367.726 581.314C365.502 581.314 363.819 584.792 363.391 590.011C362.821 596.911 363.705 598.594 367.84 598.594C372.06 598.594 372.859 597.025 372.174 590.011ZM402.8 602.614C401.916 600.362 402.372 592.919 403.598 586.018C405.822 574.185 406.478 573.415 413.607 573.985C417.856 574.299 423.074 576.323 425.327 578.434C430.887 584.108 430.317 598.594 424.301 602.928C417.742 607.719 404.711 607.491 402.8 602.5V602.614ZM421.762 593.147C423.644 587.131 419.196 580.002 413.407 580.002C411.069 580.002 409.843 583.224 409.843 589.355C409.843 596.712 410.841 598.594 414.947 598.594C417.742 598.594 420.85 596.141 421.762 593.147ZM438.786 604.497C438.672 603.499 438.444 596.028 438.244 588.015C437.788 573.415 437.788 573.415 448.139 573.415C453.928 573.415 458.832 574.869 459.517 576.751C460.172 578.89 457.834 580.002 452.388 580.002C447.911 580.002 444.261 581.228 444.261 582.654C444.261 584.108 447.255 585.334 450.934 585.334C455.04 585.334 457.492 586.903 457.492 589.355C457.492 591.807 454.954 593.233 450.706 593.233C441.581 593.233 443.691 599.592 453.044 600.704C456.951 601.274 460.173 602.7 460.173 604.04C460.173 606.949 439.014 607.491 438.786 604.611V604.497ZM483.241 601.816C480.675 599.05 478.679 593.689 478.679 589.783C478.679 582.654 486.806 572.074 492.139 572.074C497.5 572.074 505.17 577.55 505.17 581.428C505.17 586.104 502.062 586.446 497.927 582.34C492.823 577.207 486.236 581.884 487.12 589.897C487.804 595.486 489.572 597.482 494.591 598.138C501.064 598.936 501.064 598.936 495.931 595.03C491.026 591.351 490.912 590.895 495.275 589.241C503.516 586.019 507.736 589.583 505.512 597.824C503.06 607.177 490.256 609.515 483.241 601.816ZM518.544 604.04C513.639 600.932 512.983 574.413 517.774 572.759C520.112 571.96 521.11 575.525 521.11 585.334C521.11 597.91 521.452 598.936 527.013 598.138C532.145 597.368 533.144 595.372 533.8 584.564C534.912 567.626 539.588 571.305 539.588 589.241C539.588 599.592 538.59 603.727 535.482 604.953C529.465 607.177 522.992 606.835 518.544 604.04ZM547.829 603.157C548.4 594.459 557.753 573.415 561.089 573.415C565.11 573.415 576.458 602.386 573.578 605.266C572.666 606.179 569.016 605.038 565.451 602.7C559.634 598.936 558.636 598.936 555.642 602.5C551.507 607.291 547.516 607.719 547.829 603.157ZM563.541 590.581C563.541 589.127 562.315 588.015 560.861 588.015C559.435 588.015 558.208 589.127 558.208 590.581C558.208 592.007 559.435 593.233 560.861 593.233C562.315 593.233 563.541 592.007 563.541 590.581ZM586.496 604.725C585.498 603.841 584.7 597.824 584.7 591.465C584.7 582.768 583.701 580.002 580.479 580.002C571.782 580.002 578.911 573.301 588.606 572.531C600.297 571.533 607.996 576.637 598.643 579.089C593.51 580.43 592.626 582.454 592.626 593.575C592.626 605.609 590.716 609.059 586.496 604.725ZM609.108 590.125C609.878 573.415 609.878 573.415 619.802 573.415C630.923 573.415 633.603 578.206 623.252 579.546C614.555 580.658 614.441 585.334 623.138 585.334C627.273 585.334 629.811 586.788 629.811 589.355C629.811 591.807 627.273 593.233 623.138 593.233C614.127 593.233 614.669 598.023 623.794 599.05C635.172 600.362 632.377 605.152 619.688 606.065C608.31 606.835 608.31 606.835 609.108 590.125ZM639.506 604.725C636.626 601.93 637.51 575.211 640.504 573.301C644.753 570.734 650.428 576.751 652.538 586.104C654.448 594.573 654.448 594.573 659.238 583.994C666.253 568.196 670.702 570.306 671.586 590.011C672.27 603.498 671.7 606.493 668.364 606.493C665.683 606.493 664.143 603.926 664.029 599.25C663.801 591.921 663.801 591.921 661.121 599.25C657.67 608.831 654.22 608.403 649.657 597.91L645.865 589.355L645.751 597.91C645.751 606.065 643.413 608.603 639.506 604.725ZM713.703 604.725C712.705 603.841 711.907 596.598 711.907 588.899C711.907 578.092 712.819 574.755 715.927 574.755C718.807 574.755 719.834 577.749 719.834 586.675C719.834 597.596 720.49 598.594 726.506 598.594C730.641 598.594 733.065 600.048 733.065 602.5C733.065 606.607 717.381 608.403 713.703 604.725ZM739.31 602.814C740.108 600.818 742.219 594.26 743.987 588.243C747.779 575.325 752.456 570.421 756.134 575.325C758.814 578.89 767.597 601.274 767.597 604.611C767.597 608.175 760.155 606.493 758.7 602.5C757.816 600.362 755.25 598.594 753.026 598.594C750.687 598.594 748.236 600.362 747.323 602.5C746.439 604.725 743.986 606.493 741.876 606.493C739.538 606.493 738.426 604.953 739.31 602.814ZM844.474 599.592C844.474 596.256 858.618 572.074 860.5 572.074C862.411 572.074 878.893 597.14 878.893 599.934C878.893 600.704 871.08 601.274 861.613 601.274C852.146 601.274 844.474 600.476 844.474 599.592ZM83.7979 595.685C83.7979 592.121 99.3957 569.394 101.848 569.394C104.529 569.508 117.874 595.372 116.22 597.139C113.425 599.934 83.7979 598.594 83.7979 595.685ZM870.652 547.808C873.304 541.449 876.44 533.864 877.438 530.984C879.121 526.193 880.546 527.077 891.04 538.882C904.271 553.825 904.072 554.024 879.549 557.389L865.747 559.271L870.652 547.808ZM881.573 548.35C881.573 547.009 880.347 545.127 878.893 544.243C877.438 543.331 876.212 544.443 876.212 546.696C876.212 549.034 877.438 550.802 878.893 550.802C880.347 550.802 881.573 549.69 881.573 548.35ZM71.2224 554.252C66.5173 553.711 62.6394 551.686 62.6394 549.918C62.6394 546.354 83.1422 525.309 84.6821 527.191C86.4785 529.302 94.3772 550.916 94.3772 553.597C94.3772 556.163 87.9039 556.277 71.2224 554.138V554.252ZM211.661 552.912C213.116 548.578 409.387 547.922 410.499 552.142C410.841 553.825 376.081 555.051 310.809 555.478C231.051 556.049 210.777 555.479 211.661 552.798V552.912ZM415.061 549.804C415.061 546.24 416.858 527.533 418.968 508.029C431.999 389.975 438.444 316.235 434.452 331.49C433.454 335.368 430.203 336.166 416.174 336.166C397.696 336.166 396.897 335.482 402.144 320.682C404.938 312.555 405.48 312.327 420.422 312.327C432.883 312.327 436.105 313.211 437.132 317.004C438.244 321.338 438.359 321.338 438.672 317.004C438.786 314.095 441.125 312.327 444.689 312.327C450.934 312.327 450.934 304.971 445.259 412.36L443.463 444.639L484.354 445.552L525.13 446.321L483.784 446.892L442.351 447.433L440.582 481.196C439.584 499.788 438.131 524.283 437.218 535.546C435.564 556.163 435.564 556.163 425.327 556.163C416.287 556.163 415.175 555.365 415.175 549.69L415.061 549.804ZM528.125 470.731C525.558 423.709 522.764 374.805 521.88 362.001L520.34 338.847L485.58 338.276L450.934 337.706L484.696 336.822L518.43 336.052V324.019C518.43 313.097 519 312.099 524.446 312.869C529.807 313.668 530.577 315.663 532.459 334.826C537.934 390.06 552.962 534.89 554.416 544.899C555.87 556.163 555.871 556.163 544.379 556.163H532.915L528.125 470.731ZM558.865 552.798C559.749 550.26 581.819 549.462 657.556 549.462C733.293 549.462 755.478 550.26 756.362 552.798C757.132 555.479 736.316 556.163 657.556 556.163C578.911 556.163 557.981 555.365 558.865 552.798ZM460.857 551.486C473.546 551.03 494.476 551.03 507.194 551.486C519.998 552.028 509.533 552.37 484.012 552.37C458.519 552.37 448.025 552.028 460.857 551.486ZM220.244 542.219C220.929 540.451 222.696 533.864 224.265 527.647L227.145 516.384H415.832L414.177 526.307C413.293 531.754 412.495 538.341 412.495 540.879C412.495 545.242 406.05 545.584 315.828 545.584C239.634 545.584 219.36 544.785 220.244 542.219ZM441.581 542.903C441.581 541.221 457.948 540.223 485.352 540.223C512.755 540.223 529.009 541.221 529.009 542.903C529.009 544.557 512.755 545.584 485.352 545.584C457.948 545.584 441.581 544.557 441.581 542.903ZM557.296 543.787C556.298 542.789 555.528 536.202 555.528 529.187V516.384H649.315C743.102 516.384 743.102 516.384 744.557 523.969C745.441 528.189 746.895 534.776 747.893 538.54C749.575 545.584 749.575 545.584 654.334 545.584C601.98 545.584 558.323 544.671 557.296 543.787ZM463.623 532.98C476.427 532.438 496.701 532.438 508.621 532.98C520.54 533.436 510.075 533.864 485.352 533.864C460.515 533.864 450.82 533.436 463.623 532.98ZM441.581 524.283C441.581 522.629 457.492 521.631 484.012 521.631C510.531 521.631 526.443 522.629 526.443 524.283C526.443 525.965 510.531 526.963 484.012 526.963C457.492 526.963 441.581 525.965 441.581 524.283ZM462.169 514.388C474.203 513.932 493.821 513.932 505.854 514.388C517.888 514.816 508.079 515.272 484.012 515.272C459.945 515.272 450.164 514.816 462.169 514.388ZM65.8618 509.825C44.1331 503.01 44.4754 503.808 57.3928 492.545C63.9799 486.756 70.0818 482.08 71.1084 482.08C72.1064 481.966 74.3306 486.984 75.8989 493.229C77.5528 499.332 79.4637 506.46 80.1195 509.027C81.8019 514.502 80.8894 514.502 65.8618 509.825ZM884.225 510.709C884.339 505.035 890.698 481.624 892.352 481.082C894.919 480.198 918.985 502.582 916.761 503.923C915.649 504.693 909.518 506.575 903.274 508.257C896.943 509.94 890.128 512.049 888.018 512.819C885.794 513.589 884.225 512.706 884.225 510.709ZM905.384 497.792C905.384 496.338 902.96 495.112 899.937 495.112C896.943 495.112 895.261 496.338 896.145 497.792C897.029 499.246 899.481 500.472 901.619 500.472C903.729 500.472 905.384 499.246 905.384 497.792ZM249.53 505.149C255.775 484.304 248.646 485.873 337.642 485.758C417.742 485.758 417.742 485.758 417.742 492.431C417.628 496.109 416.972 501.784 416.06 505.149C414.52 511.051 414.519 511.051 331.083 511.051C247.761 511.051 247.762 511.051 249.53 505.149ZM552.506 501.784C552.306 496.68 552.078 491.091 551.85 489.551C551.736 487.327 573.692 486.3 631.835 485.872C720.49 485.074 714.473 483.962 718.493 502.468C720.261 511.052 720.261 511.051 636.626 511.051H552.962L552.506 501.784ZM441.581 505.805C441.581 504.122 457.492 503.124 484.012 503.124C510.531 503.124 526.443 504.122 526.443 505.805C526.443 507.487 510.531 508.371 484.012 508.371C457.492 508.371 441.581 507.487 441.581 505.805ZM442.465 497.107C441.923 496.109 460.401 495.112 483.784 495.112C507.309 495.112 526.443 496.109 526.443 497.107C526.443 498.22 507.851 499.132 485.124 499.132C462.283 499.132 443.149 498.22 442.465 497.107ZM464.849 487.868C476.997 487.412 496.045 487.412 507.308 487.868C518.543 488.439 508.62 488.752 485.352 488.752C461.969 488.752 452.816 488.439 464.849 487.868ZM274.595 479.97C274.595 478.858 275.935 473.497 277.389 468.05L280.183 458.013H420.736L419.852 469.39L419.082 480.625L346.909 481.31C307.13 481.738 274.595 481.082 274.595 479.97ZM444.261 479.285C444.261 477.631 459.175 476.633 483.784 476.633C507.394 476.633 524.104 477.631 525.13 479.285C526.128 480.968 512.299 481.852 485.466 481.852C459.745 481.852 444.261 480.854 444.261 479.285ZM550.282 478.287C550.282 476.291 549.511 470.816 548.627 466.368C546.945 458.013 546.945 458.013 618.462 458.013C690.092 458.013 690.092 458.013 691.746 466.368C694.997 482.964 699.788 481.852 621.798 481.852C562.885 481.852 550.282 481.31 550.282 478.287ZM444.261 471.273C444.261 469.59 459.289 468.592 484.012 468.592C508.734 468.592 523.79 469.59 523.79 471.273C523.79 472.955 508.734 473.953 484.012 473.953C459.289 473.953 444.261 472.955 444.261 471.273ZM52.7163 461.806C45.0456 458.355 38.8006 455.019 38.8006 454.334C38.8006 451.882 65.5196 436.312 67.088 437.852C69.7684 440.533 71.422 468.592 68.8841 468.392C67.6579 468.278 60.3014 465.37 52.7163 461.806ZM893.15 461.806C894.034 459.467 894.805 452.338 894.805 445.865C894.805 439.307 896.03 434.174 897.599 434.174C901.277 434.174 924.004 449.772 923.89 452.224C923.89 454.135 897.941 466.026 893.806 466.026C892.58 466.026 892.266 464.03 893.15 461.806ZM463.395 461.349C474.773 460.921 493.25 460.921 504.514 461.349C515.863 461.805 506.624 462.262 484.012 462.262C461.399 462.262 452.16 461.919 463.395 461.349ZM463.395 453.45C474.773 452.908 493.25 452.908 504.514 453.45C515.863 453.906 506.624 454.334 484.012 454.334C461.399 454.334 452.16 453.906 463.395 453.45ZM304.906 441.759C305.79 435.628 307.245 429.725 308.015 428.385C309.355 426.275 421.306 425.391 423.416 427.501C423.987 428.043 423.987 433.945 423.53 440.647L422.532 452.795H303.11L304.906 441.759ZM546.289 442.216C545.291 436.398 545.291 430.496 546.289 428.956C547.287 427.16 567.989 426.275 603.32 426.275C664.571 426.275 661.577 425.391 665.141 444.097C666.681 452.68 666.681 452.681 607.426 452.681H548.057L546.289 442.216ZM446.913 436.854C446.913 435.172 461.513 434.174 485.466 434.174C510.531 434.174 523.448 435.086 522.45 436.854C521.452 438.423 505.626 439.42 483.784 439.42C460.971 439.42 446.913 438.423 446.913 436.854ZM169.002 423.253C171.226 413.244 170.798 411.448 164.782 405.117C155.742 395.764 156.199 394.424 168.118 394.424C177.129 394.424 178.469 393.54 181.492 385.185C183.374 380.052 185.826 375.803 187.166 375.803C188.392 375.803 190.731 380.052 192.499 385.185C195.293 393.625 196.405 394.424 205.873 394.424C218.134 394.424 218.79 396.42 209.437 405.231C203.42 410.906 202.879 413.016 204.418 423.253C206.101 434.858 206.1 434.859 198.202 429.184C188.506 422.255 187.052 422.255 175.703 428.956C166.435 434.402 166.436 434.402 169.002 423.253ZM763.263 423.595C764.945 413.015 764.375 411.362 756.59 403.206L748.007 394.424H760.268C771.846 394.424 772.616 393.853 775.524 385.185C777.178 380.052 779.402 375.803 780.543 375.803C781.655 375.803 784.421 380.052 786.874 385.185C790.78 393.083 792.548 394.424 800.703 394.424C811.71 394.424 812.281 396.647 803.356 405.002C797.795 410.221 797.025 412.673 798.451 421.37C800.134 432.292 798.137 433.86 790.01 427.615C782.881 422.254 778.975 422.597 769.508 429.269C761.495 435.086 761.495 435.086 763.263 423.595ZM466.189 426.817C477.567 426.389 495.474 426.389 505.968 426.817C516.547 427.387 507.195 427.844 485.352 427.844C463.395 427.844 454.84 427.387 466.189 426.817ZM52.7163 414.013C45.0456 409.109 38.8006 404.546 38.8006 403.89C38.8006 401.98 68.6561 388.834 69.8822 390.175C70.5381 390.859 70.0817 398.415 68.8841 407.113L66.518 422.939L52.7163 414.013ZM328.859 416.922L331.626 403.662C332.966 397.104 332.965 397.104 380.985 397.104C423.644 397.104 428.777 397.531 427.323 401.21C426.439 403.548 425.641 409.451 425.641 414.469C425.641 423.594 425.641 423.595 376.623 423.595C327.519 423.595 327.519 423.594 328.859 416.922ZM543.951 419.375C543.038 417.037 542.269 411.133 542.269 406.114C542.269 397.104 542.269 397.104 589.604 397.104H637.054L638.622 406.999C639.506 412.474 640.304 418.376 640.304 420.258C640.39 422.71 629.155 423.595 592.941 423.595C552.192 423.595 545.291 422.939 543.951 419.375ZM466.189 418.918C477.567 418.49 495.474 418.49 505.968 418.918C516.547 419.488 507.195 419.802 485.352 419.802C463.395 419.802 454.84 419.488 466.189 418.918ZM894.805 406.571C894.805 400.098 894.034 392.969 893.15 390.631C892.266 388.292 892.923 386.496 894.691 386.496C899.595 386.496 924.004 397.532 924.004 399.756C924.004 401.866 899.709 418.263 896.601 418.263C895.603 418.263 894.805 413.016 894.805 406.571ZM464.735 411.019C475.315 410.563 492.595 410.563 503.174 411.019C513.753 411.447 505.17 411.903 484.012 411.903C462.853 411.903 454.156 411.447 464.735 411.019ZM464.735 403.007C475.315 402.551 492.595 402.551 503.174 403.007C513.753 403.549 505.17 404.005 484.012 404.005C462.853 404.005 454.156 403.549 464.735 403.007ZM465.961 395.079C475.771 394.651 492.481 394.651 503.06 395.079C513.753 395.649 505.74 395.963 485.352 395.963C464.963 395.963 456.181 395.649 465.961 395.079ZM355.236 380.707C356.149 374.691 357.603 368.674 358.373 367.448C359.028 366.222 375.967 365.224 395.671 365.224H431.657L430.003 375.147C429.091 380.707 428.435 386.61 428.321 388.406C428.321 390.973 419.082 391.743 390.881 391.743H353.468L355.236 380.707ZM541.384 389.975C540.5 389.063 539.702 383.046 539.702 376.716V365.224H574.12C608.653 365.224 608.652 365.224 611.333 372.039C612.673 375.803 613.899 381.706 613.899 385.27C613.899 391.743 613.899 391.743 578.483 391.743C559.092 391.743 542.382 390.973 541.384 389.975ZM465.961 387.18C475.771 386.61 492.481 386.61 503.06 387.18C513.753 387.608 505.74 388.064 485.352 388.064C464.963 388.064 456.181 387.608 465.961 387.18ZM450.82 381.163C449.822 379.481 461.399 378.483 483.784 378.483C505.17 378.483 518.43 379.481 518.43 381.163C518.43 382.846 505.74 383.845 485.466 383.845C466.417 383.845 451.818 382.732 450.82 381.163ZM57.9628 366.336C51.832 361.117 46.6996 355.87 46.6996 354.644C46.6996 352.306 75.6713 342.953 77.4392 344.75C79.0076 346.29 72.7624 375.803 70.8804 375.803C69.9964 375.803 64.1792 371.469 57.9628 366.336ZM449.594 373.265C449.594 371.583 462.853 370.584 484.012 370.584C505.17 370.584 518.43 371.583 518.43 373.265C518.43 374.805 505.17 375.803 484.012 375.803C462.853 375.803 449.594 374.805 449.594 373.265ZM887.02 355.756C885.223 347.63 884.339 340.386 885.023 339.73C886.791 337.934 915.991 346.631 915.991 348.97C915.991 351.964 896.258 370.584 893.15 370.584C891.582 370.584 888.788 363.883 887.02 355.756ZM900.051 354.53C900.051 353.105 898.939 351.964 897.485 351.964C896.031 351.964 894.805 353.874 894.805 356.098C894.805 358.437 896.031 359.549 897.485 358.665C898.939 357.781 900.051 355.87 900.051 354.53ZM450.82 365.224C451.818 363.684 466.417 362.572 485.466 362.572C505.74 362.572 518.43 363.684 518.43 365.224C518.43 366.906 505.17 367.904 483.784 367.904C461.399 367.904 449.822 367.02 450.82 365.224ZM874.102 362.999C872.191 361.773 868.969 354.217 866.859 346.289C864.749 338.276 859.388 322.906 855.054 312.099C850.605 301.406 847.583 291.055 848.267 289.03C849.037 287.034 848.581 286.15 847.241 287.034C845.929 287.804 840.568 281.36 835.435 272.548C805.808 221.991 761.153 177.649 708.114 145.683C697.991 139.666 688.752 134.648 687.526 134.648C686.414 134.648 685.416 132.994 685.416 130.884C685.416 128.859 683.962 126.635 682.051 125.98C680.283 125.295 679.712 123.84 680.739 122.728C683.619 119.62 734.748 151.243 760.583 172.088C783.309 190.452 804.468 212.751 824.856 239.926C853.372 278.023 891.81 374.035 874.102 362.999ZM376.851 356.669C382.754 337.707 381.099 338.733 406.934 338.733C419.966 338.733 431.315 339.731 432.113 340.957C432.769 342.184 432.655 347.63 431.885 352.877C430.317 362.572 430.317 362.572 402.714 362.572C375.197 362.572 375.083 362.572 376.851 356.669ZM538.818 360.889C537.82 359.891 537.022 354.759 537.022 349.54C537.022 340.073 537.021 340.073 560.547 339.388C586.268 338.733 588.15 339.616 591.286 353.988C593.054 362.571 593.055 362.572 566.764 362.572C552.42 362.572 539.702 361.773 538.818 360.775V360.889ZM468.87 357.981C478.793 357.553 494.248 357.553 503.288 357.981C512.413 358.437 504.286 358.894 485.352 358.894C466.418 358.894 458.946 358.551 468.87 357.981ZM452.16 351.651C452.16 350.425 467.416 349.426 486.008 349.54C504.628 349.74 518.544 350.196 517.09 350.653C510.759 352.877 452.16 353.761 452.16 351.651ZM452.16 344.065C452.16 342.411 464.536 341.385 484.012 341.385C503.402 341.385 515.749 342.411 515.749 344.065C515.749 345.633 503.402 346.745 484.012 346.745C464.536 346.745 452.16 345.633 452.16 344.065ZM534.37 324.133C534.37 312.213 534.369 312.213 549.967 312.213C564.767 312.213 565.537 312.556 566.992 319.571C567.79 323.563 569.215 328.924 570.242 331.49C571.782 335.597 570.128 336.052 553.19 336.052C534.37 336.052 534.37 336.052 534.37 324.133ZM70.6524 319C56.965 304.97 57.8487 302.974 79.4634 300.408C96.8292 298.298 96.6011 297.614 86.7062 320.911L82.4578 331.033L70.6524 319ZM467.416 328.809C476.541 328.353 491.483 328.353 500.608 328.809C509.647 329.379 502.176 329.807 484.012 329.807C465.733 329.807 458.291 329.379 467.416 328.809ZM874.102 312.327C870.88 304.628 868.313 297.071 868.313 295.731C868.313 292.823 897.371 295.389 900.593 298.498C901.62 299.524 897.371 306.196 891.126 313.325L879.891 326.243L874.102 312.327ZM467.416 320.911C476.541 320.341 491.483 320.341 500.608 320.911C509.647 321.339 502.176 321.794 484.012 321.794C465.733 321.794 458.291 321.453 467.416 320.911ZM454.84 314.894C454.84 313.326 466.76 312.213 485.352 312.213C503.83 312.213 515.749 313.326 515.749 314.894C515.749 316.548 503.83 317.546 485.352 317.546C466.76 317.546 454.84 316.548 454.84 314.894ZM758.244 306.853C754.138 302.29 753.796 300.408 756.476 296.273C761.153 288.717 760.383 284.696 753.026 277.795C747.237 272.349 745.555 272.007 739.31 274.887C733.179 277.681 731.525 277.339 726.848 272.662C719.72 265.534 720.718 264.878 757.93 250.05C787.871 238.244 789.44 237.816 794.345 242.265C797.139 244.717 799.363 248.168 799.363 249.736C799.363 252.616 769.052 306.311 765.145 310.332C764.147 311.444 760.925 309.875 758.244 306.853ZM774.184 267.331C779.745 256.523 779.403 256.066 769.052 261.085C761.381 264.649 760.383 266.218 762.493 270.21C766.171 277.111 769.508 276.341 774.184 267.331ZM455.952 306.082C455.154 303.972 454.955 296.501 455.268 289.372L456.18 276.455L484.782 275.8L513.411 275.001L512.527 291.711L511.757 308.307L484.582 309.106C463.081 309.647 457.064 308.991 455.952 306.082ZM89.7006 273.004C85.0241 265.99 81.1177 259.517 81.1177 258.519C81.1177 257.521 88.9305 256.637 98.3976 256.637C107.865 256.637 115.536 257.407 115.536 258.291C115.536 260.857 101.164 285.808 99.7378 285.808C98.9393 285.694 94.4912 280.019 89.7006 273.004ZM212.345 276.341C195.863 267.758 186.596 254.413 186.596 239.356C186.596 218.198 212.773 201.374 228.257 212.638C235.386 217.856 229.169 224.871 217.364 224.871C210.777 224.871 207.326 226.667 204.218 231.457C200.084 237.588 200.198 238.587 204.76 246.371C215.454 264.65 233.162 269.668 240.177 256.522C244.539 248.396 238.637 241.581 232.164 247.398C228.143 251.048 227.259 250.962 223.152 246.371C218.904 241.581 219.132 241.039 229.711 232.684L240.861 223.873L249.986 233.91C257.343 241.923 258.797 245.259 257.343 250.963C254.776 261.428 248.76 269.554 239.292 275.343C229.055 281.588 222.81 281.816 212.345 276.341ZM852.601 267.216C848.039 259.973 844.36 253.386 844.36 252.616C844.36 251.96 852.146 251.39 861.613 251.39C871.08 251.39 878.893 252.16 878.893 253.187C878.893 255.183 862.839 280.59 861.613 280.59C861.071 280.59 857.05 274.573 852.601 267.216ZM420.422 261.969C420.422 253.956 420.422 253.956 484.696 254.612C548.941 255.411 548.941 255.411 549.739 262.654C550.623 269.897 550.623 269.897 485.466 269.897C420.422 269.897 420.422 269.896 420.422 261.969ZM696.765 249.052C687.64 242.379 680.169 236.135 680.169 235.365C680.055 233.34 719.948 181.213 722.286 180.443C723.284 179.987 726.278 182.012 728.845 184.778C733.293 189.682 732.866 190.681 716.811 211.754L700.101 233.454L710.024 241.809C720.376 250.506 721.944 254.412 716.469 258.747C714.131 260.629 708.57 257.977 696.765 249.052ZM120.896 245.031C120.896 244.489 117.988 237.475 114.424 229.348L107.865 214.633L123.007 216.088C131.362 216.972 139.147 218.54 140.259 219.538C142.511 221.534 126.571 245.602 122.893 245.944C121.781 246.058 120.896 245.601 120.896 245.031ZM420.422 234.139C420.422 227.551 420.422 227.551 474.658 227.551C509.191 227.551 529.009 226.553 529.009 224.871C529.009 223.445 530.805 222.219 533.029 222.219C535.14 222.219 536.936 223.445 536.936 224.871C536.936 226.325 539.93 227.551 543.609 227.551C548.941 227.551 550.282 228.892 550.282 234.139C550.282 240.811 550.281 240.811 485.352 240.811C420.422 240.811 420.422 240.811 420.422 234.139ZM824.628 225.784C819.524 219.082 815.275 212.638 815.275 211.64C815.275 209.729 847.469 205.822 849.151 207.505C850.263 208.617 837.004 238.13 835.435 238.13C834.666 238.13 829.875 232.57 824.628 225.784ZM273.597 229.462C271.03 227.551 263.017 215.86 255.888 203.598C244.197 183.238 243.427 180.871 247.305 177.877C255.233 171.974 258.112 174.199 269.262 194.359C281.609 216.63 285.972 220.309 294.983 216.202C304.137 212.068 302.682 202.943 289.08 180.558C282.408 169.637 277.389 160.397 277.845 159.941C280.383 157.831 291.076 153.04 291.647 153.81C300.344 164.076 317.054 198.807 317.054 206.62C317.054 225.669 288.653 240.469 273.597 229.462ZM662.233 224.101C657.898 222.219 656.216 219.196 656.216 213.065C656.216 206.05 654.648 203.94 646.635 200.034C637.168 195.585 636.826 195.585 630.923 201.146C625.591 206.165 624.25 206.393 618.12 203.171C611.219 199.606 611.219 199.606 637.624 173.314C662.575 148.363 664.229 147.252 670.702 150.132C675.949 152.47 677.375 155.037 677.261 161.852C677.175 173.315 670.702 224.557 669.248 225.898C668.592 226.439 665.455 225.669 662.233 224.101ZM660.465 186.689C661.349 184.55 661.577 179.759 661.007 175.767C660.237 168.638 660.237 168.639 654.106 176.994C650.77 181.556 648.745 186.461 649.657 187.801C651.996 191.679 658.782 191.023 660.465 186.689ZM146.075 191.479C143.737 183.324 142.169 176.194 142.711 175.653C143.281 175.082 147.843 175.653 152.862 176.994C157.881 178.334 165.323 180.101 169.344 180.985C176.815 182.668 176.815 182.668 166.664 194.359C161.217 200.832 155.315 206.164 153.518 206.278C151.864 206.278 148.499 199.606 146.075 191.479ZM338.212 169.18C338.212 148.791 339.096 132.11 340.209 132.11C341.321 132.11 344.657 131.311 347.793 130.541C352.356 129.315 356.918 133.878 374.969 157.489C390.88 178.447 395.785 186.574 393.333 188.228C387.658 191.793 381.641 190.681 376.851 185.349C372.745 180.786 371.176 180.672 362.479 183.552C354.694 186.232 352.584 188.456 351.9 194.701C351.016 202.372 347.565 206.164 341.549 206.278C338.982 206.278 338.212 197.154 338.212 169.18ZM361.053 169.865C363.163 168.525 362.165 165.074 357.803 158.715L351.472 149.476V160.711C351.472 171.746 354.124 174.313 361.167 169.865H361.053ZM790.096 187.915C784.422 182.012 780.315 176.765 780.971 176.195C782.881 174.313 813.621 166.728 814.733 167.84C816.729 169.864 806.15 198.38 803.356 198.38C801.816 198.38 795.799 193.704 790.096 187.915ZM589.29 193.932C583.701 192.477 583.701 192.79 588.72 174.541C594.395 153.268 593.625 152.927 581.933 171.205C565.451 197.04 558.522 192.477 558.208 156.034C557.98 141.235 554.758 145.911 550.396 167.298C548.057 178.533 546.061 182.44 542.839 182.44C532.259 182.325 531.804 179.331 538.476 151.928C541.926 137.442 545.491 122.842 546.289 119.506C547.287 115.4 549.626 113.603 554.074 113.603C564.539 113.603 568.788 120.276 569.016 136.986C569.329 163.619 571.553 164.504 584.499 142.804C595.392 124.411 596.191 123.755 604.09 125.295C608.652 126.207 613.1 127.861 614.127 128.859C616.779 131.996 600.411 195.813 596.961 195.471C595.279 195.243 591.829 194.588 589.376 193.932H589.29ZM417.742 159.286C413.293 126.293 413.607 126.977 403.37 128.631C396.583 129.772 394.245 128.973 392.791 125.409C390.224 118.622 393.019 117.053 414.291 113.831C443.577 109.383 446.913 109.811 446.913 117.625C446.913 123.413 445.687 124.182 437.446 124.182C428.321 124.182 428.093 124.41 429.547 132.766C432.655 151.7 436.22 176.109 436.22 179.217C436.22 181.099 432.997 182.554 428.549 182.554C420.964 182.554 420.85 182.44 417.742 159.286ZM477.881 177.991C470.524 176.879 470.524 176.879 471.322 143.231L471.978 109.583H494.591C515.863 109.583 517.089 109.925 518.002 115.6C518.771 121.189 517.888 121.502 502.518 121.502C486.35 121.502 486.236 121.616 487.12 128.859C487.918 135.56 489.03 136.216 500.722 136.986C512.071 137.67 513.297 138.326 512.641 143.573C511.871 148.477 509.847 149.476 499.153 150.132C488.032 150.93 486.578 151.7 486.578 157.147C486.578 163.505 494.248 166.614 509.419 166.614C514.437 166.614 515.749 168.068 515.749 173.2C515.749 179.559 515.093 179.874 500.494 179.446C492.139 179.218 482.016 178.533 477.881 177.991ZM186.168 172.545C184.258 169.294 181.149 140.122 182.718 140.122C186.71 140.122 213.685 151.244 213.457 152.926C213.229 156.034 187.394 174.541 186.168 172.545ZM754.366 156.262C747.779 150.588 742.988 145.341 743.672 144.685C744.442 144.029 752.028 140.893 760.583 137.785L776.066 131.996L774.412 142.005C770.962 161.937 769.736 166.614 767.939 166.614C767.055 166.614 760.81 161.937 754.252 156.262H754.366ZM224.265 125.523V108.271L257.001 124.753L242.743 133.764C234.844 138.668 227.487 142.804 226.375 142.804C225.149 142.804 224.265 134.99 224.265 125.523ZM714.045 129.772C707.116 125.865 700.786 121.958 699.873 120.96C698.448 119.62 714.929 109.583 728.503 103.481C729.501 103.025 730.413 110.382 730.413 119.963C730.413 129.658 729.501 137.328 728.503 137.214C727.391 136.986 720.832 133.65 714.045 129.772ZM267.58 110.267C268.492 107.045 269.262 99.916 269.262 94.327C269.262 82.2079 271.258 82.0936 288.424 93.5568L301.884 102.682L286.628 109.497C267.808 117.738 265.584 117.852 267.58 110.267ZM668.478 105.933L652.88 98.8895L667.794 88.5382C676.034 82.8636 683.163 78.7287 683.733 79.4131C685.53 81.2951 687.184 111.151 685.616 112.035C684.732 112.491 677.061 109.697 668.478 105.933ZM315.6 85.3158C319.05 62.2468 319.506 62.0474 333.536 73.1684C340.322 78.6434 345.997 83.8618 345.997 84.8598C346.111 85.8578 338.868 89.1085 329.971 92.1027L313.803 97.5781L315.6 85.3158ZM621.142 87.9969C614.241 85.8583 608.538 83.0915 608.538 81.8654C608.538 79.5271 630.381 60.5937 633.061 60.5937C633.831 60.5937 635.286 65.0417 636.284 70.4881C637.282 75.9631 638.736 83.2057 639.506 86.4279C641.189 93.3287 639.278 93.5575 621.142 87.9969ZM364.617 66.9236C367.155 58.4831 370.406 51.1258 371.746 50.7836C375.311 49.5575 394.787 70.2882 392.905 73.2823C392.021 74.7366 386.774 76.7329 381.327 77.731C375.852 78.729 368.724 80.0697 365.615 80.8681C359.827 82.2939 359.827 82.2935 364.617 66.9236ZM574.12 75.9626C567.562 74.5084 561.317 72.513 560.205 71.515C559.093 70.4884 563.541 64.3854 570.014 58.0265C582.703 45.5367 584.158 45.3372 585.27 55.4602C585.726 59.0246 586.838 62.4753 587.836 63.2452C588.72 64.0437 590.402 67.8361 591.4 71.8282C593.396 79.9551 593.055 80.0689 574.12 75.9626ZM409.729 70.4881C409.729 69.8322 412.723 62.3611 416.516 54.0061L423.188 38.8642L433.996 52.5519C440.012 60.023 444.347 66.6099 443.805 67.1517C442.236 68.72 409.729 71.9424 409.729 70.4881ZM524.332 69.262C516.776 68.7202 510.531 67.0381 510.531 65.4982C510.531 62.2475 526.557 39.4351 528.895 39.4351C530.463 39.4351 544.949 67.0373 544.949 69.9459C544.949 70.6018 543.494 70.9442 541.612 70.7161C539.816 70.4879 532.032 69.8323 524.332 69.262ZM465.847 52.0098C470.524 44.3106 474.658 37.5246 475.228 36.9828C476.341 35.5285 482.129 43.3133 489.258 55.9171L494.933 65.9255H457.492L465.847 52.0098ZM680.169 601.474V601.388C680.226 592.007 690.207 572.075 694.085 573.529C698.105 575.097 708.028 603.385 705.576 605.837C704.663 606.721 701.67 605.152 698.647 602.614C693.771 598.023 693.086 598.024 688.524 602.158C682.194 607.805 680.197 607.719 680.169 601.474ZM931.903 568.082C931.903 564.518 930.677 561.495 929.223 561.495C926.229 561.495 925.544 570.193 928.339 572.959C931.247 575.867 931.903 575.097 931.903 568.082Z" fill="#383B40"/>
</svg>
