<svg width="958" height="959" viewBox="0 0 958 959" fill="none" xmlns="http://www.w3.org/2000/svg">
<path fill-rule="evenodd" clip-rule="evenodd" d="M443.122 829.665C296.497 814.325 171.886 707.048 136.282 565.672C126.903 528.401 123.18 484.924 129.853 491.597C130.565 492.309 131.827 501.22 132.701 511.392C144.542 644.976 238.637 763.077 368.274 806.94C521.958 858.921 692.346 796.442 776.898 657.142C794.944 627.581 811.159 587.991 818.076 556.843C819.419 550.556 821.494 545.958 822.918 545.958C826.031 545.958 825.949 549.539 822.369 563.679C802.492 642.677 754.661 713.639 688.459 762.426C618.29 814.162 528.957 838.658 443.122 829.665ZM777.305 812.026C775.881 808.283 796.938 789.464 799.562 792.068C800.824 793.35 798.118 797.398 791.221 804.397C780.174 815.607 778.973 816.238 777.305 812.026ZM445.747 808.934C358.732 799.86 279.57 757.584 223.154 690.121C115.144 560.972 121.654 371.034 238.087 251.916C282.744 206.14 332.507 176.335 389.961 160.832C580.225 109.502 770.144 227.909 807.273 421.021C819.581 485.168 807.578 566.852 776.898 626.625C713.321 750.585 581.812 823.074 445.747 808.934ZM505.438 803.278C643.721 790.644 756.411 698.055 793.988 566.303C803.062 534.504 805.198 517.353 805.279 477.844C805.279 421.59 796.694 384.462 772.3 335.919C705.386 202.478 558.436 131.434 412.055 161.625C286.081 187.626 185.171 287.519 159.007 412.049C144.481 480.875 153.29 554.055 183.808 617.877C214.874 683.122 274.403 742.732 338.387 772.537C392.891 798.029 449.408 808.446 505.438 803.278ZM613.285 695.288C613.285 679.949 613.286 679.949 608.586 680.823C600.326 682.41 602.544 675.656 611.129 673.112C615.178 671.912 619.002 670.875 619.633 670.875C620.345 670.875 620.833 679.867 620.833 690.751C620.833 709.428 620.671 710.689 617.09 710.689C613.591 710.689 613.285 709.428 613.285 695.288ZM505.438 708.146C505.438 707.76 508.286 700.761 511.948 692.501L518.459 677.568L509.08 676.998C502.407 676.531 499.701 675.574 499.701 673.662C499.701 671.526 502.651 670.875 512.986 670.875C528.956 670.875 528.875 670.732 519.334 692.827C514.247 704.749 511.623 708.797 508.937 708.797C507.025 708.797 505.357 708.472 505.357 708.146H505.438ZM444.79 692.664C444.79 690.589 446.947 689.877 452.42 689.877C457.831 689.877 459.967 690.589 459.967 692.664C459.967 694.719 457.831 695.512 452.42 695.512C446.947 695.512 444.79 694.719 444.79 692.664ZM233.49 641.314C237.213 628.843 237.05 627.805 231.089 623.431C223.236 617.551 223.704 616.046 233.49 616.046C241.424 616.046 241.75 615.802 243.967 608.254C246.51 599.75 247.873 599.912 250.966 609.047C252.797 614.378 253.895 615.171 260.894 615.659C270.354 616.371 270.517 617.083 262.806 623.512C257.089 628.375 256.927 628.761 259.226 635.678C262.257 644.813 261.382 645.383 253.671 639.727C247.548 635.21 247.304 635.129 242.462 638.466C233.245 644.895 232.289 645.139 233.49 641.314ZM697.35 640.134C698.001 637.815 699.018 634.091 699.588 631.793C700.463 628.761 699.263 626.625 694.807 623.431C687.097 617.714 687.503 616.046 696.475 616.046C703.474 616.046 704.267 615.496 707.604 607.949L711.185 599.912L713.646 607.949C716.027 615.802 716.271 616.046 724.307 616.046C728.823 616.046 732.567 616.452 732.567 617.002C732.567 617.551 729.78 620.42 726.443 623.37C720.645 628.598 720.482 629.087 722.638 636.085C723.818 640.052 724.612 643.47 724.307 643.775C724.063 644.101 720.808 642.27 717.064 639.727C710.31 635.129 710.31 635.129 704.023 639.808C696.333 645.444 695.845 645.444 697.35 640.134ZM315.58 561.379C318.592 558.429 322.091 557.31 328.296 557.31C333.057 557.31 336.943 556.436 336.943 555.418C336.943 554.381 332.975 553.587 328.215 553.587C320.667 553.587 319.629 553.099 320.83 550.251C325.183 539.753 326.852 540.302 291.736 540.302C273.935 540.302 259.307 540.628 259.307 541.116C259.307 541.584 260.182 544.127 261.138 546.833C262.888 551.289 262.562 551.675 257.883 551.838C252.959 552.001 253.02 552.082 259.063 553.832C268.686 556.598 263.763 559.548 250.722 558.836C239.206 558.267 233.327 553.75 243.581 553.343C246.673 553.18 247.548 552.794 245.635 552.224C242.624 551.431 242.543 550.963 245.249 545.877C248.097 540.302 248.097 540.302 226.735 540.383C205.353 540.383 205.353 540.384 210.602 545.002C213.45 547.545 215.83 550.088 215.83 550.637C215.83 551.207 210.663 551.675 204.478 551.675C198.11 551.675 193.105 550.8 193.105 549.762C193.105 548.745 194.306 547.871 195.73 547.871C197.947 547.871 200.653 544.127 200.653 541.116C200.653 540.628 193.024 540.302 183.645 540.302H166.555V475.931H187.388V493.896C187.388 510.66 187.714 511.942 191.193 511.942C194.855 511.942 195.018 510.66 195.018 481.669C195.018 451.294 195.018 451.294 200.653 451.294C204.478 451.294 206.39 450.358 206.39 448.527C206.39 446.371 208.689 445.658 215.83 445.658C222.991 445.658 225.291 446.371 225.291 448.527C225.291 450.033 226.572 451.294 228.078 451.294C230.458 451.294 230.947 454.488 230.947 468.383V485.392H255.421L256.052 499.145C256.377 506.693 256.845 489.766 257.089 461.466C257.394 420.472 257.964 409.75 260.101 408C263.051 405.518 265.024 408.794 265.024 416.342C265.024 424.358 267.018 426.738 273.609 426.738C278.228 426.738 280.201 425.721 281.076 422.934C281.808 420.859 283.07 419.109 284.026 419.109C284.982 419.109 286.65 420.859 287.769 422.934C288.868 425.009 291.024 426.738 292.53 426.738C294.91 426.738 295.317 433.187 295.317 469.421C295.317 497.395 295.948 511.698 297.209 510.986C298.328 510.274 299.122 495.808 299.122 473.958V438.111H318.754C335.356 438.111 338.631 437.561 339.649 434.937C340.686 432.15 341.235 432.231 344.572 435.812C347.847 439.311 348.315 442.566 348.315 460.754C348.315 473.388 349.027 481.669 350.228 481.669C351.347 481.669 352.14 471.497 352.14 455.119C352.14 432.862 352.527 428.65 354.907 428.65C356.982 428.65 357.776 426.514 357.776 420.939C357.776 416.342 358.488 413.718 359.688 414.43C360.705 415.06 361.58 418.56 361.58 422.14C361.58 427.389 362.313 428.65 365.324 428.65C367.46 428.65 369.148 427.389 369.148 425.802C369.148 423.89 371.04 422.934 374.784 422.934C378.588 422.934 380.501 423.89 380.501 425.802C380.501 427.389 381.782 428.65 383.288 428.65C385.668 428.65 386.136 432.231 386.136 449.483V470.296H403.226V490.173C403.226 503.906 403.877 510.029 405.382 510.029C406.969 510.029 407.295 503.438 406.42 485.555C405.769 472.127 405.769 456.787 406.42 451.457C407.519 441.854 407.519 441.854 417.691 441.854C427.701 441.854 427.782 441.936 427.782 447.571C427.782 452.332 428.575 453.206 432.563 453.206C437.242 453.206 437.242 453.207 437.242 481.75C437.242 506.53 437.649 510.192 440.192 509.724C442.817 509.155 443.203 497.395 443.753 407.838C444.322 322.471 444.872 304.669 447.496 294.66C450.995 280.764 456 271.935 458.218 275.597C459.092 276.858 459.337 278.608 458.869 279.32C457.282 281.944 468.471 278.933 470.628 276.146C472.296 273.928 473.171 273.847 474.595 275.76C478.013 280.052 481.35 287.356 483.018 294.192C485.968 306.338 488.186 402.182 486.68 453.206C485.805 481.668 485.887 504.78 486.843 506.692C487.799 508.523 490.18 510.029 492.234 510.029C495.815 510.029 495.978 508.524 495.978 476.887V443.746H504.075C508.612 443.746 513.149 442.871 514.247 441.773C515.448 440.573 519.028 440.267 522.995 440.979C531.581 442.566 531.906 444.397 531.031 481.18L530.299 510.029H545.171V476.583C545.171 458.13 546.209 435.323 547.389 425.863C549.546 409.018 554.388 393.21 556.056 397.889C557.093 401.002 572.983 401.002 574.02 397.889C575.2 394.329 581.487 405.05 583.399 414.022C584.355 418.396 585.617 441.772 586.248 466.003C586.817 490.254 588.078 510.029 588.953 510.029C589.91 510.029 590.622 509.154 590.622 508.117C590.622 507.099 592.208 506.225 594.121 506.225C597.376 506.225 597.62 502.644 598.882 441.529C599.919 388.287 600.631 376.202 602.95 373.659C604.456 371.991 605.718 369.203 605.718 367.535C605.718 365.866 608.199 363.018 611.21 361.269C615.503 358.726 616.683 356.569 616.927 351.178C617.009 347.434 617.883 339.256 618.758 333.051L620.345 321.678L620.833 333.051C621.138 339.256 621.22 347.353 621.057 351.015C620.752 356.488 621.708 358.482 626.469 361.981C629.643 364.361 632.267 367.372 632.267 368.817C632.267 370.241 633.549 372.458 635.054 373.74C637.028 375.327 637.903 379.619 637.903 387.167C637.903 395.671 638.554 398.296 640.69 398.296C642.196 398.296 645.614 399.333 648.238 400.513C652.368 402.426 653.1 403.931 653.1 410.93C653.1 419.108 653.1 419.109 660.648 419.109C666.121 419.109 668.196 419.923 668.196 421.978C668.196 423.565 669.071 424.846 670.088 424.846C671.289 424.846 672.001 440.654 672.001 468.465C672.001 497.069 672.631 511.698 673.913 510.986C675.032 510.274 675.825 498.026 675.825 480.55V451.294H683.373C690.921 451.294 690.921 451.294 690.921 458.923C690.921 464.091 691.715 466.492 693.546 466.492C695.519 466.492 695.926 464.416 695.214 457.988C694.583 452.332 694.97 449.483 696.333 449.483C697.757 449.483 698.469 444.235 698.469 434.144C698.469 420.553 699.018 418.173 703.555 412.293C712.222 400.921 714.765 400.595 724.307 409.892C732.567 418.091 732.567 418.091 732.567 432.861C732.567 444.316 733.198 447.896 735.415 448.751C736.941 449.402 738.284 451.071 738.284 452.495C738.284 453.919 739.077 455.119 740.115 455.119C741.295 455.119 742.027 462.341 742.027 473.083C742.027 491.129 742.027 491.129 747.744 491.129C753.217 491.129 753.38 490.885 753.38 481.669C753.38 472.127 753.38 472.127 763.796 472.127H774.213V528.95H781.76C788.901 528.95 789.39 529.275 789.39 534.585C789.39 540.302 789.39 540.302 763.084 540.302C736.86 540.302 736.859 540.302 737.816 545.327C738.365 548.094 740.359 550.637 742.414 551.207C744.489 551.756 745.75 553.506 745.445 555.256C744.652 559.304 702.599 560.891 700.056 556.924C697.757 553.262 698.143 551.675 701.419 551.675C703.006 551.675 704.756 550.413 705.386 548.806C706.098 546.914 709.109 545.958 714.765 545.958C720.889 545.958 723.107 545.246 723.107 543.171C723.107 540.627 708.723 540.302 604.781 540.302C539.759 540.302 486.517 540.953 486.517 541.747C486.599 542.54 487.86 545.246 489.304 547.871C493.109 554.462 492.885 555.418 487.555 555.418C483.588 555.418 482.774 554.381 482.143 548.339C481.431 541.259 481.431 541.258 481.594 548.806C481.757 556.049 481.981 556.375 487.942 556.375C491.278 556.375 494.065 557.005 494.065 557.799C494.065 558.592 495.347 559.223 496.852 559.223C498.602 559.223 499.233 560.342 498.521 562.173C497.565 564.553 494.065 564.94 478.339 564.472C456.468 563.923 452.196 560.891 468.96 557.962C479.681 556.049 479.763 555.967 471.808 555.723C462.999 555.418 462.592 554.849 466.64 547.871C468.085 545.246 469.346 542.54 469.346 541.747C469.428 540.953 441.698 540.302 407.763 540.302C352.059 540.302 346.098 540.628 347.196 543.334C350.777 552.713 350.533 555.174 346.098 555.968C343.717 556.436 344.816 556.517 348.641 556.131C354.744 555.561 355.395 555.886 354.52 559.223C353.646 562.478 351.977 563.048 341.724 563.048C335.213 563.048 325.753 563.597 320.667 564.227C311.369 565.428 311.369 565.428 315.58 561.379ZM251.128 542.703C250.721 540.872 250.253 542.296 250.253 545.958C250.253 549.62 250.721 551.126 251.128 549.295C251.596 547.464 251.596 544.534 251.128 542.703ZM340.137 542.703C339.648 540.872 339.262 542.296 339.262 545.958C339.262 549.62 339.648 551.126 340.137 549.295C340.605 547.464 340.605 544.534 340.137 542.703ZM735.578 545.083C734.235 539.672 725.019 537.922 725.019 543.171C725.019 544.757 726.687 545.958 728.824 545.958C730.98 545.958 733.198 547.301 733.747 548.888C735.497 553.424 736.941 550.475 735.578 545.083ZM715.803 335.187C714.195 333.294 716.271 330.975 725.019 324.791C735.191 317.629 736.148 316.368 734.316 312.869C732.872 310.244 732.811 308.332 734.154 307.07C735.415 305.789 738.365 308.657 743.126 315.798C748.538 323.997 749.738 327.09 747.988 328.758C746.32 330.426 745.12 329.958 742.821 326.682C739.789 322.471 739.789 322.471 730.98 328.758C718.346 337.811 718.02 337.974 715.803 335.187ZM701.48 315.961C700.931 314.374 701.338 311.038 702.518 308.495C703.637 305.952 704.023 302.452 703.393 300.702C702.213 297.772 701.643 297.854 697.432 301.821C693.627 305.402 692.182 305.788 690.372 303.876C688.459 302.065 690.372 299.441 699.344 291.323C705.63 285.688 711.734 281.069 713.016 280.988C716.271 280.907 724.938 292.911 724.938 297.447C724.938 302.289 720.563 306.033 714.846 306.033C711.51 306.033 709.842 307.619 708.092 312.461C705.549 319.297 703.311 320.579 701.48 315.961ZM717.39 296.328C717.39 290.855 712.69 287.824 709.842 291.323C707.929 293.622 707.929 294.741 709.76 297.04C713.097 301.028 717.39 300.621 717.39 296.328ZM266.306 280.521C258.351 271.61 256.296 268.049 257.801 266.218C259.388 264.306 260.65 264.549 263.925 267.642C269.093 272.484 271.066 272.484 275.359 267.724C278.696 263.98 278.695 263.756 274.321 259.138C270.822 255.415 270.435 253.889 272.267 252.078C275.522 248.722 297.698 273.135 294.748 276.777C293.161 278.689 291.655 278.14 287.362 274.091C282.032 268.924 282.032 268.924 277.271 273.359C272.511 277.896 272.511 277.896 277.271 282.9C281.401 287.193 281.727 288.312 279.408 290.225C277.271 291.954 274.81 290.225 266.224 280.521H266.306ZM671.919 284.732C665.734 278.527 666.914 269.148 674.869 262.251C682.58 255.476 689.253 254.764 694.664 260.176C700.849 266.381 699.669 275.678 691.715 282.656C684.004 289.411 677.331 290.144 671.919 284.732ZM690.29 274.091C693.464 269.148 692.264 264.061 687.666 262.556C684.553 261.518 673.832 271.467 673.832 275.353C673.832 284.101 684.248 283.308 690.29 274.091ZM297.291 258.752C283.477 244.917 291.33 225.996 308.338 231.957C314.462 234.114 321.684 243.961 321.684 250.247C321.684 255.883 315.886 261.844 309.05 263.186C303.964 264.143 301.99 263.431 297.291 258.752ZM313.75 251.508C314.543 245.873 307.077 237.044 302.153 237.756C292.693 239.119 298.796 257.083 308.257 255.964C311.593 255.558 313.424 254.133 313.75 251.508ZM638.31 257.002C636.011 256.046 640.059 249.291 651.819 234.664C656.356 229.028 656.355 229.028 663.191 234.277C671.532 240.624 673.669 247.46 668.989 252.628C664.941 257.165 659.122 257.388 653.1 253.177C648.726 250.166 648.401 250.166 645.776 254.134C642.989 258.345 642.358 258.589 638.31 257.002ZM664.066 245.873C664.453 243.961 663.273 241.255 661.441 239.912C658.492 237.837 657.617 238.081 655.236 241.499C652.693 245.161 652.693 245.792 655.949 248.172C660.323 251.346 663.191 250.553 664.066 245.873ZM625.126 248.579C624.007 247.379 623.458 243.635 624.007 240.299C625.35 232.283 619.878 229.415 616.683 236.495C614.384 241.581 613.51 241.967 610.01 239.75C608.423 238.712 610.091 234.338 615.747 224.654C620.101 217.106 624.312 210.982 625.126 210.982C628.686 210.901 639.897 219.811 640.853 223.534C642.358 229.028 638.554 235.538 634.017 235.538C630.924 235.538 630.274 236.82 630.274 243.086C630.274 250.796 628.849 252.302 625.126 248.579ZM633.467 226.708C634.18 224.816 633.305 222.66 631.23 221.073C628.3 218.937 627.425 219.079 625.431 221.866C623.763 224.104 623.6 225.834 625.045 227.502C627.73 230.777 632.104 230.452 633.549 226.708H633.467ZM326.058 232.751C316.13 214.562 318.124 211.531 334.094 220.605L344.816 226.648L340.849 218.856C336.149 209.7 336.007 207.889 339.425 206.526C341.174 205.896 344.653 210.575 349.902 220.361C359.444 238.244 357.45 240.868 341.317 231.734C330.046 225.366 329.476 225.691 335.213 234.908C338.937 240.95 339.018 246.911 335.356 246.911C334.399 246.911 330.269 240.543 325.977 232.751H326.058ZM595.077 232.202C591.74 229.903 605.88 201.136 609.298 203.272C611.536 204.615 610.966 207.32 605.718 219.242C599.37 233.87 598.739 234.664 595.077 232.202ZM366.748 224.247C357.694 217.106 355.701 203.678 362.699 196.761C367.867 191.594 382.332 193.974 382.332 199.935C382.332 200.81 378.67 201.278 374.235 201.054C366.199 200.484 366.198 200.484 366.442 207.564C366.524 211.45 367.704 215.905 369.067 217.492C371.529 220.523 379.544 221.48 381.131 218.856C382.576 216.536 379.382 212.569 376.696 213.199C375.333 213.525 373.909 212.813 373.502 211.612C372.79 209.7 383.675 203.76 384.794 205.428C385.119 205.815 386.381 208.683 387.744 211.694C389.88 216.699 389.636 217.655 385.75 221.561C379.158 227.99 372.628 228.865 366.748 224.247ZM581.568 226.708C580.225 226.159 579.188 224.166 579.188 222.273C579.188 217.574 572.27 215.601 566.635 218.612C557.48 223.535 558.436 217.737 568.771 205.265C583.236 187.688 585.617 188.42 586.329 210.433C586.654 220.036 586.248 227.909 585.373 227.827C584.579 227.746 582.829 227.197 581.568 226.708ZM579.106 207.646C579.106 202.641 578.944 202.56 576.238 206.059C574.102 208.988 574.02 210.107 575.851 211.226C579.188 213.362 579.188 213.363 579.106 207.646ZM414.761 207.646C408.475 182.215 408.393 180.628 413.317 180.628C416.023 180.628 423.021 209.701 421.109 212.813C418.81 216.536 416.511 214.563 414.761 207.646ZM522.751 211.45C517.035 210.738 516.566 210.188 517.441 205.57C517.99 202.803 519.415 195.174 520.696 188.643C522.833 177.128 525.132 173.955 527.37 179.672C527.919 181.177 527.614 187.382 526.576 193.425C524.501 205.184 525.457 207.096 533.249 207.096C535.792 207.096 537.542 208.276 537.542 209.944C537.542 212.813 535.63 213.057 522.751 211.45ZM432.726 209.477C432.319 208.683 431.281 201.054 430.488 192.469C428.82 173.161 431.2 172.123 442.959 186.812L450.914 196.761L449.571 185.633C448.371 175.623 448.534 174.667 451.708 175.298C456.55 176.173 460.924 206.852 456.468 208.602C454.8 209.233 452.114 207.727 449.958 205.103C447.903 202.56 444.16 197.941 441.698 194.849C437.161 189.132 437.161 189.132 438.361 200.016C439.399 209.233 439.155 210.901 436.612 210.901C435.025 210.901 433.275 210.27 432.726 209.477ZM476.976 193.892C476.976 181.014 476.813 180.628 472.215 180.628C468.96 180.628 467.454 179.59 467.454 177.291C467.454 174.423 469.123 174.097 480.719 174.667C493.902 175.298 498.765 177.922 488.735 179.122C483.649 179.672 483.588 179.997 483.018 193.425C482.632 203.902 481.838 207.157 479.682 207.157C477.545 207.157 476.976 204.227 476.976 193.892ZM504.787 185.083C504.238 184.208 504.238 181.096 504.787 178.166C505.988 171.88 510.28 172.51 509.568 178.878C508.937 183.964 506.313 187.464 504.787 185.083ZM468.553 787.226C466.885 784.602 463.304 781.428 460.761 780.309C455.044 777.685 455.837 773.88 461.961 774.592C466.417 775.08 476.976 766.8 476.976 762.67C476.976 761.551 472.297 758.621 466.498 756.241C460.761 753.861 456.326 750.911 456.712 749.71C457.506 747.33 482.713 746.537 482.713 748.917C482.713 752.416 490.017 749.955 495.021 744.706C505.662 733.577 511.786 739.477 501.613 751.073C495.652 757.909 494.309 763.158 498.277 764.664C501.308 765.844 501.613 788.589 498.683 789.525C497.564 789.932 494.615 785.883 492.072 780.634C486.355 768.326 485.398 767.838 478.807 774.124C474.595 778.173 473.639 780.472 474.433 784.52C475.877 791.519 472.459 793.106 468.553 787.226ZM377.632 774.999C374.702 770.299 380.114 769.343 409.899 769.343C439.785 769.343 441.067 769.506 441.067 773.168C441.067 776.748 439.785 776.891 409.899 776.891C391.222 776.891 378.365 776.179 377.632 774.999ZM516.709 774.043C516.709 771.662 521.572 771.256 548.895 771.256C576.238 771.256 581.08 771.662 581.08 774.043C581.08 776.504 576.238 776.891 548.895 776.891C521.572 776.891 516.709 776.504 516.709 774.043ZM359.607 755.122C359.607 752.742 365.405 752.335 400.378 752.335C435.269 752.335 441.067 752.742 441.067 755.122C441.067 757.584 435.269 757.991 400.378 757.991C365.405 757.991 359.607 757.584 359.607 755.122ZM516.709 755.122C516.709 752.742 522.528 752.335 557.48 752.335C592.371 752.335 598.17 752.742 598.17 755.122C598.17 757.584 592.371 757.991 557.48 757.991C522.528 757.991 516.709 757.584 516.709 755.122ZM327.503 690.751C327.503 672.156 327.645 670.875 331.226 670.875C334.4 670.875 335.05 672.156 335.05 678.504C335.05 686.072 335.05 686.072 342.598 686.072C350.146 686.072 350.146 686.072 350.146 678.504C350.146 671.607 350.614 670.875 354.989 670.875C359.77 670.875 359.77 670.875 359.2 690.284C358.732 708.228 358.406 709.754 354.907 709.754C351.815 709.754 351.021 708.228 350.533 701.636C349.984 693.701 349.902 693.62 342.517 693.62C335.051 693.62 335.05 693.62 335.05 702.124C335.05 709.428 334.481 710.689 331.226 710.689C327.727 710.689 327.503 709.428 327.503 690.751ZM369.148 690.751C369.148 672.156 369.291 670.875 372.872 670.875C376.045 670.875 376.696 672.156 376.696 678.504C376.696 687.964 378.12 687.964 384.875 678.443C388.618 673.113 391.548 670.875 394.885 670.875C400.052 670.875 399.889 671.607 392.423 681.535C386.95 688.839 386.869 688.452 393.705 698.381C400.459 708.228 400.845 711.096 395.129 710.303C392.423 709.896 389.331 706.722 386.299 701.392C382.088 693.701 381.539 693.295 379.24 696.55C377.795 698.462 376.696 702.429 376.696 705.379C376.696 709.428 375.74 710.628 372.872 710.628C369.291 710.628 369.067 709.428 369.067 690.751H369.148ZM415.473 708.553C408.8 704.749 406.969 700.68 406.969 689.795C406.969 678.504 410.55 672.787 419.522 670.163C426.765 667.945 437.161 673.662 437.242 679.867C437.242 683.285 430.325 682.878 428.982 679.46C427.558 675.737 421.272 675.818 417.528 679.542C414.11 682.959 413.561 693.925 416.511 699.418C419.278 704.667 429.694 704.586 429.694 699.337C429.694 696.712 428.433 695.512 425.727 695.512C423.021 695.512 421.984 694.495 422.472 692.176C422.94 689.714 425.015 688.92 430.651 688.92C438.117 688.92 438.198 689.002 438.748 696.631C439.155 701.799 438.361 705.135 436.449 706.722C432.482 710.059 420.01 711.178 415.473 708.553ZM467.515 707.597C467.515 705.847 471.34 699.723 476.019 694.088C480.719 688.371 484.524 682.491 484.524 681.047C484.524 676.836 479.132 675.819 475.389 679.236C471.89 682.41 465.623 683.366 465.623 680.823C465.623 680.03 466.966 677.405 468.553 675.086C472.927 668.901 485.256 669.206 489.386 675.574C493.109 681.21 491.848 686.214 484.137 696L478.563 703.06H486.436C492.946 703.06 494.228 703.711 493.679 706.417C492.722 711.259 467.515 712.439 467.515 707.597ZM538.01 707.841C529.994 702.043 534.511 696.245 543.015 701.473C544.927 702.674 548.02 703.141 549.769 702.429C554.388 700.68 552.638 694.963 547.002 693.62C541.346 692.257 540.716 687.334 546.127 686.296C550.644 685.503 552.719 682.654 551.376 679.155C550.257 676.205 543.971 675.737 542.303 678.504C540.797 680.904 533.799 680.986 533.799 678.585C533.799 670.244 552.557 667.945 557.643 675.656C560.43 679.948 560.511 680.742 557.724 684.953C555.1 688.92 555.1 689.795 557.48 691.789C560.898 694.637 561.061 701.249 557.887 705.603C554.469 710.303 543.259 711.564 538.01 707.841ZM573.532 707.047C573.532 704.504 574.732 703.06 576.95 703.06C580.368 703.06 584.905 699.723 584.905 697.18C584.905 696.387 582.199 695.838 578.944 695.919C572.108 696.163 567.896 691.708 567.896 684.241C567.896 667.864 589.665 665.646 593.653 681.535C596.745 693.844 589.747 707.129 578.781 709.835C574.325 710.852 573.532 710.465 573.532 707.047ZM586.023 687.171C587.366 683.672 583.399 676.124 580.612 677.08C577.194 678.199 574.732 683.448 575.994 686.784C577.52 690.507 584.66 690.833 586.023 687.171ZM807.273 782.628C806.622 781.509 810.203 775.711 815.208 769.75C889.914 681.698 926.554 579.018 923.055 467.427C921 399.639 906.922 342.755 877.198 281.863C832.541 190.474 759.341 119.757 660.953 72.8619C653.487 69.2812 647.282 65.1512 647.282 63.7271C647.282 60.065 651.818 61.7333 677.656 74.6115C786.684 128.81 869.487 223.942 906.596 337.73C916.545 368.186 924.56 406.007 927.429 435.893C939.27 557.311 901.836 676.124 821.881 771.256C810.61 784.602 809.165 785.721 807.273 782.628ZM878.235 734.31C878.235 729.61 880.86 727.942 882.854 731.278C884.278 733.516 882.121 739.07 879.904 739.07C879.029 739.07 878.235 736.934 878.235 734.31ZM696.638 214.786C691.959 211.226 691.959 211.226 694.339 187.22C695.682 173.955 696.394 162.826 696.007 162.5C695.6 162.114 689.965 169.011 683.455 177.841C676.924 186.67 670.577 193.892 669.376 193.811C668.196 193.811 665.246 192.143 662.866 190.169C658.573 186.589 658.573 186.589 677.799 160.446C688.378 146.062 697.676 133.489 698.469 132.614C699.263 131.739 702.599 132.939 705.773 135.32C712.222 140.101 712.222 139.308 707.685 174.748C706.729 182.459 706.261 189.05 706.567 189.437C706.973 189.762 712.527 182.459 719.058 173.08C725.487 163.701 731.285 155.99 731.855 155.99C733.909 155.99 743.838 162.582 743.37 163.62C741.071 168.787 704.593 218.367 703.149 218.367C702.131 218.367 699.181 216.78 696.638 214.786ZM125.947 203.597C121.817 196.924 174.754 143.193 212.657 115.606C236.094 98.5366 241.749 95.2615 242.929 98.2928C243.58 100.124 238.087 105.047 226.491 113.144C192.23 137.151 169.668 157.903 133.902 198.43C129.446 203.516 126.903 205.103 125.947 203.597ZM913.92 287.356C913.513 283.694 912.008 281.72 909.465 281.232C903.748 280.276 901.917 277.733 904.704 274.396C908.427 269.88 910.177 270.816 914.632 280.052C917.643 286.319 918.213 289.106 916.626 290.693C915.039 292.198 914.307 291.324 913.92 287.356ZM752.342 266.462C725.019 252.078 726.362 222.904 755.129 205.733C767.601 198.266 776.593 197.717 785.646 203.821C799.318 213.057 804.018 227.278 797.65 239.586C794.639 245.385 794.639 245.385 789.308 240.299C784.69 235.863 784.304 234.582 786.053 229.984C788.515 223.453 787.07 219.649 780.886 215.6C774.843 211.613 769.676 212.813 759.585 220.605C744.57 232.12 742.027 244.51 753.074 252.383C758.547 256.289 758.547 256.289 763.633 252.302C768.72 248.335 768.72 248.335 764.508 243.798C760.297 239.424 760.297 239.281 763.877 235.375C767.539 231.327 767.54 231.327 776.593 241.499L785.565 251.59L775.637 260.562C764.915 270.185 761.253 271.141 752.342 266.462ZM179.759 244.042C156.159 220.443 156.159 220.443 161.327 215.275C166.494 210.107 166.494 210.107 175.934 219.405L185.395 228.784L194.936 219.405L204.396 210.107L194.855 200.484C185.313 190.881 185.313 190.882 189.931 186.508C194.529 182.133 194.529 182.133 199.941 186.182C202.891 188.419 213.857 198.673 224.253 209.069C243.174 227.909 243.174 227.909 238.006 233.077C232.757 238.244 232.757 238.244 222.748 228.377L212.738 218.448L203.44 227.99L194.061 237.451L203.847 247.379C213.613 257.307 213.613 257.307 209.401 262.474C207.102 265.343 204.783 267.724 204.234 267.724C203.766 267.724 192.719 257.083 179.759 244.042ZM35.9216 398.296C35.9216 393.047 44.3443 359.6 50.3867 340.924C64.038 298.648 84.8711 256.432 109.102 221.866C120.312 205.896 122.143 204.065 123.485 207.646C123.974 208.907 117.382 220.605 108.715 233.463C78.5029 278.689 54.2723 336.224 43.4692 388.368C41.9434 395.916 40.133 400.209 38.4647 400.209C37.0202 400.209 35.9216 399.334 35.9216 398.296ZM21.5378 565.672C22.1685 564.065 22.6365 562.335 22.6365 561.766C22.6365 561.298 23.5112 561.461 24.5488 562.092C27.5598 563.923 26.6849 568.683 23.3483 568.683C21.3749 568.683 20.7444 567.646 21.5378 565.672ZM15.4952 553.974C15.8817 551.431 14.8443 550.8 10.9585 551.207C5.2416 551.838 5.07874 551.431 1.82357 517.822C-6.21261 435.1 12.6266 339.337 52.1158 262.007C64.0379 238.793 71.7487 226.078 71.8301 229.333C71.8301 230.696 72.7861 231.734 73.9864 231.734C75.2478 231.734 75.5735 229.984 74.9428 227.197C74.068 223.698 76.5297 218.856 86.2952 205.021C150.361 114.508 239.288 50.5234 345.386 18.5009C368.66 11.4209 406.969 4.19812 413.805 5.45947C417.142 6.11047 420.315 5.86676 420.865 4.91058C421.434 4.03577 424.69 3.48602 428.108 3.70984C431.525 3.87262 434.943 3.16071 435.737 1.98071C437.568 -0.887878 514.491 -0.562195 535.63 2.44885C642.521 17.626 724.693 56.0979 804.018 127.935C823.549 145.574 827.211 149.785 826.824 153.915C826.58 156.621 827.048 161.951 827.842 165.755C829.205 171.961 830.161 172.754 836.915 173.873C841.045 174.504 845.175 174.585 846.05 174.036C851.136 170.842 902.873 249.678 902.873 260.562C902.873 263.268 904.216 265.892 905.803 266.523C911.377 268.68 906.677 271.06 898.031 270.511C889.282 269.941 889.283 269.941 879.497 252.302C874.106 242.536 867.351 231.246 864.564 227.197C860.352 220.992 859.966 219.405 862.102 217.737C866.313 214.4 866.557 203.19 862.509 200.729C859.803 199.06 858.521 199.385 856.304 202.315C854.798 204.39 854.005 207.157 854.473 208.521C856.385 213.444 853.517 210.514 837.627 190.963C825.38 176.01 821.575 170.049 822.45 167.282C823.325 164.332 822.674 163.62 819.195 163.538C816.408 163.538 810.284 159.083 802.024 151.067C788.271 137.639 787.884 137.069 792.014 137.069C793.988 137.069 794.639 134.852 794.313 128.484C793.988 119.898 793.988 119.899 790.651 124.049C788.759 126.429 787.803 129.685 788.434 131.678C790.102 137.07 785.097 136.032 778.973 129.685C773.419 123.805 773.887 119.105 780.011 121.017C784.934 122.604 784.528 118.8 779.442 116.094C775.881 114.182 774.924 114.426 772.626 117.844C770.001 121.73 769.757 121.648 755.536 110.845C709.435 75.8724 649.52 46.8817 594.67 33.0472C549.464 21.5931 506.862 16.7506 466.091 18.4189C450.283 19.0496 441.372 18.745 442.084 17.626C442.735 16.5884 442.166 14.5334 440.904 13.0279C439.704 11.5834 439.155 9.04059 439.785 7.45367C440.355 5.86676 440.111 4.58466 439.236 4.58466C438.361 4.58466 437.161 6.2533 436.693 8.40985C436.062 10.6274 434.068 12.1531 431.688 12.1531C427.558 12.1531 426.358 14.9202 429.613 16.9139C433.438 19.2943 429.532 21.1251 418.322 22.2441C366.036 27.7168 298.247 50.9299 249.135 80.0839C134.37 148.198 54.9845 257.551 28.9228 383.363C25.1794 401.551 23.2059 407.675 21.3749 406.963C20.0118 406.475 18.8318 407.268 18.8318 408.713C18.8318 410.381 17.7129 411.012 16.0447 410.381C14.2136 409.669 13.1759 410.381 13.1759 412.293C13.1759 413.961 15.4141 415.854 18.1199 416.505C22.2499 417.522 22.7992 418.478 21.843 422.689C19.544 432.393 18.5063 507.1 20.4187 522.277C22.087 535.216 21.9243 537.922 19.4626 540.709C16.0447 544.453 17.3873 549.762 21.5987 549.762C25.5049 549.762 25.3422 551.594 21.2122 554.706C16.6753 558.185 14.8442 557.961 15.4952 553.974ZM105.521 198.592C105.684 195.011 105.134 191.98 104.178 191.98C102.123 191.98 99.8041 201.054 101.249 203.434C103.548 207.096 105.297 205.102 105.521 198.592ZM824.362 536.579C822.531 533.629 825.298 506.225 827.455 506.225C828.411 506.225 828.635 503.275 828.004 499.613C826.967 494.221 827.292 492.939 829.754 492.939C833.416 492.939 833.335 491.679 830.791 516.072C828.716 535.216 826.966 540.791 824.362 536.579ZM442.491 957.227C434.781 956.657 433.519 955.945 433.519 952.527C433.519 950.31 434.862 946.973 436.612 945.061C438.524 942.985 438.829 941.561 437.568 941.561C436.367 941.561 435.33 940.768 435.33 939.649C435.33 937.594 443.447 937.187 450.202 939.018C454.006 940.056 454.576 941.175 453.864 947.054C453.294 951.815 453.925 954.602 456 956.189C459.337 958.732 460.537 958.651 442.491 957.227ZM461.554 955.64C461.168 953.646 461.168 949.191 461.554 945.854C462.287 939.649 462.287 939.649 483.649 939.649C573.064 939.649 671.37 908.114 743.289 856.215C756.879 846.429 759.341 845.249 763.552 846.836C766.502 847.955 768.801 848.016 769.513 846.917C770.083 845.961 771.812 845.717 773.338 846.287C775.006 846.918 776.105 846.206 776.105 844.537C776.105 842.93 774.213 841.201 771.812 840.55C768.089 839.594 770.388 836.827 792.32 815.912C869.406 742.57 914.958 658.098 933.39 554.462C940.857 512.41 940.145 433.655 932.027 395.997C931.173 392.172 931.64 390.748 933.634 390.748C935.058 390.748 938.314 388.836 940.775 386.537C945.312 382.326 945.312 382.325 938.802 381.044C934.651 380.169 931.803 380.494 931.01 381.776C930.298 383.037 929.179 381.532 928.467 378.358C924.805 362.143 918.681 341.88 911.133 320.884C905.335 304.913 903.259 297.04 904.785 296.165C905.884 295.453 906.291 293.399 905.66 291.73C903.748 286.868 907.084 287.905 911.621 293.704C915.039 297.915 916.219 298.403 918.6 296.491C921 294.436 922.343 296.735 928.141 312.625C935.852 333.6 943.074 358.074 946.431 374.452C948.323 383.505 948.242 385.824 946.187 387.086C944.274 388.286 944.437 388.917 946.98 389.955C949.605 390.911 949.828 391.785 948.099 393.84C946.35 395.997 946.492 397.034 948.811 398.845C957.071 405.376 960.164 505.187 953.328 546.914C949.117 572.976 946.431 583.86 944.356 583.86C943.481 583.86 943.237 585.142 943.888 586.647C944.518 588.397 943.888 589.496 942.057 589.496C938.72 589.496 927.51 595.538 927.51 597.288C927.51 599.526 935.933 600.787 937.764 598.875C950.703 585.936 926.005 658.973 902.466 703.06C887.615 730.891 888.164 730.241 882.609 726.68C880.066 725.012 877.828 723.893 877.686 724.219C877.523 724.605 875.855 727.637 873.943 730.973C870.85 736.527 870.851 737.402 873.536 741.532C876.405 745.906 876.079 746.618 865.845 761.002C850.18 782.771 844.626 789.138 841.045 789.22C839.133 789.22 837.79 790.888 837.627 793.594C837.302 797.561 802.024 835.545 798.606 835.545C797.894 835.545 796.938 833.795 796.307 831.578C794.781 825.617 790.814 829.279 792.157 835.464C793.195 840.163 792.015 841.75 780.479 851.048C749.494 875.929 725.975 891.025 691.308 908.338C628.219 939.812 566.777 955.233 492.804 958.02C463.792 959.119 462.205 959.058 461.554 955.64ZM859.396 760.839C859.396 758.215 859.478 755.448 859.478 754.736C859.559 753.922 858.847 753.067 857.809 752.742C855.978 752.111 853.598 762.996 855.266 764.582C857.565 766.881 859.396 765.132 859.396 760.839ZM945.943 535.216C943.481 529.825 940.775 531.33 940.775 538.166C940.775 545.002 942.688 546.752 945.618 542.703C947.286 540.384 947.367 538.329 946.024 535.216H945.943ZM952.148 439.942C952.148 438.904 950.866 438.029 949.279 438.029C947.774 438.029 946.492 438.904 946.492 439.942C946.492 440.979 947.774 441.854 949.279 441.854C950.866 441.854 952.148 440.979 952.148 439.942ZM415.473 954.521C307.3 937.757 213.857 891.025 140.026 816.787C92.5816 769.181 56.8156 714.27 32.8902 652.442C24.5488 630.836 11.3655 586.485 11.3655 579.893C11.3655 575.987 16.9194 573.444 19.6252 576.149C20.8866 577.512 22.5549 577.187 24.6301 575.275C27.4987 572.65 28.2107 574.176 33.2155 592.853C39.3393 615.964 39.7259 622.251 35.6773 630.429C32.9714 635.922 33.0528 636.472 37.3456 641.477C39.8073 644.345 42.3505 646.176 43.0626 645.525C43.6933 644.895 43.2251 643.308 42.0248 642.107C39.4817 639.564 38.8513 627.337 41.2316 627.337C42.0251 627.337 46.0125 635.678 49.9797 645.851C109.895 798.355 242.217 905.49 406.013 934.176C417.467 936.17 427.314 937.757 427.945 937.757C428.494 937.757 428.982 942.05 428.982 947.278C428.982 952.446 428.494 956.576 427.945 956.515C427.314 956.352 421.74 955.477 415.473 954.521ZM436.368 928.052C281.564 913.201 142.162 816.645 74.8615 677.568C42.8999 611.59 29.8791 555.561 29.5536 482.544C29.3095 440.817 32.6461 405.132 36.7151 406.474C39.1768 407.349 39.1765 410.055 36.0638 444.702C33.6834 470.784 34.3957 509.785 37.6712 533.243C38.4647 539.285 38.4647 544.676 37.5899 545.246C36.7151 545.714 37.1827 548.013 38.6069 550.332C39.97 552.631 42.5947 562.092 44.4257 571.47C71.0367 710.222 176.016 835.952 311.369 891.188C461.636 952.446 636.56 926.303 759.747 823.948C765.79 818.943 771.507 814.814 772.463 814.814C781.76 814.814 754.824 837.783 719.363 860.345C636.235 913.038 534.287 937.513 436.368 928.052ZM255.503 199.853C247.711 195.642 237.375 181.421 234.588 170.842C229.502 152.084 242.787 135.157 262.399 135.238C271.148 135.238 279.733 140.182 286.406 148.829C301.583 168.705 300.159 188.562 282.988 198.674C273.447 204.228 264.393 204.614 255.503 199.853ZM278.146 188.257C286.894 183.557 283.151 165.125 271.066 153.691C254.709 138.189 240.549 155.441 252.634 176.091C260.182 188.887 269.011 193.099 278.146 188.257ZM318.836 145.269C313.831 130.865 308.663 116.339 307.3 112.921C304.92 106.878 304.92 106.715 311.675 103.928C318.429 101.161 318.429 101.161 331.47 111.802C338.631 117.681 344.979 123.174 345.447 124.049C346.016 124.843 348.946 127.386 352.059 129.522C357.694 133.571 357.694 133.57 350.228 112.921L342.843 92.1686L349.353 90.1749C352.852 89.1577 356.189 88.9139 356.738 89.7074C357.226 90.5009 362.699 104.722 368.904 121.262C380.175 151.291 380.175 151.291 376.045 153.61C368.66 157.74 364.53 156.234 351.102 144.455C325.977 122.686 326.628 122.686 334.176 145.025C341.724 167.505 341.642 166.631 337.35 167.912C335.518 168.38 332.67 169.418 331.002 170.13C328.459 171.167 326.302 166.793 318.836 145.269ZM608.036 163.62C599.919 158.696 594.365 149.236 594.284 140.487C594.284 129.135 601.201 113.551 609.542 106.003C616.134 100.042 618.209 99.249 627.018 99.249C646.895 99.249 659.692 115.301 654.992 134.608C651.982 147.242 645.614 157.984 637.984 163.07C629.806 168.624 616.622 168.869 608.036 163.62ZM630.049 152.023C635.766 146.774 641.646 132.777 641.646 124.68C641.646 113.002 630.68 106.878 621.464 113.388C616.541 116.887 609.135 133.815 608.911 142.4C608.504 154.322 621.383 160.12 630.049 152.023ZM556.218 147.16C554.387 146.692 550.969 140.569 547.958 132.309C545.171 124.517 541.754 118.149 540.472 118.149C536.179 118.149 532.212 124.679 530.869 133.651C529.587 142.481 529.587 142.482 522.67 141.444C518.866 140.813 515.61 140.243 515.448 140.182C515.041 139.857 526.658 73.8994 527.207 73.1059C527.451 72.7804 530.788 73.106 534.674 73.8181C540.635 74.9167 541.428 75.7303 540.553 79.1483C539.922 81.3658 538.885 87.7947 538.254 93.532L537.054 103.928L550.095 91.2938C562.81 78.9038 563.217 78.6601 571.152 79.6977C575.526 80.3284 579.188 81.4473 579.188 82.2408C579.188 83.0342 573.227 88.9135 566.065 95.3425L552.882 107.041L561.305 127.06C565.903 138.107 569.727 147.405 569.727 147.812C569.727 148.666 560.104 148.279 556.218 147.16ZM412.381 138.494C404.019 132.858 399.503 123.317 398.221 108.465C396.878 93.4508 402.209 81.6102 412.524 76.1985C425.32 69.5254 442.736 73.1874 449.083 83.9091C453.864 92.0063 453.132 93.532 444.79 93.532C440.579 93.532 437.161 92.7996 437.161 91.7823C437.161 88.4458 431.2 84.0718 426.602 84.0718C423.977 84.0718 419.685 86.2894 416.979 88.9953C412.605 93.3694 412.218 94.9559 412.93 105.515C414.273 125.636 422.309 134.689 434.862 130.315C439.073 128.891 440.111 127.223 440.579 121.567C441.21 114.589 441.21 114.589 434.699 115.606C428.901 116.562 428.189 116.176 427.314 111.72C426.114 105.515 425.951 105.678 441.209 104.091L453.701 102.748L455.044 116.338C456.163 127.935 455.919 130.396 452.989 133.733C444.322 143.437 423.489 145.899 412.381 138.494ZM248.748 95.2611C246.999 92.4128 250.091 90.1138 269.154 80.1652C280.994 74.0618 284.107 73.0245 283.538 75.649C283.232 77.3986 278.695 81.2032 273.447 83.9904C268.279 86.8387 260.894 91.05 257.089 93.3693C252.003 96.3804 249.765 96.9497 248.748 95.2611ZM291.736 71.519C292.204 69.0369 298.247 65.7001 313.037 59.8205C399.503 25.5803 496.69 18.8262 585.779 40.7579C612.472 47.3495 641.727 57.9899 643.802 61.8961C645.532 65.0698 645.227 65.3948 641.321 64.1945C638.859 63.4825 635.929 61.652 634.648 60.0651C633.468 58.4782 631.637 57.6848 630.599 58.3155C629.643 58.9462 619.165 56.4841 607.324 52.9034C527.125 28.5101 438.117 27.7983 357.857 50.9302C339.73 56.1792 310.799 66.5748 292.693 74.3669C291.818 74.7738 291.33 73.4924 291.736 71.519Z" fill="#383B40"/>
</svg>
