<svg width="955" height="726" viewBox="0 0 955 726" fill="none" xmlns="http://www.w3.org/2000/svg">
<path fill-rule="evenodd" clip-rule="evenodd" d="M356.569 58.3889C354.671 49.5661 354.671 47.6683 356.488 47.4261C357.578 47.2646 358.931 49.0817 359.477 51.4439C361.132 58.6313 366.018 58.7119 364.605 51.6053C362.788 42.5402 366.664 42.3788 369.107 51.3631C371.55 60.5897 371.853 59.9638 363.736 61.5386C358.366 62.4875 357.437 62.1037 356.569 58.3889ZM577.785 58.3889C572.495 57.3592 567.832 56.2689 567.529 56.0267C567.206 55.7036 567.528 52.3925 568.235 48.5364C569.81 40.0164 574.535 38.9869 573.364 47.4261C572.879 50.6564 573.364 53.1802 574.474 53.1802C575.564 53.1802 577.058 50.5756 577.785 47.4261C579.582 39.1484 583.296 40.0165 581.964 48.3749C581.176 53.3415 581.56 55.0778 583.539 55.0778C584.952 55.0778 586.447 52.7965 586.77 49.9497C587.093 47.103 588.425 44.5188 589.676 44.0343C592.059 43.2469 591.029 56.8142 588.586 59.0956C587.879 59.7215 583.055 59.3378 577.785 58.3889ZM374.154 54.755C372.418 48.3751 372.579 43.5697 374.538 43.5697C375.406 43.5697 376.759 46.2347 377.384 49.4852C378.091 53.0991 379.343 54.8356 380.695 54.0483C381.866 53.2609 382.351 50.3537 381.725 47.1839C380.938 43.0855 381.402 41.672 383.461 41.672C385.339 41.672 386.288 43.6506 386.288 47.5875C386.288 51.4437 387.076 53.1799 388.65 52.7156C390.165 52.231 390.871 49.4854 390.467 45.7705C389.761 38.8254 392.91 37.4929 394.727 44.0343C397.493 54.5328 396.706 55.4616 382.19 58.0661C376.032 59.0957 375.164 58.7929 374.073 54.755H374.154ZM399.31 47.8906C398.826 43.9537 398.826 40.0164 399.229 39.229C400.723 36.3823 403.57 39.9359 403.57 44.6603C403.57 47.507 404.741 49.3238 406.397 49.3238C408.537 49.3238 409.001 47.8902 408.133 43.5697C407.346 39.8548 407.749 37.7959 409.163 37.7959C410.435 37.7959 411.929 40.3999 412.554 43.5697C414.129 51.4436 417.057 50.8177 417.057 42.6208C417.057 33.6163 420.287 33.9396 421.397 43.0854C422.568 52.0899 422.185 52.3928 410.031 53.9676C400.178 55.1587 400.178 55.1588 399.31 47.8906ZM551.114 53.8061C549.539 52.2314 549.459 44.9023 551.034 40.8039C553.255 35.0499 556.162 37.6541 555.072 44.5185C554.204 49.6265 554.668 51.2824 556.727 51.2824C558.221 51.2824 559.472 49.7077 559.472 47.8906C559.553 43.6508 562.723 38.4417 564.298 40.0165C564.924 40.7231 564.924 44.3574 564.218 48.1328C563.107 54.1291 562.158 55.0778 557.676 55.0778C554.748 55.0778 551.821 54.533 551.114 53.8061ZM528.644 51.8475C524.222 51.1408 523.839 50.3534 524.545 43.489C525.333 34.5653 528.725 33.152 528.725 41.672C528.725 44.8215 529.431 47.4261 530.38 47.4261C531.329 47.4261 532.58 44.8215 533.226 41.672C533.852 38.4417 535.346 35.8373 536.538 35.8373C538.032 35.8373 538.334 38.1186 537.486 42.6208C536.457 47.8903 536.841 49.3238 539.203 49.3238C541.181 49.3238 542.131 47.5066 542.131 43.5697C542.131 40.3999 542.998 37.7959 544.109 37.7959C545.118 37.7959 545.987 41.2685 545.987 45.4477C545.987 52.9379 545.846 53.1798 539.769 52.877C536.296 52.7155 531.329 52.2311 528.644 51.8475ZM426.748 46.6387C426.748 44.0342 426.202 40.5617 425.576 38.9062C424.769 36.9478 425.415 35.8373 427.454 35.8373C429.675 35.8373 430.543 37.6543 430.543 41.672C430.543 45.6089 431.492 47.4261 433.612 47.4261C435.732 47.4261 436.459 45.8514 436.055 42.1366C435.813 39.2293 436.378 36.3824 437.388 35.8373C438.417 35.3527 439.527 38.6034 439.85 43.0854C440.395 51.2823 440.396 51.2824 433.531 51.2824C427.616 51.2824 426.748 50.6563 426.748 46.6387ZM444.959 49.5659C443.162 47.8296 444.111 33.9396 445.988 33.9396C447.018 33.9396 447.886 36.544 447.886 39.6936C447.886 43.57 448.835 45.4477 450.814 45.4477C452.691 45.4477 453.639 43.57 453.639 39.6936C453.639 31.2544 456.951 32.6878 457.819 41.5106C458.526 48.7586 458.304 49.0009 452.227 49.7883C448.674 50.1921 445.443 50.111 444.959 49.5659ZM506.475 49.243C504.739 46.3963 507.263 33.9396 509.564 33.9396C510.574 33.9396 511.382 36.9478 511.382 40.6424C511.382 44.3573 512.249 47.4261 513.259 47.4261C514.369 47.4261 515.238 44.8215 515.238 41.7527C515.238 36.3016 517.923 32.3649 519.659 35.3529C520.043 36.1403 520.043 40.0973 519.579 44.0343C518.792 50.4141 518.085 51.2824 513.179 51.2824C510.191 51.2824 507.202 50.3534 506.475 49.243ZM462.947 41.672C462.402 36.3016 462.947 33.9396 464.683 33.9396C466.096 33.9396 467.127 36.3018 467.127 39.6936C467.127 42.8431 467.995 45.4477 469.024 45.4477C470.135 45.4477 471.003 42.8431 471.003 39.6936C471.003 36.544 471.871 33.9396 472.88 33.9396C473.91 33.9396 474.778 36.544 474.778 39.6936C474.778 43.57 475.808 45.4477 477.706 45.4477C479.583 45.4477 480.612 43.57 480.612 39.6936C480.612 36.544 481.482 33.9396 482.511 33.9396C483.541 33.9396 484.409 37.412 484.409 41.672C484.409 49.3238 484.409 49.3238 474.072 49.3238C463.654 49.3238 463.653 49.3238 462.947 41.672ZM488.265 41.672C488.265 36.5439 489.133 33.9396 490.87 33.9396C492.606 33.9396 493.151 35.7566 492.525 39.6936C491.899 44.1151 492.443 45.4477 494.806 45.4477C496.946 45.4477 497.895 43.7113 497.895 39.6936C497.895 36.544 498.763 33.9396 499.853 33.9396C500.883 33.9396 501.752 37.412 501.752 41.672C501.752 49.1623 501.59 49.3238 495.048 49.3238C488.426 49.3238 488.265 49.1623 488.265 41.672ZM442.132 724.479C302.784 716.908 178.175 665.344 93.8643 580.467C64.7512 551.132 47.8123 527.874 31.5598 494.662C0.871881 432.358 -7.32511 369.589 6.48445 303.266C15.8725 258.466 40.625 208.699 72.5646 170.541C86.2127 154.289 91.26 150.19 89.5237 156.893C88.8171 159.659 89.2005 160.83 90.7147 160.366C91.8857 159.962 93.1579 158.004 93.4608 155.944C93.7838 153.885 94.4093 150.352 94.9746 147.989C96.0648 142.7 122.17 119.906 125.097 121.723C126.268 122.51 126.672 122.107 125.965 121.016C122.735 115.727 178.398 78.417 219.887 57.9853C365.23 -13.5256 549.943 -19.2998 702.777 42.924C734.253 55.7039 757.672 68.2415 756.319 71.5526C755.774 73.1274 754.523 74.3184 753.574 74.3184C752.625 74.3184 751.838 75.7318 751.838 77.3874C751.838 79.0429 750.808 79.9916 749.475 79.5272C748.123 79.0427 747.255 77.7911 747.416 76.7614C747.658 75.7317 745.761 75.2674 743.318 75.7318C740.552 76.2971 737.322 75.2671 735.041 73.0664C732.981 71.1686 730.134 69.2712 728.64 68.9482C727.146 68.6453 718.08 65.011 708.531 60.9126C504.981 -26.7903 250.252 13.0436 107.351 154.995C46.6211 215.261 15.0043 287.418 15.0043 365.571C15.0043 528.984 164.043 667.302 378.879 703.421C447.563 714.949 529.512 713.435 599.711 699.403C682.124 682.929 760.741 647.355 819.189 600.112C839.843 583.476 873.924 547.518 888.198 527.329C917.755 485.517 937.015 432.681 939.76 385.438C940.407 374.01 941.74 364.218 942.608 363.673C943.557 363.128 943.476 361.23 942.608 359.413C941.114 356.506 938.267 333.308 937.479 316.753C937.318 313.038 936.611 308.697 935.905 307.123C935.279 305.548 932.513 296.806 929.908 287.64C927.304 278.494 922.964 266.037 920.278 259.96C915.392 248.856 913.898 240.558 917.129 242.537C918.078 243.163 918.622 242.153 918.239 240.255C917.916 238.438 917.532 236.46 917.451 235.915C917.371 235.369 915.474 233.795 913.273 232.442C911.052 231.029 909.8 230.786 910.506 231.977C911.213 233.068 911.052 234.017 910.184 234.017C909.315 234.017 903.723 225.982 897.727 216.19C876.285 181.504 838.107 140.418 805.138 116.676C797.103 110.841 790.481 105.006 790.4 103.654C790.4 102.321 788.906 101.291 787.25 101.291C785.514 101.291 779.113 98.2227 772.976 94.5079C762.8 88.2693 761.851 87.179 762.094 81.102C762.235 74.9443 762.639 74.5609 767.141 75.6511C773.682 77.2461 810.508 101.695 829.749 117.221C849.938 133.554 879.112 163.838 893.951 183.785C908.689 203.652 919.976 223.619 918.159 226.607C917.21 228.021 917.532 228.344 918.945 227.475C924.073 224.326 945.212 280.473 951.289 313.2C955.933 338.275 955.852 393.796 951.128 417.781C946.545 441.039 936.612 470.697 926.275 492.381C916.039 513.6 896.697 543.339 892.215 544.752C890.398 545.297 889.065 547.114 889.207 548.689C889.53 552.323 863.425 580.871 844.265 598.052C745.135 686.462 597.409 732.999 442.132 724.479ZM417.137 701.301C251.988 684.342 108.926 599.728 50.9618 484.729C42.8457 468.638 32.3472 438.516 28.168 419.114C22.5755 393.574 22.0103 338.982 27.1384 314.855C59.704 160.043 219.422 43.489 425.254 24.1677C460.504 20.9374 532.035 22.8152 565.247 27.9433C624.866 37.1699 695.126 59.4188 732.113 80.6985C742.753 86.8562 739.058 87.9664 727.308 82.1316C677.46 57.44 614.449 38.8253 549.863 29.7603C521.235 25.8234 433.935 26.2877 402.702 30.7091C284.957 47.1837 189.057 91.3583 117.688 161.86C70.6665 208.235 43.7746 256.104 31.1562 315.804C26.5127 337.649 26.5934 392.786 31.237 413.824C49.145 495.227 95.6815 559.41 176.035 613.598C308.68 703.118 504.981 725.044 668.152 668.715C812.002 619.049 906.791 521.555 926.193 403.345C929.201 385.518 928.879 340.253 925.73 320.145C925.023 315.643 925.406 312.877 926.597 312.877C929.908 312.877 931.725 333.389 931.563 369.67C931.483 398.762 930.695 407.202 926.981 422.586C908.225 500.275 859.084 566.355 781.637 617.858C716.022 661.629 634.477 690.177 545.987 700.433C517.6 703.744 445.604 704.208 417.137 701.301ZM472.88 687.189C472.88 682.363 472.013 680.405 470.054 680.405C468.076 680.405 467.127 682.282 467.127 686.159C467.127 689.308 466.258 691.913 465.229 691.913C464.139 691.913 463.271 688.44 463.271 684.18C463.271 676.529 463.27 676.529 473.829 676.529C484.489 676.529 484.489 676.529 484.489 685.291C484.489 690.641 483.682 693.568 482.511 692.862C481.482 692.236 480.612 689.147 480.612 685.997C480.612 682.929 479.745 680.405 478.635 680.405C477.625 680.405 476.757 682.929 476.757 685.997C476.757 689.147 475.889 692.236 474.859 692.862C473.668 693.568 472.88 691.287 472.88 687.189ZM436.378 685.291C436.378 680.486 435.51 678.426 433.451 678.426C431.553 678.426 430.543 680.405 430.543 684.18C430.543 687.411 429.756 689.935 428.645 689.935C427.616 689.935 426.748 686.542 426.748 682.282C426.748 674.792 426.909 674.57 433.451 674.57C439.992 674.57 440.153 674.792 440.153 682.141C440.153 686.321 439.366 690.257 438.256 690.964C437.166 691.671 436.378 689.389 436.378 685.291ZM445.362 690.5C444.958 689.712 444.958 685.674 445.524 681.657C446.311 675.196 446.937 674.409 450.571 675.358C452.772 675.984 455.699 676.448 457.032 676.448C458.526 676.529 459.474 679.375 459.474 684.18C459.474 690.015 458.688 691.913 456.326 691.913C453.964 691.913 453.398 690.5 454.125 686.159C454.67 682.202 454.125 680.405 452.389 680.405C450.955 680.405 449.865 682.444 449.865 685.049C449.865 689.773 447.018 693.246 445.444 690.5H445.362ZM488.265 684.18C488.265 676.69 488.426 676.529 495.048 676.529C501.59 676.529 501.752 676.69 501.752 684.18C501.752 688.44 500.883 691.913 499.853 691.913C498.763 691.913 497.895 689.308 497.895 686.159C497.895 682.282 496.946 680.324 495.048 680.324C493.07 680.324 492.121 682.282 492.121 686.159C492.121 689.308 491.253 691.913 490.244 691.913C489.133 691.913 488.265 688.44 488.265 684.18ZM506.335 689.147C505.769 687.653 505.608 684.019 505.931 681.031C506.476 676.367 507.586 675.438 512.876 674.954C519.094 674.328 519.094 674.328 519.094 683.232C519.094 688.683 518.307 691.671 517.136 690.964C516.106 690.257 515.238 687.108 515.238 683.938C515.238 680.082 514.45 678.427 512.876 678.972C511.523 679.456 510.574 682.525 510.735 685.836C510.977 691.994 508.293 694.114 506.395 689.147H506.335ZM417.602 683.938C417.844 680.486 417.057 677.558 415.623 677.013C414.049 676.448 413.261 678.184 413.261 682.141C413.261 685.372 412.393 688.057 411.363 688.057C410.273 688.057 409.405 685.452 409.405 682.282C409.405 679.133 408.537 676.529 407.426 676.529C406.316 676.529 404.983 679.133 404.277 682.282C403.651 685.452 402.379 688.057 401.43 688.057C399.775 688.057 399.068 674.086 400.643 672.43C401.127 671.966 406.094 672.047 411.686 672.592C422.568 673.702 424.385 675.903 422.023 685.291C420.368 692.074 416.976 691.045 417.602 683.938ZM524.384 682.767C523.839 678.81 523.596 675.358 523.758 675.115C523.919 674.873 529.047 674.166 535.023 673.46C545.986 672.107 545.987 672.107 545.987 680.082C545.987 688.985 542.756 691.045 541.807 682.767C540.939 675.66 537.244 677.094 537.87 684.342C538.495 691.751 534.72 691.671 533.226 684.18C532.58 681.031 531.329 678.426 530.38 678.426C529.431 678.426 528.725 681.031 528.725 684.18C528.725 692.458 525.413 691.368 524.384 682.767ZM550.651 683.393C548.591 675.196 550.327 671.723 556.869 671.098C562.401 670.532 562.945 671.098 564.137 677.558C564.924 681.414 565.085 685.049 564.52 685.533C562.481 687.572 559.472 683.797 559.472 679.133C559.472 676.064 558.524 674.57 557.03 675.115C555.617 675.58 554.91 678.426 555.212 681.98C555.939 689.066 552.387 690.177 550.651 683.393ZM390.629 680.486C391.255 673.541 387.56 672.511 386.692 679.375C386.369 682.06 385.198 684.18 384.087 684.18C382.896 684.18 382.432 681.737 382.896 678.426C383.462 674.631 382.896 672.672 381.321 672.672C379.989 672.672 378.414 675.277 377.688 678.426C375.971 686.24 372.014 685.998 373.589 678.184C374.235 674.873 374.78 670.936 374.78 669.442C374.78 666.838 381.564 667.06 392.607 670.068C395.999 671.017 397.009 677.235 394.808 683.07C392.829 688.198 390.164 686.462 390.629 680.486ZM568.316 678.103C567.61 673.763 567.286 669.987 567.609 669.664C567.831 669.442 572.959 668.574 578.874 667.867C589.676 666.515 589.676 666.515 590.867 673.843C591.493 677.8 591.735 681.495 591.271 681.899C589.454 683.716 586.365 679.759 586.365 675.438C586.365 672.511 585.276 670.775 583.458 670.775C581.096 670.775 580.693 672.107 581.722 677.478C582.429 681.495 582.186 684.18 581.096 684.18C580.067 684.18 578.653 681.576 578.007 678.426C576.513 671.017 572.96 670.936 572.96 678.346C572.96 687.108 569.73 686.946 568.316 678.103ZM364.605 675.58C365.937 667.06 361.758 666.192 360.022 674.57C358.225 683.716 354.833 681.576 356.327 672.269C357.033 667.787 357.821 663.991 358.063 663.83C358.305 663.668 361.293 663.91 364.847 664.476C371.065 665.404 371.227 665.647 369.975 672.43C368.461 680.405 367.532 682.282 365.15 682.282C364.201 682.282 363.979 679.214 364.605 675.58ZM595.208 673.621C593.553 665.101 594.804 663.042 601.669 663.042C607.12 663.042 609.402 666.515 609.483 675.035C609.483 680.627 606.009 678.891 604.677 672.672C602.941 664.778 599.851 665.404 599.851 673.621C599.851 682.363 596.864 682.282 595.208 673.621ZM347.02 671.723C348.271 664.94 344.879 661.71 343.002 667.867C342.436 669.442 341.568 672.188 341.023 673.924C338.903 680.708 336.38 673.541 338.338 666.353C340.155 659.812 340.781 659.267 345.525 660.357C353.096 662.174 353.723 663.365 351.583 671.239C348.998 680.486 345.283 680.789 347.02 671.723ZM614.61 675.035C612.389 671.32 611.299 661.144 613.035 661.144C614.126 661.144 615.397 662.659 615.942 664.476C616.427 666.353 617.437 669.826 618.164 672.188C619.254 676.226 616.569 678.426 614.61 675.035ZM329.677 672.915C328.869 671.562 328.809 668.412 329.435 665.808C331.171 658.944 326.911 659.973 324.387 667.06C323.196 670.613 321.621 672.269 320.592 671.179C319.582 670.149 319.582 667.463 320.672 664.536C322.49 659.731 321.864 657.288 318.775 657.288C317.987 657.288 316.816 659.893 316.109 663.042C314.373 671.017 310.416 670.613 312.011 662.658C313.889 653.432 315.625 652.564 326.123 655.39C331.171 656.743 335.512 657.995 335.734 658.156C335.976 658.237 335.027 662.174 333.614 666.838C332.12 672.107 330.605 674.328 329.677 672.915ZM621.697 666.838C619.496 658.479 619.497 658.398 627.148 656.581C632.519 655.309 632.357 655.087 635.748 667.383C636.293 669.2 635.749 670.694 634.638 670.694C633.528 670.694 632.114 668.574 631.488 665.969C629.429 657.995 624.463 659.731 625.957 667.867C627.693 677.155 624.221 676.367 621.697 666.838ZM639.059 661.144C637 653.513 637.001 653.513 647.499 650.505C653.253 648.768 658.219 647.678 658.462 647.981C660.198 650.202 663.186 661.952 662.237 662.88C660.824 664.314 655.696 657.369 655.696 653.896C655.696 652.483 654.746 651.857 653.636 652.483C652.546 653.19 652.223 656.501 652.93 660.296C653.717 664.617 653.414 666.919 651.981 666.919C650.81 666.919 649.316 664.314 648.67 661.144C647.963 657.914 646.308 655.309 644.814 655.309C641.665 655.309 641.745 654.845 643.945 662.578C645.278 667.14 645.137 668.796 643.401 668.796C642.129 668.796 640.15 665.404 638.979 661.144H639.059ZM302.219 663.526C302.704 661.709 303.713 658.782 304.44 657.046C305.227 655.087 304.582 653.513 302.845 652.786C300.887 652.079 299.615 653.432 298.747 657.369C298.121 660.518 296.304 663.042 294.89 663.042C292.69 663.042 292.69 661.871 294.81 655.794C296.93 649.636 298.121 648.687 302.704 649.01C310.355 649.556 311.284 651.534 307.973 659.65C305.147 666.838 300.322 669.987 302.139 663.526H302.219ZM285.583 659.65C284.796 658.399 285.119 655.552 286.29 653.432C288.349 649.636 287.481 645.699 284.634 645.699C283.928 645.699 282.11 648.526 280.697 651.998C277.548 659.65 275.489 654.845 278.557 646.81C280.294 642.227 281.323 641.682 285.825 642.772C293.396 644.67 293.861 645.861 290.227 654.3C288.188 659.025 286.451 661.003 285.583 659.65ZM664.841 653.513C661.853 645.942 661.853 645.942 667.769 643.882C674.472 641.601 675.482 642.227 678.409 650.989C679.742 655.088 679.823 657.288 678.571 657.288C677.541 657.288 675.724 654.684 674.694 651.615C673.442 648.061 671.707 646.325 670.051 646.951C668.072 647.738 667.911 649.172 669.264 652.725C671.464 658.621 671.545 661.144 669.425 661.144C668.557 661.144 666.416 657.692 664.841 653.513ZM267.998 650.04C270.905 643.014 271.229 639.945 269.169 639.945C267.918 639.945 265.939 642.146 264.768 644.75C262.547 649.636 259.317 651.292 259.317 647.516C259.317 646.406 260.185 643.882 261.295 641.823C262.466 639.541 262.547 637.805 261.376 637.099C260.346 636.473 258.146 638.593 256.49 641.904C254.834 645.154 252.695 647.274 251.746 646.729C249.545 645.376 254.35 633.626 257.419 632.596C259.155 631.97 272.177 636.554 276.357 639.158C277.851 640.107 270.825 653.432 268.866 653.432C267.514 653.432 267.211 652.079 268.079 650.04H267.998ZM682.911 648.526C679.358 640.652 680.226 638.754 688.907 635.443C693.47 633.707 697.73 632.293 698.518 632.293C700.012 632.293 705.705 642.691 705.705 645.619C705.705 649.717 702.233 647.516 699.931 641.904C698.598 638.673 696.781 636.069 695.832 636.069C693.551 636.069 693.713 641.278 696.075 645.78C697.327 648.223 697.326 649.717 695.912 650.585C694.802 651.292 692.924 649.253 691.653 645.861C690.401 642.63 688.504 640.248 687.474 640.652C685.273 641.439 685.273 642.469 687.313 649.091C689.13 655.007 685.657 654.603 682.911 648.526ZM242.519 641.359C247.021 629.447 244.417 624.016 239.127 634.191C234.948 642.388 231.799 639.542 235.736 631.103C238.582 625.268 239.692 624.561 243.872 625.591C251.362 627.408 252.149 629.205 248.515 636.776C245.447 643.176 240.399 647.113 242.519 641.359ZM307.428 625.51C307.428 608.551 307.751 607.218 311.284 607.218C314.838 607.218 315.161 608.551 315.161 625.51C315.161 642.55 314.838 643.802 311.284 643.802C307.751 643.802 307.428 642.55 307.428 625.51ZM327.153 641.823C322.166 639.784 321.702 637.502 325.558 634.333C327.375 632.758 328.647 632.677 329.515 634.111C330.222 635.201 333.856 636.069 337.551 636.069C346.475 636.069 345.202 632.132 335.269 628.821C326.992 626.055 324.852 623.774 324.771 617.454C324.69 608.631 338.035 603.907 348.13 609.338C354.51 612.73 349.22 617.151 341.811 614.547C337.793 613.194 335.431 613.134 333.998 614.547C331.555 616.99 333.614 620.705 337.47 620.705C339.045 620.705 342.921 622.037 345.99 623.612C352.531 627.004 353.884 635.604 348.675 640.813C345.364 644.044 334.159 644.589 327.153 641.823ZM360.022 625.51C359.719 607.36 359.719 607.218 364.362 607.218C368.865 607.218 369.026 607.683 369.026 621.633C369.026 636.069 369.026 636.069 377.688 636.069C385.036 636.069 386.288 636.715 386.288 639.945C386.288 643.418 385.036 643.802 373.367 643.802H360.345L360.022 625.51ZM409.405 625.51C409.405 608.551 409.708 607.218 413.261 607.218C416.491 607.218 417.138 608.551 417.198 615.415L417.279 623.612L424.628 615.254C429.816 609.338 433.148 607.138 436.136 607.521C440.234 608.147 440.153 608.47 434.238 615.577L428.161 622.905L435.106 632.839C441.89 642.55 441.97 642.853 437.872 643.478C435.268 643.882 432.663 642.772 431.25 640.652C424.062 629.851 423.436 629.366 420.206 632.051C418.551 633.465 417.137 636.715 417.137 639.239C417.137 642.55 416.027 643.802 413.261 643.802C409.708 643.802 409.486 642.55 409.486 625.51H409.405ZM447.886 643.802V607.218H461.373C473.527 607.218 474.859 607.602 474.859 611.075C474.859 614.466 473.527 614.931 465.229 614.931C457.9 614.931 455.618 615.657 455.618 617.858C455.618 619.978 457.82 620.705 464.22 620.705C471.629 620.705 472.88 621.331 472.88 624.561C472.88 627.872 471.629 628.417 464.22 628.417C456.871 628.417 455.618 628.982 455.618 632.293C455.618 635.605 456.87 636.069 466.178 636.069C475.485 636.069 476.757 636.553 476.757 639.945C476.757 643.478 475.485 643.802 462.322 643.802H447.886ZM484.489 625.51V607.218H498.037C509.948 607.218 511.604 607.683 511.059 610.61C510.575 613.134 508.132 614.143 501.287 614.547C493.716 615.011 492.121 615.799 492.121 618.888C492.121 622.037 493.473 622.663 500.802 622.663C507.828 622.663 509.484 623.289 509.484 626.136C509.484 628.983 507.909 629.608 501.287 629.447C493.151 629.366 493.07 629.447 492.525 636.634C492.06 642.227 491.111 643.802 488.183 643.802C484.711 643.802 484.489 642.307 484.489 625.51ZM537.628 636.634C539.284 632.597 542.291 626.136 544.33 622.199C547.964 615.011 547.964 615.011 540.232 613.76C535.588 613.053 532.499 611.478 532.499 609.883C532.499 607.925 535.75 607.218 545.057 607.218C560.199 607.218 560.2 607.36 550.569 628.498C544.735 641.197 542.756 643.802 539.143 643.802C534.721 643.802 534.721 643.721 537.628 636.634ZM577.381 639.945C576.594 636.937 574.696 636.069 568.861 636.069C558.928 636.069 559.089 632.455 569.487 618.242C575.261 610.368 578.794 607.218 581.964 607.218C586.143 607.218 586.365 608.006 586.365 618.807C586.365 625.187 587.233 630.315 588.343 630.315C589.373 630.315 590.242 631.668 590.242 633.242C590.242 634.817 589.373 636.069 588.343 636.069C587.233 636.069 586.365 637.805 586.365 639.945C586.365 642.55 585.113 643.802 582.347 643.802C579.985 643.802 577.926 642.227 577.381 639.945ZM578.411 622.905C579.118 617.697 576.048 618.726 572.818 624.884C571.001 628.195 571.223 628.659 574.231 628.114C576.19 627.71 578.007 625.429 578.411 622.905ZM601.83 630.234C601.83 617.454 601.588 616.667 597.975 617.858C592.059 619.756 593.008 612.266 598.984 609.5C608.937 604.917 609.483 605.785 609.483 625.51C609.483 642.55 609.24 643.802 605.626 643.802C602.153 643.802 601.83 642.55 601.83 630.234ZM623.05 640.026C612.39 629.366 617.679 607.218 630.782 607.218C641.967 607.218 647.963 614.305 647.963 627.489C647.963 641.036 632.034 649.011 623.05 640.026ZM638.575 630.8C641.503 623.289 638.575 615.88 632.659 615.88C629.429 615.88 627.612 617.394 626.441 620.927C622.423 632.839 634.093 642.388 638.575 630.8ZM706.956 636.856C705.058 633 703.888 629.689 704.191 629.366C705.927 627.953 713.418 624.561 714.851 624.561C717.516 624.561 723.128 637.724 720.988 638.996C719.978 639.622 718.161 637.967 716.889 635.282C714.366 629.689 708.229 628.195 710.51 633.707C715.315 645.376 712.246 648.061 706.956 636.856ZM226.125 634.979C225.398 634.252 226.125 631.345 227.619 628.417C230.143 623.531 229.739 620.705 226.59 620.705C225.883 620.705 224.389 622.905 223.117 625.51C220.674 630.941 215.788 632.374 217.989 627.004C222.33 616.526 220.048 612.407 215.082 621.633C210.499 630.315 206.804 627.549 211.286 618.807C213.426 614.547 215.627 611.075 216.172 611.075C216.737 611.075 221.381 613.518 226.59 616.526C236.059 621.876 236.059 621.876 231.718 629.063C229.356 633 226.832 635.686 226.125 634.979ZM724.38 630.557C719.575 622.441 720.039 621.25 730.376 616.041C739.765 611.317 739.765 611.317 744.025 618.888C747.255 624.642 747.577 626.459 745.599 626.459C744.105 626.459 741.743 624.319 740.31 621.633C737.705 616.748 734.555 615.254 734.555 618.888C734.555 620.059 735.424 622.663 736.534 624.722C737.645 626.762 737.947 629.447 737.24 630.638C736.453 631.97 734.556 630.234 732.517 626.297C729.751 621.088 728.802 620.382 727.853 622.986C727.146 624.722 727.469 627.953 728.64 630.073C732.981 638.209 729.125 638.593 724.38 630.557ZM201.192 621.573C200.485 620.846 201.192 618.242 202.847 615.799C207.511 608.631 203.796 605.563 198.506 612.185C192.591 619.594 190.874 617.152 195.922 608.47C200.02 601.606 200.101 601.606 205.613 604.452C208.682 606.027 211.205 608.389 211.205 609.742C211.205 613.134 202.766 623.148 201.192 621.573ZM748.042 616.526C745.922 612.972 744.186 609.742 744.186 609.177C744.186 608.006 761.77 597.204 762.316 597.992C762.558 598.295 764.618 601.303 766.818 604.614C772.108 612.185 769.806 614.87 764.133 607.763C758.763 601.061 756.319 603.039 760.418 610.913C764.133 618.101 760.984 618.888 756.401 611.943C754.442 608.874 752.545 607.764 751.353 608.874C750.263 609.964 750.727 612.488 752.786 615.496C754.826 618.645 755.23 620.766 753.877 621.573C752.787 622.28 750.182 619.978 748.042 616.526ZM186.918 606.35C191.743 599.082 188.109 595.609 182.819 602.393C177.388 609.257 175.248 604.917 180.457 597.588C185.262 590.885 185.747 590.804 191.965 595.609C196.79 599.324 196.79 599.324 192.833 604.614C187.321 611.943 182.274 613.518 186.918 606.35ZM771.24 602.171C769.019 599.405 767.201 596.397 767.201 595.529C767.201 593.873 784.484 581.416 785.271 582.527C785.594 582.91 787.633 585.676 789.915 588.765C795.446 596.013 793.084 599.647 787.391 592.541C781.96 585.757 778.73 588.038 783.131 595.468C787.552 602.878 784.867 604.836 779.598 598.133C774.147 591.349 771.159 593.954 775.641 601.525C779.82 608.631 776.671 609.096 771.24 602.171ZM168.949 600.435C168.949 599.869 170.281 597.346 171.937 594.741C176.661 587.655 173.209 584.586 167.919 591.208C162.084 598.456 159.642 595.771 165.234 588.119C170.362 581.255 172.805 580.79 177.449 585.999C180.699 589.552 180.699 589.936 176.661 595.609C172.967 600.818 168.949 603.342 168.949 600.435ZM793.549 585.373C788.582 578.893 788.583 578.892 793.468 574.33C798.354 569.747 798.355 569.747 803.806 576.45C810.347 584.505 809.095 589.068 802.392 581.335C796.396 574.33 792.378 577.398 798.051 584.646C800.171 587.412 801.2 590.179 800.171 590.724C799.222 591.35 796.234 588.907 793.549 585.373ZM154.675 587.493C155.462 586.242 157.259 583.718 158.773 581.982C160.893 579.458 160.974 578.428 159.076 577.318C157.582 576.369 155.604 577.399 153.948 580.003C152.374 582.284 149.93 584.182 148.356 584.182C146.236 584.182 146.538 582.991 149.547 579.135C154.735 572.513 152.535 569.202 146.619 574.713C139.836 581.113 138.342 577.318 145.045 570.615C150.799 564.861 150.799 564.861 159.076 571.887C167.293 578.893 167.293 578.892 162.004 584.424C156.633 590.017 152.212 591.915 154.675 587.493ZM807.985 573.926L801.665 567.465L810.265 560.44C818.866 553.353 818.867 553.353 824.944 558.481C828.881 561.792 830.294 564.235 829.123 565.406C827.851 566.678 825.65 565.891 822.804 563.205C815.152 556.099 812.406 558.622 819.493 566.193C825.105 572.109 822.421 574.491 816.424 568.879C810.186 563.044 805.784 565.567 811.538 571.725C813.901 574.168 815.475 577.156 815.091 578.347C814.606 579.539 811.457 577.56 807.985 573.926ZM132.345 571.019C132.345 570.07 134.082 567.768 136.222 565.89C138.341 563.993 140.078 561.711 140.078 560.762C140.078 557.835 134.95 559.107 131.477 562.963C129.58 565.022 127.137 566.274 126.188 565.648C124.452 564.619 133.617 553.353 136.06 553.434C136.686 553.434 139.371 555.15 141.976 557.128C146.781 560.843 146.781 560.843 141.108 566.759C135.495 572.593 132.345 574.088 132.345 571.019ZM827.77 555.15C822.258 549.476 822.259 549.477 827.064 544.671C831.889 539.866 831.889 539.866 837.401 545.62C843.943 552.404 842.448 556.018 835.745 549.719C829.668 543.965 826.841 548.144 832.595 554.302C834.877 556.745 835.988 559.268 835.039 559.814C834.09 560.439 830.778 558.4 827.77 555.15ZM123.522 553.575C130.145 546.731 126.672 543.177 119.727 549.638C112.943 556.018 111.449 552.485 117.991 545.62C123.523 539.866 123.523 539.866 128.328 544.591C133.133 549.396 133.133 549.396 128.57 554.302C126.046 556.967 122.735 559.188 121.08 559.188C119.02 559.188 119.808 557.532 123.522 553.575ZM106.725 546.327C105.998 545.62 107.654 542.612 110.339 539.786C116.416 533.466 113.65 530.721 106.786 536.152C104.04 538.292 101.355 539.16 100.729 538.211C100.163 537.181 101.981 534.738 104.746 532.679C107.735 530.478 109.309 528.035 108.461 526.683C107.512 525.108 105.695 525.592 102.142 528.338C96.7717 532.517 93.158 533.386 94.2482 530.155C95.3586 526.925 106.321 520.767 108.38 522.281C109.39 522.988 112.641 526.218 115.548 529.449C120.838 535.283 120.838 535.283 114.438 541.522C110.985 544.914 107.512 547.034 106.725 546.327ZM840.631 542.39C834.251 537.02 834.251 537.02 838.43 531.73C842.529 526.46 842.529 526.46 848.989 531.649C856.803 537.807 855.935 541.684 848.04 536.071C841.116 531.104 837.481 534.9 844.103 540.169C846.466 542.148 848.121 544.591 847.737 545.701C847.414 546.791 844.184 545.297 840.631 542.39ZM851.13 527.551C845.598 522.988 845.598 522.988 854.824 511.238C864.919 498.377 866.03 497.913 873.055 503.263C879.032 507.927 876.75 510.753 870.37 506.493C863.264 501.85 861.688 506.574 868.471 512.187C874.71 517.234 870.753 518.889 864.293 513.983C856.48 508.068 854.743 513.055 862.475 519.111C865.16 521.171 866.816 523.694 866.191 524.724C865.625 525.673 862.88 524.805 860.194 522.665C853.411 517.295 849.938 520.141 856.399 525.673C865.403 533.466 860.518 535.203 851.13 527.551ZM88.1103 522.584C88.1103 521.555 88.7363 520.626 89.5237 520.626C92.754 520.464 98.0438 515.013 96.8526 513.115C95.9844 511.702 94.2479 511.944 91.4214 513.923C86.8384 517.073 82.3562 517.779 82.3562 515.175C82.3562 514.307 84.4762 512.57 87.1614 511.399C89.7659 510.208 91.9667 508.229 91.9667 507.058C91.9667 504.918 88.8979 505.241 81.8719 508.149C76.118 510.531 78.1771 505.867 84.7185 501.769C90.8561 497.832 90.8561 497.832 97.3369 506.816C103.717 515.881 103.717 515.881 98.3664 520.222C92.5922 524.724 88.1103 525.815 88.1103 522.584ZM428.645 514.933C428.645 512.893 430.624 509.885 432.986 508.391C437.246 505.706 439.689 504.918 450.248 502.556C454.427 501.607 455.618 500.275 455.618 496.096C455.699 490.644 461.373 482.205 465.007 482.205C468.54 482.205 467.369 487.818 463.351 490.342C460.827 491.836 459.879 494.036 460.586 496.641C461.918 502.153 456.648 506.271 444.252 509.098C437.085 510.834 433.612 512.651 432.986 515.175C431.714 519.899 428.645 519.758 428.645 514.933ZM478.635 517.234C478.635 516.366 479.745 514.549 481.098 513.196C482.976 511.238 482.43 509.885 478.17 506.493C471.629 501.224 471.467 496.721 477.706 492.623C480.371 490.887 482.511 487.737 482.511 485.678C482.511 480.954 487.073 482.124 488.022 487.091C488.426 489.312 486.69 492.3 483.379 494.905C478.089 499.165 478.089 499.164 483.136 505.241C487.235 510.127 487.861 512.106 486.286 515.013C484.408 518.647 478.635 520.303 478.635 517.234ZM523.515 515.175C522.344 513.196 516.107 510.208 509.484 508.31C496.624 504.757 494.261 501.93 497.734 494.279C499.308 490.806 499.389 488.686 497.955 487.253C495.29 484.568 495.432 482.205 498.359 482.205C499.692 482.205 501.913 483.942 503.245 486.082C505.224 489.231 505.062 490.725 502.619 494.581C498.985 500.033 500.257 501.062 515.783 505.241C524.222 507.523 528.644 511.46 528.644 516.669C528.644 519.899 525.958 519.112 523.515 515.175ZM403.651 514.145C403.651 508.472 411.06 502.798 423.921 498.619C434.157 495.308 437.872 493.087 439.85 489.231C443.161 482.528 446.392 482.609 444.817 489.393C442.838 497.509 440.779 499.084 428.968 501.688C421.236 503.424 416.189 505.948 411.606 510.451C404.358 517.618 403.651 517.941 403.651 514.145ZM545.845 511.319C542.372 507.362 536.76 504.454 527.069 501.527C519.498 499.245 513.259 496.399 513.259 495.066C513.259 493.794 512.715 490.725 512.008 488.121C510.433 482.286 514.693 484.426 517.055 490.725C518.307 493.956 521.396 495.53 529.674 497.428C541.727 500.113 552.629 508.149 551.518 513.6C550.953 516.447 550.024 516.043 545.845 511.319ZM369.975 502.092C352.773 500.82 316.412 495.53 304.44 492.542C282.655 487.091 276.518 476.774 290.873 469.91C304.44 463.51 332.423 458.786 332.423 462.965C332.423 463.995 332.12 464.863 331.716 464.863C331.332 464.863 323.761 466.276 314.999 467.932C298.666 471.021 288.188 475.119 288.188 478.349C288.188 485.678 324.549 493.733 373.367 497.186C383.683 497.973 392.365 499.407 392.607 500.497C393.072 502.556 384.955 503.102 369.975 502.092ZM563.814 500.981C564.298 499.407 571.223 498.054 583.7 497.105C608.775 495.227 640.392 490.564 654.202 486.708C678.732 479.843 671.867 473.605 631.166 465.811C624.382 464.459 622.565 461.067 628.642 461.067C635.426 461.067 659.552 466.761 665.245 469.668C690.401 482.69 659.956 495.773 591.191 501.365C562.078 503.828 562.865 503.828 563.814 500.981ZM72.7261 499.487C72.7261 498.458 73.3521 497.59 74.1395 497.509C77.3698 497.428 82.6591 491.916 81.4881 490.019C80.6199 488.686 78.3992 488.908 74.6238 490.887C71.3127 492.542 68.6274 493.007 68.0016 491.916C67.3555 490.887 70.2831 488.283 74.543 486.082C82.2756 482.205 82.2757 482.205 85.3445 488.121C87 491.432 88.1105 494.359 87.7874 494.662C86.4549 495.773 74.7853 501.446 73.7556 501.446C73.1903 501.446 72.7261 500.578 72.7261 499.487ZM874.226 498.539C872.268 497.045 869.745 495.53 868.634 495.147C867.443 494.743 868.089 491.997 870.209 488.444C873.762 482.448 873.762 482.448 881.171 486.223C885.27 488.363 888.117 490.887 887.471 491.916C886.764 493.007 884.078 492.542 880.767 490.887C876.992 488.908 874.791 488.686 873.923 490.019C872.732 491.916 878.103 497.428 881.253 497.509C882.04 497.59 882.665 498.458 882.665 499.487C882.665 502.233 878.486 501.769 874.226 498.539ZM348.837 487.737C332.039 485.597 324.771 482.771 324.771 478.268C324.771 474.877 337.248 468.961 339.529 471.323C341.427 473.14 338.035 476.451 334.24 476.451C327.779 476.451 330.222 479.762 337.712 481.256C341.73 482.044 363.03 483.699 385.036 484.891C407.103 486.082 424.466 487.656 423.679 488.444C421.7 490.402 365.715 489.857 348.837 487.737ZM532.499 487.959C532.499 486.95 536.619 486.001 541.666 485.92C559.958 485.759 614.449 482.448 620.526 481.115C627.068 479.763 627.309 476.451 620.909 476.451C618.87 476.451 617.215 475.119 617.215 473.544C617.215 469.91 619.738 469.91 626.906 473.605C638.979 479.843 630.459 485.133 603.95 487.879C578.329 490.483 532.499 490.564 532.499 487.959ZM883.614 482.367C880.464 480.711 877.538 479.137 877.154 478.894C876.124 478.269 881.01 466.821 882.281 466.821C886.299 466.821 896.152 471.868 896.152 473.928C896.152 476.997 895.687 476.996 889.448 474.17C885.673 472.434 884.018 472.434 882.201 474.17C880.465 475.906 881.413 476.997 886.137 478.814C889.529 480.086 892.296 481.741 892.296 482.528C892.296 485.355 889.206 485.355 883.614 482.367ZM63.0959 482.448C63.0959 481.499 65.7811 479.601 69.0114 478.268C73.0493 476.613 74.22 475.26 72.8875 473.928C71.5348 472.514 69.3343 472.595 65.9425 474.17C59.7039 476.996 59.2396 476.997 59.2396 473.928C59.2396 472.595 62.4697 470.294 66.346 468.88C72.6451 466.599 73.675 466.68 75.9565 469.829C79.8328 475.2 78.9648 479.056 73.2714 481.741C67.2145 484.487 63.0959 484.81 63.0959 482.448ZM357.437 468.719C357.437 462.339 358.144 460.986 361.293 460.986C364.282 460.986 365.15 462.339 365.15 466.821C365.15 469.991 366.018 472.595 367.048 472.595C368.158 472.595 369.026 469.123 369.026 464.863C369.026 458.543 369.652 457.211 372.721 457.211C375.729 457.211 376.597 458.786 377.223 465.327C377.849 472.434 378.01 472.03 378.253 462.501C378.636 452.083 378.959 451.457 383.3 451.457C387.721 451.457 388.105 452.244 388.731 462.501C389.377 472.353 389.438 471.949 389.761 458.624C390.164 445.138 390.548 443.724 394.021 443.724C397.493 443.724 397.877 444.976 397.877 457.049C397.877 464.378 398.745 470.94 399.775 471.646C401.047 472.353 401.672 466.195 401.672 454.445C401.672 437.345 401.996 435.992 405.529 435.992C409.163 435.992 409.405 437.344 409.405 454.283C409.405 465.165 410.192 472.595 411.302 472.595C412.473 472.595 413.261 463.591 413.261 449.478C413.261 427.714 413.503 426.382 417.057 426.382C420.751 426.382 420.913 427.714 420.913 449.64C420.913 463.046 421.7 472.353 422.649 471.727C423.679 471.081 424.062 458.402 423.679 442.775C422.972 415.964 423.053 414.854 426.748 414.854C430.382 414.854 430.543 416.206 430.543 443.724C430.543 461.713 431.25 472.595 432.502 472.595C433.693 472.595 434.399 458.786 434.399 435.043C434.399 398.843 434.48 397.511 438.256 397.511C441.971 397.511 442.132 398.924 442.435 435.527C442.758 473.544 442.758 473.544 444.11 424.484C444.817 397.511 445.524 369.992 445.685 363.35C445.907 354.124 446.634 351.378 448.835 351.378C451.358 351.378 451.681 359.413 451.681 411.946C451.681 451.053 452.388 472.595 453.639 472.595C454.911 472.595 455.538 443.099 455.538 388.042C455.538 333.793 456.244 303.105 457.516 302.318C458.526 301.692 459.394 298.603 459.394 295.615C459.394 292.546 460.262 289.457 461.292 288.831C462.402 288.205 463.271 285.116 463.271 281.967C463.271 278.898 464.138 276.374 465.147 276.374C466.258 276.374 467.127 273.305 467.127 269.591C467.127 265.876 467.914 262.888 469.024 262.888C470.054 262.888 470.922 260.687 470.922 258.002C470.922 255.316 472.254 252.631 473.829 252.005C475.404 251.46 476.677 249.24 476.677 247.261C476.677 245.303 477.544 243.647 478.635 243.647C479.664 243.647 480.532 245.303 480.532 247.261C480.532 249.24 481.885 251.46 483.46 252.005C485.035 252.631 486.286 255.316 486.286 258.002C486.286 260.687 487.154 262.888 488.265 262.888C489.294 262.888 490.162 265.876 490.162 269.591C490.162 273.305 491.03 276.374 492.121 276.374C493.15 276.374 494.018 279.362 494.018 283.077C494.018 286.792 494.887 289.78 495.917 289.78C497.028 289.78 497.895 292.768 497.895 296.402C497.895 300.036 498.763 303.266 499.934 303.65C501.348 304.135 501.913 330.159 501.832 388.446C501.671 444.976 502.216 472.595 503.568 472.595C504.901 472.595 505.526 452.244 505.526 411.946C505.526 362.179 506.011 351.378 508.131 351.378C512.008 351.378 513.178 367.388 513.663 424.242C514.047 472.515 514.128 472.736 514.693 435.527C515.238 399.166 515.399 397.511 519.094 397.511C522.728 397.511 522.89 398.924 522.89 435.204C522.89 459.735 523.516 472.434 524.788 471.646C525.959 470.94 526.746 459.109 526.746 442.614C526.746 416.994 526.988 414.854 530.218 414.854C533.53 414.854 533.772 417.074 534.095 443.018C534.237 458.543 534.801 471.646 535.346 472.191C535.891 472.737 536.376 462.642 536.376 449.801C536.376 427.714 536.538 426.382 540.152 426.382C543.786 426.382 544.028 427.714 544.028 449.478C544.028 463.591 544.815 472.595 545.905 472.595C547.096 472.595 547.884 465.165 547.884 454.283C547.884 437.344 548.127 435.992 551.761 435.992C555.294 435.992 555.535 437.345 555.535 454.445C555.535 466.195 556.242 472.353 557.514 471.646C558.524 470.94 559.392 464.378 559.392 456.888C559.392 445.138 559.796 443.482 562.784 444.047C565.469 444.593 566.337 447.439 567.205 459.109C568.315 473.14 568.316 473.221 568.7 462.501C568.942 452.79 569.486 451.457 572.878 451.457C576.189 451.457 576.755 452.709 576.755 460.926C576.755 466.114 577.623 470.94 578.653 471.646C579.824 472.353 580.531 469.749 580.531 465.024C580.531 458.463 581.177 457.211 584.407 457.211C587.638 457.211 588.263 458.463 588.263 464.863C588.263 469.123 589.131 472.595 590.161 472.595C591.271 472.595 592.14 469.991 592.14 466.821C592.14 462.339 593.007 460.986 595.914 460.986C599.145 460.986 599.771 462.339 599.771 468.719V476.451H357.437V468.719ZM486.367 455.475C486.367 441.201 485.742 437.647 482.511 433.872C478.635 429.289 478.634 429.289 474.859 433.872C471.629 437.647 471.003 441.201 471.003 455.475C471.003 472.595 471.003 472.595 478.635 472.595C486.367 472.595 486.367 472.595 486.367 455.475ZM480.612 394.664C480.612 391.979 479.745 389.859 478.635 389.859C477.625 389.859 476.757 391.979 476.757 394.664C476.757 397.269 477.625 399.489 478.635 399.489C479.745 399.489 480.612 397.269 480.612 394.664ZM480.612 368.721C480.612 365.49 479.745 362.886 478.635 362.886C477.625 362.886 476.757 365.49 476.757 368.721C476.757 371.87 477.625 374.475 478.635 374.475C479.745 374.475 480.612 371.87 480.612 368.721ZM480.612 341.748C480.612 338.598 479.745 335.994 478.635 335.994C477.625 335.994 476.757 338.598 476.757 341.748C476.757 344.897 477.625 347.501 478.635 347.501C479.745 347.501 480.612 344.897 480.612 341.748ZM470.599 306.82C469.731 295.292 465.229 294.666 465.229 306.033C465.229 312.735 465.955 314.855 468.237 314.855C470.518 314.855 471.063 313.038 470.599 306.82ZM482.107 301.853C481.643 291.839 480.936 288.831 478.635 288.831C476.434 288.831 475.646 291.839 475.182 301.853C474.697 313.906 474.94 314.775 478.635 314.775C482.43 314.775 482.672 313.906 482.107 301.853ZM492.121 306.174C492.121 301.369 491.253 297.512 490.244 297.512C489.133 297.512 488.265 301.369 488.265 306.174C488.265 310.918 489.133 314.775 490.244 314.775C491.253 314.775 492.121 310.918 492.121 306.174ZM892.296 465.489C888.581 463.914 885.269 462.258 884.805 461.854C883.856 460.926 888.581 449.478 889.994 449.478C893.951 449.478 903.884 454.526 903.884 456.585C903.884 458.402 902.613 458.543 898.918 457.13C892.215 454.606 890.398 454.768 890.398 457.918C890.398 459.412 892.518 461.148 895.203 461.854C897.807 462.5 900.029 464.297 900.029 465.892C900.029 467.467 899.785 468.638 899.543 468.557C899.22 468.497 895.991 467.063 892.296 465.489ZM55.3832 465.105C55.3832 464.156 57.9877 462.339 61.1372 461.067C68.6275 457.917 66.5685 454.768 58.1293 456.343C49.3873 457.998 49.6898 454.768 58.6136 451.537C64.9934 449.236 65.9426 449.317 68.224 452.487C72.484 458.321 71.313 462.42 64.7515 464.701C57.4227 467.225 55.3832 467.306 55.3832 465.105ZM165.073 452.406C165.073 450.427 166.97 449.478 170.827 449.478C174.703 449.478 176.6 450.427 176.6 452.406C176.6 454.284 174.703 455.232 170.827 455.232C166.97 455.232 165.073 454.284 165.073 452.406ZM186.211 452.406C186.211 449.882 197.335 449.478 274.701 449.478C352.148 449.478 363.272 449.882 363.272 452.406C363.272 454.93 352.148 455.232 274.701 455.232C197.335 455.232 186.211 454.93 186.211 452.406ZM593.553 454.061C592.847 453.355 592.765 452.083 593.31 451.134C593.856 450.266 634.094 449.478 682.669 449.478C759.954 449.478 771.078 449.882 771.078 452.406C771.078 454.93 760.035 455.232 682.911 455.232C634.396 455.232 594.178 454.687 593.472 454.061H593.553ZM779.194 453.032C780.224 450.023 790.077 449.478 790.783 452.406C791.106 453.415 788.421 454.607 784.867 454.93C780.143 455.394 778.649 454.849 779.194 453.032ZM48.7413 447.661C48.0346 446.571 48.822 445.218 50.4775 444.673C52.1331 444.108 54.8182 443.321 56.393 442.856C57.988 442.311 59.2396 440.494 59.2396 438.758C59.2396 437.021 58.2098 435.992 56.8773 436.537C47.893 439.929 45.3696 440.171 46.2176 437.728C47.328 434.336 58.8356 430.944 61.1372 433.306C62.0861 434.255 63.4189 437.345 64.0448 440.09C65.0744 444.27 64.61 445.299 60.8144 446.087C58.3715 446.632 54.9797 447.661 53.1626 448.368C51.4263 449.155 49.4681 448.853 48.7413 447.661ZM896.696 446.632C890.862 444.108 890.64 443.643 892.518 438.051C894.9 431.429 894.577 431.49 904.349 434.175C914.141 436.941 913.817 440.575 903.884 438.919C894.577 437.344 893.163 440.958 901.905 444.047C905.136 445.138 907.74 446.793 907.74 447.742C907.74 450.185 903.965 449.801 896.696 446.632ZM133.214 437.728C131.558 435.043 128.651 436.618 173.915 415.883C209.247 399.711 216.031 395.855 227.377 385.68C239.047 375.121 240.783 374.172 244.881 376.049C248.98 377.866 250.877 376.998 261.376 368.559C267.917 363.35 274.54 359.111 275.953 359.111C277.467 359.111 283.443 355.153 289.298 350.429C295.133 345.624 300.887 341.748 302.058 341.748C303.249 341.748 309.629 344.756 316.251 348.451C322.893 352.165 330.686 355.234 333.694 355.315C336.925 355.315 343.466 358.384 349.543 362.805L359.799 370.296L374.073 361.634L388.267 353.033L403.731 363.835C412.15 369.75 424.304 376.837 430.624 379.603C436.923 382.369 442.132 385.761 442.132 387.255C442.132 390.021 442.435 390.101 422.407 381.339C418.934 379.845 411.363 375.262 405.529 371.164C390.165 360.362 390.629 360.524 390.629 365.874C390.629 369.669 392.446 371.729 398.603 374.798C411.525 381.42 415.542 384.489 413.665 386.386C412.554 387.497 406.8 385.357 399.068 381.097C387.237 374.636 386.288 373.607 386.288 367.55C386.288 363.916 385.904 360.988 385.501 360.988C382.896 360.988 365.392 373.304 366.179 374.555C366.664 375.343 375.729 381.42 386.288 387.961C404.035 398.924 408.92 403.345 403.328 403.345C400.562 403.345 372.882 385.922 351.744 370.78C341.649 363.592 334.159 359.494 332.2 360.12C330.464 360.685 323.277 358 316.251 354.124C304.743 347.824 303.572 347.502 303.572 350.974C303.572 353.034 301.836 356.89 299.776 359.575C297.656 362.341 296.385 365.874 297.011 367.55C297.737 369.266 296.142 372.981 293.235 376.534C286.996 383.863 286.997 384.105 293.538 390.404C298.908 395.532 298.908 395.532 306.156 390.404C313.021 385.518 313.889 385.357 322.247 387.658C327.073 388.91 331.554 389.455 332.2 388.829C332.826 388.204 329.737 384.408 325.417 380.39C317.523 373.142 313.505 365.733 316.109 363.29C316.897 362.563 318.472 363.592 319.643 365.652C320.915 367.691 325.417 372.9 329.738 377.241C334.078 381.581 338.258 386.871 338.964 388.91C339.61 391.05 348.433 398.137 358.447 404.759C374.861 415.56 380.07 420.607 374.861 420.607C373.831 420.607 364.605 415.015 354.348 408.151C344.092 401.205 334.644 395.613 333.291 395.613C332.039 395.613 327.294 394.361 322.732 392.706C315.706 390.263 314.05 390.182 311.446 392.463C306.015 397.268 268.382 422.586 266.726 422.586C261.538 422.586 266.968 416.509 279.668 408.312C294.103 398.924 294.103 398.924 288.894 393.412C285.967 390.404 282.898 387.961 282.03 387.961C281.162 387.961 272.722 393.574 263.193 400.418C244.417 413.985 243.933 414.227 243.933 410.21C243.933 408.776 253.017 401.367 264.061 393.877C284.796 379.764 292.044 372.193 292.044 364.703C292.044 362.341 293.477 358.707 295.213 356.809C300.321 351.136 296.385 350.187 290.55 355.638C287.703 358.383 281.404 362.502 276.679 364.703C267.594 369.044 249.626 383.782 256.49 381.339C264.122 378.573 270.906 377.866 270.906 379.764C270.906 381.884 260.892 386.003 255.925 386.003C254.35 386.003 249.707 389.072 245.588 392.706C233.919 403.346 229.739 401.448 240.48 390.404C245.123 385.599 246.072 383.54 244.417 381.824C242.681 380.168 239.531 381.884 231.314 389.072C216.031 402.477 216.172 402.316 188.815 414.773C175.248 420.93 157.421 429.047 149.224 432.842C140.078 437.102 133.92 439 133.214 437.728ZM780.063 420.607C744.428 404.375 736.453 399.954 726.439 390.889C719.979 385.054 713.982 380.229 713.195 380.229C708.531 380.229 710.107 385.135 716.426 390.566C720.989 394.503 723.128 397.753 722.179 399.247C721.15 400.903 718.243 399.328 712.327 393.796C707.664 389.536 702.07 386.003 699.85 386.003C694.338 386.003 684.163 380.471 685.516 378.27C686.223 377.16 689.453 377.564 693.551 379.3C697.408 380.875 700.88 381.824 701.284 381.42C702.374 380.309 681.882 364.864 679.358 364.864C678.248 364.864 673.362 361.775 668.476 358C659.795 351.459 656.725 352.327 662.317 359.736C663.811 361.695 664.599 364.461 664.054 365.874C662.237 370.618 671.787 380.309 690.402 392.706C709.945 405.708 714.689 409.968 711.762 411.785C710.813 412.33 702.232 407.282 692.601 400.418C682.991 393.574 674.391 387.961 673.442 387.961C672.574 387.961 669.425 390.404 666.497 393.493C661.147 399.005 661.146 399.005 675.723 408.231C683.779 413.279 690.321 418.649 690.321 419.982C690.321 421.395 689.755 422.586 689.129 422.586C688.503 422.586 677.379 415.338 664.458 406.414L640.877 390.323L628.48 394.442C621.616 396.643 608.533 403.507 599.307 409.584C581.237 421.556 580.611 421.799 580.692 418.245C580.692 416.913 588.586 410.674 598.196 404.375C607.827 398.136 616.346 391.191 617.134 388.991C618.002 386.871 622.181 381.824 626.441 377.867C630.701 373.93 634.8 368.963 635.425 366.823C636.697 362.886 638.656 361.937 640.796 364.077C642.128 365.41 636.374 378.351 634.395 378.351C632.74 378.351 620.828 390.323 621.616 391.111C621.939 391.434 626.663 390.263 632.114 388.527C641.967 385.357 641.966 385.357 649.537 390.323C657.108 395.371 657.109 395.371 662.56 389.698C667.91 384.105 667.91 384.105 663.347 377.867C660.824 374.475 658.926 369.912 659.087 367.772C659.249 365.652 658.058 362.018 656.564 359.656C654.989 357.293 653.717 353.579 653.717 351.459C653.717 346.331 653.576 346.411 639.221 354.366C632.437 358.162 625.25 360.988 623.211 360.685C621.071 360.281 613.117 364.622 604.435 370.78C582.51 386.386 555.294 403.345 552.144 403.345C547.178 403.345 553.174 398.298 573.121 385.76C583.7 379.219 591.655 373.223 590.787 372.516C589.999 371.79 585.195 368.882 580.147 366.036C570.598 360.605 567.993 361.473 569.427 369.831C569.891 372.274 566.418 375.262 556.949 380.794C549.782 384.973 543.321 387.739 542.534 387.012C540.717 385.215 551.277 376.917 559.009 374.091C564.056 372.193 565.247 370.699 565.247 366.278C565.247 360.827 565.247 360.827 553.093 369.508C540.939 378.109 522.264 387.88 517.6 387.88C512.088 387.961 515.944 384.024 526.12 379.36C532.116 376.615 544.19 369.508 552.932 363.593L568.861 352.791L579.117 359.494C597.106 371.325 595.995 371.244 607.039 362.805C613.419 357.919 619.032 355.234 622.646 355.234C625.815 355.234 633.77 352.165 640.311 348.451C646.853 344.756 653.172 341.748 654.423 341.748C655.695 341.748 661.146 345.624 666.577 350.429C672.028 355.153 677.783 359.111 679.277 359.111C680.771 359.111 687.796 363.431 694.802 368.721C705.765 376.998 708.229 378.109 711.54 376.372C714.992 374.475 717.212 375.747 728.72 386.003C740.228 396.158 747.417 400.196 782.042 416.045C804.048 426.058 822.803 435.043 823.671 435.911C829.587 441.746 816.505 437.183 780.063 420.607ZM41.9774 428.34C41.9774 427.25 44.5617 425.816 47.7314 425.19C51.0425 424.484 53.4855 422.747 53.4855 421.173C53.4855 418.871 51.9915 418.568 46.7826 419.517C37.233 421.334 38.1817 417.458 47.8929 414.773C52.2134 413.682 56.0902 412.976 56.3123 413.279C57.988 415.096 59.2394 426.139 57.9069 426.927C53.9497 429.208 41.9774 430.319 41.9774 428.34ZM901.279 428.905C896.313 428.118 895.991 427.553 897.182 421.96C899.08 413.198 899.16 413.117 907.66 415.338C917.29 417.7 918.078 421.556 908.609 419.82C899.948 418.164 899.079 423.535 907.66 425.433C910.91 426.139 913.434 427.472 913.434 428.502C913.434 430.238 911.132 430.319 901.279 428.905ZM38.1013 409.584C38.1013 408.474 41.1096 407.06 44.7235 406.333C53.728 404.678 52.0721 399.954 42.8455 401.064C35.4966 401.932 33.6798 398.682 40.5442 396.885C49.9323 394.281 53.1624 395.371 54.515 401.528C55.2217 404.759 55.3835 407.928 54.7375 408.474C52.6983 410.513 38.1013 411.462 38.1013 409.584ZM904.429 409.644C900.734 408.938 900.33 407.989 901.279 402.719C901.905 399.328 902.694 396.319 903.017 395.936C904.268 394.361 919.269 398.056 919.269 399.873C919.269 401.145 916.584 401.448 912.485 400.822C903.804 399.409 902.936 404.759 911.537 406.495C914.686 407.121 917.29 408.393 917.29 409.342C917.29 411.078 912.161 411.159 904.429 409.644ZM36.2036 390.101C36.2036 389.071 38.5051 387.88 41.3317 387.577C49.468 386.629 49.3066 382.126 41.1702 382.126C32.6705 382.126 32.1048 379.219 40.2411 377.564C51.1232 375.424 51.8298 375.827 51.204 383.62C50.6386 390.404 50.2552 390.889 43.3908 391.434C39.4538 391.757 36.2036 391.111 36.2036 390.101ZM903.884 383.863C903.884 376.615 904.207 376.049 908.144 377.079C910.587 377.705 914.443 378.27 916.826 378.27C919.188 378.27 921.146 379.219 921.146 380.229C921.146 381.258 918.158 382.126 914.444 382.126C909.719 382.126 907.66 382.994 907.66 385.054C907.66 386.931 909.639 387.961 913.434 387.961C916.665 387.961 919.269 388.829 919.269 389.859C919.269 390.889 915.797 391.757 911.537 391.757C903.804 391.757 903.803 391.757 903.803 383.863H903.884ZM85.0216 376.13C87.0002 368.64 86.8383 368.176 81.4074 364.158C75.6534 360.039 75.6537 360.039 83.2853 359.111C89.9277 358.242 91.0986 357.293 92.6734 351.842C93.6223 348.37 95.0352 345.624 95.8427 345.624C96.5494 345.624 97.9627 348.37 98.9924 351.842C100.486 357.213 101.819 358.242 108.058 359.111C115.467 360.039 115.467 360.039 109.552 364.38C103.717 368.64 103.717 368.721 106.402 376.453C109.168 384.266 109.168 384.266 103.636 380.309C96.7718 375.423 94.8938 375.424 88.2717 380.168C82.9013 383.944 82.9017 383.944 85.0216 376.13ZM866.735 379.522C861.446 375.585 861.144 375.585 855.39 378.896C848.202 382.995 847.334 382.449 850.1 375.181C851.997 370.134 851.674 369.205 845.84 364.38L839.521 359.111H847.737C855.228 359.111 855.934 358.626 857.045 353.255C858.7 344.897 860.9 344.594 863.424 352.327C865.483 358.545 866.271 359.111 873.196 359.111C880.848 359.111 880.848 359.111 874.932 364.38C869.582 369.205 869.259 370.215 871.076 376.292C873.439 384.408 873.357 384.569 866.735 379.522ZM34.2449 370.618C34.2449 369.589 37.3137 368.721 41.0285 368.721C45.6721 368.721 47.7314 367.853 47.7314 365.813C47.7314 363.754 45.6721 362.886 41.0285 362.886C36.284 362.886 34.2449 362.018 34.2449 360.039C34.2449 358 36.2844 357.132 41.1702 357.132C49.8517 357.132 49.145 352.63 40.3828 351.762C32.6705 350.974 32.2665 347.501 39.8375 347.501C50.336 347.501 51.5071 348.935 51.5071 361.23C51.5071 372.516 51.5072 372.516 42.9065 372.516C38.1014 372.516 34.2449 371.648 34.2449 370.618ZM904.127 363.915C904.349 359.11 905.298 355.234 906.085 355.234C906.953 355.234 907.66 356.102 907.66 357.132C907.66 358.242 910.749 359.111 914.444 359.111C918.158 359.111 921.146 359.979 921.146 360.988C921.146 362.018 918.158 362.886 914.444 362.886C909.315 362.886 908.064 363.593 908.932 365.813C909.558 367.469 912.404 368.721 915.554 368.721C918.623 368.721 921.146 369.589 921.146 370.618C921.146 371.648 917.209 372.516 912.404 372.516C903.642 372.516 903.642 372.516 904.127 363.915ZM911.537 349.48C915.312 347.037 921.146 347.037 921.146 349.48C921.146 350.51 918.32 351.378 914.928 351.378C910.183 351.297 909.316 350.893 911.537 349.48ZM903.097 338.053C901.825 330.159 901.037 330.946 911.051 329.695C917.29 328.887 919.269 329.291 919.269 331.35C919.269 333.066 917.129 334.015 913.434 334.015C909.639 334.015 907.66 335.045 907.66 336.942C907.66 338.84 909.639 339.85 913.434 339.85C921.934 339.85 920.521 343.161 911.698 343.968C904.43 344.675 904.207 344.514 903.097 338.053ZM37.4753 342.373C34.4671 339.466 36.5264 337.649 41.7352 338.84C45.7529 339.709 47.57 339.224 48.3574 337.023C49.2256 334.883 48.3573 334.015 45.2885 334.015C42.9061 334.015 39.8374 333.227 38.3434 332.359C34.1642 329.694 39.1308 327.958 46.7019 329.371C53.5663 330.623 55.0605 333.551 52.2945 340.637C51.1235 343.726 40.0797 344.978 37.4753 342.373ZM44.9656 324.708C36.2842 322.83 35.9815 318.085 44.6428 319.741C50.0939 320.771 51.5878 320.387 51.5878 318.166C51.5878 316.511 49.1448 314.774 45.8337 314.149C42.6034 313.523 40.0797 312.029 40.0797 310.837C40.0797 309.343 42.3613 309.02 47.2472 309.969C56.7967 311.786 56.7159 311.625 55.8477 319.519C54.9796 326.525 54.5959 326.767 45.0463 324.708H44.9656ZM901.118 324.163C899.159 317.783 898.514 312.877 899.706 312.877C900.412 312.816 904.207 312.029 908.144 311.161C913.737 309.808 915.392 310.05 915.392 312.029C915.392 313.442 913.11 314.855 910.264 315.178C907.437 315.481 904.671 316.995 904.207 318.409C903.561 320.448 905.076 320.851 910.345 320.226C915.17 319.66 917.29 320.225 917.29 321.962C917.29 323.294 915.796 324.485 913.979 324.485C912.081 324.485 908.609 325.031 906.247 325.657C903.481 326.363 901.683 325.899 901.118 324.163ZM769.585 318.328C766.031 314.694 766.737 311.706 772.572 306.82C775.418 304.377 777.862 300.985 777.862 299.41C777.862 297.815 779.033 296.806 780.467 297.109C781.88 297.432 784.161 296.725 785.514 295.615C787.25 294.201 788.583 294.363 790.157 296.321C791.732 298.219 791.813 299.471 790.4 300.339C789.29 300.985 788.34 303.347 788.34 305.467C788.34 308.314 787.472 309.021 784.867 308.152C780.93 306.981 774.389 312.816 775.338 316.753C776.125 320.064 772.33 321.094 769.585 318.328ZM176.742 307.042C168.707 299.713 166.809 296.947 168.464 295.211C170.201 293.495 171.614 293.717 174.299 296.16C179.831 301.207 181.002 300.117 179.669 291.032C178.72 284.733 179.124 282.128 181.325 280.23C183.849 278.191 184.313 278.494 184.313 282.37C184.394 293.252 186.211 295.453 196.144 296.806C208.137 298.381 207.43 302.318 195.195 302.156C185.747 302.075 184.313 303.731 189.28 309.263C192.127 312.412 191.662 316.834 188.492 316.672C187.786 316.592 182.496 312.251 176.742 307.042ZM921.227 300.904C909.013 252.167 878.89 201.128 839.299 161.86C822.34 145.062 786.605 115.888 776.833 110.922C771.382 108.075 764.536 101.453 765.788 100.181C767.201 98.7679 799.707 121.4 818.948 137.249C854.986 166.907 882.745 201.915 903.803 244.596C919.107 275.425 930.615 310.999 925.326 310.999C924.538 310.999 922.661 306.416 921.227 300.904ZM897.343 307.365C896.94 306.739 895.99 303.428 895.283 300.117C894.112 294.423 894.335 294.04 900.816 292.849C909.962 291.113 910.345 291.112 911.132 293.333C911.455 294.363 909.094 295.776 905.863 296.483C902.613 297.189 900.029 299.007 900.029 300.501C900.029 303.731 901.825 303.973 908.527 301.369C912.323 299.956 913.434 300.117 913.434 302.156C913.434 304.761 898.595 309.646 897.343 307.365ZM47.8929 305.467C45.2884 304.68 42.8457 303.105 42.4419 301.772C41.493 298.926 43.855 298.764 50.3358 301.207C53.869 302.641 55.3833 302.399 56.0899 300.42C56.7965 298.603 54.8179 296.947 50.3358 295.453C41.1698 292.465 44.7234 289.235 54.0308 292.061C61.3595 294.363 61.9248 295.372 59.9463 302.782C58.7753 307.203 56.1705 307.769 47.8929 305.467ZM753.008 299.713C752.463 298.845 755.532 294.747 759.792 290.567C766.899 283.622 767.687 283.319 769.968 286.469C771.381 288.286 773.521 289.78 774.854 289.78C776.126 289.78 776.833 290.89 776.368 292.223C775.884 293.555 773.118 294.363 769.806 294.04C766.031 293.717 762.941 294.827 760.579 297.432C756.804 301.611 754.583 302.318 753.008 299.713ZM200.888 287.579C197.012 282.048 196.931 278.353 200.808 272.902C204.361 267.854 213.426 267.148 217.121 271.65C219.18 274.093 218.635 275.506 214.052 280.23C210.115 284.41 209.469 285.984 211.609 285.984C213.265 285.984 215.95 284.026 217.525 281.664C221.542 275.668 224.389 279.14 220.755 285.601C216.737 292.768 205.29 293.879 200.888 287.579ZM210.337 274.799C208.541 272.982 203.554 276.374 203.554 279.443C203.554 282.451 203.877 282.371 207.43 279.221C209.55 277.323 210.903 275.344 210.337 274.88V274.799ZM53.9501 287.418C50.5582 286.307 47.7314 284.107 47.7314 282.592C47.7314 281.018 48.8218 280.149 50.0937 280.715C57.9878 283.622 60.9756 283.945 62.1668 282.128C62.9542 280.876 60.9759 279.06 57.5033 277.707C48.6805 274.396 49.5486 270.297 58.5328 273.063C66.649 275.587 67.8402 277.626 65.155 284.652C63.0352 290.325 63.0353 290.325 53.9501 287.418ZM739.139 288.367C734.173 285.056 732.355 278.353 734.959 272.902C740.087 262.1 757.672 266.603 757.672 278.656C757.672 286.307 745.519 292.627 739.139 288.367ZM749.94 281.179C753.089 277.323 750.97 272.498 746.084 272.498C741.743 272.498 739.301 276.697 741.037 281.179C742.45 284.813 746.871 284.894 749.94 281.179ZM890.721 284.894C887.471 277.787 887.713 277.242 895.607 274.799C904.349 272.114 908.467 275.022 900.169 277.949C891.73 280.876 892.376 284.813 900.956 283.238C909.396 281.664 909.881 284.813 901.603 287.721C893.467 290.567 893.245 290.486 890.721 284.894ZM227.296 271.327C225.479 268.642 221.946 265.573 219.342 264.624C216.576 263.513 215.082 261.777 215.708 260.203C216.253 258.789 215.788 256.649 214.759 255.639C213.426 254.287 213.507 252.389 214.92 249.866C217.525 244.818 222.168 243.163 223.521 246.635C224.147 248.129 223.743 249.401 222.733 249.401C221.704 249.401 220.916 250.35 220.916 251.46C220.916 252.55 222.41 253.176 224.227 252.874C226.67 252.47 227.619 253.661 227.7 257.517C227.781 260.364 229.82 264.866 232.263 267.451C234.706 270.055 236.139 273.144 235.432 274.234C233.373 277.626 230.85 276.697 227.296 271.327ZM61.6825 269.429C55.9285 266.905 52.375 261.313 57.8261 263.352C70.2023 268.016 75.2499 265.169 63.9641 259.819C59.7041 257.759 57.8265 255.862 58.9167 254.771C60.1079 253.58 62.9544 254.045 66.7299 256.023C72.1003 258.789 72.7261 258.789 72.7261 256.185C72.7261 254.529 70.606 252.167 67.9209 250.976C63.035 248.775 61.4402 245.545 65.155 245.545C69.3343 245.545 78.803 251.682 77.9349 253.903C72.0194 268.641 70.2025 272.437 69.1728 272.356C68.4662 272.276 65.0743 270.923 61.6825 269.429ZM704.271 270.923C702.535 269.833 704.272 266.037 710.813 256.972C715.719 250.188 720.121 244.192 720.525 243.647C720.989 243.082 722.422 244.031 723.593 245.686C724.865 247.423 727.853 249.785 730.215 251.057C735.989 254.125 735.989 263.271 730.295 268.561C724.864 273.608 720.121 273.528 716.426 268.319C713.499 264.14 713.498 264.14 710.106 268.319C707.986 270.923 705.704 271.872 704.271 270.923ZM727.772 259.031C727.772 252.954 722.099 251.602 719.191 257.053C716.506 262.1 718.323 265.169 723.673 264.462C726.681 263.998 727.772 262.484 727.772 259.031ZM881.716 262.968C879.111 257.679 876.911 252.955 876.911 252.389C876.911 251.521 889.691 245.545 891.589 245.545C894.496 245.545 891.346 249.865 887.329 251.379C882.362 253.257 881.797 258.709 886.763 257.356C888.197 256.972 890.942 256.185 892.759 255.7C898.433 254.045 896.555 258.386 890.478 260.909C887.006 262.343 885.27 264.22 885.896 265.876C886.764 268.177 887.874 268.097 893.385 265.795C897.1 264.301 900.331 263.836 900.956 264.866C901.825 266.199 890.56 272.498 887.249 272.498C886.845 272.498 884.401 268.177 881.716 262.968ZM235.493 253.984C227.377 242.698 225.883 237.893 230.446 237.893C231.96 237.893 249.706 261.474 249.706 263.514C249.706 263.998 248.515 264.866 247.102 265.411C245.446 266.037 241.106 261.777 235.493 253.984ZM251.443 252.874C249.545 249.24 249.929 248.129 254.269 244.354C257.035 241.911 259.317 239.468 259.317 238.903C259.317 236.702 253.967 238.035 251.584 240.801C249.787 243.021 248.596 243.243 247.021 241.669C245.527 240.094 246.153 238.519 249.464 235.834C256.712 229.918 262.002 231.029 267.837 239.852C272.884 247.584 273.045 251.299 268.079 251.299C266.726 251.299 264.445 252.632 263.193 254.206C259.72 258.386 254.027 257.759 251.443 252.874ZM262.547 248.372C263.193 246.716 263.193 244.899 262.466 244.273C260.811 242.537 255.299 247.584 256.551 249.643C258.207 252.308 261.295 251.602 262.547 248.372ZM693.147 252.954C691.653 249.078 701.122 234.017 704.978 234.017C706.412 234.017 707.582 234.804 707.582 235.672C707.582 236.621 709.399 237.893 711.62 238.438C716.668 239.771 714.608 243.647 708.935 243.647C706.492 243.647 702.536 246.252 699.548 249.866C695.288 255.075 694.177 255.64 693.147 252.954ZM74.0588 243.324C70.1218 241.285 67.3555 238.842 68.0016 237.812C68.6274 236.702 71.3127 237.106 74.6238 238.842C78.8837 240.962 80.5396 241.123 81.6298 239.387C82.4172 238.115 82.1142 236.864 81.0038 236.46C77.0669 235.127 71.777 230.463 72.9682 229.292C74.22 228.02 88.1103 234.017 88.1103 235.834C88.1103 236.379 86.5961 239.226 84.7185 241.991C81.4074 247.12 81.4077 247.12 74.1395 243.324H74.0588ZM681.558 245.464C679.902 242.698 688.665 226.284 691.734 226.284C695.368 226.284 694.661 229.918 689.29 239.145C684.001 248.129 683.456 248.533 681.558 245.464ZM868.714 238.761C865.787 233.936 863.425 229.373 863.505 228.666C863.505 227.879 866.494 225.356 870.209 222.893C875.66 219.44 876.911 219.198 876.911 221.56C876.911 223.135 874.792 225.416 872.268 226.607C869.583 227.798 868.008 229.838 868.553 231.332C869.421 233.472 870.612 233.391 875.336 230.948C878.486 229.292 881.636 228.505 882.363 229.212C883.614 230.463 878.567 234.966 874.226 236.621C872.651 237.166 872.731 238.035 874.306 239.69C875.881 241.427 877.456 241.507 880.384 239.932C885.027 237.489 888.419 237.247 888.419 239.468C888.419 240.639 876.507 247.503 874.388 247.503C874.145 247.503 871.621 243.566 868.714 238.761ZM273.914 233.31C265.777 226.224 264.929 224.871 267.998 223.7C270.441 222.751 273.207 223.922 276.902 227.475C282.272 232.604 282.272 232.603 281.868 224.406C281.243 211.707 285.745 212.414 287.319 225.194C288.652 235.834 287.784 241.749 284.876 241.669C284.089 241.669 279.122 237.893 273.914 233.31ZM670.434 240.417C669.728 239.69 669.101 237.57 669.101 235.672C669.101 230.787 659.552 226.143 655.232 228.889C653.011 230.403 651.274 230.403 649.942 229.131C647.095 226.224 669.969 206.499 674.552 207.912C677.54 208.861 677.782 210.516 676.511 222.973C675.804 230.625 675.098 237.974 675.017 239.306C674.936 241.911 672.494 242.456 670.434 240.417ZM671.08 219.278C671.08 214.312 670.919 214.312 667.285 217.623C663.186 221.237 663.671 224.406 668.315 224.406C669.97 224.406 671.08 222.428 671.08 219.278ZM476.757 232.119C476.757 229.919 475.484 228.263 473.829 228.263C472.254 228.263 471.003 227.475 471.003 226.527C471.003 225.578 472.254 224.326 473.829 223.7C475.404 223.054 476.757 221.237 476.757 219.662C476.757 218.007 477.625 216.674 478.635 216.674C479.745 216.674 480.612 218.41 480.612 220.53C480.612 222.67 481.885 224.406 483.46 224.406C485.035 224.406 486.367 225.275 486.367 226.284C486.367 227.395 485.035 228.263 483.46 228.263C481.885 228.263 480.612 229.919 480.612 232.119C480.612 234.179 479.745 235.915 478.635 235.915C477.625 235.915 476.757 234.179 476.757 232.119ZM83.7696 227.556C79.8327 225.275 76.5824 222.751 76.5824 221.963C76.5824 219.581 81.2458 220.369 85.6673 223.458C92.0472 227.94 93.7839 222.832 87.4646 218.168C80.7617 213.282 82.7402 210.213 89.9883 214.392C97.7208 218.794 99.8607 215.644 92.8348 210.052C89.766 207.528 87.7068 204.924 88.4134 204.217C89.6854 203.026 103.475 210.92 103.475 212.879C103.475 213.363 100.648 217.845 97.1754 222.751C90.8561 231.574 90.8561 231.574 83.7696 227.556ZM297.253 222.973C292.528 213.363 290.55 199.392 293.942 199.392C295.052 199.392 295.92 201.128 295.92 203.268C295.92 205.388 298.444 212.252 301.593 218.41C306.883 228.889 307.267 232.058 303.33 232.058C302.461 232.058 299.696 227.94 297.253 222.973ZM307.751 212.01C300.725 195.213 300.725 195.536 304.743 195.536C306.479 195.536 309.003 198.847 310.82 203.43C313.889 211.223 313.889 211.223 316.978 205.004C319.885 198.927 326.588 193.961 324.306 199.634C323.681 201.048 322.651 203.733 321.944 205.469C320.995 207.75 322.651 210.052 327.86 213.605C333.694 217.542 334.482 218.713 331.797 219.743C330.06 220.369 326.426 219.582 323.761 217.845C318.936 214.615 318.553 214.857 318.23 221.318C317.765 229.535 313.505 225.659 307.751 212.01ZM693.087 222.267C692.36 221.176 692.521 219.44 693.47 218.572C695.752 216.27 700.718 219.581 699.062 222.267C697.407 224.952 694.742 225.033 693.087 222.267ZM855.692 218.168C850.967 211.788 851.433 210.758 861.85 205.004C867.281 201.996 867.684 206.418 862.314 209.971C858.922 212.091 857.913 213.827 859.245 215.18C860.517 216.432 862.717 216.048 865.948 213.908C869.017 211.93 871.238 211.465 872.025 212.656C872.651 213.746 871.461 215.483 869.422 216.593C867.362 217.704 864.455 219.824 862.961 221.398C860.518 223.761 859.569 223.377 855.773 218.168H855.692ZM624.866 219.985C624.866 217.623 635.042 192.467 636.536 190.811C637.707 189.701 638.979 189.701 640.15 190.811C642.835 193.557 632.357 219.44 628.177 220.227C626.36 220.53 624.866 220.449 624.866 219.985ZM614.287 214.776C613.661 213.747 611.138 212.879 608.695 212.879C602.78 212.879 599.226 208.396 600.881 203.107C601.992 199.473 603.243 199.089 609.724 199.957C618.466 201.128 619.9 197.898 611.46 196.242C605.383 194.991 603.808 192.305 608.21 190.569C611.844 189.216 620.91 193.012 622.262 196.485C623.514 199.796 619.031 216.674 616.891 216.674C616.104 216.674 614.913 215.806 614.287 214.776ZM614.206 207.205C614.771 206.256 614.368 204.843 613.257 204.136C610.431 202.4 605.142 204.682 606.555 207.044C608.069 209.487 612.712 209.567 614.206 207.205ZM348.917 202.703C343.951 185.199 343.547 182.514 345.829 181.1C348.998 179.203 349.382 179.929 353.642 195.213C358.225 211.627 358.063 210.274 354.591 211.627C352.451 212.414 351.037 210.133 348.917 202.703ZM726.439 210.132C722.502 208.699 712.791 203.511 704.837 198.524C688.423 188.369 688.665 190.73 701.445 170.622C725.955 131.979 733.062 122.188 735.667 123.217C739.684 124.711 761.61 139.611 766.9 144.355C779.356 155.48 781.96 172.984 773.763 189.459C764.214 208.619 745.357 216.916 726.439 210.132ZM747.659 192.467C755.371 187.884 759.954 180.636 760.983 171.167C761.932 162.97 761.609 162.264 752.059 153.098C746.709 147.909 741.581 143.649 740.794 143.729C740.007 143.729 733.526 153.037 726.521 164.303L713.741 184.896L721.715 190.246C730.78 196.242 740.007 197.03 747.659 192.467ZM740.168 131.737C740.229 131.111 738.108 130.627 735.504 130.788C729.831 131.111 729.286 133.473 734.01 137.027C737.241 139.389 739.522 137.41 740.168 131.737ZM213.184 177.789C202.06 159.659 192.671 144.194 192.368 143.487C191.5 141.347 205.855 133.635 207.43 135.29C208.217 136.158 217.989 151.523 229.194 169.512L249.464 202.077L242.923 206.499C239.369 208.941 235.736 210.92 234.867 210.839C234.08 210.839 224.228 195.94 213.184 177.789ZM100.164 204.762C90.715 198.059 92.7539 194.123 102.384 200.422C108.845 204.682 110.501 200.664 104.262 195.778C101.597 193.638 99.9413 190.892 100.648 189.701C101.516 188.288 103.474 188.994 106.644 191.902C109.874 194.991 111.833 195.616 113.266 194.203C114.68 192.77 113.812 191.033 110.258 188.288C106.947 185.683 105.998 183.866 107.512 182.917C108.683 182.211 112.075 184.028 115.164 187.097C120.595 192.608 120.595 192.608 113.508 200.906C106.402 209.103 106.402 209.103 100.164 204.762ZM284.311 206.095C284.311 204.52 285.179 203.268 286.29 203.268C287.319 203.268 288.188 204.52 288.188 206.095C288.188 207.69 287.319 209.022 286.29 209.022C285.179 209.022 284.311 207.69 284.311 206.095ZM587.88 207.912C587.234 207.286 587.476 204.056 588.506 200.664C591.03 191.74 590.625 189.782 586.445 189.782C583.7 189.782 582.105 191.821 580.611 197.433C579.278 202.319 577.381 205.166 575.483 205.166C573.283 205.166 572.818 203.975 573.666 200.825C574.312 198.463 575.403 193.255 576.049 189.297C577.381 181.424 578.087 181.1 588.808 184.108C595.289 185.905 595.996 186.693 595.996 192.608C595.996 203.571 591.655 211.708 587.88 207.912ZM841.823 199.553L834.958 190.408L841.498 185.199C848.746 179.364 850.422 182.211 843.861 189.156C838.187 195.213 840.712 196.868 847.819 191.821C854.905 186.774 857.67 189.943 850.806 195.294C843.941 200.745 846.627 204.439 853.734 199.392C863.747 192.306 864.919 196.323 855.067 203.813C848.687 208.699 848.687 208.699 841.823 199.553ZM364.524 204.439C363.979 203.026 362.949 197.736 362.162 192.77C360.97 184.573 361.213 183.705 364.443 184.108C366.422 184.411 369.571 183.947 371.388 183.159C378.414 180.07 383.139 185.603 384.713 198.524C385.198 202.643 384.471 204.298 381.947 204.762C379.666 205.227 378.636 204.217 378.636 201.613C378.636 194.203 375.103 187.803 371.772 189.156C369.248 190.084 368.864 191.983 369.894 198.685C370.924 205.308 370.601 207.044 368.4 207.044C366.805 207.044 365.15 205.873 364.524 204.439ZM394.182 197.737C392.991 195.617 392.123 191.679 392.123 188.914C392.123 186.228 391.254 184.028 390.245 184.028C389.215 184.028 388.59 181.423 388.812 178.274C389.054 174.155 390.245 172.419 392.607 172.419C394.424 172.419 395.918 173.772 395.918 175.346C395.918 176.921 397.251 178.193 398.826 178.193C400.401 178.193 401.672 179.061 401.672 180.152C401.672 181.181 400.804 182.049 399.694 182.049C398.523 182.049 397.877 184.815 398.2 188.368C398.604 192.305 399.855 194.587 401.753 194.587C406.255 194.587 405.064 200.26 400.401 200.987C397.736 201.29 395.434 200.119 394.182 197.737ZM549.237 197.817C545.442 193.719 544.977 183.866 548.288 180.555C554.668 174.155 569.104 180.313 569.104 189.459C569.104 199.251 555.617 204.843 549.156 197.817H549.237ZM561.047 192.144C561.996 190.327 562.401 187.722 561.916 186.39C560.745 183.079 553.8 183.382 552.467 186.854C549.701 194.123 557.595 198.928 561.047 192.144ZM410.273 192.77C405.145 184.896 410.031 174.317 418.793 174.397C424.93 174.478 427.373 175.972 430.22 181.343C432.905 186.471 431.553 187.803 423.679 187.803C420.206 187.803 416.734 188.833 415.946 190.085C414.997 191.68 416.814 191.902 422.568 190.953C430.685 189.701 432.421 190.953 428.242 195.132C424.063 199.311 413.665 197.979 410.273 192.77ZM424.769 182.211C424.769 179.99 420.751 178.496 417.602 179.687C413.423 181.181 414.997 184.028 419.964 184.028C422.649 184.028 424.769 183.24 424.769 182.211ZM531.632 190.246C533.853 176.376 534.56 174.397 537.406 174.397C539.607 174.397 539.929 176.295 539.061 183.543C537.628 195.94 537.002 197.433 533.448 197.433C531.086 197.433 530.703 196 531.632 190.246ZM438.256 188.368C438.256 184.33 437.71 179.203 437.085 176.921C436.055 173.065 436.6 172.661 443.868 172.823C452.227 172.903 454.912 176.921 447.886 178.819C444.817 179.606 444.03 181.423 444.03 187.642C444.03 193.416 443.242 195.536 441.183 195.536C439.124 195.536 438.256 193.416 438.256 188.368ZM515.399 192.851C514.127 191.276 513.663 187.965 514.45 185.118C515.157 182.049 514.693 178.9 513.179 177.083C511.523 175.104 511.381 173.61 512.633 172.823C513.663 172.035 515.076 169.976 515.783 168.179C517.216 164.222 522.022 165.494 523.678 170.137C524.303 171.955 525.333 174.478 525.959 175.811C526.584 177.244 525.797 178.193 524.061 178.193C521.941 178.193 520.991 179.99 520.991 184.028C520.991 187.177 521.861 189.782 522.89 189.782C524.001 189.782 524.868 191.034 524.868 192.608C524.868 196.323 518.307 196.404 515.399 192.851ZM457.516 182.372C457.516 171.086 457.516 171.086 465.713 171.006C470.195 171.006 474.94 171.874 476.272 172.903C479.906 175.811 479.442 193.638 475.808 193.638C473.749 193.638 472.961 191.518 472.961 185.986C472.961 177.547 470.357 174.721 465.956 178.415C463.897 180.152 463.27 182.917 463.977 187.258C464.845 192.608 464.441 193.638 461.292 193.638C457.981 193.638 457.576 192.224 457.576 182.372H457.516ZM485.337 189.62C483.681 184.25 487.639 180.152 494.422 180.152C497.895 180.152 499.632 179.364 498.824 178.112C498.117 177.002 495.372 176.376 492.606 176.679C486.368 177.406 484.712 173.368 490.627 171.793C501.045 168.967 505.608 172.984 505.608 184.815C505.608 193.093 505.607 193.093 496.159 193.335C488.184 193.476 486.447 192.931 485.337 189.62ZM499.39 186.39C499.854 184.977 498.521 184.028 496.3 184.028C492.061 184.028 489.537 186.552 491.657 188.591C493.555 190.569 498.441 189.156 499.39 186.39ZM118.152 183.785C115.386 181.645 113.105 178.657 113.105 177.163C113.105 173.287 115.003 173.691 120.05 178.415C126.672 184.573 129.983 180.858 123.745 174.397C120.918 171.409 119.404 168.563 120.353 167.937C121.302 167.311 124.775 169.592 128.005 172.984C133.84 179.202 133.839 179.203 128.57 183.463C123.199 187.803 123.2 187.803 118.152 183.785ZM826.902 183.079C822.339 178.193 822.339 178.193 827.77 172.5C830.778 169.35 834.09 167.311 835.039 167.937C835.988 168.482 834.877 171.006 832.595 173.449C826.841 179.606 829.668 183.785 835.745 178.031C842.609 171.631 844.022 175.508 837.238 182.211C831.484 187.965 831.485 187.965 826.902 183.079ZM271.39 173.287C249.706 162.486 241.268 133.554 254.189 114.455C262.789 101.918 271.774 96.6481 286.128 95.8406C295.597 95.2954 300.806 95.9209 305.227 98.2225C312.395 101.917 312.475 102.564 306.721 109.569C302.381 114.859 301.977 115.02 294.184 112.658C284.634 109.811 275.165 113.203 269.815 121.4C264.525 129.456 266.807 146.173 274.156 153.501C287.4 166.826 306.095 161.698 312.011 143.245C312.798 140.641 314.535 140.176 320.369 141.125C329.596 142.538 329.192 141.993 326.911 150.271C320.45 173.771 294.184 184.654 271.39 173.287ZM658.139 175.185C651.597 172.358 652.546 174.559 640.008 131.576C637.626 123.379 635.183 116.676 634.557 116.676C633.608 116.676 629.348 127.558 618.87 156.651C617.295 160.83 617.053 160.911 610.107 158.003C606.17 156.348 602.618 154.693 602.234 154.289C601.508 153.582 620.121 100.747 626.037 86.6947C629.126 79.2044 629.046 79.2852 637.788 82.4347C644.814 84.9584 643.541 81.8893 655.372 124.327C658.542 135.432 661.53 143.245 662.156 141.67C662.802 140.096 666.416 129.678 670.293 118.554C674.149 107.45 677.541 98.142 677.864 97.7383C678.873 96.5673 694.096 101.918 694.096 103.412C694.096 104.28 690.704 114.314 686.525 125.741C682.427 137.168 676.592 153.34 673.604 161.698C670.595 170.057 667.284 177.163 666.254 177.405C665.164 177.708 661.531 176.679 658.139 175.185ZM130.771 169.895C123.442 162.102 125.885 157.761 133.536 164.929C139.593 170.622 143.632 167.695 137.938 161.698C132.184 155.561 134.869 153.259 141.027 159.013C146.781 164.384 147.023 166.907 142.279 171.167C137.635 175.427 135.737 175.185 130.771 169.895ZM810.044 167.149C801.826 159.962 801.826 159.962 806.793 153.663C809.559 150.19 812.628 147.909 813.577 148.535C814.606 149.161 813.658 151.846 811.538 154.531C806.41 161.072 808.772 164.303 814.607 158.791C819.896 153.824 823.288 155.318 818.544 160.608C815.313 164.141 814.283 168.563 816.666 168.563C817.372 168.563 819.978 166.746 822.42 164.464C829.123 158.145 830.455 162.102 823.914 168.643C818.241 174.317 818.24 174.317 810.044 167.149ZM535.75 171.167C533.368 168.805 534.397 164.787 537.325 164.787C538.98 164.787 540.232 166.443 540.232 168.643C540.232 172.419 538.193 173.61 535.75 171.167ZM144.802 156.974C140.946 152.956 139.917 150.655 141.33 149.241C142.844 147.747 144.58 148.696 147.407 152.23C149.628 155.076 152.373 156.812 153.564 156.025C155.058 155.157 154.352 153.259 151.505 150.271C149.224 147.828 147.972 144.82 148.679 143.649C149.547 142.296 151.425 143.326 153.948 146.556C156.634 150.029 158.451 150.978 159.864 149.564C161.297 148.131 160.813 146.314 158.37 143.649C153.242 137.955 156.472 136.3 162.165 141.67C168.383 147.424 168.222 148.535 160.974 154.753C151.364 162.97 150.637 163.051 144.802 156.974ZM793.004 152.23C787.472 147.748 787.472 147.747 793.004 141.912C796.073 138.682 799.384 136.542 800.413 137.088C801.362 137.734 800.251 140.338 797.808 142.861C794.659 146.253 794.034 148.05 795.609 149.564C797.103 151.139 798.596 150.352 800.958 146.718C802.775 143.952 804.997 141.67 805.925 141.67C809.014 141.67 807.742 145.769 803.099 151.301C798.596 156.651 798.596 156.651 793.004 152.23ZM347.1 116.595C343.002 95.4567 339.993 77.7101 340.559 77.165C341.811 75.8123 396.786 64.9304 397.655 65.7985C398.038 66.2023 398.442 69.7555 398.603 73.6117C398.825 80.7789 398.826 80.7788 379.585 84.8167C360.345 88.7536 360.345 88.7539 361.051 94.5079C362.162 104.522 362.788 104.764 381.402 101.049C390.952 99.1717 398.826 97.7381 398.987 97.9804C399.149 98.2227 399.855 101.534 400.562 105.309C401.834 112.335 401.834 112.335 384.471 115.727C367.048 119.038 367.047 119.038 367.128 125.115C367.128 135.916 368.541 136.462 385.985 133.15C394.565 131.576 403.732 129.678 406.316 129.052C410.576 127.941 411.222 128.588 412.393 134.806C413.1 138.682 413.18 142.377 412.635 142.942C411.686 143.952 380.857 150.514 361.374 153.885C354.591 155.076 354.591 155.076 347.1 116.595ZM568.78 148.05C566.741 147.505 565.247 144.275 564.379 138.985C563.188 130.708 563.188 130.707 546.714 128.345C537.628 127.073 529.977 126.367 529.835 126.69C529.674 126.993 527.775 130.546 525.716 134.645C522.102 141.751 521.698 141.993 513.663 141.125C509.161 140.56 504.981 139.772 504.517 139.308C504.033 138.824 511.685 124.469 521.477 107.53C531.248 90.4899 540.717 73.935 542.534 70.6037C545.279 65.6371 546.935 64.7084 553.093 64.769C557.111 64.769 561.371 65.4147 562.562 66.2021C564.379 67.3731 584.487 141.913 584.487 147.424C584.487 149.322 575.018 149.706 568.78 148.05ZM558.383 109.973C557.676 107.368 556.162 100.666 554.911 95.0531L552.628 84.9584L545.441 97.9804C541.504 105.148 538.334 111.386 538.334 111.79C538.334 112.577 546.39 113.829 555.152 114.455C558.928 114.697 559.393 114.071 558.383 109.973ZM165.638 138.824C160.509 131.031 163.033 127.8 168.464 135.21C170.685 138.198 173.128 139.773 174.461 138.905C176.035 137.956 175.571 136.158 172.805 132.686C166.89 125.034 170.685 122.813 176.823 130.324C183.606 138.44 183.606 138.198 176.823 142.216C169.817 146.395 170.604 146.637 165.638 138.824ZM777.074 139.934C772.411 136.381 772.41 136.381 778.245 130.162C784.867 123.056 788.502 125.115 782.586 132.686C780.063 135.835 779.436 137.956 780.769 138.824C781.879 139.551 784.565 137.814 786.685 135.048C792.055 128.264 795.285 130.869 790.237 137.956C785.594 144.517 783.373 144.82 777.074 139.934ZM435.732 102.947C435.025 81.728 434.944 63.5171 435.51 62.5682C436.136 61.6193 439.85 60.8319 443.868 60.8319C451.197 60.8319 451.197 60.8318 452.389 79.6079C453.095 89.9449 453.639 104.219 453.639 111.386L453.721 124.327H473.91C494.1 124.327 494.1 124.328 494.1 131.737C494.1 139.147 494.1 139.146 473.587 140.418C462.322 141.125 449.461 141.67 445.039 141.67H437.004L435.732 102.947ZM180.699 128.022C175.006 120.451 177.388 117.847 183.526 124.953C187.483 129.516 188.412 129.839 189.361 127.235C190.067 125.499 189.603 123.137 188.412 121.945C185.969 119.422 185.504 114.697 187.705 114.778C188.492 114.778 191.016 117.706 193.398 121.319C197.577 127.861 197.577 127.861 192.994 130.95C186.615 135.048 185.746 134.887 180.699 128.022ZM763.669 130.385C759.247 126.993 759.247 126.69 762.235 120.855C763.972 117.463 766.738 114.697 768.393 114.697C770.836 114.697 770.674 115.727 767.363 120.371C761.851 128.103 766.274 130.95 772.108 123.54C777.862 116.353 779.76 120.149 774.389 127.861C769.423 134.968 769.584 134.887 763.669 130.385ZM196.144 117.625C192.995 112.335 192.752 110.922 194.892 110.922C196.386 110.922 198.587 112.658 199.697 114.697C200.808 116.837 203.17 118.554 204.825 118.554C207.591 118.554 207.591 118.17 204.745 113.829C203.008 111.225 201.676 108.237 201.676 107.126C201.676 103.351 204.503 105.147 208.763 111.709C213.022 118.25 213.022 118.251 208.379 121.319C201.837 125.579 200.646 125.276 196.144 117.625ZM748.446 121.319C743.238 117.706 743.156 115.242 747.881 109.024C752.545 102.947 755.371 105.309 751.192 111.709C746.71 118.553 751.273 120.693 756.179 114.071C761.529 106.662 763.972 109.73 758.924 117.625C754.038 125.276 754.039 125.277 748.446 121.319ZM212.074 108.782C208.137 101.049 210.418 98.7677 215.385 105.632C220.21 112.093 223.985 110.599 219.564 103.977C217.283 100.423 217.04 98.6063 218.554 97.0315C220.129 95.4568 221.3 96.3247 223.036 100.04C224.308 102.785 226.509 105.148 227.922 105.148C231.254 105.148 231.173 104.057 227.296 98.3033C224.147 93.3972 224.692 90.2476 228.326 92.4685C229.356 93.0944 231.476 96.1635 233.05 99.3131C236.22 105.552 235.735 106.339 225.257 111.628C216.899 115.888 215.627 115.646 212.074 108.782ZM732.031 111.628C726.984 108.943 726.984 108.862 730.134 102.16C731.87 98.5255 734.475 95.5374 735.908 95.5374C737.947 95.5374 737.947 96.648 735.585 101.13C732.516 107.046 735.262 112.335 738.574 106.803C742.692 100.04 744.024 98.6062 745.215 99.7167C746.467 101.049 743.075 108.459 739.441 112.093C737.785 113.748 735.989 113.587 732.113 111.628H732.031ZM710.974 101.13C702.616 96.7086 702.858 97.516 706.956 88.9153C710.59 81.3442 714.286 81.4249 711.379 88.9959C707.664 98.7676 711.297 101.292 715.315 91.6614C719.332 81.9704 722.966 84.494 719.252 94.3464C716.728 100.969 720.362 103.028 723.29 96.567C724.541 93.8818 726.682 91.6614 728.014 91.6614C729.831 91.6614 729.427 93.5592 726.601 98.3642C722.018 106.097 720.847 106.339 710.974 101.13ZM236.604 96.7894C233.919 89.2184 233.777 87.805 235.978 87.805C236.846 87.805 238.582 89.9452 239.753 92.6102C240.945 95.2954 242.923 97.4351 244.094 97.4351C246.234 97.4351 245.911 94.3461 243.003 87.3404C240.621 81.5662 245.588 83.5449 248.677 89.6219C252.614 97.2737 252.452 98.3642 246.779 100.969C239.753 104.138 239.208 103.896 236.604 96.7894ZM756.179 98.0611C749.779 93.6396 750.889 91.0353 757.672 94.5886C760.903 96.2441 763.023 98.4449 762.397 99.3938C761.064 101.615 761.448 101.756 756.179 98.0611ZM253.098 88.3503C251.281 84.4941 250.252 80.8597 250.716 80.3954C252.15 78.9821 257.419 84.2515 257.419 87.0982C257.419 88.5115 258.852 89.7027 260.508 89.7027C262.708 89.7027 263.193 88.7537 262.244 86.3916C259.397 79.6079 258.933 76.2968 260.73 76.2968C261.76 76.2968 263.577 78.4168 264.768 81.102C266.968 85.8264 272.097 88.0473 270.36 83.4643C267.453 75.5905 266.968 72.4207 268.786 72.4207C270.36 72.4207 276.679 84.0296 276.679 86.8561C276.679 87.3407 258.146 95.5374 256.955 95.5374C256.551 95.5374 254.834 92.3074 253.098 88.3503ZM689.29 91.5196C685.111 89.5411 680.932 87.6432 679.983 87.3404C677.702 86.4722 683.86 72.4207 686.525 72.4207C687.959 72.4207 688.261 73.6926 687.393 75.8125C684.485 82.8385 684.163 85.9073 686.303 85.9073C687.474 85.9073 689.291 83.7065 690.321 81.102C691.269 78.4168 693.006 76.2968 694.096 76.2968C696.539 76.2968 696.538 76.6805 694.176 82.8383C691.491 90.0055 695.288 90.9543 698.922 83.9486C700.658 80.6981 702.859 78.5785 703.808 79.2043C705.302 80.0725 699.062 95.9211 697.487 95.376C697.265 95.2953 693.55 93.5588 689.29 91.5196ZM280.536 85.0392C280.536 84.7363 279.203 81.3444 277.609 77.5488C275.812 73.0668 275.489 70.3005 276.74 69.5132C277.77 68.8065 279.587 71.0073 280.778 74.3184C281.949 77.5487 283.847 79.9109 285.038 79.4465C287.4 78.5784 287.481 77.6294 285.422 71.0073C283.383 64.2237 287.864 65.7983 290.792 72.905C292.286 76.3776 293.154 79.6887 292.751 80.3954C292.044 81.7279 280.536 86.1496 280.536 85.0392ZM665.791 81.9702C661.995 80.4762 661.693 79.6082 663.429 74.8637C664.519 71.9564 665.871 68.3221 666.336 66.8281C667.042 65.0111 667.992 64.7082 669.264 66.0407C670.515 67.2924 670.596 69.5939 669.264 72.9857C667.992 76.3775 667.991 78.4169 669.344 79.285C670.373 79.9109 672.252 77.7909 673.523 74.4798C675.886 68.3221 678.732 66.5857 678.732 71.3302C678.732 75.8122 674.472 83.9487 672.17 83.8679C671.08 83.7871 668.153 82.9191 665.791 81.9702ZM295.759 74.8027C294.729 71.8752 293.477 68.4834 293.073 67.2317C292.609 65.879 293.073 64.3043 294.103 63.6784C295.133 63.0323 296.93 65.1726 298.04 68.4029C299.231 71.6332 300.806 74.3184 301.513 74.3184C304.581 74.3184 305.227 71.7946 303.41 67.0702C302.219 64.062 302.219 61.4575 303.33 60.3673C304.44 59.2569 306.015 61.4577 307.509 65.9599C310.578 75.1865 310.739 74.48 303.633 77.4681C297.879 79.8504 297.576 79.7693 295.759 74.8027ZM644.49 74.9444C638.494 72.8245 636.456 71.1689 637.243 69.1096C637.869 67.5348 638.898 64.2237 639.524 61.6193C641.422 54.2905 644.733 56.1073 643.319 63.7591C641.664 72.2791 645.44 72.905 648.287 64.5465C649.538 60.9932 651.052 59.3376 652.142 60.448C653.172 61.4575 653.091 64.1427 651.981 67.2317C650.649 70.6033 650.649 72.6629 651.981 73.4503C653.011 74.1569 654.908 72.0368 656.16 68.7257C658.542 62.568 661.45 60.7513 661.45 65.5564C661.45 70.6845 657.675 78.1744 655.232 78.0331C653.879 77.9523 648.993 76.5192 644.41 74.9444H644.49ZM312.556 66.9088C311.062 63.0324 310.194 59.257 310.658 58.4696C312.476 55.4009 314.918 57.2784 316.109 62.8103C317.926 71.0879 321.621 70.2199 320.046 61.8614C318.472 53.503 321.702 52.8772 324.549 60.9933C327.153 68.4836 331.251 66.5856 329.515 58.7925C327.779 50.6561 331.393 51.9282 333.998 60.2866C335.189 64.2235 335.976 67.5346 335.734 67.7769C335.512 67.9384 330.848 69.3518 325.336 71.0073C315.403 73.854 315.403 73.854 312.556 66.9088ZM620.99 68.2415C611.844 65.6371 610.976 64.3854 612.47 56.3298C614.125 47.3455 617.841 47.1029 616.811 56.0267C615.862 64.5466 620.203 65.3339 622.02 56.9755C622.726 53.8058 624.14 51.7668 625.169 52.3927C626.199 53.0186 626.522 56.0268 625.815 59.0956C624.301 66.1215 628.097 66.7474 630.701 59.883C631.65 57.2786 633.447 55.0778 634.638 55.0778C635.91 55.0778 636.294 56.4912 635.668 58.1468C635.042 59.8831 634.013 63.2748 633.306 65.8793C632.034 70.9266 631.085 71.0882 621.071 68.2415H620.99ZM338.338 59.4185C337.086 54.8355 337.006 51.6862 338.177 50.495C339.449 49.2433 340.559 50.818 341.346 54.755C341.972 58.1468 343.708 60.8319 345.283 60.8319C347.343 60.8319 347.726 59.2571 346.777 54.1289C344.88 44.5188 348.837 45.6092 351.36 55.5424C352.45 59.9639 353.258 63.7595 353.016 63.9009C352.773 64.0624 349.866 64.7081 346.474 65.334C340.64 66.4242 340.155 66.1214 338.338 59.4185ZM600.8 63.1941C598.761 62.8105 596.238 61.7 595.289 60.8319C593.069 58.712 595.591 45.4477 598.276 45.4477C599.548 45.4477 599.851 47.8906 599.064 52.2313C597.408 60.9128 602.779 61.8616 604.677 53.1802C606.554 44.6602 609.946 46.0126 608.371 54.6133C606.877 63.1938 605.928 64.3045 600.8 63.1941Z" fill="#8550DC"/>
</svg>
