<svg width="959" height="512" viewBox="0 0 959 512" fill="none" xmlns="http://www.w3.org/2000/svg">
<path fill-rule="evenodd" clip-rule="evenodd" d="M206.454 500.998C180.018 494.481 141.497 478.466 122.775 466.194C117.108 462.516 117.059 462.423 121.407 461.07C126.323 459.507 128.055 456.038 123.574 456.826C121.976 457.168 120.837 456.563 121.031 455.512C121.237 454.395 120.123 453.791 118.525 454.133C116.987 454.382 115.497 455.802 115.219 457.3C114.444 461.478 107.323 457.457 90.0056 442.9C19.1024 383.632 -12.8552 296.524 4.75253 210.716C9.08786 189.747 9.62106 188.144 12.9997 188.302C17.9769 188.446 19.8896 184.413 15.2636 183.559C12.3573 183.02 11.7396 181.733 12.4904 177.699C13.653 171.432 26.9255 142.684 32.7019 134.026C58.9439 94.5581 77.7869 74.9553 112.106 51.5031C161.757 17.4349 214.943 1.35414 281.208 0.184811C293.596 0.0140106 303.89 -0.0258347 303.999 0.236935C304.084 0.486567 304.81 2.48391 305.646 4.63862C307.026 8.44879 307.111 8.38309 306.748 4.46782C306.312 -0.643062 296.091 -0.143959 400.478 0.197642C447.476 0.329027 491.968 0.394726 499.319 0.368449C512.591 0.35531 514.552 1.11768 509.781 4.32347C508.352 5.29572 507.783 6.80641 508.389 7.68669C508.994 8.56697 511.828 7.47632 514.637 5.22963C520.45 0.512908 538.954 -1.32645 539.487 2.79904C539.668 4.37566 540.831 4.34957 543.362 2.8255C548.073 -0.0781067 565.293 -0.0782926 573.249 2.79904C577.681 4.3888 580.14 4.45486 581.508 2.85197C583.276 0.868052 654.155 0.184747 691.792 1.76137C718.701 2.865 780.642 16.9753 785.704 23.0978C786.782 24.3065 788.719 25.1212 789.979 24.9767C793.478 24.4643 818.861 36.736 834.422 46.4847C865.642 66.0348 889.631 88.3174 910.363 116.88C947.141 167.661 963.998 227.546 956.562 281.007C954.334 297.285 953.982 298.311 950.374 298.573C947.407 298.797 946.402 300.071 946.135 303.96C945.917 306.837 944.525 309.767 942.89 310.608C941.352 311.409 940.504 313.118 940.964 314.353C942.309 317.913 945.142 317.677 945.832 313.945C946.159 312.145 947.843 309.819 949.478 308.9C952.227 307.389 952.299 308.571 950.544 318.057C948.533 328.884 948.472 328.95 944.319 327.11C941.122 325.586 939.935 325.822 939.536 327.977C939.209 329.698 940.492 331.104 942.732 331.525C946.172 332.155 946.184 332.852 943.472 341.313C941.764 346.332 938.591 353.846 936.435 357.998C934.183 362.15 930.538 369.35 928.285 374.028C909.176 413.351 861.234 457.759 811.813 481.908C791.432 491.788 784.287 494.179 783.161 491.499C781.914 488.188 779.116 488.661 778.426 492.406C777.99 494.718 775.071 496.728 769.925 498.239C763.47 500.209 762.235 500.144 762.671 497.806C763.277 494.534 759.135 493.535 755.853 496.255C754.194 497.647 753.977 498.83 755.079 500.433C756.169 502.022 751.373 503.692 738.827 505.991C705.452 512.245 700.814 512.31 502.637 511.351C457.637 511.114 414.695 511.023 407.187 511.101C399.751 511.206 392.001 510.996 389.978 510.615C386.479 509.972 386.503 509.814 390.185 507.042C393.878 504.165 393.878 504.165 388.95 505.4C386.176 506.136 383.742 507.685 383.428 508.947C383.21 510.129 382.87 511.076 382.483 511.01C382.277 510.971 356.968 510.826 326.318 510.72C278.229 510.523 231.546 507.752 219.581 504.441C217.668 503.876 211.77 502.378 206.454 500.998ZM682.807 504.795C685.108 503.284 683.134 500.604 680.167 501.142C678.568 501.458 677.685 502.47 678.036 503.455C678.823 505.518 680.942 506.148 682.807 504.795ZM791.348 482.289C791.783 479.976 789.894 477.993 788.005 478.715C785.983 479.583 786.963 483.011 789.349 483.458C790.33 483.642 791.202 483.103 791.348 482.289ZM807.986 481.724C808.143 480.91 807.332 478.518 806.279 476.31C804.232 472.316 802.973 474.077 803.99 479.529C804.572 482.643 807.514 484.273 807.986 481.724ZM23.9469 334.165C24.1286 333.193 23.4379 332.3 22.4812 332.116C21.5124 331.945 20.5556 332.536 20.374 333.509C20.1923 334.481 20.8588 335.453 21.8397 335.637C22.7963 335.808 23.7653 335.151 23.9469 334.165ZM14.9488 263.532C15.2273 262.034 14.634 260.682 13.6531 260.498C12.6964 260.327 11.6551 261.378 11.3766 262.863C11.0981 264.36 11.7038 265.701 12.6604 265.871C13.6292 266.055 14.6703 265.017 14.9488 263.532ZM16.0272 208.955C16.1967 206.748 13.6777 206.735 12.503 208.916C11.9096 209.967 12.3694 210.742 13.6531 210.611C14.9004 210.44 15.9787 209.638 16.0272 208.955ZM934.51 352.48C935.224 351.206 934.474 350.693 932.621 351.048C930.95 351.35 929.424 352.389 929.254 353.348C928.819 355.66 933.214 354.924 934.51 352.48ZM43.9403 127.155C44.2309 125.592 43.5526 124.698 42.4628 125.106C41.385 125.513 40.3314 126.629 40.1619 127.523C39.9802 128.495 40.6585 129.402 41.6394 129.572C42.6082 129.756 43.6738 128.653 43.9403 127.155ZM954.66 285.921C954.842 284.949 954.176 283.963 953.195 283.793C952.227 283.609 951.331 284.292 951.149 285.264C950.967 286.236 951.561 287.195 952.53 287.379C953.51 287.563 954.479 286.893 954.66 285.921ZM526.784 13.4147C526.966 12.4556 526.299 11.4832 525.343 11.2993C524.362 11.1285 523.466 11.812 523.284 12.758C523.103 13.7434 523.696 14.7026 524.677 14.8734C525.706 15.0705 526.602 14.387 526.784 13.4147ZM535.139 6.76689C535.866 4.83553 535.357 3.88915 533.783 4.04681C532.354 4.25703 530.671 5.78153 530.066 7.45012C529.291 9.48659 529.739 10.419 531.398 10.1694C532.766 9.97232 534.437 8.42235 535.139 6.76689ZM782.568 33.254C782.749 32.2818 781.636 31.2308 780.146 30.9549C778.584 30.6527 777.688 31.3359 778.099 32.4264C778.511 33.5169 779.637 34.5683 780.533 34.7391C781.49 34.9099 782.386 34.2263 782.568 33.254ZM773.292 26.6719C773.994 26.1727 774.091 24.0306 773.401 21.9022C771.936 17.3037 767.89 19.1042 768.786 23.8997C769.404 27.25 771.003 28.2485 773.292 26.6719ZM172.486 485.902C172.765 484.417 171.723 482.998 170.282 482.735C168.793 482.459 167.388 483.419 167.122 484.917C166.843 486.401 167.799 487.82 169.289 488.096C170.73 488.372 172.208 487.4 172.486 485.902ZM372.965 504.913C374.817 503.336 374.865 502.181 372.976 499.895C370.881 497.425 370.107 497.437 367.479 499.881C362.429 504.663 367.576 509.406 372.965 504.913ZM114.165 453.003C114.42 451.597 113.826 450.231 112.845 450.06C111.889 449.876 110.847 450.927 110.581 452.346C110.314 453.831 110.908 455.197 111.864 455.368C112.833 455.552 113.887 454.501 114.165 453.003ZM553.679 501.799C554.297 500.065 553.789 498.646 552.299 498.37C549.09 497.766 544.476 501.406 545.82 503.35C547.576 505.912 552.493 504.913 553.679 501.799ZM577.5 508.697C579.256 506.766 576.276 504.059 573.612 505.11C571.444 505.951 572.123 509.394 574.594 509.854C575.478 510.024 576.822 509.499 577.5 508.697ZM72.9066 407.596C73.0883 406.611 72.4226 405.718 71.4417 405.534C70.4729 405.363 69.4188 406.466 69.1282 407.977C68.8376 409.541 69.5284 410.448 70.6183 410.014C71.6961 409.607 72.7371 408.49 72.9066 407.596ZM200.92 490.093C197.735 487.189 196.113 487.202 195.592 490.027C195.059 492.878 200.617 495.901 202.034 493.562C202.591 492.734 202.106 491.157 200.92 490.093ZM256.371 491.328C266.64 492.169 281.595 492.76 289.564 492.694C297.459 492.615 305.149 493.194 306.53 494.061C307.922 494.954 310.236 494.981 311.677 494.245C313.07 493.431 327.758 492.918 344.361 492.97C360.867 493.102 395.525 493.26 421.295 493.325C447.077 493.483 470.848 493.548 474.166 493.627C477.957 493.64 479.967 494.389 479.725 495.73C479.531 496.781 480.173 497.91 481.142 498.094C482.098 498.265 483.127 497.293 483.382 495.952C483.697 494.231 490.551 493.562 506.294 493.641C518.719 493.706 535.866 493.693 544.379 493.653C556.041 493.667 560.037 494.166 560.267 495.835C560.437 497.03 561.672 498.265 563.016 498.515C564.506 498.79 565.244 497.766 564.93 496.084C564.675 494.573 565.051 493.391 565.947 493.562C569.156 494.153 671.472 494.35 688.026 493.798C778.268 490.75 858.279 448.339 904.054 379.27C956.078 300.78 952.287 203.674 894.099 125.001C886.313 114.516 881.748 106.712 882.983 106.252C886.991 104.675 885.889 101.85 881.772 103.151C878.417 104.228 876.128 102.797 867.361 94.3091C857.128 84.4552 837.304 68.4917 834.495 67.8348C833.683 67.6114 831.879 65.1803 830.559 62.3818C828.755 58.8081 827.326 57.7704 825.715 58.8478C824.141 59.8857 819.454 58.0856 809.803 52.6594C802.234 48.4814 796.022 44.8686 796.046 44.7109C796.083 44.5532 794.205 43.8966 791.771 43.2266C789.349 42.5434 779.347 38.9825 769.441 35.3694C743.235 25.8834 694.191 18.3422 660.15 18.5919C646.478 18.6838 585.238 18.5259 524.095 18.3288C462.904 18.0267 396.894 17.8557 377.433 17.8557C357.961 17.8163 326.075 17.7768 306.615 17.79C287.142 17.7374 266.386 18.066 260.525 18.4339C208.319 22.1258 157.276 40.3879 116.163 70.081C30.7404 131.727 -2.98528 232.382 29.9656 327.176C45.442 371.597 71.1869 406.098 110.944 435.804C155.508 469.097 201.404 486.637 256.371 491.328ZM195.18 467.705C142.26 450.638 97.0783 417.7 67.0217 374.369C32.2786 324.285 21.4401 268.959 34.7367 209.257C47.3793 152.355 80.0274 107.027 133.638 72.0256C179.364 42.0961 228.191 28.6816 291.405 28.5765C324.61 28.537 374.429 28.6034 476.104 28.8924C529.23 29.0107 598.328 29.2206 629.681 29.2469C686.67 29.3782 686.67 29.3786 723.992 36.3815C755.575 42.2281 763.967 44.4091 777.942 50.3082C825.8 70.6072 860.374 97.7248 888.517 136.851C923.49 185.674 935.685 239.45 924.968 297.325C914.868 351.377 887.572 394.524 841.227 429.893C796.336 464.132 741.286 481.96 677.309 482.84C647.035 483.261 305.04 482.144 278.12 481.54C262.05 481.106 209.82 472.435 195.18 467.705ZM287.239 476.981C298.344 477.02 321.558 477.231 338.682 477.322C446.241 478.019 680.397 478.623 691.756 478.255C768.69 475.378 844.945 435.66 886.603 376.8C945.82 293.16 934.292 182.416 858.714 108.853C824.541 75.6392 784.638 54.1836 733.184 41.3998C705.622 34.5941 701.638 34.3972 557.095 33.7271C494.826 33.3724 293.427 33.0436 280.263 33.2275C150.179 34.9881 43.4916 123.752 34.5667 237.716C27.0828 333.127 85.1984 420.13 181.157 457.076C207.399 467.206 208.719 467.535 239.32 472.488C256.359 475.194 274.887 476.928 287.239 476.981ZM867.216 147.125C868.96 141.502 871.006 136.313 871.587 135.577C872.847 134.263 887.209 153.445 886.761 155.836C886.64 156.52 883.104 156.927 878.793 156.822C874.47 156.743 869.444 156.795 867.482 156.979C864.176 157.216 864.249 156.546 867.216 147.125ZM371.305 50.9514L365.371 40.8216L374.684 40.6115C385.643 40.2437 391.117 41.0982 390.621 42.9507C390.403 43.6733 387.363 48.0613 383.718 52.6466L377.215 61.0811L371.305 50.9514ZM849.826 138.874L841.785 129.743L849.111 128.088C853.083 127.129 858.666 126.143 861.488 125.973C866.646 125.697 866.646 125.697 863.837 134.145C859.005 149.004 858.835 149.031 849.826 138.874ZM389.591 58.9665C389.688 58.4541 392.619 53.8159 396.215 48.613L402.67 39.1537L409.343 49.5063C416.003 59.7675 416.003 59.768 411.377 60.1621C403.602 60.7928 389.397 60.0176 389.591 58.9665ZM418.849 50.6499L413.23 40.5722L425.327 40.7166C432.024 40.8086 437.812 41.2683 438.127 41.715C438.842 42.766 426.635 61.134 425.376 60.8975C424.916 60.8186 421.997 56.1812 418.849 50.6499ZM437.437 58.8085C437.546 58.2173 440.392 53.6322 443.771 48.7052L450.019 39.6661L456.45 49.5986C462.202 58.5327 462.468 59.5833 459.198 60.122C453.846 61.068 437.207 60.0041 437.437 58.8085ZM466.513 51.0564C462.989 45.8667 460.579 41.3865 461.1 41.0975C462.408 40.2566 485.501 40.6772 486.107 41.5706C486.652 42.3589 474.457 60.727 473.476 60.543C473.198 60.4905 470.049 56.2067 466.513 51.0564ZM370.324 464.184C380.908 448.392 379.589 448.76 386.612 458.771C390.112 463.672 392.825 468.27 392.704 468.94C392.486 470.07 374.042 470.819 369.186 469.926C367.152 469.545 367.418 468.585 370.324 464.184ZM350.004 461.714C342.968 450.468 343.598 449.652 358.977 450.414C369.9 450.979 369.998 451.308 361.957 463.028L356.132 471.515L350.004 461.714ZM396.433 460.439L390.729 450.349L402.816 450.507C409.452 450.572 415.167 451.019 415.47 451.466C416.391 452.714 404.886 471.042 403.397 470.766C402.731 470.648 399.582 465.97 396.433 460.439ZM194.417 424.69C122.085 394.918 77.5692 339.539 69.6131 269.563C67.9177 254.507 68.2084 250.526 73.1734 223.71C78.1506 196.842 79.216 193.097 86.3971 179.368C115.909 122.636 175.502 81.6434 243.813 71.1194C267.767 67.375 270.297 67.3747 458.75 68.0184C517.398 68.2287 585.638 68.4388 610.427 68.4651C691.684 68.6096 717.998 71.1717 750.767 82.3526C796.191 97.7378 836.493 128.679 861.015 166.82C876.831 191.468 884.448 212.49 888.274 242.327C891.011 263.835 886.349 298.127 877.666 319.621C849.79 389.137 776.077 437.96 691.09 443.07C675.239 443.99 643.752 444.187 575.816 443.635C538.021 443.359 490.842 443.188 413.109 442.978C279.283 442.755 270.152 442.374 237.916 436.317C217.414 432.362 205.098 429.144 194.417 424.69ZM297.314 437.512C355.986 438.182 469.638 438.866 487.524 438.629C492.634 438.577 512.869 438.617 532.633 438.722C700.572 439.812 708.444 439.484 744.616 428.894C790.1 415.611 835.028 383.316 857.915 347.317C871.006 326.729 876.552 312.605 881.117 287.971C887.584 253.101 883.6 222.068 868.39 189.576C838.213 124.816 764.076 78.0959 685.386 74.1675C672.054 73.5631 515.994 72.5119 427.544 72.4987C405.77 72.4724 374.333 72.4329 357.658 72.3672C258.612 72.1701 250.619 72.6826 216.893 82.116C161.975 97.5012 117.556 132.134 92.1734 179.42C81.1898 199.955 72.8459 237.558 74.0811 261.273C76.9027 317.321 110.714 372.503 160.716 402.709C199.685 426.227 241.367 436.803 297.314 437.512ZM584.463 417.753C584.354 412.629 584.269 408.043 584.354 407.609C584.439 407.149 587.999 407.439 592.347 408.24C597.639 409.226 600.315 410.644 600.654 412.563C601.538 416.964 598.789 420.091 593.787 420.393C590.978 420.59 589.113 421.944 588.701 424.177C587.418 431.036 584.778 426.989 584.463 417.753ZM595.447 414.849C596.137 413.574 595.12 412.458 592.867 412.037C590.699 411.63 589.004 412.484 588.69 414.205C588.084 417.424 593.703 417.989 595.447 414.849ZM603.281 424.624C603.524 423.363 603.754 419.237 603.814 415.466C603.887 410.92 604.614 408.739 605.946 408.976C606.999 409.173 607.823 412.655 607.738 416.806C607.605 423.809 607.883 424.335 612.8 424.466C616.106 424.611 617.741 425.386 617.159 426.503C615.633 429.249 602.749 427.554 603.281 424.624ZM273.773 337.844C274.039 320.186 276.304 318.833 284.974 331.183L291.647 340.603L292.046 331.879C292.252 324.889 292.858 323.3 294.941 323.694C296.818 324.036 297.653 328.293 297.786 337.884C297.944 350.799 297.714 351.614 294.59 351.811C292.24 352.008 289.685 349.196 286.198 342.916C283.425 337.936 280.809 334.126 280.361 334.415C279.925 334.73 279.537 338.83 279.513 343.533C279.525 350.957 279.186 352.06 276.57 351.574C274.33 351.154 273.664 348 273.773 337.844ZM381.442 345.438C381.575 341.825 381.599 335.427 381.599 331.249C381.551 323.589 381.55 323.589 388.162 323.746C398.71 323.917 400.66 324.653 403.772 329.488C407.599 335.532 405.697 346.214 400.127 349.59C397.874 350.957 392.728 352.073 388.707 352.099C381.296 352.06 381.296 352.06 381.442 345.438ZM397.838 343.678C402.246 337.397 399.848 330.303 392.752 328.989C387.532 328.017 387.266 328.2 387.351 333.942C387.484 344.939 388.041 346.503 391.541 347.16C393.491 347.514 396.24 346.003 397.838 343.678ZM410.796 342.062C410.735 336.176 410.626 329.672 410.626 327.596C410.493 324.167 411.716 323.786 421.489 323.97C430.123 324.114 432.339 324.653 432 326.453C431.77 327.714 428.355 328.647 424.116 328.555C418.655 328.463 416.754 329.107 416.79 331.367C416.875 333.456 418.521 334.533 422.239 334.927C431.564 335.886 433.235 338.58 424.952 339.526C414.138 340.682 414.198 344.939 425.012 346.634C434.797 348.052 436.347 352.586 427.144 352.665C409.052 352.796 410.82 353.965 410.796 342.062ZM437.425 338.895C437.546 328.253 438.067 325.428 440.077 324.627C443.492 323.26 444.461 326.768 443.783 337.91C443.25 347.461 443.25 347.462 450.08 347.646C454.149 347.777 457.31 348.683 457.782 349.84C458.884 352.677 457.092 353.111 446.399 352.612C437.208 352.139 437.207 352.139 437.425 338.895ZM462.153 342.167C462.044 336.438 461.899 329.764 461.79 327.504C461.621 324.154 462.384 323.445 465.363 323.996C468.196 324.522 468.887 325.796 468.257 329.16C467.543 333.036 468.172 333.771 473.779 334.809C479.991 335.966 480.064 335.899 480.028 329.488C480.052 324.311 480.585 323.181 482.898 323.602C484.46 323.904 485.756 324.377 485.707 324.666C485.429 326.151 485.405 347.488 485.732 350.313C485.986 352.678 485.077 353.44 482.401 352.941C479.931 352.481 478.95 351.075 479.362 348.841C480.585 342.259 479.228 340.078 473.537 339.868C468.487 339.697 468.087 340.104 468.075 345.662C468.099 350.076 467.312 351.771 465.241 352.152C462.928 352.573 462.25 350.378 462.153 342.167ZM491.568 342.206C491.484 336.386 491.338 329.724 491.217 327.465C491.133 324.206 491.81 323.405 494.426 323.891C497.26 324.417 497.829 326.769 497.696 337.542C497.526 344.637 496.873 351.154 496.17 351.955C493.167 355.253 491.738 352.205 491.568 342.206ZM516.031 344.9C522.001 327.294 523.405 324.626 526.917 325.283C529.23 325.704 531.822 330.119 534.922 338.724C537.416 345.753 539.402 352.152 539.257 352.9C538.869 355.462 533.928 353.295 532.826 350.089C531.276 345.543 520.353 346.069 519.482 350.772C519.142 352.651 517.605 353.913 516.103 353.637C513.79 353.203 513.754 351.732 516.031 344.9ZM528.733 338.436C527.91 334.954 527.05 334.179 525.694 335.637C522.436 339.04 522.8 342.062 526.469 342.745C529.606 343.323 529.835 342.811 528.733 338.436ZM444.667 422.732C444.401 406.69 444.376 406.835 451.182 406.795C459.974 406.808 462.819 408.949 461.499 414.796C460.845 417.463 460.64 421.602 460.906 423.888C461.233 426.726 460.603 428 459.259 427.751C458.072 427.527 456.934 425.701 456.861 423.612C456.437 418.028 450.031 417.556 449.014 423.087C447.985 428.605 444.716 428.368 444.667 422.732ZM456.365 413.39C456.632 411.971 455.287 410.487 453.253 410.106C451.327 409.751 449.535 410.658 449.269 412.077C449.003 413.561 450.347 415.059 452.272 415.414C454.294 415.795 456.087 414.875 456.365 413.39ZM563.743 424.571C563.525 423.284 563.767 419 564.215 414.993C564.954 408.03 565.22 407.846 571.009 408.306C578.82 409.055 581.653 412.589 580.249 420.144C579.353 424.992 578.093 426.305 574.182 427.041C567.618 428.224 564.228 427.435 563.743 424.571ZM576.216 419.842C577.766 414.731 574.727 409.922 570.404 410.737C567.752 411.262 567.182 413.916 568.115 421.825C568.55 426.161 574.714 424.585 576.216 419.842ZM389.616 422.653C389.398 420.827 389.385 416.268 389.397 412.484C389.555 406.637 390.039 405.717 392.873 406.243C394.823 406.611 396.857 409.397 397.862 413.128C399.606 419.487 399.606 419.486 402.137 412.983C403.566 409.475 405.685 406.782 407.018 407.032C409.488 407.492 409.972 409.896 409.791 420.893C409.682 428.92 406.109 429.88 405.867 422.023C405.576 413.548 405.249 412.878 403.978 418.436C403.36 421.326 401.967 424.703 400.889 425.886C398.673 428.264 397.899 427.107 395.38 417.765C394.121 413.285 394.011 413.417 393.757 419.776C393.563 426.7 390.124 429.078 389.616 422.653ZM413.908 417.03C414.029 411.788 414.877 407.242 415.749 407.11C418.243 406.559 418.425 407.61 417.904 417.845C417.238 430.615 413.593 429.945 413.908 417.03ZM543.847 343.941C544.125 338.738 544.343 332.076 544.27 329.186C544.246 325.165 544.9 324.049 547.007 324.443C548.86 324.785 549.768 327.898 549.829 334.625C550.022 351.035 549.611 353.282 546.353 353.361C544.04 353.334 543.496 351.298 543.847 343.941ZM555.908 343.087C555.896 337.293 555.811 330.71 555.75 328.45C555.654 324.811 556.562 324.508 565.656 325.047C577.282 325.73 581.048 328.752 578.977 335.703C578.287 338.199 577.96 341.155 578.396 342.233C578.735 343.31 579.146 346.476 579.316 349.288C579.546 353.492 579.001 354.32 576.095 353.781C573.855 353.361 572.692 351.679 572.813 348.998C572.922 345.924 571.614 344.545 567.667 343.336C562.471 341.838 562.278 342.022 561.89 348.289C561.539 353.177 560.8 354.582 558.717 354.188C556.768 353.834 555.993 350.523 555.908 343.087ZM573.673 334.323C574.569 332.023 573.479 331.196 568.466 330.276C562.12 329.094 561.067 329.909 561.999 335.19C562.774 338.948 572.183 338.212 573.673 334.323ZM341.624 304.446C341.854 299.006 342.75 296.169 344.518 295.407C347.376 294.158 349.351 273.045 347.219 266.646C346.577 264.662 346.686 262.456 347.461 261.588C349.12 259.802 351.905 215.971 350.779 208.272C349.968 201.873 351.324 199.89 356.035 200.77C357.9 201.112 359.68 200.271 359.91 199.01C360.625 195.186 358.869 193.872 354.836 195.12C349.835 196.75 349.084 192.059 353.322 185.806C356.592 181.089 356.592 181.088 359.874 186.331C361.727 189.221 362.744 193.741 362.211 196.645C361.702 199.404 362.018 201.874 362.986 202.058C363.943 202.229 364.149 203.254 363.398 204.449C362.708 205.618 362.296 212.424 362.598 219.506C362.913 226.601 363.107 238.438 363.131 245.861C363.155 253.206 363.87 260.537 364.706 261.916C365.517 263.388 365.529 264.938 364.912 265.438C364.209 265.911 363.809 272.638 364.136 280.442C364.488 291.452 365.238 294.461 367.491 294.027C369.004 293.778 372.383 293.922 374.841 294.382C379.164 295.183 379.383 294.855 379.528 287.379C379.867 274.766 380.86 254.809 381.804 244.692C382.24 239.437 382.204 232.946 381.708 230.239C380.545 223.92 380.436 224.209 384.723 223.92C389.349 223.605 390.463 219.637 386.055 219.296C380.642 218.836 380.376 218.244 383.331 213.081C386.201 208.036 386.2 208.035 388.925 212.581C390.318 215.064 391.396 217.981 391.287 219.019C390.936 221.213 390.851 245.073 391.093 259.63C391.214 264.754 391.238 274.241 391.262 280.823C391.287 291.873 391.625 292.95 396.094 294.303C402.161 296.129 402.5 294.724 402.646 261.457C402.682 247.478 402.791 233.143 402.9 229.675C403.021 226.141 403.07 220.833 403.045 217.969C403.033 214.342 403.578 213.12 404.741 214.263C405.686 215.051 406.024 218.218 405.491 221.122C404.74 225.155 405.286 226.404 407.744 226.482C409.888 226.496 410.88 227.914 410.723 230.739C410.602 233.577 411.571 234.93 413.666 234.917C416.076 234.838 417.032 232.999 418.025 225.917L419.369 217.049L419.721 225.221C419.999 231.146 420.701 232.828 422.142 231.225C423.608 229.661 424.056 229.662 423.838 231.251C423.62 232.434 424.25 233.643 425.303 233.84C426.357 234.024 427.289 232.263 427.386 230.043C427.52 227.284 426.526 225.956 424.383 225.851C417.916 225.746 425.787 206.577 432.835 205.25C436.686 204.501 445.926 211.32 445.345 214.447C444.691 217.968 442.112 217.705 481.057 218.06C510.06 218.336 514.601 217.942 515.11 215.183C515.449 213.383 517.568 210.689 519.785 209.165C521.989 207.654 524.41 205.001 525.258 203.319C526.311 201.046 526.627 200.941 526.409 202.978C526.215 204.489 528.637 207.642 531.773 209.928C535.442 212.621 537.186 215.262 536.75 217.653C536.387 219.585 537.174 221.187 538.397 221.2C539.887 221.161 540.419 223.644 540.02 227.914C539.499 233.603 539.959 234.852 543.326 235.482C546.85 236.139 547.431 235.456 547.613 230.7C547.794 226.022 548.291 225.431 550.701 226.955C553.28 228.505 553.619 227.875 553.716 221.568C553.801 216.09 554.116 215.236 555.181 217.824C556.102 220.307 556.501 289.034 555.665 294.382C555.593 294.75 558.221 295.236 561.418 295.446C567.352 295.998 567.351 295.998 568.308 286.998C568.938 282.005 569.047 277.249 568.672 276.251C568.393 275.344 568.381 271.626 568.744 268C569.786 258.593 570.912 232.946 570.391 229.123C570.149 227.087 571.3 225.839 573.843 225.458C578.105 224.919 581.568 227.178 579.728 229.241C578.153 230.962 578.469 249.632 580.116 252.102C580.685 253.14 580.684 254.901 579.982 256.096C579.243 257.187 579.074 261.878 579.473 266.345C579.958 270.851 580.273 275.318 580.249 276.304C579.11 295.788 579.728 297.062 589.925 296.248C594.163 295.88 594.405 295.446 595.386 282.978C596.016 275.896 596.222 269.287 595.798 268.302C595.459 267.238 595.81 261.181 596.682 254.783C597.493 248.371 597.517 241.959 596.694 240.488C595.906 239.043 595.846 237.164 596.621 236.323C598.752 234.01 599.128 208.272 597.082 206.433C594.648 204.121 596.936 203.082 604.081 203.24C610.318 203.319 610.317 203.319 609.869 218.612C609.639 226.995 610.087 234.943 610.838 236.323C611.589 237.689 611.71 239.489 610.971 240.212C609.688 241.67 610.511 258.895 612.098 262.902C612.57 264.137 612.582 268.631 612.049 272.704C610.717 284.121 612.206 296.063 614.98 296.576C616.542 296.865 617.559 300.136 617.62 304.853C617.704 311.436 617.208 312.815 614.471 313.394C612.715 313.683 594.381 313.919 573.867 313.735C553.28 313.551 529.799 313.459 521.782 313.433C501.087 313.38 479.18 313.262 377.53 312.342C363.894 312.211 350.125 312.211 346.952 312.237C341.358 312.447 341.237 312.263 341.624 304.446ZM412.031 294.106C415.398 292.7 415.797 281.348 412.636 277.525C409.476 273.767 407.381 277.157 407.078 286.695C406.775 295.065 407.381 295.945 412.031 294.106ZM435.669 294.618C439.399 295.315 439.738 294.75 439.823 288.43C439.908 282.124 436.008 274.438 432.412 273.768C428.682 273.085 423.644 281.099 423.656 287.747C423.644 293.541 424.262 294.5 427.616 294.198C429.82 294.08 433.404 294.211 435.669 294.618ZM482.45 295.17C489.243 295.118 495.25 294.855 495.698 294.54C497.478 293.252 496.86 262.456 495.044 258.028C492.682 252.431 482.946 245.743 478.042 246.4C471.49 247.175 463.571 255.361 462.202 262.758C461.064 268.88 460.664 285.119 461.476 291.597C461.863 294.54 466.586 295.328 482.45 295.17ZM533.008 295.289C533.396 294.96 533.759 291.702 533.747 288.01C533.759 272.94 518.549 273.36 517.689 288.351C517.314 295.381 517.314 295.38 524.774 295.59C528.927 295.669 532.597 295.499 533.008 295.289ZM549.889 295.551C551.694 295.879 551.221 280.81 549.417 278.077C546.619 274.018 543.301 279.036 542.986 287.786C542.768 294.382 543.362 296.195 545.59 295.84C547.189 295.525 549.15 295.406 549.889 295.551ZM412.164 267.172C414.247 266.791 414.974 264.899 414.998 259.434C415.034 243.365 407.817 242.708 407.078 258.737C406.679 267.224 407.211 268.092 412.164 267.172ZM530.392 268.683C538.373 268.079 534.885 248.594 526.517 247.031C522.63 246.321 518.488 253.653 518.513 261.076C518.464 267.947 520.886 269.471 530.392 268.683ZM551.5 262.245C551.815 249.33 545.808 244.206 544.052 255.768C542.696 264.387 543.834 268.617 547.709 269.34C551.003 269.944 551.366 269.248 551.5 262.245ZM406.933 229.977C406.654 228.598 406.073 229.583 405.637 231.974C405.177 234.431 405.37 235.535 406.121 234.365C406.775 233.262 407.151 231.238 406.933 229.977ZM436.687 229.911C436.699 227.678 435.621 225.628 434.132 225.353C432.715 225.09 430.898 226.6 430.183 228.702C429.178 231.685 429.748 232.802 432.654 233.34C435.633 233.892 436.554 233.051 436.687 229.911ZM443.916 232.184C444.061 231.435 443.65 229.504 443.008 227.914C441.494 224.314 438.733 225.904 439.472 229.898C440.005 232.841 443.541 234.667 443.916 232.184ZM521.031 233.262C521.673 229.846 520.123 225.681 518.452 226.377C515.473 227.455 515.206 233.893 518.04 234.418C519.53 234.694 520.874 234.168 521.031 233.262ZM527.885 234.615C531.155 233.288 530.646 225.155 527.316 225.628C524.858 225.944 521.48 235.048 523.708 235.469C524.531 235.613 526.396 235.193 527.885 234.615ZM537.997 230.936C538.324 229.215 538.215 227.179 537.658 226.456C535.902 223.907 533.844 226.233 533.917 230.87C533.905 235.968 537.065 235.995 537.997 230.936ZM553.74 235.627C553.91 234.733 553.317 233.301 552.457 232.526C551.597 231.75 550.628 232.342 550.35 233.84C550.059 235.403 550.652 236.836 551.621 237.02C552.602 237.203 553.57 236.533 553.74 235.627ZM436.118 267.119C442.318 268.052 441.785 251.011 435.475 247.622C430.159 244.784 425.315 248.831 424.346 256.911C423.365 265.53 424.14 267.211 428.984 266.883C431.152 266.659 434.301 266.804 436.044 267.106L436.118 267.119ZM512.761 423.31C508.244 415.992 514.48 404.838 522.243 406.283C527.329 407.229 531.688 413.693 530.755 418.751C529.024 428.106 517.532 430.983 512.761 423.31ZM525.04 418.331C526.929 411.564 523.09 408.004 517.871 411.656C515.049 413.535 514.735 414.783 515.716 418.988C517.52 426.03 522.908 425.649 525.04 418.331ZM424.468 425.018C420.556 421.51 420.714 413.587 424.843 409.252C428.403 405.494 432.763 405.245 437.825 408.333C442.33 411.105 440.102 413.246 434.143 411.591C428.682 410.198 428.415 410.369 427.301 416.347C426.393 421.287 426.889 422.758 429.808 423.756C431.915 424.453 434.156 423.941 435.076 422.416C436.069 420.814 435.669 419.684 434.022 419.368C432.581 419.106 431.54 418.147 431.721 417.162C431.903 416.189 434.059 415.743 436.529 416.202C439.811 416.807 440.755 417.989 440.295 420.538C439.92 422.548 439.738 424.689 439.847 425.399C440.041 426.043 438.854 426.595 437.304 426.621C435.839 426.647 432.86 426.792 430.837 426.962C428.767 427.199 425.933 426.292 424.468 425.018ZM503.533 423.52C502.745 414.809 503.594 406.546 505.156 406.835C507.105 407.189 507.566 410.067 507.396 420.617C507.287 427.462 504.041 429.958 503.533 423.52ZM585.335 349.393C585.141 347.041 585.347 340.577 585.662 335.006C586.389 324.955 586.388 324.955 593.461 325.1C604.081 325.284 604.795 325.573 606.999 330.854C609.93 337.883 606.782 342.403 598.341 343.31C592.044 343.993 591.317 344.558 591.123 349.38C590.905 355.91 585.734 355.962 585.335 349.393ZM601.054 335.86C602.277 332.523 598.535 329.357 594.308 330.119C592.625 330.421 591.704 332.103 591.862 334.533C592.213 339.382 599.286 340.393 601.054 335.86ZM617.317 352.217C609.106 346.922 610.123 331.511 618.927 326.886C630.65 320.724 641.161 329.449 638.606 343.192C636.753 353.216 625.939 357.775 617.317 352.217ZM629.342 347.829C636.414 342.942 634.246 330.578 626.266 330.171C619.908 329.921 616.009 337.226 618.915 344.032C621.374 349.971 624.644 351.101 629.342 347.829ZM644.334 346.568C644.394 342.81 644.31 336.622 644.237 332.891C644.104 327.307 644.673 325.954 647.107 325.691C662.898 324.298 669.704 327.557 667.404 335.4C666.629 337.962 666.301 340.919 666.737 341.996C667.149 343.087 667.549 346.332 667.718 349.144C668.082 355.923 662.79 355.253 661.603 348.302C660.852 344.466 659.689 343.322 655.717 343.047C651.2 342.758 650.643 343.349 650.207 348.591C649.493 357.42 644.273 355.594 644.334 346.568ZM659.641 338.133C663.734 336.425 661.893 330.973 656.88 330.053C651.818 329.107 649.626 330.881 650.449 335.203C651.067 338.488 655.293 339.881 659.641 338.133ZM365.796 421.931C364.791 411.012 365.457 407.123 368.254 406.572C370.252 406.23 371.874 408.227 373.412 413.299C375.604 420.21 375.75 420.315 376.658 415.834C379.31 402.827 385.377 402.945 385.728 416.057C386.116 427.724 386.225 427.12 383.016 426.529C381.369 426.226 380.654 424.23 381.09 421.076C381.853 416.189 381.757 416.254 378.911 421.602C377.264 424.61 375.447 426.963 374.769 426.845C374.103 426.713 372.71 423.77 371.584 420.235L369.671 413.929L369.501 419.854C369.295 425.99 366.28 427.659 365.796 421.931ZM197.493 256.806C200.363 248.056 200.363 248.056 193.448 243.221L186.606 238.491L195.701 237.308C202.179 236.52 205.219 235.141 206.042 232.749C210.329 220.491 210.596 220.373 213.454 228.637C216.045 236.297 216.336 236.428 225.031 237.426L233.956 238.451L226.895 243.562C219.787 248.66 219.787 248.66 222.269 256.911C224.558 264.597 224.474 265.044 221.713 263.231C209.3 255.203 210.135 255.295 202.203 260.603L194.647 265.556L197.493 256.806ZM679.683 345.859C680.228 331.604 679.889 330.539 674.815 330.828C671.606 331.077 670.418 330.408 670.77 328.529C671.096 326.755 674.729 325.862 681.717 325.691C695.038 325.533 695.268 325.573 694.674 328.792C694.384 330.355 692.531 331.183 690.424 330.789C686.852 330.132 686.585 330.696 685.98 340.55C685.629 346.279 685.386 351.784 685.374 352.717C685.338 353.637 683.958 354.464 682.323 354.543C679.986 354.661 679.344 352.678 679.683 345.859ZM739.905 259.696C742.606 251.025 742.606 251.025 735.679 246.256L728.776 241.42L737.943 240.33C744.409 239.528 747.462 238.162 748.297 235.679C752.487 223.486 752.766 223.303 755.684 231.659C758.312 239.24 758.493 239.437 767.261 240.448L776.186 241.486L769.078 246.571C762.03 251.603 762.029 251.603 764.5 259.946C766.728 267.54 766.716 268.065 763.967 266.252C751.858 258.593 751.857 258.592 744.361 263.625L737.241 268.315L739.905 259.696ZM443.674 204.252C442.257 197.748 444.158 185.425 447.101 182.035C448.191 180.774 454.415 175.571 460.918 170.447C475.922 158.635 478.599 155.955 478.49 153.091C478.441 151.777 479.168 150.738 480.185 150.686C481.19 150.712 481.614 151.724 481.154 152.893C480.633 154.102 486.506 160.29 494.135 166.649C501.777 173.008 509.866 180.537 512.228 183.283C519.53 192.217 518.185 212.358 510.35 210.9C508.558 210.571 495.698 210.335 481.711 210.374C467.736 210.335 453.677 210.361 450.576 210.322C445.587 210.243 444.8 209.481 443.674 204.252ZM570.33 220.241C569.991 217.548 570.864 215.236 572.801 213.974C575.381 212.214 576.192 212.45 578.36 216.09C580.854 220.11 580.83 220.241 577.403 220.859C575.417 221.174 573.152 222.146 572.377 223.013C571.541 223.789 570.682 222.54 570.33 220.241ZM599.043 196.133C596.415 194.556 599.273 188.289 603.427 186.66C606.358 185.503 611.31 193.767 609.518 196.829C608.198 198.918 603.161 198.603 599.043 196.133ZM370.083 130.361C369.84 115.882 370.494 81.5378 371.1 81.1962C373.013 80.0006 383.706 80.6839 383.476 81.9452C383.318 82.7598 383.137 94.939 383.088 108.984C382.943 123.095 382.64 134.789 382.204 134.999C381.853 135.248 379.02 135.498 375.92 135.616C370.724 135.656 370.204 135.169 370.083 130.361ZM396.094 133.028C396.239 132.2 396.361 120.401 396.385 106.895C396.349 93.3624 397.075 81.8403 397.875 81.2885C398.759 80.7629 401.665 80.448 404.353 80.5531C408.543 80.8816 411.05 83.575 420.544 98.6185L431.782 116.302L431.867 102.507C432.097 82.6153 432.508 81.1438 438.224 80.8153C440.852 80.6708 443.238 80.8153 443.48 81.1569C444.086 82.0504 443.674 134.722 443.068 135.09C442.802 135.274 439.98 135.445 436.868 135.563C431.515 135.655 430.559 134.631 420.871 118.536C415.204 109.064 410.057 101.009 409.427 100.655C408.894 100.234 408.447 105.095 408.495 111.533C408.774 138.783 409.257 137.009 402.088 135.682C398.649 135.038 395.937 133.842 396.094 133.028ZM457.212 127.049C457.394 122.753 457.6 110.758 457.697 100.326C457.697 89.907 458.375 81.2358 459.053 80.8811C459.78 80.6446 467.349 80.7233 475.934 81.0912C490.442 81.6036 491.92 81.9589 496.824 86.2683C503.969 92.3777 507.02 101.679 505.494 112.059C502.879 129.034 495.092 135.222 475.705 135.721C457.612 136.247 456.946 135.957 457.212 127.049ZM482.861 125.001C489.013 123.831 493.857 115.212 493.033 106.724C492.101 97.2908 488.601 92.7715 481.263 91.484C470.873 89.6446 470.424 90.3277 470.206 108.288C470.061 125.723 471.115 127.077 482.861 125.001ZM517.072 131.661C516.709 128.272 516.878 114.857 517.35 94.7156C517.725 81.1042 518.416 79.9221 525.197 81.1834C530.126 82.09 530.175 82.3266 529.969 100.064C529.545 136.444 529.63 135.143 526.76 135.695C521.48 136.654 517.387 134.959 517.072 131.661ZM538.639 132.017C539.487 130.401 544.21 118.615 549.199 105.857C554.176 93.1919 558.996 82.261 559.783 81.7223C560.667 81.1179 563.864 80.934 567.061 81.2099C572.608 81.696 573.092 82.4838 582.635 108.432C591.003 131.228 591.971 135.182 589.174 135.668C582.356 137.035 578.444 135.222 577.136 130.203C575.937 125.355 575.38 125.093 566.516 124.593C554.733 124.028 554.043 124.304 552.917 130.414C551.924 135.735 549.042 137.114 541.582 135.734C538.228 135.104 537.537 134.211 538.639 132.017ZM570.84 113.268C571.009 112.374 569.992 107.933 568.647 103.44L566.08 95.2417L562.423 103.756C560.389 108.407 558.899 112.755 559.093 113.412C559.613 115.199 570.501 115.147 570.84 113.268ZM303.902 349.918C303.539 348.998 303.515 344.124 303.745 339.144C303.987 334.086 303.999 328.607 303.83 326.965C303.491 323.418 305.682 322.813 317.356 323.194C324.332 323.431 325.7 323.97 325.288 326.217C324.925 328.161 322.721 328.844 318.022 328.345C313.094 327.833 310.962 328.502 309.981 330.867C308.904 333.836 309.606 334.205 316.302 334.349C322.285 334.48 323.653 335.02 323.241 337.201C322.975 338.698 321.256 339.605 319.403 339.263C313.578 338.173 309.981 339.605 309.303 343.257C308.746 346.319 309.509 346.778 316.884 346.975C322.188 347.185 324.973 347.947 324.755 349.13C324.561 350.181 323.738 351.272 322.915 351.574C319.73 352.849 304.459 351.482 303.902 349.918ZM332.59 338.934C328.618 324.994 328.509 322.577 331.948 323.208C333.208 323.445 335.509 327.806 337.035 332.878L339.868 342.128L342.133 332.891C345.221 320.41 349.992 320.908 352.971 333.968C354.993 343.152 354.994 343.152 356.362 336.911C358.263 327.938 360.939 323.089 363.7 323.602C366.776 324.167 360.092 350.602 356.568 352.099C352.789 353.715 352.233 352.993 349.678 342.561L347.219 332.457L344.809 342.587C341.297 356.921 337.289 355.62 332.59 338.934ZM357.367 416.123C357.742 407.859 359.232 403.576 360.94 405.981C361.242 406.493 361.509 411.249 361.545 416.518C361.46 424.072 361.012 426.069 359.22 425.74C357.876 425.491 357.1 421.72 357.367 416.123ZM490.115 426.74C489.57 425.951 489.389 423.52 489.8 421.287C490.89 415.453 489.812 411.328 486.967 410.802C483.007 410.067 484.69 407.294 489.304 406.9C495.601 406.362 499.779 407.452 499.416 409.462C499.234 410.435 497.987 410.986 496.642 410.737C494.778 410.382 494.22 412.064 494.184 418.16C494.184 425.583 492.247 429.853 490.115 426.74ZM533.928 417.503C534.195 412.366 534.958 407.806 535.588 407.294C536.278 406.887 539.075 409.712 541.836 413.548L546.85 420.669L547.019 413.982C547.104 409.659 547.843 407.412 549.054 407.636C550.156 407.833 550.967 411.065 550.798 414.836C550.713 418.594 550.725 423.153 550.713 424.926C550.809 430.129 546.365 427.843 542.296 420.683L538.53 413.943L538.034 420.735C537.743 425.228 536.871 427.462 535.527 427.212C534.328 426.989 533.662 422.693 533.928 417.503ZM467.227 418.882C472.604 403.274 474.13 403.024 479.459 416.741C482.05 423.546 482.534 426.818 480.948 427.462C479.701 427.922 478.502 427.304 478.332 426.121C477.884 422.771 469.48 421.772 468.887 424.991C468.633 426.397 467.506 427.435 466.452 427.238C465.12 427.002 465.375 424.335 467.227 418.882ZM475.729 418.068C475.911 417.095 475.305 415.729 474.445 414.967C473.597 414.192 472.641 414.783 472.362 416.281C472.084 417.766 472.665 419.197 473.622 419.381C474.603 419.552 475.559 418.961 475.729 418.068ZM321.025 468.493C321.655 465.051 332.239 450.02 333.401 450.848C334.927 451.82 344.979 468.44 344.761 469.57C344.688 470.004 340.474 470.24 335.424 469.912C330.447 469.689 325.046 469.689 323.508 470.017C321.91 470.28 320.819 469.597 321.025 468.493ZM111.791 406.69L103.206 398.833L114.431 396.205C120.571 394.707 125.875 393.538 126.178 393.591C126.408 393.644 126.02 398.596 125.257 404.456C124.446 410.868 123.199 415.138 122.146 414.941C121.189 414.678 116.466 411.013 111.791 406.69ZM414.744 469.177C415.216 466.628 425.981 451.019 427.108 451.229C427.774 451.361 431.14 455.683 434.604 460.807C440.78 469.978 440.743 470.135 436.384 470.319C424.904 470.976 414.526 470.359 414.744 469.177ZM150.822 434.845C145.857 432.007 141.497 429.262 141.206 428.815C140.552 427.777 159.105 418.147 161.03 418.502C161.709 418.633 162.616 423.743 162.943 429.84C163.634 442.479 163.852 442.439 150.822 434.845ZM213.26 450.914C211.601 444.962 210.717 439.693 211.238 439.326C212.388 438.55 233.411 444.752 233.217 445.803C233.06 446.605 217.244 461.99 216.65 461.885C216.42 461.832 214.931 456.931 213.26 450.914ZM567.291 470.017C567.788 467.337 578.493 451.703 579.68 451.926C580.37 452.057 583.664 456.301 587.115 461.412L593.364 470.675L582.525 470.766C576.567 470.805 570.658 471.043 569.398 471.187C568.042 471.41 567.134 470.845 567.291 470.017ZM596.355 461.136L590.227 451.334L602.894 451.282C609.918 451.361 615.827 451.61 616.045 452.017C616.663 452.832 604.226 471.147 603.281 470.976C602.894 470.897 599.782 466.47 596.355 461.136ZM615.113 469.926C615.682 466.864 626.363 451.387 627.78 451.65C629.572 451.979 639.405 468.099 639.03 470.109C638.885 470.924 634.84 471.502 630.081 471.318C625.273 471.042 619.933 471.056 618.116 471.253C616.324 471.397 614.955 470.819 615.113 469.926ZM644.358 462.292C638.655 452.202 638.557 451.86 642.76 451.716C649.844 451.348 664.581 451.532 664.497 451.965C664.46 452.202 661.155 456.984 657.28 462.542L650.207 472.737L644.358 462.292ZM663.322 468.677C663.613 467.56 666.313 462.962 669.377 458.508L674.96 450.507L681.79 460.807C688.584 471.187 688.584 471.187 682.541 471.226C667.319 471.331 662.777 470.727 663.322 468.677ZM68.8133 354.228C69.6974 352.454 72.5921 347.593 75.2563 343.283L80.0274 335.452L86.0941 344.439C89.4243 349.393 92.0525 353.886 91.9436 354.503C91.8467 355.016 87.7778 355.725 82.9218 356.08C78.0173 356.317 72.531 356.697 70.5813 356.868C67.8808 357.223 67.4691 356.593 68.8133 354.228ZM691.405 461.819L684.369 451.479L694.735 450.48C711.204 448.798 710.768 448.181 703.406 462.502L698.428 472.238L691.405 461.819ZM711.18 463.869C714.232 456.564 718.712 448.273 719.463 448.418C721.025 448.707 734.213 462.949 733.995 464.079C733.777 465.261 713.784 469.453 710.805 468.901C709.897 468.73 710.091 466.444 711.18 463.869ZM58.1086 334.546C55.5413 328.752 53.5189 323.431 53.6642 322.696C53.9791 320.975 72.047 324.324 74.3479 326.518C76.1765 328.253 66.4521 345.74 63.9817 345.294C63.3156 345.162 60.7243 340.367 58.1086 334.546ZM735.364 453.83L728.11 445.921L739.978 442.702C746.541 440.994 752.099 439.851 752.342 440.206C753.565 441.98 746.335 462.594 744.627 462.2C743.574 462.003 739.421 458.206 735.364 453.83ZM756.58 454.816C757.585 452.688 759.075 447.642 759.85 443.464L761.255 435.91L770.119 442.571C775.024 446.197 778.91 449.758 778.777 450.454C778.535 451.795 758.384 459.244 756.144 458.837C755.405 458.692 755.659 456.905 756.58 454.816ZM51.0004 310.831C54.5486 304.998 64.6601 295.446 65.5804 297.075C66.1738 298.035 68.0994 303.119 69.9279 308.243L73.1372 317.558L61.3415 315.377C51.8595 313.617 49.8015 312.697 51.0004 310.831ZM780.219 440.666C775.98 437.644 772.795 434.426 773.134 433.48C773.921 431.233 791.771 422.955 792.716 424.44C794.326 426.673 791.541 447.025 789.713 446.526C788.756 446.263 784.457 443.609 780.219 440.666ZM45.9137 298.218C45.6352 296.405 44.5818 290.795 43.6372 285.829C42.7411 280.797 42.0028 276.408 42.0755 276.053C42.136 275.738 46.7498 277.525 52.3567 280.113C57.9878 282.702 62.4079 285.539 62.2262 286.485C61.9114 288.207 48.2388 301.911 47.052 301.687C46.6645 301.622 46.1923 300.044 45.9137 298.218ZM680.639 51.8976C684.236 46.6816 687.457 42.2011 687.893 41.8858C688.85 41.2945 700.148 60.7665 699.833 62.4877C699.7 63.2366 696.527 63.2621 692.725 62.5526C688.922 61.8563 683.219 61.3307 679.973 61.357C674.16 61.4358 674.16 61.4362 680.639 51.8976ZM753.552 65.6408C752.075 59.5051 751.167 54.394 751.433 54.1181C752.729 53.4481 775.411 61.9616 775.205 63.0915C775.096 63.6827 770.748 67.0597 765.565 70.502L756.193 76.8739L753.552 65.6408ZM727.008 67.6111C724.841 66.8096 723.193 65.6536 723.29 65.1412C723.424 64.3923 733.45 54.8803 738.948 50.3475C739.747 49.7169 742.036 54.4725 744.155 60.9761L747.837 72.7746L739.348 70.9614C734.673 69.9366 729.079 68.4519 727.008 67.6111ZM707.038 54.4726C704.919 49.2172 703.2 44.3297 703.321 43.6596C703.43 43.0684 709.146 43.5151 716.024 44.7895C722.89 46.0639 728.376 47.6933 728.243 48.4422C727.88 50.3867 713.433 64.5373 712.173 64.3008C711.507 64.1825 709.206 59.8199 707.038 54.4726ZM276.364 50.5047C273.361 45.4595 271.217 41.1241 271.653 40.9139C273.3 39.9679 294.311 40.3091 295.001 41.2025C295.837 42.5295 284.308 60.556 282.94 60.0699C282.286 59.8597 279.368 55.5499 276.364 50.5047ZM293.766 59.5968C294.178 57.3632 305.416 40.4412 306.397 40.6252C306.99 40.7303 310.357 45.0524 313.82 50.1896L320.056 59.4524L312.851 59.8991C302.619 60.556 293.609 60.4245 293.766 59.5968ZM323.133 50.2946C318.725 43.6859 317.647 40.769 319.536 40.5851C324.901 39.8887 342.436 40.3487 342.993 41.0582C343.732 42.1224 331.779 60.0038 330.483 59.8462C329.89 59.7279 326.669 55.4186 323.133 50.2946ZM341.697 59.3738C342.181 56.7461 353.371 40.1383 354.485 40.3485C355.224 40.4799 358.481 45.0134 361.727 50.4133C367.564 60.2278 367.564 60.2276 361.448 60.2407C347.062 60.4378 341.551 60.1884 341.697 59.3738ZM800.745 437.355C800.587 426.989 801.568 417.595 802.731 417.897C803.482 418.028 808.604 420.446 813.969 423.218L823.826 428.29L812.322 434.951C801.35 441.271 800.769 441.402 800.745 437.355ZM822.385 418.58C817.674 416.544 812.891 414.428 811.692 413.758C810.493 413.141 813.823 409.816 819.999 405.625L830.329 398.662L831.625 408.253C833.55 422.114 832.763 423.06 822.385 418.58ZM51.7994 271.508C46.5679 268.907 41.881 266.187 41.4088 265.491C40.9001 264.781 44.8363 261.496 50.092 258.212C55.3356 254.861 59.9974 252.641 60.3607 253.153C61.0873 254.217 62.3594 275.777 61.6933 276.053C61.5117 276.172 57.0308 274.096 51.7994 271.508ZM839.266 407.504C838.539 403.957 837.776 398.873 837.595 396.153C837.316 391.371 837.583 391.213 843.48 392.303C846.835 392.921 851.993 394.339 854.936 395.496C860.18 397.637 860.179 397.637 851.158 405.849C846.217 410.408 841.785 413.995 841.398 413.929C840.962 413.837 840.029 410.96 839.266 407.504ZM41.2395 245.914C41.4938 241.184 41.6513 235.338 41.615 233.091C41.506 227.809 42.3174 228.046 52.8408 236.244L61.4753 242.945L51.1334 248.844L40.779 254.638L41.2395 245.914ZM851.328 376.668C855.179 372.149 858.969 368.286 859.756 368.207C861.112 368.063 868.027 386.115 867.603 388.428C867.506 388.94 862.214 388.361 855.869 387.179L844.207 385.024L851.328 376.668ZM53.7973 227.31C42.2687 218.231 42.3537 217.39 54.9843 213.462L66.307 209.848L64.1879 221.28C63.0253 227.547 61.6324 232.631 61.1723 232.552C60.6515 232.447 57.3702 230.134 53.8704 227.323L53.7973 227.31ZM869.517 370.152C867.337 364.029 865.811 358.892 866.174 358.656C868.27 357.263 887.572 359.838 887.269 361.48C886.954 363.122 874.458 381.517 873.779 381.307C873.658 381.201 871.721 376.222 869.517 370.152ZM50.0314 196.014C52.078 189.537 54.1852 184.044 54.6938 183.742C55.5052 183.125 67.966 198.484 68.4504 200.757C68.6805 201.651 48.7114 208.128 46.6891 207.747C46.3984 207.694 47.9122 202.425 50.0314 196.014ZM871.515 349.366C872.302 348.131 875.087 343.007 877.884 337.949L882.898 328.858L888.94 339.092C892.319 344.663 894.996 349.866 894.887 350.457C894.765 351.127 891.568 351.613 887.79 351.613C883.951 351.508 878.454 351.508 875.523 351.574C871.502 351.6 870.497 351.114 871.515 349.366ZM63.6062 180.694L57.297 171.418L64.587 170.827C79.5306 169.75 82.0014 169.802 81.7229 171.313C80.7299 175.767 73.3185 189.537 71.7321 189.773C70.7028 189.905 67.0454 185.818 63.6062 180.694ZM891.593 330.224L885.368 320.961L896.352 318.36C902.406 316.928 907.65 316.14 907.953 316.573C908.801 317.821 900.021 340.222 898.859 339.762C898.289 339.578 894.996 335.269 891.593 330.224ZM65.2293 161.066C65.9196 157.334 76.4183 141.528 77.9925 141.817C79.8696 142.159 87.3538 160.54 86.1791 161.854C85.6705 162.458 81.9773 162.865 77.9689 162.734C74.0574 162.615 69.4677 162.853 67.7845 163.155C65.859 163.496 64.9266 162.708 65.2293 161.066ZM797.439 87.2274C795.877 72.3283 795.974 72.2096 806.388 78.1482C821.235 86.4517 821.222 86.5309 809.234 92.0228L798.516 96.9233L797.439 87.2274ZM891.75 301.529C893.47 295.577 895.262 290.506 895.771 290.204C896.751 289.481 912.543 304.367 912.361 305.799C912.252 306.391 906.827 308.099 900.372 309.531L888.517 312.276L891.75 301.529ZM87.3898 141.988C85.1979 136.72 83.5516 131.872 83.6727 131.202C83.7938 130.584 89.0253 131.031 95.3709 132.2C101.801 133.396 106.887 134.736 106.802 135.17C106.463 137.048 93.5539 152.04 92.4277 151.829C91.7616 151.698 89.4848 147.323 87.3898 141.988ZM905.132 287.629C900.554 283.595 896.921 279.838 897.054 279.102C897.345 277.526 915.425 268.761 916.164 269.826C916.878 270.969 914.868 295.157 914.129 294.934C913.754 294.868 909.733 291.57 905.132 287.629ZM92.5371 122.951C92.9488 120.783 109.031 105.227 110.52 105.503C111.271 105.647 112.506 109.431 113.148 113.859C113.874 118.247 114.698 123.424 115.122 125.289C115.727 128.245 114.565 128.337 104.029 126.393C97.5987 125.197 92.416 123.621 92.5371 122.951ZM896.958 264.715C896.836 261.917 896.715 256.412 896.57 252.589C896.424 248.778 896.909 245.783 897.648 245.927C898.835 246.151 906.984 250.578 915.836 255.781C918.682 257.463 915.982 259.907 904.865 265.793C897.066 269.905 897.066 269.905 896.945 264.794L896.958 264.715ZM120.038 107.106L118.234 95.5833L129.811 98.9594C136.193 100.825 141.703 102.783 141.993 103.23C142.599 104.11 124.47 118.588 122.763 118.667C122.23 118.654 121.007 113.478 120.038 107.106ZM905.374 241.408L895.771 235.981L903.436 228.926C907.626 224.971 911.671 221.949 912.446 222.33C914.093 223.013 917.011 242.314 915.836 244.889C915.291 246.098 911.816 244.916 905.374 241.408ZM136.024 93.0084L127.752 89.3028L152.19 74.0488L151.935 82.1297C151.391 100.024 151.585 99.8273 136.024 93.0084ZM159.783 83.9684C160.655 66.3628 160.291 66.5998 171.65 73.2742C177.136 76.5194 181.508 79.6461 181.387 80.2636C181.266 80.9337 176.252 83.8501 170.282 86.8457L159.383 92.3115L159.783 83.9684ZM891.436 216.102C889.91 210.098 888.795 204.501 888.94 203.752C889.243 202.11 908.752 207.261 910.29 209.415C910.847 210.125 907.432 214.355 902.746 218.835L894.124 226.955L891.436 216.102ZM180.696 69.9238L172.631 64.2607L183.47 59.5438C189.428 56.9556 194.974 54.9586 195.725 55.09C196.476 55.2346 196.173 60.1222 195.083 66.0345C192.83 78.2008 192.503 78.201 180.696 69.9238ZM204.674 61.778C206.249 55.8131 207.822 50.6104 208.198 50.3082C209.009 49.6907 226.665 64.3922 226.459 65.5221C226.338 66.179 203.814 73.1293 202.47 72.8796C202.168 72.8139 203.173 67.8217 204.674 61.778ZM889.135 195.213C887.04 194.359 885.393 193.294 885.477 192.834C885.901 190.588 896.582 175.807 897.635 176.004C898.895 176.24 906.827 196.408 906.452 198.418C906.209 199.771 895.759 197.762 889.135 195.213ZM875.632 176.333C868.487 162.8 867.724 163.588 887.608 163.877L894.523 163.995L888.723 173.653C885.49 179.013 882.341 183.822 881.627 184.4C880.997 184.899 878.259 181.312 875.632 176.333ZM228.845 57.2191C219.581 48.863 219.533 48.6921 220.78 47.8512C221.301 47.4702 227.428 46.1429 234.21 44.921L246.768 42.7005L242.529 52.9489C240.192 58.5459 237.976 63.4725 237.528 63.7747C237.092 64.0901 233.156 61.095 228.845 57.2191ZM251.624 53.9473C260.028 37.8264 259.047 38.1021 266.87 49.6771L273.906 60.017L263.528 61.0162C247.616 62.6322 247.204 62.3954 251.624 53.9473ZM170.694 434.359L170.088 422.574L180.442 427.212C186.134 429.8 191.014 432.257 191.389 432.717C192.14 433.624 174.048 446.644 172.401 446.341C171.808 446.236 171.033 440.85 170.694 434.359ZM194.78 454.816C181.435 450.112 181.641 450.691 191.765 442.282L200.98 434.727L204.153 445.133C205.933 450.861 207.253 456.209 207.12 456.944C207.023 458.311 202.543 457.562 194.78 454.816ZM132.148 412.616C132.669 406.467 133.504 401.119 133.953 400.83C135.188 400.055 153.049 411.946 152.795 413.365C152.601 414.389 143.676 418.777 133.335 422.968C131.809 423.612 131.422 420.354 132.148 412.616ZM257.497 459.033C254.821 453.83 253.392 449.074 254.336 448.562C255.208 448.023 260.622 448.024 266.398 448.483C276.595 449.364 276.873 449.574 274.972 453.069C272.465 457.864 264.109 468.835 263.128 468.651C262.668 468.572 260.15 464.223 257.497 459.033ZM234.513 455.092C239.09 450.362 243.038 446.539 243.268 446.578C244.019 446.723 253.283 466.746 253.101 467.705C253.004 468.244 246.889 467.482 239.574 466.129L226.205 463.645L234.513 455.092ZM279.404 459.611C282.988 454.395 286.234 449.837 286.67 449.6C287.033 449.272 289.951 453.542 293.124 458.981C299.615 470.162 299.252 470.464 282.116 469.623L272.925 469.15L279.404 459.611ZM508.595 469.19C508.692 468.664 511.622 464.027 515.206 458.903L521.661 449.442L527.874 459.782L533.989 470.109L525.222 470.648C515.8 471.134 508.341 470.516 508.595 469.19ZM537.925 461.333C531.434 450.087 531.071 450.414 549.272 450.993L557.93 451.374L552.457 460.098C549.466 464.933 546.244 469.36 545.348 470.044C544.379 470.714 541.086 466.786 537.925 461.333ZM81.1176 373.344C74.8205 363.99 74.8205 363.989 79.4464 363.227C87.6569 361.822 97.8286 362.295 97.4774 364.174C96.666 368.588 89.8602 383.225 88.7461 383.015C88.0074 382.883 84.6294 378.56 81.1176 373.344ZM485.089 59.689C485.561 57.1401 496.582 40.953 497.696 41.1633C498.301 41.2684 501.607 45.5257 504.974 50.6234C511.768 60.7006 511.973 60.4906 497.829 60.5037C494.281 60.4643 489.909 60.6613 488.129 60.7796C486.313 60.9767 484.944 60.4379 485.089 59.689ZM836.057 111.901C838.443 98.9994 837.607 98.9864 851.449 111.757C858.448 118.156 857.661 119.101 843.916 121.545L833.938 123.345L836.057 111.901ZM514.468 50.7549C509.915 44.0411 508.898 41.2427 510.799 40.9668C514.686 40.3756 533.626 40.7166 534.05 41.3341C534.8 42.3194 523.15 60.5558 521.891 60.3193C521.273 60.201 517.907 55.9578 514.468 50.7549ZM533.081 59.0715C533.638 56.0102 544.307 40.6118 545.723 40.8746C546.474 41.006 549.72 45.5383 552.965 50.9514C558.814 60.6739 558.814 60.6742 552.687 60.7924C536.617 60.8975 532.802 60.5562 533.081 59.0715ZM815.906 107.631L806.364 100.772L817.856 96.2529C824.274 93.7435 829.566 91.8646 829.675 92.1143C830.535 93.8223 827.798 115.186 826.696 114.818C826.042 114.621 821.162 111.402 815.906 107.631ZM561.805 50.3339L556.61 41.3477L565.935 41.0718C576.943 40.7828 582.816 41.6498 581.629 43.4367C581.194 44.1199 578.517 48.193 575.708 52.463C572.837 56.7067 569.762 59.9912 568.793 59.7547C567.824 59.5839 564.675 55.3528 561.805 50.3339ZM581.992 57.2584C587.393 48.2191 592.77 40.3884 593.521 40.533C594.054 40.6381 597.057 45.2234 600.351 50.8335L606.261 60.9632L596.936 61.2519C583.276 61.6461 579.97 60.7401 581.992 57.2584ZM610.051 51.8583C606.818 46.8 604.263 42.2275 604.335 41.8465C604.529 40.8085 628.615 41.1899 629.366 42.1753C629.899 43.0424 617.438 61.5016 616.481 61.3177C616.179 61.2651 613.26 57.0218 610.051 51.8583ZM628.7 59.1108C629.148 56.6539 639.817 41.7023 640.919 41.8994C641.609 42.0308 644.916 46.2874 648.294 51.3195C653.38 58.9004 653.9 60.6213 651.345 61.0811C646.223 62.0534 628.446 60.4509 628.7 59.1108ZM465.98 461.898C468.971 457.063 471.914 452.425 472.58 451.689C473.828 450.389 486.833 467.39 486.397 469.781C486.264 470.465 482.256 470.792 477.497 470.595C472.75 470.424 466.973 470.346 464.709 470.477C460.664 470.661 460.664 470.661 466.053 461.911L465.98 461.898ZM490.2 460.453C483.176 450.034 482.704 450.401 501.656 451.124C508.886 451.4 510.338 451.886 509.14 453.765C501.208 466.43 498.628 470.043 497.575 469.846C496.896 469.728 493.602 465.472 490.2 460.453ZM97.8654 385.484C99.3913 380.978 100.82 375.84 101.159 373.975C102.031 369.271 104.683 370.375 111.985 378.534C115.485 382.502 118.645 385.931 119.021 386.325C120.159 387.376 117.907 388.191 106.439 390.95L95.2134 393.577L97.8654 385.484ZM444.049 461.924C440.84 456.314 438.867 451.479 439.714 451.163C440.538 450.861 444.873 450.73 449.414 450.875C453.943 451.032 459.126 450.98 460.943 450.782C464.006 450.493 463.8 451.151 458.775 459.178C449.983 473.237 450.467 473.158 444.049 461.924ZM302.219 459.822L295.946 449.942L308.673 450.047C315.697 450.047 321.655 450.454 321.946 450.888C322.575 451.768 310.296 470.044 309.182 469.833C308.721 469.755 305.622 465.235 302.219 459.822ZM776.113 84.4151C771.645 82.2867 767.709 80.1717 767.407 79.6461C767.116 79.2126 771.027 75.9807 776.235 72.4859C786.903 65.3385 787.751 65.7985 789.132 79.9749C790.209 91.2872 790.209 91.2865 776.113 84.4151ZM657.049 51.2409C654.131 46.0512 652.097 41.6625 652.521 41.4391C652.884 41.1895 658.745 41.2684 665.417 41.5049C677.2 42.0567 677.503 42.1222 675.42 45.4463C668.639 56.233 664.945 61.1337 663.746 60.9103C662.923 60.7526 659.943 56.4043 657.049 51.2409Z" fill="#C83E3D"/>
</svg>
