<svg width="958" height="969" viewBox="0 0 958 969" fill="none" xmlns="http://www.w3.org/2000/svg">
<path fill-rule="evenodd" clip-rule="evenodd" d="M425.11 965.261C227.777 943.135 62.7332 797.97 14.7359 604.133C-35.3091 401.83 44.5783 193.958 216.939 77.9608C264.562 45.971 344.549 13.1826 376.339 12.6083C385.903 12.5084 393.52 11.0349 397.216 8.61255C410.476 0.0219879 491.637 -2.89976 539.934 3.34338C711.721 25.8686 855.413 137.945 923.213 302.14C939.395 341.247 955.678 410.021 949.834 413.817C947.387 415.29 947.387 415.69 950.034 415.765C952.381 415.765 951.782 417.239 948.186 420.66C941.943 426.503 942.517 432.946 949.534 433.92C956.577 434.894 958.125 450.402 956.477 501.621C953.63 590.199 932.278 662.968 887.003 738.186C867.025 771.624 848.77 794.549 842.327 794.549C839.206 794.549 836.009 795.522 835.21 796.796C834.436 798.17 834.835 799.144 836.184 799.144C842.527 799.144 836.883 807.035 814.932 828.886C779.896 863.523 741.188 893.09 709.473 909.073C697.586 915.141 697.586 915.141 692.991 909.972C684.4 900.507 684.7 899.534 697.087 893.191C732.198 875.435 771.03 845.468 806.242 809.282C845.074 769.201 869.273 734.765 892.197 686.967C962.82 539.18 950.908 363.298 861.156 226.423C850.343 210.041 846.722 202.724 848.67 201.376C850.618 200.102 850.343 199.703 847.796 200.202C845.649 200.577 836.284 191.711 824.297 177.651C746.632 87.1259 637.003 31.5373 513.988 20.3246C443.94 13.9816 353.214 30.3631 286.887 61.2792C126.238 136.297 21.1789 300.667 19.9053 478.996C19.7055 507.29 19.0313 513.433 16.1844 514.207C13.2626 514.981 13.3624 515.181 16.484 515.481C19.4058 515.655 20.5795 519.376 21.8531 532.536C28.4958 603.558 58.438 687.266 97.7448 744.803C102.814 752.32 103.588 754.942 101.441 757.289C99.3182 759.737 99.318 760.037 101.64 758.664C105.461 756.516 113.752 766.379 111.979 770.949C111.205 772.997 111.879 773.872 113.852 773.198C115.6 772.623 122.717 778.866 130.134 787.431C198.209 866.445 291.282 920.485 394.869 941.262C418.593 946.057 428.332 946.631 479.75 946.631C533.991 946.631 539.734 946.257 566.855 940.388C601.092 932.971 633.581 923.033 658.854 912.02C677.583 903.804 680.605 904.104 680.705 913.568C680.705 915.816 681.778 917.663 683.052 917.663C684.301 917.663 685.374 918.537 685.374 919.711C685.374 921.459 660.502 933.771 654.359 934.945C652.885 935.219 647.541 937.267 642.372 939.514C627.338 946.057 595.049 954.823 591.253 953.374C589.405 952.6 587.732 953.075 587.732 954.348C587.732 955.622 578.667 958.343 567.454 960.291C517.783 969.182 473.907 970.73 425.11 965.261ZM401.911 954.822C401.911 953.574 400.837 952.5 399.563 952.5C398.29 952.5 397.216 953.574 397.216 954.822C397.216 956.096 398.29 957.17 399.563 957.17C400.837 957.17 401.911 956.096 401.911 954.822ZM620.321 940.888C620.321 939.615 618.748 938.541 616.9 938.541C615.152 938.541 612.904 939.615 612.13 940.888C611.331 942.162 612.904 943.235 615.526 943.235C618.173 943.235 620.321 942.162 620.321 940.888ZM647.042 933.945C647.816 932.697 647.441 931.623 646.167 931.623C644.794 931.623 643.146 932.697 642.372 933.945C641.572 935.219 641.972 936.293 643.246 936.293C644.519 936.293 646.267 935.219 647.042 933.945ZM704.603 899.034C704.004 896.487 702.456 894.439 701.382 894.439C698.16 894.439 698.935 900.882 702.156 902.156C703.829 902.83 705.278 903.429 705.477 903.529C705.677 903.629 705.278 901.656 704.603 899.034ZM731.823 881.178C731.823 876.608 726.255 878.657 725.281 883.626C724.781 886.248 725.58 887.047 728.202 886.048C730.15 885.274 731.823 883.126 731.823 881.178ZM852.666 778.267C852.666 776.993 851.617 775.919 850.343 775.919C849.07 775.919 847.996 776.993 847.996 778.267C847.996 779.541 849.07 780.614 850.343 780.614C851.617 780.614 852.666 779.541 852.666 778.267ZM456.426 934.645C314.507 926.829 185.349 852.71 108.083 734.765C88.5799 704.923 68.7766 665.316 70.7245 660.147C71.7983 657.499 76.6679 664.916 86.7318 684.145C119.096 746.577 152.385 788.505 200.757 828.012C327.093 930.924 496.132 956.496 645.768 895.138C761.865 847.616 854.738 747.551 894.42 627.458C899.314 612.824 904.858 600.037 906.906 598.864C911.901 596.142 912.075 594.968 901.462 627.558C851.517 779.74 723.033 894.539 568.028 925.754C545.503 930.349 476.329 937.467 471.559 935.819C470.96 935.519 464.142 935.02 456.526 934.645H456.426ZM427.458 916.015C397.815 912.594 344.848 898.934 321.424 888.596L309.138 883.126L318.602 860.301C328.941 835.229 331.363 831.434 333.336 836.703C334.11 838.651 330.989 848.989 326.494 859.727C321.924 870.441 318.203 879.331 318.203 879.531C318.203 880.879 343.275 890.243 358.484 894.639C373.117 898.834 377.038 899.334 378.586 896.887C380.06 894.439 385.229 872.688 386.503 863.523C386.777 861.675 354.787 850.363 349.318 850.363C346.896 850.263 337.706 870.64 339.479 872.214C340.928 873.387 363.178 880.504 363.753 879.905C363.952 879.63 364.652 877.283 365.026 874.835C365.626 871.439 363.952 869.766 358.309 868.118C350.792 865.871 348.844 863.323 352.84 860.901C355.087 859.528 369.222 863.723 372.643 866.745C375.665 869.467 369.896 887.421 366.1 887.421C361.605 887.421 336.158 878.356 333.611 875.809C330.889 873.087 341.527 840.598 344.923 841.472C377.038 850.362 394.869 856.605 394.869 859.227C394.869 860.901 392.746 870.74 390.099 881.078C386.578 895.038 386.003 900.208 388.051 901.481C390.773 903.13 412.05 906.851 435.849 909.772L447.86 911.22L449.508 892.217C450.482 881.778 450.782 872.888 450.383 872.413C448.834 870.84 410.676 866.27 409.502 867.419C408.154 868.792 404.233 888.296 405.232 889.17C406.581 890.643 428.731 893.965 430.28 892.891C434.875 890.169 431.453 885.174 423.962 883.826C412.05 881.578 412.624 874.736 424.536 876.683C429.306 877.483 434.575 878.157 436.148 878.157C437.996 878.157 439.07 881.478 438.97 886.848C438.97 901.182 437.597 901.955 417.893 898.934C408.429 897.485 399.863 895.513 398.889 894.639C397.915 893.665 398.39 885.274 400.038 876.009C402.885 859.028 402.885 859.028 414.597 860.502C421.015 861.376 433.401 862.649 442.191 863.523L458.099 864.897L456.426 887.622C454.878 910.247 454.878 910.247 462.394 911.92C466.49 912.794 480.824 912.794 494.284 911.92L518.583 910.246L517.209 899.708C516.335 893.864 515.736 885.074 515.736 880.204C515.736 871.239 515.736 871.24 498.879 871.24C472.908 871.24 471.559 872.013 471.559 885.374C471.559 896.786 471.559 896.786 485.494 896.786C497.88 896.786 499.454 896.212 499.454 892.117C499.454 888.196 497.88 887.421 490.189 887.421C483.446 887.421 480.824 886.448 480.824 884C480.824 881.378 483.646 880.505 492.236 880.505C503.549 880.505 503.549 880.505 505.022 889.969C505.897 895.138 505.897 900.308 505.197 901.581C504.423 902.73 494.959 903.729 484.145 903.729H464.442L465.116 884.9L465.791 865.971L492.911 864.997L519.931 863.923L521.504 876.309C525.7 910.247 525.001 908.399 532.043 908.399C541.408 908.399 576.994 901.382 579.341 899.134C580.415 898.06 579.441 889.27 577.193 879.531C572.523 859.927 573.597 860.501 551.746 864.997C537.886 868.018 537.886 868.018 537.986 878.831C538.086 892.491 539.06 893.291 551.147 890.743C564.232 887.922 566.655 880.505 554.368 880.505C546.677 880.505 541.507 877.383 545.403 875.136C546.377 874.561 551.447 873.387 556.816 872.513C567.254 870.74 567.154 870.54 570.276 886.447C571.724 893.565 571.724 893.565 556.816 896.312C531.843 900.982 532.717 901.381 530.869 882.852C529.995 873.862 529.096 865.771 528.921 864.797C528.622 863.324 540.808 860.202 570.675 854.259C577.893 852.885 577.892 852.884 584.136 877.083C587.632 890.343 589.879 902.256 589.205 903.33C587.931 905.377 562.559 910.746 532.043 915.316C517.684 917.464 444.814 917.963 427.458 916.015ZM589.305 878.756C582.362 853.684 581.888 849.488 585.784 850.737C587.257 851.336 591.253 861.076 594.649 872.513C599.918 890.069 601.591 893.19 605.387 892.491C612.13 891.242 651.337 875.909 653.784 873.487C655.033 872.214 652.81 864.397 648.315 854.158L640.798 836.803L622.943 843.92C613.204 847.915 604.813 851.336 604.413 851.711C603.24 852.51 608.808 869.567 611.056 872.014C612.904 874.062 634.256 867.144 634.156 864.497C634.081 858.953 630.06 857.18 624.117 859.827C619.347 861.975 617.199 862.075 615.152 860.027C613.204 858.054 614.552 856.506 620.995 853.784C632.408 848.989 633.581 849.288 637.677 857.08C643.246 867.918 642.072 870.366 628.986 875.435C606.162 884.3 607.835 884.9 600.892 866.17C597.496 856.905 595.448 848.689 596.422 847.815C598.77 845.667 639.924 829.386 642.646 829.486C643.72 829.486 648.315 837.577 652.71 847.441C657.08 857.28 661.376 866.27 662.25 867.319C664.398 869.866 705.877 848.215 715.317 839.524C715.816 839.149 711.321 831.334 705.378 822.368L694.464 805.961L684.7 812.03C679.331 815.326 671.54 819.721 667.344 821.769C663.249 823.916 659.828 826.464 659.828 827.538C659.828 830.659 668.992 847.915 670.641 847.915C671.54 847.915 676.709 845.293 682.253 842.072C691.043 836.902 692.017 835.529 689.869 831.533C687.622 827.338 687.048 827.238 682.353 830.46C676.609 834.555 671.44 835.129 671.44 831.633C671.44 829.086 685 820.121 688.996 820.121C690.344 820.121 693.765 824.216 696.587 829.185C701.782 838.35 701.781 838.35 685.574 847.815C676.709 852.984 668.892 857.28 668.118 857.28C667.444 857.28 663.149 849.963 658.654 841.098C649.389 822.568 647.341 826.564 673.762 810.756C680.804 806.561 688.696 801.691 691.418 799.918C696.113 796.896 696.987 797.67 708.799 815.326C715.716 825.59 721.859 833.981 722.559 833.981C724.207 833.981 763.713 802.166 765.362 799.444C766.161 798.17 760.891 790.853 753.674 783.136L740.689 769.002L725.955 781.088C711.321 793.2 711.321 793.201 715.616 799.344C724.207 811.331 726.354 811.929 735.32 805.087C744.21 798.369 744.984 796.422 740.289 792.501C737.967 790.453 736.194 790.953 732.997 794.549C728.003 800.018 724.881 800.517 724.881 795.822C724.881 792.126 735.619 782.861 739.715 783.036C741.088 783.136 744.884 786.358 748.006 790.353C753.674 797.595 753.675 797.596 740.988 808.808C734.046 814.952 727.229 820.021 725.755 820.021C724.407 820.021 718.438 813.878 712.694 806.361L702.056 792.701L721.385 776.319L740.789 759.837L758.544 778.666C776.2 797.496 776.2 797.496 770.831 803.24C751.802 823.617 704.404 856.306 666.545 875.036C644.419 885.974 604.114 901.382 597.771 901.382C596.622 901.382 592.801 891.243 589.305 878.756ZM279.87 869.292C229.525 842.946 180.754 802.94 146.416 759.737C127.687 736.313 111.105 711.065 112.678 708.518C113.253 707.544 112.179 706.071 110.331 705.396C105.836 703.748 74.4204 639.644 77.0674 637.696C77.467 637.496 88.4799 633.301 101.64 628.331C119.096 621.788 126.139 620.14 128.086 621.988C130.808 624.735 129.16 625.609 100.367 636.722C83.5105 643.265 83.5104 640.818 99.8924 674.855C111.704 699.253 137.751 741.108 141.147 741.108C143.495 741.108 170.415 720.53 171.289 718.083C171.788 716.61 153.833 687.342 150.137 683.746C148.964 682.572 130.034 694.484 130.034 696.432C130.034 697.106 132.656 702.176 135.878 707.744C141.147 716.61 142.321 717.484 146.217 715.061C150.512 712.314 150.512 712.14 145.842 705.497C141.946 700.028 141.547 698.379 144.169 696.806C146.416 695.457 149.163 697.706 153.633 704.523C160.076 714.187 160.076 714.187 150.512 720.53C140.872 726.848 140.872 726.848 136.952 721.779C129.36 711.839 120.37 694.658 121.743 692.611C122.418 691.362 127.987 687.542 134.13 684.045C140.173 680.524 145.442 677.402 145.842 677.103C146.416 676.628 130.709 643.939 128.661 641.517C127.013 639.544 106.81 649.508 106.81 652.33C106.81 656.525 115.8 673.707 118.048 673.707C123.217 673.707 125.065 668.138 121.843 661.995C118.722 655.951 119.296 652.83 123.392 652.83C125.265 652.83 132.382 667.638 132.382 671.659C132.382 672.733 128.286 675.654 123.292 678.176C116.275 681.797 113.752 682.172 111.879 680.025C107.609 674.78 97.4451 647.26 99.2181 645.787C100.966 644.339 129.535 631.853 131.208 631.853C131.583 631.853 137.152 642.566 143.395 655.652C149.738 668.812 160.751 688.24 167.993 698.954C175.21 709.692 180.554 719.157 179.979 720.131C179.48 721.005 171.589 727.347 162.624 734.165C153.633 741.007 146.316 747.351 146.316 748.125C146.316 750.073 173.936 782.262 181.528 789.279C187.197 794.474 187.197 794.474 200.757 780.714L214.317 767.054L200.857 751.746C193.34 743.355 186.797 736.412 186.223 736.412C183.301 736.412 169.541 748.624 169.541 751.146C169.541 755.641 185.049 769.676 187.871 767.928C191.792 765.481 190.893 760.811 185.723 756.116C182.602 753.294 181.827 751.147 183.401 749.598C185.923 746.951 193.839 752.994 197.835 760.411C199.683 763.932 198.809 766.18 193.739 771.549C190.118 775.245 186.422 778.267 185.449 778.267C183.401 778.267 164.671 758.563 161.65 753.194C159.976 750.272 162.324 746.951 172.088 738.286C179.006 732.217 185.448 727.148 186.322 727.148C187.871 727.148 194.214 733.691 214.517 756.516L223.007 766.08L207.874 782.362C199.583 791.352 192.765 799.144 192.765 799.718C192.765 800.517 229.051 830.06 238.315 836.803C241.537 839.15 264.162 806.86 261.14 804.113C259.967 803.139 252.45 797.296 244.559 791.352L230.024 780.415L223.107 788.031C219.286 792.227 216.065 796.696 216.065 797.97C215.965 800.717 230.999 813.104 234.32 813.104C239.689 813.104 239.289 807.635 233.546 801.591C225.43 793.2 230.025 789.38 238.79 797.196C242.211 800.118 245.932 803.339 247.081 804.213C249.628 806.161 239.864 822.368 236.168 822.368C232.747 822.368 206.7 801.766 206.7 799.144C206.7 797.496 218.712 782.462 227.677 772.797C228.651 771.724 237.441 777.193 247.181 784.91C256.845 792.601 266.609 799.918 268.757 801.192C272.153 803.04 271.08 805.686 259.567 822.643C246.606 842.071 246.606 842.072 252.75 846.267C262.988 853.185 297.525 871.814 298.4 870.84C298.899 870.44 302.894 862.075 307.29 852.41L315.381 834.755L299.973 826.838C291.482 822.568 283.865 818.647 282.892 818.273C280.369 816.999 268.857 836.702 271.005 838.55C272.053 839.524 276.748 842.546 281.518 845.393C289.534 850.163 290.208 850.163 292.356 846.367C294.104 843.146 293.23 841.472 287.486 837.976C276.548 831.334 282.692 827.737 294.803 833.881C304.343 838.75 304.343 838.75 299.373 848.589C296.651 853.958 294.104 858.853 293.63 859.327C293.23 859.827 285.539 855.832 276.449 850.463C258.219 839.624 258.418 840.898 273.327 817.199L278.796 808.509L300.247 820.021C312.059 826.364 321.998 832.408 322.298 833.481C322.698 834.555 318.003 845.468 311.86 857.879L300.847 880.305L279.87 869.292ZM415.071 850.163C284.939 827.238 174.81 732.117 133.93 607.454C114.926 549.418 110.631 479.67 122.318 420.06C123.392 414.616 122.717 413.717 115.8 412.369C111.505 411.495 95.0228 407.574 79.3151 403.679C63.2078 399.783 49.7476 397.535 48.6738 398.709C41.3568 406.126 38.0353 507.864 43.7041 547.07C47.4999 572.917 55.6911 606.28 64.9809 633.301C73.1719 657.599 72.7723 655.052 68.1773 655.052C65.8549 655.052 64.9808 653.804 65.8548 651.656C66.5291 649.708 66.1296 648.134 64.9809 648.134C63.8072 648.134 59.2121 636.922 54.8169 623.162C-10.6362 419.286 75.8939 195.807 261.34 89.9731C305.417 64.8007 359.757 45.8711 410.002 38.2545C457.225 31.1373 531.244 31.3377 533.691 38.5548C534.265 40.5027 525.7 40.902 501.102 40.028C299.973 32.8109 126.139 153.079 62.6334 343.395C57.6639 358.328 52.869 374.71 52.0949 379.98C50.5216 389.444 50.5217 389.444 86.9068 398.209C106.91 403.104 123.691 406.6 124.191 406.126C124.665 405.626 128.386 394.813 132.482 382.027C151.386 322.718 189.919 263.882 238.116 220.58C358.109 112.898 537.012 98.2643 672.613 185.169C743.91 230.919 803.12 307.784 826.045 384.474C829.466 395.887 832.688 405.726 833.062 406.226C834.036 407.399 904.384 390.019 906.432 388.171C908.954 385.823 893.446 335.403 882.033 308.558C826.819 179.599 712.994 82.7556 579.041 50.8406C567.829 48.2185 557.115 45.4723 555.242 44.6981C553.295 43.924 549.299 43.6242 546.277 43.9238C542.581 44.2235 541.108 43.4239 541.882 41.2762C543.93 35.3328 581.488 42.6497 622.943 56.9839C809.663 122.062 932.079 303.014 923.788 501.821C921.94 546.871 913.149 598.09 908.18 593.12C906.806 591.747 907.98 580.06 911.201 562.005C920.466 510.411 917.345 397.235 906.631 397.235C904.684 397.235 887.502 401.156 868.473 405.926C841.853 412.569 834.236 415.29 835.21 417.813C835.909 419.686 838.132 434.894 840.104 451.576C852.091 551.566 819.502 654.778 751.627 732.517C702.356 788.805 639.25 826.663 561.211 846.741C524.626 856.106 457.799 857.68 414.971 850.163H415.071ZM505.297 845.568C612.504 835.728 701.282 786.557 764.887 701.875C781.768 679.55 805.942 632.627 815.606 603.958C870.521 440.063 794.829 256.664 639.25 176.777C559.338 135.722 467.164 126.933 379.76 152.105C273.826 182.546 183.401 268.077 145.143 373.936C132.182 409.922 127.312 437.142 126.039 480.944C124.091 546.971 133.73 593.22 161.45 649.309C216.664 761.386 326.593 835.728 451.856 845.468C464.617 846.467 476.129 847.44 477.403 847.615C478.676 847.815 491.263 846.941 505.297 845.568ZM433.801 836.203C425.21 835.054 413.698 832.907 408.254 831.533C402.885 830.16 395.768 828.511 392.546 827.812C376.064 824.416 341.227 811.431 321.424 801.192C254.223 766.655 202.904 714.861 168.667 646.961C151.111 612.049 134.03 555.162 141.247 555.162C142.62 555.162 144.868 559.657 146.217 565.026C180.479 701.501 275.1 795.149 409.128 825.091C441.517 832.408 514.962 832.982 545.778 826.164C678.457 797.196 782.243 695.633 810.737 567.074C819.802 526.094 821.275 469.831 814.233 434.994C813.659 432.072 812.585 427.103 811.91 423.881C811.111 419.886 811.711 418.112 814.058 418.112C823.523 418.112 828.292 500.746 821.375 545.897C799.998 686.867 691.817 800.617 549.399 831.933C525.1 837.277 459.173 839.724 433.801 836.203ZM329.815 753.894C329.815 739.934 330.589 736.412 333.336 736.412C336.158 736.412 336.832 739.934 336.832 753.894C336.832 767.828 336.158 771.25 333.336 771.25C330.489 771.25 329.815 767.828 329.815 753.894ZM343.775 754.068C343.775 735.638 345.997 732.317 356.336 735.438C376.339 741.582 371.769 771.25 350.892 771.25C343.775 771.25 343.775 771.249 343.775 754.068ZM360.456 758.463C363.653 751.546 359.957 741.108 354.288 741.108C351.566 741.108 350.792 743.83 350.792 752.72C350.792 765.781 355.761 768.802 360.456 758.463ZM374.016 753.894C374.016 738.56 374.491 736.412 378.187 736.412C380.834 736.412 384.255 740.134 387.377 746.277L392.346 756.216L392.446 746.277C392.546 740.908 393.62 736.412 394.869 736.412C396.242 736.412 397.216 743.83 397.216 753.894C397.216 763.733 396.242 771.25 394.968 771.25C393.72 771.25 390.099 766.28 386.977 760.211L381.233 749.199L381.034 760.211C380.934 768.427 380.06 771.25 377.413 771.25C374.691 771.25 374.016 767.828 374.016 753.894ZM420.041 767.254C408.828 754.168 417.893 731.343 433.027 734.464C438.97 735.638 438.67 739.834 432.627 740.708C419.467 742.556 417.893 764.307 430.879 764.307C434.575 764.307 436.722 765.58 436.722 767.828C436.722 772.697 424.436 772.323 420.041 767.254ZM446.587 767.728C440.144 763.258 439.17 745.877 445.013 740.134C449.409 735.739 458.673 733.091 462.195 735.164C466.39 737.786 464.817 741.108 459.273 741.108C456.326 741.108 452.63 742.381 451.157 743.829C447.561 747.45 447.561 757.989 451.157 761.485C454.977 765.381 459.947 765.007 459.947 760.811C459.947 758.963 458.873 757.389 457.6 757.389C456.326 757.389 455.352 755.741 455.352 753.894C455.352 751.646 457.5 750.373 461.32 750.373C466.864 750.373 467.164 751.046 466.49 760.211C465.89 769.301 465.216 770.175 458.773 770.75C454.977 771.149 449.509 769.776 446.587 767.728ZM471.559 753.894C471.559 740.333 472.333 736.412 474.881 736.412C476.828 736.412 478.576 739.159 479.076 742.855C479.75 749.198 479.75 749.198 483.846 741.682C486.093 737.486 489.589 734.09 491.562 734.09C493.61 734.09 494.859 734.865 494.384 735.839C493.885 736.812 492.037 740.509 490.289 744.03C487.442 749.698 487.542 751.546 490.963 758.664C495.658 768.503 495.833 771.25 491.637 771.25C489.889 771.25 487.167 768.128 485.494 764.307C483.946 760.511 481.698 757.289 480.624 757.289C479.451 757.289 478.577 760.511 478.577 764.307C478.577 769.002 477.403 771.25 475.055 771.25C472.333 771.25 471.659 767.828 471.659 753.894H471.559ZM511.066 768.902C511.066 767.529 513.213 762.359 515.736 757.289C521.779 745.502 521.604 743.455 514.562 743.455C510.966 743.455 508.718 742.082 508.718 739.934C508.718 737.287 511.44 736.412 519.257 736.412C531.643 736.412 531.843 737.287 523.352 756.815C517.783 769.402 511.066 776.119 511.066 768.902ZM535.839 769.776C532.717 766.554 534.465 764.307 540.134 764.307C546.951 764.307 547.926 758.763 541.882 755.142C537.986 752.819 537.986 752.62 541.882 750.273C547.751 746.652 546.852 743.455 539.934 743.455C532.617 743.455 533.491 737.986 541.008 736.813C548.325 735.739 553.494 740.808 552.121 747.725C551.546 750.947 552.221 755.342 553.594 757.59C558.264 765.206 542.282 776.119 535.839 769.776ZM569.202 758.463C569.202 748.699 568.328 745.677 565.681 745.677C560.811 745.677 561.386 741.682 566.655 738.86C573.697 735.064 573.797 735.339 573.797 753.894C573.797 763.932 572.798 771.25 571.549 771.25C570.176 771.25 569.202 765.48 569.202 758.463ZM584.51 766.08C585.484 763.159 587.432 755.642 588.905 749.199C590.853 740.509 592.701 737.387 596.222 736.912C600.717 736.213 602.465 740.034 610.182 767.254C610.956 769.876 609.982 771.25 607.435 771.25C605.287 771.25 603.04 769.201 602.366 766.654C601.791 764.132 599.244 761.985 596.897 761.985C594.649 761.985 592.027 764.132 591.253 766.654C590.454 769.201 588.231 771.25 586.283 771.25C583.736 771.25 583.237 769.876 584.51 766.08ZM599.344 753.295C599.344 752.321 598.27 749.972 597.096 748.025C595.248 745.203 594.749 745.577 594.749 749.773C594.749 752.72 595.723 755.042 597.096 755.042C598.37 755.042 599.344 754.268 599.344 753.295ZM660.202 707.344C658.754 704.123 654.858 700.327 651.636 698.854C644.22 695.457 645.393 691.163 653.784 691.163C659.528 691.163 671.34 680.724 671.44 675.655C671.44 674.855 665.771 671.833 658.854 668.912C637.477 660.046 647.141 654.078 672.988 660.047C684.301 662.669 684.4 662.569 692.691 654.178C707.925 639.069 715.416 647.161 701.182 663.368C693.865 671.734 693.865 671.734 697.761 688.241C700.308 698.479 700.882 705.497 699.534 706.87C696.312 710.092 693.965 707.844 688.022 695.932C685.1 690.088 681.978 685.294 680.979 685.294C680.005 685.294 676.309 688.341 672.788 692.037C667.444 697.606 666.545 700.128 667.919 705.996C669.867 715.061 664.223 716.035 660.202 707.344ZM271.879 705.996C262.314 702.175 259.492 692.611 265.436 684.42C268.557 680.124 277.622 681.498 274.9 685.893C274.026 687.267 274.401 687.642 275.774 686.867C280.269 684.145 283.766 691.537 282.117 700.228C280.444 709.293 280.269 709.293 271.879 705.996ZM238.415 695.358C240.064 682.972 241.037 680.624 244.059 680.624C246.107 680.624 246.107 681.498 244.059 683.946C242.111 686.268 242.111 687.641 243.884 688.715C245.233 689.589 246.032 689.015 245.732 687.441C245.333 685.793 247.68 683.147 250.902 681.498C256.071 678.776 256.945 678.976 258.693 682.872C262.114 690.289 258.518 699.054 251.376 700.627C247.98 701.401 243.285 702.475 241.137 703.049C237.816 703.948 237.342 702.775 238.415 695.358ZM275.175 680.124C270.705 676.728 268.357 675.929 267.683 677.902C266.31 681.798 260.941 681.398 259.292 677.202C258.319 674.48 256.645 674.281 251.776 676.129C243.085 679.45 238.315 677.202 233.82 667.738C228.851 657.399 228.551 658.173 238.016 656.425C248.08 654.577 254.997 657.999 256.945 665.79C257.819 669.211 259.667 671.159 261.34 670.585C262.889 669.886 265.336 670.485 266.609 671.833C268.258 673.407 269.831 672.733 271.479 669.611C272.853 667.064 273.527 664.617 273.052 664.142C272.553 663.643 275.974 663.069 280.644 662.769C286.413 662.369 291.083 663.743 294.978 667.064C300.747 671.834 300.747 671.834 293.13 678.577C284.165 686.668 283.491 686.767 275.175 680.124ZM252.275 662.668C249.828 660.246 247.78 661.221 247.181 665.116C246.706 668.538 247.181 668.812 249.928 666.49C251.776 665.016 252.85 663.268 252.275 662.668ZM261.914 666.09C255.097 660.721 254.997 653.803 261.44 646.087C269.132 637.022 270.106 637.022 275.275 646.686C281.243 657.699 275.874 667.363 268.757 658.573C267.683 657.299 267.483 658.573 268.258 661.295C269.931 667.463 266.709 669.886 261.914 666.09ZM201.056 581.908C199.208 572.044 200.657 569.122 206.8 570.296C209.347 570.77 210.896 570.395 210.321 569.322C209.622 568.248 210.621 566 212.569 564.452C215.391 562.104 215.965 562.304 215.965 565.426C215.965 567.473 217.039 569.122 218.312 569.122C219.586 569.122 220.66 572.243 220.66 576.039C220.66 581.308 219.087 583.755 213.817 586.477C204.078 591.572 202.804 591.073 201.056 581.908ZM744.01 585.403C738.641 582.107 736.493 579.086 736.493 574.691C736.493 570.395 737.467 569.021 739.815 569.895C744.21 571.569 741.762 564.451 736.693 560.631C733.771 558.483 733.671 557.409 736.294 554.288C738.841 551.166 738.741 549.618 735.519 544.748C731.224 538.106 733.272 531.863 742.062 524.745C746.632 521.025 747.032 521.125 750.927 527.667C755.422 534.984 756.496 542.401 752.776 540.154C751.527 539.28 751.127 540.253 751.901 542.301C752.775 544.649 751.327 546.596 747.531 548.044C742.936 549.817 741.962 551.466 742.836 556.236C744.01 562.104 747.132 565.525 751.327 565.6C755.622 565.7 758.045 573.317 756.496 581.508C754.648 591.372 754.149 591.572 744.01 585.403ZM713.269 577.013C713.269 572.143 715.042 567.274 718.063 564.352C722.733 559.557 722.833 559.457 718.363 558.283C715.816 557.609 712.295 553.214 710.347 548.244C706.851 539.479 706.851 539.479 716.39 537.906C724.507 536.633 726.654 537.132 730.05 541.427C735.519 548.145 735.22 554.587 729.376 556.435C724.506 557.909 725.181 561.031 730.25 561.031C733.572 561.031 735.045 573.717 732.198 578.012C731.124 579.76 726.354 582.008 721.759 582.981C713.269 584.929 713.269 584.929 713.269 577.013ZM731.823 546.971C731.823 546.696 730.45 545.322 728.702 543.849C726.454 542.001 725.68 542.101 725.68 544.349C725.68 546.097 727.029 547.471 728.702 547.471C730.45 547.471 731.823 547.27 731.823 546.971ZM226.703 579.46C223.107 575.964 222.508 560.431 225.929 561.605C226.903 561.904 230.324 562.204 233.546 562.204C236.842 562.204 238.89 563.178 238.116 564.452C237.242 565.8 238.216 566.2 240.263 565.426C243.185 564.252 243.884 565.9 243.884 573.517C243.884 582.582 243.485 583.081 237.042 583.081C233.346 583.081 228.651 581.408 226.703 579.46ZM275.774 574.691C273.926 564.926 276.449 559.757 283.566 558.283C287.287 557.509 290.783 555.087 291.582 552.74C292.356 550.392 294.978 547.87 297.426 546.971C299.973 546.196 302.02 544.649 302.02 543.475C302.02 542.201 303.768 539.379 306.016 537.132C320.75 522.198 322.897 518.002 322.997 503.269C322.997 482.017 326.194 471.279 334.41 464.462C338.306 461.14 341.527 456.745 341.527 454.698C341.527 447.58 344.349 443.684 349.718 443.684C356.061 443.684 356.935 441.237 359.083 418.712C361.705 390.618 372.243 389.819 375.065 417.638C377.513 441.337 378.387 443.684 384.73 443.684C389.125 443.684 390.673 445.233 391.747 450.702C394.594 464.836 397.216 459.667 397.216 439.763C397.316 412.269 403.559 397.934 420.141 387.671C430.879 381.053 431.753 379.779 434.2 366.894C436.922 353.333 436.922 353.333 447.86 352.559L458.773 351.885L462.769 321.644C469.786 269.351 469.412 270.625 477.603 269.851C487.542 268.877 489.315 272.173 492.336 297.245C493.785 309.457 496.132 326.913 497.506 336.178C500.028 353.059 500.028 353.059 510.092 353.059C521.105 353.059 520.331 351.886 526.274 376.658C527.148 380.454 530.27 383.875 534.265 385.548C549.873 392.066 559.438 409.248 561.585 434.894C562.459 446.207 563.533 450.028 565.007 447.381C566.18 445.333 569.502 443.684 572.523 443.684C577.393 443.684 577.967 442.311 579.441 429.15C582.363 402.03 583.162 399.483 588.905 399.483C593.5 399.483 594.374 401.056 595.648 411.669C599.644 443.959 599.444 443.384 605.887 444.159C610.457 444.658 612.305 446.606 613.878 452.549C614.952 456.745 619.147 463.088 623.143 466.709C630.06 472.852 630.46 474.301 631.833 495.278C633.182 515.081 634.081 518.302 639.824 525.319C643.445 529.615 647.816 534.01 649.589 534.984C651.337 536.058 652.81 538.88 652.81 541.427C652.81 543.849 654.059 545.897 655.532 545.897C657.08 545.897 660.702 548.145 663.623 550.892C666.545 553.614 671.34 557.035 674.262 558.483C678.057 560.431 679.93 563.852 680.904 570.969L682.153 580.734H479.551C276.948 580.734 276.948 580.734 275.774 574.691ZM328.941 570.095C328.167 568.047 327.567 565.426 327.567 564.252C327.567 562.879 318.203 562.304 304.842 562.678C283.391 563.278 282.217 563.553 281.518 568.547C280.744 573.717 281.143 573.816 305.517 573.816C327.193 573.816 330.215 573.317 328.941 570.095ZM622.169 567.748C623.542 558.283 620.121 557.909 548.225 560.431C500.727 562.004 458.374 562.004 410.002 560.256C335.084 557.609 332.063 557.909 335.559 568.921C337.132 573.816 337.132 573.816 479.251 573.217C621.495 572.642 621.495 572.642 622.169 567.748ZM676.01 571.669C676.01 563.278 673.288 562.204 651.736 562.204C630.56 562.204 630.06 562.304 628.986 567.947C627.913 573.816 627.913 573.816 652.011 573.816C665.197 573.816 676.01 572.843 676.01 571.669ZM332.162 555.361C332.162 554.188 335.284 552.54 339.18 551.766C343.575 550.692 346.097 548.744 346.097 546.196C346.097 543.949 347.371 540.928 348.944 539.379C351.092 537.232 347.471 536.632 332.837 536.632C313.708 536.632 306.59 539.379 306.59 546.971C306.59 548.644 304.543 550.592 302.02 551.266C299.373 551.865 297.326 553.614 297.326 554.987C297.326 556.635 303.669 557.509 314.781 557.509C324.346 557.509 332.162 556.535 332.162 555.361ZM659.728 553.614C660.302 553.114 658.354 552.04 655.432 551.266C652.511 550.492 649.189 547.371 648.016 544.349C645.194 536.832 641.398 535.758 624.017 537.606C609.183 539.279 609.183 539.279 611.73 546.096C613.578 550.791 615.926 552.84 619.547 552.84C622.369 552.84 625.291 553.913 626.165 555.262C627.438 557.409 657.006 556.061 659.728 553.614ZM548.899 553.714C577.793 552.84 602.765 551.366 604.314 550.392C606.661 548.919 606.561 547.77 604.214 544.923C599.544 539.279 359.957 539.379 354.288 545.023C352.24 547.07 351.166 549.418 352.065 550.192C355.562 553.813 474.681 555.861 548.899 553.714ZM551.147 534.684C583.336 534.309 590.079 533.711 590.079 530.989C590.079 529.141 588.805 526.793 587.157 525.719C585.584 524.745 537.212 523.871 479.75 523.672C390.498 523.472 374.591 523.946 371.07 526.893C368.822 528.841 367.074 531.188 367.074 532.262C367.074 533.311 386.677 534.485 410.576 534.785C453.03 535.459 470.385 535.383 551.147 534.684ZM350.193 530.289C344.149 529.814 334.21 529.814 328.167 530.289C321.998 530.689 326.993 531.088 339.18 531.088C351.266 531.088 356.261 530.689 350.193 530.289ZM627.913 530.289C622.568 529.814 613.104 529.815 607.06 530.189C600.892 530.689 605.287 531.188 616.8 531.188C628.312 531.188 633.282 530.788 627.913 530.289ZM368.048 520.15C372.643 517.428 376.339 513.907 376.339 512.359C376.339 510.786 378.387 507.564 381.034 505.217C383.556 502.894 385.604 499.973 385.604 498.699C385.604 497.326 386.977 494.703 388.725 492.656C391.272 489.609 397.216 472.852 397.216 468.657C397.216 463.663 360.257 460.066 346.696 463.762C342.501 464.836 341.902 465.81 344.049 468.358C345.997 470.805 345.997 472.353 343.85 475C340.154 479.47 336.058 477.047 337.606 471.279C339.08 465.435 334.685 468.258 332.362 474.701C331.088 478.122 331.663 480.544 334.21 482.591C337.706 485.238 337.706 485.713 334.21 488.46C332.162 490.009 329.715 496.052 328.841 501.821C327.967 507.564 326.693 515.081 326.119 518.602C324.845 525.02 324.845 525.02 342.301 525.02C355.861 525.02 361.605 523.871 368.048 520.15ZM341.802 517.329C339.679 514.682 339.854 513.333 342.701 510.986C348.145 506.491 353.139 511.959 348.145 517.028C345.023 520.05 344.149 520.151 341.802 517.329ZM360.057 516.829C355.462 511.385 361.031 506.391 366 511.385C369.122 514.407 369.122 515.281 366.3 517.703C363.753 519.776 362.304 519.576 359.957 516.729L360.057 516.829ZM351.091 503.368C349.044 500.746 349.219 499.373 351.966 497.026C357.41 492.555 362.404 498.1 357.41 503.094C354.388 506.116 353.414 506.215 351.091 503.368ZM369.222 502.795C367.174 500.247 366.974 498.499 368.747 496.751C371.769 493.804 376.339 496.052 376.339 500.547C376.339 505.517 372.543 506.69 369.222 502.795ZM334.485 499.473C334.485 495.952 335.758 494.703 338.605 495.177C340.828 495.677 342.601 497.526 342.601 499.473C342.601 501.321 340.828 503.169 338.605 503.669C335.758 504.168 334.485 502.895 334.485 499.473ZM360.157 489.135C356.161 484.265 360.157 479.37 365.701 482.392C368.822 484.265 368.922 485.238 366.4 488.735C363.578 492.555 363.078 492.556 360.157 489.035V489.135ZM376.539 488.261C374.016 483.466 375.265 480.844 379.96 480.844C384.255 480.844 385.803 487.087 382.207 490.109C379.66 492.156 378.387 491.757 376.539 488.261ZM342.501 487.561C340.154 483.765 345.523 479.27 348.744 482.491C351.366 485.139 349.718 490.109 346.097 490.109C345.023 490.109 343.375 489.034 342.501 487.561ZM352.165 474.601C350.193 469.731 354.488 465.036 357.809 468.358C360.356 470.88 358.484 478.496 355.362 478.496C354.388 478.496 352.94 476.748 352.165 474.601ZM368.348 474.601C366.5 469.731 370.695 465.036 374.091 468.358C376.639 470.88 374.791 478.496 371.669 478.496C370.695 478.496 369.222 476.748 368.348 474.601ZM384.355 473.627C383.456 472.253 383.955 469.906 385.429 468.457C388.351 465.536 393.42 470.704 391.173 474.3C389.524 476.947 386.203 476.648 384.355 473.627ZM629.586 522.798C629.586 521.998 628.012 519.077 626.065 516.355C623.817 513.233 623.442 510.786 624.891 509.912C628.712 507.564 627.838 490.783 623.817 489.334C619.921 487.761 618.947 480.844 622.668 480.844C626.764 480.844 625.091 474.7 619.722 470.205C616.425 467.283 615.626 467.084 617.499 469.531C619.822 472.553 619.722 473.826 616.9 476.148C614.078 478.496 613.204 478.296 611.93 475.274C611.156 473.227 611.056 470.106 611.73 468.358C613.304 464.462 604.214 462.214 586.458 462.214C571.05 462.214 562.285 465.435 562.285 471.079C562.285 479.869 569.602 496.651 576.219 502.994C580.04 506.59 583.162 511.385 583.162 513.533C583.162 515.755 584.81 518.102 586.758 518.876C589.48 519.95 590.079 519.276 589.005 515.855C587.257 510.311 591.528 507.365 596.122 511.185C599.144 513.708 599.044 514.507 595.823 518.203C592.227 522.099 592.526 522.398 599.818 523.072C613.978 524.445 629.686 524.346 629.686 522.897L629.586 522.798ZM607.735 516.455C605.687 511.285 610.082 506.89 613.678 510.411C616.5 513.233 614.852 520.35 611.331 520.35C610.182 520.35 608.509 518.602 607.735 516.455ZM579.84 502.494C577.693 496.925 582.088 493.33 586.558 497.026C589.305 499.373 589.48 500.846 587.532 503.169C584.036 507.464 581.588 507.289 579.84 502.494ZM598.37 502.494C596.522 497.525 600.717 492.83 604.114 496.251C606.661 498.798 604.813 506.39 601.691 506.39C600.717 506.39 599.244 504.642 598.37 502.494ZM614.378 501.521C611.93 497.725 617.399 493.23 620.521 496.452C623.243 499.074 621.594 504.068 617.973 504.068C616.8 504.068 615.252 502.995 614.378 501.521ZM571.724 488.36C569.776 484.54 570.076 483.366 573.098 482.217C579.041 479.87 582.463 484.839 577.967 489.235C574.571 492.731 574.072 492.656 571.724 488.36ZM590.179 489.035C587.832 486.213 587.732 484.639 589.679 482.591C593.675 478.696 598.27 483.765 595.348 488.934C593.401 492.455 593.001 492.456 590.079 489.035H590.179ZM605.088 487.561C602.665 483.765 608.034 479.27 611.256 482.491C613.978 485.139 612.305 490.109 608.709 490.109C607.535 490.109 605.987 489.034 605.088 487.561ZM581.089 475.475C579.041 472.953 579.141 471.479 581.888 469.232C584.71 466.884 585.684 467.084 586.858 470.305C589.005 475.675 584.61 479.67 581.089 475.475ZM596.322 475.274C594.749 471.079 598.37 466.01 601.491 467.858C602.865 468.757 604.014 470.88 604.014 472.553C604.014 476.848 597.696 478.995 596.322 475.274ZM564.907 472.353C565.881 467.284 572.723 466.51 572.723 471.479C572.723 473.427 570.75 475.375 568.428 475.774C565.306 476.349 564.332 475.475 564.907 472.353ZM540.708 516.455C558.963 515.655 573.797 514.307 573.797 513.607C573.797 512.833 530.969 512.259 478.577 512.259C426.184 512.259 383.281 512.933 383.281 513.907C383.281 516.929 491.063 518.777 540.708 516.455ZM536.912 504.842C566.28 503.369 566.28 503.369 562.559 497.026C559.538 491.681 558.464 491.182 556.416 494.004C554.368 496.851 553.195 496.551 548.824 491.856C544.03 486.787 543.93 486.113 547.351 481.243C549.873 477.622 551.846 476.648 553.694 478.196C555.742 479.869 556.216 475.774 555.642 461.914C555.067 447.28 554.268 443.859 551.946 445.832C549.798 447.68 547.925 447.08 544.904 443.859C540.034 438.415 543.83 428.352 549.873 430.799C552.92 431.873 553.295 430.599 552.321 422.907C550.573 409.922 542.481 397.835 531.843 392.466C520.231 386.522 516.135 386.597 521.604 392.666C525.6 397.036 525.6 397.535 521.979 401.231C518.383 404.852 517.684 404.852 514.387 401.43C511.44 398.609 511.166 396.661 513.114 393.14C514.487 390.617 514.862 387.87 514.087 386.996C510.966 383.875 446.961 385.549 434.974 389.145C421.814 393.04 411.55 402.205 407.28 414.017C403.759 423.781 403.459 432.747 406.681 430.799C408.054 429.925 411.076 431.098 413.523 433.246C417.618 436.942 417.618 437.616 414.197 442.885C412.149 446.007 409.028 447.98 407.28 447.381C404.932 446.407 404.158 449.228 404.158 459.766C404.158 467.283 403.459 475.375 402.585 477.722C401.112 481.418 401.411 481.618 404.832 478.896C408.154 476.149 409.028 476.449 411.375 481.718C414.772 489.135 410.401 495.777 403.459 493.904C400.537 493.13 397.416 494.603 394.694 497.825C390.598 502.894 390.598 502.894 407.28 504.243C432.252 506.215 503.649 506.59 536.912 504.842ZM457.7 493.63C452.43 488.061 452.33 487.761 456.426 483.191C461.795 477.323 465.017 477.323 468.712 483.191C471.16 487.087 470.96 488.835 467.838 493.63C463.268 500.647 464.242 500.647 457.7 493.63ZM520.63 492.73C515.935 486.113 515.935 486.113 521.404 480.944C526.973 475.774 526.973 475.774 530.969 481.818C534.565 487.387 534.565 488.26 531.069 493.63C526.274 500.847 526.374 500.846 520.63 492.73ZM426.184 492.356C421.989 487.761 422.089 487.486 427.957 481.617C433.901 475.574 433.901 475.575 437.996 481.818C441.792 487.661 441.792 488.161 437.796 492.556C432.627 498.299 431.453 498.2 426.184 492.356ZM490.663 494.304C486.668 490.308 487.267 484.44 492.137 480.07C496.032 476.448 496.732 476.548 501.801 482.017C507.07 487.561 507.07 487.861 502.975 492.456C498.18 497.825 494.684 498.3 490.663 494.304ZM473.982 468.157C468.338 462.114 468.338 462.114 473.208 457.245C478.377 452.075 481.698 452.85 485.494 459.867C487.167 462.989 486.768 465.435 483.746 469.131C479.65 474.2 479.65 474.2 473.982 468.157ZM504.823 468.832C499.853 463.487 499.853 463.388 504.323 457.919C508.718 452.55 509.018 452.449 513.488 456.445C519.157 461.614 519.157 462.688 513.988 469.131C509.892 474.2 509.892 474.201 504.823 468.832ZM533.217 468.457C529.196 462.414 529.196 461.914 533.217 457.519C537.112 453.224 537.687 453.149 541.682 456.745C546.951 461.615 546.952 462.789 541.582 469.431C537.312 474.701 537.312 474.701 533.217 468.457ZM415.171 467.483C411.75 463.663 411.85 462.888 416.045 457.619C420.54 451.775 420.54 451.776 425.21 457.344C429.605 462.589 429.705 463.188 426.009 467.184C421.115 472.553 419.841 472.653 415.171 467.483ZM442.866 467.184C439.17 463.188 439.27 462.589 443.665 457.344C448.335 451.776 448.335 451.776 453.03 457.344C457.5 462.589 457.5 463.188 453.904 467.184C451.756 469.631 449.209 471.579 448.335 471.579C447.461 471.579 445.013 469.631 442.866 467.184ZM428.731 443.185C425.41 438.415 425.51 437.616 429.805 433.346C434.375 428.651 434.375 428.651 439.469 433.72C444.439 438.69 444.439 438.99 440.344 443.585C434.875 449.628 433.226 449.528 428.731 443.185ZM458.773 443.684C454.778 439.189 454.778 438.89 458.773 434.42C464.242 428.351 465.516 428.551 469.212 435.493C471.759 440.063 471.759 441.811 469.412 444.758C465.516 449.428 463.943 449.228 458.873 443.684H458.773ZM488.915 443.585C484.82 438.99 484.82 438.69 489.789 433.72C494.859 428.651 494.859 428.651 499.928 433.72C504.823 438.69 504.923 438.99 500.727 443.585C498.38 446.207 495.758 448.254 494.859 448.254C493.985 448.254 491.263 446.207 488.915 443.585ZM519.656 444.159C514.762 438.789 514.762 435.768 519.357 431.972C522.378 429.425 523.852 429.725 528.022 434.02C533.117 438.99 533.117 438.99 528.322 443.784C523.752 448.354 523.452 448.354 519.656 444.159ZM419.367 420.46C415.071 415.69 415.071 415.491 419.566 410.996C424.236 406.326 424.236 406.326 428.631 411.095C432.827 415.865 432.827 416.065 428.332 420.56C423.662 425.23 423.662 425.23 419.367 420.46ZM444.914 420.46C440.818 415.965 440.818 415.591 444.914 411.095C447.161 408.548 449.908 406.5 450.982 406.5C452.056 406.5 454.004 408.548 455.352 411.095C457.899 415.865 454.977 425.055 450.982 425.055C449.908 425.055 447.161 423.007 444.914 420.46ZM473.907 420.46C472.134 417.139 472.134 414.417 473.907 411.095C477.028 405.327 479.076 405.326 484.245 410.895C487.442 414.516 487.741 416.364 485.594 420.26C482.372 426.303 477.103 426.404 473.907 420.46ZM502.875 420.36C498.779 415.765 498.779 415.491 503.249 410.996C507.844 406.326 507.944 406.325 512.04 410.795C515.261 414.516 515.536 416.364 513.488 420.26C510.292 426.303 508.244 426.304 502.875 420.36ZM529.196 419.486C525.4 414.317 525.5 413.817 529.396 410.221C533.292 406.7 533.891 406.8 537.587 410.895C541.008 414.691 541.208 416.064 538.561 420.16C534.765 426.203 534.091 426.204 529.196 419.486ZM461.221 401.93C457.799 398.11 457.5 396.661 459.947 393.739C466.49 385.823 474.381 393.54 468.438 402.03C465.416 406.4 465.316 406.401 461.221 401.831V401.93ZM435.449 399.183C434.001 394.613 437.122 390.318 442.092 390.218C445.413 390.218 446.587 397.236 443.665 400.657C439.744 405.427 437.322 405.052 435.449 399.183ZM487.741 400.557C485.319 397.535 485.394 396.261 488.616 393.04C492.237 389.444 492.711 389.444 496.332 393.04C499.553 396.261 499.753 397.535 497.206 400.557C495.658 402.505 493.51 404.178 492.536 404.178C491.562 404.178 489.415 402.505 487.741 400.557ZM387.951 455.271C387.951 453.923 379.461 452.949 367.074 452.949C354.688 452.949 346.097 453.923 346.097 455.271C346.097 456.645 354.688 457.619 367.074 457.619C379.461 457.619 387.951 456.645 387.951 455.271ZM608.709 455.271C608.709 453.923 600.618 452.949 589.105 452.949C578.267 452.949 568.802 454.023 568.028 455.271C567.154 456.745 574.171 457.619 587.632 457.619C600.118 457.619 608.709 456.645 608.709 455.271ZM518.083 373.936C516.61 368.167 516.61 368.167 478.377 368.167C440.244 368.167 440.244 368.167 439.569 373.936C438.87 379.78 438.87 379.78 479.251 379.78C519.656 379.78 519.656 379.78 518.083 373.936ZM205.352 567.074C206.6 565.026 205.452 564.726 200.957 565.8C196.162 567.073 193.34 566 188.071 560.931C181.353 554.488 181.353 554.488 186.522 550.592C193.739 544.923 197.935 543.85 202.804 546.397C205.826 547.945 206.326 549.319 204.553 551.466C202.705 553.714 203.778 554.387 209.048 554.387C216.564 554.387 218.312 551.866 212.369 549.618C210.421 548.844 209.447 547.17 210.221 545.797C210.995 544.548 210.321 543.749 208.648 544.049C204.378 545.023 203.379 533.51 207.2 526.293C210.321 520.35 210.321 520.35 217.838 527.167C222.408 531.363 225.23 536.058 225.055 539.379C224.855 544.649 224.755 544.648 222.907 538.879C220.86 533.136 220.86 533.136 221.334 538.879C221.634 542.101 222.907 544.748 224.181 544.748C225.43 544.748 228.077 545.797 229.925 546.971C232.946 548.844 233.046 548.644 230.124 545.023C225.43 539.279 230.699 536.058 241.537 537.906C251.976 539.754 251.676 539.279 247.58 549.118C243.385 559.182 239.389 561.131 229.925 557.909C224.256 555.861 223.007 556.061 223.007 558.783C223.007 562.879 217.938 563.178 214.117 559.357C211.969 557.234 211.395 557.234 211.395 559.557C211.395 561.505 209.822 562.104 207.499 561.23C204.453 559.957 204.278 560.356 206.5 563.078C208.648 565.601 208.648 566.774 206.425 568.148C204.652 569.222 204.278 568.822 205.352 567.074ZM225.33 550.492C225.33 549.219 223.781 548.244 221.834 548.244C219.886 548.244 218.312 549.219 218.312 550.492C218.312 551.866 219.886 552.84 221.834 552.84C223.781 552.84 225.33 551.866 225.33 550.492ZM217.638 537.232C217.039 534.984 216.464 536.258 216.464 540.054C216.364 543.95 216.864 545.798 217.538 544.149C218.113 542.601 218.213 539.479 217.638 537.232ZM755.622 565.226C754.049 564.627 753.275 563.078 754.049 561.905C754.848 560.731 754.549 559.857 753.475 560.057C748.605 560.931 745.758 559.557 745.758 556.435C745.758 554.288 747.132 553.513 749.279 554.387C751.726 555.261 752.401 554.587 751.427 552.14C750.553 549.917 751.901 547.57 755.023 545.897C759.218 543.674 761.366 544.149 767.909 548.644C775.8 554.013 775.8 554.013 769.657 560.356C763.514 566.774 761.266 567.573 755.622 565.226ZM135.404 541.801C131.982 521.723 133.356 455.871 137.751 432.072C148.564 373.062 170.815 324.665 209.447 275.894C335.284 117.368 569.202 100.786 714.842 239.983C757.37 280.563 791.233 332.556 807.016 381.527C815.706 408.448 816.206 411.095 811.611 411.095C809.463 411.095 808.389 410.52 809.064 409.721C809.863 409.047 808.964 404.852 807.116 400.457C805.268 396.061 804.494 392.566 805.268 392.566C806.042 392.566 805.667 391.192 804.494 389.644C803.22 388.071 799.999 380.753 797.277 373.436C768.883 296.471 705.477 226.149 630.56 188.59C579.541 162.918 537.387 152.879 480.924 152.679C437.597 152.579 409.902 156.875 370.795 169.761C355.562 174.73 341.727 178.725 339.954 178.725C338.206 178.725 336.832 179.699 336.832 180.773C336.832 181.847 330.314 186.142 322.298 190.238C225.43 240.782 154.807 342.82 141.347 451.776C138.825 472.453 139.899 536.932 143.02 547.67C144.069 551.466 143.595 552.84 140.947 552.84C138.425 552.84 136.677 549.418 135.404 541.801ZM186.897 483.191C188.27 476.948 187.496 474.7 182.127 469.031C175.684 462.214 175.684 462.214 184.375 462.214C191.966 462.214 193.54 461.34 195.787 455.271C197.236 451.476 199.009 448.254 199.783 448.254C200.457 448.254 202.23 451.476 203.678 455.271C205.926 461.34 207.499 462.214 215.191 462.314C224.181 462.414 224.181 462.414 217.538 468.258C211.77 473.227 211.095 475.175 212.469 482.317C214.017 490.608 214.017 490.608 206.9 486.412C199.983 482.317 199.483 482.317 192.566 486.412C185.349 490.683 185.349 490.683 186.897 483.191ZM743.411 489.709C743.411 489.334 744.41 485.513 745.558 481.418C747.531 474.6 747.132 473.426 740.389 468.157C732.997 462.313 732.997 462.314 742.636 462.314C751.427 462.214 752.501 461.515 755.023 454.698L757.77 447.18L761.466 454.698C764.588 461.041 766.435 462.214 773.378 462.214C781.469 462.214 781.469 462.214 775.226 468.757C770.056 474.201 769.182 476.648 770.456 482.991C772.004 490.683 772.004 490.683 765.761 486.587C760.292 482.991 758.744 482.891 753.275 485.613C749.754 487.386 746.158 489.234 745.184 489.609C744.21 490.108 743.411 490.208 743.411 489.709ZM718.163 415.391C718.263 413.643 719.137 409.622 720.111 406.5C721.485 401.83 720.586 399.583 715.816 395.488C709.773 390.418 709.773 390.418 715.516 390.218C723.433 390.119 726.454 387.87 729.576 379.679C732.198 372.762 732.198 372.763 735.22 379.98C738.341 387.396 742.636 390.218 750.927 390.218C755.323 390.218 755.123 390.617 749.479 395.088C744.21 399.283 743.511 401.056 744.884 408.074C746.357 416.165 746.357 416.165 739.041 412.369C731.998 408.748 731.324 408.848 724.781 413.543C720.111 416.839 717.964 417.438 718.163 415.391ZM212.843 409.347C213.643 405.826 214.616 402.604 214.991 402.205C215.391 401.73 212.943 399.008 209.622 396.161C203.579 390.892 203.579 390.893 211.869 389.344C218.512 388.071 220.86 386.223 223.007 380.279C225.829 372.762 225.829 372.762 228.651 379.38C232.072 387.196 236.068 390.119 243.585 390.218C249.153 390.218 249.154 390.218 242.985 395.088C237.641 399.283 237.042 401.056 238.315 408.074C239.864 416.165 239.864 416.165 232.547 412.469C225.929 408.948 224.656 408.948 220.061 412.169C212.744 417.339 211.095 416.664 212.843 409.347ZM255.297 339.699C255.097 338.725 255.097 336.278 255.297 334.13C255.472 331.982 250.802 327.287 243.959 322.917C232.547 315.6 230.324 312.679 234.12 310.331C236.942 308.558 262.414 327.213 262.414 331.008C262.414 338.126 256.171 345.742 255.197 339.699H255.297ZM700.882 339.873C700.008 338.999 700.982 336.477 703.03 334.23C708.025 328.761 704.978 324.366 697.586 326.238C693.865 327.212 690.943 326.613 689.77 324.865C688.496 322.717 692.791 319.996 704.703 315.401C713.868 311.78 722.559 308.857 724.107 308.857C730.45 308.857 728.102 315.6 717.289 328.087C705.877 341.347 703.829 342.82 700.882 339.873ZM715.516 321.644C718.738 317.923 717.964 317.448 712.295 319.596C710.247 320.37 708.599 321.943 708.599 323.117C708.599 326.313 712.395 325.539 715.616 321.644H715.516ZM257.045 311.979C250.402 303.014 246.407 295.498 247.181 293.45C247.98 291.502 249.328 290.228 250.402 290.728C280.744 303.314 291.282 311.105 275.774 309.457C268.357 308.658 266.11 311.879 269.531 318.422C271.004 321.144 271.279 324.166 270.305 325.165C269.132 326.238 263.288 320.27 257.045 311.979ZM263.588 306.71C264.362 305.436 262.789 303.314 260.067 301.94C255.671 299.493 255.472 299.693 258.318 304.088C261.715 309.632 261.715 309.631 263.588 306.71ZM681.778 315.6C680.804 314.227 685.374 308.483 692.217 302.514C704.204 292.076 704.204 292.076 699.034 286.532C693.291 280.389 688.896 279.489 686.074 283.885C681.678 290.727 669.292 299.992 666.745 298.419C664.897 297.245 667.519 293.05 674.736 285.833C681.878 278.616 685.1 273.646 684.101 271.199C681.379 264.181 687.048 264.956 694.539 272.772C699.234 277.642 701.482 281.737 700.408 283.51C699.234 285.358 699.534 285.733 701.182 284.759C704.104 282.911 718.163 297.345 716.315 300.267C715.716 301.266 713.269 301.541 710.946 300.767C708.099 299.893 703.13 302.514 695.913 308.757C683.826 319.196 683.926 319.196 681.778 315.6ZM274.601 291.976C262.789 279.989 259.667 274.046 265.236 274.046C266.709 274.046 269.931 275.794 272.253 278.042C276.548 281.837 276.549 281.737 274.126 275.294C271.479 268.477 272.353 262.434 275.974 262.434C277.048 262.434 278.896 266.229 280.07 270.924C281.818 277.942 283.766 279.989 291.282 282.536C296.352 284.285 300.847 285.258 301.321 284.759C301.821 284.184 298.999 277.342 294.978 269.351C287.761 255.016 287.287 246.825 293.904 249.348C295.777 250.047 303.194 255.017 310.212 260.386C319.376 267.303 322.398 270.825 320.65 272.573C318.877 274.321 316.829 274.32 313.808 272.372C308.264 268.876 303.569 272.972 306.59 278.715C310.211 285.358 299.773 293.45 291.682 290.428C282.792 287.007 282.417 287.306 286.787 294.024C294.404 305.636 286.787 304.387 274.601 291.976ZM304.268 266.229C304.268 265.755 302.695 263.982 300.747 262.334C297.825 259.887 297.425 260.086 298.699 263.208C299.973 266.529 304.268 268.776 304.268 266.229ZM656.406 288.181C655.732 287.007 655.732 284.484 656.506 282.536C658.754 276.668 655.532 273.646 650.063 276.568C647.041 278.241 644.519 278.341 643.146 276.868C641.672 275.494 646.467 270.625 656.306 263.607C676.884 248.973 679.93 251.496 669.092 274.046C661.376 289.928 659.128 292.476 656.406 288.181ZM665.371 267.977C666.27 265.755 665.671 264.681 664.023 265.255C660.502 266.429 658.654 271.699 661.675 271.699C662.949 271.699 664.597 270.05 665.371 267.977ZM634.355 271.798C631.933 270.225 632.208 268.477 636.303 262.808C641.198 255.99 641.198 255.591 637.102 253.369C633.581 251.496 632.033 252.37 628.612 258.039C625.291 263.707 623.917 264.482 621.195 262.234C618.373 259.887 618.648 258.438 623.342 252.195C626.264 248.274 631.034 241.657 633.881 237.561C637.202 232.766 640.324 230.619 642.547 231.418C645.593 232.591 645.593 233.466 642.272 238.535C636.703 247.126 642.072 251.895 648.515 244.078C651.636 240.083 653.784 239.209 655.532 240.882C659.128 244.478 638.651 274.421 634.455 271.798H634.355ZM316.355 253.443C306.391 238.035 306.391 238.035 311.385 233.94C314.207 231.692 318.203 229.844 320.45 229.844C325.919 229.844 333.037 238.135 331.363 242.631C330.589 244.578 330.689 246.226 331.663 246.226C332.537 246.226 335.858 248.374 338.88 251.021C343.175 254.517 343.85 256.29 341.902 258.338C339.854 260.286 337.706 259.611 333.336 255.491C326.294 248.873 323.372 250.622 328.541 258.438C331.563 262.908 331.663 264.581 329.316 266.529C327.093 268.277 323.971 265.155 316.355 253.443ZM325.22 242.631C325.22 239.109 319.077 235.214 316.929 237.361C316.255 238.036 316.555 240.283 317.229 242.33C319.077 247.125 325.22 247.3 325.22 242.631ZM345.223 239.209C341.028 231.592 337.332 227.597 334.485 227.597C326.693 227.597 327.368 223.501 335.958 218.332C345.997 212.488 352.34 213.462 348.145 220.28C345.922 223.901 346.497 226.523 351.566 235.713C358.583 248.199 359.083 250.822 354.588 250.822C352.94 250.822 348.644 245.552 345.223 239.209ZM360.356 228.471C357.035 206.145 356.935 206.62 362.204 206.62C367.773 206.62 388.625 234.914 384.83 237.361C383.381 238.235 380.534 237.461 378.486 235.613C373.017 230.619 369.322 231.518 369.322 237.761C369.322 240.882 367.948 243.904 366.1 244.578C363.653 245.552 362.304 241.656 360.356 228.471ZM368.822 220.58C365.426 215.111 363.753 216.285 365.8 222.827C366.699 225.449 368.348 227.022 369.521 226.348C370.695 225.549 370.395 223.127 368.822 220.58ZM586.758 242.531C581.888 237.561 582.163 227.996 587.632 219.031C598.67 201.076 617.674 210.816 610.956 231.118C606.561 244.379 594.374 250.147 586.758 242.531ZM602.665 231.318C606.161 223.901 605.687 215.984 601.791 215.984C598.37 215.984 592.427 224.575 590.953 231.792C588.805 242.63 597.396 242.231 602.665 231.318ZM613.578 244.078C611.83 242.93 611.156 240.882 612.03 239.409C613.878 236.487 622.668 240.183 622.668 243.904C622.668 246.726 617.874 246.726 613.578 244.078ZM568.428 235.314C567.554 234.44 566.755 228.471 566.655 221.953C566.555 215.41 565.881 211.714 565.206 213.662C559.638 228.671 557.29 232.866 555.143 230.718C552.021 227.597 562.759 196.181 567.054 196.181C569.302 196.181 570.75 200.102 571.549 208.967L572.798 221.753L576.02 211.889C577.793 206.345 580.615 202.05 582.562 202.05C584.41 202.05 585.384 203.424 584.81 205.072C584.136 206.72 581.788 214.536 579.541 222.427C575.92 235.613 572.523 239.409 568.428 235.314ZM399.563 226.423C399.563 224.475 401.611 222.927 404.233 222.927C411.55 222.927 409.602 217.158 400.737 212.963C388.351 207.019 390.299 192.685 403.559 192.685C410.102 192.685 410.576 196.381 404.233 198.054C397.216 199.902 398.689 203.898 407.655 207.693C414.297 210.44 415.845 212.289 415.845 217.658C415.845 221.354 414.597 225.549 413.024 227.122C409.028 231.118 399.563 230.618 399.563 226.423ZM544.229 228.196C542.581 227.597 541.308 224.201 541.308 220.58C541.308 211.415 537.487 209.841 535.839 218.332C535.064 222.327 533.017 225.274 530.869 225.274C526.674 225.274 526.674 223.801 531.643 204.298C535.264 190.438 536.038 189.264 541.308 189.863C544.529 190.238 549.099 192.486 551.546 194.933C555.642 199.128 555.742 199.803 552.221 205.072C550.273 208.193 548.225 214.836 547.826 219.905C547.351 226.049 546.177 228.771 544.229 228.196ZM545.977 202.15C545.977 196.281 542.182 194.059 540.434 198.729C538.186 204.498 538.76 206.62 542.481 206.62C544.429 206.62 545.977 204.572 545.977 202.15ZM427.083 222.827C416.919 216.884 416.345 192.186 426.184 187.716C441.218 180.873 452.63 208.967 440.044 221.553C435.848 225.748 432.627 226.049 427.083 222.827ZM437.696 214.536C439.844 208.868 434.775 192.685 430.879 192.685C428.432 192.685 427.458 195.507 427.458 202.724C427.458 215.51 434.3 223.402 437.696 214.536ZM515.736 218.232C515.736 215.21 514.187 213.662 511.066 213.662C508.519 213.662 506.471 215.21 506.471 217.058C506.471 219.505 504.049 220.58 498.779 220.58C492.336 220.58 490.389 219.306 487.267 213.062L483.546 205.471L481.898 213.062C480.924 217.558 478.876 220.58 476.828 220.58C473.982 220.58 473.607 218.532 474.781 209.841C475.555 203.898 476.229 195.507 476.229 191.211C476.229 185.842 477.303 183.421 479.75 183.421C481.998 183.421 483.271 185.768 483.271 189.863C483.346 196.181 483.346 196.181 486.867 189.863C488.915 186.043 492.337 183.421 495.059 183.421C499.753 183.421 499.753 183.52 494.684 190.638C489.989 197.18 489.789 198.529 492.636 207.02C494.284 211.989 496.432 216.684 497.306 217.158C498.18 217.757 501.601 211.215 504.723 202.524C508.918 191.411 511.84 186.742 515.061 186.243C519.057 185.668 519.731 187.616 521.779 204.198C523.752 221.354 523.652 222.927 519.831 222.927C517.309 222.927 515.736 221.154 515.736 218.232ZM515.736 203.224C515.736 201.276 514.662 199.702 513.413 199.702C512.14 199.702 511.066 201.276 511.066 203.224C511.066 205.072 512.14 206.62 513.413 206.62C514.662 206.62 515.736 205.072 515.736 203.224ZM452.131 213.363C451.356 209.367 450.682 200.976 450.682 194.733C450.682 183.421 450.682 183.421 458.773 183.421C464.542 183.421 466.964 184.494 466.964 186.916C466.964 188.889 464.817 190.438 462.095 190.438C458.773 190.438 457.5 191.611 458.099 194.433C458.474 196.68 460.821 198.528 463.268 198.528C469.711 198.528 470.485 203.798 464.142 204.772C457.3 205.746 457.225 212.188 464.042 213.162C472.633 214.436 470.386 220.58 461.42 220.58C454.478 220.58 453.404 219.706 452.131 213.363ZM761.366 774.945C739.04 750.672 741.463 745.103 764.487 767.928C780.495 783.836 780.495 783.835 786.638 778.166C792.382 772.697 812.984 747.651 816.281 741.882C817.754 739.26 790.234 717.584 786.064 717.983C784.99 718.083 778.922 724.525 772.679 732.317L761.266 746.477L770.056 754.468L778.822 762.559L787.213 754.168C795.129 746.277 795.329 745.503 791.708 741.882C788.012 738.186 787.412 738.286 782.742 744.329C779.421 748.525 776.874 749.873 775.426 748.425C773.852 746.851 775.226 743.255 779.421 737.786C786.139 728.996 787.113 728.996 799.025 738.46C805.368 743.355 805.767 742.456 787.038 765.206C780.395 773.197 777.573 772.223 762.64 756.915L752.875 746.851L767.909 728.221C776.2 718.083 783.816 709.392 784.79 709.118C785.764 708.818 794.355 714.187 803.894 721.205C821.275 733.991 821.275 733.99 827.219 727.148C830.44 723.352 837.957 711.74 843.8 701.302L854.539 682.372L840.18 675.355C832.388 671.459 824.197 667.464 822.049 666.39C819.028 664.916 816.381 667.639 808.689 680.524C803.52 689.315 799.224 697.506 799.224 698.679C799.224 700.627 815.606 710.866 818.628 710.866C819.402 710.866 822.823 706.571 826.145 701.302C830.915 693.585 831.514 691.262 829.067 689.689C823.797 686.367 820.975 687.342 818.253 693.41C815.606 699.154 812.984 700.627 810.237 697.88C808.789 696.431 816.88 681.498 820.301 679.35C823.023 677.702 836.284 684.82 837.857 688.815C839.131 691.937 823.598 720.131 820.676 720.131C817.954 720.131 789.96 702.774 789.96 701.001C789.96 700.127 792.881 694.384 796.477 688.241C800.099 682.172 805.942 672.233 809.363 666.19L815.606 655.152L836.583 665.69L857.46 676.129L864.677 660.421C871.994 644.239 880.96 619.94 879.986 618.966C879.611 618.667 870.821 615.745 860.382 612.623L841.453 606.78L834.835 624.536C831.214 634.2 827.893 642.865 827.518 643.839C827.119 644.713 830.24 646.961 834.536 648.809C849.844 655.651 849.844 655.652 854.913 644.239C860.682 631.154 860.682 630.379 855.213 628.931C851.991 628.132 849.944 629.905 847.022 635.948C841.353 647.835 837.258 642.566 842.327 629.905C846.722 618.967 846.622 618.967 858.434 623.836C866.151 627.058 866.825 628.132 865.452 633.701C862.929 644.04 854.539 662.095 852.391 662.095C851.317 662.095 843.501 659.248 835.01 655.951C821.85 650.682 819.902 649.108 820.876 644.913C822.349 638.969 836.284 600.937 837.457 599.863C837.857 599.363 847.322 601.81 858.334 605.207C869.447 608.528 879.786 610.876 881.459 610.201C883.807 609.302 889.35 588.351 895.494 557.035C896.368 552.64 894.045 551.666 878.238 549.418C872.469 548.644 864.977 547.47 861.656 546.796C855.712 545.722 855.413 546.097 852.766 561.405C851.317 570.095 849.469 579.46 848.87 582.282C847.796 586.677 849.07 587.551 859.508 589.798C866.151 591.172 871.795 592.346 872.194 592.346C872.669 592.346 873.643 588.25 874.442 583.256C875.216 578.286 876.489 572.543 877.264 570.495C878.337 567.648 877.264 566.774 872.669 566.774C867.699 566.774 866.526 567.848 866.526 572.743C866.526 575.964 864.977 579.161 863.029 579.96C858.035 581.808 857.76 580.934 860.182 569.721C862.13 560.256 862.53 559.857 870.821 559.857C885.555 559.957 886.329 561.505 881.834 581.608C877.364 601.711 878.337 601.112 855.013 595.568L839.305 591.746L843.601 572.917C845.948 562.479 847.896 551.166 847.896 547.77C847.996 544.349 848.77 541.027 849.844 540.453C850.818 539.754 861.756 540.553 874.042 542.201C899.889 545.423 897.541 548.644 900.488 505.816L901.937 483.191H860.282L859.009 503.468C857.56 526.393 858.035 527.167 872.669 527.267C883.207 527.267 885.055 524.645 885.155 509.337C885.155 502.794 884.381 501.721 879.311 501.721C874.242 501.721 873.543 502.795 873.543 509.912C873.543 515.581 872.469 518.002 870.047 518.002C867.4 518.002 866.625 515.181 866.625 506.39C866.625 494.803 866.625 494.803 879.411 494.803C893.945 494.803 893.346 493.63 890.624 520.251L889.076 534.884L870.421 533.311C860.083 532.437 851.517 531.563 851.317 531.263C851.117 530.988 851.517 518.502 852.091 503.468L853.265 476.148H899.115V463.488C899.115 446.207 894.42 415.765 891.698 415.765C885.954 415.765 855.887 421.234 854.439 422.608C853.465 423.382 853.939 432.646 855.413 443.185C858.234 462.214 858.235 462.214 870.521 462.214C882.833 462.214 882.833 462.214 882.833 453.523C882.733 439.663 880.76 434.695 875.69 436.068C872.394 436.942 871.22 439.289 871.22 445.132C871.22 454.123 867.3 455.672 865.252 447.381C862.33 435.669 864.777 431.098 874.716 429.425C879.786 428.551 884.88 428.651 885.954 429.624C886.928 430.598 888.377 439.289 889.151 448.954C890.424 466.609 890.424 466.609 882.633 468.057C878.238 468.831 869.447 469.231 863.104 468.757C851.517 468.058 851.517 468.058 849.944 452.949C845.948 414.417 845.074 417.339 860.782 414.217C868.473 412.644 880.086 410.695 886.728 409.821C898.715 408.373 898.715 408.373 901.837 421.933C906.731 443.584 906.032 541.701 900.763 565.6C880.485 657.125 848.295 721.604 794.255 778.941L779.421 794.549L761.366 774.945ZM68.8766 614.097C58.8126 582.008 51.0211 534.385 51.0211 504.743V490.109H77.7417C99.9923 490.109 104.487 490.683 104.487 493.63C104.487 496.451 100.367 497.125 81.2628 497.125H58.0385V511.659C58.1384 527.167 61.4597 557.135 63.3077 558.983C63.9819 559.657 71.1241 558.982 79.2152 557.509C104.562 553.114 102.714 555.262 100.866 532.337C99.9923 521.224 98.9185 511.86 98.5189 511.385C98.1443 510.886 92.4755 511.285 86.0326 512.159C74.2456 513.808 74.2456 513.807 74.2456 526.393C74.2456 538.305 74.5204 538.879 80.289 538.879C85.758 538.879 86.1326 538.205 85.4584 530.389C84.5843 520.924 89.0543 517.129 91.3018 525.52C95.5971 541.227 92.4757 545.897 77.8417 545.897C70.8244 545.897 70.15 545.223 68.7765 537.232C68.0024 532.337 67.3032 523.671 67.3032 517.703C67.3032 507.09 67.3032 507.089 85.0587 505.416C97.3452 504.342 103.413 504.642 104.487 506.39C105.361 507.864 106.81 518.102 107.684 529.215C108.483 540.353 109.457 551.466 109.732 554.013C110.231 558.009 107.684 558.983 88.1802 562.204C71.3987 565.026 65.9548 566.774 65.3555 569.721C64.4814 574.391 75.8937 618.192 78.8155 621.014C80.7634 623.062 110.631 614.572 114.726 610.776C116.674 608.928 110.231 579.161 107.01 575.665C106.236 574.79 100.567 575.265 94.3235 576.738C83.6103 579.161 83.2108 579.56 84.4844 586.103C85.2586 589.899 85.8329 594.094 85.9328 595.568C85.9328 600.637 89.7535 604.133 93.6493 602.685C96.7708 601.411 97.2453 599.364 96.0966 593.22C95.0227 587.177 95.3974 585.403 98.1443 585.403C99.9923 585.403 102.14 588.25 102.814 591.746C103.489 595.268 104.762 599.863 105.561 601.811C106.61 604.633 104.662 606.181 97.9447 608.228C84.4844 612.249 83.985 612.049 80.289 598.789C73.072 572.343 72.1979 574.79 90.8274 570.595C99.8924 568.547 108.583 566.774 110.131 566.774C111.605 566.774 115.201 576.339 118.122 588.35C121.069 600.138 123.991 610.975 124.565 612.424C125.165 614.097 116.874 618.093 102.814 622.688C90.328 626.883 78.8156 630.679 77.3671 631.253C75.5941 631.852 72.3727 625.31 68.8766 614.097ZM74.82 483.765L51.0211 482.991V472.653C51.0211 461.615 57.6638 410.696 59.312 409.048C60.6855 407.674 105.736 416.065 109.557 418.313C116.574 422.708 107.609 423.182 87.7058 419.686C75.9937 417.538 65.5552 416.564 64.6812 417.538C62.7333 419.686 58.0385 454.997 58.0385 467.284C58.0385 476.149 58.0385 476.148 71.5986 476.148C79.1153 476.148 88.3801 476.848 92.1759 477.522C99.1183 478.995 99.1184 478.995 100.767 458.693C101.641 447.58 102.04 438.215 101.64 437.716C101.266 437.341 95.5972 436.268 89.0544 435.394C77.2673 433.82 77.2673 433.82 75.5941 446.007C73.846 459.567 73.7461 459.192 80.0892 460.266C83.7102 460.941 84.9589 459.467 85.833 453.423C87.1066 445.432 91.1021 443.085 92.4756 449.528C92.8752 451.676 92.6753 456.745 91.9012 460.74C90.5277 467.957 90.4278 468.058 78.7157 467.184C66.8287 466.41 66.8288 466.409 68.2772 453.324C71.4986 425.13 70.3249 426.703 87.7058 428.551C110.805 430.998 109.732 429.725 107.984 452.65C106.036 478.896 104.662 485.614 101.366 484.939C99.8924 484.74 87.9805 484.164 74.82 483.765ZM153.259 259.886C142.421 250.821 132.182 242.131 130.609 240.583C125.439 235.713 142.321 218.232 152.185 218.232C160.276 218.232 167.193 224.775 167.193 232.292C167.193 234.539 170.815 236.862 177.058 238.535C182.527 239.983 189.045 242.83 191.592 244.678C195.987 248 196.087 248.374 192.266 252.195C188.57 255.991 187.871 255.991 179.106 252.095C173.836 249.748 167.993 248.573 165.645 249.448C162.124 250.821 162.798 252.095 170.515 258.613C178.506 265.355 179.205 266.729 176.758 271.299C175.285 274.046 173.836 276.368 173.537 276.293C173.237 276.293 164.172 268.876 153.259 259.886ZM157.554 236.587C156.655 230.444 150.037 228.097 145.143 232.192C142.421 234.539 142.92 235.788 148.189 240.383C155.107 246.426 158.703 244.978 157.554 236.587ZM781.269 271.898C778.922 268.177 779.321 266.33 783.317 261.26C788.187 255.017 788.187 255.017 783.317 250.247C779.122 245.952 777.673 245.652 772.204 248.199C766.935 250.522 765.262 250.421 762.34 247.4C757.37 242.53 759.118 241.256 789.56 228.77C814.533 218.531 816.106 218.232 819.128 222.228C820.876 224.475 822.349 227.397 822.349 228.77C822.349 231.118 788.286 274.72 785.564 275.794C784.79 276.094 782.842 274.321 781.269 271.898ZM800.773 241.057C808.489 233.84 807.415 231.417 798.625 235.887C789.086 240.782 789.186 240.683 790.934 243.704C793.181 247.201 794.729 246.825 800.773 241.057ZM180.479 218.832C169.341 207.619 160.276 197.755 160.276 196.981C160.276 196.181 164.946 191.711 170.815 186.916C179.48 179.799 181.927 178.826 184.749 181.273C187.871 183.795 187.496 184.969 182.027 190.737C175.884 197.18 175.784 197.355 179.979 202.05C184.275 206.72 184.275 206.719 190.818 200.576C196.262 195.307 197.835 194.833 200.857 197.355C204.178 200.102 203.878 201.076 198.21 207.02C191.792 213.762 191.792 213.762 196.861 218.832C201.93 223.901 201.93 223.901 209.048 217.158C215.69 210.74 216.265 210.641 219.985 214.337C223.681 218.033 223.282 218.931 213.643 228.67C207.974 234.439 202.804 239.209 202.13 239.209C201.331 239.209 191.692 230.044 180.479 218.832ZM749.579 232.591C746.158 228.771 746.932 227.397 761.466 213.463C788.986 187.017 788.486 187.316 792.981 192.185C796.577 196.281 795.703 197.555 775.026 216.584C754.548 235.513 753.075 236.387 749.579 232.591ZM728.302 212.688C724.506 211.015 719.812 206.82 717.964 203.324C714.842 197.455 714.942 196.581 718.938 193.659C722.833 190.837 723.707 191.112 727.628 197.555C730.35 201.95 733.472 204.397 735.919 203.798C739.415 203.123 739.815 200.677 739.24 186.542C738.541 171.034 738.841 169.76 744.784 165.165C748.206 162.443 752.875 160.196 755.223 160.196C760.492 160.196 773.653 171.134 773.653 175.604C773.653 181.272 767.334 181.747 762.065 176.478C752.775 167.213 749.654 173.356 753.674 192.985C756.796 207.619 742.362 218.832 728.302 212.688ZM214.517 191.012C205.527 179.799 197.435 169.261 196.461 167.613C193.04 161.944 209.822 148.583 220.16 148.583C222.608 148.583 227.378 151.131 230.799 154.253C238.415 161.37 238.99 173.181 232.172 181.947C227.303 187.99 227.303 187.991 233.246 195.807C238.99 203.324 239.09 203.698 234.994 207.519C230.899 211.115 229.925 210.341 214.517 191.012ZM225.33 170.934C225.33 161.944 218.612 157.849 211.395 162.444C208.473 164.292 209.048 165.764 214.616 171.608C221.933 179.225 225.33 179.025 225.33 170.934ZM693.765 184.494C686.748 179.125 683.626 175.229 684.7 173.356C693.091 159.996 714.542 131.627 716.99 130.728C720.011 129.579 741.088 143.214 741.088 146.336C741.088 147.235 739.715 149.183 737.967 150.631C735.519 152.579 733.372 152.105 728.602 148.309C722.459 143.514 722.159 143.515 717.564 147.71C712.794 152.005 712.794 152.005 719.812 157.848C725.955 163.017 726.454 164.192 723.633 168.012C720.586 172.208 720.311 172.207 714.168 167.413C708.299 162.743 707.625 162.643 703.629 166.339C697.586 171.708 698.16 174.73 706.351 180.873C712.12 185.068 712.994 186.742 710.747 189.364C706.951 194.059 705.952 193.759 693.765 184.494ZM260.841 172.982C255.571 169.261 234.595 137.271 234.595 132.975C234.595 131.627 236.467 129.754 238.615 128.88C243.185 127.132 244.359 128.406 258.019 150.431C265.436 162.243 268.158 164.966 272.353 164.392C280.644 163.218 279.57 157.749 267.383 137.671C259.093 124.011 256.645 118.142 258.518 116.294C263.088 111.724 265.81 113.572 274.501 127.132C286.213 145.188 290.708 156.675 288.935 163.717C286.113 175.229 271.079 180.099 260.841 172.982ZM667.244 166.239C664.323 164.691 662.35 162.918 662.849 162.344C663.423 161.844 664.398 152.679 665.097 141.966L666.37 122.637L660.502 133.85C649.689 154.627 648.515 155.901 643.346 153.079C638.95 150.731 638.85 150.157 642.072 145.262C643.92 142.34 650.363 131.227 656.206 120.489C669.192 97.0898 667.619 98.8385 673.687 102.06C678.157 104.407 678.457 106.055 677.183 119.041C676.409 127.032 675.236 136.097 674.661 139.219C674.062 142.44 677.383 138.245 682.053 129.954C692.417 111.424 691.343 112.598 696.887 115.12C701.182 117.093 700.608 118.741 686.948 143.114C673.088 168.012 672.314 168.986 667.244 166.239ZM304.268 153.279C304.268 152.105 299.573 141.466 293.829 129.754C288.061 117.967 283.391 107.029 283.391 105.381C283.391 98.8384 304.168 91.8207 312.359 95.5166C318.203 98.1637 321.524 106.255 319.177 112.198C318.303 114.546 320.15 116.993 324.745 119.315C337.531 125.858 336.258 142.341 322.398 150.831C314.407 155.701 304.268 157.074 304.268 153.279ZM320.55 139.318C323.472 133.75 315.855 124.585 310.112 126.832C305.816 128.505 305.816 128.58 310.212 137.071C314.307 145.087 317.129 145.661 320.55 139.318ZM307.764 111.224C307.764 107.129 306.316 105.381 302.495 104.781C296.851 104.007 295.977 106.83 299.773 113.972C302.994 120.015 307.764 118.341 307.764 111.224ZM605.188 136.397C595.923 128.306 595.149 116.494 602.765 100.986C612.604 80.8833 626.864 75.7135 639.05 88C647.716 96.5906 647.916 106.355 639.824 122.637C630.66 140.992 616.8 146.436 605.188 136.397ZM624.791 123.911C630.46 116.594 634.855 101.76 632.807 96.4905C628.986 86.5515 615.426 97.2901 610.956 113.772C606.661 129.655 615.252 135.998 624.791 123.911ZM346.097 131.527C335.758 103.433 329.915 84.304 330.889 81.7568C331.563 80.2085 333.911 78.835 336.258 78.835C339.579 78.835 342.102 83.905 348.045 101.96C355.562 124.985 355.562 124.984 362.504 122.637C370.495 119.815 376.339 121.364 376.339 126.258C376.339 128.206 370.795 131.428 362.504 134.25C348.744 138.845 348.744 138.844 346.097 131.527ZM384.73 125.659C383.281 123.136 371.669 74.5403 371.669 70.7444C371.669 68.6967 373.817 67.2228 376.938 67.2228C381.608 67.2228 382.782 69.7699 388.55 93.369C392.047 107.728 394.869 120.689 394.869 122.163C394.869 125.085 386.103 128.106 384.73 125.659ZM549.973 121.363C547.751 120.789 545.977 118.841 545.977 116.993C545.977 113.772 557.69 64.5007 558.763 63.1273C559.063 62.7527 563.833 63.1273 569.402 64.1012C583.736 66.3487 592.426 75.4388 592.426 88C592.426 113.971 574.771 127.906 549.973 121.363ZM573.497 108.877C578.567 103.433 581.788 90.2479 579.641 83.4304C578.267 79.3349 569.676 72.6917 568.128 74.6396C566.954 76.113 559.837 106.554 559.837 110.15C559.837 115.32 568.228 114.546 573.497 108.877ZM404.433 101.485C399.763 67.3229 399.963 61.5794 405.707 60.7053C410.102 60.106 410.876 61.4794 412.449 72.3174L414.197 84.7039L418.592 71.518C422.288 60.7049 424.036 58.2582 429.306 57.2842C432.727 56.61 435.849 56.3101 436.148 56.6097C436.523 56.9843 434.2 63.2271 430.979 70.4442C425.11 83.7296 425.11 83.7297 434.375 97.3647C445.213 113.372 445.713 116.019 437.996 116.019C433.701 116.019 430.779 113.472 426.184 105.581C418.592 92.5952 414.872 94.0688 417.019 109.277C418.493 120.29 418.393 120.69 412.824 120.69C407.28 120.69 406.88 119.715 404.433 101.485ZM524.626 115.52C522.478 113.872 518.383 104.781 515.361 95.3169L509.892 78.0614L507.645 96.2909C505.297 114.146 503.349 117.767 497.805 114.146C495.258 112.498 495.833 102.934 501.701 56.2104C501.701 55.9107 504.223 55.6358 507.17 55.6358C511.84 55.6358 513.313 57.9584 518.083 73.0917C524.226 92.7951 527.248 92.1954 527.348 71.3183C527.348 58.5573 527.548 57.9579 533.217 57.9579C539.06 57.9579 539.06 57.9578 537.587 73.6656C533.017 120.489 532.617 121.763 524.526 115.52H524.626ZM471.559 84.7039C471.559 55.6358 471.559 55.6358 477.403 55.6358C483.172 55.6358 483.171 55.6358 483.171 84.7039C483.171 113.672 483.172 113.672 477.403 113.672C471.559 113.672 471.559 113.672 471.559 84.7039Z" fill="#383B40"/>
</svg>
