<svg width="958" height="958" viewBox="0 0 958 958" fill="none" xmlns="http://www.w3.org/2000/svg">
<path fill-rule="evenodd" clip-rule="evenodd" d="M223.4 824.908C218.999 822.046 215.367 819.047 215.367 818.198C215.367 816.895 227.406 799.626 240.432 782.278C243.057 778.646 243.432 778.725 251.84 785.672C263.247 794.988 263.484 800.929 252.925 815.198C240.353 832.151 236.564 833.395 223.4 824.908ZM242.978 812.731C252.688 799.073 253.3 797.159 249.373 793.606C246.136 790.606 245.445 791.139 236.11 803.632C226.163 817.112 225.472 820.744 233.031 820.744C235.873 820.744 239.11 818.119 242.978 812.731ZM714.636 809.869C709.781 798.777 705.459 788.751 705.005 787.587C704.531 786.442 706.307 784.133 708.853 782.436C713.55 779.416 713.787 779.495 732.595 794.534C748.325 807.027 751.267 810.106 749.412 812.336C746.471 815.889 744.003 815.81 739.78 812.04C736.681 809.178 736.069 809.178 731.668 812.04C727.582 814.724 727.287 815.652 729.142 819.737C731.214 824.296 728.905 830.158 725.036 830.158C724.208 830.158 719.569 821.06 714.714 809.869H714.636ZM727.899 805.547C729.28 803.317 724.209 797.001 718.88 794.06C715.722 792.442 715.8 792.916 719.333 799.922C723.28 807.639 725.669 809.178 727.978 805.547H727.899ZM202.578 808.941C201.197 807.323 201.414 805.172 203.111 801.935C205.282 797.85 205.282 796.764 202.736 793.922C199.025 789.896 196.874 789.758 192.71 793.527C189.848 796.073 189.157 795.995 185.467 792.995C181.302 789.679 181.303 789.679 201.256 776.021C212.21 768.541 221.841 762.384 222.69 762.384C223.459 762.384 225.709 764.081 227.485 766.074C230.643 769.548 230.327 770.475 219.768 790.449C208.973 810.955 206.427 813.658 202.578 808.941ZM215.21 781.113L219.235 773.475L212.604 778.488C205.894 783.58 204.966 785.199 207.197 787.508C209.664 789.896 211.282 788.672 215.21 781.113ZM742.168 786.817C733.761 777.502 726.892 769.252 726.892 768.482C726.892 767.693 728.431 766.153 730.286 764.929C733.286 763.074 735.754 765.166 749.332 780.501C762.279 795.225 764.509 798.698 762.595 801.008C761.352 802.547 759.654 803.79 758.805 803.79C758.036 803.79 750.497 796.152 742.168 786.817ZM756.043 773.633L739.227 756.759L747.023 748.884C752.964 742.963 756.339 741.108 760.898 741.108C767.608 741.108 773.923 747.048 773.923 753.206C773.923 755.436 775.226 756.759 777.397 756.759C779.252 756.759 784.029 759.522 787.877 762.916C794.903 768.936 794.963 769.015 791.272 772.41C787.561 775.725 787.265 775.646 780.95 770.021C773.469 763.548 771.615 763.074 768.22 767.16C766.207 769.627 766.918 771.166 772.759 777.186C779.391 784.054 779.548 784.429 776.232 787.429C772.996 790.37 771.911 789.6 756.043 773.633ZM764.372 759.838C769.385 753.818 760.739 746.97 754.799 752.358C751.562 755.298 751.562 755.752 754.424 758.989C758.194 763.074 761.352 763.39 764.292 759.838H764.372ZM173.053 781.192C172.421 780.186 172.421 778.488 173.053 777.502C173.664 776.416 172.579 775.567 170.664 775.567C168.651 775.567 165.652 774.028 163.954 772.173C157.165 764.614 161.724 754.45 177.513 741.957C188.013 733.628 192.947 732.937 200.032 738.937C206.585 744.503 207.808 751.667 203.269 757.824C200.723 761.219 200.348 761.298 197.328 758.298C194.625 755.594 194.486 754.588 196.48 752.121C199.105 748.963 196.401 743.575 192.098 743.654C188.861 743.654 170.191 762.068 170.191 765.305C170.191 769.331 174.829 770.633 179.605 768.087C182.763 766.39 183.138 765.304 181.46 763.311C180.296 761.851 179.822 759.838 180.533 758.752C182.605 755.298 186.769 756.601 190.934 761.93C195.019 767.081 195.019 767.081 185.921 775.034C176.211 783.501 174.888 784.192 173.053 781.192ZM790.818 751.43C785.094 746.575 776.845 739.726 772.463 736.095L764.45 729.463L772.7 720.602C782.016 710.339 786.18 709.569 794.509 716.516C801.061 721.983 802.147 729.621 797.371 736.865C794.667 741.029 794.825 741.483 801.377 747.266C808.147 753.206 808.226 753.443 804.772 756.759C801.298 760.074 800.903 759.916 790.818 751.43ZM790.818 728.161C790.877 722.911 783.555 719.99 779.864 723.76C777.002 726.681 777.16 727.233 782.173 731.615C787.877 736.549 790.739 735.404 790.818 728.161ZM144.83 749.2C142.975 747.187 142.205 745.43 143.133 745.43C144.06 745.351 147.988 742.647 151.915 739.253C158.705 733.47 158.863 733.095 156.001 728.931C153.001 724.687 153.001 724.687 144.139 731.24C135.416 737.634 135.198 737.634 132.81 733.865C131.488 731.694 131.113 729.384 131.962 728.694C132.889 727.924 141.06 721.529 150.218 714.503C163.185 704.556 167.645 702.01 169.895 703.49C174.75 706.49 174.197 708.563 167.428 713.497C160.244 718.747 159.395 721.293 163.717 724.845C166.027 726.838 167.724 726.385 173.428 722.299C178.599 718.668 180.987 717.898 182.842 719.437C187.302 723.227 185.388 725.832 168.967 738.029C147.613 753.976 148.678 753.522 144.83 749.2ZM808.225 717.365C794.193 708.346 790.028 702.642 791.804 694.767C793.127 688.688 800.686 681.504 805.837 681.504C811.935 681.504 833.054 695.852 836.29 702.089C840.001 709.273 838.067 717.523 831.594 721.983C825.416 726.385 820.561 725.378 808.225 717.365ZM830.054 710.26C830.429 706.944 828.198 704.556 818.784 698.477C805.758 689.991 801.219 689.537 801.219 696.543C801.219 700.017 803.765 702.938 811.462 708.346C822.811 716.201 829.048 716.891 830.054 710.26ZM121.62 718.589C120.475 717.128 120.002 715.431 120.693 714.819C121.403 714.128 119.706 711.799 116.923 709.648C107.055 701.872 111.456 692.458 130.343 680.734C142.126 673.412 147.909 672.8 153.928 678.05C161.329 684.524 162.336 692.774 156.553 699.464C151.915 704.793 151.915 704.793 149.606 700.471C147.988 697.392 147.908 695.616 149.389 694.155C152.231 691.214 151.915 685.373 148.757 684.129C143.133 682.057 121.324 696.622 121.324 702.563C121.324 705.484 122.39 706.096 126.475 705.642C129.87 705.247 131.646 703.944 131.646 701.872C131.725 700.096 132.81 697.55 134.192 696.148C136.205 694.234 137.113 694.471 139.442 697.55C146.132 706.411 146.073 707.339 138.672 711.799C134.804 714.207 129.87 717.207 127.718 718.589C124.403 720.681 123.396 720.681 121.62 718.51V718.589ZM827.508 682.136C817.166 676.491 808.462 671.557 808.087 671.182C806.153 669.248 818.33 651.209 822.178 650.281C829.047 648.505 835.915 651.13 838.303 656.301C839.527 659.084 841.461 660.623 843 659.992C844.382 659.459 849.711 660.84 854.803 663.09C862.737 666.544 863.743 667.63 862.204 670.57C859.954 674.735 854.961 675.031 850.027 671.261C845.014 667.472 841.066 667.708 838.461 671.952C836.448 675.11 837.138 676.037 844.54 679.886C853.322 684.603 853.638 684.978 851.783 689.833C850.164 694.155 848.389 693.543 827.508 682.136ZM831.594 661.926C830.291 658.452 824.508 658.077 821.33 661.235C817.955 664.551 818.567 666.09 824.271 669.09C828.968 671.636 829.58 671.557 831.06 668.32C831.968 666.406 832.205 663.465 831.594 661.926ZM100.956 684.366C99.1998 680.438 99.5747 679.353 103.581 676.116C107.745 672.879 107.982 671.952 106.048 667.551C104.134 663.386 102.969 662.853 97.7984 663.781C93.1012 664.709 91.4828 664.156 90.4762 661.61C89.7854 659.853 89.9432 657.761 90.7129 656.992C93.7918 654.209 135.416 646.196 137.587 647.893C143.665 652.906 141.672 656.834 126.396 669.643C100.877 691.076 103.423 689.596 101.035 684.366H100.956ZM123.238 660.919L129.791 655.373L121.936 657.682C112.916 660.307 111.061 661.689 112.758 664.472C114.614 667.393 115.916 666.939 123.238 660.919ZM853.105 642.801C837.06 636.111 832.204 635.716 832.204 641.262C832.204 643.275 831.199 643.966 829.284 643.196C827.587 642.584 825.968 642.032 825.495 642.032C823.58 642.032 825.12 635.716 829.659 625.236C834.83 613.355 835.283 612.901 839.448 615.526C841.54 616.828 841.54 617.993 839.843 621.308C838.599 623.539 837.83 625.69 838.225 625.927C838.521 626.243 846.711 629.775 856.342 633.782C870.533 639.722 873.69 641.815 873.216 644.735C872.368 650.202 870.296 649.985 853.185 642.801H853.105ZM86.0752 645.426C82.6213 643.729 72.832 623.835 74.7465 622.295C77.1345 620.381 116.469 606.269 118.008 606.723C121.087 607.809 126.475 623.223 125.488 628.236C124.482 633.644 115.226 638.953 109.976 637.334C107.825 636.644 106.285 637.019 106.285 638.183C106.285 640.413 95.2524 647.735 92.1735 647.597C91.1669 647.518 88.4041 646.512 86.0752 645.426ZM98.5682 633.782C101.351 630.466 99.259 625.157 95.1736 625.157C89.9435 625.157 85.2459 629.539 86.6275 633.17C88.088 637.019 95.5682 637.492 98.5682 633.782ZM114.614 627.782C118.304 626.302 118.541 619.749 114.85 618.368C113.37 617.756 110.449 618.21 108.278 619.453C105.042 621.151 104.745 622.216 106.285 625.236C108.357 629.085 109.837 629.539 114.535 627.782H114.614ZM81.5356 574.81C79.9962 570.488 78.9897 559.238 78.9897 545.659C78.9897 533.482 78.6147 523.614 78.0621 523.614C76.3648 523.693 67.6609 532.021 64.4242 536.719C61.1874 541.357 61.1874 541.357 61.1874 535.732C61.2663 529.022 63.8717 525.232 71.5097 520.93C77.1345 517.752 77.1346 517.752 68.9637 518.601C64.2665 519.153 59.0167 521.147 56.6286 523.397C51.1616 528.469 50.1548 528.331 51.3193 522.627C52.7797 514.594 60.714 509.897 70.5032 510.982C78.9898 511.91 78.9896 511.91 73.3648 507.43C70.2859 504.963 67.1283 502.891 66.3389 502.891C65.51 502.891 64.8783 502.042 64.8783 501.035C64.8783 499.95 67.0494 499.101 69.6546 499.101C74.3715 499.101 83.687 506.503 83.687 510.213C83.687 511.279 85.7788 510.055 88.3248 507.509C93.101 502.733 104.903 501.036 107.212 504.726C107.903 505.812 106.443 506.66 103.976 506.66C101.509 506.66 97.7981 507.884 95.8048 509.443C92.4101 511.969 92.489 512.127 98.3507 512.206C102.436 512.285 106.206 513.903 109.206 516.903C114.219 521.916 115.837 527.62 111.14 523.693C109.68 522.469 106.048 521.068 103.127 520.535C100.186 520.081 96.3379 519.232 94.5616 518.68C89.6276 517.219 90.4763 519.449 96.8709 524.778C100.956 528.173 102.515 531.173 102.515 535.416C102.515 541.357 102.515 541.357 99.3379 536.64C95.0354 530.324 87.7128 523.535 85.2458 523.535C83.8445 523.535 83.5487 529.791 84.0816 542.817C84.8513 558.922 85.8577 563.718 90.0221 571.968C95.0351 581.836 95.0353 581.836 89.5487 581.836C84.8514 581.836 83.608 580.829 81.4567 574.81H81.5356ZM862.736 580.435C871.302 563.718 872.526 559.396 873.216 541.89C873.769 530.028 873.375 523.535 872.152 523.535C871.066 523.535 866.665 527.482 862.5 532.258C854.803 541.041 854.803 541.041 854.803 535.258C854.803 531.173 856.422 528.173 860.428 524.778C863.586 522.153 865.362 519.528 864.435 518.995C862.659 517.91 852.494 520.614 846.77 523.693C842.073 526.239 842.764 523.081 848.171 517.219C851.25 513.825 854.724 512.285 858.967 512.206C864.829 512.127 864.968 511.969 861.514 509.443C859.501 507.884 855.869 506.66 853.402 506.66C850.856 506.66 849.474 505.812 850.086 504.726C852.336 501.193 863.507 502.733 868.362 507.193C873 511.516 873 511.515 875.921 506.502C877.697 503.345 881.171 500.878 884.861 500.108C890.723 498.785 895.657 500.641 890.881 502.417C889.499 502.891 886.105 505.358 883.322 507.825C878.309 512.364 878.308 512.364 884.94 511.279C894.275 509.66 901.519 512.976 904.598 520.219C907.834 528.015 906.769 529.101 901.045 523.693C898.361 521.147 893.348 519.153 888.335 518.601C880.165 517.752 880.165 517.752 885.868 520.93C893.348 525.232 896.052 529.022 896.111 535.416C896.19 540.666 896.19 540.666 890.269 533.877C878.703 520.693 878.151 521.226 878.23 545.817C878.23 572.027 875.23 581.895 866.98 581.895C864.276 581.895 862.361 581.204 862.736 580.435ZM860.428 479.839C860.428 479.286 861.731 475.279 863.27 470.878C864.829 466.497 866.053 462.569 866.053 462.254C866.053 461.859 862.657 459.017 858.414 456.017L850.796 450.451L860.664 449.84C870.533 449.307 870.533 449.307 873.296 440.82L876.158 432.334L879.769 441.274C883.401 450.076 883.558 450.234 892.183 450.293L900.907 450.372L893.96 456.017C887.032 461.721 887.032 461.721 889.499 470.03C890.881 474.668 891.651 478.438 891.177 478.438C890.723 478.438 887.25 476.365 883.559 473.819C876.375 468.964 876.158 468.964 866.507 476.207C863.191 478.674 860.428 480.372 860.428 479.839ZM65.6481 474.194C69.2795 461.563 69.1215 460.714 61.7993 455.859L54.7927 451.142L64.3453 450.609C73.8976 450.076 73.8979 450.076 76.207 441.669C77.5294 437.05 79.2264 433.261 79.9961 433.261C80.6869 433.261 82.3844 437.05 83.687 441.669C86.0159 450.076 86.0157 450.076 95.5681 450.609L105.121 451.142L98.1929 455.859C90.8708 460.872 89.9431 464.03 93.4166 471.727C96.6534 478.832 94.2654 479.523 86.7064 473.661C79.9961 468.569 79.9961 468.569 73.5226 473.503C65.5688 479.523 64.1086 479.681 65.6481 474.194ZM93.0221 405.828C89.4696 396.492 87.7725 377.21 89.3909 364.342C90.2395 357.335 90.6338 351.158 90.1799 350.763C89.7851 350.309 85.4631 353.941 80.687 358.717C70.8188 368.585 70.5821 368.743 70.5821 364.105C70.5821 359.013 76.0686 352.322 82.5421 349.461C88.4037 346.915 88.4036 346.915 81.0815 346.836C75.9895 346.836 71.7466 348.296 67.1875 351.691C60.714 356.704 60.7137 356.704 62.036 352.243C64.3452 344.211 72.1213 338.823 80.1539 339.593C86.8643 340.204 87.0813 340.066 84.3183 336.968C82.6999 335.191 79.7591 333.198 77.8447 332.586C72.6738 330.968 73.5226 327.948 79.1475 327.948C81.9895 327.948 86.233 330.257 89.5487 333.494C95.1143 339.06 95.1142 339.06 101.963 334.422C106.443 331.422 110.134 330.198 112.68 330.968C119.923 333.119 119.784 334.974 112.146 336.198C102.357 337.737 100.186 341.132 108.989 341.132C113.153 341.132 117.081 342.533 119.469 344.921C125.172 350.625 123.929 352.244 116.153 349.461C112.304 348.079 107.292 346.915 105.042 346.836C101.43 346.757 101.587 347.388 107.37 353.171C110.903 356.704 113.765 361.342 113.765 363.493C113.765 368.96 113.212 368.664 103.818 358.875L95.5681 350.23L94.4827 360.71C93.0222 374.368 95.4892 391.163 100.423 401.347C105.278 411.373 105.357 410.762 99.6535 410.762C96.2589 410.762 94.3247 409.281 93.0221 405.828ZM852.948 409.676C852.948 409.143 854.566 405.433 856.58 401.505C863.507 387.848 866.368 352.401 860.507 352.401C859.579 352.401 855.414 356.329 851.171 361.184C843.691 369.671 843.534 369.73 843.534 364.737C843.534 361.342 845.783 357.335 850.027 353.013C856.579 346.54 856.58 346.54 851.488 347.073C848.626 347.309 845.31 348.375 844.007 349.303C842.685 350.231 841.62 350.467 841.62 349.776C841.62 349.086 839.921 349.461 837.908 350.546C835.283 351.928 834.139 351.928 834.139 350.625C834.139 346.145 841.836 341.132 848.704 341.053C855.73 340.974 855.73 340.974 851.013 338.29C848.467 336.81 844.382 335.586 841.994 335.586C839.606 335.507 838.145 334.658 838.836 333.573C840.77 330.494 852.256 331.501 856.875 335.27C861.197 338.744 861.277 338.744 866.29 333.356C869.902 329.566 873.138 327.948 877.46 327.948C883.559 327.948 883.559 327.948 875.763 333.652C871.52 336.751 867.987 339.593 867.987 340.066C867.987 340.441 871.382 340.283 875.605 339.75C884.565 338.507 891.118 341.448 894.118 348C897.433 355.401 896.506 357.178 891.651 352.619C886.716 347.921 874.224 344.29 872.526 346.994C871.993 347.921 872.764 348.691 874.303 348.691C877.994 348.691 886.796 359.329 886.796 363.888C886.796 368.664 885.256 368.427 880.855 362.802C878.842 360.256 874.915 356.546 872.152 354.553C867.06 350.921 867.06 350.921 867.06 374.743C867.06 402.038 864.671 410.762 857.428 410.762C854.961 410.762 852.948 410.288 852.948 409.676ZM125.172 335.744C121.62 327.178 120.159 311.291 121.403 296.035C122.014 288.258 122.311 281.627 122.094 281.232C121.778 280.857 117.317 284.548 112.068 289.482C103.581 297.416 102.515 297.89 102.515 294.179C102.515 291.87 105.515 287.015 109.127 283.383C112.759 279.772 115.68 276.377 115.68 275.923C115.68 274.285 103.502 277.542 100.66 279.93C94.2654 285.16 93.1802 285.081 95.1736 279.377C97.5814 272.529 104.055 268.976 112.68 269.982C121.324 270.989 121.245 269.213 112.443 263.726C106.897 260.331 106.127 259.266 108.831 258.713C114.91 257.568 121.403 260.272 123.475 264.812C125.548 269.292 125.548 269.292 132.179 264.733C135.811 262.266 139.896 260.272 141.199 260.272C145.146 260.272 149.527 262.424 149.527 264.358C149.527 265.345 148.915 265.739 148.067 265.206C146.527 264.279 130.719 270.673 130.719 272.292C130.719 272.825 133.265 272.371 136.343 271.285C142.817 269.055 153.77 273.989 154.856 279.614C155.389 282.476 154.935 282.535 148.836 280.009C145.146 278.45 140.133 277.226 137.587 277.226C133.106 277.226 133.106 277.305 139.442 283.62C145.599 289.798 147.455 294.811 144.218 296.804C143.29 297.337 141.514 295.877 140.29 293.568C138.968 291.337 135.495 287.469 132.574 285.16C127.245 280.917 127.245 280.916 126.021 290.863C124.482 302.903 127.876 322.935 132.731 331.343C137.508 339.435 137.35 341.132 131.883 341.132C128.804 341.132 126.791 339.513 125.172 335.744ZM819.495 335.961C828.968 317.389 833.211 293.962 828.968 282.93C827.191 278.39 827.192 278.39 820.344 285.476C816.554 289.403 813.396 293.488 813.396 294.653C813.396 296.192 812.863 296.192 811.383 294.653C808.383 291.712 811.166 284.706 817.877 278.449C823.581 273.061 823.58 273.062 816.258 274.226C812.172 274.917 806.923 276.693 804.535 278.232C800.824 280.699 800.292 280.699 800.292 278.311C800.292 273.298 810.002 267.437 816.87 268.206C822.495 268.897 822.81 268.66 819.869 266.509C818.014 265.206 813.713 263.588 810.318 262.877C802.305 261.417 804.061 258.417 812.943 258.417C817.245 258.417 821.251 259.799 823.876 262.266C827.961 266.114 827.961 266.114 833.744 260.331C837.138 256.957 841.461 254.628 844.303 254.628C849.948 254.628 850.797 257.647 845.626 259.266C843.692 259.878 840.612 262.029 838.678 264.2C835.283 267.89 835.363 267.969 843.08 266.746C850.086 265.581 851.488 266.055 856.58 271.206C864.75 279.298 864.434 284.548 856.184 278.607C852.869 276.14 847.165 273.91 843.534 273.673C836.902 273.219 836.902 273.219 842.922 276.989C849.553 281.153 852.948 286.245 852.948 292.107C852.948 295.344 851.251 294.416 843.159 286.62C837.83 281.469 833.29 277.463 833.054 277.68C832.817 277.916 833.448 283.245 834.435 289.403C836.448 301.659 835.363 318.475 831.909 330.119C830.054 336.356 828.968 337.362 824.271 337.362C821.192 337.362 819.1 336.75 819.495 335.961ZM166.579 253.779C160.323 247.384 160.165 247.306 153.692 250.009C144.139 254.016 143.132 253.404 147.534 246.378C152.547 238.286 152.468 237.28 146.448 230.273C140.744 223.405 141.356 221.787 148.461 224.49C156.79 227.648 159.632 226.72 164.566 219.319L169.264 212.313L170.191 221.708C171.119 231.043 171.198 231.122 179.132 232.819C189.158 234.891 189.236 236.451 179.447 239.688C171.73 242.214 171.731 242.214 172.579 251.253C173.053 256.187 173.27 260.272 173.132 260.272C172.974 260.272 170.033 257.332 166.579 253.779ZM777.693 245.766C777.693 236.293 777.555 236.214 769.68 232.898L761.747 229.582L770.608 226.957C779.549 224.333 779.549 224.332 779.549 215.925C779.549 211.385 780.398 207.616 781.483 207.616C782.49 207.616 783.338 208.228 783.338 208.997C783.338 209.767 785.252 212.846 787.64 215.787C791.725 220.859 792.357 221.017 799.285 219.181C808.699 216.557 809.389 217.405 803.212 224.648C798.278 230.589 798.279 230.589 802.147 237.22C807.002 245.312 806.232 246.24 797.371 243.062C790.424 240.536 790.344 240.595 784.029 247.937L777.693 255.259V245.766ZM181.993 208.307L163.027 188.018L171.809 179.926C176.586 175.466 182.526 171.301 184.993 170.669C190.855 169.13 198.868 175.15 201.196 182.866C202.183 186.103 204.039 188.787 205.42 188.787C206.743 188.787 211.124 191.728 215.15 195.34C219.156 198.971 223.538 201.971 224.939 201.971C226.479 201.971 225.551 203.984 222.472 206.984C217.459 211.997 217.459 211.997 209.821 205.07C201.197 197.353 200.565 197.116 195.473 200.905C192.019 203.53 192.157 203.905 200.269 212.234C208.657 220.8 208.657 220.8 204.808 224.648C200.881 228.576 200.881 228.576 181.993 208.307ZM191.704 191.965C196.026 185.097 184.914 177.775 179.684 184.09C177.592 186.557 177.908 187.722 181.599 191.728C186.395 196.82 188.625 196.899 191.704 191.965ZM732.517 212.313C732.517 209.313 730.287 205.524 726.517 202.208C717.182 193.801 718.109 186.182 729.971 172.446C735.22 166.446 742.464 159.894 746.253 157.802C752.648 154.249 753.259 154.249 759.575 157.268C768.456 161.512 772.996 170.216 770.371 177.853C767.687 185.412 754.109 201.438 747.319 204.912C743.629 206.846 741.931 209.155 741.931 212.392C741.931 216.083 741.004 217.01 737.234 217.01C733.524 217.01 732.517 216.083 732.517 212.313ZM750.26 186.952C762.2 174.38 763.819 167.591 755.036 166.584C751.187 166.13 748.247 168.281 740.471 177.301C728.669 190.8 727.741 197.353 737.451 198.044C738.537 198.123 744.319 193.11 750.26 186.952ZM217.459 176.393C208.894 165.361 201.571 155.413 201.196 154.249C200.565 152.492 211.44 142.999 220.538 137.374C222.926 135.914 228.551 138.835 228.472 141.539C228.472 142.151 225.078 145.091 220.992 148.012C213.749 153.183 213.591 153.4 216.532 157.88C220.301 163.584 221.624 163.584 229.321 157.723C235.262 153.183 235.577 153.183 238.656 156.578C241.577 159.815 241.36 160.269 234.255 165.203C226.696 170.452 226.696 170.453 230.564 175.841C235.34 182.472 236.505 182.551 244.676 176.314C249.906 172.308 251.603 171.834 253.912 173.768C255.472 175.071 256.774 176.689 256.774 177.459C256.774 178.781 235.34 196.347 233.722 196.347C233.268 196.347 225.926 187.327 217.459 176.393ZM703.682 182.235C700.683 180.005 700.446 178.702 702.143 173.926C703.919 168.834 703.623 167.828 699.222 164.354C694.367 160.505 694.367 160.505 689.966 164.67C686.038 168.281 685.032 168.518 680.867 166.209C678.242 164.828 676.17 163.209 676.249 162.657C676.407 160.88 716.866 126.736 718.721 126.815C719.569 126.815 722.353 128.355 724.899 130.289C729.36 133.822 729.359 133.822 720.813 155.176C716.096 166.979 711.715 178.465 711.025 180.775C709.544 185.709 708.478 185.945 703.682 182.235ZM712.564 148.782C715.248 142.23 715.247 141.855 712.247 143.473C710.471 144.381 707.076 147.321 704.688 149.867C700.524 154.328 700.445 154.722 703.761 156.499C707.846 158.887 708.775 158.038 712.564 148.782ZM250.379 148.861C234.334 122.809 234.255 124.269 252.294 115.408C262.32 110.474 269.03 113.02 273.728 123.657C277.813 132.756 275.82 139.999 267.945 145.012C262.557 148.466 262.557 148.466 268.418 157.427C274.043 166.051 274.122 166.446 270.649 169.051C268.714 170.531 266.563 171.755 265.872 171.834C265.182 171.834 258.234 161.512 250.379 148.861ZM263.169 136.921C266.879 133.289 266.879 132.361 263.248 127.111C260.011 122.651 257.386 122.039 253.004 124.802C250.537 126.342 250.596 127.427 253.774 133.21C257.78 140.69 258.925 141.144 263.169 136.921ZM663.835 156.104C660.362 153.479 660.361 153.262 664.841 143.611C669.459 133.822 669.459 133.822 664.999 130.21C660.44 126.578 660.44 126.579 654.973 136.842C649.802 146.473 649.111 147.006 644.947 145.091C642.48 144.006 640.388 142.387 640.388 141.539C640.388 139.23 665.453 94.7439 666.755 94.7439C671.156 94.7439 688.584 107.77 690.123 112.309C692.354 118.645 688.742 126.658 682.268 129.519C679.406 130.822 678.026 133.052 678.026 136.526C678.026 141.697 670.762 158.729 668.61 158.729C667.999 158.729 665.828 157.506 663.914 156.104H663.835ZM677.63 120.717C681.025 117.322 680.334 112.092 676.249 109.842C671.157 107.158 670.92 107.237 667.525 113.869C664.999 118.724 664.921 120.026 667.072 121.329C670.625 123.579 675.006 123.342 677.63 120.717ZM299.483 143.157C297.786 141.914 292.082 131.986 286.754 121.19C277.675 102.836 277.28 101.375 280.438 99.1254C282.293 97.7438 284.681 96.6583 285.766 96.6583C286.911 96.7373 291.687 105.382 296.483 115.941C303.963 132.598 305.72 135.223 309.588 135.223C316.989 135.223 316.141 127.743 306.569 108.165C301.872 98.4347 298.24 90.2639 298.556 90.0468C298.793 89.81 301.023 88.6453 303.332 87.4217C307.496 85.2507 307.97 85.8034 316.298 103.606C327.844 128.355 328.555 133.98 320.759 140.532C314.207 145.999 304.733 147.164 299.483 143.157ZM624.441 135.756C622.349 134.592 620.276 133.447 619.882 133.052C618.737 132.125 640.625 83.4944 642.164 83.4944C642.855 83.4944 645.026 84.6389 646.882 86.0204C650.197 88.4283 649.802 89.731 640.388 111.855C634.921 124.723 629.909 135.756 629.297 136.526C628.685 137.217 626.513 136.841 624.441 135.756ZM332.403 106.605C328.002 93.2833 324.469 81.4813 324.469 80.3958C324.469 79.3301 329.542 76.922 335.719 75.0076C344.739 72.3037 347.976 71.9879 351.745 73.7642C357.074 76.1523 360.922 84.2639 359.462 89.8887C358.85 92.2768 360.074 95.0401 363.014 97.744C375.961 109.783 367.633 125.355 345.962 129.657C340.417 130.822 340.416 130.822 332.403 106.605ZM355.534 116.553C362.935 111.165 353.363 98.7503 345.666 103.763C343.89 104.908 343.89 106.842 345.508 112.25C347.817 119.789 349.909 120.717 355.534 116.553ZM346.594 93.7374C351.449 90.3428 351.686 89.1981 348.37 84.639C346.594 82.2509 344.581 81.7182 341.028 82.5668C336.489 83.7115 336.252 84.1849 338.186 90.1848C340.416 97.5069 340.89 97.7439 346.594 93.7374ZM381.902 113.316C381.349 110.849 378.744 99.599 376.119 88.2703C370.948 65.8302 371.185 62.1989 377.58 63.1265C381.349 63.6791 382.277 65.9883 386.363 85.0339C391.001 106.231 391.001 106.23 398.619 104.987C402.783 104.296 407.105 103.606 408.112 103.527C409.118 103.369 410.184 105.066 410.579 107.375C411.191 111.697 407.5 113.316 389.915 116.474C383.599 117.559 382.829 117.243 381.902 113.316ZM558.759 113.869C557.91 112.467 570.087 62.9092 571.626 61.35C571.942 61.054 578.021 62.3566 585.126 64.3697C595.922 67.2907 598.231 68.6133 598.685 72.1461C599.297 76.2315 598.922 76.3891 591.817 75.3036C587.672 74.6129 582.955 73.547 581.337 72.9155C579.185 72.1458 578.337 72.9156 578.337 75.6195C578.337 77.7116 577.863 80.5537 577.33 82.0142C576.639 83.7905 579.029 85.2507 584.89 86.7902C593.219 89.0401 594.915 91.3493 591.817 96.2834C590.672 98.0597 588.975 98.2175 585.126 96.7372C575.179 92.9676 573.483 93.9743 571.016 105.145C569.002 114.086 568.074 115.487 564.225 115.487C561.758 115.487 559.292 114.717 558.759 113.869ZM526.609 110.395C518.359 108.303 514.432 102.224 514.432 91.7242C514.432 60.8172 526.213 46.7847 544.331 56.1199C550.805 59.5146 552.049 62.2777 552.049 74.1589C552.049 100.29 542.181 114.322 526.609 110.395ZM536.772 98.9082C539.713 93.3623 542.338 69.7577 540.404 66.067C538.47 62.2776 532.609 61.7448 529.846 65.1395C526.609 69.1459 523.45 94.4282 525.76 98.5926C528.227 103.231 534.384 103.369 536.772 98.9082ZM419.519 107.454C418.513 104.296 412.808 62.3567 412.808 58.4292C412.808 53.3372 421.986 54.2647 423.072 59.5145C424.769 67.3696 429.783 102.441 429.783 106.152C429.783 110.316 420.763 111.539 419.519 107.454ZM445.807 103.448C438.031 95.6717 436.71 63.2053 443.874 55.2713C453.446 44.7124 473.024 51.1071 473.024 64.8239C473.024 70.4487 464.695 69.5998 461.991 63.6C460.452 60.1264 458.597 58.962 455.597 59.3567C451.67 59.9685 451.354 61.0542 450.821 75.4617C450.209 92.9678 452.281 99.0663 458.597 98.2177C461.695 97.744 462.841 96.1254 463.236 91.5071C463.769 86.0993 464.537 85.3299 469.392 85.3299C473.952 85.3299 474.879 86.0996 474.879 89.9679C474.879 105.54 456.445 114.086 445.807 103.448ZM436.334 956.747C377.422 949.721 333.706 938.629 289.3 919.346C273.964 912.636 250.754 901.149 247.676 898.682C247.36 898.386 248.129 896.373 249.531 894.143C251.682 890.591 251.524 889.742 248.682 887.591C246.827 886.189 243.59 885.499 241.577 885.972C239.347 886.584 237.886 886.051 237.886 884.492C237.886 882.578 237.413 882.499 235.656 884.275C231.788 888.124 226.775 886.821 213.828 878.334C121.087 817.882 46.6026 715.431 16.9982 607.414C10.5247 583.671 9.99183 578.895 14.5312 583.375C17.7877 586.691 19.7808 586.059 19.7808 581.836C19.7808 579.744 20.5505 578.125 21.4781 578.125C22.4057 578.125 23.6292 576.823 24.2608 575.204C26.037 570.566 15.8531 567.488 12.7743 571.731C11.4519 573.507 9.99145 574.573 9.45857 574.04C8.90596 573.507 6.67585 561.705 4.3667 547.83C-1.41603 511.91 -1.49497 441.747 4.3667 405.966C10.9981 365.032 26.2544 310.995 31.1885 310.995C32.195 310.995 32.9647 309.751 32.9647 308.212C32.9647 306.672 34.2079 305.37 35.7473 305.37C37.9775 305.37 38.1355 304.521 36.4382 300.89C31.662 290.252 77.5289 209.688 108.219 175.071C115.916 166.288 116.232 166.13 120.693 169.051C123.16 170.669 125.942 171.518 126.791 170.985C129.653 169.209 130.955 160.347 128.804 157.643C125.626 153.874 133.186 145.012 157.777 123.263C190.48 94.4283 213.532 78.0866 250.3 57.4227C281.286 40.0745 340.416 16.8052 343.041 21.0288C343.653 22.1143 346.594 23.575 349.357 24.2855C353.995 25.4302 354.528 25.055 354.528 20.8116C354.528 18.1078 355.298 15.5618 356.146 15.0289C358.929 13.2527 403.553 5.0031 424.138 2.37817C448.808 -0.779634 509.793 -0.779608 532.233 2.29926C577.41 8.55566 620.593 19.4104 652.19 32.5942C666.065 38.377 669.302 40.923 664.605 42.4624C660.52 43.8637 666.992 50.949 672.459 51.1069C676.623 51.1859 677.393 50.5742 676.623 47.6335C675.163 42.0086 678.795 43.0939 700.149 54.5015C731.747 71.2971 739.918 76.7838 734.905 77.4746C730.05 78.1654 730.129 77.9285 732.517 84.402C733.603 87.1059 735.3 88.8033 736.385 88.1125C737.451 87.4218 739.623 87.9546 741.241 89.2572C743.55 91.1914 744.24 90.8955 745.088 87.5798C745.7 85.3298 746.628 83.4944 747.181 83.4944C749.865 83.4944 779.253 106.309 797.371 122.493C817.561 140.532 851.013 176.077 851.013 179.551C851.013 180.478 850.026 181.248 848.704 181.248C847.401 181.248 846.158 183.794 845.921 186.952C845.546 192.182 846.001 192.577 852.1 192.577C855.869 192.577 858.572 191.57 858.572 190.347C858.572 188.097 866.447 197.748 870.217 204.517C871.52 206.984 871.519 207.675 870.137 206.846C869.052 206.136 866.507 207.142 864.593 209.155C861.277 212.471 861.198 213.004 863.981 216.714C868.125 222.102 876.158 220.326 874.381 214.385C873.217 210.616 873.374 210.537 876.611 213.695C878.466 215.471 880.085 219.319 880.085 222.181C880.164 225.497 881.171 227.352 883.006 227.352C886.953 227.352 892.499 236.293 908.446 268.443C924.255 300.278 931.359 318.85 940.596 352.401C947.07 376.065 954.471 415.755 954.471 427.241C954.471 433.024 954.175 433.261 950.327 431.189C947.228 429.57 946.004 429.491 945.452 431.11C945.077 432.333 943.537 433.261 942.077 433.261C939.136 433.261 938.761 434.958 940.991 438.432C942.985 441.59 951.787 442.438 951.175 439.359C950.938 438.116 951.551 437.05 952.636 437.05C955.024 437.05 955.024 443.978 952.636 445.517C949.538 447.373 950.464 453.609 954.017 455.622C956.938 457.241 957.254 460.477 957.017 484.378C956.721 509.206 953.78 546.37 951.471 554.067C950.938 555.843 949.083 557.225 947.307 557.087C938.287 556.317 935.662 557.462 935.662 562.021C935.662 566.244 932.742 570.113 930.807 568.257C930.432 567.803 931.438 558.626 933.195 547.83C937.912 518.995 937.912 438.195 933.195 409.755C928.34 380.308 921.491 353.23 911.919 325.797C907.38 312.771 904.223 300.653 904.835 299.034C905.526 297.12 904.992 295.956 903.374 295.956C901.972 295.956 896.743 287.706 891.73 277.601C879.316 252.555 866.053 230.668 850.481 209.53C843.08 199.583 838.303 191.491 839.448 191.037C843 189.873 841.915 186.399 838.303 187.327C835.915 187.939 830.053 183.005 818.014 170.137C774.614 123.579 720.952 83.9483 671.769 62.0608C660.124 56.8899 655.427 53.8109 655.427 51.4229C655.427 48.7979 654.125 48.2451 649.191 48.7188C645.48 49.0149 633.698 46.173 620.514 41.7719C575.476 26.7525 529.845 19.4106 480.583 19.2725C370.179 18.8777 266.721 56.4162 182.368 127.348C125.488 175.229 76.207 243.141 50.7669 308.685C46.9973 318.396 44.609 322.323 42.2209 322.323C40.3657 322.323 38.4316 321.238 37.9776 319.935C37.2079 318.08 36.5962 318.159 35.2739 320.093C34.2673 321.396 32.3526 322.244 30.8921 321.948C29.4119 321.633 28.5043 322.56 28.8003 324.021C29.1161 325.481 28.2676 327.336 26.9452 328.185C25.0308 329.349 25.0305 330.198 26.8067 331.954C30.1816 335.349 38.5896 335.744 38.5896 332.507C38.5896 331.027 39.5169 329.803 40.6814 329.803C41.8261 329.803 42.3001 331.343 41.7475 333.119C10.7615 432.965 10.8403 530.028 42.0631 623.993C46.4643 637.334 47.155 641.499 45.4576 644.203C44.2932 646.117 42.2211 647.656 40.9777 647.656C39.6751 647.656 38.5896 648.446 38.5896 649.433C38.5896 652.058 42.675 654.209 47.688 654.209C51.5365 654.209 54.2404 658.373 67.5032 684.366C99.4957 746.89 138.593 795.462 190.934 837.48C265.261 897.222 341.265 927.359 445.275 938.313C454.591 939.32 456.071 940.01 456.071 943.326C456.071 946.484 455.676 946.8 453.288 944.787C451.512 943.326 450.426 943.247 450.426 944.49C450.426 945.556 451.986 946.957 453.742 947.49C455.755 948.102 457.057 950.411 457.057 953.273C457.057 957.595 456.367 957.97 449.519 957.654C445.355 957.516 439.492 957.122 436.334 956.747ZM224.781 874.328C224.781 872.788 223.933 871.466 223.005 871.466C220.617 871.466 218.92 874.407 220.38 875.946C222.551 878.018 224.781 877.17 224.781 874.328ZM946.932 551.837C946.932 549.37 943.537 547.593 941.307 548.975C940.221 549.606 939.827 550.909 940.459 551.916C941.84 554.146 946.932 554.146 946.932 551.837ZM948.846 455.859C948.846 454.773 947.998 453.925 946.932 453.925C945.926 453.925 945.077 454.773 945.077 455.859C945.077 456.846 945.926 457.694 946.932 457.694C947.998 457.694 948.846 456.846 948.846 455.859ZM916.853 304.442C916.853 302.903 916.005 301.659 914.998 301.659C913.932 301.659 913.084 302.903 913.084 304.442C913.084 305.982 913.932 307.284 914.998 307.284C916.005 307.284 916.853 305.982 916.853 304.442ZM144.83 156.795C145.442 155.729 144.593 154.407 142.975 153.716C139.363 152.335 137.35 153.874 139.126 156.716C140.665 159.183 143.29 159.262 144.83 156.795ZM363.942 17.6541C363.942 16.6476 363.093 15.7987 362.087 15.7987C361.001 15.7987 360.153 16.6476 360.153 17.6541C360.153 18.6409 361.001 19.4893 362.087 19.4893C363.093 19.4893 363.942 18.6409 363.942 17.6541ZM471.248 955.661C471.859 950.806 471.011 948.418 468.781 948.714C461.004 949.721 458.38 948.497 458.597 943.859C458.834 939.931 459.841 939.162 464.854 939.162C469.63 939.162 471.011 940.01 471.485 943.405C471.781 945.714 472.57 947.254 473.182 946.721C473.794 946.168 475.728 946.957 477.504 948.418C481.274 951.497 482.28 950.806 482.813 944.49C483.208 939.773 483.426 939.694 504.563 938.471C543.404 936.3 581.417 929.057 620.356 916.643C639.086 910.643 644.177 910.406 644.177 915.656C644.177 917.195 645.401 918.498 646.941 918.498C648.5 918.498 649.803 917.728 649.803 916.721C649.803 915.794 651.184 914.728 652.96 914.412C655.822 913.879 655.821 913.485 652.723 910.406C650.887 908.551 649.644 906.774 650.039 906.478C650.414 906.163 660.835 901.15 673.17 895.209C688.11 888.124 695.985 885.281 696.913 886.663C697.603 887.808 700.229 888.439 702.696 888.124C706.012 887.591 706.998 886.426 706.702 883.426C706.545 881.176 707.551 878.334 709.09 877.091C710.629 875.788 711.873 875.334 711.873 876.025C711.873 876.716 713.551 876.321 715.643 875.255C718.189 873.854 719.333 873.854 719.333 875.177C719.333 876.242 721.03 877.091 723.122 877.091C726.596 877.091 727.662 874.94 727.366 868.15C727.366 866.848 728.293 865.92 729.438 866.236C732.221 866.769 739.996 861.677 740.154 859.289C740.154 858.203 748.879 850.506 759.438 842.098C778.621 826.763 778.621 826.763 783.555 830.296C790.581 835.23 792.732 834.776 792.732 828.224C792.732 823.665 791.883 822.599 788.568 822.599C784.798 822.599 785.094 821.908 791.646 815.198C795.89 810.797 799.896 808.251 801.515 808.863C805.462 810.422 813.396 805.547 813.396 801.698C813.396 799.922 812.627 798.146 811.62 797.85C810.614 797.455 815.409 790.824 822.178 783.126C860.033 740.022 890.269 690.228 908.308 641.42C915.63 621.762 923.564 595.553 925.419 585.211C926.189 580.593 927.887 577.81 930.275 577.04C933.196 576.112 933.511 575.343 931.813 573.27C930.116 571.257 930.649 570.487 934.675 569.501C940.596 567.941 949.538 571.573 948.314 574.889C947.781 576.112 945.076 586.691 942.136 598.316C939.294 609.96 936.216 619.453 935.209 619.453C934.282 619.453 933.966 618.684 934.597 617.835C936.591 614.598 930.728 611.657 928.261 614.598C926.958 616.138 924.866 616.907 923.485 616.374C920.485 615.289 917.466 619.374 920.012 621.072C921.018 621.762 922.399 623.835 923.11 625.69C923.801 627.545 925.104 628.631 926.031 627.999C927.038 627.466 929.031 627.466 930.65 628.078C933.117 629.006 933.057 630.328 930.038 638.874C915.472 681.05 889.716 728.457 859.895 768.008C842.764 790.745 812.469 823.606 811.857 820.132C811.167 816.737 805.837 815.573 805.837 818.81C805.837 819.816 804.14 820.665 802.068 820.665C798.219 820.665 796.976 823.448 800.055 825.283C803.982 827.75 798.672 834.934 782.864 848.335C770.923 858.44 766.147 861.519 766.364 859.052C767.213 851.651 766.602 850.19 763.602 852.578C762.122 853.822 760.127 854.355 759.121 853.822C758.193 853.21 755.964 854.434 754.109 856.447C752.253 858.519 749.332 860.216 747.555 860.216C744.713 860.216 739.997 867.164 739.997 871.387C739.997 872.315 741.852 873.4 744.161 873.716C747.713 874.249 747.18 875.019 740.154 879.637C735.694 882.578 732.596 884.117 733.228 883.032C734.609 880.801 729.517 879.499 723.577 880.564C720.182 881.176 719.333 882.578 719.333 887.512C719.333 893.591 718.721 894.064 697.209 905.018C644.474 931.918 591.896 947.944 533.24 955.128C503.715 958.74 470.794 958.977 471.248 955.661ZM421.296 924.971C237.492 900.459 86.5487 765.857 42.675 587.461C32.8069 547.297 30.261 525.39 30.182 478.438C30.1228 426.413 34.05 397.341 47.2338 351.928C77.529 247.7 151.915 151.328 246.136 94.2702C264.787 82.9416 309.43 60.8962 313.674 60.8962C320.147 60.8962 318.608 64.7449 310.891 67.7646C294.707 74.0802 253.379 96.1256 236.268 107.533C127.797 180.084 59.49 286.699 39.063 415.301C34.5039 444.057 34.5832 510.055 39.2015 541.12C61.2667 688.826 151.619 812.257 285.905 878.097C370.495 919.583 462.84 932.214 558.601 915.498C718.642 887.591 856.876 762.838 903.295 604.414C916.242 560.244 920.86 526.633 920.86 477.431C920.86 440.366 919.104 421.4 912.156 387.157C884.486 250.404 785.331 129.519 653.572 71.8497C560.535 31.1337 455.064 24.0484 357.686 52.1134C340.416 57.0475 335.719 57.8174 334.87 55.8043C333.706 52.5676 338.561 50.6335 364.85 43.9429C470.558 17.1015 576.561 27.7392 673.308 74.9287C855.02 163.426 955.103 358.026 920.722 555.764C905.289 644.341 865.126 723.286 801.989 789.442C730.524 864.381 636.697 912.024 535.39 924.971C507.108 928.524 448.118 928.603 421.296 924.971ZM450.426 907.248C448.887 906.242 445.808 898.919 443.578 890.827C440.183 878.709 439.414 877.328 439.335 882.953C438.94 898.682 436.868 907.248 433.394 907.248C428.085 907.248 427.848 905.551 430.078 881.176C432.249 858.282 432.249 858.282 437.401 858.282C442.256 858.282 442.808 859.131 446.045 871.466C447.9 878.709 450.052 884.65 450.901 884.65C451.67 884.65 452.361 879.104 452.361 872.394C452.361 860.532 452.439 860.216 457.215 860.216C462.149 860.216 462.15 860.216 460.927 879.499C458.992 909.478 457.985 912.024 450.426 907.248ZM467.4 908.097C467.4 907.544 470.025 896.531 473.262 883.643C479.044 860.611 479.182 860.216 484.352 860.216C490.135 860.216 490.609 861.381 498.227 891.834C502.095 907.248 502.017 909.103 497.379 909.103C494.774 909.103 492.84 907.248 491.517 903.459C489.978 898.998 488.439 897.834 484.274 897.834C479.893 897.834 478.728 898.84 477.721 903.459C476.715 907.86 475.413 909.103 471.939 909.103C469.393 909.103 467.4 908.63 467.4 908.097ZM487.136 883.268C485.814 876.104 484.905 873.933 483.583 875.413C483.208 875.788 482.36 879.341 481.649 883.268C480.505 889.584 480.741 890.275 484.432 890.275C488.063 890.275 488.36 889.584 487.136 883.268ZM515.576 898.446C514.964 893.669 514.352 886.742 514.352 882.953C514.352 871.861 512.576 867.696 507.8 867.696C503.399 867.696 499.471 860.295 503.794 860.058C504.938 860.058 511.57 859.368 518.596 858.598C528.523 857.513 531.385 857.749 532.233 859.762C534.088 864.696 533.161 865.841 527.379 865.841C522.129 865.841 521.675 866.315 522.602 871.012C523.135 873.854 524.141 883.189 524.832 891.676C526.056 907.248 526.056 907.248 521.438 907.248C517.352 907.248 516.661 906.162 515.576 898.446ZM411.506 904.011C407.638 903.242 407.421 902.472 408.486 894.597C409.414 887.512 409.039 885.499 406.177 883.426C400.868 879.558 400.237 880.19 398.934 889.979C398.244 894.992 397.237 899.61 396.704 900.143C394.533 902.235 388.375 899.156 388.375 895.919C388.375 892.051 395.855 853.98 396.783 853.052C397.158 852.657 401.48 852.973 406.414 853.743C421.828 856.052 428.085 866.848 419.835 876.795C418.671 878.255 417.822 885.124 417.98 892.367C418.138 899.452 417.664 905.235 416.973 905.077C416.203 904.939 413.737 904.465 411.506 904.011ZM411.881 868.624C411.881 860.67 404.401 859.368 402.941 867.164C401.638 873.775 402.782 875.63 407.874 874.861C410.953 874.407 411.881 873.006 411.881 868.624ZM544.489 901.998C544.41 901.228 542.792 890.906 540.858 879.025C538.253 862.841 537.858 857.059 539.477 855.973C543.483 853.506 546.345 854.513 547.273 858.756C548.26 863.453 553.904 900.38 553.904 902.235C553.904 903.932 544.489 903.695 544.489 901.998ZM565.469 893.058C557.753 883.189 555.285 858.756 561.443 852.657C566.377 847.644 578.416 847.565 582.876 852.5C590.83 861.223 593.909 887.808 587.732 894.064C582.107 899.689 570.325 899.156 565.469 892.979V893.058ZM580.804 878.492C580.33 865.466 576.877 857.355 571.785 857.355C567.009 857.355 565.923 864.914 568.923 876.874C571.469 887.038 574.094 890.67 578.179 889.821C580.567 889.367 581.12 886.959 580.804 878.492ZM362.323 892.979C357.764 891.518 353.679 890.058 353.304 889.663C352.376 888.735 364.021 846.5 365.56 844.96C367.711 842.868 390.309 850.743 390.309 853.585C390.309 857.67 387.685 858.361 380.047 856.21C372.192 854.039 372.409 853.98 370.633 859.762C369.784 862.526 370.179 864.302 371.797 864.835C383.678 868.999 384.29 869.473 383.362 873.006C382.593 876.242 381.665 876.4 375.034 874.782C366.488 872.552 365.777 872.946 365.323 880.032C364.929 884.729 365.698 885.578 371.955 887.038C377.047 888.281 378.961 889.742 378.961 892.367C378.961 896.61 374.422 896.768 362.245 892.979H362.323ZM604.093 882.262C602.692 878.946 599.079 869.157 596.139 860.532C591.521 847.19 591.126 844.723 593.455 843.184C598.527 840.026 600.777 841.329 609.797 852.578C614.652 858.677 618.895 863.532 619.112 863.295C619.349 863.078 617.494 857.295 615.027 850.427C610.409 837.697 610.566 835.783 616.033 835.783C618.421 835.783 621.204 841.329 627.066 857.67C631.289 869.69 634.605 879.795 634.309 880.111C634.072 880.347 631.684 881.117 629.138 881.729C625.052 882.814 623.277 881.413 615.185 870.617C610.014 863.848 605.632 858.282 605.317 858.282C605.001 858.282 606.856 864.144 609.401 871.249C615.026 886.821 615.185 888.439 610.33 888.439C607.942 888.439 605.711 886.268 604.093 882.262ZM327.015 881.571C324.844 880.722 325.614 878.255 335.561 853.131C339.489 843.184 339.489 843.184 334.792 841.408C329.857 839.473 329.246 838.171 331.713 834.303C332.857 832.467 336.094 833 346.199 836.77C361.613 842.552 360.844 842.02 359.304 846.796C358.298 850.111 357.449 850.348 353.521 848.493C350.975 847.348 348.587 846.796 348.212 847.19C347.896 847.644 344.66 855.598 341.028 864.914C334.95 880.801 332.403 883.88 327.015 881.65V881.571ZM641.237 868.15C640.546 864.302 638.849 855.361 637.388 848.335C633.757 830.454 633.993 827.296 639.243 824.908C643.408 822.974 644.631 824.06 658.742 842.02C673.169 860.374 673.623 861.223 669.992 863.769C666.676 866.157 665.906 865.92 662.907 861.993C659.907 857.986 659.059 857.828 654.5 859.901C650.197 861.835 649.565 863.078 650.493 867.618C651.263 871.466 650.73 873.321 648.638 874.091C643.487 876.104 642.48 875.334 641.237 868.15ZM653.572 851.513C653.572 849.342 645.638 837.401 644.789 838.25C644.335 838.704 644.473 842.177 645.263 845.868C646.171 850.802 647.493 852.657 650.039 852.657C652.032 852.657 653.572 852.124 653.572 851.513ZM302.404 871.091C299.484 869.69 298.477 867.854 299.029 865.072C299.483 862.92 300.253 856.052 300.786 849.894L301.793 838.546L296.01 850.802C289.003 865.604 289.852 864.696 285.214 862.229C281.523 860.216 281.76 859.526 291.076 839.02C296.405 827.375 300.944 817.665 301.102 817.349C301.26 817.033 303.647 817.823 306.43 819.047C311.818 821.514 311.661 819.816 308.424 845.177C307.654 850.881 308.345 850.111 314.128 839.02C320.147 827.612 321.154 826.448 324.548 828.224C326.542 829.309 328.239 830.533 328.239 830.849C328.239 831.994 307.575 873.4 307.121 873.242C306.805 873.163 304.733 872.157 302.404 871.091ZM669.992 837.697C658.052 816.895 657.815 815.968 662.591 813.422C665.532 811.803 667.308 813.876 675.321 828.303C680.413 837.559 685.268 845.098 686.117 845.098C686.966 845.098 690.124 843.875 693.202 842.256C698.985 839.237 702.459 839.868 702.459 843.875C702.459 846.026 685.801 856.447 682.407 856.447C681.479 856.447 675.854 847.96 669.992 837.697ZM266.642 853.269C265.34 852.815 264.254 851.513 264.254 850.506C264.254 848.118 285.609 809.573 286.99 809.494C287.543 809.494 289.536 810.481 291.312 811.803C294.391 814.033 293.78 815.731 283.063 834.382C276.747 845.493 270.964 854.513 270.273 854.434C269.563 854.276 267.945 853.822 266.642 853.269ZM429.783 836.71C266.248 814.27 139.284 683.596 121.462 519.37C102.121 341.369 218.762 173.847 391.612 131.355C449.045 117.243 511.254 117.638 568.923 132.361C657.657 154.959 739.918 217.247 787.503 297.732C840.159 386.861 851.566 494.404 818.863 594.013C776.154 724.214 661.9 818.731 525.522 836.71C500.082 840.085 454.453 840.026 429.783 836.71ZM539.792 829.23C651.026 808.803 743.945 739.174 794.746 638.104C863.507 501.332 833.981 331.955 722.807 225.339C646.941 152.631 545.102 117.717 440.263 128.513C297.629 143.236 174.888 248.075 137.35 387.236C123.159 440.05 121.462 498.786 132.574 553.218C147.455 626.006 189.316 698.004 244.893 746.338C262.794 761.93 294.549 784.054 310.121 791.83C315.45 794.455 321.687 798.777 323.917 801.402C326.305 804.007 329.324 805.626 330.864 805.093C332.324 804.481 340.653 806.79 349.219 810.185C376.494 820.823 401.638 826.981 442.038 832.684C455.518 834.618 523.589 832.23 539.792 829.23ZM222.926 469.497C222.926 468.569 224.308 463.714 226.005 458.701C229.4 448.616 230.091 449.761 215.683 439.044C210.67 435.274 210.67 435.274 222.314 435.274C233.959 435.195 233.959 435.195 237.274 424.853C240.886 413.15 241.498 413.229 245.603 425.406C248.603 434.267 248.603 434.267 260.405 435.195L272.267 436.123L263.563 442.359C253.695 449.445 253.991 448.537 257.623 460.635C259.083 465.648 260.09 470.03 259.774 470.346C259.478 470.661 255.689 468.412 251.445 465.254C242.051 458.484 240.886 458.405 233.406 463.951C225.157 470.188 222.926 471.352 222.926 469.497ZM696.834 469.497C696.834 468.569 698.215 463.714 699.912 458.701C703.386 448.616 703.998 449.761 689.669 439.044C684.577 435.274 684.578 435.274 696.281 435.274C707.926 435.195 707.925 435.195 711.162 424.853C714.872 413.15 715.406 413.229 719.57 425.406C722.511 434.267 722.511 434.267 734.372 435.195L746.175 436.123L737.451 442.359C727.82 449.228 727.583 450.076 731.609 461.563C733.227 465.944 734.215 469.892 733.84 470.267C733.445 470.661 729.674 468.412 725.352 465.254C715.958 458.484 714.793 458.405 707.313 463.951C699.063 470.188 696.834 471.352 696.834 469.497ZM323.542 389.624C301.792 387.631 283.674 385.617 283.221 385.164C280.517 382.46 288.845 382.46 321.075 385.164C366.863 389.012 375.192 390.098 375.192 392.17C375.192 394.262 371.106 394.025 323.542 389.624ZM582.106 392.091C582.106 389.94 590.14 388.933 635.316 385.164C668.611 382.46 676.861 382.46 674.078 385.243C673.387 385.855 589.587 393.789 583.508 393.789C582.739 393.789 582.106 393.019 582.106 392.091ZM340.495 355.401C318.825 347.842 300.786 340.678 300.411 339.514C299.404 336.672 297.786 336.198 328.318 346.757C375.646 363.177 382.751 365.96 382.751 367.658C382.751 370.125 383.284 370.282 340.495 355.401ZM574.547 367.658C574.547 365.723 574.943 365.565 622.053 349.619C641.79 342.829 657.736 338.369 658.368 339.356C658.979 340.362 658.368 341.527 656.967 341.981C655.585 342.454 636.856 348.77 615.264 356.092C571.943 370.736 574.547 369.967 574.547 367.658ZM368.402 330.573C356.146 322.639 339.962 312.455 332.403 307.837C324.923 303.199 318.825 298.581 318.825 297.495C318.825 296.489 319.989 296.035 321.45 296.646C325.239 298.048 395.934 343.224 395.934 344.152C395.934 346.994 387.843 343.066 368.402 330.573ZM563.298 343.441C563.298 341.606 632.77 297.495 637.546 296.429C644.414 294.811 637.151 300.199 607.468 318.85C563.298 346.678 563.298 346.678 563.298 343.441ZM376.494 292.798C348.982 263.588 344.818 258.417 348.429 258.417C349.989 258.417 407.795 319.777 408.802 322.481C410.894 328.264 402.487 320.547 376.494 292.798ZM548.575 322.56C549.502 320.172 606.56 259.424 608.553 258.713C613.803 256.799 607.468 264.654 580.962 292.956C555.364 320.251 546.266 328.56 548.575 322.56ZM402.092 263.647C379.81 222.872 374.797 212.076 381.053 218.333C383.52 220.8 429.783 305.587 429.783 307.679C429.783 312.988 424.138 304.047 402.092 263.647ZM527.615 307.758C527.674 304.363 575.87 218.175 578.1 217.405C581.119 216.398 580.568 217.484 552.424 269.213C533.398 304.047 527.457 313.383 527.615 307.758ZM447.822 287.094C446.203 280.068 441.486 261.733 437.401 246.24C430.394 219.872 429.546 213.852 433.236 218.096C434.855 219.793 454.216 293.41 454.216 297.574C454.216 298.817 453.446 299.745 452.518 299.745C451.512 299.745 449.44 294.021 447.822 287.094ZM503.161 297.416C503.398 290.015 523.529 218.017 525.522 217.405C527.141 216.852 527.614 217.78 526.904 220.089C526.371 222.023 521.517 240.753 516.129 261.654C510.721 282.614 505.628 299.745 504.701 299.745C503.852 299.745 503.161 298.738 503.161 297.416ZM476.794 244.148C476.794 210.083 477.425 192.735 478.649 193.504C479.813 194.195 480.583 213.537 480.583 245.312C480.583 277.837 479.892 296.035 478.649 296.035C477.425 296.035 476.794 277.463 476.794 244.148ZM460.847 825.224C429.624 822.362 410.954 819.5 392.54 814.803C363.863 807.56 318.213 789.284 323.996 787.37C325.318 786.896 326.305 785.436 326.305 784.054C326.305 782.278 329.167 782.89 336.252 786.363C357.844 796.764 383.441 805.251 411.881 811.33C441.11 817.665 499.768 818.671 531.543 813.422C622.586 798.461 702.143 748.351 755.352 672.268C766.068 656.992 767.688 656.301 766.681 667.333C766.148 673.037 741.003 705.326 723.28 722.99C668.769 777.423 603.54 810.639 530.299 821.435C510.483 824.375 473.399 826.448 460.847 825.224ZM300.944 776.574C199.184 713.418 139.126 610.967 135.12 493.476C133.027 432.412 142.679 384.394 167.645 331.817C220.992 219.478 331.713 144.164 455.223 136.21C543.266 130.585 626.356 156.953 695.295 212.471C704.926 220.168 707.551 223.405 706.86 226.267C706.012 229.346 705.301 229.582 702.301 227.727C700.367 226.504 698.985 224.254 699.222 222.635C699.538 220.938 697.9 219.556 695.057 219.181C692.512 218.787 685.722 215.017 680.018 210.695C637.92 178.998 595.922 160.347 538.865 148.091C513.425 142.624 441.802 143.078 413.816 148.94C255.077 182.176 142.284 318.929 142.047 478.674C142.047 518.522 132.179 514.14 221.229 514.14C271.26 514.14 298.181 514.831 298.181 516.055C298.181 517.219 271.182 517.91 220.992 517.91C175.441 517.91 143.902 518.601 143.902 519.607C143.902 527.482 142.599 527.324 218.387 527.324C281.681 527.324 290.385 527.62 289.378 530.166C288.451 532.554 278.662 532.949 216.828 532.949C152.468 532.949 145.521 533.265 146.527 535.949C147.139 537.568 147.691 539.66 147.691 540.666C147.691 541.653 278.898 542.363 478.649 542.363C809.705 542.363 809.706 542.363 809.706 537.646C809.706 532.949 809.705 532.949 739.385 532.949C678.557 532.949 668.927 532.554 667.92 530.166C666.993 527.62 675.696 527.324 739.227 527.324C811.541 527.324 811.541 527.324 811.541 522.627C811.541 517.91 811.541 517.91 736.465 517.91C688.427 517.91 660.894 517.219 660.203 516.055C659.434 514.752 685.189 514.14 736.07 514.14H813.08L814.324 494.858C819.495 413.15 786.654 319.698 730.82 257.568C723.419 249.398 717.715 241.76 718.11 240.674C719.807 235.602 725.037 238.918 736.997 252.634C779.864 301.659 808.304 363.099 819.337 430.498C822.573 450.076 822.573 510.509 819.337 530.166C810.396 584.678 784.108 653.301 772.148 653.301C768.911 653.301 769.385 651.525 776.707 636.723C785.036 619.828 793.128 601.256 795.516 593.618C796.739 589.375 796.739 589.375 676.94 588.921C583.43 588.526 556.903 587.915 556.292 586.059C555.66 584.303 581.179 583.671 677.176 583.296C798.91 582.823 798.91 582.823 800.45 578.579C802.068 574.356 802.068 574.356 678.953 574.356C598.074 574.356 555.818 573.645 555.818 572.422C555.818 571.257 580.192 570.487 624.895 570.33C662.907 570.27 717.715 569.876 746.707 569.501C775.621 569.027 800.37 568.711 801.672 568.711C802.995 568.711 804.061 567.034 804.061 564.942C804.061 561.172 802.758 561.172 477.721 561.172C298.239 561.172 151.461 561.626 151.461 562.238C151.461 562.79 152.31 564.942 153.395 566.955C155.31 570.487 158.625 570.566 278.444 570.566C359.304 570.566 401.559 571.178 401.559 572.422C401.559 573.645 359.146 574.356 278.208 574.356C166.421 574.356 154.935 574.573 155.941 577.277C156.553 578.974 157.086 581.046 157.086 581.974C157.086 583.06 206.427 583.75 279.51 583.75C376.573 583.75 401.717 584.224 401.086 586.059C400.474 587.915 374.343 588.526 280.359 588.921C142.363 589.454 157.165 585.842 170.191 616.138C195.789 675.347 240.807 728.161 296.247 763.923C315.213 776.179 314.286 775.409 315.904 780.738C317.68 786.442 316.22 786.047 300.944 776.574ZM807.456 550.376C808.087 546.133 808.087 546.133 478.116 546.133C148.224 546.133 148.224 546.133 149.073 550.83C150.001 555.528 150.001 555.527 478.413 555.073C806.844 554.62 806.844 554.619 807.456 550.376ZM796.521 354.316C796.521 353.23 795.673 352.401 794.666 352.401C793.581 352.401 792.732 353.23 792.732 354.316C792.732 355.322 793.581 356.171 794.666 356.171C795.673 356.171 796.521 355.322 796.521 354.316ZM472.492 763.074C471.781 762.384 471.169 751.351 471.169 738.562C471.169 725.832 470.557 715.51 469.788 715.589C462.998 716.674 459.682 715.115 460.235 711.188C460.768 707.102 461.616 706.944 477.721 706.944C494.536 706.944 494.695 706.944 494.695 711.661C494.695 715.51 493.688 716.437 488.596 716.891C482.577 717.523 482.577 717.523 482.044 740.417C481.512 761.851 481.274 763.39 477.643 763.923C475.571 764.239 473.262 763.844 472.492 763.074ZM554.674 762.541C554.279 762.147 553.904 756.522 553.904 750.048C553.904 741.187 552.581 735.404 548.495 726.306C539.476 706.096 539.397 705.642 546.581 706.333C551.969 706.865 552.976 707.872 555.66 715.747C559.746 728.003 560.456 728.082 564.462 716.812C567.699 707.872 568.627 706.865 574.173 706.333C577.488 706.017 580.272 706.175 580.272 706.727C580.272 707.26 576.877 715.51 572.713 724.983C566.93 738.404 565.232 744.72 565.232 752.831C565.232 762.837 564.996 763.311 560.378 763.311C557.674 763.311 555.128 762.995 554.674 762.541ZM379.04 762.384V705.8L394.533 706.411C408.961 706.865 410.106 707.181 410.658 711.188C411.112 714.582 410.342 715.352 406.652 715.352C394.849 715.352 390.309 717.523 390.309 723.069C390.309 728.082 390.763 728.378 399.25 728.931C406.868 729.384 408.27 730.075 408.724 733.707C409.335 737.634 408.645 737.95 399.862 737.95C390.31 737.95 390.309 737.95 390.309 745.489C390.309 752.969 390.31 752.969 400.632 752.969C410.421 752.969 410.953 753.285 410.953 757.686C410.953 762.384 410.816 762.384 395.007 762.384H379.04ZM418.512 734.082C418.512 705.721 418.513 705.721 424.533 706.333C430.237 706.865 430.769 707.655 436.256 723.523L442.038 740.18L442.966 723.523C443.874 707.339 444.032 706.944 448.591 706.944C453.289 706.944 453.288 706.944 453.821 734.634C454.294 762.384 454.294 762.384 447.959 762.384C441.564 762.384 441.486 762.305 435.171 745.035L428.855 727.608L428.302 745.035C427.69 762.068 427.691 762.384 423.151 762.384C418.513 762.384 418.512 762.384 418.512 734.082ZM501.247 733.943V705.484L514.569 706.411C524.832 707.181 528.839 708.346 531.918 711.345C536.773 716.201 537.167 727.233 532.687 731.772C530.003 734.476 529.923 735.325 532.154 737.871C533.535 739.489 535.312 745.647 536.082 751.588C537.404 762.384 537.405 762.384 531.543 762.384C525.997 762.384 525.681 762.068 525.681 754.746C525.681 744.72 522.897 739.864 517.194 739.864C512.733 739.864 512.497 740.417 512.497 751.134C512.497 762.384 512.497 762.384 506.873 762.384C501.248 762.384 501.247 762.383 501.247 733.943ZM523.825 726.681C526.687 721.372 523.134 715.352 517.194 715.352C513.029 715.352 512.576 716.201 512.576 722.911C512.576 729.621 513.029 730.47 517.194 730.47C519.898 730.47 522.68 728.852 523.825 726.681ZM600.915 724.766C600.915 708.484 601.625 698.477 602.77 698.477C604.014 698.477 604.705 708.484 604.705 724.766C604.705 741.108 604.014 751.134 602.77 751.134C601.625 751.134 600.915 741.108 600.915 724.766ZM608.474 724.766C608.474 708.484 609.166 698.477 610.33 698.477C611.495 698.477 612.185 708.484 612.185 724.766C612.185 741.108 611.495 751.134 610.33 751.134C609.166 751.134 608.474 741.108 608.474 724.766ZM614.869 748.509C614.257 746.969 614.1 735.246 614.495 722.516L615.105 699.405L624.046 699.247L632.927 699.168V724.766C632.927 748.963 632.69 750.364 629.138 750.581C626.513 750.818 625.369 749.654 625.211 746.733C625.053 742.884 624.895 742.884 623.829 746.417C622.27 750.976 616.349 752.357 614.869 748.509ZM636.223 749.733C635.927 748.963 635.691 737.713 635.691 724.766C635.77 692.063 639.322 692.853 640.013 725.694C640.329 741.266 639.855 751.134 638.69 751.134C637.703 751.134 636.618 750.502 636.223 749.733ZM642.322 724.766C642.322 708.484 643.013 698.477 644.177 698.477C645.322 698.477 646.091 708.484 646.091 724.766C646.091 741.108 645.322 751.134 644.177 751.134C643.013 751.134 642.322 741.108 642.322 724.766ZM648.716 724.766C648.716 709.806 648.954 703.629 649.349 711.109C649.645 718.668 649.645 730.924 649.349 738.404C649.033 745.884 648.716 739.785 648.716 724.766ZM651.736 724.766C651.736 708.484 652.427 698.477 653.572 698.477C654.736 698.477 655.505 708.484 655.505 724.766C655.505 741.108 654.736 751.134 653.572 751.134C652.427 751.134 651.736 741.108 651.736 724.766ZM657.362 724.766C657.362 701.319 658.822 693.464 661.743 700.786C662.532 702.721 662.749 702.721 662.828 700.786C662.986 699.543 664.288 698.477 665.828 698.477C668.078 698.477 668.61 701.319 668.61 713.201C668.61 721.372 669.223 733.154 669.855 739.568C670.999 750.423 670.842 751.134 667.072 751.134C663.302 751.134 663.065 750.048 662.532 728.082L661.901 705.03L661.526 728.082C660.973 761.002 657.362 758.14 657.362 724.766ZM409.039 579.053C409.039 572.797 409.809 570.566 411.881 570.566C413.973 570.566 414.743 572.797 414.743 579.053C414.743 585.29 413.973 587.54 411.881 587.54C409.809 587.54 409.039 585.29 409.039 579.053ZM417.132 579.053C417.132 573.882 417.506 571.968 417.98 574.81C418.355 577.672 418.355 581.895 417.902 584.224C417.448 586.533 417.132 584.224 417.132 579.053ZM420.369 579.053C420.369 572.797 421.059 570.566 423.151 570.566C425.224 570.566 425.993 572.797 425.993 579.053C425.993 585.29 425.224 587.54 423.151 587.54C421.059 587.54 420.369 585.29 420.369 579.053ZM431.617 579.053C431.617 572.797 432.387 570.566 434.479 570.566C436.552 570.566 437.243 572.797 437.243 579.053C437.243 585.29 436.552 587.54 434.479 587.54C432.387 587.54 431.617 585.29 431.617 579.053ZM441.565 579.053C441.565 573.882 441.959 571.968 442.413 574.81C442.808 577.672 442.808 581.895 442.335 584.224C441.96 586.533 441.565 584.224 441.565 579.053ZM444.802 579.053C444.802 571.257 445.197 570.566 449.519 570.566C453.821 570.566 454.216 571.257 454.216 579.053C454.216 583.75 453.288 587.54 452.203 587.54C451.137 587.54 450.742 586.691 451.353 585.605C452.044 584.599 451.67 583.75 450.505 583.75C449.44 583.75 448.591 584.599 448.591 585.605C448.591 586.691 447.742 587.54 446.657 587.54C445.65 587.54 444.802 583.671 444.802 579.053ZM456.604 579.053C456.604 573.882 456.979 571.968 457.452 574.81C457.906 577.672 457.828 581.895 457.374 584.224C456.979 586.533 456.604 584.224 456.604 579.053ZM460.374 579.053C460.374 573.882 460.768 571.968 461.222 574.81C461.616 577.672 461.617 581.895 461.143 584.224C460.689 586.533 460.374 584.224 460.374 579.053ZM463.61 579.053C463.61 574.435 464.459 570.566 465.465 570.566C466.551 570.566 467.4 574.435 467.4 579.053C467.4 583.671 466.551 587.54 465.465 587.54C464.459 587.54 463.61 583.671 463.61 579.053ZM469.788 579.053C469.788 573.882 470.163 571.968 470.557 574.81C471.011 577.672 471.011 581.895 470.557 584.224C470.103 586.533 469.788 584.224 469.788 579.053ZM473.024 579.053C473.024 571.81 473.557 570.566 476.794 570.566C479.971 570.566 480.505 571.81 480.505 579.053C480.505 586.217 479.971 587.54 476.794 587.54C473.557 587.54 473.024 586.217 473.024 579.053ZM482.438 579.053C482.438 574.435 483.268 570.566 484.274 570.566C485.36 570.566 486.209 574.435 486.209 579.053C486.209 583.671 485.36 587.54 484.274 587.54C483.268 587.54 482.438 583.671 482.438 579.053ZM488.596 579.053C488.596 573.882 488.991 571.968 489.366 574.81C489.84 577.672 489.84 581.895 489.366 584.224C488.912 586.533 488.596 584.224 488.596 579.053ZM493.215 584.994C492.445 583.138 491.833 579.211 491.833 576.27C491.833 571.889 492.76 570.882 497.457 570.191C503.082 569.343 503.083 569.422 503.083 578.441C503.083 585.211 502.392 587.54 500.32 587.54C498.385 587.54 497.379 585.448 497.241 581.362C497.004 575.264 497.003 575.264 495.76 581.895C494.832 587.066 494.3 587.757 493.215 584.994ZM505.47 579.053C505.549 573.882 505.945 571.968 506.32 574.81C506.793 577.672 506.793 581.895 506.32 584.224C505.866 586.533 505.47 584.224 505.47 579.053ZM511.195 579.053C511.195 573.882 511.57 571.968 511.964 574.81C512.418 577.672 512.339 581.895 511.964 584.224C511.491 586.533 511.195 584.224 511.195 579.053ZM514.352 579.053C514.352 574.435 515.2 570.566 516.266 570.566C517.273 570.566 518.121 574.435 518.121 579.053C518.121 583.671 517.273 587.54 516.266 587.54C515.2 587.54 514.352 583.671 514.352 579.053ZM520.588 579.053C520.588 573.882 520.983 571.968 521.358 574.81C521.832 577.672 521.753 581.895 521.358 584.224C520.904 586.533 520.509 584.224 520.588 579.053ZM523.747 578.125C523.747 570.645 524.379 569.027 526.609 569.876C528.523 570.645 529.451 573.645 529.451 579.29C529.451 585.369 528.681 587.54 526.609 587.54C524.438 587.54 523.747 585.211 523.747 578.125ZM531.306 579.053C531.306 574.435 532.154 570.566 533.161 570.566C534.246 570.566 535.075 574.435 535.075 579.053C535.075 583.671 534.246 587.54 533.161 587.54C532.154 587.54 531.306 583.671 531.306 579.053ZM539.397 579.053C539.397 573.882 539.792 571.968 540.167 574.81C540.64 577.672 540.561 581.895 540.167 584.224C539.713 586.533 539.318 584.224 539.397 579.053ZM542.555 578.125C542.555 570.645 543.187 569.027 545.418 569.876C547.352 570.645 548.2 573.645 548.2 579.29C548.2 585.369 547.49 587.54 545.418 587.54C543.266 587.54 542.555 585.211 542.555 578.125ZM298.102 533.107C298.102 532.1 303.49 522.627 310.042 511.969C329.936 479.523 377.422 401.801 392.303 377.368C405.408 355.776 406.573 354.316 412.198 354.316C418.059 354.316 418.137 354.237 419.282 342.533C421.749 319.244 419.204 321.79 449.361 312.139C464.084 307.363 477.268 303.515 478.57 303.515C479.893 303.515 493.077 307.363 507.8 312.001C537.859 321.554 535.707 319.402 537.937 341.606C539.24 354.316 539.24 354.316 545.338 354.316C551.2 354.316 552.127 355.559 576.798 396.177C590.751 419.15 615.026 458.938 630.677 484.536C646.407 510.134 659.217 531.864 659.217 532.949C659.217 534.173 599.079 534.883 478.649 534.883C368.56 534.883 298.102 534.173 298.102 533.107ZM461.222 493.023C460.847 486.529 460.531 491.858 460.531 504.726C460.531 517.693 460.847 523.002 461.222 516.528C461.616 510.055 461.616 499.496 461.222 493.023ZM469.63 512.759C470.163 498.174 470.163 498.174 479.123 497.641L488.064 497.029V512.206C488.064 520.989 488.833 527.324 489.898 527.324C491.063 527.324 491.833 518.522 491.833 504.726V482.227H465.465V504.726C465.465 529.87 468.781 536.186 469.63 512.759ZM497.004 493.023C496.61 486.529 496.313 491.858 496.313 504.726C496.313 517.693 496.61 523.002 497.004 516.528C497.379 510.055 497.379 499.496 497.004 493.023ZM644.474 521.226C642.48 517.831 625.744 490.555 607.409 460.556C589.054 430.557 567.995 396.098 560.673 383.999L547.273 361.875H533.003L518.655 361.796L522.977 384.848C531.227 428.88 548.259 523.772 548.259 525.548C548.259 526.633 568.39 527.324 598.231 527.324H648.263L644.474 521.226ZM551.042 519.765C550.272 518.522 565.469 517.91 595.133 517.91C624.047 517.91 640.388 518.601 640.388 519.765C640.388 520.989 624.441 521.7 596.297 521.7C568.922 521.7 551.812 520.989 551.042 519.765ZM549.187 510.43C548.417 509.206 562.687 508.515 590.594 508.515C618.422 508.515 632.691 509.206 631.922 510.43C631.231 511.594 615.343 512.285 590.594 512.285C565.766 512.285 549.878 511.594 549.187 510.43ZM548.259 501.035C548.259 499.792 562.686 499.101 587.732 499.101C612.797 499.101 627.204 499.792 627.204 501.035C627.204 502.18 612.797 502.891 587.732 502.891C562.686 502.891 548.259 502.18 548.259 501.035ZM546.345 491.621C546.345 490.398 560.14 489.707 583.961 489.707C607.783 489.707 621.579 490.398 621.579 491.621C621.579 492.786 607.783 493.476 583.961 493.476C560.14 493.476 546.345 492.786 546.345 491.621ZM544.489 482.227C544.489 480.984 557.673 480.293 580.192 480.293C602.771 480.293 615.955 480.984 615.955 482.227C615.955 483.372 602.771 484.062 580.192 484.062C557.673 484.062 544.489 483.372 544.489 482.227ZM542.555 472.813C542.555 471.589 555.127 470.878 576.482 470.878C597.758 470.878 610.33 471.589 610.33 472.813C610.33 473.977 597.758 474.668 576.482 474.668C555.127 474.668 542.555 473.977 542.555 472.813ZM540.72 463.418C540.72 462.175 552.661 461.484 572.713 461.484C592.745 461.484 604.705 462.175 604.705 463.418C604.705 464.563 592.745 465.254 572.713 465.254C552.661 465.254 540.72 464.563 540.72 463.418ZM538.865 454.004C538.865 452.76 550.114 452.07 568.923 452.07C587.732 452.07 599.001 452.76 599.001 454.004C599.001 455.168 587.732 455.859 568.923 455.859C550.114 455.859 538.865 455.168 538.865 454.004ZM537.937 444.59C537.167 443.366 546.641 442.675 565.074 442.675C582.659 442.675 593.377 443.445 593.377 444.59C593.377 445.754 583.035 446.445 566.239 446.445C550.115 446.445 538.549 445.675 537.937 444.59ZM536.93 435.195C536.93 434.031 546.64 433.261 562.37 433.261C578.021 433.261 587.732 434.031 587.732 435.195C587.732 436.34 578.021 437.05 562.37 437.05C546.64 437.05 536.93 436.34 536.93 435.195ZM535.075 425.781C535.075 424.636 544.174 423.867 558.601 423.867C573.008 423.867 582.106 424.636 582.106 425.781C582.106 426.946 573.008 427.636 558.601 427.636C544.174 427.636 535.075 426.946 535.075 425.781ZM535.075 416.386C535.075 415.222 542.871 414.452 554.752 414.452C565.765 414.452 574.863 415.301 575.475 416.386C576.245 417.531 569.238 418.222 555.896 418.222C543.265 418.222 535.075 417.531 535.075 416.386ZM531.306 408.354C531.306 407.584 540.404 407.13 551.515 407.288C572.081 407.584 569.613 408.354 544.943 409.281C537.483 409.518 531.306 409.143 531.306 408.354ZM538.865 399.413C538.865 398.347 544.49 397.578 552.049 397.578C559.529 397.578 565.154 398.347 565.154 399.413C565.154 400.499 559.529 401.347 552.049 401.347C544.49 401.347 538.865 400.499 538.865 399.413ZM527.536 390.019C527.536 388.933 534.167 388.164 543.561 388.164C552.976 388.164 559.528 388.933 559.528 390.019C559.528 391.163 552.976 391.933 543.561 391.933C534.167 391.933 527.536 391.163 527.536 390.019ZM525.681 382.539C525.681 381.374 531.997 380.605 540.858 380.605C550.43 380.605 555.601 381.295 554.811 382.539C554.199 383.545 547.352 384.394 539.714 384.394C531.622 384.394 525.681 383.624 525.681 382.539ZM526.609 373.125C531.918 370.815 550.114 370.815 550.114 373.125C550.114 374.21 544.411 374.901 536.477 374.822C527.142 374.743 524.063 374.21 526.609 373.125ZM522.819 367.5C522.128 366.276 526.293 365.565 534.01 365.565C541.016 365.565 546.345 366.414 546.345 367.5C546.345 368.506 541.411 369.355 535.154 369.355C529.076 369.355 523.53 368.506 522.819 367.5ZM492.228 477.056C484.669 476.661 472.788 476.661 465.861 477.056C458.913 477.372 465.091 477.668 479.577 477.668C494.064 477.668 499.767 477.372 492.228 477.056ZM494.142 471.352C485.675 471.036 471.722 471.036 463.156 471.352C454.591 471.727 461.616 472.043 478.649 472.043C495.76 472.043 502.708 471.727 494.142 471.352ZM512.497 465.254C512.497 464.109 500.32 463.418 479.577 463.418C458.914 463.418 446.657 464.109 446.657 465.254C446.657 466.418 458.914 467.109 479.577 467.109C500.32 467.109 512.497 466.418 512.497 465.254ZM507.483 352.934C492.76 352.539 468.248 352.539 452.893 352.934C437.637 353.23 449.578 353.467 479.577 353.467C509.577 353.467 522.128 353.23 507.483 352.934ZM530.615 344.448C530.004 342.139 529.451 338.744 529.451 336.888C529.451 333.889 525.759 333.573 478.649 333.573C431.538 333.573 427.927 333.889 427.848 336.888C427.848 338.744 427.315 342.139 426.683 344.448C425.538 348.691 425.538 348.691 478.649 348.691C531.779 348.691 531.78 348.691 530.615 344.448ZM431.617 341.211C431.617 338.053 432.466 335.507 433.552 335.507C434.558 335.507 435.407 337.599 435.407 340.066C435.407 342.593 434.558 345.217 433.552 345.829C432.387 346.54 431.617 344.606 431.617 341.211ZM449.814 345.533C447.9 343.52 448.354 335.507 450.426 335.507C451.511 335.507 452.361 338.053 452.361 341.132C452.361 346.994 451.985 347.605 449.814 345.533ZM468.623 345.533C466.708 343.52 467.163 335.507 469.255 335.507C470.321 335.507 471.169 338.053 471.169 341.132C471.169 346.994 470.715 347.605 468.623 345.533ZM474.879 341.132C474.879 336.751 475.728 335.507 478.649 335.507C481.589 335.507 482.438 336.751 482.438 341.132C482.438 345.533 481.589 346.757 478.649 346.757C475.728 346.757 474.879 345.533 474.879 341.132ZM493.688 341.29C493.688 336.672 494.536 335.507 497.615 335.507C500.694 335.507 501.385 336.514 500.852 340.678C500.003 348.296 493.688 348.849 493.688 341.29ZM524.22 341.132C524.22 337.52 524.596 336.04 525.069 337.816C525.602 339.672 525.602 342.593 525.069 344.448C524.675 346.224 524.22 344.764 524.22 341.132ZM437.638 340.678C438.487 334.422 444.802 333.889 444.802 340.066C444.802 343.678 443.874 344.921 440.953 344.921C437.953 344.921 437.184 343.915 437.638 340.678ZM456.071 340.204C456.071 336.75 457.058 335.507 459.841 335.507C462.624 335.507 463.61 336.75 463.61 340.204C463.61 343.678 462.624 344.921 459.841 344.921C457.058 344.921 456.071 343.678 456.071 340.204ZM486.209 340.204C486.209 337.599 487.057 335.507 488.064 335.507C489.13 335.507 489.978 337.599 489.978 340.204C489.978 342.75 489.13 344.921 488.064 344.921C487.057 344.921 486.209 342.75 486.209 340.204ZM505.016 340.066C505.016 337.362 505.787 335.744 506.873 336.435C507.938 337.047 508.728 339.218 508.728 341.211C508.728 343.224 507.938 344.921 506.873 344.921C505.866 344.921 505.016 342.75 505.016 340.066ZM512.497 340.204C512.497 334.974 517.036 333.731 518.891 338.428C520.825 343.441 520.213 344.921 516.266 344.921C513.503 344.921 512.497 343.678 512.497 340.204ZM504.563 328.422C490.294 328.106 467.005 328.106 452.834 328.422C438.565 328.797 450.209 329.034 478.649 329.034C507.108 329.034 518.734 328.797 504.563 328.422ZM499.708 322.797C488.063 322.481 469.393 322.481 458.38 322.797C447.268 323.172 456.841 323.409 479.577 323.409C502.393 323.409 511.411 323.093 499.708 322.797ZM491.221 314.389C478.412 310.383 478.413 310.383 466.788 314.31L455.143 318.238H479.577L504.01 318.317L491.221 314.389ZM409.039 526.475C409.039 525.706 417.21 479.977 425.065 437.05C426.605 428.248 428.854 415.992 429.92 409.755C431.005 403.577 433.394 390.473 435.249 380.605L438.486 362.802L426.309 362.191C419.598 361.875 413.125 362.033 411.803 362.566C410.5 363.039 401.855 375.986 392.619 391.321C383.362 406.676 370.021 428.485 363.014 439.892C355.988 451.221 341.107 475.595 329.857 493.93L309.509 527.324H359.304C386.678 527.324 409.039 526.929 409.039 526.475ZM316.91 519.765C316.91 518.601 333.252 517.91 362.166 517.91C391.849 517.91 407.026 518.522 406.257 519.765C405.487 520.989 388.376 521.7 361.001 521.7C332.857 521.7 316.91 520.989 316.91 519.765ZM324.469 510.43C324.469 509.206 339.489 508.515 365.778 508.515C392.145 508.515 407.184 509.206 407.184 510.43C407.184 511.594 392.145 512.285 365.778 512.285C339.489 512.285 324.469 511.594 324.469 510.43ZM331.022 501.035C330.252 499.792 343.574 499.101 369.567 499.101C395.54 499.101 408.881 499.792 408.112 501.035C407.421 502.101 392.461 502.891 369.567 502.891C346.673 502.891 331.712 502.101 331.022 501.035ZM336.647 491.621C335.877 490.398 342.647 489.707 355.455 489.707C368.323 489.707 375.034 490.398 374.264 491.621C373.652 492.628 365.166 493.476 355.455 493.476C345.745 493.476 337.258 492.628 336.647 491.621ZM378.034 491.621C377.264 490.398 383.047 489.707 393.921 489.707C404.026 489.707 410.953 490.477 410.953 491.621C410.953 492.707 404.401 493.476 395.086 493.476C386.362 493.476 378.665 492.628 378.034 491.621ZM341.344 482.227C341.344 480.984 354.528 480.293 377.126 480.293C399.625 480.293 412.808 480.984 412.808 482.227C412.808 483.372 399.625 484.062 377.126 484.062C354.528 484.062 341.344 483.372 341.344 482.227ZM347.975 472.813C347.206 471.589 358.534 470.878 380.738 470.878C402.092 470.878 414.743 471.589 414.743 472.813C414.743 473.977 402.487 474.668 381.902 474.668C362.087 474.668 348.666 473.898 347.975 472.813ZM352.594 463.418C352.594 462.175 364.554 461.484 384.586 461.484C404.638 461.484 416.598 462.175 416.598 463.418C416.598 464.563 404.638 465.254 384.586 465.254C364.554 465.254 352.594 464.563 352.594 463.418ZM358.298 454.004C358.298 452.76 369.567 452.07 388.375 452.07C407.184 452.07 418.434 452.76 418.434 454.004C418.434 455.168 407.184 455.859 388.375 455.859C369.567 455.859 358.298 455.168 358.298 454.004ZM364.85 444.59C365.561 443.445 377.126 442.675 393.152 442.675C410.046 442.675 420.369 443.445 420.369 444.59C420.369 445.754 409.651 446.445 391.987 446.445C373.652 446.445 364.08 445.833 364.85 444.59ZM369.567 435.195C369.567 434.031 379.277 433.261 394.928 433.261C410.658 433.261 420.369 434.031 420.369 435.195C420.369 436.34 410.658 437.05 394.928 437.05C379.277 437.05 369.567 436.34 369.567 435.195ZM375.192 425.781C375.192 424.636 384.29 423.867 398.698 423.867C413.125 423.867 422.224 424.636 422.224 425.781C422.224 426.946 413.125 427.636 398.698 427.636C384.29 427.636 375.192 426.946 375.192 425.781ZM381.823 416.386C382.435 415.301 391.533 414.452 402.566 414.452C414.427 414.452 422.224 415.222 422.224 416.386C422.224 417.531 414.052 418.222 401.401 418.222C388.06 418.222 381.053 417.531 381.823 416.386ZM396.388 407.446C402.408 407.051 411.724 407.051 417.132 407.446C422.52 407.821 417.585 408.137 406.257 408.137C394.849 408.137 390.448 407.821 396.388 407.446ZM392.145 399.413C392.145 398.347 398.085 397.578 406.335 397.578C415.354 397.578 420.131 398.268 419.362 399.413C418.75 400.499 412.355 401.347 405.171 401.347C397.711 401.347 392.145 400.499 392.145 399.413ZM396.862 390.019C397.474 389.012 405.112 388.164 413.895 388.164C423.23 388.164 429.783 388.933 429.783 390.019C429.783 391.163 422.835 391.933 412.73 391.933C401.796 391.933 396.092 391.242 396.862 390.019ZM401.559 382.539C401.559 381.374 407.796 380.605 416.598 380.605C425.381 380.605 431.617 381.374 431.617 382.539C431.617 383.624 425.381 384.394 416.598 384.394C407.796 384.394 401.559 383.624 401.559 382.539ZM413.283 373.598C417.132 373.203 423.526 373.203 427.375 373.598C431.243 374.052 428.085 374.368 420.369 374.368C412.573 374.368 409.415 374.052 413.283 373.598ZM411.881 367.5C411.111 366.276 415.355 365.565 423.151 365.565C431.006 365.565 435.17 366.276 434.479 367.5C433.789 368.506 428.697 369.355 423.151 369.355C417.586 369.355 412.513 368.506 411.881 367.5ZM456.071 504.963C456.071 484.22 455.755 482.523 452.281 481.674C450.209 481.062 448.591 479.286 448.591 477.668C448.591 476.049 447.269 474.668 445.729 474.668C443.657 474.668 442.888 472.576 442.888 467.109V459.55L479.123 460.024C515.339 460.556 515.339 460.556 515.891 466.793C516.345 471.727 515.733 473.286 512.812 474.056C510.72 474.589 508.648 476.582 508.175 478.595C507.642 480.608 505.866 482.227 504.168 482.227C501.622 482.227 501.247 485.385 501.247 504.726V527.324H522.049C540.937 527.324 542.713 527.008 541.864 524.008C541.41 522.232 537.009 498.726 532.233 471.806C527.457 444.985 520.983 409.202 517.806 392.407L512.043 361.796H445.275L440.341 388.617C437.558 403.36 431.163 439.517 425.913 469.043C420.762 498.489 416.125 523.693 415.671 525.015C415.039 526.772 419.757 527.324 435.486 527.324H456.071V504.963ZM439.176 414.452C439.176 413.446 442.967 412.597 447.664 412.597C452.282 412.597 456.071 413.446 456.071 414.452C456.071 415.538 452.282 416.386 447.664 416.386C442.967 416.386 439.176 415.538 439.176 414.452ZM502.175 414.452C501.464 413.288 504.326 412.597 509.576 412.597C514.273 412.597 518.121 413.446 518.121 414.452C518.121 415.538 514.806 416.386 510.72 416.386C506.635 416.386 502.786 415.538 502.175 414.452ZM441.032 406.972C441.032 405.887 444.427 405.038 448.591 405.038C452.677 405.038 456.071 405.887 456.071 406.972C456.071 407.979 452.677 408.827 448.591 408.827C444.427 408.827 441.032 407.979 441.032 406.972ZM501.247 406.972C501.247 405.887 505.095 405.038 509.793 405.038C515.042 405.038 517.884 405.828 517.194 406.972C516.582 407.979 512.734 408.827 508.648 408.827C504.563 408.827 501.247 407.979 501.247 406.972ZM441.96 397.578C442.651 396.492 446.045 395.644 449.519 395.644C452.973 395.644 456.367 396.492 456.979 397.578C457.768 398.723 454.828 399.413 449.519 399.413C444.19 399.413 441.269 398.723 441.96 397.578ZM500.004 398.19C502.175 396.019 514.036 395.486 515.28 397.499C516.049 398.722 513.188 399.413 507.642 399.413C502.708 399.413 499.313 398.88 500.004 398.19ZM443.874 390.019C444.506 389.012 447.959 388.164 451.511 388.164C455.064 388.164 457.985 389.012 457.985 390.019C457.985 391.084 454.512 391.933 450.367 391.933C445.729 391.933 443.183 391.163 443.874 390.019ZM500.32 390.019C501.622 387.848 512.339 388.164 513.721 390.473C514.194 391.242 511.116 391.933 506.873 391.933C502.096 391.933 499.55 391.163 500.32 390.019ZM444.802 382.539C444.802 381.453 447.742 380.605 451.275 380.605C454.828 380.605 458.301 381.453 458.912 382.539C459.603 383.624 457.058 384.394 452.44 384.394C448.197 384.394 444.802 383.545 444.802 382.539ZM499.314 382.539C499.314 381.453 502.314 380.605 505.945 380.605C509.577 380.605 512.497 381.453 512.497 382.539C512.497 383.545 509.577 384.394 505.945 384.394C502.314 384.394 499.314 383.545 499.314 382.539ZM445.729 374.98C446.341 373.973 449.815 373.125 453.368 373.125C456.92 373.125 459.841 373.973 459.841 374.98C459.841 376.065 456.446 376.914 452.203 376.914C447.584 376.914 445.038 376.144 445.729 374.98ZM498.385 374.98C498.997 373.973 502.016 373.125 505.016 373.125C507.937 373.125 510.958 373.973 511.569 374.98C512.26 376.144 509.635 376.914 505.016 376.914C500.319 376.914 497.694 376.144 498.385 374.98ZM446.657 367.5C446.657 366.414 449.657 365.565 453.288 365.565C456.92 365.565 459.841 366.414 459.841 367.5C459.841 368.506 456.92 369.355 453.288 369.355C449.657 369.355 446.657 368.506 446.657 367.5ZM497.457 367.5C497.457 366.414 500.399 365.565 504.01 365.565C507.642 365.565 510.642 366.414 510.642 367.5C510.642 368.506 507.642 369.355 504.01 369.355C500.399 369.355 497.457 368.506 497.457 367.5ZM420.369 519.765C420.369 518.68 426.605 517.91 435.407 517.91C444.19 517.91 450.426 518.68 450.426 519.765C450.426 520.93 444.19 521.7 435.407 521.7C426.605 521.7 420.369 520.93 420.369 519.765ZM506.873 519.765C506.873 518.68 513.109 517.91 521.911 517.91C530.694 517.91 536.93 518.68 536.93 519.765C536.93 520.93 530.694 521.7 521.911 521.7C513.109 521.7 506.873 520.93 506.873 519.765ZM422.224 510.43C422.224 509.285 428.539 508.515 437.401 508.515C447.052 508.515 452.123 509.206 451.353 510.43C450.742 511.436 443.953 512.285 436.256 512.285C428.164 512.285 422.224 511.515 422.224 510.43ZM506.873 510.43C506.873 509.285 513.188 508.515 522.049 508.515C531.622 508.515 536.772 509.206 536.002 510.43C535.391 511.436 528.523 512.285 520.826 512.285C512.813 512.285 506.873 511.515 506.873 510.43ZM424.138 501.035C424.138 499.95 429.782 499.101 437.243 499.101C444.802 499.101 450.426 499.95 450.426 501.035C450.426 502.042 444.802 502.891 437.243 502.891C429.782 502.891 424.138 502.042 424.138 501.035ZM506.873 501.035C506.873 499.95 512.497 499.101 520.056 499.101C527.536 499.101 533.161 499.95 533.161 501.035C533.161 502.042 527.536 502.891 520.056 502.891C512.497 502.891 506.873 502.042 506.873 501.035ZM425.993 491.621C425.993 490.556 431.321 489.707 438.249 489.707C445.117 489.707 450.426 490.556 450.426 491.621C450.426 492.628 445.117 493.476 438.249 493.476C431.321 493.476 425.993 492.628 425.993 491.621ZM506.873 491.621C506.873 490.556 512.576 489.707 520.135 489.707C528.523 489.707 533.003 490.398 532.233 491.621C531.621 492.628 525.602 493.476 518.97 493.476C512.181 493.476 506.873 492.628 506.873 491.621ZM427.848 482.227C427.848 481.141 431.696 480.293 436.334 480.293C441.032 480.293 444.802 481.141 444.802 482.227C444.802 483.214 441.032 484.062 436.334 484.062C431.696 484.062 427.848 483.214 427.848 482.227ZM512.497 482.227C512.497 481.141 516.74 480.293 521.911 480.293C527.062 480.293 531.306 481.141 531.306 482.227C531.306 483.214 527.062 484.062 521.911 484.062C516.74 484.062 512.497 483.214 512.497 482.227ZM428.855 472.813C429.467 471.727 432.013 470.878 434.559 470.878C437.105 470.878 439.176 471.727 439.176 472.813C439.176 473.819 436.552 474.668 433.394 474.668C430.078 474.668 428.164 473.898 428.855 472.813ZM518.121 472.813C518.121 471.727 520.668 470.878 523.747 470.878C526.905 470.878 529.451 471.727 529.451 472.813C529.451 473.819 526.905 474.668 523.747 474.668C520.668 474.668 518.121 473.819 518.121 472.813ZM430.69 463.418C431.321 462.333 433.098 461.484 434.559 461.484C436.019 461.484 437.243 462.333 437.243 463.418C437.243 464.405 435.565 465.254 433.394 465.254C431.243 465.254 430.078 464.405 430.69 463.418ZM520.056 463.418C520.056 462.333 521.753 461.484 523.747 461.484C525.839 461.484 527.536 462.333 527.536 463.418C527.536 464.405 525.839 465.254 523.747 465.254C521.753 465.254 520.056 464.405 520.056 463.418ZM432.545 455.859C431.854 454.695 435.408 454.004 441.96 454.004C448.512 454.004 452.123 454.695 451.353 455.859C450.742 456.846 446.499 457.694 441.96 457.694C437.48 457.694 433.236 456.846 432.545 455.859ZM505.945 455.859C505.175 454.695 508.728 454.004 515.201 454.004C520.984 454.004 525.681 454.852 525.681 455.859C525.681 456.846 521.517 457.694 516.346 457.694C511.254 457.694 506.557 456.846 505.945 455.859ZM433.552 446.445C433.552 445.438 438.17 444.59 443.874 444.59C449.578 444.59 454.216 445.438 454.216 446.445C454.216 447.53 449.578 448.3 443.874 448.3C438.17 448.3 433.552 447.53 433.552 446.445ZM505.016 446.445C505.016 445.438 509.182 444.59 514.432 444.59C519.583 444.59 523.747 445.438 523.747 446.445C523.747 447.53 519.583 448.3 514.432 448.3C509.182 448.3 505.016 447.53 505.016 446.445ZM435.407 438.965C435.407 437.899 439.65 437.05 444.802 437.05C449.973 437.05 454.216 437.899 454.216 438.965C454.216 439.971 449.973 440.82 444.802 440.82C439.65 440.82 435.407 439.971 435.407 438.965ZM504.01 438.965C503.32 437.741 506.556 437.05 512.417 437.05C517.667 437.05 521.911 437.899 521.911 438.965C521.911 439.971 518.122 440.82 513.582 440.82C508.944 440.82 504.701 439.971 504.01 438.965ZM443.578 429.097C450.051 427.715 453.209 427.794 454.748 429.333C456.288 430.873 453.899 431.346 445.65 431.189C434.479 430.952 434.479 430.952 443.578 429.097ZM504.01 429.57C504.701 428.485 508.49 427.636 512.497 427.636C516.503 427.636 520.352 428.485 520.983 429.57C521.674 430.715 518.438 431.406 512.497 431.406C506.556 431.406 503.32 430.715 504.01 429.57ZM437.243 422.011C437.243 421.005 441.486 420.156 446.657 420.156C451.828 420.156 456.071 421.005 456.071 422.011C456.071 423.018 451.828 423.867 446.657 423.867C441.486 423.867 437.243 423.018 437.243 422.011ZM503.083 422.011C503.083 421.005 506.951 420.156 511.569 420.156C516.188 420.156 520.056 421.005 520.056 422.011C520.056 423.018 516.188 423.867 511.569 423.867C506.951 423.867 503.083 423.018 503.083 422.011Z" fill="#DBA651"/>
</svg>
