<svg width="961" height="965" viewBox="0 0 961 965" fill="none" xmlns="http://www.w3.org/2000/svg">
<path fill-rule="evenodd" clip-rule="evenodd" d="M409.994 960.891C398.504 959.122 381.856 955.832 373.082 953.688C357.405 949.675 357.031 949.401 353.816 939.656C350.6 930.11 350.202 929.836 345.541 932.951C342.425 934.995 340.755 938.21 341.254 941.226C341.927 945.987 341.553 945.987 321.489 939.083C273.884 922.708 201.455 881.334 172.618 853.992C166.985 848.534 161.427 844.047 160.355 844.047C159.383 844.047 158.51 842.402 158.51 840.458C158.51 837.517 159.956 837.143 165.415 838.315C172.344 839.76 174.387 837.717 170.2 833.529C168.929 832.283 168.729 829.94 169.801 828.27C171.172 826.127 175.06 828.171 184.506 836.171C212.147 859.326 239.987 877.346 275.629 895.067C322.86 918.446 354.588 928.939 406.68 938.484C437.935 944.142 521.854 944.242 552.71 938.484C604.403 928.939 641.215 916.975 684.16 895.74C698.665 888.537 708.386 884.948 710.53 886.119C712.399 887.091 716.661 888.437 719.976 889.135C732.338 891.752 729.522 896.637 709.657 907.055C654.55 936.167 605.574 952.417 547.949 960.991C517.368 965.552 440.178 965.452 409.994 960.891ZM425.174 929.736C274.757 910.345 144.005 817.279 78.2799 682.913C24.0451 572.026 17.3406 439.804 60.1851 325.129C128.527 142.186 303.195 25.4418 497.03 33.1433C549.894 35.2868 596.128 44.8326 643.16 63.3263C765.063 111.43 861.744 212.771 903.791 336.718C910.795 357.355 920.241 395.041 921.138 405.833C921.213 407.677 922.583 416.052 924.054 424.326C927.743 445.262 927.743 523.25 924.054 546.13C911.393 624.79 881.609 696.173 837.194 754.769C751.43 867.9 619.706 932.951 478.536 931.88C457.5 931.78 433.448 930.808 425.174 929.736ZM545.706 920.664C748.514 889.334 900.675 726.256 918.995 520.633C922.584 479.234 923.257 461.438 921.038 460.067C919.967 459.494 919.069 454.509 919.069 449.151C918.994 440.004 913.735 398.63 911.393 388.411C880.337 255.017 795.446 145.601 676.757 86.3064C636.156 66.0431 605.2 55.6249 556.698 45.9045C519.411 38.4023 443.468 38.3026 404.237 45.705C297.537 65.9433 203.972 121.35 136.902 204.023C68.46 288.416 31.8465 405.733 40.3207 513.604C57.0697 726.929 209.63 890.68 420.513 921.835C452.042 926.421 511.934 925.923 545.706 920.664ZM787.844 441.673C786.972 439.63 787.445 436.689 788.816 435.442C792.33 431.828 799.035 435.143 798.162 439.904C797.091 445.163 789.688 446.534 787.844 441.673ZM785.402 420.638C783.457 415.578 788.417 410.793 791.931 414.406C794.848 417.323 793.003 424.227 789.289 424.227C787.944 424.227 786.174 422.582 785.402 420.638ZM167.085 420.438C163.471 416.849 165.614 412.363 170.674 413.036C173.59 413.534 175.933 415.379 175.933 417.323C175.933 420.937 169.801 423.155 167.085 420.438ZM779.27 400.1C777.525 395.514 784.056 390.255 787.346 393.57C790.561 396.785 788.218 403.415 783.856 403.415C781.987 403.415 779.943 401.945 779.27 400.1ZM171.172 398.53C168.73 394.542 176.431 387.912 179.646 391.127C181.092 392.598 181.69 395.415 180.893 397.458C179.347 401.646 173.49 402.244 171.172 398.53ZM771.868 380.236C769.724 376.721 772.74 373.232 777.825 373.232C780.84 373.232 782.286 374.877 782.286 377.893C782.286 382.753 774.609 384.523 771.868 380.236ZM178.275 377.893C176.132 374.379 179.048 370.889 184.207 370.889C187.123 370.889 188.694 372.534 188.694 375.55C188.694 380.535 180.892 382.18 178.275 377.893ZM764.565 360.371C763.792 358.327 764.366 355.511 765.836 354.041C769.051 350.825 776.827 357.455 774.41 361.443C772.067 365.132 766.135 364.558 764.565 360.371ZM187.223 358.327C185.578 354.04 187.996 350.053 192.009 350.053C195.498 350.053 198.613 356.383 196.669 359.499C194.626 362.814 188.694 362.016 187.223 358.327ZM756.988 343.224C753.175 340.806 755.418 333.802 760.004 333.802C761.848 333.802 763.892 335.347 764.565 337.092C766.235 341.479 761.076 345.666 756.988 343.224ZM196.47 339.734C194.925 335.447 197.268 331.459 201.455 331.459C205.717 331.459 207.586 334.874 205.817 339.435C204.072 344.021 198.24 344.221 196.47 339.734ZM746.844 325.328C743.454 321.913 745.199 314.91 749.286 315.682C751.53 316.181 753.374 318.499 753.374 320.941C753.374 325.527 749.586 328.144 746.844 325.328ZM207.96 320.941C206.016 315.882 210.976 311.096 214.49 314.611C217.406 317.626 215.661 324.53 211.848 324.53C210.502 324.53 208.733 322.885 207.96 320.941ZM218.777 301.476C218.777 295.618 222.765 293.301 226.852 296.69C231.139 300.204 228.797 305.937 223.263 305.937C220.422 305.937 218.777 304.392 218.777 301.476ZM731.765 303.121C728.35 298.933 732.064 293.301 737.024 295.245C741.211 296.79 741.111 303.893 736.924 305.264C735.453 305.763 733.21 304.766 731.864 303.121H731.765ZM233.482 286.073C231.538 281.113 236.498 276.352 239.987 279.842C242.928 282.882 241.159 289.786 237.37 289.786C236 289.786 234.255 288.141 233.482 286.073ZM719.004 288.216C715.415 284.727 717.458 278.197 722.219 278.197C725.833 278.197 726.805 279.468 726.207 283.156C725.534 288.415 721.745 291.057 719.004 288.216ZM247.39 269.922C246.617 267.878 247.116 265.161 248.561 263.691C251.876 260.376 258.506 265.635 256.637 270.221C254.992 274.608 249.16 274.408 247.39 269.822V269.922ZM702.554 269.723C701.681 267.579 702.055 264.763 703.227 263.492C706.641 260.177 713.271 263.591 712.299 268.277C711.327 273.71 704.498 274.682 702.554 269.723ZM262.195 256.588C261.522 254.843 261.796 252.002 262.868 250.357C265.51 246.169 272.713 249.384 271.741 254.344C270.769 259.304 263.939 260.974 262.195 256.588ZM687.275 252.6C687.275 249.584 688.821 248.014 691.936 248.014C694.952 248.014 696.522 249.584 696.522 252.6C696.522 255.715 694.952 257.261 691.936 257.261C688.821 257.261 687.275 255.715 687.275 252.6ZM277.772 243.154C275.33 239.166 283.131 232.536 286.346 235.751C287.792 237.221 288.39 240.038 287.617 242.082C286.047 246.269 280.115 246.842 277.772 243.154ZM672.67 244.225C669.056 240.611 671.099 234.106 675.785 234.106C679.374 234.106 680.446 235.352 679.873 239.166C679.1 244.325 675.386 246.942 672.57 244.225H672.67ZM295.294 227.077C295.294 224.062 296.864 222.516 299.98 222.516C303.095 222.516 304.641 224.062 304.641 227.077C304.641 230.193 303.095 231.763 299.98 231.763C296.864 231.763 295.294 230.193 295.294 227.077ZM653.478 229.221C652.606 227.875 653.379 225.233 655.148 223.488C659.136 219.5 665.267 222.89 663.323 228.049C661.653 232.336 655.821 233.034 653.478 229.221ZM313.688 218.803C311.644 216.285 311.544 214.615 313.314 212.771C316.529 209.556 323.134 211.998 323.134 216.385C323.134 221.245 317.003 222.79 313.688 218.803ZM636.256 215.488C636.256 212.472 637.801 210.927 640.917 210.927C643.932 210.927 645.502 212.472 645.502 215.488C645.502 218.603 643.932 220.173 640.917 220.173C637.801 220.173 636.256 218.603 636.256 215.488ZM331.708 207.711C330.163 203.524 331.907 201.58 337.64 201.58C340.581 201.58 341.827 202.951 341.254 205.668C340.282 210.727 333.453 212.297 331.708 207.711ZM616.865 207.612C615.22 203.225 620.479 199.038 624.467 201.58C628.28 203.923 626.136 210.927 621.451 210.927C619.706 210.927 617.662 209.456 616.865 207.612ZM350.999 196.994C350.999 193.879 352.545 192.333 355.66 192.333C358.776 192.333 360.246 193.879 360.246 196.994C360.246 200.11 358.776 201.68 355.66 201.68C352.545 201.68 350.999 200.11 350.999 196.994ZM597.798 199.138C597.025 197.692 597.798 195.05 599.642 193.206C602.558 190.289 603.356 190.29 605.873 193.305C607.518 195.249 608.117 197.866 607.344 199.237C605.4 202.453 599.841 202.353 597.798 199.138ZM280.489 170.899C271.641 155.321 261.995 138.298 259.079 133.238C256.163 128.079 254.493 122.82 255.465 121.35C257.908 117.561 267.354 113.175 269.796 114.645C270.968 115.418 277.099 125.636 283.505 137.326C289.935 149.09 299.282 165.465 304.267 173.74C309.326 181.915 312.915 189.891 312.342 191.361C311.37 193.879 301.724 199.337 298.11 199.337C297.238 199.337 289.262 186.576 280.489 170.899ZM370.266 190.962C368.322 185.803 374.453 182.389 378.54 186.377C380.285 188.146 380.983 190.763 380.086 192.134C377.768 195.922 371.911 195.249 370.266 190.962ZM578.606 189.691C579.105 186.675 580.949 184.258 582.893 184.258C587.953 184.258 587.28 193.305 582.12 194.277C578.806 194.95 578.033 193.879 578.606 189.691ZM390.429 184.158C390.429 179.373 397.333 176.955 399.776 180.943C402.293 185.031 400.449 187.747 394.891 187.747C392.473 187.747 390.429 186.202 390.429 184.158ZM557.396 183.086C557.396 179.273 558.567 178.301 562.655 178.899C565.471 179.273 567.814 181.217 567.814 183.086C567.814 185.031 565.471 186.875 562.655 187.274C558.567 187.847 557.396 186.875 557.396 183.086ZM411.241 178.401C411.241 175.385 412.811 173.84 415.927 173.84C419.042 173.84 420.587 175.385 420.587 178.401C420.587 181.516 419.042 183.086 415.927 183.086C412.811 183.086 411.241 181.516 411.241 178.401ZM536.559 178.401C536.559 174.612 537.731 173.64 541.718 174.214C544.635 174.712 546.977 176.556 546.977 178.401C546.977 180.345 544.635 182.289 541.718 182.688C537.731 183.261 536.559 182.214 536.559 178.401ZM621.849 179.473C615.718 176.158 615.619 176.058 619.208 167.409C621.251 162.624 624.367 155.72 626.211 152.106C629.252 146.274 629.152 142.086 625.638 115.517C623.395 97.9957 622.522 84.5616 623.793 83.3902C624.965 82.3185 628.953 82.6923 633.04 84.4619C639.745 87.2783 640.443 88.6493 641.888 102.258C642.786 110.358 644.231 120.477 645.104 124.764C646.774 132.541 646.774 132.54 660.781 122.122C681.418 106.943 682.689 106.445 691.363 110.159C695.45 111.903 698.865 114.645 698.865 116.29C698.765 117.935 686.976 126.908 672.47 136.055C646.574 152.704 646.175 153.003 639.844 167.983C633.04 184.059 631.669 184.831 621.849 179.473ZM432.975 177.13C431.305 172.768 435.392 167.982 438.907 170.226C442.695 172.569 441.922 180.744 437.934 180.744C435.99 180.744 433.747 179.173 432.975 177.13ZM516.396 177.13C515.623 175.086 516.196 172.269 517.667 170.799C520.982 167.609 528.658 174.214 526.241 178.201C523.898 182.015 518.066 181.317 516.396 177.13ZM453.412 173.242C453.886 170.325 455.755 167.983 457.699 167.983C459.544 167.983 461.488 170.325 461.886 173.242C462.46 177.229 461.488 178.401 457.699 178.401C453.886 178.401 452.914 177.229 453.412 173.242ZM474.822 175.086C473.177 170.899 475.52 166.811 479.608 166.811C483.795 166.811 485.739 172.668 482.524 175.883C479.009 179.373 476.293 179.099 474.822 175.086ZM495.559 174.812C493.914 170.425 498.002 165.64 501.516 167.883C505.404 170.226 504.532 178.401 500.544 178.401C498.575 178.401 496.357 176.855 495.559 174.812ZM352.246 151.233C348.756 141.314 343.298 125.636 339.983 116.29C335.322 102.756 333.353 99.6407 330.337 100.912C318.473 105.872 308.728 107.143 306.784 104.027C301.924 96.3258 304.541 93.0109 320.318 87.2783C375.126 67.0151 376.497 66.8406 376.497 78.5051C376.497 84.3622 375.226 85.4341 365.979 88.0511C360.246 89.6213 354.987 91.8645 354.29 92.8365C353.716 93.9083 358.477 110.059 365.007 128.752C371.437 147.445 376.397 163.023 375.998 163.322C373.281 165.565 364.608 169.154 361.891 169.154C359.847 169.154 356.159 162.35 352.246 151.233ZM550.766 156.293C536.26 153.377 523.324 149.987 522.053 148.617C520.483 147.046 522.153 133.911 527.113 108.489C536.659 59.6376 535.687 62.454 543.089 62.5537C555.626 62.5537 555.726 63.6255 548.423 100.912C544.635 119.979 542.292 136.155 543.089 136.827C543.962 137.6 551.937 139.569 560.885 141.214C569.758 142.859 578.233 145.202 579.678 146.274C582.22 148.317 581.348 159.234 578.506 160.779C577.734 161.178 565.272 159.134 550.766 156.218V156.293ZM412.313 149.987C410.368 144.828 438.608 60.8837 442.795 59.2387C449.026 56.8958 457.001 57.6687 459.743 60.9836C465.376 67.9125 499.647 139.644 498.974 143.258C498.475 145.7 495.459 147.445 490.699 147.844C483.969 148.517 482.823 147.644 478.336 138.497C473.476 128.353 473.476 128.353 457.973 129.251C449.524 129.624 441.15 130.223 439.38 130.397C437.635 130.696 434.52 135.556 432.377 141.314C429.062 150.461 427.616 151.832 421.086 152.505C416.226 153.003 413.11 152.106 412.313 149.987ZM457.699 113.474H466.548L459.245 97.3976C455.157 88.5495 451.269 82.0194 450.397 82.8918C448.627 84.8359 441.424 109.486 441.424 113.573C441.424 115.118 442.994 115.717 445.138 114.919C447.082 114.146 452.814 113.474 457.699 113.474ZM159.383 462.61C157.838 458.423 160.155 454.41 164.143 454.41C168.43 454.41 170.3 460.167 167.184 463.382C163.57 466.872 160.953 466.697 159.383 462.61ZM790.287 463.482C788.143 459.968 792.903 455.78 797.29 457.525C799.234 458.323 800.879 460.466 800.879 462.41C800.879 466.498 792.704 467.27 790.287 463.482ZM163.371 442.92C159.483 440.502 161.726 433.498 166.387 433.498C171.546 433.498 173.415 438.159 169.801 441.773C167.857 443.817 165.415 444.191 163.371 442.92ZM782.286 568.238C782.286 564.923 783.856 563.353 787.171 563.353C793.103 563.353 792.405 571.054 786.374 572.226C783.557 572.799 782.286 571.553 782.286 568.238ZM163.969 548.174C162 543.114 166.885 538.354 170.374 541.943C173.415 544.859 171.546 551.788 167.757 551.788C166.387 551.788 164.742 550.118 163.969 548.174ZM786.274 548.672C784.629 544.485 786.473 542.541 792.131 542.541C795.147 542.541 796.318 543.887 795.82 546.529C794.848 551.589 787.944 553.134 786.274 548.672ZM160.854 527.437C158.61 524.82 158.511 523.05 160.355 521.206C163.869 517.692 170.574 520.807 169.702 525.493C168.63 530.852 164.443 531.824 160.854 527.437ZM789.289 526.266C789.289 523.35 790.86 521.705 793.477 521.705C799.035 521.705 800.879 523.649 799.334 527.637C797.39 532.796 789.289 531.724 789.289 526.266ZM77.3079 520.907C77.3079 520.433 79.0524 515.174 81.0961 509.143C83.1399 503.111 84.4113 497.852 84.0375 497.453C83.4393 497.154 78.5791 493.565 72.9213 489.478L62.7024 482.275H76.7347C90.7421 482.275 90.7418 482.275 93.5582 470.685C96.7734 457.052 98.8172 457.351 102.805 471.757C105.746 482.275 105.746 482.275 118.782 482.275C131.842 482.35 131.842 482.35 126.084 487.235C122.869 489.852 118.308 493.366 115.965 495.011C111.977 497.852 111.878 498.824 115.093 509.816C117.037 516.346 118.109 521.605 117.511 521.605C116.937 521.605 113.049 519.063 108.862 515.848C104.675 512.632 99.889 510.015 98.244 510.015C96.4993 510.015 91.7141 512.632 87.5268 515.848C80.5232 521.206 77.3079 522.776 77.3079 520.907ZM844.397 510.015C848.011 498.824 848.011 498.226 843.624 495.21C841.182 493.466 836.521 489.852 833.306 487.235C827.573 482.35 827.573 482.35 840.608 482.275C852.597 482.275 853.843 481.776 855.114 476.517C855.887 473.402 857.756 467.943 859.102 464.354C861.744 457.924 861.744 457.924 865.732 469.514C869.62 481.103 869.62 481.103 882.082 482.275L894.544 483.421L885.397 490.151C880.337 493.839 875.851 497.254 875.377 497.553C874.879 497.927 876.25 503.111 878.293 509.143C880.337 515.174 881.683 520.433 881.21 520.907C880.811 521.306 876.25 518.589 871.09 514.875C861.644 508.071 861.644 508.071 852.671 514.776C847.811 518.489 843.15 521.605 842.253 521.605C841.381 521.605 842.353 516.446 844.397 510.015ZM792.031 505.055C792.405 502.039 794.374 499.597 796.218 499.597C801.278 499.597 800.605 508.645 795.446 509.617C792.231 510.314 791.333 509.243 792.031 505.055ZM158.51 502.912C158.51 499.597 159.782 498.326 162.498 498.924C168.63 500.071 169.228 507.772 163.271 507.772C159.956 507.772 158.51 506.227 158.51 502.912ZM793.202 487.708C789.588 484.119 791.732 477.589 796.418 477.589C800.007 477.589 800.979 478.86 800.506 482.649C799.708 487.808 795.919 490.45 793.202 487.708ZM157.239 484.318C156.367 482.948 157.04 480.306 158.81 478.561C162.798 474.573 169.029 477.988 167.085 483.147C165.415 487.434 159.582 488.107 157.239 484.318ZM475.221 891.478C473.177 889.434 471.507 884.449 471.507 880.362C471.507 876.175 470.261 871.514 468.591 869.744C466.348 867.326 466.348 866.454 468.591 865.656C470.261 865.083 471.507 863.139 471.507 861.295C471.507 856.509 476.866 857.282 481.452 862.641C486.412 868.398 486.611 871.887 481.926 871.887C477.065 871.887 477.365 884.948 482.324 887.764C484.368 888.936 485.34 891.079 484.468 892.55C482.225 896.039 479.508 895.74 475.221 891.478ZM438.907 891.278C438.308 886.119 439.58 865.955 440.552 864.41C441.25 863.438 442.895 863.339 444.465 864.211C445.91 865.183 450.496 865.656 454.584 865.283C461.014 864.684 462.36 865.557 463.631 870.641C465.775 879.19 462.759 892.824 458.671 892.824C456.229 892.824 455.357 889.808 455.357 881.234C455.357 864.884 447.281 866.628 445.611 883.377C445.038 890.207 439.48 896.637 438.907 891.278ZM491.372 885.421C486.312 873.458 491.197 864.984 503.061 864.984C508.52 864.984 511.536 866.354 513.38 869.744C517.368 877.146 514.452 881.234 505.205 881.234C496.731 881.234 494.313 884.25 500.818 886.792C502.862 887.565 505.977 887.191 507.547 885.72C509.691 884.075 511.037 884.075 512.009 885.72C514.651 890.007 510.937 892.824 502.588 892.824C495.659 892.824 494.014 891.752 491.372 885.421ZM506.376 871.514C506.376 868.398 498.774 870.143 497.703 873.458C497.129 875.202 498.475 875.801 501.591 874.903C504.133 874.23 506.376 872.685 506.376 871.514ZM423.802 872.486C424.7 862.641 426.345 853.593 427.417 852.521C430.632 849.207 434.52 853.294 433.448 858.753C432.875 861.469 431.704 869.844 430.931 877.146C429.859 887.091 428.588 890.481 425.846 890.481C422.731 890.481 422.457 887.964 423.802 872.486ZM521.655 886.792C520.882 884.748 520.209 878.418 520.209 872.785C520.209 863.513 520.782 862.441 524.671 863.712C527.113 864.51 529.83 864.111 530.627 862.74C532.671 859.426 536.459 859.725 536.459 863.239C536.459 864.884 534.416 867.526 531.774 869.071C527.985 871.514 527.412 873.557 528.658 881.234C529.83 888.537 529.456 890.481 526.614 890.481C524.67 890.481 522.427 888.836 521.655 886.792ZM544.734 885.421C544.161 883.776 542.691 877.346 541.519 871.115C539.475 860.697 539.575 860.024 543.663 861.095C546.105 861.669 548.622 861.295 549.395 860.123C551.364 857.008 561.084 857.581 563.901 860.996C565.272 862.641 566.742 868.598 567.116 874.131C568.013 887.764 562.929 889.334 560.312 876.174C559.041 869.37 556.997 865.856 554.18 865.382C550.566 864.684 550.093 865.956 550.666 875.601C551.165 882.705 550.392 886.991 548.523 887.565C546.978 888.063 545.308 887.191 544.734 885.421ZM380.086 879.888C375.026 874.829 375.525 863.513 381.083 857.98C387.015 852.123 390.504 852.123 398.405 858.354C403.664 862.541 404.536 864.585 403.365 870.542C400.922 882.705 388.086 887.864 380.086 879.888ZM395.19 871.713C398.779 864.884 392.548 857.98 387.015 862.541C383.301 865.656 382.229 872.286 384.971 875.003C387.987 878.019 392.548 876.474 395.19 871.713ZM574.618 876.075C573.347 872.087 574.618 869.57 580.75 864.51C587.679 858.753 587.953 857.98 583.491 857.98C580.75 857.98 577.833 859.151 576.961 860.497C575.79 862.366 574.618 862.267 572.774 860.398C569.085 856.709 577.535 850.677 585.136 851.549C591.068 852.222 594.982 857.98 597.997 870.242C599.343 875.601 598.87 876.573 594.882 876.573C592.24 876.573 589.423 877.645 588.651 878.916C585.909 883.377 576.288 881.433 574.618 876.075ZM589.324 869.943C589.897 867.999 588.825 867.127 586.208 867.626C583.965 868.099 581.622 869.844 581.049 871.613C580.376 873.557 581.448 874.43 584.164 873.857C586.407 873.458 588.75 871.713 589.324 869.943ZM363.063 876.872C360.72 875.402 360.82 873.159 363.461 865.557C365.306 860.398 366.178 855.537 365.505 854.765C361.792 851.051 357.23 854.266 353.915 862.641C351.872 867.7 348.856 871.887 347.086 871.887C343.198 871.887 343.198 871.414 347.884 856.509C350.002 849.705 353.217 844.047 354.887 844.047C356.532 844.047 357.903 845.019 357.903 846.191C357.903 847.263 359.274 848.135 360.819 848.135C372.982 847.661 376.098 853.02 371.736 866.728C368.322 877.446 366.851 879.19 363.063 876.872ZM608.789 868.971C607.444 867.326 605.2 863.139 603.929 859.625C602.558 856.21 600.514 853.394 599.243 853.394C596.427 853.394 596.826 839.661 599.742 837.916C601.013 837.143 602.957 838.215 604.029 840.159C605.2 842.203 607.718 843.275 609.587 842.602C611.631 841.804 612.977 842.701 612.977 844.82C612.977 846.789 611.705 848.733 610.16 849.306C606.072 850.677 611.705 862.641 616.391 862.641C621.052 862.641 620.977 868.672 616.291 870.542C611.431 872.386 611.631 872.386 608.789 868.971ZM331.409 865.183C329.564 862.267 337.64 841.43 341.154 840.059C346.513 838.016 346.613 840.932 341.653 854.266C336.967 866.728 334.25 869.669 331.409 865.183ZM623.395 857.107C618.933 846.39 618.136 839.087 621.351 837.916C623.594 837.143 629.925 850.278 632.068 860.024C633.614 867.326 626.61 864.884 623.395 857.107ZM311.943 858.753C302.597 854.964 304.641 836.844 314.959 832.084C321.963 828.968 332.381 832.557 332.381 838.215C332.381 842.303 327.521 842.976 324.006 839.387C320.716 836.171 314.585 838.788 313.214 843.948C311.844 849.306 313.788 852.621 319.146 853.693C321.489 854.166 323.533 855.537 323.832 856.808C324.306 859.425 316.629 860.697 311.943 858.753ZM640.642 854.864C632.542 850.877 629.825 841.331 634.686 833.828C642.487 821.94 659.435 828.47 659.435 843.474C659.435 853.992 650.163 859.625 640.642 854.864ZM651.235 842.776C651.235 837.517 650.088 835.772 646.076 835.299C641.888 834.701 640.817 835.573 640.817 839.96C640.817 846.091 645.104 851.55 648.917 850.278C650.163 849.905 651.235 846.49 651.235 842.776ZM290.633 846.39C290.633 840.059 302.397 821.167 305.613 822.339C308.354 823.41 307.856 825.953 302.796 836.171C297.338 847.362 290.633 852.92 290.633 846.39ZM663.323 832.458C657.291 821.765 657.092 820.793 660.98 819.323C663.323 818.45 666.638 816.307 668.383 814.562C673.941 809.104 681.044 812.219 686.777 822.638C691.737 831.585 692.036 837.143 687.475 837.143C686.478 837.143 683.362 832.956 680.546 827.897C677.63 822.737 674.315 818.65 673.043 818.65C668.856 818.65 668.283 825.155 671.972 832.183C680.346 848.434 672.371 848.633 663.323 832.458ZM276.701 840.558C276.701 839.661 279.044 834.9 281.86 829.94C285.075 824.183 286.047 820.095 284.676 818.65C281.76 815.709 278.271 818.251 272.912 827.124C269.796 832.283 267.454 833.928 265.31 832.557C262.768 831.012 263.167 829.168 267.155 822.638C273.186 812.793 273.386 809.303 268.027 809.303C265.709 809.303 261.996 812.892 259.578 817.478C254.992 825.853 252.549 827.298 250.032 823.111C248.96 821.366 256.836 804.418 261.696 798.187C262.768 796.841 279.043 807.534 279.043 809.577C279.043 810.649 281.087 811.621 283.604 811.621C286.047 811.621 289.661 813.964 291.605 816.706C294.92 821.367 294.721 822.538 290.035 831.212C285.574 839.187 276.8 845.418 276.8 840.558H276.701ZM343.298 835.673C340.083 832.458 341.728 827.498 345.74 828.27C347.959 828.769 349.828 830.514 349.828 832.358C349.828 835.972 345.74 838.115 343.298 835.673ZM612.977 831.486C612.977 829.641 613.949 827.597 615.02 826.924C617.662 825.255 622.821 831.212 620.678 833.355C617.936 836.072 612.977 834.9 612.977 831.486ZM695.924 825.354C690.665 822.339 690.765 818.251 696.422 811.148C702.255 803.646 699.637 800.829 692.808 807.16C686.677 812.992 683.661 809.777 688.621 802.773C693.98 795.072 704.498 796.044 709.558 804.717C711.9 808.506 714.517 811.621 715.514 811.621C716.561 811.621 717.358 813.191 717.358 815.135C717.358 816.98 716.287 818.65 715.016 818.65C713.745 818.65 710.629 820.693 708.112 823.211C702.853 828.47 701.581 828.669 695.924 825.354ZM705.37 815.235C705.869 812.593 705.096 811.447 703.127 812.12C701.382 812.693 699.638 815.036 699.139 817.279C698.666 819.996 699.538 821.067 701.482 820.394C703.227 819.821 704.996 817.478 705.37 815.235ZM305.812 818.75C303.768 815.435 306.385 811.621 310.672 811.621C312.716 811.621 313.887 813.291 313.414 815.534C312.541 820.195 307.955 822.139 305.812 818.75ZM237.37 814.163C237.37 812.892 235.227 811.347 232.685 810.475C223.537 807.534 222.964 801.502 230.741 789.813C236.399 781.264 238.542 779.594 240.959 781.637C243.601 783.781 243.203 785.625 238.442 791.782C235.227 795.969 232.685 800.53 232.685 802C232.685 807.359 240.96 804.518 247.016 797.115C251.478 791.782 254.02 790.311 255.764 792.056C257.609 793.9 255.964 797.614 250.032 805.39C242.23 815.634 237.37 819.024 237.37 814.163ZM712.972 796.243C705.096 785.451 702.055 779.594 703.725 778.048C706.168 775.606 711.327 780.765 723.59 798.387C727.976 804.717 729.023 807.932 727.179 809.677C725.434 811.447 721.346 807.633 712.972 796.243ZM474.349 806.462C470.934 802.275 474.623 796.642 479.608 798.586C483.795 800.131 483.695 807.259 479.508 808.605C478.037 809.104 475.794 808.132 474.349 806.462ZM494.488 805.59C492.444 803.172 492.344 801.502 494.213 799.658C497.429 796.442 503.934 798.885 503.934 803.172C503.934 808.032 497.802 809.577 494.488 805.59ZM453.014 802.374C453.014 799.259 454.584 797.714 457.6 797.714C460.715 797.714 462.26 799.259 462.26 802.374C462.26 805.49 460.715 806.96 457.6 806.96C454.584 806.96 453.014 805.49 453.014 802.374ZM514.152 803.546C513.28 801.402 513.778 798.586 515.124 797.215C518.639 793.726 525.368 796.941 524.471 801.701C523.399 807.06 516.022 808.431 514.152 803.546ZM432.077 800.056C432.077 796.941 433.648 795.371 436.763 795.371C439.879 795.371 441.424 796.941 441.424 800.056C441.424 803.172 439.879 804.717 436.763 804.717C433.648 804.717 432.077 803.172 432.077 800.056ZM536.659 801.402C533.344 797.514 535.089 793.028 539.974 793.028C545.034 793.028 546.678 797.813 542.89 801.502C539.974 804.518 539.176 804.518 536.659 801.402ZM412.038 798.686C411.241 796.742 411.74 793.9 413.21 792.554C416.5 789.239 423.03 794.399 421.285 799.084C419.615 803.446 413.783 803.247 412.038 798.686ZM391.202 794.299C390.429 792.155 390.803 789.439 391.975 788.168C395.289 784.952 402.293 788.367 401.52 792.754C400.548 797.913 393.046 798.985 391.202 794.299ZM555.452 793.825C556.424 788.741 565.471 788.068 565.471 793.028C565.471 794.972 563.029 796.941 560.013 797.315C555.826 797.913 554.754 797.115 555.452 793.825ZM210.976 793.526C210.303 792.554 214.39 786.622 219.948 780.192C228.323 770.546 230.267 769.375 231.613 772.79C234.354 779.893 214.789 799.658 210.976 793.526ZM576.662 789.439C574.718 784.379 579.678 779.594 583.192 783.108C586.108 786.124 584.264 793.028 580.55 793.028C579.204 793.028 577.435 791.383 576.662 789.439ZM740.812 783.208C727.079 750.981 728.848 747.865 753.673 760.128C770.222 768.303 774.709 773.961 763.693 772.69C756.091 771.817 747.916 780.192 749.286 787.295C751.031 796.742 745.398 793.9 740.812 783.208ZM748.414 765.861C743.928 762.571 739.74 761.873 741.211 764.614C741.684 765.586 742.856 768.303 743.729 770.646C745 774.335 745.772 774.534 748.887 772.017C752.202 769.176 752.202 768.602 748.414 765.861ZM371.811 786.024C371.811 783.008 373.381 781.438 376.497 781.438C379.612 781.438 381.083 783.008 381.083 786.024C381.083 789.14 379.612 790.71 376.497 790.71C373.381 790.71 371.811 789.14 371.811 786.024ZM596.826 783.781C592.638 781.164 595.854 773.961 600.814 774.933C603.057 775.307 605.2 777.351 605.574 779.394C606.371 783.781 601.113 786.423 596.826 783.781ZM351.672 779.993C349.728 774.933 355.859 771.518 359.947 775.506C361.692 777.276 362.389 779.793 361.492 781.264C359.174 784.952 353.317 784.279 351.672 780.092V779.993ZM189.865 774.634C187.996 771.618 194.327 762.471 205.817 751.355L214.191 743.279L222.566 751.654C232.61 761.773 231.339 769.176 221.195 759.555C215.562 754.097 214.49 753.797 211.848 757.112C209.331 760.128 209.63 761.599 213.991 766.16C220.721 773.363 215.761 777.176 208.733 770.148C203.872 765.287 203.873 765.287 197.641 771.219C193.654 775.033 190.937 776.279 189.865 774.634ZM614.547 773.462C612.777 768.901 619.307 763.642 622.722 767.032C625.937 770.148 623.495 776.777 619.108 776.777C617.264 776.777 615.22 775.307 614.547 773.462ZM332.381 769.873C332.381 766.06 333.552 765.088 337.64 765.586C340.481 766.06 342.799 767.929 342.799 769.873C342.799 771.718 340.481 773.662 337.64 774.061C333.652 774.634 332.381 773.662 332.381 769.873ZM234.255 770.646C231.139 767.431 232.784 762.571 236.772 763.343C239.015 763.742 240.785 765.586 240.785 767.331C240.785 771.045 236.697 773.089 234.255 770.646ZM634.411 764.614C630.897 760.527 634.586 754.869 639.67 756.713C643.758 758.383 643.658 765.387 639.471 766.858C638.1 767.331 635.757 766.359 634.411 764.614ZM314.585 761.499C312.616 756.34 318.773 752.925 322.86 756.913C324.605 758.658 325.278 761.3 324.405 762.67C322.063 766.459 316.23 765.786 314.585 761.499ZM765.363 756.439C756.589 747.367 754.446 742.008 759.804 742.008C764.291 742.008 780.74 759.729 778.971 762.67C776.454 766.658 774.51 765.786 765.363 756.439ZM448.353 752.352C429.859 746.694 408.923 745.323 397.632 749.037C395.863 749.61 394.018 748.837 393.445 747.367C392.174 743.977 406.68 739.69 419.541 739.69C424.775 739.69 437.735 742.407 448.353 745.722C472.504 753.324 495.659 752.626 523.699 743.578C535.288 739.79 542.99 738.32 544.336 739.69C549.221 744.551 511.635 755.642 485.44 757.212C471.333 758.084 464.304 757.212 448.353 752.352ZM650.961 752.352C649.191 747.965 653.877 744.152 658.737 746.021C663.124 747.666 661.479 754.47 656.494 755.467C654.251 755.941 651.734 754.47 650.961 752.352ZM297.637 748.937C297.637 745.822 299.182 744.351 302.298 744.351C305.313 744.351 306.884 745.822 306.884 748.937C306.884 752.053 305.313 753.598 302.298 753.598C299.182 753.598 297.637 752.053 297.637 748.937ZM774.784 745.423C769.923 740.937 766.035 736.849 766.035 736.276C766.035 735.702 768.478 732.662 771.494 729.372C777.526 722.941 780.541 723.814 778.697 731.416C777.825 734.705 779.27 738.12 783.358 741.934C789.589 747.766 791.159 753.598 786.374 753.498C784.729 753.498 779.569 749.81 774.784 745.423ZM164.443 746.121C159.682 739.391 159.881 734.332 164.841 728.574C171.645 720.698 178.475 720.025 185.08 726.63C192.108 733.659 192.183 735.204 186.45 742.307C182.064 747.766 182.064 747.766 177.004 741.435C174.288 737.921 171.072 735.005 169.901 735.005C165.913 735.005 167.658 741.933 172.344 744.85C178.275 748.538 178.275 751.28 172.518 751.28C170 751.28 166.387 748.937 164.343 746.121H164.443ZM184.008 734.132C184.008 730.817 177.303 727.029 175.259 729.172C173.689 730.618 179.248 737.347 181.964 737.347C183.036 737.347 184.008 735.877 184.008 734.132ZM668.956 741.136C666.912 738.718 667.112 737.248 669.928 735.005C674.315 731.316 679.274 735.204 677.131 740.662C675.486 745.124 672.371 745.323 668.956 741.136ZM280.315 739.79C278.072 736.176 280.987 732.761 286.346 732.761C289.561 732.761 290.733 734.033 290.234 736.774C289.362 741.335 282.533 743.479 280.315 739.79ZM747.542 738.718C747.542 736.575 749.486 735.005 752.302 735.005C757.96 735.005 757.162 740.463 751.33 741.634C749.087 742.008 747.542 740.862 747.542 738.718ZM793.303 731.316C780.741 721.371 777.027 716.511 782.286 716.511C783.557 716.511 784.629 715.04 784.629 713.395C784.629 709.308 792.131 702.578 796.692 702.578C798.636 702.578 802.923 704.722 806.338 707.364C813.242 712.822 814.712 724.312 808.78 727.503C805.565 729.372 805.565 729.845 808.78 732.587C813.142 736.176 813.64 742.008 809.553 741.934C807.983 741.834 800.68 737.048 793.303 731.316ZM804.693 722.244C806.338 717.782 801.477 711.85 796.019 711.85C789.215 711.85 788.043 716.91 793.776 721.471C800.206 726.63 802.923 726.83 804.693 722.244ZM459.943 736.076C451.668 734.332 442.496 731.789 439.58 730.443C427.616 725.085 410.668 725.459 393.819 731.316C374.652 738.02 367.624 735.403 384.771 727.901C403.465 719.726 424.775 719.427 449.126 727.029C472.878 734.431 492.07 734.132 517.866 726.057C534.715 720.698 542.691 723.141 528.185 729.172C520.209 732.487 483.895 739.965 477.664 739.491C476.193 739.391 468.218 737.821 459.943 736.076ZM150.136 727.702C149.164 726.057 151.781 722.343 156.94 718.156C169.801 707.937 162.598 702.304 148.965 712.025C142.933 716.312 142.061 716.411 140.789 713.096C140.017 711.053 139.718 709.009 140.191 708.735C140.69 708.336 144.478 705.694 148.765 702.778C154.797 698.491 155.769 696.846 153.65 694.204C151.308 691.487 149.837 691.687 143.406 695.575C134.758 700.933 130.671 701.507 130.671 697.32C130.671 695.774 135.431 691.388 141.263 687.699C151.98 680.969 151.98 680.969 157.439 687.699C160.455 691.388 162.997 696.073 163.072 697.918C163.072 699.862 165.215 702.778 167.757 704.348C174.562 708.635 173.415 715.539 164.841 721.87C153.725 730.045 151.98 730.718 150.136 727.702ZM265.111 726.929C262.968 724.312 262.768 722.543 264.638 720.698C268.127 717.184 274.956 720.299 274.084 724.985C273.012 730.344 268.725 731.316 265.111 726.929ZM578.232 717.882C578.232 705.121 578.232 705.121 571.029 707.663C566.344 709.208 563.028 712.523 561.583 716.81C558.841 724.312 555.053 723.515 555.053 715.439C555.053 712.523 553.507 708.809 551.538 707.264C546.005 702.678 547.451 699.563 554.28 701.332C557.595 702.105 563.527 701.606 567.316 699.961C574.319 697.045 574.319 697.045 565.471 689.743C555.053 680.969 555.925 676.109 567.216 680.197C571.304 681.667 575.316 683.412 575.889 683.985C581.622 689.743 587.853 690.914 595.954 687.499C606.746 683.013 608.416 683.113 608.416 688.272C608.416 691.089 605.101 694.129 599.069 696.746C594.009 699.089 589.722 702.578 589.623 704.622C589.224 713.595 584.363 726.83 580.65 729.172C579.104 730.144 578.232 726.356 578.232 717.882ZM684.932 725.758C684.932 722.642 686.478 721.097 689.519 721.097C692.634 721.097 694.179 722.642 694.179 725.758C694.179 728.873 692.634 730.443 689.519 730.443C686.403 730.443 684.932 728.873 684.932 725.758ZM360.246 722.742C360.246 720.997 364.135 717.782 368.895 715.439C397.433 701.706 420.313 699.288 445.711 707.264C468.018 714.268 481.925 715.04 501.69 710.679C524.396 705.694 524.471 705.694 525.368 708.336C526.44 712.025 497.603 718.455 479.508 718.654C468.317 718.754 456.927 717.009 443.667 712.997C433.05 709.781 421.086 707.164 417.098 707.164C407.552 707.164 387.389 713.196 373.68 720.2C360.919 726.63 360.246 726.83 360.246 722.742ZM249.832 713.096C248.187 708.909 250.506 704.921 254.593 704.921C258.98 704.921 261.323 712.224 257.709 714.567C253.347 717.284 251.303 716.91 249.832 713.096ZM700.41 715.04C696.821 711.352 698.94 706.865 704.024 707.663C706.94 708.037 709.283 709.881 709.283 711.85C709.283 715.539 703.127 717.682 700.41 715.04ZM345.242 709.707C343.771 707.264 370.565 693.73 388.086 687.898C406.979 681.667 418.843 680.969 434.719 685.256C468.118 694.304 475.794 695.276 491.97 692.858C513.38 689.543 514.352 689.543 515.124 692.16C515.623 693.431 510.862 695.674 504.706 697.145C486.013 701.606 467.146 700.734 446.01 694.403C435.392 691.288 421.659 688.671 415.628 688.671C404.237 688.671 378.939 696.647 359.748 706.292C347.286 712.623 347.086 712.623 345.242 709.607V709.707ZM806.911 702.404C795.919 693.73 800.879 678.626 814.812 678.626C828.545 678.626 835.648 693.232 826.401 702.578C820.444 708.535 814.612 708.435 806.911 702.404ZM821.816 689.942C817.529 684.783 807.808 685.256 807.808 690.615C807.808 696.646 817.155 700.734 821.516 696.647C824.158 694.129 824.258 692.858 821.816 689.942ZM715.315 700.435C711.327 698.017 713.545 691.014 718.331 691.014C723.39 691.014 725.334 695.575 721.745 699.288C719.677 701.232 717.358 701.606 715.315 700.435ZM235.426 696.347C236.398 691.288 245.446 690.615 245.446 695.575C245.446 697.519 243.003 699.463 239.987 699.862C235.8 700.435 234.728 699.662 235.426 696.347ZM122.57 680.77C115.267 673.467 115.193 669.105 122.396 661.902C129.3 654.973 136.029 654.6 142.26 660.831C150.809 669.479 146.721 681.069 133.586 685.057C129.798 686.228 126.857 685.057 122.57 680.77ZM136.204 675.611C140.989 673.866 140.989 665.79 136.403 663.946C132.315 662.376 123.742 669.205 123.742 673.966C123.742 677.181 129.973 678.053 136.303 675.611H136.204ZM727.378 682.739C725.434 677.654 730.394 672.894 733.908 676.408C736.824 679.424 735.08 686.328 731.266 686.328C729.921 686.328 728.151 684.683 727.378 682.739ZM222.192 681.667C221.294 680.197 221.593 677.854 222.964 676.583C226.08 673.467 233.383 676.109 232.111 679.997C230.84 683.885 224.236 684.957 222.192 681.667ZM825.23 675.81C820.071 672.695 814.911 669.679 813.64 669.105C812.27 668.507 812.967 666.763 815.011 665.018C819.772 661.105 822.887 647.87 819.572 645.826C815.011 643.11 816.656 637.252 821.516 638.723C823.959 639.496 826.675 639.022 827.473 637.751C829.517 634.436 833.904 637.352 832.533 641.066C830.963 645.153 841.58 649.615 848.484 647.87C854.915 646.225 855.712 648.543 850.927 655.073C847.811 659.36 847.512 659.36 838.166 655.173C827.747 650.412 825.803 651.085 824.632 659.659C824.058 664.046 825.803 666.563 832.035 670.651C839.736 675.611 841.481 679.424 836.62 680.87C835.449 681.268 830.29 679.025 825.23 675.81ZM210.203 664.046C208.259 658.961 214.39 655.572 218.478 659.56C220.223 661.304 220.921 663.846 220.048 665.292C217.705 669.006 211.848 668.308 210.203 664.046ZM738.195 663.149C738.195 659.36 739.442 658.388 743.454 658.961C746.271 659.36 748.713 661.205 748.713 663.149C748.713 665.118 746.37 666.962 743.454 667.336C739.442 667.934 738.195 666.962 738.195 663.149ZM109.734 656.643C109.734 654.301 111.28 650.412 113.149 647.97C118.682 640.667 117.51 637.552 109.435 638.225C96.3001 639.296 100.088 634.037 118.009 626.66L135.63 619.257L138.945 627.233C140.789 631.62 142.26 637.253 142.26 639.795C142.26 645.826 132.315 652.456 126.284 650.512C122.869 649.44 120.526 650.587 117.71 654.874C113.224 661.803 109.834 662.575 109.834 656.643H109.734ZM135.232 637.552C135.232 632.093 129.1 628.978 125.511 632.592C121.897 636.181 125.112 642.312 130.57 642.312C133.786 642.312 135.331 640.767 135.331 637.552H135.232ZM200.183 648.069C196.769 643.982 199.112 639.994 204.944 639.994C207.86 639.994 209.53 641.539 209.53 644.356C209.53 649.914 203.673 652.257 200.183 648.069ZM751.43 650.113C748.015 646.599 749.785 639.595 753.873 640.368C756.091 640.866 757.96 643.209 757.96 645.627C757.96 650.213 754.147 652.83 751.43 650.113ZM190.837 629.277C188.693 626.735 188.594 625.09 190.438 623.245C193.654 620.13 200.284 622.473 200.284 626.834C200.284 631.719 194.052 633.265 190.737 629.277H190.837ZM760.004 629.576C758.434 625.389 760.776 621.401 764.864 621.401C768.378 621.401 770.522 625.862 769.051 630.049C767.68 634.037 761.649 633.763 760.004 629.576ZM771.294 612.727C766.409 610.982 767.88 602.808 773.039 602.808C776.055 602.808 777.725 604.353 777.725 607.369C777.725 612.428 775.581 614.272 771.294 612.727ZM180.419 609.612C178.375 606.297 185.08 599.493 188.395 601.536C189.865 602.409 191.037 605.125 191.037 607.568C191.037 612.528 183.135 613.998 180.419 609.612ZM174.562 589.847C172.518 587.305 172.418 585.66 174.188 583.915C177.403 580.7 184.008 583.043 184.008 587.404C184.008 592.289 177.777 593.835 174.462 589.847H174.562ZM776.155 589.947C775.382 587.903 775.856 585.161 777.226 583.716C780.641 580.401 787.171 585.66 785.402 590.246C783.757 594.607 777.899 594.433 776.155 589.847V589.947ZM168.53 569.01C166.885 564.624 170.972 559.963 174.562 562.106C178.375 564.424 177.577 572.699 173.49 572.699C171.546 572.699 169.303 571.054 168.53 569.01ZM248.96 570.381C248.96 569.01 257.035 568.038 268.725 568.038H288.49L287.892 514.776C287.518 475.146 287.991 460.74 290.135 458.597C293.649 455.108 293.923 430.383 290.633 424.052C288.689 420.438 289.263 417.722 293.051 411.391C297.139 404.861 297.936 400.3 297.537 385.395C297.338 375.55 297.836 363.786 298.808 359.299C299.88 353.841 299.282 349.081 296.864 344.495C292.951 336.993 293.649 334.076 302.398 321.041C315.358 301.949 339.784 282.683 371.238 266.906C385.345 259.803 385.843 259.703 393.719 263.392C398.704 265.834 402.293 269.523 403.166 273.137C403.963 276.352 406.081 280.141 407.851 281.512C409.596 282.882 415.353 294.946 420.687 308.28C427.416 325.428 432.376 334.375 437.336 338.563C443.866 344.021 444.365 345.566 444.839 361.742C445.138 371.861 447.481 386.068 450.596 395.913C455.855 412.836 455.855 412.836 464.603 412.263C469.763 412.064 475.894 413.435 479.408 415.678C483.296 418.295 490.126 419.666 499.373 419.666C512.707 419.666 513.38 419.367 513.38 413.808C513.38 408.176 513.779 407.976 530.228 407.976C584.837 407.976 658.936 426.869 669.828 443.518C672.371 447.506 673.243 461.538 673.841 508.345L674.514 568.038H692.534C702.953 568.038 710.43 569.01 710.43 570.381C710.43 571.927 631.969 572.699 479.708 572.699C327.421 572.699 248.96 571.827 248.96 570.381ZM331.309 514.576C350.6 511.959 394.417 509.043 439.779 507.373C515.822 504.557 515.822 504.557 515.124 498.625C514.451 492.693 514.452 492.693 476.193 493.266C386.317 494.637 294.92 507.373 291.107 519.162C290.334 521.505 291.206 521.879 294.422 520.733C296.864 519.736 313.414 517.019 331.309 514.576ZM667.61 450.422C663.697 434.57 608.116 418.494 540.547 413.734C520.583 412.263 517.966 412.562 517.966 415.877C517.966 417.996 519.81 419.666 522.353 419.666C527.587 419.666 528.658 421.909 530.802 438.932C532.372 451.493 532.746 452.092 538.977 452.092C547.949 452.092 550.392 457.625 550.392 477.39C550.392 493.366 550.567 493.84 556.224 493.84C561.857 493.84 562.057 493.366 562.057 476.916C562.057 458.697 564.1 454.41 572.973 454.41C580.077 454.41 582.893 462.111 582.893 481.203C582.893 494.537 583.392 496.182 587.479 496.182C591.467 496.182 592.04 494.238 592.638 478.187C593.311 460.541 593.411 460.167 599.642 459.494C606.945 458.597 608.017 461.438 608.989 483.347C609.487 494.438 610.36 497.454 613.675 498.027C617.164 498.725 617.662 496.781 617.662 482.649C617.662 464.828 621.351 458.123 628.08 463.657C630.598 465.8 631.57 471.258 631.57 483.621C631.57 497.055 632.367 500.768 634.985 500.768C637.527 500.768 638.499 496.955 638.972 485.091C639.67 471.258 640.244 469.514 644.331 469.514C648.518 469.514 649.017 471.258 649.69 487.434C650.462 509.517 654.251 511.187 655.248 489.752C655.721 477.689 656.693 474.075 659.435 474.075C662.052 474.075 663.024 477.589 663.523 489.179C663.897 497.453 664.869 505.828 665.841 507.772C667.785 511.86 669.455 457.924 667.61 450.422ZM640.817 447.406C640.817 438.732 641.215 438.159 645.502 440.502C648.518 442.147 650.163 445.362 650.163 449.849C650.163 455.207 649.091 456.753 645.502 456.753C641.614 456.753 640.817 455.207 640.817 447.406ZM595.056 448.179C593.311 447.506 592.14 442.845 592.14 436.788C592.14 428.239 592.938 426.57 596.626 426.57C606.172 426.57 608.416 429.112 608.416 439.63C608.416 448.677 607.817 449.749 603.156 449.549C600.315 449.45 596.626 448.877 595.056 448.179ZM602.857 439.131C602.085 437.087 601.387 434.47 601.387 433.299C601.387 432.128 600.415 431.255 599.169 431.255C597.898 431.255 596.826 433.773 596.826 436.988C596.826 440.801 598.097 442.845 600.515 442.845C602.957 442.845 603.829 441.574 602.857 439.131ZM300.653 475.844C302.198 476.318 304.067 483.247 304.74 491.696L306.111 506.601L306.585 489.852C307.183 463.956 316.131 463.856 316.23 489.752C316.23 497.055 317.302 503.111 318.573 503.111C319.919 503.111 320.891 495.41 320.891 484.493C320.891 467.57 321.19 465.999 325.477 465.999C329.664 465.999 330.163 467.57 330.163 482.275C330.163 495.111 330.836 498.426 333.652 498.426C336.294 498.426 337.067 495.41 337.067 484.692C337.067 468.641 340.083 458.996 345.242 458.996C350.202 458.996 353.317 468.542 353.317 483.521C353.317 493.167 354.115 496.083 356.832 496.083C358.975 496.083 360.421 493.765 360.62 489.752C360.82 486.263 361.318 478.262 361.492 472.131C362.29 458.422 367.923 451.394 375.924 454.509C380.684 456.379 381.157 458.123 381.157 473.601C381.157 492.494 381.756 493.84 388.286 492.095C392.174 491.123 392.747 488.78 392.747 473.801C392.747 456.08 396.934 447.406 405.508 447.406C413.883 447.406 418.269 456.08 418.269 472.928C418.269 488.68 418.369 489.179 424.002 489.179C429.66 489.179 429.859 488.78 429.859 472.33C429.859 451.593 433.448 445.063 444.938 445.063C456.229 445.063 460.042 451.693 460.042 471.159C460.042 486.163 460.317 486.836 465.476 486.836C470.835 486.836 471.034 486.263 472.105 461.912C472.778 448.179 472.878 436.614 472.405 436.016C470.436 433.773 398.704 441.175 372.011 446.434C338.139 453.163 319.745 458.896 305.513 467.171C295.294 473.103 295.294 473.103 295.793 491.023L296.266 508.844L297.039 491.895C297.637 480.032 298.709 475.246 300.653 475.844ZM531.001 485.091C530.328 481.577 529.157 471.956 528.384 463.657C527.586 455.382 525.941 443.119 524.571 436.414C522.253 424.227 522.253 424.227 503.834 424.227C482.424 424.227 480.38 426.196 485.739 441.374C488.755 450.222 489.627 450.92 498.101 451.294C509.89 451.693 513.28 456.453 513.28 472.131C513.28 483.047 513.978 484.593 519.711 487.609C529.83 492.967 532.372 492.394 531.001 485.091ZM494.786 484.792C494.786 481.776 480.679 445.163 479.508 445.163C479.009 445.163 478.536 454.509 478.536 465.999C478.536 486.936 478.536 486.936 486.611 486.936C491.098 486.936 494.786 485.964 494.786 484.792ZM342.899 447.605C371.038 440.502 413.384 433.872 442.894 432.128C469.289 430.557 469.289 430.557 469.289 423.952C469.289 415.777 468.317 415.678 424.5 421.909C369.692 429.685 325.278 442.047 306.211 454.609C289.935 465.326 291.605 468.542 308.828 459.968C317.402 455.78 332.68 450.222 342.899 447.605ZM312.716 417.223C313.987 417.223 315.358 422.482 315.732 428.912C316.803 445.761 320.816 443.219 320.816 425.697C320.816 416.251 321.963 410.02 323.932 408.375C329.091 404.088 332.481 410.12 332.481 423.554C332.481 441.673 336.294 438.558 337.64 419.466C339.011 400.374 343.198 393.57 349.529 399.901C352.046 402.518 353.317 407.777 353.317 416.351C353.317 425.996 354.115 428.912 356.832 428.912C359.449 428.912 360.246 425.797 360.246 414.88C360.246 397.259 365.007 387.339 373.481 387.239C379.911 387.14 383.401 394.542 383.401 408.175C383.401 418.893 384.198 422.008 386.915 422.008C389.632 422.008 390.429 418.993 390.429 409.347C390.429 388.411 395.09 380.335 407.079 380.236C416.226 380.236 420.587 387.912 420.587 403.889C420.587 411.291 420.986 417.323 421.485 417.323C428.688 417.323 429.859 413.808 429.859 392.997V371.462L402.966 377.12C353.217 387.638 319.545 401.945 304.341 419.167C300.653 423.354 297.737 429.112 297.936 431.928C298.111 436.988 298.11 436.988 299.581 431.629C302.198 422.382 305.712 425.024 306.784 436.988C307.856 448.677 307.856 448.677 309.127 432.9C309.8 424.326 311.47 417.223 312.716 417.223ZM477.564 420.239C474.922 417.522 473.476 421.709 475.321 426.968C477.165 432.427 477.165 432.427 478.038 426.968C478.536 424.052 478.337 420.937 477.564 420.239ZM378.839 410.219C378.839 401.446 377.967 396.686 376.497 397.658C375.226 398.43 374.154 404.761 374.154 411.69C374.154 418.594 375.226 424.227 376.497 424.227C377.768 424.227 378.839 417.996 378.839 410.219ZM415.927 404.861C415.827 390.853 413.385 385.295 409.397 390.155C406.68 393.371 405.508 402.244 406.181 413.036C406.58 417.996 407.552 418.993 411.241 417.996C415.154 416.924 415.927 414.88 415.927 404.861ZM447.481 411.59C448.253 409.721 446.409 401.172 443.567 392.498C438.906 378.765 438.034 377.494 436.564 382.579C435.691 385.694 434.819 394.343 434.719 401.646C434.52 414.506 434.719 414.98 440.352 414.98C443.567 414.98 446.783 413.534 447.481 411.59ZM328.991 394.742C353.716 382.379 424.202 364.359 435.991 367.375C443.194 369.145 442.895 367.176 435.392 363.287C418.943 354.614 335.422 381.407 312.043 402.817C303.469 410.693 303.469 410.693 311.544 404.96C316.031 401.845 323.832 397.259 328.991 394.742ZM355.959 372.16C362.464 369.718 367.25 366.403 367.923 363.786C369.294 358.726 373.78 357.929 375.525 362.415C376.497 364.957 379.812 364.758 393.445 361.543C402.592 359.3 414.082 356.857 418.843 355.985C426.544 354.614 427.516 353.742 427.516 347.61C427.516 343.921 427.217 340.806 426.918 340.806C426.644 340.806 416.998 343.323 405.508 346.439C377.469 354.04 354.688 363.586 333.951 376.422C310.772 390.953 307.656 395.614 328.293 384.896C337.64 380.136 350.102 374.378 356.059 372.16H355.959ZM319.047 380.136C336.294 366.901 369.094 351.324 395.389 344.021L417.671 337.69L411.34 322.487C407.951 314.037 403.265 301.75 401.122 295.145C397.134 283.157 397.134 283.157 388.386 286.172C352.146 298.933 304.641 335.846 304.641 351.025C304.641 357.355 310.099 357.355 312.542 350.925C313.215 348.981 314.859 348.109 316.23 348.881C319.745 351.025 318.947 354.714 315.059 354.714C313.115 354.714 311.544 356.383 311.544 358.427C311.544 360.845 310.298 361.642 307.955 360.77C305.812 359.973 304.94 360.371 305.812 361.742C306.684 363.088 306.31 365.431 304.94 367.001C302.896 369.518 303.868 389.482 306.011 389.482C306.485 389.482 312.342 385.295 319.047 380.036V380.136ZM339.41 346.065C339.31 342.551 338.712 337.391 338.039 334.774C336.967 330.761 337.839 329.615 342.7 328.643C348.357 327.571 348.656 328.045 348.656 337.591C348.656 345.193 347.585 348.208 344.071 350.053C339.883 352.296 339.41 351.797 339.41 346.065ZM320.119 346.264C318.274 344.395 320.418 340.806 323.334 340.806C324.505 340.806 325.477 342.351 325.477 344.221C325.477 347.81 322.76 348.881 320.119 346.264ZM327.82 338.463C327.82 337.192 329.365 336.12 331.309 336.12C333.178 336.12 334.724 337.192 334.724 338.463C334.724 339.734 333.178 340.806 331.309 340.806C329.365 340.806 327.82 339.734 327.82 338.463ZM351.473 324.356C351.872 322.985 353.218 321.913 354.489 321.913C355.66 321.913 357.031 322.985 357.505 324.356C357.903 325.702 356.533 326.873 354.489 326.873C352.345 326.873 350.999 325.702 351.473 324.356ZM361.891 320.742C359.748 318.599 362.29 315.284 366.178 315.284C368.022 315.284 369.593 316.854 369.593 318.698C369.593 322.213 364.608 323.459 361.891 320.742ZM375.226 315.109C373.082 311.695 375.624 309.75 380.011 311.495C382.055 312.268 383.127 313.938 382.329 315.284C380.385 318.299 377.17 318.225 375.226 315.109ZM389.058 309.75C387.114 304.591 389.632 302.049 393.246 305.563C395.289 307.707 395.289 308.953 393.246 310.997C391.202 313.065 390.23 312.766 389.058 309.75ZM436.365 344.993C433.349 339.734 433.249 339.734 432.576 347.51C432.177 352.196 433.049 356.084 434.919 357.256C439.206 359.972 440.178 351.698 436.365 344.993ZM311.37 327.272C310.199 326.774 309.8 325.527 310.498 324.456C311.171 323.384 313.513 323.085 315.732 323.957C319.047 325.228 319.246 324.83 316.803 321.913C314.485 318.997 315.158 317.327 320.417 312.168C325.003 307.881 327.621 306.735 329.365 308.479C331.135 310.224 335.895 308.38 345.541 302.149C353.043 297.288 363.636 291.257 369.094 288.814C378.341 284.627 380.584 280.739 374.926 278.795C373.58 278.396 371.911 280.24 371.138 282.957C370.266 286.571 368.696 287.543 365.406 286.471C362.465 285.499 360.346 286.172 359.448 288.515C358.103 292.229 348.656 293.575 348.656 290.185C348.656 289.188 356.532 284.228 366.078 279.169C375.624 274.209 383.401 269.249 383.401 268.177C383.501 265.062 347.485 285.2 333.652 296.017C317.402 308.778 299.98 330.761 300.08 338.463C300.08 344.121 300.254 344.121 306.884 336.12C310.572 331.758 312.616 327.646 311.47 327.272H311.37ZM330.636 303.32C331.808 299.706 337.067 299.033 337.166 302.547C337.266 303.794 335.596 305.164 333.453 305.663C331.035 306.136 329.963 305.264 330.636 303.32ZM339.883 296.316C340.481 294.646 342.799 292.902 345.043 292.403C347.685 291.93 348.856 292.802 348.158 294.746C347.585 296.491 345.242 298.26 342.999 298.634C340.382 299.133 339.21 298.36 339.883 296.316ZM417.397 315.109C413.11 304.392 408.923 293.575 408.125 291.157C407.253 288.714 406.082 287.244 405.508 287.842C404.437 288.914 411.939 310.623 419.341 327.646C426.644 344.794 425.074 334.475 417.397 315.109ZM325.477 315.109C325.477 313.938 324.406 312.966 323.134 312.966C321.888 312.966 320.816 314.511 320.816 316.555C320.816 318.499 321.888 319.471 323.134 318.698C324.406 317.926 325.477 316.256 325.477 315.109ZM388.086 278.097C388.086 276.826 387.015 275.854 385.744 275.854C384.472 275.854 383.5 276.826 383.5 278.097C383.5 279.468 384.472 280.44 385.744 280.44C387.015 280.44 388.086 279.468 388.086 278.097ZM396.561 272.464C395.763 270.495 394.118 268.85 392.747 268.85C391.302 268.85 391.401 270.495 393.246 273.436C396.461 278.496 398.704 277.897 396.561 272.464ZM297.637 550.617C297.637 540.772 298.609 533.269 299.98 533.269C302.796 533.269 304.341 540.099 305.313 556.449C305.912 566.867 306.111 565.995 306.485 551.389C307.183 522.851 316.131 523.748 316.131 552.361C316.23 574.768 320.517 571.827 321.29 548.947C321.888 533.768 322.76 529.78 325.477 529.78C328.194 529.78 329.091 533.768 329.664 548.947C330.163 563.851 331.035 568.038 333.652 568.038C336.394 568.038 337.067 564.424 337.067 551.09C337.067 530.553 341.055 522.477 347.884 529.182C350.999 532.198 352.246 537.955 352.944 550.716C353.617 563.552 354.688 568.038 357.031 568.038C359.448 568.038 360.246 564.35 360.246 553.134C360.246 529.381 367.051 518.963 376.796 527.736C380.285 530.951 381.157 535.039 381.157 549.844C381.157 567.739 381.257 568.038 386.915 568.038C392.548 568.038 392.747 567.64 392.747 550.517C392.747 529.381 395.09 523.923 404.237 523.923C414.556 523.923 418.269 531.151 418.269 551.19C418.269 567.64 418.369 568.038 424.002 568.038C429.76 568.038 429.859 567.64 429.859 549.919C429.859 529.78 434.121 521.705 444.839 521.705C454.858 521.705 460.042 531.525 460.042 550.99C460.042 568.038 460.042 568.038 466.946 568.038C473.95 568.038 473.95 568.038 473.95 550.018C473.95 528.409 477.365 521.705 488.356 521.705C501.117 521.705 504.033 526.764 504.033 548.672C504.033 568.038 504.033 568.038 510.464 568.038C516.794 568.038 516.794 568.038 516.595 544.286C516.396 531.226 516.122 518.489 516.022 516.047C515.623 511.86 513.38 511.76 446.683 513.131C384.771 514.402 326.748 518.589 302.796 523.549C294.222 525.294 294.222 525.294 293.549 546.728C293.051 560.337 293.749 568.038 295.294 568.038C296.765 568.038 297.637 561.134 297.637 550.617ZM541.12 566.867C541.12 565.122 524.67 523.051 523.499 521.879C523.025 521.306 522.627 531.525 522.627 544.485C522.627 568.038 522.627 568.038 531.874 568.038C536.933 568.038 541.12 567.465 541.12 566.867ZM668.682 519.362C668.682 515.848 665.94 514.103 656.494 511.461C633.24 504.956 576.762 498.525 542.89 498.525C527.213 498.425 527.213 498.426 527.213 506.227C527.213 514.003 527.213 514.003 573.073 515.648C598.172 516.545 628.28 518.689 639.67 520.334C668.956 524.621 668.682 524.621 668.682 519.362ZM562.057 552.76C562.057 534.815 564.724 528.608 572.475 528.608C580.177 528.608 582.893 534.84 582.893 552.86C582.893 566.468 583.391 568.038 587.579 568.038C591.666 568.038 592.14 566.468 592.14 552.262C592.14 536.011 594.483 530.951 601.786 530.951C607.817 530.951 608.889 534.341 608.689 551.962C608.415 566.568 608.789 568.038 613.076 568.038C617.264 568.038 617.662 566.468 617.662 552.062C617.662 534.441 621.451 527.736 628.08 533.269C630.598 535.313 631.57 540.771 631.57 552.062C631.57 564.723 632.268 568.038 635.084 568.038C637.801 568.038 638.599 564.823 638.599 553.533C638.599 537.457 640.817 531.824 646.375 533.967C649.291 535.139 650.163 538.927 650.163 551.688C650.163 572.624 654.351 573.098 655.248 552.361C655.721 540.298 656.693 536.684 659.435 536.684C662.052 536.684 663.024 540.298 663.597 552.361C664.594 574.768 668.682 571.727 668.682 548.672V529.281L648.419 526.565C610.459 521.405 529.556 517.119 529.556 520.334C529.556 524.72 532.845 527.936 536.459 526.964C545.133 524.72 550.392 534.067 550.392 551.788C550.392 567.54 550.567 568.038 556.224 568.038C561.757 568.038 562.057 567.54 562.057 552.86V552.76ZM726.406 887.091C726.306 886.393 725.833 884.748 725.534 883.477C725.235 882.206 724.861 880.461 724.661 879.589C724.562 878.816 722.318 879.988 719.676 882.306C717.159 884.649 714.343 885.72 713.371 884.748C712.399 883.776 713.745 881.533 716.287 879.689C718.804 877.844 730.194 869.844 741.585 861.968C770.222 841.904 796.518 818.55 820.843 791.183C832.134 778.422 842.253 767.83 843.25 767.73C844.222 767.63 844.995 769.574 844.995 772.092C844.995 774.734 843.923 776.777 842.652 776.777C838.465 776.777 840.209 783.108 845.369 786.523C849.955 789.638 850.154 790.311 847.039 794.797C834.876 812.219 788.617 855.338 761.175 874.829C743.554 887.365 743.828 887.291 742.283 881.134C741.41 877.844 739.84 876.972 736.924 878.019C734.207 879.091 733.41 878.717 734.581 876.872C735.553 875.202 734.681 874.131 732.338 874.131C729.422 874.131 728.749 875.701 729.621 880.088C730.194 883.278 729.821 886.393 728.749 887.091C727.577 887.864 726.605 887.764 726.406 887.091ZM126.583 810.649C20.83 699.288 -22.5878 534.84 11.309 373.232C16.8421 346.538 32.3199 303.121 47.2245 272.364C62.0294 241.583 77.2082 216.759 77.3079 223.09C77.4076 226.305 79.3516 227.177 86.6544 227.177C91.714 227.177 95.9013 227.576 95.9013 228.049C95.9013 228.648 91.6141 236.15 86.2555 244.898C50.8383 303.021 25.7151 384.124 22.6993 450.148C21.1291 485.091 20.2567 490.051 15.8701 488.406C11.9819 486.836 9.16546 490.45 11.4086 494.139C12.5551 495.883 13.5272 495.883 14.7983 493.84C18.6865 487.534 21.1288 494.911 22.5993 518.091C29.3039 622.373 74.7657 725.359 147.694 801.701C159.283 813.765 161.028 816.706 158.61 819.622C157.04 821.566 154.896 822.638 153.825 821.94C152.753 821.367 150.435 822.438 148.491 824.283C146.522 826.227 144.478 827.797 143.905 827.797C143.307 827.797 135.531 820.095 126.583 810.649ZM847.338 761.499C847.338 761.2 853.943 751.081 862.018 738.893C896.014 688.073 919.468 630.05 930.958 568.138C936.716 537.282 940.704 485.291 938.759 466.971C937.488 455.008 937.862 452.565 941.177 451.294C943.819 450.322 944.492 448.378 943.52 445.163C942.448 441.673 943.121 440.502 946.336 440.502C950.05 440.502 950.523 439.131 949.751 432.028C948.879 424.526 948.38 423.952 945.863 427.342C941.576 433.299 935.444 432.227 935.444 425.598C935.444 422.582 936.716 419.466 938.361 418.893C940.604 417.921 940.504 417.223 938.062 415.478C936.417 414.307 935.145 412.936 935.345 412.463C935.544 411.964 934.572 408.475 933.102 404.661C931.631 400.873 930.385 392.797 930.285 386.666C930.086 380.609 929.214 375.55 928.341 375.55C927.369 375.55 925.3 370.117 923.755 363.387C918.097 339.634 904.663 304.492 890.058 275.281C877.895 250.83 876.15 246.169 880.437 248.412C884.998 250.83 885.197 250.755 882.381 247.341C880.636 245.197 879.839 241.882 880.636 239.938C881.409 237.795 880.637 236.424 878.393 236.424C876.449 236.424 875.452 237.496 876.25 238.767C877.022 240.038 876.35 241.11 874.68 241.11C870.218 241.01 854.242 215.886 854.242 208.783C854.142 204.023 853.743 203.524 851.799 206.341C850.055 208.883 849.855 208.285 850.827 203.624C852.298 197.493 847.338 191.062 845.468 196.72C844.596 199.337 829.118 184.333 813.441 165.565C789.489 136.628 727.577 90.693 684.16 69.4577C614.247 35.3865 557.396 22.0521 480.854 22.0521C429.56 22.0521 403.365 25.4418 356.159 38.4023C263.067 63.8996 174.961 123.693 116.539 200.907C100.288 222.516 95.3281 225.632 87.153 219.401C85.3834 218.13 84.4111 218.03 84.8099 219.301C85.1838 220.473 84.5111 221.445 83.24 221.445C77.6071 221.445 80.8222 212.572 91.8137 197.866C162.299 104.027 252.649 42.2904 359.847 14.8491C396.361 5.40285 448.926 -1.99957 450.297 1.98828C450.77 3.4588 452.141 4.63031 453.412 4.63031C454.684 4.63031 454.958 3.55848 454.185 2.28735C452.341 -0.828153 507.921 -0.728482 535.388 2.38702C649.889 15.3226 763.493 74.7167 838.664 160.779C849.182 172.868 850.453 175.385 849.955 183.859C849.382 193.206 849.481 193.305 853.943 189.218C858.429 185.13 858.828 185.404 870.991 202.054C896.014 236.424 911.692 265.062 927.269 304.766C970.986 416.052 971.759 541.37 929.587 654.3C915.081 692.858 888.812 743.279 879.839 749.61C877.521 751.18 875.278 754.47 874.779 756.913C874.106 760.527 871.664 761.3 860.672 761.698C853.27 761.873 847.338 761.773 847.338 761.499ZM842.652 180.843C842.652 179.473 841.58 178.5 840.309 178.5C839.063 178.5 837.991 179.572 837.991 180.843C837.991 182.115 839.063 183.086 840.309 183.086C841.58 183.086 842.652 182.115 842.652 180.843Z" fill="#C83E3D"/>
</svg>
