<svg width="959" height="587" viewBox="0 0 959 587" fill="none" xmlns="http://www.w3.org/2000/svg">
<path fill-rule="evenodd" clip-rule="evenodd" d="M400.838 158.474C400.753 154.296 400.007 148.306 399.09 145.321C396.767 137.327 402.842 137.732 411.497 146.153C417.658 152.143 418.254 152.313 418.254 148.306C418.254 145.982 417.253 143.403 416.165 142.721C413.245 140.909 415.739 137.647 420.002 137.647C422.582 137.647 423.669 139.225 423.669 143.232C423.669 146.302 424.33 152.228 425.076 156.47C426.994 166.788 421.58 166.788 412.925 156.555C406.594 149.052 406.594 149.052 407.596 155.554C408.086 159.135 409.344 162.055 410.346 162.055C411.326 162.055 412.094 162.972 412.094 164.038C412.094 165.21 409.578 166.127 406.509 166.127C401.435 166.127 400.924 165.381 400.838 158.474ZM438.058 151.567C439.06 141.143 439.06 141.143 433.731 142.486C429.233 143.573 428.401 143.147 428.401 139.736C428.401 136.07 429.659 135.644 440.573 135.644C450.315 135.644 452.724 136.24 452.724 138.82C452.724 141.058 451.552 141.655 448.631 140.738C445.05 139.566 444.645 140.312 444.645 148.732C444.645 153.805 445.561 157.963 446.649 157.963C447.8 157.963 448.631 158.879 448.631 159.966C448.631 161.139 446.052 162.055 442.897 162.055C437.141 162.055 437.056 161.97 438.058 151.567ZM457.798 147.815C457.798 133.576 457.798 133.576 467.454 133.576C475.704 133.576 477.111 134.151 477.111 137.562C477.111 140.973 476.109 141.399 471.036 140.397C466.303 139.481 464.96 139.907 464.96 142.486C464.96 144.639 466.708 145.812 470.034 145.812C472.784 145.812 475.128 146.728 475.128 147.815C475.128 148.903 472.784 149.798 470.034 149.798C466.708 149.798 464.96 150.97 464.96 153.145C464.96 155.724 466.303 156.215 471.036 155.213C475.363 154.381 477.111 154.807 477.111 156.726C477.111 159.049 467.71 161.885 459.887 162.055C458.714 162.055 457.798 155.98 457.798 147.815ZM488.686 159.476C479.115 156.214 478.71 139.651 488.196 135.324C495.188 132.147 503.523 134.663 503.523 139.992C503.523 143.488 502.926 143.808 500.602 141.804C495.614 137.647 488.367 139.992 487.684 145.982C486.938 152.143 491.777 156.96 496.851 154.978C500.261 153.72 500.261 153.55 496.851 151.631C491.862 148.818 494.186 146.153 500.517 147.304C504.098 147.986 505.42 149.308 504.589 151.311C504.013 152.889 503.523 155.383 503.523 156.896C503.523 160.392 495.614 161.799 488.686 159.476ZM513.179 159.796C508.255 156.961 508.34 143.488 513.35 138.99C521.408 131.657 533.985 137.562 533.985 148.647C533.985 159.71 523.092 165.637 513.179 159.796ZM525.501 155.554C526.822 154.232 527.91 151.056 527.91 148.476C527.91 142.891 521.493 138.82 518.082 142.23C514.928 145.321 515.098 155.298 518.253 156.641C522.175 158.218 522.836 158.133 525.415 155.554H525.501ZM247.547 140.312C243.39 138.734 237.55 131.231 237.464 127.159C237.464 125.241 239.959 122.917 243.455 121.745C248.549 119.997 249.615 120.167 250.617 123.407C252.216 128.332 257.033 130.079 261.957 127.415C267.031 124.75 266.946 123.748 260.444 102.602C255.712 86.8484 254.539 84.8659 250.297 84.8659C247.718 84.8659 245.543 84.0346 245.543 82.9474C245.543 81.9455 245.053 79.7713 244.456 78.1939C242.879 74.037 269.781 65.1266 272.275 69.0276C274.513 72.6089 274.364 75.5293 271.784 78.1086C270.186 79.6861 271.017 85.0153 274.854 96.9315C280.845 116.01 281.356 124.751 276.858 131.146C270.932 139.566 257.374 143.808 247.547 140.312ZM681.286 133.981C674.55 132.318 668.815 130.826 668.56 130.57C666.897 129.248 672.396 119.336 674.144 120.423C675.296 121.084 676.213 119.506 676.213 116.756C676.213 112.578 674.635 111.342 667.067 109.253C659.734 107.164 657.304 107.164 654.81 109.253C652.828 110.916 652.401 112.578 653.744 114.177C655.812 116.671 654.405 125.496 651.975 125.496C647.733 125.496 629.507 118.909 629.507 117.417C629.507 113.41 632.086 109.253 634.665 109.253C636.158 109.253 644.983 98.6793 654.235 85.7825C671.139 62.2911 671.139 62.2911 678.216 63.5488C682.139 64.2949 686.04 65.5316 686.956 66.4482C687.873 67.2796 689.365 80.6027 690.367 95.9297C691.284 111.342 693.032 124.921 694.289 126.072C696.783 128.651 697.274 134.982 694.95 136.24C694.119 136.645 687.958 135.644 681.286 133.981ZM675.807 84.4398C675.125 77.938 675.125 77.9378 669.476 86.6991C663.145 96.2705 663.06 96.1002 670.137 98.6796C674.55 100.342 675.296 99.9374 675.807 95.7593C676.212 93.1799 676.212 88.1063 675.807 84.4398ZM293.763 123.919C293.336 122 294.168 118.995 295.596 117.247C297.003 115.584 299.667 101.835 301.586 86.8487C303.419 71.7775 305.508 58.8804 306.254 58.0491C306.915 57.303 310.838 56.1305 314.909 55.3844C322.242 54.0414 322.242 54.0414 337.058 77.7033C346.224 92.5187 353.621 102.09 356.627 103.263C365.047 106.503 362.531 112.493 351.724 115.158C346.394 116.501 340.469 117.993 338.635 118.504C334.564 119.741 331.558 112.259 334.649 108.507C339.061 103.263 333.988 100.427 323.479 102.346C315.485 103.838 313.502 105.011 312.905 108.762C312.5 111.662 313.417 113.26 315.25 113.26C316.913 113.26 318.661 115.414 319.151 118.078C319.897 122.406 318.981 123.152 310.07 125.155C296.747 128.246 294.764 128.161 293.763 123.919ZM326.314 89.9395C326.655 89.6837 324.736 85.6122 322.072 80.9437C316.742 71.5429 314.568 73.0352 314.568 86.0173C314.568 92.6896 314.909 92.9452 320.153 91.6875C323.244 90.9414 326.058 90.1953 326.314 89.9395ZM556.304 28.312C556.304 27.3953 557.647 26.6491 559.31 26.6491C560.887 26.6491 561.804 27.3953 561.228 28.312C560.631 29.2286 559.31 29.9747 558.222 29.9747C557.221 29.9747 556.304 29.2286 556.304 28.312ZM456.796 98.1891C456.796 95.4392 458.139 92.4337 459.801 91.5171C461.379 90.6004 467.22 78.0231 472.698 63.4636C482.611 37.1369 482.611 37.1373 491.521 37.1373C500.432 37.1373 500.432 37.137 509.598 64.2097C515.183 80.6026 520.172 92.0287 522.325 93.1798C524.243 94.267 525.842 97.017 525.842 99.1701C525.842 102.687 524.414 103.092 511.666 103.092C497.853 103.092 497.426 103.007 497.426 98.0186C497.426 95.2687 498.343 92.945 499.43 92.945C500.602 92.945 501.519 91.112 501.519 88.9376C501.519 85.3563 500.091 84.8659 490.519 84.8659C478.944 84.8659 474.617 88.3622 480.287 93.0946C481.865 94.4376 483.207 97.1875 483.207 99.3405C483.207 102.687 481.524 103.092 470.034 103.092C457.393 103.092 456.796 102.921 456.796 98.1891ZM494.186 63.2079C492.609 57.9639 491.031 53.3809 490.69 53.0399C490.349 52.7201 488.601 56.9619 486.853 62.5469C483.613 72.6086 483.612 72.6089 490.285 72.6089C497.021 72.6089 497.021 72.6087 494.186 63.2079ZM592.948 113.005C580.115 107.931 572.547 95.8442 572.633 80.368C572.633 67.9614 574.551 63.8688 579.369 65.7021C581.288 66.4482 582.78 66.0432 582.78 64.7003C582.78 63.5491 581.202 62.4617 579.284 62.4617C576.705 62.4617 577.621 60.7137 582.78 55.3844C587.448 50.5454 590.859 48.6267 593.289 49.3942C595.442 50.055 596.934 49.5436 596.934 48.2219C596.934 46.8789 598.362 46.3888 600.025 47.0496C601.688 47.7105 604.608 48.8829 606.442 49.629C608.68 50.5457 609.341 50.226 608.36 48.6272C604.779 42.8929 625.755 48.4775 630.914 54.7234C632.491 56.5354 632.917 60.5431 632.171 65.2968C630.999 72.3741 630.509 72.8644 624.583 72.2889C619.424 71.7773 618.422 70.8609 618.933 67.2797C619.338 63.7837 617.932 62.3765 612.432 60.5433C599.279 56.2159 588.876 66.2991 588.876 83.2675C588.876 96.6759 600.452 104.67 615.096 101.344C624.263 99.2551 625.414 99.8521 625.414 106.588C625.414 114.497 606.186 118.334 592.863 113.005H592.948ZM364.621 108.016C362.617 102.836 363.128 101.089 366.624 101.089C369.523 101.089 369.694 98.6794 368.458 80.2828C366.859 57.708 366.539 56.3862 362.447 56.3862C359.121 56.3862 356.883 46.2183 360.038 45.2164C361.295 44.8966 367.627 43.9801 374.107 43.2979L385.853 42.1464L395.339 62.4617C400.519 73.6958 405.336 82.777 405.933 82.777C406.594 82.777 409.088 73.5254 411.582 62.1208C414.076 50.7161 416.826 40.8037 417.658 40.0576C418.489 39.3115 424.906 38.0537 431.898 37.3929C444.389 36.1352 444.645 36.2204 444.645 41.0594C444.645 43.8093 443.153 46.8791 441.405 47.7958C436.31 50.631 441.469 92.945 446.883 92.945C449.548 92.945 450.72 94.4375 450.72 97.7629C450.72 101.92 449.462 102.751 441.319 103.838C424.649 106.183 422.241 105.672 422.241 100.257C422.241 97.5925 423.733 94.8425 425.481 94.1817C428.082 93.1798 428.402 91.176 427.4 84.3546C423.669 59.7973 423.988 59.797 418.339 83.864C413.33 105.266 412.84 106.183 407.51 106.844C402.181 107.419 401.265 106.183 391.608 86.5287L381.355 65.5316L382.697 80.7733C384.19 97.5925 384.68 99.1057 388.858 99.1057C390.606 99.1057 391.758 101.003 391.758 103.838C391.758 107.846 390.521 108.933 384.19 109.914C371.613 112.003 365.878 111.427 364.621 108.016ZM537.566 105.672C531.086 105.011 529.913 104.179 529.913 99.9371C529.913 96.3558 531.086 95.0131 533.985 95.0131C536.5 95.0131 538.078 93.6062 538.078 91.4318C538.078 89.5133 538.995 79.6859 540.06 69.6242C541.659 54.3825 541.488 51.1425 538.994 49.7142C537.395 48.7976 535.989 45.7278 535.989 42.8074C535.989 37.8831 536.501 37.6489 543.642 38.8C547.82 39.5675 554.236 40.1428 557.882 40.1428C563.552 40.1428 564.468 40.8891 564.468 45.1312C564.468 47.9663 562.806 51.0573 560.631 52.2084C554.982 55.2141 552.147 92.4335 557.306 96.2706C559.629 97.9333 560.311 100.172 559.48 103.007C558.052 107.334 555.814 107.59 537.566 105.672ZM554.3 45.2164C552.893 43.5536 550.314 42.2317 548.481 42.2317C545.731 42.317 545.816 42.8075 549.141 45.3016C554.236 49.2239 557.562 49.1387 554.3 45.2164ZM421.324 584.39C362.958 580.233 302.758 568.316 247.547 550.09C199.903 534.358 182.019 525.022 191.249 520.694C193.253 519.778 193.253 519.287 191.249 518.37C188.499 517.113 187.668 511.443 190.162 511.443C190.993 511.443 201.502 515.536 213.483 520.438C294.082 553.842 376.771 568.999 479.115 569.148C551.145 569.319 596.444 564.33 654.896 549.749C807.696 511.698 910.615 434.339 936.771 337.836C943.017 314.6 942.932 271.711 936.515 248.39C930.525 226.582 916.69 198.678 902.131 179.109C877.979 146.643 827.841 105.842 787.211 85.612C772.139 78.1084 764.06 70.7756 768.068 68.2815C769.219 67.5354 769.645 65.4459 768.984 63.634C767.066 58.7097 759.477 63.1227 760.905 68.3667C761.737 71.7774 758.411 70.9462 735.496 61.9504C718.442 55.2994 709.446 50.716 710.021 49.1385C710.597 47.7955 710.022 46.0477 708.849 45.3016C707.613 44.5555 706.696 45.3868 706.696 47.1348C706.696 51.1424 708.7 51.4624 679.709 43.2979C653.062 35.8156 614.521 27.6511 587.278 23.814C578.133 22.4924 570.544 20.403 570.544 19.1666C570.544 17.7383 569.883 17.6531 568.54 18.9961C567.218 20.3178 560.716 20.403 549.738 19.1666C524.84 16.4167 430.895 16.6513 404.014 19.657C243.966 37.1371 114.571 97.5922 53.5192 183.372C-23.9258 292.111 22.2258 421.762 165.263 497.288C176.519 503.214 185.749 508.117 186.005 508.202C186.175 508.373 185.834 512.274 185.259 516.942L184.086 525.448L169.612 518.2C149.702 508.287 116.98 487.972 109.306 480.81C105.81 477.548 102.314 474.82 101.568 474.82C100.822 474.82 96.7503 471.984 92.4869 468.488C86.4968 463.564 85.3242 461.646 87.4133 460.239C89.3318 458.896 88.9053 458.661 86.0062 459.493C81.7428 460.665 70.2528 451.243 71.0202 447.257C71.7663 443.249 70.6792 441.501 69.187 443.91C67.844 445.914 66.6076 445.573 63.8577 442.418C60.2764 438.495 60.2767 438.346 64.263 436.833C67.759 435.511 67.9293 434.85 65.5205 432.591C63.1756 430.438 62.4298 430.502 61.4279 433.252C59.5946 437.835 50.9399 429.35 38.3628 410.868C1.48423 356.488 -9.34488 294.37 8.2204 237.582C14.381 217.586 22.2254 202.025 24.8048 204.604C27.9597 207.759 32.2021 207.184 32.2021 203.602C32.2021 201.854 30.4538 199.851 28.386 199.019C20.051 195.95 56.6101 148.903 88.4151 121.745C110.223 103.092 162.364 68.6224 168.695 68.6224C169.612 68.6224 170.102 70.6261 169.847 73.1202C169.015 80.9436 175.091 78.5349 177.009 70.2852C178.757 63.1226 179.439 62.6322 205.574 51.8032C259.037 29.4842 329.319 10.4905 340.148 15.5001C347.226 18.655 349.123 18.3995 349.123 14.0721C349.123 10.8319 352.555 9.91532 376.025 6.90961C438.889 -1.08431 501.604 -2.15038 556.304 3.75446C577.451 5.99275 582.865 7.16507 582.204 9.25415C581.948 10.0855 582.631 10.6613 583.697 10.6613C584.869 10.6613 585.529 9.91517 585.21 8.99854C584.464 6.76024 599.449 8.7428 631.51 15.074C868.812 62.2061 1003.39 212.257 944.509 364.312C907.29 460.58 793.201 537.172 637.586 570.32C587.448 581.064 517.762 588.142 517.762 582.471C517.762 581.405 515.929 580.488 513.67 580.488C509.172 580.488 508.17 583.644 512.177 585.221C516.078 586.799 446.223 586.138 421.239 584.39H421.324ZM832.189 481.3C832.594 479.979 831.508 478.891 829.76 478.891C827.926 478.891 826.519 480.384 826.519 482.132C826.519 485.713 830.846 485.137 832.189 481.3ZM924.024 386.375C924.024 384.798 923.107 383.455 921.956 383.455C920.868 383.455 919.952 385.288 919.952 387.633C919.952 389.956 920.868 391.214 921.956 390.532C923.107 389.871 924.024 387.953 924.024 386.375ZM785.889 78.7696C785.889 77.6185 784.311 76.7015 782.307 76.7867C779.302 76.7867 779.217 77.0216 781.881 78.7696C785.718 81.1997 785.889 81.1997 785.889 78.7696ZM337.889 26.0734C338.55 25.0715 338.145 23.5796 336.972 22.8975C335.885 22.2366 334.884 23.0679 334.884 24.8159C334.884 28.3972 336.141 28.9086 337.889 26.0734ZM424.33 562.987C342.728 555.676 265.603 537.513 207.492 511.784C182.168 500.635 186.666 497.799 212.566 508.628C268.438 532.099 320.494 545.422 394.848 555.249C428.231 559.747 524.009 560.408 557.391 556.421C696.037 540.007 807.867 493.387 873.396 424.682C897.548 399.443 913.877 372.732 923.853 342.334C926.369 334.745 929.268 328.585 930.27 328.585C933.019 328.585 932.678 330.503 926.944 348.154C893.796 450.987 759.242 532.44 579.71 558.34C552.318 562.326 450.806 565.332 424.33 562.987ZM465.451 554.673C461.038 553.842 458.8 548.001 462.871 548.001C464.044 548.001 464.96 541.926 464.96 533.762C464.96 525.597 464.044 519.522 462.871 519.522C461.805 519.522 460.888 518.2 460.888 516.537C460.888 514.192 463.383 513.446 471.036 513.446C481.438 513.446 483.442 515.109 478.113 519.522C474.532 522.613 473.7 548.001 477.282 548.001C478.454 548.001 479.2 549.494 478.774 551.327C478.113 554.823 473.21 556.08 465.451 554.673ZM485.702 552.244C485.019 550.581 485.617 548.918 486.938 548.428C489.859 547.426 490.285 521.611 487.279 521.611C486.192 521.611 485.275 519.778 485.275 517.518C485.275 513.873 486.618 513.446 498.428 513.446C517.336 513.446 524.755 521.696 516.59 533.442C513.499 537.684 513.67 538.43 518.594 544.932C525.159 553.501 525.16 554.077 518.253 554.077C513.926 554.077 511.666 552.329 508.085 545.933C502.756 536.682 499.515 535.51 499.515 542.928C499.515 545.678 500.432 548.001 501.519 548.001C502.691 548.001 503.523 549.259 503.523 550.837C503.523 554.908 487.194 556.251 485.702 552.244ZM509.257 526.194C509.854 522.442 508.937 521.611 504.674 521.611C500.432 521.611 499.43 522.527 499.43 526.77C499.43 531.012 500.347 531.928 504.013 531.353C507.019 530.926 508.852 529.093 509.257 526.194ZM438.57 551.177C438.57 549.493 439.486 547.682 440.573 546.914C441.724 546.254 442.151 544.846 441.469 543.759C439.892 541.265 428.913 541.35 427.314 543.93C426.654 545.017 427.08 545.933 428.231 545.933C429.403 545.933 430.405 547.341 430.405 549.003C430.405 551.178 428.146 552.094 422.241 552.094C413.842 552.094 411.497 548.662 416.826 544.165C418.34 542.928 422.07 535.51 425.161 527.686C431.492 511.528 432.324 510.697 438.89 513.191C442.727 514.704 444.474 518.029 447.48 529.605C449.548 537.684 452.554 545.507 454.216 547.085C458.459 551.412 455.559 554.077 446.563 554.077C440.893 554.077 438.57 553.16 438.57 551.177ZM437.482 526.023C436.31 523.103 435.82 523.359 434.242 527.516C432.814 531.012 433.07 532.93 434.903 534.103C437.973 536.021 439.572 531.182 437.482 526.023ZM531.406 539.006C532.408 526.109 532.002 522.933 528.997 519.607C523.582 513.702 526.908 511.443 541.062 511.443C557.476 511.443 561.974 515.194 560.546 527.686C559.971 532.184 552.488 537.854 546.988 537.854C543.492 537.854 542.149 538.92 542.149 541.926C542.149 544.164 543.492 545.933 545.155 545.933C546.818 545.933 548.225 547.341 548.225 549.003C548.225 550.837 546.306 552.094 543.642 552.094C541.148 552.094 537.076 552.67 534.667 553.246C530.318 554.418 530.255 554.162 531.406 539.006ZM551.06 526.514C552.488 522.783 546.818 517.369 543.066 518.861C540.231 519.948 538.909 527.857 541.233 530.18C543.066 532.014 549.888 529.52 551.06 526.514ZM576.704 545.337C566.046 540.008 562.976 521.867 571.055 512.445C581.117 500.955 598.277 504.365 604.438 519.117C612.176 537.598 594.44 554.333 576.704 545.337ZM593.289 536.512C600.601 529.861 595.527 513.446 586.126 513.446C579.625 513.446 576.619 517.198 576.619 525.362C576.619 537.513 585.529 543.504 593.289 536.512ZM357.288 541.926C351.383 536.021 351.873 529.69 358.29 529.69C362.041 529.69 363.363 530.777 363.363 533.932C363.363 537.087 364.45 537.94 367.946 537.428C373.958 536.597 377.518 519.948 373.446 512.274C369.95 505.794 371.527 504.621 381.525 506.284C389.093 507.627 392.844 512.125 387.686 513.787C386.599 514.192 384.766 519.692 383.764 526.023C381.035 543.098 378.946 545.933 369.374 545.933C364.045 545.933 359.952 544.591 357.288 541.926ZM616.354 539.922C615.523 538.686 615.842 536.511 616.93 535.19C619.509 532.099 615.011 511.038 611.6 509.865C610.257 509.46 609.191 507.456 609.191 505.538C609.191 502.127 623.432 497.203 633.408 497.203C641.253 497.203 647.072 511.293 641.572 516.857C639.995 518.371 641.317 520.609 645.815 524.361C649.737 527.686 651.74 530.927 651.079 532.76C649.161 537.769 642.084 536.17 637.245 529.69C634.836 526.364 631.575 523.614 630.082 523.614C626.416 523.614 626.757 529.52 630.508 531.012C634.751 532.675 634.325 539.837 629.997 539.837C627.993 539.922 624.497 540.434 622.088 541.095C619.68 541.755 617.1 541.18 616.354 539.922ZM634.58 513.361C636.669 510.036 632.918 505.282 628.249 505.282C623.431 505.282 622.259 508.117 624.497 514.107C625.67 517.028 632.576 516.623 634.58 513.361ZM321.24 537.258C312.991 535.339 309.75 531.012 315.08 529.179C318.895 527.942 322.818 505.453 320.068 500.955C318.832 499.036 318.405 496.798 319.151 496.051C320.985 494.218 341.129 498.865 346.544 502.383C351.873 505.879 352.64 513.788 348.057 517.603C345.883 519.351 345.542 520.865 347.055 522.272C350.295 525.597 349.549 532.76 345.478 536.512C341.3 540.178 334.308 540.434 321.24 537.258ZM338.635 527.196C339.062 524.936 337.548 522.932 334.563 521.866C329.405 519.863 326.889 522.016 326.825 528.347C326.825 533.357 337.633 532.269 338.635 527.196ZM340.383 512.189C341.641 508.949 338.06 505.453 333.391 505.367C330.727 505.282 329.895 511.784 332.219 514.107C334.649 516.623 339.062 515.536 340.383 512.189ZM294.338 529.946C288.838 528.347 286.025 521.611 290.842 521.611C292.675 521.611 294.679 518.2 295.916 512.956L298.09 504.28L292.59 511.293C289.67 515.109 285.854 519.948 284.106 522.016C282.187 524.531 279.779 525.448 277.519 524.531C274.684 523.444 274.023 520.609 273.938 509.695C273.853 498.375 273.447 496.883 271.529 500.208C270.186 502.447 269.035 507.947 268.949 512.445C268.779 517.369 267.777 520.439 266.285 520.353C264.942 520.268 261.958 520.033 259.698 519.863C254.369 519.436 252.28 513.958 256.202 510.782C260.529 507.371 266.029 489.464 264.622 483.73C263.279 478.316 264.537 477.975 273.597 481.13C280.269 483.475 281.442 486.459 282.593 504.195C283.19 512.274 283.189 512.274 291.098 500.635C297.088 491.958 300.008 489.294 302.844 490.04C304.826 490.637 308.322 491.639 310.582 492.3C315.399 493.621 315.826 496.883 311.498 500.038C307.256 503.129 301.842 524.02 304.826 525.853C307.491 527.516 305.252 531.843 301.842 531.523C300.499 531.438 297.088 530.692 294.338 529.946ZM665.384 526.77C664.723 525.192 665.149 523.529 666.3 523.188C667.728 522.698 667.217 518.371 665.064 510.867C661.568 498.716 658.647 494.965 656.729 499.953C654.576 505.538 649.737 505.538 647.648 499.953C646.497 496.968 645.985 494.304 646.411 493.877C646.816 493.472 654.64 490.872 663.806 488.207C680.54 483.389 680.54 483.389 682.373 488.378C685.123 495.625 685.038 495.796 677.214 494.303C673.292 493.536 670.137 493.472 670.137 494.133C670.137 499.462 677.385 519.522 679.389 519.522C680.71 519.522 682.373 520.865 682.97 522.527C683.801 524.616 681.968 526.109 676.639 527.601C666.982 530.266 666.727 530.266 665.384 526.77ZM168.354 492.961C71.9371 440.67 18.8788 365.229 22.7159 285.95C29.1323 155.213 179.674 51.6329 400.924 25.5621C425.822 22.6629 529.253 21.8956 544.644 24.5602C561.719 27.4807 555.984 30.486 536.564 28.8232C509.598 26.4784 438.804 27.0757 409.088 29.8895C210.733 48.7125 59.2745 139.651 30.9654 256.725C26.0412 277.04 26.6385 312.767 32.0317 333.658C41.5391 369.812 64.3479 405.944 96.8352 436.342C115.061 453.503 150.96 478.636 175.005 491.127C187.924 497.885 191.76 501.296 186.175 501.21C184.768 501.21 176.774 497.459 168.354 492.961ZM454.131 470.557C444.389 464.908 446.478 449.751 457.222 447.342C465.216 445.572 471.036 450.902 471.036 459.813C471.036 469.725 462.296 475.31 454.131 470.557ZM464.555 459.067C465.13 453.247 464.619 452.501 460.207 452.501C454.728 452.501 451.978 457.084 453.896 463.074C456.049 469.81 463.787 466.89 464.555 459.067ZM476.109 460.665C476.109 449.665 476.535 448.408 480.287 448.408C483.207 448.408 485.19 450.667 487.194 456.082L489.944 463.65L492.864 456.572C496.275 448.237 495.444 449.239 500.517 447.747C504.269 446.575 504.525 447.406 504.589 459.663C504.589 471.984 504.354 472.816 500.091 472.816C496.105 472.816 495.614 471.985 496.445 466.229L497.362 459.663L495.103 466.229C492.267 474.308 488.856 474.649 485.702 467.231C483.271 461.646 483.272 461.646 484.274 467.231C485.19 471.985 484.615 472.816 480.692 472.816C476.45 472.816 476.109 471.984 476.109 460.665ZM522.325 460.495C522.175 455.911 520.917 450.838 519.51 449.154C517.507 446.745 517.592 445.743 519.916 444.251C524.669 441.245 526.247 442.993 526.993 452.245C527.739 462.904 528.911 464.311 534.411 460.9C537.566 458.896 538.995 458.832 540.06 460.665C542.32 464.225 544.153 457.83 544.153 446.255C544.153 433.251 548.395 433.017 558.969 445.338C566.302 453.993 566.472 454.419 562.465 456.572C558.713 458.576 557.562 457.915 558.137 454.078C558.308 453.162 556.474 452.501 554.236 452.501C551.06 452.501 550.143 453.567 550.655 456.828C551.145 460.409 549.397 461.646 539.079 464.907C522.751 469.981 522.751 469.981 522.325 460.495ZM227.317 459.813C123.546 414.599 72.7686 346.235 88.0743 272.712C97.2406 229.162 132.627 187.273 187.753 154.807C213.738 139.48 231.218 132.147 233.307 135.579C234.544 137.476 230.472 140.397 218.407 146.238C156.608 176.124 115.147 215.092 98.7328 258.728C92.1671 276.208 92.1671 320.015 98.7328 337.41C109.647 366.55 136.869 398.291 170.678 421.527C186.517 432.335 222.564 451.072 240.044 457.659C249.21 460.985 251.789 465.227 245.373 466.144C243.796 466.314 235.631 463.479 227.232 459.813H227.317ZM422.241 464.652C419.832 463.074 419.746 462.328 421.921 460.9C423.413 459.983 424.735 454.995 424.991 449.836C425.332 441.011 425.566 440.584 430.405 441.672C437.227 443.249 444.56 448.003 444.901 450.987C445.306 456.082 444.133 461.731 442.151 464.161C439.657 467.231 426.653 467.487 422.241 464.652ZM438.484 458.747C440.808 454.249 439.486 449.239 435.394 447.662C433.731 447.086 432.153 448.408 431.322 451.073C430.661 453.567 429.659 457.148 429.062 459.152C427.656 464.161 435.734 463.82 438.484 458.747ZM708.699 464.311C708.699 462.648 713.773 459.322 720.36 456.658C791.218 427.773 842.336 383.22 859.326 335.491C864.741 320.335 866.489 292.367 863.163 275.377C853.592 226.838 809.188 180.282 741.08 147.389C728.844 141.484 718.847 135.494 718.847 134.151C718.847 129.739 723.601 131.231 747.071 142.721C808.784 172.949 850.501 214.261 866.318 260.561C877.488 293.113 872.564 332.507 853.421 363.971C833.341 397.034 797.784 426.92 750.332 450.497C720.019 465.568 708.699 469.32 708.699 464.311ZM405.016 460.239C401.67 458.981 398.685 457.915 398.43 457.659C398.174 457.489 399.751 453.737 402.011 449.41C406.914 439.668 407.17 435.341 402.757 437.089C400.924 437.749 398.174 437.344 396.682 436.087C395.275 434.914 392.93 434.509 391.608 435.341C390.009 436.342 390.777 437.75 394.102 439.498C398.834 442.162 398.344 442.759 391.352 443.164C386.428 443.42 386.684 447.342 391.693 448.088C395.765 448.749 397.769 454.569 393.846 454.569C389.775 454.569 375.535 447.918 375.535 446.084C375.535 444.997 374.704 444.677 373.702 445.253C371.122 446.916 367.029 441.16 367.711 436.918C368.116 434.85 367.456 433.166 366.369 433.166C365.281 433.166 364.62 434.338 364.962 435.767C365.708 439.007 363.043 439.007 358.46 435.681C355.135 433.166 355.305 432.591 361.039 426.345C364.535 422.678 367.115 418.777 366.859 417.605C365.964 413.533 370.781 413.768 376.196 418.095C382.612 423.105 383.188 429.18 377.518 432.185C373.105 434.594 372.124 441.245 375.855 443.59C378.69 445.338 383.529 439.178 385.021 431.674C386.428 425.108 387.515 424.938 397.428 429.926C401.585 432.1 408.832 434.914 413.586 436.342C419.747 438.176 422.241 440.009 422.241 442.673C422.241 447.086 421.495 447.257 416.251 443.995C414.076 442.588 411.582 442.247 410.666 443.079C409.834 443.995 410.666 445.573 412.584 446.66C417.572 449.495 417.082 453.076 411.923 451.414C408.512 450.326 407.83 450.838 408.342 453.823C408.832 455.912 410.41 457.574 412.094 457.574C415.909 457.574 417.338 461.497 413.756 461.987C412.243 462.243 408.342 461.411 405.016 460.239ZM376.196 426.771C378.029 424.938 373.531 419.779 371.293 421.186C368.457 422.934 369.119 428.093 372.188 428.093C373.702 428.093 375.45 427.517 376.196 426.771ZM232.391 443.249C229.385 435.426 228.063 434.019 224.482 434.85C206 439.092 207.748 439.497 204.657 429.841C202.078 421.762 201.332 421.101 195.747 421.676C181.763 423.275 182.168 423.509 179.183 413.362C176.348 403.621 176.348 403.621 166.351 404.942C155.521 406.371 155.372 406.2 153.688 391.534C153.198 387.036 151.94 386.375 142.965 385.459C132.797 384.457 132.797 384.457 133.458 374.885C134.14 365.399 134.14 365.399 124.313 362.479C113.889 359.409 113.569 358.642 116.554 345.489C117.897 339.499 117.47 338.838 109.647 334.83C99.9904 329.928 99.8196 329.245 105.66 319.439C109.988 312.106 109.988 312.106 103.657 305.519C95.7481 297.355 95.7481 296.865 103.742 288.615C110.222 281.879 110.223 281.879 105.81 273.288C100.992 263.802 100.822 264.058 113.484 256.98C118.813 254.06 119.645 252.653 118.387 248.901C114.635 237.816 116.063 234.406 125.144 232.572C133.629 230.91 133.629 230.91 134.204 220.336C134.887 209.763 134.886 209.763 144.287 209.187C153.773 208.505 153.773 208.505 155.201 198.358C156.608 188.105 156.609 188.105 166.436 189.448C176.178 190.769 176.177 190.769 178.352 183.031C179.588 178.704 180.505 174.035 180.505 172.543C180.59 170.539 182.253 170.22 187.177 171.371C199.989 174.291 201.332 173.78 204.487 164.379C207.322 155.895 207.748 155.554 213.823 156.961C226.315 159.796 227.978 159.39 229.982 152.398C231.048 148.732 233.307 145.812 234.885 145.812C236.803 145.812 237.379 146.984 236.633 149.052C235.972 150.8 234.8 154.637 234.053 157.472C232.966 161.97 233.307 162.46 236.633 161.224C285.769 141.889 310.901 134.407 356.051 125.667C401.584 116.842 428.487 114.326 479.2 114.497C561.377 114.667 635.092 127.82 702.027 154.381L724.091 163.057L720.51 155.554C716.353 146.984 715.926 143.723 718.932 143.723C720.19 143.723 722.513 147.133 724.261 151.397C726.009 155.553 727.672 159.22 727.928 159.561C728.184 159.795 732.34 158.645 737.179 156.961C747.07 153.465 747.838 153.891 751.334 164.805C753.743 172.287 754.148 172.543 760.905 171.201C764.742 170.54 769.155 169.452 770.647 168.877C772.566 168.131 774.313 170.881 776.232 177.617C778.982 187.444 778.982 187.444 788.873 187.444C794.288 187.444 798.956 188.361 799.297 189.448C799.532 190.62 800.363 194.862 801.045 199.019C802.282 206.267 802.538 206.523 811.853 207.098C821.446 207.759 821.446 207.759 822.107 218.418C822.597 228.074 823.194 229.161 828.182 230.249C840.674 232.913 842.933 234.661 840.759 240.331C836.837 250.649 838.18 254.572 846.834 258.558C856.257 262.715 856.32 263.141 850.927 273.224C846.919 280.706 846.919 280.707 854.423 288.359L861.906 296.118L854.914 303.281C847.922 310.529 847.922 310.529 852.419 318.437C854.999 322.765 857.002 326.836 857.002 327.348C857.002 327.923 853.251 330.418 848.668 332.997C839.928 337.921 839.587 339.499 843.914 354.314C845.001 358.237 843.999 359.068 835.345 361.562C825.517 364.312 825.517 364.312 825.517 374.395C825.517 384.456 825.517 384.457 815.37 385.459C805.202 386.46 805.202 386.46 804.2 395.627C803.198 404.772 803.198 404.772 793.136 404.772C783.139 404.772 783.053 404.857 780.73 412.936C778.3 421.016 778.3 421.015 768.068 420.525C757.814 419.928 757.814 419.928 754.915 428.604C751.824 437.834 750.737 438.176 737.67 435.255C731.338 433.763 731.019 434.083 727.096 443.079C723.089 452.416 723.089 452.415 715.351 448.919C706.035 444.741 697.7 437.344 699.278 434.68C699.939 433.678 704.863 431.184 710.192 429.18C742.743 416.944 779.643 393.708 802.111 371.219C820.764 352.566 830.186 335.832 835.6 311.765C836.517 307.523 837.754 306.351 840.333 307.097C842.678 307.864 845.598 306.031 849.094 301.618C854.423 295.031 854.423 295.031 848.582 289.702C842.763 284.373 842.763 284.373 842.763 292.281C842.763 306.031 837.839 301.768 835.259 285.695C824.196 215.092 724.773 153.059 585.359 129.739C510.75 117.247 417.999 119.08 345.052 134.577C211.244 162.886 121.883 228.16 121.713 297.696C121.563 343.57 156.864 385.458 222.819 417.69C233.627 423.019 246.375 428.839 251.128 430.757C259.527 434.083 261.702 436.833 257.865 439.263C256.863 439.838 250.788 438.09 244.456 435.255C238.061 432.505 232.476 430.182 232.05 430.182C231.645 430.182 233.137 433.933 235.461 438.431C238.466 444.336 240.385 446.17 242.133 444.742C243.454 443.761 246.631 442.247 249.125 441.416C257.119 439.007 254.368 445.338 246.055 448.578C241.877 450.156 237.891 451.755 237.209 452.075C236.548 452.416 234.394 448.408 232.391 443.249ZM726.35 430.928C725.839 430.438 721.192 432.015 716.012 434.594C706.526 439.178 706.525 439.178 713.197 442.418C719.848 445.573 719.848 445.573 723.6 438.666C725.604 434.914 726.84 431.418 726.35 430.928ZM226.976 429.009C227.317 428.69 222.969 426.025 217.319 423.19C211.649 420.269 206.981 418.265 206.981 418.692C206.981 419.097 207.983 422.273 209.24 425.854C211.329 431.93 211.905 432.25 218.812 430.928C222.905 430.267 226.55 429.35 226.976 429.009ZM750.076 427.347C750.737 424.597 751.91 421.015 752.485 419.353C753.402 417.114 750.907 417.69 743.425 421.676C733.086 427.091 733.086 427.091 738.671 429.585C746.836 433.166 748.755 432.761 750.076 427.347ZM198.752 415.942C203.57 415.942 201.246 414.024 183.425 403.194C181.763 402.193 181.763 404.111 183.34 410.037C185.173 416.858 186.175 418.031 189.671 417.114C191.91 416.517 196.002 416.027 198.752 415.942ZM776.978 408.118L779.046 400.274L769.219 406.456C758.987 412.851 759.157 415.857 769.73 415.942C774.058 415.942 775.315 414.599 776.978 408.118ZM171.445 394.625C168.013 391.79 163.6 388.464 161.447 387.207C158.186 385.373 157.781 385.544 158.953 388.464C159.614 390.383 160.19 393.623 160.19 395.797C160.19 399.037 161.682 399.698 168.845 399.698C177.521 399.698 177.52 399.698 171.445 394.625ZM799.297 392.451C799.958 388.55 800.299 384.968 799.873 384.542C799.446 384.222 795.29 387.206 790.536 391.299L782.052 398.697L789.96 399.123C797.549 399.528 797.954 399.293 799.297 392.451ZM154.114 380.79C154.114 380.471 150.448 376.633 146.035 372.306L137.871 364.312V372.882C137.871 381.387 137.871 381.387 146.035 381.387C150.448 381.387 154.114 381.131 154.114 380.79ZM820.764 369.897L821.531 360.816L812.855 370.217C808.037 375.397 804.2 379.81 804.2 380.044C804.2 380.3 807.696 380.129 812.109 379.724C819.932 379.042 820.018 378.893 820.764 369.897ZM135.377 359.558C133.629 357.64 130.389 352.566 128.129 348.324C124.143 340.671 124.143 340.671 121.883 347.067C119.304 354.314 120.306 357.064 125.464 357.064C127.383 357.064 130.793 358.407 132.968 360.07C138.212 364.056 139.214 363.886 135.377 359.558ZM832.104 356.894C837.838 354.911 838.18 354.229 836.517 348.495C834.087 339.904 834.172 339.904 828.012 349.987C822.192 359.729 822.511 360.241 832.104 356.894ZM118.152 324.087C114.891 312.512 114.891 312.511 110.99 319.844C107.813 325.835 107.558 327.497 109.817 328.755C111.31 329.672 114.316 331.761 116.554 333.338C118.813 335.001 120.817 336.259 120.967 336.003C121.137 335.832 119.9 330.418 118.152 324.087ZM847.41 320.271C842.934 312.682 841.505 312.852 840.183 321.017C839.501 324.598 838.435 329.245 837.604 331.249C836.346 334.511 836.922 334.425 843.509 330.503C850.927 326.176 850.928 326.175 847.41 320.271ZM114.315 294.456L115.722 283.627L109.647 290.363C103.657 297.121 103.657 297.121 107.899 301.683C110.223 304.198 112.312 306.031 112.567 305.775C112.823 305.434 113.569 300.36 114.315 294.456ZM119.73 267.894C122.799 258.302 122.799 258.302 115.402 262.395C107.899 266.466 107.899 266.466 111.225 272.968C115.147 280.621 115.637 280.365 119.73 267.894ZM845.172 263.972C838.499 258.728 834.087 256.895 835.345 259.815C835.92 261.393 837.604 266.466 839.011 271.305C841.59 279.96 841.59 279.96 845.086 273.288C848.412 267.042 848.412 266.466 845.172 263.972ZM130.708 244.744C136.379 235.002 136.378 235.002 130.474 236.324C122.224 238.243 121.563 239.415 122.97 247.984C123.631 252.141 124.377 255.318 124.633 255.062C124.889 254.721 127.639 250.073 130.708 244.744ZM834.598 241.909C834.598 238.648 832.765 236.9 827.521 235.152C819.271 232.402 815.605 226.923 816.777 218.844C817.609 213.515 817.182 213.088 809.124 212.513L800.619 211.767L810.276 222.34C815.52 228.16 822.512 236.985 825.688 242.079C831.507 251.31 834.513 251.225 834.598 241.909ZM146.952 223.427L154.946 214.837H146.952C138.873 214.837 138.873 214.836 138.873 223.832C138.788 228.842 138.788 232.658 138.873 232.487C138.873 232.253 142.539 228.159 146.952 223.427ZM169.526 194.947C160.445 194.116 161.106 193.605 159.614 203.176L158.442 210.85L167.864 203.176L177.18 195.523L169.526 194.947ZM796.377 200.512C795.631 192.368 795.631 192.368 786.891 192.944C782.052 193.285 778.215 193.69 778.471 193.86C778.726 194.116 796.952 208.676 797.123 208.761C797.123 208.761 796.782 205.095 796.377 200.512ZM196.919 182.2C201.907 178.363 201.908 178.363 196.408 178.278C193.509 178.278 189.756 177.787 188.264 177.212C186.346 176.444 184.768 178.704 183.34 184.289C181.187 192.368 181.187 192.368 186.581 189.192C189.501 187.444 194.169 184.289 196.919 182.2ZM772.886 184.289C770.136 175.208 770.221 175.208 761.076 177.041C754.574 178.363 754.574 178.363 764.657 185.291C770.135 189.106 774.804 192.368 774.975 192.368C775.23 192.432 774.229 188.787 772.886 184.289ZM222.564 165.871C213.738 161.139 211.244 161.714 208.068 169.303C206.32 173.374 204.913 176.956 204.913 177.297C204.913 177.617 209.411 175.464 214.975 172.458C220.901 169.367 223.97 166.639 222.564 165.871ZM746.836 167.47C745.237 162.226 743.574 160.222 741.677 160.968C740.078 161.544 736.497 162.631 733.747 163.292C729.015 164.464 729.249 164.89 738.501 170.219C743.916 173.289 748.498 175.613 748.754 175.464C748.989 175.208 748.157 171.626 746.836 167.47ZM569.457 450.582C570.139 449.495 568.391 444.912 565.555 440.414C559.48 430.757 559.48 430.928 563.722 429.35C565.555 428.604 570.139 429.841 573.869 432.1C581.373 436.513 583.036 434.509 576.704 428.604C572.718 424.938 572.803 424.767 583.867 417.349C596.529 408.865 601.347 408.119 607.102 413.938C612.922 419.694 612.176 425.428 604.779 432.25C598.362 438.005 594.952 438.432 594.952 433.422C594.952 429.756 585.444 421.357 583.036 422.849C581.863 423.595 583.035 427.773 586.126 433.252C590.539 441.16 590.774 442.503 588.024 443.59C586.276 444.251 581.629 442.908 577.706 440.585C569.798 435.916 568.476 437.259 574.466 443.761C577.365 446.83 577.791 448.579 576.129 450.241C573.294 452.991 567.794 453.332 569.457 450.582ZM604.353 425.023C605.61 421.932 599.94 413.938 596.614 413.938C592.948 413.938 592.522 420.354 596.018 424.191C600.367 428.924 602.775 429.18 604.438 425.023H604.353ZM451.722 435.17C412.584 426.771 375.769 398.697 359.717 364.973C349.464 343.421 346.459 330.333 346.629 307.928C347.056 250.394 389.348 198.102 446.649 184.033C465.962 179.365 501.689 180.793 521.088 187.103C574.04 204.434 611.26 254.806 611.174 309.186C611.11 340.501 601.603 366.401 581.202 390.617C550.484 427.262 498.279 445.253 451.722 435.17ZM506.593 431.184C554.151 421.271 595.271 380.961 604.864 335.086C616.439 279.79 587.96 221.999 537.076 197.697C520.171 189.618 507.339 186.208 511.837 191.025C513.414 192.688 515.759 193.604 517.081 193.114C518.424 192.603 520.513 194.201 521.834 196.61C523.582 199.85 525.415 200.682 528.997 199.765C531.576 199.105 534.326 199.531 534.987 200.597C535.733 201.769 535.072 202.686 533.58 202.686C532.152 202.686 528.997 203.261 526.588 203.858C523.326 204.775 521.834 203.943 520.832 200.852C520.086 198.444 518.679 196.61 517.677 196.61C516.675 196.61 516.335 198.188 516.995 200.106C517.592 202.11 515.332 200.511 512.007 196.61C508.682 192.688 506.273 188.936 506.678 188.19C507.935 186.208 493.93 184.438 476.621 184.374C467.454 184.374 460.888 185.206 460.888 186.442C460.888 187.529 464.043 188.446 467.88 188.446C471.696 188.446 475.448 189.362 476.109 190.45C476.962 191.856 478.774 191.771 481.439 190.279C483.783 189.107 486.107 188.616 486.703 189.192C487.279 189.853 485.446 191.452 482.526 192.688C478.369 194.607 476.535 194.607 474.126 192.518C472.378 191.111 470.46 190.364 469.884 190.94C469.373 191.537 471.291 193.519 474.212 195.438C479.456 198.849 479.691 198.849 485.02 193.69C488.111 190.769 492.523 188.446 494.847 188.446C500.347 188.446 510.834 197.271 515.098 205.436C519.084 213.259 521.92 215.263 525.245 212.513C526.673 211.255 532.663 210.189 538.568 210.019C549.227 209.763 549.226 209.763 552.317 221.914C555.813 235.834 557.818 239.82 560.546 238.072C563.296 236.409 584.784 242.996 584.784 245.49C584.784 250.308 580.115 265.635 578.623 265.635C577.792 265.635 577.536 267.469 578.132 269.707C578.708 271.966 579.88 273.799 580.627 273.799C583.611 273.799 601.027 288.21 601.027 290.704C601.027 294.775 590.198 310.358 587.363 310.358C585.615 310.358 584.784 313.513 584.784 320.185C584.784 325.6 583.782 332.997 582.46 336.578C579.454 345.404 582.375 347.493 590.113 342.078C596.529 337.666 596.529 337.666 592.607 330.588C588.941 324.172 588.45 326.922 591.776 334.916C592.692 337.09 591.37 339.243 587.96 341.588C585.039 343.421 582.78 343.997 582.78 342.824C582.78 341.652 584.038 340.16 585.615 339.584C587.875 338.753 588.28 335.747 587.448 326.922C586.446 315.432 586.446 315.432 590.774 321.507C602.029 337.239 602.029 337.836 591.541 345.084C586.275 348.665 580.883 351.65 579.369 351.65C576.214 351.65 576.214 351.565 577.877 355.892C578.538 357.64 580.627 359.068 582.46 359.068C585.039 359.153 585.21 359.473 583.121 360.816C581.629 361.818 580.712 364.312 581.032 366.401C581.629 369.556 579.966 370.558 571.546 371.965C564.554 373.137 560.311 375.226 557.817 378.552C554.151 383.391 554.151 383.455 559.139 383.455C562.72 383.455 564.469 382.133 565.044 378.893C565.811 374.8 565.961 374.97 566.216 379.724C566.302 382.708 565.385 385.629 563.978 386.12C562.464 386.802 562.891 387.292 564.959 387.377C567.624 387.462 568.54 385.97 568.54 381.387C568.54 378.061 569.457 375.311 570.714 375.311C571.972 375.311 572.548 378.552 572.207 382.964C571.546 390.532 571.545 390.532 559.565 391.214C548.31 391.79 547.734 391.534 550.399 388.208C551.976 386.205 549.653 387.292 545.155 390.532C536.244 397.034 531.405 401.191 535.498 398.867C539.08 396.863 538.654 399.784 533.9 410.613C529.253 421.101 527.163 421.442 511.176 413.853C503.928 410.442 494.271 410.527 496.445 414.023C497.511 415.771 480.948 430.182 477.793 430.182C476.791 430.182 472.378 426.515 467.966 422.017C461.293 415.196 460.633 413.853 463.958 413.683C466.218 413.597 464.789 412.702 460.888 411.7C456.625 410.698 452.063 410.698 449.719 411.849C442.322 415.281 429.915 420.014 428.316 420.014C426.995 420.014 424.991 415.942 418.745 400.21C418.084 398.462 418.915 398.036 421.495 398.952C423.584 399.698 422.582 398.206 419.256 395.627C407.83 386.716 407.17 386.29 408.747 389.04C409.92 390.958 407.83 391.534 400.518 391.534C387.515 391.449 385.511 389.786 385.106 378.722C384.616 366.401 382.101 366.486 381.099 378.893C380.438 387.036 380.267 386.46 379.948 375.056C379.692 362.969 379.116 361.477 375.109 360.39C372.7 359.729 370.206 359.729 369.609 360.24C369.119 360.816 370.611 361.818 373.105 362.393C376.772 363.395 377.603 365.058 377.603 371.645C377.603 376.463 376.771 379.127 375.535 378.381C374.448 377.72 373.531 375.802 373.531 374.224C373.531 372.562 372.359 371.219 370.952 371.134C368.948 370.963 368.948 370.728 370.952 369.897C374.533 368.469 374.192 365.143 370.526 365.143C368.863 365.143 367.456 363.395 367.456 361.306C367.456 359.153 366.454 357.064 365.196 356.659C363.96 356.233 361.7 352.907 360.208 349.326L357.458 342.739L366.539 348.985C371.527 352.396 375.62 356.062 375.62 357.149C375.62 358.237 377.027 359.068 378.775 359.068C380.608 359.068 382.527 360.901 383.103 363.14C383.7 365.314 384.936 366.635 385.938 366.06C387.025 365.399 386.855 363.225 385.682 360.986C381.952 354.08 387.196 356.659 391.758 364.056C403.013 382.304 430.32 400.53 455.794 406.776C487.684 414.684 526.162 404.281 550.314 381.302C556.73 375.226 556.965 374.395 553.319 373.713C551.06 373.223 547.905 371.73 546.242 370.302C544.558 368.895 540.742 367.147 537.737 366.486C533.154 365.399 531.747 366.23 528.08 372.391C524.669 378.296 522.836 379.554 518.253 379.042C515.183 378.637 513.009 377.55 513.414 376.548C513.755 375.461 512.582 373.798 510.685 372.796C504.588 369.386 497.106 379.724 502.18 384.712C504.269 386.801 503.842 389.551 501.519 389.551C500.346 389.551 494.932 386.461 489.518 382.709C479.69 375.973 479.371 375.887 455.048 375.631C430.491 375.312 430.49 375.311 424.33 368.895C421.004 365.399 418.254 361.221 418.254 359.644C418.254 357.405 415.334 356.808 405.507 357.064C398.6 357.32 389.775 356.318 386.023 354.975C379.862 352.652 379.351 351.905 380.438 346.086C381.952 338.092 394.934 326.432 402.011 326.751C412.925 327.263 415.739 326.346 424.074 319.184C428.828 315.176 432.324 311.509 431.812 311.019C431.322 310.593 424.245 311.19 415.995 312.341C388.027 316.263 385.767 316.434 385.767 314.856C385.767 313.939 395.104 312.106 406.594 310.764C417.999 309.357 429.574 307.608 432.238 306.947C435.479 306.116 436.736 306.351 435.82 307.779C434.391 310.017 438.74 312.341 444.475 312.341C446.393 312.341 453.897 306.862 461.038 300.19C468.201 293.454 475.043 287.954 476.109 287.954C477.196 287.954 481.438 291.365 485.531 295.607C498.193 308.611 503.928 312.021 509.087 309.762C514.011 307.523 523.326 313.258 534.156 325.003C537.822 329.011 543.322 331.676 552.488 333.914C561.974 336.173 566.962 338.667 570.799 343.08C576.129 349.07 576.129 349.07 578.964 336.323C590.688 283.286 567.474 237.731 517.762 216.585C503.928 210.68 500.602 210.104 481.204 210.019C464.214 209.933 457.137 210.85 446.308 214.516C400.092 230.248 373.041 269.707 376.281 316.434C376.942 325.92 378.029 336.003 378.69 338.753C379.948 343.656 379.863 343.656 376.772 339.904C375.024 337.751 373.531 332.677 373.446 328.755V321.507L370.44 328.414C367.712 334.66 367.776 335.662 370.867 339.073C372.7 341.162 373.276 342.824 372.188 342.824C371.123 342.824 368.692 341.247 366.944 339.243C364.195 336.173 364.13 335.086 366.624 330.673C368.117 327.838 369.374 324.683 369.374 323.511C369.374 322.424 367.541 325.003 365.196 329.416C361.04 337.239 361.039 337.239 366.795 341.908C370.781 344.999 373.041 345.745 374.022 344.252C374.938 342.654 375.855 343.165 376.772 345.489C377.518 347.493 377.688 349.582 377.027 350.243C375.706 351.649 362.958 344.082 359.377 339.754C355.795 335.427 353.301 320.015 355.625 317.095C356.883 315.602 356.883 314.26 355.454 313.428C354.303 312.682 353.301 310.763 353.301 309.101C353.301 306.777 354.388 307.097 357.799 310.273C361.21 313.428 361.7 314.942 359.782 316.839C356.286 320.335 356.797 323.511 360.464 320.505C364.706 316.924 364.28 313.599 358.375 306.607C355.625 303.281 353.301 299.017 353.301 297.12C353.301 295.116 356.456 298.186 360.634 304.198C367.861 314.771 367.861 314.771 362.617 322.253C359.782 326.432 357.373 331.164 357.373 332.762C357.458 334.425 359.782 331.846 362.617 327.092C365.452 322.339 368.628 318.437 369.694 318.437C372.785 318.437 371.954 310.849 368.692 309.676C364.536 308.014 354.388 289.872 356.712 288.295C357.799 287.528 362.127 284.287 366.283 281.047C372.039 276.549 374.362 275.718 375.535 277.636C378.605 282.539 379.201 270.304 376.537 257.3C375.023 250.308 374.277 243.913 374.789 243.146C376.11 240.907 395.509 236.665 397.769 238.072C400.092 239.5 402.757 235.834 403.503 230.078C403.844 227.84 405.08 221.999 406.423 217.181C408.832 208.356 408.832 208.356 419.086 209.678C424.649 210.424 430.149 211.596 431.237 212.257C434.328 214.176 422.582 219.249 418.254 217.842C415.163 216.925 414.247 217.586 414.247 220.677C414.247 222.915 412.243 226.177 409.749 227.925C407.255 229.673 406.253 231.08 407.425 231.08C408.598 231.08 411.092 229.417 412.925 227.414C414.758 225.41 421.665 221.167 428.316 218.013C435.479 214.602 440.808 210.594 441.405 208.271C442.065 205.84 443.387 204.86 444.815 205.756C446.222 206.608 449.143 204.86 451.807 201.428C455.879 196.44 456.881 196.013 459.801 198.443C461.635 199.936 463.553 200.767 464.044 200.277C464.619 199.68 462.786 198.102 460.057 196.61C455.389 194.116 454.643 194.35 450.635 199.445C448.226 202.43 445.903 204.433 445.306 203.943C443.984 202.6 452.639 190.45 454.792 190.45C455.794 190.45 461.293 193.69 467.134 197.612C477.622 204.689 482.355 206.181 483.698 203.027C484.039 202.11 488.025 198.934 492.438 195.949C496.851 192.944 499.196 190.45 497.512 190.45C495.764 190.45 491.031 193.285 486.938 196.61L479.456 202.856L470.95 196.61C466.303 193.285 461.208 190.45 459.716 190.45C458.139 190.45 456.966 189.533 456.966 188.446C456.966 184.95 451.893 186.208 449.804 190.194C443.302 202.43 436.139 211.021 433.24 209.933C431.577 209.273 428.913 208.761 427.314 208.761C425.737 208.761 424.415 207.845 424.415 206.757C424.415 205.692 427.08 205.35 430.405 206.011C435.734 207.098 436.651 206.437 439.316 200.021C440.978 196.099 443.984 191.942 446.052 190.77C454.302 185.952 442.471 188.446 427.826 194.521C411.007 201.599 389.775 216.84 380.118 228.842C373.446 237.155 374.277 240.652 381.184 233.404C383.188 231.251 386.854 228.906 389.349 228.16C391.928 227.414 393.932 225.495 393.932 224.003C393.932 222.425 396.682 218.183 400.007 214.516C407.084 206.757 407.17 207.013 402.842 222.66C399.602 234.406 399.602 234.405 385.106 237.326C370.696 240.246 370.526 240.332 365.111 250.308C344.391 288.871 345.393 335.342 367.861 372.647C381.781 395.627 414.247 420.61 440.318 428.348C447.715 430.501 449.399 430.438 450.976 428.008C452.468 425.599 452.809 425.684 452.809 428.519C452.895 434.509 483.613 436.001 506.678 431.184H506.593ZM466.453 430.757C464.47 430.267 462.871 428.69 462.871 427.176C462.871 425.769 461.293 422.508 459.226 420.014C455.559 415.43 455.559 415.43 447.139 419.779C438.655 424.106 429.233 425.598 431.237 422.273C431.897 421.271 434.903 420.013 437.973 419.438C441.064 418.926 446.393 417.349 449.719 415.942C455.559 413.597 456.22 413.938 465.451 422.849C474.617 431.674 474.788 433.017 466.453 430.757ZM486.192 428.178C488.771 425.343 491.351 424.512 494.697 425.343C497.511 426.025 499.43 425.684 499.43 424.341C499.43 423.19 498.023 422.764 496.19 423.424C493.184 424.597 493.269 424.106 496.445 419.267C500.687 412.851 499.195 412.851 515.588 418.436L528.911 422.934L519.084 424.597C512.519 425.684 508.341 425.513 506.507 424.021C504.44 422.358 503.352 422.763 501.689 425.769C500.261 428.519 497.852 429.585 494.356 429.265C491.521 428.924 488.686 429.521 488.111 430.437C487.535 431.418 486.021 432.185 484.87 432.185C483.612 432.185 484.188 430.352 486.277 428.178H486.192ZM513.67 422.273C513.67 421.271 511.431 419.843 508.596 419.182C501.348 417.349 500.687 417.434 499.856 419.843C499.43 421.101 500.517 421.527 502.18 420.845C503.928 420.184 506.934 420.611 509.001 421.847C513.585 424.426 513.67 424.511 513.67 422.273ZM503.523 428.093C503.523 427.006 504.44 426.089 505.591 426.089C506.678 426.089 507.594 427.006 507.594 428.093C507.594 429.265 506.678 430.182 505.591 430.182C504.44 430.182 503.523 429.265 503.523 428.093ZM456.05 425.023C455.133 422.593 453.96 422.358 450.891 424.021C448.716 425.172 445.732 426.089 444.304 426.089C440.233 426.089 444.986 422.678 451.147 421.271C455.389 420.269 457.137 420.93 458.8 424.021C460.057 426.345 460.206 428.093 459.14 428.093C458.139 428.093 456.711 426.771 456.05 425.023ZM535.328 413.597C537.396 409.867 539.996 404.196 541.148 401.041C543.151 395.627 544.068 395.2 557.391 394.454C568.966 393.794 570.799 394.049 567.559 396.032C565.385 397.29 559.395 398.206 554.386 397.95C545.155 397.46 545.155 397.46 541.148 408.118C538.909 413.938 535.818 419.097 534.326 419.608C532.407 420.184 532.663 418.522 535.328 413.597ZM418.915 414.855C418.254 413.107 416.507 412.105 415.078 412.616C413.671 413.192 412.094 411.849 411.497 409.696C410.921 407.522 409.259 406.115 407.745 406.456C406.253 406.861 405.677 406.775 406.509 406.285C409.664 404.537 407.916 402.107 404.249 403.109C402.096 403.706 399.751 403.109 399.005 401.873C398.174 400.53 399.922 399.698 403.929 399.698C408.832 399.698 410.666 400.871 412.243 405.028C413.33 408.033 414.758 409.952 415.249 409.355C415.824 408.865 415.334 405.859 414.162 402.874C412.328 397.95 411.177 397.375 403.503 397.78C394.934 398.206 387.771 396.373 387.771 393.879C387.771 393.196 393.846 393.047 401.35 393.623C413.756 394.54 414.993 395.03 416.251 399.698C416.997 402.534 419.171 407.778 421.004 411.359C422.987 415.196 423.499 417.946 422.241 417.946C421.068 417.946 419.576 416.518 418.915 414.77V414.855ZM542.149 413.362C542.149 412.851 543.151 409.611 544.324 406.115C546.306 400.615 547.564 399.698 553.639 399.698C558.137 399.698 560.141 400.444 559.31 401.873C558.563 403.109 556.133 403.621 553.98 403.109C551.145 402.363 549.483 403.45 548.225 406.776C546.647 410.869 542.149 415.771 542.149 413.362ZM574.636 381.877C574.636 377.145 575.553 373.308 576.619 373.308C579.284 373.308 579.284 383.455 576.619 387.547C575.212 389.701 574.7 388.208 574.636 381.877ZM584.037 365.569C583.121 364.141 583.867 362.564 585.871 361.818C588.279 360.901 588.535 360.155 586.702 358.983C584.954 357.981 586.275 356.404 590.624 354.144C597.19 350.733 599.279 352.566 593.95 357.064C592.287 358.407 590.859 360.901 590.859 362.479C590.859 364.056 590.028 364.888 589.026 364.227C588.024 363.651 586.787 364.226 586.361 365.569C585.7 367.467 585.21 367.467 584.037 365.569ZM580.712 356.488C584.464 352.651 601.027 341.076 601.027 342.334C600.942 345.659 597.616 348.58 588.876 352.992C583.781 355.487 580.2 357.064 580.712 356.488ZM598.618 328.329C596.87 324.257 594.355 320.335 593.118 319.589C589.622 317.436 590.539 311.275 594.952 307.267C599.684 303.025 600.281 305.434 595.868 311.19C593.204 314.771 593.353 315.688 598.192 320.676C601.603 324.257 603.116 327.753 602.605 330.929C601.944 335.342 601.603 335.086 598.618 328.329ZM538.824 325.515C538.163 323.852 537.993 313.428 538.398 302.45C539.314 280.962 538.163 280.301 529.572 296.865C526.822 302.194 526.417 302.364 525.415 298.698C524.84 296.438 525.501 291.365 526.908 287.293C529.658 279.384 529.402 279.384 519.34 286.462C513.755 290.192 513.67 290.192 513.67 286.291C513.67 280.131 520.257 273.544 527.995 271.966C535.072 270.474 535.072 270.474 525.991 267.383C516.846 264.313 516.846 264.313 523.241 262.054C528.507 260.221 531 260.476 536.415 263.226C542.81 266.466 543.407 266.466 546.732 263.141C548.651 261.137 552.808 259.56 555.899 259.645C561.462 259.645 561.462 259.645 556.901 263.482C550.889 268.47 551.145 269.131 558.393 268.129C565.3 267.042 574.636 272.137 574.636 276.869C574.636 279.3 573.805 279.534 570.714 277.871C568.54 276.72 564.212 275.888 561.058 275.888C555.728 276.038 555.643 276.123 559.8 277.871C566.387 280.451 570.97 288.7 570.224 296.438C569.542 303.196 569.542 303.196 564.959 295.778C558.883 286.036 554.811 284.373 555.984 292.196C556.474 295.458 556.219 299.7 555.387 301.683C554.3 304.347 553.064 302.684 549.973 294.605C547.735 288.7 544.985 283.882 543.812 283.882C540.401 283.882 542.895 314.259 546.988 322.019C550.399 328.584 550.399 328.585 545.24 328.585C542.32 328.585 539.485 327.177 538.824 325.515ZM598.938 318.352C597.275 315.261 597.275 313.343 599.023 311.275C600.366 309.761 600.857 306.777 600.196 304.688C599.535 302.684 600.281 299.273 601.773 297.205C604.182 293.944 604.438 294.69 604.267 303.771C604.182 309.357 603.436 313.598 602.605 313.023C600.452 311.765 600.686 313.94 603.18 318.587C604.609 321.188 604.609 322.509 603.266 322.509C602.114 322.509 600.196 320.59 599.023 318.352H598.938ZM439.657 305.775C437.482 298.122 445.561 282.284 454.557 276.294C471.206 265.294 494.612 274.055 501.178 293.859C504.098 302.365 504.098 304.198 501.519 304.198C500.432 304.198 499.515 302.77 499.515 300.936C499.515 288.125 485.361 275.803 470.78 275.803C455.56 275.803 445.391 285.204 442.726 301.768C441.32 310.593 441.149 310.934 439.657 305.775ZM407.596 294.2C392.439 291.194 382.527 287.954 388.943 288.039C393.846 288.039 434.903 295.863 435.99 296.95C438.058 298.954 426.163 297.866 407.596 294.2ZM505.591 296.118C505.591 295.287 508.426 294.029 511.922 293.283C519.83 291.706 522.836 291.706 521.344 293.198C519.255 295.287 505.591 297.781 505.591 296.118ZM422.667 280.451C415.59 276.55 410.261 272.968 410.751 272.372C411.838 271.391 440.573 285.375 440.573 286.952C440.573 289.212 434.818 287.123 422.667 280.451ZM355.22 283.712C355.22 279.79 361.21 270.133 364.45 268.875C366.944 267.959 367.456 266.147 366.369 261.308C365.452 257.3 365.708 255.403 366.944 256.234C368.117 256.895 368.948 256.32 368.948 254.977C368.863 253.57 368.948 250.564 369.119 248.39C369.694 242.165 373.446 248.901 373.446 256.149C373.531 259.218 374.362 263.482 375.45 265.55C377.112 268.556 375.62 270.559 366.369 277.551C360.208 282.049 355.22 284.863 355.22 283.712ZM369.694 271.966C373.787 268.641 374.021 267.553 371.954 263.311C369.523 258.558 369.524 258.558 370.611 263.631C371.442 267.554 370.44 269.472 365.963 272.222C362.872 274.14 361.381 275.718 362.617 275.718C363.875 275.803 367.03 274.055 369.609 271.966H369.694ZM501.519 284.202C501.519 282.625 510.429 277.786 513.265 277.871C515.183 277.957 505.015 285.865 503.011 285.865C502.18 285.95 501.519 285.204 501.519 284.202ZM596.934 281.218C594.121 278.788 589.622 275.377 586.873 273.629C582.119 270.474 582.119 270.218 584.784 257.641C586.532 249.391 588.024 245.896 589.026 247.814C589.942 249.392 589.281 254.635 587.619 259.56C584.613 268.214 584.698 268.555 589.196 272.051C591.776 274.055 594.866 275.718 595.953 275.718C598.021 275.633 591.861 270.389 588.45 269.216C587.363 268.875 587.448 266.211 588.706 262.885C590.624 257.897 591.2 257.556 593.95 260.221C597.851 264.143 597.851 266.381 593.95 264.889C592.287 264.228 590.859 264.548 590.859 265.465C590.859 266.467 592.202 267.724 593.865 268.385C596.529 269.387 603.948 283.712 602.605 285.034C602.264 285.375 599.77 283.626 596.934 281.218ZM437.482 272.137C433.07 267.959 427.57 262.395 425.332 259.645C421.921 255.403 422.497 255.638 429.403 260.967C439.06 268.47 447.715 277.466 446.478 278.703C445.967 279.214 441.895 276.208 437.482 272.137ZM493.525 276.805C493.525 275.718 498.513 269.301 504.589 262.565C510.686 255.893 515.674 251.31 515.674 252.397C515.674 253.57 510.749 259.965 504.674 266.637C498.513 273.373 493.525 277.871 493.525 276.805ZM401.435 268.555C393.846 264.377 394.358 262.715 401.926 266.637C405.251 268.385 408.001 270.218 408.001 270.794C408.001 272.052 407.745 271.966 401.435 268.555ZM450.315 267.213C444.901 258.984 438.229 244.979 439.23 243.977C439.721 243.402 443.558 249.072 447.715 256.469C454.877 269.217 456.71 277.125 450.315 267.213ZM485.531 269.707C485.446 268.044 488.537 260.221 492.268 252.397C496.019 244.574 499.11 239.564 499.195 241.248C499.195 245.32 485.616 273.629 485.531 269.707ZM462.296 265.635C461.635 262.8 460.547 256.895 459.887 252.397C459.14 247.985 458.139 241.994 457.542 239.244C456.796 235.578 457.052 235.002 458.373 237.155C461.123 241.568 465.621 264.719 464.384 267.959C463.788 269.643 462.956 268.641 462.296 265.635ZM361.38 264.633C361.38 262.971 362.297 261.563 363.363 261.563C364.45 261.563 365.367 262.971 365.367 264.633C365.367 266.296 364.45 267.639 363.363 267.639C362.297 267.639 361.38 266.296 361.38 264.633ZM474.126 261.052C474.787 257.385 476.045 249.903 477.026 244.318C478.539 235.152 478.71 234.917 478.944 241.483C479.285 252.397 476.876 267.639 474.702 267.639C473.7 267.639 473.444 264.719 474.126 261.052ZM415.334 250.308C413.16 248.731 411.838 246.897 412.414 246.322C413.074 245.725 415.163 247.153 417.167 249.392C421.495 254.145 420.834 254.486 415.334 250.308ZM521.003 244.318C522.836 241.483 525.16 239.244 526.247 239.244C528.421 239.244 521.493 249.242 519.255 249.306C518.338 249.306 519.169 247.068 521.003 244.318ZM433.24 236.068C431.407 233.255 430.405 230.505 430.981 229.823C431.663 229.162 433.56 231.506 435.394 235.002C439.316 242.57 437.909 243.231 433.24 236.068ZM578.708 238.904C575.873 237.816 569.968 236.239 565.555 235.493C558.222 234.171 557.306 233.318 556.134 227.008C555.473 223.086 554.236 217.182 553.319 213.835C551.806 207.759 551.806 207.759 558.137 214.431C561.633 218.183 564.468 223.001 564.468 225.26C564.468 227.499 565.3 228.842 566.302 228.16C569.137 226.412 574.636 229.161 574.636 232.338C574.636 233.915 575.873 235.152 577.451 235.152C578.964 235.152 581.373 236.495 582.78 238.243C585.615 241.739 585.53 241.739 578.708 238.904ZM567.559 231.336C562.891 230.334 561.143 228.671 560.141 224.003C559.224 219.505 558.798 219.078 558.649 222.34C558.222 230.334 560.482 233.169 567.218 232.913C573.635 232.657 573.634 232.657 567.559 231.336ZM501.775 231.571C504.013 224.749 505.591 223.171 505.591 227.669C505.591 229.161 504.183 232.082 502.521 234.235C499.771 237.902 499.686 237.667 501.775 231.571ZM456.22 230.419C455.474 228.415 454.792 225.175 454.792 223.342C454.877 220.251 455.133 220.336 457.052 223.577C458.139 225.495 458.8 228.757 458.373 230.654C457.798 233.83 457.542 233.83 456.22 230.419ZM479.626 225.005C479.626 221.082 480.031 219.505 480.543 221.423C481.033 223.427 481.033 226.582 480.543 228.586C480.116 230.504 479.626 228.906 479.626 225.005ZM519.084 207.759C517.08 202.601 517.507 201.939 520.832 204.775C523.326 206.757 525.671 206.843 531.747 205.009C541.062 202.196 544.153 202.025 544.153 204.434C544.153 205.436 540.743 206.672 536.564 207.354C532.322 208.015 526.993 209.102 524.669 209.848C521.664 210.68 519.916 210.104 519.084 207.759ZM412.094 204.689C412.094 203.602 414.332 202.686 417.082 202.686C419.832 202.686 422.497 201.854 423.157 200.938C423.733 199.936 426.483 199.595 429.318 200.106C433.155 200.852 434.477 200.277 434.477 197.847C434.477 196.014 435.393 194.521 436.481 194.521C439.06 194.521 439.06 195.864 436.395 200.852C434.647 204.093 432.985 204.689 428.231 203.688C424.586 202.856 422.326 203.176 422.326 204.519C422.326 205.755 420.002 206.672 417.252 206.672C414.417 206.672 412.158 205.84 412.158 204.689H412.094ZM485.02 421.932C487.684 419.694 489.432 417.434 488.942 416.944C488.452 416.432 485.936 417.946 483.442 420.269C478.859 424.511 478.859 424.511 474.297 420.269C467.966 414.194 465.301 414.855 471.036 421.015C476.791 427.091 478.71 427.261 485.02 421.932ZM483.207 416.944C485.36 414.364 484.785 413.938 479.115 413.938C473.53 413.938 472.954 414.364 475.128 416.944C476.45 418.606 478.283 420.014 479.115 420.014C480.031 420.014 481.864 418.606 483.207 416.944ZM441.554 411.849C451.467 407.287 450.145 406.775 438.74 410.783C430.32 413.767 430.235 413.768 428.231 408.524C427.165 405.603 425.737 403.706 425.161 404.196C423.584 405.859 428.828 415.942 431.237 415.771C432.494 415.686 437.142 413.938 441.554 411.849ZM531 409.355C533.75 403.791 533.75 403.365 531.171 406.605C529.401 408.694 527.739 411.188 527.504 412.19C527.163 413.107 523.753 413.022 519.916 411.935C516.079 410.869 513.755 410.783 514.842 411.7C516.505 413.277 521.088 414.855 526.332 415.686C527.163 415.857 529.252 412.936 531 409.355ZM439.23 407.778C441.469 407.692 432.729 401.958 430.064 401.787C429.318 401.787 429.233 403.621 429.829 405.944C430.49 408.524 432.068 409.696 433.901 408.95C435.479 408.353 437.909 407.778 439.23 407.778ZM527.419 405.774C530.403 401.041 530.489 401.041 521.749 404.111C515.759 406.2 515.418 406.69 518.829 408.033C524.584 410.271 524.669 410.272 527.419 405.774ZM400.924 387.547C400.263 386.375 397.428 385.459 394.763 385.459C390.35 385.459 389.775 384.627 389.775 377.891C389.86 372.22 390.351 371.048 391.758 373.308C392.845 374.97 393.761 377.976 393.761 379.874C393.846 382.133 395.424 383.455 398.003 383.455C402.011 383.455 401.925 383.135 396.767 376.378C390.265 367.893 387.771 368.725 387.771 379.383C387.771 386.716 388.176 387.292 394.358 388.038C398.003 388.55 401.265 389.04 401.585 389.21C401.926 389.381 401.585 388.635 400.924 387.547ZM373.361 356.318C372.87 355.892 370.206 354.485 367.456 353.163C362.617 350.818 362.617 350.903 366.283 353.909C369.524 356.488 376.111 358.727 373.361 356.318ZM427.08 326.581C428.081 326.581 427.57 328.094 426.078 330.013C424.159 332.421 424.074 332.997 425.822 331.91C428.401 330.333 435.074 316.349 433.816 315.091C433.475 314.771 429.147 318.672 424.159 323.852C419.171 329.096 417.423 331.761 420.152 329.927C422.902 328.094 425.992 326.581 426.994 326.581H427.08ZM451.232 321.017C462.871 310.849 466.047 312.192 458.714 324.257C454.557 331.079 454.557 331.079 464.129 323.255C470.716 317.841 472.698 315.176 470.545 314.771C467.284 314.174 467.71 310.678 472.208 299.103C473.295 296.353 470.545 297.867 463.788 303.771C450.806 314.942 449.804 315.922 442.066 325.6C435.244 333.914 437.972 332.677 451.232 321.017ZM485.275 321.187C485.275 319.674 477.452 324.428 475.96 326.751C475.214 328.009 476.962 327.433 479.946 325.515C482.867 323.596 485.275 321.678 485.275 321.187ZM516.42 318.928C514.416 315.858 512.668 313.023 512.433 312.682C512.177 312.277 510.749 312.682 509.428 313.513C507.68 314.601 508.682 316.434 512.838 319.759C520.342 325.835 520.577 325.749 516.334 318.928H516.42ZM597.02 293.774C598.853 290.534 597.531 288.785 587.874 281.879C585.529 280.216 586.276 281.708 589.537 285.289C595.186 291.45 595.186 291.706 591.946 298.442C588.94 304.688 588.94 304.944 591.946 301.192C593.779 298.954 596.018 295.607 597.02 293.774ZM364.621 295.778C361.53 291.365 361.615 290.96 366.944 286.611C370.035 284.117 371.527 281.964 370.291 281.964C369.118 281.879 366.028 284.117 363.534 286.782C359.121 291.45 359.121 291.876 362.447 297.035C364.365 299.934 366.369 301.853 366.859 301.362C367.456 300.851 366.454 298.357 364.621 295.778ZM590.859 292.942C590.859 291.706 588.877 288.871 586.446 286.782C582.29 283.115 582.119 283.115 583.462 286.611C584.208 288.7 584.784 293.198 584.869 296.779C584.954 302.855 585.124 303.025 587.874 299.274C589.537 297.121 590.859 294.285 590.859 292.942ZM373.361 289.212C373.531 285.46 373.361 285.46 369.609 288.871C366.369 291.876 366.028 293.113 368.031 296.289C370.291 299.87 370.525 299.934 371.868 296.609C372.614 294.605 373.275 291.279 373.361 289.212ZM390.18 250.905C394.273 245.064 393.1 243.657 387.601 247.899C385.853 249.306 383.764 253.57 383.017 257.471C381.952 263.482 382.101 263.972 384.019 260.561C385.277 258.302 388.112 253.974 390.18 250.905ZM574.636 254.316C574.636 250.734 573.294 248.645 570.544 247.899C568.305 247.324 566.472 246.066 566.472 245.064C566.472 242.826 567.133 242.826 573.464 245.235C577.962 246.983 578.453 248.07 577.365 253.889C576.385 259.048 576.704 260.05 578.623 258.217C579.966 256.981 580.712 253.399 580.371 250.223C579.881 245.405 578.452 244.147 571.972 242.655C567.708 241.653 563.808 241.248 563.211 241.824C562.379 242.74 572.548 259.219 574.125 259.474C574.466 259.474 574.636 257.151 574.636 254.316ZM386.193 244.488C389.604 243.828 392.013 242.826 391.523 242.314C391.011 241.824 387.856 242.079 384.616 242.996C380.118 244.147 378.52 245.81 378.434 249.477C378.2 253.57 378.37 253.655 379.031 250.159C379.606 247.153 381.866 245.405 386.193 244.488ZM397.939 230.59C397.939 229.161 398.515 225.836 399.261 223.171C400.178 219.761 399.837 218.673 398.259 219.761C396.937 220.507 395.85 223.342 395.85 226.006C395.85 229.737 394.593 230.995 390.265 231.656C385.106 232.487 385.192 232.572 391.267 232.828C395.339 232.999 397.939 232.167 397.939 230.59ZM549.141 222.596C548.054 211.681 546.306 210.104 537.822 212.513C531 214.517 531.001 214.517 538.398 214.666C544.558 214.837 545.986 215.668 547.159 220.166C548.907 227.243 546.903 228.991 544.409 222.425C543.066 218.929 540.913 217.331 537.737 217.416C535.157 217.501 531.171 216.84 528.911 216.009C526.737 215.177 529.657 217.266 535.413 220.677C541.147 224.173 546.477 227.925 547.223 228.991C549.568 232.828 549.973 231.165 549.141 222.596ZM412.094 216.499C412.094 213.749 413.586 213.259 419.747 213.92C427.314 214.751 427.314 214.751 419.406 212.768C410.175 210.338 410.921 209.933 409.173 218.929C408.171 224.173 408.342 225.261 409.919 223.001C411.092 221.338 412.094 218.418 412.094 216.499ZM512.177 209.422C510.749 208.846 510.174 207.525 510.835 206.437C512.178 204.263 504.098 194.521 500.943 194.521C497.426 194.521 487.194 202.941 488.366 204.86C489.027 205.84 492.438 206.757 496.019 206.843C499.6 206.928 504.354 207.759 506.593 208.761C508.852 209.678 511.602 210.509 512.668 210.509C513.755 210.509 513.584 210.019 512.092 209.422H512.177ZM503.608 203.688C501.689 201.428 500.091 201.279 497.106 202.856C494.932 204.007 492.033 204.604 490.69 204.093C489.368 203.688 491.202 201.769 494.762 199.936C502.926 195.694 502.436 195.608 506.422 201.684C509.918 207.098 507.765 208.761 503.608 203.688ZM468.968 204.348C471.035 203.176 470.289 203.027 466.708 203.858C463.703 204.519 460.718 204.007 459.972 202.856C457.883 199.531 455.133 200.191 452.809 204.604C450.891 208.185 451.296 208.42 458.309 207.354C462.551 206.672 467.284 205.35 469.032 204.348H468.968ZM339.317 421.356C337.548 419.267 338.465 417.605 343.218 414.109C346.544 411.615 350.21 407.202 351.383 404.367C353.387 399.037 353.387 399.038 359.867 404.942C363.448 408.204 366.795 411.103 367.285 411.444C367.776 411.7 367.115 413.021 365.793 414.364C363.874 416.262 362.617 415.772 360.038 412.105C357.543 408.524 356.371 408.034 355.134 410.101C354.218 411.615 354.389 413.938 355.625 415.431C358.631 418.927 356.051 421.186 352.555 418.266C350.381 416.432 349.123 416.517 347.375 418.692C346.139 420.184 345.713 422.017 346.459 422.764C347.226 423.51 346.394 424.106 344.646 424.106C342.877 424.106 340.468 422.849 339.317 421.356ZM259.207 321.337C251.533 316.178 251.534 316.178 245.373 320.591C237.891 325.92 236.142 324.684 238.892 315.922C240.726 309.762 240.384 308.845 233.563 302.77L226.23 296.289L235.801 296.204C245.202 296.118 245.458 295.948 247.803 287.954C249.124 283.541 250.873 279.875 251.619 279.875C252.365 279.875 254.113 283.541 255.456 287.954C257.865 295.948 258.121 296.118 267.436 296.204L277.029 296.289L270.101 302.194C263.279 308.013 263.194 308.354 265.198 317.35C266.37 322.424 267.201 326.581 267.116 326.581C266.946 326.581 263.364 324.257 259.207 321.337ZM693.287 317.67C696.037 308.611 696.037 308.61 688.619 302.45L681.286 296.289L690.623 296.204C699.704 296.118 700.023 295.862 703.455 287.464L707.037 278.788L710.277 287.464C713.517 295.862 713.858 296.118 722.854 296.204L732.085 296.289L725.178 302.109C718.186 308.184 717.61 311.765 722.108 323.255C723.259 326.432 722.172 326.176 715.18 321.507C706.867 316.007 706.866 316.007 701.196 319.93C690.367 327.433 690.367 327.434 693.287 317.67ZM930.781 308.781C937.943 210.679 863.739 123.407 728.013 70.0295C711.513 63.5491 702.944 60.7989 669.05 51.1422C652.892 46.559 603.692 36.6468 583.291 33.9821C564.724 31.488 557.817 27.9919 571.46 27.9919C582.46 27.9919 634.666 37.4783 661.227 44.2145C716.097 58.3691 768.153 79.6223 808.528 104.499C894.137 157.131 939.926 228.415 935.684 302.364C935.109 313.193 933.595 321.763 932.103 323.17C930.099 325.089 929.864 322.168 930.781 308.781ZM179.759 312.597C180.846 307.523 180.1 305.519 176.263 302.279C171.445 298.271 171.445 298.272 177.926 298.186C183.255 298.123 184.769 297.121 185.834 293.028C186.517 290.278 187.753 287.954 188.669 287.954C189.586 287.954 190.844 290.278 191.505 293.028C192.592 297.121 194.084 298.122 199.243 298.122C205.659 298.122 205.659 298.122 200.991 303.11C197.495 306.777 196.663 309.442 197.665 313.343C198.923 318.523 198.838 318.587 193.914 315.347C189.33 312.341 188.584 312.341 183.766 315.517C178.522 318.928 178.523 318.928 179.759 312.597ZM760.479 312.512C761.566 307.353 760.991 305.434 757.068 302.194C752.4 298.272 752.4 298.272 758.901 298.186C764.231 298.123 765.723 297.121 766.725 293.028C767.471 290.278 768.729 287.954 769.645 287.954C770.477 287.954 771.819 290.278 772.48 293.028C773.567 297.121 775.06 298.123 780.304 298.186C786.891 298.272 786.891 298.271 782.052 302.279C778.215 305.434 777.469 307.609 778.471 312.341C779.728 318.438 779.643 318.438 774.634 315.176C769.987 312.107 769.219 312.106 764.316 315.347C759.072 318.757 759.072 318.757 760.479 312.512ZM337.719 179.28C339.232 175.293 335.139 159.966 332.56 159.966C328.573 159.966 331.323 156.3 335.971 155.383C339.978 154.637 342.046 155.809 345.392 160.392C350.21 167.129 351.127 166.788 352.96 157.792C353.792 153.721 355.966 150.65 358.716 149.649C362.531 148.22 363.043 148.732 362.958 153.72C362.873 156.811 364.28 162.375 366.113 166.127C370.035 173.865 369.694 174.547 361.956 174.867C358.865 175.038 355.54 176.124 354.708 177.212C353.792 178.448 350.722 176.444 347.055 172.202C341.555 165.722 340.298 168.877 345.713 175.784C348.057 178.875 347.631 179.365 341.215 181.283C337.143 182.541 336.567 182.2 337.719 179.28ZM359.291 168.131C359.291 165.871 358.95 164.038 358.545 164.038C358.119 164.038 357.288 165.871 356.712 168.131C356.051 170.369 356.456 172.202 357.458 172.202C358.46 172.202 359.291 170.369 359.291 168.131ZM608.68 178.96C604.523 177.872 604.182 175.954 607.443 172.628C609.277 170.88 609.277 168.387 607.443 162.375C604.182 151.312 604.438 150.309 610.258 151.397C614.926 152.313 615.352 153.06 614.095 158.709C612.858 164.379 613.007 164.72 616.013 162.29C617.761 160.798 618.848 158.794 618.252 157.877C616.504 155.063 619.999 154.296 625.264 156.215C630.253 158.133 630.253 158.133 622.749 164.294C617.847 168.301 615.267 172.202 615.267 175.378C615.267 180.367 614.926 180.537 608.68 178.96ZM593.353 174.632C589.857 174.121 588.941 172.949 589.857 170.284C590.625 167.705 589.708 166.297 586.873 165.551C583.782 164.72 582.78 165.466 582.78 168.451C582.78 171.712 581.863 172.202 578.218 171.051C571.886 169.132 571.716 168.706 575.297 165.125C577.045 163.377 580.541 158.303 583.036 153.891C587.789 145.385 588.535 144.895 592.031 147.304C593.779 148.562 599.769 174.632 598.448 175.208C598.192 175.293 595.869 175.037 593.353 174.632ZM590.859 156.811C590.859 155.063 589.942 154.232 588.876 154.893C587.704 155.639 586.787 157.046 586.787 158.048C586.787 159.135 587.704 159.966 588.876 159.966C589.942 159.966 590.859 158.559 590.859 156.811ZM372.615 165.636C368.287 159.476 368.628 152.718 373.531 147.815C385.277 136.07 402.352 151.887 392.674 165.636C390.521 168.791 387.43 170.134 382.697 170.134C377.858 170.134 374.853 168.791 372.615 165.636ZM388.517 161.544C391.352 156.961 388.027 151.141 382.101 150.224C376.857 149.478 374.363 156.044 377.603 162.055C380.182 166.958 385.277 166.703 388.517 161.544ZM553.81 166.638C548.225 165.786 546.306 162.972 550.399 161.629C551.635 161.224 552.808 156.044 552.978 150.139C553.319 139.31 553.319 139.31 561.228 140.568C565.555 141.314 569.968 142.316 570.885 142.891C573.293 144.405 573.038 151.397 570.459 152.974C568.966 153.891 569.052 155.127 570.544 156.961C572.207 158.965 572.206 160.883 570.629 163.974C568.391 168.045 565.811 168.45 553.81 166.638ZM566.472 148.817C566.472 147.133 565.129 145.812 563.466 145.812C561.804 145.812 560.397 147.133 560.397 148.817C560.397 150.48 561.804 151.887 563.466 151.887C565.129 151.887 566.472 150.48 566.472 148.817ZM564.468 158.964C564.468 157.302 563.147 155.98 561.378 155.98C559.715 155.98 558.393 157.302 558.393 158.964C558.393 160.627 559.715 162.055 561.378 162.055C563.147 162.055 564.468 160.627 564.468 158.964Z" fill="#8550DC"/>
</svg>
