<svg width="961" height="969" viewBox="0 0 961 969" fill="none" xmlns="http://www.w3.org/2000/svg">
<path fill-rule="evenodd" clip-rule="evenodd" d="M664.777 181.768C659.959 179.224 659.805 178.53 659.805 164.462C659.805 151.819 659.438 149.931 656.952 150.837C655.372 151.435 653.715 151.955 653.329 151.955C652.963 151.955 650.477 156.02 647.991 161.069C643.327 170.185 643.327 170.185 637.526 167.179C634.289 165.598 631.417 164.076 631.205 163.864C630.588 163.324 661.462 108.073 663.486 105.818C664.931 104.315 676.147 107.706 676.147 109.653C676.147 110.193 673.121 115.819 669.517 122.372C661.982 135.785 662.213 135.785 680.888 123.432C690.138 117.342 690.138 117.343 695.785 120.58C698.946 122.373 701.509 124.184 701.509 124.704C701.509 125.244 695.419 129.155 687.883 133.511C674.335 141.354 674.335 141.355 674.335 150.759C674.258 163.941 672.235 184.717 670.867 184.563C670.269 184.563 667.552 183.271 664.777 181.768ZM510.834 186.508C524.979 173.423 530.857 169.511 530.857 173.424C530.857 174.175 524.228 180.727 516.249 187.954C495.994 206.011 491.33 204.816 510.834 186.508ZM460.38 185.988C447.295 172.749 445.329 169.954 449.549 170.339C452.941 170.706 479.286 199.171 476.202 199.171C474.776 199.171 467.607 193.215 460.38 185.988ZM483.641 197.801C483.641 195.47 509.851 170.109 512.26 170.109C516.48 170.109 514.514 172.96 501.275 186.065C489.365 197.878 483.641 201.733 483.641 197.801ZM284.313 185.988C280.844 181.633 252.92 130.736 252.92 128.925C252.92 127.865 259.01 123.952 266.391 120.194C278.879 113.873 280.247 113.565 286.414 115.608C294.315 118.171 298.979 126.072 298.015 134.956C297.322 140.295 297.784 141.046 301.253 141.046C305.84 141.046 314.127 150.008 315.842 156.715C317.288 162.651 313.51 171.303 307.651 175.293C294.469 184.331 286.048 188.166 284.313 185.988ZM300.116 165.657C301.928 163.479 302.005 161.744 300.193 157.543C297.476 150.991 294.547 149.776 287.551 152.185C282.116 154.074 282.117 154.075 287.012 162.882C292.061 171.92 294.393 172.44 300.039 165.657H300.116ZM282.425 142.183C286.491 139.1 286.568 130.89 282.579 128.635C280.613 127.575 277.607 127.652 274.446 128.693C269.32 130.504 269.32 130.504 272.943 137.577C276.932 145.344 277.684 145.71 282.425 142.183ZM743.213 249.007C738.857 244.324 738.857 244.323 748.936 224.454C754.506 213.546 758.572 204.662 758.052 204.662C757.512 204.662 750.671 210.907 742.923 218.654C728.836 232.665 728.836 232.665 724.172 228.078C719.508 223.414 719.508 223.414 734.637 208.883C771.369 173.577 769.345 174.926 775.127 181.016C780.33 186.451 780.33 186.451 770.386 206.552L760.384 226.575L774.163 212.873C781.756 205.337 788.829 199.171 789.889 199.171C790.949 199.171 793.358 200.905 795.227 203.005C798.696 206.763 798.619 206.84 774.761 230.255C761.579 243.129 750.073 253.671 749.168 253.671C748.339 253.671 745.622 251.551 743.213 249.007ZM642.575 250.047C641.13 247.715 641.959 247.504 664.179 243.804C675.916 241.857 682.834 241.471 683.971 242.608C685.995 244.632 684.125 245.229 660.941 249.141C641.804 252.379 643.924 252.244 642.575 250.047ZM470.999 180.265C462.943 172.055 461.749 170.109 464.755 170.109C466.933 170.109 470.922 173.192 474.237 177.336L480.037 184.485L486.956 177.026C490.81 172.96 494.857 169.954 496.072 170.339C497.421 170.783 494.8 175.003 489.596 180.727L480.866 190.363L470.999 180.265ZM527.311 203.313C527.465 200.596 558.03 178.916 560.806 179.513C562.54 179.898 557.491 184.793 547.566 192.386C532.649 203.679 527.08 206.686 527.311 203.313ZM430.952 190.883C412.895 175.08 413.261 175.601 417.404 175.601C421.548 175.601 451.361 202.62 447.295 202.697C445.791 202.697 438.41 197.435 430.952 190.883ZM513.011 201.04C514.9 195.547 547.18 172.131 547.18 176.275C547.18 176.66 540.262 182.828 531.821 189.901C517.752 201.791 511.431 205.491 513.011 201.04ZM444.963 187.8C437.196 180.573 430.875 174.02 430.875 173.346C431.029 169.28 437.119 173.5 449.993 186.451C467.993 204.585 464.157 205.568 444.963 187.8ZM305.609 240.875C296.127 239.063 287.628 237.559 286.645 237.482C285.662 237.405 285.739 236.499 286.876 235.382C288.225 234.013 293.872 234.321 305.84 236.345C329.332 240.276 331.356 240.797 330.161 242.82C328.792 245.017 327.212 244.864 305.609 240.875ZM628.044 240.951C627.351 239.968 627.351 239.14 627.967 239.14C628.642 239.14 637.68 237.406 648.068 235.305C674.027 230.102 679.539 232.819 654.312 238.466C632.785 243.207 629.625 243.495 628.044 240.951ZM316.979 231.451C301.928 228.078 294.99 224.608 303.277 224.608C309.675 224.608 345.578 232.587 345.578 234.014C345.578 236.423 335.114 235.459 316.979 231.451ZM615.306 233.802C614.786 232.896 617.792 231.161 622.09 230.101C626.31 228.984 635.56 226.574 642.575 224.686C649.571 222.797 655.969 221.892 656.798 222.72C658.976 224.917 657.029 225.746 636.698 230.853C615.537 236.211 616.752 236.057 615.306 233.802ZM332.416 223.106C315.784 218.654 309.983 215.57 318.482 215.57C324.437 215.57 358.317 225.052 358.317 226.709C358.317 229.118 351.456 228.232 332.416 223.106ZM600.929 226.709C599.735 224.84 641.207 212.642 642.865 214.376C644.83 216.322 643.019 217.15 624.19 222.797C604.707 228.675 602.375 229.041 600.929 226.709ZM348.739 215.879C330.913 210.001 324.726 206.474 332.107 206.474C337.754 206.474 374.64 219.482 373.657 221.139C372.154 223.471 370.728 223.183 348.739 215.879ZM589.116 221.139C587.227 219.945 588.962 218.809 595.437 216.785C600.409 215.359 609.814 212.044 616.52 209.558C623.15 206.995 629.085 205.414 629.702 206.012C631.494 207.823 630.82 210.078 628.411 210.078C627.139 210.078 619.989 212.41 612.531 215.282C593.625 222.586 592.045 222.951 589.116 221.139ZM579.172 217.691C578.362 216.322 613.282 199.171 616.674 199.171C621.338 199.248 616.212 203.16 604.86 208.267C582.717 218.211 580.077 219.194 579.172 217.691ZM233.417 214.588C231.239 213.007 222.047 202.62 213.008 191.404C196.608 171.091 196.607 171.092 201.58 166.948C204.355 164.771 207.072 162.882 207.593 162.882C208.132 162.882 214.974 171.014 222.798 180.939C240.335 203.236 242.609 205.338 247.273 203.834C255.618 201.194 253.825 196.299 236.731 174.849C227.693 163.479 220.235 153.4 220.235 152.417C220.235 149.622 229.504 144.13 231.162 145.942C234.554 149.488 257.892 178.838 261.65 184.042C263.827 187.202 265.639 192.386 265.639 195.547C265.639 210.752 245.23 222.797 233.417 214.588ZM360.572 209.846C351.302 205.78 343.786 201.734 343.786 200.828C343.786 198.033 346.638 198.939 365.833 208.131C388.497 218.962 384.199 220.311 360.572 209.846ZM374.486 206.32C366.064 201.502 358.375 197.128 357.411 196.762C356.351 196.376 356.274 195.316 357.026 194.507C357.854 193.601 364.33 196.086 371.557 199.999C392.794 211.581 395.126 213.162 392.332 214.222C390.906 214.742 382.927 211.215 374.486 206.32ZM568.341 214.222C567.435 212.642 599.735 193.735 603.338 193.735C608.388 193.735 604.032 197.359 588.749 205.646C569.092 216.322 569.535 216.188 568.341 214.222ZM693.838 202.619L679.674 191.712L684.877 185.005C687.652 181.324 697.211 169.125 705.96 157.909L721.917 137.443L729.434 143.013C733.577 146.096 740.052 150.836 743.752 153.477C751.654 159.123 751.731 159.335 747.279 164.77C743.887 168.894 743.887 168.895 735.003 162.13C726.119 155.347 726.118 155.347 722.071 160.473C716.56 167.314 716.791 168.374 725.232 174.329C732.228 179.282 732.305 179.513 729.511 183.888C725.907 189.38 725.829 189.38 717.176 182.828C713.264 179.821 709.564 177.412 708.967 177.412C708.446 177.412 705.96 180.419 703.474 183.965C699.022 190.575 699.023 190.575 703.841 194.718C706.481 196.973 710.47 200.134 712.725 201.734C716.425 204.278 716.56 204.952 714.382 209.172C713.033 211.658 710.99 213.701 709.949 213.624C708.812 213.624 701.586 208.651 693.838 202.619ZM386.01 200.596C377.724 195.316 371.036 190.44 371.036 189.689C371.036 186.451 376.529 188.994 391.888 199.247C412.278 212.795 407.171 213.99 386.01 200.596ZM555.467 208.575C559.225 205.337 587.381 188.32 589.039 188.32C593.259 188.32 589.713 191.635 576.242 200.596C568.264 205.78 559.9 210.078 557.722 210.078C555.467 210.078 554.484 209.48 555.467 208.575ZM400.985 197.127C386.608 186.451 383.235 182.828 387.437 182.828C390.751 182.828 420.044 205.029 418.984 206.763C417.481 209.172 416.267 208.575 400.985 197.127ZM542.825 206.686C542.227 205.78 546.891 201.579 553.135 197.281C559.379 193.061 566.24 187.954 568.418 185.988C570.827 183.811 573.679 182.827 575.414 183.502C577.668 184.407 574.296 187.645 561.788 196.452C543.808 209.249 544.251 209.018 542.825 206.686ZM417.327 194.507C400.021 180.804 398.499 179.224 402.199 179.224C404.839 179.224 434.575 201.792 434.575 203.834C434.575 206.61 428.389 203.314 417.327 194.507ZM509.928 131.642C499.907 126.149 497.575 113.873 501.795 89.186C505.862 65.4625 516.77 57.7925 535.29 65.5398C547.045 70.4348 549.3 80.8228 544.482 108.227C540.936 128.328 536.272 133.82 522.801 133.743C517.675 133.665 511.951 132.76 509.928 131.642ZM525.808 120.58C528.737 118.383 532.65 97.3191 532.65 83.7518C532.65 73.2294 521.664 70.8775 517.906 80.6676C514.9 88.6461 513.686 116.956 516.249 120.117C519.024 123.432 521.896 123.587 525.808 120.58ZM835.351 160.241C834.677 158.43 835.216 157.909 836.932 158.584C838.454 159.181 839.572 160.319 839.572 161.225C839.572 163.865 836.411 163.113 835.351 160.241ZM323.146 130.35C316.536 113.487 311.024 98.9568 311.024 98.0703C311.024 97.1645 313.664 95.4298 316.825 94.2157C323.975 91.5947 322.934 90.0921 333.919 119.135C338.66 131.719 343.034 142.549 343.632 143.301C344.306 144.052 349.201 143.012 354.54 140.969C364.773 137.057 366.97 137.577 367.799 144.438C368.165 148.196 366.585 149.334 354.617 153.998C347.159 156.85 339.72 159.643 338.139 160.164C335.865 160.915 332.705 154.594 323.146 130.35ZM778.075 157.601C775.955 156.252 775.955 155.885 778.075 155.192C779.424 154.671 777.921 153.689 774.683 153.014C771.446 152.263 767.225 149.7 765.356 147.291C763.467 144.882 761.289 142.859 760.615 142.859C759.844 142.859 754.275 138.946 748.108 134.051C733.808 122.835 713.707 109.422 694.744 98.5137C684.491 92.5588 679.751 88.8013 679.751 86.5465C679.751 80.1483 683.586 80.8218 700.314 90.3035C737.951 111.695 780.253 144.361 778.306 150.528C778.075 151.202 779.058 151.357 780.407 150.837C781.756 150.317 783.414 150.682 784.011 151.665C784.628 152.571 783.799 153.843 782.296 154.44C780.715 155.057 779.945 156.406 780.561 157.389C781.91 159.567 781.313 159.643 778.075 157.601ZM785.071 157.389C785.071 156.406 785.9 155.577 786.959 155.577C787.942 155.577 788.752 156.406 788.752 157.389C788.752 158.372 787.942 159.181 786.959 159.181C785.9 159.181 785.071 158.372 785.071 157.389ZM372.154 113.276C367.49 96.0275 363.732 81.053 363.732 79.916C363.732 75.098 375.777 74.1155 377.126 78.7985C381.578 93.5414 392.794 136.075 392.794 138.195C392.794 141.201 391.811 141.952 385.336 143.455C380.518 144.592 380.518 144.592 372.154 113.276ZM560.362 139.774C555.313 138.792 555.313 139.235 560.593 120.792C563.002 112.447 566.838 98.6675 569.015 90.1494C571.27 81.6506 573.602 74.1159 574.295 73.3643C575.413 72.0923 606.364 79.7622 608.387 81.8051C610.122 83.4624 607.115 91.9608 604.783 91.9608C603.569 91.9608 598.674 90.7667 594.011 89.3213C584.452 86.4691 584.375 86.5455 582.563 95.873C581.369 102.425 581.369 102.426 590.619 104.681C598.154 106.492 599.811 107.63 599.811 110.79C599.734 118.46 597.691 119.52 587.998 116.59C583.026 115.068 578.497 114.471 577.822 115.222C577.071 115.897 575.047 121.852 573.082 128.327C569.613 140.218 568.418 141.355 560.362 139.774ZM414.012 131.931C408.212 127.344 406.034 120.715 403.856 100.769C400.85 74.347 406.342 64.7105 424.4 64.7105C436.002 64.7105 441.051 68.1024 443.903 77.507C446.389 85.871 446.466 85.7173 438.7 87.3746C433.516 88.5117 432.764 88.1257 431.704 83.9823C430.201 77.8924 426.52 75.0987 421.914 76.5248C416.653 78.1822 415.824 83.7514 418.233 101.231C420.333 117.034 423.648 124.704 428.235 124.704C432.012 124.704 436.984 116.282 435.847 111.83C434.787 107.995 435.327 107.629 444.134 105.741C448.952 104.681 449.087 104.834 449.087 112.89C449.087 117.477 447.892 123.586 446.389 126.362C441.648 135.554 422.82 138.792 414.012 131.931ZM291.984 250.799C283.022 249.527 274.889 248.39 273.926 248.313C272.943 248.255 272.943 247.504 274.061 246.367C275.275 245.152 281.981 245.152 294.855 246.521C317.499 248.853 320.294 249.527 316.458 251.936C313.375 253.902 313.51 253.901 291.984 250.799ZM264.136 272.345C253.363 271.883 249.296 271.053 249.759 269.473C250.202 268.278 252.688 267.373 255.406 267.45C258.027 267.45 267.219 267.662 275.795 267.893C287.32 268.125 291.155 268.799 290.634 270.456C289.806 273.019 285.971 273.309 264.136 272.345ZM666.357 268.567C665.22 266.775 670.346 265.792 694.513 263.538C702.106 262.844 707.001 263.075 707.753 264.289C709.333 266.91 705.132 267.816 685.031 269.242C673.815 269.994 667.108 269.781 666.357 268.567ZM177.856 241.626C164.231 228.984 153.015 218.133 153.015 217.459C153.015 216.862 157.987 211.504 163.942 205.568C173.423 196.221 175.833 194.718 181.691 194.718C190.364 194.718 197.359 199.767 202.177 209.48C205.569 216.322 205.646 217.614 203.372 223.106C201.946 226.421 199.46 230.255 197.803 231.681C193.139 235.516 194.199 238.234 203.006 246.058C212.41 254.345 212.642 255.251 206.918 260.666C202.697 264.656 202.698 264.656 177.856 241.626ZM191.192 219.194C191.192 215.128 184.486 208.267 180.496 208.267C178.685 208.267 175.679 209.924 173.79 212.044C170.34 215.879 170.34 215.956 177.567 221.969C184.254 227.538 185.006 227.77 187.954 225.129C189.747 223.472 191.192 220.851 191.192 219.194ZM274.754 261.052C256.832 259.684 258.335 256.234 276.547 256.832C296.956 257.583 306.746 259.086 303.662 261.052C300.945 262.767 297.187 262.767 274.754 261.052ZM655.507 259.607C652.886 257.063 654.678 255.483 660.267 255.483C663.485 255.483 672.447 254.499 680.213 253.362C692.855 251.415 698.502 251.859 695.785 254.653C694.802 255.54 681.87 257.737 665.008 259.761C660.402 260.3 656.124 260.3 655.507 259.683V259.607ZM195.856 345.654C196.453 344.151 202.331 342.341 210.83 341.146C218.52 340.009 226.71 338.504 229.119 337.83C232.357 336.924 233.262 337.31 232.588 339.179C232.145 340.759 225.824 342.957 216.477 344.826C197.436 348.681 194.642 348.738 195.856 345.654ZM744.273 339.565C735.234 338.139 726.658 335.73 725.155 334.227C722.206 331.355 721.012 331.278 749.534 336.018C756.472 337.155 762.484 339.103 762.87 340.394C763.313 341.589 762.947 342.571 762.118 342.417C761.289 342.34 753.234 340.991 744.273 339.565ZM202.562 333.09C203.006 331.818 211.428 329.621 222.721 327.963C235.903 326.017 241.915 325.709 241.472 327.058C240.798 329.178 227.847 332.184 211.505 334.149C204.355 334.978 202.023 334.67 202.562 333.09ZM737.123 326.922C719.663 324.648 709.121 320.813 720.703 320.891C737.412 321.122 759.478 325.939 755.932 328.637C755.489 329.023 747.048 328.271 737.123 326.922ZM211.138 319.465C211.138 317.653 216.399 316.747 240.2 314.415C250.742 313.355 251.706 313.509 249.297 315.995C245.982 319.31 211.138 322.471 211.138 319.465ZM718.526 314.126C712.281 313.663 708.813 312.546 708.061 310.657C707.232 308.402 708.369 308.093 714.767 308.922C718.969 309.443 727.93 310.349 734.714 310.947C741.401 311.563 747.433 312.834 747.954 313.74C748.937 315.397 738.472 315.476 718.526 314.049V314.126ZM145.499 288.379L116.957 268.877L126.901 253.959C137.058 238.754 138.946 237.483 144.362 241.626C147.291 243.881 147.156 244.556 142.473 252.014C139.698 256.446 136.827 260.975 136.152 262.17C135.323 263.461 137.443 265.87 141.432 268.279C146.848 271.652 148.274 271.882 149.623 269.859C150.529 268.413 152.938 264.656 155.057 261.418C159.201 254.788 159.876 254.576 164.385 258.026C168.606 261.186 168.451 262.477 163.036 270.379C157.158 279.032 157.235 279.572 165.368 284.988C172.286 289.574 172.286 289.574 178.473 279.784C185.391 268.799 185.545 268.722 191.269 273.309C195.335 276.623 195.336 276.623 185.758 291.077C180.497 298.979 175.678 305.994 175.081 306.668C174.406 307.266 161.147 299.055 145.499 288.379ZM219.56 306.437C221.141 304.779 257.429 300.5 259.607 301.695C259.838 301.849 259.395 302.91 258.566 304.182C257.66 305.685 250.434 306.9 237.329 307.574C221.834 308.403 217.98 308.171 219.56 306.437ZM699.562 299.672C697.211 296.878 698.502 296.801 717.022 297.938C743.598 299.673 746.296 302.679 721.243 302.679C705.498 302.679 701.585 302.139 699.562 299.672ZM228.445 293.948C229.427 292.966 239.141 291.674 249.971 291C265.948 289.959 269.551 290.171 268.877 292.137C268.279 293.871 262.555 294.7 247.35 295.066C234.766 295.374 227.327 294.912 228.445 293.948ZM232.067 653.251C228.078 652.422 220.1 651.228 214.376 650.554C206.841 649.648 203.911 648.51 203.911 646.564C203.911 644.829 205.029 644.213 207.072 644.83C210.078 645.736 237.04 649.57 240.2 649.57C241.029 649.57 242.147 650.765 242.686 652.269C243.804 655.294 243.052 655.371 232.067 653.251ZM720.106 651.151C720.857 648.896 743.444 644.598 756.086 644.367C764.971 644.155 754.814 649.108 743.752 650.322C738.028 650.996 730.185 651.979 726.35 652.577C720.935 653.328 719.508 653.021 720.106 651.151ZM93.9275 643.924C93.253 641.804 93.4651 639.548 94.3709 638.951C99.7285 635.193 116.726 621.781 116.726 621.338C116.726 620.952 111.311 622.763 104.681 625.249C92.2704 629.913 87.6833 629.913 87.6833 625.249C87.6833 623.591 94.602 619.911 106.724 615.247C129.522 606.44 134.88 604.994 134.88 607.48C134.88 608.54 135.324 610.565 135.921 612.01C136.615 613.725 133.146 617.656 125.919 623.361C119.829 628.121 115.146 632.246 115.531 632.631C115.84 632.939 121.255 631.128 127.576 628.565C139.023 623.978 143.842 624.42 141.722 630.067C140.816 632.399 102.137 647.836 97.3192 647.759C96.1822 647.759 94.6019 646.025 94.0045 643.924H93.9275ZM214.376 638.875C198.785 635.714 194.95 634.287 197.051 632.168C198.94 630.375 233.571 637.68 234.322 640.088C235.228 642.864 234.091 642.787 214.376 638.875ZM729.221 637.969C730.936 636.697 738.318 634.577 745.622 633.459C752.849 632.245 760.615 630.819 762.87 630.222C766.03 629.47 766.782 629.836 765.953 631.956C764.97 634.442 738.549 640.608 729.434 640.454C726.273 640.377 726.273 640.224 729.221 637.969ZM206.764 625.326C197.88 623.226 190.209 620.431 189.824 619.159C188.86 616.288 188.783 616.288 209.25 621.106C218.655 623.361 226.652 626.232 227.095 627.427C228.001 630.222 226.344 630.067 206.764 625.326ZM734.251 627.581C734.251 625.172 739.686 623.149 755.643 619.603C768.96 616.674 774.992 616.751 771.966 619.757C770.02 621.703 734.251 629.162 734.251 627.581ZM201.194 612.01C186.818 607.944 180.805 604.918 182.982 602.74C184.331 601.391 218.443 612.01 220.466 614.419C223.26 617.792 220.929 617.58 201.194 612.01ZM741.555 614.265C741.555 611.856 775.666 601.391 777.478 603.26C779.578 605.303 774.607 607.558 758.341 612.01C745.93 615.306 741.555 615.922 741.555 614.265ZM747.125 348.815C731.63 346.194 729.144 345.366 731.091 343.323C732.902 341.588 763.082 346.638 766.551 349.278C769.422 351.456 769.422 351.61 766.107 351.456C764.065 351.456 755.566 350.183 747.125 348.815ZM804.728 345.808C801.934 340.008 802.011 339.854 807.58 335.113C813.227 330.372 813.227 330.373 810.066 323.685C806.906 317.133 806.674 317.056 799.004 318.173C791.469 319.31 791.026 319.079 788.752 313.664C787.48 310.58 786.728 307.728 787.114 307.342C787.557 306.957 801.703 303.719 818.72 300.116C835.737 296.492 851.019 293.274 852.83 292.889C855.085 292.291 857.109 294.238 859.749 299.364C861.792 303.43 863.218 306.899 862.91 307.188C851.848 316.901 809.546 351.764 808.717 351.764C808.101 351.764 806.308 349.046 804.728 345.808ZM833.327 315.167C838.743 311.024 843.272 307.497 843.272 307.188C843.272 306.668 824.964 311.023 820.069 312.68C818.354 313.297 818.276 314.492 819.933 318.038C821.051 320.582 822.343 322.702 822.709 322.702C823.094 322.702 827.912 319.31 833.327 315.167ZM464.524 967.998C457.528 967.786 442.766 966.648 431.627 965.511C412.355 963.565 411.372 963.257 411.372 959.268C411.372 956.627 412.74 954.681 414.841 954.141C418.31 953.255 419.659 949.266 416.421 949.266C415.439 949.266 414.61 947.685 414.61 945.642C414.61 942.173 415.361 942.097 427.792 943.388C435.019 944.14 462.789 944.736 489.519 944.736C534.172 944.736 541.322 945.277 536.349 948.36C533.709 950.017 536.273 954.68 539.202 953.466C541.091 952.792 541.456 953.389 540.57 955.875C539.876 957.764 539.953 958.67 540.782 957.996C542.362 956.551 548.163 961.599 546.66 963.18C543.943 965.897 491.928 968.981 464.524 967.998ZM381.867 958.208C314.127 943.234 249.971 913.959 194.044 872.313C165.734 851.172 160.781 846.2 161.148 839.127C161.456 834.907 160.839 833.635 159.047 834.309C157.466 834.984 157.004 836.642 157.756 839.051C158.893 842.577 158.739 842.654 156.021 839.879C154.383 838.299 153.015 835.428 153.015 833.635C153.015 830.918 152.726 830.764 151.281 832.941C149.931 835.138 146.385 832.267 134.051 819.393C125.533 810.374 118.538 802.164 118.538 801.027C118.538 799.832 117.42 798.463 116.129 797.943C109.056 795.303 74.4247 746.161 58.1593 715.653C22.6414 649.416 4.87269 586.108 0.652177 511.276C-0.851021 483.717 0.343744 440.818 3.21524 422.53C16.6091 337.676 39.6388 275.428 79.7048 215.956C101.308 183.81 107.398 176.737 110.944 179.589C113.353 181.632 113.565 181.247 112.525 177.18C110.482 169.048 145.788 132.316 187.569 99.0336C219.04 73.9033 279.418 40.9295 318.328 27.4586C355.002 14.797 429.141 -1.44837 429.141 3.13831C429.141 3.8899 426.597 5.08405 423.417 5.77783C419.428 6.66433 418.464 7.41619 420.18 8.47614C422.897 10.2106 429.006 7.49372 432.166 3.13831C435.404 -1.31347 518.196 -0.928475 547.18 3.6582C603.647 12.5425 674.413 35.0513 683.817 47.0961C687.884 52.2995 687.884 54.4772 683.74 53.4173C681.717 52.8199 680.348 53.495 680.348 54.9982C680.348 56.3665 682.237 57.4836 684.646 57.4836C686.978 57.4836 688.866 56.655 688.866 55.6722C688.866 54.7086 690.524 53.8807 692.624 53.8807C694.744 53.8807 695.862 53.0511 695.187 51.9141C693.453 49.1967 704.9 54.246 720.106 63.0532C747.664 79.0102 781.467 103.852 806.906 126.978C818.43 137.442 818.43 137.443 814.287 141.875C808.332 148.196 811.049 154.518 817.814 150.085C820.223 148.505 820.223 148.119 817.814 146.539C815.636 145.19 815.559 144.361 817.37 142.549C819.259 140.738 820.454 141.123 823.769 144.438C825.946 146.693 827.006 148.428 826.023 148.196C821.514 147.368 821.437 148.736 825.869 153.998C829.859 158.661 830.244 160.087 828.278 162.418C826.486 164.693 826.486 165.445 828.278 166.043C829.493 166.409 830.533 168.22 830.533 170.031C830.533 175.755 839.282 177.412 844.023 172.748C847.704 169.048 851.019 171.091 849.593 176.121C848.764 178.992 848.976 179.359 850.19 177.644C852.291 174.541 862.312 186.663 882.181 216.399C920.802 274.214 944.815 336.636 957.091 410.774C961.832 439.682 961.832 527.387 957.091 556.064C949.266 603.646 931.113 663.947 923.886 666.665C921.11 667.782 918.316 664.314 920.648 662.598C921.554 661.905 922.382 659.129 922.459 656.335C922.691 651.382 922.613 651.381 914.789 659.572C910.414 664.101 906.792 668.688 906.792 669.671C906.792 671.406 909.894 674.411 916.813 679.384C920.359 681.927 920.205 682.621 908.757 705.342C881.507 759.477 835.891 816.156 786.208 857.571C775.069 866.821 773.412 867.726 771.446 865.086C769.037 861.791 765.125 861.097 765.125 863.969C765.125 864.951 763.699 865.78 761.964 865.78C759.555 865.78 759.324 866.147 761.289 867.361C763.159 868.556 762.562 869.981 758.572 873.604C755.797 876.245 754.063 878.865 754.737 879.54C758.803 883.606 695.496 919.221 657.087 934.426C626.599 946.548 580.463 959.499 573.313 958.072C570.441 957.379 570.75 956.859 575.336 954.295C579.942 951.732 580.231 951.288 576.994 951.211C571.81 951.057 570.596 949.4 572.773 945.411C573.91 943.311 573.91 942.039 572.773 942.039C571.887 942.039 570.518 943.695 569.921 945.642C568.187 950.922 562.771 950.537 564.197 945.276C564.795 943.002 565.334 940.67 565.334 939.996C565.411 937.818 582.486 934.427 583.18 936.469C584.066 939.09 587.304 939.013 586.707 936.392C586.398 935.255 593.028 932.46 601.681 930.128C648.897 917.332 706.173 890.004 744.639 861.925C753.388 855.604 757.223 853.736 758.206 855.316C759.17 856.819 759.632 856.145 759.709 853.505C759.709 851.25 760.538 849.361 761.502 849.361C762.485 849.361 763.313 850.112 763.313 851.018C763.313 851.924 765.048 852.212 767.225 851.692C770.694 850.786 770.771 850.42 768.208 848.531C765.722 846.72 767.302 844.774 779.058 834.753C833.173 788.751 884.59 716.637 908.757 652.654C913.729 639.55 915.387 636.774 918.085 637.525C919.896 637.969 921.323 637.603 921.323 636.697C921.323 635.792 920.127 635.04 918.624 635.04C915.155 635.04 914.847 637.141 922.151 611.856C941.963 543.037 945.335 468.3 932.018 396.397C928.858 379.303 917.121 335.344 913.209 325.863C912.303 323.685 912.669 322.702 914.635 322.702C916.061 322.702 917.873 321.277 918.547 319.465C919.742 316.459 919.896 316.459 922.151 319.465C925.312 323.82 926.372 323.453 925.774 318.25C925.1 311.852 923.808 310.425 918.701 310.425C916.215 310.425 914.558 311.023 915.001 311.775C915.83 313.066 910.492 316.15 909.509 315.013C909.278 314.724 906.425 308.402 903.265 300.867C888.811 266.544 863.738 225.052 838.666 193.813C831.902 185.314 827.295 178.163 828.432 177.778C829.647 177.335 830.09 176.352 829.569 175.447C829.03 174.618 827.604 174.252 826.409 174.695C825.195 175.158 816.85 168.066 807.812 158.97C777.401 128.096 742.018 100.922 706.037 80.8217C694.667 74.5006 685.32 68.2572 685.243 67.043C685.243 65.694 682.911 64.7105 679.828 64.7105C676.224 64.7105 673.815 63.5161 672.37 60.8759C670.944 58.1586 669.903 57.6378 668.997 59.141C668.014 60.7213 662.888 59.2961 650.554 53.8807C641.13 49.7373 631.88 46.0366 629.991 45.6705C628.045 45.2079 619.449 42.7994 610.951 40.3326C546.737 21.5812 480.038 16.7631 413.858 25.9365C405.957 27.0735 405.051 26.8419 406.034 24.1439C406.708 22.5636 406.419 21.1185 405.436 21.1185C404.453 21.1185 403.702 19.9234 403.702 18.4202C403.702 16.917 404.916 15.7031 406.419 15.7031C407.922 15.7031 409.117 14.797 409.117 13.7563C409.117 12.6964 406.554 12.0993 403.259 12.3884C398.653 12.8509 397.227 13.8909 396.706 17.2828C396.398 19.6147 396.995 22.4869 398.132 23.5275C401.293 26.7652 400.387 28.0557 394.143 29.3276C303.431 47.6936 221.14 91.441 156.638 155.577C108.15 203.68 68.0262 268.722 45.8251 334.979C39.7159 353.036 35.1292 364.175 33.8573 363.732C30.9858 362.595 27.8253 366.218 28.9623 369.224C29.4826 370.573 31.0632 371.711 32.4893 371.711C35.4379 371.711 35.8037 374.562 33.1057 376.297C32.1228 376.894 31.3712 378.397 31.5254 379.534C32.1999 385.103 31.2945 386.454 27.5173 385.259C25.1083 384.507 23.0846 384.949 22.1788 386.453C20.984 388.264 20.2901 387.899 19.1723 384.873C18.1124 381.944 16.9947 381.346 15.029 382.618C13.2945 383.678 13.1402 384.352 14.4314 384.352C16.0117 384.429 16.3779 387.358 15.9347 393.988C15.5492 399.191 15.5491 401.677 16.1658 399.403C17.3607 394.142 18.8641 394.22 23.7591 399.867C27.7484 404.453 27.7482 404.452 24.8189 427.559C19.2494 470.998 21.0609 525.422 29.6369 571.732C43.1849 644.675 77.3539 717.927 124.936 775.954C132.992 785.744 135.034 789.522 134.418 793.357C133.82 797.789 134.128 798.098 137.212 796.441C140.218 794.861 143.225 797.115 159.124 812.783C210.387 863.583 268.722 899.949 334.67 922.381C353.634 928.857 388.574 937.741 401.447 939.398C409.58 940.516 410.929 941.287 410.929 944.506C410.852 949.323 409.195 951.963 405.051 953.466C401.139 954.912 400.85 958.362 404.608 958.362C406.111 958.362 407.325 959.19 407.325 960.173C407.325 962.736 399.867 962.139 381.944 958.208H381.867ZM778.75 845.738C779.347 844.774 779.501 843.945 779.058 843.945C778.518 843.945 777.015 843.483 775.512 842.963C774.086 842.366 772.428 843.194 771.831 844.774C770.54 847.935 776.861 848.841 778.75 845.738ZM156.021 826.774C154.904 824.288 153.689 823.093 153.323 824.057C153.015 825.04 153.689 827.082 154.903 828.586C158.141 832.421 158.43 831.823 156.021 826.774ZM34.686 359.202C36.6324 358.008 36.5556 357.487 34.2237 356.582C32.6434 355.965 31.3713 356.273 31.3713 357.333C31.3713 358.374 30.5427 358.682 29.5598 358.085C28.577 357.487 27.7484 355.444 27.7484 353.633C27.7484 351.763 26.6307 349.875 25.1853 349.355C22.7764 348.372 22.7764 350.858 25.1083 358.528C25.8792 361.092 31.1399 361.476 34.686 359.202ZM938.571 343.091C937.511 342.34 935.699 339.719 934.581 337.156C932.693 333.167 932.481 333.012 932.403 336.404C932.249 340.316 935.41 344.46 938.494 344.46C939.765 344.383 939.842 343.997 938.571 343.091ZM921.323 301.851C921.323 298.69 920.127 297.398 916.369 296.723C910.337 295.528 908.083 296.955 913.575 298.381C917.564 299.441 920.879 304.49 917.564 304.49C916.504 304.49 916.215 305.318 916.813 306.359C918.624 309.231 921.323 306.591 921.323 301.851ZM827.835 171.92C828.432 170.937 827.604 170.109 826.023 170.109C824.366 170.109 823.538 170.937 824.135 171.92C824.829 172.884 825.58 173.712 826.023 173.712C826.409 173.712 827.238 172.884 827.835 171.92ZM820.454 153.612C819.857 152.648 818.566 152.339 817.66 152.937C816.696 153.553 816.388 154.749 816.985 155.732C817.602 156.637 818.874 156.927 819.779 156.407C820.762 155.809 821.051 154.518 820.454 153.612ZM641.67 37.4603C645.273 33.8564 645.274 33.8574 641.053 33.8574C638.124 33.8574 636.929 34.8971 636.929 37.4603C636.929 39.5031 637.141 41.1419 637.449 41.1419C637.758 41.1419 639.627 39.5031 641.67 37.4603ZM383.293 21.1185C385.779 17.2064 390.983 16.1657 390.983 19.6153C390.983 20.8294 391.426 21.3495 391.965 20.8292C392.486 20.2896 392.332 18.4972 391.734 16.9169C390.077 12.6964 381.867 12.9274 381.867 17.1287C381.867 18.9402 380.884 21.4271 379.689 22.5641C378.475 23.759 378.341 24.7414 379.227 24.7414C380.21 24.7414 382.021 23.1613 383.293 21.1185ZM544.771 950.094C545.986 946.856 548.317 946.702 549.512 949.786C550.052 951.135 548.992 952.272 547.103 952.426C544.926 952.561 544.097 951.732 544.771 950.094ZM550.803 944.968C550.803 942.328 554.562 940.227 559.148 940.227C560.594 940.227 561.711 941.498 561.711 943.079C561.711 944.967 560.728 945.643 559.09 945.045C557.568 944.448 555.91 944.814 555.313 945.719C553.733 948.36 550.803 947.82 550.803 944.968ZM439.991 933.52C415.67 931.112 403.702 928.779 403.702 926.37C403.702 924.424 402.95 924.27 400.541 925.85C396.706 928.182 368.319 921.707 338.275 911.686C228.753 874.877 134.206 792.74 81.4974 688.557C57.1186 640.378 42.9538 594.607 35.881 540.704C30.0031 496.148 34.6091 398.729 42.2793 403.547C43.108 404.01 44.3219 402.796 44.9964 400.772C45.5938 398.807 46.7886 397.148 47.5595 397.148C49.1976 397.148 48.9856 400.618 45.0735 436.155C30.08 572.715 78.645 706.788 177.413 801.701C234.554 856.664 306.283 896.269 378.707 912.977C392.178 916.061 396.475 917.718 396.475 919.972C396.475 922.381 396.783 922.459 398.055 920.416C399.404 918.315 402.873 918.392 420.334 921.244C436.156 923.807 450.975 924.636 484.412 924.713C517.444 924.713 527.986 925.311 528.583 927.045C528.969 928.259 530.183 929.3 531.223 929.3C532.437 929.3 532.36 928.414 530.992 926.833C529.412 924.868 529.489 924.038 531.609 923.209C535.367 921.783 536.793 924.868 534.461 929.242C532.437 933 519.93 934.812 519.93 931.343C519.93 929.088 514.958 927.43 511.875 928.625C510.448 929.165 509.697 930.745 510.217 932.171C511.046 934.349 506.093 934.735 478.765 934.504C460.92 934.273 443.517 933.906 439.991 933.52ZM558.107 924.559C558.107 922.535 557.047 922.016 554.947 922.767C552.075 923.731 552.153 923.518 555.082 921.244C556.971 919.818 566.375 916.812 576.011 914.635C626.754 903.11 673.121 883.472 718.757 854.179C730.57 846.566 740.881 840.862 741.787 841.382C742.615 841.902 743.367 841.228 743.367 839.956C743.367 837.393 755.855 832.653 758.341 834.233C760.75 835.736 756.838 839.417 740.881 850.71C690.967 886.324 644.83 907.774 587.767 922.016C562.386 928.337 558.107 928.702 558.107 924.559ZM542.671 922.016C543.268 921.033 544.926 920.204 546.352 920.204C547.855 920.204 548.992 921.033 548.992 922.016C548.992 923.056 547.334 923.807 545.311 923.807C543.191 923.807 542.073 923.056 542.671 922.016ZM474.911 903.495C473.716 902.281 472.733 900.778 472.733 900.103C472.733 899.429 471.461 895.728 469.881 891.97C466.412 883.838 463.695 886.092 463.695 897.097C463.618 903.109 463.098 903.861 459.108 903.861C454.599 903.861 454.599 903.861 454.599 884.358C454.599 861.482 455.562 856.665 460.091 856.665C462.866 856.665 463.541 858.322 464.003 866.069L464.524 875.473L469.65 866.069C473.639 858.688 475.74 856.665 479.209 856.665C484.701 856.665 484.701 856.588 478.226 867.207C472.811 876.014 472.811 876.013 478.149 888.578C481.098 895.516 483.583 902.204 483.583 903.418C483.641 906.347 477.783 906.347 474.911 903.553V903.495ZM486.956 904.767C486.359 904.17 486.59 900.7 487.341 896.942C488.17 893.242 490.271 882.701 491.928 873.45C494.935 856.973 495.089 856.665 500.138 856.665C505.707 856.665 504.647 854.179 515.266 891.065C518.947 903.707 518.947 903.861 513.763 903.861C510.294 903.861 509.099 902.666 508.116 898.292C507.056 893.628 506.228 892.8 502.99 893.705C500.813 894.303 498.48 894.745 497.806 894.745C497.131 894.745 496.303 897.02 495.994 899.795C495.474 904.536 489.828 907.619 486.956 904.767ZM502.913 877.054C500.967 868.71 500.89 868.633 499.753 873.894C497.652 883.607 497.96 885.727 501.487 885.727C504.648 885.727 504.725 884.975 502.913 877.054ZM437.042 902.512C435.925 901.76 433.959 896.268 432.687 890.235C429.68 876.013 427.406 871.87 427.348 880.234C427.194 894.688 425.306 900.257 420.642 900.257C416.73 900.257 416.344 899.64 417.25 894.302C418.464 886.921 421.837 858.477 421.837 855.316C421.837 854.025 424.034 853.041 427.04 853.041C432.012 853.041 432.378 853.658 434.575 864.334C437.196 877.131 439.991 882.027 440.068 873.836C440.068 862.08 442.245 854.853 445.637 854.853C447.449 854.853 449.241 855.45 449.704 856.202C450.609 857.57 446.004 897.309 444.577 901.606C443.672 904.092 440.222 904.536 437.042 902.512ZM521.067 879.772C519.487 867.573 518.138 857.031 518.138 856.433C518.138 855.759 520.238 854.854 522.801 854.41C526.945 853.582 528.063 854.699 533.709 865.549L539.953 877.517L538.835 864.334C537.776 851.846 537.93 851.172 541.534 851.172C545.909 851.172 546.14 852.078 549.146 877.517C550.341 887.519 551.401 896.48 551.478 897.54C551.632 898.523 549.666 899.563 547.18 899.871C543.191 900.334 541.765 898.735 535.752 887.153C528.525 873.065 528.525 873.064 531.763 894.302C532.88 901.606 532.726 902.05 528.525 902.05C524.227 902.05 523.996 901.375 521.067 879.772ZM394.587 896.268C390.154 895.209 386.165 894.149 385.856 893.86C384.199 892.279 395.569 847.549 397.612 847.549C398.884 847.549 404.087 848.455 409.194 849.592C417.173 851.25 418.387 852.078 417.848 855.45C417.481 857.647 416.421 859.228 415.439 859.151C414.475 858.996 411.16 858.322 407.999 857.647C402.719 856.51 402.276 856.896 401.524 862.003C400.773 867.052 401.216 867.572 406.708 868.632C411.603 869.538 412.817 870.598 412.817 874.124C412.817 878.191 412.278 878.423 405.59 877.363C399.038 876.303 398.364 876.534 397.227 880.831C395.801 886.69 397.381 889.33 402.43 889.407C408.134 889.407 411.68 892.125 410.408 895.517C409.117 898.735 406.554 898.889 394.587 896.268ZM565.488 885.263C559.148 855.007 559.899 856.741 554.195 857.859C549.589 858.765 548.992 858.399 548.992 854.487C548.992 850.42 550.052 849.804 560.593 847.857C566.914 846.72 573.081 845.738 574.218 845.738C577.745 845.738 576.396 852.522 572.638 853.505C570.595 854.102 568.938 855.758 568.938 857.262C568.938 858.842 570.595 867.129 572.638 875.705C577.148 895.131 577.148 894.745 571.886 894.745C568.032 894.745 567.203 893.55 565.488 885.263ZM375.18 891.508C371.711 890.988 370.959 889.408 369.899 880.157C368.916 871.273 368.242 869.693 366.218 871.427C364.85 872.545 363.058 876.014 362.229 879.098C361.092 883.53 359.82 884.821 356.351 884.821C351.013 884.821 351.09 884.281 358.606 859.382C364.85 838.974 365.467 837.836 369.976 839.571C373.214 840.862 373.214 844.928 369.976 853.947C369.071 856.433 371.037 855.316 376.066 850.498C382.253 844.62 384.276 843.714 388.419 844.697C393.392 845.969 393.392 845.969 384.951 854.487C376.529 863.063 376.529 863.063 378.475 875.262C380.749 890.082 380.287 892.279 375.18 891.508ZM586.34 871.639C585.724 860.885 584.818 849.804 584.375 847.029C583.7 842.963 584.452 841.69 588.21 840.245C590.773 839.281 593.105 838.511 593.49 838.511C593.779 838.511 599.58 848.012 606.21 859.594C615.691 876.014 617.792 881.062 615.923 882.257C612.01 884.82 609.968 884.146 607.115 879.54C603.261 873.45 596.189 876.09 596.189 883.606C596.189 888.424 593.625 891.142 588.962 891.142C588.133 891.142 587.015 882.335 586.34 871.639ZM599.811 867.129C599.734 865.838 598.077 861.926 596.034 858.477L592.43 852.078L593.413 858.245C593.933 861.637 594.396 865.471 594.396 866.897C594.396 868.246 595.668 869.384 597.094 869.384C598.597 869.384 599.811 868.324 599.811 867.129ZM177.567 497.883C169.588 492.313 162.728 486.512 162.361 484.855C161.822 482.291 162.419 482.368 166.948 485.375C187.28 498.845 192.985 503.297 192.985 505.398C192.985 508.636 194.121 509.253 177.567 497.805V497.883ZM687.961 288.148C687.209 287.011 694.282 286.336 707.83 286.336C720.626 286.336 728.836 287.088 728.836 288.148C728.836 289.266 721.012 289.96 708.967 289.96C697.673 289.96 688.558 289.208 687.961 288.148ZM768.883 282.867C765.048 277.529 765.048 277.529 776.784 269.107C785.977 262.555 791.315 256.678 800.874 242.532C813.227 224.301 813.227 224.3 817.293 229.426C819.548 232.278 821.437 235.073 821.437 235.593C821.437 236.21 818.199 241.028 814.21 246.367C810.221 251.705 807.272 256.446 807.657 256.832C808.024 257.198 813.747 256.002 820.454 254.268C832.576 251.03 832.576 251.031 836.045 255.54C837.991 257.949 839.572 260.82 839.572 261.88C839.572 262.844 830.013 265.561 818.276 267.893C799.371 271.651 795.612 273.097 785.533 280.17C779.193 284.602 773.701 288.148 773.334 288.148C772.949 288.148 770.926 285.816 768.883 282.867ZM238.832 282.347C239.372 280.69 245.384 279.861 260.069 279.495C276.104 279.109 280.401 279.495 279.785 281.287C279.187 283.022 273.174 283.773 258.566 284.159C242.532 284.525 238.235 284.159 238.832 282.347ZM678.248 278.512C676.301 276.181 678.479 275.718 695.573 275.12C709.949 274.523 715.885 274.966 717.851 276.777C720.029 278.743 718.005 279.109 705.806 279.109C697.75 279.109 688.712 279.63 685.783 280.17C682.237 280.921 679.751 280.324 678.248 278.512ZM755.566 359.896C738.163 356.042 734.405 354.616 736.525 352.515C738.028 351.012 770.617 358.316 772.949 360.648C776.341 364.021 773.778 363.886 755.566 359.896ZM189.381 359.742C189.381 358.316 189.689 357.179 190.055 357.179C190.441 357.179 198.785 355.522 208.498 353.499C218.288 351.533 226.575 350.184 226.941 350.55C228.83 352.438 221.218 355.367 206.166 358.605C192.31 361.611 189.381 361.766 189.381 359.742ZM117.632 344.151C101.675 336.095 88.204 329.177 87.8186 328.792C86.3925 327.442 95.7969 309.154 101 303.199C105.144 298.381 107.553 297.263 113.122 297.263C120.426 297.263 130.139 303.585 132.009 309.597C132.76 311.852 135.112 312.681 140.739 312.758C145.037 312.835 152.649 314.493 157.756 316.458C167.026 320.062 167.025 320.062 164.231 325.94C160.993 332.782 159.798 332.935 147.676 328.117C137.732 324.205 133.82 324.726 132.086 330.218C130.66 334.593 129.754 333.764 143.456 340.625C154.826 346.271 154.826 346.271 151.743 352.669C150.085 356.119 148.274 358.914 147.676 358.914C147.156 358.837 133.589 352.207 117.632 344.151ZM121.255 320.737C121.255 315.629 120.426 314.261 116.052 312.758C111.619 311.178 110.405 311.563 107.476 315.167C102.812 320.891 102.966 321.353 110.79 324.879C119.675 328.791 121.255 328.195 121.255 320.737ZM178.916 387.668C179.282 386.454 186.972 383.216 195.856 380.441C214.222 374.717 215.359 374.563 214.376 377.434C213.836 379.169 184.1 389.845 179.668 389.845C178.839 389.845 178.473 388.863 178.916 387.668ZM763.467 385.259C750.517 381.115 745.333 378.263 747.202 376.297C748.493 375.102 783.26 386.761 783.26 388.496C783.26 390.673 777.921 389.845 763.467 385.259ZM48.08 385.855C44.534 382.405 45.5167 373.522 51.4717 353.345C86.7005 234.843 169.511 135.785 279.495 80.5135C397.612 21.195 532.514 16.6083 654.62 67.717C672.447 75.2523 674.027 76.2358 674.721 81.3428C675.684 87.8952 677.939 88.3571 645.274 74.944C567.358 43.0299 481.772 34.531 397.978 50.2567C232.819 81.3421 92.2703 214.895 55.7503 375.468C52.7439 388.418 51.838 389.69 48.08 385.855ZM53.9577 370.053C54.5551 369.07 54.1697 367.798 53.2061 367.181C52.1461 366.583 51.3176 367.336 51.3176 368.916C51.3176 372.076 52.4353 372.539 53.9577 370.053ZM759.922 372.616C745.776 368.627 739.686 365.679 741.633 363.732C743.213 362.152 777.767 372.539 778.673 374.871C779.887 377.878 777.844 377.646 759.922 372.616ZM183.888 373.656C183.888 371.864 189.689 369.822 207.303 365.389C218.365 362.518 222.875 362.826 219.194 365.987C217.691 367.336 188.475 375.391 185.314 375.391C184.563 375.391 183.888 374.562 183.888 373.656ZM177.413 467.76C176.815 466.719 176.584 465.66 176.951 465.429C186.066 458.664 195.259 455.638 192.31 460.379C190.132 463.925 178.608 469.649 177.413 467.76ZM768.729 505.398C768.729 503.066 773.547 498.789 780.928 494.568C782.065 493.894 783.568 494.105 784.088 495.088C784.705 495.994 781.525 499.308 777.015 502.469C771.08 506.535 768.729 507.364 768.729 505.398ZM785.148 486.801C771.6 477.551 767.611 473.946 769.191 472.424C770.771 470.844 799.525 490.271 799.602 492.911C799.679 496.38 797.945 495.628 785.148 486.801ZM182.077 486.878C165.965 474.467 161.225 470.17 162.497 468.821C164.077 467.164 188.783 485.298 191.269 489.981C193.89 494.856 191.481 494.028 182.077 486.878ZM769.191 489.441C770.309 486.049 774.24 485.452 774.24 488.689C774.24 490.269 772.949 491.562 771.369 491.562C769.789 491.562 768.806 490.578 769.191 489.441ZM785.148 472.29C770.174 463.174 765.645 459.551 767.38 457.836C769.037 456.179 799.679 475.45 799.679 478.225C799.679 481.386 800.797 481.849 785.148 472.29ZM187.646 476.279C185.912 474.159 186.297 473.253 189.227 471.672C192.464 469.938 192.985 470.17 192.985 473.253C192.985 477.994 190.286 479.439 187.646 476.279ZM317.577 764.295C316.536 762.561 350.261 749.455 355.677 749.455C361.689 749.455 356.12 752.616 338.275 759.323C319.388 766.473 319.003 766.55 317.577 764.295ZM619.372 758.957C607.79 754.737 602.298 751.788 603.415 750.671C604.552 749.456 609.524 750.516 617.503 753.599C624.267 756.163 632.94 759.323 636.621 760.615C643.693 763.024 645.871 766.03 640.302 765.644C638.509 765.49 629.085 762.484 619.372 758.957ZM305.455 756.682C303.431 755.41 303.508 755.025 305.686 754.273C307.112 753.753 315.996 750.747 325.266 747.586C336.559 743.751 342.88 742.46 344.075 743.674C346.484 746.083 308.846 758.802 305.455 756.682ZM796.962 751.344C796.364 750.362 789.658 744.869 782.142 739.146C774.606 733.345 767.148 727.64 765.645 726.426C763.082 724.479 763.082 723.786 765.799 719.72C774.375 706.557 783.722 704.226 792.529 713.033C798.465 719.045 799.216 724.923 794.861 731.167C791.932 735.31 792.067 735.619 798.85 741.343C805.017 746.527 805.615 747.663 803.437 750.207C800.662 753.522 798.542 753.985 796.962 751.344ZM788.463 725.232C789.812 718.371 780.639 714.016 776.187 719.354C774.529 721.377 775.127 722.668 779.116 725.674C784.84 729.894 787.557 729.741 788.463 725.232ZM621.936 748.262C616.751 746.45 614.786 744.946 616.212 744.04C618.852 742.383 634.366 747.278 634.366 749.687C634.366 751.942 631.282 751.576 621.936 748.262ZM152.032 745.023C143.225 736.216 146.25 728.835 164.616 714.978C176.584 705.959 185.237 705.131 191.038 712.493C198.342 721.84 195.856 727.698 179.07 740.437C165.214 750.902 158.97 751.942 152.032 745.023ZM174.696 732.073C186.509 723.188 189.303 716.79 181.479 716.79C175.158 716.79 156.792 731.244 156.715 736.371C156.638 742.769 162.285 741.4 174.696 732.073ZM293.872 747.798C292.966 746.218 300.791 743.443 322.394 737.642C327.444 736.293 331.433 735.985 332.03 736.968C332.647 737.874 332.03 738.991 330.681 739.454C320.217 742.923 297.862 749.455 296.57 749.455C295.684 749.455 294.469 748.704 293.872 747.798ZM659.361 747.355C653.637 745.331 652.424 741.4 657.993 742.98C659.959 743.597 663.274 744.504 665.297 745.101C667.263 745.621 668.458 746.912 667.86 747.798C666.665 749.841 665.894 749.764 659.361 747.355ZM284.911 740.725C283.928 739.145 314.956 731.321 322.24 731.321C330.084 731.321 322.934 734.481 306.206 738.316C287.474 742.691 286.26 742.845 284.911 740.725ZM180.265 527.542C164.983 518.195 160.839 514.745 163.711 513.762C166.428 512.856 196.608 531.896 196.608 534.46C196.608 537.697 198.111 538.296 180.265 527.542ZM766.107 532.88C767.071 530.394 797.501 512.413 798.696 513.608C800.276 515.266 796.364 518.504 782.816 526.636C768.131 535.444 764.604 536.792 766.107 532.88ZM177.933 512.259C169.203 506.689 162.13 501.043 162.13 499.617C162.13 496.822 179.225 506.613 189.901 515.497C200.443 524.227 193.967 522.492 177.933 512.259ZM766.936 519.178C766.936 516.537 794.032 500.368 796.133 501.64C797.27 502.314 792.067 506.766 784.242 511.719C770.54 520.526 766.936 522.049 766.936 519.178ZM77.7393 508.424C78.3367 505.63 79.5506 501.198 80.4564 498.48C81.8054 493.971 81.1312 492.756 73.4418 486.204L64.9428 478.899L72.2467 478.823C84.889 478.823 87.1439 477.396 90.6128 467.76C92.4243 462.865 94.2935 458.876 94.9102 458.876C95.5077 458.876 97.4544 462.865 99.1889 467.76C102.581 477.165 105.587 478.823 119.212 478.823C124.859 478.9 124.859 478.9 116.803 485.838C108.748 492.834 108.748 492.833 110.559 503.067C112.448 513.3 112.448 513.3 105.972 509.388C102.349 507.287 98.6684 504.877 97.7626 504.049C96.7798 503.143 91.7499 504.955 86.3924 507.961C76.6794 513.453 76.6793 513.454 77.7393 508.424ZM848.687 512.779C848.687 512.181 849.593 507.441 850.711 502.237C852.754 492.679 852.753 492.679 844.852 485.838C836.873 478.977 836.874 478.976 842.578 478.899C851.539 478.822 859.595 476.8 859.749 474.545C859.749 473.408 861.329 469.264 863.141 465.275L866.456 457.97L870.445 467.318C874.588 476.954 877.749 478.899 889.794 478.899C893.552 478.899 896.346 482.446 892.723 482.6C891.971 482.6 888.811 484.931 885.65 487.783C880.158 492.833 880.004 493.218 881.892 501.332C882.933 506.015 883.319 510.217 882.702 510.833C882.105 511.431 878.038 509.772 873.682 507.209C866.822 503.143 865.242 502.855 862.235 504.956C853.197 511.123 848.687 513.685 848.687 512.779ZM781.602 456.255C774.24 451.88 767.38 446.831 766.397 445.174C764.373 441.493 764.065 441.339 782.816 451.572C796.673 459.185 802.531 464.369 797.347 464.311C796.056 464.311 789.06 460.688 781.602 456.255ZM165.734 459.262C165.734 457.219 193.138 442.091 194.43 443.382C196.087 444.962 191.327 448.797 179.899 455.041C169.434 460.765 165.734 461.902 165.734 459.262ZM163.942 447.14C163.942 444.346 196.145 426.885 197.88 428.697C199.845 430.643 195.933 433.515 180.265 441.571C168.143 447.738 163.942 449.164 163.942 447.14ZM780.561 442.477C766.859 435.095 761.733 431.26 764.373 430.354C766.782 429.602 797.79 446.003 797.79 448.046C797.79 450.975 793.878 449.703 780.561 442.477ZM777.921 427.869C764.45 421.47 758.649 417.558 760.384 415.746C761.81 414.397 794.186 430.721 794.186 432.841C794.186 434.19 793.955 435.249 793.724 435.172C793.512 435.095 786.42 431.781 777.921 427.869ZM167.546 431.183C167.546 429.892 174.464 425.825 182.905 422.067C199.691 414.609 200.289 414.474 200.289 417.172C200.289 418.675 171.246 433.438 168.297 433.438C167.931 433.438 167.546 432.378 167.546 431.183ZM196.145 598.23C184.409 594.607 178.473 591.832 178.473 590.098C178.473 588.286 179.513 587.843 181.633 588.748C183.425 589.423 191.115 591.987 198.862 594.396C211.139 598.308 216.631 601.391 214.53 603.202C214.222 603.414 205.935 601.237 196.145 598.23ZM746.99 601.469C746.99 598.982 781.159 586.937 782.97 588.748C784.994 590.772 780.176 593.181 763.776 598.442C751.422 602.373 746.99 603.203 746.99 601.469ZM191.327 584.452C181.923 580.829 173.867 576.761 173.424 575.412C172.441 572.56 174.252 573.003 195.258 580.982C203.68 584.219 209.327 587.381 209.327 588.884C209.327 590.329 209.095 591.37 208.883 591.293C208.652 591.216 200.751 588.133 191.327 584.452ZM752.772 587.689C753.388 585.954 783.645 573.39 787.326 573.312C788 573.312 788.232 574.43 787.634 575.876C787.114 577.302 779.424 580.905 770.54 584.066C752.483 590.329 751.866 590.464 752.772 587.689ZM187.569 570.364C171.843 563.83 167.931 561.479 169.724 559.687C171.246 558.106 204.432 572.253 205.261 574.816C206.321 577.976 204.586 577.533 187.569 570.364ZM756.472 574.738C757.3 572.406 788.463 558.396 790.872 559.224C794.398 560.439 788.309 564.351 773.701 570.364C755.932 577.745 755.489 577.822 756.472 574.738ZM183.426 555.91C174.696 551.554 167.546 547.102 167.546 546.139C167.546 543.421 167.931 543.575 184.563 551.322C192.927 555.157 200.211 559.687 200.828 561.268C202.408 565.257 201.657 565.025 183.426 555.91ZM760.076 561.942C760.673 559.841 789.658 544.328 792.973 544.251C793.801 544.251 794.187 545.233 793.801 546.428C792.818 549.3 759.247 564.717 760.076 561.942ZM181.691 541.764C167.315 533.94 162.574 530.47 164.154 528.89C165.599 527.541 197.205 544.847 198.034 547.41C199.094 550.879 196.974 550.128 181.691 541.764ZM763.698 547.642C764.527 545.079 796.056 527.387 797.424 528.736C799.293 530.548 794.707 534.017 780.851 541.09C761.887 550.88 762.716 550.571 763.698 547.642ZM173.501 402.122C174.329 399.635 207.516 387.359 209.019 388.939C210.984 390.828 206.321 393.39 190.884 398.806C173.038 405.127 172.441 405.205 173.501 402.122ZM632.631 740.051C627.582 738.625 626.908 737.95 629.162 736.659C632.169 735.002 643.462 738.24 643.462 740.803C643.462 742.614 640.687 742.383 632.631 740.128V740.051ZM666.723 740.957C662.676 740.282 655.372 734.925 658.609 734.925C663.639 734.925 677.804 739.222 676.975 740.571C675.916 742.229 675.396 742.229 666.723 740.957ZM649.802 734.925C648.357 732.67 650.766 732.67 654.389 734.925C656.721 736.448 656.644 736.737 654.004 736.737C652.346 736.737 650.477 735.985 649.802 734.925ZM274.523 732.978C271.286 730.936 273.386 730.338 295.375 726.657C307.112 724.769 313.896 724.325 315.091 725.52C316.228 726.657 312.238 728.084 303.508 729.51C296.204 730.801 287.165 732.381 283.562 733.133C279.939 733.884 275.872 733.808 274.523 733.056V732.978ZM638.875 733.133C638.278 732.073 639.473 731.321 641.516 731.321C643.539 731.321 645.274 732.15 645.274 733.133C645.274 734.115 644.079 734.925 642.634 734.925C641.207 734.925 639.55 734.115 638.875 733.133ZM672.003 731.475C665.605 730.492 662.811 726.426 668.92 727.023C680.579 728.16 688.866 729.973 688.866 731.399C688.866 733.21 683.065 733.287 672.003 731.475ZM775.127 413.857C760.153 407.921 755.026 404.838 756.992 402.796C758.052 401.736 787.326 413.723 790.487 416.498C795.536 421.007 791.238 420.332 775.127 413.857ZM169.801 416.729C170.552 414.475 203.912 400.156 205.261 401.524C207.303 403.548 202.698 406.264 187.569 412.354C169.28 419.658 168.837 419.813 169.801 416.729ZM770.174 399.481C759.786 395.646 752.405 391.964 752.405 390.519C752.405 388.264 774.915 395.26 785.225 400.849C787.942 402.275 790.563 406.707 788.309 406.033C788 406.033 779.887 403.027 770.174 399.481ZM646.623 725.597C648.222 724.017 650.323 724.017 654.755 725.366C660.71 727.254 660.71 727.255 652.655 727.487C646.488 727.564 645.043 727.1 646.623 725.52V725.597ZM463.618 808.331C463.618 806.23 478.823 789.368 480.712 789.368C483.429 789.368 498.866 807.425 497.344 808.928C496.746 809.545 492.757 806.596 488.459 802.453L480.712 794.784L473.639 802.087C467.087 808.794 463.618 810.971 463.618 808.331ZM479.055 807.502C479.729 806.52 481.02 806.153 481.926 806.751C484.412 808.254 483.95 809.391 480.789 809.391C479.209 809.391 478.457 808.562 479.055 807.502ZM459.108 793.049C471.982 780.021 478.149 775.743 478.149 779.886C478.149 782.893 451.361 807.579 448.123 807.579C445.637 807.579 448.644 803.513 459.108 793.049ZM496.746 794.34C483.506 781.004 481.772 778.441 485.838 778.441C488.247 778.441 514.515 803.821 514.515 806.153C514.515 810.143 508.502 806.231 496.746 794.34ZM431.26 804.188C432.687 800.43 460.323 776.648 461.961 777.689C464.158 778.98 436.676 805.556 433.053 805.613C431.704 805.69 430.875 805.016 431.26 804.188ZM511.72 792.143C503.742 784.839 497.806 778.229 498.403 777.535C500.446 775.511 505.785 779.501 518.947 792.895C535.675 809.834 530.318 809.314 511.72 792.143ZM414.61 801.489C414.61 800.507 442.766 776.937 444.654 776.34C450.147 774.451 446.543 779.347 434.344 789.966C422.974 799.91 414.61 804.785 414.61 801.489ZM528.063 790.948C521.067 784.839 514.592 779.115 513.686 778.287C512.626 777.323 513.32 776.648 515.497 776.706C519.718 776.706 547.489 801.856 543.499 802.01C541.919 802.088 535.001 797.115 528.063 790.948ZM401.062 798.618C399.944 796.749 429.141 773.025 432.533 773.025C436.676 773.025 434.036 776.031 420.565 786.65C403.702 799.967 402.43 800.738 401.062 798.618ZM542.285 787.865C527.542 775.82 525.134 773.025 529.489 773.025C532.206 773.025 560.208 795.612 560.208 797.712C560.131 801.413 556.296 799.216 542.285 787.865ZM385.567 793.434C385.702 790.794 414.841 771.002 417.848 771.6C419.813 771.966 415.439 776.108 405.205 783.489C390.462 794.108 385.49 796.672 385.567 793.434ZM556.219 783.489C546.275 776.031 542.073 771.888 544.02 771.522C546.66 771.059 576.242 791.7 576.242 794.032C576.242 796.884 569.478 793.356 556.219 783.489ZM747.356 775.068C731.476 757.897 730.879 756.992 734.116 754.139C737.277 751.268 738.241 751.942 753.08 768.207C769.422 785.899 770.386 787.633 766.32 790.948C764.45 792.528 760.307 789.06 747.356 775.068ZM192.926 788.385C190.884 785.899 192.927 783.105 207.593 768.439C220.62 755.334 225.13 751.788 226.941 753.388C228.233 754.428 229.35 756.24 229.35 757.3C229.35 759.401 198.496 791.16 196.453 791.16C195.779 791.16 194.198 789.888 192.926 788.385ZM371.248 789.522C368.473 787.865 399.636 767.225 403.625 768.053C405.205 768.362 399.27 773.411 389.923 779.732C380.056 786.342 372.54 790.332 371.248 789.522ZM572.773 781.08C565.412 775.665 558.628 771.214 557.799 771.214C556.97 771.214 556.296 770.385 556.296 769.421C556.296 768.438 557.279 767.61 558.551 767.61C562.386 767.61 591.004 787.556 589.79 789.445C588.133 792.143 587.227 791.622 572.773 781.08ZM357.488 784.087C355.677 781.234 385.413 763.312 390.385 764.295C392.331 764.661 387.514 768.593 377.28 774.837C357.931 786.804 358.914 786.419 357.488 784.087ZM584.76 775.357C574.739 769.035 569.535 764.738 570.827 763.909C573.467 762.329 605.612 781.91 604.244 784.164C602.741 786.573 601.835 786.207 584.76 775.357ZM758.052 763.775L740.958 747.432L747.954 740.283C753.157 734.925 756.472 733.056 760.673 733.056C766.859 733.056 774.24 739.3 774.24 744.561C774.24 746.218 775.666 747.664 777.401 747.664C779.116 747.664 781.833 748.705 783.414 749.919C797.347 760.827 796.807 760.074 793.281 763.909C790.12 767.455 790.043 767.456 783.26 762.118C771.138 752.482 763.988 756.76 774.915 767.012C778.518 770.462 781.467 773.853 781.467 774.605C781.467 776.185 777.536 780.329 776.11 780.252C775.589 780.175 767.456 772.794 758.052 763.775ZM765.799 746.218C763.39 742.383 758.206 741.111 755.489 743.809C754.14 745.178 754.814 747.046 757.898 750.361C761.733 754.505 762.485 754.659 764.971 752.173C767.148 749.995 767.302 748.627 765.799 746.218ZM341.974 777.611C341.974 775.588 378.552 758.494 380.441 759.631C381.578 760.383 374.948 764.738 365.39 769.633C350.107 777.399 341.974 780.175 341.974 777.611ZM597.557 770.096C583.238 762.638 578.362 758.571 583.623 758.571C586.475 758.571 617.946 775.589 617.946 777.169C618.023 779.944 613.128 778.229 597.557 770.096ZM173.655 768.959L165.445 761.212L182.674 745.389C192.156 736.659 200.751 729.51 201.734 729.51C205.492 729.51 214.819 742.383 214.819 747.586C214.819 753.002 207.824 760.383 202.698 760.383C201.349 760.383 200.289 761.963 200.289 763.833C200.289 768.13 190.363 776.706 185.468 776.706C183.503 776.706 178.164 773.257 173.655 768.959ZM189.381 763.987C193.678 759.709 193.89 757.974 190.44 755.103C188.475 753.445 186.818 753.907 182.828 757.376C178.396 761.211 178.01 762.195 180.111 764.739C183.291 768.516 184.929 768.439 189.381 763.987ZM205.415 747.046C205.723 745.177 205.106 742.768 204.066 741.631C201.502 739.068 193.736 746.295 195.702 749.379C197.668 752.617 204.663 750.901 205.415 747.046ZM330.296 771.522C329.255 769.865 332.338 768.207 351.687 760.151C364.253 754.967 371.48 753.387 368.165 756.606C366.739 757.974 333.398 773.103 331.741 773.103C331.433 773.103 330.836 772.428 330.296 771.522ZM608.908 764.661C599.426 760.074 592.739 755.932 594.088 755.488C597.171 754.274 630.897 769.557 629.625 771.6C628.256 773.854 627.659 773.622 608.908 764.661ZM446.235 768.515C335.422 754.274 241.029 674.488 210.907 569.688C172.132 434.709 233.802 295.683 359.204 235.593C396.552 217.69 427.483 210.233 470.922 208.806C526.56 206.995 573.679 218.057 618.1 243.495C696.247 288.302 747.356 363.346 759.844 451.437C762.716 471.538 760.904 527.542 756.915 546.062C738.857 628.41 685.995 698.944 614.111 736.659C579.711 754.736 549.512 764.218 512.703 768.593C486.05 771.754 471.23 771.753 446.235 768.515ZM535.367 758.957C668.843 730.05 760.615 613.667 755.566 479.728C750.825 355.214 666.049 251.339 545.08 221.815C482.215 206.474 416.884 214.144 357.411 243.804C280.247 282.193 227.462 352.516 209.924 440.279C205.492 462.268 205.569 514.899 209.924 538.449C231.528 653.714 322.703 742.306 439.316 761.289C461.96 764.969 513.32 763.698 535.367 758.957ZM405.513 731.553C405.513 730.647 406.786 728.913 408.289 727.641C409.869 726.349 412.818 722.958 414.764 720.106C418.464 714.979 418.464 714.979 411.989 707.077C404.376 697.827 404.145 696.844 409.58 696.844C412.278 696.844 416.344 700.081 421.393 706.094L429.141 715.364L421.702 724.248C416.575 730.338 412.895 733.133 409.869 733.133C407.46 733.133 405.513 732.459 405.513 731.553ZM427.271 732.381C427.271 731.995 430.123 728.238 433.669 724.094C437.119 719.874 439.991 715.885 439.991 715.288C439.991 714.613 437.042 710.392 433.438 705.882C427.117 697.904 427.04 697.75 431.106 697.076C434.19 696.613 437.196 698.733 442.997 705.266C447.295 710.084 450.822 714.458 450.822 714.978C450.899 715.441 447.584 719.797 443.518 724.538C438.488 730.416 434.71 733.133 431.704 733.133C429.295 733.133 427.271 732.824 427.271 732.381ZM454.367 729.818C455.35 728.006 457.451 725.366 459.108 724.094C466.027 718.293 466.027 715.132 459.185 706.846C451.573 697.518 451.361 696.844 456.93 696.844C459.783 696.844 463.541 699.773 468.744 706.094L476.279 715.442L468.898 724.326C463.695 730.416 460.091 733.133 457.008 733.133C453.307 733.133 452.864 732.593 454.367 729.818ZM489.75 725.154C493.354 720.702 496.303 716.27 496.303 715.288C496.303 714.305 493.354 709.949 489.75 705.652C483.121 697.75 483.121 697.75 487.418 697.076C490.733 696.613 493.585 698.502 499.54 705.208C503.742 710.026 507.056 714.612 506.767 715.364C506.536 716.193 503.453 720.414 499.984 724.923C495.089 731.09 492.39 733.056 488.401 733.056C483.198 733.133 483.198 733.133 489.75 725.154ZM507.211 731.995C507.211 731.321 510.14 727.255 513.686 722.88L520.161 714.978L513.686 707.077C506.093 697.827 505.862 696.844 511.277 696.844C514.071 696.844 517.906 699.928 522.955 706.172L530.549 715.596L522.955 724.402C518.06 730.049 513.917 733.133 511.277 733.133C509.099 733.133 507.211 732.593 507.211 731.995ZM532.591 728.161C543.037 714.535 542.902 715.807 535.444 706.326C528.891 697.981 528.814 697.673 532.881 697.076C535.887 696.69 538.99 698.733 544.694 705.266C548.992 710.084 552.538 714.458 552.538 714.978C552.615 715.441 549.3 719.797 545.234 724.538C540.03 730.57 536.427 733.133 533.266 733.133C528.737 733.133 528.737 733.133 532.591 728.161ZM470.633 608.849C457.528 597.999 440.28 577.456 430.644 561.268C426.289 553.964 422.222 547.931 421.548 547.931C420.873 547.931 411.526 557.876 400.85 570.152C390.077 582.351 380.21 593.566 378.861 595.07C376.76 597.402 375.854 597.17 372 593.258C367.568 588.749 367.567 588.749 386.685 566.991C418.079 531.223 415.824 535.886 410.254 518.348C404.762 500.888 400.098 472.136 400.098 455.273C400.098 437.659 404.762 409.869 410.698 392.042L416.055 376.219L406.708 365.158C401.524 358.991 393.083 351.378 387.822 348.217C382.619 345.057 376.375 339.854 373.966 336.636C368.319 329.178 352.439 297.475 353.191 295.22C353.711 293.64 387.591 315.398 394.818 321.95C396.475 323.454 399.559 329.332 401.736 334.979C404.222 341.454 408.905 348.603 414.089 353.865L422.453 362.441L430.875 348.681C444.269 327.058 474.082 295.452 481.174 295.452C488.324 295.452 534.095 347.986 538.681 361.611C539.741 364.714 555.313 345.963 558.628 337.599C560.439 333.09 563.523 326.999 565.546 324.128C569.015 319.233 605.824 293.563 609.293 293.563C610.199 293.563 605.458 304.259 598.752 317.287C587.69 338.89 585.801 341.454 578.208 345.732C568.418 351.301 562.173 356.794 552.615 368.164L545.6 376.451L551.093 392.716C554.195 401.967 557.799 418.309 559.379 430.72C563.523 462.499 560.883 486.203 548.761 527.233C546.583 534.691 546.583 534.691 570.518 561.71C594.454 588.748 594.454 588.749 589.636 592.95C585.647 596.419 584.452 596.727 582.64 594.761C581.446 593.49 571.733 582.351 560.96 570.152C550.264 557.876 540.936 547.854 540.262 547.854C539.587 547.854 536.716 551.92 534.018 556.816C526.482 570.229 514.071 586.031 499.907 600.331C481.926 618.485 482.138 618.408 470.633 608.849ZM488.016 469.341C496.669 455.87 489.904 436.078 477.937 439.913C473.042 441.417 468.436 452.555 469.881 459.551C472.425 472.656 482.369 477.994 488.016 469.341ZM493.817 411.602C496.149 403.103 497.054 393.005 497.131 375.314C497.208 350.183 494.935 337.156 487.708 320.525C484.547 313.356 484.47 314.569 484.47 374.196C484.47 432.223 484.701 434.863 487.573 429.217C489.23 425.979 492.005 418 493.817 411.602ZM476.279 373.964C476.202 321.487 475.971 316.747 473.408 321.353C464.832 337.233 461.132 379.766 466.258 404.087C468.821 416.055 474.083 431.626 475.586 431.626C476.048 431.626 476.279 405.666 476.279 373.964ZM495.32 566.008C500.446 539.201 497.883 507.21 489.153 487.495C485.684 479.729 485.684 479.728 485.53 536.349C485.453 567.511 485.01 594.453 484.47 596.341C484.027 598.153 485.53 595.436 488.016 590.252C490.502 585.048 493.74 574.141 495.32 566.008ZM476.202 537.466C476.048 480.036 476.048 479.805 472.733 487.032C464.158 505.783 461.209 542.516 466.335 566.837C468.898 578.805 474.237 595.147 475.663 595.147C476.048 595.147 476.279 569.168 476.202 537.466ZM110.328 678.632C109.499 676.069 110.405 673.949 113.122 671.771C116.514 668.996 116.726 667.936 114.857 663.792C112.968 659.649 111.985 659.206 107.63 660.478C103.409 661.692 102.272 661.23 100.692 657.703C98.8228 653.637 99.1116 653.328 109.133 651.382C114.78 650.245 124.647 648.144 130.891 646.699C146.327 643.249 148.505 643.384 150.76 648.356C152.572 652.346 151.434 653.56 133.146 667.474C122.373 675.607 113.122 682.236 112.525 682.236C111.985 682.236 111.022 680.578 110.328 678.632ZM132.702 657.626C136.614 654.909 137.886 653.251 135.786 653.791C133.82 654.311 129.908 655.216 127.191 655.814C124.416 656.411 122.161 658.146 122.161 659.572C122.161 663.484 125.09 662.965 132.702 657.626ZM239.448 676.898C226.71 676.224 221.218 675.24 220.62 673.506C219.483 670.037 256.369 672.523 260.146 676.147C262.478 678.324 262.478 678.632 260.146 678.324C258.72 678.093 249.373 677.496 239.448 676.898ZM701.586 675.163C701.586 673.506 710.913 672.079 731.091 670.865C738.318 670.422 741.555 670.866 741.555 672.292C741.555 673.737 736.525 674.931 727.641 675.683C708.581 677.263 701.586 677.11 701.586 675.163ZM225.284 664.256C219.637 663.639 213.914 662.058 212.642 660.709C210.599 658.609 212.565 658.378 224.764 659.438C243.804 660.941 251.108 662.367 251.108 664.313C251.108 666.048 241.781 666.048 225.284 664.313V664.256ZM711.068 663.716C711.896 661.384 717.697 660.189 739.378 657.992C754.737 656.489 754.063 660.864 738.703 662.656C732.748 663.35 723.941 664.391 719.123 665.007C712.359 665.836 710.47 665.527 711.068 663.716ZM841.46 648.587C825.503 641.283 824.077 640.917 822.94 644.001C821.283 648.51 819.105 649.647 815.944 647.759C813.747 646.333 813.747 645.119 815.867 639.26C822.034 622.166 823.171 620.277 826.486 622.166C828.201 623.149 829.646 626.078 829.646 628.795C829.646 633.305 831.15 634.364 847.107 641.206C863.295 648.144 864.413 648.973 862.987 652.731C861.098 657.838 862.004 657.992 841.46 648.587ZM315.553 871.195C310.06 869.018 306.823 864.335 306.823 858.688C306.823 852.078 318.116 827.834 322.182 825.657C327.829 822.554 334.67 823.768 339.488 828.586C345.135 834.232 344.692 840.034 337.234 856.665C330.527 871.485 325.189 875.108 315.553 871.195ZM329.332 851.924C335.191 838.742 335.942 833.846 332.262 832.42C328.349 830.994 326.172 833.326 321.199 843.945C315.399 856.433 315.013 863.892 320.217 863.892C323.011 863.892 325.266 860.962 329.332 851.924ZM636.235 868.864C635.407 866.609 631.359 857.031 627.293 847.549C620.663 831.823 620.201 830.089 622.995 827.988C624.653 826.774 626.464 825.714 627.062 825.714C627.659 825.714 632.323 835.89 637.449 848.301C644.984 866.667 646.256 871.041 644.002 871.947C639.396 873.682 637.97 873.065 636.235 868.864ZM645.351 847.935C633.614 825.349 632.863 822.784 638.047 821.127C641.284 820.144 643.925 821.725 651.826 829.569C657.164 834.83 661.616 838.587 661.616 837.836C661.616 837.084 659.13 831.669 656.201 825.714C650.843 815.192 650.766 814.883 654.312 812.994C657.627 811.26 658.822 812.995 668.843 832.884C679.539 854.256 679.674 854.699 675.916 856.742C672.447 858.553 670.79 857.493 660.402 847.26L648.819 835.736L655.295 848.917C658.821 856.144 661.308 862.909 660.71 863.892C657.858 868.479 653.792 864.335 645.351 847.935ZM289.421 857.725C287.763 855.682 288.746 852.444 294.026 842.731L300.791 830.243L292.735 839.127C288.38 844.022 284.082 849.13 283.253 850.498C281.596 853.35 280.247 853.504 276.932 851.461C275.121 850.267 275.583 847.106 279.187 836.564C281.673 829.183 283.485 822.939 283.176 822.63C282.868 822.418 279.861 827.448 276.412 833.923C270.226 845.602 268.645 846.952 264.29 844.235C262.71 843.194 265.041 837.393 273.097 822.94C279.187 811.955 284.468 802.685 284.834 802.319C285.431 801.702 296.512 805.69 296.512 806.519C296.512 806.75 294.47 812.994 292.061 820.375L287.551 833.847L297.553 823.305C307.497 812.783 307.574 812.706 312.161 815.713C315.322 817.736 316.459 819.701 315.63 821.725C313.587 827.082 293.872 860.134 292.658 860.192C292.061 860.192 290.558 859.074 289.421 857.725ZM685.629 832.19C680.888 824.674 676.147 817.138 674.933 815.327C673.121 812.475 672.37 812.397 668.843 814.498C665.451 816.54 664.468 816.54 663.196 814.498C660.325 809.988 661.539 808.331 672.986 801.625C683.894 795.149 684.356 795.091 685.937 798.541C687.209 801.258 686.766 802.761 684.202 804.65C680.965 807.059 681.254 807.965 690.524 823.248C695.862 832.113 700.526 839.802 700.834 840.322C701.065 840.862 699.697 842.365 697.828 843.559C694.59 845.525 693.453 844.466 685.629 832.19ZM711.222 832.575C707.232 827.372 707.001 825.791 710.393 824.057C713.033 822.631 714.536 822.94 716.791 825.503C719.508 828.509 719.508 828.952 716.348 831.824C713.63 834.233 712.571 834.387 711.145 832.575H711.222ZM241.857 830.609C232.819 823.613 233.802 817.216 246.675 799.158C256.157 785.822 262.922 782.969 270.823 788.905C280.613 796.132 276.855 810.22 260.513 827.988C255.483 833.403 247.042 834.598 241.857 830.609ZM261.573 811.415C267.663 802.318 268.877 799.293 267.296 797.347C263.596 792.895 260.667 794.552 253.074 805.248C244.556 817.215 243.284 824.442 249.759 823.536C252.457 823.17 256.523 818.95 261.573 811.415ZM438.179 822.033C376.452 813.534 320.814 789.579 273.02 751.113C176.507 673.428 131.045 554.715 151.281 433.206C174.619 293.274 283.562 183.887 425.46 157.909C450.147 153.399 512.26 153.477 536.272 157.986C572.176 164.828 607.636 176.738 632.477 190.363C663.428 207.36 689.618 225.438 687.652 228.598C686.978 229.658 687.363 229.947 688.404 229.272C694.205 225.745 737.354 271.208 758.726 303.508C786.054 344.672 806.752 396.167 799.158 403.779C796.749 406.111 795.767 404.299 790.564 388.573C767.457 317.885 722.13 258.643 657.993 215.282C650.246 210.001 644.368 204.74 644.368 203.005C644.368 201.348 642.942 199.768 641.13 199.382C639.396 199.093 637.97 199.613 637.97 200.596C637.97 201.579 629.625 198.495 619.372 193.735C590.773 180.418 567.203 172.96 531.763 166.119C512.183 162.284 445.483 162.882 424.554 167.102C322.934 187.28 240.952 247.273 192.541 337.079C152.186 411.912 144.285 507.441 171.458 591.369C188.398 643.846 225.053 699.33 265.639 733.962C323.454 783.336 386.608 809.911 457.085 814.498C557.047 820.973 645.273 786.959 714.767 715.056C760.827 667.339 788.155 614.034 801.78 545.156C806.752 520.007 807.349 465.583 802.917 440.222C801.105 429.815 800.797 424.168 802.011 423.802C803.206 423.417 802.763 420.949 800.951 417.326C799.371 414.088 798.85 411.988 799.756 412.586C800.739 413.106 801.49 412.354 801.49 410.774C801.49 405.127 804.651 408.133 806.675 415.668C813.613 441.261 816.696 481.694 814.133 513.762C808.563 582.948 784.32 644.907 742.23 697.441C691.642 760.383 622.321 802.916 544.482 818.487C522.05 823.016 460.168 825.04 438.179 821.956V822.033ZM765.125 821.648C765.125 818.121 791.103 795.015 795.169 794.938C799.448 794.783 806.906 790.042 806.906 787.325C806.906 786.284 805.171 786.053 802.84 786.805C799.004 788 798.928 787.864 801.626 784.627C803.206 782.738 810.066 774.683 816.85 766.704C833.25 747.278 858.689 708.658 871.042 684.491C922.228 583.931 933.078 469.496 901.684 360.572C880.755 287.917 848.61 232.818 791.7 171.997C784.396 164.153 784.319 163.999 789.214 164.905C791.932 165.522 794.186 165.213 794.186 164.308C794.186 160.01 799.371 164.693 816.985 185.005C890.7 270.225 928.627 371.479 928.627 483.429C928.627 604.398 883.531 714.689 799.217 799.832C789.138 810.065 780.484 818.044 779.945 817.524C779.502 817.062 777.921 818.275 776.572 820.299C773.778 824.211 765.125 825.271 765.125 821.648ZM724.48 795.458C713.553 773.777 712.879 769.422 720.414 767.899C722.071 767.61 730.937 773.179 740.206 780.406C762.253 797.635 761.212 796.44 757.146 799.446C754.217 801.566 753.234 801.566 749.919 799.292C745.39 796.132 745.101 796.132 741.035 799.216C738.241 801.259 738.106 802.376 739.898 806.385C741.941 810.817 739.898 816.618 736.294 816.618C735.697 816.618 730.339 807.059 724.48 795.458ZM733.056 785.456C726.196 778.287 724.77 779.057 729.357 787.401C732.382 792.894 733.808 794.108 735.697 792.605C737.566 791.025 737.046 789.58 733.056 785.456ZM215.051 810.065C211.138 807.348 211.061 806.982 214.068 803.744C216.4 801.104 217.768 800.796 219.637 802.319C222.875 805.017 224.841 803.204 237.714 786.496C246.521 774.913 248.391 773.333 250.954 775.202C252.534 776.494 254.191 777.69 254.577 777.921C254.943 778.229 251.416 783.566 246.598 789.81C228.367 813.457 223.935 816.31 215.051 810.065ZM135.709 721.839C134.649 718.679 135.786 716.713 140.97 712.358C147.156 707.154 149.18 702.567 146.463 699.927C145.865 699.252 141.798 701.2 137.52 704.148C128.25 710.547 128.251 710.546 125.842 705.882C124.03 702.645 125.688 701.064 142.396 690.291C152.649 683.662 161.976 677.881 163.248 677.418C166.428 676.146 174.85 690.137 174.85 696.69C174.85 702.568 168.451 708.291 161.379 708.735C159.259 708.889 153.612 712.801 148.736 717.465C138.638 727.024 137.443 727.409 135.709 721.839ZM162.882 699.331C164.462 698.733 165.734 696.381 165.734 694.203C165.734 687.208 163.942 686.977 154.98 693.009C152.783 694.435 152.784 695.187 154.749 697.596C157.39 700.679 158.584 700.988 162.882 699.331ZM263.384 722.957C260.301 719.873 262.844 718.967 278.821 717.541C300.791 715.518 302.448 715.518 303.277 717.927C303.739 719.199 298.69 720.336 289.343 721.088C281.365 721.762 272.557 722.745 269.782 723.343C266.988 723.863 264.136 723.709 263.384 723.034V722.957ZM681.408 721.454C680.965 721.01 675.839 720.414 670.038 720.106C659.65 719.508 656.201 718.139 659.727 715.962C662.291 714.304 701.586 718.89 700.449 720.702C699.562 722.205 682.834 722.88 681.408 721.454ZM809.546 718.968C796.441 711.664 786.883 703.685 785.746 699.099C784.242 693.009 788.231 685.782 794.861 682.544C799.371 680.347 800.874 680.655 810.066 685.319C830.919 695.784 837.085 706.634 828.587 717.465C824.135 723.034 817.736 723.574 809.546 718.968ZM824.751 709.197C825.503 705.265 801.105 688.557 796.962 690.137C791.238 692.334 794.341 697.749 805.557 705.496C817.139 713.398 823.691 714.689 824.751 709.197ZM251.86 711.066C251.262 710.083 251.031 709.043 251.416 708.735C253.286 707.077 290.866 705.883 291.829 707.463C292.504 708.504 288.977 709.64 283.408 710.238C259.992 712.57 252.92 712.8 251.86 711.066ZM678.402 710.026C663.871 708.966 668.843 705.882 684.877 705.882C701.509 705.959 712.802 707.54 711.453 709.718C710.47 711.298 698.117 711.375 678.402 709.949V710.026ZM239.507 698.867C238.389 697.152 277.684 694.281 280.324 695.938C281.23 696.536 281.981 697.75 281.981 698.733C281.981 700.834 240.798 700.987 239.507 698.867ZM691.044 699.099C671.772 697.981 680.348 694.955 702.8 694.955C721.301 694.955 723.575 695.341 721.532 697.75C719.277 700.448 717.022 700.525 691.044 699.099ZM116.803 691.506C114.548 687.286 114.105 687.574 140.295 673.274C156.021 664.698 157.678 664.178 159.798 667.031C160.993 668.688 161.61 670.712 161.148 671.54C160.473 672.6 126.67 691.641 120.041 694.667C119.366 694.956 117.863 693.53 116.803 691.506ZM820.069 683.971C808.853 677.939 799.679 672.445 799.679 671.771C799.833 668.09 808.486 655.737 812.244 653.848C817.891 651.073 827.006 654.388 829.569 660.112C830.687 662.521 833.019 664.102 835.428 664.102C841.306 664.102 854.18 669.594 854.102 672.003C854.025 677.88 851.25 678.767 842.886 675.683C828.355 670.268 823.691 675.472 836.873 682.468C845.449 686.977 845.758 687.44 843.946 692.104C842.443 696.093 842.964 696.247 820.069 683.971ZM822.342 667.55C822.342 660.555 810.741 660.864 810.587 667.936C810.51 669.439 818.353 673.063 820.531 672.446C821.514 672.234 822.342 670.037 822.342 667.55ZM238.832 688.191C233.648 687.806 229.35 686.746 229.35 685.782C229.35 682.988 269.705 684.414 270.688 687.286C271.44 689.54 262.247 689.849 238.832 688.191ZM691.642 686.225C694.436 683.584 732.748 682.158 731.92 684.721C731.476 686.07 724.095 686.977 710.547 687.362C697.982 687.651 690.524 687.208 691.642 686.225ZM686.824 49.0628C684.723 46.4997 684.877 46.1905 687.806 46.788C689.695 47.1734 691.584 48.4456 692.027 49.7368C693.087 52.9745 689.772 52.5124 686.824 49.0628Z" fill="#8550DC"/>
</svg>
