<svg width="958" height="902" viewBox="0 0 958 902" fill="none" xmlns="http://www.w3.org/2000/svg">
<path fill-rule="evenodd" clip-rule="evenodd" d="M439.895 900.397C331.767 889.359 256.849 857.74 196.577 797.563C162.631 763.712 141.22 725.968 128.686 677.851C123.416 657.459 121.754 653.922 117.196 652.712C107.084 650.029 84.1762 637.234 82.7994 633.626C82.0635 631.585 79.6425 630.279 77.4111 630.825C70.5507 632.321 42.6345 616.748 28.8188 603.574C20.4866 595.597 12.9614 585.675 8.33246 576.227C1.09228 561.391 1.09231 561.39 0.356423 496.276C-0.0946055 451.696 0.450993 431.186 2.04146 431.186C3.41828 431.186 4.43934 430.07 4.43934 428.788C4.43934 427.483 3.41874 427.032 2.20808 427.768C0.736305 428.693 0 414.498 0 386.676C0.0949533 347.461 0.451394 343.093 5.27027 331.414C12.0357 315.01 20.2963 303.236 22.6227 306.845C23.7384 308.791 24.6641 308.791 25.7798 307.034C26.6106 305.634 26.706 303.497 25.9464 302.31C23.169 297.658 40.9727 285.789 81.494 265.112L123.416 243.701L127.499 226.087C152.258 119.074 250.084 35.5156 381.095 9.37969C503.419 -15.0233 638.063 9.18981 720.387 70.3872C746.998 90.1375 762.309 104.974 760.552 109.532C759.626 112.024 760.172 112.665 762.688 111.644C766.297 110.268 776.504 121.021 788.089 138.73C794.308 148.011 794.379 152.925 788.278 152.925C786.593 152.925 783.721 154.397 781.869 156.249C778.997 159.121 777.786 158.385 772.326 150.124C768.433 144.19 767.033 140.391 768.695 139.845C773.063 138.445 771.591 134.552 766.938 135.288C763.971 135.763 758.226 131.395 749.419 122.327C685.895 56.1204 592.532 21.3437 478.375 21.5099C366.069 21.6048 276.124 53.794 213.265 116.392C176.352 153.091 157.528 188.343 144.187 245.742C141.314 258.157 141.314 258.157 96.6151 280.97C72.046 293.575 49.4233 306.109 46.361 308.981C42.824 312.304 39.2159 313.705 36.2486 312.969C31.3348 311.663 29.673 314.726 34.4918 316.387C36.5333 317.147 36.1537 318.619 33.2813 321.966C31.0499 324.458 27.1567 332.34 24.6641 339.39C20.2963 351.829 20.2013 357.004 20.771 454.568C21.412 556.738 21.4121 556.738 27.4416 568.061C37.9102 588.001 51.9157 598.47 98.8464 622.018L141.766 643.454L147.795 669.139C179.13 801.361 318.972 887.033 493.211 880.837C513.697 880.077 525.305 880.552 526.872 882.119C528.534 883.804 529.27 883.709 529.27 881.953C529.27 880.457 533.092 878.701 537.721 877.965C587.429 870.155 632.294 857.099 663.819 841.147C684.78 830.583 720.672 807.296 726.986 800.245C732.351 794.216 734.298 794.121 735.793 799.889C737.36 806.18 741.728 805.634 740.422 799.415C739.401 794.691 739.496 794.596 742.559 798.204C744.315 800.435 746.998 802.192 748.398 802.192C754.879 802.192 746.641 811.569 726.891 826.666C715.212 835.568 712.981 835.663 714.263 827.141C715.284 819.901 712.245 818.334 705.74 822.678C702.773 824.648 702.868 825.384 706.477 828.067C713.622 833.55 709.823 839.105 691.379 850.048C657.623 870.084 609.956 886.392 560.913 894.843C533.637 899.472 463.064 902.724 439.895 900.397ZM538.267 887.033C539.857 885.086 540.142 883.614 538.836 883.614C537.626 883.614 535.299 885.086 533.733 887.033C532.166 888.908 531.976 890.38 533.258 890.38C534.469 890.38 536.795 888.908 538.267 887.033ZM552.177 882.024C550.136 878.701 549.78 878.606 549.685 881.573C549.59 885.371 552.011 888.813 553.578 887.128C554.124 886.677 553.483 884.35 552.177 882.119V882.024ZM689.883 841.788C692.21 839.01 692.02 838.369 689.052 838.369C687.011 838.369 685.349 839.936 685.349 841.788C685.349 843.639 685.705 845.135 686.18 845.135C686.631 845.135 688.317 843.639 689.883 841.788ZM107.464 634.647C109.885 630.659 107.179 629.804 104.022 633.626C102.265 635.739 102.075 637.045 103.57 637.045C104.876 637.045 106.633 635.929 107.464 634.647ZM15.7623 401.608C15.7623 400.492 14.7417 399.566 13.531 399.566C12.2254 399.566 11.2049 401.157 11.2049 403.103C11.2049 404.955 12.2254 405.976 13.531 405.145C14.7417 404.385 15.7623 402.818 15.7623 401.608ZM117.576 257.042C117.576 255.76 116.555 254.739 115.345 254.739C114.039 254.739 113.019 255.76 113.019 257.042C113.019 258.252 114.039 259.273 115.345 259.273C116.555 259.273 117.576 258.252 117.576 257.042ZM156.887 190.1C159.308 183.88 158.454 181.672 154.845 184.64C151.237 187.678 150.311 193.708 153.54 193.708C154.656 193.708 156.151 192.046 156.887 190.1ZM741.823 106.564C740.232 104.594 738.57 103.597 737.929 104.143C736.339 105.71 739.591 109.983 742.274 109.983C743.769 109.983 743.674 108.677 741.823 106.564ZM414.305 864.315C385.463 859.971 350.971 851.425 327.969 842.903C240.161 810.643 176.257 742.751 154.845 659.406C152.804 651.43 149.741 642.789 148.08 640.202C146.418 637.614 130.181 627.858 111.998 618.695C73.8978 599.396 61.1026 590.399 49.1385 574.826C32.6404 553.035 31.6195 545.984 31.6195 450.77C31.7144 358.119 32.4504 351.544 45.2454 331.509C56.3786 314.275 68.6989 305.088 108.389 284.507C128.519 274.109 146.228 263.451 147.89 260.768C149.552 258.062 153.635 246.288 156.982 234.609C183.046 141.887 259.175 73.9242 367.185 46.6489C504.345 12.0621 653.255 44.2511 735.224 126.03C769.169 159.88 788.184 193.162 802.925 244.816C805.418 253.623 809.216 262.335 811.447 264.282C813.584 266.228 831.008 275.771 850.212 285.599C891.564 306.749 905.475 318.714 916.703 342.262C924.014 357.668 924.015 357.668 924.015 450.58C924.015 543.397 924.014 543.397 915.397 560.726C904.003 583.918 892.395 593.556 849.832 615.443C830.937 625.175 813.679 634.647 811.542 636.499C809.501 638.255 804.041 651.596 799.483 666.077C785.311 711.417 766.392 743.962 736.98 773.54C716.399 794.216 712.245 790.798 732.256 769.647C762.214 738.122 783.721 701.114 794.023 663.109C802.545 631.775 800.148 634.077 850.402 608.487C885.629 590.494 901.392 576.963 911.125 556.192C917.154 543.207 917.154 543.207 918.365 470.781C919.86 375.282 918.839 360.897 909.463 341.906C899.73 322.156 889.712 314.085 845.583 290.797C825.358 280.139 807.008 268.911 804.682 265.849C802.45 262.715 797.442 249.73 793.738 236.84C764.706 136.783 679.225 67.7997 556.355 45.4382C528.083 40.3344 455.088 38.3879 425.7 42.0199C340.764 52.4885 275.863 81.1407 225.87 130.374C194.346 161.542 175.901 192.687 162.726 237.291C159.023 249.991 154.204 262.81 151.973 265.777C149.836 268.744 131.748 279.664 111.903 289.967C69.9098 311.948 58.0402 321.206 47.3817 341.051C39.5006 355.437 39.5006 355.437 39.5006 450.39C39.5006 545.438 39.5007 545.438 47.2868 559.705C58.3252 580.025 71.3099 590.304 112.852 611.834C132.958 622.208 150.857 632.962 152.614 635.668C154.466 638.35 159.118 651.24 162.916 664.32C193.966 768.816 282.985 838.369 409.842 857.455C518.422 873.787 634.62 849.028 704.174 794.691C709.728 790.323 713.526 788.756 715.022 790.228C718.084 793.29 683.308 817.598 657.623 830.108C630.727 843.283 603.001 852.446 567.678 859.971C542.919 865.17 533.092 866.001 487.372 866.736C450.174 867.377 429.403 866.642 414.305 864.315ZM447.681 854.036C356.241 846.796 266.771 801.836 207.615 733.493C188.221 711.132 171.248 686.017 174.691 684.806C176.162 684.331 178.394 685.732 179.699 687.963C188.886 703.725 212.055 732.093 230.974 750.632C277.81 796.542 337.606 828.162 406.519 843.378C436.927 850.143 515.644 850.689 545.127 844.47C587.239 835.497 626.265 820.732 658.905 801.361C668.661 795.617 677.183 790.893 677.729 790.893C678.394 790.893 680.435 789.302 682.287 787.45C685.895 783.842 689.883 783.011 689.788 785.789C689.788 786.715 680.601 793.385 669.587 800.53C607.369 840.957 527.062 860.256 447.681 854.036ZM424.038 839.746C328.61 823.984 248.137 774.371 194.82 698.337C188.886 689.91 186.37 684.521 188.222 684.521C189.907 684.521 195.556 690.551 200.755 697.886C248.873 766.134 321.394 813.04 407.611 831.675C435.266 837.705 492.286 840.031 520.653 836.233C616.532 823.628 695.818 777.243 753.953 699.643C761.288 689.91 767.863 682.575 768.528 683.216C771.59 686.278 745.882 719.298 721.693 743.511C673.575 791.628 619.499 821.016 550.8 836.423C524.451 842.357 451.384 844.209 424.038 839.746ZM433.129 827.877C344.301 814.726 269.644 772.994 217.158 707.144C208.446 696.2 201.301 686.183 201.301 684.806C201.301 679.512 205.194 682.765 214.096 695.275C256.659 755.095 325.642 799.035 407.445 818.334C436.287 825.194 513.056 825.835 542.824 819.64C581.589 811.379 629.161 792.554 654.086 775.581C668.282 765.849 674.026 763.071 674.026 765.944C674.026 772.234 623.867 799.699 591.583 810.999C552.652 824.72 534.848 827.687 485.14 828.257C460.286 828.613 436.833 828.447 433.129 827.877ZM446.114 815.747C359.493 806.75 279.282 764.638 229.028 701.969C211.224 679.702 215.497 678.492 234.131 700.568C281.323 756.472 350.781 795.617 424.774 807.842C459.455 813.61 519.371 811.664 552.011 803.782C592.247 793.955 622.467 780.78 657.979 757.398C675.332 746.003 715.663 708.449 731.236 689.34C734.678 685.091 738.096 682.29 738.855 683.049C741.158 685.352 728.838 700.188 704.53 724.496C658.644 770.383 599.298 801.076 534.943 812.21C510.54 816.482 468.998 818.049 446.114 815.747ZM437.664 802.857C364.502 793.385 292.836 755.641 245.431 701.684C226.25 679.797 232.47 680.177 252.481 702.04C292.362 745.719 350.401 778.928 412.548 793.575C440.821 800.245 509.354 800.815 538.172 794.501C602.716 780.495 657.623 749.802 700.542 703.915C710.749 693.067 720.197 684.426 721.598 684.901C725.491 686.183 686.821 726.158 667.356 740.9C623.677 774.11 574.634 794.596 521.674 801.907C505.176 804.234 452.785 804.803 437.664 802.857ZM753.217 797.943C753.217 795.142 752.196 793.48 751.081 794.216C749.87 794.881 746.262 794.881 742.915 794.026C737.075 792.554 737.075 792.554 744.41 784.958C752.101 776.982 756.92 776.222 749.799 784.103C745.882 788.471 747.188 790.038 754.048 788.756C755.069 788.566 757.3 789.587 758.867 790.893C761.003 792.649 762.119 792.554 762.855 790.418C763.425 788.851 764.54 788.091 765.276 788.756C766.107 789.492 763.686 793.005 759.983 796.542C753.407 802.857 753.217 802.928 753.217 797.943ZM426.364 787.166C384.347 779.664 342.52 762.691 308.313 739.143C287.353 724.853 254.902 696.295 250.819 688.604C245.621 678.871 251.555 682.48 267.318 698.622C306.818 739.048 360.799 768.436 418.388 780.875C445.734 786.81 509.163 786.905 535.964 780.97C594.74 768.08 643.522 742.015 683.854 702.04C702.393 683.595 707.972 679.512 707.972 684.165C707.972 686.183 674.667 718.657 663.819 727.179C626.455 756.567 575.75 779.285 529.46 787.166C503.039 791.723 451.479 791.723 426.364 787.166ZM692.115 780.685C692.115 778.833 692.851 777.243 693.776 777.243C697.124 777.243 725.775 751.012 740.802 734.324C749.134 724.948 761.098 709.47 767.412 699.832C777.881 683.69 782.605 678.966 782.605 684.331C782.605 686.373 766.202 711.322 759.152 719.939C740.137 743.321 728.078 756.021 712.886 768.911C693.681 785.053 692.115 785.979 692.115 780.685ZM437.664 778.098C435.171 777.623 427.551 776.151 420.691 774.845C386.579 768.27 346.247 751.392 315.269 730.787C294.498 716.971 260.267 685.922 262.878 683.311C263.709 682.385 270.854 687.583 278.735 694.919C322.77 736.081 373.689 761.576 432.655 771.878C462.992 777.172 515.834 775.13 545.127 767.51C596.046 754.359 636.472 732.093 674.216 696.485C682.928 688.319 690.714 682.385 691.64 683.311C693.966 685.732 657.813 719.108 640.175 730.787C606.42 753.149 566.278 769.457 528.344 776.056C510.089 779.19 450.269 780.59 437.664 778.098ZM774.463 771.047C774.629 764.282 773.893 762.596 770.736 762.881C764.897 763.332 765.727 760.65 775.84 745.814C792.172 721.885 808.029 681.364 813.037 650.409C814.319 642.433 814.794 642.053 856.977 621.567C901.036 600.226 919.005 587.716 926.625 572.975C930.044 566.304 930.329 566.209 933.391 570.387C936.263 574.28 935.979 575.206 930.875 578.909C927.741 581.236 925.13 584.749 925.13 586.696C925.13 588.642 923.468 592.179 921.332 594.387C917.914 598.28 917.914 598.565 921.427 598.565C923.563 598.565 925.889 596.808 926.72 594.577C928.287 590.138 942.744 575.942 945.711 575.942C949.533 575.942 947.658 580.12 938.946 591.23C925.13 608.677 915.587 615.253 873.119 636.855L833.524 656.985L828.135 677.946C819.613 711.322 804.777 742.3 784.101 769.837C775.294 781.611 774.083 781.801 774.463 771.047ZM817.667 673.222C816.931 672.011 815.341 670.99 814.13 670.99C812.943 670.99 812.017 672.011 812.017 673.222C812.017 674.409 813.584 675.429 815.53 675.429C817.477 675.429 818.402 674.409 817.667 673.222ZM836.871 648.368C836.871 647.062 833.809 646.041 830.082 646.041C826.379 646.041 823.316 647.062 823.316 648.368C823.316 649.578 826.379 650.575 830.082 650.575C833.904 650.575 836.871 649.578 836.871 648.368ZM676.257 764.448C676.257 763.617 687.391 752.413 700.827 739.689C714.358 726.894 731.235 708.734 738.476 699.358C750.155 684.07 755.448 679.251 755.448 683.785C755.448 688.058 727.722 720.603 707.877 739.689C686.726 760.009 676.257 768.175 676.257 764.448ZM433.129 760.365C392.869 754.074 355.6 739.784 320.729 717.256C302.569 705.482 278.546 686.658 278.261 683.975C278 679.251 286.521 683.785 305.726 698.242C334.093 719.773 373.594 738.953 408.275 748.14C433.77 754.905 437.759 755.38 476.049 755.451C510.089 755.641 520.297 754.81 537.531 750.727C580.735 740.615 628.591 717.256 658.074 691.856C668.187 683.144 677.824 679.061 675.878 684.331C674.026 689.625 638.063 716.615 618.289 727.559C563.406 757.968 494.873 770.122 433.129 760.365ZM454.731 733.754C454.731 732.188 456.203 728.39 457.983 725.232C459.74 722.17 461.307 718.823 461.307 717.897C461.497 714.194 448.322 716.425 444.429 720.698C438.59 727.179 435.907 726.348 437.569 718.562C438.4 714.93 437.854 709.755 436.453 707.049C433.035 700.758 435.337 698.622 440.631 703.346C444.714 707.049 461.402 708.734 461.402 705.482C461.402 704.556 459.36 700.663 456.868 696.96C448.061 683.69 452.049 683.405 467.978 696.105C478.755 704.651 480.606 705.387 489.959 704.271C502.398 702.895 508.879 704.366 508.879 708.544C508.879 711.702 505.46 712.817 488.392 715.025C479.941 716.141 476.144 718.277 468.073 726.443C457.889 736.817 454.541 738.668 454.731 733.754ZM359.588 713.909C359.588 712.722 363.196 711.702 367.564 711.702C371.932 711.702 375.445 712.722 375.445 713.909C375.445 715.215 371.932 716.236 367.564 716.236C363.196 716.236 359.588 715.215 359.588 713.909ZM379.98 713.909C379.98 712.722 383.516 711.702 387.789 711.702C392.038 711.702 396.122 712.722 396.953 713.909C397.783 715.31 394.745 716.236 389.166 716.236C384.063 716.236 379.98 715.215 379.98 713.909ZM402.626 713.909C402.626 712.722 406.139 711.702 410.507 711.702C414.851 711.702 418.388 712.722 418.388 713.909C418.388 715.215 414.851 716.236 410.507 716.236C406.139 716.236 402.626 715.215 402.626 713.909ZM522.505 713.909C522.505 712.722 526.042 711.702 530.386 711.702C534.754 711.702 538.267 712.722 538.267 713.909C538.267 715.215 534.754 716.236 530.386 716.236C526.042 716.236 522.505 715.215 522.505 713.909ZM542.824 713.909C542.824 712.722 546.432 711.702 550.8 711.702C555.144 711.702 558.681 712.722 558.681 713.909C558.681 715.215 555.144 716.236 550.8 716.236C546.432 716.236 542.824 715.215 542.824 713.909ZM565.447 713.909C565.447 712.722 569.055 711.702 573.423 711.702C577.696 711.702 581.304 712.722 581.304 713.909C581.304 715.215 577.696 716.236 573.423 716.236C569.055 716.236 565.447 715.215 565.447 713.909ZM359.588 707.144C359.588 705.957 363.196 704.936 367.564 704.936C371.932 704.936 375.445 705.957 375.445 707.144C375.445 708.449 371.932 709.47 367.564 709.47C363.196 709.47 359.588 708.449 359.588 707.144ZM379.98 707.144C379.98 705.957 383.516 704.936 387.789 704.936C392.038 704.936 396.122 705.957 396.953 707.144C397.783 708.544 394.745 709.47 389.166 709.47C384.063 709.47 379.98 708.449 379.98 707.144ZM402.626 707.144C402.626 705.957 406.139 704.936 410.507 704.936C414.851 704.936 418.388 705.957 418.388 707.144C418.388 708.449 414.851 709.47 410.507 709.47C406.139 709.47 402.626 708.449 402.626 707.144ZM522.505 707.144C522.505 705.957 526.042 704.936 530.386 704.936C534.754 704.936 538.267 705.957 538.267 707.144C538.267 708.449 534.754 709.47 530.386 709.47C526.042 709.47 522.505 708.449 522.505 707.144ZM542.824 707.144C542.824 705.957 546.432 704.936 550.8 704.936C555.144 704.936 558.681 705.957 558.681 707.144C558.681 708.449 555.144 709.47 550.8 709.47C546.432 709.47 542.824 708.449 542.824 707.144ZM565.447 707.144C565.447 705.957 569.055 704.936 573.423 704.936C577.696 704.936 581.304 705.957 581.304 707.144C581.304 708.449 577.696 709.47 573.423 709.47C569.055 709.47 565.447 708.449 565.447 707.144ZM359.683 700.378C359.683 699.168 363.196 698.147 367.564 698.147C371.932 698.147 375.445 699.168 375.445 700.378C375.445 701.589 371.932 702.61 367.564 702.61C363.196 702.61 359.683 701.589 359.683 700.378ZM379.98 700.378C379.98 699.168 383.516 698.147 387.789 698.147C392.038 698.147 396.217 699.168 396.953 700.378C397.783 701.779 394.745 702.61 389.166 702.61C384.158 702.61 379.98 701.589 379.98 700.378ZM402.626 700.378C402.626 699.168 406.139 698.147 410.507 698.147C414.851 698.147 418.483 699.168 418.483 700.378C418.483 701.589 414.851 702.61 410.507 702.61C406.139 702.61 402.626 701.589 402.626 700.378ZM522.505 700.378C522.505 699.168 526.042 698.147 530.386 698.147C534.754 698.147 538.362 699.168 538.362 700.378C538.362 701.589 534.754 702.61 530.386 702.61C526.042 702.61 522.505 701.589 522.505 700.378ZM542.824 700.378C542.824 699.168 546.432 698.147 550.8 698.147C555.144 698.147 558.681 699.168 558.681 700.378C558.681 701.589 555.144 702.61 550.8 702.61C546.432 702.61 542.824 701.589 542.824 700.378ZM565.447 700.378C565.447 699.168 569.055 698.147 573.423 698.147C577.767 698.147 581.304 699.168 581.304 700.378C581.304 701.589 577.767 702.61 573.423 702.61C569.055 702.61 565.447 701.589 565.447 700.378ZM944.429 568.251C941.913 566.755 939.421 565.378 938.946 565.189C938.495 564.904 939.421 563.052 940.892 561.201C942.934 558.779 943.029 557.759 941.272 557.759C939.871 557.759 938.756 558.779 938.756 559.99C938.756 561.201 938.02 562.221 936.999 562.221C936.074 562.221 935.717 531.979 936.168 494.995C936.809 431.946 937.189 427.578 941.177 424.8C946.922 420.812 946.732 416.634 940.987 418.13C936.904 419.222 936.453 418.201 936.453 407.258C936.453 396.504 936.999 395.032 941.557 394.202C946.661 393.181 946.661 393.181 941.818 391.59C937.474 390.119 936.904 387.887 935.979 366.831C935.148 346.986 934.127 342.167 928.762 332.245C918.174 312.969 908.442 305.634 860.419 281.065C815.53 257.967 815.53 257.967 812.563 246.668C804.041 213.553 799.483 199.642 791.246 181.744C782.059 161.993 781.228 153.186 788.73 156.059C790.771 156.913 793.192 156.344 794.118 154.872C796.895 150.314 800.883 155.038 810.07 174.052C817.951 190.289 825.738 212.532 831.672 236.104C833.334 242.87 836.111 245.006 858.378 256.496C879.505 267.439 883.232 270.121 883.327 274.75C883.327 277.813 884.704 280.685 886.366 281.255C888.597 281.99 889.071 280.97 887.956 277.551C885.914 271.142 888.051 271.427 903.813 279.949C922.827 290.061 943.693 311.948 950.269 328.446C954.708 339.675 955.634 346.725 956.393 373.977C957.129 404.29 956.844 406.071 953.046 404.86C949.153 403.649 949.153 403.744 952.857 406.807C956.394 409.679 956.844 414.878 956.844 453.168C956.844 485.523 956.109 496.561 954.067 497.392C951.741 498.318 951.741 498.603 954.067 498.698C959.907 499.172 956.488 566.399 950.364 569.913C949.533 570.387 946.922 569.628 944.429 568.251ZM924.679 311.568C925.961 307.485 921.332 308.34 919.765 312.494C918.934 314.726 919.386 315.746 921.047 315.2C922.543 314.726 924.109 313.064 924.679 311.568ZM798.937 163.679C797.275 161.993 796.254 161.922 796.254 163.299C796.254 166.361 798.937 168.949 800.409 167.477C801.074 166.836 800.314 165.151 798.937 163.679ZM123.226 559.99C122.49 558.779 122.49 556.738 123.226 555.456C124.152 553.96 168.376 553.225 248.588 553.225C316.836 553.225 377.297 552.584 383.042 551.729C395.576 550.067 394.555 553.865 398.448 493.784L401.13 451.411H409.842C414.851 451.411 418.934 452.622 419.48 454.283C419.955 455.755 421.616 478.211 423.112 503.991L425.984 550.898H439.8C447.301 550.898 454.636 550.162 456.037 549.237C457.509 548.216 460.025 526.519 462.233 495.54C468.262 413.952 466.885 420.148 478.565 420.148C490.054 420.148 489.769 419.317 491.906 455.945C494.232 494.164 497.84 540.619 498.956 545.984C499.977 550.803 500.902 551.088 515.193 550.447L530.386 549.783L533.186 513.724C534.658 493.879 536.225 471.992 536.51 465.132C537.246 452.527 537.246 452.527 546.433 451.862L555.619 451.221L559.038 500.003C560.984 526.804 563.311 549.521 564.236 550.447C565.162 551.373 605.042 552.394 652.899 552.75C707.402 553.13 739.306 554.245 738.476 555.551C737.74 556.738 738.76 557.759 740.707 557.759C742.653 557.759 744.22 556.738 744.22 555.456C744.22 552.014 812.658 552.489 816.171 555.907C818.213 558.043 818.877 558.043 818.877 555.812C818.877 554.055 821.18 553.225 825.073 553.676C828.8 554.055 831.292 555.717 831.292 557.759C831.292 560.726 790.32 561.201 477.995 561.747C241.918 562.126 124.247 561.652 123.321 560.085L123.226 559.99ZM158.287 494.52C158.287 493.404 159.379 489.701 160.685 486.282C162.726 480.799 162.181 479.493 155.581 473.749L148.175 467.458L157.528 467.363C166.335 467.268 167.189 466.698 169.587 459.387C171.082 455.019 173.029 451.411 173.86 451.411C174.785 451.411 176.827 455.019 178.394 459.387C181.005 466.698 181.931 467.268 190.737 467.363H200.186L192.589 473.654C185.444 479.588 185.159 480.443 187.296 488.324C190.002 497.962 189.527 498.246 181.1 492.312C174.975 487.944 174.88 487.944 167.735 492.312C159.474 497.226 158.287 497.582 158.287 494.52ZM763.235 493.048C767.602 481.44 767.222 479.137 759.626 473.749L752.102 468.384L762.214 467.268C771.306 466.247 772.516 465.417 774.463 458.722C777.145 449.274 779.377 449.464 782.605 459.292C785.027 466.603 785.952 467.268 794.664 467.363H804.136L796.801 473.654C790.13 479.422 789.656 480.514 791.697 487.564C794.474 497.297 793.453 498.152 785.406 492.478C778.902 487.849 778.902 487.849 771.662 492.217C762.855 497.487 761.383 497.677 763.235 492.953V493.048ZM394.816 444.266C390.092 440.563 389.356 439.067 391.682 437.595C393.795 436.195 393.249 435.649 389.451 435.649C386.579 435.554 384.893 434.533 385.653 433.322C386.389 432.112 386.009 431.091 384.632 431.091C380.264 431.091 381.855 417.465 386.199 417.37C389.641 417.18 389.546 416.919 385.653 415.329C381.665 413.667 381.57 413.287 384.988 411.91C387.03 411.08 388.24 409.038 387.694 407.353C385.558 401.988 397.878 394.842 409.201 394.842C423.397 394.842 439.159 405.311 430.257 408.848C427.1 410.154 427.385 410.415 431.444 410.51C434.317 410.605 436.548 411.531 436.548 412.646C436.548 413.667 426.174 414.213 413.379 413.952L390.187 413.287L413.474 415.162C426.269 416.159 437.284 417.465 438.043 418.201C438.684 418.866 438.138 423.115 436.643 427.483C434.696 433.417 432.655 435.649 429.047 435.744C424.323 435.934 424.323 435.934 428.667 437.69C432.75 439.352 432.465 439.898 425.248 444.361C415.041 450.58 402.792 450.58 394.816 444.361V444.266ZM415.587 433.963C412.169 433.417 406.614 433.417 403.172 433.963C399.73 434.533 402.626 434.913 409.391 434.913C416.251 434.913 419.029 434.533 415.587 433.963ZM398.709 429.619C397.143 428.978 394.08 428.883 391.944 429.524C389.736 430.07 390.923 430.545 394.744 430.64C398.448 430.735 400.205 430.26 398.709 429.619ZM429.236 429.524C427.005 428.978 423.468 428.978 421.26 429.524C419.124 430.07 420.88 430.545 425.248 430.545C429.592 430.545 431.349 430.07 429.236 429.524ZM395.291 422.759C393.059 422.189 389.546 422.189 387.315 422.759C385.178 423.21 386.935 423.78 391.303 423.78C395.671 423.78 397.427 423.305 395.291 422.759ZM431.444 422.759C429.332 422.189 425.7 422.189 423.563 422.759C421.356 423.21 423.112 423.78 427.456 423.78C431.824 423.78 433.676 423.305 431.444 422.759ZM415.587 420.432C413.475 419.886 409.843 419.886 407.706 420.432C405.593 421.002 407.35 421.453 411.694 421.453C416.062 421.453 417.819 421.002 415.587 420.432ZM417.913 406.807C413.189 406.332 405.593 406.332 400.941 406.807C396.217 407.258 400.109 407.637 409.391 407.637C418.744 407.637 422.542 407.258 417.913 406.807ZM530.765 444.551C525.851 440.657 525.116 439.067 527.418 437.595C529.935 436.005 529.839 435.649 527.252 435.649C518.516 435.459 514.362 417.655 523.074 417.275C527.893 417.109 527.893 416.919 522.505 415.329C516.855 413.572 516.855 413.572 522.505 411.174C525.662 409.869 526.967 408.658 525.377 408.563C520.843 408.278 524.926 401.703 531.786 398.19C541.899 392.896 556.45 393.917 564.426 400.492C569.625 404.765 570.456 406.522 568.13 408.112C565.827 409.584 566.373 410.415 570.456 411.72C575.749 413.382 575.75 413.382 569.981 415.162C564.616 416.919 564.616 417.014 569.435 417.275C573.423 417.465 574.349 418.676 573.969 423.4C573.708 426.652 572.117 429.904 570.456 430.545C567.844 431.471 567.845 432.017 570.361 433.607C572.402 434.913 571.192 435.554 566.563 435.744C561.459 435.839 560.818 436.29 563.952 437.5C567.774 439.067 567.773 439.352 563.405 443.34C555.975 450.105 538.646 450.675 530.765 444.551ZM551.346 433.963C547.928 433.417 542.349 433.417 538.931 433.963C535.489 434.533 538.267 434.913 545.127 434.913C552.011 434.913 554.789 434.533 551.346 433.963ZM534.469 429.619C532.902 428.978 529.84 428.883 527.608 429.524C525.472 430.07 526.683 430.64 530.386 430.64C534.208 430.735 535.964 430.26 534.469 429.619ZM563.88 429.619C562.29 428.978 559.228 428.883 556.996 429.524C554.884 430.07 556.07 430.64 559.797 430.64C563.595 430.735 565.352 430.26 563.88 429.619ZM533.258 422.759C531.05 422.189 527.513 422.189 525.305 422.759C523.169 423.21 524.926 423.78 529.27 423.78C533.638 423.78 535.395 423.305 533.258 422.759ZM567.204 422.759C564.972 422.189 561.459 422.189 559.228 422.759C557.091 423.21 558.872 423.78 563.216 423.78C567.584 423.78 569.34 423.305 567.204 422.759ZM549.115 420.432C546.908 419.886 543.371 419.886 541.139 420.432C539.027 421.002 540.783 421.453 545.127 421.453C549.495 421.453 551.252 421.002 549.115 420.432ZM555.904 413.572C551.251 413.121 543.18 413.121 537.815 413.572C532.522 414.047 536.32 414.403 546.243 414.403C556.165 414.403 560.533 414.047 555.904 413.572ZM555.904 406.807C551.251 406.332 543.18 406.332 537.815 406.807C532.522 407.258 536.32 407.637 546.243 407.637C556.165 407.637 560.533 407.258 555.904 406.807ZM461.212 412.361C452.215 406.261 452.049 403.364 460.761 401.323C465.77 400.231 465.2 400.136 458.625 400.587C448.512 401.323 445.093 397.905 453.995 395.863C464.844 393.442 465.295 392.516 454.921 393.822C445.829 394.937 445.189 394.652 446.281 390.403C446.946 387.887 446.471 385.846 445.26 385.846C444.073 385.846 443.313 384.089 443.788 381.858C444.334 379.175 447.491 377.513 453.521 376.588C462.613 375.187 462.612 375.187 454.09 374.807C449.438 374.617 445.64 373.525 445.64 372.22C445.64 371.009 446.565 369.988 447.681 369.988C448.892 369.988 450.174 367.757 450.554 365.17C452.88 349.787 483.669 343.948 499.597 355.888C511.11 364.434 508.689 367.116 491.17 365.075C482.553 364.054 470.019 364.054 463.349 365.075C452.5 366.736 453.616 366.926 473.912 366.926C503.965 367.021 510.374 368.612 511.941 376.303C512.772 380.481 511.941 383.353 509.52 385.3C507.407 386.866 506.932 388.077 508.499 388.077C509.995 388.077 511.205 389.549 511.205 391.424C511.205 394.107 508.878 394.558 500.451 393.727C490.434 392.801 491.36 393.442 503.965 396.148C509.163 397.264 509.163 397.264 504.344 404.029C494.422 418.035 475.218 421.738 461.212 412.266V412.361ZM499.336 400.136C497.104 399.471 493.591 399.471 491.454 400.136C489.223 400.682 490.98 401.157 495.348 401.157C499.692 401.157 501.472 400.682 499.336 400.136ZM480.132 397.905C478.565 397.359 475.953 397.359 474.482 397.905C472.891 398.546 474.197 399.02 477.259 399.02C480.416 399.02 481.627 398.546 480.132 397.905ZM483.478 391.044C480.036 390.475 474.482 390.475 471.04 391.044C467.622 391.495 470.399 391.97 477.259 391.97C484.12 391.97 486.897 391.495 483.478 391.044ZM492.475 382.783C484.95 381.668 472.986 381.668 464.179 382.783C450.008 384.635 450.933 384.73 477.259 384.73C501.923 384.825 503.87 384.469 492.475 382.783ZM506.101 375.282C503.965 374.712 499.882 374.617 497.104 375.187C494.232 375.733 496.084 376.208 500.997 376.208C506.006 376.208 508.333 375.828 506.101 375.187V375.282ZM484.594 372.861C480.606 372.41 473.912 372.41 469.924 372.861C465.865 373.43 469.188 373.787 477.259 373.787C485.33 373.787 488.677 373.43 484.594 372.861ZM122.11 407.353C122.11 404.385 130.371 403.934 183.118 403.934H244.149L246.547 394.296C268.623 307.319 334.378 240.354 419.575 218.111C448.227 210.586 509.994 210.491 536.605 217.921C575.56 228.769 609.482 247.594 637.303 273.729C671.059 305.539 691.189 337.348 704.72 380.006L711.865 402.819L771.116 403.293C803.566 403.554 831.197 404.385 832.503 405.145C837.227 408.112 831.672 410.795 820.824 410.795C813.868 410.795 810.07 409.869 810.901 408.468C811.732 407.258 811.257 406.261 809.975 406.261C808.575 406.261 807.554 407.258 807.554 408.468C807.554 412.1 705.835 411.53 704.815 407.922C690.358 353.585 674.762 322.797 645.848 291.082C633.694 277.813 607.535 257.042 591.132 247.784C583.892 243.701 577.316 239.333 576.58 238.217C575.82 237.125 574.539 236.365 573.708 236.555C572.853 236.745 564.047 234.229 554.124 230.906C494.778 211.155 428.762 215.333 375.445 242.205C316.195 272.163 266.866 335.497 253.145 399.377L250.724 410.795H186.37C130.727 410.795 122.11 410.32 122.11 407.353ZM406.044 358.024C408.727 303.141 410.507 295.521 412.358 330.393C413.284 346.63 414.566 366.926 415.326 375.638C416.608 391.495 416.607 391.495 410.507 391.495C404.477 391.495 404.477 391.495 406.044 358.024ZM541.424 379.08C542.089 372.22 543.465 351.354 544.391 332.719C546.338 293.67 547.928 300.079 550.705 358.309C552.272 391.495 552.272 391.495 546.243 391.495C540.213 391.495 540.142 391.329 541.424 379.08ZM208.162 380.006C191.284 373.526 190.642 373.051 193.895 369.704C197.408 366.19 228.838 376.588 227.912 381.027C226.986 386.225 223.829 386.036 208.162 380.006ZM214.737 360.161C195.842 351.069 195.746 346.345 214.381 343.947L227.271 342.262L217.705 338.179C208.637 334.191 206.405 331.698 209.372 328.731C210.488 327.615 241.277 339.105 243.579 341.431C244.054 341.906 243.769 343.947 242.938 345.894C241.917 348.671 238.666 349.692 230.594 349.692C216.423 349.692 214.737 352.754 226.345 357.383C231.449 359.425 235.152 362.202 234.677 363.698C233.206 368.137 230.143 367.591 214.737 360.161ZM718.535 359.876C717.42 357.099 720.387 354.867 730.594 350.428C742.748 345.134 743.935 343.948 742.748 339.2C741.822 335.307 742.368 333.835 744.79 333.835C747.377 333.835 757.751 354.796 757.751 359.971C757.751 362.677 750.891 360.446 749.134 357.194C746.998 353.49 741.989 354.416 723.544 361.917C721.218 362.938 719.366 362.107 718.535 359.876ZM471.514 332.078C473.461 313.42 477.259 255.095 477.259 244.626C477.259 223.76 479.205 240.923 481.627 282.916C483.004 307.77 484.689 331.983 485.425 336.612C486.731 345.134 486.731 345.134 478.47 345.134C470.209 345.134 470.209 345.134 471.609 332.078H471.514ZM709.182 338.369C708.423 337.158 710.013 333.17 712.696 329.562C719.105 320.945 716.779 316.862 708.067 321.301C702.393 324.268 701.467 324.268 700.375 321.301C699.616 319.355 701.111 316.767 704.079 314.916C717.325 306.844 726.607 302.121 729.194 302.121C731.805 302.121 739.686 315.556 739.686 320.114C739.686 324.007 732.541 329.277 727.342 329.277C724.185 329.277 720.577 331.604 718.346 334.951C714.453 340.885 711.39 341.977 709.182 338.369ZM730.215 316.126C730.974 310.833 729.194 310.002 724.114 313.254C720.292 315.651 722.523 323.248 726.701 321.966C728.173 321.396 729.859 318.809 730.215 316.126ZM236.814 318.239C226.796 312.779 225.776 312.589 223.734 316.221C222.547 318.334 220.031 319.45 218.179 318.714C215.307 317.693 215.758 315.651 220.767 306.939C228.387 293.67 229.764 292.198 232.731 294.05C234.511 295.165 234.511 296.922 232.921 299.889C230.879 303.592 232.28 305.278 243.223 312.233C250.083 316.672 255.187 321.301 254.428 322.512C252.386 325.764 248.968 324.933 236.814 318.239ZM252.22 295.07C246 290.062 240.066 285.148 238.95 284.127C236.624 281.801 246.642 265.943 250.535 265.943C254.428 265.943 253.977 270.501 249.514 275.415C246.452 278.738 246.285 280.139 248.588 282.37C250.819 284.602 252.315 284.032 255.828 279.664C259.175 275.605 260.932 274.94 262.878 276.792C264.825 278.738 264.35 280.614 261.216 284.127C257.489 288.115 257.395 289.136 260.196 290.892C265.015 293.955 266.487 293.575 269.169 288.566C271.401 284.317 278.166 282.085 278.166 285.599C278.166 287.925 266.486 304.423 264.92 304.352C264.184 304.257 258.415 300.079 252.22 295.07ZM683.308 296.186C675.521 286.358 678.845 275.225 691.379 269.291C699.806 265.302 705.455 266.228 710.939 272.258C717.704 279.759 717.895 287.284 711.295 294.975C703.248 304.518 690.263 305.088 683.308 296.186ZM703.153 291.723C709.349 287.379 709.183 276.626 702.773 275.415C696.554 274.204 687.557 281.16 687.557 287.094C687.557 296.186 693.966 298.133 703.058 291.723H703.153ZM271.875 267.534C265.371 260.935 260.101 254.454 260.101 252.958C260.101 248.899 271.495 241.018 277.62 241.018C281.703 241.018 283.839 242.87 285.691 247.879C287.068 251.582 289.774 254.644 291.72 254.739C293.572 254.739 296.99 256.116 299.127 257.801C305.156 262.335 298.771 267.344 291.72 263.641C289.109 262.24 285.311 261.694 283.365 262.43C280.302 263.546 280.492 264.567 284.765 269.006C288.753 273.373 289.109 274.75 286.617 276.792C284.195 278.833 281.038 276.792 271.875 267.439V267.534ZM279.092 255.57C281.608 248.994 277.715 246.098 271.59 249.92C268.908 251.677 268.813 252.602 271.306 255.57C275.033 260.104 277.335 260.104 279.092 255.57ZM651.309 261.22C648.721 259.558 650.857 256.59 661.421 246.953C668.827 240.164 675.973 235.155 677.278 235.63C678.655 236.176 682.097 240.092 684.969 244.341C689.242 250.466 689.788 252.887 687.842 256.59C684.424 262.976 677.634 264.472 669.943 260.484C664.388 257.611 662.798 257.611 659 260.199C656.033 262.24 653.445 262.62 651.309 261.22ZM680.887 250.466C680.887 244.152 678.299 242.87 673.741 247.024C669.018 251.297 670.133 254.644 676.447 254.644C679.225 254.644 680.887 253.054 680.887 250.466ZM297.465 240.638C288.088 228.579 287.258 226.538 290.13 223.57C293.097 220.603 294.783 220.793 304.231 224.971C317.666 230.906 318.521 230.906 312.943 224.686C303.4 213.743 302.759 212.271 306.367 210.871C309.69 209.565 330.2 231.926 330.2 236.84C330.2 241.469 322.509 241.469 312.943 236.84C299.602 230.336 299.317 230.621 307.388 240.828C315.364 250.846 315.554 251.392 311.281 253.054C309.239 253.813 304.135 249.16 297.465 240.638ZM638.893 249.35C638.229 247.689 638.703 243.701 640.009 240.353C642.976 232.377 639.06 230.075 632.579 236.176C629.327 239.238 626.55 240.164 624.508 238.882C622.11 237.386 623.772 234.063 632.128 223.76C638.062 216.425 643.712 210.23 644.638 209.85C645.564 209.47 649.552 211.891 653.54 215.238C662.062 222.36 662.632 232.662 654.561 233.778C651.213 234.229 648.982 237.125 647.131 243.416C644.448 252.413 640.935 254.929 638.893 249.35ZM652.614 227.369C653.445 226.087 652.899 223.475 651.309 221.624C648.816 218.657 648.056 218.562 645.184 221.434C643.333 223.286 642.597 225.897 643.427 227.274C645.374 230.336 650.762 230.431 652.614 227.369ZM335.755 225.992C334.924 222.455 332.977 214.218 331.316 207.618C328.61 196.509 328.705 195.583 332.788 193.352C336.491 191.405 339.102 192.616 348.099 200.117C363.671 213.102 365.808 216.069 361.82 218.467C359.778 219.772 357.262 219.226 354.864 216.995C349.571 212.271 341.785 217.09 342.331 224.781C342.806 232.757 337.512 233.683 335.755 225.897V225.992ZM344.752 209.66C345.393 208.639 343.921 205.862 341.5 203.63C337.061 199.642 335.85 201.328 338.366 208.093C339.933 211.986 342.9 212.722 344.752 209.66ZM607.725 228.033C606.158 225.256 624.413 198.076 627.95 198.076C632.674 198.076 631.843 200.948 622.941 215.974C615.416 228.484 610.407 232.567 607.725 228.033ZM595.12 220.888C593.363 219.772 592.532 216.9 593.173 214.384C594.645 208.544 584.272 202.704 582.135 208.283C580.735 211.796 572.307 213.102 572.307 209.755C572.307 208.734 577.696 201.969 584.271 194.728C594.645 183.239 596.782 181.839 600.77 183.975C605.043 186.301 605.137 187.512 603.191 204.651C600.959 223.381 600.58 224.306 595.12 220.888ZM596.687 195.654C597.256 190.289 597.161 190.289 593.814 194.562C589.636 199.832 589.375 203.274 593.268 202.064C594.74 201.518 596.331 198.622 596.687 195.654ZM368.395 200.117C363.861 188.533 362.366 186.847 357.642 187.322C347.268 188.438 350.497 182.859 363.102 178.04C370.152 175.358 376.276 173.222 376.846 173.222C379.243 173.222 377.297 178.705 373.973 181.103C370.436 183.714 370.532 184.711 375.066 195.393C380.834 208.829 381 210.775 376.846 212.366C374.709 213.197 372.098 209.399 368.395 200.117ZM395.932 197.34C394.911 194.467 392.418 186.752 390.472 180.367C387.125 169.138 387.22 168.688 391.398 168.688C394.745 168.688 396.501 171.655 399.374 181.672C401.32 188.794 403.457 196.509 404.098 198.622C405.759 204.746 398.353 203.535 395.932 197.34ZM539.193 199.832L529.934 197.53L534.279 180.272C539.383 160.522 538.931 161.352 543.276 163.014C546.243 164.13 546.243 165.91 543.655 176.094C539.572 191.761 539.762 192.877 546.243 194.467C549.4 195.298 551.916 197.435 551.916 199.286C551.916 202.989 552.272 202.989 539.193 199.737V199.832ZM264.73 167.667C244.339 137.234 244.339 137.234 250.914 132.605C254.427 130.018 257.965 127.976 258.606 127.976C259.246 127.976 263.424 133.721 267.887 140.866C275.958 153.851 275.958 153.851 275.958 144.854C276.053 121.306 278.451 112.309 286.142 107.561C290.13 105.069 293.928 103.027 294.498 103.027C295.044 103.027 294.782 108.416 293.762 114.897C289.774 143.098 289.014 141.602 313.774 153.02L335.755 163.109L327.043 168.498C318.426 173.862 318.426 173.862 303.851 166.741C295.97 162.848 288.919 159.596 288.373 159.596C285.596 159.596 287.637 172.011 291.436 177.399C293.667 180.652 296.16 184.45 296.991 185.827C297.75 187.227 295.423 190.479 291.72 193.257C285.121 198.075 285.121 198.076 264.73 167.667ZM421.522 195.844C409.202 190.93 405.664 174.432 414.946 165.15C426.364 153.756 443.314 162.373 443.314 179.536C443.314 192.236 432.56 200.212 421.522 195.844ZM432.75 186.586C439.254 177.494 429.972 161.922 421.996 168.498C417.367 172.391 417.462 181.934 422.186 187.132C427.005 192.426 428.762 192.331 432.75 186.586ZM515.003 194.277C514.172 193.446 513.436 190.93 513.436 188.628C513.436 183.334 503.229 182.954 500.356 188.153C499.241 190.099 496.725 191.405 494.778 190.93C491.716 190.289 492.285 187.607 498.315 173.791C504.06 160.237 506.291 157.364 510.469 157.364C513.982 157.364 516.024 158.955 516.665 162.468C519.727 177.02 522.505 191.761 522.505 193.613C522.505 196.129 517.234 196.58 515.003 194.277ZM511.205 171.916C511.205 165.435 507.858 166.171 506.006 173.127C505.27 176.094 506.006 177.684 508.048 177.684C509.899 177.684 511.205 175.358 511.205 171.916ZM659.759 190.645C653.445 185.565 653.445 185.565 670.774 162.088L688.127 138.54L679.961 131.49C671.89 124.534 671.89 124.534 676.162 119.43C680.435 114.35 680.435 114.35 703.248 131.49C715.853 140.961 726.06 149.483 726.06 150.409C726.06 151.335 724.28 153.851 721.977 155.893C718.179 159.311 717.324 159.216 710.203 153.946C706.025 150.884 701.847 149.032 701.016 150.053C700.186 150.979 692.209 161.637 683.308 173.791C674.406 185.921 666.881 195.844 666.62 195.749C666.335 195.749 663.272 193.541 659.759 190.645ZM454.636 174.337C454.636 159.026 455.017 157.364 459.076 157.364C461.782 157.364 465.58 160.901 469.188 167.002L474.933 176.569V165.815C475.028 158.29 475.859 155.038 478.09 155.038C481.247 155.038 484.025 168.592 484.025 183.714C484.025 195.939 476.618 193.898 468.262 179.441L461.497 167.572V179.441C461.402 188.438 460.666 191.31 458.055 191.31C455.278 191.31 454.636 187.868 454.636 174.337ZM613.565 163.679C610.787 162.278 608.461 160.047 608.556 158.765C608.556 157.364 615.986 142.338 624.983 125.365C641.291 94.5052 641.291 94.5052 648.057 97.9235C651.783 99.8701 655.201 101.722 655.581 102.007C657.053 103.312 623.036 166.266 620.9 166.171C619.689 166.171 616.342 164.961 613.565 163.679ZM352.253 147.157C344.942 143.003 339.838 133.436 331.411 107.941C324.906 88.2859 325.191 86.2442 335.114 83.8229C340.859 82.3511 341.239 82.8973 348.36 104.428C356.621 128.997 363.386 138.255 371.552 135.762C384.632 131.679 385.084 126.576 374.971 95.8821C371.007 83.7518 368.3 73.2594 368.965 72.6185C369.606 71.9538 373.214 70.8619 376.941 70.1023C383.706 68.7255 383.872 68.9154 389.641 85.3185C400.489 115.917 401.415 122.042 396.691 131.68C394.365 136.309 389.736 142.077 386.389 144.474C378.413 150.314 360.419 151.715 352.253 147.157ZM579.642 148.273C575.559 146.611 574.539 144.379 574.539 137.163C574.539 128.712 574.064 128.071 566.088 125.84C553.768 122.398 552.557 122.683 548.095 130.374C544.486 136.498 543.109 137.234 536.32 136.142C532.166 135.478 528.178 134.362 527.418 133.626C526.588 132.795 556.45 86.6241 568.96 69.6512C569.245 69.2714 573.969 70.1022 579.642 71.5028C589.731 73.9953 589.731 73.9953 591.132 94.6002C591.963 105.805 592.604 123.062 592.604 132.795C592.604 151.999 591.678 153.091 579.642 148.273ZM574.895 100.44L574.064 86.5292L567.678 97.6624C560.153 110.457 560.248 110.718 574.539 114.161C575.18 114.255 575.275 108.131 574.895 100.44ZM437.759 129.638C436.358 125.745 420.691 62.8858 420.691 61.2953C420.691 60.6544 424.679 60.0846 429.593 60.0846C439.515 60.0846 438.304 57.4024 445.83 96.0721C449.153 113.235 450.102 111.644 455.752 79.8586C459.74 57.8769 459.74 57.8771 469.283 57.8771C478.826 57.8771 478.826 57.8769 483.668 79.194C486.446 90.8732 488.582 102.102 488.582 104.048C488.582 105.995 489.508 107.561 490.529 107.561C491.644 107.561 493.116 101.722 493.852 94.6002C494.612 87.36 496.369 76.1317 497.745 69.6512C500.262 58.1381 500.546 57.8771 508.048 57.8771C517.591 57.8771 517.59 56.9513 508.332 97.3777C500.997 129.092 500.998 129.092 490.79 129.733C480.511 130.374 480.511 130.374 475.502 109.247C472.725 97.6625 470.399 86.1493 470.304 83.7518C470.114 81.3304 467.716 89.6864 464.939 102.386C462.043 115.086 459.171 127.05 458.435 128.997C456.773 133.341 439.159 133.911 437.664 129.638H437.759Z" fill="#8550DC"/>
</svg>
