<svg width="959" height="960" viewBox="0 0 959 960" fill="none" xmlns="http://www.w3.org/2000/svg">
<path fill-rule="evenodd" clip-rule="evenodd" d="M445.709 958.935C392.433 954.15 345.869 943.393 301.359 925.521C158.195 868.031 50.4138 744.962 13.6751 596.991C4.82392 561.247 1.60556 537.425 0.292707 497.235C-3.4341 382.593 28.4129 281.419 96.6389 191.425C117.412 163.961 123.785 158.011 132.382 157.269C138.163 156.846 139.815 157.439 139.815 159.916C139.815 161.653 140.726 162.479 141.805 161.823C142.885 161.166 143.796 161.569 143.796 162.733C143.796 163.877 142.885 164.787 141.805 164.787C140.726 164.787 140.069 165.782 140.323 167.031C140.662 168.259 139.582 169.678 138.078 170.25C136.511 170.843 135.855 170.335 136.596 169.107C137.337 167.942 137.02 166.46 135.77 165.697C134.606 164.956 134.119 163.135 134.691 161.653C135.284 160.086 134.86 158.836 133.865 158.836C132.785 158.836 131.959 159.832 131.959 160.997C131.959 162.14 131.133 162.564 130.074 161.907C129.079 161.314 127.66 161.653 127.004 162.818C126.348 163.877 127.173 164.787 128.825 164.787C130.477 164.787 132.785 166.608 133.949 168.853C135.855 172.325 134.288 175.142 122.451 190.028C-28.0819 379.269 -11.5444 644.783 161.074 810.393C235.187 881.52 328.59 924.78 433.873 936.617C463.412 940.005 525.2 937.929 555.311 932.636C635.692 918.491 719.249 879.783 776.972 829.831C785.59 822.378 793.192 816.681 793.848 817.168C794.505 817.655 794.589 817.507 794.102 816.745C792.938 815.263 800.794 806.242 803.207 806.242C804.033 806.242 806.003 807.576 807.675 809.228C810.386 811.959 810.64 811.536 809.814 805.332C809.243 801.202 809.73 798.556 810.894 798.81C811.974 799.064 813.943 797.074 815.362 794.427C816.76 791.695 819.237 789.45 820.825 789.45C822.392 789.45 823.705 788.138 823.705 786.486C823.705 784.919 825.696 782.674 828.089 781.594C830.503 780.599 832.726 777.889 833.064 775.729C833.382 773.505 834.886 771.917 836.283 772.256C838.02 772.658 838.528 771.748 837.85 769.864C837.194 768.212 837.448 766.391 838.443 765.798C839.438 765.226 840.581 765.883 841.174 767.217C841.661 768.614 842.233 767.958 842.403 765.798C842.742 759.36 847.209 754.639 850.343 757.455C852.419 759.424 852.672 759.191 851.593 756.205C849.771 750.827 857.458 739.011 861.841 740.493C864.404 741.404 864.658 741.15 863.006 739.244C861.27 737.508 863.409 732.553 871.349 719.318C901.375 669.515 921.153 616.831 931.317 559.51C938.029 521.713 939.024 456.113 933.477 416.41C919.247 314.918 875.415 227.825 801.789 154.199C652.569 5.14816 419.558 -21.8921 238.173 88.7052C225.277 96.5611 223.689 97.0481 221.466 94.0836C219.221 91.1826 219.073 91.267 219.729 95.1421C220.386 98.5512 217.57 101.6 205.987 110.282C197.072 116.825 191.016 120.129 190.444 118.816C189.957 117.482 189.449 118.138 189.365 120.213C189.195 124.109 186.231 122.86 186.231 118.964C186.231 117.905 183.16 116.656 179.37 116.402C175.559 116.084 174.076 116.317 175.961 116.826C178.692 117.567 179.031 118.393 177.379 120.383C175.643 122.522 176.046 122.775 179.688 121.865C184.071 120.7 184.071 120.87 180.852 124.11C178.946 125.994 177.379 128.641 177.379 129.89C177.379 132.452 156.12 152.971 153.473 152.971C152.478 152.971 151.736 150.98 151.652 148.503C151.652 144.945 151.25 144.607 149.746 147.021C148.666 148.673 147.84 149.075 147.755 147.995C147.755 146.767 147.269 146.767 146.273 148.08C144.198 150.981 133.949 155.195 133.949 153.141C133.949 152.23 135.771 150.981 137.93 150.409C140.323 149.816 141.805 147.762 141.805 145.031C141.805 141.728 142.462 141.134 144.368 142.701C147.756 145.602 152.647 142.384 151.08 138.318C149.259 133.617 149.492 132.283 152.223 132.114C153.557 132.114 154.468 130.97 154.129 129.551C153.812 128.154 154.468 127.582 155.463 128.154C156.458 128.81 158.682 127.984 160.334 126.333C162.324 124.342 163.722 124.025 164.632 125.422C165.31 126.672 167.131 127.159 168.528 126.587C170.265 125.91 171.091 126.905 170.921 129.404C170.752 131.542 169.439 133.278 168.105 133.278C166.707 133.278 165.543 134.104 165.543 135.184C165.543 138.254 168.528 137.577 172.001 133.702C173.991 131.542 174.648 128.324 173.991 124.766C172.996 119.642 172.742 119.472 169.354 122.437C166.051 125.507 165.881 125.422 166.961 121.124C168.613 114.178 171.577 111.278 175.643 112.612C177.718 113.268 179.454 112.845 179.603 111.701C180.196 106.556 180.429 105.815 181.847 104.417C182.673 103.676 183.33 103.994 183.33 105.412C183.33 106.725 184.24 107.233 185.32 106.555C186.4 105.899 186.887 104.671 186.4 103.761C184.749 101.262 194.574 93.1731 197.305 94.8248C198.724 95.7353 199.211 95.5656 198.385 94.2315C196.162 90.5259 231.482 67.5297 265.955 50.3991C325.859 20.5423 381.846 5.5715 450.008 1.01889C666.629 -13.2107 866.881 122.86 934.959 330.566C967.632 430.301 965.896 547.525 930.322 643.385C915.774 682.749 878.972 750.996 873.911 747.926C872.937 747.27 872.598 748.011 873.17 749.684C874.165 752.246 857.966 774.649 853.985 776.301C853.075 776.639 852.334 777.952 852.334 779.286C852.334 780.599 842.403 792.097 830.333 804.929C813.795 822.462 807.909 827.587 806.511 825.596C805.029 823.627 804.859 823.797 805.6 826.189C806.998 830.657 782.52 851.832 777.798 850.329C775.151 849.503 775.003 849.672 777.057 851.154C779.132 852.658 776.146 855.792 764.245 864.727C700.466 912.541 626.777 943.054 546.46 955.145C526.196 958.194 463.496 960.523 445.794 958.935H445.709ZM769.37 841.16C769.37 840.25 768.544 840.08 767.38 840.736C766.3 841.414 765.474 843.468 765.474 845.289C765.474 848.19 765.813 848.275 767.38 845.713C768.46 844.061 769.37 841.986 769.37 841.16ZM779.301 844.717C779.301 843.066 778.877 841.731 778.475 841.731C778.052 841.731 777.226 843.066 776.569 844.717C775.977 846.284 776.315 847.682 777.311 847.682C778.391 847.682 779.301 846.284 779.301 844.717ZM789.147 841.816C789.147 840.821 788.385 839.508 787.475 839C786.564 838.428 785.823 839.254 785.823 840.821C785.823 842.388 786.564 843.722 787.475 843.722C788.385 843.722 789.147 842.896 789.147 841.816ZM816.76 805.84C816.76 802.622 816.188 802.028 814.536 803.68C813.372 804.844 812.969 806.835 813.71 807.978C815.764 811.303 816.76 810.562 816.76 805.84ZM822.646 793.516C821.397 792.267 819.915 792.351 818.411 793.834C816.76 795.57 817.183 796.078 820.402 795.824C823.133 795.57 823.959 794.829 822.646 793.516ZM830.248 786.147C832.387 783.331 832.239 782.928 829.168 783.331C827.263 783.669 825.865 784.495 826.119 785.152C826.437 785.893 826.606 787.481 826.606 788.794C826.606 790.043 826.86 790.7 827.178 790.276C827.432 789.789 828.851 787.968 830.248 786.147ZM839.269 777.296C840.327 774.564 840.01 774.479 837.532 776.555C834.144 779.371 833.721 780.536 836.283 780.536C837.278 780.536 838.591 779.117 839.269 777.296ZM856.209 770.689C856.209 769.61 855.319 768.699 854.239 768.699C853.159 768.699 852.249 769.61 852.249 770.689C852.249 771.748 853.159 772.658 854.239 772.658C855.319 772.658 856.209 771.748 856.209 770.689ZM851.339 766.708C851.995 765.628 853.413 765.226 854.409 765.798C855.383 766.454 856.209 765.48 856.209 763.575C856.209 760.42 855.976 760.42 852.418 763.659C848.776 766.878 848.607 766.878 847.951 762.41C847.294 758.111 847.209 758.111 846.045 763.235C844.965 768.699 848.607 771.091 851.339 766.708ZM864.827 748.011C865.483 746.359 865.144 745.047 864.086 745.047C863.006 745.047 862.18 746.359 862.18 748.011C862.18 749.599 862.498 750.912 862.921 750.912C863.324 750.912 864.234 749.599 864.827 748.011ZM161.667 139.144C162.663 139.144 163.489 137.831 163.489 136.18C163.489 132.051 161.075 132.452 156.776 137.492C153.558 141.219 153.558 141.558 156.543 140.393C158.343 139.737 160.672 139.144 161.667 139.144ZM213.694 95.9046C214.351 94.9093 213.017 94.5703 210.878 95.1421C206.241 96.3914 205.669 97.7043 209.798 97.7043C211.281 97.7043 213.102 96.8786 213.694 95.9046ZM453.65 929.332C342.058 921.561 237.093 874.32 160.503 797.476C38.09 674.491 -2.43885 494.736 54.9667 329.571C70.8479 283.897 105.659 223.187 134.203 191.425C137.104 188.206 141.805 182.828 144.622 179.61C147.438 176.37 149.661 174.464 149.661 175.374C149.661 176.37 150.995 176.052 152.647 174.633C159.19 169.255 154.87 175.628 139.667 193.902C87.4704 256.686 55.1996 328.152 40.9064 412.683C35.1045 446.859 34.6172 510.384 39.8263 542.719C47.5975 590.532 59.5827 629.579 78.4496 669.028C145.193 808.232 275.229 901.53 427.922 919.825C537.609 932.975 654.729 901.953 743.388 836.353C752.832 829.408 758.698 826.274 759.862 827.502C762.424 829.979 729.667 853.97 703.283 869.111C651.827 898.396 598.149 917.009 540.404 925.352C518.742 928.422 472.178 930.56 453.65 929.332ZM459.516 900.958V863.5H470.526C485.074 863.5 491.109 868.941 491.109 882.26C491.109 895.495 485.074 900.958 470.526 900.958H459.516ZM479.378 893.017C482.257 891.45 483.253 888.888 483.253 882.26C483.253 873.007 479.949 869.365 471.522 869.365C467.795 869.365 467.456 870.593 467.456 882.26C467.456 893.843 467.795 895.093 471.522 895.093C473.745 895.093 477.302 894.182 479.378 893.017ZM500.299 885.902C498.054 859.688 497.313 861.509 510.717 861.509C520.648 861.509 522.956 862.166 525.518 865.893C529.415 871.44 529.499 878.047 525.688 881.265C523.041 883.425 523.125 884.505 526.683 890.116C531.553 898.057 531.553 898.968 526.852 898.968C524.608 898.968 521.22 896.088 518.742 892.107C512.961 882.599 508.896 883.001 508.896 893.102C508.896 899.476 508.155 900.958 505.254 900.958C502.12 900.958 501.379 898.798 500.299 885.902ZM519.737 873.325C519.737 869.195 518.658 868.285 513.279 867.798C507.329 867.205 506.906 867.544 506.906 873.325C506.906 879.127 507.329 879.444 513.279 878.872C518.658 878.385 519.737 877.475 519.737 873.325ZM423.031 897.824C421.718 897.316 421.633 890.71 422.798 878.301C424.852 857.211 425.275 856.872 442.406 861.679C459.769 866.464 453.311 889.968 435.609 886.411C430.972 885.5 429.913 885.903 429.913 889.058C429.913 893.674 427.922 899.052 426.271 898.798C425.614 898.735 424.111 898.311 423.031 897.824ZM442.724 873.325C442.724 869.45 441.644 868.285 437.599 867.798C433.132 867.29 432.306 868.031 431.48 873.325C430.654 879.127 430.908 879.444 436.689 878.872C441.729 878.385 442.724 877.39 442.724 873.325ZM559.356 882.091C555.46 878.216 555.46 876.395 559.356 872.499C561.664 870.191 563.4 869.937 566.217 871.44C570.515 873.748 571.257 879.296 567.699 882.854C564.565 885.903 563.083 885.818 559.356 882.091ZM602.045 862.991C602.616 844.463 602.955 842.726 606.428 842.726C612.124 842.726 634.951 871.016 631.16 873.409C629.255 874.574 627.01 873.833 624.194 871.271C620.721 867.946 619.154 867.713 613.861 869.619C608.736 871.356 607.572 872.838 607.572 877.475C607.572 881.35 606.576 883.171 604.522 883.171C601.96 883.171 601.621 880.122 602.045 862.991ZM614.199 863.732C617.672 862.335 617.587 861.911 612.781 856.448C607.656 850.667 607.656 850.668 607.656 858.037C607.572 865.723 608.08 866.146 614.199 863.732ZM379.94 878.386C378.373 874.405 380.194 870.022 383.751 868.624C388.876 866.634 392.687 869.619 392.031 875.061C391.353 881.181 382.015 883.764 379.94 878.386ZM324.186 870.445C316.182 862.335 319.062 843.214 329.162 837.857C339.241 832.393 353.471 838.513 355.546 849.101C356.859 855.877 350.824 870.191 345.361 873.092C338.501 876.798 329.48 875.654 324.271 870.445H324.186ZM345.043 861.509C348.431 855.136 347.436 846.03 343.053 843.722C331.978 837.687 321.137 858.862 331.555 866.146C336.362 869.534 341.655 867.714 345.043 861.509ZM641.324 863.563C636.602 860.598 640.922 857.295 647.783 858.608C654.982 859.942 660.107 855.792 658.032 850.413C657.036 847.766 655.131 847.449 648.016 848.507C636.687 850.18 631.224 847.364 631.224 839.826C631.224 829.408 648.524 821.213 654.728 828.666C657.777 832.308 654.644 834.299 648.355 832.711C643.315 831.483 636.115 836.522 638.19 839.91C638.847 840.906 644.543 841.731 651.002 841.731C663.897 841.731 668.217 845.458 665.888 854.648C663.897 862.589 648.524 868.2 641.324 863.563ZM301.952 861.679C300.3 860.599 299.708 858.354 300.534 855.876C301.529 852.658 300.533 851.091 295.663 848.592C289.861 845.628 289.12 845.628 285.732 848.677C283.593 850.667 280.693 851.493 278.617 850.752C275.886 849.672 277.961 846.707 289.776 834.786C302.185 822.293 304.832 820.472 308.072 822.208C311.544 824.114 311.798 825.681 310.634 837.433C308.072 863.33 307.415 865.151 301.952 861.679ZM303.604 837.433C303.604 831.144 303.604 831.144 298.628 835.781C295.007 839.254 294.329 840.906 296.15 842.071C301.126 845.204 303.604 843.722 303.604 837.433ZM670.038 835.125C664.892 826.02 661.758 818.333 662.669 817.338C665.485 814.522 667.963 817.253 676.391 832.711C685.581 849.418 685.411 848.846 681.854 850.265C680.033 850.922 676.073 845.797 670.038 835.125ZM260.005 840.164C255.05 837.179 250.751 833.875 250.581 832.796C250.158 830.487 265.806 802.685 268.538 801.033C269.512 800.377 271.333 800.715 272.413 801.859C273.747 803.193 272.011 807.978 267.119 816.83C259.348 830.826 259.433 832.309 268.114 836.777C271.841 838.767 273.493 840.821 272.752 842.726C271.248 846.538 270.677 846.453 260.005 840.164ZM691.277 836.184C690.62 832.139 688.714 823.627 687.147 817.253C684.585 807.004 684.585 805.268 687.147 802.685C690.451 799.381 689.138 798.64 709.741 814.945C717.914 821.382 721.472 825.278 720.159 826.591C718.825 827.925 716.432 827.756 713.129 826.274C705.188 822.632 696.74 827.671 697.82 835.358C698.476 839.339 697.735 841.478 695.596 842.325C693.267 843.214 692.272 841.731 691.277 836.184ZM699.217 814.776C692.78 809.652 690.218 812.298 694.347 819.9C696.168 823.372 697.163 823.627 700.805 821.721C705.019 819.477 704.935 819.392 699.217 814.776ZM456.53 838.343C313.599 828.92 188.306 732.299 143.139 596.906C133.865 569.103 128.486 541.723 126.178 511.041C124.357 486.732 124.442 480.528 127.089 448.003C131.959 388.374 158.851 320.551 198.554 267.782C248.189 201.695 326.515 152.315 407.001 136.264C431.649 131.288 475.736 126.82 486.154 128.154C489.457 128.556 500.553 129.467 510.802 130.145C546.609 132.453 590.123 143.95 625.866 160.488C721.726 204.913 791.943 287.623 819.745 389.03C838.528 457.447 836.537 535.604 814.452 598.727C767.803 732.214 646.534 826.02 505.508 837.772C482.766 839.593 476.731 839.677 456.53 838.343ZM312.942 508.225C314.678 508.14 315.419 504.413 315.419 496.325V484.403L387.965 484.996L460.511 485.482L461.675 497.383C462.734 508.966 462.819 508.966 463.158 499.797C463.327 494.673 464.322 490.438 465.317 490.438C466.376 490.438 467.541 494.673 467.964 499.797C468.621 508.479 468.706 508.31 469.023 497.15C469.277 488.299 470.527 483.662 473.491 479.85C478.7 473.243 480.352 473.328 487.318 480.761C490.452 484.149 493.099 486.055 493.099 484.996C493.099 482.412 483.168 472.651 480.606 472.651C477.557 472.651 467.372 482.836 467.372 485.885C467.372 487.304 466.546 488.469 465.466 488.469C461.167 488.469 463.814 481.925 470.357 476.145C476.053 471.084 477.303 468.522 477.387 462C477.472 457.532 478.213 452.238 479.039 450.078C480.437 446.52 480.691 446.605 481.855 451.073C482.596 453.72 483.168 458.675 483.168 462.148C483.168 466.531 485.159 470.258 490.114 475.234C493.925 479.025 496.995 483.577 496.995 485.313C496.995 490.12 490.368 489.125 485.243 483.577C477.557 475.467 470.929 483.746 473.322 498.294L474.825 507.229L475.058 498.717C475.143 493.995 476.223 488.383 477.472 486.224C479.462 482.349 479.696 482.349 482.342 485.822C483.846 487.791 485.074 493.254 485.074 497.806C485.159 507.568 488.97 509.39 489.373 499.797C489.627 493.424 489.627 493.423 491.109 500.284C492.528 507.229 492.528 507.23 492.761 500.792C493.184 491.857 496.911 492.682 497.313 501.766C497.567 506.997 497.99 505.663 498.816 497.32L499.96 485.482H644.056L644.628 496.642C645.221 507.822 645.221 507.823 655.469 508.564C671.097 509.707 820.91 508.648 822.223 507.314C825.293 504.265 816.506 503.1 769.285 500.453C741.08 498.886 718.084 496.727 718.084 495.731C718.084 494.673 722.552 494.418 728.418 495.075C734.135 495.646 749.846 496.727 763.504 497.32C777.056 497.891 795.923 498.886 805.516 499.458L822.879 500.623L822.308 490.438L821.651 480.359L755.564 480.443C719.248 480.528 680.371 481.099 669.191 481.84C654.559 482.751 649.011 482.497 649.011 480.845C649.011 479.194 663.664 478.537 702.287 478.283C731.573 478.198 756.475 477.881 757.533 477.627C758.613 477.288 773.753 476.971 791.117 476.886L822.646 476.631V466.7C822.646 454.715 829.676 455.203 752.578 461.746C694.601 466.616 646.364 469.516 650.006 467.865C651.086 467.357 664.405 466.044 679.63 464.964C718.91 462.063 802.382 455.118 812.292 453.805C820.741 452.725 820.74 452.725 820.74 444.043C820.74 439.321 819.83 434.853 818.835 434.281C817.84 433.625 802.128 435.362 783.853 438.178C682.764 453.382 639.588 459.014 648.016 455.796C649.096 455.372 668.619 452.323 691.446 448.998C748.851 440.57 808.988 431.381 814.282 430.153C817.84 429.411 818.581 428.162 817.755 424.266C817.268 421.534 816.273 417.235 815.765 414.589C814.769 409.888 814.769 409.888 797.49 413.678C750.016 424.117 660.848 442.963 653.902 444.043C643.484 445.61 649.011 442.137 659.853 440.232C668.534 438.749 765.474 417.828 794.674 411.2C813.118 406.987 813.118 406.987 811.805 397.881C811.064 392.842 810.069 388.374 809.56 387.887C809.073 387.379 787.644 393.096 761.917 400.528C687.656 422.042 648.185 433.032 645.221 433.117C639.249 433.286 645.221 430.893 662.987 426.087C673.257 423.27 704.193 414.42 731.89 406.246C759.524 398.051 788.152 389.708 795.415 387.633C808.565 383.737 808.565 383.737 805.6 374.885C803.949 370.1 801.535 366.119 800.222 366.119C798.973 366.119 767.718 377.046 730.831 390.449C653.648 418.485 643.146 422.127 641.896 420.877C641.409 420.39 647.868 417.49 656.295 414.419C664.808 411.455 698.306 399.215 730.916 387.294C763.42 375.394 792.451 364.806 795.331 363.726C800.625 361.82 800.624 361.82 797.406 353.138C795.669 348.332 793.446 344.372 792.535 344.372C791.709 344.372 786.734 346.511 781.609 349.094C763.737 358.094 696.507 386.214 694.516 385.558C693.352 385.155 703.77 380.01 717.597 374.144C744.383 362.816 789.55 342.467 790.948 341.154C791.456 340.73 790.121 336.918 787.983 332.705L784.171 325.103L760.519 337.744C710.313 364.637 633.215 403.683 633.215 402.18C633.215 401.354 654.305 389.772 680.117 376.474C705.845 363.155 739.598 345.537 754.971 337.257C783.092 322.286 783.091 322.287 779.132 314.6C776.972 310.365 774.24 306.892 773.097 306.892C771.847 306.892 743.24 323.599 709.487 344.118C635.459 388.946 629.339 392.503 628.09 391.275C627.518 390.682 632.219 387.379 638.508 383.821C655.385 374.314 765.982 306.575 768.862 304.098C770.683 302.361 770.026 300.116 765.897 293.743C760.519 285.633 760.519 285.633 754.568 290.016C747.115 295.564 668.132 351.148 642.489 368.935C631.817 376.304 622.627 381.831 622.14 381.344C621.547 380.772 630.737 373.742 642.489 365.632C697.396 327.665 756.623 284.722 757.046 282.583C757.3 281.249 754.971 277.29 752.006 273.647L746.543 267.041L717.745 290.439C636.031 356.781 618.9 370.333 615.851 371.243C613.204 372.069 613.289 371.667 616.423 369.105C670.525 325.506 741.906 266.787 742.901 265.22C743.642 264.056 741.249 260.075 737.692 256.454L731.234 249.826L713.447 266.046C703.685 274.897 675.819 300.688 651.573 323.282C627.349 345.855 607.572 363.557 607.572 362.561C607.572 361.566 612.696 356.04 618.9 350.238C625.105 344.372 643.569 327.073 659.853 311.784C676.157 296.39 698.56 275.553 709.741 265.368L730.005 246.925L722.637 239.408C715.268 231.785 715.268 231.785 711.054 236.253C708.746 238.751 684.246 264.712 656.803 294.081C629.254 323.366 605.75 347.676 604.691 348.099C602.532 348.925 607.339 343.292 626.438 322.689C633.045 315.659 651.658 295.649 667.793 278.285C683.929 260.901 700.551 242.965 704.85 238.497L712.621 230.302L706.014 224.183C702.287 220.879 698.73 218.148 698.073 218.148C696.824 218.063 633.468 294.335 620.403 311.53C617.248 315.743 614.369 318.243 613.945 317.163C613.606 315.998 629.085 295.733 648.439 271.996C700.043 208.809 695.914 215.501 687.655 209.212C683.844 206.226 679.863 204.172 678.868 204.575C677.809 204.913 657.693 232.293 634.21 265.453C583.665 336.516 581.78 338.994 580.531 337.744C580.044 337.257 582.754 332.535 586.651 327.242C610.218 295.161 674.569 202.923 674.569 201.187C674.654 199.048 659.196 189.434 657.947 190.768C657.629 191.107 653.076 198.54 647.952 207.222C639.503 221.621 574.157 328.491 572.675 330.397C572.336 330.884 571.68 330.799 571.193 330.397C570.684 329.889 589.382 298.041 612.632 259.587C635.861 221.049 654.898 189.033 654.898 188.376C654.898 186.873 639.101 177.958 638.19 178.847C637.852 179.271 631.563 191.108 624.279 205.252C589.869 271.996 561.664 324.764 560.838 323.938C560.351 323.451 572.76 298.295 588.387 268.1C604.099 237.841 621.06 204.913 626.1 194.898L635.205 176.623L626.015 172.156C620.806 169.678 616.507 168.598 616.105 169.678C615.766 170.843 608.313 188.122 599.631 208.217C590.865 228.248 576.486 261.493 567.635 282.012C558.784 302.425 551.161 318.391 550.843 317.332C550.505 316.252 562.744 286.226 578.138 250.482C618.159 157.185 615.11 167.286 605.094 162.818C600.457 160.743 596.158 159.662 595.502 160.404C594.761 161.166 592.283 167.603 589.869 174.633C587.477 181.663 576.317 213.257 565.052 244.956C553.808 276.549 544.046 304.754 543.305 307.655C542.225 312.038 538.519 316.993 538.519 314.092C538.519 312.948 570.346 220.371 582.691 185.559C587.73 171.499 591.775 159.429 591.775 158.667C591.775 157.185 574.242 151.976 573.162 153.141C572.019 154.284 530.579 305.326 530.579 308.227C530.579 309.624 529.753 310.788 528.758 310.788C526.852 310.788 537.927 266.533 557.958 194.411C566.047 165.295 569.033 151.552 567.55 150.642C563.167 147.931 551.754 146.767 550.42 148.842C549.679 149.986 542.649 184.078 534.708 224.522C520.817 295.818 517.26 311.614 516.921 304.499C516.752 300.688 520.224 282.075 535.788 202.669C541.823 171.902 546.291 146.258 545.698 145.687C545.126 145.115 540.743 144.12 536.106 143.612L527.593 142.638L522.215 183.824C519.229 206.396 515.439 237.417 513.618 252.557C510.378 280.339 505.847 299.545 507.985 276.294C509.468 259.672 522.554 153.056 523.867 146.767C524.777 141.876 524.375 141.473 515.672 140.224C510.632 139.398 506.249 139.08 505.931 139.482C505.592 139.821 504.258 157.842 502.946 179.61C501.696 201.272 499.875 221.705 498.88 224.924C497.652 229.074 497.398 225.602 498.054 213.108C498.478 203.347 499.558 182.659 500.214 167.201L501.527 139.081H492.443C483.253 139.081 483.253 139.081 483.253 154.877C483.253 164.131 482.427 170.674 481.263 170.674C480.119 170.674 479.293 164.131 479.293 154.877V139.081H469.277C459.177 139.081 459.177 139.08 460.342 151.489C463.327 183.993 465.889 228.164 464.894 229.138C463.327 230.726 461.909 217.809 459.262 175.883L456.953 138.657L448.272 139.652C443.55 140.139 439.251 140.965 438.764 141.473C438.256 141.96 441.898 172.071 446.789 208.301C451.575 244.616 455.556 276.041 455.386 278.285C454.963 287.793 451.49 266.448 443.719 207.222C439.166 172.494 434.868 143.379 434.127 142.638C432.136 140.563 415.09 143.951 415.514 146.259C415.768 147.423 423.031 183.654 431.818 226.914C440.5 270.175 447.192 305.982 446.705 306.49C445.371 307.888 444.63 305.008 435.863 261.493C421.062 188.376 412.21 146.343 411.469 145.602C410.643 144.861 392.433 148.99 392.433 149.985C392.433 150.239 394.678 158.349 397.473 167.857C410.305 212.028 435.778 307.57 435.037 308.311C434.529 308.798 432.391 303.102 430.146 295.733C424.619 277.035 392.179 160.827 391.035 155.364C390.443 152.971 389.13 150.98 387.965 150.98C384.09 150.98 370.771 155.533 370.771 156.931C370.771 157.672 377.462 177.28 385.742 200.53C419.558 295.564 426.271 315.659 423.031 312.44C422.46 311.868 409.966 277.374 395.249 235.596C380.533 193.902 367.785 159.176 366.96 158.35C365.795 157.101 351.989 161.399 349.511 163.728C349.172 163.961 363.233 197.883 380.766 238.984C416.996 324.277 415.429 320.381 412.698 317.734C411.131 316.252 375.239 234.114 348.177 170.335C345.954 165.041 345.954 165.041 337.187 168.937C326.515 173.723 326.261 173.892 328.739 177.047C332.804 182.002 402.703 320.953 401.708 321.948C401.199 322.456 392.941 307.57 383.497 288.788C373.99 270.005 364.482 251.647 362.407 247.835C360.268 244.045 351.078 226.089 341.888 207.815L325.351 174.633L316.5 179.101C311.629 181.494 307.648 184.078 307.648 184.819C307.648 185.475 326.685 217.809 349.998 256.771C373.333 295.648 392.433 328.322 392.433 329.486C392.433 332.536 389.702 328.152 346.272 255.691C323.869 218.317 305.171 187.381 304.769 186.957C303.689 185.898 287.892 194.982 287.892 196.719C287.892 197.46 309.215 228.82 335.366 266.448C361.581 304.013 382.587 335.183 382.1 335.606C381.02 336.686 374.159 327.009 293.757 211.689L284.483 198.37L276.14 204.427C268.601 209.784 268.03 210.779 270.592 213.764C277.622 221.959 360.353 325.929 361.835 328.406C367.383 337.744 353.894 321.863 312.455 270.259C266.124 212.6 265.552 212.028 261.508 215.501C248.676 226.575 248.845 224.606 259.687 236.189C264.981 241.97 282.916 261.239 299.475 278.941C316.012 296.728 329.162 311.614 328.654 312.101C327.744 313.012 314.594 299.46 274.149 256.03C244.462 224.267 248.591 224.84 225.934 249.17C216.257 259.503 216.257 259.502 221.953 263.97C232.138 271.911 334.202 355.044 342.227 361.905C346.526 365.547 348.516 368.025 346.695 367.453C344.789 366.776 326.176 352.228 305.255 335.013C238.999 280.762 217.337 263.484 215.6 263.484C212.53 263.484 202.429 277.544 204.25 279.196C205.669 280.593 277.05 331.308 325.944 365.632C334.371 371.582 340.914 376.876 340.321 377.363C339.834 377.956 325.774 368.766 309.152 357.035C213.271 289.127 200.947 280.508 200.291 281.503C200.037 281.842 197.39 285.569 194.341 289.699C191.27 293.828 189.047 297.554 189.449 297.893C189.788 298.296 206.58 308.481 226.675 320.72C293.503 361.249 333.376 386.299 332.381 387.294C331.809 387.887 327.172 385.643 321.963 382.424C308.982 374.229 268.284 349.158 225.193 322.774C205.415 310.619 188.306 301.281 187.226 301.937C186.061 302.594 183.414 306.575 181.339 310.704C177.464 318.242 177.464 318.242 210.455 335.521C300.872 382.826 329.416 398.221 328.505 399.131C327.68 399.957 305.34 388.713 255.304 362.16C247.681 358.094 226.675 347.104 208.634 337.744L175.813 320.635L171.577 328.576C166.051 339.248 166.136 339.481 175.813 343.377C186.548 347.591 322.132 407.813 323.212 408.808C327.087 412.196 318.405 409.21 296.743 399.618C282.598 393.329 252.403 380.095 229.661 370.1C206.834 360.084 183.499 349.751 177.782 347.104C172.001 344.542 166.876 342.382 166.368 342.382C165.225 342.382 157.2 360.508 158.025 361.164C158.428 361.567 250.836 395.15 308.389 415.923C314.848 418.231 319.231 420.39 318.151 420.793C316.33 421.386 273.154 406.33 190.36 376.134C172.086 369.422 156.861 364.213 156.607 364.552C156.374 364.806 154.786 369.274 153.049 374.483C149.915 383.822 149.915 383.821 160.164 386.722C165.797 388.289 193.917 396.4 222.715 404.679C251.492 412.937 283.001 421.957 292.762 424.604C314.191 430.385 317.092 431.465 314.509 432.376C313.45 432.799 275.886 422.614 231.227 409.803C149.831 386.468 149.831 386.468 147.755 392.355C145.532 398.962 145.045 407.474 147.015 407.474C148.094 407.474 295.155 438.919 309.3 442.137C311.862 442.794 313.535 443.705 312.942 444.297C311.947 445.293 299.39 442.878 249.332 432.122C178.777 416.918 144.706 409.887 144.135 410.544C142.631 411.857 139.751 427.823 140.725 428.818C141.721 429.813 154.468 431.974 196.077 438.009C264.811 448.003 299.538 453.382 305.594 454.97C320.713 458.845 291.682 455.033 183.584 438.919C159.846 435.446 140.81 433.456 139.899 434.451C139.074 435.362 137.93 439.914 137.338 444.445C136.109 454.122 135.368 453.89 166.453 455.88C196.988 457.934 304.515 466.785 307.564 467.526C315.758 469.517 290.856 468.204 221.381 462.826C179.37 459.501 142.885 456.854 140.408 456.854C136.257 456.854 135.855 457.764 135.855 466.7V476.631L167.957 476.801C185.574 476.886 202.281 477.118 204.928 477.372C207.66 477.627 232.456 477.944 260.089 478.198C287.638 478.452 309.724 479.109 309.067 479.765C308.39 480.443 269.194 480.761 221.868 480.676L135.855 480.359V500.453L152.139 499.373C193.345 496.557 248.76 494.08 249.671 494.905C251.238 496.557 233.959 498.061 183.753 500.623C147.353 502.444 135.855 503.587 135.855 505.578C135.855 508.966 177.845 509.643 312.942 508.225ZM323.36 478.538C323.36 477.288 347.69 476.547 392.433 476.547C437.176 476.547 461.506 477.288 461.506 478.538C461.506 479.85 437.176 480.528 392.433 480.528C347.69 480.528 323.36 479.85 323.36 478.538ZM497.99 478.538C497.228 477.288 520.648 476.547 566.958 476.547C612.463 476.547 637.111 477.288 637.111 478.538C637.111 479.85 612.865 480.528 568.207 480.528C524.375 480.528 498.816 479.766 497.99 478.538ZM326.177 472.418C325.605 471.507 329.988 470.682 336.023 470.682C346.356 470.682 347.034 470.342 347.034 465.79C347.034 462.148 347.86 461.237 350.168 462.148C351.989 462.825 352.899 464.794 352.327 466.954C351.734 469.178 352.412 470.682 353.979 470.682C355.461 470.682 356.859 468.691 357.283 466.214C357.621 463.821 358.765 461.746 359.845 461.746C360.925 461.746 362.089 463.821 362.492 466.214C363.233 471.762 366.79 472.163 366.79 466.7C366.79 464.477 368.124 462.741 369.691 462.741C371.343 462.741 372.677 464.477 372.677 466.7C372.677 468.86 373.587 470.682 374.646 470.682C375.726 470.682 376.637 468.86 376.637 466.7C376.637 464.477 377.97 462.741 379.622 462.741C381.274 462.741 382.587 464.477 382.587 466.7C382.587 468.86 383.413 470.682 384.493 470.682C385.657 470.682 386.483 468.86 386.483 466.7C386.483 464.477 387.796 462.741 389.468 462.741C391.12 462.741 392.433 464.477 392.433 466.7C392.433 468.86 393.682 470.682 395.165 470.682C396.986 470.682 397.642 469.262 396.901 466.7C396.245 463.884 396.901 462.741 399.294 462.741C401.793 462.741 402.449 463.884 401.708 466.7C401.03 469.262 401.623 470.682 403.444 470.682C405.011 470.682 406.239 468.86 406.239 466.7C406.239 464.562 407.489 462.741 408.971 462.741C412.528 462.741 414.604 468.119 411.533 469.347C410.22 469.94 410.707 470.427 412.613 470.512C414.858 470.596 416.086 469.178 416.086 466.7C416.086 464.477 417.42 462.741 419.071 462.741C420.723 462.741 422.057 464.477 422.057 466.7C422.057 468.86 422.883 470.682 423.942 470.682C425.106 470.682 425.932 468.86 425.932 466.7C425.932 464.477 427.266 462.741 428.918 462.741C430.569 462.741 431.882 463.82 431.882 465.133C431.882 466.954 432.39 466.954 434.296 465.133C437.853 461.491 441.729 462.317 441.729 466.7C441.729 468.86 442.555 470.682 443.465 470.682C444.46 470.682 445.116 469.115 444.968 467.294C444.883 465.388 446.281 463.566 448.187 463.143C450.58 462.741 451.66 463.736 451.66 466.531C451.66 468.776 452.485 470.682 453.565 470.682C454.73 470.682 455.556 468.86 455.556 466.7C455.556 464.477 456.869 462.741 458.521 462.741C462.078 462.741 462.501 467.95 459.028 469.347C457.61 469.855 458.521 470.427 460.998 470.512C464.153 470.596 465.381 469.517 465.381 466.7C465.381 464.477 466.715 462.741 468.367 462.741C472.009 462.741 472.347 469.347 468.875 472.163C465.72 474.726 327.743 474.98 326.177 472.418ZM491.532 472.333C487.805 468.607 488.462 462.402 492.612 463.228C494.497 463.651 495.916 465.472 495.746 467.294C495.661 469.178 496.318 470.682 497.229 470.682C498.224 470.682 498.965 468.945 498.965 466.7C498.965 461.089 506.333 461.492 507.498 467.209C508.324 471.677 508.324 471.677 508.578 467.209C508.726 464.223 510.145 462.826 512.792 462.826C517.662 462.826 518.086 468.034 513.279 469.347C511.056 469.94 511.712 470.258 515.1 470.427C519.399 470.596 520.14 469.94 519.314 466.7C518.488 463.651 519.229 462.826 522.638 462.826C526.111 462.826 526.852 463.651 526.026 466.7C525.2 469.771 525.942 470.681 529.245 470.512C531.553 470.427 532.4 469.94 531.066 469.347C527.022 467.696 528.25 462.826 532.718 462.826C535.936 462.826 536.698 463.736 535.873 466.7C534.962 470.342 535.873 470.682 547.371 470.682C558.784 470.682 559.695 470.427 558.784 466.7C558.022 463.969 558.7 462.826 560.923 462.826C562.829 462.826 564.078 464.392 564.078 466.7C564.078 471.909 567.635 471.825 568.376 466.7C569.287 461.174 572.844 460.835 573.585 466.298C573.988 468.691 575.407 470.682 576.889 470.682C578.456 470.682 579.134 469.262 578.541 466.954C578.054 464.964 578.456 462.656 579.62 462C581.929 460.581 586.396 467.526 584.427 469.432C583.749 470.173 584.745 470.682 586.566 470.682C588.472 470.682 589.467 469.771 588.726 468.606C588.048 467.526 587.984 465.218 588.641 463.482C589.551 460.919 590.293 460.835 592.855 462.91C594.506 464.223 595.417 466.616 594.845 468.035C594.252 469.517 595.078 470.682 596.815 470.682C598.488 470.682 599.228 469.771 598.572 468.606C597.894 467.441 597.81 465.133 598.487 463.482C599.398 460.919 600.139 460.835 602.616 462.826C604.353 464.223 605.263 466.531 604.691 468.035C604.099 469.432 604.924 470.682 606.343 470.682C608.08 470.682 608.736 469.262 608.08 466.7C607.338 463.884 607.995 462.741 610.388 462.741C612.209 462.741 614.199 464.562 614.771 466.7C615.512 469.601 617.502 470.682 622.14 470.682C628.005 470.682 628.429 470.258 627.836 464.223C627.603 460.665 628.344 455.287 629.573 452.238C632.728 444.297 635.12 449.252 634.782 462.974L634.548 474.069L564.226 474.408C510.886 474.641 493.269 474.154 491.448 472.333H491.532ZM325.52 463.312C325.689 460.327 326.177 455.203 326.769 452.069C327.743 446.267 327.743 446.266 330.242 451.073C334.286 458.929 333.715 468.691 329.162 468.691C326.261 468.691 325.435 467.357 325.52 463.312ZM337.187 464.647C337.187 459.755 341.74 460.496 342.714 465.473C343.053 467.357 342.058 468.691 340.237 468.691C338.416 468.691 337.187 467.039 337.187 464.647ZM538.435 465.62C538.435 463.821 539.833 462.741 541.738 463.143C546.693 464.138 547.371 468.691 542.564 468.691C540.171 468.691 538.435 467.442 538.435 465.62ZM548.345 465.705C548.345 464.138 549.679 462.741 551.246 462.741C552.898 462.741 554.231 464.138 554.231 465.705C554.231 467.357 552.898 468.691 551.246 468.691C549.679 468.691 548.345 467.357 548.345 465.705ZM617.926 466.214C619.154 462.487 625.274 461.915 625.274 465.557C625.274 467.357 623.622 468.691 621.229 468.691C618.752 468.691 617.418 467.696 617.926 466.214ZM485.074 451.899C481.517 440.486 479.039 439.914 476.307 449.591C471.353 467.039 469.764 455.944 473.576 430.301C475.651 416.579 476.138 415.414 480.437 415.414C485.582 415.414 487.318 422.127 482.681 423.948C481.199 424.605 481.516 425.007 483.592 425.091C487.318 425.261 489.965 439.914 488.801 453.89C488.144 461.746 488.144 461.745 485.074 451.899ZM494.497 458.188C492.612 456.706 491.109 450.502 490.368 440.74C489.14 424.351 489.711 423.27 500.383 423.27C505.254 423.27 505.423 423.609 504.174 432.46C503.518 437.5 502.946 445.356 502.946 449.993C502.946 459.014 499.558 462.232 494.497 458.188ZM543.305 458.675C542.903 458.103 543.136 448.172 543.729 436.674C544.957 415.838 544.957 415.838 552.898 414.589C558.191 413.678 561.261 414.101 562.341 415.668C563.485 417.659 566.556 436.441 568.694 454.885C568.948 456.706 567.127 458.019 564.078 458.273C547.858 459.671 543.962 459.755 543.305 458.675ZM351.904 454.207C352.984 449.422 358.85 406.479 358.85 403.514C358.85 400.444 372.084 401.269 373.333 404.34C373.905 405.907 377.801 408.236 381.93 409.633C391.692 412.852 394.254 416.494 392.349 424.181C391.438 427.505 389.701 436.505 388.473 444.297L386.229 458.273L368.611 458.358C351.565 458.442 350.994 458.273 351.904 454.207ZM392.518 455.118C392.518 453.381 394.085 443.958 395.991 434.197C399.379 416.41 399.378 416.409 406.006 415.753C409.648 415.414 413.354 415.923 414.265 416.749C415.091 417.659 416.509 427.505 417.25 438.664L418.648 458.929L405.498 458.59C394.826 458.357 392.433 457.68 392.518 455.118ZM421.295 448.511C420.638 442.794 420.066 433.858 420.066 428.733C420.066 420.306 420.469 419.396 424.45 419.396C434.042 419.48 434.698 421.386 431.818 440.888C429.659 455.287 428.494 458.844 425.847 458.844C423.37 458.844 422.29 456.367 421.295 448.511ZM433.132 452.386C433.619 448.913 434.699 440.655 435.44 434.197C436.859 422.296 436.858 422.296 445.201 421.703C453.227 421.132 453.565 421.386 453.735 426.68C453.735 429.729 454.476 438.178 455.302 445.525L456.784 458.844H444.46C432.136 458.844 432.136 458.844 433.132 452.386ZM459.431 456.367C459.262 453.148 457.695 437.839 456.615 429.729C455.874 423.863 456.297 423.27 461.083 423.355C470.612 423.355 472.009 425.6 470.526 438.41C468.367 456.028 467.372 458.844 463.242 458.844C461.167 458.844 459.431 457.68 459.431 456.367ZM505.931 441.566C506.672 432.058 507.9 423.694 508.578 422.953C509.319 422.297 512.962 421.386 516.667 421.047C524.375 420.306 524.777 421.386 527.509 446.52L528.842 458.844H504.597L505.931 441.566ZM531.553 456.367C530.579 453.148 526.598 426.425 526.598 422.445C526.598 420.136 528.673 419.396 534.708 419.396C542.225 419.396 542.818 419.713 541.654 423.778C540.997 426.256 540.489 435.107 540.489 443.535C540.404 457.616 540.087 458.844 536.444 458.844C534.2 458.844 532.062 457.764 531.553 456.367ZM572.993 454.376C571.426 447.685 566.047 418.57 566.047 416.834C566.047 415.923 571.023 413.021 576.974 410.375C582.924 407.728 587.815 404.679 587.815 403.599C587.815 400.698 598.805 401.121 601.134 404.086C602.193 405.42 604.099 415.012 605.348 425.261C606.661 435.594 608.164 447.346 608.736 451.476C609.901 458.845 609.901 458.844 591.944 458.844C574.983 458.844 573.988 458.59 572.993 454.376ZM454.307 418.887C453.396 417.49 452.655 409.062 452.57 400.126L452.401 383.821H464.068C474.317 383.821 475.566 384.245 474.317 387.294C473.576 389.2 473.089 397.648 473.173 406.076C473.406 421.386 473.407 421.386 464.555 421.386C459.685 421.386 455.132 420.221 454.222 418.887H454.307ZM487.721 415.923C486.726 412.937 486.556 406.902 487.403 402.603C488.229 398.22 488.462 392.27 487.89 389.284C486.81 383.906 486.98 383.821 497.482 383.821H508.07L507.901 400.126C507.731 409.062 507.075 417.49 506.164 418.887C505.339 420.221 501.294 421.386 497.08 421.386C490.537 421.386 489.203 420.56 487.721 415.923ZM440.5 414.927C441.157 412.45 441.729 409.803 441.729 408.978C441.729 408.236 443.635 407.558 445.943 407.558C448.759 407.558 449.754 408.469 448.928 410.459C448.356 412.026 448.674 413.848 449.754 414.504C452.994 416.494 449.754 419.396 444.376 419.396C440.077 419.396 439.505 418.654 440.5 414.927ZM510.802 415.668C510.802 412.852 511.966 412.196 515.757 412.937C521.389 414.017 522.215 416.41 517.578 418.146C512.453 420.136 510.802 419.565 510.802 415.668ZM420.32 415.668C416.424 413.191 417.165 402.032 421.803 391.105C425.614 382.254 426.355 381.682 432.306 382.254C438.679 382.826 438.679 382.826 438.679 396.654C438.595 414.928 437.515 417.405 429.489 417.405C425.932 417.32 421.803 416.579 420.32 415.668ZM523.867 415.182C523.38 413.678 522.638 405.589 522.13 397.14C521.304 381.831 521.304 381.831 528.758 381.831C535.936 381.831 536.36 382.169 540.34 392.757C546.947 410.544 545.698 414.504 532.972 416.579C526.852 417.574 524.46 417.151 523.867 415.182ZM403.593 412.111C401.03 409.549 402.364 408.067 406.747 408.554C414.116 409.295 414.434 409.38 413.121 411.455C411.787 413.678 405.583 414.101 403.593 412.111ZM477.79 412.111C479.696 411.624 482.427 411.624 483.761 412.111C485.074 412.683 483.507 413.106 480.203 413.022C476.964 413.022 475.905 412.619 477.79 412.026V412.111ZM546.863 410.947C547.773 408.067 558.191 406.415 558.191 409.126C558.191 410.205 556.222 411.539 553.724 412.196C547.202 413.932 545.952 413.678 546.863 410.947ZM564.162 408.723C564.162 406.076 563.315 401.693 562.257 399.046C561.092 395.827 561.262 390.936 562.913 384.562L565.391 374.97L567.55 383.821C569.859 393.096 568.779 410.799 565.814 412.62C564.904 413.191 564.162 411.454 564.162 408.723ZM394.254 410.947C392.772 403.683 392.687 392.757 394 385.811C395.652 376.96 395.652 376.96 397.727 383.991C399.971 391.762 398.807 411.455 396.075 411.455C395.165 411.455 394.339 411.201 394.254 410.947ZM477.303 405.589C477.303 403.006 478.615 401.608 481.029 401.608C483.846 401.608 484.502 402.604 483.761 405.589C483.253 407.728 481.516 409.464 480.034 409.464C478.552 409.464 477.303 407.728 477.303 405.589ZM513.364 408.152C515.27 407.643 517.917 407.643 519.229 408.236C520.563 408.723 518.996 409.126 515.757 409.126C512.538 409.062 511.373 408.639 513.364 408.152ZM377.97 406.246C375.154 403.43 376.806 401.608 382.015 401.608C385.975 401.693 386.737 402.18 384.746 403.429C382.502 404.827 382.671 405.335 385.742 406.076C388.558 406.817 388.219 407.156 384.323 407.326C381.528 407.389 378.711 406.902 377.97 406.246ZM573.988 403.684C573.988 400.613 575.237 399.618 579.049 399.618C585.57 399.618 584.999 406.246 578.371 407.157C575.068 407.644 573.988 406.818 573.988 403.768V403.684ZM404.27 403.599C404.27 402.519 406.006 401.608 408.23 401.608C410.39 401.608 412.126 402.519 412.126 403.599C412.126 404.679 410.39 405.589 408.23 405.589C406.006 405.589 404.27 404.679 404.27 403.599ZM441.729 403.599C441.729 402.519 443.55 401.608 445.709 401.608C447.848 401.608 449.669 402.519 449.669 403.599C449.669 404.679 447.848 405.589 445.709 405.589C443.55 405.589 441.729 404.679 441.729 403.599ZM511.543 402.095C511.458 400.211 510.717 396.061 509.891 392.927C508.726 388.798 508.896 387.633 510.548 388.628C512.051 389.539 512.792 387.887 512.877 383.504C512.877 373.827 515.926 370.185 517.408 377.956C518.171 381.429 518.171 385.155 517.493 386.214C516.752 387.379 517.26 388.861 518.404 389.624C521.876 391.762 518.912 405.589 514.931 405.589C513.11 405.589 511.627 404.001 511.543 402.095ZM547.371 403.599C548.027 402.519 550.759 401.608 553.406 401.608C556.052 401.608 558.191 402.519 558.191 403.599C558.191 404.679 555.46 405.589 552.156 405.589C548.599 405.589 546.608 404.743 547.371 403.599ZM359.845 397.649C359.104 396.569 361.179 395.743 364.651 395.743C367.955 395.743 370.686 396.569 370.686 397.649C370.686 398.792 368.527 399.618 365.88 399.618C363.233 399.618 360.501 398.792 359.845 397.649ZM378.627 396.738C378.627 395.065 379.855 393.752 381.358 393.752C382.841 393.752 384.577 395.065 385.234 396.738C385.975 398.708 385.064 399.618 382.502 399.618C380.364 399.618 378.627 398.305 378.627 396.738ZM404.27 397.649C404.27 396.569 406.006 395.743 408.23 395.743C410.39 395.743 412.126 396.569 412.126 397.649C412.126 398.792 410.39 399.618 408.23 399.618C406.006 399.618 404.27 398.792 404.27 397.649ZM441.072 395.235C440.416 392.757 440.733 390.449 441.813 390.11C442.893 389.771 443.719 386.066 443.719 381.831C443.719 372.98 447.531 369.02 447.933 377.363C448.441 385.473 448.589 386.638 450.093 388.946C452.316 392.503 449.436 399.618 445.709 399.618C443.719 399.618 441.729 397.712 441.072 395.235ZM475.312 394.748C475.312 392.016 476.223 389.772 477.387 389.772C478.552 389.772 478.954 388.946 478.298 387.887C477.641 386.807 477.705 382.656 478.382 378.697C479.526 372.747 480.119 372.069 481.686 374.885C482.681 376.791 483.168 380.92 482.681 384.075C482.258 387.209 482.596 389.772 483.507 389.772C484.417 389.772 485.159 392.016 485.159 394.748C485.159 398.708 484.163 399.702 480.203 399.702C476.223 399.702 475.228 398.708 475.228 394.748H475.312ZM548.345 397.712C548.345 396.653 550.081 395.743 552.241 395.743C554.464 395.743 556.222 396.653 556.222 397.712C556.222 398.792 554.464 399.702 552.241 399.702C550.081 399.702 548.345 398.792 548.345 397.712ZM587.815 397.966C587.815 395.743 597.238 393.244 599.716 394.833C603.781 397.31 601.282 399.702 594.676 399.702C590.864 399.702 587.815 398.877 587.815 397.966ZM575.237 394.748C575.894 393.096 577.63 391.762 579.133 391.762C580.615 391.762 581.844 393.096 581.844 394.748C581.844 396.4 580.107 397.712 577.969 397.712C575.322 397.712 574.496 396.738 575.237 394.748ZM361.496 389.369C361.92 386.891 362.83 385.155 363.487 385.388C364.228 385.642 366.388 385.897 368.209 385.981C371.173 386.151 371.089 386.384 367.785 387.887C363.826 389.539 371.682 390.11 367.785 391.762C361.666 394.409 360.84 394.091 361.581 389.369H361.496ZM403.19 389.539C402.449 387.125 402.851 384.816 404.185 383.991C405.413 383.165 406.239 381.768 406.091 380.772C405.265 376.389 406.408 370.1 407.996 370.1C410.305 370.1 414.857 389.03 413.206 391.677C410.961 395.319 404.588 393.922 403.19 389.624V389.539ZM546.609 389.454C545.635 386.977 545.635 384.563 546.524 384.245C547.435 383.906 548.853 379.184 549.51 373.827C551.161 361.482 553.49 363.07 554.803 377.448C555.057 379.946 555.968 381.915 556.878 381.915C557.789 381.915 558.191 384.329 557.873 387.379C557.048 394.663 549.107 396.145 546.609 389.454ZM377.97 385.981C377.377 383.165 377.547 380.518 378.288 379.947C379.029 379.354 379.707 377.363 379.771 375.479C380.279 364.722 380.765 362.16 382.269 362.16C383.179 362.16 383.921 363.302 384.005 364.637C384.005 365.949 384.662 371.921 385.403 377.702C386.652 387.379 386.398 388.205 383.179 387.061C379.855 385.897 379.855 386.066 383.328 388.713C386.885 391.445 386.885 391.508 382.925 391.275C380.279 391.106 378.542 389.2 377.97 385.981ZM589.785 388.798C589.785 386.977 591.605 385.897 594.676 385.897C597.81 385.897 599.631 386.977 599.631 388.798C599.631 390.682 597.81 391.762 594.676 391.762C591.605 391.762 589.785 390.682 589.785 388.798ZM575.322 388.544C573.162 386.384 573.755 379.947 576.063 379.947C577.228 379.947 577.63 379.036 576.889 377.956C576.232 376.792 576.317 372.154 577.143 367.538L578.625 359.258L580.277 367.029C581.272 371.328 581.611 375.966 581.103 377.3C580.531 378.613 581.103 380.01 582.267 380.433C585.168 381.344 582.352 389.856 579.133 389.856C577.799 389.856 576.063 389.2 575.322 388.544ZM591.118 382.593C588.387 379.947 589.954 377.956 594.676 377.956C597.81 377.956 599.631 379.12 599.631 380.92C599.631 383.906 593.596 385.071 591.118 382.593ZM360.84 379.947C360.84 378.867 363.063 377.956 365.795 377.956C368.442 377.956 370.686 378.867 370.686 379.947C370.686 381.005 368.442 381.915 365.795 381.915C363.063 381.915 360.84 381.005 360.84 379.947ZM360.099 371.582C358.108 364.065 358.596 362.244 362.322 363.641C365.054 364.637 365.308 364.298 363.656 362.075C362.153 360.084 362.089 356.527 363.487 350.322L365.477 341.471L367.129 349.412C368.039 353.71 368.95 358.602 369.035 360.253C369.183 361.82 370.094 363.726 371.089 364.298C372.084 364.975 371.914 367.77 370.856 370.756C368.293 377.299 361.75 377.786 360.099 371.582ZM431.882 370.1C431.882 364.129 431.882 364.129 455.789 364.129C476.731 364.129 479.526 364.552 478.467 367.283C477.789 369.02 477.303 371.667 477.303 373.234C477.303 375.394 474.169 376.05 464.407 376.05C452.485 376.05 451.406 375.627 449.669 371.095C448.589 368.364 446.853 366.119 445.794 366.119C444.714 366.119 443.232 368.364 442.555 371.095C441.644 374.653 439.992 376.05 436.604 376.05C432.645 376.05 431.882 375.055 431.882 370.1ZM484.079 373.064C483.676 371.413 482.766 368.766 482.258 367.114C481.517 364.637 484.078 364.129 497.906 364.129C514.443 364.129 514.444 364.129 512.199 370.1C510.061 375.796 509.552 376.05 497.482 376.05C488.144 376.05 484.82 375.309 484.079 373.064ZM518.001 371.582C516.095 364.382 516.434 363.895 523.125 364.552C528.504 365.039 529.668 366.034 530.24 370.587C530.727 375.394 530.155 376.05 525.031 376.05C520.648 376.05 518.912 374.885 518.001 371.582ZM589.636 370.756C588.387 367.368 588.302 365.039 589.551 364.298C590.631 363.641 592.114 358.433 592.855 352.652C594.506 340.243 597.81 341.556 598.318 354.875C598.487 359.745 599.313 363.387 600.139 362.9C601.96 361.82 602.109 368.533 600.457 372.916C598.488 377.956 591.944 376.622 589.721 370.756H589.636ZM441.729 359.258C441.729 356.696 447.446 356.273 481.199 356.273C515.015 356.273 520.732 356.696 520.732 359.258C520.732 361.736 515.015 362.244 481.199 362.244C447.446 362.244 441.729 361.736 441.729 359.258ZM331.237 337.998C320.882 327.919 294.414 303.017 272.413 282.499C250.412 262.065 232.794 244.871 233.366 244.278C234.277 243.367 344.535 345.537 350.74 352.969C352.243 354.79 352.645 356.273 351.735 356.273C350.74 356.188 341.57 348.014 331.237 337.998ZM468.875 352.8C444.799 352.313 439.759 351.741 439.759 349.327C439.759 346.85 446.027 346.448 481.199 346.448C516.752 346.448 522.638 346.85 522.638 349.327C522.638 351.487 520.479 352.398 515.269 352.483C511.225 352.652 505.677 352.8 502.946 352.969C500.214 353.139 484.904 353.054 468.875 352.715V352.8ZM445.709 341.471C445.709 338.909 451.088 338.507 482.173 338.507C513.703 338.507 518.404 338.909 517.493 341.471C516.519 343.949 510.547 344.457 481.029 344.457C450.918 344.457 445.709 344.033 445.709 341.471ZM455.958 335.013C450.347 334.356 449.669 333.785 450.749 329.973C451.49 327.665 453.735 324.192 455.64 322.286C457.61 320.465 459.77 316.252 460.511 312.949C461.824 306.893 461.824 306.892 480.521 306.892C499.219 306.892 499.219 306.892 502.289 314.261C503.941 318.306 506.503 322.541 507.985 323.6C509.404 324.764 511.14 327.983 511.797 330.714C513.025 335.86 513.025 335.86 487.721 335.775C473.83 335.775 459.516 335.436 455.958 335.013ZM465.466 301.111C465.466 296.813 493.015 296.22 497.313 300.54C499.304 302.509 496.318 303.018 482.596 303.018C473.173 303.018 465.466 302.191 465.466 301.111ZM469.362 293.086C469.362 292.006 474.571 291.18 481.114 291.18C487.551 291.18 493.353 292.006 494.094 293.086C494.836 294.335 490.452 295.077 482.342 295.077C474.995 295.077 469.362 294.251 469.362 293.086ZM468.875 285.4C467.625 280.678 469.192 280.106 483.676 279.513C495.005 279.026 496.233 279.852 493.84 286.056C492.93 288.364 489.796 289.19 481.263 289.19C471.586 289.19 469.701 288.534 468.875 285.4ZM469.362 269.349C467.456 262.403 467.795 258.592 471.522 244.532C475.651 228.989 476.138 227.995 481.199 227.995C486.238 227.995 486.726 228.99 490.94 244.786C494.349 257.597 495.005 263.314 493.671 268.926C491.935 276.21 491.702 276.379 481.686 276.951C471.522 277.544 471.522 277.544 469.362 269.349ZM477.049 224.691C476.879 223.781 476.879 222.446 476.964 221.62C477.133 220.879 477.789 213.256 478.467 204.829C480.119 183.399 482.342 183.082 483.994 204.173C484.82 214.019 485.582 222.701 485.815 223.527C485.985 224.353 484.163 225.347 481.686 225.665C479.293 226.004 477.133 225.517 477.049 224.691ZM524.608 825.85C585.338 818.248 645.708 792.266 694.431 752.817C757.872 701.447 801.705 629.071 816.506 551.168C823.621 514.112 827.856 518.325 782.35 517.584C726.109 516.758 137.845 517.415 136.935 518.325C134.86 520.295 144.96 569.103 151.821 590.108C202.853 747.926 358.765 846.453 524.608 825.85ZM708.153 599.468C708.217 598.409 709.19 594.28 710.397 590.108C712.536 582.422 712.388 582.168 705.188 576.133L697.82 569.929L707.412 568.616C716.432 567.367 717.343 566.795 720.731 558.939L724.373 550.575L727.93 558.261C732.144 567.451 734.706 569.272 743.642 569.357H750.419L743.304 576.726C737.777 582.507 736.612 584.984 737.861 588.055C738.772 590.278 739.513 594.089 739.598 596.567C739.746 601.035 739.746 601.035 732.483 596.08C725.199 591.104 725.199 591.104 716.686 596.08C711.964 598.812 708.153 600.379 708.153 599.468ZM444.142 779.032C437.515 760.843 436.943 756.862 440.5 756.862C442.554 756.862 444.799 760.843 447.276 768.953C451.406 782.272 451.575 782.272 456.466 767.217C458.435 761.161 460.998 756.862 462.67 756.862C466.291 756.862 466.292 757.286 460.342 775.073C453.883 794.511 450.008 795.506 444.142 779.032ZM479.293 776.724C479.293 763.575 479.039 762.981 474.232 762.41C464.407 761.16 469.616 757.772 482.173 757.2C492.697 756.777 495.005 757.201 495.005 759.678C495.005 761.669 493.269 762.749 490.114 762.749C485.328 762.749 485.159 763.151 485.159 776.555C485.159 787.566 484.587 790.361 482.173 790.361C479.865 790.361 479.293 787.566 479.293 776.724ZM500.955 790.615V756.862H510.802C518.255 756.862 520.732 757.539 520.732 759.763C520.732 761.838 518.573 762.749 513.787 762.749C508.239 762.749 506.906 763.49 506.906 766.708C506.906 769.948 508.239 770.689 513.787 770.689C517.577 770.689 520.732 771.515 520.732 772.511C520.732 773.569 517.577 774.988 513.787 775.729C508.811 776.639 506.906 778.037 506.906 780.768C506.906 783.754 508.324 784.495 514.931 784.495C527.106 784.495 523.782 789.302 511.14 790.044L500.955 790.615ZM663.41 671.674C654.982 667.461 653.31 651.982 660.425 643.872C664.66 638.917 675.48 639.404 680.456 644.698C685.495 650.161 685.834 662.082 681.028 667.694C676.729 672.755 669.127 674.491 663.325 671.59L663.41 671.674ZM675.48 664.899C679.376 661.087 679.545 651.495 675.734 648.34C674.167 647.112 670.864 646.286 668.281 646.688C664.66 647.196 663.664 648.678 663.156 654.883C662.161 666.465 668.704 671.76 675.48 664.899ZM242.895 656.196C239.655 643.131 239.422 640.399 241.73 640.399C244.864 640.399 248.337 648.192 248.337 655.285C248.337 662.337 251.746 661.257 253.228 653.718C255.536 642.39 256.447 640.399 259.263 640.399C260.83 640.399 262.906 643.956 264.155 648.763C268.453 665.555 268.855 665.64 271.015 649.759C272.011 642.475 273.07 640.399 275.886 640.399C279.274 640.399 279.274 641.077 275.483 656.196C270.592 675.804 266.378 677.54 262.164 661.574L259.433 651.241L256.532 661.574C252.149 677.54 247.85 675.889 242.895 656.196ZM281.92 670.341C281.92 669.515 283.996 662.654 286.473 655.137C293.016 635.868 296.891 636.27 304.006 656.704C309.152 671.336 309.215 672.014 305.51 672.014C303.35 672.014 301.613 670.764 301.613 669.282C301.613 664.814 290.03 664.073 288.718 668.372C287.553 671.929 281.92 673.58 281.92 670.341ZM297.654 656.704C297.654 653.062 293.842 645.862 293.757 649.25C293.757 650.33 293.186 653.231 292.508 655.709C291.597 658.927 292.106 660.176 294.499 660.176C296.235 660.176 297.654 658.609 297.654 656.704ZM317.41 659.181C317.41 646.773 317.24 646.371 312.455 646.371C309.385 646.371 307.564 645.206 307.564 643.385C307.564 641.077 310.295 640.399 320.396 640.399C330.475 640.399 333.207 641.077 333.207 643.385C333.207 645.206 331.301 646.371 328.251 646.371C323.529 646.371 323.36 646.773 323.36 659.181C323.36 669.282 322.704 672.014 320.396 672.014C318.066 672.014 317.41 669.282 317.41 659.181ZM347.034 659.181C347.034 646.773 346.865 646.371 342.058 646.371C339.009 646.371 337.187 645.206 337.187 643.385C337.187 641.077 339.75 640.399 349.003 640.399C358.193 640.399 360.84 641.077 360.84 643.385C360.84 645.036 359.104 646.371 356.859 646.371C353.302 646.371 352.899 647.599 352.899 659.181C352.899 669.282 352.328 672.014 349.998 672.014C347.69 672.014 347.034 669.282 347.034 659.181ZM361.327 669.515C361.835 668.117 364.313 661.087 366.96 653.718C372.91 636.757 376.721 636.101 382.354 651.156C388.706 668.202 389.384 672.014 385.826 672.014C384.175 672.014 382.269 670.192 381.592 668.032C380.681 665.301 378.542 664.073 374.731 664.073C370.856 664.073 368.865 665.216 368.209 668.032C367.616 670.192 365.647 672.014 363.741 672.014C361.92 672.014 360.84 670.849 361.327 669.515ZM378.627 658.355C378.627 654.459 376.15 650.33 374.477 651.41C371.512 653.231 372.507 660.176 375.641 660.176C377.293 660.176 378.627 659.351 378.627 658.355ZM400.289 666.72C400.289 663.819 397.642 656.704 394.339 650.902C388.96 641.394 388.791 640.399 392.179 640.399C394.424 640.399 396.817 642.729 398.299 646.286C399.718 649.589 401.538 652.236 402.449 652.236C403.359 652.236 405.498 649.589 407.235 646.286C408.886 643.046 411.617 640.399 413.206 640.399C416.996 640.399 416.911 640.484 411.215 650.585C408.484 655.286 406.239 662.083 406.239 665.556C406.239 669.939 405.265 672.014 403.275 672.014C401.369 672.014 400.289 670.108 400.289 666.72ZM431.882 656.196C431.882 643.47 432.475 640.399 434.868 640.399C437.261 640.399 437.853 643.47 437.853 656.196C437.853 668.943 437.176 672.014 434.868 672.014C432.475 672.014 431.882 668.943 431.882 656.196ZM443.719 656.196C443.719 636.524 447.107 635.19 457.525 650.839L464.471 661.087L465.063 650.754C465.466 643.3 466.461 640.399 468.536 640.399C470.76 640.399 471.352 643.724 471.352 656.196C471.352 675.571 468.79 676.63 458.033 661.659L450.665 651.325L450.008 661.659C449.584 669.112 448.589 672.014 446.62 672.014C444.291 672.014 443.719 668.689 443.719 656.196ZM485.159 659.266C485.159 647.768 484.756 646.519 480.86 645.947C478.552 645.608 476.223 644.211 475.82 642.898C475.143 641.077 478.467 640.399 487.975 640.399C498.224 640.399 500.955 641.077 500.955 643.385C500.955 645.206 499.134 646.286 496 646.286C491.278 646.286 491.109 646.773 491.109 659.181C491.109 669.282 490.452 672.014 488.144 672.014C485.815 672.014 485.159 669.282 485.159 659.266ZM504.936 656.196C504.936 643.724 505.508 640.399 507.731 640.399C509.976 640.399 510.801 643.639 511.225 653.718C511.797 667.037 511.797 667.037 518.255 667.694C528.334 668.604 525.688 672.014 514.761 672.014H504.936V656.196ZM530.579 669.028C530.579 667.376 531.892 666.042 533.544 666.042C535.111 666.042 536.529 667.376 536.529 669.028C536.529 670.679 535.111 672.014 533.544 672.014C531.892 672.014 530.579 670.679 530.579 669.028ZM558.107 656.704C562.172 645.693 564.65 641.394 567.127 641.394C569.52 641.394 572.103 645.693 576.148 656.704C581.357 670.849 581.526 672.014 578.138 672.014C576.063 672.014 573.988 670.192 573.416 668.032C572.675 665.301 570.685 664.073 567.043 664.073C563.4 664.073 561.431 665.301 560.754 668.032C560.182 670.192 558.106 672.014 556.137 672.014C552.813 672.014 552.982 670.679 558.107 656.704ZM570.028 656.704C569.943 650.902 566.873 647.344 565.391 651.241C563.316 656.704 563.909 660.176 567.043 660.176C568.694 660.176 570.028 658.609 570.028 656.704ZM585.825 656.196C585.825 643.47 586.396 640.399 588.81 640.399C591.203 640.399 591.775 643.47 591.775 656.196C591.775 668.943 591.118 672.014 588.81 672.014C586.396 672.014 585.825 668.943 585.825 656.196ZM598.89 656.704C599.144 641.394 599.144 641.394 607.169 640.822C617.1 640.081 624.363 645.862 622.14 652.808C621.399 655.222 619.98 657.699 618.9 658.355C617.757 659.097 618.328 662.083 620.234 665.809C623.283 671.675 623.22 672.014 619.662 672.014C617.333 672.014 615.025 669.684 613.458 665.957C610.388 658.525 604.84 658.928 603.93 666.551C603.612 669.515 602.278 672.014 601.049 672.014C599.398 672.014 598.72 667.291 598.89 656.704ZM615.11 650.754C615.597 647.027 614.771 646.371 609.647 646.371C605.094 646.371 603.612 647.197 603.612 649.928C603.612 654.798 605.602 656.45 610.388 655.793C612.865 655.454 614.686 653.486 615.11 650.754ZM628.175 667.461C627.603 664.984 627.349 658.017 627.688 652.151C628.259 641.394 628.259 641.394 635.544 640.822C645.623 639.912 650.917 643.131 650.917 649.992C650.917 656.873 645.454 662.083 638.424 662.083C634.125 662.083 633.215 662.993 633.215 667.037C633.215 673.242 629.657 673.496 628.175 667.377V667.461ZM644.056 651.241C644.056 648.34 642.722 647.281 639.101 647.281C634.548 647.281 632.558 650.584 634.718 654.798C636.454 658.101 644.056 655.222 644.056 651.241ZM690.451 656.196C690.451 640.399 690.451 640.399 697.904 640.399C710.715 640.399 718.91 650.585 711.795 657.7C710.059 659.521 710.059 661.257 711.795 665.132C714.781 671.59 714.696 672.014 711.223 672.014C709.572 672.014 706.925 669.367 705.188 666.042C703.537 662.824 700.89 660.176 699.217 660.176C697.333 660.176 696.337 662.167 696.337 666.042C696.337 670.023 695.342 672.014 693.352 672.014C691.044 672.014 690.451 668.943 690.451 656.196ZM707.158 651.241C707.158 648.424 705.675 647.112 701.8 646.688C697.078 646.116 696.337 646.773 696.337 651.241C696.337 655.793 697.078 656.365 701.8 655.793C705.675 655.37 707.158 654.142 707.158 651.241ZM725.94 659.181C725.94 647.599 725.537 646.371 721.98 646.371C719.82 646.371 718.084 645.036 718.084 643.385C718.084 641.077 720.646 640.399 729.921 640.399C739.09 640.399 741.737 641.077 741.737 643.385C741.737 645.036 740 646.371 737.777 646.371C734.219 646.371 733.796 647.599 733.796 659.181C733.796 670.679 733.393 672.014 729.921 672.014C726.363 672.014 725.94 670.679 725.94 659.181ZM503.941 617.572C488.97 609.801 483.168 598.875 483.253 578.78C483.338 552.057 495.005 537.594 517.493 536.176C540.404 534.863 554.973 548.436 557.535 573.486C559.525 593.179 550.251 611.707 535.111 617.996C526.514 621.554 511.225 621.384 503.941 617.572ZM532.633 600.865C538.181 595.317 540.404 588.542 540.404 577.637C540.404 552.057 518.171 541.152 504.259 559.934C496.572 570.352 500.383 596.905 510.314 602.771C516.349 606.244 528.25 605.249 532.633 600.865ZM584.004 617.255C576.889 613.613 571.193 606.816 569.118 599.468C567.868 595.318 568.461 595 576.063 595C582.437 595 585.169 596.08 588.048 599.785C592.77 605.842 602.045 607.981 609.731 604.762C614.686 602.687 615.512 601.374 615.025 596.313C614.369 589.876 612.378 588.711 591.86 583.163C558.784 574.227 565.815 535.773 600.457 535.773C616.253 535.773 631.224 545.535 631.224 555.784C631.224 561.755 618.074 560.845 612.293 554.556C607 548.839 598.72 548.098 592.198 552.735C582.606 559.341 588.556 567.112 606.576 571.496C627.836 576.641 634.379 583.417 632.643 598.472C631.817 605.841 630.25 608.891 625.359 613.02C615.279 621.384 596.073 623.375 584.004 617.255ZM339.58 578.695L340.067 538.759L348.516 538.166L356.859 537.594V604.931H375.641C394.339 604.931 394.339 604.931 394.339 611.792C394.339 618.737 394.339 618.737 366.706 618.737H339.093L339.58 578.695ZM407.573 593.518C412.528 579.691 418.902 561.501 421.718 553.052C426.842 537.764 426.843 537.764 437.261 537.764C442.978 537.764 447.7 538.082 447.7 538.505C447.7 538.908 453.883 556.864 461.506 578.378C469.108 599.87 475.312 617.827 475.312 618.229C475.312 618.568 471.183 618.652 466.059 618.314C457.123 617.742 456.784 617.488 454.053 609.315C451.321 600.95 451.321 600.95 436.689 600.95C422.057 600.95 422.057 600.95 419.812 609.801C417.589 618.737 417.589 618.737 408.145 618.737H398.637L407.573 593.581V593.518ZM446.789 584.667C446.366 583.333 444.058 575.963 441.559 568.362L437.176 554.556L432.56 569.357C430.061 577.467 428.007 584.815 428.007 585.641C427.922 586.466 432.39 587.144 437.769 587.144C444.714 587.144 447.361 586.403 446.789 584.667ZM230.656 599.468C230.656 598.642 231.482 594.407 232.54 590.108C234.361 582.507 234.128 581.935 227.162 576.048L219.899 569.929L229.406 568.531C238.088 567.197 239.168 566.371 242.133 559.341C243.954 555.127 245.944 551.654 246.601 551.654C247.363 551.57 249.332 555.127 250.984 559.341C253.885 566.456 254.965 567.197 263.244 568.446L272.328 569.844L266.039 576.387C260.174 582.422 259.772 583.586 261.084 592.014L262.418 601.205L254.541 595.995C246.685 590.786 246.685 590.786 238.66 595.911C234.192 598.642 230.571 600.294 230.656 599.468ZM761.429 824.368C761.429 821.467 772.673 811.959 775.49 812.616C776.972 812.87 777.967 812.044 777.713 810.71C777.396 809.312 778.306 808.487 779.619 808.741C780.953 809.059 782.096 807.915 782.181 806.242C782.266 804.59 783.43 803.51 784.743 803.764C785.993 804.103 787.072 802.939 787.072 801.287C787.072 799.72 787.983 798.386 789.063 798.386C793.276 798.386 790.63 802.77 780.699 812.298C775.003 817.656 769.285 821.721 767.888 821.15C766.469 820.641 765.389 821.552 765.389 823.119C765.389 824.685 764.478 826.019 763.42 826.019C762.34 826.019 761.429 825.279 761.429 824.368ZM793.023 795.253C793.023 793.601 793.933 792.775 795.013 793.431C796.093 794.087 797.003 795.506 797.003 796.48C797.003 797.476 796.093 798.301 795.013 798.301C793.933 798.301 793.023 796.989 793.023 795.253ZM798.316 793.092C797.575 792.351 797.003 790.869 797.003 789.704C797.003 788.476 797.914 788.625 799.311 790.044C800.561 791.272 801.217 792.859 800.625 793.346C800.053 793.918 798.973 793.77 798.316 793.092ZM802.953 785.978C803.038 781.848 812.546 772.341 815.108 773.908C816.59 774.818 816.929 774.247 816.103 772.002C815.277 769.863 815.849 768.699 817.755 768.699C819.322 768.699 820.656 769.355 820.571 770.181C820.486 773.251 808.65 784.665 806.829 783.5C805.77 782.844 805.431 783.669 806.088 785.406C806.765 787.057 806.257 788.476 805.092 788.476C803.864 788.476 802.953 787.396 802.953 785.978ZM820.317 764.146C880.454 689.949 916.261 598.875 920.899 508.881C925.367 421.958 909.739 347.845 871.772 275.553C781.355 103.252 591.288 9.70114 400.289 43.6236C358.024 51.1407 313.196 66.196 276.479 85.317C265.298 91.0978 256.214 95.142 256.214 94.3162C256.129 93.4904 255.452 93.7447 254.711 94.994C251.746 99.3773 237.093 107.233 234.616 105.645C232.964 104.671 234.362 102.765 239.338 99.6946C243.297 97.3018 247.024 95.7348 247.511 96.3065C248.104 96.7935 250.751 95.0574 253.483 92.4106C259.263 86.5451 303.434 65.1158 327.256 56.6034C415.345 24.9255 513.872 21.707 603.612 47.4982C763.166 93.4057 887.23 228.079 919.332 390.28C943.069 510.3 919.162 631.887 852.503 729.567C844.139 741.891 835.944 751.991 834.377 751.991C832.81 751.991 831.73 753.389 831.985 755.126C832.323 756.777 830.651 759.848 828.427 761.923C823.875 766.052 817.268 767.873 820.317 764.146ZM116.84 621.469C108.645 616.578 108.645 616.578 102.018 620.643C93.0182 626.106 92.5097 625.852 94.9025 616.429C96.9777 608.489 96.8083 608.065 90.0323 601.86C83.4045 595.741 83.2564 595.318 87.2161 594.259C89.5242 593.666 93.7591 593.094 96.5542 593.094C100.959 593.094 102.356 591.527 105.405 583.756L108.963 574.312L112.859 583.502C116.501 592.269 117.073 592.671 126.517 593.92L136.257 595.254L128.994 601.522C121.88 607.811 121.795 608.065 123.786 616.747C124.844 621.553 125.606 625.683 125.352 625.937C125.098 626.17 121.287 624.116 116.84 621.469ZM837.681 618.314C838.443 613.697 839.269 609.548 839.671 609.145C840.01 608.722 836.939 605.418 832.98 601.86L825.611 595.318L835.711 594.004C845.388 592.67 845.96 592.268 848.12 584.984C851 575.476 853.245 575.222 856.209 584.327C858.708 591.696 864.001 595 873.593 595.085C878.887 595.17 878.887 595.17 872.26 601.205C866.14 606.816 865.738 607.811 866.966 615.921C868.469 625.936 868.046 626.169 858.856 620.473C852.08 616.344 852.08 616.345 844.224 621.554L836.452 626.763L837.681 618.314ZM104.262 370.417C90.6887 365.547 89.524 364.721 90.2016 360.169C91.2604 352.482 95.898 344.774 100.366 343.377C104.664 342.064 114.193 346.85 114.193 350.322C114.193 351.402 117.729 352.313 122.197 352.313C132.213 352.313 131.959 356.95 121.88 357.861C115.845 358.517 112.287 360.825 112.203 364.467C112.203 365.124 114.934 366.712 118.237 367.855C123.87 369.761 125.352 374.059 120.969 375.224C119.889 375.478 112.435 373.318 104.262 370.417ZM107.226 356.273C107.226 350.005 101.361 348.586 98.3752 354.219C95.5801 359.428 97.4649 362.561 103.013 361.736C106.083 361.333 107.226 359.745 107.226 356.273ZM117.073 339.417C109.471 335.691 102.611 332.451 101.7 332.133C100.874 331.71 102.102 327.072 104.432 321.715C109.641 309.709 109.725 309.624 112.372 312.186C113.854 313.774 113.515 316.167 111.292 320.55C107.735 327.411 108.561 330.566 114.109 330.566C116.332 330.566 118.492 328.321 119.805 324.679C120.884 321.376 123.193 318.729 124.929 318.729C128.741 318.729 128.74 319.471 124.844 326.924C121.964 332.451 122.049 333.128 125.352 335.521C129.905 338.824 131.133 337.999 133.949 329.486C136.025 323.028 141.551 320.805 140.238 326.924C138.904 332.874 133.293 346.363 132.128 346.194C131.472 346.109 124.696 343.038 117.073 339.417ZM832.895 335.182C833.382 330.714 834.462 329.571 838.443 329.571C842.402 329.571 843.398 330.566 843.398 334.526C843.398 338.507 842.234 339.566 837.766 340.074C832.726 340.73 832.323 340.243 832.895 335.182ZM128.401 311.276C120.545 307.316 114.193 303.102 114.193 301.853C114.193 296.072 123.362 286.141 129.227 285.569C139.751 284.574 144.198 292.26 139.815 303.758C138.248 307.887 138.672 309.137 141.805 310.874C145.532 312.864 147.353 318.898 144.198 318.644C143.457 318.56 136.342 315.257 128.486 311.276H128.401ZM135.029 300.116C135.686 297.469 135.601 294.335 134.945 293.171C132.721 289.613 126.263 290.926 123.87 295.394C121.964 298.952 122.197 300.117 125.183 302.277C130.477 306.236 133.695 305.495 135.029 300.116ZM807.252 304.33C804.436 301.366 802.953 297.215 802.953 292.663C802.953 277.946 824.213 269.264 834.144 279.852C839.014 285.061 839.84 295.394 835.627 298.867C831.984 301.937 829.74 298.465 831.328 292.091C833.805 282.245 823.134 278.201 813.944 285.4C807.252 290.694 807.422 299.629 814.282 300.603C816.76 300.942 819.661 302.933 820.74 305.071C822.562 308.396 822.138 308.883 817.183 308.883C813.795 308.883 809.814 306.977 807.252 304.33ZM140.323 280.678C134.606 277.205 129.905 273.245 129.905 271.911C129.905 267.951 133.78 268.925 143.965 275.468C153.96 281.927 160.079 282.012 162.409 275.723C163.721 272.335 159.592 267.698 146.527 258.253C139.074 252.811 141.975 249.741 150.339 254.293C167.872 263.716 172.912 273.902 164.484 283.155C159.423 288.788 152.308 288.046 140.323 280.678ZM790.46 280.022C787.39 276.867 788.237 276.21 815.023 258.847C819.491 255.861 820.317 255.861 821.312 258.423C822.054 260.413 818.411 264.225 809.814 270.345C795.754 280.339 792.451 282.012 790.46 280.022ZM163.065 252.727L149.831 242.224L156.946 234.029C164.717 224.839 171.006 223.928 174.224 231.297C175.558 234.198 178.205 235.85 182.165 236.253C191.185 237.163 191.524 246.353 182.842 255.945L176.3 263.145L163.065 252.727ZM183.245 245.442C183.245 240.487 176.871 240.721 172.34 245.782C168.867 249.657 168.867 249.826 172.488 252.557C175.812 254.95 176.808 254.865 179.772 252.134C181.678 250.482 183.16 247.433 183.16 245.442H183.245ZM168.613 242.309C174.478 234.516 168.189 229.138 161.583 236.253C157.941 240.149 157.856 240.573 161.074 243.05C165.458 246.353 165.542 246.353 168.698 242.309H168.613ZM777.226 258.761C777.226 257.279 781.44 252.642 786.649 248.576C791.795 244.447 796.834 240.403 797.829 239.493C798.888 238.582 798.232 236.338 796.241 234.114C792.112 229.562 795.5 226.173 800.222 230.133C806.596 235.427 814.854 249.338 812.461 250.821C811.212 251.647 808.735 250.483 806.914 248.259C803.695 244.194 803.525 244.278 792.112 252.812C779.703 262.065 777.226 263.06 777.226 258.761ZM763.907 243.452C762.34 241.8 762.255 240.064 763.653 237.332C766.977 231.213 760.921 223.526 754.738 225.919C751.244 227.253 749.36 226.999 747.687 224.924C745.802 222.785 746.628 221.705 751.922 219.461C755.564 217.894 763.166 214.675 768.862 212.198C777.311 208.556 779.788 208.132 782.181 210.207C784.743 212.367 784.087 214.59 776.972 227.655C767.062 245.929 766.808 246.268 763.907 243.452ZM773.012 222.955C776.146 215.988 775.977 215.586 770.852 218.233C764.987 221.367 765.156 221.049 766.554 224.691C768.375 229.307 770.365 228.736 773.012 222.955ZM183.668 226.258C172.573 216.073 170.434 212.113 175.728 212.113C176.723 212.113 181.932 216.327 187.311 221.366C197.136 230.556 197.136 230.556 202.853 225.093C211.958 216.327 214.605 221.049 205.669 230.133C201.604 234.368 197.729 237.756 197.136 237.756C196.479 237.672 190.444 232.547 183.668 226.258ZM204.335 206.65C194.087 196.316 190.614 190.43 194.573 190.43C197.39 190.43 220.894 215.247 219.475 216.666C217.083 219.059 215.918 218.317 204.335 206.65ZM738.857 216.242C738.179 215.162 738.264 210.863 739.005 206.565C740.424 197.46 737.862 194.813 732.801 200.361C729.01 204.574 724.034 205.57 724.034 202.097C724.034 200.932 729.095 194.326 735.214 187.296L746.458 174.548L753.976 181.917C758.126 185.962 761.514 191.192 761.514 193.5C761.514 198.285 756.474 203.516 750.757 204.575C748.364 204.998 746.289 207.645 745.294 211.689C743.642 217.978 741.08 219.799 738.857 216.242ZM752.981 195.067C754.315 191.594 751.752 186.216 748.11 184.988C744.468 183.823 741.08 192.166 743.812 195.491C746.946 199.281 751.414 199.133 752.981 195.067ZM215.6 197.545C201.773 183.738 212.043 163.22 229.406 169.933C234.044 171.669 231.143 174.633 224.939 174.633C213.525 174.633 211.217 185.136 220.894 193.246C224.198 196.062 227.585 198.286 228.411 198.286C231.63 198.286 236.267 193.077 236.839 188.609C237.834 181.261 242.387 181.092 242.387 188.376C242.387 195.809 234.277 204.257 227.162 204.257C224.282 204.257 219.56 201.525 215.6 197.545ZM705.104 187.55C698.243 180.668 698.561 170.673 705.929 162.479C717.004 150.07 733.881 155.935 733.881 172.156C733.881 177.957 733.394 178.699 730.98 176.708C729.413 175.459 727.931 172.494 727.507 170.25C725.94 159.578 711.477 161.823 707.666 173.321C705.273 180.435 710.398 186.957 717.174 185.305C722.298 183.992 725.771 188.037 721.811 190.599C716.835 193.754 710.059 192.505 705.188 187.55H705.104ZM254.795 169.424C251.323 168.026 251.662 159.493 255.219 158.18C259.835 156.359 264.472 162.309 262.079 166.862C260.004 170.843 259.009 171.16 254.711 169.424H254.795ZM673.574 165.867C666.227 158.519 666.883 148.419 675.395 139.906C679.122 136.264 683.59 133.194 685.411 133.194C690.302 133.194 699.641 138.572 701.038 142.214C708.153 160.742 686.809 179.186 673.574 165.867ZM691.213 158.752C696.824 152.145 697.65 147.169 694.008 143.464C690.048 139.483 683.018 140.817 678.719 146.343C673.743 152.548 673.574 156.359 677.894 161.166C682.51 166.206 685.326 165.697 691.213 158.752ZM162.493 160.827C166.453 156.444 168.613 156.931 166.792 161.737C166.135 163.389 164.06 164.787 162.239 164.787C159.19 164.787 159.253 164.384 162.493 160.827ZM278.448 147.085L270.189 131.796L279.697 127.328C287.468 123.77 290.03 123.347 293.418 125.084C301.783 129.636 300.618 143.21 291.597 146.111C287.553 147.339 287.384 149.244 290.687 157.1C291.449 159.006 290.941 160.742 289.374 161.314C287.638 161.992 283.827 156.931 278.448 147.085ZM292.423 138.741C293.927 136.433 293.758 134.612 291.852 132.368C288.803 128.556 285.732 128.408 281.264 131.711C278.13 133.935 278.13 134.527 281.01 138.741C284.567 143.781 289.289 143.781 292.423 138.741ZM145.701 157.841C145.701 156.19 147.184 154.877 148.92 154.877C151.567 154.877 151.652 155.449 149.661 157.841C148.349 159.493 146.845 160.827 146.443 160.827C146.019 160.827 145.701 159.493 145.701 157.841ZM170.752 155.618C168.93 153.797 171.091 150.896 174.394 150.896C176.046 150.896 176.723 152.146 176.045 153.882C174.817 157.016 172.827 157.672 170.752 155.618ZM652.992 151.404C653.077 149.499 654.305 145.771 655.893 143.04C660.763 134.527 659.111 134.104 651.171 141.875C640.986 151.806 638.275 150.07 639.842 134.761C641.24 121.378 639.249 121.124 634.294 134.104C630.822 143.125 628.005 145.284 626.1 140.308C625.274 138.17 636.941 111.362 640.245 107.72C640.668 107.318 642.489 108.143 644.225 109.626C646.872 111.849 647.274 114.581 646.216 124.766C645.453 131.542 645.539 137.09 646.364 137.09C647.19 137.09 651.912 133.109 656.867 128.239C664.575 120.616 666.396 119.726 669.191 121.78C672.092 124.109 671.774 125.676 665.316 139.567C658.773 153.797 652.822 159.493 652.992 151.404ZM180.767 147.847C179.201 146.195 186.972 138.657 189.365 139.482C190.445 139.906 189.28 142.129 186.633 144.607C184.071 147.021 181.424 148.503 180.767 147.847ZM306.992 131.711L299.877 116.402L309.152 112.103C320.226 106.894 321.391 106.725 321.391 110.197C321.391 111.701 318.744 114.094 315.419 115.407C312.116 116.741 309.554 119.303 309.554 121.209C309.554 126.587 311.544 127.328 317.579 124.173C324.038 120.87 327.256 120.552 327.256 123.263C327.256 124.342 324.186 126.756 320.311 128.726C313.937 132.05 313.599 132.622 316.182 136.18C318.892 139.822 319.316 139.821 325.944 136.666C332.381 133.617 335.197 133.787 335.197 137.259C335.197 138.742 318.744 147.021 315.758 147.021C314.763 147.021 310.888 140.054 306.992 131.711ZM607.084 133.617C601.875 131.881 597.661 129.636 597.661 128.556C597.661 123.855 608.651 97.641 610.557 97.641C611.806 97.641 616.931 99.0381 622.055 100.859C631.563 104.078 633.723 109.139 625.105 107.805C615.195 106.238 612.548 106.64 611.955 109.541C611.553 111.531 613.861 113.522 618.328 115.089C622.14 116.487 625.274 118.307 625.274 119.133C625.274 122.521 622.542 122.861 615.428 120.383C608.313 117.821 607.826 117.905 606.83 121.865C606.174 124.173 605.92 126.163 606.174 126.248C613.458 128.81 621.229 133.702 620.319 135.184C618.9 137.492 618.752 137.493 607 133.617H607.084ZM340.067 128.726C332.55 122.204 331.068 109.054 337.272 102.511C341.74 97.704 351.417 95.9683 356.033 99.1234C365.795 105.899 367.786 122.606 359.591 129.064C352.815 134.358 346.526 134.273 340.067 128.726ZM356.859 124.258C359.845 120.7 358.024 108.97 353.979 105.582C347.034 99.7796 337.505 106.81 339.834 115.915C342.396 125.994 351.65 130.547 356.859 124.258ZM180.281 127.243C180.937 126.163 182.334 125.253 183.414 125.253C184.579 125.253 184.897 126.163 184.156 127.243C183.499 128.323 182.101 129.234 181.021 129.234C179.941 129.234 179.603 128.323 180.281 127.243ZM204.187 127.582C203.51 126.587 204.843 124.173 206.897 122.289C209.057 120.298 210.878 119.557 210.878 120.468C210.878 121.463 212.191 120.214 213.927 117.821C215.6 115.407 218.247 113.438 219.814 113.438C221.381 113.438 222.715 112.527 222.715 111.447C222.715 110.367 223.943 109.456 225.51 109.456C227.014 109.456 228.666 108.377 229.068 107.149C229.576 105.582 230.232 105.814 231.058 107.805C231.884 110.028 228.665 113.438 220.068 119.557C205.585 129.891 205.585 129.891 204.187 127.582ZM374.731 120.616C371.682 112.442 367.87 91.9237 369.268 90.5262C371.915 87.8793 388.473 87.2864 391.438 89.7003C398.15 95.3117 393.174 108.059 383.497 109.796C380.448 110.367 379.707 111.785 380.194 116.74C381.02 124.512 377.208 127.159 374.731 120.616ZM386.652 102.426C390.21 98.1276 386.398 92.4954 380.448 93.2577C374.477 93.9142 374.244 94.3163 375.726 100.351C377.208 106.238 382.587 107.233 386.652 102.426ZM568.546 121.865C563.083 120.87 563.083 120.552 568.376 101.346C572.505 86.3756 572.844 85.8886 577.715 87.1168C592.283 90.6107 599.059 98.6146 596.666 109.541C594.104 121.378 585.486 125.168 568.546 121.865ZM587.73 113.522C591.372 106.81 590.123 99.9486 584.745 96.3912C578.879 92.5797 577.461 93.6599 574.327 104.734C571.023 116.487 571.256 117.397 578.879 117.397C583.58 117.397 586.312 116.169 587.73 113.522ZM405.414 113.67C404.101 109.054 400.289 87.5403 400.289 84.4699C400.289 80.5948 405.837 81.3362 406.917 85.317C407.488 87.2016 408.569 93.4907 409.225 99.3773C410.644 109.965 410.644 109.964 419.241 108.8C426.186 107.804 427.922 108.143 427.922 110.536C427.922 112.103 426.842 113.438 425.445 113.522C424.111 113.586 419.241 114.348 414.688 115.174C407.827 116.571 406.176 116.232 405.414 113.67ZM432.962 108.97C432.56 107.636 431.734 100.203 431.057 92.4106C429.913 78.435 429.913 78.4353 437.345 77.2071C449.267 75.2166 453.565 75.619 453.565 78.8589C453.565 80.9975 451.405 81.823 445.709 81.823C438.595 81.823 437.853 82.3315 437.853 86.7995C437.853 91.5003 438.256 91.6696 445.709 90.5262C452.147 89.4462 453.565 89.7637 453.565 92.4106C453.565 94.6551 451.829 95.6506 448.187 95.6506C440.903 95.7353 437.43 98.2124 438.913 102.257C439.823 104.501 442.555 105.497 447.848 105.497C453.396 105.497 455.556 106.322 455.556 108.461C455.556 112.357 434.127 112.76 432.962 108.97ZM480.945 107.635C475.566 103.337 477.557 99.5252 483.253 103.167C488.547 106.407 494.433 106.153 495.746 102.511C496.657 100.287 494.497 98.3822 488.059 95.6506C478.128 91.3521 475.82 87.7096 478.87 80.9972C482.766 72.3154 500.871 73.3951 502.522 82.3309C503.348 86.7141 499.388 86.7993 494.751 82.5855C492.845 80.8492 489.796 79.9388 488.059 80.5952C483.168 82.5009 485.497 88.197 492.104 90.3568C500.701 93.0884 502.946 95.4812 502.946 101.77C502.946 111.363 489.881 114.835 480.945 107.635ZM530.981 103.167C527.848 100.033 527.996 98.5515 531.638 94.9094C537.016 89.4463 545.126 96.8787 540.256 102.85C537.44 106.153 534.052 106.322 530.981 103.167ZM463.496 84.8085C465.317 82.5851 465.318 81.1666 463.73 79.1761C461.252 76.2963 462.671 73.967 466.715 73.967C469.531 73.967 470.188 79.3454 468.198 84.6392C467.541 86.3755 465.635 87.7946 463.984 87.7946C461.506 87.7946 461.421 87.2013 463.412 84.8085H463.496Z" fill="#C83E3D"/>
</svg>
