<svg width="958" height="957" viewBox="0 0 958 957" fill="none" xmlns="http://www.w3.org/2000/svg">
<path fill-rule="evenodd" clip-rule="evenodd" d="M448.197 956.113C437.024 955.339 427.498 954.545 426.942 954.486C425.097 953.93 433.69 949.127 438.492 947.956C441.29 947.262 443.533 945.634 443.533 944.245C443.533 942.777 444.863 941.229 446.331 940.594C447.879 939.979 449.129 937.974 449.129 936.029C449.129 932.775 451.531 932.537 487.49 931.445C526.407 930.294 549.129 927.655 579.889 920.749C598.107 916.72 601.679 917.117 599.735 923.15C598.961 925.71 599.199 926.484 600.588 925.63C601.759 924.936 602.612 925.631 602.612 927.119C602.612 928.667 603.704 930.294 604.934 930.83C606.323 931.385 605.946 931.762 604.002 931.842C602.216 932.001 600.826 932.775 600.826 933.708C600.826 936.188 605.014 937.26 611.067 936.406C621.842 934.938 602.374 941.367 582.291 945.952C543.077 954.862 489.653 958.891 448.197 956.113ZM393.622 948.671C393.622 947.659 394.932 946.806 396.48 946.806C398.107 946.806 398.881 947.659 398.266 948.671C397.651 949.663 396.321 950.516 395.388 950.516C394.396 950.516 393.622 949.663 393.622 948.671ZM424.164 948.671C424.779 947.659 426.565 946.806 428.034 946.806C429.582 946.806 430.356 947.659 429.661 948.671C429.046 949.663 427.339 950.516 425.791 950.516C424.243 950.516 423.529 949.663 424.164 948.671ZM375.166 946.488C324.164 935.553 262.227 909.596 217.178 880.205C119.202 816.264 49.2679 721.681 17.4163 609.893C6.93799 573.081 1.59965 537.26 0.270019 493.7C-2.21063 415.47 12.3755 344.384 45.0805 275.859C61.5123 241.289 74.61 220.054 79.2736 220.431C82.3695 220.67 82.7664 221.602 81.7543 227.02C80.8216 231.842 81.1391 233.073 82.8259 231.981C84.5326 230.91 84.8503 231.684 83.9176 234.939C82.9849 238.193 83.1434 238.65 84.5326 236.645C87.4102 232.458 89.5733 236.248 86.7949 240.594C84.9295 243.61 84.8501 244.782 86.7156 245.873C89.5733 247.639 83.3024 258.415 77.329 262.066C75.0865 263.456 73.7566 265.719 74.3917 267.108C74.9275 268.576 72.3677 276.177 68.736 284.154C50.2006 324.46 37.1821 366.711 29.8195 410.449C24.9971 438.729 25.0765 521.602 29.8989 549.128C42.4411 620.213 63.6159 675.085 99.3572 728.747C165.323 828.032 263.616 895.486 380.445 921.602C391.995 924.162 401.997 926.801 402.612 927.416C403.307 928.111 401.917 930.215 399.576 932.08C396.103 934.938 394.476 935.176 390.745 933.469C386.022 931.306 384.394 931.921 383.779 936.029C383.541 937.339 382.687 939.601 381.913 940.911C381.06 942.221 381.358 944.483 382.608 945.952C383.838 947.42 384.553 948.591 384.156 948.432C383.779 948.353 379.73 947.5 375.166 946.488ZM401.064 946.111C401.064 944.325 406.244 943.63 408.586 945.098C410.511 946.329 409.816 946.806 406.105 946.806C403.307 946.806 401.064 946.488 401.064 946.111ZM432.221 942.698C433.61 941.229 434.94 941.149 436.17 942.38C437.341 943.551 436.647 944.325 434.007 944.484C431.05 944.702 430.594 944.246 432.221 942.698ZM434.245 932.854C432.38 930.592 432.836 930.135 436.865 930.135C442.065 930.135 443.454 932.854 439.127 934.482C437.639 935.018 435.476 934.323 434.245 932.854ZM415.174 931.068C414.4 929.202 415.234 928.349 417.953 928.349C421.207 928.349 421.445 928.746 419.501 931.068C418.27 932.616 417.02 933.866 416.722 933.866C416.484 933.866 415.789 932.616 415.174 931.068ZM439.901 920.669C385.466 916.264 327.954 899.911 278.5 874.867C100.905 785.028 6.32256 593.7 42.3615 397.252C73.6971 226.484 207.712 87.0318 378.818 47.1032C424.779 36.4067 487.966 32.8347 530.515 38.4906C662.466 56.0934 777.488 127.794 849.745 237.499C871.912 271.216 892.075 314.081 903.466 352.064C924.859 423.309 927.419 504.555 910.59 579.431C881.219 710.449 789.594 823.388 666.177 880.761C596.262 913.307 518.111 927.04 439.901 920.669ZM532.38 909.834C692.372 889.354 826.328 784.471 884.474 634.085C916.326 551.529 921.148 451.985 897.413 365.083C864.47 244.543 780.981 144.623 666.494 88.5802C520.989 17.4154 350.201 33.7674 219.203 131.366C139.742 190.584 82.1315 276.018 57.9601 370.441C47.323 411.997 45.0011 431.842 45.0011 480.741C45.0011 529.124 47.1047 546.567 57.9601 589.195C102.83 764.944 254.924 893.858 438.353 911.6C458.973 913.624 510.431 912.612 532.38 909.834ZM743.156 516.026V480.682H755.321C764.232 480.682 767.348 481.297 766.792 483.004C766.415 484.313 762.525 485.563 758.278 485.861C752.067 486.337 750.598 487.19 750.598 490.048C750.598 492.926 751.908 493.62 757.028 493.62C761.612 493.62 763.537 494.474 763.537 496.419C763.537 498.344 761.612 499.197 757.028 499.197C751.055 499.197 750.598 499.673 750.598 504.773C750.598 510.132 750.836 510.291 759.052 510.291C772.388 510.291 768.499 514.775 754.627 515.47L743.156 516.026ZM770.9 498.423C770.9 482.765 771.297 480.682 774.154 480.682C776.099 480.682 779.592 484.551 782.926 490.445L788.503 500.129L789.435 490.902C790.13 484.015 791.142 481.535 793.543 481.058C796.48 480.522 796.798 482.309 796.798 498.264C796.798 514.24 796.48 516.026 793.543 515.47C791.837 515.172 787.649 510.449 784.474 505.011L778.501 495.089L777.965 505.011C777.488 512.691 776.635 515.014 774.154 515.47C771.217 516.105 770.9 514.239 770.9 498.423ZM811.602 501.142C811.602 486.635 811.602 486.496 806.641 485.94C803.922 485.563 801.382 484.313 800.985 483.004C800.449 481.297 803.863 480.682 814.401 480.682C824.938 480.682 828.352 481.297 827.816 483.004C827.419 484.313 824.859 485.563 822.14 485.94C817.179 486.496 817.179 486.635 817.179 501.142C817.179 512.99 816.564 515.867 814.401 515.867C812.138 515.867 811.602 512.99 811.602 501.142ZM831.983 498.264V480.682H841.073C851.293 480.682 856.016 483.936 856.016 490.902C856.016 493.303 854.706 496.478 853.158 498.105C850.598 500.665 850.598 501.439 853.158 506.48C856.73 513.386 856.79 515.867 853.238 515.867C851.69 515.867 849.05 512.93 847.344 509.357C844.01 502.372 839.366 500.665 839.366 506.401C839.366 511.997 837.342 515.867 834.543 515.867C832.539 515.867 831.983 512.076 831.983 498.264ZM847.661 491.834C847.661 488.123 846.649 487.032 842.621 486.556C838.275 486.099 837.5 486.715 837.5 490.445C837.5 496.022 839.128 497.649 843.93 496.954C846.57 496.557 847.661 495.009 847.661 491.834ZM868.975 510.211C868.975 507.195 866.494 499.673 863.399 493.62C856.87 480.681 856.869 480.682 861.295 480.682C863.458 480.682 865.939 483.38 868.201 488.421L871.615 496.101L875.008 488.421C877.35 483.083 879.513 480.682 881.993 480.682C885.943 480.682 885.407 482.606 877.191 497.649C875.722 500.368 874.472 505.547 874.472 509.199C874.472 513.843 873.698 515.867 871.753 515.867C869.908 515.867 868.975 514.002 868.975 510.211ZM174.154 424.321C171.217 416.562 184.612 373.081 198.583 345.238C242.679 257.185 318.647 198.8 417.655 176.871C444.704 170.898 510.213 170.978 538.731 177.11C632.38 197.173 711.999 256.709 754.17 338.352C772.686 374.232 787.808 421.523 781.914 425.333C777.032 428.509 773.698 426.167 771.376 417.812C758.04 370.68 747.582 346.865 726.645 315.549C648.415 198.8 496.639 152.303 366.414 205.25C276.178 241.825 212.832 314.617 187.648 410.509C184.235 423.765 182.906 426.246 179.433 426.723C176.952 427.1 174.848 426.167 174.154 424.401V424.321ZM109.339 389.751C111.205 380.126 111.205 380.126 104.16 374.014L97.0155 367.881H103.386C111.522 367.802 118.031 366.016 118.031 363.932C118.031 363 119.341 359.129 120.968 355.319L123.846 348.433L127.18 356.788C130.276 364.627 130.971 365.162 140.119 366.948L149.744 368.894L142.838 374.39C136.011 379.967 136.011 379.967 137.956 389.116C139.047 394.236 139.742 398.582 139.425 398.82C139.186 399.118 135.555 396.875 131.447 393.918C125.076 389.274 123.449 388.818 120.512 390.822C106.64 400.288 107.255 400.368 109.339 389.751ZM818.27 389.969C821.366 379.59 822.22 381.376 808.03 370.203C805.629 368.338 806.185 367.96 811.602 367.881C819.521 367.802 826.407 366.095 826.407 364.15C826.407 363.376 827.816 359.507 829.443 355.637L832.46 348.433L836.032 356.708C840.279 366.631 841.847 367.802 851.372 367.881L858.814 368.04L851.61 374.152C844.387 380.364 844.387 380.364 846.49 388.818C847.661 393.462 848.574 397.728 848.574 398.343C848.574 398.959 844.943 396.954 840.517 393.918C832.38 388.342 832.38 388.342 824.78 393.78C820.592 396.796 816.802 399.276 816.326 399.276C815.948 399.276 816.723 395.089 818.27 389.89V389.969ZM373.221 385.564C373.221 383.083 374.075 380.523 375.087 379.888C376.099 379.272 376.952 375.006 376.952 370.521C376.952 366.016 377.806 362.305 378.818 362.305C379.81 362.305 380.663 364.627 380.663 367.484C380.663 370.362 381.675 373.775 382.985 375.085C384.851 377.109 384.851 377.724 382.985 378.419C378.818 379.967 380.366 384.789 384.851 384.154C388.74 383.618 388.958 382.765 388.502 371.374C388.185 363.238 388.8 358.495 390.368 357.264C391.598 356.173 404.319 355.021 418.568 354.704L444.466 354.01L445.001 371.989L445.478 390.048H409.36C373.221 390.048 373.221 390.049 373.221 385.564ZM401.918 368.655C401.918 365.083 400.985 363.238 399.199 363.238C396.103 363.238 394.555 368.338 396.242 372.763C397.948 377.347 401.918 374.47 401.918 368.655ZM431.526 371.056C432.757 368.338 432.757 365.559 431.526 362.761C429.502 358.117 426.863 357.264 426.863 361.213C426.863 362.682 426.01 364.15 424.938 364.547C423.529 364.944 423.608 366.71 425.156 370.203C427.954 376.335 429.125 376.494 431.526 371.056ZM449.129 390.048V354.942H476.873V390.048H449.129ZM465.641 362.999C463.378 358.812 463.16 358.812 460.898 362.066C458.973 364.785 458.973 366.711 460.679 371.295C462.842 377.11 462.842 377.11 465.402 372.228C467.486 368.278 467.486 366.571 465.641 362.999ZM480.525 390.048V354.942H508.268V390.048H480.525ZM498.107 371.056C499.358 368.338 499.358 365.559 498.107 362.761C496.103 358.117 493.464 357.264 493.464 361.213C493.464 362.682 492.61 364.15 491.598 364.468C490.368 364.865 490.507 366.869 492.074 370.203C494.932 376.335 495.706 376.415 498.107 371.056ZM512.376 371.989L512.832 354.01L539.663 354.624C569.59 355.319 571.912 356.252 569.749 366.71C567.724 376.494 568.201 381.217 571.515 383.301C573.936 384.849 575.325 384.71 577.111 382.844C578.957 380.899 578.957 380.205 577.191 379.51C574.393 378.498 573.996 373.378 576.714 373.378C577.726 373.378 578.58 370.898 578.58 367.881C578.58 359.506 581.755 361.213 582.846 370.203C583.462 374.549 584.394 380.741 585.089 384.075C586.339 390.048 586.339 390.048 549.13 390.048H511.84L512.297 372.068L512.376 371.989ZM532.837 371.83C535.238 367.028 535.159 366.016 532.063 362.066C529.423 358.653 528.729 358.356 528.649 360.757C528.649 362.464 527.578 364.23 526.327 364.706C524.462 365.401 524.462 366.016 526.327 367.96C527.578 369.35 528.649 371.91 528.649 373.776C528.649 378.499 529.82 377.962 532.837 371.83ZM563.08 370.6C564.311 367.425 560.441 361.828 558.04 363.376C557.107 363.932 556.412 366.413 556.412 368.894C556.412 373.934 561.374 375.165 563.16 370.6H563.08ZM403.148 347.024C403.763 342.916 403.763 342.916 479.592 342.916C554.23 342.916 555.48 342.916 555.48 346.568C555.48 350.199 554.091 350.279 479.036 350.755C402.612 351.291 402.612 351.291 403.148 347.024ZM405.39 332.458C406.025 329.283 406.561 324.321 406.561 321.364C406.561 318.427 407.414 316.105 408.427 316.105C409.439 316.105 410.272 319.201 410.272 323.071C410.272 332.755 417.496 339.741 417.794 330.354C417.873 326.643 418.111 326.722 419.818 331.287C421.981 337.26 425.017 337.955 426.327 332.755C427.26 329.203 427.419 329.203 430.753 333.231C434.245 337.339 434.245 337.339 435.396 333.152C436.865 327.952 439.127 327.794 440.437 332.835C441.747 337.796 446.093 336.486 446.946 330.91C447.562 326.802 447.641 326.802 450.201 331.763C451.61 334.542 452.761 337.102 452.761 337.499C452.761 337.876 441.826 338.273 428.49 338.273C404.239 338.273 404.239 338.273 405.39 332.458ZM456.492 331.128C456.492 324.004 460.679 317.871 465.641 317.871C467.109 317.871 467.645 316.483 467.03 314.24C466.414 311.68 467.724 309.12 471.455 306.024C477.488 300.904 478.262 296.637 473.857 291.755C471.058 288.659 471.058 288.044 473.857 283.778C475.484 281.297 476.873 275.859 476.873 271.751C476.873 267.643 477.647 264.23 478.659 264.23C479.731 264.23 480.525 267.722 480.525 271.989C480.525 276.415 481.755 281.059 483.462 282.924C486.478 286.258 485.625 293.859 482.291 293.859C481.298 293.859 480.525 295.942 480.525 298.502C480.525 301.062 481.219 303.067 482.152 303.067C483.005 303.067 485.783 305.091 488.344 307.413C491.836 310.667 492.61 312.533 491.3 314.855C490.05 317.097 490.368 317.871 492.451 317.871C497.572 317.871 502.771 324.936 502.771 331.763C502.771 338.272 502.771 338.273 479.592 338.273C456.492 338.273 456.492 338.272 456.492 331.128ZM497.174 330.057C497.174 325.472 489.435 321.602 480.207 321.602C469.51 321.602 462.068 324.778 462.068 329.283C462.068 332.378 463.775 332.696 479.592 332.696C493.702 332.696 497.174 332.22 497.174 330.057ZM480.663 311.839C480.445 309.656 477.885 310.052 477.111 312.453C476.714 313.704 477.409 314.319 478.58 313.922C479.81 313.545 480.743 312.613 480.663 311.839ZM504.537 336.407C504.537 335.394 505.391 334.541 506.403 334.541C507.415 334.541 508.268 333.311 508.268 331.763C508.268 327.497 511.364 328.508 512.694 333.152C513.924 337.339 513.924 337.339 517.337 333.231C520.83 329.123 520.83 329.123 521.981 333.231C523.152 337.339 523.152 337.34 526.407 333.47C529.661 329.66 529.661 329.66 532.757 333.47C535.952 337.34 535.952 337.339 537.103 333.152C537.798 330.909 539.128 328.965 540.06 328.965C540.973 328.965 541.29 329.738 540.755 330.751C540.12 331.683 540.516 332.993 541.529 333.609C546.867 336.863 541.687 338.273 524.005 338.273C512.297 338.273 504.537 337.498 504.537 336.407ZM545.24 335.553C545.24 334.164 546.093 332.378 547.105 331.763C548.117 331.128 548.971 327.179 549.05 322.912C549.13 313.148 551.67 317.097 553.317 329.421C554.388 337.875 554.23 338.273 549.904 338.273C547.105 338.273 545.24 337.181 545.24 335.553ZM671.297 213.148C667.427 210.509 667.109 209.278 668.201 199.812C669.352 189.354 669.352 189.354 658.973 183.38C646.252 176.018 646.252 176.018 638.433 182.924C630.912 189.434 630.276 189.513 624.541 184.849C620.989 181.991 620.592 180.662 622.219 177.963C625.176 173.002 683.997 125.551 687.113 125.551C691.916 125.551 696.956 129.342 696.956 132.914C696.956 140.753 681.517 213.545 679.592 214.775C676.714 216.641 676.099 216.561 671.297 213.227V213.148ZM677.191 162.305C678.977 155.002 680.128 148.81 679.83 148.493C679.592 148.274 674.393 152.382 668.419 157.72L657.504 167.405L663.775 171.295C667.268 173.458 670.979 175.244 672.071 175.324C673.162 175.482 675.484 169.509 677.191 162.305ZM275.781 210.211C270.363 203.147 238.274 147.639 238.274 145.317C238.274 141.447 242.997 138.113 247.561 138.808C250.518 139.264 256.174 146.945 268.657 167.564L285.783 195.625L299.04 187.409C313.765 178.26 316.801 177.566 319.5 182.766C322.616 188.421 320.592 190.664 301.917 201.837C283.918 212.692 278.877 214.24 275.781 210.211ZM326.168 182.448C325.791 181.138 325.017 161.988 324.541 139.821C323.529 96.1809 324.005 94.0769 333.531 94.0769C337.024 94.0769 343.533 100.745 363.457 124.777C378.659 143.075 388.959 157.105 388.959 159.427C388.959 162.067 387.252 164.011 383.7 165.242C378.877 166.948 377.885 166.492 371.673 159.427L364.926 151.747L352.443 156.49C339.98 161.214 339.981 161.213 339.981 171.056C339.981 178.895 339.266 181.297 336.408 182.845C331.526 185.405 327.022 185.246 326.168 182.448ZM352.523 141.983C356.631 140.435 356.631 140.197 347.879 128.568L339.048 116.8L338.413 125.313C338.115 130.056 338.413 136.645 339.048 139.979C340.199 146.409 340.437 146.488 352.523 141.983ZM584.156 169.747C573.777 165.639 569.669 156.57 575.702 151.529C577.964 149.664 579.433 149.981 583.382 153.156C588.661 157.264 597.889 158.257 599.973 154.942C600.588 153.851 605.946 140.356 611.761 125.016C622.616 96.3992 625.871 91.5173 631.765 95.2482C637.421 98.7211 636.409 104.694 625.633 133.073C617.179 155.24 613.845 161.829 608.804 166.254C602.076 172.148 593.305 173.379 584.156 169.747ZM546.173 158.118C542.68 155.637 542.838 154.545 550.677 118.804C555.083 98.5818 559.508 80.5826 560.362 78.8163C562.386 74.9267 567.347 74.7081 572.15 78.181C575.861 80.8998 575.007 85.5437 560.818 145.853C557.266 160.737 553.773 163.694 546.173 158.118ZM418.032 154.704C417.02 153.375 413.765 137.578 410.907 119.578C406.641 92.8466 405.093 86.8731 402.83 87.4883C401.282 87.9646 396.559 88.7985 392.213 89.5129C385.089 90.5846 384.235 90.3659 382.211 85.861C380.743 82.6858 380.584 80.4433 381.913 79.193C382.926 78.1809 396.48 75.3236 412.138 72.843C441.747 68.1198 445.398 68.4171 445.398 75.7797C445.398 80.0464 441.37 82.2097 429.979 83.8369C421.981 85.0078 421.128 85.5435 421.981 89.1156C422.616 91.3582 423.846 99.0386 424.938 106.103C427.339 122.297 430.594 141.824 431.606 147.183C433.154 154.545 422.676 160.36 418.032 154.704ZM489.891 149.743C487.966 147.719 485.545 143.373 484.553 139.979C483.62 136.645 478.957 120.749 474.234 104.615C463.696 68.576 463.616 66.3337 471.991 66.3337C475.404 66.3337 479.036 67.4055 480.128 68.6557C481.14 69.9655 485.089 83.7777 488.879 99.3562C492.689 114.935 496.401 126.941 497.095 126.167C497.81 125.313 502.453 112.99 507.335 98.7209C512.217 84.472 517.02 71.7515 518.111 70.4417C521.128 66.552 531.288 68.4175 531.904 72.9223C532.678 78.102 505.331 148.116 501.441 150.973C497.095 154.228 494.079 153.851 489.891 149.743ZM464.787 885.404C464.311 884.094 464.47 874.628 465.244 864.468C466.414 849.901 467.268 846.032 469.431 846.032C471.753 846.032 472.229 849.524 472.229 866.333C472.229 884.253 471.832 886.734 468.975 887.27C467.189 887.647 465.323 886.793 464.787 885.404ZM490.368 885.801C479.433 881.376 475.563 859.05 484.156 849.901C490.209 843.392 500.429 843.313 506.323 849.584C515.174 858.97 512.991 879.51 502.612 884.948C496.718 887.965 496.024 888.044 490.368 885.801ZM502.295 874.331C505.47 867.722 503.386 854.862 498.802 852.382C492.074 848.73 487.966 853.235 487.966 864.468C487.966 879.669 496.877 885.722 502.295 874.331ZM440.755 868.655C442.065 851.151 442.064 851.152 436.329 850.06C432.916 849.366 430.673 847.738 430.673 846.111C430.673 842.916 440.358 842.38 453.773 844.781C462.922 846.408 464.39 851.926 455.48 851.072C449.744 850.437 449.744 850.437 448.038 867.663C446.649 882.229 445.795 884.948 442.918 885.483C439.584 886.099 439.504 885.166 440.755 868.655ZM422.616 882.685C421.902 881.991 421.366 879.51 421.366 877.188C421.366 873.854 420.354 872.842 416.94 872.842C414.46 872.842 411.284 872.386 409.816 871.85C408.268 871.215 406.402 872.683 405.093 875.561C402.771 880.681 397.333 881.991 397.333 877.427C397.333 875.879 401.52 867.186 406.72 858.038C418.806 836.486 421.981 835.95 425.097 854.783C426.248 862.225 427.955 871.295 428.728 875.105C429.502 878.816 429.741 882.388 429.205 882.923C427.796 884.313 424.085 884.253 422.616 882.685ZM418.806 861.292C418.27 858.97 417.714 856.252 417.655 855.26C417.496 853.315 412.297 861.768 412.217 864.09C412.138 864.785 413.924 865.48 416.028 865.48C419.203 865.48 419.739 864.626 418.806 861.292ZM517.873 867.584C516.722 858.514 515.71 849.365 515.71 847.182C515.71 839.74 522.14 842.856 530.515 854.327C534.94 860.439 538.889 865.4 539.266 865.4C539.663 865.4 539.742 859.824 539.346 852.918C538.969 842.856 539.346 840.435 541.608 840.435C543.692 840.435 545.081 845.257 547.423 859.903C549.05 870.6 550.042 879.987 549.586 880.681C547.423 884.254 542.68 881.138 534.781 870.997C530.058 864.865 525.95 860.141 525.633 860.439C525.236 860.756 525.791 865.559 526.645 871.056C528.431 882.308 528.034 883.935 523.311 883.935C520.592 883.935 519.659 881.138 517.873 867.584ZM557.028 877.427C555.401 873.16 560.124 836.962 562.525 835.474C563.775 834.7 566.097 835.553 567.724 837.26C572.844 842.618 589.515 870.521 588.344 871.692C585.863 874.252 580.604 872.624 579.512 869.052C578.5 865.876 577.329 865.4 572.447 866.492C564.47 868.198 563.775 868.734 563.775 873.696C563.775 878.657 558.655 881.535 557.028 877.427ZM573.003 858.276C573.003 857.66 571.376 855.021 569.352 852.461C565.72 847.877 565.72 847.877 565.72 854.624C565.641 860.518 566.177 861.292 569.352 860.439C571.376 859.903 573.003 858.97 573.003 858.276ZM382.985 873.398C382.072 871.612 380.207 865.321 378.877 859.506C377.488 853.692 375.861 849.286 375.166 849.663C374.472 850.139 372.924 855.1 371.594 860.756C369.808 868.813 368.578 870.997 365.779 870.997C361.294 870.997 361.294 868.735 366.017 851.072C371.435 830.294 371.435 830.294 374.313 830.294C377.726 830.294 379.81 834.561 382.608 847.42C383.918 853.235 385.545 858.038 386.26 858.038C386.954 858.038 388.502 853.473 389.812 847.877C392.134 837.26 394.555 834.164 397.73 837.339C400.747 840.375 391.757 875.482 387.808 876.176C386.022 876.494 383.918 875.244 382.985 873.398ZM588.741 850.596C584.712 836.406 583.997 831.524 585.625 829.897C588.879 826.643 590.665 829.521 595.25 845.099C600.449 862.841 599.656 861.987 608.03 859.05C615.393 856.41 617.417 856.887 617.417 860.995C617.417 863.237 602.771 869.132 597.115 869.132C594.774 869.132 592.69 864.467 588.741 850.596ZM347.72 864.944C346.708 863.694 345.557 859.288 345.24 855.26C344.386 845.476 339.822 844.484 336.567 853.394C334.305 859.586 330.356 861.848 328.113 858.196C327.022 856.569 338.969 823.229 341.529 820.669C343.85 818.347 361.751 827.814 363.08 832.16C364.787 837.419 360.897 846.567 356.333 847.956C353.078 848.968 352.761 850.219 353.932 858.196C354.924 865.559 354.626 867.266 352.443 867.266C350.895 867.266 348.812 866.254 347.72 864.944ZM353.773 840.376C357.643 836.407 357.405 834.7 352.523 831.306C346.946 827.417 346.172 827.655 344.009 833.926C342.382 838.51 342.6 839.82 345.16 841.288C349.427 843.769 350.359 843.71 353.773 840.376ZM633.531 854.942C632.995 854.088 631.983 844.166 631.289 832.854C629.503 805.329 630.673 804.873 649.268 824.718C657.266 833.231 663.458 840.991 663.16 842.082C661.989 845.555 658.338 845.396 655.163 841.685C652.226 838.192 651.69 838.192 645.934 840.911C641.291 843.074 639.663 845.178 639.286 849.366C638.731 854.783 635.397 857.958 633.531 854.862V854.942ZM643.613 834.322C646.411 833.231 646.252 832.458 642.303 827.893C637.798 822.694 637.798 822.693 637.798 829.282C637.798 836.029 638.354 836.486 643.613 834.322ZM307.653 849.584C301.441 846.647 298.583 844.166 298.96 842.221C300.131 836.268 314.083 808.127 315.869 808.127C318.806 808.127 338.115 817.971 338.115 819.519C338.115 822.853 333.531 823.07 326.724 819.975C320.433 817.117 319.123 817.037 317.714 819.28C314.698 824.082 315.868 826.484 322.378 829.282C326.942 831.147 328.57 832.775 327.716 834.779C326.407 838.351 326.645 838.351 318.429 834.858C310.749 831.683 311.046 831.525 309.498 837.816C308.426 842.003 309.201 842.916 315.869 845.952C323.152 849.286 324.938 852.997 319.5 853.692C318.032 853.93 312.693 852.064 307.653 849.584ZM659.588 820.828C654.706 811.52 651.213 803.226 651.828 802.313C654.468 798.046 658.496 801.995 666.256 816.423C675.484 833.39 676.556 837.736 671.535 837.657C669.352 837.657 665.482 832.219 659.588 820.828ZM277.567 834.561C273.916 833.231 274.849 830.374 283.62 815.49C291.757 801.678 291.756 801.677 287.172 799.276C282.687 796.875 280.901 791.457 284.692 791.457C288.958 791.457 310.431 804.872 310.431 807.571C310.431 810.369 308.109 810.29 300.905 807.274C298.504 806.262 296.162 809.119 290.129 819.975C281.913 834.938 281.139 835.792 277.567 834.561ZM677.965 820.59C663.696 798.046 663.239 797.034 665.403 794.315C668.34 790.901 679.116 785.94 683.779 785.94C689.673 785.94 695.548 793.303 694.635 799.514C694 803.94 695.012 805.487 701.064 809.516C704.934 812.076 707.891 815.172 707.494 816.264C706.323 819.816 700.826 819.598 695.786 815.629C690.666 811.6 683.997 810.529 683.997 813.704C683.997 814.795 685.406 817.653 687.034 820.213C689.971 824.717 689.435 830.294 686.022 830.294C684.93 830.294 681.378 825.948 677.965 820.59ZM687.193 801.38C687.729 799.832 686.875 797.272 685.248 795.645C682.847 793.164 681.458 793.085 677.568 794.791C672.924 796.954 672.924 797.113 675.702 802.61C678.183 807.413 679.116 807.889 682.37 806.182C684.394 805.091 686.558 802.928 687.193 801.38ZM255.083 820.293C253.535 818.506 253.455 813.862 254.626 804.158C255.559 796.637 256.095 790.286 255.857 790.048C255.638 789.75 252.443 794.156 248.732 799.753C241.588 810.449 240.358 811.303 236.865 807.889C235.317 806.262 237.639 801.598 246.172 789.353C252.364 780.364 258.039 772.922 258.734 772.922C262.763 772.922 263.914 778.578 262.445 791.537C261.671 799.118 261.136 805.567 261.374 805.785C261.592 806.103 264.767 801.677 268.498 796.101C275.404 785.722 278.262 783.856 280.048 788.5C280.981 790.822 262.604 819.518 258.655 821.919C257.881 822.455 256.254 821.682 255.083 820.293ZM702.533 794.871C696.401 786.496 691.439 779.054 691.439 778.201C691.439 775.561 706.641 765.559 710.749 765.559C724.244 765.559 728.51 782.924 717.04 791.06C712.912 794.017 712.694 797.57 716.405 800.685C717.874 801.995 719.203 804.555 719.203 806.5C719.203 813.624 713.23 809.516 702.533 794.871ZM714.4 784.233C720.91 777.03 711.761 769.588 703.783 775.641C700.588 778.042 700.509 778.419 703.545 783.003C707.256 788.659 710.134 788.976 714.4 784.233ZM222.457 798.74C220.751 795.942 244.068 765.718 247.958 765.638C253.158 765.559 251.907 768.655 239.901 785.166C229.125 799.971 225.156 803.086 222.457 798.74ZM429.205 792.151C348.197 779.669 269.669 731.445 223.072 665.638C201.897 635.791 175.404 578.578 175.404 562.92C175.404 552.223 185.168 555.399 188.422 567.266C191.975 580.602 200.667 601.916 209.974 620.372C251.59 702.928 332.836 762.84 426.01 779.59C454.309 784.71 506.244 784.313 533.928 778.816C576.952 770.203 619.58 752.144 653.853 728.032C675.246 712.93 709.598 678.419 725.177 656.41C740.596 634.541 756.016 604.079 764.391 578.736C771.376 557.641 774.393 553.692 779.671 558.97C782.767 562.066 782.609 563.158 775.941 582.924C760.283 629.282 736.885 666.571 700.668 702.689C650.201 753.156 594.158 781.614 524.005 792.529C502.771 795.783 451.67 795.644 429.205 792.151ZM202.294 782.388C201.758 781.455 202.136 778.419 203.148 775.641C205.946 768.437 199.357 761.134 192.828 764.091C188.581 766.016 182.767 765.102 182.767 762.384C182.767 761.61 191.439 756.331 202.056 750.754C227.796 737.26 228.966 738.351 217.02 764.547C208.804 782.467 205.092 786.953 202.294 782.388ZM212.058 758.196C214.003 752.62 214.003 752.62 208.427 755.478C203.922 757.879 203.307 758.891 205.093 761.054C208.347 765.023 209.975 764.329 212.058 758.196ZM735.556 779.352C728.888 775.799 722.299 764.627 722.458 757.502C722.696 750.298 730.138 743.392 737.719 743.392C744.327 743.392 755.639 752.838 759.211 761.292C765.403 776.017 750.439 787.508 735.556 779.352ZM752.543 770.977C756.79 762.999 741.906 748.036 733.075 751.449C728.193 753.314 729.82 762.146 736.171 768.734C742.918 775.72 749.507 776.573 752.543 770.977ZM758.496 747.262C751.055 740.375 745.101 733.47 745.101 731.842C745.101 730.295 748.038 726.325 751.61 723.229C762.148 713.922 772.448 716.343 775.563 728.806C776.496 732.378 778.659 734.164 784.018 735.791C790.745 737.815 793.464 741.844 789.753 744.086C788.9 744.622 784.315 743.848 779.513 742.459C771.833 740.137 770.681 740.138 769.749 742.618C769.134 744.246 770.602 747.579 773.242 750.437C777.806 755.319 778.203 760.142 774.016 759.983C772.845 759.904 765.859 754.247 758.496 747.341V747.262ZM768.499 729.6C766.574 724.698 761.692 724.083 757.564 728.191C753.694 732.08 753.694 732.08 758.199 735.791C762.525 739.363 762.763 739.364 766.097 736.03C768.122 734.006 769.134 731.287 768.499 729.6ZM172.368 751.211C162.148 742.856 162.445 732.934 173.38 722.217C182.985 712.85 193.384 711.223 200.211 718.109C207.256 725.174 206.025 740.058 198.643 737.18C196.48 736.407 195.944 734.7 196.797 731.366C198.186 725.789 195.011 721.146 189.732 721.146C185.466 721.146 171.673 734.243 171.673 738.272C171.673 739.74 173.38 742.46 175.463 744.325C178.877 747.5 179.433 747.5 182.211 744.702C184.533 742.459 184.771 741.149 183.144 739.204C181.516 737.26 181.516 736.109 183.144 734.482C184.85 732.854 186.319 733.231 189.573 736.327C195.09 741.447 194.932 742.916 188.879 749.286C183.223 755.26 178.024 755.795 172.368 751.211ZM462.068 750.754C462.068 748.81 464.549 745.337 467.645 743.074C472.844 739.205 473.142 738.193 473.142 726.325C473.142 719.439 472.448 713.783 471.594 713.783C470.661 713.783 463.934 716.263 456.492 719.28C449.129 722.376 441.906 724.857 440.516 724.857C435.793 724.857 438.036 717.732 444.009 713.545C447.343 711.302 450.28 709.199 450.677 708.961C450.975 708.742 451.451 707.035 451.749 705.17C452.067 703.007 453.852 701.757 456.631 701.677C459.746 701.677 461.294 700.368 462.068 697.193C463.16 692.45 467.645 689.671 467.645 693.62C467.645 695.327 468.181 695.406 469.59 694.077C470.661 693.005 471.832 686.496 472.15 679.669C472.844 665.559 476.337 659.586 481.378 663.773C483.541 665.559 484.236 669.746 484.236 679.669C484.236 692.925 486.637 698.582 489.971 693.243C491.836 690.207 494.694 692.608 495.706 698.046C496.182 700.685 497.571 701.598 500.508 701.221C503.545 700.745 504.616 701.519 504.616 704.158C504.616 706.182 507.415 709.675 511.066 712.156C515.254 715.014 517.575 718.05 517.575 720.749C517.575 726.027 517.02 726.027 500.905 719.359C493.543 716.263 486.716 713.783 485.863 713.783C485.01 713.783 484.315 719.598 484.315 726.643C484.315 738.728 484.553 739.661 489.812 743.392C492.848 745.556 495.408 748.889 495.408 750.754C495.408 753.85 494.773 753.93 487.49 751.767C477.25 748.651 478.044 748.651 469.51 751.688C462.525 754.168 462.068 754.168 462.068 750.754ZM384.394 735.017C378.421 732.775 379.671 732.537 401.521 732.378C421.286 732.298 425.097 732.695 425.097 735.017C425.097 738.728 393.92 738.728 384.394 735.017ZM532.38 735.017C532.38 732.695 536.012 732.298 555.003 732.378C576.099 732.537 577.19 732.775 571.217 735.017C561.751 738.669 532.38 738.669 532.38 735.017ZM150.28 724.698C148.891 722.376 148.176 723.07 166.712 708.425C180.504 697.649 184.612 696.101 184.612 701.677C184.612 704.634 157.563 726.722 153.991 726.722C152.681 726.722 150.975 725.789 150.28 724.698ZM788.582 716.561C775.643 706.48 775.643 706.48 771.455 710.529C768.28 713.466 766.712 713.922 765.085 712.374C763.537 710.747 765.006 707.651 770.9 699.891C780.207 687.885 781.676 686.793 784.395 689.512C785.863 690.901 785.565 692.449 783.303 694.93C781.596 696.796 780.207 698.82 780.207 699.435C780.207 699.971 786.101 704.853 793.226 710.131C805.252 719.042 808.665 724.4 803.307 726.107C802.295 726.405 795.627 722.158 788.582 716.561ZM343.692 716.561C341.667 714.081 346.172 713.783 382.291 713.783C417.417 713.783 423.231 714.16 423.231 716.561C423.231 718.963 417.714 719.359 384.632 719.359C352.523 719.359 345.636 718.883 343.692 716.561ZM534.246 716.561C534.246 714.16 539.981 713.783 575.325 713.863C611.999 713.863 616.107 714.16 612.912 716.641C607.573 720.669 534.246 720.59 534.246 716.561ZM141.052 713.625C140.437 712.533 141.826 708.048 144.148 703.543C149.744 693.084 147.184 689.056 138.809 694.93C133.689 698.661 129.125 697.729 129.125 693.085C129.125 690.604 161.751 669.667 163.775 670.918C167.109 673.081 173.538 684.948 173.538 689.056C173.538 695.407 167.644 701.142 160.58 701.677C155.559 702.074 153.376 703.622 149.963 708.901C145.636 715.788 143.215 717.117 141.052 713.625ZM162.525 693.382C166.791 691.14 167.248 685.563 163.457 682.467C160.282 679.749 150.598 685.166 152.523 688.579C156.551 695.565 157.484 696.022 162.525 693.382ZM190.586 702.313C189.355 701.142 188.343 699.276 188.343 698.343C188.343 697.411 186.954 695.644 185.247 694.394C183.223 692.846 182.608 690.901 183.54 688.659C184.691 685.563 185.545 686.02 191.141 692.529C194.614 696.557 197.174 700.685 196.936 701.598C196.103 704.396 192.987 704.793 190.586 702.313ZM314.082 698.046C312.058 695.645 318.885 695.247 373.916 695.247C428.431 695.247 435.932 695.645 435.019 698.046C434.087 700.447 425.712 700.824 375.166 700.824C325.156 700.824 316.087 700.447 314.082 698.046ZM522.457 698.125C521.525 695.645 528.649 695.247 582.529 695.247C630.594 695.247 643.454 695.783 642.839 697.569C642.303 699.355 628.272 700.05 582.846 700.367C531.288 700.824 523.39 700.527 522.457 698.125ZM290.05 679.59C288.264 677.426 288.264 676.653 290.288 675.938C291.677 675.482 327.796 675.243 370.522 675.482C442.759 675.879 448.197 676.097 448.732 679.054C449.348 682.15 444.624 682.309 370.899 682.309C303.604 682.309 291.995 681.911 290.05 679.59ZM507.653 679.669C507.097 678.121 507.256 676.494 508.03 676.018C508.725 675.641 544.704 675.323 587.967 675.561C656.333 675.799 666.494 676.256 666.494 678.657C666.494 682.844 509.28 683.777 507.653 679.669ZM272.844 661.213C272.209 659.824 272.289 658.197 272.924 657.582C273.539 656.947 315.948 656.41 367.109 656.41C458.972 656.41 460.203 656.49 460.203 660.142C460.203 663.773 458.972 663.852 367.029 663.852C288.72 663.852 273.618 663.475 272.844 661.213ZM496.262 661.987C495.627 660.995 495.627 659.288 496.262 658.276C497.492 656.252 682.529 655.557 684.553 657.582C685.089 658.117 685.168 659.824 684.633 661.213C683.779 663.396 668.737 663.852 590.527 663.852C530.435 663.852 497.036 663.158 496.262 661.987ZM258.952 643.154C257.801 641.923 256.789 640.217 256.789 639.443C256.789 637.657 697.651 637.418 699.437 639.125C700.132 639.82 699.675 641.447 698.584 642.836C695.706 646.329 262.445 646.567 258.952 643.154ZM304.854 603.861V536.169L653.535 537.101L654.011 569.906L654.547 602.769L617.953 602.928C597.81 603.007 519.123 603.225 443.156 603.463L304.854 603.861ZM371.435 579.828C371.435 561.769 371.138 560.201 366.633 554.863C360.362 547.342 349.506 546.885 342.68 553.692C338.413 557.958 338.115 559.427 338.115 578.657V599.117H371.435V579.828ZM432.459 579.054C432.459 560.281 432.221 558.653 427.954 554.089C421.207 546.806 410.431 547.183 404.001 554.863C399.516 560.201 399.199 561.769 399.199 579.828V599.117H432.459V579.054ZM460.203 578.736V558.435H468.26C476.337 558.435 476.337 558.435 478.183 579.193L479.969 599.971L480.286 579.193L480.525 558.435H497.174V578.736C497.174 591.06 497.889 599.117 499.04 599.117C500.211 599.117 500.905 588.262 500.905 570.441V541.765H456.492V570.441C456.492 588.262 457.186 599.117 458.337 599.117C459.429 599.117 460.203 591.06 460.203 578.736ZM558.278 580.682C558.278 560.975 556.492 554.386 550.201 551.29C541.985 547.182 535.238 547.956 529.503 553.692C525.236 557.958 524.938 559.427 524.938 578.657V599.038H558.278V580.682ZM620.592 582.765C621.068 562.384 618.508 554.704 609.657 550.437C603.227 547.262 602.374 547.262 596.48 550.06C587.808 554.168 586.022 559.427 586.022 580.761V599.197L603.069 598.661L620.215 598.185L620.592 582.765ZM304.854 530.671C304.854 529.58 310.749 528.806 318.726 528.806C326.724 528.806 332.598 528.032 332.598 526.961C332.598 525.948 328.887 525.095 324.303 525.095C318.111 525.095 315.948 524.4 315.948 522.297C315.948 519.895 335.237 519.519 478.738 519.519C622.14 519.519 641.449 519.895 641.449 522.297C641.449 524.321 639.425 525.095 634.087 525.095C630.058 525.095 626.724 525.948 626.724 526.961C626.724 528.032 632.539 528.806 640.596 528.806C648.574 528.806 654.468 529.58 654.468 530.671C654.468 531.842 594.932 532.537 479.671 532.537C364.311 532.537 304.854 531.842 304.854 530.671ZM319.5 511.838C314.539 502.61 320.671 487.111 332.221 479.749C337.341 476.494 337.956 475.085 338.036 467.266C338.115 458.495 338.115 458.494 349.189 458.494C357.881 458.494 360.282 459.129 360.282 461.292C360.282 463.376 362.684 464.091 370.522 464.091C378.262 464.091 380.663 463.376 380.663 461.292C380.663 459.209 382.926 458.494 389.891 458.494C395.011 458.494 399.119 457.641 399.119 456.649C399.119 455.478 387.728 454.783 368.657 454.783C342.759 454.783 338.115 454.386 338.115 451.985C338.115 449.663 342.759 449.286 368.657 449.286C408.03 449.286 409.975 445.873 370.979 445.178C342.759 444.623 342.759 444.623 342.144 440.217C341.747 437.796 343.235 433.47 345.319 430.592C349.586 424.857 350.518 417.812 347.026 417.812C345.24 417.812 345.24 417.335 347.026 415.549C348.196 414.398 349.189 410.211 349.189 406.321C349.189 402.452 350.042 399.276 351.054 399.276C352.066 399.276 352.92 402.61 352.92 406.718C352.92 410.747 353.693 414.081 354.706 414.081C355.698 414.081 356.015 416.561 355.4 419.657C354.547 424.003 354.924 425.175 357.345 425.175C361.592 425.175 360.977 427.734 356.174 429.818C353.852 430.83 351.749 432.993 351.451 434.7C350.518 439.423 356.789 440.594 362.068 436.645C367.188 432.775 367.565 429.58 365.085 413.148C363.854 405.25 364.231 403.226 367.645 398.82C371.673 393.779 371.673 393.78 424.243 393.78H476.873V499.197H437.103C411.84 499.197 397.333 499.891 397.333 501.062C397.333 502.233 411.84 502.928 437.103 502.928C476.873 502.928 476.873 502.928 476.873 509.357V515.867H399.199C321.763 515.867 321.604 515.867 319.5 511.838ZM380.663 510.291C380.663 509.279 376.099 508.425 370.522 508.425C364.847 508.425 360.282 509.279 360.282 510.291C360.282 511.303 364.847 512.156 370.522 512.156C376.099 512.156 380.663 511.303 380.663 510.291ZM380.663 500.129C380.663 497.966 378.262 497.331 370.522 497.331C362.684 497.331 360.282 497.966 360.282 500.129C360.282 502.233 362.684 502.928 370.522 502.928C378.262 502.928 380.663 502.233 380.663 500.129ZM380.663 490.902C380.663 488.738 378.262 488.124 370.522 488.124C362.684 488.124 360.282 488.738 360.282 490.902C360.282 493.005 362.684 493.62 370.522 493.62C378.262 493.62 380.663 493.005 380.663 490.902ZM380.663 480.682C380.663 479.669 376.099 478.816 370.522 478.816C364.847 478.816 360.282 479.669 360.282 480.682C360.282 481.674 364.847 482.527 370.522 482.527C376.099 482.527 380.663 481.674 380.663 480.682ZM419.977 479.431C417.714 478.975 413.547 478.975 410.749 479.352C407.95 479.828 409.816 480.126 414.857 480.205C419.977 480.205 422.298 479.828 419.977 479.431ZM456.016 479.352C453.237 478.895 448.653 478.895 445.855 479.352C443.076 479.828 445.319 480.126 450.975 480.126C456.571 480.126 458.814 479.828 456.016 479.352ZM406.879 468.655C406.482 465.083 405.867 462.225 405.39 462.225C405.013 462.225 404.696 465.083 404.696 468.655C404.696 472.227 405.39 475.164 406.164 475.164C407.018 475.164 407.335 472.227 406.879 468.655ZM419.501 468.655C419.501 462.999 418.965 462.225 414.857 462.225C410.828 462.225 410.272 462.999 410.272 468.655C410.272 474.311 410.828 475.164 414.857 475.164C418.965 475.164 419.501 474.311 419.501 468.655ZM425.017 468.655C425.017 465.083 424.243 462.225 423.231 462.225C422.14 462.225 421.366 465.083 421.366 468.655C421.366 472.227 422.14 475.164 423.231 475.164C424.243 475.164 425.017 472.227 425.017 468.655ZM442.997 463.614C442.521 461.292 442.223 463.237 442.223 467.722C442.223 472.307 442.521 474.232 442.997 471.91C443.454 469.667 443.454 465.857 442.997 463.614ZM456.492 468.655C456.492 462.999 455.936 462.225 451.828 462.225C447.8 462.225 447.264 462.999 447.264 468.655C447.264 474.311 447.8 475.164 451.828 475.164C455.936 475.164 456.492 474.311 456.492 468.655ZM459.667 452.462C459.27 448.195 458.973 451.687 458.973 460.36C458.973 468.973 459.349 472.525 459.667 468.199C460.123 463.853 460.123 456.788 459.667 452.462ZM380.663 471.454C380.663 470.441 376.099 469.588 370.522 469.588C364.847 469.588 360.282 470.441 360.282 471.454C360.282 472.466 364.847 473.299 370.522 473.299C376.099 473.299 380.663 472.466 380.663 471.454ZM406.026 448.81C405.549 446.488 405.172 447.957 405.172 452.064C405.172 456.093 405.47 457.958 405.946 456.252C406.402 454.466 406.482 451.132 406.026 448.81ZM419.501 452.064C419.501 446.329 418.965 445.555 414.857 445.555C410.828 445.555 410.272 446.329 410.272 452.064C410.272 457.72 410.828 458.494 414.857 458.494C418.965 458.494 419.501 457.72 419.501 452.064ZM425.017 452.064C425.017 448.492 424.243 445.555 423.231 445.555C422.14 445.555 421.366 448.492 421.366 452.064C421.366 455.557 422.14 458.494 423.231 458.494C424.243 458.494 425.017 455.557 425.017 452.064ZM442.997 448.81C442.521 446.488 442.223 447.957 442.144 452.064C442.144 456.093 442.521 457.958 442.997 456.252C443.374 454.466 443.454 451.132 442.997 448.81ZM456.492 452.064C456.492 446.329 455.936 445.555 451.828 445.555C447.8 445.555 447.264 446.329 447.264 452.064C447.264 457.72 447.8 458.494 451.828 458.494C455.936 458.494 456.492 457.72 456.492 452.064ZM424.7 438.808C423.39 431.763 404.696 432.06 404.696 439.046C404.696 441.209 407.018 441.904 415.015 441.904C423.608 441.904 425.236 441.368 424.7 438.808ZM461.672 438.729C460.441 432.061 441.687 432.298 441.687 439.046C441.687 441.209 444.009 441.845 451.987 441.845C460.679 441.845 462.227 441.368 461.672 438.729ZM380.663 412.374C380.663 407.651 376.794 404.556 373.856 406.957C370.82 409.517 370.661 414.478 373.618 417.415C376.258 420.134 380.663 417.038 380.663 412.374ZM480.525 509.357C480.525 502.928 480.524 502.928 520.274 502.928C545.557 502.928 560.044 502.233 560.044 501.062C560.044 499.891 545.557 499.197 520.274 499.197H480.525V393.78H532.916C582.37 393.78 585.486 393.997 589.197 397.411C594.635 402.452 595.706 407.254 593.464 415.47C589.276 430.671 592.928 439.979 603.069 439.979C607.336 439.979 609.519 434.62 606.105 432.378C604.696 431.445 602.295 429.818 600.747 428.885C598.346 427.258 598.425 426.802 601.283 425.095C603.545 423.766 604.24 421.841 603.466 419.439C602.85 417.415 603.148 414.776 604.16 413.545C605.172 412.295 606.403 408.425 606.8 404.853C607.574 398.423 607.574 398.423 607.891 405.17C608.03 408.961 608.963 412.533 609.975 413.148C610.987 413.763 611.285 416.641 610.67 419.519C609.975 423.309 610.828 426.405 613.686 430.295C615.948 433.39 617.496 437.737 617.099 440.217C616.484 444.623 616.484 444.623 587.331 445.099C547.641 445.794 548.812 449.207 588.741 449.207C614.619 449.207 619.282 449.663 619.282 451.985C619.282 454.386 614.619 454.783 588.741 454.783C569.669 454.783 558.278 455.478 558.278 456.649C558.278 457.8 569.967 458.494 589.673 458.494H621.128V467.266C621.128 475.085 621.763 476.415 626.645 479.193C634.325 483.539 639.584 493.005 639.663 502.233C639.663 516.959 646.49 515.787 558.973 515.787H480.584V509.357H480.525ZM598.881 490.902C598.881 488.738 596.56 488.124 588.741 488.124C580.902 488.124 578.58 488.738 578.58 490.902C578.58 493.005 580.902 493.62 588.741 493.62C596.56 493.62 598.881 493.005 598.881 490.902ZM598.881 480.523C598.881 479.59 594.317 478.816 588.741 478.816C581.835 478.816 578.58 479.59 578.58 481.138C578.58 482.844 581.517 483.301 588.741 482.844C594.317 482.527 598.881 481.456 598.881 480.523ZM511.523 479.352C508.725 478.895 504.16 478.895 501.362 479.352C498.584 479.828 500.826 480.126 506.403 480.126C512.059 480.126 514.321 479.828 511.523 479.352ZM548.495 479.352C545.716 478.895 541.132 478.895 538.354 479.352C535.555 479.828 537.798 480.126 543.454 480.126C549.05 480.126 551.293 479.828 548.495 479.352ZM498.583 452.462C498.107 448.195 497.81 451.687 497.81 460.36C497.81 468.973 498.187 472.525 498.583 468.199C498.961 463.853 498.961 456.788 498.583 452.462ZM511.979 468.655C511.979 462.999 511.443 462.225 507.335 462.225C503.307 462.225 502.771 462.999 502.771 468.655C502.771 474.311 503.307 475.164 507.335 475.164C511.443 475.164 511.979 474.311 511.979 468.655ZM515.174 465.48C514.698 463.158 514.321 464.626 514.321 468.655C514.242 472.763 514.618 474.628 515.095 472.842C515.551 471.056 515.631 467.802 515.174 465.48ZM535.476 463.614C535.02 461.292 534.702 463.237 534.702 467.722C534.702 472.307 535.02 474.232 535.476 471.91C535.952 469.667 535.952 465.857 535.476 463.614ZM548.971 468.655C548.971 462.999 548.415 462.225 544.307 462.225C540.278 462.225 539.743 462.999 539.743 468.655C539.743 474.311 540.278 475.164 544.307 475.164C548.415 475.164 548.971 474.311 548.971 468.655ZM552.146 463.614C551.67 461.292 551.293 463.237 551.293 467.722C551.293 472.307 551.67 474.232 552.146 471.91C552.602 469.667 552.602 465.857 552.146 463.614ZM598.881 471.454C598.881 470.441 594.317 469.588 588.741 469.588C583.144 469.588 578.58 470.441 578.58 471.454C578.58 472.466 583.144 473.299 588.741 473.299C594.317 473.299 598.881 472.466 598.881 471.454ZM598.881 462.225C598.881 461.213 594.317 460.36 588.741 460.36C583.144 460.36 578.58 461.213 578.58 462.225C578.58 463.237 583.144 464.091 588.741 464.091C594.317 464.091 598.881 463.237 598.881 462.225ZM515.174 448.81C514.698 446.488 514.321 448.433 514.321 452.918C514.321 457.581 514.698 459.427 515.174 457.105C515.551 454.863 515.551 451.052 515.174 448.81ZM511.979 452.064C511.979 446.329 511.364 445.555 507.335 445.555C503.307 445.555 502.771 446.329 502.771 452.064C502.771 457.72 503.307 458.494 507.335 458.494C511.364 458.494 511.979 457.72 511.979 452.064ZM535.476 448.81C535.02 446.488 534.623 447.957 534.623 452.064C534.623 456.093 535.02 457.958 535.476 456.252C535.873 454.466 535.952 451.132 535.476 448.81ZM548.971 452.064C548.971 446.329 548.415 445.555 544.307 445.555C540.278 445.555 539.743 446.329 539.743 452.064C539.743 457.72 540.278 458.494 544.307 458.494C548.415 458.494 548.971 457.72 548.971 452.064ZM552.146 448.81C551.67 446.488 551.293 447.957 551.293 452.064C551.293 456.093 551.61 457.958 552.067 456.252C552.523 454.466 552.602 451.132 552.146 448.81ZM517.179 438.729C515.869 431.763 497.174 431.981 497.174 439.046C497.174 441.209 499.516 441.845 507.494 441.845C516.107 441.845 517.734 441.368 517.179 438.808V438.729ZM552.682 438.352C552.682 434.244 544.863 432.14 538.433 434.621C530.356 437.657 533.233 441.845 543.454 441.845C551.213 441.845 552.682 441.289 552.682 438.352ZM585.942 412.295C585.942 407.968 585.168 406.718 582.291 406.718C578.58 406.718 576.873 413.624 579.81 416.561C582.846 419.657 585.942 417.494 585.942 412.295ZM598.881 510.291C598.881 509.279 594.317 508.425 588.741 508.425C583.144 508.425 578.58 509.279 578.58 510.291C578.58 511.303 583.144 512.156 588.741 512.156C594.317 512.156 598.881 511.303 598.881 510.291ZM598.881 500.129C598.881 497.966 596.56 497.331 588.741 497.331C580.902 497.331 578.58 497.966 578.58 500.129C578.58 502.233 580.902 502.928 588.741 502.928C596.56 502.928 598.881 502.233 598.881 500.129ZM655.559 918.506C652.841 915.648 652.602 914.636 654.547 913.386C656.572 912.156 656.413 911.143 653.853 908.345C651.372 905.646 648.812 905.012 642.839 905.567C632.916 906.579 635.178 904.317 649.745 898.661C728.887 868.04 807.117 803.861 857.187 728.508C903.863 658.276 928.193 580.443 931.15 491.755C932.142 461.908 928.729 409.735 925.256 400.527C924.621 399.038 924.938 397.331 925.871 396.796C926.804 396.18 928.669 399.038 929.979 403.007C931.289 407.036 934.008 411.759 935.873 413.466C939.207 416.483 939.366 416.483 938.195 413.466C937.262 411.144 937.739 410.588 939.902 411.441C943.474 412.85 947.741 403.781 945.101 400.447C942.462 397.113 941.291 390.048 943.315 390.048C944.407 390.048 944.784 388.342 944.248 386.258C943.613 383.857 944.01 382.686 945.399 383.162C948.356 384.075 953.317 414.776 955.957 448.274C961.91 524.857 943.851 619.439 910.372 686.258C905.331 696.498 903.228 698.82 898.584 699.832C892.372 701.221 891.46 703.384 895.945 705.944C898.584 707.413 898.346 708.742 893.861 717.573C883.859 737.418 874.472 748.354 874.472 740.296C874.472 737.498 874.154 737.498 870.9 740.435C868.578 742.539 866.018 743.233 863.399 742.38C858.894 740.991 852.305 745.793 852.305 750.596C852.305 752.223 850.678 754.783 848.574 756.252C846.57 757.74 844.942 759.983 844.942 761.292C844.942 762.622 843.771 763.694 842.382 763.694C840.993 763.694 838.731 765.024 837.342 766.651C835.258 769.211 835.397 769.984 838.354 772.148C841.37 774.311 841.529 775.323 839.584 778.975C838.354 781.297 837.104 785.245 836.885 787.805C836.568 790.286 834.167 794.633 831.368 797.351C828.669 800.13 826.407 803.543 826.407 805.011C826.407 806.797 825.177 807.413 822.616 806.718C819.362 805.865 818.965 806.42 819.977 810.211C820.91 814.08 819.044 816.562 806.641 827.734C769.134 861.531 733.928 886.019 694.079 906.103C661.751 922.455 659.985 923.011 655.559 918.506ZM863.538 760.518C864.867 758.276 866.415 756.887 866.872 757.343C867.348 757.879 866.256 759.665 864.391 761.451C861.216 764.467 861.216 764.468 863.538 760.518ZM85.9416 211.997C82.7664 209.656 83.0643 208.802 91.2802 197.57C151.213 115.788 241.369 51.4496 337.341 21.9001C367.109 12.7514 376.555 10.9057 378.956 13.8428C380.286 15.3907 382.152 15.7876 384.077 14.7755C388.74 12.3742 400.985 14.4583 400.985 17.6534C400.985 20.0547 401.282 20.0547 403.684 17.6534C405.628 15.7086 408.963 15.1729 415.174 15.7881C421.902 16.562 424.382 16.0258 426.168 13.6841C427.419 11.9774 428.887 10.6675 429.502 10.7469C433.313 11.2033 434.543 10.3501 436.011 6.40085C437.639 2.21353 438.81 1.97537 459.965 0.665558C575.563 -6.24057 706.562 41.0505 794.933 121.523C803.228 129.044 803.228 129.045 797.334 127.497C792.531 126.167 791.301 126.405 790.666 128.965C790.209 130.671 789.753 129.739 789.594 126.941C789.515 124.162 788.582 121.841 787.57 121.841C786.558 121.841 785.704 120.213 785.704 118.109C785.704 113.069 782.371 113.466 781.676 118.566C781.299 121.285 779.592 122.912 776.873 123.309C774.393 123.686 772.765 125.234 772.765 127.179C772.765 133.45 770.443 132.537 752.682 119.122C584.712 -8.08566 358.179 -4.9899 193.84 126.723C174.233 142.46 142.521 173.855 128.272 191.676C118.647 203.702 116.861 205.091 111.681 204.774C104.854 204.317 101.362 206.024 101.362 209.814C101.362 211.203 100.27 212.453 99.0395 212.453C97.7099 212.453 95.0111 212.91 92.9869 213.466C90.9825 214.081 87.7872 213.387 85.9416 211.997ZM920.136 373.934C919.66 373.081 917.417 365.797 915.254 357.641C896.024 288.044 859.271 222.912 810.134 171.513C802.533 163.456 796.56 156.629 796.957 156.252C797.413 155.934 799.596 154.704 801.918 153.454C804.16 152.303 806.026 150.12 806.026 148.572C806.026 147.103 806.879 145.853 807.891 145.853C808.884 145.853 809.737 146.706 809.737 147.719C809.737 148.731 810.908 149.584 812.376 149.584C814.004 149.584 814.778 147.957 814.48 145.079C814.004 140.892 814.163 140.753 818.112 143.313C829.285 150.676 867.884 199.197 886.875 229.818C908.05 263.932 940.358 339.979 938.275 350.755C937.957 352.541 937.58 355.319 937.5 357.026C937.421 358.812 935.179 360.439 932.004 361.054C927.896 361.908 926.328 363.456 925.415 367.722C924.085 373.537 921.604 376.415 920.136 373.934Z" fill="#DBA651"/>
</svg>
