<svg width="961" height="764" viewBox="0 0 961 764" fill="none" xmlns="http://www.w3.org/2000/svg">
<path fill-rule="evenodd" clip-rule="evenodd" d="M425.972 761.164C370.031 755.574 319.556 743.542 270.202 724.071C235.208 710.273 225.068 704.745 227.333 700.527C229.764 695.976 227.665 693.462 221.161 693.295C215.717 693.233 213.95 695.332 218.252 696.87C219.623 697.368 220.101 698.429 219.374 699.156C216.61 702.148 166.862 670.416 137.395 646.789C115.555 629.333 83.1795 595.981 67.0124 574.307C-34.6865 438.092 -19.5999 269.002 105.248 144.818C180.244 70.2169 283.834 21.0298 402.739 3.65741C435.78 -1.2052 526.943 -1.2052 558.675 3.57434C638.555 15.7516 707.628 40.0231 770.302 78.0927C869.819 138.48 934.757 224.034 955.953 322.678C961.709 349.298 962.27 406.672 957.075 434.372C934.923 553.527 841.89 658.967 707.317 717.422C686.204 726.586 661.288 735.438 661.288 733.817C661.288 733.152 660.228 733.568 658.94 734.711C656.093 736.976 629.058 745.247 610.958 749.403C552.275 762.702 484.406 767.003 425.972 761.164ZM523.785 758.317C523.785 757.278 522.974 756.385 521.831 756.385C520.772 756.385 519.961 757.278 519.961 758.317C519.961 759.377 520.772 760.27 521.831 760.27C522.974 760.27 523.785 759.377 523.785 758.317ZM552.836 741.921C638.804 729.827 708.854 704.267 776.557 660.026C795.862 647.433 830.295 620.169 839.459 610.174C844.737 604.584 852.613 599.389 850.264 603.213C848.706 605.727 852.945 605.955 856.665 603.607C858.867 602.236 858.701 601.571 855.854 600.033C852.862 598.329 853.984 596.23 865.995 581.85C938.165 495.82 960.733 397.425 931.266 297.824C928.669 288.972 926.965 281.034 927.526 280.057C928.191 279.164 927.692 278.021 926.549 277.688C925.427 277.293 921.208 269.584 917.135 260.482C883.451 184.925 812.195 115.747 722.569 71.8379C706.423 63.9621 684.915 54.3828 674.588 50.6631C520.46 -6.08813 339.505 8.93616 205.742 89.5432C199.57 93.2006 193.731 95.7146 192.671 94.9666C191.528 94.3223 190.635 94.9663 190.635 96.3586C190.635 97.73 185.606 102.115 179.517 106.105C173.428 109.991 161.916 118.427 153.957 124.849C145.999 131.187 138.767 135.966 137.956 135.405C137.146 134.907 136.419 135.571 136.419 136.777C136.419 138.003 132.367 142.616 127.4 147.084C112.314 160.321 84.7173 192.634 71.7296 212.188C48.9128 246.455 33.7432 280.784 24.7245 318.688C17.9917 346.866 16.3709 396.615 21.1504 425.437C31.3743 486.386 58.4093 540.705 103.96 591.43C109.072 597.186 112.708 602.631 112.147 603.607C111.503 604.584 112.23 605.311 113.685 605.311C115.077 605.311 124.075 612.377 133.572 620.897C209.565 688.848 319.951 734.711 432.289 744.768C459.324 747.2 526.694 745.579 552.836 741.921ZM437.65 737.869C434.409 737.454 423.125 736.165 412.402 734.939C357.459 728.768 292.438 709.463 242.523 684.464C226.605 676.505 219.706 672.037 219.706 669.689C219.706 667.258 219.208 667.009 218.085 668.796C213.784 675.612 125.135 609.863 128.148 602.07C129.042 599.722 128.626 599.14 126.361 599.95C121.311 601.903 95.8347 573.164 75.948 543.136C56.3105 513.504 31.956 457.812 34.3873 448.233C34.9484 446.383 34.5537 444.513 33.577 444.18C27.4884 442.165 23.4361 367.231 28.0493 340.861C31.8729 319.021 34.138 311.228 37.1512 310.085C39.5825 309.108 39.915 310.002 38.7721 315.28C27.0728 370.888 28.6312 416.106 43.8008 463.818C93.7983 620.336 276.52 733.235 479.627 733.152C684.749 733.007 865.767 622.434 917.052 465.937C947.101 374.13 926.32 274.281 860.488 194.505C856.415 189.538 853.091 185.07 853.091 184.509C853.091 182.722 823.312 154.565 807.561 141.494C673.216 29.384 467.449 -2.18182 292.354 62.4243C174.156 106.021 81.1431 192.135 46.3984 290.115C43.3852 298.552 39.915 305.139 38.5227 305.139C36.4239 305.139 36.4862 303.269 38.7721 295.476C54.1911 243.525 93.7983 185.964 144.211 142.221C166.363 122.978 206.386 96.2755 235.375 81.4176C342.352 26.6198 472.395 9.82971 594.064 34.9948C718.185 60.6377 828.736 131.02 887.586 221.851C900.345 241.489 917.883 277.543 921.042 290.759C922.331 296.037 924.45 302.854 925.739 306.116C936.295 331.759 938.976 400.271 930.871 436.637C925.739 459.288 915.847 489.066 912.439 491.996C911.213 493.139 909.925 496.131 909.675 498.812C907.888 514.314 868.281 570.816 838.17 600.76C767.372 671.144 671.117 716.673 555.766 734.378C537.5 737.142 451.531 739.739 437.567 737.869H437.65ZM417.286 722.617C210.937 696.475 51.926 561.715 39.915 402.953C38.1279 379.741 38.772 365.194 41.4527 365.194C42.2631 365.194 43.4683 376.728 44.1333 390.858C48.1024 472.671 86.5875 546.628 156.638 606.683C257.277 693.067 400.225 733.963 544.066 717.567C553.646 716.445 563.475 715.052 565.823 714.491C568.92 713.681 570.291 714.242 570.291 716.195C570.291 721.058 541.884 723.988 487.98 724.549C454.129 725.048 431.001 724.404 417.286 722.617ZM573.221 715.718C571.746 713.432 572.245 713.265 593.503 708.964C648.134 698.013 705.031 675.279 751.558 645.978C903.109 550.513 957.574 395.887 887.752 259.589C844.176 174.534 759.267 106.022 652.602 69.8225C640.903 65.9158 629.557 61.9468 627.437 61.0533C621.598 58.6843 579.871 50.0812 555.766 46.2784C528.814 41.9769 439.437 41.3114 412.402 45.2181C388.048 48.7924 344.7 58.3721 322.881 65.105C224.569 95.382 136.169 158.534 89.2683 231.909C66.7008 267.236 47.2088 321.12 44.9438 354.41C44.6944 358.711 43.3229 362.368 41.7644 362.846C36.1745 364.716 44.9438 317.483 55.5002 288.661C96.0011 178.338 209.628 87.1116 349.5 52.5954C396.734 40.9168 427.094 37.2593 478.317 37.1763C526.777 37.0931 546.352 38.8802 590.178 47.6495C712.512 72.0041 822.98 143.198 878.754 233.468C924.533 307.737 934.674 387.679 908.221 467.164C869.985 582.433 751.392 677.648 603.249 711.977C576.047 718.315 574.842 718.461 573.221 715.718ZM444.466 702.231C433.515 691.28 439.853 671.143 454.129 671.143C459.968 671.143 469.548 678.375 469.548 682.76C469.548 686.168 462.815 684.942 459.324 680.806C454.046 674.634 448.29 678.77 448.29 688.766C448.29 697.597 451.781 700.194 458.763 696.391C461.278 695.082 464.935 694.356 466.867 694.771C470.213 695.415 470.047 695.976 465.33 700.777C458.992 707.115 449.994 707.758 444.466 702.231ZM473.455 706.055V670.666L483.118 671.622C488.458 672.12 494.485 674.074 496.5 675.861C503.732 682.344 503.004 697.452 495.129 703.374C493.342 704.746 487.731 705.972 482.619 705.972L473.455 706.055ZM489.04 698.262C491.638 696.87 492.843 694.189 492.843 689.887C492.843 682.843 489.934 678.936 484.655 678.936C481.725 678.936 481.164 680.641 481.164 689.576C481.164 700.527 482.37 701.837 489.04 698.262ZM532.7 697.846C532.055 694.605 531.577 688.932 531.577 685.275C531.577 679.498 530.912 678.604 527.837 679.414C521.499 681.139 521.416 675.362 527.588 672.12C537.5 667.091 537.417 667.008 540.18 691.758C541.157 700.444 540.825 701.836 537.583 702.647C534.653 703.457 533.593 702.397 532.7 697.846ZM409.722 700.361C407.457 698.989 407.29 695.831 408.766 683.487C410.532 668.297 410.532 668.297 420.029 668.796C425.224 669.024 430.668 670.25 432.144 671.393C435.053 673.908 435.614 682.012 432.954 683.654C431.894 684.298 432.06 687.062 433.266 690.387C436.362 698.574 432.705 702.148 421.421 702.148C416.475 702.148 411.197 701.337 409.722 700.361ZM425.639 693.628C427.011 690.054 425.39 688.599 419.883 688.599C416.621 688.599 415.332 689.742 415.332 692.485C415.332 697.036 423.935 698.012 425.639 693.628ZM426.949 677.959C426.949 676.172 425.161 675.051 422.148 675.051C419.073 675.051 417.286 676.172 417.286 677.959C417.286 679.747 419.073 680.89 422.148 680.89C425.161 680.89 426.949 679.747 426.949 677.959ZM547.973 700.132C547.246 698.99 549.843 693.545 553.646 688.038C561.522 676.505 562.249 673.097 556.742 673.097C554.54 673.097 552.836 674.385 552.836 676.006C552.836 677.793 551.049 678.936 547.973 678.936C541.884 678.936 541.885 676.172 547.89 670.084C553.48 664.494 560.628 663.995 565.096 668.879C569.314 673.492 569.148 676.588 564.452 684.298C559.423 692.569 559.485 692.984 566.384 691.529C571.351 690.386 572.161 690.781 572.161 694.189C572.161 697.202 570.541 698.345 564.93 699.322C560.961 699.883 555.766 700.859 553.397 701.337C551.049 701.753 548.617 701.255 547.89 700.132H547.973ZM394.053 695.415C391.954 689.887 383.434 688.599 379.694 693.233C378.468 694.771 376.12 695.415 374.25 694.688C368.826 692.652 385.533 664.411 392.121 664.411C396.505 664.411 397.066 665.554 399.186 677.959C400.474 685.44 401.617 693.462 401.7 695.893C401.846 701.836 396.339 701.504 394.053 695.415ZM392.121 680.89C392.121 678.687 391.227 676.983 390.167 676.983C389.107 676.983 388.214 677.315 388.214 677.793C388.214 678.292 387.736 679.996 387.092 681.7C386.26 683.654 386.926 684.692 388.941 684.692C390.811 684.692 392.121 683.155 392.121 680.89ZM505.747 691.675C504.937 689.742 506.724 688.765 512.335 688.267C518.59 687.705 519.961 688.1 519.961 690.947C519.961 695.332 507.389 695.976 505.747 691.675ZM577.356 693.15C573.616 689.41 576.463 686.563 583.362 687.062C591.466 687.706 594.147 682.344 586.271 681.201C581.326 680.474 580.349 676.006 584.817 674.385C588.474 672.931 588.64 667.32 585.066 667.32C583.611 667.32 581.242 668.629 579.954 670.167C575.237 675.944 569.647 672.287 573.699 666.115C576.297 662.208 584.172 659.216 588.806 660.421C593.42 661.564 596.994 669.107 594.729 672.764C594.064 673.824 594.895 675.694 596.433 676.983C600.236 680.162 600.152 687.54 596.266 691.363C593.253 694.356 579.871 695.665 577.356 693.15ZM336.429 685.108C334.642 683.965 334.975 680.723 337.884 671.06C340.004 664.244 341.063 658.322 340.253 658.073C335.785 656.452 333.582 653.771 334.559 651.174C335.536 648.659 337.157 648.742 347.796 652.067C361.927 656.452 361.511 656.202 360.14 659.943C359.412 661.813 357.293 662.541 354.446 661.98C350.394 661.232 349.583 662.375 346.342 673.263C342.684 685.503 340.731 687.872 336.512 685.108H336.429ZM618.668 683.882C618.668 680.308 617.94 680.246 609.504 682.677C603.727 684.298 603.249 684.132 603.249 680.079C603.249 669.274 611.686 651.818 616.964 651.818C617.691 651.818 619.395 656.119 620.621 661.481C621.909 666.925 624.029 671.143 625.484 671.143C626.876 671.143 628.497 672.453 629.058 674.074C629.702 675.695 629.474 676.983 628.497 676.983C627.52 676.983 626.46 678.936 626.128 681.284C625.401 686.334 618.751 688.682 618.751 683.882H618.668ZM615.26 670.001C614.532 666.364 613.888 665.699 612.662 667.569C610.148 671.559 610.626 675.051 613.556 675.051C615.426 675.051 615.904 673.409 615.26 670.001ZM315.649 678.459C310.288 676.422 305.82 674.635 305.591 674.385C304.615 673.409 316.21 643.215 317.769 642.737C318.724 642.405 320.512 642.82 321.821 643.714C323.691 644.836 323.359 647.516 320.449 655.309C315.317 668.629 315.483 670.25 322.382 673.097C327.826 675.362 330.008 679.663 326.766 681.367C325.956 681.783 320.927 680.474 315.649 678.459ZM363.548 680.474C354.778 678.209 354.695 672.12 363.381 673.824C370.675 675.279 371.34 675.861 370.53 679.414C370.031 681.451 368.327 681.7 363.548 680.474ZM636.372 677.71C632.3 674.884 632.154 674.302 634.98 672.681C636.684 671.705 639.864 671.476 641.963 672.204C646.597 673.658 649.506 668.297 646.015 664.806C644.311 663.102 642.856 663.185 640.009 664.972C633.526 668.962 631.261 667.653 629.141 658.406C627.188 649.886 627.271 649.47 632.071 647.599C634.814 646.623 639.531 645.252 642.461 644.69C650.004 643.132 649.589 648.909 641.963 651.506C638.804 652.629 636.123 654.914 636.123 656.535C636.123 658.966 637.017 659.132 640.903 657.345C647.739 654.187 655.532 659.528 655.532 667.258C655.532 672.598 651.293 678.936 647.802 678.936C646.908 678.936 644.976 679.414 643.583 679.913C642.129 680.474 638.887 679.414 636.372 677.71ZM462.254 659.216C456.976 657.761 456.166 656.784 457.059 653.044C458.68 646.789 449.828 640.784 443.407 643.714C439.687 645.418 438.461 644.836 434.97 640.14C432.538 636.898 431.645 634.134 432.788 633.407C433.848 632.742 434.741 631.204 434.741 629.999C434.741 628.856 432.06 630.394 428.881 633.407C423.603 638.436 422.709 638.747 420.029 636.087C415.582 631.536 403.716 635.588 403.716 641.594C403.716 648.181 391.705 647.932 388.713 641.428C386.115 635.755 376.93 633.49 372.462 637.542C367.766 641.761 358.519 637.209 359.973 631.37C360.95 627.546 359.475 626.59 345.116 621.79C229.535 583.076 151.838 511.405 130.164 423.483C124.886 401.975 124.491 361.308 129.353 340.923C155.828 230.122 276.769 140.6 424.912 121.919C454.129 118.282 509.82 118.344 538.705 122.168C682.152 140.766 801.057 227.296 830.211 334.19C834.014 348.404 834.679 354.887 834.513 382.567C834.347 418.205 831.022 433.396 817.141 463.507C784.578 533.952 703.992 596.231 609.587 623.827C598.947 626.902 597.638 627.796 598.532 631.453C600.007 637.126 590.739 641.677 586.043 637.625C581.492 633.719 570.291 636.981 570.291 642.176C570.291 645.335 568.982 645.978 562.498 645.978C555.766 645.978 554.789 645.417 554.789 641.594C554.789 635.838 544.565 631.287 541.074 635.505C537.749 639.495 534.258 638.83 529.956 633.407C525.239 627.401 523.452 627.235 524.761 632.908C526.133 638.996 521.27 644.773 516.221 643.132C509.987 641.199 500.407 647.682 501.695 652.878C502.589 656.369 501.612 657.512 496.583 659.299C489.851 661.647 487.004 660.836 487.004 656.535C487.004 652.067 472.561 652.794 470.359 657.345C468.904 660.275 467.532 660.588 462.254 659.216ZM489.352 638.186C493.342 637.043 499.098 634.05 502.277 631.37C505.747 628.44 510.381 626.591 514.371 626.591C517.925 626.508 526.943 625.282 534.404 623.91C543.007 622.206 549.594 621.874 552.441 623.017C565.013 627.796 583.674 622.039 592.297 610.673C599.259 601.571 602.355 585.591 599.342 574.307C596.745 564.81 584.65 551.096 578.811 551.096C576.214 551.096 577.356 552.55 582.385 556.041C603.976 570.65 601.295 605.81 577.668 618.05C571.517 621.312 553.646 621.707 551.776 618.798C551.049 617.655 549.095 617.24 547.308 617.905C545.542 618.632 535.297 620.335 524.429 621.79C509.238 623.827 503.815 625.281 500.635 628.44C489.934 639.246 470.94 639.246 458.929 628.523C456.332 626.175 448.124 623.993 434.492 622.04C423.208 620.336 412.652 618.466 410.948 617.821C409.327 617.24 407.373 617.572 406.729 618.798C404.859 621.79 387.009 621.312 380.837 618.133C369.47 612.127 361.116 598.08 361.116 584.697C361.116 574.702 368.078 561.32 375.87 556.291C382.292 552.135 384.245 549.142 380.504 549.142C375.559 549.142 363.132 563.502 360.057 572.687C350.311 602.07 378.073 632.659 405.753 623.017C410.532 621.313 414.771 621.458 424.413 623.744C431.25 625.365 439.936 626.653 443.656 626.653C447.874 626.653 452.841 628.44 456.643 631.37C468.093 640.139 476.302 641.843 489.352 638.186ZM492.926 629.5C496.022 627.879 498.62 626.092 498.62 625.614C498.62 625.115 489.684 624.721 478.816 624.721C458.929 624.721 458.929 624.72 464.769 628.523C471.751 633.24 484.905 633.635 492.926 629.5ZM355.256 618.86C355.256 617.821 353.968 616.928 352.264 616.928C350.643 616.928 349.833 617.821 350.477 618.86C351.121 619.92 352.493 620.813 353.469 620.813C354.446 620.813 355.256 619.92 355.256 618.86ZM542.196 615.058C552.836 612.855 564.202 610.174 567.361 609.218C570.624 608.242 576.775 606.537 581.076 605.477C598.303 601.01 598.22 572.853 581.014 559.699C574.343 554.67 573.367 554.42 567.694 556.685C504.376 582.266 457.225 582.266 394.469 556.685C388.796 554.337 387.32 554.504 381.066 557.912C368.327 564.894 362.966 577.3 365.813 592.823C367.351 600.844 370.53 602.631 395.362 609.447C430.419 619.11 444.965 620.73 485.05 619.92C513.706 619.359 527.504 618.133 542.196 615.058ZM609.005 618.86C609.005 617.821 607.8 616.928 606.241 616.928C604.703 616.928 602.916 617.821 602.272 618.86C601.545 619.92 602.833 620.813 605.036 620.813C607.218 620.813 609.005 619.92 609.005 618.86ZM580.203 612.377C585.793 608.47 584.422 608.553 567.361 612.938C557.636 615.535 555.184 616.761 558.675 617.239C565.262 618.299 574.759 616.117 580.203 612.377ZM341.292 611.878C339.359 607.577 339.505 606.454 342.518 604.252C346.903 601.093 345.365 587.856 340.648 587.856C339.11 587.856 336.263 587.045 334.476 586.069C332.606 585.03 318.891 578.442 304.033 571.46C231.156 537.048 184.151 489.066 164.431 429.094C159.464 414.07 158.986 410.018 158.82 382.567C158.737 358.545 159.464 350.025 162.394 339.967C189.18 247.744 287.72 175.179 415.332 153.754C447.562 148.393 508.761 147.977 540.264 152.861C671.761 173.475 774.042 247.827 799.041 340.923C805.13 363.407 805.13 398.817 799.207 421.302C783.206 481.44 735.391 533.474 664.197 568.302C649.36 575.596 632.466 583.243 626.876 585.175C615.177 589.248 613.556 590.62 612.579 598.018C612.184 601.426 613.223 604.085 615.592 605.872C618.585 608.075 618.834 609.218 616.964 612.709C613.556 619.027 616.881 618.299 645.952 606.288C767.143 556.207 837.194 466.415 831.105 369.018C823.541 248.554 690.671 142.055 526.216 124.849C498.848 122.002 438.544 123.477 412.485 127.696C259.875 152.279 139.183 253.5 130.974 363.823C126.756 420.075 142.84 466.831 182.925 515.374C214.677 553.776 282.941 597.685 337.884 615.058C340.565 615.951 342.934 616.679 343.162 616.762C343.411 616.928 342.601 614.642 341.292 611.878ZM620.039 599.389C619.395 596.874 619.811 595.649 621.265 596.148C624.029 597.124 625.484 603.358 622.969 603.358C621.909 603.358 620.621 601.571 620.039 599.389ZM332.128 599.14C332.128 597.352 333.021 595.337 334.164 594.589C337.572 592.49 337.967 594.755 334.975 598.745C332.543 601.987 332.211 602.07 332.128 599.14ZM625.899 597.519C625.172 594.921 625.65 593.779 627.104 594.277C629.868 595.171 631.323 601.488 628.725 601.488C627.77 601.488 626.46 599.638 625.899 597.519ZM325.561 598.08C324.979 597.041 325.707 594.589 327.182 592.573C329.364 589.727 330.008 589.56 330.008 591.763C330.091 595.898 326.933 600.366 325.561 598.08ZM633.027 596.791C631.011 591.596 633.359 588.5 635.791 593.134C637.349 595.898 637.411 597.769 636.123 598.579C635.063 599.223 633.609 598.412 633.027 596.791ZM318.496 594.194C318.579 591.513 322.153 587.046 323.275 588.189C324.813 589.727 322.382 595.648 320.2 595.648C319.306 595.648 318.496 595.004 318.496 594.194ZM639.199 592.49C637.578 588.271 639.697 586.318 642.046 589.892C644.311 593.549 644.311 595.648 642.129 595.648C641.152 595.648 639.864 594.194 639.199 592.49ZM312.719 591.43C312.719 589.643 313.613 587.544 314.756 586.879C318.164 584.78 318.662 586.963 315.649 590.952C313.135 594.194 312.802 594.277 312.719 591.43ZM645.952 589.976C644.394 587.212 644.394 585.986 645.786 585.986C648.134 585.986 650.649 591.43 649.111 592.968C648.55 593.633 647.074 592.241 645.869 589.976H645.952ZM306.963 585.84C308.189 583.555 309.56 582.266 310.205 582.827C311.763 584.448 309.228 589.809 306.88 589.809C305.425 589.809 305.508 588.583 306.963 585.84ZM652.269 586.879C650.482 582.183 652.997 581.29 655.449 585.84C656.904 588.583 656.904 589.809 655.532 589.809C654.389 589.809 652.935 588.5 652.353 586.879H652.269ZM299.17 586.401C299.17 583.804 302.744 579.253 303.887 580.396C305.425 581.934 302.994 587.856 300.874 587.856C299.898 587.856 299.17 587.211 299.17 586.401ZM658.524 584.697C656.987 580.479 659.085 578.525 661.371 582.1C663.636 585.757 663.719 587.856 661.537 587.856C660.561 587.856 659.252 586.484 658.524 584.697ZM293.331 582.578C293.414 579.897 296.988 575.367 298.11 576.489C299.669 578.048 297.217 584.053 295.035 584.053C294.058 584.053 293.331 583.388 293.331 582.578ZM664.364 580.791C662.743 576.572 664.945 574.64 667.211 578.276C669.476 581.85 669.559 584.053 667.294 584.053C666.4 584.053 665.029 582.578 664.364 580.791ZM287.492 579.419C287.492 577.798 288.385 575.928 289.424 575.284C290.484 574.64 291.378 575.45 291.378 576.988C291.378 578.609 290.484 580.479 289.424 581.123C288.385 581.767 287.492 580.957 287.492 579.419ZM671.117 578.359C669.559 575.595 669.559 574.307 670.951 574.307C673.299 574.307 675.897 579.752 674.276 581.373C673.715 581.934 672.239 580.562 671.034 578.359H671.117ZM281.798 574.141C282.941 571.959 284.396 570.567 284.957 571.211C286.598 572.769 284.084 578.193 281.715 578.193C280.26 578.193 280.26 576.988 281.798 574.141ZM676.79 574.307C675.481 571.876 675.419 570.483 676.707 570.483C677.767 570.483 679.554 572.187 680.676 574.307C682.068 576.821 682.068 578.193 680.842 578.193C679.72 578.193 677.933 576.489 676.79 574.307ZM275.959 570.317C277.164 568.052 278.639 566.764 279.2 567.325C280.738 568.946 278.224 574.391 275.875 574.391C274.421 574.391 274.504 573.081 275.959 570.317ZM683.274 571.377C681.507 566.681 684.022 565.787 686.37 570.317C687.908 573.081 687.908 574.307 686.536 574.307C685.393 574.307 683.939 572.998 683.274 571.377ZM268.166 570.983C268.249 568.302 271.823 563.751 272.945 564.894C274.421 566.432 271.969 572.354 269.87 572.354C268.893 572.354 268.166 571.71 268.166 570.983ZM689.612 569.362C687.513 563.834 688.469 561.652 691.399 565.538C692.937 567.574 694.246 570.005 694.246 570.816C694.246 573.58 690.838 572.52 689.612 569.362ZM262.327 567.491C262.41 564.167 265.963 559.865 267.439 561.403C268.249 562.13 267.439 564.249 265.568 566.099C263.781 567.886 262.327 568.551 262.327 567.491ZM695.368 565.371C693.747 561.153 695.867 559.117 698.215 562.774C700.501 566.348 700.501 568.551 698.298 568.551C697.321 568.551 696.033 567.075 695.368 565.371ZM256.55 563.584C256.55 560.26 260.124 556.041 261.579 557.496C262.41 558.306 261.579 560.426 259.812 562.213C258.025 564 256.55 564.644 256.55 563.584ZM701.145 561.486C699.524 557.268 701.706 555.314 703.992 558.888C706.257 562.525 706.34 564.644 704.137 564.644C703.161 564.644 701.872 563.19 701.145 561.486ZM250.711 559.782C250.794 556.457 254.368 552.135 255.823 553.61C256.633 554.421 255.822 556.519 253.952 558.306C252.165 560.093 250.711 560.759 250.711 559.782ZM707.067 557.745C705.197 552.965 705.613 552.384 708.771 554.981C712.013 557.662 712.595 560.759 709.914 560.759C709.021 560.759 707.711 559.366 707.067 557.745ZM244.954 555.875C244.954 552.55 248.529 548.249 249.983 549.703C250.794 550.514 249.983 552.634 248.196 554.504C246.409 556.291 244.954 556.935 244.954 555.875ZM713.966 554.587C711.203 551.823 710.953 549.142 713.405 549.142C715.109 549.142 718.018 554.982 716.896 556.208C716.564 556.519 715.192 555.792 713.966 554.587ZM239.094 551.989C239.178 548.664 242.668 544.342 244.227 545.901C245.037 546.628 244.144 548.81 242.357 550.597C240.57 552.384 239.094 553.028 239.094 551.989ZM718.434 549.142C716.481 547.022 715.836 545.235 716.979 545.235C719.411 545.235 724.19 550.846 722.902 552.135C722.403 552.633 720.387 551.324 718.434 549.142ZM233.255 547.688C233.255 546.628 234.564 544.675 236.185 543.386C237.806 541.994 239.094 541.744 239.094 542.887C239.094 543.947 237.806 545.9 236.185 547.189C234.564 548.581 233.255 548.81 233.255 547.688ZM723.629 545.173C722.403 543.137 722.091 541.433 723.068 541.433C725.666 541.433 729.468 546.794 727.598 547.916C726.705 548.415 724.917 547.189 723.629 545.173ZM229.452 540.456C230.741 538.835 232.694 537.526 233.754 537.526C234.793 537.526 234.647 538.835 233.255 540.456C231.967 541.993 230.013 543.386 228.954 543.386C227.811 543.386 228.06 542.077 229.452 540.456ZM729.073 540.456C727.764 538.835 727.515 537.526 728.658 537.526C729.718 537.526 731.671 538.835 732.959 540.456C734.331 542.077 734.497 543.386 733.458 543.386C732.398 543.386 730.445 541.993 729.073 540.456ZM223.592 537.775C223.592 536.798 224.901 535.012 226.522 533.64C229.681 531.043 230.013 531.687 228.226 536.404C227 539.646 223.592 540.622 223.592 537.775ZM735.225 537.131C732.565 534.368 732.232 531.686 734.664 531.686C736.451 531.686 739.381 537.526 738.155 538.752C737.822 539.084 736.534 538.42 735.225 537.131ZM217.753 534.035C217.753 533.079 219.208 531.043 220.912 529.588C223.592 527.385 223.925 527.468 223.364 530.627C222.616 534.45 217.753 537.38 217.753 534.035ZM740.835 532.83C739.381 531.126 738.799 529.089 739.526 528.445C741.313 526.575 745.22 530.876 744.243 533.723C743.765 535.344 742.705 535.012 740.835 532.83ZM213.202 530.232C211.747 527.946 217.358 522.834 219.145 524.704C219.873 525.432 219.145 527.385 217.421 529.006C215.654 530.876 213.867 531.292 213.202 530.232ZM744.804 527.219C743.682 525.764 743.267 524.061 743.911 523.333C745.386 521.858 750.415 525.515 750.415 528.112C750.415 530.627 747.319 530.149 744.804 527.136V527.219ZM208.589 523.499C209.067 522.19 211.02 520.735 213.057 520.32C216.215 519.759 216.381 520.091 214.096 522.751C211.02 526.492 207.446 526.99 208.589 523.499ZM750.415 521.047C749.043 519.426 748.877 518.138 749.916 518.138C750.976 518.138 752.929 519.509 754.301 521.047C755.61 522.689 755.859 523.977 754.716 523.977C753.657 523.977 751.703 522.689 750.415 521.047ZM202.251 520.32C202.251 517.888 208.007 513.504 209.399 514.958C210.771 516.351 206.469 522.024 203.955 522.024C203.061 522.024 202.251 521.296 202.251 520.32ZM756.171 517.161C752.763 513.109 755.61 510.907 759.35 514.647C761.138 516.517 761.616 518.221 760.473 518.865C759.434 519.509 757.48 518.782 756.171 517.161ZM200.381 513.337C201.69 511.717 203.622 510.429 204.682 510.429C205.742 510.429 205.576 511.717 204.204 513.337C202.895 514.896 200.962 516.267 199.903 516.267C198.843 516.267 199.009 514.958 200.381 513.337ZM762.509 512.943C761.2 512.444 760.078 510.657 760.078 508.87C760.078 506.044 760.39 506.044 763.32 509.036C766.894 512.527 766.478 514.315 762.509 512.943ZM193.897 510.906C193.315 510.013 194.541 508.226 196.578 506.938C198.677 505.628 200.381 505.379 200.381 506.272C200.381 508.953 195.019 512.776 193.897 510.906ZM766.395 507.249C765.024 506.688 763.964 504.984 763.964 503.529C763.964 501.244 764.629 501.16 767.87 503.113C773.793 506.854 772.816 509.763 766.395 507.166V507.249ZM188.702 504.817C188.702 503.841 190.074 502.553 191.778 501.909C196.578 500.121 197.139 500.516 194.541 503.675C191.861 506.854 188.702 507.498 188.702 504.817ZM769.741 499.789C767.143 496.63 767.787 496.214 772.484 498.085C774.188 498.729 775.58 500.038 775.58 500.932C775.58 503.613 772.421 503.03 769.741 499.789ZM184.878 499.062C184.878 498.085 186.25 496.775 187.892 496.131C192.671 494.261 193.315 494.677 190.635 497.835C187.975 501.077 184.878 501.742 184.878 499.062ZM773.71 494.989C772.172 494.033 771.362 492.724 772.006 492.08C773.46 490.542 779.466 492.973 779.466 495.155C779.466 497.357 777.284 497.274 773.71 494.989ZM180.992 493.368C180.992 492.329 182.364 490.936 184.068 490.292C185.938 489.565 186.832 490.043 186.333 491.435C185.377 494.345 180.992 495.882 180.992 493.368ZM778.427 488.983C776.307 485.575 778.489 485.097 782.479 488.089C785.804 490.625 785.804 490.936 782.957 491.019C781.17 491.019 779.154 490.126 778.427 488.983ZM179.039 486.24C180.328 484.682 182.281 483.871 183.341 484.536C184.546 485.263 184.234 486.385 182.613 487.362C178.457 490.043 176.442 489.399 179.039 486.24ZM782.313 483.227C781.585 482.084 781.502 480.63 782.063 480.069C783.456 478.676 787.175 481.128 787.175 483.393C787.175 485.907 783.851 485.741 782.313 483.227ZM174.093 480.38C178.062 477.388 180.244 477.865 178.146 481.273C177.501 482.416 175.382 483.31 173.595 483.227C170.748 483.227 170.748 482.832 174.093 480.38ZM786.136 476.577C782.811 474.146 782.728 473.73 785.638 473.73C787.425 473.647 789.461 474.541 790.189 475.684C792.308 479.092 790.022 479.57 786.053 476.577H786.136ZM169.376 475.767C169.376 473.336 174.821 471.548 176.026 473.481C176.691 474.457 175.714 475.683 174.01 476.328C169.937 477.865 169.376 477.783 169.376 475.85V475.767ZM789.939 470.8C786.697 468.286 786.614 467.974 789.461 467.891C791.331 467.891 793.347 468.784 794.075 469.907C796.194 473.335 793.929 473.813 789.939 470.8ZM165.47 469.99C165.47 467.808 171.496 465.376 172.95 466.914C173.595 467.558 172.784 468.868 171.247 469.844C167.589 472.11 165.47 472.192 165.47 469.99ZM161.584 464.15C161.584 462.051 167.589 459.6 169.127 461.158C169.709 461.719 168.898 463.007 167.34 464.067C163.766 466.353 161.584 466.353 161.584 464.15ZM791.976 463.818C789.856 460.41 792.059 459.932 796.028 462.945C799.353 465.377 799.353 465.771 796.526 465.771C794.739 465.854 792.703 464.961 791.976 463.818ZM158.82 458.312C158.176 457.252 159.464 455.88 161.75 455.215C167.257 453.428 168.732 455.381 163.849 457.979C161.501 459.205 159.464 459.371 158.82 458.312ZM795.862 457.979C794.074 455.152 795.716 453.926 799.519 455.381C801.223 456.025 802.2 457.335 801.639 458.312C800.163 460.66 797.42 460.493 795.862 457.979ZM798.875 452.389C797.337 451.412 796.61 449.957 797.337 449.209C799.124 447.505 804.631 449.708 804.631 452.222C804.631 454.737 802.615 454.737 798.875 452.389ZM156.804 450.352C157.449 449.292 159.319 448.399 160.856 448.399C162.477 448.399 163.205 449.292 162.56 450.352C161.916 451.412 160.046 452.306 158.508 452.306C156.867 452.306 156.139 451.412 156.804 450.352ZM153.874 444.513C153.874 443.454 155.828 442.643 158.259 442.643C161.75 442.643 161.999 443.038 159.714 444.513C155.911 446.945 153.874 446.945 153.874 444.513ZM800.745 444.513C798.397 443.038 798.708 442.643 802.2 442.643C804.631 442.643 806.584 443.454 806.584 444.513C806.584 446.945 804.465 446.945 800.745 444.513ZM150.944 438.736C150.466 437.926 151.36 436.721 153.064 436.076C157.365 434.372 159.63 434.601 159.63 436.554C159.63 438.819 152.17 440.689 150.944 438.736ZM804.714 438.819C803.093 437.842 802.366 436.471 802.927 435.91C804.465 434.372 810.408 436.803 810.408 438.902C810.408 441.188 808.288 441.105 804.714 438.819ZM149.012 430.943C149.656 429.904 152.004 429.094 154.124 429.094C156.222 429.094 157.449 429.904 156.804 430.943C156.139 432.086 153.874 432.897 151.672 432.897C149.573 432.897 148.347 432.086 149.012 430.943ZM804.631 430.943C804.631 429.904 805.857 429.094 807.395 429.094C808.932 429.094 810.72 429.904 811.385 430.943C812.112 432.086 810.803 432.897 808.621 432.897C806.418 432.897 804.631 432.086 804.631 430.943ZM148.035 425.353C148.035 423.005 153.542 421.135 154.768 423.151C155.329 424.044 154.435 425.27 152.731 425.915C148.679 427.535 148.035 427.453 148.035 425.437V425.353ZM807.893 425.831C805.296 423.234 806.667 421.696 810.408 422.673C812.59 423.151 814.294 424.46 814.294 425.353C814.294 427.39 809.743 427.702 807.893 425.748V425.831ZM810.408 419.348C806.501 416.917 809.431 414.714 813.483 417C815.27 417.956 815.915 419.348 814.938 419.909C813.982 420.553 811.945 420.242 810.408 419.348ZM147.058 417.394C147.786 416.335 149.573 415.441 151.11 415.441C152.565 415.441 153.874 416.335 153.874 417.394C153.874 418.454 152.087 419.348 149.884 419.348C147.703 419.348 146.414 418.454 147.058 417.394ZM144.211 411.639C144.211 410.496 146.165 409.685 148.513 409.685C152.087 409.685 152.337 410.101 149.968 411.639C146.248 413.987 144.211 413.987 144.211 411.639ZM810.886 412.282C807.062 410.745 809.992 407.981 814.294 409.124C816.413 409.602 817.702 410.911 817.057 411.805C815.914 413.654 814.709 413.737 810.886 412.199V412.282ZM143.235 403.846C143.879 402.786 146.082 401.892 148.18 401.892C150.217 401.892 151.921 402.786 151.921 403.846C151.921 404.906 149.739 405.799 146.975 405.799C144.128 405.799 142.507 404.968 143.235 403.846ZM810.408 403.846C810.408 402.786 812.195 401.892 814.294 401.892C816.413 401.892 818.2 402.786 818.2 403.846C818.2 404.906 816.413 405.799 814.294 405.799C812.195 405.799 810.408 404.906 810.408 403.846ZM142.258 398.069C142.258 396.947 144.045 396.137 146.248 396.137C148.43 396.137 149.656 396.947 149.012 398.069C148.347 399.129 146.56 399.939 145.022 399.939C143.484 399.939 142.258 399.129 142.258 398.069ZM812.34 398.069C810.158 396.614 810.719 396.137 814.938 396.137C818.034 396.137 819.821 396.947 819.177 398.069C817.702 400.438 816.081 400.438 812.34 398.069ZM142.674 384.936C138.85 383.71 139.91 378.992 144.689 376.561C147.058 375.273 148.347 374.94 147.619 375.834C146.809 376.644 146.892 378.265 147.869 379.491C149.968 382.005 146.165 386.058 142.674 384.936ZM814.792 385.019C811.613 383.876 811.696 377.372 814.938 376.167C818.595 374.774 822.585 381.59 819.572 384.042C818.284 385.081 816.081 385.497 814.792 385.019ZM142.258 365.111C142.258 364.072 143.962 363.179 146.165 363.179C148.264 363.179 149.968 364.072 149.968 365.111C149.968 366.171 148.264 367.064 146.165 367.064C143.962 367.064 142.258 366.171 142.258 365.111ZM811.385 365.111C812.112 364.072 814.294 363.179 816.33 363.179C818.429 363.179 820.133 364.072 820.133 365.111C820.133 366.171 817.868 367.064 815.187 367.064C812.34 367.064 810.72 366.171 811.385 365.111ZM142.258 357.319C142.258 356.28 143.962 355.386 145.998 355.386C148.118 355.386 150.3 356.28 150.944 357.319C151.609 358.462 149.967 359.272 147.224 359.272C144.461 359.272 142.258 358.378 142.258 357.319ZM811.385 357.319C812.112 356.28 813.899 355.386 815.437 355.386C816.891 355.386 818.2 356.28 818.2 357.319C818.2 358.378 816.413 359.272 814.211 359.272C812.029 359.272 810.72 358.378 811.385 357.319ZM145.188 351.562C144.461 350.503 145.749 349.609 147.952 349.609C150.134 349.609 151.921 350.503 151.921 351.562C151.921 352.622 150.716 353.516 149.157 353.516C147.619 353.516 145.832 352.622 145.188 351.562ZM808.538 351.562C808.538 350.503 810.719 349.609 813.483 349.609C816.247 349.609 817.868 350.419 817.224 351.562C816.58 352.622 814.294 353.516 812.257 353.516C810.159 353.516 808.538 352.622 808.538 351.562ZM146.165 343.77C146.165 342.71 147.37 341.9 148.928 341.9C150.466 341.9 152.253 342.71 152.898 343.77C153.542 344.913 152.336 345.723 150.134 345.723C147.952 345.723 146.165 344.913 146.165 343.77ZM808.538 343.77C812.257 341.338 816.247 341.338 816.247 343.77C816.247 344.913 813.899 345.723 810.886 345.723C806.75 345.723 806.252 345.224 808.538 343.77ZM149.323 338.658C146.809 336.143 148.118 334.523 151.921 335.499C154.041 336.061 155.828 337.287 155.828 338.263C155.828 340.196 151.194 340.528 149.323 338.658ZM806.584 338.014C806.584 336.954 808.538 336.06 810.886 336.06C814.46 336.143 814.709 336.476 812.34 338.014C808.621 340.445 806.584 340.445 806.584 338.014ZM151.11 332.237C148.513 331.343 148.118 330.471 149.656 329.494C150.861 328.746 153.313 328.912 155.08 329.888C159.152 332.174 155.973 334.024 151.11 332.237ZM804.631 332.237C804.631 330.865 809.182 328.351 811.53 328.351C814.211 328.351 811.779 331.925 808.538 332.735C806.335 333.296 804.631 333.068 804.631 332.237ZM153.23 325.109C150.716 322.595 152.004 320.953 155.828 321.93C157.926 322.511 159.714 323.717 159.714 324.693C159.714 326.647 155.079 326.98 153.23 325.109ZM802.698 324.444C802.698 323.405 804.465 322.512 806.667 322.512C808.849 322.512 810.158 323.405 809.514 324.444C808.787 325.504 807 326.397 805.441 326.397C803.987 326.397 802.698 325.504 802.698 324.444ZM155.828 318.688C154.269 317.711 153.542 316.423 154.124 315.758C155.661 314.22 161.584 316.651 161.584 318.854C161.584 321.036 159.464 320.953 155.828 318.688ZM800.745 318.854C800.745 316.423 806.252 314.553 807.478 316.589C808.039 317.483 807.062 318.771 805.441 319.415C801.389 320.953 800.745 320.89 800.745 318.854ZM158.571 311.872C155.329 309.44 155.246 309.025 158.093 309.025C159.88 308.942 161.916 309.835 162.644 310.978C164.742 314.386 162.56 314.885 158.571 311.872ZM796.838 312.849C796.838 311.457 801.472 308.942 803.82 308.942C806.501 308.942 803.987 312.516 800.745 313.327C798.625 313.908 796.838 313.659 796.838 312.849ZM794.075 307.155C793.43 306.199 794.739 304.723 797.005 304.079C802.532 302.292 803.987 304.246 799.124 306.843C796.755 308.132 794.739 308.215 794.075 307.155ZM160.524 304.973C158.425 301.482 160.69 301.066 164.659 304.079C167.922 306.51 168.005 306.927 165.158 306.927C163.371 306.927 161.251 306.116 160.607 304.973H160.524ZM163.849 299.445C162.311 298.469 161.999 297.347 163.038 296.619C164.098 296.038 166.529 296.765 168.566 298.323C171.413 300.422 171.558 301.066 169.376 301.066C167.755 301.149 165.241 300.339 163.849 299.445ZM791.082 299.445C791.082 297.346 797.004 294.915 798.542 296.453C799.207 297.014 798.397 298.323 796.838 299.362C793.202 301.648 791.082 301.648 791.082 299.445ZM167.506 293.523C165.885 292.546 165.158 291.258 165.719 290.614C167.257 289.055 173.262 291.507 173.262 293.689C173.262 295.871 171.08 295.809 167.506 293.523ZM787.175 293.606C787.175 291.507 793.202 289.055 794.656 290.614C795.301 291.175 794.49 292.546 792.952 293.523C789.295 295.809 787.175 295.871 787.175 293.606ZM171.33 287.683C169.792 286.707 169.127 285.253 169.937 284.442C170.748 283.632 172.867 284.525 174.654 286.312C178.146 289.783 176.109 290.676 171.33 287.683ZM785.721 287.268C786.697 284.442 791.082 282.821 791.082 285.336C791.082 286.375 789.711 287.767 788.007 288.411C786.136 289.138 785.243 288.743 785.721 287.268ZM174.156 281.678C171.808 278.021 175.133 277.127 178.54 280.535C181.554 283.548 181.554 283.777 178.624 283.777C176.836 283.777 174.821 282.821 174.093 281.678H174.156ZM782.396 281.845C783.04 280.785 784.994 279.891 786.864 279.891C789.628 279.974 789.711 280.224 787.175 281.845C783.373 284.276 780.858 284.276 782.313 281.845H782.396ZM779.466 276.961C780.775 275.423 782.728 274.052 783.767 274.052C784.91 274.052 784.661 275.34 783.289 276.961C781.98 278.582 780.048 279.891 778.988 279.891C777.928 279.891 778.094 278.582 779.466 276.961ZM177.979 275.922C175.714 272.182 179.039 271.288 182.447 274.696C185.439 277.688 185.439 277.938 182.447 277.938C180.743 277.938 178.707 277.044 177.979 275.922ZM776.058 270.789C777.845 269.002 780.048 268.192 780.775 269.002C781.585 269.75 781.024 271.205 779.383 272.265C774.686 275.174 772.567 274.28 776.058 270.789ZM181.886 270.062C179.766 266.654 181.948 266.176 185.938 269.168C189.263 271.683 189.263 272.015 186.416 272.098C184.629 272.098 182.613 271.205 181.886 270.062ZM770.863 268.441C770.219 267.381 771.445 265.594 773.627 264.472C778.094 262.041 778.905 264.701 774.77 268.129C773.066 269.584 771.59 269.75 770.863 268.524V268.441ZM187.144 265.926C183.507 262.269 184.484 260.254 188.702 262.934C192.671 265.366 193.897 268.275 191.05 268.275C190.24 268.275 188.453 267.236 187.144 265.926ZM765.917 262.685C765.917 260.171 770.863 256.513 772.338 257.968C773.793 259.443 770.135 264.389 767.621 264.389C766.644 264.389 765.917 263.662 765.917 262.685ZM190.635 259.589C189.346 257.968 189.097 256.68 190.24 256.68C191.3 256.68 193.232 257.968 194.541 259.589C195.913 261.209 196.079 262.435 195.019 262.435C193.98 262.435 192.027 261.147 190.635 259.589ZM762.426 256.264C763.403 253.417 767.87 251.796 767.87 254.31C767.87 255.37 766.478 256.762 764.774 257.406C762.904 258.134 762.031 257.739 762.426 256.264ZM194.541 253.749C193.17 252.128 193.004 250.819 194.043 250.819C195.102 250.819 197.056 252.128 198.427 253.749C199.736 255.37 199.986 256.68 198.926 256.68C197.783 256.68 195.83 255.37 194.541 253.749ZM200.297 249.864C196.578 245.313 199.238 244.502 203.227 248.887C205.181 251.069 205.908 252.773 204.765 252.773C203.622 252.773 201.69 251.484 200.297 249.864ZM758.685 249.531C760.473 247.744 762.509 246.767 763.153 247.494C765.023 249.365 762.094 252.773 758.602 252.773C755.61 252.773 755.61 252.544 758.602 249.531H758.685ZM752.368 247.266C752.368 244.752 757.314 241.011 758.769 242.465C760.244 243.92 756.587 248.97 754.072 248.97C753.096 248.97 752.368 248.16 752.368 247.266ZM204.204 244.086C201.607 240.928 202.251 240.512 206.968 242.382C208.672 243.026 210.043 244.336 210.043 245.313C210.043 247.993 206.885 247.349 204.204 244.086ZM210.043 240.201C208.672 238.58 208.007 236.792 208.506 236.211C209.067 235.733 210.605 236.626 211.997 238.247C213.368 239.951 214.013 241.738 213.451 242.216C212.973 242.798 211.415 241.905 210.043 240.201ZM748.96 239.868C750.747 238.081 752.763 237.104 753.407 237.832C755.361 239.702 752.451 243.11 748.877 243.11C745.947 243.11 745.947 242.881 748.96 239.868ZM742.622 237.603C742.622 235.089 747.651 231.348 749.106 232.803C750.581 234.278 746.841 239.307 744.326 239.307C743.433 239.307 742.622 238.497 742.622 237.603ZM213.95 234.424C212.558 232.803 212.309 231.515 213.451 231.515C214.511 231.515 216.465 232.803 217.753 234.424C219.145 236.065 219.374 237.353 218.252 237.353C217.192 237.353 215.239 236.065 213.95 234.424ZM738.071 233.862C736.7 231.597 742.207 226.485 743.994 228.335C744.721 229.083 743.994 231.016 742.29 232.72C740.503 234.507 738.716 235.005 738.071 233.862ZM219.706 230.454C215.966 225.987 218.647 225.093 222.616 229.561C224.569 231.68 225.213 233.468 224.174 233.468C223.031 233.468 220.995 232.158 219.706 230.454ZM225.546 226.631C224.174 225.01 223.447 223.223 224.008 222.662C224.569 222.184 226.107 223.078 227.499 224.699C228.787 226.403 229.535 228.189 228.954 228.667C228.476 229.228 226.938 228.335 225.546 226.631ZM732.959 227.857C732.959 226.88 734.331 225.592 736.056 224.927C740.752 223.14 741.396 223.472 738.799 226.631C736.118 229.893 732.959 230.537 732.959 227.857ZM729.073 222.745C730.445 221.207 732.398 219.898 733.458 219.898C734.497 219.898 734.331 221.124 732.959 222.745C731.671 224.366 729.718 225.675 728.658 225.675C727.515 225.675 727.764 224.366 729.073 222.745ZM229.369 220.875C228.06 219.254 227.811 217.945 228.954 217.945C230.013 217.945 231.967 219.254 233.255 220.875C234.647 222.412 234.793 223.722 233.754 223.722C232.694 223.722 230.741 222.412 229.369 220.875ZM723.297 220.397C723.297 219.337 724.606 217.384 726.227 216.012C727.764 214.703 729.073 214.454 729.073 215.513C729.073 216.656 727.764 218.61 726.227 219.898C724.606 221.207 723.297 221.436 723.297 220.397ZM235.208 216.989C233.899 215.347 233.671 214.059 234.731 214.059C235.77 214.059 237.723 215.347 239.094 216.989C240.404 218.61 240.653 219.898 239.593 219.898C238.45 219.898 236.497 218.61 235.208 216.989ZM716.73 216.407C715.338 214.142 720.865 209.03 722.735 210.9C723.463 211.628 722.652 213.581 720.948 215.285C719.161 217.051 717.457 217.55 716.73 216.407ZM240.237 212.916C239.51 211.046 239.988 210.152 241.38 210.651C244.289 211.627 245.848 216.012 243.333 216.012C242.274 216.012 240.882 214.62 240.237 212.916ZM711.701 212.999C711.784 209.674 715.275 205.456 716.813 206.91C717.541 207.721 716.73 209.841 714.943 211.628C713.156 213.415 711.701 214.059 711.701 212.999ZM246.16 210.817C244.289 209.03 244.622 206.35 246.575 206.35C247.552 206.35 248.84 207.638 249.422 209.259C250.544 212.189 248.529 213.166 246.16 210.817ZM705.841 209.196C705.924 205.851 709.499 201.549 710.953 203.025C711.784 203.835 710.953 205.934 709.104 207.721C707.317 209.591 705.841 210.152 705.841 209.196ZM252.02 206.993C250.149 205.123 250.378 202.443 252.415 202.443C253.391 202.443 254.617 203.752 255.261 205.372C256.384 208.302 254.368 209.341 252.02 206.993ZM256.467 201.466C254.534 199.118 254.617 198.557 257.049 198.557C258.669 198.557 260.457 199.845 261.101 201.466C261.662 203.108 261.433 204.396 260.54 204.396C259.646 204.396 257.859 203.108 256.55 201.466H256.467ZM701.228 201.632C701.872 200.011 703.244 198.557 704.303 198.557C706.818 198.557 705.197 203.025 702.35 204.001C700.896 204.396 700.501 203.502 701.228 201.632ZM262.327 198.64C259.958 194.172 262.638 193.361 266.046 197.414C267.522 199.201 267.605 200.593 266.379 201.404C265.319 202.048 263.532 200.822 262.41 198.64H262.327ZM694.246 200.988C694.246 199.928 695.534 197.995 697.155 196.686C698.797 195.315 700.002 195.066 700.002 196.209C700.002 197.248 698.714 199.201 697.155 200.51C695.534 201.882 694.246 202.048 694.246 200.988ZM268.499 194.567C266.628 191.574 266.711 190.847 268.893 190.847C271.906 190.847 274.566 196.042 272.301 197.414C271.491 197.912 269.787 196.686 268.499 194.567ZM688.469 197.58C688.469 194.255 692.043 189.953 693.518 191.408C694.329 192.218 693.518 194.339 691.731 196.126C689.861 197.996 688.407 198.556 688.469 197.58ZM275.148 191.658C273.278 186.941 273.694 186.296 276.852 188.894C280.094 191.574 280.655 194.733 277.995 194.733C277.101 194.733 275.792 193.362 275.148 191.658ZM682.629 193.278C682.713 190.598 686.287 186.13 687.43 187.273C688.884 188.727 686.453 194.733 684.333 194.733C683.357 194.733 682.629 194.089 682.629 193.278ZM280.904 187.668C279.284 183.449 281.403 181.517 283.668 185.07C286.016 188.728 286.016 190.847 283.834 190.847C282.858 190.847 281.549 189.372 280.904 187.668ZM676.79 189.143C676.79 188.25 678.079 186.38 679.72 185.008C682.879 182.411 683.274 183.054 681.424 187.751C680.198 191.013 676.79 192.053 676.79 189.143ZM671.034 186.629C671.034 184.842 671.928 182.722 673.05 182.078C676.458 179.958 676.956 182.161 673.943 186.13C671.429 189.372 671.117 189.455 671.034 186.629ZM286.827 184.115C286.266 182.556 286.598 180.768 287.554 180.124C288.614 179.48 289.424 179.397 289.424 179.875C289.424 180.457 290.006 182.244 290.65 183.865C291.294 185.569 290.9 186.94 289.84 186.94C288.78 186.94 287.409 185.652 286.827 184.115ZM294.474 181.995C292.915 177.942 292.998 177.278 295.035 177.278C297.466 177.278 299.253 182.722 297.3 184.031C296.323 184.592 295.118 183.615 294.474 181.995ZM665.257 182.722C665.174 180.935 666.068 178.919 667.211 178.171C670.619 176.072 671.117 178.254 668.104 182.244C665.673 185.569 665.257 185.569 665.257 182.722ZM300.23 178.026C298.609 173.787 300.791 171.771 303.077 175.428C305.342 178.982 305.425 181.184 303.222 181.184C302.267 181.184 300.874 179.73 300.23 178.026ZM659.418 177.132C660.644 174.93 662.099 173.558 662.66 174.119C664.281 175.74 661.683 181.184 659.335 181.184C657.963 181.184 657.963 179.958 659.501 177.132H659.418ZM651.625 177.777C651.708 175.096 655.283 170.628 656.405 171.771C657.963 173.309 655.532 179.231 653.329 179.231C652.436 179.231 651.625 178.587 651.625 177.777ZM306.236 174.452C305.591 172.893 305.986 171.127 306.963 170.462C307.94 169.817 308.833 169.734 308.833 170.233C308.833 170.794 309.311 172.498 309.976 174.202C310.62 175.906 310.288 177.278 309.228 177.278C308.189 177.278 306.797 175.989 306.236 174.452ZM313.384 172.332C311.514 167.698 314.028 166.825 316.46 171.272C317.997 174.119 317.997 175.345 316.626 175.345C315.4 175.345 314.028 174.036 313.384 172.332ZM645.869 173.87C645.869 171.272 649.443 166.742 650.565 167.864C652.103 169.423 649.672 175.345 647.573 175.345C646.596 175.345 645.869 174.68 645.869 173.87ZM319.618 170.378C318.08 166.326 318.164 165.682 320.2 165.682C322.631 165.682 324.502 171.126 322.465 172.415C321.572 172.976 320.283 172.02 319.618 170.378ZM640.092 171.127C640.009 169.34 640.903 167.22 642.046 166.576C645.454 164.456 645.952 166.659 642.939 170.628C640.508 173.953 640.092 173.953 640.092 171.127ZM325.478 166.326C324.751 164.622 324.585 162.752 325.063 162.274C326.6 160.737 330.091 163.812 330.091 166.742C330.091 170.545 326.933 170.295 325.395 166.326H325.478ZM633.443 166.825C634.087 165.1 635.479 163.729 636.518 163.729C639.053 163.729 637.412 168.113 634.585 169.09C633.11 169.568 632.715 168.675 633.443 166.825ZM333.437 164.872C332.606 162.836 332.46 160.736 333.021 160.237C334.725 158.45 336.346 161.298 335.536 165.038C334.892 168.363 334.809 168.363 333.437 164.872ZM626.793 164.373C627.104 162.586 628.414 160.799 629.702 160.404C631.094 159.905 631.572 161.048 630.928 163.562C629.619 168.363 625.899 169.007 626.793 164.373ZM339.92 161.942C338.383 159.095 338.383 157.89 339.754 157.89C342.102 157.89 344.7 163.334 343.079 164.955C342.518 165.516 341.063 164.144 339.837 161.942H339.92ZM620.039 161.858C620.621 159.677 621.909 157.89 622.969 157.89C625.484 157.89 624.029 164.227 621.265 165.1C619.811 165.599 619.395 164.456 620.039 161.858ZM613.223 160.487C613.556 158.7 614.844 156.913 616.153 156.497C617.525 156.019 618.023 157.246 617.379 159.76C616.07 164.456 612.33 165.184 613.223 160.487ZM346.903 160.487C345.032 158.617 345.282 155.936 347.298 155.936C348.274 155.936 349.583 157.308 350.144 158.866C351.287 161.859 349.251 162.836 346.903 160.487ZM607.052 157.89C607.052 155.687 608.361 154.066 610.065 154.066C612.413 154.066 612.579 154.794 610.958 157.89C609.815 160.072 608.444 161.775 607.945 161.775C607.467 161.775 607.052 160.072 607.052 157.89ZM352.659 156.996C352.098 155.458 352.43 153.671 353.469 153.006C354.446 152.362 355.256 152.279 355.256 152.778C355.256 153.339 355.838 155.042 356.482 156.746C357.126 158.45 356.815 159.843 355.755 159.843C354.612 159.843 353.324 158.534 352.659 156.996ZM600.09 156.746C600.734 155.042 601.295 153.339 601.295 152.861C601.295 152.445 602.023 152.05 602.999 152.05C603.976 152.05 604.308 153.837 603.727 155.936C603.249 158.139 601.856 159.843 600.817 159.843C599.758 159.843 599.425 158.45 600.09 156.746ZM360.451 156.58C358.581 154.71 358.914 150.097 360.867 150.097C361.844 150.097 363.049 151.884 363.631 153.983C364.607 157.806 362.966 159.095 360.451 156.58ZM593.503 154.149C593.503 151.967 594.396 150.097 595.456 150.097C596.516 150.097 597.409 151.385 597.409 152.944C597.409 154.482 596.516 156.268 595.456 156.913C594.396 157.557 593.503 156.352 593.503 154.149ZM366.956 151.551C366.956 148.06 367.35 147.811 368.826 150.097C371.257 153.9 371.257 155.936 368.826 155.936C367.766 155.936 366.956 153.983 366.956 151.551ZM374.021 152.695C372.151 150.825 372.462 146.273 374.416 146.273C375.393 146.273 376.618 147.977 377.18 150.18C378.156 153.9 376.535 155.292 374.021 152.695ZM381.897 152.944C381.149 152.113 380.504 149.682 380.504 147.5C380.504 144.653 381.065 144.174 382.624 145.712C383.746 146.855 384.411 149.287 384.079 151.074C383.663 152.861 382.707 153.671 381.897 152.944ZM387.653 149.37C386.842 147.333 386.676 145.213 387.237 144.652C388.941 142.948 390.583 145.795 389.752 149.515C389.108 152.861 389.024 152.861 387.653 149.37ZM574.177 150.658C574.177 147.977 577.751 143.447 578.894 144.569C580.432 146.107 578.001 152.05 575.881 152.05C574.925 152.05 574.177 151.385 574.177 150.658ZM394.053 146.273C394.053 144.174 394.884 142.388 395.923 142.388C397.066 142.388 397.877 144.174 397.877 146.273C397.877 148.393 397.066 150.18 395.923 150.18C394.884 150.18 394.053 148.393 394.053 146.273ZM561.771 148.559C561.044 147.333 561.189 144.901 562.166 143.114C564.452 139.062 566.322 142.221 564.535 147.084C563.641 149.681 562.748 150.097 561.771 148.559ZM568.338 146.356C568.338 144.174 569.231 142.388 570.291 142.388C571.351 142.388 572.244 143.676 572.244 145.214C572.244 146.689 571.351 148.559 570.291 149.204C569.231 149.848 568.338 148.559 568.338 146.356ZM400.973 145.068C399.331 140.85 401.534 138.813 403.799 142.471C406.085 146.045 406.168 148.226 403.882 148.226C402.989 148.226 401.617 146.772 400.973 145.068ZM408.994 145.629C406.812 140.101 407.207 137.359 409.722 139.873C410.865 140.995 411.509 143.592 411.114 145.546C410.387 149.037 410.303 149.037 408.994 145.629ZM554.789 144.403C554.789 142.221 555.682 140.434 556.742 140.434C557.781 140.434 558.675 141.723 558.675 143.281C558.675 144.819 557.781 146.606 556.742 147.25C555.682 147.894 554.789 146.606 554.789 144.403ZM415.332 142.388C415.332 140.268 416.226 138.481 417.286 138.481C418.325 138.481 419.218 140.268 419.218 142.388C419.218 144.486 418.325 146.273 417.286 146.273C416.226 146.273 415.332 144.486 415.332 142.388ZM541.24 142.865C541.24 140.434 542.113 138.481 543.173 138.481C545.604 138.481 545.604 140.6 543.173 144.32C541.635 146.689 541.303 146.356 541.24 142.865ZM546.996 143.447C546.996 141.972 547.89 140.101 548.95 139.457C549.989 138.813 550.882 140.102 550.882 142.305C550.882 144.487 549.989 146.273 548.95 146.273C547.89 146.273 546.996 144.985 546.996 143.447ZM422.398 141.494C421.816 139.956 422.065 138.169 422.959 137.587C423.852 137.109 424.995 138.314 425.556 140.434C426.699 144.902 424.018 145.796 422.398 141.494ZM428.881 140.434C428.881 138.314 429.775 136.527 430.834 136.527C431.894 136.527 432.788 138.314 432.788 140.434C432.788 142.553 431.894 144.32 430.834 144.32C429.775 144.32 428.881 142.553 428.881 140.434ZM436.591 139.374C436.591 136.527 437.484 134.907 438.544 135.655C439.604 136.299 440.497 138.481 440.497 140.601C440.497 142.616 439.604 144.32 438.544 144.32C437.484 144.32 436.591 142.055 436.591 139.374ZM476.219 142.782C477.029 141.411 476.53 138.979 475.325 137.421C473.455 135.156 473.538 134.678 476.135 134.678C477.839 134.678 479.211 133.784 479.211 132.641C479.211 131.498 480.749 131.665 483.035 133.119C485.3 134.512 486.193 136.216 485.133 137.193C484.157 138.169 483.928 140.351 484.655 142.138C485.632 144.735 485.3 144.819 482.868 142.865C480.603 140.995 479.377 140.995 477.424 142.865C475.325 144.735 475.159 144.735 476.219 142.782ZM519.878 139.623C519.878 136.859 520.772 134.678 521.831 134.678C522.891 134.678 523.785 136.299 523.785 138.397C523.785 140.434 522.891 142.699 521.831 143.364C520.772 144.008 519.878 142.387 519.878 139.623ZM527.671 140.912C527.671 138.564 528.564 136.527 529.624 136.527C532.055 136.527 532.055 138.647 529.624 142.388C528.086 144.736 527.754 144.403 527.671 140.912ZM533.448 141.494C533.448 140.019 534.32 138.169 535.38 137.504C536.44 136.86 537.333 138.169 537.333 140.351C537.333 142.553 536.44 144.32 535.38 144.32C534.32 144.32 533.448 143.032 533.448 141.494ZM444.716 138.481C444.716 135.883 445.131 134.761 445.692 136.049C446.17 137.421 446.17 139.624 445.692 140.912C445.131 142.304 444.716 141.161 444.716 138.481ZM450.16 138.481C450.16 136.382 451.054 134.678 452.093 134.678C453.152 134.678 454.046 136.382 454.046 138.481C454.046 140.683 453.152 142.388 452.093 142.388C451.054 142.388 450.16 140.683 450.16 138.481ZM506.329 138.647C506.329 136.465 507.223 134.678 508.283 134.678C509.322 134.678 510.215 135.883 510.215 137.421C510.215 138.979 509.322 140.767 508.283 141.411C507.223 142.055 506.329 140.849 506.329 138.647ZM512.169 138.481C512.169 136.382 513.062 134.678 514.122 134.678C515.182 134.678 516.075 136.382 516.075 138.481C516.075 140.683 515.182 142.388 514.122 142.388C513.062 142.388 512.169 140.683 512.169 138.481ZM390.25 612.044C374.021 606.766 371.091 607.015 380.754 612.938C384.806 615.369 390.5 616.845 395.923 616.845C404.693 616.762 404.693 616.761 390.25 612.044ZM670.369 560.821C771.839 507.415 819.177 420.158 792.786 334.834C783.04 303.186 768.93 281.034 740.752 252.689C689.944 201.715 621.909 169.485 538.31 156.746C509.903 152.445 451.282 152.528 422.065 156.829C295.513 175.74 192.837 249.198 167.028 339.385C161.251 359.272 160.856 401.893 166.218 421.302C183.091 482.666 236.102 537.131 312.657 571.793C332.689 580.791 335.951 581.539 335.951 577.154C335.951 575.45 337.738 574.307 340.336 574.307C346.425 574.307 351.121 562.857 346.425 559.449C340.336 554.898 348.129 543.22 354.695 546.877C357.376 548.415 359.163 547.916 362.405 544.924C366.623 540.934 366.623 540.934 355.589 531.77C323.358 504.734 302.661 473.398 291.128 433.873C284.479 411.223 284.479 359.916 291.045 337.037C307.379 280.286 353.719 229.478 407.54 209.259C518.818 167.552 640.757 227.442 671.263 338.991C677.601 361.953 677.684 407.732 671.429 430.943C660.873 470.073 637.349 506.521 606.179 531.77C594.313 541.432 593.752 542.243 596.661 545.485C599.03 548.082 600.734 548.498 603.332 547.106C608.839 544.196 610.626 544.841 613.888 551.013C616.631 556.374 616.569 556.935 613.223 559.055C607.945 562.379 611.602 574.307 617.857 574.307C620.455 574.307 622.491 575.762 623.135 578.11C624.112 581.85 624.59 581.768 638.222 576.178C645.952 572.915 660.478 566.016 670.369 560.821ZM651.625 228.418C651.625 227.524 660.644 211.046 662.493 208.448C662.826 208.053 665.756 209.674 669.081 212.105C675.647 216.823 676.312 222.745 670.535 226.403C668.021 227.94 666.068 227.857 663.241 226.07C659.896 223.971 659.086 224.034 658.13 226.486C657.091 229.187 651.75 230.745 651.625 228.418ZM669.081 218.838C669.081 217.217 667.688 215.929 666.151 215.929C664.53 215.929 663.241 217.217 663.241 218.838C663.241 220.48 664.53 221.768 666.151 221.768C667.688 221.768 669.081 220.48 669.081 218.838ZM218.813 412.282C219.956 403.596 219.623 402.454 214.013 397.175C207.28 390.775 208.672 388.427 219.291 388.427C225.068 388.344 226.107 387.45 229.847 379.159L233.982 369.995L237.806 378.93C241.38 387.617 241.941 388.011 251.355 389.237L261.267 390.525L253.869 396.697C246.658 402.786 246.575 402.953 248.529 411.556C249.568 416.335 250.233 420.491 249.9 420.719C249.651 421.052 245.848 419.348 241.463 417C233.588 412.615 233.588 412.615 225.546 417.145L217.587 421.613L218.813 412.282ZM712.096 412.116C714.049 403.118 714.049 402.953 706.984 396.864L699.836 390.692L709.748 389.321C718.912 388.095 719.806 387.45 722.569 380.385C726.393 370.972 727.681 370.972 731.9 380.385C734.996 387.367 736.056 388.011 745.054 389.237L754.883 390.525L747.651 396.448C740.586 402.308 740.42 402.703 741.729 412.116L743.1 421.779L735.079 417.311C727.12 412.844 727.12 412.844 719.639 417.062C715.504 419.431 711.701 421.302 711.119 421.302C710.641 421.302 711.036 417.145 712.096 412.116ZM705.841 266.903C705.841 266.176 708.605 262.685 711.93 259.277C716.896 254.165 717.624 252.378 715.753 250.092C714.444 248.554 714.132 246.85 714.943 246.372C717.291 244.897 729.468 256.43 728.014 258.695C727.203 260.087 726.06 260.087 724.44 258.695C722.652 257.24 720.471 258.3 716.481 262.518C711.369 267.797 705.841 270.145 705.841 266.903ZM241.463 261.376C229.286 254.082 230.824 249.448 243.333 255.869C249.006 258.862 249.256 258.778 247.781 255.37C244.954 248.637 244.456 243.11 246.575 243.11C248.674 243.11 253.641 253.105 255.823 261.875C257.36 267.963 252.165 267.797 241.463 261.376ZM697.487 259.277C696.76 258.55 696.76 255.952 697.321 253.417C698.464 248.887 695.617 247.1 693.269 250.819C692.625 251.879 691.233 252.773 690.256 252.773C686.703 252.773 688.469 247.91 694.724 240.512C701.062 233.052 701.062 233.052 706.34 237.27C712.99 242.465 713.156 248.305 706.818 251.235C704.137 252.461 701.955 255.058 701.955 256.991C701.955 260.565 699.836 261.625 697.487 259.277ZM705.841 244.086C705.841 242.465 704.553 241.177 702.932 241.177C701.311 241.177 700.002 242.465 700.002 244.086C700.002 245.624 701.311 246.933 702.932 246.933C704.553 246.933 705.841 245.624 705.841 244.086ZM257.61 249.281C252.082 242.299 250.877 238.247 254.368 238.247C256.467 238.247 268.166 252.461 268.166 254.976C268.166 258.778 262.888 256.014 257.61 249.281ZM264.592 242.216C260.457 236.543 259.064 233.219 260.54 232.325C261.745 231.598 263.303 231.764 264.031 232.886C264.675 233.862 267.189 237.188 269.621 240.201C273.756 245.396 274.171 245.479 277.663 242.299C280.094 240.034 281.715 239.702 282.608 241.094C284.001 243.276 276.52 250.674 272.8 250.819C271.657 250.819 267.917 247.016 264.592 242.299V242.216ZM674.027 241.988C670.224 238.164 670.224 236.543 673.86 229.561C678.972 219.586 690.838 220.231 693.435 230.621C695.95 240.679 681.258 249.199 674.027 241.988ZM684.915 237.915C689.612 233.613 689.445 227.524 684.666 227.524C680.364 227.524 675.98 234.195 677.601 238.414C678.972 241.988 680.531 241.821 684.915 237.915ZM280.094 232.075C272.862 220.875 274.504 217.55 284.894 222.495C291.939 225.82 291.939 225.82 288.78 220.958C284.894 215.035 284.811 213.975 288.219 213.975C290.9 213.975 301.04 227.774 301.04 231.431C301.04 234.361 295.928 233.779 288.946 230.205C282.858 227.046 282.858 227.047 286.349 232.408C288.531 235.65 289.113 238.33 287.97 239.473C286.827 240.596 283.917 237.831 280.177 232.075H280.094ZM299.503 220.147C294.058 211.212 293.497 208.22 297.383 208.22C300.479 208.22 309.394 225.82 307.378 227.857C306.069 229.166 303.472 226.631 299.503 220.147ZM645.142 224.366C644.477 223.638 643.833 221.041 643.833 218.527C643.833 216.096 643.022 214.059 641.963 214.059C640.82 214.059 640.009 215.347 640.009 216.906C640.009 218.527 638.721 219.815 637.1 219.815C633.193 219.815 633.442 217.633 638.471 207.326C643.355 197.165 642.856 197.331 651.147 202.359C658.275 206.744 659.169 210.983 653.579 214.454C651.376 215.763 649.672 218.839 649.672 221.291C649.672 225.592 647.739 226.88 645.142 224.366ZM649.672 206.266C647.885 205.123 646.347 205.372 645.454 206.827C643.667 209.757 648.051 212.521 650.565 210.007C651.875 208.698 651.625 207.492 649.672 206.266ZM306.797 213.892C304.033 208.531 303.306 205.124 304.615 203.918C305.903 202.609 307.939 204.562 310.62 209.924C312.885 214.308 315.566 217.883 316.626 217.883C320.283 217.883 320.678 212.438 317.519 206.183C315.317 201.964 314.922 199.367 316.293 197.996C317.602 196.687 319.618 198.868 322.631 205.123C327.909 215.846 326.289 220.48 316.958 221.374C311.597 221.935 310.454 221.124 306.797 213.892ZM624.507 214.952C624.507 214.308 626.71 209.591 629.39 204.23C634.004 195.149 638.077 191.741 637.993 197.102C637.91 202.297 630.367 215.929 627.52 215.929C625.816 215.929 624.507 215.513 624.507 214.952ZM330.091 211.129C327.494 208.053 328.969 207.326 336.429 208.137C338.3 208.303 339.754 207.493 339.754 206.433C339.754 205.29 337.24 204.313 334.247 204.313C323.442 204.313 321.322 194.899 331.068 190.431C335.203 188.561 336.596 188.727 339.276 191.408C342.352 194.421 342.185 194.65 337.406 194.65C329.281 194.65 329.198 198.224 337.323 198.868C346.258 199.617 348.44 205.934 341.375 210.9C335.868 214.786 333.188 214.786 330.091 211.129ZM619.395 210.734C618.107 205.622 613.306 203.419 609.898 206.266C604.225 211.045 605.202 203.835 611.125 197.019C620.289 186.629 623.385 187.439 624.112 200.26C624.756 211.128 621.431 218.527 619.395 210.734ZM618.668 199.367C618.668 197.663 617.774 196.852 616.714 197.58C615.675 198.224 615.26 199.617 615.821 200.593C617.525 203.253 618.668 202.775 618.668 199.367ZM354.778 194.339C351.682 184.842 351.765 181.018 355.028 181.018C356.96 181.018 363.132 200.593 361.844 202.692C359.724 206.183 357.771 203.918 354.695 194.339H354.778ZM581.97 198.64C577.273 196.77 573.055 194.172 572.639 192.946C571.746 190.265 565.013 190.037 564.119 192.635C563.787 193.611 562.415 193.839 561.127 193.029C559.423 191.969 560.545 188.977 565.013 182.473C572.328 171.771 576.775 171.272 577.606 181.018C577.834 184.758 578.645 190.037 579.227 192.635C580.266 197.019 580.764 196.52 583.674 187.917C587.414 177.215 593.025 172.748 590.905 182.244C590.261 185.32 589.201 189.621 588.557 191.907C587.663 194.983 588.391 196.271 591.404 197.019C595.789 198.141 597.077 202.36 593.025 202.214C591.716 202.214 586.687 200.593 581.97 198.64ZM363.942 190.598C359.558 177.527 362.405 174.036 370.758 182.078C376.619 187.667 376.618 187.668 375.392 181.434C374.499 176.8 374.914 175.262 376.93 175.262C379.299 175.262 384.328 188.478 384.328 194.65C384.328 198.141 379.299 196.604 374.665 191.741C369.138 185.819 368.41 186.297 370.675 194.255C373.772 204.957 367.6 201.632 363.942 190.598ZM392.204 187.273C391.061 183.283 390.167 179.065 390.167 177.86C390.167 176.551 388.463 176.072 386.032 176.716C383.102 177.444 382.125 176.966 382.79 175.095C383.746 172.165 395.362 169.007 399.664 170.545C401.783 171.272 401.617 172.02 398.853 174.036C395.84 176.238 395.612 177.693 397.316 184.509C398.937 190.764 398.77 192.635 396.734 193.445C395.03 194.089 393.492 191.969 392.121 187.273H392.204ZM549.178 184.509C545.77 176.321 545.77 176.322 544.482 182.556C543.838 185.964 542.362 188.81 541.24 188.81C539.038 188.81 538.788 185.153 540.492 174.763C542.051 165.516 548.056 164.539 549.906 173.308C551.693 181.267 554.789 182.556 554.789 175.345C554.789 171.355 555.766 169.423 557.698 169.423C561.127 169.423 561.189 170.233 558.529 182.888C555.932 194.816 553.729 195.232 549.178 184.509ZM407.041 189.455C406.48 188.561 405.503 183.366 404.776 177.943C403.404 168.031 403.404 168.031 409.576 166.825C417.93 165.1 419.218 165.184 419.218 167.47C419.218 168.529 417.036 169.9 414.356 170.545C411.675 171.272 409.493 172.581 409.493 173.558C409.493 174.452 411.675 175.262 414.356 175.262C420.112 175.262 420.777 178.255 415.332 179.647C409.493 181.185 410.47 185.569 416.309 184.426C420.527 183.615 424.746 185.818 422.792 187.751C421.005 189.538 407.872 190.93 407.041 189.455ZM423.935 180.374C421.816 169.174 423.374 164.706 429.463 163.978C436.757 163.168 441.058 166.97 439.853 173.142C439.354 175.906 439.77 179.564 440.663 181.434C443.573 186.712 438.876 187.668 434.741 182.639C430.918 178.171 430.917 178.171 430.917 182.556C430.751 189.455 425.307 187.751 423.935 180.374ZM434.242 170.961C433.266 168.114 429.941 168.924 429.213 172.249C428.798 174.285 429.546 174.846 431.728 174.036C433.432 173.391 434.575 172.02 434.242 170.961ZM517.696 182.161C512.896 171.771 522.081 160.487 531.245 165.433C541.157 170.711 536.918 186.857 525.655 186.857C521.333 186.857 519.234 185.652 517.696 182.161ZM529.541 180.207C532.866 176.155 531.162 170.378 526.694 170.378C522.725 170.378 520.688 175.262 522.559 180.207C523.93 183.782 526.528 183.782 529.541 180.207ZM444.383 173.308C444.383 159.843 447.23 158.139 453.152 167.947L456.976 174.285L457.537 167.947C458.763 155.375 463.709 162.108 463.709 176.384C463.709 186.546 461.839 187.107 455.189 178.67L450.243 172.332V178.67C450.16 182.972 449.266 184.925 447.313 184.925C445.048 184.925 444.383 182.327 444.383 173.308ZM466.951 183.449C466.473 182.639 467.844 177.361 469.964 171.771C474.826 158.7 478.65 159.032 483.429 173.142C487.336 184.758 486.837 187.19 481.497 182.327C477.112 178.338 473.704 178.254 472.229 182.078C471.023 185.153 468.426 185.88 466.951 183.532V183.449ZM492.76 175.262C492.76 167.947 492.116 165.599 489.934 165.599C488.313 165.599 487.004 164.705 487.004 163.646C487.004 162.586 490.91 161.692 495.69 161.692C500.49 161.692 504.459 162.586 504.459 163.646C504.459 164.705 503.088 165.599 501.529 165.599C499.68 165.599 498.62 167.47 498.62 170.878C498.537 178.171 496.583 184.925 494.485 184.925C493.591 184.925 492.76 180.54 492.76 175.262ZM507.472 173.786C508.927 161.381 509.488 160.154 512.169 162.835C515.099 165.765 512.169 184.925 508.844 184.925C506.579 184.925 506.329 182.805 507.472 173.786ZM530.601 562.774C634.004 535.51 694.079 428.118 661.122 329.328C641.568 270.561 592.214 225.509 528.003 207.721C506.08 201.632 456.082 201.632 433.099 207.721C354.28 228.584 296.406 296.702 291.939 373.88C286.598 466.104 347.962 544.113 442.679 565.538C461.028 569.673 510.132 568.135 530.601 562.774ZM448.29 561.652C398.936 553.194 353.968 524.455 327.182 484.203C314.589 465.376 308.023 451.329 302.911 433.146C283.19 361.869 308.334 288.743 367.849 244.336C401.035 219.586 436.674 207.804 479.211 207.638C520.605 207.409 552.358 216.573 584.817 238.164C635.791 272.098 665.174 325.919 665.174 385.413C665.174 497.108 561.854 581.123 448.29 561.652ZM527.671 554.815C536.689 552.467 552.441 546.545 562.498 541.599L580.931 532.58L531.079 532.102C503.649 531.77 458.763 531.77 431.312 532.102L381.398 532.58L395.196 539.729C411.841 548.415 429.13 554.421 447.313 557.912C466.867 561.715 506.641 560.176 527.671 554.815ZM409.161 521.296C410.47 517.639 411.426 504.818 411.426 491.269V467.724H370.758V496.464C370.758 512.216 371.34 525.764 372.068 526.491C372.795 527.136 380.92 527.718 390.084 527.718C406.812 527.718 406.812 527.717 409.161 521.296ZM516.636 526.325C497.311 526.014 465.018 526.014 444.965 526.325C424.912 526.575 440.809 526.907 480.188 526.907C519.629 526.907 536.045 526.658 516.636 526.325ZM588.474 526.574C591.155 525.598 591.549 521.047 591.549 496.547V467.724H548.617L549.989 494.344C550.799 509.036 552.192 521.297 553.085 521.629C554.062 521.941 554.789 523.499 554.789 525.037C554.789 527.136 558.197 527.801 570.125 527.801C578.562 527.801 586.853 527.219 588.474 526.574ZM364.026 463.901C360.057 459.516 360.285 458.062 365.002 458.062C368.078 458.062 368.826 456.773 368.826 451.246C368.826 444.513 368.826 444.513 387.237 444.513C401.617 444.513 405.669 443.869 405.669 441.832C405.669 440.377 407.373 437.925 409.576 436.471C412.901 434.206 413.545 431.526 413.795 417.81C414.189 400.189 417.036 394.349 421.421 402.225C422.875 404.74 424.018 408.875 424.018 411.556C424.018 416.252 424.413 416.418 437.567 416.418H451.137L451.532 366.171C451.781 336.31 451.137 314.553 449.994 312.433C448.539 309.752 448.768 308.942 451.054 308.942C453.236 308.942 454.046 306.843 454.046 301.004C454.046 294.666 454.856 292.879 457.953 292.069C460.052 291.508 461.755 290.198 461.755 289.138C461.755 288.078 464.436 284.754 467.615 281.845C472.312 277.377 473.704 274.051 475.242 263.412C476.219 256.347 476.613 249.365 476.052 247.91C475.554 246.518 476.052 244.814 477.175 244.086C480.52 242.071 479.772 229.478 476.364 229.478C474.743 229.478 473.455 228.667 473.455 227.524C473.455 226.485 474.743 225.675 476.364 225.675C477.923 225.675 479.377 224.117 479.46 222.246C479.71 219.005 479.772 219.005 480.603 222.246C481.081 224.117 482.702 225.675 484.24 225.675C485.715 225.675 487.004 226.485 487.004 227.524C487.004 228.667 485.715 229.478 484.094 229.478C480.915 229.478 479.855 240.118 482.785 241.905C483.762 242.466 484.572 248.471 484.655 255.204C484.822 261.958 486.027 269.667 487.419 272.265C491.471 280.057 501.384 291.507 503.981 291.507C505.436 291.507 506.329 294.334 506.329 299.3C506.329 303.747 507.389 307.487 508.761 308.048C510.631 308.713 511.109 321.12 510.631 363.179L510.132 417.394H524.907C539.765 417.394 539.765 417.395 538.56 410.911C537.583 405.945 538.144 403.679 540.991 401.082C545.542 397.03 547.89 399.627 548.139 408.625C548.617 434.767 548.867 436.221 553.085 437.364C555.849 438.092 556.826 439.484 556.077 441.5C555.101 444.097 557.47 444.513 573.284 444.513C591.633 444.513 591.633 444.513 591.633 451.246C591.633 457.168 592.214 458.062 596.433 458.062C602.106 458.062 602.438 459.371 598.22 464.067C593.586 469.179 593.025 522.357 597.555 519.925C603.498 516.746 625.172 491.996 634.419 477.948C678.016 411.14 668.021 320.309 610.958 264.139C539.287 193.611 424.496 192.8 353.241 262.435C313.696 301.004 295.347 350.502 301.124 402.869C305.675 443.869 321.093 475.767 351.287 507.104L365.979 522.273L366.457 494.76C366.956 472.193 366.457 466.582 364.109 463.901H364.026ZM422.564 520.653C420.694 520.154 417.68 520.154 415.81 520.653C413.961 521.047 415.499 521.546 419.218 521.546C422.959 521.546 424.413 521.047 422.564 520.653ZM445.859 520.653C443.988 520.154 440.892 520.154 439.043 520.653C437.172 521.047 438.71 521.546 442.451 521.546C446.17 521.546 447.729 521.047 445.859 520.653ZM457.87 487.134C457.87 459.039 456.56 453.283 451.282 458.561C447.396 462.53 446.752 515.769 450.555 519.675C455.521 524.538 457.786 514.314 457.87 487.134ZM467.117 520.653C465.247 520.154 462.254 520.154 460.384 520.653C458.514 521.047 459.968 521.546 463.709 521.546C467.449 521.546 468.987 521.047 467.117 520.653ZM502.028 520.653C500.158 520.154 497.082 520.154 495.212 520.653C493.342 521.047 494.879 521.546 498.62 521.546C502.339 521.546 503.898 521.047 502.028 520.653ZM513.789 488.588C514.434 465.459 514.122 461.636 511.192 458.706C508.033 455.547 507.784 455.63 505.831 458.955C503.004 463.984 503.981 515.852 506.974 519.032C511.275 523.645 512.979 515.935 513.789 488.588ZM523.286 520.653C521.416 520.154 518.423 520.154 516.553 520.653C514.683 521.047 516.138 521.546 519.878 521.546C523.619 521.546 525.156 521.047 523.286 520.653ZM535.879 489.149C536.856 465.771 536.523 460.826 534.092 458.395C528.481 452.784 526.777 460.742 527.359 488.983C528.003 519.031 528.647 523.167 532.305 519.509C534.009 517.805 535.152 507.831 535.879 489.149ZM546.581 520.653C544.711 520.154 541.24 520.091 538.788 520.569C536.44 521.047 537.895 521.462 542.196 521.462C546.435 521.462 548.451 521.131 546.581 520.653ZM423.042 504.984C423.042 480.068 420.777 460.015 417.93 460.015C415.81 460.015 415.332 465.938 415.332 488.983C415.332 516.746 415.499 518.055 419.218 518.055C422.709 518.055 423.042 516.828 423.042 504.984ZM434.242 490.936C434.887 462.529 434.076 456.108 430.024 456.108C425.806 456.108 424.995 460.742 424.995 484.12C424.995 510.74 426.283 518.449 430.585 517.639C433.266 517.161 433.848 513.171 434.242 490.936ZM444.882 515.707C444.549 514.896 444.383 501.971 444.383 487.134C444.383 464.317 443.905 460.015 441.474 460.015C439.105 460.015 438.544 463.507 438.544 480.069C438.544 491.103 437.983 504.256 437.339 509.285C436.113 518.138 436.196 518.366 440.747 517.805C443.261 517.41 445.131 516.434 444.882 515.707ZM468.509 509.846C467.844 465.127 467.532 460.015 465.018 460.015C462.981 460.015 462.088 466.353 461.111 487.196C459.74 515.769 460.135 518.699 465.413 517.639C467.678 517.244 468.572 515.041 468.509 509.846ZM490.827 504.506C490.827 490.937 490.827 490.936 481.164 490.936C471.501 490.936 471.501 490.936 471.834 502.137C472.229 513.109 472.229 513.109 472.873 504.007C473.621 494.843 473.621 494.843 481.247 494.843C488.957 494.843 488.957 494.843 488.957 506.438C488.957 512.86 489.352 518.055 489.85 518.055C490.411 518.055 490.827 511.966 490.827 504.506ZM501.778 504.984C501.134 497.835 500.552 484.682 500.552 475.933C500.552 463.818 499.908 459.932 497.955 459.932C495.939 459.932 495.046 466.27 494.152 487.445C493.508 502.552 493.425 515.624 493.986 516.434C494.485 517.328 496.75 518.055 499.015 518.055C502.838 518.055 503.004 517.327 501.778 504.984ZM523.785 488.983C523.785 465.688 523.286 459.932 521.104 459.932C517.281 459.932 516.075 468.784 516.075 495.072C516.075 516.746 516.304 518.055 519.878 518.055C523.619 518.055 523.785 516.746 523.785 488.983ZM546.186 462.446C545.604 461.075 543.9 459.932 542.279 459.932C539.682 459.932 539.287 464.068 539.287 487.944C539.287 512.943 539.599 515.935 542.695 516.517C545.77 517.078 546.103 514.73 546.581 491.102C546.913 476.743 546.747 463.818 546.186 462.446ZM490.827 474.624C490.827 457.75 490.017 456.108 481.164 456.108C472.395 456.108 471.501 457.75 471.501 474.624C471.501 487.05 471.501 487.051 481.164 487.051C490.827 487.051 490.827 487.05 490.827 474.624ZM411.426 463.673C411.426 462.696 401.368 461.886 389.024 461.886C374.831 461.886 367.122 462.613 367.849 463.818C369.304 466.187 411.426 466.021 411.426 463.673ZM594.479 463.901C595.29 462.613 587.331 462.052 571.829 462.28C547.973 462.696 547.973 462.696 566.384 463.901C576.546 464.566 586.687 465.21 589.035 465.46C591.404 465.688 593.835 464.961 594.479 463.901ZM410.47 454.176C412.568 447.506 409.888 446.467 390.978 446.467C372.712 446.467 372.712 446.466 372.712 452.222C372.712 458.062 372.712 458.062 390.978 458.062C407.54 458.062 409.41 457.75 410.47 454.176ZM422.564 456.774C420.694 456.275 417.68 456.275 415.81 456.774C413.961 457.168 415.499 457.584 419.218 457.584C422.959 457.584 424.413 457.168 422.564 456.774ZM445.859 456.774C443.988 456.275 440.892 456.275 439.043 456.774C437.172 457.168 438.71 457.584 442.451 457.584C446.17 457.584 447.729 457.168 445.859 456.774ZM467.117 456.774C465.247 456.275 462.254 456.275 460.384 456.774C458.514 457.168 459.968 457.584 463.709 457.584C467.449 457.584 468.987 457.168 467.117 456.774ZM500.074 456.774C498.204 456.275 495.129 456.275 493.258 456.774C491.388 457.168 492.926 457.584 496.666 457.584C500.407 457.584 501.945 457.168 500.074 456.774ZM546.498 456.774C544.648 456.275 541.635 456.275 539.765 456.774C537.895 457.168 539.453 457.584 543.173 457.584C546.913 457.584 548.368 457.168 546.498 456.774ZM589.617 452.056C589.617 446.051 589.617 446.051 571.434 446.778C551.547 447.505 549.906 448.088 551.776 454.093C553.002 457.75 554.54 458.062 571.351 458.062C589.617 458.062 589.617 458.062 589.617 452.056ZM546.996 449.459C546.996 447.027 537.333 446.612 480.188 446.612C422.792 446.612 413.379 446.944 413.379 449.375C413.379 451.89 422.792 452.222 480.188 452.222C537.333 452.222 546.996 451.807 546.996 449.459ZM552.441 442.31C552.025 441.188 535.796 433.707 516.304 425.915L480.832 411.639L447.313 425.187C428.881 432.585 412.901 438.674 411.675 438.674C410.47 438.674 409.493 440.045 409.493 441.583C409.493 444.097 418.823 444.513 481.331 444.513C533.51 444.513 553.002 443.931 552.441 442.31ZM418.325 440.772C417.68 439.796 419.156 438.425 421.587 437.697C424.018 436.97 438.295 431.525 453.319 425.686L480.749 415.047L509.488 426.164C525.323 432.252 539.37 437.697 540.742 438.175C542.051 438.674 543.173 439.796 543.173 440.689C543.173 442.892 419.717 442.975 418.325 440.772ZM529.125 437.614C528.564 437.032 517.447 432.419 504.459 427.307L480.832 418.122L457.454 427.452C444.549 432.585 433.598 437.199 433.099 437.697C432.538 438.258 454.212 438.674 481.164 438.674C508.199 438.674 529.79 438.258 529.125 437.614ZM449.745 420.408C450.326 419.826 442.845 419.348 433.099 419.348C415.332 419.348 415.332 419.348 415.332 426.974V434.518L431.977 428.035C441.225 424.377 449.183 420.969 449.745 420.408ZM545.126 426.081C545.126 419.348 545.126 419.348 528.315 419.348C519.068 419.348 511.919 419.743 512.501 420.325C514.039 421.863 540.014 432.585 542.695 432.731C544.15 432.814 545.043 430.299 545.043 426.081H545.126ZM419.634 409.768C418.408 401.809 417.286 402.308 417.286 410.745C417.286 414.548 418.013 417.145 418.907 416.667C419.8 416.106 420.112 413.01 419.634 409.768ZM468.177 413.654C468.987 412.844 469.07 398.962 468.343 382.733C467.034 353.266 467.034 353.267 461.028 353.848C455.023 354.493 455.023 354.492 454.462 386.058C453.963 417.727 453.963 417.727 460.301 416.418C463.792 415.607 467.283 414.402 468.177 413.654ZM457.953 374.857C457.953 363.49 460.633 358.212 463.958 363.407C464.852 364.883 465.662 370.639 465.662 376.25C465.662 385.081 465.163 386.39 461.755 386.39C458.347 386.39 457.953 385.081 457.953 374.857ZM506.724 391.752C507.618 354.576 507.389 353.516 499.347 353.516C492.76 353.516 492.76 353.516 492.76 383.294C492.76 413.176 492.76 413.177 498.121 415.13C501.051 416.19 504.043 417.145 504.792 417.228C505.519 417.395 506.412 405.862 506.724 391.752ZM496.666 375.023C496.666 364.301 498.931 358.96 502.111 362.119C502.755 362.846 503.399 368.374 503.399 374.38C503.399 383.294 502.838 385.497 500.074 385.975C497.144 386.64 496.666 385.081 496.666 375.023ZM545.126 410.246C545.126 405.217 544.482 403.68 543.007 405.134C541.24 406.921 542.362 417.394 544.316 417.394C544.711 417.394 545.126 414.153 545.126 410.246ZM475.408 403.347C475.47 398.817 476.78 393.372 478.401 391.253C481.331 387.45 481.414 387.45 483.513 391.087C484.739 393.206 485.798 398.401 485.861 402.537C485.944 406.755 487.004 410.579 488.23 410.994C489.767 411.556 490.328 403.347 490.328 382.567V353.432H471.501V382.484C471.501 400.604 472.229 411.556 473.455 411.556C474.515 411.556 475.408 407.815 475.408 403.347ZM477.673 372.343C478.068 363.179 478.962 360.248 481.164 360.248C483.346 360.248 484.24 363.179 484.655 372.343C485.216 383.543 484.967 384.437 481.164 384.437C477.424 384.437 477.174 383.543 477.673 372.343ZM480.603 371.366C480.104 369.496 479.71 371.054 479.71 374.774C479.71 378.515 480.104 380.052 480.603 378.182C481.081 376.333 481.081 373.236 480.603 371.366ZM483.118 402.953C483.118 400.355 482.224 397.757 481.164 397.03C480.021 396.365 479.211 398.318 479.211 401.809C479.211 405.051 480.104 407.732 481.164 407.732C482.224 407.732 483.118 405.633 483.118 402.953ZM467.2 331.426C467.761 312.35 467.761 312.35 463.314 313.493C460.862 314.137 457.953 314.719 456.727 314.719C455.189 314.719 454.628 320.641 454.773 333.213C455.023 351.729 455.023 351.729 460.862 351.168C466.639 350.586 466.639 350.586 467.2 331.426ZM458.347 334.606C458.846 322.824 459.49 319.581 461.839 319.581C464.124 319.581 464.852 322.824 465.247 334.606C465.828 348.716 465.579 349.609 461.839 349.609C458.036 349.609 457.786 348.716 458.347 334.606ZM505.914 332.652C505.436 313.742 505.436 313.742 499.098 313.16C492.76 312.599 492.76 312.599 492.76 330.948C492.76 350.108 493.175 351.084 502.028 351.396C506.412 351.479 506.496 351.251 505.914 332.652ZM497.082 334.606C497.56 322.824 498.287 319.581 500.552 319.581C502.838 319.581 503.565 322.824 503.981 334.606C504.542 348.716 504.293 349.609 500.552 349.609C496.75 349.609 496.5 348.716 497.082 334.606ZM490.495 331.198L489.934 312.849H480.666L471.501 312.765V349.609H491.139L490.495 331.198ZM475.408 333.379C475.408 321.93 475.969 318.771 478.484 317.794C484.489 315.529 487.004 320.392 487.004 334.356C487.004 347.676 487.004 347.677 481.164 347.677C475.408 347.677 475.408 347.676 475.408 333.379ZM470.047 309.607C468.738 309.025 466.14 309.025 464.27 309.524C462.42 310.002 463.459 310.501 466.639 310.501C469.881 310.563 471.418 310.168 470.047 309.607ZM501.051 309.607C499.68 309.025 497.477 309.025 496.188 309.607C494.879 310.085 495.939 310.563 498.62 310.563C501.3 310.563 502.339 310.168 501.051 309.607ZM465.662 297.347C469.881 297.347 471.418 298.407 472.063 301.648C472.811 305.306 472.956 305.139 473.122 300.588C473.372 295.559 473.933 295.144 480.666 295.726C486.526 296.204 488.063 297.18 488.541 300.671C489.352 306.032 492.76 306.51 492.76 301.315C492.76 298.967 494.401 297.346 497.144 296.848C499.596 296.453 495.856 295.643 488.957 294.915C481.975 294.167 472.395 294.25 467.615 294.978C460.051 296.12 458.846 296.931 458.68 301.149C458.514 305.368 458.597 305.451 459.324 301.648C459.885 298.323 461.444 297.264 465.662 297.264V297.347ZM503.815 299.778C503.316 297.907 502.921 298.967 502.838 302.126C502.838 305.368 503.233 306.926 503.732 305.617C504.293 304.245 504.376 301.648 503.815 299.778ZM483.596 274.779C482.307 274.198 479.71 274.135 477.839 274.696C475.969 275.174 477.029 275.59 480.188 275.673C483.429 275.673 484.967 275.257 483.596 274.779ZM193.482 604.085C194.791 597.041 194.791 597.041 188.848 601.26C185.606 603.608 182.925 604.584 182.925 603.524C182.925 602.381 185.294 599.95 188.203 598.018C193.398 594.589 193.398 594.589 185.772 593.467L178.062 592.24L185.689 591.929C193.315 591.68 193.315 591.68 189.097 587.69C183.258 582.349 183.736 580.791 189.907 584.864C195.019 588.189 195.019 588.189 194.126 582.183C193.004 574.224 195.601 574.474 197.222 582.432C198.51 588.667 198.51 588.666 203.394 582.91C208.256 577.154 208.256 577.154 205.098 583.637C201.918 590.225 201.918 590.225 209.399 589.082C216.776 587.939 216.776 587.939 210.043 590.952C203.311 593.945 203.311 593.945 209.067 597.041C212.225 598.662 213.867 600.366 212.558 600.76C211.27 601.259 208.423 600.615 206.22 599.472C201.69 597.041 200.962 599.139 204.287 605.311C205.409 607.431 205.493 609.052 204.599 609.052C203.622 609.052 201.773 606.683 200.381 603.774C197.866 598.413 197.866 598.413 196.162 604.751C193.814 613.271 191.861 612.709 193.482 604.023V604.085ZM763.652 605.311C761.449 598.89 761.449 598.89 758.54 604.501C756.898 607.576 755.194 609.052 754.799 607.826C754.384 606.537 755.049 603.525 756.337 601.176C758.374 597.353 758.208 597.124 754.966 598.412C746.924 601.737 744.077 601.343 750.332 597.852L757.148 594.028L750.332 591.036C743.599 587.939 743.599 587.939 751.142 589.165C758.769 590.288 758.769 590.287 755.527 585.757C750.581 578.609 751.787 576.489 757.148 582.994C761.283 588.023 761.865 588.272 761.948 584.947C762.031 582.827 762.987 579.752 764.13 578.11C765.668 575.928 766 576.739 765.439 581.539C764.546 588.355 766 589.477 769.741 584.947C771.112 583.305 773.066 582.016 774.188 582.016C775.331 582.016 774.271 584.136 771.84 586.734C767.372 591.43 767.372 591.43 773.959 592.24L780.443 593.051L773.793 593.3C767.143 593.633 767.143 593.633 771.673 598.495C776.868 604.023 775.663 604.75 768.847 600.199C764.13 597.186 764.13 597.186 765.917 603.524C768.348 611.961 766.561 613.436 763.652 605.311ZM109.384 513.837C109.3 513.109 110.194 510.262 111.171 507.581C113.29 502.054 111.586 501.243 105.165 504.651C102.983 505.794 100.78 506.272 100.136 505.711C99.5752 505.15 101.425 503.612 104.188 502.386C110.693 499.373 110.61 497.586 103.96 494.989C98.6816 492.89 98.6817 492.89 104.916 493.534C111.669 494.178 112.48 492.973 109.217 486.968C108.178 484.931 108.012 483.227 108.906 483.227C109.882 483.227 111.753 485.575 113.041 488.588C115.472 493.866 115.472 493.866 118.236 488.588C121.976 481.523 123.036 481.772 120.917 489.232C119.462 494.116 119.691 494.989 121.976 494.033C130.413 490.625 131.702 490.541 127.816 493.7C125.779 495.404 123.099 496.776 122.06 496.859C120.917 496.859 123.036 498.646 126.756 500.766C133.489 504.652 133.489 504.652 127.255 503.446C120.356 502.137 119.857 502.781 123.036 508.641C126.59 515.291 123.597 514.73 119.296 507.976C116.948 504.423 115.16 502.947 115.16 504.651C115.16 507.581 109.467 516.517 109.384 513.837ZM838.648 508.725C839.874 502.22 839.874 502.22 833.37 503.446L826.887 504.651L833.287 501.077C839.708 497.524 839.708 497.524 834.513 495.155C827.926 492.162 829.401 490.209 836.3 492.806C842.056 494.988 842.139 494.988 839.542 488.173C838.482 485.43 838.316 483.227 839.126 483.227C840.02 483.227 841.578 485.575 842.7 488.588C844.654 493.866 844.654 493.866 847.251 488.588C850.493 481.855 853.589 481.523 851.075 488.173C848.477 494.988 848.394 494.843 855.459 493.867C861.777 492.973 861.777 492.973 856.415 495.238C851.47 497.357 849.205 500.682 852.696 500.682C853.589 500.682 855.937 502.054 858.057 503.675C861.943 506.937 860.655 506.771 851.802 503.28C849.038 502.137 848.706 502.865 849.766 508.558C850.992 514.73 850.826 514.958 848.145 511.467C846.607 509.369 845.298 506.272 845.215 504.651C845.152 503.03 843.428 504.651 841.329 508.392C837.422 515.208 837.422 515.208 838.648 508.725ZM80.4158 392.479C80.2496 385.891 80.2496 385.892 75.2207 389.237C68.4048 393.684 67.1788 391.669 73.683 386.64C78.8781 382.484 78.878 382.484 72.7063 382.484C69.0489 382.484 66.9294 381.673 67.6567 380.551C68.3217 379.492 70.7529 378.597 72.9349 378.597C77.0078 378.597 77.0079 378.598 72.5401 373.797C70.0257 371.138 68.8827 368.935 70.0256 368.935C71.0854 368.935 73.1011 370.244 74.4103 371.865C78.2131 376.395 80.2496 375.273 80.4158 368.457L80.6444 362.202L82.6809 368.602C84.7174 375.023 84.7173 375.023 89.3306 369.579C93.9646 364.155 93.9646 364.155 90.806 370.556C87.7097 377.06 87.7097 377.06 93.6321 375.751C101.03 374.13 101.425 376.083 94.297 378.993C88.9357 381.112 88.9357 381.112 94.297 383.149C97.2063 384.271 99.5752 385.892 99.5752 386.723C99.5752 387.533 97.3725 387.367 94.6087 386.39C87.6265 383.709 87.5434 383.793 90.889 390.276C94.6087 397.508 91.9281 398.007 87.6266 390.775C84.3848 385.58 84.3848 385.58 82.5146 392.229L80.582 398.962L80.4158 392.479ZM877.611 392.229C876.157 385.414 876.157 385.414 872.832 390.775C868.447 397.924 865.767 397.591 869.486 390.276C872.416 384.52 872.416 384.52 866.161 385.413C859.844 386.307 859.844 386.307 865.102 384.042C868.032 382.733 870.463 381.195 870.463 380.551C870.463 379.886 868.032 378.349 865.102 377.143C859.844 374.857 859.844 374.857 866.161 375.751C872.416 376.644 872.416 376.644 869.403 370.389C866.411 364.155 866.411 364.156 871.128 369.351C876.323 375.024 878.172 374.546 878.172 367.647C878.172 365.195 878.921 363.179 879.793 363.179C880.687 363.179 881.019 365.776 880.541 368.935C879.648 375.19 882.079 376.561 885.965 371.865C887.274 370.244 889.311 368.935 890.433 368.935C891.576 368.935 889.955 371.532 886.942 374.774C881.352 380.551 881.352 380.551 888.002 380.863L894.651 381.029L887.918 382.255C881.269 383.461 881.269 383.46 886.713 387.034C889.622 388.988 891.659 391.024 891.16 391.502C890.599 392.063 888.002 391.025 885.321 389.321C880.458 386.141 880.375 386.141 879.793 392.562C879.149 398.963 879.149 398.962 877.611 392.146V392.229ZM109.3 273.47C111.981 265.927 111.981 265.927 104.916 267.07C98.6817 268.13 98.6816 268.129 103.96 265.843C106.869 264.638 109.3 263.163 109.3 262.518C109.3 261.957 106.869 259.838 103.96 257.885C98.6816 254.393 101.674 254.248 109.716 257.573C112.646 258.778 112.792 258.134 111.337 252.939C110.36 249.614 110.277 246.933 111.171 246.933C112.064 246.933 113.373 249.365 114.101 252.295C115.472 257.573 115.472 257.573 120.356 251.796C124.969 246.289 125.218 246.85 121.81 255.37C120.501 258.612 121.083 258.861 126.922 257.885L133.489 256.68L126.756 259.755C120.023 262.851 120.023 262.851 125.468 265.677C128.543 267.298 130.496 269.002 129.998 269.584C129.437 270.062 127.172 269.501 124.803 268.275C119.379 265.365 118.485 266.488 120.917 273.325C122.787 278.52 122.704 278.665 120.023 275.174C118.402 273.075 117.093 270.477 117.01 269.334C117.01 268.191 114.911 269.896 112.23 273.158C107.368 278.915 107.368 278.914 109.3 273.47ZM839.542 272.825C841.973 266.487 840.996 265.365 835.635 268.275C833.287 269.501 830.939 270.062 830.378 269.501C829.713 268.856 831.583 267.382 834.347 266.093C839.791 263.662 839.459 260.482 833.703 260.482C831.666 260.482 829.401 259.506 828.674 258.384C827.78 256.908 829.235 256.68 833.453 257.573C839.957 259.028 840.996 257.241 837.422 250.674C834.097 244.502 837.36 246.518 841.412 253.272C843.511 256.763 845.298 258.217 845.298 256.513C845.298 254.892 846.607 251.796 848.145 249.781C850.826 246.289 850.909 246.455 849.766 252.606C848.623 258.55 848.955 259.111 852.28 257.739C860.405 254.477 861.694 254.477 857.974 257.49C855.937 259.111 853.506 260.482 852.696 260.482C849.122 260.482 851.47 263.807 856.415 265.926C861.777 268.129 861.777 268.13 855.459 267.07C848.394 265.927 848.394 265.927 851.158 273.47C853.174 278.914 853.174 278.915 848.56 273.241C843.926 267.548 843.926 267.547 842.617 272.742C841.89 275.589 840.518 277.938 839.459 277.938C838.316 277.938 838.399 275.984 839.625 272.825H839.542ZM762.841 179.958C761.532 172.976 761.532 172.976 756.982 178.503C751.87 184.758 750.664 182.41 755.444 175.574C758.54 171.189 758.54 171.189 751.059 172.249C744.16 173.308 743.994 173.225 748.96 171.272C751.87 170.15 754.239 168.591 754.239 167.864C754.239 167.137 751.87 164.955 748.96 163.001C743.516 159.427 746.591 159.344 754.966 162.752C758.124 164.061 758.291 163.729 756.42 160.237C755.194 157.972 754.301 155.043 754.301 153.671C754.384 152.196 755.693 153.505 757.314 156.435C760.473 162.191 763.964 161.941 763.964 155.936C763.964 153.899 764.857 151.718 766 150.991C767.372 150.18 767.621 152.051 766.728 156.996C765.356 164.29 765.356 164.29 769.886 161.048C777.035 156.102 779.154 157.308 772.65 162.669C766.811 167.386 766.811 167.386 773.627 167.698C780.359 168.113 780.359 168.114 773.876 169.257C767.372 170.462 767.372 170.461 771.445 174.119C776.307 178.587 777.035 182.972 772.172 178.836C765.107 172.748 764.047 172.976 765.273 180.124C766.728 189.06 764.462 188.977 762.758 179.875L762.841 179.958ZM194.126 178.67C195.019 172.581 194.936 172.498 191.217 175.74C185.44 180.935 183.59 179.813 188.702 174.369C193.232 169.485 193.232 169.485 185.689 169.257L178.062 168.924L185.772 167.698C193.398 166.576 193.398 166.575 187.975 163.001C185.045 161.048 183.008 159.032 183.507 158.534C184.068 157.972 186.749 158.949 189.429 160.737C194.292 163.978 194.292 163.978 193.482 156.497C192.671 149.12 192.671 149.12 194.874 155.458C197.471 163.085 199.009 163.334 202.001 156.58C203.311 153.837 204.848 152.05 205.409 152.611C205.991 153.172 205.409 155.541 204.204 157.806C201.357 163.084 202.729 164.622 207.778 161.858C212.475 159.344 213.867 159.261 213.867 161.381C213.867 162.274 211.498 164.144 208.589 165.433C203.228 167.864 203.228 167.864 209.067 170.628C214.823 173.391 214.823 173.391 208.506 172.415C202.168 171.521 202.168 171.521 205.181 177.278C208.9 184.509 206.22 184.841 201.835 177.693C198.51 172.332 198.51 172.332 197.222 178.67C196.578 182.078 195.352 184.925 194.625 184.925C193.814 184.925 193.648 182.078 194.126 178.67ZM694.246 160.882C690.505 158.783 689.529 156.913 689.944 152.528C690.505 147.665 689.529 146.523 682.629 143.364C674.754 139.79 674.588 139.79 670.535 143.842C666.795 147.665 666.068 147.749 660.956 145.151C657.963 143.593 655.532 141.66 655.532 140.912C655.532 140.102 664.779 130.854 675.98 120.298C696.428 101.138 696.428 101.139 703.098 104.318C707.878 106.583 709.665 108.702 709.582 111.861C709.104 124.121 702.683 162.503 700.979 163.001C699.919 163.251 696.926 162.357 694.246 160.882ZM694.246 129.961C694.246 127.363 694.724 123.623 695.451 121.69C696.261 119.405 694.412 120.381 690.11 124.516C684.666 129.794 684.022 131.186 686.453 132.724C691.399 135.883 694.246 134.823 694.246 129.961ZM254.68 139.125C241.463 111.383 241.214 110.407 248.591 107.892C254.534 105.773 254.534 105.773 262.244 122.418C266.545 131.582 270.036 139.707 270.036 140.601C270.036 144.486 274.566 144.091 283.751 139.374C294.869 133.784 294.474 133.784 296.178 140.434C297.217 144.902 296.178 145.878 282.691 152.528C274.65 156.497 267.272 159.843 266.296 159.843C265.319 159.843 260.124 150.492 254.68 139.125ZM304.864 127.363C300.708 116.578 291.378 89.8546 291.378 88.961C291.378 88.7324 294.058 87.5894 297.217 86.4465C304.033 84.0983 302.744 82.0619 314.506 113.316C321.405 131.748 321.821 133.867 318.974 136.049C312.573 140.995 309.228 138.896 304.864 127.363ZM637.578 135.883C634.669 134.761 632.216 132.974 632.216 131.831C632.216 129.96 649.36 84.0155 650.482 82.8102C651.147 82.2284 663.241 86.3635 663.241 87.174C663.241 88.8156 645.142 135.8 644.082 136.693C643.417 137.358 640.508 136.943 637.578 135.883ZM346.425 115.602C344.638 109.513 342.102 100.66 340.814 95.8601C338.466 87.257 338.383 87.1737 330.673 87.6724C323.92 88.0673 322.631 87.5894 321.655 83.849C320.117 77.9266 320.761 77.5318 342.435 71.6718C358.103 67.4533 361.927 66.9754 363.215 69.0742C366.789 74.6849 365.085 78.2591 358.103 79.5475C352.576 80.6072 351.537 81.5011 352.43 84.5143C356.067 95.8604 362.82 121.919 362.238 122.501C361.927 122.812 358.914 123.872 355.672 124.849C349.667 126.552 349.666 126.553 346.425 115.602ZM606.657 125.576C604.392 124.932 601.462 118.927 597.555 106.916C591.466 87.8391 590.427 87.7557 586.853 105.606C584.172 118.926 583.923 119.238 578.333 117.866C575.486 117.222 572.639 116.412 571.995 115.996C571.351 115.684 573.699 103.819 577.273 89.6263C580.847 75.4956 583.757 63.7334 583.757 63.4009C583.923 62.3411 594.563 65.521 596.433 67.1419C597.493 68.1186 600.568 76.0563 603.332 84.8256L608.361 100.744L612.662 86.6958C616.881 72.6483 617.857 71.6715 625.733 73.7911C629.951 74.934 629.951 74.9346 623.385 99.9333C619.727 113.648 616.714 125.327 616.714 125.909C616.714 127.031 611.519 126.885 606.657 125.576ZM388.131 111.861C388.131 109.991 386.51 98.2289 384.64 85.7192C382.707 73.147 381.564 62.5079 382.125 61.9468C382.624 61.4481 385.866 61.0533 389.274 61.0533C395.279 61.0533 395.529 61.3646 396.734 70.9443C398.126 80.7734 398.126 80.7736 407.207 79.4644C412.174 78.7371 416.475 77.9266 416.704 77.6773C416.953 77.4487 416.475 72.8146 415.582 67.3702C414.023 57.4787 414.023 57.4791 419.966 56.5856C423.291 56.0868 426.533 56.0032 427.177 56.3357C428.486 57.1461 435.468 107.393 434.409 108.37C434.076 108.702 431.001 109.596 427.593 110.324C421.421 111.612 421.421 111.611 420.029 100.66C418.74 89.7089 418.74 89.7089 409.722 90.9973C404.859 91.7246 400.557 92.6187 400.142 92.9512C399.83 93.2629 400.391 97.8969 401.368 103.341C403.321 113.981 402.345 115.269 392.931 115.269C389.752 115.269 388.214 114.126 388.131 111.861ZM548.451 112.028C546.581 111.529 545.126 109.907 545.126 108.453C545.126 103.819 539.204 99.7666 532.305 99.7666C527.027 99.7666 525.156 100.826 523.369 104.796C521.416 108.931 520.211 109.596 515.41 108.62C512.335 108.038 509.01 107.476 508.033 107.476C506.724 107.476 529.707 58.6844 532.471 55.692C532.616 55.3595 536.191 55.8582 540.347 56.6686C548.534 58.4557 546.996 54.549 556.576 97.3358C560.462 114.791 560.296 115.103 548.451 112.028ZM540.014 81.8336C538.31 70.9447 537.895 70.7782 534.32 79.3813C531.806 85.4699 531.723 87.0283 533.759 88.3998C539.599 92.0571 541.24 90.2704 540.014 81.8336ZM464.519 107.393C453.069 103.985 451.199 99.8498 450.472 75.329C449.828 53.2602 449.828 53.2606 456.81 53.2606C463.709 53.2606 463.709 53.2603 463.709 70.8613C463.709 91.413 465.496 95.8601 473.455 95.8601C481.414 95.8601 483.118 91.413 483.118 70.8613C483.118 53.2603 483.118 53.2606 489.934 53.2606C496.666 53.2606 496.666 53.2604 496.666 72.4822C496.666 83.1218 495.856 93.9278 494.796 96.6085C491.305 105.856 476.697 111.05 464.519 107.393ZM492.76 64.8557C492.76 63.7959 491.949 62.9856 490.827 62.9856C489.767 62.9856 488.957 63.7959 488.957 64.8557C488.957 65.9986 489.767 66.809 490.827 66.809C491.949 66.809 492.76 65.9986 492.76 64.8557ZM593.503 744.685C593.503 743.625 592.609 742.732 591.549 742.732C590.51 742.732 589.617 743.625 589.617 744.685C589.617 745.745 590.51 746.639 591.549 746.639C592.609 746.639 593.503 745.745 593.503 744.685ZM702.932 707.925C702.288 706.865 700.895 705.972 699.919 705.972C698.942 705.972 698.049 706.865 698.049 707.925C698.049 708.964 699.441 709.857 701.145 709.857C702.766 709.857 703.576 708.964 702.932 707.925ZM853.901 609.052C853.34 608.159 851.636 607.826 850.098 608.408C848.56 609.052 847.75 610.257 848.228 611.151C848.872 612.044 850.576 612.294 852.114 611.733C853.672 611.151 854.483 609.946 853.901 609.052ZM67.5943 560.821C68.2384 559.865 67.906 558.556 66.9293 557.995C65.9527 557.33 64.6642 558.223 64.1032 559.782C62.8771 562.941 65.8071 563.834 67.5943 560.821ZM616.714 18.4323C616.714 17.3724 615.426 16.479 613.722 16.479C612.101 16.479 611.291 17.3724 611.935 18.4323C612.579 19.492 613.971 20.3861 614.927 20.3861C615.904 20.3861 616.714 19.492 616.714 18.4323Z" fill="#383B40"/>
</svg>
