<svg width="961" height="731" viewBox="0 0 961 731" fill="none" xmlns="http://www.w3.org/2000/svg">
<path fill-rule="evenodd" clip-rule="evenodd" d="M450.412 729.711C412.201 727.325 364.404 719.293 331.073 709.62C253.863 687.231 178.053 643.374 153.432 606.87C147.873 598.663 143.76 595.511 129.819 588.749C66.221 557.978 20.1531 499.415 4.92113 429.996C0.237746 408.461 -1.64459 342.982 1.68193 318.098C12.2743 240.385 57.1601 177.728 128.899 140.698C143.256 133.279 148.815 129.077 154.111 121.724C187.026 75.897 280.453 27.7721 372.02 9.38873C411.084 1.61957 429.03 0.0872192 481.357 -0.000305176C534.779 -0.000305176 551.805 1.70624 596.844 11.5326C689.265 31.7105 783.721 82.7471 809.282 126.167C811.93 130.785 816.548 134.199 824.251 137.284C841.168 144.134 875.725 168.055 891.526 183.79C939.41 231.412 957.947 277.568 960.266 354.515C961.623 398.876 959.588 417.434 950.178 449.583C932.91 508.126 887.587 560.89 830.401 588.837C817.073 595.424 812.871 598.663 805.014 609.19C786.981 633.198 754.657 656.462 709.268 678.172C643.438 709.621 585.398 724.589 512.39 729.032C480.329 731.002 472.297 731.089 450.412 729.711ZM546.334 705.09C616.431 696.467 684.647 672.7 741.154 637.224C766.212 621.489 780.569 608.927 790.045 594.133C797.399 582.775 799.718 580.98 817.577 572.073C878.023 541.981 917.175 495.475 933.501 434.525C938.469 415.901 938.885 411.197 939.06 368.105C939.235 318.098 937.441 304.244 926.827 275.006C908.202 223.292 865.373 178.231 812.368 154.552C801.075 149.518 797.748 146.782 791.686 137.459C772.362 107.871 723.974 76.334 659.764 51.5383C540.25 5.55804 392.964 9.38788 276.098 61.6273C215.739 88.6334 176.499 117.369 164.703 143.434C163.084 147.023 159.057 149.934 152.141 152.429C138.551 157.288 110.254 174.73 93.4022 188.671C63.2446 213.62 37.7484 254.412 27.2436 294.834C22.6259 312.539 21.6848 321.161 20.8313 355.192C19.3869 411.437 24.6832 440.85 42.5413 476.413C62.9819 517.185 104.87 556.273 148.377 575.247C159.67 580.193 162.58 582.599 167.876 591.309C189.499 627.485 265.33 670.051 348.515 692.702C407.495 708.766 479.738 713.297 546.334 705.09ZM442.117 694.673C374.077 688.851 316.191 672.875 258.327 643.899C214.469 621.839 186.676 599.954 176.587 579.338C172.91 571.897 170.35 569.95 155.38 563.188C102.463 539.333 61.6908 496.679 45.102 447.788C26.2152 392.288 30.1542 307.068 53.8338 259.797C72.9831 221.673 110.341 186.876 154.527 166.173C169.146 159.257 171.641 157.199 178.731 146.257C193.942 122.752 214.973 107.017 264.214 82.4837C397.997 15.7126 565.811 16.2391 698.413 83.6886C747.654 108.725 772.625 128.223 783.808 150.021C787.244 156.783 790.483 159.256 803.657 165.231C868.787 194.907 909.997 245.439 922.821 311.422C930.175 349.393 926.826 414.698 915.818 446.76C898.463 496.942 856.488 540.8 803.482 563.866C790.22 569.6 788.01 571.482 783.479 580.105C766.125 613.02 690.797 656.878 616.431 677.318C560.603 692.704 495.386 699.203 442.117 694.673ZM559.662 681.848C612.842 672.788 663.025 656.374 700.973 635.692C745.859 611.137 766.891 594.221 779.628 572.073C783.895 564.632 786.981 561.984 795.101 558.92C811.164 552.836 834.165 539.245 849.222 526.946C894.786 489.764 915.884 445.731 918.882 381.608C923.587 281.506 888.2 216.267 807.4 176.173C784.246 164.728 782.539 163.437 776.717 153.283C763.718 130.457 735.77 109.84 684.997 85.3943C621.815 55.1274 533.925 37.4449 462.711 40.859C381.255 44.7983 315.338 62.4808 250.711 98.0439C210.093 120.367 192.913 134.812 182.233 155.843C178.294 163.437 175.558 166.02 168.051 168.843C115.549 188.911 71.9547 231.828 53.5713 281.507C43.8325 307.922 41.9501 321.512 42.1252 366.048C42.2784 402.377 42.8911 410.934 46.8304 426.91C61.0994 484.708 102.309 531.893 160.611 557.126C174.705 563.276 176.675 564.808 182.824 575.247C186.588 581.572 194.204 591.222 199.763 596.869C209.677 606.783 242.067 627.552 266.775 639.873C312.952 662.874 376.55 680.645 433.911 686.554C456.649 688.852 535.72 685.94 559.662 681.848ZM439.885 679.528C376.813 674.232 314.396 656.461 261.829 628.754C217.533 605.425 197.027 588.838 187.704 568.747C183.174 559.096 181.796 557.979 169.059 552.924C112.902 530.864 69.985 485.145 55.5409 431.79C43.6573 388.195 46.2179 318.952 61.0121 281.507C79.1329 235.417 119.401 196.024 167.964 176.7C180.088 171.907 181.642 170.549 188.733 158.316C198.559 141.552 210.18 130.696 234.801 115.486C304.22 72.4822 377.841 51.277 465.293 48.9791C549.748 46.6592 622.318 61.8904 689.352 95.7464C738.418 120.455 760.216 137.196 771.158 158.228C777.746 170.877 778.249 171.315 792.627 176.786C809.282 183.111 839.133 201.998 855.109 216.354C878.526 237.386 899.142 273.037 906.583 305.186C912.47 330.922 911.879 405.966 905.554 428.967C890.322 483.855 849.047 529.42 794.334 551.48C779.19 557.542 778.008 558.483 772.449 569.097C753.716 604.988 674.142 648.671 592.664 667.82C545.896 678.85 485.975 683.467 439.885 679.528ZM557.605 670.381C656.525 652.347 749.361 606.104 769.189 565.07C773.894 555.331 775.185 554.215 790.745 547.628C818.277 535.919 834.844 524.976 854.847 505.236C895.378 465.208 909.471 423.167 906.67 350.75C905.204 315.011 901.024 296.038 888.878 270.126C870.582 231.237 835.369 199.853 787.922 180.113C776.454 175.407 774.069 173.438 769.276 164.641C757.152 142.493 748.858 134.986 712.769 113.692C579.336 34.7969 395.109 32.1263 258.743 107.279C214.032 131.9 203.264 140.962 191.556 163.875C186.085 174.555 184.969 175.496 172.669 179.851C130.168 194.995 90.9291 230.033 71.6046 270.126C57.073 300.393 54.6874 313.568 54.5123 363.991C54.3373 416.581 56.482 428.464 71.8671 459.913C90.7539 498.649 130.344 533.775 171.794 548.744C183.35 552.837 184.794 554.128 191.119 565.333C201.295 583.454 214.623 595.666 241.563 611.839C294.394 643.462 350.901 662.873 417.409 672.349C445.532 676.289 531.54 675.086 557.605 670.381ZM387.492 642.258C387.492 627.638 390.053 626.872 397.231 639.522L401.849 647.577V638.843C401.849 633.963 402.79 630.046 403.994 630.046C405.11 630.046 406.051 635.517 406.051 642.433C406.051 656.789 403.644 658.08 397.144 647.05L392.614 639.37L392.023 647.05C390.907 659.612 387.492 655.936 387.492 642.258ZM410.91 649.37C409.203 642.345 412.376 637.313 418.438 637.313C424.5 637.313 427.673 642.345 425.879 649.37C424.763 653.726 423.318 654.842 418.438 654.842C413.557 654.842 412.026 653.726 410.91 649.37ZM421.523 646.548C421.523 640.902 416.906 638.581 415.111 643.286C413.404 647.729 415.79 653.288 418.941 652.26C420.32 651.756 421.523 649.196 421.523 646.548ZM430.737 652.698C430.737 651.582 431.678 650.639 432.882 650.639C433.998 650.639 434.939 651.582 434.939 652.698C434.939 653.902 433.998 654.842 432.882 654.842C431.678 654.842 430.737 653.902 430.737 652.698ZM447.326 653.2C447.414 652.347 448.705 649.436 450.237 646.635C452.622 642.345 452.557 640.901 449.887 636.786C445.969 630.812 448.53 627.486 452.71 633.11C455.621 637.05 455.883 637.049 458.444 633.635C463.061 627.486 465.972 629.521 462.12 636.196C458.794 642.017 458.794 642.783 462.12 648.582C465.972 655.345 463.061 657.228 458.356 651.166C455.621 647.73 455.445 647.73 453.322 651.166C451.178 654.755 447.239 656.111 447.326 653.2ZM471.006 648.582C473.917 643.024 473.917 641.842 471.006 636.196C469.211 632.782 468.708 630.046 469.824 630.046C471.005 630.046 472.975 632.081 474.354 634.664C476.827 639.194 476.827 639.194 478.884 634.664C479.978 632.081 482.211 630.046 483.743 630.046C486.063 630.046 485.975 631.162 483.414 636.196C480.504 641.842 480.504 643.024 483.414 648.582C485.975 653.638 486.063 654.755 483.743 654.755C482.211 654.755 479.978 652.697 478.884 650.224C476.827 645.606 476.827 645.606 474.354 650.224C472.975 652.697 471.005 654.755 469.824 654.755C468.708 654.755 469.211 652.018 471.006 648.582ZM492.212 648.582C495.539 642.783 495.539 642.017 492.212 636.196C488.448 629.521 491.359 627.486 495.889 633.635C498.449 637.049 498.799 637.05 501.623 633.11C505.978 627.311 508.035 630.55 504.446 637.488C501.71 642.609 501.798 643.813 504.533 648.08C508.451 654.055 505.803 657.314 501.623 651.668C498.799 647.816 498.449 647.73 495.889 651.231C491.359 657.403 488.448 655.345 492.212 648.582ZM511.187 653.726C511.187 653.048 512.74 650.312 514.535 647.488C517.599 642.783 517.599 642.017 514.36 637.05C509.829 630.221 512.39 627.486 517.27 633.964C521.013 638.932 521.013 638.932 522.479 634.489C523.245 632.082 525.215 630.046 526.922 630.046C529.482 630.046 529.395 631.075 526.331 636.284C522.829 642.259 522.829 642.959 526.068 648.671C528.716 653.288 528.891 654.842 526.834 654.842C525.39 654.842 523.245 652.697 522.129 650.224C520.094 645.606 520.094 645.606 517.599 650.224C515.476 654.317 511.187 656.637 511.187 653.726ZM535.129 648.255C538.302 642.171 538.302 641.317 535.041 635.846C532.13 630.9 532.043 630.046 534.691 630.046C536.42 630.046 538.367 632.016 539.155 634.489C540.6 638.932 540.6 638.932 544.364 633.964C549.244 627.486 551.805 630.134 547.275 637.05C543.926 642.105 543.926 642.695 547.275 647.729C551.805 654.666 549.244 657.316 544.364 650.816C540.6 645.848 540.6 645.848 539.155 650.312C538.367 652.785 536.42 654.755 534.779 654.755C532.218 654.755 532.305 653.814 535.129 648.255ZM556.51 648.255C560.427 641.755 560.428 641.667 556.335 635.846C552.921 631.075 552.746 630.046 555.307 630.046C557.014 630.046 559.399 631.666 560.515 633.635C562.397 637.049 562.747 636.962 565.57 633.11C569.663 627.639 571.808 630.221 568.722 636.961C566.753 641.229 566.753 643.637 568.722 647.817C571.808 654.579 570.014 656.877 565.812 651.581C562.988 647.817 562.66 647.817 560.603 651.166C559.399 653.201 557.101 654.842 555.482 654.842C553.162 654.842 553.337 653.464 556.51 648.255ZM245.152 567.302C245.152 558.307 244.386 555.922 241.563 555.156C239.594 554.631 242.592 554.127 248.238 554.039C256.357 553.952 257.54 554.39 253.95 555.834C249.945 557.454 249.267 559.249 249.267 568.069C249.267 573.781 248.326 578.485 247.21 578.485C246.093 578.485 245.152 573.452 245.152 567.302ZM261.654 566.098C261.654 559.161 262.595 553.689 263.711 553.689C264.893 553.689 265.746 559.248 265.746 566.098C265.746 572.926 264.805 578.485 263.711 578.485C262.595 578.485 261.654 572.926 261.654 566.098ZM270.452 566.602C271.064 553.011 275.244 550.363 279.009 561.306C282.335 570.979 283.364 571.045 286.449 561.984C290.629 549.247 294.656 551.217 294.656 566.098C294.656 579.339 290.63 583.716 290.367 570.716L290.301 562.925L287.719 570.037C284.392 579.185 281.219 580.104 278.571 572.839C276.448 567.127 276.448 567.127 276.273 572.773C276.185 576.275 274.982 578.398 273.1 578.398C270.714 578.398 270.123 575.837 270.539 566.514L270.452 566.602ZM300.806 566.098C300.806 553.69 300.806 553.689 309.604 554.039C317.22 554.389 317.482 554.478 311.661 555.244C303.038 556.273 301.834 564.041 310.216 564.041C313.193 564.041 314.988 564.895 314.222 566.098C313.543 567.214 311.158 568.155 308.925 568.155C306.277 568.155 304.986 569.601 304.986 572.511C304.986 576.1 305.927 576.691 310.216 575.837C313.04 575.334 315.841 575.662 316.454 576.691C317.132 577.632 313.806 578.485 309.188 578.485C300.806 578.485 300.806 578.485 300.806 566.098ZM319.452 576.45C319.452 575.247 320.306 574.305 321.487 574.305C322.604 574.305 323.545 575.247 323.545 576.45C323.545 577.545 322.604 578.485 321.487 578.485C320.306 578.485 319.452 577.545 319.452 576.45ZM342.19 576.866C342.19 576.012 343.46 573.101 345.013 570.278C347.399 566.01 347.399 564.566 344.663 560.452C340.812 554.565 343.285 551.042 347.399 556.688C350.31 560.627 350.398 560.627 353.286 556.688C357.401 551.042 359.786 554.566 355.956 560.54C352.958 565.07 353.045 566.01 356.635 571.985C359.786 577.128 359.961 578.398 357.663 578.398C356.022 578.398 353.724 576.778 352.52 574.809C350.485 571.395 350.222 571.395 348.165 574.809C346.02 578.398 342.015 579.777 342.19 576.866ZM362.697 577.304C362.697 576.691 364.163 574.042 365.957 571.306C368.846 566.864 368.846 565.749 365.87 560.037C364.075 556.513 363.55 553.689 364.666 553.689C365.783 553.689 367.818 555.746 369.197 558.307C371.582 562.837 371.582 562.837 373.639 558.307C374.843 555.746 377.053 553.689 378.607 553.689C380.905 553.689 380.73 554.981 377.841 559.949C374.317 565.923 374.318 566.601 377.578 572.335C380.227 576.953 380.402 578.398 378.345 578.398C376.9 578.398 374.755 576.362 373.639 573.867C371.582 569.249 371.582 569.249 369.109 573.867C366.964 577.894 362.697 580.193 362.697 577.304ZM628.818 576.866C628.818 575.925 630.197 573.189 631.992 570.716C634.815 566.602 634.815 565.573 631.904 559.949C630.109 556.513 629.584 553.689 630.701 553.689C631.904 553.689 633.874 555.746 635.231 558.307C637.726 562.837 637.726 562.837 639.761 558.307C640.877 555.746 643.109 553.689 644.729 553.689C647.114 553.689 647.027 554.478 644.379 558.22C640.374 564.041 640.374 568.309 644.291 573.365C647.289 577.37 647.377 577.369 650.528 573.277C653.702 569.25 653.702 564.808 650.528 557.301C649.587 555.244 649.85 553.689 651.141 553.689C652.323 553.689 653.964 555.66 654.73 558.155C656.087 562.597 656.087 562.596 659.851 557.628C664.732 551.216 667.555 554.04 663.112 560.802C659.851 565.661 659.851 566.427 663.112 571.22C667.204 577.544 664.819 581.221 660.464 575.334C657.641 571.394 657.291 571.395 654.73 574.809C650.878 580.039 642.256 579.426 639.761 573.867C637.726 569.249 637.726 569.249 635.231 573.867C632.845 578.244 628.818 580.105 628.818 576.866ZM670.028 576.45C670.028 575.247 670.969 574.305 672.085 574.305C673.289 574.305 674.142 575.247 674.142 576.45C674.142 577.545 673.289 578.485 672.085 578.485C670.969 578.485 670.028 577.545 670.028 576.45ZM679.526 573.277C682.765 568.396 682.677 566.36 679.438 556.775C678.147 553.098 678.41 553.186 682.174 557.453C686.266 562.159 686.354 562.159 688.586 557.891C689.768 555.572 691.738 553.689 692.854 553.689C693.97 553.689 693.357 556.688 691.497 560.277C688.411 566.361 688.411 567.214 691.563 572.598C693.445 575.837 694.057 578.485 692.941 578.485C691.738 578.485 689.702 576.362 688.324 573.867C685.938 569.249 685.938 569.249 683.881 573.867C682.677 576.449 680.555 578.485 679.001 578.485C676.703 578.485 676.878 577.369 679.526 573.277ZM699.945 572.248C702.855 566.689 702.855 565.507 699.945 559.949C696.356 552.836 699.179 551.48 703.796 557.98C706.795 562.335 706.795 562.335 708.152 557.98C708.918 555.66 710.887 553.689 712.507 553.689C715.089 553.689 715.001 554.718 712.178 560.277C709.005 566.361 709.005 567.214 712.178 572.598C715.001 577.369 715.089 578.485 712.769 578.485C711.15 578.485 708.917 576.362 707.823 573.867C705.766 569.249 705.766 569.249 703.293 573.867C701.914 576.362 699.945 578.485 698.829 578.485C697.647 578.485 698.15 575.662 699.945 572.248ZM319.452 561.984C319.452 560.802 320.306 559.949 321.487 559.949C322.604 559.949 323.545 560.802 323.545 561.984C323.545 563.1 322.604 564.041 321.487 564.041C320.306 564.041 319.452 563.1 319.452 561.984ZM670.028 561.984C670.028 560.802 670.969 559.949 672.085 559.949C673.289 559.949 674.142 560.802 674.142 561.984C674.142 563.1 673.289 564.041 672.085 564.041C670.969 564.041 670.028 563.1 670.028 561.984ZM218.3 486.678C218.3 474.029 218.562 473.262 223.093 473.262C230.796 473.262 235.238 477.88 235.413 486.087C235.654 495.388 231.978 500.093 224.296 500.093C218.3 500.093 218.3 500.094 218.3 486.678ZM229.68 486.678C229.68 480.529 228.826 478.296 226.091 477.793C223.005 477.18 222.501 478.647 222.501 486.678C222.501 494.71 223.092 496.175 226.091 495.563C228.826 495.059 229.68 492.828 229.68 486.678ZM239.003 498.736C239.003 495.3 247.976 473.262 249.333 473.262C251.39 473.262 259.947 498.387 258.393 499.918C257.715 500.531 256.358 499.502 255.241 497.445C252.681 493.002 243.095 492.652 243.095 497.029C243.095 498.736 242.154 500.093 241.06 500.093C239.944 500.093 239.003 499.502 239.003 498.736ZM251.302 486.678C251.302 484.971 250.448 483.592 249.267 483.592C248.15 483.592 247.21 484.971 247.21 486.678C247.21 488.386 248.15 489.764 249.267 489.764C250.448 489.764 251.302 488.386 251.302 486.678ZM267.804 488.736C267.804 478.734 267.387 477.355 263.711 477.355C261.479 477.355 259.597 476.502 259.597 475.298C259.597 474.204 264.214 473.262 269.948 473.262C275.594 473.262 280.212 474.204 280.212 475.298C280.212 476.502 278.33 477.355 276.098 477.355C272.509 477.355 272.005 478.822 272.005 488.736C272.005 494.973 271.064 500.093 269.948 500.093C268.744 500.093 267.804 494.973 267.804 488.736ZM282.248 486.678C282.248 473.263 282.248 473.262 290.542 473.262C295.072 473.262 298.749 474.204 298.749 475.298C298.749 476.502 296.013 477.355 292.599 477.355C288.485 477.355 286.449 478.384 286.449 480.529C286.449 482.148 288.244 483.592 290.367 483.592C296.189 483.592 297.632 487.268 292.096 488.034C289.601 488.472 287.128 490.355 286.778 492.325C286.187 495.148 287.478 496.001 292.424 496.001C295.926 496.001 298.749 496.855 298.749 498.036C298.749 499.153 295.072 500.093 290.542 500.093C282.248 500.093 282.248 500.094 282.248 486.678ZM302.951 498.036C302.951 496.855 303.804 496.001 304.986 496.001C306.102 496.001 307.043 496.855 307.043 498.036C307.043 499.153 306.102 500.093 304.986 500.093C303.804 500.093 302.951 499.153 302.951 498.036ZM328.928 493.178C331.927 486.854 331.927 485.737 328.841 479.762C325.164 472.649 327.987 470.68 332.255 477.355C334.75 481.469 334.837 481.47 338.251 476.94C343.132 470.44 345.254 473.765 340.987 481.031C337.573 486.765 337.573 487.357 341.074 492.565C345.692 499.678 343.044 502.654 337.989 496.089C334.312 491.121 334.312 491.12 331.926 495.563C327.987 502.828 325.339 500.707 328.928 493.178ZM350.047 493.353C354.227 486.591 354.227 486.59 350.047 479.916C346.546 474.357 346.371 473.262 349.019 473.262C350.726 473.262 352.695 475.145 353.461 477.355C354.14 479.675 355.606 481.557 356.547 481.557C357.488 481.557 358.933 479.675 359.611 477.355C360.399 475.145 361.843 473.262 362.872 473.262C365.432 473.262 365.257 474.532 361.843 481.294C359.108 486.415 359.283 487.706 362.784 493.506C365.958 498.736 366.198 500.093 363.9 500.093C362.281 500.093 360.399 498.212 359.611 495.914C358.933 493.682 357.488 491.798 356.547 491.798C355.518 491.798 354.14 493.682 353.461 495.914C352.695 498.212 350.726 500.093 349.019 500.093C346.458 500.093 346.633 498.912 350.047 493.353ZM379.198 498.473C379.198 497.62 380.73 494.71 382.612 492.062C385.786 487.531 385.786 486.765 382.437 481.119C377.995 473.591 380.227 470.526 385.348 477.267C389.025 482.147 389.024 482.148 391.432 477.705C392.701 475.298 394.758 473.262 395.874 473.262C396.99 473.262 396.378 476.238 394.496 479.827C391.432 485.736 391.432 486.854 394.408 493.178C397.997 500.772 395.262 502.829 391.344 495.476C388.849 490.946 388.849 490.946 385.873 495.476C382.875 500.006 379.198 501.647 379.198 498.473ZM403.644 493.353C407.32 487.444 407.495 486.087 404.935 481.557C401.521 475.386 401.258 473.262 403.819 473.262C404.935 473.262 406.379 475.145 407.058 477.355C407.758 479.675 409.202 481.557 410.143 481.557C411.172 481.557 412.529 479.675 413.229 477.355C413.995 475.145 415.965 473.262 417.672 473.262C420.232 473.262 420.057 474.444 416.643 480.002C412.463 486.765 412.463 486.765 416.643 493.44C420.145 498.911 420.32 500.093 417.759 500.093C415.965 500.093 413.995 498.211 413.229 496.001C412.529 493.681 411.172 491.798 410.143 491.798C409.202 491.798 407.758 493.681 407.058 496.001C406.292 498.211 404.322 500.093 402.615 500.093C400.055 500.093 400.23 498.912 403.644 493.353ZM423.559 498.036C422.881 496.855 423.822 496.001 425.616 496.001C427.498 496.001 428.352 496.855 427.673 498.036C426.995 499.153 426.054 500.093 425.616 500.093C425.2 500.093 424.259 499.153 423.559 498.036ZM432.882 498.473C432.97 497.62 434.261 494.622 435.793 491.887C438.266 487.444 438.178 485.911 435.618 480.856C431.678 473.262 433.998 470.768 438.878 477.18C442.621 482.148 442.621 482.148 444.087 477.705C444.853 475.298 446.823 473.262 448.53 473.262C451.003 473.262 451.003 474.203 448.092 479.762C445.028 485.737 445.028 486.854 448.026 493.178C450.762 498.978 450.828 500.093 448.355 500.093C446.735 500.093 444.766 498.036 444 495.563C442.555 491.032 442.555 491.032 438.878 495.563C435.202 500.093 432.707 501.385 432.882 498.561V498.473ZM456.737 496.854C454.942 495.06 453.497 490.443 453.497 486.678C453.497 474.357 464.506 468.732 470.918 477.88C479.563 490.179 466.913 507.031 456.737 496.854ZM468.795 490.704C470.24 484.708 467.001 477.355 462.799 477.355C459.122 477.355 456.824 484.445 458.444 490.945C460.151 497.707 467.088 497.62 468.795 490.77V490.704ZM479.475 493.178C482.561 486.854 482.561 485.737 479.388 479.762C475.623 472.496 478.359 470.855 482.977 477.53C485.975 481.798 485.975 481.798 489.302 477.18C493.919 470.527 495.801 473.853 491.534 481.031C488.185 486.765 488.185 487.357 491.621 492.565C496.239 499.678 493.591 502.742 488.623 496.089C484.859 491.121 484.859 491.12 483.414 495.563C482.648 498.036 480.679 500.093 479.125 500.093C476.652 500.093 476.74 498.978 479.475 493.178ZM498.974 498.473C498.974 497.62 500.244 494.622 501.798 491.887C504.271 487.444 504.183 485.911 501.623 480.856C497.683 473.262 500.003 470.768 504.949 477.18C508.626 482.148 508.626 482.148 510.071 477.705C510.858 475.298 512.893 473.262 514.622 473.262C517.27 473.262 517.183 474.356 513.681 480.177C509.654 487.093 509.654 487.181 513.681 493.594C516.92 498.737 517.183 500.093 514.776 500.093C513.156 500.093 510.946 497.971 509.829 495.476C507.772 490.858 507.772 490.858 505.299 495.476C502.979 499.853 498.712 501.8 498.887 498.561L498.974 498.473ZM519.918 498.473C520.334 497.62 521.888 494.447 523.42 491.383C525.893 486.503 525.805 485.147 522.742 480.354C518.211 473.504 520.597 470.614 525.477 477.092C529.066 481.885 529.067 481.885 532.306 477.026C536.923 470.176 538.893 473.503 534.625 480.944C531.189 486.853 531.19 487.444 534.691 492.74C539.396 499.853 537.011 502.742 531.956 496.089C528.301 491.121 528.301 491.12 525.893 495.563C523.749 499.589 518.036 502.325 519.918 498.473ZM302.951 482.411C302.951 480.616 303.892 479.763 304.986 480.529C306.19 481.207 306.54 482.651 305.927 483.68C304.133 486.59 302.951 486 302.951 482.411ZM167.789 448.795C159.319 444.965 149.493 435.117 142.906 424.109C139.229 417.784 139.229 417.784 133.254 422.818C126.229 428.726 125.223 428.88 117.257 424.788C105.198 418.551 103.25 404.522 112.989 394.696C124.61 383.075 141.199 387.845 155.818 406.994C171.378 427.435 177.199 436.146 175.405 436.146C173.523 436.146 164.878 426.91 149.493 408.286C135.815 391.872 121.546 388.546 113.93 400.167C111.282 404.106 110.932 406.842 112.398 411.963C115.9 424.109 131.876 424.962 133.342 413.079C134.02 407.52 129.14 401.874 125.639 404.106C122.312 406.142 123.078 411.371 126.667 411.371C128.462 411.371 129.315 412.313 128.637 413.407C124.96 419.316 115.9 411.109 118.548 404.259C120.255 399.903 128.287 398.109 133.583 400.933C135.99 402.224 144.022 410.672 151.55 419.732C166.41 437.699 172.998 442.317 184.028 442.317C189.499 442.317 192.41 440.763 196.502 435.992C203.09 428.113 203.265 423.496 196.852 416.143C192.497 411.109 191.206 410.671 186.085 412.465C181.38 414.172 180.176 415.814 180.176 420.672C180.176 427.851 186.588 430.433 190.615 424.875C192.41 422.467 193.614 422.139 194.62 423.846C195.474 425.115 194.116 428.201 191.731 430.674C187.617 434.789 186.938 434.876 181.642 431.878C169.999 425.378 175.405 407.257 188.995 407.257C196.94 407.257 203.09 412.138 205.913 420.585C209.327 430.937 202.761 445.381 192.672 449.583C183.262 453.501 177.878 453.347 167.789 448.795ZM768.007 450.677C760.216 447.438 754.154 438.728 753.125 429.142C752.184 420.76 752.688 419.14 758.334 413.494C761.748 410.08 766.628 407.257 769.035 407.257C784.245 407.257 790.132 425.115 777.242 432.053C771.771 434.964 764.921 431.199 764.921 425.29C764.921 420.76 764.921 420.76 768.16 425.29C772.275 431.199 779.365 428.201 779.365 420.585C779.365 411.875 769.539 408.789 762.864 415.464C752.775 425.553 761.682 442.317 777.155 442.317C787.069 442.317 794.838 436.146 811.689 415.049C823.048 400.845 830.576 396.49 836.901 400.429C841.169 403.165 842.197 408.702 839.22 412.379C836.813 415.289 830.926 414.435 830.926 411.196C830.926 410.255 832.283 409.993 833.99 410.672C835.96 411.372 837.076 410.584 837.076 408.461C837.076 403.931 831.605 402.049 827.841 405.2C821.253 410.672 826.637 421.701 835.872 421.701C847.428 421.701 851.695 404.696 842.022 397.08C839.046 394.782 834.603 392.814 832.196 392.814C825.28 392.814 813.572 401.874 805.014 413.845C794.16 429.055 787.397 436.146 783.721 436.146C781.51 436.146 782.101 434.613 785.865 430.521C788.688 427.347 795.451 418.55 800.747 410.846C815.782 389.399 832.196 383.141 845.195 394.017C850.404 398.46 851.52 400.933 851.52 408.111C851.52 424.021 835.194 432.381 825.105 421.614C821.253 417.521 821.253 417.521 816.044 425.29C801.513 447.262 783.129 456.936 768.007 450.677ZM381.759 438.728L286.449 438.115V387.604C286.449 355.28 287.128 337.072 288.485 337.072C289.601 337.072 290.542 334.337 290.542 330.923C290.542 326.721 291.57 324.685 293.715 324.685C297.808 324.685 304.899 308.359 307.131 293.805C308.159 287.568 309.779 277.829 310.895 272.095C312.099 266.449 313.04 257.236 313.106 251.677C313.106 246.118 313.718 242.092 314.397 242.705C316.016 244.324 321.75 282.863 321.662 291.683C321.662 295.688 323.894 303.807 326.718 309.803C329.519 315.778 331.751 321.6 331.751 322.716C331.751 323.832 336.457 324.685 342.103 324.685C352.433 324.685 352.433 324.685 352.433 317.332C352.433 310.919 352.958 310.066 357.051 310.657C360.902 311.16 361.581 312.364 361.077 318.01C360.399 324.685 360.399 324.685 380.139 324.685C399.879 324.685 399.88 324.685 399.88 317.66C399.88 311.686 400.492 310.833 403.994 311.774C406.904 312.54 408.086 314.596 408.086 318.776C408.086 323.656 408.94 324.685 412.967 324.685C420.67 324.685 425.025 318.185 424.259 307.833C423.646 299.035 423.734 298.949 430.825 298.271C441.001 297.329 443.146 294.68 443.146 283.213C443.146 274.656 443.737 273.124 447.085 273.124C449.296 273.124 451.441 274.327 451.944 275.684C452.469 277.151 454.767 274.416 457.24 269.711C459.648 265.006 462.799 260.737 464.177 260.299C465.709 259.796 466.913 254.829 467.176 247.563C467.416 241.063 468.445 234.651 469.386 233.294C472.8 228.676 476.827 214.319 478.272 201.997L479.738 189.611L480.066 201.997C480.241 208.76 481.707 217.054 483.414 220.293C485.121 223.554 486.478 227.822 486.478 229.792C486.478 231.827 487.857 234.563 489.477 235.942C491.096 237.299 491.95 239.705 491.271 241.325C489.389 246.205 492.738 262.86 495.539 262.86C496.918 262.86 499.828 266.297 501.864 270.564C503.921 274.832 506.066 277.151 506.569 275.684C507.007 274.327 509.217 273.124 511.449 273.124C514.688 273.124 515.388 274.656 515.388 282.272C515.388 295.95 516.745 297.921 525.893 297.921C533.925 297.921 533.925 297.919 533.925 306.805C533.925 316.719 539.484 324.685 546.421 324.685C549.485 324.685 550.426 323.306 550.426 318.36C550.426 312.955 551.105 312.101 555.044 312.714C558.808 313.305 559.574 314.509 559.071 319.039C558.392 324.685 558.392 324.685 578.308 324.685C598.135 324.685 598.135 324.685 597.457 318.01C596.932 312.452 597.545 311.336 600.959 311.336C604.373 311.336 604.964 312.452 604.46 318.01C603.782 324.685 603.782 324.685 614.899 324.685C626.082 324.685 626.083 324.685 631.642 312.276C634.727 305.36 637.025 296.476 636.938 292.186C636.85 287.919 638.141 277.48 639.936 269.032C641.643 260.475 643.197 250.298 643.438 246.359C643.7 242.354 644.554 246.446 645.495 255.506C646.523 264.501 648.23 274.656 649.434 278.005C650.528 281.331 651.469 287.743 651.469 292.273C651.469 301.946 661.143 324.685 665.235 324.685C666.942 324.685 667.971 327.071 667.971 330.923C667.971 334.337 668.912 337.072 670.028 337.072C671.407 337.072 672.172 355.28 672.172 387.604V438.115L577.783 438.29C525.893 438.377 482.036 438.552 480.329 438.793C478.622 438.968 434.261 438.881 381.846 438.553L381.759 438.728ZM337.573 430.434C338.251 425.904 337.901 425.816 314.397 425.816C292.249 425.816 290.542 426.144 290.542 429.733C290.542 435.051 291.921 435.292 316.104 435.117C336.019 435.051 336.96 434.877 337.573 430.434ZM417.934 434.198C418.175 434.111 418.35 432.227 418.35 429.908C418.35 425.99 416.993 425.816 381.43 425.816C344.072 425.816 340.308 426.581 342.956 433.322C344.073 436.233 348.756 436.496 380.73 435.467C400.908 434.876 417.584 434.264 417.847 434.198H417.934ZM446.232 430.259L456.562 425.991L439.557 425.903C424.412 425.728 422.531 426.144 422.531 429.58C422.531 431.616 422.968 433.847 423.559 434.35C425.529 436.32 435.967 434.438 446.232 430.171V430.259ZM465.293 434.614C461.004 434.198 454.505 434.198 450.828 434.614C447.151 435.051 450.674 435.467 458.619 435.467C466.563 435.467 469.561 435.051 465.293 434.614ZM509.655 434.702C508.276 434.198 505.978 434.198 504.533 434.702C503.067 435.293 504.271 435.817 507.094 435.817C509.917 435.817 511.099 435.293 509.655 434.702ZM535.982 430.936C535.982 425.903 535.632 425.816 521.188 425.816C513.069 425.816 507.007 426.319 507.597 426.997C511.274 430.674 523.42 435.642 529.307 435.817C535.129 436.058 535.982 435.379 535.982 430.936ZM615.84 433.256C616.431 432.644 616.431 430.674 615.753 428.967C614.637 426.232 608.903 425.816 577.279 425.816C540.096 425.816 540.096 425.815 540.096 430.936C540.096 436.145 540.096 436.145 577.454 435.204C597.96 434.788 615.227 433.847 615.84 433.256ZM667.971 429.646C667.971 426.057 666.176 425.816 644.291 425.816C622.078 425.816 620.524 426.057 620.524 429.821C620.524 433.41 622.231 433.935 636.522 434.439C661.055 435.38 667.971 434.351 667.971 429.646ZM467.417 426.407C465.381 425.903 462.12 425.903 460.151 426.407C458.181 426.91 459.822 427.347 463.827 427.347C467.767 427.347 469.386 426.91 467.417 426.407ZM497.333 426.495C495.977 425.904 493.153 425.903 491.184 426.407C489.126 426.91 490.33 427.435 493.657 427.435C497.093 427.523 498.712 427.086 497.333 426.495ZM333.284 422.379C337.573 421.285 337.989 419.994 337.989 406.994V392.814H290.542V407.082C290.542 416.493 291.396 421.613 293.103 422.379C296.779 423.846 327.812 423.933 333.284 422.379ZM298.245 416.996C296.363 412.225 298.508 398.372 301.243 396.665C306.277 393.404 308.072 396.139 308.663 407.848C309.276 419.053 309.101 419.578 304.22 419.578C301.485 419.578 298.749 418.463 298.245 416.996ZM306.627 407.761C306.277 403.493 305.073 399.991 303.979 399.991C302.775 399.991 301.572 403.493 301.243 407.761C300.718 413.757 301.309 415.464 303.979 415.464C306.54 415.464 307.131 413.757 306.627 407.761ZM319.452 408.461C319.452 400.495 320.306 396.993 322.516 396.14C329.191 393.579 331.751 396.993 331.751 408.461C331.751 419.491 331.751 419.578 325.602 419.578C319.518 419.578 319.452 419.491 319.452 408.461ZM327.659 407.169C327.659 402.639 326.718 398.962 325.602 398.962C324.485 398.962 323.545 402.639 323.545 407.169C323.545 411.787 324.485 415.464 325.602 415.464C326.718 415.464 327.659 411.787 327.659 407.169ZM418.438 423.759V392.814H342.103V406.842C342.103 414.611 342.694 421.614 343.46 422.314C344.226 423.08 361.428 423.759 381.584 423.759H418.438ZM352.433 409.578C352.433 397.935 356.46 392.55 361.668 396.905C363.638 398.547 364.754 403.078 364.754 409.578C364.754 419.316 364.666 419.578 358.604 419.578C352.608 419.578 352.433 419.316 352.433 409.578ZM360.64 407.169C360.64 402.639 359.698 398.962 358.604 398.962C357.488 398.962 356.547 402.639 356.547 407.169C356.547 411.787 357.488 415.464 358.604 415.464C359.698 415.464 360.64 411.787 360.64 407.169ZM377.141 409.578C377.141 398.788 380.489 393.841 386.201 396.052C388.696 396.993 389.549 400.079 389.549 408.461C389.549 419.491 389.462 419.578 383.378 419.578C377.316 419.578 377.141 419.316 377.141 409.578ZM387.055 407.761C386.727 403.493 385.523 399.991 384.407 399.991C383.225 399.991 382.021 403.493 381.671 407.761C381.168 413.757 381.759 415.464 384.407 415.464C386.967 415.464 387.58 413.757 387.055 407.761ZM402.615 411.875C403.381 407.607 403.906 402.552 403.994 400.758C403.994 398.875 405.35 396.818 406.992 396.14C412.113 394.17 416.381 400.67 416.381 410.431C416.381 419.579 416.381 419.578 408.852 419.578C401.346 419.578 401.346 419.579 402.615 411.875ZM412.201 406.994C412.201 396.314 407.32 396.993 406.467 407.848C405.963 413.669 406.554 415.464 409.027 415.464C411.435 415.464 412.201 413.319 412.201 406.994ZM465.885 421.614C465.885 420.52 464.944 419.578 463.827 419.578C462.646 419.578 461.704 420.52 461.704 421.614C461.704 422.818 462.646 423.671 463.827 423.671C464.944 423.671 465.885 422.818 465.885 421.614ZM484.005 412.904C483.414 403.405 482.802 401.962 478.709 401.371C474.441 400.758 474.091 401.523 474.091 412.225C474.091 423.167 474.354 423.671 479.388 423.671C484.443 423.671 484.596 423.255 484.005 412.904ZM616.431 423.671V392.814H540.096V423.671H616.431ZM542.132 409.314C542.132 401.37 542.985 398.635 546.159 396.993C552.221 393.754 556.576 399.401 556.576 410.431C556.576 419.491 556.576 419.578 549.398 419.578C542.132 419.578 542.132 419.578 542.132 409.314ZM552.046 407.848C551.193 396.993 546.334 396.314 546.334 406.994C546.334 413.319 547.1 415.464 549.485 415.464C551.98 415.464 552.571 413.669 552.046 407.848ZM568.985 408.198C568.985 399.903 569.838 396.49 572.07 395.636C577.695 393.404 581.372 398.876 581.372 409.578C581.372 419.316 581.197 419.578 575.135 419.578C569.072 419.578 568.985 419.49 568.985 408.198ZM577.192 407.082C577.192 396.315 572.311 396.993 571.458 407.936C570.954 413.67 571.545 415.464 574.018 415.464C576.426 415.464 577.279 413.32 577.279 407.082H577.192ZM593.78 408.461C593.78 400.166 594.546 397.08 597.107 396.052C602.841 393.929 606.08 398.788 606.08 409.578C606.08 419.404 605.992 419.644 599.93 419.644C593.78 419.644 593.78 419.491 593.78 408.461ZM601.987 407.257C601.987 402.727 601.046 398.962 599.93 398.962C598.814 398.962 597.873 402.727 597.873 407.257C597.873 411.788 598.814 415.464 599.93 415.464C601.046 415.464 601.987 411.788 601.987 407.257ZM660.289 422.379C667.97 421.11 667.971 421.11 667.971 406.994V392.814H620.524V423.759H636.522C645.32 423.672 655.999 423.08 660.289 422.379ZM626.783 408.461C626.783 400.166 627.549 397.08 630.109 396.052C635.843 393.929 639.082 398.788 639.082 409.578C639.082 419.404 638.995 419.644 632.933 419.644C626.783 419.644 626.783 419.491 626.783 408.461ZM634.99 407.257C634.99 402.727 634.049 398.962 632.933 398.962C631.816 398.962 630.875 402.727 630.875 407.257C630.875 411.788 631.816 415.464 632.933 415.464C634.049 415.464 634.99 411.788 634.99 407.257ZM649.434 408.636C649.434 396.577 652.323 393.076 658.669 397.693C661.142 399.488 661.908 402.64 661.405 409.403C660.792 417.697 660.202 418.637 655.059 419.228C649.522 419.907 649.434 419.644 649.434 408.636ZM657.641 407.082C657.641 396.315 652.76 396.993 651.907 407.936C651.404 413.67 651.995 415.464 654.468 415.464C656.875 415.464 657.728 413.32 657.728 407.082H657.641ZM428.702 407.257C428.702 395.811 428.089 392.814 425.616 392.814C423.143 392.814 422.531 395.811 422.531 407.257C422.531 418.703 423.143 421.701 425.616 421.701C428.089 421.701 428.702 418.703 428.702 407.257ZM535.982 407.257C535.982 395.811 535.304 392.814 532.897 392.814C530.424 392.814 529.832 395.636 529.832 405.9C529.832 413.078 530.424 419.579 531.19 420.345C534.779 423.934 535.982 420.585 535.982 407.257ZM436.996 406.054C436.996 401.02 436.055 396.905 434.939 396.905C433.735 396.905 432.882 401.612 432.882 407.345C432.882 413.845 433.648 417.346 434.939 416.493C436.055 415.814 436.996 411.109 436.996 406.054ZM465.885 407.257C465.885 401.611 464.944 396.905 463.827 396.905C461.53 396.905 460.917 414.02 463.061 416.143C465.534 418.638 465.885 417.696 465.885 407.257ZM495.035 406.229C495.035 400.933 494.532 396.052 493.832 395.373C493.241 394.695 492.65 399.554 492.65 406.229C492.65 412.816 493.241 417.696 493.832 417.083C494.532 416.405 495.035 411.525 495.035 406.229ZM500.244 407.761C499.828 405.813 499.303 407.432 499.303 411.371C499.303 415.376 499.741 416.996 500.244 414.961C500.769 412.991 500.769 409.731 500.244 407.761ZM525.631 407.257C525.631 401.611 524.689 396.905 523.595 396.905C522.479 396.905 521.538 401.611 521.538 407.257C521.538 412.904 522.479 417.609 523.595 417.609C524.777 417.609 525.631 412.904 525.631 407.257ZM458.794 397.693C457.678 393.579 456.233 392.814 449.296 392.814C443.409 392.814 441.089 393.667 441.089 395.965C441.089 398.547 441.767 398.635 445.203 396.49C451.703 392.463 456.387 396.753 457.503 407.52C458.356 416.143 458.444 416.231 459.21 409.578C459.647 405.726 459.472 400.429 458.794 397.759V397.693ZM508.888 394.871C510.858 394.871 513.594 395.965 514.951 397.343C516.833 399.313 517.424 399.05 517.424 396.315C517.424 391.522 501.951 391.281 500.069 396.052C497.771 402.223 498.887 404.106 502.039 399.489C503.833 396.994 506.919 394.871 508.888 394.871ZM487.77 395.899C486.238 391.785 471.772 392.375 470.415 396.665C469.649 398.875 470.415 398.963 474.004 396.993C477.593 395.111 479.475 395.199 482.977 397.607C488.185 401.108 489.564 400.583 487.77 395.899ZM337.989 390.755V345.367H290.542V367.077C290.542 386.904 290.805 388.698 294.394 388.698C296.538 388.698 298.245 387.516 298.245 386.138C298.158 384.693 298.245 379.551 298.508 374.78C298.749 366.901 299.361 366.048 303.979 366.048C308.838 366.048 309.1 366.661 309.1 377.254C309.1 389.728 309.188 389.728 329.191 390.428L337.989 390.755ZM319.452 377.34C319.452 366.135 319.452 366.048 325.602 366.048C331.751 366.048 331.751 366.135 331.751 377.34C331.751 388.611 331.751 388.698 325.602 388.698C319.452 388.698 319.452 388.546 319.452 377.34ZM327.659 377.515C327.659 373.576 326.718 369.812 325.602 369.134C324.31 368.368 323.545 371.19 323.545 376.224C323.545 380.841 324.485 384.607 325.602 384.607C326.718 384.607 327.659 381.345 327.659 377.515ZM298.749 354.69C298.749 348.365 299.427 347.424 303.979 347.424C308.422 347.424 309.1 348.365 309.1 354.69C309.1 361.015 308.422 361.868 303.979 361.868C299.427 361.868 298.749 361.015 298.749 354.69ZM306.365 354.69C306.365 352.983 305.074 351.603 303.629 351.603C302.097 351.603 300.893 352.983 300.893 354.69C300.893 356.397 302.097 357.753 303.629 357.753C305.074 357.753 306.365 356.397 306.365 354.69ZM319.78 355.192C320.393 349.546 321.312 348.452 325.602 348.452C329.869 348.452 330.898 349.546 331.401 355.192C332.014 361.43 331.664 361.868 325.602 361.868C319.518 361.868 319.19 361.43 319.78 355.192ZM327.659 354.69C327.659 352.983 326.718 351.603 325.602 351.603C324.485 351.603 323.545 352.983 323.545 354.69C323.545 356.397 324.485 357.753 325.602 357.753C326.718 357.753 327.659 356.397 327.659 354.69ZM354.84 389.048C353.045 387.845 352.345 383.665 352.783 376.137C353.461 365.807 353.811 365.019 358.604 365.019C363.463 365.019 363.813 365.72 364.404 376.815C365.017 388.699 365.017 388.698 371.67 388.698C378.17 388.698 378.344 388.458 377.578 381.52C376.2 369.987 378.607 363.575 383.903 364.341C388.083 364.866 388.521 366.136 388.521 377.429C388.521 389.815 388.521 389.814 397.144 389.727C402.615 389.727 405.11 389.049 403.906 387.758C401.674 385.635 401.258 372.285 403.14 367.251C404.76 362.984 413.47 362.984 415.111 367.251C417.322 372.985 416.468 386.226 413.733 387.343C412.201 387.933 412.616 388.459 414.761 388.546C417.935 388.699 418.438 386.664 418.438 373.226V357.753H342.103V373.839C342.103 389.903 342.103 389.902 349.785 390.34C354.753 390.668 356.547 390.164 354.84 389.048ZM569.247 376.662C568.722 364.253 568.81 363.925 573.931 363.925C580.015 363.925 582.313 369.724 580.956 381.52C580.19 388.458 580.431 388.698 586.843 388.698C593.518 388.698 593.518 388.699 594.109 376.815C594.722 365.72 595.05 365.019 599.93 365.019C604.723 365.019 605.139 365.719 605.664 376.662C606.167 386.488 605.752 388.546 602.578 389.311C600.521 389.902 602.841 390.428 607.633 390.494C616.431 390.756 616.431 390.756 616.431 374.255V357.753H540.096V373.226C540.096 381.783 540.862 388.698 541.803 388.698C542.657 388.698 542.985 385.459 542.569 381.52C541.191 370.074 543.51 363.925 549.244 363.925C554.869 363.925 556.576 367.34 556.576 378.457C556.576 383.491 555.482 387.08 553.424 388.196C551.28 389.4 553.424 389.902 559.924 389.727C569.751 389.399 569.75 389.399 569.247 376.662ZM629.256 388.283C627.877 386.904 626.783 381.345 626.783 375.874C626.783 366.31 626.936 366.048 632.933 366.048C639.082 366.048 639.082 366.135 639.082 377.34C639.082 383.578 639.761 388.786 640.615 388.873C641.468 388.961 644.991 389.399 648.405 389.815C651.819 390.253 653.439 390.077 651.994 389.486C650.375 388.699 649.434 384.081 649.434 377.165C649.434 366.661 649.762 365.96 654.555 365.96C660.026 365.96 660.114 366.136 660.201 382.046C660.289 389.049 661.055 390.757 663.616 390.253C666.351 389.815 667.029 385.876 667.555 367.515L668.058 345.367H620.524V368.017C620.524 390.755 620.524 390.755 626.083 390.755C630.438 390.755 631.138 390.165 629.168 388.283H629.256ZM626.783 354.515C626.783 347.753 627.199 347.248 632.408 347.839C637.113 348.364 638.229 349.634 638.732 355.192C639.345 361.43 638.995 361.868 633.02 361.868C627.199 361.868 626.783 361.431 626.783 354.515ZM634.99 354.69C634.99 352.983 634.049 351.603 632.933 351.603C631.816 351.603 630.875 352.983 630.875 354.69C630.875 356.397 631.816 357.753 632.933 357.753C634.049 357.753 634.99 356.397 634.99 354.69ZM649.434 354.69C649.434 348.365 650.025 347.424 654.555 347.424C659.085 347.424 659.764 348.365 659.764 354.69C659.764 361.015 659.085 361.868 654.555 361.868C650.025 361.868 649.434 361.015 649.434 354.69ZM657.641 354.69C657.641 352.983 656.787 351.603 655.584 351.603C654.467 351.603 653.527 352.983 653.527 354.69C653.527 356.397 654.467 357.753 655.584 357.753C656.787 357.753 657.641 356.397 657.641 354.69ZM508.801 387.166C493.241 386.75 467.242 386.75 451.003 387.166C434.764 387.516 447.501 387.758 479.213 387.758C511.012 387.758 524.274 387.516 508.801 387.166ZM305.511 377.844C306.627 370.403 305.686 367.427 302.776 369.222C300.303 370.666 300.215 384.607 302.688 384.607C303.629 384.607 304.898 381.521 305.511 377.844ZM360.64 376.4C360.64 371.957 359.786 367.754 358.758 367.163C356.372 365.631 354.315 371.869 355.431 377.34C355.869 379.638 356.285 382.133 356.372 382.987C356.547 383.84 357.488 384.519 358.604 384.519C359.698 384.519 360.64 380.93 360.64 376.4ZM387.492 378.544C387.492 370.84 385.523 365.719 383.137 367.163C379.789 369.221 380.905 384.607 384.407 384.607C386.464 384.607 387.492 382.549 387.492 378.544ZM411.851 375.808C411.435 371.016 410.231 366.988 409.115 366.988C407.999 366.988 406.817 371.016 406.467 375.808C405.963 382.724 406.467 384.607 409.115 384.607C411.763 384.607 412.376 382.724 411.851 375.808ZM428.943 370.666C429.118 362.984 429.468 353.486 429.73 349.459C430.409 340.574 429.118 337.16 425.441 337.16C423.143 337.16 422.531 341.953 422.531 360.84C422.531 380.58 423.056 384.607 425.616 384.607C428.002 384.607 428.79 381.521 428.943 370.666ZM436.996 382.462C436.996 381.346 436.055 380.405 434.939 380.405C433.735 380.405 432.882 381.346 432.882 382.462C432.882 383.665 433.823 384.607 434.939 384.607C436.055 384.607 436.996 383.665 436.996 382.462ZM446.648 376.902C446.144 374.867 445.707 375.962 445.619 379.397C445.532 382.812 445.969 384.432 446.56 383.075C447.151 381.696 447.151 378.872 446.648 376.902ZM452.885 376.902C452.382 374.867 451.856 375.962 451.769 379.397C451.769 382.812 452.207 384.432 452.797 383.075C453.323 381.696 453.41 378.872 452.797 376.902H452.885ZM478.184 377.254C478.184 374.518 477.33 372.198 476.148 372.198C475.032 372.198 474.091 375.02 474.091 378.544C474.091 382.221 474.945 384.256 476.148 383.577C477.33 382.811 478.184 379.989 478.184 377.254ZM484.443 378.369C484.443 375.021 483.502 372.198 482.386 372.198C481.182 372.198 480.329 375.021 480.329 378.369C480.329 381.783 481.27 384.607 482.386 384.607C483.502 384.607 484.443 381.783 484.443 378.369ZM506.481 376.902C505.978 374.867 505.474 376.049 505.474 379.397C505.387 382.812 505.803 384.432 506.415 383.075C506.919 381.696 507.007 378.872 506.481 376.902ZM535.982 360.752C535.982 339.129 535.632 336.897 532.393 337.51C525.631 338.779 526.244 384.607 532.984 384.607C535.479 384.607 535.982 380.251 535.982 360.752ZM552.046 375.808C551.718 371.016 550.514 367.077 549.398 367.077C548.304 367.077 547.012 371.016 546.662 375.808C546.159 382.812 546.75 384.607 549.398 384.607C552.046 384.607 552.571 382.812 552.046 375.808ZM576.842 375.808C576.513 371.016 575.31 367.077 574.106 367.077C572.99 367.077 571.808 371.016 571.458 375.808C570.954 382.812 571.458 384.607 574.106 384.607C576.754 384.607 577.367 382.812 576.842 375.808ZM601.987 375.283C601.987 370.25 601.046 366.048 599.93 366.048C598.814 366.048 597.873 370.25 597.873 375.283C597.873 380.404 598.814 384.607 599.93 384.607C601.046 384.607 601.987 380.404 601.987 375.283ZM634.99 377.34C634.99 373.401 634.049 370.162 632.933 370.162C631.816 370.162 630.875 373.401 630.875 377.34C630.875 381.345 631.816 384.607 632.933 384.607C634.049 384.607 634.99 381.345 634.99 377.34ZM657.291 376.902C656.941 372.635 655.759 369.134 654.555 369.134C653.439 369.134 652.257 372.635 651.907 376.902C651.404 382.899 651.995 384.607 654.555 384.607C657.203 384.607 657.794 382.899 657.291 376.902ZM516.745 374.868C516.33 372.898 515.804 374.015 515.717 377.429C515.717 380.843 516.154 382.462 516.745 381.018C517.271 379.639 517.358 376.816 516.745 374.868ZM436.996 359.723C436.996 347.84 436.208 341.514 434.939 342.368C433.823 343.046 432.882 351.429 432.882 361.015C432.882 371.279 433.735 378.457 434.939 378.457C436.143 378.457 436.996 370.841 436.996 359.723ZM459.472 366.048C459.035 353.661 459.035 353.662 450.062 353.662C442.468 353.662 441.089 354.34 441.089 357.841C441.089 361.43 441.614 361.605 445.291 359.395C451.615 355.368 456.474 359.635 457.24 369.899C458.181 383.074 459.91 379.989 459.472 366.048ZM465.885 359.898C465.885 348.868 465.031 341.339 463.827 341.339C461.53 341.339 460.829 374.779 463.149 377.077C465.709 379.638 465.885 378.457 465.885 359.898ZM495.21 354.164C495.473 347.073 495.035 341.252 494.182 341.339C493.416 341.339 492.803 349.897 492.978 360.402C493.328 379.814 494.182 377.515 495.21 354.164ZM503.505 360.336C507.422 355.631 514.185 358.279 515.629 365.019C516.833 370.578 516.92 370.337 517.183 362.459C517.424 353.661 517.424 353.662 508.122 353.662C498.887 353.662 498.887 353.661 499.216 366.573C499.478 376.137 499.741 377.341 500.419 371.279C500.857 366.727 502.213 361.781 503.505 360.336ZM524.099 358.279C522.742 336.044 521.538 336.897 521.626 360.073C521.626 371.016 522.392 378.282 523.333 376.815C524.274 375.284 524.624 366.989 524.099 358.279ZM478.184 364.931C478.184 363.137 477.33 362.283 476.148 362.984C475.032 363.662 474.091 365.106 474.091 366.135C474.091 367.251 475.032 368.105 476.148 368.105C477.33 368.105 478.184 366.66 478.184 364.931ZM483.064 365.019C482.473 363.312 481.532 361.955 481.095 361.955C480.679 361.955 480.329 363.312 480.329 365.019C480.329 366.726 481.182 368.105 482.298 368.105C483.414 368.105 483.743 366.726 483.064 365.019ZM488.536 358.87C488.536 354.077 487.77 353.662 479.3 353.662C471.356 353.662 469.977 354.34 469.977 357.841C469.977 361.78 470.24 361.867 475.032 358.781C479.65 355.718 480.241 355.718 483.743 359.548C488.623 364.866 488.536 364.866 488.536 358.87ZM457.59 343.221C457.59 334.839 457.59 334.84 449.887 335.541C442.621 336.132 442.118 336.634 441.767 343.396C441.439 349.458 441.614 349.81 442.883 345.455C445.116 337.751 454.263 338.188 455.204 345.957C456.146 354.426 457.59 352.807 457.59 343.221ZM487.682 337.925C486.916 335.78 484.18 335.103 478.797 335.541C471.531 336.132 471.006 336.634 470.502 343.396C470.065 349.634 470.327 349.984 472.034 345.87C475.886 336.81 486.062 338.451 486.828 348.277C487.004 351.253 487.332 350.837 487.944 346.81C488.448 343.572 488.36 339.632 487.682 337.925ZM516.57 338.013C515.979 336.394 512.74 335.103 509.305 335.103C502.892 335.103 498.799 339.72 498.974 346.81C498.974 349.634 499.828 349.131 502.126 344.776C506.481 336.81 513.922 337.839 515.213 346.483C516.154 352.633 516.154 352.632 516.92 346.81C517.358 343.659 517.183 339.721 516.57 338.101V338.013ZM385.435 345.455C385.435 343.135 384.494 341.339 383.378 341.339C382.197 341.339 381.343 343.135 381.343 345.455C381.343 347.665 382.197 349.546 383.378 349.546C384.494 349.546 385.435 347.665 385.435 345.455ZM452.972 345.782C453.41 344.513 452.381 343.396 450.587 343.396C448.792 343.396 447.326 344.842 447.326 346.658C447.326 350.247 451.769 349.634 452.972 345.782ZM482.386 346.483C482.386 344.776 480.92 343.396 479.213 343.396C477.593 343.396 476.148 344.776 476.148 346.483C476.148 348.19 477.593 349.546 479.213 349.546C480.92 349.546 482.386 348.19 482.386 346.483ZM511.187 346.308C511.187 342.632 506.832 343.222 505.54 347.074C505.125 348.452 506.153 349.546 507.947 349.546C509.742 349.546 511.187 348.103 511.187 346.308ZM577.279 345.455C577.279 343.135 576.338 341.252 575.135 341.252C574.018 341.252 573.077 343.135 573.077 345.455C573.077 347.665 574.018 349.546 575.135 349.546C576.338 349.546 577.279 347.665 577.279 345.455ZM317.395 334.161C317.395 332.541 316.454 330.66 315.25 329.981C314.134 329.215 313.193 330.572 313.193 332.892C313.193 335.277 314.134 337.16 315.25 337.16C316.454 337.16 317.395 335.78 317.395 334.161ZM645.845 335.956C647.464 334.249 645.319 328.865 643.022 328.865C641.993 328.865 641.139 330.748 641.139 333.046C641.139 337.072 643.35 338.451 645.845 335.956ZM508.801 331.513C493.241 331.098 467.242 331.098 451.003 331.513C434.764 331.864 447.501 332.104 479.3 332.104C511.012 332.104 524.274 331.776 508.801 331.513ZM516.417 323.985C512.981 322.541 503.155 318.863 494.598 315.69L478.972 310.067L457.503 318.36L435.968 326.633H479.3C516.417 326.633 521.713 326.305 516.417 323.985ZM447.326 318.273C449.471 316.895 448.792 316.719 445.203 317.66C442.38 318.426 438.703 319.893 436.996 321.009C434.851 322.278 435.443 322.452 439.032 321.511C441.855 320.745 445.619 319.302 447.326 318.273ZM457.59 314.509C459.297 313.393 459.822 312.451 458.619 312.451C457.503 312.451 455.204 313.393 453.497 314.509C451.768 315.538 451.353 316.478 452.469 316.478C453.563 316.478 455.883 315.538 457.59 314.509ZM430.825 310.219C430.825 309.125 429.884 308.271 428.702 308.271C427.586 308.271 426.645 309.716 426.645 311.511C426.645 313.218 427.586 314.159 428.702 313.393C429.884 312.714 430.825 311.247 430.825 310.219ZM499.916 312.364C494.182 309.979 490.921 309.979 494.685 312.364C496.392 313.48 499.215 314.334 500.944 314.246C502.979 314.246 502.651 313.568 499.916 312.364ZM531.889 309.892C531.889 306.543 531.277 306.039 529.57 307.658C528.301 308.949 527.863 311.007 528.629 312.189C530.774 315.691 531.889 314.925 531.889 309.892ZM467.942 310.394C469.649 309.278 470.064 308.359 468.97 308.359C467.854 308.359 465.447 309.278 463.827 310.394C462.12 311.422 461.617 312.364 462.799 312.364C463.915 312.364 466.235 311.422 467.942 310.394ZM317.395 298.096C317.395 295.863 316.454 293.565 315.25 292.799C314.134 292.099 313.193 293.806 313.193 296.804C313.193 299.715 314.134 302.1 315.25 302.1C316.454 302.1 317.395 300.306 317.395 298.096ZM644.466 294.418C642.168 292.098 640.614 295.687 642.255 299.451C643.787 302.953 643.963 302.954 644.816 299.365C645.232 297.329 645.145 295.097 644.466 294.418ZM481.948 296.629C481.007 291.42 476.148 290.742 476.148 295.775C476.148 298.27 477.506 300.064 479.388 300.064C481.357 300.064 482.386 298.686 481.948 296.629ZM473.5 246.972C472.975 245.003 472.472 246.118 472.472 249.532C472.384 252.946 472.8 254.565 473.413 253.121C473.916 251.764 474.004 248.942 473.5 246.972ZM481.948 250.21C481.007 243.557 476.148 242.857 476.148 249.357C476.148 252.771 477.33 254.653 479.388 254.653C481.532 254.653 482.474 253.121 481.948 250.21ZM485.887 246.972C485.384 245.003 484.859 246.118 484.859 249.532C484.771 252.946 485.209 254.565 485.8 253.121C486.325 251.764 486.391 248.942 485.8 246.972H485.887ZM138.551 377.165C139.142 375.021 140.17 371.278 140.849 368.87C141.79 365.544 140.52 363.071 135.728 359.045C129.315 353.661 129.315 353.662 137.61 353.662C145.379 353.662 145.991 353.223 148.902 344.928L151.966 336.131L155.555 344.928C158.904 353.135 159.67 353.662 167.264 353.662H175.317L168.905 359.133C165.053 362.372 162.909 365.719 163.587 367.601C164.2 369.221 165.316 372.81 165.994 375.633C167.264 380.667 167.264 380.666 159.845 376.224C152.404 371.869 152.404 371.869 144.963 376.487C137.96 380.842 137.522 380.842 138.551 377.165ZM223.093 377.165C223.705 375.021 224.799 371.278 225.5 368.87C226.441 365.544 225.062 363.071 220.269 359.045L213.857 353.662H221.035C228.827 353.662 231.212 351.691 234.297 342.281C236.355 336.131 236.355 336.131 239.944 344.928C243.27 352.895 244.211 353.662 250.974 353.662C258.327 353.662 258.327 353.661 252.506 359.723C247.297 365.194 246.947 366.398 249.004 372.373C252.156 381.433 252.243 381.346 244.124 376.4C236.946 371.87 236.946 371.869 229.417 376.487C222.502 380.754 222.064 380.842 223.093 377.165ZM795.867 379.048C795.867 378.106 796.72 374.342 797.749 370.666C799.543 364.691 799.127 363.575 793.131 358.87C786.544 353.749 786.544 353.749 792.781 353.662C800.922 353.574 803.395 351.866 806.897 343.309L809.982 336.219L813.396 344.842C815.366 349.634 817.489 353.486 818.276 353.398C818.955 353.223 822.807 353.311 826.812 353.398L833.99 353.662L827.337 358.366C819.984 363.4 819.809 364.166 822.544 373.751C824.426 380.404 824.427 380.405 816.636 375.962C808.866 371.519 808.866 371.519 802.366 376.137C798.777 378.697 795.867 379.989 795.867 379.136V379.048ZM118.285 334.839C105.636 327.574 103.25 313.743 112.989 303.982C120.255 296.716 128.112 296.213 134.437 302.625C139.054 307.243 139.054 307.243 146.233 296.3C160.348 274.59 183.262 266.536 197.443 278.42C213.266 291.77 208.057 316.566 189.499 316.566C176.937 316.566 170 303.303 178.294 295.009C184.969 288.268 199.15 294.835 194.379 302.538C193.438 304.07 192.322 303.216 191.206 300.218C189.236 294.922 183.853 295.097 180.439 300.568C174.617 309.716 189.762 316.391 197.531 308.01C202.915 302.188 203.002 295.863 197.706 289.122C188.142 276.976 172.998 280.741 157.35 299.124C138.113 321.775 134.611 324.773 127.871 324.773C120.255 324.773 115.462 318.185 119.489 313.304C121.962 310.306 127.608 309.213 127.608 311.686C127.608 312.364 125.989 314.158 124.019 315.625C120.605 318.185 120.605 318.361 124.019 319.717C133.254 323.307 137.61 312.364 129.819 305.361C126.317 302.187 125.135 302.1 120.08 304.507C106.577 311.007 110.516 329.303 125.726 330.485C135.903 331.338 144.022 325.364 157.962 306.893C164.528 298.008 171.881 290.48 174.114 290.064C178.053 289.276 177.966 289.45 173.764 294.155C171.378 296.803 165.557 304.836 160.786 311.949C147.873 331.251 129.403 341.252 118.285 334.839ZM821.691 334.336C813.987 330.747 805.518 321.687 793.218 303.654C779.037 283.038 786.368 285.359 801.513 306.302C818.605 329.807 833.224 336.985 843.401 326.721C852.461 317.748 842.022 298.183 831.342 303.982C825.958 306.805 823.66 313.83 826.899 317.66C830.138 321.6 837.163 321.511 837.163 317.572C837.163 315.865 835.697 314.421 833.99 314.421C832.283 314.421 830.926 313.48 830.926 312.276C830.926 311.007 833.049 310.307 835.544 310.657C839.22 311.16 840.228 312.714 840.228 317.572C840.228 323.131 839.549 323.832 832.808 324.335C824.93 325.014 821.691 322.191 801.25 297.067C788.185 280.916 774.835 277.391 764.746 287.48C757.743 294.505 756.802 303.807 762.535 308.95C770.13 315.866 780.394 311.336 779.037 301.685C778.096 295.272 769.035 293.652 769.035 299.889C769.035 302.187 768.094 304.157 766.978 304.157C763.892 304.157 764.483 296.716 767.919 293.893C776.301 286.978 788.01 298.511 783.217 309.038C778.512 319.455 760.479 319.214 754.745 308.6C749.186 298.183 754.329 281.769 764.834 276.386C781.51 267.741 800.396 276.297 816.394 299.626C821.078 306.476 821.078 306.476 825.608 302.187C835.96 292.536 851.52 300.918 851.52 316.303C851.52 331.951 836.31 341.098 821.691 334.336ZM232.24 261.504C229.089 253.888 227.294 246.972 228.148 246.119C229.001 245.265 235.063 246.971 241.651 249.97C257.714 257.236 261.129 254.15 249.595 242.616L241.301 234.235L248.479 227.91C252.506 224.408 256.599 222.089 257.627 222.767C260.713 224.649 259.947 229.88 256.599 229.88C253.009 229.88 250.624 233.294 252.331 236.03C253.097 237.299 255.067 237.146 257.54 235.592C262.858 232.265 265.746 235.679 260.713 239.356C257.539 241.763 257.299 242.857 259.334 244.914C261.391 246.971 262.595 246.534 265.418 242.77C268.241 239.028 269.511 238.59 271.48 240.559C273.537 242.617 274.041 242.18 274.041 238.765C274.041 236.292 270.802 230.886 266.775 226.706C262.858 222.439 259.597 218.85 259.597 218.499C259.597 217.383 269.182 211.825 273.275 210.556C278.418 208.936 284.83 214.056 283.101 218.411C282.423 220.118 284.48 222.264 288.331 223.971C291.833 225.503 294.656 227.56 294.656 228.413C294.656 231.762 288.244 232.353 284.83 229.442C282.86 227.735 279.949 226.794 278.417 227.385C276.185 228.151 276.623 229.267 280.037 231.828C284.655 235.263 284.655 235.264 271.918 245.265C264.98 250.736 257.036 257.563 254.388 260.474C250.033 265.179 249.332 265.355 248.063 262.269C247.035 259.446 246.094 259.184 243.861 261.066C241.651 262.86 241.563 264.152 243.27 266.297C245.065 268.419 244.978 269.885 243.008 272.183C239.091 276.976 238.324 276.211 232.153 261.504H232.24ZM277.214 221.498C279.359 218.084 274.566 214.057 271.743 216.967C269.335 219.353 270.889 223.708 274.041 223.708C275.069 223.708 276.448 222.68 277.214 221.498ZM710.646 263.298C708.764 261.153 707.211 257.148 707.211 254.237C707.211 248.175 716.271 238.152 721.917 238.152C726.885 238.152 734.392 245.768 733.626 249.97C732.597 255.091 727.826 255.682 727.826 250.648C727.826 243.558 721.654 242.857 716.03 249.357C712.178 253.799 711.653 255.682 713.535 258.002C716.621 261.678 720.298 261.678 718.919 258.002C717.125 253.384 719.947 252.269 724.062 256.033C727.563 259.184 727.651 259.708 724.39 263.21C720.035 268.09 715.001 268.091 710.646 263.298ZM696.968 249.62C695.239 247.563 695.174 245.506 696.706 242.705C698.763 238.765 697.909 236.117 694.473 236.117C693.532 236.117 692.766 237.999 692.766 240.209C692.766 245.002 690.884 245.44 685.763 241.676C682.415 239.181 682.677 238.415 689.527 230.974C693.532 226.531 696.88 221.673 696.88 220.207C696.88 215.501 702.505 217.296 707.977 223.796C713.535 230.471 713.294 234.913 706.969 238.239C704.475 239.618 703.03 242.616 703.03 246.446C703.03 253.121 700.798 254.325 696.968 249.62ZM705.853 232.353C707.911 229.179 703.446 224.562 700.886 227.144C699.529 228.501 699.091 230.558 699.857 231.762C701.499 234.41 704.475 234.739 705.941 232.441L705.853 232.353ZM666.876 226.969C663.878 222.439 663.878 221.41 666.876 215.764C668.583 212.35 670.969 209.001 671.997 208.322C673.114 207.644 673.442 205.763 672.851 204.056C671.231 199.854 677.119 200.204 680.62 204.406C682.765 207.054 682.852 208.061 680.97 208.674C679.613 209.089 676.527 212.677 674.142 216.529C669.765 223.554 670.028 227.823 674.82 227.823C677.469 227.735 686.529 214.91 686.529 211.146C686.529 209.877 687.974 209.351 689.768 210.029C691.563 210.73 693.445 211.321 693.97 211.321C694.386 211.321 694.823 212.678 694.823 214.407C694.823 216.114 693.97 217.471 692.941 217.471C691.825 217.471 689.002 220.731 686.529 224.736C680.97 233.709 671.997 234.739 666.876 226.969ZM245.152 223.971C245.152 221.673 246.093 219.266 247.21 218.588C248.326 217.909 249.267 219.09 249.267 221.41C249.267 223.708 248.326 226.116 247.21 226.794C246.093 227.473 245.152 226.29 245.152 223.971ZM297.392 221.498C291.921 219.441 286.449 211.737 286.449 206.025C286.449 196.352 300.981 191.143 307.568 198.497C318.161 210.205 310.982 226.532 297.392 221.498ZM306.19 214.56C307.481 211.496 303.717 203.027 300.127 200.642C297.567 199 292.599 202.523 292.599 206.025C292.599 209.942 298.836 217.558 302.097 217.558C303.717 217.558 305.599 216.202 306.19 214.56ZM647.114 216.792C635.997 211.321 642.846 190.728 655.759 190.728C659.764 190.728 662.762 192.347 665.081 195.849C668.145 200.554 668.146 201.495 664.644 208.585C660.201 217.383 654.205 220.294 647.202 216.792H647.114ZM656.875 209.789C660.114 205.587 660.617 197.643 657.728 195.936C654.993 194.229 647.377 202.261 647.377 206.878C647.377 214.057 652.41 215.589 656.875 209.789ZM317.986 210.556C319.277 207.207 311.661 190.728 308.925 190.728C304.133 190.728 307.897 186.7 315.425 183.702C321.575 181.229 324.748 180.88 327.725 182.521C333.043 185.322 332.955 194.053 327.659 197.38C322.516 200.553 322.341 204.231 327.134 206.113C330.307 207.295 330.132 207.908 325.602 210.381C318.927 214.057 316.629 214.145 317.986 210.556ZM325.252 190.026C325.602 188.057 324.573 186.612 322.779 186.612C318.927 186.612 316.629 189.94 318.423 192.85C320.305 195.936 324.398 194.141 325.252 190.026ZM621.049 204.143C614.965 201.495 611.814 196.878 616.081 196.878C617.876 196.878 624.048 184.14 625.054 178.055C625.667 174.817 626.17 174.817 632.933 178.055C640.702 181.732 643.35 188.671 638.995 193.967C637.638 195.674 637.025 197.555 637.725 198.233C639.936 200.466 634.99 207.207 631.313 207.141C629.343 207.054 624.726 205.762 621.049 204.143ZM631.554 199.7C633.436 197.818 628.731 192.588 626.52 193.967C623.697 195.674 624.376 201.057 627.461 201.057C628.906 201.057 630.788 200.378 631.554 199.7ZM635.909 188.911C636.522 187.904 635.669 186.022 634.115 184.643C630.876 181.995 627.637 185.082 629.847 188.671C631.379 191.231 634.377 191.318 635.909 188.911ZM341.074 195.586C329.519 183.965 336.106 166.61 350.397 171.14C354.927 172.585 360.64 182.083 360.64 188.233C360.64 197.293 347.662 202.173 341.074 195.586ZM353.549 190.64C354.227 189.348 353.812 185.672 352.345 182.346C349.369 175.168 342.103 173.876 342.103 180.551C342.103 189.786 349.872 196.527 353.549 190.64ZM604.373 197.118C602.075 195.674 602.163 194.316 605.051 189.436C608.641 183.527 608.64 183.527 603.432 189.436C597.457 196.352 593.868 195.171 593.43 185.935C593.08 179.698 593.08 179.698 592.227 185.082C591.723 188.758 590.191 190.728 587.784 190.728C581.897 190.728 581.722 189.085 586.602 179.084C589.075 173.875 590.695 167.814 590.104 165.669C589.25 162.343 589.841 162.08 594.021 163.612C598.048 165.078 598.989 167.026 599.493 174.904L600.105 184.38L606.43 177.29C613.258 169.433 613.958 169.171 618.488 172.169C620.874 173.788 620.962 174.554 618.992 175.933C617.548 176.786 615.228 182.433 613.871 188.233C611.288 198.934 609.669 200.466 604.285 197.118H604.373ZM288.747 191.647C289.185 189.611 290.717 187.554 292.249 187.05C294.044 186.438 294.831 187.379 294.306 189.786C293.956 191.821 292.336 193.879 290.892 194.382C289.097 194.995 288.332 194.054 288.747 191.647ZM365.257 187.05C365.345 183.877 363.725 177.815 361.756 173.526C357.488 164.553 357.751 164.137 367.577 162.495C376.375 161.138 381.255 164.29 381.255 171.315C381.255 173.963 383.225 177.902 385.61 180.113C389.703 183.964 389.703 184.227 386.114 186.262C383.05 187.991 381.43 187.291 377.841 182.848C375.434 179.85 372.698 177.968 371.845 178.844C370.991 179.697 371.932 182.258 373.989 184.468C377.578 188.408 377.491 188.671 372.107 190.728C364.754 193.463 365.017 193.616 365.17 187.05H365.257ZM374.164 171.994C375.959 169.083 372.02 165.078 369.197 166.873C366.811 168.317 368.343 174.226 371.079 174.226C372.02 174.226 373.376 173.198 374.164 171.994ZM563.863 184.468C553.424 181.995 549.398 180.201 549.398 177.815C549.31 172.935 546.575 171.053 545.13 174.993C544.364 176.962 541.541 178.319 538.368 178.319C532.984 178.319 532.984 178.319 539.484 171.819C545.896 165.407 545.896 165.319 542.657 158.491C538.893 150.547 539.484 149.167 545.896 150.874C549.31 151.728 550.186 153.107 549.31 155.93C547.866 160.46 551.542 161.227 553.25 156.697C554.541 153.195 562.835 152.429 562.835 155.755C562.835 156.959 560.515 159.935 557.692 162.43C552.834 166.785 552.746 167.288 555.723 174.051C557.517 178.143 559.487 180.375 560.515 179.259C563.689 175.845 567.103 162.583 565.724 159.081C564.192 154.989 566.599 154.814 577.542 158.053C585.136 160.372 587.784 164.291 583.429 167.026C582.313 167.727 581.372 167.376 581.372 166.348C581.372 165.232 579.489 163.874 577.279 163.283C572.311 161.992 571.37 167.552 576.251 169.346C581.547 171.404 579.84 175.846 574.106 174.729C570.342 174.051 568.985 174.642 568.985 177.05C568.985 180.201 571.195 181.23 576.6 180.639C579.752 180.201 581.459 183.112 579.665 185.76C578.724 187.117 573.165 186.613 563.863 184.468ZM255.241 184.993C255.066 184.227 254.738 181.492 254.475 178.997C253.709 172.082 238.74 147.811 234.472 146.695C228.739 145.228 229.942 142.077 238.062 137.284C246.356 132.404 249.332 133.104 248.917 139.757C248.742 142.252 252.068 150.109 256.27 157.112C263.448 169.346 264.039 169.849 269.007 167.551C271.918 166.26 273.713 164.049 273.187 162.495C272.596 161.051 273.888 158.907 276.098 157.725C279.424 155.931 280.541 156.521 283.189 161.555C286.275 167.551 286.274 167.552 270.889 177.05C262.42 182.258 255.329 185.847 255.241 184.993ZM396.049 180.639C396.29 178.844 395.787 173.373 394.846 168.493C393.555 161.315 392.701 160.023 390.491 161.905C388.937 163.196 386.639 163.611 385.435 162.845C380.993 160.11 384.757 156.871 395.262 154.552C404.082 152.582 406.051 152.669 406.992 155.077C408.786 159.76 408.349 160.285 403.819 159.169C399.879 158.053 399.639 158.667 400.908 166.611C401.674 171.404 403.228 176.108 404.169 177.202C407.233 180.463 406.379 181.908 400.821 183.024C396.816 183.79 395.699 183.199 396.049 180.639ZM428.614 177.465C428.614 177.378 428.264 172.672 427.936 167.026C427.586 161.314 426.645 155.165 425.879 153.348C423.734 148.665 436.296 146.694 442.621 150.699C453.826 157.812 449.821 174.226 436.384 176.437C432.204 177.115 428.702 177.64 428.614 177.465ZM441.767 167.726C444.941 162.671 441.68 153.61 436.734 153.61C433.648 153.61 432.795 154.552 433.648 156.872C434.348 158.666 434.939 162.933 434.939 166.259C434.939 172.759 438.178 173.438 441.767 167.726ZM515.804 173.788C514.447 172.431 513.331 165.932 513.331 159.344C513.331 147.964 513.594 147.373 518.452 147.373C523.683 147.373 525.39 150.196 521.538 152.581C520.422 153.282 519.481 158.053 519.481 163.108C519.481 170.878 520.094 172.344 523.07 171.731C525.893 171.227 526.834 168.58 527.359 159.519C527.863 148.489 528.126 148.051 532.984 148.992C538.215 149.933 539.571 152.428 535.982 154.638C534.866 155.317 533.925 158.666 533.925 162.08C533.925 171.403 530.511 176.262 523.924 176.262C520.86 176.262 517.183 175.167 515.804 173.788ZM454.505 163.372C454.505 157.463 454.001 151.137 453.497 149.43C452.71 147.023 454.592 146.258 462.208 145.754C470.918 145.142 472.034 145.579 472.034 149.344C472.034 151.641 471.093 153.61 469.977 153.61C468.883 153.61 467.942 152.756 467.942 151.728C467.942 150.699 466.147 150.283 463.915 150.874C461.529 151.553 460.413 153.107 461.092 154.902C461.77 156.696 463.74 157.375 466.147 156.609C468.795 155.755 469.977 156.347 469.977 158.579C469.977 160.461 468.27 161.817 465.885 161.817C463.499 161.817 461.77 163.196 461.77 164.99C461.77 167.201 463.412 167.967 467.329 167.551C471.356 167.113 473.151 168.054 473.654 170.637C474.354 173.613 472.888 174.226 464.506 174.226C454.505 174.226 454.505 174.227 454.505 163.372ZM489.477 170.287C490.155 168.142 490.921 161.643 491.184 155.843C491.534 146.345 492.125 145.316 496.392 145.316C500.003 145.316 500.944 146.257 500.244 148.905C497.333 159.432 496.83 167.813 499.062 169.17C500.331 169.936 502.126 169.433 502.98 168.055C504.949 164.903 509.151 167.114 509.151 171.228C509.151 173.439 506.481 174.226 498.712 174.226C489.389 174.226 488.36 173.788 489.477 170.287ZM680.97 172.759C678.41 172.256 673.529 169.258 670.115 166.019C652.257 149.255 676.943 112.313 698.588 123.518C708.239 128.486 712.506 135.927 709.53 142.492C706.532 148.992 702.264 147.877 701.411 140.458C700.382 132.404 692.591 129.166 685.5 133.783C673.967 141.399 670.969 159.848 680.708 163.022C686.704 164.904 692.263 158.316 687.558 154.815C685.675 153.348 685.238 151.553 686.354 149.759C687.733 147.461 689.177 147.548 694.386 150.284C703.446 154.989 703.797 156.609 697.975 165.844C692.766 174.051 691.059 174.729 680.97 172.759ZM290.301 156.697C286.777 154.727 282.773 148.993 279.009 140.283C275.748 132.842 272.005 126.78 270.714 126.78C269.335 126.78 267.716 125.4 267.125 123.693C265.418 119.338 282.094 110.694 284.567 114.721C285.508 116.253 285.837 119.338 285.333 121.636C284.83 123.868 286.953 130.872 290.039 137.109C296.013 149.08 303.104 152.342 307.634 145.076C310.37 140.699 299.427 113.692 295.51 115.224C293.365 115.99 289.185 110.519 290.98 109.338C302.163 102.159 307.306 100.277 308.334 103.013C308.925 104.632 308.925 106.776 308.334 107.783C307.722 108.811 309.954 115.399 313.281 122.49C322.253 141.398 321.159 150.46 309.188 156.697C301.747 160.461 297.304 160.461 290.301 156.697ZM642.759 153.283C637.463 151.313 634.377 143.281 638.907 143.281C643.022 143.281 642.846 134.549 638.579 130.369C634.202 125.992 634.202 125.992 631.729 132.076C630.372 135.403 630.022 138.576 630.963 139.166C631.904 139.845 631.992 141.487 631.05 143.019C629.759 145.142 627.79 145.228 620.874 143.106C612.164 140.545 609.669 135.927 615.665 133.607C619.933 131.987 631.466 106.339 630.109 101.371C627.877 92.7486 630.613 91.8066 642.934 97.1904C657.203 103.515 663.878 109.425 663.878 115.749C663.878 120.367 657.466 128.814 653.964 128.814C653.111 128.814 652.673 134.899 653.023 142.252C653.701 156.696 653.264 157.112 642.759 153.283ZM648.23 121.396C653.198 119.513 652.257 111.307 646.698 108.725C642.409 106.842 641.643 107.279 639.673 112.576C637.791 117.543 637.966 118.814 640.877 120.521C645.057 123.016 644.291 122.927 648.23 121.396ZM327.659 144.288C327.659 143.697 329.278 137.547 331.16 130.61C334.662 118.048 334.662 118.047 327.571 112.16C323.632 108.899 318.839 105.66 316.782 105.047C311.486 103.253 312.427 98.1325 318.511 95.8346C327.484 92.3986 331.751 93.2515 331.751 98.4821C331.751 100.955 333.721 104.281 336.194 105.835C340.309 108.396 340.461 108.221 339.542 102.75C339.017 99.5108 337.901 95.3083 337.048 93.4262C335.866 90.603 337.31 89.4218 343.985 87.3646C348.668 85.9858 352.958 85.3076 353.549 85.9861C354.14 86.5989 353.045 92.7485 351.163 99.6642C347.136 114.043 348.165 116.34 362.106 124.985C370.991 130.456 370.729 132.251 360.64 135.227C352.105 137.81 350.31 137.372 349.61 132.667C349.019 128.487 346.283 124.723 343.81 124.723C341.665 124.723 342.278 130.697 345.013 137.284C346.02 139.757 344.488 141.048 338.339 142.931C329.366 145.579 327.659 145.841 327.659 144.288ZM586.077 132.578C573.603 129.339 570.013 117.457 576.338 99.6642C578.045 94.7182 578.986 88.809 578.461 86.511C576.513 78.72 579.664 76.7499 589.338 79.7481C598.901 82.7463 599.58 84.1031 593.868 88.9835C587.959 94.0389 581.984 117.456 585.573 121.636C587.018 123.431 590.191 124.635 592.489 124.285C597.873 123.519 606.692 100.015 604.898 91.2169C603.607 84.8046 605.664 84.1033 616.081 87.78C622.494 90.0123 625.229 95.8346 619.846 95.8346C618.138 95.8346 615.578 101.13 613.433 109.25C607.634 130.609 600.871 136.343 586.077 132.578ZM371.757 126.254C373.552 119.513 366.811 89.662 363.375 89.662C361.931 89.662 360.64 87.8685 360.64 85.7456C360.64 82.5723 363.55 81.2148 376.287 78.3041C393.992 74.3649 397.844 75.0438 397.844 82.1565C397.844 87.6934 392.11 91.2168 390.403 86.7742C389.637 84.717 387.668 84.3657 383.728 85.3943C379.461 86.598 378.345 88.0431 378.761 91.8073C379.548 98.3071 379.876 98.4816 388.346 96.1618C392.373 95.0457 395.699 94.8935 395.699 95.8346C395.699 96.7756 396.29 98.9857 396.903 100.693C397.844 103.013 396.203 104.194 390.732 105.222C384.319 106.426 383.378 107.367 383.378 112.576C383.378 117.543 384.232 118.573 388.346 118.573C391.082 118.573 394.846 117.019 396.64 115.224C400.995 110.869 406.051 113.014 406.051 119.164C406.051 123.519 404.497 124.373 389.966 127.458C369.875 131.814 370.225 131.812 371.757 126.254ZM410.143 118.047C410.143 115.99 411.172 114.371 412.288 114.371C415.439 114.371 412.376 83.2502 408.852 79.1577C403.556 73.0956 405.438 70.8635 415.527 71.4544C425.025 72.1547 425.025 72.1544 431.437 87.5396L437.937 102.925L440.41 93.6893C441.68 88.6339 443.409 81.1268 444.087 77.0125C445.356 69.2433 448.705 67.0117 459.122 67.0117C462.471 66.9241 463.827 68.2151 463.827 71.1258C463.827 73.3362 463.061 75.2186 462.12 75.2186C459.385 75.2186 463.827 106.514 467.088 109.665C471.093 113.779 470.765 116.428 466.147 116.428C464.002 116.428 459.297 117.019 455.796 117.72C450.237 118.814 449.383 118.486 449.383 114.809C449.383 112.489 450.237 110.278 451.353 109.928C452.557 109.512 452.622 105.135 451.703 98.8975C450.061 88.6334 450.062 88.6344 448.53 95.8346C442.205 124.548 439.032 125.838 429.118 103.603C422.53 88.634 422.53 88.6334 423.909 99.926C424.588 106.163 425.966 111.635 426.995 111.985C427.936 112.313 428.702 114.371 428.702 116.428C428.702 119.426 426.732 120.367 419.466 120.871C411.675 121.549 410.143 121.045 410.143 118.047ZM532.481 120.192C521.713 114.983 518.977 95.1342 527.097 81.3029C538.039 62.832 566.928 71.8044 566.928 93.6893C566.928 103.428 560.515 117.369 554.716 120.521C549.66 123.191 538.368 123.015 532.481 120.192ZM551.192 109.753C562.135 92.3983 551.105 69.9217 538.718 84.3658C533.334 90.5155 531.955 107.456 536.42 111.898C540.425 115.925 548.041 114.809 551.192 109.753ZM480.854 117.018C472.034 116.252 468.795 111.986 475.12 109.513C478.797 108.134 479.738 76.3348 476.148 74.1901C475.032 73.5116 474.091 71.4537 474.091 69.6592C474.091 64.8882 503.418 66.9238 509.217 72.1544C513.747 76.2468 514.622 85.3956 510.858 89.1598C509.063 91.0419 509.217 92.4864 511.887 95.4846C520.947 105.398 509.83 119.514 493.919 118.135C491.534 117.96 485.625 117.456 480.854 117.018ZM501.951 102.071C501.951 97.7161 500.857 96.7752 495.298 96.25C488.973 95.5715 488.536 95.9872 488.536 102.071C488.536 108.046 488.973 108.396 495.298 107.783C500.857 107.28 501.951 106.339 501.951 102.071ZM502.301 84.1908C503.833 80.2734 497.508 74.8032 492.65 75.6567C490.921 75.985 489.214 78.8082 488.886 81.9815C488.273 87.015 488.886 87.6277 494.598 87.6277C498.625 87.6277 501.535 86.3356 502.301 84.1908ZM709.268 379.048C709.311 377.91 710.143 374.255 711.15 370.666C712.857 364.691 712.507 363.575 706.532 358.87C699.945 353.749 699.944 353.749 708.677 353.662C716.971 353.662 717.387 353.311 719.794 345.455C722.53 336.482 724.565 336.306 726.71 344.842C728.504 351.867 731.065 353.574 739.797 353.662H746.713L740.213 359.133C733.626 364.604 733.385 366.902 737.477 377.604C738.681 380.843 737.915 380.668 731.24 376.575C723.712 371.87 723.712 371.869 716.446 376.312C712.507 378.785 709.268 380.076 709.268 379.048Z" fill="#383B40"/>
</svg>
