<svg width="959" height="718" viewBox="0 0 959 718" fill="none" xmlns="http://www.w3.org/2000/svg">
<path fill-rule="evenodd" clip-rule="evenodd" d="M405.505 242.907C405.505 236.028 404.606 232.787 402.557 232.055C396.598 229.755 399.943 227.392 409.416 227.392C419.139 227.392 422.485 230.006 415.229 231.888C411.946 232.703 411.298 234.585 411.298 242.824C411.298 250.351 410.65 252.798 408.433 252.798C406.238 252.798 405.505 250.372 405.505 242.991V242.907ZM436.621 716.512C270.318 704.656 124.279 630.318 50.5058 520.14C-16.0528 420.48 -16.8685 302.127 48.3099 203.052C87.7474 143.185 143.307 96.2822 219.338 58.7895C365.88 -13.3312 552.361 -19.5419 704.298 42.6253C730.687 53.478 773.721 75.4553 781.646 82.2303C783.194 83.5477 786.539 85.3458 788.923 86.0777C793.649 87.4578 794.632 90.0089 791.119 92.1209C789.655 93.02 789.822 93.9197 791.62 95.0697C793 95.8853 795.196 95.8012 796.43 94.7347C797.977 93.5219 799.609 93.6684 801.407 95.2995C802.808 96.7005 806.404 99.0633 809.416 100.611C825.998 109.205 879.09 158.282 879.09 165.141C879.09 167.106 879.905 169.323 880.972 169.972C882.122 170.62 882.937 169.971 882.937 168.57C883.021 162.213 916.185 210.308 928.104 233.832C944.686 266.934 955.309 307.187 958.006 347.293C959.386 368.538 955.539 407.014 950.081 426.21C948.367 432.17 946.317 439.593 945.418 442.792C944.603 446.054 941.173 455.694 937.828 464.267C905.646 546.927 818.888 627.955 716.782 670.676C681.422 685.459 678.327 686.275 675.044 681.633C672.346 677.786 667.202 675.82 669.502 679.5C670.151 680.566 668.771 682.365 666.554 683.578C663.208 685.376 661.661 685.063 658.545 682.282C654.802 678.852 654.551 678.852 651.373 682.846C649.574 685.146 646.145 687.906 643.845 689.14C640.165 691.022 639.203 690.771 637.404 687.425C635.752 684.393 635.92 683.264 637.802 682.532C639.203 682.03 649.972 678.434 661.744 674.607C758.602 642.656 833.023 593.16 883.021 527.564C923.441 474.388 942.24 420.732 942.073 358.983C941.989 303.277 924.675 251.083 889.629 200.835C868.237 170.055 827.629 130.345 796.346 109.519C789.822 105.19 781.897 99.8792 778.698 97.6836C766.946 89.4239 755.257 82.3979 752.81 82.0006C751.347 81.7497 748.315 80.3692 745.952 78.8009C731.983 69.7466 676.926 47.9367 643.364 38.1296C589.603 22.5303 543.704 16.2363 481.474 16.1527C407.952 16.0063 358.77 23.4299 294.408 44.5915C130.552 98.4154 22.8199 215.786 16.2749 347.544C8.51702 506.172 148.367 646.901 356.742 690.123C393.9 697.881 440.782 702.941 475.263 702.941C493.393 703.024 493.393 703.025 492.828 710.302C492.243 717.641 492.243 717.641 475.661 717.892C466.523 717.975 448.958 717.39 436.704 716.512H436.621ZM876.162 172.836C875.493 171.77 874.029 170.954 872.963 170.954C871.897 170.954 871.583 171.77 872.231 172.836C872.879 173.965 874.364 174.781 875.41 174.781C876.476 174.781 876.81 173.965 876.162 172.836ZM502.301 713.229C505.646 703.589 510.142 701.644 530.802 700.243C550.249 698.947 602.442 691.022 615.992 687.341C625.381 684.728 631.508 684.979 631.508 687.823C631.508 689.224 633.39 691.503 635.69 692.904C637.969 694.284 639.035 696.166 638.136 697.065C635.69 699.428 593.283 708.168 568.211 711.514C531.534 716.428 530.237 716.512 530.237 713.563C530.237 708.733 525.742 708.085 522.312 712.413C517.733 718.059 500.335 718.707 502.301 713.145V713.229ZM440.552 693.217C311.721 685.878 191.903 635.964 113.07 556.901C58.8489 502.492 30.9959 445.803 25.601 378.492C14.2465 238.746 125.324 106.989 302.249 50.5511C435.157 8.08162 583.56 15.5046 709.525 70.9595C734.43 82.0003 738.759 84.3634 738.759 87.3954C738.759 91.2221 728.638 88.4405 706.012 78.3198C596.399 29.389 467.505 18.2858 343.673 47.2889C286.984 60.5044 228.33 85.4298 183.33 115.332C98.6209 171.519 46.9926 245.354 35.0736 326.968C32.2925 345.913 33.6097 394.761 37.2691 409.628C45.5288 442.792 62.5921 480.682 82.6873 510.02C94.9409 527.982 137.996 571.518 158.405 586.699C208.235 623.627 271.782 653.111 336.312 669.128C417.989 689.391 517.398 691.419 598.197 674.607C608.966 672.391 611.015 672.39 613.546 674.921C617.539 678.935 616.808 679.249 596.231 683.41C553.678 691.921 489.148 695.998 440.552 693.217ZM430.828 679.416C356.324 672.892 298.088 656.875 232.993 625.091C155.874 587.452 98.14 534.276 66.6067 471.941C45.1942 429.639 37.7712 396.057 39.6532 349.74C41.2842 307.856 52.1367 270.593 72.4827 236.78C83.8372 217.919 82.6034 219.216 86.5346 220.763C89.3157 221.83 89.1485 222.98 84.7363 230.09C77.2294 242.26 63.1775 272.475 58.598 286.192C50.1083 312.184 47.8083 328.348 47.8919 362.893C47.9756 398.587 51.2376 415.922 63.5749 446.786C125.993 602.967 346.6 699.428 566.246 666.682C594.831 662.437 605.788 661.768 607.335 664.236C609.384 667.498 607.586 668.062 579.566 672.725C530.3 680.964 476.643 683.41 430.828 679.416ZM638.534 668.564C637.886 666.849 637.551 665.281 637.802 665.114C638.137 664.967 651.122 660.639 666.638 655.495C807.22 609.094 906.545 507.072 922.96 392.147C926.557 367.138 926.557 355.72 922.877 327.449C912.003 244.706 853.203 162.694 766.528 109.602C754.442 102.179 752.643 100.13 756.323 97.8507C757.39 97.1816 758.289 97.5996 758.289 98.8124C758.289 100.046 759.355 100.695 760.736 100.214C768.577 97.4327 820.603 135.657 847.975 164.325C957.107 278.602 962.419 422.195 861.859 539.901C814.81 594.958 733.531 645.353 654.949 668.145C639.684 672.558 640.081 672.558 638.534 668.564ZM627.681 660.137C627.681 659.07 628.497 658.171 629.626 658.171C630.692 658.171 631.508 659.07 631.508 660.137C631.508 661.203 630.692 662.102 629.626 662.102C628.497 662.102 627.681 661.203 627.681 660.137ZM635.439 657.272C635.439 655.495 634.289 654.826 632.491 655.495C630.943 656.143 629.626 656.226 629.626 655.725C629.626 654.261 655.451 645.938 661.243 645.52C664.359 645.269 666.638 646.169 666.638 647.57C666.638 648.866 664.191 650.915 661.243 652.128C656.747 653.926 637.405 660.053 635.92 660.137C635.69 660.137 635.439 658.84 635.439 657.272ZM467.819 646.419C467.819 645.687 469.617 643.555 471.75 641.589C474.364 639.226 475.661 635.629 475.661 630.569C475.661 622.247 475.012 621.913 465.624 625.76C453.37 630.82 450.338 631.301 450.338 628.458C450.338 625.175 458.347 617.249 461.609 617.249C462.926 617.249 463.992 615.869 463.992 614.154C463.992 612.272 465.038 611.373 466.606 612.022C470.935 613.673 473.695 609.345 473.695 600.751C473.779 591.278 476.079 587.033 480.324 588.664C482.603 589.563 483.419 592.429 483.419 599.622C483.419 608.362 484.004 609.491 488.165 610.558C490.779 611.206 493.393 613.005 493.958 614.489C494.543 616.037 496.007 617.249 497.22 617.249C500.252 617.249 508.658 625.425 508.742 628.458C508.742 631.803 506.629 631.552 495.108 626.973C489.713 624.861 484.82 623.146 484.318 623.146C483.837 623.146 483.419 626.805 483.419 631.385C483.419 637.595 484.401 640.293 487.35 642.175C493.79 646.169 491.846 647.653 479.508 647.653C473.13 647.653 467.819 647.067 467.819 646.419ZM671.782 644.956C672.346 642.907 676.445 639.644 680.94 637.762C710.424 624.944 750.531 604.118 768.012 592.596C842.496 543.1 887.914 483.129 905.877 410.694C912.819 382.758 913.069 339.452 906.545 311.285C888.646 234.502 834.488 166.04 752.643 116.879C739.177 108.787 731.984 103.224 731.565 100.694C730.834 95.8849 731.084 95.8849 742.188 101.593C767.678 114.495 804.439 141.303 828.946 164.911C926.724 258.925 946.798 379.077 882.77 487.624C845.695 550.523 776.837 606.396 695.871 639.31C671.949 649.033 670.632 649.368 671.782 644.956ZM348.984 558.783C348.984 544.648 349.298 543.163 352.727 543.163C355.592 543.163 357.139 545.463 359.188 552.406L361.802 561.71L364.416 552.406C366.298 545.631 367.929 543.163 370.627 543.163C373.889 543.163 374.307 544.815 374.307 558.783C374.307 571.351 373.721 574.383 371.358 574.383C369.309 574.383 368.41 572.249 368.327 567.022C368.327 559.745 368.326 559.745 365.482 566.29C363.099 571.685 362.137 572.5 359.753 570.535C358.289 569.301 356.659 566.29 356.157 564.011C355.676 561.544 355.257 562.861 355.111 567.022C354.86 572.166 353.961 574.383 351.912 574.383C349.549 574.383 348.984 571.351 348.984 558.783ZM380.998 571.852C380.434 570.284 380.183 563.509 380.497 556.65C380.999 546.613 381.814 544.062 384.511 543.581C387.439 542.933 387.941 544.564 387.941 555.584C387.941 567.921 388.024 568.255 393.335 568.904C401.574 569.803 399.609 573.316 390.387 573.964C384.595 574.382 381.73 573.714 380.998 571.852ZM403.54 558.783C403.54 543.163 403.54 543.163 410.315 543.163C419.704 543.163 424.932 548.809 424.932 558.783C424.932 568.737 419.704 574.383 410.315 574.383C403.54 574.383 403.54 574.383 403.54 558.783ZM416.191 558.783C416.191 551.987 415.376 549.875 412.762 549.373C409.918 548.892 409.332 550.273 409.332 558.783C409.332 567.273 409.918 568.737 412.762 568.172C415.459 567.587 416.191 565.558 416.191 558.783ZM444.462 558.783C444.462 546.195 445.027 543.163 447.41 543.163C449.355 543.163 450.338 545.212 450.338 549.541V555.834L454.436 549.541C456.716 545.86 460.145 543.163 462.278 543.163C466.021 543.163 466.021 543.33 461.86 549.227C457.531 555.27 457.531 555.27 461.693 563.927C466.69 574.132 466.69 574.383 463.01 574.383C461.462 574.383 458.765 571.685 457.113 568.486C453.684 561.794 450.338 562.359 450.338 569.636C450.338 572.584 449.209 574.383 447.41 574.383C445.027 574.383 444.462 571.351 444.462 558.783ZM469.785 558.846C469.785 546.279 470.349 543.163 472.65 543.163C476.476 543.163 477.961 549.624 477.208 562.693C476.727 570.953 475.828 573.483 473.214 573.964C470.182 574.529 469.785 572.814 469.785 558.846ZM488.73 572.981C488.249 572.082 486.367 566.374 484.652 560.247C482.854 554.12 480.888 547.826 480.24 546.111C479.508 544.062 480.324 543.163 483.021 543.163C486.116 543.163 487.434 545.296 489.378 553.388C491.929 564.011 493.226 563.425 496.007 550.356C497.073 545.463 501.799 541.385 503.932 543.497C505.96 545.547 495.756 573.399 492.828 573.964C491.03 574.299 489.232 573.797 488.73 572.981ZM521.58 572.668C520.995 571.769 523.128 567.586 526.306 563.425C533.583 553.869 534.064 548.161 527.54 549.792C521.978 551.172 519.699 549.373 522.626 545.777C526.39 541.302 535.863 542.514 538.309 547.909C540.108 551.841 539.71 553.953 536.281 559.745C531.199 568.339 531.199 568.486 536.113 568.486C538.225 568.486 539.94 569.803 539.94 571.434C539.94 574.696 523.525 575.763 521.643 572.668H521.58ZM545.168 573.065C541.509 569.385 544.039 566.29 549.664 567.524C554.327 568.486 555.56 568.172 555.56 565.642C555.56 563.927 554.243 562.045 552.612 561.397C548.764 559.913 548.848 554.852 552.779 554.852C554.494 554.852 555.56 553.786 555.059 552.406C554.578 551.088 552.194 549.959 549.747 549.959C543.223 549.959 542.638 545.463 548.932 543.916C555.958 542.118 560.453 545.296 560.537 552.154C560.537 555.27 561.269 559.745 562.084 562.129C564.447 568.904 560.37 574.383 552.863 574.383C549.35 574.383 545.921 573.713 545.168 573.065ZM569.194 573.63C569.194 573.316 570.909 567.921 573.105 561.71C575.237 555.416 576.952 550.042 576.952 549.708C576.952 549.289 574.338 548.976 571.159 548.976C567.228 548.976 565.263 548.077 565.263 546.111C565.263 543.916 567.647 543.163 574.903 543.163C585.944 543.163 587.491 544.48 584.061 551.088C582.744 553.702 580.465 559.996 579.085 565.056C577.203 571.915 575.572 574.383 572.874 574.383C570.825 574.383 569.194 574.048 569.194 573.63ZM596.482 563.592C596.482 555.416 595.813 552.886 593.534 552.886C588.787 552.886 590.188 547.178 595.5 544.731C602.107 541.783 602.672 542.849 602.609 557.131C602.525 574.696 602.609 574.383 599.41 574.383C597.131 574.383 596.482 571.852 596.482 563.592ZM427.964 562.777C426.5 560.33 431.142 558.114 435.638 559.097C437.436 559.431 438.816 560.56 438.753 561.627C438.753 564.408 429.511 565.307 427.964 562.777ZM506.776 561.794C506.776 559.682 508.658 558.783 512.84 558.783C520.263 558.783 519.615 563.342 512.004 564.241C508.344 564.659 506.776 563.927 506.776 561.794ZM187.24 469.014C187.24 464.999 187.241 464.999 412.762 465.982C536.846 466.463 668.436 467.049 705.113 467.049C763.098 467.216 771.923 467.529 771.923 470.143C771.923 472.673 738.11 473.008 479.592 473.008C187.24 473.008 187.24 473.008 187.24 469.014ZM453.119 458.705C396.849 440.492 370.292 381.043 395.281 328.996C406.154 306.455 433.359 285.231 458.263 279.919C473.047 276.72 499.687 278.602 513.321 283.913C538.079 293.385 560.202 316.743 568.378 341.898C573.188 356.536 573.271 382.172 568.629 397.458C561.269 421.631 538.225 445.887 513.321 455.694C499.436 461.173 465.937 462.803 453.119 458.705ZM517.315 447.037C550.166 430.769 570.093 395.889 566.015 361.91C560.621 316.429 524.592 283.997 479.592 283.997C413.263 283.997 371.024 354.486 402.975 411.823C413.347 430.455 436.621 448.166 457.615 453.477C461.609 454.544 473.465 455.045 483.92 454.711C501.234 454.23 504.162 453.478 517.315 447.037ZM423.07 429.137C423.07 426.858 426.082 426.294 438.586 426.294H454.186L453.851 415.023C453.537 403.815 453.538 403.815 452.785 414.124C452.053 424.328 452.053 424.328 438.503 424.328C424.932 424.328 424.932 424.328 425.266 415.503C425.433 410.694 426.333 406.763 427.148 406.763C428.047 406.763 428.528 394.028 428.298 378.492C427.88 350.242 427.88 350.241 433.672 350.241C437.269 350.241 438.753 350.89 437.52 352.124C436.537 353.19 435.973 365.423 436.286 380.374C436.872 404.63 437.185 406.763 440.552 406.763C443.981 406.763 444.127 404.965 443.814 378.492C443.479 350.242 443.479 350.241 448.393 350.241C453.119 350.241 453.203 350.639 452.952 362.411C452.722 369.103 453.035 372.7 453.537 370.337C455.085 363.311 464.557 354.654 473.298 352.291C483.335 349.594 491.929 352.772 499.603 361.847C504.831 368.037 504.915 368.455 504.915 397.207V426.294H520.514C533.081 426.294 536.113 426.858 536.113 429.221C536.113 431.605 532.768 432.085 517.566 432.085H499.018V402.999C499.018 371.403 497.889 366.322 489.315 361.261C482.603 357.351 477.145 357.184 470.119 360.864C461.462 365.277 460.062 371.152 460.062 402.915V432.085H441.514C426.416 432.085 423.07 431.605 423.07 429.137ZM506.462 387.232C505.814 350.242 505.814 350.241 510.707 350.241C515.6 350.241 515.6 350.242 515.203 378.492C514.784 405.697 514.868 406.763 518.716 406.763C522.459 406.763 522.626 405.78 522.061 378.492C521.413 350.242 521.413 350.241 526.306 350.241C531.199 350.241 531.2 350.242 530.551 377.593C530.238 392.711 530.718 406.115 531.701 407.328C532.6 408.645 533.667 412.973 533.897 416.967C534.483 424.328 534.482 424.328 520.681 424.328H507.027L506.462 387.232ZM404.272 377.028C404.774 374.979 404.021 372.951 402.39 372.365C398.396 370.818 399.044 367.807 403.289 367.807C405.338 367.807 407.618 366.259 408.35 364.377C409.583 361.094 409.75 361.094 411.549 364.377C412.615 366.259 415.292 367.807 417.592 367.807C421.419 367.807 421.502 368.037 418.407 371.403C416.609 373.348 415.627 376.296 416.191 377.843C417.028 379.976 415.626 380.625 410.315 380.625C404.439 380.625 403.456 380.06 404.188 377.028H404.272ZM542.888 377.53C543.704 374.916 543.139 373.201 541.09 372.449C536.678 370.734 537.264 367.807 541.989 367.807C544.122 367.807 546.485 366.322 547.133 364.607C548.284 361.763 548.451 361.763 550.082 364.607C551.064 366.322 553.595 367.807 555.623 367.807C560.035 367.807 560.704 370.734 556.69 372.303C554.975 372.951 554.327 374.916 554.975 377.363C556.125 381.775 553.762 382.674 550.332 379.328C548.764 377.76 547.782 377.76 546.883 379.328C544.603 382.904 541.592 381.608 542.888 377.53ZM427.315 348.276V334.643H532.182V348.276H427.315ZM422.402 331.443C419.139 328.181 421.419 324.919 426.897 324.919C432.125 324.919 432.773 324.187 432.773 319.127C432.773 316.011 431.874 312.916 430.828 312.247C424.367 308.169 432.94 307.354 479.508 307.354C512.003 307.354 530.237 308.003 530.237 309.32C530.237 310.386 529.485 311.285 528.669 311.285C527.77 311.285 527.122 314.297 527.122 318.061C527.122 324.271 527.54 324.919 532.684 324.919C537.012 324.919 538.142 325.651 537.661 328.264C537.013 331.443 532.517 331.778 480.324 332.196C449.209 332.51 423.133 332.196 422.402 331.38V331.443ZM460.563 320.026C459.58 315.112 459.58 315.112 478.609 315.112C497.554 315.112 497.554 315.112 496.572 320.026C496.091 322.703 496.32 324.919 497.157 324.919C497.972 324.919 499.018 322.222 499.436 319.043C500.335 313.23 500.335 313.23 479.257 313.23C458.096 313.23 458.096 313.23 458.096 319.043C458.096 322.222 458.849 324.919 459.811 324.919C460.71 324.919 461.044 322.703 460.563 320.026ZM187.24 271.325C187.24 269.778 189.206 267.98 191.569 267.499C194.016 266.934 325.376 266.683 483.419 266.934C755.424 267.331 770.856 267.582 771.525 270.844C772.173 274.022 757.222 274.19 479.675 274.19C222.705 274.19 187.24 273.876 187.24 271.325ZM268.186 260.724C267.454 259.573 267.788 258.674 268.917 258.674C269.984 258.674 270.402 257.294 269.754 255.726C269.168 254.095 267.454 252.798 265.906 252.798C264.442 252.798 263.209 251.397 263.209 249.682C263.209 247.32 264.442 246.839 268.102 247.738C274.082 249.285 275.044 243.974 269.168 242.092C263.292 240.21 261.975 233.184 266.722 229.358C270.402 226.326 270.486 225.844 267.621 222.896C263.543 218.902 264.756 217.752 271.531 219.048C276.027 219.948 276.529 220.617 274.563 222.979C272.598 225.342 272.848 226.242 275.546 227.789C279.874 230.173 277.658 233.832 272.765 232.285C267.454 230.57 268.185 234.251 273.915 238.015C279.226 241.444 280.606 249.515 276.361 252.213C275.044 253.028 273.915 255.496 273.915 257.524C273.915 261.706 270.068 263.818 268.186 260.724ZM214.194 252.798C210.2 250.415 208.067 242.259 209.636 235.233C211.016 229.023 218.042 225.029 222.935 227.789C227.263 230.173 225.381 233.268 220.405 231.971C217.54 231.156 216.327 232.201 215.261 236.3C213.546 243.075 216.641 248.135 222.036 247.319C226.615 246.671 227.431 248.783 223.834 252.38C221.053 255.161 218.523 255.245 214.194 252.798ZM341.624 252.631C337.776 251.167 337.295 249.599 337.295 239.144C337.295 230.006 337.943 227.392 340.243 227.392C342.439 227.392 343.088 229.922 343.088 238.328C343.088 252.631 347.75 251.983 348.566 237.512C348.984 230.089 349.946 227.392 352.079 227.392C354.358 227.392 354.86 229.671 354.442 238.412C353.794 250.916 349.465 255.642 341.624 252.631ZM670.318 250.185C667.537 244.058 664.672 243.409 664.672 248.867C664.672 251 663.375 252.798 661.828 252.798C659.444 252.798 658.88 250.017 658.88 239.959C658.88 227.225 658.88 227.224 667.119 227.789C674.061 228.291 675.546 229.107 676.027 232.871C676.445 235.401 675.713 238.579 674.479 240.043C672.764 242.092 672.764 243.807 674.479 246.985C676.027 249.933 676.11 251.899 674.73 253.279C673.329 254.68 671.949 253.781 670.318 250.185ZM669.586 235.233C669.586 233.769 668.436 232.285 667.119 231.804C665.655 231.302 664.672 232.703 664.672 235.233C664.672 237.763 665.655 239.143 667.119 238.662C668.436 238.181 669.586 236.613 669.586 235.233ZM707.56 253.279C699.237 250.498 696.937 236.133 703.796 229.274C708.794 224.214 712.871 224.945 717.932 231.72C721.11 235.965 721.528 238.182 720.064 243.159C718.099 250.017 712.139 254.826 707.56 253.279ZM715.401 240.126C715.401 234.334 711.073 230.57 707.894 233.686C702.667 238.914 707.309 251.167 712.787 246.672C714.168 245.438 715.401 242.51 715.401 240.126ZM230.044 240.126C230.044 230.173 230.693 227.392 232.993 227.392C234.791 227.392 235.92 229.274 235.92 232.285C235.92 235.317 236.987 237.199 238.869 237.199C240.667 237.199 241.817 235.317 241.817 232.285C241.817 229.274 242.863 227.392 244.661 227.392C246.961 227.392 247.609 230.173 247.609 240.126C247.609 250.101 246.961 252.798 244.661 252.798C242.863 252.798 241.817 250.916 241.817 247.884C241.817 244.873 240.667 242.991 238.869 242.991C236.987 242.991 235.92 244.873 235.92 247.884C235.92 250.916 234.791 252.798 232.993 252.798C230.693 252.798 230.044 250.017 230.044 240.126ZM253.485 240.126C253.485 230.173 254.071 227.392 256.434 227.392C258.713 227.392 259.299 230.173 259.299 240.126C259.299 250.101 258.713 252.798 256.434 252.798C254.071 252.798 253.485 250.017 253.485 240.126ZM282.739 240.126C282.739 230.173 283.304 227.392 285.583 227.392C287.967 227.392 288.531 230.173 288.531 240.126C288.531 250.101 287.967 252.798 285.583 252.798C283.304 252.798 282.739 250.017 282.739 240.126ZM294.408 240.293C294.408 225.593 297.607 223.147 302.897 233.77L306.013 240.126V233.77C306.096 229.441 306.996 227.476 309.024 227.476C311.324 227.476 311.972 230.173 311.972 240.126C311.972 250.184 311.324 252.798 308.961 252.798C307.309 252.798 304.946 250.415 303.65 247.654C301.266 242.427 301.266 242.426 300.221 246.985C299.635 249.452 298.088 251.899 296.791 252.296C295.056 252.882 294.408 249.515 294.408 240.293ZM314.753 249.118C315.402 247.152 317.033 241.673 318.434 236.948C322.177 223.795 326.589 224.694 331.001 239.478C334.598 251.815 333.385 256.792 328.304 249.85C325.69 246.42 319.73 246.985 319.73 250.749C319.73 251.899 318.35 252.798 316.719 252.798C314.586 252.798 314.022 251.648 314.753 249.202V249.118ZM368.41 240.126C368.41 230.173 369.079 227.476 371.358 227.476C373.638 227.476 374.307 230.173 374.307 240.126C374.307 250.101 373.638 252.798 371.358 252.798C369.079 252.798 368.41 250.101 368.41 240.126ZM378.635 239.729C379.283 224.36 382.211 222.08 387.773 232.619C391.705 240.042 391.705 240.043 391.768 233.77C391.768 229.441 392.75 227.392 394.799 227.392C397.079 227.392 397.664 230.173 397.664 240.043C397.664 251.167 397.246 252.798 394.067 252.798C391.704 252.798 389.405 250.184 387.439 245.437L384.428 238.182L384.26 245.437C384.093 250.665 383.194 252.798 381.082 252.798C378.552 252.798 378.133 250.415 378.635 239.729ZM421.105 240.043C421.105 227.392 421.105 227.392 428.863 227.392C433.191 227.392 436.704 228.291 436.704 229.358C436.704 230.403 434.488 231.302 431.811 231.302C428.779 231.302 426.897 232.452 426.897 234.25C426.897 235.881 428.612 237.199 430.828 237.199C433.024 237.199 434.739 238.495 434.739 240.043C434.739 241.757 432.94 242.991 430.661 242.991C425.35 242.991 426.897 247.654 432.459 248.554C439.715 249.599 437.039 252.798 428.863 252.798C421.105 252.798 421.105 252.798 421.105 240.043ZM440.552 239.959C440.552 227.141 440.552 227.141 447.641 227.789C456.381 228.542 460.229 233.351 456.549 239.144C454.834 241.925 454.666 244.141 456.151 246.839C458.765 251.732 458.598 252.798 455.399 252.798C453.935 252.798 451.321 250.749 449.69 248.386C446.595 243.974 446.595 243.974 446.511 248.386C446.428 250.917 445.194 252.798 443.479 252.798C441.2 252.798 440.552 250.017 440.552 239.959ZM451.321 235.233C451.321 233.769 450.171 232.285 448.874 231.804C447.41 231.302 446.428 232.703 446.428 235.233C446.428 237.763 447.41 239.143 448.874 238.662C450.171 238.181 451.321 236.613 451.321 235.233ZM462.425 239.646C463.01 225.113 464.892 223.628 470.182 233.519L473.695 240.043V233.77C473.695 229.441 474.594 227.392 476.644 227.392C478.923 227.392 479.508 230.173 479.508 240.043C479.508 254.262 476.162 257.126 470.935 247.403C467.986 242.008 467.987 242.008 467.903 247.403C467.903 250.916 466.836 252.798 464.808 252.798C462.341 252.798 461.944 250.415 462.425 239.646ZM482.373 250.352C489.148 228.688 489.797 227.224 492.891 227.789C497.303 228.688 504.015 252.798 499.771 252.798C498.202 252.798 496.488 251.397 495.84 249.85C495.191 248.219 493.644 246.901 492.243 246.901C490.863 246.901 489.232 248.219 488.563 249.85C487.266 253.363 481.306 253.781 482.373 250.352ZM506.86 242.991C506.86 236.049 505.96 232.787 503.932 232.055C497.889 229.755 501.318 227.392 510.707 227.392C516.102 227.392 520.514 228.291 520.514 229.358C520.514 230.403 519.28 231.302 517.733 231.302C514.22 231.302 512.672 235.631 512.672 245.124C512.672 250.582 511.857 252.798 509.724 252.798C507.529 252.798 506.86 250.351 506.86 242.991ZM522.396 240.043C522.396 230.173 523.044 227.392 525.324 227.392C527.624 227.392 528.272 230.173 528.272 240.043C528.272 250.017 527.624 252.798 525.324 252.798C523.044 252.798 522.396 250.017 522.396 240.043ZM535.946 249.682C531.618 244.538 532.684 233.267 537.828 229.106C543.537 224.527 544.938 224.527 549.664 229.358C553.909 233.602 554.808 242.907 551.546 248.95C549.099 253.614 539.543 254.011 535.946 249.599V249.682ZM547.384 238.328C546.652 230.486 541.174 230.173 540.275 237.847C539.94 240.858 540.191 244.706 540.839 246.337C542.889 251.564 548.032 245.187 547.384 238.328ZM557.923 239.646C558.174 232.369 559.387 226.493 560.453 226.577C561.52 226.66 564.364 230.173 566.831 234.334C571.306 242.008 571.306 242.009 570.742 235.401C570.407 231.386 571.16 228.375 572.623 227.873C574.422 227.308 575.07 230.57 575.07 239.959C575.07 254.513 571.975 256.959 566.747 246.42L563.632 240.126L563.465 246.42C563.402 250.749 562.419 252.798 560.37 252.798C557.84 252.798 557.421 250.415 557.923 239.646ZM579.817 247.403C584.145 229.503 585.044 227.392 588.474 227.392C591.171 227.392 592.886 230.257 595.249 238.747C596.963 244.957 598.427 250.665 598.427 251.397C598.427 254.011 592.969 252.714 591.903 249.85C591.255 248.219 589.456 246.901 587.742 246.901C586.09 246.901 584.793 248.219 584.793 249.85C584.793 251.397 583.413 252.798 581.698 252.798C579.231 252.798 578.834 251.564 579.817 247.403ZM589.603 241.193C590.189 240.21 589.77 238.83 588.704 238.182C587.658 237.513 586.759 238.244 586.759 239.959C586.759 243.409 587.888 243.89 589.603 241.193ZM601.292 244.225C599.745 233.916 600.476 229.023 603.822 227.873C605.537 227.308 606.185 229.922 606.185 236.864C606.185 245.437 606.77 246.755 610.451 247.236C617.874 248.386 617.058 252.798 609.468 252.798C602.839 252.798 602.526 252.464 601.292 244.225ZM626.615 249.118C627.263 247.152 628.894 241.673 630.211 236.948C633.808 224.443 638.367 224.611 642.13 237.345C643.845 242.991 645.246 248.784 645.246 250.185C645.246 253.698 641.482 253.446 640.081 249.85C639.433 248.219 637.718 246.901 636.171 246.901C634.623 246.901 632.909 248.219 632.24 249.85C630.525 254.178 625.235 253.53 626.615 249.118ZM649.073 240.126C649.073 230.173 649.721 227.392 652.021 227.392C654.3 227.392 654.949 230.173 654.949 240.126C654.949 250.017 654.3 252.798 652.021 252.798C649.721 252.798 649.073 250.017 649.073 240.126ZM680.272 240.126C680.272 227.392 680.271 227.392 686.9 227.392C690.497 227.392 694.574 228.688 695.871 230.34C699.468 234.732 696.707 242.74 690.978 244.141C687.967 244.957 686.168 246.755 686.168 249.034C686.168 251.083 684.851 252.798 683.22 252.798C680.941 252.798 680.272 250.017 680.272 240.126ZM690.978 235.233C690.978 233.769 689.911 232.285 688.531 231.804C687.13 231.302 686.168 232.703 686.168 235.233C686.168 237.763 687.13 239.143 688.531 238.662C689.911 238.181 690.978 236.613 690.978 235.233ZM723.159 246.169C723.159 242.573 723.724 236.78 724.393 233.435C725.522 227.726 726.191 227.224 732.715 227.789C739.741 228.375 739.741 228.375 739.741 238.182C739.741 243.472 740.473 248.951 741.289 250.352C742.355 251.983 741.707 252.798 739.177 252.798C737.127 252.798 734.514 250.749 733.364 248.386C731.252 243.974 731.252 243.974 731.084 248.386C731.001 251.397 729.788 252.798 727.09 252.798C723.891 252.798 723.159 251.481 723.159 246.169ZM733.301 232.871C731.502 231.072 730.917 231.553 730.917 235.233C730.917 238.83 731.502 239.394 733.301 237.596C735.078 235.714 735.078 234.732 733.301 232.871ZM748.482 243.242C748.482 236.53 747.583 233.351 745.534 232.536C739.407 230.173 743.087 227.392 752.413 227.392C762.199 227.392 765.879 230.738 758.205 232.703C755.027 233.603 754.358 235.401 754.358 243.242C754.358 250.415 753.626 252.798 751.43 252.798C749.214 252.798 748.482 250.415 748.482 243.242ZM164.301 211.876C156.523 202.404 150.166 193.893 150.166 192.91C150.166 189.564 166.581 178.712 171.641 178.712C178.416 178.712 185.944 186.783 185.944 193.977C185.944 198.723 187.324 200.354 194.35 203.783C203.342 208.112 204.408 209.994 199.996 213.675C197.863 215.473 195.5 215.055 189.122 211.793C177.601 205.917 173.105 208.028 180.549 215.87C184.961 220.449 185.693 222.415 184.062 224.946C180.465 230.57 178.667 229.441 164.301 211.876ZM175.154 195.858C175.886 189.732 170.345 186.867 166.016 191.196C163.402 193.809 163.486 194.562 166.748 198.138C171.244 203.135 174.339 202.32 175.154 195.858ZM774.453 226.325C773.888 224.61 774.286 221.182 775.436 218.735C777.067 214.971 776.837 213.507 773.888 210.894C770.626 207.945 769.727 207.861 764.583 210.559C760.254 212.859 758.289 213.005 756.574 211.291C752.413 207.129 754.441 205.018 773.972 192.597C802.557 174.467 806.153 177.645 791.62 208.593C782.064 228.856 777.318 233.769 774.453 226.325ZM785.326 200.835C788.254 194.311 787.522 193.747 781.813 198.075C779.2 200.02 777.798 202.466 778.551 203.783C780.747 207.296 782.796 206.397 785.326 200.835ZM319.897 222.729C318.015 220.449 318.831 219.948 324.644 219.948C330.353 219.948 331.168 220.449 329.286 222.729C328.074 224.213 325.941 225.426 324.644 225.426C323.243 225.426 321.131 224.213 319.897 222.729ZM85.8866 217.334C85.8866 214.72 98.872 196.925 109.076 185.487C178.751 107.887 281.506 58.0574 409.416 40.0115C437.854 36.0176 527.038 36.5828 555.56 40.9949C615.427 50.2165 676.194 68.1991 716.635 88.6915C726.024 93.4382 727.007 94.4209 724.309 96.7002C722.344 98.3312 721.194 98.4988 721.194 97.0978C721.194 95.9686 720.064 95.3834 718.663 95.9689C717.283 96.4499 707.225 93.0204 696.456 88.211C656.998 70.7297 610.116 57.4092 560.453 49.5677C520.598 43.3573 438.67 43.4415 397.894 49.7356C309.275 63.4529 232.177 94.3378 168.944 141.303C145.921 158.45 113.74 189.251 101.068 206.23C92.0134 218.484 85.8866 222.896 85.8866 217.334ZM197.131 183.856L183.56 163.593L193.785 156.484C205.704 148.329 205.955 148.245 208.569 153.222C210.367 156.484 209.636 157.801 203.823 161.711C197.696 165.873 197.298 166.71 199.661 169.972C202.191 173.485 202.526 173.484 207.67 170.055C212.563 166.856 213.211 166.855 216.16 169.72C219.108 172.669 218.857 173.233 213.713 177.311C208.736 181.326 208.402 182.225 210.765 185.968C213.379 190.15 213.379 190.15 219.84 186.135C226.531 181.974 232.01 182.392 232.01 187.034C232.01 189.251 221.952 197.573 213.149 202.717C211.58 203.616 206.039 197.009 197.131 183.856ZM735.162 194.792C731.001 191.363 731.001 191.363 738.591 168.988C742.774 156.651 747.018 146.363 748.084 146.028C749.046 145.715 751.012 146.844 752.476 148.559C754.776 151.34 754.441 153.703 750.531 164.744C748.001 171.854 745.534 179.026 744.969 180.678C744.488 182.225 749.297 178.461 755.759 172.167C767.28 160.98 774.787 158.199 774.787 165.141C774.787 167.671 768.828 173.317 742.439 195.608C739.741 197.908 738.675 197.74 735.162 194.792ZM238.304 176.266C228.895 160.499 220.321 144.001 220.321 141.387C220.321 138.438 235.69 129.949 241.002 129.949C242.633 129.949 246.627 132.562 249.742 135.657C257.417 143.331 257.333 151.026 249.408 158.784C243.532 164.493 243.532 164.743 246.459 170.619C250.391 178.063 250.39 178.127 245.811 180.594C242.716 182.225 241.483 181.556 238.304 176.266ZM245.644 148.559C245.644 143.415 239.935 139.504 235.774 141.7C232.261 143.582 232.177 144.147 235.021 149.541C237.551 154.455 238.618 155.02 241.817 153.305C243.929 152.155 245.644 150.043 245.644 148.559ZM697.586 173.881C685.102 166.939 686.168 148.977 699.718 135.343C718.015 117.109 739.344 135.26 727.237 158.784C719.73 173.484 707.727 179.527 697.586 173.881ZM710.655 164.158C716.635 159.997 722.427 146.028 719.897 141.951C716.468 136.472 709.191 138.02 704.214 145.38C699.384 152.49 698.255 164.096 702.249 165.727C706.012 167.274 706.494 167.19 710.655 164.158ZM274.396 155.752C272.681 153.87 268.039 145.046 263.941 136.159C257.897 122.672 257.165 119.577 259.445 118.176C265.007 114.663 266.806 116.544 273.413 132.395C279.226 146.196 280.857 148.475 284.851 148.475C291.794 148.475 291.794 141.7 284.768 126.749C277.909 112.049 277.511 109.435 282.07 107.72C286.566 105.922 287.632 107.49 295.307 126.184C302.5 143.498 302.5 147.43 295.809 154.769C290.811 160.248 278.975 160.812 274.396 155.752ZM653.485 151.842C648.906 150.044 645.246 147.743 645.246 146.698C645.246 141.784 662.058 104.71 664.275 104.71C668.77 104.626 682.07 112.3 684.119 116.21C689.828 126.916 682.885 146.844 671.384 152.322C663.856 155.835 664.024 155.836 653.485 151.842ZM671.949 137.957C678.41 128.318 677.176 116.294 669.669 116.294C667.118 116.377 656.6 141.47 658.064 143.917C660.343 147.576 667.537 144.398 671.949 137.957ZM309.526 123.822C305.595 111.882 302.751 101.426 303.148 100.694C304.779 98.0805 321.529 94.421 326.275 95.6338C331.252 96.8676 336.647 106.737 334.347 110.418C333.615 111.651 335.246 114.746 338.111 117.276C344.154 122.922 344.718 131.83 339.344 136.64C335.831 139.902 323.159 145.296 318.664 145.464C317.618 145.547 313.436 135.741 309.526 123.822ZM331.419 131.015C334.848 126.833 332.402 122.191 326.756 122.191C320.797 122.191 319.73 123.821 321.863 129.446C323.745 134.507 327.906 135.176 331.419 131.015ZM325.209 110.021C325.941 106.257 321.277 103.643 316.949 105.274C315.234 105.922 314.586 107.887 315.235 110.501C316.552 115.478 324.226 115.165 325.209 110.021ZM620.321 140.404C615.825 138.773 612.082 136.389 612.082 135.093C612.082 132.395 625.151 92.8526 626.531 91.4725C626.949 91.0543 629.061 91.6401 631.194 92.7693C635.021 94.8185 635.021 94.9861 630.211 109.937C627.514 118.26 624.9 126.519 624.335 128.234C623.75 130.43 625.151 131.83 628.978 132.792C636.171 134.59 639.349 137.372 638.053 140.801C636.735 144.314 631.027 144.147 620.321 140.32V140.404ZM356.24 132.562C353.961 128.799 345.053 88.6079 346.119 86.9768C346.768 85.994 348.901 85.1786 350.845 85.1786C353.877 85.1786 355.257 88.441 358.854 103.81C363.183 122.421 363.183 122.421 370.941 121.124C376.503 120.142 379.116 120.559 380.35 122.42C383.696 127.648 383.194 127.899 362.367 132.959C359.523 133.629 356.742 133.462 356.24 132.562ZM579.649 130.032C570.093 126.101 566.894 114.098 571.243 98.4149C573.439 90.4898 582.912 81.2687 588.955 81.2687C600.957 81.2687 609.949 94.0027 607.168 107.072C603.09 126.184 592.384 135.176 579.649 130.032ZM592.468 117.047C597.214 110.92 597.946 96.6167 593.701 93.0201C585.609 86.3287 575.07 107.406 580.946 118.426C583.727 123.57 587.658 123.09 592.468 117.047ZM390.952 124.302C389.739 122.274 383.926 90.8245 383.445 83.2131C382.964 76.3544 391.203 74.9743 392.75 81.582C395.866 95.7176 399.609 122.588 398.647 124.219C397.162 126.603 392.437 126.665 390.952 124.302ZM546.819 122.191C546.067 121.041 545.983 115.478 546.569 109.937L547.719 99.7116L543.537 109.038C537.577 122.504 533.249 121.605 529.569 106.089L526.724 93.9192L526.557 103.978C526.223 116.628 524.843 120.225 520.347 120.225C514.868 120.225 514.785 118.907 518.214 94.9019C521.413 72.8412 521.581 72.5275 526.306 73.1758C532.601 74.0749 532.036 73.1759 534.649 86.8932C535.946 93.4382 537.577 98.8124 538.309 98.8124C539.125 98.8124 541.655 93.5219 544.038 86.9768C547.865 76.3543 548.764 75.225 553.344 75.7896C558.404 76.3542 558.404 76.3543 557.84 92.9364C556.94 114.495 555.142 123.006 551.211 123.738C549.497 124.052 547.468 123.404 546.736 122.191H546.819ZM417.759 119.242C411.298 114.746 406.718 100.611 408.286 90.1554C410.482 75.288 423.969 67.3 434.425 74.6396C440.133 78.6545 436.537 84.1123 429.344 82.2303C422.088 80.4529 419.139 84.2793 419.139 95.8011C419.139 109.351 427.315 117.109 434.258 110.167C435.972 108.452 437.269 108.536 439.569 110.501C442.329 112.781 442.183 113.533 438.335 117.611C433.359 122.922 424.032 123.654 417.759 119.242ZM450.422 118.343C448.54 117.193 449.125 112.551 453.119 97.6C460.061 71.4617 461.128 69.1614 466.355 69.9142C469.868 70.4788 471.667 73.8244 476.894 90.0093C480.407 100.778 483.252 111.484 483.335 113.931C483.502 120.225 476.163 119.807 473.695 113.45C471.082 106.591 461.044 106.424 459.33 113.199C458.012 118.426 454.186 120.622 450.422 118.343ZM468.551 93.4386C467.171 87.6255 466.272 85.9945 465.206 87.2282C464.808 87.7092 463.909 90.4902 463.24 93.4386C462.111 97.9135 462.592 98.8124 465.938 98.8124C469.22 98.8124 469.701 97.9135 468.551 93.4386Z" fill="#22924A"/>
</svg>
