<svg width="966" height="969" viewBox="0 0 966 969" fill="none" xmlns="http://www.w3.org/2000/svg">
<path fill-rule="evenodd" clip-rule="evenodd" d="M457.464 935.887C457.42 934.45 455.135 933.21 452.371 933.036C449.564 932.861 447.258 933.71 447.258 934.907C447.258 937.714 418.533 935.582 396.946 931.164C304.876 912.297 227.951 871.06 161.994 805.277C95.5144 739.059 53.7773 659.414 37.1085 566.931C3.4661 381.114 85.5696 196.059 245.469 97.1119C377.296 15.5955 542.897 7.67454 682.123 76.1996C719.857 94.8052 771.387 129.993 788.796 149.121C792.299 152.951 798.326 158.652 802.156 161.873C806.052 165.115 813.973 173.45 819.914 180.326C829.097 191.207 830.119 193.164 827.138 194.774C824.418 196.298 820.936 193.665 809.882 181.609C802.331 173.362 796.542 165.789 797.13 164.853C797.739 164.004 796.956 163.243 795.432 163.243C793.996 163.243 787.185 158.391 780.395 152.451C773.584 146.488 761.855 136.804 754.304 130.776C746.818 124.813 740.704 119.199 740.769 118.437C741.291 114.781 740.268 111.974 738.484 111.974C737.461 111.974 737.113 113.606 737.896 115.543C739.158 118.785 738.658 118.699 733.218 115.13C630.028 46.9531 512.802 23.5821 393.878 47.4539C226.428 81.118 91.7715 211.183 50.5563 379.155C23.007 491.18 41.112 613.672 99.6053 711.858C163.691 819.204 268.753 894.606 391.833 921.393C404.846 924.266 417.924 926.66 420.992 926.834C424.061 926.986 427.956 929.032 429.675 931.251C432.547 935.146 432.722 935.147 432.809 931.491C432.809 928.183 433.918 927.857 440.555 928.945C444.799 929.641 451.675 930.228 455.94 930.228C462.229 930.228 463.579 930.99 463.579 934.298C463.579 936.605 462.229 938.476 460.532 938.476C458.856 938.476 457.507 937.322 457.464 935.93V935.887ZM456.441 967.548C454.221 967.026 451.001 965.677 449.39 964.306C446.997 962.435 446.757 962.609 448.194 965.068C449.129 966.787 447.932 966.264 445.474 964.067C443.102 961.76 439.533 958.452 437.487 956.668C435.529 954.796 431.786 952.664 429.24 951.902C426.781 951.054 424.648 949.53 424.648 948.334C424.648 946.375 463.317 947.898 465.537 949.944C466.037 950.466 465.363 951.903 464.014 953.252C460.445 956.842 461.033 958.539 466.212 959.301C468.758 959.627 470.803 960.999 470.803 962.348C470.803 967.375 473.697 967.287 477.005 962.195C480.073 957.517 481.357 957.082 489.517 958.191C498.091 959.388 498.526 959.214 498.526 954.362C498.526 949.357 498.853 949.182 520.527 947.572C532.691 946.636 545.443 945.788 548.925 945.526C552.407 945.352 556.149 944.678 557.172 944.003C558.195 943.394 563.287 942.219 568.466 941.457C576.039 940.347 578.171 940.674 579.194 943.307C580.978 948.16 585.984 947.311 585.81 942.219C585.723 938.302 588.203 937.105 607.244 931.926C628.483 926.137 639.276 925.811 642.431 930.903C643.28 932.1 644.63 932.361 645.565 931.425C646.414 930.402 646 929.206 644.63 928.705C636.556 925.811 646.588 916.889 655.357 919.087C659.1 920.023 660.884 919.435 661.82 916.976C662.495 915.104 665.803 912.21 669.198 910.513C675.16 907.358 675.247 907.358 673.549 912.123C672.701 914.669 672.005 919.762 672.179 923.418C672.527 929.641 672.004 930.141 658.839 935.081C632.748 944.852 626.872 946.288 624.065 944.09C622.194 942.545 620.409 942.894 617.776 945.265C613.707 949.008 610.378 949.77 612.336 946.549C613.098 945.352 611.748 944.852 609.202 945.178C606.809 945.527 604.089 947.05 603.153 948.595C601.891 950.618 600.955 950.205 599.171 946.81C596.102 941.109 592.447 943.307 593.208 950.292C593.883 955.471 593.295 955.732 576.474 959.214C556.584 963.218 535.498 965.677 519.004 965.938C512.802 966.003 506.774 966.7 505.664 967.461C503.444 968.898 463.317 968.985 456.441 967.548ZM457.464 958.779C457.464 957.778 456.528 956.908 455.418 956.908C454.308 956.908 453.373 958.278 453.373 960.063C453.373 961.847 454.308 962.696 455.418 962.021C456.528 961.347 457.464 959.889 457.464 958.779ZM529.296 958.953C529.296 957.778 528.361 956.908 527.251 956.908C526.054 956.908 525.119 957.778 525.119 958.953C525.119 960.063 526.054 960.998 527.251 960.998C528.361 960.998 529.296 960.063 529.296 958.953ZM573.841 947.137C575.103 943.394 568.901 944.003 567.465 947.812C566.529 950.031 567.204 950.792 569.576 950.379C571.447 950.031 573.406 948.595 573.841 947.137ZM381.561 957.843C287.968 936.931 209.085 894.192 141.669 827.887C130.702 817.093 117.014 802.383 111.161 795.332C100.694 782.494 100.693 782.319 104.11 777.14C107.418 771.94 107.418 771.7 102.826 767.957C100.193 765.825 95.6887 764.128 92.6204 764.128C88.0289 764.128 85.5697 761.494 76.6477 747.219C50.3823 705.395 33.8878 670.121 21.8105 630.168C-32.2436 451.489 15.7826 263.453 148.045 135.52C310.926 -21.9853 562.177 -44.8557 749.952 80.8788C790.341 107.819 845.069 157.716 845.069 167.399C845.069 169.445 846.005 171.73 847.115 172.426C848.224 173.101 849.16 175.385 849.16 177.431C849.16 180.151 850.357 180.826 854.078 180.151C858.256 179.389 860.802 181.61 870.66 195.036C877.036 203.697 884.522 215.012 887.242 220.104C890.049 225.196 893.269 230.637 894.466 232.095C895.663 233.618 896.164 235.751 895.489 236.774C894.814 237.862 895.315 239.494 896.512 240.255C898.209 241.278 898.035 242.213 896.077 243.388C893.879 244.759 894.031 245.173 896.838 245.173C901.016 245.261 901.691 248.59 897.861 249.939C895.903 250.701 895.816 251.462 897.774 253.508C899.646 255.553 900.929 255.554 903.127 253.769C905.347 251.898 906.457 251.985 908.067 253.943C910.787 257.338 926.172 289.979 928.13 296.529C928.892 299.336 931.264 305.363 933.223 309.868C939.098 323.207 939.947 327.299 936.965 327.387C935.268 327.387 935.856 328.736 938.489 330.955C942.58 334.35 946.649 345.817 951.676 367.927C954.657 380.678 953.874 382.114 946.736 377.458C941.383 373.954 939.685 370.385 943.428 370.385C948.02 370.385 945.387 362.574 940.36 361.29C936.03 360.202 935.529 359.352 937.226 356.11C938.837 353.128 938.336 351.193 935.094 347.45C931.525 343.446 931.025 343.272 932.113 346.601C932.809 348.799 932.2 351.258 930.85 352.107C928.979 353.216 926.346 348.038 921.493 333.849C917.663 322.882 910.526 304.689 905.434 293.461C900.407 282.167 896.338 272.309 896.338 271.612C896.338 270.938 898.122 269.829 900.407 269.241C904.912 268.045 906.021 263.714 901.865 263.714C900.32 263.714 898.122 264.823 896.751 266.172C893.792 269.066 895.054 270.678 882.389 248.329C876.622 238.21 868.701 225.371 864.806 219.844C860.889 214.316 858.169 208.637 858.757 207.092C859.366 205.482 857.995 203.61 855.71 202.674C853.49 201.826 844.743 193.338 836.321 183.72C827.9 174.123 818.564 164.092 815.583 161.372C812.602 158.565 810.143 154.648 810.143 152.625C810.143 150.144 808.619 148.881 805.551 148.794C800.96 148.707 800.96 148.707 806.052 144.377C809.381 141.569 810.317 139.785 808.619 139.175C807.161 138.675 806.052 137.065 806.052 135.607C806.052 134.17 804.616 131.776 802.831 130.34C800.198 128.142 798.914 128.382 795.258 132.038C790.928 136.368 790.928 136.369 796.716 135.956C803.005 135.434 805.051 137.914 802.156 142.505C800.698 144.616 796.891 142.331 785.227 132.125C698.357 56.3974 584.025 16.0957 467.669 20.3391C278.785 27.1502 114.555 145.313 48.2499 322.185C16.3702 407.205 10.9298 506.826 33.1259 598.026C76.4737 775.856 225.231 912.624 408.676 943.481C416.074 944.765 419.643 948.747 413.267 948.747C411.57 948.747 410.199 950.531 410.199 952.838C410.199 957.343 412.332 958.104 415.639 954.796C417.075 953.251 418.533 953.6 420.318 955.732C427.455 964.306 413.594 965.068 381.474 957.93L381.561 957.843ZM910.7 276.117C910.7 273.745 906.696 271.112 905.26 272.549C903.736 274.094 906.37 278.075 908.742 278.075C909.851 278.075 910.7 277.227 910.7 276.117ZM869.724 213.316C869.724 211.597 868.788 210.661 867.613 211.444C866.503 212.119 865.568 213.555 865.568 214.578C865.568 215.687 866.503 216.535 867.613 216.535C868.788 216.535 869.724 215.1 869.724 213.316ZM100.607 206.156C100.607 205.067 99.6707 204.219 98.5826 204.219C97.3858 204.219 96.5372 205.655 96.5372 207.44C96.5372 209.137 97.4728 210.073 98.5826 209.311C99.6707 208.637 100.607 207.178 100.607 206.156ZM859.453 191.88C859.453 190.77 856.472 190.009 852.729 190.096C846.092 190.358 846.092 190.357 852.294 191.88C855.71 192.816 858.67 193.578 858.931 193.752C859.279 193.839 859.453 193.077 859.453 191.88ZM777.414 119.112C777.414 117.415 776.479 116.066 775.369 116.066C774.346 116.066 773.933 117.415 774.607 119.112C775.282 120.831 776.13 122.18 776.566 122.18C776.979 122.18 777.414 120.831 777.414 119.112ZM775.369 113.171C775.369 112.736 773.932 111.3 772.322 109.864C769.754 107.818 769.167 107.906 769.167 110.626C769.167 112.498 770.625 114.02 772.322 114.02C773.932 114.02 775.369 113.606 775.369 113.171ZM428.739 960.998C428.739 959.889 430.611 958.953 432.809 958.953C435.115 958.953 436.965 959.889 436.965 960.998C436.965 962.108 435.115 963.044 432.809 963.044C430.611 963.044 428.739 962.108 428.739 960.998ZM470.977 955.732C466.299 951.141 466.973 948.682 472.849 948.682C476.592 948.682 477.941 949.77 477.941 952.664C477.941 958.191 474.807 959.627 470.977 955.732ZM491.628 953.426C489.344 951.141 490.192 948.682 493.326 948.682C495.023 948.682 496.481 949.618 496.481 950.619C496.481 953.186 493.239 955.058 491.628 953.426ZM481.096 950.706C480.334 949.618 481.357 948.682 483.141 948.682C484.926 948.682 485.862 949.618 485.165 950.706C484.491 951.903 483.555 952.838 483.141 952.838C482.706 952.838 481.771 951.903 481.096 950.706ZM477.941 936.343C477.941 935.234 476.156 934.298 474.045 934.298C471.826 934.298 469.454 933.362 468.758 932.274C467.909 930.99 474.198 930.228 486.101 930.228C503.271 930.228 504.641 930.577 504.641 934.298C504.641 938.041 503.27 938.476 491.302 938.476C483.816 938.476 477.941 937.54 477.941 936.43V936.343ZM506.687 932.862C506.687 931.164 509.907 930.055 515.435 929.793C520.2 929.641 526.903 929.293 530.319 929.032C539.154 928.357 579.107 920.371 595.928 915.953C621.345 909.229 621.519 909.229 621.519 913.473C621.519 916.28 618.625 918.151 609.79 920.784C590.488 926.573 561.176 931.839 559.131 929.88C556.149 927.334 553.864 927.857 553.864 931.077C553.864 933.21 549.948 934.211 538.98 935.081C517.132 936.604 506.687 935.93 506.687 932.862ZM677.271 923.94C677.793 922.656 678.903 921.72 679.991 921.72C681.101 921.72 682.298 922.743 682.711 923.94C683.146 925.136 681.862 926.138 679.991 926.138C678.141 926.138 676.944 925.136 677.271 923.94ZM678.99 910.753C678.99 907.097 679.839 906.095 682.036 906.944C683.734 907.532 685.104 907.01 685.104 905.834C685.104 904.551 685.866 903.528 686.802 903.528C687.738 903.528 688.586 906.335 688.586 909.73C688.586 914.757 687.738 915.866 683.734 915.866C679.991 915.866 678.99 914.757 678.99 910.753ZM632.748 909.577C631.964 908.38 631.899 906.945 632.487 906.248C633.923 904.812 638.014 907.445 638.014 909.817C638.014 912.45 634.445 912.297 632.748 909.577ZM697.508 907.532C698.792 905.16 699.293 901.917 698.705 900.394C698.03 898.523 703.384 894.106 714.765 887.207C733.544 875.826 737.897 874.455 733.893 881.092C731.608 884.748 731.847 885.858 735.851 889.079C740.094 892.561 740.094 892.996 736.874 895.803C730.324 901.417 728.278 901.743 721.228 898.436C714.504 895.215 714.003 895.215 708.911 899.719C706.017 902.266 703.536 906.009 703.536 908.033C703.536 910.426 702.1 911.775 699.38 911.775C695.811 911.775 695.55 911.188 697.508 907.532ZM640.059 906.008C640.059 903.702 641.757 901.504 644.216 900.895C647.611 899.959 648.285 900.655 647.785 904.224C647.023 909.991 640.059 911.601 640.059 906.008ZM655.858 904.377C651.854 900.395 656.293 896.826 679.49 885.423C693.352 878.634 712.393 867.927 721.902 861.638C731.434 855.327 740.943 850.235 743.076 850.235C745.208 850.235 746.383 849.387 745.709 848.277C745.034 847.254 750.714 841.313 758.374 835.024C766.033 828.823 775.804 820.836 780.134 817.18C786.075 812.241 788.469 811.218 790.34 813.09C792.212 814.961 791.603 815.81 788.034 816.745C785.227 817.507 783.79 819.052 784.378 820.749C785.923 824.731 765.011 842.51 761.855 839.79C759.048 837.483 755.827 840.726 757.786 843.86C759.048 845.905 749.865 853.391 732.021 864.946C717.071 874.629 710.935 877.872 712.632 875.238C713.329 874.042 713.067 872.519 711.958 871.822C710.848 871.235 709.063 872.345 707.975 874.369C706.865 876.414 703.971 878.198 701.512 878.372C695.463 878.808 693.766 880.831 697.421 883.051C699.728 884.487 696.399 886.794 684.583 892.321C675.835 896.303 667.326 899.372 665.716 899.024C664.105 898.697 661.56 900.133 660.015 902.179C658.578 904.224 656.62 905.16 655.858 904.377ZM331.816 885.336C329.967 882.202 324.766 878.024 320.174 875.913C313.385 872.845 312.362 871.648 314.32 869.276C315.757 867.492 319.151 866.643 322.655 867.144C327.486 867.927 329.444 866.643 334.471 859.853C337.778 855.327 339.977 850.91 339.476 850.061C338.889 849.126 332.077 846.319 324.265 843.86C311.513 839.79 310.317 838.855 312.188 835.438C313.711 832.392 315.583 831.869 320.348 832.892C324.004 833.654 327.573 833.24 329.357 831.717C331.664 829.845 333.1 829.845 335.32 831.63C336.93 832.979 340.412 833.414 343.48 832.652C346.788 831.782 348.833 832.131 348.833 833.567C348.833 838.158 353.664 835.699 360.649 827.539C365.393 821.925 369.136 819.465 371.943 819.9C378.668 820.836 378.232 824.405 370.159 834.937C363.283 843.947 362.934 844.969 366.176 847.341C368.548 849.126 369.223 851.345 368.288 854.326C367.352 857.373 368.048 859.593 370.507 861.377C372.792 863.074 373.314 864.424 371.769 865.359C370.159 866.295 370.159 868.515 371.682 872.845C373.227 877.437 373.14 879.809 371.269 882.028C367.787 886.184 366.002 884.487 358.952 870.56C355.535 863.923 352.054 858.396 351.118 858.396C350.183 858.396 346.701 861.877 343.306 866.142C338.366 872.344 337.256 875.304 338.04 881.266C339.128 890.689 336.169 892.648 331.816 885.336ZM558.522 886.119C546.031 880.831 542.636 861.638 552.668 852.956C559.805 846.841 572.209 846.492 577.497 852.368C579.52 854.566 580.805 856.786 580.37 857.286C578.259 859.332 572.971 859.07 568.988 856.872C565.332 854.827 563.722 855.088 559.979 858.135C551.384 865.033 558.282 882.202 568.466 879.569C570.512 878.96 572.731 876.762 573.406 874.63C574.167 872.258 576.561 870.8 579.521 870.8C584.112 870.8 584.286 871.235 582.328 876.936C579.869 883.812 578.846 884.748 570.599 887.12C566.943 888.143 562.526 887.816 558.522 886.119ZM590.836 865.12C588.203 856.35 585.722 848.19 585.222 846.928C584.787 845.644 587.181 843.598 590.575 842.423C596.538 840.378 596.951 840.639 603.24 850.409C606.809 855.937 610.138 860.528 610.726 860.528C611.313 860.528 611.4 855.001 610.9 848.277C610.051 835.612 611.052 833.828 619.387 833.828C622.281 833.828 624.065 837.744 627.808 851.693C632.487 869.015 632.399 869.864 626.459 871.409C625.675 871.648 623.304 867.143 621.345 861.551L617.602 851.258L617.95 862.226C618.212 870.56 617.428 873.693 614.882 875.151C612.162 876.675 610.051 874.891 604.176 866.208C595.928 853.979 595.667 854.065 600.259 867.579C603.066 875.826 603.153 877.698 600.781 879.134C596.015 882.202 595.602 881.615 590.749 865.12H590.836ZM764.075 874.803C763.313 873.607 760.245 873.106 757.264 873.781C753.195 874.629 751.149 873.868 749.191 870.8C746.993 867.144 747.145 866.643 750.714 866.643C753.021 866.643 754.892 865.533 754.979 864.097C755.066 862.726 763.814 854.653 774.52 846.166C793.061 831.456 794.323 830.781 804.615 830.781C813.712 830.781 815.322 830.259 814.821 827.212C813.973 822.359 817.716 822.621 818.978 827.452C820.088 831.717 810.992 841.4 789.731 858.744C771.974 873.28 765.598 877.262 764.075 874.803ZM636.991 848.799C626.611 826.516 630.18 821.838 648.133 833.741C653.138 837.157 657.642 839.529 657.99 839.094C658.491 838.681 656.794 834.437 654.335 829.671C650.766 822.621 650.418 820.662 652.637 819.292C657.381 816.332 659.1 818.182 666.999 835.525C674.637 852.281 674.638 852.281 669.633 853.543C665.977 854.479 661.886 853.043 654.922 848.538C649.656 845.056 644.977 842.597 644.564 843.011C644.216 843.359 645.826 847.602 648.285 852.368C651.854 859.418 652.202 861.377 650.004 862.813C645.238 865.795 644.477 865.033 636.991 848.799ZM452.371 827.539C393.203 822.947 330.119 798.902 280.569 762.082C213.241 712.097 169.806 643.767 151.614 559.096C144.912 527.651 144.825 461.347 151.614 429.902C185.801 270.264 319.935 161.023 481.858 160.936C537.957 160.936 582.589 170.794 630.028 193.752C661.733 209.05 684.256 225.632 673.702 225.806C672.701 225.806 670.895 226.394 669.807 227.155C668.61 227.852 658.839 223.174 647.959 216.711C536.608 150.666 391.92 158.739 287.119 236.86C162.233 329.932 121.954 499.863 191.915 639.263C268.666 792.351 456.093 859.244 613.773 789.805C712.132 746.523 778.851 664.593 802.396 557.987C808.62 530.111 809.12 463.305 803.419 435.081C790.58 371.756 762.53 317.941 718.247 271.438C708.563 261.341 704.32 255.553 706.43 255.553C708.302 255.553 710.434 254.117 711.109 252.332C712.632 248.328 723.861 258.709 743.489 282.167C831.73 387.468 845.243 539.207 777.153 658.718C744.338 716.362 688.238 768.284 629.005 796.007C595.754 811.479 545.769 826.429 543.92 821.337C543.484 820.14 541.7 820.575 539.829 822.36C537.544 824.405 528.274 826.19 511.866 827.539C484.926 829.933 482.358 829.933 452.371 827.539ZM823.743 823.796C823.069 822.773 823.395 819.813 824.418 817.093C826.115 812.741 826.29 812.828 826.115 818.965C826.028 826.015 825.615 826.864 823.743 823.796ZM816.606 808.237C821.698 801.099 824.505 798.988 828.923 798.988C832.078 798.988 835.211 798.053 835.907 796.943C836.582 795.833 835.733 794.897 833.949 794.897C829.357 794.897 829.945 793.287 838.106 783.342C845.33 774.42 853.317 771.439 853.317 777.554C853.317 779.339 854.252 780.187 855.362 779.513C858.757 777.38 857.669 772.723 853.491 771.352C849.922 770.242 850.683 768.545 860.628 754.684C898.209 702.24 924.474 641.635 936.465 579.595C939.337 564.275 942.144 549.761 942.667 547.28C943.254 544.647 945.126 542.601 947.171 542.601C949.13 542.601 952.263 539.794 954.222 536.486C959.575 527.064 963.905 528.326 962.643 539.032C962.121 543.798 961.185 549.152 960.598 550.849C960.01 552.546 959.161 559.009 958.813 565.211C957.116 594.283 935.769 661.024 915.117 702.087C904.999 722.303 902.279 725.545 899.471 721.041C898.035 718.647 894.379 720.258 894.379 723.239C894.379 724.262 895.75 725.197 897.447 725.197C899.145 725.197 900.494 726.307 900.494 727.743C900.494 732.008 886.132 752.05 884 750.701C882.911 750.026 880.343 752.311 878.407 755.793C874.751 762.169 871.77 763.953 871.77 759.71C871.77 758.339 871.182 757.926 870.399 758.6C869.724 759.362 867.853 758.948 866.329 757.752C862.325 754.444 858.931 764.563 859.279 779.012C859.518 790.219 859.366 790.828 854.513 790.828C851.706 790.828 848.899 791.764 848.224 792.852C847.463 793.962 847.876 794.897 849.073 794.897C853.077 794.897 851.358 798.901 844.068 806.975C836.495 815.309 830.293 816.332 827.66 809.521C826.55 806.54 826.028 806.54 823.917 809.26C821.437 812.328 813.45 817.42 811.165 817.42C810.556 817.42 812.95 813.264 816.606 808.237ZM207.3 804.668C207.387 803.232 208.323 798.379 209.411 793.875C211.283 785.801 211.195 785.475 202.709 777.989L193.961 770.242H205.516C217.158 770.242 217.158 770.242 220.901 759.797L224.644 749.33L229.235 759.797C233.892 770.242 233.892 770.242 244.707 770.329L255.501 770.503L246.818 778.076C238.244 785.714 238.244 785.714 240.442 794.484C242.988 804.516 241.726 807.236 236.547 802.731C227.603 794.897 224.644 794.723 215.722 801.099C210.869 804.668 207.3 806.126 207.3 804.668ZM795.867 805.364C795.867 804.254 796.804 802.731 797.892 802.035C799.088 801.361 800.024 801.709 800.024 802.797C800.024 803.994 799.088 805.451 797.892 806.213C796.804 806.888 795.867 806.539 795.867 805.364ZM724.122 802.557C724.122 801.099 725.058 796.769 726.233 792.852C728.278 785.889 728.017 785.388 719.53 777.989L710.782 770.242H722.424C734.066 770.242 734.067 770.242 737.635 759.536L741.204 748.743L745.97 759.536C750.714 770.242 750.714 770.242 761.529 770.329L772.322 770.503L763.901 778.076C755.392 785.714 755.393 785.714 758.026 795.419C759.484 800.773 760.158 805.19 759.657 805.19C759.048 805.19 754.805 802.884 750.039 800.077C741.378 794.985 741.378 794.985 733.893 800.077C725.297 805.865 724.122 806.213 724.122 802.644V802.557ZM804.115 795.158C804.115 793.962 805.051 792.525 806.139 791.851C807.249 791.067 808.184 791.416 808.184 792.612C808.184 793.7 807.249 795.246 806.139 795.92C805.051 796.595 804.115 796.268 804.115 795.158ZM817.454 788.696C818.129 787.586 819.587 786.65 820.762 786.65C821.872 786.65 822.22 787.586 821.524 788.696C820.849 789.805 819.326 790.741 818.216 790.741C817.106 790.741 816.78 789.805 817.454 788.696ZM818.39 778.577C819.587 776.379 821.437 773.985 822.547 773.311C825.615 771.439 845.33 744.586 857.995 725.11C885.457 682.785 907.98 627.36 918.86 575.416C926.934 536.66 929.654 471.965 924.888 432.948C923.278 419.521 923.278 414.343 924.888 413.821C928.218 412.733 927.608 409.315 924.04 409.315C919.883 409.315 920.144 401.852 924.388 400.22C926.259 399.545 928.043 399.219 928.391 399.545C933.048 404.224 938.489 517.446 934.332 524.083C933.658 525.193 932.809 532.417 932.374 539.968C931.025 569.128 912.833 638.828 899.646 665.616C897.187 670.708 891.659 681.85 887.503 690.423C877.797 710.313 865.894 730.202 851.793 750.026C842.523 763.017 839.89 765.498 836.234 764.562C832.317 763.54 832.078 763.779 834.624 766.848C837.17 769.916 836.408 771.091 832.317 770.503C831.469 770.329 830.794 771.94 830.794 773.898C830.794 779.012 826.812 782.581 821.023 782.581C816.932 782.581 816.606 781.971 818.39 778.577ZM271.908 661.525C272.583 660.415 275.891 659.479 279.199 659.479C285.248 659.479 285.248 659.479 285.248 634.846C285.248 610.278 285.248 610.278 292.385 610.278C296.389 610.278 299.61 611.214 299.61 612.324C299.61 613.412 305.399 614.347 312.863 614.347C324.853 614.347 326.223 613.934 326.223 610.278C326.223 606.623 327.573 606.1 338.54 606.1C350.857 606.1 350.857 606.1 350.857 594.893V583.577H478.028C554.8 583.577 605.198 582.815 605.198 581.705C605.198 580.595 602.826 577.963 600.019 575.766C595.341 572.023 594.906 570.412 594.906 555.114V538.445H580.978C567.704 538.445 566.616 538.88 560.153 545.495C553.255 552.633 553.255 552.633 485.927 552.72C448.868 552.807 418.533 552.133 418.533 551.197C418.533 550.348 422.015 546.104 426.259 541.926C434.093 534.353 434.093 534.354 484.143 534.354C534.215 534.354 534.215 534.354 542.462 542.014C546.879 546.257 549.36 548.042 547.815 546.018C545.356 542.776 546.031 541.34 553.93 533.266C562.961 524.083 562.96 524.083 584.634 524.083C606.395 524.083 606.395 524.083 614.382 515.923C622.368 507.676 622.368 507.675 662.996 507.675C701.687 507.675 703.623 507.501 703.623 503.758C703.623 497.556 705.843 493.313 709.064 493.313C711.457 493.313 711.957 495.859 711.544 504.607C710.782 521.363 713.916 522.973 725.232 511.68L734.393 502.497L714.852 483.106L695.376 463.631V499.515H645.065L631.29 485.653C617.428 471.726 617.428 471.726 617.428 453.86V435.929H638.014C654.835 435.929 658.491 436.517 658.491 439.085C658.491 441.37 655.771 442.218 647.698 442.566C627.134 443.328 625.763 443.415 624.74 444.438C624.152 444.938 630.18 451.837 638.014 459.649L652.289 473.837V464.501C652.289 455.906 654.922 450.291 658.926 450.291C659.775 450.291 660.536 457.69 660.536 466.699C660.536 482.433 660.362 483.106 655.858 483.106C652.877 483.106 646.762 478.69 639.037 470.878C625.675 457.343 623.652 456.341 623.652 462.957C623.652 465.59 628.396 472.139 635.62 479.364C647.11 490.832 648.046 491.354 658.077 491.354H668.61L669.111 470.355L669.72 449.268L680.513 448.681C691.306 448.094 691.306 448.094 717.92 474.273C732.608 488.722 744.512 501.473 744.512 502.648C744.512 503.845 739.507 509.808 733.305 516.009L721.989 527.129L733.719 538.946L745.448 550.849L718.943 577.549C692.329 604.163 692.329 604.163 680.513 604.163H668.697V563.1H657.816C647.436 563.1 646.501 563.513 636.142 574.155C628.657 581.706 625.436 586.472 625.937 589.366C626.524 593.109 628.156 592.26 638.95 582.468C646.087 576.092 653.225 571.435 655.858 571.348C660.275 571.348 660.449 572.109 660.449 587.755C660.449 596.764 659.775 604.163 658.839 604.163C654.835 604.163 652.289 598.549 652.289 589.953V580.683L640.386 592.412C633.161 599.636 626.785 604.163 623.978 604.163C619.822 604.163 619.474 603.228 619.474 591.238C619.474 578.399 619.474 578.398 631.29 566.669C643.193 554.94 643.193 554.94 669.285 554.94H695.31V571.348C695.31 580.357 696.159 587.755 697.095 587.755C698.03 587.755 706.779 579.247 716.549 568.867L734.393 550L725.732 541.253C715.026 530.372 711.697 531.982 711.697 548.129C711.697 557.66 711.196 559.184 708.128 558.596C705.582 558.161 704.733 556.377 705.255 552.307C705.93 546.693 705.93 546.693 663.931 546.693C621.933 546.693 621.933 546.693 615.644 539.555C612.162 535.638 608.854 532.418 608.267 532.418C607.657 532.418 607.157 543.886 607.157 557.987C607.157 583.664 607.157 583.664 612.249 583.664C617.102 583.664 617.428 584.252 617.428 594.893C617.428 606.187 617.428 606.186 630.702 606.186C643.193 606.186 644.042 606.534 644.042 610.778C644.042 615.043 644.978 615.456 655.684 615.369C662.996 615.369 667.674 614.348 668.175 612.824C668.61 611.454 672.179 610.278 676.008 610.278C683.059 610.278 683.059 610.278 683.059 634.933C683.059 659.479 683.059 659.479 689.174 659.479C692.59 659.479 695.31 660.415 695.31 661.525C695.31 662.896 623.129 663.657 482.967 663.657C341.848 663.657 270.973 662.983 271.821 661.525H271.908ZM383.673 620.484C383.586 619.374 381.431 617.024 378.754 615.283C374.576 612.563 373.053 612.476 369.484 614.696C361.237 619.788 362.608 622.507 373.488 622.507C379.081 622.507 383.673 621.572 383.673 620.484ZM465.711 652.189C465.711 648.272 464.775 645.117 463.666 645.117C462.469 645.117 461.62 648.86 461.62 653.452C461.62 658.478 462.382 661.286 463.666 660.502C464.775 659.828 465.711 655.997 465.711 652.189ZM295.454 638.915C295.454 622.094 294.931 618.439 292.385 618.439C289.839 618.439 289.317 622.094 289.317 638.915C289.317 655.845 289.839 659.479 292.385 659.479C294.931 659.479 295.454 655.845 295.454 638.915ZM303.179 644.878C302.678 631.016 302.918 630.081 308.445 625.924C314.234 621.485 314.234 621.485 319.326 627.448C324.004 632.888 324.352 634.411 323.068 646.401C322.046 655.497 322.394 659.479 323.917 659.479C325.44 659.479 326.223 652.69 326.223 638.915V618.439H299.61V638.915C299.61 651.319 300.372 659.479 301.655 659.479C302.831 659.479 303.527 653.625 303.179 644.878ZM318.063 656.259C318.063 651.319 313.972 644.878 311.774 646.227C310.751 646.814 309.816 650.144 309.816 653.452C309.816 658.13 310.752 659.479 313.885 659.479C316.279 659.479 318.063 658.13 318.063 656.259ZM334.537 647.75C338.279 648.773 338.54 647.598 338.54 630.581C338.54 612.389 338.453 612.324 333.448 612.324C328.247 612.324 328.247 612.323 328.596 636.369C328.77 649.622 329.357 657.368 329.792 653.626C330.467 648.011 331.316 646.902 334.537 647.75ZM347.201 635.607C351.967 628.209 364.98 633.214 365.48 642.658C365.829 648.185 365.829 648.185 366.677 642.658C367.787 635.521 371.769 632.365 378.928 633.148C383.433 633.649 385.218 635.346 387.154 640.961C389.287 647.337 389.635 647.598 389.722 642.919C389.809 636.369 393.378 632.8 399.493 632.8C405.52 632.8 413.507 645.465 412.658 653.713C412.332 656.846 413.006 659.479 414.29 659.479C415.465 659.479 416.488 657.695 416.488 655.497C416.488 643.006 425.17 641.048 428.565 652.777C430.763 660.502 430.763 660.502 429.675 651.493C427.803 634.846 420.731 629.819 415.052 641.048C412.658 645.552 412.418 645.726 412.418 641.896C412.331 633.149 422.102 629.819 429.153 636.195C432.722 639.438 432.896 639.264 432.896 633.301C432.896 626.925 432.895 626.924 415.987 626.25C406.63 625.923 386.393 625.924 370.834 626.337L342.631 627.012L342.958 643.768C343.306 659.479 343.306 659.827 344.481 649.208C345.178 643.006 346.44 636.87 347.288 635.607H347.201ZM351.205 652.777C351.727 647.685 352.815 646.14 355.971 646.14C359.104 646.14 360.214 647.685 360.736 652.777C361.063 656.433 362.347 659.479 363.456 659.479C364.806 659.479 365.067 656.259 364.131 650.731C361.672 636.021 358.169 632.213 351.031 636.717C347.637 638.915 345.177 659.479 348.398 659.479C349.595 659.479 350.857 656.433 351.205 652.777ZM371.356 654.561C371.356 651.928 372.705 648.599 374.403 647.163C379.081 643.246 383.673 646.227 383.673 653.278C383.673 656.694 384.695 659.479 385.979 659.479C389.113 659.479 386.915 646.14 382.65 639.764C376.448 630.342 371.008 634.498 368.375 650.731C367.352 656.52 367.613 659.479 369.136 659.479C370.333 659.479 371.356 657.281 371.356 654.561ZM393.878 655.497C393.878 648.947 396.163 645.117 400.08 645.117C403.91 645.117 406.195 648.947 406.195 655.497C406.195 657.695 407.218 659.479 408.502 659.479C410.025 659.479 410.373 657.194 409.611 653.125C406.456 637.718 398.557 630.254 394.139 638.589C390.658 645.03 388.938 659.479 391.593 659.479C392.855 659.479 393.878 657.695 393.878 655.497ZM442.666 634.324L442.166 609.256L430.089 608.581C419.121 608.059 418.185 608.319 419.556 611.626C420.405 613.672 421.515 616.98 422.102 618.938C422.777 621.332 425.171 622.507 429.066 622.507C434.941 622.507 434.941 622.507 434.941 641.048C434.941 658.217 435.268 659.479 439.098 659.479C443.102 659.479 443.276 658.391 442.666 634.324ZM450.5 645.813C452.524 645.03 453.373 641.309 453.373 633.562C453.373 597.939 490.78 584.775 511.692 612.999C514.934 617.416 515.935 621.746 515.935 631.952C515.935 640.7 516.718 645.117 518.416 645.117C519.765 645.117 521.223 648.533 521.637 652.777C522.072 657.02 522.572 645.465 522.746 627.186L523.16 593.87H445.212L445.474 627.186C445.735 645.465 446.235 657.455 446.67 653.713C447.084 649.97 448.868 646.401 450.5 645.813ZM459.335 641.048C459.074 619.7 462.229 612.063 473.871 605.861C478.115 603.554 479.573 602.03 477.44 602.03C471.238 602.03 459.509 614.695 457.464 623.53C454.831 634.758 454.918 659.479 457.551 659.479C458.813 659.479 459.509 652.342 459.422 641.048H459.335ZM478.376 635.433C481.096 632.126 488.734 632.039 491.976 635.259C493.326 636.63 494.436 642.745 494.436 648.947C494.436 664.506 495.719 661.438 497.33 641.896C498.527 627.447 498.265 624.727 494.958 620.549C490.105 614.696 481.096 614.434 475.569 619.961C471.739 623.791 471.565 625.488 473.197 642.244C474.807 659.066 474.981 659.566 475.569 649.208C475.917 643.093 477.179 636.87 478.376 635.433ZM508.798 653.452C508.798 650.144 507.862 646.815 506.687 646.14C505.49 645.378 504.641 647.837 504.641 652.189C504.641 656.171 505.577 659.479 506.687 659.479C507.862 659.479 508.798 656.759 508.798 653.452ZM513.389 640.439C512.04 614.347 505.403 603.989 488.234 601.182C481.183 600.072 481.183 600.072 489.517 603.141C494.087 604.838 500.55 609.08 503.793 612.475C509.494 618.351 509.821 619.787 510.495 639.089C510.843 650.318 511.953 659.479 512.802 659.479C513.65 659.479 513.999 650.906 513.389 640.439ZM533.714 640.961C533.105 622.507 533.105 622.508 538.893 622.421C543.398 622.421 545.356 620.897 547.989 615.283C551.297 608.145 551.297 608.145 539.241 608.145H527.251V633.823C527.251 656.846 527.599 659.414 530.82 659.414C534.04 659.414 534.301 657.455 533.714 640.961ZM541.961 652.777C542.462 647.685 543.572 646.14 546.705 646.14C549.861 646.14 550.97 647.685 551.471 652.777C551.819 656.433 553.081 659.414 554.278 659.414C557.52 659.414 555.04 638.915 551.558 636.717C544.507 632.213 540.59 636.369 538.305 650.992C537.457 656.433 537.783 659.414 539.154 659.414C540.329 659.414 541.613 656.433 541.961 652.777ZM564.571 652.777C564.984 647.685 566.181 646.14 569.249 646.14C572.383 646.14 573.493 647.685 573.994 652.777C574.842 661.111 578.498 661.612 578.498 653.452C578.498 640.199 571.034 631.016 565.159 637.131C561.59 640.787 558.695 659.414 561.764 659.414C562.873 659.414 564.136 656.433 564.484 652.777H564.571ZM587.093 652.777C587.594 647.685 588.704 646.14 591.859 646.14C594.992 646.14 596.103 647.685 596.603 652.777C596.951 656.433 598.235 659.414 599.41 659.414C601.891 659.414 600.107 644.791 596.777 638.654C592.012 629.732 582.589 638.415 582.589 651.667C582.589 661.198 586.158 662.047 587.093 652.777ZM608.093 650.731C608.941 646.902 610.639 645.117 613.359 645.117C616.079 645.117 617.776 646.902 618.625 650.731C620.845 660.502 621.258 660.676 621.432 651.58C621.606 640.874 618.712 634.846 613.359 634.846C608.006 634.846 605.111 640.874 605.286 651.58C605.547 660.676 605.96 660.502 608.093 650.731ZM625.001 651.754C624.588 649.796 624.065 650.906 623.978 654.3C623.978 657.695 624.414 659.327 624.914 657.956C625.523 656.52 625.589 653.8 625.001 651.754ZM634.859 647.163C636.556 647.163 638.101 649.883 638.515 653.8C638.95 657.455 639.537 649.622 639.711 636.369C639.972 612.323 639.973 612.324 634.859 612.324C629.767 612.324 629.767 612.323 630.093 636.369C630.267 649.622 630.789 657.455 631.29 653.8C631.725 649.883 633.248 647.163 634.859 647.163ZM646.588 643.768C647.11 630.755 647.872 627.708 651.353 625.401C654.661 623.203 656.445 623.203 660.536 625.227C665.215 627.534 665.716 629.232 666.738 644.095C667.587 656.694 668.022 658.566 668.784 652.255C669.371 647.75 669.459 638.327 669.111 631.277C668.436 618.438 668.436 618.439 656.446 618.439C642.519 618.439 642.344 618.765 642.344 644.617C642.344 664.332 645.826 663.744 646.588 643.768ZM660.102 652.777C659.688 648.533 658.404 646.14 656.446 646.14C654.509 646.14 653.138 648.533 652.724 652.777C652.115 658.391 652.725 659.414 656.446 659.414C660.102 659.414 660.711 658.391 660.102 652.777ZM681.014 638.915C681.014 619.787 680.774 618.439 676.944 618.439C673.114 618.439 672.853 619.787 672.853 638.915C672.853 658.043 673.114 659.414 676.944 659.414C680.774 659.414 681.014 658.043 681.014 638.915ZM562.525 635.346C565.746 631.364 573.841 632.278 577.149 637.044C580.13 641.222 580.13 641.222 585.57 635.781C590.575 630.755 591.337 630.581 595.515 633.301C597.974 634.998 600.52 639.002 601.108 642.244C602.218 648.185 602.217 648.185 603.675 641.635C606.395 628.47 619.561 628.47 623.391 641.548C625.175 647.75 625.349 647.511 625.523 637.392L625.676 626.599H581.566C537.457 626.599 537.457 626.598 537.457 633.148C537.457 639.002 537.696 639.351 540.177 636.021C541.961 633.649 544.856 632.626 548.838 633.148C553.778 633.649 555.301 635.172 556.998 640.874C558.783 647.337 559.044 647.511 559.718 642.919C560.066 640.199 561.329 636.717 562.525 635.346ZM316.018 640.961C320 643.159 320.348 642.919 319.761 637.719C318.303 626.077 305.725 626.685 305.725 638.415C305.725 642.658 306.247 643.093 308.706 641.135C310.926 639.263 312.71 639.263 316.018 640.961ZM659.862 641.222C662.495 643.507 662.821 643.006 662.234 637.98C661.472 631.43 655.684 626.512 652.55 629.732C651.44 630.842 649.917 634.41 649.134 637.653C647.785 643.158 647.959 643.333 652.202 641.048C655.684 639.176 657.381 639.263 659.775 641.222H659.862ZM363.783 615.369L369.484 608.145H356.058C342.631 608.145 342.631 608.145 342.631 615.369C342.631 622.268 342.871 622.507 350.357 622.507C356.645 622.507 359.017 621.245 363.783 615.369ZM394.553 612.824C398.731 608.146 398.731 608.145 388.003 608.145H377.297L383.085 615.369C386.393 619.547 389.113 621.484 389.548 619.961C389.961 618.525 392.268 615.283 394.553 612.824ZM418.185 617.915C416.749 608.058 399.145 608.733 393.704 618.852C391.92 622.268 392.856 622.507 405.26 622.507C418.098 622.507 418.795 622.268 418.185 617.915ZM574.429 618.439C570.098 610.365 558.782 607.645 553.016 613.412C546.292 620.136 548.925 622.507 563.2 622.507C575.865 622.507 576.474 622.334 574.429 618.439ZM605.198 620.484C605.198 619.374 602.892 617.067 600.172 615.283C596.103 612.563 594.579 612.476 591.01 614.608C582.763 619.787 584.112 622.507 594.993 622.507C600.607 622.507 605.112 621.572 605.112 620.484H605.198ZM627.307 615.893C626.698 609.168 626.698 609.169 611.748 608.581L596.777 607.971L604.611 615.195C610.552 620.723 614.121 622.421 620.148 622.421C627.721 622.508 627.982 622.333 627.307 615.805V615.893ZM585.57 615.195C588.442 612.388 590.836 609.603 590.836 609.08C590.836 608.58 586.658 608.145 581.566 608.145C571.186 608.145 570.947 608.493 575.952 615.369C580.282 621.397 579.346 621.398 585.57 615.283V615.195ZM470.389 614.956C469.454 612.475 469.867 611.888 472.174 612.737C474.045 613.411 475.308 612.824 475.308 611.127C475.308 609.082 474.285 608.907 471.478 610.365C467.583 612.476 466.821 614.695 469.106 617.067C471.412 619.286 471.826 618.612 470.389 614.956ZM486.188 609.168C486.188 607.471 485.862 606.1 485.426 606.1C485.013 606.1 484.077 607.471 483.381 609.168C482.794 610.865 483.142 612.236 484.23 612.236C485.34 612.236 486.188 610.865 486.188 609.168ZM367.265 596.852C367.265 587.995 367.025 587.669 361.063 587.669C355.209 587.669 354.948 587.995 354.948 596.852C354.948 605.774 355.209 606.1 361.063 606.1C367.025 606.1 367.265 605.774 367.265 596.852ZM376.535 593.696C381.214 589.866 385.718 592.934 385.718 599.897C385.718 603.292 386.654 606.1 387.763 606.1C388.873 606.1 389.809 601.443 389.809 595.741C389.809 585.361 389.809 585.362 381.126 585.971C372.379 586.646 372.379 586.646 372.117 596.852C371.943 602.531 372.205 604.663 372.705 601.595C373.227 598.635 375.012 595.067 376.535 593.696ZM383.673 602.03C383.673 599.724 382.323 597.852 380.626 597.852C378.928 597.852 377.471 599.724 377.471 602.03C377.471 604.228 378.928 606.1 380.626 606.1C382.323 606.1 383.673 604.315 383.673 602.03ZM412.418 596.917C412.418 588.931 411.722 587.581 407.479 586.471C397.621 584.012 393.378 586.037 392.595 593.784C391.42 604.49 392.768 606.1 403.061 606.1C412.419 606.1 412.418 606.1 412.418 596.917ZM420.405 592.935C423.712 589.954 424.235 589.954 427.194 593.283C428.979 595.22 430.85 599.223 431.372 602.03C431.873 604.838 432.461 602.291 432.635 596.328C432.809 585.796 432.808 585.623 426.868 585.623C416.074 585.623 414.355 587.233 414.704 597.613C414.878 603.227 415.378 604.925 415.9 601.682C416.314 598.723 418.359 594.806 420.405 593.021V592.935ZM426.346 601.508C426.019 598.962 424.822 596.852 423.626 596.852C422.516 596.852 421.341 598.962 420.905 601.508C420.492 604.664 421.341 606.1 423.626 606.1C426.019 606.1 426.781 604.664 426.346 601.508ZM443.188 598.875C443.188 592.586 443.776 591.737 448.281 591.737C451.436 591.737 453.373 590.563 453.373 588.691C453.373 586.472 451.088 585.623 445.212 585.623C436.965 585.623 436.965 585.623 436.965 595.829C436.965 603.554 437.748 606.1 440.033 606.1C442.253 606.1 443.188 603.901 443.188 598.875ZM533.366 595.829C533.366 585.623 533.366 585.623 524.183 585.623C517.306 585.623 514.934 586.385 514.934 588.691C514.934 590.715 516.958 591.737 521.049 591.737C526.729 591.737 527.251 592.346 527.251 598.875C527.251 603.901 528.186 606.1 530.319 606.1C532.604 606.1 533.366 603.554 533.366 595.829ZM542.723 593.696C547.227 589.953 551.471 592.847 552.407 600.333C553.016 605.338 553.342 604.316 553.603 596.678C553.864 586.298 553.864 586.298 545.704 585.971C537.457 585.623 537.457 585.623 537.783 596.416C537.957 602.292 538.48 604.663 538.98 601.595C539.415 598.635 541.113 595.067 542.723 593.696ZM549.426 602.531C549.012 600.507 547.314 598.875 545.704 598.875C543.985 598.875 542.375 600.507 541.961 602.531C541.439 605.012 542.636 606.1 545.704 606.1C548.751 606.1 549.861 605.012 549.426 602.531ZM576.474 595.829C576.474 585.623 576.474 585.623 567.204 585.623C558.021 585.623 558.021 585.623 558.021 595.829C558.021 606.1 558.021 606.1 567.204 606.1C576.474 606.1 576.474 606.1 576.474 595.829ZM585.723 593.696C590.075 590.214 594.906 592.848 594.906 598.723C594.906 601.509 595.841 604.402 597.038 605.164C598.474 606.012 599.084 603.14 598.649 596.59C597.974 586.645 597.974 586.646 589.292 585.971C580.544 585.362 580.543 585.362 580.891 596.242C581.066 602.205 581.566 604.663 582.001 601.595C582.415 598.635 584.199 595.067 585.723 593.696ZM592.882 603.141C592.882 601.509 591.859 599.572 590.662 598.788C587.768 597.004 583.786 601.008 585.57 603.902C587.594 607.122 592.882 606.622 592.882 603.141ZM615.056 597.091C615.818 587.581 613.446 584.6 606.308 586.384C601.63 587.581 601.042 588.756 601.042 597.003C601.042 606.36 601.108 606.361 607.745 605.687C613.859 605.078 614.469 604.403 615.056 597.091ZM687.216 580.443C687.216 563.274 687.15 563.014 682.036 563.014C677.031 563.014 676.944 563.187 676.944 580.443C676.944 597.7 677.031 597.852 682.036 597.852C687.15 597.852 687.216 597.7 687.216 580.443ZM510.843 588.256C510.843 586.21 504.729 585.623 484.143 585.623C464.166 585.623 457.464 586.21 457.551 588.168C457.551 590.04 464.253 590.715 484.143 590.802C504.729 590.889 510.843 590.301 510.843 588.256ZM668.784 534.289C668.784 530.459 667.326 530.197 648.22 530.197C632.051 530.197 627.721 529.61 627.721 527.391C627.721 523.06 632.487 522.037 651.44 522.037C665.454 522.037 668.784 521.449 668.784 518.969C668.784 516.423 664.867 515.835 646.501 515.835C625.523 515.835 624.065 516.096 619.474 521.014C614.643 526.128 614.643 526.129 620.583 532.244C626.372 538.272 626.785 538.445 647.611 538.445C667.326 538.445 668.697 538.184 668.697 534.289H668.784ZM687.216 527.129C687.216 516.51 686.889 515.835 682.036 515.835C677.205 515.835 676.944 516.51 676.944 527.129C676.944 537.77 677.271 538.445 682.036 538.445C686.889 538.445 687.216 537.77 687.216 527.129ZM704.319 532.569C709.847 526.803 709.847 526.804 705.582 521.363C698.531 512.354 695.376 514.138 695.376 527.129C695.376 539.968 696.572 540.73 704.319 532.569ZM687.216 473.837C687.216 456.581 687.15 456.406 682.036 456.406C677.031 456.406 676.944 456.581 676.944 473.837C676.944 491.006 677.031 491.267 682.036 491.267C687.15 491.267 687.216 491.093 687.216 473.837ZM234.414 587.145C222.685 575.416 217.572 568.715 217.572 565.298C217.572 561.055 219.704 562.491 234.414 576.614C243.684 585.536 253.455 595.394 256.088 598.549C260.941 604.164 260.941 604.163 256.175 604.163C252.781 604.163 246.056 598.875 234.414 587.145ZM247.34 577.463L220.727 550.849L232.804 538.707L244.773 526.542L220.64 503.758L248.276 476.056C275.978 448.246 275.978 448.246 286.771 448.246H297.565V491.354H308.205C318.477 491.354 319.412 490.832 330.815 479.625C338.366 472.139 342.631 466.199 342.631 463.218C342.631 456.342 340.673 457.277 327.246 470.878C319.499 478.69 313.385 483.106 310.404 483.106C305.899 483.106 305.725 482.433 305.725 466.699C305.725 457.69 306.487 450.291 307.335 450.291C311.339 450.291 313.885 455.906 313.885 464.501V473.837L328.335 459.474L342.784 445.2L326.811 444.177C313.798 443.329 310.752 442.479 310.23 439.585C309.555 436.364 311.6 436.017 328.944 436.017C348.311 436.017 348.311 436.016 349.595 442.392C350.269 445.874 350.857 453.861 350.857 459.997C350.857 471.03 350.704 471.465 337.191 485.392L323.503 499.515H270.885V463.718L251.41 483.194L231.868 502.583L240.964 511.68C251.997 522.712 255.414 521.363 256.088 505.456C256.349 499.602 256.937 494.336 257.438 493.901C259.57 491.703 262.638 496.273 262.638 501.713C262.638 507.762 262.638 507.763 304.289 507.763C345.939 507.763 345.939 507.762 353.925 516.009C361.912 524.17 361.912 524.17 382.824 524.17C403.823 524.17 403.823 524.169 412.07 532.917C421.079 542.361 421.515 543.625 417.25 549.761C414.53 553.569 414.203 553.482 406.63 546.105C399.231 538.88 398.209 538.533 385.13 538.533H371.356V556.637C371.356 571.587 370.681 575.417 367.613 578.224C359.953 585.122 359.018 582.728 359.018 556.549V531.569L351.292 539.12C343.48 546.693 343.48 546.693 303.092 546.693C262.638 546.693 262.638 546.692 262.638 552.633C262.638 556.049 261.354 559.096 259.57 559.77C257.111 560.706 256.523 558.77 256.523 548.978C256.523 531.721 253.368 530.198 242.053 541.666L233.044 550.935L270.885 588.757V554.94H323.242L336.081 567.779C348.659 580.596 348.833 580.77 348.833 592.412C348.833 603.814 348.659 604.163 343.219 604.163C339.128 604.163 334.384 600.92 325.789 592.412L313.885 580.683V589.953C313.885 598.636 311.339 604.163 307.27 604.163C306.334 604.163 305.812 596.59 306.16 587.233C306.922 564.885 309.729 564.209 327.486 581.879C339.737 593.957 340.586 594.458 340.586 589.453C340.586 585.623 337.43 580.944 329.792 573.633C319.673 563.775 318.477 563.188 308.271 563.188L297.478 563.1V604.163H285.662C273.845 604.163 273.845 604.163 247.34 577.549V577.463ZM289.317 580.531C289.317 563.362 289.23 563.1 284.225 563.1C279.133 563.1 279.046 563.427 279.046 579.421C279.046 594.632 279.372 595.741 283.724 596.59C286.27 597.004 288.555 597.526 288.817 597.701C289.165 597.853 289.317 590.128 289.317 580.531ZM270.885 527.217C270.885 514.639 270.124 514.051 263.313 520.427C257.437 525.954 257.372 527.825 262.965 533.766C269.602 540.729 270.885 539.729 270.885 527.217ZM289.317 527.217C289.317 516.597 289.078 515.923 284.225 515.923C279.372 515.923 279.046 516.597 279.046 527.217C279.046 537.945 279.372 538.533 284.225 538.533C289.078 538.533 289.317 537.945 289.317 527.217ZM347.375 532.743C352.903 526.977 352.902 526.977 347.136 521.45C341.608 516.184 340.499 515.923 319.413 515.923C301.307 515.923 297.478 516.51 297.478 519.056C297.478 521.537 300.807 522.124 314.821 522.124C333.775 522.124 338.54 523.147 338.54 527.477C338.54 529.697 334.21 530.285 318.063 530.285C298.935 530.285 297.478 530.545 297.478 534.441C297.478 538.271 298.935 538.533 319.674 538.533C341.347 538.533 342.022 538.358 347.375 532.743ZM289.317 473.923C289.317 456.667 289.23 456.494 284.225 456.494C279.133 456.494 279.046 456.667 279.046 473.923C279.046 491.18 279.133 491.354 284.225 491.354C289.23 491.354 289.317 491.18 289.317 473.923ZM726.233 582.554C744.425 564.209 747.841 561.642 748.429 565.385C749.365 571.76 717.136 604.163 709.846 604.163C705.407 604.163 707.627 601.268 726.233 582.554ZM379.603 568.279L392.769 554.94H575.538L588.791 568.279L601.978 581.619H366.329L379.603 568.279ZM217.572 536.073C217.572 533.005 218.442 529.937 219.617 529.262C220.988 528.413 220.988 526.716 219.617 524.17C218.442 522.037 217.572 518.207 217.572 515.574C217.572 511.243 218.007 511.418 225.231 518.556L232.891 526.194L225.231 533.854C217.571 541.513 217.572 541.513 217.572 536.073ZM740.529 533.44L733.392 526.041L741.03 518.817C748.69 511.593 748.69 511.592 748.69 517.707C748.69 521.102 747.754 524.497 746.557 525.28C745.121 526.129 745.121 527.39 746.731 529.348C747.994 530.872 748.69 534.114 748.342 536.486C747.754 540.49 747.058 540.23 740.529 533.44ZM461.62 460.498C461.62 388.665 461.62 388.665 467.234 389.274C472.849 389.862 472.849 389.862 473.436 370.647C473.872 359.592 475.133 350.257 476.591 348.473C477.941 346.754 480.421 343.881 482.206 341.922C483.903 339.964 485.6 334.785 485.861 330.281C486.536 319.988 489.583 316.679 490.105 325.601C490.366 329.344 490.606 333.762 490.78 335.459C490.867 337.157 492.651 339.703 494.784 341.226C496.807 342.684 498.526 345.23 498.526 346.84C498.526 348.472 499.462 349.821 500.55 349.821C501.747 349.821 502.596 357.395 502.596 368.427C502.596 381.701 503.444 387.817 505.49 389.949C507.1 391.472 508.798 394.018 509.32 395.389C509.907 396.913 511.017 397.261 512.04 396.238C513.128 395.128 512.802 394.018 511.344 393.43C507.775 392.146 508.123 388.751 511.779 388.751C514.499 388.751 514.934 398.109 514.934 460.584C514.934 500.015 514.151 532.33 513.215 532.33C512.28 532.33 511.605 510.395 511.692 483.607L511.779 434.907L488.734 434.406L465.711 433.796V483.106C465.711 514.638 464.949 532.418 463.666 532.418C462.316 532.418 461.533 507.088 461.533 460.584L461.62 460.498ZM495.893 430.315C491.628 429.902 485.166 429.901 481.51 430.402C477.941 430.837 481.422 431.164 489.256 431.164C497.156 431.164 500.137 430.837 495.893 430.402V430.315ZM500.05 426.246C493.587 425.81 482.967 425.81 476.504 426.246C469.954 426.659 475.308 427.008 488.234 427.008C501.247 427.008 506.513 426.659 500.05 426.246ZM502.182 399.545C495.719 399.132 484.665 399.132 477.614 399.545C470.477 399.98 475.743 400.306 489.256 400.306C502.857 400.306 508.623 399.98 502.182 399.545ZM478.028 396.063C478.028 393.93 474.045 392.995 472.936 394.866C472.174 396.063 473.023 396.999 474.807 396.999C476.591 396.999 478.028 396.563 478.028 396.063ZM486.623 394.541C484.665 392.582 483.642 392.582 481.684 394.541C479.812 396.412 480.335 396.999 484.143 396.999C487.973 396.999 488.495 396.412 486.623 394.541ZM496.046 394.78C495.633 393.605 494.436 392.582 493.413 392.582C492.303 392.582 491.128 393.605 490.693 394.78C490.279 395.977 491.454 396.999 493.413 396.999C495.284 396.999 496.481 395.977 496.046 394.78ZM504.641 393.931C503.27 392.234 501.834 390.798 501.573 390.798C501.247 390.798 500.463 392.234 499.789 393.931C499.027 396.064 499.963 396.999 502.944 396.999C506.513 396.999 506.774 396.499 504.641 393.931ZM482.119 381.114C482.119 375.065 482.706 374.39 488.234 374.39C493.935 374.39 494.436 374.977 494.436 381.44C494.436 392.995 498.092 391.82 499.615 379.83C501.747 362.312 501.16 361.203 488.734 360.441L478.028 359.854V376.848C478.028 388.664 478.702 392.909 480.073 390.798C481.183 389.188 482.032 384.748 482.119 381.114ZM490.279 383.66C490.279 379.743 489.43 376.523 488.234 376.523C487.124 376.523 486.188 379.743 486.188 383.66C486.188 387.555 487.124 390.798 488.234 390.798C489.43 390.798 490.279 387.555 490.279 383.66ZM498.526 355.936C498.526 354.826 493.935 353.913 488.234 353.913C482.619 353.913 478.028 354.826 478.028 355.936C478.028 357.133 482.619 357.981 488.234 357.981C493.935 357.981 498.526 357.133 498.526 355.936ZM487.559 345.229C487.037 343.793 486.536 344.968 486.536 347.775C486.536 350.583 487.037 351.78 487.559 350.322C488.146 348.885 488.146 346.6 487.559 345.229ZM493.761 345.229C493.173 343.793 492.651 344.968 492.651 347.775C492.651 350.583 493.173 351.78 493.761 350.322C494.261 348.885 494.261 346.6 493.761 345.229ZM471.826 498.492C471.826 477.319 471.064 464.654 469.781 464.654C468.692 464.654 467.756 458.887 467.756 451.314C467.756 437.974 467.757 437.975 476.918 437.975C487.472 437.975 487.733 440.782 477.941 448.007C471.151 453.012 469.106 464.654 474.894 464.654C476.591 464.654 478.028 463.305 478.028 461.695C478.028 459.997 480.487 456.342 483.555 453.534C489.169 448.334 489.169 448.333 493.848 452.751C497.83 456.494 498.526 459.213 498.526 471.203C498.526 479.277 497.678 485.153 496.394 485.153C495.197 485.153 494.871 482.934 495.719 479.713C496.655 475.883 496.394 474.772 494.697 475.795C493.173 476.73 492.39 475.447 492.39 472.226C492.39 467.047 487.298 463.304 485.165 466.786C484.491 467.808 485.013 470.616 486.275 472.901C487.472 475.294 488.146 479.19 487.646 481.671C486.95 485.326 486.71 485.153 486.536 480.474C486.362 477.166 485.34 475.208 484.143 475.97C482.968 476.645 481.945 474.359 481.771 470.442C481.51 465.764 481.009 467.134 480.073 474.946C478.876 484.804 478.637 485.239 478.376 478.167C478.202 473.749 477.44 470.703 476.678 471.465C475.982 472.139 475.569 486.175 475.83 502.583C475.982 522.385 475.482 532.33 474.045 532.33C472.587 532.33 471.826 520.928 471.826 498.492ZM488.582 458.975C487.037 458.452 484.926 459.061 483.729 460.236C482.206 461.782 482.968 462.021 486.362 461.085C489.169 460.411 490.105 459.475 488.582 458.975ZM502.596 499.515C501.834 473.162 502.183 465.35 504.206 463.979C508.123 461.52 505.316 454.556 496.808 445.7L489.517 437.975H499.114C508.798 437.975 508.798 437.974 508.798 451.314C508.798 458.712 507.862 464.654 506.774 464.654C505.577 464.654 504.554 478.429 504.206 498.993L503.619 533.353L502.596 499.515ZM945.213 492.377C945.626 470.943 944.864 444.177 943.602 432.861C941.296 413.146 933.048 369.036 930.176 361.638C929.305 359.505 929.741 357.981 931.024 357.981C932.287 357.981 933.31 359.418 933.31 361.137C933.31 362.834 934.746 364.184 936.617 364.184C939.011 364.184 939.598 365.468 938.663 368.949C937.401 374.302 943.167 381.114 951.241 383.573C956.354 385.096 957.53 388.751 952.938 388.751C949.979 388.751 949.978 391.123 952.698 397.586C953.634 399.632 953.634 401.939 952.785 402.701C951.937 403.55 950.74 403.027 950.305 401.591C948.782 397.347 945.626 398.696 945.8 403.636C945.887 406.182 945.387 410.099 944.712 412.383C942.993 417.65 950.914 423.352 954.57 419.435C956.267 417.563 956.267 416.715 954.309 416.04C950.74 414.756 951.066 407.205 954.657 407.205C959.401 407.205 960.424 410.6 963.231 434.733C966.974 466.112 966.887 509.199 963.144 516.336C961.033 520.427 960.859 522.124 962.643 522.711C963.992 523.234 964.34 524.344 963.492 525.28C962.643 526.194 960.685 525.193 959.074 523.061C956.441 519.405 956.006 519.492 950.392 525.28C944.538 531.308 944.538 531.307 945.213 492.377ZM482.119 520.079C479.137 519.056 478.376 518.295 480.334 518.208C482.206 518.033 484.142 516.183 484.752 513.876C485.339 511.679 486.95 509.808 488.234 509.808C489.583 509.808 491.215 511.679 491.802 513.876C492.39 516.183 494.087 517.969 495.719 517.969C497.243 517.969 498.526 518.904 498.526 520.079C498.526 522.473 489.517 522.473 482.119 520.079ZM478.028 513.876C478.028 512.767 478.963 511.831 480.073 511.831C481.183 511.831 482.119 512.767 482.119 513.876C482.119 514.986 481.183 515.923 480.073 515.923C478.876 515.923 478.028 514.986 478.028 513.876ZM495.719 512.854C496.394 511.156 497.242 509.808 497.678 509.808C498.178 509.808 498.526 511.156 498.526 512.854C498.526 514.551 497.591 515.923 496.568 515.923C495.458 515.923 495.023 514.551 495.719 512.854ZM367.526 502.648C359.017 493.487 359.018 493.487 359.018 459.562V425.724H334.471C310.403 425.724 309.816 425.55 309.816 421.132C309.816 418.412 313.559 413.232 319.413 407.792C328.857 399.131 329.183 399.045 344.068 399.045H359.018V383.225C359.018 367.426 359.017 367.426 367.7 358.57C373.053 353.129 378.145 349.821 381.213 349.821C385.718 349.821 385.37 350.496 376.622 360.527C367.439 370.994 367.265 371.582 367.265 385.182C367.265 398.609 367.439 399.045 372.378 399.045C377.296 399.045 377.471 398.523 377.471 385.771C377.471 372.779 377.645 372.431 388.003 361.202C393.966 354.761 400.255 349.821 402.539 349.821C404.933 349.821 413.507 356.698 422.864 366.055C435.355 378.633 439.011 383.573 439.011 388.078C439.011 393.431 437.901 392.668 420.905 375.825C404.846 359.766 402.539 358.156 400.08 361.137C397.621 364.009 399.906 366.991 418.185 385.358C429.675 396.826 439.011 407.292 439.011 408.467C439.011 409.925 433.396 410.338 422.45 409.663C409.698 408.989 405.346 409.404 403.997 411.536C400.602 416.889 402.125 417.476 420.579 417.476C437.661 417.476 439.011 417.825 439.011 421.568C439.011 425.485 437.661 425.724 417.511 425.724H396.011V411.361C396.011 400.306 396.686 396.999 398.884 396.999C400.516 396.999 402.125 397.935 402.474 399.219C402.974 400.394 407.044 401.068 412.07 400.742L420.818 400.067L405.955 385.27C386.218 365.555 385.718 366.056 385.718 405.421V435.929H412.418C439.01 435.929 439.011 435.93 439.011 443.677C439.011 450.64 437.313 453.098 421.079 469.332C397.795 492.464 396.011 492.552 396.011 469.855V452.338H412.331C426.52 452.338 428.892 451.836 430.85 448.246C432.983 444.263 432.395 444.177 409.35 444.177H385.718V465.677C385.718 485.914 385.457 487.264 381.648 487.264C377.731 487.264 377.471 485.914 377.471 456.494C377.471 425.724 377.47 425.724 372.378 425.724C367.265 425.724 367.265 425.724 367.265 458.126C367.265 490.506 367.265 490.506 373.989 497.143C379.603 502.496 382.411 503.671 389.875 503.671C398.644 503.671 399.667 502.91 419.034 483.695C438.162 464.567 439.011 463.979 439.011 469.941C439.011 474.947 435.703 479.364 421.079 493.987C403.061 511.831 403.061 511.831 389.548 511.831C376.121 511.831 375.86 511.744 367.526 502.648ZM412.418 467.722L419.295 460.584H411.722C404.411 460.584 404.171 460.846 404.171 467.722C404.171 471.726 404.498 474.946 404.759 474.946C405.194 474.946 408.588 471.726 412.418 467.722ZM377.471 412.383C377.471 407.204 377.47 407.205 354.273 407.205C332.164 407.205 330.815 407.444 326.223 412.383C321.458 417.475 321.458 417.476 349.508 417.476C377.471 417.476 377.471 417.475 377.471 412.383ZM546.205 493.052C532.017 479.038 527.251 472.989 527.251 469.006C527.251 464.328 529.449 465.938 547.227 483.695C566.943 503.345 567.465 503.584 577.062 503.584C585.135 503.584 588.029 502.496 593.97 497.143C601.042 490.68 601.042 490.68 601.042 458.191C601.042 425.724 601.042 425.724 594.906 425.724C588.791 425.724 588.791 425.723 588.791 456.406C588.791 481.409 588.203 487.199 585.897 487.199C581.566 487.199 580.543 482.52 580.543 462.783V444.764L558.609 443.503C546.466 442.806 536.173 442.741 535.585 443.241C534.976 443.829 535.499 445.874 536.761 447.833C538.393 450.466 542.897 451.576 555.127 452.338L571.273 453.36L571.969 470.268C572.47 486.676 572.383 487.199 567.879 487.199C564.745 487.199 557.259 481.236 545.269 469.246C528.948 453.099 527.251 450.64 527.251 443.677C527.251 435.93 527.251 435.929 553.93 435.929H580.543V404.223C580.543 383.224 579.782 372.083 578.258 371.147C576.974 370.386 569.337 376.436 560.306 385.358L544.681 401.069H554.452C559.805 401.069 564.136 400.155 564.136 398.958C564.136 397.848 566.007 396.911 568.314 396.911C571.969 396.911 572.383 398.283 572.383 411.274V425.636H549.773C528.6 425.636 527.251 425.398 527.251 421.568C527.251 417.738 528.6 417.476 545.704 417.476C563.113 417.476 564.136 417.236 564.136 413.058C564.136 408.902 563.461 408.815 545.704 409.663C533.714 410.164 527.251 409.751 527.251 408.38C527.251 407.205 537.022 396.499 548.925 384.509C566.355 366.991 570.011 362.312 567.792 360.441C565.507 358.57 561.416 361.725 547.641 375.5C538.219 385.009 529.71 392.843 528.861 392.843C527.926 392.843 527.251 390.71 527.251 388.164C527.251 382.898 559.131 349.734 564.31 349.734C566.007 349.734 572.209 354.674 578.084 360.615C588.791 371.408 588.791 371.408 588.791 385.182C588.791 398.957 588.791 398.958 594.906 398.958C601.108 398.958 601.108 398.957 601.108 385.182C601.108 371.408 601.108 371.408 590.401 360.615C579.695 349.734 579.695 349.734 585.81 349.734C590.401 349.734 594.318 352.041 600.694 358.57C609.268 367.339 609.268 367.338 609.268 383.137V398.958H624.239C639.189 398.958 639.189 398.958 648.807 408.816C664.192 424.375 663.083 425.636 633.923 425.636H609.268V492.465L599.497 502.147C589.988 511.504 589.291 511.745 577.41 511.745C565.158 511.745 565.158 511.744 546.205 493.052ZM564.136 467.722C564.136 460.846 563.809 460.584 556.584 460.584H549.012L555.975 467.722C559.718 471.726 563.2 474.946 563.548 474.946C563.896 474.946 564.136 471.726 564.136 467.722ZM640.908 412.383C635.968 407.444 634.619 407.205 612.249 407.205C588.791 407.205 588.791 407.204 588.791 412.383C588.791 417.475 588.791 417.476 617.363 417.476C646 417.476 646 417.475 640.908 412.383ZM217.572 488.112C217.572 483.194 220.727 478.777 234.501 465.09C245.556 454.122 253.02 448.246 256.001 448.246C258.547 448.246 260.593 448.943 260.593 449.792C260.593 450.727 250.909 461.085 239.093 472.814C218.507 493.313 217.572 494.075 217.572 488.112ZM726.167 469.855C707.627 451.141 705.407 448.246 709.846 448.246C717.136 448.246 749.365 480.649 748.429 487.025C747.754 490.767 744.425 488.113 726.167 469.855ZM911.984 366.577C907.544 350.082 903.301 335.633 902.54 334.437C901.691 333.327 898.971 326.864 896.512 320.075C885.196 289.544 861.237 247.131 833.601 208.876C830.533 204.632 830.533 204.219 833.949 202.848C838.367 201.238 843.633 207.027 860.715 232.422C885.784 269.742 910.874 326.776 922.081 372.082C928.131 396.651 928.13 396.064 923.626 396.412C920.645 396.651 918.512 391.211 911.984 366.577ZM315.757 286.236C310.578 283.254 307.183 272.897 308.619 264.824C310.991 252.333 324.853 247.306 334.711 255.379C338.54 258.535 339.041 259.884 337.104 261.842C335.058 263.888 333.775 263.714 330.728 260.993C322.981 253.943 316.018 258.186 316.018 270.003C316.018 274.159 317.28 278.663 318.999 280.034C322.481 282.928 329.444 281.231 331.055 276.966C332.426 273.484 338.54 275.269 338.54 279.186C338.54 286.062 323.417 290.74 315.757 286.236ZM343.72 284.104C349.247 266.695 356.645 252.398 360.475 251.81C363.957 251.31 365.655 253.943 371.008 268.305C374.577 277.749 377.471 286.062 377.471 286.91C377.471 290.066 371.356 288.02 369.31 284.19C367.787 281.383 364.98 280.122 360.127 280.122C354.948 280.122 352.816 281.231 351.88 284.19C351.118 286.497 348.746 288.369 346.44 288.369C343.306 288.369 342.632 287.433 343.72 284.104ZM363.108 270.35C363.021 263.039 359.953 261.581 357.581 267.869C355.536 273.31 355.71 274.007 359.192 274.007C361.585 274.007 363.108 272.548 363.108 270.35ZM386.153 285.126C383.672 283.342 381.648 280.622 381.648 279.012C381.648 275.029 389.025 275.182 390.658 279.273C392.268 283.43 400.842 282.254 401.691 277.662C402.213 275.094 400.167 273.572 394.052 271.962C383.585 269.154 380.017 263.365 384.608 256.402C389.635 248.742 408.241 250.461 408.241 258.621C408.241 262.277 405.433 262.517 400.341 259.296C398.209 257.925 394.814 257.599 392.682 258.361C388.873 259.884 388.873 259.97 392.769 262.777C394.988 264.387 398.296 265.759 400.167 265.759C402.039 265.759 405.107 267.456 406.978 269.502C417.249 280.883 399.405 294.31 386.153 285.126ZM414.53 285.736C414.617 284.365 417.249 276.292 420.405 267.783C427.629 248.677 432.461 246.456 437.988 260.057C450.239 290.566 449.717 288.369 444.973 288.369C442.405 288.369 440.294 286.671 439.62 284.19C438.771 281.057 436.813 280.122 430.85 280.122C424.822 280.122 422.864 281.057 422.015 284.19C420.905 288.629 414.355 289.979 414.53 285.736ZM433.831 269.328C432.983 266.869 432.047 264.388 431.612 263.888C430.524 262.604 429.501 264.149 427.89 269.328C426.694 273.158 427.194 274.007 430.85 274.007C434.419 274.007 434.941 273.158 433.831 269.328ZM453.373 269.828V251.397H463.405C476.918 251.397 484.077 256.75 480.574 264.301C478.703 268.479 478.789 270.003 481.27 271.962C489.67 279.012 480.16 288.282 464.688 288.282H453.46L453.373 269.828ZM473.436 279.773C476.766 276.378 472.762 271.874 466.473 271.874C462.643 271.874 461.62 272.983 461.62 277.052C461.62 280.969 462.643 282.167 466.299 282.167C468.932 282.167 472.174 281.056 473.436 279.773ZM472.936 261.668C472.936 259.797 470.629 258.274 467.234 257.925C462.643 257.338 461.62 258.099 461.62 261.668C461.62 265.237 462.643 265.933 467.234 265.323C470.629 264.997 472.936 263.453 472.936 261.668ZM490.366 269.828C490.366 254.792 490.867 251.397 493.413 251.397C495.807 251.397 496.481 254.117 496.481 263.54C496.481 280.382 497.504 282.167 506.926 282.167C512.715 282.167 514.934 283.015 514.934 285.213C514.934 287.607 512.214 288.282 502.596 288.282H490.366V269.828ZM523.247 271.612C530.733 251.309 530.646 251.397 535.324 251.397C539.067 251.397 539.655 252.485 549.948 278.598C553.864 288.282 553.865 288.282 549.6 288.282C547.054 288.282 544.921 286.671 544.246 284.19C543.398 280.97 541.439 280.122 535.411 280.122C529.383 280.122 527.251 281.057 526.228 284.19C525.554 286.497 523.16 288.282 521.049 288.282C517.393 288.282 517.48 287.258 523.247 271.612ZM538.392 269.328C536.434 262.952 535.498 262.343 533.279 265.847C530.145 270.765 531.081 273.919 535.585 273.919C539.067 273.919 539.567 273.071 538.392 269.328ZM558.021 269.828C558.021 253.421 558.456 251.397 561.677 251.397C563.896 251.397 567.705 255.379 571.36 261.581C578.346 273.658 581.566 274.768 579.956 264.562C578.498 255.988 579.869 251.397 583.851 251.397C586.071 251.397 586.745 255.379 586.745 269.828C586.745 286.671 586.332 288.282 582.763 288.282C580.217 288.282 576.3 284.191 571.534 276.465L564.223 264.736V276.465C564.136 285.561 563.461 288.282 561.089 288.282C558.608 288.282 558.021 284.887 558.021 269.828ZM599.171 284.278C590.749 275.878 592.621 256.315 602.217 252.659C608.68 250.113 616.928 251.397 620.583 255.553C625.937 261.429 621.519 266.085 615.644 260.732C610.291 255.988 604.698 257.337 602.391 263.888C598.061 276.117 608.18 287.52 615.404 278.598C617.515 275.878 619.909 275.029 622.629 275.943C626.285 277.314 626.198 277.663 621.084 282.842C614.469 289.392 604.85 290.066 599.171 284.278ZM632.052 277.488C634.445 271.613 637.492 263.54 638.95 259.558C640.56 254.966 642.932 252.158 645.652 251.723C649.221 251.222 650.94 253.769 656.293 267.63C659.775 276.639 662.582 284.974 662.582 286.149C662.582 289.892 656.706 288.455 654.422 284.19C652.876 281.318 650.069 280.122 645.326 280.122C640.212 280.122 638.188 281.144 637.405 284.19C636.73 286.671 634.619 288.282 632.052 288.282C627.808 288.282 627.808 288.282 632.139 277.488H632.052ZM650.331 273.071C650.331 272.548 649.221 269.588 648.046 266.346C645.913 260.993 645.652 260.906 644.042 264.736C641.322 271.439 641.844 273.919 646.174 273.919C648.459 273.919 650.331 273.484 650.331 273.071ZM174.746 236.686L149.329 207.941L157.228 199.954C161.472 195.537 166.585 191.467 168.457 190.858C170.481 190.183 180.774 195.123 193.7 202.935C205.69 210.246 215.548 215.774 215.548 215.339C215.548 214.838 210.194 203.871 203.731 190.945L192.002 167.313L201.185 158.065C206.19 152.864 211.283 148.968 212.392 149.295C213.589 149.556 226.428 162.569 240.964 178.193L267.404 206.503L260.419 213.641L253.455 220.866L235.524 201.738C217.571 182.697 217.572 182.697 222.25 192.903C224.883 198.517 229.91 208.876 233.566 215.948C241.639 231.66 241.639 233.03 233.892 238.797C227.603 243.475 227.603 243.475 208.41 230.984C180.686 213.054 179.664 213.467 199.554 234.989L217.419 254.269L210.782 259.883C207.213 263.038 203.297 265.498 202.187 265.411C201.099 265.411 188.673 252.398 174.746 236.686ZM745.622 255.727C723.687 245.695 713.242 221.214 722.838 202.587C739.072 171.142 777.588 166.29 796.542 193.252C808.859 210.748 805.051 230.637 786.249 247.219C772.148 259.623 759.81 262.19 745.622 255.727ZM774.868 228.004C784.987 217.385 786.684 207.266 779.547 200.128C772.736 193.339 766.186 192.903 756.241 198.779C739.159 208.811 734.393 224.783 745.622 234.379C754.304 241.865 763.64 239.82 774.868 228.004ZM690.871 245.347C686.976 242.301 686.04 239.907 686.715 235.142C687.651 229.114 687.738 229.027 692.656 232.357C696.246 234.641 697.421 236.86 696.66 239.82C696.072 242.126 696.572 245.174 697.769 246.632C701.164 250.788 696.66 249.852 690.871 245.347ZM827.747 200.128C826.964 198.931 827.9 198.083 829.771 198.083C831.556 198.083 832.491 199.018 831.817 200.128C831.055 201.238 830.206 202.174 829.771 202.174C829.358 202.174 828.422 201.238 827.747 200.128ZM666.477 191.88C657.555 187.202 646.762 175.299 644.977 168.162C641.148 153.038 650.069 131.624 665.389 119.286C681.1 106.621 708.824 112.584 720.118 130.929C723.948 137.305 725.471 151.253 722.925 157.803C721.054 162.569 703.123 153.538 704.646 148.62C707.54 139.698 694.875 128.295 685.431 131.277C679.142 133.322 669.198 145.726 666.39 155.171C664.28 162.221 664.366 164.506 666.912 169.01C671.33 176.931 679.838 179.304 687.651 174.886C693.765 171.404 694.027 171.404 700.903 176.67C709.064 182.872 708.911 185.092 699.554 191.381C691.045 197.147 676.857 197.408 666.477 191.968V191.88ZM286.27 182.871C264.749 173.188 252.781 142.069 263.052 122.18C273.693 101.616 302.069 93.9567 320.174 106.796C334.536 117.002 343.045 138.241 339.737 155.845C335.907 176.17 305.551 191.554 286.27 182.871ZM309.054 165.202C320.522 160.85 323.329 148.881 316.192 134.932C308.205 119.112 294.257 114.281 284.726 123.877C276.065 132.473 282.354 157.281 295.019 164.092C301.83 167.835 302.069 167.835 309.054 165.202ZM583.612 154.234C571.273 150.317 564.397 145.051 559.718 135.868C551.558 119.983 557.847 92.6946 572.383 80.4432C593.469 62.6863 627.134 74.2408 632.813 101.094C634.772 110.712 633.248 111.887 622.107 109.015C613.707 106.882 612.162 105.686 611.313 100.507C609.203 88.19 592.621 86.4057 584.46 97.6126C574.254 111.648 575.016 131.277 585.897 136.304C593.295 139.611 596.015 139.175 602.391 133.735C607.832 129.057 608.419 128.991 616.841 131.864C621.693 133.496 625.676 135.52 625.676 136.369C625.676 140.112 611.748 152.776 605.372 154.821C596.864 157.541 594.057 157.455 583.612 154.234ZM370.594 153.212C368.548 149.817 354.513 76.7875 355.71 75.6777C356.384 74.916 367.177 72.2822 379.777 69.6491C405.607 64.383 413.855 65.4939 421.253 75.4386C427.02 83.2508 426.868 97.7866 420.818 105.947C416.227 112.062 416.227 112.062 422.363 119.721C425.671 123.878 430.763 129.579 433.744 132.299C436.639 135.019 439.011 137.827 439.011 138.588C439.011 139.35 434.245 141.048 428.304 142.419C417.598 144.878 417.597 144.878 407.914 134.084C402.539 128.057 398.122 122.529 398.122 121.681C398.035 120.832 395.162 120.135 391.593 120.135C385.457 120.135 385.283 120.396 386.567 126.771C389.461 141.047 390.309 150.905 388.612 150.905C387.589 150.992 383.259 151.753 379.081 152.776C374.838 153.799 371.007 153.973 370.594 153.212ZM401.538 99.31C405.107 96.3505 404.933 88.4292 401.19 85.3827C399.319 83.7506 395.663 83.3374 391.506 84.186C377.47 87.0802 377.819 86.6444 380.104 95.8275C382.236 104.162 382.236 104.162 390.57 102.791C395.162 102.117 400.08 100.507 401.538 99.31ZM473.958 135.868C452.524 124.901 448.107 86.5575 466.125 67.4297C482.881 49.5857 519.352 55.5487 529.383 77.7231C536.26 92.7816 533.453 118.024 523.856 128.731C512.627 141.047 490.453 144.29 473.958 135.868ZM505.229 118.525C510.169 114.194 513.389 100.767 511.866 91.236C509.32 76.3733 494.022 70.2372 482.967 79.7685C476.33 85.4699 473.871 101.855 478.115 112.148C482.706 123.203 496.22 126.424 505.229 118.525Z" fill="#25549A"/>
</svg>
