<svg width="958" height="565" viewBox="0 0 958 565" fill="none" xmlns="http://www.w3.org/2000/svg">
<path fill-rule="evenodd" clip-rule="evenodd" d="M411.461 563.573C351.414 557.689 297.059 547.023 250.02 531.963C226.888 524.568 198.065 513.515 194.367 510.573C193.012 509.585 190.36 508.463 188.463 508.153C183.624 507.475 152.846 491.661 134.108 480.259C110.589 465.954 89.3341 449.636 69.3765 430.491C52.8066 414.618 48.4319 408.424 53.639 408.424C54.7811 408.424 55.1683 407.804 54.4714 407.127C53.7165 406.372 51.6065 405.771 49.7094 405.771C42.0826 405.617 16.8212 364.037 8.5749 338.02C-5.71088 293.111 -2.07161 246.673 18.9312 203.661C53.9488 131.961 136.45 71.7788 250.93 34.3416C301.066 17.9458 343.323 9.38971 410.551 2.20813C441.175 -1.12134 520.947 -0.579346 554.899 3.11792C610.029 9.09937 659.778 19.2237 703.777 33.2191C732.136 42.2203 764.192 55.2862 764.192 57.7833C764.192 59.0803 765.257 59.6806 766.554 59.158C771.393 57.3384 810.108 77.3729 839.066 96.8077C863.708 113.358 892.745 138.097 894.487 144.059C894.719 145.124 895.474 145.724 896.074 145.589C897.971 144.892 909.76 158.132 920.348 172.96C932.601 190.111 946.5 218.179 951.882 236.994C957.476 256.352 958.831 295.744 954.592 316.554C939.996 388.679 881.711 452.887 788.544 499.229C763.437 511.715 719.883 529.253 707.339 531.963C704.397 532.66 700.313 533.86 698.338 534.692C680.123 542.474 619.398 555.192 572.979 560.941C546.421 564.251 436.703 565.993 411.461 563.573ZM911.115 399.267C909.837 397.157 904.92 397.08 904.92 399.267C904.92 401.242 908.85 402.907 910.824 401.764C911.579 401.3 911.734 400.255 911.115 399.267ZM782.194 69.2815C782.194 68.2169 781.594 67.3849 780.839 67.3268C780.162 67.2494 777.665 66.7848 775.458 66.417C770.696 65.5072 769.864 68.6042 774.568 69.8044C780.084 71.2562 782.194 71.1011 782.194 69.2815ZM314.519 24.5275C315.351 22.0304 308.46 21.5656 306.95 23.9852C305.828 25.7274 309.234 27.7795 312.099 27.0246C313.087 26.7923 314.132 25.6503 314.519 24.5275ZM543.556 556.992C543.943 555.869 541.582 554.572 538.271 554.049C531.148 552.985 530.18 553.604 533.277 557.301C535.852 560.399 542.491 560.244 543.556 556.992ZM512.933 550.12C611.83 547.313 711.579 522.749 789.453 482.059C877.162 436.24 930.782 374.548 941.371 307.087C943.326 294.834 944.081 292.879 946.81 293.557C951.959 294.912 952.482 291.292 947.41 289.395C942.203 287.362 941.661 285.31 945.378 281.613C949.152 277.838 949.83 268.605 946.442 268.605C944.468 268.605 942.571 263.766 939.783 251.28C926.543 192.395 886.008 142.937 815.392 99.4601C730.316 47.137 607.823 15.2938 491.31 15.1389C466.881 15.1389 459.254 14.5387 459.254 12.874C459.254 11.2866 458.79 11.2094 457.88 12.5645C457.125 13.7065 446.846 15.0615 433.083 15.8165C346.73 20.4429 253.64 43.0521 185.753 75.9404C170.171 83.5091 168.816 83.8775 170.016 80.8577C170.771 78.8832 169.493 78.2827 164.944 78.2827C158.905 78.3601 158.905 78.3606 162.912 81.7675C166.996 85.155 166.996 85.1546 154.82 91.891C123.21 109.429 85.0367 139.084 66.7246 160.242C60.685 167.211 57.646 169.553 56.6007 167.966C55.6135 166.456 55.1682 166.901 55.1682 169.321C55.1682 171.373 51.8387 177.877 47.8318 183.761C4.1227 248.493 3.7356 318.973 46.922 381.943C51.4516 388.602 55.1682 395.648 55.1682 397.68C55.1682 399.713 55.9232 400.933 56.8911 400.333C57.8783 399.713 66.202 406.759 75.4161 415.973C143.167 483.724 258.557 531.363 391.639 546.423C417.965 549.365 465.894 552.385 473.695 551.552C476.192 551.32 493.807 550.642 512.933 550.12ZM120.267 197.08C109.679 184.071 107.259 179.987 108.692 177.722C111.866 172.651 125.629 163.049 129.791 163.049C136.605 163.049 141.735 168.043 141.735 174.683C141.735 179.522 142.722 181.052 146.729 182.716C149.458 183.839 154.065 186.723 157.008 188.988C162.234 193.208 162.234 193.208 157.55 196.325C153.001 199.267 152.633 199.267 145.742 194.737C141.58 191.93 137.495 190.498 135.695 191.175C131.611 192.762 131.901 194.35 137.573 201.009C141.289 205.461 141.967 207.435 140.534 209.7C136.895 215.527 133.488 213.398 120.267 197.08ZM131.533 182.639C135.463 176.425 128.649 171.373 122.087 175.593C119.88 176.967 119.957 177.935 122.609 181.942C125.939 187.013 128.649 187.246 131.533 182.639ZM801.184 201.009C798.532 198.048 798.222 196.247 799.597 191.563C801.107 186.414 800.719 185.194 796.713 181.729C792.183 177.8 792.183 177.799 786.356 181.342C781.672 184.226 779.852 184.516 776.755 182.852C774.703 181.806 773.271 179.987 773.658 178.922C773.948 177.935 782.794 171.218 793.228 164.036C812.295 150.951 812.295 150.951 817.057 154.435C819.786 156.39 821.896 158.887 821.974 160.029C821.974 163.417 806.856 204.551 805.559 204.551C804.959 204.551 802.984 202.964 801.184 200.931V201.009ZM808.579 169.631C810.94 162.894 810.94 162.894 805.191 166.901C802.016 169.088 799.055 171.14 798.687 171.431C797.312 172.495 802.616 177.645 804.436 177.045C805.481 176.657 807.301 173.405 808.579 169.708V169.631ZM155.575 168.488C148.916 158.577 143.554 150.118 143.554 149.654C143.554 148.299 164.267 134.245 166.396 134.245C171.08 134.245 170.693 140.362 165.699 144.369C162.989 146.634 160.105 148.531 159.35 148.609C157.085 148.686 157.84 153.448 160.415 155.635C162.234 157.067 164.267 156.467 168.816 153.138C173.345 149.808 175.378 149.208 177.197 150.718C179.772 152.848 180.527 157.687 178.262 157.687C177.507 157.687 174.623 159.487 171.913 161.752C167.151 165.546 167.074 165.992 169.726 169.786C172.59 173.851 172.59 173.85 179.695 169.166C186.799 164.404 192.257 164.404 192.257 169.088C192.257 171.295 171.448 186.569 168.506 186.569C167.983 186.569 162.157 178.399 155.575 168.488ZM759.817 171.508C756.797 169.243 757.32 167.811 768.741 149.886C775.4 139.22 781.362 130.606 781.962 130.683C782.659 130.683 784.614 131.825 786.434 133.18C789.221 135.368 789.376 136.355 787.498 139.917C782.272 149.654 765.934 173.85 764.579 173.85C763.747 173.85 761.637 172.805 759.817 171.508ZM189.973 146.034C184.302 135.677 179.617 126.444 179.617 125.534C179.617 122.979 196.865 114.346 202.072 114.346C213.648 114.346 219.706 124.566 214.557 135.29C212.97 138.697 211.15 141.427 210.55 141.504C209.95 141.504 207.898 142.627 206.079 144.001C202.982 146.421 202.981 146.789 206.543 153.603C210.163 160.784 210.163 160.784 205.633 162.817C203.136 163.959 200.949 164.869 200.717 164.869C200.484 164.869 195.723 156.39 189.973 146.034ZM205.188 133.336C208.498 125.999 201.394 120.482 194.367 124.934C192.316 126.231 192.393 127.509 194.813 132.116C198.374 138.93 202.459 139.453 205.188 133.336ZM725.864 152.848L717.328 148.066L725.709 132.581C740.382 105.5 739.995 105.732 755.21 115.255C765.721 121.914 767.386 134.69 757.92 137.033C754.068 138.02 753.758 138.697 755.346 142.859C756.797 146.556 756.41 148.531 753.681 152.151C748.706 158.887 737.208 159.197 725.864 152.848ZM744.312 144.214C744.312 141.504 742.802 138.93 740.615 137.71C736.375 135.445 736.608 135.368 733.646 140.962C730.858 146.343 732.523 148.609 739.027 148.609C743.479 148.609 744.312 147.931 744.312 144.214ZM752.79 127.664C753.836 124.935 749.383 119.805 746.054 119.805C744.312 119.805 740.828 128.264 742.047 129.483C744.312 131.748 751.726 130.451 752.79 127.664ZM235.87 136.665C232.773 133.781 227.488 125.244 224.004 117.52C217.887 103.835 217.809 103.544 221.352 101.57C227.101 98.55 229.075 100.447 234.592 114.191C237.477 121.237 240.787 127.876 242.084 128.941C245.258 131.593 251.917 130.296 254.259 126.599C256.214 123.579 256.002 122.979 245.336 98.5504C242.839 92.8787 242.916 92.5689 247.291 90.6138C249.788 89.4717 252.207 88.9487 252.749 89.4713C253.35 89.994 256.602 97.4856 260.067 106.042C265.738 119.94 266.28 122.36 264.461 127.819C262.196 134.768 256.001 139.452 247.368 140.807C242.606 141.64 240.419 140.808 235.87 136.665ZM700.603 140.207C698.861 139.762 697.428 138.93 697.428 138.33C697.428 136.123 716.108 96.2855 717.095 96.3629C717.695 96.421 719.883 97.4083 722.012 98.6278C725.709 100.815 725.632 101.048 716.631 121.16C711.656 132.271 706.662 141.349 705.674 141.194C704.61 141.117 702.345 140.594 700.603 140.13V140.207ZM679.445 130.683C677.083 129.173 677.393 126.986 681.555 114.423C684.13 106.487 686.085 99.905 685.794 99.905C685.485 99.905 680.955 105.577 675.651 112.546C670.366 119.495 665.759 125.167 665.372 125.167C664.985 125.167 663.262 124.411 661.52 123.424C658.713 121.992 658.346 119.805 658.946 107.706L659.701 93.6331L654.184 105.209C647.447 119.263 648.047 118.663 642.685 117.308C638.311 116.166 638.311 116.165 647.292 95.898C652.209 84.7094 656.836 75.0311 657.513 74.431C658.113 73.831 661.365 74.5079 664.772 75.9404C670.889 78.5149 670.889 78.515 669.689 92.8007C668.992 100.66 668.857 107.164 669.224 107.164C669.612 107.164 673.541 102.248 677.858 96.3629C686.007 85.0969 690.092 83.2769 696.441 87.884C699.635 90.2262 699.48 91.2138 693.576 110.881C687.459 131.439 685.33 134.458 679.445 130.683ZM279.889 123.115C279.424 121.76 276.191 112.313 272.63 102.092L266.28 83.5096L273.907 80.0254C285.173 74.8763 296.071 75.3408 299.769 81.0125C302.498 85.155 302.498 85.8516 299.769 89.9941C296.981 94.3108 296.981 94.5434 300.388 94.5434C308.015 94.5434 311.944 106.487 306.737 113.978C301.433 121.528 281.631 128.264 279.889 123.115ZM297.659 110.184C300.446 105.809 295.007 100.892 289.103 102.402C284.883 103.467 284.728 103.912 286.548 109.661C288.135 114.888 288.967 115.643 292.142 114.5C294.174 113.745 296.671 111.771 297.659 110.184ZM290.632 90.8265C291.987 88.6391 288.348 83.6448 285.405 83.7222C280.256 83.7996 278.611 86.6068 280.876 91.4461C282.541 95.2208 283.586 95.8204 286.238 94.4654C288.057 93.4782 290.012 91.8137 290.632 90.8265ZM625.302 112.758C621.663 111.771 620.599 110.184 620.231 104.977C619.786 100.06 618.721 98.2403 615.701 97.4079C608.887 95.6077 607.378 96.1303 604.571 101.57C602.228 106.177 601.241 106.641 596.866 105.422C594.137 104.667 592.105 102.925 592.395 101.647C593.092 98.7822 614.327 64.0747 615.991 63.2424C616.592 62.8552 619.708 63.2423 622.883 64.1521C628.245 65.5846 628.69 66.3391 629.6 75.108C631.342 92.9555 632.097 114.346 630.974 114.191C630.277 114.055 627.722 113.436 625.302 112.758ZM619.844 81.4573C619.844 73.7531 619.844 73.7531 616.224 79.7152C612.449 85.929 612.739 89.1039 617.288 89.1039C619.089 89.1039 619.844 86.8967 619.844 81.4573ZM321.701 111.326C320.036 108.461 310.88 69.0493 311.654 68.2944C312.099 67.8492 314.364 67.3264 316.706 67.0166C320.636 66.5714 321.333 67.8495 325.475 83.3548L330.024 100.137L339.626 98.9178C348.917 97.7177 349.227 97.8728 349.227 102.035C349.227 105.809 347.949 106.642 339.78 108.519C334.554 109.661 328.592 111.094 326.385 111.713C324.275 112.391 322.165 112.158 321.701 111.326ZM357.628 102.17C355.808 99.0727 349.149 61.2675 350.059 58.9252C350.582 57.4928 352.789 56.6606 355.053 56.951C358.751 57.4156 359.583 59.603 363.358 77.8957C365.719 89.1617 367.152 99.5371 366.532 100.892C365.565 103.622 359.06 104.512 357.628 102.17ZM573.657 100.583C572.515 100.215 569.263 92.9557 566.475 84.4772C563.591 76.0954 560.726 69.2815 560.107 69.2815C559.507 69.2815 558.461 74.7209 557.764 81.4573C556.332 95.9754 555.132 98.3181 549.905 96.9631C545.143 95.6661 545.221 97.0399 548.628 75.108C552.79 48.1818 552.17 49.6922 558.906 51.0666C564.423 52.1119 565.256 53.3311 570.56 67.462C576.231 82.735 576.231 82.735 577.432 75.5534C580.238 58.0156 581.129 55.6733 584.768 56.3508C589.917 57.2606 589.917 57.1057 587.556 74.1983C583.858 101.337 583.781 101.725 579.464 101.57C577.354 101.492 574.702 101.125 573.657 100.583ZM383.412 94.0011C367.829 83.5674 370.694 59.2354 388.251 51.899C394.968 49.0922 406.989 48.5695 406.989 51.0666C406.989 55.4414 404.357 58.403 400.563 58.403C384.767 58.403 378.573 76.6955 391.194 86.1419C395.356 89.2391 396.943 89.4713 402.46 87.8066C407.977 86.0644 409.041 86.2194 410.629 89.1617C413.126 93.7882 413.048 93.9434 406.699 96.1307C397.853 99.2279 389.974 98.4727 383.412 94.0011ZM445.259 89.8588C432.773 81.148 432.773 57.3384 445.259 48.6469C452.053 43.885 465.449 44.9299 471.953 50.7565C482.619 60.2803 482.387 79.1154 471.411 88.2715C465.217 93.5561 451.608 94.3885 445.182 89.8588H445.259ZM465.526 79.6378C469.901 73.366 469.069 62.7005 463.862 57.4159C458.267 51.899 456.602 51.8989 450.853 57.6481C446.846 61.6551 446.324 63.4548 447.156 70.2686C447.601 74.6434 449.034 79.4832 450.253 81.0125C453.641 85.0969 462.197 84.3223 465.526 79.6378ZM490.555 75.108C491.233 65.4293 491.756 54.9182 491.756 51.6662C491.756 45.8396 491.833 45.7623 500.525 45.7623C515.797 45.7623 520.637 47.4275 520.637 52.5765C520.637 56.9513 520.346 57.0287 511.578 55.906C502.576 54.6865 502.576 54.6862 502.576 60.1256C502.576 65.4296 502.867 65.662 510.668 65.662C518.159 65.662 518.837 66.0295 518.837 70.1139C518.837 74.3532 518.217 74.6437 509.758 74.6437C500.757 74.6437 500.757 74.6436 500.757 83.6448C500.757 92.5686 500.679 92.7233 495.085 92.7233C489.413 92.7233 489.413 92.7233 490.555 75.108ZM241.251 62.8549C243.071 53.5633 343.168 30.1214 406.08 24.2174C441.484 20.9653 508.016 19.6107 508.016 22.1852C508.016 23.308 509.158 24.0629 510.59 23.7726C512.023 23.4629 513.242 24.0626 513.32 24.9724C513.32 26.037 504.996 26.5598 492.22 26.2501C412.816 24.4499 305.673 41.2327 243.071 65.1971C241.406 65.8747 240.787 65.0422 241.251 62.8549ZM550.738 530.375C549.983 528.42 554.899 527.278 573.502 524.858C695.551 508.985 802.307 464.366 862.644 404.029C892.067 374.625 907.785 348.764 915.954 316.476C920.794 297.196 920.039 260.901 914.367 243.344C886.473 156.467 784.614 86.5294 635.426 51.899C624.393 49.3245 613.727 46.9818 611.752 46.6721C537.73 35.7158 488.426 32.9865 431.941 36.7612C224.604 50.6792 60.0077 144.214 39.8759 259.526C38.3661 268.218 37.0884 278.516 37.0884 282.368C37.0884 287.652 36.4109 289.317 34.146 289.317C31.4941 289.317 31.2618 287.517 32.249 274.432C37.3207 205.616 89.7213 142.337 179.772 96.3629C260.299 55.1509 353.621 33.0642 459.254 30.1219C624.16 25.5729 783.627 76.1729 867.038 159.41C918.761 211.055 936.821 269.05 919.129 326.754C888.505 426.406 752.094 507.321 575.999 530.163C550.292 533.492 551.88 533.492 550.738 530.375ZM452.963 460.592C346.13 455.152 249.265 406.449 216.667 341.795C201.549 311.714 197.852 279.348 206.466 251.512C228.611 180.064 306.273 128.573 417.888 111.403C446.537 106.932 508.093 106.932 536.742 111.326C613.804 123.269 670.967 149.808 711.269 192.608C783.549 269.128 754.9 369.554 645.105 424.529C590.13 451.978 525.031 464.212 452.963 460.592ZM537.729 450.603C656.971 432.078 739.395 368.257 743.789 291.137C745.899 253.409 734.111 225.283 702.868 193.517C661.598 151.628 600.486 125.399 522.089 116.01C499.324 113.3 437.09 114.81 413.281 118.662C276.036 140.885 189.606 223.851 212.06 311.772C227.256 371.141 288.735 419.38 378.863 442.744C398.375 447.816 428.476 452.733 448.434 454.165C467.036 455.52 519.669 453.41 537.729 450.603ZM292.142 401.997C283.973 393.828 290.4 379.523 302.266 379.523C312.932 379.523 317.093 393.828 308.692 402.21C303.021 407.882 297.968 407.804 292.142 401.997ZM306.195 395.028C310.589 385.427 301.066 380.51 296.304 389.976C293.129 396.325 294.252 399.423 299.769 399.423C302.73 399.423 304.918 397.912 306.195 395.028ZM649.19 396.538C645.937 391.021 643.286 385.737 643.286 384.827C643.286 383.839 646.17 381.73 649.712 380.065C656.971 376.581 662.275 378.4 662.275 384.305C662.275 386.105 664.54 389.666 667.347 392.008C671.876 395.86 672.109 396.616 669.534 398.068C667.405 399.19 665.527 398.88 663.34 396.848C658.559 392.531 655.306 393.073 657.804 397.757C659.855 401.532 659.023 406.681 656.449 406.604C655.694 406.526 652.364 402.074 649.19 396.538ZM656.894 388.447C658.501 385.969 655.094 382.407 652.596 383.917C650.467 385.195 651.841 390.421 654.184 390.421C655.016 390.421 656.294 389.511 656.894 388.447ZM669.766 382.02C664.772 374.916 663.34 371.451 664.695 370.076C666.05 368.721 667.405 368.877 669.379 370.464C671.799 372.419 672.186 372.128 672.186 368.412C672.186 364.037 675.128 359.72 678.071 359.72C678.981 359.72 679.445 362.662 679.135 366.302C678.535 372.651 678.826 373.038 686.162 375.516C690.401 376.89 693.808 378.71 693.808 379.523C693.808 382.175 688.427 383.085 683.665 381.265C677.993 379.078 676.193 380.22 679.368 383.994C681.633 386.724 680.723 392.241 678.071 392.086C677.316 392.086 673.541 387.556 669.766 382.02ZM272.32 387.769C271.797 386.337 273.617 382.175 276.327 378.633C280.489 373.174 280.953 371.451 279.211 368.644C275.649 362.972 280.256 362.585 287.98 367.889C295.084 372.883 297.349 377.8 292.51 377.8C291.077 377.8 289.412 376.89 288.735 375.903C288.135 374.838 284.805 377.645 281.321 382.175C274.449 391.176 273.83 391.621 272.32 387.769ZM254.104 374.083L248.278 368.877L256.447 359.353C260.899 354.126 265.216 350.119 265.893 350.487C266.571 350.874 269.455 353.139 272.32 355.558C276.191 358.733 277.004 360.475 275.572 361.908C274.062 363.418 272.63 363.205 270.21 360.94C268.39 359.275 266.28 357.901 265.68 357.901C263.319 357.901 264.461 362.063 267.403 364.192C272.242 367.735 268.7 371.064 263.628 367.734C258.112 364.114 255.537 367.502 260.067 372.496C265.525 378.555 260.531 379.91 254.104 374.083ZM715.508 325.012C715.508 322.98 714.076 321.838 711.424 321.76C707.862 321.76 707.707 321.451 710.436 319.941C712.101 318.973 713.088 316.999 712.546 315.644C710.901 311.25 720.115 313.301 722.225 317.753C723.754 320.928 723.599 321.838 721.702 321.838C720.347 321.838 718.373 323.27 717.386 325.012C715.663 327.955 715.586 327.955 715.508 325.012ZM233.76 321.838C233.76 320.85 232.56 320.018 231.031 320.018C229.598 320.018 228.32 319.186 228.32 318.218C228.32 317.231 229.23 316.399 230.276 316.399C231.418 316.399 231.727 314.811 230.895 312.392C229.753 308.753 229.985 308.598 232.637 310.804C235.115 312.837 236.025 312.837 238.599 310.727C241.329 308.598 241.483 308.675 240.341 311.714C239.509 313.902 240.187 315.856 242.316 317.444C245.258 319.728 245.181 319.863 241.406 319.941C239.199 319.941 237.399 320.85 237.399 321.838C237.399 322.825 236.567 323.658 235.579 323.658C234.592 323.658 233.76 322.825 233.76 321.838ZM722.167 301.493C721.412 299.461 719.96 298.861 717.773 299.616C715.044 300.661 714.908 300.448 716.863 298.028C718.16 296.499 718.683 294.079 718.218 292.724C717.541 291.059 718.76 290.15 721.78 289.995C724.587 289.859 726.31 290.692 726.31 292.279C726.31 293.634 727.297 294.776 728.594 294.834C730.026 294.834 729.871 295.609 727.897 297.041C726.387 298.242 724.645 300.448 724.2 301.881C723.522 303.991 723.135 303.913 722.167 301.416V301.493ZM227.643 297.254C227.023 295.899 225.223 294.776 223.481 294.699C220.384 294.699 220.384 294.544 223.404 292.802C225.146 291.814 226.578 289.705 226.578 288.118C226.578 285.93 227.101 285.775 228.998 287.363C230.353 288.485 233.005 288.873 234.902 288.118C237.767 287.053 237.922 287.285 236.025 289.627C234.67 291.292 234.515 292.957 235.502 294.021C236.567 294.989 235.502 296.441 232.85 297.718C229.443 299.306 228.398 299.228 227.643 297.254ZM723.89 277.142C723.135 276.019 721.257 275.555 719.592 276.251C717.328 277.084 716.941 276.619 717.928 274.122C718.605 272.302 718.295 269.824 717.25 268.527C715.74 266.708 716.108 266.418 718.992 267.173C721.102 267.695 722.69 267.25 722.69 266.108C722.69 264.985 723.522 264.076 724.509 264.076C725.477 264.076 726.31 265.275 726.31 266.785C726.31 268.295 727.761 269.515 729.426 269.593C732.291 269.593 732.368 269.824 729.716 271.779C728.129 272.999 726.464 275.186 726.019 276.619C725.419 278.516 724.722 278.671 723.832 277.142H723.89ZM226.578 274.199C226.578 272.689 225.146 270.638 223.404 269.67C220.461 267.928 220.461 267.772 223.249 267.772C224.991 267.695 226.965 266.63 227.798 265.353C228.921 263.456 230.063 263.378 233.45 265.121C236.18 266.495 236.934 267.695 235.657 268.527C234.147 269.515 234.147 270.502 235.812 272.534C237.689 274.799 237.535 275.187 234.592 274.664C232.637 274.354 230.063 274.722 228.766 275.477C227.333 276.387 226.501 275.941 226.501 274.199H226.578ZM720.038 253.332C719.438 252.422 717.773 252.055 716.34 252.655C714.676 253.255 713.688 252.577 713.688 250.757C713.688 249.17 712.856 247.893 711.869 247.893C710.901 247.893 710.069 247.06 710.069 246.073C710.069 245.086 711.191 244.253 712.624 244.253C713.998 244.253 715.663 243.208 716.186 241.988C717.095 240.169 717.463 240.169 718.296 241.988C718.915 243.208 720.502 244.253 721.935 244.253C723.367 244.253 724.509 245.086 724.509 246.073C724.509 247.06 723.754 247.893 722.845 247.893C721.935 247.893 721.625 249.48 722.167 251.435C723.135 255.229 721.935 256.352 720.038 253.332ZM231.495 250.08C232.018 248.647 231.34 246.75 229.985 245.918C227.933 244.64 228.011 244.331 230.508 244.253C232.173 244.253 234.36 242.821 235.425 241.079C237.167 238.059 237.244 238.059 237.322 241.079C237.322 242.821 238.754 244.253 240.419 244.253C242.684 244.253 242.993 244.796 241.483 246.306C240.341 247.351 239.819 249.248 240.187 250.312C240.651 251.513 238.831 252.422 235.734 252.577C231.805 252.654 230.74 252.054 231.495 250.08ZM247.291 231.633C246.613 230.491 244.794 230.045 243.361 230.568C241.696 231.245 241.019 230.723 241.483 229.368C241.929 228.148 241.483 225.574 240.496 223.696C239.122 220.967 239.277 220.444 241.483 221.276C242.916 221.876 244.871 221.644 245.703 220.889C246.613 220.134 248.51 220.811 250.02 222.399C252.207 224.741 252.362 226.193 250.698 229.503C249.343 232.31 248.123 232.988 247.291 231.633ZM704.61 230.278C704.61 229.058 703.255 227.993 701.513 227.916C698.493 227.916 698.493 227.78 701.513 225.496C703.255 224.218 704.61 222.244 704.61 221.199C704.61 219.902 705.907 219.902 708.694 221.276C714.521 223.986 714.676 232.542 708.849 232.542C706.584 232.542 704.61 231.555 704.61 230.278ZM257.879 212.797C253.717 210.978 252.208 201.842 256.292 203.429C257.589 203.874 259.467 203.351 260.609 202.209C262.119 200.777 262.641 201.009 262.641 203.119C262.641 204.706 263.628 206.448 264.906 206.971C266.513 207.668 266.571 208.345 265.138 209.391C264.093 210.223 262.873 211.675 262.428 212.72C261.964 213.862 260.376 213.94 257.879 212.797ZM690.247 212.12C690.247 209.932 689.492 208.19 688.582 208.19C687.672 208.19 687.827 206.293 688.892 203.951C690.634 200.409 691.466 200.099 695.086 201.764C697.351 202.828 698.861 204.551 698.493 205.693C698.028 206.835 698.648 208.636 699.693 209.778C701.222 211.21 700.835 211.752 698.106 211.752C696.151 211.752 693.576 212.72 692.376 213.94C690.711 215.605 690.169 215.217 690.169 212.12H690.247ZM275.281 197.37C275.281 196.324 273.539 195.57 271.41 195.57C268.39 195.57 268.022 195.028 269.687 193.073C270.81 191.698 271.197 189.065 270.52 187.168C269.532 184.439 269.745 184.226 271.72 186.026C273.152 187.401 274.817 187.614 276.036 186.646C277.314 185.581 278.669 186.414 279.811 188.911C281.244 191.931 280.953 193.517 278.456 196.014C276.714 197.757 275.281 198.357 275.281 197.292V197.37ZM675.806 196.924C675.806 195.182 674.664 193.75 673.231 193.75C671.199 193.75 671.122 192.917 672.786 189.433C674.819 185.136 683.897 183.394 682.233 187.614C681.865 188.756 682.388 190.575 683.51 191.698C685.04 193.208 684.73 193.75 682.542 193.75C680.955 193.75 678.748 195.182 677.78 196.924C675.961 199.867 675.883 199.867 675.883 196.924H675.806ZM292.51 184.304C291.755 182.561 289.877 181.109 288.348 181.109C286.238 181.109 286.083 180.587 287.67 178.632C288.812 177.258 289.18 174.625 288.503 172.805C287.38 169.844 287.593 169.708 290.013 171.663C291.6 172.96 294.252 173.405 296.071 172.727C298.568 171.74 299.091 172.127 298.259 174.237C297.659 175.825 298.104 177.935 299.246 179.077C300.678 180.587 300.446 181.109 298.259 181.109C296.672 181.109 295.007 182.561 294.639 184.304C293.884 187.246 293.807 187.246 292.51 184.304ZM309.08 169.843C307.337 168.121 306.737 166.669 307.705 166.669C308.692 166.669 309.525 164.869 309.525 162.739C309.525 159.797 310.067 159.275 311.577 160.784C312.699 161.907 314.829 162.294 316.339 161.694C318.216 160.997 318.681 161.384 317.771 162.817C317.016 164.036 317.248 165.992 318.294 167.211C321.546 171.218 312.854 173.715 309.08 169.843ZM638.911 171.663C638.156 169.921 636.491 168.488 635.271 168.488C633.839 168.488 633.317 166.901 633.762 164.404C634.594 160.029 643.286 158.365 643.286 162.584C643.286 163.881 644.118 164.869 645.105 164.869C646.092 164.869 646.925 165.701 646.925 166.669C646.925 167.656 645.783 168.488 644.35 168.488C642.918 168.488 641.408 169.921 641.021 171.663C640.266 174.625 640.188 174.625 638.911 171.663ZM331.302 163.281C331.225 161.907 329.792 159.72 328.05 158.365C326.095 156.913 325.785 155.945 327.14 155.945C328.36 155.868 329.424 154.28 329.424 152.383C329.424 149.441 329.947 149.209 333.799 151.028C339.161 153.603 341.29 161.229 336.528 161.229C334.709 161.229 332.889 162.294 332.366 163.494C331.689 165.159 331.457 165.082 331.302 163.281ZM618.043 161.229C618.043 160.242 617.056 159.487 615.759 159.487C614.559 159.487 613.494 157.454 613.494 154.957C613.494 152.305 614.404 150.719 615.546 151.183C616.669 151.628 618.334 151.26 619.166 150.428C620.076 149.518 621.663 150.718 622.883 153.215C624.005 155.635 624.16 157.687 623.25 157.687C622.341 157.687 621.663 158.887 621.663 160.397C621.663 161.829 620.831 163.049 619.844 163.049C618.876 163.049 618.043 162.294 618.043 161.229ZM351.046 153.138C351.046 151.628 350.292 150.428 349.382 150.428C348.472 150.428 348.704 148.453 349.827 146.111C351.259 143.091 352.556 142.259 353.911 143.382C355.054 144.292 357.551 144.524 359.351 143.847C362.39 142.705 362.467 142.937 360.261 145.589C358.228 148.144 358.228 149.131 360.261 151.628C362.467 154.28 362.312 154.435 358.673 153.293C356.176 152.538 354.666 152.77 354.666 153.97C354.666 155.035 353.834 155.868 352.847 155.868C351.879 155.868 351.046 154.648 351.046 153.138ZM597.699 153.448C597.021 151.861 595.357 150.951 593.982 151.473C592.104 152.228 591.64 151.261 592.337 147.854C592.859 145.279 594.369 143.227 595.724 143.227C597.099 143.227 598.221 142.395 598.221 141.427C598.221 138.098 600.873 139.607 602.983 144.137C604.203 146.634 604.358 148.686 603.37 148.686C602.461 148.686 601.028 150.428 600.273 152.538C599.054 155.867 598.609 156.023 597.699 153.448ZM372.669 146.634C372.669 144.756 371.914 143.227 371.081 143.227C370.172 143.227 370.326 141.194 371.449 138.775C373.579 134.245 376.289 132.658 376.289 136.045C376.289 137.033 378.031 137.787 380.238 137.787C383.18 137.787 383.702 138.388 382.193 139.84C381.051 140.962 380.528 142.782 380.915 143.924C381.36 145.047 379.618 146.866 377.198 148.008C373.191 149.886 372.669 149.654 372.669 146.634ZM576.677 147.311C576.599 146.034 575.167 145.046 573.425 145.046C571.315 145.046 570.172 143.536 569.94 140.439C569.727 137.187 570.482 136.046 572.205 136.742C573.579 137.265 575.457 136.278 576.444 134.613C578.032 131.903 578.264 132.038 578.264 135.6C578.341 138.174 579.464 139.685 581.516 139.685C584.381 139.762 584.381 139.975 581.826 141.949C580.238 143.169 578.419 145.356 577.877 146.866C577.199 148.531 576.754 148.686 576.677 147.311ZM394.291 140.285C394.291 138.93 393.536 137.787 392.549 137.787C391.503 137.787 390.729 137.033 390.729 136.045C390.729 135 391.949 134.245 393.459 134.245C394.891 134.245 396.111 133.103 396.111 131.671C396.111 129.619 396.943 129.541 400.563 131.206C403.215 132.503 404.279 134.013 403.37 134.923C402.46 135.91 402.382 137.865 403.215 139.452C404.492 141.794 403.737 142.395 399.517 142.549C396.265 142.627 394.291 141.794 394.291 140.285ZM554.299 141.872C553.544 140.749 552.035 140.13 550.815 140.672C549.383 141.195 548.628 139.762 548.628 136.955C548.628 134.458 549.615 132.426 550.815 132.426C552.093 132.426 553.08 131.593 553.08 130.606C553.08 129.619 553.912 128.786 554.899 128.786C555.887 128.786 556.719 130.006 556.719 131.516C556.719 132.948 558.152 134.245 559.894 134.245C562.681 134.323 562.759 134.536 560.107 136.51C558.519 137.71 556.874 139.917 556.409 141.35C555.809 143.227 555.209 143.382 554.222 141.872H554.299ZM416.533 137.42C417.21 135.523 416.455 133.626 414.558 132.503C411.693 130.839 411.693 130.683 414.636 130.683C416.378 130.606 417.733 129.406 417.733 127.877C417.733 126.444 418.565 125.167 419.552 125.167C420.54 125.167 421.372 125.999 421.372 126.986C421.372 127.954 422.572 128.786 424.082 128.786C425.592 128.786 426.811 129.619 426.811 130.606C426.811 131.593 425.979 132.426 425.069 132.426C424.082 132.426 423.792 133.78 424.469 135.445C425.302 137.633 424.914 138.175 422.804 137.42C421.295 136.801 419.01 137.265 417.733 138.388C415.913 140.052 415.7 139.84 416.533 137.42ZM532.735 138.33C531.98 137.188 530.025 136.665 528.36 137.343C526.231 138.175 525.708 137.71 526.463 135.678C527.063 134.091 526.618 131.961 525.554 130.839C524.044 129.329 524.276 128.786 526.463 128.786C528.128 128.786 530.315 127.354 531.303 125.612C532.967 122.747 533.122 122.747 533.2 125.534C533.2 127.199 534.632 129.406 536.374 130.451C538.117 131.438 538.639 132.27 537.439 132.348C536.22 132.348 535.019 134.245 534.71 136.432C534.323 139.162 533.645 139.762 532.735 138.33ZM438.368 134.613C439.2 132.193 438.91 130.606 437.768 130.606C436.703 130.606 435.813 129.774 435.813 128.786C435.813 127.818 437.013 126.986 438.523 126.986C440.033 126.986 441.252 125.535 441.33 123.812C441.33 120.85 441.484 120.85 443.207 123.812C444.194 125.535 446.382 126.986 448.047 127.064C450.544 127.064 450.698 127.354 448.666 128.651C447.156 129.542 446.614 131.516 447.292 133.336C448.201 135.678 447.834 136.123 445.569 135.29C443.904 134.69 441.329 135.135 439.82 136.432C437.477 138.387 437.323 138.097 438.368 134.613ZM460.455 133.336C460.977 131.826 460.455 129.328 459.254 127.877C457.435 125.689 457.59 125.167 459.777 125.167C461.364 125.167 463.029 124.18 463.629 122.902C464.462 121.16 464.926 121.16 465.739 122.902C466.359 124.18 468.023 125.167 469.611 125.167C471.721 125.167 471.875 125.767 470.288 127.664C469.146 129.019 468.778 131.671 469.456 133.548C470.443 136.2 470.133 136.51 468.314 134.768C466.649 133.258 464.926 133.103 462.642 134.381C460.009 135.755 459.545 135.523 460.455 133.336ZM488.968 134.091C488.291 133.026 486.839 132.503 485.639 132.948C484.497 133.413 482.619 131.826 481.477 129.483C479.889 126.077 479.967 125.167 481.922 125.167C483.296 125.167 485.174 123.812 486.239 122.07C487.981 119.031 488.058 119.031 488.136 122.07C488.136 124.025 489.568 125.244 492.22 125.244C495.763 125.322 495.917 125.534 493.498 127.509C491.988 128.709 491.001 131.129 491.388 132.871C492.143 136.355 490.846 137.033 488.968 134.091ZM457.512 439.802C457.512 431.169 456.893 429.581 453.796 428.749C450.021 427.781 449.789 423.619 453.583 423.91C454.705 424.064 459.312 424.219 463.784 424.374C469.688 424.606 471.953 425.361 471.953 427.316C471.953 428.826 470.366 430.046 468.469 430.046C464.384 430.046 462.874 433.453 462.874 442.822C462.874 447.893 462.119 449.848 460.145 449.848C458.112 449.848 457.512 447.584 457.512 439.802ZM491.155 446.596C487.071 442.144 487.303 431.401 491.465 427.627C499.402 420.522 512.255 426.484 512.255 437.305C512.255 448.262 498.26 454.475 491.155 446.596ZM505.364 440.17C506.738 434.963 503.564 428.226 499.77 428.226C495.608 428.226 492.743 436.008 495.24 440.635C498.027 445.919 504.009 445.629 505.364 440.17ZM518.837 443.809C518.837 441.467 518.295 435.795 517.695 431.169C516.63 423.619 516.862 422.865 520.269 422.865C522.302 422.865 526.018 425.497 528.593 428.691L533.2 434.575V427.781C533.277 423.31 534.11 421.044 535.697 421.044C537.362 421.044 538.717 425.052 539.859 433.666C541.582 446.151 541.523 446.306 537.439 446.306C535.155 446.306 533.2 445.687 533.2 444.932C533.122 444.177 531.07 441.157 528.515 438.215C523.889 432.756 523.889 432.756 524.799 440.402C525.554 447.061 525.263 448.106 522.224 448.106C519.805 448.106 518.837 446.829 518.837 443.809ZM413.126 444.932C411.984 444.177 409.874 439.957 408.364 435.485L405.557 427.316L404.202 435.04C403.37 440.015 401.937 442.667 400.195 442.667C397.543 442.667 397.853 434.498 400.95 421.49C402.615 414.618 408.364 416.438 410.783 424.684C413.281 433.066 415.991 434.13 415.991 426.716C415.991 420.89 417.21 419.071 420.462 420.367C422.127 420.968 422.34 423.387 421.217 429.659C418.043 447.061 417.578 447.893 413.126 444.932ZM548.318 437.75C548.918 433.975 549.46 427.858 549.46 424.064C549.46 417.793 549.828 417.27 554.067 417.792C557.629 418.18 560.184 420.967 565.023 429.581C571.005 440.247 571.16 440.847 567.598 440.847C565.488 440.847 563.359 439.647 562.759 438.215C561.171 433.976 556.797 434.963 554.899 439.957C553.99 442.435 551.88 444.486 550.215 444.486C547.718 444.486 547.408 443.267 548.318 437.75ZM558.461 430.491C558.461 429.736 557.687 427.917 556.719 426.407C555.267 424.297 554.977 424.529 554.899 427.781C554.899 430.046 555.732 431.866 556.719 431.866C557.687 431.866 558.519 431.246 558.461 430.491ZM376.753 437.827C375.456 437.382 374.488 435.408 374.488 433.453C374.488 428.536 369.107 426.872 366.165 430.879C364.887 432.756 362.603 433.666 361.016 433.065C356.854 431.478 370.326 410.379 375.534 410.301C379.018 410.224 379.463 411.521 380.45 423.232C381.592 436.472 380.838 439.337 376.753 437.827ZM374.488 420.6C374.411 417.348 374.101 417.038 372.669 419.225C370.404 422.709 370.404 424.684 372.669 424.684C373.656 424.684 374.488 422.787 374.488 420.6ZM573.502 426.639C570.25 415.605 570.173 413.863 572.515 412.953C575.999 411.676 575.689 411.211 578.709 421.954C581.129 430.568 581.516 430.956 587.033 430.414C594.369 429.659 595.047 434.576 587.788 436.008C585.078 436.55 581.593 437.537 580.006 438.138C577.741 438.97 576.367 436.627 573.502 426.639ZM348.395 428.381C347.872 427.471 348.162 424.742 349.072 422.264C350.582 418.47 350.214 417.638 346.885 416.728C344.697 416.205 342.645 416.36 342.413 417.193C340.748 421.877 336.683 425.362 334.864 423.62C332.289 421.045 340.613 400.487 344.542 399.655C347.717 399.035 348.317 402.442 345.665 406.526C344.542 408.269 344.755 409.624 346.207 410.533C349.904 412.876 352.556 412.121 353.757 408.424C354.376 406.295 356.486 404.784 358.596 404.784C361.325 404.784 361.925 405.539 361.016 407.959C360.338 409.701 358.151 415.373 356.176 420.6C352.711 429.736 350.582 431.865 348.395 428.381ZM604.048 417.792C598.763 404.184 598.821 403.662 606.545 401.165C612.294 399.19 613.417 399.422 616.669 402.597C621.063 407.049 619.844 414.851 614.482 416.515C611.694 417.425 611.152 418.703 611.985 422.942C613.959 432.543 608.365 428.904 604.048 417.792ZM612.372 407.204C609.642 403.952 606.313 406.972 607.9 411.211C608.887 413.708 609.565 413.786 611.752 411.966C613.882 410.224 614.036 409.178 612.372 407.204ZM476.792 450.526C476.115 449.849 475.495 443.731 475.495 436.995C475.495 425.729 475.883 424.684 479.212 424.684C482.619 424.684 482.832 425.574 482.387 437.595C481.864 449.403 479.967 453.778 476.792 450.526ZM439.742 445.397C437.535 440.557 432.251 439.202 432.251 443.499C432.251 446.906 428.767 448.939 426.579 446.751C425.514 445.687 426.657 441.002 429.676 433.975C433.528 425.129 435.271 422.865 438.523 422.865C442.007 422.865 442.839 424.297 444.582 433.065C445.704 438.66 446.614 444.796 446.614 446.596C446.614 451.436 442.162 450.604 439.742 445.397ZM439.433 434.575C439.433 433.066 438.6 431.866 437.613 431.866C436.645 431.866 435.813 433.066 435.813 434.575C435.813 436.008 436.645 437.305 437.613 437.305C438.6 437.305 439.433 436.008 439.433 434.575ZM627.858 414.173C627.18 410.534 626.057 404.494 625.225 400.7C624.005 394.815 624.315 393.596 627.645 391.854C631.052 390.034 632.407 390.867 640.033 399.578C644.795 404.94 648.667 409.934 648.744 410.689C648.744 412.644 642.531 412.276 640.343 410.166C637.246 407.049 632.929 409.933 633.839 414.54C634.304 417.27 633.607 419.148 631.807 419.845C629.677 420.658 628.69 419.303 627.858 414.231V414.173ZM636.104 404.107C636.104 403.72 634.904 402.442 633.394 401.242C631.187 399.345 630.664 399.5 630.664 401.92C630.664 403.507 631.884 404.784 633.394 404.784C634.904 404.784 636.104 404.494 636.104 404.107ZM315.274 414.54C309.912 410.843 312.699 406.972 318.216 410.456C323.365 413.631 324.875 411.444 321.255 406.004C316.939 399.345 318.294 393.228 324.353 392.531C331.302 391.699 337.438 395.26 334.786 398.512C333.121 400.487 331.979 400.545 329.347 398.88C324.198 395.706 323.056 398.59 327.295 403.875C334.554 413.186 325.108 421.49 315.274 414.54ZM432.483 414.773C321.391 399.791 244.871 345.28 244.658 280.936C244.426 214.772 324.353 158.055 436.49 144.814C459.855 142.104 518.004 143.691 539.549 147.698C626.212 163.726 689.182 204.493 704.687 254.687C726.464 325.322 655.616 392.454 537.284 413.186C515.12 417.038 456.215 417.948 432.483 414.773ZM480.49 248.415C478.747 247.97 475.883 247.97 474.14 248.415C472.398 248.86 473.831 249.247 477.315 249.247C480.799 249.247 482.232 248.86 480.49 248.415ZM401.86 243.886C400.563 242.589 399.73 242.434 399.73 243.576C399.73 245.995 401.86 248.105 403.06 246.905C403.602 246.441 403.06 245.009 401.86 243.886ZM446.924 234.342C448.279 235.117 447.369 233.665 444.872 231.245C440.187 226.561 437.845 228.457 440.265 234.807C441.175 237.226 441.697 237.381 442.917 235.407C443.827 233.974 445.491 233.529 446.924 234.342ZM443.207 215.062C441.852 211.443 441.697 211.81 441.775 217.637C441.93 222.108 442.452 223.541 443.362 221.876C444.194 220.444 444.117 217.405 443.207 215.062ZM524.121 200.177C528.806 196.693 534.632 193.072 537.052 192.085C539.394 191.098 540.227 190.265 538.949 190.265C537.575 190.188 531.767 192.608 525.941 195.705C520.192 198.821 514.83 200.932 513.997 200.409C513.165 199.944 512.41 205.306 512.255 212.43C512.023 225.283 512.023 225.283 513.765 215.895C515.275 207.513 516.417 205.771 524.121 200.177ZM471.875 219.766C471.875 218.237 471.121 217.482 470.133 218.102C469.069 218.702 468.314 219.979 468.314 220.889C468.314 221.876 469.069 222.631 470.133 222.631C471.121 222.631 471.875 221.354 471.875 219.766ZM447.001 195.782C450.853 191.408 450.698 191.408 445.491 196.17C439.82 201.241 439.82 201.241 431.051 196.537C418.41 189.82 417.501 190.866 429.231 198.59C434.825 202.287 439.51 206.603 439.587 208.113C439.665 209.623 440.42 208.5 441.33 205.693C442.162 202.828 444.736 198.357 447.001 195.705V195.782ZM479.58 327.82C478.38 327.355 475.96 327.278 474.218 327.82C472.476 328.187 473.463 328.652 476.405 328.652C479.444 328.71 480.877 328.342 479.58 327.82ZM380.683 324.413C384.09 321.916 384.012 321.761 379.328 322.225C376.676 322.361 374.488 323.657 374.488 324.858C374.488 327.897 376.289 327.742 380.683 324.49V324.413ZM371.527 324.025C372.069 323.193 370.849 322.438 368.894 322.283C366.997 322.148 365.855 322.825 366.474 323.735C367.674 325.768 370.326 325.922 371.527 324.025ZM461.965 309.217C460.377 301.803 458.867 303.236 460.377 310.804C461.055 313.979 461.964 316.166 462.429 315.721C462.797 315.257 462.642 312.314 462.042 309.217H461.965ZM527.218 303.313C526.773 302.093 526.309 303.08 526.309 305.578C526.309 308.075 526.696 309.062 527.218 307.842C527.76 306.565 527.76 304.59 527.218 303.313ZM527.838 284.866C530.316 283.433 531.535 282.213 530.548 282.213C529.561 282.213 526.696 283.433 524.199 284.866C521.779 286.221 520.501 287.44 521.547 287.44C522.534 287.44 525.341 286.221 527.838 284.866ZM480.49 275.477C478.747 275.032 475.883 275.032 474.14 275.477C472.398 275.941 473.831 276.309 477.315 276.309C480.799 276.309 482.232 275.941 480.49 275.477ZM450.176 252.112C450.253 248.86 448.666 244.641 446.537 242.221C442.839 237.904 442.839 237.904 445.859 242.898C448.802 247.737 448.802 255.442 445.859 264.985C445.259 266.94 446.014 266.186 447.447 263.166C448.879 260.204 450.098 255.229 450.176 252.112ZM392.549 248.725C392.549 247.273 391.716 246.073 390.729 246.073C389.761 246.073 388.929 247.273 388.929 248.725C388.929 250.235 389.761 251.435 390.729 251.435C391.716 251.435 392.549 250.235 392.549 248.725ZM514.83 366.902C514.752 358.81 514.752 358.81 513.32 367.812C512.546 372.806 511.945 380.898 512.023 385.892L512.1 394.873L513.455 384.982C514.21 379.523 514.83 371.373 514.83 366.902ZM369.649 359.643C367.829 356.468 365.41 352.151 364.268 350.119C361.77 345.802 356.718 342.628 354.976 344.292C354.299 344.97 355.499 346.867 357.628 348.532C359.738 350.196 362.913 354.436 364.655 357.901C367.597 363.96 370.927 367.425 372.282 366.069C372.669 365.779 371.449 362.817 369.649 359.643ZM469.766 356.159C469.533 346.635 469.456 346.48 468.778 354.203C468.391 358.578 466.804 363.05 465.371 364.192C463.107 365.837 463.261 366.147 466.359 366.147C469.766 366.147 470.056 365.16 469.766 356.159ZM381.67 356.236C381.67 352.306 382.502 348.609 383.47 348.009C384.457 347.39 385.29 347.777 385.29 348.9C385.29 350.042 387.496 349.287 390.052 347.254C392.704 345.125 396.711 343.46 399.053 343.46C401.395 343.46 403.37 343.17 403.37 342.705C403.37 342.26 403.815 340.808 404.357 339.298C405.189 337.188 404.125 336.956 398.53 338.02C380.683 341.427 374.256 347.622 377.044 358.81C378.786 365.779 381.67 364.192 381.67 356.236ZM489.491 338.466C489.123 334.769 488.736 337.866 488.736 345.28C488.736 352.693 489.123 355.791 489.491 352.016C489.878 348.3 489.878 342.26 489.491 338.466ZM376.676 342.26C381.283 337.189 379.095 332.349 373.114 334.614C370.017 335.756 369.03 337.576 369.03 342.183C369.03 348.61 371.236 352.616 372.436 348.532C372.824 347.254 374.701 344.448 376.676 342.26ZM528.128 325.767C530.47 323.115 530.935 322.147 529.193 323.425C526.309 325.612 526.018 325.322 525.786 319.806C525.708 316.166 525.263 315.179 524.799 317.309C524.353 319.264 522.456 327.2 520.501 334.846C516.185 352.093 516.262 355.113 520.637 341.04C522.534 335.214 525.863 328.342 528.206 325.767H528.128ZM412.971 340.285C415.003 338.543 415.991 338.175 415.313 339.376C414.403 340.886 415.158 341.641 417.655 341.641C422.65 341.641 422.417 338.776 417.346 337.421C410.784 335.601 409.041 336.047 406.989 339.841C404.492 344.525 407.899 344.757 413.048 340.285H412.971ZM364.19 338.02C363.59 335.678 364.113 334.459 365.777 334.459C367.229 334.459 369.339 333.491 370.481 332.349C372.069 330.684 371.314 329.407 367.152 326.91C359.815 322.438 359.583 322.593 360.803 331.284C361.403 335.524 361.248 337.711 360.493 336.278C359.06 333.259 347.407 331.594 347.407 334.324C347.407 336.743 349.904 338.021 356.409 338.775C359.506 339.163 362.525 339.918 363.145 340.518C364.945 342.338 365.177 341.873 364.19 338.02ZM467.714 335.834C467.191 334.537 466.804 335.601 466.804 338.02C466.804 340.518 467.191 341.582 467.714 340.285C468.159 339.085 468.159 337.034 467.714 335.834ZM341.813 330.684C340.458 329.852 338.871 330.084 338.193 331.207C337.496 332.272 335.232 332.736 333.199 332.194C331.07 331.594 328.96 331.827 328.437 332.736C327.972 333.549 331.012 334.924 335.231 335.756C341.29 337.034 343.033 336.801 343.555 334.768C343.865 333.336 343.11 331.516 341.813 330.684ZM387.109 336.433C387.109 335.523 386.122 334.381 384.845 334.013C383.47 333.549 384.167 332.427 386.664 331.072C391.116 328.71 392.104 325.4 388.387 325.4C387.032 325.4 384.535 326.523 382.715 327.82C379.85 329.93 379.773 330.685 381.883 334.169C384.457 338.176 387.109 339.298 387.109 336.433ZM506.274 336.201C515.43 331.284 518.604 309.895 512.7 292.957C508.771 281.768 509.08 280.858 514.752 285.853C519.746 290.227 519.746 290.228 515.875 285.775C513.765 283.278 511.655 278.361 511.19 274.877C510.745 271.47 509.235 264.753 507.861 260.069C505.519 251.822 505.674 250.99 510.281 241.834C513.01 236.472 515.12 230.645 514.965 228.748C514.83 225.728 514.675 225.651 513.997 228.458C513.533 230.2 512.023 231.633 510.668 231.633C509.293 231.633 507.706 232.388 507.106 233.375C506.428 234.42 507.184 234.73 508.771 234.13C512.487 232.697 512.333 233.743 507.784 241.466C503.699 248.338 503.777 253.023 508.093 268.005C510.435 276.464 510.436 276.464 503.777 283.8C500.157 287.807 497.195 292.202 497.195 293.402C497.195 294.989 497.66 294.912 498.86 293.112C501.144 289.473 506.119 301.803 507.493 314.056C508.248 321.393 507.706 324.935 504.686 330.684C500.602 338.466 500.757 339.163 506.274 336.201ZM400.485 333.337C402.073 332.736 403.37 331.129 403.37 329.697C403.37 326.29 402.073 326.523 396.633 330.839C392.026 334.459 394.059 335.834 400.485 333.337ZM352.324 327.665C354.821 324.645 354.899 324.645 353.911 327.665C353.311 329.697 353.911 330.839 355.576 330.839C358.518 330.839 358.906 329.252 356.718 325.767C354.976 323.115 345.588 325.767 345.588 328.942C345.588 331.904 349.459 331.13 352.324 327.665ZM416.9 393.906C417.578 392.841 419.63 392.531 421.507 393.151C423.482 393.751 424.992 393.364 424.992 392.318C424.992 391.022 426.502 391.022 429.986 392.318C436.258 394.738 436.026 394.738 437.845 391.854C439.065 389.976 439.355 390.189 439.433 392.609C439.433 396.461 443.594 396.693 446.692 393.073C449.344 389.821 448.279 362.585 444.872 347.544C442.762 338.021 442.762 338.021 433.393 338.253C428.321 338.389 425.902 338.853 428.166 339.298C435.426 340.75 432.406 342.551 422.262 342.938C416.746 343.17 410.784 344.215 408.809 345.202C406.912 346.267 402.982 347.022 400.04 347.022C396.033 347.022 393.536 348.687 389.684 353.739C385.29 359.411 384.38 362.585 383.548 375.516C382.502 391.776 382.793 393.228 386.509 390.111C388.464 388.447 388.774 388.679 387.787 391.486C386.8 394.274 387.032 394.428 389.006 392.609C391.871 389.976 395.046 389.589 393.536 392.008C392.936 392.996 394.678 394.041 397.466 394.505C407.377 395.938 415.758 395.706 416.9 393.906ZM547.408 394.661C550.505 394.041 552.635 392.841 552.093 392.008C551.493 391.099 552.325 390.867 553.912 391.486C555.577 392.164 556.719 391.621 556.797 390.111C556.797 388.447 557.397 388.602 558.597 390.731C559.584 392.454 561.926 393.441 563.901 393.073C565.856 392.686 567.985 393.228 568.585 394.196C569.263 395.261 570.695 395.106 572.515 393.596C574.702 391.854 575.089 391.854 574.102 393.518C571.315 398.125 586.201 395.706 603.971 388.524C703.778 348.532 732.368 272.244 669.902 212.353C590.362 135.91 409.874 126.521 307.26 193.517C216.9 252.499 236.702 343.615 349.75 388.389C366.01 394.874 365.487 394.738 365.487 391.331C365.487 389.744 366.533 389.066 368.139 389.666C369.939 390.344 371.449 389.066 372.669 385.892C376.076 376.891 374.856 372.961 366.32 365.392C361.325 360.998 359.06 357.901 360.415 357.456C363.668 356.314 358.906 350.642 354.744 350.642C353.079 350.642 350.137 349.442 348.24 347.855C344.833 345.125 344.833 345.125 348.782 346.19C352.789 347.313 354.434 344.68 351.046 342.55C350.137 341.95 343.11 340.75 335.541 339.918C327.972 339.086 320.868 337.421 319.746 336.124C318.139 334.381 318.371 334.169 320.791 335.079C328.65 337.943 329.947 338.021 325.262 335.369C322.533 333.704 319.513 332.949 318.526 333.549C315.506 335.369 298.781 337.576 299.769 335.911C300.311 335.079 302.498 334.324 304.686 334.246C306.873 334.246 310.28 333.414 312.254 332.582C314.674 331.517 312.409 331.129 304.995 331.439C299.091 331.671 292.219 331.362 289.722 330.761C285.483 329.774 285.793 329.484 293.807 325.613C298.491 323.27 301.975 320.851 301.511 320.096C300.156 317.908 313.241 314.966 322.61 315.334C327.217 315.566 332.134 315.024 333.431 314.192C334.786 313.224 333.799 312.992 330.624 313.514C323.811 314.656 325.107 311.25 333.121 306.72C340.613 302.558 359.97 299.751 363.3 302.403C364.887 303.7 367.829 303.623 372.746 302.171C377.74 300.661 380.915 300.584 383.412 301.881C385.29 302.926 389.297 303.758 392.336 303.758C395.278 303.758 398.221 304.513 398.821 305.423C399.363 306.41 401.027 306.797 402.382 306.178C403.815 305.655 406.312 306.042 407.899 306.933C410.629 308.462 410.629 308.83 407.667 311.772C404.647 314.889 404.802 314.966 411.829 313.746C415.991 313.069 420.753 313.301 422.572 314.269C424.392 315.256 427.412 316.554 429.231 317.154C432.019 317.986 432.173 318.508 429.986 320.696C428.631 322.07 425.902 323.58 424.005 324.103C422.049 324.567 423.482 325.09 427.179 325.167C431.941 325.322 434.516 326.445 435.89 329.019C436.935 330.994 438.6 332.582 439.587 332.582C440.729 332.582 440.788 331.439 439.742 329.484C438.832 327.742 436.781 319.418 435.116 310.959C433.529 302.558 431.728 293.712 431.186 291.37C430.509 288.04 430.896 287.285 432.928 288.118C434.438 288.64 437.768 287.44 440.497 285.31C445.259 281.536 445.336 281.536 444.117 285.156C437.613 305.733 437.69 323.87 444.349 331.207C445.937 332.949 446.537 334.459 445.627 334.536C444.736 334.536 445.937 335.369 448.279 336.356C453.718 338.543 455.247 337.266 451.453 333.549C445.491 327.587 445.336 311.172 451.086 297.409C453.428 291.814 454.415 290.828 455.77 292.957C456.835 294.622 457.435 294.834 457.512 293.402C457.512 292.202 454.628 288.408 451.221 284.943C447.214 280.936 444.794 276.697 444.659 273.6C444.504 269.128 444.349 269.282 443.207 274.954C442.53 278.438 441.329 282.291 440.652 283.51C437.168 289.105 423.85 283.51 409.719 270.502C404.725 265.953 399.808 262.256 398.762 262.256C397.698 262.256 394.891 260.204 392.626 257.784C390.284 255.365 385.89 252.422 382.793 251.358C378.495 249.77 375.921 246.751 371.372 237.537L365.565 225.728L371.372 214.695C379.618 199.112 397.02 181.729 406.021 180.064C414.868 178.4 447.911 182.561 454.105 186.104C457.957 188.31 460.009 188.369 464.771 186.723C472.03 184.226 483.451 184.072 491.678 186.491C496.227 187.769 498.26 187.613 499.247 186.104C499.924 184.981 506.061 183.316 512.855 182.562C519.592 181.729 529.348 180.587 534.477 179.909C549.228 178.167 555.887 180.219 565.488 189.743C573.947 198.125 585.755 215.895 588.252 224.064C589.085 226.715 588.62 229.367 586.878 231.245C585.445 232.91 582.503 237.749 580.374 241.988C577.819 246.983 574.489 250.467 570.695 252.055C567.443 253.41 563.301 256.275 561.404 258.404C559.507 260.514 557.087 262.256 556.042 262.256C554.899 262.256 549.15 266.785 543.169 272.302C537.284 277.839 533.568 281.768 535.097 281.091C536.607 280.316 539.627 278.129 541.814 276.174C545.531 272.845 545.898 272.767 547.04 275.632C549.615 282.368 545.976 307.243 538.872 331.749C532.968 352.094 531.535 359.875 531.535 371.741C531.458 394.041 533.8 397.371 547.486 394.661H547.408ZM485.406 378.633C487.071 371.141 487.981 364.037 487.516 362.817C486.994 361.617 486.548 362.895 486.471 365.625C486.394 368.644 484.284 372.729 481.399 375.593C478.67 378.245 476.715 381.652 476.947 383.162C479.444 397.68 481.399 396.616 485.406 378.633ZM492.298 319.108C492.975 312.004 492.82 310.127 491.833 313.669C490.401 319.263 489.413 332.039 490.633 330.684C491.001 330.239 491.756 325.012 492.356 319.108H492.298ZM397.93 327.277C397.93 326.29 396.711 326 395.201 326.522C393.768 327.122 392.549 327.897 392.549 328.342C392.549 328.71 393.768 329.019 395.201 329.019C396.711 329.019 397.93 328.187 397.93 327.277ZM410.783 325.767C409.487 325.322 407.609 325.845 406.544 326.91C405.189 328.265 405.944 328.497 408.886 327.742C411.384 327.065 412.138 326.232 410.783 325.767ZM657.726 182.716C657.668 181.845 656.487 181.109 655.016 181.109C651.996 181.109 651.377 178.322 654.029 176.657C655.016 176.057 655.306 174.16 654.706 172.495C653.797 170.076 654.106 169.843 655.926 171.508C657.126 172.65 659.101 173.251 660.223 172.883C661.365 172.418 663.108 173.928 664.153 176.27C665.818 179.832 665.527 180.741 661.888 182.406C659.642 183.51 657.765 183.607 657.726 182.736V182.716ZM503.254 130.161C503.176 126.502 503.796 125.244 505.519 125.921C506.951 126.521 508.016 125.689 508.016 123.87C508.016 121.314 508.403 121.392 511.423 124.412C513.242 126.29 514.133 128.574 513.32 129.483C512.546 130.296 512.255 132.038 512.7 133.18C513.242 134.613 511.713 135.368 508.539 135.368C504.241 135.368 503.486 134.613 503.254 130.161ZM280.876 487.441C280.953 486.144 281.631 483.046 282.386 480.549C283.508 476.852 282.754 475.188 278.146 471.181C272.552 466.264 272.552 466.263 280.043 466.186C286.915 466.109 287.67 465.741 288.812 460.747C290.477 452.946 292.742 452.578 295.084 459.837C297.059 465.663 297.736 466.109 304.686 466.263C312.254 466.341 312.254 466.341 306.505 470.871C301.433 474.955 300.988 475.943 302.421 481.014C304.531 488.273 303.776 488.873 297.194 485.021C292.064 481.924 291.755 481.982 286.315 485.854C282.541 488.486 280.721 489.028 280.876 487.441ZM651.241 482.059C652.132 477.375 651.454 475.343 647.525 471.258C642.608 466.109 642.608 466.109 649.267 466.109C655.171 466.109 656.139 465.431 658.791 459.372L661.675 452.578L664.385 459.372C666.882 465.431 667.792 466.109 673.619 466.109C680.045 466.109 680.045 466.109 675.206 471.258C671.199 475.42 670.521 477.297 671.489 482.214C672.709 488.195 672.709 488.196 666.882 485.176C661.598 482.447 660.688 482.369 656.758 485.021C650.699 488.951 649.945 488.563 651.241 482.059ZM432.483 543.538C273.772 534.382 131.533 476.02 63.7822 392.164C49.4964 374.471 31.862 340.44 26.9645 320.928C22.4155 303.08 22.4929 264.211 27.1 246.905C46.4574 173.928 114.75 110.571 219.087 68.6039C236.334 61.6546 239.199 60.9578 239.199 63.6872C239.199 65.9521 234.979 68.3716 223.636 72.6883C200.717 81.3798 156.175 104.512 134.94 118.74C18.5633 196.402 -4.72356 307.01 76.1711 398.068C140.147 470.193 262.796 521.316 406.08 535.757C440.729 539.222 515.585 539.687 546.808 536.589C558.674 535.37 571.315 534.169 574.78 533.782C582.503 533.027 610.475 528.266 628.922 524.646C677.084 514.967 726.097 499.152 765.334 480.472C903.023 415.063 959.663 313.901 913.244 216.282C866.36 117.752 714.211 42.2977 534.71 28.4572C523.289 27.5474 518.759 26.4826 518.004 24.5275C517.094 22.1853 519.437 22.0302 535.465 23.0755C676.038 32.6961 809.875 85.3094 879.136 158.209C982.873 267.405 938.951 402.597 773.58 482.679C763.36 487.654 753.758 491.216 752.326 490.693C750.816 490.151 749.229 490.828 748.629 492.28C746.886 496.81 702.655 512.606 664.985 522.071C588.175 541.429 514.752 548.223 432.483 543.538ZM428.631 534.615C386.277 531.285 326.695 521.993 299.846 514.58C244.794 499.461 208.053 485.621 172.436 466.709C93.5734 424.819 45.2572 369.709 34.359 309.217C33.0814 301.803 32.2491 295.376 32.6169 294.989C34.8237 292.802 38.908 297.118 38.908 301.725C38.908 309.217 47.1349 336.588 52.6711 347.622C75.2032 392.241 122.455 435.563 180.759 464.909C221.216 485.234 274.294 503.624 323.056 514.135C381.205 526.678 461.287 532.95 518.837 529.543C539.549 528.265 547.118 528.343 548.086 529.93C548.841 531.208 547.486 532.505 544.466 533.337C536.742 535.525 451.531 536.434 428.631 534.615Z" fill="#25549A"/>
</svg>
