<svg width="963" height="959" viewBox="0 0 963 959" fill="none" xmlns="http://www.w3.org/2000/svg">
<path fill-rule="evenodd" clip-rule="evenodd" d="M464.598 948.276C462.688 943.167 460.266 938.902 459.222 938.902C458.178 938.902 455.223 942.634 452.535 947.232C449.936 951.83 447.248 955.652 446.559 955.652C445.782 955.652 443.605 951.409 441.606 946.211C437.607 935.615 434.83 935.97 428.766 947.766C424.945 955.053 423.212 954.186 419.569 943.257C418.014 938.569 416.103 934.748 415.325 934.748C414.459 934.748 411.149 938.569 407.95 943.167C402.396 951.231 398.731 951.497 398.664 943.766C398.664 942.389 397.621 938.658 396.31 935.348C394.133 929.461 394.133 929.46 385.98 938.902C381.382 944.211 377.738 946.989 377.738 945.167C377.65 943.501 376.605 938.391 375.406 933.97L373.14 925.817L365.165 933.615C356.39 942.212 356.657 942.301 353.525 926.684L352.147 919.641L344.416 927.195C340.173 931.371 336.086 934.748 335.486 934.748C334.797 934.748 333.754 930.415 333.132 925.195C332.621 919.997 331.487 915.043 330.799 914.355C330.021 913.577 325.667 916.687 321.069 921.13C312.827 929.194 312.738 929.283 312.738 923.907C312.738 920.952 312.227 915.577 311.45 912.023C310.139 905.514 310.139 905.513 301.031 913.044L291.834 920.597V910.179C291.834 904.469 291.235 899.248 290.435 898.471C289.746 897.782 285.592 899.96 281.238 903.425C276.995 906.802 272.841 909.578 272.13 909.578C271.441 909.578 270.93 904.381 270.93 897.961V886.231L261.978 892.739L253.136 899.337L252.447 888.764C252.181 882.944 251.315 878.166 250.693 878.166C250.093 878.166 245.317 880.677 240.118 883.81L230.566 889.453L232.054 877.212L233.609 865.061L223.724 870.614C218.237 873.658 213.483 876.078 212.95 876.078C212.528 876.078 212.683 871.392 213.483 865.683C215.038 853.776 213.816 852.998 203.419 859.329C192.823 865.838 192.645 865.505 196.733 845.201C197.688 840.425 197.688 840.424 189.78 843.8C185.448 845.622 180.672 847.71 179.117 848.31C177.029 849.176 176.762 847.111 177.895 838.691C178.673 832.782 178.761 827.918 178.073 827.918C177.473 827.918 172.608 829.828 167.388 832.094C162.101 834.337 157.768 836.004 157.768 835.737C157.857 835.47 159.146 830.361 160.723 824.274C163.922 812.301 163.411 811.79 152.215 816.477C141.374 820.986 140.93 820.542 144.484 810.213C148.75 797.639 147.883 796.417 137.198 800.06C132.155 801.726 127.557 802.682 126.957 802.06C126.357 801.371 127.401 797.039 129.311 792.174C133.554 781.511 132.777 780.556 122.447 783.666C109.874 787.398 109.252 786.887 114.206 776.735C116.716 771.514 118.271 766.827 117.582 766.139C116.983 765.539 112.384 765.871 107.341 767.093C102.321 768.137 97.9 768.737 97.4557 768.404C97.1003 767.96 98.7664 763.807 101.099 759.119C105.52 750.522 105.52 750.522 100.921 750.522C97.2781 750.522 96.7668 749.922 98.7661 748.012C103.609 743.058 101.099 741.836 89.4804 743.325L77.7514 744.79L83.5715 734.816L89.3916 724.931L77.5067 725.708C70.9978 726.041 65.6889 726.219 65.6889 725.885C65.6889 725.53 68.5546 721.354 72.1089 716.423L78.529 707.558L66.8217 706.959L55.0256 706.359L61.4456 697.495L67.9545 688.742L56.3143 687.698L44.607 686.654L51.2047 678.679C54.8479 674.325 57.2694 670.171 56.5807 669.549C55.9809 668.86 51.1157 667.906 45.9174 667.306L36.3653 666.173L44.1846 657.575C51.982 649 51.9821 649 46.7839 648.378C43.9182 648.045 38.4535 647.334 34.5437 646.645L27.4348 645.513L35.3213 637.448C44.1849 628.429 45.0513 629.563 26.1244 625.654C21.1705 624.698 21.1704 624.52 28.99 616.545L36.8765 608.458L28.8124 606.993C14.9282 604.482 14.0618 603.082 22.4811 596.662C26.6353 593.463 30.1228 590.065 30.1228 589.021C30.1228 588.065 25.8577 586.178 20.6595 584.868C15.4613 583.557 11.285 581.913 11.285 581.224C11.285 580.447 14.595 577.669 18.5714 574.892C22.5701 572.116 25.8579 569.161 25.8579 568.295C25.8579 567.428 21.7038 565.429 16.4834 563.963C11.2852 562.385 7.04175 560.564 7.04175 559.787C7.04175 559.009 10.9296 555.788 15.7946 552.678L24.5692 546.857L14.5058 543.036C9.04104 540.948 4.08758 538.882 3.55443 538.349C3.04349 537.838 7.04189 534.883 12.329 531.751C17.7049 528.641 21.7037 525.776 21.3483 525.421C21.0151 525.087 15.9723 522.91 10.3297 520.644L0 516.668L20.1483 504.849L10.4186 499.918C5.13146 497.23 0.777595 494.542 0.777595 494.009C0.777595 493.498 5.13146 490.876 10.4186 488.188L19.9707 483.257L10.4186 478.214C5.13146 475.349 0.777595 472.571 0.777595 471.882C0.777595 471.283 5.22017 468.84 10.685 466.596L20.6595 462.42L0 450.268L9.81858 446.203C15.1945 444.026 19.6155 441.605 19.6155 440.894C19.6155 440.116 15.8834 437.184 11.285 434.407C2.08808 428.676 2.35476 427.632 13.8842 423.989C18.1494 422.589 21.7035 420.678 21.7035 419.811C21.7035 418.945 17.794 415.48 12.929 412.103L4.26491 406.017L15.1058 403.15C21.0149 401.507 25.8579 399.508 25.8579 398.73C25.8579 397.864 22.0366 394.576 17.3715 391.266C8.1524 384.846 8.7748 383.535 22.2147 381.113C26.5688 380.336 30.1228 378.936 30.1228 378.159C30.1228 377.293 26.2132 373.561 21.4371 369.918C12.84 363.32 12.8399 363.32 18.8379 361.943C38.7867 357.433 37.8314 358.633 28.2124 349.969C23.5251 345.704 19.6155 341.816 19.6155 341.371C19.6155 340.927 23.8583 340.15 29.1676 339.55C34.3659 339.039 39.231 337.906 40.0085 337.129C40.6972 336.418 37.6762 332.086 33.1444 327.487L25.0803 319.157H35.9212C48.7835 319.157 49.5607 316.981 40.275 307.362L33.7661 300.675L57.3583 297.72L49.983 288.701L42.5189 279.594L54.248 278.971L66.0441 278.282L59.5352 269.441C55.9808 264.576 53.1151 260.244 53.1151 259.889C53.1151 259.467 58.4911 259.623 65.0889 260.156C76.9737 261.111 76.9737 261.11 73.4194 255.557C62.0455 237.94 61.8011 239.673 75.3298 241.05L87.3924 242.361L81.7499 232.72C78.7065 227.432 76.1074 222.745 76.1074 222.235C76.1074 221.701 80.8834 221.79 86.6148 222.412C92.3462 222.923 97.1004 222.746 97.1004 221.879C97.1004 221.102 94.5902 216.148 91.458 210.95C86.5263 202.353 86.3484 201.486 89.9028 202.53C97.9667 204.796 109.607 206.263 109.607 205.041C109.607 204.352 107.696 200.02 105.275 195.333C102.92 190.645 101.454 186.38 101.965 185.869C102.498 185.269 106.919 185.959 111.784 187.269C116.538 188.558 121.048 189.157 121.67 188.557C122.269 187.869 121.137 183.537 119.226 178.672C117.338 173.896 116.027 169.653 116.449 169.297C116.805 168.942 121.137 169.653 126.002 170.852C130.956 172.163 135.376 172.674 135.976 172.074C136.509 171.541 135.465 167.121 133.555 162.278C131.644 157.502 130.511 153.147 131.044 152.636C131.644 152.036 136.065 153.059 141.019 154.814C146.039 156.546 150.393 157.657 150.816 157.235C151.171 156.88 150.215 152.103 148.572 146.727C145.35 136.064 146.039 135.531 157.08 140.13C167.92 144.661 168.343 144.306 165.055 133.376C160.967 119.736 160.812 119.913 171.564 124.778C176.851 127.044 181.627 128.511 182.138 128C182.76 127.378 182.138 123.046 180.85 118.181C179.539 113.316 178.939 108.895 179.45 108.384C180.072 107.762 184.848 109.25 190.046 111.583C200.887 116.359 201.243 115.937 197.777 100.92C196.733 96.5663 196.2 93.0115 196.467 93.0115C196.822 93.0115 201.576 95.5446 207.063 98.6547L217.126 104.208L215.816 92.3228L214.594 80.528L223.546 85.725C228.478 88.5907 233.254 90.9465 234.121 90.9465C235.076 90.9465 235.165 86.2593 234.387 80.528C232.832 68.4654 233.52 68.1091 244.117 75.2401C248.271 78.0835 252.447 80.528 253.225 80.528C254.002 80.528 254.181 75.3063 253.47 69.064L252.27 57.691L260.845 63.867C265.532 67.2436 270.131 70.02 271.086 70.02C272.13 70.02 272.908 65.333 272.908 59.535C272.908 53.8036 273.618 49.1157 274.484 49.2045C275.351 49.2045 279.327 52.071 283.415 55.5365L290.701 61.7776L294.877 38.3412L302.075 45.8054C311.005 55.0022 312.65 55.0915 312.738 46.4277C312.738 42.6957 313.271 37.5649 313.96 35.0546C315.182 30.5451 315.426 30.5439 322.735 37.4749C330.887 45.1167 333.576 45.206 333.664 37.9196C333.664 35.4094 334.264 31.1435 334.953 28.4556C336.264 23.6794 336.352 23.7683 344.083 31.2324L351.969 38.9636L354.302 32.1883C355.613 28.4562 356.657 23.4357 356.657 21.081C356.657 17.3489 357.701 17.7933 364.543 24.5466C368.986 28.8118 373.14 32.2778 373.829 32.2778C374.54 32.2778 375.739 28.5458 376.517 23.9473C378.427 12.6623 380.515 12.062 387.113 20.7257C390.245 24.8132 393.444 28.1003 394.311 28.1003C395.177 28.1003 397.087 23.8576 398.576 18.6594C401.686 7.37431 403.086 7.1079 408.972 16.5714C414.704 25.8571 416.436 25.7677 419.569 16.1266C423.39 4.24174 424.856 3.82043 430.854 13.2617C433.808 17.949 436.741 21.8579 437.363 21.8579C437.962 21.8579 440.384 17.3489 442.739 11.8841L446.982 1.99841L452.291 10.84C455.223 15.7939 458.267 19.7698 459.222 19.7698C460.088 19.7698 462.687 15.349 465.042 9.88416L469.374 -0.000183105L474.15 9.88416C476.749 15.349 479.615 19.7698 480.57 19.7698C481.437 19.7698 484.391 15.3496 487.168 9.97363L492.122 0.177429L497.32 11.5288L502.43 22.9019L508.339 12.84C514.67 1.91035 516.069 2.08726 519.89 13.9721C523.089 24.0353 524.911 23.8577 531.775 12.9281L537.417 4.06476L540.283 11.3729C546.614 27.7673 545.748 27.3237 551.99 17.8824C555.123 13.1952 558.499 9.28485 559.543 9.28485C560.499 9.28485 562.409 13.5285 563.698 18.7489C565.008 23.8583 567.008 28.1003 568.119 28.1003C569.251 28.1003 570.207 27.4115 570.295 26.5452C570.295 25.6788 573.072 21.8587 576.382 17.9489L582.358 10.9282L587.734 35.0546L595.465 26.1235C603.884 16.3935 604.572 16.5719 606.75 29.6786C608.571 40.5193 610.215 40.7853 617.413 31.3219C620.545 27.2344 623.744 23.9473 624.699 23.9473C625.566 23.9473 626.965 28.6337 627.743 34.454C628.609 40.1631 629.831 44.8508 630.519 44.8508C631.208 44.8508 635.384 41.3857 639.716 37.1427C647.625 29.412 647.713 29.4116 647.713 34.7875C647.713 37.7421 648.225 43.118 649.002 46.7612C650.313 53.359 650.313 53.3583 659.421 45.8054L668.617 38.3412V48.9388C668.617 61.4234 670.261 61.9555 681.369 53.0919L689.522 46.5836V58.3133C689.522 64.7333 690.055 70.02 690.743 70.02C691.343 70.02 694.987 67.6872 698.807 64.8215C702.54 61.867 706.182 59.535 706.893 59.535C707.582 59.535 708.448 64.2886 708.804 70.02C709.403 80.5275 709.404 80.527 717.201 75.3065C721.466 72.3742 725.465 70.02 726.065 70.02C726.664 70.02 727.197 74.7077 727.197 80.528C727.197 86.2593 727.709 90.9465 728.309 90.9465C728.931 90.9465 733.262 88.5027 738.038 85.4593L746.724 79.9938L745.325 91.8129C744.547 98.233 744.459 103.52 745.147 103.52C745.836 103.52 750.612 101.009 755.743 97.9659L765.207 92.5017L763.807 100.565C763.03 105.075 761.986 110.384 761.475 112.361C760.164 117.048 761.119 116.959 771.449 111.761C776.137 109.339 780.468 107.852 781.001 108.474C781.601 108.985 781.157 113.849 780.046 119.137C778.047 128.422 778.136 128.688 782.379 127.378C784.889 126.6 789.399 124.69 792.531 123.135C800.439 119.136 800.44 119.047 796.952 130.843C795.219 136.752 794.264 141.952 794.797 142.485C795.219 142.907 800.084 141.529 805.46 139.263C816.212 134.576 816.479 134.842 811.969 147.504C810.236 152.458 809.192 156.791 809.547 157.235C809.969 157.657 814.324 156.546 819.255 154.814C831.851 150.371 831.918 150.459 827.408 162.432C822.899 174.317 821.343 173.628 841.825 169.03C846.513 167.897 846.513 167.897 842.159 177.805C839.737 183.181 838.271 188.046 838.782 188.646C839.382 189.156 843.469 188.646 847.89 187.424C860.819 183.781 861.686 184.314 856.998 192.977C851.356 203.574 851.533 206.44 858.042 205.129C860.908 204.529 865.684 203.486 868.55 202.886C873.837 201.842 873.837 201.841 868.372 212.593L862.907 223.435L886.521 220.658L881.212 229.788C878.258 234.809 875.836 239.673 875.836 240.628C875.836 241.495 880.523 241.584 886.344 240.806C892.075 240.095 896.74 240.029 896.74 240.718C896.74 241.407 894.408 245.405 891.542 249.648C884.344 260.244 884.767 261.199 896.74 259.533C908.736 257.89 909.336 259.022 902.049 268.908C894.852 278.638 895.274 279.416 907.425 279.416H918.089L911.58 287.567C908.025 291.988 905.16 296.253 905.16 296.942C905.16 297.631 909.847 298.253 915.578 298.253C921.398 298.253 926.086 298.942 925.997 299.808C925.997 300.675 923.131 304.674 919.666 308.65C912.712 316.892 914.112 318.713 927.641 319.068C931.373 319.068 934.505 319.512 934.505 320.023C934.505 320.467 930.951 324.444 926.597 328.798C918.799 336.684 918.799 336.685 923.998 338.151C926.863 339.04 932.506 339.817 936.571 339.995C943.88 340.151 943.88 340.15 934.927 347.703C930.062 351.791 926.596 355.945 927.218 356.9C927.818 357.944 932.506 359.344 937.615 360.122C942.836 360.899 946.99 362.032 946.99 362.631C946.99 363.231 943.524 366.808 939.192 370.607C931.284 377.471 931.284 377.471 937.193 379.737C940.481 380.937 944.902 381.98 947.167 381.98C953.077 381.98 952.21 384.423 943.879 390.999C935.793 397.419 934.594 400.819 940.215 400.908C942.214 400.997 946.723 402.196 950.122 403.685C956.453 406.373 956.453 406.372 947.434 412.347C937.615 418.767 937.882 419.99 949.589 423.811C959.408 426.943 959.497 428.587 950.122 434.052C946.123 436.474 942.835 439.16 942.835 440.116C942.835 441.16 947.256 443.76 952.632 446.026L962.429 450.112L952.632 455.311C947.256 458.177 942.835 461.131 942.835 461.909C942.835 462.597 947.078 465.019 952.21 467.107C957.408 469.284 961.652 471.528 961.652 472.239C961.652 472.928 957.83 475.171 953.165 477.348C941.436 482.635 941.347 483.857 952.21 488.722C957.408 491.144 961.652 493.498 961.652 494.009C961.652 494.453 957.408 496.786 952.21 499.051C947.078 501.295 942.835 503.65 942.835 504.25C942.835 504.761 946.568 507.382 951.166 509.981C955.764 512.58 959.585 515.268 959.585 515.957C959.585 516.756 955.143 519.178 949.767 521.422L939.97 525.421L949.944 532.018L960.008 538.526L949.344 542.082C943.435 544.081 938.659 546.08 938.659 546.502C938.659 547.035 942.48 550.235 947.256 553.634C955.853 559.876 955.853 559.875 950.3 562.052C947.256 563.163 942.213 564.74 939.192 565.518C933.727 566.895 933.727 566.895 942.835 574.625L951.944 582.446L929.374 587.822L938.482 595.708L947.612 603.527L935.371 606.037L923.131 608.636L932.417 616.545L941.703 624.52L933.372 625.919C918.533 628.43 918.444 628.608 927.041 637.36L935.016 645.513L927.907 646.645C923.997 647.334 918.533 648.045 915.667 648.378C910.469 649 910.469 649.001 918.533 657.842L926.508 666.772H914.801C908.292 666.772 903.093 667.484 903.093 668.35C903.182 669.217 905.959 673.126 909.425 677.102C912.801 681.101 915.578 685.099 915.578 685.966C915.578 686.743 910.891 687.787 905.071 688.12C894.586 688.742 894.585 688.742 899.872 696.451C902.738 700.716 905.16 704.693 905.16 705.403C905.16 706.003 900.405 706.537 894.674 706.537C882.856 706.537 882.7 706.87 888.076 714.6C895.963 726.041 895.963 725.885 884.433 725.085C872.637 724.219 871.838 725.174 877.569 733.416C885.722 745.234 885.811 744.968 872.971 743.502L861.086 742.102L871.838 763.272L864.374 761.896C856.754 760.497 855.021 762.318 859.619 767.005C861.685 769.182 860.308 769.448 852.244 768.227C840.87 766.583 840.87 766.582 846.69 778.023C849.023 782.71 850.578 786.887 850.156 787.309C849.712 787.754 846.158 787.131 842.159 786.109C827.941 782.022 827.164 782.622 831.851 794.44C834.095 800.238 835.65 804.925 835.316 804.925C834.961 804.925 830.185 803.459 824.809 801.549C819.344 799.727 814.39 798.594 813.879 799.105C813.435 799.638 814.39 804.148 816.145 809.102C817.878 814.123 818.922 818.543 818.389 819.076C817.878 819.587 813.013 818.542 807.637 816.721C796.774 812.989 797.396 811.434 801.994 831.649C803.038 836.425 803.039 836.426 793.22 832.183C787.755 829.829 782.89 827.918 782.29 827.918C781.335 827.918 782.29 833.737 785.156 846.4C786.289 851.353 786.288 851.354 775.448 845.8L764.496 840.247L765.984 852.043L767.451 863.927L758.854 859.507C754.167 857.174 749.746 855.175 749.057 855.175C748.279 855.175 748.013 859.863 748.368 865.683C748.79 871.392 748.79 876.078 748.546 876.078C748.19 876.078 744.192 874.258 739.682 871.925C735.173 869.571 731.019 867.748 730.485 867.748C729.886 867.748 729.175 872.436 728.841 878.256C728.242 888.763 728.242 888.764 720.422 883.454C716.179 880.589 712.18 878.166 711.58 878.166C710.87 878.166 710.359 883.454 710.359 889.874V901.604L701.584 895.184C696.741 891.63 692.054 888.674 691.187 888.674C690.232 888.674 689.433 893.361 689.433 899.159C689.433 904.891 688.744 909.579 687.878 909.49C687.011 909.49 683.012 906.623 679.036 903.158L671.661 896.827L667.485 919.731L660.642 913.666C651.867 905.758 649.69 905.935 649.535 914.355C649.179 928.061 647.269 929.372 639.383 921.286C635.473 917.221 631.563 914.355 630.786 914.866C629.919 915.399 628.609 920.176 627.743 925.552L626.365 935.258L618.368 927.462C609.615 918.954 608.66 919.398 606.572 932.327C605.794 937.081 604.573 940.99 603.884 940.99C603.195 940.99 599.974 937.702 596.775 933.703C589.311 924.417 587.556 924.507 585.912 934.237C583.669 947.588 581.936 948.366 575.427 938.991C572.206 934.304 568.829 930.571 568.051 930.571C567.185 930.571 565.275 934.747 563.875 939.946C562.409 945.166 560.498 949.41 559.632 949.41C558.766 949.41 555.456 946.032 552.346 941.856C545.992 933.614 544.615 934.059 540.794 946.122C537.84 955.141 537.506 955.052 527.865 940.901C524.4 935.792 524.4 935.792 519.801 946.122C515.203 956.363 515.203 956.363 511.293 951.32C509.116 948.543 506.873 944.634 506.162 942.568C504.251 936.836 502.185 938.213 497.054 948.721L492.278 958.606L486.901 948.721C483.88 943.345 480.837 938.902 480.059 938.902C479.259 938.902 476.927 942.722 474.839 947.41C469.552 958.961 468.597 959.05 464.509 948.276H464.598ZM534.885 915.82C684.923 897.693 816.057 804.659 881.123 670.261C947.168 533.663 936.327 367.408 853.11 241.14C787.488 141.529 681.546 70.6417 565.008 48.3381C519.535 39.5633 452.713 38.4308 410.105 45.7172C247.849 73.4189 113.761 185.181 61.9568 335.907C44.7848 385.89 38.0981 426.077 38.1869 479.348C38.2758 589.91 73.2418 683.789 146.395 769.271C214.349 848.755 324.468 905.668 429.721 915.82C441.961 917.042 455.312 918.353 459.311 918.864C469.996 920.086 514.337 918.264 534.885 915.82ZM441.183 909.4C256.179 892.917 103.52 763.628 58.3136 585.133C45.3846 534.284 42.0076 467.196 49.7383 417.569C64.3111 324.889 101.699 249.225 166.188 182.492C257.113 88.2357 384.336 39.1413 511.293 49.2045C720.689 65.7767 885.988 220.324 912.535 424.499C929.907 557.787 885.81 687.965 791.154 782.977C699.585 874.968 571.939 921.13 441.183 909.4ZM544.082 899.959C662.975 883.987 774.404 813.078 841.825 710.424C921.576 588.955 931.551 426.409 867.328 295.898C802.172 163.387 675.904 74.7078 527.599 57.2693C501.141 54.137 435.719 56.047 409.061 60.6454C309.006 77.9285 215.904 130.932 152.037 207.039C10.6851 375.56 20.9259 624.876 175.474 778.735C272.307 875.213 404.641 918.775 544.082 899.959ZM293.922 799.638C293.922 796.95 316.137 796.506 481.348 796.506C646.492 796.506 668.706 796.95 668.706 799.638C668.706 802.415 646.492 802.837 481.348 802.837C316.137 802.837 293.922 802.415 293.922 799.638ZM314.826 752.699C314.826 728.818 315.093 727.441 319.091 727.441C322.557 727.441 323.246 728.817 323.246 736.37V745.235L328.622 736.37C331.932 730.728 335.486 727.441 337.996 727.441C343.128 727.441 343.128 727.352 337.041 737.949C332.021 746.79 332.021 746.79 338.085 761.451C345.283 778.979 345.194 777.691 339.907 777.691C336.708 777.691 334.442 775.002 331.221 767.183C326.201 755.209 325.067 755.298 323.335 767.694C322.557 773.869 321.069 776.824 318.559 777.246C315.182 777.935 314.826 775.691 314.826 752.699ZM346.927 773.181C347.549 770.471 350.237 759.119 352.747 747.834C357.012 729.352 357.878 727.441 362.21 727.441C367.409 727.441 367.764 728.396 374.451 757.386C378.605 775.691 378.516 777.691 373.74 777.691C371.23 777.691 369.23 775.779 368.453 772.469C366.631 765.36 357.345 765.006 356.39 771.959C355.879 775.069 353.969 776.89 350.659 777.334C346.416 778.023 345.905 777.424 346.927 773.181ZM364.987 754.165C364.898 751.566 364.032 747.568 362.988 745.235C361.433 741.503 361.166 741.68 361.077 746.611C360.989 749.744 360.389 753.742 359.7 755.564C358.834 757.719 359.523 758.852 361.766 758.852C363.854 758.852 365.076 757.119 364.987 754.165ZM386.069 756.764C386.069 737.237 385.802 735.861 381.826 735.861C379.049 735.861 377.65 734.372 377.65 731.595C377.65 727.863 379.049 727.441 391.289 727.441C403.507 727.441 404.907 727.863 404.907 731.595C404.907 734.727 403.508 735.861 399.687 735.861C394.4 735.861 394.4 735.86 394.4 756.764C394.4 776.291 394.133 777.691 390.245 777.691C386.335 777.691 386.069 776.291 386.069 756.764ZM245.672 821.076C241.585 817.344 219.192 797.373 195.955 776.647C172.697 755.898 153.681 738.015 153.77 736.905C153.77 735.683 157.946 730.217 162.878 724.664L171.986 714.512L180.583 722.242C185.359 726.574 189.18 730.64 189.18 731.351C189.18 732.128 185.715 736.282 181.627 740.792L174.074 748.878L167.743 742.546C161.412 736.193 161.412 736.193 166.099 729.773C169.831 724.397 171.386 723.62 174.607 725.352C179.628 728.04 181.449 731.084 179.717 733.861C178.85 735.238 177.295 734.638 175.562 732.305C172.874 728.751 172.519 728.752 169.142 732.04C166.099 734.994 166.01 736.127 168.187 738.815C171.986 743.413 175.207 742.88 181.027 736.637C186.048 731.261 186.048 731.262 180.25 726.219C172.608 719.621 171.83 719.709 164.277 728.906L157.857 736.727L165.655 744.701L173.563 752.787L182.671 743.147C193.334 731.862 191.69 731.35 215.904 754.075L231.099 768.227L223.191 777.068L215.393 785.932L208.529 779.667C201.576 773.336 201.576 773.336 206.019 767.183C211.128 759.985 214.438 759.363 219.281 764.761C223.635 769.515 221.192 772.558 216.416 768.227C213.306 765.45 212.617 765.539 209.307 769.093C205.93 772.914 205.93 773.247 210.44 776.38C214.949 779.512 215.549 779.423 221.192 773.958C227.19 768.227 227.189 768.227 220.769 762.495C212.439 755.031 211.817 755.208 204.019 765.005L197.422 773.247L205.397 780.622C209.751 784.71 214.438 788.086 215.816 788.086C217.126 788.086 221.192 784.354 224.835 779.756C228.478 775.157 232.476 771.425 233.698 771.425C234.987 771.425 240.718 775.869 246.627 781.334C252.514 786.888 261.289 794.596 266.243 798.684L275.173 805.969L265.532 816.898C260.245 822.985 255.291 827.917 254.514 827.828C253.736 827.828 249.737 824.808 245.672 821.076ZM256.091 821.076C255.557 820.721 252.27 818.031 248.715 815.166C242.206 809.879 242.207 809.879 246.094 805.014C248.271 802.326 250.626 800.683 251.314 801.46C252.092 802.149 251.492 804.147 249.915 805.969C247.76 808.657 247.916 809.879 251.048 813.345C256.002 818.81 258.69 818.543 264.755 812.057C269.886 806.57 269.886 806.569 261.733 799.816L253.558 792.951L246.094 801.282L238.563 809.524L246.538 816.81C250.87 820.809 255.047 823.586 255.735 822.897C256.335 822.208 256.513 821.409 256.091 821.076ZM252.092 808.058C252.092 806.148 253.048 804.926 254.336 805.281C255.558 805.703 256.513 806.925 256.513 808.058C256.513 809.191 255.558 810.391 254.336 810.835C253.048 811.257 252.092 809.969 252.092 808.058ZM256.246 814.122C256.291 812.878 257.423 810.812 258.867 809.434C260.933 807.28 260.423 805.969 256.246 802.837C253.403 800.682 251.826 798.172 252.692 797.283C253.558 796.417 256.78 798.239 259.89 801.371C265.532 807.014 265.532 807.013 260.934 811.612C258.335 814.211 256.246 815.343 256.246 814.122ZM243.584 798.239L250.693 789.575L242.451 782.622L234.298 775.691L226.145 783.754L218.081 791.819L226.145 799.371C230.655 803.547 234.742 806.925 235.342 806.925C235.853 806.925 239.585 803.015 243.584 798.239ZM228.478 797.039C223.013 791.308 223.013 791.307 228.056 785.487C233.432 779.333 237.519 779.667 243.495 786.976C245.672 789.575 245.316 791.219 241.251 796.328C235.164 804.059 235.165 804.059 228.478 797.039ZM238.386 787.309C234.742 784.71 233.787 784.711 230.566 787.576C227.101 790.709 227.101 791.129 230.477 794.861C233.965 798.682 234.12 798.683 238.208 794.506C242.451 790.352 242.451 790.264 238.386 787.309ZM232.477 792.951C230.144 790.618 231.01 788.176 234.298 788.176C235.942 788.176 237.43 789.042 237.43 790.086C237.43 792.774 234.121 794.684 232.477 792.951ZM201.576 761.896C205.153 757.809 208.085 753.654 208.085 752.699C208.085 751.655 204.442 747.922 200.021 744.457C191.957 738.015 191.957 738.015 187.87 742.702C177.54 754.52 177.54 754.254 185.182 762.074C189.003 766.05 192.823 769.36 193.601 769.36C194.467 769.36 198.022 765.961 201.576 761.896ZM186.314 759.629C180.25 754.342 180.25 754.343 186.758 747.834C193.245 741.237 193.245 741.236 198.555 746.279C205.152 752.344 205.241 754.765 199.066 760.585C193.09 766.139 193.69 766.138 186.314 759.629ZM197.777 756.52C201.065 750.433 195.422 744.102 190.402 748.256C186.492 751.566 186.226 755.031 189.691 758.407C193.246 761.984 195.089 761.541 197.777 756.52ZM190.402 754.764C188.824 752.254 192.734 749.833 195.6 751.566C197.933 752.943 196.378 756.764 193.423 756.764C192.379 756.764 191.09 755.897 190.402 754.764ZM696.741 817.255L688.055 806.503L696.652 798.949C701.406 794.684 724.421 774.047 747.924 752.854L790.532 714.423L799.64 724.574C804.683 730.217 808.77 735.683 808.681 736.905C808.681 738.015 795.997 750.255 780.557 764.051C765.118 777.935 742.814 797.906 731.018 808.48C719.2 819.076 708.626 827.828 707.404 827.828C706.271 827.917 701.406 823.164 696.741 817.255ZM797.996 743.325L805.815 736.126L798.596 728.662C790.199 719.887 790.199 719.888 783.068 725.53C777.514 729.862 777.514 729.862 781.868 736.038C786.711 742.791 790.354 743.657 794.442 738.903C798.44 734.038 791.931 727.53 787.066 731.595C782.201 735.594 780.469 732.394 784.889 727.441C789.843 721.976 790.532 722.064 796.263 729.773C801.039 736.282 801.039 736.282 794.619 742.702C787.577 749.833 789.154 750.522 776.048 733.861C774.648 732.039 773.448 731.528 773.448 732.727C773.36 735.593 785.755 750.432 788.199 750.432C789.332 750.432 793.664 747.234 797.996 743.325ZM786.289 736.993C786.622 735.082 787.932 733.505 789.065 733.594C792.175 733.771 791.576 738.459 788.377 739.592C786.622 740.103 785.844 739.147 786.289 736.993ZM716.69 816.566L723.621 809.434L716.601 801.104L709.67 792.773L701.762 799.039C692.387 806.414 692.387 806.324 698.896 814.299C703.939 820.63 703.939 820.631 708.96 815.854C716.424 808.923 718.601 810.213 711.648 817.433C708.271 820.898 706.538 823.763 707.671 823.763C708.804 823.763 712.869 820.543 716.69 816.566ZM701.495 813.7C696.742 808.391 697.075 805.969 703.583 800.86C709.137 796.417 709.137 796.417 714.868 803.281C718.067 807.102 720.155 810.656 719.645 811.167C719.023 811.789 716.512 809.79 713.913 806.747C709.826 802.06 708.626 801.727 705.494 803.97C702.539 806.236 702.295 807.435 704.272 811.167C707.493 817.165 705.938 818.543 701.495 813.7ZM707.76 809.791C705.76 807.792 706.027 804.925 708.271 804.925C709.315 804.925 710.692 806.325 711.403 808.058C712.602 811.257 710.359 812.301 707.848 809.791H707.76ZM736.639 799.728L744.97 792.619L738.638 784.799C735.173 780.468 731.441 776.645 730.308 776.29C729.264 775.957 724.665 778.801 720.156 782.622L711.914 789.575L718.956 798.327C722.754 803.103 726.487 807.014 727.109 806.925C727.797 806.836 732.13 803.637 736.639 799.728ZM720.933 796.417C716.424 790.085 716.424 790.087 722.066 784.799C728.664 778.735 730.752 778.978 736.572 786.798C740.815 792.529 740.815 792.53 734.573 797.55C726.664 804.059 726.398 804.058 720.933 796.417ZM731.796 795.218C734.662 792.619 735.084 790.864 733.44 787.932C731.019 783.244 729.619 783.155 724.577 786.976C721.289 789.486 721.111 790.53 723.465 794.262C726.753 799.549 727.02 799.55 731.796 795.218ZM726.576 792.951C724.243 790.618 725.11 788.176 728.397 788.176C730.064 788.176 731.529 789.042 731.529 790.086C731.529 792.774 728.242 794.684 726.576 792.951ZM757.032 780.378L765.029 772.647L757.387 764.761L749.657 756.942L741.593 763.272C737.261 766.827 733.618 770.315 733.618 771.093C733.618 773.092 746.103 788.176 747.746 788.176C748.546 788.176 752.7 784.71 757.032 780.378ZM740.993 777.424C735.528 770.915 735.528 770.914 742.814 765.871C751.834 759.807 750.701 759.719 756.343 767.272C760.942 773.603 760.942 773.603 755.122 778.735C747.68 785.221 747.591 785.221 740.993 777.424ZM753.233 775.958C756.432 772.381 756.432 771.87 752.967 768.738C747.591 763.895 740.549 769.004 744.014 775.424C746.88 780.8 748.701 780.889 753.233 775.958ZM746.191 772.469C746.191 770.559 747.146 769.359 748.457 769.692C749.657 770.137 750.612 771.336 750.612 772.469C750.612 773.513 749.657 774.825 748.457 775.158C747.146 775.602 746.191 774.38 746.191 772.469ZM776.47 762.851C780.558 759.296 783.845 755.719 783.845 754.942C783.845 754.164 781.002 750.01 777.425 745.745C770.494 737.326 769.961 737.325 758.943 746.789L752.189 752.522L758.943 760.94C762.675 765.539 766.496 769.36 767.362 769.36C768.317 769.36 772.405 766.405 776.47 762.851ZM760.853 758.852C756.343 752.61 756.343 752.61 762.252 747.39C769.716 740.792 769.894 740.88 776.314 748.522C781.779 754.942 781.779 754.942 775.692 760.074C767.895 766.583 766.229 766.494 760.853 758.852ZM775.448 755.119C775.359 754.253 773.959 751.832 772.316 749.655C769.716 746.19 768.85 746.1 765.629 748.522C763.541 750.077 761.475 751.654 761.031 751.987C760.52 752.254 761.808 754.431 763.896 756.675C766.762 759.896 768.495 760.318 771.538 758.674C773.693 757.542 775.448 755.897 775.448 755.119ZM765.984 756.675C763.896 753.298 768.584 749.056 771.36 751.833C772.915 753.299 772.671 754.765 770.494 756.52C768.228 758.408 767.117 758.407 765.984 756.675ZM410.549 776.38C409.772 775.602 409.061 764.139 409.061 751.033C409.061 727.441 409.15 727.174 413.749 727.796C417.836 728.396 418.614 729.951 419.125 738.548C419.747 747.567 420.257 748.612 424.345 748.012C428.255 747.39 429.032 745.834 429.632 737.414C430.076 729.084 430.943 727.441 434.408 727.441C438.318 727.441 438.496 728.751 437.962 752.077C437.363 775.069 437.096 776.647 433.186 776.647C429.632 776.647 428.854 775.069 428.343 766.671C427.81 758.585 426.944 756.764 423.723 756.764C420.524 756.764 419.658 758.585 419.125 766.671C418.525 776.202 414.703 780.556 410.549 776.38ZM445.604 775.068C445.004 773.513 444.827 762.318 445.16 750.344C445.782 728.485 445.782 728.485 451.847 728.485C457.667 728.485 458.089 729.174 461.399 743.147C465.042 758.675 465.309 758.585 469.818 738.458C472.151 728.306 472.773 727.441 478.393 727.441C484.48 727.441 484.48 727.44 484.48 752.61C484.48 776.29 484.214 777.691 480.304 777.691C476.483 777.691 476.061 776.291 476.061 762.495C475.972 746.279 473.462 746.523 471.018 763.007C468.33 781.933 463.221 782.111 458.956 763.539L456.179 751.566L455.156 764.051C454.357 773.869 453.335 776.734 450.469 777.334C448.47 777.689 446.293 776.646 445.693 775.068H445.604ZM527.688 776.29C526.91 775.512 526.31 764.228 526.31 751.21C526.31 728.663 526.555 727.441 530.642 727.441C533.863 727.441 536.373 730.729 540.883 740.548L546.948 753.654L547.037 740.548C547.214 728.907 547.747 727.441 551.39 727.441C555.367 727.441 555.634 728.818 555.634 752.699C555.634 777.424 555.456 777.934 551.035 777.334C547.57 776.823 545.304 773.336 541.149 761.984L535.685 747.3L535.063 762.495C534.552 776.89 532.286 780.977 527.688 776.29ZM564.053 778.2V727.441H573.072C587.49 727.441 590 730.639 590.866 749.833C591.821 770.47 588.689 775.424 573.85 777.156L564.053 778.2ZM580.359 766.827C582.958 764.228 583.846 744.967 581.58 739.147C580.892 737.326 578.537 735.861 576.382 735.861C572.805 735.861 572.383 737.504 572.383 752.61C572.383 769.604 574.294 772.914 580.359 766.827ZM601.707 773.513C598.064 769.87 597.553 766.493 597.553 748.344C597.553 728.995 597.797 727.441 601.618 727.441C605.35 727.441 605.794 729.174 606.305 747.834C606.927 767.183 607.171 768.316 611.614 768.915C616.279 769.604 616.369 769.181 616.369 748.522C616.369 728.817 616.635 727.441 620.545 727.441C624.455 727.441 624.699 728.818 624.699 749.122C624.699 767.449 624.188 771.27 620.878 774.202C615.68 778.889 606.75 778.556 601.707 773.513ZM211.128 773.336C210.351 772.136 210.173 770.737 210.706 770.227C212.172 768.738 218.504 771.603 218.504 773.78C218.504 776.379 212.772 776.112 211.128 773.336ZM171.386 737.771C170.609 736.549 170.52 735.082 171.12 734.46C172.608 732.905 176.673 735.594 176.673 738.015C176.673 740.725 173.119 740.548 171.386 737.771ZM129.911 705.136C129.134 704.359 128.512 702.96 128.512 702.004C128.512 701.049 287.236 700.272 481.259 700.272C793.931 700.272 833.828 700.628 832.806 703.405C831.673 706.182 790.71 706.537 481.437 706.537C288.88 706.537 130.689 705.914 129.911 705.136ZM121.581 692.563C120.803 691.764 120.182 690.387 120.182 689.431C120.182 688.476 282.282 687.698 480.393 687.698C767.717 687.698 840.515 688.121 839.826 690.298C839.137 692.386 765.118 692.985 481.014 693.43C284.014 693.763 122.358 693.341 121.581 692.563ZM712.692 674.77C705.139 671.905 704.361 669.548 704.272 649.6C704.272 629.562 707.049 624.875 719.112 624.875C728.753 624.875 731.53 630.518 731.441 650.111C731.441 659.841 730.752 668.861 729.885 670.261C727.198 674.504 718.334 676.858 712.692 674.77ZM722.688 650.466C722.155 635.893 721.644 634.25 717.912 634.25C714.18 634.25 713.647 635.893 713.047 647.689C712.358 663.751 713.313 666.705 718.956 666.705C723.021 666.705 723.288 665.75 722.688 650.466ZM155.769 654.199C155.769 634.583 155.502 633.206 151.526 633.206C148.749 633.206 147.35 631.807 147.35 629.03C147.35 625.298 148.75 624.875 160.968 624.875C173.03 624.875 174.607 625.298 174.607 628.852C174.607 631.473 172.941 633.205 169.92 633.628C165.41 634.25 165.144 635.361 164.544 654.71C164.011 673.37 163.589 675.102 159.857 675.102C156.036 675.102 155.769 673.548 155.769 654.199ZM179.206 650.466C179.805 625.919 179.806 625.92 187.87 625.209C203.331 624.009 211.484 634.938 205.064 648.378C202.02 654.798 202.02 656.376 204.886 664.529C208.885 675.903 208.974 675.548 203.487 674.77C200.288 674.237 198.111 671.549 196.023 665.129C192.224 653.599 189.269 653.843 189.269 665.661C189.269 674.414 188.824 675.102 183.893 675.102C178.495 675.102 178.495 675.102 179.206 650.466ZM196.555 640.582C196.555 636.317 195.422 634.161 192.912 633.628C189.958 633.028 189.269 634.406 189.269 640.582C189.269 646.735 189.958 648.045 192.912 647.512C195.422 647.001 196.555 644.825 196.555 640.582ZM214.86 650.556C215.305 629.03 215.904 625.831 219.125 625.209C222.413 624.609 222.769 626.875 222.769 649.867C222.769 673.814 222.591 675.102 218.504 675.102C214.438 675.102 214.261 674.081 214.86 650.556ZM231.61 650.466L232.121 625.919L241.94 626.009C247.316 626.075 253.136 627.386 254.958 628.852C258.69 631.984 259.556 644.824 256.091 646.912C254.602 647.868 254.603 649.156 256.246 651.067C259.89 655.51 259.29 666.351 255.135 670.949C252.359 673.993 248.715 675.102 241.162 675.102H230.921L231.521 650.466H231.61ZM249.582 659.93C250.093 655.332 249.404 654.199 245.938 654.199C242.451 654.199 241.585 655.51 241.585 660.619C241.585 669.127 248.626 668.438 249.582 659.93ZM248.871 639.538C248.871 636.228 247.583 634.072 245.228 633.628C242.362 633.028 241.585 634.34 241.585 639.538C241.585 644.647 242.362 645.958 245.228 645.447C247.583 644.914 248.871 642.737 248.871 639.538ZM266.665 649.956C266.665 626.253 266.931 624.875 270.93 624.875C274.573 624.875 275.084 626.252 275.084 635.36C275.084 645.09 275.44 645.779 280.283 645.779C285.237 645.779 285.592 645.091 285.592 635.206C285.592 626.164 286.103 624.698 289.235 625.209C292.434 625.92 292.967 629.03 293.478 650.556C294.011 674.081 293.834 675.102 289.835 675.102C286.103 675.102 285.592 673.725 285.592 664.617C285.592 654.887 285.148 654.199 280.283 654.199C275.44 654.199 275.084 654.887 275.084 664.617C275.084 673.725 274.484 675.102 270.93 675.102C266.931 675.102 266.665 673.726 266.665 649.956ZM304.163 671.637C302.075 669.215 301.298 661.929 301.298 647.09C301.298 627.297 301.542 625.919 305.452 625.919C309.273 625.919 309.717 627.474 310.228 646.468C310.828 666.35 311.006 666.95 315.426 666.35C319.869 665.75 320.113 664.529 320.735 645.18C321.157 627.03 321.78 624.697 324.89 625.297C330.021 626.252 331.31 662.708 326.378 670.083C322.379 676.236 308.762 677.19 304.163 671.637ZM339.996 654.71C337.485 643.447 334.864 632.073 334.264 629.385C333.309 625.209 333.842 624.609 338.174 625.209C342.595 625.831 343.461 627.653 346.06 642.67C347.727 651.867 349.37 658.442 349.704 657.331C350.148 656.198 351.614 648.646 353.102 640.582C355.346 627.897 356.39 625.831 360.389 625.209C362.988 624.876 365.076 624.964 365.076 625.475C365.076 626.008 362.722 636.849 359.856 649.6C357.012 662.351 354.657 673.281 354.657 673.992C354.657 674.592 352.413 675.102 349.637 675.102C344.86 675.102 344.15 673.637 339.996 654.71ZM402.819 651C402.819 630.94 403.352 626.608 406.129 625.564C410.549 623.831 412.616 626.342 418.525 640.759L423.656 653.155V639.004C423.723 626.252 424.167 624.875 427.899 624.875C431.898 624.875 432.142 626.252 432.142 650.111C432.142 674.68 431.987 675.37 427.633 674.77C424.434 674.237 421.99 670.682 418.436 661.485C414.193 650.467 413.571 649.779 413.415 655.51C413.06 668.439 410.794 675.102 406.728 675.102C403.085 675.102 402.819 673.215 402.819 651ZM455.156 649.956C455.156 626.253 455.401 624.875 459.311 624.875C463.309 624.875 463.487 626.253 463.487 649.956C463.487 673.726 463.309 675.102 459.311 675.102C455.401 675.102 455.156 673.726 455.156 649.956ZM471.884 649.867C471.884 625.386 471.973 624.609 476.238 625.209C479.259 625.653 482.036 629.296 485.258 636.849C491.411 651.333 491.766 651.421 491.944 638.315C492.122 625.83 493.144 623.743 497.92 625.564C500.608 626.608 501.23 631.206 501.23 651.155C501.23 675.102 501.141 675.37 496.454 674.77C492.81 674.237 490.544 671.037 486.568 660.529L481.348 647.002L480.659 661.064C480.148 673.371 479.526 675.102 475.972 675.102C472.151 675.102 471.884 673.548 471.884 649.867ZM515.891 654.199C515.891 633.295 515.891 633.295 510.604 633.295C506.783 633.295 505.384 632.161 505.384 628.94C505.384 625.053 506.517 624.697 519.535 625.297C530.998 625.83 533.774 626.608 534.285 629.563C534.796 632.339 533.597 633.295 529.598 633.295C524.222 633.295 524.222 633.295 524.222 654.199C524.222 673.726 523.956 675.102 520.046 675.102C516.158 675.102 515.891 673.726 515.891 654.199ZM539.328 650.556C539.839 629.118 540.35 625.919 543.571 625.297C546.859 624.608 547.303 626.697 547.303 645.691C547.303 666.772 547.303 666.772 554.59 666.772C560.499 666.772 561.876 667.573 561.876 670.949C561.876 674.593 560.498 675.102 550.346 675.102H538.795L539.328 650.556ZM582.891 671.459C582.957 669.482 585.046 658.375 587.645 646.823C592.088 627.385 592.688 625.919 597.464 625.919C603.195 625.919 605.617 632.073 610.904 660.108C613.77 675.28 613.769 675.369 609.349 674.681C606.483 674.325 604.572 672.327 604.15 669.217C603.195 662.441 592.599 663.485 591.644 670.438C590.777 676.147 582.802 677.102 582.891 671.459ZM599.974 649C599.019 640.403 596.331 640.915 594.953 649.956C594.242 654.799 594.865 656.287 597.464 656.287C600.063 656.287 600.663 654.643 599.974 649ZM618.901 650.645C619.501 627.475 619.768 625.919 623.655 625.919C627.654 625.919 627.831 627.297 627.831 650.044C627.831 673.459 627.743 674.082 623.055 674.77C618.279 675.459 618.279 675.37 618.901 650.645ZM635.651 650.645C636.25 625.92 636.251 625.92 644.226 625.209C659.51 624.009 666.352 633.384 660.887 648.046C658.554 654.288 658.554 656.799 661.331 664.529C665.396 675.903 665.397 675.548 659.843 674.77C656.377 674.237 654.378 671.726 652.312 665.129C650.734 660.264 648.646 656.287 647.713 656.287C646.758 656.287 645.625 660.264 645.27 665.129C644.759 672.593 643.893 674.148 639.894 674.77C635.118 675.459 635.118 675.37 635.651 650.645ZM653 640.582C653 636.317 651.867 634.161 649.357 633.628C646.403 633.117 645.625 634.406 645.625 640.582C645.625 646.735 646.403 648.045 649.357 647.512C651.867 647.001 653 644.825 653 640.582ZM670.794 649.689V624.342L681.635 625.387C694.209 626.608 698.03 630.34 698.03 641.714C698.03 650.733 692.921 656.287 684.746 656.287C679.547 656.287 679.192 656.887 679.192 665.661C679.192 673.725 678.503 675.102 674.949 675.102C671.039 675.102 670.794 673.725 670.794 649.689ZM688.567 640.582C688.567 635.628 687.522 634.161 683.879 633.628C679.725 633.028 679.192 633.895 679.192 640.582C679.192 647.268 679.725 648.134 683.879 647.512C687.522 647.001 688.567 645.513 688.567 640.582ZM739.86 649.689V624.342L750.701 625.387C757.832 626.075 762.43 627.741 764.34 630.251C767.984 635.205 767.895 645.69 764.163 649.867C761.564 652.644 761.564 654.288 764.074 661.485C767.984 672.682 767.806 675.102 763.119 675.102C760.253 675.102 758.254 672.593 756.255 666.35C752.278 653.932 748.279 653.51 748.279 665.484C748.279 673.725 747.591 675.102 744.014 675.102C740.127 675.102 739.86 673.725 739.86 649.689ZM757.565 644.046C759.387 638.404 756.787 633.295 752.189 633.295C749.057 633.295 748.279 634.762 748.279 640.582C748.279 646.38 749.057 647.868 752.278 647.868C754.521 647.868 756.876 646.134 757.565 644.046ZM781.335 673.547C781.068 672.681 780.824 663.485 780.824 653.155C780.735 635.205 780.468 634.25 776.048 633.628C773.004 633.205 771.272 631.562 771.272 628.94C771.272 625.297 772.827 624.875 784.889 624.875C797.13 624.875 798.529 625.298 798.529 629.03C798.529 631.807 797.13 633.295 794.353 633.295C790.443 633.295 790.198 634.672 790.198 654.199C790.198 673.726 789.932 675.102 785.933 675.102C783.69 675.102 781.601 674.414 781.335 673.547ZM80.3506 598.662C80.3506 595.885 126.357 595.53 481.348 595.53C836.272 595.53 882.256 595.974 882.256 598.662C882.256 601.528 836.272 601.884 481.348 601.884C126.357 601.884 80.3506 601.439 80.3506 598.662ZM77.5067 586.177C76.4626 583.4 122.092 582.956 480.304 582.956C838.094 582.956 884.344 583.4 884.344 586.177C884.344 590.931 79.3283 590.931 77.5067 586.177ZM855.021 553.722V541.126H867.683C880.435 541.126 880.435 541.127 879.746 549.99C879.213 557.965 878.524 558.92 873.326 559.275C870.193 559.52 867.594 558.831 867.594 557.787C867.594 556.654 869.505 555.788 871.749 555.788C874.792 555.788 876.014 554.41 876.014 550.767C876.014 546.413 874.792 545.635 867.594 544.946C859.264 544.169 859.264 544.169 859.264 555.187C859.264 561.252 858.309 566.295 857.087 566.295C855.976 566.295 855.021 560.653 855.021 553.722ZM862.552 564.741C861.863 564.03 861.352 559.875 861.352 555.455C861.352 547.902 861.685 547.368 867.594 547.368C871.749 547.368 873.837 548.413 873.837 550.59C873.837 554.322 868.372 554.744 866.906 551.034C866.284 549.635 865.773 551.456 865.684 555.277C865.506 561.786 865.773 562.052 873.837 562.052C882.256 562.052 882.256 562.052 882.256 540.082C882.256 518.045 882.256 518.045 873.837 518.045C866.373 518.045 865.506 518.579 865.506 523.332C865.506 527.509 866.55 528.553 870.727 528.553C874.525 528.553 875.925 527.42 875.925 524.376C875.925 522.044 876.969 520.134 878.191 520.134C879.39 520.134 880.168 522.732 879.746 525.953C879.213 531.063 878.191 531.751 870.105 532.373C861.086 532.973 861.086 532.974 861.686 523.955C862.396 514.936 862.396 514.935 874.459 514.313L886.588 513.714L885.988 539.393L885.477 565.163L874.615 565.607C868.728 565.785 863.263 565.34 862.552 564.651V564.741ZM76.1962 559.876V396.642H88.8587C101.543 396.642 101.543 396.642 100.921 405.506C100.322 413.481 99.6328 414.525 94.5012 415.036C89.9028 415.569 88.7699 414.88 88.7699 411.393C88.7699 408.883 90.0804 407.061 91.9908 407.061C93.8124 407.061 94.6787 408.016 93.9901 409.149C93.2792 410.348 93.6346 411.237 94.9453 411.237C96.1449 411.237 97.1004 408.46 97.1004 404.973C97.1004 399.086 96.6784 398.73 88.7699 398.73C80.3506 398.73 80.3506 398.73 80.3506 411.237V423.811H107.608V476.126H95.0341C82.4384 476.126 82.4387 476.126 82.4387 465.729C82.4387 455.489 82.6165 455.221 88.7699 455.221C92.2576 455.221 95.0341 456.178 95.0341 457.311C95.0341 458.444 93.1239 459.399 90.858 459.399C87.5702 459.399 86.7036 460.776 86.7036 465.729C86.7036 471.616 87.1257 471.972 95.0341 471.972C103.453 471.972 103.453 471.973 103.453 448.98V425.899H94.4124C85.3933 425.899 85.3932 425.899 86.2595 433.274C86.7927 437.695 86.1705 440.56 84.7932 440.56C83.4825 440.56 82.3499 437.006 82.2611 432.741C82.1056 423.122 81.0613 425.721 79.7506 439.005C78.7954 448.98 78.7953 448.98 90.0804 448.98C101.277 448.98 101.277 448.98 101.277 459.399C101.277 469.618 101.188 469.884 95.0341 469.884C90.1691 469.884 88.7699 468.928 88.7699 465.729C88.7699 463.375 90.1693 461.464 91.8132 461.464C93.7237 461.464 94.4123 462.775 93.7236 464.685C93.035 466.418 93.5458 467.796 94.8565 467.796C96.0561 467.796 97.1004 464.507 97.1004 460.42C97.1004 453.222 97.0114 453.133 88.2588 453.133H79.3283L80.0171 476.126C80.6169 499.207 80.6171 499.207 88.8587 499.207C96.234 499.207 97.1004 498.607 97.1004 494.009C97.1004 490.366 95.9897 488.722 93.4572 488.811C90.5915 488.811 90.4359 489.233 92.6796 490.633C96.7671 493.232 93.6346 497.141 87.57 497.141C82.8827 497.141 82.4387 496.275 82.4387 487.589C82.4387 478.037 82.4387 478.037 94.5012 478.659L106.564 479.348L107.097 519.6C107.519 545.991 106.919 559.964 105.52 559.964C104.32 559.964 103.453 554.144 103.453 546.347C103.453 532.707 103.454 532.707 92.0796 532.707C80.7946 532.707 80.7946 532.707 80.0171 544.525C79.2396 557.52 80.1949 558.475 90.858 555.876C98.1444 554.055 98.1442 554.055 90.3468 553.878C82.6161 553.633 82.5275 553.545 82.5275 545.303C82.5275 536.884 82.5276 536.883 92.4132 537.217C101.543 537.572 101.699 537.661 94.5012 538.438C87.3925 539.127 86.7036 539.838 86.7036 545.391C86.7036 550.589 87.4813 551.546 91.902 551.546C96.145 551.546 97.1004 550.501 97.1004 546.169C97.1004 543.215 98.0556 541.393 99.1885 542.082C100.321 542.77 101.188 547.124 101.01 551.634C100.677 559.875 100.677 559.876 88.4364 559.876H76.1962ZM103.453 520.312C103.453 508.427 102.143 507.116 93.1237 508.937C87.3923 510.07 86.7036 511.025 86.7036 517.268C86.7036 523.421 87.3036 524.287 91.902 524.287C99.0107 524.287 99.5441 514.58 92.4132 513.269C88.9477 512.581 89.5696 512.225 94.5012 512.069C100.921 511.803 101.277 512.158 101.277 519C101.277 527.598 100.41 528.198 90.4356 526.976C82.8826 526.043 82.6162 525.776 81.9275 516.224C81.15 506.938 81.0613 507.027 80.7059 518.579C80.3504 530.641 80.3504 530.641 91.902 530.641C103.365 530.641 103.365 530.641 103.365 520.312H103.453ZM88.7699 519.268C88.7699 517.446 90.258 515.957 92.0796 515.957C93.9012 515.957 95.0344 517.09 94.5012 518.489C93.2794 522.31 88.7699 523 88.7699 519.268ZM103.453 494.009C103.453 482.48 103.453 482.48 95.0341 482.48C86.9479 482.48 86.704 482.634 86.9483 489.232C87.3038 495.563 87.3925 495.652 88.17 490.276C88.8586 485.5 90.0806 484.545 95.19 484.545C100.921 484.545 101.277 485.079 101.277 492.965C101.277 501.295 101.277 501.295 89.814 501.295C83.4828 501.295 78.2843 502.251 78.2843 503.383C78.2843 504.605 83.8381 505.472 90.858 505.472C103.454 505.472 103.453 505.472 103.453 494.009ZM88.7699 545.303C88.7699 544.081 90.1693 543.215 91.902 543.215C93.6348 543.215 95.0341 544.081 95.0341 545.303C95.0341 546.414 93.6348 547.368 91.902 547.368C90.1693 547.368 88.7699 546.414 88.7699 545.303ZM224.924 543.725C224.924 542.858 234.831 534.195 246.894 524.376C261.644 512.492 274.573 499.474 286.725 484.39C304.763 462.087 304.763 462.086 315.515 460.865C324.89 459.821 327.244 458.51 332.62 451.757C336.086 447.403 343.283 439.073 348.681 433.363C353.968 427.543 362.299 416.169 367.164 408.105C379.049 388.489 381.382 386.157 389.112 386.157C393.8 386.157 397.532 384.246 401.864 379.648C419.48 361.165 440.473 344.059 443.516 345.703C445.249 346.747 455.49 355.7 466.264 365.586C480.659 378.937 486.657 383.202 488.812 381.802C493.499 378.87 493.41 378.87 510.693 399.774C519.712 410.704 527.776 419.634 528.732 419.634C529.598 419.634 537.062 414.014 545.393 407.061L560.41 394.488L567.963 403.24C572.117 408.016 576.804 413.748 578.292 415.836C579.759 417.991 584.624 421.545 589.044 423.811C593.465 426.077 604.306 436.14 613.17 446.292C627.32 462.419 630.697 465.197 641.36 468.84C652.556 472.75 656.044 475.705 685.701 507.294C703.406 526.11 718.245 542.437 718.601 543.393C718.956 544.526 615.169 545.303 472.062 545.303C336.086 545.303 224.835 544.591 224.924 543.725ZM639.539 525.153C631.053 514.313 592.51 472.061 591.821 472.838C591.466 473.194 592.088 478.036 593.288 483.501C594.509 488.988 595.287 493.742 594.953 494.097C594.598 494.453 584.446 491.499 572.383 487.589C560.321 483.59 549.813 480.657 549.125 480.902C548.436 481.168 556.944 489.678 567.963 499.83C588.089 518.312 588.089 518.312 589.133 511.981C590.177 505.717 590.178 505.716 616.369 518.134C630.786 524.91 642.849 530.553 643.182 530.553C643.537 530.553 641.893 528.108 639.539 525.153ZM423.301 479.526C431.809 471.373 433.897 467.019 437.363 448.98C438.829 441.605 438.829 441.604 430.232 449.935C420.88 458.954 420.08 458.177 424.678 445.07C426.344 440.294 427.299 436.384 426.855 436.384C425.211 436.384 364.032 486.368 346.86 501.74C341.995 506.072 338.352 509.714 338.774 509.714C339.307 509.714 350.747 504.427 364.387 498.007C378.005 491.587 391.356 485.412 394.066 484.39C398.909 482.48 398.909 482.479 394.133 489.232C391.445 492.964 384.847 501.828 379.294 508.937C373.829 515.957 369.319 522.377 369.319 523.177C369.319 524.909 410.972 491.144 423.212 479.526H423.301ZM522.134 511.269C516.669 502.339 516.847 500.607 523.178 501.828C526.044 502.339 528.376 502.517 528.376 502.072C528.376 501.65 521.712 494.875 513.47 487.078C498.542 472.838 498.542 472.838 503.051 464.063C507.65 455.044 510.249 453.401 512.937 457.733C513.892 459.221 516.069 455.734 518.313 448.98C520.401 442.805 521.867 437.517 521.623 437.251C521.09 436.74 467.552 479.525 448.647 495.498L439.451 503.383L461.221 494.964C473.106 490.276 483.791 486.033 484.746 485.411C487.434 483.767 486.99 486.9 482.303 500.34C479.97 507.115 478.393 513.447 478.749 514.491C479.104 515.535 483.436 513.024 488.39 508.848C493.321 504.694 498.186 501.295 499.23 501.295C500.186 501.295 506.428 505.027 512.937 509.714C519.535 514.312 525.266 518.045 525.6 518.045C525.955 518.045 524.4 515.001 522.134 511.269ZM326.289 486.633C326.978 486.633 326.023 489.677 324.023 493.498C322.202 497.23 321.157 499.829 321.868 499.207C338.685 484.546 350.592 473.105 357.523 464.685L366.209 454.267L356.213 462.33C345.461 471.016 344.505 470.506 349.548 458.443C351.369 454.089 352.414 450.179 351.969 449.757C351.458 449.224 345.972 455.044 339.729 462.508C333.576 469.972 327.844 476.126 327.067 476.126C326.289 476.126 325.334 474.06 324.979 471.439C324.468 467.796 321.868 470.751 313.271 485.079C307.273 495.231 302.342 503.984 302.342 504.695C302.342 505.472 307.363 501.651 313.605 496.364C319.869 490.966 325.512 486.633 326.289 486.633ZM603.706 447.07C597.375 436.829 589.733 430.142 584.268 430.142C582.713 430.142 576.982 424.321 571.428 417.302C560.499 403.24 557.81 403.417 557.81 418.346C557.722 425.277 557.278 426.077 554.59 423.811C551.124 421.034 551.39 423.366 556.766 445.847L559.277 456.267L560.921 447.07C562.565 437.784 562.565 437.784 567.43 443.848C572.384 450.024 572.383 450.024 572.383 443.249C572.383 434.741 573.605 434.74 582.091 442.982C588.178 448.802 588.778 449.069 587.645 444.892C586.623 440.738 587.822 441.249 597.73 448.713C603.973 453.401 609.26 457.311 609.526 457.311C609.771 457.311 607.172 452.712 603.706 447.07ZM438.407 418.346C447.248 408.705 447.248 408.704 452.202 414.702C457.134 420.678 457.134 420.678 455.845 408.616C455.156 402.018 455.068 396.642 455.579 396.642C456.112 396.642 460.71 401.773 465.642 408.015C475.372 420.167 478.149 420.856 478.149 411.303C478.149 402.462 480.392 402.284 490.811 410.615C520.046 433.962 526.044 432.83 507.472 407.505C494.454 389.712 493.144 388.667 488.99 392.821C487.079 394.821 484.391 393.355 477.105 386.157C467.641 376.96 467.641 376.959 467.641 383.024C467.641 388.489 466.953 387.89 460.177 376.605C445.693 352.48 442.228 351.346 442.827 370.962C443.161 381.381 442.294 387.023 439.362 392.488C435.63 399.596 435.452 399.597 434.23 394.732C433.097 389.978 432.32 390.489 421.479 403.062C402.641 425.033 402.397 425.543 413.571 419.034C425.9 411.926 425.811 411.925 425.811 420.678C425.811 430.319 427.632 429.964 438.318 418.346H438.407ZM409.772 391.444C416.88 380.425 415.237 379.648 404.729 389.178C400.042 393.443 394.844 396.464 393.267 395.864C390.579 394.82 373.495 411.837 373.495 415.569C373.495 416.435 380.426 413.214 388.935 408.46C399.531 402.462 406.04 397.175 409.772 391.444ZM863.951 537.482L855.021 536.616V484.545H867.594C880.168 484.545 880.168 484.546 880.168 494.875C880.168 505.205 880.168 505.204 871.238 506.071C862.396 506.848 862.396 506.849 872.282 507.204L882.256 507.538V459.465H870.727C859.175 459.465 859.175 459.465 859.175 468.84C859.175 478.303 859.175 478.302 867.594 478.302C875.481 478.302 875.925 477.881 875.925 471.972C875.925 467.107 875.059 465.729 871.749 465.729C869.505 465.729 867.594 464.774 867.594 463.641C867.594 462.508 870.46 461.553 874.015 461.553C880.346 461.553 880.346 461.642 879.746 471.439C879.124 481.436 879.124 481.435 866.994 482.035L854.932 482.635L855.443 455.91L856.043 429.098L869.15 428.498C882.167 427.81 882.167 427.809 882.167 416.435C882.167 404.972 882.167 404.973 870.727 404.973C859.175 404.973 859.175 404.972 859.175 414.435C859.175 423.81 859.175 423.811 867.506 423.811C875.481 423.811 875.925 423.456 875.925 417.569C875.925 412.704 874.97 411.303 871.749 411.303C869.416 411.303 867.506 410.349 867.506 409.238C867.506 408.016 870.371 407.061 873.837 407.061C879.924 407.061 880.079 407.506 880.079 416.525C880.079 425.988 880.079 425.987 867.506 425.987C855.021 425.987 855.021 425.987 855.021 413.391V400.818H886.432L885.899 455.733L885.299 510.758L872.282 511.359C859.175 511.981 859.175 511.98 859.175 523.421C859.175 534.795 859.175 534.795 869.594 534.795C875.414 534.795 880.079 535.75 880.079 536.883C880.079 538.083 878.435 538.882 876.436 538.616C874.459 538.438 868.727 537.927 863.862 537.482H863.951ZM867.594 490.81C872.548 490.81 873.748 491.832 874.459 496.608C875.325 501.917 875.414 501.918 875.659 495.564C875.925 488.989 875.658 488.722 867.594 488.722C859.175 488.722 859.175 488.722 859.619 498.696C859.952 508.582 859.953 508.582 860.73 499.74C861.53 491.499 862.041 490.81 867.594 490.81ZM869.682 499.207C869.682 496.875 868.727 495.053 867.594 495.053C866.461 495.053 865.506 496.875 865.506 499.207C865.506 501.473 866.461 503.383 867.594 503.383C868.727 503.383 869.682 501.473 869.682 499.207ZM882.256 443.759C882.256 432.229 882.256 432.23 870.727 432.23C859.264 432.23 859.264 432.229 859.264 443.759C859.264 455.222 859.264 455.221 870.727 455.221C882.256 455.221 882.256 455.222 882.256 443.759ZM861.352 443.604C861.352 434.052 861.352 434.051 870.194 434.74C879.057 435.339 879.124 435.341 879.746 444.293C880.435 453.135 880.435 453.133 870.882 453.133C861.352 453.133 861.352 453.134 861.352 443.604ZM876.014 443.759C876.014 439.516 874.881 438.472 870.727 438.472C866.55 438.472 865.506 439.516 865.506 443.759C865.506 447.935 866.55 448.98 870.727 448.98C874.881 448.98 876.014 447.935 876.014 443.759ZM867.594 443.759C867.594 442.026 868.972 440.56 870.727 440.56C872.459 440.56 873.837 442.026 873.837 443.759C873.837 445.425 872.459 446.891 870.727 446.891C868.972 446.891 867.594 445.514 867.594 443.759ZM868.106 523.955C869.416 520.045 873.926 519.445 873.926 523.088C873.926 524.91 872.37 526.465 870.549 526.465C868.727 526.465 867.684 525.332 868.106 523.955ZM159.924 520.733C160.013 519.867 161.834 513.025 164.1 505.561C166.366 498.097 167.565 491.41 166.699 490.633C165.833 489.944 160.19 485.412 154.036 480.658L142.84 471.972H157.147C165.055 471.972 172.519 471.283 173.808 470.417C175.03 469.55 178.25 462.419 180.761 454.622C183.36 446.714 185.87 440.738 186.403 441.16C186.825 441.693 189.447 448.535 192.135 456.533L196.978 470.928L213.305 471.617L229.611 472.239L216.771 481.768C202.709 492.187 202.887 491.588 209.484 510.492C213.816 522.91 213.217 523.088 199.843 513.98C193.001 509.381 186.825 505.561 186.137 505.561C185.448 505.561 179.295 509.381 172.43 513.98C165.566 518.645 159.924 521.688 159.924 520.821V520.733ZM751.656 516.668C752.434 513.358 754.344 507.116 755.921 502.607C759.809 491.41 760.075 492.009 747.146 482.213C740.815 477.437 736.128 473.016 736.728 472.327C737.439 471.705 742.548 471.438 748.279 471.705C764.674 472.571 766.406 471.372 771.627 455.133C774.226 447.069 776.914 441.249 777.692 442.116C778.38 442.982 781.157 449.58 783.778 456.688C788.976 470.928 789.399 471.195 810.658 472.483L819.699 473.016L807.37 482.302C795.041 491.588 795.041 491.588 798.862 503.895C804.594 522.377 804.083 523 790.887 513.714C784.289 509.204 778.136 505.472 777.003 505.472C775.87 505.472 770.672 508.582 765.274 512.403C750.279 523.266 750.012 523.332 751.656 516.579V516.668ZM861.352 468.84C861.352 464.863 862.308 461.553 863.418 461.553C864.551 461.553 865.506 464.33 865.506 467.796C865.506 471.284 866.461 474.06 867.594 474.06C868.727 474.06 869.682 472.661 869.682 470.928C869.682 469.195 870.638 467.796 871.749 467.796C872.971 467.796 873.837 469.706 873.837 471.972C873.837 475.26 872.459 476.214 867.594 476.214C861.774 476.214 861.352 475.615 861.352 468.84ZM82.5275 444.803C82.5275 443.603 85.8375 442.738 89.814 442.738C96.1452 442.738 97.1004 442.027 97.1004 437.606C97.1004 433.963 95.812 432.23 92.4132 431.631C89.0365 430.92 89.6362 430.676 94.5012 430.409C101.099 430.142 101.365 430.408 101.365 438.472C101.365 446.892 101.365 446.891 91.902 446.891C86.7038 446.891 82.5275 445.936 82.5275 444.803ZM88.7699 437.428C88.7699 435.696 90.1693 434.318 91.902 434.318C93.6348 434.318 95.0341 435.696 95.0341 437.428C95.0341 439.161 93.6348 440.56 91.902 440.56C90.1693 440.56 88.7699 439.161 88.7699 437.428ZM861.352 413.391C861.352 409.926 862.308 407.061 863.418 407.061C864.551 407.061 865.506 409.482 865.506 412.347C865.506 415.213 866.461 417.569 867.594 417.569C868.727 417.569 869.682 416.614 869.682 415.481C869.682 414.348 870.638 413.391 871.749 413.391C872.971 413.391 873.837 414.792 873.837 416.525C873.837 418.613 871.749 419.634 867.594 419.634C862.041 419.634 861.352 418.945 861.352 413.391ZM75.5074 376.783C76.5515 374.006 88.2589 373.561 163.833 373.561H251.048L256.091 364.719C271.53 337.373 305.807 301.119 333.398 282.792C362.721 263.265 396.576 249.292 431.72 242.361C453.668 238.029 505.917 237.496 526.399 241.405C598.508 255.289 663.242 297.898 700.629 356.211L711.648 373.383L798.351 374.006C865.417 374.517 885.3 375.204 885.899 377.292C886.588 379.292 867.95 379.892 797.13 379.804L707.493 379.648L696.986 362.542C682.413 338.772 642.404 298.942 618.034 283.836C502.785 212.949 354.924 240.628 275.684 347.881C269.02 356.9 261.733 367.764 259.467 372.095L255.291 379.804H164.789C85.1267 379.804 74.3745 379.47 75.4186 376.693L75.5074 376.783ZM79.6618 364.187C80.7059 361.499 91.7244 361.076 161.056 361.076H241.34L251.403 345.881C256.957 337.462 271.352 320.468 283.504 307.961C316.315 274.128 350.415 252.513 393.178 238.628C426.678 227.788 439.451 225.967 483.436 226.055C520.135 226.144 525 226.566 546.259 232.031C584.535 241.85 611.259 254.246 644.137 277.416C666.019 292.855 697.43 325.222 710.625 345.97L719.978 360.809L801.128 360.899C871.837 361.076 882.256 361.41 882.256 364.187C882.256 366.875 871.682 367.319 799.04 367.141L715.824 367.052L704.272 349.192C668.795 294.166 605.173 251.558 535.752 236.363C512.426 231.253 464.353 230.21 439.451 234.208C360.988 247.048 295.211 289.835 253.314 355.434L245.672 367.319H162.012C88.6144 367.319 78.6177 366.963 79.6618 364.187ZM107.608 333.641C102.41 330.176 97.8999 326.533 97.5445 325.489C96.8558 323.489 154.636 236.364 157.946 234.298C159.857 233.165 183.093 247.559 182.938 249.825C182.671 253.469 122.536 339.105 120.026 339.461C118.36 339.727 112.806 337.04 107.608 333.641ZM126.868 327.044C132.422 318.291 132.422 318.29 122.625 311.693L112.806 305.007L107.097 314.204C103.964 319.246 101.365 323.755 101.365 324.355C101.365 325.843 116.627 335.641 119.159 335.729C120.27 335.818 123.758 331.909 126.868 327.044ZM112.206 329.309C104.32 324.267 103.965 322.112 110.207 314.559C114.983 308.916 114.983 308.916 121.492 314.559C128.09 320.201 128.09 320.201 123.491 326.888C118.893 333.486 118.893 333.486 112.206 329.309ZM121.048 324.111C121.848 322.112 120.803 318.891 118.804 316.647C115.25 312.826 115.161 312.826 112.562 317.513C110.296 321.579 110.473 322.712 113.339 324.889C117.938 328.355 119.493 328.176 121.048 324.111ZM114.294 321.068C114.716 319.847 115.938 318.801 117.071 318.801C118.115 318.801 119.404 319.847 119.759 321.068C120.181 322.379 118.982 323.334 117.071 323.334C115.161 323.334 113.85 322.379 114.294 321.068ZM141.796 305.272C145.017 299.897 146.839 294.943 145.795 294.255C137.375 288.523 128.268 283.236 127.823 283.836C127.557 284.28 124.78 288.101 121.67 292.344C118.537 296.587 116.027 300.497 116.027 301.03C116.027 302.229 133.11 315.004 134.776 315.004C135.376 315.004 138.597 310.56 141.796 305.272ZM125.824 305.451C119.937 300.32 119.937 300.319 124.358 294.077C129.734 286.524 130.089 286.524 137.464 292.522C143.196 297.209 143.196 297.209 138.842 303.963C133.555 312.138 133.377 312.137 125.824 305.54V305.451ZM136.931 299.275C136.931 297.809 135.376 295.388 133.555 293.899C130.689 291.478 129.733 291.655 127.312 295.032C124.78 298.408 124.869 299.542 127.823 302.763C131.466 306.828 136.931 304.762 136.931 299.275ZM129.911 300.942C127.557 298.587 128.445 296.165 131.733 296.165C133.377 296.165 134.865 297.032 134.865 298.165C134.865 300.764 131.555 302.675 129.911 300.942ZM156.547 283.658C159.59 279.06 162.012 274.55 162.012 273.683C162.012 272.306 149.616 263.11 144.928 260.933C144.217 260.577 140.663 264.575 137.109 269.685L130.6 279.149L139.552 285.479C144.395 288.967 148.994 291.833 149.704 291.833C150.482 291.9 153.503 288.168 156.547 283.658ZM140.575 283.058C134.865 278.371 134.865 278.371 139.286 271.507C144.484 263.443 145.44 263.265 152.815 269.618C158.546 274.55 158.546 274.55 154.636 281.147C149.949 289.056 148.216 289.3 140.575 283.058ZM151.682 279.237C155.081 272.817 148.127 267.708 142.663 272.551C139.197 275.683 139.197 276.128 142.485 279.771C146.995 284.703 148.816 284.613 151.682 279.237ZM143.196 277.683C143.196 274.729 145.528 273.35 148.66 274.55C150.215 275.172 151.082 276.46 150.393 277.504C148.905 279.926 143.196 280.016 143.196 277.683ZM173.119 259.289C176.34 253.98 178.761 249.47 178.428 249.226C178.073 249.048 173.652 246.27 168.609 242.961C161.234 238.273 159.057 237.674 157.591 239.94C149.527 252.069 147.083 256.756 148.128 257.801C151.26 260.933 163.322 268.73 165.233 268.818C166.366 268.907 169.92 264.576 173.119 259.289ZM155.325 260.4C151.349 257.379 150.216 255.379 151.593 253.646C152.726 252.247 155.414 248.871 157.502 246.094C161.323 241.051 161.323 241.051 167.921 246.004C174.607 250.869 174.607 250.869 170.786 257.289C166.188 265.264 162.634 265.953 155.325 260.4ZM168.009 256.156C169.476 253.734 170.431 251.647 170.097 251.38C169.653 251.136 167.743 249.736 165.744 248.27C162.545 245.826 161.59 246.093 158.102 250.336C154.459 254.846 154.459 255.468 157.591 257.801C162.545 261.533 164.877 261.199 168.009 256.156ZM160.812 255.646C159.057 250.959 161.412 248.604 164.611 251.825C166.521 253.736 166.521 254.846 164.611 256.757C162.789 258.578 161.834 258.334 160.812 255.646ZM809.103 293.722L777.603 247.316L786.555 242.094C791.398 239.228 797.041 235.496 799.04 233.764C801.128 232.031 803.128 230.987 803.55 231.431C805.638 233.675 865.506 323.4 865.506 324.355C865.506 325.666 844.069 340.15 842.092 340.15C841.292 340.15 826.453 319.246 809.103 293.722ZM851.977 330.443C856.576 327.311 860.641 324.622 860.997 324.267C861.441 323.934 858.753 319.335 855.088 314.048C848.579 304.495 848.512 304.496 842.869 307.784C828.63 316.292 828.808 315.869 835.405 326.443C838.693 331.664 841.914 335.997 842.514 335.997C843.114 335.997 847.379 333.486 851.977 330.443ZM838.093 325.155C833.406 318.557 833.406 318.557 839.471 313.692C847.379 307.361 848.068 307.451 853.021 315.515C857.176 322.379 857.176 322.379 851.445 327.044C843.98 333.042 843.647 333.041 838.093 325.155ZM848.579 325.155C851.8 323.067 852.155 321.757 850.333 317.78C847.801 312.227 847.024 312.049 841.825 315.936C838.604 318.38 838.427 319.424 840.781 323.245C843.98 328.354 843.558 328.265 848.579 325.155ZM843.913 322.023C841.47 319.602 842.336 317.069 845.646 317.069C847.379 317.069 848.757 318.557 848.757 320.29C848.757 323.489 846.335 324.444 843.913 322.023ZM837.738 307.095L846.513 301.186L840.337 291.899C836.961 286.79 833.495 282.548 832.54 282.548C829.94 282.548 815.346 292.944 815.257 294.766C815.257 296.854 826.364 312.827 827.852 312.916C828.363 312.916 832.873 310.316 837.738 307.095ZM825.764 307.872C825.764 307.45 828.541 305.273 832.007 303.096C837.827 299.364 838.093 298.853 835.139 294.676C832.54 290.878 831.318 290.611 826.986 292.699C822.21 294.943 822.121 295.388 825.164 298.764C826.986 300.852 827.852 303.184 826.986 304.051C825.253 305.784 819.433 298.852 819.433 295.032C819.433 293.721 822.032 291.389 825.253 289.745C828.363 288.168 831.585 286.613 832.273 286.191C833.051 285.836 835.583 288.879 837.916 292.855C842.248 300.231 842.247 300.23 836.272 304.496C830.896 308.405 825.764 310.049 825.764 307.872ZM828.808 298.165C828.03 296.943 827.941 295.388 828.541 294.766C830.03 293.3 834.095 295.899 834.095 298.409C834.095 301.119 830.54 300.942 828.808 298.165ZM821.61 284.369C826.208 281.326 829.94 278.282 829.94 277.594C829.94 276.905 827.319 272.395 824.12 267.53L818.3 258.755L808.503 264.931L798.685 270.996L804.327 280.37C807.459 285.569 810.747 289.834 811.614 289.834C812.569 289.834 817.011 287.39 821.61 284.369ZM807.282 278.971C804.949 275.328 803.46 271.507 804.082 270.641C805.282 268.664 817.612 262.065 818.211 263.021C827.497 277.416 827.586 278.372 819.611 282.548C811.613 286.613 812.236 286.791 807.282 278.971ZM819.522 278.282C823.52 273.506 817.256 267.442 811.103 270.219C807.104 271.952 807.015 272.396 810.147 276.817C814.057 282.37 815.879 282.614 819.522 278.282ZM812.235 275.416C810.658 272.906 814.657 270.397 817.434 272.129C819.789 273.596 818.211 277.327 815.257 277.327C814.235 277.327 812.924 276.46 812.235 275.416ZM806.926 261.354C815.879 255.467 815.879 254.69 806.415 241.228C802.417 235.407 802.417 235.408 793.131 241.85C788.022 245.404 783.845 248.693 783.845 249.226C783.845 251.559 795.042 266.842 796.774 266.842C797.73 266.842 802.328 264.398 806.859 261.354H806.926ZM792.02 257.112C787.488 249.736 787.488 249.737 793.486 244.783C801.372 238.363 801.55 238.363 806.771 246.693C812.324 255.735 812.413 255.201 803.905 260.244C796.618 264.487 796.618 264.487 792.02 257.112ZM804.505 255.734C806.149 253.735 805.904 251.736 803.461 248.27C800.44 243.827 799.995 243.739 796.263 247.138C793.309 249.826 792.886 251.559 794.53 254.602C796.952 259.2 801.217 259.622 804.505 255.734ZM797.485 254.335C796.618 252.958 796.952 250.958 798.085 249.736C799.484 248.358 800.684 248.514 801.639 250.181C802.506 251.469 802.261 253.557 801.128 254.69C799.728 256.067 798.529 255.979 797.485 254.335ZM653.956 263.709C639.627 253.824 627.653 244.627 627.32 243.138C626.965 241.583 631.741 233.431 637.895 224.834C644.048 216.326 660.287 193.755 673.905 174.761C687.611 155.768 699.074 139.796 699.429 139.351C700.384 138.152 721.022 152.458 721.022 154.279C721.022 155.146 707.849 174.251 691.787 196.71C675.637 219.28 662.464 238.541 662.464 239.674C662.464 240.718 669.484 246.36 678.17 252.247C686.744 258.067 693.875 263.531 693.875 264.309C693.875 266.841 683.368 281.504 681.635 281.504C680.769 281.504 668.262 273.506 653.956 263.709ZM280.904 272.639C271.619 258.244 216.504 168.609 216.504 167.831C216.504 165.477 238.119 154.014 240.207 155.235C241.584 156.102 256.091 166.943 272.485 179.45C288.88 191.935 302.342 201.576 302.342 200.976C302.342 200.265 293.834 187.003 283.415 171.475C272.996 155.836 263.977 141.884 263.377 140.307C262.066 136.842 280.993 123.225 283.504 125.824C287.236 129.822 352.569 229.699 352.569 231.431C352.569 232.476 348.06 236.542 342.595 240.54C330.888 249.137 335.819 251.291 292.967 219.013C276.639 206.773 265.11 199.309 266.931 202.086C283.948 228.566 304.408 262.399 304.408 263.977C304.408 265.709 287.591 277.327 285.059 277.327C284.459 277.327 282.637 275.238 280.904 272.639ZM601.107 232.12C591.044 228.988 591.044 228.989 592.421 214.86C593.821 200.62 593.821 200.62 583.668 197.333C578.026 195.511 572.028 193.422 570.295 192.733C568.118 191.867 565.43 194.466 561.454 201.397C551.99 218.058 553.545 217.281 540.194 212.171C532.819 209.306 528.643 206.617 529.243 204.951C529.865 203.574 543.66 181.36 559.966 155.591C576.382 129.888 591.999 105.341 594.687 101.098C599.552 93.3673 599.552 93.3669 612.637 97.6988C619.945 100.054 626.61 102.831 627.654 103.697C629.298 105.163 627.832 126.001 619.234 221.368C617.768 237.252 617.768 237.252 601.107 232.12ZM597.641 175.272C597.641 174.406 599.019 164.254 600.663 152.814C602.396 141.262 603.706 130.843 603.706 129.733C603.795 128.6 600.152 134.242 595.731 142.306C591.288 150.37 585.668 160.278 583.224 164.255C578.715 171.63 578.715 171.63 585.49 174.074C593.643 177.028 597.553 177.361 597.641 175.272ZM367.675 215.038C366.365 209.551 359.523 181.626 352.569 152.991C345.55 124.268 340.596 100.232 341.462 99.3434C342.417 98.5659 357.168 94.412 374.362 90.0801C398.731 83.9045 405.862 82.7711 407.151 84.9481C409.417 88.6802 411.749 101.698 410.283 103.075C409.683 103.697 400.997 106.385 391.112 109.073C381.137 111.672 372.629 114.272 372.096 114.716C371.23 115.672 376.605 140.84 378.005 142.218C378.427 142.662 386.335 141.262 395.532 139.107C404.729 136.93 412.46 135.109 412.705 135.021C413.926 134.843 417.658 152.459 416.792 154.636C416.348 156.013 408.728 158.789 399.953 160.877C391.201 162.965 383.981 165.299 383.981 165.987C383.981 166.787 385.558 174.251 387.468 182.648C390.245 194.467 391.8 197.577 394.311 196.888C423.812 188.557 432.675 186.913 434.319 189.512C437.096 193.933 438.829 206.529 437.007 208.44C435.186 210.261 378.183 225.011 373.051 225.011C371.23 225.011 369.141 221.191 367.675 215.038ZM452.979 205.396C452.291 204.707 456.978 108.296 459.222 77.6617C459.489 74.6183 507.65 77.4834 515.891 81.0378C530.731 87.369 536.796 98.477 536.796 118.959C536.796 128.334 535.507 134.576 532.108 141.174C524.911 155.324 518.58 158.879 499.053 159.745C482.57 160.523 482.57 160.522 481.437 169.208C480.748 173.984 480.059 184.048 479.793 191.512C479.259 205.129 479.26 205.129 466.597 205.751C459.666 205.996 453.49 205.906 452.979 205.306V205.396ZM505.384 134.931C508.694 131.732 509.649 128.001 509.649 118.36C509.649 103.787 505.651 99.3434 492.366 99.3434C484.48 99.3434 484.48 99.3432 484.48 112.716C484.48 120.092 483.947 129.022 483.169 132.599C481.881 139.175 481.881 139.174 491.5 139.174C498.453 139.174 502.43 137.975 505.384 134.931ZM490.811 773.003C490.9 770.404 493.077 759.296 495.676 748.344C499.919 730.128 500.786 728.484 505.651 727.862C510.693 727.262 511.115 728.129 515.625 747.745C518.135 759.03 520.845 770.471 521.445 773.181C522.489 777.335 521.956 777.934 517.713 777.334C514.425 776.89 512.515 775.069 512.071 771.959C511.027 765.095 501.741 765.449 499.142 772.469C496.654 779.045 490.767 779.423 490.811 773.003ZM507.916 751.566C506.872 742.969 504.184 743.502 502.874 752.522C502.185 757.387 502.696 758.852 505.295 758.852C507.983 758.852 508.516 757.297 507.916 751.566ZM367.253 672.171V672.082C367.386 668.772 374.473 636.939 376.961 628.43C377.65 625.92 379.649 624.876 382.603 625.209C386.424 625.831 387.802 628.696 391.534 643.691C399.176 674.858 399.264 675.459 393.888 674.77C390.845 674.237 388.934 672.327 388.512 669.394C387.557 662.441 378.182 662.796 376.45 669.816C375.05 675.436 367.342 677.347 367.253 672.171ZM385.203 652.977C384.514 651.156 383.914 647.602 383.914 645.091C383.914 641.448 383.47 641.181 381.826 643.691C378.605 648.734 379.294 656.287 383.115 656.287C385.38 656.287 386.069 655.154 385.203 652.977ZM82.5275 410.282V410.193C82.5275 401.151 82.8164 400.818 88.7699 400.818C92.2576 400.818 95.0341 401.773 95.0341 402.906C95.0341 404.017 93.2127 404.973 90.858 404.973C87.6591 404.973 86.7036 406.372 86.7036 411.303C86.7036 417.212 87.1257 417.569 95.0341 417.569C103.453 417.569 103.453 417.568 103.453 407.061C103.453 401.329 104.387 396.642 105.52 396.642C106.653 396.642 107.608 401.774 107.608 408.105C107.608 419.634 107.608 419.634 95.0341 419.634C82.5716 419.634 82.5275 419.635 82.5275 410.282Z" fill="#25549A"/>
</svg>
