<svg width="955" height="955" viewBox="0 0 955 955" fill="none" xmlns="http://www.w3.org/2000/svg">
<path fill-rule="evenodd" clip-rule="evenodd" d="M424.407 952.619C386.497 947.96 368.933 943.755 362.336 937.653C359.182 934.581 356.77 930.953 357.1 929.592C357.657 926.85 356.049 926.685 350.339 928.953C347.844 929.922 346.628 928.953 345.659 925.16C345.02 922.336 343.639 920.089 342.691 920.089C341.722 920.089 340.918 918.728 340.918 917.1C340.918 914.049 343.248 913.245 345.577 915.574C346.298 916.296 347.989 917.1 349.287 917.265C350.648 917.512 362.254 920.006 375.22 922.913C415.151 931.922 441.002 934.272 488.271 933.22C534.983 932.169 562.195 928.458 598.992 918.069C644.9 905.184 690.149 884.653 728.802 859.132C743.458 849.463 749.663 846.413 751.189 847.938C752.405 849.154 754.013 849.464 754.817 848.66C755.621 847.856 755.126 846.495 753.848 845.691C752.323 844.722 759.311 837.548 774.215 824.829C786.79 814.192 802.004 799.947 808.126 793.103C816.496 783.682 820.124 780.941 822.928 781.827C824.948 782.466 827.607 783.105 828.823 783.353C832.431 783.847 832.121 787.228 828.019 791.887C825.916 794.299 825.03 796.319 826.164 796.319C827.195 796.319 828.081 797.927 828.081 799.947C828.081 804.462 821.237 810.894 818.351 809.203C817.217 808.399 816.331 809.533 816.331 811.698C816.331 816.934 810.703 821.613 808.518 818.067C807.549 816.46 806.519 816.295 805.694 817.573C805.055 818.624 805.55 819.923 806.828 820.315C808.209 820.809 808.436 822.17 807.549 823.695C806.271 825.716 805.694 825.715 804.251 823.53C802.973 821.448 802.56 821.531 802.56 824.025C802.56 827.406 788.316 841.506 784.935 841.506C783.801 841.506 782.915 842.372 782.915 843.424C782.915 844.475 778.4 848.907 772.855 853.256C765.207 859.297 762.135 860.74 760.198 859.132C758.281 857.524 757.064 857.998 755.374 861.152C754.157 863.482 751.993 864.924 750.55 864.368C749.169 863.873 747.087 864.368 745.87 865.563C744.345 867.027 742.902 866.945 740.717 865.172C738.14 862.987 737.748 863.316 737.748 867.419C737.748 872.345 736.944 872.737 725.503 873.067C722.122 873.15 719.793 874.51 718.969 877.005C718.33 879.107 716.082 881.684 713.98 882.797C711.65 884.096 710.207 886.92 710.207 890.384C710.207 895.29 708.434 896.733 690.067 905.844C644.818 928.294 597.713 943.115 547.146 950.598C518.718 954.886 451.721 955.917 424.407 952.619ZM372.314 934.663C372.314 931.2 368.129 931.757 366.913 935.385C366.521 936.684 367.49 937.714 369.263 937.714C370.953 937.714 372.314 936.354 372.314 934.663ZM739.666 859.214C739.666 858.08 738.779 857.194 737.748 857.194C736.614 857.194 735.728 858.08 735.728 859.214C735.728 860.265 736.614 861.152 737.748 861.152C738.779 861.152 739.666 860.265 739.666 859.214ZM311.439 925.882C244.833 900.691 187.195 863.152 136.133 811.78C113.581 789.084 107.314 780.611 113.024 780.611C114.158 780.611 115.044 779.168 115.044 777.478C115.044 775.375 113.911 774.736 111.89 775.457C110.2 776.117 107.541 775.457 106.015 773.932C104.572 772.406 102.16 770.716 100.779 770.221C99.0062 769.664 99.3358 768.304 102.077 765.15C104.964 761.934 105.128 760.965 102.964 760.965C101.356 760.965 99.0888 761.934 97.955 763.068C96.4295 764.676 95.3778 764.593 94.347 762.903C93.5431 761.625 94.0176 759.852 95.3781 759.048C96.6769 758.162 97.2334 756.533 96.4294 755.337C94.8214 752.596 96.4291 752.513 101.273 755.09C103.685 756.389 105.376 756.389 106.18 755.09C106.819 753.956 106.015 752.596 104.325 751.874C102.634 751.318 101.273 749.38 101.273 747.772C101.273 744.309 91.688 735.444 87.9773 735.444C86.2869 735.444 85.8951 737.052 86.6166 740.124C88.0596 745.999 84.3494 748.803 82.494 743.175C81.7725 740.928 80.7417 739.547 80.082 740.186C79.443 740.845 76.4537 737.609 73.4852 733.115C69.4654 726.992 68.6613 724.416 70.3517 723.282C72.0421 722.231 71.7123 721.756 69.3004 721.756C65.3424 721.674 64.7034 718.54 68.3316 717.077C70.2694 716.273 70.2694 715.716 68.2492 714.356C66.7237 713.222 66.3115 711.037 67.198 708.79C68.5791 705.162 68.4964 705.162 65.1156 708.46C63.2603 710.315 61.2401 711.841 60.6836 711.841C59.0756 711.841 36.9975 664.51 30.4833 646.946C15.9913 607.964 5.18911 564.962 9.22956 562.158C11.3116 560.695 11.3115 560.056 9.39439 559.334C8.09567 558.778 6.96226 557.005 6.96226 555.397C6.96226 553.851 7.84857 553.047 8.89991 553.768C10.0337 554.428 10.92 554.016 10.92 552.903C10.92 551.769 9.39451 550.8 7.45674 550.717C4.38517 550.717 4.46784 550.326 7.93109 547.749C11.3119 545.172 11.3943 544.513 8.89991 542.905C7.29198 541.853 5.4366 541.049 4.7151 540.967C2.77733 540.967 1.58153 529.546 3.27192 526.804C4.07589 525.506 3.74603 523.094 2.46793 521.568C-1.40761 516.971 -0.520943 437.008 3.74627 409.405C18.898 310.352 59.3025 226.286 128.402 150.177C156.108 119.667 216.571 71.8416 223.827 74.6452C225.909 75.4491 226.961 74.7277 226.961 72.6456C226.961 69.1823 230.032 68.4607 231.887 71.5116C233.495 74.0884 237.041 71.9033 236.382 68.8524C235.825 66.4405 236.959 65.554 240.814 65.554C241.948 65.554 242.339 66.4406 241.7 67.5744C241.061 68.6051 241.535 69.4915 242.751 69.4915C244.194 69.4915 244.607 67.7186 243.885 64.5852C242.669 59.9881 244.029 59.019 268.684 47.1038C336.321 14.4092 400.267 -0.000113793 477.407 -0.000113793C524.099 -0.000113793 547.62 2.57641 587.406 11.9148C642.633 24.8814 726.142 61.4518 722.514 71.0376C721.483 73.9236 721.71 74.0884 724.37 71.9032C726.864 69.8211 727.668 69.9862 728.719 72.728C729.441 74.6451 728.884 76.8301 727.441 77.7165C725.75 78.7679 726.39 79.3245 729.606 79.3245C732.904 79.3245 733.873 78.5204 733.069 76.3353C731.296 71.7589 739.995 76.8302 762.547 93.7342C794.521 117.647 837.276 158.794 836.616 165.081C836.554 166.524 837.11 167.246 837.997 166.689C838.883 166.132 840.161 166.607 840.821 167.74C841.542 168.874 840.738 170.235 838.966 170.874C837.275 171.534 835.894 173.059 835.894 174.172C835.894 175.306 836.554 175.718 837.193 174.976C838.553 173.615 845.727 181.016 845.727 183.758C845.727 184.644 843.398 185.448 840.574 185.448C835.585 185.448 835.503 185.613 838.554 188.994C840.326 191.014 841.852 193.673 841.852 194.869C841.852 196.168 842.656 197.219 843.79 197.219C844.841 197.219 845.727 196.168 845.727 194.869C845.727 193.673 846.367 193.179 847.006 193.9C847.748 194.56 847.088 196.559 845.645 198.25C843.48 200.909 843.542 201.713 845.892 203.259C847.418 204.208 847.748 205.032 846.449 205.032C845.233 205.032 841.708 201.713 838.636 197.693C835.585 193.673 826.638 183.119 818.743 174.254C808.436 162.752 804.828 157.268 805.694 154.609C806.581 151.785 806.436 151.64 804.828 153.887C803.199 156.134 800.231 154.217 788.872 143.498C769.392 125.151 748.056 108.391 724.534 93.0126C713.423 85.8387 705.053 79.1596 705.857 78.3557C706.661 77.4692 706.249 77.3042 705.053 78.0257C703.755 78.7678 690.067 73.2019 674.606 65.7188C631.521 44.9394 593.92 33.1893 544.239 24.9641C514.039 20.0578 441.332 20.0577 410.637 25.0465C306.121 41.9504 222.776 85.0349 149.182 160.257C82.6587 228.224 40.7904 311.403 25.5769 406.416C21.2272 433.07 19.6195 497.491 22.588 523.506C41.1205 685.598 135.968 820.232 280.764 889.806C295.257 896.815 303.874 902.051 304.595 904.546C305.317 906.566 306.677 908.339 307.646 908.339C310.388 908.339 309.914 904.875 307.007 903.742C305.482 903.103 305.399 902.69 306.76 902.525C308.059 902.463 314.655 904.546 321.499 907.122C332.054 911.08 334.074 912.606 334.383 916.791C334.796 921.779 334.713 921.779 331.002 917.986C328.92 915.904 325.601 914.296 323.766 914.461C320.612 914.606 320.613 914.771 323.911 915.574C326.57 916.296 327.23 917.677 326.406 921.058C325.602 924.026 326.179 925.964 328.178 926.685C329.807 927.345 331.085 926.933 331.085 925.799C331.085 924.686 332.445 925.078 334.074 926.685C337.599 930.231 337.846 933.86 334.548 933.777C333.188 933.695 322.798 930.149 311.439 925.882ZM317.314 918.729C317.314 914.771 316.758 913.967 315.15 915.657C313.851 916.873 313.459 919.203 314.098 920.893C315.871 925.655 317.314 924.604 317.314 918.729ZM127.681 774.571C127.042 773.54 125.661 773.21 124.692 773.849C123.661 774.509 123.331 775.787 123.97 776.838C124.609 777.89 125.908 778.199 126.959 777.56C127.99 776.921 128.32 775.54 127.681 774.571ZM720.824 77.3044C722.04 77.3044 721.71 76.5005 720.185 75.5316C715.588 72.6455 710.125 77.2219 712.866 81.6541C715.031 85.1173 715.196 85.1173 716.886 81.3449C717.855 79.1597 719.628 77.3044 720.824 77.3044ZM712.207 67.4092C712.207 65.2241 711.32 63.9461 710.207 64.5852C709.156 65.2242 708.269 67.0793 708.269 68.6048C708.269 70.2127 709.156 71.4292 710.207 71.4292C711.32 71.4292 712.207 69.6562 712.207 67.4092ZM438.178 920.811C417.336 918.646 387.61 913.575 374.334 909.947C345.02 901.969 333.023 898.341 333.023 897.537C333.023 897.063 334.713 895.764 336.795 894.651C339.619 893.105 343.969 893.682 353.637 896.65C404.926 912.441 474.583 918.233 531.108 911.225C676.709 893.187 805.385 801.308 869.083 669.808C911.591 582.113 924.083 482.277 904.355 386.77C893.388 333.296 871.33 280.873 840.821 235.459C771.247 131.995 662.361 63.3069 539.251 45.1043C416.285 26.9841 291.876 62.8949 194.513 144.796C113.581 212.824 63.0956 302.704 44.893 410.93C39.5744 442.738 40.0691 515.693 45.8618 547.893C56.6638 607.881 77.2783 661.273 109.561 713.222C121.476 732.455 123.806 737.382 121.311 738.351C119.621 738.99 117.765 738.825 117.126 737.939C82.8237 692.051 53.7573 625.28 41.4297 564.241C12.2808 418.97 57.3028 268.628 161.18 164.834C323.519 2.49424 578.459 -11.6681 756.343 131.747C917.878 262.031 967.085 485.967 875.351 673.518C852.077 721.2 818.908 766.923 784.213 799.391C716.474 862.76 637.561 901.886 547.146 917.182C529.108 920.171 455.741 922.666 438.178 920.811ZM451.227 908.256C452.752 903.659 485.447 865.254 487.549 865.646C489.879 866.058 525.562 904.463 525.562 906.566C525.562 908.421 501.072 910.256 474.83 910.256C459.122 910.256 450.835 909.534 451.227 908.256ZM509.854 900.835C509.854 899.948 507.277 896.733 504.061 893.682C498.66 888.528 497.609 888.281 486.91 889.58C476.273 890.858 466.605 896.176 466.605 900.773C466.605 901.639 476.356 902.381 488.271 902.381C500.104 902.381 509.854 901.639 509.854 900.835ZM490.209 878.447C490.209 875.871 485.777 877.499 484.725 880.385C484.334 881.849 485.138 882.323 487.055 881.602C488.828 880.88 490.209 879.499 490.209 878.447ZM410.162 876.365C394.145 847.216 391.96 844.227 385.198 841.65C378.911 839.239 377.22 839.239 373.612 841.568C338.733 863.955 314.181 878.386 312.882 877.169C311.439 875.644 302.266 839.404 297.751 817.346C295.731 807.431 294.535 805.493 289.217 802.916C283.259 800.112 281.486 800.422 249.987 809.925C231.888 815.408 215.602 819.923 213.912 819.923C211.273 819.923 211.108 815.573 212.304 782.549C214.242 732.868 217.952 736.661 169.632 738.495C139.04 739.629 132.587 739.382 131.701 737.135C131.144 735.692 135.576 719.901 141.534 702.111C147.491 684.32 152.315 669.169 152.315 668.447C152.315 667.726 149.017 666.509 144.997 665.705C130.979 663.211 88.472 652.821 83.8749 650.883C78.7213 648.636 76.536 652.265 106.51 613.2C120.589 594.853 120.589 594.853 118.342 586.545C116.157 578.258 116.158 578.258 99.8926 578.258C90.8841 578.258 83.5453 578.671 83.5453 579.227C83.5453 579.784 88.8639 582.855 95.3781 586.154C101.831 589.37 107.149 592.751 107.149 593.555C107.149 594.276 99.8927 603.614 91.1109 614.252C78.5566 629.383 74.7015 632.928 73.4028 630.599C71.7124 627.548 59.5497 587.844 57.3027 578.094C56.1689 572.94 56.1691 572.94 81.1333 571.744C118.178 569.807 122.837 569.971 122.837 573.187C122.837 574.63 126.382 586.628 130.814 599.842C154.006 670.137 198.389 728.93 264.335 777.003C348.793 838.517 465.327 860.266 568.317 833.776C690.314 802.442 790.645 706.77 825.999 588.092C828.411 580.031 830.658 572.383 830.988 571.25C832.039 567.786 854.097 570.116 857.23 573.991C864.322 583 885.019 613.612 885.019 615.22C885.019 616.746 845.645 628.661 821.649 634.392C818.021 635.278 814.888 638.082 812.621 642.597C809.095 649.441 809.095 649.44 821.814 682.465C828.823 700.647 833.977 716.933 833.318 718.623C831.71 722.725 822.927 722.478 820.206 718.211C818.66 715.881 818.269 715.716 818.825 717.819C819.629 720.396 815.692 720.87 791.057 721.344C750.467 722.148 752.467 719.571 756.178 767.974C757.786 788.424 758.507 805.823 757.703 806.544C756.982 807.266 744.901 804.854 730.822 801.081C688.706 789.723 685.8 789.228 680.481 792.774C676.461 795.433 674.853 800.586 668.174 833.364C663.969 854.061 659.701 870.965 658.753 870.965C657.784 870.965 643.292 862.987 626.533 853.256C596.25 835.775 589.179 833.198 584.17 838.187C582.727 839.651 574.522 855.112 565.905 872.572C556.711 891.414 549.146 904.381 547.538 904.381C546.012 904.381 533.602 892.878 519.914 878.777C495.919 854.143 494.867 853.256 486.91 853.256C482.396 853.256 478.438 854.06 478.128 855.029C476.995 857.833 430.612 908.256 429.169 908.256C428.365 908.256 419.831 893.908 410.162 876.365ZM461.06 862.595L468.955 853.256H461.287C454.133 853.256 452.834 854.226 443.187 866.306L432.715 879.334L424.654 863.955C418.058 851.484 415.481 848.268 410.719 847.052C403.236 845.114 402.349 846.33 405.977 852.844C407.668 855.834 413.79 866.862 419.666 877.417L430.302 896.65L441.723 884.343C448.011 877.499 456.71 867.749 461.06 862.595ZM560.03 866.78C571.863 843.259 572.584 841.094 568.482 842.228C565.905 842.867 562.442 843.424 560.669 843.424C558.649 843.424 555.351 848.659 551.166 858.719C547.703 867.109 544.239 874.51 543.518 875.314C542.858 876.036 537.56 870.964 531.83 863.955C522.244 852.288 520.8 851.319 513.647 851.319C509.359 851.319 505.917 851.958 505.917 852.762C505.917 854.617 543.683 892.548 545.518 892.548C546.322 892.548 552.856 880.963 560.03 866.78ZM343.639 851.236C367.078 836.827 367.078 836.827 359.904 834.415C352.833 831.92 352.421 832.065 338.486 841.733L324.241 851.484L320.942 835.301C318.613 823.468 316.593 818.15 313.377 815.573C304.512 808.399 303.874 810.894 308.862 832.147C315.871 862.121 317.397 867.275 318.922 866.388C319.644 865.893 330.838 859.132 343.639 851.236ZM443.022 853.092C443.022 851.731 429.004 849.072 427.87 850.185C427.479 850.515 428.674 854.061 430.612 857.998C433.993 865.172 433.993 865.172 438.425 859.688C440.919 856.72 442.939 853.731 443.022 853.092ZM544.796 852.762C547.29 846.969 546.898 846.722 537.643 848.577C531.52 849.876 531.52 849.876 535.705 855.668C540.055 861.791 541.106 861.461 544.796 852.762ZM657.207 847.856C658.506 841.651 661.165 829.096 663.165 820.005C665.185 810.811 666.546 803.081 666.154 802.689C665.824 802.359 662.855 803.658 659.639 805.493C654.713 808.317 653.27 810.894 651.497 819.675C650.281 825.551 649.332 832.23 649.332 834.497C649.25 844.145 646.426 844.228 632.243 834.807C618.885 825.881 618.555 825.798 611.072 828.375C603.589 830.952 603.589 830.952 620.018 840.538C629.109 845.774 640.056 852.04 644.406 854.617C648.755 857.112 652.857 859.132 653.599 859.132C654.321 859.214 656.012 854.143 657.29 847.856H657.207ZM337.207 833.116C343.247 828.684 343.247 828.684 335.682 825.386C331.559 823.613 327.951 822.417 327.539 822.726C326.653 823.613 329.312 837.548 330.446 837.548C330.837 837.548 333.909 835.611 337.207 833.116ZM642.241 826.602C642.88 824.912 643.437 821.448 643.437 818.871C643.437 814.357 643.292 814.357 637.005 817.429C628.141 821.696 628.141 821.696 633.624 825.88C639.582 830.457 640.715 830.539 642.241 826.602ZM252.337 800.916C274.807 793.99 274.807 793.99 268.52 790.032C262.315 786.094 262.315 786.095 246.607 791.578C237.99 794.546 230.589 796.649 230.115 796.154C229.62 795.68 230.197 788.115 231.393 779.333C233.496 763.315 233.496 763.315 227.765 758.389C224.631 755.647 221.972 753.564 221.807 753.729C221.725 753.956 220.921 766.778 220.117 782.301C218.509 814.996 214.406 812.666 252.337 800.999V800.916ZM748.695 770.303C747.973 754.925 746.674 741.649 745.87 740.763C744.984 739.959 742.325 741.402 739.913 744.061C735.646 748.576 735.481 749.545 737.254 766.201C738.305 775.705 738.944 783.765 738.862 783.93C738.697 784.157 731.378 782.074 722.597 779.333C706.909 774.426 706.496 774.426 701.59 777.952C698.848 779.972 696.601 782.157 696.519 782.796C696.519 783.435 708.187 787.063 722.514 790.836C736.779 794.629 748.86 797.845 749.334 798.01C749.746 798.175 749.498 785.682 748.695 770.303ZM247.823 782.466C253.224 780.467 253.224 780.466 247.987 775.23C242.112 769.273 241.226 769.582 239.535 778.282C238.154 785.126 239.288 785.682 247.823 782.466ZM729.688 769.355C729.523 767.418 728.884 763.954 728.162 761.625C726.946 757.337 726.946 757.337 721.318 762.181C715.113 767.582 715.113 767.809 722.04 770.551C728.966 773.293 729.853 773.128 729.688 769.355ZM181.155 729.817C197.172 728.518 197.173 728.518 192.658 723.364C188.226 718.128 188.082 718.128 171.961 719.901C163.035 720.952 155.222 721.344 154.727 720.787C154.171 720.231 156.5 713.057 159.881 704.77C165.839 690.195 165.921 689.536 162.705 684.073C160.85 681.001 158.85 678.424 158.191 678.424C157.304 678.424 146.358 710.315 141.534 727.075C140.318 731.342 140.73 731.507 152.727 731.342C159.489 731.177 172.291 730.538 181.155 729.817ZM824.144 712.335C824.226 709.676 805.632 660.799 804.581 660.799C803.942 660.799 802.169 663.211 800.478 666.2C797.489 671.354 797.654 672.302 803.777 686.815L810.291 702.028H793.944C780.812 702.028 777.039 702.667 774.71 705.491C767.536 713.778 767.619 713.779 796.52 713.779C811.734 713.779 824.144 713.139 824.144 712.335ZM179.774 709.346C179.692 706.769 172.291 697.04 171.322 698.318C170.353 699.699 166.086 710.088 166.086 710.954C166.086 711.449 169.158 711.841 172.93 711.841C177.197 711.841 179.774 710.892 179.774 709.346ZM795.325 687.289C793.469 683.578 791.861 680.692 791.696 680.919C791.532 681.166 789.429 684.32 787.017 687.763C782.585 694.133 782.585 694.133 790.563 694.133C798.541 694.133 798.54 694.133 795.325 687.289ZM143.699 651.378C140.957 646.06 139.349 645.338 124.939 643.091C116.24 641.793 109.086 639.937 109.086 639.133C109.086 638.329 113.189 632.702 118.178 626.662C125.413 617.88 126.959 614.664 125.99 610.706C125.351 607.964 124.053 605.799 123.331 605.799C121.393 605.799 95.8726 639.298 94.9862 642.926C94.5739 645.008 100.944 647.358 119.95 652.1C133.968 655.563 145.719 658.14 146.111 657.81C146.44 657.501 145.389 654.594 143.699 651.378ZM134.195 631.815C130.979 624.312 131.144 624.394 126.794 628.352C121.971 632.784 121.806 634.701 126.238 635.835C135.246 638.164 136.607 637.525 134.195 631.815ZM847.747 619.24C860.137 615.86 871.083 612.396 872.052 611.51C873.021 610.623 871.248 606.603 868.032 602.501C864.899 598.316 859.807 591.308 856.839 586.793C852.571 580.423 849.912 578.506 844.594 577.846C840.904 577.454 837.914 577.846 837.914 578.815C837.914 579.784 841.852 585.659 846.696 592.029C851.602 598.316 855.54 604.357 855.54 605.47C855.54 607.49 839.048 611.675 830.823 611.675C826.391 611.675 822.124 617.385 822.124 623.59C822.124 626.167 822.618 626.084 847.747 619.24ZM82.4318 613.777C85.2353 610.706 85.5654 607.964 84.5141 599.347C83.3185 589.535 82.5762 588.318 76.2269 585.35C72.4338 583.494 68.8882 582.526 68.2492 583.082C66.8886 584.463 75.8972 617.55 77.6701 617.55C78.3916 617.55 80.5765 615.86 82.4318 613.777ZM839.358 602.583C843.707 601.367 843.707 601.367 839.522 595.492C835.338 589.617 835.338 589.617 832.761 594.276C827.854 603.058 829.463 605.243 839.275 602.583H839.358ZM94.2646 598.069C94.9037 597.018 94.4914 595.657 93.3782 594.997C92.3269 594.276 91.4406 595.08 91.4406 596.77C91.4406 600.233 92.5742 600.811 94.2646 598.069ZM379.158 898.67C355.719 892.795 336.651 886.92 334.878 884.982C334.218 884.261 344.608 876.448 357.904 867.584L382.147 851.401L394.949 876.839C401.958 890.857 407.668 902.773 407.668 903.35C407.668 905.185 400.989 904.071 379.158 898.67ZM393.897 893.599C393.897 893.104 392.537 889.724 390.826 886.178C388.105 880.55 386.002 879.19 375.695 876.53C363.78 873.376 363.532 873.376 356.853 877.973C348.875 883.374 348.319 882.88 373.84 889.724C392.537 894.733 393.897 894.96 393.897 893.599ZM380.848 865.976C379.962 863.729 379.075 863.564 376.993 865.254C373.365 868.305 373.613 869.027 378.189 869.027C380.848 869.027 381.652 868.078 380.848 865.976ZM568.792 899.804C568.792 898.671 590.375 848.742 591.261 847.773C591.591 847.464 602.62 854.225 615.896 862.842C643.684 880.962 644.406 878.53 607.609 890.301C582.17 898.423 568.792 901.722 568.792 899.804ZM610.515 881.684C616.72 879.746 621.791 877.499 621.791 876.839C621.791 876.118 618.885 873.954 615.422 872.098C609.381 868.882 608.248 868.8 598.105 871.769C588.767 874.51 586.911 875.871 584.912 881.437C583.531 884.982 582.48 888.528 582.48 889.167C582.48 890.383 587.324 889.085 610.515 881.684ZM597.858 863.317C600.043 862.038 599.96 861.461 597.549 860.575C595.941 859.936 594.085 860.657 593.529 862.265C592.312 865.419 594.003 865.811 597.858 863.317ZM300.637 885.147C253.059 864.533 216.014 840.208 173.507 801.638C155.778 785.682 121.888 746.886 121.888 742.701C121.888 736.97 128.402 741.319 138.71 754.039C155.222 774.426 191.607 808.873 215.685 826.911C247.575 850.927 272.622 864.615 329.065 889.002C333.744 891.023 333.827 891.187 330.116 892.713C323.911 895.125 323.437 895.042 300.637 885.147ZM719.133 885.147C716.969 882.962 718.165 880.385 720.906 881.437C722.514 882.076 723.978 881.189 724.287 879.334C724.864 876.695 725.256 876.613 727.276 879.025C729.049 881.272 728.636 882.241 724.864 884.013C722.287 885.23 719.711 885.704 719.133 885.147ZM275.034 859.462C253.615 848.103 230.919 833.838 230.919 831.756C230.919 829.983 282.373 811.78 283.733 813.161C284.867 814.275 294.041 867.419 293.237 868.223C292.907 868.552 284.702 864.615 275.034 859.462ZM283.176 852.123C282.537 850.432 281.96 847.134 281.96 844.804C281.96 841.733 279.074 838.764 271.736 834.332C262.954 829.014 260.789 828.457 255.553 830.23C252.255 831.343 248.874 832.807 248.07 833.528C246.689 834.724 278.745 854.699 282.682 855.112C283.568 855.194 283.816 853.813 283.094 852.123H283.176ZM278.023 824.829C278.023 823.139 276.889 822.417 275.116 823.139C273.508 823.695 272.622 824.994 273.261 825.963C274.952 828.767 278.023 828.045 278.023 824.829ZM678.791 854.7C678.873 848.825 685.799 804.297 686.851 803.246C687.902 802.194 741.603 818.542 741.603 819.923C741.686 822.17 683.717 859.132 680.089 859.132C679.368 859.132 678.791 857.194 678.791 854.7ZM705.198 836.27C724.864 824.19 725.895 822.727 717.133 819.923C710.599 817.738 709.403 818.068 700.539 823.695C695.22 827.076 690.397 831.261 689.737 832.889C688.377 836.497 688.211 845.444 689.51 845.444C690.067 845.444 697.076 841.341 705.198 836.27ZM697.323 816.13C697.88 815.161 697.076 813.883 695.468 813.223C693.695 812.584 692.479 813.223 692.479 814.996C692.479 818.232 695.633 818.954 697.323 816.13ZM453.164 835.776C451.391 834.642 450.753 830.23 451.062 820.644C451.557 808.069 451.309 807.121 447.371 806.462C443.187 805.905 441.496 801.473 444.63 799.453C445.516 798.978 451.309 798.979 457.431 799.618C466.378 800.587 468.543 801.473 468.543 804.297C468.543 806.461 466.852 808.069 464.193 808.482C460.173 809.038 459.678 810.337 459.122 821.84C458.483 835.528 457.267 838.352 453.164 835.776ZM472.48 818.954C472.48 801.555 472.81 800.277 476.438 800.277C480.066 800.277 480.376 801.555 480.376 818.954C480.376 836.27 480.066 837.548 476.438 837.548C472.81 837.548 472.48 836.27 472.48 818.954ZM494.558 835.528C485.22 831.756 483.035 811.141 491.095 803.081C493.754 800.422 497.774 798.257 500.021 798.257C513.4 798.257 519.667 823.386 508.638 833.116C503.34 837.961 501.402 838.27 494.558 835.528ZM503.567 827.323C506.865 824.025 506.474 811.058 502.928 808.069C496.249 802.524 491.013 816.295 496.166 825.88C498.496 830.312 500.269 830.622 503.567 827.323ZM433.828 831.756C432.385 826.437 425.293 824.417 422.325 828.457C419.913 831.838 413.543 832.889 413.543 829.9C413.543 828.931 416.759 821.448 420.717 813.223C426.427 801.081 428.612 798.257 432.22 798.257C437.456 798.257 438.26 800.586 440.198 821.366C441.414 834.085 441.249 835.61 438.178 835.61C436.343 835.61 434.405 833.838 433.828 831.756ZM431.251 814.522C431.189 810.255 430.777 809.76 429.334 812.027C426.839 815.882 426.839 819.923 429.334 819.923C430.364 819.923 431.251 817.49 431.251 814.522ZM522.738 831.199C522.244 829.818 521.378 824.747 520.718 819.923C520.079 814.996 519.028 808.152 518.389 804.689C517.337 798.813 517.667 798.257 522.244 798.257C526.037 798.257 528.531 800.339 532.406 806.627L537.478 814.996L536.097 804.462C534.901 794.876 535.128 793.99 538.447 794.629C543.435 795.598 549.228 827.159 544.879 829.9C540.694 832.642 540.137 832.23 533.685 822.335L527.562 812.996L528.778 823.303C529.83 832.147 529.5 833.611 526.758 833.611C524.903 833.611 523.13 832.56 522.656 831.199H522.738ZM398.804 824.334C398.165 821.366 396.948 816.295 396.145 812.996C394.702 807.348 394.619 807.43 393.176 816.459C392.042 823.86 390.908 825.798 387.94 825.798C383.343 825.798 383.343 824.911 387.693 806.152C392.537 785.373 398 784.96 402.906 805.183C404.37 811.058 404.37 811.058 406.287 802.689C407.751 796.566 409.193 794.381 411.935 794.381C414.842 794.381 415.398 795.433 414.594 799.308C414.017 801.968 413.069 806.627 412.492 809.616C409.276 825.633 407.421 829.735 403.71 829.735C401.133 829.735 399.525 827.962 398.804 824.334ZM553.021 815.243C553.021 782.301 560.175 781.827 576.357 813.553C580.315 821.201 580.397 822.005 577.408 823.221C575.409 823.943 573.141 823.139 571.533 821.036C568.317 816.604 560.896 818.624 560.896 823.943C560.896 826.437 559.535 827.736 556.959 827.736C553.495 827.736 553.021 826.437 553.021 815.243ZM564.607 807.595C561.226 801.143 560.896 801.081 560.896 806.791C560.896 810.172 561.947 812.027 563.885 812.027C566.379 812.027 566.544 811.306 564.607 807.595ZM369.737 820.562C369.016 819.84 368.376 816.295 368.376 812.667C368.376 804.544 365.552 804.214 362.811 812.027C361.368 816.13 359.842 817.49 357.739 816.686C353.637 815.161 353.802 813.635 359.677 795.989C364.666 780.941 364.666 780.941 373.612 783.93C384.724 787.702 388.187 793.825 383.343 801.143C381.57 803.885 379.241 806.152 378.189 806.152C377.138 806.152 376.252 809.698 376.252 814.027C376.252 821.448 373.448 824.272 369.737 820.562ZM375.612 797.123C376.994 793.495 372.232 789.722 369.655 792.382C367.49 794.464 369.407 800.277 372.314 800.277C373.448 800.277 374.973 798.814 375.612 797.123ZM585.551 817.429C585.056 816.047 582.479 808.647 579.758 800.834C576.604 791.887 575.553 786.177 576.769 785.455C580.871 782.878 583.86 786.424 587.324 798.01C590.869 809.76 591.014 809.842 597.796 809.451C607.691 808.873 607.608 812.914 597.796 816.604C587.55 820.562 586.602 820.644 585.551 817.429ZM336.486 808.647C332.445 806.956 329.065 804.544 329.065 803.163C329.065 798.175 341.557 772.736 344.051 772.736C349.597 772.736 360.646 779.498 359.987 782.466C359.677 784.157 358.069 785.208 356.523 784.734C346.876 782.157 344.855 782.24 344.855 785.126C344.855 786.816 346.628 788.754 348.875 789.475C353.39 790.918 353.225 797.762 348.648 796.566C342.361 794.959 340.032 795.515 339.372 798.566C338.898 800.669 340.753 802.442 344.691 803.802C348.875 805.348 350.339 806.791 349.535 808.956C348.071 812.666 346.154 812.584 336.486 808.647ZM621.297 804.771C620.74 803.885 619.215 795.845 617.833 786.816C615.339 770.469 616.143 767.005 622.101 766.84C623.956 766.84 647.312 792.609 647.312 794.629C647.312 796.958 639.973 796.814 638.53 794.381C636.675 791.413 627.976 796.402 627.337 800.834C626.698 805.018 622.822 807.513 621.214 804.771H621.297ZM629.666 786.898C629.666 786.012 628.223 783.6 626.533 781.497C623.709 777.951 623.564 777.952 624.595 781.271C625.255 783.27 625.729 785.682 625.729 786.651C625.729 787.62 626.615 788.424 627.666 788.424C628.78 788.424 629.666 787.785 629.666 786.898ZM167.859 779.168L143.451 754.204L154.253 752.926C160.211 752.184 173.26 750.988 183.237 750.349C201.44 749.05 201.44 749.05 201.44 755.42C201.44 770.221 196.616 804.215 194.513 804.215C193.235 804.215 181.299 792.938 167.859 779.168ZM191.607 781.497C191.607 769.19 168.662 753.07 161.427 760.326C159.654 762.099 187.834 790.609 189.999 789.228C190.885 788.671 191.607 785.208 191.607 781.497ZM193.545 760.965C193.545 759.852 192.184 758.966 190.493 758.966C188.803 758.966 187.999 759.852 188.638 760.965C189.36 762.017 190.72 762.903 191.689 762.903C192.741 762.903 193.545 762.017 193.545 760.965ZM310.223 795.515C309.666 794.072 311.913 787.393 315.294 780.776C320.386 770.716 320.86 768.531 318.366 767.583C314.985 766.284 314.346 761.852 317.232 759.996C319.726 758.471 339.063 769.273 338.176 771.767C337.846 772.798 335.352 773.622 332.693 773.375C328.591 773.128 326.9 774.983 321.582 785.682C315.459 798.092 312.326 800.916 310.223 795.515ZM829.05 796.319C828.411 795.268 829.298 794.381 830.988 794.381C832.761 794.381 833.647 795.268 833.008 796.319C832.286 797.371 831.4 798.257 830.988 798.257C830.596 798.257 829.71 797.371 829.05 796.319ZM769.391 768.304C768.01 755.09 766.32 741.732 765.681 738.578C764.547 732.867 764.547 732.867 779.926 734.001C789.924 734.805 796.273 736.248 798.293 738.268C801.117 741.01 801.035 741.32 797.242 741.32C790.48 741.32 776.957 757.584 776.957 765.727C776.957 769.417 777.761 772.963 778.648 773.54C780.585 774.736 806.436 746.72 806.436 743.422C806.436 742.288 805.55 741.32 804.498 741.32C799.674 741.32 803.117 735.774 808.683 734.723C817.63 732.868 822.124 733.197 822.124 735.609C822.124 738.825 775.184 792.382 772.278 792.382C772.134 792.382 770.752 781.58 769.391 768.304ZM643.354 775.705C635.706 761.687 634.82 757.028 640.056 757.028C643.045 757.11 659.64 786.012 658.094 788.506C655.208 793.186 650.941 789.393 643.354 775.705ZM290.495 783.435C289.856 781.745 289.856 776.261 290.495 771.19L291.629 761.934L286.557 770.303C281.321 778.92 278.58 780.528 276.889 775.952C275.694 772.798 291.794 745.278 294.762 745.278C299.442 745.278 300.884 749.545 299.524 758.553C298.72 763.707 298.308 768.139 298.637 768.469C298.947 768.778 301.132 765.892 303.461 762.017C307.729 755.173 313.377 752.678 313.377 757.667C313.377 761.769 296.947 786.507 294.205 786.507C292.762 786.507 291.155 785.126 290.495 783.435ZM420.717 782.549C355.162 770.634 297.195 739.299 249.431 689.948C215.21 654.594 193.297 619.488 177.692 574.548L171.24 556.118L123.97 557.397C97.9548 558.118 71.1556 559.252 64.394 559.891C53.1179 560.942 52.1491 560.777 52.1491 557.17C52.1491 552.408 60.9927 551.521 126.155 549.501C169.714 548.223 169.714 548.223 168.58 542.101C167.941 538.802 167.22 535.731 166.972 535.421C166.643 535.092 140.483 535.669 108.757 536.617C52.0667 538.472 48.2738 538.246 48.1914 532.597C48.1914 531.793 51.5718 531.154 55.7771 531.154C59.8794 531.154 68.7232 530.577 75.3405 529.855C87.3382 528.66 87.338 528.66 88.4718 520.517C89.1109 516.085 89.4202 505.634 89.111 497.326L88.4718 482.195L68.0844 500.789C56.9731 511.014 47.4696 519.322 46.9955 519.322C46.5832 519.322 46.1915 517.301 46.1915 514.724C46.1915 511.179 59.7149 497.821 104.077 457.478C137.432 427.113 161.427 403.839 160.623 402.622C158.603 399.242 128.403 357.456 126.547 355.518C125.661 354.488 117.209 358.755 106.737 365.599C70.352 389.182 53.922 399.489 52.8707 399.489C52.3141 399.489 52.1494 397.634 52.4586 395.304C52.9534 392.253 62.4564 385.079 86.5342 369.619C104.881 357.786 120.198 347.788 120.507 347.478C120.919 347.149 113.189 334.821 103.356 320.247C87.3383 296.251 83.6278 287.552 89.4205 287.552C90.2245 287.552 97.8928 298.107 106.345 311.073C114.879 324.04 122.28 334.595 122.837 334.677C123.414 334.677 135.329 315.258 149.347 291.51C163.426 267.741 176.002 248.343 177.28 248.261C182.433 248.178 181.547 252.858 173.734 266.381C169.219 274.276 165.199 281.203 164.89 281.842C164.478 282.563 167.941 282.337 172.538 281.45C184.536 279.1 185.732 279.265 185.732 283.285C185.732 286.109 183.155 287.49 174.373 289.325C158.273 292.788 156.273 293.51 156.273 295.53C156.273 297.633 190.885 297.859 201.852 295.777L209.17 294.396L201.193 284.027C193.957 274.606 192.349 267.907 197.255 267.907C198.224 267.907 203.048 273.225 207.872 279.76C216.736 291.675 216.736 291.675 220.838 285.862C224.961 280.151 224.961 280.151 187.422 248.982C166.808 231.831 149.264 217.586 148.46 217.257C147.656 216.947 147.244 218.72 147.656 221.214C148.048 223.626 150.069 235.212 152.068 246.818C154.088 258.486 155.222 268.319 154.5 268.71C151.759 270.318 97.3158 272.174 97.3158 270.566C97.4807 265.412 101.748 264.134 123.578 262.835C145.719 261.475 146.687 261.227 145.801 257.29C145.224 255.022 143.307 243.19 141.287 231.027C138.153 211.217 138.071 208.639 140.73 205.98C143.863 202.847 151.924 208.805 210.696 258.259L229.538 274.111L242.999 259.372C361.677 129.253 570.482 122.801 696.437 245.436L711.176 259.784L752.405 222.575C775.102 202.125 794.273 185.366 794.912 185.366C797.015 185.366 798.85 191.818 797.16 193.344C757.312 228.698 720.02 262.444 719.051 263.887C717.608 266.299 721.401 273.781 724.06 273.781C725.091 273.781 739.026 262.444 754.982 248.508C810.126 200.188 809.013 201.074 811.734 205.032C813.754 207.836 813.507 212.907 810.373 231.831C808.271 244.633 806.518 256.568 806.518 258.321C806.436 260.98 810.126 261.722 830.019 262.918C850.963 264.134 853.85 264.773 855.787 268.319C857.89 272.256 857.725 272.339 828.741 270.895C812.703 270.174 798.85 268.793 797.964 267.989C797.16 267.185 798.293 255.682 800.54 242.386C802.808 229.172 804.333 217.978 803.859 217.504C803.117 216.782 763.351 250.838 740.078 272.029C730.657 280.564 729.935 281.842 732.182 285.47C735.728 291.18 736.615 290.789 745.706 278.543C752.962 268.71 754.158 267.824 756.817 270.483C759.394 273.06 758.92 274.606 751.746 283.945L743.706 294.396L751.024 295.777C755.044 296.499 767.124 297.22 777.926 297.22C794.521 297.385 797.015 296.973 794.583 294.726C792.975 293.201 786.461 291.015 780.008 289.737C767.536 287.408 763.908 285.305 766.093 281.76C766.98 280.316 770.917 280.069 777.431 280.955L787.512 282.254L780.977 270.648C777.349 264.299 773.494 257.517 772.278 255.6C770.587 252.858 770.752 251.642 773.02 250.199C776.874 247.704 776.401 246.983 805.302 295.942L829.38 336.677L846.696 310.682C862.466 287.078 864.157 285.058 865.93 289.016C867.62 292.788 865.455 297.055 849.912 319.937L831.874 346.427L859.89 364.857C875.351 374.937 890.812 384.832 894.192 386.77C899.346 389.738 904.499 398.52 902.335 400.54C901.923 400.788 885.513 390.563 865.703 377.679C845.892 364.857 829.05 354.322 828.329 354.322C826.473 354.322 791.614 403.756 792.5 405.199C792.892 405.859 808.353 420.021 826.885 436.616C884.709 488.626 908.622 511.735 908.622 515.693C908.622 517.693 908.045 519.322 907.406 519.322C905.963 519.322 896.934 511.674 878.34 494.44C870.939 487.513 864.651 482.195 864.487 482.442C864.322 482.751 864.487 493.388 864.961 506.025L865.785 529.052L884.709 529.629C901.531 530.103 903.695 530.577 904.355 533.896C905.076 537.586 903.469 537.586 846.119 536.39C782.441 534.927 784.852 534.618 784.852 545.09C784.852 548.553 786.461 548.78 805.137 548.78C816.331 548.78 842.82 549.439 864.095 550.078C900.644 551.356 902.665 551.604 902.665 555.232C902.665 559.004 901.448 559.004 844.284 557.644C812.064 556.922 785.079 556.118 784.213 555.954C783.327 555.789 779.204 564.962 775.102 576.321C737.893 679.558 653.744 754.369 545.847 779.889C515.647 787.063 452.752 788.341 420.717 782.549ZM527.48 775.313C573.945 767.809 621.544 747.689 660.114 719.344C681.78 703.306 717.278 666.282 732.182 644.039C754.57 610.623 770.278 573.826 779.204 534.04C784.358 511.014 786.378 455.849 782.915 430.246C765.207 298.993 663.495 193.673 531.438 169.678C500.186 164.03 454.607 164.03 423.768 169.678C296.37 192.952 200.389 285.717 173.652 411.322C167.776 438.945 167.219 497.243 172.538 524.228C182.186 573.022 198.863 612.726 224.878 649.111C294.288 746.308 409.606 794.382 527.48 775.313ZM430.22 771.85C332.94 756.533 248.627 694.628 204.491 606.129C155.47 507.798 163.426 392.315 225.682 300.292C242.421 275.555 279.631 238.675 304.595 222.184C338.98 199.466 375.777 183.923 416.285 175.141C443.187 169.266 507.36 168.792 534.097 174.172C643.849 196.477 732.677 274.111 765.763 376.937C777.596 413.754 779.864 429.05 779.781 472.197C779.699 526.722 772.937 556.428 749.499 604.831C734.285 636.227 717.773 659.109 690.561 686.32C645.457 731.507 590.457 760.161 528.531 770.798C501.794 775.375 455.741 775.87 430.22 771.85ZM532.406 766.036C652.857 743.649 749.829 645.503 772.278 523.012C777.122 496.604 777.122 446.037 772.278 420.104C767.536 394.665 756.013 359.476 745.623 338.779C703.838 255.682 623.399 195.591 530.469 178.295C503.258 173.224 451.639 173.224 424.325 178.295C301.05 201.239 209.335 290.706 182.268 414.228C176.723 439.667 177.362 505.943 183.402 532.845C208.614 645.73 293.484 734.001 403.483 761.934C440.115 771.273 495.032 772.963 532.406 766.036ZM467.409 751.627C471.45 728.848 471.924 731.095 463.389 732.62C455.02 734.084 449.619 737.856 447.846 743.587C445.908 749.689 441.641 747.916 442.61 741.32C443.187 737.465 442.61 735.444 441.084 735.444C439.641 735.444 439.064 733.836 439.641 731.569C440.198 729.487 439.394 726.663 437.951 725.467C435.126 723.117 434.075 717.737 436.405 717.737C437.065 717.737 440.445 719.509 443.908 721.591C449.289 724.972 451.144 725.137 457.823 723.199C462.111 722.004 465.966 720.705 466.378 720.396C466.77 720.149 463.472 715.469 458.957 710.15C454.525 704.852 450.917 699.926 450.917 699.287C450.917 697.04 456.957 698.07 463.224 701.533C466.688 703.389 471.285 704.935 473.449 704.935C475.634 704.997 477.16 706.131 476.912 707.512C475.943 712.171 485.22 714.5 494.785 712.088C504.371 709.676 509.772 710.727 509.772 714.995C509.772 717.819 500.104 723.612 495.28 723.612C490.683 723.612 485.942 729.569 487.302 733.672C488.024 736.083 487.549 737.382 485.776 737.382C484.333 737.382 480.705 742.289 477.799 748.164C471.367 761.295 465.409 763.315 467.409 751.627ZM270.045 622.312C267.716 617.962 266.334 617.323 260.872 618.189C253.615 619.405 252.976 618.436 257.491 613.447C260.294 610.397 260.294 609.51 257.491 604.027C253.945 597.183 254.028 597.1 261.263 599.842C265.696 601.532 267.077 601.037 271.179 596.461C275.92 591.06 275.92 591.06 275.92 598.399C276.003 604.501 276.807 605.882 280.909 606.933C283.651 607.655 285.836 608.85 285.836 609.737C285.836 610.541 283.651 611.84 280.909 612.479C277.528 613.283 276.003 615.056 276.003 618.127C275.92 625.919 273.117 628.022 270.045 622.312ZM678.708 621.817C678.708 616.354 677.739 614.89 672.833 613.035C665.68 610.314 665.35 608.541 671.864 606.933C675.987 605.882 676.791 604.501 676.791 598.461C676.791 591.307 676.791 591.307 682.172 596.379C686.521 600.481 688.459 601.12 692.252 599.595C698.436 597.265 699.323 598.543 695.55 604.357C692.643 608.768 692.726 609.428 696.664 614.581C700.931 619.962 700.931 619.962 694.416 618.519C688.624 617.241 687.243 617.797 683.305 622.704C678.708 628.352 678.708 628.352 678.708 621.817ZM343.639 603.305C347.267 595.41 352.916 583.494 356.296 576.815C360.728 568.033 362.481 561.911 362.481 554.902C362.481 545.894 361.677 544.348 352.915 535.174C347.679 529.711 341.866 525.279 340.031 525.279C332.94 525.279 329.312 521.321 327.951 512.312C327.23 507.159 324.488 500.871 321.582 497.408C316.593 491.451 316.593 491.451 323.272 463.992C329.951 436.533 329.951 436.533 343.083 422.124C350.339 414.146 359.904 404.313 364.419 400.293C373.283 392.315 381.013 378.792 383.033 367.928C384.311 361.393 383.982 361.002 375.138 356.652C367.49 352.941 366.192 351.499 367.078 347.87C367.635 345.458 368.768 337.48 369.49 330.162C370.294 322.741 372.066 315.588 373.448 314.124C376.416 311.156 383.673 310.022 419.418 307.218C433.993 306.002 459.678 303.755 476.438 302.065C543.518 295.53 539.725 295.53 567.76 301.652C581.758 304.703 597.714 308.414 603.094 310.022C608.495 311.548 616.638 313.733 621.132 314.949C629.027 317.031 629.44 317.443 631.357 327.338C632.491 332.987 633.377 339.83 633.377 342.552C633.377 345.211 633.933 352.777 634.675 359.229L635.954 371.062L616.638 378.957C597.301 386.935 597.301 386.935 595.611 396.665C594.724 401.983 592.787 407.054 591.426 407.858C589.653 408.827 588.375 415.836 587.406 428.803C586.107 446.676 585.551 448.696 580.562 453.52C575.244 458.591 575.079 459.168 576.048 474.938C577.099 490.894 577.016 491.203 570.976 498.13C567.596 502.005 564.771 506.025 564.771 507.159C564.771 512.869 582.974 565.787 586.108 569.312C589.097 572.631 609.938 614.252 609.938 616.828C609.938 617.241 548.589 617.55 473.532 617.55H337.125L343.639 603.305ZM372.314 594.441C378.354 583.165 378.354 583.165 377.138 591.06C376.499 595.327 375.53 600.481 374.973 602.501C374.087 605.305 374.808 605.965 378.354 605.47C381.817 604.913 383.982 602.006 387.528 592.998C390.104 586.545 393.011 579.145 394.062 576.568C397.361 568.508 397.69 572.857 394.784 586.154C390.681 605.47 390.764 605.799 399.608 605.799C409.441 605.799 412.657 602.501 414.265 590.669C415.728 579.784 421.439 562.55 423.686 562.55C424.49 562.55 425.706 565.849 426.345 569.972C426.984 573.991 428.53 579.475 429.726 582.196C431.024 584.937 433.106 590.174 434.487 593.967C436.982 600.893 436.982 600.893 436.343 591.06C435.765 582.443 421.686 541.936 421.438 548.305C421.356 551.521 407.256 588.401 406.452 587.597C406.143 587.267 407.111 578.176 408.554 567.477C410.08 556.675 411.131 547.811 410.966 547.667C407.998 545.646 397.835 545.481 397.753 547.419C397.753 548.697 395.588 554.181 392.929 559.582C387.775 569.971 387.693 569.724 390.908 550.326C392.846 538.39 386.971 540.658 383.178 553.212C380.127 563.602 371.51 582.608 373.283 575.352C373.757 573.187 375.365 564.962 376.911 557.087C379.57 542.905 379.57 542.739 375.448 543.317C371.84 543.791 371.345 545.089 371.592 553.624C371.84 561.829 370.211 566.652 361.285 584.546L350.648 605.799H358.461C366.027 605.799 366.521 605.305 372.314 594.441ZM363.45 506.108C367.8 494.584 378.766 472.609 382.868 467.29C385.528 463.745 385.528 464.322 382.868 473.165C380.457 481.226 374.252 509.571 374.252 512.622C374.252 513.116 376.251 513.426 378.684 513.426C382.374 513.426 383.982 511.014 388.579 498.707C393.733 484.937 394.949 483.473 406.287 475.742C412.987 471.248 423.685 463.58 430.22 458.838C448.485 445.48 450.258 444.903 443.496 454.818C437.147 464.074 431.189 475.021 431.189 477.433C431.189 478.237 434.961 475.351 439.559 470.918C444.135 466.569 449.784 461.663 452.113 460.137C454.442 458.591 462.338 450.943 469.594 443.048C481.674 430.019 482.396 428.885 477.16 430.081C459.204 434.204 449.536 438.059 432.942 447.727L414.512 458.591L429.334 444.264C437.456 436.369 450.587 424.865 458.565 418.661C466.44 412.456 472.336 407.384 471.676 407.384C468.131 407.384 433.601 421.959 430.22 424.866C420.304 433.318 419.109 433.317 425.458 424.701C429.169 419.629 434.797 414.394 438.095 413.095C441.332 411.734 451.062 407.302 459.679 403.2C468.296 399.097 481.901 394.418 489.961 392.728C497.939 391.12 504.948 389.347 505.505 388.79C507.442 386.77 490.209 387.739 468.378 390.79C456.298 392.48 443.743 393.531 440.28 393.202C434.158 392.645 434.158 392.645 442.362 388.213C455.906 381.06 480.211 373.968 496.001 372.587C504.866 371.865 514.678 369.536 520.553 366.877L530.386 362.362L512.761 363.331C503.01 363.826 491.095 364.63 486.168 365.022C477.407 365.826 477.407 365.825 483.282 363.084C486.498 361.641 494.064 360.363 500.104 360.28C506.144 360.28 518.059 358.425 526.531 356.322C535.128 354.075 548.837 352.302 557.763 352.22L573.636 352.055L560.979 349.334C547.455 346.345 547.146 346.427 425.788 362.61C391.877 367.124 391.877 367.124 388.579 375.906C386.806 380.812 384.147 386.522 382.704 388.625C375.612 399.242 383.838 397.716 392.764 386.77C402.762 374.607 404.761 375.659 397.196 388.852C391.568 398.85 389.465 400.54 375.22 407.384C362.728 413.424 357.183 417.609 348.154 427.752C337.207 440.162 336.651 441.357 330.92 464.239C327.622 477.288 325.457 488.791 326.096 489.925C327.622 492.254 331.002 492.42 331.002 490.09C331.002 487.74 341.062 465.847 341.804 466.651C342.113 466.981 340.753 473.887 338.65 481.947C335.022 496.048 334.96 501.675 338.341 501.675C339.227 501.675 341.64 495.718 343.722 488.482C348.793 470.589 357.018 454.819 365.223 446.758L372.149 440.079L364.666 454.984C358.069 468.094 353.72 483.72 349.762 508.045C348.566 515.116 348.731 515.364 354.276 515.364C359.265 515.364 360.399 514.25 363.45 506.025V506.108ZM371.098 465.352C380.374 437.42 385.446 427.834 397.031 416.331C403.566 409.796 410.492 401.736 412.409 398.438C414.265 395.222 419.501 390.481 423.933 387.904C432.055 383.224 432.055 383.224 428.922 387.986C427.231 390.625 424.18 397.964 422.16 404.251C419.109 414.064 417.089 416.888 408.472 423.237C398.165 430.823 392.846 436.781 378.189 457.478C373.53 463.91 370.376 467.455 371.098 465.352ZM338.898 454.901C338.898 448.614 343.33 440.801 350.813 433.874L357.265 427.999L353.143 434.843C350.896 438.636 346.793 445.707 343.969 450.634C339.949 457.622 338.898 458.509 338.898 454.901ZM386.332 410.765C388.991 405.941 401.793 394.088 401.793 396.521C401.793 399.819 397.443 405.282 390.826 410.291C383.673 415.754 383.672 415.754 386.332 410.765ZM418.449 375.906C421.686 370.753 430.53 368.485 443.496 369.536C450.835 370.093 456.792 371.227 456.792 372.031C456.792 374.216 441.414 376.215 434.487 374.855C431.024 374.216 425.788 374.607 422.717 375.823C419.171 377.102 417.646 377.184 418.449 375.906ZM448.897 344.407C478.603 342.243 509.937 339.583 518.554 338.532C527.17 337.481 535.375 336.677 536.756 336.677C538.117 336.677 539.251 334.821 539.251 332.492C539.251 328.472 538.673 328.39 514.204 329.523C489.157 330.554 489.157 330.554 503.897 327.895C512.019 326.452 522.821 324.679 527.974 323.957C534.179 323.071 537.313 321.71 537.313 319.855C537.313 316.392 541.662 316.309 485.22 320.907C437.951 324.844 421.995 325.565 423.521 324.04C424.015 323.566 436.735 321.793 451.866 320.103C532.551 311.073 533.375 310.908 533.375 306.476C533.375 304.641 523.212 305.033 488.683 308.414C464.11 310.743 429.478 314.062 411.77 315.67C377.076 318.886 376.252 319.133 376.252 330.554C376.19 337.254 376.189 337.254 400.989 336.12C414.594 335.481 425.458 335.233 425.066 335.625C424.654 336.037 415.069 337.316 403.71 338.614C375.056 341.748 374.252 341.995 374.252 346.675C374.252 350.365 375.138 350.612 384.559 349.561C390.269 348.922 419.171 346.592 448.897 344.407ZM232.114 555.232C229.455 550.078 227.538 548.78 222.694 548.78C216.571 548.78 216.571 548.78 221.58 544.842C225.992 541.379 226.404 540.163 224.796 534.535C223.827 531.072 223.023 527.938 223.023 527.691C223.023 527.361 225.27 528.66 228.177 530.515C233.001 533.649 233.64 533.649 239.041 530.577C244.772 527.279 244.772 527.279 243.555 533.978C242.504 539.441 242.999 540.967 246.462 542.822C251.451 545.564 249.987 548.78 243.803 548.78C240.422 548.78 238.793 550.387 237.433 555.232L235.495 561.581L232.114 555.232ZM716 555.232C714.145 549.996 712.619 548.78 708.022 548.78C701.343 548.78 700.539 545.976 706.414 542.822C709.877 540.967 710.434 539.359 709.485 533.731C708.352 526.887 708.352 526.887 713.093 530.02C719.216 533.978 721.71 533.896 726.39 529.711C730.1 526.392 730.1 526.475 728.719 533.896C727.523 540.493 727.915 541.936 731.935 545.09C736.697 548.697 736.697 548.697 730.162 548.78C724.782 548.78 723.236 549.831 720.989 555.232L718.247 561.581L716 555.232ZM215.21 481.783C215.128 475.66 214.242 474.299 208.841 472.052L202.573 469.476L208.841 466.899C213.912 464.796 215.128 463.188 215.128 458.426C215.128 451.52 217.065 450.943 220.694 456.736C222.776 460.055 224.631 460.694 230.032 459.807C236.794 458.673 236.794 458.674 233.495 464.322C230.341 469.558 230.342 470.197 233.64 475.186C237.041 480.422 237.041 480.422 230.754 479.041C225.353 477.845 223.827 478.484 219.89 483.329C215.293 488.874 215.293 488.874 215.21 481.783ZM732.822 482.112C729.688 478.649 727.585 478.092 722.287 479.041C715.587 480.339 715.587 480.339 719.545 474.773C723.565 469.146 723.565 469.146 719.463 463.58C715.361 457.952 715.361 457.952 721.793 459.395C726.864 460.529 729.049 459.972 732.904 456.344C737.666 451.829 737.666 451.83 737.666 457.787C737.666 462.384 738.944 464.239 743.85 466.569L750.055 469.476L743.933 472.052C739.356 473.97 737.748 475.99 737.254 480.504C736.697 486.379 736.697 486.379 732.822 482.112ZM223.023 410.93C223.023 410.6 223.827 407.467 224.796 404.004C226.404 398.355 225.992 397.242 221.333 393.779C216.097 389.821 216.097 389.821 223.27 389.738C229.537 389.738 230.754 388.852 232.836 383.307L235.268 376.937L237.268 383.307C238.876 388.543 240.257 389.677 244.834 389.677C251.451 389.677 252.173 392.563 246.524 395.634C243.143 397.407 242.751 398.933 243.803 404.725C245.081 411.734 245.081 411.734 239.762 408.271C234.691 404.972 234.135 404.89 228.734 408.188C225.6 410.044 223.023 411.239 223.023 410.93ZM709.156 405.364C710.351 399.902 709.795 398.355 704.971 394.418C699.323 389.821 699.323 389.821 706.414 389.738C712.702 389.676 713.753 388.934 715.505 383.307L717.608 376.937L720.185 383.307C722.432 388.79 723.813 389.676 729.77 389.738C736.697 389.821 736.697 389.821 731.543 394.171C727.585 397.469 726.699 399.489 727.915 402.478C730.966 410.044 730.1 411.569 724.699 408.106C719.937 404.973 719.298 404.972 713.753 408.271C707.774 411.734 707.775 411.734 709.156 405.364ZM271.344 341.995C267.633 336.594 266.582 336.45 256.357 340.305C254.11 341.109 254.254 340.14 257.161 335.79C260.624 330.41 260.624 329.915 257.408 324.431C254.028 318.721 254.028 318.721 260.624 319.937C266.335 320.989 267.633 320.494 270.457 315.753C273.756 310.269 273.756 310.269 275.034 317.443C276.085 322.741 277.611 324.844 281.156 325.73C287.196 327.256 287.197 329.998 281.074 331.523C277.219 332.492 276.167 334.182 275.693 340.057C275.034 347.479 275.034 347.479 271.344 341.995ZM676.791 339.975C676.791 333.935 675.987 332.574 671.864 331.605C665.35 329.915 665.68 328.142 672.833 325.483C677.739 323.628 678.708 322.184 678.791 316.701C678.873 310.104 678.873 310.104 682.976 315.67C686.356 320.164 688.047 320.906 692.726 319.937C699.096 318.474 699.818 320.02 695.138 325.174C692.17 328.472 692.252 329.111 695.303 333.873C699.405 339.975 698.601 341.273 692.314 338.862C688.459 337.398 686.604 338.058 682.172 342.16C676.791 347.231 676.791 347.231 676.791 339.975ZM321.911 285.944C320.386 281.677 318.036 279.76 313.294 278.708C306.76 277.245 306.76 277.245 311.357 273.781C315.067 271.06 315.706 269.205 314.655 264.217C313.295 257.208 313.686 256.96 320.138 261.145C324.488 263.969 325.292 263.969 330.034 260.836C335.27 257.434 335.269 257.434 333.991 264.361C332.858 270.174 333.332 271.864 336.878 274.359C341.145 277.327 341.145 277.327 335.022 278.708C330.755 279.677 328.261 281.759 326.57 285.862C324.158 291.757 324.158 291.758 321.911 285.944ZM626.45 285.305C624.842 279.822 623.482 278.544 617.833 277.74C611.072 276.771 611.072 276.771 616.308 273.307C620.823 270.401 621.297 269.205 619.771 264.051C617.833 257.207 618.246 256.96 624.595 261.145C628.945 263.969 629.748 263.969 634.675 260.753C639.911 257.29 639.912 257.29 638.53 263.722C637.335 269.205 637.809 270.731 641.664 273.472C646.344 276.688 646.343 276.688 640.468 277.74C636.201 278.461 633.707 280.564 631.439 285.305L628.306 291.902L626.45 285.305ZM388.022 246.179C388.022 241.334 386.806 239.726 381.9 237.644L375.777 235.068L381.9 232.882C386.888 231.192 388.022 229.749 388.022 224.76C388.022 217.834 390.826 216.947 393.98 222.905C395.835 226.286 397.361 226.842 402.906 225.791C409.998 224.43 411.605 226.512 406.617 230.553C405.009 231.913 403.71 234.181 403.71 235.459C403.71 236.82 405.009 239.087 406.617 240.365C411.44 244.406 410.08 246.096 402.906 244.962C397.443 244.076 395.835 244.633 393.98 248.013C390.826 253.992 388.022 253.167 388.022 246.179ZM559.206 248.013C557.124 244.633 555.351 244.076 549.867 244.962C542.302 246.179 541.745 245.292 546.569 239.891C549.785 236.428 549.785 235.871 546.651 230.388C543.271 224.513 543.271 224.513 549.95 225.791C555.433 226.842 556.959 226.286 558.814 222.905C561.947 217.091 564.771 217.834 564.771 224.43C564.771 228.945 566.05 230.635 570.812 232.635L576.934 235.129L570.812 237.644C565.988 239.726 564.771 241.334 564.771 246.179C564.771 253.167 562.834 253.827 559.206 248.013ZM462.668 238.118C462.668 237.706 463.554 234.408 464.605 230.635C466.378 224.43 466.048 223.297 460.256 217.421L454.051 210.907H462.338C470.151 210.907 470.955 210.413 473.861 203.569L476.995 196.168L479.901 203.569C482.561 210.33 483.447 210.907 490.456 210.907C499.547 210.907 499.712 211.711 492.208 218.06C488.993 220.72 486.746 223.936 487.137 225.234C487.55 226.595 488.353 230.058 488.992 232.965C490.209 238.366 490.209 238.366 483.364 234.243C476.438 230.223 476.438 230.223 469.594 234.49C465.718 236.82 462.668 238.448 462.668 238.118ZM109.086 497.738C109.086 475.598 109.726 466.322 111.251 466.322C112.529 466.322 124.053 474.773 136.937 485.163C149.903 495.47 160.767 503.613 161.18 503.201C161.654 502.809 161.427 497.738 160.767 492.007C159.489 481.617 159.489 481.618 143.142 470.754C134.113 464.714 126.712 459.251 126.712 458.508C126.712 456.426 151.676 434.843 154.088 434.843C159.159 434.843 155.47 443.048 147.079 450.222L137.988 457.952L148.543 465.126L159.159 472.197L161.489 446.202C162.788 431.854 164.23 418.578 164.808 416.558C166.168 411.239 164.231 412.621 141.122 433.874C93.935 477.35 97.8105 471.475 96.5118 502.17C95.4605 529.134 95.4606 529.134 102.222 529.134C109.004 529.134 109.004 529.134 109.004 497.738H109.086ZM150.315 527.196C165.529 527.196 165.529 527.196 164.313 521.486C163.344 517.219 157.469 511.344 140.73 497.903C128.402 488.07 118.013 480.092 117.621 480.092C117.209 480.092 116.879 491.203 116.879 504.891V529.711L125.99 528.495C131.062 527.773 142.008 527.196 150.315 527.196ZM124.774 510.705C124.774 504.665 125.578 499.655 126.63 499.655C128.732 499.655 146.997 515.054 148.048 517.631C148.378 518.579 145.306 519.404 141.122 519.404C137.019 519.404 131.618 519.961 129.206 520.6C125.022 521.733 124.774 521.239 124.774 510.705ZM857.23 513.92C856.591 471.557 858.282 475.021 822.124 442.656C804.333 426.7 789.429 413.899 789.12 414.228C788.707 414.558 789.429 421.629 790.563 429.937C791.697 438.224 792.665 451.108 792.665 458.591C792.665 466.095 793.057 472.197 793.634 472.197C794.191 472.197 799.097 468.981 804.581 465.043L814.558 457.87L805.549 448.778C796.52 439.522 793.057 430.823 800.066 434.678C804.972 437.337 826.082 456.509 826.082 458.282C826.082 459.168 818.578 464.961 809.487 471.166C792.975 482.504 792.975 482.504 792.336 493.059C792.006 498.851 791.944 503.613 792.253 503.613C792.501 503.613 803.447 495.244 816.413 485.019C829.462 474.712 840.966 466.322 841.934 466.322C842.903 466.322 843.707 475.021 843.707 485.658C843.707 496.274 844.346 510.457 845.006 517.054C846.201 528.742 846.449 529.134 851.932 529.134C857.477 529.134 857.478 529.134 857.23 513.92ZM836.698 504.087C835.977 491.45 835.173 480.814 835.008 480.669C834.451 479.783 797.407 509.818 793.14 514.642C790.728 517.301 788.708 521.239 788.708 523.424C788.708 526.969 790.233 527.196 813.362 527.196H837.997L836.698 504.087ZM814.641 519.878C804.251 518.909 804.663 517.301 817.774 506.025L828.019 497.243V509.241C828.019 517.775 827.277 521.239 825.587 521.012C824.226 520.765 819.32 520.27 814.641 519.878ZM807.961 367.763C813.507 359.641 813.837 358.425 810.848 357.538C800.54 354.714 770.505 348.365 769.948 348.922C769.618 349.251 771.329 355.209 773.824 362.053C778.318 374.607 778.318 374.607 782.028 368.403C785.574 362.28 792.665 359.785 792.665 364.63C792.665 365.99 790.089 370.897 787.017 375.576C781.946 383.224 781.554 384.915 783.327 391.759L785.244 399.324L793.469 388.13C797.963 381.946 804.498 372.752 807.961 367.763ZM170.683 391.367C171.652 386.605 170.601 383.142 166.004 375.659C159.324 364.712 158.912 363.084 163.2 361.476C165.199 360.672 167.467 362.527 170.188 367.124C172.456 370.897 174.538 373.968 174.785 373.968C175.919 373.968 183.959 350.055 183.072 349.169C182.351 348.365 154.501 354.075 142.091 357.538C139.349 358.26 141.369 362.136 152.727 377.988C160.458 388.79 167.384 397.551 168.106 397.551C168.828 397.551 170.044 394.83 170.683 391.367ZM154.253 346.757C162.313 344.819 168.828 342.407 168.663 341.438C168.415 340.387 164.643 331.688 160.128 321.937C152.728 305.919 151.759 304.559 149.347 307.857C147.079 310.908 147.327 313.176 151.182 323.566C153.614 330.245 155.305 336.759 154.81 338.14C153.119 342.634 148.852 340.635 146.44 334.182C145.162 330.719 143.389 326.142 142.585 324.04C141.451 320.824 140.153 322.02 134.855 331.296C129.618 340.387 128.877 343.129 130.65 346.427C133.226 351.251 135.246 351.251 154.253 346.757ZM822.618 346.427C824.061 344.18 822.866 340.634 818.269 333.131C811.342 321.793 809.157 321.628 807.24 332.018C805.859 339.171 801.674 342.552 798.376 339.171C797.098 337.975 797.902 332.739 800.623 324.37C803.859 314.784 804.333 310.599 802.808 307.857C801.035 304.786 799.592 306.806 792.81 321.463C788.398 330.966 784.77 339.892 784.77 341.274C784.77 342.964 789.841 345.046 798.046 346.984C813.919 350.612 820.124 350.447 822.618 346.427ZM197.812 322.906C202.883 313.733 207.068 305.672 207.15 304.951C207.315 303.755 163.839 305.116 162.375 306.394C161.984 306.806 165.199 314.701 169.714 323.957C177.197 339.666 178.166 340.779 183.237 340.222C187.752 339.666 190.081 336.924 197.812 322.906ZM174.703 324.04C172.373 317.917 174.785 310.104 179.3 309.548C184.371 308.826 184.453 309.301 181.712 319.443C179.609 327.008 176.558 328.946 174.703 324.04ZM782.997 323.627C787.347 314.289 790.563 306.394 790.316 306.167C790.006 305.92 779.781 305.28 767.619 304.703L745.479 303.755L750.138 311.877C752.797 316.309 757.229 324.596 760.053 330.245C764.32 338.614 766.237 340.552 770.278 340.552C774.545 340.552 776.236 338.367 782.997 323.627ZM771.329 320.659C768.01 311.321 768.505 308.826 773.494 309.548C778.318 310.187 779.925 314.702 778.091 322.102C776.483 328.555 773.906 328.06 771.329 320.659ZM656.651 768.139C651.579 760.326 647.312 753.317 647.312 752.678C647.312 750.431 660.526 743.257 664.628 743.257C669.452 743.257 674.853 750.184 674.853 756.389C674.853 759.11 677.018 762.017 680.728 764.202C683.944 766.119 686.604 768.469 686.604 769.355C686.604 772.798 680.007 773.128 674.441 769.912C667.205 765.645 665.432 767.17 669.864 773.932C672.668 778.199 672.833 779.415 670.668 780.858C666.545 783.435 666.628 783.435 656.651 768.139ZM666.958 755.977C666.958 752.431 664.051 750.823 660.361 752.266C657.949 753.235 657.702 754.368 659.227 757.193C661.33 761.13 666.958 760.244 666.958 755.977ZM825.587 779.25C822.701 778.529 823.587 776.509 831.07 766.779C835.977 760.326 841.048 755.338 842.346 755.585C843.542 755.812 844.676 754.698 844.841 753.07C845.48 746.885 845.892 746.308 847.892 749.215C849.747 751.709 849.912 751.627 849.026 748.885C848.387 747.112 849.108 744.061 850.551 742.124C852.963 738.825 853.21 738.825 854.427 742.845C855.148 745.195 854.818 748.803 853.705 750.905C851.128 755.812 851.046 759.048 853.623 759.048C854.653 759.048 855.54 757.667 855.54 756.059C855.54 752.843 859.003 752.266 863.126 754.843C865.208 756.141 864.816 757.42 861.271 760.739C858.776 762.986 855.622 764.923 854.179 764.923C852.819 764.923 851.602 766.696 851.602 768.943C851.602 774.179 848.139 780.611 845.315 780.611C844.12 780.611 843.707 780.054 844.429 779.333C845.088 778.611 843.955 776.756 841.77 775.23C839.605 773.684 838.327 771.685 838.966 770.633C840.491 768.222 836.554 768.304 831.71 770.881C829.05 772.324 828.246 774.179 829.05 776.838C829.71 778.92 830.019 780.528 829.627 780.384C829.297 780.302 827.442 779.724 825.587 779.25ZM264.417 768.943C262.15 767.5 263.531 764.428 271.488 752.843C281.961 737.774 285.176 735.115 287.032 740.042C287.753 741.876 284.31 748.741 278.662 756.945C268.52 771.767 268.684 771.602 264.417 768.943ZM681.862 750.823L670.339 736.722L676.544 731.177C684.356 724.168 691.036 724.003 696.272 730.765C701.425 737.3 701.425 739.464 696.272 746.082C692.252 751.153 692.252 751.462 695.633 755.255C698.683 758.636 698.848 759.44 696.272 762.017C693.695 764.511 692.004 763.233 681.862 750.823ZM691.2 740.516C692.643 736.805 687.16 732.146 684.521 734.805C682.006 737.217 684.192 743.257 687.572 743.257C689.015 743.257 690.623 742.041 691.2 740.516ZM242.669 752.122C240.896 749.937 240.814 748.493 242.422 746.556C245.411 742.928 237.845 735.527 234.526 738.825C232.032 741.402 226.961 739.959 227.043 736.661C227.043 735.445 233.805 730.208 242.03 724.972C255.388 716.603 257.408 715.881 259.985 718.54C262.644 721.117 262.067 723.364 255.471 738.268C251.368 747.524 247.349 755.09 246.524 755.09C245.803 755.09 244.03 753.73 242.669 752.122ZM250.647 731.342C252.564 727.631 252.42 727.467 248.709 729.487C246.462 730.621 244.607 732.455 244.607 733.507C244.607 736.888 248.379 735.527 250.647 731.342ZM91.4406 747.36C91.4406 743.422 93.9349 740.598 95.8726 742.453C97.3981 743.979 95.1512 751.153 93.131 751.153C92.1621 751.153 91.4406 749.462 91.4406 747.36ZM858.529 747.195C857.89 746.164 858.055 745.278 858.859 745.195C859.745 745.195 859.168 744.309 857.478 743.257C855.478 741.959 855.313 741.402 857.086 741.32C858.694 741.32 859.498 738.99 859.251 734.97C859.003 730.373 861.58 724.168 868.279 713.222C873.433 704.77 878.01 698.318 878.504 698.813C880.36 700.647 876.649 713.779 874.237 713.779C872.629 713.779 871.743 716.768 871.66 721.921C871.495 729.569 865.62 738.907 862.714 736.001C862.157 735.444 862.157 738.104 862.796 742.041C863.93 748.885 861.436 751.874 858.529 747.195ZM703.116 732.703C695.303 724.807 694.252 716.046 700.374 709.923C709.96 700.338 729.853 711.284 729.853 726.106C729.853 740.433 714.639 744.226 703.116 732.703ZM721.957 726.91C721.957 721.262 713.753 713.222 708.909 714.191C703.446 715.242 703.446 721.035 708.991 726.498C715.443 732.95 721.957 733.197 721.957 726.91ZM216.654 727.384C214.736 726.353 213.19 723.612 213.19 721.344C213.19 717.963 214.077 717.572 218.426 718.623C222.858 719.736 225.105 718.54 233.166 710.563C241.7 702.193 242.999 701.471 245.658 704.193C248.379 706.934 247.493 708.377 236.959 718.375C224.961 729.817 222.611 730.847 216.654 727.384ZM112.467 709.594C103.438 695.432 89.4205 669.725 89.4205 667.313C89.4205 666.2 98.0372 667.313 109.561 669.973C120.672 672.467 131.226 674.487 133.082 674.487C134.855 674.57 136.855 675.374 137.494 676.342C138.463 677.868 122.61 716.685 119.95 719.344C119.456 719.736 116.157 715.386 112.467 709.594ZM120.754 700.338C122.115 697.678 121.641 694.051 119.064 687.124C115.766 678.507 114.632 677.394 108.345 676.342L101.273 675.126L108.427 688.093C112.303 695.184 115.931 701.698 116.405 702.502C117.621 704.77 118.569 704.275 120.754 700.338ZM125.99 679.311C121.971 675.291 120.425 675.848 123.249 680.28C124.548 682.383 126.3 683.661 127.186 683.104C128.073 682.547 127.516 680.857 125.99 679.311ZM725.895 707.986C713.176 696.38 713.175 696.38 718.906 690.34C722.04 687.041 726.307 683.908 728.327 683.269C733.708 681.496 741.603 687.454 741.603 693.246C741.603 696.153 742.737 698.07 744.427 698.07C746.035 698.07 749.664 699.039 752.632 700.173C757.621 702.028 757.785 702.42 754.817 705.409C752.158 708.068 750.385 708.233 744.674 706.46C736.614 704.048 736.058 704.935 741.85 711.119C745.953 715.469 745.561 719.818 741.046 719.654C739.748 719.571 732.904 714.356 725.895 707.986ZM734.512 697.039C735.172 695.267 734.367 693.576 732.594 692.855C728.966 691.474 724.947 694.937 726.781 697.926C728.719 701.059 733.151 700.585 734.512 697.039ZM881.081 716.768C881.081 715.16 881.968 713.779 883.081 713.779C884.132 713.779 885.019 715.16 885.019 716.768C885.019 718.375 884.132 719.736 883.081 719.736C881.968 719.736 881.081 718.375 881.081 716.768ZM204.821 712.418C199.667 711.119 194.925 700.895 197.42 696.318C200.079 691.309 217.066 676.508 220.117 676.508C226.239 676.508 223.992 682.3 215.046 689.392C204.099 698.07 202.491 700.812 206.429 704.11C208.758 705.966 211.273 704.77 219.807 697.431C227.682 690.67 230.836 689.062 232.527 690.752C235.99 694.133 235.578 694.937 225.435 703.389C215.685 711.697 210.613 713.861 204.821 712.418ZM893.8 701.946C893.079 700.812 890.667 700.173 888.317 700.503C885.184 700.894 884.132 700.091 884.38 697.514C884.544 695.184 883.658 694.298 881.885 694.937C878.669 696.153 879.226 694.855 893.471 664.737C906.685 636.721 919.157 596.77 926.001 560.633C940.74 482.751 934.143 396.83 907.818 324.122C899.758 301.982 899.758 301.9 903.696 305.281C910.148 310.599 908.931 304.786 902.417 298.828C898.397 295.138 891.141 283.78 885.184 271.947C879.473 260.671 869.64 243.107 863.353 233.047C853.623 217.669 852.324 214.515 855.066 213.484C856.839 212.762 858.612 213.237 859.086 214.515C859.498 215.813 860.632 216.37 861.663 215.731C862.631 215.092 864.012 215.978 864.651 217.669C866.342 222.101 871.248 221.441 871.248 216.865C871.248 214.37 869.558 212.515 866.342 211.711C863.683 211.051 861.435 209.691 861.435 208.64C861.435 207.609 862.322 207.362 863.435 208.001C864.487 208.64 865.373 207.918 865.373 206.31C865.373 204.702 864.322 203.012 862.961 202.517C861.58 202.043 861.106 200.992 861.827 200.188C862.549 199.384 864.157 199.384 865.291 200.023C868.28 201.878 884.854 226.842 893.636 242.798C901.613 257.043 901.448 260.258 892.11 268.401C888.008 272.029 888.008 272.091 895.326 270.895C899.841 270.174 902.747 270.483 902.747 271.7C902.747 272.751 901.366 273.143 899.758 272.503C897.594 271.699 896.852 272.833 896.852 276.606C896.852 279.677 897.655 281.368 898.789 280.626C899.923 279.986 901.284 280.79 901.923 282.481C902.665 284.336 905.468 285.552 908.932 285.552C914.168 285.552 915.301 286.83 920.29 297.859C930.041 319.443 940.513 354.405 938.081 357.291C936.473 359.229 936.72 360.363 939.297 361.806C941.317 362.939 942.121 364.939 941.399 366.877C940.74 368.567 940.905 370.01 941.791 370.01C942.678 370.01 944.038 373.329 944.698 377.431C945.419 381.451 947.275 392.006 948.8 400.87C953.954 429.607 956.118 473.825 953.789 504.17C952.655 519.404 950.965 532.762 949.996 533.896C949.048 535.092 948.635 538.72 949.047 541.936C949.769 548.141 946.306 569.971 944.038 573.352C943.317 574.465 942.513 577.846 942.348 581C942.204 584.051 940.183 589.617 937.936 593.245C934.947 598.069 934.535 599.924 936.39 599.924C938.163 600.007 937.771 600.976 935.359 602.81C932.617 604.913 931.958 607.077 932.845 611.427C934.391 619.24 923.836 650.327 909.344 680.61C898.397 703.389 896.46 706.131 893.8 701.946ZM920.373 627.383C920.373 625.198 920.043 623.425 919.651 623.425C919.239 623.425 918.435 625.198 917.878 627.383C917.239 629.547 917.631 631.32 918.6 631.32C919.569 631.32 920.373 629.547 920.373 627.383ZM842.182 695.493C840.079 690.113 840.244 688.897 843.233 686.238C845.171 684.63 850.963 674.57 856.199 663.933L865.62 644.617L858.117 645.977C854.015 646.781 850.551 647.503 850.386 647.668C846.923 651.935 839.77 670.137 840.491 672.797C840.965 674.817 840.656 676.508 839.687 676.508C838.718 676.508 837.914 677.394 837.914 678.424C837.914 679.558 839.192 680.445 840.821 680.445C844.511 680.445 844.676 683.578 841.13 684.959C839.275 685.681 835.75 680.032 829.627 666.839L820.763 647.668L844.594 641.463C857.643 638.082 870.362 634.784 872.774 634.062C879.391 632.207 878.67 634.701 863.271 666.344C845.171 703.554 845.233 703.471 842.182 695.493ZM837.914 654.759C837.914 653.79 836.554 652.904 835.008 652.904C833.235 652.904 832.514 654.12 833.235 655.893C834.369 658.861 837.914 658.057 837.914 654.759ZM752.075 684.155C743.129 677.146 741.521 676.59 737.975 678.754C729.358 684.155 730.327 675.848 739.583 664.737C743.933 659.501 745.87 658.387 747.561 660.077C749.169 661.685 749.251 663.458 747.891 665.953C746.2 668.921 747.725 670.776 757.559 678.115C766.897 685.042 768.752 687.289 766.979 689.474C763.908 693.164 763.661 693.081 752.075 684.155ZM184.68 686.815C183.567 686.011 180.66 682.774 178.248 679.641C172.93 672.797 173.507 671.91 190.885 660.552C203.769 652.182 203.769 652.182 207.562 657.006C215.21 666.839 214.406 676.817 205.872 678.033C203.687 678.424 200.966 680.857 199.749 683.496C197.564 688.34 189.36 690.113 184.68 686.815ZM192.905 677.394C193.235 676.343 192.658 674.24 191.689 672.714C190.246 670.385 189.442 670.303 186.783 672.467C184.371 674.487 184.206 675.704 185.979 677.786C188.391 680.692 191.936 680.445 192.905 677.394ZM205.377 667.808C205.377 666.2 204.429 664.345 203.213 663.623C200.471 661.933 196.698 665.705 198.389 668.447C200.306 671.581 205.377 671.106 205.377 667.808ZM169.075 664.901C168.353 662.49 168.663 659.5 169.796 658.057C172.765 654.512 167.22 647.111 162.375 648.307C160.128 648.966 158.273 648.08 157.469 645.895C155.696 641.38 155.387 641.545 173.507 637.938C199.749 632.702 201.914 636.886 182.99 656.285C171.405 668.117 170.27 668.859 169.075 664.901ZM183.155 643.813C181.3 641.957 174.311 645.812 175.26 648.307C176.228 650.657 176.95 650.574 180.104 647.75C182.103 645.977 183.485 644.204 183.155 643.813ZM881.968 587.844C867.063 568.425 866.898 570.446 883.658 570.446H898.46L895.573 582.691C893.965 589.452 892.028 595.657 891.224 596.461C890.42 597.265 886.317 593.307 881.968 587.844ZM68.0844 513.673C77.835 502.315 79.6077 502.17 79.6077 512.539C79.6077 521.321 79.6079 521.321 70.5788 521.321H61.4875L68.0844 513.673ZM873.268 511.096V500.871L880.277 507.633C892.275 519.157 892.584 521.321 882.132 521.321C873.268 521.321 873.268 521.321 873.268 511.096ZM44.9754 462.219C45.7794 444.594 46.9132 429.689 47.4698 429.05C48.1089 428.473 53.4275 433.318 59.3851 439.749L70.1868 451.582L60.9931 459.642C53.8398 466.012 51.9845 468.898 52.4586 472.774C53.1183 477.598 53.5923 477.433 67.198 465.682C74.9284 459.003 81.3805 452.881 81.4629 451.994C81.5454 451.19 74.1242 442.574 65.1156 432.905C52.3964 419.3 48.8507 414.311 49.6547 411.178C50.6236 407.385 51.263 407.632 58.4163 414.62C62.7041 418.743 72.3512 428.886 79.8549 437.173L93.543 452.242L70.826 472.526C58.2717 483.72 47.0781 493.141 45.8618 493.553C44.2539 494.11 44.0065 485.658 44.9754 462.219ZM57.1379 452.407C57.8594 451.19 57.6119 449.418 56.5812 448.284C55.2824 447.088 54.2313 447.809 53.5923 450.469C52.4585 454.736 54.8909 456.014 57.1379 452.407ZM884.05 473.887C872.135 463.105 862.157 453.437 861.745 452.468C861.106 450.469 900.562 407.384 903.139 407.384C908.705 407.384 902.747 417.692 888.008 433.544L871.248 451.582L884.544 463.745C891.863 470.445 898.459 475.99 899.284 476.072C900.088 476.072 900.727 473.66 900.644 470.754C900.644 466.651 898.46 463.662 891.698 458.591L882.854 451.912L894.275 440.388C904.994 429.524 905.716 429.133 906.932 433.317C908.766 439.667 908.932 493.78 907.076 493.697C906.273 493.636 895.883 484.771 884.05 473.887ZM900.727 449.17C900.727 444.099 900.562 444.016 897.346 447.315C894.274 450.304 894.192 450.943 896.852 452.551C900.892 455.128 900.809 455.21 900.809 449.17H900.727ZM97.3982 437.42C95.0688 434.513 87.503 426.144 80.5765 418.826C73.5676 411.404 67.8573 404.478 67.8573 403.365C67.8573 401.592 116.879 368.093 119.538 368.093C121.002 368.093 146.44 403.509 146.44 405.612C146.44 407.384 105.046 442.738 102.964 442.738C102.16 442.738 99.6452 440.327 97.3982 437.42ZM127.598 412.786L137.349 404.168L127.928 390.955C118.981 378.545 118.26 377.905 114.24 380.4C111.972 381.946 102.799 387.821 93.935 393.449L77.7525 403.756L90.8014 418.248L103.933 432.658L110.921 427.03C114.797 423.979 122.28 417.527 127.598 412.786ZM97.8103 413.342C94.2646 409.157 91.4406 405.138 91.4406 404.56C91.4406 403.117 112.22 389.677 114.385 389.677C116.652 389.738 125.351 402.952 124.547 405.138C123.661 407.385 107.231 421.155 105.458 421.073C104.737 421.073 101.356 417.609 97.8103 413.342ZM114.158 405.199C116.57 401.344 112.055 399.407 107.623 402.561C102.305 406.251 103.686 412.208 109.149 409.322C111.169 408.188 113.415 406.415 114.158 405.199ZM828.081 424.927C816.743 415.28 807.549 406.251 807.632 404.89C807.962 401.674 831.957 368.093 834.039 368.093C835.585 368.093 882.36 398.355 885.74 401.592C887.348 403.035 852.489 442.903 849.83 442.573C849.191 442.573 839.44 434.596 828.081 424.927ZM857.643 423.567C877.927 401.674 878.092 405.282 855.705 390.563C844.676 383.389 835.42 377.741 835.173 378.153C829.854 384.832 818.186 401.674 817.774 403.282C817.218 405.529 845.398 430.658 848.778 430.823C849.912 430.906 853.932 427.587 857.643 423.567ZM836.863 412.538C827.133 404.004 827.133 404.004 832.596 396.83C835.668 392.893 838.554 389.677 839.193 389.677C840.821 389.677 863.435 403.591 863.435 404.56C863.435 406.024 849.273 421.155 847.892 421.155C847.171 421.155 842.264 417.279 836.863 412.538ZM849.582 408.518C851.438 406.251 850.964 405.055 846.923 402.396C839.852 397.799 836.471 400.705 842.017 406.58C847.253 412.126 846.614 411.982 849.582 408.518ZM57.55 368.98C58.1066 366.073 60.8485 362.774 64.1468 361.084C70.4961 357.786 70.9086 356.57 67.1155 351.416C64.3944 347.623 64.951 340.552 68.0019 340.552C69.4656 340.552 73.7327 346.427 80.2469 357.621C81.1333 359.064 77.2783 362.527 70.022 366.959C56.2515 375.329 56.3337 375.329 57.55 368.98ZM883.74 366.877L871.578 360.033L878.669 348.035C885.575 336.45 885.905 336.285 887.513 341.109C888.647 344.654 888.317 347.953 886.235 351.972C883.328 357.456 883.411 357.786 888.317 360.363C892.584 362.692 898.068 371.391 896.377 373.082C896.047 373.391 890.337 370.588 883.658 366.877H883.74ZM82.494 343.603C74.846 331.605 75.0105 330.327 84.1222 325.565C90.9662 322.02 90.3893 321.545 100.697 338.614C104.964 345.871 104.964 345.871 97.2334 350.2C89.5029 354.549 89.503 354.549 82.494 343.603ZM91.4406 338.697C88.3072 332.822 85.1532 331.77 87.8125 337.481C89.0288 340.305 90.8838 342.552 91.7702 342.552C92.7391 342.552 92.5744 340.779 91.4406 338.697ZM856.035 350.447C848.469 345.788 848.552 345.932 853.932 336.924C861.91 323.566 863.126 322.679 869.393 325.895C872.465 327.503 875.516 329.668 876.237 330.884C877.453 332.822 865.785 354.322 863.518 354.322C862.879 354.322 859.58 352.55 856.035 350.447ZM865.455 338.45C868.671 332.409 866.507 331.77 862.631 337.563C860.858 340.305 860.302 342.552 861.353 342.552C862.384 342.552 864.239 340.717 865.455 338.45ZM872.691 315.753C868.115 313.32 867.62 312.372 869.393 308.971C871.887 304.394 874.711 305.672 877.371 312.516C879.783 318.969 879.309 319.216 872.691 315.753ZM75.7324 314.454C75.7324 313.011 76.8663 310.269 78.2268 308.332C80.6593 305.116 80.9685 305.033 83.5453 308.167C86.0396 311.156 85.8954 311.877 82.5765 314.289C77.9176 317.67 75.7324 317.752 75.7324 314.454ZM821.402 298.354C815.362 287.964 810.373 279.1 810.373 278.626C810.373 277.327 824.865 277.575 840.326 279.018L853.54 280.234L845.398 295.221C831.792 320.02 833.977 319.773 821.402 298.354ZM832.286 287.243C828.328 286.604 824.865 286.192 824.556 286.522C824.226 286.831 825.917 290.376 828.329 294.396L832.678 301.735L836.059 295.138C839.522 288.521 839.522 288.521 832.286 287.243ZM108.262 298.189C103.109 288.933 99.3361 280.955 99.8102 280.399C100.387 279.904 110.282 278.935 121.97 278.296L143.224 277.101L139.184 283.78C137.02 287.49 131.948 296.025 127.928 302.786C123.888 309.548 119.95 315.011 119.146 315.011C118.342 315.011 113.498 307.445 108.262 298.189ZM127.681 285.862C126.712 284.831 113.024 287.49 113.024 288.686C113.024 289.243 114.385 292.396 116.158 295.777C119.312 301.735 119.312 301.735 123.806 294.169C126.382 289.984 128.073 286.274 127.681 285.862ZM111.334 247.127C111.808 244.88 114.797 242.633 119.064 241.417C125.578 239.562 125.908 239.005 124.692 233.13C123.723 228.368 124.218 225.956 126.794 223.709C130.732 220.163 131.144 221.215 133.721 238.922C135.081 248.261 135.082 248.261 127.516 248.261C123.331 248.261 117.848 248.838 115.271 249.559C111.499 250.528 110.777 250.116 111.334 247.127ZM829.462 248.261C823.257 247.704 818.021 246.818 817.939 246.261C817.053 242.798 820.846 218.782 822.289 218.782C825.669 218.782 828.246 226.76 826.968 233.521C825.669 240.138 825.917 240.365 831.545 240.365C837.193 240.365 842.903 244.55 841.542 247.704C841.13 248.508 835.75 248.838 829.462 248.261ZM236.959 189.076C223.745 168.544 212.551 150.589 211.994 149.063C210.861 146.157 223.992 136.262 228.898 136.262C230.589 136.262 240.257 141.89 250.564 148.734C260.789 155.578 271.653 162.752 274.724 164.751C279.218 167.658 277.776 164.751 267.221 149.867C246.936 121.275 247.183 121.997 256.687 115.709C261.036 112.823 264.891 110.72 265.139 111.133C265.448 111.442 277.302 129.171 291.464 150.424L317.232 189.076L309.027 195.116C304.513 198.415 299.915 201.074 298.802 201.074C297.586 201.074 286.31 194.477 273.591 186.417C260.954 178.378 250.564 172.007 250.564 172.399C250.564 172.729 256.831 182.645 264.5 194.313C279.878 217.669 279.796 216.452 266.025 223.791C260.872 226.45 260.871 226.451 236.959 189.076ZM670.895 212.103C661.722 207.444 661.247 206.228 663.907 194.23C665.185 188.747 664.546 187.943 654.795 182.068C644.406 175.801 644.406 175.801 638.366 181.593C635.067 184.727 631.769 187.386 630.965 187.386C628.553 187.386 613.978 177.553 613.978 175.945C613.978 175.058 627.831 162.092 644.735 147.043C691.448 105.567 684.996 109.607 695.385 115.709C700.292 118.616 704.724 121.688 705.281 122.574C706.249 124.182 683.717 209.444 681.058 214.205C680.089 215.896 677.265 215.339 670.895 212.103ZM676.791 154.217C679.038 147.373 680.646 141.416 680.254 141.003C679.842 140.612 674.688 145.271 668.813 151.311C662.938 157.351 659.145 162.669 660.361 163.143C661.474 163.556 664.134 165.164 666.236 166.689C670.978 170.152 671.699 169.266 676.791 154.217ZM852.736 201.239C852.076 200.27 852.571 196.972 853.705 193.983C856.199 187.386 859.415 190.684 857.972 198.25C857.086 203.177 854.736 204.455 852.736 201.239ZM848.222 185.139C847.809 179.985 851.128 178.687 853.458 183.119C855.066 186.17 854.736 187.056 852.015 187.798C849.664 188.437 848.387 187.551 848.222 185.139ZM313.047 141.642C303.626 119.75 295.422 100.496 294.762 98.723C293.876 96.3935 296.061 94.6204 303.626 91.487C313.604 87.3023 313.604 87.3024 316.675 94.6206C318.366 98.6404 326.653 117.729 335.187 136.983C343.639 156.299 350.091 172.977 349.452 174.028C348.071 176.275 336.239 181.511 332.61 181.428C331.25 181.428 322.468 163.638 313.047 141.642ZM592.312 169.905C588.519 168.07 585.716 165.328 586.025 163.865C586.437 162.422 593.116 144.796 601.012 124.656C608.907 104.598 615.978 86.086 616.782 83.6741C618.328 78.8297 619.606 78.9122 632.82 84.4781C640.386 87.6115 641.602 82.3754 621.297 134.324C614.37 152.114 608.103 168.297 607.444 170.152C605.918 174.502 601.177 174.419 592.312 169.905ZM372.788 158.567C348.793 146.714 338.424 95.5071 356.049 76.418C370.376 60.9571 395.979 59.4315 408.554 73.2844C412.265 77.3867 412.265 77.4693 405.73 84.1485C399.216 90.91 399.216 90.9099 394.372 87.055C387.94 82.0662 379.24 82.2105 374.004 87.3642C370.294 91.0748 369.984 93.26 370.788 106.618C372.231 132.716 384.064 146.631 398.721 139.643C404.761 136.819 405.174 136.014 403.957 130.057C402.762 124.264 401.793 123.44 395.505 122.883C389.135 122.327 388.249 121.605 386.497 114.678C384.95 108.556 385.115 106.866 387.383 105.979C392.289 104.041 416.12 98.8051 416.759 99.5266C417.089 99.8565 419.583 109.278 422.242 120.389C427.788 143.106 427.561 144.054 415.316 153.083C403.236 162.03 384.641 164.36 372.726 158.567H372.788ZM562.359 160.401C553.495 159.453 552.527 157.763 548.012 136.819C545.848 126.903 543.435 120.306 541.663 119.585C537.705 118.142 537.952 117.565 534.324 135.376C532.551 143.91 530.716 151.558 530.304 152.197C528.861 154.609 509.854 149.538 509.854 146.713C509.854 144.384 523.543 74.8925 526.594 61.8435C527.645 57.4939 528.284 57.267 537.952 58.5451C558.979 61.2869 572.749 65.8838 579.758 72.4804C585.798 78.1082 586.437 79.8812 586.437 89.3845C586.437 101.712 581.51 111.215 572.667 116.286C565.575 120.306 565.575 120.224 571.698 141.333C576.522 158.072 576.604 162.092 572.09 161.453C570.812 161.288 566.462 160.814 562.442 160.401H562.359ZM562.03 98.0014C567.905 88.9928 560.669 79.3245 547.95 79.3245C544.322 79.3245 540.364 99.135 543.683 101.217C549.145 104.68 558.732 102.99 562.03 98.0014ZM440.115 103.794C439.311 78.3556 438.981 57.1846 439.394 56.7723C439.785 56.3806 452.443 55.8034 467.574 55.5767L495.033 55.0819L495.672 64.2552L496.249 73.4492H479.489C462.668 73.4492 462.668 73.4495 462.668 82.1488C462.668 90.91 462.668 90.9098 476.912 91.487C491.178 92.0436 491.178 92.0438 491.734 99.6918C492.538 109.36 490.518 110.638 474.912 110.721C462.667 110.721 462.668 110.72 462.668 120.471V130.222L480.788 130.778C498.99 131.335 498.99 131.335 498.99 140.199V149.063L470.233 149.62L441.558 150.094L440.115 103.794Z" fill="#22924A"/>
</svg>
