<svg width="959" height="960" viewBox="0 0 959 960" fill="none" xmlns="http://www.w3.org/2000/svg">
<path fill-rule="evenodd" clip-rule="evenodd" d="M434.722 958.861C255.343 941.939 97.5229 822.241 32.3784 653.603C-36.3842 475.695 6.39218 274.363 141.543 139.513C215.375 65.8323 308.71 19.2301 414.275 3.40089C444.294 -1.08404 517.617 -1.15881 546.618 3.32612C675.136 23.2068 786.732 89.5198 863.428 191.618C881.914 216.21 903.999 252.277 903.999 257.798C903.999 260.003 904.809 261.699 905.77 261.473C906.713 261.341 908.993 264.639 910.84 268.917C913.647 275.249 913.779 276.416 911.575 275.606C910.105 275.022 908.936 275.399 908.936 276.417C908.936 277.378 908.126 277.754 907.24 277.227C906.355 276.643 905.092 277.019 904.433 277.962C901.719 282.541 897.818 278.622 890.017 263.621C878.597 241.461 853.647 204.281 836.499 183.891C717.762 42.5593 532.994 -15.8767 357.441 32.2515C289.564 50.8885 221.631 88.2011 170.978 134.577C89.3447 209.445 41.2162 297.617 22.372 406.857C17.0014 438.063 16.4738 516.172 21.411 547.962C36.5053 644.916 78.3019 730.3 145.218 800.815C209.194 868.315 299.137 917.724 391.154 935.89C448.063 947.159 518.427 946.5 575.921 934.345C598.214 929.559 605.281 928.239 602.115 929.351C598.874 930.444 599.25 938.699 602.492 938.699C607.485 938.699 605.205 943.767 599.401 945.613C590.412 948.478 570.475 952.68 551.028 955.77C533.729 958.503 453.509 960.632 434.665 958.861H434.722ZM618.17 936.494C616.041 933.177 612.272 925.959 612.272 925.149C612.272 924.791 614.119 924.49 616.399 924.49C618.603 924.49 621.26 923.755 622.146 922.945C623.107 922.059 628.911 919.704 635.168 917.649C646.06 914.031 646.436 914.03 643.421 917.347C641.725 919.194 640.84 921.474 641.424 922.435C642.008 923.378 641.217 924.64 639.728 925.224C638.107 925.809 637.165 927.881 637.523 930.086C637.9 933.101 636.638 934.42 631.851 936.191C623.692 939.131 619.941 939.207 618.17 936.494ZM446.216 934.138C412.203 930.822 380.997 925.224 356.556 918.082C213.17 876.135 102.535 772.416 52.0329 632.554C17.7364 537.447 17.3597 428.056 50.9966 330.82C102.818 181.102 230.978 67.7357 385.858 34.6829C450.419 20.9266 526.304 22.2456 589.395 38.2255C740.582 76.5735 861.223 188.603 910.538 336.418C941.462 428.867 941.462 532.077 910.614 624.678C873.076 737.291 789.464 833.943 684.709 885.765C673.233 891.437 663.509 896.072 663.076 896.072C662.623 896.072 662.341 894.452 662.473 892.474C662.699 890.325 663.735 889.232 665.055 889.741C666.317 890.193 667.127 889.816 666.901 888.779C666.675 887.837 672.423 883.786 679.772 879.81C728.371 853.447 759.86 830.419 794.383 795.821C864.106 726.041 907.165 640.205 921.223 542.818C926.292 507.635 926.292 452.196 921.223 417.673C899.571 270.085 809.929 145.977 677.134 79.5128C633.189 57.5781 588.132 43.8225 535.067 36.1528C507.818 32.1767 440.469 33.2889 411.618 38.1507C316.003 54.1872 231.487 97.396 164.722 164.312C-7.59001 337.076 -9.28609 617.385 160.971 791.921C227.887 860.514 312.686 904.835 408.019 921.248C434.363 925.733 494.722 927.505 524.232 924.64C554.929 921.625 588.057 914.615 618.396 904.76C633.038 899.973 645.701 896.072 646.512 896.072C647.397 896.072 647.831 897.843 647.473 899.973C646.511 906.681 594.106 922.568 549.275 929.785C527.115 933.328 464.91 935.891 446.216 934.138ZM668.145 917.781C667.41 916.103 666.901 914.106 667.052 913.371C667.259 912.636 665.94 911.978 664.244 911.902C662.416 911.827 662.04 911.468 663.359 910.865C664.621 910.356 665.563 909.037 665.563 907.774C665.563 904.985 681.769 897.108 683.164 899.238C683.748 900.123 686.631 901.67 689.571 902.631C696.562 904.911 696.336 908.51 688.986 911.525C685.67 912.863 683.54 913.145 684.2 912.128C684.784 911.091 684.049 910.28 682.579 910.28C681.034 910.28 679.772 909.169 679.772 907.925C679.772 906.606 678.679 905.569 677.284 905.569C674.702 905.569 674.477 911.317 676.907 915.218C677.718 916.537 676.983 917.857 674.986 918.535C673.233 919.195 671.311 920.004 670.651 920.287C670.067 920.588 668.88 919.477 668.145 917.781ZM459.539 901.443C459.539 891.135 459.087 889.232 456.882 890.118C451.889 892.021 454.169 885.557 459.464 882.749C462.328 881.279 465.136 880.092 465.72 880.092C466.229 880.092 466.681 887.687 466.681 896.958C466.681 912.636 466.38 913.824 463.139 913.824C459.897 913.824 459.539 912.636 459.539 901.443ZM473.748 911.469C473.748 910.131 475.369 907.548 477.347 905.796C479.345 903.949 482.642 899.822 484.64 896.581C487.73 891.587 487.956 890.193 486.034 887.837C483.905 885.331 483.396 885.407 480.814 888.648C477.121 893.133 471.751 890.853 474.766 885.991C479.552 878.341 489.426 878.415 492.95 886.217C495.381 891.512 493.61 897.184 488.164 902.103C483.019 906.757 483.453 908.509 489.709 908.509C493.327 908.509 495.098 909.396 495.098 911.167C495.098 913.221 492.743 913.824 484.414 913.824C476.688 913.824 473.748 913.146 473.748 911.469ZM504.37 912.636C503.107 912.203 501.279 910.131 500.243 908.227C498.472 904.835 498.773 904.759 506.499 905.947C513.792 906.964 514.602 906.757 514.602 903.647C514.602 901.669 512.68 899.314 510.099 898.127C505.463 895.997 505.614 892.548 510.249 892.548C511.719 892.548 512.831 890.927 512.831 888.93C512.831 886.574 511.662 885.407 509.307 885.407C507.309 885.407 505.764 886.216 505.764 887.159C505.764 888.12 504.143 888.93 502.165 888.93C498.113 888.93 497.887 888.27 500.469 883.484C502.598 879.508 514.3 878.623 517.843 882.241C520.406 884.803 520.632 891.87 518.126 893.416C517.033 894.094 517.391 895.564 519.012 897.185C527.115 905.269 515.77 917.272 504.37 912.636ZM416.405 909.037C414.86 906.305 411.034 876.493 412.127 875.381C415.293 872.215 418.459 877.078 419.571 887.028C420.306 892.982 421.342 897.844 422.001 897.844C422.661 897.768 425.017 893.415 427.372 888.044C430.236 881.43 432.592 878.34 434.797 878.34C439.659 878.34 426.11 909.169 420.89 909.904C418.911 910.281 416.914 909.847 416.405 909.037ZM539.477 906.607C539.477 903.139 538.817 902.838 533.296 903.723C529.904 904.251 526.587 903.949 526.003 902.912C524.533 900.482 532.711 878.038 535.5 877.002C539.627 875.381 539.703 877.605 536.009 887.028C531.675 897.995 531.675 897.844 535.067 897.844C536.819 897.844 537.705 896.072 537.705 892.548C537.705 888.346 538.515 887.159 541.248 887.159C543.886 887.159 544.847 888.347 544.847 891.588C544.847 894.377 545.808 896.072 547.504 896.072C548.974 896.072 550.143 897.259 550.143 898.729C550.143 900.199 549.407 901.368 548.54 901.368C547.579 901.368 546.619 903.215 546.242 905.344C545.507 910.79 539.477 911.902 539.477 906.607ZM397.259 907.342C395.714 906.889 393.811 903.365 392.85 899.238C390.645 889.382 387.403 888.705 385.858 897.769C384.596 905.137 383.861 905.872 380.111 903.516C378.34 902.329 378.49 898.937 380.771 887.102C382.391 878.849 384.313 871.424 384.973 870.67C386.669 868.691 402.121 872.819 404.703 875.834C407.944 879.81 407.133 887.687 403.157 890.269C400.274 892.247 399.765 894.018 400.5 900.557C401.009 904.91 401.084 908.359 400.726 908.302C400.35 908.151 398.804 907.7 397.259 907.342ZM398.88 882.317C399.181 880.093 398.653 878.34 397.636 878.34C396.675 878.34 394.753 877.812 393.283 877.303C390.343 876.135 387.479 882.316 389.458 885.482C391.531 888.855 398.22 886.575 398.88 882.317ZM555.381 903.949C552.291 900.199 555.607 896.882 560.167 899.238C564.878 901.669 567.894 899.974 567.894 894.98C567.894 889.308 563.993 887.969 558.321 891.663C553.026 895.111 552.498 894.376 551.556 882.391C550.953 874.872 550.952 874.872 559.508 873.026C570.324 870.67 569.665 870.614 569.665 874.722C569.665 877.078 568.478 878.265 566.273 878.265C561.053 878.265 557.209 880.168 557.209 882.825C557.209 884.521 558.905 884.878 563.183 884.219C569.948 883.126 575.035 887.97 575.035 895.564C575.035 904.459 560.902 910.582 555.381 903.949ZM437.303 901.292C436.644 900.199 436.794 898.579 437.68 897.693C439.885 895.413 451.003 897.769 450.192 900.275C449.231 902.989 438.848 903.874 437.303 901.292ZM702.46 899.314C699.728 898.353 697.523 896.732 697.523 895.715C697.523 894.754 696.336 894.376 694.866 894.904C688.459 897.391 693.038 892.473 701.047 888.271C710.469 883.334 712.542 882.674 710.996 885.18C710.469 886.066 711.204 887.762 712.617 888.93C714.897 890.852 714.897 891.738 712.542 896.223C709.659 901.895 709.527 901.895 702.46 899.314ZM359.872 898.277C357.29 897.693 357.366 896.581 360.306 885.765C364.206 871.273 364.357 869.427 361.041 869.427C357.668 869.427 355.67 865.959 357.875 863.83C360.758 860.89 379.602 867.222 379.602 871.047C379.602 873.478 378.566 874.063 375.475 873.479C371.725 872.744 371.066 873.705 368.258 883.937C364.659 897.335 363.622 899.088 359.872 898.277ZM584.307 898.428C583.063 897.995 580.84 895.263 579.37 892.474C571.568 877.304 582.102 859.647 593.729 868.541C598.063 871.782 594.766 874.646 588.208 873.403C584.684 872.743 583.873 873.327 583.873 876.417C583.873 879.659 584.382 879.961 587.397 878.34C593.578 875.024 601.606 881.864 601.606 890.325C601.606 897.184 592.108 901.594 584.307 898.428ZM594.238 889.383C594.615 886.952 593.654 884.954 591.882 884.295C587.831 882.75 585.042 886.067 586.512 890.702C588.057 895.64 593.428 894.754 594.238 889.383ZM651.373 893.566C651.373 893.208 652.542 892.473 654.012 891.87C655.482 891.286 656.669 891.588 656.669 892.624C656.669 893.491 655.482 894.301 654.012 894.301C652.542 894.301 651.373 894.019 651.373 893.566ZM729.464 887.159C729.464 886.141 730.726 885.331 732.272 885.331C733.741 885.331 734.552 886.141 733.874 887.159C733.29 888.12 732.046 888.93 731.16 888.93C730.199 888.93 729.464 888.12 729.464 887.159ZM721.964 882.391C717.46 881.204 718.063 879.075 724.169 874.722C729.389 870.972 729.464 870.972 729.464 874.439C729.464 878.849 727.693 883.635 726.148 883.409C725.563 883.258 723.66 882.825 721.964 882.391ZM747.215 872.009C742.787 869.352 742.787 869.352 747.95 870.539C752.718 871.632 753.019 871.425 751.851 867.448C751.116 865.093 750.23 862.002 749.853 860.513C749.345 858.836 754.564 853.748 764.439 846.305C787.184 829.232 829.131 786.682 847.749 761.958C895.821 697.699 920.846 640.13 937.335 555.482C939.483 544.797 941.104 542.31 943.516 546.21C944.119 547.153 945.513 547.454 946.549 546.795C947.642 546.135 947.944 546.417 947.284 547.529C946.625 548.64 947.793 550.469 949.847 551.581C954.785 554.219 953.974 562.473 945.079 597.882C925.123 677.517 883.384 752.838 826.267 812.235C806.612 832.7 774.954 860.513 771.355 860.513C770.243 860.513 768.415 862.059 767.152 864.057C765.984 866.035 764.213 867.58 763.176 867.58C762.215 867.58 759.86 869.2 757.881 871.198C753.679 875.325 753.019 875.382 747.215 872.009ZM736.606 868.314C736.606 866.769 737.567 865.827 738.66 866.26C741.977 867.372 742.504 871.198 739.395 871.198C737.85 871.198 736.606 869.86 736.606 868.314ZM473.748 846.305C473.748 832.323 473.597 832.115 469.263 832.115C466.022 832.115 464.835 831.153 464.835 828.572C464.835 825.331 466.022 824.973 477.272 824.973C488.541 824.973 489.709 825.331 489.709 828.572C489.709 831.153 488.541 832.115 485.299 832.115C480.89 832.115 480.814 832.323 480.814 846.305C480.814 859.345 480.513 860.513 477.272 860.513C474.031 860.513 473.748 859.345 473.748 846.305ZM497.812 858.384C497.454 857.14 496.644 849.188 496.116 840.803C495.098 825.482 495.098 825.482 501.713 824.37C512.096 822.618 514.301 822.976 518.126 826.726C522.328 830.928 522.762 837.843 519.087 840.934C516.807 842.856 516.882 843.95 519.973 849.923C524.307 858.535 524.307 858.761 519.313 858.761C516.072 858.761 514.451 857.065 512.247 851.468C508.704 842.404 504.803 843.007 504.803 852.637C504.803 857.8 503.993 859.703 501.713 860.155C500.017 860.438 498.264 859.703 497.812 858.384ZM513.264 836.958C514.678 832.925 512.454 830.344 507.535 830.344C503.258 830.344 502.749 830.852 503.484 834.753C504.37 839.539 511.795 841.235 513.264 836.958ZM432.083 857.065C431.424 856.028 431.348 851.544 431.857 847.191C432.441 842.781 433.327 835.564 433.854 831.23C434.665 824.747 435.532 823.202 438.415 823.202C440.997 823.202 443.201 826.066 446.876 834.32L451.888 845.438L453.132 835.206C454.093 828.139 455.262 824.973 456.958 824.973C459.841 824.973 460.048 828.648 458.352 846.757C457.41 856.989 456.732 858.761 453.792 858.761C451.361 858.761 449.005 855.67 445.406 847.643C440.318 836.524 440.318 836.525 439.3 842.781C438.697 846.173 438.038 850.884 437.831 853.239C437.228 857.875 433.93 860.08 432.083 857.065ZM411.109 854.634C402.422 853.24 400.952 852.43 400.952 849.188C400.952 844.251 405.588 819.659 406.757 818.567C407.265 818.039 412.58 818.566 418.534 819.734C431.122 822.24 432.159 825.859 420.306 825.859C413.597 825.859 412.353 826.443 411.92 829.76C411.467 832.85 412.353 833.736 416.329 834.17C419.42 834.528 421.549 835.94 421.926 837.994C422.435 840.726 421.7 841.009 416.179 839.992C412.203 839.238 409.772 839.465 409.772 840.652C409.772 841.594 409.339 843.591 408.811 845.06C408.076 846.983 409.847 847.925 415.877 848.811C421.041 849.621 423.98 850.959 423.98 852.504C423.98 856.179 422.359 856.481 411.109 854.634ZM538.817 853.974C538.233 853.315 537.63 850.432 537.63 847.492C537.63 844.025 535.218 838.88 530.563 832.774C522.253 821.807 522.178 821.43 527.473 821.43C529.904 821.43 532.862 823.503 534.992 826.726C539.552 833.585 540.588 833.434 541.983 826.066C543.019 820.62 547.429 816.437 549.709 818.717C550.218 819.151 549.2 824.087 547.504 829.533C545.375 836.223 544.697 842.121 545.432 847.341C546.317 854.125 546.034 855.143 543.227 855.143C541.474 855.143 539.477 854.634 538.817 853.974ZM606.317 827.535C603.528 820.111 601.53 813.78 601.907 813.478C603 812.461 616.248 807.221 617.793 807.221C621.487 807.221 618.905 812.31 614.269 814.213C610.519 815.758 609.332 817.304 609.992 819.659C610.651 822.392 611.612 822.693 615.23 821.28C617.661 820.394 620.375 820.111 621.26 820.62C624.275 822.466 622.956 824.897 618.321 826.066C613.741 827.253 613.459 829.232 616.908 838.146C617.661 840.124 616.908 840.934 614.627 840.934C612.065 840.934 610.067 837.693 606.317 827.461V827.535ZM628.478 819.659C622.221 805.677 621.844 803.698 625.463 803.698C626.932 803.698 630.174 808.484 632.887 814.439C636.562 822.749 638.333 824.898 640.538 824.013C645.042 822.015 650.036 822.166 650.771 824.314C651.298 825.916 638.861 832.115 635.092 832.115C634.508 832.115 631.568 826.518 628.478 819.659ZM648.716 810.689C642.818 799.42 641.65 793.013 645.475 793.088C647.831 793.088 660.72 819.15 659.458 821.28C657.102 825.049 655.274 823.202 648.716 810.689ZM661.813 807.071C652.542 797.215 656.084 782.423 667.711 782.423C672.78 782.423 677.567 786.682 674.477 788.604C673.44 789.188 671.16 789.264 669.332 788.68C663.434 786.833 660.928 792.202 664.395 799.42C667.787 806.486 671.537 808.617 675.362 805.47C678.961 802.436 678.603 800.155 674.552 800.155C668.88 800.155 668.597 796.914 673.968 794.2C678.829 791.694 679.037 791.769 682.862 797.649C687.517 804.583 687.649 805.47 684.634 805.47C683.39 805.47 681.392 807.071 680.149 809.068C676.681 814.665 667.994 813.704 661.813 807.071ZM446.216 800.08C429.068 798.403 401.688 792.58 382.24 786.475C366.637 781.613 328.874 764.163 314.816 755.325C275.884 730.884 236.499 691.725 213.245 654.489C179.231 599.86 165.099 546.417 167.002 479.595C168.114 444.112 170.695 427.774 180.042 397.077C209.043 301.819 288.245 222.315 385.123 191.335C419.194 180.443 438.49 177.711 480.814 177.786C515.111 177.937 521.292 178.37 541.398 182.648C570.984 188.904 590.186 195.669 620.224 210.537C706.493 253.163 768.999 335.098 788.503 431.298C794.458 460.601 794.382 520.45 788.428 548.848C775.482 610.318 748.685 661.028 705.475 705.726C637.749 775.94 544.696 809.804 446.216 800.08ZM525.042 788.453C635.903 773.359 733.007 692.328 768.622 585.066C779.665 551.938 783.34 527.648 783.34 489.375C783.34 458.678 782.831 452.196 778.629 432.183C765.249 368.584 736.38 316.178 690.532 272.309C665.94 248.678 643.629 232.849 614.929 218.565C499.282 160.845 363.472 181.762 270.061 271.555C242.322 298.22 223.987 322.792 207.931 354.752C132.121 505.94 195.211 689.237 348.019 761.882C404.703 788.829 460.501 797.216 525.042 788.453ZM477.272 781.537C474.709 778.371 476.179 773.509 479.703 773.509C484.056 773.509 486.92 778.447 484.414 781.537C481.625 784.854 480.08 784.854 477.272 781.537ZM457.259 781.236C456.524 780.576 455.997 778.522 455.997 776.675C455.997 774.169 457.033 773.435 459.973 773.811C462.555 774.245 463.949 775.639 463.949 777.938C463.949 781.462 459.615 783.666 457.259 781.31V781.236ZM495.682 779.766C495.098 778.145 495.381 776.015 496.417 774.979C499.282 772.114 504.803 774.037 504.803 777.995C504.803 782.498 497.303 783.968 495.682 779.766ZM436.418 777.938C434.797 776.016 434.665 774.621 435.984 773.283C438.848 770.344 444.445 772.266 444.445 776.167C444.445 780.576 439.508 781.688 436.418 777.938ZM517.617 779.483C516.958 778.804 516.373 776.751 516.373 774.848C516.373 772.417 517.391 771.681 520.331 772.039C522.988 772.416 524.382 773.887 524.382 776.167C524.382 779.691 519.973 781.838 517.617 779.483ZM416.179 774.169C415.519 772.492 415.746 770.419 416.688 769.458C419.42 766.744 424.941 768.873 424.941 772.623C424.941 777.202 417.875 778.522 416.179 774.169ZM536.085 774.697C534.464 772.7 534.615 771.531 536.763 769.326C540.437 765.708 545.149 767.63 544.414 772.416C543.754 776.901 539.043 778.221 536.085 774.697ZM396.901 769.458C395.488 765.783 398.22 762.467 402.046 763.126C406.757 764.087 406.398 770.72 401.612 771.38C399.539 771.738 397.41 770.871 396.901 769.458ZM554.721 770.268C552.724 767.027 555.815 762.692 559.64 763.201C564.803 763.936 564.803 770.645 559.565 771.38C557.511 771.738 555.305 771.229 554.721 770.268ZM379.075 765.35C376.945 763.201 377.68 757.981 380.186 757.02C383.786 755.626 387.177 758.416 386.443 762.184C385.783 765.633 381.298 767.479 379.075 765.35ZM574.225 763.428C573.566 761.732 574.225 759.3 575.77 757.755C578.277 755.249 578.785 755.325 581.518 757.982C583.93 760.413 584.005 761.374 582.177 763.654C579.162 767.254 575.62 767.178 574.225 763.428ZM360.23 756.87C357.875 754.005 359.495 748.71 362.737 748.71C366.863 748.71 369.652 753.647 367.165 756.662C364.432 759.96 362.887 760.035 360.23 756.87ZM592.919 756.06C591.449 753.422 591.675 752.083 593.654 750.482C597.404 747.316 601.964 749.672 601.305 754.439C600.57 759.527 595.274 760.564 592.919 756.06ZM341.254 747.901C339.633 743.698 341.914 739.439 345.438 740.174C347.36 740.532 348.528 742.378 348.528 745.092C348.528 750.18 342.931 752.31 341.254 747.901ZM611.763 749.295C609.634 747.241 610.368 742.002 612.875 741.059C616.474 739.646 619.79 742.454 619.056 746.204C618.453 749.596 613.968 751.499 611.763 749.295ZM323.428 737.216C322.108 733.616 324.087 730.884 328.214 730.884C330.72 730.884 331.681 732.147 331.681 735.388C331.681 740.382 325.199 741.795 323.428 737.216ZM628.252 735.388C628.252 731.487 628.987 730.751 632.228 731.26C634.885 731.637 636.279 733.032 636.279 735.388C636.279 737.668 634.885 739.138 632.228 739.515C628.987 739.948 628.252 739.213 628.252 735.388ZM306.731 726.398C303.339 722.271 308.861 716.825 312.912 720.217C316.436 723.157 316.436 726.7 312.837 728.095C309.143 729.489 309.369 729.564 306.731 726.398ZM644.816 726.324C644.232 724.778 645.042 722.216 646.662 720.67C649.376 717.938 649.753 717.938 652.542 720.67C654.973 723.083 655.048 724.118 653.201 726.398C650.262 729.941 646.21 729.942 644.816 726.324ZM289.64 714.038C289.056 712.492 289.357 710.363 290.375 709.326C293.258 706.462 298.779 708.364 298.779 712.265C298.779 716.825 291.26 718.24 289.64 714.038ZM660.795 713.886C660.192 712.34 660.852 709.91 662.265 708.516C665.714 705.124 671.612 709.1 669.916 713.66C668.446 717.504 662.265 717.636 660.795 713.886ZM274.338 700.206C272.944 696.512 275.657 693.196 279.483 693.874C284.194 694.816 283.836 701.448 279.049 702.108C276.976 702.485 274.847 701.6 274.338 700.206ZM676.549 698.509C676.907 695.852 678.302 694.533 680.658 694.533C682.938 694.533 684.407 695.852 684.784 698.509C685.218 701.75 684.483 702.485 680.658 702.485C676.757 702.485 676.022 701.75 676.549 698.509ZM260.639 683.848C260.639 680.023 261.298 679.289 264.615 679.741C267.272 680.099 268.591 681.493 268.591 683.848C268.591 686.128 267.272 687.617 264.615 687.975C261.298 688.427 260.639 687.692 260.639 683.848ZM690.739 684.301C691.116 681.644 692.511 680.249 694.866 680.249C697.146 680.249 698.616 681.644 698.993 684.301C699.426 687.542 698.691 688.277 694.866 688.277C690.965 688.277 690.23 687.542 690.739 684.301ZM248.126 671.261C246.223 669.056 246.355 668.039 248.786 665.608C251.518 662.8 251.951 662.8 254.684 665.608C257.115 668.039 257.265 669.056 255.343 671.261C254.1 672.806 252.479 674.068 251.744 674.068C250.99 674.068 249.389 672.806 248.126 671.261ZM703.403 671.261C702.818 669.715 703.629 667.152 705.249 665.532C707.963 662.875 708.415 662.875 711.129 665.608C713.56 668.039 713.71 669.056 711.807 671.261C708.848 674.879 704.816 674.803 703.403 671.261ZM322.768 657.862C310.18 652.869 302.887 639.62 301.87 619.664C300.249 590.362 313.572 571.235 335.733 571.084C357.29 571.009 370.689 587.498 370.689 614.37C370.764 622.021 369.803 631.367 368.71 635.117C366.053 643.955 357.366 654.338 350.073 657.429C343.308 660.218 329.25 660.444 322.768 657.862ZM346.323 640.789C355.237 630.708 354.86 599.653 345.739 590.438C341.311 586.028 333.377 586.103 327.554 590.663C316.813 599.124 317.548 638.283 328.515 642.711C333.811 644.841 343.666 643.729 346.323 640.789ZM236.424 655.451C234.803 651.324 237.158 647.121 240.626 647.78C244.451 648.515 245.846 654.489 242.605 656.467C239.156 658.672 237.536 658.466 236.424 655.451ZM395.563 658.088V572.706L408.302 573.214L420.965 573.742L427.523 597.73C431.122 610.902 434.439 622.756 434.872 624.094C435.325 625.413 437.887 618.628 440.62 608.999C452.02 568.503 449.307 572.856 463.214 572.856H475.519V658.088H457.843L457.334 628.578L456.882 599.049L448.647 628.126C440.393 657.203 440.393 657.202 434.514 657.202C428.616 657.202 428.616 657.203 420.155 627.241C415.519 610.752 411.468 596.995 411.242 596.769C410.959 596.487 411.034 610.168 411.317 627.184L411.92 658.088H395.563ZM498.848 642.561C501.637 634.024 507.686 614.803 512.171 599.935L520.406 572.856H540.588L550.821 604.722C556.474 622.247 562.523 641.449 564.276 647.348L567.517 658.088H558.17C548.748 658.088 548.748 658.088 546.185 648.742C543.603 639.395 543.603 639.394 529.545 639.394C515.488 639.394 515.488 639.395 512.831 648.742C510.174 658.088 510.174 658.088 501.939 658.088H493.761L498.848 642.561ZM537.63 622.096C537.573 616.876 529.094 593.472 528.208 595.884C527.624 597.372 525.852 603.402 524.175 609.206C522.554 615.104 520.859 620.928 520.331 622.096C519.747 623.716 522.102 624.301 528.585 624.301C534.69 624.301 537.63 623.566 537.63 622.096ZM586.286 641.675C586.813 632.63 587.322 613.408 587.322 599.049L587.397 572.856H596.744C606.166 572.856 606.166 572.856 611.028 582.128C613.685 587.272 620.224 599.501 625.595 609.206L635.318 627.034V572.856H649.527V658.239L641.349 657.73C633.114 657.203 633.114 657.203 617.793 629.162L602.492 601.123L601.964 629.596L601.531 658.088H585.268L586.286 641.675ZM716.518 656.995C714.238 654.64 715.256 649.552 718.195 648.44C721.964 646.97 724.678 649.627 723.867 653.905C723.208 657.278 718.723 659.125 716.518 656.995ZM225.08 635.871C225.08 632.027 225.833 631.292 229.056 631.745C231.713 632.103 233.107 633.572 233.107 635.871C233.107 638.227 231.713 639.621 229.056 639.979C225.833 640.506 225.08 639.772 225.08 635.871ZM726.223 636.456C726.958 631.16 733.949 630.557 733.949 635.871C733.949 638.227 732.554 639.621 729.765 639.979C726.373 640.506 725.714 639.904 726.223 636.456ZM264.106 620.475C264.106 616.65 263.88 616.575 261.675 619.439C258.434 623.717 256.512 623.339 258.867 618.929C260.639 615.688 260.413 615.462 255.852 616.423C251.744 617.309 251.367 617.159 253.949 615.463C258.208 612.825 257.85 610.545 253.063 609.659C249.897 609 250.199 608.773 254.382 608.547C259.753 608.34 259.753 608.339 255.268 604.646C250.858 600.971 250.859 600.971 255.852 602.083C260.413 603.025 260.639 602.893 258.867 599.577C256.512 595.148 258.434 594.79 261.675 599.049C263.955 602.007 264.03 602.007 264.106 599.049C264.181 595.073 267.705 594.942 267.705 598.918C267.705 601.556 268.082 601.48 271.398 598.541C274.998 595.224 274.998 595.299 273.151 600.085C271.399 604.646 271.53 604.797 274.998 602.95C276.976 601.857 279.125 601.405 279.634 602.008C280.218 602.517 279.332 603.477 277.712 604.061C273.528 605.682 274.188 608.339 278.823 608.471C282.799 608.622 282.799 608.622 278.597 610.318C274.923 611.713 274.696 612.372 276.844 614.879C278.974 617.46 278.748 617.61 275.356 616.574C272.058 615.538 271.681 615.915 272.492 619.439C273.453 623.415 273.453 623.415 270.645 619.967C268.233 616.876 267.781 616.801 267.781 619.383C267.63 624.094 264.181 625.111 264.106 620.475ZM215.073 619.891C214.489 618.27 214.791 616.141 215.808 615.18C218.691 612.24 224.212 614.219 224.212 618.12C224.212 622.68 216.694 624.093 215.073 619.891ZM686.914 618.855C688.761 615.463 688.534 615.255 684.784 616.423C681.185 617.535 680.959 617.384 682.938 614.953C684.935 612.673 684.785 611.863 682.052 610.318C679.188 608.622 679.263 608.472 683.164 608.396C687.366 608.34 687.366 608.34 684.049 604.571C680.657 600.821 680.658 600.746 684.483 602.008C687.8 603.026 688.251 602.592 687.517 599.125C686.706 595.299 686.763 595.224 688.76 598.39C690.814 601.631 690.965 601.631 693.246 597.504C695.601 593.245 695.601 593.245 695.676 597.504C695.752 601.707 695.827 601.706 699.294 598.541C703.251 595.017 703.855 596.034 700.896 601.48C699.219 604.722 699.351 604.872 702.592 603.176C708.038 600.236 709.074 600.82 705.55 604.796C702.385 608.264 702.385 608.339 706.568 608.471C710.846 608.546 710.846 608.547 706.418 610.318C702.008 612.09 702.008 612.165 705.55 614.879C708.999 617.611 708.999 617.611 704.872 616.65C701.424 615.84 700.896 616.216 701.65 619.307C702.592 622.755 702.46 622.755 699.219 619.74C695.902 616.801 695.752 616.8 695.676 620.042C695.676 623.339 695.601 623.339 693.095 620.042C690.739 616.951 690.381 616.951 689.42 619.59C688.761 621.21 687.517 622.529 686.631 622.529C685.745 622.529 685.896 620.852 686.914 618.779V618.855ZM735.494 619.967C734.1 616.424 736.172 613.71 740.073 613.71C743.446 613.71 746.179 618.195 744.483 620.927C742.938 623.49 736.606 622.831 735.494 619.967ZM208.591 603.685C205.444 600.538 207.423 595.884 211.907 595.884C215.601 595.884 216.336 596.693 215.884 599.935C215.375 603.835 210.947 606.116 208.591 603.685ZM744.332 602.215C743.013 598.616 745.067 595.884 749.119 595.884C751.625 595.884 752.586 597.147 752.586 600.388C752.586 605.381 746.104 606.851 744.332 602.215ZM751.474 584.483C749.853 580.281 752.133 576.022 755.676 576.756C757.655 577.115 758.767 578.962 758.767 581.694C758.767 586.763 753.17 588.893 751.474 584.483ZM200.507 581.393C201.317 576.098 208.233 575.57 208.233 580.809C208.233 583.164 206.838 584.558 204.106 584.992C200.657 585.444 200.054 584.841 200.507 581.393ZM194.91 564.828C192.328 561.738 195.211 556.876 199.621 556.876C203.145 556.876 204.633 561.738 201.976 564.904C199.244 568.221 197.699 568.22 194.91 564.828ZM756.769 564.979C755.45 561.436 757.429 558.647 761.348 558.647C764.872 558.647 766.719 561.737 765.457 565.337C764.439 568.352 758.032 568.145 756.769 564.904V564.979ZM299.665 546.21C299.665 535.526 299.665 535.525 305.035 535.525C310.331 535.525 310.331 535.525 310.331 519.639C310.331 505.563 310.764 503.509 313.93 501.813C317.247 500.042 317.473 498.064 317.473 464.351C317.473 435.501 316.945 427.83 314.665 423.42C311.292 416.938 312.385 413.038 317.623 413.038C321.449 413.038 321.449 412.68 320.638 389.935C320.186 377.196 320.488 366.813 321.298 366.813C322.108 366.813 322.768 362.026 322.768 356.222C322.768 348.421 323.654 344.652 325.858 342.372C327.63 340.676 329.91 337.303 331.078 334.872C333.001 330.82 333.226 330.745 333.302 334.137C333.377 336.191 335.054 339.281 336.976 341.053C339.841 343.634 340.501 346.574 340.501 355.563C340.501 363.497 341.179 366.813 342.799 366.813C344.552 366.813 344.929 372.183 344.42 390.82C343.666 414.3 343.741 414.809 347.435 414.809C350.224 414.809 351.185 415.921 351.185 419.162C351.185 421.518 350.375 423.93 349.414 424.533C348.321 425.268 347.642 440.287 347.642 463.767C347.642 496.367 348.019 501.813 350.299 501.813C351.995 501.813 352.956 503.509 352.956 506.241C352.956 511.028 353.465 511.235 359.646 509.539C363.321 508.597 363.622 507.485 363.622 495.406V482.309H376.059C388.497 482.309 388.497 482.309 388.497 476.939C388.497 472.454 389.175 471.643 392.925 471.643C397.184 471.643 397.335 471.116 397.335 461.185C397.335 450.067 401.16 442.717 408.076 440.493C409.998 439.909 411.543 438.289 411.543 436.895C411.543 435.5 412.353 434.312 413.39 434.312C414.332 434.312 415.143 435.5 415.143 436.895C415.143 438.289 416.688 439.909 418.61 440.493C425.526 442.717 429.351 450.067 429.351 461.185C429.351 467.008 430.086 471.643 431.122 471.643C432.083 471.643 432.893 469.213 432.893 466.273C432.893 462.222 433.704 460.958 436.342 460.958C440.394 460.958 441.863 451.537 439.3 441.455C435.682 426.964 447.988 408.251 467.19 398.979C476.688 394.344 476.914 393.986 478.892 381.681C480.287 373.069 480.287 373.069 481.625 383.961C483.019 394.721 483.095 394.854 491.254 398.547C503.56 404.144 512.755 412.604 517.466 422.685C521.141 430.638 521.518 433.295 520.482 446.317C519.389 460.45 519.52 460.958 523.214 460.958C526.229 460.958 527.039 462.071 527.039 466.273C527.039 469.213 527.774 471.643 528.811 471.643C529.753 471.643 530.563 467.008 530.563 461.185C530.563 450.067 534.332 442.717 541.248 440.493C543.151 439.909 544.772 438.289 544.772 436.895C544.772 433.145 545.657 433.578 554.42 442.19C562.297 449.784 562.523 450.292 562.523 460.808C562.523 471.191 562.73 471.643 566.933 471.643C570.683 471.643 571.418 472.454 571.418 476.939C571.418 482.234 571.417 482.234 583.798 482.234H596.235V494.671C596.235 505.054 596.82 507.334 599.684 508.88C604.263 511.311 605.13 511.159 605.13 508.069C605.13 506.599 606.75 504.394 608.672 503.151C612.064 501.078 612.272 499.024 612.272 462.428C612.272 438.666 611.537 423.421 610.444 422.761C607.203 420.764 608.522 414.507 612.423 413.49C616.041 412.529 616.173 411.719 615.513 389.633C614.929 371.901 615.306 366.813 617.058 366.813C618.679 366.813 619.339 363.572 619.339 355.563C619.339 346.574 620.073 343.634 622.881 341.053C624.86 339.281 626.48 336.267 626.48 334.363C626.48 331.556 627.366 332.139 630.607 336.926C633.396 341.053 635.092 346.724 635.752 354.224C636.506 362.101 637.749 366.003 640.029 367.774C642.818 369.828 642.969 370.713 641.141 373.804C639.728 376.084 638.861 384.111 638.861 395.154C638.861 412.679 638.993 412.962 643.346 414.074C647.831 415.186 649.225 419.671 646.135 422.837C645.249 423.798 644.232 441.605 643.93 462.428C643.497 496.743 643.779 500.494 646.512 502.04C649.018 503.51 649.527 506.524 649.527 519.639C649.527 535.525 649.527 535.525 654.822 535.525C660.193 535.525 660.193 535.526 660.193 546.21V556.876H299.665V546.21ZM324.539 540.387C324.539 532.228 326.895 528.459 331.889 528.459C336.977 528.459 340.501 533.622 340.501 541.046C340.501 547.604 340.877 547.962 345.89 547.962C351.185 547.962 351.185 547.963 350.808 532.435C350.45 516.907 350.45 516.907 349.866 530.664C349.055 549.376 345.89 548.264 345.89 529.345C345.89 519.847 346.549 514.25 347.793 514.25C348.83 514.25 349.413 512.046 349.131 509.408C348.679 505.507 346.907 503.886 340.142 501.078C331.757 497.63 331.757 497.63 322.768 501.813C313.855 506.015 313.855 506.015 313.855 522.579C313.855 539.143 313.855 539.144 308.559 539.144C304.075 539.144 303.264 539.802 303.264 543.552C303.264 547.83 303.698 547.962 313.855 547.962C324.539 547.962 324.539 547.963 324.539 540.387ZM336.976 542.008C336.976 530.607 328.516 529.062 327.253 540.237C326.518 546.794 327.403 547.962 332.642 547.962C336.392 547.962 336.976 547.152 336.976 542.008ZM358.327 540.896C358.327 535.751 359.062 533.773 360.965 533.773C363.038 533.773 363.622 531.417 363.622 523.164C363.622 512.573 362.963 511.461 357.592 513.515C355.312 514.401 354.709 517.718 354.709 531.342C354.709 541.273 355.444 547.962 356.556 547.962C357.517 547.962 358.327 544.796 358.327 540.896ZM363.113 539.576C362.661 537.88 362.303 539.218 362.303 542.667C362.303 546.059 362.661 547.453 363.113 545.757C363.471 544.061 363.471 541.272 363.113 539.576ZM381.355 524.935C381.355 510.726 382.108 501.813 383.126 501.813C384.238 501.813 384.973 510.726 384.973 524.935C384.973 548.999 387.912 557.46 388.873 535.978C389.307 525.01 389.684 523.974 393.434 523.465C400.35 522.504 402.705 526.103 402.705 537.598C402.705 543.327 403.515 547.962 404.476 547.962C405.588 547.962 406.248 539.143 406.248 524.935C406.248 510.726 406.907 501.813 408.019 501.813C409.112 501.813 409.772 510.726 409.772 524.935C409.772 539.143 410.431 547.962 411.543 547.962C412.58 547.962 413.314 543.327 413.314 537.598C413.314 526.103 415.745 522.504 422.586 523.465C426.336 523.974 426.713 525.01 427.146 535.978C428.107 557.46 431.122 548.999 431.122 524.935C431.122 510.726 431.782 501.813 432.893 501.813C433.986 501.813 434.665 510.726 434.665 524.935C434.665 539.143 435.325 547.962 436.418 547.962C437.379 547.962 438.189 543.327 438.189 537.598C438.189 526.103 440.544 522.504 447.385 523.465C451.154 523.974 451.587 525.01 452.021 535.978C452.398 545.098 453.207 547.962 455.13 547.962C457.259 547.962 457.693 543.779 457.693 523.899C457.693 508.295 458.352 500.193 459.539 500.927C460.576 501.606 461.311 511.612 461.311 525.011C461.311 544.288 461.669 547.962 463.949 547.962C466.097 547.962 466.606 545.023 466.606 532.152C466.606 523.465 467.115 514.985 467.774 513.308C469.546 508.597 478.741 505.431 484.715 507.56C491.932 510.067 493.252 513.742 493.252 531.927C493.252 545.023 493.685 547.962 495.908 547.962C498.113 547.962 498.547 544.288 498.547 525.011C498.547 512.347 499.357 501.605 500.243 501.002C502.448 499.608 504.294 509.614 503.71 519.639C502.824 533.396 503.842 547.962 505.614 547.962C506.499 547.962 507.536 542.592 507.818 535.978C508.346 525.01 508.704 523.974 512.454 523.465C519.313 522.504 521.669 526.103 521.669 537.598C521.669 543.327 522.479 547.962 523.44 547.962C524.533 547.962 525.193 538.767 525.193 523.899C525.193 508.295 525.852 500.193 526.964 500.927C528 501.606 528.735 511.612 528.735 525.011C528.735 549.075 531.75 557.385 532.711 535.978C533.145 525.01 533.522 523.974 537.272 523.465C544.188 522.504 546.543 526.103 546.543 537.598C546.543 543.327 547.278 547.962 548.314 547.962C549.407 547.962 550.086 539.143 550.086 524.935C550.086 510.726 550.745 501.813 551.838 501.813C552.95 501.813 553.61 510.726 553.61 524.935C553.61 539.143 554.269 547.962 555.381 547.962C556.342 547.962 557.152 543.403 557.152 537.674C557.152 526.631 559.131 523.164 565.312 523.164C570.174 523.164 571.342 526.179 571.342 538.409C571.342 543.704 572.152 547.962 573.114 547.962C574.225 547.962 574.96 539.143 574.96 524.935C574.96 510.726 575.62 501.813 576.731 501.813C577.749 501.813 578.484 510.726 578.484 524.935V547.962H592.693V492.919H367.165V547.962H381.355V524.935ZM398.804 537.805C398.371 529.796 397.636 527.517 395.13 526.989C392.473 526.48 392.039 527.874 392.039 537.221C392.039 546.869 392.397 547.962 395.714 547.962C398.955 547.962 399.257 547.095 398.804 537.805ZM423.98 537.221C423.98 527.874 423.622 526.48 420.89 526.989C418.459 527.517 417.648 529.796 417.29 537.805C416.763 547.095 417.064 547.962 420.381 547.962C423.622 547.962 423.98 546.869 423.98 537.221ZM448.855 537.221C448.855 527.874 448.421 526.48 445.764 526.989C443.352 527.517 442.542 529.796 442.09 537.805C441.656 547.095 441.939 547.962 445.255 547.962C448.497 547.962 448.855 546.869 448.855 537.221ZM489.709 532.586C489.709 516.022 487.429 510.727 480.287 510.727C472.41 510.727 470.205 515.438 470.205 532.284V547.962H489.709V532.586ZM517.768 537.805C517.316 529.796 516.581 527.517 514.15 526.989C511.436 526.48 511.06 527.874 511.06 537.221C511.06 546.869 511.436 547.962 514.677 547.962C517.975 547.962 518.277 547.095 517.768 537.805ZM542.642 537.805C542.209 529.796 541.474 527.517 539.043 526.989C536.31 526.48 535.877 527.874 535.877 537.221C535.877 546.869 536.235 547.962 539.552 547.962C542.868 547.962 543.151 547.095 542.642 537.805ZM567.894 537.221C567.894 527.874 567.441 526.48 564.728 526.989C562.297 527.517 561.562 529.796 561.128 537.805C560.601 547.095 560.902 547.962 564.219 547.962C567.517 547.962 567.894 546.869 567.894 537.221ZM597.479 539.576C597.121 537.88 596.669 539.218 596.669 542.667C596.669 546.059 597.046 547.453 597.479 545.757C597.931 544.061 597.931 541.272 597.479 539.576ZM605.13 531.116C605.13 521.844 604.395 514.25 603.528 514.25C602.642 514.25 600.645 513.741 599.1 513.157C596.744 512.271 596.311 513.816 596.311 522.937C596.311 531.417 596.895 533.773 598.949 533.773C600.871 533.773 601.606 535.751 601.606 540.896C601.606 544.796 602.416 547.962 603.377 547.962C604.47 547.962 605.13 541.197 605.13 531.116ZM619.414 543.12C619.414 534.584 621.411 530.23 625.821 529.118C632.152 527.516 635.394 531.267 635.394 540.237C635.394 547.963 635.394 547.962 645.984 547.962C656.217 547.962 656.669 547.755 656.669 543.552C656.669 539.802 655.858 539.144 651.373 539.144C645.984 539.144 645.984 539.143 645.984 522.579C645.984 506.015 645.984 506.015 637.24 501.888C628.478 497.761 628.478 497.761 618.604 501.737C608.296 505.939 606.091 509.84 611.386 514.25C613.308 515.87 614.043 520.149 614.043 530.457C614.043 548.491 610.802 548.717 610.067 530.664C609.407 516.907 609.408 516.907 609.106 532.435C608.673 547.963 608.673 547.962 614.043 547.962C618.679 547.962 619.338 547.303 619.414 543.12ZM631.794 540.839C631.794 535.902 630.909 533.321 628.987 532.586C625.312 531.191 622.956 534.942 622.956 542.234C622.956 547.228 623.541 547.962 627.366 547.962C631.342 547.962 631.794 547.303 631.794 540.839ZM331.681 495.707C334.112 495.707 337.938 496.367 340.067 497.102C343.666 498.365 344.118 497.912 344.118 493.05C344.118 487.604 344.118 487.604 332.567 487.604C326.235 487.604 320.997 488.208 320.997 488.943C320.921 489.678 320.412 492.183 319.828 494.464C318.792 498.289 319.093 498.496 322.994 497.177C325.274 496.366 329.25 495.707 331.681 495.707ZM627.366 495.783C630.306 495.707 634.508 496.292 636.713 497.102C640.256 498.365 640.689 497.912 640.689 493.05C640.689 487.604 640.689 487.604 628.252 487.604C615.814 487.604 615.814 487.605 615.814 493.126C615.814 497.762 616.323 498.44 618.905 497.253C620.676 496.442 624.426 495.783 627.366 495.783ZM591.807 487.604C592.542 486.436 554.853 485.852 480.079 485.852C406.022 485.852 367.165 486.436 367.165 487.604C367.165 488.716 405.664 489.375 478.968 489.375C551.556 489.375 591.148 488.716 591.807 487.604ZM344.118 457.435C344.118 427.171 344.627 428.132 327.988 429.32L320.111 429.904L319.602 456.907L319.169 484.005H344.118V457.435ZM321.882 471.266C320.186 466.932 321.731 442.265 323.654 442.265C326.084 442.265 326.97 469.871 324.69 472.152C323.503 473.395 322.542 473.113 321.882 471.266ZM329.91 457.359C329.91 445.129 330.419 441.305 332.115 441.832C333.66 442.416 334.32 447.127 334.32 457.359C334.32 467.667 333.66 472.454 332.115 472.962C330.419 473.471 329.91 469.646 329.91 457.359ZM338.748 457.359C338.748 447.937 339.483 441.379 340.501 441.379C341.612 441.379 342.272 447.937 342.272 457.359C342.272 466.857 341.612 473.396 340.501 473.396C339.483 473.396 338.748 466.857 338.748 457.359ZM640.689 457.435C640.689 427.171 641.216 428.132 624.577 429.32L616.7 429.904L616.248 456.982L615.739 484.081H640.689V457.435ZM617.586 457.359C617.586 447.937 618.321 441.379 619.339 441.379C620.45 441.379 621.11 447.937 621.11 457.359C621.11 466.857 620.45 473.396 619.339 473.396C618.321 473.396 617.586 466.857 617.586 457.359ZM626.48 457.359C626.48 447.937 627.215 441.379 628.252 441.379C629.288 441.379 630.023 447.937 630.023 457.359C630.023 466.857 629.288 473.396 628.252 473.396C627.215 473.396 626.48 466.857 626.48 457.359ZM635.394 457.359C635.394 447.937 636.053 441.379 637.165 441.379C638.182 441.379 638.918 447.937 638.918 457.359C638.918 466.857 638.182 473.396 637.165 473.396C636.053 473.396 635.394 466.857 635.394 457.359ZM567.894 478.71C567.894 475.167 566.706 475.167 479.929 475.167C393.208 475.167 392.039 475.167 392.039 478.71C392.039 482.234 393.208 482.234 479.929 482.234C566.706 482.234 567.894 482.234 567.894 478.71ZM408.453 467.139C408.961 464.35 408.528 462.729 407.133 462.729C405.795 462.729 405.287 464.35 405.796 467.139C406.323 469.57 406.907 471.643 407.133 471.643C407.416 471.643 408.019 469.57 408.453 467.139ZM422.209 464.502C423.095 464.502 424.131 465.896 424.565 467.592C425.168 469.948 425.45 469.722 425.601 466.707C425.752 463.616 424.791 462.729 421.625 462.729C417.95 462.729 417.498 463.39 418.459 467.592C419.345 472.077 419.495 472.153 420.08 468.478C420.381 466.273 421.399 464.502 422.209 464.502ZM523.44 468.025C523.44 464.576 522.253 464.502 479.929 464.502C437.605 464.502 436.418 464.576 436.418 468.025C436.418 471.492 437.605 471.643 479.929 471.643C522.253 471.643 523.44 471.492 523.44 468.025ZM555.456 464.502C556.267 464.502 557.284 465.896 557.737 467.592C558.396 469.948 558.622 469.722 558.773 466.707C558.905 463.842 558.019 462.729 555.456 462.729C552.649 462.729 551.914 463.842 552.14 467.592C552.366 471.776 552.498 471.926 553.176 468.478C553.534 466.273 554.571 464.502 555.456 464.502ZM402.121 464.049C401.612 462.88 401.235 463.842 401.235 466.273C401.235 468.761 401.612 469.721 402.121 468.553C402.554 467.29 402.554 465.311 402.121 464.049ZM414.408 463.163C412.504 461.26 411.468 463.974 412.787 467.366C414.05 470.532 414.2 470.606 414.784 467.441C415.142 465.669 415.011 463.766 414.408 463.163ZM535.274 464.049C534.841 462.88 534.407 463.842 534.407 466.273C534.407 468.761 534.841 469.721 535.274 468.553C535.802 467.29 535.802 465.311 535.274 464.049ZM541.248 466.273C541.248 464.351 540.513 462.729 539.627 462.729C538.742 462.729 538.44 464.351 538.968 466.273C539.476 468.252 540.136 469.872 540.588 469.872C540.946 469.872 541.248 468.252 541.248 466.273ZM548.314 466.273C548.314 464.351 547.504 462.729 546.543 462.729C545.582 462.729 544.772 464.351 544.772 466.273C544.772 468.252 545.582 469.872 546.543 469.872C547.504 469.872 548.314 468.252 548.314 466.273ZM447.385 457.359C447.762 455.362 448.798 453.741 449.74 453.741C450.777 453.741 451.813 455.362 452.096 457.359C452.906 462.504 455.997 461.845 455.997 456.55C455.997 453.742 456.958 452.064 458.654 452.064C460.274 452.064 461.311 453.742 461.311 456.55C461.311 458.981 462.121 460.958 463.063 460.958C464.024 460.958 464.835 459.489 464.835 457.642C464.835 453.892 468.961 449.708 470.808 451.536C471.467 452.139 471.977 454.552 471.977 456.851C471.977 459.338 473.013 460.958 474.633 460.958C476.386 460.958 477.272 459.206 477.272 455.512C477.272 448.295 483.245 448.823 484.056 456.096C484.79 462.221 487.956 462.504 487.956 456.55C487.956 453.233 488.899 452.064 491.48 452.064C494.137 452.064 495.098 453.233 495.098 456.55C495.098 458.981 495.833 460.958 496.851 460.958C497.812 460.958 498.622 458.981 498.622 456.55C498.622 453.742 499.583 452.064 501.279 452.064C502.9 452.064 503.918 453.742 503.918 456.55C503.918 461.845 507.008 462.504 507.818 457.359C508.553 452.347 511.436 452.498 514.225 457.586C516.505 461.845 516.505 461.845 515.997 456.55C515.337 449.785 510.098 448.672 478.157 448.823C448.346 448.974 444.596 449.784 443.861 456.096C443.277 461.693 446.575 462.805 447.385 457.359ZM425.752 455.23C425.752 450.293 424.432 448.295 418.76 444.395C413.088 440.569 412.862 440.569 406.398 446.015C403.082 448.823 400.952 452.272 400.952 454.929C400.952 459.056 401.386 459.207 413.39 459.207C425.092 459.207 425.752 458.98 425.752 455.23ZM558.98 455.23C558.905 450.293 557.661 448.295 551.914 444.395C546.242 440.569 546.034 440.569 539.552 446.015C536.235 448.823 534.106 452.272 534.106 454.929C534.106 459.056 534.615 459.207 546.543 459.207C558.245 459.207 558.98 458.98 558.98 455.23ZM479.043 444.112C484.414 444.112 495.023 444.697 502.598 445.507L516.373 446.901V437.045C516.373 424.608 510.984 415.845 497.737 406.781C483.679 397.001 477.065 396.85 463.798 405.688C449.307 415.393 443.56 423.873 443.56 435.425C443.56 440.362 444.012 444.923 444.671 445.507C445.255 446.091 451.078 446.015 457.542 445.355C464.024 444.62 473.673 444.112 479.043 444.112ZM643.27 418.201C641.65 415.544 612.272 416.128 612.272 418.785C612.272 420.481 616.323 420.839 628.252 420.406C637.523 420.104 643.855 419.162 643.27 418.201ZM347.642 418.352C347.642 417.315 341.461 416.58 332.642 416.58C324.388 416.58 317.171 417.315 316.587 418.352C315.852 419.445 321.298 420.104 331.53 420.104C341.103 420.104 347.642 419.369 347.642 418.352ZM340.501 412.962V379.25H332.567C326.593 379.25 324.539 379.91 324.539 381.908C324.539 383.377 325.349 384.564 326.31 384.564C327.328 384.564 328.063 388.597 328.063 393.459C328.063 398.32 327.328 402.372 326.31 402.372C325.349 402.372 324.539 404.727 324.539 407.667C324.539 412.83 324.897 412.962 332.567 412.962H340.501ZM329.91 393.459C329.91 388.597 330.72 384.564 331.681 384.564C332.642 384.564 333.434 388.597 333.434 393.459C333.434 398.32 332.642 402.372 331.681 402.372C330.645 402.372 329.91 398.32 329.91 393.459ZM335.205 393.459C335.205 388.597 336.015 384.564 336.976 384.564C337.938 384.564 338.748 388.597 338.748 393.459C338.748 398.32 337.938 402.372 336.976 402.372C336.015 402.372 335.205 398.32 335.205 393.459ZM635.318 407.667C635.318 404.727 634.583 402.372 633.547 402.372C632.586 402.372 631.794 398.32 631.794 393.459C631.794 388.597 632.586 384.564 633.547 384.564C634.583 384.564 635.318 383.377 635.318 381.908C635.318 379.91 633.264 379.25 627.366 379.25H619.339V412.962H627.366C635.017 412.962 635.318 412.755 635.318 407.667ZM621.11 393.308C621.11 387.787 621.845 384.771 622.956 385.431C623.917 386.109 624.728 390.085 624.728 394.419C624.728 398.753 623.917 402.372 622.956 402.372C621.92 402.372 621.11 398.321 621.11 393.308ZM626.48 393.459C626.48 388.597 627.291 384.564 628.252 384.564C629.213 384.564 630.023 388.597 630.023 393.459C630.023 398.32 629.213 402.372 628.252 402.372C627.291 402.372 626.48 398.32 626.48 393.459ZM341.179 370.054C339.991 368.075 322.768 368.207 322.768 370.205C322.768 371.015 327.121 371.674 332.416 371.599C337.711 371.523 341.687 370.864 341.179 370.054ZM637.749 369.978C637.297 369.243 633.038 368.584 628.252 368.584C623.465 368.584 619.206 369.243 618.754 369.978C618.245 370.713 622.58 371.297 628.252 371.297C633.924 371.297 638.183 370.713 637.749 369.978ZM336.976 362.686C336.976 361.065 335.28 360.556 331.681 361.14C328.723 361.517 326.31 362.629 326.31 363.496C326.31 364.306 328.723 365.042 331.681 365.042C334.922 365.042 336.976 364.175 336.976 362.686ZM633.547 363.289C633.547 362.328 632.736 361.518 631.794 361.518C630.833 361.518 629.872 359.313 629.797 356.656C629.495 351.719 629.496 351.719 628.761 356.656C628.327 359.313 626.857 361.518 625.463 361.518C624.049 361.518 622.956 362.328 622.956 363.289C622.956 364.231 625.312 365.042 628.252 365.042C631.191 365.042 633.547 364.231 633.547 363.289ZM336.6 347.742C336.242 345.763 334.395 344.652 331.681 344.652C328.873 344.652 327.046 345.763 326.669 347.742C326.16 350.173 327.253 350.852 331.681 350.852C336.015 350.852 337.127 350.173 336.6 347.742ZM633.189 348.27C635.167 346.348 628.911 341.787 625.896 342.975C620.884 344.878 622.146 350.475 627.517 349.891C630.023 349.589 632.586 348.854 633.189 348.27ZM191.593 546.418C188.145 544.213 189.897 538.182 194.024 538.182C196.606 538.182 197.567 539.426 197.567 542.516C197.567 547.227 195.268 548.717 191.593 546.418ZM760.972 545.683C759.577 542.008 762.291 538.691 766.116 539.426C770.827 540.311 770.469 546.945 765.683 547.605C763.629 547.963 761.48 547.096 760.972 545.683ZM187.994 526.027C185.638 523.163 187.184 517.793 190.425 517.793C194.608 517.793 197.416 522.805 194.91 525.82C192.177 529.062 190.557 529.118 187.994 526.027ZM763.911 525.896C762.517 522.354 764.571 519.565 768.472 519.565C771.939 519.565 773.861 522.579 772.598 526.178C771.506 529.269 765.099 528.986 763.911 525.82V525.896ZM767.228 507.711C764.213 506.449 764.439 502.699 767.737 499.986C771.864 496.594 777.31 502.04 773.918 506.166C771.562 509.031 770.827 509.181 767.228 507.711ZM184.903 504.47C184.3 502.849 184.602 500.72 185.563 499.759C188.503 496.819 194.024 498.798 194.024 502.699C194.024 507.184 186.524 508.672 184.903 504.47ZM184.903 485.041C183.566 481.423 185.563 478.71 189.539 478.71C193.666 478.71 195.268 480.99 193.798 484.74C192.479 488.264 186.223 488.49 184.903 485.041ZM766.059 486.059C764.062 482.818 767.153 478.483 770.978 479.068C776.141 479.802 776.141 486.511 770.903 487.246C768.849 487.529 766.643 487.02 766.059 486.059ZM188.069 466.48C184.527 464.275 186.298 458.321 190.5 458.321C192.988 458.321 194.024 459.488 194.024 462.579C194.024 467.29 191.744 468.76 188.069 466.48ZM766.267 466.932C765.532 466.197 765.023 464.125 765.023 462.297C765.023 459.791 766.059 459.055 768.999 459.488C771.562 459.865 772.975 461.26 772.975 463.54C772.975 467.064 768.622 469.288 766.267 466.932ZM763.176 445.732C761.273 443.452 761.349 442.492 763.836 440.061C766.568 437.253 766.926 437.253 769.734 440.061C772.165 442.492 772.316 443.452 770.394 445.732C769.15 447.278 767.529 448.522 766.794 448.522C766.059 448.522 764.439 447.278 763.101 445.732H763.176ZM188.428 444.037C187.843 442.492 188.145 440.362 189.162 439.326C192.046 436.443 197.567 438.364 197.567 442.265C197.567 446.825 190.048 448.22 188.428 444.037ZM759.935 427.396C756.411 425.192 758.183 419.219 762.366 419.219C764.872 419.219 765.909 420.406 765.909 423.496C765.909 428.207 763.629 429.752 759.935 427.396ZM194.401 426.078C191.235 422.988 193.214 418.352 197.699 418.352C201.392 418.352 202.127 419.087 201.675 422.309C201.091 426.229 196.756 428.509 194.401 426.078ZM754.414 407.743C751.041 405.613 752.944 399.64 756.995 399.64C759.276 399.64 760.745 401.053 761.122 403.465C761.706 407.517 758.032 409.947 754.414 407.743ZM199.696 406.574C196.606 403.408 198.584 398.754 203.013 398.754C206.763 398.754 207.498 399.508 206.989 402.73C206.461 406.706 202.127 408.93 199.696 406.574ZM747.649 388.748C744.407 387.429 744.992 381.605 748.459 380.286C752.944 378.515 757.372 383.603 754.414 387.127C751.983 390.01 751.323 390.217 747.649 388.748ZM205.067 385.808C203.672 382.209 206.386 378.817 210.212 379.552C214.923 380.438 214.564 387.051 209.778 387.786C207.724 388.088 205.576 387.203 205.067 385.884V385.808ZM214.338 367.623C212.51 365.342 212.567 364.306 214.998 361.875C217.806 359.162 218.164 359.162 220.971 361.875C223.402 364.306 223.478 365.342 221.631 367.623C220.368 369.092 218.691 370.355 217.956 370.355C217.221 370.355 215.601 369.092 214.338 367.623ZM738.377 365.927C738.377 362.102 739.112 361.367 742.353 361.819C744.991 362.177 746.329 363.572 746.329 365.927C746.329 368.283 744.991 369.696 742.353 370.054C739.037 370.487 738.377 369.753 738.377 365.927ZM223.986 349.966C222.366 345.84 224.721 341.636 228.189 342.296C232.014 343.031 233.409 349.005 230.167 351.059C226.7 353.264 225.079 352.982 223.986 349.966ZM728.371 350.041C727.033 346.498 729.03 343.786 732.931 343.786C736.455 343.786 738.302 346.8 737.04 350.399C736.022 353.489 729.615 353.207 728.371 350.041ZM234.294 332.592C232.749 330.745 232.825 329.35 234.652 326.92C237.894 322.51 243.34 324.639 242.529 329.934C241.87 334.645 237.234 336.116 234.294 332.592ZM717.686 332.29C716.367 328.766 718.346 326.034 722.247 326.034C725.714 326.034 728.427 330.519 726.75 333.251C725.13 335.833 718.798 335.154 717.686 332.29ZM706.87 317.724C703.704 316.461 704.062 310.129 707.379 308.81C711.807 307.19 716.443 312.711 713.56 316.178C711.129 319.042 710.469 319.194 706.87 317.724ZM246.43 312.71C246.43 308.81 247.09 308.075 250.406 308.584C252.988 308.961 254.382 310.355 254.382 312.71C254.382 314.991 252.988 316.461 250.406 316.838C247.09 317.272 246.43 316.536 246.43 312.71ZM692.963 299.896C690.456 297.409 690.456 296.806 692.812 294.45C696.128 291.077 701.047 292.83 701.047 297.334C701.047 301.97 696.486 303.439 692.963 299.896ZM259.545 298.577C258.132 295.053 260.13 292.246 264.106 292.246C267.479 292.246 270.211 296.731 268.516 299.539C266.895 302.12 260.563 301.385 259.545 298.577ZM274.037 283.936C273.377 282.24 274.112 279.809 275.657 278.264C278.088 275.758 278.672 275.833 281.254 278.415C282.875 280.036 283.685 282.597 283.101 284.143C281.687 287.836 275.507 287.686 274.037 283.936ZM677.492 284.671C676.097 280.977 678.829 277.604 682.655 278.339C687.366 279.225 686.989 285.915 682.203 286.574C680.149 286.876 678.019 285.99 677.492 284.671ZM664.169 273.176C661.078 272.158 661.455 265.751 664.696 264.489C666.166 263.905 668.522 264.357 669.916 265.525C674.194 269.143 669.766 275.098 664.244 273.176H664.169ZM289.715 270.16C288.321 266.636 290.375 263.829 294.276 263.829C297.743 263.829 299.665 266.919 298.402 270.537C297.309 273.553 290.902 273.326 289.715 270.16ZM305.695 257.723C304.301 254.2 306.355 251.392 310.331 251.392C314.74 251.392 316.511 254.482 313.798 257.723C311.065 261.04 306.939 261.04 305.695 257.723ZM646.587 257.497C645.984 255.952 646.361 253.898 647.397 252.862C650.186 250.073 654.897 252.504 654.897 256.687C654.897 261.04 648.208 261.699 646.587 257.497ZM322.768 246.982C320.789 244.627 320.864 243.665 323.22 241.31C327.045 237.484 332.039 239.615 331.304 244.702C330.645 249.564 325.934 250.807 322.768 246.982ZM629.288 246.756C628.628 244.984 629.213 242.629 630.532 241.235C633.924 237.843 639.219 240.273 638.559 244.984C637.9 249.771 630.984 251.109 629.288 246.756ZM341.763 237.843C339.992 236.09 340.218 230.494 342.121 229.306C345.287 227.403 349.64 230.493 349.055 234.319C348.528 238.069 344.118 240.198 341.763 237.843ZM611.763 236.674C610.368 233 613.082 229.684 616.908 230.419C621.619 231.304 621.26 237.918 616.474 238.578C614.42 238.955 612.272 238.069 611.763 236.674ZM359.495 228.949C357.215 226.669 358.252 221.58 361.267 220.487C365.017 218.998 367.674 221.656 366.863 225.858C366.204 229.231 361.7 231.153 359.495 228.949ZM593.352 227.403C592.768 225.858 593.069 223.709 594.106 222.692C596.97 219.809 602.492 221.731 602.492 225.708C602.492 230.192 594.973 231.662 593.352 227.403ZM377.755 220.262C374.891 216.794 379.527 211.197 383.936 212.892C387.554 214.287 387.554 220.488 383.936 221.882C380.186 223.352 380.412 223.352 377.755 220.262ZM576.204 221.882C574.075 219.734 574.809 214.514 577.316 213.553C580.915 212.158 584.307 214.966 583.572 218.716C582.912 222.164 578.409 224.087 576.204 221.882ZM396.241 213.195C395.638 211.65 395.94 209.52 396.976 208.484C399.841 205.601 405.362 207.522 405.362 211.499C405.362 215.983 397.843 217.454 396.241 213.195ZM555.739 211.876C556.418 207.447 562.222 205.393 564.351 208.842C566.575 212.46 564.276 215.908 559.565 215.908C556.041 215.908 555.306 215.098 555.739 211.876ZM418.025 210.104C414.2 207.221 415.877 201.699 420.664 201.699C425.168 201.699 426.995 206.561 423.697 209.802C421.625 211.931 420.588 211.932 418.025 210.104ZM537.931 210.764C534.407 208.559 536.16 202.585 540.362 202.585C542.944 202.585 543.886 203.773 543.886 206.863C543.886 211.574 541.606 213.119 537.931 210.764ZM437.228 205.751C434.722 203.245 434.721 202.661 437.02 200.305C440.393 196.932 445.255 198.685 445.255 203.189C445.255 207.824 440.695 209.294 437.228 205.751ZM518.201 207.089C514.81 204.941 516.731 198.986 520.858 198.986C523.063 198.986 524.533 200.38 524.91 202.811C525.494 206.863 521.82 209.294 518.201 207.089ZM498.698 205.318C495.306 203.188 497.228 197.215 501.279 197.215C503.559 197.215 505.029 198.609 505.331 200.964C505.915 205.091 502.24 207.522 498.698 205.318ZM456.599 202.454C455.996 200.89 456.373 198.835 457.41 197.799C460.123 195.01 464.835 197.44 464.835 201.643C464.835 205.977 458.22 206.637 456.599 202.454ZM476.537 202.378C475.953 200.682 476.103 198.533 477.064 197.667C479.778 194.859 485.299 196.989 485.299 200.833C485.299 205.393 478.233 206.637 476.537 202.378ZM685.971 789.998C675.664 775.356 675.664 775.432 678.905 774.169C680.657 773.434 682.731 774.47 684.408 776.826C687.517 781.311 688.61 781.462 693.17 778.145C696.487 775.639 696.487 775.582 693.246 771.964C690.532 768.874 690.306 767.781 692.228 765.482C694.206 763.126 695.676 764.464 703.044 775.639C709.225 784.854 710.996 788.905 709.451 789.847C708.113 790.733 705.909 789.64 703.704 786.832C699.502 781.763 697.071 781.311 693.98 785.005C692.284 787.134 692.586 788.528 695.601 792.429C698.541 796.104 698.918 797.592 697.146 798.685C693.698 800.814 693.622 800.758 685.971 789.998ZM715.105 771.304C710.921 766.16 707.228 761.657 706.945 761.299C706.719 760.922 705.324 761.506 703.855 762.769C701.273 764.898 697.523 764.012 697.523 761.299C697.523 758.793 713.428 748.409 715.406 749.596C716.65 750.406 716.367 751.801 714.596 753.704C712.165 756.437 712.617 757.605 718.949 765.934C722.774 770.928 725.94 775.865 725.94 776.826C725.94 781.763 721.964 779.69 715.105 771.304ZM733.082 764.671C733.082 760.638 737.492 759.828 738.962 763.578C740.073 766.518 738.735 768.215 735.437 768.215C734.099 768.215 733.082 766.593 733.082 764.671ZM723.584 756.361C721.078 753.855 722.548 750.482 726.072 750.482C728.579 750.482 729.54 751.424 729.163 753.421C728.503 756.663 725.488 758.283 723.584 756.361ZM742.353 741.794C732.63 735.463 729.973 732.881 731.518 731.336C733.082 729.791 735.494 730.375 741.317 733.842C750.23 739.062 750.664 738.478 744.634 729.565C741.618 725.155 740.808 722.423 741.977 721.255C743.748 719.483 744.558 719.785 756.11 727.209C760.595 730.017 760.595 730.017 757.73 725.589C749.929 713.378 750.155 714.037 753.528 708.817C756.411 704.464 757.504 704.031 763.628 704.973C770.469 706.085 770.469 706.085 767.737 700.865C765.249 695.927 765.306 695.117 768.698 689.294C772.014 683.773 772.975 683.189 777.894 684.225C782.756 685.186 783.208 684.885 781.945 681.87C779.891 676.65 779.891 673.616 782.171 672.805C783.283 672.447 785.111 674.879 786.223 678.327C788.352 684.734 789.615 685.469 800.865 687.466C805.727 688.352 807.121 689.294 806.311 691.292C805.576 693.271 803.597 693.799 798.66 693.139C791.97 692.253 791.97 692.253 794.383 697.906C795.796 701.374 796.154 704.539 795.193 706.084C793.29 709.099 793.214 708.949 789.087 699.527C786.298 693.063 784.96 691.951 778.855 690.915C775.029 690.255 771.43 690.18 770.827 690.708C768.924 692.611 776.141 706.82 781.436 711.606C786.505 716.166 786.807 720.217 782.021 720.217C780.777 720.217 778.346 718.672 776.65 716.825C773.861 713.66 756.845 708.214 755.224 709.835C754.866 710.287 758.032 716.166 762.291 722.95C767.963 731.92 769.583 735.896 768.189 737.517C766.267 739.797 765.381 739.515 757.58 734.125C750.664 729.339 750.23 730.092 755.45 737.951C759.652 744.282 760.236 750.614 756.637 750.256C755.883 750.256 749.42 746.355 742.353 741.794ZM804.106 678.478C799.904 670.903 796.606 668.848 788.428 668.773C782.171 668.698 784.678 664.42 791.367 663.76C797.624 663.101 797.774 662.875 794.91 658.314C793.723 656.392 793.44 653.528 794.25 651.681C795.343 648.817 796.078 649.401 799.169 655.658C802.862 663.176 806.838 665.154 817.655 665.154C821.405 665.154 821.706 665.607 820.01 668.773C818.39 671.788 817.071 672.222 811.681 671.204C805.293 670.017 805.293 670.017 808.233 674.219C809.853 676.499 811.173 679.816 811.173 681.418C811.173 687.391 808.308 686.204 804.106 678.478ZM818.013 656.035C814.037 648.742 813.302 648.308 805.293 647.78C795.569 647.121 794.533 643.371 803.805 642.41C810.061 641.826 810.211 641.599 807.498 636.53C806.461 634.533 806.103 631.669 806.688 630.048C807.573 627.843 808.817 628.861 812.284 634.608C816.543 641.826 817.071 642.127 825.682 642.127C836.197 642.127 837.084 646.16 826.625 647.045C820.237 647.648 820.237 647.649 823.176 653.754C825.23 658.088 825.532 660.444 824.194 661.782C822.8 663.177 821.028 661.481 818.013 656.035ZM947.492 534.282C944.778 533.83 943.007 532.812 943.591 531.851C944.119 530.965 943.893 530.23 943.007 530.23C942.121 530.23 941.763 514.25 942.272 493.201C943.892 420.914 932.699 360.406 906.43 299.03C903.622 292.548 903.622 292.473 907.523 292.699C909.747 292.906 912.536 293.942 913.78 295.185C915.042 296.448 917.02 297.032 918.283 296.599C922.108 295.186 924.238 298.144 929.759 312.636C942.498 345.839 952.655 388.974 956.857 427.171C958.986 447.127 959.646 516.399 957.724 519.565C957.065 520.582 955.011 520.959 953.089 520.374C948.453 518.886 948.604 524.125 953.239 526.631C957.14 528.761 958.252 535.677 954.634 535.318C953.39 535.092 950.149 534.64 947.492 534.282ZM100.029 513.308L98.7668 506.675L93.6221 512.629L88.4021 518.679L90.8899 511.235C93.3962 503.811 93.3958 503.811 86.0466 506.374L78.6033 508.88L84.2 503.735C90.2302 498.138 89.2692 496.442 80.0732 496.442C77.6423 496.442 76.1725 495.707 76.8321 494.671C77.4351 493.728 80.8833 492.918 84.426 492.843H91.0406L84.7843 487.604C78.0946 481.951 79.9226 480.614 88.459 484.967C94.508 488.133 94.5079 488.208 91.0406 479.878C87.1398 470.607 87.7993 469.947 93.5468 476.863L98.6914 483.044L99.9537 476.28C101.424 468.629 104.288 470.607 104.288 479.294C104.288 484.307 104.288 484.307 108.999 478.786C114.747 471.926 115.99 472.737 112.542 481.141C109.809 487.529 109.809 487.529 114.973 484.891C123.358 480.538 125.205 481.951 118.497 487.529L112.316 492.843H118.873C127.994 492.918 128.88 495.782 120.193 497.177C113.051 498.289 113.05 498.289 118.063 502.774C123 507.334 123 507.334 118.497 506.091C116.066 505.431 113.05 504.47 111.882 504.018C110.261 503.434 110.337 504.828 112.316 509.539C116.141 518.754 115.481 519.413 109.602 512.422C104.514 506.373 104.364 506.317 104.288 510.651C104.213 518.754 101.273 520.506 99.9537 513.308H100.029ZM857.398 516.248C857.398 507.994 855.494 507.184 850.048 513.006L844.81 518.679L847.542 511.763C849.012 507.994 850.256 504.621 850.256 504.319C850.256 504.018 846.882 504.828 842.755 506.317L835.161 508.804L841.059 503.735C847.391 498.289 846.279 496.517 836.348 496.442C832.674 496.442 832.221 496.009 834.294 494.671C835.764 493.728 839.665 492.919 842.981 492.919C848.936 492.919 848.937 492.918 843.849 489.018C835.388 482.686 834.728 481.725 839.873 482.893C842.454 483.496 845.997 484.514 847.617 485.174C850.255 486.135 850.406 485.777 848.71 482.611C847.617 480.614 846.731 477.448 846.807 475.695C846.807 473.114 847.617 473.471 850.557 477.523C854.684 482.969 857.247 481.499 857.322 473.697C857.322 471.417 858.132 470.099 859.169 470.683C860.13 471.267 860.94 474.734 860.94 478.258V484.74L866.16 478.635C872.058 471.776 872.793 472.378 869.024 481.272C866.537 487.246 866.537 487.246 872.793 484.664C881.028 481.197 881.914 482.536 875.073 488.264L869.552 492.919H875.808C879.181 492.919 882.498 493.728 883.082 494.671C883.761 495.632 882.347 496.442 880.142 496.442C872.266 496.517 870.796 499.174 876.317 503.207C881.763 507.259 879.992 508.221 872.341 505.281C868.289 503.736 867.781 503.886 868.742 506.374C869.326 507.919 870.287 511.311 870.871 513.968C871.983 518.528 871.832 518.452 866.537 512.422C861.072 506.241 861.072 506.241 861.015 511.894C860.94 514.985 860.13 518.02 859.169 518.679C858.132 519.263 857.398 518.151 857.398 516.248ZM173.126 329.426C160.689 321.907 160.161 321.322 162.743 317.271C164.288 314.84 173.559 315.293 181.888 318.232C183.792 318.892 182.02 316.103 177.762 311.599C170.846 304.25 170.544 303.515 172.975 299.896C175.613 295.996 175.613 295.996 188.804 304.023C196.078 308.452 201.976 313.163 201.976 314.558C201.976 318.232 198.962 317.723 189.747 312.409L181.587 307.774L189.313 315.801C198.961 325.807 198 328.239 185.638 324.998C173.936 321.907 173.201 322.718 182.831 328.032C190.274 332.14 192.046 335.305 187.467 336.191C186.147 336.492 179.74 333.402 173.126 329.426ZM767.963 334.062C767.303 332.291 770.394 329.652 777.969 325.45C786.506 320.739 788.936 318.534 788.936 315.293C788.936 307.849 793.139 309.545 797.925 318.967C801.242 325.525 802.052 328.767 800.639 330.086C799.32 331.48 798 330.971 796.229 328.54C793.723 325.148 793.44 325.223 781.945 330.896C768.415 337.51 769.207 337.379 767.963 334.062ZM759.785 318.156C757.957 315.952 758.39 314.407 762.366 309.187C766.342 304.024 766.719 302.78 764.439 301.894C762.95 301.31 759.784 302.12 757.372 303.666C753.679 306.096 752.718 306.153 750.965 304.023C749.269 301.969 751.474 299.821 762.893 292.623C776.876 283.71 776.876 283.71 780.249 289.307C786.072 298.804 786.581 301.311 783.641 305.796C781.794 308.585 779.232 309.997 775.764 309.997C772.09 309.997 769.357 311.542 766.342 315.443C762.592 320.154 761.782 320.512 759.785 318.156ZM778.195 296.957C776.951 293.64 774.294 293.207 770.394 295.713C768.189 297.108 768.264 297.843 771.129 301.085C773.993 304.175 774.878 304.401 776.951 302.328C778.27 301.009 778.855 298.577 778.195 296.957ZM197.416 298.22C184.753 289.664 182.548 287.837 182.548 285.689C182.397 281.43 186.147 281.43 191.819 285.689C205.067 295.563 206.612 296.222 209.778 293.056C213.98 288.854 213.603 288.195 202.052 279.809C193.949 273.911 191.819 271.555 193.289 269.802C194.759 268.031 197.416 269.142 205.651 275.022C211.399 279.073 216.618 283.936 217.221 285.689C218.823 290.475 214.866 298.578 209.778 300.858C204.257 303.364 205.444 303.666 197.416 298.22ZM738.811 287.761C727.259 279.507 742.429 257.648 757.146 261.342C762.083 262.586 766.794 268.333 766.794 273.12C766.794 274.872 764.213 279.074 760.972 282.542C754.056 290.042 744.916 292.171 738.811 287.761ZM752.718 281.052C763.252 273.986 760.387 263.546 749.571 269.35C742.711 272.969 739.188 279.149 741.901 282.466C744.784 285.914 745.651 285.839 752.718 281.052ZM218.691 275.174C219.275 273.629 219.784 272.082 219.784 271.63C219.784 271.197 221.706 270.895 223.986 270.895C226.342 270.895 228.773 269.652 229.357 268.107C231.128 263.396 228.773 261.851 223.685 264.489C214.188 269.275 211.248 269.501 207.422 265.676C205.444 263.697 203.823 260.588 203.823 258.836C203.823 254.049 210.362 247.793 215.375 247.793C221.047 247.793 221.047 250.958 215.375 253.163C212.868 254.049 210.89 256.028 210.89 257.573C210.89 260.965 213.245 260.965 220.086 257.422C233.71 250.356 243.057 266.259 230.827 275.606C226.267 279.074 217.353 278.772 218.691 275.249V275.174ZM712.542 258.383C711.128 256.027 713.352 253.389 725.865 242.554L735.946 233.81L741.618 241.159C748.157 249.695 748.459 251.92 743.673 256.687C739.037 261.342 733.365 261.191 728.295 256.404C724.169 252.504 724.169 252.504 720.042 256.404C715.406 260.738 714.238 261.04 712.542 258.383ZM740.148 248.753C740.148 243.816 735.494 242.346 731.97 246.247C728.729 249.846 728.729 249.997 732.046 252.428C735.645 255.066 740.148 253.012 740.148 248.753ZM233.107 249.111C225.08 241.611 223.76 235.788 228.698 229.532C232.523 224.595 239.514 223.2 244.376 226.291C248.051 228.646 244.809 232.265 239.966 231.379C230.393 229.532 230.469 240.726 240.098 247.058C246.072 250.959 250.632 249.112 249.521 243.289C248.277 236.901 254.458 233.508 256.003 239.689C259.546 253.973 244.734 260.078 233.107 249.111ZM703.478 248.753C702.969 247.265 703.327 243.59 704.439 240.5C707.171 232.623 705.023 230.777 699.351 236.166C695.017 240.349 694.282 240.499 692.228 238.068C690.23 235.713 691.474 233.66 700.387 224.238C706.135 218.132 711.279 212.969 711.882 212.667C713.352 211.932 725.94 226.009 725.94 228.364C725.94 231.455 717.027 239.332 714.521 238.371C713.051 237.787 711.355 239.915 709.885 244.4C707.529 251.693 705.174 253.164 703.478 248.679V248.753ZM718.195 229.023C718.798 227.478 717.988 224.897 716.367 223.276C713.71 220.619 713.277 220.62 710.544 223.352C708.114 225.783 707.963 226.8 709.885 229.099C712.825 232.623 716.876 232.547 718.195 229.023ZM168.698 244.627C164.137 243.892 163.987 243.514 166.568 238.803C167.529 236.9 169.809 235.355 171.505 235.355C176.725 235.355 182.68 230.041 182.096 225.933C181.361 220.412 176.499 220.261 168.773 225.481C159.728 231.587 153.679 231.379 148.025 224.519C145.444 221.58 143.39 217.529 143.39 215.625C143.39 210.537 148.158 202.001 152.134 199.871C155.752 197.949 168.264 197.29 168.264 199.062C168.264 202.152 164.137 206.938 161.423 206.938C157.447 206.938 154.056 210.311 154.056 214.362C154.056 218.942 159.2 218.414 169.074 212.892C177.234 208.332 177.686 208.332 183.566 211.121C186.882 212.666 190.425 216.134 191.443 218.716C196.022 230.776 181.945 246.831 168.698 244.627ZM776.725 242.629C773.917 239.614 774.143 238.445 780.927 222.899C784.828 213.778 787.843 206.128 787.617 205.902C787.316 205.6 781.587 209.728 774.803 214.966C765.532 222.165 761.933 224.087 760.161 222.617C758.918 221.581 757.881 219.809 757.881 218.716C757.881 216.944 793.798 187.435 796.003 187.435C796.455 187.435 798.151 189.337 799.696 191.693C802.259 195.669 802.184 196.706 797.699 207.221C788.861 228.364 788.936 227.479 795.645 222.089C813.679 207.523 812.868 207.899 816.11 211.121C817.938 212.968 818.39 214.589 817.278 215.625C813.754 218.942 783.566 243.59 781.662 244.777C780.551 245.437 778.346 244.475 776.725 242.629ZM259.244 231.455C257.265 226.292 254.307 219.074 252.762 215.475C250.124 209.294 250.199 208.766 253.138 207.165C255.569 205.827 259.169 207.372 269.1 213.93C276.11 218.566 282.498 222.9 283.176 223.653C285.456 225.858 279.634 228.137 276.317 226.291C271.248 223.652 265.726 228.063 266.311 234.319C267.196 243.006 263.145 241.31 259.244 231.455ZM264.106 218.057C259.47 214.815 257.925 216.135 260.563 221.147C262.259 224.238 263.145 224.52 265.199 222.843C267.423 220.996 267.272 220.337 264.106 218.057ZM680.073 227.403C680.733 224.086 697.881 201.775 699.803 201.699C704.514 201.492 702.159 208.181 693.98 218.489C685.369 229.23 678.754 233.508 680.073 227.403ZM670.727 221.58C670.576 220.845 670.35 218.339 670.274 216.059C669.916 210.311 664.904 207.164 660.494 209.878C657.705 211.649 650.695 210.103 653.201 208.332C653.654 207.955 659.684 203.188 666.675 197.667C677.567 189.055 679.772 187.943 682.353 189.865C685.218 191.919 685.086 193.088 680.582 207.522C677.567 217.171 674.853 222.899 673.383 222.899C671.97 222.899 670.802 222.315 670.727 221.58ZM675.946 201.643C677.793 196.329 677.793 196.329 673.44 199.212C668.597 202.378 667.919 204.432 671.311 205.751C672.573 206.279 673.666 206.712 673.817 206.787C673.968 206.938 674.929 204.582 675.946 201.643ZM283.384 208.709C275.808 197.949 274.112 196.63 272.133 199.871C270.588 202.378 268.233 202.077 267.196 199.212C265.802 195.745 282.649 183.533 285.23 186.096C286.7 187.566 286.474 188.904 284.345 191.184C281.763 194.049 282.14 195.085 288.83 204.733C297.008 216.36 297.159 216.794 293.465 218.264C291.713 218.942 288.472 215.832 283.384 208.709ZM747.724 209.37C743.974 206.713 743.899 206.354 746.537 201.191C749.269 195.971 749.194 195.669 743.823 190.299C738.377 184.853 738.151 184.777 733.139 187.717C728.22 190.524 727.843 190.524 724.753 186.982C722.906 185.003 722.247 183.082 723.283 182.724C724.244 182.347 734.1 176.9 745.218 170.644C764.948 159.375 765.532 159.243 769.583 162.183C771.863 163.879 773.785 165.707 773.861 166.31C773.861 167.704 752.793 212.308 752.134 212.158C751.926 212.158 749.929 210.839 747.724 209.37ZM760.538 171.756C760.236 171.454 756.694 173.301 752.661 175.788C745.293 180.499 745.293 180.5 749.345 183.816C753.471 187.133 753.471 187.133 757.297 179.69C759.351 175.657 760.821 172.038 760.538 171.756ZM184.677 195.01C169.96 179.482 169.96 179.482 173.936 176.165C177.837 173 177.912 173 191.084 186.399C204.991 200.607 205.576 200.964 211.022 198.024C216.995 194.783 214.866 189.262 202.052 175.053C192.705 164.689 190.199 160.845 191.744 159.3C192.912 158.207 194.759 157.245 195.871 157.245C199.319 157.245 222.667 182.723 223.986 187.867C225.532 194.35 221.254 202.586 213.905 207.014C203.748 213.27 200.733 212.007 184.677 195.01ZM310.689 188.245C303.49 175.506 302.605 171.454 307.316 171.454C310.18 171.53 323.503 197.214 322.033 199.645C319.828 203.188 318.434 201.775 310.689 188.245ZM632.228 197.667C628.101 195.518 624.728 193.238 624.728 192.578C624.728 189.921 639.219 164.312 640.689 164.312C644.439 164.312 643.93 168.514 638.993 178.445C632.379 191.542 632.378 191.844 638.785 194.501C642.008 195.896 643.629 197.591 642.969 199.137C641.801 202.302 641.348 202.227 632.228 197.667ZM323.729 180.066C318.509 168.665 317.624 165.349 319.527 164.087C322.994 161.882 323.352 162.032 332.265 168.872C336.826 172.34 340.501 174.771 340.501 174.318C340.501 173.885 338.955 169.91 337.127 165.5C334.187 158.641 334.037 157.396 336.317 156.51C340.218 155.041 353.541 184.117 349.923 186.247C348.246 187.283 344.269 185.286 337.561 180.292C327.121 172.34 326.311 173.301 332.85 186.172C335.281 190.883 334.771 194.576 331.832 194.576C331.021 194.576 327.403 188.018 323.804 180.066H323.729ZM616.248 189.79C615.004 189.338 614.043 186.982 614.043 184.702C614.043 178.747 607.711 175.506 603.528 179.332C599.91 182.573 596.311 183.006 596.311 180.142C596.311 178.22 615.89 154.004 617.586 153.854C618.094 153.778 619.565 154.457 620.884 155.343C622.881 156.511 623.107 160.262 622.071 173.886C621.411 183.308 620.299 190.958 619.64 190.807C618.98 190.732 617.511 190.299 616.248 189.79ZM615.814 168.44C615.814 163.88 615.739 163.804 613.233 167.121C609.841 171.53 609.841 173.226 613.158 173.226C614.854 173.226 615.814 171.53 615.814 168.44ZM233.559 176.392C208.666 145.035 208.742 145.167 213.679 141.945C216.26 140.249 218.767 139.646 219.634 140.531C220.369 141.417 225.682 148.333 231.279 155.927C236.932 163.503 241.945 169.683 242.379 169.683C242.831 169.683 246.279 167.252 249.973 164.312C258 158.056 258.132 157.98 260.714 162.691C262.768 166.592 262.334 167.12 246.223 179.029C239.589 183.967 239.589 183.968 233.559 176.392ZM363.924 177.202C363.038 175.506 360.965 169.834 359.213 164.689C356.48 156.209 355.67 155.267 352.071 156.209C349.414 156.887 347.642 156.285 347.058 154.664C345.965 151.875 364.207 143.848 367.297 145.77C369.954 147.391 369.219 149.445 365.544 151.216C362.152 152.761 362.153 153.044 366.411 165.123C371.499 179.633 371.348 177.936 368.107 179.18C366.637 179.764 364.809 178.898 363.924 177.202ZM710.318 177.051C706.286 173.961 706.286 173.961 715.03 161.297C719.891 154.231 724.451 147.523 725.205 146.354C725.865 145.167 719.891 149.671 711.882 156.285C698.993 166.97 696.996 168.062 694.64 165.782C692.36 163.426 692.737 161.071 698.258 145.694C701.706 136.046 703.855 128.905 703.044 129.866C702.309 130.751 697.749 137.083 693.038 143.923C688.327 150.763 684.276 156.586 683.974 156.944C683.164 158.056 676.248 155.192 676.248 153.722C676.248 151.876 702.592 113.885 704.288 113.301C704.948 113.075 707.831 114.695 710.62 116.9C715.783 121.027 715.783 121.027 711.882 133.389C709.658 140.097 707.604 146.712 707.171 148.05C706.417 150.405 717.253 142.755 726.223 134.501C731.009 130.167 731.009 130.167 736.455 134.067C739.47 136.197 741.901 138.553 741.901 139.288C741.901 140.456 718.723 175.205 715.482 178.898C714.897 179.558 712.617 178.747 710.318 177.051ZM586.078 177.334C584.816 176.901 583.873 175.356 583.873 174.037C583.873 172.699 582.913 167.403 581.801 162.183L579.822 152.837L576.505 162.41C572.68 173.735 572.831 173.433 569.948 171.605C566.273 169.4 575.921 141.266 580.331 141.266C583.874 141.266 584.684 143.189 586.512 155.042C587.906 163.804 590.054 163.577 591.75 154.532C592.843 148.709 596.82 144.733 599.175 147.088C599.684 147.597 598.949 151.498 597.479 155.701C596.009 159.978 593.955 166.819 592.843 171.021C590.865 178.521 590.262 179.03 586.078 177.334ZM380.545 164.011C378.999 158.791 377.322 151.724 376.719 148.2C375.702 141.793 375.777 141.793 383.786 139.72C394.244 137.082 395.563 137.158 395.563 140.324C395.563 141.869 393.076 143.339 389.307 144.074C380.771 145.619 381.43 150.99 390.193 150.99C397.994 150.99 399.464 155.116 392.19 156.586C388.496 157.321 386.744 158.715 386.744 160.92C386.744 165.499 389.1 166.367 395.563 164.087C400.142 162.466 401.612 162.541 402.856 164.539C404.552 167.252 399.539 169.985 389.024 172.265C383.427 173.434 383.352 173.376 380.545 164.011ZM542.058 163.502C537.046 158.565 536.537 152.76 540.287 143.847C545.073 132.22 558.905 130.977 563.333 141.794C570.324 158.716 553.987 175.431 542.058 163.502ZM554.062 159.45C560.751 151.95 558.472 137.742 551.104 140.606C546.11 142.528 543.151 156.662 546.92 160.412C549.784 163.276 550.821 163.144 554.062 159.45ZM406.398 153.269C405.211 146.127 403.817 139.061 403.365 137.441C402.781 135.236 404.401 134.274 410.657 133.389C415.086 132.654 420.306 132.655 422.284 133.258C426.637 134.652 428.767 142.453 425.978 146.938C424.282 149.67 424.565 151.291 427.73 155.701C430.972 160.186 431.197 161.448 429.143 162.691C427.447 163.879 425.525 162.918 422.736 159.45C420.532 156.737 418.685 153.929 418.685 153.194C418.685 152.535 417.442 151.875 415.877 151.875C413.522 151.875 413.239 153.195 414.275 159.018C415.293 165.274 415.011 166.084 412.052 166.084C409.188 166.084 408.226 164.011 406.398 153.194V153.269ZM420.08 142.377C419.269 136.63 411.618 136.046 411.618 141.718C411.618 147.164 412.73 148.201 417.14 147.014C419.495 146.429 420.456 144.884 420.08 142.377ZM437.303 148.71C436.719 141.21 436.059 133.842 435.833 132.372C435.683 130.902 437.152 129.488 439.15 129.206C441.656 128.829 444.143 131.034 447.988 137.234L453.358 145.694L453.867 136.348C454.244 129.941 455.13 127.077 456.807 127.077C459.031 127.077 459.539 130.223 461.819 158.565C461.895 159.3 460.708 160.11 459.238 160.412C457.693 160.713 453.943 156.945 450.042 151.066C446.443 145.695 443.201 141.266 442.749 141.266C442.316 141.266 442.466 145.543 442.975 150.763C443.786 158.282 443.409 160.487 441.204 161.297C438.924 162.183 438.264 159.979 437.303 148.71ZM523.497 159.018C523.497 156.945 524.382 149.745 525.494 142.962C527.115 133.031 528.151 130.6 530.714 130.6C533.296 130.6 533.729 131.712 533.07 136.348C532.636 139.589 531.675 146.505 530.94 151.875C529.979 159.093 528.886 161.807 526.587 162.259C524.383 162.692 523.497 161.656 523.497 159.018ZM262.259 145.317C256.964 137.082 252.102 129.432 251.443 128.32C250.632 127.076 248.635 127.51 245.412 129.639C240.701 132.73 240.4 132.729 238.12 129.563C236.801 127.811 235.764 125.889 235.764 125.38C235.764 124.777 242.246 120.444 250.123 115.733C263.729 107.554 264.539 107.347 266.895 110.437C269.1 113.377 268.892 114.112 264.991 117.353C262.636 119.332 260.639 121.612 260.639 122.422C260.639 123.157 265.067 130.6 270.437 138.854C275.808 147.089 280.142 154.08 280.142 154.457C280.142 154.74 278.314 156.285 276.034 157.755C272.058 160.412 271.757 160.185 262.259 145.317ZM503.484 147.391C504.445 134.727 504.219 133.916 500.676 132.955C498.547 132.446 496.851 130.751 496.851 129.281C496.851 127.077 498.396 126.775 505.105 127.736C509.59 128.32 514.81 128.828 516.581 128.828C518.428 128.828 519.897 130.016 519.897 131.486C519.897 133.182 518.277 134.143 515.488 134.143C511.794 134.143 511.06 135.01 511.06 139.212C511.06 151.951 508.855 160.789 505.614 160.789C502.749 160.789 502.523 159.451 503.484 147.391ZM472.278 143.037C476.386 130.6 478.308 127.077 480.89 127.077C484.998 127.077 484.941 126.85 490.312 144.357C494.721 158.716 494.721 159.018 491.197 159.018C489.125 159.018 487.222 157.547 486.694 155.474C486.034 152.987 484.263 151.951 480.739 151.951C477.347 151.951 475.444 153.043 474.633 155.474C474.03 157.396 472.052 159.018 470.205 159.018C467.115 159.018 467.265 157.905 472.278 143.037ZM482.643 142.152C482.643 139.721 481.832 137.742 480.89 137.742C479.853 137.742 479.043 138.477 479.043 139.363C479.043 140.248 478.61 142.227 478.007 143.772C477.272 145.619 477.875 146.58 479.778 146.58C481.625 146.58 482.643 145.035 482.643 142.152ZM290.243 144.357C289.715 142.152 287.887 130.826 286.266 119.199C283.308 98.8662 283.308 97.9992 286.474 95.7002C291.92 91.7429 293.691 92.7608 309.822 109.476C329.326 129.639 329.533 130.016 323.503 132.73C319.376 134.652 318.434 134.425 315.626 130.977C311.801 126.266 311.65 126.266 303.773 130.016C298.101 132.73 297.592 133.465 298.478 138.911C299.213 143.49 298.704 145.167 296.122 146.58C291.562 149.011 291.336 148.936 290.243 144.357ZM301.719 121.177C304.301 119.255 303.924 118.239 298.402 111.907L292.297 104.841L293.465 111.982C295.538 124.57 296.273 125.38 301.719 121.177ZM645.852 138.628C636.505 133.54 634.885 119.934 642.084 106.084C655.35 80.5499 688.101 92.8358 679.847 120.292C676.474 131.561 666.015 141.266 657.328 141.21C653.578 141.134 648.339 139.947 645.852 138.628ZM662.416 129.281C671.235 119.2 673.591 104.915 666.901 102.333C656.367 98.2063 641.876 122.139 649.885 130.223C653.051 133.333 659.25 132.881 662.416 129.281ZM327.554 103.22C319.753 79.74 319.678 79.4382 323.428 78.4018C330.287 76.5739 331.455 77.1577 344.194 89.1615L356.706 101.015L351.336 86.2217C348.321 78.0433 346.097 71.203 346.323 71.0522C346.549 70.8261 348.452 70.1671 350.525 69.5076C354.935 68.1885 354.275 66.9258 363.698 94.6834C370.387 114.338 370.463 114.62 366.863 116.542C363.038 118.596 363.773 119.123 342.347 100.713L333.434 92.987L338.898 108.514C344.42 124.117 344.269 126.925 337.561 127.001C336.468 127.076 331.964 116.317 327.554 103.22ZM579.012 113.377C573.848 112.341 573.848 112.415 581.518 85.9204L587.982 63.4772L596.16 65.9639C600.645 67.3772 607.278 69.2808 610.953 70.3173C617.51 72.0886 618.905 74.293 616.097 78.6272C615.004 80.3986 612.799 80.3236 605.356 78.1189C594.615 74.8776 594.973 74.8024 594.163 81.6429C593.654 86.4293 594.313 87.0888 600.645 88.8602C608.164 91.065 609.558 92.7603 607.052 96.7365C605.733 98.8659 604.263 98.9422 598.006 97.039C593.955 95.8518 590.412 95.1169 590.13 95.4184C589.903 95.7011 588.283 100.204 586.587 105.273C584.967 110.436 583.421 114.489 583.271 114.413C583.12 114.263 581.141 113.81 579.012 113.377ZM378.641 105.273C379.15 101.165 380.413 89.8212 381.43 80.173C383.503 59.8589 383.653 59.5575 389.91 59.5575C394.169 59.5575 396.015 61.9124 406.757 80.9827C413.39 92.685 418.308 103.069 417.724 104.03C415.595 107.478 408.603 105.801 406.606 101.297C404.401 96.5858 402.931 96.228 394.018 97.9993C389.382 98.8662 388.497 99.9033 388.497 104.106C388.497 107.271 387.253 109.834 385.048 111.022C378.792 114.338 377.529 113.301 378.641 105.273ZM396.298 88.7095C398.729 87.7673 398.597 86.7312 395.431 80.5502C391.229 72.2211 391.154 72.2959 389.608 82.2456C388.421 90.0471 389.684 91.2158 396.298 88.7095ZM538.233 104.614C524.458 97.8489 523.44 73.6905 536.311 60.0095C542.134 53.8286 555.814 54.3379 562.448 60.9711C574.225 72.7487 569.364 98.8096 554.269 105.066C546.995 108.156 545.224 108.081 538.233 104.689V104.614ZM554.929 91.517C557.812 85.8449 557.887 69.7891 555.08 67.0002C551.48 63.4763 545.073 64.5693 541.983 69.3557C538.157 75.1786 536.763 88.2005 539.401 93.1377C542.341 98.659 551.839 97.698 554.929 91.517ZM430.312 91.065C427.372 61.4042 427.881 63.1 421.191 63.1C416.028 63.1 415.143 62.5154 415.143 58.8973C415.143 54.9212 415.877 54.6385 428.917 53.4513C436.493 52.7918 443.936 51.9071 445.557 51.3983C447.535 50.8895 448.723 51.9821 449.307 54.9971C450.193 59.6328 448.063 61.3288 441.355 61.3288C437.963 61.3288 437.755 62.0642 438.848 73.333C439.433 79.9662 440.469 89.1621 441.129 93.7978C442.24 102.184 442.24 102.183 436.87 102.183C431.574 102.183 431.424 102.032 430.312 91.065ZM463.063 100.411V50.7381H479.043C494.948 50.7381 495.098 50.7382 495.098 55.1478C495.098 59.35 494.571 59.5575 484.414 59.5575C473.823 59.5575 473.748 59.5578 473.748 64.7965C473.748 69.7903 474.181 70.0914 482.209 70.6002C489.351 71.0525 490.67 71.7123 491.197 75.1043C491.706 78.7789 491.047 79.0803 482.718 79.0803C475.067 79.0803 473.748 79.5888 473.748 82.5285C473.748 84.3753 473.22 87.1643 472.636 88.7095C471.75 91.1404 473.371 91.517 483.321 91.517C494.646 91.517 495.098 91.7427 495.098 96.0015C495.098 100.411 494.948 100.411 479.043 100.411H463.063Z" fill="#22924A"/>
</svg>
