<svg width="959" height="698" viewBox="0 0 959 698" fill="none" xmlns="http://www.w3.org/2000/svg">
<path fill-rule="evenodd" clip-rule="evenodd" d="M175.633 560.047C173.798 557.834 175.122 554.884 183.54 542.248C189.082 533.982 194.038 527.172 194.7 527.172C197.727 527.172 208.887 538.484 208.887 541.51C208.887 550.893 201.567 556.284 192.922 553.333C187.531 551.403 186.945 551.63 182.575 557.021C178.527 561.977 177.563 562.412 175.633 560.047ZM200.829 544.252C202.248 542.02 202.021 540.621 199.883 538.559C197.368 535.968 196.838 536.195 194.038 540.47C191.447 544.386 191.371 545.501 193.3 546.75C196.327 548.679 198.465 547.941 200.829 544.252ZM782.565 553.635C777.25 551.479 766.014 535.457 766.014 529.991C766.014 520.608 777.023 515.198 784.646 520.892C787.956 523.332 787.956 523.484 784.779 526.586C782.338 528.95 781.241 529.177 780.655 527.626C779.312 524.07 773.032 524.959 773.032 528.648C773.032 532.866 784.778 548.301 788.032 548.301C791.664 548.301 792.837 545.35 790.85 541.51C788.77 537.595 793.064 532.355 795.939 535.23C800.081 539.524 799.854 546.39 795.352 550.892C790.623 555.621 788.562 556.075 782.565 553.635ZM156.055 546.542C150.513 541.075 151.78 535.666 161.371 523.03C170.621 510.772 171.642 510.034 174.895 513.288C176.371 514.688 174.612 518.168 168.029 526.51C159.611 537.292 158.06 542.986 163.603 542.986C164.927 542.986 170.167 537.821 175.274 531.39C183.616 521.043 184.94 520.003 187.304 522.367C189.669 524.732 188.855 526.434 179.851 537.594C168.691 551.346 162.997 553.484 156.055 546.542ZM793.423 524.448C782.944 512.02 782.206 510.469 786.273 508.918C787.881 508.256 792.099 511.661 797.944 518.376C806.797 528.572 813.606 531.9 813.606 526.074C813.606 524.523 809.615 518.528 804.659 512.834C798.833 506.119 796.014 501.466 796.677 499.688C798.303 495.394 801.33 497.398 811.469 509.221C821.513 521.119 822.913 526.661 817.143 532.43C810.353 539.221 804.3 537.159 793.423 524.448ZM133.073 527.172C127.02 521.044 128.495 514.102 138.18 504.114C145.557 496.434 147.638 495.261 152.594 495.696C156.358 496.15 159.536 497.91 161.825 501.012C166.478 507.216 163.962 513.647 153.256 523.559C144.611 531.541 138.539 532.639 133.073 527.172ZM150.664 515.425C158.117 506.856 158.874 503.755 153.54 502.79C148.224 501.75 135.437 516.163 137.291 521.043C139.069 525.621 143.193 523.843 150.664 515.425ZM816.708 507.007C803.108 494.22 803.108 494.22 807.099 490.456C810.58 487.203 811.601 486.976 814.571 488.981C816.481 490.229 821.135 493.105 824.899 495.394L831.784 499.536L825.353 490.002C818.032 479.145 817.749 477.67 822.099 473.678C825.05 471.011 826.015 471.617 838.291 483.874C849.584 495.337 850.908 497.323 848.922 499.839C846.784 502.355 845.744 501.825 838.651 495.034C830.384 487.127 830.385 487.94 838.575 500.065C845.668 510.545 842.131 512.909 830.309 505.665L821.513 500.274L828.531 507.594C834.584 513.874 835.17 515.122 832.881 517.354C830.668 519.492 828.531 518.092 816.708 507.007ZM117.259 511.283C115.424 507.972 115.784 506.705 119.775 502.562C122.726 499.536 123.993 496.661 123.255 494.807C121.78 490.892 120.891 491.118 115.273 496.509C110.695 500.879 104.926 501.389 104.926 497.398C104.926 496.434 111.055 490.002 118.602 483.06L132.259 470.5L137.953 477.083C141.131 480.696 143.722 485.424 143.722 487.505C143.722 492.291 138.464 497.172 133.451 497.172C130.935 497.172 129.535 498.288 129.535 500.274C129.46 501.977 127.171 506.043 124.352 509.297C119.34 515.123 119.34 515.122 117.259 511.283ZM135.588 487.865C138.407 483.363 134.548 480.336 129.744 483.363C125.62 485.935 124.882 489.34 128.268 490.74C131.446 492.007 133.527 491.194 135.588 487.865ZM93.482 483.874C89.8501 479.448 87.183 475.607 87.4856 475.229C93.0279 470.273 115.784 453.136 116.9 453.136C117.713 453.136 120.967 456.314 124.144 460.229C128.873 466.074 129.46 467.833 127.682 469.99C125.828 472.279 124.882 471.9 120.967 467.323C116.748 462.443 116.086 462.234 112.984 464.598C109.579 467.095 109.655 467.246 113.797 471.692C117.335 475.531 117.637 476.478 115.424 477.821C111.641 480.261 110.544 479.959 108.406 476.043C106.174 471.825 102.637 471.465 99.6106 475.154C97.7569 477.367 97.8325 478.407 99.97 480.923C104.415 486.087 104.926 487.865 102.41 489.927C100.575 491.478 98.646 490.23 93.482 483.874ZM842.718 480.337C834.962 474.057 828.833 468.061 829.117 467.02C830.006 463.559 839.161 453.136 841.318 453.136C845.233 453.136 845.309 456.238 841.526 460.967C838.064 465.469 837.989 465.923 840.788 468.647C843.607 471.466 844.117 471.313 847.806 466.66C851.362 462.234 852.024 462.007 854.086 464.523C856.091 466.888 855.864 467.985 852.535 471.465C848.619 475.683 848.619 475.683 852.686 478.559C856.602 481.283 856.98 481.207 860.82 476.781C863.184 474.057 865.908 472.562 867.46 473.167C870.637 474.415 869.238 477.519 861.785 486.087L856.829 491.78L842.718 480.337ZM81.9433 468.061C80.0896 465.847 80.2409 464.731 82.7567 462.082C87.0506 457.278 83.2106 450.998 77.3656 453.211C74.5661 454.251 72.788 453.873 71.2369 452.038C68.2672 448.482 69.8371 447.517 89.7743 440.802C105.153 435.619 110.166 435.696 110.166 441.162C110.166 443.016 87.0505 470.349 85.2724 470.576C84.686 470.652 83.2107 469.536 81.9433 468.061ZM96.0544 448.71C100.708 443.829 100.121 443.319 93.5387 446.345C91.0418 447.442 89.0367 449.447 89.0367 450.772C89.0367 454.328 91.4768 453.59 96.0544 448.71ZM856.451 459.718C848.544 454.611 842.264 449.731 842.491 448.861C843.607 444.643 848.846 443.527 856.98 445.74C867.913 448.634 868.424 447.518 858.758 441.824C853.348 438.646 851.135 436.281 851.797 434.598C853.348 430.531 855.58 431.269 870.789 441.086C878.62 446.193 885.278 450.468 885.638 450.695C885.94 450.922 885.354 452.625 884.313 454.535C882.535 457.94 882.025 457.941 872.491 455.5C867.1 454.025 862.295 453.211 861.86 453.646C861.406 454.1 864.66 456.692 869.086 459.492C876.917 464.448 878.487 467.701 873.456 468.514C872.056 468.722 864.433 464.806 856.451 459.718ZM141.282 193.782C132.713 183.076 126.358 173.693 127.171 172.955C136.837 164.67 144.082 160.452 148.451 160.452C154.731 160.452 161.522 167.111 161.976 173.542C162.108 176.058 163.224 178.12 164.416 178.12C165.665 178.12 170.242 181.372 174.612 185.439C182.14 192.381 182.367 192.893 179.549 195.995C175.425 200.592 173.42 200.138 167.878 193.044C162.487 186.405 160.198 185.648 155.318 189.204C152.442 191.342 152.594 192.004 158.495 199.097C161.976 203.24 164.851 207.306 164.851 208.195C164.851 209.443 159.233 213.359 157.455 213.359C157.171 213.359 149.851 204.564 141.282 193.782ZM151.78 173.693C148.451 168.662 144.233 168.434 141.282 173.163C139.807 175.528 140.317 177.078 143.646 180.71C147.865 185.212 147.922 185.213 151.326 181.732C154.656 178.498 154.656 178.119 151.78 173.693ZM794.236 210.711C792.477 208.63 792.477 207.004 794.236 202.805C796.242 198 796.014 197.186 792.25 194.159C788.335 190.982 787.824 190.907 783.152 193.631C778.366 196.525 773.107 195.408 771.935 191.19C771.708 190.32 781.09 182.999 792.837 174.941C814.193 160.244 814.193 160.244 818.486 164.519C822.686 168.738 822.686 168.737 811.601 191.057C805.472 203.315 799.571 213.359 798.455 213.359C797.339 213.359 795.428 212.186 794.236 210.711ZM805.397 182.488C810.58 173.314 809.766 172.729 801.33 179.746C796.09 184.097 795.579 185.137 797.641 187.577C800.668 191.342 800.384 191.568 805.397 182.488ZM175.558 167.186C167.651 155.44 161.446 145.754 161.673 145.527C161.976 145.319 166.837 141.914 172.607 137.847C180.665 132.229 183.54 130.981 185.394 132.457C189.309 135.71 188.118 138.226 180.665 142.501C173.571 146.568 173.571 146.568 177.26 151.808C181.024 157.067 181.024 157.066 187.247 152.413C192.998 147.968 193.584 147.892 196.327 150.635C198.994 153.434 198.919 153.888 195.003 157.142C192.638 159.052 189.536 161.265 188.118 162.079C185.904 163.346 185.98 164.31 188.799 169.039C192.714 175.679 192.336 175.68 200.678 169.986C206.012 166.373 207.847 165.938 209.928 167.621C213.767 170.799 213.257 171.536 201.132 180.257L189.896 188.39L175.558 167.186ZM761.134 183.661C757.218 180.71 757.218 180.71 767.206 165.786L777.174 150.786L763.649 163.573C751.903 174.638 749.614 176.133 746.587 174.582C744.658 173.542 743.107 172.501 743.107 172.274C743.107 172.066 745.85 164.972 749.179 156.479C752.489 148.043 754.929 141.101 754.646 141.101C754.343 141.101 750.276 147.022 745.547 154.247C740.818 161.568 736.543 167.488 736.089 167.413C735.579 167.413 733.649 166.222 731.814 164.822C728.561 162.382 728.92 161.416 742.01 141.99C749.538 130.83 756.707 121.675 758.032 121.675C759.299 121.675 762.174 123.15 764.463 124.985C768.606 128.314 768.605 128.314 762.023 144.79L755.459 161.266L768.227 148.573C781.014 135.937 781.014 135.937 786.784 139.55C789.886 141.536 792.477 143.692 792.477 144.354C792.477 144.941 786.273 154.777 778.725 166.07C765.125 186.461 764.993 186.612 761.134 183.661ZM215.47 161.795C213.919 158.617 208.66 148.705 203.856 139.777L195.079 123.434L202.531 119.083C215.167 111.687 220.35 111.479 226.554 118.119C235.634 127.879 232.759 140.949 220.71 145.092C219.234 145.603 219.82 148.346 222.715 154.399C226.63 162.532 226.687 163.044 223.736 165.257C219.31 168.435 218.723 168.226 215.47 161.795ZM221.75 133.572C222.998 130.016 219.158 123.434 215.829 123.434C207.922 123.434 207.033 125.137 211.1 132.306C214.202 137.621 215.621 138.661 217.986 137.412C219.593 136.523 221.296 134.821 221.75 133.572ZM716.36 156.839C713.996 155.515 713.712 154.039 714.885 149.821C716.284 145.092 715.925 144.279 710.969 141.764C705.729 139.04 705.351 139.115 702.627 142.804C700.338 145.755 698.636 146.34 694.853 145.395C692.205 144.714 690.275 143.541 690.578 142.728C691.316 140.723 715.395 112.879 720.654 107.923C724.418 104.386 725.534 104.159 729.658 106.012C735.276 108.585 735.276 107.033 729.885 131.056C727.369 141.914 725.005 152.545 724.494 154.777C723.605 158.977 721.089 159.639 716.36 156.839ZM721.751 126.176C722.791 122.336 723.378 119.008 723.094 118.705C722.791 118.346 720.068 121.296 716.947 125.136C711.858 131.492 711.631 132.23 714.45 133.781C718.289 135.994 719.387 134.896 721.751 126.176ZM833.108 153.51C831.709 152.621 829.855 152.261 829.117 152.772C828.304 153.302 821.513 148.781 814.041 142.804C779.766 115.319 737.867 91.4475 693.756 74.2342C667.292 63.8873 666.706 63.5082 668.257 59.5359C669.222 57.0201 671.076 57.3048 683.787 61.9581C722.867 76.2962 762.477 96.5548 793.877 118.27C811.393 130.471 838.14 151.883 838.291 153.888C838.348 155.666 836.211 155.515 833.108 153.51ZM846.482 150.181C844.931 148.422 844.193 146.341 844.931 145.604C845.669 144.866 846.255 142.652 846.255 140.591C846.255 137.999 847.806 136.523 851.513 135.483C856.242 134.234 857.642 134.973 865.095 142.35C869.767 146.871 873.077 150.994 872.491 151.524C871.98 152.11 870.429 151.07 869.162 149.311C865.549 144.355 855.58 144.431 853.348 149.443C851.211 154.248 850.322 154.324 846.482 150.181ZM252.923 143.163C250.199 141.025 245.319 132.305 240.666 121.599C233.345 104.31 233.118 103.497 236.296 101.132C238.074 99.8649 240.004 98.7678 240.514 98.7678C241.101 98.7678 245.092 106.826 249.461 116.643C258.182 136.297 261.719 140.137 266.448 135.408C269.247 132.608 268.888 131.265 261.208 113.541C252.999 94.6254 252.772 92.563 258.844 91.447C261.36 90.9363 263.648 94.4737 269.777 108.434C274.052 118.118 277.608 128.541 277.608 131.492C277.76 142.728 261.87 150.181 252.847 143.163H252.923ZM677.431 138.075C674.764 137.413 674.329 134.972 674.253 120.256L674.178 103.194L668.787 116.416C662.431 132.154 663.244 131.209 657.778 129.79C653.408 128.769 653.408 128.768 663.017 105.559C668.257 92.7717 672.835 82.0649 673.213 81.6866C673.573 81.2516 676.088 81.9899 678.755 83.2383C683.56 85.4704 683.56 85.4701 682.747 101.87C682.236 110.874 682.085 118.042 682.293 117.759C682.52 117.532 685.338 111.1 688.44 103.572C693.453 91.2954 694.493 89.9713 697.898 91.0117C699.96 91.5981 701.889 92.3364 702.173 92.5634C703.441 93.6605 684.071 139.247 682.368 139.115C681.347 139.039 679.115 138.51 677.431 138.075ZM282.64 108.661L274.43 84.865L282.564 82.1404C299.986 76.1441 309.311 80.8164 307.079 94.3979C306.341 98.9756 306.72 100.527 308.573 100.527C312.773 100.527 316.764 108.51 316.102 115.754C315.667 121.599 314.626 123.074 308.498 126.328C304.658 128.389 299.116 130.603 296.146 131.265C290.83 132.381 290.83 132.381 282.64 108.585V108.661ZM304.941 118.194C307.892 114.94 307.892 114.43 305.168 110.288C302.142 105.634 299.55 104.82 295.484 107.412C293.573 108.66 293.497 110.136 295.2 115.319C297.564 122.488 300.288 123.301 304.941 118.194ZM296.07 98.1628C301.026 94.5499 298.226 88.1935 291.644 88.1935C288.844 88.1935 286.48 88.4206 286.48 88.78C286.48 91.1445 290.603 100.527 291.644 100.527C292.306 100.527 294.311 99.5059 296.07 98.1628ZM639.676 124.114C638.333 123.509 637.973 121.012 638.559 117.154C639.297 112.727 638.862 111.1 637.16 111.1C635.741 111.025 632.941 110.591 630.804 109.985C627.702 109.191 626.359 109.985 624.732 113.692C622.973 117.532 621.781 118.195 618.017 117.23C615.577 116.643 613.212 115.754 612.853 115.394C612.039 114.581 637.235 72.6066 639.221 71.3582C639.959 70.9042 642.626 71.283 645.142 72.2287C649.493 73.9312 649.644 74.5175 649.644 88.78C649.644 120.785 647.79 127.425 639.676 124.114ZM640.621 89.9715C640.697 83.7671 640.697 83.767 636.422 91.7495C631.315 101.34 631.239 101.869 635.155 102.683C638.635 103.345 640.47 99.2024 640.621 89.9715ZM322.836 95.8734C319.28 82.6513 316.613 71.5664 316.991 71.207C317.294 70.9043 319.507 70.3937 321.796 70.1667C325.862 69.7317 326.373 70.8295 331.329 89.594C336.569 109.474 336.569 109.474 341.96 108.226C351.493 106.013 354.312 106.448 354.898 110.288C355.333 113.314 353.631 114.278 343.435 116.87C336.871 118.572 330.951 119.972 330.364 119.972C329.778 119.896 326.373 109.114 322.836 95.8734ZM361.538 106.523C360.876 104.083 358.814 94.3223 356.884 84.9401C354.974 75.5578 352.969 66.6293 352.534 65.0025C351.872 62.9975 352.969 61.8247 356.298 61.0113C358.889 60.3304 361.254 60.1226 361.613 60.4064C362.578 61.3711 371.147 103.932 371.147 107.772C371.147 113.239 362.956 112.141 361.538 106.523ZM584.025 109.927C582.323 109.474 580.923 107.772 580.999 106.145C581.074 102.022 590.816 61.8255 592.008 60.6338C593.994 58.6477 612.399 63.8115 615.501 67.292C620.608 72.91 619.568 84.2787 613.439 89.594C609.297 93.1501 607.235 93.6608 600.879 92.8474C594.448 91.9584 593.256 92.2602 593.256 94.8517C593.18 99.5806 589.719 111.101 588.319 110.874C587.657 110.799 585.728 110.363 584.025 109.927ZM607.31 81.2514C610.186 75.8604 609.448 72.305 605.154 70.6782C600.217 68.7677 599.101 69.789 597.626 78.0741C596.434 84.2785 596.661 84.6561 600.955 84.6561C603.603 84.6561 606.194 83.2375 607.31 81.2514ZM387.547 105.559C380.529 102.022 374.041 76.6738 377.067 64.5488C378.619 58.5714 385.334 54.3532 393.316 54.3532C400.637 54.3532 405.517 58.3442 407.352 65.7403C408.392 70.1666 408.089 70.5455 403.436 70.5455C399.899 70.5455 397.894 69.3531 396.645 66.6293C395.681 64.3972 393.316 62.6381 391.406 62.6381C388.152 62.6381 387.849 63.7356 388.152 76.9577C388.436 93.4333 390.649 99.2025 396.343 98.3891C399.237 98.0298 400.41 96.4028 401.072 91.7495C401.809 86.4909 402.698 85.4697 407.068 84.9401C412.081 84.3537 412.156 84.5053 411.192 91.8257C410.605 95.9493 408.695 100.678 406.917 102.457C402.85 106.372 392.578 108.075 387.547 105.559ZM535.922 102.892C522.322 101.133 523.211 103.573 526.237 76.8826C527.732 63.8875 529.415 52.6513 530.096 52.0649C530.683 51.4029 536.811 51.4779 543.678 52.14C555.5 53.3128 556.238 53.6154 556.238 57.7579C556.238 61.9005 555.803 62.033 547.007 61.4466C537.7 60.8603 537.7 60.8599 537.19 66.6293C536.66 71.5663 537.19 72.3049 540.727 72.3049C549.012 72.3806 552.928 74.3854 552.322 78.2253C551.887 81.4788 550.771 81.8377 543.47 81.4026C535.033 80.873 535.033 80.8729 535.033 87.0206C535.033 93.5843 537.19 95.2118 545.683 95.2118C551.377 95.2118 553.211 97.1409 551.66 101.283C550.563 104.007 547.593 104.31 535.922 102.892ZM418.663 101.056C418.663 100.318 420.441 88.7049 422.579 75.4072C426.267 52.5758 426.721 51.1761 430.561 50.8735C432.775 50.741 435.517 50.5895 436.614 50.4382C438.544 50.2869 453.979 92.9982 453.979 98.3891C453.979 102.967 444.521 100.092 443.424 95.2118C442.535 91.5989 441.343 90.8605 436.255 90.8605C430.921 90.8605 430.107 91.4476 429.294 96.1009C428.556 100.319 427.384 101.567 423.544 101.945C420.876 102.304 418.739 101.87 418.663 101.132V101.056ZM438.09 78.7356C438.09 77.6385 436.917 73.1181 435.574 68.7674C433.739 62.9225 433.002 62.033 432.926 65.2865C432.85 67.651 432.339 72.6076 431.734 76.1449C430.713 82.1412 430.921 82.5757 434.401 81.6866C436.387 81.1759 438.09 79.8517 438.09 78.7356ZM483.544 99.5055C481.918 97.8788 481.766 71.4907 483.317 58.6469C484.415 49.3971 484.415 49.398 494.837 49.398C507.776 49.398 513.015 53.6909 514.869 65.7403C516.344 75.9359 513.015 92.1852 508.513 96.2521C504.825 99.5813 485.985 102.021 483.544 99.5055ZM501.571 89.0825C502.744 87.6071 504.144 81.4791 504.598 75.4072C505.487 63.4524 503.784 59.4611 496.691 57.3804C492.851 56.2832 492.775 56.5664 492.7 70.0155C492.7 77.5629 492.265 85.5451 491.659 87.7583C490.77 91.0685 491.3 91.7495 494.989 91.7495C497.429 91.7495 500.38 90.5579 501.571 89.0825ZM416.072 696.316C393.543 694.311 357.546 688.618 336.417 683.756C322.382 680.578 320.093 679.539 320.906 676.872C321.569 674.81 320.755 673.485 318.315 672.672C316.329 672.066 314.702 670.365 314.702 669.041C314.702 667.641 313.964 666.449 312.924 666.449C310.787 666.449 310.711 664.614 312.697 661.436C313.964 659.506 317.653 659.885 333.391 663.649C524.327 708.952 732.76 660.774 851.797 543.799C861.123 534.719 869.029 527.172 869.389 527.172C869.767 527.172 870.051 529.991 870.051 533.377C870.051 536.782 870.864 539.523 871.829 539.523C872.794 539.523 873.607 537.595 873.607 535.155C873.607 530.123 876.18 529.253 877.882 533.679C878.695 535.892 879.509 536.119 880.984 534.568C883.576 531.977 878.033 525.469 873.229 525.469C870.581 525.469 872.188 522.368 881.136 510.924C917.794 463.634 935.745 417.31 938.545 362.397C942.025 293.619 919.345 232.067 868.576 172.955C862.144 165.484 861.482 164.008 864.357 164.008C866.287 164.008 868.878 162.816 870.051 161.341C874.855 155.59 881.287 158.163 890.669 169.777C973.199 271.884 980.67 398.317 910.398 502.865C893.771 527.474 860.971 564.928 856.677 564.115C849.508 562.791 842.207 568.182 847.068 571.208C848.184 571.87 846.709 574.462 843.607 577.413C839.464 581.404 838.348 581.857 838.348 579.568C838.348 574.537 834.811 576.24 833.695 581.706C832.219 588.951 800.668 611.196 763.574 631.209C748.366 639.419 745.699 640.307 742.672 638.378C739.57 636.467 739.267 636.524 740.156 638.964C740.97 641.045 739.04 642.88 732.911 645.982C712.52 656.254 672.627 670.667 642.626 678.574C620.892 684.267 619.492 684.494 619.871 681.978C621.119 672.218 615.425 666.979 609.372 672.445C607.367 674.299 605.608 674.583 603.83 673.486C599.839 670.97 598.874 671.405 598.212 675.699C597.777 678.725 596.15 679.898 591.119 680.712C583.95 681.903 579.145 685.081 579.145 688.694C579.145 691.437 576.345 692.25 558.016 694.899C540.878 697.339 438.903 698.302 416.072 696.316ZM746.663 628.484C746.663 626.933 745.85 626.196 744.885 626.858C743.92 627.444 743.107 628.618 743.107 629.582C743.107 630.471 743.92 631.209 744.885 631.209C745.85 631.209 746.663 629.96 746.663 628.484ZM866.514 546.901C866.514 544.612 864.433 543.061 862.731 544.101C860.896 545.274 862.447 548.376 864.887 548.376C865.776 548.376 866.514 547.714 866.514 546.901ZM951.181 386.193C951.181 385.153 949.932 384.415 948.381 384.415C946.906 384.415 946.168 385.153 946.754 386.193C947.341 387.158 948.608 387.895 949.478 387.895C950.443 387.895 951.181 387.158 951.181 386.193ZM950.973 371.93C953.261 370.02 954.661 367.939 954.075 367.352C953.394 366.69 951.483 367.579 949.705 369.13C947.927 370.757 945.487 372.081 944.314 372.081C943.066 372.081 942.612 372.819 943.198 373.859C944.749 376.299 946.168 375.997 950.973 371.93ZM278.573 667.565C144.895 623.529 44.5656 534.928 11.6711 432.007C1.7781 400.966 0.0756632 388.633 0 349.988C0 302.112 5.92068 274.552 24.7608 234.942C81.6595 115.243 218.723 30.047 395.378 4.62425C401.223 3.81087 402.85 4.11362 402.85 6.09977C402.85 7.51845 403.739 9.20196 404.912 9.93968C406.33 10.8287 406.614 10.0145 405.952 7.36625C405.29 5.00178 405.801 3.58402 407.2 3.58402C408.468 3.58402 411.872 3.07302 414.748 2.5623C419.325 1.59759 420.139 2.03231 421.179 6.02354C422.201 10.3931 427.535 12.6822 427.535 8.91795C427.535 7.87758 426.721 7.13999 425.757 7.13999C424.792 7.13999 423.979 6.02342 423.979 4.69932C423.979 0.27303 454.793 -1.94007 458.935 2.18357C460.562 3.81033 460.997 3.81033 460.997 2.18357C460.997 0.632479 468.544 0.0459579 489.673 0.121621C549.012 0.121621 612.853 10.5448 673.648 30.0469C715.395 43.496 768.757 68.1806 772.143 75.6334C773.997 79.6246 776.588 80.7411 776.588 77.4876C776.588 75.4069 783.152 79.0382 803.032 92.1847C825.712 107.261 842.131 120.408 839.899 121.808C837.686 123.226 837.175 130.678 838.878 137.11C840.429 143.238 837.762 142.066 822.024 129.278C643.515 -15.0299 331.178 -18.2834 143.93 122.185C7.5475 224.519 -21.791 380.651 71.8233 505.892C78.6141 514.991 82.9079 522.007 81.3568 521.345C76.6279 519.567 78.0277 523.332 84.1564 528.95C90.1527 534.341 93.69 535.892 91.4768 532.053C90.8148 530.861 98.0596 537.444 107.669 546.675C153.54 590.729 217.532 627.955 284.702 649.613C292.968 652.262 300.875 654.778 302.35 655.307C304.355 655.97 303.977 656.858 300.591 659.507C297.337 662.022 296.883 662.911 299.04 662.911C303.542 662.987 306.644 667.565 303.107 668.964C300.742 669.853 300.591 670.515 302.35 672.672C305.396 676.284 304.506 676.058 278.573 667.565ZM93.3306 545.502C98.0595 543.724 95.468 537.822 90.0013 537.822C89.6987 537.822 89.4906 539.732 89.4906 542.172C89.4906 547.052 89.415 547.053 93.2549 545.502H93.3306ZM63.4814 507.519C63.1787 503.83 59.3388 501.163 53.7965 500.879C52.1697 500.803 53.1346 502.639 56.4448 505.892C62.9519 512.172 63.8408 512.323 63.4814 507.519ZM679.872 34.8509C677.942 32.9215 672.627 34.3216 672.627 36.7617C672.627 37.6507 674.613 37.9534 677.129 37.4994C680.155 36.913 681.044 36.0237 679.872 34.8509ZM429.294 670.591C389.703 666.827 355.863 661.285 327.565 654.04C180.078 616.057 72.334 530.198 37.0939 422.624C21.791 375.921 21.8667 321.539 37.3209 275.063C77.063 155.137 215.016 59.2336 384.52 33.6595C474.446 20.0779 567.247 26.2826 652.746 51.4784C666.044 55.394 666.555 55.753 663.907 59.8199C662.639 61.9006 659.253 61.4471 643.213 56.7939C536.509 25.9801 412.535 26.7929 305.906 59.0821C296.827 61.8249 290.679 62.9224 290.32 61.8253C289.431 59.1582 286.48 59.5928 286.48 62.3356C286.48 63.7354 278.119 67.9537 266.675 72.38C255.742 76.6739 235.71 85.6781 222.185 92.5634C117.997 145.017 53.2858 221.342 35.9211 312.08C32.5919 329.218 33.1783 373.254 36.8669 392.17C53.8722 478.104 118.734 554.505 217.38 604.537C273.844 633.213 332.502 650.786 403.739 660.547C439.944 665.503 523.362 664.973 559.794 659.658C631.163 649.235 684.373 632.912 740.156 604.311C841.602 552.368 909.074 470.141 921.048 383.601C923.772 364.175 923.412 329.218 920.291 311.04C911.874 261.916 883.349 208.858 845.517 172.066C835.246 162.003 834.735 160.452 841.393 160.528C850.776 160.528 885.713 203.902 902.492 236.342C925.834 281.494 932.87 316.658 929.541 372.97C927.46 408.948 912.611 450.468 889.118 486.011C880.909 498.439 877.806 501.9 876.993 499.611C876.331 497.701 875.518 497.323 874.78 498.515C874.118 499.612 874.042 501.616 874.553 503.016C876.255 507.442 843.966 543.061 838.216 543.061C836.135 543.061 835.246 543.95 835.851 545.425C837.989 551.119 784.571 589.915 748.441 608.964C667.16 651.675 578.558 672.142 477.775 671.48C454.49 671.329 432.699 670.969 429.294 670.591ZM450.518 644.884C449.629 642.671 447.699 637.338 446.299 632.987C443.632 625.005 443.632 625.005 443.556 636.089C443.424 645.85 442.97 647.098 439.868 647.098C436.69 647.098 436.331 645.925 436.331 634.102C436.331 615.319 437.73 609.702 442.232 610.383C444.975 610.742 446.583 613.333 448.664 620.653C451.69 630.981 453.979 629.809 453.979 617.835C453.979 612.879 454.641 611.858 457.743 611.858C461.375 611.858 461.526 612.369 460.41 625.307C459.748 632.684 459.219 641.045 459.219 643.844C459.219 650.124 452.939 650.937 450.518 644.884ZM463.74 644.884C470.909 616.738 472.535 612.747 477.189 612.142C481.691 611.631 481.993 612.141 485.606 628.031C487.668 637.053 489.749 645.395 490.108 646.662C490.638 647.987 489.295 648.876 486.647 648.876C483.62 648.876 482.277 647.76 481.842 644.884C481.388 641.99 480.14 640.893 476.886 640.893C473.633 640.893 472.308 641.99 471.93 644.884C471.495 647.76 470.171 648.876 467.069 648.876C463.437 648.876 462.926 648.214 463.74 644.884ZM479.024 629.431C478.135 623.378 475.921 623.832 474.673 630.32C474.087 633.649 474.597 634.765 476.811 634.765C479.099 634.765 479.629 633.574 479.024 629.431ZM494.553 630.32C494.553 612.955 494.686 611.858 498.015 611.858C501.344 611.858 501.571 612.955 501.571 630.32C501.571 647.685 501.344 648.876 498.015 648.876C494.761 648.876 494.553 647.685 494.553 630.32ZM513.242 644.884C512.656 642.671 512.202 635.579 512.126 628.996C512.126 617.4 512.051 617.097 507.624 617.097C504.219 617.097 503.198 616.284 503.633 613.995C504.522 609.569 526.237 608.377 526.237 612.822C526.237 614.373 524.611 616.132 522.549 616.662C519.087 617.551 518.936 618.346 520.109 631.663C521.073 642.672 520.846 646.057 518.936 647.249C515.304 649.613 514.415 649.159 513.242 644.884ZM422.201 639.343C422.201 633.8 421.387 631.285 419.325 630.471C415.485 628.996 415.05 629.658 413.934 638.075C413.121 643.844 412.232 645.32 409.432 645.32C406.103 645.32 405.952 644.583 407.068 633.422C409.64 608.151 409.565 608.302 416.81 608.302C426.797 608.302 431.602 612.596 430.334 620.427C429.748 623.889 429.37 631.36 429.37 636.978C429.445 645.982 429.086 647.098 425.832 647.098C422.73 647.098 422.201 645.982 422.201 639.343ZM423.619 619.538C423.979 617.325 423.014 615.32 421.179 614.658C417.623 613.258 417.774 613.182 416.223 619.462C415.183 623.888 415.485 624.342 419.098 623.832C421.614 623.453 423.317 621.902 423.619 619.538ZM532.669 642.217C532.082 639.569 531.193 630.849 530.531 622.866C529.491 609.115 529.567 608.302 532.896 608.302C536.66 608.302 537.19 610.307 539.611 635.2C540.727 646.361 540.576 647.098 537.19 647.098C534.674 647.098 533.331 645.622 532.669 642.217ZM550.563 643.258C546.269 639.853 543.905 632.324 543.905 621.826C543.905 611.555 544.718 609.778 550.62 606.675C556.541 603.498 564.22 607.053 566.661 613.995C569.252 621.391 569.025 636.903 566.377 640.516C563.331 644.583 554.327 646.133 550.563 643.258ZM560.456 626.253C560.229 614.43 558.319 610.666 553.438 612.52C550.922 613.484 550.62 615.319 551.376 624.039C552.474 636.089 553.665 638.681 557.713 637.867C560.078 637.413 560.607 635.2 560.456 626.253ZM387.849 642.294C384.974 641.859 382.004 640.969 381.342 640.307C380.756 639.701 381.569 631.209 383.196 621.524C386.071 604.462 386.374 603.875 390.592 604.386C403.814 605.786 406.538 606.751 406.028 609.701C405.592 612.009 403.89 612.596 398.858 612.142C393.165 611.631 392.276 612.066 392.276 615.244C392.276 617.987 393.694 619.235 397.534 619.973C401.223 620.711 402.85 622.129 402.85 624.493C402.85 627.368 401.961 627.671 396.872 626.706C391.765 625.742 390.649 626.196 389.703 629.298C388.076 634.387 389.836 636.467 395.908 636.467C399.899 636.467 401.072 637.261 401.072 640.004C401.072 643.693 399.521 643.92 387.849 642.294ZM577.386 641.196C577.386 641.044 575.835 632.987 573.981 623.378C572.051 613.693 570.954 605.199 571.389 604.386C573.754 600.622 578.785 603.8 583.949 612.293C589.87 621.903 591.043 620.653 588.092 607.942C586.9 602.759 587.127 601.208 589.265 600.395C590.759 599.884 592.31 599.733 592.745 600.187C594.221 601.662 600.274 633.876 599.479 636.089C597.626 640.97 592.235 638.076 587.43 629.431C584.687 624.645 582.115 620.653 581.585 620.653C580.772 620.653 582.115 630.773 583.723 636.751C584.252 638.529 583.212 639.929 580.923 640.516C578.994 641.121 577.386 641.328 577.386 641.196ZM361.916 637.337C361.405 636.827 362.351 629.658 364.053 621.524C367.004 607.053 367.004 606.599 363.77 605.577C361.992 604.972 360.516 603.29 360.516 601.795C360.516 599.506 361.992 599.222 369.312 600.187C374.173 600.849 379.356 601.795 380.832 602.4C385.107 604.027 383.858 608.302 379.054 608.302C374.4 608.302 372.547 612.671 370.125 629.885C369.236 636.165 368.12 638.226 365.907 638.226C364.205 638.226 362.427 637.867 361.916 637.337ZM605.078 635.124C604.719 634.386 604.795 625.307 605.154 614.884C605.967 596.403 606.119 595.893 610.11 595.893C613.515 595.893 615.652 598.768 622.821 612.596C629.461 625.44 630.88 629.506 628.95 630.244C624.732 631.795 623.483 631.285 622.311 627.52C620.684 622.564 613.723 623.605 612.91 628.996C612.399 632.911 606.422 637.64 605.078 635.124ZM615.35 613.995C613.515 606.599 610.848 604.916 610.848 611.12C610.848 616.663 612.039 618.8 614.839 618.8C615.804 618.8 616.031 616.662 615.35 613.995ZM340.049 621.013L338.347 609.115L335.907 619.235C334.053 627.067 332.729 629.431 330.289 629.431C328.435 629.431 327.035 628.41 326.96 627.218C326.96 621.392 335.093 592.412 336.796 592.412C341.752 592.412 344.551 597.141 344.986 606.466L345.516 616.208L348.694 605.861C351.134 598.106 352.534 595.893 354.595 596.631C356.071 597.217 357.546 597.671 357.849 597.671C358.076 597.671 356.374 605.653 353.933 615.319C350.018 630.982 349.053 632.911 345.592 632.911C342.111 632.911 341.525 631.663 340.049 621.013ZM316.026 626.253C312.186 625.439 312.035 626.48 318.031 606.599C323.044 589.84 324.311 587.76 328.227 590.275C329.778 591.24 329.173 595.591 325.862 607.413C320.604 625.969 320.017 627.142 315.951 626.253H316.026ZM634.795 625.666C634.266 624.342 631.977 616.359 629.688 607.942C626.075 594.928 625.848 592.413 627.985 591.6C631.617 590.2 633.244 591.599 634.568 597.217C635.155 599.885 636.857 606.24 638.257 611.253C640.773 620.125 641.075 620.427 645.35 618.8C651.422 616.511 652.595 616.586 653.862 619.764C654.524 621.599 653.257 623.075 650.003 624.342C641.075 627.747 635.609 628.182 634.72 625.666H634.795ZM667.368 602.684C659.102 580.969 659.102 581.195 665.968 578.679C674.178 575.728 678.604 576.012 681.933 579.719C689.027 587.551 692.715 605.786 687.986 609.645C686.814 610.591 682.822 612.671 679.266 614.146C672.778 616.795 672.778 616.795 667.368 602.684ZM680.382 607.204C683.919 605.785 683.919 600.622 680.231 591.164C677.942 585.111 676.542 583.559 673.062 583.559C670.47 583.559 668.995 584.449 669.373 585.773C670.773 590.937 676.75 608.226 677.129 608.226C677.356 608.226 678.831 607.791 680.307 607.204H680.382ZM277.022 612.066C271.479 605.937 275.679 587.172 284.399 579.417C291.133 573.364 302.35 579.342 302.35 588.951C302.35 594.928 297.621 607.791 293.857 612.217C290.395 616.284 280.786 616.209 277.022 612.142V612.066ZM291.284 601.209C296.6 590.729 296.675 583.106 291.417 583.92C288.542 584.298 286.688 586.87 284.04 594.267C278.195 610.515 283.813 615.849 291.284 601.209ZM253.737 602.835C253.15 601.795 255.212 595.004 258.39 587.683C263.648 575.653 263.932 574.235 261.208 572.684C257.652 570.698 257.293 565.968 260.679 565.968C262.608 565.968 279.008 572.4 280.786 573.875C281.013 574.102 280.786 575.578 280.2 577.129C279.311 579.266 278.27 579.569 275.83 578.226C274.052 577.28 272.217 576.542 271.763 576.542C271.404 576.542 268.377 582.878 265.199 590.653C259.733 603.875 256.555 607.281 253.737 602.835ZM694.569 591.164C684.96 570.319 684.96 570.621 695.231 566.403C700.036 564.341 704.462 563.168 705.067 563.755C707.432 566.195 705.729 569.222 700.773 571.208C695.004 573.648 694.72 574.31 697.217 578.226C698.56 580.382 699.809 580.515 704.103 578.907C712.823 575.653 714.733 581.706 706.165 585.319C701.511 587.248 701.209 587.835 702.987 591.751C704.178 594.342 705.881 595.666 707.432 595.079C720.578 590.048 723.17 595.458 710.231 601.132C705.729 603.138 701.814 604.765 701.511 604.765C701.152 604.765 698.031 598.636 694.569 591.164ZM237.109 595.968C234.972 594.644 234.896 593.377 236.75 588.421C239.474 580.666 239.398 578.906 236.22 577.639C234.461 576.977 232.456 578.907 230.016 583.692C226.838 589.84 226.025 590.502 222.847 588.8C219.461 586.946 219.594 586.359 227.5 571.586C232.021 563.168 236.088 555.697 236.523 554.959C237.715 552.954 250.861 560.274 252.923 564.039C255.136 568.181 252.639 576.088 248.573 577.639C247.173 578.225 245.905 579.852 245.905 581.328C245.905 585.243 241.99 597.671 240.817 597.671C240.212 597.671 238.585 596.933 237.185 595.968H237.109ZM245.546 568.332C246.284 563.301 241.252 561.542 238.812 566.044C237.772 567.955 237.412 570.395 238.074 571.36C239.928 574.386 245.016 572.324 245.546 568.332ZM734.689 572.097C728.031 560.426 726.631 558.95 723.018 559.915C720.276 560.577 718.573 560.048 717.911 558.364C717.173 556.51 719.992 554.07 727.161 550.231C736.089 545.502 737.565 545.123 738.529 547.639C739.116 549.341 738.378 551.403 736.751 552.67C734.103 554.581 734.614 556.132 741.348 568.484C747.401 579.568 748.441 582.444 746.436 583.692C742.672 586.132 742.672 586.133 734.689 572.097ZM204.234 578.679C197.727 574.385 197.14 573.497 199.127 570.319C200.318 568.409 204.612 561.088 208.66 554.071L216.056 541.359L224.776 546.163C234.159 551.346 234.31 551.478 232.021 555.186C230.678 557.172 229.505 557.021 224.852 554.297C220.048 551.403 219.083 551.346 217.683 553.635C215.091 557.626 215.545 558.8 220.35 561.013C225.136 563.169 225.438 563.906 223.15 567.595C221.75 569.732 220.785 569.581 216.643 566.933C211.989 563.831 211.762 563.831 209.474 566.933C206.088 571.511 206.447 572.626 212.5 575.728C217.91 578.528 218.723 582.369 214.07 583.031C212.651 583.258 208.225 581.271 204.234 578.679ZM435.442 582.595C433.512 582.293 423.165 581.12 412.535 580.003C343.227 572.626 267.64 547.563 216.359 514.915C207.487 509.221 205.35 507.008 205.35 503.3C205.35 500.652 204.612 499.253 203.572 499.839C202.607 500.501 202.248 501.693 202.834 502.639C207.336 509.959 185.904 494.069 168.54 477.291C80.5434 392.113 90.9661 279.205 193.887 202.275C210.892 189.582 213.313 188.542 213.692 193.782C213.843 195.995 209.039 200.724 198.616 208.555C180.589 222.004 156.282 246.765 145.633 262.352C136.099 276.387 125.166 299.218 121.477 312.969C117.637 327.156 116.238 359.749 118.886 374.806C135.891 472.714 252.185 551.195 411.646 572.324C460.562 578.831 533.274 576.164 584.839 565.893C704.178 542.248 796.904 481.812 828.304 407.246C842.566 373.33 843.682 337.655 831.482 302.396C804.962 225.409 705.937 158.39 584.404 135.199C542.429 127.216 529.642 126.101 477.775 126.176C424.792 126.176 404.476 128.106 364.053 136.807C314.702 147.457 263.648 166.883 227.803 188.693C223.074 191.568 222.185 191.644 219.896 189.355C218.421 187.88 217.607 186.537 217.91 186.253C229.581 177.533 265.332 159.506 288.693 150.559C378.165 116.416 491.584 107.923 589.568 128.03C675.502 145.679 750.2 183.51 796.601 232.88C831.122 269.52 847.068 306.917 847.068 350.877C847.068 396.162 829.931 434.371 792.61 472.429C734.179 532.052 641.435 570.621 530.021 581.781C513.904 583.408 444.824 583.995 435.442 582.595ZM754.116 567.292C745.036 557.399 740.818 545.653 744.45 540.186C746.209 537.595 752.792 534.19 756.272 534.19C762.325 534.19 774.81 552.519 774.81 561.39C774.81 570.47 760.774 574.537 754.116 567.292ZM767.489 561.75C768.227 557.835 757.597 541.283 754.267 541.283C747.76 541.283 750.427 551.933 759.507 562.053C763.498 566.479 766.6 566.328 767.489 561.75ZM447.775 568.409C329.475 559.234 237.11 523.711 177.846 464.656C138.256 425.216 122.518 389.144 124.731 343.046C125.771 321.766 129.743 306.311 138.766 288.285C185.015 196.07 324.387 132.229 479.553 132.229C560.153 132.229 633.32 148.63 699.884 181.676C780.939 221.872 828.455 279.64 832.446 342.97C839.086 448.86 716.436 543.572 544.643 565.079C523.741 567.67 464.629 569.733 447.775 568.409ZM540.368 557.91C687.022 540.924 801.481 467.701 822.478 377.397C825.712 363.361 825.277 336.236 821.589 320.801C803.335 245.213 715.339 179.595 595.848 152.546C529.642 137.489 450.215 135.861 382.534 148.194C312.186 160.906 248.118 188.012 202.172 224.444C136.477 276.462 115.046 344.295 144.46 406.736C180.816 483.798 285.364 542.172 415.183 557.834C443.783 561.315 510.727 561.315 540.368 557.91ZM657.324 470.803C660.88 458.091 660.804 457.505 654.146 451.661L647.79 446.118H655.848C663.831 446.118 664.058 445.891 667.595 437.776L671.284 429.491L674.178 437.322C677.053 445.078 677.28 445.229 685.773 445.74L694.493 446.345L687.911 451.963C681.555 457.354 681.423 457.713 683.257 464.296C685.698 472.789 684.6 473.905 678.604 469.176C672.4 464.371 670.111 464.523 662.431 470.349C656.075 475.153 656.075 475.154 657.324 470.728V470.803ZM273.182 467.7C273.768 465.033 274.733 461.496 275.168 459.869C275.754 457.94 273.768 455.273 269.474 451.963L262.911 447.007L271.555 446.118C279.973 445.229 280.332 445.002 283.15 437.246L286.101 429.34L288.92 436.149C290.471 439.914 291.795 443.678 291.795 444.567C291.795 445.38 295.862 446.118 300.875 446.118H309.973L303.164 452.038C296.448 457.788 296.373 458.016 298.378 464.656C299.55 468.439 300.213 471.748 299.853 472.127C299.399 472.505 296.013 471.011 292.23 468.798C285.288 464.883 285.288 464.883 279.897 468.647C272.879 473.679 271.763 473.526 273.182 467.7ZM423.014 398.09C424.054 388.86 428.348 348.664 430.334 329.295C431.223 320.877 431.961 319.174 434.761 319.174C437.655 319.174 438.09 320.498 438.09 329.597C438.09 341.268 435.574 339.793 465.877 345.695C476.886 347.851 476.886 347.85 476.886 358.197C476.886 363.872 476.659 368.525 476.375 368.525C476.073 368.525 468.752 366.975 460.032 365.064C442.459 361.148 438.09 360.77 438.09 362.984C438.09 363.797 443.046 365.499 449.099 366.691C479.402 372.517 476.886 371.042 476.886 382.788C476.886 388.482 476.527 393.21 476.073 393.21C474.9 393.21 444.824 386.193 441.192 385.077C439.055 384.415 438.09 385.076 438.09 387.157C438.09 388.859 434.477 394.099 430.032 398.828L421.992 407.473L423.014 398.09ZM472.082 354.206C471.193 353.241 467.504 352.05 463.948 351.464C458.784 350.65 457.535 351.028 457.535 353.165C457.535 355.019 459.975 356.494 464.988 357.459C472.384 359.01 475.486 357.592 472.082 354.206ZM452.201 351.841C452.201 350.366 449.988 348.739 447.34 348.134C444.672 347.548 441.495 346.734 440.171 346.375C438.752 345.921 438.09 346.734 438.468 348.588C438.752 350.29 440.984 352.125 443.424 352.863C450.442 354.792 452.201 354.565 452.201 351.841ZM538.589 404.881C538.589 403.557 536.584 385.152 534.22 363.948C528.545 314.596 528.243 319.174 537.474 319.174C545.229 319.174 545.229 319.174 547.972 337.201C549.523 347.188 552.114 365.802 553.798 378.664C556.03 395.216 557.657 402.007 559.283 402.007C560.759 402.007 561.269 400.607 560.683 398.015C559.87 394.478 549.144 321.765 549.144 319.912C549.144 319.552 550.771 319.174 552.701 319.174C556.767 319.174 556.162 316.961 564.22 360.561C571.976 402.895 571.768 402.007 574.132 402.007C575.381 402.007 575.608 400.02 574.87 396.312C574.208 393.135 570.954 375.846 567.549 357.971C564.145 340.02 560.967 323.904 560.456 322.201C559.643 319.685 560.683 319.174 566.509 319.174C573.527 319.174 573.527 319.174 583.59 360.561C589.057 383.393 594.296 402.007 595.185 402.007C597.626 402.007 597.474 401.344 587.052 359.521C581.736 338.09 577.386 320.215 577.386 319.837C577.386 319.477 585.141 319.174 594.599 319.174H611.812L622.897 355.757C637.897 405.184 636.346 402.007 644.612 402.007C648.32 402.007 651.422 401.704 651.422 401.269C651.422 400.682 625.848 331.3 622.235 322.201C621.119 319.25 622.368 319.023 639.146 319.553L657.173 319.988L674.613 360.561C684.147 382.863 692.432 402.517 693.018 404.22C693.907 407.114 689.538 407.246 616.315 407.246C551.585 407.246 538.589 406.886 538.589 404.881ZM525.727 397.713C522.189 393.438 519.22 388.632 519.22 387.157C519.22 383.677 520.563 383.601 500.531 388.784C491.224 391.224 482.863 393.21 481.993 393.21C481.104 393.21 480.442 388.558 480.442 382.788C480.442 373.482 480.802 372.309 484.358 371.571C486.571 371.041 495.291 369.207 503.784 367.429C512.278 365.65 519.22 363.285 519.22 362.188C519.22 360.845 513.242 361.584 501.117 364.326C491.224 366.539 482.504 368.393 481.766 368.469C481.029 368.469 480.442 363.872 480.442 358.122C480.442 347.775 480.442 347.775 487.006 346.584C490.638 345.997 499.358 344.143 506.376 342.592C519.087 339.717 519.087 339.717 519.598 329.881C519.957 322.58 520.771 319.912 522.927 319.553C525.14 319.099 525.954 321.179 526.843 330.107C529.34 356.268 533.331 392.851 534.295 398.904C535.695 407.549 533.709 407.246 525.727 397.713ZM494.099 356.854C500.758 355.019 499.131 350.366 492.321 351.841C485.455 353.317 483.904 354.13 483.904 356.268C483.904 358.197 488.273 358.405 494.099 356.854ZM518.047 350.877C521.376 347.775 518.047 346.375 510.802 347.85C505.846 348.796 503.33 350.291 503.33 352.05C503.33 354.282 504.598 354.565 509.913 353.601C513.602 352.939 517.234 351.691 518.047 350.877ZM469.944 322.863C468.544 321.917 463.588 321.614 458.935 322.125C451.615 323.014 450.442 322.73 450.442 320.063C450.442 318.134 451.388 317.396 453.014 318.001C454.357 318.512 458.046 318.285 461.073 317.396C465.139 316.223 468.09 316.583 472.535 318.664C478.078 321.312 479.024 321.311 485.228 318.587C490.033 316.374 493.362 315.996 497.126 317.112C500.096 317.925 503.406 318.285 504.673 317.85C505.846 317.396 506.887 318.437 506.887 319.988C506.887 322.277 505.033 322.787 497.58 322.73C492.548 322.654 484.793 323.014 480.442 323.6C476.073 324.13 471.344 323.752 469.944 322.863ZM446.451 313.783C444.748 312.743 443.783 311.117 444.37 310.227C444.975 309.282 446.148 308.979 447.037 309.49C449.628 311.116 449.023 309.13 444.162 299.52C438.827 289.098 439.055 283.272 444.748 282.459C448.361 281.929 448.664 280.983 448.664 270.56C448.664 261.613 449.25 259.173 451.312 259.173C452.939 259.173 453.979 257.547 453.979 254.823C453.979 251.059 454.793 250.378 459.219 250.378C463.361 250.378 464.553 249.64 464.553 246.84C464.553 244.098 465.726 243.36 469.868 243.36C475.335 243.36 475.713 242.849 477.775 233.75C478.664 229.702 479.251 229.097 480.499 231.102C481.388 232.502 482.126 235.453 482.126 237.667C482.201 240.712 483.469 241.885 487.46 242.698C491.073 243.436 492.775 244.835 492.775 247.067C492.775 249.564 494.024 250.378 498.015 250.378C502.46 250.378 503.33 251.115 503.33 254.595C503.33 257.338 504.598 259.098 506.887 259.703C509.762 260.516 510.367 262.125 510.367 269.596C510.367 276.463 509.762 278.619 507.776 278.619C505.77 278.619 505.108 276.538 505.108 270.711V262.729H452.579L451.917 271.582C451.615 276.387 451.388 280.378 451.539 280.378C451.615 280.378 456.344 278.826 462.113 276.916C467.807 274.987 475.184 273.36 478.437 273.36C483.753 273.284 519.22 283.12 519.22 284.596C519.22 287.32 513.242 301.072 510.216 305.366C506.376 310.757 506.376 310.756 510.14 309.565C512.864 308.676 513.904 309.055 513.904 310.965C513.904 314.9 507.7 316.148 500.455 313.783C495.499 312.157 492.624 312.156 487.46 313.858C483.544 315.183 478.361 315.561 474.9 314.824C466.766 313.121 459.219 312.97 453.979 314.37C451.539 315.032 448.153 314.748 446.451 313.783ZM480.367 293.165C480.367 281.418 479.837 276.765 478.664 278.619C475.562 283.405 476.527 310.303 479.837 310.303C480.14 310.303 480.442 302.623 480.367 293.165ZM467.277 285.561C467.863 284.521 468.015 283.272 467.504 282.743C466.104 281.343 459.219 283.858 459.219 285.769C459.219 288.077 465.801 287.85 467.277 285.561ZM498.015 285.769C498.015 283.707 491.149 281.419 489.598 282.894C488.273 284.218 492.624 287.32 495.878 287.396C497.05 287.396 498.015 286.658 498.015 285.769ZM498.828 257.546C499.415 256.657 497.656 255.636 494.989 255.333C491.508 254.898 489.957 253.631 489.522 250.832C489.011 247.2 488.046 246.84 478.513 246.84C468.544 246.84 468.09 247.068 468.09 251.267C468.09 254.974 467.277 255.636 462.699 255.636C459.521 255.636 457.743 256.374 458.405 257.395C459.748 259.703 497.504 259.76 498.828 257.546ZM470.682 253.858C468.62 250.453 472.536 248.316 479.761 248.902C484.415 249.281 486.571 250.302 486.571 252.156C486.571 255.409 472.592 256.884 470.682 253.858ZM319.355 312.459C317.426 309.414 321.266 306.992 328.813 306.463L336.72 305.876L337.231 259.627C337.458 230.799 338.347 213.359 339.444 213.359C340.484 213.359 341.146 222.892 341.146 237.609C341.146 250.907 341.676 271.96 342.338 284.293L343.435 306.765H388.738V202.805H568.59V306.765H613.874L615.066 277.427C615.652 261.254 616.163 240.258 616.163 230.724C616.163 220.529 616.901 213.359 617.941 213.359C618.982 213.359 619.871 230.799 620.079 259.627L620.608 305.876L628.515 306.463C635.684 306.992 638.994 308.902 639.07 312.534C639.07 313.272 612.55 313.858 580.034 313.858C522.189 313.858 520.998 313.783 520.998 310.303C520.998 308.392 522.189 306.765 523.665 306.765C525.954 306.765 526.237 300.921 526.237 264.716V222.742L517.744 218.088C506.735 212.111 491.073 208.044 478.664 208.044C466.312 208.044 450.574 212.111 439.565 218.088L431.072 222.742V264.716C431.072 300.921 431.45 306.765 433.739 306.765C435.215 306.765 436.387 308.316 436.387 310.303C436.387 313.783 435.215 313.858 378.316 313.858C346.329 313.858 319.79 313.197 319.355 312.459ZM420.517 282.08C420.517 259.76 420.139 257.112 416.961 253.934C412.743 249.64 405.876 249.356 402.112 253.12C399.823 255.409 399.294 260.573 399.294 281.342V306.765H420.517V282.08ZM558.016 281.796C558.016 261.027 557.505 256.298 555.065 253.555C551.225 249.356 544.794 249.489 540.368 253.934C537.19 257.112 536.811 259.76 536.811 282.08V306.765H558.016V281.796ZM416.148 230.138C418.512 227.773 420.517 224.596 420.517 223.045C420.517 219.64 412.743 211.6 409.508 211.6C404.174 211.6 399.294 217.067 399.294 223.045C399.294 227.187 400.485 229.835 403.228 231.765C408.619 235.529 411.116 235.245 416.148 230.138ZM555.803 230.515C556.976 229.551 558.016 226.222 558.016 223.045C558.016 216.992 556.03 214.551 549.674 212.546C545.229 211.222 536.811 218.089 536.811 223.045C536.811 224.596 538.798 227.849 541.238 230.289C545.759 234.715 550.412 234.866 555.803 230.515ZM455.757 268.782C455.757 266.645 459.673 266.192 478.664 266.192C497.58 266.192 501.571 266.645 501.571 268.782C501.571 270.92 497.58 271.374 478.664 271.374C459.673 271.45 455.757 270.995 455.757 268.782ZM382.307 198.813C379.583 194.368 388.228 193.933 478.74 193.933C560.305 193.933 573.83 194.311 573.83 196.524C573.83 198.151 571.238 199.399 566.377 200.061C555.5 201.537 383.272 200.364 382.307 198.813ZM392.578 189.128C393.165 186.404 395.378 186.026 408.978 186.026C422.654 186.026 424.943 186.461 425.454 189.128C425.984 191.871 424.281 192.155 408.978 192.155C393.77 192.155 392.068 191.871 392.578 189.128ZM468.015 546.012C468.015 544.612 469.282 542.475 470.682 541.283C473.557 538.918 474.446 525.394 471.722 525.394C470.833 525.394 466.312 527.02 461.735 529.025C450.877 533.679 447.472 531.164 454.944 523.919C457.743 521.195 461.527 518.452 463.21 517.866C464.912 517.204 466.312 515.501 466.312 514.026C466.312 512.475 467.807 511.283 469.793 511.283C472.819 511.283 473.349 510.11 473.349 502.865C473.349 498.212 474.219 493.483 475.335 492.367C478.891 488.83 482.126 492.007 482.126 499.025C482.126 507.367 483.62 511.283 486.722 511.283C488.046 511.283 489.957 512.909 490.997 514.839C492.038 516.749 493.437 518.168 494.099 517.941C496.105 517.279 505.108 527.02 505.108 529.914C505.108 533.168 505.184 533.169 494.478 528.95C489.598 526.945 484.793 525.394 483.828 525.394C480.499 525.394 481.993 538.843 485.682 542.172C490.714 546.674 490.108 548.982 484.358 547.412C478.135 545.729 476.81 545.728 472.006 547.28C469.131 548.225 468.09 547.866 468.09 546.012H468.015ZM379.054 529.461C377.143 528.95 372.774 526.661 369.369 524.296C361.405 518.905 353.347 518.982 344.778 524.657C339.387 528.213 336.266 529.026 329.4 528.572C317.88 527.834 317.218 523.029 328.586 522.216C333.164 521.932 338.933 519.851 342.697 517.354C351.342 511.509 362.729 511.51 371.45 517.487C375.441 520.154 380.453 521.857 384.312 521.857C387.774 521.857 394.356 519.927 398.934 517.487C409.565 511.812 422.201 511.282 422.201 516.616C422.201 519.567 421.028 520.154 415.107 520.154C410.681 520.154 405.517 521.705 401.223 524.448C394.13 528.95 384.899 531.012 379.054 529.461ZM531.855 189.128C532.461 186.404 534.674 186.026 548.255 186.026C561.932 186.026 564.22 186.461 564.75 189.128C565.261 191.871 563.558 192.155 548.255 192.155C533.047 192.155 531.345 191.871 531.855 189.128ZM515.966 528.723C509.686 526.358 512.353 522.821 520.922 522.216C525.292 521.857 531.193 519.851 534.825 517.354C543.318 511.661 552.928 511.737 563.256 517.714C573.243 523.484 582.171 523.711 589.795 518.301C596.585 513.44 612.172 511.283 614.461 514.915C616.693 518.603 614.763 520.078 607.67 520.154C603.83 520.154 597.853 522.084 593.256 524.808C582.474 531.088 572.051 531.088 561.345 524.808C551.433 519.039 545.758 518.906 537.19 524.221C529.283 529.253 521.509 530.86 515.966 528.723ZM323.933 510.11C322.685 509.656 321.72 507.67 321.72 505.741C321.72 502.714 322.533 502.355 327.035 503.376C331.102 504.265 334.866 503.3 342.849 499.101C355.863 492.367 359.249 492.292 371.676 498.95C383.934 505.533 385.334 505.533 398.423 498.95C409.943 493.181 416.299 492.367 421.255 496.074C425.984 499.46 423.09 502.94 416.734 501.541C412.818 500.727 408.903 501.749 401.072 505.816C388.076 512.626 381.418 512.702 370.182 506.043C359.324 499.536 356.809 499.536 344.627 506.043C335.528 510.924 329.116 512.247 323.933 510.11ZM514.056 509.732C509.629 506.933 513.242 502.052 518.785 503.3C522.397 504.114 526.54 502.865 534.144 498.874C546.042 492.442 554.914 492.519 563.634 498.95C572.203 505.306 578.937 505.305 590.532 499.176C604.133 491.931 614.404 491.932 614.404 499.252C614.404 502.203 613.515 502.563 608.635 501.617C604.265 500.804 600.501 501.825 592.443 506.118C580.337 512.625 570.727 512.701 561.78 506.27C552.852 499.838 547.385 499.763 535.922 505.892C525.651 511.359 518.633 512.626 514.056 509.732ZM263.573 405.79C263.573 405.809 263.573 405.828 263.573 405.847V405.77V405.79ZM263.573 405.79C264.102 402.65 298.907 322.107 300.515 320.423C301.177 319.629 309.387 319.25 318.693 319.553L335.68 319.988L320.831 359.672C312.621 381.463 305.906 399.945 305.906 400.682C305.906 401.42 309.009 402.007 312.848 402.007C320.755 402.007 318.239 407.776 337.685 344.219L345.365 319.099H362.654C372.187 319.099 379.943 319.402 379.943 319.685C379.943 319.988 375.592 337.579 370.258 358.86C360.138 399.056 359.627 402.007 361.992 402.007C362.729 402.007 367.61 384.717 372.698 363.664C377.805 342.516 382.383 323.904 382.818 322.201C383.499 319.912 385.561 319.099 390.725 319.099C396.645 319.099 397.61 319.629 396.797 322.201C394.565 329.295 381.721 400.891 382.534 401.704C384.52 403.634 385.636 399.207 392.276 363.873C401.223 316.507 400.485 319.099 404.703 319.099C407.806 319.099 408.165 319.912 407.276 324.868C403.89 344.824 396.191 401.193 396.872 401.855C399.161 404.144 400.996 396.029 405.29 364.099C411.929 314.672 410.454 319.099 419.704 319.099C428.556 319.099 428.273 318.209 425.908 337.049C424.943 344.143 422.882 362.851 421.179 378.664L418.077 407.246H340.863C298.624 407.246 264.102 406.603 263.573 405.79Z" fill="#22924A"/>
</svg>
