<svg width="961" height="962" viewBox="0 0 961 962" fill="none" xmlns="http://www.w3.org/2000/svg">
<path fill-rule="evenodd" clip-rule="evenodd" d="M427.382 958.72C316.655 946.024 218.847 898.682 139.998 819.684C61.298 740.687 14.3824 641.781 2.635 529.679C-19.0011 323.765 94.1795 127.497 284.127 41.6039C386.861 -4.93964 509.223 -12.8394 617.905 19.9678C658.203 32.1056 711.867 55.7681 707.945 59.6901C706.848 60.7868 705.974 62.8129 705.974 64.1884C705.974 66.2145 706.718 66.0844 709.544 63.4635C713.094 60.2664 713.391 60.2668 722.239 65.2855C727.257 68.0364 738.446 75.0068 747.145 80.8248C820.344 129.394 883.226 203.596 919.008 283.542C973.321 405.161 974.566 548.193 922.353 670.611C896.145 731.895 853.524 791.431 803.207 837.026C781.496 856.711 768.93 865.782 764.135 865.429C761.012 865.131 760.157 865.707 760.882 867.752C763.41 874.351 698.874 911.898 656.029 928.738C586.325 956.044 501.454 967.14 427.382 958.72ZM436.174 947.176C436.174 945.28 435.375 944.203 434.427 944.779C433.479 945.355 432.68 947.399 432.68 949.351C432.68 951.247 433.479 952.326 434.427 951.749C435.375 951.173 436.174 949.128 436.174 947.176ZM590.322 946.601C590.322 944.779 586.975 943.979 585.953 945.578C585.377 946.6 586.027 947.4 587.552 947.4C589.076 947.4 590.322 947.029 590.322 946.601ZM533.109 934.259C636.141 922.195 729.154 876.971 803.207 802.899C967.596 638.529 981.667 375.903 835.884 194.748C730.083 63.3889 562.942 1.60385 396.025 32.2363C383.088 34.6341 371.396 36.1587 370.169 35.6569C368.868 35.2293 367.846 35.5076 367.846 36.4556C367.846 37.3292 363.348 39.3548 357.753 40.879C287.547 60.1915 215.724 101.512 163.158 152.777C72.6922 240.92 24.5502 356.516 24.4759 485.18C24.4759 499.325 23.8995 511.24 23.1746 511.594C22.4497 512.04 22.8771 512.113 24.0481 511.816C25.5723 511.463 26.2229 513.861 26.2973 519.586C26.2973 524.084 27.0965 533.378 28.0444 540.07C29.3456 548.769 29.2713 552.486 27.9701 552.988C26.7247 553.36 26.8736 554.289 28.3978 555.609C29.7176 556.687 32.6171 566.705 34.7919 577.746C42.6359 617.022 61.521 667.061 82.7853 704.887C118.511 768.642 175.426 828.308 237.658 867.305C245.65 872.324 252.175 877.473 252.175 878.774C252.249 880.019 253.048 880.522 254.071 879.946C255.019 879.369 264.461 883.216 274.982 888.588C321.023 912.176 372.344 927.567 426.304 934.184C453.237 937.455 505.729 937.456 533.183 934.259H533.109ZM445.821 926.34C333.068 916.321 237.658 871.005 159.385 790.409C97.2279 726.448 57.1527 648.25 41.3345 560.256C32.5426 511.389 32.5426 451.481 41.2602 401.666C72.4132 223.708 213.475 78.8538 389.853 43.7231C428.256 36.0836 453.014 34.0581 493.387 35.2291C561.12 37.1065 617.18 50.6941 675.267 79.3749C867.24 173.893 964.548 384.528 912.409 592.636C872.26 752.657 739.896 880.894 578.054 916.545C536.808 925.615 482.792 929.611 445.747 926.34H445.821ZM531.715 915.02C624.374 903.403 711.067 863.904 773.801 804.795C781.719 797.323 788.969 791.728 789.991 792.304C791.013 792.955 791.812 792.081 791.812 790.482C791.812 788.884 797.332 781.635 804.154 774.367C898.821 673.008 938.19 520.163 905.588 380.551C903.617 372.056 901.814 363.914 901.591 362.39C901.368 360.866 900.718 358.841 900.067 357.893C899.491 356.945 897.817 352.223 896.368 347.353C882.631 301.906 854.026 248.243 822.668 209.265C816.571 201.644 813.449 196.273 814.099 194.526C814.75 192.853 814.377 192.202 813.299 192.927C812.277 193.578 801.236 184.06 788.894 171.792C722.759 106.234 644.189 65.4895 553.221 49.5227C541.008 47.4223 535.934 45.7492 535.134 43.7231C534.112 41.1023 533.833 41.1024 531.937 43.5745C530.19 45.9723 527.662 46.1027 514.075 44.7272C493.61 42.6268 442.048 44.3733 418.665 47.9979C408.516 49.5221 397.753 50.9724 394.779 51.2698C391.805 51.4929 388.608 52.2179 387.735 52.7197C386.805 53.2959 380.987 54.8946 374.668 56.3445C255.521 84.0215 143.846 174.339 88.4544 287.817C6.03662 456.927 39.2903 657.841 171.579 789.757C242.454 860.409 329.146 902.808 427.382 914.946C453.312 918.143 506.231 918.198 531.659 915.02H531.715ZM459.836 889.313C456.937 886.469 448.665 881.246 441.546 877.696C429.854 871.878 427.029 871.153 415.263 871.227C402.27 871.301 396.303 873.124 384.184 880.819C380.764 882.994 379.835 882.696 374.166 877.696C367.121 871.525 356.879 868.755 353.031 872.027C349.556 874.852 347.436 873.198 342.511 863.458C335.615 849.74 320.652 838.848 308.737 838.774C302.715 838.699 298.644 836.301 300.243 833.699C303.737 828.178 324.927 835 336.488 845.447C344.76 852.863 345.485 853.142 353.106 851.989C363.571 850.391 377.79 854.889 386.805 862.584C393.255 868.105 393.98 868.328 400.449 866.506C412.419 863.161 431.007 865.781 445.319 872.677C457.085 878.346 471.175 889.593 471.175 893.31C471.175 896.489 464.855 894.239 459.836 889.313ZM385.132 873.198C389.705 867.751 371.916 858.011 357.251 858.011C349.685 858.011 348.384 858.514 348.905 861.135C349.407 863.384 352.009 864.481 359.779 865.429C366.694 866.284 371.917 868.179 375.541 871.078C381.935 876.171 382.586 876.32 385.132 873.198ZM489.688 893.235C488.238 890.837 503.628 877.974 514.223 872.826C527.011 866.58 543.703 863.904 556.77 866.079C566.436 867.677 567.588 867.529 572.161 863.681C584.224 853.811 599.17 849.443 610.36 852.566C616.103 854.09 616.958 853.867 619.43 850.094C625.824 840.372 651.159 829.182 659.579 832.453C664.226 834.2 659.374 838.774 652.757 838.774C639.987 838.848 621.401 852.491 617.627 864.629C615.434 871.525 612.032 873.774 607.013 871.451C600.563 868.477 599.969 865.056 605.935 865.056C610.656 865.056 614.132 861.432 611.808 859.108C608.983 856.264 592.199 858.235 584.578 862.305C580.229 864.629 576.307 866.228 575.861 865.781C574.336 864.257 575.061 871.227 576.659 873.253C577.83 874.777 579.931 874.201 584.503 871.078C591.697 866.227 595.544 865.633 595.544 869.406C595.544 870.875 594.745 872.027 593.648 872.027C592.57 872.027 589.448 874.498 586.678 877.472L581.678 882.844L570.21 877.175C555.897 870.131 545.08 868.978 531.511 872.9C518.295 876.748 510.451 880.819 501.157 888.588C493.313 895.113 491.361 895.912 489.688 893.235ZM433.553 888.44C425.579 884.518 423.312 884.22 409.445 885.094C389.259 886.339 388.534 882.771 408.292 879.072C418.386 877.102 432.68 880.223 443.869 886.766C448.293 889.387 451.918 891.842 451.918 892.288C451.918 894.537 441.249 892.287 433.553 888.44ZM510.6 891.339C512.477 888.291 521.993 884.072 524.093 885.391C525.264 886.116 525.544 885.819 524.893 884.741C523.592 882.548 532.012 879.499 541.231 878.774C550.525 878.049 563.443 880.671 566.064 883.719C568.09 886.266 567.013 886.395 555.247 885.168C548.053 884.517 541.603 882.994 540.878 881.897C540.079 880.596 538.983 880.818 537.384 882.844C536.157 884.369 532.16 886.619 528.592 887.79C524.967 888.868 521.621 890.54 521.045 891.488C520.469 892.362 517.718 893.087 514.799 893.087C511.677 893.087 510.005 892.362 510.6 891.339ZM473.201 881.897C470.004 878.7 462.81 873.774 457.085 871.005C451.416 868.179 446.769 865.28 446.695 864.555C446.695 862.957 459.037 857.287 466.379 855.614C470.078 854.74 471.175 855.112 471.175 857.213C471.175 858.662 469.78 860.335 468.126 860.837C458.312 863.96 458.312 863.96 469.502 871.674L480.32 879.146L489.316 872.677C494.261 869.127 499.056 865.558 499.93 864.833C500.785 864.108 498.759 862.807 495.487 862.008C488.015 860.056 487.365 855.187 494.688 855.986C501.882 856.711 513.201 862.882 513.201 866.005C513.201 867.38 512.049 868.551 510.525 868.551C506.101 868.551 494.762 875.075 487.792 881.618C484.168 885.019 480.673 887.863 480.022 887.863C479.446 887.863 476.323 885.168 473.201 881.897ZM475.524 866.73C474.874 865.633 475.097 863.96 476.1 862.957C478.573 860.484 484.316 861.934 484.316 865.056C484.316 868.254 477.271 869.555 475.524 866.73ZM625.396 866.58C625.396 859.182 643.613 845.819 653.706 845.819C657.405 845.819 659.449 843.718 664.951 834.127C675.118 816.84 694.951 801.822 704.394 804.294C706.197 804.796 708.168 804.423 708.67 803.55C710.194 801.096 712.945 801.747 712.945 804.647C712.945 806.022 712.22 807.267 711.291 807.267C710.343 807.267 705.119 808.941 699.598 810.967C686.308 815.967 675.267 826.431 668.371 840.521C663.148 851.264 662.572 851.915 657.33 851.413C651.159 850.762 640.266 855.763 635.043 861.507C630.322 866.73 625.396 869.35 625.396 866.58ZM324.072 860.707C317.752 854.164 308.533 850.167 303.514 851.766C298.941 853.141 297.12 851.265 292.194 840.447C284.35 823.235 269.907 811.115 253.569 808.067C243.977 806.32 244.349 801.171 253.922 802.472C270.558 804.721 289.722 819.684 297.566 836.45C301.488 844.87 302.138 845.446 309.332 846.245C317.752 847.193 326.823 853.086 332.845 861.58C336.34 866.506 336.414 866.804 333.291 866.804C331.47 866.804 327.324 864.034 324.072 860.707ZM524.614 862.157C522.718 860.707 516.399 856.989 510.6 853.941C500.655 848.718 499.131 848.439 480.822 848.439C460.784 848.439 453.516 850.539 437.475 860.911C434.074 863.16 432.178 863.532 430.802 862.157C427.958 859.313 441.397 850.168 455.264 845.447C477.346 837.9 504.428 841.246 523.016 853.867C528.666 857.733 529.763 857.937 531.064 855.688C533.183 851.914 546.175 850.316 555.023 852.714C561.715 854.536 562.793 854.312 568.035 850.316C582.031 839.647 602.013 835.725 616.382 840.725C621.679 842.546 623.278 847.342 618.129 846.041C601.214 841.896 583.053 845.52 571.436 855.539C564.614 861.357 563.519 861.711 558.519 859.982C550.098 856.989 530.786 857.435 530.786 860.558C530.786 864.406 528.462 864.982 524.614 862.157ZM390.504 856.989C380.913 846.766 364.5 842.622 346.061 845.819C339.462 846.897 337.938 842.918 344.183 840.521C346.711 839.573 354.054 838.774 360.522 838.848C373.366 838.848 382.586 842.119 391.805 849.963C397.103 854.387 397.828 854.535 405.393 852.639C415.486 850.093 429.129 851.915 429.129 855.763C429.129 857.937 427.754 858.31 421.936 857.585C418.014 856.99 410.467 857.733 405.244 859.108C400.021 860.409 395.504 861.58 395.225 861.58C394.928 861.58 392.828 859.536 390.504 856.989ZM520.246 846.692C516.975 842.696 531.139 838.476 546.529 838.922C558.444 839.201 560.915 838.7 568.388 834.35C583.499 825.484 599.169 822.937 616.382 826.655C624.077 828.309 625.899 828.03 632.646 824.536C638.241 821.71 643.464 820.614 652.331 820.558C668.297 820.335 669.896 823.884 654.431 825.334C641.066 826.58 630.62 830.502 630.62 834.35C630.62 837.603 630.973 837.603 621.605 834.201C604.486 827.882 575.861 832.174 566.511 842.472C563.816 845.446 561.864 845.744 551.046 844.87C542.477 844.145 536.083 844.573 530.414 846.32C523.741 848.439 521.77 848.495 520.246 846.692ZM427.382 845.447C424.036 844.443 416.285 844.145 410.096 844.647C399.798 845.595 398.422 845.316 391.452 840.521C376.786 830.428 357.455 828.179 339.611 834.499C333.57 836.599 332.845 836.45 329.295 832.677C324.871 827.955 310.41 823.884 303.291 825.334C297.194 826.58 292.547 824.034 295.465 821.134C298.792 817.789 320.224 819.815 328.923 824.331C335.894 827.956 337.139 828.104 348.459 826.134C364.574 823.383 379.166 826.06 392.103 834.127C400.746 839.498 402.345 839.87 408.795 838.401C419.836 835.948 443.293 841.394 440.598 845.744C439.222 847.919 435.598 847.844 427.382 845.447ZM272.733 834.628C264.312 825.985 259.517 823.383 246.952 820.614C243.178 819.759 242.082 817.863 239.405 807.398C235.483 792.23 226.691 781.486 213.624 775.817C204.553 771.969 202.527 767.323 210.353 768.42C225.818 770.743 242.676 789.331 246.152 807.918C246.877 811.543 248.253 814.74 249.349 815.037C250.446 815.391 254.498 816.487 258.346 817.49C266.041 819.609 278.532 830.428 282.9 838.848C287.026 846.767 283.049 845.167 272.807 834.628H272.733ZM676.142 842.547C676.142 839.201 687.033 826.282 693.204 822.286C696.829 819.888 702.721 817.491 706.272 816.84C712.443 815.688 712.889 815.167 716.29 803.847C721.737 785.984 738.949 768.698 751.44 768.698C758.187 768.698 754.766 773.066 743.948 778.364C734.952 782.713 732.127 785.333 727.555 792.954C724.507 798.103 721.439 805.594 720.789 809.591C719.339 818.364 717.238 821.283 712.294 821.283C706.048 821.339 695.026 827.584 686.159 836.022C677.665 844.22 676.142 845.168 676.142 842.547ZM429.129 828.903C408.069 825.706 377.065 817.491 355.578 809.517C246.227 768.698 160.705 666.038 141.671 552.616L139.422 539.196H109.942C85.183 539.196 80.2389 538.75 79.4396 536.575C78.8634 535.126 79.3837 532.727 80.5361 531.277C83.2871 528.006 99.1239 527.728 100.425 530.906C101.076 532.653 101.299 532.653 101.447 530.906C101.522 529.326 106.391 528.657 119.533 528.657H137.526L136.875 502.169C134.403 403.06 171.151 312.798 241.951 243.968C286.896 200.25 338.738 171.569 398.553 157.424C449.018 145.361 509.949 145.658 562.292 158C584.579 163.298 621.827 177.238 621.827 180.286C621.827 181.16 623.203 181.811 624.802 181.811C632.144 181.811 671.866 205.696 692.554 222.629C754.842 273.448 798.634 343.227 815.177 418.302C820.27 441.314 823.467 467.969 821.292 468.842C820.493 469.121 819.824 470.571 819.824 472.039C819.824 473.489 820.623 474.065 821.795 473.341C823.244 472.467 823.615 479.585 822.946 500.422L822.147 528.657H849.676C871.888 528.657 877.631 529.251 879.378 531.277C883.356 536.073 880.103 539.55 871.887 539.122C867.817 538.899 854.471 538.824 842.259 538.973L820.046 539.196L818.895 547.468C806.831 636.707 745.473 728.698 664.673 778.791C641.661 793.104 614.708 806.022 612.533 803.847C609.708 801.021 607.813 801.598 607.813 805.297C607.813 810.966 565.562 823.606 528.164 829.108C505.729 832.453 451.788 832.305 429.129 828.903ZM536.009 817.862C571.158 811.766 593.649 804.424 626.252 788.754C717.239 744.813 782.072 663.641 805.753 563.732C811.998 537.523 813.597 539.196 783.021 539.196H149.292L151.69 551.891C175.575 678.306 268.737 778.141 393.832 811.468C407.995 815.242 430.579 819.312 451.918 821.933C466.231 823.662 516.622 821.283 536.009 817.862ZM444.948 782.713C444.948 771.691 445.319 770.445 448.368 770.445C450.84 770.445 452.364 772.416 453.888 777.49C455.041 781.338 456.509 784.46 457.159 784.46C457.884 784.46 459.334 781.338 460.487 777.49C462.16 771.765 463.405 770.445 466.881 770.445C471.1 770.445 471.249 770.891 471.249 782.862C471.249 793.68 470.803 795.13 468.126 794.628C465.803 794.126 465.134 792.379 465.357 787.007L465.728 780.111L462.383 787.509C458.461 796.449 456.286 796.877 452.94 789.256L450.468 783.587L450.338 789.256C450.189 793.104 449.316 795 447.568 795C445.468 795 444.892 792.453 444.892 782.713H444.948ZM474.725 782.787C474.725 771.69 475.096 770.445 478.145 770.445C480.245 770.445 483.145 773.215 485.989 777.862L490.413 785.334L490.487 777.862C490.487 772.416 491.212 770.445 493.09 770.445C495.209 770.445 495.71 772.992 495.71 782.713C495.71 797.379 493.015 798.847 486.342 787.657L481.993 780.315L481.398 787.23C481.045 792.081 479.948 794.2 477.773 794.628C475.097 795.13 474.725 793.679 474.725 782.787ZM501.007 782.713C501.007 772.992 501.51 770.445 503.629 770.445C505.655 770.445 506.231 772.694 506.231 779.962C506.231 789.405 506.305 789.48 511.826 790.056C521.492 791.004 519.968 795 509.875 795C501.008 795 501.007 795 501.007 782.713ZM462.884 734.869C462.884 734.293 464.78 729.2 467.103 723.549L471.304 713.233L464.055 712.434C457.735 711.784 456.286 712.359 452.717 716.634C450.468 719.404 447.494 721.653 446.119 721.653C442.996 721.653 442.995 720.929 446.396 714.386C448.869 709.534 448.869 708.437 446.471 702.266C443.07 693.846 446.043 690.872 451.043 697.694C453.962 701.69 455.765 702.341 463.033 702.341H471.602L467.977 693.195C463.46 681.652 463.33 681.058 465.858 680.128C466.954 679.756 472.029 684.552 477.122 690.872C485.821 701.764 486.694 702.341 493.739 702.341C503.33 702.341 506.733 703.716 506.733 707.638C506.733 711.485 503.33 712.861 493.739 712.861C486.843 712.861 485.896 713.512 477.698 723.828C470.301 733.048 462.884 738.642 462.884 734.869ZM378.367 653.994C377.14 652.525 375.114 651.298 373.868 651.298C370.169 651.298 364.37 642.507 364.37 637.005C364.37 631.187 371.117 623.268 376.117 623.268C386.359 623.268 392.103 637.283 385.486 646.224C382.289 650.648 382.084 651.522 384.407 652.395C385.857 652.972 386.657 654.123 386.136 654.997C384.612 657.395 380.764 656.894 378.367 653.994ZM381.564 639.384C382.512 629.365 374.593 624.365 371.34 632.934C368.868 639.384 371.991 646.503 377.065 645.778C380.039 645.35 381.136 643.901 381.564 639.384ZM216.524 645.927C214.925 638.008 215.222 628.138 217.118 625.164C219.219 621.818 223.141 625.016 227.713 633.659L231.059 639.978L231.133 633.808C231.263 626.112 233.81 621.67 236.505 624.365C239.107 626.968 238.03 649.923 235.186 650.871C234.033 651.224 230.687 647.878 227.862 643.38L222.695 635.258L222.119 642.729C221.468 651.67 218.122 653.622 216.524 645.927ZM242.881 650.146C241.431 648.677 241.282 626.038 242.751 624.588C243.327 623.993 244.925 623.993 246.301 624.514C249.721 625.815 249.851 651.298 246.375 651.298C245.074 651.298 243.55 650.796 242.881 650.146ZM253.996 638.306C253.996 620.741 256.394 619.57 264.591 632.934L268.885 639.978L269.387 632.487C269.759 627.413 270.762 625.015 272.435 625.015C274.48 625.015 274.982 627.914 274.982 638.156C274.982 654.197 272.361 655.443 264.517 643.027L259.294 634.681L259.22 643.027C259.22 649.198 258.569 651.298 256.617 651.298C254.498 651.298 253.996 648.678 253.996 638.306ZM281.952 646.503C275.279 638.008 281.004 623.268 291.023 623.268C296.544 623.268 303.012 631.112 303.012 637.785C303.012 650.351 289.424 656.02 281.952 646.503ZM296.19 642.079C299.815 634.087 293.142 625.164 287.621 630.684C285.372 632.859 284.703 642.953 286.673 644.904C289.22 647.451 294.443 645.853 296.19 642.079ZM313.533 646.875C313.533 644.477 311.581 638.584 309.183 633.881C303.086 621.818 306.562 619.996 314.332 631.186C316.73 634.606 316.804 634.533 318.625 629.886C319.852 626.689 321.749 625.09 324.128 625.09C327.771 625.09 327.771 625.164 323.347 633.138C320.8 637.655 318.756 643.529 318.756 646.299C318.756 649.626 317.901 651.298 316.153 651.298C314.555 651.298 313.533 649.7 313.533 646.875ZM339.816 649.05C339.816 647.823 341.414 641.93 343.459 636.056C347.083 625.238 350.429 621.818 353.552 625.592C355.28 627.711 362.623 647.377 362.623 649.923C362.623 652.47 357.753 651.373 356.656 648.678C356.08 647.153 353.478 646.075 350.559 646.075C347.66 646.075 345.039 647.153 344.463 648.678C343.236 651.949 339.816 652.172 339.816 649.05ZM353.106 638.008C352.53 636.483 352.084 634.383 352.009 633.212C352.009 630.536 348.607 635.759 348.607 638.584C348.607 639.829 349.834 640.852 351.359 640.852C353.255 640.852 353.831 639.904 353.106 638.008ZM395.077 648.473C392.902 646.354 392.307 643.027 392.753 634.886C393.404 621.465 396.452 621.521 397.623 635.109C398.348 643.176 399.147 645.276 401.824 645.778C406.471 646.652 408.367 642.804 407.345 634.681C406.322 627.116 408.292 622.115 411.415 624.067C414.817 626.167 413.888 645.127 410.17 648.399C406.118 652.098 398.701 652.172 395.077 648.473ZM417.661 649.124C417.14 647.748 416.936 641.577 417.289 635.406C417.661 626.837 418.386 624.142 420.412 624.142C423.906 624.142 424.334 649.7 420.858 650.871C419.612 651.298 418.237 650.499 417.661 649.124ZM428.479 648.547C426.88 644.402 427.233 627.99 428.981 625.239C431.081 621.967 433.702 623.993 439.724 633.509L444.892 641.707V633.361C444.947 627.115 445.617 625.015 447.568 625.015C449.669 625.015 450.189 627.71 450.189 638.156C450.189 654.495 446.769 656.019 439.297 643.027L434.501 634.681V643.027C434.427 651.447 430.876 654.718 428.479 648.547ZM457.159 647.822C449.669 640.331 455.784 623.268 465.933 623.268C471.305 623.268 478.219 630.964 478.219 637.005C478.219 648.901 465.078 655.648 457.159 647.822ZM470.877 641.056C471.9 634.011 469.725 628.565 465.859 628.565C461.212 628.565 458.461 635.759 460.71 641.781C462.959 647.673 470.078 647.153 470.877 641.056ZM492.216 637.134C492.216 626.613 492.811 623.194 494.409 623.714C495.859 624.216 496.807 629.086 497.085 637.859C497.531 649.049 497.16 651.298 494.911 651.298C492.736 651.298 492.216 648.751 492.216 637.134ZM502.756 637.283C502.756 620.294 505.357 618.919 512.7 632.134L517.644 640.907L518.517 632.934C519.893 620.518 522.792 623.639 523.368 638.156C524.019 654.272 521.194 655.648 513.276 643.027L508.053 634.681L507.978 643.027C507.978 649.198 507.327 651.298 505.357 651.298C503.257 651.298 502.756 648.621 502.756 637.283ZM534.261 639.978C534.261 629.736 533.908 628.565 530.786 628.565C528.815 628.565 527.29 627.767 527.29 626.837C527.29 622.767 546.455 622.19 547.849 626.242C548.202 627.338 546.677 628.565 544.428 628.862C540.804 629.364 540.358 630.462 539.856 640.406C539.484 648.547 538.685 651.373 536.808 651.373C534.837 651.373 534.261 648.752 534.261 639.978ZM561.269 648.975C560.767 647.674 560.618 641.577 560.916 635.406C561.343 626.837 562.069 624.216 564.039 624.216C566.065 624.216 566.79 626.838 567.236 635.109C567.738 646.001 567.812 646.075 572.886 646.075C576.306 646.075 578.054 646.949 578.054 648.678C578.054 652.246 562.663 652.469 561.269 648.975ZM590.396 649.198C590.396 643.901 598.965 624.142 601.363 623.714C603.891 623.119 609.262 634.532 612.385 646.949C613.63 651.874 609.058 653.473 607.236 648.751C606.66 647.302 604.188 646.15 601.716 646.15C599.244 646.15 596.772 647.302 596.195 648.751C594.969 651.874 590.322 652.247 590.322 649.198H590.396ZM604.337 638.659C604.262 635.834 600.917 630.536 600.842 633.287C600.842 634.384 600.341 636.558 599.765 638.083C599.095 639.904 599.689 640.852 601.492 640.852C603.091 640.852 604.337 639.904 604.337 638.659ZM616.958 637.785C617.255 630.239 618.277 624.216 619.207 624.216C620.229 624.216 621.251 630.239 621.474 637.785C621.902 649.198 621.604 651.373 619.207 651.373C616.883 651.373 616.53 649.198 616.958 637.785ZM627.125 638.455C627.125 626.689 627.497 625.388 630.899 624.514C641.512 621.744 650.732 628.863 645.862 636.131C643.761 639.328 643.761 640.704 645.787 645.629C647.962 650.945 647.962 651.373 644.84 651.373C642.813 651.373 640.713 649.347 639.393 646.15C638.166 643.232 636.14 640.852 634.746 640.852C633.222 640.852 632.367 642.804 632.367 646.15C632.367 649.626 631.493 651.373 629.746 651.373C627.646 651.373 627.125 648.752 627.125 638.455ZM640.787 632.562C640.49 630.815 638.668 629.439 636.716 629.439C634.821 629.439 633.017 630.815 632.72 632.562C632.292 634.811 633.296 635.61 636.716 635.61C640.192 635.61 641.215 634.811 640.787 632.562ZM651.679 638.455C651.679 624.514 652.404 623.417 660.973 624.365C668.148 625.09 671.197 628.361 670.546 634.606C670.119 639.179 669.096 640.183 663.427 641.577C658.204 642.878 656.903 644.03 656.903 647.302C656.903 649.774 655.88 651.373 654.282 651.373C652.182 651.373 651.679 648.752 651.679 638.455ZM664.821 633.008C664.821 630.684 663.427 629.291 660.825 628.937C657.628 628.435 656.903 629.16 656.903 633.008C656.903 636.781 657.628 637.506 660.825 637.06C663.427 636.633 664.821 635.257 664.821 633.008ZM677.889 647.878C674.115 644.03 673.168 634.161 676.142 628.64C678.316 624.588 687.108 622.468 691.681 624.94C695.826 627.19 699.524 637.283 697.851 641.93C694.431 651.521 684.487 654.421 677.889 647.878ZM691.03 638.455C691.03 630.388 686.959 626.465 682.461 630.239C676.513 635.183 680.286 646.8 687.535 645.703C690.379 645.35 691.03 643.901 691.03 638.455ZM702.795 637.785C703.372 624.216 703.372 624.216 710.045 624.439C719.785 624.718 723.038 628.565 720.212 636.409C718.614 640.777 718.54 643.454 719.86 645.927C722.313 650.499 722.182 651.373 719.115 651.373C717.665 651.373 715.343 648.975 713.818 646.15C712.294 643.232 710.342 640.852 709.394 640.852C708.446 640.852 707.647 643.232 707.647 646.15C707.647 649.7 706.773 651.373 704.97 651.373C702.721 651.373 702.349 649.049 702.795 637.785ZM715.268 634.458C716.867 632.859 713.093 628.565 710.119 628.565C708.818 628.565 707.722 630.164 707.722 632.134C707.722 635.462 712.666 637.06 715.268 634.458ZM731.532 647.45C731.031 645.275 730.528 640.108 730.528 636.056C730.454 629.662 729.953 628.565 726.83 628.565C724.711 628.565 723.483 627.71 723.911 626.39C724.933 623.491 743.094 623.491 744.023 626.465C744.469 627.711 743.224 628.565 741.123 628.565C737.778 628.565 737.499 629.588 737.499 639.978C737.499 648.473 736.848 651.373 735.027 651.373C733.726 651.373 732.127 649.551 731.532 647.45ZM551.399 631.762C552.848 630.312 552.924 629.087 551.548 627.414C550.098 625.741 550.377 624.867 552.57 623.993C556.548 622.469 557.645 624.142 556.344 629.365C555.693 631.986 554.02 633.881 552.273 633.881C550.024 633.881 549.8 633.361 551.399 631.762ZM364.37 582.171C364.37 560.256 364.37 560.256 370.318 560.256C376.266 560.256 376.34 560.331 381.433 575.573L386.582 590.963L391.582 575.498C396.675 560.107 396.675 560.107 402.846 560.609C409.017 561.11 409.017 561.111 409.017 582.171C409.017 603.156 409.018 603.156 404.222 603.732C399.352 604.327 399.352 604.327 399.222 590.591L399.073 576.948L394.5 590.536C388.255 609.049 384.909 608.751 378.236 589.141L373.366 575.126L373.218 589.587C373.143 603.807 372.995 604.029 368.719 604.029C364.296 604.029 364.295 604.03 364.295 582.171H364.37ZM421.062 582.617C428.405 561.91 428.832 561.111 433.702 561.111C438.572 561.111 439.074 561.985 446.118 581.297C450.189 592.338 453.517 602.004 453.591 602.729C453.665 603.454 451.416 604.029 448.591 604.029C444.669 604.029 443.293 603.082 442.494 599.681C441.471 595.833 440.375 595.312 433.553 595.312C426.657 595.312 425.579 595.833 424.631 599.681C423.757 603.082 422.382 604.029 418.534 604.029C413.441 604.029 413.441 604.03 421.062 582.617ZM437.921 585.015C437.921 584.216 436.973 580.87 435.877 577.673L433.776 571.799L431.601 577.821C428.553 586.316 428.628 586.539 433.553 586.539C435.951 586.539 437.921 585.889 437.921 585.015ZM458.033 601.856C457.438 600.555 457.308 590.814 457.587 580.293C458.108 561.111 458.107 561.11 462.754 560.609C466.881 560.107 468.182 561.483 474.948 573.472L482.569 586.892L483.442 574.048C484.242 562.282 484.669 561.055 488.312 560.535C492.216 560.033 492.216 560.182 492.216 582.022C492.216 604.03 492.216 604.029 487.941 604.029C484.521 604.029 482.346 601.558 476.175 590.74L468.554 577.375L467.68 590.312C466.881 602.004 466.454 603.23 462.885 603.732C460.71 604.03 458.535 603.231 458.033 601.856ZM501.007 582.171C501.007 560.256 501.008 560.256 505.357 560.256C509.725 560.256 509.726 560.256 509.726 582.171C509.726 604.03 509.725 604.029 505.357 604.029C501.008 604.029 501.007 604.03 501.007 582.171ZM518.517 582.171C518.517 560.256 518.517 560.256 522.867 560.256C527.291 560.256 527.29 560.256 527.29 577.673V595.108L536.436 595.61C544.503 596.112 545.73 596.706 546.25 600.107C546.752 603.881 546.324 604.029 532.662 604.029H518.517V582.171ZM548.351 602.729C548.426 602.004 551.771 592.338 555.823 581.297C562.868 561.985 563.443 561.111 568.239 561.111C573.035 561.111 573.611 561.985 578.983 577.171C582.18 586.019 585.228 595.683 585.898 598.657C586.976 603.602 586.679 604.029 582.627 604.029C579.281 604.029 577.831 602.934 577.031 599.681C576.083 595.833 575.006 595.312 568.165 595.312C561.567 595.312 560.265 595.908 558.797 599.681C557.644 602.729 555.823 604.029 552.7 604.029C550.246 604.029 548.351 603.454 548.351 602.729ZM572.682 585.219C572.607 584.494 571.585 581.167 570.358 577.821L568.165 571.799L566.139 577.673C563.239 585.814 563.444 586.539 568.463 586.539C570.86 586.539 572.737 585.944 572.682 585.219ZM818.095 542.746C818.095 541.798 817.296 540.999 816.348 540.999C815.325 540.999 814.526 541.798 814.526 542.746C814.526 543.694 815.325 544.494 816.348 544.494C817.296 544.494 818.095 543.694 818.095 542.746ZM168.103 533.973C168.103 533.025 167.378 532.226 166.355 532.226C165.408 532.226 164.608 533.025 164.608 533.973C164.608 534.902 165.408 535.702 166.355 535.702C167.378 535.702 168.103 534.902 168.103 533.973ZM207.601 520.683C223.791 511.891 224.163 511.817 224.368 516.036C224.442 518.062 224.962 517.634 225.761 514.864C226.616 511.537 232.862 507.615 255.093 496.425C276.078 485.905 286.952 479.139 297.919 469.92C315.354 455.329 322.027 450.459 333.422 443.934C338.143 441.165 347.232 434.12 353.682 428.246C360.151 422.298 374.463 411.48 385.486 404.063C402.345 392.818 409.092 386.721 428.033 366.014C440.375 352.445 452.067 340.903 453.888 340.327C455.989 339.658 460.282 340.977 465.003 343.728C474.65 349.472 480.896 349.472 489.093 343.877C501.584 335.382 508.424 339.379 528.164 366.684C537.606 379.751 548.573 389.546 575.358 408.71C584.801 415.476 598.965 427.094 606.735 434.64C614.56 442.113 628.445 453.656 637.665 460.198C653.557 471.593 690.23 493.675 693.204 493.675C694.004 493.675 700.101 496.927 706.848 500.924C713.614 504.92 728.354 512.764 739.674 518.434C760.287 528.657 760.288 528.657 785.493 528.657C807.854 528.657 810.827 528.303 811.849 525.608C814.099 519.883 812.853 464.121 810.027 445.236C799.711 375.904 768.28 312.222 719.06 260.957C654.579 193.726 573.035 158.651 480.394 158.298C457.959 158.223 449.966 157.628 449.39 155.974C448.219 152.926 444.948 153.205 444.948 156.402C444.948 159.227 443.423 159.673 424.78 162.499C329.146 177.313 245.279 234.898 193.289 321.442C181.895 340.383 167.229 373.283 160.984 393.822C158.01 403.785 156.783 405.81 154.887 404.212C153.586 403.115 151.764 402.762 150.742 403.338C148.344 404.788 150.389 409.584 153.437 409.584C156.485 409.584 156.56 408.785 152.136 430.57C147.266 454.752 145.221 523.006 149.218 527.058C151.188 529.028 156.188 529.456 172.527 528.954C193.289 528.378 193.289 528.379 207.527 520.683H207.601ZM249.926 389.918C252.398 377.204 252.398 377.204 242.453 368.134L232.435 359.119L244.48 357.966C260.614 356.368 259.517 357.093 264.312 344.899C266.71 338.933 269.108 333.784 269.758 333.357C270.409 332.911 273.16 338.134 275.93 344.825C280.725 356.722 280.93 357.018 287.101 357.093C290.596 357.093 296.395 357.595 300.112 358.19L306.86 359.268L297.046 368.264C287.324 377.205 287.324 377.204 289.945 389.249C291.395 395.941 292.343 401.591 292.045 401.889C291.822 402.112 287.25 399.639 281.952 396.368C276.729 393.097 271.357 390.42 270.112 390.346C268.885 390.346 263.513 393.097 258.215 396.443C252.974 399.863 248.401 402.613 248.122 402.613C247.751 402.613 248.625 396.889 249.926 389.918ZM274.108 369.286C274.684 368.338 273.96 367.539 272.435 367.539C270.986 367.539 269.758 368.338 269.758 369.286C269.758 370.234 270.483 371.033 271.431 371.033C272.286 371.033 273.532 370.234 274.108 369.286ZM665.676 401.313C665.75 400.588 666.921 394.844 668.296 388.599C670.843 377.205 670.843 377.205 660.973 368.264L651.085 359.341L659.505 358.19C664.096 357.521 670.044 357.018 672.721 357.018C677.015 357.018 678.037 355.792 682.536 344.825C685.287 338.06 687.981 332.557 688.409 332.557C688.911 332.557 691.532 338.06 694.357 344.825C698.874 355.792 699.878 357.018 704.172 357.018C706.774 357.018 712.666 357.595 717.239 358.19L725.509 359.341L715.64 368.264C705.77 377.205 705.77 377.204 708.298 389.398C709.766 396.145 710.77 401.889 710.566 402.112C710.343 402.261 705.62 399.714 700.1 396.368C688.334 389.323 687.461 389.175 680.565 393.896C672.442 399.417 665.62 402.838 665.676 401.313ZM469.855 341.851C468.703 341.405 467.68 338.858 467.68 336.33C467.755 333.709 466.806 324.063 465.654 314.769C463.535 297.836 463.535 297.836 469.279 286.163C472.401 279.768 476.472 273.671 478.219 272.5C480.896 270.901 481.268 269.024 480.543 262.407C478.87 248.764 487.216 237.797 499.781 236.998C503.629 236.775 507.402 234.674 511.751 230.325C515.673 226.403 519.818 223.931 522.495 223.931C525.264 223.931 527.942 222.258 529.764 219.432C534.262 212.592 543.406 208.893 550.525 211.068C555.822 212.666 556.994 212.388 561.994 207.89C569.986 200.771 581.53 200.771 588.724 207.946C591.549 210.79 593.797 214.265 593.797 215.715C593.797 217.462 595.842 218.633 599.541 218.912C602.813 219.283 605.062 220.362 604.764 221.607C604.616 222.76 605.489 223.354 606.809 222.834C608.389 222.183 609.913 224.005 611.307 228.076C615.303 240.27 605.936 251.162 591.772 250.641C586.103 250.437 583.928 251.236 580.656 255.084C577.18 259.136 575.285 259.805 567.088 259.805C558.519 259.86 557.068 260.455 552.848 265.381C547.551 271.701 537.886 275.548 531.584 273.95C527.941 273.076 526.937 273.801 524.818 278.969C522.718 283.894 520.896 285.363 514.651 286.888C510.524 287.891 505.153 289.712 502.756 290.939C496.138 294.21 487.216 313.449 485.84 327.241C485.245 333.486 483.945 339.602 482.997 340.829C481.342 343.003 474.149 343.579 469.855 341.851ZM477.699 310.178C477.271 308.523 476.825 309.452 476.825 312.371C476.751 315.27 477.123 316.646 477.625 315.494C478.071 314.249 478.145 311.925 477.625 310.178H477.699ZM493.09 279.917C495.06 277.724 498.982 274.471 501.882 272.723C508.053 268.876 506.455 268.356 499.559 271.925C492.161 275.772 485.394 283.894 481.695 293.262C479.874 297.984 478.35 300.883 478.275 299.656C478.22 298.43 477.476 297.483 476.621 297.483C475.747 297.483 475.952 299.434 477.048 301.906C479.019 306.274 479.149 306.051 484.316 295.084C487.216 288.913 491.138 282.018 493.09 279.917ZM562.292 241.421C564.244 239.47 565.767 236.924 565.767 235.771C565.711 234.377 564.838 234.674 563.388 236.57C562.068 238.224 558.37 240.771 555.098 242.221C549.224 244.768 549.224 244.767 553.945 244.842C556.622 244.916 560.396 243.317 562.292 241.421ZM451.063 329.713C447.94 328.263 440.821 327.315 433.553 327.464C416.862 327.687 416.936 327.688 416.936 323.766C416.936 314.397 448.219 319.044 457.085 329.788C459.836 333.059 458.107 333.059 451.063 329.788V329.713ZM495.933 328.839C504.428 315.995 541.38 307.073 536.808 318.969C536.157 320.642 532.012 321.869 524.465 322.594C518.294 323.189 509.428 325.363 504.856 327.538C500.357 329.713 495.859 331.832 494.911 332.26C493.963 332.687 494.409 331.163 495.933 328.839ZM452.364 315.494C442.996 306.275 442.494 302.352 450.988 305.605C453.888 306.701 461.36 319.546 460.356 321.739C460.059 322.39 456.509 319.546 452.364 315.494ZM494.038 316.144C494.038 312.575 501.732 300.53 505.506 298.058C508.554 296.106 509.577 296.032 511.101 297.835C512.477 299.508 510.525 302.353 503.481 309.1C498.257 314.044 493.963 317.222 494.038 316.144ZM452.29 294.136C450.264 291.311 444.167 286.943 438.851 284.416C429.427 279.973 426.508 275.623 431.601 273.672C437.196 271.478 453.461 284.842 456.286 293.987C458.107 299.731 456.509 299.731 452.29 294.062V294.136ZM239.981 525.906C239.981 524.457 239.182 523.731 238.234 524.307C237.23 524.957 236.431 526.63 236.431 528.08C236.431 529.456 237.23 530.181 238.234 529.605C239.182 529.029 239.981 527.356 239.981 525.906ZM277.602 523.433C278.253 522.485 277.454 521.686 276.004 521.686C274.48 521.686 273.235 522.485 273.235 523.433C273.235 524.456 273.959 525.182 274.907 525.182C275.781 525.182 277.008 524.456 277.602 523.433ZM395.876 505.943C395.876 504.995 394.631 504.196 393.107 504.196C391.657 504.196 390.858 504.995 391.508 505.943C392.103 506.891 393.329 507.672 394.203 507.672C395.151 507.672 395.876 506.891 395.876 505.943ZM700.676 504.196C700.676 503.248 699.878 502.448 698.948 502.448C698 502.448 697.201 503.248 697.201 504.196C697.201 505.144 698 505.943 698.948 505.943C699.878 505.943 700.676 505.144 700.676 504.196ZM341.061 497.374C349.035 493.303 355.801 486.407 368.217 469.771C373.292 462.95 382.009 453.581 387.53 449.083C393.106 444.584 397.623 440.514 397.623 440.012C397.623 436.815 373.868 456.779 364.37 467.969C358.05 475.292 346.86 486.11 339.388 492.002C331.897 497.95 325.801 503.024 325.801 503.396C325.801 504.418 333.217 501.445 341.061 497.374ZM642.888 501.649C642.888 501.221 637.218 497.523 630.322 493.527C606.586 479.66 589.522 464.994 580.805 451.053C576.455 444.009 570.711 436.388 568.035 433.99C564.763 431.072 564.188 430.867 566.214 433.321C567.887 435.291 571.957 442.912 575.358 450.255C583.704 468.247 598.519 481.835 622.702 493.731C639.691 502.095 642.888 503.321 642.888 501.649ZM440.449 472.467C443.572 461.872 442.996 462.075 435.523 474.641C424.984 492.28 422.456 502.299 432.252 487.355C436.1 481.463 439.799 474.79 440.449 472.467ZM322.678 487.355C328.849 484.158 348.31 465.793 345.559 465.719C344.388 465.645 339.313 469.195 334.165 473.563C329.072 477.912 321.376 483.86 317.027 486.834C309.109 492.28 312.306 492.578 322.678 487.355ZM511.547 481.184C506.826 468.972 502.904 462.076 502.829 465.849C502.606 472.169 512.328 493.378 514.447 491.352C514.8 490.98 513.499 486.408 511.547 481.184ZM544.727 470.143C537.682 452.504 533.611 446.035 520.971 432.392C516.919 428.024 510.748 419.38 507.179 413.079C499.558 399.566 500.711 405.309 509.354 423.172C512.7 430.142 519.298 440.291 524.02 445.681C528.741 451.053 534.633 459.548 537.16 464.473C542.105 474.492 550.599 488.433 551.25 487.783C551.473 487.634 548.574 479.66 544.727 470.143ZM417.735 459.548C421.062 454.232 421.062 454.232 416.341 458.526C411.49 462.876 404.593 475.366 404.668 479.79C404.668 481.184 406.917 478.34 409.519 473.563C412.215 468.693 415.913 462.448 417.735 459.548ZM398.999 462.448C399.501 460.924 398.701 460.272 396.675 460.7C394.928 460.997 393.181 462.299 392.753 463.6C392.251 465.124 393.051 465.793 395.077 465.347C396.824 465.068 398.553 463.675 398.999 462.448ZM488.368 427.521C488.443 413.655 487.364 403.915 484.242 390.346L480.022 371.907L480.822 385.923C482.792 417.503 486.119 446.406 487.866 446.406C488.089 446.406 488.368 437.912 488.443 427.521H488.368ZM396.099 427.447C404.445 422.372 417.438 408.283 421.936 399.416C423.981 395.569 431.081 386.35 437.921 379.101C444.668 371.759 450.189 365.364 450.189 364.788C450.189 361.368 422.01 389.695 414.891 400.29C410.244 407.186 402.698 415.904 398.125 419.529C393.627 423.246 385.486 430.422 380.188 435.589L370.467 444.938L380.114 438.117C385.411 434.343 392.604 429.547 396.099 427.447ZM148.864 441.09C148.864 440.161 147.619 439.362 146.095 439.362C144.645 439.362 143.92 440.161 144.496 441.09C145.091 442.038 146.318 442.837 147.191 442.837C148.139 442.837 148.864 442.038 148.864 441.09ZM427.531 422.502C433.051 411.034 430.877 411.629 422.01 423.972C410.839 439.641 410.467 440.366 417.438 435.068C420.932 432.466 425.43 426.796 427.531 422.447V422.502ZM450.914 418.302C452.141 413.005 455.988 403.19 459.483 396.443C465.58 384.603 470.152 365.81 466.379 368.134C465.431 368.71 464.13 371.609 463.535 374.583C462.959 377.632 459.409 386.201 455.635 393.692C449.817 405.16 442.921 430.347 443.219 438.637C443.423 441.834 448.739 427.745 450.914 418.302ZM535.785 413.506C529.54 407.037 521.194 395.792 517.198 388.524C510.878 377.055 499.782 361.814 501.306 366.684C502.979 371.907 519.298 403.915 521.77 406.759C524.818 410.384 544.503 425.347 546.102 425.347C546.678 425.347 542.031 420.049 535.785 413.506ZM333.793 818.885C325.373 813.513 324.648 813.364 304.889 813.364C288.346 813.364 284.573 812.918 284.127 810.743C283.105 805.818 270.186 798.402 259.145 796.45C249.052 794.628 248.401 794.257 245.799 787.732C242.23 778.792 227.639 765.799 218.345 763.252C214.349 762.174 210.148 761.003 209.051 760.724C207.899 760.427 205.78 755.928 204.256 750.779C200.631 738.363 192.936 727.972 183.14 722.228C178.697 719.626 175.147 716.43 175.147 715.129C175.147 711.634 176.523 712.005 186.839 717.879C197.136 723.753 204.627 733.493 209.497 747.21C211.449 752.805 213.773 756.43 215.371 756.43C224.888 756.653 245.725 771.895 244.851 778.14C244.479 780.761 245.204 781.709 247.175 781.337C248.996 781.058 250.52 782.509 251.171 785.334C251.97 788.531 253.494 789.684 256.543 789.684C263.662 789.684 278.978 796.375 285.001 801.97C288.049 804.87 292.194 807.267 294.146 807.267C298.644 807.267 298.644 806.394 294.146 800.075C289.424 793.402 278.03 786.858 266.561 784.163C258.717 782.435 256.896 781.189 254.573 776.264C250.576 767.843 236.134 755.557 226.04 751.932C217.918 749.032 217.193 748.233 213.698 738.641C209.126 726.076 196.858 712.935 185.24 708.158C179.794 705.909 176.894 703.716 176.894 701.689C176.894 697.991 177.173 697.916 185.166 701.317C199.107 707.135 209.553 717.08 216.468 731.021C222.416 743.084 223.717 744.534 232.137 748.382C243.03 753.308 253.848 762.75 258.346 771.021C260.669 775.464 263.067 777.341 267.063 777.991C276.506 779.516 288.198 786.059 296.618 794.479C301.116 798.977 304.759 803.271 304.759 804.07C304.759 804.87 306.637 805.52 308.96 805.52C316.153 805.52 323.997 807.621 322.975 809.293C322.473 810.167 323.774 810.465 326.098 809.87C330.968 808.643 346.786 818.011 346.786 822.082C346.786 825.985 343.515 825.204 333.793 818.885ZM613.983 823.086C612.533 820.688 626.252 811.115 634.096 808.996C637.739 808.067 644.115 806.746 648.409 806.17C654.654 805.297 656.903 803.997 659.951 799.35C666.42 789.405 678.892 781.784 694.004 778.512C696.755 777.862 700.174 775.018 702.423 771.393C707.944 762.397 720.659 751.932 731.477 747.509C738.15 744.665 740.975 742.563 740.975 740.24C740.975 727.321 762.611 705.24 780.846 699.59C788.615 697.192 784.972 703.715 776.05 708.232C771.329 710.611 764.655 715.054 761.31 717.954C755.213 723.326 745.621 739.962 747.145 742.49C748.465 744.534 754.989 742.285 754.989 739.887C754.989 732.619 780.195 710.686 785.121 713.734C787.965 715.482 786.365 717.657 779.098 721.951C769.302 727.676 764.005 733.567 761.161 741.838C758.912 748.381 758.614 748.586 748.595 749.534C730.082 751.43 711.792 763.326 705.974 777.341C704.246 781.561 702.35 782.788 695.231 784.312C683.186 786.933 674.245 791.877 667.349 799.702C661.475 806.394 661.475 806.393 666.345 806.895C669.821 807.341 672.071 806.393 673.967 803.698C676.792 799.646 692.479 791.505 697.628 791.505C703.148 791.43 699.951 795.724 692.107 798.847C683.836 802.026 676.142 808.271 676.142 811.766C676.142 813.364 671.922 813.643 659.077 812.992C643.984 812.118 640.918 812.491 632.869 815.967C627.851 818.16 622.85 820.985 621.679 822.286C619.355 825.13 615.507 825.483 613.983 823.086ZM226.486 806.245C219.144 795.724 212.973 789.61 208.698 788.606C201.058 786.784 197.936 782.862 197.88 775.018C197.582 751.579 177.898 727.973 154.385 722.973C142.043 720.278 140.072 718.828 140.072 711.932C140.072 704.813 134.477 694.421 130.277 693.622C126.857 693.046 122.581 688.697 122.581 685.853C122.581 684.924 123.734 684.626 125.053 685.202C131.429 687.674 131.578 661.094 125.258 648.547C120.909 640.108 120.611 635.536 124.385 635.536C127.303 635.536 134.552 653.399 135.928 663.938C136.95 671.912 138.121 674.106 144.143 679.255C155.314 688.902 163.679 711.559 157.433 715.407C156.262 716.132 159.831 718.381 165.482 720.705C186.393 729.199 199.832 746.858 202.806 769.497C204.051 778.736 204.404 779.311 211.821 783.159C220.668 787.583 228.735 796.877 231.133 805.148C233.085 811.914 230.761 812.491 226.486 806.245ZM154.088 712.935C154.088 702.117 142.47 681.076 136.522 681.076C133.028 681.076 134.199 687.748 138.623 692.897C141.318 696.02 144.366 701.913 145.444 706.039C146.541 710.184 147.842 714.105 148.288 714.83C149.868 717.451 154.088 716.057 154.088 712.935ZM728.706 809.145C728.706 801.301 741.997 785.259 749.99 783.512C752.889 782.861 755.51 781.486 755.789 780.315C756.087 779.237 757.239 773.289 758.41 767.044C760.938 753.605 765.232 744.665 773.652 735.315C780.325 727.973 797.11 718.976 808.002 716.932C813.449 716.002 814.526 715.054 814.526 711.485C814.526 705.834 819.099 695.221 823.615 690.444C827.389 686.374 826.868 680.202 822.89 681.503C817.797 683.176 809.377 697.117 808.28 705.76C807.054 714.682 804.656 718.251 802.332 714.459C798.187 707.712 808.726 683.902 818.596 677.805C823.243 674.905 824.415 673.009 824.768 667.637C825.567 654.57 834.433 633.733 837.76 637.005C839.08 638.306 838.486 641.428 835.809 647.674C830.716 659.495 829.49 669.886 831.962 681.206C833.914 690.5 833.913 690.574 828.69 694.719C823.393 698.79 818.672 710.686 820.493 715.258C821.794 718.827 816.274 722.526 807.854 723.827C784.47 727.396 766.179 747.787 762.833 773.94C761.458 784.758 759.637 787.955 754.767 787.955C750.864 787.955 738.076 799.125 736.551 803.847C735.38 807.546 728.706 812.045 728.706 809.145ZM705.974 794.126C705.974 790.409 714.692 775.966 720.361 770.371C727.331 763.401 737.35 758.4 747.072 757.025C753.54 756.151 754.989 756.43 754.989 758.679C754.989 760.575 752.09 762.025 745.473 763.401C732.703 766.096 721.309 774.87 716.142 786.134C712.443 794.201 705.974 799.275 705.974 794.126ZM770.752 771.821C770.752 758.178 786.496 738.14 801.181 733.121C811.051 729.794 811.552 732.397 802.184 738.363C790.139 745.984 784.117 752.23 780.325 760.873C776.124 770.371 770.752 776.468 770.752 771.821ZM180.073 760.352C175.426 750.91 172.527 747.434 165.482 742.862C148.939 732.118 146.615 726.671 161.486 733.269C172.452 738.139 179.497 744.812 184.664 755.054C189.162 764.125 190.538 772.193 187.564 772.193C186.69 772.193 183.345 766.895 180.073 760.352ZM165.779 705.611C164.181 690.5 158.66 680.63 146.689 671.633C140.648 667.135 137.972 661.819 141.597 661.819C144.441 661.819 157.285 672.135 161.783 678.027C167.88 686.076 171.653 697.265 171.653 707.563C171.653 720.574 167.155 719.106 165.779 705.611ZM788.764 705.835C789.265 699.943 791.366 691.745 793.41 687.525C799.712 674.458 817.798 658.92 820.846 663.864C822.091 665.816 820.493 667.34 810.326 674.533C802.984 679.756 796.589 692.619 795.437 704.441C794.637 713.158 793.764 715.333 791.087 715.854C788.039 716.43 787.816 715.631 788.764 705.835ZM179.144 694.644C178.27 693.492 176.448 689.701 175.147 686.374C170.129 673.084 160.036 662.618 145.667 655.722C138.046 652.023 136.596 650.648 137.47 647.822C138.548 644.402 135.797 637.134 133.474 637.506C130.202 638.008 130.351 636.483 134.273 625.665C137.526 616.595 137.972 613.546 136.373 611.576C133.399 608.1 137.173 604.328 140.649 607.228C145.667 611.447 155.984 634.681 157.062 644.328C158.01 652.674 159.162 655.071 166.43 662.841C175.37 672.358 180.947 682.006 182.917 691.169C184.218 696.969 182.266 698.789 179.144 694.644ZM147.991 632.636C144.719 624.067 143.195 623.268 140.649 628.862C138.697 633.286 143.046 647.023 147.266 649.7C151.039 652.023 151.467 641.781 147.991 632.636ZM777.797 692.823C777.797 685.927 786.292 671.262 795.139 662.991C802.835 655.797 803.633 654.272 804.358 645.778C805.232 635.61 811.7 620.22 818.596 611.874C823.541 606.057 826.664 607.004 823.746 613.398C822.222 616.818 822.668 619.272 826.069 626.763C830.939 637.283 831.385 640.778 827.742 640.778C826.292 640.778 824.62 642.953 824.118 645.629C822.222 653.919 821.943 654.347 817.073 655.592C805.084 658.566 790.939 672.786 786.366 686.374C782.797 696.82 777.797 700.667 777.797 692.823ZM814.824 649.124C819.545 645.276 822.091 632.785 819.248 627.487C816.85 622.841 816.85 622.841 814.173 629.662C810.678 638.38 808.578 651.298 810.53 651.298C811.404 651.298 813.374 650.35 814.824 649.124ZM838.485 679.18C836.162 670.314 839.936 651.373 844.657 648.473C848.375 646.224 849.676 650.796 846.98 657.116C845.531 660.592 844.378 666.466 844.378 670.183C844.378 673.882 843.282 678.381 841.981 680.128C839.732 683.177 839.582 683.176 838.485 679.18ZM118.009 678.956C117.284 677.804 116.838 674.31 117.061 671.187C117.284 668.139 116.262 662.265 114.812 658.12C110.741 646.15 115.091 643.175 119.738 654.848C124.533 666.614 123.009 687.023 118.009 678.956ZM104.198 651.001C103.399 649.049 105.946 644.551 111.968 637.06C124.385 621.67 128.529 610.349 128.604 591.539C128.753 577.895 128.232 575.498 123.009 565.405C119.087 557.933 117.86 553.713 119.013 552.56C121.132 550.441 124.18 553.936 129.979 565.479C133.4 572.152 133.976 576.075 133.976 591.837C133.976 609.7 133.753 610.777 127.433 623.342C119.459 639.327 105.946 655.444 104.198 651.001ZM847.129 644.031C831.664 626.837 823.541 604.253 825.79 584.792C827.091 573.676 836.385 553.212 840.084 553.212C843.578 553.212 843.207 555.089 837.76 565.703C833.411 574.123 832.965 576.651 832.965 593.435C832.965 610.276 833.411 612.674 837.909 621.317C840.679 626.466 846.404 634.533 850.772 639.18C856.794 645.63 858.245 648.25 856.999 650.425C855.698 652.897 854.099 651.875 847.129 644.031ZM97.5996 636.93C97.1721 635.685 98.975 631.912 101.596 628.491C109.793 617.971 114.236 607.227 115.165 595.963C116.113 583.621 113.938 575.126 106.596 563.508C100.648 554.01 100.499 553.212 104.998 553.212C107.47 553.212 110.09 556.687 114.812 566.204C125.407 587.543 123.808 606.577 109.793 627.042C102.098 638.306 98.9751 640.852 97.5996 636.93ZM855.048 632.859C844.156 620.443 840.158 609.903 840.084 593.509C839.935 580.646 840.679 577.097 844.954 567.729C850.772 555.163 855.921 549.364 857.52 553.565C858.096 555.014 856.144 560.033 853.151 564.829C841.255 583.993 843.356 610.275 858.17 627.115C861.144 630.535 863.617 634.16 863.617 635.183C863.617 639.532 860.067 638.584 855.048 632.859ZM92.3763 622.915C91.9302 621.67 93.4547 617.822 95.7038 614.495C101.596 605.48 103.696 592.264 100.945 581.446C98.8262 573.398 86.8559 554.94 83.6588 554.94C82.9339 554.94 82.2832 554.141 82.2832 553.212C82.2832 549.141 89.3282 551.892 94.9789 558.211C102.618 566.632 108.566 582.097 108.566 593.435C108.566 606.354 95.053 630.89 92.3763 622.915ZM863.17 621.967C852.798 610.127 849.825 587.692 856.646 572.728C861.442 562.059 870.289 551.465 874.286 551.465C878.356 551.465 878.579 553.713 874.862 556.835C859.044 569.902 853.951 598.008 864.564 613.622C870.884 622.841 869.787 629.439 863.17 621.967ZM87.0045 606.8C86.4097 605.406 86.8561 601.484 87.9342 598.082C90.2577 590.461 87.5809 579.643 81.2611 571.279C78.9376 568.156 77.06 564.308 77.06 562.654C77.06 560.108 78.0642 560.535 82.488 564.68C93.1016 574.625 97.228 590.591 92.6554 603.732C90.555 609.624 88.5287 610.778 87.0045 606.8ZM868.617 605.331C865.642 599.68 866.014 583.044 869.36 576.724C870.884 573.75 874.732 568.602 877.855 565.33C882.781 560.182 883.653 559.81 884.23 562.579C884.676 564.308 883.357 567.431 881.48 569.55C873.933 577.821 871.888 584.643 873.059 597.357C874.212 609.7 872.539 612.598 868.617 605.331ZM85.183 461.872C86.2797 455.106 85.908 454.232 80.3875 449.659L74.4393 444.734L81.8374 444.659C88.7334 444.659 89.4581 444.158 93.027 437.187L96.8003 429.77L100.425 437.187C103.771 444.083 104.495 444.585 111.038 444.585H118.009L112.488 450.328C107.47 455.477 107.116 456.63 108.492 462.597C110.239 470.218 110.016 470.292 102.247 465.497C96.3728 461.872 96.3729 461.872 91.2798 465.497C84.3095 470.497 83.8819 470.218 85.183 461.872ZM851.701 462.298C853.374 455.774 853.151 455.106 847.575 450.106L841.682 444.734H849.304C856.497 444.66 856.999 444.288 859.62 437.615C861.144 433.767 862.891 430.645 863.467 430.645C864.043 430.645 865.791 433.841 867.464 437.689C870.215 444.287 870.81 444.659 877.91 444.659L885.55 444.734L879.583 449.585C874.136 454.176 873.783 455.032 874.936 461.872C876.386 470.218 875.735 470.571 868.69 465.497C863.616 461.872 863.616 461.872 857.742 465.497C849.898 470.367 849.675 470.291 851.701 462.298ZM121.262 369.063C110.667 364.862 103.343 360.94 103.343 359.565C103.343 358.245 105.221 352.799 107.618 347.427C112.842 335.679 118.511 332.557 127.228 336.683C130.351 338.133 133.325 340.977 133.976 342.929C134.924 346.051 136.522 346.573 145.444 346.573C155.835 346.573 155.835 346.573 153.79 350.922C152.062 354.696 150.667 355.271 143.418 355.271C136.801 355.271 134.552 355.997 133.102 358.766C131.429 361.889 132.08 362.614 138.4 365.16C143.995 367.409 145.444 368.784 145.017 371.684C144.217 377.204 141.021 376.833 121.262 369.007V369.063ZM126.206 354.193C129.403 345.773 121.708 341.33 116.559 348.672C112.916 353.896 113.139 355.122 117.786 357.018C123.734 359.341 124.31 359.193 126.206 354.193ZM806.979 351.721C801.459 347.353 798.057 336.404 800.381 330.438C802.109 325.716 807.128 321.014 808.652 322.538C810.028 323.914 809.954 330.884 808.504 335.233C806.757 340.531 813.151 348.152 816.775 345.103C818.82 343.375 819.248 340.531 818.523 332.687C817.723 323.84 818.095 321.944 821.348 318.747C830.363 309.676 846.181 319.119 846.051 333.357C845.977 338.803 842.631 344.751 839.582 344.751C837.036 344.751 833.634 336.404 835.66 335.085C838.207 333.486 837.612 327.985 834.712 325.513C829.637 321.293 826.663 326.386 827.89 336.981C828.913 345.327 828.542 346.702 824.471 350.772C819.025 356.219 813.076 356.516 806.905 351.721H806.979ZM137.526 331.61C127.953 326.517 119.812 321.59 119.459 320.567C118.882 318.69 125.853 304.155 130.128 298.43C132.377 295.512 133.176 295.307 135.574 297.333C138.195 299.508 137.972 300.382 133.901 307.724C129.701 315.27 129.626 315.921 132.451 318.022C137.024 321.367 137.972 320.865 141.894 313.244C145.165 306.776 148.418 304.675 151.113 307.352C151.764 307.928 150.667 311.423 148.79 315.122C146.894 318.821 145.37 322.538 145.37 323.394C145.37 324.639 152.712 328.988 154.738 328.988C155.036 328.988 157.062 325.066 159.236 320.27C162.657 312.575 163.604 311.72 166.504 313.3C168.4 314.322 169.924 315.494 169.924 315.995C169.924 318.245 157.433 341.257 156.262 341.052C155.612 340.903 147.117 336.684 137.526 331.61ZM791.366 319.769C786.57 312.445 781.068 300.754 781.644 299.006C782.444 296.683 816.85 276.571 818.374 277.519C819.099 277.946 822.445 283.541 825.865 290.01C830.438 298.709 831.515 302.055 829.861 303.077C826.441 305.252 824.471 303.877 820.121 296.033C816.497 289.416 815.697 288.913 812.277 290.735C810.177 291.813 808.151 292.983 807.779 293.262C807.407 293.56 808.95 296.609 811.051 300.103C815.121 306.628 814.749 311.497 810.251 311.497C808.801 311.497 807.555 310.921 807.555 310.178C807.555 309.453 805.958 306.275 804.08 303.152C800.883 297.984 800.158 297.557 796.589 299.434C794.415 300.531 792.388 301.683 792.091 301.906C791.812 302.204 793.54 306.404 796.087 311.274C800.38 319.843 800.437 320.214 797.259 321.869C794.563 323.337 793.411 322.892 791.366 319.769ZM167.954 306.553C165.631 304.806 157.638 299.583 150.166 294.936C142.693 290.363 136.596 286.292 136.596 285.939C136.596 283.616 149.218 266.181 151.541 265.252C157.582 262.928 163.307 264.303 168.251 269.303C174.348 275.4 174.497 276.999 169.85 286.163C166.281 293.059 166.281 293.059 171.579 297.483C177.471 302.278 178.121 304.75 174.497 307.799C172.749 309.249 171.151 308.951 167.954 306.553ZM161.931 284.768C165.352 279.973 165.277 279.117 161.857 275.697C157.935 271.7 154.664 272.277 151.262 277.519C148.344 281.943 148.344 282.166 152.489 285.363C157.935 289.564 158.66 289.49 161.931 284.768ZM772.63 288.039C770.678 284.415 771.179 282.296 776.774 270.251C780.269 262.779 782.872 256.385 782.593 256.162C782.37 255.883 777.425 259.136 771.774 263.429C760.008 272.221 759.284 272.425 756.811 267.853C755.287 264.879 757.09 262.928 772.053 252.036C781.422 245.195 789.916 239.693 790.938 239.693C791.886 239.693 793.541 241.069 794.638 242.742C796.162 245.195 795.214 248.764 789.916 260.307C786.292 268.226 783.67 274.675 784.172 274.675C784.767 274.675 789.117 271.552 793.987 267.704C803.429 260.158 806.032 259.358 809.08 263.057C810.679 264.953 807.482 268.151 793.541 278.82C783.894 286.162 775.752 292.185 775.399 292.185C775.102 292.185 773.875 290.363 772.63 288.039ZM172.75 262.184C161.485 253.039 159.757 250.938 161.281 248.187C163.809 243.318 165.63 243.968 178.344 254.563C190.835 264.954 192.713 265.605 196.932 261.385C202.006 256.311 200.055 252.314 187.415 242.295C174.348 231.849 173.698 230.827 177.75 227.407C179.943 225.604 182.043 226.478 189.962 232.574C205.352 244.471 208.401 248.188 208.401 254.935C208.401 259.508 206.951 262.481 202.452 266.979C193.512 275.92 188.716 275.121 172.75 262.184ZM745.622 256.013C742.797 253.188 745.417 249.767 759.488 238.02C776.849 223.485 778.15 222.76 781.272 226.533C784.042 229.805 784.842 228.801 764.934 245.567C751.719 256.682 748.243 258.56 745.622 256.013ZM204.181 231.05L188.586 215.362L197.211 207.369C201.932 203.02 207.527 198.949 209.553 198.373C215.074 196.848 220.668 200.547 221.839 206.421C222.639 210.343 223.866 211.588 226.914 211.588C231.487 211.588 238.234 219.135 238.234 224.283C238.234 226.179 234.108 231.98 229.015 237.221L219.795 246.793L204.181 231.05ZM224.516 231.477C226.264 229.879 227.713 226.756 227.713 224.507C227.713 219.21 220.891 218.838 216.319 223.857C213.271 227.277 213.271 227.481 216.319 230.901C220.167 235.102 220.446 235.102 224.516 231.477ZM212.75 216.96C218.847 210.213 211.449 204.841 204.627 211.012C201.579 213.763 201.579 214.135 204.33 217.184C207.955 221.162 208.903 221.161 212.75 216.96ZM720.789 227.332C717.536 223.707 717.666 223.559 732.852 208.466L748.094 193.224L756.811 202.295C767.183 213.113 768.28 219.711 760.882 226.607C754.637 232.425 747.667 232.128 740.622 225.753C734.878 220.585 734.878 220.585 729.506 225.808C724.06 230.976 724.06 230.975 720.789 227.332ZM754.916 219.563C757.388 216.663 756.087 211.143 752.239 207.946C749.99 206.143 748.744 206.57 744.822 210.566C740.101 215.288 740.101 215.287 744.246 218.707C749.19 222.76 752.09 222.983 754.916 219.563ZM233.308 202.722C222.918 189.878 220.891 186.31 222.564 184.358C226.189 180.009 228.513 181.532 238.959 194.878C249.851 208.819 251.022 209.191 258.215 201.272C260.019 199.246 262.491 197.574 263.718 197.574C266.339 197.574 268.662 202.945 266.784 204.767C260.539 210.566 249.777 218.634 248.122 218.634C247.026 218.634 240.353 211.44 233.308 202.722ZM692.256 204.246C691.104 203.094 690.156 201.496 690.156 200.622C690.156 198.801 714.469 168.968 716.663 168.094C717.462 167.797 722.108 171.29 726.886 175.788C736.849 185.156 738.149 190.603 732.127 198.224C727.406 204.172 717.387 204.618 710.342 199.023C705.472 195.249 705.472 195.25 700.9 200.845C695.825 207.016 695.304 207.22 692.256 204.246ZM726.161 190.305C727.406 186.606 722.833 180.064 719.06 180.064C717.089 180.064 711.216 187.257 711.216 189.58C711.216 191.327 720.715 195.473 722.908 194.599C724.135 194.153 725.584 192.201 726.161 190.305ZM260.093 181.607C248.922 164.971 248.327 163.67 251.319 161.476C253.048 160.25 255.093 159.524 255.818 159.952C258.494 161.625 278.532 192.202 278.532 194.674C278.532 196.7 275.13 199.321 272.584 199.321C272.361 199.321 266.71 191.328 260.093 181.607ZM678.037 193.354C676.364 191.328 678.241 187.406 687.684 173.242C698.074 157.629 699.803 155.9 702.795 157.499C706.996 159.748 707.071 159.673 694.506 179.339C683.911 195.975 681.736 197.796 678.037 193.354ZM659.077 182.183C653.055 178.689 648.11 175.213 648.11 174.488C648.11 172.016 664.152 146.811 665.751 146.811C666.699 146.811 667.423 145.287 667.423 143.409C667.423 139.264 669.673 137.666 673.39 139.115C677.591 140.714 676.94 142.963 668.074 158.075C659.003 173.614 658.65 171.142 671.271 180.361C674.84 182.982 674.97 183.633 672.646 185.957C670.323 188.28 668.799 187.834 659.077 182.183ZM286.227 183.633C281.153 181.607 273.96 172.591 271.487 165.268C266.041 148.632 285.298 132.814 299.239 142.61C305.261 146.81 301.265 150.602 292.342 149.208C283.978 147.832 280.279 150.528 280.279 157.777C280.279 164.747 286.525 174.562 291.822 175.938C296.767 177.165 303.012 172.592 303.012 167.87C303.012 164.469 306.339 160.825 309.536 160.825C312.733 160.825 312.455 171.439 309.034 176.216C303.811 183.707 294.146 186.83 286.227 183.633ZM635.415 168.893C632.571 166.718 633.018 165.268 641.587 148.334C650.509 130.918 655.602 125.62 657.851 131.494C658.78 133.966 641.512 171.365 639.541 171.291C638.965 171.217 637.144 170.119 635.415 168.893ZM618.929 159.822C618.427 158.372 619.152 153.929 620.676 150.081C623.427 143.037 623.427 143.038 617.479 140.51C608.91 136.941 608.464 137.163 605.136 145.955C602.516 152.703 601.567 153.725 598.37 152.777C596.344 152.127 594.392 151.327 594.021 151.03C593.147 150.156 606.009 116.104 608.463 112.628C610.284 110.305 611.009 110.231 613.835 112.331C617.032 114.654 617.033 115.082 614.282 121.978C611.382 129.245 611.382 129.245 616.53 131.866C624.3 135.918 626.474 135.193 629.523 127.498C632.292 120.602 634.617 119.227 638.966 121.978C642.386 124.171 627.422 162.499 623.129 162.499C621.4 162.573 619.505 161.347 618.929 159.822ZM344.183 157.777C335.466 155.676 327.548 143.409 327.548 131.792C327.548 122.498 336.841 113.482 346.433 113.482C362.046 113.482 372.995 133.539 365.374 148.279C361.823 155.1 351.804 159.598 344.183 157.777ZM355.726 146.606C359.853 142.461 359.277 133.893 354.407 126.42C350.782 120.9 340.838 120.601 338.012 125.973C335.243 131.141 337.418 141.086 342.511 146.086C347.659 151.253 351.005 151.401 355.726 146.68V146.606ZM373.868 126.569C368.143 103.464 367.771 104.412 383.311 101.14C393.404 99.0398 397.623 99.7646 397.623 103.612C397.623 105.211 394.352 106.958 388.906 108.259C382.734 109.709 380.114 111.234 380.114 113.278C380.188 119.078 382.586 120.602 388.98 118.725C397.474 116.327 399.352 116.55 399.352 120.324C399.352 122.721 397.251 124.171 391.452 125.769C385.708 127.423 383.682 128.743 384.407 130.546C384.909 131.941 385.857 136.141 386.508 139.914C387.53 146.383 387.307 146.811 383.236 146.811C379.11 146.811 378.59 145.584 373.868 126.569ZM560.117 141.086C557.496 139.116 557.719 137.238 562.719 119.078C568.165 99.2634 568.165 99.2628 574.411 100.415C595.248 104.263 603.017 116.55 591.846 127.795C588.723 130.918 586.678 131.346 578.983 130.546C569.763 129.617 569.764 129.617 567.738 136.439C565.488 143.837 564.467 144.432 560.117 141.086ZM585.749 120.1C588.277 116.029 585.452 111.456 579.43 109.858C575.285 108.78 574.782 109.208 573.686 114.877C572.887 119.078 573.258 121.475 574.857 122.572C578.258 124.747 583.574 123.576 585.749 120.1ZM438.999 134.841C438.646 134.19 437.847 128.167 437.196 121.401C435.226 100.341 435.003 99.8399 428.627 100.137C424.11 100.342 423.032 99.6908 423.032 96.8655C423.032 93.8171 424.631 93.1661 435.3 91.995C442.048 91.2701 449.539 90.8426 451.918 91.1215C458.238 91.8464 457.308 96.3637 450.468 98.1667C444.594 99.6909 444.594 99.6903 445.821 116.828C446.992 133.315 446.843 134.041 443.367 134.989C441.323 135.491 439.371 135.416 438.999 134.766V134.841ZM514.149 134.766C506.101 133.539 506.38 135.417 509.875 107.684L511.975 90.3965L524.465 91.6422C538.982 93.092 539.484 93.3154 539.484 98.0181C539.484 101.364 538.834 101.586 529.912 100.415C519.819 99.1885 520.172 98.9664 519.521 106.959C519.447 108.26 522.42 109.506 527.29 110.007C533.685 110.732 535.134 111.531 535.134 114.356C535.134 117.404 533.982 117.925 526.417 117.925C518.22 117.925 517.569 118.205 517.123 122.498C516.547 126.848 517.049 127.144 526.417 128.297C534.261 129.319 536.157 130.119 535.637 132.517C535.061 135.789 526.269 136.662 514.149 134.766ZM464.855 130.194C464.279 128.669 464.279 121.327 464.78 113.929C465.357 106.457 465.859 97.7391 465.859 94.542C465.933 89.5233 466.528 88.7983 469.929 89.3187C473.275 89.7462 473.925 91.0477 474.372 98.1667C474.873 106.513 474.874 106.512 482.569 106.512C490.264 106.512 490.264 106.513 490.841 98.1667C491.287 91.0477 491.937 89.7462 495.283 89.3187C499.186 88.7239 499.26 88.9466 499.26 110.731C499.26 132.813 499.261 132.814 494.837 132.814C490.766 132.814 490.487 132.145 490.487 124.245C490.487 116.104 490.19 115.676 485.041 114.58C475.301 112.684 474.948 112.906 474.372 122.721C473.925 130.695 473.35 132.015 469.855 132.442C467.457 132.814 465.505 131.94 464.855 130.267V130.194ZM64.7739 621.521C64.7739 620.592 63.9743 619.792 63.0449 619.792C62.097 619.792 61.2978 620.592 61.2978 621.521C61.2978 622.469 62.097 623.268 63.0449 623.268C63.9743 623.268 64.7739 622.469 64.7739 621.521ZM626.121 932.288C629.969 930.838 629.597 928.087 625.452 928.087C621.827 928.087 619.504 930.41 621.326 932.213C622.701 933.607 622.701 933.608 626.121 932.288ZM868.04 751.058C869.713 748.456 867.818 746.988 864.49 748.307C862.892 748.883 862.166 750.184 862.742 751.132C864.192 753.456 866.59 753.382 868.04 751.058ZM911.758 663.714C912.26 662.841 911.908 661.615 910.96 660.964C909.937 660.37 909.138 661.094 909.138 662.618C909.138 665.667 910.234 666.112 911.758 663.714ZM928.45 614.551C928.45 613.547 927.223 612.822 925.848 612.822C924.379 612.822 923.152 613.547 923.152 614.551C923.152 615.499 924.379 616.298 925.848 616.298C927.223 616.298 928.45 615.499 928.45 614.551ZM13.9551 427.894C13.9551 426.351 13.1559 425.625 12.2079 426.22C11.2042 426.796 10.9068 428.023 11.4087 428.971C12.9329 431.369 13.9551 430.942 13.9551 427.894ZM41.1116 328.988C40.5354 328.04 39.2902 327.241 38.4166 327.241C37.4872 327.241 36.7619 328.04 36.7619 328.988C36.7619 329.936 37.9889 330.736 39.5131 330.736C40.9629 330.736 41.7622 329.936 41.1116 328.988ZM38.4909 319.341C38.4909 317.891 37.3382 316.72 35.8884 316.72C34.4385 316.72 33.2677 317.891 33.2677 319.341C33.2677 320.791 34.4385 321.944 35.8884 321.944C37.3382 321.944 38.4909 320.791 38.4909 319.341ZM919.677 300.958C919.677 300.028 918.431 299.23 916.981 299.23C915.457 299.23 914.732 300.028 915.308 300.958C915.884 301.906 917.13 302.705 918.004 302.705C918.933 302.705 919.677 301.906 919.677 300.958ZM206.654 110.881C206.654 109.431 205.854 108.259 204.906 108.259C203.977 108.259 203.177 109.431 203.177 110.881C203.177 112.331 203.977 113.482 204.906 113.482C205.929 113.482 206.654 112.331 206.654 110.881ZM376.638 20.4886C376.638 18.5183 375.838 17.4217 374.89 18.0165C373.868 18.667 373.069 20.6937 373.069 22.5897C373.069 24.5414 373.868 25.638 374.89 25.0618C375.838 24.467 376.638 22.3659 376.638 20.4886Z" fill="#DBA651"/>
</svg>
