<svg width="959" height="962" viewBox="0 0 959 962" fill="none" xmlns="http://www.w3.org/2000/svg">
<path fill-rule="evenodd" clip-rule="evenodd" d="M219.612 493.02C220.237 490.285 221.527 485.323 222.601 481.963C223.578 478.603 223.734 475.243 222.816 474.403C221.976 473.563 217.717 469.968 213.361 466.393L205.508 459.83H216.565C228.696 459.83 230.298 458.599 235.103 444.866C236.412 441.135 238.092 438.087 238.776 438.087C239.538 438.087 241.433 442.131 243.113 447.151C246.707 457.915 249.677 459.83 262.511 459.83H272.122L265.012 465.788C261.046 468.992 256.787 472.488 255.478 473.485C253.505 475.008 253.584 477.157 255.869 486.007C257.393 491.887 258.389 496.985 257.999 497.376C257.686 497.669 253.584 495.54 248.837 492.571C238.307 485.85 238.307 485.85 228.54 492.571C218.85 499.271 218.245 499.271 219.612 493.02ZM702.106 496.829C702.106 495.989 703.337 490.812 704.783 485.323C707.83 474.169 708.748 475.927 693.882 464.186C688.451 459.908 688.451 459.908 698.531 459.908C710.663 459.83 713.339 457.993 717.539 446.702C719.278 441.897 721.27 438.087 721.954 438.087C722.638 438.087 724.239 441.135 725.548 444.866C730.198 458.306 732.034 459.83 743.013 459.83C748.502 459.83 752.936 460.67 752.936 461.666C752.936 462.643 752.331 463.483 751.569 463.561C750.885 463.561 747.056 466.315 743.247 469.597C736.293 475.555 736.293 475.555 739.125 486.221C740.649 492.101 741.645 497.22 741.411 497.454C741.118 497.747 737.074 495.54 732.327 492.571C722.638 486.456 720.743 486.085 715.625 489.582C705.779 496.302 702.048 498.294 702.106 496.829ZM118.577 642.501C118.577 638.008 118.577 638.008 479.369 638.008C840.16 638.008 840.16 638.008 840.16 642.501C840.16 647.092 840.16 647.092 479.369 647.092C118.577 647.092 118.577 647.092 118.577 642.501ZM365.831 623.885C365.91 622.146 367.121 618.63 368.488 616.188C371.692 610.62 372.083 594.055 369.113 591.085C367.355 589.405 367.355 588.409 369.113 586.729C370.246 585.518 371.243 581.845 371.243 578.563C371.243 573.758 372.005 572.527 374.896 572.527C377.416 572.527 378.568 573.758 378.646 576.649C378.725 580.693 378.725 580.693 380.405 576.649C381.323 574.285 383.608 572.527 385.738 572.527C388.336 572.527 389.488 573.758 389.547 576.649C389.625 580.693 389.625 580.693 391.618 576.649C393.981 571.765 400.233 571.16 400.467 575.75C400.623 577.723 401.307 576.961 402.46 573.836C403.827 570.163 403.671 568.034 402.069 566.12C399.256 562.701 399.314 526.073 402.147 519.724C404.98 513.317 408.711 507.144 410.996 504.78C413.907 501.869 413.516 499.74 410.313 500.951C408.32 501.791 407.636 500.736 407.636 497.142C407.636 491.574 412.227 485.694 413.673 489.445C414.2 490.656 414.669 489.504 414.747 486.847C414.806 483.487 413.751 481.807 410.996 481.045C408.183 480.361 407.421 479.052 408.105 476.396C408.633 474.325 408.398 469.832 407.636 466.393C406.425 460.904 406.796 459.752 411.465 456.314C416.349 452.739 416.72 451.586 416.72 440.06C416.72 429.453 416.036 427.011 412.442 423.28C409.023 419.763 408.105 416.716 407.793 407.476C407.343 396.341 407.48 395.95 411.524 396.576C416.876 397.337 418.791 408.551 414.122 411.149C412.52 412.067 411.231 413.962 411.231 415.407C411.231 417.634 421.155 418.005 480.287 418.005C548.21 418.005 549.343 418.006 549.343 414.431C549.343 412.438 548.581 410.758 547.585 410.758C546.53 410.758 545.768 407.476 545.768 403.51C545.768 397.416 546.374 396.263 549.343 396.263C552.625 396.263 553.016 397.416 553.016 408.707C553.016 418.767 552.332 421.756 549.343 424.413C546.452 427.089 545.768 430 545.768 439.611C545.768 450.14 546.295 452.114 550.867 456.997C555.457 461.959 555.907 463.639 555.223 472.117C554.617 480.048 553.856 481.65 551.023 481.65C545.377 481.65 546.296 492.18 552.097 494.387C557.743 496.536 558.192 501.654 552.703 501.654C549.265 501.654 549.109 502.025 551.414 504.858C558.349 513.473 561.025 521.033 561.103 532.559C561.181 542.248 561.709 544.377 564.385 544.905C566.592 545.374 567.589 544.377 567.589 541.701C567.589 539.65 569.796 534.454 572.472 530.254C575.207 525.995 577.2 521.639 576.965 520.486C576.438 517.751 581.478 513.785 583.842 515.231C584.897 515.915 585.737 517.595 585.737 519.04C585.737 520.486 587.807 525.076 590.405 529.12C594.664 535.84 595.133 538.419 595.289 555.903C595.367 568.034 594.605 576.805 593.218 579.403C592.007 581.689 591.46 584.287 592.085 585.283C592.691 586.28 591.929 588.858 590.405 591.164C586.518 596.653 586.811 609.468 591.089 617.868C593.062 621.677 594.137 625.35 593.531 625.955C592.925 626.561 541.412 627.088 479.076 627.088C372.395 627.088 365.831 626.874 365.831 623.885ZM554.383 567.116C556.825 563.15 557.587 563.385 542.564 562.759C537.603 562.623 536.684 563.15 536.684 566.667C536.684 570.242 537.602 570.71 544.381 570.71C550.183 570.71 552.703 569.792 554.383 567.116ZM567.51 565.28C567.51 558.267 563.916 558.267 559.872 565.28C556.825 570.71 556.825 570.71 562.158 570.71C566.905 570.71 567.51 570.085 567.51 565.28ZM558.427 541.173V527.128H536.684V538.575C536.684 553.91 539.575 560.181 545.983 558.794C548.737 558.267 551.414 558.657 552.097 559.79C555.067 564.674 558.349 554.985 558.427 541.173ZM550.105 539.044C548.581 535.137 550.652 530.253 553.465 531.172C554.696 531.64 555.75 533.848 555.75 536.212C555.75 541.173 551.707 543.225 550.105 539.044ZM412.149 557.954C412.755 556.977 415.431 556.665 418.029 557.348C421.916 558.345 422.522 558.032 421.526 555.434C420.92 553.695 421.291 552.015 422.678 551.547C424.046 551.019 425.12 546.291 425.491 539.181L425.96 527.733L414.962 527.89L403.983 527.968V542.853C403.983 556.899 404.667 559.107 409.785 559.634C410.469 559.712 411.524 558.95 412.149 557.954ZM405.82 537.13C405.82 534.297 406.796 532.559 408.476 532.559C410.234 532.559 411.231 534.297 411.231 537.13C411.231 539.943 410.156 541.623 408.476 541.623C406.796 541.623 405.82 539.943 405.82 537.13ZM425.042 567.585C429.008 562.389 428.089 561.783 417.326 562.623C405.585 563.541 405.273 563.678 406.796 567.722C408.476 572 421.838 571.843 425.042 567.585ZM532.172 566.667C531.488 564.362 530.961 561.705 531.039 560.708C531.117 559.712 531.566 550.023 531.957 539.122C532.641 520.564 533.09 518.884 538.286 511.559C543.326 504.624 543.932 502.416 543.932 490.89C543.932 479.208 544.225 478.075 547.585 478.075C550.71 478.075 551.179 476.845 551.179 468.992C551.179 461.354 550.496 459.439 546.667 456.919C542.564 454.262 542.095 452.817 541.939 440.979C541.939 433.887 541.099 426.405 540.259 424.413C538.735 420.916 538.657 420.916 537.446 424.882C536.137 429.16 529.515 430.684 529.202 426.718C529.124 424.882 528.89 424.882 528.206 426.718C526.761 430.137 520.353 429.453 520.041 425.8C519.884 422.733 519.806 422.733 519.044 425.8C518.068 429.375 511.191 430.137 511.191 426.718C511.191 425.116 510.742 425.038 509.824 426.405C509.062 427.48 505.389 428.457 501.658 428.613C495.856 428.847 494.782 428.242 494.626 424.803C494.411 420.838 494.333 420.838 493.571 424.647C492.418 430.527 478.607 430.605 478.236 424.725C478.001 420.76 478.001 420.76 477.239 424.882C476.399 429.16 469.445 430.84 469.367 426.64C469.367 425.038 468.996 424.96 467.999 426.483C466.163 429.238 451.219 429.375 451.219 426.562C451.141 424.882 450.828 424.882 449.773 426.562C448.093 429.238 436.255 429.082 434.419 426.405C433.501 424.96 433.129 425.038 433.051 426.64C433.051 430.684 426.116 429.16 424.651 424.803C423.284 420.76 423.284 420.76 421.995 425.253C421.291 427.773 420.608 435.567 420.529 442.58C420.315 453.95 419.846 455.474 416.271 457.075C412.754 458.599 412.071 460.435 411.758 468.913C411.387 478.896 411.387 478.896 414.513 472.567C417.56 466.159 417.56 466.159 418.635 485.245C419.631 504.467 421.233 512.555 424.124 512.555C427.64 512.555 429.77 521.248 430.531 538.575C431 548.734 431.371 558.267 431.449 559.79C431.528 561.314 431 564.361 430.297 566.588C429.008 570.71 429.008 570.71 481.205 570.71C533.481 570.71 533.481 570.71 532.172 566.588V566.667ZM471.594 444.866C472.043 434.806 472.571 433.418 476.087 432.969C478.607 432.578 480.287 433.497 480.814 435.646C481.654 438.849 481.732 438.849 481.889 435.646C482.045 433.282 483.256 432.5 486.245 432.891C489.898 433.418 490.367 434.649 490.816 444.866L491.422 456.235H471.047L471.594 444.866ZM478.451 445.413C478.451 442.502 477.689 439.533 476.692 438.927C475.559 438.302 474.876 440.451 474.876 444.26C474.876 447.855 475.638 450.746 476.692 450.746C477.689 450.746 478.451 448.382 478.451 445.413ZM485.171 442.209C484.721 440.373 484.331 441.447 484.253 444.417C484.253 447.386 484.643 448.831 485.092 447.62C485.62 446.39 485.698 443.948 485.171 442.209ZM473.039 536.524C473.039 525.292 475.012 521.638 481.205 521.638C487.378 521.638 489.371 525.292 489.371 536.524C489.371 547.132 489.371 547.132 481.205 547.132C473.039 547.132 473.039 547.132 473.039 536.524ZM487.534 538.419C487.534 529.12 485.62 525.291 480.971 525.291C477.005 525.291 476.692 525.995 476.692 534.375C476.692 543.225 476.771 543.459 482.123 543.459C486.851 543.459 487.534 542.775 487.534 538.419ZM469.152 510.953C469.074 510.347 468.839 501.498 468.683 491.34C468.468 472.957 468.527 472.801 473.489 469.91C476.243 468.23 478.451 465.319 478.451 463.424C478.451 458.462 483.334 458.99 484.643 464.03C485.171 466.393 487.612 469.285 490.054 470.594C494.254 472.879 494.411 473.485 493.864 491.418C493.571 501.576 493.258 510.347 493.18 510.953C493.024 511.48 487.691 512.027 481.205 512.027C474.719 512.027 469.308 511.48 469.152 510.953ZM489.371 499.818C489.371 498.821 485.698 498.06 481.205 498.06C476.692 498.06 473.039 498.821 473.039 499.818C473.039 500.814 476.692 501.654 481.205 501.654C485.698 501.654 489.371 500.814 489.371 499.818ZM478.451 491.496C478.451 488.292 474.563 488.82 473.411 492.258C473.039 493.41 474.036 494.387 475.638 494.387C477.161 494.387 478.451 493.098 478.451 491.496ZM488.98 492.258C487.847 488.82 483.96 488.292 483.96 491.496C483.96 493.098 485.249 494.387 486.851 494.387C488.374 494.387 489.371 493.41 488.98 492.258ZM477.454 479.736C475.794 476.923 473.039 477.763 474.192 480.732C474.798 482.256 475.931 483.018 476.849 482.412C477.767 481.885 478.079 480.654 477.454 479.736ZM486.694 472.567C482.651 468.152 482.338 468.152 476.692 472.567C472.121 476.161 472.121 476.161 481.049 476.161C489.82 476.239 489.898 476.161 486.616 472.567H486.694ZM567.51 551.625C567.51 548.812 566.514 547.132 564.834 547.132C563.076 547.132 562.099 548.812 562.099 551.625C562.099 554.457 563.154 556.215 564.834 556.215C566.514 556.215 567.51 554.457 567.51 551.625ZM574.836 536.973C574.836 535.45 573.996 534.688 573 535.293C572.004 535.899 571.164 537.208 571.164 538.126C571.164 539.044 572.004 539.806 573 539.806C573.996 539.806 574.836 538.575 574.836 536.973ZM580.247 535.762C580.247 532.402 579.876 532.168 578.411 534.375C576.204 537.892 576.204 539.806 578.411 539.806C579.485 539.806 580.247 537.97 580.247 535.762ZM587.495 538.419C587.495 537.735 586.655 535.899 585.737 534.375C584.291 532.168 583.998 532.402 583.92 535.762C583.92 537.97 584.76 539.806 585.737 539.806C586.733 539.806 587.495 539.181 587.495 538.419ZM585.737 526.366C585.737 524.686 580.247 523.768 579.329 525.37C578.724 526.288 579.954 527.128 582.005 527.128C584.076 527.128 585.737 526.757 585.737 526.366ZM413.067 518.435C412.989 514.547 412.598 514.079 411.231 516.227C408.945 519.724 408.945 523.475 411.231 523.475C412.227 523.475 413.067 521.189 413.067 518.435ZM420.315 521.189C420.315 519.959 419.474 517.673 418.478 516.227C417.111 514.079 416.72 514.547 416.72 518.435C416.72 521.189 417.482 523.475 418.478 523.475C419.474 523.475 420.315 522.479 420.315 521.189ZM425.042 518.747C424.436 517.067 423.44 516.071 422.971 516.598C422.444 517.067 422.6 518.884 423.206 520.564C423.889 522.244 424.808 523.24 425.355 522.713C425.804 522.244 425.726 520.408 425.042 518.747ZM540.122 515.309C540.181 514.313 539.419 514.704 538.442 516.227C537.524 517.673 536.762 520.115 536.841 521.638C536.899 524.53 539.966 518.747 540.122 515.309ZM545.768 518.806C545.768 516.149 544.928 514.625 543.932 515.309C542.936 515.915 542.096 517.966 542.096 519.958C542.096 521.873 542.936 523.475 543.932 523.475C544.928 523.475 545.768 521.404 545.768 518.806ZM553.016 521.189C552.937 519.959 552.175 517.673 551.179 516.227C549.812 514.079 549.421 514.547 549.421 518.435C549.343 521.189 550.183 523.475 551.179 523.475C552.175 523.475 553.016 522.479 553.016 521.189ZM417.56 508.902C416.955 507.905 415.724 507.143 414.747 507.143C413.829 507.143 413.067 507.905 413.067 508.902C413.067 509.957 414.356 510.719 415.88 510.719C417.404 510.719 418.244 509.957 417.56 508.902ZM549.343 508.14C549.343 506.225 545.905 505.385 544.85 507.065C544.225 508.062 544.928 508.902 546.53 508.902C548.132 508.902 549.343 508.589 549.343 508.14ZM415.802 496.224C416.407 495.227 415.587 494.387 414.044 494.387C412.52 494.387 411.231 495.227 411.231 496.224C411.231 497.22 411.993 497.982 412.911 497.982C413.907 497.982 415.118 497.22 415.802 496.224ZM551.629 496.829C550.417 496.301 548.347 496.301 547.057 496.829C545.827 497.298 546.901 497.747 549.343 497.747C551.863 497.747 552.859 497.298 551.629 496.829ZM550.652 400.307C550.183 398.548 549.812 399.994 549.812 403.51C549.812 407.027 550.183 408.394 550.652 406.714C551.101 404.956 551.101 402.065 550.652 400.307ZM412.52 400.385C412.071 398.627 411.602 399.623 411.602 402.592C411.524 405.581 411.914 407.027 412.442 405.796C412.911 404.585 412.989 402.143 412.442 400.385H412.52ZM559.423 602.22C558.817 599.544 557.059 598.02 554.774 598.02C549.734 598.02 549.948 608.393 555.301 617.399L559.345 624.353L559.951 615.348C560.263 610.464 560.029 604.506 559.423 602.22ZM589.253 622.068C589.253 621.306 588.042 618.63 586.655 616.188C583.002 609.858 583.373 598.938 587.573 586.338C589.565 580.478 591.167 575.36 591.167 574.969C591.167 574.676 583.685 574.363 574.523 574.363C556.669 574.363 553.152 576.043 553.094 584.678C553.015 586.885 552.175 589.171 551.179 589.777C547.897 591.847 549.265 594.367 553.777 594.367C560.419 594.367 563.916 600.696 563.916 612.906V623.435H576.594C583.607 623.435 589.331 622.83 589.253 622.068ZM547.507 600.618C547.507 594.289 546.374 590.851 542.564 586.045C537.524 579.794 537.524 579.794 481.205 579.794C424.886 579.794 424.886 579.794 419.846 586.045C416.036 590.851 414.884 594.289 414.884 600.618V608.862H547.507V600.618ZM409.922 587.725C410.625 587.12 410.234 585.049 409.238 583.076C407.714 580.243 406.796 580.009 404.745 581.767C402.596 583.525 401.385 583.291 398.709 580.849C395.739 578.192 395.212 578.192 394.216 580.634C392.692 584.815 387.418 584.053 386.206 579.481C385.21 575.516 385.21 575.516 383.765 579.481C381.85 584.6 378.803 584.522 376.888 579.403C375.521 575.672 375.365 575.809 374.525 581.24C374.075 584.443 374.134 587.491 374.603 588.018C375.892 589.327 408.633 589.093 409.922 587.725ZM550.496 580.693C552.469 574.363 552.468 574.363 545.534 574.363C538.579 574.363 538.579 574.363 542.33 580.693C544.381 584.209 546.608 587.12 547.292 587.12C547.976 587.12 549.343 584.209 550.496 580.693ZM419.162 580.771C423.206 574.676 423.049 574.363 415.802 574.363C408.945 574.363 407.714 576.2 412.149 579.794C413.595 581.005 414.356 582.763 413.829 583.681C411.465 587.569 416.564 584.815 419.162 580.771ZM509.062 574.832C494.332 574.52 469.836 574.52 454.501 574.832C439.224 575.125 451.219 575.36 481.205 575.36C511.191 575.36 523.713 575.125 509.062 574.832ZM583.685 569.402C585.287 566.432 585.678 566.432 589.253 569.714C593.004 573.152 593.004 573.152 591.929 566.96C591.402 563.541 590.015 558.95 588.96 556.743C586.811 552.308 588.335 546.292 591.167 547.972C592.164 548.655 593.004 547.815 593.004 546.292C593.004 544.065 590.777 543.459 582.162 543.459H571.32L571.476 557.583C571.632 567.585 572.082 570.398 573.234 567.429C574.992 562.623 578.411 563.678 578.411 569.03C578.411 573.367 581.322 573.602 583.685 569.402ZM407.421 616.95C410 612.593 411.231 607.417 411.231 601.068V591.613L393.063 591.085L374.896 590.617V600.462C374.896 605.815 373.606 613.199 372.161 616.871C369.406 623.435 369.406 623.435 386.499 623.435C403.593 623.435 403.593 623.435 407.421 616.95ZM551.55 618.024C548.425 612.515 548.425 612.515 481.127 612.515C413.829 612.515 413.829 612.515 410.625 618.024C407.421 623.435 407.421 623.435 481.049 623.435C554.696 623.435 554.696 623.435 551.55 618.024ZM190.31 768.717C188.63 765.982 190.857 764.38 199.784 761.86C203.906 760.708 212.521 756.215 218.85 751.858C243.035 735.293 260.284 735.762 283.492 753.382C299.745 765.826 316.232 765.67 333.853 753.011C346.59 743.849 356.357 739.883 365.968 739.805C377.279 739.727 384.292 742.403 399.94 752.62C420.998 766.431 432.211 766.275 453.348 751.858C477.532 735.371 492.184 735.371 516.231 751.78C537.817 766.431 548.894 766.744 568.8 753.089C594.449 735.527 610.019 735.293 634.047 752.093C653.894 765.904 669.307 766.275 686.244 753.382C697.691 744.689 705.095 741.407 715.703 740.255C727.99 739.043 737.758 742.325 753.386 753.011C760.028 757.582 767.216 761.782 769.268 762.466C772.393 763.462 772.706 764.224 771.026 766.275C767.431 770.553 763.153 769.264 747.896 759.106C725.763 744.376 713.945 744.162 694.41 757.973C670.303 774.988 653.894 775.144 629.632 758.578C609.706 745.001 596.344 744.083 580.716 755.374C552.859 775.281 534.457 775.749 510.273 757.269C493.864 744.767 477.239 744.845 459.541 757.426C446.491 766.822 437.017 770.631 426.722 770.553C414.806 770.475 406.953 767.584 393.532 758.109C373.079 743.771 358.115 744.298 338.58 759.946C321.116 773.991 299.432 774.226 280.132 760.551C256.865 744.083 244.422 743.693 223.129 758.735C207.95 769.479 193.514 773.835 190.31 768.717ZM686.166 861.586C683.197 856.859 683.275 856.566 687.533 854.261C690.366 852.737 691.968 853.049 694.859 855.784C698.532 859.222 698.532 859.223 694.019 862.211C688.373 865.865 688.842 865.943 686.166 861.586ZM767.822 855.179C765.829 852.659 763.388 850.686 762.333 850.686C759.109 850.686 757.82 846.72 760.418 845.04C762.391 843.888 762.47 843.048 760.711 841.29C758.973 839.531 759.109 838.398 761.493 835.8C767.06 829.627 775.069 834.198 771.26 841.29C768.506 846.486 770.791 850.686 777.043 851.897C782.551 853.05 782.551 853.049 778.195 856.331C772.628 860.668 772.1 860.61 767.822 855.179ZM705.623 849.689C704.333 847.248 703.65 844.884 704.021 844.493C704.49 844.2 708.455 841.602 712.948 838.77C717.461 836.035 727.443 828.924 735.159 823.142C742.798 817.261 749.889 812.456 750.807 812.456C754.46 812.456 754.694 820.621 751.1 824.275C749.049 826.345 747.525 826.873 747.525 825.583C747.525 824.353 746.685 823.356 745.689 823.356C744.693 823.356 743.853 824.88 743.853 826.638C743.853 828.475 741.254 831.913 737.973 834.276C732.561 838.398 714.55 850.373 710.057 852.971C708.983 853.655 706.99 852.131 705.701 849.689H705.623ZM285.777 831.6C269.446 821.227 258.077 816.187 251.142 816.109C246.942 816.109 243.425 814.82 241.296 812.456C238.014 808.861 238.151 808.861 249.071 808.861C262.804 808.861 267.16 810.463 282.886 821.227C294.939 829.393 295.857 829.764 308.36 829.764C320.041 829.764 322.015 829.158 329.418 823.825C355.068 805.345 377.494 803.743 397.576 818.942C400.78 821.383 400.858 821.833 398.181 824.509C395.583 827.107 394.665 826.873 387.418 822.223C380.776 818.023 377.416 817.105 367.511 817.105C356.904 817.027 354.384 817.711 345.671 823.278C325.843 835.878 320.491 837.93 307.676 837.93C297.068 837.93 294.47 837.168 285.777 831.6ZM640.005 832.909C635.355 830.155 628.088 825.583 623.83 822.751C609.862 813.374 591.539 814.429 576.204 825.583C573.605 827.478 572.55 827.322 570.187 824.958C567.51 822.302 567.745 821.676 572.765 818.101C582.162 811.459 590.62 808.861 602.986 808.861C615.957 808.861 624.807 812.456 640.005 823.825C647.096 829.158 649.167 829.764 660.067 829.764C670.831 829.764 673.429 829.002 681.282 823.903C699.606 811.987 707.381 808.627 715.39 809.174C722.95 809.78 722.95 809.78 712.03 815.054C706.092 818.023 697.457 822.985 692.964 826.189C678.997 836.113 674.035 837.929 660.829 837.851C650.69 837.851 646.94 836.953 640.005 832.909ZM784.524 829.627C785.364 827.556 784.759 827.029 782.473 827.791C780.715 828.318 778.273 828.084 777.043 827.322C775.519 826.423 783.157 817.555 800.777 799.7C854.577 745.138 887.395 691.73 911.209 619.841C915.018 608.315 918.905 599.095 919.902 599.329C920.82 599.544 921.191 598.098 920.664 596.106C919.902 593.215 920.664 592.531 924.473 592.531C930.509 592.531 930.822 588.097 925.157 583.369C921.953 580.634 921.66 579.931 924.023 579.853C925.625 579.853 928.067 581.083 929.279 582.607C930.959 584.6 932.189 584.815 933.557 583.525C934.553 582.529 936.917 581.611 938.753 581.611C940.589 581.611 942.562 580.4 943.09 578.954C943.715 577.411 945.395 576.2 946.762 576.2C950.122 576.2 949.048 582.451 940.882 611.07C918.827 688.604 880.754 754.828 825.431 811.694C811.17 826.423 811.17 826.423 802.008 825.954C794.604 825.642 792.534 826.189 791.01 829.002C788.724 833.28 782.922 833.808 784.524 829.627ZM821.992 808.861C821.992 806.42 820.781 805.208 818.418 805.208C814.901 805.208 813.456 808.783 815.976 811.303C818.496 813.745 821.992 812.378 821.992 808.861ZM295.095 814.058C291.735 813.062 283.726 808.627 277.221 804.212C258.917 791.69 245.867 789.795 232.056 797.805C227.563 800.461 225.883 800.618 223.441 798.86C219.163 795.734 219.397 795.519 229.009 790.557C235.787 787.119 240.456 786.123 250.36 786.201C264.113 786.279 269.837 788.408 283.57 798.938C293.552 806.576 306.465 809.78 316.232 807.181C320.198 806.107 329.047 801.536 335.982 797.043C360.713 780.79 375.365 781.083 400.701 798.41C420.158 811.772 433.442 811.46 452.742 797.258C473.117 782.313 492.496 781.239 511.875 794.132C515.762 796.73 521.115 800.324 523.713 802.063C537.524 811.381 551.785 810.229 568.878 798.488C594.293 781.083 609.022 780.79 633.734 797.043C647.936 806.341 657.547 809.545 666.396 807.865C671.905 806.81 676.242 804.505 698.141 791.163C706.99 785.81 718.516 784.286 730.432 786.885C741.04 789.248 743.481 791.319 740.356 795.05C738.676 797.121 736.761 797.043 729.123 794.816C716.914 791.241 706.619 793.839 692.046 804.212C669.542 820.309 653.503 820.231 629.632 803.978C608.632 789.717 596.657 789.483 576.965 802.903C561.474 813.589 555.067 816.109 544.459 816.031C533.09 815.875 525.081 812.905 511.953 803.9C491.129 789.561 478.998 789.248 459.384 802.688C433.286 820.543 418.4 820.7 392.907 803.06C373.157 789.561 360.948 789.795 339.948 804.134C323.245 815.581 310.43 818.394 295.095 813.979V814.058ZM754.773 809.701C754.773 809.174 764.833 798.781 777.121 786.572C789.408 774.304 804.978 757.347 811.776 748.889C856.101 693.488 887.396 625.955 899.449 559.79C901.969 546.292 903.043 543.459 905.778 543.459C907.614 543.459 909.9 542.013 910.974 540.333C913.865 535.293 913.26 546.448 910.212 555.141C908.767 559.106 908.064 563.072 908.689 563.912C909.216 564.83 908.22 571.394 906.462 578.563C885.95 663.033 845.727 734.609 786.126 792.921C769.873 808.783 767.275 810.698 761.415 810.698C757.742 810.698 754.773 810.229 754.773 809.701ZM299.745 792.296C293.708 791.397 286.773 788.115 277.455 781.766C255.869 767.193 243.953 767.037 223.5 781.083C212.072 788.955 210.997 789.326 208.165 786.513C206.485 784.833 205.508 783.231 205.957 782.919C223.89 769.557 233.892 764.458 243.953 763.775C260.069 762.622 266.086 764.38 281.577 774.831C295.232 784.071 295.857 784.286 308.75 784.286C320.725 784.286 322.562 783.759 329.731 778.426C354.833 759.575 377.963 758.109 398.26 774.069C417.795 789.404 432.602 789.404 453.817 773.991C464.952 765.904 472.278 763.384 485.171 763.384C497.986 763.384 504.94 766.138 520.646 777.508C536.294 788.721 553.387 787.881 570.187 774.988C581.771 766.138 589.331 763.384 601.931 763.384C615.43 763.384 619.864 765.064 635.492 775.749C647.565 783.993 648.463 784.286 661.142 784.286C673.878 784.286 674.796 783.993 686.85 775.749C702.575 764.986 706.932 763.384 720.821 763.462C732.874 763.462 742.642 767.037 752.018 774.831C756.609 778.641 757.058 779.793 755.007 782.157C752.936 784.755 751.647 784.365 743.091 778.719C726.232 767.506 710.272 768.268 693.492 781.083C681.673 790.088 673.722 793.077 661.142 793.077C649.694 793.077 642.896 790.323 623.146 777.43C615.274 772.312 612.675 771.549 601.99 771.628C590.484 771.628 589.018 772.077 577.278 780.028C559.267 792.237 557.137 792.999 544.01 792.999C531.254 792.999 526.077 791.084 510.742 780.555C492.418 767.955 477.161 767.584 460.303 779.481C443.893 791.006 438.775 792.999 425.726 792.999C412.598 792.999 410.469 792.237 392.458 780.028C380.698 772.077 379.252 771.628 367.726 771.628C357.041 771.628 354.462 772.312 346.59 777.43C324.163 792.003 315.529 794.737 299.745 792.296ZM421.682 412.438C419.474 411.227 418.478 408.316 418.478 403.432C418.478 397.337 419.084 396.263 422.288 396.263C426.409 396.263 426.409 394.817 422.6 357.271C421.291 344.065 421.448 342.386 424.964 338.186C427.015 335.607 429.32 332.012 430.004 330.254C431.215 326.738 434.809 327.656 434.809 331.485C434.809 332.774 436.783 335.666 439.224 337.971C442.741 341.253 443.424 343.304 442.662 348.265C441.608 354.907 444.655 357.037 446.257 350.785C446.784 348.793 448.464 347.191 450.066 347.191C451.59 347.191 453.739 348.793 454.794 350.785C455.868 352.758 457.47 354.439 458.31 354.439C459.15 354.439 460.303 352.758 460.83 350.785C461.357 348.578 463.272 347.191 465.714 347.191C468.156 347.191 470.07 348.578 470.676 350.785C471.125 352.758 472.649 354.439 473.958 354.439C475.169 354.439 476.634 352.758 477.161 350.785C477.689 348.793 479.447 347.191 480.971 347.191C482.573 347.191 484.936 348.793 486.167 350.785C487.378 352.758 488.98 354.439 489.664 354.439C490.367 354.439 491.422 352.758 492.106 350.785C492.731 348.715 494.86 347.191 496.931 347.191C499.06 347.191 501.052 348.656 501.58 350.785C502.029 352.758 503.182 354.439 504.1 354.439C504.94 354.439 506.464 352.758 507.538 350.785C510.117 346.058 513.711 346.214 517.227 351.235C520.041 355.279 520.04 355.279 520.197 348.793C520.197 345.14 521.799 340.256 523.635 337.893C525.471 335.451 527.522 331.934 528.206 329.942C529.359 326.894 530.121 327.441 534.164 334.22C537.896 340.491 538.97 344.984 539.497 356.353C539.81 364.362 539.419 371.16 538.364 371.766C537.446 372.293 536.606 378.095 536.606 384.503C536.606 395.052 536.977 396.263 540.259 396.263C543.326 396.263 543.932 397.494 543.932 403.432C543.932 412.067 539.204 415.876 532.797 412.516C529.73 410.836 529.202 409.312 530.121 404.741C533.617 385.89 533.695 386.495 527.757 382.061C524.084 379.404 522.111 376.337 522.111 373.446C522.111 368.953 522.111 368.953 481.205 368.953C440.299 368.953 440.299 368.953 440.299 374.364C440.299 378.33 438.931 380.459 434.888 382.901C430.844 385.284 429.398 387.492 429.398 391.145C429.398 393.977 430.238 396.263 431.215 396.263C432.211 396.263 433.051 398.705 433.051 401.674C433.051 404.663 433.813 407.183 434.809 407.183C435.884 407.183 436.646 404.663 436.646 401.674C436.646 396.576 437.095 396.263 443.737 396.263C450.535 396.263 450.828 396.497 451.59 402.749C452.215 408.082 451.512 409.84 448.152 412.067C444.343 414.509 443.503 414.509 439.771 412.145C436.177 409.762 434.888 409.703 431.137 411.832C425.726 414.802 425.648 414.802 421.682 412.438ZM429.398 403.51C429.398 399.232 428.617 398.099 425.804 398.099C422.971 398.099 422.131 399.232 422.131 403.51C422.131 407.789 422.971 408.921 425.804 408.921C428.617 408.921 429.398 407.789 429.398 403.51ZM447.546 403.51C447.546 399.232 446.784 398.099 443.971 398.099C441.139 398.099 440.299 399.232 440.299 403.51C440.299 407.789 441.139 408.921 443.971 408.921C446.784 408.921 447.546 407.789 447.546 403.51ZM540.259 403.354C540.259 396.029 534.242 396.576 533.324 403.979C532.934 408.023 533.48 408.921 536.528 408.921C539.497 408.921 540.259 407.789 540.259 403.354ZM436.783 374.97C439.303 368.328 439.01 367.722 432.973 368.64C429.008 369.168 427.64 370.164 428.402 372.079C428.929 373.524 429.398 376.279 429.398 378.174C429.398 382.901 434.653 380.694 436.783 374.97ZM534.242 369.637C534.086 369.559 532.094 368.875 529.808 368.191C526.37 367.117 525.764 367.566 525.764 371.453C525.764 373.973 527.132 377.412 528.89 379.092C531.879 382.061 532.094 381.924 533.324 376.122C534.008 372.684 534.399 369.793 534.242 369.715V369.637ZM536.684 359.947C536.684 354.302 536.059 352.915 533.93 353.755C532.406 354.36 531.176 353.911 531.176 352.837C531.176 351.704 532.406 350.785 533.93 350.785C535.454 350.785 536.684 349.555 536.684 348.031C536.684 346.214 534.692 345.374 530.277 345.374C523.928 345.374 523.928 345.374 523.928 354.439C523.928 362.233 524.397 363.522 527.444 363.522C529.437 363.522 531.488 364.362 532.094 365.359C534.535 369.324 536.684 366.804 536.684 359.947ZM435.122 362.917C436.783 361.686 438.462 357.427 438.775 353.462C439.381 346.351 439.302 346.273 432.602 345.667C425.804 345.14 425.804 345.14 425.804 355.2C425.804 366.042 428.324 368.113 435.122 362.917ZM427.562 352.622C427.562 351.626 428.402 350.785 429.398 350.785C430.375 350.785 431.215 351.626 431.215 352.622C431.215 353.599 430.375 354.439 429.398 354.439C428.402 354.439 427.562 353.599 427.562 352.622ZM520.275 360.787C520.275 359.322 519.044 358.033 517.52 358.033C516.075 358.033 514.864 356.88 514.864 355.435C514.864 351.098 511.035 350.18 509.98 354.224C508.593 359.401 500.349 359.557 498.982 354.439C498.533 352.466 497.302 350.785 496.462 350.785C495.544 350.785 494.86 352.466 494.86 354.439C494.86 357.115 493.649 358.033 490.132 358.033C486.929 358.033 485.092 356.881 484.487 354.439C483.959 352.466 482.729 350.785 481.732 350.785C480.736 350.785 479.525 352.466 478.997 354.439C478.372 356.802 476.556 358.033 473.567 358.033C470.597 358.033 468.761 356.802 468.078 354.439C467.628 352.466 466.554 350.785 465.792 350.785C465.03 350.785 463.956 352.466 463.428 354.439C462.803 356.802 460.908 358.033 457.997 358.033C455.028 358.033 453.114 356.802 452.508 354.439C452.059 352.466 450.672 350.785 449.539 350.785C448.464 350.785 447.546 352.466 447.546 354.439C447.546 356.431 446.413 358.033 444.89 358.033C443.346 358.033 442.135 359.244 442.135 360.787C442.135 363.151 447.702 363.522 481.205 363.522C514.707 363.522 520.275 363.151 520.275 360.787ZM435.884 338.889C431.977 335.978 429.164 336.212 428.011 339.573C427.562 340.94 429.457 341.702 433.364 341.624C439.088 341.624 439.224 341.467 435.884 338.889ZM533.93 339.866C533.324 338.889 531.644 338.049 530.277 338.049C528.89 338.049 527.288 338.889 526.604 339.866C525.999 340.94 527.601 341.702 530.277 341.702C533.012 341.702 534.536 340.94 533.93 339.866ZM458.837 412.067C456.396 410.914 455.106 409.156 455.712 407.554C456.259 406.187 456.708 403.061 456.708 400.619C456.708 396.79 457.548 396.263 463.037 396.263C468.527 396.263 469.367 396.79 469.367 400.619C469.367 403.061 469.836 406.187 470.363 407.554C471.809 411.363 464.034 414.352 458.837 412.067ZM465.792 403.51C465.792 397.63 461.064 395.735 459.15 400.756C457.704 404.663 459.677 408.921 462.959 408.921C464.874 408.921 465.792 407.183 465.792 403.51ZM476.556 412.067C474.485 410.524 473.879 407.867 474.407 403.061C475.169 396.712 475.716 396.263 481.205 396.263C486.772 396.263 487.222 396.712 488.003 403.061C488.765 409.703 486.011 414.274 481.205 414.274C480.209 414.274 478.079 413.278 476.556 412.067ZM483.96 403.51C483.96 399.857 483.041 398.099 481.205 398.099C479.369 398.099 478.451 399.857 478.451 403.51C478.451 407.183 479.369 408.921 481.205 408.921C483.041 408.921 483.96 407.183 483.96 403.51ZM495.622 411.832C492.731 409.84 492.106 407.789 492.653 402.749C493.336 396.79 493.864 396.263 499.372 396.263C504.94 396.263 505.389 396.712 506.151 403.061C506.698 407.867 506.073 410.524 504.1 412.067C500.349 414.958 499.978 414.88 495.622 411.832ZM503.026 403.51C503.026 400.697 501.873 398.783 499.822 398.392C497.38 397.943 496.696 399.017 496.696 403.51C496.696 408.023 497.38 409.078 499.822 408.628C501.873 408.238 503.026 406.343 503.026 403.51ZM514.239 411.832C511.953 410.074 511.113 407.476 511.504 403.198C512.109 397.63 512.637 397.103 518.907 396.576C525.764 396.029 525.764 396.029 525.764 403.354C525.764 408.707 524.768 411.149 522.248 412.516C517.911 414.802 518.282 414.88 514.239 411.832ZM522.111 403.51C522.111 397.63 517.442 395.735 515.469 400.756C514.024 404.663 516.075 408.921 519.357 408.921C521.193 408.921 522.111 407.183 522.111 403.51ZM118.577 315.369C118.577 310.797 118.577 310.797 479.369 310.797C840.16 310.797 840.16 310.797 840.16 315.369C840.16 319.881 840.16 319.881 479.369 319.881C118.577 319.881 118.577 319.881 118.577 315.369ZM200.39 269.207C200.39 255.025 200.995 249.145 202.675 248.598C208.321 246.469 209.474 249.301 209.474 265.554C209.474 281.729 209.474 281.729 217.639 281.729C224.652 281.729 225.805 282.257 225.805 285.382C225.805 288.664 224.652 288.977 213.127 288.977H200.39V269.207ZM232.505 287.824C231.822 287.141 231.294 278.135 231.294 267.84C231.294 248.989 231.294 248.989 235.865 248.989C240.378 248.989 240.378 248.989 240.378 268.973C240.378 287.219 240.065 288.977 237.018 288.977C235.182 288.977 233.209 288.43 232.505 287.824ZM252.431 285.226C249.833 283.175 247.625 280.284 247.625 278.897C247.625 275.322 256.084 275.537 257.471 279.131C259.073 283.409 268.528 281.886 268.528 277.373C268.528 274.853 266.32 273.095 260.753 271.278C246.18 266.394 244.109 253.482 257.159 249.145C266.477 246.097 278.53 251.587 278.53 258.912C278.53 261.276 269.759 259.674 268.84 257.232C267.453 253.716 261.515 253.638 258.682 257.076C256.397 259.831 257.393 260.749 270.208 267.234C277.006 270.731 279.37 274.619 277.924 280.206C275.775 288.899 260.831 291.79 252.431 285.226ZM285.25 287.824C284.546 287.141 284.019 278.135 284.019 267.84V248.989H295.857C305.234 248.989 308.36 249.75 311.27 252.642C315.607 256.998 315.763 259.674 312.188 264.793C309.805 268.211 309.805 268.758 312.188 269.676C313.849 270.36 314.923 273.095 314.923 277.06C314.923 282.335 313.927 283.937 309.512 286.222C304.16 288.977 287.535 290.051 285.25 287.824ZM304.922 276.299C304.922 272.489 303.945 271.649 298.983 271.2C293.494 270.653 293.103 270.966 293.103 276.299C293.103 281.573 293.494 281.944 298.983 281.417C303.945 280.889 304.922 280.049 304.922 276.299ZM304.023 262.644C306.992 258.991 303.398 254.478 297.381 254.478C293.787 254.478 293.103 255.396 293.103 259.909C293.103 264.48 293.787 265.398 297.381 265.398C299.823 265.398 302.714 264.167 304.023 262.644ZM329.653 286.457C316.076 278.975 317.912 253.716 332.485 248.911C345.3 244.632 354.911 253.638 354.911 269.969C354.911 284.777 341.862 293.255 329.653 286.457ZM343.62 279.581C346.824 276.299 346.375 260.749 342.937 257.311C336.666 251.04 329.418 256.842 329.418 268.211C329.418 279.444 337.447 285.773 343.62 279.581ZM358.506 287.668C358.35 283.624 372.532 248.461 374.603 247.621C378.412 246.156 381.245 250.591 388.258 268.973C396.111 289.426 396.052 288.977 390.543 288.977C387.418 288.977 385.816 287.746 385.054 284.464C384.058 280.577 382.846 279.893 376.966 279.893C371.321 279.893 369.641 280.733 367.961 284.464C366.046 288.586 358.584 291.106 358.506 287.668ZM380.248 270.36C380.248 269.129 379.174 266.316 377.963 264.089C375.736 260.124 375.677 260.202 373.763 266.394C371.848 272.333 372.005 272.645 376.048 272.645C378.412 272.645 380.326 271.649 380.248 270.36ZM443.971 287.746C443.971 284.699 457.548 249.751 459.15 248.676C463.194 246.019 467.159 251.352 473.567 268.445C477.318 278.213 480.365 286.906 480.287 287.668C480.287 291.106 472.727 288.586 470.91 284.464C469.23 280.733 467.55 279.893 461.904 279.893C455.946 279.893 454.716 280.577 453.817 284.464C452.977 287.746 451.434 288.977 448.308 288.977C445.866 288.977 443.971 288.43 443.971 287.746ZM464.874 267.684C463.584 262.272 462.588 260.671 461.357 261.882C460.908 262.351 460.068 264.929 459.384 267.684C458.232 271.962 458.623 272.645 462.119 272.645C465.636 272.645 465.948 271.962 464.874 267.684ZM485.62 288.293C485.171 287.824 485.092 278.819 485.405 268.289L486.011 248.989H499.509C510.117 248.989 513.028 249.594 513.028 251.665C513.028 253.56 510.351 254.4 503.494 254.869C495.173 255.318 493.864 255.924 493.336 259.44C492.809 263.191 493.571 263.562 501.111 263.562C508.222 263.562 509.433 264.089 509.433 267.234C509.433 270.282 508.222 270.809 501.189 270.809C493.336 270.809 493.024 271.044 493.024 276.299C493.024 281.651 493.18 281.729 503.026 281.729C511.797 281.729 513.028 282.179 513.028 285.382C513.028 288.664 511.797 288.977 499.665 288.977C492.34 288.977 486.011 288.664 485.62 288.293ZM518.439 269.129V248.989H530.277C539.654 248.989 542.857 249.75 545.768 252.642C550.339 257.31 550.417 264.324 545.768 268.973C542.174 272.646 542.174 272.646 545.768 278.526C550.495 286.379 550.339 289.426 545.299 288.664C542.779 288.293 539.81 285.539 537.602 281.261C532.719 272.177 527.972 272.177 527.21 281.261C526.761 286.769 525.842 288.215 522.561 288.664C518.517 289.27 518.517 288.977 518.517 269.129H518.439ZM537.446 266.082C541.412 264.558 541.021 258.6 536.762 256.314C530.121 252.798 527.522 254.029 527.522 260.807C527.522 267.371 530.277 268.836 537.368 266.082H537.446ZM561.259 285.011C554.832 279.444 552.859 265.398 557.274 256.842C563.31 245.101 580.794 245.023 586.889 256.764C590.698 264.167 589.409 278.897 584.447 283.859C578.567 289.739 567.432 290.266 561.259 285.011ZM578.411 278.213C581.244 272.88 580.638 260.593 577.434 257.311C571.085 250.981 563.916 256.392 563.916 267.449C563.916 277.002 566.592 281.729 572.082 281.729C574.602 281.729 577.356 280.206 578.411 278.213ZM596.286 268.973L595.739 248.989H607.948C617.794 248.989 620.997 249.75 623.908 252.642C632.679 261.432 624.885 274.482 610.937 274.482C603.904 274.482 603.904 274.482 603.904 281.729C603.904 287.668 603.299 288.977 600.388 288.977C597.106 288.977 596.813 287.375 596.286 268.973ZM617.872 264.246C619.63 259.596 615.879 255.396 610.097 255.396C605.428 255.396 604.744 256.08 604.217 261.276C603.67 267 603.904 267.234 610.155 267.234C614.59 267.234 617.11 266.238 617.872 264.246ZM640.767 286.828C634.652 283.859 630.608 273.642 631.995 264.558C633.968 251.274 645.572 244.261 656.336 249.829C663.74 253.56 665.713 257.682 665.713 269.051C665.713 284.542 653.738 293.099 640.767 286.828ZM656.18 276.299C658.778 271.278 658.016 261.042 654.656 256.998C649.303 250.591 640.239 257.526 640.239 268.074C640.239 280.421 651.061 285.988 656.18 276.299ZM672.96 269.129V248.989H684.798C702.341 248.989 708.67 256.92 700.055 267.918C696.246 272.724 696.246 272.724 700.055 279.131C704.939 287.375 704.861 288.977 699.606 288.977C696.324 288.977 694.488 287.219 692.046 281.729C687.611 272.04 682.513 271.806 681.673 281.261C681.204 286.769 680.286 288.215 677.004 288.664C672.96 289.27 672.96 288.977 672.96 269.129ZM693.12 264.324C696.324 260.436 693.179 255.552 686.85 254.79C682.435 254.243 682.044 254.791 682.044 260.749C682.044 266.316 682.65 267.234 686.4 267.234C688.764 267.234 691.733 265.925 693.12 264.324ZM719.668 287.824C718.985 287.141 718.379 279.366 718.379 270.516C718.379 254.478 718.379 254.478 712.948 254.478C709.295 254.478 707.459 253.56 707.459 251.743C707.459 249.516 710.506 248.989 723.868 248.989C737.211 248.989 740.2 249.516 740.2 251.743C740.2 253.638 738.285 254.478 733.929 254.478C727.6 254.478 727.6 254.478 727.072 271.278C726.681 284.699 725.998 288.137 723.79 288.586C722.188 288.899 720.352 288.508 719.668 287.824ZM750.573 286.222C738.363 279.366 739.281 255.162 751.94 249.36C765.224 243.343 776.593 252.583 776.593 269.364C776.515 284.249 762.86 293.099 750.573 286.222ZM765.595 278.213C770.108 269.735 766.376 254.478 759.813 254.478C755.144 254.478 751.1 260.671 751.1 267.605C751.1 277.002 753.855 281.729 759.266 281.729C761.786 281.729 764.54 280.206 765.595 278.213ZM411.231 270.731C411.231 267.449 412.227 267.078 418.928 267.527C424.573 267.918 426.8 268.973 427.25 271.278C427.796 273.935 426.488 274.482 419.553 274.482C412.364 274.482 411.231 273.935 411.231 270.731ZM702.946 217.772C692.964 211.911 685.013 206.187 685.326 205.113C686.635 200.386 717.676 150.864 719.356 150.923C720.352 150.923 723.106 152.466 725.548 154.283C729.963 157.721 729.963 157.721 715.781 180.772C707.986 193.431 701.97 204.039 702.341 204.351C702.731 204.644 708.533 208.082 715.234 211.911C721.954 215.721 727.521 219.295 727.443 219.842C727.443 220.37 725.998 222.577 724.318 224.648C721.114 228.379 721.114 228.379 702.946 217.772ZM253.584 224.941C251.591 222.441 222.21 172.763 222.21 171.923C222.21 170.087 252.275 154.127 257.315 153.306C275.326 150.396 287.535 172.978 275.619 187.18C272.962 190.305 267.688 194.427 263.8 196.42C256.924 199.917 255.244 202.964 258.311 206.402C259.151 207.321 261.593 211.13 263.8 214.88C267.844 221.601 267.844 221.601 262.433 224.414C255.791 227.774 255.869 227.774 253.584 224.941ZM257.627 187.024C265.93 182.14 268.235 177.94 265.93 171.923C263.644 166.043 256.865 164.285 250.145 167.958C239.304 173.74 239.46 173.447 244.715 182.531C247.469 187.102 249.989 190.833 250.36 190.833C250.751 190.833 254.033 189.094 257.627 187.024ZM668.838 198.627C662.431 196.029 662.06 195.502 662.509 188.704C662.978 181.534 662.978 181.534 652.292 176.943C641.607 172.45 641.607 172.451 636.567 177.256C631.839 181.827 630.999 181.984 624.885 180.011L618.321 177.784L624.123 171.161C627.327 167.489 638.012 156.041 647.936 145.746C664.58 128.419 666.318 127.051 671.202 128.184C674.191 128.81 676.867 129.864 677.238 130.548C677.629 131.251 677.395 147.426 676.789 166.571L675.715 201.362L668.838 198.627ZM664.658 157.956C665.342 151.841 665.556 146.508 665.107 146.039C664.658 145.59 660.907 149.321 656.707 154.361L649.089 163.445L655.105 166.121C658.465 167.567 661.669 168.778 662.275 168.856C662.9 169.013 663.955 164.05 664.658 157.956ZM309.278 184.973C296.15 176.26 289.059 149.556 296.385 136.35C300.272 129.181 312.716 121.777 320.725 121.777C340.26 121.777 357.803 149.712 351.552 170.771C346.59 187.024 324.007 194.662 309.278 184.973ZM336.666 173.447C342.546 167.567 338.424 149.028 328.891 138.577C323.616 132.775 314.474 133.068 309.59 139.339C305.078 145.063 304.922 149.321 308.75 160.554C314.005 176.045 327.738 182.452 336.666 173.447ZM374.134 167.645C371.633 159.479 362.003 108.571 362.843 107.731C364.679 105.992 386.734 101.949 394.899 101.871C411.758 101.871 420.158 117.655 411.153 132.384C407.031 139.183 406.191 137.268 421.155 155.67C425.726 161.394 425.726 161.394 421.682 162.449C412.754 164.812 410 163.601 401.991 153.521C395.134 144.906 393.298 143.597 389.41 144.594C383.296 146.117 383.374 145.668 385.816 157.35C387.574 165.809 387.496 167.957 385.503 169.247C381.401 171.923 375.208 171.005 374.134 167.645ZM397.185 130.548C401.073 128.497 401.463 117.733 397.713 114.607C395.974 113.162 392.301 112.849 386.656 113.689C378.178 114.998 378.178 114.998 379.408 123.379C380.17 127.97 381.088 132.463 381.616 133.224C382.612 134.826 392.145 133.224 397.185 130.548ZM582.767 168.856C579.564 167.958 574.524 164.363 571.476 160.925C562.158 150.239 561.63 137.346 569.952 119.257C575.285 107.595 586.811 100.562 597.047 102.711C612.148 105.915 622.072 115.291 622.072 126.29C622.072 130.548 621.525 131.173 618.028 130.177C615.742 129.571 612.988 129.103 611.757 129.103C610.624 129.024 609.101 126.582 608.495 123.613C606.424 114.451 593.062 111.013 586.733 118.046C578.567 127.051 575.832 148.266 582.084 154.439C589.78 162.156 600.095 161.159 602.146 152.525C603.064 148.872 602.302 147.798 597.653 146.118C593.219 144.516 592.222 143.226 592.769 139.788C593.062 137.346 593.531 135.295 593.687 135.139C593.844 134.904 599.489 136.135 606.19 137.737C619.923 141.019 619.786 140.628 615.117 157.115C612.675 165.887 611.23 168.25 607.577 169.247C601.169 171.005 589.487 170.849 582.767 168.856ZM509.277 157.115C496.989 151.919 495.251 144.437 497.829 107.516C499.06 90.8723 499.06 90.8726 505.018 90.8726C508.3 90.8726 511.504 91.6343 512.031 92.5525C512.637 93.4706 512.344 104.156 511.426 116.287C510.507 128.419 510.195 139.866 510.664 141.624C512.031 146.879 519.884 149.634 525.999 147.114C532.094 144.594 532.406 143.597 533.93 122.695C535.844 95.1507 536.059 94.5452 543.463 94.5452C549.89 94.5452 549.89 94.5452 548.581 116.815C546.979 143.598 543.854 152.388 534.399 156.881C526.526 160.632 517.911 160.69 509.277 157.115ZM450.594 152.232C450.066 148.95 448.992 136.819 448.386 125.137L447.097 103.922L437.408 104.918C429.32 105.758 427.64 105.446 427.64 103.082C427.64 101.558 427.171 99.0381 426.566 97.5925C425.491 94.7599 426.878 94.6233 465.323 91.6344C480.287 90.5014 480.287 90.5012 480.287 95.9905C480.287 101.324 479.974 101.558 470.129 102.789C459.99 104.078 459.99 104.078 460.986 109.724C461.514 112.849 462.51 125.059 463.116 136.819C464.425 158.112 464.425 158.112 457.997 158.112C452.215 158.112 451.512 157.565 450.594 152.232ZM456.63 960.336C331.176 951.564 227.094 905.462 141.316 820.7C48.7595 729.276 0.0783704 611.382 0.000230576 478.974C-0.156049 314.47 79.1364 168.934 219.007 76.7682C356.826 -14.0499 538.579 -25.1847 688.373 48.1496C846.958 125.743 950.044 282.1 957.682 456.704C958.737 481.279 958.581 483.78 955.612 486.007C952.642 488.136 952.642 488.448 955.299 489.503C957.214 490.207 958.288 492.727 958.288 496.145C958.288 500.736 957.604 501.654 953.932 501.654C949.654 501.654 946.45 505.913 948.442 509.117C948.97 510.035 950.572 510.719 952.017 510.719C955.768 510.719 958.366 516.598 956.217 520.349C955.299 522.029 954.615 524.471 954.772 525.76C955.534 531.406 954.4 534.239 950.884 535.293C947.446 536.446 947.368 536.817 949.966 539.728C956.139 546.448 951.177 552.015 939.964 550.941C937.366 550.706 934.162 551.859 932.795 553.539C930.587 556.215 930.822 557.036 934.631 560.181C937.073 562.076 940.433 563.307 942.25 562.838C946.079 561.861 952.33 570.163 949.654 572.84C947.759 574.754 941.957 572.996 941.957 570.554C941.957 568.034 933.322 568.64 932.189 571.16C930.744 574.754 925.235 566.803 926.309 562.545C926.759 560.552 928.517 545.452 930.275 528.964C932.189 510.582 934.397 497.825 935.842 496.067C939.202 492.18 938.968 485.323 935.627 485.323C933.322 485.323 932.873 482.119 932.873 467.605C932.873 407.554 915.174 336.74 885.247 277.217C829.084 165.438 725.392 78.4288 607.499 44.1058C563.994 31.4276 538.579 27.3837 492.946 26.0162C363.605 22.0506 243.035 71.4155 152.158 165.574C-8.84906 332.383 -18.304 592.003 130.103 770.631C193.826 847.404 284.019 902.492 381.245 924.157C418.4 932.479 444.264 934.764 489.292 933.788C547.214 932.479 587.28 925.153 633.519 907.689C645.26 903.176 646.021 903.098 648.248 906.165C650.983 909.896 654.812 908.294 654.812 903.254C654.812 899.054 664.502 893.643 669.307 895.167C673.8 896.613 675.48 902.18 672.96 907.005C670.596 911.342 672.042 914.546 676.086 913.862C677.629 913.549 679.231 914.175 679.602 915.171C680.364 917.456 659.462 925.993 656.942 924.469C655.945 923.864 654.656 924.626 654.109 926.071C653.503 927.595 651.609 928.826 649.772 928.826C647.936 928.826 645.65 929.509 644.654 930.427C641.841 933.084 604.432 944.532 582.084 949.494C554.539 955.608 541.099 957.132 539.419 954.378C538.442 952.776 536.977 953.01 533.695 955.139C526.526 959.808 487.222 962.465 456.63 960.336ZM614.14 927.829C615.664 924.02 613.144 921.871 611.073 925.231C608.866 928.748 608.866 930.642 611.152 930.642C612.226 930.642 613.515 929.353 614.14 927.829ZM940.12 510.719C940.12 508.746 938.909 507.143 937.366 507.143C934.631 507.143 933.713 510.953 935.842 513.16C938.206 515.466 940.12 514.391 940.12 510.719ZM948.13 475.087C951.88 473.719 950.044 470.75 945.473 470.75C943.559 470.75 941.957 471.961 941.957 473.485C941.957 476.395 943.637 476.845 948.13 475.087ZM445.71 917.906C271.36 904.7 118.89 785.752 63.4107 619.626C-1.75795 424.491 76.46 212.126 253.037 104.469C298.514 76.7683 351.317 56.9207 406.191 46.9969C432.289 42.2694 494.626 40.433 524.162 43.4805C673.429 59.128 806.97 152.837 872.823 288.137C904.098 352.387 917.304 410.387 916.991 482.568C916.776 522.244 915.858 527.44 909.451 525.076C905.172 523.475 905.172 523.475 906.462 499.349C908.689 456.782 902.574 404.956 890.287 362.389C834.514 169.403 648.327 38.2257 450.672 52.7206C373.685 58.3663 307.676 80.9486 243.269 123.691C140.339 192.064 74.9363 295.697 54.7176 422.596C51.0451 445.491 51.592 516.071 55.5576 541.564C70.8144 638.927 114.69 723.239 184.821 790.244C245.711 848.4 323.558 887.92 403.671 901.496C459.541 910.971 500.818 910.971 555.594 901.496C566.514 899.601 575.52 898.214 575.598 898.449C575.676 898.683 576.75 900.656 578.04 902.961C580.638 907.611 581.087 907.376 566.592 910.502C536.215 917.144 480.443 920.582 445.71 917.906ZM696.773 904.016C695.172 902.18 692.339 901.496 688.686 902.043C683.353 902.805 678.391 900.129 678.391 896.535C678.391 890.811 683.958 885.028 694.253 879.91C704.783 874.714 705.623 874.558 705.623 877.84C705.623 882.118 707.771 883.641 710.975 881.668C712.792 880.516 712.792 879.305 711.19 876.316C709.432 872.956 709.588 872.428 712.792 872.428C714.863 872.428 716.543 871.354 716.543 869.986C716.543 868.619 722.032 863.891 728.83 859.379C738.891 852.659 742.407 851.291 748.365 851.682C758.582 852.288 758.348 852.21 758.348 855.179C758.348 857.015 756.531 857.933 753.014 857.933C746.763 857.933 744.4 860.609 747.525 864.341C749.205 866.392 749.049 867.154 746.763 868.072C742.641 869.596 743.013 872.428 747.369 872.428C754.851 872.428 752.409 876.023 739.36 884.11C731.956 888.76 725.236 892.413 724.396 892.276C719.903 891.514 716.836 892.803 716.074 895.929C715.546 897.843 711.815 901.125 707.771 903.176C699.059 907.611 699.899 907.611 696.773 904.016ZM600.251 896.241C600.251 891.201 601.013 890.674 615.195 885.927C623.517 883.192 633.734 879.441 638.09 877.625C644.889 874.714 646.334 874.636 648.542 876.863C654.109 882.43 651.98 883.876 623.908 894.171C601.462 902.415 600.251 902.571 600.251 896.241ZM478.451 883.954C478.451 877.624 477.845 876.785 471.359 874.03C464.424 871.139 464.268 871.139 459.599 875.788C456.103 879.304 454.344 879.988 452.821 878.465C451.219 876.863 451.903 875.261 455.478 871.979C460.225 867.545 460.225 867.545 457.099 860.063C454.344 853.655 453.036 852.581 447.546 852.131C438.931 851.369 438.697 846.173 447.253 846.017C452.586 845.88 453.661 844.962 456.786 838.008C460.303 830.155 460.303 830.155 455.478 825.72C451.903 822.438 451.219 820.758 452.821 819.235C454.344 817.633 456.024 818.316 459.599 821.833C464.268 826.482 464.424 826.56 471.359 823.591C477.767 820.914 478.372 819.996 478.451 813.823C478.451 809.018 479.212 807.025 481.205 807.025C484.018 807.025 484.487 808.49 483.96 816.578C483.725 820.075 484.487 821.54 486.538 821.54C488.218 821.54 491.891 822.829 494.86 824.275C499.9 826.951 500.271 826.873 503.104 822.516C506.229 817.789 511.191 816.265 511.191 820.075C511.191 821.305 509.433 824.118 507.304 826.345C503.553 830.311 503.494 830.76 506.386 836.796C507.987 840.234 509.355 843.731 509.355 844.571C509.355 845.411 511.953 846.095 515.157 846.095C519.357 846.095 521.271 847.013 521.721 849.299C522.189 851.819 521.037 852.444 516.153 852.444C510.742 852.444 509.668 853.284 506.757 859.828C503.553 867.154 503.553 867.31 507.304 871.354C509.433 873.581 511.191 876.394 511.191 877.547C511.191 881.356 505.858 879.91 502.869 875.261C500.056 870.983 499.587 870.904 494.704 873.424C491.891 874.87 488.296 876.101 486.772 876.101C484.721 876.101 484.096 877.839 484.409 882.801C484.721 887.998 484.096 889.756 481.576 890.205C479.076 890.752 478.451 889.599 478.451 883.954ZM478.451 862.055C478.451 855.257 478.451 855.257 473.723 860.063C468.605 865.103 469.152 868.834 474.954 868.834C477.767 868.834 478.451 867.544 478.451 862.055ZM493.649 867.623C494.938 866.255 487.847 857.933 485.405 857.933C484.565 857.933 483.96 860.375 483.96 863.344C483.96 867.857 484.643 868.834 488.14 868.834C490.504 868.834 492.945 868.228 493.649 867.623ZM469.445 857.465C473.958 852.053 473.879 850.608 468.917 850.686C462.588 850.686 460.518 852.815 462.276 857.465C463.116 859.692 464.346 861.508 464.952 861.508C465.557 861.508 467.628 859.692 469.445 857.465ZM500.974 858.695C503.26 852.737 502.107 850.686 496.618 850.686C490.504 850.686 489.664 853.284 494.176 858.226C497.907 862.27 499.509 862.426 500.974 858.695ZM485.698 851.526C488.296 848.459 485.483 843.36 481.127 843.36C477.845 843.36 476.243 848.849 478.685 851.741C481.283 854.944 482.963 854.945 485.698 851.526ZM472.805 842.208C467.999 836.484 463.956 835.644 462.276 840.157C460.908 843.81 461.358 844.415 466.398 845.255C473.567 846.564 475.637 845.568 472.805 842.208ZM502.029 842.735C502.029 841.602 501.267 839.473 500.349 837.93C498.904 835.722 497.907 835.957 494.02 839.61C491.5 841.973 489.82 844.493 490.289 845.177C491.5 847.169 502.107 844.962 502.029 842.735ZM478.841 833.749C478.236 828.553 477.454 827.635 474.641 828.318C469.152 829.764 468.683 832.362 473.118 837.089C478.236 842.598 479.759 841.68 478.841 833.749ZM490.738 829.471C484.487 825.954 483.96 826.423 483.96 834.647C483.96 842.207 483.959 842.208 489.371 836.953C494.86 831.756 494.86 831.756 490.738 829.471ZM654.734 878.992C654.734 875.397 658.231 873.424 660.595 875.71C661.825 876.999 661.22 878.23 658.622 879.598C655.496 881.278 654.734 881.121 654.734 878.992ZM661.376 872.741C658.465 869.537 658.622 869.146 664.267 866.392C669.991 863.657 670.225 863.657 670.831 867.232C672.198 875.788 666.943 878.914 661.376 872.741Z" fill="#22924A"/>
</svg>
