<svg width="961" height="966" viewBox="0 0 961 966" fill="none" xmlns="http://www.w3.org/2000/svg">
<path fill-rule="evenodd" clip-rule="evenodd" d="M442.938 965.36C439.734 964.875 429.109 963.547 419.391 962.408C358.132 954.904 291.92 932.348 237.491 900.475C221.596 891.178 220.036 889.112 225.728 884.833C227.857 883.273 228.194 882.198 226.697 882.198C224.737 882.114 224.737 881.376 226.613 878.172C228.025 876.022 229.838 874.293 230.66 874.293C231.567 874.293 239.788 878.825 249.021 884.348C270.186 897.102 305.263 912.912 333.089 922.208C429.594 954.672 532.866 954.588 629.624 922.061C640.565 918.351 650.282 915.631 651.189 915.884C652.095 916.201 654.161 915.378 655.805 913.987C657.365 912.659 671.046 905.513 686.182 898.008C714.682 883.927 735.025 871.405 759.056 853.381C770.503 844.739 774.128 843.01 778.176 844.001C783.193 845.308 785.659 842.104 780.874 840.522C777.269 839.3 780.727 833.123 785.174 833.123C787.388 833.123 789.116 831.796 789.116 830.151C789.116 828.507 790.023 827.2 791.182 827.2C792.32 827.2 792.742 828.844 792.173 830.889C791.498 832.87 792.173 835.421 793.48 836.581C797.19 839.637 813.401 831.964 811.841 827.853C810.112 823.49 812.494 820.686 815.719 823.405C819.008 826.125 813.569 834.367 803.282 842.188C797.759 846.467 796.368 846.783 793.564 844.57C790.761 842.272 790.507 842.42 791.498 846.299C792.173 848.849 791.498 851.568 789.938 852.875C787.388 854.941 786.313 854.035 786.903 850.24C787.388 847.774 781.717 848.596 780.642 851.231C779.82 853.213 779.567 853.213 779.483 851.231C779.314 849.924 778.007 848.765 776.363 848.765C773.138 848.765 772.737 850.409 773.306 860.717C773.644 866.388 772.737 868.454 768.69 871.089C765.907 872.902 763.588 873.808 763.588 873.134C763.588 872.48 762.113 873.724 760.215 875.853C754.608 882.367 725.138 900.981 700.516 913.566C675.326 926.424 674.082 926.825 672.838 921.892C672.269 919.341 671.7 919.911 670.54 923.958C669.381 928.153 668.074 929.291 665.27 928.553C663.289 928.069 662.066 928.322 662.551 929.144C663.141 930.05 658.925 932.517 653.255 934.646C623.532 945.924 622.372 946.092 622.372 938.862C622.372 932.685 616.934 932.095 611.664 937.786C609.029 940.653 605.993 942.972 604.833 942.972C603.674 942.972 601.692 945.101 600.47 947.821C597.666 953.913 593.872 954.166 591.996 948.326C590.499 944.047 590.415 944.047 589.677 949.149C588.77 955.072 585.482 956.063 549.835 961.818C532.212 964.706 456.45 967.172 442.938 965.36ZM639.089 931.926C637.36 930.113 635.379 929.291 634.641 930.05C633.903 930.788 634.641 932.179 636.201 933.17C640.817 936.142 642.546 935.383 639.173 931.926H639.089ZM671.447 911.521C671.447 910.446 670.541 909.623 669.465 909.623C668.411 909.623 667.505 910.446 667.505 911.521C667.505 912.659 668.411 913.481 669.465 913.481C670.541 913.481 671.447 912.659 671.447 911.521ZM447.892 937.702C371.307 930.535 309.142 910.93 248.283 874.778C229.501 863.584 229.101 863.268 231.82 858.905C233.127 856.923 236.5 858.146 246.871 864.491C317.785 907.895 395.339 929.628 480.25 929.713C534.679 929.797 574.12 923.536 625.007 906.567C635.948 902.941 645.265 900.812 645.581 901.887C646.741 905.176 651.842 903.847 651.842 900.243C651.842 897.755 657.281 894.298 670.962 887.953C695.647 876.675 725.96 858.314 750.013 839.953C766.055 827.769 769.364 825.956 770.418 828.76C775.288 841.028 681.586 896.849 625.345 915.21C568.681 933.739 499.348 942.551 447.892 937.702ZM210.972 883.589C207.515 881.544 204.648 878.994 204.648 878.003C204.648 875.537 208.02 875.769 209.58 878.319C210.318 879.479 212.215 879.985 213.691 879.31C215.251 878.741 217.064 879.563 217.654 881.123C219.699 886.477 217.401 887.299 210.972 883.589ZM205.048 871.089C203.657 868.623 202.413 868.369 199.209 870.098C193.77 873.049 178.297 861.455 146.003 830.151C105.086 790.457 76.5011 751.691 50.973 701.372C33.5187 667.117 19.121 627.992 22.4095 623.966C23.6532 622.575 24.0537 619.856 23.4002 618.127C22.6624 616.145 23.5691 613.848 25.6139 612.267C28.9234 609.716 28.9234 609.631 25.6139 609.547C23.6534 609.547 21.5875 610.791 21.0183 612.435C18.5309 618.696 16.486 614.67 11.7851 594.327C2.80499 556.024 0.0012036 529.59 0.0012036 483.003C-0.146358 402.224 13.2608 343.178 47.6847 273.108C66.2142 235.311 67.6896 233.077 72.0532 236.702C74.2034 238.515 75.9321 238.684 77.6607 237.271C78.9887 236.217 82.4457 235.311 85.3126 235.374C90.4983 235.374 90.4983 235.374 84.9964 244.438C74.7725 260.986 51.964 310.061 44.7335 330.994C14.1673 419.763 11.0474 520.8 36.2382 607.987C41.192 625.21 41.9298 629.658 39.8639 632.04C37.8824 634.506 37.9668 634.991 40.6018 634.991C44.9654 634.991 44.6491 637.479 39.8639 640.43C34.1934 643.971 35.0999 646.775 42.0142 646.775C47.5161 646.775 48.4224 647.766 53.2076 659.043C84.1744 732.339 134.24 799.606 190.397 843.579C196.068 848.027 200.684 853.213 200.684 855.026C200.684 859.052 203.973 861.54 205.048 858.23C205.955 855.595 218.392 863.352 218.392 866.472C218.392 868.285 210.571 874.293 208.168 874.293C207.43 874.293 205.955 872.902 205.048 871.089ZM66.467 252.997C63.0941 249.708 63.0943 249.793 65.3077 254.157C66.6358 256.708 68.1957 258.183 68.8492 257.529C69.5027 256.876 68.4485 254.81 66.467 252.997ZM198.787 864.322C198.787 863.353 197.396 862.509 195.836 862.509C192.78 862.509 191.873 864.828 194.108 867.042C195.667 868.623 198.787 866.81 198.787 864.322ZM33.0339 625.21C32.3804 624.135 30.8838 623.228 29.8298 623.228C28.7547 623.228 28.4172 624.135 29.0707 625.21C29.7453 626.264 31.2209 627.17 32.296 627.17C33.3711 627.17 33.6873 626.264 33.0339 625.21ZM220.69 872.227C221.196 870.752 222.671 869.276 224.147 868.77C225.559 868.285 226.297 869.023 225.791 870.499C225.39 871.911 223.831 873.471 222.418 873.893C220.943 874.377 220.205 873.64 220.69 872.227ZM213.944 852.054C203.741 843.748 208.168 838.646 219.13 846.13C225.053 850.093 225.959 851.569 224.062 853.866C221.111 857.492 220.373 857.324 213.944 852.054ZM186.94 830.404C112.654 766.341 62.1035 684.087 39.8639 590.87C22.8312 519.64 22.8942 444.131 40.201 374.124C82.3614 203.606 219.783 71.0961 389.921 37.0095C422.364 30.5168 443.022 28.5358 481.156 28.5358C555.105 28.4514 619.737 43.7763 683.968 76.5348C709.813 89.7099 745.965 112.941 765.57 128.919C782.455 142.748 818.523 178.31 817.448 180.123C816.942 180.882 817.849 184.486 819.43 188.112C821.812 193.719 823.709 193.066 822.549 186.974C821.896 183.433 829.063 191 840.004 205.419C856.151 226.731 862.243 236.365 860.831 238.6C858.702 242.057 853.832 238.599 853.832 233.645C853.832 230.61 852.863 229.05 851.113 229.45C849.637 229.703 841.985 221.714 834.165 211.596C758.571 113.931 647.479 51.007 528.418 38.5908C497.451 35.3655 431.828 37.431 404.656 42.4481C299.74 61.7997 211.878 111.865 144.19 190.747C84.4908 260.417 48.3382 342.841 37.7349 433.591C33.9405 465.949 36.3225 532.478 42.499 564.436C60.3749 657.821 102.282 736.787 168.643 802.157C179.267 812.613 192.611 824.881 198.387 829.329C205.048 834.599 208.337 838.562 207.683 840.375C207.03 841.935 206.524 843.579 206.524 844.064C206.524 846.551 202.013 843.326 186.94 830.404ZM793.817 827.031C793.142 825.872 793.48 823.891 794.723 822.752C796.283 821.108 796.853 821.677 796.853 824.881C796.853 829.582 795.862 830.32 793.817 827.031ZM816.71 812.697C815.382 811.137 812.579 810.399 810.028 811.053C806.908 811.79 809.29 808.418 818.608 798.615C843.061 772.771 868.167 738.431 884.314 708.624C892.957 692.561 893.948 691.402 895.339 695.849C896.667 699.981 896.752 699.728 895.993 694.543C895.423 690.179 897.658 682.843 903.898 669.099C908.683 658.39 912.625 648.672 912.625 647.344C912.625 646.037 913.7 644.308 915.028 643.486C916.419 642.58 917.663 640.113 917.895 637.963C918.064 635.834 921.69 620.593 926.053 604.13C938.238 557.268 940.957 535.282 940.957 483.003C940.957 405.744 928.372 349.439 895.424 279.431C887.118 261.808 885.052 255.801 886.781 254.072C888.509 252.343 889.079 252.765 889.079 256.054C889.079 258.605 890.322 260.418 892.051 260.418C893.864 260.418 894.939 258.52 894.939 255.4C894.939 252.512 895.845 250.868 896.899 251.606C897.974 252.26 898.881 251.437 898.881 249.708C898.881 246.083 895.761 245.683 894.433 249.14C893.864 250.447 890.723 251.521 887.35 251.353C881.848 251.184 879.951 249.14 865.785 227.891C857.226 215.053 843.967 197.092 836.294 188.112C824.615 174.368 822.381 170.574 822.381 164.566C822.297 160.624 821.812 153.857 821.158 149.578C819.915 141.757 819.914 141.757 833.005 154.447C840.173 161.53 846.602 169.183 847.171 171.649C847.825 174.031 849.321 176.013 850.628 176.013C853.095 176.013 874.259 203.353 885.537 221.145C922.765 279.685 945.405 339.636 957.104 410.445C959.908 427.33 960.646 443.056 960.646 483.003C960.646 539.392 958.496 559.081 947.639 602.232C940.704 629.658 939.144 633.347 935.117 631.787C933.558 631.133 932.23 631.534 932.23 632.609C932.23 633.684 933.473 635.075 935.033 635.666C942.032 638.385 907.861 711.997 881.679 750.531C866.523 772.855 866.523 772.855 856.72 773.677C845.021 774.647 841.079 777.282 850.966 777.619C860.431 777.872 861.084 779.095 855.73 786.515C848.331 796.634 833.511 813.519 832.015 813.519C831.277 813.519 830.117 811.537 829.464 809.071C828.157 804.708 828.157 804.707 825.184 810.062C821.896 816.07 819.999 816.744 816.71 812.697ZM837.2 166.379C836.463 165.22 834.987 164.313 833.827 164.313C832.52 164.313 832.668 165.388 834.249 167.285C836.884 170.49 839.351 169.752 837.2 166.379ZM830.202 156.323C830.202 155.354 829.379 154.447 828.304 154.447C827.166 154.447 826.344 155.839 826.344 157.568C826.344 159.212 827.166 160.034 828.304 159.38C829.379 158.727 830.202 157.314 830.202 156.323ZM465.662 800.26C465.43 788.729 465.177 787.991 460.729 787.991C455.944 787.991 453.647 793.514 453.647 804.876C453.647 807.511 452.74 809.577 451.581 809.577C450.274 809.577 450.021 805.53 450.843 797.793C452.171 786.178 452.087 786.03 447.301 786.03C442.2 786.03 439.902 791.3 439.902 802.979C439.902 805.53 438.996 807.595 437.836 807.595C436.529 807.595 436.276 803.569 437.099 795.812C438.405 784.218 438.406 784.049 433.473 784.049C429.109 784.049 428.287 785.124 427.128 792.439C424.83 806.436 422.111 807.848 423.502 794.336C424.746 782.32 424.661 782.152 419.876 782.152C415.597 782.152 414.775 783.395 412.645 792.945C411.317 798.868 409.42 803.717 408.366 803.717C406.132 803.717 406.047 804.792 409.42 792.038C412.73 779.77 412.962 780.824 406.469 779.179C401.684 778.041 401.283 778.526 398.733 788.813C397.32 794.842 395.423 799.775 394.517 799.775C392.219 799.775 392.387 797.962 395.76 786.937C398.965 776.144 399.049 776.46 392.957 775.807C389.099 775.322 387.855 776.713 385.22 784.449C382.079 793.514 379.128 798.362 379.128 794.42C379.128 793.345 380.435 788.665 382.079 784.049C385.958 773.087 385.958 773.003 379.297 770.705C373.605 768.724 373.437 768.892 369.073 779.348C366.691 785.187 363.887 789.972 362.812 789.972C361.842 789.972 361.505 788.813 361.99 787.506C362.58 786.178 364.541 781.245 366.438 776.544C369.326 769.314 369.494 767.733 367.176 766.257C362.074 763.053 360.346 764.36 354.907 775.49C347.908 789.804 346.032 787.991 352.609 773.172C356.488 764.36 357.057 761.472 355.16 760.249C350.059 757.045 347.592 758.837 342.491 769.23C339.603 775.153 336.462 779.517 335.64 778.948C334.733 778.442 336.23 773.825 338.949 768.808C344.704 757.867 344.957 755.464 340.425 753.736C336.715 752.344 333.595 755.464 327.735 766.173C325.858 769.546 323.455 772.265 322.38 772.265C321.326 772.265 323.371 767.248 326.997 761.071C333.005 750.932 333.258 749.625 330.37 747.412C325.605 743.786 325.1 744.018 318.354 754.642C314.813 760.081 311.187 764.444 310.112 764.444C308.067 764.444 308.72 763.137 316.625 751.438C322.233 743.195 322.064 742.289 314.981 738.263C313.569 737.441 309.711 741.151 305.01 747.728C300.731 753.567 296.705 757.952 296.03 757.277C295.376 756.624 297.927 751.838 301.722 746.737C309.374 736.197 309.88 734.068 305.095 731.433C302.291 729.789 299.424 732.655 287.472 748.803C279.651 759.511 273.221 769.461 273.221 771.127C273.221 780.676 258.739 771.274 228.363 741.973C175.662 691.17 141.639 629.805 127.157 559.566C83.9213 349.924 229.185 150.569 442.284 127.191C565.709 113.594 689.07 166.042 766.223 264.866C865.363 391.916 867.345 569.2 771.008 700.297C751.066 727.301 692.611 782.152 683.631 782.152C679.689 782.152 679.352 776.313 683.146 773.677C686.772 771.19 686.266 770.052 672.775 751.185C665.017 740.244 658.103 731.264 657.534 731.18C656.965 731.18 654.983 732.255 653.086 733.562C650.029 735.796 650.367 736.872 656.796 746.421C660.654 752.176 663.458 757.783 663.141 758.921C662.72 759.997 659.094 756.054 655.152 749.962C647.479 738.431 646.657 737.925 642.061 740.813C639.742 742.289 640.311 744.355 645.581 752.829C649.06 758.437 651.61 763.959 651.273 765.013C650.851 766.173 647.647 762.315 644.106 756.455C640.48 750.616 637.276 745.514 637.023 745.177C636.707 744.84 634.557 745.514 632.343 746.737C628.296 748.887 628.296 748.887 632.828 756.202C640.248 768.07 642.209 772.265 640.164 772.265C639.173 772.265 635.547 767.501 632.174 761.556C626.736 752.091 625.492 751.016 622.204 752.745C618.493 754.726 618.493 754.979 622.773 763.053C629.118 774.9 630.277 778.188 628.296 778.188C627.305 778.188 624.101 773.34 621.044 767.417C615.289 755.886 615.036 755.717 610.589 758.521C608.122 760.081 608.459 761.894 613.076 771.274C618.915 783.227 619.4 784.955 616.449 783.142C615.374 782.404 612.654 777.535 610.357 772.181C607.637 766.004 604.918 762.463 602.768 762.463C597.097 762.463 596.929 764.529 601.861 775.722C607.216 787.822 607.215 787.991 605.002 787.991C604.18 787.991 601.461 783.142 598.994 777.219C594.778 767.164 590.752 763.875 588.117 768.239C587.463 769.229 588.77 774.584 590.92 780.086C595.368 791.448 595.516 791.954 593.218 791.954C592.312 791.954 589.93 787.084 587.948 781.161C584.154 770.136 583.585 769.546 578.483 771.443C575.933 772.434 576.017 773.994 579.305 783.543C583.669 796.149 583.585 795.812 581.519 795.812C580.612 795.812 578.399 790.963 576.502 785.04C574.52 778.779 571.97 774.247 570.325 774.247C565.793 774.247 565.392 777.282 568.344 787.253C571.738 798.362 571.885 799.775 569.672 799.775C568.765 799.775 566.615 794.589 564.802 788.159C562.02 778.189 561.029 776.713 557.656 777.619C555.422 778.189 553.693 778.863 553.693 779.095C553.693 779.348 554.515 782.152 555.506 785.272C558.794 795.812 559.616 801.756 557.803 801.756C556.749 801.756 554.937 796.887 553.693 790.963C552.217 783.796 550.489 780.17 548.592 780.17C544.312 780.17 543.321 784.787 545.451 794.842C546.441 799.69 546.61 804.223 545.788 804.707C544.882 805.213 543.722 803.063 543.069 799.775C542.415 796.57 541.424 791.216 540.771 787.907C539.949 783.627 538.621 782.067 536.323 782.552C533.688 783.142 533.182 785.44 533.519 795.896C534.025 809.24 531.875 806.942 529.24 791.3C528.249 785.693 527.174 783.965 524.624 784.534C521.904 785.124 521.419 787.253 521.82 797.477C522.41 812.381 519.354 811.959 517.541 796.887C516.402 787.759 515.496 786.03 512.186 786.03C508.56 786.03 508.329 787.084 508.898 797.793C509.235 804.307 509.066 809.577 508.413 809.577C506.916 809.577 504.703 799.269 504.703 792.692C504.703 789.066 503.628 787.991 499.918 787.991C495.322 787.991 495.238 788.412 496.292 798.784C497.05 806.204 496.713 809.577 495.153 809.577C493.741 809.577 492.919 805.53 492.919 798.784C492.919 788.581 492.687 787.991 487.986 787.991C483.369 787.991 483.116 788.581 483.116 798.7C483.116 804.539 482.21 809.893 481.156 810.568C479.912 811.306 479.175 807.258 479.175 799.859C479.175 788.581 478.922 787.991 474.389 787.991C470.194 787.991 469.457 789.066 468.382 797.308C466.4 812.613 465.915 813.119 465.662 800.26ZM535.501 774.078C649.46 752.176 739.789 663.913 763.588 551.176C768.774 526.47 770.756 479.462 767.636 455.578C758.824 388.964 731.23 332.301 685.044 286.03C570.979 171.818 391.144 171.733 277.016 285.777C235.931 326.862 209.496 375.283 197.797 431.04C194.255 447.989 190.714 485.701 191.789 495.757C192.295 499.551 193.032 510.407 193.686 519.956C194.255 529.527 196.489 545 198.534 554.296C232.052 706.305 381.426 803.717 535.501 774.078ZM483.053 738.916V723.359L472.914 727.807C464.756 731.348 462.289 733.562 460.561 738.916C457.272 748.634 454.3 748.297 453.162 737.926C452.487 732.339 450.442 727.153 447.639 724.181C441.947 718.005 444.097 715.855 452.086 719.649C457.841 722.368 459.085 722.284 467.728 718.658C472.914 716.445 477.193 714.042 477.193 713.388C477.193 712.65 472.745 708.371 467.306 703.839C461.973 699.222 458.01 694.711 458.664 693.72C460.16 691.233 468.803 691.401 470.363 693.868C471.017 694.943 473.652 695.849 476.287 695.849C478.922 695.849 481.156 696.671 481.156 697.831C481.156 698.906 484.107 701.204 487.818 703.017C493.994 705.989 495.069 705.989 502.553 702.932C523.886 694.458 527.006 703.754 506.347 714.379C498.358 718.49 492.75 730.526 497.367 733.562C499.18 734.721 498.863 735.796 496.292 737.757C494.415 739.253 491.928 743.111 490.79 746.421C489.63 749.709 487.417 752.829 485.836 753.504C483.622 754.326 483.053 751.691 483.053 738.916ZM337.958 560.472C337.958 509.5 338.359 501.595 340.825 501.595C342.976 501.595 343.798 499.466 343.798 493.775C343.798 488.02 343.06 485.954 340.762 485.954C338.528 485.954 337.874 484.394 338.275 480.515C338.865 475.583 339.772 475.098 350.712 473.517C357.142 472.695 389.099 467.594 421.689 462.324L480.903 452.605L540.349 462.324C573.045 467.678 605.087 472.694 611.495 473.601C622.457 475.098 623.363 475.583 623.932 480.515C624.438 484.879 623.764 485.954 620.475 485.954C614.636 485.954 614.552 500.773 620.391 502.586C624.269 503.83 624.354 505.222 623.764 561.147L623.279 618.359L337.874 619.35V560.472H337.958ZM359.524 491.814C359.524 489.917 358.216 487.282 356.635 485.954C352.441 482.497 347.908 492.215 351.619 496.663C354.675 500.373 359.524 497.316 359.524 491.814ZM596.844 491.14C596.844 482.581 596.844 482.581 583.247 480.368C563.158 477.058 563.495 476.974 563.495 485.954C563.495 490.233 563.748 493.86 563.98 493.944C564.233 494.028 571.485 495.188 580.128 496.579C588.77 497.97 596.022 499.214 596.359 499.382C596.591 499.551 596.844 495.841 596.844 491.14ZM610.103 488.589C607.953 483.909 607.806 483.909 604.18 487.598C600.955 490.823 600.786 491.878 602.936 495.419C605.318 499.129 605.824 499.213 608.86 496.494C611.664 493.943 611.832 492.552 610.103 488.589ZM394.2 494.365C395.676 493.775 396.751 490.233 396.751 485.701C396.751 476.974 396.751 476.974 377.8 480.284C365.384 482.413 365.384 482.412 365.384 490.318C365.384 498.138 365.384 498.139 378.475 496.747C385.705 496.01 392.704 494.934 394.2 494.365ZM412.477 483.972C412.477 482.096 411.233 479.525 409.673 478.218C407.46 476.321 406.469 476.742 404.656 479.947C401.684 485.554 405.563 493.206 409.673 489.749C411.233 488.505 412.477 485.87 412.477 483.972ZM541.34 474.929C540.855 474.423 534.847 473.201 527.912 472.042C521.082 470.966 513.915 469.659 512.039 469.069C509.066 468.162 508.56 469.406 508.56 476.89C508.56 486.776 507.506 486.123 531.137 489.495C540.939 490.908 540.939 490.908 541.509 483.319C541.93 479.124 541.762 475.33 541.34 474.929ZM557.572 483.972C557.572 482.096 556.328 479.462 554.684 478.134C550.489 474.677 546.041 484.394 549.751 488.842C552.702 492.468 557.656 489.495 557.656 483.972H557.572ZM448.629 486.692C450.758 485.87 451.665 482.919 451.665 476.827C451.665 469.406 451.18 468.162 448.292 469.069C446.395 469.575 441.293 470.566 437.014 471.304C417.494 474.255 418.316 473.77 418.316 482.497C418.316 490.402 418.316 490.402 431.913 489.179C439.396 488.505 446.901 487.366 448.629 486.692ZM467.391 476.152C467.391 474.254 466.084 471.62 464.524 470.313C460.308 466.771 455.797 476.489 459.486 481.022C462.542 484.647 467.391 481.675 467.391 476.152ZM488.977 474.845C488.977 468.331 488.155 466.35 485.014 465.38C477.109 462.829 473.251 465.949 473.251 474.845C473.251 483.066 473.251 483.066 481.156 483.066C488.977 483.066 488.977 483.066 488.977 474.845ZM502.553 479.209C504.871 476.489 502.468 468.247 499.433 468.247C496.292 468.247 493.34 475.33 495.069 478.555C497.367 482.75 499.517 482.919 502.553 479.209ZM257.011 512.304C259.983 501.933 259.899 501.364 256.357 498.813C254.292 497.401 250.413 494.365 247.693 492.13C242.845 488.02 242.845 488.02 253.954 487.936C265.169 487.936 265.169 487.935 268.541 477.142C270.439 471.219 272.568 466.349 273.221 466.349C273.98 466.349 275.709 470.06 277.016 474.677C280.557 486.545 282.202 487.936 293.564 487.936C303.619 488.02 303.619 488.02 298.665 492.13C296.03 494.365 292.088 497.401 290.022 498.876C286.397 501.364 286.397 502.018 289.284 512.389C290.929 518.313 291.919 523.182 291.434 523.182C290.929 523.182 286.65 520.547 281.885 517.174L273.074 511.145L264.916 517.174C260.383 520.547 256.104 523.182 255.282 523.182C254.544 523.182 255.282 518.312 257.011 512.304ZM672.775 512.304C675.726 501.933 675.726 501.364 672.185 498.813C670.14 497.401 666.177 494.365 663.542 492.13C658.609 488.02 658.609 488.02 669.803 487.936C680.996 487.936 680.996 487.935 684.369 477.227C686.182 471.303 688.416 466.94 689.238 467.424C689.976 467.93 692.126 472.779 693.918 478.134C697.228 487.936 697.228 487.936 708.337 487.936C719.446 488.02 719.446 488.02 714.514 492.13C711.794 494.365 707.937 497.401 705.786 498.876C702.245 501.364 702.161 502.27 704.543 511.482C705.955 517.005 706.693 521.854 706.271 522.36C705.786 522.76 701.676 520.378 697.143 517.09L688.817 510.913L680.258 517.09C675.557 520.463 671.278 523.182 670.709 523.182C670.14 523.182 671.11 518.312 672.775 512.304ZM337.958 430.218C337.958 410.614 338.528 405.175 340.994 402.709C342.723 401.065 344.451 399.652 344.957 399.652C345.442 399.652 361.906 396.047 381.595 391.684C401.283 387.299 421.373 382.935 426.221 381.966C431.091 380.975 445.172 378.003 457.525 375.368L479.997 370.603L548.676 385.086C605.656 397.102 618.009 400.327 620.897 403.784C623.679 407.241 624.269 411.92 624.269 431.356C624.269 454.924 624.269 454.924 618.915 453.765C615.943 453.111 583.669 447.251 547.116 440.758L480.735 428.975L413.784 440.843C376.893 447.335 344.788 453.111 342.322 453.681C337.958 454.671 337.958 454.503 337.958 430.218ZM470.363 321.107C453.478 316.09 441.04 297.877 441.04 278.041C441.04 245.261 470.7 223.612 501.245 234.067C511.954 237.693 519.037 244.038 509.404 241.403C471.607 230.863 444.35 278.209 473.251 304.222C480.25 310.567 491.528 315.416 498.779 315.184C500.424 315.184 505.272 313.94 509.551 312.38C517.372 309.661 517.372 309.661 511.533 314.425C501.562 322.583 484.613 325.302 470.363 321.107ZM499.348 289.234C500.423 282.235 500.086 281.582 493.657 278.525L486.743 275.237L494.247 273.171C500.992 271.295 501.815 270.304 502.721 263.305L503.796 255.485L507.338 262.062C510.626 268.238 511.448 268.66 518.531 267.669C527.511 266.51 528.08 267.837 521.419 273.993C516.887 278.293 516.803 278.947 519.438 284.133C523.401 291.701 523.148 291.953 515.896 288.918C509.888 286.346 509.235 286.43 503.88 291.469C498.273 296.654 498.273 296.654 499.348 289.234ZM733.612 706.305C726.867 700.297 718.224 692.814 714.261 689.757C707.262 684.171 707.178 684.171 703.636 688.029C700.179 691.823 700.517 692.308 718.624 709.446C737.07 726.985 737.069 726.985 741.433 722.115C745.881 717.183 745.881 717.183 733.612 706.305ZM238.65 704.007C249.19 693.72 254.945 686.722 254.291 684.909C253.638 683.328 252.394 682.105 251.488 682.105C249.359 682.105 214.344 713.304 214.344 715.201C214.344 717.267 218.877 721.462 220.521 720.808C221.343 720.555 229.501 712.988 238.65 704.007ZM752.795 709.531C754.692 707.38 755.936 705.251 755.515 704.83C751.741 701.035 717.317 674.2 716.326 674.2C714.176 674.2 710.15 679.786 710.888 681.768C711.71 683.834 746.387 713.388 748.031 713.472C748.685 713.472 750.835 711.66 752.795 709.531ZM230.829 694.943C246.049 681.452 248.937 677.995 246.639 676.182C243.098 673.125 243.498 672.872 222.84 689.842C207.43 702.532 205.385 704.998 207.283 707.949C208.421 709.931 210.065 711.491 210.803 711.491C211.562 711.491 220.605 704.092 230.829 694.943ZM221.512 686.722C242.676 669.499 242.676 669.499 239.219 666.611C237.153 664.967 231.967 667.939 216.747 679.301C198.787 692.73 197.059 694.542 199.209 697.915C200.516 699.981 201.928 701.71 202.329 701.71C202.75 701.71 211.393 694.943 221.512 686.722ZM762.598 697.747C766.877 693.046 767.868 694.205 743.921 676.414C725.307 662.669 725.307 662.669 721.681 666.864C718.224 671.059 718.224 671.228 723.662 675.106C726.698 677.32 735.341 684.171 742.93 690.326C750.498 696.503 757.159 701.541 757.833 701.625C758.487 701.71 760.637 699.897 762.598 697.747ZM215.42 675.929C232.726 662.922 236.5 658.39 232.305 655.755C231.314 655.186 224.062 659.212 216.073 664.735C189.407 683.265 188.416 684.087 190.967 687.122C194.508 691.402 195.499 690.917 215.42 675.929ZM771.746 684.572C774.95 679.133 774.95 679.133 753.701 665.051C732.621 650.97 730.071 650.316 727.942 657.968C727.351 659.866 764.158 689.441 767.551 689.842C768.121 689.926 770.018 687.544 771.746 684.572ZM209.58 665.304C219.783 658.221 228.11 651.792 228.11 651.054C227.857 644.224 223.746 645.531 202.982 658.643C182.893 671.396 181.333 672.788 183.567 676.329C186.519 681.199 187.172 680.861 209.58 665.304ZM783.108 666.696C783.024 665.389 741.517 640.936 739.388 640.936C738.714 640.936 737.238 642.58 736.163 644.709C734.35 648.018 736.416 649.979 755.198 662.332C776.278 676.182 776.278 676.182 779.736 672.05C781.633 669.752 783.108 667.37 783.108 666.696ZM199.441 657.231C221.765 643.402 223.093 642.158 220.858 638.132C219.383 635.497 215.925 636.888 197.143 647.934C177.538 659.465 175.409 661.278 177.222 664.566C178.297 666.695 179.773 668.361 180.426 668.361C180.996 668.361 189.659 663.323 199.441 657.231ZM788.716 658.306C792.004 653.12 792.405 653.52 766.729 639.945C745.649 628.751 742.107 628.161 742.023 636.066C742.023 637.795 782.034 662.248 785.174 662.416C785.659 662.416 787.304 660.603 788.716 658.306ZM196.806 644.14C215.504 633.262 217.886 631.302 215.757 628.498C213.607 625.61 211.056 626.517 190.397 637.057C168.98 648.019 167.504 649.157 169.718 652.698C171.046 654.849 172.859 656.577 173.765 656.577C174.672 656.577 184.959 650.97 196.806 644.14ZM796.853 641.842C796.853 640.683 786.566 634.675 773.875 628.414C751.067 617.305 750.835 617.305 748.853 621.584C747.609 624.387 747.609 626.2 748.853 626.685C749.928 627.086 760.047 632.525 771.409 638.785C789.454 648.672 792.257 649.747 794.471 647.112C795.778 645.468 796.853 643.065 796.853 641.842ZM189.807 633.6C202.244 627.423 212.384 621.9 212.384 621.331C212.384 620.762 211.562 619.033 210.571 617.452C209.011 615.07 204.88 616.314 185.528 625.21C172.859 630.965 162.065 635.982 161.728 636.15C160.906 636.804 165.186 644.793 166.345 644.793C166.851 644.793 177.391 639.776 189.807 633.6ZM802.291 631.618C804.02 626.264 803.936 626.2 780.389 616.145C759.309 607.165 756.421 606.343 754.207 609.147C752.879 610.791 751.826 612.688 751.826 613.342C751.826 614.332 796.368 636.403 799.172 636.804C799.91 636.888 801.301 634.591 802.291 631.618ZM183.715 622.322C204.711 612.435 210.065 607.987 204.88 604.783C203.973 604.214 192.527 608.24 179.52 613.763C156.374 623.481 155.889 623.797 157.955 628.33C159.093 630.965 160.253 633.031 160.506 633.031C160.737 633.031 171.215 628.245 183.715 622.322ZM807.899 618.296C808.552 615.492 808.805 612.941 808.384 612.519C807.983 612.119 797.021 607.819 784.099 602.97C761.691 594.58 760.468 594.327 758.824 597.953C757.833 599.998 757.412 602.064 757.918 602.548C758.972 603.708 803.282 622.891 805.179 623.144C806.001 623.144 807.161 620.994 807.899 618.296ZM179.352 610.137C205.786 599.26 203.657 600.588 201.422 595.971C199.694 592.346 198.619 592.515 176.485 600.588C163.794 605.268 152.833 609.547 152.263 610.137C150.872 611.613 153.507 619.265 155.404 619.265C156.311 619.265 167.083 615.154 179.352 610.137ZM814.56 600.504C814.56 598.269 766.139 580.646 764.663 582.29C764.242 582.712 763.42 584.926 762.766 587.245C761.607 590.955 763.019 591.945 776.763 596.878C785.09 599.85 795.946 603.876 800.816 605.774C808.889 608.894 809.859 608.894 812.094 606.006C813.401 604.277 814.56 601.811 814.56 600.504ZM198.618 586.991C198.534 579.74 195.414 579.74 171.952 586.991C159.178 590.954 147.984 594.897 147.078 595.634C146.256 596.457 146.424 599.344 147.499 602.064C149.375 607.081 149.375 607.081 173.997 598.037C187.594 593.084 198.618 588.066 198.618 586.991ZM817.195 592.346C817.701 591.524 818.671 587.729 819.43 583.956C820.737 577.021 820.737 577.021 797.527 571.434C784.753 568.294 773.222 565.342 771.915 564.836C769.765 564.098 767.214 570.781 766.961 577.611C766.877 579.002 808.721 593.252 813.907 593.674C815.213 593.737 816.71 593.168 817.195 592.346ZM170.224 584.272C193.348 576.957 196.89 574.554 193.032 568.631C191.62 566.417 186.856 567.155 166.598 572.341C140.901 578.918 139.594 579.908 142.967 588.72C144.527 592.767 142.883 592.999 170.224 584.272ZM162.066 570.19C187.762 563.782 190.798 562.454 190.798 558.512C190.798 552.336 187.762 552.251 161.644 557.69C136.369 563.023 136.369 563.023 138.098 569.115C139.088 572.425 139.826 575.461 139.826 575.882C139.826 576.283 141.238 576.051 142.967 575.376C144.611 574.723 153.254 572.425 162.066 570.19ZM823.54 569.2C824.278 566.48 824.447 563.846 824.025 563.445C823.034 562.37 777.838 552.652 774.213 552.652C772.568 552.652 771.409 554.549 771.409 557.099C771.409 561.21 773.475 562.117 795.461 567.724C808.636 571.013 820.083 573.901 820.905 573.985C821.643 574.154 822.887 571.919 823.624 569.2H823.54ZM181.586 549.785C188.163 548.626 188.901 547.972 187.762 544.178C187.024 541.796 186.202 539.561 185.865 539.245C185.528 538.908 173.765 540.552 159.599 543.018C138.266 546.728 133.987 548.035 133.987 550.839C133.987 559.988 134.978 560.241 155.151 555.54C165.607 553.158 177.538 550.523 181.586 549.785ZM827.82 547.635C826.26 546.075 777.101 538.823 775.288 539.898C774.213 540.552 773.391 542.765 773.391 544.831C773.391 549.026 772.315 548.625 803.767 555.118C825.353 559.482 825.353 559.482 826.913 553.896C827.82 550.755 828.241 547.972 827.82 547.635ZM180.173 536.019C186.202 534.944 186.203 534.945 184.39 519.725C181.986 499.129 184.137 455.662 188.753 432.769C200.685 372.48 229.248 320.032 273.811 276.628C317.194 234.468 369.41 207.232 428.118 196.271C456.366 191.001 510.542 191.57 537.967 197.43C657.365 222.789 748.853 313.856 772.147 430.366C774.95 444.215 779.23 482.329 779.23 493.206C779.23 497.232 780.305 497.569 793.48 498.223L807.646 498.876L792.489 499.298C777.839 499.635 777.269 499.782 777.269 504.399C777.269 509.753 780.642 510.407 815.066 512.136C832.183 512.958 832.183 512.958 832.183 506.465C832.183 500.205 831.846 499.867 823.878 499.129C815.551 498.391 815.551 498.391 824.847 498.054C834.164 497.738 834.165 497.738 834.165 488.42C834.08 453.259 826.66 408.316 815.467 374.377C785.322 283.057 711.71 202.447 622.773 163.322C473.167 97.4465 295.461 144.055 198.471 274.583C148.406 342.019 126.25 412.827 128.548 498.223C129.202 519.134 128.801 534.944 127.81 534.944C124.922 534.944 125.913 540.552 129.202 542.365C131.921 543.925 146.255 542.111 180.173 536.019ZM169.886 402.055C161.981 400.811 155.552 392.737 155.552 384.094C155.552 376.442 158.861 366.303 161.328 366.303C165.438 366.303 166.851 371.004 164.047 375.368C157.786 384.833 166.429 395.879 177.791 392.991C180.511 392.337 183.314 389.934 184.052 387.636C185.781 382.113 181.164 379.078 177.876 383.61C174.334 388.29 170.624 384.095 172.268 377.349C174.081 370.182 175.662 369.697 184.79 373.302C191.873 376.19 192.779 377.265 192.779 383.02C192.779 394.803 181.902 403.868 169.886 402.055ZM768.605 382.619C767.952 381.059 767.467 379.331 767.467 378.909C767.467 378.509 772.062 375.452 777.754 372.248L788.041 366.303L776.11 367.547C757.096 369.444 757.159 365.481 776.363 351.168C782.202 346.804 782.202 346.804 769.849 351.168C759.14 354.941 757.243 355.11 755.683 352.559C753.47 349.018 755.283 347.942 773.812 341.618C790.508 335.927 788.463 336.011 791.182 341.113C793.227 344.907 792.489 346.214 783.846 353.634L774.297 361.939L785.743 359.979C797.527 357.913 799.994 358.736 801.132 364.828C802.038 369.761 770.271 387.067 768.605 382.619ZM748.031 337.993C746.134 335.758 747.378 334.03 754.777 329.012C759.731 325.555 763.419 322.414 763.019 322.014C762.597 321.508 757.918 322.498 752.732 324.058C745.565 326.209 742.508 326.377 740.526 324.733C738.397 322.92 739.388 320.938 745.796 314.425C756.337 303.653 755.767 302.409 743.667 309.577C735.762 314.278 733.212 315.015 731.884 312.949C730.977 311.558 730.239 309.913 730.239 309.323C730.239 308.016 761.607 291.047 762.281 292.038C762.513 292.438 763.926 294.335 765.401 296.232C767.783 299.373 767.298 300.596 760.553 307.51C756.421 311.726 753.47 315.668 753.955 316.153C754.524 316.659 759.309 315.837 764.579 314.193C773.559 311.474 774.55 311.558 776.763 314.677C780.558 319.779 780.22 320.117 765.57 330.825C750.013 342.103 751.067 341.682 748.031 337.993ZM214.597 300.512C199.378 288.58 199.441 288.981 209.412 277.134C213.206 272.518 214.766 271.78 216.663 273.677C218.56 275.574 218.139 277.303 214.766 281.835C210.74 287.252 210.74 287.758 213.86 289.571C216.579 291.131 218.223 290.393 221.596 286.283C224.885 282.151 226.381 281.498 228.194 283.311C230.091 285.124 229.754 286.767 226.697 290.962C222.84 296.232 222.84 296.232 228.595 301.418C233.633 305.866 234.033 306.941 231.483 309.007C229.101 311.052 226.128 309.576 214.597 300.512ZM722.334 300.596C720.437 298.214 720.521 296.739 722.988 292.944C725.876 288.665 725.791 288.012 722.419 284.955C719.615 282.404 717.887 282.151 714.851 283.711C711.879 285.292 710.403 285.123 708.59 282.804C707.178 281.244 706.44 279.516 706.946 279.116C708.169 277.788 740.527 264.128 740.864 264.781C740.948 265.034 742.255 266.847 743.752 268.723C746.049 271.695 745.143 274.077 736.079 287.843C730.408 296.486 725.538 303.569 725.307 303.569C724.969 303.569 723.747 302.24 722.334 300.596ZM735.172 274.499C733.127 272.518 726.529 278.441 727.604 281.244C728.68 283.879 729.417 283.711 732.305 279.769C734.287 277.219 735.509 274.836 735.172 274.499ZM237.153 274.836C227.203 257.698 226.782 256.054 231.145 252.428C233.781 250.215 236.837 251.121 251.087 258.183C266.813 265.94 267.72 266.762 264.663 269.798C262.028 272.433 260.637 272.601 257.664 270.704C252.078 267.247 245.817 274.499 249.443 280.338C251.572 283.711 251.488 284.87 249.106 287.337C246.471 289.887 245.142 288.496 237.153 274.836ZM246.724 266.341C247.293 265.266 245.058 263.053 241.686 261.24C237.153 258.942 235.931 258.773 237.006 260.755C241.285 268.154 244.405 269.966 246.724 266.341ZM691.958 266.341C689.807 265.434 685.95 262.399 683.315 259.596C678.53 254.494 678.53 254.494 690.145 241.972C696.553 235.058 702.73 229.366 703.974 229.197C707.937 228.797 720.353 244.355 720.353 249.793C720.353 257.045 708.759 268.238 701.507 268.069C698.366 267.985 694.087 267.247 691.958 266.341ZM708.506 255.232C713.523 248.887 713.523 248.233 708.675 242.457C704.796 237.861 704.796 237.862 696.806 246.336C690.377 253.166 689.323 255.4 691.136 257.613C694.909 262.23 703.973 260.987 708.506 255.232ZM260.868 246.757C251.572 235.227 250.328 232.824 252.816 230.779C255.114 228.882 256.505 229.198 260.131 232.676C265.569 237.693 266.897 237.777 271.577 233.582C275.119 230.357 275.119 230.188 271.008 225.825C266.729 221.229 267.045 215.285 271.662 215.285C274.128 215.285 291.919 236.217 293.985 241.487C294.47 242.879 293.648 245.092 292.088 246.42C289.79 248.318 288.462 247.643 285.005 242.795C281.464 237.778 280.157 237.187 276.847 238.915C271.008 242.056 270.439 245.999 274.95 251.69C279.166 257.045 278.913 260.418 274.297 260.418C272.905 260.418 266.813 254.241 260.805 246.757H260.868ZM294.154 221.461C284.921 206.473 284.921 206.473 290.359 202.025C296.536 197.008 306.17 194.626 312.43 196.608C317.11 198.083 324.193 208.455 324.193 213.894C324.193 220.555 318.27 228.966 310.871 232.739C303.45 236.533 303.45 236.533 294.154 221.461ZM315.382 219.248C317.532 212.249 311.018 203.606 303.619 203.606C294.807 203.606 294.238 206.326 300.815 216.866C306.001 225.256 307.645 226.562 310.618 225.002C312.515 223.927 314.644 221.377 315.382 219.248ZM650.198 233.161C648.217 231.917 649.629 228.629 656.058 219.332C664.027 207.801 664.28 206.979 660.907 204.429C658.356 202.616 657.787 200.887 659.01 198.736C660.506 196.186 662.298 196.755 671.447 202.847C677.286 206.726 682.472 210.268 682.893 210.605C683.315 210.921 682.556 212.565 681.165 214.294C678.867 217.013 678.361 217.013 675.326 214.294C672.185 211.511 671.531 211.743 667.168 217.688C664.532 221.229 660.907 226.499 659.01 229.45C655.384 235.226 654.161 235.712 650.198 233.161ZM631.184 221.229C630.53 220.154 630.53 216.275 631.268 212.565C632.575 205.482 629.034 200.634 626.167 205.651C621.803 213.24 619.316 215.137 616.449 213.324C613.961 211.659 614.636 209.277 621.129 197.177C630.931 178.901 630.678 179.132 637.276 182.526C649.882 189.019 653.655 201.372 644.022 204.429C641.302 205.335 639.827 208.202 638.92 214.378C637.613 222.62 634.072 225.825 631.184 221.229ZM641.07 197.43C641.808 196.271 640.986 193.804 639.089 192.076C636.032 189.019 635.631 189.019 633.081 192.476C631.521 194.542 630.762 197.008 631.352 197.914C632.828 200.296 639.489 199.981 641.07 197.43ZM343.714 198.336C335.808 180.798 334.986 176.835 338.781 175.359C341.163 174.453 343.313 177.34 347.824 187.29C355.813 204.913 356.572 208.539 352.694 210.099C350.227 211.005 348.161 208.371 343.714 198.336ZM365.384 202.932C365.384 202.7 362.749 195.027 359.524 185.899C355.076 173.378 354.254 169.014 356.066 167.854C360.114 165.303 361.505 165.894 371.539 174.368L381.257 182.442L377.399 172.218C374.027 163.406 373.942 161.931 376.493 160.94C378.053 160.371 380.119 160.624 380.941 161.53C383.492 164.313 392.619 193.298 391.397 194.542C388.593 197.261 383.408 195.027 376.156 187.881C371.877 183.665 367.766 180.123 367.028 180.039C366.354 179.975 367.028 184.086 368.504 189.103C371.961 200.465 371.961 200.887 368.335 202.278C366.691 202.847 365.384 203.185 365.384 202.932ZM584.829 199.728C581.118 196.756 580.128 194.12 580.128 186.806C580.128 169.583 598.573 159.949 609.935 171.311C614.298 175.675 614.804 177.488 613.961 185.393C612.169 201.287 596.275 209.024 584.829 199.728ZM601.861 192.814C612.486 182.105 603.59 167.285 592.565 177.341C586.641 182.674 588.686 197.577 595.369 197.577C596.275 197.577 599.142 195.449 601.861 192.814ZM151.104 500.205C139.51 499.551 137.866 499.045 137.866 495.672C137.866 492.552 139.257 491.814 145.181 491.814H152.516L145.181 486.607C140.332 483.15 137.866 479.862 137.866 476.827C137.866 470.798 139.426 470.966 146.677 478.049C152.685 483.909 152.685 483.909 161.497 478.049C171.699 471.219 175.156 470.734 175.156 476.004C175.156 478.386 172.184 481.422 167.336 484.225C157.786 489.58 157.534 491.055 165.86 492.868C175.578 495.018 178.044 502.102 168.643 501.28C166.26 501.027 158.355 500.542 151.104 500.205ZM786.397 463.399C785.659 461.586 785.09 459.857 785.09 459.519C785.09 459.287 790.592 457.791 797.359 456.4L809.627 453.849L797.359 452.036C780.958 449.654 780.642 445.269 796.368 438.271L807.646 433.253L795.461 434.329C785.174 435.32 783.024 434.982 781.949 432.178C780.221 427.667 779.968 427.73 800.078 426.255C817.933 424.864 817.933 424.864 818.924 430.134C819.914 434.898 819.008 435.805 808.89 440.421C802.861 443.141 799.171 445.691 800.816 445.944C802.46 446.26 807.983 447.019 813.084 447.673C821.727 448.811 822.381 449.317 822.381 454.503C822.381 459.773 821.727 460.194 810.112 462.239C803.367 463.482 795.546 464.958 792.742 465.612C789.116 466.349 787.303 465.781 786.397 463.399ZM157.449 461.986C142.145 460.11 139.004 458.697 140.163 454.249C140.648 452.036 143.789 451.867 157.449 453.511C172.606 455.324 174.25 455.978 174.756 459.941C175.157 462.408 174.672 464.221 173.85 464.136C172.943 463.968 165.607 463.061 157.449 461.986ZM156.058 441.159C142.714 438.271 141.808 437.786 141.808 432.853C141.808 428.152 142.967 427.33 155.067 424.042C162.719 421.892 166.682 420.079 164.363 419.678C150.134 417.043 145.771 415.061 145.771 411.098C145.771 408.463 146.677 407.41 148.469 408.147C149.966 408.717 158.356 410.698 167.083 412.595C188.5 417.191 188.584 422.06 167.336 428.574L154.645 432.516L165.86 434.982C174.587 436.964 177.138 438.355 177.138 441.159C177.138 445.353 175.578 445.353 156.058 441.159ZM778.408 417.865C777.501 415.631 778.576 413.417 781.296 411.351C786.819 407.156 785.659 400.811 779.23 399.905C774.634 399.251 771.493 396.617 771.409 393.244C771.409 392.422 780.136 391.747 790.761 391.747C809.796 391.747 810.197 391.916 811.103 396.617C811.925 400.812 810.112 402.624 796.452 411.351C787.872 416.79 780.642 421.238 780.305 421.238C779.904 421.238 779.082 419.678 778.408 417.865ZM800.816 399.736C803.113 398.176 802.291 397.776 797.359 397.692C792.257 397.692 791.014 398.429 791.014 401.633C791.014 405.744 792.32 405.512 800.816 399.736ZM407.945 188.281C407.544 187.459 406.047 181.283 404.656 174.537C402.274 162.922 401.853 162.353 396.33 162.353C391.966 162.353 390.743 161.53 391.228 158.958C391.734 156.576 395.339 154.848 403.665 153.119C418.906 149.999 418.316 149.915 418.316 154.447C418.316 157.082 417.009 158.389 414.459 158.389C409.673 158.389 409.505 161.446 413.383 175.843C414.943 181.704 415.765 187.206 415.196 188.112C413.952 190.178 409.02 190.263 407.945 188.281ZM546.863 187.881C546.209 186.805 547.685 178.395 550.067 169.183C553.293 156.914 555.169 152.719 557.15 153.457C558.626 154.026 561.598 154.447 563.748 154.447C568.344 154.447 577.24 162.838 577.24 167.201C577.24 168.93 574.942 172.64 572.222 175.359C568.28 179.301 565.877 180.123 561.345 179.216C556.075 178.162 555.421 178.648 554.346 183.918C553.208 189.609 549.245 191.738 546.863 187.881ZM567.606 168.929C569.841 166.294 569.672 165.388 566.468 163.09C562.336 160.034 560.691 161.024 558.71 167.707C557.656 171.227 558.141 172.133 561.198 172.133C563.242 172.133 566.13 170.658 567.606 168.929ZM426.875 182.926C426.221 181.113 426.643 178.731 427.781 177.572C430.753 174.621 436.445 177.341 435.623 181.367C434.78 185.899 428.456 187.037 426.875 182.926ZM530.146 181.767C530.146 176.834 526.774 170.173 524.307 170.173C523.317 170.173 521.904 173.209 521.166 177.003C520.26 182.02 518.868 183.918 516.233 183.918C514.168 183.918 512.523 183.011 512.523 182.02C512.523 176.349 517.14 149.325 518.278 148.018C520.513 145.552 536.66 149.915 539.443 153.773C542.9 158.474 542.584 161.594 538.136 165.725C535.416 168.192 534.847 170.173 536.07 172.133C539.612 177.656 538.389 185.815 534.088 185.815C531.39 185.815 530.146 184.571 530.146 181.767ZM531.137 159.38C531.137 157.23 529.577 155.185 527.68 154.848C525.129 154.363 524.307 155.502 524.307 159.38C524.307 163.259 525.129 164.397 527.68 163.913C529.577 163.491 531.137 161.531 531.137 159.38ZM455.713 180.629C455.797 179.723 457.841 171.48 460.308 162.353C464.439 147.112 465.262 145.551 470.026 145.045C472.914 144.645 475.211 144.729 475.211 145.13C475.211 145.551 477.846 153.288 481.072 162.437C488.07 182.189 488.071 181.936 483.053 181.936C480.566 181.936 478.353 180.039 477.193 177.003C474.727 170.405 465.999 170.089 465.093 176.497C464.44 180.629 455.46 184.571 455.713 180.629ZM472.513 161.846C471.923 159.38 471.27 156.492 471.185 155.417C470.932 152.951 467.728 160.455 467.56 163.744C467.475 165.135 468.803 166.21 470.532 166.21C472.914 166.21 473.42 165.072 472.576 161.846H472.513ZM494.816 175.359C494.816 171.733 495.385 163.322 496.144 156.745C497.135 146.69 498.02 144.645 500.993 144.645C505.04 144.645 505.693 152.129 503.375 171.649C502.405 179.891 501.414 181.936 498.526 181.936C495.638 181.936 494.816 180.46 494.816 175.359ZM697.628 762.884C698.366 761.725 674.82 730.105 668.327 723.528C666.746 721.947 661.391 727.891 662.298 730.189C662.804 731.517 669.065 740.645 676.316 750.447C687.594 765.857 689.892 768.07 693.012 766.426C694.993 765.351 697.059 763.706 697.628 762.884ZM285.089 746.505C298.265 728.06 299.087 726.395 295.798 724.013C292.573 721.715 290.76 723.359 277.1 740.476C263.103 758.015 262.196 759.828 264.916 762.969C266.56 764.866 268.626 766.426 269.448 766.426C270.186 766.426 277.269 757.446 285.089 746.505ZM707.599 754.726C711.457 750.363 712.532 751.923 687.995 724.75C678.045 713.641 677.792 713.557 674.335 717.351C670.878 721.125 671.046 721.546 677.455 729.704C681.081 734.3 687.678 742.626 691.958 748.234C700.685 759.512 702.582 760.249 707.599 754.726ZM275.034 738.094C282.707 728.376 288.631 719.564 288.294 718.489C286.333 712.566 280.473 716.529 266.56 733.246C254.376 747.812 251.994 751.775 253.87 753.988C257.664 758.521 260.383 756.455 275.034 738.094ZM263.271 732.255C270.924 723.106 278.091 715.032 279.25 714.379C280.557 713.557 280.157 711.828 278.007 709.446C274.887 705.989 274.296 706.305 264.494 717.014C242.423 740.982 241.201 742.711 243.836 745.831C245.143 747.475 246.956 748.803 247.862 748.803C248.769 748.803 255.683 741.298 263.271 732.255ZM718.793 745.514C720.774 743.786 722.334 741.298 722.334 740.16C722.334 737.356 690.63 705.652 687.826 705.652C686.603 705.652 684.453 706.895 683.146 708.54C681.165 710.922 683.547 714.632 697.143 730.02C706.187 740.329 713.945 748.718 714.345 748.718C714.851 748.803 716.811 747.327 718.793 745.514ZM265.316 710.922C271.176 704.26 271.493 703.101 268.858 700.466C266.223 697.831 264.094 699.475 249.021 715.623C233.043 732.74 232.221 733.983 235.277 737.356C238.734 741.151 239.725 740.329 265.316 710.922ZM731.399 732.824C735.109 728.713 735.109 728.713 717.486 712.313C698.872 695.027 696.891 693.952 692.864 698.906C690.63 701.457 692.78 704.408 707.768 719.48C717.401 729.114 725.791 737.019 726.445 737.019C727.119 737.019 729.333 735.122 731.399 732.824ZM261.543 693.046C259.308 690.327 256.674 692.076 240.547 706.896C222.84 723.19 222.249 724.013 225.475 727.554C228.763 731.18 229.417 730.758 246.471 713.725C261.627 698.569 263.756 695.597 261.543 693.046ZM830.202 535.703C830.202 531.403 827.651 530.918 780.221 526.471C777.269 526.218 776.278 527.293 776.278 530.918C776.278 535.619 777.101 535.851 799.825 539.308C812.747 541.205 824.278 543.103 825.353 543.524C827.988 544.431 830.202 540.889 830.202 535.703ZM832.183 519.809C832.183 515.762 831.277 515.361 822.718 515.361C817.448 515.361 805.095 514.77 795.209 514.117C777.269 512.81 777.269 512.811 777.269 517.743C777.269 522.592 777.585 522.676 803.282 525.395C830.623 528.283 832.099 528.03 832.183 519.809ZM805.011 790.31C808.637 786.094 816.71 776.882 822.971 769.799C849.068 740.244 883.64 680.461 898.543 638.954C941.21 520.462 934.38 396.616 878.876 283.879C870.148 266.088 861.653 250.046 860.178 248.233C857.058 244.607 858.28 240.728 862.56 240.728C865.953 240.728 884.546 273.677 896.077 299.943C945.32 412.427 946.817 544.831 900.124 657.231C880.604 704.092 846.265 760.081 838.844 757.193C836.378 756.286 835.978 756.877 836.968 759.996C839.097 766.911 812.916 796.065 803.451 797.308C798.349 797.962 798.349 797.962 805.011 790.31ZM76.3538 229.535C72.475 225.677 85.1651 202.447 90.0979 204.344C91.5735 204.829 92.8171 204.66 92.9015 203.922C93.0701 203.184 93.3021 200.634 93.5551 198.421C94.0399 193.888 110.103 173.631 130.614 151.56C142.461 138.722 143.705 137.963 147.647 140.366C151.61 142.748 151.863 142.579 150.703 138.953C149.966 136.74 150.282 133.452 151.188 131.639C152.832 128.666 153.423 128.75 156.627 132.608C158.693 134.927 161.728 136.824 163.541 136.824C168.158 136.824 169.633 131.639 166.008 128.013C162.487 124.472 163.141 118.864 167.251 117.557C169.802 116.735 169.802 117.051 167.504 119.855C166.008 121.584 165.607 123.059 166.513 123.059C168.98 122.974 173.512 119.939 173.259 118.464C172.522 112.519 174.25 109.314 181.501 103.791C187.509 99.196 191.051 97.6993 194.339 98.5214C198.218 99.5122 198.787 99.1117 197.712 95.8864C196.321 91.4385 214.682 78.5163 251.087 58.2582C371.392 -8.60807 522.157 -18.5578 652.517 31.7395C708.169 53.3256 765.317 88.8882 806.908 127.929C816.942 137.394 818.439 139.607 818.439 146.121C818.439 150.147 819.008 156.998 819.746 161.362C821.074 169.183 821.074 169.183 799.994 149.093C683.378 37.9163 525.13 -4.15979 367.344 34.1429C308.805 48.372 238.818 83.3021 191.957 121.584C173.512 136.656 137.528 172.893 121.802 192.244C106.899 210.521 102.851 214.547 105.086 208.624C106.309 205.567 102.936 201.541 99.1625 201.541C95.4524 201.541 96.1058 205.567 100.554 210.352C104.432 214.463 104.433 214.462 100.069 220.723C94.7989 228.312 93.2179 228.544 90.7515 222.136C88.1165 215.137 86.219 216.023 87.6314 223.612C88.7065 229.535 88.3692 230.041 83.1835 230.357C80.0426 230.61 76.923 230.188 76.2695 229.535H76.3538ZM96.6748 217.267C96.6748 216.107 95.7687 215.285 94.7146 215.285C93.6396 215.285 92.7329 216.107 92.7329 217.267C92.7329 218.342 93.6396 219.164 94.7146 219.164C95.7687 219.164 96.6748 218.342 96.6748 217.267ZM182.977 120.108C185.127 117.642 184.959 117.304 182.239 118.379C180.511 119.033 179.035 120.339 179.035 121.33C179.035 123.881 180.174 123.481 182.977 120.108ZM225.138 197.514C224.4 195.195 224.062 193.214 224.484 193.066C224.821 192.898 227.773 191.338 230.998 189.672C237.09 186.637 239.641 180.945 236.5 177.741C235.361 176.666 230.745 176.835 224.653 178.247C212.953 180.945 205.533 177.741 203.404 169.098C201.022 159.633 212.131 144.73 221.512 144.645C226.951 144.645 226.044 151.306 219.952 156.408C212.616 162.5 213.122 169.499 220.774 167.454C235.193 163.491 239.472 163.743 244.658 168.845C252.394 176.581 251.488 184.74 241.77 193.973C232.874 202.363 227.035 203.606 225.138 197.43V197.514ZM704.964 182.674C700.601 179.638 700.348 176.666 703.721 167.854C704.395 166.294 702.329 163.744 698.872 161.678C693.18 158.305 692.864 158.305 687.341 162.437C682.408 166.042 681.165 166.21 677.455 163.997C675.241 162.5 673.513 160.687 673.829 159.865C674.082 159.043 683.547 150.99 694.909 141.926C715.505 125.462 715.504 125.462 720.859 129.32C723.81 131.47 726.298 134.105 726.298 135.327C726.298 138.468 712.3 182.674 710.804 184.339C710.066 185.161 707.431 184.402 704.964 182.674ZM711.225 148.271C713.038 143.739 714.261 139.86 714.029 139.544C713.776 139.291 710.572 141.757 707.03 144.961C701.676 149.662 700.917 151.306 702.814 153.625C706.44 157.989 707.768 157.082 711.225 148.271ZM259.393 167.707C258.233 163.09 255.198 151.644 252.647 142.242C248.03 125.125 248.031 125.125 253.722 121.014C260.637 116.145 259.814 115.66 282.539 136.487C298.918 151.475 300.331 153.372 297.19 155.67C292.341 159.38 288.062 158.959 284.099 154.532C280.81 150.99 280.157 150.906 274.803 153.688C269.448 156.408 269.111 157.314 270.27 164.228C271.345 170.574 270.924 172.133 267.635 173.946C261.943 177.003 261.775 176.835 259.393 167.707ZM273.221 143.992C273.221 143.739 270.102 140.45 266.307 136.74L259.393 130.057L261.543 136.909C262.765 140.598 264.093 144.814 264.494 146.205C265.169 148.103 266.223 148.271 269.279 146.627C271.408 145.467 273.221 144.308 273.221 143.992ZM658.103 152.866C653.74 149.578 653.74 149.578 666.008 127.507C672.691 115.407 679.183 105.436 680.343 105.436C681.418 105.436 683.884 106.511 685.697 107.924C688.648 110.137 687.911 112.287 677.054 131.87C670.456 143.823 664.532 154.11 663.795 154.848C663.141 155.585 660.57 154.679 658.187 152.866H658.103ZM310.449 142.179C307.16 140.513 302.544 133.599 296.367 121.099C288.062 104.213 287.556 102.232 290.444 100.018C296.114 95.6548 299.171 98.2055 305.095 112.287C312.178 129.236 315.635 133.283 322.148 132.461C329.885 131.639 329.632 122.827 321.474 104.298C314.644 88.8039 314.644 88.8039 319.914 86.5905C322.802 85.4311 325.353 84.5247 325.521 84.6934C325.774 84.862 329.063 92.2606 332.92 101.241C343.229 125.293 341.669 135.749 326.913 141.926C319.008 145.214 316.794 145.299 310.449 142.179ZM629.202 138.785C624.438 137.731 611.579 132.123 609.028 129.973C608.628 129.573 627.811 83.9554 629.118 82.3954C629.371 82.1425 633.566 83.3019 638.52 84.9462C656.29 91.0383 662.635 102.886 653.002 111.866C649.376 115.323 648.638 117.705 649.292 123.565C649.798 127.676 649.207 132.208 647.9 133.767C644.527 137.878 635.8 140.197 629.202 138.785ZM638.014 123.227C638.014 119.517 634.894 116.06 630.53 114.922C629.118 114.585 626.736 117.136 625.26 120.677C622.625 126.854 622.709 127.275 626.82 128.835C632.259 130.88 638.014 128.013 638.014 123.227ZM645.518 102.716C646.256 98.9431 642.947 95.7181 638.435 95.6548C635.716 95.6548 632.006 103.476 633.482 106.026C635.379 109.146 644.844 106.511 645.518 102.716ZM357.542 126.032C357.542 125.547 354.907 115.407 351.619 103.476C348.414 91.5232 345.779 80.8987 345.779 79.8447C345.779 76.2189 359.039 72.087 370.401 72.087C380.351 72.087 382.079 72.7619 388.108 78.7697C394.116 84.7776 394.77 86.5061 394.77 96.477C394.77 110.559 391.059 116.397 378.222 122.321C369.41 126.432 357.542 128.582 357.542 126.032ZM378.622 110.706C383.829 106.026 384.483 96.3081 380.203 87.8971C376.978 81.8049 371.476 79.5919 363.318 81.2362C357.394 82.3956 357.31 80.9831 364.541 106.849C367.681 117.958 369.811 118.527 378.622 110.706ZM592.881 125.125C588.939 124.134 587.864 122.49 587.379 116.651C586.873 110.39 585.967 109.146 580.549 107.755C574.942 106.258 573.867 106.68 570.662 111.612C567.121 117.135 559.132 119.286 556.75 115.407C555.928 114.1 579.959 72.5928 583.922 68.6298C584.407 68.1449 587.864 68.7987 591.574 70.0425C598.32 72.2559 598.32 72.2559 599.226 98.1213C599.732 112.435 599.564 124.64 598.994 125.209C598.32 125.863 595.6 125.863 592.881 125.125ZM586.958 91.207C586.958 82.8803 586.957 82.8804 582.931 89.2255C578.736 95.655 579.221 99.5121 584.154 99.5121C586.22 99.5121 587.042 97.2148 586.958 91.207ZM411.486 112.519C410.011 107.923 404.15 64.0975 404.825 63.3597C405.225 62.9592 407.776 62.3694 410.495 61.9689C415.196 61.3154 415.449 61.7997 418.653 81.8892C423.354 111.043 423.27 112.603 417.241 113.763C414.374 114.332 411.823 113.762 411.486 112.519ZM537.145 110.79C536.808 109.483 535.754 104.867 534.763 100.503C533.519 94.7486 532.044 92.5139 528.903 92.1134C525.361 91.6075 524.623 92.6827 523.801 100.503C522.579 111.465 522.157 111.866 515.496 110.137C510.964 109.062 510.31 108.071 511.195 103.707C511.87 100.925 513.43 89.4781 514.821 78.2634L517.309 57.9211L528.671 58.7645C543.237 59.8185 550.489 64.8567 551.311 74.4903C551.796 79.8447 550.89 82.3111 547.348 85.1147C543.237 88.4032 542.984 89.3098 545.219 93.6734C546.61 96.3927 547.769 101.895 547.769 105.942C547.769 112.519 547.263 113.257 542.816 113.257C540.117 113.257 537.546 112.202 537.145 110.79ZM539.611 75.5441C540.033 71.2648 539.211 70.0426 535.079 68.9675C528.903 67.4076 528.587 67.7232 526.942 75.7969C525.699 82.0577 525.783 82.1425 532.275 81.5733C537.883 80.9831 539.042 80.0764 539.611 75.5441ZM456.113 105.942C470.026 54.9702 469.541 56.1929 477.931 56.7831C485.751 57.3523 485.752 57.3518 493.256 81.8892C497.367 95.4015 500.655 107.101 500.739 107.924C500.739 108.661 498.105 109.315 494.985 109.315C490.115 109.315 488.893 108.24 486.995 102.401C484.845 95.8869 484.107 95.4859 477.53 95.9707C471.438 96.5609 470.194 97.4463 468.634 102.969C467.075 108.324 465.915 109.315 460.983 109.315C456.366 109.315 455.375 108.661 456.113 105.942ZM482.969 84.3556C482.885 83.5335 481.641 79.8448 480.334 76.1347C477.699 68.7988 476.455 69.5367 474.305 79.4233C473.082 85.3469 473.336 85.8526 478.015 85.8526C480.819 85.8526 483.053 85.1778 482.969 84.3556Z" fill="#8550DC"/>
</svg>
