<svg width="958" height="955" viewBox="0 0 958 955" fill="none" xmlns="http://www.w3.org/2000/svg">
<path fill-rule="evenodd" clip-rule="evenodd" d="M424.387 952.056C315.246 938.865 218.516 892.419 141.071 816.214C123.504 798.886 120.786 794.509 126.402 792.331C128.041 791.711 128.98 790.452 128.44 789.593C127.96 788.733 128.58 784.836 129.919 780.939C132.337 773.824 132.338 773.824 145.128 788.114C176.986 823.708 243.038 871.733 284.248 889.281C295.42 893.977 300.096 897.795 294.88 897.795C293.781 897.795 292.922 899.833 292.922 902.411C292.922 905.989 293.701 906.768 296.739 905.989C299.157 905.289 300.576 903.351 300.576 900.533C300.576 895.996 300.576 895.996 309.15 899.753C351.32 917.78 417.672 931.61 466.237 932.39C472.013 932.47 477.389 933.549 478.188 934.728C479.187 936.287 479.967 936.287 480.986 934.728C481.846 933.549 492.238 932.07 505.429 931.371C540.563 929.412 568.044 924.736 604.018 914.503C619.647 910.066 625.022 909.206 626.122 910.985C626.901 912.244 629.779 914.423 632.517 915.842C639.152 919.259 643.609 915.062 639.772 908.887C636.894 904.21 636.035 904.99 651.024 898.734C666.792 892.179 701.927 874.612 711.84 868.376C716.057 865.718 719.954 863.519 720.513 863.519C721.992 863.519 754.689 839.717 769.059 828.165C784.208 816.054 810.129 790.692 824.499 773.984C880.158 709.35 917.711 626.59 930.202 540.632C933.86 515.49 934.879 458.591 932.221 426.734C931.202 414.323 931.362 408.387 932.621 409.167C936.678 411.665 936.198 406.908 931.761 401.752C929.263 398.794 927.145 394.957 927.145 393.318C927.145 391.599 924.966 381.307 922.308 370.454C918.491 354.666 918.011 350.229 919.97 349.05C921.769 347.891 921.609 347.491 919.27 347.411C917.152 347.411 914.654 342.734 911.076 331.722C901.083 301.284 883.036 262.872 865.949 235.851C857.515 222.501 857.435 222.041 861.892 218.763C864.23 217.045 865.249 213.687 865.329 207.592C865.329 197.919 864.849 197.359 861.192 202.215C858.994 205.173 858.694 204.714 858.614 198.378C858.614 189.485 856.496 189.405 850.72 197.918C848.222 201.576 845.803 204.554 845.264 204.474C844.704 204.394 839.168 197.919 832.853 189.944C798.577 146.536 743.837 101.568 691.375 73.628C676.166 65.5138 674.127 63.8751 676.705 61.7567C678.344 60.4376 679.203 58.8788 678.664 58.3192C678.104 57.7795 676.006 58.7984 674.047 60.6771C670.69 63.6349 669.91 63.7152 664.694 60.9772C661.556 59.4183 650.624 54.9614 640.251 51.1442C629.939 47.3269 620.426 42.9499 619.247 41.3911C618.008 39.8322 616.129 39.0527 615.11 39.6723C612.232 41.471 572.26 30.9188 569.602 27.7211C567.883 25.7025 566.545 25.4627 565.226 26.7818C563.827 28.2008 558.97 28.0407 549.457 26.4019C492.778 16.5689 428.924 19.6867 365.29 35.4554C352.259 38.733 340.228 41.4713 338.589 41.6112C337.03 41.7711 334.692 42.5505 333.353 43.4099C332.034 44.1893 329.375 44.349 327.437 43.7294C325.158 43.0299 323.44 43.6494 322.74 45.608C322.041 47.3267 320.722 48.1065 319.623 47.467C318.603 46.8474 317.664 47.087 317.664 48.0263C317.664 49.0456 311.029 52.5433 302.915 55.9009C242.638 80.9628 177.385 127.569 137.174 174.415C127.341 185.807 122.025 190.644 119.846 189.944C117.728 189.325 117.508 189.485 119.147 190.644C120.786 191.903 117.888 197.279 108.454 210.409C93.6052 231.095 78.9359 255.137 69.8824 273.644C64.886 283.797 62.9277 286.295 60.1897 285.435C56.2126 284.096 55.513 287.454 59.4102 288.933C61.4488 289.713 60.1896 294.569 53.7942 310.638C30.7708 368.416 21.4773 422.057 23.1961 487.93C24.5151 539.533 30.6909 575.926 46.0599 621.673C61.9084 668.82 89.708 721.062 117.588 755.717C123.284 762.892 124.064 770.007 119.367 771.806C118.508 772.105 118.208 774.304 118.747 776.562C119.227 778.82 119.067 783.037 118.287 785.855C116.789 791.012 116.789 790.932 107.196 779.14C91.5069 760.014 79.3157 741.887 80.5748 739.789C81.2743 738.689 80.6545 737.83 79.2555 737.83C77.8366 737.83 72.301 730.335 66.8249 721.122C-0.846306 606.684 -18.034 468.264 19.439 339.676C30.2912 302.443 62.8476 231.254 66.3651 236.95C67.1445 238.269 68.7832 238.749 69.9623 238.049C72.9202 236.171 72.5404 233.513 69.1829 232.813C62.3078 231.334 108.515 169.799 139.592 138.901C210.241 68.6314 293.321 25.1429 394.888 5.23724C420.09 0.320782 424.467 0.00115967 476.769 0.00115967C545.24 -0.0787828 573.959 4.29788 631.977 23.6639C763.363 67.6123 872.824 171.518 923.947 300.725C933.081 323.908 934.1 328.365 930.202 328.365C928.564 328.365 927.145 329.684 927.145 331.263C927.145 332.981 928.943 334.061 931.681 334.061C935.818 334.061 936.678 335.859 942.054 356.464C945.352 368.815 947.91 380.587 947.85 382.626C947.77 384.724 949.089 392.459 950.728 399.793C957.843 431.89 959.162 490.828 953.766 534.077C949.629 567.093 940.275 606.764 929.643 636.423C925.426 648.374 924.347 649.933 921.848 647.815C919.27 645.796 919.03 646.256 920.13 651.652C921.609 659.226 920.13 663.663 916.532 662.264C914.894 661.645 913.795 662.424 913.795 664.143C913.795 665.782 914.814 667.341 915.993 667.74C918.491 668.6 896.007 713.088 882.657 733.773C877.66 741.427 871.885 748.223 869.766 748.762C867.268 749.382 866.728 750.241 868.047 751.1C870.546 752.679 849.241 781.079 831.833 799.346C823.32 808.339 820.202 810.518 818.863 808.559C817.544 806.62 816.844 806.54 815.745 808.339C814.966 809.578 815.365 811.217 816.525 811.997C821.921 815.274 767.34 860.961 731.746 882.966C702.866 900.853 691.694 905.929 687.177 903.111C685.139 901.772 683.42 900.073 683.42 899.274C683.42 898.574 682.101 898.434 680.542 899.054C678.883 899.673 677.185 898.814 676.545 897.015C675.926 895.377 674.047 893.977 672.408 893.977C670.07 893.977 669.75 895.776 670.69 904.21C671.949 914.423 671.949 914.423 658.119 920.199C624.163 934.328 575.918 946.979 538.844 951.356C520.258 953.535 518.939 953.455 516.501 950.177C514.003 946.739 513.862 946.74 513.862 950.817C513.862 954.954 513.703 954.954 479.108 954.714C459.982 954.634 435.399 953.455 424.387 952.136V952.056ZM475.75 945.421C475.75 944.321 474.891 943.462 473.891 943.462C472.792 943.462 471.933 944.321 471.933 945.421C471.933 946.44 472.792 947.299 473.891 947.299C474.891 947.299 475.75 946.44 475.75 945.421ZM580.534 935.907C580.534 934.808 579.675 933.949 578.656 933.949C577.557 933.949 576.697 934.808 576.697 935.907C576.697 936.907 577.557 937.766 578.656 937.766C579.675 937.766 580.534 936.907 580.534 935.907ZM660.557 909.986C660.557 908.487 658.838 907.328 656.72 907.328C653.122 907.328 651.484 910.985 654.062 913.563C655.86 915.362 660.557 912.864 660.557 909.986ZM311.968 908.187C311.968 906.628 311.269 905.449 310.329 905.449C308.231 905.449 306.112 910.366 307.591 911.845C309.31 913.483 311.968 911.225 311.968 908.187ZM710.041 876.87C710.041 875.791 708.722 874.931 707.163 874.931C705.584 874.931 704.345 875.791 704.345 876.87C704.345 877.889 705.584 878.749 707.163 878.749C708.722 878.749 710.041 877.889 710.041 876.87ZM816.525 803.723C817.864 802.084 818.003 800.525 817.004 799.905C815.985 799.286 814.726 800.525 814.186 802.643C813.007 807.08 813.567 807.32 816.525 803.723ZM83.4725 734.013C83.4725 732.993 82.6132 732.134 81.594 732.134C80.4947 732.134 79.6355 732.993 79.6355 734.013C79.6355 735.032 80.4947 735.891 81.594 735.891C82.6132 735.891 83.4725 735.032 83.4725 734.013ZM869.067 732.134C869.686 731.055 869.386 730.196 868.287 730.196C867.268 730.196 865.869 731.055 865.249 732.134C864.61 733.153 864.93 734.013 865.949 734.013C867.048 734.013 868.367 733.153 869.067 732.134ZM57.7714 680.691C58.4109 679.672 57.5512 678.813 55.9923 678.813C54.3335 678.813 53.0147 679.672 53.0147 680.691C53.0147 681.71 53.7941 682.57 54.8133 682.57C55.7526 682.57 57.0719 681.71 57.7714 680.691ZM925.206 631.347C925.206 629.468 919.43 626.83 918.091 628.149C917.632 628.629 917.791 629.948 918.491 631.047C920.05 633.545 925.286 633.765 925.286 631.347H925.206ZM18.9792 512.132C18.9792 511.133 18.04 510.034 16.9408 509.634C15.8616 509.254 14.922 510.414 14.922 512.132C14.922 513.851 15.8616 515.03 16.9408 514.63C18.04 514.251 18.9792 513.152 18.9792 512.132ZM945.271 420.878C949.409 421.977 949.629 421.577 948.389 416.821C947.45 413.463 945.411 411.345 942.853 410.965C939.256 410.426 938.856 411.205 939.016 418.38C939.096 422.837 939.556 424.935 939.956 423.137C940.575 420.638 941.914 420.099 945.271 420.878ZM948.07 402.611C948.07 401.592 947.211 400.733 946.191 400.733C945.112 400.733 944.252 401.592 944.252 402.611C944.252 403.71 945.112 404.57 946.191 404.57C947.211 404.57 948.07 403.71 948.07 402.611ZM935.898 385.983C933.94 384.105 932.381 387.003 933.94 389.581C935.199 391.519 935.579 391.519 936.278 389.581C936.678 388.242 936.518 386.683 935.898 385.983ZM940.415 379.808C940.415 378.729 939.096 377.869 937.457 377.869C935.898 377.869 935.039 378.729 935.739 379.808C936.358 380.827 937.697 381.686 938.697 381.686C939.636 381.686 940.415 380.827 940.415 379.808ZM929.023 339.756C929.023 338.757 927.785 337.898 926.206 337.898C924.567 337.898 923.328 338.757 923.328 339.756C923.328 340.856 924.567 341.715 926.206 341.715C927.785 341.715 929.023 340.856 929.023 339.756ZM921.449 317.912C921.449 315.254 920.67 313.136 919.73 313.136C917.472 313.136 915.373 318.692 916.772 320.95C918.871 324.308 921.449 322.589 921.449 317.912ZM894.748 271.226C894.748 270.206 893.889 269.347 892.889 269.347C891.79 269.347 890.931 270.206 890.931 271.226C890.931 272.305 891.79 273.165 892.889 273.165C893.889 273.165 894.748 272.305 894.748 271.226ZM888.592 239.209C888.972 237.97 888.033 236.95 886.314 236.95C884.676 236.95 883.356 238.27 883.356 239.988C883.356 243.346 887.413 242.726 888.592 239.209ZM881.398 238.969C881.398 237.97 880.538 236.631 879.539 236.011C878.44 235.392 877.58 236.171 877.58 237.81C877.58 239.449 878.44 240.768 879.539 240.768C880.538 240.768 881.398 239.988 881.398 238.969ZM159.658 133.185C159.658 131.546 158.419 130.307 156.92 130.307C153.722 130.307 151.543 133.045 153.342 134.824C155.601 137.103 159.658 136.003 159.658 133.185ZM656.959 41.771C656.959 40.7517 656.1 39.6725 654.921 39.2728C653.842 38.8931 652.902 39.9723 652.902 41.771C652.902 43.4898 653.842 44.589 654.921 44.2692C656.1 43.8895 656.959 42.7103 656.959 41.771ZM342.486 33.2573C342.486 32.3379 341.627 30.9987 340.547 30.2992C339.528 29.6796 338.669 30.459 338.669 32.0978C338.669 33.7367 339.528 35.0559 340.547 35.0559C341.627 35.0559 342.486 34.2765 342.486 33.2573ZM397.147 22.485C397.446 21.4857 396.447 18.9873 394.948 16.9488C392.23 13.3514 392.07 13.5112 392.07 19.5269C391.99 25.3827 395.508 27.4814 397.147 22.485ZM600.6 18.0479C598.721 15.07 595.664 17.4885 597.082 21.0059C597.782 22.8846 598.801 23.2642 600.041 22.0251C601.06 21.0058 601.299 19.207 600.6 18.0479ZM382.077 18.2681C382.617 16.5693 381.458 15.9294 378.56 16.3291C376.142 16.7088 373.804 18.1279 373.324 19.5269C372.784 21.2457 373.884 21.8651 376.841 21.4055C379.26 21.0857 381.598 19.687 382.077 18.2681ZM573.899 12.272C573.18 11.1728 571.861 10.3135 570.842 10.3135C569.902 10.3135 569.123 11.1728 569.123 12.272C569.123 13.2713 570.462 14.131 572.1 14.131C573.659 14.131 574.519 13.2713 573.899 12.272ZM443.354 917.481C389.332 912.085 346.863 901.392 301.276 881.726C170.51 825.187 76.2779 709.57 45.5201 567.872C42.1625 552.423 42.1623 551.024 45.0602 549.306C47.9381 547.667 47.9382 547.507 44.9004 547.427C43.1017 547.427 41.6228 546.108 41.6228 544.529C41.6228 542.97 43.1017 541.571 44.9004 541.491C47.1588 541.331 46.699 540.792 43.5013 539.773C40.8432 538.913 39.6641 538.134 40.9232 538.054C42.4021 537.894 42.0824 535.336 40.0638 529.78C35.5271 517.529 35.6873 441.723 40.284 412.524C62.6279 270.826 146.927 152.011 272.396 85.6591C296.439 72.9283 319.623 63.2354 322.9 64.4945C324.219 65.0341 325.398 64.5746 325.398 63.5553C325.398 61.137 330.854 59.0384 358.274 51.2241C401.443 38.8929 423.228 36.0751 477.709 36.0751C538.445 35.9951 569.523 40.8315 619.866 57.9392C629.16 61.057 636.974 63.6352 637.213 63.6352C638.213 63.6352 637.593 66.5929 636.114 68.8713C634.156 72.069 613.631 65.2742 614.41 61.6768C614.87 60.1179 613.631 59.7379 610.813 60.4374C608.475 61.0569 598.322 59.4183 588.329 56.8401C549.777 46.7674 525.714 43.8893 479.587 43.8093C433.68 43.7294 414.235 45.9079 375.043 55.3611C270.678 80.6629 176.526 147.175 115.789 238.589C52.395 333.841 30.4508 448.039 53.2544 563.276C69.1829 643.378 108.755 718.244 166.993 778.201C227.429 840.496 299.157 880.547 384.656 899.833C399.725 903.271 412.755 906.928 413.615 908.107C414.714 909.586 415.414 909.586 416.033 908.107C416.573 906.708 420.49 906.629 428.764 907.868C435.239 908.807 456.864 909.666 476.769 909.746C526.494 909.906 565.145 904.05 612.931 889.141C621.825 886.403 630.639 883.665 632.437 883.125C634.856 882.426 635.795 883.205 635.795 886.163C635.795 890.7 633.856 891.32 630.498 887.882C628.22 885.624 627.921 885.943 627.441 890.62C626.821 896.716 567.184 911.545 525.794 915.922C502.151 918.42 460.761 919.2 443.433 917.481H443.354ZM644.389 882.726C643.849 881.786 645.708 879.068 648.605 876.79C653.842 872.653 653.842 872.653 654.461 876.95C655.401 882.806 647.266 887.422 644.389 882.726ZM657.819 877.51C657.119 875.791 656.879 874.232 657.119 874.072C664.914 868.676 667.972 867.357 672.329 867.357C675.306 867.357 677.645 866.257 677.724 864.938C677.724 862.2 708.023 844.473 712.619 844.473C714.338 844.473 715.737 843.694 715.737 842.754C715.737 841.815 722.372 836.279 730.426 830.423C743.617 820.91 745.496 820.051 748.054 822.689C750.013 824.567 750.332 826.046 748.993 826.906C747.914 827.685 738.841 833.941 728.928 840.896C704.965 857.604 693.413 864.159 689.976 862.82C688.337 862.201 687.177 862.82 687.177 864.379C687.177 865.798 681.382 869.775 674.287 873.212C667.252 876.57 660.937 879.608 660.237 880.008C659.538 880.308 658.438 879.228 657.819 877.51ZM728.068 838.777C728.788 837.678 728.468 836.819 727.369 836.819C726.35 836.819 724.95 837.678 724.331 838.777C723.631 839.797 723.931 840.656 725.03 840.656C726.05 840.656 727.449 839.797 728.068 838.777ZM523.996 863.919C518.22 863.06 514.482 858.303 517.36 855.485C518.939 853.846 520.718 854.006 524.315 855.885C527.913 857.824 529.711 857.904 531.27 856.345C534.308 853.387 531.809 848.31 527.293 848.31C521.737 848.31 522.436 843.234 528.152 841.815C533.148 840.576 534.627 835.899 530.57 834.481C529.231 834.021 526.194 834.48 523.855 835.58C517.52 838.398 513.223 833.941 518.539 830.044C528.692 822.549 546.799 833.621 538.205 842.215C536.486 844.014 536.486 845.033 538.205 846.752C541.263 849.789 541.183 858.763 538.145 861.101C535.007 863.599 529.072 864.779 523.996 863.919ZM382.457 845.413C382.457 828.625 382.697 827.305 386.294 827.305C389.732 827.305 390.032 828.625 390.032 841.515C390.032 855.725 390.032 855.725 398.166 856.265C404.022 856.744 406.44 857.744 406.82 860.162C407.439 863.06 405.881 863.519 394.948 863.519H382.457V845.413ZM412.915 845.413C412.915 828.625 413.235 827.305 416.733 827.305C419.93 827.305 420.57 828.624 420.57 834.96C420.57 842.614 420.57 842.615 428.144 842.615C435.779 842.615 435.779 842.614 435.779 834.96C435.779 828.624 436.418 827.305 439.616 827.305C443.133 827.305 443.354 828.625 443.354 845.413C443.354 862.28 443.133 863.519 439.616 863.519C436.498 863.519 435.779 862.28 435.779 856.884C435.779 850.329 435.639 850.169 428.144 850.169C420.73 850.169 420.57 850.329 420.57 856.884C420.57 862.28 419.79 863.519 416.733 863.519C413.235 863.519 412.915 862.28 412.915 845.413ZM470.054 850.169C470.054 840.036 469.435 836.819 467.396 836.819C462.56 836.819 462.56 831.683 467.476 829.484C477.169 825.047 477.709 825.907 477.709 845.413C477.709 862.28 477.389 863.519 473.891 863.519C470.454 863.519 470.054 862.28 470.054 850.169ZM484.184 861.421C483.485 860.242 487.242 855.645 492.698 850.808C498.094 846.112 502.451 841.116 502.451 839.717C502.451 835.5 498.634 834.321 493.637 836.979C489.96 838.937 488.561 838.937 486.682 837.059C484.824 835.18 485.283 833.941 488.88 831.043C494.656 826.286 501.451 826.366 506.208 831.123C511.504 836.439 511.045 841.355 504.329 848.93C497.315 856.964 497.234 858.223 503.87 857.444C507.607 857.044 509.246 857.823 509.725 860.162C510.265 863.06 508.706 863.519 497.934 863.519C490.979 863.519 484.964 862.6 484.184 861.421ZM563.347 859.782C563.347 856.744 561.788 856.025 554.293 855.565C548.598 855.165 545.32 854.086 545.32 852.528C545.32 848.231 563.587 827.305 567.324 827.305C570.542 827.305 571.001 828.785 571.001 838.777C571.001 845.113 571.861 850.169 572.88 850.169C573.959 850.169 574.819 851.508 574.819 853.067C574.819 854.626 573.959 855.885 572.88 855.885C571.861 855.885 571.001 857.604 571.001 859.702C571.001 862.28 569.762 863.519 567.184 863.519C564.686 863.519 563.347 862.28 563.347 859.782ZM562.967 843.534C563.587 837.838 563.587 837.838 559.689 842.615C554.913 848.47 554.773 850.649 559.13 849.869C561.249 849.469 562.647 847.131 562.967 843.534ZM305.013 824.647C273.176 809.199 243.418 790.212 243.418 785.216C243.418 783.277 243.817 781.638 244.277 781.638C244.757 781.638 254.27 787.574 265.442 794.909C284.488 807.24 308.45 819.971 329.775 829.024C338.429 832.762 340.387 836.899 333.292 836.819C331.574 836.759 318.843 831.283 305.013 824.647ZM620.506 833.861C620.506 832.142 624.483 829.324 630.498 826.906C647.906 819.811 679.983 802.563 695.452 791.931C711.3 781.019 713.859 779.92 713.859 784.436C713.859 790.212 671.629 816.213 639.932 829.963C622.145 837.758 620.506 838.078 620.506 833.861ZM756.408 814.814C755.549 812.776 760.704 806.78 772.976 795.288C819.262 752.199 857.515 697.399 880.238 641.659C900.224 592.554 909.737 547.507 911.616 493.086C912.795 458.591 913.015 456.952 916.692 456.952C920.13 456.952 920.509 458.431 921.149 471.242C922.548 503.079 912.315 579.444 906.779 578.345C905.3 578.105 904.901 580.063 905.6 584.58C906.62 590.516 906.22 591.216 902.163 591.375C898.585 591.615 898.425 591.855 901.163 592.554C905.68 593.714 904.901 597.711 894.588 626.97C874.763 683.349 840.427 738.39 797.958 782.098C780.53 799.905 777.732 802.164 775.774 799.425C774.055 797.087 773.116 796.927 772.036 798.566C771.257 799.825 771.637 802.004 772.816 803.423C774.455 805.441 773.276 807.24 767.42 811.916C758.826 818.632 757.987 818.952 756.408 814.814ZM741.658 763.052C740.559 759.854 738.78 758.755 734.324 758.755C728.388 758.755 728.388 758.755 732.445 754.458C735.343 751.42 736.202 748.762 735.343 745.564C734.164 741.108 734.324 741.048 738.7 744.165C742.837 747.043 743.377 747.043 746.895 744.005C750.492 740.808 750.552 740.888 749.393 745.405C748.533 749.002 749.233 751.041 752.431 753.539C756.648 756.816 756.648 756.816 751.811 756.816C748.214 756.876 746.415 758.295 745.016 762.113C743.137 767.269 743.057 767.269 741.658 763.052ZM210.082 760.713C209.302 758.135 207.204 756.876 203.766 756.816C198.69 756.816 198.69 756.816 203.226 753.299C206.504 750.801 207.363 748.762 206.424 745.724C204.945 741.267 207.124 740.328 210.641 743.846C212.28 745.564 213.999 745.564 217.576 743.926C222.113 741.887 222.273 741.967 220.554 746.504C219.075 750.241 219.455 751.66 222.512 753.539C227.729 756.816 227.269 759.454 221.653 758.055C218.135 757.116 216.717 757.736 215.797 760.713C214.298 765.55 211.661 765.55 210.082 760.713ZM159.977 705.593C134.136 666.561 117.588 630.407 106.256 588.337C99.4613 563.116 99.2412 559.838 104.158 562.496C106.496 563.735 108.455 568.272 110.013 576.166C117.808 615.898 147.167 679.292 174.187 714.807C181.042 723.78 182.302 728.317 177.765 728.317C176.286 728.317 168.251 718.084 159.977 705.593ZM774.755 726.358C774.755 725.339 779.371 718.244 784.907 710.669C814.106 670.778 839.168 614.099 848.222 567.413C851.659 549.466 853.458 545.328 856.576 548.446C857.835 549.685 857.195 556.4 854.937 567.572C844.085 620.334 820.741 673.197 789.604 715.426C781.09 726.978 774.755 731.674 774.755 726.358ZM166.133 682.25C156.22 666.561 140.611 635.484 140.611 631.507C140.611 627.369 140.612 627.369 207.823 627.369C253.73 627.369 275.674 627.989 277.153 629.468C278.632 630.967 279.571 630.967 280.431 629.468C282.309 626.51 559.829 626.51 562.807 629.468C564.286 630.967 565.225 630.967 566.165 629.468C567.724 626.83 814.026 626.51 815.585 629.088C817.224 631.746 804.973 657.807 802.095 657.807C798.417 657.807 798.877 653.211 803.494 644.237C805.672 640.02 807.091 636.183 806.692 635.803C806.292 635.404 757.187 635.024 697.63 634.944C622.364 634.864 588.569 634.245 586.85 632.766C585.051 631.267 584.352 631.267 584.352 632.766C584.352 634.245 563.826 634.864 514.802 634.944C476.609 634.944 445.392 634.325 445.552 633.545C446.091 629.788 445.072 628.628 443.433 631.187C441.875 633.685 422.908 634.084 294.96 634.544L148.186 635.024L154.901 648.374C158.558 655.709 165.054 667.261 169.191 674.056C173.408 680.931 176.746 687.326 176.746 688.345C176.746 692.942 170.67 689.505 166.133 682.25ZM192.994 610.342C190.336 605.905 194.952 604.486 211.96 604.486C228.288 604.486 229.847 604.806 229.607 608.083C229.368 611.281 227.429 611.681 211.8 611.98C201.268 612.22 193.773 611.521 192.994 610.342ZM234.444 608.323C234.684 604.566 235.703 604.426 265.282 604.966C290.883 605.345 295.819 605.905 295.819 608.323C295.819 610.741 290.883 611.281 264.982 611.681C234.923 612.22 234.144 612.14 234.444 608.323ZM669.371 610.901C668.671 610.202 668.112 608.403 668.112 606.984C668.112 604.886 677.485 604.566 720.034 604.966C767.66 605.425 771.957 605.745 772.496 608.783C773.116 611.92 769.678 612.141 721.913 612.141C693.733 612.141 670.07 611.601 669.371 610.901ZM234.923 593.174C234.204 592.075 234.844 590.676 236.323 590.136C240.859 588.417 270.118 590.136 270.598 592.155C271.217 594.733 236.482 595.752 234.923 593.174ZM692.873 592.155C692.873 589.817 696.151 589.277 710.98 589.277C725.81 589.277 729.088 589.817 729.088 592.155C729.088 594.493 725.81 594.973 710.98 594.973C696.151 594.973 692.873 594.493 692.873 592.155ZM379.819 575.687C363.651 573.588 356.936 570.53 356.156 564.914C355.617 561.477 357.096 559.918 363.491 557.1C372.624 552.963 371.765 551.964 358.035 550.085C352.639 549.385 348.202 547.827 348.122 546.648C348.122 545.468 347.342 545.708 346.403 547.187C344.984 549.466 339.368 549.685 313.687 548.526C265.901 546.488 243.417 542.83 239.84 536.415C238.821 534.616 233.125 532.278 226.01 530.879C198.15 525.183 195.951 509.494 221.653 499.881C232.805 495.664 265.981 489.269 286.287 487.31C298.937 486.071 299.397 485.831 295.34 483.093C293.002 481.535 291.043 479.116 291.043 477.637C291.043 473.42 307.511 474.279 314.946 478.876C322.66 483.653 324.139 481.694 321.181 470.602C319.143 463.028 319.383 461.469 322.98 455.313C325.478 451.176 326.258 447.959 325.159 447.259C323.92 446.48 323.999 445.161 325.478 443.442C327.037 441.483 327.117 440.704 325.558 440.704C322.281 440.704 323.06 434.688 327.197 427.973C330.934 421.817 344.205 411.905 346.703 413.383C349.201 414.862 345.924 419.699 339.688 423.536C331.334 428.692 327.737 437.266 331.094 443.682C333.293 447.819 333.133 449.458 329.456 456.632C326.018 463.507 325.718 465.926 327.357 470.762C329.375 476.538 329.375 476.538 339.688 469.583C352.099 461.169 353.198 456.472 348.042 433.449C345.923 424.156 346.083 422.917 349.841 417.84C352.099 414.783 353.898 410.186 353.898 407.608C353.898 402.451 362.252 391.299 364.51 393.558C365.21 394.257 364.43 397.855 362.712 401.432C360.993 405.029 360.133 409.326 360.773 410.885C361.392 412.684 359.914 415.482 356.936 418.06C351.859 422.437 350.46 428.133 353.898 430.251C354.977 430.871 355.837 433.769 355.837 436.647C355.837 439.545 356.776 442.822 357.875 443.982C359.434 445.461 359.354 447.179 357.795 450.157C353.978 457.332 356.476 457.891 365.829 452.096C373.564 447.259 374.903 445.54 374.903 440.244C374.962 436.886 376.142 432.51 377.541 430.631C379.579 428.053 379.739 425.715 378.26 420.878C375.362 411.585 377.461 406.209 389.173 392.379C394.888 385.584 399.645 379.188 399.645 378.089C399.645 376.07 411.356 366.457 413.855 366.457C414.634 366.457 414.934 369.035 414.474 372.153C413.375 379.508 414.554 379.348 422.429 371.234C428.924 364.599 433.92 362.64 433.92 366.697C433.92 367.956 430.862 371.534 427.125 374.811C422.288 379.108 420.09 382.865 419.231 388.322C418.232 394.797 418.451 395.656 420.729 393.798C422.208 392.539 426.026 391.299 429.144 390.9C434.22 390.36 435.239 389.021 438.597 379.348C440.715 373.252 442.894 368.336 443.593 368.336C444.213 368.336 446.251 373.492 448.21 379.808C450.068 386.063 452.267 391.22 453.126 391.22C453.906 391.22 457.723 395.576 461.7 400.972C467.876 409.486 468.815 411.905 468.415 420.019C468.116 425.715 468.815 429.312 470.054 429.312C471.533 429.312 472.093 417.521 471.853 390.36C471.613 353.667 471.773 350.848 475.83 342.654C478.648 336.799 479.667 332.042 478.968 328.365C478.328 325.167 479.108 319.771 480.747 315.714C482.385 311.897 484.104 304.482 484.504 299.326C485.523 287.454 488.101 282.078 489.96 288.013C490.679 290.272 491.599 295.808 491.918 300.345C492.318 304.941 493.957 311.817 495.596 315.714C497.314 319.851 498.094 325.167 497.375 328.445C496.375 333.521 498.793 341.335 504.649 351.948C505.968 354.366 505.968 356.085 504.489 357.564C503.17 358.823 502.451 370.914 502.451 390.66C502.451 421.658 502.451 421.658 507.227 421.658C511.504 421.658 511.984 420.958 511.984 413.463C511.984 409.007 510.965 404.33 509.725 403.071C508.087 401.352 509.486 398.714 515.961 391.759C520.578 386.763 526.653 379.808 529.551 376.31C532.589 372.633 536.186 370.214 538.065 370.594C539.844 370.994 546.339 377.709 552.415 385.503C561.708 397.615 563.187 400.652 562.267 405.269C560.229 414.622 560.069 437.746 562.028 440.244C565.545 444.841 566.464 442.503 565.625 431.271C564.766 418.92 571.461 395.037 575.838 395.037C577.177 395.037 578.656 399.254 579.435 404.79C580.674 414.243 580.834 414.403 584.352 411.205C586.93 408.847 587.549 406.988 586.31 404.71C585.291 402.851 585.291 400.353 586.23 398.794C588.109 395.816 588.489 396.056 591.447 401.592C593.326 404.95 593.725 404.63 596.523 397.994C598.162 394.017 599.581 389.96 599.581 389.101C599.581 388.162 600.36 387.382 601.379 387.382C602.379 387.382 605.517 394.797 608.235 403.85C612.691 418.46 613.011 421.198 610.973 427.433C609.174 432.909 609.174 435.408 610.893 438.685C612.152 441.024 612.611 444.381 611.832 446.1C611.132 447.898 610.353 454.294 610.113 460.39C609.734 470.443 610.113 471.701 614.95 475.139C618.467 477.637 620.646 478.177 621.505 476.858C622.225 475.679 624.783 474.04 627.281 473.02C630.099 472.021 632.357 469.043 633.377 465.226C634.236 461.868 635.795 458.811 636.814 458.511C639.472 457.652 651.404 476.858 651.404 482.014C651.404 485.991 652.343 486.451 660.077 486.451C673.887 486.451 713.479 493.866 722.612 498.163C738.061 505.417 741.819 515.27 732.205 522.984C727.609 526.662 709.582 531.119 691.455 533.137C683.261 533.997 679.523 535.256 679.523 537.034C679.523 544.309 655.081 549.066 616.509 549.226C602.239 549.306 601.999 549.386 602.858 553.902C604.577 563.036 600.82 563.515 523.616 564.215C469.035 564.675 451.947 564.295 450.308 562.496C448.67 560.697 448.909 560.378 451.487 561.317C453.346 561.956 454.845 561.637 454.845 560.618C454.845 559.518 471.473 558.819 498.394 558.899C546.799 559.059 593.485 557.1 594.804 554.922C595.284 554.142 594.424 552.963 592.866 552.423C589.108 550.944 589.188 546.188 593.025 544.689C594.744 544.07 601.759 543.61 608.794 543.53C623.304 543.53 663.595 540.252 668.671 538.613C671.469 537.754 671.709 536.975 669.83 534.776C666.173 530.339 669.53 529.08 690.995 526.742C732.205 522.125 741.199 514.95 719.414 504.098C704.185 496.524 681.702 494.026 626.042 493.946C593.325 493.866 573.659 494.505 571.241 495.824C566.325 498.482 558.43 498.402 553.594 495.824C546.959 492.307 282.689 493.246 260.126 496.843C231.786 501.44 209.162 509.954 209.162 515.97C209.162 518.768 220.394 523.704 231.166 525.483C243.198 527.521 244.836 528.301 245.855 531.978C246.555 534.696 249.753 536.035 259.826 537.674C275.894 540.252 322.441 543.53 344.365 543.61C363.571 543.69 374.823 545.948 378.1 550.465C381.138 554.682 378.56 557.959 369.267 561.876C363.491 564.295 362.951 564.994 365.689 566.553C370.825 569.451 403.622 572.009 436.258 572.089C461.62 572.089 466.237 572.569 466.237 574.987C466.237 577.485 461.001 577.805 429.543 577.645C409.398 577.485 386.994 576.626 379.819 575.687ZM568.663 488.789C569.123 487.23 567.184 486.451 562.647 486.451C557.331 486.451 556.092 487.07 557.031 489.429C558.35 492.866 567.404 492.466 568.663 488.789ZM414.474 485.991C414.154 484.652 414.554 483.333 415.334 483.093C418.771 481.934 420.57 482.874 420.57 485.672C420.57 487.71 421.569 488.329 423.528 487.63C425.247 486.93 454.126 486.451 487.701 486.451C535.327 486.451 548.358 485.911 546.639 484.192C542.822 480.375 543.841 476.298 548.138 477.637C550.236 478.257 553.674 479.356 555.773 479.976C558.91 480.995 559.609 480.295 559.609 476.158C559.609 469.823 562.408 469.823 566.465 476.078C568.903 479.816 570.062 480.375 571.321 478.497C572.64 476.458 573.42 476.538 575.378 478.796C580.215 484.652 586.391 486.451 601.52 486.451C610.433 486.451 616.429 485.671 615.809 484.652C612.372 479.116 556.472 443.822 530.251 430.711C521.117 426.194 514.242 426.814 470.374 436.327C447.57 441.323 438.757 442.582 437.198 441.023C435.639 439.465 436.718 438.286 441.335 436.727C449.129 433.989 445.852 431.271 434.62 431.271C418.771 431.191 383.876 447.339 346.323 472.241L326.338 485.511L369.107 486.531C392.69 487.07 412.676 487.71 413.455 487.93C414.314 488.17 414.794 487.23 414.474 485.991ZM517.68 468.803C517.76 466.385 535.167 454.054 538.605 454.054C542.902 454.054 540.004 458.191 531.49 464.447C521.977 471.462 517.68 472.801 517.68 468.803ZM489.101 465.526C489.101 463.108 507.307 453.814 508.866 455.393C511.364 457.892 509.806 459.83 502.531 463.587C494.337 467.724 489.101 468.504 489.101 465.526ZM455.845 459.83C454.366 457.492 457.103 456.093 486.922 444.761C514.562 434.149 515.801 433.829 515.801 437.506C515.801 438.905 504.01 444.601 488.241 450.857C459.042 462.328 457.563 462.728 455.845 459.83ZM312.827 483.653C307.671 479.736 303.074 479.736 306.272 483.573C307.591 485.132 310.409 486.451 312.588 486.451C316.505 486.451 316.505 486.371 312.827 483.653ZM632.217 483.493C624.323 480.055 624.323 480.055 624.323 483.573C624.323 485.591 626.362 486.371 631.418 486.371C638.613 486.291 638.612 486.291 632.217 483.493ZM644.069 477.018C640.012 470.223 638.533 469.823 635.715 474.979C633.996 478.177 634.316 478.796 637.354 478.796C639.392 478.796 642.05 480.135 643.369 481.694C647.346 486.451 647.826 483.333 644.069 477.018ZM603.478 456.392C601.919 453.035 601.919 451.016 603.238 449.597C605.976 446.879 605.816 438.206 603.018 435.408C601.219 433.609 601.38 431.89 604.018 427.433C607.295 421.817 606.995 415.562 602.938 407.688C601.219 404.33 600.98 404.33 598.881 408.547C597.702 410.965 594.584 413.463 591.926 414.083C586.23 415.422 584.971 420.179 588.808 425.635C590.907 428.613 591.387 433.289 590.667 444.221C589.748 458.811 589.748 458.811 596.063 462.888C601.519 466.305 602.699 466.465 604.098 464.047C605.037 462.408 604.797 459.29 603.478 456.392ZM579.675 425.255C577.017 423.136 574.679 419.559 574.519 417.281C574.359 414.943 573.739 416.981 573.12 421.658C570.921 437.826 572.64 447.339 578.256 450.777C583.333 453.814 583.333 453.814 583.952 441.403C584.432 430.091 584.112 428.692 579.675 425.255ZM386.374 440.624C389.652 438.905 390.032 436.567 390.032 420.638C390.032 402.372 388.633 398.794 384.656 407.448C383.017 411.125 383.017 414.323 384.736 420.718C386.674 427.973 386.594 429.612 383.796 432.669C380.758 436.107 379.26 442.662 381.598 442.662C382.238 442.662 384.336 441.723 386.374 440.624ZM553.834 420.718C553.834 404.57 553.834 404.57 548.138 404.57C542.422 404.57 542.422 404.57 542.422 417.361C542.422 429.392 542.742 430.471 547.658 433.449C550.556 435.168 553.134 436.647 553.354 436.727C553.674 436.887 553.834 429.612 553.834 420.718ZM402.443 433.129C407.06 431.331 407.379 430.471 406.98 420.798C406.66 413.543 407.519 409.246 409.558 406.988C411.656 404.49 412.376 400.193 411.976 390.66C411.656 383.485 410.957 377.23 410.417 376.61C408.618 374.811 405.341 377.949 405.341 381.446C405.341 383.325 403.162 386.683 400.584 388.941C396.047 392.938 395.808 394.097 395.808 414.083C395.808 425.555 396.208 435.008 396.587 435.008C397.067 435.008 399.725 434.149 402.443 433.129ZM462.4 423.616V415.962H437.658C412.915 415.962 412.915 415.962 412.915 422.277C412.915 428.693 412.915 428.692 423.927 425.954C434.06 423.456 435.719 423.616 445.312 427.054C461.081 432.83 462.4 432.51 462.4 423.616ZM495.276 424.156C496.055 423.776 496.755 408.467 496.755 390.28C496.755 358.503 496.515 357.164 492.778 355.925C490.599 355.225 486.762 355.225 484.184 355.845C479.587 357.024 479.587 357.024 479.587 392.299V427.593L486.682 426.274C490.679 425.555 494.497 424.615 495.276 424.156ZM485.283 394.097C485.283 391.14 486.382 389.341 488.181 389.341C489.96 389.341 490.979 391.14 490.979 394.097C490.979 397.075 489.96 398.854 488.181 398.854C486.382 398.854 485.283 397.075 485.283 394.097ZM484.104 375.131C482.325 370.374 484.264 363.659 487.701 363.02C490.44 362.48 490.979 363.739 490.979 370.135C490.979 378.009 486.522 381.307 484.104 375.131ZM536.726 415.022C536.726 404.57 536.726 404.57 527.213 404.57C517.68 404.57 517.68 404.57 517.68 413.144C517.68 421.198 518 421.657 522.916 421.737C525.794 421.737 529.471 422.597 531.03 423.616C536.027 426.814 536.726 425.715 536.726 415.022ZM456.244 404.09C451.787 398.234 450.708 397.855 438.437 397.455C425.566 397.135 425.166 397.215 419.87 403.711L414.474 410.266H461.001L456.244 404.09ZM536.726 388.002C536.726 382.006 536.027 377.949 535.167 378.948C534.308 379.887 530.331 384.804 526.353 389.801L519.079 398.854H527.912C536.726 398.854 536.726 398.854 536.726 388.002ZM550.636 392.998C544.62 382.705 542.422 382.146 542.422 390.98C542.422 398.474 542.742 398.854 548.278 398.854C554.054 398.854 554.053 398.854 550.636 392.998ZM445.312 389.341C445.312 388.241 444.453 387.382 443.433 387.382C442.354 387.382 441.495 388.241 441.495 389.341C441.495 390.36 442.354 391.22 443.433 391.22C444.453 391.22 445.312 390.36 445.312 389.341ZM491.759 349.21C495.676 350.769 496.375 350.529 495.436 348.191C494.017 344.613 481.226 345.313 479.967 349.05C479.348 351.088 479.967 351.168 483.025 349.529C485.683 348.11 488.561 348.031 491.759 349.21ZM490.679 333.761C489.82 325.007 485.283 324.388 485.283 332.981C485.283 337.898 486.143 339.756 488.241 339.756C490.44 339.756 491.059 338.198 490.679 333.761ZM489.101 316.973C489.101 314.854 488.801 313.136 488.401 313.136C488.021 313.136 487.242 314.854 486.682 316.973C486.063 318.991 486.463 320.71 487.382 320.71C488.321 320.71 489.101 318.991 489.101 316.973ZM478.648 576.006C476.769 572.948 480.207 572.489 514.482 571.55C543.441 570.69 546.419 570.93 545.86 573.728C545.32 576.466 541.183 576.946 512.524 577.405C491.599 577.725 479.427 577.245 478.648 576.006ZM559.609 573.109C559.609 571.31 561.408 570.231 564.366 570.231C567.324 570.231 569.123 571.31 569.123 573.109C569.123 574.827 567.264 575.926 564.366 575.926C561.408 575.926 559.609 574.827 559.609 573.109ZM101.26 559.218C97.4427 556.8 97.3629 548.526 101.1 547.747C103.379 547.347 104.458 548.286 104.458 550.864C104.458 552.963 104.937 556.021 105.557 557.74C106.796 560.857 104.937 561.557 101.26 559.298V559.218ZM311.029 533.997C278.392 532.358 269.578 530.959 263.963 526.582C261.624 524.703 256.548 522.605 252.711 521.905C237.262 519.087 236.562 508.315 251.551 502.859C263.483 498.482 283.548 495.364 285.747 497.543C288.325 500.041 286.047 501.06 270.898 504.258C246.395 509.414 240.859 513.551 255.369 515.81C259.826 516.509 264.742 518.708 266.301 520.646C269.818 525.103 298.617 528.301 334.931 528.301C371.145 528.301 393.869 530.259 393.869 533.377C393.869 536.255 360.133 536.495 311.029 533.997ZM405.341 533.217C405.341 531.578 407.919 529.94 411.656 529.24C419.711 527.681 473.192 528.841 474.891 530.559C479.028 534.776 471.533 535.955 439.456 535.955C410.877 535.955 405.341 535.476 405.341 533.217ZM580.534 525.483C580.534 523.064 584.751 522.605 607.155 522.605C629.639 522.605 633.856 523.064 633.856 525.483C633.856 527.901 629.639 528.301 607.155 528.301C584.751 528.301 580.534 527.901 580.534 525.483ZM666.633 520.486C667.192 518.767 672.189 517.369 681.622 516.509C706.764 514.011 709.961 511.673 693.733 507.536C688.337 506.217 685.299 504.498 685.839 502.999C687.877 497.223 710.98 505.577 710.98 512.132C710.98 517.848 701.927 521.126 682.801 522.205C668.751 522.985 665.853 522.685 666.633 520.486ZM493.877 507.376C491.678 503.858 497.454 503.559 555.632 504.018C599.88 504.418 613.711 505.117 614.33 506.916C615.349 509.954 495.735 510.414 493.877 507.376ZM626.202 506.437C626.202 504.178 629 503.558 639.552 503.558C650.164 503.558 652.902 504.178 652.902 506.437C652.902 508.715 650.164 509.334 639.552 509.334C629 509.334 626.202 508.715 626.202 506.437ZM93.9252 495.904C98.0622 484.272 97.6025 482.314 88.9288 475.998C81.1943 470.222 81.1943 470.222 87.3698 469.663C90.7274 469.283 94.1649 470.063 94.9443 471.302C97.6024 475.599 101.26 471.941 105.477 460.61C110.233 448.039 109.234 447.659 115.789 464.527C117.428 468.744 118.747 469.283 127.721 469.363L137.714 469.443L129.839 476.158C121.945 482.794 121.945 482.794 124.603 491.607C128.36 504.018 128.2 504.178 118.827 497.543C110.633 491.767 110.154 491.687 105.477 494.725C89.3885 505.118 90.7275 504.958 93.9252 495.904ZM830.035 499.182C830.035 497.703 831.274 492.926 832.773 488.649C835.491 480.835 835.491 480.835 826.837 474.579L818.084 468.344L829.175 467.405C840.347 466.465 840.347 466.465 843.066 457.412C844.624 452.415 846.423 448.358 847.062 448.358C847.682 448.358 849.701 452.655 851.499 457.892C854.937 467.405 854.937 467.405 865.789 467.485C875.782 467.485 876.321 467.724 872.824 470.303C859.313 480.136 858.694 480.835 860.553 485.592C862.052 489.569 861.732 490.288 858.534 490.288C856.416 490.288 854.777 491.227 854.777 492.387C854.777 493.566 856.416 494.105 858.454 493.566C860.633 492.926 862.591 493.726 863.211 495.365C865.469 501.36 863.99 501.36 855.716 495.584L847.203 489.569L838.628 495.744C832.693 499.961 830.035 501.06 830.035 499.182ZM911.936 446.32C911.936 442.962 912.715 441.024 913.795 441.723C914.814 442.343 915.673 441.963 915.673 440.864C915.673 439.764 916.532 438.825 917.632 438.825C918.651 438.825 919.51 441.803 919.51 445.46C919.51 450.856 918.791 452.175 915.673 452.175C912.715 452.175 911.936 450.856 911.936 446.32ZM911.216 435.628C910.597 434.928 909.977 432.35 909.977 429.932C909.977 425.475 909.977 425.475 913.874 429.392C915.993 431.49 917.232 434.069 916.612 435.088C915.293 437.186 913.095 437.426 911.216 435.628ZM910.137 420.958C908.798 419.319 907.639 411.825 907.479 403.711C907.319 395.816 906.54 389.341 905.76 389.341C903.882 389.341 900.064 374.192 901.163 371.154C901.703 369.735 901.543 368.336 900.764 368.016C900.064 367.716 895.308 354.985 890.311 339.756C885.315 324.627 875.702 300.965 868.987 287.294C857.515 263.811 826.437 214.067 819.802 208.611C816.365 205.793 815.585 200.797 818.563 200.797C819.582 200.797 819.882 199.557 819.342 198.078C818.783 196.579 816.685 195.64 814.726 196.04C812.308 196.5 811.528 195.88 812.228 194.002C812.787 192.443 813.867 191.283 814.646 191.283C818.863 191.283 845.803 228.117 861.892 255.997C887.733 300.884 906.08 351.548 914.654 401.672C917.072 415.802 917.152 419.159 915.053 421.278C912.935 423.376 912.155 423.296 910.137 420.958ZM96.8033 415.102C96.8033 402.291 118.128 332.182 121.945 332.182C122.805 332.182 123.444 330.863 123.444 329.224C123.444 325.167 131.158 307.44 132.957 307.44C133.737 307.44 134.916 305.022 135.535 302.204C137.414 293.63 148.186 278.021 150.524 280.439C152.003 281.918 149.046 289.413 140.132 306.9C128.041 330.543 120.466 349.529 112.032 376.93C107.735 390.98 107.595 391.519 105.477 403.63C104.777 407.767 103.758 412.684 103.218 414.563C102.039 418.54 96.8033 418.999 96.8033 415.102ZM852.059 415.482C851.659 414.163 849.401 404.57 847.062 394.097C841.047 366.777 830.275 337.898 815.125 308.379C807.871 294.329 802.394 282.298 802.954 281.758C806.292 278.401 810.209 283.797 823.08 309.778C838.849 341.875 844.005 355.525 842.286 361.001C841.507 363.419 841.986 364.439 843.545 364.119C845.104 363.819 847.682 370.454 851.04 383.565C858.754 413.623 859.314 417.92 855.716 417.92C854.077 417.92 852.438 416.821 851.979 415.482H852.059ZM241.559 397.855C241.559 395.496 244.836 395.037 259.586 395.037C274.415 395.037 277.693 395.496 277.693 397.855C277.693 400.193 274.415 400.733 259.586 400.733C244.836 400.733 241.559 400.193 241.559 397.855ZM677.645 397.855C677.645 395.496 680.922 395.037 695.752 395.037C710.581 395.037 713.859 395.496 713.859 397.855C713.859 400.193 710.581 400.733 695.752 400.733C680.922 400.733 677.645 400.193 677.645 397.855ZM195.812 382.705C195.812 380.287 203.307 379.888 249.273 379.808C291.203 379.808 302.595 380.287 301.975 382.146C300.736 386.063 195.812 386.603 195.812 382.705ZM652.902 382.626C652.902 378.808 741.419 378.329 743.217 382.146C744.077 384.104 744.556 384.104 745.416 382.146C747.054 378.728 757.667 379.108 757.667 382.626C757.667 385.124 750.552 385.503 705.285 385.503C659.997 385.503 652.902 385.124 652.902 382.626ZM126.562 368.736C125.003 366.238 148.806 312.756 152.403 310.497C158.479 306.74 157.619 310.558 147.407 333.281C132.577 366.078 132.717 364.599 144.129 364.599C149.905 364.599 153.962 365.458 154.582 366.937C155.361 368.815 155.521 368.815 155.681 366.937C155.92 363.499 159.658 363.959 159.658 367.397C159.658 369.735 156.62 370.294 143.57 370.294C134.756 370.294 127.021 369.595 126.562 368.736ZM163.415 367.477C166.992 363.18 353.898 363.1 353.898 367.397C353.898 369.895 341.866 370.294 257.487 370.294C172.548 370.294 161.376 369.895 163.415 367.477ZM602.778 369.036C602.159 368.416 601.999 367.097 602.539 366.238C603.158 365.298 652.343 364.599 712 364.599H820.441L817.304 356.464C815.585 352.027 810.449 340.316 805.912 330.403C796.939 311.117 797.018 302.843 806.152 316.493C811.228 324.228 827.996 363.579 828.076 367.876C828.076 369.735 804.433 370.294 716.057 370.294C654.461 370.294 603.478 369.735 602.778 369.036ZM678.824 334.38C678.044 333.121 677.884 330.623 678.504 328.764C679.983 324.068 675.146 317.992 669.91 317.912C660.777 317.832 664.914 313.855 678.104 310.018C695.992 304.862 698.41 306.42 691.375 318.691C682.481 334.22 680.302 336.878 678.824 334.38ZM687.177 315.014C687.177 314.155 685.539 313.915 683.5 314.474C681.322 315.014 680.223 316.493 680.842 318.132C681.622 320.251 682.481 320.33 684.519 318.691C685.998 317.432 687.177 315.794 687.177 315.014ZM264.422 326.346C254.589 318.532 254.59 318.532 259.266 312.516C261.764 309.159 265.761 306.201 268.1 305.801C272.696 305.181 279.651 310.258 279.651 314.395C279.651 315.874 281.67 316.973 284.568 316.973C292.142 316.973 289.025 321.57 280.891 322.269C273.396 322.909 272.237 324.627 276.754 328.365C279.572 330.703 279.032 334.061 275.894 334.061C274.975 334.061 269.819 330.543 264.422 326.346ZM271.997 316.893C273.636 313.855 273.396 312.836 270.978 311.896C267.081 310.417 263.563 313.855 265.042 317.752C266.621 321.889 269.579 321.49 271.997 316.893ZM283.708 303.223L273.556 293.55L280.191 286.914C288.165 278.94 293.082 280.119 286.826 288.473C283.788 292.61 283.249 294.709 284.808 296.208C286.286 297.767 287.766 296.907 290.184 293.31C292.762 289.333 294.021 288.793 296.12 290.512C298.378 292.37 298.238 293.39 294.96 296.907C292.762 299.166 291.043 301.584 291.043 302.284C291.043 305.022 296.279 303.463 299.637 299.785C301.516 297.687 303.774 295.968 304.713 295.968C308.151 295.968 305.953 301.284 300.097 306.98L293.941 312.916L283.708 303.223ZM746.575 303.003C739.4 295.648 739.16 293.789 744.476 285.276C748.453 278.88 748.454 278.88 737.601 266.529C726.829 254.198 726.829 254.198 720.114 257.016C710.821 260.913 709.801 260.593 703.806 252.719C697.55 244.525 696.531 245.384 722.532 236.091C744.696 228.197 744.316 228.197 744.316 233.113C744.316 235.312 745.556 236.95 747.195 236.95C749.233 236.95 750.012 235.392 749.632 231.954C749.073 227.197 750.012 226.558 767.58 220.622L786.166 214.387L791.862 221.341C795.06 225.159 797.638 228.916 797.638 229.616C797.638 230.615 754.549 307.14 753.05 308.858C752.831 309.078 749.853 306.42 746.575 303.003ZM756.648 294.089C757.347 293.01 756.488 292.211 754.929 292.211C753.29 292.211 751.891 293.01 751.891 294.089C751.891 295.109 752.75 295.968 753.69 295.968C754.689 295.968 756.028 295.109 756.648 294.089ZM751.891 268.408C751.891 266.769 751.112 265.53 750.012 265.53C748.993 265.53 748.134 266.769 748.134 268.408C748.134 269.967 748.993 271.226 750.012 271.226C751.112 271.226 751.891 269.967 751.891 268.408ZM766.88 249.122C772.496 240.228 773.895 236.87 771.477 237.89C769.618 238.589 763.363 241.008 757.667 243.186C751.891 245.385 746.815 247.403 746.415 247.723C745.336 248.502 755.628 261.693 757.347 261.693C758.207 261.693 762.423 256.077 766.88 249.122ZM652.742 303.383C650.164 298.466 654.541 294.169 657.259 298.926C659.538 303.063 661.636 302.364 669.99 294.869C680.762 285.116 683.88 288.633 673.587 299.086C664.294 308.619 656.4 310.258 652.742 303.383ZM644.309 294.089C643.689 293.01 647.267 287.534 652.263 281.838C659.218 273.944 661.956 272.005 663.834 273.564C665.773 275.123 664.374 277.701 657.199 285.576C647.586 296.208 646.187 297.147 644.309 294.089ZM303.314 283.637C294.161 272.864 294.161 272.865 299.717 268.328C306.512 262.792 312.208 262.392 316.505 267.089C320.642 271.765 320.402 274.883 315.565 280.119C312.128 283.797 311.808 284.956 313.927 287.454C315.645 289.493 315.805 291.052 314.466 292.371C313.067 293.71 309.55 290.891 303.314 283.637ZM311.888 276.062C314.546 272.944 313.067 269.347 309.23 269.347C305.093 269.347 302.215 274.024 304.793 276.602C307.751 279.58 309.15 279.42 311.888 276.062ZM195.891 290.032C195.891 288.553 196.431 284.176 197.051 280.279C198.07 273.944 198.85 273.165 203.766 273.165C216.177 273.165 228.368 260.134 222.512 253.099C218.675 248.582 211.72 249.821 200.888 257.016C188.077 265.53 179.564 267.009 170.11 262.552C149.905 252.959 151.923 224.06 173.628 211.269C181.442 206.732 194.553 204.773 196.431 207.911C196.891 208.691 196.731 212.748 196.032 216.965C194.953 223.98 194.313 224.619 188.157 225.239C180.423 225.938 177.065 228.356 174.647 234.692C172.469 240.388 175.426 244.605 181.602 244.605C184.02 244.605 191.435 241.327 197.99 237.41C212.12 228.976 222.353 228.197 231.486 234.692C247.255 245.924 243.417 272.085 223.911 286.515C216.577 291.911 195.812 294.569 195.812 290.032H195.891ZM632.597 283.557C632.057 281.998 632.057 276.682 632.757 271.685C634.076 262.632 634.076 262.632 629.08 268.887C624.643 274.343 618.627 277.161 618.627 273.804C618.627 270.746 634.236 252.179 636.814 252.179C638.912 252.179 639.552 254.738 639.552 262.792C639.552 273.404 639.552 273.404 644.548 267.548C648.905 262.312 652.902 261.233 652.902 265.37C652.902 267.788 637.513 286.435 635.575 286.435C634.555 286.435 633.217 285.196 632.677 283.557H632.597ZM327.817 268.887C321.721 262.172 317.504 254.898 318.923 253.499C321.421 251 323.36 252.24 328.356 259.814C333.753 267.868 336.79 269.108 340.388 264.731C342.186 262.552 341.627 260.374 337.809 254.278C332.573 246.004 331.954 243.506 334.612 241.867C336.63 240.608 345.624 253.818 347.262 260.453C349.921 270.826 335.311 277.161 327.817 268.887ZM604.797 265.05C600.82 262.792 597.622 260.214 597.622 259.274C597.622 256.396 609.874 236.95 611.672 236.95C614.25 236.95 626.202 244.685 626.202 246.323C626.202 249.601 623.544 249.901 619.247 247.023C615.969 244.905 614.01 244.605 612.611 246.004C611.133 247.403 612.072 249.042 615.649 251.32C621.745 255.377 619.326 259.434 612.851 255.997C609.574 254.278 608.155 254.278 606.436 256.077C604.877 257.715 604.877 258.575 606.436 259.194C611.832 261.153 615.649 265.37 613.87 267.168C612.531 268.488 609.654 267.788 604.797 265.05ZM352.259 248.582C348.981 242.406 346.243 236.951 346.243 236.471C346.243 236.011 349.681 234.133 353.818 232.254C362.332 228.357 367.248 229.376 367.248 234.912C367.248 237.031 368.967 239.689 371.066 240.768C377.241 244.125 375.822 251.24 368.107 255.837C364.35 258.035 360.613 259.814 359.753 259.814C358.894 259.814 355.537 254.738 352.259 248.582ZM366.149 251C369.267 249.821 370.366 244.605 367.408 244.605C363.491 244.605 359.594 247.023 359.594 249.521C359.594 252.399 361.392 252.799 366.149 251ZM361.392 239.988C362.951 238.05 363.031 236.95 361.552 236.011C359.054 234.452 353.498 238.589 354.977 241.008C356.476 243.426 358.814 243.046 361.392 239.988ZM577.956 250.681C577.397 249.821 577.477 242.566 578.116 234.612C578.955 223.44 579.755 220.402 581.774 221.102C583.572 221.801 584.352 225.559 584.432 232.893V243.586L590.607 236.331C595.204 230.935 597.622 229.456 600.2 230.395C603.238 231.554 602.299 233.113 593.645 241.947C583.952 251.78 579.975 253.958 577.956 250.681ZM378.88 235.851C375.682 226.878 374.963 222.741 376.461 221.262C377.94 219.763 379.579 221.722 382.397 228.197C384.496 233.193 386.294 238.11 386.294 239.129C386.294 240.848 389.572 240.308 397.227 237.41C398.546 236.951 399.565 237.969 399.565 239.688C399.565 242.566 396.987 244.125 387.234 247.183C383.876 248.182 382.777 246.624 378.88 235.851ZM401.983 227.897C398.306 215.786 398.945 208.771 403.242 213.208C405.58 215.626 411.116 237.19 409.877 239.209C407.599 242.806 405.661 240.068 401.983 227.897ZM544.46 235.771C539.384 229.216 539.464 224.999 545 218.683C553.354 208.93 569.123 213.987 569.123 226.418C569.123 233.753 562.108 240.768 554.833 240.768C550.157 240.768 547.338 239.369 544.46 235.771ZM561.468 232.194C566.945 225.618 558.83 215.946 551.256 220.163C548.198 221.881 546.879 231.254 549.377 233.753C551.715 236.091 559.05 235.072 561.468 232.194ZM242.498 206.352C229.927 188.545 218.755 172.697 217.736 171.058C216.257 168.959 216.956 167.301 220.554 164.423C231.086 156.069 229.927 155.289 251.152 184.728C262.084 199.777 271.837 212.208 272.936 212.128C273.955 212.128 280.431 207.831 287.226 202.595C294.021 197.439 300.177 193.142 300.876 193.142C303.315 193.142 310.569 206.732 308.93 208.211C301.815 214.467 267.32 238.969 265.901 238.829C265.602 238.749 255.049 224.139 242.498 206.352ZM416.733 226.098C413.615 210.17 413.615 209.31 416.653 209.31C418.152 209.31 419.93 211.489 420.57 214.067C421.729 218.844 421.729 218.843 424.007 214.706C426.885 209.39 431.722 204.554 434.22 204.554C435.239 204.554 434.22 207.752 431.962 211.649C427.745 218.764 427.745 218.763 434.62 224.539C438.437 227.737 441.495 230.935 441.495 231.714C441.495 234.912 434.699 232.813 429.703 228.057C426.026 224.459 424.307 223.76 424.147 225.619C424.067 227.198 423.847 229.995 423.688 232.034C423.068 240.308 418.931 236.791 416.813 226.098H416.733ZM521.977 233.673C517.22 232.813 516.9 231.414 519.399 221.721C520.338 218.064 521.657 212.748 522.296 209.85C522.996 206.572 524.315 205.094 526.034 205.713C528.072 206.493 528.212 208.371 527.053 213.767C524.155 226.178 524.795 229.376 530.091 229.376C532.989 229.376 534.848 230.395 534.848 232.194C534.848 234.992 531.11 235.471 521.977 233.673ZM677.565 230.235C673.887 227.577 671.009 224.539 671.009 223.44C671.009 222.421 682.881 206.652 697.39 188.385L723.791 155.209L731.206 161.225C737.601 166.301 738.221 167.54 736.042 170.119C734.703 171.837 722.532 187.066 709.182 204.074C695.752 221.102 684.599 235.072 684.44 235.072C684.28 235.072 681.162 232.893 677.565 230.235ZM698.569 205.413C698.569 203.774 697.71 202.995 696.691 203.614C695.592 204.314 695.212 205.633 695.832 206.572C697.47 209.231 698.569 208.771 698.569 205.413ZM702.387 198.858C702.387 197.838 701.607 196.979 700.588 196.979C699.669 196.979 698.25 197.838 697.63 198.858C697.011 199.937 697.79 200.797 699.429 200.797C701.068 200.797 702.387 199.937 702.387 198.858ZM446.171 227.897C446.871 226.098 448.829 219.623 450.468 213.607C454.765 198.298 458.742 198.778 466.237 215.326C469.355 222.261 471.933 228.277 471.933 228.676C471.933 230.475 466.477 228.976 464.518 226.638C461.94 223.6 454.685 224.839 452.347 228.676C449.988 232.653 444.612 231.954 446.171 227.897ZM460.541 217.045C460.541 215.566 459.682 213.767 458.662 213.128C457.563 212.508 456.704 212.348 456.704 212.908C456.704 213.367 456.244 215.166 455.544 216.805C454.845 218.764 455.465 219.843 457.483 219.843C459.122 219.843 460.541 218.603 460.541 217.045ZM494.337 229.216C490.739 227.118 489.74 221.721 492.938 221.721C494.017 221.721 496.515 222.741 498.634 224.06C501.292 225.699 502.93 225.778 504.409 224.3C505.888 222.821 504.569 221.102 499.733 218.204C489.58 212.268 491.379 202.675 502.611 202.675C509.086 202.675 514.003 207.831 509.946 210.409C508.307 211.429 506.988 211.349 506.588 210.25C505.729 207.751 498.634 207.831 498.634 210.33C498.634 211.429 500.112 212.828 501.991 213.527C506.828 215.246 511.984 220.003 511.984 222.82C511.984 229.616 501.512 233.353 494.337 229.216ZM852.199 215.246C848.701 209.93 848.142 206.493 850.72 206.493C853.618 206.493 858.294 215.246 856.815 217.664C855.796 219.383 854.397 218.604 852.199 215.246ZM640.012 204.314C635.575 202.275 631.897 199.557 631.897 198.298C631.897 197.059 630.179 183.149 628.08 167.461C626.042 151.692 624.323 138.042 624.243 136.942C624.163 135.923 618.927 145.756 612.611 158.886C606.296 171.997 600.82 183.009 600.36 183.469C598.941 184.868 584.352 177.373 584.272 175.275C584.272 174.096 592.546 156.309 602.699 135.684L621.205 98.2105L630.019 102.667C638.853 107.204 638.853 107.204 642.43 139.201L645.947 171.218L657.119 147.475C663.275 134.444 668.671 123.432 669.051 123.052C670.23 121.793 683.82 127.329 684.599 129.368C684.979 130.467 679.743 143.737 672.888 158.886C653.362 202.055 650.404 208.371 649.225 208.211C648.606 208.131 644.469 206.432 640.012 204.314ZM804.433 188.865C803.254 185.267 803.794 179.792 805.292 179.792C805.992 179.792 807.951 181.371 809.65 183.309C812.088 185.967 812.308 187.226 810.509 189.005C807.631 191.903 805.292 191.823 804.433 188.865ZM328.676 186.667C318.763 183.089 313.067 179.092 307.371 171.598C298.458 159.886 292.842 136.543 299.637 139.121C301.196 139.761 302.455 139.361 302.455 138.262C302.455 137.182 301.196 136.003 299.637 135.684C297.299 135.144 297.518 133.425 301.276 125.55C315.565 94.7926 353.418 89.4766 375.442 115.158C403.862 148.414 369.347 201.196 328.676 186.667ZM313.847 170.358C315.406 169.419 316.025 167.94 315.246 167.161C314.466 166.381 312.368 167.24 310.569 168.959C307.131 172.457 309.23 173.316 313.847 170.358ZM353.738 166.841C360.913 162.944 367.248 152.951 367.168 145.616C367.088 138.341 360.533 125.311 355.217 121.793C335.551 108.923 311.648 126.95 317.904 150.053C322.361 166.521 339.368 174.575 353.738 166.841ZM793.102 176.294C790.224 173.236 788.505 170.359 789.364 169.879C790.223 169.419 789.983 169.259 788.744 169.499C787.565 169.799 781.63 165.602 775.614 160.206C740.499 128.429 701.927 102.347 663.754 84.64C648.366 77.4451 641.411 73.2282 640.711 70.5101C640.172 68.3917 640.012 66.3732 640.331 66.0535C641.411 64.9543 672.408 78.8643 688.417 87.598C721.913 105.785 752.671 128.049 783.109 156.069C800.756 172.297 801.536 173.316 799.657 178.473C798.658 181.51 797.878 181.29 793.181 176.294H793.102ZM529.631 165.982C507.927 162.304 506.368 161.764 507.227 158.107C507.687 155.909 510.265 140.84 513.003 124.611C515.661 108.363 518.699 90.7156 519.718 85.4194L521.577 75.6663L547.738 80.1034C562.108 82.5217 574.599 84.5601 575.538 84.5601C577.017 84.64 575.618 99.7091 573.959 101.348C573.58 101.728 565.466 100.568 555.852 98.7698C546.259 97.051 538.065 95.9518 537.665 96.3515C537.286 96.8112 536.346 100.649 535.647 104.926C534.228 113.599 531.57 112.28 562.188 118.196C567.324 119.215 567.564 119.615 566.405 127.109C565.685 131.406 564.826 135.144 564.606 135.463C564.286 135.763 558.97 135.144 552.735 134.125C546.559 133.045 539.224 131.786 536.426 131.326C531.73 130.547 531.19 131.086 530.011 138.121C529.312 142.318 529.231 146.316 529.791 146.935C530.41 147.475 538.845 149.353 548.518 151.072C566.245 154.19 566.245 154.19 565.685 159.886C564.526 172.077 565.305 171.917 529.631 165.982ZM431.102 145.996C427.045 136.862 418.451 118.196 411.976 104.626L400.185 79.8637L409.797 78.3847C416.732 77.3055 420.01 77.6052 421.569 79.324C424.227 82.2219 445.312 131.166 445.392 134.604C445.392 136.083 446.411 135.683 447.97 133.665C449.289 131.866 451.088 131.007 451.947 131.786C452.727 132.566 452.806 131.246 452.107 128.908C451.088 125.55 451.488 124.611 454.206 124.531C457.483 124.451 457.483 124.292 454.366 121.953C452.567 120.634 451.547 118.995 452.187 118.356C452.727 117.816 453.506 115.318 453.746 112.9C454.605 105.785 462.56 76.1264 464.039 74.8673C466.237 72.8488 483.405 71.2895 483.405 73.0882C483.405 74.0275 481.226 82.7615 478.568 92.5145C475.91 102.347 470.754 121.334 467.096 134.824C463.499 148.254 460.061 160.046 459.442 160.985C458.902 161.924 453.986 162.704 448.43 162.704C438.517 162.704 438.517 162.704 431.182 145.996H431.102ZM430.083 103.686C430.083 102.587 429.223 101.728 428.144 101.728C427.125 101.728 426.266 102.587 426.266 103.686C426.266 104.706 427.125 105.565 428.144 105.565C429.223 105.565 430.083 104.706 430.083 103.686Z" fill="#C83E3D"/>
</svg>
