<svg width="961" height="559" viewBox="0 0 961 559" fill="none" xmlns="http://www.w3.org/2000/svg">
<path fill-rule="evenodd" clip-rule="evenodd" d="M386.144 557.689C370.849 556.887 355.033 555.713 351.022 555.135C344.028 554.183 343.804 553.885 345.408 549.744C347.311 544.708 346.285 542.171 342.349 542.171C340.465 542.171 339.943 543.253 340.671 546.032C342.648 553.754 340.391 554.481 321.738 552.579C271.751 547.487 237.581 540.847 203.634 529.768C97.3169 494.945 23.9583 420.485 3.47829 326.571C-1.46451 303.76 -1.11017 257.056 4.35489 232.659C26.0659 134.661 106.867 57.795 222.715 24.9301C279.324 8.83331 343.449 1.98792 452.228 0.309204C546.216 -1.14563 615.658 2.49139 679.038 12.1158C846.981 37.6132 960.721 146.318 960.647 281.396C960.647 363.503 919.537 435.723 843.045 487.744C765.956 540.194 681.947 557.317 494.774 558.623C450.326 558.921 401.439 558.547 386.144 557.689ZM524.356 549.091C524.356 548.139 523.181 547.337 521.726 547.337C520.271 547.337 519.115 548.139 519.115 549.091C519.115 550.023 520.271 550.826 521.726 550.826C523.181 550.826 524.356 550.023 524.356 549.091ZM605.157 536.184C644.494 533.125 657.625 531.819 662.344 530.514C664.9 529.768 665.403 530.216 664.619 532.398C663.873 534.226 664.47 535.681 666.149 536.333C669.786 537.714 671.316 535.755 668.91 532.901C667.306 530.943 669.637 530.14 682.097 528.238C797.143 511.339 890.627 447.233 925.748 361.172C958.091 281.845 939.943 192.576 878.522 128.897C822.211 70.5351 748.106 38.416 642.536 26.6093C627.744 24.9305 612.524 23.4758 608.663 23.252C604.858 23.1028 583.744 21.9455 561.735 20.7145C512.997 17.8607 401.01 19.1663 354.66 23.046C283.11 29.0892 247.559 35.9348 195.912 53.7848C189.775 55.8925 176.084 62.0111 165.527 67.4016C87.7855 106.907 38.6002 166.201 22.5781 240.007C17.915 261.364 18.2692 304.414 23.3052 326.199C39.7004 397.245 89.5949 456.334 163.625 492.538C223.368 521.766 276.563 532.173 403.547 539.317C431.599 540.921 573.019 538.74 605.157 536.184ZM434.006 531.446C338.563 528.462 272.777 521.113 227.956 508.206C145.476 484.611 83.048 437.906 50.9851 375.831C15.7886 307.621 19.8733 231.409 62.1389 167.301C68.6111 157.397 75.5312 148.351 77.5083 147.12C79.4667 145.945 81.0707 144.061 81.0707 143.036C81.0707 140.406 107.389 115.206 120.501 105.227C174.126 64.4164 240.565 41.8287 330.468 33.8269C391.031 28.4924 387.021 28.568 387.021 32.429C387.021 35.4879 385.417 36.0092 370.906 37.035C340.969 39.1427 301.035 43.2836 284.434 46.0628C148.834 68.3521 54.1187 146.095 36.5671 249.558C30.5798 284.456 35.8395 325.993 50.4068 359.791C67.5294 399.501 102.278 438.335 143.369 463.832C199.773 498.805 257.184 513.969 361.803 521.393C377.098 522.493 389.856 524.097 390.229 524.974C390.583 525.981 391.609 525.981 392.84 525.048C394.09 524.022 410.69 523.948 435.684 524.825C534.111 528.238 653.018 520.311 713.357 506.322C723.112 504.065 732.364 502.666 733.819 503.263C735.218 503.767 736.449 503.468 736.449 502.46C736.449 501.509 740.534 499.327 745.551 497.648C750.587 495.97 760.939 491.96 768.586 488.751C776.159 485.469 783.806 483.138 785.485 483.585C787.313 484.089 788.619 483.435 788.619 482.204C788.619 480.955 795.39 476.143 803.764 471.48C861.698 439.138 904.243 387.993 919.985 331.664C925.376 312.21 927.633 273.021 924.424 252.541C910.006 159.803 831.817 84.8969 718.972 55.6131C664.321 41.4748 588.612 34.3311 487.854 33.902C455.94 33.6782 436.057 32.951 435.255 31.8506C434.378 30.7687 433.502 30.824 432.625 32.0737C431.898 33.1556 423.001 34.4054 411.94 34.9836C395.246 35.7856 392.337 35.5619 391.46 33.2304C390.882 31.7009 390.658 30.2457 391.031 29.8914C392.616 28.2873 462.506 26.2361 493.897 26.9075C568.282 28.3624 635.765 32.8759 637.07 36.4385C637.425 37.4644 638.451 37.465 639.757 36.3645C642.163 34.406 670.663 37.819 696.011 43.2281C704.834 45.1119 712.406 46.6411 712.91 46.6411C713.432 46.6411 713.787 47.816 713.787 49.2709C713.787 52.1806 716.696 52.834 717.573 50.0735C718.375 47.6674 743.891 55.091 767.71 64.6409C800.425 77.8279 840.415 101.945 839.333 107.988C839.11 109.667 839.688 110.973 840.788 110.973C841.814 110.973 842.169 110.17 841.59 109.238C839.483 105.806 843.698 107.56 847.559 111.7C849.816 114.106 850.991 116.811 850.264 117.967C849.387 119.366 850.04 119.72 852.297 118.993C854.778 118.191 858.993 121.399 869.718 132.255C968.574 232.435 949.344 384.058 827.527 464.784C805.816 479.146 777.315 494.068 778.565 490.431C778.864 489.703 778.267 488.901 777.259 488.751C776.308 488.602 775.73 489.479 776.01 490.729C776.308 492.035 774.126 493.862 771.198 494.869C767.262 496.268 765.956 496.193 765.956 494.589C765.882 493.489 764.576 494.217 762.897 496.269C757.731 502.666 715.54 514.472 677.284 520.236C619.948 528.835 511.971 533.853 434.006 531.372V531.446ZM690.266 493.937C691.199 489.554 690.77 488.099 687.487 485.768C683.477 483.007 683.477 483.007 689.091 483.007C693.53 483.007 694.855 482.205 695.713 478.698C696.31 476.292 697.466 474.333 698.193 474.333C698.921 474.333 700.021 476.292 700.674 478.698C701.476 481.981 702.856 483.006 706.512 483.081C711.25 483.137 711.25 483.137 707.314 486.42C704.031 489.124 703.659 490.43 705.113 494.142C707.016 499.327 705.915 499.905 701.551 495.895C698.79 493.414 698.044 493.415 693.754 496.269C689.091 499.327 689.091 499.327 690.266 493.937ZM221.185 482.13C221.987 478.848 221.26 476.945 218.126 474.408C214.042 470.976 214.042 470.977 219.507 470.902C223.89 470.827 225.195 469.951 226.072 466.537C227.378 461.072 230.157 460.849 230.884 466.09C231.313 469.093 232.843 470.174 237.431 470.827C243.475 471.703 243.475 471.704 238.961 474.688C235.398 477.02 234.671 478.549 235.398 482.41C236.349 487.223 236.349 487.222 231.817 484.313C227.956 481.757 227.154 481.757 225.27 483.939C222.062 487.875 219.954 487.017 221.185 482.204V482.13ZM726.824 479.948C727.85 475.21 727.347 473.681 723.989 470.827C719.904 467.488 719.905 467.488 725.444 467.414C729.827 467.414 731.282 466.388 732.588 462.602C734.266 457.789 734.267 457.789 736.151 462.602C737.549 466.034 739.284 467.339 742.492 467.339C747.752 467.339 748.106 469.223 743.369 472.226C740.757 473.811 740.161 475.49 740.963 478.698C742.138 483.585 741.41 483.939 736.523 480.88C733.763 479.22 732.513 479.425 729.38 482.204C725.593 485.618 725.593 485.618 726.824 479.948ZM184.832 464.635C185.56 460.196 185.112 458.442 183.005 457.64C178.64 455.962 179.591 453.499 184.534 453.499C187.668 453.499 189.421 452.1 190.801 448.687C192.704 443.874 192.704 443.874 194.382 448.687C195.613 452.1 197.292 453.499 200.276 453.499C205.014 453.499 205.965 456.484 201.731 458.088C199.623 458.89 199.25 460.568 200.127 465.436C201.302 471.629 201.302 471.629 197.572 468.29C194.009 465.008 193.505 465.008 188.842 467.694C183.881 470.548 183.881 470.548 184.832 464.635ZM399.182 467.843C396.123 466.687 394.015 463.833 394.015 460.848C393.941 457.79 398.604 458.162 399.835 461.296C401.085 464.56 407.855 464.71 407.855 461.427C407.855 460.047 404.946 457.491 401.364 455.756C397.802 454.003 394.594 451.167 394.221 449.414C393.419 444.9 398.884 439.585 404.423 439.585C408.583 439.585 414.85 444.024 414.85 447.083C414.85 448.966 408.732 448.389 406.606 446.281C404.647 444.304 400.935 445.554 400.935 448.165C400.935 449.042 403.845 451.168 407.408 452.902C421.042 459.542 413.469 473.233 399.182 467.843ZM418.263 454.301C418.263 440.741 418.561 439.585 421.77 439.585C424.605 439.585 425.258 440.741 425.258 446.057V452.548L429.641 446.057C432.252 442.27 435.46 439.585 437.512 439.585C441.876 439.585 441.802 440.667 436.71 447.307C432.55 452.772 432.55 452.771 436.71 459.617C441.653 467.842 441.877 469.092 437.867 469.092C436.188 469.092 433.427 466.687 431.749 463.758C428.391 457.864 425.258 458.367 425.258 464.858C425.258 467.917 424.325 469.092 421.77 469.092C418.561 469.092 418.263 467.917 418.263 454.301ZM458.272 454.301C458.272 439.585 458.272 439.585 465.043 439.585C469.053 439.585 473.436 440.89 475.824 442.849C479.405 445.702 479.628 446.635 477.875 450.571C476.551 453.35 476.42 455.457 477.502 456.11C480.057 457.714 479.479 463.329 476.42 466.388C474.741 468.067 470.657 469.092 465.994 469.092C458.272 469.092 458.272 469.092 458.272 454.301ZM471.888 459.972C472.261 457.715 471.309 456.913 467.971 456.913C464.613 456.913 463.513 457.864 463.513 460.568C463.513 465.082 471.03 464.56 471.888 459.972ZM471.459 449.769C472.764 447.662 468.903 444.453 466.143 445.404C465.117 445.703 464.11 447.232 463.811 448.836C463.159 452.174 469.5 452.977 471.459 449.769ZM489.607 456.913C489.607 445.106 489.458 444.751 485.224 444.751C482.464 444.751 480.859 443.801 480.859 442.047C480.859 439.865 482.967 439.51 492.517 439.939C499.81 440.237 504.324 441.244 504.827 442.569C505.275 443.949 503.801 444.751 501.041 444.751C496.602 444.751 496.527 445.05 496.527 456.913C496.527 467.918 496.229 469.092 493.021 469.092C489.887 469.092 489.607 467.918 489.607 456.913ZM520.85 466.239C520.85 464.709 523.628 460.42 526.911 456.764C530.548 452.698 532.582 448.967 531.929 447.438C530.623 444.024 527.993 444.023 526.688 447.381C525.587 450.291 519.115 451.018 519.115 448.239C519.115 445.553 525.811 439.585 528.795 439.585C538.718 439.585 541.05 448.314 533.682 457.939C529.168 463.907 529.168 463.907 534.559 463.907C538.196 463.907 540.024 464.709 540.024 466.462C540.024 468.495 537.767 469.092 530.399 469.092C522.752 469.092 520.85 468.496 520.85 466.239ZM553.434 465.661C552.763 463.105 551.028 462.154 547.093 462.154C540.173 462.154 540.303 459.896 547.895 448.687C555.822 436.805 559.105 436.656 559.105 448.239C559.105 452.977 559.907 456.913 560.858 456.913C561.809 456.913 562.611 458.088 562.611 459.543C562.611 460.923 561.809 462.154 560.858 462.154C559.907 462.154 559.105 463.702 559.105 465.585C559.105 467.563 558.023 469.092 556.699 469.092C555.393 469.092 553.863 467.563 553.434 465.585V465.661ZM553.938 453.276C553.938 450.142 553.491 449.918 551.308 451.746C549.854 452.902 548.697 454.581 548.697 455.383C548.697 456.259 549.854 456.913 551.308 456.913C552.838 456.913 553.938 455.383 553.938 453.276ZM761.368 462.676C762.245 458.236 761.666 456.558 758.887 454.581C755.399 452.101 755.399 452.045 760.342 450.944C763.7 450.217 766.031 448.24 767.206 445.106C768.94 440.443 768.94 440.443 770.265 445.18C771.347 448.967 772.653 449.992 776.663 449.992C782.501 449.992 783.079 451.746 778.192 454.731C775.506 456.484 774.984 458.087 775.861 462.526C776.961 468.066 776.887 468.141 773.529 465.156C771.645 463.478 769.463 462.154 768.661 462.154C767.859 462.154 765.602 463.478 763.699 465.156C760.342 468.141 760.267 468.067 761.368 462.602V462.676ZM442.679 456.036C442.679 454.227 444.507 453.499 448.722 453.499C453.031 453.499 454.84 454.227 454.84 456.036C454.84 457.864 453.031 458.666 448.722 458.666C444.507 458.666 442.679 457.864 442.679 456.036ZM505.275 456.036C505.275 454.227 507.084 453.499 511.318 453.499C515.608 453.499 517.436 454.227 517.436 456.036C517.436 457.864 515.608 458.666 511.318 458.666C507.084 458.666 505.275 457.864 505.275 456.036ZM151.389 447.009C152.34 443.371 151.744 441.693 148.554 439.287C144.544 436.153 144.544 436.153 149.86 436.078C154.019 436.078 155.549 435.053 157.004 431.266C158.813 426.529 158.813 426.529 160.715 431.266C162.17 434.847 163.923 436.078 167.486 436.152C172.373 436.152 172.373 436.152 168.363 439.51C165.304 442.046 164.651 443.875 165.602 447.438C166.759 452.045 166.684 452.1 162.394 449.265C158.533 446.71 157.806 446.71 155.828 449.042C152.415 453.276 150.083 452.175 151.389 447.009ZM794.438 444.173C795.464 440.386 794.811 438.633 791.752 436.003C787.742 432.721 787.742 432.721 793.431 432.646C797.795 432.59 799.045 431.844 799.045 429.233C799.045 423.992 802.309 423.265 803.559 428.207C804.435 431.714 805.741 432.59 810.106 432.646C815.571 432.721 815.571 432.721 811.561 436.003C808.577 438.559 807.924 440.387 808.726 443.8C809.957 448.687 807.625 449.713 804.361 445.703C802.458 443.502 801.656 443.501 797.721 446.057C793.282 448.967 793.282 448.966 794.438 444.173ZM457.47 430.688C375.867 422.313 315.397 376.335 306.649 315.94C304.896 304.058 305.045 299.825 307.526 287.738C318.959 232.211 369.171 193.452 446.763 180.34C467.523 176.852 516.56 179.258 537.394 184.779C591.019 198.991 628.771 225.664 646.098 261.513C678.31 328.4 632.557 398.625 540.024 424.57C528.515 427.778 490.26 432.646 479.255 432.366C474.891 432.291 465.117 431.49 457.47 430.688ZM509.938 423.843C566.976 416.699 618.418 386.687 638.171 349.01C647.049 332.186 649.959 321.032 649.959 304.562C649.829 246.2 594.675 198.413 513.93 186.532C440.497 175.751 364.209 201.902 330.188 249.558C309.783 278.189 306.574 314.84 321.944 345.299C342.871 386.893 392.187 416.4 453.982 424.421C465.042 425.876 496.452 425.596 509.938 423.843ZM347.087 370.87C345.128 368.539 359.919 368.24 480.859 368.24C588.836 368.24 616.665 368.688 616.087 370.441C615.509 372.176 586.878 372.698 482.314 373.053C365.515 373.426 348.989 373.202 347.087 370.87ZM339.216 363.074C338.488 361.899 386.498 361.321 481.811 361.321C577.104 361.321 625.04 361.899 624.313 363.074C623.66 364.175 574.194 364.827 481.811 364.827C389.352 364.827 339.943 364.175 339.216 363.074ZM332.296 354.326C331.568 353.245 337.537 352.647 348.84 352.647C362.176 352.647 366.317 352.069 365.739 350.465C365.31 348.935 359.472 348.134 346.938 347.779C323.268 347.127 319.482 343.918 342.349 343.918C364.937 343.918 364.284 340.71 341.547 340.057C329.666 339.759 323.622 338.882 323.193 337.502C322.671 336.121 323.846 335.674 326.551 336.253C332.52 337.502 355.835 335.096 354.734 333.268C354.231 332.466 346.434 331.739 337.462 331.739C328.509 331.739 320.713 331.011 320.134 330.004C319.407 328.903 325.077 328.251 335.802 328.251C348.467 328.251 352.403 327.728 351.824 326.142C351.395 324.594 345.856 323.812 334.329 323.438C312.991 322.786 312.039 319.577 333.172 319.577C345.93 319.577 348.765 319.148 348.765 316.947C348.765 314.839 345.93 314.411 333.172 314.411C323.846 314.411 317.505 313.683 317.505 312.658C317.505 311.632 323.921 310.904 333.247 310.904C343.3 310.904 348.616 310.252 347.963 309.151C347.311 308.219 340.316 307.416 332.296 307.416C324.275 307.416 317.225 306.614 316.628 305.663C315.975 304.563 321.515 303.91 332.147 303.91C345.781 303.91 348.765 303.48 348.765 301.354C348.765 299.172 345.93 298.742 333.172 298.742C323.846 298.742 317.505 298.015 317.505 296.989C317.505 295.963 323.846 295.236 333.172 295.236C345.93 295.236 348.765 294.807 348.765 292.625C348.765 290.498 345.93 290.07 333.172 290.07C323.846 290.07 317.505 289.343 317.505 288.317C317.505 287.235 324.145 286.564 334.049 286.564C343.879 286.564 350.519 285.836 350.519 284.829C350.519 283.803 344.102 283.075 334.776 283.075C322.895 283.075 319.109 282.572 319.687 280.893C320.135 279.438 325.674 278.562 337.182 278.263C358.52 277.61 359.472 274.402 338.339 274.402C329.088 274.402 322.746 273.674 322.746 272.648C322.746 271.641 329.61 270.913 339.943 270.913C353.578 270.913 357.289 270.391 358.091 268.284C358.968 266.101 356.562 265.654 342.647 265.654C319.836 265.654 321.589 262.446 344.755 261.867C358.595 261.439 363.482 260.786 364.06 258.958C364.713 256.981 362.027 256.776 348.187 257.783C333.471 258.883 331.419 258.735 331.419 256.254C331.419 253.922 334.198 253.493 350.444 253.493C361.225 253.493 369.898 252.766 370.551 251.74C371.204 250.658 365.31 250.061 354.081 250.061C343.599 250.061 336.604 249.333 336.604 248.326C336.604 247.225 344.326 246.573 356.264 246.573C370.906 246.573 376.818 245.921 379.299 244.018C382.358 241.686 380.679 241.462 363.053 241.406C350.369 241.332 343.729 240.735 344.457 239.578C345.054 238.627 354.305 237.9 366.186 237.9C387.226 237.9 392.262 237.098 392.262 233.965C392.262 232.733 386.573 232.51 374.99 233.237C357.793 234.412 351.451 233.666 353.279 230.756C353.783 229.88 365.31 229.152 378.851 229.152C392.486 229.152 404.722 228.35 406.177 227.417C407.93 226.317 401.215 225.738 385.771 225.738C373.107 225.738 362.68 225.011 362.68 224.134C362.68 221.28 367.045 220.852 395.974 220.703C411.791 220.628 426.656 219.825 428.913 218.893C431.898 217.718 424.4 217.214 403.621 217.14C382.06 216.99 374.71 216.487 376.091 215.088C378.777 212.402 581.767 212.403 586.356 215.014C588.762 216.413 581.767 216.99 559.18 217.14C519.32 217.345 526.762 220.553 568.226 221.075C588.687 221.224 597.864 222.008 599.393 223.556C601.147 225.29 596.707 225.738 577.328 225.738C561.007 225.738 553.938 226.317 555.691 227.417C557.072 228.35 569.382 229.152 582.942 229.152C597.509 229.152 608.067 229.88 608.72 230.906C609.391 232.006 602.974 232.659 590.664 232.659C572.945 232.659 565.745 234.263 572.367 236.799C573.821 237.396 584.752 237.9 596.558 237.9C609.018 237.9 618.493 238.627 619.146 239.578C619.799 240.735 612.879 241.406 599.692 241.406C581.264 241.462 579.51 241.686 582.495 244.018C585.05 245.921 590.944 246.573 605.53 246.573C617.467 246.573 625.189 247.225 625.189 248.326C625.189 249.333 618.195 250.061 607.712 250.061C596.484 250.061 590.59 250.658 591.317 251.814C591.895 252.765 598.237 253.493 605.306 253.493C612.45 253.493 618.269 254.22 618.269 255.022C618.269 257.055 612.002 258.66 603.851 258.735C599.841 258.735 597.659 259.462 598.237 260.488C598.89 261.439 607.265 262.241 617.467 262.241C628.397 262.241 635.616 262.894 635.616 263.976C635.616 265.002 628.901 265.654 618.922 265.654C604.206 265.654 602.452 266.027 604.355 268.284C605.959 270.242 610.473 270.913 622.783 270.913C632.557 270.913 639.104 271.641 639.104 272.648C639.104 273.674 632.762 274.402 623.436 274.402C614.185 274.402 607.861 275.054 607.861 276.155C607.861 278.039 608.29 278.113 627.67 278.486C637.369 278.71 641.659 279.438 642.163 281.042C642.76 282.777 640.559 283.299 632.762 283.075C615.938 282.572 611.275 282.926 611.275 284.829C611.275 285.836 617.989 286.564 627.819 286.564C637.649 286.564 644.363 287.235 644.363 288.317C644.363 289.343 637.947 290.07 628.696 290.07C615.938 290.07 613.028 290.498 613.028 292.625C613.028 294.807 616.012 295.236 629.572 295.236C639.402 295.236 646.098 295.963 646.098 296.989C646.098 298.015 639.701 298.742 630.431 298.742C617.691 298.742 614.781 299.172 614.781 301.354C614.781 303.48 617.691 303.91 630.505 303.91C640.559 303.91 645.893 304.563 645.222 305.663C644.569 306.614 637.499 307.416 629.423 307.416C620.824 307.416 614.781 308.144 614.781 309.151C614.781 310.177 620.899 310.904 629.572 310.904C649.026 310.904 648.728 314.112 629.274 314.765C619.071 315.063 613.905 315.94 613.457 317.395C612.879 319.073 616.665 319.577 628.546 319.577C637.872 319.577 644.289 320.304 644.289 321.33C644.289 322.337 637.649 323.065 627.819 323.065C614.259 323.065 611.275 323.513 611.275 325.695C611.275 327.803 614.184 328.251 627.017 328.251C637.07 328.251 642.386 328.903 641.734 330.004C641.081 330.936 633.359 331.739 624.387 331.739C611.573 331.739 607.992 332.336 607.19 334.369C606.332 336.551 608.72 336.998 622.709 336.998C633.359 336.998 638.899 337.577 638.227 338.733C637.649 339.685 629.852 340.487 620.824 340.487C611.853 340.487 604.056 341.213 603.478 342.165C602.751 343.321 608.44 343.918 619.071 343.918C629.778 343.918 635.466 344.571 634.739 345.653C634.161 346.604 626.141 347.406 616.591 347.406C603.553 347.406 599.039 347.984 597.36 350.036C595.458 352.293 597.36 352.647 612.879 352.647C624.238 352.647 630.225 353.245 629.572 354.326C628.845 355.502 577.402 356.08 480.934 356.08C384.391 356.08 332.949 355.502 332.221 354.326H332.296ZM467.02 314.037C467.02 311.501 467.449 308.2 468.027 306.689C468.978 304.283 465.49 303.91 436.057 303.91C417.834 303.91 401.737 304.413 400.208 305.01C398.38 305.737 397.503 308.274 397.503 312.807V319.503L432.252 319.074C466.833 318.701 467.02 318.701 467.02 314.112V314.037ZM436.561 347.406C437.139 346.455 436.915 345.653 435.908 345.653C434.957 345.653 433.726 346.455 433.129 347.406C432.551 348.357 432.774 349.159 433.8 349.159C434.733 349.159 435.983 348.357 436.561 347.406ZM368.872 331.888C372.081 329.127 376.091 326.068 377.769 325.117C379.504 324.091 380.53 322.934 380.101 322.487C378.627 321.032 360.927 332.466 360.927 334.798C360.927 338.081 362.531 337.502 368.872 331.888ZM605.455 326.142C609.894 313.459 609.521 293.856 604.653 281.322C596.483 260.562 574.474 240.38 547.597 229.226C507.812 212.626 454.038 212.626 414.197 229.226C371.055 247.151 348.989 280.24 354.734 318.122C356.637 330.936 357.364 331.235 370.253 323.737C381.761 316.947 381.761 316.948 381.761 307.845C381.836 298.743 381.836 298.742 393.792 298.742H405.747L406.4 273.972C406.978 251.385 407.407 248.68 411.063 243.514C416.006 236.519 418.785 236.445 423.523 243.066C426.06 246.722 427.16 250.938 427.235 257.727L427.384 267.258L433.353 261.289C437.941 256.626 439.545 255.899 440.273 257.932C441.877 261.942 510.442 261.793 510.442 257.727C510.442 256.254 511.468 255.396 512.624 255.825C513.855 256.198 514.601 257.503 514.377 258.528C514.079 259.61 514.657 260.488 515.534 260.488C516.41 260.488 518.387 260.991 519.917 261.587C521.651 262.24 522.603 261.644 522.603 259.909C522.603 256.701 527.993 244.82 529.448 244.895C530.045 244.895 532.227 247.599 534.335 250.937C537.916 256.402 538.271 259.032 538.271 280.37V303.761L546.496 304.786C554.237 305.812 557.221 306.894 564.794 311.632C566.976 313.012 568.729 312.937 571.284 311.352C574.922 309.02 583.147 308.498 587.68 310.251C589.563 310.978 590.44 313.534 590.44 318.7C590.44 324.091 591.541 327.299 594.674 330.656C600.643 337.054 601.874 336.55 605.455 326.142ZM589.209 329.407C586.579 325.845 584.099 325.117 572.217 324.166C550.656 322.487 545.265 322.786 545.265 325.472C545.265 328.176 555.542 329.93 572.012 330.135C577.831 330.209 584.173 330.937 586.076 331.739C591.82 334.22 592.473 333.716 589.209 329.407ZM541.777 328.325C540.303 327.373 537.618 326.571 535.641 326.571C532.806 326.571 532.656 326.87 534.782 328.325C536.237 329.201 538.998 330.004 540.9 330.004C543.81 330.004 543.959 329.705 541.777 328.325ZM529.597 323.942C529.597 321.536 529.392 319.577 529.168 319.577C528.87 319.502 520.122 317.974 509.64 316.146C484.944 311.781 484.422 311.78 484.422 316.518C484.497 323.941 486.399 324.968 496.676 323.009C507.084 321.032 515.981 321.983 522.677 325.695C528.721 329.127 529.597 328.903 529.597 323.942ZM482.016 318.271C481.438 314.69 480.934 310.401 480.934 308.722C480.934 306.54 479.479 305.663 475.693 305.663C470.955 305.663 470.508 306.241 470.433 311.352C470.433 314.485 470.004 318.775 469.426 320.883C468.4 324.539 468.903 324.818 475.767 324.818C483.116 324.818 483.117 324.818 482.016 318.271ZM542.784 322.058C542.206 320.528 541.777 317.395 541.777 315.138C541.777 311.557 540.901 310.904 536.517 310.904C531.78 310.904 531.351 311.408 531.351 316.742C531.351 323.811 532.227 324.818 538.774 324.818C542.71 324.818 543.661 324.165 542.784 322.058ZM395.75 311.483C396.627 300.702 396.627 300.702 391.385 301.727C388.55 302.231 386.07 302.828 385.92 302.884C385.846 303.033 385.193 307.621 384.54 313.161C383.29 323.289 383.29 323.289 389.054 322.785C394.817 322.207 394.892 322.133 395.75 311.483ZM586.934 318.7C586.934 316.294 585.927 314.411 584.602 314.411C581.264 314.411 580.312 315.94 581.263 319.726C582.569 324.669 586.934 323.867 586.934 318.7ZM578.279 318.925C578.279 315.94 570.688 314.411 556.344 314.411C547.82 314.411 545.265 314.989 545.265 316.873C545.265 319.428 550.656 320.379 569.159 321.032C575.873 321.256 578.279 320.734 578.279 318.925ZM529.243 313.087C528.721 310.475 526.184 309.952 510.516 309.523C500.537 309.3 492.815 309.449 493.319 309.953C494.196 310.829 520.644 315.641 526.688 315.94C528.795 316.07 529.672 315.138 529.243 313.087ZM490.26 306.54C489.682 305.159 488.152 303.984 486.828 303.984C485.448 303.984 484.422 305.159 484.422 306.54C484.422 307.994 485.951 309.151 487.779 309.151C490.111 309.151 490.913 308.349 490.26 306.54ZM510.218 300.496C511.244 297.567 512.698 295.236 513.501 295.236C516.056 295.236 519.189 299.321 519.189 302.529C519.189 305.084 520.644 305.663 526.986 305.663C534.782 305.663 534.782 305.663 534.782 290.07V274.402H427.011V288.317C427.011 301.355 428.988 306.539 431.021 298.742C432.047 294.807 437.437 295.684 437.437 299.75C437.437 301.653 440.72 302.231 451.781 302.231C464.315 302.231 466.441 301.727 468.325 298.742C471.03 294.508 481.736 293.856 483.265 297.866C483.844 299.321 485.373 300.496 486.754 300.496C488.078 300.496 490.186 301.652 491.342 303.107C492.666 304.637 496.453 305.663 500.966 305.663C507.663 305.663 508.539 305.159 510.218 300.496ZM447.845 290.07C447.845 288.093 448.647 286.564 449.599 286.564C450.55 286.564 451.352 288.093 451.352 290.07C451.352 291.954 450.55 293.501 449.599 293.501C448.647 293.501 447.845 291.954 447.845 290.07ZM463.513 290.144C463.513 288.167 464.315 286.564 465.266 286.564C466.218 286.564 467.02 287.664 467.02 289.044C467.02 290.424 466.218 292.028 465.266 292.625C464.315 293.277 463.513 292.102 463.513 290.144ZM494.848 290.07C494.848 288.093 495.576 286.564 496.602 286.564C497.534 286.564 498.28 288.093 498.28 290.07C498.28 291.954 497.534 293.501 496.602 293.501C495.576 293.501 494.848 291.954 494.848 290.07ZM432.252 289.193C432.252 287.738 432.998 286.564 434.006 286.564C434.957 286.564 435.684 287.738 435.684 289.193C435.684 290.574 434.957 291.748 434.006 291.748C432.998 291.748 432.252 290.574 432.252 289.193ZM479.181 289.193C479.181 287.738 479.983 286.564 480.934 286.564C481.885 286.564 482.687 287.738 482.687 289.193C482.687 290.574 481.885 291.748 480.934 291.748C479.983 291.748 479.181 290.574 479.181 289.193ZM510.442 289.193C510.442 287.738 511.243 286.564 512.195 286.564C513.127 286.564 513.93 287.738 513.93 289.193C513.93 290.574 513.127 291.748 512.195 291.748C511.243 291.748 510.442 290.574 510.442 289.193ZM524.356 289.193C524.356 287.738 525.158 286.564 526.109 286.564C527.06 286.564 527.844 287.738 527.844 289.193C527.844 290.574 527.06 291.748 526.109 291.748C525.158 291.748 524.356 290.574 524.356 289.193ZM463.513 279.569C463.513 277.685 464.315 276.155 465.266 276.155C466.218 276.155 467.02 277.685 467.02 279.569C467.02 281.546 466.218 283.075 465.266 283.075C464.315 283.075 463.513 281.546 463.513 279.569ZM494.848 279.569C494.848 277.685 495.576 276.155 496.602 276.155C497.534 276.155 498.28 277.685 498.28 279.569C498.28 281.546 497.534 283.075 496.602 283.075C495.576 283.075 494.848 281.546 494.848 279.569ZM524.356 279.718C524.356 277.76 525.158 276.155 526.109 276.155C527.06 276.155 527.844 277.237 527.844 278.635C527.844 280.016 527.06 281.621 526.109 282.199C525.158 282.777 524.356 281.695 524.356 279.718ZM432.252 278.766C432.252 277.312 432.998 276.155 434.006 276.155C434.957 276.155 435.684 277.312 435.684 278.766C435.684 280.165 434.957 281.322 434.006 281.322C432.998 281.322 432.252 280.165 432.252 278.766ZM447.845 278.766C447.845 277.312 448.647 276.155 449.599 276.155C450.55 276.155 451.352 277.312 451.352 278.766C451.352 280.165 450.55 281.322 449.599 281.322C448.647 281.322 447.845 280.165 447.845 278.766ZM479.181 278.766C479.181 277.312 479.983 276.155 480.934 276.155C481.885 276.155 482.687 277.312 482.687 278.766C482.687 280.165 481.885 281.322 480.934 281.322C479.983 281.322 479.181 280.165 479.181 278.766ZM510.442 279.569C510.442 278.636 511.243 277.908 512.195 277.908C513.127 277.908 513.93 278.636 513.93 279.569C513.93 280.595 513.127 281.322 512.195 281.322C511.243 281.322 510.442 280.595 510.442 279.569ZM424.978 282.05C424.176 260.917 423.299 258.809 415.503 258.809C413.47 258.734 410.765 260.058 409.459 261.587C407.352 264.124 407.631 264.274 412.294 263.322C415.148 262.744 418.636 263.043 420.091 263.976C421.994 265.226 420.744 265.654 415.279 265.654L407.93 265.729V302.231H425.705L424.978 282.05ZM414.85 272.648C414.85 271.716 415.652 270.913 416.603 270.913C417.535 270.913 418.338 271.716 418.338 272.648C418.338 273.6 417.535 274.402 416.603 274.402C415.652 274.402 414.85 273.6 414.85 272.648ZM478.752 301C477.073 300.552 474.294 300.552 472.634 301C471.03 301.429 472.335 301.801 475.693 301.801C479.031 301.801 480.43 301.429 478.752 301ZM530.474 265.729C531.78 265.729 533.179 267.053 533.608 268.713C534.186 271.044 534.484 270.839 534.633 267.855C534.782 264.777 533.906 263.976 530.474 263.976C527.061 263.976 526.184 264.777 526.315 267.855C526.464 270.839 526.762 271.044 527.34 268.713C527.714 267.053 529.168 265.729 530.474 265.729ZM532.656 260.991C530.978 260.637 528.217 260.637 526.538 260.991C524.86 261.439 526.259 261.794 529.597 261.794C532.955 261.794 534.335 261.439 532.656 260.991ZM425.258 254.444C425.258 252.038 424.53 250.061 423.523 250.061C421.62 250.061 421.192 255.825 422.926 257.578C424.903 259.536 425.258 258.958 425.258 254.444ZM410.765 251.385C410.336 250.135 409.888 251.161 409.888 253.567C409.888 255.899 410.261 256.925 410.765 255.676C411.269 254.519 411.269 252.541 410.765 251.385ZM420.091 253.567C420.091 251.236 418.934 250.061 416.603 250.061C412.294 250.061 411.94 254.724 416.155 255.825C417.834 256.254 419.438 256.701 419.662 256.85C419.942 256.925 420.091 255.451 420.091 253.567ZM620.022 255.32C620.022 254.294 622.354 253.567 625.189 253.567C628.099 253.567 630.431 254.294 630.431 255.32C630.431 256.253 628.043 256.981 625.189 256.981C622.354 256.981 620.022 256.253 620.022 255.32ZM392.262 206.565C393.866 205.558 428.335 204.904 480.934 204.904C533.533 204.904 568.002 205.558 569.606 206.565C571.285 207.74 540.453 208.318 480.934 208.318C421.341 208.318 390.583 207.74 392.262 206.565ZM427.011 199.644C394.221 197.91 421.341 196.156 480.934 196.156C536.088 196.156 550.432 196.809 550.432 199.439C550.432 200.745 450.774 200.894 427.011 199.644ZM448.722 190.972C450.699 190.114 465.117 189.442 480.934 189.442C496.676 189.442 511.169 190.114 513.071 190.972C515.179 191.848 502.347 192.445 480.934 192.445C459.503 192.445 446.689 191.848 448.722 190.972ZM120.277 426.677C121.08 423.469 120.576 421.063 118.599 418.806C115.838 415.822 115.913 415.598 120.203 414.517C122.833 413.864 125.444 411.458 126.545 408.679C128.428 403.941 128.428 403.941 130.032 409.555C131.282 414.069 132.513 415.244 136.15 415.244C140.608 415.244 140.608 415.318 137.624 418.601C135.498 420.933 134.919 423.395 135.647 426.528C136.822 430.911 136.747 430.986 132.513 428.207C128.578 425.596 127.925 425.651 123.71 428.43C119.102 431.415 119.102 431.415 120.277 426.752V426.677ZM825.699 423.544C826.65 419.833 825.997 418.303 822.062 415.393C817.324 411.812 817.324 411.812 823.013 411.812C827.527 411.737 829.056 410.805 830.586 406.944C832.488 402.206 832.488 402.206 834.148 406.944C835.547 410.805 836.928 411.737 841.367 411.812C846.832 411.812 846.832 411.812 842.747 415.244C839.688 417.855 838.886 419.757 839.763 423.04C840.938 427.852 838.886 428.786 835.603 424.85C833.794 422.593 832.917 422.667 829.056 425.222C824.542 428.132 824.543 428.133 825.699 423.544ZM315.322 412.259C310.958 407.876 310.51 407.745 307.451 410.506C298.573 418.526 287.195 411.233 285.442 396.368C284.863 391.928 283.837 384.486 283.035 379.898C281.73 372.698 281.954 371.747 284.36 372.772C285.815 373.425 293.108 375.31 300.457 376.914C314.091 379.898 318.083 382.024 321.142 387.62C323.622 392.283 321.216 399.352 316.273 401.907C311.965 404.164 311.965 404.165 317.355 409.275C322.615 414.218 324.07 416.997 321.366 416.997C320.638 416.997 317.952 414.87 315.322 412.259ZM310.585 399.203C310.585 395.865 310.286 395.715 308.402 398.27C307.153 399.799 304.243 401.404 301.837 401.833C298.703 402.337 299.356 402.635 304.019 402.784C309.633 403.008 310.585 402.561 310.585 399.203ZM305.698 397.468C304.542 396.368 303.516 393.812 303.441 391.854C303.366 389.877 302.937 389.224 302.434 390.474C301.035 393.887 298.423 391.127 298.274 386.016C298.125 383.405 297.696 382.304 297.174 383.629C296.521 385.363 295.439 385.158 292.585 382.752C288.948 379.618 288.948 379.693 291.354 383.032C294.693 387.77 305.847 399.576 306.873 399.576C307.376 399.576 306.798 398.625 305.698 397.468ZM640.857 415.524C640.857 414.741 642.834 412.408 645.222 410.357C650.183 405.992 650.631 403.866 646.9 402.412C642.89 400.882 640.633 393.383 642.61 388.216C644.494 383.255 656.226 377.063 663.948 376.988C666.578 376.988 671.614 375.832 675.028 374.358C681.22 371.747 681.22 371.747 680.269 379.17C679.691 383.181 678.739 390.623 678.161 395.64C676.706 407.522 672.043 413.491 664.321 413.491C660.46 413.491 657.625 412.334 656.021 410.077C653.689 406.645 653.466 406.72 648.653 411.738C643.692 416.923 640.857 418.303 640.857 415.524ZM663.015 401.833C660.385 401.404 658.278 400.527 658.278 399.874C658.278 398.195 668.611 388.497 671.969 387.117C673.722 386.315 673.946 385.886 672.472 385.811C671.241 385.736 670.737 384.86 671.316 383.909C671.894 382.957 671.167 382.677 669.637 383.255C668.182 383.833 666.951 385.289 666.951 386.538C666.951 390.026 662.288 393.234 661.188 390.548C660.684 389.298 660.237 389.951 660.162 392.003C659.957 396.946 654.846 401.404 654.622 396.741C654.548 394.839 654.193 394.41 653.615 395.715C651.712 400.378 654.547 403.082 661.262 402.784C666.503 402.56 666.876 402.337 663.015 401.833ZM93.3999 398.345C94.9294 394.335 94.6308 393.159 91.1242 390.548C87.1886 387.489 87.1886 387.49 91.9262 387.415C95.6566 387.415 97.1864 386.165 98.9956 381.726C101.327 376.112 101.327 376.112 102.502 380.625C103.304 384.057 105.113 385.512 109.198 386.314C114.813 387.489 114.812 387.49 110.877 390.176C107.743 392.433 107.165 393.962 108.116 398.196C109.198 403.363 109.198 403.363 104.684 400.378C100.45 397.618 99.8721 397.618 96.9624 400.229C92.4486 404.314 91.3482 403.736 93.3999 398.345ZM852.371 396.088C853.173 391.779 852.726 390.026 850.544 388.795C846.906 386.762 848.51 383.909 853.173 383.909C855.281 383.909 857.109 382.454 857.687 380.42C858.135 378.518 859.142 376.988 859.87 376.988C860.597 376.988 861.623 378.518 862.127 380.42C862.724 382.827 864.533 383.909 867.517 383.909C872.908 383.909 873.355 385.736 868.692 388.646C865.913 390.399 865.633 391.705 866.79 396.014C868.319 401.18 868.244 401.18 864.253 398.55C860.522 396.088 859.72 396.144 855.654 398.774C851.196 401.684 851.196 401.683 852.371 396.088ZM72.4163 369.341C72.4163 368.894 73.1436 366.505 74.0762 364.025C75.4751 360.369 75.1769 359.213 72.3418 357.385C67.6788 354.476 68.0329 352.647 73.2742 352.647C76.4823 352.647 78.2358 351.267 79.6161 347.853C81.5186 343.116 81.5186 343.116 83.1973 347.853C84.5029 351.714 85.9576 352.648 90.3222 352.722C95.8618 352.722 95.8621 352.722 91.7213 356.154C88.7929 358.634 87.8601 360.817 88.4384 363.951C89.3896 368.688 88.1399 369.415 84.8571 366.207C83.2717 364.528 81.6676 364.753 77.5828 367.159C74.7477 368.838 72.4163 369.845 72.4163 369.341ZM870.296 367.662C870.296 367.158 871.098 364.827 871.975 362.347C873.43 358.635 872.982 357.46 869.121 354.476C864.607 350.913 864.607 350.912 870.147 350.912C874.511 350.912 876.041 349.887 877.571 346.1C879.548 341.363 879.547 341.363 881.375 346.1C882.755 349.887 884.285 350.912 888.501 350.912C893.835 350.987 893.835 350.988 889.601 354.177C886.393 356.658 885.74 358.336 886.617 361.973C887.848 367.009 885.889 367.961 882.532 363.951C880.648 361.694 879.771 361.843 875.314 364.976C872.553 366.935 870.296 368.11 870.296 367.662ZM58.4831 332.689C58.4831 332.335 59.2107 330.004 60.162 327.672C61.5422 323.867 61.1132 322.71 57.103 319.726C52.3654 316.219 52.3653 316.22 58.0542 316.146C62.6426 316.146 64.1721 315.213 65.7016 311.352C67.6041 306.54 67.6041 306.54 69.2828 311.352C70.5885 315.213 72.0431 316.146 76.4077 316.146C81.9474 316.22 81.9474 316.22 77.8626 319.652C74.5239 322.413 74.0763 323.942 75.1022 328.68C76.2773 334.369 76.2772 334.368 72.4721 330.936C68.835 327.672 68.406 327.673 63.5938 330.433C60.7587 332.037 58.4831 333.062 58.4831 332.689ZM885.591 324.967C886.169 321.032 885.442 319.429 882.234 317.601C878.167 315.344 878.242 315.343 884.211 314.411C888.874 313.739 890.478 312.583 890.832 309.599C891.634 304.413 894.04 304.637 895.364 310.028C896.166 313.161 897.621 314.411 900.755 314.411C905.623 314.411 906.574 316.947 902.284 318.551C900.307 319.279 899.729 321.181 900.233 324.818C901.109 330.582 899.729 331.459 896.372 327.374C894.413 325.043 893.76 325.043 890.105 327.374C884.789 330.862 884.714 330.861 885.591 324.967ZM54.3423 288.615C54.9951 285.332 54.4171 283.001 52.5146 281.471C48.4298 278.039 49.1572 275.931 54.044 277.107C57.6812 278.039 58.4833 277.46 59.8822 272.368C61.4863 266.53 61.4862 266.531 63.3701 271.269C64.5452 274.178 67.1565 276.434 70.0103 277.181C74.6733 278.412 74.6731 278.412 70.8681 281.471C67.6786 284.027 67.3802 285.257 68.9097 289.267C70.7376 293.93 70.7375 293.93 66.2051 291.02C62.0643 288.316 61.3368 288.242 57.4758 290.797C53.391 293.502 53.3165 293.502 54.2677 288.615H54.3423ZM891.13 285.761C892.511 282.198 892.007 280.968 888.071 277.965C883.334 274.477 883.334 274.476 889.023 274.402C893.611 274.402 895.141 273.451 896.596 269.59C898.554 264.777 898.554 264.777 900.233 269.59C901.557 273.451 903.012 274.402 907.376 274.402C912.916 274.476 912.916 274.476 908.757 277.908C905.847 280.37 904.896 282.572 905.492 285.705C906.35 290.368 905.194 291.17 901.986 287.962C900.456 286.432 898.927 286.432 895.495 287.962C889.452 290.722 889.228 290.648 891.13 285.761ZM60.964 249.053C61.766 245.696 61.1131 243.793 58.0542 241.331C54.1186 237.974 54.1187 237.975 59.4345 237.9C63.5939 237.9 65.1233 236.874 66.5782 233.088C68.4061 228.276 68.4062 228.276 70.29 233.088C71.7449 236.52 73.4981 237.9 76.6317 237.9C81.9475 237.9 82.3205 239.728 77.5828 242.712C74.9529 244.316 74.3001 245.995 75.1768 249.259C76.2026 253.419 76.0533 253.567 71.6701 251.534C68.1076 249.93 66.5782 249.93 65.0487 251.46C61.6167 254.873 59.733 253.791 60.964 249.053ZM884.938 247.524C885.964 243.365 885.441 241.835 882.177 239.28C878.167 236.221 878.167 236.222 883.409 236.147C887.643 236.147 889.172 235.14 890.552 231.335C892.361 226.616 892.361 226.616 894.339 231.335C895.793 234.916 897.547 236.146 901.109 236.221C905.922 236.221 905.921 236.221 902.21 239.355C899.431 241.687 898.703 243.738 899.431 247.524C900.382 252.467 900.382 252.467 896.223 249.781C892.362 247.3 891.634 247.3 887.848 249.781C883.707 252.541 883.632 252.542 884.938 247.524ZM74.6733 213.932C75.5313 209.492 75.0277 207.889 72.3418 206.136C67.5295 203.151 68.0329 201.397 73.7964 201.397C77.5082 201.397 79.1125 200.241 80.4181 196.585C82.246 191.773 82.246 191.773 83.5516 196.585C84.6521 200.372 85.9576 201.397 89.9678 201.397C95.7873 201.397 96.3842 203.151 91.4228 206.21C88.8674 207.814 88.2146 209.493 89.0167 212.683C90.2664 217.569 89.4642 217.942 84.5774 214.957C81.7982 213.204 80.5673 213.429 77.4337 216.189C73.5727 219.621 73.5728 219.62 74.6733 213.932ZM871.378 210.649C872.255 207.087 871.676 205.408 868.394 202.927C864.253 199.719 864.253 199.719 869.849 199.644C874.381 199.644 875.686 198.767 876.563 195.279C877.869 189.889 880.275 189.665 881.077 194.832C881.45 197.91 882.905 198.917 887.344 199.29C893.108 199.868 893.108 199.868 888.724 203.3C885.087 206.135 884.639 207.44 885.964 211.022C887.848 215.815 887.344 216.189 882.457 213.13C879.697 211.377 878.316 211.377 875.537 213.13C870.651 216.189 870.072 215.89 871.378 210.723V210.649ZM93.9034 179.911C94.8547 176.124 94.2578 174.371 91.1242 171.741C87.1327 168.458 87.1326 168.459 92.4485 168.384C96.5892 168.328 98.1189 167.302 99.5924 163.59C101.402 158.778 101.402 158.778 103.379 163.59C104.834 167.153 106.512 168.328 110.149 168.384C114.962 168.459 114.962 168.458 110.951 171.741C107.892 174.371 107.24 176.124 108.172 179.835C109.347 184.424 109.273 184.499 105.412 181.72C101.775 179.183 101.122 179.257 97.0369 181.869C92.6537 184.704 92.6537 184.704 93.9034 179.911ZM851.924 177.579C852.95 173.047 852.52 171.591 849.536 169.782C844.575 166.648 845.078 164.821 851.066 164.821C855.001 164.821 856.456 163.795 857.762 160.084C859.515 155.271 859.664 155.42 862.276 163.59C862.854 165.474 865.055 166.648 868.114 166.723C872.907 166.798 872.908 166.798 869.047 169.484C865.988 171.591 865.484 173.195 866.286 177.653C867.312 182.969 867.312 183.045 863.88 180.042C862.052 178.382 859.795 177.057 858.993 177.057C858.191 177.057 856.008 178.382 854.125 180.042C850.842 183.045 850.768 182.97 851.924 177.579ZM291.429 149.228C291.429 135.313 291.429 135.314 296.521 135.314C299.3 135.314 303.665 136.116 306.295 137.067C310.286 138.596 310.808 139.622 310.081 144.415C309.633 147.474 310.156 151.485 311.163 153.238C314.017 157.827 307.022 163.143 298.2 163.143C291.429 163.143 291.429 163.142 291.429 149.228ZM305.343 154.395C305.343 152.138 304.168 150.981 301.837 150.981C299.505 150.981 298.349 152.063 298.349 154.395C298.349 156.726 299.505 157.901 301.837 157.901C304.168 157.901 305.343 156.726 305.343 154.395ZM304.896 143.539C303.814 140.275 298.349 139.827 298.349 142.96C298.349 144.639 299.878 145.739 301.986 145.739C304.094 145.739 305.343 144.863 304.896 143.539ZM315.751 149.228C315.751 135.313 315.751 135.314 322.671 135.314C333.321 135.314 340.391 143.912 334.049 149.154C331.792 151.056 331.792 151.932 334.049 156.222C337.332 162.638 337.257 163.143 333.321 163.143C331.344 163.143 329.237 161.109 327.931 157.826C325.301 151.634 322.093 151.933 321.291 158.48C321.011 161.11 319.612 163.143 318.232 163.143C316.274 163.143 315.751 160.158 315.751 149.228ZM329.311 144.415C329.013 142.737 327.204 141.356 325.301 141.356C323.417 141.356 321.589 142.737 321.291 144.415C320.862 146.672 321.888 147.474 325.301 147.474C328.733 147.474 329.74 146.672 329.311 144.415ZM338.339 161.463C338.339 160.605 340.391 154.264 342.927 147.474C348.542 132.329 351.396 132.105 356.917 146.542C363.333 162.993 363.333 163.143 359.546 163.143C357.644 163.143 355.685 161.911 355.107 160.531C354.529 159.058 352.197 157.901 349.866 157.901C347.59 157.901 345.203 159.058 344.681 160.531C343.599 163.366 338.339 164.168 338.339 161.463ZM352.254 150.179C352.254 146.169 349.269 145.441 348.262 149.228C347.665 151.484 348.262 152.66 349.791 152.66C351.171 152.66 352.254 151.56 352.254 150.179ZM369.302 152.287C368.798 142.531 368.369 141.357 364.862 140.853C362.68 140.48 360.927 139.099 360.927 137.719C360.927 134.362 381.985 134.959 383.16 138.373C383.514 139.678 382.134 140.48 379.373 140.48C374.99 140.48 374.841 140.853 374.841 151.857C374.841 160.531 374.263 163.143 372.304 163.143C370.476 163.143 369.675 160.382 369.302 152.287ZM381.985 158.33C383.011 155.719 385.417 149.377 387.301 144.341C391.833 132.404 395.097 132.907 400.413 146.542C406.755 162.993 406.755 163.143 402.968 163.143C401.085 163.143 399.107 161.986 398.604 160.531C398.025 159.058 395.694 157.901 393.362 157.901C391.031 157.901 388.7 159.058 388.103 160.531C387.599 161.986 385.566 163.143 383.663 163.143C380.53 163.143 380.381 162.564 381.985 158.33ZM395.694 150.179C395.694 146.169 392.691 145.441 391.758 149.228C391.161 151.484 391.684 152.66 393.288 152.66C394.593 152.66 395.694 151.56 395.694 150.179ZM410.914 161.259C409.235 160.307 407.855 158.33 407.855 156.95C407.855 154.114 412.369 153.537 413.973 156.148C415.577 158.703 421.77 158.274 421.77 155.644C421.77 154.394 419.14 152.435 415.875 151.279C409.534 148.948 407.202 145.366 408.806 140.349C410.839 133.933 423.523 134.008 427.011 140.48C428.54 143.408 428.335 143.986 425.407 143.986C423.523 143.986 421.546 143.184 420.893 142.233C419.289 139.622 414.85 140.125 414.85 142.96C414.85 144.341 416.603 146.02 418.785 146.673C423.728 148.202 428.764 152.586 428.764 155.421C428.764 161.688 417.909 165.268 410.914 161.183V161.259ZM432.252 149.228C432.252 138.018 432.774 135.314 434.808 135.314C436.859 135.314 437.437 137.719 437.437 146.616C437.437 157.901 437.437 157.901 443.555 157.901C447.789 157.901 449.599 158.703 449.599 160.531C449.599 162.49 447.491 163.143 440.925 163.143H432.196L432.252 149.228ZM454.262 161.837C452.079 157.976 445.887 136.693 446.763 135.817C449.319 133.28 452.956 137.645 455.064 145.945L457.395 155.065L460.23 145.59C461.984 139.827 464.166 135.966 465.919 135.612C469.631 134.884 469.501 137.066 464.893 151.279C462.133 159.934 460.305 163.143 458.048 163.143C456.369 163.143 454.709 162.564 454.262 161.837ZM468.773 162.638C468.773 162.414 470.955 156.372 473.716 149.154C480.356 131.956 483.415 131.751 489.011 148.277C491.212 154.917 493.095 160.96 493.095 161.688C493.095 164.243 487.779 163.217 486.754 160.531C486.175 159.058 483.844 157.901 481.512 157.901C479.181 157.901 476.849 159.058 476.346 160.531C475.543 162.564 468.773 164.522 468.773 162.638ZM482.967 147.997C482.165 143.688 481.96 143.539 480.71 146.673C478.752 151.709 478.882 152.66 481.512 152.66C483.191 152.66 483.62 151.205 482.967 147.997ZM503.522 162.06C503.522 161.538 505.555 155.197 508.11 148.146C513.855 131.826 516.485 131.825 522.976 148.351C528.721 163.067 528.721 163.143 524.356 163.143C522.454 163.143 520.85 161.986 520.85 160.531C520.85 158.778 519.189 157.901 515.832 157.901C512.997 157.901 510.367 159.058 509.863 160.531C508.912 162.993 503.522 164.317 503.522 162.135V162.06ZM517.436 150.179C517.436 148.799 516.634 147.194 515.683 146.616C514.732 146.019 513.93 147.12 513.93 149.078C513.93 151.056 514.732 152.66 515.683 152.66C516.634 152.66 517.436 151.56 517.436 150.179ZM531.351 149.228C531.351 138.018 531.854 135.314 533.906 135.314C536.013 135.314 536.517 138.018 536.517 149.228C536.517 160.456 536.013 163.143 533.906 163.143C531.779 163.143 531.351 160.456 531.351 149.228ZM541.777 149.228C541.777 135.313 541.777 135.314 548.697 135.314C553.36 135.314 556.773 136.488 559.105 138.82C563.339 142.961 563.414 143.837 559.832 148.874C557.37 152.511 557.37 153.238 559.832 157.025C563.339 162.415 563.339 163.143 559.627 163.143C557.948 163.068 555.169 160.736 553.565 157.901C549.779 151.28 547.018 151.28 547.018 157.901C547.018 161.389 546.142 163.143 544.388 163.143C542.281 163.143 541.777 160.382 541.777 149.228ZM555.319 144.415C554.442 139.827 546.944 139.324 546.944 143.912C546.944 146.617 548.1 147.474 551.458 147.474C554.74 147.474 555.766 146.672 555.319 144.415ZM566.099 149.228C566.099 135.313 566.1 135.314 573.019 135.314C588.258 135.314 592.194 151.484 577.402 153.014C573.168 153.462 572.087 154.469 571.639 158.33C571.285 161.11 569.96 163.143 568.58 163.143C566.622 163.143 566.099 160.158 566.099 149.228ZM579.137 144.863C579.137 142.606 577.757 141.208 575.22 140.853C572.012 140.35 571.284 141.076 571.284 144.863C571.284 148.649 572.012 149.377 575.22 148.874C577.757 148.5 579.137 147.12 579.137 144.863ZM592.268 158.554C590.291 155.998 588.687 151.858 588.687 149.228C588.687 142.886 594.805 135.314 599.915 135.314C607.115 135.314 611.779 140.778 611.779 149.228C611.779 162.135 599.692 167.88 592.268 158.554ZM604.206 155.421C607.115 151.933 605.884 143.912 602.098 141.581C598.237 139.175 595.682 142.531 595.682 150.253C595.607 158.124 599.916 160.662 604.206 155.421ZM615.583 159.132C614.986 156.875 614.781 150.832 615.061 145.665C615.658 136.19 615.658 136.19 622.056 135.612C630.878 134.884 635.616 137.719 635.616 143.688C635.616 146.393 634.739 149.377 633.713 150.402C632.333 151.783 632.631 153.816 634.664 157.677C637.294 162.862 637.294 163.143 633.937 163.143C631.829 163.143 629.423 161.035 627.819 157.901C626.29 155.066 624.312 152.734 623.38 152.734C622.503 152.734 621.701 155.066 621.701 157.901C621.701 164.243 617.038 165.119 615.583 159.132ZM629.572 143.986C629.572 142.606 627.744 141.152 625.637 140.853C622.652 140.406 621.701 141.151 621.701 143.986C621.701 146.821 622.652 147.549 625.637 147.194C627.744 146.821 629.572 145.441 629.572 143.986ZM646.024 151.857C646.024 140.853 645.968 140.48 641.584 140.48C638.749 140.48 637.369 139.678 637.798 138.373C638.227 136.992 642.61 135.966 649.232 135.686C657.98 135.238 659.956 135.611 659.956 137.868C659.956 139.547 658.353 140.48 655.648 140.48C651.414 140.48 651.283 140.927 651.283 151.857C651.283 160.661 650.687 163.143 648.653 163.143C646.62 163.143 646.024 160.661 646.024 151.857ZM121.005 153.611C122.385 150.029 121.956 148.799 118.3 145.945C113.936 142.458 113.936 142.457 119.625 141.953C124.064 141.505 125.519 140.48 125.966 137.496C126.694 132.255 129.1 132.478 130.48 137.868C131.357 141.431 132.663 142.234 137.176 142.308C142.791 142.308 142.791 142.308 138.631 145.516C135.367 147.997 134.696 149.731 135.572 153.312C136.897 158.404 134.845 159.356 131.432 155.272C129.454 152.865 128.802 152.865 125.239 155.272C119.774 158.853 119.102 158.628 121.005 153.611ZM823.517 155.065C823.517 154.263 824.244 152.007 825.046 150.104C826.147 147.474 825.494 145.815 822.715 143.614C819.003 140.555 819.003 140.555 823.666 140.555C827.228 140.555 828.683 139.249 830.362 134.884L832.488 129.196L834.298 134.884C835.753 139.622 836.853 140.48 841.367 140.48C846.757 140.48 846.757 140.48 842.673 143.334C839.483 145.591 838.886 147.195 839.688 151.336C840.714 156.596 840.714 156.595 836.405 153.741C832.414 151.056 831.742 151.056 827.751 153.741C825.344 155.271 823.442 155.867 823.517 155.065ZM149.934 130.501C150.736 126.361 150.14 124.756 146.95 122.499C142.865 119.646 142.865 119.645 148.48 119.645C152.919 119.645 154.224 118.843 155.101 115.281C155.679 112.949 156.78 110.973 157.582 110.973C158.309 110.973 159.409 112.949 159.988 115.281C160.864 118.563 162.245 119.645 165.733 119.645C170.34 119.645 170.34 119.645 166.759 123.581C163.923 126.64 163.476 128.393 164.725 131.601C166.255 135.686 166.255 135.687 161.946 132.833C157.88 130.222 157.209 130.222 153.217 132.833C148.909 135.687 148.834 135.687 149.934 130.501ZM794.587 128.822C795.539 124.458 795.035 123.003 791.827 120.671C787.816 117.892 787.817 117.892 793.058 117.892C797.217 117.892 798.747 116.885 800.202 113.173C802.029 108.361 802.03 108.361 803.913 113.173C805.368 116.661 807.121 117.967 810.703 118.041C815.571 118.116 815.571 118.116 811.71 120.82C808.651 122.928 808.073 124.532 808.949 128.971C809.957 134.362 809.957 134.437 806.394 131.229C802.962 128.17 802.608 128.169 798.094 131.154C793.431 134.213 793.431 134.213 794.587 128.822ZM272.926 116.306C266.584 112.427 261.847 106.309 261.847 101.87C261.847 99.3892 263.376 98.8109 269.718 98.8109C276.34 98.8109 277.515 99.3143 277.515 102.317C277.515 109.666 294.917 110.618 296.297 103.325C297.174 98.811 293.76 95.8271 284.285 92.619C255.58 83.1437 258.135 55.3895 287.643 55.3148C298.778 55.3148 305.922 59.0267 309.633 66.8232C313.289 74.4706 313.289 74.4701 304.467 74.4701C298.629 74.4701 296.596 73.743 296.596 71.7845C296.596 67.6997 289.601 65.2183 283.987 67.3447C275.108 70.758 277.72 75.7204 291.858 82.1181C310.435 90.6608 315.397 98.158 309.708 109.163C304.467 119.291 284.285 123.226 272.926 116.306ZM320.34 118.34C319.985 117.612 319.985 103.176 320.564 86.2028L321.515 55.3148H334.925V107.485H347.889C360.927 107.485 360.927 107.485 360.927 113.603C360.927 119.646 360.927 119.645 341.043 119.645C330.113 119.645 320.862 119.067 320.414 118.34H320.34ZM379 117.165C368.443 112.576 361.523 97.2819 363.482 82.7146C365.888 64.4915 374.841 55.3148 390.229 55.3148C408.153 55.3895 416.528 64.2678 417.834 84.897C419.513 110.171 400.059 126.36 379 117.165ZM396.776 106.179C402.968 102.019 405.673 81.5392 401.084 73.0152C396.701 64.8642 385.044 64.7157 380.903 72.7921C376.967 80.4581 377.546 97.2813 381.91 102.896C385.491 107.409 392.561 108.939 396.776 106.179ZM433.054 89.7092C427.533 73.1648 422.646 58.7469 422.199 57.4972C421.621 55.9677 423.728 55.3148 429.268 55.3148C437.214 55.3148 437.214 55.3144 440.049 65.2932C441.578 70.8329 444.656 81.11 446.763 88.1791L450.624 101.068L456.313 80.3831C459.447 69.0053 462.357 58.7469 462.711 57.4972C463.364 55.4641 479.181 54.2137 479.181 56.2654C479.181 57.5711 462.133 109.238 459.801 114.833C458.123 119.067 456.892 119.645 450.475 119.645C443.126 119.645 443.126 119.645 433.054 89.634V89.7092ZM479.628 117.463C480.057 116.307 485.448 101.795 491.491 85.2511C502.571 55.1653 502.571 55.1649 509.267 55.6871C516.709 56.2653 514.806 52.6098 531.854 97.9344L539.725 118.769L533.608 119.365C524.86 120.093 522.976 118.918 521.652 111.923C520.495 105.731 520.495 105.731 509.64 105.731C498.859 105.731 498.858 105.731 496.751 112.726C494.699 119.497 494.476 119.645 486.754 119.645C481.083 119.645 479.031 118.992 479.628 117.463ZM515.608 94.8754C515.608 94.5769 514.228 89.9147 512.475 84.4496L509.341 74.3961L506.431 83.7221C502.645 95.7527 502.496 95.3228 509.565 95.3228C512.922 95.3228 515.683 95.0992 515.608 94.8754ZM545.19 87.5268V55.3148H552.11C558.956 55.3148 558.956 55.3141 559.478 68.7996L560.056 82.2672L569.606 68.8747C579.137 55.5385 579.137 55.5381 588.407 55.3888C598.964 55.3142 599.468 53.2817 583.744 73.3886L576.153 83.0687L586.803 100.266C592.622 109.666 597.36 117.966 597.36 118.638C597.36 119.291 593.723 119.571 589.209 119.291C581.413 118.769 580.816 118.415 575.276 109.238C572.087 103.978 568.729 98.5126 567.778 97.0577C564.868 92.3947 559.254 101.721 559.18 111.42C559.18 119.646 559.18 119.645 552.185 119.645H545.265L545.19 87.5268ZM604.355 119.645V55.3148H618.269V119.645H604.355ZM631.456 102.822C634.888 93.421 640.204 78.928 643.188 70.5345C648.654 55.3145 648.654 55.3142 655.648 55.3888C662.568 55.3888 662.568 55.3896 673.722 85.3262L685.659 117.463C686.182 118.992 684.055 119.645 678.459 119.645C670.737 119.645 670.514 119.496 668.406 112.651C666.279 105.582 666.28 105.581 655.872 106.104C645.669 106.607 645.445 106.757 643.487 112.726C641.584 118.34 640.857 118.844 633.284 119.291L625.189 119.87L631.456 102.822ZM661.691 94.1479C661.691 93.5697 660.386 88.7578 658.707 83.5912L655.723 74.1161L652.738 82.5655C648.504 94.5774 648.654 95.3228 655.573 95.3228C658.931 95.3228 661.691 94.8008 661.691 94.1479ZM182.93 111.849C183.732 108.567 183.005 106.608 179.871 104.052C175.786 100.639 175.786 100.639 181.326 100.564C186.063 100.564 187.015 99.7622 188.115 94.8754L189.346 89.2617L191.752 94.8754C193.58 99.3146 195.11 100.564 198.821 100.564C203.634 100.639 203.634 100.639 199.903 103.772C197.143 106.104 196.415 108.138 197.068 111.7C198.019 116.512 198.019 116.587 193.655 113.752C189.775 111.196 189.122 111.196 187.164 113.527C183.806 117.538 181.699 116.662 182.93 111.849ZM760.939 113.173C760.939 112.427 761.666 110.319 762.394 108.435C763.326 105.955 762.673 104.127 760.062 101.945C756.406 98.8861 756.407 98.8861 761.219 98.8861C764.8 98.8115 766.18 97.7103 767.057 94.4462C767.635 92.0401 768.792 90.1384 769.594 90.1384C770.47 90.1384 771.645 92.0401 772.224 94.4462C773.1 97.9341 774.406 98.8109 778.789 98.8109C784.179 98.8109 784.179 98.8116 780.095 101.647C776.961 103.848 776.308 105.507 777.11 109.443C778.192 115.132 777.185 115.635 772.653 111.569C769.668 108.865 769.239 108.865 766.329 111.569C762.897 114.628 760.715 115.281 760.939 113.173ZM216.597 93.7187C217.828 89.4847 217.473 88.1044 214.34 85.9967C210.628 83.3668 210.628 83.3671 215.422 83.2178C218.126 83.2178 220.607 81.9871 221.036 80.5323C223.815 71.859 223.965 71.7099 225.699 76.5967C227.378 81.4649 228.627 82.1175 234.876 81.4646C238.159 81.0356 238.159 81.3346 234.298 85.4753C231.164 88.8327 230.437 91.0142 231.239 94.4462C232.414 98.8854 232.414 98.96 227.956 96.0502C223.89 93.3457 223.293 93.3458 220.383 95.9011C215.869 99.9859 214.993 99.4642 216.597 93.6447V93.7187ZM727.701 92.1147C728.951 87.6568 728.578 86.4258 725.444 84.2436C721.658 81.6136 721.658 81.6139 726.544 81.4646C729.23 81.4646 731.711 80.2339 732.159 78.7791C734.844 70.2551 735.218 70.0311 736.953 75.8692C738.277 80.0846 739.657 81.5389 742.343 81.3337C748.909 80.8115 749.486 81.3338 745.346 84.2436C742.138 86.5005 741.56 88.1049 742.343 92.2456C743.369 97.4309 743.369 97.4309 739.079 94.5771C735.068 91.9658 734.341 91.9658 730.48 94.5771C726.171 97.3563 726.172 97.3559 727.701 92.1147ZM743.369 526.429C743.369 525.478 742.212 524.676 740.683 524.676C739.228 524.676 738.482 525.478 739.079 526.429C739.657 527.38 740.888 528.182 741.765 528.182C742.641 528.182 743.369 527.38 743.369 526.429ZM181.923 509.083C181.923 508.131 181.121 507.33 180.169 507.33C179.218 507.33 178.416 508.131 178.416 509.083C178.416 510.034 179.218 510.836 180.169 510.836C181.121 510.836 181.923 510.034 181.923 509.083ZM162.748 499.458C162.748 498.078 161.946 496.921 160.939 496.921C159.913 496.921 159.54 496.119 160.137 495.168C160.79 494.216 160.062 493.414 158.608 493.414C156.351 493.414 156.201 494.142 157.88 497.797C160.062 502.591 162.748 503.543 162.748 499.458ZM827.881 481.683C826.147 479.948 824.692 482.633 826.146 484.965C827.228 486.718 827.602 486.718 828.18 484.965C828.609 483.734 828.478 482.28 827.881 481.683ZM11.4985 275.055C11.4985 273.6 10.7712 272.947 9.81993 273.525C8.79407 274.103 8.06674 275.782 8.06674 277.181C8.06674 278.635 8.79407 279.289 9.81993 278.711C10.7712 278.114 11.4985 276.435 11.4985 275.055ZM951.246 235.213C947.385 232.285 945.053 231.931 945.053 234.263C945.053 236.072 948.112 237.545 952.048 237.676C953.932 237.75 953.783 237.097 951.246 235.213ZM32.0344 190.318C32.4821 188.434 31.4564 187.483 29.0503 187.483C27.0919 187.483 25.413 188.509 25.413 189.74C25.413 195.056 31.1018 195.578 32.109 190.318H32.0344ZM913.793 143.986C913.793 143.035 913.065 142.233 912.114 142.233C911.237 142.233 910.006 143.035 909.428 143.986C908.831 144.937 909.559 145.739 911.014 145.739C912.543 145.739 913.793 144.937 913.793 143.986ZM67.1565 128.319C67.1565 127.368 66.3544 126.566 65.4218 126.566C64.4706 126.566 63.6683 127.368 63.6683 128.319C63.6683 129.345 64.4706 130.072 65.4218 130.072C66.3544 130.072 67.1565 129.345 67.1565 128.319ZM887.699 118.769C887.699 117.314 886.896 116.157 885.964 116.157C885.012 116.157 884.211 117.314 884.211 118.769C884.211 120.224 885.012 121.399 885.964 121.399C886.896 121.399 887.699 120.224 887.699 118.769ZM724.287 27.4107C724.287 25.5828 723.56 24.0535 722.758 24.0535C720.706 24.0535 718.823 29.1641 720.054 31.1971C721.583 33.6033 724.287 31.1971 724.287 27.4107ZM307.097 23.1769C307.097 21.722 306.295 20.5653 305.343 20.5653C304.392 20.5653 303.59 21.722 303.59 23.1769C303.59 24.5758 304.392 25.8066 305.343 25.8066C306.295 25.8066 307.097 24.5758 307.097 23.1769ZM644.289 17.059C644.289 16.1077 643.561 15.3058 642.61 15.3058C641.584 15.3058 640.857 16.1077 640.857 17.059C640.857 18.0102 641.584 18.8121 642.61 18.8121C643.561 18.8121 644.289 18.0102 644.289 17.059ZM496.527 8.38635C496.527 7.45374 495.8 6.65137 494.774 6.65137C493.823 6.65137 493.095 7.45374 493.095 8.38635C493.095 9.33759 493.823 10.1395 494.774 10.1395C495.8 10.1395 496.527 9.33759 496.527 8.38635Z" fill="#8550DC"/>
</svg>
