<svg width="958" height="962" viewBox="0 0 958 962" fill="none" xmlns="http://www.w3.org/2000/svg">
<path fill-rule="evenodd" clip-rule="evenodd" d="M28.2913 495.975C26.7868 474.342 29.5941 433.481 34.3097 405.591C59.0434 260.602 149.428 139.98 282.454 74.4026C307.188 62.2193 360.655 42.2929 364.655 43.7241C369.169 45.3755 359.206 50.6044 339.5 57.1181C215.794 97.8332 112.584 195.373 64.9883 316.583C43.6307 371.059 34.3097 421.004 34.3097 481.278C34.3097 508.012 33.8873 513.755 31.8873 513.755C30.0158 513.755 29.1537 509.516 28.2913 495.975ZM202.326 506.58C203.189 502.58 204.326 498.636 204.822 497.847C205.409 496.985 202.473 493.26 198.308 489.535L190.785 482.727H199.959C209.134 482.654 209.134 482.654 213.207 473.553C217.739 463.443 216.803 462.93 222.748 478.269C224.253 482.141 225.464 482.655 233.574 482.655L242.675 482.727L235.941 488.947C229.207 495.186 229.207 495.186 230.913 504.361C232.069 510.893 231.996 513.26 230.711 512.471C229.702 511.884 226.051 509.663 222.601 507.516C219.17 505.37 215.647 504.214 214.785 504.929C213.941 505.663 210.418 507.957 206.987 510.031C200.675 513.829 200.675 513.828 202.253 506.58H202.326ZM726.046 511.608C726.046 510.379 726.909 506.305 727.973 502.507C729.845 495.7 729.844 495.553 722.321 489.094L714.781 482.655H724.468C734.211 482.655 734.212 482.654 737.789 473.553L741.312 464.434L745.257 473.553C749.184 482.654 749.184 482.655 757.514 482.655C762.101 482.655 765.826 483.003 765.826 483.517C765.826 484.086 763.018 486.874 759.587 489.884C753.129 495.553 753.055 495.976 756.431 509.462C757.642 514.177 757.642 514.177 750.909 509.663C742.67 504.012 740.597 504.012 732.487 509.517C728.34 512.324 726.046 513.112 726.046 511.681V511.608ZM248.693 304.546C248.693 303.39 327.683 302.749 482.14 302.749C636.671 302.749 715.57 303.39 715.57 304.546C715.57 305.684 636.671 306.253 482.14 306.253C327.683 306.253 248.693 305.684 248.693 304.546ZM251.207 284.547C249.775 272.565 250.84 269.776 256.858 269.776C263.959 269.849 266.619 272.143 265.61 277.446C265.115 279.959 265.39 282.4 266.252 282.895C268.986 284.546 267.757 290.344 264.399 292.216C262.527 293.207 259.078 293.996 256.729 293.996C252.784 293.996 252.271 293.152 251.207 284.547ZM261.665 286.987C261.665 285.611 260.307 284.253 258.656 283.978C255.647 283.391 254.436 287.042 256.785 289.408C258.656 291.207 261.665 289.703 261.665 286.987ZM260.803 276.73C260.803 274.804 260.087 273.226 259.152 273.226C256.858 273.226 255.225 276.363 256.509 278.455C258.289 281.317 260.803 280.308 260.803 276.73ZM269.904 291.849C270.418 290.638 272.124 285.189 273.849 279.739C275.995 272.932 277.94 269.776 279.794 269.776C281.739 269.776 283.665 272.932 285.812 279.739C287.537 285.189 289.261 290.638 289.757 291.849C290.197 293.005 289.261 293.996 287.757 293.996C286.179 293.996 284.454 292.859 283.885 291.428C283.39 289.996 281.445 288.767 279.592 288.767C277.793 288.767 275.794 289.996 275.28 291.428C274.711 292.859 273.133 293.996 271.702 293.996C270.271 293.996 269.482 293.005 269.904 291.849ZM281.592 281.097C281.592 279.739 280.803 278.161 279.794 277.592C278.876 276.95 278.087 278.088 278.087 280.033C278.087 282.033 278.876 283.611 279.794 283.611C280.803 283.611 281.592 282.454 281.592 281.097ZM293.628 281.886C293.628 271.061 294.069 269.629 296.638 270.143C298.362 270.418 301.371 274.143 303.518 278.455L307.316 286.198L307.39 278.015C307.463 273.501 308.252 269.776 309.261 269.776C310.197 269.776 310.986 275.005 310.986 281.886C310.986 296.29 308.105 298.015 303.023 286.694L299.72 279.317L298.858 286.125C298.362 289.85 297.005 293.207 295.849 293.574C294.216 294.07 293.628 291.06 293.628 281.886ZM317.866 281.886C317.866 269.776 317.866 269.776 323.811 269.776C331.554 269.776 335.206 273.648 335.206 281.739C335.206 289.703 330.968 293.996 323.371 293.996C317.867 293.996 317.866 293.996 317.866 281.886ZM329.683 282.033C330.178 276.73 328.178 273.354 324.38 273.281C323.665 273.226 323.096 276.804 323.096 281.17C323.096 287.776 323.591 288.987 326.105 288.491C328.105 288.124 329.334 285.978 329.683 282.033ZM338.637 292.711C338.637 291.995 340.142 286.693 341.94 281.024C346.967 264.895 352.123 267.483 356.71 288.418C357.701 292.859 357.352 293.996 355.206 293.996C353.701 293.996 352.472 292.785 352.472 291.354C352.472 289.776 350.82 288.767 348.105 288.767C345.444 288.767 343.811 289.776 343.811 291.354C343.811 292.785 342.655 293.996 341.224 293.996C339.793 293.996 338.637 293.427 338.637 292.711ZM349.536 280.161C348.967 278.235 348.398 276.656 348.178 276.656C347.885 276.656 347.242 278.235 346.747 280.161C346.233 282.327 346.747 283.611 348.178 283.611C349.536 283.611 350.031 282.327 349.536 280.161ZM362.233 287.482C361.646 283.904 361.151 278.455 361.151 275.373C361.077 270.143 361.499 269.776 367.022 269.776C375.848 269.776 381.371 276.51 376.49 281.317C375.132 282.675 375.132 284.179 376.49 286.767C379.077 291.5 378.93 293.996 376.123 293.996C374.839 293.996 372.912 292.069 371.829 289.629C370.747 287.262 369.04 285.335 368.105 285.335C367.095 285.335 366.307 287.262 366.307 289.629C366.307 296.29 363.444 294.785 362.233 287.482ZM373.187 277.446C373.187 274.216 369.83 272.51 367.664 274.657C365.096 277.226 367.316 282.033 370.545 280.822C372.049 280.235 373.187 278.73 373.187 277.446ZM381.866 292.216C381.866 291.207 383.224 285.758 384.875 280.107C389.095 265.758 392.691 266.125 397.352 281.17C401.572 294.785 401.499 293.996 398.27 293.996C396.839 293.996 395.701 292.785 395.701 291.354C395.701 289.776 394.049 288.767 391.536 288.767C389.242 288.767 386.948 289.996 386.453 291.354C385.297 294.289 381.866 294.932 381.866 292.216ZM392.178 279.739C392.178 276.583 391.829 276.308 390.545 278.455C388.306 281.739 388.306 283.611 390.545 283.611C391.462 283.611 392.178 281.886 392.178 279.739ZM404.361 281.886C404.361 266.987 407.37 265.758 413.756 278.015L417.994 286.198L418.123 278.015C418.123 273.427 418.985 269.776 419.921 269.776C420.93 269.776 421.645 274.932 421.645 281.886C421.645 296.29 419.058 297.794 413.48 286.62L409.737 279.317L409.664 286.62C409.536 291.996 408.82 293.996 406.948 293.996C404.875 293.996 404.361 291.501 404.361 281.886ZM428.526 281.886C428.526 272.29 429.095 269.776 431.168 269.776C433.187 269.776 433.755 272.29 433.755 281.886C433.755 291.501 433.187 293.996 431.168 293.996C429.095 293.996 428.526 291.501 428.526 281.886ZM440.067 292.859C439.425 292.217 438.911 286.767 438.911 280.748C438.911 272.363 439.48 269.776 441.425 269.776C442.93 269.776 444.067 271.923 444.434 275.373L445.003 281.024L448.086 275.373C449.737 272.29 452.251 269.776 453.682 269.776C456.911 269.776 456.911 270.639 453.315 276.088C450.599 280.235 450.599 280.821 453.535 286.399C459.553 297.518 453.682 295.794 446.361 284.252C444.581 281.39 444.288 281.813 444.214 287.482C444.067 293.647 442.636 295.446 440.067 292.859ZM461.425 281.886C461.425 269.776 461.425 269.776 468.305 269.776C476.122 269.776 477.828 272.712 470.526 273.574C464.709 274.216 464.067 279.024 469.59 279.813C474.617 280.529 474.672 283.189 469.81 283.904C464.214 284.748 463.939 288.492 469.443 289.134C477.333 290.07 476.617 293.996 468.526 293.996C461.425 293.996 461.425 293.996 461.425 281.886ZM489.094 281.886C489.094 272.29 489.59 269.776 491.663 269.776C493.755 269.776 494.25 272.29 494.25 281.886C494.25 291.501 493.755 293.996 491.663 293.996C489.59 293.996 489.094 291.501 489.094 281.886ZM501.204 281.886C501.204 267.483 503.773 265.978 509.369 277.152L513.094 284.473L513.168 277.023C513.314 271.776 513.957 269.703 515.461 270.217C518.911 271.354 518.397 292.932 514.819 293.574C512.947 293.996 510.874 291.5 508.36 285.83L504.709 277.592V285.758C504.636 290.271 503.846 293.996 502.929 293.996C501.92 293.996 501.204 288.767 501.204 281.886ZM528.874 284.473C528.874 276.088 528.36 274.51 525.424 273.721C518.911 272.07 521.92 269.776 530.58 269.776C535.314 269.776 539.186 270.566 539.186 271.501C539.186 272.437 538.048 273.226 536.599 273.226C533.957 273.226 533.589 274.583 533.314 286.051C533.094 297.372 528.874 295.867 528.874 284.473ZM553.094 281.886C553.094 272.29 553.589 269.776 555.681 269.776C557.681 269.776 558.25 271.996 558.25 279.317C558.25 288.271 558.543 288.767 562.561 288.767C565.277 288.767 566.928 289.776 566.928 291.428C566.928 293.281 564.984 293.996 559.974 293.996C553.094 293.996 553.094 293.996 553.094 281.886ZM578.965 292.216C578.965 291.28 580.323 285.831 581.901 280.107C585.772 266.052 589.864 265.905 593.882 279.739C595.442 285.189 597.093 290.638 597.607 291.776C598.029 293.005 597.24 293.996 595.809 293.996C594.378 293.996 592.726 292.785 592.231 291.354C591.644 289.996 589.717 288.767 587.846 288.767C586.066 288.767 584.121 289.923 583.552 291.354C582.47 294.289 579.039 294.932 579.039 292.216H578.965ZM589.351 280.895C589.351 279.445 588.561 278.656 587.644 279.317C586.708 279.886 585.919 281.096 585.919 281.959C585.919 282.895 586.708 283.611 587.644 283.611C588.561 283.611 589.351 282.4 589.351 280.895ZM601.479 281.886C601.479 272.29 602.048 269.776 604.048 269.776C606.139 269.776 606.708 272.29 606.708 281.886C606.708 291.501 606.139 293.996 604.048 293.996C602.048 293.996 601.479 291.501 601.479 281.886ZM613.589 281.886C613.589 269.776 613.589 269.776 618.671 269.776C626.634 269.776 631.864 276.73 627.277 281.317C625.919 282.748 625.919 284.179 627.277 286.767C629.79 291.5 629.644 293.996 626.836 293.996C625.552 293.996 623.625 292.069 622.543 289.629C621.46 287.262 619.827 285.335 618.818 285.335C617.882 285.335 617.02 287.262 617.02 289.629C617.02 292.069 616.304 293.996 615.313 293.996C614.377 293.996 613.589 288.767 613.589 281.886ZM623.974 277.446C623.974 274.216 620.543 272.51 618.378 274.657C615.809 277.226 618.102 282.033 621.332 280.822C622.763 280.235 623.974 278.73 623.974 277.446ZM634.377 281.886C634.377 269.776 634.378 269.776 640.029 269.776C646.634 269.776 649.919 272.363 649.919 277.592C649.919 282.033 646.763 285.335 642.616 285.335C640.469 285.335 639.533 286.62 639.533 289.629C639.533 292.363 638.524 293.996 636.946 293.996C634.873 293.996 634.304 291.501 634.304 281.886H634.377ZM643.827 277.592C643.827 275.794 642.891 274.069 641.68 273.647C640.322 273.225 639.533 274.657 639.533 277.592C639.533 280.455 640.322 281.886 641.68 281.464C642.891 281.024 643.827 279.317 643.827 277.592ZM656.01 290.124C652.579 285.188 652.579 275.941 656.084 272.51C659.533 269.061 667.845 268.987 670.634 272.364C674.212 276.657 673.717 288.694 669.845 291.574C664.983 295.152 659.093 294.509 656.01 290.124ZM667.478 286.198C669.845 281.17 667.129 273.226 663.111 273.226C658.597 273.226 656.726 284.62 660.598 288.491C663.68 291.574 665.331 290.987 667.478 286.198ZM679.313 282.033C679.313 269.776 679.313 269.776 684.395 269.776C692.065 269.776 698.23 277.867 693.001 281.097C691.992 281.739 691.496 283.115 691.918 284.18C694.799 291.923 695.001 293.996 692.634 293.996C691.35 293.996 689.203 291.849 687.974 289.207C685.68 284.473 685.68 284.473 684.615 288.693C684.047 290.986 682.597 293.207 681.386 293.574C679.882 294.07 679.313 290.913 679.313 282.033ZM689.698 277.446C689.698 274.216 686.267 272.51 684.12 274.657C681.533 277.226 683.826 282.033 686.982 280.822C688.487 280.235 689.698 278.73 689.698 277.446ZM703.533 284.694C703.533 276.804 702.964 275.226 700.028 274.437C693.294 272.712 696.505 269.776 705.258 269.776C709.991 269.776 713.863 270.566 713.863 271.501C713.863 272.437 712.707 273.226 711.276 273.226C709.276 273.226 708.689 275.519 708.689 283.611C708.689 291.629 708.12 293.996 706.12 293.996C704.101 293.996 703.459 291.776 703.459 284.694H703.533ZM543.846 274.657C542.268 268.767 542.415 268.051 545.277 268.051C548.066 268.051 548.727 272.711 546.36 276.363C545.277 278.161 544.635 277.666 543.846 274.657ZM704.395 264.621C703.753 263.611 704.542 262.822 705.973 262.822C707.478 262.822 708.689 263.611 708.689 264.621C708.689 265.556 707.973 266.345 707.055 266.345C706.193 266.345 704.964 265.556 704.395 264.621ZM695.643 254.088C695.001 253.079 694.927 251.868 695.441 251.354C696.652 250.07 700.101 252.29 700.101 254.29C700.101 256.51 697.093 256.382 695.643 254.088ZM215.941 230.143C212.711 224.125 213.721 219.612 218.161 219.612C225.188 219.612 233.922 212.437 234.583 206.272C235.353 197.813 230.565 196.162 215.794 199.758C201.391 203.263 195.592 202.18 188.271 194.657C174.73 180.694 182.822 159.465 205.115 150.511C211.702 147.869 213.574 149.08 215.079 156.529C215.941 161.263 215.445 161.906 209.06 164.567C201.024 167.851 196.73 174.878 199.739 179.539C201.684 182.621 205.042 182.768 226.4 180.622C237.794 179.466 237.867 179.538 243.959 185.63C252.564 194.162 253.922 203.264 248.399 214.163C240.95 228.639 220.528 238.675 215.941 230.143ZM722.101 227.355C714.707 222.327 714.505 221.392 718.799 211.869C721.881 204.915 721.881 204.915 713.789 198.456C709.276 194.878 705.111 191.943 704.542 191.943C703.9 191.943 700.377 193.942 696.726 196.382C691.57 199.831 689.203 200.474 686.762 199.172C682.964 197.172 676.726 190.511 677.735 189.575C678.083 189.208 693.349 179.117 711.569 167.209L744.744 145.576L751.771 150.952C755.642 153.961 758.872 157.099 758.872 158.034C758.872 160.548 730.413 231.648 729.404 231.721C728.982 231.721 725.606 229.777 722.101 227.355ZM734.707 177.961C738.578 170.218 740.798 164.566 739.661 165.208C738.578 165.924 732.707 170.218 726.688 174.805L715.716 183.117L721.239 187.502C724.322 189.943 727.037 191.943 727.257 191.943C727.478 191.943 730.835 185.63 734.707 177.961ZM270.546 188.071C236.877 129.375 235.941 127.503 240.308 123.998C248.619 117.265 268.546 108.438 275.793 108.218C291.335 107.869 301.812 127.796 294.637 143.998C293.628 146.144 294.069 147.007 296.069 147.007C299.298 147.007 323.096 163.778 323.096 165.998C323.096 167.925 312.124 174.658 308.968 174.658C307.683 174.658 301.224 170.805 294.711 165.998C281.885 156.677 281.885 156.676 278.289 158.969C276.362 160.18 277.078 162.621 282.161 171.722C285.61 177.96 288.472 183.832 288.472 184.914C288.472 186.914 278.436 193.667 275.5 193.667C274.564 193.667 272.344 191.154 270.546 188.071ZM274.638 146.144C281.298 142.695 282.601 137.832 278.582 130.952C274.858 124.567 267.335 122.769 261.812 126.787C258.509 129.227 258.509 129.521 263.537 138.97C266.326 144.346 268.84 148.713 269.115 148.713C269.335 148.713 271.849 147.576 274.564 146.144H274.638ZM663.68 182.841C654.726 178.401 653.643 174.878 653.441 150.878C653.441 143.062 652.726 136.603 652.01 136.603C651.221 136.603 647.552 142.915 643.754 150.585C640.029 158.254 636.157 165.209 635.222 165.998C633.002 167.851 622.469 163.483 621.258 160.254C620.029 157.043 652.726 91.6681 655.515 91.6681C657.955 91.6681 668.909 98.0538 668.909 99.485C668.909 99.9804 665.405 107.429 661.111 115.961C652.139 133.814 651.717 133.741 674.579 118.254C682.102 113.099 689.056 108.934 689.918 108.934C692.505 108.934 705.258 115.814 705.184 117.191C705.184 117.906 697.093 123.136 687.258 128.787C666.983 140.475 668.909 135.392 672.285 168.566C673.148 177.171 673.294 184.767 672.579 185.483C671.918 186.199 667.845 184.988 663.607 182.841H663.68ZM337.922 157.612C335.059 152.952 312.692 88.8797 313.408 87.1549C314.417 84.3659 326.454 80.4934 328.178 82.42C330.178 84.5667 354.197 149.3 354.197 152.511C354.197 156.676 340.087 161.117 337.922 157.612ZM821.073 157.392C821.073 156.456 821.862 155.667 822.798 155.667C823.807 155.667 824.522 156.456 824.522 157.392C824.522 158.327 823.807 159.117 822.798 159.117C821.862 159.117 821.073 158.327 821.073 157.392ZM588.928 150.163C581.681 148.218 581.974 148.933 575.589 117.613C573.589 107.65 571.515 97.5394 570.947 95.1174C570.286 92.0899 568.139 98.3289 563.919 115.687C557.828 140.475 557.828 140.475 550.947 139.539C547.222 139.044 543.699 138.255 543.131 137.686C542.342 136.823 551.864 97.6133 559.406 71.3934C562.194 61.5036 563.13 60.99 573.809 64.2194C580.323 66.1459 580.323 66.145 584.195 85.4291C586.341 95.9611 588.708 108.438 589.497 113.098C591.075 122.199 592.8 125.65 592.8 119.613C592.8 117.466 595.24 106.072 598.249 94.1823C603.625 72.6045 603.625 72.6045 609.937 73.687C613.368 74.3292 616.818 75.3926 617.607 76.1082C618.671 77.044 606.488 129.007 600.396 149.154C599.387 152.511 598.323 152.585 588.928 150.163ZM410.526 136.401C408.82 131.447 400.71 63.4304 401.572 61.2102C402.141 59.7056 405.297 58.8428 410.178 58.8428C419.278 58.8428 418.343 56.4021 422.71 92.8787C424.288 106.365 426.159 118.328 426.801 119.337C427.664 120.769 431.462 120.842 439.994 119.686C453.241 117.906 454.397 118.475 454.471 127.282C454.471 132.658 454.471 132.659 439.352 134.751C431.04 135.888 421.352 137.245 417.774 137.833C413.113 138.548 411.114 138.108 410.526 136.401ZM512.948 133.814C511.241 133.319 509.663 130.365 508.947 126.145C507.571 117.907 504.36 115.888 492.746 115.888C484.067 115.888 483.994 115.888 481.92 122.915C479.48 131.081 476.544 133.098 468.728 131.869C462.416 130.952 461.994 129.227 465.645 119.832C467.003 116.254 472.526 100.842 477.829 85.6498C483.205 70.3839 488.507 57.1178 489.663 56.127C490.727 55.0445 495.535 54.5492 500.562 54.9713L509.443 55.6869L519.039 93.9616C524.287 115.026 528.36 132.53 528.085 132.805C527.002 133.888 515.828 134.603 512.948 133.814ZM501.278 90.4575C497.755 71.0265 497.681 70.9525 492.672 86.6588L488.012 101.21L495.039 102.053C498.911 102.64 502.342 102.788 502.709 102.641C503.057 102.421 502.342 96.8977 501.204 90.4575H501.278ZM776.138 853.494C774.34 851.256 774.706 850.833 778.798 850.833C782.798 850.833 783.165 851.256 781.367 853.494C780.156 854.925 779 856.062 778.798 856.062C778.504 856.062 777.367 854.925 776.138 853.494ZM95.9602 631.02C95.4465 628.928 95.9605 623.845 97.0247 619.607C99.1164 612.011 99.1164 612.01 91.7953 605.918C83.7037 599.258 82.346 592.873 87.0615 584.561C90.511 578.543 90.4375 578.323 82.6945 570.727C75.1716 563.351 73.5934 555.607 78.4741 549.24C82.4741 543.993 81.4835 538.048 75.8138 532.745C69.6487 526.947 69.0066 519.7 74.0891 513.259C78.6763 507.369 78.474 502.286 73.2447 496.121C70.8044 493.259 68.8598 488.746 68.8598 486.012C68.8598 483.297 70.8044 478.856 73.2447 475.976C78.474 469.755 78.6763 464.728 74.0891 458.857C68.7864 452.123 69.5019 443.443 75.8138 437.92C81.5569 432.911 82.5475 426.527 78.4741 421.077C73.8136 414.985 75.245 408.545 82.6945 401.077C90.2907 393.627 90.933 391.554 87.1349 386.453C81.6854 379.297 84.5658 368.545 93.0244 364.178C99.0427 361.096 100.969 356.142 98.2538 350.986C93.8869 342.949 96.9695 329.335 102.621 331.482C104.492 332.197 104.566 333.28 103.061 336.73C101.611 339.941 101.612 342.877 103.116 348.62C105.704 358.143 103.703 364.032 96.5292 368.05C89.9421 371.775 88.5658 376.857 92.2355 383.958C96.107 391.481 94.3088 398.508 86.9327 404.086C80.5475 409.04 79.3917 414.049 83.5568 419.572C87.9971 425.443 86.8596 434.618 81.0432 440.214C74.9515 446.03 74.4557 450.966 79.3364 457.131C84.052 463.149 83.7034 471.388 78.4741 477.7C76.0338 480.489 74.0891 484.287 74.0891 486.085C74.0891 487.883 76.0338 491.389 78.4741 493.976C83.7768 499.774 84.1988 508.746 79.3364 514.966C74.5291 520.984 74.9515 524.8 81.0432 530.947C86.933 536.983 88.2906 547.864 83.6301 551.736C79.1898 555.387 80.6211 561.625 87.2082 567.644C93.8137 573.607 94.0154 575.755 90.5108 592.598C89.5016 597.332 90.0154 598.469 95.1713 601.992C98.3272 604.139 101.337 606.285 101.759 606.634C102.272 607.074 102.621 613.515 102.621 621.056C102.621 632.597 102.199 634.745 99.8317 634.745C98.2538 634.745 96.529 633.02 96.0336 631.02H95.9602ZM855.274 633.662C854.687 633.093 855.055 631.222 856.192 629.442C857.697 627.002 857.696 624.341 856.137 618.469C853.476 608.726 855.476 602.837 862.651 598.763C869.164 595.112 870.614 590.01 867.091 583.13C862.871 575.038 863.733 571.094 871.256 563.645C879.127 555.828 879.421 554.544 874.687 547.443C869.825 540.067 870.394 533.828 876.412 526.948C882.504 520.067 882.87 516.268 878.21 510.25C873.476 504.213 873.751 496.048 879.072 489.81C884.577 483.149 884.504 481.002 878.063 472.892C872.32 465.663 872.045 458.929 877.348 453.113C881.421 448.599 880.43 442.233 874.687 436.784C868.889 431.187 867.806 423.224 872.045 417.646C876.412 411.903 875.329 405.315 869.605 401.939C862.008 397.425 859.99 391.187 863.44 382.949C866.944 374.49 865.807 370.123 859.201 366.325C851.752 362.16 849.605 355.573 852.907 347.041C854.761 342.38 855.055 339.371 853.899 337.225C851.55 332.784 851.825 330.418 854.614 330.418C858.853 330.418 860.999 339.94 858.43 347.261C855.623 355.353 856.853 358.931 863.862 363.243C870.394 367.188 872.54 373.701 869.751 381.371C866.669 389.976 867.385 392.838 873.825 398.783C880.577 404.948 881.935 413.187 877.274 419.352C873.329 424.527 874.192 429.463 879.917 434.49C886.229 439.995 886.944 449.315 881.641 456.122C876.981 462.085 877.274 464.654 883.366 471.608C890.247 479.424 889.88 486.654 882.21 494.324C878.926 497.627 879.348 502.929 883.366 508.011C888.522 514.617 887.806 523.002 881.641 529.516C875.99 535.479 874.981 541.424 878.999 544.782C880.577 546.085 881.641 549.883 881.641 554.25C881.641 560.415 880.706 562.341 875.403 567.002C868.963 572.745 868.816 573.313 873.109 583.845C876.119 591.368 873.898 597.974 867.018 602.047C860.064 606.212 858.706 609.075 860.926 614.965C864.871 625.35 860.651 639.111 855.201 633.662H855.274ZM327.83 609.295L240.088 608.8V602.782C240.088 599.406 240.803 596.671 241.666 596.671C242.528 596.671 243.812 594.378 244.399 591.515C245.188 587.938 246.619 586.286 248.913 586.286C252.418 586.286 253.353 583.773 250.491 581.993C249.555 581.406 248.766 578.617 248.766 575.828C248.766 570.727 248.766 570.727 263.317 570.727H277.94L274.215 562.562C268.326 549.589 268.693 524.58 275.004 512.598C281.023 501.278 287.903 495.627 298.582 493.039C326.894 486.232 346.6 515.113 327.756 535.755C316.215 548.452 293.702 540.984 293.702 524.507C293.702 513.113 308.032 505.663 315.059 513.388C319.646 518.489 317.793 531.535 312.913 528.526C311.481 527.663 311.481 526.361 312.913 523.792C314.417 520.856 314.124 519.553 311.188 516.544C307.61 512.966 307.61 512.966 302.803 516.544C289.261 526.58 304.16 543.351 320.16 536.048C325.958 533.387 330.05 525.644 330.05 517.332C330.05 507.956 321.793 498.489 312.417 496.985C289.757 493.407 274.069 511.04 274.289 539.847C274.344 555.461 280.876 570.727 287.463 570.727C291.482 570.727 291.848 570.085 292.344 561.699L292.839 552.598L314.711 552.177L336.564 551.663L338.068 543.498C339.353 536.323 340.141 535.259 344.527 534.47C348.747 533.755 349.903 532.324 351.903 525.517C353.903 518.691 354.985 517.333 359.004 516.837C363.15 516.397 363.866 515.333 365.169 508.232C366.6 500.416 366.949 500.067 372.912 499.572C378.563 499.058 379.352 498.416 380.71 492.691C381.793 488.031 383.224 486.085 385.957 485.737C391.315 484.948 392.049 474.122 387.169 466.379C385.224 463.15 383.664 459.351 383.664 457.847C383.664 456.342 379.352 450.967 374.123 445.811C368.251 439.995 364.582 434.985 364.582 432.545C364.582 428.251 372.472 407.536 376.123 402.234C377.352 400.362 378.417 396.637 378.417 393.922C378.417 386.105 382.93 379.371 390.545 376.068C394.912 374.142 397.481 371.848 397.481 369.829C397.481 367.903 398.71 366.747 400.783 366.747C402.655 366.747 404.728 365.885 405.37 364.821C406.086 363.665 408.948 363.316 412.398 363.885C415.627 364.38 418.196 364.032 418.196 363.169C418.196 360.729 428.159 361.225 429.022 363.738C429.462 365.169 434.838 366.105 445.37 366.472C460.911 367.041 460.984 367.041 462.14 362.6C463.205 358.215 463.572 358.087 477.975 358.087C492.232 358.087 492.672 358.216 494.397 362.674C496.103 367.261 496.103 367.261 512.745 366.105C527.424 365.022 529.589 365.243 531.663 367.977C533.021 369.83 533.956 370.197 534.03 368.894C534.103 365.757 544.488 366.252 548.213 369.61C550.085 371.335 551.369 371.702 551.369 370.472C551.369 369.261 554.231 368.472 558.25 368.472C564.782 368.472 565.204 368.765 565.204 373.554C565.204 376.362 565.919 379.078 566.855 379.646C569.002 381.023 581.827 407.885 586.139 420.215C591.937 436.71 589.497 449.242 579.827 453.407C577.607 454.343 570.873 471.756 569.938 478.93C569.369 483.517 569.864 484.948 572.231 485.59C574.231 486.085 575.736 488.746 576.452 493.186C577.534 499.425 578.029 499.92 583.406 499.92C588.708 499.92 589.424 500.489 591.075 506.379C592.011 509.957 592.873 513.828 592.873 515.039C592.873 516.268 595.02 517.186 597.883 517.186C602.47 517.186 603.057 517.92 604.983 525.865C606.855 533.681 607.497 534.47 612.011 534.47C616.231 534.47 617.167 535.405 618.745 540.983C619.68 544.506 620.543 548.451 620.543 549.589C620.543 551.24 625.992 551.809 642.176 551.809H663.753V561.277C663.753 570.598 663.9 570.8 668.781 570.8C673.001 570.8 674.212 569.662 677.295 562.488C687.845 538.048 681.038 507.883 663.258 499.773C649.13 493.407 634.231 497.058 628.414 508.379C619.038 526.434 638.744 546.434 654.01 534.397C661.46 528.526 659.533 517.333 650.634 514.764C646.121 513.388 642.543 517.259 643.258 522.709C644.047 528.452 640.818 529.241 638.891 523.792C636.451 516.911 641.313 510.305 648.854 510.305C666.047 510.305 667.331 536.397 650.359 541.425C635.515 545.865 622.249 535.039 622.249 518.489C622.249 502.141 632.579 492.398 649.992 492.398C663.753 492.398 673.496 498.268 680.175 510.598C687.129 523.277 688.34 544.286 682.964 559.479C680.964 565.148 679.313 570.011 679.313 570.305C679.313 570.598 685.68 570.8 693.423 570.8H707.478L706.542 578.543C705.826 585.35 706.12 586.359 708.982 586.359C711.349 586.359 712.211 587.571 712.211 591.369C712.211 594.176 713.276 596.745 714.781 597.332C717.937 598.543 718.23 606.928 715.221 607.864C711.991 608.873 429.242 609.937 327.83 609.295ZM454.764 438.068L454.966 426.38L458.838 448.893L481.773 449.315C504.562 449.829 504.709 449.829 504.636 445.884C504.636 440.856 499.847 413.188 498.764 412.123C498.342 411.628 492.892 412.196 486.727 413.26C476.617 414.985 462.489 414.637 451.242 412.343C447.15 411.481 447.15 411.48 447.939 428.599C448.453 437.994 449.388 446.6 450.03 447.737C452.893 452.324 454.544 449.041 454.764 438.068ZM511.094 423.297C509.81 415.921 509.296 410.471 509.938 411.26C512.03 413.554 516.746 435.48 516.746 442.728C516.746 449.755 516.745 449.755 529.296 448.672C547.498 447.095 547.718 446.746 542.048 424.38C536.892 404.013 535.461 401.297 529.938 401.297C526.434 401.297 526.287 402.086 526.507 417.278C526.635 426.104 526.434 430.178 526.067 426.38C524.342 410.178 521.773 401.003 519.113 402.086C517.681 402.581 513.388 403.022 509.516 403.022C503.204 403.022 502.635 403.445 503.424 406.967C503.846 409.114 506.067 419.792 508.36 430.691C511.663 446.673 512.599 449.242 512.948 443.664C513.241 439.866 512.378 430.764 511.094 423.297ZM470.086 381.592C470.086 367.39 484.782 366.472 486.012 380.582C486.654 388.031 492.599 390.546 492.599 383.316C492.599 379.004 492.966 378.857 502.929 378.857C512.874 378.857 513.314 379.078 513.314 383.17C513.314 387.463 513.315 387.462 540.397 387.462C567.498 387.462 567.497 387.463 563.699 383.371C560.763 380.307 560.121 378.068 560.91 374.27C561.901 369.683 561.772 369.555 559.479 372.417C557.534 374.858 556.672 374.986 555.883 373.28C555.02 371.555 554.598 371.481 553.809 373.206C552.452 376.215 546.287 375.922 545.057 372.766C543.993 369.903 537.534 369.188 537.534 371.904C537.534 374.711 530.58 373.921 529.516 371.059C528.433 368.325 520.342 367.462 517.535 369.829C516.691 370.618 510.727 370.912 504.434 370.545C493.883 369.976 492.819 369.554 491.81 365.756C490.801 361.811 490.012 361.518 478.618 361.518C467.663 361.518 466.361 361.958 465.076 365.389C463.792 368.967 462.783 369.261 450.673 368.766C442.563 368.399 437.187 368.894 436.471 370.05C435.682 371.334 439.92 371.904 450.104 371.904C458.838 371.904 464.93 372.637 464.93 373.628C464.93 374.637 459.7 375.353 452.819 375.353C446.159 375.353 440.709 376.069 440.709 377.005C440.709 379.72 447.15 380.875 455.406 379.573C462.929 378.508 463.149 378.582 463.149 382.949C463.149 386.325 464.067 387.462 466.654 387.462C469.443 387.462 470.086 386.326 470.086 381.592ZM521.131 380.582C517.681 379.719 522.268 379.151 534.819 379.078C545.204 378.931 553.387 379.151 552.947 379.445C551.296 380.949 525.865 381.811 521.131 380.582ZM492.599 375.353C492.599 374.417 496.819 373.628 502.067 373.628C507.296 373.628 511.59 374.417 511.59 375.353C511.59 376.362 507.296 377.151 502.067 377.151C496.819 377.151 492.599 376.362 492.599 375.353ZM468.379 366.747C468.379 365.757 472.673 365.023 477.902 365.023C483.058 365.023 487.37 365.812 487.37 366.747C487.37 367.683 483.058 368.472 477.902 368.472C472.673 368.472 468.379 367.683 468.379 366.747ZM496.893 385.738C496.324 384.82 496.617 384.032 497.608 384.032C498.691 384.032 499.48 384.82 499.48 385.738C499.48 386.673 502.416 387.39 505.993 387.243C511.241 387.041 511.516 386.82 507.645 386.252C505.076 385.811 503.351 384.821 503.847 383.885C504.434 383.023 502.489 382.307 499.553 382.307C496.048 382.307 494.324 383.17 494.324 384.894C494.324 386.325 495.113 387.462 496.104 387.462C497.113 387.462 497.48 386.673 496.893 385.738ZM459.7 383.17C459.7 381.738 458.911 380.582 457.976 380.582C457.058 380.582 456.269 381.738 456.269 383.17C456.269 384.601 457.058 385.738 457.976 385.738C458.911 385.738 459.7 384.601 459.7 383.17ZM483.92 382.601C483.92 377.647 479.92 373.279 476.544 374.637C471.59 376.49 472.746 381.94 477.829 381.023C481.058 380.362 482.214 380.876 482.214 382.949C482.214 384.527 482.563 385.738 483.058 385.738C483.498 385.738 483.92 384.307 483.92 382.656V382.601ZM511.59 383.242C511.59 381.444 508.287 380.655 507.296 382.233C506.727 383.243 507.369 384.032 508.874 384.032C510.378 384.032 511.59 383.664 511.59 383.242ZM432.104 371.976C431.04 369.976 429.388 368.84 428.526 369.408C427.59 369.904 426.875 369.555 426.875 368.472C426.875 365.169 421.866 364.527 418.912 367.536C416.27 370.123 415.829 370.123 412.967 367.536C410.967 365.756 409.535 365.39 408.746 366.601C408.159 367.61 406.086 368.472 404.306 368.472C402.434 368.472 400.93 369.61 400.93 371.059C400.93 373.059 403.37 373.702 411.756 373.849C417.7 373.922 424.875 374.563 427.737 375.279C434.177 376.783 434.544 376.49 432.104 371.976ZM402.361 504.581L432.893 504.085L401.572 503.645C370.325 503.296 370.178 503.297 369.169 507.168C368.6 509.315 368.178 512.599 368.251 514.544C368.38 516.397 369.169 515.039 370.105 511.535C371.829 505.076 371.829 505.077 402.361 504.581ZM588.066 509.957C586.635 504.159 586.635 504.158 555.607 504.085L524.562 504.012L554.745 504.929C584.983 505.865 584.983 505.865 586.561 511.535C588.708 518.911 590.084 517.479 588.066 509.957ZM458.838 511.957C459.48 510.893 455.535 510.25 448.159 510.25C439.921 510.25 437.132 510.746 438.985 511.957C442.361 514.177 457.48 514.177 458.838 511.957ZM519.406 511.957C520.048 510.819 516.103 510.305 508.654 510.452C498.269 510.672 497.682 510.819 503.773 511.957C514.397 513.828 518.195 513.828 519.406 511.957ZM459.7 504.287C459.7 498.709 464.856 496.416 477.626 496.416C490.525 496.416 497.755 499.204 497.755 504.287C497.755 507.222 515.902 507.956 517.608 505.002C518.324 503.938 515.388 503.297 509.938 503.297C497.828 503.297 498.911 499.92 511.167 499.498L521.131 499.204L511.241 498.563C503.057 498.049 500.691 497.205 497.828 493.462C495.902 491.04 494.324 488.03 494.324 486.801C494.324 483.571 490.085 482.581 476.966 482.581C465.15 482.581 465.15 482.581 461.131 489.884C457.058 497.278 457.058 497.278 446.306 497.333C440.342 497.407 435.48 496.838 435.48 496.049C435.48 495.333 423.865 494.691 409.609 494.691C388.673 494.691 383.664 495.113 383.664 497.058C383.664 498.984 388.6 499.425 409.095 499.425C447.095 499.352 454.544 499.7 454.544 501.572C454.544 502.581 451.021 503.297 446.728 503.297C442.508 503.297 438.985 504.085 438.985 505.002C438.985 506.011 443.572 506.801 449.315 506.801C457.186 506.801 459.7 506.158 459.7 504.287ZM573.369 497.7C572.874 496.049 566.929 495.627 550.36 495.902C538.048 496.122 526.635 496.342 524.929 496.342C523.204 496.342 522.269 497.131 522.837 498.122C524.489 500.855 574.305 500.416 573.369 497.7ZM453.755 597.112C455.26 591.662 456.911 585.865 457.407 584.14C458.049 581.626 457.058 581.131 451.535 581.131C447.884 581.131 444.067 581.846 443.223 582.709C442.287 583.644 439.279 584.561 436.471 584.928C432.398 585.35 430.177 587.497 424.875 596.249L418.269 607.075H450.948L453.755 597.112ZM533.167 599.753C530.727 595.68 527.865 590.726 526.856 588.653C525.076 585.002 521.773 583.919 505.222 581.772C497.975 580.837 497.975 580.837 499.48 586.58C500.342 589.791 501.846 595.68 502.929 599.753C504.782 607.074 504.782 607.075 521.277 607.075H537.754L533.167 599.753ZM417.132 602.782C417.994 600.488 407.664 600.195 330.839 600.195C254.436 600.195 243.537 600.488 243.537 602.782C243.537 605.002 254.289 605.35 329.83 605.35C404.948 605.35 416.269 605.075 417.132 602.782ZM712.211 602.782C712.211 600.488 701.313 600.195 624.616 600.195C547.002 600.195 537.332 600.488 539.259 602.782C541.131 605.002 553.02 605.35 626.781 605.35C701.533 605.35 712.211 605.075 712.211 602.782ZM421.352 594.597C422.508 593.46 423.425 591.956 423.425 591.167C423.425 589.075 249.188 589.442 247.904 591.515C247.262 592.451 247.262 594.029 247.904 594.965C249.555 597.68 418.636 597.331 421.352 594.597ZM708.689 592.947C708.689 589.938 705.111 589.791 620.543 589.791C572.011 589.791 532.378 590.452 532.378 591.167C532.378 596.617 536.543 596.891 622.689 596.543C705.037 596.176 708.689 596.029 708.689 592.947ZM426.875 584.781C426.875 583.919 390.325 583.13 341.224 582.983C282.527 582.781 255.647 583.277 255.647 584.488C255.647 585.791 282.674 586.359 341.224 586.359C390.545 586.359 426.875 585.644 426.875 584.781ZM701.808 584.488C701.808 583.277 674.946 582.781 615.369 582.983C567.277 583.13 528.874 583.993 528.874 584.855C528.874 585.644 567.002 586.359 615.369 586.359C674.799 586.359 701.808 585.791 701.808 584.488ZM407.517 576.249C407.958 573.46 407.169 572.524 404.581 572.524C400.068 572.524 398.343 575.46 401.003 578.689C403.866 582.065 406.802 580.983 407.517 576.249ZM424.801 576.396C425.223 573.46 424.508 572.451 421.865 572.451C417.774 572.451 415.774 575.112 417.205 578.763C418.636 582.635 424.159 580.909 424.801 576.396ZM442.141 576.396C442.508 573.533 441.774 572.524 439.425 572.524C435.186 572.524 432.031 575.755 433.26 578.837C434.764 582.709 441.498 580.836 442.141 576.396ZM522.837 576.818C522.837 574.524 521.479 573.167 518.984 572.819C516.103 572.378 515.039 573.093 515.039 575.533C515.039 577.332 515.608 579.405 516.25 580.048C518.544 582.341 522.837 580.267 522.837 576.818ZM540.121 576.818C540.121 573.02 534.745 571.166 531.883 573.955C530.58 575.258 530.727 576.616 532.378 578.543C535.388 582.194 540.121 581.13 540.121 576.818ZM395.701 576.818C395.701 574.524 386.673 574.25 324.802 574.25C262.95 574.25 253.922 574.524 253.922 576.818C253.922 579.056 262.95 579.405 324.802 579.405C386.673 579.405 395.701 579.111 395.701 576.818ZM556.525 576.102C556.525 572.378 552.947 570.451 549.644 572.451C546.433 574.47 548.855 579.405 553.02 579.405C555.314 579.405 556.525 578.267 556.525 576.102ZM703.533 576.818C703.533 574.524 694.505 574.25 632.799 574.25C571.589 574.25 561.975 574.598 561.112 576.818C560.268 579.111 568.782 579.405 631.864 579.405C694.432 579.405 703.533 579.111 703.533 576.818ZM468.379 553.828C468.379 527.149 469.957 522.361 478.471 522.361C486.654 522.361 487.37 524.654 487.443 549.956C487.443 562.782 488.158 574.525 489.094 575.975C490.232 577.681 490.801 569.937 490.801 552.451C490.801 524.8 490.379 523.15 481.847 520.067C477.113 518.416 469.021 522.067 466.874 526.801C464.36 532.324 464.14 577.68 466.581 577.68C467.663 577.68 468.379 568.58 468.379 553.828ZM407.591 570.231C410.6 572.102 410.967 571.516 411.958 563.791C412.618 559.131 413.976 554.818 414.985 554.176C416.196 553.46 416.416 556.249 415.48 563.203C414.398 572.378 414.471 573.094 416.985 571.02C418.563 569.809 421.278 569.222 423.077 569.81C426.728 570.947 428.526 567.149 428.599 558.195C428.599 555.608 429.462 553.46 430.526 553.46C431.829 553.46 432.031 556.47 431.242 563.13C430.031 572.672 430.104 572.745 433.829 570.727C435.902 569.663 439.058 569.094 440.856 569.589C443.718 570.305 444.067 569.443 443.865 561.92C443.719 554.746 442.856 552.745 438.636 549.094C433.902 545.149 430.251 543.865 426.012 544.782C425.003 545.002 421.645 545.369 418.49 545.644C409.811 546.36 404.233 551.535 400.71 562.213C398.985 567.369 397.554 571.81 397.481 572.103C397.481 572.305 398.985 571.516 400.93 570.378C403.572 568.727 405.077 568.653 407.591 570.231ZM521.993 570.305C525.277 572.378 525.424 572.103 525.424 562.855C525.424 556.91 526.066 553.681 527.149 554.324C528.085 554.892 528.874 558.616 528.874 562.634C528.874 569.937 528.874 569.937 535.534 569.937C542.121 569.937 542.121 569.938 540.69 562.268C539.333 554.892 539.828 551.663 542.048 553.956C542.635 554.543 543.479 558.616 543.993 563.002C544.855 570.158 545.351 570.874 548.58 570.011C550.58 569.516 553.241 569.02 554.525 569.02C556.745 569.02 556.452 564.562 553.736 554.819C552.305 549.736 542.562 545.369 532.012 545.076C518.544 544.653 514.03 548.727 512.745 562.415C511.883 571.883 512.03 572.231 515.168 570.231C517.755 568.653 519.259 568.654 521.993 570.378V570.305ZM376.563 539.204L408.673 538.617L375.407 538.269C357.132 538.049 342.16 538.562 342.16 539.333C342.16 540.195 341.72 543.498 341.298 546.727C340.509 552.525 340.509 552.525 342.509 546.085C344.454 539.626 344.453 539.627 376.563 539.131V539.204ZM615.809 544.581C614.304 538.764 614.304 538.763 581.552 538.69L548.8 538.562L580.69 539.479C612.506 540.415 612.506 540.415 614.011 546.213C614.873 549.443 615.956 551.662 616.378 551.167C616.873 550.745 616.598 547.736 615.735 544.507L615.809 544.581ZM445.865 536.195C445.865 522.36 445.865 522.361 440.709 522.361C435.554 522.361 435.48 522.434 435.48 531.883C435.48 540.195 436.123 542.066 440.269 545.717C442.856 548.011 445.223 549.883 445.443 549.956C445.718 549.956 445.865 543.791 445.865 536.195ZM520.268 532.525C520.268 522.782 520.048 522.361 515.901 522.361C511.663 522.361 511.59 522.562 511.59 535.332C511.59 548.378 511.589 548.378 515.901 545.498C519.699 543.002 520.268 541.424 520.268 532.525ZM384.086 523.865C399.994 523.791 408.747 523.15 406.086 522.361C400.141 520.416 355.995 520.213 355.995 522.14C355.995 522.929 355.554 526.232 355.132 529.443C354.27 535.333 354.27 535.332 355.995 529.662C357.774 524.066 357.774 524.066 384.086 523.865ZM601.974 527.296C600.469 521.498 600.47 521.498 582.048 520.984C571.938 520.709 559.901 521.204 555.387 522.066C548.653 523.35 552.011 523.718 573.296 523.865C599.534 524.066 599.534 524.067 600.69 529.388C601.332 532.324 602.194 534.323 602.616 533.901C603.057 533.461 602.763 530.452 601.974 527.296ZM445.865 517.131C445.865 516.195 442.783 515.406 438.985 515.406C435.187 515.406 432.031 516.195 432.031 517.131C432.031 518.048 435.187 518.837 438.985 518.837C442.783 518.837 445.865 518.048 445.865 517.131ZM523.7 517.131C523.7 516.195 520.984 515.406 517.608 515.406C514.324 515.406 511.59 516.195 511.59 517.131C511.59 518.048 514.324 518.837 517.608 518.837C520.984 518.837 523.7 518.048 523.7 517.131ZM442.434 491.168C440.342 487.242 437.187 486.581 437.187 490.03C437.187 492.966 438.911 494.691 441.921 494.691C443.719 494.691 443.865 493.902 442.434 491.168ZM456.269 491.168C457.975 488.031 457.553 487.737 450.893 487.737C443.718 487.737 443.645 487.81 446.728 491.168C448.453 493.113 450.893 494.691 452.177 494.691C453.388 494.691 455.26 493.113 456.269 491.168ZM509.865 491.168C511.516 488.031 511.168 487.737 505.571 487.737C499.058 487.737 498.984 487.81 500.562 491.902C501.993 495.755 507.645 495.333 509.865 491.168ZM462.929 551.314C463.15 525.718 463.278 524.929 467.517 520.709C473.828 514.397 484.507 514.617 490.159 521.131C494.104 525.791 494.324 527.094 494.324 551.809C494.324 577.681 494.324 577.68 499.113 577.68C503.645 577.68 504.14 576.892 506.14 567.718C507.443 561.846 508.085 549.296 507.792 537.039C507.296 516.269 507.296 516.269 501.204 515.682C494.47 515.039 492.672 513.113 492.599 506.507C492.526 500.929 490.012 499.846 477.333 499.846C465.223 499.92 463.572 500.856 462.856 508.525C462.361 514.103 461.847 514.617 455.829 515.039C449.315 515.626 449.315 515.627 449.315 538.617C449.315 551.241 449.884 565.223 450.453 569.663C451.462 577.333 451.81 577.68 457.113 577.68C462.709 577.68 462.709 577.681 462.929 551.387V551.314ZM518.121 489.315C518.617 485.296 518.544 485.224 515.957 488.526C512.746 492.545 512.525 495.186 515.461 494.25C516.691 493.828 517.901 491.608 518.121 489.315ZM434.691 489.608C433.535 487.737 387.811 488.159 385.957 490.03C385.297 490.672 396.269 491.241 410.251 491.241C425.719 491.241 435.333 490.599 434.691 489.608ZM560.543 489.956C553.663 489.663 541.975 489.663 534.599 489.956C527.149 490.25 532.8 490.525 547.075 490.525C561.332 490.525 567.351 490.323 560.543 489.956ZM428.379 484.948C439.425 482.783 433.187 480.856 414.765 480.856C398.985 480.856 395.701 481.351 395.701 483.443C395.701 485.516 398.416 486.085 409.315 486.085C416.838 486.085 425.37 485.59 428.379 484.948ZM531.021 472.251C553.809 472.251 566.928 471.609 566.928 470.471C566.928 469.389 555.094 468.747 534.965 468.747C514.745 468.747 502.929 468.103 502.929 467.021C502.929 465.938 515.241 465.296 536.47 465.296C565.497 465.296 570.158 464.949 571.075 462.582C573.241 456.985 572.305 454.838 568.14 455.848C565.993 456.416 560.91 456.122 556.892 455.205C551.516 453.975 547.076 454.196 540.47 455.994C528.801 459.059 514.03 459.003 497.186 455.774C482.709 453.04 459.407 452.544 453.682 454.837C451.241 455.847 454.618 456.71 464.93 457.627C478.342 458.93 478.984 459.131 472.673 460.361C468.874 461.076 452.526 462.581 436.416 463.591C420.214 464.655 406.6 466.012 406.086 466.526C405.664 467.021 425.443 467.021 450.177 466.305C479.626 465.59 496.049 465.81 497.755 466.948C499.627 468.177 495.112 468.747 482.214 468.893C472.25 468.967 451.608 470.104 436.342 471.388C408.673 473.682 408.673 473.682 451.957 472.966C475.682 472.544 511.314 472.177 531.021 472.177V472.251ZM444.581 455.48C443.352 455.058 441.425 455.058 440.269 455.48C439.058 455.994 440.067 456.417 442.434 456.417C444.801 456.417 445.792 455.994 444.581 455.48ZM423.939 445.884C423.425 440.856 423.865 434.049 424.801 430.691C426.508 424.875 426.581 425.022 426.875 435.059C427.297 448.105 428.875 453.902 432.251 454.544C434.471 454.984 434.838 452.691 434.471 439.866C434.049 424.655 434.049 424.655 435.756 435.921C438.049 450.472 438.416 451.462 441.205 451.462C443.003 451.462 443.499 447.095 443.425 431.536C443.297 411.683 443.296 411.682 437.058 411.682C427.297 411.682 420.563 408.545 417.701 402.729C414.618 396.362 414.691 396.215 407.811 418.637C398.71 448.178 400.361 454.911 416.691 454.911C424.875 454.911 424.875 454.911 423.939 445.884ZM392.838 444.085C394.049 435.131 410.966 394.417 413.48 394.417C414.471 394.417 412.82 392.05 409.811 389.188C406.875 386.399 403.224 384.032 401.792 384.032C400.361 384.032 399.205 383.169 399.205 382.087C399.205 378.729 408.38 382.234 414.325 387.958C417.407 390.912 419.921 394.913 419.994 396.931C419.994 402.234 422.141 404.674 428.746 406.6C437.48 409.187 487.37 410.692 492.599 408.545C496.397 406.967 495.755 406.673 487.37 406.38C477.902 406.104 477.902 406.105 485.645 404.453C489.938 403.591 497.259 401.719 501.847 400.361C506.507 399.003 517.113 397.866 525.424 397.866C540.617 397.866 540.617 397.867 544.213 403.958C547.644 409.683 548.286 409.976 557.828 410.178L567.791 410.472L556.965 412.196C545.057 414.123 544.984 414.197 548.8 426.6C550.158 431.261 551.369 437.572 551.369 440.71C551.369 449.389 554.598 447.316 555.241 438.068L555.81 429.903L557.241 437.205C558.176 441.939 559.608 444.581 561.332 444.581C563.406 444.581 563.699 442.949 562.764 435.921C562.121 431.114 561.185 425.884 560.69 424.233C560.195 422.582 560.983 423.151 562.415 425.517C563.846 427.958 565.497 432.764 566.139 436.342C567.424 443.865 567.075 443.738 577.038 439.94C584.341 437.132 584.561 436.857 583.772 430.765C582.837 423.738 571.791 398.784 567.497 394.068C564.91 391.188 560.396 390.985 509.736 390.985C456.269 390.985 454.764 390.839 453.682 387.536C452.966 385.169 451.021 384.032 448.012 384.032C445.59 384.032 438.911 382.38 433.187 380.362C418.636 375.206 394.471 376.215 388.031 382.233C378.416 391.261 381.572 407.316 392.765 406.178C396.636 405.811 398.985 404.307 400.857 400.802C403.37 396.215 403.297 395.775 399.572 392.692C397.352 390.912 394.398 389.83 393.04 390.399C389.609 391.701 389.756 399.573 393.26 399.573C395.187 399.573 395.627 398.582 394.912 396.141C393.554 392.05 397.058 391.334 398.636 395.426C400.361 399.866 395.187 403.811 390.747 401.444C386.728 399.297 385.884 392.839 389.169 389.536C392.618 386.178 400.434 387.114 403.444 391.334C411.682 403.095 396.049 415.774 383.939 407.242C379.132 403.884 379.921 403.096 374.343 417.206C368.38 432.27 368.6 434.49 376.123 441.15L382.508 446.746L384.435 439.15C386.453 431.609 393.829 416.27 393.903 419.499C393.903 420.435 392.398 426.178 390.545 432.197C386.526 445.022 386.159 451.462 389.462 451.462C390.893 451.462 392.178 448.673 392.838 444.159V444.085ZM462.563 405.39C460.196 402.949 461.572 399.573 464.93 399.573C466.801 399.573 468.379 400.362 468.379 401.297C468.379 402.16 467.223 402.508 465.792 401.939C464.361 401.37 463.149 401.866 463.149 403.022C463.149 404.086 464.507 404.747 466.232 404.453C467.865 404.16 469.241 402.307 469.241 400.435C469.241 395.701 459.92 394.563 456.764 398.93C455.535 400.581 454.544 401.078 454.544 399.94C454.544 398.784 452.177 397.866 449.315 397.866C445.865 397.866 444.141 398.71 444.141 400.435C444.141 401.866 443.352 403.096 442.434 403.096C440.783 403.096 440.856 397.077 442.507 395.426C443.792 394.196 466.361 394.344 483.058 395.701C501.205 397.206 503.205 400.802 485.352 399.94C475.113 399.371 473.608 399.72 471.884 402.949C470.03 406.38 464.93 407.756 462.563 405.39ZM425.15 402.234C423.37 400.087 423.37 398.508 424.875 395.132C427.168 390.05 433.113 389.903 436.196 394.839C440.214 401.224 430.031 408.105 425.15 402.234ZM434.324 398.857C435.976 394.71 430.673 391.628 427.444 394.839C425.939 396.289 425.224 398.362 425.866 399.426C427.59 402.16 433.26 401.72 434.324 398.857ZM767.532 840.65C767.532 839.788 768.688 838.724 770.119 838.155C771.697 837.494 772.706 838.154 772.706 839.659C772.706 841.09 771.551 842.228 770.119 842.228C768.688 842.228 767.532 841.513 767.532 840.65ZM793.477 837.219C793.477 834.356 792.339 831.769 790.908 831.2C789.477 830.687 788.248 830.98 788.248 831.916C788.248 832.852 786.248 833.568 783.734 833.568C779.862 833.568 779.514 833.916 781.367 836.21C784.743 840.228 782.083 841.238 778.285 837.439C774.927 834.063 775 833.916 788.394 821.659C800.578 810.485 805.459 808.265 802.945 814.999C802.376 816.283 802.725 819.439 803.734 822.026C805.018 825.384 804.89 826.889 803.238 827.898C799.568 830.118 798.358 835.274 801.587 835.274C803.587 835.274 803.092 836.283 799.936 838.797C794.137 843.31 793.477 843.164 793.477 837.219ZM447.59 829.402C444.728 827.751 440.563 827.256 435.113 827.898C429.462 828.54 426.012 828.118 424.012 826.467C422.361 825.109 417.279 824.026 412.178 824.026C406.728 824.026 401.939 823.017 400.068 821.439C398.27 819.935 393.481 818.87 388.747 818.87C383.004 818.87 379.425 817.861 376.783 815.494C374.545 813.42 370.398 812.064 366.307 811.917C361.866 811.844 358.068 810.485 355.481 807.972C353.059 805.751 349.187 804.173 345.958 804.173C342.38 804.173 338.508 802.376 334.637 799.018C330.692 795.495 326.82 793.788 323.169 793.788C319.151 793.788 316.142 792.284 312.692 788.614C310.05 785.752 306.968 783.458 305.812 783.458C301.225 783.458 292.344 777.807 290.546 773.862C289.261 771.128 287.188 769.623 284.601 769.623C279.372 769.623 273.133 765.109 271.133 759.88C270.124 757.164 268.197 755.715 265.463 755.715C261.17 755.715 252.198 748.192 252.198 744.54C252.198 743.403 249.06 741.238 245.262 739.734C240.161 737.734 237.592 735.367 235.794 731.074C234.216 727.276 231.354 724.34 227.831 722.817C224.179 721.312 221.317 718.303 219.299 713.789C217.666 710.064 213.941 705.55 210.987 703.826C207.482 701.679 204.969 698.248 203.611 693.587C202.473 689.716 200.822 686.56 199.959 686.56C196.803 686.56 189.923 677.954 189.923 674.009C189.923 671.514 187.978 668.505 184.895 666.211C181.96 664.046 179.391 660.121 178.675 656.818C177.959 653.662 175.152 648.579 172.437 645.497C169.501 642.121 167.483 637.827 167.483 634.946C167.483 632.01 165.776 628.506 163.116 626.065C160.107 623.203 158.822 620.193 158.822 615.955C158.822 612.157 157.446 608.433 155.226 605.992C152.859 603.552 151.501 599.699 151.428 595.534C151.354 591.882 149.85 587.002 148.143 584.781C146.198 582.194 144.987 577.754 144.987 573.02C144.987 568.874 143.758 563.497 142.18 561.13C140.4 558.415 139.685 554.672 140.253 550.452C140.675 546.581 140.033 541.846 138.455 538.837C136.804 535.607 136.309 531.314 136.951 526.58C137.52 522.507 137.171 518.635 136.089 517.553C135.098 516.544 134.382 513.113 134.511 509.957C134.584 506.727 134.731 501.645 134.584 498.563C134.584 495.407 134.511 489.608 134.584 485.59C134.584 481.498 134.584 473.755 134.511 468.305C134.511 462.287 135.52 456.838 137.024 454.471C138.822 451.756 139.097 449.682 138.033 447.957C135.593 444.085 136.015 437.058 138.896 432.985C140.4 430.765 141.318 426.104 141.116 421.37C140.822 415.774 141.758 412.123 144.345 408.673C146.84 405.242 147.63 402.013 147.134 397.647C146.565 392.913 147.428 390.325 150.712 386.398C153.648 382.875 155.024 379.225 155.024 374.711C155.024 369.904 156.235 366.748 159.464 363.39C162.473 360.307 163.978 356.784 163.978 353.059C163.978 349.041 165.556 345.83 169.207 342.16C172.657 338.729 174.363 335.279 174.363 331.701C174.363 327.903 176.088 324.821 180.382 320.73C183.758 317.592 186.473 313.354 186.473 311.207C186.473 309.061 189.281 304.749 192.932 301.317C196.51 297.941 200.235 292.785 201.17 289.922C202.106 286.987 205.335 283.041 208.271 281.097C211.28 279.17 215.152 274.51 216.95 270.712C218.95 266.4 222.179 262.896 225.408 261.465C228.693 260.034 231.629 256.804 233.354 252.584C235.427 247.777 237.867 245.409 242.234 243.831C245.904 242.473 249.335 239.537 251.207 236.088C254.142 230.638 260.087 226.639 265.115 226.639C266.472 226.639 267.977 225.06 268.619 223.189C270.05 218.675 277.647 212.805 282.234 212.731C284.454 212.658 287.335 210.437 289.408 207.061C291.848 203.19 294.931 201.043 299.573 199.887C303.243 198.97 308.399 196.033 311.041 193.373C314.124 190.29 317.72 188.566 320.876 188.566C324.16 188.566 327.609 186.786 330.912 183.336C334.71 179.391 337.352 178.181 342.38 178.181C347.022 178.181 350.105 176.952 353.188 173.888C356.417 170.658 359.353 169.502 364.582 169.502C369.242 169.502 372.912 168.364 375.334 166.071C377.921 163.704 381.426 162.621 386.802 162.621C391.756 162.621 395.774 161.557 397.921 159.612C400.214 157.539 404.159 156.603 410.178 156.603C415.04 156.603 420.93 155.538 423.223 154.236C425.792 152.731 429.957 152.236 434.324 152.804C438.838 153.373 443.15 152.805 446.434 151.08C450.673 148.86 452.746 148.787 459.131 150.659C464.929 152.237 467.296 152.31 468.801 150.805C471.315 148.292 479.627 148.218 484.287 150.732C486.929 152.163 489.59 152.089 494.599 150.438C500.342 148.512 502.14 148.585 507.223 151.007C511.663 153.099 514.452 153.374 518.764 152.163C523.204 150.878 525.718 151.227 530.507 153.741C534.599 155.814 538.892 156.604 543.277 156.108C548.066 155.539 551.222 156.254 554.525 158.676C557.828 161.116 560.984 161.832 565.773 161.263C570.727 160.694 573.736 161.41 577.387 164.125C580.121 166.144 584.763 167.777 587.717 167.777C593.589 167.777 603.259 172.163 603.259 174.805C603.259 175.667 606.414 176.456 610.286 176.456C615.662 176.456 618.451 177.613 622.121 181.19C625.258 184.346 628.855 186.071 632.653 186.126C636.799 186.346 639.809 187.923 643.331 191.795C646.414 195.299 649.772 197.245 652.726 197.245C655.735 197.245 659.24 199.318 663.038 203.263C666.12 206.565 670.359 209.281 672.359 209.281C676.01 209.281 684.542 216.383 684.542 219.465C684.542 220.328 687.771 222.107 691.716 223.409C696.945 225.116 699.661 227.281 701.679 231.281C703.184 234.364 705.404 236.95 706.615 236.95C709.551 237.024 731.202 257.813 731.202 260.529C731.202 261.758 734.432 264.895 738.432 267.556C743.019 270.638 746.175 274.363 747.11 277.592C747.973 280.675 750.908 284.253 754.138 286.272C758.009 288.694 760.229 291.776 761.312 296.216C762.229 299.959 764.248 303.097 766.101 303.684C769.624 304.748 774.413 312.858 774.413 317.592C774.413 319.225 776.78 322.601 779.587 325.041C783.165 328.05 784.963 331.28 785.165 335.152C785.459 338.73 787.33 342.454 790.339 345.39C793.77 348.693 795.202 351.701 795.202 355.921C795.202 359.72 796.706 363.739 799.513 366.968C802.302 370.344 803.807 374.27 803.807 378.215C803.807 381.665 805.312 386.178 807.312 388.692C809.532 391.554 810.761 395.701 810.761 400.729C810.761 405.738 811.972 409.976 814.413 413.26C817.275 417.132 817.862 419.646 816.926 424.454C816.137 428.674 816.633 431.829 818.431 434.618C819.935 436.911 821.147 442.435 821.147 447.242C821.147 451.903 821.513 461.223 822.082 467.81C823.018 479.205 823.165 485.443 822.724 498.122C822.578 500.929 822.651 506.085 822.871 509.517C823.091 512.966 822.376 516.544 821.367 517.553C820.357 518.562 820.009 522.856 820.578 527.663C821.293 533.682 820.798 537.185 818.853 540.121C817.073 542.928 816.486 546.507 817.146 551.241C817.788 556.176 817.147 559.479 814.908 562.929C812.982 565.865 811.899 570.158 812.192 574.029C812.559 578.323 811.55 581.846 809.11 584.928C806.89 587.717 805.532 592.029 805.532 596.249C805.532 600.488 804.229 604.781 802.082 607.496C800.156 609.937 798.651 613.735 798.651 615.955C798.651 620.615 792.633 631.221 790.046 631.221C789.037 631.221 788.248 634.029 788.248 637.386C788.248 641.478 786.963 644.835 784.303 647.496C782.083 649.643 779.367 654.67 778.156 658.67C777 662.615 774.138 667.055 771.844 668.56C769.55 670.064 767.459 672.946 767.184 674.946C766.174 681.404 762.303 680.542 762.303 673.808C762.303 668.78 763.239 667.203 767.33 665.056C772.56 662.34 774.413 659.258 774.413 653.24C774.413 651.221 776.505 647.918 779 645.845C782.23 643.276 783.661 640.469 783.807 636.323C783.954 632.378 785.605 628.781 788.835 625.643C792.486 621.974 793.477 619.552 793.128 614.672C792.908 610.58 793.624 607.717 795.422 606.432C799.789 603.203 802.229 597.038 801.091 592.304C800.229 589.019 800.945 586.726 803.807 583.699C806.816 580.488 807.532 578.121 806.89 573.02C806.321 568.231 807.037 565.148 809.532 561.772C812.266 558.121 812.688 555.608 811.77 549.883C810.981 544.654 811.33 541.773 813.128 539.773C816.357 536.195 816.78 533.186 815.202 525.517C814.192 520.783 814.633 518.049 816.926 514.618C819.715 510.251 819.788 509.59 817.073 503.938C814.486 498.489 814.413 497.48 816.779 494.122C820.082 489.535 820.155 484.232 817.073 479.92C815.055 477.204 815.055 475.847 817.073 471.113C819.495 465.168 818.853 461.15 814.706 456.343C812.834 454.122 812.688 452.618 814.119 449.957C816.853 444.801 816.412 440.287 812.559 435.48C809.678 431.755 809.477 430.397 811.183 425.737C812.981 421.003 812.761 419.719 809.257 415.059C806.101 410.765 805.532 408.398 806.45 403.169C807.385 397.719 806.816 395.701 803.091 391.334C800.009 387.609 798.724 384.032 798.724 379.298C798.724 374.271 797.569 371.407 794.339 368.398C791.257 365.462 790.046 362.527 790.046 357.867C790.046 352.986 788.963 350.491 785.752 347.977C782.743 345.61 781.367 342.876 781.367 339.023C781.367 334.858 779.862 331.996 775.349 327.904C771.991 324.821 769.257 320.675 769.257 318.73C769.257 312.711 767.404 309.629 762.156 306.914C759.147 305.336 757.22 302.969 757.22 300.803C757.22 295.574 754.211 290.914 749.111 288.272C746.542 286.914 743.753 283.39 742.67 280.033C741.386 276.088 738.872 273.225 734.78 271.207C730.909 269.207 728.267 266.345 727.037 262.601C726.047 259.464 723.386 256.015 721.166 254.932C718.946 253.868 715.643 250.566 713.936 247.703C711.771 244.199 709.056 242.254 705.826 241.832C702.248 241.465 700.23 239.74 698.01 235.024C695.717 230.07 693.79 228.492 689.129 227.629C684.689 226.767 682.175 224.915 679.588 220.474C676.799 215.814 674.946 214.511 671.001 214.511C667.276 214.511 664.763 212.932 661.313 208.419C657.955 203.978 655.368 202.4 651.643 202.4C648.194 202.4 644.763 200.474 640.598 196.309C636.231 192.016 633.001 190.291 629.075 190.291C625.331 190.291 622.616 188.933 620.249 185.997C617.662 182.621 615.313 181.612 609.864 181.612C604.561 181.612 601.827 180.547 598.818 177.318C595.736 173.942 593.094 173.025 587.204 173.025C581.681 173.025 578.671 172.016 576.323 169.355C573.662 166.42 571.589 165.924 565.571 166.566C560.616 167.135 557.388 166.639 555.736 164.988C551.736 160.969 545.718 159.539 540.544 161.337C536.819 162.621 534.965 162.419 532.745 160.401C528.158 156.382 522.837 155.392 517.901 157.686C514.103 159.337 512.378 159.19 507.443 156.529C502.268 153.74 500.691 153.594 494.892 155.539C489.37 157.319 487.517 157.245 483.278 155.098C478.764 152.731 477.553 152.732 471.388 155.246C465.718 157.539 463.498 157.612 458.764 155.888C453.976 154.163 452.104 154.31 447.884 156.456C444.214 158.328 440.342 158.823 434.764 158.034C428.526 157.172 426.086 157.612 423.499 160.052C420.857 162.419 418.489 162.842 412.544 161.906C406.526 161.043 404.159 161.484 400.71 164.199C397.627 166.64 394.049 167.502 388.178 167.281C381.572 167.006 379.426 167.722 377.059 170.805C374.765 173.814 372.618 174.603 366.747 174.31C360.728 174.016 358.563 174.878 355.059 178.602C351.83 182.125 349.261 183.19 344.6 183.062C339.719 182.842 337.279 183.979 333.481 188.071C329.756 192.089 327.463 193.153 324.087 192.438C320.582 191.795 318.362 193.006 313.701 197.887C309.83 201.979 306.252 204.126 303.316 204.126C298.931 204.126 290.27 210.86 290.27 214.309C290.27 215.227 287.757 216.529 284.674 217.172C277.867 218.603 274.858 220.895 272.913 226.051C271.922 228.565 269.041 230.566 264.399 231.795C258.949 233.3 256.729 235.024 254.362 239.887C252.271 244.327 249.629 246.694 245.317 248.052C240.675 249.501 238.803 251.354 237.298 256.014C235.941 260.308 233.427 263.042 228.693 265.556C224.106 267.923 221.391 270.786 220.161 274.51C219.17 277.593 215.794 281.813 212.418 284.033C208.565 286.693 206.051 290.125 205.042 294.069C204.106 298.014 201.684 301.317 198.088 303.611C194.29 306.051 192.437 308.62 191.996 312.216C191.721 315.427 189.207 319.519 185.556 322.968C181.464 326.767 179.593 329.978 179.593 333.427C179.593 336.656 177.813 340.088 174.437 343.317C170.639 346.968 169.207 349.903 169.207 354.289C169.207 358.362 167.629 362.013 163.978 366.179C159.666 371.059 158.896 373.206 159.74 377.279C160.602 381.151 159.886 383.444 156.235 387.83C152.51 392.196 151.795 394.49 152.584 399.297C153.299 404.013 152.657 406.307 149.281 410.325C144.547 415.995 144.125 418.215 146.914 424.38C148.565 427.884 148.198 429.462 144.914 433.902C141.391 438.709 141.189 439.939 142.896 445.663C144.474 450.819 144.4 452.691 142.547 454.837C138.822 459.131 138.107 464.013 140.547 469.609C142.4 473.976 142.327 475.701 140.107 480.361C137.666 485.444 137.74 486.58 140.327 491.957C142.896 497.333 142.895 498.415 140.547 503.223C138.18 507.957 138.18 509.021 140.547 513.828C142.327 517.479 142.896 521.571 142.18 526.653C141.465 531.956 141.905 535.185 143.832 537.974C145.776 540.708 146.272 544.14 145.63 549.809C144.841 556.396 145.263 558.342 148.272 560.984C151.226 563.718 151.648 565.498 150.786 572.103C149.85 578.543 150.217 580.341 152.932 582.267C155.226 583.992 156.308 587.075 156.528 592.524C156.657 597.827 157.96 601.625 160.4 604.286C162.693 606.708 164.051 610.433 164.051 614.249C164.051 618.469 165.336 621.552 168.418 624.341C171.281 627.075 172.712 630.304 172.712 634.102C172.712 638.469 173.941 640.762 177.886 643.624C181.611 646.358 183.115 648.927 183.115 652.505C183.115 656.028 184.84 659.038 189.134 662.836C192.51 665.845 195.225 669.569 195.225 671.221C195.225 676.523 197.225 679.753 202.326 682.395C205.831 684.193 207.262 686.266 207.262 689.349C207.262 694.082 214.289 702.175 218.381 702.175C219.959 702.175 221.739 704.909 222.822 709.001C224.326 714.505 225.904 716.377 231.427 718.744C236.014 720.817 238.51 723.183 239.299 726.192C240.877 732.431 243.023 734.651 249.06 735.935C252.638 736.724 255.078 738.871 257.005 742.963C259.078 747.403 261.592 749.422 266.619 750.926C270.619 752.137 273.849 754.43 274.711 756.577C276.583 761.384 279.665 763.899 285.959 765.403C288.766 766.119 293.481 769.348 296.509 772.504C300.435 776.651 303.445 778.228 307.39 778.228C310.325 778.228 312.766 778.87 312.766 779.659C312.766 783.384 320.215 788.614 325.536 788.614C329.536 788.614 332.545 790.119 336.141 793.862C339.866 797.733 342.655 799.018 347.389 799.018C351.903 799.018 354.839 800.228 357.848 803.457C361.371 807.182 363.151 807.825 368.453 807.109C373.628 806.467 375.848 807.109 379.572 810.632C383.517 814.284 385.297 814.779 391.114 813.843C396.765 812.926 398.783 813.421 402.012 816.504C405.37 819.587 407.315 820.081 413.609 819.219C419.058 818.43 422.288 818.944 425.077 820.87C427.884 822.889 431.095 823.384 436.765 822.595C442.508 821.806 445.866 822.229 449.444 824.394C453.755 826.962 455.186 827.036 461.425 824.963C466.874 823.164 469.021 823.09 470.526 824.668C473.113 827.182 481.351 827.256 486.085 824.742C488.801 823.311 491.388 823.385 496.544 825.109C502.562 827.109 504.067 827.036 508.58 824.394C512.947 821.88 514.672 821.733 519.479 823.457C524.342 825.256 525.92 825.036 531.223 821.953C535.81 819.22 539.039 818.577 544.415 819.293C550.158 820.082 552.305 819.513 555.461 816.577C558.543 813.714 560.323 813.275 564.415 814.357C569.791 815.862 579.112 812.705 579.112 809.329C579.112 808.411 582.837 807.678 587.424 807.678C594.158 807.678 596.598 806.834 599.901 803.238C602.91 800.082 605.203 799.091 608.066 799.806C612.579 800.944 618.671 798.229 621.974 793.568C623.478 791.495 626.414 790.339 630.286 790.339C634.653 790.339 637.515 789.054 640.744 785.605C643.111 783.036 648.341 780.1 652.286 779.164C657.442 777.862 660.102 776.081 661.68 772.779C663.827 768.192 664.983 767.55 674.432 765.477C677.295 764.835 679.735 762.596 681.037 759.459C682.597 755.716 684.689 754.083 689.056 753.294C693.716 752.431 695.716 750.706 698.45 745.33C700.817 740.743 703.111 738.523 705.478 738.523C709.844 738.523 717.441 731.073 717.441 726.688C717.441 724.541 719.661 722.614 724.395 720.743C729.918 718.596 731.496 716.872 732.413 712.579C733.129 708.707 735.496 705.844 740.083 702.908C744.322 700.248 747.184 696.945 747.826 693.936C749.551 685.917 750.193 684.615 751.918 685.698C756.578 688.56 748.267 707.349 742.303 707.349C741.092 707.349 738.578 710.78 736.725 714.945C734.431 720.101 731.698 723.183 727.9 724.835C724.468 726.339 721.459 729.422 719.955 733C718.23 737.018 715.496 739.532 710.982 741.312C706.762 743.037 703.533 745.826 701.882 749.422C700.23 752.853 697.294 755.587 693.936 756.651C691.001 757.587 685.826 761.311 682.542 764.889C679.166 768.412 674.799 771.347 672.781 771.347C670.854 771.347 667.625 773.641 665.625 776.503C663.331 779.659 659.166 782.449 654.653 783.825C650.634 785.036 645.845 787.77 643.974 789.99C641.9 792.284 637.588 794.43 633.588 794.999C629.643 795.641 624.983 797.861 622.836 800.155C620.176 802.962 617.093 804.173 612.726 804.173C608.488 804.173 604.69 805.605 601.258 808.54C597.956 811.348 594.011 812.852 590.14 812.852C586.708 812.852 581.974 814.43 579.112 816.577C575.314 819.366 572.507 820.008 567.424 819.365C562.488 818.723 559.754 819.292 556.672 821.806C553.736 824.173 550.305 825.036 544.342 824.742C539.755 824.522 534.966 825.311 533.516 826.467C532.012 827.678 526.929 828.467 521.7 828.32C516.69 828.118 510.012 829.054 506.929 830.265C502.415 832.192 500.269 832.192 495.315 830.412C490.728 828.761 488.379 828.687 485.572 830.191C483.425 831.347 479.205 831.696 475.535 831.054C467.664 829.696 463.719 829.622 457.187 830.833C454.104 831.402 450.232 830.833 447.663 829.402H447.59ZM444.141 810.907C334.564 798.577 240.308 734.578 189.134 637.754C164.473 591.167 153.006 543.791 153.006 488.599C153.006 457.425 154.363 444.728 160.822 417.278C188.125 300.674 281.372 207.135 400.068 177.466C472.452 159.337 551.736 167.282 619.46 199.539C647.772 213.007 691.496 242.401 691.349 247.85C691.349 249.208 690.56 248.914 689.203 247.207C688.047 245.703 686.12 244.767 684.891 245.189C683.68 245.63 678.597 242.822 673.643 239.024C560.268 152.383 400.636 151.942 286.179 238.033C217.666 289.555 173.868 362.16 161.318 445.168C156.877 474.196 158.455 523.003 164.694 552.323C200.381 719.679 359.572 829.402 528.874 803.164C617.387 789.476 696.505 738.596 747.331 662.762C808.688 571.02 815.77 449.169 765.606 348.913C758.23 334.216 743.092 309.977 734.431 298.95C728.982 292.069 727.257 283.115 732.138 287.189C741.514 295.005 768.688 338.729 778.156 361.298C840.357 509.957 790.908 672.157 656.597 760.376C595.442 800.596 517.333 819.145 444.141 810.907ZM426.655 727.77C417.058 725.256 410.967 717.881 409.958 707.495C409.169 699.312 409.536 698.376 415.187 692.725C423.003 684.909 433.187 684.12 439.92 690.854C445.076 696.028 445.645 705.478 441.003 709.716C437.553 712.799 426.875 713.642 426.875 710.78C426.875 709.844 428.746 709.055 431.04 709.055C436.049 709.055 440.709 704.908 440.709 700.468C440.709 696.945 433.04 690.064 429.095 690.064C423.645 690.064 416.691 695.367 414.838 701.037C409.609 716.945 429.664 730.706 444.012 720.889C457.828 711.422 461.847 695.294 454.544 678.322C444.581 655.24 408.6 637.038 380.361 640.836C345.591 645.496 310.913 672.303 311.041 694.303C311.261 718.89 341.646 731.99 356.784 714.009C361.499 708.412 362.802 696.377 359.353 689.937C357.059 685.771 348.82 681.404 343.022 681.404C333.132 681.404 326.38 694.872 333.206 701.037C337.206 704.615 340.142 704.615 344.16 701.037C347.958 697.587 350.545 699.313 347.958 703.551C346.821 705.331 343.371 706.706 339.077 706.981C330.765 707.624 326.527 703.183 326.527 693.936C326.527 676.376 347.022 671.001 360.435 685.056C367.169 692.083 367.664 706.836 361.444 715.588C349.04 733 320.876 730.211 310.839 710.505C307.114 703.11 306.747 686.982 310.197 678.964C311.408 676.101 311.041 675.808 307.39 676.946C284.381 683.826 264.326 674.084 264.326 656.102C264.326 637.68 279.793 625.203 294.142 632.084C308.178 638.689 306.674 658.964 292.197 658.964C285.959 658.964 282.876 655.387 283.592 649.075C284.252 643.552 287.683 643.331 287.683 648.854C287.683 650.873 289.041 653.368 290.766 654.45C294.931 656.964 301.225 649.937 299.647 644.414C295.775 631.075 277.078 632.084 270.417 646.066C263.316 661.038 274.344 674.523 293.628 674.523C304.16 674.523 311.903 670.853 329.114 657.954C349.041 642.982 367.242 636.45 389.389 636.45C434.251 636.45 470.819 671.936 461.351 706.193C459.058 714.376 449.095 725.697 442.783 727.128C440.214 727.771 436.911 728.559 435.48 728.853C434.122 729.202 430.104 728.706 426.655 727.77ZM514.397 727.349C492.672 719.606 486.581 692.156 501.406 669.074C520.837 638.689 566.782 627.717 604.561 644.414C609.57 646.561 620.102 653.092 627.992 658.817C645.13 671.22 652.359 674.523 663.038 674.523C677.955 674.523 687.974 666.34 687.974 654.083C687.974 635.092 658.744 626.928 657.166 645.497C656.799 650.506 657.441 652.23 660.322 653.735C664.983 656.248 669.496 653.02 667.992 648.359C667.331 646.139 667.845 645.129 669.698 645.129C673.001 645.129 673.423 653.735 670.359 656.891C667.129 660.047 658.946 659.331 655.148 655.459C650.359 650.725 650.781 642.983 656.084 636.671C668.561 621.845 691.992 633.809 691.992 654.873C691.992 664.414 687.772 670.579 677.515 675.955C669.845 679.899 659.166 680.322 648.854 677.092C645.13 675.955 645.13 675.954 647.772 685.477C650.065 693.66 650.139 696.229 648.139 703.257C640.671 729.917 605.13 735.807 592.58 712.505C584.195 696.817 594.672 677.533 611.644 677.533C626.983 677.533 635.515 693.294 626.047 704.34C621.332 709.844 606.708 706.835 606.708 700.321C606.708 698.101 607.919 698.322 612.726 701.459C621.405 707.129 629.13 698.027 623.754 688.486C618.818 679.752 606.561 679.385 598.745 687.771C592.8 694.229 592.873 706.835 598.965 714.009C614.451 732.357 644.763 719.165 644.763 694.156C644.763 675.734 620.102 652.872 591.149 644.34C580.048 641.037 556.452 640.615 545.846 643.478C526.635 648.652 509.443 661.899 501.92 677.312C493.314 694.871 498.837 715.092 514.177 722.395C525.204 727.624 539.332 721.037 541.479 709.496C544.488 693.863 523.993 683.551 516.746 697.019C514.177 701.899 517.461 707.276 523.773 708.487C530.727 709.844 530.232 712.579 523.131 712.579C511.81 712.579 507.369 699.312 515.828 690.854C526.635 680.028 546.14 689.936 546.14 706.266C546.14 716.009 538.892 725.331 529.149 728.065C521.553 730.211 522.635 730.211 514.397 727.349ZM432.031 959.566C344.16 950.539 252.565 913.769 184.18 860.081C164.125 844.32 159.171 839.072 160.106 834.485C161.042 829.549 157.813 827.256 154.161 830.338C151.795 832.338 148.987 830.118 133.079 813.568C59.2635 736.871 14.5301 641.332 2.19989 534.397C-1.37805 503.37 -0.442391 437.774 3.92454 410.765C26.6399 270.492 99.263 157.044 216.73 78.329C291.059 28.5314 383.939 -6.10352e-05 472.03 -6.10352e-05C494.819 -6.10352e-05 495.608 0.146392 494.746 3.50415C494.104 5.94449 494.746 6.95343 496.819 6.95343C498.984 6.95343 499.626 5.94449 498.984 3.50415C497.828 -0.86277 500.691 -0.936154 531.443 2.64178C640.029 15.1921 731.918 58.4211 812.486 134.897L828.89 150.438L816.853 149.795C804.743 149.153 804.743 149.153 808.816 152.456C811.972 154.951 813.477 155.245 815.275 153.741C817.146 152.163 817.642 152.658 817.642 156.034C817.642 161.117 822.082 163.704 833.972 165.631C841.935 166.86 843.44 167.925 852.761 179.044C865.44 194.089 890.467 231.281 901.494 251.501C926.155 296.803 944.283 351.922 953.751 410.765C958.191 438.068 958.191 523.424 953.751 550.873C947.879 587.57 931.825 648.506 928.008 648.506C927.237 648.506 926.577 647.717 926.577 646.781C926.577 645.846 925.787 645.056 924.87 645.056C922.43 645.056 922.705 651.588 925.219 652.377C930.026 654.01 905.219 705.697 882.357 741.899C864.229 770.559 822.651 821.439 817.348 821.439C816.706 821.439 815.917 819.292 815.568 816.724C815.201 813.274 814.192 812.063 812.046 812.412C807.826 813.127 808.027 812.631 815.844 804.173C821.147 798.448 822.504 795.788 821.733 792.705C820.944 789.549 822.798 786.321 830.174 777.807C883.44 716.67 922.136 630.304 933.457 547.369C952.962 403.958 908.375 264.106 810.321 161.63C795.202 145.777 795.202 145.777 801.22 146.291C804.523 146.493 807.238 145.997 807.238 145.061C807.238 144.126 808.027 143.851 808.963 144.42C811.11 145.778 811.183 144.915 809.036 139.41C807.459 135.319 807.036 135.173 801.734 137.044C798.578 138.108 795.128 140.127 794.137 141.484C792.633 143.558 790.339 142.273 781.165 134.035C714.358 74.2558 625.13 34.2561 534.03 23.2838C508.012 20.1462 450.599 20.219 424.214 23.3566C412.82 24.8061 403.003 25.9435 402.435 25.9435C401.866 25.9435 400.49 24.0179 399.425 21.6509C398.343 19.1372 398.196 17.3382 399.132 17.3382C400.068 17.3382 400.361 16.2015 399.774 14.7703C399.205 13.3391 396.912 12.1094 394.618 12.1094C388.82 12.1094 389.169 18.6959 395.26 23.65C399.572 27.2279 399.719 27.5959 396.49 27.6693C389.242 27.7427 344.013 39.7792 324.031 46.88C296.637 56.623 254.436 77.8334 228.84 94.6772C153.373 144.42 92.9513 215.887 57.392 297.446C52.8049 308.125 51.0983 310.344 47.7955 310.418C45.4286 310.418 43.6304 311.629 43.2818 313.501C42.9148 315.299 43.7039 316.51 45.3553 316.51C49.08 316.51 48.9334 317.372 42.0527 337.94C27.1537 382.527 19.9794 429.243 20.0528 481.646C20.1262 514.966 20.8419 523.938 26.6401 563.919C27.6492 571.167 27.4288 572.03 23.9243 572.965C18.8418 574.25 20.3463 578.323 26.2178 579.057C29.3738 579.405 30.805 580.616 30.805 582.781C30.805 584.561 33.5206 595.314 36.75 606.708C88.144 785.036 239.372 914.76 423.077 938.062C450.893 941.567 505.645 941.64 533.883 938.135C610.653 928.594 682.597 900.943 744.395 857.219C760.156 846.1 760.156 846.099 765.532 851.127C775.073 860.081 773.697 862.228 747.184 879.64C717.221 899.365 703.533 907.089 703.533 904.227C703.533 903.089 704.762 900.723 706.322 898.998C708.982 896.062 708.835 895.769 704.469 894.117C698.157 891.695 697.019 891.824 695.074 895.273C693.863 897.567 694.506 899.218 697.937 902.447C702.469 906.594 702.468 906.594 697.735 909.034C695.147 910.392 692.359 911.035 691.496 910.54C690.56 909.971 689.276 910.613 688.487 911.897C686.267 915.695 678.744 919.144 677.955 916.777C677.588 915.695 675.79 914.832 674.01 914.832C671.716 914.832 671.074 913.97 671.79 912.044C672.652 909.97 671.918 909.456 668.707 909.897C662.744 910.759 663.68 915.346 670.285 917.493C675.863 919.346 675.863 919.346 669.35 922.428C633.79 939.492 574.158 954.539 522.195 959.713C501.204 961.787 453.04 961.713 432.031 959.493V959.566ZM147.207 141.631C144.272 138.695 140.822 141.484 143.409 144.64C144.841 146.42 146.051 146.64 147.281 145.356C148.565 144.127 148.492 142.989 147.207 141.631ZM515.039 953.75C515.039 952.319 513.883 951.108 512.525 951.108C509.663 951.108 507.718 953.621 509.296 955.199C511.369 957.272 515.039 956.337 515.039 953.75ZM847.88 779.88C847.88 778.522 846.174 777.092 844.009 776.798C840.211 776.229 838.632 779.586 841.366 782.32C843.366 784.32 847.88 782.669 847.88 779.954V779.88ZM881.292 740.027C880.926 739.018 879.916 738.156 879.072 738.156C878.136 738.156 877.127 739.018 876.779 740.027C876.412 741.036 877.421 741.899 879.072 741.899C880.632 741.899 881.641 741.036 881.292 740.027ZM895.054 706.981C893.971 703.752 890.247 703.257 890.247 706.266C890.247 707.844 891.531 709.055 893.036 709.055C894.54 709.055 895.476 708.137 895.054 706.981ZM935.255 619.973C935.255 618.542 934.045 617.386 932.669 617.386C929.953 617.386 929.237 619.404 931.164 621.404C933.182 623.423 935.255 622.689 935.255 619.973ZM10.5297 462.434C12.1077 460.856 9.94261 456.416 8.16281 457.553C7.30043 458.067 6.58487 459.646 6.58487 461.004C6.58487 463.517 8.65817 464.305 10.5297 462.434ZM37.759 345.114C37.759 342.032 34.8966 340.16 32.4563 341.591C31.2269 342.38 31.3002 343.536 32.6763 345.169C35.3185 348.325 37.759 348.325 37.759 345.114ZM852.119 190.144C849.531 187.575 846.816 186.713 842.229 187.135C835.77 187.649 835.77 187.649 841 190.658C843.88 192.236 848.321 193.594 850.963 193.667C855.697 193.741 855.696 193.74 852.119 190.144ZM837.844 178.749C837.201 178.107 837.568 176.53 838.633 175.319C841.22 172.163 838.853 172.309 835.697 175.447C832.468 178.676 832.541 179.906 836.137 179.906C837.715 179.906 838.504 179.391 837.844 178.749ZM421.645 929.456C248.399 905.529 106.07 788.265 50.9514 624.065C39.3369 589.368 29.9425 540.984 31.7406 525.149C33.2452 512.324 35.172 515.112 36.75 532.672C39.9059 566.286 50.3646 608.01 64.9149 645.056C117.245 778.008 231.354 878.062 371.463 913.97C436.123 930.538 511.021 931.181 579.607 915.694C628.708 904.667 685.184 880.649 722.175 855.2C727.11 851.842 732.065 849.108 733.276 849.035C736.083 848.961 741.514 844.888 741.588 842.87C741.661 840.87 758.945 828.32 761.661 828.32C762.817 828.32 764.027 827.329 764.321 826.099C764.67 824.815 771.991 817.44 780.725 809.623C846.596 750.707 897.054 660.689 915.256 569.81C923.568 528.232 925.788 465.168 920.485 424.233C914.907 381.444 901.274 333.499 883.586 294.289C878.705 283.463 875.128 273.942 875.696 273.079C876.192 272.217 875.476 271.06 874.118 270.491C872.687 269.996 867.605 262.749 862.797 254.363C801.66 148.438 689.478 67.8698 568.855 43.2829C512.746 31.8885 446.306 31.8154 391.114 43.0813C374.416 46.5125 368.031 46.5125 368.031 43.0813C368.031 42.2189 368.6 41.5034 369.316 41.5034C370.031 41.5034 377.995 39.9256 387.022 38.0541C440.783 26.8065 506.654 25.8703 558.892 35.5399C633.368 49.3012 704.762 82.0718 761.441 128.365C769.973 135.319 777.073 142.199 777.147 143.63C777.495 148.658 777.936 149.153 780.229 147.208C786.743 141.777 867.238 238.878 863.788 247.997C863.073 249.703 863.586 250.29 865.164 249.63C868.375 248.419 890.394 292.785 901.421 322.675C921.127 376.142 928.797 420.013 928.87 478.985C929.017 555.461 914.687 617.974 882.284 683.056C861.788 724.266 821 782.595 809.752 786.907C807.459 787.77 805.954 789.403 806.45 790.706C807.826 794.284 761.807 835.568 757.936 834.137C757 833.77 755.422 835.201 754.487 837.293C751.918 843.017 712.065 869.402 685.038 883.236C642.176 905.236 603.974 917.768 552.231 927.089C524.929 931.97 449.884 933.328 421.645 929.383V929.456ZM470.526 683.771C464.783 675.093 463.994 672.726 463.994 663.331C463.994 653.808 464.709 651.937 470.746 643.698C478.342 633.313 479.26 633.515 487.645 646.707C494.966 658.175 494.526 668.708 486.214 682.762C482.709 688.707 479.204 693.515 478.415 693.515C477.7 693.515 474.104 689.148 470.526 683.771ZM376.27 679.753C371.609 675.093 368.031 670.212 368.453 668.927C368.894 667.716 372.967 664.414 377.554 661.552C390.031 653.809 404.655 654.084 420.856 662.414C435.333 669.79 436.416 672.01 426.086 673.221C420.856 673.808 414.544 676.451 407.315 681.185C392.178 691.074 387.389 690.854 376.27 679.753ZM549.718 681.973C544.489 678.523 535.956 674.377 530.727 672.799L521.131 669.936L530.305 664.634C541.057 658.469 557.241 654.597 565.626 656.175C572.58 657.459 587.717 666.634 587.717 669.496C587.717 670.652 583.919 675.312 579.259 679.973C568.58 690.652 563.131 691.074 549.718 681.973Z" fill="#C83E3D"/>
</svg>
