<svg width="959" height="960" viewBox="0 0 959 960" fill="none" xmlns="http://www.w3.org/2000/svg">
<path fill-rule="evenodd" clip-rule="evenodd" d="M430.402 958.038C368.298 951.047 315.761 935.757 263.313 909.56C230.124 892.93 231.662 894.325 231.394 880.574C231.322 873.993 231.537 868.628 231.877 868.628C232.306 868.628 237.671 871.704 243.751 875.406C315.493 919.342 409.516 943.089 496.816 939.388C520.081 938.404 560.458 933.647 571.348 930.59C574.013 929.874 575.193 930.232 575.193 931.841C575.264 933.647 575.622 933.719 576.588 932.056C577.357 930.929 587.496 927.299 599.155 924.152C620.738 918.144 656.788 905.501 666.766 900.333C669.842 898.795 674.312 896.703 676.691 895.791C681.018 894.182 681.09 894.253 680.535 900.548C680.052 906.485 680.392 907.039 685.846 908.863C691.425 910.598 691.568 910.812 688.153 912.636C685.149 914.228 684.38 914.102 683.754 911.581C683.11 909.203 682.914 909.346 682.77 912.207C682.216 922.614 600.21 948.257 541.181 956.501C514.913 960.202 456.313 960.971 430.402 958.038ZM439.898 951.118C439.343 949.58 438.914 948.114 438.914 947.703C438.914 947.273 438.217 946.987 437.305 946.987C436.465 946.987 436.196 948.525 436.679 950.421C437.18 952.227 438.36 953.765 439.272 953.765C440.184 953.765 440.524 952.584 439.898 951.118ZM578.054 938.046C577.571 936.866 577.16 937.85 577.16 940.156C577.16 942.517 577.571 943.429 578.054 942.32C578.483 941.122 578.483 939.173 578.054 938.046ZM288.938 906.055C288.938 905.161 288.241 904.392 287.347 904.392C286.435 904.392 285.237 905.161 284.682 906.055C284.128 907.039 284.825 907.808 286.292 907.808C287.758 907.808 288.938 907.039 288.938 906.055ZM451.7 928.068C360.895 923.169 274.203 890.14 199.403 832.024C164.194 804.647 122.493 757.635 97.3508 716.9C85.6738 698.124 64.6627 655.654 59.8346 641.402C57.045 632.872 56.902 631.263 58.9942 629.94C61.0148 628.688 60.9431 628.402 58.5827 628.33C54.5235 628.33 53.4865 625.827 46.4231 599.344C14.6468 481.09 30.7766 357.597 91.5395 253.023C96.9219 243.724 99.0854 241.489 102.447 241.489C108.241 241.489 107.758 243.653 98.9426 257.833C62.2131 316.79 38.4655 404.108 38.4655 480.536C38.4655 596.769 85.7454 710.123 168.736 792.755C252.691 876.371 364.74 921.845 483.208 920.307C557.74 919.413 618.646 904.178 684.165 870.238C694.859 864.641 703.943 860.385 704.283 860.725C704.64 861.082 702.816 864.355 700.366 868.003C697.577 872.044 696.253 873.099 696.951 870.721C697.648 868.414 697.434 866.876 696.325 866.876C695.341 866.876 694.501 868.342 694.501 870.095C694.501 874.279 692.623 875.674 676.065 883.918C638.763 902.282 595.936 915.98 552.912 923.24C535.727 926.119 485.586 930.017 474.678 929.32C473.283 929.177 462.948 928.623 451.7 928.068ZM706.446 897.544C706.446 896.632 707.644 895.863 709.11 895.863C710.505 895.863 711.274 896.632 710.648 897.544C710.076 898.527 708.896 899.296 707.984 899.296C707.144 899.296 706.446 898.527 706.446 897.544ZM714.976 898.527C714.976 896.632 726.009 887.619 727.261 888.46C729.854 890.069 728.459 891.875 721.753 895.648C717.98 897.758 714.976 899.01 714.976 898.527ZM208.827 877.695C182.773 859.759 161.744 842.145 138.909 819.31C110.834 791.235 97.4226 774.533 98.9426 769.652C99.9261 766.648 99.5863 766.218 96.8503 767.059C94.2038 767.899 91.1996 764.412 79.8803 747.228C36.9993 681.976 15.0581 623.717 3.25601 543.945C-1.42906 511.829 -0.999987 444.772 4.1679 411.171C11.7141 361.853 25.3223 316.093 44.4023 276.216C55.0778 253.864 55.0778 253.864 61.6583 255.115C65.2884 255.884 70.0989 257.208 72.4056 258.048C76.4648 259.657 76.4648 259.729 73.246 263.001C71.4221 264.897 69.759 267.615 69.5444 269.081C69.2583 270.619 65.6997 279.006 61.6583 287.804C13.377 391.465 6.60016 520.556 43.8304 628.33C76.0358 721.513 134.581 799.747 214.424 856.469C229.302 867.091 229.302 867.091 229.302 878.052C229.302 885.742 228.658 889.014 227.192 888.942C226.012 888.942 217.768 883.846 208.827 877.695ZM135.547 804.289C135.547 800.874 135.064 800.23 134.009 801.982C133.187 803.306 132.9 805.416 133.383 806.667C134.706 810.297 135.547 809.385 135.547 804.289ZM692.766 888.245C692.766 887.834 694.286 886.636 696.182 885.67C698.9 884.204 699.598 884.347 699.598 886.439C699.598 887.905 698.131 889.014 696.182 889.014C694.286 889.014 692.766 888.674 692.766 888.245ZM725.866 879.376C718.606 877.909 722.933 870.792 736.488 861.637C747.45 854.234 748.987 853.608 748.987 856.612C748.987 858.489 748.433 860.099 747.736 860.099C747.038 860.099 744.034 862.406 741.03 865.195C737.257 868.7 735.236 869.666 734.324 868.271C732.572 865.41 730.336 871.829 731.463 876.658C731.946 878.821 731.66 880.431 730.891 880.288C730.051 880.216 727.815 879.733 725.866 879.376ZM743.891 866.876C743.891 865.964 744.66 865.195 745.643 865.195C746.537 865.195 747.307 865.964 747.307 866.876C747.307 867.86 746.537 868.628 745.643 868.628C744.66 868.628 743.891 867.86 743.891 866.876ZM719.518 855.557C718.874 854.931 718.391 853.178 718.391 851.712C718.391 849.548 718.678 849.477 719.858 851.301C720.841 852.839 722.647 853.178 725.383 852.356C728.942 851.158 729.157 851.372 727.046 853.822C724.686 856.755 721.467 857.452 719.518 855.485V855.557ZM789.919 835.368C789.919 830.826 789.919 830.826 784.197 834.402C781.05 836.351 776.579 837.889 774.416 837.889C770.642 837.818 770.857 837.335 777.634 830.969C785.037 823.995 788.667 823.351 794.676 828.179C797.823 830.701 796.553 838.587 792.923 839.284C790.688 839.695 789.919 838.73 789.919 835.368ZM790.76 819.167C793.138 816.52 794.39 816.234 796.214 817.772C799.003 820.079 796.339 822.529 790.903 822.582C787.827 822.582 787.756 822.457 790.76 819.167ZM673.972 815.608C671.666 811.352 670.468 812.533 691.926 797.869C756.462 753.79 806.889 687.842 829.313 618.281C832.872 607.104 833.587 606.192 837.986 606.192C840.561 606.192 842.725 606.407 842.725 606.675C842.725 611.217 826.112 653.133 817.654 670.031C805.083 694.977 777.974 733.941 773.092 734.013C767.853 734.013 765.189 736.82 767.567 739.753C771.626 744.563 728.244 785.084 695.485 807.15C676.977 819.578 676.208 819.864 673.972 815.608ZM267.641 811.907C194.235 766.075 136.459 690.005 111.8 606.532C107.955 593.407 108.098 591.726 113.194 590.403C116.002 589.705 117.468 592.709 124.299 613.882C149.602 691.615 204.213 761.819 271.485 802.966C283.216 810.154 282.805 809.6 280.355 814.214C278.12 818.326 277.905 818.326 267.641 811.907ZM820.587 814.071C820.587 813.159 821.356 812.39 822.268 812.39C823.233 812.39 824.002 813.159 824.002 814.071C824.002 814.983 823.233 815.751 822.268 815.751C821.356 815.751 820.587 814.983 820.587 814.071ZM772.878 811.907C772.878 810.512 773.986 808.903 775.47 808.348C776.865 807.776 777.974 807.991 777.974 808.76C777.974 809.6 776.865 811.209 775.47 812.318C773.36 814.07 772.878 813.999 772.878 811.907ZM779.726 810.637C779.726 809.743 780.907 808.974 782.373 808.974C783.768 808.974 784.537 809.743 783.982 810.637C783.357 811.621 782.176 812.39 781.264 812.39C780.424 812.39 779.726 811.621 779.726 810.637ZM801.31 811.281C800.684 810.637 805.78 804.289 812.558 797.172C819.335 790.037 830.153 777.752 836.519 769.777C847.41 756.24 848.733 755.114 856.977 753.29C867.598 750.929 875.145 750.572 875.145 752.396C875.145 753.933 852.649 783.957 846.641 790.466C842.528 794.937 837.217 795.348 834.767 791.432C834.07 790.323 835.107 790.037 837.342 790.663C839.864 791.289 841.044 790.806 841.044 789.197C841.044 786.765 835.465 786.693 833.015 789.125C832.317 789.823 828.401 791.861 824.288 793.667C818.906 796.045 817.1 797.726 817.797 799.604C818.494 801.356 817.296 802.894 814.167 804.289C811.646 805.416 808.498 807.705 807.318 809.314C804.94 812.533 803.116 813.087 801.31 811.281ZM461.195 800.033C462.948 794.168 464.414 788.857 464.414 788.16C464.414 787.534 460.229 783.546 454.99 779.29L445.549 771.601L457.851 771.118C470.065 770.617 470.064 770.617 473.712 760.907C475.661 755.596 477.754 750.786 478.308 750.232C478.881 749.588 481.116 754.202 483.279 760.281C487.249 771.458 487.249 771.458 499.266 771.529C512.606 771.601 512.606 771.386 497.728 783.063C492.775 786.961 492.775 786.961 495.636 797.798C497.245 803.806 498.497 809.171 498.497 809.815C498.497 810.44 494.867 808.348 490.468 805.13C485.997 801.911 481.455 798.764 480.418 798.209C479.363 797.583 474.195 800.176 468.884 803.878C463.502 807.579 458.888 810.637 458.549 810.637C458.191 810.637 459.389 805.898 461.195 800.033ZM820.587 805.827C820.587 801.142 826.452 796.528 830.708 797.869C834.696 799.121 835.393 804.146 831.977 807.007C830.368 808.348 829.17 808.348 827.918 807.079C826.595 805.755 825.755 805.755 824.914 807.079C823.162 810.011 820.587 809.242 820.587 805.827ZM785.663 798.71C786.218 797.798 787.398 797.029 788.31 797.029C789.222 797.029 789.919 797.798 789.919 798.71C789.919 799.676 788.739 800.444 787.273 800.444C785.806 800.444 785.109 799.676 785.663 798.71ZM276.939 785.352C253.532 769.705 241.444 759.87 222.453 740.862C184.239 702.594 158.257 659.481 140.518 604.798C135.618 589.777 135.136 587.059 137.299 585.646C142.181 582.588 143.862 584.126 146.652 593.818C168.736 670.246 219.789 739.109 283.574 778.45C296.216 786.264 297.057 787.462 293.48 792.201C291.531 794.794 289.922 794.096 276.939 785.352ZM660.561 791.503C658.594 788.356 658.737 787.587 661.401 785.638C663.064 784.386 665.872 783.814 667.535 784.386C669.699 785.012 670.682 784.458 670.754 782.223C670.754 780.327 676.547 775.159 686.061 768.525C701.278 757.975 701.278 757.975 701.278 763.84C701.278 769.151 700.17 770.474 688.081 779.004C680.821 784.1 672.148 789.823 668.876 791.718C662.796 795.134 662.796 795.134 660.561 791.503ZM802.848 787.659C803.688 784.243 803.474 783.26 802.079 784.1C801.024 784.726 800.112 784.529 800.112 783.617C800.112 782.706 800.756 781.722 801.453 781.382C802.15 781.096 807.73 774.677 813.881 767.202C870.46 698.463 899.875 633.784 915.45 543.945C919.152 522.433 919.778 445.952 916.345 424.708C898.964 316.522 859.766 237.233 789.508 167.869C771.268 149.844 769.319 147.341 769.802 142.512C770.285 137.273 770.499 137.416 791.815 158.302C817.94 183.802 834.338 203.562 853.561 232.477C948.908 376.176 952.806 565.332 863.396 712.572C845.389 742.256 815.705 780.882 811.36 780.113C806.478 779.344 805.28 780.256 806.192 783.957C806.818 786.479 806.192 788.714 804.386 790.18C801.936 792.272 801.721 792.004 802.848 787.73V787.659ZM580.575 783.689C574.853 779.29 574.853 779.29 568.219 783.063C561.012 787.248 560.816 787.033 563.248 778.45C564.785 772.996 564.517 772.227 558.58 766.987L552.214 761.408L560.118 761.265C567.789 761.265 568.147 761.05 571.008 754.005L573.941 746.727L577.088 754.005C580.092 761.05 580.36 761.193 588.336 761.265H596.508L589.802 766.916C583.025 772.638 583.025 772.638 585.189 779.844C586.369 783.814 587.138 787.319 586.869 787.587C586.512 787.873 583.722 786.121 580.575 783.689ZM369.693 783.814C372.984 772.71 372.84 772.155 366.135 767.059L359.643 762.105L368.012 761.265C375.63 760.496 376.613 759.87 378.294 754.828C379.26 751.823 380.869 749.391 381.781 749.391C382.765 749.391 384.356 751.823 385.34 754.828C387.021 759.87 387.933 760.496 395.604 761.265L403.919 762.105L397.5 766.987C393.44 770.134 391.42 772.924 391.903 774.676C395.676 787.319 395.604 787.462 388.273 783.26C381.495 779.344 381.495 779.344 376.256 783.063C369.979 787.534 368.513 787.73 369.693 783.814ZM704.569 764.198C702.816 758.529 704.765 755.811 722.719 737.858C733.412 727.236 748.433 710.123 756.051 699.858C763.722 689.666 770.785 681.762 771.697 682.334C772.663 682.888 772.878 682.531 772.252 681.493C771.626 680.51 776.025 670.174 782.105 658.64C788.113 647.124 796.285 628.688 800.255 617.655C807.39 598.092 808.785 596.125 813.595 599.201C820.033 603.331 788.238 672.767 767.155 700.77C751.509 721.442 743.265 730.597 740.118 730.597C737.883 730.597 737.042 731.366 737.668 733.047C738.294 734.639 733.126 740.647 723.148 750.089C709.879 762.588 705.194 766.147 704.569 764.198ZM863.271 733.53C887.018 697.48 908.244 651.237 920.261 609.536C925.929 589.991 934.173 550.097 935.139 538.008C935.568 532.769 936.122 532.072 939.895 532.501C944.08 532.984 944.08 532.984 940.664 529.979C937.302 527.047 937.231 525.437 937.874 491.712C938.643 452.586 936.748 428.07 930.4 393.486C927.038 375.336 926.484 369.256 927.95 366.109C929.202 363.248 929.273 361.424 928.022 360.172C926.752 358.92 926.269 359.403 926.269 361.638C926.269 367.432 923.408 361.996 919.563 348.853C895.888 268.116 850.754 196.927 786.075 138.185C769.516 123.093 769.516 123.021 769.516 114.992C769.516 110.522 768.765 106.892 767.924 106.892C767.084 106.892 766.798 109.967 767.281 113.74C767.853 117.442 767.638 120.518 766.941 120.518C766.243 120.518 760.164 116.387 753.458 111.291C730.766 94.249 681.018 65.0477 662.17 57.7161C638.208 48.4175 594.827 34.8093 577.785 31.3044C536.156 22.578 490.468 18.8765 455.115 21.3978C442.473 22.2383 433.818 22.1667 432.566 21.1832C431.171 20.1282 430.402 20.1997 430.402 21.3978C430.402 22.3634 426.772 23.7045 422.302 24.2588C417.831 24.8847 405.457 26.8339 394.71 28.7294C377.311 31.7335 375.076 31.8051 373.752 29.4268C372.214 26.7088 367.315 25.7967 367.315 28.175C367.315 28.944 368.227 30.4103 369.282 31.4474C370.677 32.9138 369.282 33.8257 363.756 35.2205C331.98 43.1244 283.77 62.4728 254.015 79.2282C233.558 90.7621 202.819 112.203 183.953 128.064C164.194 144.605 131.505 178.133 119.417 194.209C114.732 200.486 110.333 205.6 109.636 205.654C108.938 205.654 108.313 198.751 108.313 190.15C108.313 174.575 108.313 174.575 119.829 161.664C179.286 94.7318 258.288 44.3762 343.085 19.4308C351.668 16.8558 352.026 16.9273 352.026 20.003C352.026 21.8091 353.564 24.1159 355.441 25.0994C358.231 26.6373 358.803 26.4225 358.803 23.8296C358.803 22.0951 358.034 19.8599 356.979 18.8049C354.404 16.2299 356.139 15.461 373.466 11.6879C481.116 -11.9342 588.819 0.368568 687.652 47.5234C707.072 56.8041 711.829 59.7368 709.808 61.1316C707.769 62.5979 707.912 62.7409 710.505 61.8289C712.454 61.203 716.782 62.5979 721.61 65.3339C735.719 73.4344 761.004 90.4759 761.004 91.8707C761.004 92.6396 758.841 93.2655 756.176 93.2655C753.53 93.2655 749.899 94.4636 748.076 95.9299C745 98.4334 745.5 98.5049 754.584 97.5929C768.264 96.2696 772.037 98.3082 797.054 120.232C841.884 159.697 882.476 212.234 909.156 265.183C922.013 290.879 935.764 327.072 933.815 330.273C933.404 330.971 933.887 331.811 934.87 332.169C939.466 333.707 951.769 388.533 956.168 427.23C959.583 457.271 958.761 521.95 954.487 549.542C944.706 613.667 924.66 670.872 893.367 723.963C879.812 746.942 879.544 747.228 866.615 749.248C860.535 750.232 854.67 751.001 853.632 751.001C852.577 751.001 856.905 743.168 863.271 733.53ZM950.088 527.744C950.088 526.832 948.979 526.063 947.513 526.063C946.1 526.063 944.992 526.832 944.992 527.744C944.992 528.728 946.1 529.497 947.513 529.497C948.979 529.497 950.088 528.728 950.088 527.744ZM866.615 216.776C866.615 215.364 865.846 214.255 864.88 214.255C863.968 214.255 863.199 215.364 863.199 216.776C863.199 218.243 863.968 219.351 864.88 219.351C865.846 219.351 866.615 218.243 866.615 216.776ZM169.648 131.068C169.648 128.833 167.609 127.366 166 128.332C164.194 129.459 165.731 132.463 168.038 132.463C168.95 132.463 169.648 131.837 169.648 131.068ZM235.579 74.9722C235.167 73.2913 234.81 74.2749 234.738 77.0644C234.738 79.854 235.024 81.2488 235.507 80.0686C236.008 78.9599 236.061 76.6531 235.579 74.9722ZM710.219 71.6819C709.111 71.1991 707.143 71.1991 706.035 71.6819C704.837 72.111 705.82 72.5225 708.127 72.5225C710.505 72.5225 711.4 72.111 710.219 71.6819ZM585.475 19.3055C585.475 18.9479 584.277 18.179 582.882 17.6962C581.487 17.124 580.289 17.41 580.289 18.322C580.289 19.234 581.487 20.003 582.882 20.003C584.277 20.003 585.475 19.7168 585.475 19.3055ZM427.81 736.534C306.409 722.568 208.899 657.246 181.092 571.269C167.484 529.211 170.971 481.233 190.534 441.767C229.355 363.319 321.913 306.884 433.746 293.401C474.124 288.501 532.025 291.094 570.525 299.409C621.024 310.371 675.511 335.799 710.005 364.499C812.701 449.94 810.948 580.693 706.035 664.309C635.759 720.333 528.61 748.122 427.81 736.534ZM449.125 725.358C349.29 719.832 256.822 674.233 214.138 609.411C138.98 495.342 218.465 358.008 384.16 315.682C445.065 300.106 516.039 299.051 572.063 313.017C579.663 314.913 586.172 316.451 586.512 316.451C587.71 316.451 587.138 321.404 585.815 322.173C585.117 322.656 579.949 321.958 574.298 320.563C530.917 310.228 469.939 307.367 428.65 313.715C323.593 329.934 243.965 379.377 208.827 450.208C188.996 490.246 187.244 532.501 203.659 575.042C230.893 645.515 318.211 701.879 422.016 716.006L429.83 717.043L430.957 636.502C431.583 592.155 432.066 538.581 432.066 517.337C432.066 479.266 431.994 478.712 428.239 476.119C424.734 473.687 428.864 473.401 478.809 473.329C533.224 473.258 533.224 473.258 529.522 477.245C525.749 481.162 525.749 481.162 526.715 580.764C527.215 635.465 528.056 688.199 528.61 697.909L529.593 715.505L538.32 714.396C553.269 712.501 588.819 703.292 607.684 696.371C674.938 671.641 727.261 628.259 751.634 576.777C762.059 554.782 764.992 540.53 764.992 511.615C764.992 488.565 764.491 484.505 760.307 470.754C741.173 408.167 684.648 356.613 605.932 329.934C592.932 325.588 588.819 323.425 588.819 321.189C588.819 317.005 591.197 317.363 611.1 324.265C695.055 353.466 755.693 413.335 769.588 480.536C787.398 566.995 732.018 650.754 626.675 696.371C595.238 710.051 544.114 722.64 512.194 724.518C479.363 726.538 471.602 726.61 449.125 725.358ZM489.985 695.531C489.985 673.321 489.842 672.338 485.854 668.297C480.973 663.397 478.523 663.111 473.355 666.759C469.725 669.262 469.582 670.532 469.582 693.993V718.652H490.056L489.985 695.531ZM513.875 545C513.875 544.16 512.749 543.051 511.283 542.479C509.745 541.925 508.761 542.479 508.761 544.017C508.761 545.412 509.888 546.538 511.283 546.538C512.749 546.538 513.875 545.841 513.875 545ZM491.72 534.593C491.72 533.681 490.951 532.912 489.985 532.912C489.073 532.912 488.304 533.681 488.304 534.593C488.304 535.505 489.073 536.274 489.985 536.274C490.951 536.274 491.72 535.505 491.72 534.593ZM436.894 470.683C436.339 470.128 436.608 466.48 437.376 462.582C438.145 458.594 438.771 454.607 438.843 453.713C439.057 449.242 441.99 456.288 442.902 463.476C443.814 470.54 443.528 471.523 440.881 471.523C439.129 471.523 437.376 471.166 436.894 470.683ZM515.753 466.838C516.111 459.435 518.131 451.746 519.24 453.641C519.812 454.607 520.778 459.006 521.404 463.476C522.53 470.879 522.315 471.523 519.115 471.523C516.307 471.523 515.61 470.54 515.753 466.838ZM450.162 462.707C449.465 459.22 449.947 456.002 451.7 453.355C454.221 449.51 454.99 449.367 479.506 449.367C496.816 449.367 505.274 450.011 506.741 451.477C507.867 452.586 508.761 456.771 508.761 460.83V468.161H479.989C451.217 468.161 451.217 468.161 450.162 462.707ZM438.914 448.473C438.914 447.007 439.683 446.292 440.595 446.864C441.579 447.418 441.918 448.598 441.364 449.51C439.898 451.889 438.914 451.406 438.914 448.473ZM517.291 448.473C517.291 447.007 518.06 446.238 518.972 446.864C519.937 447.418 520.706 448.598 520.706 449.51C520.706 450.351 519.937 451.12 518.972 451.12C518.06 451.12 517.291 449.94 517.291 448.473ZM454.221 444.271C454.221 442.393 454.776 440.856 455.473 440.856C456.242 440.856 456.796 431.7 456.796 420.524C456.796 402.159 456.456 399.852 453.381 397.474C449.947 394.881 449.948 394.881 453.649 391.752C455.616 390.071 457.565 387.353 457.923 385.743C458.262 384.062 459.246 383.007 460.229 383.293C461.123 383.58 461.696 384.348 461.481 385.046C460.301 388.604 468.115 385.672 471.889 381.201C476.842 375.336 480.203 374.835 484.817 379.377C488.018 382.596 493.955 386.369 495.85 386.369C496.405 386.369 496.816 385.189 496.816 383.776C496.816 382.381 497.585 381.273 498.569 381.273C499.48 381.273 500.249 383.007 500.249 385.243C500.249 387.836 501.716 389.856 504.505 391.126C509.673 393.486 509.959 395.793 505.346 398.243C502.27 399.924 501.93 401.873 501.93 420.452C501.93 432.952 502.628 440.856 503.665 440.856C504.577 440.856 505.346 442.393 505.346 444.271C505.346 447.561 504.237 447.704 479.775 447.704C455.402 447.704 454.221 447.561 454.221 444.271ZM474.338 426.604C474.75 414.515 474.535 413.335 471.889 414.301C470.279 414.945 468.401 414.444 467.633 413.264C466.864 412.012 466.238 417.663 466.166 426.121C466.166 440.712 466.292 441.124 469.993 440.569C473.57 440.087 473.838 439.032 474.338 426.604ZM493.401 426.049C493.401 415.07 492.918 411.726 491.523 413.121C490.468 414.176 488.519 414.658 487.249 414.176C485.372 413.407 484.889 415.982 484.889 427.015C484.889 440.641 484.942 440.856 489.145 440.856C493.4 440.856 493.401 440.713 493.401 426.049ZM474.124 404.323C472.801 400.961 466.166 400.836 466.166 404.18C466.166 405.646 467.132 406.343 468.527 405.789C469.868 405.306 471.477 405.789 472.103 406.826C473.766 409.491 475.304 407.541 474.124 404.323ZM489.145 405.092C490.396 405.092 491.791 406.057 492.292 407.184C492.775 408.364 493.186 407.595 493.258 405.503C493.401 402.499 492.488 401.658 489.145 401.658C485.854 401.658 484.943 402.499 485.014 405.503C485.086 407.595 485.586 408.364 485.997 407.184C486.48 406.057 487.875 405.092 489.145 405.092ZM471.334 369.399C468.33 363.874 469.099 357.382 472.8 357.382C474.607 357.382 476.431 355.773 477.056 353.538C478.183 349.693 478.183 349.693 481.384 353.538C483.136 355.63 485.64 357.382 486.981 357.382C489.699 357.382 489.145 366.878 486.212 370.579C483.404 374.013 473.355 373.244 471.334 369.399ZM484.889 360.798C484.889 359.832 484.12 359.063 483.208 359.063C482.224 359.063 481.527 359.832 481.527 360.798C481.527 361.71 482.224 362.479 483.208 362.479C484.12 362.479 484.889 361.71 484.889 360.798ZM448.982 368.898C448.982 367.718 448.624 364.642 448.284 362.067C447.784 358.42 448.356 357.382 450.716 357.382C452.469 357.382 454.346 356.184 454.918 354.718C456.313 350.945 459.317 353.395 459.317 358.366C459.317 360.601 460.086 362.479 460.998 362.479C461.892 362.479 462.179 361.352 461.696 359.957C460.998 358.294 461.696 357.382 463.574 357.382C465.523 357.382 466.166 358.294 465.469 360.1C464.897 361.567 464.485 364.643 464.485 366.878C464.485 370.651 463.788 371.008 456.796 371.008C451.843 371.008 449.053 370.24 448.982 368.898ZM455.956 361.71C455.956 359.957 452.683 359.189 451.7 360.726C451.074 361.71 451.771 362.479 453.309 362.479C454.704 362.479 455.956 362.121 455.956 361.71ZM495.779 369.667C492.846 367.79 491.863 357.382 494.581 357.382C495.851 357.382 496.816 358.491 496.816 359.957C496.816 361.352 497.656 362.479 498.711 362.479C499.767 362.479 500.178 361.424 499.695 360.1C499.194 358.777 499.766 356.256 501.09 354.593C503.253 351.589 503.468 351.589 504.577 354.378C505.203 356.059 505.274 358.563 504.72 359.957C504.165 361.352 504.434 362.479 505.346 362.479C506.258 362.479 507.027 361.424 507.027 360.1C507.027 358.849 508.278 357.311 509.816 356.685C511.98 355.845 512.337 356.47 511.497 359.475C510.943 361.638 510.442 365.072 510.442 367.164C510.442 370.508 509.53 371.008 504.022 371.008C500.535 371.008 496.816 370.365 495.779 369.739V369.667ZM471.263 340.752C471.263 339.143 470.762 336.067 470.208 333.903C469.367 330.828 469.725 330.273 471.889 331.114C473.426 331.668 474.678 333.277 474.678 334.529C474.678 335.87 475.447 336.908 476.431 336.908C477.414 336.908 477.682 335.173 477.128 332.866C475.876 327.77 479.506 325.105 482.367 329.022C483.691 330.828 485.586 331.471 487.535 330.702C489.985 329.791 490.397 330.13 489.485 332.509C488.787 334.118 488.304 337.337 488.304 339.643C488.304 343.417 487.678 343.756 479.775 343.756C472.801 343.756 471.263 343.202 471.263 340.752ZM484.889 335.244C484.889 334.261 484.12 333.492 483.208 333.492C482.224 333.492 481.527 334.261 481.527 335.244C481.527 336.139 482.224 336.908 483.208 336.908C484.12 336.908 484.889 336.139 484.889 335.244ZM836.788 600.953C836.234 599.969 837.628 599.272 840.15 599.272C842.528 599.272 844.477 600.041 844.477 600.953C844.477 601.936 843.011 602.705 841.187 602.705C839.381 602.705 837.342 601.936 836.788 600.953ZM835.948 596.554C835.948 596 837.145 591.315 838.683 586.218C841.044 577.975 841.759 577.063 845.031 578.118C847.052 578.744 848.947 579.441 849.162 579.656C849.43 579.781 848.733 583.983 847.624 588.793C845.729 596.769 845.174 597.538 840.775 597.538C838.111 597.538 835.948 597.108 835.948 596.554ZM808.785 592.852C808.785 592.155 809.822 587.398 811.091 582.231C813.04 573.915 813.738 572.878 817.297 573.29C822.679 573.915 822.536 573.647 820.372 584.466C818.566 593.55 818.137 594.176 813.524 594.176C810.877 594.176 808.713 593.55 808.785 592.852ZM77.0191 251.897C76.3932 251.003 76.733 249.661 77.788 249.035C80.363 247.426 82.1155 249.661 79.8803 251.825C78.7001 253.023 77.7165 253.095 77.0191 251.897ZM63.3932 239.469C72.4772 223.679 93.721 192.242 100.623 184.356L106.56 177.507V193.852C106.632 210.196 106.632 210.196 95.384 227.112C83.4389 245.119 81.275 246.729 65.1454 249.107L57.1164 250.359L63.3932 239.469ZM249.973 234.444C244.108 230.885 239.28 226.057 236.061 220.532C234.595 218.028 235.65 216.776 242.213 212.574L250.116 207.549L255.213 213.415C261.632 220.746 268.41 221.247 274.776 214.881C278.334 211.322 278.96 209.498 278.048 205.099C276.171 195.533 273.935 194.621 250.116 193.709C226.011 192.743 222.936 191.616 214.621 180.726C210.919 175.898 209.739 172.268 209.185 163.899C208.541 153.617 208.756 152.991 214.764 146.286C230.893 128.475 253.675 128.064 263.725 145.445C266.586 150.416 266.586 150.416 259.057 155.155C251.511 159.912 251.511 159.912 246.272 155.513C240.478 150.613 239.137 150.345 234.398 152.848C226.351 157.194 226.995 167.458 235.579 171.356C237.885 172.411 247.81 173.252 257.716 173.252C278.674 173.252 285.451 175.63 291.531 185.054C300.955 199.717 300.543 212.02 290.351 223.679C278.96 236.607 261.221 241.364 249.973 234.444ZM103.485 234.712C104.254 232.477 106.56 232.065 106.775 234.158C106.846 234.784 106.006 235.696 104.897 236.053C103.77 236.393 103.145 235.767 103.485 234.712ZM110.065 229.902C110.065 214.738 163.979 155.513 208.416 121.912C272.469 73.5059 346.786 43.7504 427.041 34.5232C468.402 29.713 546.206 32.0197 543.899 38.0102C542.576 41.4435 545.866 42.4806 547.744 39.2082C549.21 36.4901 550.408 36.4903 561.012 38.5109C600.406 45.9856 646.237 60.9348 654.767 69.0353C657.002 71.1991 659.721 72.1826 661.884 71.6104C668.519 69.8759 715.173 96.5557 749.13 121.43C764.223 132.534 767.781 136.361 767.781 141.601C767.781 145.946 764.992 144.748 753.744 135.592C737.4 122.324 702.602 99.6315 681.787 88.7235C671.451 83.2874 662.796 78.2446 662.439 77.4756C662.171 76.7782 660.704 76.1524 659.292 76.1524C657.897 76.1524 646.649 72.3792 634.292 67.7836C577.231 46.5398 534.261 39.4765 470.136 40.8176C398.126 42.2839 344.408 55.3378 282.179 86.363C271.414 91.7276 261.632 95.7868 260.452 95.3576C259.254 94.9463 258.288 95.6438 258.288 96.9671C258.288 98.2367 253.246 102.206 247.112 105.837C220.218 121.555 183.399 152.079 153.786 183.176C144.291 193.154 120.472 223.196 115.716 231.225C111.728 238.002 110.065 237.662 110.065 229.902ZM672.703 224.108C667.893 221.301 663.834 217.742 663.834 216.276C663.834 214.738 666.14 201.612 668.876 187.003C671.594 172.411 674.312 157.051 674.884 152.777C675.993 145.177 675.993 145.177 670.056 155.852C662.224 170.176 661.187 171.231 656.162 170.247C653.712 169.836 651.96 170.247 651.96 171.356C651.96 172.411 653.498 173.252 655.322 173.252C657.199 173.252 658.737 173.949 658.737 174.789C658.737 176.113 644.003 203.776 642.322 205.6C641.213 206.709 626.406 198.251 626.406 196.516C626.406 195.676 628.982 190.722 632.129 185.411C635.276 180.172 642.179 167.941 647.561 158.374C654.964 144.962 658.04 140.903 660.758 140.903C663.494 140.903 663.834 140.349 662.367 138.596C660.901 136.79 662.367 133.089 668.733 122.324C673.347 114.652 677.46 107.947 677.943 107.446C678.443 106.963 683.182 108.984 688.421 111.988C695.199 115.832 697.863 118.211 697.291 120.232C696.88 121.698 695.27 130.299 693.732 139.169C692.123 148.11 689.762 161.02 688.421 167.869C687.098 174.789 686.061 181.281 686.061 182.407C686.061 183.444 692.623 172.483 700.581 157.945C708.538 143.496 715.745 130.925 716.585 130.084C718.248 128.404 732.017 135.395 732.017 137.97C732.017 139.437 688.081 219.423 683.539 226.415C681.787 228.99 680.822 228.775 672.703 224.108ZM326.812 199.932C325.06 197.839 298.237 149.844 284.968 125.328C280.641 117.299 277.065 109.824 277.065 108.841C277.065 107.804 280.14 106.051 283.985 105.068C287.758 104.031 291.942 102.779 293.283 102.278C294.946 101.652 300.329 110.665 311.791 133.5C320.732 151.114 328.064 164.793 328.064 163.899C328.135 162.916 325.471 147.269 322.199 129.029C318.908 110.808 316.816 95.3577 317.514 94.7318C319.195 93.2655 329.745 89.7785 332.534 89.7785C334.412 89.7785 350.631 117.853 364.597 145.105C366.975 149.773 368.924 152.848 368.996 151.811C369.067 150.416 358.66 101.026 354.815 84.396C353.975 80.909 372.215 73.3628 373.395 76.7246C375.076 81.3918 388.827 163.685 389.882 174.789C390.365 180.44 390.168 180.655 380.458 183.945C374.861 185.751 369.836 186.592 369.067 185.823C368.298 184.982 361.664 172.84 354.475 158.785C347.197 144.676 340.152 131.694 338.829 129.798C336.379 126.383 336.379 126.383 337.291 129.798C338.471 134.072 348.593 191.205 348.593 193.44C348.593 196.301 328.618 202.238 326.812 199.932ZM309.413 154.529C309.413 153.546 308.644 152.777 307.732 152.777C306.82 152.777 306.069 153.546 306.069 154.529C306.069 155.441 306.82 156.21 307.732 156.21C308.644 156.21 309.413 155.441 309.413 154.529ZM601.676 189.524C561.996 178.563 561.37 178.276 562.55 172.966C563.605 168.155 592.18 77.279 592.806 76.7783C593.003 76.6531 598.529 78.2446 605.091 80.2832C611.654 82.3754 615.856 84.4676 614.461 84.9504C613.049 85.4511 612.495 86.4882 613.192 87.2571C613.889 88.0261 615.356 87.8293 616.339 86.8458C617.662 85.5225 621.865 85.9339 631.217 88.4553C638.405 90.4044 644.557 92.1568 644.914 92.4966C646.095 93.4801 640.927 108.501 639.389 108.501C638.477 108.501 631.002 106.48 622.705 103.959C614.39 101.438 607.255 99.7746 606.844 100.186C606.414 100.597 604.537 105.711 602.785 111.577L599.441 122.127L614.175 126.597C622.276 129.029 629.196 131.265 629.411 131.479C629.679 131.765 629.053 135.538 627.944 140.009C625.637 149.075 626.746 148.95 605.52 142.727L594.058 139.437L590.642 150.542C586.655 163.47 586.369 166.26 589.302 167.243C590.5 167.655 598.171 169.961 606.415 172.411C622.759 177.311 622.419 176.739 617.251 188.755C615.284 193.297 615.284 193.297 601.676 189.524ZM415.024 170.945C414.953 168.924 412.789 145.445 410.142 118.694C407.478 92.0137 405.386 70.0726 405.529 69.9474C405.815 69.5182 460.23 64.4218 460.426 64.7794C460.498 64.9046 461.195 68.6062 461.821 72.9515C463.091 81.9462 463.717 81.6779 439.683 83.9131L427.595 85.0219L428.293 94.6066C429.348 109.61 428.507 108.984 445.137 107.589C461.624 106.194 462.733 106.82 462.805 117.156C462.805 123.307 462.804 123.307 448.213 125.06C440.237 126.025 433.264 127.223 432.763 127.778C432.209 128.261 432.352 134.627 433.049 141.815L434.301 154.958L446.389 153.832C453.095 153.206 461.41 152.222 464.897 151.668C471.334 150.685 471.334 150.685 471.334 158.588C471.334 162.916 471.334 167.029 471.406 167.726C471.406 168.924 451.557 171.499 425.717 173.734C415.721 174.575 415.096 174.432 415.024 170.945ZM492.989 169.836C487.535 169.121 482.85 168.298 482.653 167.941C481.884 166.957 493.543 65.2622 494.527 64.2787C494.938 63.8675 504.792 64.6365 516.307 66.1028C539.286 68.9639 545.508 71.7535 551.034 81.821C554.932 89.0096 554.736 124.416 550.677 141.601C544.114 169.264 532.651 174.932 492.989 169.836ZM526.16 149.361C528.324 146.429 530.148 138.668 532.026 124.63C536.156 93.1224 533.921 85.9338 519.455 83.6271C513.875 82.7866 512.194 83.0728 512.194 84.8252C512.194 86.1485 510.657 101.026 508.833 117.853C504.362 158.785 503.736 154.815 514.144 154.189C521.207 153.76 523.585 152.777 526.16 149.361Z" fill="#25549A"/>
</svg>
