<svg width="958" height="622" viewBox="0 0 958 622" fill="none" xmlns="http://www.w3.org/2000/svg">
<path fill-rule="evenodd" clip-rule="evenodd" d="M460.172 621.533C261.615 616.807 83.447 530.118 23.3371 408.987C5.44827 372.976 -0.0838243 349.789 0.000956889 311.383C0.149324 260.303 15.3888 217.001 48.517 173.953C104.642 100.999 206.401 43.4536 326.112 16.79C378.698 5.1326 461.91 -2.32787 506.039 0.660658C526.895 2.14433 527.234 2.22903 527.234 7.04036C527.234 10.0925 528.145 11.5763 529.714 11.0888C531.028 10.6013 531.94 8.26977 531.706 5.95949C531.283 1.97478 531.77 1.8048 542.537 2.88575C668.628 15.391 779.077 57.0402 857.075 121.368C871.573 133.301 871.721 133.533 873.057 144.873C875.049 161.681 872.718 162.19 857.16 148.37C815.681 111.766 767.992 83.6186 710.616 61.9146C697.114 56.8701 685.605 52.3135 685.203 51.9108C684.779 51.4869 687.428 49.8337 691.159 48.1805C694.804 46.612 696.712 45.2763 695.292 45.1915C693.893 45.1915 689.675 46.4419 685.86 48.0104C679.65 50.6598 677.827 50.4902 666.742 47.099C634.779 37.2432 559.854 23.4244 538.319 23.4244C532.279 23.4244 531.113 22.5131 527.234 14.5649C522.592 5.04822 521.172 4.1367 517.463 8.6089C515.471 10.9192 516.043 12.3388 520.197 16.2175C525.327 21.0289 525.326 21.0292 469.604 22.0254C423.144 22.7672 408.011 23.8482 379.1 28.1508C270.241 44.2804 174.036 84.2755 108.373 140.655C97.6053 149.938 89.6571 155.322 87.9191 154.644C84.104 153.245 76.8339 161.448 79.4833 164.182C80.7974 165.496 78.572 169.48 72.934 176.093C52.5653 199.938 33.2776 235.949 25.9016 264.033C19.4582 288.619 19.5219 336.541 25.9865 360.64C50.3399 450.148 135.121 523.25 266.765 568.036C371.576 603.644 497.667 611.105 614.071 588.32C691.413 573.25 757.055 546.523 821.552 503.794C826.364 500.657 826.851 500.657 825.791 503.391C825.113 505.192 823.799 506.613 822.803 506.613C818.33 506.613 821.722 512.314 826.936 513.48C830.179 514.222 833.316 515.557 833.888 516.468C835.223 518.524 826.533 525.243 808.475 536.243C727.678 585.183 620.536 616.404 520.346 620.198C505.127 620.706 489.634 621.364 485.818 621.618C482.024 621.766 470.516 621.766 460.172 621.533ZM704.745 43.2207C706.398 42.1397 706.801 41.2284 705.72 41.2284C704.66 41.2284 702.413 42.1397 700.76 43.2207C699.192 44.1956 698.683 45.1068 699.764 45.1068C700.845 45.1068 703.07 44.1956 704.745 43.2207ZM425.73 591.224C290.928 581.623 162.357 528.973 91.3952 454.196C64.0744 425.477 47.2665 397.478 37.008 363.629C32.0271 347.394 31.5395 343.176 31.5395 313.375C31.4548 276.686 34.0194 263.778 47.0969 233.978C61.5945 201.019 97.5206 155.152 97.2663 169.883C97.2663 171.218 91.9038 178.997 85.3544 187.115C44.7866 237.369 29.632 294.978 42.0525 351.294C65.1553 455.765 189.084 543.365 357.672 574.416C438.066 589.232 531.855 588.659 609.366 572.848C772.04 539.571 889.208 455.277 914.048 353.519C920.004 329.271 920.004 295.402 914.048 271.218C904.108 230.417 876.363 186.776 841.179 156.382C818.987 137.264 815.109 134.36 793.49 120.795C729.565 80.6303 656.377 55.7049 561.74 41.8856C528.061 36.9259 429.863 36.9259 396.078 41.8856C331.093 51.3175 286.371 62.6781 239.275 81.7114C187.516 102.652 156.147 121.94 107.207 163.186C100.255 168.972 100.255 168.972 100 164.267C99.8521 160.854 102.417 157.145 108.86 151.423C241.585 33.9374 484.081 -4.1511 682.956 61.1727C844.825 114.33 939.779 220.964 925.621 333.659C916.846 403.943 870.746 464.879 789.929 513.31C747.135 538.977 684.376 564.73 645.546 572.593C642.897 573.102 635.267 574.925 628.823 576.578C574.669 590.228 493.449 596.12 425.73 591.224ZM280.754 514.391C280.754 512.166 284.315 505.129 288.617 498.749L296.481 487.155L289.105 486.498C284.145 486.074 281.75 484.909 281.75 482.937C281.75 480.691 284.548 479.864 293.089 479.377C308.244 478.635 309.156 481.432 298.707 497.244L290.673 509.58L298.473 510.173C304.747 510.661 306.337 511.572 306.337 514.646C306.337 518.037 304.917 518.439 293.577 518.439C281.899 518.439 280.754 518.037 280.754 514.391ZM315.027 514.306C312.208 511.169 311.127 506.443 310.639 494.595C309.897 479.864 310.131 479.038 314.031 479.038C317.846 479.038 318.164 480.119 318.164 491.628C318.164 507.842 319.329 510.576 326.027 510.576C332.576 510.576 333.89 507.1 333.975 490.377C333.975 481.602 334.654 479.038 336.964 479.038C341.924 479.038 341.097 509.347 335.968 514.476C330.669 519.775 319.986 519.69 315.027 514.306ZM347.816 498.749C347.816 479.038 347.816 479.038 356.252 479.038C367.188 479.038 373.399 483.34 373.399 490.97C373.399 494.192 372.403 498.41 371.237 500.318C369.499 503.052 369.753 505.362 372.233 510.258C375.306 516.129 375.306 516.637 372.148 517.867C370.241 518.524 368.418 518.376 368.1 517.295C366.192 511.487 359.24 502.628 356.675 502.628C354.513 502.628 353.687 504.789 353.687 510.576C353.687 516.214 352.86 518.439 350.698 518.439C348.303 518.439 347.816 514.964 347.816 498.749ZM366.023 494.277C367.676 489.72 365.111 486.901 359.41 486.901C354.599 486.901 353.687 487.728 353.687 491.797C353.687 495.93 354.598 496.757 359.495 496.757C362.632 496.757 365.62 495.676 366.023 494.277ZM380.181 515.79C379.609 514.391 379.439 505.701 379.779 496.587C380.266 482.683 380.838 479.949 383.742 479.377C386.879 478.783 387.218 480.691 387.218 498.58C387.218 515.133 386.73 518.439 384.229 518.439C382.576 518.439 380.753 517.295 380.181 515.79ZM400.889 515.875C386.964 505.277 392.856 479.292 409.155 479.038C416.446 478.953 424.564 485.735 421.258 489.148C419.35 491.034 418.269 491.119 416.446 489.232C415.132 487.982 412.144 486.901 409.897 486.901C403.856 486.901 401.037 490.716 401.037 498.749C401.037 502.628 402.118 506.867 403.369 508.181C406.272 511.085 414.136 511.339 415.789 508.605C417.612 505.701 422.741 506.189 422.741 509.262C422.741 516.786 407.841 521.258 400.889 515.875ZM430.033 517.21C429.27 516.468 428.613 507.439 428.613 497.244C428.613 480.69 429.036 478.783 432.089 479.377C434.505 479.779 435.734 482.259 436.158 487.41C436.73 494.362 437.154 494.764 443.513 494.764C450.147 494.764 450.317 494.595 450.317 486.731C450.317 480.203 450.973 478.868 453.792 479.377C456.76 479.949 457.269 482.768 457.756 499.406C458.35 517.126 458.01 518.694 454.873 518.122C452.224 517.613 451.143 515.218 450.719 509.093C450.147 500.975 449.892 500.741 443.428 500.741C436.984 500.741 436.73 500.974 436.158 508.922C435.564 516.701 433 520.178 430.033 517.21ZM475.306 516.955C474.818 516.129 477.213 507.524 480.604 497.753C488.976 473.654 491.881 473.739 500.655 498.092C504.301 508.011 506.696 516.638 506.039 517.295C503.39 519.944 499.659 518.122 498.493 513.48C497.412 509.516 496.013 508.605 490.715 508.605C485.501 508.605 484.017 509.516 483.021 513.48C481.855 518.122 477.213 520.262 475.306 516.955ZM493.619 500.233C493.534 498.834 492.792 496.015 491.965 493.853C490.63 490.546 490.142 490.801 488.235 496.333C486.242 502.055 486.412 502.628 489.888 502.628C491.965 502.628 493.703 501.568 493.619 500.233ZM511.486 498.749C511.486 482.514 511.995 479.038 514.39 479.038C516.87 479.038 517.378 482.514 517.378 498.749C517.378 514.964 516.785 518.439 514.39 518.439C511.995 518.439 511.486 514.964 511.486 498.749ZM525.242 498.58V478.465L535.098 479.461C540.481 479.949 546.183 481.517 547.836 482.937C551.312 485.735 551.99 496.926 548.832 499.978C547.349 501.483 547.751 504.218 550.168 509.262C552.054 513.226 553.05 516.955 552.308 517.697C549.828 520.177 544.954 516.468 541.626 509.58C537.323 500.487 533.508 500.742 532.766 510.004C532.364 515.218 531.113 517.613 528.718 518.122C525.644 518.694 525.242 516.702 525.242 498.58ZM544.042 491.797C544.042 488.978 542.452 487.728 538.573 487.24C533.847 486.731 533.19 487.325 533.19 491.797C533.19 496.333 533.847 496.926 538.573 496.417C542.452 495.93 544.042 494.68 544.042 491.797ZM558.773 498.495V478.465L568.947 479.461C575.75 480.118 580.053 481.687 581.791 484.082C588.234 492.793 581.706 504.62 570.366 504.62C565.152 504.62 564.389 505.192 565.301 508.753C566.721 514.137 565.068 518.439 561.507 518.439C559.345 518.439 558.773 514.222 558.773 498.495ZM576.81 494.192C579.311 490.462 576.153 486.901 570.451 486.901C565.725 486.901 564.729 487.728 564.729 491.458C564.729 494.023 565.301 496.672 566.064 497.413C567.717 499.067 575.072 496.926 576.81 494.192ZM596.691 517.126C592.558 515.472 588.404 505.277 588.404 496.757C588.404 480.034 604.64 473.251 616.403 484.993C621.786 490.377 622.274 491.945 621.362 499.893C619.794 514.476 608.857 522 596.691 517.126ZM611.676 508.181C615.809 504.048 614.58 491.458 609.599 487.982C604.131 484.167 603.24 484.167 599.341 487.982C595.695 491.712 595.207 504.79 598.599 508.181C599.913 509.516 602.901 510.576 605.127 510.576C607.458 510.576 610.341 509.516 611.676 508.181ZM627.827 498.834C627.827 479.038 627.827 479.038 636.263 479.038C647.2 479.038 653.495 483.34 653.495 490.97C653.495 494.192 652.498 498.41 651.248 500.318C649.51 503.052 649.764 505.362 652.329 510.258C655.381 516.129 655.381 516.637 652.159 517.867C650.337 518.524 648.514 518.376 648.196 517.295C646.521 512.568 639.484 502.628 637.746 502.628C636.602 502.628 635.606 504.217 635.521 506.104C635.351 508.011 635.097 511.339 635.034 513.48C634.949 515.642 633.21 517.698 631.303 518.037C628.145 518.694 627.827 516.701 627.827 498.834ZM646.373 493.62C648.026 489.148 646.119 486.901 640.481 486.901C636.687 486.901 635.69 487.897 635.69 491.797C635.69 495.676 636.687 496.757 640.396 496.757C643.045 496.757 645.695 495.358 646.373 493.62ZM668.628 517.21C667.886 516.468 667.229 509.347 667.229 501.483C667.229 487.325 667.229 487.155 661.846 486.498C658.624 486.159 656.377 484.675 656.377 482.937C656.377 480.606 659.281 479.949 670.218 479.949C681.133 479.949 684.037 480.606 684.037 482.937C684.037 484.675 681.812 486.159 678.653 486.498C673.27 487.155 673.27 487.155 673.694 502.056C674.096 515.96 672.443 521.025 668.628 517.21ZM841.264 509.007C838.699 508.604 836.876 506.931 836.876 504.875C836.876 503.052 835.795 500.402 834.481 499.067C832.574 497.244 833.739 495.357 839.865 490.461C854.596 478.868 887.3 444.51 896.647 431.094C953.62 348.729 949.89 258.649 886.304 179.4C874.71 165.008 875.282 162.02 889.44 161.194C899.212 160.706 899.805 161.278 918.584 189.086C986.642 290.018 962.882 415.452 859.81 499.745C848.046 509.347 846.902 510.003 841.264 509.007ZM317.104 474.904C315.345 472.086 319.16 468.27 321.979 470.008C323.145 470.75 324.141 472.658 324.141 474.163C324.141 477.554 319.075 478.041 317.104 474.904ZM328.02 472.912C328.02 468.101 332.661 468.779 333.657 473.739C333.975 475.731 333 477.045 331.178 477.045C329.355 477.045 328.104 475.307 328.104 472.912H328.02ZM163.438 449.068C157.143 445.592 150.594 439.127 150.594 436.308C150.594 434.909 152.84 432.26 155.553 430.522C160.28 427.385 160.619 427.448 164.413 432.26C172.276 442.285 190.822 440.78 189.678 430.182C189.084 425.477 187.431 424.227 176.176 420.348C153.243 412.315 146.037 397.648 158.288 383.913C163.756 377.788 164.752 377.448 177.83 377.448C191.988 377.448 197.372 379.928 202.098 388.703C204.493 393.26 193.239 399.894 190.589 395.507C188.682 392.264 181.475 388.301 177.575 388.301C175.922 388.301 172.7 389.869 170.221 391.861C163.502 397.33 167.656 403.031 181.136 406.931C196.46 411.403 204.006 418.61 204.154 428.868C204.239 438.724 200.848 444.51 192.645 448.41C185.46 451.886 169.055 452.204 163.438 449.068ZM225.604 444.023C218.567 418.758 209.792 379.929 210.788 378.36C211.445 377.279 214.519 376.452 217.74 376.452C224.205 376.452 223.463 374.799 230.33 406.847L234.633 426.706L239.02 409.983C247.71 377.109 247.541 377.448 254.005 377.448C259.792 377.448 259.792 377.533 266.002 402.12L272.212 426.706L278.02 402.12C283.806 377.448 283.806 377.448 289.698 377.448C297.88 377.448 297.795 380.098 288.109 417.847C279.758 450.402 279.758 450.403 273.039 450.403C266.341 450.403 266.341 450.402 259.961 426.706L253.667 403.116L249.618 416.85C247.371 424.481 244.976 433.828 244.15 437.559C242.009 448.495 239.762 451.377 233.383 451.377C228.423 451.377 227.342 450.403 225.604 444.023ZM307.736 450.148C306.994 449.407 306.337 432.916 306.337 413.629C306.337 378.529 306.337 378.529 311.466 377.194C314.2 376.537 317.337 376.792 318.418 377.873C319.499 378.932 320.071 394.596 319.753 415.049C319.16 450.403 319.16 450.403 314.2 450.975C311.466 451.293 308.562 450.975 307.736 450.148ZM350.211 450.064C348.388 449.322 347.816 441.373 347.816 419.754V390.441L338.448 389.869C329.44 389.297 329.016 389.042 329.016 383.319C329.016 377.448 329.016 377.449 355.086 376.876C381.177 376.368 381.177 376.368 382.428 381.264C384.23 388.385 382.089 390.293 372.318 390.293H363.543V419.585C363.543 444.595 363.034 449.152 360.469 450.233C356.909 451.547 353.857 451.547 350.211 450.064ZM385.311 447.499C382.661 442.688 383.911 440.293 402.86 411.976L416.786 391.268L403.539 390.695C389.295 390.123 384.823 387.389 386.646 380.352C387.642 376.792 389.528 376.452 409.897 376.452C442.771 376.452 442.94 376.961 418.756 413.057L403.03 436.562L419.265 437.559C435.564 438.555 435.564 438.554 435.564 444.51C435.564 450.402 435.565 450.403 411.487 450.975C389.041 451.463 387.303 451.229 385.311 447.499ZM447.243 448.897C446.756 447.499 446.501 430.86 446.84 411.891L447.413 377.448H469.095C490.799 377.448 490.799 377.449 491.372 383.829C492.029 390.293 492.029 390.293 476.132 390.293C460.172 390.293 460.172 390.293 460.172 398.072C460.172 405.85 460.172 405.85 474.479 406.422C488.807 407.016 488.807 407.016 488.807 412.972C488.807 418.843 488.807 418.843 474.479 419.436C460.172 420.009 460.172 420.009 460.172 428.784C460.172 437.559 460.172 437.559 475.984 437.559C491.796 437.559 491.795 437.558 491.795 444.51C491.795 451.377 491.795 451.377 470.007 451.377C454.11 451.377 447.985 450.72 447.243 448.897ZM504.534 448.982C503.962 447.499 503.707 430.86 504.046 411.891L504.534 377.448L523.822 377.618C542.05 377.703 543.279 377.957 548.747 383.171C558.116 392.179 557.777 409.984 548.175 417.275C543.618 420.751 543.618 420.751 550.401 433.171C558.031 446.99 557.776 451.971 549.404 451.06C544.953 450.551 542.791 448.071 537.069 437.156C530.795 424.884 529.714 423.824 523.907 423.824C517.548 423.824 517.548 423.824 516.955 437.071C516.467 449.979 516.213 450.403 510.914 451.06C507.692 451.378 505.127 450.551 504.449 448.982H504.534ZM538.659 407.588C542.453 403.858 541.541 394.595 537.238 392.264C535.098 391.204 529.799 390.293 525.411 390.293C517.378 390.293 517.378 390.293 517.378 400.127C517.378 409.983 517.378 409.983 526.81 409.983C532.024 409.983 537.408 408.903 538.659 407.588ZM570.028 450.148C569.286 449.407 568.628 433.002 568.628 413.799C568.628 376.792 568.798 376.283 577.976 378.021C582.363 378.868 582.448 379.186 582.448 408.245V437.559H597.348C612.249 437.559 612.248 437.558 611.676 444.023C611.019 450.403 611.019 450.403 591.223 450.975C580.286 451.293 570.769 450.89 570.028 450.148ZM615.492 448.897C614.411 446.248 636.687 383.086 640.078 378.932C641.222 377.533 644.635 376.452 647.602 376.452C653.728 376.452 652.498 373.803 670.451 423.4C675.262 436.647 678.738 448.41 678.081 449.491C677.424 450.551 674.351 451.377 671.277 451.377C666.402 451.377 665.152 450.148 662.27 442.518C658.878 433.658 658.878 433.658 646.203 433.658C635.924 433.658 633.359 434.252 632.533 437.071C628.399 449.894 627.233 451.377 621.85 451.377C618.883 451.377 615.979 450.318 615.492 448.897ZM651.672 411.488C649.764 405.765 647.687 399.81 647.199 398.156C646.606 396.503 644.635 400.064 642.812 406.02C640.904 411.976 638.912 418.016 638.425 419.352C637.683 421.09 639.908 421.832 646.288 421.832C655.232 421.832 655.233 421.831 651.672 411.488ZM687.937 448.982C687.344 447.499 687.11 430.86 687.428 411.891C687.937 377.618 687.937 377.449 692.473 376.792C698.852 375.88 700.273 377.448 715.745 402.035L729.416 423.824L730.412 400.636C731.303 377.449 731.302 377.448 737.279 377.448C743.151 377.448 743.151 377.448 743.723 413.374C744.232 449.321 744.232 449.321 738.933 450.636C732.553 452.289 730.561 450.064 713.604 422.912L701.756 403.942L700.76 427.215C699.764 450.403 699.764 450.403 694.38 451.06C691.159 451.378 688.509 450.551 687.937 448.982ZM760.446 449.237C756.567 445.168 756.97 381.667 760.955 378.445C765.003 374.969 792.578 376.792 800.696 381.01C811.696 386.732 816.02 395.253 816.677 411.976C817.334 429.356 812.777 439.635 801.523 446.248C793.087 451.144 764.346 453.201 760.383 449.237H760.446ZM797.962 432.005C801.099 428.868 802.349 424.735 802.921 415.049C803.748 402.946 803.43 401.95 797.792 396.249C792.833 391.353 790.183 390.293 782.807 390.293H773.778V438.046L783.803 437.156C790.437 436.477 795.228 434.739 797.962 432.005ZM61.8488 358.818C61.8488 356.507 61.9973 356.508 158.457 345.825C202.416 341.014 249.448 335.715 262.95 334.062C291.585 330.67 295.146 330.501 293.747 332.833C292.348 334.973 256.401 339.446 109.369 355.766C58.4365 361.467 61.8488 361.213 61.8488 358.818ZM880.263 355.342C876.448 354.939 845.905 352.035 812.374 348.814C778.017 345.571 750.442 342.095 749.276 340.866C747.051 338.534 748.789 338.619 794.486 343.006C805.338 344.002 829.67 346.228 848.725 347.966C867.673 349.64 885.223 351.463 887.618 351.951C892.175 352.862 893.998 356.995 889.61 356.423C888.296 356.254 884.078 355.765 880.263 355.342ZM305.658 341.925C309.813 337.05 313.607 333.065 314.285 333.065C314.942 333.065 316.511 336.054 317.846 339.785C319.16 343.515 321.491 346.991 322.975 347.563C325.116 348.39 325.052 347.394 322.721 342.667C319.16 335.567 320.495 333.659 327.108 336.626C330.097 338.046 332.004 338.132 332.004 336.966C332.004 335.885 333.573 335.058 335.395 335.058C337.79 335.058 338.13 334.486 336.54 332.917C335.395 331.667 331.241 330.671 327.362 330.671C320.326 330.671 320.325 330.671 323.378 324.8C325.794 320.073 327.278 319.162 330.669 320.243C333.064 320.985 337.049 322.065 339.444 322.637C342.517 323.294 343.662 324.715 343.005 326.855C342.263 329.017 343.746 330.925 347.222 332.578C354.683 336.054 355.679 335.715 355.679 330.098C355.679 327.364 355.934 325.202 356.167 325.202C356.506 325.202 360.893 326.77 366.107 328.763C376.959 332.917 376.62 335.058 365.45 333.575C355.34 332.239 355.022 336.139 364.857 340.187C372.805 343.578 376.218 342.604 395.082 331.582C399.723 328.848 399.723 329.017 394.509 333.829C389.528 338.449 389.38 338.958 392.941 338.958C395.082 338.958 397.413 338.132 398.07 337.051C398.727 335.885 401.207 335.312 403.623 335.715C406.018 336.139 406.845 336.054 405.425 335.567C401.376 334.231 402.712 332.07 407.841 331.837C410.575 331.667 412.546 332.494 412.313 333.575C411.804 335.8 419.011 337.305 431.601 337.538C442.283 337.707 450.147 336.224 457.268 332.663C460.49 331.01 465.789 329.018 469.095 328.191C472.338 327.364 473.907 326.283 472.656 325.796C471.003 325.202 471.257 323.888 473.653 321.324C475.475 319.331 478.548 315.347 480.52 312.549C482.512 309.645 485.903 307.398 488.468 307.398C490.969 307.398 493.767 306.741 494.848 305.914C496.014 305.172 492.283 309.072 486.73 314.689C479.545 321.896 477.129 325.626 478.633 327.025C482.025 330.416 484.759 329.505 490.884 322.977C494.106 319.67 498.578 316.173 500.888 315.283C504.046 314.032 505.276 311.552 505.869 305.575C506.696 296.8 505.53 296.568 493.025 302.863C487.557 305.66 487.493 305.575 488.807 301.188C489.549 298.623 492.94 294.151 496.353 291.269C502.563 285.885 502.563 285.885 496.671 286.627C493.449 287.03 489.888 287.538 488.807 287.793C483.847 288.937 474.648 283.321 472.571 277.768C470.77 273.041 470.918 271.981 473.165 271.981C474.733 271.981 475.984 270.646 475.984 269.077C475.984 267.509 477.044 265.601 478.294 264.859C479.778 263.863 480.202 264.775 479.46 267.509C478.633 270.731 479.121 271.387 481.601 270.476C484.25 269.48 484.08 270.243 480.944 273.952C476.959 278.594 476.959 278.594 483.847 274.461C492.792 269.077 494.275 268.908 496.183 273.295C497.412 276.03 497.497 275.69 496.84 272.044C496.268 269.395 496.84 266.004 498.091 264.52C499.32 263.037 500.57 259.709 500.803 257.059C501.227 253.181 500.57 252.354 496.755 252.672C493.767 252.926 492.537 254.008 493.279 255.746C494.106 257.971 494.615 257.971 495.929 255.83C496.925 254.41 497.667 254.177 497.667 255.321C497.667 256.402 496.268 259.137 494.615 261.214C491.965 264.351 491.626 264.435 492.537 261.616C493.936 257.144 490.545 255.237 488.892 259.561C487.811 262.443 487.323 262.528 485.755 260.048C484.759 258.48 483.932 256.233 483.932 255.173C483.932 254.092 484.674 254.347 485.585 255.746C486.73 257.568 487.811 256.827 489.464 253.181C490.884 250.108 492.707 248.624 494.021 249.451C495.505 250.362 495.759 249.938 494.763 248.284C493.703 246.546 495.357 243.813 499.829 240.103C506.187 234.805 506.357 234.465 502.308 233.299C497.751 232.07 495.102 226.432 495.674 219.141C495.844 216.746 495.272 214.754 494.36 214.754C492.453 214.754 492.622 200.447 494.53 197.289C495.357 196.059 494.763 195.063 493.364 195.063C489.061 195.148 485.246 198.37 484.907 202.248C484.589 206.572 479.608 214.754 477.383 214.754C476.471 214.754 477.383 211.956 479.29 208.543C482.194 203.668 482.342 202.185 480.286 201.422C477.213 200.362 488.15 193.071 492.855 193.071C497.921 193.071 498.493 187.115 493.936 182.558C491.541 180.163 488.235 176.517 486.582 174.271C484.907 172.13 484.165 171.537 484.992 173.042C485.755 174.525 485.161 176.602 483.678 177.662C481.601 179.082 481.94 179.252 484.844 178.34C487.726 177.429 488.235 177.577 486.666 179.252C485.416 180.396 482.342 181.647 479.693 181.901C477.128 182.219 473.25 183.469 471.088 184.783C467.697 186.776 468.353 187.03 475.814 186.204C482.936 185.462 483.847 185.695 481.198 187.688C479.375 189.002 477.213 192.732 476.302 195.89C474.818 201.507 470.092 205.407 470.092 201.019C470.092 199.769 470.918 199.281 472.084 199.938C473.165 200.595 473.991 199.854 473.991 198.285C473.991 196.632 474.479 194.067 475.157 192.499C476.387 189.171 465.958 186.776 461.741 189.426C460.002 190.507 460.405 191.078 463.14 191.078C466.785 191.163 466.7 191.418 462.398 193.813C459.324 195.551 458.498 196.886 460.003 197.798C461.571 198.857 461.402 200.363 459.261 203.499C457.586 205.81 456.272 209.709 456.272 212.104C456.272 214.52 455.361 217.001 454.28 217.658C453.199 218.4 452.287 220.561 452.287 222.617C452.287 224.609 450.973 227.598 449.405 229.252C447.752 230.905 446.416 233.639 446.416 235.292C446.416 237.03 444.763 238.45 442.686 238.45C440.715 238.45 437.811 239.934 436.328 241.757C433.424 245.318 433.085 245.317 442.94 241.332C445.42 240.336 446.416 240.93 446.416 243.24C446.416 245.551 445.336 246.229 442.771 245.402C440.63 244.724 438.066 245.487 436.561 247.225C433.678 250.786 436.646 251.358 440.122 247.882C441.944 246.059 442.453 246.144 442.453 248.454C442.453 250.107 441.626 252.269 440.545 253.35C438.065 255.83 446.162 255.915 449.977 253.499C451.461 252.587 453.051 252.269 453.623 252.841C455.106 254.346 443.852 259.709 441.202 258.734C439.952 258.31 438.299 258.797 437.642 259.963C436.9 261.129 437.387 262.041 438.807 262.041C440.545 262.041 440.376 262.782 438.299 264.52C436.646 265.919 432.915 270.307 429.948 274.376C424.394 281.901 426.302 284.549 432.915 278.509C435.734 276.029 436.561 275.86 436.561 277.937C436.561 279.421 440.545 276.771 445.42 271.981C450.232 267.17 454.704 263.693 455.191 264.266C457.269 266.343 453.708 273.634 450.062 274.546C447.9 275.118 446.501 276.856 446.84 278.424C447.498 281.497 431.855 295.571 427.701 295.571C426.302 295.571 424.564 297.055 423.907 298.793C423.229 300.615 422.169 301.527 421.576 300.955C420.919 300.362 416.023 302.438 410.66 305.575C403.284 309.984 398.388 311.383 390.779 311.383C381.665 311.383 381.008 311.044 384.314 308.649C387.727 306.169 387.472 305.83 380.181 304.601C367.676 302.523 366.023 300.213 375.878 298.708C392.029 296.313 395.675 295.401 400.974 292.667C408.752 288.704 410.406 285.885 411.571 274.863C413.458 256.996 414.963 253.435 423.398 247.288C429.206 242.986 432.83 238.026 436.391 229.506C439.125 223.041 442.198 217.085 443.195 216.407C445.674 214.669 450.317 201.019 450.317 195.466C450.401 193.071 451.313 191.078 452.372 191.078C456.76 191.078 461.656 183.215 462.652 174.78C463.712 165.327 470.515 153.584 474.903 153.584C476.302 153.584 478.718 155.068 480.202 156.891C482.682 159.858 482.512 159.943 478.464 157.802C476.069 156.467 474.076 156.234 474.076 157.145C474.076 160.028 481.029 165.411 484.759 165.411C487.896 165.411 487.981 165.009 485.67 162.02C483.593 159.286 484.081 159.371 487.896 162.444C501.885 173.699 512.991 189.002 510.341 193.41C509.515 194.724 509.833 195.063 511.253 194.237C512.482 193.474 513.478 193.728 513.478 194.894C513.478 196.06 511.91 197.034 510.002 197.034C506.865 197.119 506.95 197.373 510.341 199.938C512.397 201.506 514.962 202.248 516.043 201.507C517.209 200.849 517.463 201.358 516.637 202.587C515.874 203.838 516.212 204.898 517.378 204.898C518.523 204.898 519.434 207.887 519.434 211.617C519.434 219.396 530.858 232.473 537.662 232.473C539.888 232.473 545.929 236.373 551.079 241.163C556.208 245.974 566.891 253.181 574.924 257.144C588.997 264.181 618.056 289.446 618.056 294.66C618.056 295.889 621.617 298.877 626.089 301.357C630.477 303.837 633.613 306.339 633.041 306.826C631.303 308.564 617.378 299.302 609.853 291.353C605.953 287.199 601.163 283.723 599.256 283.723C595.949 283.723 595.949 283.978 599.425 287.877C603.071 291.926 603.071 291.925 594.444 290.844C585.924 289.848 578.315 285.716 584.928 285.716C586.751 285.716 588.743 286.627 589.4 287.708C592.134 292.011 594.381 289.277 593.872 282.24C593.3 274.122 587.577 267.508 582.109 268.738C580.222 269.162 577.636 268.25 576.407 266.746C574.5 264.435 574.754 264.181 577.636 265.347C584.44 267.912 578.548 262.125 570.028 257.886C565.555 255.576 558.942 251.019 555.381 247.627C551.905 244.321 549.002 242.753 549.002 244.152C549.002 245.551 555.615 253.181 563.817 261.129C571.935 269.077 578.548 276.029 578.548 276.432C578.548 280.671 549.087 272.214 543.131 266.259C537.895 261.129 537.98 276.432 543.131 284.804C545.441 288.535 546.437 291.671 545.356 291.671C544.19 291.671 542.876 290.844 542.304 289.933C540.396 286.796 528.718 285.461 527.064 288.195C525.814 290.187 524.648 290.103 521.257 288.026C515.81 284.634 514.814 285.885 518.693 291.353C522.995 297.479 545.695 311.213 542.219 305.575C540.397 302.608 544.36 301.358 549.341 303.35C553.474 305.003 553.559 305.258 549.998 305.427C543.131 305.915 563.499 311.298 572.19 311.298C576.81 311.383 580.54 312.294 580.54 313.375C580.54 314.435 582.278 315.283 584.355 315.283C586.496 315.283 588.828 316.258 589.57 317.424C590.227 318.59 593.215 319.077 596.034 318.42C601.248 317.254 601.248 317.254 596.522 319.988C593.957 321.472 592.791 322.977 594.042 323.379C595.441 323.888 595.61 325.202 594.444 327.025C592.961 329.356 591.732 329.42 587.493 327.534C584.61 326.199 582.787 324.291 583.444 323.294C584.843 320.984 573.419 317.933 558.688 316.682C552.647 316.173 544.784 314.287 541.223 312.464C533.19 308.225 531.282 309.645 538.573 314.372C541.541 316.343 548.005 321.726 552.965 326.368C561.592 334.401 572.104 340.187 574.16 338.131C574.754 337.538 573.101 335.397 570.451 333.235C565.725 329.42 565.725 329.42 573.186 331.752C577.234 332.981 579.629 334.316 578.484 334.719C577.064 335.227 577.149 336.309 578.718 338.131C580.456 340.187 579.798 341.014 575.665 342.095C571.935 343.006 571.024 344.002 572.507 345.571C576.895 349.873 574.161 350.785 557.204 350.785C543.788 350.785 537.493 349.874 530.541 346.737C521.85 342.922 516.043 343.006 518.523 346.991C519.201 347.966 516.7 348.814 513.161 348.729C508.095 348.56 507.438 348.22 510.426 347.076C515.047 345.253 511.995 342.836 505.276 343.006C502.796 343.091 497.094 343.091 492.622 343.006C487.408 342.921 482.767 344.257 479.46 346.822C475.073 350.382 471.66 350.785 450.147 350.7C435.734 350.615 427.383 349.873 429.693 348.962C432.512 347.817 430.35 347.139 421.83 346.482C413.543 345.91 409.325 346.397 407.841 348.22C406.103 350.212 393.852 350.785 351.949 350.785H298.388L305.658 341.925ZM469.18 345.486C472.338 342.349 472.253 342.095 468.777 340.866C461.741 338.28 444.424 342.604 444.424 346.991C444.424 350.382 465.471 349.131 469.18 345.486ZM521.342 304.685C521.342 304.261 519.519 303.519 517.378 302.926C515.216 302.354 513.902 302.693 514.559 303.689C515.64 305.427 521.342 306.254 521.342 304.685ZM425.73 276.432C428.21 274.037 430.859 270.243 431.601 268.081C432.258 265.835 433.508 264.033 434.335 264.033C435.162 264.033 435.904 262.698 435.904 261.129C435.904 256.911 429.27 257.399 421.491 262.21C413.31 267.339 413.14 268.251 420.749 266.682C425.306 265.771 426.62 266.258 426.62 268.568C426.62 270.306 425.794 272.214 424.734 272.956C423.568 273.634 422.741 273.295 422.741 272.214C422.741 271.133 420.664 271.303 417.782 272.638C412.313 275.203 410.66 283.066 416.107 280.989C418.672 279.993 418.841 280.332 417.103 282.409C415.535 284.38 415.535 285.716 417.358 287.454C419.265 289.446 419.922 289.022 420.431 285.376C420.834 282.896 423.144 278.848 425.73 276.432ZM537.069 280.756C535.67 279.081 534.017 278.255 533.444 278.933C532.766 279.505 533.593 280.84 535.182 281.9C539.4 284.55 539.888 284.232 537.069 280.756ZM527.234 270.985C525.814 269.247 524.246 268.336 523.758 268.908C523.165 269.395 523.822 271.218 525.242 272.956C526.641 274.63 528.209 275.541 528.802 274.948C529.29 274.461 528.633 272.638 527.234 270.985ZM531.452 264.52C529.12 260.133 521.342 253.011 521.342 255.237C521.342 256.826 531.198 267.997 532.596 267.997C532.936 267.997 532.533 266.428 531.452 264.52ZM534.419 257.653C533.275 251.697 533.444 251.528 536.157 255.088C537.747 257.144 539.061 257.822 539.061 256.402C539.061 255.088 540.057 254.58 541.223 255.237C542.367 256 541.88 253.753 540.057 250.192C538.235 246.716 535.182 243.494 533.275 242.986C531.367 242.498 528.379 239.023 526.556 235.292C524.818 231.562 522.338 228.594 521.172 228.594C519.943 228.594 520.77 231.562 523.08 235.546C525.411 239.425 526.238 241.989 525.072 241.248C523.589 240.336 523.334 241.333 524.33 244.576C525.157 247.14 526.471 249.535 527.382 249.874C528.294 250.192 529.947 253.498 531.198 257.314C534.101 265.834 536.009 266.089 534.419 257.653ZM425.645 252.524C424.479 251.358 420.749 254.346 420.749 256.317C420.749 257.398 421.999 257.145 423.483 255.746C425.052 254.347 425.963 252.926 425.645 252.524ZM503.623 243.325C506.272 239.68 506.272 239.594 503.135 242.074C501.227 243.579 499.659 245.72 499.659 246.886C499.659 248.052 499.914 248.539 500.147 248.136C500.486 247.628 502.054 245.487 503.623 243.325ZM514.39 238.683C512.482 236.945 511.338 236.373 511.91 237.454C512.397 238.514 513.478 241.163 514.305 243.325C515.386 246.144 516.128 246.462 516.87 244.639C517.378 243.155 516.213 240.506 514.39 238.683ZM507.862 204.411C506.357 203.012 506.102 203.753 507.014 206.975C507.692 209.709 508.604 210.536 509.091 209.137C509.6 207.632 509.006 205.577 507.862 204.411ZM502.393 187.2C501.143 185.865 500.401 186.607 500.147 189.426C499.914 192.563 500.401 193.071 502.054 191.418C503.623 189.913 503.707 188.429 502.393 187.2ZM506.442 184.551C505.043 181.053 496.183 174.695 491.711 174.101C489.888 173.868 490.206 174.525 492.622 176.009C494.763 177.259 498.748 180.481 501.482 183.216C507.098 188.853 508.18 189.086 506.442 184.551ZM491.711 169.396C490.142 168.315 486.984 167.573 484.844 167.658C481.601 167.806 481.77 168.061 485.818 169.396C492.792 171.622 495.187 171.622 491.711 169.396ZM589.485 347.818C587.408 346.228 586.348 344.341 587.09 343.578C587.831 342.837 589.485 343.26 590.735 344.574C592.05 345.825 594.953 346.822 597.094 346.822C600.591 346.737 600.337 346.228 595.441 343.663C591.562 341.522 590.566 340.103 592.219 339.043C593.703 338.131 592.219 336.966 588.001 335.97C582.702 334.719 582.278 334.316 585.669 333.659C591.795 332.494 604.131 338.131 604.131 342.095C604.131 343.917 605.72 346.652 607.628 348.051C610.595 350.382 609.938 350.7 602.159 350.7C597.263 350.7 591.562 349.386 589.485 347.818ZM614.41 347.733C608.2 343.43 609.027 340.611 615.492 344.003C618.459 345.571 625.093 346.822 630.307 346.906C635.436 346.906 639.654 347.733 639.654 348.877C639.654 352.035 619.285 351.209 614.41 347.733ZM663.753 346.906C661.273 344.829 659.281 342.434 659.366 341.523C659.535 340.696 657.967 339.7 656.059 339.276C652.668 338.619 633.698 325.287 633.698 323.549C633.698 323.146 635.034 323.295 636.687 323.888C638.34 324.545 640.989 324.545 642.727 323.888C645.292 322.892 645.122 322.319 641.731 319.903C639.484 318.335 636.687 315.198 635.436 312.866C633.868 309.984 635.86 310.874 642.388 316.173C647.369 320.327 651.502 324.375 651.502 325.287C651.502 326.113 655.889 331.582 661.358 337.368C666.741 343.091 671.214 348.56 671.214 349.302C671.214 351.781 668.48 350.87 663.753 346.906ZM642.07 345.741C636.093 341.608 636.517 338.958 643.045 339.276C648.429 339.53 648.429 339.53 643.554 340.527C638.912 341.438 639.082 341.692 646.521 344.999C651.905 347.394 653.155 348.644 650.421 348.729C648.196 348.814 644.465 347.479 642.07 345.741ZM619.052 343.091C618.459 342.095 619.709 341.777 621.85 342.349C626.492 343.579 627.085 344.914 623.016 344.914C621.447 344.914 619.625 344.087 619.052 343.091ZM709.62 339.531C693.384 337.962 679.226 335.884 678.166 334.888C675.75 332.493 684.779 332.578 711.782 335.058C740.501 337.792 746.457 338.873 745.058 341.014C744.486 342.095 742.896 342.837 741.582 342.667C740.247 342.519 725.94 341.099 709.62 339.531ZM378.697 331.179C376.366 328.848 375.878 327.11 377.193 326.284C378.358 325.542 379.355 325.88 379.355 327.025C379.355 328.106 381.58 329.59 384.399 330.331C388.214 331.243 388.871 332.07 386.879 333.32C383.403 335.567 382.915 335.397 378.697 331.179ZM446.925 327.851C443.364 326.453 443.852 323.231 447.497 323.231C449.151 323.231 450.062 324.058 449.49 325.033C448.812 326.029 449.49 327.279 450.804 327.767C452.224 328.36 452.372 328.848 451.313 328.848C450.232 328.848 448.239 328.36 446.84 327.851H446.925ZM346.82 325.117C347.477 324.058 348.897 323.634 349.872 324.291C352.606 325.944 352.118 327.195 348.642 327.195C346.989 327.195 346.163 326.283 346.82 325.117ZM407.502 325.796C409.41 325.287 412.059 325.287 413.373 325.881C414.708 326.368 413.14 326.771 409.897 326.771C406.675 326.707 405.51 326.283 407.502 325.796ZM829.097 321.981C826.278 318.335 825.028 313.863 825.028 307.398C825.028 294.66 830.496 287.708 840.607 287.708C849.042 287.708 856.906 294.087 853.175 297.797C851.692 299.301 849.636 298.963 846.075 296.652C842.175 294.088 840.183 293.833 836.961 295.571C829.67 299.45 832.743 321.239 840.522 321.239C841.264 321.239 843.913 319.818 846.478 318.08C852.773 313.608 856.821 317.508 851.692 323.146C846.224 329.272 834.312 328.594 829.097 321.981ZM859.894 325.881C859.153 325.117 858.559 316.258 858.559 306.084C858.559 289.022 858.813 287.708 862.459 287.708C865.765 287.708 866.422 289.022 866.422 295.571C866.422 303.265 866.592 303.52 873.311 303.52C880.093 303.52 880.263 303.265 880.263 295.571C880.263 289.022 880.92 287.708 884.142 287.708C887.872 287.708 888.126 289.022 888.126 307.568C888.126 325.456 887.787 327.364 884.65 326.771C882.171 326.283 881.09 323.888 880.581 317.763C880.009 309.645 879.754 309.39 873.226 309.39C866.507 309.39 866.422 309.475 866.422 318.25C866.422 326.707 863.773 329.759 859.894 325.881ZM360.321 320.243C359.728 318.59 357.905 317.254 356.421 317.254C354.938 317.254 353.687 316.597 353.687 315.855C353.687 313.948 368.672 313.863 370.58 315.771C372.487 317.678 367.761 323.231 364.2 323.231C362.716 323.231 360.978 321.896 360.321 320.243ZM412.885 321.324C412.885 320.243 414.221 319.904 415.789 320.497C417.442 321.154 418.756 321.98 418.756 322.383C418.756 322.892 417.442 323.231 415.789 323.231C414.221 323.231 412.885 322.32 412.885 321.324ZM717.081 321.726C677.573 321.323 665.237 320.582 665.237 318.759C665.237 315.113 799.7 317.169 800.865 320.815C801.522 322.807 798.046 323.231 785.287 322.807C776.194 322.468 745.546 321.98 717.081 321.726ZM436.476 319.501C436.476 317.848 450.401 315.113 451.97 316.427C452.372 316.766 452.139 317.996 451.376 319.161C449.808 321.641 436.476 321.981 436.476 319.501ZM325.624 314.689C318.164 311.785 318.757 310.471 329.185 306.487C334.569 304.431 339.041 301.188 340.271 298.39C342.263 294.151 342.75 294.003 346.481 296.652C348.812 298.221 352.86 299.619 355.595 299.704C358.329 299.789 359.495 300.277 358.074 300.87C356.167 301.612 356.082 302.523 357.735 304.601C359.558 306.741 358.647 307.165 352.86 306.656C348.897 306.253 345.166 305.512 344.573 304.833C343.916 304.261 340.355 305.173 336.625 306.996C331.75 309.306 330.097 311.213 330.754 313.778C331.241 315.685 331.495 317.169 331.326 317.084C331.177 316.936 328.592 315.94 325.624 314.689ZM367.761 311.553C365.768 310.302 365.853 309.73 368.27 308.818C369.923 308.161 371.83 308.394 372.402 309.306C373.971 311.87 370.749 313.375 367.761 311.553ZM590.311 309.39C588.743 308.309 588.234 307.483 589.315 307.483C590.481 307.483 592.643 308.309 594.296 309.39C595.949 310.471 596.352 311.298 595.292 311.298C594.211 311.298 591.965 310.471 590.311 309.39ZM436.984 306.996C430.605 303.922 431.601 301.125 438.977 301.527C448.812 302.1 450.634 301.697 449.235 299.386C448.324 297.966 450.719 297.394 456.527 297.627C464.051 298.051 469.265 297.055 474.479 294.151C475.306 293.748 475.984 294.321 475.984 295.487C475.984 296.652 474.649 297.564 472.995 297.564C471.342 297.564 470.007 298.39 470.007 299.302C470.007 301.782 451.546 309.39 446.014 309.221C443.513 309.221 439.464 308.161 436.984 306.996ZM606.95 306.339C603.304 303.265 603.304 303.265 608.115 304.262C610.765 304.919 613.754 305.427 614.58 305.427C615.492 305.427 615.64 306.338 614.983 307.398C613.245 310.132 611.422 309.899 606.95 306.339ZM651.502 303.774C651.502 302.863 662.757 301.527 676.576 300.87C690.417 300.128 712.841 298.793 726.428 297.712C779.077 293.833 801.353 293.092 801.353 295.402C801.353 296.568 798.958 297.564 795.884 297.564C792.917 297.627 763.858 299.387 731.302 301.527C665.915 305.83 651.502 306.254 651.502 303.774ZM481.855 294.575C488.32 290.93 490.884 290.93 487.811 294.575C486.412 296.229 483.423 297.564 481.113 297.479C477.213 297.479 477.213 297.225 481.855 294.575ZM636.835 291.926C635.606 289.934 639.654 289.191 687.937 282.727C748.704 274.63 796.966 268.081 833.888 263.037C885.562 256 892.09 255.322 892.09 257.568C892.09 259.137 854.087 265.262 820.068 269.077C810.954 270.158 748.365 278.594 719.475 282.727C708.623 284.316 689.166 286.966 676.089 288.619C663.096 290.357 649.171 292.095 645.207 292.667C641.159 293.176 637.428 292.837 636.835 291.926ZM319.16 278.679C307.248 276.114 265.091 267.742 225.519 260.048C94.5532 234.55 79.3986 231.392 79.6318 229.506C79.8013 226.941 74.4177 226.029 156.465 242.244C196.058 250.022 239.593 258.48 253.094 261.129C276.027 265.517 313.034 272.893 337.451 277.937C343.089 279.082 347.816 280.904 347.816 281.9C347.816 284.465 344.255 284.062 319.16 278.679ZM626.831 279.844C626.174 278.764 625.919 277.852 626.237 277.852C626.831 277.852 664.919 269.989 758.962 250.532C790.437 243.982 818.818 238.28 822.061 237.687C825.282 237.199 838.127 234.465 850.463 231.646C874.964 226.093 878.271 225.691 878.271 228.255C878.271 229.252 869.157 231.9 858.072 234.296C833.803 239.594 713.35 264.351 680.074 270.985C667.06 273.55 650.676 277.026 643.554 278.679C628.314 282.324 628.399 282.324 626.831 279.844ZM459.091 274.948C455.276 272.044 455.276 272.045 459.324 271.981C461.486 271.981 464.305 270.985 465.386 269.904C466.785 268.484 467.358 269.247 467.124 272.214C466.7 277.767 464.051 278.678 459.091 274.948ZM335.968 267.085C318.842 262.528 256.825 246.398 184.125 227.598C111.425 208.883 95.2103 204.241 96.7787 202.673C97.6054 201.846 113.417 204.983 131.793 209.71C187.346 223.868 257.651 242.075 299.448 253.096C321.152 258.883 343.513 264.69 349.13 266.088C354.768 267.509 358.986 269.395 358.413 270.306C357.078 272.553 355.255 272.214 335.968 267.085ZM438.468 270.243C438.468 269.247 439.952 267.254 441.775 265.771C444.763 263.27 444.848 263.439 442.686 267.509C440.206 272.045 438.468 273.21 438.468 270.243ZM615.068 268.166C616.148 267.17 631.621 262.295 649.51 257.399C667.399 252.439 721.553 237.369 769.814 223.868C849.381 201.677 864.282 198.2 859.237 202.927C858.326 203.754 816.762 215.581 766.826 229.252C716.996 242.838 663.668 257.653 648.514 261.956C621.108 269.904 611.422 271.727 615.068 268.166ZM93.7902 264.033C68.8858 260.705 63.8201 259.476 66.1515 257.059C67.6352 255.576 139.424 264.351 141.564 266.343C144.553 268.908 122.531 267.827 93.7902 264.033ZM469.095 266.173C467.781 263.948 470.918 261.616 472.741 263.439C474.564 265.347 474.246 267.997 472.169 267.997C471.088 267.997 469.774 267.169 469.095 266.173ZM300.444 240.103C264.115 228.17 207.969 209.794 175.774 199.281C143.472 188.853 117.063 179.569 117.063 178.743C116.978 175.691 124.672 177.577 158.372 188.853C177.427 195.212 233.065 213.609 282.068 229.654C331.093 245.72 370.749 259.561 370.241 260.472C368.842 262.782 372.572 263.863 300.444 240.103ZM602.159 258.395C602.159 257.484 607.946 254.834 614.983 252.524C622.02 250.192 644.868 242.159 665.745 234.635C686.686 227.174 717.907 216.089 735.287 210.049C752.667 204.071 782.235 193.728 801.035 187.2C836.876 174.695 838.868 174.186 838.868 177.09C838.868 178.086 833.739 180.566 827.529 182.728C811.696 187.942 708.708 223.783 691.9 229.823C659.111 241.671 605.466 260.133 603.897 260.133C602.986 260.133 602.159 259.306 602.159 258.395ZM462.143 256.085C462.143 254.919 463.309 254.177 464.623 254.347C469.604 255.004 472.254 254.092 471.003 252.185C470.346 251.104 471.829 250.192 474.394 250.192C476.895 250.192 480.944 249.62 483.339 248.963C485.819 248.37 487.811 248.624 487.811 249.535C487.811 250.532 482.682 252.842 476.387 254.75C462.97 258.734 462.143 258.798 462.143 256.085ZM329.016 232.473C301.949 221.706 248.961 200.68 211.191 185.695C173.527 170.795 142.73 157.887 142.73 157.06C142.645 154.729 147.86 155.322 154.896 158.374C162.845 161.85 186.371 171.303 295.972 214.838C368.502 243.749 388.299 252.524 379.842 252.185C379.015 252.1 356.167 243.24 329.016 232.473ZM587.662 250.701C585.839 247.713 810.785 152.334 813.434 154.983C814.282 155.895 801.523 162.275 785.054 169.227C768.479 176.179 718.649 197.289 674.181 216.259C629.735 235.207 592.304 251.104 591.053 251.612C589.824 252.1 588.234 251.697 587.662 250.701ZM572.592 242.901C572.592 240.103 785.139 133.619 786.537 135.78C787.194 136.861 747.793 157.717 694.465 184.381C643.13 210.049 596.776 233.385 591.308 236.373C579.799 242.753 572.592 245.232 572.592 242.901ZM387.218 240.93C385.565 240.337 373.632 234.805 360.554 228.594C347.562 222.469 307.651 203.838 271.894 187.2C236.032 170.541 198.113 152.991 187.516 148.031C170.136 139.998 164.413 135.865 170.538 135.865C171.789 135.865 187.516 142.902 205.574 151.423C245.888 170.541 361.296 224.695 380.838 233.639C394.34 239.849 398.155 242.583 392.602 242.159C391.287 242.074 388.871 241.502 387.218 240.93ZM467.124 240.336C466.446 239.276 467.357 238.45 469.011 238.45C470.833 238.45 471.66 239.276 471.003 240.336C470.346 241.417 469.434 242.328 469.011 242.328C468.608 242.328 467.781 241.417 467.124 240.336ZM481.855 238.938C481.855 236.861 488.807 232.642 492.283 232.558C497.836 232.473 492.368 239.34 486.666 239.679C484.017 239.849 481.855 239.51 481.855 238.938ZM473.822 221.219C477.468 220.477 477.955 219.905 475.814 218.569C473.568 217.086 473.652 216.746 476.471 216.746C478.379 216.746 479.863 218.082 479.863 219.65C479.863 221.642 478.125 222.554 474.479 222.384C469.35 222.13 469.35 222.045 473.822 221.219ZM460.321 208.311C460.172 204.411 463.139 203.754 465.301 207.145C466.128 208.459 465.874 208.883 464.623 208.141C463.479 207.399 462.059 207.971 461.486 209.307C460.914 210.79 460.406 210.366 460.321 208.311ZM465.386 201.358C464.793 200.447 465.217 198.455 466.213 196.886C467.612 194.64 468.036 194.979 468.036 198.455C468.121 203.012 467.124 204.071 465.386 201.358ZM877.614 158.205C876.872 157.463 876.279 152.821 876.279 147.947V139.002L885.138 147.692C891.433 153.817 893.256 156.806 891.518 157.887C888.529 159.795 879.436 160.027 877.614 158.205ZM472.911 138.917C465.619 135.865 455.276 125.755 450.889 117.404C447.497 110.855 445.929 76.4969 448.896 73.5084C452.139 70.3715 478.782 67.2137 488.722 68.8033C510.659 72.4277 509.515 71.2834 509.515 87.8369C509.515 114.246 503.135 127.917 486.582 137.179C479.778 140.994 478.209 141.164 472.911 138.917ZM483.847 116.154C483.847 108.29 483.847 108.29 491.711 108.29C499.15 108.29 499.659 107.866 499.659 102.482C499.659 97.1835 499.002 96.6116 492.198 96.0393C485.246 95.4458 484.844 95.0432 484.25 88.0064C483.678 81.2875 483.106 80.6299 477.807 80.6299C472.423 80.6299 471.999 81.1387 471.999 88.4087C471.999 95.9542 471.745 96.2089 464.623 96.7812C458.18 97.3535 457.268 98.0316 457.268 102.334C457.268 106.637 458.18 107.378 464.623 107.866C471.83 108.459 471.999 108.693 471.999 116.238C471.999 123.614 472.423 124.017 477.955 124.017C483.508 124.017 483.847 123.614 483.847 116.154ZM391.203 123.529C391.203 123.275 392.029 120.053 393.026 116.493C394.764 110.6 394.339 109.371 389.613 105.301C384.229 100.744 384.23 100.745 391.521 99.3459C397.477 98.2649 399.299 96.6963 401.715 90.8253C404.598 83.6189 404.598 83.6188 406.76 89.1719C407.926 92.2241 408.922 95.4455 408.922 96.2722C408.922 97.1836 412.546 98.4339 417.018 99.1758C425.051 100.511 425.052 100.512 419.838 104.645C415.132 108.29 414.708 109.604 415.874 116.641C417.273 124.589 417.273 124.589 410.575 120.541C404.026 116.493 403.856 116.408 399.066 120.117C394.679 123.529 391.203 125.013 391.203 123.529ZM540.227 116.641C541.308 109.858 540.799 108.375 536.327 104.814C529.46 99.4306 529.799 98.3491 538.659 98.3491C545.526 98.3491 546.437 97.777 548.917 90.9733L551.651 83.6189L554.47 90.9733C557.119 97.8618 557.946 98.3497 565.471 98.4345L573.588 98.5192L567.209 103.988C561.338 109.032 560.998 109.943 562.736 116.238C563.817 119.969 564.729 123.36 564.729 123.678C564.729 124.102 561.825 122.618 558.349 120.371C551.99 116.408 551.99 116.408 545.441 120.371C538.976 124.441 538.976 124.441 540.227 116.641Z" fill="#DBA651"/>
</svg>
