<svg width="959" height="615" viewBox="0 0 959 615" fill="none" xmlns="http://www.w3.org/2000/svg">
<path fill-rule="evenodd" clip-rule="evenodd" d="M460.485 613.559C460.485 612.649 454.284 612.141 446.665 612.48C435.997 613.052 433.034 612.565 433.606 610.575C433.944 609.094 433.86 608.586 433.352 609.432C432.949 610.258 428.568 610.914 423.595 610.914C410.62 610.914 369.857 606.448 369.857 605.03C369.857 604.374 366.979 604.141 363.508 604.543C357.454 605.199 270.742 594.384 262.889 591.887C259.503 590.913 259.503 590.659 263.376 587.929C267.673 584.944 268.837 581.304 265.535 581.304C264.456 581.304 263.545 582.638 263.545 584.288C263.545 585.939 262.635 587.273 261.471 587.273C260.392 587.273 258.995 585.939 258.339 584.288C257.09 581.071 250.656 580.331 248.836 583.209C248.243 584.204 249.746 586.447 252.137 588.267C256.519 591.315 256.434 591.4 248.751 590.151C244.455 589.495 239.566 588.416 237.915 587.844C236.264 587.357 230.972 586.511 226.083 586.109C204.77 584.373 165.234 576.69 155.731 572.457C133.741 562.552 118.777 542.297 112.914 514.338C109.189 496.729 109.105 497.322 114.057 496.073C116.386 495.417 117.613 493.999 116.873 492.856C116.132 491.692 114.65 491.269 113.571 491.946C112.491 492.602 111.179 491.353 110.586 489.131C110.015 486.972 106.946 484.094 103.814 482.76C98.6918 480.686 98.1839 479.713 99.2633 473.998C100.004 469.956 99.602 467.056 98.0358 466.146C94.7129 464.072 92.067 469.215 94.3951 473.427C95.3899 475.395 95.7921 476.982 95.136 476.982C90.4162 476.982 46.9436 450.103 46.9436 447.203C46.9436 446.293 45.6948 445.468 44.298 445.468C42.7952 445.468 37.2712 441.256 31.9799 436.134C7.49212 412.408 -1.84182 373.973 0.295841 305.673C0.973119 285.672 2.87794 262.603 4.44415 254.412C8.16918 236.231 15.5983 213.077 17.7572 213.077C18.6673 213.077 19.3232 211.511 19.3232 209.521C19.3232 205.14 30.9852 185.541 39.3242 175.954C51.4729 161.985 72.9765 144.63 92.9774 132.544C113.232 120.311 113.232 120.311 115.73 106.681C117.465 96.7545 119.031 92.9448 121.169 92.9448C123.497 92.9448 123.899 91.5479 123.074 87.2515C120.598 74.8488 138.122 51.525 157.297 41.768C170.293 35.1645 204.77 28.0532 205.998 31.7782C206.591 33.4291 207.416 33.3444 209.067 31.2702C213.85 25.4075 389.456 1.5124 394.091 6.14752C395.403 7.45975 397.816 7.2058 401.202 5.47028C408.483 1.82991 452.548 -0.392422 452.633 2.82465C452.633 4.64483 453.12 4.56013 454.369 2.5918C455.765 0.348315 462.453 -0.138497 486.857 0.0308228C518.773 0.178977 524.552 1.1735 518.773 5.38531C516.043 7.37482 515.958 8.03095 518.265 8.94104C520.001 9.53366 521.482 8.53909 522.075 6.23212C522.9 3.1632 524.805 2.50707 532.657 2.67639C559.283 3.16318 666.759 15.058 726.105 23.9896C739.756 26.0637 754.89 28.3707 759.757 29.048C809.199 36.1594 826.152 44.0962 841.369 67.3987C845.666 73.9387 851.782 90.6379 852.185 96.9239C854.513 129.666 852.947 126.766 874.683 138.746C885.668 144.862 894.451 150.831 894.112 152.143C893.858 153.392 894.769 153.963 896.102 153.477C899.573 152.312 919.489 166.451 929.902 177.689C945.776 194.558 953.057 215.384 956.866 254.92C959.512 282.519 958.263 329.738 954.792 330.881C953.311 331.389 953.226 332.383 954.623 334.034C956.782 336.68 951.66 367.009 946.03 385.042C942.474 396.534 932.971 415.541 925.204 426.8C918.262 436.875 888.482 465.151 884.757 465.151C883.276 465.151 881.371 466.4 880.546 467.966C879.234 470.188 863.021 480.623 848.566 488.56C846.894 489.385 844.587 495.989 843.19 503.439C840.121 520.053 834.999 536.096 831.443 540.138C829.961 541.874 828.713 544.181 828.713 545.26C828.713 548.647 810.278 564.944 801.177 569.579C796.563 571.886 782.912 575.928 770.848 578.426C748.773 583.124 657.658 597.855 637.742 599.993C625.085 601.326 618.714 602.067 597.38 604.797C575.559 607.527 557.124 609.178 536.298 610.088C526.541 610.49 517.525 611.231 516.191 611.739C514.794 612.311 514.308 611.485 514.964 609.75C516.191 606.533 509.757 608.099 507.429 611.57C505.778 614.046 460.485 615.951 460.485 613.559ZM491.979 608.924C491.979 607.845 490.899 607.189 489.502 607.443C488.169 607.676 487.343 606.702 487.682 605.115C488.169 602.808 487.767 602.808 485.206 604.882C480.74 608.586 481.481 610.914 487.089 610.914C489.735 610.914 491.979 610.004 491.979 608.924ZM537.293 601.813C537.293 601.411 535.959 601.072 534.308 601.072C532.742 601.072 531.409 601.898 531.409 602.977C531.409 603.972 532.742 604.374 534.308 603.718C535.959 603.062 537.293 602.236 537.293 601.813ZM575.644 602.977C576.384 601.898 574.734 601.072 572.003 601.072C569.273 601.072 566.458 601.898 565.802 602.977C565.146 604.141 566.797 604.967 569.527 604.967C572.257 604.967 574.987 604.141 575.728 602.977H575.644ZM511.069 600.331C510.244 598.257 514.371 597.432 530.097 596.437C589.951 592.797 748.857 570.066 787.378 559.652C810.193 553.536 823.908 533.027 829.136 497.47C830.956 484.919 832.184 481.025 834.173 481.85C835.655 482.358 836.311 482.019 835.74 481.109C835.168 480.115 841.031 475.734 848.883 471.437C907.51 439.266 935.109 397.36 942.072 330.225C942.813 322.711 944.464 315.833 945.691 315.007C947.194 313.949 947.279 313.039 945.776 312.044C943.3 310.309 943.13 279.619 945.607 277.82C946.517 277.143 946.453 274.921 945.374 272.931C944.294 270.857 942.813 262.603 942.072 254.412C937.606 207.532 928.167 190.177 895.594 168.673C884.927 161.646 869.561 152.312 861.37 147.931C847.655 140.481 846.576 139.486 847.571 134.618C848.629 129.412 848.629 129.412 845.92 134.11C844.333 136.693 842.597 138.005 842.025 137.01C840.29 134.195 839.718 113.623 841.369 111.062C842.11 109.813 841.941 108.734 840.946 108.734C839.951 108.734 838.639 104.691 837.898 99.6541C834.343 73.6001 815.231 53.3453 790.595 49.3028C770.763 46.0646 691.564 34.1699 673.701 31.6936C663.69 30.3602 655.499 28.7093 655.499 28.1379C655.499 27.4606 650.377 26.9737 644.176 26.889C637.89 26.8044 614.672 24.8149 592.427 22.5079C506.117 13.5763 478.412 12.8355 410.303 18.0421C353.073 22.4233 259.821 34.9104 195.098 46.8051C166.652 52.0963 164.261 52.943 152.429 62.2767C148.133 65.5785 144.154 68.0547 143.583 67.7372C142.926 67.3985 141.847 69.6422 141.106 72.6899C140.365 75.7589 137.953 83.2724 135.646 89.5583C133.402 95.7597 130.609 107.506 129.275 115.676C126.968 130.491 126.968 130.491 114.057 137.603C106.946 141.561 95.7921 148.334 89.3367 152.715C81.2517 158.175 75.7914 160.567 71.8124 160.249C66.9445 159.91 66.4364 160.249 68.5106 162.725C71.5795 166.451 69.2513 170.408 65.0395 168.842C63.304 168.186 62.4786 168.186 63.2193 168.927C63.9601 169.668 59.833 175.552 53.9703 181.986C33.6308 204.484 22.3708 232.591 15.9367 277.059C13.3757 294.837 14.6882 352.638 18.1592 372.555C22.0536 394.799 31.4718 415.54 42.3929 426.038C52.806 435.965 78.6063 452.748 102.819 465.236L123.074 475.734L125.317 495.586C129.191 530.635 141.276 550.975 162.673 558.827C167.795 560.732 173.023 563.547 174.251 565.028C175.669 566.679 176.811 566.933 177.235 565.684C177.637 564.457 194.929 566.51 225.173 571.484C314.722 586.193 436.505 599.506 482.624 599.506C493.206 599.506 501.905 600.247 501.905 601.241C501.905 602.236 504.212 602.977 507.027 602.977C510.498 602.977 511.81 602.152 511.154 600.331H511.069ZM475.279 594.045C474.2 593.707 462.877 592.881 450.136 592.141C431.384 591.061 427.002 590.236 427.002 587.844C427.002 585.77 428.315 585.199 431.468 585.939C442.622 588.67 490.984 589.495 515.62 587.421C594.332 580.563 670.716 570.404 745.873 556.668C787.462 548.985 787.547 548.985 805.241 522.614C815.569 507.227 820.437 493.597 821.199 478.464C821.601 469.045 821.601 469.045 836.48 460.939C867.402 443.986 893.372 423.901 903.7 408.768C912.293 396.28 917.182 374.459 919.828 336.68C922.643 295.916 926.347 292.107 924.611 331.706C923.214 364.618 918.918 389.169 912.208 403.392C904.187 420.26 872.207 447.373 842.766 462.252C827.401 470.104 826.638 471.014 824.818 485.744C822.596 503.354 812.67 523.524 798.129 539.567C792.013 546.34 785.557 552.626 783.737 553.62C771.419 560.139 590.438 586.68 534.308 590.236C525.715 590.744 513.228 591.654 506.773 592.225C483.216 594.299 477.184 594.617 475.279 594.045ZM395.488 587.844C355.571 583.463 285.367 573.791 248.836 567.589C178.717 555.61 177.722 555.356 168.642 546.594C149.361 527.99 136.958 504.666 134.566 482.358C133.339 470.95 133.339 470.95 121.994 465.236C91.2416 449.785 55.2825 420.514 47.3456 404.725C45.2715 400.577 42.1391 390.989 40.3189 383.476C37.0171 369.084 32.7205 325.674 34.3714 322.944C37.1017 318.563 39.07 322.627 39.07 332.701C39.1547 348.998 44.2133 383.708 48.1711 395.201C54.3724 413.487 85.125 440.113 124.238 461.193C139.54 469.448 139.54 469.448 139.54 478.803C139.54 490.528 144.239 506.656 150.779 517.153C159.118 530.551 173.171 546.086 179.711 548.985C184.918 551.377 217.914 558.404 234.444 560.732C237.428 561.134 248.074 562.785 258.085 564.52C290.256 569.896 342.745 577.008 384.334 581.558C406.578 584.034 424.357 586.765 423.764 587.675C422.854 589.156 408.885 589.326 395.488 587.844ZM437.818 579.166C375.974 573.96 307.124 564.774 235.269 552.372L182.441 543.207L171.435 530.297C156.387 512.518 148.959 495.988 147.794 477.892C146.884 463.585 146.884 463.585 135.815 457.955C116.639 448.283 85.2096 426.546 73.971 415.138C54.457 395.286 50.9861 381.486 49.5046 316.658C47.9172 251.512 52.2983 223.173 66.6904 203.891C75.9607 191.658 101.993 171.742 126.799 158.006C145.487 147.677 147.308 145.54 147.392 133.454C147.392 124.205 153.424 105.178 157.975 100.141C160.282 97.5799 162.441 94.2782 162.758 92.8602C163.499 89.6431 173.023 77.6636 179.224 72.0337C194.336 58.2977 446.008 27.6299 500.741 32.8365C521.736 34.826 515.874 38.8685 494.286 37.2177C453.205 34.1699 330.024 46.9746 222.21 65.6632C185.743 71.9492 185.743 71.9491 176.579 81.7061C160.62 98.6592 151.35 120.967 151.266 142.809C151.181 151.064 151.181 151.064 137.127 157.921C100.766 175.784 68.0239 203.743 61.9072 222.262C54.8804 243.66 53.3777 257.565 53.0603 304.34C52.8909 339.325 56.3617 372.152 62.0551 389.338C68.0236 407.371 101.168 435.393 138.037 453.574C151.35 460.114 151.35 460.114 151.35 469.046C151.435 489.957 159.858 510.296 176.642 529.895C185.002 539.567 181.87 538.741 248.01 549.895C301.748 558.996 320.014 561.642 362.005 566.51C443.934 575.928 475.364 577.833 507.027 575.441C570.098 570.637 652.451 560.309 718.422 548.901C733.068 546.34 751.249 543.207 758.847 541.874C771.589 539.736 773.324 538.742 782.425 529.387C797.219 514.254 804.902 498.232 807.548 477.152C809.791 459.691 809.791 459.69 822.681 453.404C860.545 434.885 897.668 402.482 897.668 388.089C897.668 384.47 901.054 381.317 902.959 383.222C905.859 386.037 896.102 404.048 886.006 414.631C874.768 426.462 847.147 445.806 825.326 457.299C813.262 463.585 813.008 463.924 812.924 471.86C812.924 482.189 808.945 497.152 803.167 508.476C796.881 520.794 781.832 539.884 776.795 542.043C772.16 543.948 741.831 549.896 711.565 554.7C700.728 556.435 687.013 558.742 681.045 559.737C651.118 565.028 575.728 574.193 527.451 578.426C492.317 581.558 468.655 581.727 437.818 579.166ZM466.432 566.108C466.517 565.282 467.829 562.383 469.332 559.652C470.898 557.007 472.211 554.107 472.211 553.282C472.38 550.467 457.839 551.8 454.432 554.848C451.299 557.663 451.13 557.261 451.13 547.821C451.13 538.488 451.299 538.001 454.432 540.879C457.585 543.694 472.295 545.345 472.295 542.869C472.295 542.297 470.898 539.059 469.248 535.757C464.443 526.572 467.597 526.572 476.846 535.673C484.296 542.953 486.349 543.948 494.286 543.948C502.815 543.948 509.418 547.504 506.434 550.467C505.693 551.229 500.487 551.8 494.878 551.8C485.354 551.8 484.042 552.372 477.417 559.652C470.898 566.933 466.263 569.664 466.432 566.108ZM206.421 450.357C206.421 446.462 245.513 446.06 249.661 449.849C251.714 451.838 252.391 451.838 253.132 449.849C253.873 447.965 281.239 447.457 380.863 447.457C492.317 447.457 507.768 447.796 507.768 450.357C507.768 453.002 489.672 453.341 357.137 453.341C224.517 453.341 206.421 453.002 206.421 450.357ZM510.985 452.008C507.429 448.452 511.069 447.288 524.806 447.881C534.711 448.198 540.171 449.278 540.764 450.844C541.589 453.489 513.63 454.569 510.985 452.008ZM546.457 452.008C543.558 449.108 545.547 447.457 552.087 447.457C556.87 447.457 558.944 448.283 558.944 450.357C558.944 453.404 549.103 454.653 546.457 452.008ZM560.934 451.436C560.934 447.711 570.268 447.288 649.382 447.881C710.909 448.283 729.174 448.939 729.746 450.844C730.423 452.833 712.729 453.341 645.763 453.341C591.602 453.341 560.934 452.664 560.934 451.436ZM734.211 450.103C734.211 448.198 736.857 447.457 743.058 447.457C749.514 447.457 751.905 448.198 751.905 450.272C751.905 452.431 749.598 453.172 743.058 453.002C736.942 452.918 734.211 452.008 734.211 450.103ZM294.552 432.578C291.906 429.763 293.049 423.901 297.113 419.774C300.838 416.049 303.314 415.795 327.125 416.133C353.158 416.451 353.158 416.451 362.682 408.027C372.016 399.667 372.185 399.349 370.852 390.735C370.196 385.952 369.116 380.491 368.545 378.756C367.888 377.02 368.947 377.507 370.767 380.005C372.587 382.396 375.317 384.47 376.884 384.47C381.349 384.47 380.778 399.582 376.312 401C374.407 401.656 370.28 405.466 367.127 409.509C361.433 416.959 361.433 416.959 369.539 409.191C378.217 400.916 380.947 400.662 378.132 408.281C377.138 410.842 375.741 416.218 375.063 420.176C373.751 427.456 373.751 427.456 388.546 428.112C399.043 428.536 403.34 428.028 403.34 426.377C403.34 425.128 402.515 423.477 401.372 422.821C400.292 422.165 399.467 422.567 399.467 423.731C399.467 424.98 394.662 425.636 387.149 425.467C374.831 425.128 374.831 425.128 384.672 423.816C394.493 422.483 394.493 422.482 385.9 422.165C377.561 421.826 377.391 421.657 378.619 416.451C379.296 413.488 380.355 404.387 380.863 396.196C382.513 372.301 383.424 368.681 387.636 368.681C391.847 368.681 392.757 372.385 394.26 396.619C394.916 407.117 394.493 412.07 392.842 412.747C391.615 413.234 392.101 413.72 393.921 413.805C395.657 413.89 397.562 415.541 398.133 417.445C398.557 419.266 398.556 416.704 397.964 411.583L396.99 402.313L415.425 401.656L433.944 401L414.684 400.577C396.99 400.175 395.488 399.921 395.488 396.196C395.488 392.556 396.821 392.323 414.092 392.323C431.616 392.323 432.696 392.556 434.029 396.704C434.77 399.18 437.162 403.138 439.32 405.551C442.707 409.191 443.109 411.583 442.114 420.091C441.458 425.636 440.632 430.504 440.378 430.758C438.897 432.176 295.864 433.912 294.552 432.578ZM389.625 404.133C389.625 403.074 388.715 402.164 387.636 402.164C386.556 402.164 385.646 403.074 385.646 404.133C385.646 405.212 386.556 406.122 387.636 406.122C388.715 406.122 389.625 405.212 389.625 404.133ZM479.661 432.239C436.992 431.499 428.569 427.943 467.83 427.287L492.973 426.885L468.824 426.292C455.596 425.975 444.759 424.895 444.759 423.901C444.759 422.906 459.152 421.996 477.015 421.911C504.043 421.827 509.503 422.25 510.413 424.811C511.069 426.377 512.636 427.774 513.969 427.774C515.874 427.774 515.874 427.202 514.054 425.382C510.328 421.742 511.154 409.191 515.281 405.381C518.181 402.82 523.155 402.164 539.938 402.164C560.934 402.164 560.934 402.164 560.934 396.196C560.934 390.333 560.934 390.333 541.251 390.333C530.414 390.333 521.482 390.989 521.482 391.815C521.482 392.64 519.514 396.365 517.101 400.175C512.635 407.032 512.636 407.032 511.662 393.381C510.752 380.576 510.498 380.005 507.344 383.052C502.138 388.344 495.936 387.349 495.936 381.317C495.936 378.502 495.111 376.851 493.968 377.507C492.889 378.184 491.979 377.676 491.979 376.364C491.979 375.031 491.407 374.459 490.73 375.2C488.677 377.274 478.327 362.311 478.095 356.85C477.841 352.554 477.671 352.723 476.359 358.247C474.941 364.046 464.528 378.841 464.358 375.2C464.358 374.29 463.279 375.285 462.136 377.444C460.802 379.666 460.062 389.169 460.231 400.662C460.633 419.922 460.633 420.176 456.104 419.519C452.04 418.948 451.554 417.784 451.046 405.381C450.728 396.788 451.384 390.735 452.95 388.682C454.284 386.862 454.686 386.037 453.861 386.693C452.95 387.433 450.389 386.121 447.998 383.793C443.786 379.497 443.786 379.497 442.791 393.063C441.797 406.609 441.797 406.609 437.585 398.926C430.219 385.783 428.823 377.592 433.119 373.888C435.172 372.153 436.823 369.338 436.823 367.687C436.823 366.099 437.733 364.702 438.812 364.702C439.892 364.702 440.802 362.967 440.802 360.745C440.802 358.501 442.114 356.194 443.786 355.602C445.352 354.945 446.665 352.3 446.665 349.739C446.665 344.934 446.665 344.934 477.671 345.527C506.942 346.014 508.762 346.268 509.419 349.993C509.842 352.131 511.408 354.607 512.89 355.453C514.371 356.342 515.62 358.332 515.62 359.898C515.62 363.051 518.689 369.168 523.472 375.539C526.118 379.01 528.763 379.497 544.637 379.497C562.902 379.497 562.902 379.497 562.902 374.121C562.902 370.078 563.897 368.681 566.627 368.681C570.924 368.681 572.511 373.38 572.998 387.349C573.252 394.63 573.569 395.54 574.162 390.82C574.564 387.264 575.982 384.47 577.125 384.47C578.374 384.47 580.766 383.052 582.586 381.486C585.655 378.756 585.803 379.327 584.977 389C584.152 399.18 584.321 399.667 592.914 408.027C601.676 416.535 601.677 416.535 628.069 416.133C652.621 415.71 654.673 416.049 657.912 419.774C659.816 421.996 661.383 425.636 661.383 427.774C661.383 431.499 659.817 431.753 634.757 432.092C578.628 433.002 584.321 433.975 581.274 423.329C578.205 412.895 576.13 410.757 577.95 419.837C579.115 425.805 579.114 425.806 567.05 425.806C554.965 425.806 554.966 425.805 555.96 420.345C556.87 415.879 556.701 415.625 555.135 418.863C554.14 421.086 553.23 424.811 553.167 427.287C553.082 431.33 552.172 431.668 540.51 431.668C533.568 431.668 525.377 431.922 522.245 432.324C519.176 432.663 500 432.578 479.661 432.239ZM577.125 406.863C575.898 400.492 581.019 400.577 584.49 406.948C585.887 409.593 588.3 412.239 589.782 412.81C591.263 413.403 590.036 410.842 587.052 407.032C580.512 398.841 574.734 397.931 574.734 405.127C574.734 409.593 573.993 410.017 565.802 410.017C560.934 410.017 556.955 410.673 556.955 411.498C556.955 412.323 561.675 412.747 567.453 412.323C577.464 411.752 577.951 411.413 577.125 406.948V406.863ZM568.786 391.328L567.622 377.507L566.712 390.672C566.225 397.847 566.458 403.307 567.283 402.82C568.13 402.312 568.786 402.99 568.786 404.302C568.786 405.635 569.104 406.376 569.442 405.953C569.781 405.466 569.442 398.926 568.786 391.328ZM554.965 429.679C554.965 428.621 560.595 427.774 567.791 427.774C575.072 427.774 580.596 428.621 580.596 429.679C580.596 430.843 575.072 431.668 567.791 431.668C560.595 431.668 554.965 430.843 554.965 429.679ZM444.759 403.138C444.759 393.317 445.522 386.354 446.665 386.354C447.829 386.354 448.654 393.317 448.654 403.138C448.654 412.979 447.829 419.837 446.665 419.837C445.522 419.837 444.759 412.979 444.759 403.138ZM462.623 400.831C462.877 390.333 463.702 380.745 464.612 379.581C465.522 378.502 468.909 374.459 472.126 370.65C478.01 363.708 478.01 363.708 481.481 368.681C483.386 371.391 486.941 375.623 489.418 378.015C493.206 381.909 493.375 382.481 490.328 382.481C488.423 382.481 484.782 379.75 482.306 376.364L477.84 370.248L472.295 376.851C469.248 380.491 467.089 383.793 467.512 384.216C467.914 384.703 470.242 382.566 472.634 379.497C477.015 373.973 477.015 373.973 482.391 380.407C485.269 383.963 488.677 386.206 489.82 385.529C491.323 384.619 491.979 389.762 491.979 402.08C491.979 416.535 491.471 419.837 488.994 419.837C486.687 419.837 486.116 417.128 486.116 407.201C486.116 391.158 484.952 388.344 478.412 388.344C470.242 388.344 468.337 391.73 468.337 406.461C468.337 417.276 467.745 419.837 465.269 419.837C462.708 419.837 462.305 416.959 462.623 400.831ZM471.554 416.789C469.988 412.747 469.988 404.302 471.554 396.45C472.465 391.73 473.798 390.333 477.269 390.333C482.878 390.333 484.126 393.55 484.126 408.196C484.126 419.774 484.042 419.837 478.412 419.837C475.026 419.837 472.211 418.609 471.47 416.789H471.554ZM494.37 404.641C494.878 390.503 495.28 389.338 499.344 388.682C503.641 388.089 503.789 388.597 503.789 403.963C503.789 419.689 503.725 419.837 498.751 419.837C493.799 419.837 493.799 419.774 494.37 404.641ZM505.778 404.217C505.778 395.624 506.688 388.026 507.768 387.349C509.016 386.608 509.757 392.323 509.757 402.99C509.757 412.895 508.932 419.837 507.768 419.837C506.604 419.837 505.778 413.318 505.778 404.217ZM300.986 412.07C300.986 411.075 301.896 409.678 302.976 409.022C304.055 408.365 304.542 407.032 303.97 406.207C303.484 405.297 304.309 403.477 305.875 402.164C307.526 400.831 308.352 398.926 307.695 398.016C307.124 397.021 307.357 395.137 308.182 393.804C309.008 392.407 309.77 389.995 309.77 388.344C309.833 386.037 312.987 385.296 323.887 384.873C337.877 384.301 337.877 384.301 339.104 390.418C339.76 393.889 339.845 397.444 339.274 398.439C338.617 399.349 339.02 400.175 340.014 400.175C341.517 400.175 346.216 410.101 346.216 413.233C346.216 413.657 336.056 413.974 323.569 413.974C310.743 413.974 300.986 413.149 300.986 412.07ZM608.132 412.323C608.132 411.413 608.872 410.017 609.613 409.191C610.46 408.366 611.201 407.117 611.285 406.461C611.434 405.72 612.111 403.307 612.936 401.17C617.402 389.423 617.635 388.344 619.307 369.168L620.534 354.861H631.54C642.61 354.861 642.609 354.861 642.779 362.311C642.948 373.465 645.509 390.502 647.731 394.545C649.15 397.191 648.98 398.185 647.244 398.185C645.594 398.185 645.763 399.011 647.731 400.662C649.382 401.995 651.795 405.551 653.023 408.514C655.351 413.974 655.351 413.974 631.688 413.974C618.799 413.974 608.132 413.234 608.132 412.323ZM623.434 406.694C621.529 406.207 618.46 406.207 616.577 406.694C614.672 407.202 616.153 407.604 619.963 407.604C623.751 407.604 625.339 407.202 623.434 406.694ZM637.234 383.052C634.271 382.566 629.381 382.566 626.397 383.052C623.434 383.476 625.825 383.793 631.773 383.793C637.741 383.793 640.218 383.476 637.234 383.052ZM631.942 369.74C632.937 370.417 633.763 369.909 633.763 368.745C633.763 367.686 632.45 366.692 630.778 366.692C629.212 366.692 627.9 368.258 628.069 370.163C628.133 372.216 628.556 372.639 629.212 371.158C629.72 369.74 630.948 369.168 631.942 369.74ZM632.281 362.057C633.508 362.882 633.763 362.48 632.937 361.062C631.286 358.332 627.815 359.983 627.985 363.39C628.133 365.041 628.471 365.041 629.127 363.221C629.72 361.888 631.117 361.401 632.281 362.057ZM521.482 396.196C523.387 392.725 525.631 392.323 541.251 392.323C557.611 392.323 558.944 392.556 558.944 396.196C558.944 399.921 557.611 400.175 539.176 400.175C520.001 400.175 519.514 400.09 521.482 396.196ZM395.488 384.47C395.488 378.502 395.487 378.502 411.277 378.502C426.409 378.502 427.151 378.756 428.971 383.56C430.05 386.354 430.96 389 430.96 389.508C430.96 389.91 422.939 390.333 413.182 390.333C395.488 390.333 395.488 390.333 395.488 384.47ZM311.653 377.02C312.077 374.036 312.415 367.835 312.564 363.306C312.818 354.861 312.817 354.861 323.654 354.861C334.469 354.861 334.469 354.861 334.469 362.311C334.469 366.353 335.316 372.555 336.289 376.026C338.109 382.481 338.109 382.481 324.564 382.481C311.082 382.481 311.082 382.481 311.653 377.02ZM325.051 373.634C325.707 377.444 326.046 376.026 325.876 369.655C325.643 360.66 322.913 357.019 320.924 362.882C320.5 364.279 321.093 364.702 322.405 363.877C323.569 363.136 324.649 363.454 324.649 364.618C324.649 365.782 323.738 366.692 322.659 366.692C321.58 366.692 320.754 369.57 320.924 373.126C321.177 379.497 321.178 379.497 322.574 373.634C323.971 367.687 323.971 367.687 325.051 373.634ZM901.711 369.824C902.621 365.126 904.356 347.834 905.605 331.643C909.33 283.344 903.615 230.517 892.694 211.828C883.784 196.632 847.973 169.414 819.294 156.122C809.537 151.572 809.029 151.064 809.029 143.719C809.029 121.052 797.706 95.421 779.61 77.325C770.848 68.6473 770.255 67.3987 774.404 67.3987C775.885 67.3987 781.176 71.8643 786.129 77.4095C803.167 96.331 812.924 118.491 812.924 138.746C813.008 148.101 813.008 148.101 825.242 154.217C859.635 171.488 892.123 198.029 899.319 214.728C901.478 219.765 904.864 231.935 906.769 241.692C913.627 276 910.473 378.502 902.621 378.502C900.716 378.502 900.568 376.364 901.711 369.824ZM385.159 365.359C386.493 364.872 388.715 364.872 390.027 365.359C391.445 365.951 390.281 366.353 387.636 366.353C384.905 366.353 383.847 365.951 385.159 365.359ZM564.32 365.359C565.717 364.872 567.961 364.872 569.273 365.359C570.606 365.951 569.527 366.353 566.797 366.353C564.066 366.353 562.987 365.951 564.32 365.359ZM385.328 352.871C385.731 347.516 386.725 343.051 387.636 343.051C388.461 343.051 389.54 347.516 389.879 352.871C390.451 360.66 389.964 362.798 387.636 362.798C385.329 362.798 384.82 360.66 385.328 352.871ZM565.061 356.342C565.146 352.871 565.971 347.749 566.797 345.019C568.278 340.469 568.363 340.638 568.617 347.008C568.701 350.818 569.357 355.855 570.014 358.332C570.924 361.57 570.352 362.798 568.045 362.798C565.717 362.798 564.892 361.062 565.061 356.342ZM313.728 350.988C314.468 349.908 319.357 348.998 324.733 348.998C330.088 348.998 334.469 349.908 334.469 350.988C334.469 352.046 329.517 352.871 323.485 352.871C316.712 352.871 312.987 352.13 313.728 350.988ZM621.953 350.988C621.953 349.908 626.397 348.998 631.773 348.998C637.233 348.998 641.615 349.908 641.615 350.988C641.615 352.046 637.233 352.871 631.773 352.871C626.397 352.871 621.953 352.046 621.953 350.988ZM723.142 344.871C727.438 330.14 727.1 328.32 719.163 322.288L711.565 316.51L722.232 315.515C732.814 314.52 732.984 314.436 735.777 306.012C738.846 296.573 740.413 296.996 743.968 308.15C746.297 315.346 746.529 315.515 756.032 315.515C767.461 315.515 767.948 316.827 758.678 323.367C751.503 328.489 751.334 329.399 755.122 344.194C756.456 349.824 756.456 349.823 748.032 343.537L739.587 337.336L730.656 343.453C721.893 349.485 721.809 349.569 723.142 344.871ZM200.537 344.194C200.537 342.627 201.448 338.902 202.612 335.855C204.601 330.733 204.093 329.823 196.241 322.944L187.733 315.6H199.056C205.511 315.515 210.379 314.605 210.379 313.441C210.379 312.362 211.797 308.15 213.533 304.107L216.581 296.826L219.967 305.673C223.29 314.52 223.29 314.52 234.02 315.176L244.857 315.769L236.433 323.029C228.158 330.225 228.073 330.394 230.401 337.675C233.28 347.093 231.798 348.49 224.433 343.284C217.321 338.162 214.676 338.162 208.39 343.051C202.527 347.665 200.537 348.003 200.537 344.194ZM315.378 332.532C315.632 323.113 316.796 316.827 318.68 314.52C320.267 312.615 321.58 309.8 321.58 308.404C321.664 306.922 322.49 305.673 323.654 305.673C324.733 305.673 325.559 306.922 325.643 308.404C325.643 309.8 326.956 312.531 328.437 314.436C332.416 319.24 333.898 343.051 330.257 343.114C328.12 343.114 328.204 343.538 330.511 345.019C332.67 346.437 330.935 346.924 324.225 347.008C314.976 347.008 314.976 347.008 315.294 332.532H315.378ZM623.519 332.701C623.921 324.849 625.487 316.51 627.074 314.097C628.556 311.706 629.805 308.404 629.805 306.753C629.805 305.017 630.715 303.684 631.773 303.684C632.852 303.684 633.763 305.25 633.763 307.24C633.763 309.144 634.842 311.875 636.239 313.187C637.572 314.605 639.138 322.711 639.625 331.389C640.62 347.008 640.62 347.008 631.773 347.008C622.841 347.008 622.841 347.009 623.519 332.701ZM450.961 339.643C451.638 336.595 454.686 336.087 477.502 335.601C501.99 335.114 503.386 335.262 504.381 339.072C505.376 342.966 504.551 343.051 477.84 343.051C452.696 343.051 450.389 342.797 450.961 339.643ZM452.633 331.474C452.633 326.584 458.983 325.272 479.407 325.759C497.926 326.267 500.91 326.754 501.482 329.823C502.053 332.87 499.915 333.209 477.332 333.209C463.702 333.209 452.633 332.468 452.633 331.474ZM457.014 320.891C457.586 319.24 464.041 318.33 477.84 317.907C494.793 317.42 497.926 317.822 497.926 320.383C497.926 322.859 494.455 323.367 477.015 323.367C461.226 323.367 456.422 322.796 457.014 320.891ZM33.7788 286.731C35.6836 238.707 40.5727 215.723 52.3827 198.6C58.584 189.605 78.0135 173.223 80.5744 174.79C81.5692 175.467 82.3949 174.705 82.3949 173.223C82.3949 170.324 106.946 153.54 122.989 145.54C133 140.481 133 140.481 134.249 128.756C136.048 111.464 142.418 96.5852 155.244 79.5475C173.996 54.594 166.97 57.5572 236.835 45.7471C290.404 36.6462 310.828 34.339 307.78 37.5561C306.616 38.8048 288.52 42.4239 267.44 45.6622C246.338 48.9639 217.745 53.6837 203.945 56.2446C179.881 60.6258 178.378 61.1972 170.78 68.5626C152.345 86.4258 141.276 108.332 138.545 132.375C137.381 143.211 137.381 143.212 122.164 151.572C113.825 156.122 102.649 162.323 97.2736 165.286C91.9824 168.355 79.4317 178.768 69.4207 188.525C52.7215 204.801 50.9861 207.299 47.1764 219.617C42.0545 236.316 39.2394 259.872 38.5833 291.704C38.16 310.711 37.4191 316.34 35.2815 317.081C32.9533 317.822 32.7205 313.187 33.7788 286.731ZM459.236 310.054C459.723 307.07 460.802 296.001 461.543 285.503C462.221 274.921 463.618 265.735 464.612 265.164C465.607 264.592 466.432 266.815 466.432 270.116C466.432 276.085 466.433 276.085 477.756 275.916C483.957 275.746 487.513 275.238 485.693 274.751C482.708 274.011 482.222 270.54 481.65 248.867L481.058 223.913L480.655 249.036C480.232 274.18 480.232 274.18 474.285 274.18C468.422 274.18 468.422 274.18 468.422 249.862C468.422 223.744 470.242 218.538 479.237 219.765C485.608 220.675 487.999 228.464 487.999 247.872C488.084 257.798 488.91 266.243 489.905 266.561C490.984 266.984 492.063 271.026 492.317 275.661C492.55 280.212 493.375 284.022 494.201 284.022C495.026 284.022 495.936 291.112 496.275 299.726C496.931 315.515 496.931 315.515 489.672 315.515C476.93 315.515 471.893 310.308 479.322 304.848C482.052 302.858 481.883 302.541 478.327 302.541C475.025 302.541 474.285 303.769 474.285 309.06C474.285 315.261 474.031 315.515 466.263 315.515C458.58 315.515 458.242 315.261 459.236 310.054ZM480.571 295.43C478.75 293.609 477.671 293.694 475.766 295.663C474.116 297.483 474.031 297.906 475.597 297.081C476.93 296.34 478.581 296.657 479.237 297.906C479.978 299.049 481.058 299.472 481.735 298.901C482.391 298.223 481.883 296.657 480.571 295.43ZM482.624 282.604C479.089 282.117 473.375 282.117 469.819 282.604C466.348 283.027 469.163 283.344 476.274 283.344C483.301 283.344 486.179 283.027 482.624 282.604ZM921.966 295.345C921.796 292.848 920.738 278.963 919.489 264.423C917.5 239.872 917.669 234.411 920.399 237.141C923.616 240.359 926.77 299.726 923.701 299.726C922.96 299.726 922.135 297.737 921.966 295.345ZM913.457 223.003C908.335 201.754 883.869 177.943 842.936 154.45C821.347 142.047 821.347 142.047 820.374 128.248C819.125 110.554 809.707 90.8072 794.404 73.9388C781.832 60.1181 785.134 61.1973 729.746 51.7789C678.738 43.0166 637.974 37.5562 583.157 32.0956C515.45 25.3229 487.09 23.6721 459.152 24.8997C431.299 26.0637 366.979 31.9263 331.168 36.4768C315.802 38.4663 311.42 38.5508 312.161 36.7307C313.389 33.5136 356.396 27.9683 418.155 22.9946C447.998 20.6029 511.81 20.6878 538.266 23.1641C625.423 31.2703 659.393 35.4821 728.264 46.89C782.425 55.9063 782.425 55.906 791.928 65.0916C810.934 83.5262 823.019 106.427 825.983 129.899C827.316 140.248 827.316 140.248 844.84 150.323C890.133 176.208 914.769 201.098 918.494 224.739C920.399 236.401 916.272 234.983 913.457 223.003ZM475.279 215.151C473.946 212.992 476.105 203.235 477.925 203.235C478.666 203.235 479.407 206.389 479.661 210.177C480.147 216.633 477.84 219.278 475.279 215.151ZM578.628 197.372C575.813 190.515 572.829 189.668 571.347 195.383C570.776 197.542 568.955 199.362 567.283 199.362C564.892 199.362 564.574 197.542 565.632 189.435C567.368 176.61 568.532 173.731 572.172 173.731C574.331 173.731 574.903 175.128 574.247 178.599C573.083 184.631 573.485 184.631 580.766 179.509C588.533 173.964 592.914 176.779 585.655 182.642C580.363 186.875 580.279 187.108 583.327 193.076C587.221 200.505 587.39 203.235 583.834 203.235C582.268 203.235 579.94 200.589 578.628 197.372ZM380.947 195.87C376.884 175.382 376.799 176.038 384.249 174.641C393.837 172.821 398.303 174.049 399.043 178.684C399.382 180.843 400.61 184.462 401.774 186.875C404.589 192.568 402.684 196.949 396.398 199.362C386.979 202.897 382.09 201.838 380.947 195.87ZM395.657 193.394C396.652 193.394 397.477 192.483 397.477 191.425C397.477 189.012 388.292 188.779 386.81 191.171C385.244 193.647 387.974 195.637 391.107 194.473C392.609 193.901 394.662 193.394 395.657 193.394ZM393.519 181.329C393.519 179.086 386.238 179.086 384.82 181.329C384.249 182.239 384.249 183.488 384.82 184.06C386.408 185.626 393.519 183.404 393.519 181.329ZM411.954 183.552C414.748 173.964 416.906 169.752 419.129 169.752C421.944 169.752 434.855 189.266 434.855 193.563C434.855 196.632 429.479 195.552 428.145 192.251C426.748 188.441 417.161 190.092 414.6 194.557C413.774 196.124 411.869 197.372 410.451 197.372C408.483 197.372 408.801 194.134 411.954 183.552ZM422.029 183.721C422.621 182.726 422.282 181.414 421.372 180.758C420.378 180.165 419.066 180.991 418.388 182.578C417.161 185.795 420.124 186.705 422.029 183.721ZM536.213 192.483C530.329 186.705 530.012 179.023 535.303 173.731C543.896 165.117 559.601 171.488 559.601 183.552C559.601 196.208 545.378 201.669 536.213 192.483ZM551.833 187.023C553.399 184.546 553.399 182.642 551.833 180.081C546.288 171.319 534.393 178.43 539.346 187.615C541.907 192.399 548.701 192.081 551.833 187.023ZM517.609 189.435C513.143 183.15 509.757 183.234 509.757 189.605C509.757 191.658 508.339 193.394 506.773 193.394C504.381 193.394 503.789 190.578 503.789 179.678C503.789 168.673 504.466 165.858 506.773 165.858C508.762 165.858 509.757 167.848 509.757 172.144C509.757 178.43 509.757 178.43 515.218 173.139C518.266 170.176 522.393 167.848 524.467 167.848C527.684 167.848 527.536 168.504 522.9 173.308C517.694 178.769 517.694 178.769 522.562 186.049C528.277 194.388 528.446 195.383 524.636 195.383C523.07 195.383 519.916 192.737 517.609 189.435ZM440.802 186.79C440.802 183.149 440.23 177.351 439.553 173.964C437.818 165.202 444.357 165.625 452.379 174.79L458.496 181.731V173.795C458.496 168.271 459.321 165.858 461.311 165.858C463.364 165.858 464.274 169.35 464.782 179.678C465.522 196.039 463.279 197.288 453.374 186.049L446.834 178.684V186.049C446.749 191.256 445.839 193.394 443.786 193.394C441.712 193.394 440.802 191.34 440.802 186.79ZM476.676 190.346C471.068 186.367 470.56 173.879 475.936 169.096C479.83 165.54 489.333 164.8 493.883 167.763C497.926 170.26 494.793 172.737 487.597 172.737C476.507 172.737 474.856 185.541 485.777 187.108C490.56 187.87 491.555 184.547 487.089 182.811C481.65 180.758 484.042 177.689 490.984 177.689C497.354 177.689 497.926 178.112 497.926 183.488C497.926 192.907 485.862 196.78 476.676 190.346ZM235.184 189.753C234.698 189.097 229.808 177.033 224.263 162.979C218.739 148.926 213.935 137.18 213.533 136.841C213.194 136.523 209.067 138.005 204.263 140.164C199.543 142.301 194.59 144.122 193.363 144.122C191.288 144.206 187.986 134.872 188.727 130.893C188.812 130.068 201.532 124.438 216.919 118.322C244.857 107.252 244.857 107.252 247.248 112.459C250.973 120.565 250.402 121.729 239.989 126.11L230.147 130.153L235.1 143.296C237.83 150.577 241.47 159.678 243.121 163.636C252.222 184.8 252.222 184.716 243.693 188.102C239.481 189.753 235.692 190.515 235.184 189.753ZM726.359 190.007C723.629 189.52 714.465 186.451 705.935 183.15C692.474 177.943 690.654 176.694 691.479 172.969C692.305 169.011 714.612 110.723 715.946 108.818C716.856 107.591 729.428 112.205 745.45 119.824C757.281 125.433 760.583 128.078 764.879 135.444C780.435 161.985 756.71 195.552 726.359 190.007ZM742.233 171.742C751.08 166.937 754.805 149.159 748.773 140.481C745.704 136.185 728.666 127.338 726.867 129.158C725.618 130.407 712.559 165.54 712.559 167.678C712.559 172.482 735.037 175.551 742.233 171.742ZM281.324 173.139C281.324 172.567 277.26 157.096 272.392 138.661C267.503 120.311 263.545 104.437 263.545 103.273C263.545 102.215 265.683 100.712 268.329 100.141C270.911 99.4847 274.297 98.4054 275.863 97.834C277.938 97.0086 279.588 100.141 282.234 110.152C284.202 117.496 286.023 123.782 286.277 124.121C287.525 125.602 314.722 117.665 314.722 115.761C314.722 114.618 313.389 108.818 311.823 102.871C310.172 96.9237 308.923 91.4632 308.86 90.8918C308.86 88.9869 323.4 85.0927 324.797 86.6589C326.955 89.1352 342.999 155.953 341.75 157.265C341.009 157.921 337.199 158.598 333.157 158.768C325.707 159.001 325.707 159.001 322.913 146.683C320.839 137.92 319.103 134.365 316.86 134.365C313.071 134.365 293.049 139.656 291.737 140.989C291.166 141.476 292.139 146.767 293.896 152.715C298.108 167.022 297.854 169.181 292.309 170.578C289.663 171.234 286.107 172.313 284.456 172.969C282.721 173.646 281.324 173.731 281.324 173.139ZM665.341 170.006C661.298 168.927 658.737 164.546 651.054 146.111C645.911 133.708 641.043 121.792 640.133 119.739C638.884 116.924 637.403 120.226 633.847 133.539C626.651 161.075 627.392 159.91 618.397 157.603L610.693 155.699L619.794 120.396C629.381 83.0184 629.466 82.8703 640.133 86.8281C643.435 88.1615 646.504 93.1142 651.372 105.094C655.097 114.11 659.817 125.518 661.954 130.407L665.764 139.254L669.235 126.428C671.224 119.401 673.87 109.813 675.098 105.178C677.257 96.9239 677.511 96.6696 683.627 97.9819C687.098 98.7438 690.654 99.9716 691.479 100.797C692.707 101.961 682.294 147.423 675.923 168.355C674.78 171.996 673.193 172.228 665.341 170.006ZM352.248 152.228C352.248 150.492 355.401 137.603 359.126 123.528C362.915 109.411 366.979 93.9396 368.206 89.0717C371.275 77.1558 373.095 75.2509 381.434 75.3356C388.63 75.3356 388.63 75.3357 408.546 109.242C429.965 145.688 429.965 145.688 416.081 146.026C410.959 146.111 409.456 145.032 406.578 139C403.192 131.888 403.192 131.888 392.017 133.137C373.582 135.359 372.1 136.015 370.682 143.296C369.285 151.233 367.063 153.222 358.534 154.45C353.666 155.127 352.163 154.619 352.248 152.228ZM392.271 117.009C392.842 116.184 390.789 111.21 387.72 106.004L382.26 96.5851L380.037 105.517C378.788 110.385 377.794 115.358 377.794 116.501C377.794 118.914 390.874 119.401 392.271 117.009ZM591.179 152.63C585.739 151.974 584.744 150.831 582.84 143.296C580.448 133.878 582.67 134.957 557.293 131.317C550.097 130.237 549.674 130.491 546.373 137.666C542.584 146.111 544.383 145.942 492.466 142.957L472.295 141.814V69.3881H490.497L488.994 127.422L507.111 127.994C525.207 128.586 525.207 128.587 525.864 134.365C526.371 139.402 529.102 135.783 546.118 106.766C565.802 73.3461 565.802 73.346 572.744 74.5947C576.554 75.1662 580.279 76.3303 581.104 77.0711C582.586 78.4045 602.269 148.333 602.269 152.143C602.269 153.222 601.19 153.879 599.793 153.709C598.46 153.54 594.586 153.053 591.179 152.63ZM575.559 112.205C574.818 108.649 573.421 103.612 572.342 100.966C570.606 96.183 570.352 96.3312 564.807 105.855L559.029 115.591L565.4 116.84C577.041 119.083 577.041 119.084 575.559 112.205ZM435.849 109.898C435.087 90.9552 434.939 74.0234 435.51 72.3725C436.251 70.4677 439.236 69.3881 443.447 69.3881C450.22 69.3881 450.22 69.3883 451.553 87.569C452.21 97.58 452.95 114.194 453.204 124.523C453.606 143.212 453.607 143.211 445.437 143.804L437.246 144.375L435.849 109.898ZM761.493 70.4677C756.625 65.494 561.675 39.7783 529.271 39.7783C520.742 39.7783 515.451 37.3023 518.181 34.572C520.657 32.1804 634.927 44.6676 692.876 53.7686C752.731 63.1023 768.287 66.171 769.197 68.8801C769.938 71.1236 763.567 72.4361 761.493 70.4677ZM210.887 578.256C212.707 576.436 210.21 571.399 208.242 572.627C207.247 573.219 206.421 575.039 206.421 576.521C206.421 579.484 208.813 580.33 210.887 578.256ZM190.717 575.441C190.717 574.362 189.807 573.452 188.727 573.452C187.648 573.452 186.738 574.362 186.738 575.441C186.738 576.521 187.648 577.431 188.727 577.431C189.807 577.431 190.717 576.521 190.717 575.441ZM953.48 273.185C952.316 270.032 948.845 269.037 948.845 271.852C948.845 273.926 950.983 276.148 953.057 276.148C953.967 276.148 954.136 274.836 953.48 273.185ZM913.372 174.049C913.372 171.488 911.065 169.752 909.161 171.001C907.086 172.229 908.822 175.7 911.552 175.7C912.547 175.7 913.372 174.959 913.372 174.049ZM139.54 75.4202C139.54 74.3408 138.63 72.944 137.55 72.2879C136.471 71.6106 135.561 72.4358 135.561 74.1713C135.561 75.8434 136.471 77.2404 137.55 77.2404C138.63 77.2404 139.54 76.4149 139.54 75.4202ZM180.875 42.6781C180.875 40.9426 179.965 40.1172 178.886 40.7733C177.806 41.4506 176.896 42.8473 176.896 43.842C176.896 44.9215 177.806 45.7471 178.886 45.7471C179.965 45.7471 180.875 44.329 180.875 42.6781ZM717.428 27.9683C716.771 26.8889 715.438 26.0635 714.38 26.0635C713.385 26.0635 712.559 26.8889 712.559 27.9683C712.559 29.1324 713.957 29.958 715.607 29.958C717.258 29.958 718.168 29.1324 717.428 27.9683ZM413.182 14.4018C413.182 12.2641 408.314 10.2745 402.853 10.2745C395.826 10.2745 402.43 14.4862 411.785 15.9678C412.525 16.0524 413.182 15.3965 413.182 14.4018ZM385.646 10.2745C385.646 9.19506 384.736 8.2851 383.677 8.2851C382.598 8.2851 381.688 9.19506 381.688 10.2745C381.688 11.3539 382.598 12.2642 383.677 12.2642C384.736 12.2642 385.646 11.3539 385.646 10.2745ZM450.643 10.2745C450.643 9.19506 449.733 8.2851 448.654 8.2851C447.575 8.2851 446.665 9.19506 446.665 10.2745C446.665 11.3539 447.575 12.2642 448.654 12.2642C449.733 12.2642 450.643 11.3539 450.643 10.2745ZM489.989 8.2851C489.989 7.20568 489.164 6.29541 488.084 6.29541C486.941 6.29541 486.116 7.20568 486.116 8.2851C486.116 9.36451 487.026 10.2745 488.084 10.2745C489.164 10.2745 489.989 9.36451 489.989 8.2851Z" fill="#25549A"/>
</svg>
