<svg width="964" height="685" viewBox="0 0 964 685" fill="none" xmlns="http://www.w3.org/2000/svg">
<path fill-rule="evenodd" clip-rule="evenodd" d="M637.049 621.971C633.094 609.701 625.411 582.515 625.411 580.843C625.411 578.199 654.088 568.572 656.121 570.516C659.127 573.612 654.63 577.838 645.523 580.391C635.919 583.148 633.794 586.493 637.772 592.662C639.173 594.967 641.116 595.057 648.257 592.933C653.025 591.441 657.545 590.899 658.246 591.623C661.161 594.515 656.822 598.944 649.862 600.255C640.236 602.017 639.535 603.441 643.151 613.678C644.733 618.265 645.523 622.694 644.822 623.304C642.698 625.519 637.93 624.615 637.049 621.971ZM283.957 613.158C263.845 604.413 263.393 576.956 283.256 566.719C295.527 560.369 312.746 567.963 315.752 581.024C317.763 589.408 310.103 589.046 306.826 580.572C305.063 575.804 302.758 574.132 296.589 572.979C289.448 571.578 288.024 572.097 282.736 578.109C272.658 589.408 275.483 602.56 288.815 606.628C299.866 609.972 307.187 601.227 296.679 597.272C291.211 595.148 289.448 588.865 294.375 588.865C298.894 588.865 312.475 595.058 312.475 597.091C312.475 598.063 311.074 602.108 309.38 606.175C305.244 616.141 296.408 618.627 283.957 613.158ZM669.455 591.532C665.478 580.233 662.223 570.154 662.223 569.092C662.223 566.81 688.775 555.24 690.989 556.664C695.238 559.217 691.691 563.533 681.996 567.51C672.551 571.487 671.487 572.55 672.798 576.775C674.832 583.577 675.285 583.758 682.697 580.753C695.488 575.555 696.821 575.555 696.821 579.871C696.821 582.786 694.266 585.069 688.165 587.464C680.662 590.379 679.691 591.532 680.843 595.667C684.911 609.701 684.821 612.005 680.754 612.005C677.567 612.005 675.195 607.667 669.455 591.532ZM249.02 599.193C245.834 597.34 246.354 595.238 254.919 576.775C265.698 553.477 266.308 552.686 270.285 555.149C272.748 556.663 271.619 560.799 264.093 577.657C253.156 602.289 253.517 601.769 249.02 599.193ZM456.355 683.935C416.9 682.624 353.084 673.269 316.543 663.371C224.298 638.581 149.522 597.882 92.7563 541.726C58.3397 507.581 41.8427 485.593 25.866 452.397C21.6176 443.764 16.7593 434.047 15.087 430.861C13.3244 427.697 12.6237 425.031 13.505 425.031C14.3863 425.031 13.9344 423.991 12.5333 422.567C11.2001 421.166 10.0479 418.5 10.0479 416.647C10.0479 414.455 8.37553 413.302 5.5508 413.392C-0.279457 413.573 -2.22312 408.354 3.17777 406.952C6.88383 405.981 7.04231 404.828 5.46046 395.02C-0.708767 357.508 -0.279722 323.34 6.9742 282.302C8.19449 274.98 19.9454 243.118 25.866 230.847C58.068 163.663 127.986 99.8468 214.762 58.4474C269.923 32.053 327.39 14.4715 386.009 6.08765C430.052 -0.171978 482.32 -0.781864 489.371 4.95801C492.987 7.94093 492.738 8.21211 484.603 8.75446C479.044 9.18382 476.491 8.57333 477.282 7.14966C478.073 5.99716 477.734 5.02557 476.581 5.02557C475.429 5.02557 474.186 5.9971 473.847 7.23999C473.305 8.57327 461.034 10.3363 444.718 11.4888C411.883 13.7712 358.281 21.8155 333.13 28.1655C306.916 34.7867 261.901 49.1816 256.681 52.6165C254.128 54.1984 251.212 55.3511 250.241 55.0799C245.224 53.8596 180.323 88.6381 155.872 105.677C46.5209 182.284 -4.0762 285.308 17.3918 388.061C20.2165 401.732 23.3805 414.093 24.4426 415.336C25.5047 416.647 26.9964 420.895 27.7873 424.691C28.6912 428.578 30.6116 432.194 32.3065 432.804C33.8883 433.437 34.6794 434.838 33.9788 435.9C32.0354 439.086 44.5771 463.696 58.7911 484.35C105.207 552.325 187.916 609.61 285.81 641.654C320.159 652.863 329.514 655.168 371.524 662.399C464.74 678.647 548.172 675.642 638.744 652.795C768.592 620.119 878.394 542.449 924.38 450.815C934.188 431.493 945.577 400.331 948.04 386.366C949.622 377.372 956.515 364.219 959.611 364.219C960.583 364.219 961.465 367.496 961.465 371.541C961.465 376.671 960.492 378.863 958.277 378.863C956.605 378.863 955.204 379.835 955.204 381.077C955.204 382.32 956.085 382.75 957.215 382.049C960.492 380.015 960.583 394.681 957.306 398.817C956.425 399.969 955.024 404.737 954.233 409.325C950.504 430.341 931.793 466.973 905.399 504.937C897.648 516.146 846.079 565.387 829.673 577.318C780.5 613.068 717.566 643.169 656.393 660.207C630.699 667.439 598.135 674.489 584.102 676.093C578.543 676.703 568.283 677.947 561.323 679.009C550.205 680.591 548.442 680.319 545.957 676.794C542.703 672.116 537.211 671.664 537.211 676.093C537.211 679.618 527.517 684.206 524.24 682.172C523.088 681.472 522.749 679.528 523.359 677.765C524.15 675.822 523.63 675.031 521.958 675.641C520.534 676.184 519.563 677.676 519.925 679.009C520.196 680.32 519.223 681.833 517.799 682.353C514.274 683.596 474.999 684.568 456.355 683.935ZM426.979 663.19C271.437 647.484 145.296 585.611 73.8865 490.18C50.1361 458.408 30.8829 417.528 27.3577 391.495C26.9057 387.427 24.9626 382.502 23.1095 380.468C21.3469 378.434 20.8268 376.762 21.8889 376.762C23.1996 376.762 23.561 367.496 23.0413 352.74C19.3126 255.636 72.5533 168.341 176.368 101.157C183.147 96.8409 189.068 93.2249 189.61 93.2249C190.04 93.2249 196.232 89.8578 203.282 85.7224C228.795 70.7174 280.002 49.9731 316.633 39.7362C415.589 12.0086 536.511 10.9465 635.919 36.9115C688.957 50.6736 733.812 69.0453 775.551 93.9256C798.939 107.869 803.369 111.417 800.725 114.151C799.121 115.733 797.268 115.19 794.353 112.546C792.161 110.445 788.613 108.14 786.601 107.349C784.567 106.648 782.963 105.134 782.963 104.163C782.963 103.1 781.742 102.31 780.319 102.219C778.827 102.219 767.959 96.9316 756.14 90.5815C689.589 54.5605 605.276 31.2618 518.319 24.7988C496.693 23.2169 502.613 23.2171 465.01 24.6408C327.66 30.0191 200.729 77.4292 121.004 153.064C59.8311 211.073 30.6116 272.495 30.5438 343.113C30.5438 365.711 31.4252 374.999 35.0409 388.309C37.5944 397.597 40.4193 408.082 41.391 411.788C42.3627 415.517 45.0065 422.567 47.3115 427.516C49.5939 432.533 54.0234 442.16 57.0967 448.962C68.3053 473.593 98.8572 512.778 123.67 534.495C198.333 599.735 296.137 640.682 409.058 653.925C460.062 659.936 522.568 659.484 565.549 652.795C570.137 652.072 576.758 651.1 580.306 650.58C661.771 638.581 754.558 600.887 812.363 556.302C872.654 509.705 907.975 461.052 927.657 397.755C929.601 391.405 936.312 349.033 935.86 345.418C935.86 344.808 935.86 341.802 936.132 338.977C936.38 334.3 936.652 334.119 938.595 337.464C941.872 343.045 939.206 379.044 934.279 398.636C913.173 480.734 846.441 554.177 747.394 604.413C692.753 632.118 635.377 649.699 567.673 659.326C545.618 662.399 446.571 665.133 426.979 663.19ZM447.543 644.14C445.781 643.508 445.418 637.699 446.119 623.915C447.452 599.464 448.334 595.148 452.22 595.148C454.774 595.148 455.293 599.193 455.293 617.994C455.293 640.773 453.622 646.332 447.543 644.14ZM471.361 641.316C460.514 632.751 459.542 612.525 469.417 602.65C482.321 589.679 506.14 597.43 507.925 615.102C509.778 634.694 502.004 645.541 486.208 645.541C479.926 645.541 475.067 644.14 471.361 641.316ZM490.524 637.948C501.552 634.943 504.287 613.497 494.502 606.695C481.079 597.272 465.982 611.644 472.174 627.982C475.79 637.518 481.259 640.434 490.524 637.948ZM517.37 638.92C516.647 635.033 515.946 623.915 515.675 614.13C514.974 590.99 517.62 590.289 532.986 610.062C539.336 618.265 545.255 625.429 546.046 625.948C546.928 626.4 547.019 619.237 546.318 609.972C545.166 595.396 545.528 593.114 548.353 593.114C553.188 593.114 553.459 593.995 555.132 618.808C556.646 640.773 556.555 641.406 552.307 641.406C549.392 641.406 543.923 636.366 536.172 626.649C529.709 618.627 524.06 612.005 523.631 612.005C523.179 612.005 523.02 619.237 523.178 628.073C523.449 638.92 522.748 644.388 521.076 645.021C519.562 645.45 518.071 642.987 517.37 638.92ZM707.667 577.838C697.25 553.929 696.821 552.076 701.77 552.076C704.594 552.076 708.12 557.455 715.012 572.55C720.209 583.849 723.825 593.996 723.125 595.148C719.78 600.526 715.531 595.758 707.667 577.838ZM230.648 591.08C228.434 589.679 229.405 586.403 235.507 575.465C239.642 567.782 242.399 561.59 241.586 561.68C240.705 561.68 235.326 566.448 229.496 572.188C213.429 588.074 209.293 585.43 213.519 562.132C214.943 554.629 215.734 548.189 215.282 547.737C214.853 547.308 211.327 553.116 207.35 560.55C199.666 575.013 199.576 575.103 195.169 572.278C192.864 570.877 193.317 568.754 197.633 561.341C200.548 556.302 205.678 547.037 208.932 540.777C215.463 528.145 217.315 526.811 222.626 530.879C225.97 533.342 225.97 535.037 223.417 551.262C221.812 560.98 220.773 569.182 221.022 569.454C221.293 569.815 227.733 564.324 235.416 557.273C247.506 546.246 249.902 544.822 253.608 546.856C255.98 548.099 257.834 549.59 257.834 550.2C257.834 552.144 236.66 590.899 235.055 591.871C234.174 592.413 232.23 591.961 230.648 591.08ZM736.728 583.216C727.011 579.6 717.837 565.838 717.837 554.629C717.837 539.715 734.513 528.755 747.123 535.286C750.67 537.048 753.586 539.443 753.586 540.506C753.586 544.302 748.818 545.274 743.688 542.45C736.366 538.563 727.531 543.511 726.559 552.144C724.367 571.307 750.852 584.187 754.806 565.928C756.931 556.392 757.721 554.901 760.365 555.782C763.913 556.912 764.885 566.629 761.97 572.098C757.383 580.572 744.841 586.131 736.728 583.216ZM416.38 576.347C314.871 564.257 227.304 526.563 170.628 470.407C126.223 426.364 109.275 388.06 111.399 335.972C113.252 287.59 130.381 251.749 170.538 211.864C197.362 185.198 221.203 168.25 256.772 150.33C313.018 122.173 369.151 106.987 436.402 101.609C451.95 100.366 468.288 98.332 472.694 97.0214C478.705 95.1683 481.259 95.1683 483.112 97.0214C484.423 98.4224 491.496 99.4847 498.818 99.4847C515.856 99.4847 567.492 105.044 586.565 109.021C663.985 124.817 739.101 159.686 784.116 200.837C888.902 296.336 874.778 422.206 749.88 505.547C707.238 534.065 643.06 559.827 589.751 569.974C535.72 580.323 469.508 582.697 416.38 576.347ZM536.329 569.816C603.242 563.285 678.628 539.715 727.349 510.134C785.629 474.836 822.442 432.714 838.667 383.021C847.141 357.078 847.231 322.73 838.757 296.946C824.023 251.591 794.985 216 743.778 180.092C708.638 155.641 649.952 130.738 603.061 120.592C561.843 111.575 491.857 104.253 487.699 108.411C486.999 109.202 478.525 109.202 468.899 108.592C430.844 105.835 361.829 117.857 310.532 136.026C155.872 191.029 82.9711 307.363 137.522 412.421C176.278 487.016 265.155 541.026 388.133 564.595C426.346 571.917 491.495 574.222 536.329 569.816ZM644.551 227.299C643.24 223.683 642.269 220.338 642.269 219.977C642.269 219.548 645.185 219.186 648.8 219.186C654.179 219.186 655.06 219.796 653.749 222.892C652.958 224.926 651.805 228.18 651.173 230.214C649.591 235.773 647.127 234.643 644.551 227.299ZM642.269 162.601C642.36 159.188 646.969 149.901 648.618 149.901C649.952 149.901 653.296 159.595 652.957 162.42C652.686 164.363 642.269 164.635 642.269 162.601ZM342.576 419.223C340.632 417.98 340.112 386.365 341.785 367.835C341.785 366.954 343.728 366.253 345.943 366.253C348.767 366.253 353.875 372.084 362.259 384.603L374.439 402.975L374.981 384.512C375.501 368.378 376.043 366.073 379.207 366.683C382.393 367.315 382.823 370.479 382.823 393.529C382.823 427.697 380.811 428.488 363.14 401.913L350.44 382.75L349.807 401.122C349.197 418.861 347.706 422.568 342.485 419.223H342.576ZM389.105 418.251C388.381 416.647 391.658 405.98 396.155 394.5C400.652 383.021 404.991 371.903 405.692 369.778C406.483 367.315 408.607 366.163 411.522 366.592C415.137 367.135 418.053 371.903 425.374 389.371C438.007 419.471 437.826 418.771 431.815 418.771C427.928 418.771 426.075 417.008 424.063 411.359C421.578 404.466 420.877 404.037 412.132 404.037C403.477 404.037 402.505 404.557 399.161 411.788C395.093 420.195 390.867 422.929 389.105 418.251ZM417.533 393.529C417.533 392.647 416.199 388.761 414.527 384.964L411.612 377.982L408.245 385.936C406.392 390.342 405.33 394.682 405.872 395.563C407.115 397.597 417.533 395.743 417.533 393.529ZM449.735 418.861C444.809 416.737 438.526 408.805 438.526 404.647C438.526 400.24 444.266 401.551 450.096 407.472C454.503 411.878 456.807 412.692 462.186 411.63C476.852 408.715 474.728 400.579 458.209 395.992C445.328 392.376 440.56 388.241 440.56 380.648C440.56 371.361 447.182 366.253 459.091 366.253C470.231 366.253 478.435 371.632 478.435 378.953C478.435 384.512 474.637 384.083 468.716 377.824C463.338 371.903 458.051 371.202 452.22 375.428C446.029 379.835 449.735 384.445 462.457 388.151C480.016 393.258 485.665 404.738 475.428 414.365C469.869 419.562 456.808 421.867 449.735 418.861ZM495.721 417.37C488.399 413.822 484.603 405.348 488.49 401.461C490.162 399.879 492.557 401.122 496.964 405.799C504.127 413.483 509.507 414.183 516.467 408.263C521.416 404.037 521.416 404.037 516.919 400.15C514.366 398.026 508.625 395.653 504.128 394.93C490.885 392.828 483.631 381.077 490.433 372.784C495.292 366.954 505.01 364.4 513.574 366.592C524.241 369.507 530.77 383.021 521.505 383.021C519.923 383.021 517.981 381.168 517.28 378.863C515.586 373.575 507.021 371.293 500.332 374.366C490.434 378.863 494.93 385.326 510.025 388.061C521.076 390.004 526.726 394.84 526.726 402.184C526.726 411.178 523.63 415.856 515.947 418.5C507.201 421.596 503.947 421.415 495.721 417.37ZM596.621 418.342C585.684 415.517 583.379 410.025 583.379 386.817C583.379 367.654 583.74 366.253 587.627 366.253C591.514 366.253 591.762 367.654 591.762 385.755C591.762 407.381 593.186 410.387 603.333 410.387C613.479 410.387 614.903 407.381 614.903 385.755C614.903 368.106 615.332 366.253 618.88 366.253C626.631 366.253 626.632 410.997 618.79 415.765C613.932 418.771 603.062 420.014 596.621 418.342ZM530.861 417.189C530.77 416.308 534.749 404.467 539.698 390.976C547.381 369.508 549.143 366.253 553.188 366.253C557.075 366.253 559.379 370.05 568.464 391.585C574.384 405.528 579.244 417.37 579.244 417.799C579.244 418.341 577.029 418.771 574.385 418.771C570.769 418.771 568.917 416.918 566.883 411.449C564.329 404.376 563.787 404.037 554.002 404.037C544.195 404.037 543.674 404.376 541.098 411.449C539.425 416.127 537.144 418.771 534.658 418.771C532.624 418.771 530.861 418.071 530.861 417.189ZM560.352 394.5C560.352 392.105 553.912 378.253 553.121 379.044C552.669 379.496 550.906 383.473 549.053 387.789C545.776 395.653 545.776 395.654 553.03 395.654C557.075 395.654 560.352 395.111 560.352 394.5ZM238.942 349.644C231.01 347.452 232.072 340.469 240.614 337.915C247.597 335.881 247.597 335.882 247.235 299.16C246.806 262.438 246.806 262.438 252.546 260.585C258.285 258.642 258.286 258.642 257.563 238.53C256.681 215.48 256.523 215.661 278.059 215.209C288.634 215.028 295.708 210.893 295.708 204.881C295.708 203.571 296.589 202.418 297.741 202.418C298.894 202.418 299.865 203.729 299.865 205.334C299.865 206.916 301.267 209.378 303.029 210.802C304.702 212.293 306.216 215.299 306.216 217.513C306.216 227.75 317.944 230.304 335.684 224.044C345.22 220.609 346.282 220.609 353.355 224.044C357.49 225.988 363.321 227.66 366.236 227.66C371.614 227.66 371.614 227.66 370.913 206.124C370.213 184.588 370.213 184.589 378.055 183.956C384.066 183.436 386.009 182.374 386.009 179.459C386.009 177.335 387.432 174.442 389.105 173.018C390.867 171.617 392.269 168.86 392.269 167.007C392.269 162.782 401.466 176.905 401.624 181.402C401.715 183.436 404.291 184.86 408.607 185.199C413.736 185.741 415.409 186.871 415.409 189.967C415.409 194.735 415.047 194.645 423.431 191.729C428.99 189.786 430.934 190.148 436.402 194.035C443.995 199.504 449.034 198.26 449.034 191.029C449.034 188.204 450.007 185.289 451.249 184.498C452.47 183.707 454.165 181.312 454.956 179.12C456.176 175.663 456.989 176.295 460.333 182.984C462.458 187.323 465.011 192.52 465.983 194.554C467.045 196.498 467.926 208.678 467.926 221.582C467.926 244.88 467.927 244.88 475.791 243.208C484.694 241.355 491.044 241.422 501.122 243.456C508.082 244.97 508.082 244.97 507.653 228.451C507.111 212.045 507.11 212.045 513.732 210.35C518.5 209.13 520.806 207.006 521.868 202.848C523.269 197.198 523.269 197.198 524.512 202.418C525.393 206.034 527.856 208.339 532.534 209.74C537.663 211.231 539.335 212.927 539.335 216.633C539.335 220.949 539.788 221.22 543.833 219.005C547.539 217.062 549.753 217.333 555.493 220.338C562.385 224.044 562.566 224.045 566.611 219.706C568.916 217.243 570.77 213.446 570.77 211.164C570.77 208.949 572.17 206.034 573.865 204.633C575.537 203.3 577.3 200.113 577.73 197.56C578.611 192.972 578.61 192.972 578.881 197.65C579.062 200.204 581.096 203.3 583.288 204.543C585.774 205.763 586.927 207.977 586.204 209.83C585.594 211.593 586.045 214.237 587.266 215.751C588.509 217.243 589.841 229.604 590.18 243.546L590.724 268.631L612.508 269.15C635.829 269.85 640.054 268.45 640.054 260.066C640.054 257.332 641.116 254.507 642.359 253.783C643.579 252.992 645.274 250.62 646.065 248.405C647.308 244.97 648.099 245.58 651.353 252.292C653.477 256.608 656.121 261.829 657.092 263.862C658.155 265.806 658.946 282.573 658.946 301.103C658.946 334.729 658.946 334.729 664.076 334.729C674.584 334.729 697.701 300.132 700.345 280.358C701.226 274.347 700.797 271.704 699.035 271.704C695.848 271.704 681.454 285.827 678.11 292.268C674.833 298.369 671.579 296.336 671.579 288.313C671.579 279.478 676.505 270.912 684.641 265.534C691.533 261.037 691.533 261.038 676.347 262.009C664.076 262.8 661.07 262.348 661.07 259.976C661.07 254.326 673.951 248.405 684.73 249.015C690.199 249.377 694.695 249.467 694.695 249.196C694.695 248.925 690.9 246.191 686.312 243.118C674.923 235.615 675.555 233.129 688.436 234.372C699.193 235.434 709.362 242.055 709.362 247.953C709.362 251.14 711.825 251.592 714.74 248.857C719.78 244.18 731.779 244.337 738.829 249.106C749.608 256.427 749.248 259.185 737.429 259.185C727.283 259.185 727.283 259.185 733.542 262.981C741.565 267.907 744.84 271.884 747.055 279.658C749.88 289.533 746.694 292.267 739.101 286.279C735.576 283.454 732.66 280.088 732.57 278.867C732.57 277.534 730.536 275.952 728.163 275.319C724.615 274.348 724.096 274.89 725.338 277.714C728.954 285.827 728.412 295.974 724.096 302.866C717.927 312.764 715.101 310.459 714.469 295.025C714.197 286.279 712.796 280.539 710.582 278.415C707.576 275.319 707.328 275.5 707.328 280.629C707.328 288.222 697.791 317.442 692.571 325.916C690.289 329.713 688.347 333.238 688.347 333.757C688.347 334.3 694.877 334.729 702.899 334.729C710.944 334.729 718.966 335.362 720.751 336.062C724.186 337.305 725.338 344.175 722.514 346.028C721.632 346.57 615.083 347.632 485.665 348.423C356.36 349.124 249.021 350.096 247.326 350.458C245.563 350.797 241.767 350.457 238.942 349.644ZM400.652 280.178C400.652 279.025 398.799 278.076 396.517 278.076C394.212 278.076 392.269 279.025 392.269 280.178C392.269 281.33 394.121 282.211 396.517 282.211C398.799 282.211 400.652 281.33 400.652 280.178ZM459.972 280.901C458.571 280.268 456.176 280.268 454.775 280.901C453.351 281.421 454.502 281.94 457.418 281.94C460.242 281.94 461.486 281.511 459.972 280.901ZM302.509 274.528C301.086 274.009 298.713 274.009 297.199 274.528C295.798 275.161 297.041 275.59 299.865 275.59C302.758 275.59 303.911 275.161 302.509 274.528ZM399.07 272.427C397.669 271.885 395.274 271.885 393.873 272.427C392.449 273.037 393.602 273.466 396.517 273.466C399.341 273.466 400.585 273.037 399.07 272.427ZM304.091 267.568C304.091 266.416 302.148 265.444 299.865 265.444C297.56 265.444 295.708 266.416 295.708 267.568C295.708 268.698 297.56 269.67 299.865 269.67C302.148 269.67 304.091 268.698 304.091 267.568ZM525.664 267.568C526.364 266.416 525.483 265.444 523.72 265.444C521.867 265.444 520.443 266.416 520.443 267.568C520.443 268.698 521.324 269.67 522.386 269.67C523.449 269.67 524.94 268.698 525.664 267.568ZM400.652 265.444C400.652 264.291 398.799 263.32 396.517 263.32C394.212 263.32 392.269 264.291 392.269 265.444C392.269 266.596 394.121 267.568 396.517 267.568C398.799 267.568 400.652 266.596 400.652 265.444ZM459.972 266.144C458.571 265.625 456.176 265.625 454.775 266.144C453.351 266.777 454.502 267.206 457.418 267.206C460.242 267.206 461.486 266.777 459.972 266.144ZM580.306 265.444C581.007 264.291 580.034 263.32 578.272 263.32C576.509 263.32 574.994 264.291 574.994 265.444C574.994 266.596 575.876 267.568 576.938 267.568C578.09 267.568 579.515 266.596 580.306 265.444ZM302.509 259.885C301.086 259.252 298.713 259.252 297.199 259.885C295.798 260.404 297.041 260.947 299.865 260.947C302.758 260.947 303.911 260.495 302.509 259.885ZM459.904 258.732C457.961 256.789 456.808 256.789 454.865 258.732C452.921 260.676 453.44 261.196 457.418 261.196C461.304 261.196 461.825 260.676 459.904 258.732ZM399.07 257.761C397.669 257.15 395.274 257.15 393.873 257.761C392.449 258.303 393.602 258.823 396.517 258.823C399.341 258.823 400.585 258.303 399.07 257.761ZM304.091 252.812C304.091 251.682 301.967 250.778 299.323 250.778C295.527 250.778 295.256 251.23 297.741 252.812C301.877 255.478 304.091 255.478 304.091 252.812ZM460.514 252.812C461.305 251.682 459.813 250.71 457.418 250.71C454.954 250.71 453.532 251.682 454.255 252.812C454.955 253.964 456.355 254.936 457.418 254.936C458.389 254.936 459.813 253.964 460.514 252.812ZM398.98 250.348C397.037 248.315 395.906 248.315 393.963 250.348C392.02 252.292 392.54 252.812 396.517 252.812C400.404 252.812 401.014 252.292 398.98 250.348ZM524.602 246.552C524.602 245.399 523.63 244.428 522.477 244.428C521.325 244.428 520.353 245.399 520.353 246.552C520.353 247.704 521.325 248.677 522.477 248.677C523.63 248.677 524.602 247.704 524.602 246.552ZM304.091 244.428C304.091 243.275 302.148 242.304 299.865 242.304C297.56 242.304 295.708 243.275 295.708 244.428C295.708 245.58 297.56 246.552 299.865 246.552C302.148 246.552 304.091 245.58 304.091 244.428ZM459.972 245.129C458.571 244.609 456.176 244.609 454.775 245.129C453.351 245.761 454.502 246.191 457.418 246.191C460.242 246.191 461.486 245.761 459.972 245.129ZM371.275 283.974C371.275 258.371 370.733 237.988 370.122 238.598C369.512 239.23 368.97 256.427 369.06 276.743C369.06 330.932 369.06 330.594 370.213 330.594C370.823 330.594 371.275 309.578 371.275 283.974ZM580.306 328.469C581.007 327.317 580.554 326.345 579.514 326.345C578.271 326.345 576.757 327.317 576.056 328.469C575.356 329.622 575.718 330.594 576.848 330.594C578.001 330.594 579.583 329.622 580.306 328.469ZM597.864 303.227C597.593 289.375 596.621 278.076 595.649 278.076C594.677 278.076 593.886 289.375 593.886 303.227C593.886 319.543 594.678 328.469 596.101 328.469C597.593 328.469 598.226 319.814 597.864 303.227ZM605.977 290.166C605.548 282.912 605.185 288.833 605.185 303.227C605.185 317.69 605.548 323.611 605.977 316.379C606.338 309.148 606.338 297.398 605.977 290.166ZM614.36 289.195C614.021 281.331 613.659 287.16 613.659 302.256C613.659 317.261 613.931 323.611 614.36 316.47C614.722 309.307 614.722 297.036 614.36 289.195ZM622.767 289.195C622.405 281.331 622.044 287.16 622.044 302.256C622.044 317.261 622.315 323.611 622.767 316.47C623.196 309.307 623.196 297.036 622.767 289.195ZM633.795 302.075C633.795 285.737 633.094 276.201 631.761 276.924C629.026 278.687 630.089 328.469 632.914 328.469C633.434 328.469 633.795 316.56 633.795 302.075ZM400.652 324.221C400.652 323.091 398.799 322.21 396.517 322.21C394.212 322.21 392.269 323.091 392.269 324.221C392.269 325.374 394.121 326.345 396.517 326.345C398.799 326.345 400.652 325.374 400.652 324.221ZM460.514 324.221C459.813 323.091 458.389 322.21 457.237 322.21C456.175 322.21 455.293 323.091 455.293 324.221C455.293 325.374 456.808 326.345 458.571 326.345C460.333 326.345 461.305 325.374 460.514 324.221ZM302.509 320.786C301.086 320.176 298.713 320.176 297.199 320.786C295.798 321.329 297.041 321.848 299.865 321.848C302.758 321.848 303.911 321.396 302.509 320.786ZM460.514 317.961C461.305 316.809 460.333 315.837 458.571 315.837C456.808 315.837 455.293 316.809 455.293 317.961C455.293 319.114 456.175 320.085 457.237 320.085C458.389 320.085 459.813 319.114 460.514 317.961ZM399.07 316.561C397.669 316.018 395.274 316.018 393.873 316.561C392.449 317.171 393.602 317.623 396.517 317.623C399.341 317.623 400.585 317.171 399.07 316.561ZM526.726 315.837C526.726 314.707 525.302 313.736 523.54 313.736C521.867 313.736 520.353 314.707 520.353 315.837C520.353 316.99 521.777 317.961 523.54 317.961C525.302 317.961 526.726 316.99 526.726 315.837ZM581.277 313.736C581.277 312.584 580.396 311.702 579.334 311.702C578.271 311.702 576.757 312.584 576.056 313.736C575.356 314.866 576.237 315.837 578 315.837C579.853 315.837 581.277 314.866 581.277 313.736ZM650.653 313.736C650.653 312.584 649.681 311.702 648.529 311.702C647.376 311.702 646.404 312.584 646.404 313.736C646.404 314.866 647.376 315.837 648.529 315.837C649.681 315.837 650.653 314.866 650.653 313.736ZM302.509 312.402C301.086 311.792 298.713 311.792 297.199 312.402C295.798 312.922 297.041 313.464 299.865 313.464C302.758 313.464 303.911 313.012 302.509 312.402ZM400.652 309.578C400.652 308.425 399.341 307.453 397.669 307.453C395.974 307.453 394.031 308.425 393.331 309.578C392.63 310.73 393.963 311.702 396.336 311.702C398.731 311.702 400.652 310.73 400.652 309.578ZM461.576 310.73C461.576 308.515 457.598 307.544 456.355 309.487C455.655 310.73 456.536 311.611 458.299 311.611C460.152 311.611 461.576 311.159 461.576 310.73ZM581.277 307.453C581.277 306.324 579.854 305.352 578.182 305.352C576.419 305.352 574.994 306.324 574.994 307.453C574.994 308.606 576.419 309.578 578.182 309.578C579.854 309.578 581.277 308.606 581.277 307.453ZM304.091 305.352C304.091 304.2 302.691 303.227 300.996 303.227C299.414 303.227 297.47 304.2 296.679 305.352C295.979 306.482 297.38 307.453 299.775 307.453C302.148 307.453 304.091 306.482 304.091 305.352ZM460.514 303.227C461.305 302.075 460.333 301.194 458.571 301.194C456.808 301.194 455.293 302.075 455.293 303.227C455.293 304.38 456.175 305.352 457.237 305.352C458.389 305.352 459.813 304.38 460.514 303.227ZM399.07 301.894C397.669 301.284 395.274 301.284 393.873 301.894C392.449 302.437 393.602 302.956 396.517 302.956C399.341 302.956 400.585 302.527 399.07 301.894ZM386.009 284.336C386.009 250.71 385.218 231.819 383.885 231.819C382.574 231.819 381.783 250.71 381.783 284.336C381.783 317.961 382.574 336.853 383.885 336.853C385.218 336.853 386.009 317.961 386.009 284.336ZM508.534 314.798C508.083 288.404 506.14 275.591 501.914 272.246C498.389 269.422 480.897 268.698 477.191 271.275C472.875 274.19 468.988 291.838 469.169 307.453C469.598 340.379 467.316 337.125 489.462 336.424L508.896 335.791L508.534 314.798ZM568.735 282.121C568.735 248.586 567.944 229.694 566.611 229.694C565.301 229.694 564.487 249.015 564.487 283.454C564.487 318.662 565.21 336.673 566.611 335.791C567.944 335 568.735 314.798 568.735 282.121ZM263.935 302.437C263.144 262.891 260.319 259.976 260.138 298.55C259.958 319.725 260.658 330.503 262.172 330.503C263.664 330.503 264.274 321.148 263.935 302.437ZM304.091 328.469C304.091 327.317 302.148 326.345 299.865 326.345C297.56 326.345 295.708 327.317 295.708 328.469C295.708 329.622 297.56 330.594 299.865 330.594C302.148 330.594 304.091 329.622 304.091 328.469ZM318.667 297.488C317.944 241.083 315.209 231.005 314.87 283.794C314.69 315.408 315.3 330.503 316.814 330.503C318.305 330.503 318.915 319.543 318.667 297.488ZM329.153 285.398C329.062 260.066 328.113 239.75 327.051 239.049C325.808 238.349 325.107 256.088 325.107 284.245C325.107 314.526 325.808 330.503 327.209 330.503C328.633 330.503 329.334 315.047 329.153 285.398ZM339.751 284.336C339.751 254.936 339.051 238.168 337.627 238.168C336.316 238.168 335.615 254.936 335.615 284.336C335.615 313.735 336.316 330.503 337.627 330.503C339.051 330.503 339.751 313.735 339.751 284.336ZM350.259 284.336C350.259 254.936 349.559 238.168 348.135 238.168C346.824 238.168 346.101 254.936 346.101 284.336C346.101 313.735 346.824 330.503 348.135 330.503C349.559 330.503 350.259 313.735 350.259 284.336ZM360.767 284.336C360.767 253.874 360.066 238.168 358.643 238.168C356.428 238.168 355.818 325.464 357.942 328.989C360.405 332.967 360.767 327.588 360.767 284.336ZM302.509 297.669C301.086 297.036 298.713 297.036 297.199 297.669C295.798 298.279 297.041 298.731 299.865 298.731C302.758 298.731 303.911 298.279 302.509 297.669ZM400.652 294.844C400.652 293.692 398.799 292.719 396.517 292.719C394.212 292.719 392.269 293.692 392.269 294.844C392.269 295.974 394.121 296.946 396.517 296.946C398.799 296.946 400.652 295.974 400.652 294.844ZM459.904 294.392C457.961 292.448 456.808 292.448 454.865 294.392C452.921 296.335 453.44 296.946 457.418 296.946C461.304 296.946 461.825 296.335 459.904 294.392ZM526.726 294.844C526.726 293.692 525.302 292.719 523.54 292.719C521.867 292.719 520.353 293.692 520.353 294.844C520.353 295.974 521.777 296.946 523.54 296.946C525.302 296.946 526.726 295.974 526.726 294.844ZM650.653 293.963C650.653 291.748 646.585 290.776 645.365 292.719C644.641 293.872 645.522 294.844 647.376 294.844C649.161 294.844 650.653 294.483 650.653 293.963ZM304.091 289.375C304.091 288.923 302.148 288.562 299.775 288.562C297.38 288.562 295.979 289.443 296.679 290.595C297.832 292.358 304.091 291.387 304.091 289.375ZM461.576 288.562C461.576 287.432 460.152 286.46 458.48 286.46C456.717 286.46 455.293 287.432 455.293 288.562C455.293 289.714 456.717 290.686 458.48 290.686C460.152 290.686 461.576 289.714 461.576 288.562ZM525.664 288.562C526.364 287.432 525.483 286.46 523.72 286.46C521.867 286.46 520.443 287.432 520.443 288.562C520.443 289.714 521.324 290.686 522.386 290.686C523.449 290.686 524.94 289.714 525.664 288.562ZM399.07 287.16C397.669 286.618 395.274 286.618 393.873 287.16C392.449 287.77 393.602 288.223 396.517 288.223C399.341 288.223 400.585 287.77 399.07 287.16ZM579.244 286.46C579.244 285.308 578.271 284.336 577.118 284.336C575.966 284.336 574.994 285.308 574.994 286.46C574.994 287.59 575.966 288.562 577.118 288.562C578.271 288.562 579.244 287.59 579.244 286.46ZM399.07 243.027C397.669 242.485 395.274 242.485 393.873 243.027C392.449 243.637 393.602 244.089 396.517 244.089C399.341 244.089 400.585 243.637 399.07 243.027ZM459.452 238.168C459.452 237.016 458.57 236.044 457.418 236.044C456.265 236.044 455.293 237.016 455.293 238.168C455.293 239.321 456.265 240.202 457.418 240.202C458.57 240.202 459.452 239.321 459.452 238.168ZM302.509 236.745C301.086 236.134 298.713 236.134 297.199 236.745C295.798 237.287 297.041 237.807 299.865 237.807C302.758 237.807 303.911 237.377 302.509 236.745ZM399.681 236.134C398.98 234.982 397.037 234.643 395.364 235.253C391.048 236.925 391.568 238.078 396.607 238.078C398.98 238.078 400.404 237.196 399.681 236.134ZM525.122 232.519C523.72 231.976 521.326 231.976 519.925 232.519C518.41 233.129 519.653 233.581 522.477 233.581C525.393 233.581 526.545 233.129 525.122 232.519ZM399.613 229.694C400.403 228.541 398.799 227.66 396.065 227.66C392.178 227.66 391.839 228.112 394.393 229.694C398.28 232.247 398.098 232.247 399.613 229.694ZM459.972 230.394C458.571 229.875 456.176 229.875 454.775 230.394C453.351 231.005 454.502 231.457 457.418 231.457C460.242 231.457 461.486 231.005 459.972 230.394ZM459.543 223.435C459.543 222.282 458.57 221.31 457.418 221.31C456.265 221.31 455.293 222.282 455.293 223.435C455.293 224.565 456.265 225.536 457.418 225.536C458.57 225.536 459.543 224.565 459.543 223.435ZM400.652 222.531C400.652 220.61 394.393 219.638 393.331 221.401C392.63 222.531 393.963 223.435 396.336 223.435C398.731 223.435 400.652 222.983 400.652 222.531ZM399.161 213.627C397.669 213.017 395.274 213.017 393.873 213.627C392.449 214.146 393.602 214.689 396.517 214.689C399.432 214.689 400.584 214.237 399.161 213.627ZM399.161 207.368C397.669 206.735 395.274 206.735 393.873 207.368C392.449 207.887 393.602 208.407 396.517 208.407C399.432 208.407 400.584 207.887 399.161 207.368ZM400.652 200.294C400.652 199.142 398.731 198.17 396.336 198.17C394.031 198.17 392.63 199.142 393.331 200.294C394.031 201.447 395.974 202.418 397.669 202.418C399.341 202.418 400.652 201.447 400.652 200.294ZM301.967 282.211C297.922 279.658 295.708 279.658 295.708 282.211C295.708 283.364 297.832 284.336 300.385 284.336C304.182 284.336 304.544 283.884 301.967 282.211ZM626.202 225.016C626.903 222.372 627.535 218.576 627.535 216.542C627.535 212.135 629.388 212.045 634.766 216.09C638.743 219.096 638.743 219.276 633.885 224.474C627.693 231.005 624.53 231.185 626.202 225.016ZM661.342 223.254C655.851 218.757 655.85 218.757 662.742 215.209C667.781 212.565 667.962 212.745 670.154 222.892C671.487 228.722 668.121 228.903 661.342 223.254ZM634.224 212.836C630.428 210.531 626.112 205.763 624.62 202.328C623.197 198.893 621.433 196.588 620.823 197.198C620.1 197.921 615.965 196.95 611.468 195.097C602.813 191.391 603.694 189.696 615.694 186.781C621.072 185.56 621.614 185.899 620.643 189.696C620.01 192.091 620.372 193.492 621.434 192.792C622.496 192.181 623.287 189.357 623.287 186.532C623.287 183.798 625.93 178.577 629.117 175.052C638.992 163.934 655.941 163.211 666.811 173.38C670.065 176.454 671.397 176.996 670.606 174.781C669.635 172.227 671.127 171.165 677.228 170.194C681.545 169.493 685.341 169.222 685.703 169.584C687.284 171.075 677.228 181.583 675.013 180.702C673.431 180.091 672.889 182.736 673.431 188.724C675.194 211.073 653.387 224.474 634.224 212.836ZM662.313 205.672C674.132 193.763 665.929 172.657 649.229 172.227C639.354 171.956 634.405 175.414 630.36 185.108C626.992 193.063 630.427 204.452 637.319 208.407C644.483 212.565 656.663 211.232 662.313 205.672ZM615.332 206.554C620.01 200.113 620.01 200.113 623.648 204.881C627.783 210.441 625.66 212.836 616.394 212.836C610.587 212.926 610.587 212.926 615.332 206.554ZM672.28 211.503C670.336 210.802 670.335 209.311 672.097 205.424C675.013 198.984 675.714 199.142 681.816 206.734C686.674 212.926 686.674 212.926 680.754 212.745C677.477 212.655 673.681 212.135 672.28 211.503ZM675.804 190.848C675.804 184.927 677.408 184.498 685.159 188.023C691.78 191.029 691.962 193.153 685.883 194.825C677.658 196.949 675.895 196.226 675.895 190.848H675.804ZM615.265 177.177C609.525 169.403 609.683 168.951 618.61 170.374C625.931 171.436 627.083 174.171 622.767 180.092C620.281 183.436 619.671 183.165 615.265 177.177ZM629.027 169.403C626.722 165.606 625.23 154.126 626.993 154.126C629.207 154.126 639.173 164.273 637.863 165.154C637.32 165.516 635.377 167.007 633.524 168.431C631.58 169.922 629.547 170.374 629.027 169.403ZM660.28 166.036C656.574 163.392 656.732 162.963 663.105 158.375C669.816 153.607 669.816 153.607 669.183 160.477C668.392 168.431 665.749 170.103 660.28 166.036ZM416.38 640.953C415.747 639.372 416.109 630.106 417.262 620.299C419.386 601.317 418.663 599.464 409.578 599.373C406.234 599.373 404.901 598.153 404.901 594.967C404.901 591.08 405.782 590.651 411.702 591.69C415.499 592.323 424.063 593.476 430.685 594.267C440.379 595.397 442.775 596.368 442.233 599.125C441.713 601.588 439.679 602.379 434.82 601.86C427.499 601.136 428.018 599.735 424.403 628.593C422.821 641.406 418.843 647.394 416.38 640.953ZM394.844 638.739C393.692 637.338 392.359 633.812 391.929 630.897C391.387 626.558 389.625 625.338 382.032 623.734C374.8 622.152 372.495 622.423 371.184 624.796C366.416 633.09 363.32 635.666 359.795 634.332C356.36 633.022 356.36 632.661 359.976 627.192C362.01 624.006 367.908 614.039 372.947 605.023C380.54 591.622 383.003 588.797 386.709 589.317C390.596 589.837 392.02 593.114 396.856 612.005C399.862 624.095 402.505 635.666 402.596 637.7C402.867 641.926 398.008 642.626 394.844 638.739ZM388.043 611.463C388.043 602.831 384.856 600.617 381.06 606.537C376.292 613.859 376.653 616.141 382.823 616.141C386.89 616.141 388.043 615.102 388.043 611.463ZM598.136 633.722C584.261 628.954 579.244 621.723 579.244 606.628C579.244 582.425 611.015 575.465 622.314 597.272C628.145 608.571 625.411 623.824 616.575 629.564C610.745 633.361 602.452 635.213 598.136 633.722ZM612.778 622.514C620.823 614.469 615.965 594.447 605.276 591.781C593.096 588.707 585.684 598.062 588.508 612.977C590.881 625.587 604.394 630.898 612.778 622.514ZM348.836 631.327C347.525 630.446 344.61 625.157 342.576 619.508C340.452 613.858 337.197 608.299 335.344 607.147C330.395 604.051 325.107 606.876 325.107 612.525C325.107 619.418 319.706 626.31 316.723 623.304C313.017 619.689 324.475 576.256 329.153 576.256C334.282 576.256 355.027 582.606 358.123 585.159C364.563 590.379 358.733 607.757 350.62 607.757C347.524 607.757 347.525 607.848 351.321 616.865C356.428 629.135 355.389 635.485 348.836 631.327ZM349.988 599.644C355.118 596.3 351.66 590.018 343.118 587.193C334.372 584.368 332.7 585.069 330.486 592.323C329.424 595.939 330.305 597.272 334.983 599.035C342.395 601.679 346.372 601.859 349.988 599.644ZM178.922 560.708C178.131 558.765 180.685 553.297 185.182 547.127C189.34 541.478 192.774 536.167 192.774 535.376C192.774 534.585 186.876 538.11 179.622 543.24C160.64 556.663 157.567 554.088 165.499 531.151C167.804 524.349 169.295 518.518 168.775 517.999C168.323 517.547 164.007 522.405 159.058 528.845C149.974 540.935 147.239 542.698 145.296 537.59C144.053 534.314 169.295 498.835 172.911 498.654C174.154 498.564 176.707 499.717 178.651 501.231C181.927 503.604 181.837 505.004 176.888 520.371C173.973 529.478 172.029 537.41 172.662 537.953C173.091 538.472 179.803 534.495 187.306 529.026C211.576 511.806 216.005 519.309 196.842 545.093C182.899 563.985 180.865 565.748 178.922 560.708ZM774.85 560.889C770.353 555.42 751.462 526.993 751.462 525.592C751.462 522.925 778.828 504.666 780.862 505.909C785.088 508.553 782.624 512.349 772.478 519.309C763.732 525.23 762.399 526.993 764.071 530.179C767.528 536.529 769.382 536.528 777.946 530.088C786.601 523.557 790.308 522.405 792.409 525.84C793.133 526.992 789.336 530.969 784.116 534.675C773.789 541.907 772.997 543.851 777.494 550.043C780.319 553.929 780.862 553.749 791.98 546.336C801.246 540.235 804.07 539.172 805.832 541.387C808.476 544.551 806.533 546.585 791.008 557.002C779.98 564.414 778.194 564.866 774.85 560.889ZM800.273 520.732C791.889 510.925 785.087 502.112 785.087 501.141C785.087 497.593 808.567 479.943 813.516 479.763C818.556 479.582 824.996 488.328 824.996 495.401C824.996 502.112 825.606 502.813 833.899 504.937C849.266 508.801 849.084 508.733 845.039 513.14C841.672 516.846 840.7 516.937 832.927 514.202C814.396 507.671 806.284 512.53 815.549 524.71C820.656 531.399 821.47 538.472 817.131 538.472C816.25 538.472 808.656 530.427 800.273 520.732ZM811.143 505.095C814.397 501.66 816.612 497.253 816.25 495.129C815.007 488.96 807.596 489.389 801.336 495.92C795.958 501.479 795.777 502.18 798.873 506.518C803.008 512.529 804.069 512.439 811.143 505.095ZM131.172 526.654C127.557 522.925 131.082 517.208 146.177 502.112C160.211 488.237 163.036 486.203 165.228 488.87C167.352 491.423 165.069 495.039 151.827 509.953C136.031 527.693 133.907 529.388 131.172 526.654ZM951.837 360.875C952.538 359.022 953.08 355.045 953.08 351.949C953.08 346.57 953.17 346.57 956.085 350.796C959.701 355.926 958.187 364.219 953.69 364.219C951.656 364.219 950.956 362.977 951.837 360.875ZM15.2677 348.853C14.3864 346.751 14.6352 343.995 15.7877 342.865C18.7932 339.95 20.3752 343.293 18.4318 348.423C16.8499 352.4 16.6688 352.401 15.2677 348.853ZM48.7128 342.322C39.6285 333.328 38.8376 322.549 46.6791 314.708C52.9613 308.516 58.3394 307.996 58.3394 313.826C58.3394 316.109 57.4582 317.961 56.3057 317.961C52.9612 317.961 49.7747 326.006 51.1079 331.294C53.3903 340.378 69.7288 344.175 78.9036 337.825C85.0954 333.509 85.1857 323.701 78.9939 319.634C75.898 317.623 74.9265 315.499 75.8982 312.855C77.2314 309.488 77.7509 309.397 82.0897 312.222C89.6826 317.171 92.7561 324.583 91.1742 333.419C89.2308 343.656 80.1463 349.486 66.0226 349.486C57.2772 349.486 54.9047 348.514 48.7128 342.322ZM877.874 340.379C871.343 333.509 871.412 317.442 877.965 312.855C887.321 306.324 892.156 311.431 883.772 319.023C878.846 323.52 878.303 331.113 882.71 334.729C887.84 338.978 891.998 335.52 893.58 326.007C895.071 316.651 902.235 307.453 907.975 307.453C914.325 307.453 921.646 317.17 921.556 325.735C921.556 334.91 920.245 337.395 913.714 340.83C907.003 344.356 905.059 338.706 910.957 332.786C913.353 330.413 915.296 327.498 915.296 326.255C915.296 322.029 910.957 315.837 908.065 315.837C904.879 315.837 903.726 318.504 901.534 331.113C899.139 344.627 886.507 349.576 877.874 340.379ZM955.272 334.91C952.198 329.17 952.537 326.345 956.334 326.345C958.187 326.345 959.069 327.317 958.368 328.469C957.577 329.712 958.549 329.961 960.673 329.08C963.498 328.018 964.017 328.56 962.865 331.384C962.074 333.418 961.465 335.972 961.465 337.034C961.465 340.469 957.486 339.068 955.272 334.91ZM935.77 325.035C935.16 324.063 934.008 318.052 933.126 311.702C928.539 277.624 907.433 228.361 883.863 196.95C873.355 182.826 828.792 135.235 826.148 135.235C823.843 135.235 811.753 122.625 812.905 121.382C818.012 116.252 876.632 173.199 895.795 201.876C915.297 231.095 934.188 273.466 934.188 288.042C934.188 294.663 940.267 311.159 940.358 304.99C940.539 300.132 944.696 297.85 947.069 301.375C950.346 306.234 946.64 289.104 940.177 269.15C925.986 225.106 890.665 172.409 854.554 141.337C846.622 134.444 844.587 131.619 846.35 129.495C848.022 127.461 847.594 126.851 844.588 126.851C840.001 126.851 831.255 121.201 831.255 118.286C831.255 114.241 843.707 116.253 846.079 120.682C847.322 123.145 848.904 124.568 849.627 123.845C851.819 121.653 856.248 127.122 855.096 130.647C854.305 133.11 854.553 133.382 855.796 131.619C858.531 127.913 882.642 150.24 901.353 173.809C924.381 202.848 946.549 244.247 953.328 270.732C956.334 282.483 959.701 299.16 960.312 305.352C960.583 308.245 961.011 311.069 961.283 311.702C962.706 314.707 963.136 324.221 961.894 324.221C958.029 324.153 954.142 319.724 954.142 315.408C954.142 312.583 952.628 310.369 950.436 309.94C948.221 309.488 946.797 310.549 946.797 312.583C946.797 316.899 944.786 316.719 941.08 312.131C938.323 308.877 938.165 309.058 939.137 314.866C940.177 321.238 937.804 328.47 935.77 325.035ZM870.011 305.171C869.22 303.929 871.162 300.222 874.236 297.036C879.637 291.386 879.728 290.957 876.723 283.726C874.169 277.534 872.384 276.133 866.666 275.59C862.147 275.161 859.412 273.647 858.982 271.365C858.44 268.179 860.745 267.997 883.162 269.059C917.511 270.732 918.121 272.246 892.427 293.239C874.507 307.905 872.384 309.058 870.011 305.171ZM893.761 282.392C900.201 277.014 899.749 275.952 891.117 275.952C885.377 275.952 883.772 276.834 883.772 279.839C883.772 287.251 886.959 288.042 893.761 282.392ZM63.1979 299.16C50.5657 291.386 48.1025 276.834 57.4581 265.625C68.6666 252.292 95.9424 259.794 101.411 277.714C103.445 284.426 97.185 297.917 90.6542 300.923C82.7902 304.448 70.7004 303.657 63.1979 299.16ZM90.9935 289.714C95.1516 283.454 93.5697 277.534 86.3158 271.794C75.4688 263.32 60.4635 268.359 60.4635 280.539C60.4635 292.991 84.2142 300.132 90.9935 289.714ZM855.616 263.862C852.542 260.766 855.276 257.399 865.942 250.868C872.383 247.004 877.152 243.456 876.723 242.936C876.271 242.484 870.191 243.547 863.208 245.4C856.339 247.162 849.717 248.677 848.565 248.677C843.096 248.677 845.039 241.874 853.514 231.095C858.621 224.564 862.327 219.186 861.807 219.186C861.174 219.186 856.158 222.101 850.508 225.536C839.3 232.428 835.503 233.31 835.503 228.994C835.503 227.389 843.616 220.768 853.514 214.147C867.976 204.543 872.135 202.69 874.507 204.633C879.366 208.678 877.964 212.926 867.886 224.745C862.598 231.005 858.531 236.835 858.893 237.807C859.322 238.869 866.734 237.987 875.389 235.863C889.964 232.338 891.275 232.338 893.761 235.525C895.252 237.468 896.134 239.931 895.795 240.993C894.823 243.727 857.039 265.263 855.616 263.862ZM96.914 257.399C92.1459 254.326 83.8522 249.106 78.5643 245.852C67.8755 239.231 67.514 238.598 71.7624 232.881C74.5872 228.994 75.0169 229.084 90.9032 233.672C99.8294 236.225 107.513 237.988 107.942 237.558C108.394 237.106 104.055 230.666 98.2471 223.344C92.3265 216 88.0781 208.768 88.7109 207.096C89.4114 205.514 89.8632 203.729 89.8632 203.299C89.8632 200.023 98.6767 204.091 113.862 214.147C125.613 222.011 131.173 226.96 130.45 228.903C128.958 232.881 128.596 232.79 116.687 225.355C110.947 221.83 105.908 219.276 105.479 219.706C105.117 220.067 108.665 225.355 113.342 231.547C124.461 246.1 122.517 248.315 102.564 243.999C94.4509 242.236 87.7392 241.083 87.7392 241.422C87.7392 241.874 93.0274 245.581 99.4678 249.648C109.976 256.428 112.981 261.195 107.603 262.529C106.541 262.8 101.682 260.495 96.914 257.399ZM827.821 220.158C827.12 218.305 827.73 214.508 829.312 211.683C831.865 206.915 831.526 205.944 825.786 200.113C820.137 194.464 818.804 194.035 813.425 196.159C809.358 197.65 806.804 197.741 805.312 196.227C802.126 193.063 804.77 191.301 827.458 181.855C844.587 174.781 848.203 173.9 850.327 176.386C852.971 179.64 851.638 183.888 839.638 209.311C832.927 223.593 830.102 226.169 827.73 220.158H827.821ZM838.576 191.91C842.373 184.769 842.463 184.86 833.56 187.933C827.187 190.238 827.03 190.509 830.465 194.283C834.962 199.323 834.78 199.322 838.576 191.91ZM119.422 203.661C106.089 190.238 104.236 187.504 106.541 184.679C110.337 180.25 112.19 180.521 127.376 187.933C134.607 191.458 141.047 193.944 141.68 193.402C142.2 192.792 139.285 185.741 135.218 177.696C128.167 163.572 127.986 162.872 131.692 159.595C135.218 156.341 136.37 157.041 151.465 172.227C160.301 181.063 166.922 189.176 166.38 190.147C164.098 193.763 159.849 191.82 151.827 183.617C147.398 179.029 143.353 175.572 142.901 176.024C142.471 176.453 144.844 182.374 148.211 189.085C157.725 208.068 154.742 210.802 135.85 200.384C120.122 191.639 118.902 192.43 130.381 204.09C135.85 209.65 140.257 215.3 140.257 216.723C140.257 222.373 134.155 218.486 119.422 203.661ZM794.442 187.594C793.651 186.352 794.804 183.255 797.019 180.792C806.713 169.674 806.714 169.832 798.42 163.482C790.647 157.561 790.646 157.561 783.777 165.516C777.494 172.747 772.478 174.08 772.478 168.521C772.478 165.787 798.149 133.111 800.364 133.111C804.589 133.111 804.07 140.093 799.482 144.952C794.533 150.24 794.534 150.24 801.336 156.432C809.72 163.844 810.961 163.934 816.159 157.313C820.566 151.754 823.843 150.692 826.058 154.217C827.64 156.77 801.945 189.538 798.329 189.696C796.928 189.786 795.143 188.815 794.442 187.594ZM165.228 174.08C158.787 170.645 152.889 159.256 152.889 150.601C152.889 136.839 168.233 126.489 180.865 131.8C195.35 137.788 202.672 154.827 195.78 166.397C189.611 176.905 176.527 180.25 165.228 174.08ZM186.063 166.668C193.837 159.437 190.921 147.166 179.984 140.703C172.3 136.116 163.374 139.664 161.092 148.206C158.629 157.562 168.685 170.194 179.283 170.804C180.503 170.894 183.509 169.041 186.063 166.668ZM764.162 163.753C762.58 161.9 762.15 158.195 762.941 154.489C764.071 149.088 763.371 147.867 756.931 144.07C749.609 139.731 749.609 139.731 744.05 144.07C739.191 147.957 738.129 148.048 735.395 145.314C732.66 142.557 734.423 140.546 751.1 128.185C763.371 118.987 771.055 114.671 773.269 115.461C777.405 117.066 777.404 116.004 773.178 142.217C769.472 165.516 768.139 168.521 764.162 163.753ZM766.987 136.116C767.71 134.263 768.229 130.918 768.229 128.704C768.229 124.727 767.959 124.817 761.97 129.247C757.202 132.772 756.321 134.444 758.084 136.659C761.179 140.455 765.405 140.184 766.987 136.116ZM203.102 146.263C200.028 140.794 195.351 132.32 192.594 127.461C184.662 113.518 188.888 111.755 207.779 121.201C216.163 125.359 223.417 128.365 223.846 127.913C224.389 127.461 221.813 121.902 218.197 115.642C212.909 106.377 212.209 103.824 214.491 101.971C216.706 100.118 219.801 103.733 229.157 119.348C235.778 130.218 241.066 139.573 241.066 140.093C241.066 144.07 232.32 142.489 219.801 136.116C211.575 132.071 204.435 129.156 203.893 129.766C203.282 130.286 205.745 135.597 209.383 141.517C216.886 153.697 217.315 156.251 212.208 156.251C209.994 156.16 206.378 152.183 203.011 146.263H203.102ZM719.937 137.449C711.373 134.896 701.045 128.975 701.045 126.76C701.045 124.817 717.203 91.2817 719.237 89.1575C719.689 88.6377 723.577 89.4286 727.893 91.0105C743.779 96.5696 749.608 107.439 740.953 115.281C738.128 117.857 737.248 120.591 738.039 123.845C738.92 127.393 737.7 130.218 733.904 134.082C728.164 139.822 727.892 139.912 719.937 137.449ZM730.107 125.269C730.988 118.987 716.773 111.416 713.587 116.433C710.333 121.563 711.305 126.06 716.231 128.523C723.485 132.071 729.293 130.647 730.107 125.269ZM736.367 107.53C736.729 105.496 734.604 102.4 731.327 100.276C725.949 96.7505 725.587 96.7503 722.853 100.547C718.966 105.835 719.146 106.897 724.705 109.541C730.988 112.637 735.486 111.846 736.367 107.53ZM238.151 115.19C225.089 98.5132 222.874 93.1352 229.157 93.316C230.467 93.316 236.207 99.666 241.857 107.44C247.506 115.191 251.483 119.891 250.783 117.767C250.06 115.643 248.93 107.529 248.117 99.6654C246.354 79.8922 250.331 78.4687 262.602 94.7166C272.5 107.778 273.81 106.806 270.895 88.2761C269.042 76.706 270.714 71.4183 274.692 75.6441C276.816 77.9491 283.256 118.648 281.765 120.93C279.279 124.908 274.601 121.902 266.037 110.693C258.105 100.457 256.771 99.3942 256.161 103.462C255.8 106.015 256.523 112.817 257.743 118.648C262.172 139.212 256.161 138.15 238.151 115.19ZM664.776 114.67C648.528 108.659 648.98 111.236 659.488 83.1694C663.285 73.1811 666.991 66.2204 668.302 66.8306C669.545 67.3503 675.986 69.4746 682.697 71.418C691.691 74.062 694.786 76.0055 694.786 78.8302C694.786 83.5984 694.085 83.5982 681.453 79.1012C672.73 76.0053 671.127 75.9152 669.455 78.6495C665.839 84.299 667.42 86.7846 676.075 89.3381C684.098 91.8013 688.436 96.0496 685.612 98.8744C684.979 99.4845 680.572 98.513 675.895 96.66C664.867 92.2534 664.324 92.3438 661.499 98.4227C658.855 104.343 660.008 105.315 674.313 109.902C681.454 112.298 684.549 116.885 680.572 119.077C679.69 119.62 672.64 117.586 664.776 114.761V114.67ZM294.646 111.575C282.917 78.6495 281.313 71.9383 284.77 70.718C286.691 69.9949 292.883 67.7121 298.442 65.4975C304.001 63.3959 309.47 62.1529 310.532 62.8535C315.119 65.6782 311.865 69.5649 302.509 72.48C294.035 75.2144 292.612 76.3671 293.154 80.5929C293.854 87.3949 293.855 87.3947 304.001 83.779C315.481 79.7114 316.723 79.802 316.723 84.299C316.723 87.0334 313.989 88.8188 307.007 90.6719C297.922 93.135 297.47 93.5645 298.803 99.0558C300.747 106.649 299.866 106.468 314.148 102.219C326.87 98.5131 326.87 98.513 328.271 80.5929C329.966 58.2661 330.757 55.3509 335.435 55.3509C340.903 55.3509 366.326 92.6826 362.959 95.9593C361.106 97.9027 359.343 97.022 355.637 92.3442C351.321 87.0337 349.807 86.514 343.186 87.7568C337.198 88.8867 335.615 90.1292 335.615 93.8353C335.525 101.609 332.429 104.072 316.362 109.202C298.623 114.851 295.888 115.19 294.646 111.575ZM346.101 79.1012C346.101 78.5588 344.338 75.8247 342.146 73.0904C338.169 68.0737 338.169 68.074 336.926 72.7518C334.712 80.8644 335.344 82.1977 340.813 81.1356C343.728 80.5029 346.101 79.7113 346.101 79.1012ZM819.684 109.902C818.893 108.592 819.166 106.558 820.408 105.315C823.233 102.49 829.763 104.954 828.611 108.411C827.459 111.937 821.537 112.908 819.684 109.902ZM638.653 98.9655C639.263 95.2594 640.416 90.5816 641.207 88.6382C642.27 85.9038 640.754 84.5699 634.495 82.8976C623.286 79.7113 623.648 79.5308 620.982 90.0388C618.88 98.6034 614.723 102.219 612.079 97.9027C610.745 95.7785 622.405 54.1989 624.168 54.7413C630.089 56.3231 630.269 56.7746 627.874 63.8251C624.959 72.1186 626.382 74.0622 636.438 75.6441C643.511 76.7966 643.942 76.4575 646.337 69.2939C649.681 59.1475 655.85 58.6953 654.268 68.6836C651.533 85.2705 644.121 105.767 640.845 105.767C638.201 105.767 637.772 104.253 638.653 98.9655ZM799.844 97.722C790.307 92.5923 789.584 89.6095 798.149 90.0388C807.866 90.6716 812.363 93.0443 812.363 97.6317C812.363 102.671 809.018 102.671 799.844 97.722ZM368.179 92.8635C366.145 87.3044 360.767 59.2379 360.767 54.1985C360.767 49.7016 366.755 46.4473 367.298 50.6732C367.388 51.5545 369.06 59.8481 370.913 69.1133C374.8 87.3046 374.348 87.0332 389.715 83.6887C393.331 82.8977 394.393 83.5988 394.393 86.6948C394.393 89.8585 392.449 91.1008 385.489 92.1629C380.54 92.9538 374.891 94.0161 372.857 94.5359C370.823 95.1686 368.699 94.3776 368.179 92.8635ZM587.718 90.5815C587.809 89.1579 589.118 81.8356 590.813 74.3331C594.768 56.0513 594.858 56.1417 587.627 53.6785C581.526 51.5543 579.583 48.3687 582.95 46.2671C583.831 45.7247 591.515 46.8766 600.079 48.8201C616.937 52.6165 622.496 57.566 610.135 57.566C602.181 57.566 600.961 60.2096 597.074 84.299C596.012 91.1914 594.768 93.2249 591.695 93.2249C589.48 93.2249 587.628 92.073 587.718 90.5815ZM404.2 82.1977C403.567 78.469 402.438 69.927 401.624 63.3058C400.223 51.1934 400.223 51.1931 393.15 51.1931C384.947 51.1931 383.184 46.0857 390.777 44.2327C401.466 41.6791 415.59 40.3464 418.753 41.5893C423.793 43.4423 418.504 49.0918 411.793 49.0918C407.364 49.0918 406.754 49.8825 407.816 54.0179C408.426 56.6844 409.669 65.6783 410.369 73.9717C411.612 86.6944 411.341 88.9767 408.607 88.9767C406.573 88.9767 404.9 86.4235 404.2 82.1977ZM429.532 85.4514C426.888 81.0448 425.555 41.1373 428.018 39.6459C431.476 37.5217 434.21 42.3797 434.3 50.6732C434.3 57.9949 435.453 58.4469 446.662 56.2323C452.65 54.9894 453.193 54.1985 453.193 46.7864C453.193 33.7248 458.933 36.0297 460.424 49.6111C463.068 74.4236 462.797 83.779 459.543 83.779C457.328 83.779 456.017 80.8639 455.293 74.3331C454.254 64.8871 454.255 64.8871 444.967 64.8871C435.702 64.8871 435.702 64.8872 435.521 75.2144C435.453 84.4796 432.176 89.9483 429.532 85.4514ZM529.89 84.4797C529.28 82.8978 529.98 72.2994 531.494 60.8197L534.138 39.8942L546.657 40.5266C560.781 41.1367 562.476 41.7475 562.476 46.2671C562.476 48.8207 560.171 49.3398 551.426 48.8201C540.759 48.1195 540.308 48.3008 539.698 53.8599C539.155 58.9671 539.698 59.5997 545.347 59.5997C553.821 59.5997 558.227 61.5205 558.227 65.2492C558.227 67.7124 556.013 68.2317 548.261 67.7119C538.273 67.0114 538.273 67.0113 537.211 76.2765C536.171 85.3609 531.923 90.0388 529.89 84.4797ZM759.235 75.1241C695.328 42.6509 627.874 23.1268 545.776 13.3419C517.009 9.88438 513.733 9.00281 516.218 5.02557C519.744 -0.623907 571.922 2.92422 610.745 11.4888C671.127 24.7312 713.159 39.1036 758.264 62.2438C778.738 72.7519 787.121 78.1297 787.121 80.6832C787.121 87.666 781.562 86.5134 759.235 75.1241ZM790.307 84.8417C789.584 83.6892 790.556 82.717 792.409 82.717C794.262 82.717 795.234 83.6892 794.533 84.8417C793.833 85.9942 792.861 86.9431 792.409 86.9431C791.98 86.9431 791.008 85.9942 790.307 84.8417ZM492.376 80.5026C482.14 72.3899 480.988 52.7978 490.163 42.561C495.292 36.9115 506.072 35.4873 513.823 39.4645C522.839 44.1423 525.211 49.7922 524.149 63.3962C523.358 72.7517 522.048 76.0054 517.438 79.8922C510.387 86.0614 499.789 86.3328 492.376 80.5026ZM514.365 72.9097C515.947 71.0566 517.28 65.4976 517.28 60.639C517.28 50.1536 513.483 44.9333 505.89 44.9333C497.665 44.9333 493.168 49.0914 491.767 57.995C490.004 69.0454 495.021 76.4578 504.467 76.4578C508.444 76.4578 512.76 74.9435 514.365 72.9097ZM497.327 6.81104C497.327 2.74341 497.846 1.86172 499.88 2.47186C501.032 2.74304 503.066 2.13266 504.467 0.980164C507.834 -1.75418 512.941 1.6814 511.359 5.74902C510.116 9.09352 497.327 10.0651 497.327 6.81104Z" fill="#C83E3D"/>
</svg>
