<svg width="961" height="960" viewBox="0 0 961 960" fill="none" xmlns="http://www.w3.org/2000/svg">
<path fill-rule="evenodd" clip-rule="evenodd" d="M439.854 959.33C331.866 946.854 248.131 912.082 171.323 847.909C58.1056 753.335 -5.8287 608.86 0.418995 461.949C1.65656 432.946 7.20571 389.293 10.2397 384.522C11.1779 383.125 12.036 378.593 12.1957 374.462C12.575 365.2 19.9008 339.77 30.0408 312.404C65.6706 216.353 129.545 135.872 215.076 79.0438C276.355 38.344 336.237 15.5687 416.399 2.63422C440.712 -1.27807 526.183 -0.718782 551.833 3.5528C625.128 15.7288 685.23 38.8026 743.715 77.0872C841.802 141.341 913.92 240.446 944.958 353.643C951.905 379.153 956.276 404.344 954.32 407.537C953.541 408.695 953.921 410.252 955.098 410.97C960.408 414.244 962.663 498.219 958.452 538.839C953.462 587.642 934.739 648.382 909.009 699.222C891.324 734.233 851.163 792.778 844.855 792.938C843.518 793.018 842.5 794.036 842.5 795.273C842.5 798.407 832.919 808.068 829.885 808.068C828.468 808.068 826.372 805.972 825.194 803.397C823.019 798.626 817.41 797.069 815.214 800.583C814.595 801.601 815.214 802.459 816.771 802.459C818.647 802.459 819.186 803.697 818.567 806.192C817.789 809.086 818.487 809.944 821.461 809.944C823.557 809.944 825.893 810.882 826.592 812.039C828.009 814.315 809.126 834.416 805.473 834.416C802.359 834.416 800.323 822.879 801.88 813.458C802.659 808.547 802.439 806.351 801.102 807.13C800.084 807.748 799.226 807.448 799.226 806.43C799.226 803.396 802.579 802.139 803.597 804.794C804.934 807.988 808.907 802.38 807.729 799.106C807.19 797.769 811.322 791.78 816.851 785.772C880.485 716.528 922.043 625.547 932.722 531.971C935.217 510.374 935.217 451.511 932.722 428.436C923.68 345.16 886.713 257.273 834.157 193.818C791.201 142.12 742.158 102.578 685.47 74.134C670.978 66.8683 658.263 60.3208 657.245 59.702C656.147 59.0832 654.211 58.3047 652.794 58.145C648.443 57.4463 647.884 55.5707 652.095 55.5707C654.291 55.5707 656.547 54.7113 657.165 53.6933C658.642 51.2781 653.273 51.2788 648.822 53.6141C646.327 55.0314 640.957 54.0138 628.702 49.8021C605.248 41.8378 581.155 35.769 553.31 30.8587C532.73 27.106 522.75 26.4874 483.208 26.4874C453.507 26.4075 431.051 27.3457 420.132 28.9825C326.956 43.0947 247.113 79.9819 178.428 140.642C167.59 150.223 157.529 157.789 156.132 157.47C154.715 157.17 154.176 157.869 154.795 158.967C155.494 160.045 149.585 168.388 141.621 177.43C96.7892 228.51 61.5389 291.345 45.6302 348.513C43.3747 356.617 41.658 359.73 39.8616 359.032C38.4643 358.493 37.3062 358.953 37.3062 359.971C37.3062 361.069 38.2246 362.226 39.3225 362.545C40.6399 363.004 40.3404 366.677 38.544 373.604C37.0669 379.392 34.4121 392.487 32.6955 402.766C30.899 412.986 29.0228 422.108 28.4838 422.966C26.388 426.399 25.829 498.058 27.7851 518.638C34.3322 588.261 54.9116 653.292 87.8268 708.344C99.2842 727.526 100.143 730.48 96.6296 738.904C95.4719 741.638 96.2501 742.257 101.24 742.257C104.674 742.257 106.69 741.479 105.991 740.322C105.372 739.304 105.213 738.445 105.592 738.445C106.071 738.445 112.618 746.709 120.263 756.849C138.028 780.383 181.782 824.136 204.777 841.282C258.81 881.603 317.594 909.128 380.61 923.54C436.52 936.414 512.29 937.573 566.184 926.515C575.765 924.559 584.109 923.461 584.648 924.02C586.066 925.417 571.314 937.812 568.201 937.812C564.608 937.892 563.45 942.642 565.945 947.333C568.899 952.862 568.041 953.322 550.356 956.216C535.465 958.551 453.427 960.887 439.854 959.33ZM209.607 863.119C207.751 861.243 206.174 864.138 207.75 866.633C208.908 868.569 209.387 868.569 210.006 866.633C210.385 865.295 210.246 863.738 209.607 863.119ZM842.5 769.404C842.5 767.767 841.642 766.989 840.644 767.608C839.546 768.307 838.688 769.543 838.688 770.561C838.688 771.499 839.546 772.358 840.644 772.358C841.642 772.358 842.5 771.041 842.5 769.404ZM98.1866 760.123C97.5678 758.566 96.3299 757.307 95.4716 757.307C94.5335 757.307 93.755 758.566 93.755 760.123C93.755 761.68 94.9929 762.916 96.47 762.916C98.1866 762.916 98.8253 761.839 98.1866 760.123ZM98.9651 747.647C98.1866 743.196 98.1863 743.196 96.1703 747.867C93.9746 753.016 94.9926 756.768 97.8869 753.874C98.8849 752.856 99.3643 750.062 98.8853 747.567L98.9651 747.647ZM92.8169 736.408C93.0365 728.464 90.7808 724.791 88.8447 729.861C88.2059 731.498 86.4895 732.836 85.0923 732.836C83.6152 732.836 82.4376 733.694 82.4376 734.851C82.4376 735.949 83.3755 736.249 84.5532 735.551C85.9504 734.692 86.1899 735.55 85.4115 738.125C84.5532 740.78 85.252 742.577 87.5076 743.814C91.9588 746.31 92.5774 745.371 92.8169 736.408ZM82.4376 722.376C82.4376 720.739 81.5794 719.961 80.5614 720.58C79.5634 721.219 78.7047 722.536 78.7047 723.554C78.7047 724.492 79.5634 725.271 80.5614 725.271C81.5794 725.271 82.4376 724.013 82.4376 722.376ZM91.8788 723.395C91.8788 722.377 91.0206 721.518 90.0026 721.518C88.9847 721.518 88.1265 722.377 88.1265 723.395C88.1265 724.492 88.9847 725.271 90.0026 725.271C91.0206 725.271 91.8788 724.492 91.8788 723.395ZM19.4416 593.65C18.8228 592.552 17.4852 591.693 16.4872 591.693C15.549 591.693 14.7706 592.552 14.7706 593.65C14.7706 594.668 16.0883 595.526 17.6452 595.526C19.282 595.526 20.0604 594.668 19.4416 593.65ZM940.287 557.861C940.287 556.843 939.429 555.984 938.411 555.984C937.393 555.984 936.535 556.843 936.535 557.861C936.535 558.879 937.393 559.737 938.411 559.737C939.429 559.737 940.287 558.879 940.287 557.861ZM946.994 461.491C946.914 457.04 946.056 453.067 945.038 452.528C942.942 451.51 941.305 462.588 942.942 466.78C944.958 472.089 947.074 469.276 946.994 461.491ZM16.6273 420.172C16.6273 417.737 12.3554 419.233 11.4172 422.028C10.9382 423.445 11.7966 423.825 13.6729 423.127C15.3097 422.508 16.6273 421.17 16.6273 420.172ZM952.284 416.419C950.428 413.305 948.232 415.022 949.17 418.835C949.949 421.649 950.647 422.108 951.745 420.311C952.523 418.994 952.843 417.197 952.284 416.419ZM16.5475 403.005C16.6273 402.227 15.7686 401.988 14.7706 402.707C13.6728 403.325 12.8944 405.261 12.8944 407.057C12.8944 409.792 13.1338 409.793 14.7706 407.378C15.6888 405.821 16.5475 403.863 16.5475 403.005ZM27.9447 403.624C27.9447 402.546 26.6076 401.769 25.0506 401.769C23.4937 401.769 22.2559 402.626 22.2559 403.624C22.2559 404.642 23.4937 405.5 25.0506 405.5C26.6076 405.5 27.9447 404.642 27.9447 403.624ZM942.703 399.892C943.242 397.856 942.463 395.221 941.066 394.043C939.589 392.866 938.332 392.647 938.252 393.505C938.172 394.363 937.872 396.997 937.633 399.353C937.094 404.562 941.365 405.042 942.703 399.892ZM16.6273 394.203C16.6273 393.185 15.8484 392.327 14.8504 392.327C13.9123 392.327 12.5752 393.185 11.8765 394.203C11.2577 395.221 12.116 396.06 13.6729 396.06C15.3097 396.06 16.6273 395.221 16.6273 394.203ZM941.685 388.115C940.527 384.442 930.926 383.903 930.926 387.496C930.926 389.512 932.723 390.451 936.695 390.451C940.527 390.451 942.224 389.672 941.765 388.115H941.685ZM35.43 355.519C35.43 353.883 34.5718 353.104 33.5538 353.722C32.5358 354.441 31.6776 355.679 31.6776 356.697C31.6776 357.636 32.5358 358.493 33.5538 358.493C34.5718 358.493 35.43 357.156 35.43 355.519ZM33.5538 346.956C33.5538 346.098 32.3164 345.32 30.7395 345.32C29.1826 345.32 27.9447 346.557 27.9447 348.034C27.9447 349.751 29.0229 350.369 30.7395 349.751C32.3164 349.132 33.5538 347.874 33.5538 346.956ZM32.6955 339.53C34.7315 336.257 32.3759 335.559 29.8209 338.673C28.3239 340.469 28.1644 341.566 29.4219 341.566C30.5198 341.566 31.9969 340.628 32.6955 339.53ZM845.315 175.952C845.933 174.934 845.155 174.076 843.518 174.076C841.881 174.076 840.644 174.934 840.644 175.952C840.644 177.05 841.422 177.83 842.36 177.83C843.358 177.83 844.696 177.05 845.315 175.952ZM830.264 168.467C830.883 167.449 829.646 166.591 827.53 166.591C825.434 166.591 823.637 167.449 823.637 168.467C823.637 169.485 824.895 170.345 826.372 170.345C827.849 170.345 829.646 169.485 830.264 168.467ZM823.637 152.339C823.637 150.762 822.779 149.984 821.761 150.623C820.683 151.241 820.364 152.559 820.903 153.497C822.54 156.152 823.637 155.693 823.637 152.339ZM357.136 24.5308C357.136 22.9738 356.278 21.7372 355.26 21.7372C354.182 21.7372 353.384 22.9738 353.384 24.5308C353.384 26.0877 354.242 27.3463 355.26 27.3463C356.278 27.3463 357.136 26.0877 357.136 24.5308ZM601.335 938.351C600.557 921.364 600.716 918.63 602.593 918.092C619.899 913.022 645.868 903.819 659.9 897.81C671.677 892.74 677.904 890.944 678.383 892.441C678.763 893.599 680.021 894.617 681.098 894.617C682.276 894.617 682.196 893.599 680.799 891.963C678.922 889.707 681.497 887.75 695.53 880.504C704.891 875.674 720.561 866.473 730.301 860.005L748.086 848.229L748.865 859.686C749.244 865.934 750.182 872.561 751.041 874.337C754.873 882.601 676.827 922.921 627.065 938.351C600.637 946.555 601.735 946.555 601.335 938.351ZM677.745 912.323C681.957 910.686 681.418 907.95 676.427 906.074C670.739 903.898 669.022 905.296 671.756 909.747C673.074 911.763 674.252 913.4 674.392 913.4C674.551 913.4 676.108 912.941 677.745 912.242V912.323ZM667.545 905.915C667.545 904.837 666.068 904.059 664.271 904.059C661.457 904.059 661.377 904.358 663.792 905.915C667.305 908.19 667.545 908.19 667.545 905.915ZM449.295 917.931C341.547 908.35 246.415 865.216 172.88 792.718C38.7039 660.319 3.77232 457.04 86.19 287.933C150.284 156.392 271.765 68.0452 420.132 45.1104C448.995 40.6791 512.071 40.5994 541.453 45.0507C744.733 75.5306 897.472 235.296 917.911 438.416C922.203 481.831 918.131 539.298 907.373 583.75C865.355 758.087 715.331 892.661 537.721 915.197C520.554 917.393 463.168 919.188 449.295 917.931ZM544.268 906.853C640.478 891.663 726.249 847.291 791.201 779.145C857.71 709.283 896.853 627.324 909.408 531.592C913.62 499.216 912.283 440.133 906.594 408.316C862.381 160.444 623.412 2.63444 379.672 60.4805C349.112 67.7262 322.984 77.1681 292.184 92.2185C57.0276 207.152 -23.1348 500.852 121.281 718.324C193.239 826.551 302.484 892.98 436.121 909.588C456.161 912.083 521.892 910.446 544.268 906.853ZM468.098 890.246C468.098 889.008 477.359 849.386 478.697 845.254C479.236 843.318 481.491 841.98 484.146 841.98C489.057 841.98 489.376 842.679 495.304 869.207C497.021 876.453 498.817 883.858 499.356 885.735C500.135 888.23 499.277 889.008 495.604 889.008C492.19 889.008 490.773 887.831 490.314 884.717C489.456 878.33 479.076 878.708 477.519 885.175C476.821 888.15 474.865 890.086 472.29 890.485C469.954 890.884 468.098 890.725 468.098 890.246ZM486.881 869.666C486.881 868.429 486.262 863.978 485.563 859.846C484.306 852.281 484.306 852.281 482.988 857.97C480.793 867.79 481.112 872.081 484.066 872.081C485.623 872.081 486.881 870.984 486.881 869.666ZM445.163 874.737C440.572 859.068 438.376 859.846 438.156 877.232C438.077 886.354 437.678 887.132 433.546 887.132C429.414 887.132 429.095 886.514 429.873 879.108C430.352 874.737 431.29 864.356 431.989 856.013C433.167 842.3 433.706 840.982 437.518 840.423C439.854 840.044 442.209 840.904 442.588 842.301C443.067 843.618 445.083 850.244 447.039 856.951L450.632 869.207L452.109 855.554C453.347 843.777 454.045 841.901 457.259 841.901C460.752 841.901 460.832 842.919 459.754 860.305C458.037 885.655 457.259 889.008 452.888 889.008C450.073 889.008 448.437 886.035 445.163 874.737ZM512.61 879.108C511.991 873.639 511.432 865.694 511.372 861.403C511.372 850.324 510.115 847.99 504.726 849.008C500.993 849.706 500.055 849.167 500.055 845.973C500.055 841.601 503.029 840.583 517.52 839.645C525.704 839.186 526.403 839.406 526.403 843.318C526.403 846.432 525.325 847.61 522.511 847.61C518.698 847.61 518.618 848.149 519.936 868.269C521.193 888.15 521.113 889.008 517.52 889.008C514.407 889.008 513.628 887.292 512.61 879.108ZM411.17 883.939C408.755 883.32 407.896 881.124 407.896 875.835C407.896 861.802 403.146 857.651 401.19 869.906C400.491 873.879 399.393 878.169 398.615 879.407C396.978 881.982 390.97 880.106 390.97 876.992C390.97 872.78 399.014 835.354 400.092 834.197C401.968 832.32 419.434 837.39 421.23 840.264C424.424 845.254 423.106 855.155 418.735 859.526C415.142 863.119 414.683 864.996 415.761 871.223C417.558 881.204 417.557 885.256 415.921 885.037C415.142 884.877 413.046 884.398 411.17 883.939ZM410.851 855.554C414.284 853.218 415.621 847.291 413.346 844.556C409.853 840.264 406.579 841.601 405.321 847.749C403.685 855.873 405.94 858.907 410.851 855.554ZM539.657 870.605C538.419 862.64 536.703 852.041 535.924 847.13C535.146 842.22 535.146 838.168 535.924 838.168C536.703 838.168 538.579 837.689 540.056 837.15C542.092 836.371 543.409 840.584 545.825 855.794C549.957 881.363 549.957 885.175 545.505 885.175C542.551 885.175 541.613 882.761 539.657 870.605ZM565.326 876.214C560.875 871.223 556.903 860.784 555.486 849.946C554.328 841.283 554.627 839.885 558.999 835.514C565.167 829.426 573.27 829.126 578.58 834.895C582.872 839.486 588.48 856.492 588.48 864.596C588.48 876.772 572.951 884.557 565.326 876.214ZM578.101 860.544C577.941 848.388 573.969 839.107 568.759 839.107C563.909 839.107 563.051 844.017 565.865 856.413C569.917 874.577 578.181 877.391 578.101 860.544ZM368.055 874.197C363.224 872.481 358.693 870.525 357.995 869.826C356.677 868.429 367.736 828.887 370.231 826.312C371.009 825.454 376.319 826.152 382.087 827.788C390.89 830.363 392.307 831.382 391.528 834.576C390.81 837.151 389.413 838.009 386.998 837.311C385.041 836.772 381.768 835.833 379.752 835.274C376.937 834.495 375.779 835.354 374.841 838.947C373.424 844.716 375.061 847.61 379.831 847.61C382.247 847.61 383.405 848.927 383.405 851.582C383.405 855.095 382.706 855.395 377.097 854.317C371.169 853.219 370.55 853.599 368.594 859.148C367.436 862.421 366.498 865.215 366.498 865.455C366.498 865.694 369.851 866.791 373.823 868.029C379.832 869.825 380.989 870.924 380.211 873.959C379.133 878.25 379.752 878.249 368.055 874.197ZM604.689 868.569C604.07 867.631 600.257 857.73 596.125 846.513C588.78 826.472 588.64 823.278 595.107 823.198C596.125 823.118 601.575 828.428 607.104 834.895C617.643 847.131 617.863 846.672 611.016 828.188C608.042 820.304 607.962 818.986 610.378 818.048C614.669 816.411 615.926 818.666 623.651 840.583C629.799 858.049 630.338 861.163 628.003 862.8C625.827 864.217 622.713 861.941 614.369 853.059C608.441 846.671 603.531 841.981 603.531 842.62C603.531 843.239 605.627 849.167 608.122 855.874C610.617 862.501 612.174 868.429 611.555 869.048C609.918 870.684 605.787 870.365 604.609 868.569H604.689ZM331.407 861.483C329.93 860.864 331.646 854.696 336.557 842.46C344.82 822.18 345.04 821.241 341.228 821.241C337.635 821.241 335.858 818.128 337.715 815.015C339.99 811.262 363.224 820.384 362.286 824.755C361.887 826.871 360.091 827.65 356.737 827.33C352.146 826.871 351.368 828.028 344.741 844.716C338.034 861.722 336.557 863.579 331.407 861.483ZM641.177 856.093C641.177 855.554 639.001 844.795 636.346 832.16C631.676 810.243 631.596 809.086 634.869 806.751C636.666 805.413 638.762 804.475 639.46 804.794C640.179 805.034 647.345 813.676 655.369 823.896C668.703 841.042 669.641 842.759 666.527 845.035C663.712 847.131 662.715 846.831 659.661 842.919C656.547 838.946 655.449 838.628 651.397 840.504C647.425 842.3 646.886 843.478 647.884 848.149C648.662 851.881 648.283 854.237 646.566 855.315C643.672 857.111 641.177 857.511 641.177 856.093ZM649.999 831.462C650.299 830.524 648.442 827.171 645.788 824.057C641.037 818.448 641.037 818.448 642.275 824.995C642.973 828.648 643.911 832.24 644.39 833.098C645.468 834.974 649.221 833.877 649.999 831.462ZM307.554 851.023C304.5 849.326 304.201 847.37 305.119 833.717L306.217 818.448L300.129 831.142C293.662 844.716 293.662 844.715 289.37 841.98C287.035 840.503 288.292 836.911 296.855 819.446C302.484 807.988 308.013 798.706 309.111 798.706C314.879 798.786 315.658 801.68 313.941 816.651C313.003 824.835 312.385 831.781 312.604 831.921C312.764 832.081 315.818 826.392 319.391 819.386C324.94 808.308 326.337 806.751 329.231 808.308C332.345 809.945 331.726 811.82 322.046 831.222C316.277 842.759 311.446 852.441 311.287 852.6C311.047 852.82 309.41 852.041 307.554 851.023ZM667.625 817.27C658.183 800.742 656.227 796.071 658.343 794.733C662.714 791.999 663.173 792.479 673.313 810.024C678.683 819.386 683.593 826.791 684.232 826.471C695.071 820.783 696.009 820.543 697.645 823.118C698.504 824.595 698.883 826.392 698.424 827.09C697.705 828.188 681.038 838.168 679.861 838.168C679.701 838.168 674.252 828.807 667.625 817.27ZM269.11 831.302C266.615 830.284 271.126 821.242 285.637 798.247C291.805 788.506 292.803 787.649 295.857 789.904C298.971 792.16 298.432 793.716 287.274 812.439C275.657 831.861 274.26 833.338 269.11 831.302ZM708.544 791.7C699.043 771.5 698.344 769.244 700.999 766.19C702.556 764.413 704.492 762.916 705.271 762.916C706.049 762.916 714.552 769.404 724.233 777.348C733.894 785.293 742.158 792.079 742.617 792.478C743.096 792.858 742.078 794.574 740.282 796.29C737.327 799.344 736.848 799.265 733.036 795.433C729.363 791.78 728.664 791.7 724.852 794.195C721.019 796.69 720.8 797.629 722.656 802.539C724.373 806.97 724.233 808.607 721.878 810.962C719.243 813.597 717.906 811.661 708.544 791.7ZM716.189 780.541C712.836 777.108 709.802 774.534 709.482 774.853C709.183 775.252 710.66 779.065 712.756 783.436C716.03 790.143 717.127 791.082 719.463 789.126C721.878 787.09 721.419 785.931 716.189 780.541ZM233.081 806.351C231.125 805.114 230.905 803.856 232.302 802.14C233.32 800.742 239.169 793.417 245.177 785.772C254.518 773.835 255.616 771.58 252.962 770.103C249.449 768.147 248.909 763.775 251.883 761.918C252.961 761.28 258.51 764.254 264.279 768.625C273.86 775.871 274.479 776.81 271.764 779.524C269.349 781.88 268.251 782.019 266.455 780.243C262.862 776.65 262.323 777.108 250.007 793.017C237.831 808.766 237.452 809.086 233.081 806.351ZM438.935 797.709C332.425 783.656 241.903 717.546 194.417 618.98C159.326 546.403 153.777 459.614 179.287 381.947C211.723 283.241 297.254 204.497 400.73 177.989C434.085 169.486 449.694 167.929 490.693 169.007C544.188 170.424 577.322 178.527 623.332 201.522C656.467 218.129 679.082 234.597 707.147 262.502C762.039 317.154 791.74 382.586 797.369 460.713C807.429 601.595 720.561 734.553 587.064 782.419C542.551 798.407 487.499 804.096 438.935 797.709ZM631.755 752.597C631.675 751.958 630.378 748.226 628.781 744.214C625.747 736.729 625.747 736.728 620.218 739.603C614.449 742.577 614.37 743.116 618.801 755.052C620.358 759.104 620.677 759.184 626.146 756.369C629.2 754.772 631.655 753.156 631.755 752.597ZM461.471 782.877C460.373 775.472 459.515 774.234 455.842 774.234C453.427 774.234 450.233 773.755 448.756 773.137C446.879 772.438 445.322 774.075 443.845 778.127C439.933 789.504 440.712 790.922 451.63 791.54C457.1 791.86 461.77 792 462.169 791.78C462.469 791.621 462.169 787.648 461.471 782.877ZM479.395 783.655C479.395 774.234 479.396 774.234 471.751 774.234C464.186 774.234 464.185 774.235 465.363 781.241C467.159 792.399 467.619 793.017 473.707 793.017C479.316 793.017 479.395 792.857 479.395 783.655ZM494.446 790.681C494.446 789.364 495.065 785.153 495.684 781.241C496.781 774.235 496.781 774.234 489.995 774.234C483.128 774.234 483.128 774.234 483.128 783.655C483.128 792.857 483.288 793.017 488.837 793.017C492.03 793.017 494.446 791.999 494.446 790.681ZM519.157 785.612C517.68 774.694 515.644 772.358 509.097 773.615C505.664 774.234 502.39 775.253 501.771 775.872C500.374 777.269 498.179 790.522 499.197 791.54C499.596 791.94 504.426 791.78 509.876 791.221C519.157 790.283 519.776 789.903 519.157 785.691V785.612ZM439.075 780.941C440.872 773.296 440.712 772.518 437.139 771.58C427.158 768.845 425.282 770.023 424.583 778.905C423.805 787.788 424.664 788.886 432.368 789.126C436.52 789.205 437.438 788.187 439.075 780.941ZM534.906 787.788C535.924 787.089 536.942 782.877 537.022 778.446C537.321 770.641 537.162 770.482 531.393 770.482C521.732 770.562 520.175 772.517 522.59 781.48C524.686 789.284 529.537 791.78 534.906 787.788ZM420.691 776.81C421.23 769.704 420.831 768.925 416 767.768C411.569 766.59 410.072 767.367 405.481 773.056C402.587 776.729 400.172 780.382 400.172 781.16C400.172 783.276 407.816 785.293 414.523 784.914C419.673 784.595 420.212 783.976 420.691 776.81ZM560.556 782.179C561.334 781.4 559.238 777.508 555.885 773.536C550.974 767.688 548.939 766.43 545.585 767.528C542.152 768.625 541.453 770.263 541.453 777.429C541.453 786.012 541.453 786.011 550.356 784.834C555.186 784.135 559.857 782.957 560.556 782.179ZM400.251 772.817L406.02 765.811L399.932 763.695C383.485 758.006 384.662 757.707 386.219 767.906C386.997 772.897 387.936 777.668 388.475 778.446C390.351 781.56 394.802 779.524 400.251 772.817ZM572.412 778.127C573.031 777.189 573.969 772.597 574.668 767.906C575.846 759.423 575.845 759.423 566.803 762.138C561.813 763.635 557.362 765.271 556.903 765.731C556.344 766.19 558.3 769.543 561.035 773.216C566.025 779.763 570.316 781.56 572.412 778.127ZM382.007 766.67C380.77 759.504 379.512 757.787 373.983 755.052C364.781 750.521 364.083 750.76 365.48 758.705C367.576 770.721 368.354 771.898 375.54 774.773C383.724 778.046 383.884 777.808 382.007 766.67ZM590.277 772.358C593.391 770.721 597.683 754.513 595.487 752.397C595.108 751.938 591.754 752.857 588.081 754.354C582.632 756.689 581.235 758.405 580.137 764.254C579.438 768.226 578.5 772.897 577.942 774.694C577.083 777.588 577.642 777.747 581.933 776.11C584.648 775.092 588.401 773.376 590.277 772.358ZM520.794 766.829C526.263 765.891 511.832 765.272 480.334 765.272C453.427 765.272 432.688 765.571 434.245 765.971C450.692 770.182 499.895 770.722 520.794 766.829ZM614.21 762.458C615.847 761.201 615.687 758.785 613.591 752.557C610.776 744.213 610.776 744.214 605.247 747.028C600.956 749.284 599.778 751.16 599.778 755.911C599.778 759.264 599.239 763.934 598.62 766.349C597.443 770.641 597.443 770.641 604.689 767.368C608.741 765.492 613.032 763.316 614.21 762.458ZM362.047 762.697C361.428 759.503 360.869 755.292 360.869 753.336C360.869 751.459 358.454 748.665 355.42 747.088C350.03 744.294 350.03 744.293 347.695 752.717C346.378 757.387 345.599 761.44 346.058 761.839C348.334 763.775 358.454 768.466 360.649 768.546C362.506 768.546 362.905 767.048 362.047 762.697ZM571.554 755.133C583.79 750.761 583.79 750.76 532.651 750.222C504.586 749.982 457.958 749.982 429.175 750.222C376.858 750.76 376.857 750.761 389.113 754.893C406.579 760.741 405.321 760.741 485.943 760.042C557.202 759.503 559.697 759.344 571.554 755.133ZM343.882 752.157C346.537 742.576 346.537 742.737 340.29 739.543C334.92 736.729 334.84 736.728 333.583 742.257C332.884 745.371 331.567 748.345 330.628 748.964C327.574 750.841 328.752 753.335 334.062 756.209C341.307 760.202 341.627 760.042 343.882 752.157ZM328.672 743.814C331.726 735.331 331.407 733.993 325.319 730.48C319.95 727.286 319.95 727.287 315.099 734.613C310.189 741.958 310.189 741.958 316.277 745.85C324.461 751.08 326.257 750.761 328.672 743.814ZM645.788 745.312C651.397 740.861 651.397 740.86 646.167 733.994C640.957 727.127 640.957 727.127 635.408 730.401C629.021 734.154 629.021 734.073 632.773 742.956C636.047 750.92 638.223 751.3 645.788 745.312ZM605.388 741.399L613.811 737.048L603.831 736.329C598.381 735.95 538.259 735.949 470.353 736.249C346.757 736.808 346.757 736.808 355.26 741.319C363.684 745.85 363.683 745.85 480.334 745.85C596.984 745.85 596.984 745.85 605.388 741.399ZM312.145 731.658C316.357 724.792 316.357 724.791 312.065 721.278C309.73 719.342 307.235 717.866 306.616 717.866C305.059 717.926 292.583 729.243 293.442 729.782C293.821 730.022 296.556 732.118 299.51 734.393C306.696 739.763 307.155 739.682 312.145 731.658ZM662.774 733.694C668.483 729.003 668.483 729.004 661.856 723.475C654.051 716.848 654.052 716.847 648.902 721.059C644.85 724.412 644.85 724.412 649.68 731.418C655.289 739.682 655.449 739.762 662.774 733.694ZM631.516 726.748C638.382 722.537 638.382 722.536 565.007 721.997C521.572 721.758 489.536 722.216 486.482 723.314C483.128 724.492 479.395 724.492 476.122 723.314C473.008 722.216 440.652 721.678 396.659 721.997C322.365 722.536 322.365 722.536 328.912 726.668C335.459 730.88 335.459 730.88 480.094 730.96C624.729 730.96 624.729 730.96 631.516 726.748ZM296.556 720.042C302.783 714.892 302.783 714.891 298.432 710.919C294.22 707.027 293.821 706.947 283.921 709.981L273.701 713.095L280.727 719.263C288.99 726.509 288.751 726.509 296.556 720.042ZM681.178 718.943L688.204 712.716L677.445 709.602C667.066 706.628 666.527 706.707 662.934 710.3C659.281 713.953 659.281 713.953 664.651 719.642C671.437 726.668 672.455 726.668 681.178 718.943ZM453.047 713.095C444.624 708.584 444.624 708.584 374.981 708.504C305.359 708.504 305.358 708.503 310.668 713.174C315.957 717.785 315.957 717.786 388.714 717.706C461.531 717.626 461.53 717.626 453.047 713.095ZM650.618 713.095C656.926 708.424 656.926 708.425 587.463 708.504C517.999 708.584 517.999 708.584 509.496 713.095C500.993 717.626 500.993 717.626 572.652 717.706C644.231 717.866 644.231 717.866 650.618 713.095ZM506.682 703.593C564.388 674.351 601.814 638.641 618.801 596.464C623.332 585.147 623.332 585.146 623.871 497.659L624.43 410.192L552.851 395.76L481.192 381.249L409.852 395.681C345.759 408.615 338.413 410.411 337.635 413.924C337.096 416.019 337.016 454.164 337.335 498.597C337.954 568.08 338.413 581.015 341.148 589.898C354.482 633.172 394.802 673.333 455.542 703.813C466.76 709.442 478.138 714.033 480.952 714.033C483.687 714.033 495.304 709.362 506.682 703.593ZM466.221 680.28C469.575 669.202 469.575 669.202 460.832 662.974L452.109 656.646L463.327 655.708C474.565 654.77 474.565 654.77 478.298 643.552L482.05 632.314L485.783 644.011C489.536 655.708 489.536 655.707 500.913 655.787C510.195 655.787 511.752 656.266 509.416 658.123C493.188 670.758 494.286 668.882 497.32 679.102C501.233 692.056 501.073 692.195 491.013 684.95C481.891 678.403 481.89 678.403 475.503 683.154C462.549 692.835 462.389 692.755 466.221 680.28ZM571.554 627.563C571.554 626.625 573.81 623.432 576.464 620.558C580.756 615.867 581.235 614.15 580.297 606.126C578.58 591.155 574.368 586.085 546.683 565.266C541.453 561.374 541.453 561.374 541.453 566.204C541.453 568.859 542.87 574.468 544.587 578.68C547.621 586.325 547.621 586.325 530.475 602.692C520.953 611.735 513.229 620.477 513.229 622.194C513.229 623.83 511.911 625.687 510.275 626.405C505.125 628.342 500.055 627.564 500.055 624.829C500.055 621.635 511.912 606.664 522.431 596.524C526.722 592.472 530.155 587.641 530.155 585.925C530.155 582.192 515.265 550.376 513.468 550.376C512.85 550.376 506.382 552.092 499.117 554.108C489.216 557.002 480.333 557.861 463.107 557.861C441.191 557.861 439.474 558.18 423.106 564.728C413.745 568.46 406.02 572.592 406.02 573.77C406.02 579.618 422.388 589.838 429.494 588.5C435.023 587.402 439.854 591.394 439.854 597.083C439.854 599.259 437.758 599.499 428.236 598.481C417.637 597.243 415.621 596.225 405.781 587.403C392.527 575.406 392.147 571.973 402.747 561.833L410.711 554.188L400.791 554.108C385.76 554.108 382.626 557.082 374.063 579.618C373.204 581.793 373.424 584.987 374.362 586.784C375.7 589.119 375.3 591.395 373.125 594.828C368.514 601.834 365.64 599.339 365.001 587.881C364.462 579.139 365.4 575.705 371.408 564.028C379.752 547.8 381.309 546.404 394.942 542.272L405.561 539.077L406.719 520.754C407.817 504.147 406.1 481.691 403.365 477.319C402.747 476.301 398.934 476.301 394.323 477.16C389.892 478.018 385.6 478.716 384.742 478.796C383.963 478.796 381.229 481.051 378.734 483.786C374.921 487.918 373.424 488.377 368.913 486.9C361.727 484.485 360.809 476.461 366.957 469.674C379.592 455.882 388.794 441.449 387.696 437.158C386.618 433.106 386.838 432.947 390.032 435.602C393.245 438.177 393.465 438.097 392.307 435.143C390.51 430.372 393.864 431.07 398.076 436.46C400.092 438.955 402.427 440.352 403.365 439.493C404.304 438.635 408.435 437.398 412.567 436.7C417.797 435.841 419.274 436.061 417.398 437.319C415.382 438.636 417.258 439.493 424.504 440.431C432.528 441.529 433.945 442.228 432.148 444.324C430.432 446.36 431.051 446.899 435.422 446.899C438.376 446.899 442.129 447.758 443.686 448.776C445.782 450.173 445.163 450.572 440.871 450.652C435.342 450.652 435.342 450.652 442.668 454.385C446.72 456.5 451.171 458.217 452.489 458.217C456.082 458.217 455.463 461.57 451.63 462.508C449.614 463.127 450.233 463.427 453.427 463.586C459.814 463.906 462.01 467.1 456.401 468.038C453.047 468.657 453.586 469.136 459.195 470.293C465.822 471.71 468.956 474.984 463.886 475.283C462.548 475.363 463.966 476.54 466.92 477.858C470.353 479.335 471.591 480.752 470.273 481.531C469.096 482.309 467.08 482.309 465.743 481.531C464.106 480.673 464.026 480.833 465.283 482.23C466.301 483.248 468.876 484.644 470.972 485.183C473.008 485.742 470.034 485.823 464.345 485.264L453.985 484.326L464.345 490.573C473.787 496.262 476.042 496.801 489.755 496.721C498.039 496.661 512.61 495.943 522.131 495.025C537.641 493.608 540.455 493.847 550.435 497.52C561.414 501.652 561.414 501.651 569.758 497.899C591.674 487.918 605.467 497.898 605.467 523.707C605.467 536.961 608.361 542.891 614.909 542.891C616.865 542.891 616.944 543.429 615.307 545.065C613.671 546.702 611.954 546.483 608.441 544.127C604.768 541.712 603.91 541.633 604.689 543.589C605.248 545.066 608.82 547.481 612.573 549.058C619.499 551.932 619.499 551.933 613.272 552.093C608.441 552.252 605.387 550.754 600.557 545.844C597.044 542.351 594.169 540.075 594.169 540.854C594.169 543.508 602.034 550.535 609.299 554.188C618.262 558.799 618.801 560.117 610.856 557.861C595.487 553.49 588.48 543.668 588.48 526.442C588.48 512.41 584.728 507.101 574.668 507.101C566.265 507.101 565.945 507.72 569.219 518.878C571.554 526.822 571.714 530.654 569.917 540.156C566.564 558.559 566.963 560.276 576.244 569.018C580.915 573.37 584.728 578.52 584.728 580.556C584.728 582.492 586.444 591.535 588.56 600.597C592.293 616.426 592.293 617.204 589.02 619.619C587.143 620.937 585.905 623.751 586.225 625.767C586.764 628.901 585.746 629.44 579.199 629.44C574.987 629.44 571.554 628.581 571.554 627.643V627.563ZM444.464 473.267C435.103 461.011 430.731 457.439 439.235 468.976C444.924 476.761 451.491 484.485 452.409 484.485C452.728 484.485 449.135 479.415 444.464 473.267ZM467.619 437.158C470.433 427.577 470.433 427.417 465.982 424.144C452.888 414.463 452.967 415.023 464.744 415.023C475.503 414.943 475.503 414.942 477.759 406.898C481.032 395.52 482.589 394.582 484.925 402.926C487.899 413.844 488.917 414.623 499.975 415.242L510.195 415.88L502.091 421.409C493.667 427.257 493.348 428.655 497.48 442.927C498.817 447.378 498.658 447.378 489.995 441.45L481.192 435.362L473.946 441.131C469.874 444.324 466.222 446.899 465.663 446.899C465.204 446.899 466.062 442.547 467.619 437.158ZM283.302 705.689L289.45 703.593L282.044 696.327L274.639 689.161L269.649 697.046C265.677 703.354 265.138 705.45 266.994 707.646C269.27 710.38 270.188 710.22 283.302 705.689ZM692.097 698.204C686.947 689.94 685.31 689.861 677.365 697.586L671.058 703.674L681.038 706.707C689.142 709.202 691.558 709.282 693.654 707.326C695.849 705.31 695.61 703.892 692.097 698.204ZM426.22 698.982C417.338 693.373 417.338 693.373 351.907 693.373C286.575 693.453 286.576 693.454 292.723 699.063C298.891 704.612 298.891 704.612 367.037 704.612L435.183 704.532L426.22 698.982ZM668.483 698.982C673.852 693.373 673.852 693.373 609.459 693.373C545.126 693.373 545.126 693.373 535.305 698.982L525.484 704.612H594.249C663.014 704.612 663.014 704.611 668.483 698.982ZM267.393 693.613C272.224 686.288 272.224 686.287 268.012 682.295C263.8 678.323 263.8 678.323 257.712 684.571C251.644 690.799 251.644 690.798 255.616 695.868C260.766 702.415 261.624 702.256 267.393 693.613ZM705.191 696.189C709.562 691.418 709.562 691.417 703.175 684.79C696.707 678.083 696.707 678.084 693.434 682.156C690.3 685.969 690.38 686.508 694.352 693.534C699.342 702.177 699.422 702.257 705.191 696.189ZM404.004 684.012C395.66 678.403 395.66 678.403 333.742 678.323C271.765 678.323 271.765 678.324 277.134 683.932C282.603 689.561 282.603 689.561 347.395 689.561H412.268L404.004 684.012ZM683.214 685.27C685.949 682.935 688.204 680.44 688.204 679.661C688.204 678.942 660.679 678.323 627.065 678.323C565.865 678.323 565.865 678.324 558.141 683.932L550.356 689.561H614.29C678.144 689.561 678.224 689.562 683.214 685.27ZM718.305 681.597C725.79 673.413 725.391 672.015 715.251 669.041C706.828 666.546 706.448 666.626 703.095 670.998C699.741 675.449 699.741 675.589 705.59 681.597C708.863 684.95 711.818 687.685 712.137 687.685C712.456 687.685 715.251 684.95 718.305 681.597ZM255.297 679.96C261.625 674.191 261.625 674.192 257.712 670.3C254.219 666.707 253.121 666.546 246.255 668.662C236.514 671.537 236.055 672.634 241.664 679.8C247.432 687.145 247.433 687.146 255.297 679.88V679.96ZM384.662 668.882C378.275 663.273 378.275 663.272 318.612 663.272C259.05 663.272 259.05 663.273 263.022 668.882C267.074 674.59 267.074 674.591 329.071 674.591H391.129L384.662 668.882ZM697.007 670.459C699.422 668.184 701.378 665.688 701.378 664.829C701.378 663.971 674.87 663.272 642.514 663.272C583.65 663.272 583.65 663.273 577.163 668.822C570.616 674.431 570.616 674.431 631.675 674.511C691.797 674.511 692.715 674.511 697.007 670.459ZM242.283 665.848C251.085 662.335 251.405 661.477 245.476 654.551C241.265 649.64 240.885 649.56 236.594 652.594C234.099 654.311 230.586 655.708 228.789 655.708C224.498 655.708 224.577 656.725 229.348 663.432C233.939 669.819 232.841 669.68 242.362 665.848H242.283ZM735.212 657.903C735.212 656.646 722.975 651.117 720.021 651.037C719.383 651.037 716.588 653.772 713.774 657.046C708.704 663.114 708.704 663.113 717.746 665.848C726.569 668.583 726.868 668.503 731 663.972C733.355 661.397 735.212 658.682 735.212 657.903ZM368.354 652.913C362.047 646.366 362.047 646.366 304.979 646.366C273.621 646.366 247.971 647.065 247.971 648.003C247.971 648.862 249.768 651.816 251.883 654.551C255.776 659.541 255.776 659.541 315.259 659.541H374.762L368.354 652.913ZM708.245 656.187C716.588 645.648 720.021 646.286 656.786 646.426C598.84 646.585 598.84 646.586 593.471 653.053L588.161 659.541H646.885C700.6 659.541 705.909 659.221 708.245 656.187ZM744.573 643.013C744.653 641.756 743.635 640.657 742.397 640.657C741.14 640.657 737.946 638.641 735.292 636.067C730.541 631.456 730.541 631.455 726.169 638.941C721.878 646.426 721.878 646.426 730.002 650.099C738.106 653.692 738.106 653.692 741.3 649.56C743.096 647.285 744.573 644.331 744.573 643.073V643.013ZM236.434 647.444C238.61 645.269 238.23 643.792 234.178 637.704C230.266 632.095 229.109 631.236 228.17 633.731C227.472 635.448 224.118 637.863 220.685 639.1C214.378 641.376 214.378 641.376 218.27 646.825C221.623 651.496 223.021 652.215 228.011 651.197C231.205 650.558 235.037 648.861 236.434 647.444ZM354.96 636.925C350.749 631.316 350.749 631.316 293.661 631.316C236.514 631.316 236.514 631.316 239.867 636.925C243.141 642.534 243.141 642.533 301.147 642.533C359.093 642.533 359.092 642.534 354.96 636.925ZM721.798 636.925C725.95 631.316 725.95 631.316 668.623 631.316C611.316 631.316 611.316 631.316 607.344 636.925C603.291 642.534 603.292 642.533 660.439 642.533C717.606 642.533 717.606 642.534 721.798 636.925ZM222.322 633.033C228.17 628.422 228.57 625.687 223.879 619.918C220.446 615.706 220.446 615.707 214.677 623.112C210.246 628.741 209.228 631.236 210.625 633.731C213.04 637.943 216.314 637.784 222.322 633.033ZM751.041 633.95C752.138 631.076 747.467 622.812 742.318 618.521C740.441 616.964 739.124 617.743 736.769 621.955C733.815 627.105 733.814 627.563 737.407 632.174C741.619 637.543 749.244 638.481 751.041 633.95ZM213.659 617.822C221.624 607.842 219.827 603.95 206.493 602.073C201.263 601.375 196.592 601.215 196.133 601.674C194.956 602.772 204.856 625.608 206.413 625.548C207.032 625.468 210.306 622.034 213.659 617.822ZM345.838 624.13C345.838 623.351 344.501 620.856 342.865 618.521C339.99 614.389 339.751 614.389 283.601 614.389C227.232 614.389 227.232 614.389 230.126 619.998C233.081 625.607 233.081 625.607 289.45 625.607C320.409 625.607 345.838 624.988 345.838 624.13ZM731.858 619.998C735.072 614.389 735.072 614.389 678.224 614.389C621.456 614.389 621.456 614.389 618.182 619.998C614.988 625.607 614.988 625.607 671.836 625.607C728.664 625.607 728.665 625.607 731.858 619.998ZM760.402 615.248C767.109 601.136 767.029 600.816 755.492 602.313C743.954 603.791 745.431 603.092 743.954 607.923C742.777 611.495 750.961 625.388 754.314 625.548C754.953 625.608 757.667 620.937 760.402 615.248ZM337.335 607.304C336.637 605.507 335.539 602.532 335.06 600.736C334.222 597.702 329.77 597.383 276.755 597.383C222.861 597.383 219.448 597.622 220.765 600.736C221.464 602.532 222.562 605.507 223.021 607.304C223.879 610.338 228.33 610.577 281.346 610.577C335.22 610.577 338.653 610.338 337.335 607.304ZM739.044 605.726C740.062 603.091 740.92 600.117 740.92 599.179C740.92 598.101 718.305 597.383 684.611 597.383C628.402 597.383 628.402 597.383 626.286 603.311C625.208 606.585 624.27 609.558 624.27 609.938C624.27 610.257 649.68 610.577 680.719 610.577C737.248 610.577 737.247 610.576 739.044 605.726ZM211.024 592.253C209.387 588.34 207.81 584.907 207.511 584.608C206.254 583.27 191.603 592.792 192.221 594.588C192.7 596.225 200.964 598.241 210.785 599.019C213.739 599.259 213.739 598.8 211.024 592.253ZM766.71 596.385C770.921 595.128 769.284 592.553 761.579 588.181C754.014 583.989 754.015 583.99 751.2 590.617C749.643 594.269 748.405 597.782 748.405 598.321C748.405 599.339 761.879 597.862 766.71 596.385ZM331.168 588.041C330.309 582.352 330.309 582.353 271.445 582.353C212.581 582.353 212.581 582.352 214.677 588.041C216.873 593.65 216.873 593.65 274.4 593.65C332.026 593.65 332.026 593.65 331.168 588.041ZM746.21 588.9C747.467 586.245 748.405 583.67 748.405 583.191C748.405 581.714 631.755 582.352 631.755 583.829C631.755 584.608 631.197 587.103 630.578 589.438C629.48 593.65 629.48 593.65 686.727 593.65C744.034 593.65 744.034 593.651 746.21 588.9ZM198.549 583.989C204.537 580.316 204.936 579.458 203.759 573.211C203.06 569.478 202.281 566.125 201.902 565.725C200.964 564.807 185.914 575.166 185.914 576.883C185.914 579.697 189.566 588.041 190.824 588.041C191.523 588.041 194.956 586.244 198.549 583.989ZM774.135 581.873C775.911 575.944 775.692 575.566 767.967 570.716C759.943 565.725 759.943 565.725 757.907 571.514C755.172 579.538 755.172 579.617 762.039 584.049C770.302 589.358 771.939 589.039 774.135 581.873ZM328.832 574.387C328.832 565.265 329.611 565.346 266.375 565.885L206.972 566.364L209.527 572.511C212.102 578.599 212.102 578.599 270.507 578.599C328.912 578.599 328.912 578.599 328.832 574.387ZM751.899 573.849C753.076 571.194 754.094 568.221 754.094 567.223C754.094 566.125 730.78 565.426 693.893 565.426H633.631V578.599H691.717C749.723 578.599 749.723 578.6 751.899 573.849ZM197.371 562.771C199.407 561.454 199.946 559.497 199.088 557.002C197.99 553.968 196.353 553.409 189.506 553.888C184.975 554.268 180.924 554.746 180.604 555.046C180.305 555.445 181.003 559.178 182.161 563.469C184.437 572.132 183.718 572.133 197.371 562.771ZM779.744 563.39C782.159 554.507 781.061 553.569 769.763 554.507C759.863 555.286 759.304 559.956 768.506 566.204C772.418 568.939 776.071 571.035 776.69 571.035C777.249 571.035 778.646 567.602 779.744 563.39ZM328.513 555.526C329.152 550.376 329.151 550.376 265.836 550.376C208.828 550.376 202.601 550.694 203.619 553.329C204.237 554.966 204.697 557.541 204.697 559.038C204.697 561.294 213.899 561.673 266.375 561.214C327.974 560.735 327.974 560.735 328.513 555.526ZM755.951 560.276C755.951 559.497 756.51 556.923 757.128 554.588C758.226 550.376 758.226 550.376 695.929 550.376C633.631 550.376 633.631 550.375 633.631 556.064C633.631 561.673 633.632 561.673 694.831 561.673C728.445 561.673 755.951 561.054 755.951 560.276ZM192.001 548.499C196.752 548.499 196.992 548.12 195.894 542.431C194.417 534.307 194.556 534.386 185.993 536.961C177.251 539.616 176.233 540.715 177.809 546.484C178.588 549.677 179.826 550.456 182.86 549.597C185.056 549.059 189.107 548.499 191.922 548.499H192.001ZM783.716 545.545C784.175 542.571 782.478 540.774 776.55 538.139C767.727 534.147 765.392 535.644 765.312 545.305C765.312 550.455 765.552 550.615 774.275 549.976C781.62 549.597 783.257 548.739 783.716 545.545ZM326.956 546.622V533.449H262.942C199.008 533.449 199.008 533.449 200.265 538.599C200.884 541.493 201.822 544.447 202.281 545.225C202.681 546.003 230.905 546.622 265.058 546.622H326.956ZM760.402 543.668C761.021 542.031 761.579 539.078 761.579 537.042C761.579 533.608 759.384 533.449 697.566 533.449C633.632 533.449 633.631 533.449 633.631 538.758C633.631 541.712 634.171 544.687 634.869 545.386C635.568 546.084 663.872 546.622 697.706 546.622C752.138 546.622 759.384 546.243 760.402 543.668ZM786.67 532.99C787.309 530.654 787.848 526.283 787.848 523.309C787.848 518.259 787.529 518.019 781.999 519.117C778.806 519.736 774.674 520.274 772.798 520.274C770.782 520.274 769.145 522.071 768.586 525.026C767.807 529.098 768.825 530.255 775.452 533.289C785.433 537.98 785.353 537.98 786.67 532.99ZM188.648 531.592C197.99 527.999 194.018 521.133 181.383 519.257C172.101 517.86 172.101 517.86 173.358 524.028C174.057 527.381 174.596 531.433 174.596 532.91C174.596 535.865 178.428 535.485 188.648 531.592ZM326.956 529.716V516.542H262.084C197.212 516.542 197.212 516.542 197.212 521.831C197.212 524.805 197.77 527.76 198.469 528.459C199.088 529.097 228.33 529.716 263.341 529.716H326.956ZM763.436 527.381C763.436 526.043 763.995 523.09 764.614 520.754C765.791 516.463 765.792 516.462 700.201 517.001C638.622 517.4 634.55 517.699 633.931 520.893C632.214 529.796 631.276 529.716 699.422 529.716C749.324 529.716 763.436 529.157 763.436 527.381ZM190.824 509.436C190.205 505.624 189.646 498.836 189.646 494.385C189.646 486.441 189.646 486.442 180.225 486.442C170.863 486.442 170.863 486.441 171.023 495.323C171.322 510.134 172.959 513.568 180.305 514.905C192.301 517.001 192.141 517.081 190.824 509.436ZM787.229 513.648C788.546 513.269 789.724 507.64 790.104 499.696L790.742 486.442H770.921V501.572C770.921 516.682 770.921 516.682 778.027 515.524C781.919 514.905 786.051 514.047 787.229 513.648ZM327.435 508.119C327.974 505.544 327.894 502.969 327.355 502.43C326.736 501.871 296.855 501.492 260.846 501.492C195.275 501.492 195.275 501.492 195.275 507.101C195.275 512.71 195.275 512.71 260.926 512.71C326.497 512.71 326.497 512.71 327.435 508.119ZM765.312 510.055C765.312 508.658 765.791 506.083 766.49 504.446C767.508 501.791 760.941 501.492 700.6 501.492C633.632 501.492 633.631 501.492 633.631 507.101C633.631 512.71 633.632 512.71 699.422 512.71C755.033 512.71 765.312 512.331 765.312 510.055ZM326.956 492.05C326.956 486.441 326.956 486.442 261.146 486.442C195.275 486.442 195.275 486.441 195.275 492.05C195.275 497.659 195.275 497.659 261.146 497.659C326.956 497.659 326.956 497.659 326.956 492.05ZM767.189 492.05C767.189 486.441 767.189 486.442 700.44 486.442C633.632 486.442 633.631 486.441 633.631 492.05C633.631 497.659 633.632 497.659 700.44 497.659C767.189 497.659 767.189 497.659 767.189 492.05ZM189.267 468.357C189.726 455.722 189.567 454.864 185.515 453.766C173.039 450.412 170.863 453.446 170.863 473.567C170.863 482.849 170.863 482.848 179.746 482.309C188.708 481.691 188.708 481.691 189.267 468.357ZM324.001 481.531C325.798 480.832 326.956 478.178 326.956 474.905C326.956 469.515 326.956 469.515 261.146 469.515H195.275V482.609H258.191C292.723 482.609 322.365 482.15 324.001 481.531ZM752.757 481.452C767.109 480.274 767.189 480.194 767.189 474.824C767.189 469.435 767.188 469.435 700.919 469.994C638.682 470.373 634.55 470.692 633.931 473.886C632.214 482.689 632.215 482.688 686.867 482.688C715.251 482.688 744.893 482.15 752.757 481.452ZM789.964 467.639C789.644 459.854 789.165 453.227 788.786 452.828C788.387 452.448 784.175 452.748 779.504 453.387C770.921 454.704 770.921 454.704 770.921 466.401C770.921 480.353 773.037 483.008 783.017 482.309C790.423 481.75 790.423 481.751 789.964 467.639ZM326.956 460.094C326.956 454.465 326.956 454.464 261.146 454.464C195.275 454.464 195.275 454.465 195.275 460.094C195.275 465.782 195.275 465.782 261.146 465.782C326.956 465.782 326.956 465.782 326.956 460.094ZM766.49 462.728C765.871 461.091 765.312 458.596 765.312 457.119C765.312 454.863 755.033 454.464 699.422 454.464C633.632 454.464 633.631 454.465 633.631 460.094C633.631 465.782 633.632 465.782 700.6 465.782C760.941 465.782 767.508 465.463 766.49 462.808V462.728ZM191.523 448.316C191.602 447.059 192.141 442.687 192.78 438.715C194.017 431.389 194.018 431.39 184.736 432.707C173.818 434.344 175.234 433.266 173.678 441.609C172.34 448.536 172.341 448.536 179.586 449.314C183.578 449.713 187.85 450.172 189.187 450.412C190.505 450.571 191.523 449.634 191.523 448.316ZM326.956 445.043C326.956 439.414 326.956 439.414 262.084 439.414C197.212 439.414 197.212 439.414 197.212 445.043C197.212 450.732 197.212 450.732 262.084 450.732C326.956 450.732 326.956 450.732 326.956 445.043ZM764.933 445.502C764.374 440.352 764.374 440.353 698.963 439.814C633.632 439.335 633.631 439.334 633.631 445.043C633.631 450.652 633.632 450.652 699.582 450.652C765.552 450.652 765.552 450.652 764.933 445.502ZM782.398 448.776C787.389 448.776 787.848 448.237 787.848 442.309C787.848 434.744 787.069 434.124 776.151 432.567C767.887 431.469 767.887 431.469 768.586 438.715C769.684 449.254 770.622 451.191 773.975 449.954C775.612 449.315 779.344 448.776 782.398 448.776ZM271.764 433.725C326.956 433.725 326.956 433.726 326.956 429.055C326.956 424.304 326.956 424.304 263.501 424.763C200.026 425.302 200.026 425.302 199.407 430.771C198.768 436.141 198.768 436.141 207.671 434.983C212.501 434.285 241.344 433.725 271.764 433.725ZM762.897 433.027C763.057 432.787 762.817 430.771 762.198 428.496C761.101 424.364 761.101 424.363 697.326 424.363C633.632 424.363 633.631 424.363 633.631 428.734C633.631 431.15 633.931 433.485 634.41 433.884C635.188 434.663 762.039 433.805 762.897 433.027ZM193.699 426.479C194.337 425.781 195.495 422.427 196.273 418.914C197.611 412.446 197.61 412.447 188.568 413.685C178.728 415.102 176.552 417.038 176.472 424.603C176.472 429.434 176.791 429.593 184.516 428.575C188.868 428.036 193 427.098 193.699 426.479ZM784.973 423.825C783.177 415.561 783.177 415.482 775.532 414.084C771.859 413.386 767.568 412.368 766.011 411.749C763.835 410.891 763.516 411.828 764.454 416.099C767.029 427.717 767.189 427.876 775.293 428.575C779.664 428.974 783.876 429.433 784.734 429.673C785.592 429.832 785.752 427.257 784.973 423.904V423.825ZM327.655 417.737C326.736 415.242 318.452 414.942 264.359 415.401C216.633 415.801 201.982 416.419 201.423 418.216C200.804 420.092 214.298 420.551 264.659 420.551C321.107 420.551 328.593 420.232 327.655 417.737ZM759.703 417.737C759.703 415.242 751.899 414.942 697.246 415.401C649.381 415.801 634.709 416.419 634.091 418.216C633.472 420.092 646.806 420.551 696.468 420.551C751.679 420.551 759.703 420.232 759.703 417.737ZM191.443 408.076C192.541 406.978 186.692 397.317 184.576 396.619C183.658 396.299 182.021 399.493 180.844 403.704C178.808 411.349 178.808 411.349 184.736 410.112C187.93 409.393 190.984 408.475 191.443 408.076ZM326.956 407.537C326.956 405.581 328.054 403.484 329.291 403.005C330.629 402.466 303.422 402.147 268.87 402.307C206.114 402.706 206.114 402.706 204.537 406.898C202.9 411.109 202.9 411.109 264.978 411.109C324.86 411.109 326.956 411.03 326.956 407.537ZM757.747 409.393C757.747 401.688 758.386 401.769 694.592 401.769C633.632 401.769 633.631 401.768 633.631 406.438C633.631 411.109 633.632 411.109 695.689 411.109C732.178 411.109 757.747 410.411 757.747 409.393ZM782.079 408.774C781.999 407.536 780.902 403.545 779.664 399.972L777.328 393.565L773.197 400.212C768.127 408.475 768.127 408.774 773.276 409.792C781.061 411.269 782.239 411.189 782.079 408.774ZM200.884 399.273C200.964 397.397 198.229 391.927 194.956 387.097C188.948 378.454 188.948 378.454 187.231 383.584C185.754 388.035 186.452 390.29 191.762 398.015C197.91 407.057 200.884 407.457 200.884 399.273ZM770.702 396.619C776.31 389.373 776.63 388.355 774.275 383.903C771.7 379.073 771.699 379.073 765.791 387.577C761.021 394.363 760.023 397.237 760.941 401.848C761.58 405.041 762.657 406.898 763.376 406.119C764.074 405.261 767.348 400.99 770.702 396.619ZM373.045 393.345C393.784 388.894 393.784 388.893 301.785 389.213C209.846 389.512 209.846 389.512 208.29 393.724C206.733 397.936 206.733 397.935 279.549 397.855C348.793 397.776 353.384 397.637 373.045 393.345ZM754.014 396.219C754.014 388.355 756.669 388.574 660.219 388.734C568.759 388.973 568.759 388.973 588.48 393.265C607.024 397.317 612.653 397.557 681.098 397.776C724.293 397.856 754.014 397.237 754.014 396.219ZM205.475 372.606C203.679 369.472 200.964 365.42 199.327 363.564C196.592 360.35 196.353 360.429 194.018 364.481C190.505 370.889 190.984 373.463 197.531 383.823L203.379 393.265L206.034 385.7C208.369 379.073 208.29 377.596 205.475 372.606ZM768.586 367.376C765.871 359.431 764.155 359.572 757.907 368.614C752.298 376.818 752.218 377.037 755.093 383.903L758.066 390.929L764.215 381.808C769.524 374.003 770.143 371.827 768.586 367.376ZM432.308 381.168C448.277 377.675 448.277 377.675 331.247 377.516C266.854 377.356 214.138 377.675 214.138 378.054C214.138 378.533 213.599 380.171 212.961 381.808C211.962 384.523 221.623 384.762 314.101 384.682C406.419 384.682 417.876 384.302 432.308 381.168ZM748.944 381.029C747.926 377.357 746.449 377.276 630.118 377.516C513.149 377.675 512.371 377.675 527.341 380.949C540.595 383.903 554.867 384.303 646.167 384.522C749.025 384.842 749.883 384.762 748.944 381.029ZM744.653 370.649C744.653 368.234 725.95 367.835 592.373 367.835C492.889 367.835 439.713 367.216 438.935 365.979C438.157 364.721 488.757 364.102 589.339 364.102C672.695 364.102 740.84 363.623 740.84 362.924C740.84 362.305 737.008 354.441 732.257 345.539C718.764 319.89 696.627 292.064 672.695 270.527L663.792 262.502H299.13L289.849 269.828C278.152 279.109 257.173 302.344 245.875 318.652C238.31 329.491 219.747 361.288 219.747 363.404C219.747 363.783 268.012 364.102 326.956 364.102C397.217 364.102 434.245 364.801 434.245 365.979C434.245 367.216 396.898 367.835 326.018 367.835C231.524 367.835 217.871 368.234 217.871 370.649C217.871 373.145 249.229 373.464 481.272 373.464C713.315 373.464 744.653 373.145 744.653 370.649ZM214.377 364.183C217.491 356.777 217.491 356.697 211.803 347.734L206.114 338.673L202.361 346.317C198.689 353.962 198.689 353.963 203.998 362.785C206.972 367.696 209.847 371.588 210.306 371.588C210.865 371.588 212.661 368.235 214.377 364.183ZM761.579 353.184C761.579 349.511 755.951 339.391 754.394 340.389C753.695 340.868 751.12 344.921 748.705 349.372C744.493 357.236 744.413 357.795 747.467 364.881L750.581 372.206L756.031 363.943C759.085 359.352 761.579 354.501 761.579 353.184ZM223.879 344.84C227.472 337.195 225.515 330.888 218.589 328.313C215.854 327.216 213.439 326.597 213.2 326.916C208.609 332.605 208.609 336.177 213.359 343.363C216.154 347.575 218.969 350.929 219.667 350.929C220.366 350.929 222.242 348.193 223.879 344.84ZM747.687 343.363C751.979 336.816 752.378 335.179 750.501 331.047C748.785 327.215 747.467 326.516 744.114 327.455C739.343 328.932 735.212 333.463 735.212 337.275C735.212 340.09 740.441 350.929 741.839 350.929C742.238 350.929 744.972 347.575 747.687 343.363ZM237.832 315.838C236.674 314.581 232.761 313.022 229.188 312.404C223.26 311.306 222.242 311.786 219.208 316.936C215.775 322.704 215.775 322.704 220.446 324.5C223.021 325.498 226.134 328.074 227.312 330.349C229.348 334.162 229.648 333.922 234.718 326.138C238.61 320.05 239.468 317.475 237.832 315.838ZM734.054 329.252C734.593 327.695 737.247 325.578 739.902 324.64C745.511 322.465 745.671 321.366 740.98 315.298C737.707 311.007 737.008 310.847 729.762 313.023C720.88 315.677 720.56 316.696 726.249 325.578C731 332.764 732.417 333.463 734.054 329.252ZM249.449 305.079L255.377 296.895L245.556 295.797C236.274 294.859 235.416 295.178 230.745 300.707C225.675 306.715 225.675 306.716 233.56 309.829C237.831 311.546 241.903 313.023 242.522 313.103C243.061 313.263 246.255 309.59 249.449 305.079ZM733.195 303.98C727.886 295.018 726.489 294.24 716.588 295.557C711.279 296.256 706.987 297.274 706.987 297.754C706.987 298.292 709.482 301.885 712.616 305.777C718.225 312.883 718.225 312.883 726.568 309.829C733.195 307.494 734.593 306.236 733.195 303.98ZM262.403 288.552C268.251 283.003 268.012 282.005 259.369 277.633C252.023 273.881 252.024 273.881 245.397 281.845C238.85 289.63 238.85 289.789 242.902 291.047C251.245 293.462 258.111 292.604 262.403 288.552ZM717.906 291.047C722.197 289.789 722.197 289.709 715.411 281.765C708.484 273.74 708.484 273.74 701.618 277.872C697.865 280.128 694.432 282.224 693.973 282.623C693.514 282.943 695.15 285.358 697.566 287.933C702.077 292.683 708.544 293.702 717.906 291.047ZM276.834 274.598C282.204 269.908 282.204 269.907 277.134 262.183L272.064 254.559L263.88 262.582C255.616 270.686 255.616 270.686 260.766 273.261C263.561 274.738 266.614 276.694 267.632 277.712C270.128 280.128 270.826 279.888 276.834 274.598ZM698.105 275.138L705.191 270.846L697.645 263.52C690.38 256.335 690.08 256.275 686.408 259.549C680.32 265.078 679.781 269.748 684.532 274.898C689.761 280.367 689.362 280.368 698.105 275.138ZM290.548 262.263C294.52 258.531 294.6 257.831 292.184 253.3C286.416 242.781 286.416 242.702 280.487 247.612C275.038 252.143 275.038 252.143 279.868 259.149C285.557 267.413 285.158 267.333 290.548 262.263ZM686.248 252.762C686.248 252.063 683.753 249.648 680.719 247.452C675.11 243.48 675.11 243.48 671.278 249.707C666.527 257.512 666.527 258.29 671.756 262.502C675.888 265.855 676.048 265.855 681.098 260.007C683.913 256.733 686.168 253.46 686.248 252.762ZM313.463 253.999C315.658 249.249 315.658 249.249 310.049 253.381C303.422 258.291 303.263 258.77 307.854 258.77C309.81 258.77 312.305 256.574 313.463 253.999ZM330.15 247.531L336.158 236.453L329.611 240.286C326.018 242.382 321.427 247.452 319.311 251.424C315.658 258.769 315.658 258.77 319.949 258.69C323.143 258.69 325.559 256.035 330.15 247.531ZM344.501 247.931C348.094 241.923 352.385 234.358 354.102 230.925C357.136 224.837 357.136 224.837 350.509 228.051C345.599 230.386 341.767 234.737 336.317 244.179C332.265 251.345 328.832 257.512 328.832 257.911C328.832 258.37 330.928 258.69 333.423 258.69C337.016 258.69 339.431 256.275 344.501 247.852V247.931ZM355.819 254.319C361.108 246.135 375.919 218.609 375.38 218.07C374.981 217.671 371.947 218.909 368.514 220.625C363.843 223.06 359.871 228.19 353.084 240.586C348.014 249.788 343.882 257.593 343.882 257.992C343.882 260.866 353.383 257.912 355.819 254.319ZM381.628 235.217C388.714 222.741 393.784 212.361 393.006 212.062C387.237 210.026 381.229 216.414 370.85 235.536C364.861 246.674 359.632 256.494 359.232 257.352C358.853 258.29 360.869 258.69 363.683 258.371C368.135 257.832 370.709 254.559 381.628 235.217ZM398.615 231.863C412.567 207.231 413.046 206.053 408.215 207.231C405.481 207.85 402.587 208.788 401.888 209.167C400.331 210.025 373.983 255.796 373.983 257.673C373.983 258.371 376.239 258.69 378.973 258.371C383.265 257.832 386.139 253.919 398.615 231.863ZM414.683 230.465C423.186 215.495 429.953 203.02 429.733 202.781C429.494 202.541 426.839 203.02 423.805 203.878C419.274 205.116 415.92 209.567 403.844 230.606C395.8 244.498 389.253 256.574 389.173 257.433C389.114 258.291 391.369 258.69 394.103 258.371C398.455 257.832 401.349 253.999 414.683 230.465ZM429.175 230.146C438.157 214.477 445.083 201.223 444.624 200.744C444.145 200.285 441.889 200.445 439.474 201.064C436.36 201.843 431.131 209.328 420.132 228.67C402.048 260.487 402.747 258.69 408.356 258.69C412.348 258.69 415.222 254.698 429.175 230.146ZM436.201 238.49C442.668 227.332 450.473 214.158 453.427 209.088C459.355 199.187 459.435 198.17 453.906 199.667C451.63 200.285 446.021 208.149 439.474 219.766C433.546 230.306 426.14 243.401 422.947 248.79C417.717 257.832 417.557 258.69 420.831 258.69C423.406 258.69 427.697 253.002 436.201 238.49ZM454.904 230.306C473.946 196.612 473.387 198.029 467.938 198.808C464.505 199.347 459.894 205.654 447.119 227.651C437.997 243.161 430.592 256.495 430.512 257.273C430.512 258.051 432.368 258.69 434.723 258.69C438.157 258.61 441.73 253.54 454.904 230.306ZM467.379 233.579L480.873 209.407L488.837 223.28C493.268 230.845 499.516 241.683 502.789 247.372C507.46 255.556 509.876 257.912 514.087 258.371C519.397 258.989 519.397 258.989 514.706 250.885C487.659 203.559 484.465 198.489 481.192 198.489C478.777 198.489 473.387 206.054 462.868 224.378C441.191 261.884 442.348 259.069 448.596 258.371C453.187 257.832 455.543 254.698 467.379 233.579ZM474.724 246.914C481.272 234.897 480.952 234.817 489.456 249.788C493.428 256.734 495.604 258.69 499.356 258.69C502.011 258.69 503.887 257.991 503.488 257.133C501.612 252.203 482.05 219.147 481.112 219.147C480.174 219.147 461.071 251.983 458.975 257.273C458.576 258.211 460.613 258.69 463.487 258.371C467.619 257.832 469.874 255.557 474.645 246.914H474.724ZM488.757 257.673C488.757 255.417 482.909 245.516 481.571 245.516C480.174 245.516 473.707 255.416 473.707 257.592C473.707 258.211 477.14 258.69 481.272 258.69C485.403 258.69 488.757 258.212 488.757 257.673ZM532.032 257.911C532.032 257.512 524.626 244.179 515.504 228.27C502.869 206.293 497.959 199.267 494.825 198.808C492.49 198.488 490.614 198.808 490.614 199.507C490.614 200.206 498.039 213.858 507.081 229.747C520.634 253.54 524.307 258.69 527.82 258.69C530.155 258.69 532.032 258.291 532.032 257.911ZM543.33 257.512C543.33 256.813 536.463 244.099 528.04 229.208C514.487 205.195 507.38 196.233 504.506 199.108C503.727 199.886 525.485 239.268 535.066 254.478C537.561 258.291 543.33 260.486 543.33 257.512ZM558.061 256.894C557.761 255.956 550.655 243.321 542.391 228.829C531.174 209.008 526.263 202.161 522.91 201.303C520.415 200.664 518.059 200.524 517.68 200.903C517.281 201.303 524.227 214.477 533.11 230.146C547.222 255.017 549.877 258.69 554.009 258.69C556.584 258.69 558.38 257.912 558.061 256.894ZM573.43 257.911C573.43 256.973 549.956 214.637 546.064 208.629C543.948 205.275 531.094 200.824 532.81 204.017C533.888 205.973 548.32 231.323 556.284 245.036C562.751 256.115 565.087 258.69 568.82 258.69C571.315 258.69 573.43 258.37 573.43 257.911ZM588.48 257.512C588.48 256.115 568.121 219.767 563.689 213.3C560.795 209.088 550.815 204.577 550.815 207.531C550.815 208.709 562.971 231.004 572.492 247.153C577.881 256.275 580.217 258.69 583.87 258.69C586.365 258.69 588.48 258.131 588.48 257.592V257.512ZM603.531 257.512C603.531 256.893 598.221 247.153 591.754 235.915C582.632 220.086 578.799 215.096 574.528 213.619C571.474 212.521 568.819 211.903 568.52 212.142C568.2 212.442 571.873 219.468 576.544 227.732C581.295 235.915 587.223 246.294 589.718 250.645C593.151 256.654 595.407 258.69 598.92 258.69C601.415 258.69 603.531 258.131 603.531 257.512ZM618.581 257.512C618.581 256.893 614.29 249.009 609.14 239.967C601.974 227.571 598.062 222.9 593.151 220.485C585.586 216.892 585.287 217.512 590.117 225.556C592.053 228.749 597.124 237.551 601.495 245.036C607.882 256.194 610.238 258.69 613.97 258.69C616.466 258.69 618.581 258.21 618.581 257.512ZM632.913 255.876C629.799 247.772 618.023 232.183 613.032 229.608C609.839 227.971 607.264 227.193 607.264 227.891C607.264 228.59 611.176 235.835 615.926 243.939C623.092 256.115 625.348 258.69 629.34 258.69C632.693 258.69 633.692 257.912 632.913 255.876ZM642.753 251.504C640.478 247.532 636.187 242.941 633.312 241.224C627.224 237.711 626.925 238.17 630.817 244.657C632.374 247.212 634.949 251.425 636.506 253.999C638.063 256.574 641.037 258.69 643.133 258.69C646.886 258.69 646.885 258.61 642.753 251.504ZM653.353 254.937C651.476 252.842 649.221 251.205 648.363 251.205C647.504 251.205 647.804 252.842 649.141 254.937C650.379 256.973 652.654 258.69 654.131 258.69C656.147 258.69 656.007 257.832 653.353 254.937ZM305.358 250.726C308.951 248.39 311.906 245.975 311.906 245.436C311.906 244.877 308.013 242.463 303.262 240.207C291.406 234.438 288.132 237.013 293.821 247.452C295.997 251.504 298.033 254.937 298.352 254.937C298.572 254.937 301.785 253.001 305.358 250.726ZM667.385 248.071C670.739 242.382 671.058 240.746 669.022 238.81C666.986 236.933 664.81 237.312 657.485 240.665L648.442 244.877L654.67 249.788C662.715 256.195 662.634 256.195 667.385 248.071ZM321.347 238.869C324.081 235.596 324.301 235.915 315.818 230.765C309.73 227.112 309.111 227.032 304.041 230.066C298.731 233.18 298.731 233.18 306.775 237.392C316.356 242.462 318.313 242.622 321.347 238.869ZM656.706 236.773C663.014 233.579 663.014 233.58 657.006 229.608C652.335 226.554 651.876 226.633 644.451 231.544C637.205 236.314 636.965 236.773 640.258 239.189C643.911 241.843 647.804 241.304 656.706 236.773ZM625.987 223.439C616.785 207.072 616.306 206.433 611.475 204.257C607.184 202.301 607.344 202.86 613.891 215.016C619.5 225.396 626.206 232.721 631.436 234.039C631.835 234.198 629.34 229.368 625.987 223.439ZM332.425 222.042C335.619 216.353 338.273 211.283 338.273 210.724C338.273 209.486 326.257 215.714 318.852 220.704C313.542 224.297 313.542 224.298 319.79 228.27C323.223 230.546 326.177 232.322 326.337 232.322C326.497 232.322 329.231 227.731 332.425 222.042ZM343.563 223.439C349.651 214.717 355.42 202.241 353.244 202.241C348.793 202.241 332.645 225.156 332.645 231.384C332.645 233.819 340.13 228.27 343.563 223.439ZM643.293 227.492C648.662 224.697 648.822 224.377 645.548 222.202C637.285 216.653 624.19 209.727 624.19 210.804C624.19 213.22 634.629 230.465 636.047 230.465C636.905 230.465 640.179 229.128 643.293 227.492ZM608.9 213.998C601.894 201.303 598.541 197.47 592.612 195.754C588.56 194.516 588.64 194.976 594.868 206.214C600.337 216.035 608.441 223.838 614.369 224.756C614.669 224.756 612.174 219.926 608.9 213.998ZM366.418 207.45C369.771 201.382 372.027 195.914 371.488 195.295C368.135 191.942 357.755 204.497 349.97 221.404C349.571 222.122 351.827 221.723 354.801 220.625C358.613 219.228 362.206 215.095 366.418 207.45ZM589.099 203.798C584.349 194.896 574.908 186.952 572.173 189.686C569.997 191.862 583.251 211.503 588.081 213.14C590.896 214.158 593.471 214.636 593.85 214.317C594.17 214.077 592.054 209.327 589.099 203.798ZM375.221 211.583C379.353 210.186 382.167 206.832 385.98 199.108C391.129 188.588 391.129 188.588 386.838 189.766C384.423 190.384 381.927 190.923 381.229 190.923C380.051 191.003 368.354 210.584 368.354 212.6C368.354 213.918 368.913 213.858 375.221 211.583ZM393.704 205.195C398.375 203.239 401.509 199.886 405.002 192.96C409.853 183.359 409.852 183.358 404.623 184.616C401.728 185.314 398.774 186.172 398.076 186.552C396.519 187.49 385.361 207.931 386.458 207.931C386.918 207.931 390.191 206.672 393.704 205.195ZM575.306 206.912C575.306 206.373 573.191 201.762 570.696 196.772C567.342 190.145 564.388 187.031 560.017 185.554C556.743 184.376 553.709 183.677 553.39 184.057C551.513 185.853 563.689 204.337 567.821 205.814C573.43 208.01 575.306 208.229 575.306 206.912ZM414.124 200.365C416.24 200.365 427.697 181.962 426.38 180.644C426.06 180.325 423.406 180.404 420.611 181.023C417.098 181.642 414.064 184.536 410.771 190.065C405.242 199.427 404.702 203.159 408.994 201.522C410.631 200.903 412.967 200.365 414.124 200.365ZM556.504 201.224C556.504 200.665 554.408 196.153 551.913 191.163C548.399 184.297 545.984 181.802 542.012 181.023C539.118 180.484 536.463 180.245 536.164 180.644C534.607 182.121 545.505 200.205 548.479 200.984C553.469 202.301 556.504 202.381 556.504 201.303V201.224ZM433.466 195.994C436.201 192.101 443.606 179.467 443.606 178.768C443.606 178.209 441.51 177.83 438.855 177.83C435.262 177.83 432.767 179.925 428.556 186.632C425.442 191.463 422.947 196.234 422.947 197.172C422.947 198.489 432.448 197.391 433.466 195.994ZM534.527 188.589C530.395 180.864 528.12 178.608 524.068 178.149C517.76 177.43 517.76 177.59 523.13 188.129C527.182 196.233 529.297 197.869 536.383 198.249C539.437 198.488 539.198 197.391 534.527 188.589ZM517.441 186.013C513.468 179.306 510.734 176.732 507.161 176.273C502.23 175.714 502.231 175.713 507.221 185.154C510.973 192.101 513.548 194.755 516.981 195.135C523.449 195.993 523.449 196.313 517.441 186.013ZM453.906 186.552C459.754 176.651 459.754 175.952 454.445 175.952C451.331 175.952 448.836 178.448 444.924 185.394C439.634 194.756 439.634 194.756 444.384 194.756C447.977 194.756 450.233 192.799 453.906 186.552ZM463.487 192.181C463.487 192.102 465.822 188.349 468.637 183.918C473.786 175.953 473.787 175.952 469.096 175.952C465.603 175.952 463.247 177.989 459.674 184.137C457.019 188.588 454.904 192.88 454.904 193.658C454.904 194.676 463.108 193.259 463.407 192.181H463.487ZM507.62 193.658C507.62 193.119 505.364 188.828 502.71 184.297C499.037 177.989 496.702 175.952 493.188 175.952C489.995 175.952 488.977 176.651 489.915 178.288C497.64 191.322 500.534 194.756 503.887 194.756C505.903 194.756 507.54 194.277 507.54 193.658H507.62ZM479.935 190.544C480.573 188.668 481.272 188.668 483.288 190.544C484.625 191.782 487.659 192.88 490.074 192.88C494.286 192.88 494.286 192.879 489.216 184.376C482.909 173.857 479.076 173.996 472.609 184.835C467.858 192.879 467.858 192.88 473.467 192.88C476.501 192.88 479.475 191.782 479.935 190.544ZM216.014 792.079C213.978 789.584 213.978 788.267 216.014 784.514C217.95 780.782 217.95 779.384 216.014 777.029C212.96 773.376 210.545 773.456 206.174 777.348C202.9 780.302 202.521 780.303 199.547 777.429C197.83 775.712 196.832 773.915 197.291 773.536C197.77 773.137 206.892 766.67 217.651 759.185C236.594 745.931 237.213 745.69 240.566 749.043C243.84 752.397 243.6 753.175 232.921 772.118C219.827 795.213 219.208 795.991 216.014 792.079ZM228.011 764.873C231.604 758.785 231.604 758.705 228.091 760.661C220.446 764.793 217.332 767.987 218.729 770.263C220.765 773.616 224.039 771.819 228.011 764.873ZM740.601 775.312C720.321 753.256 719.243 751.699 722.437 748.585C724.852 746.09 726.948 747.727 740.521 762.537C756.43 779.923 757.528 781.879 753.536 784.993C751.819 786.311 748.326 783.596 740.601 775.312ZM749.324 754.354L732.417 738.445L740.521 730.72C747.228 724.333 749.484 723.235 753.695 724.253C760.562 725.97 765.632 731.259 765.931 737.187C766.171 741.319 767.967 742.816 776.151 746.169C786.61 750.361 787.608 751.699 783.337 755.292C781.221 757.009 779.045 756.61 773.037 753.576C759.005 746.39 755.571 749.124 766.33 758.945C771.78 763.855 772.638 765.572 770.861 767.768C769.604 769.245 768.047 770.402 767.428 770.322C766.789 770.322 758.606 763.077 749.324 754.354ZM757.448 741.479C758.306 737.267 754.474 732.836 750.102 732.836C744.573 732.836 743.875 736.488 748.545 741.399C753.316 746.469 756.509 746.469 757.448 741.479ZM178.808 756.209L171.801 749.583L207.511 715.59L213.659 722.297C221.384 730.72 221.783 738.445 214.757 743.974C212.102 746.09 208.669 747.867 207.272 747.867C205.874 747.867 204.697 749.443 204.697 751.459C204.697 756.07 196.133 762.916 190.285 762.916C187.79 762.916 182.8 760.042 178.808 756.209ZM196.912 748.105C197.91 740.54 194.018 738.824 188.488 744.453C182.8 750.142 184.038 753.954 191.203 753.096C194.876 752.716 196.433 751.299 196.912 748.105ZM208.609 738.365C212.8 736.109 213.28 732.277 209.687 729.323C206.114 726.269 197.99 734.772 201.343 738.046C204.078 740.78 204.078 740.78 208.609 738.365ZM777.169 728.304C753.775 710.22 754.873 712.096 762.278 703.972C769.364 696.267 776.47 694.931 783.796 700.081C790.343 704.672 792.299 711.378 788.866 718.245C786.051 723.854 786.131 724.013 792.678 729.782C798.447 734.772 799.086 736.03 796.97 738.605C794.714 741.32 792.598 740.241 777.169 728.304ZM782.239 711.617C782.239 706.707 773.815 703.274 769.843 706.548C767.029 708.883 767.348 709.662 772.957 714.352C779.424 719.722 782.159 718.943 782.239 711.617ZM161.502 736.568C159.626 735.47 159.626 734.852 161.502 733.694C163.059 732.756 161.981 731.499 158.148 729.942C146.771 725.111 149.885 712.876 165.634 701.019C179.207 690.799 185.994 689.481 192.381 695.789C198.15 701.558 198.549 708.185 193.479 714.273C190.285 718.006 189.507 718.244 187.85 715.829C186.772 714.272 186.453 711.778 187.072 710.221C191.443 699.303 184.277 698.204 171.243 707.805C161.043 715.211 157.769 720.5 161.202 723.854C164.476 727.127 172.66 722.536 171.482 718.085C170.005 712.476 175.694 711.538 179.207 716.847C180.764 719.342 182.161 722.137 182.161 723.154C182.161 726.268 163.997 738.125 161.502 736.568ZM795.812 699.063C779.265 688.304 776.151 680.359 785.193 671.317C791.521 664.989 800.084 666.247 813.338 675.369C827.39 685.03 830.344 692.754 823.478 701.477C817.789 708.803 809.844 708.105 795.812 699.063ZM817.789 696.327C822.001 691.277 804.216 676.367 793.776 676.367C783.876 676.367 790.742 687.066 805.713 695.01C814.595 699.621 814.974 699.681 817.789 696.327ZM136.312 701.398C133.816 698.903 135.234 697.047 143.098 692.137C147.47 689.402 151.362 686.906 151.681 686.587C152.08 686.348 151.222 683.932 149.805 681.297C147.31 676.527 147.31 676.527 138.427 682.076C127.828 688.703 128.207 688.623 125.792 684.012C124.076 680.818 126.032 679.182 144.036 668.743C155.194 662.255 164.855 656.646 165.554 656.267C166.253 655.868 167.75 657.204 168.827 659.22C170.544 662.334 169.686 663.513 162.44 667.805C154.575 672.316 154.176 673.013 156.132 677.305C158.707 682.994 158.707 682.994 167.889 677.305C174.995 673.013 180.225 673.413 180.225 678.323C180.225 679.88 142.1 702.655 139.365 702.655C138.347 702.655 137.03 702.117 136.312 701.398ZM815.613 663.972L795.333 653.692L799.385 645.728C804.136 636.386 805.852 635.049 812.958 634.969C820.044 634.969 825.354 638.022 827.31 643.312C828.707 646.905 830.803 647.843 840.404 648.921C851.163 650.099 851.702 650.418 849.846 653.911C848.129 657.264 846.632 657.584 836.652 656.406C823.099 654.929 821.921 657.504 833.538 663.353C843.359 668.343 842.74 667.724 841.342 671.377C839.626 675.828 837.989 675.369 815.613 663.972ZM819.905 650.099C819.905 645.109 814.595 641.296 810.843 643.711C805.853 646.825 806.172 649.639 811.701 652.514C817.709 655.707 819.905 655.089 819.905 650.099ZM114.714 660.698C109.664 655.329 109.504 648.063 114.255 642.235C117.688 638.023 118.067 637.943 121.201 641.057C124.315 644.091 124.315 644.41 120.962 648.142C117.688 651.735 117.688 652.215 120.563 655.089C123.457 657.983 123.916 657.983 127.269 655.009C129.225 653.212 131.321 648.303 131.88 644.011C133.756 629.899 146.232 623.352 154.715 631.935C157.37 634.51 159.565 638.641 159.565 641.057C159.565 645.648 154.795 653.772 152.14 653.772C149.186 653.772 148.328 648.063 150.583 644.33C152.38 641.516 152.38 640.198 150.504 638.402C146.611 634.51 141.86 639.1 140.064 648.302C137.03 664.051 123.836 670.519 114.714 660.698ZM102.478 635.588C100.761 633.891 100.921 627.483 102.638 627.403C103.416 627.323 105.592 626.166 107.548 624.689C112.618 620.856 108.646 614.309 101.16 614.309C95.9308 614.309 91.7192 610.017 94.2941 607.442C95.6115 606.125 142.479 600.277 143.338 601.295C143.737 601.674 144.595 603.869 145.294 606.045C146.292 609.399 144.036 611.495 129.066 620.936C119.485 626.945 109.804 633.033 107.708 634.35C105.512 635.747 103.177 636.306 102.478 635.588ZM126.65 613.211L134.136 608.461L125.712 609.718C115.273 611.195 114.255 611.815 115.652 615.248C117.069 618.981 117.848 618.84 126.65 613.211ZM838.688 627.403C820.523 620.237 817.949 619.919 817.949 624.769C817.949 627.324 812.18 628.581 809.984 626.405C809.066 625.467 816.691 603.63 818.647 601.674C820.823 599.498 825.194 603.95 824.895 608.082C824.655 612.434 826.053 613.372 841.961 619.46C855.056 624.45 859.347 626.865 859.347 629.44C859.347 634.969 857.471 634.749 838.688 627.403ZM86.0304 502.57C89.3039 490.494 89.3042 490.493 79.7829 483.247L70.2016 475.982L82.5972 475.443C95.0726 474.904 95.0726 474.904 98.426 463.666C100.302 457.518 102.398 452.449 103.097 452.449C103.816 452.449 105.911 457.518 107.787 463.666C111.221 474.904 111.221 474.904 123.536 475.443L135.852 475.982L126.271 483.247C116.75 490.493 116.75 490.493 120.263 502.11C122.199 508.418 123.776 513.887 123.776 514.127C123.776 514.426 119.165 511.552 113.476 507.72C103.097 500.853 103.097 500.853 95.1524 506.322C90.781 509.276 86.1902 512.41 84.9327 513.188C83.3757 514.187 83.695 510.833 86.0304 502.57ZM838.688 512.331C838.688 510.914 840.005 505.624 841.562 500.474C844.776 490.035 844.916 490.334 830.185 479.335C824.576 475.204 824.575 475.204 837.131 475.124C849.686 475.064 849.686 475.064 853.898 462.349L858.109 449.633L862.161 461.87C866.293 474.126 866.293 474.126 879.308 475.064C892.262 475.982 892.262 475.981 885.555 480.193C872.76 488.157 871.743 490.253 875.176 502.03C876.813 507.719 878.21 512.869 878.21 513.488C878.21 514.187 873.699 511.392 868.169 507.26L858.189 499.935L848.429 507.341C843.059 511.393 838.688 513.648 838.688 512.331ZM181.163 276.455C158.627 258.77 158.627 258.77 154.495 263.82C150.423 268.75 150.284 268.81 146.531 265.477C142.1 261.405 142.32 260.865 155.494 244.098C164.696 232.321 164.695 232.322 169.147 235.915C173.438 239.428 173.518 239.727 170.324 243.16C168.528 245.196 167.051 247.612 167.051 248.55C167.051 249.488 176.792 257.752 188.708 266.794C200.645 275.916 210.306 284.099 210.306 284.958C210.306 285.816 208.829 288.232 207.032 290.347C203.759 294.16 203.539 294.001 181.163 276.455ZM732.637 262.822C728.665 258.371 728.445 259.229 736.629 242.302C749.882 215.016 749.883 215.176 733.894 231.005C725.79 238.95 718.225 245.576 717.127 245.576C716.029 245.576 713.694 244.019 712.057 242.222C709.263 239.028 710.58 237.391 733.275 215.874C746.609 203.239 758.306 192.88 759.224 192.88C760.163 192.88 762.438 194.517 764.215 196.453C767.648 200.205 766.65 203.159 751.739 233.339C748.246 240.286 749.104 239.727 763.216 225.854C778.486 210.804 778.486 210.804 782.698 215.176C786.91 219.467 786.91 219.467 762.518 242.781C749.024 255.636 737.567 266.175 736.928 266.175C736.31 266.255 734.353 264.679 732.637 262.822ZM219.447 251.345C216.952 249.409 207.351 239.588 198.229 229.608C181.542 211.424 181.542 211.423 185.754 207.291C189.886 203.239 189.886 203.239 209.387 223.439C220.066 234.598 229.348 243.64 230.047 243.64C233.699 243.64 238.55 239.268 238.55 236.074C238.55 233.959 230.825 224.058 220.685 213.3C210.864 202.78 202.821 193.259 202.821 192.101C202.821 190.923 204.617 188.907 206.892 187.49C210.784 185.075 211.962 185.933 226.773 201.603C252.722 229.128 255.377 236.613 243.46 248.55C235.975 256.035 226.773 257.133 219.447 251.345ZM693.813 224.837C689.302 221.404 689.222 221.344 692.496 214.637C696.468 206.214 696.787 207.53 689.841 202.46C684.072 198.109 684.072 198.11 678.144 203.878C672.296 209.487 672.136 209.488 667.924 206.054C665.669 204.178 663.713 202.162 663.713 201.603C663.713 200.126 716.03 157.09 717.746 157.17C718.525 157.25 721.259 158.966 723.674 160.982C728.205 164.735 728.205 164.735 714.473 195.834C706.907 212.92 700.201 227.252 699.582 227.651C698.963 228.05 696.388 226.793 693.813 224.837ZM707.147 185.075L712.995 173.457L705.59 179.306C694.432 188.129 692.875 190.464 695.689 193.818C699.502 198.409 700.999 197.251 707.147 185.075ZM251.644 192.72C241.185 177.131 232.921 164.097 233.24 163.797C242.043 156.771 255.696 149.605 260.367 149.605C271.525 149.605 281.266 162.081 279.549 173.997C278.771 179.147 279.869 180.564 290.548 188.668C297.095 193.578 302.484 198.109 302.484 198.808C302.484 199.427 300.368 201.383 297.714 203.16C292.963 206.214 292.723 206.134 282.823 197.71C277.294 192.959 271.904 189.127 270.826 189.127C266.295 189.127 267.074 193.339 273.481 203.02C280.487 213.539 280.567 215.874 274.259 219.228C271.046 220.944 268.551 218.07 251.644 192.72ZM267.932 175.254C269.19 171.362 263.341 162.161 259.05 161.302C257.572 161.063 254.758 161.92 252.802 163.317C249.449 165.813 249.529 166.212 254.439 174.635C258.97 182.42 259.908 183.059 263.181 181.023C265.197 179.785 267.313 177.211 267.932 175.254ZM316.197 188.589C314.021 185.155 289.37 130.423 289.37 128.945C289.37 127.528 298.891 122.778 299.829 123.717C300.208 124.096 302.943 129.804 306.057 136.511C311.686 148.667 311.686 148.667 311.766 140.942C312.145 122.778 314.101 115.691 319.63 112.797C324.94 110.062 324.94 110.063 323.762 125.972L322.664 141.88L338.034 156.312C346.457 164.177 353.324 171.283 353.324 172.061C353.324 172.84 351.048 174.476 348.333 175.714C343.563 177.909 342.705 177.43 332.645 167.529C326.876 161.761 321.506 157.629 320.808 158.327C318.392 160.743 319.391 168.547 323.223 175.952C328.054 185.314 327.974 186.173 322.365 188.748C318.852 190.385 317.375 190.305 316.277 188.589H316.197ZM636.905 188.668C633.931 186.472 634.789 184.137 647.424 160.603C661.137 134.934 661.137 134.933 655.848 131.819C649.84 128.306 649.52 127.229 652.954 122.538C655.289 119.425 656.546 119.744 671.677 128.088C687.026 136.511 687.725 137.129 685.869 141.421C683.453 146.551 682.036 146.79 676.188 142.978C671.896 140.163 671.756 140.323 658.582 165.114C651.237 178.847 644.071 190.305 642.674 190.544C641.256 190.844 638.681 189.985 636.905 188.668ZM592.852 170.024C582.392 167.15 576.305 155.214 580.137 145.154C580.995 142.898 582.313 142.738 586.924 144.295C591.435 145.932 592.293 147.11 591.435 150.544C590.038 156.232 596.745 162.539 601.256 159.665C606.964 156.152 606.106 148.667 598.92 138.228C592.293 128.627 591.435 125.891 592.213 118.566C593.471 107.487 604.07 99.0051 613.731 101.42C620.757 103.217 627.843 110.302 628.941 116.689C630.338 124.414 627.843 127.529 621.695 125.972C617.803 125.033 616.705 123.556 616.705 119.504C616.705 110.781 606.405 109.982 604.309 118.566C603.531 121.6 605.168 125.751 609.998 132.758C620.438 147.888 620.997 155.912 612.413 165.274C607.423 170.803 601.036 172.36 592.852 170.024ZM360.949 137.828C357.456 122.079 353.863 107.189 353.004 104.854C351.747 101.34 352.306 100.243 356.278 98.7656C366.099 95.013 367.276 95.9501 377.716 117.627C383.185 129.025 388.016 138.287 388.395 138.287C388.794 138.287 388.874 127.608 388.634 114.434C388.095 90.6611 388.095 90.6615 394.483 88.9449C397.916 88.0866 401.19 87.7666 401.729 88.2456C402.747 89.2437 416 136.651 418.196 147.27C419.354 152.639 418.895 153.577 414.364 155.294C411.569 156.392 409.074 157.01 408.834 156.691C408.595 156.392 405.781 146.012 402.587 133.616L396.659 111.001L397.137 135.493C397.517 159.964 397.517 159.965 392.846 160.364C388.634 160.744 387.237 158.887 378.893 141.102C373.823 130.263 369.372 121.6 369.152 121.92C368.833 122.239 370.79 131.58 373.424 142.818C377.476 159.825 377.875 163.477 375.7 164.815C368.753 169.246 367.576 166.991 361.029 137.828H360.949ZM548.08 155.294C547.462 154.356 550.116 139.066 554.009 121.46C560.955 89.4832 561.034 89.403 566.184 89.403C568.979 89.403 571.714 90.1017 572.253 90.96C573.031 92.2175 562.512 142.499 559.079 153.817C558.061 157.33 549.957 158.408 548.08 155.294ZM436.36 122.777C432.927 78.0253 431.53 82.5369 449.774 81.3792C458.257 80.9002 465.363 80.6013 465.602 80.6812C465.742 80.8409 466.461 83.176 467.159 85.8906C468.317 90.6612 468.018 90.8207 457.878 92.1381C447.339 93.4555 447.339 93.4556 447.339 101.959C447.339 110.462 447.338 110.462 456.321 109.763C464.804 109.204 465.283 109.364 465.822 114.194C466.381 118.965 465.902 119.265 458.337 119.824C450.233 120.443 450.233 120.442 449.614 130.262L449.055 140.164L460.453 139.006C471.83 137.749 471.83 137.748 471.83 143.437C471.83 148.986 471.751 149.045 459.116 150.223C436.36 152.399 438.855 155.453 436.36 122.777ZM515.025 146.551C514.007 143.837 511.293 134.555 508.937 125.812C506.682 117.169 504.187 110.063 503.488 110.063C502.789 110.063 501.612 118.566 500.913 128.945C499.516 148.826 498.658 150.623 491.871 148.906C487.2 147.728 487.2 146.491 492.729 98.3064C494.685 81.1402 495.065 79.9818 499.117 79.9818C505.285 79.9818 506.761 82.6969 512.849 104.294C518.458 124.415 520.634 125.192 520.714 107.028C520.714 102.816 521.273 95.4122 521.971 90.6615C523.049 82.3978 523.369 81.998 528.04 83.0958C530.774 83.7146 533.11 84.3336 533.269 84.4932C533.429 84.5731 532.411 98.2266 531.014 114.834C529.616 131.361 528.359 146.412 528.359 148.208C528.199 153.897 517.281 152.559 515.025 146.551ZM750.961 858.508C750.342 857.43 750.661 855.794 751.679 854.776C754.014 852.441 761.719 853.458 761.579 856.013C761.42 858.668 752.378 860.784 750.961 858.508ZM781.061 850.404C780.443 848.847 778.646 847.61 777.169 847.61C775.053 847.61 774.594 846.352 775.452 842.839C776.311 839.566 775.851 838.168 774.055 838.168C772.558 838.168 770.462 836.991 769.205 835.514C767.508 833.498 768.127 832.081 772.258 828.807C775.133 826.551 781.62 820.863 786.53 816.172C791.521 811.501 795.952 807.988 796.431 808.467C796.89 808.927 795.653 810.882 793.537 812.739C789.026 816.891 788.547 823.118 792.838 823.118C794.954 823.118 795.573 824.296 794.794 827.09C794.095 829.985 794.794 831.302 797.449 832C803.297 833.557 801.641 839.267 793.157 846.513C784.494 853.998 782.618 854.536 781.061 850.404ZM789.804 841.901C789.804 840.903 788.946 840.045 787.848 840.045C786.83 840.045 785.972 840.903 785.972 841.901C785.972 842.999 786.83 843.777 787.848 843.777C788.946 843.777 789.804 842.999 789.804 841.901Z" fill="#8550DC"/>
</svg>
