<svg width="955" height="562" viewBox="0 0 955 562" fill="none" xmlns="http://www.w3.org/2000/svg">
<path fill-rule="evenodd" clip-rule="evenodd" d="M19.7816 555.449C9.90269 550.31 4.08266 542.97 1.91741 532.252C0.15815 524.617 -0.518291 479.102 0.429004 446.213C0.834988 432.706 0.83512 421.987 0.564464 328.314C0.158481 180.903 0.293676 175.765 3.8122 174.15C5.70679 173.269 6.11205 172.388 4.75877 172.241C0.969589 171.653 0.699792 167.983 0.564464 102.794C0.429137 30.263 0.97025 23.3626 8.81927 13.2318C18.8335 -0.129106 21.5405 -0.422967 127.638 0.164326C180.551 0.311149 249.703 0.752193 281.234 0.752193C312.766 0.899016 341.997 1.04433 346.057 1.04433C356.207 1.19116 493.429 1.33812 540.117 1.1913C561.363 1.1913 598.443 1.33855 622.531 1.6322C646.755 1.92585 668.408 1.92585 670.98 1.6322C674.227 1.33855 675.716 2.51285 675.987 5.00885C676.393 8.38578 676.528 8.38607 677.204 5.30278C677.745 2.80679 680.451 1.92599 686.812 1.77917C691.684 1.77917 718.208 1.92628 745.679 2.0731C773.286 2.0731 821.192 2.21992 852.182 2.0731C924.312 2.0731 931.215 2.80757 941.365 11.617C955.709 23.9501 954.897 12.2043 954.491 200.725C954.491 271.347 954.356 354.449 954.356 385.428C954.22 546.347 954.761 539.886 940.687 551.778C931.756 559.413 923.772 561.763 909.292 561.028C904.149 560.882 896.84 560.735 892.781 560.881C862.332 562.056 846.769 561.176 847.175 558.24C847.31 556.478 846.228 556.77 844.198 558.973C842.033 561.322 839.598 561.764 836.485 560.589C834.05 559.562 830.396 559.414 828.366 560.148C826.336 561.029 794.804 561.469 757.995 561.322C721.321 561.175 669.626 560.881 643.237 560.881C616.712 560.881 548.236 560.736 490.857 560.589C433.343 560.442 382.595 560.295 377.994 560.295C373.528 560.295 347.681 560.295 320.615 560.295C215.466 560.442 196.383 560.148 195.977 558.24C195.707 557.065 194.084 557.065 192.325 558.24C189.889 559.708 38.7271 561.029 29.5248 559.561C28.3069 559.267 23.9768 557.505 19.7816 555.449ZM13.149 404.955C13.4197 403.781 12.4739 403.194 11.2559 403.928C10.0379 404.369 9.09045 403.635 9.36111 402.313C9.49644 400.845 9.22499 400.258 8.54835 400.699C6.51843 402.314 8.68427 408.774 10.8495 407.893C12.0675 407.305 13.0137 405.983 13.149 404.955ZM410.202 11.323C409.661 9.56116 408.985 8.09335 408.579 8.09335C408.037 7.94653 407.63 9.26722 407.359 11.0291C407.089 12.791 407.767 14.2588 408.849 14.2588C409.932 14.4056 410.608 13.2317 410.202 11.323ZM121.411 543.41C192.188 543.851 358.507 544.145 443.899 543.998C527.532 543.851 568.265 544.439 572.596 545.907C575.032 546.788 577.197 546.788 577.332 545.907C577.467 545.026 585.181 544.437 594.654 544.437C604.127 544.437 630.787 544.437 653.657 544.584C676.663 544.584 712.795 544.584 734.041 544.584C755.423 544.584 777.482 544.731 783.165 544.878C788.849 545.172 817.945 545.319 847.852 545.172C877.625 545.172 903.607 545.172 905.231 545.319C924.177 546.64 935.138 540.18 936.898 526.966C937.439 523.002 937.846 473.081 937.981 415.967C937.981 359 938.117 275.311 938.252 229.943C938.523 83.2667 938.251 39.0723 936.762 33.0526C935.815 29.8225 932.297 25.417 928.778 23.0678C922.689 19.1036 919.17 18.8112 872.481 18.8112C845.281 18.8112 798.458 18.811 768.551 18.6642C738.778 18.6642 699.263 18.6642 680.994 18.6642C662.589 18.6642 645.808 18.2229 643.508 17.7824C641.342 17.1951 637.959 17.195 636.199 17.6354C634.44 18.0759 580.851 18.2232 517.112 18.0763C453.372 17.6359 375.828 17.4903 344.838 17.4903C313.848 17.3434 244.29 17.196 190.43 16.9024C136.434 16.6087 81.896 16.6085 69.3105 16.6085C56.725 16.6085 43.869 16.0217 40.7565 15.2876C37.6439 14.5534 35.0736 14.6989 34.9383 15.7267C34.803 16.6076 33.4483 17.343 31.8244 17.0494C26.5466 16.4621 18.9693 25.8582 17.7514 34.8144C17.2101 39.5127 16.8032 89.7262 16.8032 146.694C16.8032 203.514 16.803 286.616 16.6677 331.397C16.397 498.188 16.5336 523.59 17.8868 529.316C19.9168 536.951 29.524 543.263 38.8617 543.116C42.9215 543.116 80.001 543.264 121.411 543.41ZM34.5319 531.811C31.0134 529.462 27.3596 524.911 26.1416 521.828C24.1117 516.102 23.4344 485.709 23.705 411.71C23.9757 351.513 23.9759 223.776 23.9759 132.011C23.8406 37.8976 23.9763 37.1638 32.7726 29.529C39.8096 23.3624 37.2381 23.5092 164.446 23.9496C218.984 24.2433 309.789 24.5376 352.282 24.6845C374.069 24.6845 410.201 24.8298 432.666 24.9766C454.995 24.9766 506.691 25.1236 547.425 25.1236C588.294 25.2704 644.048 25.5646 671.655 25.7114C699.127 26.0051 727.817 26.0052 735.26 25.8584C742.839 25.7116 785.872 25.7116 830.937 25.8584C936.763 26.152 931.215 23.363 931.08 76.0726C930.674 536.804 930.809 520.652 926.479 526.378C917.953 537.684 917.005 537.831 823.628 537.537C775.451 537.39 721.456 537.39 703.728 537.39C685.865 537.39 638.501 537.39 598.309 537.243C558.116 537.096 496.541 536.949 461.491 536.949C322.509 536.802 281.91 536.657 202.608 536.363C157.273 536.216 103.008 536.216 81.7612 536.363C36.8324 536.51 42.3809 537.096 34.5319 531.811ZM107.879 531.225C139.004 531.371 186.233 531.517 212.758 531.517C277.445 531.81 374.745 531.958 463.25 531.958C503.442 532.105 557.845 532.105 584.369 532.252C610.623 532.398 654.333 532.399 681.398 532.399C708.329 532.399 763.407 532.546 803.465 532.693C906.043 532.986 909.426 532.986 915.11 530.49C924.177 526.232 925.531 520.8 925.802 485.416C926.072 434.468 926.343 339.766 926.208 298.361C926.073 259.747 926.342 136.71 926.748 119.826C926.748 114.687 926.749 97.2148 926.479 81.211C926.343 65.0605 926.343 50.8181 926.479 49.4967C926.614 48.1753 924.719 43.9172 922.283 40.0998C916.464 30.9968 915.923 30.9967 844.876 30.8499C813.48 30.8499 740.943 30.7028 683.564 30.5559C508.856 29.9687 417.375 29.6758 349.576 29.529C229.946 29.2353 153.62 28.9408 103.142 28.6472C75.6709 28.3535 49.5522 28.7947 45.2217 29.382C34.6661 30.8502 28.9829 38.7793 28.8475 51.9934C28.5769 76.6597 28.5768 179.582 28.7121 206.744C28.7121 223.335 28.7121 262.832 28.7121 294.399C28.7121 325.966 28.5768 365.461 28.7121 382.052C28.5768 398.79 28.5766 416.554 28.5766 421.693C28.306 426.979 28.4412 448.857 28.4412 470.587C28.4412 492.316 28.4425 511.404 28.1719 513.019C27.4953 518.451 37.915 529.462 44.546 530.343C48.0646 530.783 76.6178 531.225 107.879 531.225ZM681.398 57.4258C678.015 52.8742 677.881 51.6997 680.587 51.9934C682.482 52.287 684.105 50.6715 684.646 47.8819C685.323 44.3581 685.595 44.2104 686.001 47.0001C686.136 49.0556 687.76 50.9647 689.384 51.1116C693.173 51.552 692.631 54.9301 688.571 55.9579C686.812 56.3983 685.73 58.1589 686.136 60.0676C687.219 64.6191 686.27 64.0328 681.398 57.4258ZM756.913 68.7314C757.048 67.9973 759.889 64.473 763.002 60.8024C768.685 54.1954 768.685 54.1952 762.595 45.9731L756.506 37.458L769.226 37.7501C776.399 37.897 782.488 38.4854 782.894 38.9259C783.3 39.5132 780.73 43.0359 777.212 47.0001C770.851 54.1944 770.85 54.1946 777.887 61.8294L784.925 69.6114L776.534 69.7584C771.933 69.9052 765.574 70.0523 762.326 70.0523C759.213 70.1992 756.777 69.6124 756.913 68.7314ZM709.412 59.3345C709.006 57.4258 706.84 55.5167 704.945 55.223C701.427 54.6357 701.427 54.6354 705.081 53.0203C707.246 52.1394 709.277 49.9374 709.412 47.8819C709.954 44.6518 710.224 44.6522 712.389 48.3228C713.472 50.5251 715.772 52.5796 717.396 52.7264C719.561 53.1669 719.427 53.7548 716.721 55.223C714.691 56.3976 712.39 58.7463 711.578 60.2145C710.631 62.5637 710.224 62.271 709.412 59.3345ZM746.221 57.4258C742.838 52.8742 742.568 51.8467 745.274 52.1403C747.169 52.434 748.792 50.8185 749.333 48.0288C750.01 43.9178 750.145 43.7705 751.093 47.5879C751.634 49.9371 753.799 52.5806 755.829 53.7552C758.941 55.517 758.942 55.8106 756.1 55.517C754.205 55.3702 752.04 56.9852 751.499 59.1876C750.281 62.8581 750.01 62.8582 746.086 57.4258H746.221ZM797.782 67.2618C798.864 65.7935 802.111 62.124 804.817 59.1876C809.689 53.7551 809.69 53.7556 803.735 46.8549C796.563 38.486 798.052 37.0175 813.75 37.458L825.929 37.605L819.705 44.6522C811.585 53.6084 811.449 55.3699 818.621 62.5642C821.869 65.9411 824.034 69.024 823.493 69.4645C822.951 69.9049 816.321 70.1992 809.149 70.0523C798.052 69.9055 796.158 69.4641 797.782 67.2618ZM839.056 66.2348C850.559 52.727 850.288 54.0481 842.439 45.6792L835.266 37.8971L843.523 37.458C848.124 37.3112 854.89 37.6035 858.544 37.8971C865.31 38.6312 865.31 38.6322 858.679 46.267C852.048 53.755 852.048 53.7556 857.867 61.5372C864.498 70.3466 864.362 70.4934 845.551 70.6402C835.266 70.6402 835.267 70.6395 839.056 66.2348ZM788.308 59.3345C787.902 57.4258 785.873 55.3699 784.114 55.223C781.001 54.6357 781 54.4886 784.518 53.0203C786.684 51.9926 788.579 49.7906 788.85 47.8819C789.391 44.6518 789.527 44.799 791.015 48.3228C791.963 50.5251 794.128 52.4326 796.022 52.5794C799.135 53.0199 799.135 53.3143 795.887 55.223C793.857 56.3976 791.692 58.5995 790.88 60.2145C789.662 62.7105 789.255 62.5646 788.308 59.3345ZM725.38 48.6167C724.839 46.708 725.516 45.3854 726.464 45.5322C729.17 45.9727 730.523 49.7899 728.088 50.8176C727.005 51.4049 725.786 50.3786 725.38 48.6167ZM828.366 60.3615C827.825 58.1592 827.689 53.7555 828.095 50.3785C828.907 44.3588 828.907 44.3578 832.696 49.3498C834.996 52.1394 835.673 54.6357 834.32 55.223C833.102 55.8103 831.478 58.0122 830.666 60.2145C829.448 64.0319 829.313 64.0321 828.366 60.3615ZM894.135 66.2348C895.759 61.2428 895.352 59.7742 891.021 56.6909C885.879 53.0203 885.88 53.0213 892.511 52.1403C896.977 51.6999 899.276 50.0838 899.547 47.441C900.359 41.2744 903.743 41.2744 905.638 47.441C906.991 52.1393 908.074 52.8746 914.028 52.2873C920.93 51.8468 920.93 51.8453 915.516 56.25C911.186 59.7738 910.509 61.6831 911.456 66.0878C912.809 71.5203 912.675 71.5209 907.126 68.5845C902.525 66.0885 900.766 66.2356 896.841 68.8784C892.105 72.1085 892.105 72.1077 894.135 66.2348ZM869.776 59.6285C869.234 57.5729 867.205 55.6637 865.446 55.37C862.469 54.9295 862.467 54.635 865.986 52.5794C868.151 51.4048 870.182 49.056 870.317 47.441C870.723 45.5323 871.399 45.8269 872.481 48.4697C873.429 50.6721 875.594 52.5797 877.489 52.8734C880.466 53.3138 880.467 53.4613 877.219 55.37C875.325 56.5446 873.024 58.8934 872.348 60.5085C871.13 63.0045 870.588 62.8586 869.776 59.6285ZM892.105 514.781C893.323 510.963 892.645 508.32 889.397 505.09C885.067 500.538 885.068 500.538 890.075 501.713C894.27 502.888 895.623 501.86 898.33 496.134C901.442 489.233 901.442 489.232 903.337 494.811C904.825 499.509 906.314 500.537 911.862 500.39C918.358 500.39 918.359 500.391 912.946 504.943C908.48 508.613 907.803 510.375 909.156 513.899C911.592 520.506 911.051 520.946 905.773 517.716C902.119 515.367 899.954 515.22 895.759 517.275C890.481 519.771 890.481 519.773 892.105 514.781ZM49.0113 401.432C49.2819 400.404 47.3881 399.083 44.6815 398.643C40.2157 397.909 40.2159 397.908 44.9524 396.293C47.659 395.412 50.2294 393.797 50.9061 392.623C51.5827 391.301 51.583 391.743 51.177 393.651C50.6357 395.413 50.9069 398.496 51.7188 400.405C52.5308 402.754 52.3948 403.928 51.0415 403.781C49.8236 403.634 48.8759 402.606 49.0113 401.432ZM36.0203 389.099C35.7497 386.162 35.4783 378.528 35.343 370.746C35.2077 360.909 35.0724 360.908 45.4926 370.305C50.7704 375.15 50.7711 375.15 58.0788 368.249C62.0033 364.726 65.7923 362.23 66.3336 362.964C67.8223 364.873 66.8757 389.099 65.3871 388.952C64.7104 388.952 61.191 386.017 57.6725 382.64C51.312 376.473 51.3116 376.472 43.7333 383.079C39.4028 386.749 36.0203 389.393 36.0203 389.099ZM46.1699 376.031C46.5759 373.095 45.3573 371.775 42.1094 371.481C37.6436 371.04 37.6445 371.187 41.2983 373.39C43.4636 374.564 44.4098 375.591 43.5978 375.591C42.6505 375.444 42.3809 376.472 42.9222 377.793C44.4108 381.17 45.6287 380.583 46.3054 376.031H46.1699ZM900.089 476.605C898.736 474.403 898.736 473.083 900.36 472.348C901.578 471.761 902.39 469.852 901.984 468.237C901.578 466.622 902.119 465.3 903.201 465.446C904.284 465.593 905.096 466.621 904.96 467.502C904.825 468.53 906.721 470.292 909.156 471.467C912.946 473.228 912.945 473.67 909.832 474.11C907.802 474.257 905.909 475.872 905.773 477.487C905.232 481.157 903.066 480.863 900.089 476.605ZM49.9595 359.146C49.4182 357.238 47.3871 355.33 45.3572 355.037C41.8386 354.449 41.9744 354.302 45.7635 352.099C47.7935 350.925 49.8243 348.723 50.095 347.108C50.3656 345.052 51.0416 345.345 52.8008 348.135C54.0188 350.337 56.1839 352.246 57.6725 352.393C59.7024 352.687 59.4326 353.422 56.8614 355.037C54.9668 356.211 52.8001 358.413 51.9881 360.028C51.0408 362.231 50.6361 362.083 49.9595 359.146ZM49.0113 259.455C49.1466 258.28 47.9292 257.252 46.1699 256.958C44.546 256.811 43.1932 255.636 43.3286 254.461C43.4639 253.434 45.0878 252.7 46.7118 252.847C48.471 253.14 50.0936 251.672 50.3642 249.617C50.7702 246.534 51.0417 246.387 52.9363 249.617C54.1543 251.672 56.3194 254.021 57.9434 254.902C60.244 256.224 60.108 256.517 57.2661 256.223C55.2362 256.076 53.4779 257.252 53.2072 259.014C53.0719 260.629 51.8532 261.949 50.7706 261.803C49.688 261.656 48.8759 260.629 49.0113 259.455ZM901.442 367.075C901.577 366.048 900.36 364.873 898.6 364.726C894.541 364.139 894.947 362.818 900.631 358.119C903.067 356.064 905.096 355.477 904.825 356.799C904.69 358.12 906.721 359.441 909.156 359.881C913.487 360.469 913.486 360.762 909.832 362.817C907.667 363.992 905.773 366.048 905.638 367.369C905.502 368.691 904.419 369.572 903.201 369.425C902.119 369.278 901.307 368.25 901.442 367.075ZM35.7494 242.864C35.4787 241.249 35.2077 234.934 35.343 228.914L35.4785 217.903L43.0576 224.364C50.7713 231.118 50.7717 231.117 58.6207 225.244C66.605 219.371 66.6048 219.372 66.8755 224.511C67.1461 227.3 67.1461 233.466 66.8755 238.164C66.3342 247.267 66.3331 247.268 57.2661 239.046C51.9883 234.201 51.9887 234.2 44.1397 240.22C38.4559 244.331 36.1554 245.066 35.7494 242.864ZM894.404 341.528C894.946 337.124 894 334.187 890.888 331.985C886.692 328.901 886.691 328.755 892.916 328.461C897.788 328.314 899.682 326.847 901.171 322.148C903.336 316.276 903.337 316.274 905.367 322.441C906.991 327.579 908.343 328.607 913.215 328.167C919.846 327.726 920.658 330.075 915.11 333.452C912.674 335.067 911.592 337.711 911.862 341.675C912.268 347.255 911.998 347.401 907.533 344.464C903.608 342.115 901.983 342.115 898.194 344.758C893.593 347.841 893.593 347.842 894.404 341.528ZM49.6886 215.261C49.0119 213.058 47.7945 211.736 46.8472 212.176C45.7646 212.764 44.4101 212.03 43.8687 210.708C43.3274 209.534 44.2752 208.8 46.0345 208.947C47.7937 209.24 49.4179 208.067 49.6886 206.452C49.9592 204.249 50.9066 204.101 54.8311 206.597C60.1089 209.974 60.9207 213.057 56.3195 212.47C54.6956 212.177 52.8001 213.499 51.9881 215.555C50.7701 218.785 50.6359 218.785 49.6886 215.261ZM49.824 198.523C49.1474 196.32 46.711 194.411 44.2751 193.97C39.9446 193.236 39.9452 193.236 44.817 192.062C47.5235 191.327 49.8243 189.273 50.095 187.217C50.5009 184.134 50.7708 183.987 52.6654 187.217C53.8833 189.273 56.184 191.475 57.8079 192.355C60.2438 193.53 60.108 193.825 57.2661 193.531C55.3715 193.384 53.2064 195.292 52.3945 197.788C51.1765 201.752 50.9067 201.9 49.824 198.523ZM894.271 304.088C895.895 299.096 895.624 297.188 892.376 294.546C887.098 290.288 887.639 288.085 894 288.819C897.924 289.407 899.547 288.232 901.577 283.24C904.013 276.927 904.014 276.927 905.909 283.387C907.397 289.113 908.48 289.993 914.299 289.846C921.065 289.846 921.065 289.847 915.516 294.399C911.051 298.069 910.374 299.684 911.727 303.502C913.757 308.64 912.81 309.081 907.262 304.97C904.014 302.767 902.254 303.06 897.788 306.29C892.104 310.255 892.105 310.254 894.271 304.088ZM902.661 222.749C902.12 220.547 900.224 218.637 898.33 218.343C895.352 217.903 895.353 217.61 899.007 215.555C901.172 214.38 903.066 212.176 903.337 210.414C903.607 208.359 904.42 208.801 906.044 211.59C907.262 213.793 909.563 215.7 911.051 215.994C912.946 216.287 912.81 216.875 910.238 218.49C908.209 219.665 906.043 221.867 905.231 223.482C904.013 225.978 903.608 225.832 902.661 222.749ZM49.6886 96.1873C49.8239 93.8381 48.3345 92.3693 45.4926 91.9289C38.4556 91.0479 43.1918 89.1384 51.9881 89.2853C58.6192 89.4321 59.2965 89.7262 56.0486 91.6349C54.0187 92.9563 51.718 95.1585 50.9061 96.9203C49.6881 99.1227 49.4179 98.9769 49.6886 96.1873ZM49.9595 86.4965C49.2829 85.0282 49.283 83.2662 50.095 82.6789C52.1249 81.0639 53.7477 84.1477 52.3945 86.9374C51.3118 88.8461 50.9068 88.8456 49.9595 86.4965ZM916.058 185.455C915.382 184.281 916.058 182.96 917.276 182.372C918.629 181.785 919.441 182.813 919.171 184.428C918.765 188.099 917.412 188.392 916.058 185.455ZM902.796 181.932C903.067 180.463 901.036 179.142 898.6 178.702C894.405 178.115 894.269 177.967 897.788 176.499C899.953 175.618 901.848 173.562 901.984 171.8C902.254 170.185 903.336 169.011 904.554 169.158C905.637 169.305 906.315 170.773 906.18 172.535C905.909 174.297 907.667 175.912 910.374 176.352C913.216 176.793 913.757 177.38 911.727 177.82C909.968 178.114 907.126 179.876 905.502 181.491C903.743 183.106 902.526 183.4 902.796 181.785V181.932ZM44.2751 63.4442C46.0344 58.3054 45.6288 56.8385 41.2983 53.7552C36.4265 50.0846 36.4262 50.0839 42.6513 49.3498C47.1171 48.7625 49.6884 47.0016 51.177 43.0374C53.3422 37.6049 53.3419 37.6045 55.9131 42.5965C57.6724 46.1202 60.5146 48.0293 64.7098 48.4697C71.0702 49.3507 71.0695 49.3505 65.6563 53.7552C61.4612 57.1321 60.7844 58.8936 62.1377 62.5642C64.7089 69.3181 64.0333 69.7578 58.0788 65.5C53.0717 62.123 52.2592 62.1232 47.3874 65.6469C42.1096 69.6112 42.1099 69.6108 44.2751 63.4442ZM92.9929 67.4087C92.9929 67.1151 95.5647 63.2986 98.6772 59.1876C104.361 51.8464 104.361 51.8458 98.4063 43.9174L92.4527 35.9883L105.715 35.8432C113.022 35.6963 119.246 35.8417 119.652 36.1353C120.058 36.4289 117.217 40.2474 113.428 44.5052C106.526 52.4337 106.526 52.433 113.834 60.3615C118.976 65.9408 120.06 68.4378 117.759 68.7314C113.428 69.6124 92.8575 68.4365 92.9929 67.4087ZM888.044 161.817C887.909 156.238 888.316 149.484 888.586 146.988C889.263 141.996 889.263 141.995 896.841 148.602C904.419 155.209 904.419 155.209 911.998 148.162L919.712 140.967L919.846 150.364C919.982 155.503 919.712 162.257 919.441 165.34C918.765 171.067 918.765 171.066 911.187 164.459C903.473 157.852 903.473 157.852 895.895 164.9L888.044 171.947V161.817ZM83.656 59.1876C83.9267 57.4257 82.0316 54.6354 79.731 53.0203C76.2125 50.818 76.0765 50.2318 79.0537 50.5255C81.3543 50.8191 82.8436 49.2035 83.2496 46.267C83.9263 42.0092 84.0611 41.8618 86.091 45.6792C87.4443 47.7347 89.4755 49.7908 90.8288 49.9376C92.0467 50.0844 92.9927 51.1126 92.8574 52.1403C92.7221 53.3149 91.6404 54.1958 90.4224 53.9021C89.3398 53.7553 87.3088 55.6627 85.9555 58.0118C84.1963 60.9483 83.5207 61.3899 83.656 59.1876ZM180.416 61.6824C188.13 52.2857 188.129 52.7266 181.498 43.7704L175.813 36.2823L182.986 35.9883C195.03 35.6947 203.556 36.136 203.421 36.8701C203.421 37.3106 200.444 40.9803 196.79 45.0913C190.294 52.7261 190.294 52.7268 196.248 60.5085C202.744 69.4647 203.285 69.1705 182.986 69.1705H174.054L180.416 61.6824ZM123.442 57.2788C123.712 55.5169 122.359 53.902 120.329 53.7552C117.081 53.1679 117.081 52.8733 120.329 50.9646C122.359 49.9368 124.66 47.7351 125.607 46.1201C126.825 43.7709 127.095 43.9183 126.825 46.7079C126.69 49.0571 128.314 50.6711 131.156 51.1116C135.351 51.552 135.351 51.846 131.967 53.3143C129.802 54.1952 127.773 56.2516 127.638 57.8667C127.367 59.6285 126.284 60.8023 125.201 60.6554C124.118 60.5086 123.306 58.8938 123.577 57.2788H123.442ZM167.288 60.0676C167.288 58.5993 165.935 55.811 164.175 54.0491C162.146 51.9936 161.876 50.9647 163.5 51.1116C164.853 51.2584 166.206 50.0847 166.477 48.3228C166.612 46.5609 167.829 45.3854 168.912 45.5322C169.994 45.679 170.806 47.1468 170.535 48.7619C170.4 50.6706 171.484 51.4051 173.379 50.9646C175.273 50.6709 176.491 51.2579 176.355 52.4325C176.22 53.7539 174.732 54.6349 173.108 54.3412C171.484 54.1944 169.453 55.9567 168.776 58.4527C167.829 61.0955 167.288 61.6826 167.288 60.0676ZM217.496 66.2348C218.443 64.7666 221.555 61.0953 224.262 58.1588C229.269 52.8732 229.269 52.8744 222.503 44.7992C218.849 40.3945 216.006 36.4289 216.412 36.1353C218.036 35.1075 243.208 36.2834 243.073 37.458C242.937 38.1921 240.094 41.8618 236.711 45.6792C230.486 52.5799 230.487 52.5797 237.253 60.2145C240.907 64.4724 243.614 68.291 242.937 68.7314C242.396 69.0251 235.9 69.3174 228.727 69.1705C217.63 68.8769 215.736 68.4371 217.496 66.2348ZM206.94 57.8667C207.21 56.1048 205.857 54.4897 203.827 54.1961C200.444 53.6088 200.444 53.6078 204.098 51.4055C206.399 50.2309 208.293 47.8821 208.563 46.267C208.834 44.3583 209.511 44.6512 210.594 47.294C211.541 49.4964 213.842 51.4058 215.736 51.6994C218.984 52.1399 218.984 52.2869 215.33 53.7552C213.165 54.7829 211.269 56.8377 211.134 58.4527C210.863 60.0678 209.781 61.39 208.563 61.0963C207.481 60.9495 206.804 59.4817 206.94 57.8667ZM263.372 59.9206C269.056 52.2858 269.056 52.2869 263.236 44.5052C257.688 37.1641 257.687 36.7227 262.017 36.2823C265.536 35.695 266.214 36.4296 264.996 38.6319C263.778 40.8343 264.318 41.4219 266.889 40.8347C268.648 40.3942 270.815 40.0998 271.627 40.0998C272.303 40.2466 271.627 39.2185 270.138 37.8971C268.108 36.1352 269.462 35.9892 275.01 36.8701C283.942 38.3384 283.94 38.191 277.174 45.5322C272.302 50.8178 272.032 51.5527 274.468 57.2788C275.957 60.5089 276.362 64.0328 275.415 64.7669C274.467 65.501 275.279 65.9404 277.174 65.5C279.069 65.0595 281.776 65.795 283.265 66.9696C285.159 68.5847 284.212 69.0249 279.746 68.5845C276.363 68.2908 270.002 67.9965 265.536 67.8496C257.687 67.4092 257.688 67.4086 263.372 59.9206ZM272.302 64.326C272.573 62.711 271.761 61.8298 270.814 62.2703C269.731 62.7107 269.055 61.9767 269.326 60.5085C269.596 58.5998 268.919 58.4522 267.024 59.7736C265.671 60.9482 264.995 62.8578 265.536 64.326C267.16 67.8498 271.896 67.8498 272.302 64.326ZM275.415 41.5677C276.091 38.778 275.821 38.632 274.604 40.5407C273.792 42.1558 271.896 44.0652 270.543 44.9461C268.919 45.8271 269.19 46.1198 271.22 45.8261C272.98 45.6793 274.873 43.6232 275.415 41.5677ZM298.962 66.3818C299.909 64.9135 303.157 61.3892 305.728 58.4527C310.735 53.0203 310.735 53.0199 304.104 45.2383C300.586 40.9804 298.15 37.1638 299.097 36.8701C301.939 35.5487 324.674 36.4304 324.539 37.605C324.403 38.3391 321.562 42.0089 318.179 45.9731C311.954 52.727 311.954 52.7267 318.721 60.3615C322.374 64.6194 325.08 68.291 324.403 68.7314C323.862 69.1719 317.503 69.3174 310.195 69.1705C299.639 68.8769 297.338 68.2905 298.962 66.3818ZM308.571 62.5642C308.842 60.9492 308.03 59.9212 306.947 60.5085C305.594 61.0958 304.51 62.4181 304.375 63.299C304.24 64.4736 305.052 65.3533 306.27 65.6469C307.352 65.6469 308.436 64.4729 308.571 62.5642ZM248.214 57.4258C247.672 55.3702 245.643 53.4609 243.613 53.1673C240.906 52.58 241.177 52.1395 244.966 51.2585C247.808 50.5244 249.703 48.9096 249.162 47.8819C248.621 46.7073 249.161 45.2395 250.379 44.6522C251.597 44.2117 252.409 45.0914 252.274 47.0001C252.003 48.762 253.628 50.3772 256.47 50.8176C261.071 51.5517 261.071 51.5522 256.199 53.1673C253.628 54.0482 250.921 56.2499 250.379 58.0118C249.432 60.8015 249.161 60.8027 248.214 57.4258ZM903.066 141.261C902.389 139.206 900.36 137.296 898.6 137.003C895.488 136.562 895.624 136.27 899.142 134.214C901.308 132.893 903.201 130.691 903.472 129.223C903.607 127.167 904.42 127.46 905.909 130.103C907.127 132.011 909.427 134.36 911.051 135.094C913.487 136.269 913.351 136.564 910.509 136.417C908.615 136.123 906.314 138.03 905.638 140.526C904.42 144.491 904.013 144.638 903.066 141.261ZM289.354 58.5997C288.813 56.691 286.783 54.6349 285.024 54.3412C281.912 53.9008 282.046 53.6081 285.564 51.6994C287.73 50.378 289.76 48.0292 290.031 46.561C290.302 44.5054 290.979 44.9451 292.061 47.5879C293.009 49.7903 295.174 51.6996 297.068 51.8464C300.046 52.2869 300.045 52.5794 296.798 54.3412C294.768 55.6627 292.602 57.8664 291.79 59.4815C290.708 61.9775 290.301 61.8298 289.354 58.5997ZM379.076 67.8496C379.076 67.1155 382.053 63.5913 385.572 60.0676C391.932 53.7542 391.933 53.7551 385.032 44.5052C379.213 36.5768 378.806 35.5479 382.46 35.9883C384.76 36.282 391.257 36.4292 396.805 36.4292L406.819 36.2823L400.188 44.9461C393.422 53.6087 393.422 53.6076 399.917 60.3615C403.436 64.0321 405.465 67.5564 404.518 68.2905C402.217 69.9056 378.806 69.4647 379.076 67.8496ZM328.193 56.9848C328.464 55.3698 326.975 53.6081 325.081 53.4612C321.562 52.8739 321.562 52.7268 325.352 51.2585C327.517 50.3776 329.411 48.0288 329.681 46.1201C330.223 42.89 330.358 43.0372 331.847 46.561C332.794 48.6165 335.095 50.6709 336.854 50.9646C340.102 51.4051 340.102 51.5528 336.448 53.7552C334.282 54.9298 332.253 56.9843 332.118 58.3058C331.983 59.4803 330.899 60.5083 329.817 60.3615C328.599 60.2147 328.058 58.7467 328.193 56.9848ZM371.092 58.5997C370.686 56.691 368.791 54.9288 366.761 54.6352C363.242 54.1947 363.243 54.0487 367.032 51.8464C369.062 50.6718 371.228 47.8815 371.499 45.6792C372.04 42.1554 372.175 42.156 373.934 46.267C374.881 48.763 376.234 51.2591 376.775 51.8464C377.452 52.5805 376.641 55.0766 375.017 57.4258C372.582 61.0963 371.769 61.2425 371.092 58.5997ZM420.892 66.5287C421.028 65.7946 423.328 63.0043 425.899 60.3615C432.124 54.3417 432.126 53.1678 425.63 44.5052L420.081 36.8701L428.2 36.7232C444.304 36.4295 445.658 36.4297 445.387 38.7789C445.252 39.9535 442.951 43.183 440.38 45.5322C433.885 51.9924 434.02 54.1946 441.733 61.8294C448.5 68.5832 448.5 68.5832 442.41 69.1705C433.344 69.9047 420.622 68.2906 420.892 66.5287ZM411.014 57.8667C410.608 55.8111 408.443 53.9018 406.413 53.6082C403.03 53.1677 403.03 53.0206 406.684 51.4055C408.849 50.6714 410.878 48.3227 411.149 46.414C411.555 43.1839 411.827 43.1843 413.857 46.8549C415.074 49.0573 417.375 50.9649 418.999 51.2585C421.164 51.5522 421.028 52.1401 418.186 53.7552C416.292 54.7829 413.991 57.1315 413.315 58.5997C412.097 60.9489 411.69 60.8031 411.014 57.8667ZM477.866 62.4172C478.272 59.4808 476.918 55.6639 474.888 53.7552C470.693 50.0846 472.047 47.7356 477.866 48.4697C480.167 48.7634 482.467 46.8535 483.685 43.6234C485.85 38.3378 485.85 38.3392 488.827 43.1843C490.586 46.1208 494.24 48.4684 497.488 48.9089C502.901 49.643 503.036 49.7904 498.977 53.1673C496.135 55.6633 494.917 58.4527 495.458 62.1233C496.135 68.1431 495.324 68.4372 489.775 64.473C486.798 62.2706 485.039 62.2709 481.52 64.7669C477.325 67.7034 477.19 67.5561 477.866 62.4172ZM893.052 119.091C892.51 117.623 892.646 117.183 893.458 118.064C894.27 119.092 897.111 118.503 899.682 116.741C904.419 113.805 904.419 113.806 899.953 117.917C894.676 122.615 894.54 122.761 893.052 119.091ZM452.56 58.7467C452.154 56.9848 450.123 55.2228 448.093 54.9291C444.71 54.3418 444.71 54.3427 448.364 52.1403C450.529 50.8189 452.56 48.3227 452.831 46.414C453.237 43.6244 453.777 43.7707 456.754 47.7349C459.732 51.6991 459.867 52.7271 456.754 57.1318C454.048 60.9492 453.101 61.3895 452.56 58.7467ZM529.29 68.1436C529.425 67.2626 532.133 63.5913 535.381 60.0676C541.335 53.6073 541.335 53.6087 534.839 44.9461C529.155 37.3113 529.019 36.2828 532.673 36.8701C534.974 37.1638 541.335 37.311 546.883 37.311L556.762 37.1641L549.996 45.0913C543.229 53.0198 543.23 53.0209 549.049 60.9494C552.297 65.3541 554.597 69.171 554.056 69.6114C551.891 71.0797 529.019 69.7586 529.29 68.1436ZM517.381 56.9848C515.08 53.9016 514.675 52.14 516.435 51.8464C517.923 51.6996 519.141 50.0848 519.411 48.4697C519.547 46.8547 520.765 45.6793 521.712 45.8261C522.93 45.973 523.607 47.5877 523.336 49.2028C523.201 50.9647 524.554 52.4328 526.584 52.7264C529.697 53.1669 529.561 53.3145 526.449 55.37C524.419 56.5446 522.389 58.4537 521.712 59.4815C521.171 60.6561 519.14 59.4808 517.381 56.9848ZM575.302 61.2433C582.339 53.168 582.339 53.1669 575.302 45.3852C567.453 36.5758 567.182 36.87 587.211 36.7232C597.496 36.7232 597.495 36.724 590.052 46.7079C584.368 54.1959 584.369 54.1959 590.458 61.3903C593.842 65.3545 596.007 68.8769 595.466 69.1705C594.924 69.611 588.565 69.9051 581.393 69.6114L568.4 69.3175L575.302 61.2433ZM610.622 68.8784C610.622 68.4379 613.599 64.6195 617.118 60.5085C623.478 53.3141 623.479 53.3151 616.578 44.9461C610.758 38.1923 610.351 36.8706 613.734 37.311C616.035 37.6047 622.532 37.7501 628.08 37.7501C639.177 37.4565 639.177 37.3108 629.568 48.0288C624.832 53.3145 624.833 53.3148 631.87 61.2433L638.771 69.1705L630.381 69.4645C625.78 69.4645 619.419 69.7584 616.171 69.7584C613.059 69.9052 610.487 69.4657 610.622 68.8784ZM623.615 65.5C623.75 64.3254 622.938 63.2989 621.991 63.1521C620.908 63.0053 619.284 63.7392 618.472 64.7669C617.66 65.9415 618.337 66.8212 620.232 67.1148C621.991 67.4084 623.479 66.6745 623.615 65.5ZM631.87 66.5287C632.005 65.3541 630.516 64.3257 628.486 64.0321C625.374 63.7384 625.238 63.8853 627.809 65.9409C631.328 69.0241 631.599 69.0247 631.87 66.5287ZM626.185 45.8261C626.05 47.0007 627.133 46.8536 628.757 45.5322C631.058 43.7703 631.192 43.0373 629.027 41.1286C625.373 38.1921 622.801 39.512 622.125 45.0913C621.719 48.6151 621.99 49.0571 623.884 46.7079C625.237 45.2397 626.185 44.7984 626.185 45.8261ZM559.874 58.1588C560.145 56.3969 558.657 54.9288 556.762 54.6352C553.649 54.1947 553.65 53.9021 556.897 51.9934C558.792 50.8188 561.093 48.6168 561.904 46.8549C563.122 44.6526 563.393 44.7984 563.122 47.7349C562.987 49.9373 564.476 51.4059 567.453 51.8464C571.649 52.5805 571.648 52.7278 568.129 54.1961C565.964 55.077 564.07 57.1316 563.935 58.7467C563.664 60.3617 562.581 61.6841 561.498 61.5372C560.28 61.3904 559.604 59.9207 559.874 58.1588ZM603.72 60.5085C603.856 58.5998 601.826 56.1037 599.391 54.9291C595.601 53.1672 595.601 52.8729 598.713 52.4325C600.743 52.1388 602.774 49.9371 603.18 47.5879C603.721 44.3578 604.127 44.0647 604.804 46.267C605.075 48.0289 606.834 50.8174 608.458 52.4325C610.082 54.1943 610.351 55.3697 608.863 55.0761C607.645 54.9293 605.887 56.9854 604.94 59.3345C604.128 61.8305 603.585 62.4172 603.72 60.5085ZM656.499 61.5372C663.13 53.462 663.131 53.4608 657.447 45.6792C650.951 37.1634 650.544 37.4579 669.625 37.311C678.827 37.311 678.964 38.0439 670.98 47.0001C664.89 53.9008 664.889 53.9021 671.384 61.2433C675.038 65.3544 677.475 69.024 676.933 69.4645C676.392 69.9049 670.031 70.0522 662.859 69.9054L649.732 69.6114L656.499 61.5372ZM902.796 97.2143C902.39 95.3056 899.954 93.2493 897.247 92.8089C892.646 92.0747 892.647 92.0762 897.383 90.608C900.09 89.5802 902.796 87.5235 903.608 85.7616C904.42 83.5593 904.689 83.8541 904.554 86.9374C904.148 90.4611 905.232 91.3407 908.885 91.0471C913.216 90.4598 913.351 90.7533 909.968 92.8089C907.938 94.1303 905.637 96.481 904.96 98.0961C903.878 100.445 903.473 100.298 902.796 97.2143ZM642.695 59.1876C642.154 56.9852 640.124 55.0758 638.094 54.7821C634.711 54.3417 634.711 54.1945 638.365 52.5794C640.53 51.6985 642.424 49.6439 642.695 48.0288C642.83 46.4138 643.913 45.0914 644.996 45.2383C646.214 45.3851 646.891 47 646.755 48.7619C646.485 50.5238 648.243 51.992 650.95 52.4325C655.415 53.3134 655.417 53.3139 650.68 54.7821C648.109 55.6631 645.402 57.8666 644.725 59.6285C643.778 62.5649 643.507 62.4177 642.695 59.1876ZM719.02 67.8496C720.644 66.9687 721.727 65.9404 721.592 65.5C721.321 65.0595 722.403 63.0049 724.027 60.9494C725.651 58.747 726.87 58.1601 726.599 59.4815C726.599 60.9497 725.38 62.4178 724.163 63.0051C722.945 63.5924 722.268 65.0602 722.81 66.2348C723.486 67.5562 725.245 67.5562 727.681 66.2348C730.794 64.4729 730.93 64.4733 728.359 66.6757C726.87 67.9971 723.351 69.1705 720.779 69.1705C717.531 69.3174 716.99 68.7306 719.02 67.8496ZM299.774 521.534C300.857 520.359 303.834 516.688 306.541 513.752C311.413 508.319 311.413 508.319 304.917 500.537C297.744 491.875 296.527 492.756 317.503 492.022C326.976 491.729 326.976 492.169 318.992 501.125C312.902 508.026 312.9 508.026 319.261 516.395L325.622 524.763L315.744 524.91C301.128 525.057 297.744 524.177 299.774 521.534ZM311.412 519.478C311.548 518.304 310.736 517.275 309.518 516.981C308.435 516.981 307.353 517.716 307.218 518.89C307.083 520.065 307.895 521.093 308.977 521.24C310.195 521.387 311.277 520.506 311.412 519.478ZM319.396 521.534C319.667 519.478 315.878 518.01 314.525 519.772C313.577 520.8 314.254 521.828 316.013 522.122C317.908 522.269 319.396 522.121 319.396 521.534ZM638.094 496.428C638.23 494.813 639.448 493.49 640.531 493.637C641.613 493.784 641.747 495.252 640.8 496.867C639.988 498.482 638.907 499.804 638.501 499.657C637.959 499.657 637.824 498.189 638.094 496.428ZM769.362 513.899C769.632 512.284 768.279 510.374 766.385 509.493C763.002 508.172 763.002 508.173 766.52 508.319C768.686 508.466 770.444 506.85 770.985 503.914C771.527 500.537 771.934 500.391 772.205 503.034C772.475 505.236 774.099 506.999 775.723 507.292C777.212 507.439 778.564 508.613 778.294 509.64C778.158 510.815 777.211 511.549 775.993 511.402C774.91 511.255 773.828 512.578 773.558 514.193C773.287 515.955 772.204 517.275 771.121 517.128C769.903 516.982 769.226 515.514 769.362 513.899ZM810.366 515.22C809.825 513.311 807.931 511.404 805.901 511.11C802.383 510.669 802.383 510.522 806.037 509.054C808.202 508.026 810.231 505.823 810.502 503.914C810.908 500.684 811.178 500.684 813.208 504.355C814.561 506.557 816.726 508.467 818.35 508.76C820.651 509.054 820.381 509.64 817.539 511.255C815.645 512.43 813.344 514.633 812.668 516.101C811.585 518.451 811.178 518.303 810.366 515.22ZM747.439 504.061C745.273 500.39 745.41 500.392 748.793 503.622C750.823 505.677 752.852 507.438 753.258 507.878C753.8 508.319 753.124 508.466 752.041 508.319C750.823 508.173 748.792 506.116 747.439 504.061ZM850.694 514.926C850.965 513.751 849.071 511.697 846.635 510.375C843.252 508.32 842.98 507.879 845.958 508.172C847.988 508.466 850.695 506.557 852.048 504.208C853.943 500.831 854.483 500.685 854.213 503.328C853.942 505.824 855.567 507.291 858.408 507.732C862.739 508.319 862.738 508.614 859.084 510.669C856.919 511.99 855.025 513.898 854.89 515.22C854.619 516.541 853.671 517.422 852.453 517.275C851.371 517.129 850.559 516.1 850.694 514.926ZM641.748 501.566C642.019 498.189 647.161 492.462 649.597 492.902C651.221 493.049 651.221 493.638 649.597 494.372C648.243 495.106 645.943 497.308 644.319 499.363C642.695 501.566 641.613 502.447 641.613 501.566H641.748ZM819.434 523.149C820.517 521.68 823.629 518.156 826.2 515.22C831.072 509.934 831.071 509.934 825.117 502.152C822.004 497.747 819.704 493.931 820.245 493.637C822.004 492.316 845.282 493.05 845.147 494.372C845.011 495.106 842.033 498.776 838.649 502.593C832.424 509.494 832.425 509.493 839.327 516.981C843.116 521.239 845.823 525.058 845.147 525.351C844.47 525.792 838.109 526.084 830.801 525.937C819.839 525.791 817.81 525.204 819.434 523.149ZM901.848 406.572C901.307 398.203 901.984 397.467 905.773 403.34C907.262 405.69 907.667 407.599 906.449 407.452C905.231 407.305 904.69 408.039 905.231 409.214C905.773 410.388 905.367 411.709 904.149 412.149C903.067 412.737 901.984 410.096 901.848 406.572ZM910.645 245.799C905.232 240.807 904.283 238.752 906.313 236.99C907.667 235.522 909.697 235.082 910.374 235.816C911.186 236.404 912.81 235.962 913.757 234.788C914.84 233.466 914.568 233.026 913.08 233.761C908.749 235.669 910.645 231.411 915.381 228.034C919.711 225.098 919.846 225.244 920.117 233.026C920.252 237.577 920.253 243.745 920.388 246.828C920.659 254.169 919.306 253.875 910.509 245.799H910.645ZM35.2076 117.476C35.0722 112.337 35.6147 105.878 36.4267 103.528C37.6447 99.1238 37.6442 99.1236 44.4106 105.143C51.0417 111.163 51.0411 111.163 59.0254 104.996L67.0109 98.6822L66.4691 111.75C66.3338 119.091 65.7931 125.258 65.3871 125.552C64.9811 125.992 61.7326 123.202 57.9434 119.679C51.4476 113.072 51.4484 113.072 43.464 120.12L35.343 127.167L35.2076 117.476ZM903.201 266.502C902.66 264.446 900.766 262.684 899.007 262.39C895.894 261.95 896.03 261.804 899.142 259.749C901.172 258.574 903.473 256.37 904.285 254.755C905.503 252.406 905.773 252.554 905.502 255.343C905.367 257.692 906.855 259.308 909.697 259.602C913.621 260.189 913.757 260.482 910.645 262.39C908.615 263.565 906.45 265.767 905.638 267.382C904.42 269.878 904.013 269.732 903.201 266.502ZM45.4926 150.511C50.3644 149.043 62.6791 149.923 60.5138 151.538C59.8372 152.125 55.1022 152.42 50.2304 152.126C43.5993 151.979 42.3801 151.392 45.4926 150.511ZM49.5531 140.087C49.0118 137.885 46.9823 135.976 44.9524 135.682C41.4339 135.095 41.4325 135.095 45.2217 132.893C47.3869 131.572 49.4179 129.221 49.6886 127.753C49.9592 125.551 50.4996 125.698 52.1236 128.488C53.3415 130.543 55.5067 132.892 57.1306 133.626C59.5665 134.948 59.4323 135.241 56.5904 135.094C54.5605 134.8 52.5309 136.71 51.8543 139.206C50.6363 143.17 50.5004 143.171 49.5531 140.087ZM888.993 249.764C888.587 247.708 889.263 246.534 890.752 246.534C892.241 246.828 892.51 246.239 891.428 245.211C890.345 244.184 889.533 241.101 889.533 238.164C889.533 234.053 889.939 233.613 891.292 236.255C892.781 239.192 893.052 239.192 893.593 236.255C893.864 234.2 892.511 231.558 890.752 230.237C888.857 228.916 888.181 227.154 888.993 226.566C889.94 225.832 893.322 227.887 896.57 230.823C901.848 235.815 902.119 236.55 898.6 237.284C894.947 238.165 894.812 238.458 897.654 240.514C900.36 242.569 900.224 243.304 895.217 248.002C890.887 252.26 889.669 252.553 888.993 249.764ZM42.5158 334.187C44.1397 329.489 43.463 328.021 38.9971 324.937C33.4487 321.267 33.4482 321.267 40.2146 321.414C45.6277 321.56 47.252 320.532 49.0113 315.393C51.3118 309.08 51.313 309.08 53.6136 315.246C55.3729 320.238 56.8613 321.414 61.8684 321.267C67.9582 321.12 67.958 321.12 63.3568 325.084C59.4323 328.314 58.7555 329.93 59.8382 334.628C61.3268 341.088 60.7858 341.381 55.102 337.417C52.1248 335.215 50.3645 335.215 47.2519 337.417C41.4328 341.381 40.3505 340.647 42.5158 334.187ZM902.255 433.587C901.578 431.384 899.142 429.328 896.841 429.034C892.375 428.3 892.376 428.302 897.383 426.687C900.09 425.806 902.526 423.602 902.661 421.84C903.202 419.051 903.472 419.051 904.825 422.428C905.637 424.484 907.938 426.393 909.832 426.687C912.809 426.98 912.811 427.273 909.563 429.328C907.668 430.503 905.366 432.705 904.69 434.32C903.336 436.816 902.931 436.67 902.255 433.587ZM42.6513 296.747C44.5458 291.167 44.0051 289.847 39.8099 286.764C34.6674 283.093 34.6674 283.093 41.4338 282.652C46.0349 282.212 48.3342 280.744 48.6049 278.102C49.4169 272.669 53.071 271.64 54.0183 276.779C54.5597 280.009 56.5894 281.33 62.2731 282.211C69.8515 283.092 69.852 283.093 64.4389 286.323C59.7024 289.112 59.1605 290.141 60.5138 296.16C61.8671 302.914 61.8681 302.914 56.455 299.243C51.5832 295.866 50.7708 295.866 45.899 299.39C40.6212 303.354 40.6213 303.354 42.6513 296.747ZM187.451 511.696C190.023 508.613 190.024 507.145 187.182 503.181C184.34 499.07 184.34 498.63 187.182 500.098C188.941 501.126 190.43 502.886 190.159 504.061C190.024 505.382 191.377 504.796 193.271 502.887C196.249 499.657 196.249 498.923 193.678 496.134C190.836 493.344 190.835 493.196 194.082 494.811C195.977 495.839 197.601 495.546 197.737 494.225C197.872 493.05 199.767 492.17 201.662 492.61C203.692 492.757 204.232 493.638 203.015 494.225C201.661 494.959 197.872 500.098 194.353 505.678C190.835 511.11 187.181 515.66 186.234 515.514C185.287 515.367 185.828 513.605 187.587 511.696H187.451ZM258.634 523.59C258.634 523.149 261.477 519.625 264.86 515.954C270.95 509.054 270.95 509.053 264.454 500.39L258.094 491.875L267.431 491.728C272.573 491.581 278.798 492.17 281.099 492.757C285.565 494.078 285.565 494.078 279.34 500.978C273.25 507.879 273.25 507.879 279.882 516.101C286.513 524.177 286.512 524.176 281.37 524.617C272.574 525.204 258.499 524.617 258.634 523.59ZM209.916 513.458C210.052 511.696 208.563 510.081 206.669 509.787C203.421 509.347 203.421 509.054 206.669 507.145C208.699 506.118 210.999 503.767 211.811 502.152C213.164 499.803 213.435 499.95 213.164 502.887C213.029 505.089 214.518 506.705 217.496 507.145C221.555 507.733 221.69 508.025 218.171 509.493C216.141 510.374 214.248 512.431 213.977 514.046C213.706 515.661 212.623 516.981 211.405 516.834C210.458 516.688 209.646 515.073 209.916 513.458ZM36.1558 182.666C36.6971 177.674 37.9145 177.38 38.9971 181.932C39.4031 183.693 38.8621 185.456 37.6442 186.043C36.4262 186.484 35.7498 185.016 36.1558 182.666ZM38.186 174.443C36.4268 171.947 35.6147 169.451 36.4267 168.864C37.1033 168.277 38.5916 170.039 39.4035 172.682C40.6215 175.471 42.516 176.94 44.4106 176.646C46.3052 176.206 46.9817 176.499 46.0345 177.673C43.8692 180.463 41.7046 179.582 38.186 174.443ZM46.8472 171.655C47.6592 170.627 49.553 170.48 51.177 171.361C55.2368 173.416 54.5604 174.59 49.6886 174.003C47.2527 173.562 46.0352 172.536 46.8472 171.655ZM887.638 450.472C887.909 443.571 888.451 437.404 888.993 436.963C889.534 436.523 892.916 439.019 896.435 442.69C902.93 449.003 902.932 449.003 911.051 442.249L919.171 435.349L918.9 448.416C918.764 455.61 918.359 461.776 917.818 462.217C917.141 462.657 913.757 460.308 909.968 456.931C903.201 450.911 903.201 450.912 896.706 457.225C893.187 460.896 889.669 463.684 888.857 463.538C887.91 463.538 887.503 457.666 887.638 450.619V450.472ZM45.0879 514.046C46.4412 508.613 45.763 506.705 41.8385 503.769C37.2373 500.245 37.2378 500.245 44.0042 499.804C48.7407 499.511 51.0418 498.189 51.3124 495.546C52.1244 489.673 56.184 489.379 57.8079 495.105C59.1612 499.216 60.6496 500.097 66.0627 500.243C72.6938 500.097 72.6949 500.097 67.1464 504.649C62.8159 508.466 62.0037 509.934 63.4923 513.752C66.0635 520.506 65.2514 521.241 59.9736 516.689C55.2372 512.725 54.8306 512.725 49.2822 516.689C43.4631 520.8 43.464 520.8 45.0879 514.046ZM98.6772 520.36C109.639 507.439 109.368 508.76 101.789 499.657L94.8876 491.434H108.42C115.863 491.288 122.225 491.435 122.631 491.728C122.901 492.022 120.465 495.693 117.353 499.951C111.398 507.586 111.398 507.585 117.353 515.514C124.119 524.617 123.983 524.617 105.173 524.763C94.8878 524.763 94.888 524.765 98.6772 520.36ZM86.4974 514.046C86.768 512.284 85.5509 510.669 83.9269 510.522C79.8671 509.935 80.2725 508.76 85.009 504.943C88.9335 501.859 89.34 502.005 92.3172 505.823C93.9411 508.025 94.6172 509.787 93.3992 509.64C92.3166 509.493 91.2333 510.669 90.9626 512.284C90.6919 513.899 89.61 515.661 88.2567 516.248C87.1741 516.836 86.2267 515.808 86.4974 514.046ZM166.748 511.402C164.041 507.585 163.77 506.264 165.935 506.558C167.694 506.851 169.183 505.089 169.589 502.446C170.13 497.895 170.13 497.895 172.566 502.446C174.054 505.383 174.19 508.907 172.837 511.843C170.807 516.688 170.807 516.688 166.748 511.402ZM778.429 524.323C778.565 523.735 781.27 520.213 784.518 516.689C790.473 510.229 790.474 510.229 784.114 501.713L777.887 493.196L789.525 493.343C805.359 493.343 806.307 494.371 798.999 502.593C792.774 509.494 792.774 509.493 799.27 516.834C802.924 520.946 805.359 524.617 804.953 524.91C803.464 526.085 778.294 525.644 778.429 524.323ZM729.034 515.073C728.493 513.164 726.463 511.256 724.433 510.816C720.915 510.376 720.915 510.228 724.704 508.76C726.734 507.879 728.764 505.531 729.034 503.622C729.575 500.392 729.711 500.39 731.2 503.914C732.147 506.116 734.448 508.026 736.207 508.319C739.319 508.76 739.184 508.907 735.936 510.963C734.041 511.991 731.877 514.339 731.2 515.807C730.117 518.157 729.711 518.009 729.034 515.073ZM50.2304 424.631C50.3657 423.456 48.3349 422.281 45.899 421.84C41.5685 421.253 41.5678 421.107 45.2217 418.905C47.5223 417.73 49.4178 415.674 49.5531 414.352C49.6884 413.031 50.7717 412.15 51.8543 412.296C53.0722 412.443 53.8827 413.471 53.7474 414.646C53.6121 415.674 54.6957 416.849 56.455 417.143C60.5148 417.583 60.1088 418.903 54.6956 423.161C51.9891 425.07 50.0951 425.805 50.2304 424.631ZM219.795 520.505C229.403 511.989 230.081 508.759 223.856 500.39C220.743 496.132 218.578 492.316 218.984 491.875C219.661 491.582 226.02 491.434 233.328 491.581C247.537 491.875 247.403 491.581 237.93 502.152C233.058 507.291 233.058 507.292 239.69 516.101L246.185 524.91L235.087 524.763C216.818 524.617 215.6 524.176 219.795 520.505ZM137.652 522.855C137.652 522.121 140.493 518.451 143.741 514.781C149.56 508.173 149.56 508.173 143.47 501.125C139.951 497.161 137.245 493.344 137.381 492.463C137.516 490.995 162.686 490.848 163.769 492.316C164.175 492.757 161.605 496.281 158.086 500.098C151.726 507.146 151.726 507.145 158.493 516.248C164.447 524.177 164.717 525.204 161.063 524.763C158.763 524.47 152.537 524.176 147.124 524.176C141.846 524.176 137.516 523.736 137.652 522.855ZM178.926 494.811C177.167 492.168 177.573 491.729 180.821 492.316C183.256 492.903 184.34 494.225 183.528 495.693C181.769 498.923 181.497 498.922 178.926 494.811ZM331.441 513.605C330.087 510.962 330.223 509.346 331.576 509.493C332.659 509.64 333.606 507.733 333.471 505.09C333.336 502.447 333.607 501.566 333.877 503.034C334.148 504.502 335.772 505.97 337.396 506.117C338.885 506.41 340.102 507.439 339.966 508.613C339.831 509.641 338.478 510.375 336.854 510.228C334.959 509.935 334.147 511.256 334.553 514.046C334.824 516.395 334.69 518.304 334.284 518.304C333.742 518.157 332.523 516.101 331.441 513.752V513.605ZM379.618 522.267C382.189 521.092 382.325 520.653 380.025 519.478C378.536 518.597 378.4 518.01 379.754 518.157C380.972 518.157 383.001 519.772 384.219 521.681C385.978 524.47 385.573 525.057 381.378 524.47C377.859 523.882 377.453 523.295 379.618 522.267ZM352.011 513.605C352.146 511.549 351.334 510.376 350.251 510.816C349.033 511.403 347.68 510.523 347.004 509.201C346.192 507.439 347.139 507.145 350.116 508.319C352.552 509.2 354.583 509.053 354.718 507.878C354.854 506.704 355.394 506.264 355.8 506.852C356.477 507.586 355.665 510.229 354.176 512.725C352.147 516.249 351.605 516.541 352.011 513.605ZM410.607 518.451C412.366 513.459 411.826 511.991 407.63 509.054C402.623 505.384 402.623 505.383 408.983 504.649C413.449 504.061 415.885 502.301 417.509 498.336C419.674 492.904 419.675 492.903 421.84 498.922C423.735 504.061 424.953 504.795 430.773 504.502C437.674 504.061 437.674 504.062 432.125 508.613C427.66 512.431 426.983 514.046 428.336 517.716C430.772 524.176 430.23 524.764 424.953 521.534C421.164 519.038 419.133 519.038 414.397 521.24C408.578 524.176 408.577 524.177 410.607 518.451ZM373.258 515.514C374.07 514.339 373.799 513.018 372.581 512.431C371.228 511.844 370.822 510.229 371.363 508.907C372.175 507.439 373.258 508.173 374.611 510.816C375.964 514.193 375.964 515.514 374.069 516.395C372.581 516.983 372.176 516.688 373.258 515.514ZM389.361 514.046C389.497 512.284 388.279 510.669 386.385 510.375C383.272 510.081 383.272 509.788 386.791 506.705C388.956 504.943 390.173 502.741 389.497 501.86C388.82 500.979 389.496 500.39 390.714 500.537C392.068 500.684 393.015 502.299 392.745 504.061C392.474 505.823 394.234 507.291 396.941 507.732C401.136 508.319 401.135 508.613 397.752 510.081C395.586 510.815 393.693 513.018 393.422 514.634C393.151 516.249 392.068 517.422 390.985 517.275C389.767 517.129 389.091 515.661 389.361 514.046ZM48.0647 467.063C47.5234 465.154 46.3057 464.126 44.9524 464.566C43.8698 465.154 42.9223 464.567 43.0576 463.392C43.193 462.218 44.6816 461.484 46.4408 461.631C48.0648 461.924 49.6888 460.749 49.9595 458.987C50.2301 456.491 50.7717 456.637 53.6136 460.014C55.2375 462.216 56.0492 464.273 54.9666 464.566C54.0193 464.86 53.207 466.328 52.9363 467.943C52.395 471.907 49.1473 471.174 48.0647 467.063ZM449.582 517.128C450.123 512.577 449.176 510.375 446.334 508.907C440.785 506.264 442.004 503.475 448.635 503.622C453.101 503.769 454.724 502.447 456.348 497.749C458.378 491.729 458.379 491.729 460.409 497.749C461.897 502.3 463.791 503.915 468.528 504.502C474.753 505.383 474.754 505.384 469.747 509.348C465.958 512.431 465.28 514.339 466.498 517.422C468.663 522.855 466.633 524.03 461.626 520.36C458.243 517.864 456.619 517.864 453.1 520.36C448.77 523.296 448.77 523.295 449.582 517.128ZM496.677 523.59C496.948 522.562 499.113 519.771 501.684 517.275C508.045 510.962 508.045 508.32 501.684 501.272C498.707 497.895 496.271 494.518 496.406 493.784C496.677 492.169 521.712 492.022 522.794 493.49C523.2 493.931 520.63 497.455 517.112 501.272C510.751 508.466 510.75 508.466 517.517 517.422C523.471 525.204 523.742 526.378 520.089 525.937C517.788 525.644 511.427 525.351 506.149 525.351C500.736 525.498 496.542 524.617 496.677 523.59ZM377.182 499.363C378.129 497.014 377.859 494.518 376.641 493.784C375.423 493.05 376.505 492.755 379.076 492.902C384.489 493.49 384.625 495.106 379.347 500.098C375.558 503.769 375.558 503.768 377.182 499.363ZM486.797 514.634C486.256 512.725 484.361 510.816 482.332 510.375C478.813 509.935 478.813 509.788 482.467 508.319C484.632 507.438 486.662 505.09 486.932 503.181C487.338 499.951 487.61 499.951 489.775 503.622C490.858 505.824 493.158 507.732 494.647 507.878C496.677 508.172 496.541 508.907 493.834 510.375C491.94 511.55 489.639 513.898 489.098 515.367C487.88 517.716 487.473 517.57 486.797 514.634ZM35.4785 451.646C35.2078 450.031 35.0724 443.863 35.343 437.843C36.0197 426.391 36.0194 426.392 45.2217 435.202C50.3642 440.047 50.3653 440.048 58.2143 434.028L66.1982 428.154L66.4691 436.376C67.0104 458.399 67.8219 456.784 59.1609 449.59C51.4472 443.277 51.447 443.276 43.7333 449.002C38.0495 453.26 35.8845 453.995 35.4785 451.646ZM580.173 524.176C580.309 523.442 583.016 519.919 586.4 516.689C589.648 513.312 592.489 510.081 592.489 509.493C592.624 508.759 589.647 504.795 585.993 500.243L579.227 492.316L591 492.463C607.104 492.463 608.051 493.344 600.608 501.86C594.112 509.054 594.113 509.053 601.15 516.834C605.074 521.092 607.78 524.911 607.104 525.351C605.074 526.82 579.903 525.644 580.173 524.176ZM526.99 514.634C527.126 513.606 525.366 511.696 523.065 510.081C519.412 507.732 519.411 507.291 522.253 507.585C524.418 507.731 527.126 505.971 528.479 503.475C530.373 500.098 530.915 499.95 530.645 502.74C530.374 505.089 531.997 506.558 534.839 506.998C539.169 507.733 539.17 507.879 535.516 509.934C533.351 511.256 531.456 513.312 531.32 514.487C531.05 515.808 529.968 516.836 528.885 516.689C527.803 516.542 526.991 515.661 527.126 514.634H526.99ZM571.919 515.514C571.242 513.458 569.348 511.404 567.453 511.11C564.611 510.669 564.611 510.375 568.129 508.466C570.294 507.145 572.19 504.796 572.46 503.328C572.731 501.272 573.408 501.712 574.491 504.355C575.438 506.557 577.739 508.466 579.498 508.613C582.61 509.054 582.61 509.346 579.362 511.255C577.468 512.43 575.167 514.78 574.355 516.395C573.137 518.745 572.731 518.597 571.919 515.514ZM659.475 524.323C659.611 523.588 662.183 519.772 665.16 515.807C670.708 508.613 670.708 508.613 663.671 500.684L656.634 492.61L666.919 492.757C673.279 492.904 677.61 493.784 678.422 495.399C679.234 497.014 679.639 496.867 679.91 495.252C680.181 493.784 681.805 492.902 683.564 493.049C686.271 493.49 685.73 494.812 680.723 499.804C672.738 507.733 672.737 507.732 679.639 516.981C682.752 521.092 684.783 524.911 684.241 525.204C682.482 526.379 659.34 525.497 659.475 524.323ZM670.573 519.037C670.979 515.954 671.384 515.954 672.873 518.89C674.497 521.827 674.633 521.827 674.227 519.037C673.551 514.486 668.408 514.338 666.919 518.596C666.242 520.505 666.648 522.12 667.866 522.267C669.084 522.414 670.303 520.946 670.573 519.037ZM674.903 502.446C675.444 498.482 674.497 497.308 669.896 496.134C667.325 495.546 665.836 495.986 666.242 497.161C666.783 498.335 668.543 499.364 670.302 499.657C671.926 499.804 672.738 500.979 671.791 502.007C670.979 503.035 671.25 503.914 672.468 504.208C673.551 504.355 674.768 503.474 674.903 502.446ZM612.111 513.899C611.569 512.137 609.54 510.375 607.645 510.228C604.127 509.641 604.127 509.64 607.916 508.025C609.946 507.144 611.975 504.796 612.246 502.887C612.787 499.657 612.924 499.804 614.954 503.328C616.172 505.53 618.608 507.438 620.096 507.732C622.126 508.025 621.719 508.907 618.742 510.669C616.576 511.844 615.088 514.045 615.629 515.367C616.171 516.688 615.901 517.569 614.818 517.422C613.6 517.276 612.517 515.661 612.111 513.899ZM696.961 524.763C697.097 524.176 699.126 521.386 701.698 518.743C704.134 515.954 706.841 512.724 707.788 511.549C708.736 510.228 706.706 505.824 702.917 501.125L696.15 493.049H706.435C712.255 493.049 718.479 492.904 720.508 492.757C725.38 492.463 724.84 494.078 717.938 501.86C711.984 508.32 711.984 508.319 718.344 516.834L724.569 525.204L716.45 525.498C711.984 525.645 705.758 525.791 702.646 525.937C699.398 525.937 696.961 525.498 696.961 524.763ZM652.44 515.661C652.575 513.605 651.356 511.843 649.732 511.549C647.973 511.402 646.755 510.229 646.891 509.201C647.026 508.027 648.108 507.146 649.19 507.292C650.273 507.439 651.356 506.264 651.627 504.649C651.898 502.74 652.981 501.566 654.064 501.713C655.282 501.86 655.958 503.328 655.688 505.09C655.417 506.705 656.905 508.32 658.8 508.613C661.912 509.054 661.912 509.2 658.664 511.255C656.77 512.283 654.469 514.633 653.522 516.248C652.439 518.598 652.169 518.45 652.44 515.661ZM686.272 513.164C683.971 510.081 683.159 507.585 684.377 507.732C685.73 507.878 687.895 506.118 689.249 503.622C691.143 500.392 691.683 500.244 691.413 502.887C691.142 505.089 692.631 506.852 695.067 507.145C697.367 507.439 699.127 508.613 698.992 509.64C698.856 510.815 697.368 511.549 695.744 511.402C694.12 511.108 692.36 512.723 691.548 514.926C690.601 518.596 690.196 518.45 686.272 513.164ZM128.449 513.164C128.584 511.402 127.366 509.787 125.472 509.64C122.224 509.2 122.225 508.906 126.014 505.97C128.044 504.061 129.261 501.859 128.584 500.978C128.043 500.097 128.448 499.51 129.802 499.657C131.155 499.951 132.103 501.419 131.832 503.181C131.697 504.796 132.916 506.411 134.675 506.705C137.652 507.145 137.516 507.291 134.269 509.934C132.103 511.402 130.886 513.606 131.427 514.781C131.968 515.808 131.426 516.689 130.208 516.542C128.99 516.396 128.178 514.779 128.449 513.164ZM246.861 510.816C244.966 508.32 244.425 506.411 245.508 506.558C246.726 506.704 248.891 504.942 250.515 502.593C252.815 499.069 253.222 498.924 252.951 501.86C252.681 503.769 254.034 505.529 255.793 505.823C257.417 505.97 258.769 507.145 258.499 508.319C258.363 509.347 257.417 510.228 256.199 510.081C255.117 509.934 254.033 511.257 253.763 512.872C253.221 516.983 251.056 516.395 246.861 510.816ZM290.571 513.899C290.165 511.99 288.001 510.081 286.106 509.787C282.588 509.2 282.588 509.2 286.377 507.585C288.407 506.704 290.436 504.502 290.707 502.593C291.248 499.216 291.385 499.217 293.55 503.034C294.632 505.089 296.933 507.146 298.557 507.292C300.722 507.733 300.586 508.319 297.88 509.934C295.85 510.962 293.684 513.165 292.872 514.781C291.79 517.13 291.383 516.835 290.571 513.899ZM73.2355 481.304C72.9648 479.983 72.9647 451.94 73.1 419.198C73.6414 332.573 73.7771 265.768 73.5064 231.411C73.3711 214.673 73.5064 175.178 73.5064 143.611C73.6418 112.044 73.5062 83.5592 73.2355 80.1823C72.8295 74.4562 73.2352 74.1636 77.9716 75.7787C80.9489 76.8064 83.3852 76.8064 83.5206 75.7787C83.6559 74.7509 86.2262 74.3094 89.3387 74.7499C94.8872 75.484 167.424 75.9253 255.793 75.6317C281.099 75.6317 316.825 75.4849 335.095 75.6317C353.499 75.6317 401.405 75.7788 441.598 75.9256C481.79 76.0725 540.117 76.2179 570.972 76.3647C601.962 76.5116 656.499 76.6587 692.09 76.6587C727.681 76.8055 782.625 76.9526 814.291 76.9526C845.823 77.0994 873.7 76.9523 876.136 76.6587C880.06 76.365 880.736 77.3928 881.007 83.9998C881.278 90.7537 881.008 238.753 880.602 433.734C880.467 462.218 880.06 485.708 879.383 486.149C878.842 486.589 859.22 486.737 835.673 486.59C744.868 486.149 510.344 485.414 451.476 485.561C417.644 485.561 356.206 485.563 314.796 485.269C273.521 484.975 225.615 484.828 208.293 484.975C172.431 485.122 77.9724 484.681 75.4012 484.24C74.4539 484.24 73.3708 482.773 73.2355 481.304ZM148.072 479.249C183.799 479.395 217.496 479.543 222.638 479.69C227.781 479.69 242.395 479.69 254.98 479.69C267.701 479.543 311.277 479.69 352.146 479.837C392.88 479.983 446.876 479.983 472.047 479.983C522.118 479.837 591.271 479.982 757.048 480.717C816.186 481.01 866.662 481.01 869.234 480.863C872.617 480.423 874.241 478.955 874.647 475.431C875.053 472.788 875.324 427.567 875.324 374.858C875.324 273.403 875.325 235.375 875.595 141.261C875.595 109.254 875.595 82.6788 875.46 82.532C875.189 82.3851 865.715 82.385 854.213 82.385C829.448 82.6786 707.111 82.5315 639.176 82.0911C576.655 81.7974 420.081 81.358 370.957 81.358C349.71 81.2112 292.873 81.211 244.561 81.211C196.384 81.211 139.412 81.0638 117.894 80.7701C78.9199 80.3297 78.9185 80.3292 79.1891 85.7616C79.1891 88.6981 79.3245 124.523 79.1891 165.194C79.0538 206.01 79.0537 275.163 79.0537 318.623C79.0537 362.376 78.9196 413.031 78.6489 431.531C78.243 474.403 78.3772 478.367 80.9485 478.808C82.0311 478.955 112.21 479.102 148.072 479.249ZM483.009 390.567C483.009 389.392 486.121 379.263 489.775 367.81C496.271 347.842 499.924 340.208 498.57 349.457C497.488 358.707 482.332 398.348 483.009 390.567ZM207.615 349.016C206.533 333.16 207.345 326.258 210.052 326.552C213.706 326.993 213.977 349.457 210.323 352.246C208.834 353.421 207.886 352.393 207.615 349.016ZM221.961 351.805C221.419 350.924 221.42 346.079 222.096 341.087C223.044 333.746 222.367 331.691 219.255 330.37C209.105 326.405 217.766 324.937 247.403 326.111C252.274 326.258 259.853 326.258 264.183 326.111C269.19 325.964 272.033 326.552 271.762 328.02C271.627 329.195 269.326 330.076 266.755 330.076C264.184 330.223 261.883 331.69 261.613 333.305C261.342 335.361 262.83 336.39 265.942 336.39C271.761 336.243 271.761 339.913 265.942 340.794C258.905 341.528 259.852 347.695 266.889 348.576C276.091 349.75 273.927 353.128 264.319 352.687C256.064 352.54 256.064 352.539 256.335 340.794C256.47 329.929 256.199 329.049 251.463 329.343C246.862 329.636 246.454 330.517 246.59 338.299C246.59 343.144 246.861 348.136 246.996 349.604C247.402 351.073 246.321 352.246 244.697 351.952C242.937 351.805 241.854 347.841 241.854 340.941C241.718 330.663 241.583 330.37 235.223 330.223C228.592 330.076 228.592 330.076 227.645 341.822C226.698 352.834 224.938 355.77 221.961 351.805ZM498.301 373.829C499.519 364.726 500.331 361.35 500.06 366.195C499.79 371.041 498.842 378.529 497.895 382.64C496.947 386.751 497.083 382.785 498.301 373.829ZM731.742 291.902C733.501 278.394 732.147 271.641 727.681 272.375C724.975 272.816 723.892 272.081 724.163 269.879C724.433 268.117 726.193 266.796 728.223 267.09C730.253 267.237 740.537 267.382 751.228 267.235C767.332 267.088 770.445 267.529 770.039 269.879C769.904 271.347 768.279 272.375 766.385 272.081C763.408 271.788 762.866 273.549 762.46 286.323C762.054 298.069 761.379 300.711 758.943 300.417C756.913 300.123 756.1 296.16 756.371 286.47C756.777 271.934 755.694 270.907 743.109 272.522C738.508 273.109 738.237 273.843 737.831 286.323C737.56 297.775 737.019 299.684 734.177 299.243C731.741 298.95 731.065 296.894 731.606 291.902H731.742ZM131.021 213.646C125.472 210.856 113.834 189.42 115.729 185.749C118.435 180.757 120.87 182.812 128.178 195.732C135.756 209.24 136.975 209.975 142.523 205.717C146.719 202.634 145.907 198.816 137.652 185.014C132.78 176.645 133.05 172.388 138.463 173.123C142.523 173.563 153.349 196.027 152.537 202.193C151.32 211.149 138.599 217.757 131.021 213.646ZM773.422 284.414C773.828 275.605 774.369 268.41 774.911 268.117C775.181 267.823 779.647 267.382 784.518 267.235C791.961 267.088 793.45 267.53 793.044 270.319C792.773 272.375 790.744 273.255 786.549 272.667C781.677 271.933 780.188 272.816 779.782 275.899C779.241 279.129 780.595 280.303 785.466 280.89C792.504 281.771 793.315 285.588 786.278 285.588C783.3 285.588 781.136 287.204 780.324 290.434C779.106 294.839 779.376 295.131 786.549 294.691C792.232 294.397 793.857 294.985 793.586 297.334C793.315 299.83 783.707 301.445 775.181 300.417C773.828 300.27 773.151 293.957 773.422 284.414ZM796.158 285.443C796.564 268.558 798.052 265.915 806.037 266.943C817.81 268.411 825.118 286.028 817.539 294.691C814.562 297.921 806.578 300.418 800.894 299.684C796.158 298.95 795.887 298.069 796.158 285.443ZM812.668 289.258C815.374 282.651 812.397 273.989 807.254 273.402C802.788 272.668 802.112 275.017 802.518 287.644C802.653 293.81 803.465 295.131 806.848 294.691C809.013 294.397 811.72 291.901 812.668 289.258ZM249.026 384.107C245.373 378.822 246.185 372.214 250.921 368.543C254.981 365.46 257.687 365.313 259.041 368.249C259.582 369.277 257.687 370.599 255.115 370.893C250.379 371.921 250.379 371.92 255.251 373.976C261.611 376.619 262.018 384.4 256.064 386.602C252.816 387.924 251.192 387.338 249.026 384.107ZM256.335 381.758C256.605 380.143 255.927 378.233 254.98 377.352C252.679 375.59 249.703 379.115 251.057 382.052C252.545 385.282 255.929 385.282 256.335 381.758ZM448.771 412.296C449.312 406.864 458.785 386.309 460.815 386.602C462.71 386.896 461.897 389.099 453.507 405.543C450.8 410.829 448.635 413.911 448.771 412.296ZM454.995 411.71C455.536 407.159 477.189 367.369 480.166 365.167C482.06 363.845 482.197 364.138 481.114 366.341C480.302 367.956 474.618 379.555 468.663 392.329C458.649 413.471 453.777 420.079 454.995 411.71ZM265.13 384.694C261.746 381.317 261.747 381.17 265.942 382.932C270.95 384.987 274.873 381.61 270.272 379.114C268.107 377.94 267.973 376.767 269.596 375.151C272.574 372.362 271.084 369.865 266.889 370.893C265.265 371.333 264.048 370.747 264.183 369.572C264.454 367.076 271.897 366.047 274.333 368.102C275.28 368.983 276.363 373.094 276.498 377.352C276.904 387.043 270.949 390.86 265.13 384.694ZM281.234 386.602C277.175 384.4 279.07 381.17 283.265 383.079C286.242 384.547 287.324 384.107 287.73 381.464C288.001 379.408 287.054 378.382 285.16 378.822C281.1 379.85 279.611 369.131 283.536 367.222C288.543 365.167 292.196 370.012 291.655 378.234C290.978 387.484 287.595 390.273 281.234 386.602ZM287.865 372.214C287.324 371.039 285.971 369.866 284.889 369.719C283.806 369.572 282.858 370.453 282.723 371.481C282.588 372.655 283.94 373.829 285.7 373.976C287.459 374.269 288.407 373.535 287.865 372.214ZM125.472 384.401C124.931 383.08 126.284 382.346 128.72 382.64C131.02 382.933 133.05 382.345 133.185 381.17C133.32 379.995 132.103 378.969 130.343 378.675C128.72 378.528 127.502 377.5 127.638 376.325C127.773 375.151 128.854 374.417 129.937 374.564C131.02 374.71 132.103 373.829 132.238 372.655C132.374 371.187 130.615 370.6 128.044 371.187C124.661 371.774 123.847 371.187 124.795 369.278C125.471 367.81 128.314 366.929 131.021 367.222C134.81 367.81 135.892 368.984 135.215 372.508C134.809 375.004 135.351 377.206 136.299 377.352C137.381 377.499 137.651 379.703 136.839 382.199C135.486 387.044 127.502 388.659 125.472 384.401ZM140.222 383.667C140.087 382.198 140.494 377.793 141.17 373.829C142.253 367.662 143.2 366.782 147.53 367.369C151.32 367.957 152.537 369.131 152.267 372.214C151.996 374.416 152.267 377.501 152.944 378.822C153.621 380.29 153.214 382.933 152.537 384.548C150.508 388.219 141.034 387.484 140.358 383.667H140.222ZM149.832 381.317C150.102 380.142 148.748 378.969 147.124 378.822C145.365 378.528 143.876 379.262 143.741 380.584C143.606 381.612 144.825 382.638 146.584 382.932C148.208 383.079 149.696 382.345 149.832 381.317ZM149.019 372.802C149.154 371.627 148.342 370.599 147.124 370.452C146.041 370.305 144.96 371.186 144.825 372.214C144.689 373.389 145.501 374.417 146.584 374.564C147.802 374.71 148.883 373.976 149.019 372.802ZM157.815 384.548C158.086 383.374 159.439 382.491 161.063 382.785C162.687 382.932 164.852 382.198 165.664 381.023C166.882 379.555 165.935 379.262 162.958 379.849C156.598 380.877 153.349 372.214 158.762 368.102C164.716 363.551 169.318 368.838 167.965 378.675C167.153 385.429 166.205 386.602 162.281 386.749C159.574 386.749 157.68 385.723 157.815 384.548ZM165.528 373.976C165.799 372.214 164.446 370.599 162.823 370.452C159.575 370.012 158.491 372.362 160.521 375.005C162.551 377.647 165.122 377.206 165.528 373.976ZM172.43 384.254C172.566 382.933 174.461 382.491 176.355 383.079C178.385 383.666 180.01 382.932 180.28 381.17C180.416 379.408 179.061 378.087 177.166 378.087C172.701 378.234 171.889 368.25 176.22 367.075C181.092 365.901 185.152 366.929 184.881 369.131C184.746 370.306 182.716 371.04 180.416 370.746C175.003 370.012 174.867 373.683 180.416 375.151C187.588 377.207 185.557 386.749 177.844 386.602C174.731 386.602 172.295 385.576 172.43 384.254ZM191.377 383.814C191.647 382.052 193 378.527 194.489 375.738C196.925 371.186 196.654 370.745 191.512 370.011C187.181 369.424 186.775 368.838 189.346 367.663C194.624 365.167 202.61 366.781 200.715 370.011C199.903 371.626 198.279 376.032 196.925 379.996C194.76 386.897 190.565 389.686 191.377 383.814ZM207.481 379.996C207.075 376.179 205.856 372.215 204.774 371.187C203.285 369.866 203.555 368.985 205.991 367.81C210.322 365.755 211.541 367.81 211.811 378.381C212.217 389.099 208.293 390.42 207.481 379.996ZM215.465 386.455C214.789 385.574 216.413 382.933 218.984 380.437C223.991 375.445 225.75 370.452 222.367 370.011C221.285 369.864 220.201 370.6 220.066 371.628C219.931 372.802 218.847 373.536 217.765 373.39C214.382 372.949 216.141 367.516 219.931 366.635C221.96 366.194 224.668 367.075 226.157 368.69C228.728 371.48 228.321 373.829 223.856 381.464C222.232 384.4 222.502 384.989 225.344 384.254C227.239 383.814 228.863 384.254 228.727 385.428C228.592 386.456 227.103 387.337 225.479 387.043C223.856 386.896 221.284 387.043 219.66 387.337C217.9 387.778 216.142 387.336 215.465 386.455ZM233.328 386.749C229.268 384.4 231.028 381.17 235.358 383.079C238.065 384.4 239.419 383.96 239.69 381.758C239.96 379.996 238.47 378.234 236.576 378.087C233.869 377.647 233.735 377.059 235.9 375.444C240.095 372.214 239.554 370.452 234.276 370.746C229.675 371.187 229.81 371.039 233.734 368.543C239.959 364.726 243.071 367.517 243.477 377.207C243.748 387.338 240.23 390.567 233.328 386.749ZM438.485 412.884C444.034 401.873 444.034 401.578 438.892 399.523C432.125 396.88 431.584 388.659 437.133 375.151C439.704 369.132 442.681 362.817 443.628 361.055C444.846 359.147 443.899 355.33 440.651 350.484C437.133 344.905 436.321 341.235 437.539 335.949C438.622 330.957 437.944 327.726 435.102 324.349C433.072 321.707 431.989 318.476 432.666 316.861C433.613 315.246 432.937 314.072 431.177 313.779C426.305 313.191 423.193 301.004 425.899 292.929C427.388 288.084 428.606 286.764 429.553 288.819C430.501 291.022 431.177 290.874 432.666 288.378C435.102 283.68 437.268 284.414 439.027 290.287C440.651 295.132 440.651 295.132 443.357 290.287C444.71 287.498 445.251 284.854 444.575 284.267C443.898 283.533 442.816 280.743 442.275 278.247C441.192 271.346 435.915 271.348 435.644 278.102C435.509 281.185 434.02 283.826 432.532 284.12C430.773 284.56 430.501 283.092 431.855 278.835C433.208 274.87 432.936 270.025 430.906 264.299C429.147 259.601 427.524 250.351 427.118 243.744C426.848 237.137 425.765 229.796 424.953 227.446C424.005 225.097 423.734 220.692 424.14 217.609C424.546 214.525 423.465 210.269 422.111 207.92C420.623 205.864 419.54 201.165 419.946 197.641C420.352 193.97 418.998 188.833 416.698 186.043C411.555 178.996 413.721 166.955 420.487 166.955C421.435 166.955 422.923 166.955 423.6 166.808C424.412 166.808 424.005 165.34 422.787 163.432C420.486 159.614 423.329 149.924 426.712 150.364C428.065 150.511 428.065 151.686 426.306 154.182C422.652 159.174 424.817 160.789 431.042 157.852C437.267 154.769 439.569 147.134 433.885 148.455C431.314 149.19 430.772 148.75 431.99 147.135C434.155 144.492 439.838 144.933 439.568 147.722C439.432 148.75 440.787 149.337 442.546 148.896C445.253 148.309 445.523 149.189 443.763 153.741C442.546 156.971 440.516 161.082 439.163 162.844C437.945 164.753 437.674 166.515 438.485 166.661C439.433 166.955 441.327 167.397 442.951 167.837C444.575 168.131 446.334 171.8 446.74 175.764C447.552 181.784 447.011 183.546 443.763 185.308C438.486 188.098 436.726 194.559 439.568 200.578C440.785 203.368 441.869 209.681 442.004 214.673C442.004 219.812 444.033 231.558 446.469 240.808C450.665 257.986 450.664 257.987 458.243 257.693C473.806 257.106 474.482 255.93 465.009 247.414C456.078 239.486 458.785 238.311 469.07 245.652C480.979 254.168 484.631 252.7 485.037 238.899L485.308 227.887L487.745 238.752C489.098 244.625 491.535 249.911 493.429 250.499C495.053 251.086 500.466 248.443 505.067 244.772L513.729 237.87L508.044 245.211C500.466 254.902 503.037 258.133 515.082 253.875C527.667 249.471 528.478 250.204 517.517 256.37C512.239 259.16 508.314 262.391 508.855 263.272C509.261 264.153 514.541 265.326 520.495 265.62C532.404 266.501 531.862 267.09 518.058 268.705C509.397 269.732 508.991 270.172 508.991 276.779C508.991 280.743 509.667 286.029 510.615 288.525C511.697 291.168 511.833 293.957 511.156 294.838C508.315 298.215 512.645 310.254 517.652 313.044C522.524 315.687 522.66 315.834 518.6 317.008C514.946 318.036 515.217 318.329 520.224 318.623C525.502 318.917 526.719 320.24 529.832 329.343C534.162 341.529 541.876 349.604 545.124 345.199C552.973 334.921 553.378 334.921 564.746 341.087C575.301 346.667 578.684 353.568 573.001 357.826C571.783 359 570.837 362.817 570.837 366.488C571.107 373.682 564.746 384.989 559.739 386.163C557.98 386.604 556.356 390.713 555.544 397.614C553.515 413.03 549.861 417.436 540.523 415.381C534.569 414.206 533.079 412.737 532.538 408.479C531.861 403.634 531.591 403.782 529.967 410.242C528.208 417.29 528.208 417.289 526.449 411.416C524.419 403.928 522.254 403.34 523.201 410.388C523.607 413.471 522.93 415.675 521.712 415.381C520.63 415.234 518.599 406.278 517.517 395.56C515.351 376.62 515.216 376.178 512.509 382.932C511.021 386.749 506.961 392.036 503.713 394.678C500.465 397.321 497.354 402.313 496.542 405.69C494.376 415.821 492.617 414.792 492.617 403.193C492.481 397.321 493.158 392.036 493.97 391.449C494.646 390.861 495.053 392.476 494.782 394.972C494.106 399.377 494.376 399.377 499.654 394.531C504.255 390.42 505.202 388.218 504.39 383.079C503.849 379.702 503.984 372.655 504.661 367.369C505.338 362.231 505.878 352.686 505.743 346.373C505.472 337.417 506.149 334.187 508.72 332.425C510.344 331.251 511.562 328.902 511.156 327.581C510.751 325.966 511.834 325.084 513.322 325.231C514.811 325.378 515.757 326.406 515.486 327.434C515.08 328.609 516.569 329.929 518.869 330.517C522.253 331.691 522.254 330.957 518.058 326.405C515.081 323.028 511.021 320.826 507.773 320.679C504.796 320.679 502.495 319.651 502.631 318.623C502.766 317.595 501.684 317.156 500.06 317.89C493.835 320.827 486.933 318.476 481.114 311.282C474.754 303.5 471.234 304.235 469.881 313.632C468.663 322.588 465.01 323.029 464.604 314.219C464.469 309.521 463.386 305.41 462.168 305.263C461.085 305.117 460.544 306.584 460.95 308.493C462.845 316.422 462.709 321.56 460.409 325.964C457.431 331.837 457.702 342.704 460.815 344.172C462.168 344.759 464.469 342.409 466.228 339.032C467.988 335.508 470.017 333.453 470.694 334.334C471.37 335.068 474.888 333.6 478.677 330.958C482.467 328.315 484.632 327.287 483.549 328.755C482.196 330.517 482.332 331.104 483.955 330.37C487.203 328.901 485.985 323.616 481.925 321.708C479.895 320.533 479.22 320.973 479.761 323.175C480.844 328.021 479.084 326.993 477.054 321.855C474.888 316.128 477.866 312.163 480.572 317.155C483.143 321.56 489.503 323.616 493.563 321.267C495.322 320.239 492.21 325.378 487.068 332.719C474.212 350.338 470.829 354.155 471.235 350.337C471.371 348.576 468.935 350.485 465.822 354.302C456.349 366.048 455.671 364.873 464.738 352.54C474.888 338.886 475.971 337.857 473.264 344.464C471.505 348.575 471.641 348.87 474.077 345.787C475.701 344.025 476.377 341.822 475.836 341.087C475.295 340.353 476.512 338.152 478.677 336.39C480.843 334.481 482.196 332.572 481.79 331.838C481.248 331.25 474.753 336.095 467.31 342.555C459.867 349.016 453.101 353.862 452.154 353.128C451.342 352.541 450.665 352.981 450.53 354.449C450.395 355.917 447.823 360.909 444.845 365.608C441.733 370.453 438.215 377.647 436.862 381.758C434.696 388.365 434.832 389.098 438.756 388.511C441.869 388.071 443.629 385.575 445.929 377.646C447.553 371.92 449.042 368.984 449.177 371.04C449.854 376.032 450.395 375.739 464.469 364.14C475.837 354.743 495.999 332.719 493.563 332.425C492.887 332.279 494.105 329.783 496.135 326.846C499.654 321.854 508.18 319.504 505.203 324.349C504.526 325.524 499.654 334.188 494.376 343.731C489.098 353.275 483.956 361.497 483.144 362.084C481.385 363.259 481.925 362.084 490.315 347.108C497.353 334.334 496.135 333.747 487.88 345.64C484.362 350.779 478.408 357.973 474.483 361.643C470.694 365.314 463.521 375.003 458.649 383.079C453.777 391.154 449.583 397.321 449.041 396.881C448.771 396.294 451.477 390.86 455.266 384.694C459.055 378.527 461.761 372.362 461.491 371.187C460.543 367.223 446.741 391.009 447.282 395.56C447.823 400.112 443.086 411.122 439.432 414.058C437.808 415.233 437.538 414.94 438.485 412.884ZM436.726 176.646C440.651 177.087 440.651 176.939 437.403 174.443C433.344 171.36 420.487 171.507 418.051 174.737C416.833 176.059 418.727 176.646 424.411 176.499C429.012 176.206 434.426 176.353 436.726 176.646ZM504.661 306.143C503.443 304.675 502.495 304.381 502.36 305.703C501.954 308.345 503.984 311.136 505.608 309.961C506.284 309.374 505.879 307.759 504.661 306.143ZM468.121 281.478C467.039 280.891 466.227 278.101 466.633 275.458C467.039 271.787 466.092 270.319 463.114 269.879C458.107 269.291 458.243 268.557 462.032 280.302C464.874 288.818 465.416 289.406 467.852 286.176C469.747 283.533 469.881 282.359 468.121 281.478ZM496.542 285.735C496.948 282.652 496 280.449 494.105 280.302C490.857 279.862 490.046 281.625 491.399 287.058C492.617 292.343 495.73 291.461 496.542 285.735ZM441.598 264.446C441.056 250.938 438.892 243.009 434.156 237.87C431.584 234.787 429.284 232.585 428.878 232.879C427.524 233.907 431.313 260.336 433.614 265.034C437.674 273.256 442.004 272.962 441.598 264.446ZM527.937 396.587C528.208 395.119 527.26 392.623 525.907 391.302C524.012 389.099 523.472 389.833 523.607 394.825C523.607 400.698 527.26 402.166 527.937 396.587ZM547.154 389.981C554.597 376.179 554.597 376.619 549.049 374.564C546.613 373.829 543.094 372.068 541.199 371.04C538.222 369.278 537.681 370.452 536.463 379.408C535.109 390.126 536.462 400.699 539.304 400.993C540.251 401.139 543.771 396.147 547.154 389.981ZM530.374 387.484C530.644 385.282 530.238 383.814 529.561 384.107C528.749 384.401 526.991 380.877 525.502 376.031C524.149 371.333 522.389 367.809 521.712 368.249C521.036 368.837 519.412 367.222 518.058 364.873C516.84 362.377 514.404 360.175 512.645 360.028C510.074 359.588 510.073 357.679 512.374 348.723C513.863 342.556 514.674 336.243 513.862 334.334C513.05 332.279 511.563 336.977 509.804 347.255C507.638 360.175 507.774 363.257 510.074 362.67C512.916 361.936 522.794 372.068 522.388 375.151C522.117 377.06 528.207 391.302 529.155 391.302C529.561 391.449 530.103 389.686 530.374 387.484ZM510.75 369.425C507.908 365.755 506.827 367.956 506.827 378.087L506.962 387.484L509.804 379.555C511.563 374.71 511.833 370.893 510.75 369.425ZM526.99 365.02C522.795 350.925 522.66 350.044 525.502 352.393C526.72 353.274 526.449 351.072 525.231 347.402C522.66 340.207 519.142 336.243 518.736 339.767C518.6 340.941 519.411 342.116 520.764 342.263C521.982 342.41 522.253 344.025 521.171 345.64C519.682 348.723 527.666 379.702 529.696 378.087C530.238 377.794 529.02 371.774 526.99 365.02ZM552.432 369.866C552.838 366.049 562.04 357.091 565.017 357.385C566.37 357.678 567.994 355.183 568.535 352.099C569.618 347.401 568.672 345.785 562.582 342.408C555.951 338.444 555.408 338.444 551.484 342.408C538.628 355.476 535.786 368.543 546.612 364.579C551.214 362.67 552.838 365.755 548.507 367.81C545.124 369.279 545.395 371.92 548.914 372.361C550.537 372.655 552.162 371.481 552.432 369.866ZM549.049 357.385C549.996 355.77 551.349 355.183 552.297 355.917C553.109 356.504 553.649 355.77 553.243 353.861C552.567 351.659 553.515 350.779 555.68 351.072C559.604 351.513 559.469 355.918 555.409 358.854C551.484 361.938 547.154 360.908 549.049 357.385ZM493.294 267.09C499.113 268.705 501.142 268.558 500.33 266.796C498.706 263.419 485.444 261.803 478.542 264.152C475.565 265.18 472.452 268.117 471.776 270.613C470.558 274.871 470.829 274.871 477.866 270.026C484.091 265.621 486.257 265.181 493.294 267.09ZM460.95 266.208C468.393 265.18 467.175 262.097 459.056 261.07C454.048 260.335 451.747 261.07 451.476 263.272C451.07 266.502 453.372 267.236 460.95 266.208ZM430.906 213.499C431.177 211.297 430.095 209.24 428.607 208.947C426.577 208.8 425.9 210.121 426.17 212.911C426.441 215.26 427.524 217.316 428.471 217.316C429.554 217.463 430.636 215.848 430.906 213.499ZM428.2 194.264C429.012 193.383 428.741 192.355 427.659 192.208C426.576 192.062 424.818 192.796 424.006 193.823C423.194 194.851 423.464 195.879 424.546 196.026C425.764 196.173 427.388 195.439 428.2 194.264ZM512.374 315.981C513.321 315.1 513.052 314.072 511.969 313.926C510.751 313.779 509.127 314.513 508.315 315.54C507.503 316.568 507.773 317.596 508.72 317.743C509.938 317.89 511.562 317.156 512.374 315.981ZM443.763 297.187C450.259 289.993 451.747 290.287 446.74 297.628C444.169 301.299 444.17 301.592 447.282 299.243C451.477 296.013 456.214 286.616 452.831 288.084C450.124 289.406 448.365 283.092 450.665 280.302C451.613 278.981 451.206 278.688 449.582 279.569C448.093 280.157 447.147 282.064 447.553 283.679C447.959 285.294 445.387 290.434 442.004 295.279C434.561 305.703 435.373 306.731 443.763 297.187ZM448.093 331.397C454.318 321.559 454.725 320.385 452.018 316.861C450.124 314.512 449.041 313.925 448.771 315.687C448.635 317.009 449.447 318.184 450.665 318.331C451.883 318.625 452.424 319.798 451.612 321.12C450.935 322.588 449.447 323.322 448.229 322.882C447.146 322.441 446.198 324.497 446.198 327.287C446.063 330.223 444.981 333.012 443.628 333.599C442.41 334.187 442.275 333.6 443.493 332.131C444.71 330.516 444.575 330.076 443.222 330.664C441.056 331.545 438.621 341.823 440.516 342.116C440.922 342.263 444.439 337.416 448.229 331.397H448.093ZM444.845 317.743C446.469 312.017 446.47 309.667 445.116 311.429C442.951 314.072 439.703 329.196 441.733 327.434C442.139 327.14 443.628 322.735 444.845 317.743ZM499.248 329.049C500.736 326.846 501.413 325.084 501.007 324.937C500.466 324.937 498.706 326.552 497.217 328.755C495.729 330.81 494.917 332.573 495.458 332.719C495.999 332.719 497.759 331.104 499.248 329.049ZM435.915 310.255C435.374 309.08 434.019 307.905 432.937 307.758C431.989 307.612 430.908 308.492 430.773 309.52C430.637 310.695 431.99 311.723 433.749 312.017C435.509 312.164 436.592 311.43 435.915 310.255ZM493.023 312.605C493.158 311.136 489.774 306.731 485.444 302.914C477.866 296.16 477.731 295.867 482.738 295.867C489.369 295.867 493.835 292.783 488.287 292.049C485.716 291.609 484.227 289.992 484.362 287.35C484.497 285 485.445 283.387 486.528 283.534C487.61 283.534 488.692 281.477 489.098 278.688C489.504 275.604 491.129 273.696 493.429 273.549C496.001 273.402 495.729 272.522 491.939 270.172C487.609 267.53 486.256 267.529 481.79 271.346C476.647 275.604 476.648 275.604 480.979 275.017C484.091 274.577 485.308 275.458 485.037 277.808C484.767 279.863 482.873 280.89 480.301 280.449C476.647 280.009 476.106 280.743 476.783 285.735C477.189 288.965 477.055 294.104 476.513 297.187C475.701 301.299 477.054 304.088 482.061 308.493C485.579 311.723 487.88 314.953 486.932 315.54C485.985 316.274 486.933 316.422 488.963 315.981C490.992 315.541 492.888 314.073 493.023 312.605ZM433.885 299.831C435.915 298.656 436.32 298.068 434.831 298.655C433.207 299.096 432.261 298.069 432.532 295.867C432.938 292.783 432.666 292.635 429.553 294.838C427.388 296.453 426.441 299.39 426.847 302.767C427.389 306.291 428.066 307.025 429.013 305.117C429.69 303.501 431.99 301.152 434.02 299.831H433.885ZM468.799 298.508C468.122 292.635 463.656 292.343 462.032 298.069C461.085 301.006 461.357 301.446 462.981 299.537C465.552 296.601 467.174 300.858 466.633 308.64C466.362 312.898 466.499 312.898 467.852 308.346C468.8 305.85 469.205 301.445 468.799 298.508ZM456.348 341.234C456.483 331.25 454.995 331.545 453.642 341.822C453.101 346.521 453.372 349.898 454.319 349.457C455.402 349.017 456.213 345.346 456.348 341.234ZM516.705 355.329C516.841 353.714 516.164 351.806 515.082 350.925C514.134 350.044 513.051 351.218 512.78 353.567C512.374 355.916 513.051 357.973 514.269 358.119C515.351 358.266 516.435 356.944 516.705 355.329ZM563.664 369.719C564.205 368.691 562.581 367.222 560.145 366.635C557.709 366.194 555.544 366.928 555.274 368.249C554.868 371.48 561.905 372.656 563.664 369.719ZM536.463 358.854C536.192 356.505 536.734 355.183 537.411 355.917C538.223 356.651 539.711 355.77 540.523 354.008C541.877 351.659 541.199 351.218 537.68 351.805C534.838 352.393 533.756 351.953 534.839 350.631C535.651 349.604 535.515 347.989 534.432 347.255C532.403 345.493 530.644 353.567 531.998 359.146C533.216 364.138 537.139 363.846 536.463 358.854ZM825.117 216.141C825.658 212.617 824.17 209.974 820.245 207.185C814.967 203.514 814.292 203.514 811.044 207.038C809.014 209.387 806.443 210.121 804.548 209.094C799.812 206.598 800.353 206.01 816.322 192.502C836.215 175.618 838.649 176.939 835.266 203.073C832.83 220.986 832.424 222.308 828.635 221.867C825.658 221.427 824.711 219.958 825.117 216.141ZM828.5 197.494C829.718 194.704 830.261 191.916 829.99 191.475C828.501 189.714 821.057 197.641 822.004 199.991C823.899 203.955 826.335 202.926 828.5 197.494ZM322.375 140.82C320.751 137.003 324.134 134.801 330.63 135.682C334.148 136.122 337.395 135.094 338.342 133.332C340.508 129.368 339.29 128.195 329.681 125.552C320.479 123.203 315.202 115.861 318.314 110.135C320.344 106.317 330.764 102.206 336.583 102.941C344.973 103.968 342.538 111.016 334.013 110.429C323.457 109.841 324.81 118.21 335.366 119.532C351.605 121.734 351.74 138.913 335.501 142.29C327.111 144.052 323.728 143.61 322.375 140.82ZM784.654 198.964C769.903 188.099 779.648 161.083 797.511 163.432C806.172 164.606 814.426 172.534 810.095 175.764C807.93 177.526 806.577 177.233 803.871 173.856C797.24 166.221 786.955 172.829 785.331 185.896C784.654 191.182 789.933 196.467 796.022 196.32C798.052 196.173 799.405 197.349 799.135 199.111C798.729 203.075 789.796 202.928 784.654 198.964ZM360.672 120.853C358.913 106.17 358.913 106.171 352.553 106.464C347.275 106.905 346.463 106.318 347.546 103.235C349.44 97.068 377.587 94.8651 376.775 100.885C376.504 102.647 374.882 103.822 373.123 103.675C368.386 102.941 367.168 107.198 369.062 118.797C371.363 132.892 370.822 136.71 366.356 136.123C363.379 135.682 362.161 132.158 360.672 120.853ZM758.13 186.043C758.536 182.666 771.121 154.623 773.016 153.155C774.098 152.274 776.128 152.274 777.752 153.155C780.323 154.623 780.188 155.798 776.399 164.314C774.098 169.452 770.852 177.086 769.092 181.05C766.792 186.482 764.897 188.392 761.92 188.099C759.754 187.658 757.995 186.777 758.13 186.043ZM747.709 182.372C745.409 181.638 744.055 178.555 743.92 173.123C743.649 162.698 738.913 159.762 736.207 167.984C733.906 174.885 731.876 176.205 727.817 174.003C725.516 172.828 726.058 170.038 731.606 155.65C738.508 137.59 738.778 137.444 751.77 143.023C763.273 147.868 765.167 160.202 754.747 164.02C751.228 165.341 750.823 166.662 751.77 173.27C753.123 182.373 752.175 183.988 747.709 182.372ZM752.176 156.825C753.936 153.595 752.447 150.364 748.251 148.162C744.868 146.4 740.537 152.714 742.432 156.678C743.785 159.468 750.688 159.615 752.176 156.825ZM667.73 340.207C669.895 333.454 672.739 327.728 674.227 327.434C675.716 327.14 678.963 332.719 681.534 339.767L686.272 352.54L686.676 339.473C687.082 326.405 687.084 326.406 693.038 327.287C704.676 328.755 709.682 341.529 701.698 349.163C696.42 354.302 680.317 354.888 679.099 349.897C678.152 345.932 670.302 346.373 669.76 350.484C669.49 352.099 668.137 353.128 666.513 352.981C664.212 352.687 664.482 350.485 667.73 340.207ZM698.856 345.787C701.698 340.354 699.532 332.278 694.931 331.691C691.819 331.25 690.871 332.132 691.413 334.481C691.954 336.39 691.954 340.06 691.548 342.849C690.871 348.429 696.285 350.485 698.856 345.787ZM677.069 342.263C677.069 341.529 676.528 339.326 675.58 337.417C674.362 334.774 673.821 335.067 673.415 338.738C673.009 341.381 673.685 343.584 674.768 343.731C675.985 343.878 676.933 343.144 677.069 342.263ZM381.513 129.37C381.919 126.727 384.22 117.769 386.655 109.547C390.445 96.7733 391.797 94.4255 395.45 94.4255C398.969 94.4255 401.405 97.9477 407.359 111.162C411.555 120.412 414.803 128.928 414.668 129.956C414.262 133.186 406.683 131.277 405.871 127.753C405.059 124.376 397.481 122.468 393.151 124.523C391.798 125.11 390.038 127.459 389.361 129.662C387.467 135.681 380.566 135.389 381.513 129.37ZM399.917 114.979C400.053 113.511 398.969 110.428 397.616 107.932C395.316 103.821 395.045 103.968 394.233 110.135C393.692 114.686 394.369 116.888 396.534 117.182C398.158 117.329 399.647 116.301 399.917 114.979ZM706.705 166.955C700.75 164.9 695.879 162.698 695.609 162.258C694.932 161.377 706.3 128.781 707.517 127.753C708.871 126.725 728.088 133.479 729.711 135.535C732.959 139.499 727.14 141.407 719.833 138.765C712.796 136.122 712.254 136.27 712.389 140.381C712.389 143.611 714.013 145.372 717.938 146.4C721.321 147.134 723.351 149.043 723.081 150.952C722.675 153.301 720.915 153.594 715.637 152.273C710.9 151.098 708.194 151.393 707.111 153.302C704.405 158.147 705.218 159.321 713.337 161.817C717.938 163.285 721.185 165.34 720.915 167.102C720.373 171.36 718.072 171.36 706.705 166.955ZM424.953 114.54C424.411 100.298 424.276 99.8572 418.457 99.1231C411.285 98.2421 411.014 92.8099 418.051 92.0758C433.343 90.6076 442.681 91.489 442.275 94.4255C442.004 96.1874 439.975 97.8024 437.403 98.0961C432.532 98.6834 432.802 97.3607 433.614 122.467C433.885 129.515 433.478 130.249 429.824 129.809C426.17 129.368 425.494 127.167 424.953 114.54ZM449.988 123.643C449.582 116.889 449.311 91.7815 449.853 91.341C449.988 91.1942 455.537 90.7548 462.032 90.608C471.099 90.4611 474.213 91.0473 474.619 93.1028C475.566 96.9202 473.4 97.9481 465.551 96.9203C459.732 96.1862 458.649 96.6271 458.107 101.032C457.566 105.583 458.107 106.023 464.874 105.876C474.347 105.583 474.617 111.603 465.009 112.191C460.408 112.484 458.649 113.805 458.107 117.182C457.566 121.146 458.243 121.44 466.904 121.44C475.159 121.294 476.242 121.881 475.836 125.111C475.43 128.048 473.265 128.929 465.687 129.076C451.342 129.076 450.394 128.782 449.988 123.643ZM682.347 148.015L685.053 137.15L678.828 144.785C675.58 148.896 672.739 153.007 672.603 153.888C672.468 154.769 670.98 155.21 669.356 154.917C667.596 154.77 665.972 150.952 665.295 145.52C664.619 140.528 663.942 135.682 663.807 134.361C663.536 133.186 662.183 136.563 660.559 141.849C658.394 149.337 656.905 151.246 653.928 150.952C649.192 150.365 649.192 151.098 655.552 131.57C658.529 123.055 660.964 115.42 660.964 114.979C661.099 114.392 663.13 114.539 665.702 115.273C669.355 116.154 670.302 118.65 671.249 129.515L672.197 142.729L679.234 132.746C684.647 124.965 687.488 122.762 691.819 122.908C697.367 122.908 697.367 123.056 694.796 132.599C688.841 155.504 687.489 158.44 683.564 158.587C679.91 158.881 679.775 157.852 682.347 148.015ZM482.332 127.02C481.114 126.286 480.166 124.229 480.437 122.467C480.707 119.971 482.196 119.679 487.068 121.44C493.022 123.496 499.248 121.734 499.789 118.064C499.789 117.036 496.676 114.834 492.617 112.925C483.008 108.227 480.573 105.582 481.25 100.15C482.197 92.9557 489.369 89.2853 498.301 91.194C508.586 93.3964 508.586 99.1237 498.436 97.9491C488.828 96.9214 487.61 100.885 496.135 105.143C509.127 111.31 511.698 119.972 502.766 126.873C498.436 130.25 488.286 130.25 482.332 127.02ZM637.552 142.729C636.334 136.122 627.132 133.627 622.26 138.472C620.095 140.675 616.984 141.995 615.089 141.261C612.518 140.38 613.735 137.297 622.802 123.349C637.282 100.298 640.665 101.178 644.183 127.9C645.537 137.443 646.484 145.666 646.349 146.547C645.943 149.63 638.229 146.253 637.552 142.729ZM636.335 127.167C637.011 120.853 634.034 118.945 630.921 123.79C628.215 128.048 628.351 128.635 632.005 129.223C634.17 129.516 636.2 128.488 636.335 127.167ZM535.381 128.929C531.321 125.698 529.562 112.925 532.133 105.437C536.193 93.3977 552.297 89.5791 560.822 98.6822C567.048 105.142 565.965 121.734 559.063 128.488C553.515 133.92 542.147 134.067 535.381 128.929ZM553.785 122.32C557.439 116.301 556.897 103.381 552.972 101.326C546.747 97.9488 541.47 102.353 540.252 111.603C538.493 125.11 547.56 132.158 553.785 122.32ZM570.295 134.214C570.024 133.186 571.243 124.524 572.867 114.687L575.979 96.7734L588.023 98.3882C598.985 99.7096 600.203 100.444 599.797 104.115C599.256 107.491 597.902 108.08 591 107.052C584.099 106.171 582.745 106.758 582.204 110.135C581.798 113.512 583.015 114.392 588.835 115.126C593.977 115.86 596.007 117.182 595.736 119.238C595.466 121.44 593.031 122.028 588.023 121.44C581.798 120.56 580.85 121.147 580.309 125.405C579.903 128.048 578.821 131.717 577.874 133.332C576.25 136.562 571.107 137.004 570.295 134.214ZM707.788 346.079C708.33 342.996 708.465 337.27 708.195 333.746C707.518 323.469 713.742 325.964 717.125 337.123C719.696 345.051 720.103 345.639 720.915 341.381C722.403 332.719 725.246 327.286 728.359 327.726C729.847 327.873 730.929 329.342 730.793 330.811C730.523 332.426 730.523 338.005 730.523 343.437C730.523 349.897 729.847 352.981 728.223 352.687C727.005 352.54 726.058 350.631 726.464 348.282C726.734 346.079 726.058 344.025 724.975 343.878C723.757 343.731 722.538 345.933 722.132 348.723C721.185 356.064 717.666 354.742 715.23 346.373L713.202 339.326L712.254 345.934C711.712 349.604 710.359 352.393 709.141 352.246C708.059 352.099 707.518 349.456 707.924 346.079H707.788ZM734.177 346.961C733.5 337.564 735.259 326.552 737.289 326.846C738.913 326.993 739.726 341.528 738.644 350.337C737.832 356.357 734.583 354.155 734.177 346.961ZM747.574 346.079C748.792 337.123 747.574 332.425 743.92 331.838C742.431 331.691 741.214 330.663 741.349 329.635C741.62 327.726 751.635 327.286 770.852 328.02C775.994 328.167 783.706 328.167 788.037 328.02C796.969 327.58 798.728 331.544 790.067 332.425C787.09 332.866 784.654 334.334 784.518 335.802C784.248 337.711 785.873 338.446 789.392 338.299C792.369 338.152 794.534 338.886 794.263 340.354C794.128 341.529 792.232 342.263 789.932 341.969C787.225 341.676 785.602 342.85 785.196 345.493C784.79 348.87 786.008 349.603 791.151 349.897C797.647 350.337 797.647 350.338 797.917 339.62C798.188 328.608 799.811 326.553 807.66 327.581C812.262 328.315 817.674 336.829 816.997 342.408C816.05 349.309 808.338 355.036 801.3 353.861C798.323 353.274 792.368 353.128 788.172 353.275C780.865 353.715 780.595 353.568 780.189 346.961C779.918 343.29 779.918 338.004 780.324 335.508C780.865 331.691 780.053 330.956 776.399 331.397C772.339 331.984 771.933 333.012 771.392 343.143C770.986 351.365 770.309 354.008 768.144 353.714C766.385 353.567 765.708 350.924 766.249 346.373C767.738 335.655 766.249 332.718 759.347 331.691C753.258 330.956 753.258 330.958 752.717 342.263C752.311 350.926 751.499 353.714 749.333 353.42C747.709 353.273 747.033 350.484 747.574 346.079ZM810.095 346.961C813.885 341.675 811.043 332.425 805.359 331.544C803.465 331.25 801.3 346.52 802.924 348.576C804.954 351.218 807.389 350.778 810.095 346.961ZM624.426 298.069C624.561 297.335 626.457 290.728 628.622 283.387C632.682 270.613 635.793 265.474 639.312 265.914C640.665 266.061 651.627 297.482 651.356 300.125C650.95 302.621 645.131 299.39 643.237 295.573C640.395 289.993 631.733 290.581 630.921 296.307C630.651 298.51 629.027 299.978 627.267 299.831C625.643 299.537 624.426 298.803 624.426 298.069ZM640.531 286.029C640.666 285.588 640.395 283.681 639.854 281.772C638.771 277.074 635.523 277.219 634.846 282.064C634.576 284.267 635.658 286.323 637.417 286.617C639.176 286.763 640.531 286.469 640.531 286.029ZM653.522 293.37C653.251 290.14 653.251 282.651 653.251 276.485C653.386 265.62 653.387 265.621 662.589 266.796C673.957 268.264 677.746 273.843 675.987 286.764C674.769 296.454 668.948 301.152 659.34 299.831C654.874 299.244 653.792 297.921 653.522 293.37ZM669.085 284.414C670.167 275.751 669.895 275.018 664.347 273.696C659.205 272.375 658.665 272.668 659.206 277.22C659.477 280.009 659.477 284.707 659.071 287.938C658.529 292.783 659.205 293.811 663.13 293.664C667.189 293.664 668.002 292.489 669.085 284.414ZM680.723 292.049C680.588 287.497 680.452 280.009 680.452 275.458C680.317 268.117 680.859 267.235 684.512 267.676C687.49 268.116 689.654 271.199 691.954 278.541L695.202 288.966L698.856 277.955C703.728 263.86 709.548 262.243 709.819 275.017C709.819 279.715 709.954 287.204 709.954 291.902C710.089 298.509 709.412 300.125 706.976 299.831C704.81 299.537 703.728 296.306 703.592 289.552L703.188 279.569L700.074 290.14C698.315 295.866 696.014 300.564 694.796 300.417C693.713 300.27 691.548 295.867 689.924 290.728L686.947 281.478L686.406 290.287C685.864 302.033 680.858 303.501 680.723 292.049ZM714.555 294.105C714.825 291.462 714.961 284.56 714.961 278.394C714.826 270.172 715.366 267.529 717.396 267.823C720.509 268.116 721.05 271.64 720.779 287.497C720.644 297.627 720.103 299.537 717.396 299.096C715.366 298.803 714.284 296.894 714.555 294.105ZM218.849 170.479C217.495 167.836 214.923 161.23 213.164 156.238C210.187 148.015 209.24 146.987 205.316 148.455C200.985 150.217 197.06 148.603 197.601 145.226C197.736 144.198 203.826 141.115 211.269 138.619C221.825 134.949 224.939 134.507 226.021 136.856C226.969 138.765 225.615 140.381 222.096 141.849C216.683 143.758 216.683 143.757 222.367 157.118C227.51 169.304 227.779 176.352 223.043 175.764C222.096 175.618 220.202 173.269 218.849 170.479ZM236.982 149.19L230.757 130.69L242.26 127.314C249.568 124.965 254.304 124.523 255.386 126.138C257.281 128.34 255.252 129.809 245.914 134.067C243.343 135.095 242.261 137.003 242.802 139.499C243.749 142.876 244.155 143.023 250.65 140.673C260.394 137.15 262.965 142.73 253.492 146.841C249.026 148.749 246.997 150.952 247.538 153.155C247.944 155.063 248.214 156.824 248.214 157.411C248.078 157.852 251.598 157.265 255.928 156.091C265.537 153.595 267.566 153.741 267.024 157.118C266.889 158.586 261.476 161.523 255.115 163.726L243.477 167.543L236.982 149.19ZM271.085 150.364C270.138 146.4 267.837 138.472 266.213 132.746C262.559 119.532 262.153 120.707 270.949 118.358C283.129 114.981 290.031 116.889 295.038 124.817C303.564 138.031 297.745 150.951 281.234 155.209C273.115 157.411 273.115 157.412 271.085 150.364ZM286.783 146.106C290.979 142.876 291.113 135.83 287.188 129.223C283.534 122.909 280.828 121.588 275.821 123.937C273.52 125.112 273.521 127.461 276.092 136.564C279.205 147.722 281.776 150.07 286.783 146.106ZM729.982 403.046C726.193 400.697 725.923 399.963 728.359 397.467C730.118 395.999 730.659 394.825 729.576 394.825C724.434 395.119 720.51 392.917 713.202 386.016C707.112 380.29 705.894 378.088 708.195 377.06C710.495 376.032 709.954 375.445 706.165 375.005C702.105 374.27 701.699 373.829 704.405 372.508C707.247 371.186 707.247 370.893 704.27 370.452C702.24 370.305 700.751 369.13 700.887 368.102C701.157 366.194 718.073 369.866 724.704 373.39C727.276 374.711 728.898 377.353 728.628 379.849C727.951 384.547 730.795 385.723 733.636 382.346C734.719 381.024 734.448 379.556 733.23 378.822C729.712 377.207 733.094 374.27 737.695 374.858C739.996 375.151 742.161 376.913 742.567 378.528C743.785 383.226 747.439 383.079 746.627 378.381C745.815 373.683 748.252 371.921 762.055 367.957C772.34 365.021 772.34 365.021 770.31 371.481C769.227 374.858 767.332 377.941 766.249 378.234C765.031 378.528 764.626 379.556 765.167 380.731C765.573 381.759 764.897 382.639 763.543 382.493C762.055 382.199 761.378 382.639 762.055 383.52C763.814 385.722 753.8 393.209 748.116 393.943C743.244 394.531 743.108 394.824 746.086 397.614C749.198 400.551 749.062 400.991 744.055 403.487C738.101 406.717 736.613 406.572 729.982 402.901V403.046ZM741.756 390.861C741.891 389.246 740.402 387.778 738.237 387.484C733.636 386.897 731.605 388.366 732.417 391.89C733.365 395.413 741.215 394.531 741.756 390.861ZM156.056 343.143C156.056 337.564 155.921 331.398 155.785 329.343C155.515 325.085 163.093 323.322 169.183 326.258C173.242 328.167 176.625 336.683 175.813 342.702C175.272 347.401 168.913 351.659 161.605 352.54C156.192 353.274 155.921 352.834 156.056 343.143ZM169.453 340.647C170.536 335.801 169.994 333.599 167.152 331.397C162.145 327.873 160.116 330.37 160.657 339.914C161.333 349.604 167.288 350.19 169.453 340.647ZM179.197 343.878C178.385 322.882 183.934 318.036 188.671 335.802L191.377 346.079L194.218 335.361C197.33 324.203 202.744 321.267 203.421 330.37C204.504 346.227 203.692 352.834 200.715 352.393C198.956 352.246 197.872 349.457 197.872 345.346L198.007 338.446L195.572 345.052C191.919 354.155 189.483 354.448 187.047 346.079L185.017 338.885L183.933 345.493C182.58 354.596 179.467 353.568 179.197 343.878ZM156.867 184.867C145.77 162.55 148.477 158.881 167.017 171.655C172.295 175.178 176.626 177.527 176.762 176.94C176.762 176.353 174.866 171.947 172.566 167.102C168.641 159.174 168.913 154.035 173.243 154.623C175.138 154.916 190.294 185.161 189.888 188.244C189.347 192.649 183.121 191.475 173.783 185.161C168.505 181.491 163.635 178.408 162.958 178.408C162.281 178.261 164.041 182.666 166.748 187.952C171.078 196.321 171.214 198.229 168.642 199.844C165.936 201.459 163.769 198.816 156.867 184.867ZM196.519 180.023C195.301 177.38 191.917 169.892 189.075 163.579C184.068 152.567 184.069 147.721 189.482 148.455C191.782 148.749 205.722 178.114 205.316 181.638C204.774 185.749 198.414 184.574 196.519 180.023ZM295.985 377.94C295.985 368.397 296.932 367.076 302.887 367.957C306.811 368.398 307.758 370.012 307.894 376.178C308.164 385.575 306.946 387.336 300.721 386.455C296.661 385.868 295.985 384.547 295.985 377.94ZM304.375 381.758C304.646 379.996 303.969 378.528 302.887 378.381C300.18 377.941 298.015 381.023 299.368 382.932C301.398 385.428 303.969 384.988 304.375 381.758ZM304.51 372.361C304.105 371.186 302.752 370.013 301.669 369.866C300.587 369.719 299.639 370.6 299.368 371.628C299.233 372.802 300.586 373.829 302.345 374.123C304.104 374.27 305.052 373.682 304.51 372.361ZM318.585 384.694C318.72 383.519 316.961 382.345 314.66 382.052C311.277 381.611 310.601 380.73 312.225 378.087C313.172 376.179 314.796 373.096 315.608 371.187C317.638 366.635 322.916 367.369 322.375 372.214C322.104 374.269 322.645 376.913 323.728 378.234C324.675 379.556 324.81 382.052 323.728 383.96C321.833 387.484 318.179 387.924 318.585 384.694ZM275.415 342.116C275.279 325.232 275.551 324.644 283.265 325.672C295.986 327.434 300.315 344.611 289.218 350.337C279.61 355.329 275.415 352.981 275.415 342.116ZM288.001 339.914C288.678 333.747 288.135 331.398 285.429 330.517C282.587 329.636 281.775 330.956 280.828 338.885C279.746 346.96 280.152 348.428 283.129 348.135C285.971 348.135 287.189 345.933 288.001 339.914Z" fill="#22924A"/>
</svg>
