<svg width="965" height="965" viewBox="0 0 965 965" fill="none" xmlns="http://www.w3.org/2000/svg">
<path fill-rule="evenodd" clip-rule="evenodd" d="M264.365 877.307C212.008 849.322 151.021 796.328 119.904 751.723C106.841 733.165 106.735 732.846 111.913 732.846C115.231 732.846 116.692 735.74 115.948 740.837C115.763 741.873 116.984 742.696 118.762 742.802C120.409 742.802 125.719 748.086 130.471 754.431C162.73 797.469 217.185 843.508 269.861 872.342C290.81 883.758 289.774 882.909 286.986 885.723C285.526 887.183 277.03 884.05 264.365 877.307ZM630.576 866.74C628.823 862.996 624.761 853.677 621.761 846.004C616.265 832.091 616.159 832.091 608.91 834.906C602.883 837.083 601.131 836.976 599.246 833.976C598.025 831.985 597.812 829.622 598.742 828.772C602.485 825.347 637.107 812.072 639.072 813.214C643.347 815.816 641.063 821.843 635.036 824.126C627.575 827.02 627.575 827.949 634.107 844.437C636.895 851.606 640.214 859.889 641.355 862.996C643.028 867.27 642.497 869.023 638.779 870.987C634.717 873.165 633.496 872.448 630.576 866.74ZM424.093 961.02C396.507 957.595 369.957 952.311 348.265 946.072C337.804 942.966 335.308 941.32 336.344 938.001C337.167 935.717 336.768 930.407 335.52 926.265C333.343 918.592 333.343 918.592 352.221 924.513C400.967 939.647 476.769 946.391 530.294 940.284C603.096 932.08 673.109 906.884 735.025 866.74C809.791 818.206 876.167 736.988 909.037 653.911C914.135 640.955 919.206 630.069 920.453 629.644C921.595 629.14 922.126 627.892 921.383 626.857C920.772 625.821 922.418 617.298 925.126 607.979C927.808 598.634 932.189 579.358 934.658 565.259C937.977 546.993 940.579 538.895 943.579 537.249C945.862 535.895 950.11 532.47 953.031 529.682C957.889 524.797 957.996 524.292 953.854 523.549C951.358 523.044 947.428 524.372 945.251 526.363C941.295 529.868 941.083 527.797 941.932 495.352C944.216 404.497 925.631 333.129 876.486 243.017C871.308 233.459 865.892 224.644 864.458 223.317C862.998 221.963 855.219 211.9 847.227 201.121C828.669 176.11 790.197 137.851 761.151 115.442C707.014 73.5459 640.638 43.9954 568.448 29.4724C533.082 22.3038 456.856 20.1265 420.986 25.2242C407.817 27.0827 396.905 27.6934 396.905 26.658C396.905 23.4454 391.515 24.2952 387.267 28.1185C385.09 29.977 372.744 34.331 359.787 37.756C288.234 56.6333 221.327 94.1758 165.73 146.666C92.8229 215.325 48.2445 297.26 27.9069 399.718C21.5878 431.764 20.234 509.663 25.3051 544.71C35.5801 614.086 57.8821 674.78 94.6014 732.527C103.522 746.652 110.16 758.865 109.417 759.609C108.594 760.432 107.134 759.927 106.204 758.573C103.31 754.431 91.3891 755.653 92.929 760.007C96.3541 768.822 108.169 773.495 111.913 767.388C114.807 762.821 117.409 764.892 136.897 787.513C181.183 838.941 247.054 885.298 309.687 909.353C325.033 915.274 327.529 917.132 328.352 922.947C328.883 926.69 327.954 931.655 326.175 934.045C323.281 938.08 321.209 937.682 294.871 926.69C236.46 902.53 190.422 871.704 143.747 825.347C51.4573 733.775 4.46276 626.644 0.320892 498.459C-1.75004 433.729 6.13534 379.592 25.942 322.244C70.1219 194.377 171.12 87.3524 296.412 35.8977C323.706 24.5872 374.921 9.7718 389.975 8.73634C396.294 8.20533 402.507 7.27607 403.755 6.55921C408.853 3.32006 449.9 -0.0782403 481.946 0.00141089C589.396 0.107613 692.704 35.1809 777.028 99.9904C797.047 115.337 828.775 145.524 828.775 149.268C828.775 150.914 830.845 152.879 833.447 153.622C839.554 155.162 862.388 182.96 883.522 214.582C964.74 336.342 986.219 492.75 940.791 631.715C929.587 665.859 896.903 731.2 877.521 757.936C826.704 828.374 769.461 877.413 695.093 914.132C610.052 956.135 515.665 972.516 424.093 961.02ZM675.791 910.495C675.791 909.167 674.756 908.025 673.508 908.025C672.18 908.025 670.401 909.167 669.578 910.495C668.755 911.849 669.897 912.99 671.968 912.99C674.039 912.99 675.791 911.849 675.791 910.495ZM224.221 873.483C224.221 872.129 223.185 870.987 221.858 870.987C220.61 870.987 218.831 872.129 218.008 873.483C217.185 874.837 218.327 875.979 220.398 875.979C222.469 875.979 224.221 874.837 224.221 873.483ZM421.597 928.974C381.453 923.478 336.662 911.132 303.474 896.396C293.093 891.83 290.81 889.865 292.987 887.581C294.978 885.723 296.624 885.511 297.766 887.183C298.695 888.511 301.191 889.759 303.155 889.971C305.226 890.184 317.997 894.432 331.565 899.397C386.763 919.628 433.226 926.69 497.717 924.619C546.066 923.053 584.537 916.522 621.761 903.353C641.355 896.396 646.134 895.892 646.134 900.644C646.134 903.352 615.123 913.734 611.087 912.38C609.309 911.849 606.627 912.672 605.061 914.345C601.742 917.663 560.482 926.69 532.684 930.221C506.956 933.54 449.714 932.903 421.597 929.08V928.974ZM480.088 901.574C479.158 900.538 478.335 895.042 478.335 889.148C478.335 878.448 478.335 878.448 468.485 878.448C458.635 878.448 458.635 878.448 458.635 889.546C458.635 899.821 458.104 900.644 452.396 900.644C446.183 900.644 446.183 900.644 446.794 874.094C447.537 848.685 447.722 847.544 453.139 846.827C457.997 846.11 458.635 847.145 458.635 855.748C458.635 865.386 458.821 865.598 468.273 866.527C478.017 867.456 478.016 867.456 479.583 856.889C480.831 848.792 482.159 846.296 485.796 846.296C492.434 846.296 492.646 847.358 490.974 875.979C489.726 896.502 488.69 901.998 485.69 902.529C483.513 902.928 481.017 902.53 480.088 901.574ZM509.639 896.396C508.922 894.007 507.674 884.794 506.85 875.979C505.921 867.164 504.673 856.996 504.062 853.358C502.602 846.11 503.744 845.579 530.799 842.685C543.782 841.225 545.004 841.437 545.004 845.898C545.004 851.075 538.897 853.677 526.233 853.677C517.232 853.783 515.559 855.031 517.125 860.819C518.055 864.562 520.338 865.067 531.648 864.138C543.782 863.102 545.004 863.527 545.004 867.987C545.004 872.023 542.826 873.165 532.684 874.519C521.48 875.979 520.338 876.696 520.338 882.51C520.338 888.617 520.657 888.723 535.684 887.9C548.641 887.183 551.137 887.794 551.854 891.325C552.783 896.078 549.57 897.14 526.046 899.397C512.877 900.644 510.701 900.246 509.639 896.396ZM648.63 897.538C648.63 895.786 660.551 888.405 675.18 881.263C770.072 834.375 838.12 765.317 882.911 670.718C935.587 559.445 939.649 435.295 894.54 318.606C884.159 292.056 884.477 293.623 888.938 293.623C892.761 293.623 897.009 303.154 909.249 338.838C952.102 465.164 933.835 614.404 861.963 724.854C814.464 797.655 751.911 852.933 676.534 888.723C648.63 901.892 648.63 901.892 648.63 897.538ZM388.303 890.688C387.374 889.36 384.161 880.731 381.054 871.625C377.735 862.173 374.709 856.571 373.992 858.642C373.275 860.713 371.204 867.271 369.425 873.271C366 884.582 363.319 887.183 358.221 883.864C355.938 882.404 356.788 875.979 361.434 857.5C368.921 828.268 368.602 828.772 375.134 831.162C378.877 832.622 381.984 838.516 386.55 852.641L392.763 872.236L396.799 856.252C399.507 845.685 402.215 839.977 404.897 839.472C413.101 837.8 412.888 840.8 401.684 883.944C399.188 893.184 392.046 896.821 388.303 890.688ZM563.164 885.192C563.987 880.838 565.341 869.448 566.271 859.889C569.483 825.772 576.652 824.949 598.635 856.066C607.132 867.987 614.088 879.085 614.088 880.546C614.088 885.298 604.025 883.652 599.565 878.05C595.635 873.377 594.387 873.059 586.396 875.767C580.077 877.838 576.758 880.732 574.979 885.935C573.227 891.007 570.731 893.184 567.12 893.184C562.447 893.184 561.916 892.254 563.164 885.192ZM587.644 864.563C588.467 863.739 587.325 860.314 585.254 856.996C581.006 850.677 577.156 852.854 577.156 861.748C577.077 865.917 584.325 867.881 587.644 864.563ZM710.333 803.47C701.518 792.478 694.27 782.097 694.27 780.451C694.27 776.415 720.077 757.538 725.573 757.538C733.459 757.538 740.521 766.963 739.485 775.99C738.556 783.876 738.955 784.194 751.911 788.336C765.293 792.584 765.292 792.584 760.328 797.469C755.442 802.328 755.15 802.328 741.45 797.974C723.396 792.265 719.254 795.292 728.6 807.532C734.706 815.497 734.812 816.134 730.671 819.745C726.715 823.277 725.175 822.028 710.333 803.47ZM723.927 783.557C730.857 777.955 731.069 777.344 727.246 773.388C723.29 769.459 722.679 769.565 715.511 774.636C708.979 779.309 708.369 780.663 710.944 784.805C714.794 790.832 715.006 790.832 723.927 783.557ZM446.581 819.028C416.42 816.134 382.196 808.461 382.196 804.611C382.196 799.939 390.48 799.939 411.428 804.505C423.562 807.107 442.97 810.001 454.679 810.931C473.132 812.391 475.946 813.214 475.946 817.17C475.946 819.958 474.273 821.63 471.591 821.418C469.202 821.206 457.998 820.17 446.581 819.028ZM485.796 816.851C485.796 812.497 487.363 811.78 497.505 811.78C503.957 811.78 519.302 810.214 531.542 808.143C645.311 789.69 740.202 716.783 784.701 613.581C791.445 598.023 798.188 585.677 800.366 585.252C805.437 584.11 805.118 586.925 798.295 605.165C768.505 684.312 700.164 756.688 624.15 789.69C583.608 807.213 547.818 816.241 502.39 820.383C486.831 821.737 485.796 821.524 485.796 816.851ZM314.254 868.704C304.616 864.668 297.553 854.394 297.553 844.544C297.553 820.276 318.209 805.435 337.697 815.497C347.335 820.489 352.513 828.48 352.513 838.516C352.513 861.35 333.237 876.483 314.254 868.704ZM335.096 852.216C340.698 845.074 341.84 831.693 337.167 827.126C331.883 821.737 318.502 823.489 314.147 830.127C309.368 837.481 308.758 849.827 313.006 854.925C317.997 860.925 329.281 859.571 335.096 852.216ZM658.692 833.552C651.736 821.1 646.559 809.391 647.276 807.612C649.453 802.01 656.091 804.107 660.445 811.78C665.33 820.382 666.472 820.595 675.897 815.099C682.854 810.931 682.854 810.93 678.181 801.93C674.756 795.08 674.251 792.053 676.428 789.982C681.818 784.593 684.499 787.301 697.589 810.931C707.625 829.303 709.908 835.198 707.439 836.87C701.624 840.508 698.81 839.154 694.164 830.339C688.854 820.489 688.137 820.276 678.181 825.454C670.932 829.197 670.932 829.197 676.428 840.402C681.074 850.039 681.287 851.898 678.181 853.889C672.26 857.606 671.755 857.208 658.692 833.552ZM250.055 832.41C244.665 828.879 239.381 825.161 238.239 824.126C236.275 822.347 262.507 777.238 265.507 777.238C269.038 777.238 291.234 793.115 293.411 797.151C298.801 807.32 295.482 819.745 283.88 832.197C275.463 841.118 263.33 841.225 250.055 832.516V832.41ZM277.03 821.524C285.42 811.568 285.42 801.399 277.03 795.903C273.498 793.514 270.392 792.053 269.967 792.478C269.649 792.903 265.4 799.647 260.542 807.32C251.621 821.312 251.621 821.312 257.011 825.055C265.188 830.764 269.967 829.914 277.03 821.524ZM617.725 147.914C594.175 141.064 588.466 114.089 606.733 95.8484C618.973 83.6087 645.099 88.9982 651.206 104.982C654.737 114.301 654.232 115.974 647.7 115.974C643.346 115.974 641.063 113.982 639.284 108.911C634.001 93.8838 614.805 97.6007 609.203 114.726C606.734 122.08 606.945 124.576 610.264 129.541C615.335 137.426 625.611 140.134 630.788 134.851C634.319 131.32 634.107 130.789 628.186 128.505C623.726 126.753 622.079 124.788 623.009 122.187C624.867 117.407 628.398 117.407 639.921 122.187C646.957 125.187 648.736 127.072 647.382 130.284C646.453 132.568 644.568 137.533 643.24 141.276C641.78 145.206 638.992 148.02 636.284 148.02C633.788 148.02 630.257 148.418 628.505 149.055C626.752 149.56 621.867 149.055 617.725 147.914ZM346.3 114.513C338.414 85.069 337.91 86.3965 358.752 81.4315C370.461 78.6172 372.744 78.7231 378.24 82.2544C391.223 90.7505 396.799 114.407 388.727 126.753C385.09 132.355 366.319 140.639 357.398 140.639C354.079 140.639 351.584 134.639 346.3 114.513ZM373.381 125.399C376.886 123.859 379.806 120.832 379.913 118.655C381.16 101.663 375.346 91.2818 364.753 91.2818C354.903 91.2818 353.76 95.3176 358.858 113.266C363.319 129.355 363.823 129.753 373.381 125.399ZM561.411 125.186C559.526 122.186 555.916 113.797 553.526 106.734C551.03 99.5655 548.243 93.7774 547.287 93.7774C546.358 93.7774 544.817 98.8486 543.888 105.168C542.932 111.513 541.605 118.151 540.862 120.009C539.614 123.222 532.366 124.682 529.764 122.08C529.153 121.469 530.905 108.911 533.826 94.388C538.578 70.8377 539.72 67.7316 544.605 67.0147C548.959 66.4837 550.818 68.1565 553.738 75.7233C555.809 80.9007 559.421 89.5294 561.916 94.8129L566.377 104.557L569.377 89.317C572.191 75.2984 572.908 73.9707 578.723 73.9707C584.006 73.9707 584.829 74.9 583.714 79.5728C582.97 82.573 580.475 95.4236 578.192 107.982C574.793 127.178 573.333 130.789 569.483 130.789C566.908 130.789 563.27 128.293 561.411 125.186ZM437.979 115.336C437.156 112.336 436.545 99.4859 436.438 86.8214C436.438 64.3066 436.545 63.8022 442.041 64.6253C446.581 65.2359 447.723 67.3332 448.758 76.3338L450.006 87.3521L459.776 74.4751C467.449 64.4125 470.955 61.731 476.451 61.731C484.973 61.731 485.079 64.1206 476.981 71.6875C464.741 83.1838 464.741 85.1486 477.3 101.849C488.584 116.903 488.69 117.221 483.008 118.549C474.698 120.726 473.052 119.691 465.166 107.159C458.422 96.459 457.892 96.1671 453.431 100.203C449.9 103.415 449.077 106.415 450.325 112.655C451.679 120.222 451.36 120.938 445.652 120.938C441.404 120.938 439.12 119.186 438.085 115.336H437.979ZM501.461 100.521C502.284 89.3169 503.001 76.5461 503.001 72.1918C503.107 65.156 503.85 64.1205 509.558 64.1205C516.09 64.1205 516.09 64.1207 514.524 82.9715C513.701 93.3527 512.957 106.203 512.957 111.407C512.957 120.009 512.347 120.938 506.426 120.938C499.894 120.938 499.894 120.938 501.461 100.521ZM752.018 765.211C744.663 757.83 742.38 753.688 742.38 747.369C742.486 728.492 761.044 713.968 776.815 720.5C798.587 729.421 805.331 753.794 789.878 767.6C777.532 778.592 764.576 777.743 752.018 765.211ZM781.382 761.069C795.799 750.9 775.355 722.465 760.646 732.315C751.088 738.66 752.336 750.9 763.54 759.715C771.532 765.928 774.107 766.14 781.382 761.069ZM163.447 755.36C144.888 743.838 142.499 728.279 156.916 712.827C164.084 705.26 168.651 702.658 176.616 701.516C186.068 700.268 187.82 700.906 195.6 708.685C206.91 720.102 209.087 728.916 202.98 739.908C193.635 757.007 176.722 763.644 163.447 755.36ZM182.325 743.944C194.458 737.731 198.095 725.996 190.528 717.606C184.82 711.367 176.536 712.004 167.615 719.464C158.8 726.925 157.765 735.554 165.013 742.696C170.934 748.617 172.899 748.829 182.325 743.944ZM91.3887 708.366C66.1658 665.859 48.2447 617.936 37.4387 563.799C30.2966 528.54 31.0135 430.41 38.4742 393.187C66.4849 255.257 156.305 138.993 283.243 76.254C391.515 22.7284 528.728 16.5956 642.922 60.1648C734.813 95.2114 817.676 164.614 868.706 249.23C886.124 278.17 888.832 283.985 885.805 286.985C882.486 290.198 883.628 291.658 870.06 266.461C834.801 200.908 769.355 134.639 701.094 95.2111C612.628 44.2078 493.575 25.6226 392.152 47.1019C102.779 108.194 -46.859 422.02 87.3269 685.958C96.2479 703.508 103.416 718.641 103.204 719.571C102.991 720.5 104.664 722.279 106.841 723.5C110.558 725.598 110.054 730.35 106.098 730.35C105.169 730.35 98.5309 720.5 91.2826 708.366H91.3887ZM795.799 716.862C770.788 707.331 771.426 707.756 773.497 702.366C775.461 697.268 776.603 697.268 792.162 703.189C799.224 705.871 805.437 707.649 806.074 707.118C806.578 706.614 802.331 701.012 796.622 694.879C780.134 676.957 786.772 669.788 811.968 678.391L827.421 683.595L815.712 671.753C803.366 659.221 802.118 656.089 807.402 651.734C809.898 649.663 814.57 653.513 828.35 668.859C838.121 679.745 846.086 689.595 846.086 690.737C846.086 691.879 844.227 694.268 842.05 696.02C838.731 698.835 835.731 698.516 823.173 693.949C814.889 690.949 807.72 688.984 807.109 689.489C806.472 690.126 811.357 696.339 817.889 703.295C827.527 713.544 829.306 716.676 827.102 720.101C823.279 726.314 819.641 725.89 795.799 716.862ZM122.187 699.764C117.196 691.268 113.16 683.064 113.16 681.603C113.16 677.993 156.916 653.195 160.022 655.053C166.368 659.115 161.588 665.541 145.207 674.86C135.755 680.276 127.976 685.666 127.976 686.807C127.976 687.843 130.79 693.631 134.321 699.551C140.321 709.933 140.428 710.437 135.967 712.827C131.932 715.004 130.073 713.252 122.187 699.764ZM800.047 574.366C800.764 569.906 803.685 555.701 806.472 542.851C813.535 509.875 813.535 453.35 806.366 418.701C799.437 384.372 794.02 368.813 776.922 334.377C703.271 185.35 531.011 115.867 371.098 170.614C322.245 187.314 287.809 209.511 247.559 250.053C231.177 266.567 212.512 288.126 205.981 297.976C199.556 307.827 192.599 315.819 190.741 315.819C185.032 315.819 186.572 311.252 198.095 293.941C246.842 220.715 320.997 170.216 409.251 150.197C443.687 142.418 516.807 141.781 549.889 148.949C614.805 163.048 669.047 191.881 716.865 237.521C768.107 286.56 800.366 345.077 815.712 417.029C821.606 444.827 821.818 518.372 816.03 544.099C808.649 576.543 806.578 582.358 802.543 582.358C799.436 582.358 798.905 580.606 800.047 574.26V574.366ZM72.9101 487.148C74.1579 480.006 73.4407 477.723 69.0865 474.696C61.5196 469.413 62.5553 466.306 71.9807 466.306C79.1493 466.306 80.4766 465.164 83.5033 457.067L86.9283 447.854L90.5396 457.067C93.646 465.164 95.1059 466.306 102.381 466.306C112.337 466.306 112.735 468.165 104.452 474.908C99.0619 479.263 98.5312 480.829 100.602 487.865C103.31 497.105 102.779 497.423 93.4598 491.927C87.1142 488.078 86.1852 488.078 80.7955 491.927C72.5117 497.742 71.3701 496.998 72.9101 487.148ZM862.175 488.29C863.529 482.077 862.574 479.369 856.972 473.448C850.042 466.306 850.042 466.306 859.255 466.306C867.353 466.306 868.919 465.377 871.096 458.952C872.53 454.783 874.707 451.465 876.061 451.465C877.309 451.465 879.592 454.783 880.946 458.952C883.123 465.164 884.876 466.306 891.938 466.306C902.001 466.306 902.611 469.2 894.115 474.802C888.726 478.333 888.088 480.086 889.443 487.679C891.115 496.388 891.115 496.388 883.229 492.326C875.955 488.609 874.813 488.502 869.424 492.034C861.14 497.423 860.21 496.999 862.175 488.29ZM137.746 297.764C109.841 280.878 111.302 282.312 116.267 275.568C119.081 271.851 120.727 272.355 134.826 281.276C155.668 294.445 165.013 294.047 165.013 279.843C165.013 277.957 157.234 271.214 147.702 264.895C129.436 252.761 129.223 252.549 132.861 246.734C137.852 238.955 177.359 266.647 177.359 277.851C177.359 290.304 164.907 305.968 155.057 305.968C152.88 305.968 145.1 302.331 137.746 297.764ZM782.736 279.843C781.701 277.241 783.665 273.922 788.338 270.178C792.268 267.178 798.295 262.187 801.613 259.293C807.826 254.009 807.826 254.009 797.976 258.045C776.709 266.647 774.532 267.178 770.789 263.966C765.611 259.718 765.93 258.788 777.028 244.876C782.417 238.026 786.878 231.707 786.878 230.884C786.878 230.061 780.745 233.884 773.39 239.486C766.036 245.088 758.761 248.911 757.327 248.088C751.088 244.159 756.372 237.096 776.285 222.281C797.552 206.51 797.551 206.51 803.366 213.36C807.109 217.502 808.437 221.14 807.109 222.892C805.968 224.459 800.764 231.096 795.587 237.521C784.807 251.009 785.949 251.62 806.366 242.699C821.314 236.274 821.314 236.273 826.173 242.088C828.881 245.407 831.164 248.726 831.164 249.655C831.377 252.23 790.914 283.772 787.383 283.772C785.63 283.772 783.559 282.02 782.736 279.843ZM172.899 239.805C154.34 222.361 152.88 220.396 156.199 216.255C159.517 212.007 160.553 211.9 178.819 215.723C189.28 217.821 198.201 219.255 198.732 218.75C199.13 218.325 193.953 212.617 186.997 206.086C175.899 195.518 174.864 193.846 178.182 190.527C182.324 186.385 185.643 188.562 211.371 212.723C222.575 223.317 224.035 225.6 221.327 229.105C219.575 231.282 218.114 233.459 217.902 233.778C217.796 234.096 208.981 232.636 198.414 230.671C187.714 228.601 178.607 227.353 178.076 227.857C177.572 228.388 182.138 233.273 188.351 238.769C200.166 249.124 201.52 251.938 196.343 256.186C193.953 258.151 188.245 254.222 172.899 239.805ZM721.219 211.183C714.581 204.546 712.829 200.802 712.829 193.341C712.829 177.464 728.175 160.445 742.38 160.366C751.088 160.366 763.753 168.65 768.213 177.465C773.072 186.916 773.072 188.881 767.177 201.015C757.407 221.034 735.848 225.892 721.219 211.183ZM752.973 199.661C760.938 191.058 761.469 184.421 754.725 177.677C747.875 170.827 739.592 171.437 731.999 179.535C722.148 190.129 721.325 196.235 728.68 203.696C736.379 211.369 743.016 210.228 752.973 199.661ZM227.965 202.554C223.823 197.377 216.256 187.952 210.946 181.606C203.087 172.181 201.945 169.579 204.521 166.579C206.193 164.508 208.37 162.835 209.3 162.835C210.229 162.835 219.044 172.393 228.894 183.996C243.417 201.227 246.231 205.767 243.842 208.688C239.275 214.077 235.956 212.829 227.965 202.554ZM256.187 168.862C243.629 150.197 243.629 150.197 237.31 154.339C231.814 157.976 230.672 157.976 227.354 154.764C224.141 151.445 225.681 149.666 241.664 138.356C257.621 127.178 260.117 126.116 263.33 129.435C266.649 132.674 266.33 133.709 260.436 138.249C253.904 143.453 253.905 143.453 266.224 161.693C272.968 171.756 278.464 180.464 278.464 181.208C278.464 181.819 276.286 183.597 273.711 185.031C269.357 187.314 267.365 185.456 256.187 168.968V168.862ZM667.189 171.251C660.339 167.614 653.913 163.977 652.878 162.941C651.205 161.481 670.508 127.178 678.898 116.584C684.102 110.053 712.829 132.966 712.829 143.559C712.829 152.48 703.483 168.862 695.81 173.429C686.066 179.137 681.606 178.818 667.189 171.251ZM692.916 158.799C701.731 147.595 702.129 140.639 694.456 134.001C686.279 126.965 685.535 127.364 675.579 144.807C668.012 158.082 667.799 158.8 672.18 162.012C679.322 167.19 687.314 165.942 692.916 158.693V158.799ZM290.703 140.347C283.88 126.647 278.57 115.124 278.994 114.726C279.419 114.407 287.915 109.947 297.978 104.982C312.395 97.7068 316.643 96.4591 318.289 99.0611C321.821 104.663 320.891 105.805 306.793 112.947C294.553 119.186 293.518 120.222 296.412 124.257C299.624 128.505 300.261 128.505 311.465 123.009C321.528 118.151 323.493 117.832 325.458 120.938C329.095 126.647 328.67 127.072 315.607 133.178C303.58 138.887 302.545 141.781 309.475 150.091C309.793 150.489 315.82 148.02 322.75 144.383C335.521 137.957 340.193 137.957 340.193 144.489C340.193 147.277 309.368 165.331 304.509 165.331C303.793 165.331 297.553 154.126 290.703 140.347ZM215.831 808.037C211.158 804.506 211.158 799.939 215.831 771.317C217.185 763.644 217.185 763.644 206.405 775.459C198.732 784.088 194.564 786.876 191.458 785.734C184.714 783.159 186.174 780.238 203.591 760.219C222.362 738.766 221.858 739.165 227.354 743.227C231.177 746.121 231.177 748.192 228.071 767.282L224.752 788.23L236.168 775.273C247.054 762.927 247.878 762.396 251.913 766.459C255.869 770.494 255.232 771.742 239.674 789.372C230.673 799.647 222.681 808.86 221.858 809.789C221.114 810.745 218.433 809.895 215.831 808.037ZM347.335 793.726C259.586 755.148 191.67 682.639 160.447 594.279C133.578 517.947 135.569 428.339 165.943 353.892C170.722 342.156 176.536 329.704 178.819 326.306C182.324 320.704 183.174 320.491 185.139 324.102C186.785 327.023 185.033 333.554 178.9 347.334C142.101 429.481 141.675 527.08 177.572 613.369C193.21 651.124 221.964 691.268 257.329 724.854C269.038 736.058 279.207 745.192 279.924 745.192C280.561 745.192 289.163 750.582 298.907 757.219C320.28 771.636 332.6 778.061 358.221 788.23C368.815 792.372 377.523 796.939 377.417 798.293C377.311 803.47 365.39 801.718 347.335 793.726ZM427.81 798.08C291.845 775.167 186.493 669.364 163.659 533.187C157.447 496.069 159.624 439.862 168.544 405.426C192.812 311.969 254.09 236.167 339.662 193.634C413.924 156.835 503.213 150.41 581.218 176.429C748.592 232.132 840.377 408.639 789.161 576.251C763.859 658.903 703.483 729.952 625.08 769.246C588.891 787.407 532.87 801.93 498.753 801.93C481.336 801.93 482.159 797.762 500.001 795.903C585.971 786.77 643.744 761.255 698.73 708.26C726.608 681.418 741.955 661.505 758.257 631.317C813.747 528.116 808.145 404.072 743.415 306.579C726.317 280.958 689.279 243.017 663.445 224.751C568.66 157.87 440.687 149.162 336.344 202.554C278.888 231.919 225.894 286.666 196.954 346.617C175.793 390.69 167.191 429.693 167.297 482.183C167.297 547.604 183.891 603.2 218.725 655.159C272.862 735.554 354.717 784.486 451.042 794.151C463.6 795.372 475.123 797.656 476.557 799.222C480.406 803.072 453.325 802.435 427.81 798.08ZM452.926 785.84C444.935 778.778 432.908 777.742 424.704 783.451C419.739 786.982 419.101 786.876 415.384 781.168C409.782 772.671 397.648 769.034 387.373 772.565C379.594 775.273 378.877 774.955 371.603 766.246C364.461 757.432 363.531 757.007 352.008 758.148C340.299 759.29 339.875 759.078 336.556 751.192C332.414 741.342 326.281 737.837 313.43 737.837C304.509 737.837 303.368 737.094 301.908 730.456C299.731 720.287 287.597 710.65 277.03 710.65C269.463 710.65 268.613 709.933 268.613 703.587C268.613 693.631 260.223 683.993 250.055 682.028C242.594 680.674 241.452 679.533 241.452 673.214C241.452 659.726 233.354 649.663 219.362 645.84C216.76 645.203 215.937 641.778 216.442 633.388C217.079 623.325 216.15 620.829 210.123 615.041C206.193 611.298 200.989 607.05 198.414 605.696C194.564 603.413 194.352 602.271 196.848 597.492C201.308 589.208 197.777 578.429 188.245 570.437C179.749 563.481 179.749 563.374 183.678 555.489C188.564 545.851 186.785 537.249 178.289 528.832C172.474 523.044 172.368 522.195 175.899 516.805C181.289 508.734 180.784 495.352 174.864 487.865C172.182 484.467 169.898 480.936 169.898 480.086C169.898 479.369 172.182 476.475 174.864 473.767C180.891 467.66 181.395 452.5 175.899 444.641C172.182 439.331 172.368 438.614 179.643 430.41C188.033 420.772 188.776 415.807 183.785 403.674C180.466 395.788 180.572 395.363 187.103 391.54C196.741 385.832 200.989 374.628 197.591 363.636C195.201 355.75 195.414 354.821 200.697 352.856C211.477 348.688 216.76 340.51 216.76 327.846C216.76 316.96 217.291 316.137 224.141 314.57C234.177 312.393 241.452 302.543 241.452 291.02C241.452 282.524 242.169 281.701 249.736 280.241C259.905 278.382 268.002 270.072 269.25 260.328C270.073 254.62 271.64 252.761 276.18 252.15C291.659 250.265 303.155 240.203 303.155 228.6C303.155 225.786 305.439 225.282 312.501 226.211C320.174 227.246 323.387 226.211 329.6 221.033C333.954 217.396 337.804 212.006 338.202 209.006C338.733 205.475 340.379 203.909 342.663 204.625C353.15 207.944 365.602 205.581 371.098 199.236C374.204 195.731 377.098 191.456 377.629 189.81C378.452 187.527 379.913 187.421 383.948 189.598C394.117 195.094 404.392 193.023 412.995 183.996C420.349 176.216 421.278 175.818 424.916 179.535C430.73 185.35 444.829 184.633 453.856 177.995C460.918 172.685 461.847 172.579 467.343 176.216C475.415 181.5 488.902 181.102 495.965 175.394C501.779 170.614 501.859 170.614 507.992 176.216C516.913 184.527 525.303 185.775 535.897 180.358C544.605 175.898 544.924 175.898 546.358 180.464C549.464 190.315 566.695 194.589 579.97 188.881C583.077 187.527 585.148 189.093 587.856 194.377C593.75 205.767 605.698 209.298 619.159 203.696C621.867 202.554 623.832 204.546 626.115 210.865C629.753 221.14 640.426 227.671 651.63 226.529C658.374 225.786 659.622 226.636 661.374 233.379C664.082 243.84 671.543 249.867 682.535 250.478C689.491 251.009 691.987 252.23 692.491 255.655C694.562 268.638 696.341 271.957 703.589 276.418C707.944 279.099 713.865 281.276 716.546 281.276C720.715 281.276 721.537 282.843 721.537 291.02C721.537 302.437 729.317 312.287 740.096 314.57C746.336 316.031 746.84 316.96 745.698 324.208C743.946 334.802 749.946 346.298 759.186 350.148C765.93 352.936 766.249 353.679 765.187 366.131C764.151 378.663 764.469 379.486 772.886 386.442C779.417 391.832 781.063 394.54 779.311 397.328C774.426 405.001 776.603 420.879 783.453 427.729C789.772 434.048 789.772 434.366 785.949 442.65C780.559 453.96 780.851 459.138 787.595 469.094C793.197 477.404 793.197 477.404 787.595 485.794C780.639 495.963 780.559 499.707 786.453 511.309C791.126 520.336 791.126 520.442 785.418 525.726C777.957 532.682 775.886 543.064 779.604 553.631C782.524 561.622 782.311 562.339 774.426 569.295C765.93 576.862 763.647 587.031 767.788 598.633C769.355 602.988 768.32 604.448 762.08 607.05C752.23 611.086 746.415 622.396 748.088 634.317C749.23 643.026 748.805 643.663 739.884 647.168C728.68 651.548 721.643 661.505 721.962 672.497C722.148 679.745 721.325 680.781 714.183 682.135C704.226 683.887 695.491 692.914 693.234 703.693C691.986 709.827 690.42 711.685 687.102 711.074C675.791 709.083 660.976 722.066 660.976 733.988C660.976 736.775 658.587 737.625 651.312 737.413C639.603 736.882 629.434 743.015 626.115 752.44C623.938 758.865 623.009 759.184 612.123 758.148C599.777 757.007 586.926 763.644 586.926 771.317C586.926 775.459 585.891 775.565 574.873 772.459C564.917 769.565 551.747 774.132 547.606 782.017C545.004 786.876 544.393 786.982 537.649 783.451C527.188 778.061 516.701 778.884 508.922 785.522C502.178 791.336 502.072 791.336 494.505 786.77C484.761 780.875 475.627 780.982 467.848 787.088C460.175 793.115 461.316 793.195 452.926 785.84ZM468.485 778.486C476.45 773.919 485.265 773.919 493.894 778.38C500.107 781.699 501.567 781.592 508.709 777.238C517.338 771.848 527.905 770.919 535.154 774.849C538.791 776.707 541.897 775.884 549.172 770.919C556.526 765.928 560.987 764.786 570.519 765.317C579.652 765.715 583.077 764.892 584.829 761.68C588.361 755.361 600.387 750.157 611.3 750.157C618.973 750.157 621.549 749.015 622.69 745.298C624.655 738.952 638.886 730.35 647.17 730.35C651.736 730.35 654.338 728.704 655.878 724.642C658.905 716.57 672.472 705.685 679.535 705.685C683.889 705.685 685.96 703.693 688.137 697.162C691.243 687.418 703.377 676.108 710.545 676.108C713.652 676.108 715.324 674.355 715.324 671.037C715.324 661.293 722.467 648.946 731.175 643.769C737.415 640.132 739.99 636.813 739.99 632.565C739.99 623.431 746.017 610.873 753.265 605.165C758.655 600.917 759.691 598.129 759.691 587.641C759.691 577.181 760.938 573.649 767.177 566.587C773.603 559.233 774.214 557.268 772.037 551.454C769.036 543.674 772.036 529.868 778.276 523.044C781.382 519.619 781.701 517.442 779.604 513.592C775.78 506.45 776.284 488.078 780.559 482.077C783.771 477.51 783.559 475.838 778.886 466.306C773.922 456.35 773.816 454.996 777.32 445.358C780.851 435.295 780.851 434.764 775.063 428.047C770.071 422.339 769.249 419.02 769.966 408.214C770.682 397.222 769.859 394.222 764.894 388.938C760.726 384.478 758.549 378.77 757.726 369.636C756.797 359.68 755.044 355.538 750.371 351.901C743.096 346.113 736.671 331.988 738.636 325.881C739.698 322.562 738.025 320.598 732.317 318.208C723.29 314.465 715.324 302.649 715.324 293.012C715.324 288.551 713.971 286.162 711.475 286.162C703.271 286.162 693.314 278.595 689.173 269.143C686.279 262.505 682.853 258.868 678.499 257.832C668.012 255.257 660.764 249.336 657.02 240.309C653.914 232.955 652.453 231.919 644.488 231.919C637.213 231.919 633.788 230.061 626.115 222.069C618.23 213.759 615.229 212.219 606.839 212.219C599.352 212.219 594.892 210.334 588.254 204.439C581.112 198.2 578.006 197.058 571.979 198.306C563.801 199.873 550.606 195.518 545.534 189.385C542.933 186.279 540.756 186.067 534.118 188.031C524.374 191.058 509.745 188.881 505.497 183.783C502.921 180.677 501.673 180.677 495.54 183.889C487.15 188.137 479.371 188.456 469.096 184.819C463.095 182.748 459.856 183.066 454.068 186.067C445.439 190.527 433.305 191.164 426.588 187.527C422.951 185.562 420.561 186.279 415.49 190.952C408.215 197.696 399.401 199.979 387.798 197.988C381.771 197.059 379.382 197.696 378.134 200.802C375.851 206.829 364.142 212.219 353.256 212.219C345.371 212.219 343.194 213.467 339.662 219.68C334.989 227.777 320.068 235.45 312.687 233.565C309.9 232.848 308.147 233.672 308.147 235.742C308.147 242.274 293.199 256.399 284.597 257.939C278.065 259.186 275.994 261.045 274.746 266.647C272.967 274.745 260.648 286.162 253.586 286.162C250.054 286.162 248.913 287.914 248.913 293.012C248.807 302.543 240.921 314.358 232.213 317.996C225.788 320.704 224.646 322.669 223.504 332.519C222.469 341.652 220.398 345.688 213.335 352.113C205.769 359.175 204.415 361.857 204.415 371.203C204.415 379.407 202.875 383.947 197.671 390.08C191.777 397.116 191.033 399.93 191.776 411.958C192.387 423.162 191.458 426.985 187.103 432.587C182.431 438.402 182.033 440.473 184.396 445.677C188.245 454.066 187.927 462.881 183.36 472.333C180.041 479.475 180.041 481.042 183.36 487.467C188.139 496.68 188.245 506.557 183.36 515.77C181.395 519.832 180.572 523.151 181.82 523.151C186.997 523.151 192.812 539.745 191.564 551.029C190.635 559.233 191.245 563.268 193.847 565.445C199.954 570.543 204.415 581.747 204.415 591.996C204.415 599.483 205.662 602.59 209.618 604.66C215.831 607.979 225.177 627.892 223.398 634.317C222.575 637.53 224.646 640.344 230.566 643.849C240.098 649.345 248.807 662.222 248.807 670.505C248.807 673.93 250.373 676.108 252.869 676.108C259.904 676.108 270.392 685.666 274.428 695.808C277.534 703.508 279.711 705.685 284.278 705.685C291.951 705.685 301.695 713.544 305.439 722.571C307.935 728.491 310.324 730.058 318.714 731.2C326.281 732.235 331.166 734.81 336.768 740.944C342.875 747.581 347.017 749.652 356.15 750.688C364.248 751.617 369.85 754.113 374.921 758.971C381.055 764.892 383.842 765.715 394.117 765.211C403.861 764.68 407.393 765.715 413.499 770.813C420.031 776.309 421.809 776.813 428.128 774.344C436.731 771.105 451.891 773.388 456.245 778.592C459.856 782.946 460.706 782.946 468.485 778.486ZM384.585 704.437C384.585 688.135 388.091 686.913 396.905 700.189L403.144 709.402L403.861 700.189C405.109 685.851 409.251 689.17 409.251 704.437C409.251 721.031 405.003 722.465 396.507 708.791L390.798 699.551L389.975 708.791C388.834 723.102 384.585 719.677 384.585 704.437ZM417.243 715.004C411.216 707.331 411.428 700.906 417.773 694.48C427.305 685.028 441.404 691.055 441.404 704.543C441.404 715.216 423.668 722.889 417.349 715.004H417.243ZM434.155 709.189C438.509 703.906 434.155 697.056 426.27 697.056C420.243 697.056 417.455 702.658 420.137 709.508C421.916 714.287 430.093 714.075 434.155 709.189ZM651.125 503.53C651.125 500.954 653.09 498.246 655.48 497.636C659.091 496.68 658.905 496.175 654.126 494.715C651.126 493.68 647.887 490.148 647.064 486.936C645.417 480.086 640.027 480.405 640.027 487.255C640.027 491.609 638.78 492.246 627.681 493.467C618.654 494.503 616.583 493.574 616.583 488.396C616.583 484.547 617.937 483.511 622.079 484.148C625.903 484.653 627.788 483.405 628.399 479.9C628.93 477.192 631 473.661 633.071 472.015C636.39 469.519 636.071 468.908 631 467.766C624.469 466.2 619.265 466.811 614.699 469.625C612.946 470.767 611.592 470.448 611.592 468.802C611.592 467.342 610.344 466.811 608.91 467.766C607.238 468.802 606.521 467.235 607.026 463.598C607.663 459.456 609.521 457.704 613.265 457.704C621.973 457.704 622.69 454.491 615.548 447.854C610.769 443.499 609.309 440.181 610.344 436.756C612.522 429.906 618.655 430.623 621.549 438.083C623.938 444.535 630.257 448.571 633.284 445.57C634.213 444.641 633.576 443.075 631.824 442.039C627.151 439.039 630.788 432.693 639.178 429.189C651.418 424.091 654.949 428.233 654.232 446.606C653.595 462.775 659.516 476.263 667.295 476.263C672.26 476.263 671.756 472.944 664.693 458.952C657.657 445.039 656.913 438.614 662.223 434.366C670.295 427.622 679.641 439.968 676.11 452.818C674.649 458.633 673.933 459.058 671.225 455.739C669.578 453.642 668.436 448.995 668.861 445.252C669.259 441.508 668.224 438.004 666.578 437.473C661.268 435.614 663.047 446.712 669.79 458.314C677.676 471.696 676.534 481.148 667.083 481.148C660.339 481.148 658.905 484.759 664.587 486.936C668.755 488.609 667.083 503.238 662.41 506.45C657.232 509.955 651.125 508.415 651.125 503.53ZM297.872 482.369C296.093 476.98 294.765 471.191 294.978 469.412C295.057 467.766 294.235 466.306 292.987 466.306C290.093 466.306 290.305 456.244 293.199 451.571C294.766 449.181 299.624 447.854 307.404 447.747C317.466 447.747 319.245 446.898 319.245 442.862C319.245 440.18 320.891 438.003 322.962 438.003C324.927 438.003 326.599 440.18 326.599 442.862C326.706 447.11 328.06 447.748 336.025 447.004C343.3 446.287 346.512 447.429 350.256 451.677C355.327 457.598 356.681 466.306 352.513 466.306C351.185 466.306 350.043 467.952 350.043 469.837C350.043 471.802 348.796 476.581 347.229 480.404C345.689 484.148 344.547 488.396 344.76 489.75C344.946 491.29 336.344 492.246 323.068 492.246C301.085 492.246 301.084 492.246 297.872 482.369ZM306.05 467.766C305.439 462.881 306.156 461.235 308.545 461.952C310.324 462.563 311.758 465.058 311.758 467.554C311.758 470.05 313.218 472.519 314.89 473.156C318.714 474.404 316.112 458.633 312.076 455.925C304.722 451.066 297.66 458.102 299.731 468.271C301.695 478.015 307.191 477.51 306.05 467.766ZM345.158 465.271C345.158 458.846 343.91 456.775 339.556 455.633C332.812 453.854 331.378 455.42 329.095 465.988C327.741 472.413 328.06 474.085 330.635 473.262C332.52 472.625 333.954 470.05 333.954 467.66C333.954 465.165 335.521 462.563 337.273 461.952C339.45 461.235 340.379 462.775 340.087 466.731C339.45 475.121 339.875 476.688 342.663 475.015C344.017 474.192 345.158 469.838 345.158 465.271ZM305.333 417.029C304.722 412.276 304.191 410.816 299.837 402.638C294.978 393.505 295.376 391.434 301.615 393.797C304.297 394.859 305.226 397.036 304.297 400.036C303.262 403.143 303.978 404.709 306.687 404.709C309.581 404.709 310.112 402.93 308.864 396.93C307.828 391.328 308.147 389.549 310.218 390.797C311.758 391.832 313.006 394.753 313.006 397.434C313.006 400.036 314.678 402.214 316.749 402.214C320.785 402.214 321.714 398.364 318.209 396.187C315.926 394.753 320.387 382.513 323.068 382.513C323.891 382.513 326.068 385.301 327.953 388.832C330.847 394.222 330.847 395.47 327.741 397.328C323.387 400.036 326.281 403.355 331.378 401.39C333.555 400.541 334.485 398.258 333.662 396.08C332.706 393.717 333.662 392.363 336.237 392.363C339.238 392.363 339.875 393.797 338.733 398.47C337.804 402.32 338.202 404.709 339.875 404.709C341.441 404.709 342.663 402.532 342.663 399.93C342.663 394.939 346.831 390.797 349.3 393.293C351.185 395.045 345.052 409.568 342.476 409.568C341.335 409.568 340.91 411.851 341.441 414.56C342.264 419.126 341.017 419.524 323.998 419.524C313.643 419.524 305.439 418.383 305.333 417.029ZM325.963 407.922C324.316 407.285 321.528 407.285 319.856 407.922C318.103 408.639 319.537 409.276 322.856 409.276C326.281 409.276 327.635 408.639 325.963 407.922ZM623.938 415.064C623.938 413.312 621.761 407.497 619.079 402.214C616.265 396.93 614.088 391.939 614.088 391.222C614.088 390.399 616.265 391.222 619.079 392.868C621.761 394.647 623.938 397.966 623.938 400.435C623.938 402.93 625.08 404.285 626.54 403.355C627.974 402.532 628.398 399.612 627.575 397.036C626.54 393.717 627.257 392.363 630.071 392.363C632.434 392.363 633.788 394.009 633.284 396.399C632.965 398.576 634.107 400.966 636.072 401.682C638.567 402.532 639.072 401.284 637.93 396.718C637.001 393.08 637.744 388.726 639.921 385.938C643.346 381.265 643.453 381.265 647.064 386.124C649.028 388.832 652.161 391.116 654.02 391.116C655.878 391.222 657.02 393.505 656.727 396.718C655.878 403.568 659.94 403.966 661.693 397.222C662.41 394.54 664.799 392.257 666.976 392.257C670.508 392.257 670.295 393.505 665.941 402.107C663.259 407.391 660.976 413.312 660.976 415.064C660.976 417.347 655.878 418.17 642.497 418.17C629.036 418.17 623.938 417.347 623.938 415.064ZM651.418 398.47C651.418 397.222 650.276 395.788 648.842 395.257C647.382 394.859 646.134 396.187 646.134 398.47C646.134 400.753 647.382 402.213 648.842 401.682C650.276 401.284 651.418 399.824 651.418 398.47ZM636.895 412.887C635.249 412.276 632.434 412.276 630.788 412.887C629.036 413.63 630.47 414.135 633.788 414.135C637.213 414.135 638.568 413.63 636.895 412.887ZM549.889 603.306C549.889 595.845 551.03 589.713 552.384 589.713C553.738 589.713 554.88 595.845 554.88 603.306C554.88 610.767 553.738 616.9 552.384 616.9C551.03 616.9 549.889 610.767 549.889 603.306ZM591.892 603.306C591.892 586.818 596.139 585.358 604.662 598.952L610.344 608.298L611.194 598.952C612.335 584.642 616.583 588.066 616.583 603.306C616.583 619.183 612.734 621.148 605.379 608.909L600.494 600.811L599.777 608.909C599.246 613.794 597.6 616.9 595.423 616.9C592.715 616.9 591.892 613.475 591.892 603.306ZM253.055 570.835C252.232 570.012 252.019 568.366 252.762 567.224C255.046 563.481 710.864 564.516 709.722 568.154C708.873 570.543 660.657 571.366 481.654 571.897C356.787 572.189 253.905 571.791 253.055 570.835ZM442.652 552.064C441.191 547.71 438.191 438.933 438.085 387.797C438.085 354.503 438.802 344.546 441.404 342.98C443.368 341.758 445.147 334.802 445.758 325.881C446.9 310.933 451.148 304.72 451.36 317.677C451.36 324.102 451.679 324.022 456.75 314.57C461.741 305.251 463.281 293.41 463.494 263.142C463.6 255.045 464.131 254.009 467.131 256.505C470.131 258.974 471.379 257.222 474.91 245.088C477.3 237.203 479.371 223.715 479.477 215.219C479.689 206.829 480.831 199.873 482.159 199.873C483.513 199.873 484.335 204.625 484.043 210.334C483.406 223.104 487.362 244.053 492.54 256.186C496.363 265.107 496.469 265.107 498.248 259.08C499.39 255.151 500.213 260.328 500.319 273.391C500.638 297.472 503.851 312.181 510.78 320.783C515.772 326.917 515.771 326.916 514.63 320.066C514.099 316.349 514.524 312.606 515.665 311.889C516.913 311.145 517.948 315.925 518.161 322.456C518.559 336.555 521.772 351.9 522.834 344.227C523.232 341.44 524.374 345.9 525.303 354.078C528.011 375.769 528.011 420.984 525.409 437.366C524.055 445.145 522.834 471.191 522.621 495.352C521.984 561.728 526.445 555.197 481.654 555.197C453.431 555.197 443.368 554.347 442.652 552.064ZM464.795 451.465C466.149 451.703 467.848 460.837 468.671 471.908L470.025 492.246L470.45 471.908C470.768 460.279 471.99 451.571 473.45 451.571C474.91 451.571 475.946 460.094 476.052 471.908C476.158 487.971 476.769 490.998 478.628 486.113C479.982 482.688 480.91 474.404 480.725 467.554C480.194 450.217 480.513 448.571 483.407 450.323C484.867 451.279 485.477 458.208 484.867 467.129C484.336 475.546 484.76 484.546 485.902 487.361C487.15 490.467 487.973 484.148 488.079 470.554C488.186 456.668 489.115 449.287 490.681 450.323C492.009 451.172 493.151 460.598 493.151 471.377C493.151 482.9 494.186 490.998 495.646 490.998C497.107 490.998 498.142 482.184 498.142 469.519C498.142 442.464 502.496 444.827 503.638 472.519C504.461 492.246 504.461 492.246 504.992 469.412L505.497 446.606H458.635L459.033 469.412L459.564 492.246L460.918 471.908C461.741 460.837 463.335 451.703 464.795 451.465H464.742H464.848H464.795ZM454.174 350.042C454.785 343.617 456.139 342.156 461.741 341.546C467.556 340.909 468.591 341.758 468.884 347.44C469.202 354.078 469.202 354.078 470.237 347.334C471.698 337.909 475.839 338.732 476.158 348.476C476.45 356.573 476.45 356.573 478.017 349.219C479.265 343.511 480.911 341.838 485.796 341.838C490.867 341.838 492.221 343.298 493.469 350.467C495.036 359.069 495.036 359.069 495.328 349.723C495.434 344.652 496.788 340.51 498.142 340.51C499.496 340.51 500.744 344.652 501.036 349.723L501.355 359.069L502.39 349.723C503.532 338.519 507.381 337.59 508.417 348.396C509.638 360.423 515.347 360.317 515.347 348.077V338.015H448.758V347.865C448.758 359.574 453.032 361.246 454.174 350.042ZM498.142 288.657C498.142 278.781 498.142 278.781 483.194 278.781C474.911 278.781 468.777 279.843 469.52 280.958C470.343 282.206 476.45 282.949 483.3 282.631C495.646 282.206 495.646 282.206 495.646 290.41C495.646 294.87 496.177 298.614 496.894 298.614C497.505 298.614 498.142 294.153 498.142 288.657ZM453.643 468.802C453.643 450.748 453.033 446.606 450.006 446.606C447.006 446.606 446.289 450.748 446.289 468.802C446.289 486.936 446.9 490.998 450.006 490.998C453.033 490.998 453.643 486.936 453.643 468.802ZM517.842 468.802C517.842 450.748 517.126 446.606 514.099 446.606C511.099 446.606 510.488 450.748 510.488 468.802C510.488 486.936 511.099 490.998 514.099 490.998C517.126 490.998 517.842 486.936 517.842 468.802ZM522.834 441.72V362.706H481.76C445.439 362.706 441.006 363.105 442.333 366.636C443.183 368.707 443.793 386.549 443.793 406.037V441.72H522.834ZM451.254 396.001V367.565L481.442 368.202L511.736 368.919L512.346 396.612L513.064 424.41H451.148L451.254 396.001ZM499.602 407.816C497.823 406.037 493.151 409.568 493.151 412.595C493.151 414.241 494.611 414.029 496.894 412.064C498.965 410.312 500.213 408.426 499.602 407.816ZM492.646 406.674C497.213 402.214 496.284 391.222 490.974 386.442C485.186 381.265 482.053 384.796 484.442 394.009C485.584 398.47 485.079 399.93 482.796 399.213C480.831 398.47 479.875 395.045 480.406 390.292C481.229 381.77 478.442 380.336 472.308 386.336C467.848 390.797 467.344 398.072 471.061 404.895C473.981 410.311 487.867 411.453 492.646 406.674ZM464.024 399.213C462.246 397.434 461.104 397.328 461.104 398.895C461.104 402.107 464.025 405.001 465.671 403.461C466.308 402.718 465.671 400.859 464.024 399.213ZM503.001 400.859C503.001 398.788 501.965 397.647 500.531 398.47C499.177 399.399 498.142 401.072 498.142 402.426C498.142 403.674 499.177 404.709 500.531 404.709C501.965 404.709 503.001 402.93 503.001 400.859ZM503.001 392.682C503.001 391.434 500.823 387.797 498.142 384.584C493.257 378.77 493.257 378.77 497.106 386.761C500.93 394.753 503.001 396.824 503.001 392.682ZM507.992 382.407C507.992 373.167 507.567 372.557 500.744 372.557C493.363 372.557 493.363 372.557 499.496 378.663C502.815 381.982 505.497 386.443 505.497 388.513C505.497 390.584 506.027 392.363 506.744 392.363C507.461 392.363 507.992 387.903 507.992 382.513V382.407ZM466.6 376.38C471.99 372.663 471.99 372.557 464.131 372.557C456.75 372.557 456.139 373.167 456.245 380.628C456.351 387.159 456.75 387.797 458.715 384.372C460.175 382.088 463.706 378.451 466.6 376.38ZM507.78 411.453C507.674 403.143 507.275 402.107 505.603 406.249C504.355 409.063 500.425 413.816 496.788 416.737C490.044 422.02 490.044 422.02 498.965 422.02C507.992 422.02 507.992 421.914 507.78 411.453ZM479.583 414.56C478.733 413.205 476.981 412.064 475.733 412.064C474.486 412.064 473.45 413.205 473.45 414.56C473.45 415.914 475.123 417.029 477.3 417.029C479.371 417.029 480.406 415.914 479.583 414.56ZM469.308 417.135C465.06 414.559 460.387 410.391 458.927 407.922C456.75 404.178 456.351 405.001 456.245 412.674C456.139 421.914 456.139 421.914 466.6 421.914C477.088 421.914 477.087 421.914 469.308 417.135ZM470.955 434.26C470.955 431.552 472.096 429.375 473.45 429.375C474.804 429.375 475.946 431.552 475.946 434.26C475.946 437.048 474.804 439.225 473.45 439.225C472.096 439.225 470.955 437.048 470.955 434.26ZM478.335 434.26C478.335 431.552 479.982 429.375 482.053 429.375C484.15 429.375 485.796 431.552 485.796 434.26C485.796 437.048 484.15 439.225 482.053 439.225C479.982 439.225 478.335 437.048 478.335 434.26ZM488.185 434.26C488.185 431.552 489.327 429.375 490.681 429.375C492.009 429.375 493.151 431.552 493.151 434.26C493.151 437.048 492.009 439.225 490.681 439.225C489.327 439.225 488.185 437.048 488.185 434.26ZM495.646 434.472C495.646 431.87 496.788 428.976 498.142 428.127C499.496 427.304 500.637 429.374 500.637 432.906C500.637 436.437 499.496 439.225 498.142 439.225C496.788 439.225 495.646 437.048 495.646 434.472ZM503.956 435.72C502.284 431.26 504.992 426.268 508.204 428.233C511.311 430.224 511.099 439.225 507.886 439.225C506.532 439.225 504.779 437.579 504.062 435.72H503.956ZM453.643 434.685C453.643 428.445 455.316 427.41 462.352 428.764C466.308 429.481 468.485 431.552 468.485 434.578C468.485 439.756 464.635 440.791 462.777 436.118C461.741 433.623 461.423 433.623 461.317 436.118C460.998 441.11 453.643 439.649 453.643 434.685ZM505.497 547.816C505.497 546.276 496.071 545.347 482.053 545.347C468.061 545.347 458.635 546.276 458.635 547.816C458.635 549.276 468.061 550.205 482.053 550.205C496.071 550.205 505.497 549.276 505.497 547.816ZM517.842 547.816C517.842 546.462 516.197 545.347 514.099 545.347C512.134 545.347 510.488 546.462 510.488 547.816C510.488 549.17 512.134 550.205 514.099 550.205C516.197 550.205 517.842 549.17 517.842 547.816ZM453.643 521.903C453.643 507.061 452.927 503.318 450.006 503.318C447.006 503.318 446.289 507.061 446.289 521.903C446.289 536.718 447.006 540.355 450.006 540.355C452.927 540.355 453.643 536.718 453.643 521.903ZM460.387 512.663C459.856 506.849 459.458 511.017 459.458 521.903C459.458 532.682 459.856 537.461 460.387 532.47C460.918 527.399 460.918 518.478 460.387 512.663ZM470.344 512.663C469.733 506.849 469.308 511.017 469.308 521.903C469.308 532.682 469.813 537.461 470.237 532.47C470.768 527.399 470.768 518.478 470.344 512.663ZM477.698 512.663C477.194 506.849 476.769 511.017 476.769 521.903C476.769 532.682 477.194 537.461 477.698 532.47C478.229 527.399 478.229 518.478 477.698 512.663ZM488.185 521.69C488.185 509.955 487.362 503.636 485.796 504.565C481.336 507.38 482.796 540.355 487.468 540.355C487.867 540.355 488.185 531.966 488.185 521.69ZM498.142 523.23C498.142 513.805 497 505.415 495.646 504.565C494.106 503.636 493.151 509.955 493.151 521.69C493.151 532.47 494.186 540.355 495.646 540.355C497 540.355 498.142 533.001 498.142 523.23ZM504.886 512.663C504.355 506.849 503.85 511.017 503.85 521.903C503.85 532.682 504.355 537.461 504.886 532.47C505.39 527.399 505.39 518.478 504.886 512.663ZM517.842 521.903C517.842 507.061 517.126 503.318 514.099 503.318C511.205 503.318 510.488 507.061 510.488 521.903C510.488 536.718 511.205 540.355 514.099 540.355C517.126 540.355 517.842 536.718 517.842 521.903ZM453.643 498.459C453.643 497.105 451.997 495.963 449.82 495.963C447.722 495.963 446.687 497.105 447.537 498.459C448.36 499.813 450.112 500.954 451.36 500.954C452.608 500.954 453.643 499.813 453.643 498.459ZM505.497 498.459C505.497 496.999 496.071 495.963 482.053 495.963C468.061 495.963 458.635 496.999 458.635 498.459C458.635 499.919 468.061 500.954 482.053 500.954C496.071 500.954 505.497 499.919 505.497 498.459ZM517.842 498.459C517.842 497.105 516.197 495.963 514.099 495.963C512.134 495.963 510.488 497.105 510.488 498.459C510.488 499.813 512.134 500.954 514.099 500.954C516.197 500.954 517.842 499.813 517.842 498.459ZM453.643 547.816C453.643 546.462 451.998 545.347 450.006 545.347C447.935 545.347 446.289 546.462 446.289 547.816C446.289 549.17 447.935 550.205 450.006 550.205C451.998 550.205 453.643 549.17 453.643 547.816ZM495.646 614.617C495.646 608.696 505.815 589.421 508.497 590.35C512.347 591.598 521.586 614.086 519.09 616.369C518.055 617.298 516.701 616.688 516.09 615.041C514.736 611.404 500.531 610.767 500.531 614.405C500.531 615.759 499.496 616.9 498.142 616.9C496.788 616.9 495.646 615.865 495.646 614.617ZM510.488 603.306C510.488 601.235 509.346 599.563 507.992 599.563C506.638 599.563 505.497 601.235 505.497 603.306C505.497 605.377 506.638 607.05 507.992 607.05C509.346 607.05 510.488 605.377 510.488 603.306ZM530.188 605.802C530.188 597.492 529.259 594.704 526.445 594.704C524.48 594.704 522.834 593.562 522.834 592.208C522.834 590.854 527.798 589.713 533.932 589.713C540.038 589.713 545.004 590.854 545.004 592.208C545.004 593.562 543.357 594.704 541.286 594.704C538.472 594.704 537.543 597.492 537.543 605.802C537.543 613.98 536.613 616.9 533.932 616.9C531.117 616.9 530.188 613.98 530.188 605.802ZM443.687 615.041C438.191 611.192 437.049 597.386 441.828 592.633C445.97 588.571 457.387 588.995 460.998 593.35C463.706 596.456 462.777 596.881 454.573 596.456C445.97 595.952 444.935 596.457 444.324 602.271C443.262 611.298 450.006 616.582 455.608 611.086C459.352 607.263 459.352 606.944 455.396 606.944C453.139 606.944 451.148 605.802 451.148 604.342C451.148 602.881 454.281 602.059 457.998 602.483C463.175 603.094 464.954 604.767 465.459 609.731C466.202 615.546 465.272 616.369 457.387 617.298C452.183 617.936 446.395 616.9 443.687 614.935V615.041ZM569.696 617.617C554.137 612.121 558.093 589.713 574.474 589.713C587.643 589.713 592.608 606.306 582.041 614.829C576.227 619.582 575.51 619.688 569.696 617.617ZM579.041 611.404C586.82 603.625 579.041 590.668 569.908 596.35C564.412 599.881 563.801 605.696 568.448 610.369C573.227 615.121 575.085 615.334 579.041 611.404ZM345.052 603.094C345.052 584.96 350.973 585.889 352.008 604.129C352.619 614.298 352.008 616.9 348.902 616.9C345.875 616.9 345.052 613.9 345.052 603.094ZM357.398 603.306C357.398 586.925 362.283 584.96 367.885 598.952L371.603 608.298L375.664 598.952C381.877 584.854 387.055 586.818 387.055 603.306C387.055 613.794 386.232 616.9 383.338 616.9C381.267 616.9 379.594 614.511 379.488 611.298C379.276 605.802 379.275 605.802 376.594 611.298C373.063 618.759 368.814 618.361 365.602 610.156C362.894 603.306 362.894 603.306 362.682 610.156C362.071 623.007 357.398 616.9 357.398 603.306ZM392.046 603.306C392.046 587.243 397.223 584.641 402.215 598.447C403.861 603.094 406.145 607.05 407.074 607.05C408.109 607.05 410.18 603.094 411.747 598.447C416.313 584.535 421.597 587.243 421.597 603.306C421.597 617.617 416.818 622.715 416.419 608.909L416.207 600.811L412.782 608.909C410.818 613.263 408.11 616.9 406.756 616.9C405.428 616.9 402.719 613.263 400.861 608.909L397.33 600.811L397.118 608.909C396.719 622.715 391.94 617.617 391.94 603.306H392.046ZM426.987 603.943C427.916 587.641 432.483 588.067 433.412 604.554C434.049 614.511 433.412 616.9 430.2 616.9C426.987 616.9 426.376 614.51 426.987 603.943ZM468.485 603.2C468.485 589.42 468.485 589.421 478.946 590.244C489.434 590.96 489.433 590.96 489.433 600.811C489.433 606.306 490.363 612.121 491.504 613.794C492.752 615.758 492.115 616.9 489.726 616.9C487.655 616.9 484.761 614.617 483.3 611.909C481.867 609.227 479.583 607.05 478.229 607.05C476.981 607.05 475.84 609.227 475.84 611.909C475.84 614.723 474.273 616.9 472.202 616.9C469.308 616.9 468.485 613.687 468.485 603.2ZM485.796 598.341C485.796 596.35 483.619 594.704 480.831 594.704C478.123 594.704 475.84 596.35 475.84 598.341C475.84 600.412 478.123 602.058 480.831 602.058C483.619 602.058 485.796 600.412 485.796 598.341ZM445.041 715.535C444.218 714.181 445.253 713.145 447.43 713.145C449.501 713.145 451.254 714.181 451.254 715.535C451.254 716.969 450.219 718.004 448.865 718.004C447.643 718.004 445.864 716.969 445.041 715.535ZM468.884 715.827C465.459 713.65 464.237 698.197 467.131 693.551C469.308 690.02 479.158 690.232 482.796 693.843C484.442 695.516 485.796 700.268 485.796 704.437C485.796 716.146 477.804 721.535 468.884 715.827ZM479.583 704.331C479.583 699.552 478.335 697.056 475.946 697.056C471.91 697.056 469.733 703.906 471.99 709.827C474.38 715.933 479.583 712.11 479.583 704.331ZM491.08 714.791C489.115 712.402 488.796 708.154 490.15 701.729C491.903 693.232 492.964 692.197 499.496 692.197C506.532 692.197 506.744 692.489 506.744 704.543C506.744 715.933 506.319 716.862 500.425 717.606C496.894 717.924 492.646 716.783 491.08 714.791ZM503.001 709.402C503.001 707.437 501.461 705.685 499.496 705.685C495.327 705.685 492.54 709.189 494.929 711.579C497.823 714.499 503.001 713.145 503.001 709.402ZM503.001 698.304C503.001 696.95 501.354 695.808 499.39 695.808C497.319 695.808 495.646 696.95 495.646 698.304C495.646 699.658 497.319 700.8 499.39 700.8C501.354 700.8 503.001 699.658 503.001 698.304ZM522.834 715.641C522.834 714.287 520.657 713.145 518.055 713.145C515.347 713.145 512.665 712.216 511.922 711.074C510.17 708.26 522.197 692.197 525.94 692.197C530.401 692.197 532.79 710.968 528.834 714.791C525.011 718.747 522.834 718.96 522.834 715.641ZM524.692 703.693C526.153 699.233 521.055 700.189 519.409 704.729C518.453 707.118 518.984 708.26 520.737 707.649C522.409 707.118 524.161 705.366 524.692 703.693ZM536.826 716.464C533.401 713.039 535.259 710.968 541.18 711.367C549.57 712.11 550.314 707.118 541.897 706.189C534.649 705.366 534.436 704.941 536.72 696.445C537.755 692.303 540.039 690.949 545.322 690.949C549.172 690.949 552.384 691.985 552.384 693.339C552.384 694.772 550.208 695.808 547.499 695.808C544.712 695.808 542.534 696.95 542.534 698.304C542.534 699.658 544.712 700.8 547.287 700.8C553.102 700.8 556.314 709.614 552.278 714.499C549.278 718.11 539.72 719.358 536.826 716.464ZM558.491 709.827C555.703 695.091 557.456 692.197 568.448 692.197C578.298 692.197 578.298 692.197 578.298 704.543C578.298 716.862 578.298 716.862 569.191 717.606C560.562 718.323 559.952 717.925 558.491 709.827ZM573.944 710.039C572.404 705.366 564.73 704.729 564.73 709.189C564.73 711.473 566.908 713.145 569.908 713.145C572.908 713.145 574.581 711.897 573.944 710.039ZM574.581 698.304C574.581 696.95 572.404 695.808 569.696 695.808C567.014 695.808 564.73 696.95 564.73 698.304C564.73 699.658 566.908 700.8 569.696 700.8C572.404 700.8 574.581 699.658 574.581 698.304Z" fill="#25549A"/>
</svg>
