<svg width="958" height="956" viewBox="0 0 958 956" fill="none" xmlns="http://www.w3.org/2000/svg">
<path fill-rule="evenodd" clip-rule="evenodd" d="M418.102 952.39C261.128 933.01 121.873 834.516 50.6586 692.599C37.604 666.639 24.2087 632.947 25.5504 629.455C26.0402 628.049 25.7844 626.793 24.7835 626.793C21.4613 626.793 9.23762 578.877 4.99969 549.509C-16.7224 397.689 33.1105 245.72 139.421 139.9C216.449 63.1059 313.197 16.1905 422.936 2.30541C447.81 -0.782529 510.038 -0.782569 534.89 2.39056C641.307 15.9562 734.627 60.3581 809.994 133.404C840.958 163.431 856.419 181.832 877.715 213.691C945.096 314.847 970.801 437.62 950.101 560.328C915.409 765.729 746.702 926.196 537.723 952.646C507.78 956.479 449.791 956.308 418.102 952.39ZM250.565 880.43C250.565 879.365 249.735 878.45 248.734 878.45C247.648 878.45 246.327 879.365 245.646 880.43C244.986 881.516 245.816 882.432 247.477 882.432C249.16 882.432 250.565 881.516 250.565 880.43ZM834.122 784.939C833.632 777.613 829.799 778.783 829.544 786.429C829.309 792.179 829.799 793.18 831.886 791.519C833.292 790.348 834.293 787.345 834.122 784.939ZM951.166 505.086C952.997 503.254 953.253 501.764 951.997 501.018C949.334 499.357 946.097 501.508 946.097 505.086C946.097 508.663 947.588 508.663 951.166 505.086ZM24.6984 395.112C24.6984 394.026 23.7826 392.706 22.7178 391.961C21.6317 391.301 20.7161 392.131 20.7161 393.877C20.7161 395.538 21.6317 396.944 22.7178 396.944C23.7826 396.944 24.6984 396.113 24.6984 395.112ZM77.1081 239.885C77.1933 236.903 76.6184 234.475 75.7878 234.475C74.9573 234.475 74.2121 235.818 74.2121 237.479C74.2121 239.055 73.3813 240.396 72.2952 240.396C71.124 240.396 70.2935 241.802 70.2935 243.548C70.2935 249.213 76.8739 245.72 77.1081 239.885ZM739.631 83.2519C740.036 81.2501 739.035 79.9081 737.204 79.9081C735.308 79.9081 734.052 81.5909 734.052 84.0825C734.052 88.8954 738.715 88.15 739.631 83.2519ZM399.212 13.6131C399.212 11.7817 398.062 11.1214 396.231 11.8668C394.57 12.4418 393.228 13.784 393.228 14.6998C393.228 15.7007 394.57 16.5312 396.231 16.5312C397.892 16.5312 399.212 15.1891 399.212 13.6131ZM454.71 949.813C454.71 948.727 453.794 947.811 452.708 947.811C451.622 947.811 450.706 948.727 450.706 949.813C450.706 950.899 451.622 951.73 452.708 951.73C453.794 951.73 454.71 950.899 454.71 949.813ZM472.088 949.642C471.768 948.492 470.597 947.492 469.511 947.492C468.51 947.492 467.36 948.492 466.934 949.642C466.593 950.814 467.68 951.73 469.511 951.73C471.343 951.73 472.514 950.814 472.088 949.642ZM552.779 931.093C603.123 921.787 645.459 907.732 686.476 886.841C814.338 821.781 905.677 699.328 930.295 559.923C966.648 354.267 862.254 151.868 674.082 63.1055C660.26 56.5462 648.867 50.1363 648.867 48.816C648.867 45.3021 645.034 43.6412 642.287 45.8985C640.711 47.1337 634.237 45.8981 622.077 41.8945C574.991 26.4335 531.909 19.7678 479.414 19.7678C445.723 19.8529 405.452 23.3455 389.821 27.6686C385.987 28.6695 385.327 28.095 385.327 23.6867C385.327 20.8543 384.326 18.5329 383.155 18.5329C382.005 18.5329 381.345 20.7692 381.75 23.6016C382.325 28.5848 381.579 29.0108 364.521 33.4191C285.427 53.9698 217.045 92.7286 157.139 150.803C14.2209 289.462 -21.4714 508.259 69.8038 687.189C119.381 784.364 206.631 863.713 308.214 904.069C345.397 918.785 392.909 930.689 429.921 934.586C450.131 936.758 535.487 934.352 552.779 931.093ZM421.02 924.194C375.169 917.784 336.091 906.816 294.478 888.501C196.75 845.504 110.394 758.808 67.0564 660.313C60.561 645.597 58.815 639.614 60.3058 637.782C61.903 635.865 61.4769 634.95 58.8149 634.29C53.001 632.778 40.8408 589.866 33.3658 544.612C28.0418 512.327 28.4465 440.793 34.1964 407.421C43.013 356.524 53.9169 322.493 75.4473 278.495C150.729 125.503 307.043 28.4141 478.328 28.4141C706.771 28.4141 897.009 197.122 925.227 424.65C953.082 650.347 803.605 864.053 581.316 916.037C532.654 927.431 468.191 930.689 421.02 924.194ZM748.938 673.389C755.433 664.147 765.165 648.515 770.404 638.698L779.966 620.894H177.2L184.015 634.204C187.678 641.594 196.154 655.82 202.819 665.893C209.378 676.051 214.213 684.271 213.382 684.356C212.637 684.356 213.702 685.699 215.789 687.275C219.111 689.851 253.973 690.192 478.328 690.192H737.054L748.938 673.389ZM282.999 670.131C285.171 662.23 285.001 661.826 278.357 656.331L271.521 650.581H280.593C289.495 650.581 289.665 650.432 292.157 642.19C294.734 633.693 294.734 633.693 297.31 639.699C298.823 642.936 299.972 646.769 300.058 648.089C300.058 649.75 303.38 650.581 309.534 650.666H318.947L312.133 656.331C305.467 661.911 305.296 662.23 307.554 669.556C310.45 678.948 309.619 679.863 302.975 674.539C296.395 669.47 294.563 669.386 288.238 674.39C281.168 679.863 280.593 679.373 282.999 670.131ZM649.868 670.472C652.615 662.571 652.615 662.571 645.289 656.587L638.049 650.581H647.036C655.767 650.581 656.022 650.347 659.11 642.19C662.518 633.033 662.347 632.947 667.671 648.089C668.161 649.58 672.08 650.581 677.063 650.666H685.56L678.639 656.331C671.995 661.911 671.909 662.23 674.167 669.556C675.402 673.709 676.232 677.372 675.913 677.712C675.572 678.032 672.42 676.136 668.757 673.474C662.177 668.64 662.177 668.64 655.852 673.474C647.291 679.948 646.631 679.629 649.868 670.472ZM785.546 606.157C789.294 597.426 797.769 571.317 800.197 560.903C801.518 555.494 801.518 555.494 478.328 555.494C171.535 555.494 155.223 555.664 156.309 558.922C156.884 560.818 159.546 569.975 162.208 579.218C164.87 588.524 168.873 600.343 171.109 605.497L175.113 614.91H781.712L785.546 606.157ZM216.875 593.273C216.875 579.793 215.618 575.299 211.721 575.299C210.209 575.299 208.974 573.638 208.974 571.551C208.974 568.399 210.465 567.909 219.196 568.143C229.844 568.399 234.934 572.552 227.012 574.639C223.285 575.64 222.859 577.13 222.859 590.355C222.859 602.089 222.284 605.007 219.878 605.007C217.535 605.007 216.875 602.431 216.875 593.273ZM228.758 601.664C228.758 599.853 230.355 591.782 232.272 583.796C235.254 571.317 236.339 569.4 240.088 569.315C243.58 569.315 244.901 571.061 246.647 577.791C247.903 582.369 249.649 589.269 250.736 593.102C251.736 596.936 252.567 601.174 252.567 602.516C252.567 606.583 246.987 605.326 245.646 601.003C244.815 598.512 242.665 597.106 239.577 597.106C236.084 597.106 234.763 598.171 234.763 601.003C234.763 603.261 233.422 605.007 231.761 605.007C230.1 605.007 228.758 603.495 228.758 601.664ZM242.664 586.288C242.664 579.133 239.257 578.302 238.256 585.202C237.66 589.27 238.256 591.101 240.002 591.101C241.493 591.101 242.664 589.035 242.664 586.288ZM256.55 587.204C256.55 571.061 256.89 569.315 260.213 569.315C262.875 569.315 265.132 572.381 268.028 579.707L272.117 590.1L272.266 579.707C272.351 571.891 273.118 569.315 275.354 569.315C277.761 569.315 278.357 572.637 278.357 587.204C278.357 603.091 277.931 605.007 274.694 605.007C272.117 605.007 270.03 601.919 267.283 593.614L263.449 582.199L262.875 593.614C262.47 602.005 261.469 605.007 259.382 605.007C257.146 605.007 256.55 601.43 256.55 587.204ZM297.481 601.344C293.072 596.51 293.328 593.102 298.141 593.102C300.398 593.102 302.144 594.444 302.144 596.276C302.144 598.086 303.465 599.087 305.382 598.682C311.366 597.511 310.45 593.273 303.295 589.035C299.482 586.778 295.82 583.115 295.074 580.964C293.328 575.47 299.142 567.313 304.806 567.313C309.534 567.313 315.945 572.892 315.945 576.96C315.945 580.303 310.131 579.793 308.789 576.3C308.129 574.639 306.382 573.297 304.892 573.297C300.143 573.297 301.804 578.962 307.554 582.625C310.535 584.542 313.623 587.033 314.454 588.12C316.69 591.271 316.2 600.002 313.623 602.579C310.045 606.157 301.144 605.497 297.481 601.344ZM323.015 600.599C318.372 593.933 318.947 576.3 323.931 571.317C328.68 566.568 334.408 566.227 338.668 570.486C342.48 574.298 342.991 598.938 339.328 602.579C335.409 606.583 326.422 605.412 323.015 600.599ZM334.834 586.118C334.834 573.063 330.766 569.656 327.338 579.878C324.676 587.864 327.189 599.513 331.427 598.682C334.174 598.171 334.834 595.68 334.834 586.118ZM347.655 586.033C347.655 569.486 348.144 567.143 350.977 567.739C354.469 568.399 356.045 570.635 360.368 581.219C363.201 588.205 363.201 588.204 363.371 578.706C363.456 571.806 364.287 569.315 366.523 569.315C368.951 569.315 369.44 572.637 369.44 587.289C369.44 603.346 369.1 605.242 366.033 604.667C363.861 604.262 361.028 599.768 358.622 593.102L354.64 582.199L353.958 593.614C353.553 602.005 352.638 605.007 350.551 605.007C348.23 605.007 347.655 601.259 347.655 586.033ZM387.329 587.034C387.329 569.72 387.5 569.059 391.567 569.719C394.719 570.145 396.806 572.978 399.383 580.219L402.875 590.1L402.961 579.707C403.131 571.891 403.876 569.315 406.134 569.315C408.54 569.315 409.03 572.637 409.03 587.289C409.03 603.346 408.711 605.242 405.623 604.667C403.472 604.262 400.639 599.768 398.233 593.102L394.229 582.199L393.654 593.614C393.143 602.005 392.227 605.007 390.162 605.007C387.819 605.007 387.244 601.43 387.244 587.034H387.329ZM415.036 587.523C415.036 574.128 415.695 569.485 417.846 568.74C421.765 567.143 423.022 569.059 423.022 576.641C423.022 581.88 423.767 583.2 426.919 583.2C430.177 583.2 430.923 581.88 430.923 576.3C430.923 571.466 431.838 569.315 433.904 569.315C436.332 569.315 436.821 572.637 436.821 587.204C436.821 601.664 436.332 605.007 433.904 605.007C431.753 605.007 430.923 602.835 430.923 597.106C430.923 590.526 430.241 589.206 427.089 589.206C424.001 589.206 423.085 590.781 422.596 596.595C422.191 601.749 420.935 604.177 418.528 604.667C415.44 605.242 415.036 603.41 415.036 587.523ZM440.825 602.516C440.825 601.174 441.656 596.936 442.635 593.102C443.721 589.269 445.553 582.369 446.724 577.642C448.555 570.571 449.706 569.23 453.22 569.719C456.712 570.23 458.203 573.234 461.951 587.204C464.442 596.425 466.444 604.262 466.53 604.496C466.53 604.751 464.783 605.007 462.611 605.007C459.949 605.007 458.607 603.665 458.607 601.003C458.607 598.171 457.287 597.106 453.965 597.106C450.877 597.106 448.811 598.512 448.13 601.003C447.044 605.326 440.825 606.583 440.825 602.516ZM455.03 584.946C454.455 580.623 453.709 579.622 452.453 581.539C449.876 585.627 450.387 591.101 453.368 591.101C455.115 591.101 455.711 589.205 455.03 585.031V584.946ZM472.514 590.27C472.514 577.13 472.088 575.384 468.425 574.213C463.697 572.722 464.357 568.314 469.192 568.485C471.002 568.655 475.666 568.804 479.414 568.974C486.654 569.4 489.401 573.297 482.416 573.297C478.753 573.297 478.413 574.639 478.413 589.206C478.413 601.919 477.838 605.007 475.495 605.007C473.089 605.007 472.514 602.089 472.514 590.27ZM502.201 587.204C502.201 572.637 502.797 569.315 505.203 569.315C507.61 569.315 508.206 572.637 508.206 587.204C508.206 601.664 507.61 605.007 505.203 605.007C502.797 605.007 502.201 601.664 502.201 587.204ZM515.511 603.75C514.765 603.005 514.105 594.934 514.105 585.862C514.105 569.89 514.275 569.315 518.769 569.315C522.496 569.315 523.923 571.146 526.499 578.791L529.566 588.205L529.737 578.962C529.907 572.723 530.908 569.4 532.995 568.655C535.486 567.654 535.891 570.401 535.891 586.373C535.891 603.005 535.486 605.242 532.654 604.667C530.652 604.262 527.905 599.918 525.924 594.104L522.496 584.201L521.751 593.933C521.09 603.09 518.684 606.924 515.511 603.75ZM547.796 589.206C547.796 574.383 547.54 573.297 543.728 573.297C541.215 573.297 539.895 572.317 540.385 570.805C540.896 569.485 542.216 568.485 543.557 568.57C544.793 568.655 549.372 568.889 553.78 569.059C562.022 569.315 564.513 572.893 557.698 574.724C554.206 575.64 553.78 577.386 553.78 590.355C553.78 602.089 553.119 605.007 550.798 605.007C548.37 605.007 547.796 601.919 547.796 589.206ZM565.024 603.75C562.277 601.003 563.683 596.765 567.09 597.426C569.007 597.851 570.583 599.342 570.583 600.918C570.583 604.006 567.09 605.837 565.024 603.75ZM586.235 600.599C586.895 598.086 588.897 590.1 590.558 582.71C593.305 571.147 594.306 569.315 598.118 569.315C602.037 569.315 603.038 571.232 606.19 584.712C608.191 593.103 610.193 601.174 610.683 602.516C611.258 603.921 610.193 605.007 608.277 605.007C606.445 605.007 604.443 603.261 603.868 601.003C603.208 598.597 601.121 597.106 598.374 597.106C595.542 597.106 593.455 598.512 592.794 601.003C592.305 603.261 590.218 605.007 588.386 605.007C585.809 605.007 585.319 603.921 586.235 600.599ZM600.546 586.692C599.95 584.201 599.29 580.879 599.204 579.218C599.119 577.216 598.459 577.557 597.373 580.219C594.626 586.607 595.137 591.101 598.544 591.101C600.951 591.101 601.441 589.951 600.61 586.692H600.546ZM614.431 600.599C611.428 589.44 614.005 569.315 618.414 569.315C620.501 569.315 621.076 573.383 621.076 587.204C621.076 601.004 620.501 605.007 618.414 605.007C616.838 605.007 615.091 603.006 614.431 600.599ZM627.081 587.204C627.081 569.315 627.081 569.315 636.047 569.315C643.714 569.315 645.289 570.06 647.291 574.468C649.037 578.216 649.037 580.453 647.461 583.029C646.12 585.202 645.95 587.608 647.036 589.354C647.951 590.866 648.782 595.105 648.782 598.682C648.867 608.074 642.287 606.754 640.881 597.106C640.306 592.613 638.709 589.951 636.473 589.525C633.64 589.035 632.98 590.356 632.98 596.936C632.98 602.75 632.15 605.007 629.978 605.007C627.571 605.007 627.081 601.664 627.081 587.204ZM640.54 578.791C639.625 572.232 632.98 571.636 632.98 578.132C632.98 581.965 634.066 583.2 637.133 583.2C640.221 583.2 641.052 582.114 640.54 578.791ZM654.532 595.594C654.106 590.44 654.106 582.369 654.447 577.791C655.022 569.4 655.107 569.315 662.603 569.315C671.505 569.315 675.147 572.892 674.316 580.623C673.826 584.627 671.91 587.033 667.246 589.206C662.007 591.612 660.857 593.273 660.857 598.597C660.771 609.331 655.362 606.753 654.532 595.594ZM666.671 582.199C668.672 579.878 668.672 578.622 666.671 576.3C662.837 571.636 660.771 572.722 660.771 579.218C660.771 585.777 662.837 586.863 666.671 582.199ZM681.727 601.919C676.978 597.191 677.404 574.979 682.153 570.635C691.885 561.904 700.361 569.4 700.361 586.692C700.361 600.002 697.358 605.007 689.458 605.007C686.881 605.007 683.388 603.58 681.642 601.919H681.727ZM694.036 590.355C694.867 580.303 693.035 573.297 689.628 573.297C684.964 573.297 682.558 587.694 685.795 596.02C688.137 602.175 693.376 598.512 694.036 590.355ZM706.345 587.204C706.345 569.315 706.345 569.315 715.247 569.315C722.829 569.315 724.575 570.06 726.406 574.064C727.897 577.301 727.897 579.963 726.556 582.369C725.406 584.541 725.32 588.204 726.321 591.931C729.068 601.514 728.557 605.412 724.66 604.667C722.317 604.177 720.827 601.6 720.166 597.106C719.485 592.613 717.909 589.951 715.673 589.525C712.84 589.035 712.265 590.356 712.265 596.936C712.265 602.75 711.435 605.007 709.263 605.007C706.856 605.007 706.26 601.664 706.26 587.204H706.345ZM720.166 579.452C720.166 575.725 715.673 572.552 713.416 574.809C710.583 577.642 712.415 583.2 716.248 583.2C718.825 583.2 720.166 581.879 720.166 579.452ZM738.055 589.206C738.055 574.639 737.715 573.297 734.052 573.297C731.879 573.297 730.069 572.382 730.069 571.317C730.069 570.231 734.967 569.315 741.037 569.315C751.855 569.315 756.008 572.552 747.937 574.724C744.444 575.64 743.954 577.386 743.954 590.355C743.954 602.089 743.379 605.007 740.952 605.007C738.63 605.007 738.055 601.919 738.055 589.206ZM447.725 563.735C448.3 562.244 448.726 560.754 448.726 560.242C448.726 559.838 450.472 559.412 452.453 559.412C455.455 559.412 458.607 562.905 458.607 566.227C458.607 566.567 455.945 566.738 452.708 566.568C448.556 566.398 447.043 565.567 447.725 563.735ZM803.094 546.017C803.69 541.608 803.69 541.608 478.583 541.608C282.51 541.608 153.476 542.354 153.476 543.44C153.476 544.441 154.072 546.677 154.733 548.36C155.819 551.256 185.676 551.511 479.158 551.022C802.434 550.51 802.434 550.51 803.094 546.017ZM381.75 531.216C382.261 527.468 383.751 526.637 390.737 526.148C399.127 525.551 399.212 525.466 399.212 517.736C399.212 509.92 399.213 509.92 409.115 509.92C419.018 509.92 419.018 509.92 419.018 496.354C419.018 484.535 418.443 482.299 414.034 478.231C407.049 471.566 407.709 468.329 416.1 468.329C424.597 468.329 426.919 463.665 426.919 447.033C426.919 438.301 425.918 434.638 422.02 429.484C414.695 419.986 415.525 418.837 429.41 418.496C436.246 418.325 439.973 417.835 437.822 417.409C434.415 416.749 433.819 414.833 433.329 404.355C432.988 395.773 431.668 390.385 428.92 386.637C423.171 378.906 423.852 377.82 435.33 376.074C441.719 375.073 444.062 374.157 441.315 373.646C436.992 372.9 434.905 369.237 438.823 369.237C442.891 369.237 440.889 354.182 435.821 347.452C430.667 340.467 429.41 336.314 432.988 338.55C434.16 339.296 437.247 339.295 439.824 338.72C443.807 337.72 444.722 335.888 445.808 326.73C446.98 317.509 446.554 315.081 442.976 310.588C437.396 303.454 437.737 301.856 444.893 301.856C449.045 301.856 452.964 299.94 456.946 295.873C462.526 290.378 463.931 289.974 477.582 289.974C489.806 289.974 492.468 290.548 494.13 293.636C496.642 298.279 506.864 302.602 512.103 301.282C517.257 299.94 517.257 303.773 512.103 310.354C508.036 315.593 507.376 320.832 509.441 331.395C510.442 336.314 511.933 337.975 516.341 338.891C523.007 340.211 523.582 343.384 518.088 348.453C509.867 355.843 514.595 377.074 524.498 377.138C531.334 377.138 531.398 379.14 524.753 386.956C520.174 392.45 519.685 394.452 520.43 404.845C521.26 416.174 521.09 416.579 516.192 417.324C513.445 417.835 517.172 418.325 524.498 418.496C531.909 418.581 537.893 419.582 537.893 420.583C537.893 421.562 535.742 424.991 533.08 428.143C529.161 432.722 528.161 436.384 527.82 447.203C527.245 462.834 530.333 468.329 539.81 468.329C547.306 468.329 547.306 469.649 539.98 478.295C534.89 484.215 534.059 486.707 533.995 497.441C533.995 509.665 533.996 509.664 545.304 510.324C556.527 510.921 556.697 511.006 556.697 516.82C556.697 522.804 556.698 522.804 480.905 523.315C414.695 523.72 405.133 523.486 405.133 520.824C405.133 518.226 414.95 517.821 478.924 517.331L552.779 516.82L478.157 516.33C403.621 515.819 403.621 515.819 402.641 520.824C401.725 525.722 401.725 525.722 487.655 525.722C573.585 525.722 573.585 525.722 573.585 530.705C573.585 535.624 573.585 535.625 689.458 535.625C801.028 535.625 805.436 535.54 805.436 531.962C805.436 528.874 803.179 528.128 790.209 527.063C781.883 526.297 767.827 525.722 759.011 525.722H742.953V484.62C742.868 453.016 742.038 440.133 739.461 428.974C720.081 346.11 670.738 283.073 596.117 245.954L576.077 235.988L582.807 219.185C586.555 209.943 591.794 196.718 594.37 189.733L599.119 177.083L576.993 170.183C539.81 158.704 522.176 156.191 477.497 156.276C433.073 156.276 417.527 158.534 379.918 170.183L357.706 177.083L361.369 186.474C363.456 191.649 368.269 203.873 372.188 213.691C376.085 223.508 379.514 232.495 379.833 233.73C380.089 234.986 370.931 240.801 359.367 246.7C330.596 261.436 309.705 276.983 286.343 300.941C235.424 353.265 210.72 417.75 213.702 490.114C214.298 504.766 215.384 518.822 216.129 521.314C217.365 525.637 217.045 525.722 200.818 525.722C191.66 525.807 176.859 526.382 167.872 527.063C153.732 528.128 151.559 528.81 151.559 531.962C151.559 535.54 155.904 535.625 266.282 535.625C381.089 535.625 381.089 535.625 381.75 531.216ZM464.613 284.969C464.613 283.308 465.933 281.391 467.509 280.731C469.34 280.07 470.512 277.068 470.512 273.001C470.512 269.423 471.428 265.845 472.514 265.185C473.6 264.503 474.516 258.263 474.516 251.278C474.516 244.378 475.431 238.139 476.496 237.479C477.668 236.733 478.413 239.566 478.413 244.634C478.413 253.941 483.822 277.984 486.569 280.987C491.233 285.885 488.145 287.972 476.496 287.972C467.105 287.972 464.613 287.311 464.613 284.969ZM480.99 278.729C479.669 278.239 476.922 278.154 475.005 278.644C473.089 279.155 474.175 279.645 477.497 279.645C480.755 279.73 482.331 279.325 480.99 278.729ZM391.822 215.607C392.483 213.435 393.484 209.772 394.144 207.366C395.145 204.044 393.973 201.957 389.16 198.464C382.921 193.885 382.921 193.885 391.482 192.884C399.553 191.968 400.213 191.393 402.385 183.982C404.877 175.421 404.792 175.422 410.116 190.393C410.627 191.798 414.524 192.885 419.444 192.97C427.515 192.97 427.749 193.14 424.001 196.058C421.765 197.719 418.762 199.784 417.186 200.7C415.036 201.956 414.865 203.873 416.526 210.432C418.933 219.93 418.762 220.016 411.117 214.436C405.303 210.028 403.557 210.198 395.486 216.012C390.907 219.334 390.822 219.334 391.822 215.607ZM460.609 217.183C460.694 216.353 461.951 211.434 463.527 206.28C466.359 196.973 466.359 196.973 458.032 189.967L449.705 183.066L460.205 182.981C468.34 182.981 470.938 182.151 471.854 179.489C472.514 177.572 474.43 172.93 476.006 169.097C478.924 162.197 478.924 162.197 482.331 172.099C485.738 181.981 485.739 181.98 497.217 182.981L508.696 183.982L499.624 190.393C490.637 196.888 490.637 196.888 493.639 205.875C497.558 217.183 496.301 218.419 487.825 211.859C479.328 205.449 478.839 205.449 468.851 212.69C464.357 215.927 460.609 218.014 460.609 217.183ZM539.895 216.928C539.895 215.842 540.81 212.434 541.982 209.368C543.877 204.363 543.473 203.362 537.552 198.464L530.993 192.97L539.234 192.884C547.135 192.884 547.54 192.565 550.287 184.494L553.205 175.996L555.782 184.494C558.273 192.565 558.614 192.884 566.43 192.884L574.586 192.97L568.261 198.379C563.342 202.617 562.426 204.618 563.683 207.685C564.598 209.942 565.429 213.35 565.514 215.267C565.599 218.674 565.259 218.589 559.849 214.755C556.698 212.519 553.524 210.688 552.779 210.688C552.034 210.688 548.797 212.519 545.624 214.755C542.472 217.098 539.895 218.014 539.895 216.928ZM137.675 522.804C137.675 520.227 130.689 519.823 87.1814 519.823C43.1835 519.823 36.8587 520.142 37.8596 522.804C38.8605 525.317 46.3352 525.722 88.3525 525.722C130.86 525.722 137.675 525.317 137.675 522.804ZM918.306 522.804C918.306 520.227 911.491 519.823 868.814 519.823C826.051 519.823 819.236 520.227 819.236 522.804C819.236 525.317 826.051 525.722 868.814 525.722C911.491 525.722 918.306 525.317 918.306 522.804ZM209.719 512.412C207.057 496.269 208.143 454.508 211.721 434.638C218.962 394.367 235.999 354.607 259.723 323.067C284 290.633 327.253 255.197 361.795 239.395L374.594 233.475L352.808 179.404L341.819 184.238C275.844 213.18 215.618 271.34 181.268 339.466C158.31 384.891 145 450.184 148.493 500.507L149.898 521.803H211.21L209.719 512.412ZM157.48 480.957C157.48 447.117 160.227 426.056 168.618 395.943C191 316.167 245.156 247.551 319.522 205.023C344.567 190.648 344.566 190.648 352.638 209.687C356.386 218.418 359.453 226.66 359.453 228.002C359.538 229.322 354.874 232.815 349.145 235.732C296.991 262.097 250.48 309.694 225.691 362.018C207.057 401.523 201.158 426.737 199.646 473.738L198.582 509.92H188.423C182.844 509.92 173.622 510.495 167.872 511.155L157.48 512.412V480.957ZM195.067 502.935C195.067 500.592 192.086 500.018 180.097 500.018C165.125 500.018 165.125 500.017 165.785 491.541C166.382 483.129 166.382 483.13 179.777 482.555C189.509 482.129 193.172 481.213 193.172 479.296C193.172 475.484 191.256 475.143 175.369 475.888L161.377 476.549V505.916H178.265C191.916 505.916 195.067 505.341 195.067 502.935ZM193.172 492.031C193.172 488.624 191.831 488.113 182.269 488.113C172.621 488.113 171.365 488.624 171.365 492.031C171.365 495.524 172.621 496.035 182.269 496.035C191.831 496.035 193.172 495.524 193.172 492.031ZM193.172 468.329C193.172 464.751 191.831 464.325 180.267 464.325C167.383 464.325 167.383 464.325 167.383 456.51C167.383 446.607 171.365 418.24 173.026 416.408C173.772 415.663 180.011 416.408 186.933 417.984C199.987 420.987 202.223 420.731 200.562 416.323C199.561 413.832 172.11 405.441 170.449 407.102C169.299 408.252 163.89 441.453 162.293 456.68C160.802 471.992 160.398 471.651 180.778 472.077C191.916 472.226 193.172 471.821 193.172 468.329ZM194.748 452.932C194.152 445.691 193.918 445.521 184.271 444.115C178.861 443.37 174.283 442.943 174.112 443.114C174.027 443.369 173.282 447.266 172.621 451.93C171.28 460.342 171.28 460.343 183.355 460.343C195.323 460.343 195.323 460.343 194.748 452.932ZM197.155 437.045C197.155 435.213 197.666 431.806 198.241 429.548C199.156 425.97 197.985 425.14 188.913 423.074C177.2 420.327 176.284 420.817 174.687 431.06C173.452 439.132 174.538 439.706 189.68 440.281C195.494 440.452 197.069 439.792 197.155 437.045ZM203.65 406.102C204.395 404.185 200.562 402.183 190.169 399.201C172.621 394.112 173.282 394.111 173.282 398.52C173.282 401.182 176.199 402.864 184.675 405.186C199.561 409.253 202.393 409.424 203.65 406.102ZM206.972 394.196C206.972 392.791 201.563 390.044 195.004 388.042C188.423 386.04 182.673 383.889 182.354 383.229C181.268 381.568 191.341 357.355 193.087 357.355C193.917 357.355 199.561 359.505 205.567 362.167C211.551 364.829 217.045 366.426 217.705 365.83C220.942 362.508 217.705 359.356 205.141 353.862L191.49 347.792L187.081 358.015C181.928 370.005 175.028 389.469 175.773 390.129C177.349 391.535 204.225 398.286 205.481 397.54C206.312 397.114 206.972 395.623 206.972 394.196ZM211.721 382.314C212.381 379.652 213.467 376.159 214.042 374.476C214.873 372.411 212.552 370.324 205.886 367.406C200.818 365.17 195.983 363.253 195.323 363.253C194.578 363.253 192.491 367.257 190.745 372.07C187.422 380.886 187.422 380.887 195.749 383.804C207.547 387.957 210.379 387.723 211.721 382.314ZM224.35 351.86C224.776 350.604 218.791 346.451 211.125 342.532C203.394 338.635 197.07 335.888 197.07 336.314C197.07 336.804 196.58 338.635 195.92 340.296C195.004 342.618 197.815 344.96 207.313 349.369C220.112 355.438 223.029 355.843 224.35 351.86ZM230.355 341.127C230.675 339.381 228.013 336.889 223.434 334.802C207.717 327.561 207.632 327.412 215.874 313.847C219.878 307.266 224.286 301.856 225.691 301.856C227.097 301.856 232.421 305.115 237.596 309.012C243.985 313.931 247.648 315.507 248.989 314.166C251.822 311.355 250.48 309.694 237.596 299.791C231.505 295.042 225.862 292.039 225.202 293.04C218.11 302.687 201.073 329.563 201.073 330.99C201.073 333.141 225.031 345.364 227.779 344.619C228.929 344.363 230.014 342.788 230.355 341.127ZM239.406 327.646C244.666 319.745 244.666 319.746 236.425 313.761C231.931 310.524 227.438 307.777 226.522 307.777C224.861 307.777 214.128 323.664 215.299 324.495C216.13 325.155 233.678 335.462 234.018 335.547C234.082 335.547 236.595 331.969 239.406 327.646ZM257.146 303.113C257.721 301.537 253.717 296.703 247.243 291.208C235.424 281.306 233.763 280.561 232.101 284.82C231.101 287.482 236.254 293.125 247.392 301.537C254.058 306.521 255.719 306.776 257.146 303.113ZM257.806 282.307L248.308 272.659L258.807 262.267L269.37 251.875L278.591 261.926C286.428 270.423 288.238 271.573 290.24 269.082C292.242 266.675 290.985 264.269 283.34 255.282C278.272 249.298 273.267 244.378 272.437 244.378C271.521 244.378 263.364 251.619 254.313 260.436L237.916 276.493L249.735 287.056C259.957 296.213 261.873 297.214 264.365 294.786C266.942 292.295 266.111 290.719 257.806 282.307ZM277.59 281.732L284 275.577L269.54 258.263L254.548 272.915L261.874 280.475C265.963 284.564 269.689 287.972 270.2 287.972C270.775 287.972 274.097 285.139 277.59 281.732ZM299.057 257.284C298.056 255.772 294.478 250.789 291.326 246.295C285.427 238.054 285.427 238.053 290.325 234.241C296.821 229.152 323.696 212.69 325.443 212.69C326.273 212.69 329.425 217.588 332.577 223.593C338.327 234.646 340.989 236.733 342.905 231.728C343.991 229.066 332.918 204.789 330.682 204.789C328.339 204.789 302.464 220.676 289.665 230.067L276.185 239.885L286.492 252.109C293.733 260.606 297.481 263.673 298.971 262.182C300.313 260.862 300.398 259.179 299.057 257.284ZM311.621 253.195C316.03 250.128 316.03 250.128 309.96 241.312C303.146 231.409 302.315 231.068 296.309 235.988C291.986 239.48 291.986 239.48 298.226 247.871C305.211 257.347 305.467 257.433 311.621 253.195ZM327.104 242.228C330.831 239.97 333.833 237.734 333.833 237.223C333.833 236.307 325.847 220.165 324.846 219.015C324.527 218.589 321.78 219.675 318.607 221.421C306.872 227.746 306.958 227.405 313.197 237.223C316.371 242.291 319.267 246.38 319.693 246.38C320.119 246.38 323.441 244.549 327.104 242.228ZM353.639 226.916C353.639 224.254 342.991 198.783 341.904 198.868C341.244 198.868 339.583 199.635 338.242 200.466C334.834 202.617 347.399 230.408 351.147 228.981C352.553 228.491 353.639 227.576 353.639 226.916ZM808.098 509.579C810.994 481.809 807.502 436.789 800.262 407.848C776.389 312.675 714.842 235.157 627.656 190.478C617.413 185.239 607.851 181.001 606.445 181.001C603.953 181.001 581.912 231.729 583.722 233.326C584.148 233.73 590.729 237.138 598.459 241.056C645.545 264.589 691.204 307.351 715.332 350.369C739.951 394.367 752.771 452.591 748.533 500.592C747.532 511.24 747.191 520.398 747.702 520.887C748.192 521.398 761.673 521.803 777.73 521.803H806.842L808.098 509.579ZM774.472 510.41L758.35 509.75L757.264 473.653C756.093 433.211 751.77 411 738.886 378.736C715.247 319.66 669.822 269.252 612.685 238.48C604.273 233.901 597.373 229.833 597.373 229.407C597.373 225.915 612.089 192.884 613.601 192.884C618.009 192.884 655.192 215.351 673.741 229.151C733.711 273.831 778.646 344.619 794.362 418.751C798.515 438.621 802.433 490.711 800.687 502.423C799.431 510.58 798.6 511.837 794.873 511.496C792.445 511.241 783.31 510.75 774.472 510.41ZM795.533 505.916V476.23H779.646C766.826 476.23 763.759 476.804 763.759 479.211C763.759 480.808 765.591 482.128 767.742 482.128C769.914 482.128 771.746 483.044 771.746 484.131C771.746 485.217 769.914 486.132 767.742 486.132C764.825 486.132 763.759 487.453 763.759 491.116C763.759 495.78 764.42 496.035 774.727 496.035C786.632 496.035 791.445 491.861 784.885 487.133C780.307 483.704 780.797 482.128 786.547 482.128C791.125 482.128 791.53 482.874 791.53 490.945C791.53 499.847 791.53 499.847 777.304 500.443C768.168 500.763 762.844 501.848 762.333 503.424C761.673 505.341 765.74 505.916 778.475 505.916H795.533ZM794.703 456.935C794.021 448.438 791.956 433.722 790.124 424.075C787.121 408.188 786.461 406.676 782.713 407.592C780.477 408.103 773.492 409.679 767.252 411.084C758.67 413.086 755.838 414.577 755.838 417.239C755.838 421.413 755.774 421.413 770.745 417.836C777.219 416.323 783.139 415.663 783.884 416.408C784.971 417.58 791.53 456.85 791.53 462.259C791.53 463.494 786.121 464.325 777.645 464.325C765.08 464.325 763.759 464.751 763.759 468.329C763.759 471.906 765.08 472.226 779.881 472.226H796.023L794.703 456.935ZM785.546 452.932C785.546 442.454 784.055 441.282 772.236 442.113C761.843 442.943 761.843 442.944 761.843 451.611C761.843 460.343 761.843 460.343 773.726 460.343C785.546 460.343 785.546 460.343 785.546 452.932ZM775.984 437.3C783.139 436.129 783.224 435.958 782.138 428.888C781.563 424.991 780.796 421.413 780.477 421.073C780.221 420.647 774.898 421.413 768.743 422.733C758.585 424.82 757.605 425.481 758.585 429.314C759.266 431.721 759.756 434.724 759.841 436.129C759.841 438.791 764.824 439.217 775.984 437.3ZM770.404 405.675C785.205 401.863 785.716 401.608 784.225 397.689C782.969 394.452 781.712 394.623 762.418 400.202C754.943 402.353 752.43 403.929 753.176 406.016C754.603 409.594 755.518 409.594 770.404 405.675ZM780.222 389.128C782.394 387.127 762.163 337.89 756.754 331.82C755.604 330.649 730.133 345.535 730.133 347.367C730.133 351.434 733.967 350.859 744.529 345.279L755.773 339.381L760.587 348.857C763.163 354.096 767.572 363.829 770.319 370.665L775.323 382.889L764.505 386.956C758.585 389.213 752.856 391.045 751.855 391.045C749.768 391.045 749.193 395.624 751.025 397.37C752.281 398.605 777.815 391.45 780.222 389.128ZM759.756 383.719C769.233 380.397 769.233 380.397 765.336 370.984C761.417 361.677 761.417 361.677 751.77 365.915C740.866 370.749 740.866 370.749 744.87 380.141C748.192 388.127 747.617 388.042 759.756 383.719ZM750.599 361.251C759.181 357.439 759.586 356.929 757.435 352.286C754.687 346.28 752.43 346.195 742.463 351.86C735.542 355.843 734.882 356.844 736.629 360.762C739.035 366.256 739.291 366.256 750.599 361.251ZM751.6 323.067C747.191 314.762 730.559 290.974 726.811 287.545C723.148 284.308 722.488 284.564 711.584 293.125C700.106 302.112 698.04 307.266 706.175 306.265C709.753 305.945 710.349 306.52 709.348 309.757C708.177 313.186 718.335 331.565 721.317 331.565C721.743 331.565 726.151 329.073 731.049 326.071L739.951 320.491L732.88 310.013C727.471 302.027 724.894 299.706 721.998 300.451C717.164 301.772 717.164 299.45 721.913 295.127C725.49 291.89 726.066 292.294 734.797 304.604C739.866 311.674 744.444 318.659 745.04 320.086C745.615 321.662 741.782 325.24 735.052 329.222C729.068 332.8 724.149 336.463 724.149 337.293C724.149 341.382 727.727 340.722 740.291 334.397C753.176 327.902 753.857 327.242 751.6 323.067ZM712.5 270.424C705.43 262.012 676.488 235.988 673.081 235.072C670.994 234.476 656.363 253.94 656.023 257.688C655.597 263.928 659.941 261.841 667.586 252.194C671.824 246.785 675.977 242.547 676.829 242.888C680.47 244.123 710.264 272.66 710.264 274.832C710.264 276.152 706.26 281.157 701.447 285.97C694.611 292.635 693.035 295.212 694.696 297.214C696.443 299.28 699.275 297.789 708.603 289.718L720.251 279.645L712.5 270.424ZM697.359 283.819C705.771 276.408 705.941 274.406 698.785 267.506C691.459 260.521 690.288 260.777 682.643 270.339C676.147 278.41 676.147 278.409 681.727 284.138C688.542 291.294 688.797 291.294 697.359 283.819ZM680.471 266.015C686.966 257.944 686.966 257.944 682.217 252.939C677.574 247.956 677.574 247.956 670.078 256.453C662.603 264.844 662.603 264.844 667.011 269.508C672.655 275.492 672.825 275.492 680.471 266.015ZM663.178 227.171C656.278 221.677 626.996 204.107 626.165 205.023C625.079 206.279 613.175 230.323 613.175 231.409C613.175 231.899 614.921 233.325 617.008 234.39C620.33 236.222 621.672 235.072 627.081 225.574C630.488 219.589 633.896 214.692 634.641 214.692C635.727 214.692 655.107 226.916 658.514 229.748C658.94 230.067 656.023 234.817 652.104 240.311C644.289 251.129 643.543 253.536 647.376 254.771C648.697 255.282 654.021 250.214 659.175 243.633C668.588 231.58 668.587 231.579 663.178 227.171ZM646.695 239.629C652.786 230.898 652.785 230.898 648.292 228.065C635.812 219.93 635.727 219.93 630.063 229.748C627.166 234.646 625.079 238.969 625.399 239.225C625.74 239.48 628.657 241.631 631.809 244.037C639.476 249.787 639.795 249.702 646.695 239.629ZM619.18 200.785C615.347 198.464 614.601 199.38 608.277 214.436C604.039 224.573 603.527 227.491 605.615 228.747C607.531 229.982 610.108 226.66 615.177 216.523C620.99 204.789 621.586 202.297 619.18 200.785ZM91.5897 513.902C134.352 513.817 135.673 513.753 135.673 509.92C135.673 506.002 134.352 505.916 86.0954 505.916C39.4355 505.916 36.603 506.172 36.603 509.579C36.603 514.584 38.7753 516.245 43.5031 514.988C45.6753 514.413 67.2908 513.902 91.5897 513.902ZM920.308 509.92C920.308 506.002 918.987 505.916 870.815 505.916C822.558 505.916 821.238 506.002 821.238 509.92C821.238 513.753 822.558 513.817 870.815 513.817C918.987 513.817 920.308 513.753 920.308 509.92ZM444.807 505.086C444.807 498.271 442.806 494.033 439.569 494.033C437.737 494.033 436.821 496.525 436.821 502.019C436.821 508.578 437.482 509.92 440.825 509.92C443.636 509.92 444.807 508.578 444.807 505.086ZM484.397 501.359C484.397 492.287 481.82 488.113 476.177 488.113C471.598 488.113 468.51 494.033 468.51 502.85C468.51 509.75 468.766 509.92 476.496 509.92C484.397 509.92 484.397 509.92 484.397 501.359ZM518.088 501.849C518.088 495.183 517.427 493.862 514.595 494.437C512.189 494.863 510.932 497.27 510.527 502.509C510.038 508.834 510.527 509.92 514.02 509.92C517.427 509.92 518.088 508.664 518.088 501.849ZM135.673 496.035C135.673 492.202 134.352 492.031 88.0971 492.031C61.9667 492.031 39.8401 491.861 39.0948 491.541C38.2642 491.286 37.2633 493.118 36.9439 495.524C36.2624 500.018 36.2621 500.018 86.0099 500.018C134.352 500.018 135.673 499.847 135.673 496.035ZM920.308 496.035C920.308 492.202 918.987 492.031 870.815 492.031C822.558 492.031 821.238 492.202 821.238 496.035C821.238 499.847 822.558 500.018 870.815 500.018C918.987 500.018 920.308 499.847 920.308 496.035ZM135.673 481.127C135.673 476.229 135.673 476.23 86.0954 476.23C36.6031 476.23 36.603 476.229 36.603 481.127C36.603 486.132 36.6031 486.132 86.0954 486.132C135.673 486.132 135.673 486.132 135.673 481.127ZM921.969 481.639C921.309 477.231 921.309 477.23 871.305 476.634C821.238 476.144 821.238 476.144 821.238 481.127C821.238 486.132 821.238 486.132 871.901 486.132C922.565 486.132 922.565 486.132 921.969 481.639ZM436.332 472.822C432.243 472.396 425.598 472.396 421.51 472.822C417.442 473.227 420.764 473.568 428.92 473.568C437.077 473.568 440.399 473.227 436.332 472.822ZM532.484 472.822C527.82 472.396 520.26 472.396 515.596 472.822C510.932 473.227 514.765 473.568 524.008 473.568C533.314 473.568 537.062 473.227 532.484 472.822ZM135.673 467.328C135.673 462.323 135.673 462.323 86.0954 462.323C36.6031 462.323 36.603 462.323 36.603 467.328C36.603 472.226 36.6031 472.226 86.0954 472.226C135.673 472.226 135.673 472.226 135.673 467.328ZM489.806 470.82C482.502 470.395 470.427 470.395 463.101 470.82C455.711 471.161 461.781 471.48 476.496 471.48C491.148 471.48 497.217 471.161 489.806 470.82ZM921.969 467.817C921.309 463.324 921.309 463.324 871.305 462.834C821.238 462.259 821.238 462.259 821.238 467.243C821.238 472.226 821.238 472.226 871.901 472.226C922.565 472.226 922.565 472.226 921.969 467.817ZM451.217 464.921C448.811 464.41 444.318 464.41 441.315 464.921C438.312 465.326 440.314 465.752 445.723 465.752C451.218 465.752 453.709 465.411 451.217 464.921ZM511.698 464.921C509.782 464.41 506.204 464.41 503.712 464.921C501.285 465.411 502.797 465.752 507.205 465.837C511.528 465.837 513.53 465.411 511.698 464.921ZM452.219 458.915C449.216 458.511 443.892 458.511 440.314 458.915C436.821 459.341 439.228 459.746 445.723 459.746C452.304 459.746 455.2 459.427 452.219 458.915ZM515.596 458.915C512.7 458.511 507.29 458.511 503.798 458.915C500.22 459.341 502.627 459.746 509.186 459.746C515.681 459.746 518.599 459.427 515.596 458.915ZM137.099 455.019C138.1 452.101 113.631 451.1 66.8009 452.015C41.8419 452.527 36.603 453.102 36.603 455.508C36.603 459.427 135.843 458.916 137.099 455.019ZM920.308 455.423C920.308 452.846 913.408 452.442 869.814 452.442C823.644 452.442 816.659 453.102 820.578 457.084C821.323 457.766 844.025 458.341 871.156 458.341C913.493 458.341 920.308 458 920.308 455.423ZM446.724 448.438C446.724 444.54 445.723 442.539 443.807 442.539C441.805 442.539 440.825 444.54 440.825 448.438C440.825 452.441 441.805 454.422 443.807 454.422C445.723 454.422 446.724 452.441 446.724 448.438ZM513.764 449.098C512.849 441.367 508.206 440.707 508.206 448.267C508.206 452.527 509.122 454.422 511.273 454.422C513.53 454.422 514.19 452.846 513.764 449.098ZM482.076 446.032C481.586 441.112 480.5 439.536 477.497 439.536C474.43 439.536 473.344 441.112 472.833 446.032C472.343 451.76 472.769 452.442 477.497 452.442C482.161 452.442 482.565 451.76 482.076 446.032ZM139.591 434.553C139.591 416.664 154.733 366.575 169.299 336.463C191.575 290.293 244.24 225.574 259.467 225.574C262.044 225.574 263.3 224.424 262.96 222.252C261.959 216.268 300.143 190.222 331.171 175.677C376.021 154.786 451.878 137.323 461.951 145.628C464.528 147.715 465.443 147.715 466.104 145.798C468.276 139.324 529.076 144.478 566.6 154.211C691.949 186.9 791.7 293.381 815.254 419.731C819.662 443.369 812.251 440.537 869.644 440.537H919.988L919.072 432.146C904.016 293.636 824.07 167.755 707.346 98.7977C633.64 55.2045 562.192 35.6546 477.497 35.825C369.185 36.0806 271.116 72.6038 188.168 143.733C115.463 206.024 63.7981 294.382 44.7594 389.043C42.6723 399.351 40.3513 413.661 39.6059 420.732C38.8606 427.802 37.8596 435.128 37.2633 437.045C36.3476 440.282 39.7549 440.537 88.0119 440.537C139.591 440.537 139.591 440.537 139.591 434.553ZM101.982 388.042C101.982 383.804 102.898 383.059 107.988 383.059C114.717 383.059 117.635 378.736 113.802 374.157C110.224 369.749 106.902 370.494 98.8303 377.565C90.4183 384.976 80.6862 385.976 74.2121 380.141C64.7992 371.58 74.297 350.603 86.0099 354.266C91.6747 356.098 90.5036 361.762 84.1148 363.253C80.9416 363.998 79.1953 365.83 79.1953 368.322C79.1953 374.476 86.5213 373.987 94.912 367.342C104.325 359.846 113.312 359.356 119.466 365.83C128.688 375.648 121.873 392.962 108.733 392.962C102.813 392.962 101.982 392.365 101.982 388.042ZM825.966 370.323C824.22 365.66 826.136 364.254 840.958 359.356C848.603 356.758 854.502 354.267 854.013 353.777C853.438 353.181 846.282 353.947 837.955 355.267C822.324 357.759 817.575 356.609 819.811 350.774C820.408 349.283 827.882 343.874 836.379 338.806C844.855 333.716 851.265 329.563 850.52 329.563C849.86 329.563 841.938 332.225 833.121 335.547C824.22 338.805 816.169 340.957 815.168 340.382C811.591 338.124 813.337 332.054 817.745 331.053C820.237 330.478 831.056 326.816 841.938 322.919C852.757 318.915 862.254 315.678 863 315.678C864.576 315.678 869.73 327.412 868.558 328.391C868.154 328.732 861.338 332.8 853.352 337.464C845.452 342.127 839.361 346.366 839.787 346.792C840.277 347.281 845.856 346.706 852.096 345.535C870.155 342.213 873.818 342.703 876.48 348.708C877.8 351.604 878.226 354.693 877.311 355.523C875.628 357.184 831.631 373.156 828.798 373.156C827.797 373.156 826.562 371.899 825.966 370.323ZM107.902 350.518C101.897 348.027 93.996 343.129 90.3331 339.806C84.5192 334.482 83.7741 332.736 84.9454 327.242C87.9268 312.015 100.981 309.758 123.193 320.832C140.251 329.393 144.17 340.871 133.607 351.434C128.517 356.524 121.383 356.268 107.902 350.518ZM129.113 342.213C131.115 336.889 127.538 333.566 113.312 327.476C98.9156 321.406 93.5062 321.577 94.422 328.328C94.8266 331.224 98.9155 334.546 107.732 338.976C121.873 346.195 127.282 346.962 129.113 342.213ZM807.672 324.239C806.096 321.491 806.586 319.66 809.844 316.253C813.337 312.504 813.572 311.014 811.74 306.947C809.845 302.773 808.588 302.198 802.859 303.199C797.599 304.029 795.768 303.454 794.788 300.792C794.021 298.875 793.787 296.958 794.192 296.532C794.874 295.872 824.07 287.972 842.619 283.478C846.027 282.648 847.688 283.563 849.775 287.631C852.522 292.869 852.266 293.125 832.717 309.757C809.844 329.222 810.334 328.988 807.672 324.239ZM830.374 300.622C838.786 294.126 837.955 292.87 827.392 296.043C819.811 298.364 817.404 301.281 820.578 304.433C822.473 306.435 822.899 306.265 830.374 300.622ZM127.772 312.271C114.888 305.605 103.984 295.787 103.984 290.719C103.984 288.632 105.73 284.053 107.988 280.411C111.629 274.491 112.716 273.916 120.382 274.491C127.197 275.002 128.688 275.833 128.688 279.07C128.688 281.902 127.282 283.073 123.789 283.307C121.042 283.478 117.72 283.734 116.293 283.819C114.973 283.904 113.887 285.8 113.887 287.972C113.887 292.636 131.52 305.115 140.848 306.947C149.153 308.608 151.325 303.369 144.745 297.214C140.507 293.296 140.251 292.295 142.594 288.057C145.086 283.223 145.085 283.222 151.325 289.377C159.056 297.214 159.545 305.861 152.56 312.846C146.321 319.085 140.912 319 127.772 312.271ZM787.292 287.141C785.205 282.563 785.971 280.987 796.534 267.932C802.923 260.01 806.842 254.366 805.266 255.282C803.69 256.198 797.365 260.35 791.125 264.503C784.971 268.677 778.965 272.085 777.985 272.085C776.239 272.085 772.896 266.186 774.152 265.185C774.472 264.929 784.225 258.263 795.938 250.277C813.742 238.224 817.66 236.307 820.237 238.394C824.731 242.228 824.07 244.293 813.337 258.114C807.843 265.1 803.434 271.169 803.434 271.51C803.434 271.914 809.333 268.166 816.659 263.353C826.732 256.603 830.544 254.941 832.546 256.602C833.952 257.773 835.123 259.434 835.123 260.265C835.123 261.436 804.606 282.989 792.041 290.634C790.444 291.635 788.698 290.378 787.292 287.141ZM145.085 273.66C123.704 259.115 122.278 257.688 125.706 252.364C127.112 250.043 131.605 252.279 149.323 264.269C161.377 272.426 171.195 279.56 171.28 280.156C171.28 280.731 170.194 282.818 168.788 284.735C166.552 287.801 164.465 286.8 145.085 273.66ZM157.799 252.109C141.912 230.983 141.423 229.982 144.745 226.404C146.576 224.253 148.834 222.593 149.664 222.593C150.41 222.593 161.888 227.746 175.113 234.071C198.986 245.465 199.156 245.635 195.153 249.298C191.745 252.365 190.34 252.535 186.017 250.618C181.609 248.531 180.437 248.872 177.285 252.79C173.857 257.028 173.857 257.348 177.285 262.267C180.267 266.335 180.437 267.847 178.35 270.658C176.945 272.574 175.518 274.087 175.028 274.087C174.623 274.087 166.871 264.184 157.799 252.109ZM172.621 243.143C172.451 242.973 168.384 240.886 163.549 238.48L154.818 234.071L161.313 242.291C167.298 249.873 168.043 250.213 170.364 246.955C171.791 244.953 172.856 243.292 172.621 243.143ZM760.182 249.958C758.925 248.616 757.84 246.87 757.84 246.124C757.84 245.123 783.97 222.593 791.36 217.269C791.786 216.928 790.614 214.926 788.698 212.86C784.971 208.771 785.887 204.789 790.529 204.789C792.041 204.789 797.365 209.772 802.348 215.926C810.76 226.255 811.165 227.235 807.928 229.748C804.84 231.984 803.924 231.814 801.092 228.492C797.94 224.744 797.45 224.999 780.967 238.48C762.163 253.855 763.504 253.195 760.182 249.958ZM181.609 221.996C164.039 204.363 163.379 203.362 166.872 200.21C170.364 197.122 171.365 197.719 186.166 212.69L201.904 228.492L208.314 222.252C213.702 217.098 215.299 216.438 217.791 218.503C220.367 220.676 219.707 222.252 212.552 230.727C208.058 236.051 203.394 240.396 202.138 240.396C200.988 240.396 191.746 232.154 181.609 221.996ZM737.459 224.999L728.152 215.522L746.531 197.292C756.604 187.241 765.74 178.999 766.912 178.999C767.998 178.999 772.811 182.982 777.645 187.901C785.886 196.292 786.206 197.037 783.054 200.21C779.881 203.362 779.306 203.213 773.066 197.207C766.656 190.967 766.337 190.882 763.164 194.46C758.755 199.294 758.926 200.615 764.825 206.769C769.318 211.518 769.574 212.349 766.741 214.692C764.079 216.843 762.759 216.353 757.754 211.604C751.855 205.939 751.855 205.939 746.446 211.263C741.122 216.587 741.122 216.587 747.532 223.168C752.43 228.236 753.346 230.238 751.515 232.069C748.022 235.562 747.703 235.392 737.459 224.999ZM207.142 198.294C190.084 179 189.509 177.913 192.661 174.421C195.983 170.758 196.239 170.843 202.074 177.487C205.311 181.235 213.553 190.563 220.282 198.123C232.187 211.518 232.421 212.094 228.758 215.267C225.116 218.333 224.115 217.588 207.142 198.294ZM716.248 205.79C713.671 202.617 717.419 197.463 740.632 171.929C749.023 162.772 749.853 162.367 753.026 165.434C756.178 168.607 755.347 169.927 738.971 188.732C729.387 199.699 720.912 208.686 720.081 208.686C719.336 208.686 717.59 207.366 716.248 205.79ZM230.526 196.803C225.947 192.97 225.862 192.799 229.674 189.903C232.272 187.901 234.167 187.56 235.509 188.902C238.576 191.969 246.072 191.224 247.392 187.646C249.735 181.662 244.815 178.999 231.505 178.999C216.449 178.999 210.976 175.081 210.976 164.262C210.976 152.209 224.435 145.479 234.423 152.464C241.003 157.043 236.68 161.685 227.353 159.939C221.028 158.789 220.538 159.023 221.198 163.346C221.773 167.691 222.859 168.181 234.763 168.67C250.65 169.437 256.55 173.846 256.55 185.154C256.55 198.549 240.833 205.62 230.526 196.803ZM695.697 189.136C693.866 187.241 692.46 184.813 692.46 183.812C692.375 179.744 713.416 135.491 715.077 135.981C721.487 138.153 720.997 143.562 712.5 160.621L703.939 177.999L717.824 164.603C732.646 150.377 733.477 149.887 738.545 153.699C741.377 155.871 739.866 157.874 725.81 170.098C698.04 194.141 699.445 193.31 695.697 189.136ZM262.704 160.11C250.651 140.986 249.65 139.985 245.326 143.563C242.75 145.714 241.749 145.543 239.406 142.306C236.829 138.813 237.66 137.897 250.054 129.911C263.13 121.521 263.45 121.436 265.281 125.589C266.793 128.911 266.452 130.253 263.875 131.743C258.892 134.491 259.467 136.322 271.691 155.702C280.593 169.842 282.339 173.76 280.103 175.166C274.928 178.403 273.352 177.083 262.704 160.11ZM644.288 156.958C640.476 154.786 640.306 155.297 661.176 118.028L667.011 107.529L678.724 114.025C691.289 120.925 691.374 121.01 688.457 125.504C686.796 128.08 685.56 127.91 678.81 124.247C671.079 120.094 671.079 120.094 668.843 124.843C665.755 131.743 666.011 132.659 672.655 135.406C679.065 138.068 679.491 138.813 676.658 143.221C675.082 145.798 673.911 145.713 667.927 142.817C660.92 139.474 660.92 139.473 655.533 149.376C649.783 159.939 649.613 160.11 644.288 156.958ZM306.723 143.797C303.891 137.557 299.142 126.675 296.075 119.519L290.496 106.699L298.482 103.206C312.707 96.9662 315.369 96.8816 320.864 102.461C324.271 105.869 325.847 109.617 325.847 114.28C325.847 118.029 327.189 122.096 328.765 123.416C330.426 124.758 333.918 129.827 336.666 134.661C341.564 143.563 341.564 143.563 337.156 145.224C332.428 147.055 331.342 146.139 325.443 135.577C322.27 129.827 315.54 127.335 313.197 130.998C312.708 131.914 314.028 136.492 316.2 141.305C320.353 150.633 319.948 155.212 314.943 155.212C313.048 155.212 309.79 150.803 306.723 143.797ZM314.795 120.52C318.436 116.772 316.2 108.956 311.046 107.956C305.296 106.784 303.231 110.702 306.042 117.432C308.874 124.247 310.386 124.843 314.795 120.52ZM614.836 144.223C605.189 138.984 605.189 129.166 614.836 109.872C622.162 94.9648 628.401 90.6418 637.814 93.7297C650.528 97.9676 652.19 108.36 643.203 128.251C634.982 146.225 626.911 150.803 614.836 144.223ZM627.571 135.896C631.979 130.998 638.964 114.195 638.964 108.445C638.964 101.375 633.236 100.054 628.231 105.868C621.672 113.599 615.922 132.574 619.095 136.322C622.332 140.219 623.738 140.155 627.571 135.896ZM340.904 116.112C336.666 103.292 332.918 91.8126 332.428 90.6413C331.597 88.2349 354.789 81.165 357.706 82.9965C361.859 85.5733 359.133 89.8112 351.807 91.9834C344.396 94.2195 344.141 94.5602 346.057 99.9695C347.718 104.719 348.89 105.464 352.893 104.463C362.029 102.12 364.521 102.631 364.521 106.528C364.521 108.956 362.455 110.937 358.537 112.194C350.721 114.77 350.891 114.366 353.468 122.181C355.79 129.081 355.79 129.081 363.776 125.929C370.697 123.267 372.017 123.182 373.508 125.589C376.425 130.167 374.765 131.914 364.372 135.577C348.634 141.135 349.316 141.731 340.904 116.112ZM378.342 114.195C376.511 105.698 373.849 94.0705 372.443 88.3205C369.44 76.1817 369.611 75.926 385.242 74.5204C396.146 73.5195 396.976 73.7538 400.384 78.9288C407.795 90.3222 402.471 105.698 391.077 105.698C386.733 105.698 386.499 107.614 389.395 118.262C391.823 126.76 391.908 126.504 385.988 128.336C382.005 129.507 381.409 128.506 378.342 114.195ZM392.227 89.8108C392.227 83.7414 391.652 82.9114 387.329 82.9114C383.006 82.9114 382.41 83.6563 383.091 88.8099C383.922 96.5617 384.987 98.138 388.99 97.3075C391.311 96.8816 392.227 94.645 392.227 89.8108ZM559.7 126.909C551.863 122.926 550.713 116.197 554.781 98.8835C559.359 79.2484 563.427 74.009 573.755 74.009C583.722 74.009 589.387 79.3331 589.387 88.8099C589.387 92.6432 588.556 95.8166 587.556 95.8166C582.743 95.8166 579.484 92.8991 579.484 88.576C579.484 82.826 574.331 80.2492 570.497 84.1676C566.92 87.6602 560.765 112.363 562.362 116.431C564.257 121.521 571.328 120.264 572.755 114.6C573.5 111.448 575.417 109.617 577.823 109.617C583.147 109.617 584.318 114.195 580.741 121.095C576.247 129.742 569.177 131.658 559.7 126.909ZM423.426 119.178C418.273 116.601 415.866 108.786 414.034 88.8099C413.353 81.1646 412.288 73.4345 411.777 71.5179C411.032 68.8558 412.033 68.0253 415.696 68.0253C421.68 68.0253 422.34 69.5159 424.086 89.5768C425.598 106.784 428.346 113.024 433.585 111.022C437.482 109.531 437.822 99.2236 434.734 80.0784C433.073 70.1118 433.244 67.024 435.245 65.7675C442.316 61.274 443.721 65.1927 445.979 95.8166C447.043 110.873 446.809 112.939 443.402 116.027C438.397 120.52 429.091 122.01 423.426 119.178ZM531.738 120.69C531.248 120.179 532.654 108.274 534.89 94.3894C538.639 71.0914 539.32 68.9406 543.387 68.3443C548.882 67.599 548.967 70.6016 544.218 99.7134C541.3 117.858 540.3 120.606 536.807 121.095C534.571 121.436 532.313 121.265 531.823 120.69H531.738ZM504.458 118.092C497.792 117.262 497.792 117.262 499.134 103.036C502.946 61.0398 502.286 64.0212 507.695 64.0212C513.104 64.0212 513.104 62.4456 508.951 99.1389C507.78 109.361 507.78 109.361 516.341 110.042C523.582 110.532 525.094 111.363 525.669 115.111C526.329 119.839 522.751 120.349 504.458 118.092ZM458.607 93.9851C458.607 80.9945 458.117 68.941 457.457 67.1947C456.456 64.5327 458.203 64.0212 469.192 64.0212C480.415 64.0212 482.651 64.7027 485.228 68.4295C489.146 74.0091 489.231 79.8442 485.398 85.2322C482.992 88.746 482.906 89.5768 485.163 90.4925C489.146 91.9833 490.892 101.545 488.315 107.699C485.568 114.45 478.924 117.603 467.445 117.603H458.607V93.9851ZM479.329 103.951C480.67 99.8839 478.924 93.8149 476.411 93.8149C475.495 93.8149 473.429 93.2181 471.683 92.5579C469.106 91.6422 468.51 92.8987 468.51 99.5431C468.51 106.784 469.021 107.614 473.344 107.614C476.326 107.614 478.668 106.209 479.329 103.951ZM477.497 77.9279C477.497 74.0094 476.326 72.8382 472.002 72.3484C466.359 71.6883 465.188 74.0943 467.765 80.8238C469.852 86.1479 477.412 83.8269 477.412 77.9279H477.497ZM438.312 423.245C435.331 422.819 430.411 422.819 427.43 423.245C424.427 423.735 426.919 424.075 432.903 424.075C438.908 424.075 441.315 423.735 438.312 423.245ZM527.5 423.308C524.583 422.819 519.174 422.819 515.596 423.245C512.103 423.735 514.51 424.075 521.09 424.075C527.586 424.075 530.482 423.734 527.5 423.308ZM491.808 421.243C483.417 420.817 469.596 420.817 461.12 421.243C452.623 421.562 459.523 421.903 476.496 421.903C493.384 421.903 500.284 421.562 491.808 421.243ZM456.116 415.407C454.284 414.918 451.132 414.918 449.216 415.407C447.299 415.919 448.875 416.323 452.708 416.323C456.542 416.323 458.032 415.919 456.116 415.407ZM503.712 415.407C501.796 414.918 498.708 414.918 496.792 415.407C494.896 415.919 496.386 416.323 500.22 416.323C504.032 416.323 505.608 415.919 503.712 415.407ZM449.301 411.511C447.895 410.914 445.233 410.914 443.317 411.426C441.4 411.915 442.486 412.341 445.723 412.426C449.045 412.426 450.621 412.086 449.301 411.511ZM510.698 411.511C509.356 410.914 506.694 410.914 504.713 411.426C502.797 411.915 503.947 412.341 507.205 412.426C510.442 412.426 512.018 412.086 510.698 411.511ZM486.974 409.338C481.245 408.933 471.428 408.933 465.188 409.338C458.863 409.764 463.527 410.083 475.495 410.083C487.485 410.083 492.639 409.764 486.974 409.338ZM450.706 401.778C450.706 395.539 446.064 396.199 445.148 402.524C444.722 405.441 445.553 406.847 447.64 406.847C449.642 406.847 450.706 405.101 450.706 401.778ZM508.206 401.949C508.206 399.201 507.29 396.944 506.204 396.944C505.118 396.944 504.202 399.201 504.202 401.949C504.202 404.611 505.118 406.847 506.204 406.847C507.29 406.847 508.206 404.611 508.206 401.949ZM482.416 401.437C482.331 395.943 479.158 392.28 475.666 393.622C473.919 394.282 472.514 397.114 472.514 399.862C472.514 403.844 473.515 404.845 477.497 404.845C480.904 404.845 482.416 403.758 482.416 401.437ZM439.313 381.802C437.993 381.227 435.331 381.227 433.414 381.717C431.497 382.228 432.584 382.633 435.821 382.718C439.143 382.718 440.74 382.313 439.313 381.802ZM522.581 381.802C521.261 381.227 518.599 381.227 516.597 381.717C514.68 382.228 515.766 382.633 519.089 382.718C522.347 382.718 523.923 382.313 522.581 381.802ZM454.199 379.737C452.304 379.226 449.131 379.226 447.214 379.737C445.297 380.227 446.894 380.652 450.706 380.652C454.54 380.652 456.03 380.227 454.199 379.737ZM506.694 379.8C505.374 379.225 502.712 379.226 500.795 379.737C498.878 380.227 499.965 380.652 503.202 380.716C506.46 380.716 508.036 380.312 506.694 379.8ZM487.89 377.65C482.821 377.224 473.834 377.224 468.105 377.65C462.355 378.054 466.593 378.395 477.497 378.395C488.401 378.395 493.065 378.054 487.89 377.65ZM455.2 371.899C453.88 371.324 451.218 371.325 449.301 371.814C447.299 372.325 448.47 372.73 451.708 372.815C454.966 372.815 456.542 372.411 455.2 371.899ZM506.694 371.899C505.374 371.324 502.712 371.325 500.795 371.814C498.878 372.325 499.965 372.73 503.202 372.815C506.46 372.815 508.036 372.411 506.694 371.899ZM487.89 369.749C484.908 369.323 479.584 369.323 476.006 369.749C472.428 370.154 474.92 370.58 481.415 370.58C487.975 370.58 490.893 370.239 487.89 369.749ZM454.71 361.166C454.71 357.014 451.793 356.013 449.642 359.42C447.895 362.338 450.302 367.747 452.708 366.256C453.794 365.596 454.71 363.253 454.71 361.166ZM480.074 359.931C479.329 353.436 475.261 351.69 473.515 357.184C472.003 362.082 473.664 365.256 477.667 365.256C479.754 365.256 480.5 363.594 480.074 359.931ZM504.202 361.251C504.202 359.101 503.287 357.355 502.201 357.355C501.136 357.355 500.22 359.101 500.22 361.251C500.22 363.424 501.136 365.256 502.201 365.256C503.287 365.256 504.202 363.424 504.202 361.251ZM448.215 342.128C446.383 341.638 442.806 341.553 440.314 342.043C437.908 342.533 439.398 342.959 443.807 342.959C448.13 342.959 450.132 342.533 448.215 342.128ZM513.594 342.128C511.784 341.638 508.206 341.553 505.693 342.043C503.287 342.533 504.778 342.959 509.186 342.959C513.53 342.959 515.511 342.533 513.594 342.128ZM487.89 339.955C481.586 339.636 471.343 339.636 465.103 339.955C458.778 340.381 463.932 340.722 476.496 340.722C488.976 340.722 494.13 340.381 487.89 339.955ZM466.104 334.142C464.187 333.652 460.609 333.652 458.203 334.142C455.711 334.632 457.287 334.972 461.61 335.058C465.933 335.058 468.02 334.632 466.104 334.142ZM498.793 334.227C497.473 333.652 494.811 333.652 492.894 334.142C490.892 334.632 492.064 335.143 495.301 335.143C498.538 335.143 500.135 334.802 498.793 334.227ZM465.103 328.328C463.782 327.731 461.12 327.732 459.204 328.243C457.202 328.733 458.373 329.158 461.61 329.222C464.847 329.222 466.444 328.818 465.103 328.328ZM457.777 318.17C455.626 315.998 454.199 319.49 455.711 323.067C457.202 326.496 457.287 326.411 458.118 323.004C458.607 321.002 458.458 318.83 457.777 318.17ZM480.415 319.66C480.415 317.509 479.073 315.678 477.497 315.678C475.836 315.678 474.516 317.509 474.516 319.66C474.516 321.917 475.836 323.664 477.497 323.664C479.073 323.664 480.415 321.917 480.415 319.66ZM536.232 916.953C724.404 893.825 880.548 745.349 914.323 557.176L917.816 537.626H817.575L815.318 549.02C801.348 620.724 762.014 689.936 708.092 737.682C636.217 801.315 545.474 832.344 452.708 825.039C416.185 822.207 362.54 809.557 362.54 803.828C362.54 799.91 359.453 798.163 357.621 801.081C353.873 807.15 300.803 779.04 268.454 753.825C201.073 701.585 158.8 631.947 140.677 543.099C139.506 537.626 139.506 537.626 89.7582 537.626H40.0105L41.1816 549.02C45.5899 590.782 70.6344 659.397 98.4897 705.738C125.11 750.076 176.199 805.893 216.875 835.261C311.536 903.387 420.189 931.179 536.232 916.953ZM453.134 874.936C453.709 847.741 453.709 847.741 459.033 847.081C464.102 846.506 464.613 847.336 469.937 863.969L475.495 881.431L476.091 865.054C476.581 848.912 476.752 848.742 481.82 848.742C486.974 848.742 486.974 848.741 485.739 868.036C484.993 878.684 484.397 890.759 484.397 894.912C484.397 901.982 484.078 902.471 479.073 901.896C474.175 901.321 473.174 899.661 468.276 884.434C462.782 867.546 462.781 867.546 462.696 878.684C462.611 895.572 460.78 902.238 456.371 902.238C452.793 902.238 452.623 900.661 453.134 874.936ZM496.302 898.745C496.302 896.828 498.048 884.604 500.22 871.528C502.456 858.474 504.202 847.485 504.202 847.081C504.202 846.74 507.035 846.74 510.527 847.081C516.767 847.741 516.937 848.082 525.094 872.955C529.651 886.84 532.91 898.659 532.313 899.234C531.738 899.745 529.246 900.236 526.84 900.236C523.496 900.236 522.006 898.745 521.09 894.337C518.918 884.69 506.204 886.585 506.204 896.487C506.204 901.321 505.374 902.238 501.2 902.238C497.878 902.238 496.302 901.151 496.302 898.745ZM514.51 869.548C512.849 863.542 511.273 858.9 511.102 859.134C510.868 859.389 510.102 864.288 509.356 870.038C508.121 880.026 508.206 880.43 512.764 880.43C517.513 880.43 517.513 880.43 514.51 869.548ZM415.951 898.319C408.881 895.486 406.283 890.418 406.368 879.514C406.624 864.288 410.776 849.167 415.696 845.739C427.174 837.667 442.806 845.909 442.806 860.05C442.721 890.844 432.754 905.133 415.951 898.319ZM428.665 886.841C429.751 884.839 431.157 877.023 431.923 869.378C432.988 858.304 432.754 854.981 430.326 853.064C426.834 850.147 421.765 851.744 420.019 856.302C418.017 861.477 416.356 883.774 417.698 887.181C419.273 891.419 426.344 891.164 428.665 886.841ZM543.792 896.402C543.792 895.572 542.046 885.264 539.895 873.36C534.741 844.823 534.741 842.758 540.47 842.758C544.793 842.758 545.304 844.163 548.711 864.628C552.374 886.499 552.374 886.5 561.021 885.265C567.92 884.179 569.837 884.604 570.838 887.266C571.498 889.013 571.498 891.078 570.923 891.76C569.007 893.57 543.877 897.914 543.877 896.402H543.792ZM381.345 889.843C381.345 882.517 392.483 840.181 394.655 839.35C400.299 837.178 402.961 840.33 401.214 847.166C400.299 850.744 397.551 862.392 395.23 873.041C391.226 890.908 390.566 892.335 386.158 892.335C383.496 892.335 381.345 891.164 381.345 889.843ZM352.212 882.773C350.38 881.602 351.381 876.022 356.471 859.879C363.116 838.583 363.115 838.583 358.366 836.773C353.724 835.006 351.977 830.192 355.3 828.105C356.62 827.275 375.105 832.024 384.582 835.687C385.902 836.177 386.498 838.349 385.902 840.67C385.072 843.843 383.496 844.589 378.747 844.248C372.592 843.759 372.592 843.844 365.948 864.054C359.623 883.518 357.621 886.265 352.212 882.773ZM596.542 865.054C595.882 854.492 594.711 842.097 594.136 837.604C593.05 829.852 593.306 829.277 599.034 827.36C605.018 825.273 605.018 825.273 619.01 847.655C626.74 859.964 632.98 870.954 632.98 872.04C632.98 874.531 624.334 876.938 623.503 874.702C621.672 869.292 617.753 866.886 612.515 867.95C607.446 868.951 606.935 869.782 607.681 875.703C608.106 880.026 607.446 882.688 605.7 883.348C598.629 886.01 597.884 884.519 596.542 865.054ZM610.939 858.815C613.175 857.388 612.685 855.471 608.277 848.486C602.952 839.84 602.953 839.84 604.103 846.506C604.699 850.147 605.274 854.811 605.274 856.898C605.274 860.966 606.765 861.477 610.939 858.815ZM327.189 875.021C324.271 874.275 323.76 872.87 324.761 867.717C325.762 862.052 325.272 860.966 320.523 858.815C315.625 856.557 314.624 856.813 310.961 861.136C307.724 864.884 305.808 865.544 302.4 864.288C296.906 862.307 297.14 861.881 316.456 836.837C327.338 822.781 332.002 818.203 334.919 818.714C343.395 820.12 343.395 818.459 335.494 864.054C334.344 870.868 332.832 876.363 332.087 876.278C331.427 876.107 329.17 875.617 327.189 875.021ZM330.682 840.329C331.427 836.177 331.597 832.855 331.001 832.855C330.426 832.855 327.679 836.177 324.932 840.329C320.182 847.251 320.119 847.911 323.27 850.232C327.338 853.235 328.595 851.489 330.682 840.329ZM634.726 847.421C629.232 835.602 623.823 824.358 622.822 822.462C621.246 819.459 622.502 818.203 631.404 814.05C644.714 807.81 647.121 807.896 653.701 814.476C657.854 818.629 658.94 821.376 658.344 826.189C657.854 830.448 658.685 833.11 660.921 834.516C662.752 835.602 666.5 840.67 669.248 845.59C674.316 854.641 674.316 854.726 670.334 856.813C665.584 859.39 663.924 858.133 659.175 848.486C655.597 841.415 651.785 839.584 646.951 842.672C644.374 844.333 644.629 845.824 648.377 853.64C653.786 864.628 653.701 863.969 648.782 866.631C645.034 868.632 643.969 867.205 634.726 847.421ZM647.611 830.363C651.7 823.953 643.714 816.627 637.133 820.801C634.812 822.292 634.726 823.612 636.898 828.851C639.709 835.516 643.969 836.177 647.611 830.363ZM281.679 854.236C278.506 851.894 278.506 850.573 281.338 836.006C282.999 827.445 284.086 820.12 283.681 819.715C283.34 819.374 279.677 824.869 275.609 831.939C268.454 844.078 264.28 847.336 261.469 842.758C260.788 841.671 266.112 830.108 273.352 817.053C286.087 794.096 286.577 793.5 291.326 795.672C297.076 798.249 296.991 796.843 293.243 816.371C291.582 824.868 290.24 832.344 290.24 832.855C290.325 833.43 293.903 827.361 298.396 819.46C306.723 804.488 308.044 803.317 311.877 807.896C313.708 810.153 311.621 815.307 301.719 833.025C294.819 845.334 288.324 855.642 287.174 856.068C286.087 856.387 283.596 855.557 281.764 854.236H281.679ZM671.995 825.039C664.669 813.049 658.77 802.486 658.77 801.57C658.77 797.993 678.639 788.857 683.729 790.177C689.372 791.583 696.869 802.571 695.697 807.555C695.208 809.556 696.209 811.388 698.189 812.048C701.362 812.964 715.247 830.683 713.841 831.854C707.687 837.008 704.514 836.603 700.531 830.108C694.781 820.801 692.29 819.118 686.966 821.12C682.472 822.866 682.472 822.867 688.307 832.28C692.63 839.18 693.632 842.332 692.035 844.248C687.882 849.232 684.964 846.42 671.91 825.039H671.995ZM684.474 812.133C689.713 805.808 681.983 797.248 674.572 801.166C670.994 803.061 670.994 803.487 674.231 809.067C677.894 815.626 680.811 816.542 684.474 812.133ZM243.665 831.768C239.747 828.787 239.832 828.702 244.986 819.374C248.904 812.474 249.82 809.152 248.308 806.575C245.326 801.166 241.663 802.486 235.913 811.047C230.526 819.204 226.863 820.865 223.285 816.542C221.773 814.71 224.946 808.981 235.083 795.245C254.633 768.54 252.567 769.882 263.045 777.123C271.947 783.277 274.353 786.6 274.353 793.18C274.353 798.334 266.793 807.15 262.299 807.15C259.637 807.15 258.466 808.471 258.466 811.814C258.466 815.477 249.479 835.091 247.903 834.771C247.733 834.771 245.816 833.344 243.665 831.768ZM262.619 795.011C264.451 791.519 264.131 790.092 260.958 786.855C257.061 783.022 257.061 783.022 252.567 789.347C248.819 794.501 248.564 795.927 250.821 797.418C255.464 800.336 260.213 799.42 262.619 795.011ZM708.177 800.826C693.121 780.275 692.205 778.528 695.527 776.037C697.529 774.631 699.616 773.46 700.276 773.545C701.618 773.715 730.559 813.39 731.56 816.542C731.965 817.713 730.559 819.715 728.387 820.865C724.894 822.696 722.743 820.631 708.177 800.826ZM200.562 798.078C195.408 793.094 191.17 788.686 191.17 788.175C191.17 786.77 225.436 748.671 226.777 748.671C227.438 748.671 232.187 752.249 237.425 756.742C244.155 762.471 246.413 765.729 245.497 768.136C243.666 772.8 240.748 772.288 234.338 766.048C228.694 760.724 228.694 760.724 224.35 765.048C220.027 769.371 220.027 769.371 226.437 776.037C232.016 781.765 232.506 783.022 230.015 785.109C226.778 787.856 221.539 785.94 216.96 780.445C214.553 777.528 213.872 777.698 209.634 781.616C203.565 787.345 203.82 788.92 211.38 795.331C216.96 799.994 217.45 801.081 215.128 803.913C211.466 808.322 211.21 808.236 200.562 798.078ZM732.966 790.667C703.854 768.136 705.515 769.797 708.262 766.475C712.181 761.811 714.587 762.812 729.728 775.547C737.544 782.106 743.954 787.025 743.954 786.429C743.954 785.854 739.631 778.039 734.222 769.052C725.32 753.995 724.745 752.334 727.556 749.161C731.88 744.348 733.306 746.009 746.957 772.118C758.67 794.585 758.755 794.841 755.007 798.994C752.942 801.251 750.769 803.146 750.109 803.061C749.449 803.061 741.782 797.503 732.966 790.667ZM758.435 762.152C750.769 750.332 743.954 739.599 743.124 738.108C741.548 735.446 746.957 727.864 750.364 727.864C752.515 727.864 791.21 751.078 795.448 754.911C797.94 757.232 797.94 757.978 795.023 760.895C792.041 763.898 791.444 763.898 786.802 760.895C780.392 756.657 780.307 756.657 776.559 762.386C773.726 766.794 773.726 767.625 776.559 771.969C779.476 776.377 779.391 777.037 775.984 780.104C772.406 783.362 771.66 782.617 758.435 762.152ZM771.49 754.911C773.236 752.739 772.065 751.078 765.826 746.925C755.348 740.025 754.858 740.344 761.012 749.672C766.741 758.318 768.083 758.978 771.49 754.911ZM171.791 770.138C166.871 768.136 169.448 764.303 185.591 749.331C202.074 734.19 202.074 734.19 198.241 729.952C194.663 726.033 194.578 725.543 197.666 722.455C200.732 719.389 201.648 719.964 211.806 730.953C217.791 737.427 222.689 743.432 222.774 744.263C222.944 747.67 216.534 747.925 212.956 744.667C209.294 741.345 208.548 741.771 192.746 756.316C183.674 764.643 175.858 771.372 175.283 771.287C174.772 771.202 173.196 770.713 171.791 770.138ZM149.579 744.837C147.322 740.599 148.067 738.768 157.31 725.117C162.889 716.812 166.637 709.976 165.551 709.976C164.465 709.976 163.123 710.806 162.548 711.722C161.973 712.638 156.564 717.217 150.495 721.966C140.166 729.867 139.165 730.293 136.099 727.205C134.097 725.118 133.607 723.286 134.757 722.221C140.507 716.897 175.858 690.192 177.115 690.192C177.945 690.192 179.692 692.343 181.097 694.919C183.44 699.242 182.929 700.84 175.859 711.318C171.535 717.728 167.297 724.202 166.296 725.863C165.296 727.545 170.534 724.052 177.945 718.217C190.659 708.08 191.49 707.74 194.088 711.233C197.325 715.641 198.581 714.32 174.283 733.103C151.41 750.822 152.475 750.332 149.579 744.837ZM783.884 731.442C763.674 715.151 761.587 712.318 766.336 708.315C768.317 706.739 773.151 709.571 786.461 720.305L804.009 734.445L809.674 728.206C815.829 721.306 817.745 720.624 820.897 724.543C822.558 726.459 821.153 729.44 814.998 736.851C810.59 742.261 806.352 746.925 805.521 747.244C804.669 747.585 794.937 740.429 783.884 731.442ZM121.702 707.91C120.467 705.568 119.786 703.502 120.126 703.247C123.044 700.925 157.48 678.458 161.058 676.541C165.636 674.135 171.28 676.286 171.28 680.374C171.28 681.78 126.856 711.977 124.79 711.977C124.279 711.977 122.874 710.146 121.702 707.91ZM544.793 807.491C595.137 796.076 636.813 777.208 675.743 748.16C694.867 733.849 731.815 699.179 729.899 697.262C729.302 696.666 615.603 696.346 477.242 696.666L225.777 697.177L246.647 717.962C295.649 766.709 355.704 797.503 426.919 810.217C450.132 814.391 521.751 812.73 544.793 807.491ZM386.328 733.274C385.817 731.953 384.071 725.203 382.495 718.303C379.918 706.824 379.918 705.908 382.921 706.483C385.072 706.909 386.733 710.061 387.734 715.726C389.736 727.695 390.651 727.78 392.227 716.067C393.228 709.06 394.57 706.079 396.636 706.079C399.809 706.079 399.383 711.658 395.06 728.376C393.143 735.617 388.16 738.427 386.328 733.274ZM403.131 720.794C403.131 707.825 403.621 705.823 406.453 706.398C408.285 706.739 410.862 710.147 412.288 713.98L414.78 720.879L414.865 713.468C414.95 708.229 415.866 706.079 418.017 706.079C420.36 706.079 420.934 709.06 420.934 720.879C420.934 737.937 417.612 740.855 412.522 728.376L409.456 720.879L409.286 728.376C409.115 733.53 408.2 735.765 406.134 735.765C403.706 735.765 403.131 732.784 403.131 720.794ZM438.823 720.879C438.823 709.06 439.398 706.079 441.805 706.079C443.806 706.079 444.722 708.08 444.722 711.977C444.722 715.981 445.723 717.962 447.725 717.962C449.705 717.962 450.706 715.981 450.706 711.977C450.706 708.08 451.707 706.079 453.709 706.079C456.031 706.079 456.627 709.06 456.627 720.879C456.627 732.784 456.031 735.765 453.709 735.765C451.622 735.765 450.706 733.7 450.706 728.865C450.706 723.626 450.046 722.306 447.725 723.201C446.064 723.797 444.722 726.779 444.722 730.037C444.722 733.849 443.721 735.765 441.805 735.765C439.398 735.765 438.823 732.784 438.823 720.879ZM462.696 732.039C460.119 727.119 459.949 714.895 462.526 710.146C466.593 702.501 478.413 703.992 478.413 712.063C478.413 716.897 476.752 717.046 473.344 712.489C469.426 707.165 466.189 711.978 466.934 721.966C467.594 731.123 471.342 734.7 473.089 727.95C474.665 721.795 478.838 722.967 478.093 729.377C477.582 733.849 476.411 734.935 471.172 735.446C466.53 735.851 464.272 735.02 462.781 732.039H462.696ZM482.416 720.794C482.416 706.398 482.565 705.823 486.825 706.398C490.147 706.909 491.638 709.145 493.384 715.982L495.556 724.883L497.047 715.47C498.623 705.078 504.628 702.075 506.95 710.487C509.441 719.879 508.355 735.765 505.203 735.765C503.031 735.765 502.2 733.274 501.966 726.374L501.796 716.982L499.794 726.374C497.302 738.194 493.214 738.598 490.637 727.375L488.805 718.963L488.571 727.375C488.4 733.444 487.485 735.765 485.313 735.765C482.992 735.765 482.416 732.784 482.416 720.794ZM514.51 733.445C510.932 729.867 511.528 710.977 515.276 707.165C516.937 705.482 519.599 704.077 521.09 704.077C524.583 704.077 529.992 709.571 529.992 713.149C529.992 714.725 528.672 715.982 526.989 715.982C525.328 715.982 524.008 714.64 524.008 712.979C524.008 711.403 522.666 709.976 521.09 709.976C518.769 709.976 518.088 712.552 518.088 720.879C518.088 729.291 518.769 731.783 521.09 731.783C522.666 731.783 524.008 730.037 524.008 727.864C524.008 725.628 525.328 723.882 526.989 723.882C530.567 723.882 530.908 730.037 527.585 733.445C526.329 734.701 523.348 735.765 521.09 735.765C518.769 735.765 515.852 734.701 514.51 733.445ZM545.879 731.954C544.793 729.867 544.388 726.63 545.134 724.798C545.794 722.967 546.454 718.218 546.624 714.32C546.795 708.23 547.625 706.909 551.544 706.398C554.12 705.993 557.102 706.654 558.188 707.74C561.021 710.572 562.021 730.037 559.444 733.103C556.186 737.022 548.2 736.362 545.879 731.954ZM555.356 727.375C555.036 724.883 553.865 722.882 552.779 722.882C551.629 722.882 550.458 724.883 550.117 727.375C549.712 730.442 550.543 731.783 552.779 731.783C554.951 731.783 555.782 730.442 555.356 727.375ZM554.696 711.977C553.78 710.487 552.63 710.317 551.288 711.658C550.202 712.723 549.968 714.725 550.798 715.982C551.714 717.557 552.864 717.642 554.206 716.301C555.292 715.215 555.526 713.319 554.696 711.977ZM573.585 732.784C573.585 730.953 571.668 729.867 568.602 729.867C562.362 729.867 562.192 725.543 568.091 715.151C574.501 703.907 577.483 703.822 577.483 714.81C577.483 719.794 578.398 723.882 579.484 723.882C580.57 723.882 581.486 725.202 581.486 726.864C581.486 728.525 580.57 729.867 579.484 729.867C578.398 729.867 577.483 731.187 577.483 732.784C577.483 734.445 576.588 735.765 575.502 735.765C574.416 735.765 573.5 734.445 573.5 732.784H573.585ZM573.5 719.474C573.5 715.811 573.074 715.555 571.583 717.962C569.092 721.795 569.092 723.882 571.583 723.882C572.67 723.882 573.585 721.881 573.5 719.474ZM424.917 723.882C424.917 722.796 427.174 721.881 429.921 721.881C432.669 721.881 434.905 722.796 434.905 723.882C434.905 724.969 432.669 725.863 429.921 725.863C427.174 725.863 424.917 724.969 424.917 723.882ZM531.994 723.882C531.994 722.796 534.145 721.881 536.892 721.881C539.639 721.881 541.896 722.796 541.896 723.882C541.896 724.969 539.639 725.863 536.892 725.863C534.145 725.863 531.994 724.969 531.994 723.882ZM443.807 803.913C367.609 792.924 309.875 766.389 262.534 720.539L247.563 706.164H282.999C318.436 706.079 318.436 706.079 331.597 715.811C416.015 778.358 537.978 778.699 624.568 716.557L639.22 706.079L674.231 706.164H709.263L693.461 721.54C655.192 758.659 598.544 787.771 541.896 799.42C523.667 803.232 459.204 806.149 443.807 803.977V803.913ZM409.03 777.527C413.438 769.967 417.016 762.897 417.016 761.726C417.016 756.743 412.522 760.469 402.3 773.949C391.482 788.175 391.141 790.263 399.638 791.093C400.384 791.178 404.622 785.108 409.03 777.527ZM563.938 789.262C565.024 789.262 561.191 782.617 555.441 774.461C545.219 759.724 543.132 757.892 540.981 761.321C539.064 764.473 556.037 791.583 559.189 790.348C560.68 789.751 562.852 789.262 563.938 789.262ZM397.147 773.949C402.556 766.56 407.049 759.894 407.049 759.064C407.284 754.315 400.043 759.234 390.076 770.628C380.919 781.02 379.173 784.022 381.494 785.428C386.158 788.346 386.818 787.856 397.147 773.949ZM576.247 785.598C579.314 784.363 578.164 782.276 567.175 770.542C550.628 752.738 546.454 754.08 559.764 772.948C565.344 780.871 570.497 787.259 571.264 787.174C571.924 787.089 574.16 786.344 576.247 785.598ZM395.23 754.826C393.484 752.994 365.522 776.207 365.522 779.444C365.522 780.359 367.034 781.446 368.951 781.935C373.274 783.021 397.892 757.573 395.23 754.826ZM591.389 779.7C591.389 777.293 566.685 753.569 564.173 753.569C559.445 753.569 561.595 757.807 572.84 770.372C580.911 779.359 585.064 782.532 587.726 781.85C589.728 781.36 591.389 780.36 591.389 779.7ZM373.593 765.133C382.261 757.317 386.584 752.163 385.412 750.907C383.496 749.075 378.257 752.334 359.878 767.135C353.468 772.203 351.977 774.375 353.958 775.61C358.302 778.443 359.282 777.868 373.593 765.133ZM603.208 775.462C606.7 773.289 607.361 773.949 589.302 760.469C574.991 749.757 571.583 748.011 571.583 751.418C571.583 753.399 596.798 777.357 598.864 777.357C599.694 777.357 601.611 776.526 603.208 775.462ZM363.371 759.234C383.091 744.497 378.342 742.346 355.79 755.827C340.158 765.218 338.327 766.794 341.244 769.052C345.567 772.203 346.739 771.714 363.371 759.234ZM616.007 768.881C619.18 766.475 617.753 765.218 601.376 755.742C591.389 749.992 582.658 745.838 581.976 746.499C580.4 748.074 581.571 749.161 597.373 761.321C612.025 772.629 611.258 772.289 616.007 768.881ZM365.522 743.432C365.522 740.515 362.541 741.43 342.65 750.907C324.527 759.574 323.611 760.32 327.934 762.556C331.916 764.728 334.259 763.898 348.975 755.081C358.047 749.672 365.522 744.433 365.522 743.432ZM630.893 761.64C634.066 759.638 596.713 741.174 591.474 742.175C587.981 742.836 620.501 763.386 625.079 763.386C626.74 763.472 629.317 762.641 630.893 761.64ZM344.737 745.093C363.03 735.681 355.875 735.617 329.766 745.008C310.876 751.823 309.875 752.419 314.283 754.741C319.522 757.573 321.78 756.913 344.737 745.093ZM646.375 752.483C643.969 750.076 602.357 736.106 600.61 737.193C599.46 737.938 607.276 742.751 618.009 747.926C634.556 755.827 638.219 756.913 642.222 755.081C644.799 753.91 646.631 752.738 646.375 752.483ZM322.27 743.603C331.342 740.174 340.989 736.511 343.736 735.276C354.128 730.612 340.648 731.527 321.694 736.766C295.649 743.922 296.906 743.347 301.314 746.669C303.38 748.245 305.211 749.587 305.382 749.587C305.552 749.587 313.112 746.925 322.27 743.603ZM655.597 746.669C657.769 745.094 659.111 743.432 658.599 743.092C656.938 741.771 616.092 731.783 612.344 731.783C606.019 731.869 610.427 734.275 630.659 742.005C653.275 750.673 650.869 750.247 655.597 746.669ZM317.946 733.359C344.141 725.948 341.415 723.797 312.196 728.78C281.764 733.934 283.17 733.529 287.493 736.766C292.498 740.599 291.986 740.6 317.946 733.359ZM668.672 736.766C671.569 733.274 672.165 733.444 647.696 729.121C629.743 725.863 615.517 724.883 617.583 726.949C619.01 728.376 658.599 739.344 663.008 739.599C664.754 739.684 667.331 738.427 668.672 736.766ZM304.721 725.863C317.606 723.712 328.68 721.881 329.34 721.881C330.085 721.881 329.766 721.05 328.765 720.049C327.018 718.303 274.779 721.305 272.522 723.201C271.691 723.967 278.442 729.696 280.252 729.782C280.848 729.782 291.816 728.035 304.721 725.863ZM681.386 726.778C683.474 725.203 684.815 723.627 684.389 723.201C682.387 721.454 629.892 718.302 628.402 719.793C627.401 720.709 632.81 722.541 640.221 723.797C647.696 725.032 657.854 726.864 662.752 727.779C675.573 730.122 677.149 730.037 681.386 726.778ZM294.158 716.982C315.625 715.47 320.438 714.469 318.862 711.892C318.202 710.806 304.21 709.976 287.748 709.976C257.806 709.976 257.806 709.976 262.534 715.066C265.622 718.388 268.688 719.794 271.35 719.219C273.522 718.644 283.83 717.643 294.158 716.982ZM672.335 710.487C628.827 709.486 623.737 713.639 664.349 716.982C688.307 718.963 689.713 718.878 694.121 715.066C698.7 710.977 698.7 710.977 672.335 710.487ZM535.486 795.501C537.403 794.33 536.317 790.433 530.823 778.699C526.84 770.372 522.922 763.557 522.176 763.557C518.513 763.557 518.769 766.794 523.092 779.529C529.502 798.334 529.992 798.994 535.486 795.501ZM418.762 785.854C427.004 769.541 428.75 763.898 425.918 762.812C423.682 761.981 416.441 772.459 405.708 791.753C405.303 792.583 407.199 793.265 409.946 793.265C413.779 793.265 415.866 791.434 418.762 785.854ZM551.778 792.349C551.778 791.263 537.978 767.305 535.486 764.132C534.485 762.811 532.398 762.237 530.908 762.812C528.821 763.642 529.822 767.22 535.486 778.528C541.3 790.432 543.643 793.265 547.22 793.265C549.712 793.265 551.778 792.839 551.778 792.349ZM457.543 787.771C458.288 781.531 459.459 774.29 460.034 771.714C460.95 768.051 460.354 767.22 457.543 767.795C454.881 768.306 452.964 772.203 450.387 782.362C445.893 799.825 445.894 799.164 451.473 799.164C455.711 799.164 456.286 798.078 457.543 787.771ZM509.526 794.756C509.037 792.264 507.376 785.194 506.034 778.869C504.032 769.712 502.797 767.476 499.709 767.476C497.302 767.476 496.216 768.455 496.877 770.138C497.388 771.543 498.537 778.699 499.304 785.939C500.624 798.334 501.051 799.164 505.608 799.164C509.782 799.164 510.442 798.419 509.526 794.756ZM521.516 797.588C524.923 795.416 515.021 765.474 510.932 765.474C507.44 765.474 507.44 767.134 511.188 782.02C515.937 800.91 516.022 801.081 521.516 797.588ZM433.67 781.935C437.077 771.969 438.163 766.049 436.907 764.728C434.33 762.237 434.585 761.981 426.344 779.785C419.593 794.586 419.529 796.587 426.258 797.077C427.515 797.162 430.837 790.347 433.67 781.935ZM470.107 783.852C470.597 770.797 470.107 767.476 467.85 767.476C465.848 767.476 464.443 771.884 462.867 782.447C459.949 801.911 459.864 801.571 465.103 800.826C469.255 800.251 469.596 799.079 470.107 783.852ZM482.416 784.363C482.416 768.796 482.076 767.476 478.413 767.476C474.75 767.476 474.516 768.796 474.516 784.363C474.516 799.824 474.75 801.166 478.413 801.166C482.076 801.166 482.416 799.824 482.416 784.363ZM495.386 788.772C493.554 771.543 492.298 767.476 489.146 767.476C487.059 767.476 486.399 770.627 486.399 779.87C486.399 796.332 487.889 801.166 492.809 801.166C496.557 801.166 496.727 800.336 495.471 788.772H495.386ZM445.382 785.513C449.386 769.136 449.557 765.474 446.149 765.474C442.721 765.474 432.498 796.672 435.565 797.907C440.974 800.165 442.316 798.419 445.382 785.513Z" fill="#DBA651"/>
</svg>
