<svg width="961" height="961" viewBox="0 0 961 961" fill="none" xmlns="http://www.w3.org/2000/svg">
<path fill-rule="evenodd" clip-rule="evenodd" d="M457.188 958.554C455.42 957.801 451.655 957.539 448.854 958.011C443.233 958.904 408.705 954.999 388.657 951.182C191.399 913.415 37.931 754.678 6.0643 555.441C-23.2811 372.138 55.4402 188.503 208.295 83.5178C290.448 27.1559 378.94 0 480.861 0C558.899 0 620.181 13.814 688.922 46.9938C854.507 126.87 960.647 294.591 960.647 476.37C960.647 553.603 945.467 620.82 912.497 690.051C908.4 698.596 904.145 705.635 902.989 705.635C901.834 705.635 900.801 707.141 900.661 708.997C900.118 716.578 875.57 755.151 855.119 780.662C843.283 795.44 799.51 841.068 797.181 841.068C796.429 841.068 795.746 839.422 795.746 837.373C795.676 833.801 795.676 833.802 793.277 836.884C791.981 838.6 790.896 841.611 790.896 843.519C790.896 845.445 788.777 848.51 786.028 850.558C782.824 852.957 781.108 853.499 781.108 852.134C781.038 850.978 780.705 848.58 780.215 846.741C779.602 844.412 781.458 841.33 786.991 835.727C794.59 828.128 794.59 827.989 790.213 827.989C786.238 827.989 788.024 825.8 806.689 807.206C878.372 735.943 924.053 645.719 938.218 547.3C940.266 533.205 940.809 531.839 943.821 532.189C946.29 532.399 947.515 531.367 948.268 528.425C948.811 526.167 950.93 523.645 952.926 522.822C956.55 521.387 956.55 521.387 953.048 520.354C950.667 519.601 949.844 518.374 950.387 516.186C951.35 512.421 948.811 512.071 945.94 515.503C944.854 516.869 943.488 517.954 942.858 517.954C942.315 517.954 941.842 499.01 941.842 475.898C941.842 433.158 940.617 419.536 934.313 388.212C930.479 369.267 921.462 336.437 916.542 323.165C913.46 314.971 913.32 313.658 915.508 311.47C917.347 309.701 918.31 309.561 919.203 310.927C919.956 312.223 920.849 311.609 921.724 309.228C923.44 304.64 922.284 302.522 918.03 302.522C916.261 302.522 914.405 301.419 913.863 300.053C913.11 298.075 912.427 298.005 910.659 299.441C907.787 301.77 908.592 302.855 900.941 286.239C850.322 175.721 753.829 86.5293 639.879 44.9451C508.7 -2.8723 363.146 10.8204 243.243 82.2226C182.784 118.116 123.691 176.124 86.764 235.62C11.5971 356.818 -3.11056 507.572 47.0182 641.955C102.697 790.992 233.053 902.21 388.657 933.184C474.225 950.29 565.185 942.761 646.165 911.84C663.674 905.222 696.504 889.621 710.739 881.269C722.627 874.3 722.365 874.371 722.365 878.608C722.365 883.195 733.501 883.195 738.911 878.608C741.03 876.769 742.062 875.386 741.17 875.526C738.228 876.016 728.931 873.338 728.931 872.042C728.931 869.17 733.238 867.261 735.216 869.24C736.862 870.816 737.073 870.746 736.25 868.697C735.567 866.841 737.405 864.652 742.255 861.448C746.16 858.909 753.409 853.709 758.399 849.822C769.482 841.068 771.531 840.788 765.455 848.79C762.916 852.204 762.093 853.919 763.599 852.694C765.315 851.38 767.503 850.978 769.272 851.731C770.848 852.414 772.966 852.886 773.999 852.694C775.015 852.554 776.258 853.57 776.801 854.936C777.904 857.755 762.163 870.063 737.878 885.243C665.25 930.925 587.684 955.21 501.241 959.377C482.086 960.27 480.3 960.13 483.119 957.871C484.818 956.506 486.814 955.21 487.567 954.93C488.372 954.668 489.265 952.199 489.545 949.327C490.158 944.197 490.158 944.197 480.178 945.09C470.25 945.913 463.351 948.714 471.143 948.784C476.623 948.854 478.392 950.43 478.672 955.683C478.864 960.13 478.672 960.2 469.637 960.06C464.577 959.99 458.974 959.307 457.188 958.554ZM445.632 951.796C448.784 945.493 448.784 945.493 445.702 945.493C444.406 945.493 443.304 946.928 443.304 948.644C443.304 950.36 442.831 952.951 442.288 954.317C440.502 958.974 442.971 957.066 445.632 951.796ZM459.447 953.774C462.248 951.988 460.603 947.139 457.258 947.139C455.682 947.139 454.737 948.645 454.737 951.236C454.737 955.561 455.752 956.103 459.447 953.774ZM818.665 811.04C816.407 810.007 814.621 810.147 813.395 811.443C811.889 812.879 811.959 813.298 813.605 813.298C815.374 813.298 815.373 813.841 813.535 816.1C811.609 818.359 812.169 818.289 816.669 815.68C821.729 812.669 821.87 812.476 818.665 811.04ZM896.633 707.56C896.966 706.317 896.283 705.985 894.655 706.598C893.272 707.14 892.046 708.296 892.046 709.189C892.046 711.308 895.811 710.012 896.633 707.56ZM919.816 296.902C919.816 295.203 916.664 294.45 915.789 295.956C915.158 296.901 915.841 297.655 917.277 297.655C918.66 297.655 919.816 297.322 919.816 296.902ZM449.799 931.485C446.665 931.135 436.807 930.05 427.773 929.087C264.184 911.507 119.734 799.957 58.8545 644.283C12.4902 525.764 18.2332 393.413 74.6477 278.64C135.667 154.641 252.821 64.2235 388.657 36.384C452.601 23.2522 524.634 24.2849 585.303 39.1326C604.108 43.7725 607.312 45.1377 597.472 44.4023C592.622 44.0521 591.116 44.4556 591.449 46.1014C591.991 48.6403 591.659 48.6403 564.905 43.0899C524.493 34.6855 467.921 33.0396 422.923 38.8527C225.052 64.5035 70.1479 217.498 40.1196 416.945C35.4622 447.586 35.0595 503.597 39.1566 533.958C48.8042 604.275 71.6536 666.712 108.37 722.741C224.649 900.213 448.171 970.811 645.412 892.283C780.495 838.53 882.136 719.379 914.003 577.328C922.407 540.051 923.843 525.011 923.79 477.947C923.65 430.549 921.724 412.427 912.497 374.678C882.066 249.715 799.65 145.08 683.914 84.4112C665.582 74.7637 628.726 59.5827 613.265 55.2054C604.248 52.6666 603.285 52.0546 604.248 48.973C604.791 47.0645 605.473 45.2078 605.754 44.9451C607.942 42.4763 660.662 63.348 687.889 77.4253C908.732 191.777 996.068 460.577 884.657 683.065C858.884 734.56 820.171 784.216 777.011 821.3C772.563 825.187 767.433 829.565 765.577 831.141C763.809 832.716 756.63 838.249 749.574 843.519C739.313 851.188 736.512 852.624 735.286 850.698C734.183 849 733.43 848.93 732.555 850.296C731.872 851.311 729.263 852.694 726.812 853.307C723.59 854.13 722.365 855.496 722.365 858.227C722.365 863.147 718.46 865.826 689.605 880.797C640.772 906.167 595.493 920.542 539.604 928.473C523.058 930.802 461.566 932.85 449.799 931.485ZM450.622 913.556C448.854 913.345 439.276 912.261 429.419 911.157C291.271 896.59 162.614 808.501 95.9213 682.733C36.4251 570.692 29.4389 435.417 77.0464 316.95C117.055 217.306 195.374 134.189 293.46 87.2122C417.18 27.9788 561.841 31.0612 683.442 95.4773C806.146 160.454 889.718 278.517 910.851 416.734C916.594 454.081 915.788 513.245 909.082 553.043C878.441 734.368 732.958 878.887 551.038 908.635C521.079 913.485 468.061 916.164 450.622 913.556ZM528.188 903.909C552.876 900.967 569.632 897.833 590.153 892.283C802.382 835.185 936.852 627.527 901.904 411.062C871.876 225.36 721.944 80.2269 535.016 56.0818C406.306 39.3956 277.999 82.012 184.22 172.569C114.254 240.207 72.2665 322.01 57.1386 420.026C53.5842 443.278 53.0414 509.27 56.2631 531.769C63.5119 582.931 76.0309 623.903 98.11 668.901C155.575 786.002 264.447 870.256 394.33 898.166C430.855 905.975 489.335 908.496 528.188 903.909ZM455.542 870.956C390.636 865.616 337.023 849.472 285.861 819.987C190.383 764.868 123.148 674.732 98.3201 568.504C84.3653 509.078 84.9081 442.857 99.7559 384.324C123.761 289.46 181.279 208.341 263.764 152.802C306.855 123.877 352.343 105.194 405.764 94.6715C597.875 56.7117 790.615 169.558 852.721 356.346C867.078 399.576 871.666 429.114 871.595 479.592C871.595 531.367 867.008 560.712 851.968 605.237C814.41 716.578 725.989 807.065 614.438 848.247C567.093 865.686 502.817 874.913 455.542 870.956ZM515.949 862.254C658.404 849.402 783.909 755.764 837.4 622.397C848.133 595.59 855.189 569.676 861.405 534.238C864.347 517.412 864.277 443.54 861.265 424.946C847.871 340.884 811.609 268.257 754.161 210.179C655.34 110.464 515.599 72.505 379.622 108.486C277.456 135.503 187.775 208.341 138.119 304.641C74.9979 427.065 83.2096 577.258 159.129 690.314C177.461 717.611 190.173 732.861 213.355 755.431C294.755 834.432 402.682 872.514 515.879 862.254H515.949ZM447.418 839.965C393.315 833.189 363.759 824.785 321.702 804.334C215.684 752.56 142.233 654.28 122.535 537.529C119.121 517.079 117.685 464.814 119.996 442.455C133.689 308.125 222.04 192.53 349.472 142.068C421.347 113.616 506.634 110.062 582.834 132.281C650.962 152.119 719.423 198.29 763.739 254.232C771.811 264.422 772.423 265.788 770.165 268.047C767.293 270.848 769.272 272.634 746.843 246.231C705.538 197.608 639.669 155.813 577.231 138.637C542.073 128.937 516.212 125.505 479.215 125.575C412.802 125.715 354.182 142.191 297.207 176.737C203.848 233.362 141.76 328.856 128.418 436.292C125.88 457.023 126.3 506.678 129.241 528.092C139.974 605.57 173.837 673.226 230.182 729.377C265.13 764.256 300.569 788.191 343.799 806.243C389.27 825.258 429.419 833.049 481.946 833.049C568.337 833.119 646.918 803.441 714.906 745.17C722.907 738.324 724.886 737.309 726.742 739.078C729.806 742.229 729.403 743.945 726.182 741.266C723.73 739.288 723.52 739.497 724.343 742.702C725.096 745.643 723.52 747.902 716.062 754.328C663.201 799.956 595.073 829.844 523.461 838.739C506.634 840.787 460.27 841.54 447.418 839.965ZM409.038 811.723V772.52H420.454C430.784 772.52 431.887 772.8 431.887 775.811C431.887 778.543 430.784 779.033 424.569 779.033C417.46 779.033 417.18 779.226 417.18 783.953C417.18 788.593 417.53 788.803 423.746 788.803C429.156 788.803 430.242 789.346 430.242 792.095C430.242 794.826 429.156 795.369 423.746 795.369C417.582 795.369 417.18 795.65 417.18 800.22C417.18 804.947 417.46 805.157 424.569 805.157C430.784 805.157 431.887 805.63 431.887 808.431C431.887 811.373 430.784 811.723 420.454 811.723H409.038ZM436.808 792.025C436.808 772.327 436.808 772.327 441.185 772.8C445.019 773.272 446.245 774.849 449.799 783.953L453.914 794.546L454.387 783.533C454.86 773.08 455.07 772.52 458.904 772.52C462.861 772.52 462.861 772.519 462.861 792.095C462.861 811.722 462.861 811.723 458.361 811.723C454.247 811.723 453.424 810.619 448.976 799.063L444.126 786.405L443.654 799.063C443.163 810.357 442.831 811.723 439.959 811.723C436.948 811.723 436.738 810.48 436.738 792.025H436.808ZM475.66 795.369C476.133 779.033 476.133 779.033 471.143 779.033C467.238 779.033 466.153 778.333 466.153 775.811C466.153 772.8 467.238 772.52 479.215 772.52C491.191 772.52 492.277 772.8 492.277 775.811C492.277 778.21 491.191 779.033 488.18 779.033C484.065 779.033 484.065 779.033 484.065 795.369C484.065 811.722 484.065 811.723 479.617 811.723C475.118 811.723 475.118 811.722 475.66 795.369ZM495.901 792.497L496.321 773.343L505.619 772.87C513.27 772.467 515.529 772.94 518.26 775.671C522.235 779.646 522.638 787.578 519.083 790.519C517.175 792.095 517.035 792.918 518.54 793.863C519.644 794.546 521.009 798.784 521.622 803.371C522.637 811.583 522.638 811.652 518.138 811.652C514.023 811.652 513.62 811.11 513.13 804.737C512.727 798.521 512.185 797.767 508.14 797.295C503.833 796.804 503.693 797.015 503.693 804.194C503.693 811.11 503.36 811.652 499.525 811.652C495.428 811.652 495.428 811.652 495.901 792.497ZM510.889 788.331C514.706 785.529 513.62 779.978 509.173 779.366C506.634 779.033 505.409 779.979 504.656 783.131C502.887 790.029 505.549 792.218 510.889 788.331ZM534.684 804.474C534.684 800.027 532.828 793.181 529.834 786.405C523.881 773.221 523.811 772.52 528.871 772.52C532.022 772.52 533.318 773.955 535.647 780.048L538.519 787.577L541.32 780.468C543.508 774.848 545.014 773.22 548.359 772.8C553.629 772.187 553.699 771.574 547.746 784.776C544.471 792.095 542.826 798.31 542.826 803.721C542.826 811.109 542.546 811.723 538.781 811.723C535.017 811.723 534.684 811.11 534.684 804.474ZM312.738 757.007C312.738 752.962 312.737 752.962 480.861 752.962C648.896 752.962 648.896 752.962 648.896 757.007C648.896 761.104 648.896 761.104 480.861 761.104C312.737 761.104 312.738 761.104 312.738 757.007ZM733.781 735.19C733.781 734.157 732.695 733.335 731.312 733.335C729.806 733.335 734.393 727.049 742.185 718.294C791.648 662.335 819.278 604.485 831.184 531.84C835.614 504.561 835.211 448.811 830.431 422.477C821.467 373.574 806.899 334.179 783.086 294.924C776.188 283.438 775.365 281.248 777.344 279.27C779.34 277.274 779.199 277.011 776.328 277.081C774.542 277.204 773.036 276.731 773.036 275.978C772.424 265.578 773.649 266.33 785.082 283.647C816.739 331.727 836.787 391.907 841.707 453.732C847.993 532.733 824.408 619.945 779.602 683.608C760.938 710.082 733.781 740.653 733.781 735.19ZM678.925 732.178C682.076 721.638 681.936 720.815 676.403 716.438L670.923 712.201L677.979 712.131C684.545 712.131 685.158 711.798 687.539 706.055L690.078 699.962L693.23 706.055C696.101 711.588 696.924 712.131 703.21 712.131L710.108 712.201L704.715 716.438C699.725 720.342 699.375 721.236 700.408 727.049C701.424 733.475 701.424 733.475 695.681 730.743C690.218 728.064 689.728 728.134 684.055 731.495C678.714 734.63 678.172 734.7 678.925 732.109V732.178ZM261.033 727.452C262.679 721.989 262.539 721.236 258.442 717.751C252.681 712.814 252.821 712.131 259.807 712.131C264.867 712.131 265.883 711.448 268.001 706.458C269.315 703.306 270.751 700.715 271.223 700.715C271.766 700.715 273.202 703.306 274.515 706.458C276.704 711.658 277.456 712.131 283.812 712.131L290.711 712.201L285.458 716.368C280.521 720.203 280.188 721.025 281.203 727.258C282.236 733.947 282.237 733.947 276.634 730.463C271.013 726.979 270.943 726.979 266.163 730.183C259.527 734.56 258.914 734.228 261.033 727.452ZM213.233 677.865C213.233 674.591 214.318 674.591 480.861 674.591C747.385 674.591 748.488 674.591 748.488 677.865C748.488 681.157 747.385 681.157 480.861 681.157C214.318 681.157 213.233 681.157 213.233 677.865ZM236.415 658.518C234.839 657.555 234.419 652.355 234.769 638.54C235.242 619.946 235.242 619.945 239.286 619.945C243.051 619.945 243.454 620.628 243.874 627.667C244.347 634.705 244.749 635.458 248.374 635.458C252.068 635.458 252.348 634.845 252.348 627.264C252.348 619.665 252.629 619.122 256.446 619.122C260.56 619.122 260.56 619.122 260.56 639.643C260.56 659.954 260.49 660.147 256.866 659.604C253.644 659.201 253.101 657.957 252.681 650.516C252.278 642.777 251.875 641.955 248.374 641.955C243.926 641.955 242.561 644.703 242.561 653.527C242.561 659.953 240.862 661.319 236.415 658.518ZM265.41 658.307C265.41 657.485 267.739 648.257 270.61 637.927C275.6 619.735 275.881 619.122 280.258 619.122C283.13 619.122 285.108 620.138 285.651 621.994C288.12 630.136 294.825 656.592 294.825 658.098C294.825 662.283 287.91 659.813 286.141 655.033C284.705 651.269 283.27 650.166 279.908 650.166C276.283 650.166 275.268 651.059 274.375 655.033C273.552 658.85 272.449 659.953 269.385 659.953C267.196 659.953 265.41 659.2 265.41 658.307ZM282.709 641.009C282.167 639.643 281.764 636.894 281.764 634.986C281.764 630.469 279.085 633.148 277.579 639.083C276.634 642.988 276.966 643.6 280.118 643.6C282.709 643.6 283.462 642.917 282.709 641.009ZM299.676 639.643V619.122H308.64C315.469 619.122 318.41 619.946 320.879 622.397C324.294 625.829 325.187 633.007 322.665 636.964C321.842 638.26 321.702 640.518 322.455 641.901C323.138 643.267 324.153 647.907 324.714 652.144C325.659 659.533 325.537 659.953 321.912 659.953C317.465 659.953 316.029 657.223 316.029 649.203C316.029 644.353 315.469 643.6 312.055 643.6C308.43 643.6 308.028 644.353 307.537 651.339C307.065 657.957 306.522 659.201 303.37 659.604C299.746 660.147 299.676 659.954 299.676 639.643ZM314.103 635.669C317.588 633.41 315.749 626.582 311.512 625.951C308.29 625.479 307.887 626.161 307.887 631.221C307.887 637.104 309.726 638.4 314.103 635.669ZM329.091 657.835C329.091 656.732 330.457 650.657 332.173 644.423C333.871 638.138 336.13 629.856 337.163 626.091C338.739 620.016 339.544 619.122 343.589 619.122C348.036 619.122 348.369 619.735 352.343 634.232C359.242 659.533 359.312 659.953 354.864 659.953C352.063 659.953 350.487 658.587 349.122 655.033C347.756 651.391 346.25 650.166 343.239 650.166C340.175 650.166 338.739 651.391 337.496 655.033C335.727 660.023 329.091 662.212 329.091 657.835ZM345.918 638.33C345.357 635.388 344.674 632.727 344.342 632.324C343.378 631.151 342.556 632.797 341.4 638.33C340.367 642.917 340.647 643.6 343.589 643.6C346.53 643.6 346.793 642.917 345.918 638.33ZM363.356 639.643V619.122H370.816C378.187 619.122 384.28 621.241 386.539 624.655C388.587 627.667 387.974 635.196 385.506 637.454C383.667 639.153 383.597 639.976 385.313 641.955C386.469 643.338 387.764 647.977 388.255 652.284C389.078 659.953 389.007 660.094 384.753 659.604C381.006 659.201 380.375 658.237 379.692 651.742C379.01 645.788 378.187 644.353 375.245 643.95C372.111 643.46 371.621 644.213 371.218 651.269C370.745 657.958 370.185 659.201 367.051 659.604C363.356 660.147 363.356 659.954 363.356 639.643ZM378.607 633.55C379.833 631.571 379.693 630.135 378.134 628.209C374.37 623.692 371.498 625.128 371.498 631.501C371.498 637.857 375.193 638.89 378.537 633.55H378.607ZM395.433 658.85C394.82 658.238 394.33 649.08 394.33 638.47V619.122H405.764C416.077 619.122 417.18 619.455 417.18 622.397C417.18 625.198 416.077 625.688 409.861 625.688C402.752 625.688 402.472 625.881 402.472 630.538C402.472 635.195 402.892 635.458 409.038 635.458C414.448 635.458 415.534 636.018 415.534 638.75C415.534 641.411 414.448 641.955 409.038 641.955C402.892 641.955 402.472 642.235 402.472 646.892C402.472 651.602 402.752 651.742 409.861 651.742C416.567 651.742 417.18 652.144 417.18 655.839C417.18 659.743 416.777 659.953 406.849 659.953C401.176 659.953 396.046 659.463 395.433 658.85ZM436.265 658.85C435.652 658.238 435.162 649.08 435.162 638.47C435.162 619.122 435.162 619.122 439.206 619.122C443.303 619.122 443.304 619.123 443.304 639.503C443.304 658.238 443.041 659.953 440.292 659.953C438.664 659.953 436.807 659.411 436.265 658.85ZM451.445 639.573C451.445 618.912 451.445 618.912 455.753 619.455C459.307 619.875 460.742 621.714 464.297 630.469L468.604 641.009L469.427 630.469C470.11 621.031 470.6 619.876 473.945 619.385C477.639 618.913 477.639 618.912 477.236 639.013C476.746 659.131 476.746 659.13 472.719 659.13C469.234 659.13 468.061 657.555 464.227 647.715L459.85 636.281L459.307 647.715C458.904 658.098 458.484 659.131 455.14 659.604C451.515 660.147 451.445 659.953 451.445 639.573ZM490.631 643.74C490.631 627.527 490.631 627.526 486.113 626.984C482.909 626.581 481.684 625.549 481.684 623.22C481.684 620.278 482.909 619.875 494.325 619.455C506.914 618.982 506.914 619.052 506.914 623.149C506.914 626.511 506.161 627.317 502.887 627.317C498.773 627.317 498.773 627.317 498.773 643.6C498.773 659.954 498.773 659.953 494.746 659.953C490.631 659.953 490.631 659.954 490.631 643.74ZM508.56 655.033C508.56 650.656 509.103 649.956 512.255 650.446C514.916 650.849 515.949 652.022 515.949 655.033C515.949 658.027 514.916 659.271 512.255 659.604C509.103 660.094 508.56 659.463 508.56 655.033ZM533.038 658.781C533.038 658.168 535.437 648.941 538.308 638.4C543.368 619.876 543.718 619.122 547.956 619.122C552.946 619.122 553.279 620.016 559.092 643.058C563.276 659.744 563.276 659.953 558.549 659.953C555.748 659.953 554.312 658.78 553.629 655.839C552.806 652.705 551.51 651.742 547.886 651.742C544.261 651.742 542.966 652.705 542.213 655.839C541.46 658.85 540.094 659.953 537.083 659.953C534.894 659.953 533.038 659.411 533.038 658.781ZM550.407 639.906C549.864 637.928 549.391 634.845 549.391 633.147C549.391 628.629 547.676 631.011 546.17 637.787C544.944 642.987 545.207 643.6 548.096 643.6C550.687 643.6 551.16 642.848 550.407 639.906ZM567.303 639.573C567.303 619.122 567.304 619.122 571.418 619.122C575.515 619.122 575.515 619.122 575.515 639.573C575.515 659.953 575.515 659.953 571.418 659.953C567.304 659.953 567.303 659.953 567.303 639.573ZM583.114 641.009C582.554 630.538 582.484 621.311 582.974 620.558C585.355 616.723 603.687 619.875 606.909 624.726C608.818 627.667 608.275 635.056 605.946 637.454C604.108 639.293 604.108 639.976 605.946 641.692C607.119 642.847 608.135 646.209 608.135 649.273C608.135 652.285 608.555 655.979 609.168 657.485C610.061 659.673 609.308 660.093 605.473 659.673C601.236 659.201 600.676 658.448 599.993 651.812C599.31 645.789 598.487 644.353 595.546 643.95C592.412 643.46 591.921 644.213 591.519 651.269C591.116 657.835 590.433 659.201 587.544 659.604C584.34 660.094 584.13 659.201 583.167 641.009H583.114ZM598.837 633.62C601.096 629.996 599.118 625.688 595.143 625.688C592.412 625.688 591.799 626.703 591.799 631.501C591.799 637.787 595.493 638.96 598.837 633.62ZM614.631 639.573V619.122H623.455C634.749 619.122 639.809 622.817 639.809 631.081C639.809 638.82 635.362 643.6 628.253 643.6C622.843 643.6 622.843 643.6 622.843 651.812C622.843 659.411 622.562 659.953 618.745 659.953C614.631 659.953 614.631 659.953 614.631 639.573ZM630.634 631.764C630.301 627.737 629.268 626.372 626.467 625.951C623.263 625.549 622.843 626.161 622.843 631.291C622.843 636.422 623.315 637.104 627.01 637.104C630.704 637.104 631.124 636.561 630.634 631.764ZM648.704 656.802C645.202 654 644.869 652.425 644.869 639.836C644.869 628.56 645.412 625.408 647.951 622.606C651.505 618.632 661.275 617.879 665.863 621.241C672.429 626.021 673.041 650.516 666.686 656.872C662.711 660.847 653.694 660.846 648.704 656.802ZM662.588 645.789C665.39 632.517 659.839 620.699 654.376 628.14C651.645 631.974 651.505 648.801 654.167 651.532C657.791 655.086 661.153 652.845 662.588 645.789ZM677.839 658.921C676.403 657.485 676.333 644.773 677.699 630.135C678.784 619.122 678.784 619.122 685.77 619.122C699.655 619.122 706.151 626.231 700.741 635.598C698.692 639.153 698.622 640.449 700.338 642.235C701.424 643.46 702.737 647.977 703.21 652.284C704.033 659.953 703.962 660.094 699.725 659.604C695.961 659.201 695.348 658.238 694.595 651.812C693.982 645.789 693.159 644.353 690.218 643.95C686.996 643.46 686.593 644.213 686.103 651.269C685.77 657.765 685.018 659.201 682.286 659.604C680.5 659.884 678.452 659.534 677.839 658.921ZM693.562 633.55C694.788 631.571 694.665 630.136 693.089 628.28C689.325 623.763 686.453 625.128 686.453 631.501C686.453 637.857 690.148 638.96 693.492 633.55H693.562ZM715.869 643.88C715.869 627.527 715.869 627.526 711.351 626.984C708.13 626.633 706.694 625.478 706.361 622.817C705.801 619.263 706.221 619.122 719.003 619.122C731.942 619.122 732.135 619.193 732.135 623.22C732.135 626.441 731.312 627.317 728.108 627.317C724.133 627.317 724.133 627.527 723.66 643.198C723.188 658.308 722.978 659.13 719.493 659.673C715.921 660.146 715.869 659.814 715.869 643.88ZM213.233 602.016C213.233 597.919 213.233 597.919 480.931 597.919C748.699 597.919 748.699 597.919 748.138 601.613C747.666 605.308 747.666 605.308 480.441 605.711C213.233 606.061 213.233 606.061 213.233 602.016ZM245.852 469.944C245.852 384.185 246.325 354.699 247.761 353.806C248.794 353.124 261.786 352.791 276.563 353.001C306.522 353.403 309.656 354.227 316.905 363.734C321.282 369.477 321.282 369.477 334.554 369.407C341.873 369.337 374.02 369.81 406.027 370.3L464.297 371.315L465.4 363.664C467.116 352.3 465.26 333.986 461.426 323.848C458.974 317.352 458.554 314.481 459.85 312.853C463.141 308.948 465.61 310.594 470.74 320.102L475.871 329.468L475.923 322.15C475.923 315.094 476.273 314.691 482.699 311.959C489.125 309.28 489.545 309.281 493.502 312.362C495.761 314.148 498.562 315.584 499.805 315.584C501.381 315.584 502.064 317.913 502.064 323.236V330.905L506.914 323.236C512.115 315.042 515.879 312.502 518.68 315.234C519.836 316.407 518.68 320.294 514.916 327.963C510.329 337.19 509.506 340.744 509.506 350.532C509.453 373.311 504.586 371.525 562.926 370.37C649.579 368.584 639.319 369.547 645.342 362.701C648.213 359.497 652.521 355.995 655.059 355.12C660.26 353.124 709.706 351.356 712.437 353.054C713.733 353.877 714.363 386.023 714.626 469.122L715.046 584.034L245.852 584.857V469.944ZM487.426 565.842C489.615 564.406 493.642 561.184 496.321 558.733C499.946 555.371 503.43 554.076 509.716 553.463C517.175 552.85 519.293 551.748 527.365 544.289C537.153 535.394 540.427 534.518 552.946 537.389C558.339 538.615 559.372 538.283 563.416 534.098C567.041 530.333 567.373 529.388 565.185 529.388C562.664 529.388 562.453 526.236 562.453 495.525C562.523 433.158 567.794 394.848 578.106 382.609C582.291 377.619 582.291 377.619 569.842 377.619C558.479 377.619 557.043 378.022 553.349 381.926C545.014 390.944 540.637 416.944 537.958 473.096C536.049 514.067 535.367 519.6 532.425 519.6C530.849 519.6 530.026 514.4 529.203 499.762C526.682 452.033 529.011 402.026 534.404 387.739C537.696 379.054 537.696 379.054 534.141 379.527C523.198 381.103 517.245 415.368 513.34 498.397C512.325 520.353 511.151 538.685 510.749 539.158C508.21 541.837 506.984 531.087 506.704 503.265C506.091 426.312 507.737 397.579 513.48 384.587L516.562 377.619H479.688C444.669 377.619 442.901 377.759 445.282 380.49C449.327 385.13 451.375 393.342 453.231 412.497C455.14 432.335 454.737 536.497 452.671 538.475C450.08 541.084 448.976 536.777 448.644 522.332C446.595 445.046 440.099 391.696 431.607 382.609C425.392 375.903 423.816 378.372 427.3 389.455C429.769 397.317 430.854 407.087 431.887 432.265C433.323 466.671 432.29 514.68 430.031 518.234C426.897 523.365 425.584 514.54 423.133 471.45C419.771 413.11 416.217 392.326 408.023 382.539C404.048 377.881 403.225 377.619 391.669 377.619H379.5L383.667 383.082C392.824 395.128 397.132 425.087 398.708 487.384C399.741 527.392 399.601 529.388 396.799 529.388C394.138 529.388 394.19 529.861 397.692 533.555C401.386 537.459 402.262 537.653 411.84 536.637C423.273 535.394 424.359 535.884 437.49 547.23C443.916 552.78 446.245 553.866 452.198 553.866C458.221 553.866 460.603 554.969 467.992 561.184C477.499 569.116 481.193 570.009 487.426 565.842ZM465.943 537.46C465.803 537.04 465.19 510.636 464.507 478.769C463.281 419.396 461.495 402.236 455.28 390.208C451.918 383.764 454.107 382.328 458.904 387.879C463.614 393.342 467.309 405.178 469.637 422.074C472.106 440.126 470.933 533.415 468.202 536.146C467.046 537.32 466.083 537.863 465.943 537.46ZM491.244 526.517C488.862 506.136 489.878 427.205 492.679 412.357C495.498 397.719 501.241 385.34 505.759 384.447C508.35 383.975 508.28 384.587 505.199 391.696C499.315 405.528 497.197 427.204 497.197 474.059C497.127 517.954 496.111 537.529 493.782 537.529C493.1 537.529 491.944 532.592 491.244 526.517ZM408.495 518.514C407.882 517.954 407.392 510.023 407.392 500.936C407.392 456.55 402.139 411.202 394.943 393.272C390.373 381.857 390.846 380.28 396.589 387.809C405.886 399.978 409.791 416.401 412.452 454.624C415.131 492.444 413.205 523.224 408.495 518.514ZM548.429 510.233C545.347 485.616 550.337 420.096 556.71 402.167C559.302 394.848 567.041 383.292 568.477 384.727C568.879 385.13 567.444 390.54 565.185 396.633C562.996 402.779 560.405 412.708 559.372 418.713C557.043 432.055 554.382 472.343 554.312 493.687C554.242 518.988 550.757 528.828 548.429 510.233ZM379.622 513.508C379.57 499.833 375.053 447.515 372.304 429.323C368.207 401.554 360.888 381.576 353.429 377.619C351.87 376.726 345.707 375.973 339.824 375.973H329.231L334.011 386.093C336.603 391.696 339.894 401.414 341.19 407.77C343.729 419.536 347.003 468.789 347.003 493.687C347.003 507.694 347.003 507.695 356.44 513.508C364.582 518.585 368.277 519.88 377.644 520.966C379.01 521.106 379.622 518.708 379.622 513.508ZM357.806 489.853C357.333 484.25 356.44 471.52 355.898 461.68C353.989 425.559 348.106 396.494 340.577 385.953C337.233 381.173 337.163 380.893 340.104 380.893C348.036 380.893 355.355 394.586 359.242 416.525C361.991 431.985 364.512 488.697 362.744 495.665C360.888 503.054 358.769 500.516 357.806 489.853ZM603.898 513.788C613.948 507.082 612.652 513.998 616.277 446.763C618.255 410.099 619.831 401.082 626.817 386.707L632.017 375.973H620.724C610.674 375.973 609.028 376.445 605.001 380.49C593.917 391.643 586.056 431.039 582.834 491.831C582.361 502.161 581.468 513.104 580.978 516.186C580.173 521.719 580.173 521.719 587.544 520.703C592.061 520.073 598.487 517.342 603.898 513.788ZM598.365 471.521C598.365 439.041 601.779 408.33 606.629 397.316C610.674 388.282 617.38 380.893 621.687 380.893C624.699 380.893 624.699 381.103 622.16 384.587C612.372 397.789 607.312 422.004 605.053 466.39C604.248 482.936 603.075 497.311 602.462 498.257C599.24 503.527 598.365 497.714 598.365 471.521ZM772.283 501.339C771.881 500.183 771.198 496.068 770.778 492.251C770.095 486.228 770.375 485.335 773.106 485.335C775.715 485.335 776.188 486.561 776.188 493.407C776.188 501.006 773.719 505.996 772.283 501.339ZM185.463 498.607C185.463 496.891 185.043 493.266 184.43 490.465C183.537 485.948 183.817 485.335 187.092 485.335C190.453 485.335 190.646 485.878 189.77 491.498C189.21 494.843 188.738 498.537 188.738 499.64C188.738 500.725 187.984 501.688 187.092 501.688C186.216 501.688 185.463 500.323 185.463 498.607ZM167.061 497.451C165.625 495.998 172.734 482.13 174.923 482.13C178.897 482.13 178.617 484.372 173.89 491.288C168.707 498.887 168.567 498.939 167.061 497.451ZM200.294 491.288C195.584 484.442 195.304 482.13 199.278 482.13C201.729 482.13 208.645 496.418 206.719 497.574C205.914 498.064 203.043 495.262 200.294 491.288ZM753.339 497.241C753.339 492.444 759.082 482.13 761.761 482.13C765.718 482.13 765.577 482.866 760.325 491.288C756.21 497.784 753.339 500.253 753.339 497.241ZM787.201 491.691C782.141 484.512 781.651 482.13 785.153 482.13C788.094 482.13 794.993 494.983 793.084 496.822C792.331 497.504 789.722 495.263 787.201 491.691ZM739.874 483.287C739.524 482.184 742.465 479.312 746.37 476.79C754.704 471.52 754.372 471.59 755.597 474.742C756.21 476.44 754.161 478.437 748.558 481.238C742.938 484.11 740.347 484.723 739.874 483.287ZM152.826 482.253C152.826 480.345 166.308 472.413 167.884 473.376C170.545 475.004 168.9 477.264 162.684 480.415C155.628 484.04 152.826 484.512 152.826 482.253ZM211.167 480.345C205.284 477.193 203.655 474.934 206.247 473.376C207.893 472.413 221.357 480.345 221.357 482.253C221.357 484.512 217.873 483.899 211.167 480.345ZM797.864 480.415C792.874 478.227 791.228 476.65 791.911 474.865C792.472 473.429 793.154 472.344 793.487 472.344C795.466 472.344 808.545 481.85 807.722 482.673C806.356 484.109 805.866 483.97 797.864 480.415ZM182.994 480.888C178.144 479.802 171.088 472.483 169.933 467.353C168.427 460.367 172.944 451.542 179.65 448.338C197.352 439.916 213.093 462.083 198.998 475.687C194.218 480.275 188.527 482.131 182.994 480.888ZM768.589 480.205C754.634 476.44 752.253 456.34 764.772 448.881C772.283 444.504 778.99 445.397 785.345 451.752C791.911 458.318 792.664 465.305 787.674 473.499C785.906 476.44 784.19 478.839 783.98 478.839C783.717 478.839 781.318 479.452 778.657 480.205C775.978 480.958 771.391 480.958 768.589 480.205ZM155.698 466.181C143.389 465.235 147.363 460.927 160.565 460.927C164.802 460.857 165.888 461.541 165.888 464.132C165.888 465.918 165.345 467.283 164.662 467.073C163.98 466.933 159.952 466.531 155.698 466.181ZM208.295 463.992C208.295 460.648 208.855 460.507 216.717 461.4C229.989 462.976 230.042 464.744 216.91 466.39C208.855 467.423 208.295 467.284 208.295 463.992ZM742.325 466.181C734.184 465.498 733.308 463.308 740.487 461.873C749.644 460.104 753.689 460.647 753.076 463.589C752.446 466.811 751.57 467.003 742.325 466.181ZM794.993 465.778C792.804 462.293 796.849 460.577 804.57 461.733C812.782 462.976 814.901 465.777 807.652 465.847C805.183 465.847 801.559 466.25 799.65 466.81C797.724 467.283 795.606 466.863 794.993 465.778ZM161.038 451.752C157.956 449.634 154.752 447.655 153.859 447.375C152.966 447.112 152.756 446.009 153.386 444.924C154.892 442.595 169.11 449.091 169.11 452.172C169.11 455.797 166.781 455.727 161.038 451.752ZM206.107 454.904C203.515 452.295 205.494 449.634 211.99 447.043C219.921 443.891 220.272 443.821 220.954 445.8C221.235 446.623 219.799 448.128 217.733 449.161C215.684 450.176 212.48 452.172 210.624 453.538C208.786 454.904 206.719 455.517 206.177 454.904H206.107ZM745.617 450.93C736.319 444.364 738.368 441.912 748.699 447.112C755.457 450.596 756.56 451.682 754.914 453.678C753.829 454.974 752.866 455.99 752.726 455.92C752.656 455.868 749.451 453.608 745.617 450.93ZM791.789 452.786C791.228 451.963 794.45 449.354 799.037 447.043C808.878 442.035 810.856 445.327 801.419 450.93C794.923 454.764 793.154 455.115 791.789 452.786ZM169.653 438.831C167.324 433.911 166.851 431.092 168.024 430.409C168.97 429.796 170.003 430.076 170.335 430.969C170.616 431.914 172.664 435.137 174.923 438.148C177.934 442.175 178.407 443.891 176.901 444.854C173.627 446.973 173.207 446.553 169.653 438.831ZM197.282 444.854C195.776 443.891 196.529 441.772 200.294 436.712C204.601 430.829 208.295 428.027 208.295 430.689C208.295 432.335 201.046 446.22 200.223 446.22C199.751 446.15 198.385 445.607 197.282 444.854ZM756.7 439.723C753.128 432.807 752.516 429.866 754.704 429.866C756.77 429.866 764.894 443.068 763.879 444.714C762.093 447.656 759.905 446.149 756.7 439.723ZM783.577 444.644C782.474 442.858 790.546 429.866 792.734 429.866C794.853 429.866 794.52 431.845 790.896 439.374C787.604 446.15 785.485 447.655 783.577 444.644ZM184.973 434.383C186.409 421.251 187.915 421.251 189.63 434.383C190.716 442.315 190.523 442.928 187.372 442.928C184.22 442.928 184.08 442.245 184.973 434.383ZM771.338 433.84C771.338 421.864 775.155 422.407 775.908 434.523C776.258 441.229 775.838 442.928 773.859 442.928C771.881 442.928 771.338 440.949 771.338 433.84ZM528.188 316.197C526.822 315.654 524.073 313.728 522.025 311.89C518.943 309.088 517.787 308.878 514.233 310.524C506.231 314.148 492.136 311.206 490.228 305.533C489.808 304.15 488.18 304.641 484.958 307.162C479.758 311.277 472.246 311.82 466.013 308.528C462.318 306.619 461.355 306.759 458.081 309.351C453.704 312.975 447.348 313.186 441.658 309.964C439.416 308.668 434.549 307.582 430.785 307.582C412.26 307.372 406.097 283.77 422.1 274.263C424.779 272.705 426.967 270.445 426.967 269.272C426.967 266.331 431.958 262.233 437.228 260.938C439.679 260.325 444.196 257.314 447.208 254.302C451.655 249.925 454.037 248.752 459.044 248.752C462.529 248.752 466.293 249.382 467.379 250.135C468.744 250.94 471.686 249.312 475.801 245.408C486.394 235.358 498.702 235.147 509.996 244.865C514.233 248.489 518.138 250.397 521.412 250.397C528.188 250.397 533.931 253.269 536.4 257.926C538.098 261.008 539.814 261.814 544.874 261.814C551.65 261.814 560.808 268.729 560.808 273.79C560.808 275.155 563.539 278.85 566.901 282.001C572.031 286.851 572.976 288.83 572.976 294.521C572.976 300.194 572.031 302.102 567.444 306.216C562.593 310.594 561.158 311.067 554.452 310.244C548.499 309.561 546.24 310.103 543.578 312.502C539.954 315.846 532.075 317.772 528.188 316.197ZM292.567 262.706C289.835 258.609 286.684 236.302 286.684 221.402C286.614 216.675 286.211 212.858 285.721 212.858C285.178 212.858 281.554 215.046 277.649 217.708C269.245 223.521 267.739 223.731 265.41 219.354C263.011 214.906 263.292 214.627 278.612 204.646C291.884 195.892 291.884 195.892 294.756 199.726C297.014 202.72 297.89 208.27 298.783 224.274C299.466 235.62 300.569 245.88 301.321 247.123C302.337 248.751 304.596 247.877 311.232 243.079C319.846 236.933 319.846 236.933 322.858 240.557C324.434 242.536 325.467 244.794 324.976 245.477C324.574 246.16 317.657 251.22 309.656 256.7C295.158 266.681 295.158 266.681 292.567 262.706ZM645.272 252.657C638.303 247.666 632.63 243.079 632.63 242.396C632.63 241.311 636.115 235.97 658.544 203.421L665.582 193.23L678.855 202.458C686.173 207.518 692.406 211.895 692.669 212.105C693.019 212.367 691.986 214.417 690.551 216.675C687.819 220.86 687.819 220.859 678.925 214.976C670.31 209.233 669.96 209.164 667.649 212.175C661.766 219.617 661.836 220.107 670.17 225.779C677.909 231.05 678.031 231.242 675.58 235.077C672.428 239.874 672.971 239.927 664.427 234.062C660.522 231.383 656.898 229.194 656.425 229.194C655.952 229.194 653.694 231.873 651.505 235.217C647.39 241.24 647.39 241.241 656.355 247.596C664.777 253.62 665.25 254.233 663.131 257.437C661.905 259.293 660.19 261.008 659.367 261.201C658.544 261.481 652.188 257.577 645.272 252.657ZM333.398 235.287C329.021 228.301 307.887 188.153 307.887 186.787C307.887 185.421 317.395 180.974 318.288 182.007C320.056 184.335 345.357 232.486 345.357 233.642C345.357 234.937 338.528 238.982 336.41 238.982C335.99 238.982 334.624 237.336 333.398 235.287ZM606.489 230.367C604.248 229.334 602.252 228.441 602.059 228.371C601.849 228.248 603.565 220.58 605.806 211.352C608.065 202.038 609.641 193.703 609.308 192.81C609.028 191.847 604.038 198.08 598.225 206.625C587.754 222.085 587.754 222.085 582.011 219.756C578.859 218.461 576.198 217.305 575.988 217.165C575.655 216.815 585.496 174.828 588.367 164.358C590.293 157.459 590.293 157.459 595.756 160.051C600.886 162.52 601.166 163.062 599.801 167.772C593.847 188.223 591.659 196.907 592.202 197.467C592.552 197.8 597.612 191.234 603.425 182.83C613.948 167.509 613.948 167.509 619.218 169.698C622.09 170.923 624.418 172.5 624.348 173.183C624.348 173.936 622.562 182.217 620.444 191.655C618.325 201.092 616.749 208.953 617.03 209.233C617.31 209.496 621.809 202.458 627.01 193.563C636.517 177.49 636.517 177.489 641.998 179.135C644.939 180.028 647.128 181.587 646.707 182.62C644.589 188.1 614.018 232.415 612.442 232.345C611.427 232.275 608.748 231.383 606.489 230.367ZM357.684 225.99C356.581 224.204 338.861 171.817 338.861 170.311C338.861 168.595 353.096 165.041 355.005 166.266C355.968 166.826 360.888 174.268 366.018 182.76C371.078 191.305 375.385 198.081 375.665 197.801C375.876 197.538 375.053 188.572 373.809 177.909C372.584 167.159 371.691 158.265 371.901 158.142C372.111 158.002 375.736 156.706 379.903 155.323L387.432 152.802L397.342 180.781C402.822 196.101 406.779 209.234 406.167 209.847C405.484 210.459 403.015 211.475 400.634 212.035C396.449 213.051 396.186 212.718 389.62 193.773C383.317 175.581 382.984 174.969 383.667 183.443C386.819 220.65 386.889 217.306 382.774 218.601C378.257 220.037 376.418 217.988 365.475 199.656C361.308 192.6 357.544 187.137 357.123 187.47C356.721 187.89 359.119 196.032 362.464 205.609C365.738 215.169 368.207 223.118 367.926 223.311C364.302 225.499 358.366 227.076 357.684 225.99ZM529.834 206.012C525.719 205.119 521.955 203.893 521.342 203.35C519.836 201.844 532.145 145.133 534.001 145.133C541.793 145.273 558.146 150.193 561.56 153.345C567.303 158.685 567.303 168.945 561.7 174.548C557.866 178.383 557.796 178.786 560.265 183.163C563.679 189.046 561.981 198.693 556.64 204.033C552.333 208.41 543.579 209.024 529.764 206.012H529.834ZM547.676 195.821C548.709 194.526 549.392 191.094 549.111 188.153C548.709 184.055 547.536 182.55 543.911 181.394C538.518 179.538 537.153 180.904 535.507 189.729C534.754 193.633 535.087 195.822 536.592 196.715C539.954 198.903 545.487 198.413 547.676 195.821ZM551.72 169.488C556.29 164.901 553.279 157.389 546.923 157.389C543.771 157.389 542.685 158.545 541.39 163.325C540.427 166.617 540.094 169.891 540.567 170.643C542.003 172.972 548.971 172.22 551.72 169.488ZM419.719 201.232C417.39 187.61 412.4 148.564 412.942 148.074C414.518 146.446 434.969 144.258 439.679 145.133C448.854 146.849 454.667 160.524 449.327 167.842C447.471 170.381 447.751 171.397 451.795 175.371C455.07 178.645 456.365 181.586 456.365 185.701C456.365 198.693 450.009 203.753 431.467 205.662C420.664 206.765 420.664 206.765 419.719 201.232ZM441.325 192.95C442.41 191.847 443.304 189.046 443.304 186.717C443.304 180.974 440.502 178.592 433.796 178.592C428.806 178.592 428.333 178.995 429.209 182.287C429.769 184.265 430.242 187.96 430.242 190.412C430.242 194.246 430.924 194.859 434.829 194.859C437.35 194.859 440.292 194.035 441.325 192.95ZM436.055 167.509C442.551 163.132 437.28 152.802 429.559 154.711C426.407 155.534 425.321 156.637 426.004 158.405C426.547 159.771 426.967 162.642 426.967 164.831C426.967 167.843 427.843 168.805 430.662 168.735C432.71 168.735 435.092 168.192 436.055 167.509ZM466.906 196.907C467.519 194.456 471.546 181.044 475.993 167.16C483.995 141.859 483.995 141.859 491.384 142.402C495.428 142.752 498.773 143.435 498.773 143.907C498.773 145.133 510.259 196.854 511.082 199.376C511.502 200.742 509.716 201.424 505.409 201.424C499.455 201.424 499.053 201.092 497.687 195.279C496.321 189.395 495.971 189.185 488.582 188.713C480.931 188.152 480.931 188.153 479.828 194.789C478.812 201.232 478.602 201.424 472.299 201.424C466.013 201.424 465.803 201.284 466.906 196.907ZM493.24 170.381C491.384 156.496 490.298 155.954 487.146 167.3C485.501 173.043 484.205 177.962 484.135 178.172C484.135 178.452 486.394 178.592 489.195 178.592C494.325 178.592 494.325 178.592 493.24 170.381ZM941.089 525.203C941.089 521.036 941.299 520.773 942.858 523.435C944.101 525.553 944.101 526.919 942.805 528.215C941.492 529.528 941.019 528.775 941.089 525.203Z" fill="#DBA651"/>
</svg>
